<svg xmlns="http://www.w3.org/2000/svg" viewBox="0 0 2048 2048">
<g transform="matrix(1 0 0 -1 0 2048)">
<path d="M42 144 304 406Q339 441 387.5 441.0Q436 441 470.5 406.5Q505 372 505.0 323.5Q505 275 470 240L208 -22Q173 -57 124.5 -57.0Q76 -57 41.5 -22.5Q7 12 7.0 60.5Q7 109 42 144Z" fill="#d99e82" />
<path d="M53.0 72.0Q49 76 49.0 81.5Q49 87 53.0 91.0Q57 95 62.5 95.0Q68 95 72.0 91.0Q76 87 76.0 81.5Q76 76 72.0 72.0Q68 68 62.5 68.0Q57 68 53.0 72.0ZM94.0 30.0Q90 34 90.0 40.0Q90 46 94.0 50.0Q98 54 104.0 54.0Q110 54 114.0 50.0Q118 46 118.0 40.0Q118 34 114.0 30.0Q110 26 104.0 26.0Q98 26 94.0 30.0ZM136.0 -11.0Q132 -7 132.0 -1.5Q132 4 136.0 8.0Q140 12 145.5 12.0Q151 12 155.0 8.0Q159 4 159.0 -1.5Q159 -7 155.0 -11.0Q151 -15 145.5 -15.0Q140 -15 136.0 -11.0ZM94.0 113.0Q90 117 90.0 123.0Q90 129 94.0 133.0Q98 137 104.0 137.0Q110 137 114.0 133.0Q118 129 118.0 123.0Q118 117 114.0 113.0Q110 109 104.0 109.0Q98 109 94.0 113.0ZM136.0 72.0Q132 76 132.0 81.5Q132 87 136.0 91.0Q140 95 145.5 95.0Q151 95 155.0 91.0Q159 87 159.0 81.5Q159 76 155.0 72.0Q151 68 145.5 68.0Q140 68 136.0 72.0ZM177.0 30.0Q173 34 173.0 40.0Q173 46 177.0 50.0Q181 54 187.0 54.0Q193 54 197.0 50.0Q201 46 201.0 40.0Q201 34 197.0 30.0Q193 26 187.0 26.0Q181 26 177.0 30.0ZM314.5 335.5Q311 340 311.5 345.5Q312 351 316.5 355.0Q321 359 326.5 358.0Q332 357 336.0 352.5Q340 348 339.0 342.5Q338 337 333.5 333.5Q329 330 323.5 330.5Q318 331 314.5 335.5ZM357.0 293.0Q353 297 353.0 302.5Q353 308 357.0 312.0Q361 316 366.5 316.0Q372 316 376.0 312.0Q380 308 380.0 302.5Q380 297 376.0 293.0Q372 289 366.5 289.0Q361 289 357.0 293.0ZM398.0 251.0Q394 255 394.0 261.0Q394 267 398.0 271.0Q402 275 408.0 275.0Q414 275 418.0 271.0Q422 267 422.0 261.0Q422 255 418.0 251.0Q414 247 408.0 247.0Q402 247 398.0 251.0ZM357.0 376.0Q353 380 353.0 385.5Q353 391 357.0 395.0Q361 399 366.5 399.0Q372 399 376.0 395.0Q380 391 380.0 385.5Q380 380 376.0 376.0Q372 372 366.5 372.0Q361 372 357.0 376.0ZM398.0 334.0Q394 338 394.0 344.0Q394 350 398.0 354.0Q402 358 408.0 358.0Q414 358 418.0 354.0Q422 350 422.0 344.0Q422 338 418.0 334.0Q414 330 408.0 330.0Q402 330 398.0 334.0ZM440.0 293.0Q436 297 436.0 302.5Q436 308 440.0 312.0Q444 316 449.5 316.0Q455 316 459.0 312.0Q463 308 463.0 302.5Q463 297 459.0 293.0Q455 289 449.5 289.0Q444 289 440.0 293.0Z" fill="#c1694f" />
<path d="M97 199 249 351 415 185 263 33Z" fill="#eabaa7" />
<path d="M130 190Q120 200 130 210L239 319Q249 329 259.0 319.5Q269 310 259 300L149 190Q145 186 139.5 186.0Q134 186 130 190Z" fill="#f7ded5" />
</g></svg>