<svg xmlns="http://www.w3.org/2000/svg" viewBox="0 0 512 512">
<g transform="matrix(1 0 0 -1 0 512)">
<path d="M270 277H313V235H199V277H242V377H270Z" fill="#58595b" />
<path d="M472 292 47 406Q41 408 38.0 413.0Q35 418 36.5 423.5Q38 429 43.0 432.0Q48 435 54 433L480 319Q485 318 488.0 313.0Q491 308 489.5 302.0Q488 296 483.0 293.0Q478 290 472 292Z" fill="#6d6e71" />
<path d="M332 386Q343 383 349.0 373.0Q355 363 352.0 351.5Q349 340 339.0 334.0Q329 328 317 331L180 368Q169 371 163.0 381.0Q157 391 160.0 402.5Q163 414 173.0 420.0Q183 426 195 423L222 415L226 429L308 407L305 393Z" fill="#a7a9ac" />
<path d="M194.5 399.5Q200 389 197.0 377.5Q194 366 184.0 360.5Q174 355 162.5 358.0Q151 361 145.0 371.0Q139 381 142.0 392.5Q145 404 155.5 410.0Q166 416 177.5 413.0Q189 410 194.5 399.5ZM359.0 355.0Q365 345 362.0 333.5Q359 322 349.0 316.5Q339 311 327.5 314.0Q316 317 310.0 327.0Q304 337 307.0 348.5Q310 360 320.5 366.0Q331 372 342.0 368.5Q353 365 359.0 355.0Z" fill="#808285" />
<path d="M85 -7V64H427V-7Q427 -31 410.0 -47.5Q393 -64 370 -64H142Q119 -64 102.0 -47.5Q85 -31 85 -7ZM370 249Q402 249 419 220H93Q110 249 142 249Z" fill="#dd2e44" />
<path d="M85 192H427V64H85Z" fill="#88c9f9" />
<path d="M93 220H419Q427 207 427 192H85Q85 207 93 220Z" fill="#55acee" />
<path d="M171 220H199V64H171ZM299 220H327V64H299Z" fill="#231f20" />
</g></svg>