<svg xmlns="http://www.w3.org/2000/svg" viewBox="0 0 512 512">
<g transform="matrix(1 0 0 -1 0 512)">
<path d="M427 109Q417 99 407 109L386 129Q376 139 386 149L427 190Q437 200 447 190L467 169Q477 159 467 149ZM213 322Q203 312 193 322L173 343Q163 353 173 363L213 403Q223 413 233 403L254 383Q264 373 254 363Z" fill="#66757f" />
<path d="M28 135Q41 135 80.0 131.5Q119 128 152 124L185 121Q199 -7 199 -36Q199 -55 183.0 -58.5Q167 -62 156 -50Q150 -43 136.0 -22.0Q122 -1 111 17L100 36Q28 78 14 92Q2 103 5.5 119.0Q9 135 28 135ZM57 362 412 348Q426 35 426 -7Q426 -28 416.0 -39.0Q406 -50 392.5 -42.0Q379 -34 371 -7L299 235Q100 298 57 307Q30 313 22.0 326.5Q14 340 25.0 351.0Q36 362 57 362Z" fill="#55acee" />
<path d="M384 405Q405 426 446.5 435.5Q488 445 498 434Q509 424 499.5 382.5Q490 341 469 320L199 64Q197 63 194.0 60.5Q191 58 180.5 51.5Q170 45 161.0 40.5Q152 36 139.0 29.5Q126 23 117.0 20.5Q108 18 98.0 17.0Q88 16 85 21Q76 31 86.5 59.5Q97 88 113 111L128 135Q356 377 384 405Z" fill="#ccd6dd" />
<path d="M199 135Q206 128 142 64Q114 36 96.0 21.5Q78 7 75 7H71Q64 14 128 78Q156 107 174.0 121.0Q192 135 196 135ZM412 391V403Q420 405 427 405Q444 405 456.5 392.5Q469 380 469 363Q469 356 467 348H455Q455 366 442.5 378.5Q430 391 412 391Z" fill="#66757f" />
</g></svg>