<svg xmlns="http://www.w3.org/2000/svg" viewBox="0 0 512 512">
<g transform="matrix(1 0 0 -1 0 512)">
<path d="M284 362Q284 350 276.0 341.5Q268 333 256.0 333.0Q244 333 236.0 341.5Q228 350 228 362V419Q228 431 236.0 439.5Q244 448 256.0 448.0Q268 448 276.0 439.5Q284 431 284 419Z" fill="#ffcc4d" />
<path d="M131 -64Q126 -64 121 -62Q113 -58 110.5 -49.5Q108 -41 112 -33L239 225Q245 237 258.0 237.0Q271 237 277 225L404 -33Q408 -41 405.0 -49.5Q402 -58 394.5 -62.0Q387 -66 378.5 -63.0Q370 -60 366 -52L258 167L150 -52Q144 -64 131 -64Z" fill="#ffac33" />
<path d="M248 162 50 363Q40 373 50.0 383.0Q60 393 70 383L258 193L445 383Q456 393 465.5 383.0Q475 373 465 363L268 162Q264 158 258.0 158.0Q252 158 248 162Z" fill="#58595b" />
<path d="M417.5 334.0Q484 267 484.0 172.0Q484 77 417.5 10.0Q351 -57 257.5 -57.0Q164 -57 98.0 10.0Q32 77 32.0 172.0Q32 267 98.0 334.0Q164 401 257.5 401.0Q351 401 417.5 334.0Z" fill="#dd2e44" />
<path d="M377.5 294.0Q427 244 427.0 172.5Q427 101 377.5 50.5Q328 0 258.0 0.0Q188 0 138.0 50.5Q88 101 88.0 172.5Q88 244 138.0 294.0Q188 344 258.0 344.0Q328 344 377.5 294.0Z" fill="#e6e7e8" />
<path d="M487 283 367 405Q392 430 427.0 430.0Q462 430 487.0 405.0Q512 380 512.0 344.5Q512 309 487 283ZM145 405 25 283Q0 309 0.0 344.5Q0 380 25.0 405.0Q50 430 85.0 430.0Q120 430 145 405Z" fill="#ffcc4d" />
<path d="M327 164H256Q250 164 246.0 168.0Q242 172 242 178V306Q242 312 246.0 316.0Q250 320 256.0 320.0Q262 320 266.0 316.0Q270 312 270 306V192H327Q333 192 337.0 188.0Q341 184 341.0 178.0Q341 172 337.0 168.0Q333 164 327 164Z" fill="#414042" />
</g></svg>