<svg xmlns="http://www.w3.org/2000/svg" viewBox="0 0 512 512">
<g transform="matrix(1 0 0 -1 0 512)">
<path d="M228 -41Q228 -47 223.5 -51.0Q219 -55 213.0 -55.0Q207 -55 203.0 -51.0Q199 -47 199 -41V78Q199 84 203.0 88.0Q207 92 213.0 92.0Q219 92 223.5 88.0Q228 84 228 78Z" fill="#67757f" />
<path d="M79.5 86.0Q22 144 22.0 226.0Q22 308 79.5 365.5Q137 423 219.0 423.0Q301 423 358.5 365.5Q416 308 416.0 226.0Q416 144 358.5 86.0Q301 28 219.0 28.0Q137 28 79.5 86.0Z" fill="#e1e8ed" />
<path d="M51 218H387Q385 151 336.0 103.5Q287 56 219.0 56.0Q151 56 102.5 103.5Q54 151 51 218Z" fill="#50a5e6" />
<path d="M398 78H43Q31 78 22.5 86.5Q14 95 14.0 106.5Q14 118 22.5 126.5Q31 135 43 135H398Q410 135 418.5 126.5Q427 118 427.0 106.5Q427 95 418.5 86.5Q410 78 398 78Z" fill="#67757f" />
<path d="M37 -53Q33 -66 19.5 -61.5Q6 -57 11 -43L58 89Q62 102 75.5 97.0Q89 92 84 79ZM404 -53 356 80Q351 94 364.5 98.5Q378 103 383 90L430 -43Q435 -57 421.5 -61.5Q408 -66 404 -53Z" fill="#67757f" />
<path d="M270 416Q460 349 480 343Q515 332 512 304Q509 282 490 277Q483 276 475 278Q447 285 392.5 300.0Q338 315 300.0 325.0Q262 335 256 335Q250 338 253.0 356.0Q256 374 263 395Z" fill="#e1e8ed" />
<path d="M398 107H43Q37 107 32.5 111.0Q28 115 28.0 121.0Q28 127 32.5 131.0Q37 135 43 135H398Q404 135 408.0 131.0Q412 127 412.0 121.0Q412 115 408.0 111.0Q404 107 398 107Z" fill="#9aaab4" />
<path d="M100.5 202.0Q51 209 51.0 218.5Q51 228 100.5 235.0Q150 242 219.5 242.0Q289 242 338.0 235.0Q387 228 387.0 218.5Q387 209 338.0 202.0Q289 195 219.5 195.0Q150 195 100.5 202.0Z" fill="#3b94d9" />
<path d="M490.0 290.5Q485 286 479.5 287.5Q474 289 471.5 295.5Q469 302 471.0 309.5Q473 317 478.5 321.5Q484 326 489.5 324.5Q495 323 497.5 316.5Q500 310 497.5 302.5Q495 295 490.0 290.5Z" fill="#aab8c2" />
</g></svg>