<svg xmlns="http://www.w3.org/2000/svg" viewBox="0 0 2048 2048">
<g transform="matrix(1 0 0 -1 0 2048)">
<path d="M396 279Q427 249 427 200Q427 169 408.0 132.0Q389 95 366.5 68.0Q344 41 321.5 14.5Q299 -12 295 -20Q296 -20 273.5 -20.5Q251 -21 228.5 -20.5Q206 -20 207 -20Q203 -12 180.5 14.5Q158 41 135.5 68.0Q113 95 94.5 132.0Q76 169 76 200Q76 249 106 279Q102 287 98 296Q86 330 92.5 360.0Q99 390 122 398Q139 405 157.5 396.5Q176 388 191 368Q201 397 193 405H310Q301 397 311 368Q326 388 345.0 396.5Q364 405 380 398Q403 390 410.0 360.0Q417 330 404 296Q401 287 396 279ZM163 317Q169 323 177 336Q169 349 158.0 355.5Q147 362 137 358Q126 354 122.5 338.5Q119 323 125 306Q127 302 130 297Q135 300 143.0 304.5Q151 309 156.0 312.0Q161 315 163 317ZM377 306Q384 323 380.0 338.5Q376 354 365 358Q355 362 344.0 355.5Q333 349 326 336Q333 323 339 317Q341 315 346.0 312.0Q351 309 359.0 304.5Q367 300 373 297Q375 302 377 306Z" fill="#c1694f" />
<path d="M264 -4Q290 -4 313.5 -15.5Q337 -27 337 -47Q337 -63 250 -63Q163 -63 163 -47Q163 -27 187.0 -15.5Q211 -4 237 -4ZM427 200Q427 171 409 135H93Q76 171 76 200Q76 247 105 277H397Q427 247 427 200ZM337 428Q337 409 309.0 398.0Q281 387 253 386H249Q221 387 193.0 398.0Q165 409 165 428Q165 445 250 445H252Q337 445 337 428Z" fill="#272b2b" />
<path d="M185 164H149Q141 164 141.0 171.0Q141 178 149 178H185V235H128V220H163Q171 220 171.0 213.0Q171 206 163 206H129Q114 206 114 217V236Q114 243 118.0 246.0Q122 249 126 249H185Q199 249 199 236V177Q199 171 195.0 167.5Q191 164 185 164ZM384 164H348Q341 164 341.0 171.0Q341 178 348 178H384V235H327V220H362Q370 220 370.0 213.0Q370 206 362 206H328Q313 206 313 217V236Q313 243 317.0 246.0Q321 249 326 249H384Q398 249 398 236V177Q398 171 394.0 167.5Q390 164 384 164ZM285 164H248Q241 164 241.0 171.0Q241 178 248 178H284V235H228V220H263Q270 220 270.0 213.0Q270 206 263 206H228Q213 206 213 217V236Q213 243 217.5 246.0Q222 249 226 249H285Q299 249 299 236V177Q299 171 295.0 167.5Q291 164 285 164Z" fill="#c1694f" />
</g></svg>