<svg xmlns="http://www.w3.org/2000/svg" viewBox="0 0 2048 2048">
<g transform="matrix(1 0 0 -1 0 2048)">
<path d="M169 265Q146 257 124 243Q126 261 123.5 303.0Q121 345 118 363Q115 375 124.5 382.0Q134 389 145.5 388.0Q157 387 160 380Q168 357 170 330Q172 314 169 265Z" fill="#f4abba" />
<path d="M146 257Q198 284 277.0 278.0Q356 272 380 239Q396 217 407.5 177.5Q419 138 423.0 99.5Q427 61 426.5 28.0Q426 -5 420 -16Q402 -30 391.5 -34.0Q381 -38 357.0 -35.0Q333 -32 288 -17Q282 -15 271 -12Q246 -4 233.0 1.0Q220 6 197.0 15.5Q174 25 161.0 33.5Q148 42 131.5 56.0Q115 70 106.5 85.0Q98 100 91.5 121.0Q85 142 85 166Q85 198 102.5 221.0Q120 244 146 257Z" fill="#be1931" />
<path d="M146 257Q161 265 181 270Q181 266 182.0 255.0Q183 244 183 236Q155 199 170.0 141.0Q185 83 231 43Q271 7 335.0 -11.0Q399 -29 420 -16Q395 -67 275 -39Q258 -35 236.0 -25.0Q214 -15 187.0 3.0Q160 21 137.5 43.5Q115 66 100.0 98.5Q85 131 85 166Q85 198 102.5 221.0Q120 244 146 257Z" fill="#a0041e" />
<path d="M183 236Q172 252 167.0 272.5Q162 293 167.5 318.5Q173 344 192.0 364.0Q211 384 238.0 390.5Q265 397 292.5 386.5Q320 376 337 350Q350 329 352.0 294.5Q354 260 349 236L344 212Q344 212 313 239Q269 272 255 249Q246 234 228.5 230.0Q211 226 198.0 229.0Q185 232 183 236Z" fill="#ea596e" />
<path d="M341 198Q334 189 321.5 188.5Q309 188 295.5 193.5Q282 199 270.0 207.0Q258 215 252.5 225.0Q247 235 250 241Q251 243 255.0 249.5Q259 256 260.0 258.5Q261 261 262.5 266.5Q264 272 263.0 276.5Q262 281 258 286Q248 300 253.5 316.0Q259 332 275 339Q319 359 354 324Q360 318 366 320Q382 327 396 328Q405 328 407 316Q409 309 403 308Q393 307 383.0 303.5Q373 300 369 297L364 294Q387 302 420 289Q424 287 422.5 281.5Q421 276 416.5 270.0Q412 264 410 265Q386 271 374.5 269.0Q363 267 360 262L357 257Q357 221 341 198Z" fill="#f4abba" />
<path d="M217 353Q207 376 179 403Q167 415 180 424Q193 433 206 421Q217 410 228.0 392.0Q239 374 241 366Q243 362 237.5 356.0Q232 350 226.5 348.5Q221 347 217 353Z" fill="#ea596e" />
<path d="M231 388Q248 397 253 427Q254 431 260.0 432.0Q266 433 271.0 429.5Q276 426 275 419Q274 411 274.0 405.0Q274 399 275 395V392Q288 413 300 424Q309 431 317.5 423.0Q326 415 320 407Q316 400 314.5 388.5Q313 377 316 373Q317 370 310 367Q288 357 261 363Q251 364 243.5 370.5Q236 377 233 383Z" fill="#ea596e" />
<path d="M181 295H180Q173 295 174 302Q176 332 194.0 353.5Q212 375 240 382Q253 387 266.5 385.5Q280 384 288.5 382.0Q297 380 304.5 375.0Q312 370 314.5 368.0Q317 366 319 365Q324 360 319.0 355.0Q314 350 309 355Q308 356 305.5 357.5Q303 359 296.5 363.0Q290 367 283.0 368.5Q276 370 265.0 371.0Q254 372 243 368Q219 362 204.5 344.5Q190 327 188 302Q188 295 181 295ZM217 382Q213 382 211 386Q202 401 188 410Q182 414 186.0 420.0Q190 426 196 422Q212 411 223 393Q226 387 220 383Q219 382 217 382ZM258 392Q257 392 256 393Q249 395 251 401Q254 418 255 423Q256 430 263.0 429.5Q270 429 269 421Q267 406 264 397Q263 392 258 392ZM292 390Q290 390 289 391Q283 395 286 401Q294 413 306 422Q312 426 316.5 420.0Q321 414 315 410Q302 401 298 393Q296 390 292 390Z" fill="#f4abba" />
<path d="M343 244Q342 244 342 244Q335 245 336 252V256Q339 271 340.0 283.5Q341 296 333.5 307.0Q326 318 308 326Q301 329 304.0 335.5Q307 342 313 339Q336 330 345.5 314.5Q355 299 353.5 284.0Q352 269 350 254V250Q349 244 343 244ZM367 305Q364 305 362 308Q360 313 365 316Q382 324 394 324Q400 323 400 319Q400 314 395 313Q385 313 369 306Q368 305 367 305ZM409 275Q408 275 407 275Q389 281 373 276Q366 275 364.5 282.0Q363 289 370 290Q390 295 411 288Q418 286 416 279Q414 275 409 275ZM148 276Q148 337 138 369Q135 376 142.0 378.0Q149 380 151 374Q162 339 162 276Q162 269 155.0 269.0Q148 269 148 276Z" fill="#f7dae2" />
<path d="M112 85Q106 85 105 91Q97 128 107 151Q117 172 143 187Q152 193 156.5 196.0Q161 199 165.0 207.0Q169 215 170 228Q171 235 178.0 234.5Q185 234 184 227Q183 211 177.0 200.0Q171 189 165.5 185.0Q160 181 150 175Q128 162 120 145Q112 126 119 94Q120 87 113 85Q112 85 112 85ZM288 39Q284 39 282 42Q278 48 285 52Q311 66 320 86Q326 104 325.0 110.0Q324 116 318 128Q305 156 307 182Q308 189 315.0 188.5Q322 188 321 181Q320 158 331 134Q338 120 339.0 111.5Q340 103 333 81Q322 57 292 40Q290 39 288 39Z" fill="#d84864" />
<path d="M272 104Q269 104 267 107Q257 118 264 134Q269 147 283 148Q291 149 298.0 155.5Q305 162 306 167Q306 174 313.0 173.5Q320 173 320 166Q319 155 308.0 145.0Q297 135 284 134Q279 134 277 128Q274 121 278 116Q282 110 277 106Q275 104 272 104ZM382 46Q381 46 380 46Q373 48 375 55Q376 59 371 66Q367 72 362 73Q350 74 338.0 90.5Q326 107 323 119Q322 126 328.5 127.5Q335 129 337 122Q339 113 348.5 100.5Q358 88 364 87Q375 86 383 74Q391 62 389 51Q387 46 382 46ZM340 -25Q337 -25 335 -23Q330 -18 335 -13Q349 2 329 23Q320 33 313.5 48.0Q307 63 312 75Q315 81 321.5 78.5Q328 76 325 69Q322 63 327.0 51.5Q332 40 339 33Q352 19 353.5 4.0Q355 -11 345 -22Q343 -25 340 -25ZM193 96Q192 96 190 97Q184 99 186 106Q191 119 162 134Q144 144 142 164Q140 182 152 191Q157 196 161.5 190.5Q166 185 161 180Q155 175 156 165Q157 153 169 147Q208 126 199 101Q198 96 193 96ZM178 32Q177 32 176 32Q164 35 157.5 46.5Q151 58 155 71Q156 78 147.5 89.0Q139 100 132 102Q118 106 110.5 118.5Q103 131 105 143Q107 150 114.0 148.5Q121 147 119 140Q118 134 122.5 126.0Q127 118 136 115Q148 112 160.0 96.5Q172 81 168 68Q166 60 170.0 53.5Q174 47 180 46Q186 44 185 37Q183 32 178 32ZM195 180Q183 180 174 192Q163 205 168 218Q170 224 176.5 221.5Q183 219 181 213Q179 208 184.5 201.0Q190 194 197 194Q204 195 205.0 188.0Q206 181 199 180Q197 180 195 180Z" fill="#d84864" />
<path d="M171 132Q166 132 163 134Q156 137 159.5 143.5Q163 150 169 147Q172 145 183 151Q201 161 211 157Q218 154 215.0 147.5Q212 141 206 144Q202 145 190 139Q178 132 171 132ZM382 -7Q379 -7 377 -6Q372 -1 377 4Q378 7 377 12Q375 20 367 23Q362 24 352 22Q338 18 331 22Q325 25 328.0 31.5Q331 38 337 34Q340 33 349 35Q363 39 371 36Q386 32 391 16Q394 3 387 -5Q385 -7 382 -7ZM398 170Q393 170 392 175Q384 194 374 195Q369 195 363 187Q349 169 313 175Q306 176 307.0 183.0Q308 190 315 189Q343 184 351 196Q362 211 376 209Q394 207 405 180Q407 174 401 171Q400 170 398 170Z" fill="#d84864" />
</g></svg>