<svg xmlns="http://www.w3.org/2000/svg" viewBox="0 0 512 512">
<g transform="matrix(1 0 0 -1 0 512)">
<path d="M434 184 498 92H450Q436 25 381.5 -19.5Q327 -64 256.0 -64.0Q185 -64 130.5 -19.5Q76 25 62 92H14L78 184L142 92H106Q118 50 151.0 19.5Q184 -11 228 -19V206H185Q173 206 164.5 214.5Q156 223 156.0 234.5Q156 246 164.5 254.5Q173 263 185 263H228V282H284V263H327Q339 263 347.5 254.5Q356 246 356.0 234.5Q356 223 347.5 214.5Q339 206 327 206H284V-19Q328 -11 361.0 19.5Q394 50 406 92H370Z" fill="#226699" />
<path d="M196.0 423.0Q221 448 256.0 448.0Q291 448 316.0 423.0Q341 398 341.0 362.5Q341 327 316.0 302.0Q291 277 256.0 277.0Q221 277 196.0 302.0Q171 327 171.0 362.5Q171 398 196.0 423.0ZM225.5 332.5Q238 320 256.0 320.0Q274 320 286.5 332.5Q299 345 299.0 362.5Q299 380 286.5 392.5Q274 405 256.0 405.0Q238 405 225.5 392.5Q213 380 213.0 362.5Q213 345 225.5 332.5Z" fill="#226699" />
</g></svg>