<svg xmlns="http://www.w3.org/2000/svg" viewBox="0 0 512 512">
<g transform="matrix(1 0 0 -1 0 512)">
<path d="M512 192Q512 86 437.0 11.0Q362 -64 256.0 -64.0Q150 -64 75.0 11.0Q0 86 0.0 192.0Q0 298 75.0 373.0Q150 448 256.0 448.0Q362 448 437.0 373.0Q512 298 512 192Z" fill="#ffcc4d" />
<path d="M138.5 178.5Q128 193 128.0 213.5Q128 234 138.5 248.5Q149 263 163.5 263.0Q178 263 188.5 248.5Q199 234 199.0 213.5Q199 193 188.5 178.5Q178 164 163.5 164.0Q149 164 138.5 178.5ZM323.5 178.5Q313 193 313.0 213.5Q313 234 323.5 248.5Q334 263 348.5 263.0Q363 263 373.5 248.5Q384 234 384.0 213.5Q384 193 373.5 178.5Q363 164 348.5 164.0Q334 164 323.5 178.5Z" fill="#664500" />
<path d="M85 277Q81 277 77 280Q65 289 74 300Q87 317 103.0 330.0Q119 343 132.0 349.0Q145 355 158.5 358.5Q172 362 177.0 362.5Q182 363 185 363Q191 363 195.0 358.5Q199 354 199.0 348.5Q199 343 195.0 338.5Q191 334 185 334Q179 334 169.0 332.5Q159 331 136.0 318.0Q113 305 97 283Q92 277 85 277ZM427 277Q420 277 415 283Q399 305 376.0 318.0Q353 331 343.0 332.5Q333 334 327 334Q321 334 317.0 338.5Q313 343 313.0 348.5Q313 354 317.0 358.5Q321 363 327 363Q330 363 335.0 362.5Q340 362 353.5 358.5Q367 355 380.0 349.0Q393 343 409.0 330.0Q425 317 438 300Q447 289 435 280Q431 277 427 277ZM334 51Q335 46 331 44Q329 43 327 43Q324 43 322 45Q308 57 256 57Q204 57 190 45Q186 41 181.5 43.5Q177 46 178 51Q179 54 180.5 58.5Q182 63 188.0 73.5Q194 84 202.0 92.0Q210 100 224.5 107.0Q239 114 256.0 114.0Q273 114 287.5 107.0Q302 100 310.0 92.0Q318 84 324.0 73.5Q330 63 331.5 58.5Q333 54 334 51Z" fill="#664500" />
</g></svg>