<svg xmlns="http://www.w3.org/2000/svg" viewBox="0 0 512 512">
<g transform="matrix(1 0 0 -1 0 512)">
<path d="M97 103Q87 114 97 124L324 351Q334 361 344.5 351.0Q355 341 345 331L117 103Q113 99 107.0 99.0Q101 99 97 103ZM224 266Q219 266 216 269Q205 278 213 289Q215 292 217.5 296.0Q220 300 225.0 311.0Q230 322 232.5 334.0Q235 346 234.0 363.0Q233 380 227 397Q222 410 235.5 415.0Q249 420 254 407Q262 386 263.0 364.0Q264 342 260.5 327.5Q257 313 250.5 298.5Q244 284 241.0 279.5Q238 275 236 272Q231 266 224 266ZM280 211Q275 211 271 214Q260 223 269 234Q270 236 272.0 238.5Q274 241 281.0 246.5Q288 252 295.5 257.0Q303 262 314.5 267.0Q326 272 338.5 274.5Q351 277 367.5 277.0Q384 277 401 273Q407 271 410.0 266.0Q413 261 411.5 255.5Q410 250 405.0 247.0Q400 244 394 245Q376 251 358.5 248.5Q341 246 330.0 242.5Q319 239 309.0 232.0Q299 225 296.0 221.5Q293 218 291 216Q287 211 280 211ZM92 185Q66 185 41 194Q28 199 33.0 212.5Q38 226 51 221Q68 214 85.0 213.5Q102 213 114.0 215.5Q126 218 137.5 223.0Q149 228 152.5 230.5Q156 233 159 235Q170 243 178.5 232.0Q187 221 176 212Q142 185 92 185ZM114 299Q50 299 7 347Q-3 357 7.5 366.5Q18 376 28 366Q40 353 55.0 344.0Q70 335 81.5 332.0Q93 329 105.5 328.5Q118 328 122.5 328.5Q127 329 130 329Q136 330 141.0 327.0Q146 324 147.0 318.0Q148 312 144.5 307.0Q141 302 136 301Q127 299 114 299Z" fill="#31373d" />
<path d="M133 301Q131 301 130 301Q124 302 121.0 307.0Q118 312 119 318Q119 321 119.5 325.5Q120 330 119.5 342.5Q119 355 116.0 366.5Q113 378 104.0 393.0Q95 408 82 420Q72 430 81.5 440.5Q91 451 101 441Q118 426 129.0 407.0Q140 388 143.5 373.5Q147 359 148.0 343.5Q149 328 148.5 322.0Q148 316 147 312Q144 301 133 301ZM189 36Q178 36 175 47Q171 64 171.0 80.5Q171 97 173.5 109.5Q176 122 181.0 133.5Q186 145 191.0 152.5Q196 160 201.5 167.0Q207 174 209.5 176.0Q212 178 214 179Q225 188 234.0 177.0Q243 166 232 157Q229 155 226.0 152.0Q223 149 216.0 139.0Q209 129 205.5 118.0Q202 107 199.5 89.5Q197 72 203 54Q204 48 201.0 43.0Q198 38 192 36Q191 36 189 36Z" fill="#31373d" />
<path d="M424 175Q444 156 459.0 125.5Q474 95 480.5 65.0Q487 35 486.0 9.5Q485 -16 474.5 -26.5Q464 -37 438.5 -38.0Q413 -39 383.0 -32.5Q353 -26 322.5 -11.0Q292 4 273 24Q209 87 243 150Q199 154 167 186Q138 216 152 249Q125 238 97.5 241.5Q70 245 55 261Q19 296 85.5 362.5Q152 429 187 393Q203 378 206.5 350.5Q210 323 199 296Q232 310 262 281Q294 249 298 205Q361 239 424 175Z" fill="#31373d" />
</g></svg>