<svg xmlns="http://www.w3.org/2000/svg" viewBox="0 0 512 512">
<g transform="matrix(1 0 0 -1 0 512)">
<path d="M0 391Q0 407 6.0 418.5Q12 430 20.0 435.5Q28 441 36.5 444.0Q45 447 51 448H57H455Q457 448 461.0 447.5Q465 447 475.0 444.0Q485 441 492.5 435.5Q500 430 506.0 418.5Q512 407 512 391V-7Q512 -9 511.5 -13.0Q511 -17 508.0 -27.0Q505 -37 499.5 -44.5Q494 -52 482.5 -58.0Q471 -64 455 -64H57Q55 -64 51.0 -63.5Q47 -63 37.0 -60.0Q27 -57 19.5 -51.5Q12 -46 6.0 -34.5Q0 -23 0 -7Z" fill="#3b88c3" />
<path d="M398 334H455V50H398ZM313 277H370V50H313ZM228 220H284V50H228ZM142 164H199V50H142ZM57 107H114V50H57Z" fill="#ffffff" />
</g></svg>