<svg xmlns="http://www.w3.org/2000/svg" viewBox="0 0 512 512">
<g transform="matrix(1 0 0 -1 0 512)">
<path d="M512 -7Q512 -31 495.5 -47.5Q479 -64 455 -64H57Q33 -64 16.5 -47.5Q0 -31 0 -7V391Q0 415 16.5 431.5Q33 448 57 448H455Q479 448 495.5 431.5Q512 415 512 391Z" fill="#3b88c3" />
<path d="M316 132 449 144 437 11 397 51Q338 -7 256.0 -7.0Q174 -7 115 51Q52 114 57 203L115 208Q107 140 155 91Q197 50 256.0 50.0Q315 50 357 91ZM397 333Q460 270 455 181L397 176Q405 244 357 293Q315 334 256.0 334.0Q197 334 155 293L196 252L63 240L75 373L115 333Q174 391 256.0 391.0Q338 391 397 333Z" fill="#ffffff" />
</g></svg>