<svg xmlns="http://www.w3.org/2000/svg" viewBox="0 0 2048 2048">
<g transform="matrix(1 0 0 -1 0 2048)">
<path d="M441 92H512V64Q512 40 495.5 23.5Q479 7 455 7H57Q33 7 16.5 23.5Q0 40 0 64V107Q0 130 16.5 147.0Q33 164 57 164H100Q123 164 139.5 147.0Q156 130 156 107V92Z" fill="#99aab5" />
<path d="M142 277Q160 277 172.5 264.5Q185 252 185 235V92H0V164L43 249Q44 252 47.5 257.0Q51 262 66.5 269.5Q82 277 102 277Z" fill="#ffcc4d" />
<path d="M128 164H28L57 220Q58 224 61.5 228.5Q65 233 76.0 241.0Q87 249 100 249H128Z" fill="#55acee" />
<path d="M45.0 -33.0Q28 -16 28.0 7.5Q28 31 45.0 47.5Q62 64 85.5 64.0Q109 64 125.5 47.5Q142 31 142.0 7.5Q142 -16 125.5 -33.0Q109 -50 85.5 -50.0Q62 -50 45.0 -33.0ZM386.5 -33.0Q370 -16 370.0 7.5Q370 31 386.5 47.5Q403 64 426.5 64.0Q450 64 467.0 47.5Q484 31 484.0 7.5Q484 -16 467.0 -33.0Q450 -50 426.5 -50.0Q403 -50 386.5 -33.0ZM244.5 -33.0Q228 -16 228.0 7.5Q228 31 244.5 47.5Q261 64 284.5 64.0Q308 64 324.5 47.5Q341 31 341.0 7.5Q341 -16 324.5 -33.0Q308 -50 284.5 -50.0Q261 -50 244.5 -33.0Z" fill="#292f33" />
<path d="M65.5 -13.0Q57 -5 57.0 7.0Q57 19 65.5 27.5Q74 36 85.5 36.0Q97 36 105.5 27.5Q114 19 114.0 7.0Q114 -5 105.5 -13.0Q97 -21 85.5 -21.0Q74 -21 65.5 -13.0ZM406.5 -13.0Q398 -5 398.0 7.0Q398 19 406.5 27.5Q415 36 426.5 36.0Q438 36 446.5 27.5Q455 19 455.0 7.0Q455 -5 446.5 -13.0Q438 -21 426.5 -21.0Q415 -21 406.5 -13.0ZM264.5 -13.0Q256 -5 256.0 7.0Q256 19 264.5 27.5Q273 36 284.5 36.0Q296 36 304.5 27.5Q313 19 313.0 7.0Q313 -5 304.5 -13.0Q296 -21 284.5 -21.0Q273 -21 264.5 -13.0Z" fill="#ccd6dd" />
<path d="M455 334Q479 334 495.5 317.5Q512 301 512 277V92H213V277Q213 301 230.0 317.5Q247 334 270 334Z" fill="#77b255" />
</g></svg>