<svg xmlns="http://www.w3.org/2000/svg" viewBox="0 0 2048 2048">
<g transform="matrix(1 0 0 -1 0 2048)">
<path d="M344 303Q345 300 342.0 297.0Q339 294 335 294Q328 293 318.0 296.0Q308 299 291.0 306.0Q274 313 271 314Q300 324 323 336Q330 340 334 332ZM489 -46Q488 -47 486.0 -48.5Q484 -50 476.5 -53.0Q469 -56 460.5 -58.0Q452 -60 438.5 -59.0Q425 -58 409 -54Q347 -36 300 -2Q284 10 180 92Q127 134 119 141L113 145L106 151Q98 156 83.5 167.5Q69 179 62.5 183.5Q56 188 45.5 197.0Q35 206 30.0 211.0Q25 216 19.0 223.0Q13 230 10.5 235.5Q8 241 7 247Q6 253 11 259L19 270Q18 266 93.0 197.5Q168 129 224 81Q272 38 316.5 9.5Q361 -19 390.0 -30.5Q419 -42 442.5 -46.0Q466 -50 476.0 -49.0Q486 -48 489 -46Z" fill="#8899a6" />
<path d="M489 -46Q484 -46 474.0 -44.5Q464 -43 425.0 -25.5Q386 -8 338 25Q309 45 236.5 109.5Q164 174 106 229L48 284L49 299Q50 310 73 340Q83 353 106.0 377.5Q129 402 139 407Q153 414 164.5 415.5Q176 417 183 409Q185 406 192.5 372.5Q200 339 212 330Q229 317 285.5 314.5Q342 312 344 310Q351 305 355.0 284.0Q359 263 371 244L425 148Q432 137 435.5 124.5Q439 112 441 108Q448 97 473.0 59.5Q498 22 503 13Q517 -12 503 -33Q501 -36 498.5 -38.5Q496 -41 494.5 -42.0Q493 -43 491.5 -44.0Q490 -45 490 -46Z" fill="#be1931" />
<path d="M352 299Q346 300 308.0 300.0Q270 300 243.0 304.0Q216 308 203 318Q188 329 180.0 370.5Q172 412 170 416Q180 415 183 409Q185 406 192.5 372.5Q200 339 212 330Q229 317 285.5 314.5Q342 312 344 310Q349 306 352 299Z" fill="#a0041e" />
<path d="M189 194Q189 193 154.0 217.0Q119 241 84 265L49 289L47 296Q48 309 69 336Q92 366 117 388Q177 320 190 293Q199 267 197.0 240.5Q195 214 189 194Z" fill="#dd2e44" />
<path d="M329 245Q321 245 318 253Q313 264 324 268L350 278Q361 283 365.5 272.0Q370 261 359 256L333 246Q331 245 329 245ZM348 202Q341 202 337 208Q331 218 342 224L367 239Q378 245 384.0 234.5Q390 224 379 218L354 203Q351 202 348 202ZM374 163Q368 163 364 167Q357 177 367 184L388 200Q398 207 405.0 197.5Q412 188 402 181L381 165Q378 163 374 163ZM401 126Q396 126 392 130Q385 140 394 147L410 161Q419 168 427.0 159.0Q435 150 425 142L409 129Q406 126 401 126ZM46 295Q55 286 66 285Q81 282 108 261Q176 209 201 184Q218 167 254.0 123.5Q290 80 298 72Q340 31 372 10Q411 -15 436 -28Q466 -44 489 -46Q485 -49 476.5 -51.0Q468 -53 449.0 -52.0Q430 -51 408 -43Q349 -23 307 8Q293 18 212.5 81.5Q132 145 126 150Q37 218 27 232Q10 258 16 267Q18 269 21.5 274.0Q25 279 27.5 282.5Q30 286 34.0 290.5Q38 295 40.0 295.0Q42 295 46 295Z" fill="#ccd6dd" />
<path d="M503 13Q510 1 510 -12Q496 -12 475.5 3.0Q455 18 441 39Q423 65 421.5 88.5Q420 112 433 120Q433 120 437 121Q439 113 441 108Q448 97 473.0 59.5Q498 22 503 13Z" fill="#dd2e44" />
</g></svg>