<svg xmlns="http://www.w3.org/2000/svg" viewBox="0 0 2048 2048">
<g transform="matrix(1 0 0 -1 0 2048)">
<path d="M512 -7Q512 -31 495.5 -47.5Q479 -64 455 -64H57Q33 -64 16.5 -47.5Q0 -31 0 -7V391Q0 415 16.5 431.5Q33 448 57 448H455Q479 448 495.5 431.5Q512 415 512 391Z" fill="#9266cc" />
<path d="M376 192Q448 130 427 94Q417 76 384 76Q357 76 316 89Q297 -5 256.0 -5.0Q215 -5 196 89Q155 76 128 76Q95 76 85 94Q64 130 136 192Q64 254 85 290Q95 308 128 308Q155 308 196 295Q215 389 256.0 389.0Q297 389 316 295Q357 308 384 308Q417 308 427 290Q448 254 376 192ZM384 284Q359 284 320 270Q323 251 324 232Q341 220 357 208Q384 232 397.0 251.0Q410 270 406 277Q402 284 384 284ZM278 153Q288 159 300 167Q300 180 300 192Q300 203 300 217Q288 225 278 231Q268 237 256 243Q245 237 234 231Q224 225 212 217Q212 204 212 192Q212 181 212 167Q224 159 234 153Q244 147 256 141Q267 147 278 153ZM298 136Q297 136 294.5 134.5Q292 133 290 132Q289 131 287.0 130.0Q285 129 284 128Q293 124 296 123Q297 131 298 136ZM228 128Q227 129 225.0 130.0Q223 131 222 132Q220 133 217.5 134.5Q215 136 214 136Q215 131 216 123Q219 124 228 128ZM187 183Q187 192 187.0 192.0Q187 192 187 201Q181 197 175 192Q181 187 187 183ZM214 248Q222 252 222 252Q223 253 225.0 254.0Q227 255 228 256Q219 260 216 261Q215 254 214 248ZM284 256Q285 255 287.0 254.0Q289 253 290 252Q292 251 294.5 249.5Q297 248 298 248Q297 253 296 261Q293 260 284 256ZM325 201Q325 192 325.0 192.0Q325 192 325 183Q331 187 337 192Q331 197 325 201ZM220 286Q237 280 256 270Q275 280 292 286Q285 322 274.5 343.0Q264 364 256.0 364.0Q248 364 237.5 343.0Q227 322 220 286ZM106 277Q102 270 115.0 251.0Q128 232 155 208Q171 220 188 232Q189 251 192 270Q153 284 128 284Q110 284 106 277ZM128 100Q153 100 192 114Q189 133 188 152Q171 164 155 176Q128 152 115.0 133.0Q102 114 106 107Q110 100 128 100ZM292 98Q275 104 256 114Q237 104 220 98Q227 62 237.5 41.0Q248 20 256.0 20.0Q264 20 274.5 41.0Q285 62 292 98ZM406 107Q410 114 397.0 133.0Q384 152 357 176Q341 164 324 152Q323 133 320 114Q359 100 384 100Q402 100 406 107Z" fill="#ffffff" />
<path d="M242.0 206.0Q248 212 256.0 212.0Q264 212 270.0 206.0Q276 200 276.0 192.0Q276 184 270.0 178.0Q264 172 256.0 172.0Q248 172 242.0 178.0Q236 184 236.0 192.0Q236 200 242.0 206.0Z" fill="#ffffff" />
</g></svg>