<svg xmlns="http://www.w3.org/2000/svg" viewBox="0 0 2048 2048">
<g transform="matrix(1 0 0 -1 0 2048)">
<path d="M85 391Q116 391 140.0 371.5Q164 352 199 306Q231 264 278.5 232.5Q326 201 370 192Q425 181 461.5 139.0Q498 97 498 36Q498 -14 463.0 -39.0Q428 -64 370 -64Q320 -64 274.5 -36.5Q229 -9 171 50Q117 103 72.5 183.0Q28 263 28 306Q28 350 41.0 370.5Q54 391 85 391Z" fill="#744eaa" />
<path d="M50 448Q58 448 62.5 442.0Q67 436 67.5 430.0Q68 424 68 413Q68 404 71.5 399.5Q75 395 78.5 395.0Q82 395 91.0 395.5Q100 396 103 396Q111 396 124.5 388.0Q138 380 147 371L156 363H103Q94 363 94.0 344.0Q94 325 85.5 325.0Q77 325 68.0 333.5Q59 342 50 342Q42 342 36.5 329.5Q31 317 30 304L28 292Q26 298 23.0 308.5Q20 319 20.0 342.0Q20 365 32 377Q41 388 36.5 403.5Q32 419 33.5 433.5Q35 448 50 448Z" fill="#77b255" />
</g></svg>