<svg xmlns="http://www.w3.org/2000/svg" viewBox="0 0 512 512">
<g transform="matrix(1 0 0 -1 0 512)">
<path d="M185 -7H28Q25 -7 20.5 -6.5Q16 -6 8.0 1.5Q0 9 0 22Q0 32 3.5 39.0Q7 46 11 48L14 50V92Q14 105 25.0 115.5Q36 126 46 131L57 135L114 149Q125 160 142.5 177.0Q160 194 198.5 221.5Q237 249 256 249H341Q369 249 422.0 210.5Q475 172 498 149Q512 135 512 50Q512 24 501.5 10.0Q491 -4 480 -6L469 -7Z" fill="#dd2e44" />
<path d="M284 220V142L142 135Q152 145 167.0 159.0Q182 173 212.5 196.5Q243 220 256 220ZM427 178Q437 167 437.0 158.0Q437 149 427 149Q419 149 313 144V220H327Q347 220 381.0 205.0Q415 190 427 178Z" fill="#bbddf5" />
<path d="M102.0 -33.0Q85 -16 85.0 7.5Q85 31 102.0 47.5Q119 64 142.5 64.0Q166 64 182.5 47.5Q199 31 199.0 7.5Q199 -16 182.5 -33.0Q166 -50 142.5 -50.0Q119 -50 102.0 -33.0ZM343.5 -33.0Q327 -16 327.0 7.5Q327 31 343.5 47.5Q360 64 384.0 64.0Q408 64 424.5 47.5Q441 31 441.0 7.5Q441 -16 424.5 -33.0Q408 -50 384.0 -50.0Q360 -50 343.5 -33.0Z" fill="#292f33" />
<path d="M122.0 -13.0Q114 -5 114.0 7.0Q114 19 122.0 27.5Q130 36 142.0 36.0Q154 36 162.5 27.5Q171 19 171.0 7.0Q171 -5 162.5 -13.0Q154 -21 142.0 -21.0Q130 -21 122.0 -13.0ZM364.0 -13.0Q356 -5 356.0 7.0Q356 19 364.0 27.5Q372 36 384.0 36.0Q396 36 404.0 27.5Q412 19 412.0 7.0Q412 -5 404.0 -13.0Q396 -21 384.0 -21.0Q372 -21 364.0 -13.0Z" fill="#ccd6dd" />
</g></svg>