<svg xmlns="http://www.w3.org/2000/svg" viewBox="0 0 2048 2048">
<g transform="matrix(1 0 0 -1 0 2048)">
<path d="M512 -7Q512 -31 495.5 -47.5Q479 -64 455 -64H57Q33 -64 16.5 -47.5Q0 -31 0 -7V391Q0 415 16.5 431.5Q33 448 57 448H455Q479 448 495.5 431.5Q512 415 512 391Z" fill="#3b88c3" />
<path d="M0 306H512V64H0Z" fill="#bbddf5" />
<path d="M75 253Q82 271 100 271Q117 271 124 253L169 129Q170 124 170 120Q170 114 165.5 109.5Q161 105 155 105Q142 105 138 117L131 139H68L61 117Q57 105 45 105Q38 105 33.0 109.5Q28 114 28 121Q28 125 30 129ZM78 170H121L100 236H99ZM206 237H181Q165 237 165 253Q165 259 169.5 264.0Q174 269 181 269H265Q272 269 276.0 264.0Q280 259 280 253Q280 237 265 237H240V123Q240 105 223.0 105.0Q206 105 206 123ZM313 253Q314 259 320.5 264.5Q327 270 336 270Q353 270 358 254L385 164H386L413 254Q418 270 435 270Q444 270 450.5 264.5Q457 259 458 253L479 126Q479 124 479 122Q479 114 474.5 109.5Q470 105 463 105Q447 105 445 121L432 214H431L404 119Q400 105 385.5 105.0Q371 105 367 119L340 214L326 121Q324 105 308 105Q301 105 296.5 109.5Q292 114 292 122Q292 124 292 126Z" fill="#226699" />
</g></svg>