<svg xmlns="http://www.w3.org/2000/svg" viewBox="0 0 2048 2048">
<g transform="matrix(1 0 0 -1 0 2048)">
<path d="M270 320H299V164H270Z" fill="#99aab5" />
<path d="M142 320H156V206Q154 204 149.0 201.5Q144 199 131.5 195.0Q119 191 110.0 190.5Q101 190 93.0 197.5Q85 205 85 220Q85 241 102.0 269.0Q119 297 142 320Z" fill="#55acee" />
<path d="M31.0 -47.5Q14 -31 14.0 -7.5Q14 16 31.0 33.0Q48 50 71.5 50.0Q95 50 111.5 33.0Q128 16 128.0 -7.5Q128 -31 111.5 -47.5Q95 -64 71.5 -64.0Q48 -64 31.0 -47.5Z" fill="#292f33" />
<path d="M51.0 -27.5Q43 -19 43.0 -7.0Q43 5 51.0 13.0Q59 21 71.0 21.0Q83 21 91.5 13.0Q100 5 100.0 -7.0Q100 -19 91.5 -27.5Q83 -36 71.0 -36.0Q59 -36 51.0 -27.5Z" fill="#99aab5" />
<path d="M412 121Q424 121 432.5 112.5Q441 104 441 92V21Q441 10 432.5 1.5Q424 -7 412 -7H384Q372 -7 364.0 1.5Q356 10 356 21V92Q356 104 364.0 112.5Q372 121 384 121ZM270 121Q282 121 290.5 112.5Q299 104 299 92V21Q299 10 290.5 1.5Q282 -7 270 -7H242Q230 -7 221.5 1.5Q213 10 213 21V92Q213 104 221.5 112.5Q230 121 242 121Z" fill="#1e5200" />
<path d="M28 44Q12 42 5.5 54.0Q-1 66 14 79Q35 96 78.0 103.5Q121 111 142 102Q155 97 161.5 66.0Q168 35 166.0 7.0Q164 -21 156 -21Q152 -21 140.0 -9.5Q128 2 114.0 16.0Q100 30 76.5 39.0Q53 48 28 44Z" fill="#5c913b" />
<path d="M156 -21Q149 -21 128.5 10.0Q108 41 89.5 90.0Q71 139 71 178H171V50Q171 39 179.5 30.0Q188 21 199 21H247Q257 21 263.5 28.0Q270 35 270 45V178Q270 188 284.5 188.0Q299 188 299 178V45Q299 35 307.5 28.0Q316 21 327 21H341Q351 21 360.5 31.5Q370 42 370 50Q370 71 380 67Q384 64 384 64Q398 135 398 178H512V7Q512 -2 511.5 -7.0Q511 -12 507.5 -16.5Q504 -21 498 -21Q488 -21 486.0 -14.0Q484 -7 484 7Q484 19 458.0 41.5Q432 64 412 64Q394 64 382.0 43.0Q370 22 370 7Q370 -12 363.0 -16.5Q356 -21 341 -21Z" fill="#3e721d" />
<path d="M484 -7Q484 21 427.0 21.0Q370 21 370 -7Q370 -18 362 -3Q356 11 356 21Q356 49 371.5 70.5Q387 92 427 92Q468 92 483.0 74.5Q498 57 498 21Q498 -6 488 -12Q484 -12 484 -7Z" fill="#5c913b" />
<path d="M171 178H71Q71 184 74.5 194.5Q78 205 82 213L85 220H142Q148 220 152.0 224.5Q156 229 156 235V292Q153 292 148.5 292.5Q144 293 136.0 300.0Q128 307 128 320Q128 326 132 333Q139 348 156 348H469Q490 348 501.0 301.5Q512 255 512 178H398Q398 182 398.0 190.0Q398 198 395.5 217.5Q393 237 389.0 252.0Q385 267 376.5 279.5Q368 292 356 292H171Z" fill="#ffac33" />
<path d="M386.5 -47.5Q370 -31 370.0 -7.5Q370 16 386.5 33.0Q403 50 426.5 50.0Q450 50 467.0 33.0Q484 16 484.0 -7.5Q484 -31 467.0 -47.5Q450 -64 426.5 -64.0Q403 -64 386.5 -47.5Z" fill="#292f33" />
<path d="M406.5 -27.5Q398 -19 398.0 -7.0Q398 5 406.5 13.0Q415 21 426.5 21.0Q438 21 446.5 13.0Q455 5 455.0 -7.0Q455 -19 446.5 -27.5Q438 -36 426.5 -36.0Q415 -36 406.5 -27.5Z" fill="#99aab5" />
<path d="M128 185Q128 178 121 178H71Q71 187 79 206H121Q128 206 128 199Z" fill="#f4900c" />
</g></svg>