<svg xmlns="http://www.w3.org/2000/svg" viewBox="0 0 512 512">
<g transform="matrix(1 0 0 -1 0 512)">
<path d="M498 364Q506 336 507.5 300.0Q509 264 497.0 219.0Q485 174 466.5 132.0Q448 90 417.0 51.0Q386 12 348 -13Q285 -55 216.0 -59.0Q147 -63 93.0 -26.5Q39 10 20 79Q3 141 44.0 194.5Q85 248 189 316Q256 360 318.5 385.5Q381 411 431.5 407.5Q482 404 498 364Z" fill="#3e721d" />
<path d="M293 78Q222 28 144.0 25.0Q66 22 30 70Q-2 119 28.0 191.5Q58 264 129 313Q178 347 253.0 375.5Q328 404 394.0 411.5Q460 419 487 387Q508 357 477.5 294.0Q447 231 394.0 171.5Q341 112 293 78Z" fill="#3e721d" />
<path d="M282 70Q220 28 150.5 33.5Q81 39 50 83Q21 127 48.5 191.5Q76 256 139 299Q182 329 251.5 356.5Q321 384 382.5 392.5Q444 401 467 374Q486 346 463.5 287.5Q441 229 390.0 167.5Q339 106 282 70Z" fill="#a6d388" />
<path d="M258 108Q210 74 159.5 74.0Q109 74 85.5 108.0Q62 142 79.5 189.5Q97 237 145 270Q179 294 233.5 315.0Q288 336 336.0 343.0Q384 350 402 328Q423 297 368.5 222.0Q314 147 258 108Z" fill="#c6e5b3" />
<path d="M159 270Q197 294 234.0 289.0Q271 284 298 256Q313 241 293.5 206.5Q274 172 236 147Q213 131 186.0 126.0Q159 121 140.5 124.5Q122 128 119 136Q102 169 112.5 207.5Q123 246 159 270Z" fill="#662113" />
<path d="M165.0 234.0Q170 251 186.0 261.5Q202 272 219.5 270.5Q237 269 246.0 255.5Q255 242 250.0 225.0Q245 208 229.0 197.0Q213 186 195.5 188.0Q178 190 169.0 203.5Q160 217 165.0 234.0Z" fill="#7c3225" />
</g></svg>