<svg xmlns="http://www.w3.org/2000/svg" viewBox="0 0 512 512">
<g transform="matrix(1 0 0 -1 0 512)">
<path d="M501 11V10Q490 0 475.5 0.0Q461 0 451 10L111 350Q105 356 105.0 364.5Q105 373 111 380L132 400Q138 406 147.0 406.0Q156 406 162 400L501 61Q511 50 511.0 35.5Q511 21 501 11Z" fill="#f4900c" />
<path d="M253 349Q259 343 259.0 334.0Q259 325 253 319L202 269Q163 230 167 176Q96 175 64 211Q51 226 42.5 257.0Q34 288 36 306Q79 307 122 349L172 400Q178 406 187.0 406.0Q196 406 202 400Z" fill="#66757f" />
<path d="M36 306Q47 263 83.0 227.0Q119 191 167 176Q167 160 172 138Q138 134 95.0 162.0Q52 190 24.0 232.5Q-4 275 1 309Q20 305 36 306Z" fill="#ccd6dd" />
</g></svg>