<svg xmlns="http://www.w3.org/2000/svg" viewBox="0 0 512 512">
<g transform="matrix(1 0 0 -1 0 512)">
<path d="M469 345V265L459 275Q459 275 416 310Q394 330 399 335Q395 331 380.0 346.0Q365 361 352 378L339 395L329 405H409Q418 405 420.5 408.0Q423 411 424.5 416.5Q426 422 429 426Q446 442 464.5 446.0Q483 450 500 436Q514 419 510.0 400.5Q506 382 490 365Q486 362 480.5 360.5Q475 359 472.0 356.5Q469 354 469 345Z" fill="#ffac33" />
<path d="M439 235Q436 231 433.5 198.5Q431 166 419 154L409 144L365 100L224 -41Q207 -58 183.5 -58.0Q160 -58 144 -41L23 80Q6 96 6.0 119.5Q6 143 23 160L178 315L208 345L218 355Q230 367 262.5 369.5Q295 372 299 375L369 305Z" fill="#ccd6dd" />
<path d="M465 240Q456 231 450.5 227.5Q445 224 438.0 223.5Q431 223 424 230L294 360Q287 367 287.5 374.0Q288 381 291.5 386.5Q295 392 304 401Q314 411 329.0 411.0Q344 411 354 401L465 290Q475 280 475.0 265.0Q475 250 465 240Z" fill="#55acee" />
<path d="M175 -3Q165 7 175 17L346 188Q356 198 366.0 188.0Q376 178 366 168L195 -3Q191 -7 185.0 -7.0Q179 -7 175 -3ZM118 54Q108 64 118 74L289 245Q299 255 309.0 245.0Q319 235 309 225L138 54Q134 50 128.0 50.0Q122 50 118 54ZM61 111Q51 121 61 131L232 302Q242 312 252.0 302.0Q262 292 252 282L81 111Q77 107 71.0 107.0Q65 107 61 111Z" fill="#99aab5" />
</g></svg>