<svg xmlns="http://www.w3.org/2000/svg" viewBox="0 0 2048 2048">
<g transform="matrix(1 0 0 -1 0 2048)">
<path d="M121 221Q121 212 127.0 204.0Q133 196 131.5 194.5Q130 193 114 193Q86 193 57.0 202.0Q28 211 28 221Q28 234 44.5 249.0Q61 264 86 264Q98 264 106.0 261.0Q114 258 117.0 251.0Q120 244 120.5 238.5Q121 233 121 221Z" fill="#f4900c" />
<path d="M397 -22Q403 -34 391 -41L353 -61Q341 -68 334.0 -55.5Q327 -43 340 -36L343 -35H327Q321 -35 317.0 -30.5Q313 -26 313.0 -20.0Q313 -14 317.0 -10.0Q321 -6 327 -6H356Q356 37 370 51L384 65Q390 65 390.0 60.0Q390 55 387.0 47.0Q384 39 384 37Q382 33 380.0 28.0Q378 23 379.0 9.0Q380 -5 391 -16Q395 -18 397 -22ZM297 -22Q304 -34 291 -41L254 -61Q241 -68 234.5 -55.5Q228 -43 240 -36L243 -35H228Q222 -35 217.5 -30.5Q213 -26 213.0 -20.0Q213 -14 217.5 -10.0Q222 -6 228 -6H256Q256 37 270 51L284 65Q291 65 291.0 60.0Q291 55 287.5 47.0Q284 39 284 37Q283 33 281.0 28.0Q279 23 280.0 9.0Q281 -5 291 -16Q295 -18 297 -22Z" fill="#ffac33" />
<path d="M501 202Q508 197 508.0 172.0Q508 147 490.5 111.0Q473 75 446 62Q440 59 438.5 64.0Q437 69 434 65Q383 8 306 8Q258 8 221.5 37.5Q185 67 175 112Q130 122 100.5 158.5Q71 195 71 243Q71 295 106.5 334.0Q142 373 194 377Q184 383 176.0 385.5Q168 388 164.0 387.5Q160 387 158.0 387.5Q156 388 156 392Q156 400 164.5 403.5Q173 407 186.5 404.0Q200 401 213 392Q226 401 239.5 404.0Q253 407 261.5 403.5Q270 400 270 392Q270 388 268.0 387.5Q266 387 262.0 387.5Q258 388 249.5 385.5Q241 383 231 376L232 375Q269 368 297.5 342.0Q326 316 336 279Q337 278 337 278Q351 238 371.0 216.0Q391 194 411.5 190.0Q432 186 449.0 188.0Q466 190 482.0 196.0Q498 202 501 202Z" fill="#ffcc4d" />
<path d="M162.5 242.0Q156 248 156.0 257.0Q156 266 162.5 272.0Q169 278 178.0 278.0Q187 278 193.0 272.0Q199 266 199.0 257.0Q199 248 193.0 242.0Q187 236 178.0 236.0Q169 236 162.5 242.0Z" fill="#662113" />
<path d="M310 221Q310 218 309.0 213.0Q308 208 308.5 193.5Q309 179 312.0 165.5Q315 152 324.5 135.5Q334 119 349.0 107.0Q364 95 391.0 87.0Q418 79 452 79Q462 79 455 70Q442 51 396 51Q366 51 335.0 72.5Q304 94 290.0 128.5Q276 163 296 207Q300 215 303.5 218.5Q307 222 309 222Z" fill="#ffac33" />
</g></svg>