<svg xmlns="http://www.w3.org/2000/svg" viewBox="0 0 512 512">
<g transform="matrix(1 0 0 -1 0 512)">
<path d="M512 -7Q512 -31 495.5 -47.5Q479 -64 455 -64H57Q33 -64 16.5 -47.5Q0 -31 0 -7V391Q0 415 16.5 431.5Q33 448 57 448H455Q479 448 495.5 431.5Q512 415 512 391Z" fill="#f4900c" />
<path d="M205 97Q215 89 219.5 70.5Q224 52 226 49Q217 42 206 44Q182 48 164 21Q149 -1 128 -1Q127 -1 126 -1Q103 0 91 23Q85 33 88.5 43.0Q92 53 101 59Q114 66 126 59Q158 99 205 97ZM408 59Q418 54 421.0 43.5Q424 33 419 23Q406 0 383 -1Q382 -1 382 -1Q360 -1 345 21Q327 48 303 44Q294 43 285 48Q288 52 292.5 70.5Q297 89 307 97Q352 97 383 59Q396 66 408 59ZM399 179Q405 172 405.0 163.5Q405 155 399 148Q389 139 373 139Q350 139 326 163Q319 170 309 177Q312 166 312 157Q312 133 298.5 127.0Q285 121 256 121Q237 121 227.0 122.5Q217 124 208.5 132.0Q200 140 200 157Q200 166 203 177Q193 170 186 163Q162 139 139 139Q123 139 113 148Q107 155 107.0 163.5Q107 172 113 179Q125 191 140 182Q146 183 156 193Q190 228 233 238Q204 248 189 278Q181 279 176.0 285.0Q171 291 171 299Q171 311 182 317Q183 348 204.5 369.5Q226 391 256.0 391.0Q286 391 307.5 369.5Q329 348 330 317Q341 311 341 299Q341 291 336.0 285.0Q331 279 323 278Q308 248 279 238Q322 228 356 193Q366 183 372 181Q387 191 399 179Z" fill="#ffffff" />
</g></svg>