<svg xmlns="http://www.w3.org/2000/svg" viewBox="0 0 512 512">
<g transform="matrix(1 0 0 -1 0 512)">
<path d="M509 138Q510 132 507.0 127.0Q504 122 499 121Q497 120 495 120Q484 120 481 131Q478 149 463 180Q460 174 458 169Q453 136 454.5 91.5Q456 47 463 31Q467 23 468.5 16.0Q470 9 467.5 0.5Q465 -8 463.5 -11.5Q462 -15 455.0 -26.5Q448 -38 447 -41Q440 -54 433.0 -56.5Q426 -59 422.0 -53.5Q418 -48 418 -41Q418 -33 426.0 -18.0Q434 -3 434 4Q434 9 418 36Q412 -11 398 -36Q391 -49 384.0 -51.0Q377 -53 373.5 -47.5Q370 -42 370 -35Q370 -28 378.0 0.5Q386 29 386 36Q386 41 349 107Q310 97 280 99Q267 99 257 99Q253 85 251.0 63.0Q249 41 249.0 21.5Q249 2 249.0 -16.5Q249 -35 249 -43Q248 -56 241.0 -61.5Q234 -67 227.0 -61.0Q220 -55 220 -42Q222 4 208 72Q206 56 205.5 38.0Q205 20 205.5 2.5Q206 -15 205 -20Q205 -33 198.0 -38.5Q191 -44 184.0 -38.5Q177 -33 177 -19Q178 6 160.5 69.0Q143 132 125 152Q105 172 97 197Q94 208 97.5 234.5Q101 261 99 268Q98 273 93.0 276.5Q88 280 78.5 281.5Q69 283 62.0 283.0Q55 283 40 283Q35 283 32 283Q13 283 18 305Q24 328 46 337Q52 340 59 340Q74 340 83.0 343.5Q92 347 95.5 350.0Q99 353 102 353Q109 351 115 348Q121 355 133 356Q142 356 148.5 352.5Q155 349 155 343Q156 331 139 328Q157 303 157 280Q156 267 160 258Q160 259 160.5 259.5Q161 260 161 260Q171 276 181.5 315.5Q192 355 204.5 380.0Q217 405 237 405Q252 405 261.5 395.5Q271 386 275.5 374.5Q280 363 289.0 353.5Q298 344 311.5 344.0Q325 344 333.0 353.5Q341 363 344.5 374.5Q348 386 356.0 395.5Q364 405 378 405Q397 405 409.5 380.0Q422 355 433.5 312.5Q445 270 455 252Q458 246 460 241Q496 190 509 138Z" fill="#c1694f" />
<path d="M111.0 334.5Q115 330 115.0 324.0Q115 318 110.5 314.0Q106 310 100.5 310.0Q95 310 91.0 314.5Q87 319 87.0 325.0Q87 331 91.0 335.0Q95 339 101.0 339.0Q107 339 111.0 334.5Z" fill="#292f33" />
</g></svg>