<svg xmlns="http://www.w3.org/2000/svg" viewBox="0 0 512 512">
<g transform="matrix(1 0 0 -1 0 512)">
<path d="M506 191Q506 150 490.0 111.0Q474 72 444.5 40.0Q415 8 366.0 -11.0Q317 -30 257.0 -30.0Q197 -30 148.5 -11.0Q100 8 70.0 40.0Q40 72 24.0 111.0Q8 150 8 191Q8 244 78.5 280.0Q149 316 257.0 316.0Q365 316 435.5 280.0Q506 244 506 191Z" fill="#c1694f" />
<path d="M257 330Q367 330 436.5 292.0Q506 254 506 193Q506 132 436.0 92.5Q366 53 257 53Q147 53 77.5 91.5Q8 130 8 193Q8 256 77.0 293.0Q146 330 257 330Z" fill="#d99e82" />
<path d="M36 150Q40 154 87.0 160.5Q134 167 198.5 172.5Q263 178 326.5 180.5Q390 183 434.5 179.0Q479 175 479 164Q479 132 454.5 108.0Q430 84 410 94Q370 110 341.5 99.5Q313 89 283.5 75.0Q254 61 243 67Q241 68 233.0 76.0Q225 84 216.0 91.0Q207 98 195.5 104.0Q184 110 171.0 108.0Q158 106 147 94Q123 77 96.5 87.5Q70 98 49.5 120.0Q29 142 36 150Z" fill="#ccd6dd" />
<path d="M34 171Q454 177 484 177Q480 149 453.5 124.5Q427 100 410 108Q370 124 341.5 113.5Q313 103 283.5 89.0Q254 75 243 81Q241 82 233.0 90.0Q225 98 216.0 105.0Q207 112 195.5 118.0Q184 124 171.0 122.0Q158 120 147 108Q124 89 99.0 97.5Q74 106 54.0 127.0Q34 148 32 164Z" fill="#ffffff" />
<path d="M266 411Q321 408 365.0 391.5Q409 375 435.0 352.5Q461 330 478.5 303.0Q496 276 502.5 253.5Q509 231 509 213Q509 194 484 177Q430 137 282 127Q110 115 34 171Q5 193 4 212Q6 261 28.5 299.0Q51 337 82.0 358.0Q113 379 150.5 392.0Q188 405 217.0 408.5Q246 412 266 411Z" fill="#c1694f" />
<path d="M206 303Q206 311 207.0 316.0Q208 321 213.0 328.5Q218 336 231.0 340.0Q244 344 265.0 344.0Q286 344 299.5 340.0Q313 336 317.5 328.5Q322 321 323.5 316.0Q325 311 325 304Q296 292 260 294Q225 295 206 303Z" fill="#ffffff" />
<path d="M268 358Q333 354 344 329Q349 318 338 310Q332 307 325 304Q307 322 267 324Q232 326 206 303Q198 306 193 309Q170 324 197 342Q225 361 268 358Z" fill="#8a4b38" />
<path d="M131 310Q124 306 111.5 305.5Q99 305 95 310Q92 315 102.0 324.5Q112 334 120 337Q133 343 139.0 329.0Q145 315 131 310ZM447 317Q451 312 455.0 302.0Q459 292 456.0 289.0Q453 286 443.0 291.0Q433 296 429 301Q421 310 430.0 318.0Q439 326 447 317ZM353 201Q349 199 337.0 199.5Q325 200 324.0 204.0Q323 208 331.0 215.0Q339 222 346 224Q357 228 361.0 216.5Q365 205 353 201ZM114 244Q108 238 96.5 232.5Q85 227 81.0 231.0Q77 235 81.5 247.0Q86 259 92 264Q102 275 113.0 265.0Q124 255 114 244Z" fill="#d99e82" />
<path d="M249.5 381.0Q232 381 232.0 389.0Q232 397 249.5 397.0Q267 397 267.0 389.0Q267 381 249.5 381.0Z" fill="#d99e82" />
</g></svg>