<svg xmlns="http://www.w3.org/2000/svg" viewBox="0 0 512 512">
<g transform="matrix(1 0 0 -1 0 512)">
<path d="M512 -7Q512 -31 495.5 -47.5Q479 -64 455 -64H57Q33 -64 16.5 -47.5Q0 -31 0 -7V391Q0 415 16.5 431.5Q33 448 57 448H455Q479 448 495.5 431.5Q512 415 512 391Z" fill="#226699" />
<path d="M412 334Q424 334 432.5 326.0Q441 318 441 306V107Q441 95 432.5 86.5Q424 78 412 78H384V334ZM100 334H128V78H100Q88 78 79.5 86.5Q71 95 71 107V306Q71 318 79.5 326.0Q88 334 100 334ZM327 334H356V78H156V334H185V377Q185 389 193.5 397.0Q202 405 213 405H299Q310 405 318.5 397.0Q327 389 327 377ZM213 363V334H299V363Q299 369 294.5 373.0Q290 377 284 377H228Q222 377 217.5 373.0Q213 369 213 363ZM469 50Q475 50 479.5 45.5Q484 41 484.0 35.5Q484 30 479.5 25.5Q475 21 469 21H455Q455 10 446.5 1.5Q438 -7 426.5 -7.0Q415 -7 406.5 1.5Q398 10 398 21H370Q370 10 361.5 1.5Q353 -7 341.5 -7.0Q330 -7 321.5 1.5Q313 10 313 21H284Q284 10 276.0 1.5Q268 -7 256.0 -7.0Q244 -7 236.0 1.5Q228 10 228 21H199Q199 10 190.5 1.5Q182 -7 170.5 -7.0Q159 -7 150.5 1.5Q142 10 142 21H114Q114 10 105.5 1.5Q97 -7 85.5 -7.0Q74 -7 65.5 1.5Q57 10 57 21H43Q37 21 32.5 25.5Q28 30 28.0 35.5Q28 41 32.5 45.5Q37 50 43 50Z" fill="#f5f8fa" />
</g></svg>