<svg xmlns="http://www.w3.org/2000/svg" viewBox="0 0 2048 2048">
<g transform="matrix(1 0 0 -1 0 2048)">
<path d="M181 5Q155 -21 125.5 -32.5Q96 -44 74.0 -41.5Q52 -39 40.5 -27.5Q29 -16 27.0 6.0Q25 28 36.5 57.5Q48 87 73 112L342 382Q367 407 396.5 418.5Q426 430 448.0 428.0Q470 426 482.0 414.0Q494 402 496.0 380.0Q498 358 486.5 328.5Q475 299 450 274Z" fill="#edb980" />
<path d="M346 335Q326 355 321 361L342 382H343Q361 370 380.0 348.5Q399 327 401 315Q401 314 401 313Q400 308 397 305Q390 298 380.0 304.5Q370 311 351 329Q348 333 346 335ZM281 270Q261 290 257 296L278 318Q297 306 316.0 284.0Q335 262 336 250Q336 250 337 249Q335 243 332 240Q325 233 315.0 239.5Q305 246 287 265Q283 268 281 270ZM217 205Q197 225 192 231L213 253Q232 241 251.0 219.5Q270 198 272 186Q272 185 272 184Q271 179 268 176Q260 168 250.5 174.5Q241 181 222 200Q219 204 217 205ZM152 141Q132 161 127 167L149 188Q167 176 186.5 154.5Q206 133 207 121Q207 121 208 119Q206 114 203 111Q196 104 186.0 110.5Q176 117 157 135Q154 139 152 141ZM88 76Q68 96 63 102Q68 108 73 112L84 124Q103 112 122.0 90.5Q141 69 142 57Q142 56 143 55Q142 50 139 47Q131 39 121.0 45.5Q111 52 93 71Q89 74 88 76Z" fill="#e5a157" />
<path d="M354 392Q375 378 394.0 355.0Q413 332 415 317Q416 310 409 309H408Q403 309 401 313Q401 314 401 315Q399 327 380.0 348.5Q361 370 343 382Q348 387 354 392ZM288 328Q310 314 329.5 290.5Q349 267 350 252Q351 245 344 244H343Q339 244 337 249Q336 250 336 250Q335 262 316.0 284.0Q297 306 278 318ZM224 263Q245 249 264.5 226.0Q284 203 286 187Q286 180 279 180Q274 180 272 184Q272 185 272 186Q270 198 251.0 219.5Q232 241 213 253ZM159 199Q181 184 200.0 161.0Q219 138 221 123Q222 116 215 115H214Q209 115 208 119Q207 120 207 121Q206 133 186.5 154.5Q167 176 149 188ZM95 134Q116 120 135.5 96.5Q155 73 157 58Q157 51 150 50Q150 50 149 50Q145 50 143 55Q142 56 142 57Q141 69 122.0 90.5Q103 112 84 124Z" fill="#ffd983" />
</g></svg>