<svg xmlns="http://www.w3.org/2000/svg" viewBox="0 0 2048 2048">
<g transform="matrix(1 0 0 -1 0 2048)">
<path d="M331 446Q343 447 357.5 441.5Q372 436 391.0 419.0Q410 402 425.0 375.5Q440 349 450.0 300.0Q460 251 460 188Q460 187 460 183Q452 55 384 8H308Q273 23 273 127Q273 140 283.5 186.5Q294 233 294 242Q296 245 294.5 254.5Q293 264 293.5 265.5Q294 267 292.0 276.0Q290 285 290.5 286.0Q291 287 288.0 295.5Q285 304 285.0 305.5Q285 307 281.5 315.5Q278 324 277.5 325.5Q277 327 273.0 336.5Q269 346 268 349Q252 389 272.0 417.0Q292 445 331 446Z" fill="#f4abba" />
<path d="M418 342Q424 329 429.5 302.0Q435 275 439.0 239.0Q443 203 429.0 176.5Q415 150 383 150Q374 149 367.0 150.0Q360 151 352.0 157.0Q344 163 341.0 174.5Q338 186 340.0 208.5Q342 231 352 262Q358 273 355.0 294.5Q352 316 347.5 332.0Q343 348 337.0 365.0Q331 382 330 385Q328 396 337.0 405.0Q346 414 360.5 413.0Q375 412 387 397Q397 384 404.5 370.5Q412 357 415 349Z" fill="#ea596e" />
<path d="M333 155Q326 155 323 160Q317 171 327 177Q357 194 388.0 230.5Q419 267 429 289Q434 300 444.5 295.0Q455 290 450 279Q439 254 405.5 215.0Q372 176 339 156Q336 155 333 155Z" fill="#f4abba" />
<path d="M447 196Q445 196 444 197Q420 203 383.5 227.0Q347 251 330 287Q325 297 335.5 302.0Q346 307 351 297Q366 267 397.5 245.5Q429 224 450 220Q461 217 458 205Q456 196 447 196ZM175 377Q215 376 235.0 347.5Q255 319 239 280Q236 273 229.5 257.5Q223 242 221.0 236.5Q219 231 216.0 219.5Q213 208 212.5 197.0Q212 186 212 172Q213 164 223.0 117.0Q233 70 233 56Q233 -48 199 -63H122Q54 -16 46 113Q46 117 46 118Q46 181 56.0 230.0Q66 279 81.0 306.0Q96 333 115.0 350.0Q134 367 148.5 372.5Q163 378 175 377Z" fill="#f4abba" />
<path d="M88 273Q97 298 119 328Q131 343 146.0 344.0Q161 345 170.0 336.0Q179 327 176 316Q176 313 170.0 295.5Q164 278 159.0 262.0Q154 246 151.0 224.5Q148 203 154 192Q164 161 166.5 138.0Q169 115 165.5 104.0Q162 93 154.0 87.0Q146 81 139.0 80.0Q132 79 123 79Q91 80 77.0 106.0Q63 132 67.0 168.5Q71 205 76.5 232.0Q82 259 88 273Z" fill="#ea596e" />
<path d="M174 84Q170 84 168 86Q134 106 100.5 145.0Q67 184 56 210Q51 220 61.5 225.0Q72 230 77 219Q88 197 118.5 160.5Q149 124 180 106Q190 100 184 90Q180 84 174 84Z" fill="#f4abba" />
<path d="M60 127Q51 127 48 136Q46 148 57 150Q77 155 109.0 176.0Q141 197 155 227Q160 238 170.5 232.5Q181 227 176 217Q158 180 121.5 156.5Q85 133 63 127Q61 127 60 127Z" fill="#f4abba" />
</g></svg>