<svg xmlns="http://www.w3.org/2000/svg" viewBox="0 0 512 512">
<g transform="matrix(1 0 0 -1 0 512)">
<path d="M398 420Q426 433 442 391Q463 334 441 235Q421 145 313 64Q277 37 232 56Q195 72 196 102Q197 119 213 135Q222 144 246.0 167.0Q270 190 281.0 201.5Q292 213 308.5 233.5Q325 254 336.0 275.0Q347 296 356 320Q361 336 366.0 356.0Q371 376 373.5 386.0Q376 396 382.0 405.5Q388 415 398 420Z" fill="#ffe8b6" />
<path d="M441 334Q441 294 427.0 241.0Q413 188 384 149Q353 108 324 100Q311 96 312 107Q313 116 327 135Q363 183 383.0 217.5Q403 252 412 292Q438 395 441 345Q441 340 441 334Z" fill="#ffd983" />
<path d="M313 164Q315 165 319.0 166.5Q323 168 335.5 170.0Q348 172 359.5 170.0Q371 168 385.5 159.5Q400 151 412 135L356 78Q348 70 334.0 57.5Q320 45 282.5 18.0Q245 -9 213 -21Q160 -44 87.0 -41.0Q14 -38 14 -7Q14 4 26.5 16.0Q39 28 71 50Q156 107 213 149Q223 157 233 165Q236 172 242 178Q263 199 254.0 217.0Q245 235 213 235Q180 235 182 240Q185 248 230 252Q259 255 270 249Q318 224 313 164Z" fill="#ffcc4d" />
<path d="M313 164Q308 173 305.5 190.0Q303 207 296.0 217.5Q289 228 270 235Q243 244 190.0 222.5Q137 201 114 178Q91 155 73 163Q62 168 71 178Q76 183 78.0 195.5Q80 208 87.5 222.0Q95 236 114 249Q191 301 270 263Q289 254 300.5 240.5Q312 227 314.5 214.0Q317 201 317.0 189.5Q317 178 315 171Z" fill="#ffe8b6" />
<path d="M370 -50H313Q297 -50 279.0 -57.0Q261 -64 256 -64Q249 -64 243.5 -57.0Q238 -50 240.5 -43.0Q243 -36 256 -36Q313 -36 327 -21Q338 -11 365 -31Q385 -45 375 -49Q373 -50 370 -50Z" fill="#a6d388" />
<path d="M246.0 -60.0Q242 -56 242.0 -50.0Q242 -44 246.0 -40.0Q250 -36 256.0 -36.0Q262 -36 266.0 -40.0Q270 -44 270.0 -50.0Q270 -56 266.0 -60.0Q262 -64 256.0 -64.0Q250 -64 246.0 -60.0Z" fill="#3e721d" />
<path d="M458 50Q451 39 440.5 22.5Q430 6 406.0 -22.0Q382 -50 370 -50H313Q294 -50 306 -39Q308 -37 314 -32Q323 -25 327 -21Q330 -18 339.5 -15.5Q349 -13 358.5 -9.5Q368 -6 377.0 1.0Q386 8 392.0 24.0Q398 40 398 64Q398 102 452 55Q458 50 458 50Z" fill="#ffcc4d" />
<path d="M370 178Q409 178 444.0 143.0Q479 108 469 50Q464 20 452.0 -1.5Q440 -23 424.5 -32.5Q409 -42 396.0 -46.0Q383 -50 370 -50H341Q331 -50 327.0 -47.5Q323 -45 325.5 -40.5Q328 -36 331.0 -32.0Q334 -28 341 -21Q345 -18 356.0 -14.0Q367 -10 375.5 -5.5Q384 -1 391.0 16.5Q398 34 398 64Q398 95 367.0 129.5Q336 164 313 164Q341 178 370 178Z" fill="#ffe8b6" />
<path d="M242 149Q276 149 289.5 138.5Q303 128 284 107Q262 84 221.0 57.5Q180 31 142 21Q73 4 58 16Q51 22 71 36Q84 44 124.0 75.5Q164 107 196.0 128.0Q228 149 242 149Z" fill="#ffd983" />
<path d="M28 7Q39 7 41.0 6.0Q43 5 43 -2Q43 -9 42.5 -12.0Q42 -15 38.5 -18.0Q35 -21 28 -21Q22 -21 18.5 -16.5Q15 -12 15 -7L14 -2Q14 7 28 7Z" fill="#c1694f" />
</g></svg>