<svg xmlns="http://www.w3.org/2000/svg" viewBox="0 0 2048 2048">
<g transform="matrix(1 0 0 -1 0 2048)">
<path d="M28 292H484Q496 292 503.0 284.5Q510 277 511 270L512 263V-36Q512 -39 511.0 -43.5Q510 -48 503.0 -56.0Q496 -64 484 -64H28Q16 -64 9.0 -57.0Q2 -50 1 -43L0 -36V263Q0 266 1.0 271.0Q2 276 9.0 284.0Q16 292 28 292Z" fill="#e5a157" />
<path d="M28 363H484Q496 363 503.0 355.5Q510 348 511 341L512 334V50Q512 47 511.0 42.0Q510 37 503.0 29.0Q496 21 484 21H28Q16 21 9.0 28.5Q2 36 1 43L0 50V334Q0 337 1.0 342.0Q2 347 9.0 355.0Q16 363 28 363Z" fill="#ffd983" />
<path d="M290.0 127.0Q263 154 263.0 192.0Q263 230 290.0 257.0Q317 284 355.5 284.0Q394 284 421.0 257.0Q448 230 448.0 192.0Q448 154 421.0 127.0Q394 100 355.5 100.0Q317 100 290.0 127.0Z" fill="#edb980" />
<path d="M469 43H43Q34 43 27.5 49.0Q21 55 21 64V320Q21 329 27.5 335.0Q34 341 43 341H469Q478 341 484.5 335.0Q491 329 491 320V64Q491 55 484.5 49.0Q478 43 469 43ZM43 327Q36 327 36 320V64Q36 57 43 57H469Q476 57 476 64V320Q476 327 469 327Z" fill="#e5a157" />
<path d="M199 363H313V20H199Z" fill="#ffe8b6" />
<path d="M199 21H313V-64H199Z" fill="#ffac33" />
<path d="M103 186H69Q59 186 59.0 194.0Q59 202 69 202H93L53 263Q50 269 50 273Q50 281 58 281Q65 281 70 274L114 208L158 274Q163 281 169 281Q178 281 178 273Q178 269 174 263L135 202H158Q169 202 169.0 194.0Q169 186 158 186H125V169H158Q169 169 169.0 160.5Q169 152 158 152H125V114Q125 103 114.0 103.0Q103 103 103 114V152H69Q59 152 59.0 160.5Q59 169 69 169H103Z" fill="#e5a157" />
</g></svg>