<svg xmlns="http://www.w3.org/2000/svg" viewBox="0 0 2048 2048">
<g transform="matrix(1 0 0 -1 0 2048)">
<path d="M370.5 35.5Q356 50 356.0 71.0Q356 92 370.5 106.5Q385 121 405.5 121.0Q426 121 440.5 106.5Q455 92 455.0 71.0Q455 50 440.5 35.5Q426 21 405.5 21.0Q385 21 370.5 35.5Z" fill="#ccd6dd" />
<path d="M394.5 60.5Q384 71 384.0 85.5Q384 100 394.5 110.5Q405 121 419.5 121.0Q434 121 444.5 110.5Q455 100 455.0 85.5Q455 71 444.5 60.5Q434 50 419.5 50.0Q405 50 394.5 60.5Z" fill="#f5f8fa" />
<path d="M339.5 -8.5Q327 4 327.0 21.5Q327 39 339.5 51.5Q352 64 369.5 64.0Q387 64 399.5 51.5Q412 39 412.0 21.5Q412 4 399.5 -8.5Q387 -21 369.5 -21.0Q352 -21 339.5 -8.5Z" fill="#ccd6dd" />
<path d="M351.5 3.5Q341 14 341.0 28.5Q341 43 351.5 53.5Q362 64 377.0 64.0Q392 64 402.0 53.5Q412 43 412.0 28.5Q412 14 402.0 3.5Q392 -7 377.0 -7.0Q362 -7 351.5 3.5Z" fill="#f5f8fa" />
<path d="M462 332Q464 328 466.0 320.5Q468 313 471.5 287.5Q475 262 469 234Q463 186 440.0 146.0Q417 106 364 53Q276 -36 208.5 -50.0Q141 -64 88 -8Q53 27 46 77Q41 107 43 149Q43 157 47.0 173.5Q51 190 55 203L60 216Z" fill="#ea596e" />
<path d="M146 329Q183 367 225.0 396.0Q267 425 303 434Q366 449 423 393Q445 371 458.0 341.5Q471 312 468 282Q460 210 366 114Q282 28 215 11Q148 -7 89 50Q36 102 44 163Q54 235 146 329Z" fill="#f4abba" />
<path d="M165 329Q247 412 308 422Q355 430 395 391Q434 352 429 308Q422 246 338 160Q265 86 211 70Q154 53 108 98Q65 141 77 195Q90 252 165 329Z" fill="#ffccd6" />
<path d="M97.5 275.5Q85 288 85.0 305.5Q85 323 97.5 335.5Q110 348 128.0 348.0Q146 348 158.5 335.5Q171 323 171.0 305.5Q171 288 158.5 275.5Q146 263 128.0 263.0Q110 263 97.5 275.5Z" fill="#ccd6dd" />
<path d="M110.0 287.5Q100 298 100.0 313.0Q100 328 110.0 338.0Q120 348 135.0 348.0Q150 348 160.5 338.0Q171 328 171.0 313.0Q171 298 160.5 287.5Q150 277 135.0 277.0Q120 277 110.0 287.5Z" fill="#f5f8fa" />
<path d="M53.0 302.0Q43 312 43.0 327.0Q43 342 53.0 352.5Q63 363 78.0 363.0Q93 363 103.5 352.5Q114 342 114.0 327.0Q114 312 103.5 302.0Q93 292 78.0 292.0Q63 292 53.0 302.0ZM140.5 332.5Q128 345 128.0 362.5Q128 380 140.5 392.5Q153 405 170.5 405.0Q188 405 200.5 392.5Q213 380 213.0 362.5Q213 345 200.5 332.5Q188 320 170.5 320.0Q153 320 140.5 332.5Z" fill="#ccd6dd" />
<path d="M108.0 385.5Q100 394 100.0 405.5Q100 417 108.0 425.5Q116 434 128.0 434.0Q140 434 148.0 425.5Q156 417 156.0 405.5Q156 394 148.0 385.5Q140 377 128.0 377.0Q116 377 108.0 385.5ZM34.5 369.0Q28 375 28.0 384.0Q28 393 34.5 399.0Q41 405 50.0 405.0Q59 405 65.0 399.0Q71 393 71.0 384.0Q71 375 65.0 369.0Q59 363 50.0 363.0Q41 363 34.5 369.0ZM236.0 371.0Q228 379 228.0 391.0Q228 403 236.0 411.5Q244 420 256.0 420.0Q268 420 276.0 411.5Q284 403 284.0 391.0Q284 379 276.0 371.0Q268 363 256.0 363.0Q244 363 236.0 371.0ZM51.0 214.5Q43 223 43.0 234.5Q43 246 51.0 254.5Q59 263 71.0 263.0Q83 263 91.5 254.5Q100 246 100.0 234.5Q100 223 91.5 214.5Q83 206 71.0 206.0Q59 206 51.0 214.5ZM437.0 60.5Q427 71 427.0 85.5Q427 100 437.0 110.5Q447 121 462.0 121.0Q477 121 487.5 110.5Q498 100 498.0 85.5Q498 71 487.5 60.5Q477 50 462.0 50.0Q447 50 437.0 60.5ZM449.5 157.5Q441 166 441.0 178.0Q441 190 449.5 198.0Q458 206 469.5 206.0Q481 206 489.5 198.0Q498 190 498.0 178.0Q498 166 489.5 157.5Q481 149 469.5 149.0Q458 149 449.5 157.5Z" fill="#ccd6dd" />
<path d="M65.5 314.0Q57 322 57.0 334.0Q57 346 65.5 354.5Q74 363 85.5 363.0Q97 363 105.5 354.5Q114 346 114.0 334.0Q114 322 105.5 314.0Q97 306 85.5 306.0Q74 306 65.5 314.0ZM63.0 226.5Q57 233 57.0 242.0Q57 251 63.0 257.0Q69 263 78.0 263.0Q87 263 93.5 257.0Q100 251 100.0 242.0Q100 233 93.5 226.5Q87 220 78.0 220.0Q69 220 63.0 226.5ZM152.5 344.5Q142 355 142.0 370.0Q142 385 152.5 395.0Q163 405 178.0 405.0Q193 405 203.0 395.0Q213 385 213.0 370.0Q213 355 203.0 344.5Q193 334 178.0 334.0Q163 334 152.5 344.5Z" fill="#f5f8fa" />
<path d="M120.0 397.5Q114 404 114.0 412.5Q114 421 120.0 427.5Q126 434 135.0 434.0Q144 434 150.0 427.5Q156 421 156.0 412.5Q156 404 150.0 397.5Q144 391 135.0 391.0Q126 391 120.0 397.5ZM47.0 381.0Q43 385 43.0 391.0Q43 397 47.0 401.0Q51 405 57.0 405.0Q63 405 67.0 401.0Q71 397 71.0 391.0Q71 385 67.0 381.0Q63 377 57.0 377.0Q51 377 47.0 381.0ZM248.0 383.0Q242 389 242.0 398.0Q242 407 248.0 413.5Q254 420 263.0 420.0Q272 420 278.0 413.5Q284 407 284.0 398.0Q284 389 278.0 383.0Q272 377 263.0 377.0Q254 377 248.0 383.0ZM449.5 72.5Q441 81 441.0 92.5Q441 104 449.5 112.5Q458 121 469.5 121.0Q481 121 489.5 112.5Q498 104 498.0 92.5Q498 81 489.5 72.5Q481 64 469.5 64.0Q458 64 449.5 72.5ZM461.5 170.0Q455 176 455.0 185.0Q455 194 461.5 200.0Q468 206 476.5 206.0Q485 206 491.5 200.0Q498 194 498.0 185.0Q498 176 491.5 170.0Q485 164 476.5 164.0Q468 164 461.5 170.0Z" fill="#f5f8fa" />
</g></svg>