<svg xmlns="http://www.w3.org/2000/svg" viewBox="0 0 2048 2048">
<g transform="matrix(1 0 0 -1 0 2048)">
<path d="M196.0 302.0Q171 327 171.0 362.5Q171 398 196.0 423.0Q221 448 256.0 448.0Q291 448 316.0 423.0Q341 398 341.0 362.5Q341 327 316.0 302.0Q291 277 256.0 277.0Q221 277 196.0 302.0Z" fill="#ccd6dd" />
<path d="M156 277H356V-21H156Z" fill="#ffffff" />
<path d="M156 43V106L356 9V-21H288Z" fill="#dd2e44" />
<path d="M156 169V233L356 136V72Z" fill="#55acee" />
<path d="M195 277H356V199Z" fill="#dd2e44" />
<path d="M356 263H156Q145 263 136.5 271.5Q128 280 128.0 291.5Q128 303 136.5 311.5Q145 320 156 320H356Q367 320 375.5 311.5Q384 303 384.0 291.5Q384 280 375.5 271.5Q367 263 356 263ZM356 -64H156Q145 -64 136.5 -55.5Q128 -47 128.0 -35.5Q128 -24 136.5 -15.5Q145 -7 156 -7H356Q367 -7 375.5 -15.5Q384 -24 384.0 -35.5Q384 -47 375.5 -55.5Q367 -64 356 -64Z" fill="#99aab5" />
</g></svg>