<svg xmlns="http://www.w3.org/2000/svg" viewBox="0 0 2048 2048">
<g transform="matrix(1 0 0 -1 0 2048)">
<path d="M28 229Q0 281 0 338Q0 364 14.5 375.0Q29 386 45.0 383.5Q61 381 71 372Q79 365 90.0 347.5Q101 330 107 316L114 302L100 292Q88 314 73 333Q63 347 48.5 342.5Q34 338 34 318Q34 305 40.0 284.0Q46 263 51 249L57 235ZM484 229 455 235Q478 289 478 318Q478 338 463.5 342.5Q449 347 439 333L412 292L398 302Q423 356 441 372Q451 381 467.0 383.5Q483 386 497.5 375.0Q512 364 512 338Q512 312 505.0 285.0Q498 258 491 244Z" fill="#c1694f" />
<path d="M473 210Q473 187 467.5 161.0Q462 135 447.0 104.5Q432 74 409.0 49.5Q386 25 346.0 9.0Q306 -7 256.0 -7.0Q206 -7 166.0 9.0Q126 25 103.0 49.5Q80 74 65.0 104.5Q50 135 44.5 161.0Q39 187 39 210Q39 240 97.5 258.5Q156 277 256.0 277.0Q356 277 414.5 258.5Q473 240 473 210Z" fill="#c1694f" />
<path d="M498 255Q498 190 435.0 162.5Q372 135 256.0 135.0Q140 135 77.0 162.5Q14 190 14 255Q14 291 79.0 312.5Q144 334 256.0 334.0Q368 334 433.0 312.5Q498 291 498 255Z" fill="#d99e82" />
<path d="M95.5 210.5Q29 229 29.0 255.0Q29 281 95.5 299.5Q162 318 256.0 318.0Q350 318 416.5 299.5Q483 281 483.0 255.0Q483 229 416.5 210.5Q350 192 256.0 192.0Q162 192 95.5 210.5Z" fill="#662113" />
<path d="M242 50V22Q197 22 162 27Q130 42 108 66Q159 51 242 50ZM270 50Q353 51 404 66Q382 42 350 27Q315 22 270 22ZM130 118Q137 101 146 86Q107 93 81 104Q71 122 65 141Q90 126 130 118ZM256 78Q213 78 177 82Q168 96 161 112Q203 107 256 107Q307 107 348 112Q340 96 331 81Q297 78 256 78ZM378 117Q421 126 447 141Q441 122 431 104Q403 92 362 85Q371 100 378 117Z" fill="#d99e82" />
<path d="M242 269Q159 268 108 253Q130 277 162 292Q197 297 242 297ZM270 269V297Q315 297 350 292Q382 277 404 253Q353 268 270 269ZM131 203Q103 208 82 215Q108 226 146 233Q138 219 131 203ZM256 241Q297 241 331 237Q340 223 348 207Q307 212 256 212Q203 212 161 206Q168 223 177 237Q213 241 256 241ZM362 233Q403 227 430 215Q408 207 378 202Q371 219 362 233Z" fill="#8a4633" />
</g></svg>