<svg xmlns="http://www.w3.org/2000/svg" viewBox="0 0 512 512">
<g transform="matrix(1 0 0 -1 0 512)">
<path d="M75.0 11.0Q0 86 0.0 192.0Q0 298 75.0 373.0Q150 448 256.0 448.0Q362 448 437.0 373.0Q512 298 512.0 192.0Q512 86 437.0 11.0Q362 -64 256.0 -64.0Q150 -64 75.0 11.0Z" fill="#f4900c" />
<path d="M512 206V178H384Q386 119 404.0 80.0Q422 41 452 28Q444 17 432 6Q360 47 356 178H270V-64H242V178H156Q152 47 80 6Q68 18 60 28Q90 41 108.0 80.0Q126 119 128 178H0V206H128Q126 265 108.0 304.0Q90 343 60 356Q68 366 80 378Q152 337 156 206H242V448H270V206H356Q360 337 432 378Q444 366 452 356Q422 343 404.0 304.0Q386 265 384 206Z" fill="#231f20" />
</g></svg>