<svg xmlns="http://www.w3.org/2000/svg" viewBox="0 0 2048 2048">
<g transform="matrix(1 0 0 -1 0 2048)">
<path d="M427 -17Q427 -35 376.0 -49.5Q325 -64 256.0 -64.0Q187 -64 136.0 -49.5Q85 -35 85 -17Q85 0 134.0 10.5Q183 21 256.0 21.0Q329 21 378.0 10.5Q427 0 427 -17Z" fill="#77b255" />
<path d="M85 405H427V-17H85Z" fill="#77b255" />
<path d="M135.0 375.5Q85 388 85.0 405.5Q85 423 135.0 435.5Q185 448 256.0 448.0Q327 448 377.0 435.5Q427 423 427.0 405.5Q427 388 377.0 375.5Q327 363 256.0 363.0Q185 363 135.0 375.5Z" fill="#5c913b" />
<path d="M312 266Q313 260 309.5 255.5Q306 251 299 250Q287 249 270 248V220Q270 215 266.0 210.5Q262 206 256.0 206.0Q250 206 246.0 210.5Q242 215 242 220V248Q227 248 213 250Q206 251 202.5 255.5Q199 260 200 266Q202 278 214 278Q215 278 216 278Q227 277 242 276V306Q242 312 246.0 316.0Q250 320 256.0 320.0Q262 320 266.0 316.0Q270 312 270 306V276Q283 277 296 278Q297 278 298 278Q310 278 312 266ZM289 14Q290 14 290 14Q303 14 305 2Q306 -4 302.0 -9.0Q298 -14 292 -15Q256 -18 220 -15Q214 -14 210.0 -9.0Q206 -4 207 2Q209 14 221 14Q222 14 223 14Q240 12 256 12Q272 12 289 14Z" fill="#ffffff" />
<path d="M155.5 385.5Q114 394 114.0 405.5Q114 417 155.5 425.5Q197 434 256.0 434.0Q315 434 356.5 425.5Q398 417 398.0 405.5Q398 394 356.5 385.5Q315 377 256.0 377.0Q197 377 155.5 385.5Z" fill="#ccd6dd" />
<path d="M199 434H313V412Q313 407 296.5 402.5Q280 398 256.0 398.0Q232 398 215.5 402.5Q199 407 199 412Z" fill="#99aab5" />
<path d="M215.5 424.0Q199 428 199.0 434.0Q199 440 215.5 444.0Q232 448 256.0 448.0Q280 448 296.5 444.0Q313 440 313.0 434.0Q313 428 296.5 424.0Q280 420 256.0 420.0Q232 420 215.5 424.0Z" fill="#ccd6dd" />
</g></svg>