<svg xmlns="http://www.w3.org/2000/svg" viewBox="0 0 2048 2048">
<g transform="matrix(1 0 0 -1 0 2048)">
<path d="M197 331Q217 319 225.0 297.0Q233 275 229.0 250.0Q225 225 214.0 198.0Q203 171 184.5 148.5Q166 126 146.0 109.5Q126 93 103.5 90.0Q81 87 61 97Q29 115 29 152Q29 170 38 184Q44 195 55.5 208.0Q67 221 79.0 242.5Q91 264 97.0 280.5Q103 297 109 307Q128 339 165 339Q182 339 197 331Z" fill="#ca694d" />
<path d="M219 309Q233 287 229.5 252.5Q226 218 209.0 186.5Q192 155 167.0 128.0Q142 101 114.5 93.0Q87 85 61 97Q38 110 31 136Q39 122 53 114Q77 103 103.0 109.0Q129 115 152.5 138.5Q176 162 193.5 190.5Q211 219 218.5 252.0Q226 285 219 309Z" fill="#ae3d2f" />
<path d="M83 203Q77 207 78.0 210.5Q79 214 86 226Q89 232 91.5 235.5Q94 239 97 245Q104 257 106.5 259.5Q109 262 116 259Q122 253 118.0 238.5Q114 224 102.5 211.0Q91 198 83 203Z" fill="#f6cfb2" />
<path d="M420 79Q428 47 406.0 20.0Q384 -7 346.0 -21.0Q308 -35 268.5 -39.0Q229 -43 197.0 -28.5Q165 -14 157 16Q156 23 156 31Q156 53 169.5 70.5Q183 88 205 93Q217 96 234.5 96.5Q252 97 275.5 103.0Q299 109 315.0 116.0Q331 123 343 126Q350 128 358 128Q380 128 397.5 114.0Q415 100 420 79Z" fill="#ca694d" />
<path d="M162 4Q191 -20 247.0 -20.5Q303 -21 354.0 1.0Q405 23 421 56Q417 24 381.5 -1.0Q346 -26 302.5 -35.0Q259 -44 217.5 -34.5Q176 -25 162 4Z" fill="#ae3d2f" />
<path d="M249 73Q248 79 251.5 81.5Q255 84 268 87Q275 88 279.0 89.0Q283 90 290 92Q302 96 306.5 95.5Q311 95 313 88Q315 80 299.0 72.5Q283 65 268.5 65.0Q254 65 249 73Z" fill="#f6cfb2" />
<path d="M419 171Q398 161 375.5 166.0Q353 171 334.0 188.5Q315 206 298.5 230.0Q282 254 273.5 282.0Q265 310 262.5 335.0Q260 360 269.5 381.5Q279 403 299 413Q312 420 327 420Q346 420 361.0 410.0Q376 400 384 384Q390 373 394.5 356.0Q399 339 410.0 317.5Q421 296 431.5 282.0Q442 268 448 257Q454 243 454 228Q454 210 444.5 194.5Q435 179 419 171Z" fill="#ca694d" />
<path d="M425 190Q444 199 454 219Q449 186 419 171Q394 159 366.5 169.0Q339 179 318.0 204.0Q297 229 281.0 261.5Q265 294 263.0 326.5Q261 359 271 384Q262 341 284.0 287.0Q306 233 346.5 202.0Q387 171 425 190Z" fill="#ae3d2f" />
<path d="M375 336Q381 339 384.0 336.0Q387 333 392 321Q395 315 397.0 311.0Q399 307 402 301Q409 289 409.5 285.5Q410 282 404 278Q396 274 385.0 287.5Q374 301 371.0 315.5Q368 330 375 336Z" fill="#f6cfb2" />
</g></svg>