<svg xmlns="http://www.w3.org/2000/svg" viewBox="0 0 2048 2048">
<g transform="matrix(1 0 0 -1 0 2048)">
<path d="M39.0 302.0Q14 327 14.0 362.5Q14 398 39.0 423.0Q64 448 99.5 448.0Q135 448 160.0 423.0Q185 398 185.0 362.5Q185 327 160.0 302.0Q135 277 99.5 277.0Q64 277 39.0 302.0ZM352.0 302.0Q327 327 327.0 362.5Q327 398 352.0 423.0Q377 448 412.5 448.0Q448 448 473.0 423.0Q498 398 498.0 362.5Q498 327 473.0 302.0Q448 277 412.5 277.0Q377 277 352.0 302.0Z" fill="#c1694f" />
<path d="M59.5 322.5Q43 339 43.0 362.5Q43 386 59.5 403.0Q76 420 99.5 420.0Q123 420 139.5 403.0Q156 386 156.0 362.5Q156 339 139.5 322.5Q123 306 99.5 306.0Q76 306 59.5 322.5ZM372.5 322.5Q356 339 356.0 362.5Q356 386 372.5 403.0Q389 420 412.5 420.0Q436 420 452.5 403.0Q469 386 469.0 362.5Q469 339 452.5 322.5Q436 306 412.5 306.0Q389 306 372.5 322.5Z" fill="#e6aaaa" />
<path d="M498 135Q498 72 452.0 28.0Q406 -16 324 -30Q298 -64 256.0 -64.0Q214 -64 188 -30Q106 -16 60.0 28.0Q14 72 14 135Q15 142 16.0 153.0Q17 164 23.5 196.5Q30 229 39.0 258.5Q48 288 67.0 324.0Q86 360 110.0 386.0Q134 412 172.0 430.0Q210 448 256 448Q292 448 323.0 437.5Q354 427 376.5 408.5Q399 390 418.0 366.5Q437 343 449.0 317.5Q461 292 470.5 266.0Q480 240 485.0 216.5Q490 193 493.0 175.0Q496 157 497 146Z" fill="#c1694f" />
<path d="M215.5 -19.0Q199 -2 199.0 21.5Q199 45 215.5 61.5Q232 78 256.0 78.0Q280 78 296.5 61.5Q313 45 313.0 21.5Q313 -2 296.5 -19.0Q280 -36 256.0 -36.0Q232 -36 215.5 -19.0Z" fill="#dd2e44" />
<path d="M256 164Q262 161 272.5 157.5Q283 154 310.0 142.5Q337 131 358.0 119.5Q379 108 395.5 92.5Q412 77 412 64Q412 29 387.0 4.0Q362 -21 327 -21Q281 -21 256 17Q231 -21 185 -21Q150 -21 125.0 4.0Q100 29 100 64Q100 85 139.0 110.0Q178 135 217 149Z" fill="#d99e82" />
<path d="M156 206Q156 209 157.0 214.0Q158 219 165.0 227.0Q172 235 185.0 235.0Q198 235 205.0 227.5Q212 220 213 213V206V178Q213 175 212.5 170.0Q212 165 205.0 157.0Q198 149 185.0 149.0Q172 149 165.0 156.5Q158 164 157 171L156 178ZM299 206Q299 209 299.5 214.0Q300 219 307.0 227.0Q314 235 327.0 235.0Q340 235 347.0 227.5Q354 220 355 213L356 206V178Q356 175 355.0 170.0Q354 165 347.0 157.0Q340 149 327.0 149.0Q314 149 307.0 156.5Q300 164 299 171V178ZM187 92Q204 103 256.0 103.0Q308 103 325.5 92.5Q343 82 304 56Q274 36 256 36Q234 36 200 62Q172 83 187 92Z" fill="#272b2b" />
</g></svg>