<svg xmlns="http://www.w3.org/2000/svg" viewBox="0 0 512 512">
<g transform="matrix(1 0 0 -1 0 512)">
<path d="M14 50H498V-21H14Z" fill="#c1694f" />
<path d="M512 -50Q512 -56 508.0 -60.0Q504 -64 498.0 -64.0Q492 -64 488.0 -60.0Q484 -56 484 -50V149Q484 155 488.0 159.5Q492 164 498.0 164.0Q504 164 508.0 159.5Q512 155 512 149ZM0 -50V263Q0 269 4.0 273.0Q8 277 14.0 277.0Q20 277 24.0 273.0Q28 269 28 263V-50Q28 -56 24.0 -60.0Q20 -64 14.0 -64.0Q8 -64 4.0 -60.0Q0 -56 0 -50Z" fill="#c1694f" />
<path d="M455 121Q467 121 475.5 112.5Q484 104 484 92V36H28V92Q28 104 36.5 112.5Q45 121 57 121Z" fill="#226699" />
<path d="M455 121Q467 121 475.5 112.5Q484 104 484 92V36H28V92Q28 104 36.5 112.5Q45 121 57 121Z" fill="#55acee" />
<path d="M43.5 140.5Q27 153 30.0 164.5Q33 176 53.0 179.5Q73 183 99.0 177.0Q125 171 141.0 158.5Q157 146 154.5 134.5Q152 123 131.5 119.0Q111 115 85.5 121.5Q60 128 43.5 140.5Z" fill="#5c913b" />
</g></svg>