<svg xmlns="http://www.w3.org/2000/svg" viewBox="0 0 512 512">
<g transform="matrix(1 0 0 -1 0 512)">
<path d="M441 367Q464 367 481.0 350.0Q498 333 498 310V82Q498 59 481.0 42.0Q464 25 441 25H356V82H412Q416 82 420.5 83.0Q425 84 433.0 91.0Q441 98 441 111V281Q441 294 434.0 301.0Q427 308 420 309L412 310H356V367Z" fill="#ffac33" />
<path d="M384 363V-7Q384 -31 367.5 -47.5Q351 -64 327 -64H100Q76 -64 59.5 -47.5Q43 -31 43 -7V363Z" fill="#ffcc4d" />
<path d="M107 7V235Q107 241 111.0 245.0Q115 249 121.0 249.0Q127 249 131.0 245.0Q135 241 135 235V7Q135 1 131.0 -3.0Q127 -7 121.0 -7.0Q115 -7 111.0 -3.0Q107 1 107 7ZM199 7V235Q199 241 203.0 245.0Q207 249 213.0 249.0Q219 249 223.5 245.0Q228 241 228 235V7Q228 1 223.5 -3.0Q219 -7 213.0 -7.0Q207 -7 203.0 -3.0Q199 1 199 7ZM292 7V235Q292 241 296.0 245.0Q300 249 306.0 249.0Q312 249 316.0 245.0Q320 241 320 235V7Q320 1 316.0 -3.0Q312 -7 306.0 -7.0Q300 -7 296.0 -3.0Q292 1 292 7Z" fill="#f4900c" />
<path d="M43 377H384V310Q369 295 348 295Q336 295 325 301L323 296Q313 277 292 277Q267 277 259 300Q241 277 213 277Q182 277 165 304Q157 292 142 292Q132 292 124 299Q117 283 103.0 273.0Q89 263 71 263Q56 263 43 271Z" fill="#ffac33" />
<path d="M341 448Q359 448 371.5 435.5Q384 423 384 405V363Q384 345 371.5 332.5Q359 320 341 320Q332 320 323 324Q313 306 292 306Q267 306 259 328Q241 306 213 306Q182 306 165 332Q157 320 142 320Q132 320 124 327Q117 311 103.0 301.5Q89 292 71 292Q48 292 31.0 308.5Q14 325 14 348V405Q14 423 26.5 435.5Q39 448 57 448Z" fill="#eeeeee" />
</g></svg>