<svg xmlns="http://www.w3.org/2000/svg" viewBox="0 0 2048 2048">
<g transform="matrix(1 0 0 -1 0 2048)">
<path d="M398 263Q398 220 405.5 188.5Q413 157 423.5 140.5Q434 124 444.5 111.0Q455 98 462.0 83.5Q469 69 469 50Q469 47 468.5 42.0Q468 37 461.0 29.0Q454 21 441 21H71Q58 21 51.0 28.5Q44 36 43 43V50Q43 69 50.0 83.5Q57 98 67.5 111.0Q78 124 88.5 140.5Q99 157 106.5 188.5Q114 220 114 263Q114 322 155.5 363.5Q197 405 256.0 405.0Q315 405 356.5 363.5Q398 322 398 263Z" fill="#ffac33" />
<path d="M225.5 375.5Q213 388 213.0 405.5Q213 423 225.5 435.5Q238 448 256.0 448.0Q274 448 286.5 435.5Q299 423 299.0 405.5Q299 388 286.5 375.5Q274 363 256.0 363.0Q238 363 225.5 375.5ZM199 -7H313Q313 -31 296.5 -47.5Q280 -64 256.0 -64.0Q232 -64 215.5 -47.5Q199 -31 199 -7Z" fill="#ffac33" />
</g></svg>