<svg xmlns="http://www.w3.org/2000/svg" viewBox="0 0 512 512">
<g transform="matrix(1 0 0 -1 0 512)">
<path d="M100 107Q84 107 70 100L46 152Q71 164 98 164Q135 164 166.0 144.0Q197 124 212 92L163 67Q154 85 137.0 96.0Q120 107 100 107ZM412 107Q392 107 374.5 95.5Q357 84 348 66L296 90Q312 123 343.0 143.5Q374 164 411 164Q468 164 506 121L465 83Q444 107 412 107Z" fill="#ea596e" />
<path d="M29.0 106.0Q58 135 99.5 135.0Q141 135 170.0 106.0Q199 77 199.0 35.5Q199 -6 170.0 -35.0Q141 -64 99.5 -64.0Q58 -64 29.0 -35.0Q0 -6 0.0 35.5Q0 77 29.0 106.0ZM49.0 -15.0Q70 -36 99.5 -36.0Q129 -36 150.0 -15.0Q171 6 171.0 35.5Q171 65 150.0 86.0Q129 107 99.5 107.0Q70 107 49.0 86.0Q28 65 28.0 35.5Q28 6 49.0 -15.0ZM342.0 106.0Q371 135 412.5 135.0Q454 135 483.0 106.0Q512 77 512.0 35.5Q512 -6 483.0 -35.0Q454 -64 412.5 -64.0Q371 -64 342.0 -35.0Q313 -6 313.0 35.5Q313 77 342.0 106.0ZM362.0 -15.0Q383 -36 412.5 -36.0Q442 -36 463.0 -15.0Q484 6 484.0 35.5Q484 65 463.0 86.0Q442 107 412.5 107.0Q383 107 362.0 86.0Q341 65 341.0 35.5Q341 6 362.0 -15.0Z" fill="#292f33" />
<path d="M426 37Q426 36 427 36Q427 35 426.5 34.5Q426 34 426 34Q426 33 425.5 31.5Q425 30 424.5 29.0Q424 28 423.0 27.0Q422 26 421 25Q421 24 420.5 24.0Q420 24 420.0 23.5Q420 23 419 23Q418 23 417 22Q415 21 412 21H256Q250 21 246.0 25.5Q242 30 242.0 35.5Q242 41 246.0 45.5Q250 50 256 50H387L314 164Q314 164 313 164H171Q165 164 160.5 168.0Q156 172 156.0 178.0Q156 184 160.5 188.0Q165 192 171 192H299Q299 200 305 204Q317 212 325 200L424 43Q425 43 425.0 42.5Q425 42 425 42Q425 41 425.5 39.5Q426 38 426 37Z" fill="#dd2e44" />
<path d="M307 220H337L269 31Q266 21 256 21Q254 21 251 22Q238 27 243 40L255 74L160 183Q151 193 161.5 202.5Q172 212 181 201L266 105Z" fill="#dd2e44" />
<path d="M100 21Q96 21 93 23Q80 29 87 42L130 129Q156 172 156 206Q156 227 147.0 241.5Q138 256 132.5 259.5Q127 263 124 264Q110 268 114.5 281.5Q119 295 133 291Q135 290 139.0 288.0Q143 286 152.0 279.5Q161 273 167.5 264.5Q174 256 179.5 240.5Q185 225 185 206Q185 161 155 114L112 29Q108 21 100 21Z" fill="#dd2e44" />
<path d="M208 254Q207 254 205 254L120 268Q114 269 110.5 274.0Q107 279 108.0 284.5Q109 290 114.0 293.5Q119 297 125 296L210 282Q216 281 219.5 276.0Q223 271 222 266Q220 254 208 254ZM375 206Q375 206 374 206L293 216Q284 218 284.5 227.0Q285 236 295 236Q352 236 380 255Q386 259 391.5 254.5Q397 250 395 243L385 213Q383 206 375 206Z" fill="#292f33" />
<path d="M276.0 55.5Q284 47 284.0 35.5Q284 24 276.0 15.5Q268 7 256.0 7.0Q244 7 236.0 15.5Q228 24 228.0 35.5Q228 47 236.0 55.5Q244 64 256.0 64.0Q268 64 276.0 55.5Z" fill="#66757f" />
</g></svg>