<svg xmlns="http://www.w3.org/2000/svg" viewBox="0 0 512 512">
<g transform="matrix(1 0 0 -1 0 512)">
<path d="M75.0 11.0Q0 86 0.0 192.0Q0 298 75.0 373.0Q150 448 256.0 448.0Q362 448 437.0 373.0Q512 298 512.0 192.0Q512 86 437.0 11.0Q362 -64 256.0 -64.0Q150 -64 75.0 11.0Z" fill="#31373d" />
<path d="M165.5 101.5Q128 139 128.0 192.0Q128 245 165.5 282.5Q203 320 256.0 320.0Q309 320 346.5 282.5Q384 245 384.0 192.0Q384 139 346.5 101.5Q309 64 256.0 64.0Q203 64 165.5 101.5Z" fill="#e1e8ed" />
<path d="M195 161Q195 189 222 204Q203 218 203 240Q203 261 218.5 274.5Q234 288 257 288Q279 288 295.0 274.5Q311 261 311 240Q311 216 292 204Q318 191 318 161Q318 135 300.0 119.5Q282 104 257 104Q230 104 212.5 120.0Q195 136 195 161ZM234 163Q234 153 240.0 145.5Q246 138 257 138Q267 138 273.0 145.5Q279 153 279 163Q279 188 257 188Q246 188 240.0 181.0Q234 174 234 163ZM257 217Q275 217 275.0 236.0Q275 255 257 255Q239 255 239.0 236.0Q239 217 257 217Z" fill="#31373d" />
</g></svg>