<svg xmlns="http://www.w3.org/2000/svg" viewBox="0 0 512 512">
<g transform="matrix(1 0 0 -1 0 512)">
<path d="M85.0 21.0Q14 92 14.0 192.0Q14 292 85.0 363.0Q156 434 256.0 434.0Q356 434 427.0 363.0Q498 292 498.0 192.0Q498 92 427.0 21.0Q356 -50 256.0 -50.0Q156 -50 85.0 21.0Z" fill="#f4900c" />
<path d="M183 191Q185 151 219 132Q219 127 218 124Q218 123 217.5 122.0Q217 121 217 121Q215 116 213 111Q213 111 211 108Q187 120 172.5 143.0Q158 166 158 193Q158 193 159.5 193.5Q161 194 161 194Q165 194 165 194Q174 194 183 191ZM203 277Q227 292 255 292Q284 292 308 277Q305 269 299 261Q298 260 294 256Q276 268 255 268Q234 268 216 256Q207 265 203 277ZM291 131Q326 151 328 191Q337 194 346 194Q349 194 353 193Q353 166 338.5 143.0Q324 120 299 107Q299 108 299 108Q292 119 291 131Z" fill="#ffffff" />
<path d="M347 64Q381 64 403 89L406 87Q378 52 335 47Q329 47 323 47Q322 47 321.0 47.0Q320 47 320 47Q313 47 306 48Q306 48 305.0 48.0Q304 48 304 48Q298 49 291 52Q287 53 285 53Q280 56 274 58Q272 60 268 62Q266 64 262 66Q258 69 257.5 69.5Q257 70 256 70Q255 70 255 69Q233 53 208 48Q207 48 205 48Q198 47 191 47Q191 47 190.0 47.0Q189 47 189 47Q188 47 185 47Q184 47 183 47Q173 47 164 50Q129 58 106 87L108 89Q131 64 164 64Q195 64 217.0 85.5Q239 107 239 138Q239 156 230 172L240 177Q246 169 256.0 169.0Q266 169 273 177L281 172Q273 156 273 138Q273 107 294.5 85.5Q316 64 347 64ZM164 212Q134 212 112.0 190.0Q90 168 90 138Q90 125 94 113L91 112Q88 121 88 122Q77 161 94.5 197.5Q112 234 150 250Q152 250 152 253Q145 301 177 337Q188 350 208.5 360.5Q229 371 242 372V369Q216 364 199.0 343.5Q182 323 182 296Q182 266 202.5 244.5Q223 223 252 222V212Q245 210 240.0 204.0Q235 198 235 190Q235 187 236 184Q236 183 235 182Q235 182 227 178H226Q204 212 164 212ZM427 168Q432 141 421 114Q421 114 420 112Q420 112 417 114Q421 125 421 138Q421 168 399.5 190.0Q378 212 347 212Q307 212 285 178Q279 181 277 183H276Q278 187 278 190Q278 198 272.5 204.0Q267 210 260 212V222Q289 223 309.5 244.5Q330 266 330 296Q330 323 313.0 343.5Q296 364 270 369V372Q287 370 304 361Q308 359 314 355Q314 355 314.5 354.5Q315 354 316 354Q320 351 325 347L326 346Q331 341 335 337Q355 314 360 286Q363 269 360 252Q360 250 362 250Q416 226 427 168Z" fill="#ffffff" />
</g></svg>