<svg xmlns="http://www.w3.org/2000/svg" viewBox="0 0 2048 2048">
<g transform="matrix(1 0 0 -1 0 2048)">
<path d="M127 265Q126 257 131.5 244.0Q137 231 135.0 226.5Q133 222 117 223Q90 225 47.5 243.5Q5 262 6 273Q7 284 38.0 297.5Q69 311 94 310Q111 309 119.0 302.5Q127 296 127.0 286.5Q127 277 127 265ZM413 37Q419 36 422.5 31.0Q426 26 425 20L418 -22Q417 -28 412.5 -31.5Q408 -35 402.0 -34.0Q396 -33 392.5 -28.0Q389 -23 390 -17L391 -14L381 -26Q372 -38 361.0 -29.0Q350 -20 358 -9L376 14Q342 39 339 59L336 79Q342 83 345.0 81.0Q348 79 352.5 71.5Q357 64 359 62Q361 59 364.0 54.0Q367 49 378.5 41.5Q390 34 405 35Q409 37 413 37ZM324 28Q329 26 332.0 21.0Q335 16 333 10L321 -31Q319 -37 314.0 -39.5Q309 -42 303 -40Q290 -36 294 -23L295 -19L284 -30Q273 -40 263.0 -30.0Q253 -20 263 -10L284 10Q280 13 275.0 18.5Q270 24 262.0 37.5Q254 51 254 60V80Q260 83 262.5 80.5Q265 78 268.5 70.0Q272 62 274 60Q275 57 277.0 51.5Q279 46 290.0 37.0Q301 28 316 27Q320 29 324 28Z" fill="#ffac33" />
<path d="M498 352Q506 348 506 338Q497 207 409 145Q365 113 322 108Q321 108 309.0 151.0Q297 194 285.5 236.5Q274 279 276 279Q305 273 332.0 276.5Q359 280 378.5 283.5Q398 287 415.5 296.5Q433 306 444.0 312.5Q455 319 464.5 328.5Q474 338 477.0 341.5Q480 345 483 348V349Q490 356 498 352Z" fill="#dd2e44" />
<path d="M490 148Q495 140 490 132Q487 127 481.0 120.0Q475 113 456.0 97.0Q437 81 416.0 69.0Q395 57 361.0 48.5Q327 40 290 43Q288 43 284.0 85.0Q280 127 278.5 168.0Q277 209 278 207Q332 153 412 148Q440 146 476 154Q485 156 490 148Z" fill="#dd2e44" />
<path d="M350 178Q348 154 349.0 133.0Q350 112 349.0 94.5Q348 77 343.5 65.0Q339 53 326.0 47.0Q313 41 290 43Q230 47 188.5 90.0Q147 133 151 191Q153 213 174.0 227.0Q195 241 224.5 242.5Q254 244 283.0 238.5Q312 233 331.5 216.5Q351 200 350 178Z" fill="#dd2e44" />
<path d="M331 271Q327 214 291.0 177.5Q255 141 201 145Q145 149 108.0 191.0Q71 233 75 289Q79 344 120.0 376.0Q161 408 218 404Q262 401 298.0 360.5Q334 320 331 271Z" fill="#dd2e44" />
<path d="M131.5 300.0Q123 308 123.0 320.0Q123 332 131.5 340.5Q140 349 152.0 349.0Q164 349 172.0 340.5Q180 332 180.0 320.0Q180 308 172.0 300.0Q164 292 152.0 292.0Q140 292 131.5 300.0Z" fill="#292f33" />
<path d="M259 211Q261 210 265.0 207.0Q269 204 281.5 198.5Q294 193 306.5 190.5Q319 188 336.5 189.5Q354 191 370.0 199.0Q386 207 403.5 226.0Q421 245 435 275Q439 284 444 272Q454 253 436 215Q428 197 407.5 182.0Q387 167 363.0 160.0Q339 153 311.5 161.0Q284 169 265 194Q260 200 258.5 204.5Q257 209 258 210Z" fill="#a0041e" />
<path d="M218 404Q307 400 329 411Q339 415 338 406Q336 388 310 369Q297 360 282 357Q261 351 245.0 363.0Q229 375 223 389Z" fill="#dd2e44" />
<path d="M248 366Q312 364 334 374Q344 379 343 370Q341 351 315 333Q302 324 288 320Q266 315 256.0 326.5Q246 338 247 352Z" fill="#dd2e44" />
</g></svg>