<svg xmlns="http://www.w3.org/2000/svg" viewBox="0 0 2048 2048">
<g transform="matrix(1 0 0 -1 0 2048)">
<path d="M75.0 -22.5Q0 19 0.0 78.0Q0 137 75.0 178.5Q150 220 256.0 220.0Q362 220 437.0 178.5Q512 137 512.0 78.0Q512 19 437.0 -22.5Q362 -64 256.0 -64.0Q150 -64 75.0 -22.5Z" fill="#8899a6" />
<path d="M75.0 2.5Q0 44 0.0 103.0Q0 162 75.0 203.5Q150 245 256.0 245.0Q362 245 437.0 203.5Q512 162 512.0 103.0Q512 44 437.0 2.5Q362 -39 256.0 -39.0Q150 -39 75.0 2.5Z" fill="#ccd6dd" />
<path d="M403.5 189.0Q465 157 465.0 111.5Q465 66 403.5 33.5Q342 1 256.0 1.0Q170 1 108.5 33.5Q47 66 47.0 111.5Q47 157 108.5 189.0Q170 221 256.0 221.0Q342 221 403.5 189.0Z" fill="#dd2e44" />
<path d="M458 127Q458 99 436.0 76.0Q414 53 378.0 41.5Q342 30 299.0 24.5Q256 19 213.0 24.5Q170 30 134.0 41.5Q98 53 76.0 76.0Q54 99 54 127V252H458Z" fill="#f4abba" />
<path d="M450 242 458 248Q459 232 459 221Q459 218 458.5 213.5Q458 209 456.0 197.5Q454 186 450.5 177.5Q447 169 439.5 162.0Q432 155 422 155Q407 155 398.0 150.0Q389 145 386.0 139.0Q383 133 378.0 127.0Q373 121 366 119Q358 116 345.0 123.5Q332 131 318 131Q305 131 289.0 116.0Q273 101 256 101Q242 101 226.0 116.0Q210 131 196.0 131.0Q182 131 168.5 123.5Q155 116 144 118Q136 119 129.5 128.5Q123 138 114.0 146.5Q105 155 90 155Q74 155 65.0 172.5Q56 190 54 207L53 224L54 248Q57 246 62.5 242.0Q68 238 88.0 228.0Q108 218 129.5 210.0Q151 202 185.5 196.0Q220 190 256.0 190.0Q292 190 326.0 196.0Q360 202 383.0 210.5Q406 219 423.5 227.5Q441 236 450 242Z" fill="#dd2e44" />
<path d="M403.5 344.5Q465 312 465.0 266.5Q465 221 403.5 189.0Q342 157 256.0 157.0Q170 157 108.5 189.0Q47 221 47.0 266.5Q47 312 108.5 344.5Q170 377 256.0 377.0Q342 377 403.5 344.5Z" fill="#ea596e" />
<path d="M349 268V377Q349 383 354.0 387.5Q359 392 365.0 392.0Q371 392 376.0 387.5Q381 383 381 377V268Q381 261 376.0 256.5Q371 252 365.0 252.0Q359 252 354.0 256.5Q349 261 349 268ZM240 221V330Q240 336 245.0 340.5Q250 345 256.0 345.0Q262 345 267.0 340.5Q272 336 272 330V221Q272 214 267.0 209.5Q262 205 256.0 205.0Q250 205 245.0 209.5Q240 214 240 221ZM131 268V377Q131 383 136.0 387.5Q141 392 147.0 392.0Q153 392 158.0 387.5Q163 383 163 377V268Q163 261 158.0 256.5Q153 252 147.0 252.0Q141 252 136.0 256.5Q131 261 131 268Z" fill="#fff8e8" />
<path d="M330 373Q318 403 359 444Q365 450 371 444Q412 403 400 373Q391 353 365.0 353.0Q339 353 330 373ZM221 327Q209 356 250 398Q256 403 262 398Q303 356 291 327Q282 306 256.0 306.0Q230 306 221 327ZM112 373Q100 403 141 444Q147 450 153 444Q194 403 182 373Q173 353 147.0 353.0Q121 353 112 373Z" fill="#faaa35" />
</g></svg>