<svg xmlns="http://www.w3.org/2000/svg" viewBox="0 0 2048 2048">
<g transform="matrix(1 0 0 -1 0 2048)">
<path d="M455 -17 500 -62 398 -50 299 78 370 149 498 50 510 -52 465 -7Q469 0 469 7Q469 19 461.0 27.5Q453 36 441.0 36.0Q429 36 420.5 27.5Q412 19 412.0 7.0Q412 -5 420.5 -13.0Q429 -21 441 -21Q448 -21 455 -17Z" fill="#99aab5" />
<path d="M194 373Q206 360 206.0 343.0Q206 326 194 313L135 254Q122 242 105.0 242.0Q88 242 76 254L16 313Q4 326 4.0 343.0Q4 360 16 373L75 432Q88 444 105.0 444.0Q122 444 135 432Z" fill="#66757f" />
<path d="M379 188Q391 175 391.0 158.0Q391 141 379 128L320 69Q307 57 290.0 57.0Q273 57 260 69L16 314L134 432Z" fill="#31373d" />
<path d="M117 212 236 331 266 301 147 182Z" fill="#66757f" />
</g></svg>