<svg xmlns="http://www.w3.org/2000/svg" viewBox="0 0 2048 2048">
<g transform="matrix(1 0 0 -1 0 2048)">
<path d="M239 296Q245 282 232.5 268.5Q220 255 204 249L188 242Q188 244 187.0 248.0Q186 252 179.0 259.0Q172 266 160 269Q156 267 155 267Q123 252 88.5 267.0Q54 282 38.0 317.5Q22 353 33.5 389.0Q45 425 78 439Q108 453 141.0 440.5Q174 428 191 396L192 394Q194 390 195 388Q195 388 195.5 387.0Q196 386 196 385Q202 371 217.0 341.5Q232 312 239 296ZM65.5 377.0Q59 355 69.5 332.0Q80 309 101.0 299.0Q122 289 141.5 298.0Q161 307 167.5 329.0Q174 351 163.5 374.0Q153 397 132.0 407.0Q111 417 91.5 408.0Q72 399 65.5 377.0Z" fill="#dd2e44" />
<path d="M384 -48 188 242Q194 258 210.0 275.0Q226 292 238 298L405 4Q412 -8 404.5 -24.0Q397 -40 384 -48Z" fill="#99aab5" />
<path d="M434 439Q467 425 478.5 389.0Q490 353 474.0 317.5Q458 282 423.5 267.0Q389 252 357 267Q356 267 352 269Q340 266 333.0 259.5Q326 253 325 247L324 242Q323 243 320.5 243.5Q318 244 311.5 247.0Q305 250 299.5 253.0Q294 256 287.0 261.0Q280 266 277.0 271.0Q274 276 271.5 283.0Q269 290 273 296Q280 312 295.0 341.5Q310 371 316 385Q316 386 316.5 387.0Q317 388 317 388Q318 390 320 394L321 396Q338 428 371.0 440.5Q404 453 434 439ZM411.0 299.0Q432 309 442.5 332.0Q453 355 446.5 377.0Q440 399 420.5 408.0Q401 417 380.0 407.0Q359 397 348.5 374.0Q338 351 344.5 329.0Q351 307 370.5 298.0Q390 289 411.0 299.0Z" fill="#dd2e44" />
<path d="M128 -48Q115 -40 107.5 -24.0Q100 -8 107 4L274 298Q286 292 302.0 275.0Q318 258 324 242Z" fill="#ccd6dd" />
<path d="M271.5 216.5Q278 210 278.0 200.5Q278 191 271.5 184.5Q265 178 256.0 178.0Q247 178 240.5 184.5Q234 191 234.0 200.5Q234 210 240.5 216.5Q247 223 256.0 223.0Q265 223 271.5 216.5Z" fill="#99aab5" />
</g></svg>