<svg xmlns="http://www.w3.org/2000/svg" viewBox="0 0 2048 2048">
<g transform="matrix(1 0 0 -1 0 2048)">
<path d="M199 107V164Q199 181 211.5 193.5Q224 206 242 206Q247 206 259.0 209.5Q271 213 287.5 220.0Q304 227 315.5 242.5Q327 258 327 277Q327 300 307.0 317.0Q287 334 256 334Q232 334 215.5 319.0Q199 304 199 292Q199 274 186.5 261.5Q174 249 156.5 249.0Q139 249 126.5 261.5Q114 274 114 292Q114 344 156.0 382.0Q198 420 256 420Q297 420 328.5 405.5Q360 391 377.5 367.5Q395 344 403.5 317.5Q412 291 412 263Q412 219 388.5 186.0Q365 153 321 136Q304 130 284 126V107Q284 89 271.5 76.5Q259 64 241.5 64.0Q224 64 211.5 76.5Q199 89 199 107ZM211.5 -37.5Q199 -25 199.0 -7.0Q199 11 211.5 23.5Q224 36 241.5 36.0Q259 36 271.5 23.5Q284 11 284.0 -7.0Q284 -25 271.5 -37.5Q259 -50 241.5 -50.0Q224 -50 211.5 -37.5Z" fill="#be1931" />
</g></svg>