<svg xmlns="http://www.w3.org/2000/svg" viewBox="0 0 512 512">
<g transform="matrix(1 0 0 -1 0 512)">
<path d="M115 434Q124 433 139.0 430.0Q154 427 187.0 412.5Q220 398 237 376Q257 350 260.0 321.5Q263 293 256 278L249 263Q241 263 229.0 265.5Q217 268 190.0 279.0Q163 290 149 308Q129 333 120.5 364.5Q112 396 113 415Z" fill="#5c913b" />
<path d="M311 434Q313 426 314.5 414.0Q316 402 312.5 374.0Q309 346 297 328Q283 306 262.5 297.0Q242 288 229 290L216 291Q205 345 226 378Q240 400 261.5 413.5Q283 427 297 431Z" fill="#77b255" />
<path d="M268.0 223.0Q239 248 239.0 283.5Q239 319 268.0 344.5Q297 370 337.5 370.0Q378 370 407.0 344.5Q436 319 436.0 283.5Q436 248 407.0 223.0Q378 198 337.5 198.0Q297 198 268.0 223.0Z" fill="#5864b7" />
<path d="M275 206Q275 224 270 240Q298 249 327 249Q376 249 413 227Q386 192 331 192Q299 192 275 205Q275 206 275 206Z" fill="#334372" />
<path d="M309 213Q309 208 309 201Q277 208 258.0 229.5Q239 251 239 284Q239 300 244 314Q274 300 291.5 274.0Q309 248 309 213Z" fill="#334372" />
<path d="M65.5 131.5Q28 165 28.0 212.5Q28 260 65.5 293.5Q103 327 155.0 327.0Q207 327 244.0 293.5Q281 260 281.0 212.5Q281 165 244.0 131.5Q207 98 155.0 98.0Q103 98 65.5 131.5Z" fill="#5864b7" />
<path d="M155 105Q155 160 189.5 196.0Q224 232 278 239Q281 226 281 213Q281 161 245.0 129.5Q209 98 155 98Q155 99 155.0 101.5Q155 104 155 105Z" fill="#334372" />
<path d="M258.0 107.0Q244 103 231.0 110.5Q218 118 214.5 132.5Q211 147 218.5 160.0Q226 173 240.0 176.5Q254 180 267.0 173.0Q280 166 283.5 151.5Q287 137 279.5 124.0Q272 111 258.0 107.0Z" fill="#aa8dd8" />
<path d="M213.0 -5.0Q169 35 169.0 91.0Q169 147 213.0 187.0Q257 227 319.0 227.0Q381 227 425.0 187.0Q469 147 469.0 91.0Q469 35 425.0 -5.0Q381 -45 319.0 -45.0Q257 -45 213.0 -5.0Z" fill="#5864b7" />
<path d="M242 167Q248 177 262.5 179.5Q277 182 283 187Q288 189 296.5 199.0Q305 209 313 209Q321 209 332.0 202.0Q343 195 344 194Q351 192 365.5 191.5Q380 191 388 183Q394 174 391.5 169.5Q389 165 382.5 157.0Q376 149 375 145Q374 140 377.0 132.5Q380 125 381.5 122.0Q383 119 378 114Q368 109 354.0 115.5Q340 122 327 121Q318 120 303.5 111.0Q289 102 279 106Q271 108 272.0 115.0Q273 122 276.5 129.0Q280 136 274 142Q269 148 259.0 152.0Q249 156 244.0 159.0Q239 162 242 167ZM88 281Q91 289 100.5 291.0Q110 293 115 297Q118 300 124.0 308.5Q130 317 137 318Q143 319 152.0 314.0Q161 309 162 309Q169 307 182.5 307.0Q196 307 199 304Q204 298 204.0 295.0Q204 292 200.0 286.0Q196 280 196 277Q196 272 198.0 265.5Q200 259 200.5 256.0Q201 253 196 249Q193 243 178.0 246.0Q163 249 153 247Q146 246 137.0 240.0Q128 234 119.5 236.0Q111 238 111.5 248.0Q112 258 107 263Q103 267 96.5 269.5Q90 272 88.0 274.0Q86 276 88 281ZM347 353Q353 355 359.5 351.0Q366 347 371 346Q374 346 383.5 347.0Q393 348 394 345Q398 341 400.0 333.5Q402 326 403 325Q405 320 411.5 313.0Q418 306 419 302Q420 296 417.0 294.0Q414 292 409.0 291.0Q404 290 402 289Q399 287 397.0 282.5Q395 278 392.5 275.5Q390 273 386 274Q380 275 374.5 284.0Q369 293 362 298Q358 301 349.5 303.0Q341 305 338.0 311.0Q335 317 341.0 322.5Q347 328 347 332Q347 337 345.0 342.0Q343 347 343.0 349.5Q343 352 347 353Z" fill="#334372" />
<path d="M284.5 137.0Q269 147 269.0 161.0Q269 175 284.5 185.0Q300 195 322.5 195.0Q345 195 360.5 185.0Q376 175 376.0 161.0Q376 147 360.5 137.0Q345 127 322.5 127.0Q300 127 284.5 137.0ZM120.5 260.5Q109 268 109.0 278.5Q109 289 120.5 296.5Q132 304 148.5 304.0Q165 304 177.0 296.5Q189 289 189.0 278.5Q189 268 177.0 260.5Q165 253 148.5 253.0Q132 253 120.5 260.5Z" fill="#253356" />
<path d="M383.0 292.0Q373 295 365.5 304.0Q358 313 356.5 323.0Q355 333 361.0 338.0Q367 343 376.5 340.0Q386 337 394.0 328.0Q402 319 403.0 309.0Q404 299 398.5 294.0Q393 289 383.0 292.0Z" fill="#253356" />
</g></svg>