<svg xmlns="http://www.w3.org/2000/svg" viewBox="0 0 512 512">
<g transform="matrix(1 0 0 -1 0 512)">
<path d="M433 312Q441 303 441.0 291.5Q441 280 432.5 271.5Q424 263 412.5 263.0Q401 263 392 271L337 217L209 345L264 399Q256 408 256.0 419.5Q256 431 264.5 439.5Q273 448 284.5 448.0Q296 448 305 440Z" fill="#e1e8ed" />
<path d="M284 448V320Q284 309 293.0 300.5Q302 292 313 292H441V-7Q441 -31 424.5 -47.5Q408 -64 384 -64H71Q48 -64 31.0 -47.5Q14 -31 14 -7V391Q14 415 31.0 431.5Q48 448 71 448Z" fill="#ccd6dd" />
<path d="M284 448V320Q284 309 293.0 300.5Q302 292 313 292H441V263H313Q289 263 272.5 279.5Q256 296 256 320V448ZM199 320H85Q79 320 75.0 324.0Q71 328 71.0 334.0Q71 340 75.0 344.0Q79 348 85 348H199Q205 348 209.0 344.0Q213 340 213.0 334.0Q213 328 209.0 324.0Q205 320 199 320ZM199 263H85Q79 263 75.0 267.0Q71 271 71.0 277.0Q71 283 75.0 287.5Q79 292 85 292H199Q205 292 209.0 287.5Q213 283 213.0 277.0Q213 271 209.0 267.0Q205 263 199 263ZM370 206H85Q79 206 75.0 210.5Q71 215 71.0 220.5Q71 226 75.0 230.5Q79 235 85 235H370Q376 235 380.0 230.5Q384 226 384.0 220.5Q384 215 380.0 210.5Q376 206 370 206ZM370 149H85Q79 149 75.0 153.5Q71 158 71.0 163.5Q71 169 75.0 173.5Q79 178 85 178H370Q376 178 380.0 173.5Q384 169 384.0 163.5Q384 158 380.0 153.5Q376 149 370 149ZM370 92H85Q79 92 75.0 96.5Q71 101 71.0 107.0Q71 113 75.0 117.0Q79 121 85 121H370Q376 121 380.0 117.0Q384 113 384.0 107.0Q384 101 380.0 96.5Q376 92 370 92ZM370 36H85Q79 36 75.0 40.0Q71 44 71.0 50.0Q71 56 75.0 60.0Q79 64 85 64H370Q376 64 380.0 60.0Q384 56 384.0 50.0Q384 44 380.0 40.0Q376 36 370 36Z" fill="#99aab5" />
<path d="M441 178V36H356Q346 36 339 44L306 86Q299 94 299.0 106.5Q299 119 306 128L339 169Q346 178 356 178Z" fill="#66757f" />
<path d="M469 178Q481 178 489.5 169.5Q498 161 498 149V92Q498 81 489.5 72.5Q481 64 469 64Q355 64 354 64Q343 64 337 71L303 104Q297 111 297.0 121.0Q297 131 303 138L337 171Q343 178 354 178Z" fill="#744eaa" />
</g></svg>