<svg xmlns="http://www.w3.org/2000/svg" viewBox="0 0 512 512">
<g transform="matrix(1 0 0 -1 0 512)">
<path d="M448 362Q448 364 447.5 368.0Q447 372 442.5 382.5Q438 393 429.0 400.5Q420 408 400.0 413.0Q380 418 353 416Q292 412 230.0 375.5Q168 339 127.0 283.0Q86 227 83 172Q81 114 146 137Q200 158 242 200L267 185Q296 163 309 135Q274 106 228.0 86.0Q182 66 144 63Q78 57 51.5 90.0Q25 123 36 193Q43 235 71.0 278.5Q99 322 140.5 357.0Q182 392 237.5 414.0Q293 436 350 437Q383 437 405.5 429.5Q428 422 436.0 411.0Q444 400 447.5 388.5Q451 377 449 370Z" fill="#ccd6dd" />
<path d="M458 -12Q454 -33 443.0 -41.0Q432 -49 423.0 -44.5Q414 -40 411 -29Q411 -27 405.5 -2.0Q400 23 398.0 31.0Q396 39 390.0 63.0Q384 87 380.5 98.5Q377 110 371.5 131.0Q366 152 361.0 163.5Q356 175 350.0 189.5Q344 204 337.5 213.0Q331 222 324.5 227.5Q318 233 308.5 237.5Q299 242 283.5 246.0Q268 250 256.0 253.0Q244 256 222.5 258.5Q201 261 189.0 262.5Q177 264 152.0 266.0Q127 268 118.5 268.5Q110 269 85.0 270.5Q60 272 58 272Q47 273 40.5 284.0Q34 295 37.0 308.5Q40 322 55.0 328.0Q70 334 139.0 339.5Q208 345 288.0 339.0Q368 333 395.0 310.0Q422 287 438.0 211.0Q454 135 457.5 70.0Q461 5 458 -12Z" fill="#662113" />
<path d="M458 -12Q451 -35 434.5 -34.0Q418 -33 414 -15Q414 -13 408.5 12.0Q403 37 401.0 45.0Q399 53 393.0 77.0Q387 101 384.0 112.5Q381 124 375.0 145.0Q369 166 364.0 177.5Q359 189 353.0 203.5Q347 218 340.5 227.0Q334 236 328.0 241.5Q322 247 312.0 251.5Q302 256 286.5 260.0Q271 264 259.0 267.0Q247 270 225.5 272.5Q204 275 192.0 276.5Q180 278 155.0 280.0Q130 282 121.5 282.5Q113 283 88.0 284.5Q63 286 61 286Q43 287 39.0 303.0Q35 319 57 330Q73 336 141.5 344.0Q210 352 291.0 349.5Q372 347 398 324Q419 307 433.5 254.0Q448 201 452.5 146.5Q457 92 459.5 44.0Q462 -4 458 -12Z" fill="#c1694f" />
<path d="M96 284 110 340Q135 343 163 346V279Q135 282 96 284ZM407 19Q398 57 391 85L457 95Q459 68 459 42Z" fill="#ffcc4d" />
</g></svg>