<svg xmlns="http://www.w3.org/2000/svg" viewBox="0 0 2048 2048">
<g transform="matrix(1 0 0 -1 0 2048)">
<path d="M87.0 42.0Q81 48 81.0 57.0Q81 66 87.0 72.0Q93 78 102.0 78.0Q111 78 117.5 72.0Q124 66 124.0 57.0Q124 48 117.5 42.0Q111 36 102.0 36.0Q93 36 87.0 42.0ZM137 260Q152 252 152 235Q152 223 143.5 214.5Q135 206 124 206Q122 206 119 207Q124 200 124 192Q124 179 114 171Q124 162 124 149Q124 138 115.5 129.5Q107 121 95 121Q95 121 94 121Q95 117 95 114Q95 105 89.0 98.5Q83 92 74.0 92.0Q65 92 58.5 98.5Q52 105 52 114Q52 122 57.5 128.0Q63 134 71 135Q67 142 67 149Q55 149 46.5 157.5Q38 166 38 178Q38 189 46 197Q38 204 38 213Q38 217 40 221Q39 221 39.0 220.5Q39 220 38 220Q26 220 18.0 228.5Q10 237 10.0 249.0Q10 261 18.0 269.0Q26 277 38 277Q38 277 39 277Q42 296 55.5 308.0Q69 320 88 320Q109 320 123.5 305.5Q138 291 138 270Q138 265 137 260Z" fill="#ccd6dd" />
<path d="M71.0 168.0Q67 172 67.0 178.0Q67 184 71.0 188.0Q75 192 81.0 192.0Q87 192 91.0 188.0Q95 184 95.0 178.0Q95 172 91.0 168.0Q87 164 81.0 164.0Q75 164 71.0 168.0ZM124 263Q124 245 107 237Q109 233 109 228Q109 219 103.0 212.5Q97 206 88 206Q72 206 68 222Q64 220 60 220Q51 220 44.5 226.5Q38 233 38.0 242.0Q38 251 44.5 257.0Q51 263 60 263Q63 263 67 262Q67 263 67 263Q67 275 75.0 283.5Q83 292 95.0 292.0Q107 292 115.5 283.5Q124 275 124 263Z" fill="#e4ebef" />
<path d="M104 404Q112 396 112.0 384.0Q112 372 104 364L94 354Q85 346 73.5 346.0Q62 346 54 354Q42 366 42 366Q27 361 18 370Q11 377 12.0 387.5Q13 398 22 406L52 436Q60 444 70.5 445.5Q81 447 88 440Q97 431 91 416Z" fill="#c1694f" />
<path d="M96 391 66 361Q62 358 56 352Q56 352 55.0 353.0Q54 354 54 354Q42 366 42 366Q48 369 54 374L84 404Q89 409 91 416L104 404Q104 404 106 402Q99 394 96 391Z" fill="#a95233" />
<path d="M496 110Q522 84 505 67L385 -53Q380 -58 375.0 -59.0Q370 -60 364.5 -57.0Q359 -54 356.0 -51.0Q353 -48 346 -41L273 31Q250 54 236.5 82.5Q223 111 207.5 156.0Q192 201 175 236L220 281Q246 270 285.0 256.0Q324 242 342.0 235.0Q360 228 383.0 214.0Q406 200 424 182Z" fill="#264612" />
<path d="M230 275Q233 274 236.5 271.5Q240 269 238.5 258.5Q237 248 223 233Q209 220 198.5 217.5Q188 215 185 219L181 224L132 273L182 323ZM404 162 464 102Q472 94 472.0 82.0Q472 70 464 62L393 -9Q385 -17 373.5 -17.0Q362 -17 353 -9L293 52Q285 60 285.0 72.0Q285 84 293 92L363 162Q372 171 383.5 171.0Q395 171 404 162Z" fill="#ffe8b6" />
<path d="M187 319Q198 309 197.5 306.0Q197 303 182 288L174 279Q155 260 151.0 259.0Q147 258 136 269L122 283L172 333Z" fill="#ffd983" />
<path d="M177 318 137 278Q131 272 122.0 272.0Q113 272 107.0 278.0Q101 284 101.0 293.0Q101 302 107 308L147 348Q153 355 162.0 355.0Q171 355 177.5 348.5Q184 342 183.5 333.0Q183 324 177 318Z" fill="#264612" />
</g></svg>