<svg xmlns="http://www.w3.org/2000/svg" viewBox="0 0 512 512">
<g transform="matrix(1 0 0 -1 0 512)">
<path d="M498 8Q509 -13 509.0 -25.5Q509 -38 503 -44L497 -49Q497 -50 495.5 -52.0Q494 -54 489.0 -57.0Q484 -60 478.0 -61.0Q472 -62 462.0 -59.5Q452 -57 441 -49Q421 -37 358 5Q356 6 350 10Q314 37 270.5 50.5Q227 64 191.5 64.5Q156 65 120.0 64.5Q84 64 61.5 61.5Q39 59 22 66Q15 72 19.5 85.0Q24 98 43.5 116.0Q63 134 87 145Q85 153 85 161Q23 157 8 164Q-7 171 17 201Q53 245 110 255Q114 256 118 256L146 302Q165 316 192 330Q198 388 244 428Q275 453 284 440Q290 425 286 363Q295 363 303 361Q314 385 332.0 404.5Q350 424 363.0 428.5Q376 433 382 426Q389 409 387.0 388.5Q385 368 384.0 334.5Q383 301 382.5 268.5Q382 236 392.5 195.5Q403 155 423 120Q433 105 449.0 81.5Q465 58 477.0 40.0Q489 22 498 8Z" fill="#3e721d" />
<path d="M498 -47Q498 -48 498.0 -48.5Q498 -49 497.5 -49.0Q497 -49 497.0 -49.0Q497 -49 496.5 -49.5Q496 -50 496.0 -50.5Q496 -51 495 -50Q481 -60 470 -48Q461 -42 445.0 -30.0Q429 -18 384.5 12.5Q340 43 299.5 67.5Q259 92 211.5 116.5Q164 141 133 148Q93 158 74.0 169.5Q55 181 61.0 189.0Q67 197 85.5 201.0Q104 205 139 201Q195 195 273 147L146 274Q140 280 140.0 288.0Q140 296 146.0 302.0Q152 308 160.0 308.0Q168 308 174 302L301 175Q253 253 247 308Q243 344 247.0 362.5Q251 381 258.5 387.0Q266 393 277.5 374.0Q289 355 299 315Q312 265 361.0 180.5Q410 96 453 37L496 -22Q507 -34 498 -47Z" fill="#77b255" />
<path d="M193 255Q160 222 113.5 268.5Q67 315 100 348Q121 368 149.0 369.0Q177 370 196.0 350.5Q215 331 214.5 303.0Q214 275 193 255Z" fill="#dd2e44" />
<path d="M179 334Q226 287 193 255Q173 234 145.0 233.5Q117 233 97 252Q89 261 85.0 276.5Q81 292 81.0 304.0Q81 316 82.5 336.5Q84 357 85 363Q86 394 134 368Q160 354 179 334Z" fill="#ea596e" />
<path d="M320 128Q287 95 240.5 141.5Q194 188 227 221Q247 241 275.0 242.0Q303 243 322.5 223.5Q342 204 341.0 176.0Q340 148 320 128Z" fill="#dd2e44" />
<path d="M306 207Q352 161 320 128Q299 108 271.0 107.0Q243 106 224 125Q215 134 211.0 150.0Q207 166 207.5 178.0Q208 190 209.5 210.5Q211 231 211 237Q212 268 261 241Q286 227 306 207Z" fill="#ea596e" />
<path d="M190 129Q169 87 108 114Q79 127 67.5 143.0Q56 159 68 183Q80 209 107.0 219.5Q134 230 159.5 219.0Q185 208 193.5 181.5Q202 155 190 129ZM321 256Q297 245 280.0 257.0Q263 269 249 299Q220 362 262 382Q288 394 315.0 384.0Q342 374 354.5 348.0Q367 322 357.0 295.0Q347 268 321 256Z" fill="#f4900c" />
<path d="M149 198Q178 185 189.5 169.0Q201 153 190 129Q177 103 150.0 92.5Q123 82 98 94Q86 99 77.0 112.0Q68 125 64.0 136.5Q60 148 54.5 167.5Q49 187 47 192Q40 213 70 215Q106 217 149 198ZM334 338Q363 275 321 256Q295 244 268.0 253.5Q241 263 228 290Q224 299 223.5 311.0Q223 323 226.5 336.0Q230 349 234.0 359.5Q238 370 244.0 383.5Q250 397 252 403Q263 433 301 389Q321 366 334 338Z" fill="#ffcc4d" />
</g></svg>