<svg xmlns="http://www.w3.org/2000/svg" viewBox="0 0 2048 2048">
<g transform="matrix(1 0 0 -1 0 2048)">
<path d="M0 235H455Q455 140 388.5 73.5Q322 7 227.5 7.0Q133 7 66.5 73.5Q0 140 0 235Z" fill="#a0041e" />
<path d="M66.0 145.0Q-1 182 -1.0 234.5Q-1 287 66.0 324.0Q133 361 227.5 361.0Q322 361 389.0 324.0Q456 287 456.0 234.5Q456 182 389.0 145.0Q322 108 227.5 108.0Q133 108 66.0 145.0Z" fill="#ea596e" />
<path d="M80.0 157.0Q19 189 19.0 234.5Q19 280 80.0 312.0Q141 344 227.5 344.0Q314 344 375.0 312.0Q436 280 436.0 234.5Q436 189 375.0 157.0Q314 125 227.5 125.0Q141 125 80.0 157.0Z" fill="#662113" />
<path d="M484 292Q448 292 384 249Q369 239 343.0 217.5Q317 196 298 180L279 164Q246 135 185 135Q138 135 104.5 154.0Q71 173 71.0 199.5Q71 226 104.5 244.5Q138 263 185 263Q229 263 262 246Q267 244 276.0 242.5Q285 241 313.0 248.5Q341 256 370 277Q408 306 439.0 320.0Q470 334 483.5 334.0Q497 334 502.5 323.5Q508 313 502.5 302.5Q497 292 484 292Z" fill="#99aab5" />
<path d="M134.5 152.5Q114 163 114.0 178.0Q114 193 134.5 203.0Q155 213 184.5 213.0Q214 213 235.0 203.0Q256 193 256.0 178.0Q256 163 235.0 152.5Q214 142 184.5 142.0Q155 142 134.5 152.5Z" fill="#ccd6dd" />
</g></svg>