<svg xmlns="http://www.w3.org/2000/svg" viewBox="0 0 512 512">
<g transform="matrix(1 0 0 -1 0 512)">
<path d="M279 443Q333 443 364.0 437.5Q395 432 416.5 414.0Q438 396 445.5 365.5Q453 335 453 282Q453 242 444.5 183.5Q436 125 436 91Q436 76 426.5 66.5Q417 57 395.5 53.5Q374 50 358.0 49.0Q342 48 313 48Q309 48 299 48Q261 48 240.5 49.0Q220 50 192.5 56.5Q165 63 152 76Q119 110 94.5 150.0Q70 190 59.5 229.5Q49 269 64.5 301.5Q80 334 123 347Q125 372 127.0 386.0Q129 400 136.5 412.5Q144 425 151.5 430.0Q159 435 179.5 438.5Q200 442 220.0 442.5Q240 443 279 443Z" fill="#be1931" />
<path d="M380 78Q406 78 423.5 67.5Q441 57 441 37V-13Q441 -35 423.0 -49.5Q405 -64 380 -64H213V78Z" fill="#99aab5" />
<path d="M318 78Q346 78 365.0 68.0Q384 58 384 37V-13Q384 -35 364.0 -49.5Q344 -64 318 -64H213Q188 -64 172.0 -49.5Q156 -35 156 -13V37Q156 78 213 78Z" fill="#ccd6dd" />
<path d="M61 292Q74 332 123 347Q123 219 138 176Q141 166 139 167Q130 169 111 220Q100 249 95 276Q92 289 88.0 295.0Q84 301 78.5 300.5Q73 300 69.5 298.0Q66 296 61 292Z" fill="#a0041e" />
<path d="M308 50Q321 50 331.0 44.0Q341 38 341 29V-18Q341 -36 308 -36H237Q213 -36 213 -18V29Q213 50 237 50Z" fill="#e1e8ed" />
</g></svg>