<svg xmlns="http://www.w3.org/2000/svg" viewBox="0 0 2048 2048">
<g transform="matrix(1 0 0 -1 0 2048)">
<path d="M512 256Q512 217 484 185V7Q484 -16 467.0 -33.0Q450 -50 427 -50H85Q62 -50 45.0 -33.0Q28 -16 28 7V185Q0 217 0 256Q0 304 41.5 339.0Q83 374 142 377H370Q429 374 470.5 339.0Q512 304 512 256Z" fill="#d99e82" />
<path d="M270 185H484V164H270Z" fill="#cc927a" />
<path d="M299 256Q299 222 270 197V21Q270 4 257.5 -8.5Q245 -21 228 -21H100Q82 -21 69.5 -8.5Q57 4 57 21V196Q28 222 28 256Q28 294 63.5 321.0Q99 348 149 348Q181 348 185 348Q233 346 266.0 319.5Q299 293 299 256Z" fill="#ffe8b6" />
</g></svg>