<svg xmlns="http://www.w3.org/2000/svg" viewBox="0 0 2048 2048">
<g transform="matrix(1 0 0 -1 0 2048)">
<path d="M507 294V156H506Q507 154 503.5 151.0Q500 148 491 143Q213 -4 193 -14Q179 -21 162 -13Q154 -9 87.0 27.0Q20 63 12 67Q5 71 5 74V212Z" fill="#c1694f" />
<path d="M5 212H178V-18Q171 -17 162 -13Q154 -9 87.0 27.0Q20 63 12 67Q5 71 5 74Z" fill="#a0041e" />
<path d="M316 381Q328 388 331.5 388.0Q335 388 348 382Q357 377 425.5 340.5Q494 304 497 302Q507 298 506.5 294.0Q506 290 491 282Q217 136 193 125Q179 118 162 126Q154 130 87.0 166.0Q20 202 12 206Q4 212 6.0 215.0Q8 218 23 226Z" fill="#d99e82" />
<path d="M122.0 185.0Q107 193 107.0 203.5Q107 214 122.0 222.0Q137 230 159.0 230.0Q181 230 196.0 222.0Q211 214 211.0 203.5Q211 193 196.0 185.0Q181 177 159.0 177.0Q137 177 122.0 185.0Z" fill="#c1694f" />
<path d="M166 210Q189 202 197 186Q182 177 159 177Q137 177 122.0 185.0Q107 193 107 204Q107 205 107 205Q115 213 132.0 214.5Q149 216 166 210Z" fill="#a0041e" />
<path d="M219.0 235.5Q204 243 204.0 254.0Q204 265 219.0 272.5Q234 280 256.0 280.0Q278 280 293.0 272.5Q308 265 308.0 254.0Q308 243 293.0 235.5Q278 228 256.0 228.0Q234 228 219.0 235.5Z" fill="#c1694f" />
<path d="M262 261Q286 253 294 236Q279 228 256 228Q234 228 219.0 235.5Q204 243 204 254Q204 254 204.0 254.5Q204 255 204 256Q212 263 229.0 264.5Q246 266 262 261Z" fill="#a0041e" />
<path d="M316.0 286.0Q301 294 301.0 304.5Q301 315 316.0 323.0Q331 331 353.0 331.0Q375 331 390.0 323.0Q405 315 405.0 304.5Q405 294 390.0 286.0Q375 278 353.0 278.0Q331 278 316.0 286.0Z" fill="#c1694f" />
<path d="M359 311Q383 303 391 287Q375 278 353 278Q331 278 316.0 286.0Q301 294 301 305Q301 306 301 306Q309 314 326.0 315.5Q343 317 359 311Z" fill="#a0041e" />
</g></svg>