<svg xmlns="http://www.w3.org/2000/svg" viewBox="0 0 2048 2048">
<g transform="matrix(1 0 0 -1 0 2048)">
<path d="M512 -7Q512 -31 495.5 -47.5Q479 -64 455 -64H57Q33 -64 16.5 -47.5Q0 -31 0 -7V391Q0 415 16.5 431.5Q33 448 57 448H455Q479 448 495.5 431.5Q512 415 512 391Z" fill="#004a77" />
<path d="M455 107V64H512V7H284V-64H228V7H0V64H57V107Q29 90 0 76V106Q23 118 47.5 134.0Q72 150 105.0 176.0Q138 202 170.0 239.5Q202 277 228 320Q228 323 228.5 328.0Q229 333 236.0 340.5Q243 348 256.0 348.0Q269 348 276.0 341.0Q283 334 284 327V320Q310 277 342.0 239.5Q374 202 407.0 176.0Q440 150 464.5 134.0Q489 118 512 106V76Q483 90 455 107ZM427 64V126Q397 146 370 170V64ZM85 126V64H142V170Q115 146 85 126ZM171 64H228V262Q202 227 171 196ZM284 262V64H341V196Q310 227 284 262Z" fill="#fe5011" />
<path d="M92 348Q98 348 105 351Q92 334 71 334Q53 334 40.5 346.5Q28 359 28.0 377.0Q28 395 40.5 407.5Q53 420 71 420Q76 420 82 418Q71 415 64.0 405.5Q57 396 57 384Q57 369 67.5 358.5Q78 348 92 348ZM149.0 405.0Q142 405 142.0 412.5Q142 420 149.0 420.0Q156 420 156.0 412.5Q156 405 149.0 405.0ZM377.0 277.0Q370 277 370.0 284.5Q370 292 377.0 292.0Q384 292 384.0 284.5Q384 277 377.0 277.0ZM107.0 277.0Q100 277 100.0 284.5Q100 292 107.0 292.0Q114 292 114.0 284.5Q114 277 107.0 277.0ZM303.0 367.0Q299 371 299.0 377.0Q299 383 303.0 387.0Q307 391 313.0 391.0Q319 391 323.0 387.0Q327 383 327.0 377.0Q327 371 323.0 367.0Q319 363 313.0 363.0Q307 363 303.0 367.0ZM47.0 196.0Q43 200 43.0 206.0Q43 212 47.0 216.0Q51 220 57.0 220.0Q63 220 67.0 216.0Q71 212 71.0 206.0Q71 200 67.0 196.0Q63 192 57.0 192.0Q51 192 47.0 196.0ZM160.5 338.5Q156 343 156.0 348.5Q156 354 160.5 358.5Q165 363 171.0 363.0Q177 363 181.0 358.5Q185 354 185.0 348.5Q185 343 181.0 338.5Q177 334 171.0 334.0Q165 334 160.5 338.5ZM445.0 196.0Q441 200 441.0 206.0Q441 212 445.0 216.0Q449 220 455.0 220.0Q461 220 465.0 216.0Q469 212 469.0 206.0Q469 200 465.0 196.0Q461 192 455.0 192.0Q449 192 445.0 196.0ZM377.0 363.0Q370 363 370.0 370.0Q370 377 377.0 377.0Q384 377 384.0 370.0Q384 363 377.0 363.0ZM431.0 395.0Q427 399 427.0 405.0Q427 411 431.0 415.5Q435 420 441.0 420.0Q447 420 451.0 415.5Q455 411 455.0 405.0Q455 399 451.0 395.0Q447 391 441.0 391.0Q435 391 431.0 395.0ZM448.0 334.0Q441 334 441.0 341.0Q441 348 448.0 348.0Q455 348 455.0 341.0Q455 334 448.0 334.0Z" fill="#ffffff" />
</g></svg>