<svg xmlns="http://www.w3.org/2000/svg" viewBox="0 0 512 512">
<g transform="matrix(1 0 0 -1 0 512)">
<path d="M402 327V164Q402 160 398 160H391Q388 160 388 164V327Q388 331 391 331H398Q402 331 402 327Z" fill="#66757f" />
<path d="M379.5 152.0Q373 158 373.0 167.0Q373 176 379.5 182.0Q386 188 395.0 188.0Q404 188 410.0 182.0Q416 176 416.0 167.0Q416 158 410.0 152.0Q404 146 395.0 146.0Q386 146 379.5 152.0ZM384.5 121.5Q380 126 380.0 131.5Q380 137 384.5 141.5Q389 146 395.0 146.0Q401 146 405.0 141.5Q409 137 409.0 131.5Q409 126 405.0 121.5Q401 117 395.0 117.0Q389 117 384.5 121.5Z" fill="#f19020" />
<path d="M473 331Q479 331 483.0 326.5Q487 322 487 316V288Q487 282 483.0 278.0Q479 274 473 274H196L248 -36H273V-64H4V-36H29L82 274H60Q55 274 50.5 278.0Q46 282 46 288V316Q46 324 53 328V329L132 440Q133 441 134 442Q134 442 134 443Q135 444 136 444Q137 444 139 444Q139 444 141 444Q141 444 141 444L414 331ZM163 274H114L139 254ZM139 145 87 111 139 82 191 111ZM87 135 120 157 94 175ZM157 157 191 135 184 175ZM139 169 179 196 139 229 98 196ZM102 225 123 242 107 255ZM154 242 175 225 170 255ZM72 331H89V345Q89 351 93.0 355.0Q97 359 103 359H132V414ZM80 93 72 46 119 71ZM220 -36 210 22 139 60 68 22 58 -36ZM198 93 159 71 206 46ZM188 331H377L146 427V359H174Q180 359 184.0 355.0Q188 351 188 345ZM217 288V316H200V288ZM260 288V316H231V288ZM302 288V316H274V288ZM345 288V316H316V288ZM388 288V316H359V288ZM430 288V316H402V288ZM473 295V309Q473 316 466 316H444V288H466Q473 288 473 295Z" fill="#bd2032" />
<path d="M174 345H188V288H146Q140 288 136.0 292.0Q132 296 132 302V331Q132 337 136.0 341.0Q140 345 146 345Z" fill="#4b545d" />
<path d="M160 345H188V288H160Z" fill="#cdd7df" />
<path d="M496 107H484V72H496V57H294V72H306V107H294V121H496Z" fill="#66757f" />
</g></svg>