<svg xmlns="http://www.w3.org/2000/svg" viewBox="0 0 2048 2048">
<g transform="matrix(1 0 0 -1 0 2048)">
<path d="M374 256 392 239V238Q400 216 385 186Q369 154 341 149Q331 146 322 148Q306 152 283.0 150.0Q260 148 249 141Q241 136 241 128Q242 115 216 114Q177 113 151 138L116 173L42 249Q78 220 128.5 218.0Q179 216 218 242Q258 269 264.5 311.5Q271 354 241 389L372 259Z" fill="#ffcc4d" />
<path d="M270 200Q275 195 274.0 190.0Q273 185 267 183Q254 176 244 186Q240 190 241.0 195.0Q242 200 247 203Q260 210 270 200ZM312 279Q309 273 304.0 272.0Q299 271 295 276Q285 286 291 299Q294 304 299.0 305.0Q304 306 308 302Q318 292 312 279ZM45 343Q38 344 32 340Q38 372 68 392Q100 414 142.0 410.0Q184 406 211 379Q218 372 224 363L123 364Q107 374 88 373Q69 373 51 355Q47 350 45 343ZM224 362V363ZM42 308Q39 301 41 294Q28 316 32 339Q31 329 32 318Q35 316 38 315Q39 311 41 309Q41 309 42 308Z" fill="#ffac33" />
<path d="M348 216Q358 206 352 193Q349 187 344.0 186.0Q339 185 335 189Q325 199 332 213Q334 218 339.0 219.5Q344 221 348 216ZM181 148Q166 143 156 153Q152 158 153.5 162.0Q155 166 161 168Q176 173 186 163Q190 159 189.0 154.5Q188 150 181 148Z" fill="#d99e82" />
<path d="M341 149 490 0Q468 -33 434 -44L249 141Q260 148 283.0 150.0Q306 152 322 148Q331 146 341 149ZM482 148Q516 110 512 59L385 186Q400 216 392 239L374 256Q380 256 396.0 259.0Q412 262 418.0 261.5Q424 261 433 257Q437 253 431.0 235.5Q425 218 432 199Z" fill="#bdbdbd" />
<path d="M216 114 381 -52Q339 -48 311 -22L241 48Q230 59 201.5 61.0Q173 63 161 68Q144 77 138.0 93.0Q132 109 134.5 120.0Q137 131 131 138Q127 142 125.5 150.0Q124 158 126 163L151 138Q177 113 216 114Z" fill="#808285" />
<path d="M249 141 434 -44Q409 -54 381 -51L216 114Q242 115 241 128Q241 136 249 141Z" fill="#a6a6a6" />
<path d="M385 186 512 59Q509 25 490 0L341 149Q369 154 385 186Z" fill="#d8d8d8" />
<path d="M32 340V339Z" fill="#c1694f" />
<path d="M241 389Q271 354 264.5 311.5Q258 269 218 242Q179 216 128.5 218.0Q78 220 42 249Q36 254 31 259Q-3 293 2.0 338.5Q7 384 48 412Q90 441 145.0 436.0Q200 431 235 395Q237 393 241 389ZM224 363Q218 372 211 379Q184 406 142.0 410.0Q100 414 68 392Q38 372 32 340Q32 340 32 339Q28 316 41 294Q46 283 55 275Q82 248 124.0 244.0Q166 240 198 262Q225 280 232.0 308.5Q239 337 224 362Q224 362 224 363Z" fill="#ffe8b6" />
<path d="M198 262Q166 240 124.0 244.0Q82 248 55 275Q46 283 41 294Q39 301 42 308Q41 309 41 309Q39 311 38 315Q35 316 32 318Q31 329 32 339V340Q38 344 45 343Q47 350 51 355Q69 373 88 373Q107 374 123 364L224 363V362Q239 337 232.0 308.5Q225 280 198 262Z" fill="#c1694f" />
<path d="M123 361Q104 372 88 372Q117 392 154.5 390.5Q192 389 220 369Q224 363 227 357Z" fill="#f4900c" />
<path d="M71.0 319.0Q67 323 67.0 329.0Q67 335 71.0 339.0Q75 343 81.0 343.0Q87 343 91.0 339.0Q95 335 95.0 329.0Q95 323 91.0 319.0Q87 315 81.0 315.0Q75 315 71.0 319.0Z" fill="#d99e82" />
<path d="M86.0 283.5Q80 290 80.0 298.5Q80 307 86.0 313.5Q92 320 101.0 320.0Q110 320 116.0 313.5Q122 307 122.0 298.5Q122 290 116.0 283.5Q110 277 101.0 277.0Q92 277 86.0 283.5ZM131.0 279.0Q127 283 127.0 289.0Q127 295 131.0 299.0Q135 303 141.0 303.0Q147 303 151.0 299.0Q155 295 155.0 289.0Q155 283 151.0 279.0Q147 275 141.0 275.0Q135 275 131.0 279.0ZM61.0 332.0Q54 332 54.0 339.0Q54 346 61.0 346.0Q68 346 68.0 339.0Q68 332 61.0 332.0ZM101.0 248.5Q97 253 97.0 258.5Q97 264 101.0 268.5Q105 273 111.0 273.0Q117 273 121.0 268.5Q125 264 125.0 258.5Q125 253 121.0 248.5Q117 244 111.0 244.0Q105 244 101.0 248.5ZM151 259Q157 253 155 245Q142 243 128 244Q125 252 131 259Q141 269 151 259Z" fill="#d99e82" />
<path d="M76.0 354.0Q70 360 70.0 369.0Q70 378 76.0 384.0Q82 390 91.0 390.0Q100 390 106.0 384.0Q112 378 112.0 369.0Q112 360 106.0 354.0Q100 348 91.0 348.0Q82 348 76.0 354.0ZM171.0 258.5Q167 263 167.0 268.5Q167 274 171.0 278.5Q175 283 181.0 283.0Q187 283 191.0 278.5Q195 274 195.0 268.5Q195 263 191.0 258.5Q187 254 181.0 254.0Q175 254 171.0 258.5Z" fill="#ffd983" />
<path d="M231 319Q228 316 224 315Q224 315 224.0 314.5Q224 314 224 313Q223 311 221 309Q231 299 221 289Q214 282 205 286Q203 287 201 289Q191 279 181.0 289.0Q171 299 181 309Q179 311 178 313Q166 309 157 317Q154 320 153 325Q146 324 141 329Q131 339 141 349Q140 350 139 352Q123 347 111 359Q103 367 103.0 379.0Q103 391 111.0 399.0Q119 407 131.0 407.0Q143 407 151 399Q158 392 159 383Q166 384 171 379Q174 376 175 372Q179 371 181 369Q191 379 201.0 369.0Q211 359 201 349Q211 339 201 329Q204 331 208 332Q209 336 211 339Q221 349 231.0 339.0Q241 329 231 319Z" fill="#77b255" />
<path d="M211.0 322.0Q204 322 204.0 329.0Q204 336 211.0 336.0Q218 336 218.0 329.0Q218 322 211.0 322.0ZM121.0 372.0Q114 372 114.0 379.0Q114 386 121.0 386.0Q128 386 128.0 379.0Q128 372 121.0 372.0Z" fill="#a6d388" />
<path d="M176 314Q183 307 183.0 298.5Q183 290 176.5 283.5Q170 277 161.0 277.0Q152 277 146 284Q143 286 142 290Q128 282 116.5 293.5Q105 305 113 319Q109 321 106 324Q100 330 100.0 339.0Q100 348 106.0 354.0Q112 360 121.0 360.0Q130 360 136 354Q148 342 140 328Q143 327 146.0 324.0Q149 321 151 317Q165 325 176 314Z" fill="#ffd983" />
<path d="M136.0 288.5Q131 294 131.0 301.5Q131 309 136.0 314.0Q141 319 148.5 319.0Q156 319 161.0 314.0Q166 309 166.0 301.5Q166 294 161.0 288.5Q156 283 148.5 283.0Q141 283 136.0 288.5ZM121.0 324.0Q118 327 118.0 331.5Q118 336 121.0 339.0Q124 342 128.5 342.0Q133 342 136.0 339.0Q139 336 139.0 331.5Q139 327 136.0 324.0Q133 321 128.5 321.0Q124 321 121.0 324.0Z" fill="#ffe8b6" />
<path d="M101.0 344.0Q98 347 98.0 351.5Q98 356 101.0 359.0Q104 362 108.5 362.0Q113 362 116.0 359.0Q119 356 119.0 351.5Q119 347 116.0 344.0Q113 341 108.5 341.0Q104 341 101.0 344.0Z" fill="#ffe8b6" />
<path d="M201.0 349.0Q197 353 197.0 359.0Q197 365 201.0 369.0Q205 373 211.0 373.0Q217 373 221.5 369.0Q226 365 226.0 359.0Q226 353 221.5 349.0Q217 345 211.0 345.0Q205 345 201.0 349.0Z" fill="#77b255" />
<path d="M191.0 319.0Q187 323 187.0 329.0Q187 335 191.0 339.0Q195 343 201.0 343.0Q207 343 211.0 339.0Q215 335 215.0 329.0Q215 323 211.0 319.0Q207 315 201.0 315.0Q195 315 191.0 319.0Z" fill="#a6d388" />
<path d="M186 364Q193 358 193.0 349.0Q193 340 186.5 333.5Q180 327 171.0 327.0Q162 327 156 334Q146 344 152 358Q151 359 151 359Q141 349 131.0 359.0Q121 369 131.0 379.0Q141 389 151 379Q161 389 171 379Q175 375 175 370Q182 368 186 364Z" fill="#a6d388" />
<path d="M141.0 384.0Q138 387 138.0 391.5Q138 396 141.0 399.0Q144 402 148.5 402.0Q153 402 156.0 399.0Q159 396 159.0 391.5Q159 387 156.0 384.0Q153 381 148.5 381.0Q144 381 141.0 384.0ZM201.0 344.0Q198 347 198.0 351.5Q198 356 201.0 359.0Q204 362 208.5 362.0Q213 362 216.0 359.0Q219 356 219.0 351.5Q219 347 216.0 344.0Q213 341 208.5 341.0Q204 341 201.0 344.0ZM191.0 299.0Q187 303 187.0 309.0Q187 315 191.0 319.0Q195 323 201.0 323.0Q207 323 211.0 319.0Q215 315 215.0 309.0Q215 303 211.0 299.0Q207 295 201.0 295.0Q195 295 191.0 299.0Z" fill="#dd2e44" />
<path d="M191 379Q201 369 191.0 359.0Q181 349 171.0 359.0Q161 369 171 379Q161 389 171.0 399.0Q181 409 191.0 399.0Q201 389 191 379Z" fill="#77b255" />
<path d="M161.0 349.0Q157 353 157.0 359.0Q157 365 161.0 369.0Q165 373 171.0 373.0Q177 373 181.0 369.0Q185 365 185.0 359.0Q185 353 181.0 349.0Q177 345 171.0 345.0Q165 345 161.0 349.0ZM191.0 382.0Q184 382 184.0 389.0Q184 396 191.0 396.0Q198 396 198.0 389.0Q198 382 191.0 382.0Z" fill="#dd2e44" />
</g></svg>