<svg xmlns="http://www.w3.org/2000/svg" viewBox="0 0 2048 2048">
<g transform="matrix(1 0 0 -1 0 2048)">
<path d="M484 334V178Q484 138 433 109Q421 102 392.0 94.5Q363 87 341 86V-21Q341 -44 298.5 -53.0Q256 -62 213.5 -53.0Q171 -44 171 -21V29Q151 30 120.5 37.5Q90 45 76 52Q28 80 28 121V220Q28 244 45.0 260.5Q62 277 85.5 277.0Q109 277 125.5 260.5Q142 244 142 220V148Q142 124 171 112V363Q171 398 196.0 423.0Q221 448 256.0 448.0Q291 448 316.0 423.0Q341 398 341 363V170Q370 182 370 204V334Q370 358 386.5 374.5Q403 391 426.5 391.0Q450 391 467.0 374.5Q484 358 484 334Z" fill="#77b255" />
<path d="M160.5 352.5Q156 357 156.0 363.0Q156 369 160.5 373.0Q165 377 171.0 377.0Q177 377 181.0 373.0Q185 369 185.0 363.0Q185 357 181.0 352.5Q177 348 171.0 348.0Q165 348 160.5 352.5ZM317.0 395.0Q313 399 313.0 405.0Q313 411 317.0 415.5Q321 420 327.0 420.0Q333 420 337.0 415.5Q341 411 341.0 405.0Q341 399 337.0 395.0Q333 391 327.0 391.0Q321 391 317.0 395.0ZM288.5 310.0Q284 314 284.0 320.0Q284 326 288.5 330.0Q293 334 299.0 334.0Q305 334 309.0 330.0Q313 326 313.0 320.0Q313 314 309.0 310.0Q305 306 299.0 306.0Q293 306 288.5 310.0ZM189.0 210.5Q185 215 185.0 220.5Q185 226 189.0 230.5Q193 235 199.0 235.0Q205 235 209.0 230.5Q213 226 213.0 220.5Q213 215 209.0 210.5Q205 206 199.0 206.0Q193 206 189.0 210.5ZM274.5 153.5Q270 158 270.0 163.5Q270 169 274.5 173.5Q279 178 284.5 178.0Q290 178 294.5 173.5Q299 169 299.0 163.5Q299 158 294.5 153.5Q290 149 284.5 149.0Q279 149 274.5 153.5ZM175.0 68.0Q171 72 171.0 78.0Q171 84 175.0 88.0Q179 92 185.0 92.0Q191 92 195.0 88.0Q199 84 199.0 78.0Q199 72 195.0 68.0Q191 64 185.0 64.0Q179 64 175.0 68.0ZM61.0 54.0Q57 58 57.0 64.0Q57 70 61.0 74.0Q65 78 71.0 78.0Q77 78 81.0 74.0Q85 70 85.0 64.0Q85 58 81.0 54.0Q77 50 71.0 50.0Q65 50 61.0 54.0ZM118.0 153.5Q114 158 114.0 163.5Q114 169 118.0 173.5Q122 178 128.0 178.0Q134 178 138.0 173.5Q142 169 142.0 163.5Q142 158 138.0 153.5Q134 149 128.0 149.0Q122 149 118.0 153.5ZM18.5 182.0Q14 186 14.0 192.0Q14 198 18.5 202.0Q23 206 28.5 206.0Q34 206 38.5 202.0Q43 198 43.0 192.0Q43 186 38.5 182.0Q34 178 28.5 178.0Q23 178 18.5 182.0ZM473.5 324.0Q469 328 469.0 334.0Q469 340 473.5 344.0Q478 348 483.5 348.0Q489 348 493.5 344.0Q498 340 498.0 334.0Q498 328 493.5 324.0Q489 320 483.5 320.0Q478 320 473.5 324.0ZM388.0 281.5Q384 286 384.0 291.5Q384 297 388.0 301.5Q392 306 398.0 306.0Q404 306 408.0 301.5Q412 297 412.0 291.5Q412 286 408.0 281.5Q404 277 398.0 277.0Q392 277 388.0 281.5ZM445.0 210.5Q441 215 441.0 220.5Q441 226 445.0 230.5Q449 235 455.0 235.0Q461 235 465.0 230.5Q469 226 469.0 220.5Q469 215 465.0 210.5Q461 206 455.0 206.0Q449 206 445.0 210.5ZM402.5 96.5Q398 101 398.0 107.0Q398 113 402.5 117.0Q407 121 412.5 121.0Q418 121 422.5 117.0Q427 113 427.0 107.0Q427 101 422.5 96.5Q418 92 412.5 92.0Q407 92 402.5 96.5ZM303.0 11.0Q299 15 299.0 21.0Q299 27 303.0 31.5Q307 36 313.0 36.0Q319 36 323.0 31.5Q327 27 327.0 21.0Q327 15 323.0 11.0Q319 7 313.0 7.0Q307 7 303.0 11.0Z" fill="#3e721d" />
</g></svg>