<svg xmlns="http://www.w3.org/2000/svg" viewBox="0 0 512 512">
<g transform="matrix(1 0 0 -1 0 512)">
<path d="M512 -7Q512 -30 495.5 -47.0Q479 -64 455 -64H57Q33 -64 16.5 -47.0Q0 -30 0 -7Q0 3 6.5 14.5Q13 26 31.0 40.0Q49 54 76.0 64.5Q103 75 150.0 82.5Q197 90 256.0 90.0Q315 90 362.0 82.5Q409 75 436.0 64.5Q463 54 481.0 40.0Q499 26 505.5 14.5Q512 3 512 -7Z" fill="#78b159" />
<path d="M410 48Q410 18 370.5 18.0Q331 18 331 48L341 136Q341 150 345.5 153.0Q350 156 365 156Q368 156 370.0 156.0Q372 156 375 156Q386 156 390.0 155.5Q394 155 397.0 150.5Q400 146 400 136Z" fill="#662113" />
<path d="M496 168Q516 149 509.0 139.0Q502 129 473 131Q462 132 427.0 137.0Q392 142 370.5 142.0Q349 142 313.5 137.0Q278 132 268 131Q239 129 232.0 139.0Q225 149 245 168Q271 191 296.5 228.5Q322 266 339.0 288.5Q356 311 370.5 311.0Q385 311 401.5 288.5Q418 266 443.5 228.5Q469 191 496 168Z" fill="#5c913b" />
<path d="M475 191Q497 169 472 161Q439 151 395 174Q381 181 370 191Q333 157 285 159Q255 160 256 175Q257 182 266 191Q286 210 308.0 241.0Q330 272 344.5 290.5Q359 309 370.5 309.0Q382 309 396.5 290.5Q411 272 433.0 241.0Q455 210 475 191Z" fill="#3e721d" />
<path d="M475 230Q497 210 472 202Q438 193 394 215Q381 221 370 230Q332 198 283 200Q254 201 256 216Q257 222 266 230Q286 248 308.0 277.0Q330 306 344.5 323.0Q359 340 370.5 340.0Q382 340 396.5 323.0Q411 306 433.0 277.0Q455 248 475 230Z" fill="#5c913b" />
<path d="M452 262Q471 245 447 240Q415 233 380 255Q375 258 370 262Q339 236 300 239Q281 240 281 250Q281 256 289 262Q304 276 321.5 299.0Q339 322 350.0 335.0Q361 348 370.0 348.0Q379 348 390.5 335.0Q402 322 419.0 299.0Q436 276 452 262Z" fill="#3e721d" />
<path d="M452 292Q471 275 447 269Q415 262 380 284Q375 288 370 292Q339 265 300 268Q281 270 281 280Q281 285 289 292Q304 306 321.5 328.5Q339 351 350.0 364.0Q361 377 370.0 377.0Q379 377 390.5 364.0Q402 351 419.0 328.5Q436 306 452 292Z" fill="#5c913b" />
<path d="M436 318Q452 303 432 299Q403 294 374 315Q372 316 370 318Q344 295 312 299Q291 302 301 314Q303 316 304 318Q317 329 331.0 347.5Q345 366 354.0 376.5Q363 387 370.0 387.0Q377 387 386.5 376.5Q396 366 409.5 347.5Q423 329 436 318Z" fill="#3e721d" />
<path d="M436 340Q452 326 432 322Q403 316 374 337Q372 338 370 340Q344 317 312 321Q291 324 301 337Q303 338 304 340Q317 351 331.0 369.5Q345 388 354.0 398.5Q363 409 370.0 409.0Q377 409 386.5 398.5Q396 388 409.5 369.5Q423 351 436 340Z" fill="#5c913b" />
<path d="M420 372Q433 361 416 358Q391 354 370 372Q348 353 323 358Q308 362 320 372Q330 381 340.5 395.0Q351 409 358.0 417.0Q365 425 370.5 425.0Q376 425 383.0 417.0Q390 409 400.5 395.0Q411 381 420 372Z" fill="#3e721d" />
<path d="M420 387Q433 376 416 373Q391 369 370 387Q348 368 323 373Q308 376 320 387Q330 396 340.5 409.5Q351 423 358.0 431.5Q365 440 370.5 440.0Q376 440 383.0 431.5Q390 423 400.5 409.5Q411 396 420 387Z" fill="#5c913b" />
<path d="M215 -21Q205 -21 201 -12L130 188Q128 194 132 200Q136 206 144 206H311Q320 206 324 198L409 -2Q412 -9 408.0 -15.0Q404 -21 396 -21Z" fill="#f4900c" />
<path d="M58 -21Q50 -21 46.0 -15.0Q42 -9 45 -1L130 198Q134 207 143.5 207.0Q153 207 157 198L242 -1Q245 -8 241.0 -14.5Q237 -21 229 -21Z" fill="#ffcc4d" />
<path d="M144 172 172 -21H115Z" fill="#292f33" />
<path d="M201 -6 207 -21H172ZM86 -6 115 -21H80Z" fill="#ffac33" />
<path d="M172 -21 144 172 211 -3Q205 -8 195.5 -12.5Q186 -17 179 -19ZM115 -21Q89 -15 76 -3L143 172Z" fill="#ffe8b6" />
<path d="M194 368Q209 368 219.0 357.5Q229 347 229.0 332.5Q229 318 219.0 307.5Q209 297 194 297H68Q53 297 42.5 307.5Q32 318 32.0 332.5Q32 347 42.5 357.5Q53 368 68 368Q74 368 80 365Q82 379 92.0 387.5Q102 396 116 396Q122 396 128 394Q139 411 158 411Q173 411 183.5 400.5Q194 390 194 375Q194 371 193 368Q194 368 194 368Z" fill="#e1e8ed" />
</g></svg>