<svg xmlns="http://www.w3.org/2000/svg" viewBox="0 0 512 512">
<g transform="matrix(1 0 0 -1 0 512)">
<path d="M512 -7Q512 -31 495.5 -47.5Q479 -64 455 -64H57Q33 -64 16.5 -47.5Q0 -31 0 -7V391Q0 415 16.5 431.5Q33 448 57 448H455Q479 448 495.5 431.5Q512 415 512 391Z" fill="#9266cc" />
<path d="M156 202Q126 202 103.5 224.5Q81 247 81 277Q81 317 113.0 342.0Q145 367 185 367Q239 367 284.0 357.0Q329 347 354.0 334.5Q379 322 398.0 306.0Q417 290 421.5 283.0Q426 276 429 271Q432 265 429.5 257.5Q427 250 420.5 246.5Q414 243 407.0 245.5Q400 248 396 255Q395 258 391.0 262.5Q387 267 373.0 279.0Q359 291 340.5 300.5Q322 310 288.5 318.5Q255 327 215 329Q232 310 232 277Q232 248 211.0 225.0Q190 202 156 202ZM140 316Q118 301 118 277Q118 264 129.5 251.5Q141 239 156 239Q173 239 184.0 251.0Q195 263 195 277Q195 300 184 309Q169 322 147 318Q141 317 140 316ZM327 17Q273 17 228.0 27.0Q183 37 158.0 49.5Q133 62 114.0 78.0Q95 94 90.5 101.0Q86 108 83 113Q80 119 82.5 126.5Q85 134 91.5 137.5Q98 141 105.0 138.5Q112 136 116 129Q117 126 121.0 121.5Q125 117 139.0 105.0Q153 93 171.5 83.5Q190 74 223.5 65.5Q257 57 297 55Q280 74 280 107Q280 136 301.0 159.0Q322 182 356 182Q386 182 408.5 159.5Q431 137 431 107Q431 67 399.0 42.0Q367 17 327 17ZM356 145Q339 145 328.0 133.0Q317 121 317 107Q317 84 328 75Q334 70 344.0 67.5Q354 65 359.5 66.0Q365 67 366 66Q368 66 372 68Q394 83 394 107Q394 120 382.5 132.5Q371 145 356 145Z" fill="#ffffff" />
<path d="M186.5 308.0Q199 295 199.0 277.5Q199 260 186.5 247.0Q174 234 156.0 234.0Q138 234 125.5 247.0Q113 260 113.0 277.5Q113 295 125.5 308.0Q138 321 156.0 321.0Q174 321 186.5 308.0ZM385.5 137.5Q398 125 398.0 107.0Q398 89 385.5 76.5Q373 64 355.0 64.0Q337 64 324.5 76.5Q312 89 312.0 107.0Q312 125 324.5 137.5Q337 150 355.0 150.0Q373 150 385.5 137.5Z" fill="#9266cc" />
</g></svg>