<svg xmlns="http://www.w3.org/2000/svg" viewBox="0 0 2048 2048">
<g transform="matrix(1 0 0 -1 0 2048)">
<path d="M513 -7Q513 -31 496.0 -47.5Q479 -64 456 -64H57Q34 -64 17.5 -47.5Q1 -31 1 -7V391Q1 415 17.5 431.5Q34 448 57 448H456Q479 448 496.0 431.5Q513 415 513 391Z" fill="#77b255" />
<path d="M141 236H82Q65 236 65.0 250.5Q65 265 82 265H123L55 370Q49 379 49 387Q49 393 53.5 397.0Q58 401 64 401Q75 401 83 389L159 274L236 389Q244 401 255 401Q261 401 265.5 397.0Q270 393 270 387Q270 379 264 370L196 265H237Q254 265 254.0 250.5Q254 236 237 236H178V206H237Q254 206 254.0 192.0Q254 178 237 178H178V113Q178 103 173.0 97.5Q168 92 159.5 92.0Q151 92 146.0 97.5Q141 103 141 113V178H82Q65 178 65.0 192.0Q65 206 82 206H141Z" fill="#ffffff" />
<path d="M57 -36Q41 -36 32 -22Q26 -12 29.0 -0.5Q32 11 42 17L113 60Q125 67 137 63L204 40L248 96Q261 112 281 105L324 87L357 187Q359 193 364 198L435 269Q443 277 455.0 277.0Q467 277 475.5 269.0Q484 261 484.0 249.0Q484 237 475 229L409 162L368 41Q364 29 353.0 24.0Q342 19 331 23L279 44L236 -11Q223 -26 204 -20L131 4L72 -31Q65 -36 57 -36Z" fill="#ffffff" />
</g></svg>