<svg xmlns="http://www.w3.org/2000/svg" viewBox="0 0 2048 2048">
<g transform="matrix(1 0 0 -1 0 2048)">
<path d="M139.0 153.0Q164 178 199.0 178.0Q234 178 259.0 153.0Q284 128 284.0 92.5Q284 57 259.0 32.0Q234 7 199.0 7.0Q164 7 139.0 32.0Q114 57 114.0 92.5Q114 128 139.0 153.0ZM159.0 52.5Q176 36 199.5 36.0Q223 36 239.5 52.5Q256 69 256.0 92.5Q256 116 239.5 132.5Q223 149 199.5 149.0Q176 149 159.0 132.5Q142 116 142.0 92.5Q142 69 159.0 52.5Z" fill="#3b88c3" />
<path d="M25 249 434 362V22L25 135V136Q15 138 7.5 154.0Q0 170 0.0 192.0Q0 214 7.5 230.0Q15 246 25 248Z" fill="#55acee" />
<path d="M390.5 71.0Q370 121 370.0 192.0Q370 263 390.5 313.0Q411 363 440.5 363.0Q470 363 491.0 313.0Q512 263 512.0 192.0Q512 121 491.0 71.0Q470 21 440.5 21.0Q411 21 390.5 71.0Z" fill="#226699" />
</g></svg>