<svg xmlns="http://www.w3.org/2000/svg" viewBox="0 0 2048 2048">
<g transform="matrix(1 0 0 -1 0 2048)">
<path d="M445 152Q412 141 370 143Q405 120 426 92Q452 53 450.5 30.0Q449 7 420 -17Q414 -8 404.5 -4.0Q395 0 390 -4Q385 -7 386.0 -17.5Q387 -28 393 -37Q363 -57 338.5 -51.0Q314 -45 288 -8Q267 20 256 61Q245 20 224 -8Q198 -45 173.5 -51.0Q149 -57 119 -37Q125 -28 126.0 -17.5Q127 -7 122 -4Q117 0 107.5 -4.0Q98 -8 92 -17Q63 7 61.5 30.0Q60 53 86 92Q107 120 142 143Q100 141 67 152Q23 166 10.5 187.0Q-2 208 7 243Q17 240 27.5 242.5Q38 245 39.5 250.5Q41 256 34.5 264.0Q28 272 18 276Q31 310 52.5 319.0Q74 328 120 314Q153 304 186 277Q171 317 171 351Q171 397 186.5 415.5Q202 434 239 436Q239 426 244.5 417.0Q250 408 256.0 408.0Q262 408 267.5 417.0Q273 426 273 436Q310 434 325.5 415.5Q341 397 341 351Q341 317 326 277Q359 304 392 314Q438 328 459.5 319.0Q481 310 494 276Q484 272 477.5 264.0Q471 256 472.5 250.5Q474 245 484.5 242.5Q495 240 505 243Q514 208 501.5 187.0Q489 166 445 152ZM256 159Q260 165 264.5 168.5Q269 172 277 174Q271 179 269.5 184.5Q268 190 269 198Q262 195 256.0 195.0Q250 195 243 198Q244 190 242.5 184.5Q241 179 235 174Q243 172 247.5 168.5Q252 165 256 159Z" fill="#f4abba" />
<path d="M222 171 139 190Q133 191 130.0 196.0Q127 201 128.0 207.0Q129 213 134.0 216.0Q139 219 145 218L228 199Q234 198 237.0 193.0Q240 188 239.0 182.0Q238 176 233.0 173.0Q228 170 222 171ZM270 190 353 171Q359 170 362.0 165.0Q365 160 364.0 154.5Q363 149 358.0 145.5Q353 142 347 144L264 162Q258 163 254.5 168.0Q251 173 252.5 179.0Q254 185 259.0 188.0Q264 191 270 190Z" fill="#ffffff" />
<path d="M233 184 187 256Q180 268 192.0 275.5Q204 283 211 271L257 199Q265 187 253.0 179.5Q241 172 233 184ZM284 157 330 85Q337 73 325.0 65.5Q313 58 306 70L260 142Q252 154 264.0 161.5Q276 169 284 157Z" fill="#ffffff" />
<path d="M245 210 264 293Q265 299 270.0 302.0Q275 305 280.5 304.0Q286 303 289.5 298.0Q293 293 291 287L273 204Q272 198 267.0 195.0Q262 192 256.0 193.0Q250 194 247.0 199.0Q244 204 245 210ZM264 162 245 79Q244 73 239.0 70.0Q234 67 228.0 68.0Q222 69 219.0 74.0Q216 79 217 85L236 168Q237 174 242.0 177.0Q247 180 252.5 179.0Q258 178 261.5 173.0Q265 168 264 162Z" fill="#ffffff" />
<path d="M257 199 329 245Q341 252 348.5 240.0Q356 228 344 221L272 175Q260 167 252.5 179.0Q245 191 257 199Z" fill="#ffffff" />
<path d="M248 160 176 114Q164 106 156.5 118.0Q149 130 161 138L233 184Q245 191 252.5 179.0Q260 167 248 160Z" fill="#ffffff" />
<path d="M300.5 66.5Q303 78 313.0 84.5Q323 91 334.5 88.5Q346 86 352.5 76.0Q359 66 356.5 54.5Q354 43 344.0 36.5Q334 30 322.5 32.5Q311 35 304.5 45.0Q298 55 300.5 66.5ZM219.5 268.5Q217 257 207.0 251.0Q197 245 185.5 247.5Q174 250 167.5 260.0Q161 270 163.5 281.5Q166 293 176.0 299.0Q186 305 197.5 302.5Q209 300 215.5 290.0Q222 280 219.5 268.5ZM213.0 92.0Q223 98 234.5 95.5Q246 93 252.0 83.0Q258 73 255.5 61.5Q253 50 243.0 44.0Q233 38 221.5 40.5Q210 43 204.0 53.0Q198 63 200.5 74.5Q203 86 213.0 92.0ZM299.0 294.0Q289 288 277.5 290.5Q266 293 259.5 303.0Q253 313 255.5 324.5Q258 336 268.0 342.0Q278 348 289.5 345.5Q301 343 307.5 333.0Q314 323 311.5 311.5Q309 300 299.0 294.0ZM174.5 152.5Q186 150 192.0 140.5Q198 131 195.5 119.0Q193 107 183.0 101.0Q173 95 161.5 97.5Q150 100 144.0 110.0Q138 120 140.5 131.5Q143 143 153.0 149.0Q163 155 174.5 152.5ZM342.5 212.5Q331 215 324.5 225.0Q318 235 321.0 246.5Q324 258 333.5 264.5Q343 271 354.5 268.0Q366 265 372.5 255.5Q379 246 376.5 234.5Q374 223 364.0 216.5Q354 210 342.5 212.5ZM339.5 139.0Q333 149 336.0 160.5Q339 172 348.5 178.5Q358 185 369.5 182.5Q381 180 387.5 170.0Q394 160 391.5 148.5Q389 137 379.0 130.5Q369 124 357.5 126.5Q346 129 339.5 139.0ZM151.5 222.0Q158 212 155.5 200.5Q153 189 143.0 183.0Q133 177 121.5 179.5Q110 182 103.5 192.0Q97 202 100.0 213.5Q103 225 112.5 231.0Q122 237 133.5 234.5Q145 232 151.5 222.0Z" fill="#ea596e" />
<path d="M215.5 140.0Q199 157 199.0 180.5Q199 204 215.5 220.5Q232 237 256.0 237.0Q280 237 296.5 220.5Q313 204 313.0 180.5Q313 157 296.5 140.0Q280 123 256.0 123.0Q232 123 215.5 140.0Z" fill="#ffcc4d" />
</g></svg>