<svg xmlns="http://www.w3.org/2000/svg" viewBox="0 0 2048 2048">
<g transform="matrix(1 0 0 -1 0 2048)">
<path d="M277.5 11.0Q286 2 286.0 -10.5Q286 -23 277.5 -32.0Q269 -41 256.0 -41.0Q243 -41 234.5 -32.0Q226 -23 226.0 -10.5Q226 2 234.5 11.0Q243 20 256.0 20.0Q269 20 277.5 11.0Z" fill="#e1e8ed" />
<path d="M393 226Q393 192 397.0 133.0Q401 74 404.5 32.0Q408 -10 408 -10Q408 -23 399.5 -32.0Q391 -41 378.0 -41.0Q365 -41 356.0 -32.0Q347 -23 347 -10Q347 -23 338.5 -32.0Q330 -41 317.0 -41.0Q304 -41 295.0 -32.0Q286 -23 286 -10H226Q226 -23 217.0 -32.0Q208 -41 195.0 -41.0Q182 -41 173.5 -32.0Q165 -23 165 -10Q165 -23 156.0 -32.0Q147 -41 134.0 -41.0Q121 -41 112.5 -32.0Q104 -23 104 -10Q119 149 119 226Q119 282 159.0 322.5Q199 363 256.0 363.0Q313 363 353.0 322.5Q393 282 393 226Z" fill="#e1e8ed" />
<path d="M284 405Q284 383 273.0 351.5Q262 320 256.0 320.0Q250 320 239.0 351.5Q228 383 228 405Q228 426 238.0 437.0Q248 448 256.0 448.0Q264 448 274.0 437.0Q284 426 284 405ZM222 -21Q222 6 235.5 49.0Q249 92 256.0 92.0Q263 92 276.5 49.0Q290 6 290 -21Q290 -38 283.0 -48.5Q276 -59 269.0 -61.5Q262 -64 256.0 -64.0Q250 -64 243.0 -61.5Q236 -59 229.0 -48.5Q222 -38 222 -21Z" fill="#dd2e44" />
<path d="M185.5 82.5Q156 101 156.0 128.0Q156 155 185.5 173.5Q215 192 256.0 192.0Q297 192 326.5 173.5Q356 155 356.0 128.0Q356 101 326.5 82.5Q297 64 256.0 64.0Q215 64 185.5 82.5Z" fill="#f4900c" />
<path d="M356 128Q356 118 306.0 114.0Q256 110 206.0 114.0Q156 118 156 128Q156 144 194.0 168.0Q232 192 256.0 192.0Q280 192 318.0 168.0Q356 144 356 128Z" fill="#ffac33" />
<path d="M148.5 170.0Q142 176 142.0 185.0Q142 194 148.5 200.0Q155 206 163.5 206.0Q172 206 178.5 200.0Q185 194 185.0 185.0Q185 176 178.5 170.0Q172 164 163.5 164.0Q155 164 148.5 170.0ZM333.5 170.0Q327 176 327.0 185.0Q327 194 333.5 200.0Q340 206 348.5 206.0Q357 206 363.5 200.0Q370 194 370.0 185.0Q370 176 363.5 170.0Q357 164 348.5 164.0Q340 164 333.5 170.0Z" fill="#292f33" />
</g></svg>