<svg xmlns="http://www.w3.org/2000/svg" viewBox="0 0 2048 2048">
<g transform="matrix(1 0 0 -1 0 2048)">
<path d="M295 -44Q279 -61 256.0 -61.0Q233 -61 217 -44L20 153Q3 169 3.0 192.0Q3 215 20 231L217 428Q233 445 256.0 445.0Q279 445 295 428L492 231Q509 215 509.0 192.0Q509 169 492 153Z" fill="#ffcc4d" />
<path d="M277 -20Q268 -29 256.0 -29.0Q244 -29 235 -20L44 171Q35 180 35.0 192.0Q35 204 44 213L235 404Q244 413 256.0 413.0Q268 413 277 404L468 213Q477 204 477.0 192.0Q477 180 468 171Z" fill="#000000" />
<path d="M267 12Q256 1 245 12L76 181Q65 192 76 203L245 372Q256 383 267 372L436 203Q447 192 436 181Z" fill="#ffcc4d" />
<path d="M380 202Q390 192 380.0 182.0Q370 172 360 182L333 208L355 110Q356 104 353.0 99.0Q350 94 344 93Q343 92 341 92Q330 92 327 104L313 169L298 104Q297 98 292.0 95.0Q287 92 281.5 93.0Q276 94 272.5 99.0Q269 104 271 110L292 208L266 182Q260 176 253 178L214 188L241 111Q246 98 232.5 93.0Q219 88 214 102L198 148L183 102Q179 92 169 92Q167 92 165 93Q151 98 156 111L175 171L151 152Q147 149 142 149Q135 149 131 155Q122 166 134 175L183 212Q171 220 171 235Q171 246 179.0 254.5Q187 263 199.0 263.0Q211 263 219.5 254.5Q228 246 228 235Q228 224 220 216L252 208L297 254Q284 262 284 277Q284 289 292.5 297.5Q301 306 313.0 306.0Q325 306 333.0 297.5Q341 289 341 277Q341 262 328 254Z" fill="#000000" />
</g></svg>