<svg xmlns="http://www.w3.org/2000/svg" viewBox="0 0 512 512">
<g transform="matrix(1 0 0 -1 0 512)">
<path d="M437.0 373.0Q512 298 512.0 192.0Q512 86 437.0 11.0Q362 -64 256.0 -64.0Q150 -64 75.0 11.0Q0 86 0.0 192.0Q0 298 75.0 373.0Q150 448 256.0 448.0Q362 448 437.0 373.0Z" fill="#f4900c" />
<path d="M99 312Q88 312 88 326Q88 339 99 339H413Q424 339 424 326Q424 312 413 312H376V57Q376 37 365.5 28.5Q355 20 329 20Q303 20 281 25Q270 27 270 38Q270 41 270 42Q273 54 282 54Q285 54 286 53Q307 48 326 48Q338 48 342.0 51.5Q346 55 346 66V312ZM285 134Q285 116 277.0 108.5Q269 101 252 101H164Q147 101 138.5 108.5Q130 116 130 134V233Q130 250 138.5 258.0Q147 266 164 266H252Q269 266 277.0 258.0Q285 250 285 233ZM245 128Q257 128 257 138V229Q257 239 245 239H170Q159 239 159 229V138Q159 128 170 128Z" fill="#ffffff" />
</g></svg>