<svg xmlns="http://www.w3.org/2000/svg" viewBox="0 0 2048 2048">
<g transform="matrix(1 0 0 -1 0 2048)">
<path d="M100 292H412V36H100Z" fill="#292f33" />
<path d="M114 36Q114 24 108.5 15.5Q103 7 95 7H76Q68 7 62.5 15.5Q57 24 57 36V292Q57 303 62.5 311.5Q68 320 76 320H95Q103 320 108.5 311.5Q114 303 114 292ZM455 36Q455 24 449.5 15.5Q444 7 436 7H417Q409 7 403.5 15.5Q398 24 398 36V292Q398 303 403.5 311.5Q409 320 417 320H436Q444 320 449.5 311.5Q455 303 455 292ZM228 36Q228 24 222.0 15.5Q216 7 209 7H190Q182 7 176.5 15.5Q171 24 171 36V292Q171 303 176.5 311.5Q182 320 190 320H209Q216 320 222.0 311.5Q228 303 228 292ZM341 36Q341 24 335.5 15.5Q330 7 322 7H303Q296 7 290.0 15.5Q284 24 284 36V292Q284 303 290.0 311.5Q296 320 303 320H322Q330 320 335.5 311.5Q341 303 341 292Z" fill="#ccd6dd" />
<path d="M441 -7H71Q59 -7 51.0 1.5Q43 10 43.0 21.5Q43 33 51.0 41.5Q59 50 71 50H441Q453 50 461.0 41.5Q469 33 469.0 21.5Q469 10 461.0 1.5Q453 -7 441 -7ZM469 306Q469 290 455 282V263H398V277H341V263H284V277H228V263H171V277H114V263H57V281Q43 289 43 306Q43 318 51.0 326.0Q59 334 71 334H439Q452 334 460.5 326.0Q469 318 469 306Z" fill="#9aaab4" />
<path d="M469 -36H43Q31 -36 22.5 -27.5Q14 -19 14.0 -7.0Q14 5 22.5 13.0Q31 21 43 21H469Q481 21 489.5 13.0Q498 5 498.0 -7.0Q498 -19 489.5 -27.5Q481 -36 469 -36ZM28 328Q28 334 32.0 339.5Q36 345 39 347L43 348L255 448L469 348Q484 345 484 328V320H28Z" fill="#ccd6dd" />
<path d="M491 -50H21Q12 -50 6.0 -43.5Q0 -37 0.0 -28.5Q0 -20 6.0 -13.5Q12 -7 21 -7H491Q499 -7 505.5 -13.5Q512 -20 512.0 -28.5Q512 -37 505.5 -43.5Q499 -50 491 -50Z" fill="#e1e8ed" />
<path d="M256 412Q404 344 416 338Q426 333 426.5 326.5Q427 320 417 320H95Q90 320 87.0 323.0Q84 326 86.0 330.0Q88 334 95 336Z" fill="#9aaab4" />
<path d="M469 306H43Q37 306 32.5 310.0Q28 314 28.0 320.0Q28 326 32.5 330.0Q37 334 43 334H469Q475 334 479.5 330.0Q484 326 484.0 320.0Q484 314 479.5 310.0Q475 306 469 306Z" fill="#ccd6dd" />
</g></svg>