<svg xmlns="http://www.w3.org/2000/svg" viewBox="0 0 2048 2048">
<g transform="matrix(1 0 0 -1 0 2048)">
<path d="M75.0 11.0Q0 86 0.0 192.0Q0 298 75.0 373.0Q150 448 256.0 448.0Q362 448 437.0 373.0Q512 298 512.0 192.0Q512 86 437.0 11.0Q362 -64 256.0 -64.0Q150 -64 75.0 11.0Z" fill="#99aab5" />
<path d="M115.5 51.5Q57 110 57.0 192.0Q57 274 115.5 332.5Q174 391 256.0 391.0Q338 391 396.5 332.5Q455 274 455.0 192.0Q455 110 396.5 51.5Q338 -7 256.0 -7.0Q174 -7 115.5 51.5Z" fill="#e1e8ed" />
<path d="M242 192Q242 198 246.0 202.0Q250 206 256.0 206.0Q262 206 266.0 202.0Q270 198 270 192V36Q270 30 266.0 25.5Q262 21 256.0 21.0Q250 21 246.0 25.5Q242 30 242 36Z" fill="#66757f" />
<path d="M270 192Q270 186 266.0 182.0Q262 178 256.0 178.0Q250 178 246.0 182.0Q242 186 242 192V320Q242 326 246.0 330.0Q250 334 256.0 334.0Q262 334 266.0 330.0Q270 326 270 320Z" fill="#66757f" />
</g></svg>