<svg xmlns="http://www.w3.org/2000/svg" viewBox="0 0 512 512">
<g transform="matrix(1 0 0 -1 0 512)">
<path d="M512 -7Q512 -31 495.5 -47.5Q479 -64 455 -64H57Q33 -64 16.5 -47.5Q0 -31 0 -7V391Q0 415 16.5 431.5Q33 448 57 448H455Q479 448 495.5 431.5Q512 415 512 391Z" fill="#3b88c3" />
<path d="M430 306 327 220V277H213Q178 277 153.0 252.0Q128 227 128 192Q128 183 130 175L83 135Q71 162 71 192Q71 251 112.5 292.5Q154 334 213 334H327V391ZM429 249Q441 221 441 192Q441 133 399.5 91.5Q358 50 299 50H185V-7L82 78L185 164V107H299Q334 107 359.0 132.0Q384 157 384 192Q384 201 382 209Z" fill="#ffffff" />
</g></svg>