<svg xmlns="http://www.w3.org/2000/svg" viewBox="0 0 512 512">
<g transform="matrix(1 0 0 -1 0 512)">
<path d="M75.0 11.0Q0 86 0.0 192.0Q0 298 75.0 373.0Q150 448 256.0 448.0Q362 448 437.0 373.0Q512 298 512.0 192.0Q512 86 437.0 11.0Q362 -64 256.0 -64.0Q150 -64 75.0 11.0Z" fill="#99aab5" />
<path d="M115.5 51.5Q57 110 57.0 192.0Q57 274 115.5 332.5Q174 391 256.0 391.0Q338 391 396.5 332.5Q455 274 455.0 192.0Q455 110 396.5 51.5Q338 -7 256.0 -7.0Q174 -7 115.5 51.5Z" fill="#e1e8ed" />
<path d="M270 192Q270 186 266.0 182.0Q262 178 256.0 178.0Q250 178 246.0 182.0Q242 186 242 192V348Q242 354 246.0 358.5Q250 363 256.0 363.0Q262 363 266.0 358.5Q270 354 270 348Z" fill="#66757f" />
<path d="M374 244 263 180Q251 173 244.0 185.0Q237 197 249 204L360 268Q372 275 379.0 263.0Q386 251 374 244Z" fill="#66757f" />
</g></svg>