<svg xmlns="http://www.w3.org/2000/svg" viewBox="0 0 512 512">
<g transform="matrix(1 0 0 -1 0 512)">
<path d="M75.0 11.0Q0 86 0.0 192.0Q0 298 75.0 373.0Q150 448 256.0 448.0Q362 448 437.0 373.0Q512 298 512.0 192.0Q512 86 437.0 11.0Q362 -64 256.0 -64.0Q150 -64 75.0 11.0Z" fill="#99aab5" />
<path d="M115.5 51.5Q57 110 57.0 192.0Q57 274 115.5 332.5Q174 391 256.0 391.0Q338 391 396.5 332.5Q455 274 455.0 192.0Q455 110 396.5 51.5Q338 -7 256.0 -7.0Q174 -7 115.5 51.5Z" fill="#e1e8ed" />
<path d="M242 21V192Q242 198 246.0 202.0Q250 206 256.0 206.0Q262 206 266.0 202.0Q270 198 270 192V21Q270 15 266.0 11.0Q262 7 256.0 7.0Q250 7 246.0 11.0Q242 15 242 21Z" fill="#67757f" />
<path d="M356 107Q351 107 347 109L248 180Q236 189 244.5 200.5Q253 212 264 204L364 132Q375 124 367 113Q363 107 356 107Z" fill="#67757f" />
</g></svg>