<svg xmlns="http://www.w3.org/2000/svg" viewBox="0 0 2048 2048">
<g transform="matrix(1 0 0 -1 0 2048)">
<path d="M384 334Q425 334 454.5 305.0Q484 276 484.0 234.5Q484 193 454.5 164.0Q425 135 384.0 135.0Q343 135 313.5 164.0Q284 193 284 235Q284 242 286 250Q278 249 270 249Q254 249 239 255Q231 227 208.5 209.5Q186 192 156 192Q121 192 96.0 217.0Q71 242 71.0 277.5Q71 313 96.0 338.0Q121 363 156 363Q173 363 188 357Q195 384 218.0 402.0Q241 420 270 420Q306 420 331.0 395.0Q356 370 356 334Q356 333 355 331Q355 330 355 330Q369 334 384 334Z" fill="#ccd6dd" />
<path d="M441 135Q470 135 491.0 114.0Q512 93 512.0 64.0Q512 35 491.0 14.0Q470 -7 441 -7H114Q67 -7 33.5 26.5Q0 60 0.0 107.0Q0 154 33.5 187.0Q67 220 114 220Q131 220 147 215Q157 243 181.0 260.0Q205 277 235 277Q267 277 292.0 257.5Q317 238 324 207Q342 220 363 220Q389 220 408.0 201.5Q427 183 427 156Q427 144 422 132Q432 135 441 135Z" fill="#e1e8ed" />
</g></svg>