<svg xmlns="http://www.w3.org/2000/svg" viewBox="0 0 512 512">
<g transform="matrix(1 0 0 -1 0 512)">
<path d="M172 -17Q178 -7 186.0 8.5Q194 24 205.0 66.0Q216 108 210 141Q206 167 193.5 184.5Q181 202 159.5 223.5Q138 245 124 263Q103 292 92.5 318.5Q82 345 82.5 362.0Q83 379 89 391Q103 414 155.0 431.0Q207 448 299 448Q412 448 437 399Q450 379 441.0 310.5Q432 242 405 191Q309 8 210 -36Q186 -45 177.5 -40.5Q169 -36 171 -26Z" fill="#8899a6" />
<path d="M244 334Q218 333 196 333Q117 333 83 351Q80 372 86 386Q87 385 87 384Q91 378 100.5 373.0Q110 368 147.5 364.0Q185 360 242 363Q273 364 299.5 369.0Q326 374 339.5 380.0Q353 386 353 391Q351 407 270 404Q256 403 242 402Q186 399 185 405Q184 414 239 420Q359 434 378 405Q386 394 380 381Q371 363 333.5 350.0Q296 337 244 334ZM315 239Q257 223 217 223Q181 223 152 230Q136 247 124 263Q118 272 112 282Q119 275 130.0 268.5Q141 262 165.5 255.0Q190 248 221.5 249.0Q253 250 302 258Q303 258 309.5 259.5Q316 261 321.0 262.0Q326 263 332.5 263.5Q339 264 343.0 263.0Q347 262 347 260Q348 255 336.0 248.5Q324 242 315 239Z" fill="#66757f" />
<path d="M432 374Q438 383 439 393Q445 376 444 343Q395 292 230 282Q191 280 190 292Q190 299 229 303Q397 319 432 374ZM210 141Q208 155 203 167Q226 143 303 144Q304 144 309.0 144.5Q314 145 317.5 145.0Q321 145 325.0 144.5Q329 144 331.5 143.0Q334 142 334 139Q334 134 325.0 129.5Q316 125 306 124Q285 121 268 121Q235 121 212 129Q211 137 210 141ZM294 205Q395 214 434 269Q427 242 418 219Q368 187 294 184Q291 183 285.0 183.5Q279 184 270.5 186.5Q262 189 262 195Q263 202 294 205ZM268 33Q269 26 260.0 23.0Q251 20 243 20Q213 21 197 35Q203 52 207 69Q209 62 214 56Q227 42 244 41Q268 39 268 33ZM369 127Q352 100 334 76Q309 69 281 69Q274 69 267 69Q259 70 250.5 73.5Q242 77 242 82Q243 90 269 92Q336 96 369 127Z" fill="#66757f" />
<path d="M173 421Q136 410 139 396Q145 376 220 376Q255 377 298 383Q322 386 321 393Q320 404 270 404Q351 407 353 391Q353 386 339.5 380.0Q326 374 299.5 369.0Q273 364 242 363Q185 360 147.5 364.0Q110 368 100.5 373.0Q91 378 87 384Q87 385 86 386Q88 389 89 391Q103 414 155.0 431.0Q207 448 299 448Q388 448 424 416Q423 416 423.0 416.0Q423 416 423 417Q386 436 313.5 438.0Q241 440 173 421Z" fill="#788895" />
<path d="M407 -64H20Q17 -57 17 -49Q17 -35 27.0 -24.5Q37 -14 52 -14Q52 -14 56 -15Q60 5 76.0 18.5Q92 32 113 32Q132 32 146.5 21.5Q161 11 168 -5Q177 -7 184 -13Q191 -11 196 -11Q214 -11 226 -23Q238 -2 262 -2Q274 -2 284 -8Q300 18 331 18Q352 18 368.0 4.0Q384 -10 386 -31Q408 -38 408 -60Q408 -61 407 -64Z" fill="#ccd6dd" />
</g></svg>