<svg xmlns="http://www.w3.org/2000/svg" viewBox="0 0 512 512">
<g transform="matrix(1 0 0 -1 0 512)">
<path d="M427 320Q438 298 468.0 146.0Q498 -6 498 -43Q498 -53 465.0 -56.5Q432 -60 427 -50Q424 -44 413.0 13.0Q402 70 393 124L384 178V-36Q384 -44 376.5 -48.0Q369 -52 354.5 -53.0Q340 -54 326.0 -53.0Q312 -52 290.5 -51.0Q269 -50 256.0 -50.0Q243 -50 221.5 -51.0Q200 -52 186.0 -53.0Q172 -54 157.5 -53.0Q143 -52 135.5 -48.0Q128 -44 128 -36V178Q97 -21 85 -50Q81 -60 47.5 -56.5Q14 -53 14 -43Q14 -6 44.0 146.0Q74 298 85 320Q96 340 129.0 358.5Q162 377 185 377Q184 378 183.0 380.0Q182 382 181.0 388.0Q180 394 180.5 399.5Q181 405 185.5 410.5Q190 416 199 420Q218 427 256.0 427.0Q294 427 313 420Q327 414 330.5 403.5Q334 393 330 385L327 377Q350 377 383.0 358.5Q416 340 427 320Z" fill="#55acee" />
<path d="M199 405Q199 410 201.0 412.5Q203 415 216.0 417.5Q229 420 256.0 420.0Q283 420 296.0 417.5Q309 415 311.0 412.5Q313 410 313 405Q313 398 295.0 387.5Q277 377 256.0 377.0Q235 377 217.0 387.5Q199 398 199 405Z" fill="#226699" />
<path d="M249 -36V363Q249 370 256.0 370.0Q263 370 263 363V-36Q263 -43 256.0 -43.0Q249 -43 249 -36ZM194 -29Q169 -29 142 -26Q134 -25 135.0 -18.0Q136 -11 143 -12Q206 -17 228 -12Q235 -11 236.5 -18.0Q238 -25 231 -26Q217 -29 194 -29ZM180 15Q159 15 139 16Q132 17 132.5 24.0Q133 31 140 31Q208 26 227 34Q233 36 236.0 29.5Q239 23 232 21Q218 15 180 15ZM197 60Q172 60 139 63Q132 63 132.5 70.5Q133 78 140 77Q215 71 226 77Q233 80 236.0 73.5Q239 67 233 64Q225 60 197 60ZM197 104Q170 104 139 108Q132 108 132.5 115.5Q133 123 140 122Q209 114 227 121Q233 124 236.0 117.5Q239 111 232 108Q222 104 197 104ZM197 154Q171 154 139 156Q132 157 132 164Q133 171 140 170Q210 166 228 170Q235 172 236.5 165.0Q238 158 231 156Q222 154 197 154ZM139 201Q133 201 132 210Q132 218 139 218L229 221Q236 221 237 215Q237 206 230 205L140 201ZM235 348Q222 348 196 363Q189 366 192.5 372.0Q196 378 203 375Q225 363 236 362Q243 362 243 355Q242 348 235 348ZM378 266Q376 266 374 268Q368 272 372 278L405 321Q409 327 414.5 322.5Q420 318 416 313L384 269Q381 266 378 266Z" fill="#3b88c3" />
<path d="M250 -36V363Q250 370 257.0 370.0Q264 370 264 363V-36Q264 -43 257.0 -43.0Q250 -43 250 -36ZM391 224Q386 224 385 229Q382 236 389 238L432 252Q439 254 441.0 247.5Q443 241 436 239L394 225Q393 224 391 224ZM400 175Q395 175 393 179Q391 186 398 189L440 203Q447 205 449.5 198.0Q452 191 445 189L402 175Q401 175 400 175ZM408 125Q403 125 401 130Q399 137 406 139L449 153Q455 155 457.5 148.5Q460 142 453 140L410 125Q409 125 408 125ZM417 75Q412 76 411 80Q409 87 415 89L458 103Q465 105 467.0 98.5Q469 92 463 89L420 76Q419 75 417 75ZM426 27Q421 27 419 32Q418 39 425 41L468 52Q475 53 477.0 46.5Q479 40 472 38L428 27Q427 27 426 27ZM434 -22Q429 -21 428 -16Q426 -9 433 -8L477 2Q484 4 485.5 -3.0Q487 -10 480 -12L436 -22Q435 -22 434 -22ZM319 -29Q295 -29 282 -26Q275 -25 276.5 -18.0Q278 -11 285 -12Q313 -18 370 -12Q377 -11 377.5 -18.0Q378 -25 371 -26Q346 -29 319 -29ZM333 15Q294 15 281 20Q274 23 276.5 29.5Q279 36 286 34Q305 26 373 31Q380 31 380.5 24.0Q381 17 374 16Q352 15 333 15ZM315 60Q288 60 280 64Q274 67 277.0 73.5Q280 80 286 77Q298 71 373 77Q380 78 380.5 70.5Q381 63 374 63Q341 60 315 60ZM281 108Q274 111 276.5 117.5Q279 124 286 121Q304 114 372 122Q379 123 380.0 115.5Q381 108 374 108Q341 104 315.5 104.0Q290 104 281 108ZM315 154Q290 154 281 156Q274 158 276.0 165.0Q278 172 284 170Q302 166 372 170Q380 171 380 164Q380 157 373 156Q342 154 315 154ZM373 201 283 205Q276 206 276 214Q276 221 283 221L373 219Q380 219 380.0 210.0Q380 201 373 201ZM285 252Q279 252 278 259Q277 266 284 267L353 274Q360 274 360.5 267.0Q361 260 354 260L286 252ZM286 303Q281 303 280 307Q277 314 284 317Q307 326 373 330Q380 331 381 323Q381 316 374 316Q311 313 289 303Q288 303 286 303ZM135 266Q131 266 129 269L97 313Q93 318 98.5 322.5Q104 327 108 321L141 278Q145 272 139 268Q137 266 135 266ZM122 224Q120 224 119 225L77 239Q70 241 72.0 247.5Q74 254 81 252L124 238Q131 236 128 229Q127 224 122 224ZM113 175Q112 175 111 175L68 189Q61 191 63.5 198.0Q66 205 73 203L115 189Q122 186 120 179Q118 175 113 175ZM105 125Q104 125 102 125L60 140Q53 142 55.5 148.5Q58 155 64 153L107 139Q114 137 111 130Q110 125 105 125ZM96 75Q94 75 93 76L50 89Q44 92 46.0 98.5Q48 105 55 103L98 89Q104 87 102 80Q101 76 96 75ZM87 27Q86 27 85 27L41 38Q34 40 36.0 46.5Q38 53 45 52L88 41Q95 39 93 32Q92 27 87 27ZM79 -22Q78 -22 77 -22L33 -12Q26 -10 27.5 -3.0Q29 4 36 2L80 -8Q87 -9 85 -16Q84 -21 79 -22ZM228 252H227L159 260Q152 260 152.5 267.0Q153 274 160 274L229 267Q236 266 235 259Q234 252 228 252ZM227 303Q225 303 224 303Q202 313 139 316Q132 316 132.5 323.5Q133 331 140 330Q206 326 229 317Q236 314 233 307Q232 303 227 303ZM277 348Q270 348 270 355Q270 362 277 362Q288 363 310 375Q316 378 319.5 372.0Q323 366 317 363Q291 348 278 348Z" fill="#3b88c3" />
</g></svg>