<svg xmlns="http://www.w3.org/2000/svg" viewBox="0 0 512 512">
<g transform="matrix(1 0 0 -1 0 512)">
<path d="M270 160V16Q309 -4 343 -24Q352 -29 352.0 -34.5Q352 -40 348.5 -43.5Q345 -47 343 -48Q343 -48 336.5 -50.5Q330 -53 324.0 -55.0Q318 -57 307.0 -59.0Q296 -61 280.5 -62.5Q265 -64 247 -64Q190 -64 150 -48Q144 -46 142.0 -39.0Q140 -32 149 -25L228 16V160Q64 311 47 328Q32 344 50.0 353.5Q68 363 87 363H407Q441 363 452 346Q457 338 449 331Z" fill="#8899a6" />
<path d="M455 342Q455 327 406 315Q277 204 270 199Q263 193 251.0 193.0Q239 193 230 200Q139 275 93 314Q39 326 39 342Q39 359 100.0 371.5Q161 384 247.0 384.0Q333 384 394.0 371.5Q455 359 455 342Z" fill="#ccd6dd" />
<path d="M240 213Q234 216 243 232L349 438Q357 452 370.5 444.0Q384 436 377 423L253 225Q245 210 240 213Z" fill="#662113" />
<path d="M309 336Q322 329 328.0 311.5Q334 294 326 279Q318 264 299.0 260.0Q280 256 268 264Q255 271 249.0 287.5Q243 304 251 321Q260 337 279.0 340.5Q298 344 309 336Z" fill="#5c913b" />
<path d="M239 295Q158 295 86 316H84Q79 318 76.0 323.0Q73 328 74.5 334.0Q76 340 81.5 342.5Q87 345 92 344L94 343Q234 302 407 345Q413 346 418.0 343.0Q423 340 424.5 334.5Q426 329 423.0 324.0Q420 319 414 317Q323 295 239 295Z" fill="#ffffff" />
</g></svg>