<svg xmlns="http://www.w3.org/2000/svg" viewBox="0 0 512 512">
<g transform="matrix(1 0 0 -1 0 512)">
<path d="M441 277 421 132 105 -64 71 50Z" fill="#c1694f" />
<path d="M14 135 105 50V-64L14 26Z" fill="#662113" />
<path d="M484 377V267L421 132V235L441 320Z" fill="#a04e3c" />
<path d="M484 377 421 237 105 41 14 135 255 418 406 448Z" fill="#d99e82" />
<path d="M171 21Q163 21 159 28Q151 39 163 47L205 76Q217 84 225.0 72.0Q233 60 221 52L179 24Q175 21 171 21ZM327 121Q319 121 315 127Q307 139 319 147L362 175Q374 183 382.0 171.5Q390 160 378 152L335 123Q331 121 327 121Z" fill="#ffac33" />
<path d="M128 92Q122 92 118 97L75 139Q66 149 75 159L288 387Q292 390 296 391L382 405Q389 406 394 401L422 373Q429 366 426 357L397 286Q396 282 392 280L136 95Q133 92 128 92ZM105 150 129 125 372 301 396 359 379 376 306 364Z" fill="#c1694f" />
</g></svg>