<svg xmlns="http://www.w3.org/2000/svg" viewBox="0 0 2048 2048">
<g transform="matrix(1 0 0 -1 0 2048)">
<path d="M479 447Q483 447 487.5 445.0Q492 443 495.5 440.0Q499 437 497.0 432.0Q495 427 485 422Q454 402 424.5 369.5Q395 337 372.0 300.0Q349 263 333.0 232.5Q317 202 305 172Q294 145 279.0 104.5Q264 64 255.5 43.5Q247 23 233.0 0.5Q219 -22 203 -34Q177 -52 151.0 -57.5Q125 -63 105.0 -57.0Q85 -51 71.5 -43.0Q58 -35 51 -26Q22 9 24.0 58.5Q26 108 50.0 159.5Q74 211 121.0 262.5Q168 314 230 353Q388 453 479 447Z" fill="#5dadec" />
<path d="M236 254Q248 273 307.0 317.5Q366 362 396 377Q351 338 307.0 252.0Q263 166 235 85Q232 77 228 77Q225 78 223 84Q211 118 173.5 138.0Q136 158 84 137Q78 135 78 140Q78 152 102.0 188.0Q126 224 169.5 266.0Q213 308 255 327Q232 270 236 254Z" fill="#8ccaf7" />
<path d="M203 263Q191 209 203.5 205.5Q216 202 260 242Q254 232 249.0 220.0Q244 208 241.0 197.5Q238 187 235.5 173.5Q233 160 232.0 151.0Q231 142 230.0 129.0Q229 116 229.0 110.0Q229 104 228.5 91.5Q228 79 228 77Q225 78 223 84Q211 118 173.5 138.0Q136 158 84 137Q78 135 78 140Q93 166 138.5 210.0Q184 254 203 263Z" fill="#bdddf4" />
<path d="M71.0 89.0Q93 111 124.0 111.0Q155 111 177.0 89.0Q199 67 199.0 36.0Q199 5 177.0 -17.0Q155 -39 124.0 -39.0Q93 -39 71.0 -17.0Q49 5 49.0 36.0Q49 67 71.0 89.0Z" fill="#f5f8fa" />
</g></svg>