<svg xmlns="http://www.w3.org/2000/svg" viewBox="0 0 2048 2048">
<g transform="matrix(1 0 0 -1 0 2048)">
<path d="M512 192Q512 86 437.0 11.0Q362 -64 256.0 -64.0Q150 -64 75.0 11.0Q0 86 0.0 192.0Q0 298 75.0 373.0Q150 448 256.0 448.0Q362 448 437.0 373.0Q512 298 512 192Z" fill="#ffcc4d" />
<path d="M85 263Q79 263 75.0 267.0Q71 271 71.0 277.0Q71 283 75.0 287.5Q79 292 85 292Q92 292 101.5 293.5Q111 295 134.0 307.5Q157 320 174 343Q182 354 193.5 345.5Q205 337 196 326Q183 308 167.0 295.5Q151 283 138.0 277.0Q125 271 112.0 267.5Q99 264 94.0 263.5Q89 263 85 263ZM427 263Q423 263 418.0 263.5Q413 264 400.0 267.5Q387 271 374.0 277.0Q361 283 345.0 295.5Q329 308 316 326Q307 337 318.5 345.5Q330 354 338 343Q355 320 378.0 307.5Q401 295 411.0 293.5Q421 292 427 292Q433 291 437.0 287.0Q441 283 441.0 277.0Q441 271 437.0 267.0Q433 263 427 263ZM85 135Q78 135 74 141Q65 152 77 161Q118 192 174 202Q138 220 100 220Q94 220 89.5 224.5Q85 229 85.0 235.0Q85 241 89.5 245.0Q94 249 100 249Q109 249 123.5 247.5Q138 246 170.5 234.5Q203 223 223 202Q230 195 226.5 186.5Q223 178 213 178Q184 178 153.0 167.0Q122 156 111.0 149.0Q100 142 94 138Q90 135 85 135ZM427 135Q422 135 418 138Q413 142 401.5 149.0Q390 156 359.0 167.0Q328 178 299 178Q289 178 285.5 186.5Q282 195 289 202Q309 223 341.5 234.5Q374 246 388.5 247.5Q403 249 412 249Q418 249 422.5 245.0Q427 241 427.0 235.0Q427 229 422.5 224.5Q418 220 412 220Q374 220 338 202Q395 191 435 161Q447 152 438 141Q434 135 427 135ZM245 27 199 83 168 41Q164 36 157.5 35.5Q151 35 146 40L132 54Q122 64 132.0 74.0Q142 84 152 74L155 71L188 115Q192 121 199.0 121.0Q206 121 210 116L256 58L302 116Q306 121 313.0 121.0Q320 121 324 115L357 71L360 74Q370 84 380.0 74.0Q390 64 380 54L366 40Q361 35 354.5 35.5Q348 36 344 41L313 83L267 27Q263 21 256.0 21.0Q249 21 245 27Z" fill="#664500" />
</g></svg>