<svg xmlns="http://www.w3.org/2000/svg" viewBox="0 0 512 512">
<g transform="matrix(1 0 0 -1 0 512)">
<path d="M512 192Q512 86 437.0 11.0Q362 -64 256.0 -64.0Q150 -64 75.0 11.0Q0 86 0.0 192.0Q0 298 75.0 373.0Q150 448 256.0 448.0Q362 448 437.0 373.0Q512 298 512 192Z" fill="#ffcc4d" />
<path d="M138.5 178.5Q128 193 128.0 213.5Q128 234 138.5 248.5Q149 263 163.5 263.0Q178 263 188.5 248.5Q199 234 199.0 213.5Q199 193 188.5 178.5Q178 164 163.5 164.0Q149 164 138.5 178.5ZM323.5 178.5Q313 193 313.0 213.5Q313 234 323.5 248.5Q334 263 348.5 263.0Q363 263 373.5 248.5Q384 234 384.0 213.5Q384 193 373.5 178.5Q363 164 348.5 164.0Q334 164 323.5 178.5ZM171 50Q184 82 230.0 98.0Q276 114 316.0 110.5Q356 107 356 92Q356 89 343.5 88.5Q331 88 310.5 87.5Q290 87 266.5 85.0Q243 83 216.5 74.5Q190 66 171 50Z" fill="#664500" />
</g></svg>