<svg xmlns="http://www.w3.org/2000/svg" viewBox="0 0 2048 2048">
<g transform="matrix(1 0 0 -1 0 2048)">
<path d="M512 -7Q512 -31 495.5 -47.5Q479 -64 455 -64H57Q33 -64 16.5 -47.5Q0 -31 0 -7V391Q0 415 16.5 431.5Q33 448 57 448H455Q479 448 495.5 431.5Q512 415 512 391Z" fill="#ccd6dd" />
<path d="M384.0 145.0Q374 145 374.0 155.0Q374 165 384.0 165.0Q394 165 394.0 155.0Q394 145 384.0 145.0ZM429.5 132.0Q420 132 420.0 142.0Q420 152 429.5 152.0Q439 152 439.0 142.0Q439 132 429.5 132.0ZM338.5 132.0Q329 132 329.0 142.0Q329 152 338.5 152.0Q348 152 348.0 142.0Q348 132 338.5 132.0ZM306.0 100.0Q296 100 296.0 109.5Q296 119 306.0 119.0Q316 119 316.0 109.5Q316 100 306.0 100.0ZM293.0 54.0Q283 54 283.0 64.0Q283 74 293.0 74.0Q303 74 303.0 64.0Q303 54 293.0 54.0ZM462.0 100.0Q452 100 452.0 109.5Q452 119 462.0 119.0Q472 119 472.0 109.5Q472 100 462.0 100.0ZM128.0 145.0Q118 145 118.0 155.0Q118 165 128.0 165.0Q138 165 138.0 155.0Q138 145 128.0 145.0ZM173.5 132.0Q164 132 164.0 142.0Q164 152 173.5 152.0Q183 152 183.0 142.0Q183 132 173.5 132.0ZM82.5 132.0Q73 132 73.0 142.0Q73 152 82.5 152.0Q92 152 92.0 142.0Q92 132 82.5 132.0ZM50.0 100.0Q40 100 40.0 109.5Q40 119 50.0 119.0Q60 119 60.0 109.5Q60 100 50.0 100.0ZM37.0 54.0Q27 54 27.0 64.0Q27 74 37.0 74.0Q47 74 47.0 64.0Q47 54 37.0 54.0ZM206.0 100.0Q196 100 196.0 109.5Q196 119 206.0 119.0Q216 119 216.0 109.5Q216 100 206.0 100.0ZM384.0 387.0Q374 387 374.0 397.0Q374 407 384.0 407.0Q394 407 394.0 397.0Q394 387 384.0 387.0ZM429.5 374.0Q420 374 420.0 384.0Q420 394 429.5 394.0Q439 394 439.0 384.0Q439 374 429.5 374.0ZM338.5 374.0Q329 374 329.0 384.0Q329 394 338.5 394.0Q348 394 348.0 384.0Q348 374 338.5 374.0ZM306.0 342.0Q296 342 296.0 351.5Q296 361 306.0 361.0Q316 361 316.0 351.5Q316 342 306.0 342.0ZM293.0 296.0Q283 296 283.0 306.0Q283 316 293.0 316.0Q303 316 303.0 306.0Q303 296 293.0 296.0ZM462.0 342.0Q452 342 452.0 351.5Q452 361 462.0 361.0Q472 361 472.0 351.5Q472 342 462.0 342.0ZM128.0 387.0Q118 387 118.0 397.0Q118 407 128.0 407.0Q138 407 138.0 397.0Q138 387 128.0 387.0ZM173.5 374.0Q164 374 164.0 384.0Q164 394 173.5 394.0Q183 394 183.0 384.0Q183 374 173.5 374.0ZM82.5 374.0Q73 374 73.0 384.0Q73 394 82.5 394.0Q92 394 92.0 384.0Q92 374 82.5 374.0ZM50.0 342.0Q40 342 40.0 351.5Q40 361 50.0 361.0Q60 361 60.0 351.5Q60 342 50.0 342.0ZM37.0 296.0Q27 296 27.0 306.0Q27 316 37.0 316.0Q47 316 47.0 306.0Q47 296 37.0 296.0ZM206.0 342.0Q196 342 196.0 351.5Q196 361 206.0 361.0Q216 361 216.0 351.5Q216 342 206.0 342.0Z" fill="#67757f" />
<path d="M475.0 54.0Q465 54 465.0 64.0Q465 74 475.0 74.0Q485 74 485.0 64.0Q485 54 475.0 54.0ZM219.0 54.0Q209 54 209.0 64.0Q209 74 219.0 74.0Q229 74 229.0 64.0Q229 54 219.0 54.0ZM475.0 296.0Q465 296 465.0 306.0Q465 316 475.0 316.0Q485 316 485.0 306.0Q485 296 475.0 296.0ZM219.0 296.0Q209 296 209.0 306.0Q209 316 219.0 316.0Q229 316 229.0 306.0Q229 296 219.0 296.0Z" fill="#da2f47" />
<path d="M335.0 15.0Q315 35 315.0 64.0Q315 93 335.0 113.0Q355 133 384.0 133.0Q413 133 433.0 113.0Q453 93 453.0 64.0Q453 35 433.0 15.0Q413 -5 384.0 -5.0Q355 -5 335.0 15.0ZM79.0 15.0Q59 35 59.0 64.0Q59 93 79.0 113.0Q99 133 128.0 133.0Q157 133 177.0 113.0Q197 93 197.0 64.0Q197 35 177.0 15.0Q157 -5 128.0 -5.0Q99 -5 79.0 15.0ZM335.0 256.5Q315 277 315.0 306.0Q315 335 335.0 355.0Q355 375 384.0 375.0Q413 375 433.0 355.0Q453 335 453.0 306.0Q453 277 433.0 256.5Q413 236 384.0 236.0Q355 236 335.0 256.5ZM79.0 256.5Q59 277 59.0 306.0Q59 335 79.0 355.0Q99 375 128.0 375.0Q157 375 177.0 355.0Q197 335 197.0 306.0Q197 277 177.0 256.5Q157 236 128.0 236.0Q99 236 79.0 256.5Z" fill="#000000" />
<path d="M343.5 23.5Q327 40 327.0 64.0Q327 88 343.5 104.5Q360 121 384.0 121.0Q408 121 424.5 104.5Q441 88 441.0 64.0Q441 40 424.5 23.5Q408 7 384.0 7.0Q360 7 343.5 23.5ZM87.5 23.5Q71 40 71.0 64.0Q71 88 87.5 104.5Q104 121 128.0 121.0Q152 121 168.5 104.5Q185 88 185.0 64.0Q185 40 168.5 23.5Q152 7 128.0 7.0Q104 7 87.5 23.5ZM343.5 265.5Q327 282 327.0 305.5Q327 329 343.5 346.0Q360 363 384.0 363.0Q408 363 424.5 346.0Q441 329 441.0 305.5Q441 282 424.5 265.5Q408 249 384.0 249.0Q360 249 343.5 265.5ZM87.5 265.5Q71 282 71.0 305.5Q71 329 87.5 346.0Q104 363 128.0 363.0Q152 363 168.5 346.0Q185 329 185.0 305.5Q185 282 168.5 265.5Q152 249 128.0 249.0Q104 249 87.5 265.5Z" fill="#292f33" />
<path d="M401 105Q404 111 410.0 107.5Q416 104 412 98L388 58Q385 52 379.0 55.5Q373 59 377 65ZM87 80Q81 83 84.5 89.0Q88 95 93 92L134 68Q140 65 136.5 59.0Q133 53 127 57ZM356 340Q352 346 358.0 349.5Q364 353 367 347L391 307Q395 301 389.0 297.5Q383 294 380 300ZM163 333Q168 337 171.5 331.0Q175 325 169 322L129 298Q123 295 119.5 301.0Q116 307 122 310Z" fill="#e1e8ed" />
</g></svg>