<svg xmlns="http://www.w3.org/2000/svg" viewBox="0 0 2048 2048">
<g transform="matrix(1 0 0 -1 0 2048)">
<path d="M14 206H498Q498 198 496.0 182.5Q494 167 487.0 140.5Q480 114 470.0 87.5Q460 61 441.0 33.5Q422 6 397.5 -15.5Q373 -37 336.5 -50.5Q300 -64 256.0 -64.0Q212 -64 175.5 -52.0Q139 -40 115.0 -20.5Q91 -1 72.0 25.0Q53 51 42.5 76.0Q32 101 25.0 128.0Q18 155 16.0 173.5Q14 192 14 206Z" fill="#dd2e44" />
<path d="M85.0 110.5Q14 150 14.0 205.5Q14 261 85.0 300.5Q156 340 256.0 340.0Q356 340 427.0 300.5Q498 261 498.0 205.5Q498 150 427.0 110.5Q356 71 256.0 71.0Q156 71 85.0 110.5Z" fill="#a0041e" />
<path d="M256 92Q211 92 159.5 105.5Q108 119 68.0 146.0Q28 173 28 206Q28 275 92.0 333.0Q156 391 256 391Q306 391 350.5 372.5Q395 354 423.0 325.5Q451 297 467.5 265.5Q484 234 484 206Q484 173 447.0 146.0Q410 119 359.0 105.5Q308 92 256 92Z" fill="#e6e9ea" />
<path d="M219 165Q230 156 220.5 145.0Q211 134 201 144L179 162Q168 171 177.5 182.0Q187 193 198 184ZM104 187Q96 175 84.0 182.5Q72 190 80 202L96 226Q103 238 115.0 230.0Q127 222 119 210ZM431 187Q423 175 411.0 182.5Q399 190 407 202L423 226Q430 238 442.0 230.0Q454 222 446 210ZM344 238Q345 232 342.0 227.0Q339 222 333.0 221.0Q327 220 322.0 223.0Q317 226 316 232L310 260Q309 266 312.5 271.0Q316 276 321.5 277.0Q327 278 332.0 274.5Q337 271 338 266ZM237 294Q228 298 231.5 306.5Q235 315 244 312L262 305Q271 301 267.0 292.0Q263 283 254 287ZM104 272Q97 266 91.5 274.0Q86 282 94 288L109 298Q117 304 122.5 296.0Q128 288 120 283ZM298 150Q292 151 288.0 155.5Q284 160 284.5 165.5Q285 171 289.5 175.0Q294 179 300 179L328 177Q334 176 338.0 172.0Q342 168 341.5 162.0Q341 156 336.5 152.0Q332 148 326 148ZM166 241Q153 246 158.5 259.5Q164 273 177 267L203 257Q217 251 211.5 238.0Q206 225 193 230ZM393 280Q384 283 387.5 292.0Q391 301 400 298L418 290Q427 287 423.5 278.0Q420 269 411 273Z" fill="#ccd6dd" />
</g></svg>