<svg xmlns="http://www.w3.org/2000/svg" viewBox="0 0 512 512">
<g transform="matrix(1 0 0 -1 0 512)">
<path d="M497 194Q504 116 429 20Q389 -23 302 -41Q231 -65 164 -28Q160 -26 143.0 -21.0Q126 -16 119 -11Q70 20 37 103Q8 155 16 242Q18 251 26.5 266.0Q35 281 36 285Q52 331 87 363Q90 365 101.0 378.5Q112 392 119.5 397.5Q127 403 144.0 408.0Q161 413 164 414Q165 415 182.0 423.0Q199 431 208 433Q212 435 231.5 433.0Q251 431 255 431Q308 433 349 420Q357 417 370.5 405.5Q384 394 387 392Q389 391 404.5 381.5Q420 372 427 366Q463 330 483 288Q496 246 497 194Z" fill="#da9f83" />
<path d="M322 207Q335 211 346.5 205.0Q358 199 362.0 186.5Q366 174 360.0 162.0Q354 150 342 146Q329 141 307.0 145.0Q285 149 281.0 160.5Q277 172 292.0 187.0Q307 202 322 207ZM444 217Q434 205 422.5 214.5Q411 224 421 236Q425 242 434.5 245.5Q444 249 449 246Q453 241 451.0 231.5Q449 222 444 217ZM131 316Q121 304 109.5 314.0Q98 324 108 336Q112 341 121.5 345.0Q131 349 136 345Q140 340 138.0 331.0Q136 322 131 316ZM303 343Q295 348 293.0 357.5Q291 367 296.0 375.0Q301 383 310.5 385.0Q320 387 328 382Q337 376 344.5 362.5Q352 349 347 342Q341 335 326.5 336.0Q312 337 303 343ZM190 255Q185 266 189.0 278.0Q193 290 204.5 295.5Q216 301 228.0 296.5Q240 292 245 281Q252 270 251.0 248.5Q250 227 239.5 222.0Q229 217 213.0 229.0Q197 241 190 255ZM205 54Q211 63 222.0 65.5Q233 68 242.5 61.5Q252 55 254.0 43.5Q256 32 250 23Q242 12 226.0 3.5Q210 -5 201 1Q193 9 195.0 26.0Q197 43 205 54ZM347 60Q340 65 338.0 73.0Q336 81 340.5 88.5Q345 96 353.5 98.0Q362 100 370 95Q378 90 385.0 77.5Q392 65 388 59Q382 52 369.0 53.0Q356 54 347 60ZM79 186Q87 195 99.0 195.5Q111 196 120.0 188.0Q129 180 130.0 168.0Q131 156 123 147Q113 136 95.5 129.5Q78 123 68 130Q60 139 64.5 157.5Q69 176 79 186Z" fill="#8a4b38" />
</g></svg>