<svg xmlns="http://www.w3.org/2000/svg" viewBox="0 0 512 512">
<g transform="matrix(1 0 0 -1 0 512)">
<path d="M441 28Q441 20 434.5 13.5Q428 7 419.5 7.0Q411 7 404.5 13.5Q398 20 398 28V370Q398 379 404.5 385.0Q411 391 419.5 391.0Q428 391 434.5 385.0Q441 379 441 370Z" fill="#ccd6dd" />
<path d="M496 -7H341Q341 -3 341 0Q341 21 363.5 35.5Q386 50 418.5 50.0Q451 50 474.0 35.5Q497 21 497 0Q497 -3 496 -7Z" fill="#ccd6dd" />
<path d="M511 320Q515 309 505.0 300.5Q495 292 483 292H355Q343 292 333.0 301.0Q323 310 326 320L355 420Q361 448 383 448H454Q475 448 483 420Z" fill="#fcab40" />
<path d="M413 34Q413 21 403.5 12.0Q394 3 380 3H90Q76 3 66.5 12.0Q57 21 57 34V175Q57 188 66.5 197.0Q76 206 90 206H380Q394 206 403.5 197.0Q413 188 413 175Z" fill="#5d9040" />
<path d="M391 3Q391 -10 382.0 -19.0Q373 -28 360 -28H94Q81 -28 72.0 -19.0Q63 -10 63 3V18Q63 31 72.0 40.5Q81 50 94 50H360Q373 50 382.0 40.5Q391 31 391 18Z" fill="#3f7123" />
<path d="M109.0 114.5Q57 140 57.0 176.0Q57 212 109.0 237.5Q161 263 234.5 263.0Q308 263 360.0 237.5Q412 212 412.0 176.0Q412 140 360.0 114.5Q308 89 234.5 89.0Q161 89 109.0 114.5Z" fill="#5d9040" />
<path d="M80.0 145.5Q94 132 94.0 112.5Q94 93 80.0 79.0Q66 65 46.5 65.0Q27 65 13.5 79.0Q0 93 0.0 112.5Q0 132 13.5 145.5Q27 159 46.5 159.0Q66 159 80.0 145.5Z" fill="#78b159" />
<path d="M94 -28Q94 -41 85.0 -50.5Q76 -60 63.0 -60.0Q50 -60 40.5 -50.5Q31 -41 31 -28V112Q31 125 40.5 134.5Q50 144 63.0 144.0Q76 144 85.0 134.5Q94 125 94 112ZM389.0 79.0Q375 93 375.0 112.5Q375 132 389.0 145.5Q403 159 422.5 159.0Q442 159 455.5 145.5Q469 132 469.0 112.5Q469 93 455.5 79.0Q442 65 422.5 65.0Q403 65 389.0 79.0Z" fill="#78b159" />
<path d="M375 -28V112Q375 125 384.5 134.5Q394 144 407.0 144.0Q420 144 429.0 134.5Q438 125 438 112V-28Q438 -41 429.0 -50.5Q420 -60 407.0 -60.0Q394 -60 384.5 -50.5Q375 -41 375 -28ZM203 18H125Q112 18 103.0 27.5Q94 37 94.0 50.0Q94 63 103.0 72.0Q112 81 125 81H203Q216 81 225.5 72.0Q235 63 235.0 50.0Q235 37 225.5 27.5Q216 18 203 18ZM344 18H266Q253 18 244.0 27.5Q235 37 235.0 50.0Q235 63 244.0 72.0Q253 81 266 81H344Q357 81 366.0 72.0Q375 63 375.0 50.0Q375 37 366.0 27.5Q357 18 344 18Z" fill="#78b159" />
<path d="M85 50H384V7H85Z" fill="#78b159" />
</g></svg>