<svg xmlns="http://www.w3.org/2000/svg" viewBox="0 0 2048 2048">
<g transform="matrix(1 0 0 -1 0 2048)">
<path d="M91.5 165.5Q98 161 99.0 154.5Q100 148 94.0 142.5Q88 137 79.5 136.0Q71 135 64.0 139.0Q57 143 56.5 150.0Q56 157 61.5 162.5Q67 168 76.0 169.0Q85 170 91.5 165.5ZM129 116Q130 108 115.5 93.5Q101 79 92 78Q83 77 76.0 82.0Q69 87 68 96Q66 110 88 114Q90 114 96.0 115.5Q102 117 107.0 118.5Q112 120 117.0 120.5Q122 121 125.0 120.0Q128 119 129 116ZM154 86Q156 77 142.0 53.0Q128 29 119 28Q97 23 94 37Q92 46 96.5 54.0Q101 62 109 64Q114 64 125.0 72.5Q136 81 144.5 86.0Q153 91 154 86ZM209 74Q211 65 199.0 38.0Q187 11 178 9Q170 7 163.5 7.0Q157 7 155 15Q154 23 158.0 34.0Q162 45 170 51Q199 75 204 76Q208 77 209 74Z" fill="#a0041e" />
<path d="M56 180Q57 179 58 177Q65 169 66.5 165.0Q68 161 62 154Q54 148 45.0 150.5Q36 153 29 161Q20 172 10.5 192.5Q1 213 7 219Q16 226 56 180ZM61 110Q88 101 83 86Q77 68 51 76Q37 81 18.0 93.0Q-1 105 2 113Q4 119 16.5 118.5Q29 118 40.0 115.5Q51 113 61 110ZM78 46Q104 53 108 37Q114 18 92 12Q84 9 70.0 7.5Q56 6 42.0 7.0Q28 8 26.5 14.0Q25 20 35.5 27.0Q46 34 57.5 38.5Q69 43 78 46ZM140 0Q141 11 146.5 17.5Q152 24 162 23Q181 21 179 -5Q179 -6 178.5 -15.0Q178 -24 177.0 -29.5Q176 -35 174.0 -42.5Q172 -50 167.0 -55.0Q162 -60 154 -62Q146 -64 142.0 -39.5Q138 -15 140 0ZM418.0 142.5Q412 148 413.0 154.5Q414 161 420.5 165.5Q427 170 436.0 169.0Q445 168 450.5 162.5Q456 157 455.5 150.0Q455 143 448.0 139.0Q441 135 432.5 136.0Q424 137 418.0 142.5ZM383 116Q384 119 387.0 120.0Q390 121 395.0 120.5Q400 120 405.0 118.5Q410 117 416.0 115.5Q422 114 424 114Q446 110 444 96Q443 87 436.0 82.0Q429 77 420 78Q411 79 396.5 93.5Q382 108 383 116ZM358 86Q359 91 367.5 86.0Q376 81 387.0 72.5Q398 64 403 64Q411 62 415.5 54.0Q420 46 418 37Q415 23 393 28Q384 29 370.0 53.0Q356 77 358 86ZM340 53Q341 52 342 51Q350 45 354.0 34.0Q358 23 357 15Q355 7 348.5 7.0Q342 7 334 9Q325 11 313.0 38.0Q301 65 303.0 74.0Q305 83 340 53Z" fill="#a0041e" />
<path d="M456 180Q496 226 505 219Q511 213 501.5 192.5Q492 172 483 161Q476 153 467.0 150.5Q458 148 450 154Q444 161 445.5 165.0Q447 169 454 177Q455 179 456 180ZM451 110Q461 113 472.0 115.5Q483 118 495.5 118.5Q508 119 510 113Q513 105 494.0 93.0Q475 81 461 76Q435 68 429 86Q424 101 451 110ZM434 46Q443 43 454.5 38.5Q466 34 476.5 27.0Q487 20 485.5 14.0Q484 8 470.0 7.0Q456 6 442.0 7.5Q428 9 420 12Q398 18 404 37Q408 53 434 46ZM372 0Q374 -15 370.0 -39.5Q366 -64 358 -62Q350 -60 345.0 -55.0Q340 -50 338.0 -42.5Q336 -35 335.0 -29.5Q334 -24 333.5 -15.0Q333 -6 333 -5Q331 21 350 23Q360 24 365.5 17.5Q371 11 372 0ZM45 251Q41 260 44.5 269.0Q48 278 57.0 282.5Q66 287 75.5 283.0Q85 279 89 270Q125 190 114 185Q106 181 78.0 210.0Q50 239 45 251Z" fill="#a0041e" />
<path d="M57 277Q52 290 72.5 311.0Q93 332 121.5 354.0Q150 376 155 383Q160 390 163.5 398.5Q167 407 168.0 412.5Q169 418 169.5 423.0Q170 428 170.5 429.5Q171 431 172 430Q190 416 182 366Q177 336 131 296Q80 253 61 270Q58 273 57 277ZM467 251Q462 239 434.0 210.0Q406 181 398 185Q387 190 423 270Q427 279 436.5 283.0Q446 287 455.0 282.5Q464 278 467.5 269.0Q471 260 467 251Z" fill="#a0041e" />
<path d="M455 277Q444 249 393 287Q347 321 333 356Q331 362 330 366Q322 416 340 430Q341 431 341.5 429.5Q342 428 342.5 423.0Q343 418 344.0 412.5Q345 407 348.5 398.5Q352 390 357 383Q362 376 390.5 354.0Q419 332 439.5 311.0Q460 290 455 277Z" fill="#a0041e" />
<path d="M85 135Q85 146 89.0 161.0Q93 176 104.5 197.0Q116 218 134.0 235.5Q152 253 184.0 265.0Q216 277 256.0 277.0Q296 277 328.0 265.0Q360 253 378.0 235.5Q396 218 407.5 197.0Q419 176 423.0 161.0Q427 146 427 135Q405 122 383.5 102.0Q362 82 349.5 69.0Q337 56 313.0 46.0Q289 36 256 36Q223 36 201.0 45.5Q179 55 167.5 68.5Q156 82 134.0 102.0Q112 122 85 135ZM61 274Q37 270 42 314Q49 365 78 406Q83 413 88 418Q109 436 131.0 441.0Q153 446 161 443Q164 442 159.5 432.5Q155 423 147.0 407.5Q139 392 136 383Q127 359 104.0 318.5Q81 278 61 274ZM451 274Q431 278 408.0 318.5Q385 359 376 383Q373 392 365.0 407.5Q357 423 352.5 432.5Q348 442 351 443Q359 446 381.0 441.0Q403 436 424 418Q449 395 465 336Q481 274 455 274Q453 274 451 274Z" fill="#be1931" />
<path d="M242 275Q245 261 242.5 256.5Q240 252 230 250Q206 244 201 265Q197 279 200.5 291.0Q204 303 212.5 305.0Q221 307 230.0 298.5Q239 290 242 275ZM311 265Q306 244 282 250Q272 252 269.5 256.5Q267 261 270 275Q273 290 282.0 298.5Q291 307 299.5 305.0Q308 303 311.5 291.0Q315 279 311 265Z" fill="#a0041e" />
<path d="M191.0 298.0Q185 304 185.0 313.0Q185 322 191.0 328.0Q197 334 206.0 334.0Q215 334 221.5 328.0Q228 322 228.0 313.0Q228 304 221.5 298.0Q215 292 206.0 292.0Q197 292 191.0 298.0ZM290.5 298.0Q284 304 284.0 313.0Q284 322 290.5 328.0Q297 334 306.0 334.0Q315 334 321.0 328.0Q327 322 327.0 313.0Q327 304 321.0 298.0Q315 292 306.0 292.0Q297 292 290.5 298.0Z" fill="#292f33" />
<path d="M129 142Q126 137 107 138Q89 139 96 152Q102 162 109.5 159.5Q117 157 123.5 150.5Q130 144 129 142ZM141 162Q139 160 128.5 160.0Q118 160 112.0 164.5Q106 169 113 182Q123 193 129.5 189.0Q136 185 139.5 174.5Q143 164 141 162Z" fill="#dd2e44" />
<path d="M166 183Q163 181 152.0 184.0Q141 187 137.0 193.0Q133 199 146 210Q158 218 164.5 212.0Q171 206 169.5 196.0Q168 186 166 183Z" fill="#dd2e44" />
<path d="M188 231Q204 236 210.0 229.0Q216 222 212.0 212.0Q208 202 200.5 200.0Q193 198 183.0 203.5Q173 209 172.5 216.5Q172 224 188 231ZM382 142Q381 144 387.5 150.5Q394 157 401.0 159.5Q408 162 415 152Q422 138 401 138Q384 138 382 142Z" fill="#dd2e44" />
<path d="M370 162Q368 164 371.5 174.5Q375 185 381.5 189.0Q388 193 397 182Q405 170 399.0 164.5Q393 159 383.0 160.0Q373 161 370 162Z" fill="#dd2e44" />
<path d="M345 183Q341 185 341.0 196.0Q341 207 346.5 212.5Q352 218 365 210Q378 199 374.0 193.0Q370 187 359.0 184.0Q348 181 345 183Z" fill="#dd2e44" />
<path d="M323 231Q339 224 338.5 216.5Q338 209 328.0 203.5Q318 198 310.5 200.0Q303 202 299.0 212.0Q295 222 301.0 229.0Q307 236 323 231ZM154 101Q154 102 162.0 95.0Q170 88 196.0 78.5Q222 69 256.0 69.0Q290 69 316.0 78.5Q342 88 350.5 95.0Q359 102 359 101Q359 98 355.0 92.5Q351 87 342.5 79.0Q334 71 322.5 64.0Q311 57 293.5 52.0Q276 47 256.0 47.0Q236 47 218.5 52.0Q201 57 189.5 64.0Q178 71 169.5 79.0Q161 87 157.5 92.5Q154 98 154 101Z" fill="#dd2e44" />
<path d="M382 217Q382 216 371.5 223.0Q361 230 329.5 239.5Q298 249 256.0 249.0Q214 249 182.5 239.5Q151 230 140.5 223.0Q130 216 130 217Q130 219 134.5 224.5Q139 230 149.5 238.0Q160 246 174.0 253.0Q188 260 210.0 265.0Q232 270 256.0 270.0Q280 270 302.0 265.0Q324 260 338.0 253.0Q352 246 362.5 238.0Q373 230 377.5 224.5Q382 219 382 217Z" fill="#a0041e" />
</g></svg>