<svg xmlns="http://www.w3.org/2000/svg" viewBox="0 0 512 512">
<g transform="matrix(1 0 0 -1 0 512)">
<path d="M165 -56Q141 -49 112.0 -17.5Q83 14 67 49Q66 51 58.0 56.0Q50 61 49 64Q30 111 25.5 159.5Q21 208 36.5 260.0Q52 312 90 351Q134 395 186.5 417.0Q239 439 286.5 437.5Q334 436 381 423Q384 422 390.0 414.5Q396 407 400 406Q457 395 486 347Q505 317 492 309Q488 307 482 309Q451 318 427 315Q424 315 416.5 308.5Q409 302 405 301Q399 301 379.0 299.5Q359 298 355 297Q183 280 173 94Q172 88 167.5 84.0Q163 80 162 76Q160 63 163.0 48.0Q166 33 176.5 6.5Q187 -20 187 -23Q195 -42 190.5 -52.0Q186 -62 165 -56Z" fill="#f4900c" />
<path d="M59 311Q75 312 97.5 309.5Q120 307 136.5 303.0Q153 299 176.5 292.5Q200 286 207 284Q222 280 246 258Q219 237 202 207Q101 247 26 204Q30 263 59 311ZM55 58Q64 66 69.0 70.5Q74 75 85.0 82.0Q96 89 106.5 91.5Q117 94 134.5 94.0Q152 94 172 90Q171 87 167.0 83.5Q163 80 162 76Q162 75 162 69Q111 71 68 46Q68 46 67.5 47.0Q67 48 67 49Q66 51 55 58ZM411 403Q436 358 430 315Q430 315 429.0 315.0Q428 315 427 315Q424 315 417.0 309.0Q410 303 407 302Q421 345 393 411Q397 406 400 406Q404 405 411 403Z" fill="#db7803" />
<path d="M29 236Q24 247 25.5 265.5Q27 284 30.5 304.5Q34 325 48.0 347.0Q62 369 81.5 388.5Q101 408 134.0 424.0Q167 440 208 448Q217 448 226.0 446.5Q235 445 249.0 439.5Q263 434 274.0 424.5Q285 415 295.5 397.0Q306 379 311.0 356.0Q316 333 314.0 297.0Q312 261 301 217Q290 169 251 194Q221 213 197.5 225.5Q174 238 140.5 251.0Q107 264 78.0 260.5Q49 257 29 236Z" fill="#ffac33" />
</g></svg>