<svg xmlns="http://www.w3.org/2000/svg" viewBox="0 0 512 512">
<g transform="matrix(1 0 0 -1 0 512)">
<path d="M202 205H43L96 340Z" fill="#f4900c" />
<path d="M255 369 348 193H162Z" fill="#f4900c" />
<path d="M310 205 416 340 469 205Z" fill="#f4900c" />
<path d="M408 232Q428 260 449.5 285.0Q471 310 482 322L494 334Q469 153 469 -21H43Q43 56 36.5 145.0Q30 234 24 284L18 334Q60 294 104 232L172 398L256 232L340 398Z" fill="#ffcc4d" />
<path d="M218.5 98.0Q203 113 203.0 135.0Q203 157 218.5 172.5Q234 188 255.5 188.0Q277 188 292.5 172.5Q308 157 308.0 135.0Q308 113 292.5 98.0Q277 83 255.5 83.0Q234 83 218.5 98.0Z" fill="#5c913b" />
<path d="M352.0 111.0Q342 121 342.0 135.0Q342 149 352.0 159.0Q362 169 376.5 169.0Q391 169 401.0 159.0Q411 149 411.0 135.0Q411 121 401.0 111.0Q391 101 376.5 101.0Q362 101 352.0 111.0ZM110.0 111.0Q100 121 100.0 135.0Q100 149 110.0 159.0Q120 169 134.5 169.0Q149 169 159.0 159.0Q169 149 169.0 135.0Q169 121 159.0 111.0Q149 101 134.5 101.0Q120 101 110.0 111.0Z" fill="#981ceb" />
<path d="M447.5 115.0Q439 123 439.0 135.0Q439 147 447.5 155.0Q456 163 467.5 163.0Q479 163 487.0 155.0Q495 147 495.0 135.0Q495 123 487.0 115.0Q479 107 467.5 107.0Q456 107 447.5 115.0ZM23.5 115.0Q15 123 15.0 135.0Q15 147 23.5 155.0Q32 163 43.5 163.0Q55 163 63.5 155.0Q72 147 72.0 135.0Q72 123 63.5 115.0Q55 107 43.5 107.0Q32 107 23.5 115.0Z" fill="#dd2e44" />
<path d="M469 -36H43Q37 -36 32.5 -31.5Q28 -27 28.0 -21.0Q28 -15 32.5 -11.0Q37 -7 43 -7H469Q475 -7 479.5 -11.0Q484 -15 484.0 -21.0Q484 -27 479.5 -31.5Q475 -36 469 -36ZM469 14H43Q37 14 32.5 18.0Q28 22 28.0 28.0Q28 34 32.5 38.0Q37 42 43 42H469Q475 42 479.5 38.0Q484 34 484.0 28.0Q484 22 479.5 18.0Q475 14 469 14Z" fill="#ffac33" />
<path d="M6.5 319.5Q1 325 1.0 333.5Q1 342 6.5 348.0Q12 354 20.5 354.0Q29 354 35.0 348.0Q41 342 41.0 333.5Q41 325 35.0 319.5Q29 314 20.5 314.0Q12 314 6.5 319.5ZM154.5 380.0Q147 387 147.0 397.5Q147 408 154.5 415.5Q162 423 172.5 423.0Q183 423 190.5 415.5Q198 408 198.0 397.5Q198 387 190.5 380.0Q183 373 172.5 373.0Q162 373 154.5 380.0ZM477.0 319.5Q471 325 471.0 333.5Q471 342 477.0 348.0Q483 354 491.5 354.0Q500 354 505.5 348.0Q511 342 511.0 333.5Q511 325 505.5 319.5Q500 314 491.5 314.0Q483 314 477.0 319.5ZM321.5 380.0Q314 387 314.0 397.5Q314 408 321.5 415.5Q329 423 339.5 423.0Q350 423 357.5 415.5Q365 408 365.0 397.5Q365 387 357.5 380.0Q350 373 339.5 373.0Q329 373 321.5 380.0Z" fill="#ffcc4d" />
<path d="M84.0 328.0Q79 333 79.0 340.0Q79 347 84.0 352.0Q89 357 96.0 357.0Q103 357 108.0 352.0Q113 347 113.0 340.0Q113 333 108.0 328.0Q103 323 96.0 323.0Q89 323 84.0 328.0ZM404.0 328.0Q399 333 399.0 340.0Q399 347 404.0 352.0Q409 357 416.0 357.0Q423 357 428.0 352.0Q433 347 433.0 340.0Q433 333 428.0 328.0Q423 323 416.0 323.0Q409 323 404.0 328.0ZM237.5 351.5Q230 359 230.0 369.5Q230 380 237.5 387.5Q245 395 255.5 395.0Q266 395 273.0 387.5Q280 380 280.0 369.5Q280 359 273.0 351.5Q266 344 255.5 344.0Q245 344 237.5 351.5Z" fill="#f4900c" />
</g></svg>