<svg xmlns="http://www.w3.org/2000/svg" viewBox="0 0 2048 2048">
<g transform="matrix(1 0 0 -1 0 2048)">
<path d="M512 192Q512 86 437.0 11.0Q362 -64 256.0 -64.0Q150 -64 75.0 11.0Q0 86 0.0 192.0Q0 298 75.0 373.0Q150 448 256.0 448.0Q362 448 437.0 373.0Q512 298 512 192Z" fill="#ffcc4d" />
<path d="M138.5 171.0Q128 186 128.0 206.5Q128 227 138.5 241.5Q149 256 163.5 256.0Q178 256 188.5 241.5Q199 227 199.0 206.5Q199 186 188.5 171.0Q178 156 163.5 156.0Q149 156 138.5 171.0ZM323.5 171.0Q313 186 313.0 206.5Q313 227 323.5 241.5Q334 256 348.5 256.0Q363 256 373.5 241.5Q384 227 384.0 206.5Q384 186 373.5 171.0Q363 156 348.5 156.0Q334 156 323.5 171.0Z" fill="#664500" />
<path d="M85 256Q81 256 77 259Q65 267 74 279Q87 296 103.0 309.0Q119 322 132.0 328.0Q145 334 158.5 337.0Q172 340 177.0 340.5Q182 341 185 341Q191 341 195.0 337.0Q199 333 199.0 327.0Q199 321 195.0 317.0Q191 313 185 313Q179 313 169.0 311.0Q159 309 136.0 296.5Q113 284 97 262Q92 256 85 256ZM427 256Q420 256 415 262Q399 284 376.0 297.0Q353 310 343.0 311.5Q333 313 327 313Q321 313 317.0 317.0Q313 321 313.0 327.0Q313 333 317.0 337.0Q321 341 327 341Q330 341 335.0 340.5Q340 340 353.5 337.0Q367 334 380.0 328.0Q393 322 409.0 309.0Q425 296 438 279Q447 267 435 259Q431 256 427 256ZM334 44Q335 39 331 36Q329 36 327 36Q324 36 322 38Q308 50 256 50Q204 50 190 38Q186 34 181.5 36.5Q177 39 178 44Q179 47 180.5 51.5Q182 56 188.0 66.5Q194 77 202.0 85.0Q210 93 224.5 100.0Q239 107 256.0 107.0Q273 107 287.5 100.0Q302 93 310.0 85.0Q318 77 324.0 66.5Q330 56 331.5 51.5Q333 47 334 44Z" fill="#664500" />
<path d="M228 7Q228 -22 207.0 -43.0Q186 -64 156.5 -64.0Q127 -64 106.0 -43.0Q85 -22 85 7Q85 35 115.0 92.0Q145 149 156.5 149.0Q168 149 198.0 92.0Q228 35 228 7Z" fill="#5dadec" />
</g></svg>