<svg xmlns="http://www.w3.org/2000/svg" viewBox="0 0 512 512">
<g transform="matrix(1 0 0 -1 0 512)">
<path d="M214 245Q214 216 196.5 198.5Q179 181 151 176Q151 176 151 175V154Q151 145 145.0 139.0Q139 133 130.0 133.0Q121 133 115.0 139.0Q109 145 109 154V175Q81 179 62.0 192.0Q43 205 43 217Q43 225 47.5 230.0Q52 235 58 235Q64 235 85.5 221.0Q107 207 131 207Q151 207 163.5 216.5Q176 226 176 238Q176 253 156.5 265.0Q137 277 114.0 284.5Q91 292 71.5 307.5Q52 323 52 345Q52 370 68.0 386.0Q84 402 109 408V427Q109 436 115.0 442.0Q121 448 130.0 448.0Q139 448 145.0 442.0Q151 436 151 427V408Q174 404 191.0 393.5Q208 383 208 370Q208 354 191 354Q185 354 168.5 365.5Q152 377 131 377Q114 377 102.5 369.5Q91 362 91 348Q91 335 110.0 324.5Q129 314 152.5 307.0Q176 300 195.0 284.0Q214 268 214 245ZM340 80H281Q264 80 264.0 94.0Q264 108 281 108H322L254 213Q248 223 248 230Q248 236 252.5 240.0Q257 244 263 244Q274 244 282 232L359 118L435 232Q443 244 454 244Q460 244 464.5 240.0Q469 236 469 230Q469 223 463 213L395 108H436Q453 108 453.0 94.0Q453 80 436 80H377V50H436Q453 50 453.0 36.0Q453 22 436 22H377V-44Q377 -53 372.0 -58.5Q367 -64 358.5 -64.0Q350 -64 345.0 -58.5Q340 -53 340 -44V22H282Q264 22 264.0 36.0Q264 50 282 50H340Z" fill="#292f33" />
<path d="M340 361 398 420V263H242L300 322L242 420ZM130 23 71 -36V121H228L169 62L228 -36Z" fill="#67757f" />
</g></svg>