<svg xmlns="http://www.w3.org/2000/svg" viewBox="0 0 2048 2048">
<g transform="matrix(1 0 0 -1 0 2048)">
<path d="M75.0 20.5Q0 62 0.0 121.0Q0 180 75.0 221.5Q150 263 256.0 263.0Q362 263 437.0 221.5Q512 180 512.0 121.0Q512 62 437.0 20.5Q362 -21 256.0 -21.0Q150 -21 75.0 20.5Z" fill="#939598" />
<path d="M75.0 48.5Q0 90 0.0 149.0Q0 208 75.0 250.0Q150 292 256.0 292.0Q362 292 437.0 250.0Q512 208 512.0 149.0Q512 90 437.0 48.5Q362 7 256.0 7.0Q150 7 75.0 48.5Z" fill="#f1f2f2" />
<path d="M387.0 236.0Q441 206 441.0 163.5Q441 121 387.0 91.0Q333 61 256.0 61.0Q179 61 125.0 91.0Q71 121 71.0 163.5Q71 206 125.0 236.0Q179 266 256.0 266.0Q333 266 387.0 236.0Z" fill="#c1694f" />
<path d="M145.5 108.0Q100 131 100.0 163.5Q100 196 145.5 219.5Q191 243 256.0 243.0Q321 243 366.5 219.5Q412 196 412.0 163.5Q412 131 366.5 108.0Q321 85 256.0 85.0Q191 85 145.5 108.0Z" fill="#8a4b38" />
<path d="M340 320Q358 320 370.0 294.0Q382 268 400 192Q408 161 363.0 134.0Q318 107 256.0 107.0Q194 107 149.0 134.0Q104 161 112 192Q130 268 142.0 294.0Q154 320 172 320Q176 320 202.0 334.0Q228 348 256.0 348.0Q284 348 310.0 334.0Q336 320 340 320Z" fill="#ffcc4d" />
<path d="M332.5 331.5Q364 315 364.0 291.5Q364 268 332.5 251.5Q301 235 256.0 235.0Q211 235 179.5 251.5Q148 268 148.0 291.5Q148 315 179.5 331.5Q211 348 256.0 348.0Q301 348 332.5 331.5Z" fill="#662113" />
</g></svg>