<svg xmlns="http://www.w3.org/2000/svg" viewBox="0 0 2048 2048">
<g transform="matrix(1 0 0 -1 0 2048)">
<path d="M332 177Q332 177 320.5 160.5Q309 144 294.0 123.5Q279 103 251.0 75.5Q223 48 190.5 23.0Q158 -2 110.5 -26.0Q63 -50 11 -64L289 244Z" fill="#9aaab4" />
<path d="M252 258 312 238 11 -64Q25 -12 49.0 35.5Q73 83 98.0 115.5Q123 148 150.5 176.0Q178 204 198.5 219.0Q219 234 235.0 245.5Q251 257 252 258Z" fill="#ccd6dd" />
<path d="M292 278 403 389Q411 397 424.0 396.0Q437 395 447 385L459 372Q469 362 470.5 349.5Q472 337 463 328L353 218Q344 209 331.0 210.5Q318 212 308 222L296 234Q286 244 285.0 257.0Q284 270 292 278Z" fill="#d99e82" />
<path d="M411 276 387 252 288 272Q290 275 292 278L310 296ZM308 222 296 234Q291 238 289 244L364 229L353 218Q344 209 331.0 210.5Q318 212 308 222ZM435 300 335 320 359 344 459 324ZM470 354 385 371 403 389Q407 393 413 394L443 388Q445 386 447 385L459 372Q467 365 470 354Z" fill="#bf6952" />
<path d="M413.0 338.0Q396 355 396.0 378.5Q396 402 413.0 418.5Q430 435 453.5 435.0Q477 435 493.5 418.5Q510 402 510.0 378.5Q510 355 493.5 338.0Q477 321 453.5 321.0Q430 321 413.0 338.0Z" fill="#8a4633" />
<path d="M262 308 388 182Q394 176 394.0 167.0Q394 158 388.0 152.0Q382 146 373.0 146.0Q364 146 358 152L232 278Q226 284 226.0 293.0Q226 302 232.0 308.0Q238 314 247.0 314.0Q256 314 262 308Z" fill="#ffac33" />
<path d="M362.5 127.5Q352 138 352.0 152.5Q352 167 362.5 177.5Q373 188 388.0 188.0Q403 188 413.0 177.5Q423 167 423.0 152.5Q423 138 413.0 127.5Q403 117 388.0 117.0Q373 117 362.5 127.5ZM206.5 283.0Q196 293 196.0 308.0Q196 323 206.5 333.5Q217 344 232.0 344.0Q247 344 257.0 333.5Q267 323 267.0 308.0Q267 293 257.0 283.0Q247 273 232.0 273.0Q217 273 206.5 283.0ZM399 394 468 325Q479 314 468.5 303.5Q458 293 447 303L378 372Q367 383 378.0 394.0Q389 405 399 394Z" fill="#ffac33" />
<path d="M372.5 137.0Q366 143 366.0 152.0Q366 161 372.5 167.5Q379 174 388.0 174.0Q397 174 403.0 167.5Q409 161 409.0 152.0Q409 143 403.0 137.0Q397 131 388.0 131.0Q379 131 372.5 137.0ZM217.0 293.0Q211 299 211.0 308.0Q211 317 217.0 323.0Q223 329 232.0 329.0Q241 329 247.0 323.0Q253 317 253.0 308.0Q253 299 247.0 293.0Q241 287 232.0 287.0Q223 287 217.0 293.0Z" fill="#ffcc4d" />
</g></svg>