<svg xmlns="http://www.w3.org/2000/svg" viewBox="0 0 2048 2048">
<g transform="matrix(1 0 0 -1 0 2048)">
<path d="M512 235Q512 202 494.5 174.5Q477 147 449 133Q469 101 469 64Q469 11 431.5 -26.5Q394 -64 341 -64Q308 -64 279.5 -48.0Q251 -32 233 -5Q223 -7 213 -7Q176 -7 152.0 11.5Q128 30 128 64Q128 65 128 70Q58 87 0 135Q100 121 213 121Q213 146 219 148Q170 151 129.0 158.5Q88 166 65.5 174.0Q43 182 27.0 189.5Q11 197 5 201L0 206Q86 195 199 195Q204 195 214 195Q217 219 218 220Q176 221 138.5 227.0Q101 233 76.5 241.5Q52 250 34.0 258.0Q16 266 8 271L0 277Q70 267 172 273Q156 289 156 327Q156 379 193.5 413.5Q231 448 284 448Q330 448 365.0 419.5Q400 391 409 348Q453 344 482.5 311.5Q512 279 512 235Z" fill="#bdddf4" />
</g></svg>