<svg xmlns="http://www.w3.org/2000/svg" viewBox="0 0 512 512">
<g transform="matrix(1 0 0 -1 0 512)">
<path d="M199 -36V249Q199 261 207.5 269.0Q216 277 228 277H484Q495 277 503.5 269.0Q512 261 512 249V-36Q512 -47 503.5 -55.5Q495 -64 484 -64H228Q216 -64 207.5 -55.5Q199 -47 199 -36Z" fill="#ffcc4d" />
<path d="M484 277Q495 277 503.5 269.0Q512 261 512 249H284V277Z" fill="#bcbec0" />
<path d="M284 220H484V-64H284Z" fill="#55acee" />
<path d="M256 448Q268 448 276.0 439.5Q284 431 284 420V-64H28Q17 -64 8.5 -55.5Q0 -47 0 -36V420Q0 431 8.5 439.5Q17 448 28 448Z" fill="#ffe8b6" />
<path d="M256 448Q268 448 276.0 439.5Q284 431 284 420H0Q0 431 8.5 439.5Q17 448 28 448Z" fill="#bcbec0" />
<path d="M28 135H256V78H28ZM28 220H256V164H28ZM28 306H256V249H28ZM28 391H256V334H28ZM28 50H256V-64H28Z" fill="#55acee" />
<path d="M85 -7H199V-64H85ZM327 -7H441V-64H327Z" fill="#3b88c3" />
<path d="M284 78H498V50H284ZM284 164H498V135H284Z" fill="#ffcc4d" />
<path d="M512 348Q512 337 503.5 328.5Q495 320 484 320H341Q330 320 321.5 328.5Q313 337 313 348V377Q313 389 321.5 397.0Q330 405 341 405H484Q495 405 503.5 397.0Q512 389 512 377Z" fill="#dd2e44" />
<path d="M370 320H398V277H370ZM427 320H455V277H427Z" fill="#58595b" />
<path d="M341 377H370V348H341ZM398 377H427V348H398ZM455 377H484V348H455Z" fill="#f4abba" />
<path d="M370 377H398V348H370ZM427 377H455V348H427Z" fill="#ffffff" />
</g></svg>