<svg xmlns="http://www.w3.org/2000/svg" viewBox="0 0 512 512">
<g transform="matrix(1 0 0 -1 0 512)">
<path d="M75.0 -40.5Q0 -18 0.0 13.5Q0 45 75.0 67.5Q150 90 256.0 90.0Q362 90 437.0 67.5Q512 45 512.0 13.5Q512 -18 437.0 -40.5Q362 -63 256.0 -63.0Q150 -63 75.0 -40.5Z" fill="#3b88c3" />
<path d="M481 42Q481 30 465.5 22.5Q450 15 403.5 10.0Q357 5 275 5Q200 5 156.0 10.0Q112 15 96.5 22.5Q81 30 81 42Q81 60 136.0 72.0Q191 84 275 84Q360 84 420.5 71.5Q481 59 481 42Z" fill="#88c9f9" />
<path d="M256 117Q304 117 343.5 111.0Q383 105 405.5 96.5Q428 88 443.0 77.5Q458 67 463.5 59.0Q469 51 469 46Q469 41 468.0 38.0Q467 35 456.5 30.5Q446 26 426.5 23.5Q407 21 367.5 19.5Q328 18 270 18Q221 18 187.0 19.5Q153 21 136.0 23.5Q119 26 110.5 30.5Q102 35 101.0 38.0Q100 41 100.0 46.5Q100 52 102.0 59.0Q104 66 114.0 77.0Q124 88 139.5 96.5Q155 105 185.5 111.0Q216 117 256 117Z" fill="#f4900c" />
<path d="M49.0 309.0Q28 330 28.0 359.5Q28 389 49.0 409.5Q70 430 99.5 430.0Q129 430 150.0 409.5Q171 389 171.0 359.5Q171 330 150.0 309.0Q129 288 99.5 288.0Q70 288 49.0 309.0Z" fill="#ffcc4d" />
<path d="M59.5 319.0Q43 336 43.0 359.5Q43 383 59.5 399.5Q76 416 99.5 416.0Q123 416 139.5 399.5Q156 383 156.0 359.5Q156 336 139.5 319.0Q123 302 99.5 302.0Q76 302 59.5 319.0Z" fill="#ffac33" />
<path d="M383 242Q384 232 384 223Q384 221 384 218Q384 217 384 216Q384 204 383 193Q383 179 382 166Q381 155 379 145Q378 130 375 117L370 95Q369 93 367.0 91.0Q365 89 355.5 86.0Q346 83 327 89Q299 96 299 109Q299 110 308 130Q313 143 318 154Q321 164 324 173Q328 185 331 198Q333 207 334 216Q336 227 335 236Q335 237 335.0 239.5Q335 242 335 242Q335 251 334 259Q334 273 332 285Q331 293 330 301Q327 314 324 326L315 352L352 357Q356 350 362 336Q366 325 370 312Q373 302 376 291Q379 279 381 266Q382 255 383 242Z" fill="#c1694f" />
<path d="M346 144Q367 140 379 145Q378 130 375 118Q369 117 363 117Q353 117 342 119Q322 122 308 130Q313 143 318 154Q328 147 346 144ZM357 192Q372 190 383 193Q383 179 382 166Q374 165 367 165Q361 165 354 166Q338 167 324 173Q328 185 331 198Q342 193 357 192ZM360 213H359Q346 213 334 216Q336 227 335 236Q335 237 335.0 239.5Q335 242 335 242Q346 239 359 239Q373 240 383 242Q384 232 384 223Q384 222 384.0 219.5Q384 217 384 216Q372 213 360 213ZM357 260Q348 259 339 259Q338 259 336.5 259.0Q335 259 334 259Q334 273 332 285Q342 284 354 286Q366 287 376 291Q379 279 381 266Q368 262 357 260ZM370 312Q360 307 351 305Q341 302 330 301Q327 314 324 326Q334 327 344 330Q354 332 362 336Q366 325 370 312Z" fill="#d99e82" />
<path d="M488 402Q486 404 479.0 405.5Q472 407 452.5 406.0Q433 405 414 396Q383 382 351 347Q350 346 349 346Q314 355 265 364Q244 369 224.5 364.5Q205 360 198.0 357.0Q191 354 189 352Q187 351 185.5 352.0Q184 353 185 355Q186 358 189.5 363.0Q193 368 203.0 379.5Q213 391 224.0 399.0Q235 407 252.0 412.5Q269 418 286 414Q321 408 338 384Q347 423 387 441Q399 446 411.5 447.0Q424 448 433.5 445.5Q443 443 452.5 438.0Q462 433 468.5 428.5Q475 424 481.0 418.0Q487 412 488.5 410.0Q490 408 491.0 406.5Q492 405 491.0 403.5Q490 402 488 402Z" fill="#3e721d" />
<path d="M443 371Q463 361 475.5 343.5Q488 326 492.5 311.0Q497 296 497.5 278.5Q498 261 497.0 254.5Q496 248 495 245Q495 243 493.0 242.5Q491 242 490 244Q488 249 482.5 258.5Q477 268 458.0 288.0Q439 308 416 321Q384 339 345 345Q307 311 281 280Q242 234 226 177Q226 175 224.0 175.0Q222 175 221 176Q220 180 217.0 186.0Q214 192 209.0 209.0Q204 226 203.0 243.0Q202 260 207.5 281.5Q213 303 227 321Q274 382 342 369Q389 400 443 371Z" fill="#5c913b" />
</g></svg>