<svg xmlns="http://www.w3.org/2000/svg" viewBox="0 0 512 512">
<g transform="matrix(1 0 0 -1 0 512)">
<path d="M290 125V21H37Q37 32 39 46Q46 95 71 106Q81 110 96.0 132.5Q111 155 128.0 173.5Q145 192 162 192Q173 192 205.0 163.5Q237 135 252 135Q265 135 290 125Z" fill="#ffac33" />
<path d="M67.0 298.0Q46 319 46.0 348.5Q46 378 67.0 399.0Q88 420 117.5 420.0Q147 420 167.5 399.0Q188 378 188.0 348.5Q188 319 167.5 298.0Q147 277 117.5 277.0Q88 277 67.0 298.0Z" fill="#ffcc4d" />
<path d="M77.0 308.5Q60 325 60.0 348.5Q60 372 77.0 388.5Q94 405 117.5 405.0Q141 405 157.5 388.5Q174 372 174.0 348.5Q174 325 157.5 308.5Q141 292 117.5 292.0Q94 292 77.0 308.5Z" fill="#ffac33" />
<path d="M512 -7Q512 -30 495.5 -47.0Q479 -64 455 -64H57Q33 -64 16.5 -47.0Q0 -30 0 -7Q0 3 6.5 14.5Q13 26 31.0 40.0Q49 54 76.0 64.5Q103 75 150.0 82.5Q197 90 256.0 90.0Q315 90 362.0 82.5Q409 75 436.0 64.5Q463 54 481.0 40.0Q499 26 505.5 14.5Q512 3 512 -7Z" fill="#ffe8b6" />
<path d="M143 129Q145 133 147.5 140.0Q150 147 151.5 150.5Q153 154 154.0 159.0Q155 164 154 168L155 169Q164 166 166 150Q166 148 166 146Q165 145 159.0 136.0Q153 127 153 119L151 96Q149 98 147.0 100.5Q145 103 141.5 112.0Q138 121 143 129ZM91 93Q93 97 105.0 111.0Q117 125 120 132Q121 135 123 129Q126 123 124 119Q121 109 112.5 102.0Q104 95 102 89Q101 87 100 73Q99 69 96.0 65.5Q93 62 89 59L86 57Q85 82 91 93ZM177 98Q174 106 179 125Q181 127 181 128Q182 127 183.5 117.0Q185 107 191 101Q203 87 200 78Q199 76 198 79Q196 83 186.5 89.5Q177 96 177 98Z" fill="#f4900c" />
<path d="M290 51Q267 58 234 59Q224 59 210 55Q217 52 222.0 48.0Q227 44 229.0 41.5Q231 39 229 38Q218 30 155 37Q135 39 117.5 38.5Q100 38 85.0 36.5Q70 35 59.5 34.0Q49 33 42.5 34.0Q36 35 36 39Q36 44 39 46Q69 69 109.0 81.0Q149 93 187.0 93.5Q225 94 248.0 92.5Q271 91 290 88Z" fill="#ffac33" />
<path d="M271 239V157Q271 151 278.0 143.5Q285 136 285 135V285Q285 307 302.0 323.0Q319 339 341.5 339.0Q364 339 381.5 323.0Q399 307 399 285V98Q408 101 410.5 106.0Q413 111 413 121V167Q413 182 423.5 192.5Q434 203 448.5 203.0Q463 203 473.5 192.5Q484 182 484 167V104Q484 76 456 60Q448 56 429.0 51.0Q410 46 399 45V2Q399 -11 370.5 -16.5Q342 -22 313.5 -16.5Q285 -11 285 2V82Q274 82 255.5 87.0Q237 92 229 96Q200 113 200 140V239Q200 254 210.0 264.5Q220 275 235.0 275.0Q250 275 260.5 264.5Q271 254 271 239Z" fill="#77b255" />
<path d="M462.0 59.0Q453 59 453.0 68.0Q453 77 462.0 77.0Q471 77 471.0 68.0Q471 59 462.0 59.0ZM426.0 122.0Q417 122 417.0 131.0Q417 140 426.0 140.0Q435 140 435.0 131.0Q435 122 426.0 122.0ZM489.0 140.0Q480 140 480.0 149.0Q480 158 489.0 158.0Q498 158 498.0 149.0Q498 140 489.0 140.0ZM246.0 86.0Q237 86 237.0 95.0Q237 104 246.0 104.0Q255 104 255.0 95.0Q255 86 246.0 86.0ZM219.0 158.0Q210 158 210.0 167.0Q210 176 219.0 176.0Q228 176 228.0 167.0Q228 158 219.0 158.0ZM255.0 203.0Q246 203 246.0 212.0Q246 221 255.0 221.0Q264 221 264.0 212.0Q264 203 255.0 203.0ZM201.0 230.0Q192 230 192.0 239.0Q192 248 201.0 248.0Q210 248 210.0 239.0Q210 230 201.0 230.0ZM309.0 17.0Q300 17 300.0 26.0Q300 35 309.0 35.0Q318 35 318.0 26.0Q318 17 309.0 17.0ZM390.0 68.0Q381 68 381.0 77.0Q381 86 390.0 86.0Q399 86 399.0 77.0Q399 68 390.0 68.0ZM327.0 122.0Q318 122 318.0 131.0Q318 140 327.0 140.0Q336 140 336.0 131.0Q336 122 327.0 122.0ZM381.0 158.0Q372 158 372.0 167.0Q372 176 381.0 176.0Q390 176 390.0 167.0Q390 158 381.0 158.0ZM318.0 221.0Q309 221 309.0 230.0Q309 239 318.0 239.0Q327 239 327.0 230.0Q327 221 318.0 221.0ZM399.0 248.0Q390 248 390.0 257.0Q390 266 399.0 266.0Q408 266 408.0 257.0Q408 248 399.0 248.0ZM300.0 303.0Q291 303 291.0 312.0Q291 321 300.0 321.0Q309 321 309.0 312.0Q309 303 300.0 303.0Z" fill="#3e721d" />
<path d="M210 55Q194 60 185 62L209 63Q231 62 243 58Q233 59 225.0 58.0Q217 57 213 56Z" fill="#f4900c" />
</g></svg>