<svg xmlns="http://www.w3.org/2000/svg" viewBox="0 0 2048 2048">
<g transform="matrix(1 0 0 -1 0 2048)">
<path d="M512 135Q512 112 495.5 95.0Q479 78 455 78H57Q33 78 16.5 95.0Q0 112 0 135V391Q0 415 16.5 431.5Q33 448 57 448H455Q479 448 495.5 431.5Q512 415 512 391ZM185 78H327V-7H185Z" fill="#ccd6dd" />
<path d="M57 391H455V135H57Z" fill="#5dadec" />
<path d="M185 78H327V50H185Z" fill="#9aaab4" />
<path d="M469 -64H43Q25 -64 12.5 -51.5Q0 -39 0.0 -21.5Q0 -4 12.5 8.5Q25 21 43 21H469Q487 21 499.5 8.5Q512 -4 512.0 -21.5Q512 -39 499.5 -51.5Q487 -64 469 -64Z" fill="#e1e8ed" />
<path d="M43 -7H71V-36H43ZM100 -7H128V-36H100ZM156 -7H185V-36H156ZM213 -7H242V-36H213ZM270 -7H299V-36H270ZM327 -7H356V-36H327ZM384 -7H412V-36H384ZM441 -7H469V-36H441Z" fill="#f5f8fa" />
</g></svg>