<svg xmlns="http://www.w3.org/2000/svg" viewBox="0 0 512 512">
<g transform="matrix(1 0 0 -1 0 512)">
<path d="M75.0 11.0Q0 86 0.0 192.0Q0 298 75.0 373.0Q150 448 256.0 448.0Q362 448 437.0 373.0Q512 298 512.0 192.0Q512 86 437.0 11.0Q362 -64 256.0 -64.0Q150 -64 75.0 11.0Z" fill="#dd2e44" />
<path d="M120.0 56.0Q64 112 64.0 192.0Q64 272 120.0 328.0Q176 384 256.0 384.0Q336 384 392.0 328.0Q448 272 448.0 192.0Q448 112 392.0 56.0Q336 0 256.0 0.0Q176 0 120.0 56.0Z" fill="#ffffff" />
<path d="M155.5 91.5Q114 133 114.0 192.0Q114 251 155.5 292.5Q197 334 256.0 334.0Q315 334 356.5 292.5Q398 251 398.0 192.0Q398 133 356.5 91.5Q315 50 256.0 50.0Q197 50 155.5 91.5Z" fill="#dd2e44" />
<path d="M196.0 132.0Q171 157 171.0 192.0Q171 227 196.0 252.0Q221 277 256.0 277.0Q291 277 316.0 252.0Q341 227 341.0 192.0Q341 157 316.0 132.0Q291 107 256.0 107.0Q221 107 196.0 132.0Z" fill="#ffffff" />
<path d="M225.5 161.5Q213 174 213.0 192.0Q213 210 225.5 222.5Q238 235 256.0 235.0Q274 235 286.5 222.5Q299 210 299.0 192.0Q299 174 286.5 161.5Q274 149 256.0 149.0Q238 149 225.5 161.5Z" fill="#dd2e44" />
<path d="M259 188 446 21Q442 15 434.0 6.5Q426 -2 396.5 -21.5Q367 -41 334 -52L250 186Z" fill="#000000" />
<path d="M250 182Q240 192 250 202L258 210Q268 220 278.0 210.0Q288 200 278 190L270 182Q266 178 260.0 178.0Q254 178 250 182Z" fill="#ffac33" />
<path d="M342 349Q348 379 358.5 401.0Q369 423 380.0 432.5Q391 442 400.5 445.5Q410 449 417 447Q430 444 437.5 423.5Q445 403 442 387L342 282Q336 319 342 349ZM413 278Q400 275 383.0 275.0Q366 275 356 276L346 278L451 378Q467 381 487.5 373.5Q508 366 511 353Q513 346 509.5 336.5Q506 327 496.5 316.0Q487 305 465.0 294.5Q443 284 413 278Z" fill="#55acee" />
<path d="M466 384 301 198Q296 193 286.0 191.5Q276 190 265 197Q258 207 259.0 217.0Q260 227 265 232L452 398Q454 399 455.5 400.0Q457 401 461.5 402.5Q466 404 469 400Q472 397 471.5 393.5Q471 390 469 387Z" fill="#3a87c2" />
</g></svg>