<svg xmlns="http://www.w3.org/2000/svg" viewBox="0 0 512 512">
<g transform="matrix(1 0 0 -1 0 512)">
<path d="M75.0 11.0Q0 86 0.0 192.0Q0 298 75.0 373.0Q150 448 256.0 448.0Q362 448 437.0 373.0Q512 298 512.0 192.0Q512 86 437.0 11.0Q362 -64 256.0 -64.0Q150 -64 75.0 11.0Z" fill="#ffcc4d" />
<path d="M370.0 280.0Q379 267 379.0 248.5Q379 230 370.0 217.0Q361 204 349.0 204.0Q337 204 328.0 217.0Q319 230 319.0 248.5Q319 267 327.5 280.0Q336 293 348.5 293.0Q361 293 370.0 280.0ZM143.0 217.0Q134 230 134.0 248.5Q134 267 143.0 280.0Q152 293 164.5 293.0Q177 293 185.5 280.0Q194 267 194.0 248.5Q194 230 185.5 217.0Q177 204 164.5 204.0Q152 204 143.0 217.0Z" fill="#65471b" />
<path d="M410 87Q419 84 423.0 76.0Q427 68 425 60Q420 44 404 44Q402 44 399 45L358 57Q365 46 360 34Q354 22 341 22Q336 22 331 24L298 41Q296 28 287 23Q282 20 277 20Q265 20 258 34L256 39L254 34Q247 20 235 20Q230 20 225 23Q216 28 214 41L181 24Q176 22 171 22Q158 22 152 34Q147 46 154 57L113 45Q110 44 108 44Q92 44 87 60Q85 68 89.0 76.0Q93 84 102 87L172 108Q172 108 214.0 108.0Q256 108 298.0 108.0Q340 108 340 108Z" fill="#292f33" />
<path d="M341 112Q341 106 333.0 101.0Q325 96 308.5 90.5Q292 85 285 82Q276 75 256 75Q232 75 223 83Q218 86 201.5 91.5Q185 97 178.0 101.5Q171 106 171 112Q171 124 183.0 136.5Q195 149 210 149H211Q214 193 227.5 236.5Q241 280 256 280Q271 280 285.0 236.0Q299 192 301 149H302Q317 149 329.0 136.5Q341 124 341 112Z" fill="#ffac33" />
<path d="M302 110Q300 111 300.5 111.5Q301 112 301.5 118.0Q302 124 302 131Q302 135 302.0 141.0Q302 147 302 149Q305 149 307.0 148.5Q309 148 311.0 144.0Q313 140 313 133Q313 126 308.5 118.0Q304 110 302 110ZM210 110Q207 110 202.5 118.0Q198 126 198 133Q198 144 201.0 146.5Q204 149 210 149Q210 147 209.5 141.0Q209 135 209 131Q209 124 210.0 118.0Q211 112 211.0 111.5Q211 111 210 110Z" fill="#c1694f" />
<path d="M205 102Q213 99 218.0 94.0Q223 89 221 84Q216 86 202.5 91.0Q189 96 184 99Q191 106 205 102ZM307 102Q321 106 328 99Q323 96 309.5 91.0Q296 86 291 84Q289 89 294.0 94.0Q299 99 307 102Z" fill="#662113" />
<path d="M495 311Q498 309 498.0 301.0Q498 293 495 291Q494 290 488.5 287.5Q483 285 477.5 281.5Q472 278 471 273Q470 272 467.5 251.0Q465 230 458.0 210.5Q451 191 439 182Q418 166 380.5 164.5Q343 163 313 178Q301 185 293.5 197.0Q286 209 283.5 218.0Q281 227 278.5 242.0Q276 257 275 262Q271 275 256.5 275.0Q242 275 239 262Q237 257 234.5 242.0Q232 227 229.5 218.0Q227 209 219.5 197.0Q212 185 200 178Q170 163 132.5 164.5Q95 166 74 182Q62 191 55.0 210.5Q48 230 45.5 251.0Q43 272 43 273Q41 278 36.0 281.5Q31 285 25.0 287.5Q19 290 18 291Q15 293 15.0 301.0Q15 309 18 311Q21 312 24.5 311.0Q28 310 36.5 311.0Q45 312 52 315Q70 325 97.5 330.0Q125 335 160.0 331.0Q195 327 220 310Q228 304 257 305Q285 304 293 310Q318 327 353.0 331.0Q388 335 415.5 330.0Q443 325 461 315Q468 312 476.5 311.0Q485 310 489.0 311.0Q493 312 495 311ZM208 259Q210 286 196 294Q179 305 137 305Q106 305 79 296Q70 292 74 263Q80 213 92 204Q108 192 143 192Q167 192 185 203Q205 214 208 259ZM439 263Q443 292 434 296Q407 305 376 305Q334 305 317 294Q303 286 305 259Q308 214 328 203Q347 192 370 192Q405 192 421 204Q433 213 439 263Z" fill="#292f33" />
<path d="M204 303Q155 324 130 325Q119 325 100.0 322.5Q81 320 67 317L54 314Q53 315 51.5 315.5Q50 316 46.0 319.5Q42 323 40.5 326.0Q39 329 37.5 334.0Q36 339 40 343Q43 348 49.0 349.5Q55 351 59 350L63 349Q63 350 62.5 351.0Q62 352 61.0 356.0Q60 360 61.0 363.5Q62 367 65.0 371.0Q68 375 74 378Q84 382 92.5 377.5Q101 373 105 367L108 361Q107 380 128 383Q137 384 142.5 377.0Q148 370 150 362L151 355Q152 356 153.0 357.5Q154 359 158.0 362.0Q162 365 165.5 367.0Q169 369 174.5 368.0Q180 367 185 363Q193 357 197.5 342.0Q202 327 203 315ZM308 303Q309 349 327 363Q336 370 343.5 368.0Q351 366 356 360L361 355Q361 358 362.0 363.0Q363 368 369.0 376.0Q375 384 384.5 383.0Q394 382 398.5 376.5Q403 371 404 366V361Q405 364 407.5 368.0Q410 372 419.0 377.0Q428 382 438 378Q447 374 450.0 366.5Q453 359 451 354L449 349Q465 355 472 343Q476 335 473.0 328.5Q470 322 464 318L458 314Q452 315 443.0 317.0Q434 319 413.5 322.0Q393 325 382.0 325.0Q371 325 352.5 319.5Q334 314 321 308Z" fill="#292f33" />
</g></svg>