<svg xmlns="http://www.w3.org/2000/svg" viewBox="0 0 512 512">
<g transform="matrix(1 0 0 -1 0 512)">
<path d="M247 77Q247 89 259 86Q268 83 265 78Q260 70 255 30Q254 26 255.0 24.0Q256 22 257.0 21.5Q258 21 261.5 20.0Q265 19 266 18Q270 17 271.5 14.0Q273 11 273 9V6Q251 13 243 10Q241 9 233.0 3.0Q225 -3 222 -4L200 -14L197 -7L203 4Q200 4 186.5 1.0Q173 -2 172 -2Q166 -2 171 8Q172 10 174 11Q176 13 180.0 15.0Q184 17 187 18L190 19L176 21Q167 21 178 29Q180 31 182 32Q184 34 207.0 34.0Q230 34 236 37Q247 42 247 77Z" fill="#e08110" />
<path d="M191 138Q185 142 185.0 146.5Q185 151 188.0 153.0Q191 155 198 158Q206 163 245.0 163.0Q284 163 287 152Q293 137 278 93Q269 65 252 66Q247 66 244.0 70.0Q241 74 239.5 82.0Q238 90 237 93Q230 108 191 138Z" fill="#66757f" />
<path d="M142 420Q178 425 184 418Q187 415 195.5 408.0Q204 401 208 397Q215 388 191 353Q185 345 173.0 337.5Q161 330 156 341Q154 355 144.5 356.5Q135 358 130 352Q126 350 120.5 343.0Q115 336 111 334Q108 332 103.0 331.5Q98 331 95 332H92Q91 328 92.0 324.5Q93 321 94 318L95 315Q78 328 71.0 342.5Q64 357 66.0 367.0Q68 377 75 383Q80 388 88.0 391.0Q96 394 106.5 395.5Q117 397 120 398Q142 404 142 420Z" fill="#ccd6dd" />
<path d="M142 420Q143 396 149 389Q152 386 165.0 381.5Q178 377 182 373Q186 368 184 350Q184 342 171.0 335.0Q158 328 156 341Q154 355 144.5 356.5Q135 358 130 352Q126 350 120.5 343.0Q115 336 111 334Q108 332 103.0 331.5Q98 331 95 332H92Q91 328 92.0 324.5Q93 321 94 318L95 315Q78 328 71.0 342.5Q64 357 66.0 367.0Q68 377 75 383Q80 388 88.0 391.0Q96 394 106.5 395.5Q117 397 120 398Q142 404 142 420Z" fill="#e1e8ed" />
<path d="M89 338Q86 327 92 318Q76 331 70.0 344.5Q64 358 66.5 367.5Q69 377 75 383Q83 391 108 395Q110 371 102 352Q92 347 89 338Z" fill="#ffac33" />
<path d="M118 357Q119 342 114 336Q112 334 111 334Q104 330 92 332Q92 335 93 337Q96 344 106.0 349.5Q116 355 117 356ZM291 58Q291 73 305 72Q313 70 313 64Q305 35 300 9Q300 5 300.5 2.5Q301 0 303.5 -1.0Q306 -2 308.0 -2.5Q310 -3 314.0 -3.0Q318 -3 319 -3Q324 -4 327.0 -6.5Q330 -9 331 -11L332 -13Q304 -12 296 -18Q294 -20 286.0 -28.5Q278 -37 275 -40L252 -58Q247 -56 247 -51L250 -35Q248 -36 233.0 -43.5Q218 -51 216 -51Q213 -53 212 -48Q211 -41 215 -35Q217 -33 221.0 -29.5Q225 -26 228 -24L231 -22Q221 -22 214 -24Q211 -25 211 -22Q211 -16 218 -10Q221 -7 247.5 0.0Q274 7 280 11Q290 20 291 58Z" fill="#ffac33" />
<path d="M140 378Q146 379 154.5 377.5Q163 376 168 373L174 371L145 374Q138 373 118 357L117 356Q116 355 106.0 349.5Q96 344 93 337Q92 335 92 332Q91 328 92.0 324.5Q93 321 94 318L95 315Q95 315 92 318Q86 327 89 338Q92 347 102 352Q105 354 110 357Q114 358 123.5 367.5Q133 377 140 378Z" fill="#c1694f" />
<path d="M143 415Q135 417 138 426Q140 432 151.5 437.0Q163 442 179 442Q201 440 219.5 424.0Q238 408 239 376Q239 360 235.0 346.5Q231 333 227.5 327.5Q224 322 216.0 313.5Q208 305 208 305Q200 297 202.5 288.0Q205 279 220 279Q233 275 224.5 250.5Q216 226 201 207Q191 196 176.0 186.5Q161 177 145.5 175.0Q130 173 121 185Q110 201 105.5 208.0Q101 215 97.0 226.0Q93 237 93 251Q91 290 122 316Q128 321 137.0 326.5Q146 332 150.0 336.0Q154 340 155 346Q163 345 168 352Q172 358 185 360Q190 361 196.0 368.5Q202 376 202 383Q201 403 189 413Q184 420 164.0 417.5Q144 415 143 415Z" fill="#99aab5" />
<path d="M164.5 389.0Q161 392 161.0 396.5Q161 401 164.5 404.0Q168 407 172.0 407.0Q176 407 179.5 404.0Q183 401 183.0 396.5Q183 392 179.5 389.0Q176 386 172.0 386.0Q168 386 164.5 389.0Z" fill="#292f33" />
<path d="M199 284Q213 276 236 283Q268 292 291.5 289.0Q315 286 351 265Q374 251 385 258Q390 261 397.0 249.5Q404 238 409.5 221.0Q415 204 416 192Q420 175 416.5 157.5Q413 140 398 128Q349 90 277 94Q243 96 208.5 106.5Q174 117 145.5 141.0Q117 165 115 197Q116 222 114.5 234.0Q113 246 117.0 254.0Q121 262 123.0 264.0Q125 266 132.0 269.5Q139 273 143 276Q173 299 199 284Z" fill="#99aab5" />
<path d="M227 130Q219 136 219.5 141.0Q220 146 224.0 148.5Q228 151 236 155Q250 161 291.5 161.0Q333 161 342 148Q348 129 332 77Q321 44 300 44Q293 45 290.0 50.0Q287 55 285.0 64.0Q283 73 281 77Q273 94 227 130Z" fill="#99aab5" />
<path d="M194 230Q200 247 238.5 253.0Q277 259 285 251Q293 244 303.0 227.5Q313 211 313 202Q313 196 308.5 190.0Q304 184 299 180L295 176Q316 170 323 129Q326 115 321.5 106.0Q317 97 309 96Q278 92 256 104Q242 110 231.0 125.0Q220 140 219 151Q218 160 198 177Q192 182 191.0 202.0Q190 222 194 230Z" fill="#66757f" />
<path d="M191 234Q198 251 238.0 257.0Q278 263 285 255Q293 249 300.5 230.5Q308 212 308 203Q308 197 303.0 191.0Q298 185 292 182L287 178Q311 174 319 130Q324 103 303 101Q282 98 256 111Q244 118 235.0 131.5Q226 145 225 153Q224 163 201 182Q195 187 191.5 206.5Q188 226 191 234Z" fill="#99aab5" />
<path d="M370 256Q372 268 384.0 277.5Q396 287 411 286Q435 285 443 269Q446 263 445.5 258.5Q445 254 444 251L442 248Q443 247 443.5 245.5Q444 244 445.0 238.5Q446 233 445 228Q445 223 442.5 220.0Q440 217 437 217L435 216Q431 197 424 190Q415 180 408.5 175.0Q402 170 401 170H399Q404 182 406 194Q399 195 399 206Q399 225 394 239Q392 245 386.0 249.0Q380 253 375 255ZM261 174Q279 175 287 173Q300 169 306 160Q308 157 303 157Q299 157 288.5 161.0Q278 165 270 170ZM260 163Q283 159 291 157Q304 153 310 144Q312 141 307 141Q296 141 284.5 146.5Q273 152 266 158ZM265 148Q288 141 296 139Q313 134 315 128L312 127Q301 127 289.5 132.5Q278 138 272 143ZM265 135Q288 127 296 125Q313 120 315 114L312 113Q301 113 289.5 118.5Q278 124 272 129ZM250 204H282Q299 204 304 200Q304 199 303.5 198.5Q303 198 301 197Q289 195 277.5 196.5Q266 198 258 201ZM262 213Q276 216 284 216Q300 216 303 211Q303 210 300 209Q290 207 282.0 208.0Q274 209 268 211ZM265 224Q278 225 286 225Q302 226 302 222Q302 221 299 220Q289 218 281.5 219.0Q274 220 270 222ZM261 120Q277 116 285 114Q303 109 305 103L302 102Q291 102 281.0 107.0Q271 112 266 116ZM250 190 272 193Q288 192 293 186Q294 186 293 185Q293 185 291 184Q278 183 269.0 184.5Q260 186 255 188Z" fill="#ccd6dd" />
</g></svg>