<svg xmlns="http://www.w3.org/2000/svg" viewBox="0 0 2048 2048">
<g transform="matrix(1 0 0 -1 0 2048)">
<path d="M11 219Q24 219 61.0 207.0Q98 195 104 186L86 188Q30 206 16 206Q9 206 8.0 209.0Q7 212 9 216Z" fill="#5c913b" />
<path d="M156 420Q142 434 156 434Q163 434 173.5 427.0Q184 420 192 412L199 405Q199 434 213 434Q220 434 227.0 419.5Q234 405 238 391L242 377Q243 380 246.0 384.0Q249 388 256.5 389.0Q264 390 270 377Q282 354 290.5 314.5Q299 275 299 235Q299 128 228 164Q211 172 202.5 182.0Q194 192 193.0 204.0Q192 216 193.0 226.5Q194 237 196.5 252.0Q199 267 199 277Q199 308 183.5 358.0Q168 408 156 420Z" fill="#99aab5" />
<path d="M142 235Q160 235 175.5 220.5Q191 206 203.5 192.0Q216 178 228 178Q237 178 242.0 184.5Q247 191 248.5 199.0Q250 207 255.5 213.5Q261 220 270 220Q282 220 305.0 233.0Q328 246 352.0 266.5Q376 287 394.0 317.0Q412 347 412 377Q412 429 431 427Q445 426 453 404Q455 397 455 391Q466 391 475.0 377.5Q484 364 484 348Q484 320 469 306Q481 306 487.5 290.0Q494 274 484 263Q494 233 479.5 204.0Q465 175 441 164Q441 151 422.0 138.0Q403 125 384 135Q383 133 382.0 130.5Q381 128 377.0 121.0Q373 114 368.5 110.5Q364 107 356.5 104.0Q349 101 341 107Q385 83 398 78Q417 72 442.0 68.5Q467 65 482 64H498Q498 50 469 36Q484 21 469 7Q463 1 456.0 -2.5Q449 -6 445 -7H441Q441 -7 443 -19Q440 -31 412 -21Q393 -15 372.0 -1.0Q351 13 339 24L327 36Q319 34 305.5 32.5Q292 31 258.0 34.0Q224 37 199 50Q160 69 137.0 104.0Q114 139 114 164Q114 173 106.5 177.5Q99 182 91.0 181.5Q83 181 71.5 179.5Q60 178 57 178Q45 178 70 193Q90 206 100 206Q100 207 100.0 209.0Q100 211 102.5 216.0Q105 221 109.0 225.0Q113 229 121.5 232.0Q130 235 142 235Z" fill="#ccd6dd" />
<path d="M99 192Q108 188 121.5 180.0Q135 172 165.5 147.5Q196 123 212 97Q224 78 234.0 47.0Q244 16 247 -5L251 -26L243 -6Q241 -1 238 6Q209 94 177 123Q160 138 145.0 149.5Q130 161 123.5 165.0Q117 169 104.5 175.5Q92 182 91 183Q86 186 93 191Q96 192 99 192Z" fill="#5c913b" />
<path d="M230 42Q234 42 239.0 41.0Q244 40 256.0 32.5Q268 25 275 12Q281 -4 281.0 -19.5Q281 -35 277 -47L274 -58Q235 -40 225 -16Q220 -4 221.5 9.0Q223 22 227 32ZM200 110Q203 113 208.0 117.0Q213 121 227.0 128.0Q241 135 252.5 134.5Q264 134 278.5 126.5Q293 119 301 112L309 105Q306 103 301.0 99.0Q296 95 280.5 89.5Q265 84 250.5 85.5Q236 87 223.5 93.5Q211 100 205 105ZM142 155Q144 151 146.5 146.0Q149 141 152.5 125.0Q156 109 151 100Q148 89 137.0 79.5Q126 70 117 66L108 63Q106 66 104.0 71.0Q102 76 98.5 91.5Q95 107 102 120Q107 133 117.0 142.0Q127 151 135 153Z" fill="#5c913b" />
</g></svg>