<svg xmlns="http://www.w3.org/2000/svg" viewBox="0 0 512 512">
<g transform="matrix(1 0 0 -1 0 512)">
<path d="M0 192H512V64H0Z" fill="#f18f26" />
<path d="M75.0 -12.5Q0 25 0.0 78.0Q0 131 75.0 168.5Q150 206 256.0 206.0Q362 206 437.0 168.5Q512 131 512.0 78.0Q512 25 437.0 -12.5Q362 -50 256.0 -50.0Q150 -50 75.0 -12.5Z" fill="#f18f26" />
<path d="M75.0 -26.5Q0 11 0.0 64.0Q0 117 75.0 154.5Q150 192 256.0 192.0Q362 192 437.0 154.5Q512 117 512.0 64.0Q512 11 437.0 -26.5Q362 -64 256.0 -64.0Q150 -64 75.0 -26.5Z" fill="#f18f26" />
<path d="M0 306H512V78H510Q500 30 427.0 -3.0Q354 -36 256.0 -36.0Q158 -36 85.0 -3.0Q12 30 2 78H0Z" fill="#9d0522" />
<path d="M75.0 201.5Q0 239 0.0 292.0Q0 345 75.0 382.5Q150 420 256.0 420.0Q362 420 437.0 382.5Q512 345 512.0 292.0Q512 239 437.0 201.5Q362 164 256.0 164.0Q150 164 75.0 201.5Z" fill="#f18f26" />
<path d="M75.0 186.5Q0 224 0.0 277.0Q0 330 75.0 367.5Q150 405 256.0 405.0Q362 405 437.0 367.5Q512 330 512.0 277.0Q512 224 437.0 186.5Q362 149 256.0 149.0Q150 149 75.0 186.5Z" fill="#f18f26" />
<path d="M0 306H14V277H0ZM498 306H512V277H498Z" fill="#f18f26" />
<path d="M75.0 215.5Q0 253 0.0 306.0Q0 359 75.0 396.5Q150 434 256.0 434.0Q362 434 437.0 396.5Q512 359 512.0 306.0Q512 253 437.0 215.5Q362 178 256.0 178.0Q150 178 75.0 215.5Z" fill="#fcab40" />
<path d="M85.0 225.5Q14 259 14.0 306.0Q14 353 85.0 386.5Q156 420 256.0 420.0Q356 420 427.0 386.5Q498 353 498.0 306.0Q498 259 427.0 225.5Q356 192 256.0 192.0Q156 192 85.0 225.5Z" fill="#f5f8fa" />
<path d="M15 299Q14 304 14 306Q14 353 85.0 386.5Q156 420 256.0 420.0Q356 420 427.0 386.5Q498 353 498 306Q498 304 497 299Q491 343 421.5 374.0Q352 405 256.0 405.0Q160 405 90.5 374.0Q21 343 15 299Z" fill="#fdd888" />
<path d="M407 411 218 278Q216 260 197 246Q183 236 168.0 235.0Q153 234 146.0 243.5Q139 253 144.0 267.0Q149 281 163 292Q183 306 201 302L381 445Q393 454 401 442L410 431Q418 420 407 411ZM490 370Q497 357 485 350L284 239Q282 219 259 206Q244 197 229.0 198.0Q214 199 208.0 209.0Q202 219 208.5 232.5Q215 246 230 255Q249 266 266 262L464 387Q476 394 483 382Z" fill="#aa695b" />
<path d="M14 64V192Q14 198 18.5 202.0Q23 206 28.5 206.0Q34 206 38.5 202.0Q43 198 43 192V64Q43 58 38.5 54.0Q34 50 28.5 50.0Q23 50 18.5 54.0Q14 58 14 64ZM142 7V135Q142 141 146.5 145.0Q151 149 156.5 149.0Q162 149 166.5 145.0Q171 141 171 135V7Q171 1 166.5 -3.0Q162 -7 156.5 -7.0Q151 -7 146.5 -3.0Q142 1 142 7ZM313 7V135Q313 141 317.0 145.0Q321 149 327.0 149.0Q333 149 337.0 145.0Q341 141 341 135V7Q341 1 337.0 -3.0Q333 -7 327.0 -7.0Q321 -7 317.0 -3.0Q313 1 313 7ZM469 64V192Q469 198 473.5 202.0Q478 206 483.5 206.0Q489 206 493.5 202.0Q498 198 498 192V64Q498 58 493.5 54.0Q489 50 483.5 50.0Q478 50 473.5 54.0Q469 58 469 64Z" fill="#da2f47" />
</g></svg>