<svg xmlns="http://www.w3.org/2000/svg" viewBox="0 0 512 512">
<g transform="matrix(1 0 0 -1 0 512)">
<path d="M181 196Q186 187 191.0 186.0Q196 185 205.0 190.5Q214 196 226.0 203.0Q238 210 261.5 219.0Q285 228 314 233Q346 238 375.0 233.0Q404 228 428.5 217.5Q453 207 471.0 194.0Q489 181 499.5 170.5Q510 160 511 156Q512 147 494.0 115.5Q476 84 442.0 52.5Q408 21 376 21H153Q132 21 113.5 38.5Q95 56 86.0 80.0Q77 104 79.0 133.0Q81 162 96 184Q99 186 103.0 189.0Q107 192 119.5 198.5Q132 205 142.5 208.0Q153 211 164.0 208.5Q175 206 181 196Z" fill="#d99e82" />
<path d="M185 190Q105 79 123 37Q130 21 153 21Q124 21 103.5 46.5Q83 72 79.5 107.0Q76 142 89 178Q92 185 98.5 194.0Q105 203 110 208L114 214H174Q174 213 178.5 203.0Q183 193 185 190Z" fill="#c1694f" />
<path d="M285 124Q312 135 344.5 143.5Q377 152 405.5 156.0Q434 160 458.0 161.5Q482 163 496.0 161.5Q510 160 511 156Q512 147 494.0 115.5Q476 84 442.0 52.5Q408 21 376 21H168Q130 21 159 50Q197 89 285 124Z" fill="#e1e8ed" />
<path d="M361 148Q401 156 436.5 160.0Q472 164 491.0 162.5Q510 161 511 156Q512 148 495.0 118.5Q478 89 454 64Q464 76 467.5 88.0Q471 100 467.5 111.5Q464 123 452.0 131.0Q440 139 417.0 144.0Q394 149 361 148Z" fill="#292f33" />
<path d="M101 361Q108 381 125.5 393.5Q143 406 163.0 407.5Q183 409 202.5 404.5Q222 400 234.0 385.5Q246 371 244 351Q243 329 228.5 304.0Q214 279 200.5 263.5Q187 248 180.0 226.5Q173 205 185 190Q171 178 138.0 176.5Q105 175 89 178Q106 210 115 227Q130 252 128.0 271.5Q126 291 117.5 302.0Q109 313 102.5 328.5Q96 344 101 361Z" fill="#3e721d" />
<path d="M27 319Q30 325 32.5 325.5Q35 326 38.5 324.5Q42 323 52.0 320.5Q62 318 75 317Q79 317 82.5 317.5Q86 318 88.5 319.5Q91 321 92.5 321.5Q94 322 95.0 325.0Q96 328 96.0 329.0Q96 330 97.0 334.5Q98 339 98 340L101 337Q115 317 128 315Q151 311 155.5 304.0Q160 297 151.0 291.0Q142 285 128 283Q100 278 72 280Q45 283 32.5 294.5Q20 306 27 319Z" fill="#ffcc4d" />
<path d="M178 212Q178 208 180.0 202.5Q182 197 183 193L185 190Q175 175 137.5 161.0Q100 147 80 148Q83 164 89 178Q159 196 178 212Z" fill="#f5f8fa" />
<path d="M161.5 373.5Q167 368 167.0 360.5Q167 353 161.5 347.5Q156 342 148.0 342.0Q140 342 135.0 347.5Q130 353 130.0 360.5Q130 368 135.0 373.5Q140 379 148.0 379.0Q156 379 161.5 373.5Z" fill="#292f33" />
</g></svg>