<svg xmlns="http://www.w3.org/2000/svg" viewBox="0 0 2048 2048">
<g transform="matrix(1 0 0 -1 0 2048)">
<path d="M437.0 373.0Q512 298 512.0 192.0Q512 86 437.0 11.0Q362 -64 256.0 -64.0Q150 -64 75.0 11.0Q0 86 0.0 192.0Q0 298 75.0 373.0Q150 448 256.0 448.0Q362 448 437.0 373.0ZM286.5 222.5Q274 235 256.0 235.0Q238 235 225.5 222.5Q213 210 213.0 192.0Q213 174 225.5 161.5Q238 149 256.0 149.0Q274 149 286.5 161.5Q299 174 299.0 192.0Q299 210 286.5 222.5Z" fill="#ffd983" />
<path d="M189 199 30 217Q39 296 95 353L208 240Q192 223 189 199ZM323 185 482 167Q473 88 417 31L304 144Q320 161 323 185Z" fill="#ffac33" />
<path d="M263 125Q287 128 304 144L417 31Q360 -25 281 -34ZM249 259Q225 257 208 240L95 353Q152 410 232 418Z" fill="#ffe8b6" />
</g></svg>