<svg xmlns="http://www.w3.org/2000/svg" viewBox="0 0 2048 2048">
<g transform="matrix(1 0 0 -1 0 2048)">
<path d="M512 64Q512 40 495.5 23.5Q479 7 455 7H57Q33 7 16.5 23.5Q0 40 0 64V320Q0 344 16.5 360.5Q33 377 57 377H455Q479 377 495.5 360.5Q512 344 512 320Z" fill="#ccd6dd" />
<path d="M170 197Q180 207 190.0 197.0Q200 187 190 177L29 16Q28 15 28 15Q16 23 8 35Q8 35 9 36ZM504 35Q504 35 504 35Q496 23 484 15Q484 15 483 16Q483 16 322 177Q312 187 322.0 197.0Q332 207 342 197Q342 197 503 36Z" fill="#99aab5" />
<path d="M455 377Q479 377 495.5 360.5Q512 344 512 320V306L305 99Q284 79 255.5 79.0Q227 79 207 99L0 305V320Q0 344 16.5 360.5Q33 377 57 377Z" fill="#99aab5" />
<path d="M455 377Q491 377 506 345L296 135Q280 118 256.0 118.0Q232 118 216 135L6 345Q21 377 57 377Z" fill="#e1e8ed" />
<path d="M213 316Q213 334 228 334H279Q296 334 296 320Q296 314 292.0 310.0Q288 306 281 306H243V277H279Q294 277 294 263Q294 257 290.0 253.0Q286 249 279 249H243V220H283Q298 220 298 206Q298 200 294.0 196.0Q290 192 283 192H229Q223 192 218.0 197.0Q213 202 213 209Z" fill="#66757f" />
</g></svg>