<svg xmlns="http://www.w3.org/2000/svg" viewBox="0 0 512 512">
<g transform="matrix(1 0 0 -1 0 512)">
<path d="M304 439Q320 439 330.5 427.5Q341 416 341 391Q341 385 337 381Q324 367 239 255Q235 249 228 249Q227 249 226 249Q218 250 215 257Q205 277 200.5 289.0Q196 301 198.0 324.5Q200 348 216 371Q237 402 260.5 420.5Q284 439 304 439ZM338 311Q370 311 370 249Q370 243 366 239Q352 225 281 140Q277 135 270 135Q269 135 269 135Q261 136 258 143Q229 199 273 257Q313 311 338 311Z" fill="#ffcc4d" />
<path d="M419 265Q367 236 311 170Q332 176 347 168Q370 154 370 107Q370 101 365.5 96.5Q361 92 355.5 92.0Q350 92 345.5 96.5Q341 101 341 107Q341 138 332 143Q324 148 288 129Q280 124 277 122Q275 122 272 121Q236 72 211.0 24.5Q186 -23 185 -36Q185 -42 180.5 -46.0Q176 -50 171 -50H170Q167 -50 163 -48Q160 -50 156.5 -50.0Q153 -50 149 -48Q147 -49 145 -50Q144 -50 142 -50Q130 -50 128 -38V-37Q112 52 111 135Q104 137 101 143Q99 148 94 159Q72 208 63 211Q63 211 62.0 210.0Q61 209 59.0 206.5Q57 204 55 200Q49 187 36 193Q25 199 30 210Q42 235 63 235H64Q89 235 113 183Q118 268 143 326Q149 339 162.0 333.0Q175 327 169 314Q125 214 146 33Q159 142 210.0 243.5Q261 345 346 430Q356 440 366.0 430.0Q376 420 366 410Q281 324 231.5 222.0Q182 120 173 11Q207 84 272.0 167.5Q337 251 406 290Q418 297 425.0 284.5Q432 272 419 265Z" fill="#77b255" />
</g></svg>