<svg xmlns="http://www.w3.org/2000/svg" viewBox="0 0 2048 2048">
<g transform="matrix(1 0 0 -1 0 2048)">
<path d="M219 433Q220 434 221.5 435.5Q223 437 227.5 439.5Q232 442 236.5 441.5Q241 441 246.0 436.5Q251 432 254 422Q286 327 266 268Q257 242 244.5 222.5Q232 203 217.5 193.5Q203 184 187.5 193.5Q172 203 159 232Q148 256 149.5 283.0Q151 310 158.0 332.5Q165 355 177.5 376.5Q190 398 200.0 411.5Q210 425 219 433ZM493 159Q485 150 471.5 140.0Q458 130 436.0 117.5Q414 105 391.5 98.5Q369 92 342.5 90.0Q316 88 292 100Q262 112 253.0 128.0Q244 144 253.5 158.0Q263 172 282.0 185.0Q301 198 328 206Q387 226 481 194Q497 189 500.0 180.0Q503 171 498 165Z" fill="#5c913b" />
<path d="M460 358Q460 349 455.5 327.5Q451 306 441.5 270.0Q432 234 411.0 196.0Q390 158 362.0 121.5Q334 85 287.5 56.5Q241 28 185 17Q153 11 111.5 52.5Q70 94 77 126Q88 182 116.5 228.0Q145 274 181.5 302.0Q218 330 256.5 350.5Q295 371 331.0 380.5Q367 390 389.0 394.0Q411 398 420 398Q442 398 448 390Q452 387 455.0 379.0Q458 371 459 365Z" fill="#f4900c" />
<path d="M352 323Q364 311 352.5 299.5Q341 288 329 300L306 323Q295 334 306.5 345.5Q318 357 329 346ZM214 300 199 315Q212 325 226 334L237 323Q249 311 237.5 299.5Q226 288 214 300ZM249 334 241 342Q256 350 271 357H272Q283 346 271.5 334.5Q260 323 249 334ZM180 265 161 283Q173 295 186 305L203 288Q214 277 202.5 265.5Q191 254 180 265ZM364 380 387 357Q398 346 386.5 334.5Q375 323 364 334L341 357Q329 369 340.5 380.5Q352 392 364 380ZM375 391Q398 396 415 398L421 391Q433 380 421.5 368.5Q410 357 398 368ZM295 265 272 288Q260 300 271.5 311.5Q283 323 295 311L318 288Q329 277 317.5 265.5Q306 254 295 265ZM260 231 237 254Q226 265 237.5 276.5Q249 288 260 277L283 254Q295 242 283.5 230.5Q272 219 260 231ZM191 162 168 185Q157 196 168.5 207.5Q180 219 191 208L214 185Q226 173 214.5 161.5Q203 150 191 162ZM226 242 249 219Q260 208 248.5 196.5Q237 185 226 196L203 219Q191 231 202.5 242.5Q214 254 226 242Z" fill="#f7b82d" />
<path d="M396 113Q417 106 433.5 84.5Q450 63 452.5 38.5Q455 14 436 -7Q430 -13 426.5 -16.0Q423 -19 418.5 -21.5Q414 -24 412.0 -20.0Q410 -16 410 -7Q410 15 384.0 35.5Q358 56 330 46Q322 44 301.5 31.0Q281 18 259.5 6.5Q238 -5 211.5 -14.5Q185 -24 155.0 -22.5Q125 -21 97 -6Q95 -9 93 -12L82 -22Q73 -32 59.0 -32.0Q45 -32 35 -22L25 -12Q15 -2 15.0 12.0Q15 26 25 36L35 46Q40 50 46 53Q36 84 36.0 108.5Q36 133 46.5 160.5Q57 188 68.0 206.5Q79 225 90.5 244.0Q102 263 105 272Q114 300 94.0 325.5Q74 351 52 351Q42 351 38.0 353.0Q34 355 36.5 359.5Q39 364 42.0 367.5Q45 371 52 378Q73 397 97.5 394.0Q122 391 143.0 374.5Q164 358 171 338Q189 290 182.0 235.5Q175 181 159.0 138.5Q143 96 120 62Q154 85 196.5 101.0Q239 117 293.5 123.5Q348 130 396 113Z" fill="#77b255" />
</g></svg>