<svg xmlns="http://www.w3.org/2000/svg" viewBox="0 0 512 512">
<g transform="matrix(1 0 0 -1 0 512)">
<path d="M75.0 11.0Q0 86 0.0 192.0Q0 298 75.0 373.0Q150 448 256.0 448.0Q362 448 437.0 373.0Q512 298 512.0 192.0Q512 86 437.0 11.0Q362 -64 256.0 -64.0Q150 -64 75.0 11.0Z" fill="#88c9f9" />
<path d="M366 423Q421 397 459.0 347.5Q497 298 508 236Q501 217 500 204Q495 176 484 196Q480 203 450 239Q438 253 416 257Q406 259 395.0 252.5Q384 246 384 239Q384 233 394.5 231.0Q405 229 417 230Q423 231 428.0 227.0Q433 223 432.5 218.5Q432 214 429 211Q427 210 418.5 201.5Q410 193 401.5 187.5Q393 182 388 183Q377 187 365 211Q348 246 333 242Q330 240 330.0 236.5Q330 233 333.5 226.0Q337 219 340.5 213.0Q344 207 348.0 199.0Q352 191 354 187Q358 175 372.0 170.5Q386 166 397 168Q405 170 400 163Q394 154 382 147Q376 143 367.0 118.0Q358 93 356 88Q354 85 347.5 72.0Q341 59 335.5 49.0Q330 39 321.5 26.5Q313 14 306 6Q296 -4 287.5 -5.0Q279 -6 274.5 -1.5Q270 3 270 11Q270 15 268.5 20.5Q267 26 265.5 29.5Q264 33 259.0 41.5Q254 50 252 53Q251 57 247.0 63.5Q243 70 241.5 73.5Q240 77 238.0 82.0Q236 87 236.0 92.5Q236 98 238 104Q239 107 241.0 113.5Q243 120 243.5 122.0Q244 124 245.0 128.0Q246 132 246.0 134.5Q246 137 245.0 140.0Q244 143 243 147Q238 157 225.5 158.5Q213 160 203 151Q192 143 165.5 135.0Q139 127 124 128Q112 129 109.5 144.0Q107 159 108 188Q108 200 121.5 212.5Q135 225 146.5 231.0Q158 237 167 241Q172 243 176.5 245.5Q181 248 185.5 252.0Q190 256 194 258Q200 262 221.0 257.0Q242 252 256 244Q269 239 290.5 242.0Q312 245 328 252Q342 260 337.5 273.0Q333 286 318 290Q303 294 319 304Q321 305 325 308Q328 309 329 310Q339 317 334.5 327.0Q330 337 320.0 336.0Q310 335 300.5 327.5Q291 320 291 310Q290 298 282 297Q277 297 279 305Q282 314 279.5 319.5Q277 325 267 327Q257 329 237.0 316.5Q217 304 211 291Q195 256 170 270Q168 271 166.5 272.0Q165 273 163.0 274.0Q161 275 159.5 275.5Q158 276 156 277Q148 280 145.0 282.0Q142 284 139.0 287.0Q136 290 138.0 292.5Q140 295 146 299Q151 302 158.5 305.0Q166 308 170.0 309.5Q174 311 177.5 313.5Q181 316 180.5 318.5Q180 321 176 324Q166 334 169.0 341.0Q172 348 187 348Q202 348 276 358Q324 364 300 388Q290 394 283.5 389.5Q277 385 263.0 376.5Q249 368 237 368Q217 368 218.0 380.0Q219 392 237 410Q244 416 252.0 419.0Q260 422 270.5 420.5Q281 419 287.5 417.5Q294 416 306.5 411.5Q319 407 323 406Q330 404 336.5 406.0Q343 408 353.0 415.0Q363 422 366 423Z" fill="#5c913b" />
</g></svg>