<svg xmlns="http://www.w3.org/2000/svg" viewBox="0 0 512 512">
<g transform="matrix(1 0 0 -1 0 512)">
<path d="M75.0 11.0Q0 86 0.0 192.0Q0 298 75.0 373.0Q150 448 256.0 448.0Q362 448 437.0 373.0Q512 298 512.0 192.0Q512 86 437.0 11.0Q362 -64 256.0 -64.0Q150 -64 75.0 11.0Z" fill="#88c9f9" />
<path d="M40 87Q41 66 37 59Q0 121 0 192Q0 265 37.5 325.5Q75 386 137 418Q168 418 171 417Q177 415 176.5 409.5Q176 404 180 401Q189 395 199 399Q202 400 205.5 403.5Q209 407 212.0 408.5Q215 410 217 408Q219 407 231.0 406.0Q243 405 245 401Q254 388 266 394Q274 398 294.0 399.5Q314 401 323 397Q327 394 335.0 392.5Q343 391 354.5 390.0Q366 389 367 388Q370 388 377 387Q398 384 398 382Q397 380 401.0 378.0Q405 376 401 371Q396 363 381.0 352.0Q366 341 364 343Q363 344 361.0 348.0Q359 352 356.0 355.0Q353 358 349 357Q348 357 342.5 357.0Q337 357 335.0 356.5Q333 356 330.0 354.0Q327 352 327 348Q327 344 322 335Q317 324 323 324Q326 324 331.5 326.5Q337 329 340.5 329.0Q344 329 345 324Q348 314 343 304Q342 301 342.5 300.0Q343 299 341.0 298.0Q339 297 332 295Q325 293 322 296Q321 297 320 295Q319 294 318 292Q316 287 310.5 282.5Q305 278 302.5 274.5Q300 271 301 267Q308 249 308.5 243.5Q309 238 294 219Q284 205 275 203Q261 200 256 188Q254 181 255.0 175.0Q256 169 255.0 164.5Q254 160 248 161Q229 164 227 177Q226 180 219.0 189.0Q212 198 212 199Q211 201 206.5 205.0Q202 209 198 212L194 215Q183 204 183 192L187 164Q182 158 173 165Q170 168 164.5 171.0Q159 174 155.5 177.0Q152 180 150 184Q140 205 140 217Q140 221 134.5 228.5Q129 236 125 236Q120 236 109.0 234.5Q98 233 97 230Q94 225 85 216Q84 215 81.5 212.0Q79 209 77.0 207.0Q75 205 72.5 202.5Q70 200 67.5 198.5Q65 197 64 198Q42 212 42 220Q42 223 35.5 226.5Q29 230 28 237Q27 256 22 256Q20 256 20 251Q18 236 24 217Q31 196 41 192Q43 191 46.5 187.0Q50 183 58 184Q61 184 65.0 185.0Q69 186 71.0 186.5Q73 187 75.5 187.5Q78 188 79.0 187.0Q80 186 80 185Q80 184 81.5 180.0Q83 176 83.0 173.5Q83 171 81.0 167.5Q79 164 75 161Q69 157 66.0 154.5Q63 152 60.5 149.0Q58 146 55.5 143.5Q53 141 48.0 138.0Q43 135 41.0 132.0Q39 129 39 121Q39 101 40 87ZM246 104Q233 106 227 115Q223 119 223.0 124.0Q223 129 225.0 135.5Q227 142 227 145Q228 145 229.5 144.5Q231 144 233.5 140.5Q236 137 235.5 131.5Q235 126 236.5 124.5Q238 123 244.0 121.5Q250 120 256 116Q264 107 259.0 105.0Q254 103 246 104Z" fill="#5c913b" />
<path d="M337 252Q349 243 329 239Q322 238 318 238Q316 239 319.0 241.5Q322 244 325.5 248.5Q329 253 326.0 257.0Q323 261 323.0 266.0Q323 271 324.5 277.5Q326 284 326 287Q327 287 329.0 286.5Q331 286 333.5 283.0Q336 280 335 274Q335 270 333.0 266.5Q331 263 330.0 262.0Q329 261 330.5 259.0Q332 257 337 252ZM282 114Q278 118 271.0 119.5Q264 121 261.0 123.5Q258 126 261 132Q270 147 282 138Q283 137 288 134Q308 122 299 118Q294 117 291.0 113.0Q288 109 287.5 109.5Q287 110 282 114ZM386 96Q387 94 394 90Q406 82 399 82Q392 81 383.5 86.0Q375 91 372 92Q367 94 359.5 91.5Q352 89 347 93Q342 96 330.5 96.0Q319 96 317 104Q312 125 312 125Q314 126 317 124Q318 124 322.5 121.0Q327 118 331.5 116.0Q336 114 340 115Q346 115 351.0 109.5Q356 104 361 104Q379 104 386 96ZM363 57Q364 54 369.5 49.5Q375 45 373 39Q372 36 372.0 27.5Q372 19 370.5 13.0Q369 7 364 3Q363 1 353.5 -9.0Q344 -19 338 -22Q330 -26 314.5 -19.0Q299 -12 299 -6Q299 -3 297.0 0.0Q295 3 293.0 5.0Q291 7 286.5 10.5Q282 14 281 15Q272 24 261 16Q259 14 256.0 9.5Q253 5 248 4Q245 3 237 -2Q216 -12 216 -3Q217 3 220.0 14.5Q223 26 224.5 32.0Q226 38 224 44Q221 48 218 49Q216 49 221 54Q222 56 224 57Q237 70 250 76Q278 91 289 92Q301 94 304 89Q309 78 319 82Q331 86 340 78Q341 78 347.0 73.5Q353 69 357.0 65.0Q361 61 363 57Z" fill="#5c913b" />
</g></svg>