<svg xmlns="http://www.w3.org/2000/svg" viewBox="0 0 2048 2048">
<g transform="matrix(1 0 0 -1 0 2048)">
<path d="M329 400Q371 362 399.0 296.5Q427 231 427 164Q427 68 375.5 9.0Q324 -50 256 -50Q196 -50 147.5 -2.5Q99 45 88 124Q85 145 85 164Q85 228 111.0 291.5Q137 355 177.0 394.5Q217 434 256 434Q292 434 329 400Z" fill="#f7dece" />
<path d="M329 400Q371 362 399.0 296.5Q427 231 427 164Q427 68 375.5 9.0Q324 -50 256 -50Q196 -50 147.5 -2.5Q99 45 88 124Q105 62 147.5 25.5Q190 -11 240 -11Q305 -11 353.5 45.5Q402 102 402 194Q402 250 381.5 305.5Q361 361 329 400Z" fill="#e0aa94" />
</g></svg>