<svg xmlns="http://www.w3.org/2000/svg" viewBox="0 0 512 512">
<g transform="matrix(1 0 0 -1 0 512)">
<path d="M412 291Q412 260 401.0 234.0Q390 208 377.0 192.5Q364 177 352.5 152.5Q341 128 341 100Q341 84 334.0 73.5Q327 63 314.0 59.0Q301 55 290.0 53.5Q279 52 263 52Q245 52 225.5 56.0Q206 60 187.5 71.5Q169 83 169 100Q169 128 158.5 152.5Q148 177 134.5 192.5Q121 208 110.5 234.0Q100 260 100 291Q100 354 147.5 400.0Q195 446 257 446Q320 446 366.0 400.0Q412 354 412 291Z" fill="#ffd983" />
<path d="M315 -14Q315 -24 295.0 -37.0Q275 -50 256.0 -50.0Q237 -50 217.0 -37.0Q197 -24 197 -14Q197 -11 200.0 -9.0Q203 -7 210.0 -6.5Q217 -6 223.0 -6.0Q229 -6 239.5 -6.5Q250 -7 256.0 -7.0Q262 -7 272.5 -6.5Q283 -6 289.0 -6.0Q295 -6 302.0 -6.5Q309 -7 312.0 -9.0Q315 -11 315 -14Z" fill="#ccd6dd" />
<path d="M323 282 270 229V78Q270 72 266.0 68.0Q262 64 256.0 64.0Q250 64 246.0 68.0Q242 72 242 78V229L189 282Q179 292 189.0 302.0Q199 312 209 302L256 255L303 302Q313 312 323.0 302.0Q333 292 323 282Z" fill="#ffcc4d" />
<path d="M341 7Q341 -5 333.0 -13.0Q325 -21 313 -21H199Q187 -21 179.0 -13.0Q171 -5 171 7V92H341Z" fill="#99aab5" />
<path d="M171 -7Q159 -7 157 5Q156 11 159.5 15.5Q163 20 168 21L339 50Q345 51 349.5 47.5Q354 44 355.0 38.0Q356 32 352.5 27.0Q349 22 344 22L173 -7Q172 -7 171 -7ZM171 50Q159 50 157 62Q156 67 159.5 72.0Q163 77 168 78L339 106Q345 107 349.5 104.0Q354 101 355.0 95.0Q356 89 352.5 84.0Q349 79 344 78L173 50Q172 50 171 50Z" fill="#ccd6dd" />
</g></svg>