<svg xmlns="http://www.w3.org/2000/svg" viewBox="0 0 512 512">
<g transform="matrix(1 0 0 -1 0 512)">
<path d="M512 -7Q512 -31 495.5 -47.5Q479 -64 455 -64H57Q33 -64 16.5 -47.5Q0 -31 0 -7V391Q0 415 16.5 431.5Q33 448 57 448H455Q479 448 495.5 431.5Q512 415 512 391Z" fill="#226699" />
<path d="M427 -36H85Q68 -36 55.5 -23.5Q43 -11 43 7V263Q43 281 55.5 293.5Q68 306 85 306H427Q444 306 456.5 293.5Q469 281 469 263V7Q469 -11 456.5 -23.5Q444 -36 427 -36ZM85 277Q79 277 75.0 273.0Q71 269 71 263V7Q71 1 75.0 -3.0Q79 -7 85 -7H427Q433 -7 437.0 -3.0Q441 1 441 7V263Q441 269 437.0 273.0Q433 277 427 277ZM185 417 239 363H206V320H164V363H130ZM348 374H382L327 320L273 374H306V417H348Z" fill="#ffffff" />
<path d="M270 181Q282 181 290.5 173.0Q299 165 299 153V107Q299 101 294.5 96.5Q290 92 284 92V32Q284 28 281.0 24.5Q278 21 273.5 21.0Q269 21 266.0 24.5Q263 28 263 32V82H249V32Q249 28 246.0 24.5Q243 21 238.5 21.0Q234 21 231.0 24.5Q228 28 228 32V92Q222 92 217.5 96.5Q213 101 213 107V153Q213 165 221.5 173.0Q230 181 242 181H243Q228 190 228 210Q228 223 236.0 232.5Q244 242 256.0 242.0Q268 242 276.0 232.5Q284 223 284 210Q284 190 269 181ZM156 181Q168 181 176.5 173.0Q185 165 185 153V107Q185 101 181.0 96.5Q177 92 171 92V32Q171 28 167.5 24.5Q164 21 160.0 21.0Q156 21 152.5 24.5Q149 28 149 32V82H135V32Q135 28 132.0 24.5Q129 21 124.5 21.0Q120 21 117.0 24.5Q114 28 114 32V92Q108 92 104.0 96.5Q100 101 100 107V153Q100 165 108.0 173.0Q116 181 128 181H129Q114 190 114 210Q114 223 122.0 232.5Q130 242 142.0 242.0Q154 242 162.5 232.5Q171 223 171 210Q171 190 155 181ZM384 181Q396 181 404.0 173.0Q412 165 412 153V107Q412 101 408.0 96.5Q404 92 398 92V32Q398 28 395.0 24.5Q392 21 387.5 21.0Q383 21 380.0 24.5Q377 28 377 32V82H363V32Q363 28 359.5 24.5Q356 21 352.0 21.0Q348 21 344.5 24.5Q341 28 341 32V92Q335 92 331.0 96.5Q327 101 327 107V153Q327 165 335.5 173.0Q344 181 356 181H357Q341 190 341 210Q341 223 349.5 232.5Q358 242 370.0 242.0Q382 242 390.0 232.5Q398 223 398 210Q398 190 383 181Z" fill="#ffffff" />
</g></svg>