<svg xmlns="http://www.w3.org/2000/svg" viewBox="0 0 512 512">
<g transform="matrix(1 0 0 -1 0 512)">
<path d="M0 149H427V-64H0Z" fill="#ffdc5d" />
<path d="M498 72Q498 33 465 12Q469 -1 469 -14Q469 -43 453 -64H354Q353 -29 346 -5Q313 -29 266 -29Q227 -29 196.5 -11.0Q166 7 156 34Q121 0 64 0Q29 0 0 15V405Q26 434 64 434Q92 434 114.0 418.0Q136 402 145 377Q171 405 209 405Q238 405 261.0 387.0Q284 369 292 341Q308 347 324 347Q360 347 385.5 321.5Q411 296 411 260Q411 246 405 230Q432 227 450.5 207.0Q469 187 469 159Q469 146 464 133Q498 112 498 72Z" fill="#ffac33" />
</g></svg>