<svg xmlns="http://www.w3.org/2000/svg" viewBox="0 0 2048 2048">
<g transform="matrix(1 0 0 -1 0 2048)">
<path d="M484 405Q495 405 503.5 397.0Q512 389 512 377V292Q512 280 503.5 271.5Q495 263 484 263H177V236Q177 225 170.5 221.5Q164 218 155 225L9 323Q0 330 0.0 338.5Q0 347 10 353L154 444Q164 450 170.5 446.5Q177 443 177 432V405ZM1 122Q1 148 24 148H97Q107 148 112.5 142.0Q118 136 118 127Q118 119 112.0 113.0Q106 107 97 107H45V64H93Q103 64 109.0 58.0Q115 52 115 44Q115 36 109.0 30.0Q103 24 93 24H45V-21H99Q109 -21 114.5 -26.5Q120 -32 120 -41Q120 -49 114.5 -55.0Q109 -61 99 -61H24Q14 -61 7.5 -55.0Q1 -49 1 -39ZM135 126Q135 137 141.0 143.0Q147 149 157 149Q169 149 176 140L269 16V126Q269 137 275.0 143.0Q281 149 291.0 149.0Q301 149 307.0 143.0Q313 137 313 126V-40Q313 -51 307.0 -57.0Q301 -63 291 -63Q280 -63 273 -53L180 69H179V-40Q179 -51 173.0 -57.0Q167 -63 157.0 -63.0Q147 -63 141.0 -57.0Q135 -51 135 -40ZM338 125Q338 135 344.0 141.5Q350 148 360 148H409Q458 148 485.0 119.0Q512 90 512 40Q512 -6 484.5 -33.5Q457 -61 412 -61H361Q352 -61 345.0 -55.5Q338 -50 338 -39ZM382 -21H411Q438 -21 452.0 -3.0Q466 15 466 42Q466 72 451.5 89.5Q437 107 408 107H382Z" fill="#31373d" />
</g></svg>