<svg xmlns="http://www.w3.org/2000/svg" viewBox="0 0 512 512">
<g transform="matrix(1 0 0 -1 0 512)">
<path d="M512 -7Q512 -31 495.5 -47.5Q479 -64 455 -64H57Q33 -64 16.5 -47.5Q0 -31 0 -7V249Q0 272 16.5 289.0Q33 306 57 306H455Q479 306 495.5 289.0Q512 272 512 249Z" fill="#ccd6dd" />
<path d="M170 126Q180 136 190.0 126.0Q200 116 190 106L29 -55Q28 -56 28 -56Q16 -48 8 -36Q8 -36 9 -35ZM504 -36Q496 -48 484 -56Q484 -56 483 -55Q483 -55 322 106Q312 116 322.0 126.0Q332 136 342 126Q342 126 503 -35L504 -36Q504 -36 504.0 -36.0Q504 -36 504 -36Z" fill="#99aab5" />
<path d="M455 306Q479 306 495.5 289.0Q512 272 512 249V235L305 28Q284 8 255.5 8.0Q227 8 207 28L0 234V249Q0 272 16.5 289.0Q33 306 57 306Z" fill="#99aab5" />
<path d="M455 306Q491 306 506 273L296 63Q280 47 256.0 47.0Q232 47 216 63L6 273Q21 306 57 306Z" fill="#e1e8ed" />
<path d="M380 348Q393 348 395.5 342.0Q398 336 389 327L277 215Q268 206 255.0 206.0Q242 206 233 215L121 327Q112 336 114.5 342.0Q117 348 130 348H199V420Q199 431 207.5 439.5Q216 448 228 448H284Q296 448 304.5 439.5Q313 431 313 420V348Z" fill="#55acee" />
</g></svg>