<svg xmlns="http://www.w3.org/2000/svg" viewBox="0 0 2048 2048">
<g transform="matrix(1 0 0 -1 0 2048)">
<path d="M156 306H356V92H156Z" fill="#edbb9f" />
<path d="M14 192H498V-36Q498 -47 489.5 -55.5Q481 -64 469 -64H43Q31 -64 22.5 -55.5Q14 -47 14 -36Z" fill="#be1931" />
<path d="M14 249H498V206H14Z" fill="#ffe8b6" />
<path d="M14 220H498V192H14Z" fill="#c1694f" />
<path d="M299 21V-64H213V21Q213 39 225.5 51.5Q238 64 256.0 64.0Q274 64 286.5 51.5Q299 39 299 21Z" fill="#ccd6dd" />
<path d="M441 21V-36H356V21Q356 39 368.5 51.5Q381 64 398.5 64.0Q416 64 428.5 51.5Q441 39 441 21ZM156 21V-36H71V21Q71 39 83.5 51.5Q96 64 113.5 64.0Q131 64 143.5 51.5Q156 39 156 21Z" fill="#aab8c2" />
<path d="M215.5 351.0Q199 368 199.0 391.5Q199 415 215.5 431.5Q232 448 256.0 448.0Q280 448 296.5 431.5Q313 415 313.0 391.5Q313 368 296.5 351.0Q280 334 256.0 334.0Q232 334 215.5 351.0ZM469 277Q481 277 489.5 269.0Q498 261 498 249H14Q14 261 22.5 269.0Q31 277 43 277ZM327 334Q339 334 347.5 326.0Q356 318 356 306H156Q156 318 164.5 326.0Q173 334 185 334Z" fill="#d99e82" />
<path d="M199 391H313V334H199Z" fill="#edbb9f" />
<path d="M314 146 323 137V131H317L284 97H283Q283 97 283.0 96.5Q283 96 282 96Q269 83 250.5 83.0Q232 83 219.0 96.0Q206 109 206.0 127.5Q206 146 219.0 159.0Q232 172 250.5 172.0Q269 172 282 159Q292 149 295 136L282 123Q284 139 273 150Q264 159 251.0 159.0Q238 159 228.5 149.5Q219 140 219.0 127.0Q219 114 228.5 105.0Q238 96 251.0 96.0Q264 96 273 105L274 106L295 128L308 140Q305 143 308.0 146.0Q311 149 314 146ZM202 113 189 126Q183 132 171.5 132.0Q160 132 160 132Q157 134 160 137L188 165Q190 167 192 165Q194 163 192.5 158.5Q191 154 192.5 146.5Q194 139 199 134L201 133Q199 123 202 113Z" fill="#ffac33" />
</g></svg>