<svg xmlns="http://www.w3.org/2000/svg" viewBox="0 0 2048 2048">
<g transform="matrix(1 0 0 -1 0 2048)">
<path d="M498 206Q498 159 468.0 108.0Q438 57 397.0 20.5Q356 -16 316.5 -40.0Q277 -64 256.0 -64.0Q235 -64 195.5 -40.0Q156 -16 115.0 20.5Q74 57 44.0 108.0Q14 159 14 206Q14 306 85.0 377.0Q156 448 256.0 448.0Q356 448 427.0 377.0Q498 306 498 206Z" fill="#ccd6dd" />
<path d="M123.5 282.0Q159 270 192.0 237.0Q225 204 237.0 168.5Q249 133 232.5 116.5Q216 100 180.5 111.5Q145 123 111.5 156.5Q78 190 66.5 225.0Q55 260 71.5 277.0Q88 294 123.5 282.0ZM275.0 168.5Q287 204 320.0 237.0Q353 270 388.5 282.0Q424 294 440.5 277.0Q457 260 445.5 225.0Q434 190 400.5 156.5Q367 123 331.5 111.5Q296 100 279.5 116.5Q263 133 275.0 168.5ZM203 26Q193 36 203.0 46.0Q213 56 223 46Q234 36 256.0 36.0Q278 36 289 46Q299 55 309.0 45.0Q319 35 309 26Q291 7 256.5 7.0Q222 7 203 26Z" fill="#292f33" />
</g></svg>