<svg xmlns="http://www.w3.org/2000/svg" viewBox="0 0 2048 2048">
<g transform="matrix(1 0 0 -1 0 2048)">
<path d="M499 192Q499 174 479.0 147.5Q459 121 428.0 96.0Q397 71 350.0 53.5Q303 36 256 36Q208 36 162.0 51.5Q116 67 84.0 91.0Q52 115 32.5 142.0Q13 169 13 192Q13 209 89.0 218.5Q165 228 256.0 228.0Q347 228 423.0 218.5Q499 209 499 192Z" fill="#e1e8ed" />
<path d="M499 192H13Q13 210 32.5 236.5Q52 263 83.5 288.0Q115 313 162.0 330.5Q209 348 256.0 348.0Q303 348 350.0 330.5Q397 313 428.5 288.0Q460 263 479.5 236.5Q499 210 499 192Z" fill="#292f33" />
<path d="M256 55Q168 55 99.5 101.5Q31 148 31 192Q31 208 49.0 231.0Q67 254 96.0 276.0Q125 298 168.5 313.5Q212 329 256.0 329.0Q300 329 343.0 313.5Q386 298 415.5 276.0Q445 254 463.0 231.0Q481 208 481.0 192.0Q481 176 463.0 153.0Q445 130 415.5 108.0Q386 86 343.0 70.5Q300 55 256 55Z" fill="#f5f8fa" />
<path d="M171.0 107.0Q136 142 136.0 192.0Q136 242 171.0 277.0Q206 312 256.0 312.0Q306 312 341.0 277.0Q376 242 376.0 192.0Q376 142 341.0 107.0Q306 72 256.0 72.0Q206 72 171.0 107.0Z" fill="#8b5e3c" />
<path d="M208.5 144.5Q189 164 189.0 192.0Q189 220 208.5 239.5Q228 259 256.0 259.0Q284 259 303.5 239.5Q323 220 323.0 192.0Q323 164 303.5 144.5Q284 125 256.0 125.0Q228 125 208.5 144.5Z" fill="#292f33" />
<path d="M193.0 214.5Q185 223 185.0 234.5Q185 246 193.0 254.5Q201 263 213.0 263.0Q225 263 233.5 254.5Q242 246 242.0 234.5Q242 223 233.5 214.5Q225 206 213.0 206.0Q201 206 193.0 214.5Z" fill="#f5f8fa" />
</g></svg>