<svg xmlns="http://www.w3.org/2000/svg" viewBox="0 0 512 512">
<g transform="matrix(1 0 0 -1 0 512)">
<path d="M508 278Q510 276 510.0 262.0Q510 248 508 245Q507 244 504.0 241.5Q501 239 498.5 237.0Q496 235 492.5 230.0Q489 225 488 219Q487 218 484.0 193.5Q481 169 473.5 146.5Q466 124 455 114Q434 99 389.0 99.0Q344 99 322 110Q312 116 304.5 126.0Q297 136 292.0 150.0Q287 164 284.5 174.0Q282 184 279.0 200.0Q276 216 276 219Q273 234 256.0 234.0Q239 234 236 219Q236 216 233.0 200.0Q230 184 227.5 174.0Q225 164 220.0 150.0Q215 136 207.5 126.0Q200 116 189 110Q168 99 123.0 99.0Q78 99 57 114Q46 124 38.5 146.5Q31 169 28.0 193.5Q25 218 24 219Q23 225 19.5 230.0Q16 235 13.5 237.0Q11 239 8.0 241.5Q5 244 4 245Q2 248 2.0 262.0Q2 276 4 278Q8 282 35.0 285.0Q62 288 106.5 288.0Q151 288 193 284Q195 283 212.5 279.5Q230 276 256 275Q282 276 299.5 279.5Q317 283 319 284Q361 288 405.5 288.0Q450 288 477.0 285.0Q504 282 508 278Z" fill="#31373d" />
<path d="M208 225Q203 156 183 138Q168 124 129.0 123.0Q90 122 72 138Q64 146 57.0 175.5Q50 205 51 235Q51 251 71.0 257.0Q91 263 129 263Q167 263 188.5 255.0Q210 247 208 225ZM304 225Q302 247 323.5 255.0Q345 263 383 263Q421 263 440.5 257.0Q460 251 461 235Q461 205 454.5 175.5Q448 146 439 138Q422 122 383.0 123.0Q344 124 329 138Q309 156 304 225Z" fill="#55acee" />
</g></svg>