<svg xmlns="http://www.w3.org/2000/svg" viewBox="0 0 512 512">
<g transform="matrix(1 0 0 -1 0 512)">
<path d="M45.5 58.5Q12 114 12.0 192.0Q12 270 45.5 325.5Q79 381 125.5 381.0Q172 381 205.5 325.5Q239 270 239.0 192.0Q239 114 205.5 58.5Q172 3 125.5 3.0Q79 3 45.5 58.5Z" fill="#f5f8fa" />
<path d="M213.5 50.0Q178 -8 125.5 -8.0Q73 -8 37.5 50.0Q2 108 2.0 192.0Q2 276 37.5 334.0Q73 392 125.5 392.0Q178 392 213.5 334.0Q249 276 249.0 192.0Q249 108 213.5 50.0ZM198.0 318.0Q168 370 125.5 370.0Q83 370 53.0 318.0Q23 266 23.0 192.0Q23 118 53.0 66.0Q83 14 125.5 14.0Q168 14 198.0 66.0Q228 118 228.0 192.0Q228 266 198.0 318.0Z" fill="#e1e8ed" />
<path d="M44.0 142.0Q23 163 23.0 192.0Q23 221 44.0 242.0Q65 263 94.0 263.0Q123 263 143.5 242.0Q164 221 164.0 192.0Q164 163 143.5 142.0Q123 121 94.0 121.0Q65 121 44.0 142.0Z" fill="#8899a6" />
<path d="M58.0 156.0Q43 171 43.0 192.0Q43 213 58.0 228.0Q73 243 94.0 243.0Q115 243 129.5 228.0Q144 213 144.0 192.0Q144 171 129.5 156.0Q115 141 94.0 141.0Q73 141 58.0 156.0Z" fill="#292f33" />
<path d="M98.0 214.0Q92 220 92.0 228.5Q92 237 98.0 243.0Q104 249 112.5 249.0Q121 249 127.0 243.0Q133 237 133.0 228.5Q133 220 127.0 214.0Q121 208 112.5 208.0Q104 208 98.0 214.0ZM307.0 58.5Q274 114 274.0 192.0Q274 270 307.0 325.5Q340 381 387.0 381.0Q434 381 467.0 325.5Q500 270 500.0 192.0Q500 114 467.0 58.5Q434 3 387.0 3.0Q340 3 307.0 58.5Z" fill="#f5f8fa" />
<path d="M475.0 50.0Q439 -8 387.0 -8.0Q335 -8 299.5 50.0Q264 108 264.0 192.0Q264 276 299.5 334.0Q335 392 387.0 392.0Q439 392 475.0 334.0Q511 276 511.0 192.0Q511 108 475.0 50.0ZM460.0 318.0Q430 370 387.5 370.0Q345 370 315.0 318.0Q285 266 285.0 192.0Q285 118 315.0 66.0Q345 14 387.5 14.0Q430 14 460.0 66.0Q490 118 490.0 192.0Q490 266 460.0 318.0Z" fill="#e1e8ed" />
<path d="M305.5 142.0Q285 163 285.0 192.0Q285 221 305.5 242.0Q326 263 355.5 263.0Q385 263 405.5 242.0Q426 221 426.0 192.0Q426 163 405.5 142.0Q385 121 355.5 121.0Q326 121 305.5 142.0Z" fill="#8899a6" />
<path d="M320.0 156.0Q305 171 305.0 192.0Q305 213 320.0 228.0Q335 243 356.0 243.0Q377 243 391.5 228.0Q406 213 406.0 192.0Q406 171 391.5 156.0Q377 141 356.0 141.0Q335 141 320.0 156.0Z" fill="#292f33" />
<path d="M360.0 214.0Q354 220 354.0 228.5Q354 237 360.0 243.0Q366 249 374.5 249.0Q383 249 389.0 243.0Q395 237 395.0 228.5Q395 220 389.0 214.0Q383 208 374.5 208.0Q366 208 360.0 214.0Z" fill="#f5f8fa" />
</g></svg>