<svg xmlns="http://www.w3.org/2000/svg" viewBox="0 0 2048 2048">
<g transform="matrix(1 0 0 -1 0 2048)">
<path d="M512 192Q512 129 483.0 74.0Q454 19 404 -16Q403 57 427.5 117.5Q452 178 492 178Q502 178 508 175Q502 192 477 192Q448 192 426.5 157.5Q405 123 396.0 73.5Q387 24 391 -25Q329 -64 256.0 -64.0Q183 -64 121 -25Q125 24 116.0 73.5Q107 123 85.5 157.5Q64 192 35 192Q10 192 4 175Q11 178 20 178Q60 178 84.5 117.5Q109 57 108 -16Q58 19 29.0 74.0Q0 129 0 192Q0 298 75.0 373.0Q150 448 256.0 448.0Q362 448 437.0 373.0Q512 298 512 192Z" fill="#ffcc4d" />
<path d="M512 192Q512 167 507 142Q502 160 492 178Q502 178 508 175Q503 189 483 191Q451 237 390.0 264.5Q329 292 256.0 292.0Q183 292 122.0 264.5Q61 237 29 191Q9 189 4 175Q11 178 20 178Q10 160 5 142Q0 167 0 192Q0 298 75.0 373.0Q150 448 256.0 448.0Q362 448 437.0 373.0Q512 298 512 192Z" fill="#bdddf4" />
<path d="M104.0 216.0Q94 245 104.5 278.5Q115 312 139.0 331.0Q163 350 187.0 343.0Q211 336 220.5 307.0Q230 278 220.0 244.0Q210 210 186.0 191.0Q162 172 138.0 179.5Q114 187 104.0 216.0ZM373.0 331.0Q397 312 407.5 278.5Q418 245 408.0 216.0Q398 187 374.0 179.5Q350 172 326.0 191.0Q302 210 292.0 244.0Q282 278 291.5 307.0Q301 336 325.0 343.0Q349 350 373.0 331.0Z" fill="#f5f8fa" />
<path d="M327 121V36Q327 6 306.0 -15.0Q285 -36 256.0 -36.0Q227 -36 206.0 -15.0Q185 6 185 36V121Q185 150 206.0 171.0Q227 192 256.0 192.0Q285 192 306.0 171.0Q327 150 327 121Z" fill="#664500" />
<path d="M20 178Q51 178 74.5 137.0Q98 96 104.0 42.5Q110 -11 104 -64H12Q21 -28 19.5 15.0Q18 58 10.5 86.5Q3 115 1.0 144.5Q-1 174 8 182Q5 179 4 175Q11 178 20 178ZM508 175Q514 160 507.0 118.0Q500 76 494.0 34.0Q488 -8 500 -64H409Q402 -11 408.0 43.0Q414 97 437.5 137.5Q461 178 492 178Q502 178 508 175Z" fill="#fcab40" />
</g></svg>