<svg xmlns="http://www.w3.org/2000/svg" viewBox="0 0 2048 2048">
<g transform="matrix(1 0 0 -1 0 2048)">
<path d="M512 192Q512 86 437.0 11.0Q362 -64 256.0 -64.0Q150 -64 75.0 11.0Q0 86 0.0 192.0Q0 298 75.0 373.0Q150 448 256.0 448.0Q362 448 437.0 373.0Q512 298 512 192Z" fill="#ffcc4d" />
<path d="M405 195Q407 190 403 186Q401 185 398.5 185.0Q396 185 394 186Q376 199 341 199Q306 199 289 186Q284 183 280.0 186.5Q276 190 278 195Q279 197 281.0 200.5Q283 204 288.5 212.0Q294 220 301.0 226.0Q308 232 319.0 237.0Q330 242 341.5 242.0Q353 242 364.0 237.0Q375 232 381.5 226.0Q388 220 394.0 212.0Q400 204 402.0 200.5Q404 197 405 195ZM248 195Q251 190 246 186Q244 185 241.5 185.0Q239 185 238 186Q220 199 185 199Q151 199 132 186Q128 183 123.5 186.5Q119 190 122 195Q123 197 124.5 200.5Q126 204 132.0 212.0Q138 220 144.5 226.0Q151 232 162.0 237.0Q173 242 185.0 242.0Q197 242 207.5 237.0Q218 232 225.0 226.0Q232 220 238.0 212.0Q244 204 245.5 200.5Q247 197 248 195ZM185 50Q185 52 186.5 56.0Q188 60 193.5 69.5Q199 79 206.5 86.5Q214 94 227.0 100.5Q240 107 256 107Q281 107 299.0 92.5Q317 78 322 64L327 50Q313 64 256 64Q231 64 213.0 60.5Q195 57 190 53Z" fill="#664500" />
<path d="M156 292Q156 262 135.5 241.0Q115 220 85.5 220.0Q56 220 35.0 241.0Q14 262 14 292Q14 320 44.0 377.0Q74 434 85.5 434.0Q97 434 126.5 377.0Q156 320 156 292Z" fill="#5dadec" />
</g></svg>