<svg xmlns="http://www.w3.org/2000/svg" viewBox="0 0 2048 2048">
<g transform="matrix(1 0 0 -1 0 2048)">
<path d="M498 192Q498 92 427.0 21.0Q356 -50 256.0 -50.0Q156 -50 85.0 21.0Q14 92 14.0 192.0Q14 292 85.0 363.0Q156 434 256.0 434.0Q356 434 427.0 363.0Q498 292 498 192Z" fill="#ffcc4d" />
<path d="M215.5 19.5Q199 32 199.0 49.5Q199 67 215.5 79.5Q232 92 256.0 92.0Q280 92 296.5 79.5Q313 67 313.0 49.5Q313 32 296.5 19.5Q280 7 256.0 7.0Q232 7 215.5 19.5ZM383 307Q380 307 377 308Q353 320 326 320Q314 320 302 318Q300 317 299 317Q293 317 288.5 321.5Q284 326 284 331Q284 343 296 345Q311 349 326 349Q360 349 390 334Q398 330 398 321Q398 315 393.5 311.0Q389 307 384 307ZM129 307Q123 307 118.5 311.0Q114 315 114 321Q114 330 122 334Q152 349 185 349Q201 349 216 345Q228 343 228 331Q228 326 223.5 321.5Q219 317 213 317Q212 317 210 318Q198 320 186 320Q159 320 135 308Q132 307 129 307Z" fill="#65471b" />
<path d="M397 241Q398 234 398 227Q398 200 379.5 181.5Q361 163 334 163Q311 163 293.5 177.5Q276 192 272 214Q270 221 270 227Q270 254 289.0 272.5Q308 291 334 291Q357 291 374.5 277.0Q392 263 397 241Z" fill="#f4f7f9" />
<path d="M309.0 188.5Q299 199 299.0 213.5Q299 228 309.0 238.5Q319 249 334.0 249.0Q349 249 359.5 238.5Q370 228 370.0 213.5Q370 199 359.5 188.5Q349 178 334.0 178.0Q319 178 309.0 188.5Z" fill="#292f33" />
<path d="M199 254 204 261Q205 262 207.0 264.0Q209 266 215.5 268.5Q222 271 228 265Q235 261 236.0 254.5Q237 248 235 244L233 241L223 226Q227 224 230 221Q231 222 233.0 224.0Q235 226 242.0 228.5Q249 231 255 225Q262 221 263.0 215.0Q264 209 262 205L260 201L240 173Q241 172 243.5 170.0Q246 168 247 166Q248 168 250.0 170.0Q252 172 258.5 174.5Q265 177 272 171Q278 166 279.0 160.0Q280 154 278 150L276 146L196 29Q164 -18 108 -18Q75 -18 47 1Q1 33 1 89Q1 114 12 137Q22 156 33 189L48 233Q48 235 49.5 238.0Q51 241 56.5 244.5Q62 248 69.5 246.0Q77 244 80.5 238.5Q84 233 83 228L82 224L69 159Q73 156 76 154L162 279Q163 280 165.0 282.0Q167 284 173.5 286.5Q180 289 187 283Q193 279 194.0 272.5Q195 266 193 262L191 258Z" fill="#f19020" />
<path d="M494 94Q494 92 494.5 81.0Q495 70 494.5 65.0Q494 60 492.5 49.0Q491 38 487.0 31.0Q483 24 477.0 15.0Q471 6 460.5 -0.5Q450 -7 436 -13Q408 -21 387.0 -19.0Q366 -17 349.5 -4.0Q333 9 324.0 20.5Q315 32 311 42Q308 50 304.0 64.0Q300 78 296.0 88.0Q292 98 289 102Q287 106 283.0 111.5Q279 117 270.5 128.5Q262 140 256.0 147.5Q250 155 250 155Q247 159 247 164Q247 171 253 176Q253 176 256 177Q259 180 264.0 180.0Q269 180 272 178Q275 176 276 174L324 109Q335 97 335 103Q334 108 325 122Q325 122 325 122L280 183Q279 185 277.5 187.0Q276 189 272.5 193.5Q269 198 266.5 201.5Q264 205 264 205Q261 209 261 214Q261 221 267 226L269 227Q273 230 278 230Q285 230 290 224L352 139H353Q365 121 369 129Q370 132 368 139Q368 142 368 145Q348 245 348 245Q347 246 347 248Q347 260 359 262L361 263Q367 264 372.0 260.5Q377 257 378 251L380 245Q381 239 383.0 230.0Q385 221 389.0 201.5Q393 182 395.5 169.0Q398 156 398 156Q399 155 399 153Q402 134 407 135Q411 136 408 149Q408 149 408 150L389 247Q386 260 399 262Q403 263 403 263Q405 263 406 263Q418 263 420 252L442 143Q442 142 442.5 141.5Q443 141 443 140Q448 116 459 117Q465 118 467 129V130Q468 133 468.5 138.0Q469 143 470.5 153.5Q472 164 473.5 171.0Q475 178 475 178Q477 191 490 191Q491 191 492 191H494Q507 189 507 176Q507 175 506 173Z" fill="#f19020" />
<path d="M199 254 121 134Q119 132 117 132Q115 132 114 133Q112 134 112 137Q112 138 113 139Q113 139 132.5 169.0Q152 199 171 229L191 259ZM231 221 160 110Q158 107 156 107Q154 107 153 108Q151 110 151 112Q151 114 152 115Q152 115 169.5 142.5Q187 170 205 198L223 226ZM248 168 195 84Q194 82 191 82Q190 82 189 83Q187 84 187 87Q187 88 187 89Q187 89 200.5 110.0Q214 131 227 152L240 173ZM280 183 339 103Q340 101 340 100Q340 95 335 95Q332 95 331 97L272 178ZM389 247 412 135Q412 135 412 134Q412 130 407 130Q403 130 402 134Q402 134 396.5 161.5Q391 189 385 217L380 245Z" fill="#b55005" />
<path d="M250 155 267 133 261 124 242 150Q236 159 238 169L248 168Q246 161 250 155Z" fill="#b55005" />
</g></svg>