<svg xmlns="http://www.w3.org/2000/svg" viewBox="0 0 512 512">
<g transform="matrix(1 0 0 -1 0 512)">
<path d="M512 192Q512 86 437.0 11.0Q362 -64 256.0 -64.0Q150 -64 75.0 11.0Q0 86 0.0 192.0Q0 298 75.0 373.0Q150 448 256.0 448.0Q362 448 437.0 373.0Q512 298 512 192Z" fill="#ffcc4d" />
<path d="M85 164Q78 164 74 169Q65 181 77 189Q118 220 174 231Q138 249 100 249Q94 249 89.5 253.0Q85 257 85.0 263.0Q85 269 89.5 273.0Q94 277 100 277Q109 277 123.5 275.5Q138 274 170.5 262.5Q203 251 223 230Q230 224 226.5 215.0Q223 206 213 206Q184 206 153.0 195.0Q122 184 111.0 177.5Q100 171 94 166Q90 164 85 164ZM427 164Q422 164 418 166Q413 171 401.5 178.0Q390 185 359.0 195.5Q328 206 299 206Q289 206 285.5 215.0Q282 224 289 230Q309 251 341.5 262.5Q374 274 388.5 275.5Q403 277 412 277Q418 277 422.5 273.0Q427 269 427.0 263.0Q427 257 422.5 253.0Q418 249 412 249Q374 249 338 231Q395 220 435 189Q447 181 438 169Q434 164 427 164ZM100 146Q173 128 251.5 128.0Q330 128 371 137L412 146Q412 100 366.5 59.0Q321 18 256.0 18.0Q191 18 145.5 59.0Q100 100 100 146Z" fill="#66471b" />
<path d="M264 112Q305 113 341 120V22Q341 -13 318.5 -38.0Q296 -63 256.0 -63.0Q216 -63 193.5 -38.0Q171 -13 171 22V121Q203 113 248 112Z" fill="#e8596e" />
<path d="M248 3V112H264V3Q264 -5 256.0 -5.0Q248 -5 248 3Z" fill="#dd2f45" />
</g></svg>