<svg xmlns="http://www.w3.org/2000/svg" viewBox="0 0 2048 2048">
<g transform="matrix(1 0 0 -1 0 2048)">
<path d="M512 192Q512 86 437.0 11.0Q362 -64 256.0 -64.0Q150 -64 75.0 11.0Q0 86 0.0 192.0Q0 298 75.0 373.0Q150 448 256.0 448.0Q362 448 437.0 373.0Q512 298 512 192Z" fill="#ffcc4d" />
<path d="M145.5 185.5Q135 197 135.0 213.5Q135 230 145.5 241.0Q156 252 170.5 252.0Q185 252 195.5 241.0Q206 230 206.0 213.5Q206 197 195.5 185.5Q185 174 170.5 174.0Q156 174 145.5 185.5ZM316.5 178.5Q306 193 306.0 213.5Q306 234 316.5 248.5Q327 263 341.5 263.0Q356 263 366.5 248.5Q377 234 377.0 213.5Q377 193 366.5 178.5Q356 164 341.5 164.0Q327 164 316.5 178.5Z" fill="#664500" />
<path d="M101 269Q97 272 96 277Q91 290 105 295Q125 301 146.0 302.0Q167 303 180.5 300.5Q194 298 207.0 293.5Q220 289 224.5 286.5Q229 284 232 282Q243 274 235.0 262.0Q227 250 215 258Q213 260 209.5 262.0Q206 264 196.0 267.5Q186 271 175.0 273.0Q164 275 147.0 274.0Q130 273 114 267Q107 265 101 269ZM356 78H156Q151 78 146.5 82.5Q142 87 142.0 92.5Q142 98 146.5 102.5Q151 107 156 107H356Q361 107 365.5 102.5Q370 98 370.0 92.5Q370 87 365.5 82.5Q361 78 356 78ZM427 300Q418 300 413 307Q399 324 374.0 338.5Q349 353 337 353Q323 353 300 331Q295 326 287.5 326.0Q280 326 275.0 331.5Q270 337 270.0 344.5Q270 352 275 357Q309 389 337 389Q359 389 390.5 370.5Q422 352 441 329Q445 323 444.5 315.5Q444 308 438 304Q433 300 427 300Z" fill="#664500" />
</g></svg>