<svg xmlns="http://www.w3.org/2000/svg" viewBox="0 0 2048 2048">
<g transform="matrix(1 0 0 -1 0 2048)">
<path d="M512 192Q512 86 437.0 11.0Q362 -64 256.0 -64.0Q150 -64 75.0 11.0Q0 86 0.0 192.0Q0 298 75.0 373.0Q150 448 256.0 448.0Q362 448 437.0 373.0Q512 298 512 192Z" fill="#ffcb4c" />
<path d="M147.0 201.5Q136 217 136.0 239.0Q136 261 147.0 276.0Q158 291 173.5 291.0Q189 291 200.0 276.0Q211 261 211.0 239.0Q211 217 200.0 201.5Q189 186 173.5 186.0Q158 186 147.0 201.5ZM211 307Q203 307 199 313Q178 341 155 342Q134 344 116 326Q105 315 94.5 326.0Q84 337 95 347Q122 375 157 373Q193 370 223 331Q232 319 220 310Q216 307 211 307ZM301 41Q298 41 294 43Q275 53 256.0 53.0Q237 53 218 43Q204 36 197.5 49.5Q191 63 204 70Q256 96 308 70Q321 63 315 50Q310 41 301 41Z" fill="#65471b" />
<path d="M284.5 175.5Q256 204 256.0 244.5Q256 285 284.5 314.0Q313 343 353.5 343.0Q394 343 423.0 314.0Q452 285 452.0 244.5Q452 204 423.0 175.5Q394 147 353.5 147.0Q313 147 284.5 175.5Z" fill="#f4f7f9" />
<path d="M452 -49V237Q452 243 456.5 247.5Q461 252 467.0 252.0Q473 252 477.5 247.5Q482 243 482 237V-49Q482 -55 477.5 -59.5Q473 -64 467.0 -64.0Q461 -64 456.5 -59.5Q452 -55 452 -49Z" fill="#292f33" />
<path d="M467 267Q479 267 488.0 258.5Q497 250 497.0 237.5Q497 225 488.0 216.0Q479 207 467 207Q464 207 460 208Q449 174 419.5 153.0Q390 132 354 132Q307 132 274.0 165.0Q241 198 241.0 244.5Q241 291 274.0 324.5Q307 358 354 358Q395 358 426.0 332.0Q457 306 465 267Q465 267 465.5 267.0Q466 267 467 267ZM295.5 186.0Q320 162 354.0 162.0Q388 162 412.5 186.0Q437 210 437.0 244.5Q437 279 412.5 303.5Q388 328 354.0 328.0Q320 328 295.5 303.5Q271 279 271.0 244.5Q271 210 295.5 186.0Z" fill="#67757f" />
<path d="M399 314 284 200Q271 220 271 245Q271 279 295.5 303.5Q320 328 354 328Q378 328 399 314ZM319 170 429 280Q437 263 437 245Q437 210 412.5 186.0Q388 162 354 162Q335 162 319 170Z" fill="#bdddf4" />
</g></svg>