<svg xmlns="http://www.w3.org/2000/svg" viewBox="0 0 512 512">
<g transform="matrix(1 0 0 -1 0 512)">
<path d="M512 192Q512 86 437.0 11.0Q362 -64 256.0 -64.0Q150 -64 75.0 11.0Q0 86 0.0 192.0Q0 298 75.0 373.0Q150 448 256.0 448.0Q362 448 437.0 373.0Q512 298 512 192Z" fill="#ffcc4d" />
<path d="M215.5 42.0Q199 63 199.0 92.5Q199 122 215.5 143.0Q232 164 256.0 164.0Q280 164 296.5 143.0Q313 122 313.0 92.5Q313 63 296.5 42.0Q280 21 256.0 21.0Q232 21 215.5 42.0ZM145.5 220.5Q135 235 135.0 256.0Q135 277 145.5 291.5Q156 306 170.5 306.0Q185 306 195.5 291.5Q206 277 206.0 256.0Q206 235 195.5 220.5Q185 206 170.5 206.0Q156 206 145.5 220.5ZM316.5 220.5Q306 235 306.0 256.0Q306 277 316.5 291.5Q327 306 341.5 306.0Q356 306 366.5 291.5Q377 277 377.0 256.0Q377 235 366.5 220.5Q356 206 341.5 206.0Q327 206 316.5 220.5Z" fill="#664500" />
</g></svg>