<svg xmlns="http://www.w3.org/2000/svg" viewBox="0 0 2048 2048">
<g transform="matrix(1 0 0 -1 0 2048)">
<path d="M71.0 7.0Q0 78 0.0 178.0Q0 278 71.0 349.0Q142 420 242.0 420.0Q342 420 413.0 349.0Q484 278 484.0 178.0Q484 78 413.0 7.0Q342 -64 242.0 -64.0Q142 -64 71.0 7.0Z" fill="#ffcc4d" />
<path d="M236.0 53.0Q228 63 228.0 78.0Q228 93 236.0 103.5Q244 114 256.0 114.0Q268 114 276.0 103.5Q284 93 284.0 78.0Q284 63 276.0 53.0Q268 43 256.0 43.0Q244 43 236.0 53.0ZM115 144Q111 144 108 146Q96 154 103 166Q117 187 146.0 202.0Q175 217 213 208Q218 206 221.5 201.0Q225 196 223.5 190.5Q222 185 217.0 182.0Q212 179 206 180Q183 186 163.0 177.5Q143 169 136.5 162.0Q130 155 127 151Q123 144 115 144ZM286 197Q279 197 275 202Q266 213 277 222Q297 239 322.0 243.5Q347 248 364.0 243.5Q381 239 393 232Q405 224 397.5 212.0Q390 200 378 207Q373 211 364.5 214.5Q356 218 334.5 216.5Q313 215 295 200Q291 197 286 197Z" fill="#664500" />
<path d="M190 3Q188 3 187 4Q177 7 180 17Q189 51 173 75Q161 91 145 92Q134 92 135 103Q135 107 138.5 110.0Q142 113 146 113Q173 111 190 87Q213 55 200 11Q198 3 190 3ZM347 47Q344 47 341 49Q315 66 315 101Q316 139 344 156Q353 162 358.5 152.5Q364 143 355 138Q337 127 337 101Q336 77 353 66Q362 60 356 52Q353 47 347 47Z" fill="#e2a62d" />
<path d="M244 409Q251 402 221.5 366.5Q192 331 143.5 288.5Q95 246 56.5 221.0Q18 196 11 203Q11 204 11 206Q11 206 2 390Q1 441 5 445Q10 449 69.0 440.5Q128 432 185 421L242 411Q243 410 244 409Z" fill="#dd2e44" />
<path d="M5 444Q10 445 30.0 409.0Q50 373 76.5 320.0Q103 267 108 259Q67 226 42 212Q33 244 20.5 327.0Q8 410 4 442Q5 443 5 444Z" fill="#ea596e" />
<path d="M425 32 275 51Q275 51 269.5 51.5Q264 52 262.5 52.0Q261 52 256.5 52.5Q252 53 250.0 54.0Q248 55 244.0 56.5Q240 58 238.5 60.0Q237 62 235.0 64.5Q233 67 232.5 70.5Q232 74 232 78Q233 93 249.5 96.0Q266 99 282 94L433 69Z" fill="#3b88c3" />
<path d="M433 69 428 32 369 39Q359 41 359 59Q359 68 363.5 74.0Q368 80 373 79Z" fill="#88c9f9" />
<path d="M497 73 459 39 393 112 430 146Q444 159 464.0 158.5Q484 158 498 143L499 141Q513 126 512.0 106.5Q511 87 497 73Z" fill="#3b88c3" />
<path d="M429.0 31.0Q411 34 397.0 49.0Q383 64 382.0 82.5Q381 101 393.0 112.0Q405 123 423.0 120.0Q441 117 455.0 102.0Q469 87 470.0 68.5Q471 50 459.0 39.0Q447 28 429.0 31.0Z" fill="#88c9f9" />
<path d="M430.0 50.5Q420 53 411.5 62.0Q403 71 401.5 81.5Q400 92 406.0 97.5Q412 103 422.0 100.5Q432 98 440.5 89.0Q449 80 450.5 69.5Q452 59 446.0 53.5Q440 48 430.0 50.5Z" fill="#226699" />
<path d="M20.5 -43.5Q14 -37 14.0 -28.5Q14 -20 20.5 -13.5Q27 -7 35.5 -7.0Q44 -7 50.5 -13.5Q57 -20 57.0 -28.5Q57 -37 50.5 -43.5Q44 -50 35.5 -50.0Q27 -50 20.5 -43.5ZM392.5 399.5Q384 408 384.0 419.5Q384 431 392.5 439.5Q401 448 412.5 448.0Q424 448 432.5 439.5Q441 431 441.0 419.5Q441 408 432.5 399.5Q424 391 412.5 391.0Q401 391 392.5 399.5Z" fill="#55acee" />
<path d="M69 32 6 26 36 112ZM370 377 313 363 327 420Z" fill="#ea596e" />
<path d="M455 263 469 363 512 334Z" fill="#77b255" />
</g></svg>