<svg xmlns="http://www.w3.org/2000/svg" viewBox="0 0 512 512">
<g transform="matrix(1 0 0 -1 0 512)">
<path d="M58 26Q49 32 43.5 59.0Q38 86 44 89Q48 90 49.5 90.0Q51 90 53.5 86.0Q56 82 58.5 78.0Q61 74 65.5 67.5Q70 61 76 55Q90 43 137.0 40.0Q184 37 186 37Q194 34 178 28Q132 11 85 17Q68 20 58 26Z" fill="#c1694f" />
<path d="M76 55Q54 147 77 208Q92 248 178.5 316.0Q265 384 338 410Q360 418 411.5 426.0Q463 434 498 434Q503 412 493.0 377.0Q483 342 475 327Q472 321 467.5 315.5Q463 310 456.0 301.5Q449 293 443.5 286.5Q438 280 426.0 267.5Q414 255 406.0 247.0Q398 239 380.5 221.0Q363 203 352 192Q350 190 313.5 193.5Q277 197 275 195Q274 193 281 190Q287 187 302 182Q330 170 329 168Q312 150 296 132Q295 131 236.0 137.5Q177 144 176 142L198 135Q206 133 227 127Q279 114 279 112Q265 95 251 78Q240 64 196.5 58.5Q153 53 115 54Z" fill="#d99e82" />
<path d="M272 266 264 272 334 332 345 326Q373 313 452 296Q436 278 391 232Q307 245 272 266Z" fill="#c1694f" />
<path d="M499 426Q501 404 491.5 372.0Q482 340 475 327Q471 320 464 311Q459 304 452 296Q373 313 345 326Q307 297 272 266Q154 162 85 55H76Q76 57 75 60Q75 62 75 63Q159 186 260 280Q293 311 328 338Q311 360 303 395Q313 400 323 405Q333 409 338 410Q357 417 401.0 424.0Q445 431 480 433Q490 434 498 434Q499 431 499 426Z" fill="#662113" />
<path d="M498 434Q499 431 499 427Q437 398 376.5 356.0Q316 314 271.0 271.5Q226 229 183.0 180.0Q140 131 113.0 93.5Q86 56 62.5 18.5Q39 -19 31.5 -32.5Q24 -46 21 -53Q19 -57 14 -57Q13 -57 11 -56Q5 -53 8 -47Q11 -40 19.0 -26.0Q27 -12 50.5 25.5Q74 63 101.0 100.5Q128 138 171.0 187.5Q214 237 260 280Q248 303 239 359Q272 380 303 395Q311 360 328 338Q403 396 482 434Q490 434 498 434Z" fill="#c1694f" />
</g></svg>