<svg xmlns="http://www.w3.org/2000/svg" viewBox="0 0 2048 2048">
<g transform="matrix(1 0 0 -1 0 2048)">
<path d="M344 341Q345 304 342 297Q340 293 324.5 271.5Q309 250 308 248Q304 241 284 243Q280 244 257.0 248.5Q234 253 232 253Q232 253 226.0 251.0Q220 249 216 249Q209 249 200.5 256.5Q192 264 193 272Q196 285 213 286Q218 287 222.0 284.5Q226 282 228 279L230 276Q267 275 274 274Q275 274 277 273Q286 271 288 276Q288 280 297.5 298.0Q307 316 308 317Q317 341 344 341ZM323 219 404 212Q417 152 426 92Q429 71 420.5 26.0Q412 -19 412 -24Q411 -35 404.5 -38.0Q398 -41 392.5 -35.5Q387 -30 388 -23Q388 -18 386.0 9.5Q384 37 384 50Q384 59 385.5 70.5Q387 82 387 84Q386 89 379.0 109.5Q372 130 365 148L358 166L308 87Q313 66 315 47Q315 38 315.5 19.0Q316 0 317.5 -13.0Q319 -26 322 -34Q326 -45 313 -45Q295 -42 292 -34Q293 -26 287.0 -1.5Q281 23 273.5 48.0Q266 73 266 76Q262 93 269 103Z" fill="#ccd6dd" />
<path d="M442 -50H384Q381 -50 380.0 -46.0Q379 -42 381.0 -33.5Q383 -25 383 -24Q383 -18 390 -23Q393 -26 406 -19Q421 -11 424 -16Q431 -26 440.5 -30.5Q450 -35 451 -35Q457 -39 456.0 -44.5Q455 -50 442 -50ZM266 -50Q229 -49 237 -35Q240 -32 255.0 -29.5Q270 -27 275 -20Q277 -16 283.5 -15.0Q290 -14 291 -19Q292 -25 302.5 -25.5Q313 -26 315 -23Q322 -18 322 -24Q322 -25 323.5 -33.5Q325 -42 324.5 -46.0Q324 -50 321 -50ZM359 342H398Q417 342 421 324Q426 303 417 287Q398 255 398 239Q398 232 405.5 211.0Q413 190 413 189Q414 186 410.0 184.0Q406 182 399.0 180.0Q392 178 388 175Q380 170 372.5 162.0Q365 154 364 151Q363 147 356.0 145.5Q349 144 347 150Q343 162 323 179Q320 181 315.5 184.0Q311 187 309.5 188.5Q308 190 308 192Q309 194 313.5 208.5Q318 223 318 227Q320 246 312.0 261.5Q304 277 307 288Q310 302 318.0 318.5Q326 335 333 339Q340 342 359 342Z" fill="#99aab5" />
<path d="M411 338Q416 339 420.5 337.5Q425 336 428.5 333.0Q432 330 433 330Q438 327 458 320Q458 320 461.5 317.5Q465 315 466.5 316.5Q468 318 468 323Q468 328 472 352L476 372Q475 373 473.0 375.5Q471 378 468.5 383.5Q466 389 466 391Q467 395 470.0 401.5Q473 408 477 409Q485 413 505 399Q513 394 504 381Q496 369 496 356Q496 307 493 286Q492 276 473 279Q447 281 408 290Q393 294 396.5 315.5Q400 337 411 338ZM353 429Q367 432 379.5 426.0Q392 420 398 411Q404 400 400.5 377.0Q397 354 400 349Q403 340 401.5 337.5Q400 335 392 329Q373 316 356 316Q330 317 335 339Q337 346 336 353Q327 360 327 382Q327 391 326.5 400.0Q326 409 332.5 417.5Q339 426 353 429Z" fill="#ccd6dd" />
<path d="M395 388Q393 370 381.5 354.0Q370 338 356.0 338.0Q342 338 333.0 350.0Q324 362 323 380Q321 397 334.5 413.5Q348 430 363 429Q378 428 387.5 416.5Q397 405 395 388Z" fill="#f5f8fa" />
<path d="M389 389Q387 371 377.0 357.0Q367 343 353 343Q339 343 329.5 356.0Q320 369 322 389Q323 408 333.5 419.5Q344 431 359 430Q373 429 382.0 417.5Q391 406 389 389Z" fill="#292f33" />
<path d="M200 281 197 267 188 269Q0 308 1.5 315.0Q3 322 191 283Z" fill="#66757f" />
<path d="M197 251Q191 252 186.5 260.0Q182 268 184.0 277.0Q186 286 193.0 291.5Q200 297 207 296Q213 295 215.5 287.5Q218 280 216.0 270.5Q214 261 208.5 255.0Q203 249 197 251Z" fill="#66757f" />
</g></svg>