<svg xmlns="http://www.w3.org/2000/svg" viewBox="0 0 512 512">
<g transform="matrix(1 0 0 -1 0 512)">
<path d="M277.0 263.0Q270 263 270.0 284.5Q270 306 277.0 306.0Q284 306 284.0 284.5Q284 263 277.0 263.0ZM363.0 263.0Q356 263 356.0 284.5Q356 306 363.0 306.0Q370 306 370.0 284.5Q370 263 363.0 263.0Z" fill="#ea596e" />
<path d="M306.0 263.0Q299 263 299.0 284.5Q299 306 306.0 306.0Q313 306 313.0 284.5Q313 263 306.0 263.0ZM263.0 263.0Q256 263 256.0 284.5Q256 306 263.0 306.0Q270 306 270.0 284.5Q270 263 263.0 263.0ZM462.0 192.0Q455 192 455.0 213.5Q455 235 462.0 235.0Q469 235 469.0 213.5Q469 192 462.0 192.0ZM92.5 192.0Q85 192 85.0 213.5Q85 235 92.5 235.0Q100 235 100.0 213.5Q100 192 92.5 192.0Z" fill="#a6d388" />
<path d="M320.0 263.0Q313 263 313.0 284.5Q313 306 320.0 306.0Q327 306 327.0 284.5Q327 263 320.0 263.0ZM377.0 263.0Q370 263 370.0 284.5Q370 306 377.0 306.0Q384 306 384.0 284.5Q384 263 377.0 263.0ZM434.0 192.0Q427 192 427.0 213.5Q427 235 434.0 235.0Q441 235 441.0 213.5Q441 192 434.0 192.0ZM50.0 192.0Q43 192 43.0 213.5Q43 235 50.0 235.0Q57 235 57.0 213.5Q57 192 50.0 192.0Z" fill="#55acee" />
<path d="M476.5 192.0Q469 192 469.0 213.5Q469 235 476.5 235.0Q484 235 484.0 213.5Q484 192 476.5 192.0ZM78.0 192.0Q71 192 71.0 213.5Q71 235 78.0 235.0Q85 235 85.0 213.5Q85 192 78.0 192.0ZM334.0 249.0Q327 249 327.0 270.5Q327 292 334.0 292.0Q341 292 341.0 270.5Q341 249 334.0 249.0Z" fill="#f4900c" />
<path d="M412 213Q413 211 405 206H107Q114 206 114 213V242Q114 249 107 249H94L100 277H441L447 249H420Q412 249 412 242Z" fill="#ccd6dd" />
<path d="M199 213Q199 206 192 206H135Q128 206 128 213V242Q128 249 135 249H192Q199 249 199 242ZM299 213Q299 206 292 206H235Q228 206 228 213V242Q228 249 235 249H292Q299 249 299 242ZM398 213Q398 206 391 206H334Q327 206 327 213V242Q327 249 334 249H391Q398 249 398 242Z" fill="#66757f" />
<path d="M475 97Q462 95 439.0 92.5Q416 90 355.5 87.0Q295 84 245.0 85.0Q195 86 144.5 95.0Q94 104 75 123Q53 142 14 220H498Q498 195 492.0 164.0Q486 133 481 115ZM213 263 94 249 107 337H213Z" fill="#ccd6dd" />
<path d="M54 149H489L475 97Q462 95 439.0 92.5Q416 90 355.5 87.0Q295 84 245.0 85.0Q195 86 144.5 95.0Q94 104 75 123Q66 131 54 149Z" fill="#dd2e44" />
<path d="M114 171Q114 164 107 164H92Q85 164 85 171V185Q85 192 92 192H107Q114 192 114 185ZM171 171Q171 164 164 164H149Q142 164 142 171V185Q142 192 149 192H164Q171 192 171 185ZM228 171Q228 164 220 164H206Q199 164 199 171V185Q199 192 206 192H220Q228 192 228 185ZM284 171Q284 164 277 164H263Q256 164 256 171V185Q256 192 263 192H277Q284 192 284 185ZM341 171Q341 164 334 164H320Q313 164 313 171V185Q313 192 320 192H334Q341 192 341 185ZM398 171Q398 164 391 164H377Q370 164 370 171V185Q370 192 377 192H391Q398 192 398 185ZM455 171Q455 164 448 164H434Q427 164 427 171V185Q427 192 434 192H448Q455 192 455 185Z" fill="#66757f" />
<path d="M199 341Q199 334 192.0 334.0Q185 334 185 341V398Q185 405 192.0 405.0Q199 405 199 398ZM171 313Q171 306 163.5 306.0Q156 306 156 313V370Q156 377 163.5 377.0Q171 377 171 370Z" fill="#ccd6dd" />
<path d="M220 338Q220 334 213 334H107Q100 334 100 338V345Q100 348 107 348H213Q220 348 220 345Z" fill="#226699" />
<path d="M192 320Q199 320 199 313V299Q199 292 192 292H100L105 320Z" fill="#66757f" />
<path d="M156 334H171V277H156Z" fill="#ccd6dd" />
<path d="M0 107H512V-64H0Z" fill="#55acee" />
</g></svg>