<svg xmlns="http://www.w3.org/2000/svg" viewBox="0 0 2048 2048">
<g transform="matrix(1 0 0 -1 0 2048)">
<path d="M412 292H498V92H412ZM14 292H100V92H14ZM128 292H384V92H128Z" fill="#bbddf5" />
<path d="M498 292H412V92H498V21H14V92H100V292H14V363H498ZM384 92V292H128V92Z" fill="#231f20" />
<path d="M441 348H469V306H441ZM384 348H412V306H384ZM327 348H356V306H327ZM270 348H299V306H270ZM213 348H242V306H213ZM156 348H185V306H156ZM100 348H128V306H100ZM43 348H71V306H43ZM441 78H469V36H441ZM384 78H412V36H384ZM327 78H356V36H327ZM270 78H299V36H270ZM213 78H242V36H213ZM156 78H185V36H156ZM100 78H128V36H100ZM43 78H71V36H43Z" fill="#f5f8fa" />
<path d="M412 92V292H427V92ZM128 92V292H142V92Z" fill="#88c9f9" />
</g></svg>