<svg xmlns="http://www.w3.org/2000/svg" viewBox="0 0 512 512">
<g transform="matrix(1 0 0 -1 0 512)">
<path d="M498 178Q498 78 427.0 7.0Q356 -64 256.0 -64.0Q156 -64 85.0 7.0Q14 78 14 178Q14 267 72 334Q57 278 70.0 245.5Q83 213 114 216Q141 218 151.5 239.5Q162 261 151 290Q143 310 142.5 332.0Q142 354 152.0 378.0Q162 402 184 418Q174 372 195.0 343.5Q216 315 250 318Q270 319 284.5 335.0Q299 351 301.5 379.5Q304 408 283 447Q318 429 340.0 408.0Q362 387 371.0 363.5Q380 340 381.5 322.0Q383 304 382 280Q382 275 375.0 242.5Q368 210 371.5 190.5Q375 171 393 164Q425 150 451.5 177.5Q478 205 483 261Q498 221 498 178Z" fill="#f4900c" />
<path d="M404 107Q427 67 427 21Q427 15 426 6Q355 -64 256.0 -64.0Q157 -64 86 6Q85 15 85 21Q85 92 136 142Q138 103 153.0 91.5Q168 80 192 85Q204 88 214.5 95.5Q225 103 235.5 118.5Q246 134 246.0 157.0Q246 180 236 215Q305 194 317 129Q319 118 320.5 102.0Q322 86 323.5 79.5Q325 73 330.5 65.5Q336 58 347 54Q365 47 385.0 61.5Q405 76 404 107Z" fill="#ffcc4d" />
</g></svg>