<svg xmlns="http://www.w3.org/2000/svg" viewBox="0 0 2048 2048">
<g transform="matrix(1 0 0 -1 0 2048)">
<path d="M498 334Q504 334 508.0 330.0Q512 326 512.0 320.0Q512 314 508.0 310.0Q504 306 498 306H469V277H441V306H412V277H384V306H356V277H327V306H299V277H270V306H242V277H213V306H185Q179 306 175.0 310.0Q171 314 171.0 320.0Q171 326 175.0 330.0Q179 334 185 334ZM498 249H185Q179 249 175.0 253.0Q171 257 171.0 263.0Q171 269 175.0 273.0Q179 277 185 277H498Q504 277 508.0 273.0Q512 269 512.0 263.0Q512 257 508.0 253.0Q504 249 498 249Z" fill="#ccd6dd" />
<path d="M455 249Q479 249 495.5 232.5Q512 216 512 192V64Q512 40 495.5 23.5Q479 7 455 7H57Q33 7 16.5 23.5Q0 40 0 64V164Q0 169 0.5 176.5Q1 184 5.0 203.5Q9 223 16.0 238.0Q23 253 38.0 265.0Q53 277 73 277H157Q176 277 186.5 270.0Q197 263 198 256L199 249Z" fill="#dd2e44" />
<path d="M28 135H484V92H28Z" fill="#f5f8fa" />
<path d="M59.5 -33.0Q43 -16 43.0 7.5Q43 31 59.5 47.5Q76 64 99.5 64.0Q123 64 139.5 47.5Q156 31 156.0 7.5Q156 -16 139.5 -33.0Q123 -50 99.5 -50.0Q76 -50 59.5 -33.0ZM358.0 -33.0Q341 -16 341.0 7.5Q341 31 358.0 47.5Q375 64 398.5 64.0Q422 64 438.5 47.5Q455 31 455.0 7.5Q455 -16 438.5 -33.0Q422 -50 398.5 -50.0Q375 -50 358.0 -33.0Z" fill="#292f33" />
<path d="M79.5 -13.0Q71 -5 71.0 7.0Q71 19 79.5 27.5Q88 36 99.5 36.0Q111 36 119.5 27.5Q128 19 128.0 7.0Q128 -5 119.5 -13.0Q111 -21 99.5 -21.0Q88 -21 79.5 -13.0ZM378.0 -13.0Q370 -5 370.0 7.0Q370 19 378.0 27.5Q386 36 398.0 36.0Q410 36 418.5 27.5Q427 19 427.0 7.0Q427 -5 418.5 -13.0Q410 -21 398.0 -21.0Q386 -21 378.0 -13.0Z" fill="#8899a6" />
<path d="M100 164H28Q28 167 28.5 173.0Q29 179 31.5 193.5Q34 208 38.0 219.0Q42 230 50.5 239.5Q59 249 71 249H100ZM171 164H128V249H142Q153 249 162.0 240.0Q171 231 171 220Z" fill="#55acee" />
<path d="M100 277H71Q65 277 61.0 281.5Q57 286 57.0 291.5Q57 297 61.0 301.5Q65 306 71 306H100Q105 306 109.5 301.5Q114 297 114.0 291.5Q114 286 109.5 281.5Q105 277 100 277Z" fill="#ffac33" />
<path d="M128 277H100Q94 277 89.5 281.5Q85 286 85.0 291.5Q85 297 89.5 301.5Q94 306 100 306H128Q134 306 138.0 301.5Q142 297 142.0 291.5Q142 286 138.0 281.5Q134 277 128 277Z" fill="#3b88c3" />
</g></svg>