<svg xmlns="http://www.w3.org/2000/svg" viewBox="0 0 2048 2048">
<g transform="matrix(1 0 0 -1 0 2048)">
<path d="M512 391V-7Q512 -31 495.5 -47.5Q479 -64 455 -64H57Q33 -64 16.5 -47.5Q0 -31 0 -7V391Q0 415 16.5 431.5Q33 448 57 448H455Q479 448 495.5 431.5Q512 415 512 391Z" fill="#226699" />
<path d="M256 164Q258 164 260 163Q274 158 269 145L227 17Q222 3 208.5 7.5Q195 12 200 26L243 154Q246 164 256 164Z" fill="#ffcc4d" />
<path d="M256 164Q267 164 270 153L316 -16Q317 -21 314.0 -26.0Q311 -31 305.5 -33.0Q300 -35 295.0 -32.0Q290 -29 288 -23L242 146Q241 151 244.0 156.0Q247 161 252 163Q254 164 256 164Z" fill="#ffcc4d" />
<path d="M256 164Q263 164 267 158Q276 147 265 138L76 -11Q65 -20 56.5 -9.0Q48 2 59 11L247 160Q251 164 256 164Z" fill="#ffcc4d" />
<path d="M256 164Q269 164 270 151Q271 145 267.0 140.5Q263 136 258 135L82 115Q76 114 71.5 118.0Q67 122 66.5 127.5Q66 133 69.5 138.0Q73 143 79 143L254 163Q255 164 256 164Z" fill="#ffcc4d" />
<path d="M50 262Q53 262 56 261L262 162Q275 156 269.0 143.0Q263 130 250 137L44 235Q31 241 37 254Q41 262 50 262Z" fill="#ffcc4d" />
<path d="M104 379Q112 379 116 373L268 158Q276 146 264.5 138.0Q253 130 244 141L93 357Q84 368 96 377Q100 379 104 379Z" fill="#ffcc4d" />
<path d="M256 164Q261 164 265 160L432 12Q443 3 433.5 -7.5Q424 -18 413 -9L247 139Q236 148 245 159Q250 164 256 164Z" fill="#ffcc4d" />
<path d="M256 164Q258 164 260 163L436 105Q449 100 444.5 86.5Q440 73 427 78L252 136Q238 140 243 154Q246 164 256 164Z" fill="#ffcc4d" />
<path d="M453 185Q466 185 467 172Q468 166 464.0 161.5Q460 157 454 157L258 135Q252 135 247.5 138.5Q243 142 242.0 148.0Q241 154 245.0 158.5Q249 163 254 163L451 185Q452 185 453 185Z" fill="#ffcc4d" />
<path d="M256 135Q249 135 245 141Q236 152 248 161L374 253Q386 262 394.5 250.5Q403 239 391 230L264 138Q261 135 256 135Z" fill="#ffcc4d" />
<path d="M256 135Q252 135 249 137Q236 144 244 157L355 342Q363 354 375.0 346.5Q387 339 380 327L268 142Q264 135 256 135Z" fill="#ffcc4d" />
<path d="M284 448V178Q284 166 276.0 157.5Q268 149 256.0 149.0Q244 149 236.0 157.5Q228 166 228 178V448Z" fill="#55acee" />
<path d="M225.5 119.5Q213 132 213.0 149.5Q213 167 225.5 179.5Q238 192 256.0 192.0Q274 192 286.5 179.5Q299 167 299.0 149.5Q299 132 286.5 119.5Q274 107 256.0 107.0Q238 107 225.5 119.5ZM89.0 21.0Q99 11 99.0 -3.0Q99 -17 89.0 -26.5Q79 -36 65.5 -36.0Q52 -36 42.0 -26.5Q32 -17 32.0 -3.0Q32 11 42.0 21.0Q52 31 65.5 31.0Q79 31 89.0 21.0ZM392.5 -28.0Q380 -16 380.0 1.5Q380 19 392.5 31.5Q405 44 422.5 44.0Q440 44 452.5 31.5Q465 19 465.0 1.5Q465 -16 452.5 -28.0Q440 -40 422.5 -40.0Q405 -40 392.5 -28.0ZM318.0 -3.0Q325 -10 325.0 -19.5Q325 -29 318.0 -35.5Q311 -42 301.5 -42.0Q292 -42 285.5 -35.5Q279 -29 279.0 -19.5Q279 -10 285.5 -3.0Q292 4 301.5 4.0Q311 4 318.0 -3.0ZM26.0 232.5Q19 240 19.0 250.0Q19 260 26.0 267.5Q33 275 43.5 275.0Q54 275 61.5 267.5Q69 260 69.0 250.0Q69 240 61.5 232.5Q54 225 43.5 225.0Q33 225 26.0 232.5Z" fill="#f5f8fa" />
<path d="M127.0 403.0Q139 391 139.0 374.5Q139 358 127.0 346.0Q115 334 98.5 334.0Q82 334 70.0 346.0Q58 358 58.0 374.5Q58 391 70.0 403.0Q82 415 98.5 415.0Q115 415 127.0 403.0ZM479.0 194.0Q488 185 488.0 172.0Q488 159 479.0 149.5Q470 140 457.0 140.0Q444 140 434.5 149.5Q425 159 425.0 172.0Q425 185 434.5 194.0Q444 203 457.0 203.0Q470 203 479.0 194.0Z" fill="#f5f8fa" />
<path d="M351.0 316.5Q344 324 344.0 334.5Q344 345 351.0 352.0Q358 359 368.5 359.0Q379 359 386.0 352.0Q393 345 393.0 334.5Q393 324 386.0 316.5Q379 309 368.5 309.0Q358 309 351.0 316.5Z" fill="#f5f8fa" />
</g></svg>