<svg xmlns="http://www.w3.org/2000/svg" viewBox="0 0 2048 2048">
<g transform="matrix(1 0 0 -1 0 2048)">
<path d="M356 263Q356 369 283 446Q380 436 446.0 363.5Q512 291 512 192Q512 86 437.0 11.0Q362 -64 256 -64Q165 -64 95 -7Q170 -4 232.0 36.5Q294 77 327 142Q330 148 324.5 153.0Q319 158 310.5 161.5Q302 165 294.0 173.0Q286 181 285 192Q284 202 295.0 211.5Q306 221 319.5 227.0Q333 233 344.5 242.5Q356 252 356 263Z" fill="#ffd983" />
<path d="M327.5 7.5Q313 22 313.0 42.5Q313 63 327.5 77.5Q342 92 362.5 92.0Q383 92 397.5 77.5Q412 63 412.0 42.5Q412 22 397.5 7.5Q383 -7 362.5 -7.0Q342 -7 327.5 7.5ZM374.0 338.5Q370 343 370.0 348.5Q370 354 374.0 358.5Q378 363 384.0 363.0Q390 363 394.0 358.5Q398 354 398.0 348.5Q398 343 394.0 338.5Q390 334 384.0 334.0Q378 334 374.0 338.5ZM246.0 -17.0Q242 -13 242.0 -7.0Q242 -1 246.0 3.0Q250 7 256.0 7.0Q262 7 266.0 3.0Q270 -1 270.0 -7.0Q270 -13 266.0 -17.0Q262 -21 256.0 -21.0Q250 -21 246.0 -17.0ZM449.5 143.5Q441 152 441.0 163.5Q441 175 449.5 183.5Q458 192 469.5 192.0Q481 192 489.5 183.5Q498 175 498.0 163.5Q498 152 489.5 143.5Q481 135 469.5 135.0Q458 135 449.5 143.5Z" fill="#ffcc4d" />
<path d="M282 78Q298 96 311 116Q333 111 352.5 109.5Q372 108 383.0 108.5Q394 109 402.5 109.5Q411 110 414.0 109.0Q417 108 416 104Q411 89 368.5 78.0Q326 67 282 78ZM370 242Q370 242 370 242Q370 257 380.5 267.0Q391 277 405.5 277.0Q420 277 430.5 267.0Q441 257 441.0 242.0Q441 227 430.5 216.5Q420 206 405.5 206.0Q391 206 380.5 216.5Q370 227 370 242Z" fill="#292f33" />
</g></svg>