<svg xmlns="http://www.w3.org/2000/svg" viewBox="0 0 512 512">
<g transform="matrix(1 0 0 -1 0 512)">
<path d="M256 334 363 274 199 206 0 448H156Z" fill="#55acee" />
<path d="M356 448H512L350 251L333 230L256 334Z" fill="#3b88c3" />
<path d="M330 220Q365 200 386.5 165.0Q408 130 408 88Q408 25 363.5 -19.5Q319 -64 256.0 -64.0Q193 -64 148.5 -19.5Q104 25 104 88Q104 130 125.5 165.0Q147 200 182 220Q180 225 180 230Q180 242 188.5 250.0Q197 258 209 258H303Q315 258 323.5 250.0Q332 242 332 230Q332 225 330 220Z" fill="#ffac33" />
<path d="M276 183Q281 183 281 178V8Q281 3 276 3H246Q241 3 241 8V127H216Q211 127 211 132V149Q211 152 213 153L251 183Z" fill="#9e5200" />
</g></svg>