<svg xmlns="http://www.w3.org/2000/svg" viewBox="0 0 2048 2048">
<g transform="matrix(1 0 0 -1 0 2048)">
<path d="M100 235V391Q100 397 104.0 401.0Q108 405 114.0 405.0Q120 405 124.0 401.0Q128 397 128 391V235Q128 229 124.0 224.5Q120 220 114.0 220.0Q108 220 104.0 224.5Q100 229 100 235Z" fill="#ccd6dd" />
<path d="M28 -21Q28 3 62.5 33.5Q97 64 128 64V-7Q116 -7 91.5 -16.5Q67 -26 57 -36Q46 -45 37.0 -39.0Q28 -33 28 -21ZM228 -21Q228 -33 219.0 -39.0Q210 -45 199 -36Q189 -26 164.5 -16.5Q140 -7 128 -7V64Q159 64 193.5 33.5Q228 3 228 -21Z" fill="#3b88c3" />
<path d="M213 249Q235 249 252.5 240.0Q270 231 270 220Q270 197 256.5 159.0Q243 121 215.0 85.0Q187 49 154 42Q107 33 162 152Q185 201 213 249ZM43 164Q43 164 75 112Q79 103 77 103Q75 103 71 107Q62 114 34 93Q15 81 14 92Q14 113 22.5 132.5Q31 152 43 164Z" fill="#3b88c3" />
<path d="M79 274Q107 265 132 284Q141 292 143 274Q146 246 128 232Q124 230 116 223Q77 191 71 203Q70 206 70 212Q70 227 72.5 242.5Q75 258 77 266Z" fill="#000000" />
<path d="M128 292Q168 291 198.0 268.0Q228 245 228 192Q228 155 209.0 110.5Q190 66 166.0 36.5Q142 7 128.0 7.0Q114 7 90.0 36.5Q66 66 47.0 110.5Q28 155 28 192Q28 253 72 278Q84 285 88 275Q89 270 88.5 269.0Q88 268 86.0 263.5Q84 259 83 254Q80 247 82.5 235.5Q85 224 93 229Q104 265 128 292Z" fill="#55acee" />
<path d="M148.5 212.5Q142 219 142.0 227.5Q142 236 148.5 242.5Q155 249 163.5 249.0Q172 249 178.5 242.5Q185 236 185.0 227.5Q185 219 178.5 212.5Q172 206 163.5 206.0Q155 206 148.5 212.5Z" fill="#000000" />
<path d="M127 123Q102 123 70 140Q58 146 64.5 159.0Q71 172 84 165Q128 142 165 163Q177 171 184.5 158.5Q192 146 180 139Q154 123 127 123Z" fill="#226699" />
<path d="M424 -53Q418 -50 414.5 -43.0Q411 -36 414 -29Q425 -2 436.5 57.5Q448 117 452.0 192.0Q456 267 437 323Q431 340 415.0 360.0Q399 380 379 392Q338 417 280.5 422.0Q223 427 186.0 421.0Q149 415 135 408Q128 404 117.5 402.0Q107 400 103 404Q98 412 118 422Q131 428 156.5 434.5Q182 441 221.0 446.0Q260 451 308.0 442.5Q356 434 398 411Q446 384 465 335Q486 279 487.5 195.0Q489 111 478.0 45.5Q467 -20 453 -46Q450 -53 442.5 -55.0Q435 -57 431.0 -56.0Q427 -55 424 -53Z" fill="#662113" />
<path d="M358.0 52.5Q341 69 341.0 92.5Q341 116 358.0 132.5Q375 149 398.5 149.0Q422 149 438.5 132.5Q455 116 455.0 92.5Q455 69 438.5 52.5Q422 36 398.5 36.0Q375 36 358.0 52.5Z" fill="#99aab5" />
<path d="M378.0 72.5Q370 81 370.0 92.5Q370 104 378.0 112.5Q386 121 398.0 121.0Q410 121 418.5 112.5Q427 104 427.0 92.5Q427 81 418.5 72.5Q410 64 398.0 64.0Q386 64 378.0 72.5Z" fill="#66757f" />
</g></svg>