<svg xmlns="http://www.w3.org/2000/svg" viewBox="0 0 2048 2048">
<g transform="matrix(1 0 0 -1 0 2048)">
<path d="M326 56 336 109Q363 73 369 57Q351 73 326 56ZM236 -6 275 -10Q254 -43 240 -50Q247 -23 236 -6Z" fill="#ea596e" />
<path d="M326 54Q326 54 325 54Q315 56 316 66L322 115Q323 119 326 122L389 173L288 228Q279 233 284.0 242.0Q289 251 298 246L413 184Q418 182 418.5 176.5Q419 171 414 167L342 108L337 64Q336 54 326 54Z" fill="#f4abba" />
<path d="M77 398Q77 398 119 376Q158 351 132 342Q99 331 67.0 305.0Q35 279 35 259Q35 246 28.0 240.5Q21 235 14.0 240.5Q7 246 7 259Q7 328 21 342Z" fill="#e1e8ed" />
<path d="M21 342Q21 329 28.5 320.0Q36 311 43.5 309.0Q51 307 55.0 302.0Q59 297 52 291Q35 273 35 259Q35 246 28.0 240.5Q21 235 14.0 240.5Q7 246 7 259Q7 328 21 342Z" fill="#292f33" />
<path d="M247 -53 254 -36 288 -15Q288 -15 302 -44Q302 -51 298 -51Q288 -46 272.0 -46.0Q256 -46 247 -53ZM79.0 344.5Q63 361 63.0 384.0Q63 407 79.0 423.5Q95 440 118.0 440.0Q141 440 157.5 423.5Q174 407 174.0 384.0Q174 361 157.5 344.5Q141 328 118.0 328.0Q95 328 79.0 344.5Z" fill="#ea596e" />
<path d="M368 54Q362 54 359 59L332 101Q326 109 334.5 115.0Q343 121 349 112L377 71Q382 62 374 56Q371 54 368 54ZM285 -15H243Q239 -15 236.0 -12.0Q233 -9 233.0 -4.5Q233 0 236.0 3.0Q239 6 243 6H274V217Q274 222 277.0 225.0Q280 228 284.5 228.0Q289 228 292.0 225.0Q295 222 295 217V-5Q295 -9 292.0 -12.0Q289 -15 285 -15Z" fill="#f4abba" />
<path d="M299 -57Q291 -57 289 -50L280 -24L250 -54Q243 -61 235.5 -53.5Q228 -46 236 -39L277 3Q281 7 287.0 5.5Q293 4 295 -1L308 -43Q312 -53 302 -56Q300 -57 299 -57Z" fill="#f4abba" />
<path d="M179 153Q166 153 155 158Q133 166 121.5 185.5Q110 205 112 230Q113 250 121.5 268.5Q130 287 137.0 296.5Q144 306 157 322Q183 353 181 367Q178 387 161 394Q136 406 109 387L86 422Q132 453 178 432Q216 415 222 373Q224 358 219.0 342.5Q214 327 207.5 318.5Q201 310 189 295Q177 281 171.5 273.5Q166 266 160.0 253.0Q154 240 153 227Q151 203 169 197Q180 193 194.5 198.5Q209 204 222 222L255 198Q223 153 179 153Z" fill="#ea596e" />
<path d="M215 204Q195 240 209.0 280.0Q223 320 257 342Q274 354 300.0 358.5Q326 363 357.0 360.0Q388 357 421.5 334.5Q455 312 479 273Q497 244 502.0 226.0Q507 208 502.0 202.0Q497 196 484.0 196.5Q471 197 458.5 201.0Q446 205 430.0 210.5Q414 216 410 217Q376 226 349.5 223.0Q323 220 301.0 213.0Q279 206 263.5 198.5Q248 191 235.5 191.5Q223 192 215 204Z" fill="#ea596e" />
<path d="M81.0 374.0Q77 378 77.0 384.0Q77 390 81.0 394.0Q85 398 90.5 398.0Q96 398 100.0 394.0Q104 390 104.0 384.0Q104 378 100.0 374.0Q96 370 90.5 370.0Q85 370 81.0 374.0Z" fill="#292f33" />
<path d="M132 356Q132 356 102 401Q87 429 94 434Q112 442 142.0 440.0Q172 438 179 431Q213 395 166 330Q151 310 149 311Q148 312 151 315Q163 331 167.5 342.0Q172 353 170.0 357.5Q168 362 162.5 363.5Q157 365 149.0 363.0Q141 361 132 356ZM400.0 166.0Q396 170 396.0 176.0Q396 182 400.0 186.0Q404 190 409.5 190.0Q415 190 419.5 186.0Q424 182 424.0 176.0Q424 170 419.5 166.0Q415 162 409.5 162.0Q404 162 400.0 166.0ZM275.0 83.0Q271 87 271.0 92.5Q271 98 275.0 102.0Q279 106 284.5 106.0Q290 106 294.5 102.0Q299 98 299.0 92.5Q299 87 294.5 83.0Q290 79 284.5 79.0Q279 79 275.0 83.0Z" fill="#ea596e" />
</g></svg>