<svg xmlns="http://www.w3.org/2000/svg" viewBox="0 0 512 512">
<g transform="matrix(1 0 0 -1 0 512)">
<path d="M227 315V391L282 324Q284 319 281 315Z" fill="#ef9645" />
<path d="M182 131Q197 158 234.5 176.5Q272 195 316.5 199.0Q361 203 402.5 194.0Q444 185 472.0 153.0Q500 121 500 72Q500 20 456.5 -13.0Q413 -46 350.0 -55.5Q287 -65 217.5 -59.0Q148 -53 94 -31Q32 -31 18 -17Q14 -13 12.5 -3.0Q11 7 12.0 19.0Q13 31 14.5 42.0Q16 53 17.0 60.5Q18 68 18 68Q18 80 19 93Q22 159 57 261Q66 287 101.5 344.0Q137 401 173 431Q174 433 177.0 435.5Q180 438 181.0 439.0Q182 440 184.5 441.5Q187 443 188.0 443.5Q189 444 190.5 444.5Q192 445 194.0 445.5Q196 446 198 446Q206 446 225 436Q251 423 280.5 395.5Q310 368 309 360Q308 350 297.0 337.0Q286 324 282 324L246 336Q244 337 247.0 340.5Q250 344 253.0 348.0Q256 352 253 355L240 365Q235 368 232 366Q227 363 228 358Q228 358 228.5 353.0Q229 348 229.5 345.0Q230 342 231.5 337.5Q233 333 236.0 330.5Q239 328 243 327Q269 319 281 315Q286 313 292.5 305.5Q299 298 299 293Q298 287 294.0 279.0Q290 271 284 271Q277 271 257.0 277.0Q237 283 230 284Q220 283 212.0 284.0Q204 285 198.0 281.5Q192 278 187.5 276.0Q183 274 180.0 268.5Q177 263 175.0 260.0Q173 257 171.5 250.5Q170 244 169.0 240.5Q168 237 167.5 231.0Q167 225 166 223Q166 210 165.5 205.0Q165 200 167.0 190.0Q169 180 170.0 176.5Q171 173 174.0 162.0Q177 151 179 145Q181 139 182 131Z" fill="#ffdc5d" />
<path d="M293 -8Q248 -3 211 20Q199 27 207.0 39.0Q215 51 227 44Q229 42 233.0 40.0Q237 38 250.0 32.0Q263 26 275.5 23.5Q288 21 306.0 19.5Q324 18 338 23Q384 35 412 88Q419 101 431.5 94.5Q444 88 437 75Q403 11 345 -5Q321 -11 293 -8Z" fill="#ef9645" />
</g></svg>