<svg xmlns="http://www.w3.org/2000/svg" viewBox="0 0 512 512">
<g transform="matrix(1 0 0 -1 0 512)">
<path d="M467 158Q462 134 424.5 115.0Q387 96 333.5 89.0Q280 82 221 94Q138 111 76.0 163.5Q14 216 22 252Q29 285 101.0 289.5Q173 294 259 274Q352 255 413.0 222.5Q474 190 467 158Z" fill="#ffd983" />
<path d="M384 -64H0L114 206L356 135Z" fill="#ffd983" />
<path d="M400.0 115.0Q324 99 226.0 120.0Q128 141 65.5 186.5Q3 232 12.0 275.5Q21 319 97.0 335.0Q173 351 271.0 330.0Q369 309 431.5 263.5Q494 218 485.0 174.5Q476 131 400.0 115.0Z" fill="#67757f" />
<path d="M6 292 499 190 479 160 12 259Z" fill="#67757f" />
<path d="M416.5 144.0Q336 127 232.5 149.0Q129 171 62.5 219.5Q-4 268 6.0 314.0Q16 360 96.0 377.0Q176 394 280.0 372.0Q384 350 450.0 301.5Q516 253 506.5 207.0Q497 161 416.5 144.0Z" fill="#9aaab4" />
<path d="M397.0 197.5Q331 186 244.5 204.5Q158 223 102.0 260.5Q46 298 53.5 332.5Q61 367 127.0 378.5Q193 390 279.5 371.5Q366 353 422.0 315.5Q478 278 470.5 243.5Q463 209 397.0 197.5Z" fill="#ccd6dd" />
<path d="M350.5 267.5Q311 263 259.0 274.0Q207 285 173.0 305.0Q139 325 142.5 342.5Q146 360 185.5 364.5Q225 369 277.0 358.0Q329 347 363.0 327.0Q397 307 393.5 289.5Q390 272 350.5 267.5Z" fill="#e1e8ed" />
<path d="M143 343Q148 366 183.0 382.5Q218 399 282.5 385.5Q347 372 372.5 342.5Q398 313 393 290Q390 272 350.5 267.5Q311 263 259.0 274.0Q207 285 173.0 305.0Q139 325 143 343Z" fill="#5dadec" />
<path d="M228.5 167.0Q224 171 224.0 177.0Q224 183 228.5 187.0Q233 191 238.5 191.0Q244 191 248.5 187.0Q253 183 253.0 177.0Q253 171 248.5 167.0Q244 163 238.5 163.0Q233 163 228.5 167.0ZM342.5 157.0Q338 161 338.0 167.0Q338 173 342.5 177.0Q347 181 353.0 181.0Q359 181 363.0 177.0Q367 173 367.0 167.0Q367 161 363.0 157.0Q359 153 353.0 153.0Q347 153 342.5 157.0ZM449.0 178.0Q445 182 445.0 188.0Q445 194 449.0 198.5Q453 203 459.0 203.0Q465 203 469.0 198.5Q473 194 473.0 188.0Q473 182 469.0 178.0Q465 174 459.0 174.0Q453 174 449.0 178.0Z" fill="#8ccaf7" />
<path d="M497.5 238.5Q493 233 482.0 242.0Q471 251 475.5 256.5Q480 262 491.0 253.0Q502 244 497.5 238.5Z" fill="#8ccaf7" />
<path d="M26 339Q25 342 28.5 345.0Q32 348 38 350Q52 353 54 347Q54 344 50.5 340.5Q47 337 42 336Q28 332 26 339Z" fill="#8ccaf7" />
<path d="M31.5 267.0Q27 271 27.0 277.0Q27 283 31.5 287.0Q36 291 41.5 291.0Q47 291 51.5 287.0Q56 283 56.0 277.0Q56 271 51.5 267.0Q47 263 41.5 263.0Q36 263 31.5 267.0ZM120.0 204.5Q116 209 116.0 214.5Q116 220 120.0 224.5Q124 229 130.0 229.0Q136 229 140.0 224.5Q144 220 144.0 214.5Q144 209 140.0 204.5Q136 200 130.0 200.0Q124 200 120.0 204.5Z" fill="#8ccaf7" />
<path d="M324.5 339.5Q303 338 274.0 344.0Q245 350 226.0 360.5Q207 371 209.0 379.5Q211 388 232.5 390.0Q254 392 283.0 386.0Q312 380 331.0 369.5Q350 359 348.0 350.0Q346 341 324.5 339.5Z" fill="#8ccaf7" />
</g></svg>