<svg xmlns="http://www.w3.org/2000/svg" viewBox="0 0 512 512">
<g transform="matrix(1 0 0 -1 0 512)">
<path d="M367 381Q376 381 390.0 376.0Q404 371 422.0 360.5Q440 350 452.0 326.5Q464 303 464 271Q464 228 440.0 173.5Q416 119 387.0 82.0Q358 45 341 44Q314 41 297.5 57.0Q281 73 281 101Q281 113 290.0 127.0Q299 141 307.0 152.5Q315 164 319.0 182.0Q323 200 313 219Q302 241 298.0 268.0Q294 295 297.0 321.0Q300 347 318.0 364.0Q336 381 367 381ZM464.0 333.0Q463 341 467.5 349.0Q472 357 479.5 360.0Q487 363 493.0 359.5Q499 356 500.0 348.0Q501 340 496.5 332.0Q492 324 484.5 321.0Q477 318 471.0 321.5Q465 325 464.0 333.0ZM429.0 374.0Q425 381 426.0 390.0Q427 399 433.0 404.5Q439 410 446.5 409.0Q454 408 458.0 401.0Q462 394 461.0 385.0Q460 376 454.0 370.5Q448 365 440.5 366.0Q433 367 429.0 374.0ZM385.5 393.0Q380 400 380.0 409.5Q380 419 385.5 426.0Q391 433 399.0 433.0Q407 433 412.5 426.0Q418 419 418.0 409.5Q418 400 412.5 393.0Q407 386 399.0 386.0Q391 386 385.5 393.0ZM332.0 400.5Q326 408 326.0 419.0Q326 430 332.0 438.0Q338 446 346.5 446.0Q355 446 361.0 438.0Q367 430 367.0 419.0Q367 408 361.0 400.5Q355 393 346.5 393.0Q338 393 332.0 400.5ZM266.5 364.0Q255 373 251.0 388.5Q247 404 252.5 417.5Q258 431 270.0 434.0Q282 437 293.5 428.0Q305 419 309.0 403.5Q313 388 307.5 375.0Q302 362 290.0 358.5Q278 355 266.5 364.0ZM141 281Q172 281 190.0 264.0Q208 247 211.0 221.0Q214 195 210.0 168.0Q206 141 195 119Q185 100 188.5 82.0Q192 64 200.5 53.0Q209 42 217.5 27.5Q226 13 226 1Q226 -27 210.0 -42.5Q194 -58 167 -56Q149 -54 120.0 -17.0Q91 20 67.5 74.5Q44 129 44 171Q44 203 56.0 226.5Q68 250 85.5 261.0Q103 272 117.5 276.5Q132 281 141 281ZM28.5 261.0Q36 258 40.5 250.0Q45 242 44.0 234.0Q43 226 37.0 222.5Q31 219 23.5 222.0Q16 225 11.5 232.5Q7 240 8.0 248.5Q9 257 15.0 260.5Q21 264 28.5 261.0ZM74.0 305.0Q80 299 81.5 290.0Q83 281 78.5 274.0Q74 267 67.0 266.0Q60 265 54.0 271.0Q48 277 46.5 286.0Q45 295 49.5 302.0Q54 309 61.0 310.0Q68 311 74.0 305.0ZM121.5 327.0Q127 320 127.0 310.0Q127 300 121.5 293.0Q116 286 108.5 286.0Q101 286 95.0 293.0Q89 300 89.0 310.0Q89 320 95.0 327.0Q101 334 108.5 334.0Q116 334 121.5 327.0ZM175.5 338.5Q181 331 181.0 320.0Q181 309 175.5 301.0Q170 293 161.5 293.0Q153 293 147.0 301.0Q141 309 141.0 320.0Q141 331 147.0 338.5Q153 346 161.5 346.0Q170 346 175.5 338.5ZM255.0 318.0Q261 305 257.0 289.0Q253 273 241.5 264.5Q230 256 218.0 259.0Q206 262 200.0 275.5Q194 289 198.0 304.5Q202 320 213.5 328.5Q225 337 237.0 334.0Q249 331 255.0 318.0Z" fill="#662113" />
</g></svg>