<svg xmlns="http://www.w3.org/2000/svg" viewBox="0 0 2048 2048">
<g transform="matrix(1 0 0 -1 0 2048)">
<path d="M437.0 373.0Q512 298 512.0 192.0Q512 86 437.0 11.0Q362 -64 256.0 -64.0Q150 -64 75.0 11.0Q0 86 0.0 192.0Q0 298 75.0 373.0Q150 448 256.0 448.0Q362 448 437.0 373.0Z" fill="#e1e8ed" />
<path d="M377.0 313.0Q427 263 427.0 192.0Q427 121 377.0 71.0Q327 21 256.0 21.0Q185 21 135.0 71.0Q85 121 85.0 192.0Q85 263 135.0 313.0Q185 363 256.0 363.0Q327 363 377.0 313.0Z" fill="#ccd6dd" />
<path d="M366.5 302.5Q412 257 412.0 192.0Q412 127 366.5 81.5Q321 36 256.0 36.0Q191 36 145.5 81.5Q100 127 100.0 192.0Q100 257 145.5 302.5Q191 348 256.0 348.0Q321 348 366.5 302.5Z" fill="#e1e8ed" />
<path d="M4.0 424.0Q0 428 0.0 434.0Q0 440 4.0 444.0Q8 448 14.0 448.0Q20 448 24.0 444.0Q28 440 28.0 434.0Q28 428 24.0 424.0Q20 420 14.0 420.0Q8 420 4.0 424.0Z" fill="#99aab5" />
<path d="M0 434H28V334H0ZM61.0 424.0Q57 428 57.0 434.0Q57 440 61.0 444.0Q65 448 71.0 448.0Q77 448 81.0 444.0Q85 440 85.0 434.0Q85 428 81.0 424.0Q77 420 71.0 420.0Q65 420 61.0 424.0Z" fill="#99aab5" />
<path d="M57 434H85V334H57ZM118.0 424.0Q114 428 114.0 434.0Q114 440 118.0 444.0Q122 448 128.0 448.0Q134 448 138.0 444.0Q142 440 142.0 434.0Q142 428 138.0 424.0Q134 420 128.0 420.0Q122 420 118.0 424.0Z" fill="#99aab5" />
<path d="M114 434H142V334H114ZM43 249H100V-36H43Z" fill="#99aab5" />
<path d="M51.0 -55.5Q43 -47 43.0 -35.5Q43 -24 51.0 -15.5Q59 -7 71.0 -7.0Q83 -7 91.5 -15.5Q100 -24 100.0 -35.5Q100 -47 91.5 -55.5Q83 -64 71.0 -64.0Q59 -64 51.0 -55.5ZM114 334H142Q142 235 71.0 235.0Q0 235 0 334H28Q28 328 32.5 324.0Q37 320 43.0 320.0Q49 320 53.0 324.0Q57 328 57 334H85Q85 328 89.5 324.0Q94 320 99.5 320.0Q105 320 109.5 324.0Q114 328 114 334Z" fill="#99aab5" />
<path d="M4.0 324.0Q0 328 0.0 334.0Q0 340 4.0 344.0Q8 348 14.0 348.0Q20 348 24.0 344.0Q28 340 28.0 334.0Q28 328 24.0 324.0Q20 320 14.0 320.0Q8 320 4.0 324.0ZM61.0 324.0Q57 328 57.0 334.0Q57 340 61.0 344.0Q65 348 71.0 348.0Q77 348 81.0 344.0Q85 340 85.0 334.0Q85 328 81.0 324.0Q77 320 71.0 320.0Q65 320 61.0 324.0ZM118.0 324.0Q114 328 114.0 334.0Q114 340 118.0 344.0Q122 348 128.0 348.0Q134 348 138.0 344.0Q142 340 142.0 334.0Q142 328 138.0 324.0Q134 320 128.0 320.0Q122 320 118.0 324.0ZM427 249H484V-36H427Z" fill="#99aab5" />
<path d="M435.0 -55.5Q427 -47 427.0 -35.5Q427 -24 435.0 -15.5Q443 -7 455.0 -7.0Q467 -7 475.5 -15.5Q484 -24 484.0 -35.5Q484 -47 475.5 -55.5Q467 -64 455.0 -64.0Q443 -64 435.0 -55.5ZM455 448Q467 448 475.5 436.5Q484 425 484 405V178Q480 177 473.0 175.5Q466 174 449.0 177.0Q432 180 419.0 189.5Q406 199 395.0 225.5Q384 252 384 292Q384 352 408.0 400.0Q432 448 455 448Z" fill="#99aab5" />
</g></svg>