<svg xmlns="http://www.w3.org/2000/svg" viewBox="0 0 2048 2048">
<g transform="matrix(1 0 0 -1 0 2048)">
<path d="M14 122H498V29Q498 -10 427.0 -37.0Q356 -64 256.0 -64.0Q156 -64 85.0 -37.0Q14 -10 14 29Z" fill="#99aab5" />
<path d="M85.0 56.0Q14 83 14.0 121.5Q14 160 85.0 187.5Q156 215 256.0 215.0Q356 215 427.0 187.5Q498 160 498.0 121.5Q498 83 427.0 56.0Q356 29 256.0 29.0Q156 29 85.0 56.0Z" fill="#e1e8ed" />
<path d="M58 103Q51 113 51 122Q51 153 111.0 174.5Q171 196 256.0 196.0Q341 196 401.0 174.5Q461 153 461 122Q461 113 454 103Q437 128 382.0 143.5Q327 159 256.0 159.0Q185 159 130.0 143.5Q75 128 58 103Z" fill="#aab8c2" />
<path d="M116.0 64.0Q58 80 58.0 103.0Q58 126 116.0 142.5Q174 159 256.0 159.0Q338 159 396.0 142.5Q454 126 454.0 103.0Q454 80 396.0 64.0Q338 48 256.0 48.0Q174 48 116.0 64.0Z" fill="#3b88c3" />
<path d="M164.5 122.5Q210 133 256.0 133.0Q302 133 347.5 122.5Q393 112 393.0 103.0Q393 94 347.5 83.5Q302 73 256.0 73.0Q210 73 164.5 83.5Q119 94 119.0 103.0Q119 112 164.5 122.5Z" fill="#50a5e6" />
<path d="M213 126H299V107Q299 101 286.5 96.5Q274 92 256.0 92.0Q238 92 225.5 96.5Q213 101 213 107Z" fill="#e1e8ed" />
<path d="M225.5 116.0Q213 120 213.0 126.0Q213 132 225.5 136.5Q238 141 256.0 141.0Q274 141 286.5 136.5Q299 132 299.0 126.0Q299 120 286.5 116.0Q274 112 256.0 112.0Q238 112 225.5 116.0Z" fill="#aab8c2" />
<path d="M114 238V256Q114 288 137.0 311.0Q160 334 192.0 334.0Q224 334 247.0 311.0Q270 288 270 256Q270 250 266.0 246.0Q262 242 256.0 242.0Q250 242 246.0 246.0Q242 250 242 256Q242 277 227.5 291.5Q213 306 192.0 306.0Q171 306 156.5 291.5Q142 277 142 256V238Q142 232 138.0 227.5Q134 223 128.0 223.0Q122 223 118.0 227.5Q114 232 114 238Z" fill="#1c6399" />
<path d="M356 206V222Q356 240 343.5 252.5Q331 265 313.0 265.0Q295 265 282.5 252.5Q270 240 270 222Q270 217 266.0 212.5Q262 208 256.0 208.0Q250 208 246.0 212.5Q242 217 242 222Q242 252 262.5 273.0Q283 294 312.5 294.0Q342 294 363.0 273.0Q384 252 384 222V206Q384 200 380.0 196.0Q376 192 370.0 192.0Q364 192 360.0 196.0Q356 200 356 206Z" fill="#88c9f9" />
<path d="M441 304Q441 339 416.0 364.0Q391 389 355.5 389.0Q320 389 295.0 364.0Q270 339 270 304Q270 298 266.0 294.0Q262 290 256.0 290.0Q250 290 246.0 294.0Q242 298 242 304Q242 351 275.5 384.5Q309 418 356.0 418.0Q403 418 436.0 384.5Q469 351 469 304Q469 298 465.0 294.0Q461 290 455.0 290.0Q449 290 445.0 294.0Q441 298 441 304ZM445.0 239.0Q441 243 441.0 249.0Q441 255 445.0 259.0Q449 263 455.0 263.0Q461 263 465.0 259.0Q469 255 469.0 249.0Q469 243 465.0 239.0Q461 235 455.0 235.0Q449 235 445.0 239.0ZM274.5 424.0Q270 428 270.0 434.0Q270 440 274.5 444.0Q279 448 284.5 448.0Q290 448 294.5 444.0Q299 440 299.0 434.0Q299 428 294.5 424.0Q290 420 284.5 420.0Q279 420 274.5 424.0Z" fill="#1c6399" />
<path d="M242 126V334Q242 370 217.0 395.0Q192 420 156.5 420.0Q121 420 96.0 395.0Q71 370 71 334Q71 328 67.0 324.0Q63 320 57.0 320.0Q51 320 47.0 324.0Q43 328 43 334Q43 381 76.0 414.5Q109 448 156.0 448.0Q203 448 236.5 414.5Q270 381 270 334V126Z" fill="#3b94d9" />
<path d="M360.0 139.0Q356 143 356.0 149.0Q356 155 360.0 159.5Q364 164 370.0 164.0Q376 164 380.0 159.5Q384 155 384.0 149.0Q384 143 380.0 139.0Q376 135 370.0 135.0Q364 135 360.0 139.0ZM459.0 409.5Q455 414 455.0 419.5Q455 425 459.0 429.5Q463 434 469.0 434.0Q475 434 479.5 429.5Q484 425 484.0 419.5Q484 414 479.5 409.5Q475 405 469.0 405.0Q463 405 459.0 409.5Z" fill="#bbddf5" />
<path d="M189.0 153.5Q185 158 185.0 163.5Q185 169 189.0 173.5Q193 178 199.0 178.0Q205 178 209.0 173.5Q213 169 213.0 163.5Q213 158 209.0 153.5Q205 149 199.0 149.0Q193 149 189.0 153.5Z" fill="#f2f9ff" />
<path d="M360.0 310.0Q356 314 356.0 320.0Q356 326 360.0 330.0Q364 334 370.0 334.0Q376 334 380.0 330.0Q384 326 384.0 320.0Q384 314 380.0 310.0Q376 306 370.0 306.0Q364 306 360.0 310.0Z" fill="#50a5e6" />
<path d="M118.0 182.0Q114 186 114.0 192.0Q114 198 118.0 202.0Q122 206 128.0 206.0Q134 206 138.0 202.0Q142 198 142.0 192.0Q142 186 138.0 182.0Q134 178 128.0 178.0Q122 178 118.0 182.0Z" fill="#1c6399" />
<path d="M47.0 253.0Q43 257 43.0 263.0Q43 269 47.0 273.0Q51 277 57.0 277.0Q63 277 67.0 273.0Q71 269 71.0 263.0Q71 257 67.0 253.0Q63 249 57.0 249.0Q51 249 47.0 253.0Z" fill="#3b94d9" />
<path d="M146.5 367.0Q142 371 142.0 377.0Q142 383 146.5 387.0Q151 391 156.5 391.0Q162 391 166.5 387.0Q171 383 171.0 377.0Q171 371 166.5 367.0Q162 363 156.5 363.0Q151 363 146.5 367.0Z" fill="#88c9f9" />
</g></svg>