<svg xmlns="http://www.w3.org/2000/svg" viewBox="0 0 2048 2048">
<g transform="matrix(1 0 0 -1 0 2048)">
<path d="M512 192Q512 86 437.0 11.0Q362 -64 256.0 -64.0Q150 -64 75.0 11.0Q0 86 0.0 192.0Q0 298 75.0 373.0Q150 448 256.0 448.0Q362 448 437.0 373.0Q512 298 512 192Z" fill="#ffcc4d" />
<path d="M138.5 178.5Q128 193 128.0 213.5Q128 234 138.5 248.5Q149 263 163.5 263.0Q178 263 188.5 248.5Q199 234 199.0 213.5Q199 193 188.5 178.5Q178 164 163.5 164.0Q149 164 138.5 178.5ZM323.5 178.5Q313 193 313.0 213.5Q313 234 323.5 248.5Q334 263 348.5 263.0Q363 263 373.5 248.5Q384 234 384.0 213.5Q384 193 373.5 178.5Q363 164 348.5 164.0Q334 164 323.5 178.5ZM334 51Q335 46 331 44Q329 43 327 43Q324 43 322 45Q308 57 256 57Q204 57 190 45Q186 41 181.5 43.5Q177 46 178 51Q179 54 180.5 58.5Q182 63 188.0 73.5Q194 84 202.0 92.0Q210 100 224.5 107.0Q239 114 256.0 114.0Q273 114 287.5 107.0Q302 100 310.0 92.0Q318 84 324.0 73.5Q330 63 331.5 58.5Q333 54 334 51Z" fill="#664500" />
</g></svg>