<svg xmlns="http://www.w3.org/2000/svg" viewBox="0 0 512 512">
<g transform="matrix(1 0 0 -1 0 512)">
<path d="M367 -9Q370 -14 364 -17Q363 -17 363 -18Q358 -19 356 -14Q354 -11 348 -5Q344 -10 341 -12Q337 -14 329 -9Q334 -15 339 -26Q342 -32 336 -34Q336 -35 335 -35Q330 -36 328 -31Q322 -19 316 -13Q312 -25 303 -27Q296 -29 284 -22Q284 -27 285 -29Q286 -35 280.0 -36.5Q274 -38 273 -32Q272 -30 272 -28Q269 -36 264 -37Q260 -38 255 -33Q253 -41 254 -47Q254 -52 249 -53Q248 -53 248 -54Q242 -54 241 -48Q240 -39 243 -29Q239 -33 233.5 -31.0Q228 -29 230 -19Q235 5 286.5 17.0Q338 29 350 20Q356 16 354 6Q362 0 367 -9Z" fill="#99aab5" />
<path d="M326 281Q391 275 425.5 252.5Q460 230 471 190Q478 165 479.0 145.5Q480 126 471.5 103.0Q463 80 443.0 62.0Q423 44 385.0 26.0Q347 8 292.0 -7.0Q237 -22 195.0 -25.0Q153 -28 126.5 -22.5Q100 -17 81.5 -1.5Q63 14 53.5 31.5Q44 49 37 74Q16 154 118 225Q168 260 162 316Q162 318 160.0 333.0Q158 348 155.5 369.0Q153 390 152 405Q153 411 151.5 414.5Q150 418 152.5 421.0Q155 424 155.5 425.0Q156 426 159.0 427.5Q162 429 162.5 429.5Q163 430 166.5 431.0Q170 432 170 432Q171 432 177.5 434.5Q184 437 188.0 437.5Q192 438 197.5 434.0Q203 430 207 420Q226 368 242 338Q270 286 326 281Z" fill="#e1e8ed" />
<path d="M161 -20Q78 17 77 88Q76 116 90.5 142.5Q105 169 122.0 190.5Q139 212 142 226Q143 206 123.0 167.0Q103 128 103 99Q104 21 161 -20ZM260 -13Q228 4 201.0 34.0Q174 64 168 102Q160 146 171.0 206.0Q182 266 179 292Q190 254 192.0 201.0Q194 148 199 120Q206 82 222.5 43.5Q239 5 260 -13ZM412 47Q441 111 402 179Q390 200 370.0 214.5Q350 229 331.5 241.5Q313 254 305 270Q314 259 339.5 248.5Q365 238 390.5 222.5Q416 207 430 183Q465 121 412 47ZM322 4Q331 36 326.0 74.5Q321 113 308 149Q299 176 274.0 223.0Q249 270 240 309Q250 284 289.5 237.5Q329 191 344 150Q354 124 352.0 96.0Q350 68 342.0 45.5Q334 23 322 4Z" fill="#99aab5" />
</g></svg>