<svg xmlns="http://www.w3.org/2000/svg" viewBox="0 0 512 512">
<g transform="matrix(1 0 0 -1 0 512)">
<path d="M233 68H234Q220 89 196 80Q105 48 46 109Q16 140 25 183Q29 198 39.5 208.5Q50 219 65 222Q68 223 71 223Q92 223 100 204Q110 181 127.5 165.5Q145 150 158 146L171 142Q104 251 130 353Q133 364 147 379Q169 403 199.5 411.0Q230 419 259 414H260Q278 411 290.0 397.5Q302 384 302 366L301 341Q315 341 326 355Q334 365 346.5 366.5Q359 368 369 361Q376 355 378.0 346.5Q380 338 378 333L377 327Q365 291 315 273Q306 270 306 260V246Q306 236 316 232Q343 222 358 187Q359 185 362.0 185.0Q365 185 365 188Q369 216 358 241Q356 246 356 251Q356 262 364 269Q392 291 413.5 286.0Q435 281 446.5 270.5Q458 260 460 254Q473 191 412 133Q403 124 410 113L429 86Q444 64 439 37Q432 -5 394.0 -27.5Q356 -50 315 -36Q315 -36 314.0 -35.5Q313 -35 313 -35Q275 -22 259 17Q247 45 233 68Z" fill="#f1b777" />
<path d="M383.5 77.5Q406 73 413.5 56.0Q421 39 408.5 19.5Q396 0 371.5 -11.0Q347 -22 324.5 -17.0Q302 -12 295.0 5.0Q288 22 300.0 41.5Q312 61 336.5 71.5Q361 82 383.5 77.5Z" fill="#ffd875" />
<path d="M287 104Q334 134 408 118Q409 115 410 113L418 101Q341 122 295 92Q265 73 251 35Q247 43 242 52Q259 86 287 104ZM46 109Q41 114 38 119Q39 153 57 175Q73 196 100 203Q103 197 107 190Q82 184 68 166Q49 143 52 103Q50 105 46 109ZM143 154Q121 139 115 116Q110 95 122 70Q104 72 88 79Q83 102 88 123Q95 152 120 173Q129 163 143 154ZM240 174Q212 139 217 80Q210 83 202 82Q198 144 230 183Q260 220 318 231Q328 227 336 220Q272 213 240 174ZM306 248Q256 279 211.5 268.5Q167 258 137 213Q131 230 128 248Q162 286 205 296Q259 309 318 274Q316 273 315 273Q306 270 306 260ZM127 341Q212 407 298 384Q301 376 301 368Q212 396 124 321Q125 330 127 341ZM340 365Q360 354 369 338Q373 331 375 322Q369 310 360 301Q364 319 356 332Q348 346 327 356Q332 362 340 365ZM461 241Q462 232 461 221Q433 253 403 255Q380 257 358 241Q358 241 358 242Q355 249 357 257Q380 271 404 270Q434 267 461 241ZM405 230H404Q431 222 453 192Q450 183 446 177Q425 209 400 216Q384 221 365 213Q364 221 363 228Q384 236 405 230Z" fill="#ea9e48" />
</g></svg>