<svg xmlns="http://www.w3.org/2000/svg" viewBox="0 0 512 512">
<g transform="matrix(1 0 0 -1 0 512)">
<path d="M474 63Q483 44 470 31Q463 24 447.0 15.5Q431 7 420 5Q413 3 409.0 13.5Q405 24 401.5 39.5Q398 55 396 59Q391 69 385.0 64.5Q379 60 381 52Q381 49 385.0 39.0Q389 29 392.0 20.0Q395 11 396.0 1.5Q397 -8 391 -9Q382 -13 369.0 -16.5Q356 -20 340.0 -17.5Q324 -15 320 -1Q311 30 292.0 60.5Q273 91 258 106Q257 108 256 110Q236 132 223 163Q222 165 221.5 167.5Q221 170 220.5 171.5Q220 173 221 173H220L176 323Q177 324 175.5 329.0Q174 334 179.5 341.5Q185 349 196 351Q206 353 210.5 349.0Q215 345 215 339L216 334L243 242Q243 243 246.0 244.5Q249 246 249 246L211 375Q212 376 211.0 381.5Q210 387 216.0 394.5Q222 402 235 406Q243 408 248.0 404.0Q253 400 253 394L254 389L289 268Q289 268 292.5 269.5Q296 271 296 271L254 411Q254 413 254.0 417.5Q254 422 260.0 430.0Q266 438 278 440Q288 442 292.5 438.0Q297 434 297 429L298 424L339 283V284Q341 286 346 286L308 414Q309 416 307.5 421.0Q306 426 312.0 433.5Q318 441 329 444Q338 447 343.5 443.0Q349 439 350 433L351 428L391 290Q397 272 402.5 262.5Q408 253 411 252H413L397 286L387 330Q388 331 386.5 336.0Q385 341 390.5 348.5Q396 356 408 359Q417 362 422.5 358.0Q428 354 429 349L430 343L462 234Q469 209 456 148Q454 134 460.5 105.5Q467 77 474 63Z" fill="#292f33" />
<path d="M481 65Q490 47 477 34Q470 26 453.5 17.5Q437 9 426 7Q420 6 415.5 16.5Q411 27 408.0 42.0Q405 57 403 62Q398 71 392.0 67.0Q386 63 387 55Q388 52 392.0 42.0Q396 32 399.0 23.0Q402 14 403.0 4.5Q404 -5 398 -7Q389 -11 376.0 -14.0Q363 -17 346.5 -14.5Q330 -12 326 1Q318 32 299.0 62.5Q280 93 265 109Q263 111 263 113Q242 135 229 166Q229 167 228.5 169.5Q228 172 227.5 174.0Q227 176 227 176L182 325Q177 345 196 351Q205 354 211.5 350.5Q218 347 220 342L222 337L250 245Q249 245 254.0 248.0Q259 251 258 251L220 380Q215 400 235 406Q243 408 249.5 404.5Q256 401 258 396L260 392L296 271Q296 271 301.0 272.5Q306 274 306 274L264 414Q259 434 278 440Q287 443 293.5 439.5Q300 436 302 431L304 426L346 286Q346 286 351.0 287.0Q356 288 356 288L317 419Q311 439 331 445Q340 448 346.5 444.5Q353 441 355 436L357 431L398 293Q403 274 408.5 264.5Q414 255 417 255H420L409 292L396 334Q391 354 410 360Q419 363 425.5 359.5Q432 356 434 351L436 346L469 236Q476 212 463 150Q460 137 466.5 108.0Q473 79 481 65Z" fill="#66757f" />
<path d="M423 78Q440 67 436 49Q434 39 424.0 23.5Q414 8 406 0Q401 -4 392.0 2.5Q383 9 372.5 20.5Q362 32 358 35Q349 41 346.0 34.0Q343 27 348 21Q350 19 363.0 9.0Q376 -1 384.5 -10.5Q393 -20 389 -26Q378 -42 357.5 -56.0Q337 -70 323 -56Q300 -34 268.0 -17.5Q236 -1 215 5Q212 6 210 7Q176 19 156 36Q151 40 148 43L34 149Q32 151 29.5 154.0Q27 157 27.5 166.5Q28 176 37 184Q45 190 50.5 189.0Q56 188 59 184L62 179L133 114Q132 114 134.0 117.0Q136 120 136 121L37 212Q35 214 33.0 217.5Q31 221 31.5 231.0Q32 241 42 250Q49 257 54.5 256.0Q60 255 64 250L67 246L159 160Q159 160 161.5 163.0Q164 166 164 166L56 265Q55 267 53.0 270.5Q51 274 52.0 284.0Q53 294 62 302Q70 308 75.5 307.0Q81 306 84 302L87 298L194 199Q193 200 198 204L100 295Q98 297 96.0 300.5Q94 304 94.5 313.5Q95 323 103 332Q108 336 112.0 337.0Q116 338 119.0 337.0Q122 336 124.5 334.0Q127 332 129 331L130 329L236 231Q250 218 259.5 212.5Q269 207 271 208L274 209L242 231L211 263Q209 265 207.0 268.0Q205 271 205.5 280.5Q206 290 215 299Q219 303 223.0 304.5Q227 306 230.5 304.5Q234 303 236.5 301.5Q239 300 240 298L241 296L325 219Q331 214 336.0 207.0Q341 200 344.0 194.0Q347 188 351.0 179.0Q355 170 356.5 166.0Q358 162 361.0 152.0Q364 142 364 142Q369 129 389.5 107.5Q410 86 423 78Z" fill="#66757f" />
<path d="M427 84Q445 73 440 54Q438 45 428.0 29.0Q418 13 410 6Q405 2 396.5 8.5Q388 15 377.0 26.5Q366 38 362 41Q353 47 350.0 40.0Q347 33 352 27Q354 25 367.0 15.0Q380 5 388.5 -5.0Q397 -15 393 -21Q382 -36 362.0 -50.0Q342 -64 327 -50Q304 -28 272.0 -11.5Q240 5 219 11Q219 11 213 13Q187 21 160 41L152 49L38 154Q36 156 34.5 158.5Q33 161 31.0 169.5Q29 178 37 184Q43 191 50.5 191.0Q58 191 62 188L66 185L137 119Q136 120 139.0 124.5Q142 129 141 130L43 221Q41 222 39.5 225.0Q38 228 36.0 236.0Q34 244 42 250Q48 257 55.5 257.5Q63 258 67 254L71 251L163 166Q163 166 166.5 170.0Q170 174 170 174L63 273Q61 275 59.5 277.5Q58 280 56.0 288.0Q54 296 62 302Q68 309 75.5 309.5Q83 310 87 307L91 304L198 204Q198 204 202.0 207.5Q206 211 206 211L106 304Q104 306 102.5 308.5Q101 311 99.0 319.0Q97 327 105 333Q111 340 118.5 340.5Q126 341 130 338L134 335L240 237Q254 224 263.5 218.5Q273 213 276 214L278 215L250 241L217 272Q216 273 214.0 275.5Q212 278 210.0 286.5Q208 295 216 301Q223 308 230.0 308.0Q237 308 241 305L246 302L329 224Q335 219 340.0 212.0Q345 205 348.0 199.5Q351 194 355.0 184.5Q359 175 360.5 171.5Q362 168 365.0 158.0Q368 148 369 148Q373 135 393.5 113.5Q414 92 427 84Z" fill="#99aab5" />
<path d="M272 55Q270 55 269 56L176 97Q169 100 172.0 106.5Q175 113 182 110L274 69Q281 66 278 59Q276 55 272 55ZM302 100 227 173Q222 178 227.0 183.0Q232 188 237 183L312 110Q317 105 312 100Q310 98 307.0 98.0Q304 98 302 100ZM290 77Q287 77 286 78L197 139Q191 143 195.0 148.5Q199 154 205 150L294 90Q300 86 296 80Q293 77 290 77Z" fill="#66757f" />
</g></svg>