<svg xmlns="http://www.w3.org/2000/svg" viewBox="0 0 512 512">
<g transform="matrix(1 0 0 -1 0 512)">
<path d="M256 320V153Q242 153 234.5 141.0Q227 129 224.0 114.5Q221 100 207.5 85.5Q194 71 171 67Q127 60 85 67Q18 79 14 177Q11 241 28.5 273.0Q46 305 89 312Q135 320 256 320Z" fill="#9aaab4" />
<path d="M255 320Q376 320 422 312Q465 305 482.5 273.0Q500 241 497 177Q493 79 426 67Q384 60 340 67Q317 71 303.5 85.5Q290 100 287.0 114.5Q284 129 276.5 141.0Q269 153 255 153ZM0 171V213Q0 222 6.5 228.5Q13 235 21.5 235.0Q30 235 36.5 228.5Q43 222 43 213V171Q43 162 36.5 155.5Q30 149 21.5 149.0Q13 149 6.5 155.5Q0 162 0 171Z" fill="#9aaab4" />
<path d="M469 171V213Q469 222 475.5 228.5Q482 235 490.5 235.0Q499 235 505.5 228.5Q512 222 512 213V171Q512 162 505.5 155.5Q499 149 490.5 149.0Q482 149 475.5 155.5Q469 162 469 171Z" fill="#9aaab4" />
<path d="M469 156V228Q469 236 475.5 242.5Q482 249 490.5 249.0Q499 249 505.5 242.5Q512 236 512 228V156Q512 148 505.5 141.5Q499 135 490.5 135.0Q482 135 475.5 141.5Q469 148 469 156ZM0 156V228Q0 236 6.5 242.5Q13 249 21.5 249.0Q30 249 36.5 242.5Q43 236 43 228V156Q43 148 36.5 141.5Q30 135 21.5 135.0Q13 135 6.5 141.5Q0 148 0 156Z" fill="#9aaab4" />
<path d="M256 292V181Q237 181 225.0 169.0Q213 157 208.0 142.0Q203 127 190.0 113.0Q177 99 156 96Q127 92 100 96Q70 100 56.5 121.0Q43 142 40 180Q33 275 109 286Q150 292 256 292Z" fill="#ccd6dd" />
<path d="M256 292Q362 292 403 286Q479 275 472 180Q469 142 455.5 121.0Q442 100 412 96Q385 92 356 96Q335 99 322.0 113.0Q309 127 304.0 142.0Q299 157 287.0 169.0Q275 181 256 181Z" fill="#ccd6dd" />
<path d="M384 288 321 114Q313 122 302 146L354 290Q371 289 384 288ZM256 292Q295 292 319 291L277 176Q268 181 256 181Q237 181 225.0 169.0Q213 157 208.0 142.0Q203 127 190.0 113.0Q177 99 157 96L228 291Q241 292 256 292Z" fill="#e1e8ed" />
<path d="M498 220Q504 220 508.0 216.0Q512 212 512 206V178Q512 172 508.0 168.0Q504 164 498 164H484V220ZM14 220H28V164H14Q8 164 4.0 168.0Q0 172 0 178V206Q0 212 4.0 216.0Q8 220 14 220Z" fill="#292f33" />
</g></svg>