<svg xmlns="http://www.w3.org/2000/svg" viewBox="0 0 2048 2048">
<g transform="matrix(1 0 0 -1 0 2048)">
<path d="M291 -25Q296 -35 286 -40L256 -55Q246 -60 241.5 -50.0Q237 -40 246 -35L249 -34H237Q232 -34 229.0 -30.5Q226 -27 226.0 -22.5Q226 -18 229.0 -15.0Q232 -12 237 -12H253L270 58H298Q295 51 291.0 40.5Q287 30 281.5 9.5Q276 -11 280 -18Q281 -19 283.0 -19.5Q285 -20 286 -21Q289 -22 291 -25Z" fill="#ffa800" />
<path d="M357 -3Q363 -6 363 -13Q363 -15 362 -18L347 -47Q342 -57 332.5 -52.0Q323 -47 328 -37L329 -35L319 -42Q310 -48 303.5 -39.0Q297 -30 306 -24L319 -15L291 51L314 68Q328 3 345 -4Q346 -4 350 -2Q351 -2 351 -2Q352 -2 353 -2Q355 -2 357 -3Z" fill="#ffa800" />
<path d="M131 286Q146 310 143.5 327.0Q141 344 131 354L121 364Q121 364 110 362Q94 367 106 404Q113 425 131.5 434.0Q150 443 168.5 439.0Q187 435 196 420Q203 410 206 395Q212 366 199 336Q180 290 188 259Q189 256 192.0 254.5Q195 253 198 255Q209 263 223.5 268.5Q238 274 260.5 277.5Q283 281 310.0 270.5Q337 260 362 236Q365 232 371.0 227.0Q377 222 397.0 214.5Q417 207 439 208Q447 208 452.0 202.5Q457 197 455 190Q445 148 404 125Q368 105 325 45Q311 26 288.5 25.0Q266 24 250 40Q216 77 192 93Q191 93 181.5 99.5Q172 106 169.5 108.0Q167 110 157.5 117.0Q148 124 144.0 128.5Q140 133 132.5 141.0Q125 149 121.5 156.5Q118 164 113.5 173.5Q109 183 107.5 194.0Q106 205 106 217Q107 252 131 286Z" fill="#dfe7ed" />
<path d="M64 380Q89 386 105 394Q113 397 117 390Q124 380 137 378Q141 378 142.0 373.0Q143 368 139 366Q102 342 62 363Q56 365 56.5 371.5Q57 378 64 380Z" fill="#fc8a00" />
<path d="M146.0 389.0Q142 393 142.0 399.0Q142 405 146.0 409.0Q150 413 156.0 413.0Q162 413 166.0 409.0Q170 405 170.0 399.0Q170 393 166.0 389.0Q162 385 156.0 385.0Q150 385 146.0 389.0Z" fill="#282f33" />
<path d="M305 111Q283 111 263 118Q247 125 233.0 136.5Q219 148 211.0 159.5Q203 171 196.5 183.0Q190 195 188.0 201.0Q186 207 185 210Q183 216 190.0 218.0Q197 220 199 214Q200 208 205.0 196.0Q210 184 228.0 162.5Q246 141 269 132Q320 111 390 152Q393 153 393.0 156.0Q393 159 390 160L352 179Q348 181 348 186Q348 187 349 189Q352 195 359 192L396 173Q407 168 407.0 156.5Q407 145 397 140Q347 111 305 111Z" fill="#cad4db" />
</g></svg>