<svg xmlns="http://www.w3.org/2000/svg" viewBox="0 0 2048 2048">
<g transform="matrix(1 0 0 -1 0 2048)">
<path d="M341 249Q349 239 361.0 223.5Q373 208 392.5 170.0Q412 132 412.0 106.5Q412 81 373.0 42.0Q334 3 295 -23L256 -50Q250 -46 239.5 -39.0Q229 -32 202.0 -11.5Q175 9 154.0 27.5Q133 46 116.5 68.5Q100 91 100 107Q100 132 117.5 167.5Q135 203 153 226L171 249Z" fill="#31373d" />
<path d="M279 430 489 266Q498 259 498.0 248.0Q498 237 489 230L279 66Q270 59 256.0 59.0Q242 59 233 66L23 230Q14 237 14.0 248.0Q14 259 23 266L233 430Q242 437 256.0 437.0Q270 437 279 430Z" fill="#292f33" />
<path d="M279 430 489 266Q498 259 498.0 248.0Q498 237 489 230L279 66Q270 59 256.0 59.0Q242 59 233 66L23 230Q14 237 14.0 248.0Q14 259 23 266L233 430Q242 437 256.0 437.0Q270 437 279 430Z" fill="#394146" />
<path d="M114 92Q142 64 142 50V-36Q142 -39 141.5 -43.5Q141 -48 133.5 -56.0Q126 -64 113.5 -64.0Q101 -64 94.0 -57.0Q87 -50 86 -43L85 -36V50Q85 56 92.5 66.5Q100 77 107 85Z" fill="#fcab40" />
<path d="M83.5 48.5Q71 61 71.0 78.5Q71 96 83.5 108.5Q96 121 113.5 121.0Q131 121 143.5 108.5Q156 96 156.0 78.5Q156 61 143.5 48.5Q131 36 113.5 36.0Q96 36 83.5 48.5Z" fill="#fdd888" />
<path d="M100 78V135Q98 160 118 176L247 288Q257 297 266.5 286.5Q276 276 265 267L136 153Q128 147 128 135V78Q128 72 124.0 68.0Q120 64 114.0 64.0Q108 64 104.0 68.0Q100 72 100 78Z" fill="#fcab40" />
<path d="M225.5 232.5Q213 245 213.0 263.0Q213 281 225.5 293.5Q238 306 256.0 306.0Q274 306 286.5 293.5Q299 281 299.0 263.0Q299 245 286.5 232.5Q274 220 256.0 220.0Q238 220 225.5 232.5Z" fill="#31373d" />
</g></svg>