<svg xmlns="http://www.w3.org/2000/svg" viewBox="0 0 2048 2048">
<g transform="matrix(1 0 0 -1 0 2048)">
<path d="M75.0 11.0Q0 86 0.0 192.0Q0 298 75.0 373.0Q150 448 256.0 448.0Q362 448 437.0 373.0Q512 298 512.0 192.0Q512 86 437.0 11.0Q362 -64 256.0 -64.0Q150 -64 75.0 11.0Z" fill="#ffcc4d" />
<path d="M384 164Q394 166 403.0 160.0Q412 154 412 135Q412 89 366.5 48.0Q321 7 256.0 7.0Q191 7 145.5 48.0Q100 89 100 135Q100 154 109.0 160.0Q118 166 128 164Q201 149 256.0 149.0Q311 149 384 164ZM145.5 220.5Q135 235 135.0 256.0Q135 277 145.5 291.5Q156 306 170.5 306.0Q185 306 195.5 291.5Q206 277 206.0 256.0Q206 235 195.5 220.5Q185 206 170.5 206.0Q156 206 145.5 220.5ZM316.5 220.5Q306 235 306.0 256.0Q306 277 316.5 291.5Q327 306 341.5 306.0Q356 306 366.5 291.5Q377 277 377.0 256.0Q377 235 366.5 220.5Q356 206 341.5 206.0Q327 206 316.5 220.5Z" fill="#664500" />
<path d="M128 135Q171 121 256 121Q294 121 326.0 124.5Q358 128 371 132L384 135Q383 133 380.5 129.0Q378 125 367.5 115.5Q357 106 344.0 98.5Q331 91 307.5 84.5Q284 78 256.0 78.0Q228 78 204.5 84.0Q181 90 167.5 98.5Q154 107 144.5 115.0Q135 123 132 129Z" fill="#ffffff" />
</g></svg>