<svg xmlns="http://www.w3.org/2000/svg" viewBox="0 0 2048 2048">
<g transform="matrix(1 0 0 -1 0 2048)">
<path d="M512 192Q512 86 437.0 11.0Q362 -64 256.0 -64.0Q150 -64 75.0 11.0Q0 86 0.0 192.0Q0 298 75.0 373.0Q150 448 256.0 448.0Q362 448 437.0 373.0Q512 298 512 192Z" fill="#ffcc4d" />
<path d="M228 192Q217 192 214 202Q211 212 202.5 223.5Q194 235 184.5 235.0Q175 235 167.0 223.0Q159 211 156 202Q151 188 137.5 192.5Q124 197 129 211Q131 218 135.5 227.5Q140 237 154.0 250.0Q168 263 185.0 263.0Q202 263 216.0 250.0Q230 237 234.5 227.5Q239 218 241 211Q246 197 232 193Q230 192 228 192ZM370 192Q360 192 356 202Q353 212 345.0 223.5Q337 235 327.0 235.0Q317 235 309.0 223.0Q301 211 298 202Q293 188 279.5 192.5Q266 197 271 211Q274 218 278.0 227.5Q282 237 296.0 250.0Q310 263 327.0 263.0Q344 263 358.0 250.0Q372 237 376.5 227.5Q381 218 383 211Q388 197 374 193Q372 192 370 192ZM384 149Q394 151 403.0 145.5Q412 140 412 121Q412 75 366.5 34.0Q321 -7 256.0 -7.0Q191 -7 145.5 34.0Q100 75 100 121Q100 140 109.0 145.5Q118 151 128 149Q201 135 256.0 135.0Q311 135 384 149Z" fill="#664500" />
<path d="M128 121Q171 107 256 107Q294 107 326.0 110.5Q358 114 371 117L384 121Q383 117 381.0 110.5Q379 104 370.0 87.5Q361 71 348.0 58.5Q335 46 310.5 35.5Q286 25 256.0 25.0Q226 25 201.5 35.0Q177 45 164.0 59.0Q151 73 142.0 87.0Q133 101 131 111Z" fill="#ffffff" />
<path d="M256 56Q190 56 143 66L131 93Q165 80 256 80Q348 80 382 93L372 67Q322 56 256 56Z" fill="#664500" />
</g></svg>