<svg xmlns="http://www.w3.org/2000/svg" viewBox="0 0 2048 2048">
<g transform="matrix(1 0 0 -1 0 2048)">
<path d="M511 274 510 275Q514 271 510 268Q510 267 430.0 184.5Q350 102 343 95Q322 72 303.0 62.0Q284 52 273.5 52.0Q263 52 245.5 56.5Q228 61 221 62Q182 66 157.5 45.0Q133 24 130 0Q127 -28 109.0 -46.0Q91 -64 65 -64Q38 -64 18 -44Q-1 -25 -1 2Q-1 28 17.0 46.0Q35 64 63 67Q87 70 107.5 95.0Q128 120 125 158Q124 165 119.5 182.5Q115 200 115.0 210.5Q115 221 125.0 240.5Q135 260 158 280Q162 284 189.5 310.5Q217 337 247.0 366.5Q277 396 303.5 421.5Q330 447 330 447Q334 451 337.5 447.5Q341 444 338 440Q337 439 297.5 399.0Q258 359 218.0 317.5Q178 276 174 270Q170 266 174.0 262.0Q178 258 182 262Q187 265 214.0 291.0Q241 317 270.5 346.0Q300 375 326.0 400.0Q352 425 352 426Q356 429 359.5 425.5Q363 422 359 418Q359 418 333.0 391.0Q307 364 277.0 333.5Q247 303 220.0 275.0Q193 247 189 243Q185 238 189.0 234.0Q193 230 198 234Q202 237 230.0 264.0Q258 291 289.0 321.0Q320 351 347.0 377.5Q374 404 374 404Q377 407 380.5 403.5Q384 400 381 397Q380 396 338.5 353.0Q297 310 254.0 266.0Q211 222 207 217Q203 212 207.0 208.0Q211 204 215 208Q220 212 248.5 239.5Q277 267 308.5 297.5Q340 328 367.5 355.0Q395 382 395 382Q399 386 402.5 382.5Q406 379 402 375Q402 375 375.0 347.0Q348 319 317.0 287.0Q286 255 258.0 226.0Q230 197 226 193Q222 189 226.0 185.0Q230 181 235 185Q239 188 268.0 216.0Q297 244 329.0 275.0Q361 306 389.0 333.5Q417 361 417 361Q421 364 424.5 360.5Q428 357 424 353Q424 353 397.0 325.5Q370 298 338.5 266.0Q307 234 279.5 205.0Q252 176 248 172Q244 167 248.0 163.0Q252 159 257 163Q261 166 290.0 194.0Q319 222 351.0 253.5Q383 285 410.5 312.0Q438 339 438 339Q442 343 445.5 339.5Q449 336 446 332Q445 331 403.0 288.0Q361 245 318.5 201.0Q276 157 272 152Q268 147 272.0 143.0Q276 139 280 143Q285 147 313.5 174.5Q342 202 373.5 233.0Q405 264 432.5 290.5Q460 317 460 317Q464 321 467.5 317.5Q471 314 467 310Q467 310 441.0 283.0Q415 256 385.0 225.5Q355 195 328.0 167.0Q301 139 297 135Q293 130 297.0 126.0Q301 122 306 126Q310 129 338.0 156.0Q366 183 397.0 213.0Q428 243 455.0 269.5Q482 296 482 296Q485 299 488.5 295.5Q492 292 489 289Q488 288 449.0 247.5Q410 207 370.0 165.5Q330 124 325 119Q321 114 325.0 110.0Q329 106 334 110Q338 114 365.0 140.0Q392 166 421.5 194.5Q451 223 477.0 248.5Q503 274 503 274Q507 278 511 274ZM65 -17Q65 -17 65 -17Q72 -17 77.5 -12.0Q83 -7 83 1Q83 8 77 13Q72 19 64.5 19.0Q57 19 52.0 13.5Q47 8 47.0 0.5Q47 -7 52 -12Q57 -17 65 -17Z" fill="#31373d" />
<path d="M140 209Q140 201 145.0 182.0Q150 163 150 148Q150 122 137 96Q135 91 129.5 92.0Q124 93 124 99Q124 100 127.0 107.0Q130 114 133.0 125.0Q136 136 136 148Q136 161 130.5 180.0Q125 199 125 209Q125 228 144 252Q147 256 151.5 254.5Q156 253 156 247Q156 246 148.0 233.5Q140 221 140 209ZM55 55Q62 55 62.5 48.5Q63 42 57 41Q43 38 34.0 28.0Q25 18 24 4Q24 -3 17.0 -3.0Q10 -3 10 4Q11 28 27.5 41.5Q44 55 55 55Z" fill="#7a8891" />
</g></svg>