<svg xmlns="http://www.w3.org/2000/svg" viewBox="0 0 2048 2048">
<g transform="matrix(1 0 0 -1 0 2048)">
<path d="M35.5 227.5Q0 263 0.0 313.0Q0 363 35.5 398.5Q71 434 121.0 434.0Q171 434 206.5 398.5Q242 363 242.0 313.0Q242 263 206.5 227.5Q171 192 121.0 192.0Q71 192 35.5 227.5ZM305.5 227.5Q270 263 270.0 313.0Q270 363 305.5 398.5Q341 434 391.0 434.0Q441 434 476.5 398.5Q512 363 512.0 313.0Q512 263 476.5 227.5Q441 192 391.0 192.0Q341 192 305.5 227.5Z" fill="#ffcc4d" />
<path d="M198 365Q152 346 119.5 303.5Q87 261 79 215Q53 227 37.5 251.0Q22 275 22 304Q22 345 51.0 374.0Q80 403 120 403Q168 403 198 365ZM392 403Q432 403 461.0 374.0Q490 345 490 304Q490 275 474.5 251.0Q459 227 433 215Q425 261 392.5 303.5Q360 346 314 365Q344 403 392 403Z" fill="#ea596e" />
<path d="M484 127Q496 63 458.0 23.0Q420 -17 355 -35Q317 -64 256.0 -64.0Q195 -64 157 -35Q92 -17 54.0 23.0Q16 63 28 127Q35 161 51.0 183.0Q67 205 85.0 214.0Q103 223 128.5 226.0Q154 229 173.5 227.0Q193 225 218.5 222.0Q244 219 256.0 219.0Q268 219 293.5 222.0Q319 225 338.5 227.0Q358 229 383.5 226.0Q409 223 427.0 214.0Q445 205 461.0 183.0Q477 161 484 127Z" fill="#ffe8b6" />
<path d="M435 192Q435 154 428.5 131.5Q422 109 411.5 100.5Q401 92 382.5 91.0Q364 90 347.0 94.0Q330 98 303.5 102.5Q277 107 256.0 107.0Q235 107 208.5 102.5Q182 98 165.0 94.0Q148 90 129.5 91.0Q111 92 100.5 100.5Q90 109 83.5 131.5Q77 154 77 192Q77 257 131.0 317.0Q185 377 256.0 377.0Q327 377 381.0 317.0Q435 257 435 192Z" fill="#ffcc4d" />
<path d="M297 50Q297 34 282.0 18.5Q267 3 256.0 3.0Q245 3 230.0 18.5Q215 34 215 50Q215 66 227.5 72.0Q240 78 256.0 78.0Q272 78 284.5 72.0Q297 66 297 50Z" fill="#ea596e" />
<path d="M505 17Q517 10 510 -3Q506 -9 498 -9Q494 -9 490 -7Q458 12 409 19Q446 -2 466 -29Q475 -41 464 -49Q460 -52 455 -52Q448 -52 444 -46Q426 -23 394.5 -6.5Q363 10 348.5 13.5Q334 17 325 19Q325 19 324 19Q323 20 321 21Q321 21 320.0 21.0Q319 21 319 22Q318 22 317 24Q317 24 316.5 24.5Q316 25 315.5 25.5Q315 26 314.0 28.0Q313 30 313 31Q313 31 313 31Q313 32 313.0 32.5Q313 33 313.0 33.5Q313 34 313.0 34.5Q313 35 313 36Q313 36 313 36Q313 37 314.0 39.0Q315 41 315.5 41.5Q316 42 317.5 43.5Q319 45 319 45Q319 45 321 46Q324 47 325 47Q325 47 325 47Q338 49 358.0 50.5Q378 52 425.0 44.5Q472 37 505 17ZM193 22Q193 21 191 21Q189 20 188 19Q187 19 187 19Q179 18 164.0 14.0Q149 10 117.0 -6.5Q85 -23 68 -46Q64 -52 57 -52Q52 -52 48 -49Q37 -41 46 -29Q66 -2 103 19Q54 12 22 -7Q18 -9 14 -9Q6 -9 2 -2Q-5 10 7 17Q40 37 87.0 44.5Q134 52 154.0 50.5Q174 49 187 47Q187 47 187 47Q189 47 191 46Q191 46 191.5 45.5Q192 45 193 45Q193 45 194.5 43.5Q196 42 196.5 41.5Q197 41 197.5 39.0Q198 37 199 36Q199 36 199.0 35.5Q199 35 199.0 34.5Q199 34 199.0 33.5Q199 33 199.0 32.5Q199 32 199.0 31.5Q199 31 199 31Q199 30 198.0 28.0Q197 26 197.0 25.5Q197 25 195.5 23.5Q194 22 193 22Z" fill="#c1694f" />
<path d="M142 164Q142 167 143.0 171.5Q144 176 151.0 184.0Q158 192 170.5 192.0Q183 192 190.5 185.0Q198 178 198 171L199 164V135Q199 132 198.5 127.0Q198 122 190.5 114.5Q183 107 170.5 107.0Q158 107 151.0 114.0Q144 121 143 128L142 135ZM313 164Q313 167 313.5 171.5Q314 176 321.5 184.0Q329 192 341.5 192.0Q354 192 361.0 185.0Q368 178 369 171L370 164V135Q370 132 369.0 127.0Q368 122 361.0 114.5Q354 107 341.5 107.0Q329 107 321.5 114.0Q314 121 314 128L313 135Z" fill="#272b2b" />
</g></svg>