<svg xmlns="http://www.w3.org/2000/svg" viewBox="0 0 512 512">
<g transform="matrix(1 0 0 -1 0 512)">
<path d="M384 149V235Q384 299 346.5 345.0Q309 391 256.0 391.0Q203 391 165.5 345.0Q128 299 128 235V149Q128 143 124.0 139.0Q120 135 114.0 135.0Q108 135 104.0 139.0Q100 143 100 149V235Q100 311 145.5 365.5Q191 420 256.0 420.0Q321 420 366.5 365.5Q412 311 412 235V149Q412 143 408.0 139.0Q404 135 398.0 135.0Q392 135 388.0 139.0Q384 143 384 149Z" fill="#ffac33" />
<path d="M475 264 505 7Q508 -17 493.5 -33.5Q479 -50 455 -50H57Q33 -50 18.5 -33.5Q4 -17 7 7L37 264Q40 287 58.5 303.5Q77 320 101 320H411Q435 320 453.5 303.5Q472 287 475 264Z" fill="#9266cc" />
<path d="M384 178V263Q384 328 346.5 374.0Q309 420 256.0 420.0Q203 420 165.5 374.0Q128 328 128 263V178Q128 172 124.0 168.0Q120 164 114.0 164.0Q108 164 104.0 168.0Q100 172 100 178V263Q100 340 145.5 394.0Q191 448 256.0 448.0Q321 448 366.5 394.0Q412 340 412 263V178Q412 172 408.0 168.0Q404 164 398.0 164.0Q392 164 388.0 168.0Q384 172 384 178Z" fill="#ffd983" />
</g></svg>