<svg xmlns="http://www.w3.org/2000/svg" viewBox="0 0 512 512">
<g transform="matrix(1 0 0 -1 0 512)">
<path d="M512 -7Q512 -31 495.5 -47.5Q479 -64 455 -64H57Q33 -64 16.5 -47.5Q0 -31 0 -7V391Q0 415 16.5 431.5Q33 448 57 448H455Q479 448 495.5 431.5Q512 415 512 391Z" fill="#dd2e44" />
<path d="M453 252Q453 240 451 227Q440 161 378.5 95.0Q317 29 256 7Q195 29 133.5 95.0Q72 161 61 227Q59 240 59 252Q59 297 90.5 329.0Q122 361 167 361Q223 361 256 316Q289 361 345 361Q390 361 421.5 329.0Q453 297 453 252Z" fill="#f5f8fa" />
</g></svg>