<svg xmlns="http://www.w3.org/2000/svg" viewBox="0 0 2048 2048">
<g transform="matrix(1 0 0 -1 0 2048)">
<path d="M510 280Q510 264 507 248Q493 162 413.5 77.0Q334 -8 256 -36Q178 -8 98.5 77.0Q19 162 5 248Q2 264 2 280Q2 338 43.0 379.0Q84 420 142 420Q177 420 207.0 404.0Q237 388 256 361Q275 388 305.0 404.0Q335 420 370 420Q428 420 469.0 379.0Q510 338 510 280Z" fill="#dd2e44" />
<path d="M512 235Q506 203 491.5 174.5Q477 146 466 134L455 121H57Q52 126 44.5 135.0Q37 144 21.5 173.5Q6 203 0 235Z" fill="#fdd888" />
<path d="M199 192V-64L128 7L57 -64V192Z" fill="#fdd888" />
<path d="M239 317Q245 322 249.5 319.5Q254 317 254 310V101Q254 94 249.5 91.5Q245 89 239 93L127 165L15 93Q9 89 4.5 91.5Q0 94 0 101V310Q0 317 4.5 319.5Q9 322 15 317L127 239Z" fill="#fdcb58" />
<path d="M87.5 166.0Q71 183 71.0 206.5Q71 230 87.5 246.5Q104 263 128.0 263.0Q152 263 168.5 246.5Q185 230 185.0 206.5Q185 183 168.5 166.0Q152 149 128.0 149.0Q104 149 87.5 166.0Z" fill="#fdd888" />
</g></svg>