<svg xmlns="http://www.w3.org/2000/svg" viewBox="0 0 512 512">
<g transform="matrix(1 0 0 -1 0 512)">
<path d="M256 391Q269 417 290.5 432.0Q312 447 335.0 447.0Q358 447 379.0 437.0Q400 427 413.5 403.5Q427 380 427 348Q427 320 409.5 285.0Q392 250 366.5 219.5Q341 189 316.0 163.0Q291 137 274 122L256 107Q249 112 237.5 122.5Q226 133 196.5 162.5Q167 192 144.5 220.0Q122 248 103.5 284.0Q85 320 85 348Q85 380 98.5 403.5Q112 427 133.0 437.0Q154 447 177.0 447.0Q200 447 221.5 432.0Q243 417 256 391ZM206.0 -43.0Q185 -22 185.0 7.5Q185 37 206.0 57.5Q227 78 256.0 78.0Q285 78 306.0 57.5Q327 37 327.0 7.5Q327 -22 306.0 -43.0Q285 -64 256.0 -64.0Q227 -64 206.0 -43.0Z" fill="#dd2e44" />
</g></svg>