<svg xmlns="http://www.w3.org/2000/svg" viewBox="0 0 2048 2048">
<g transform="matrix(1 0 0 -1 0 2048)">
<path d="M279 -12Q207 60 352 86Q416 97 502 97Q513 97 484 60Q431 -7 372 -29Q316 -49 279 -12Z" fill="#77b255" />
<path d="M222 -27Q168 -81 82 -9Q36 30 20 64Q15 74 19 74Q23 74 61.0 74.5Q99 75 114.5 74.5Q130 74 157.0 71.0Q184 68 201 62Q235 50 242.5 27.0Q250 4 222 -27Z" fill="#77b255" />
<path d="M492 224Q492 183 479 161Q466 138 441.0 122.5Q416 107 398 119L395 121Q402 86 382 50Q366 22 332 6Q331 6 331 6Q297 -10 267 -5Q240 0 215.0 18.0Q190 36 193 58Q183 40 151.5 36.0Q120 32 100 41Q71 51 50 80Q50 80 49.5 80.5Q49 81 49 81Q28 111 28 141Q29 168 43.0 195.5Q57 223 80 224Q76 224 72 225Q50 227 38.5 255.5Q27 284 29 311Q32 341 56 368V369Q80 397 109 404Q128 410 155.5 406.0Q183 402 195 387Q200 405 220.5 421.5Q241 438 261 442Q299 450 330.5 435.5Q362 421 377 399Q388 383 393.5 360.5Q399 338 394 321Q411 329 434.5 316.0Q458 303 472 284Q490 260 492 224Z" fill="#f4abba" />
<path d="M392 255Q410 245 402 223Q390 192 344 195Q323 197 299 205Q296 196 289 188Q302 173 313.0 153.0Q324 133 327.5 113.0Q331 93 314 86Q286 73 271.0 96.0Q256 119 257 170Q251 169 247 169Q230 169 215 179Q167 102 136 136Q116 157 138.5 176.5Q161 196 196 206Q192 215 192 224Q192 231 194 239Q154 252 137.0 265.5Q120 279 134 298Q144 311 158.0 308.0Q172 305 185.5 293.0Q199 281 210 264Q226 279 247 279Q248 279 249.0 279.0Q250 279 250 279Q248 332 270 357Q284 373 301 359Q334 330 280 268Q289 261 295 251Q319 260 344.0 262.5Q369 265 392 255Z" fill="#ea596e" />
<path d="M252 200Q249 200 247.0 200.5Q245 201 244.0 203.5Q243 206 242.5 207.0Q242 208 241.0 212.0Q240 216 240 217Q234 243 215.5 281.0Q197 319 175 348Q169 355 170.0 363.5Q171 372 178.0 377.5Q185 383 194.0 382.0Q203 381 208 374Q215 366 220.5 356.0Q226 346 230.0 338.5Q234 331 238.5 318.5Q243 306 245.5 299.5Q248 293 251.5 279.5Q255 266 256.5 261.5Q258 257 261.0 242.5Q264 228 265 226Q270 203 257 200Q254 200 252 200Z" fill="#be1931" />
<path d="M226 372Q232 365 228.0 354.0Q224 343 213 336L206 331Q195 323 183.5 322.5Q172 322 167 329L128 383Q122 391 126.0 401.5Q130 412 141 420L148 425Q158 433 169.5 433.5Q181 434 187 427Z" fill="#ffcc4d" />
</g></svg>