<svg xmlns="http://www.w3.org/2000/svg" viewBox="0 0 512 512">
<g transform="matrix(1 0 0 -1 0 512)">
<path d="M0 -36H512V-64H0Z" fill="#939598" />
<path d="M43 -50 85 21Q84 22 81.5 22.5Q79 23 71.5 25.0Q64 27 56.5 29.5Q49 32 40.0 36.0Q31 40 23.5 44.5Q16 49 9.0 56.0Q2 63 -1.5 70.0Q-5 77 -5.0 86.5Q-5 96 0 107Q20 150 59.5 186.0Q99 222 145.5 245.0Q192 268 243.5 285.5Q295 303 342.0 312.0Q389 321 427.5 326.5Q466 332 489 333L512 334V-50Z" fill="#bcbec0" />
<path d="M327 192 512 231V-50H43L85 21Q81 22 74.5 23.5Q68 25 51.5 31.0Q35 37 23.0 44.5Q11 52 2.0 65.0Q-7 78 -4 92H114Z" fill="#3b88c3" />
<path d="M199 -50 228 -7H512V-50Z" fill="#231f20" />
<path d="M512 247V218Q445 213 372.5 193.5Q300 174 250 138Q166 78 31 78Q22 78 5 78Q3 78 0.0 78.0Q-3 78 -4 78Q-7 92 0 107L5 106Q37 106 56.5 107.0Q76 108 109.5 112.0Q143 116 174.0 128.5Q205 141 234 161Q333 232 512 247Z" fill="#e6e7e8" />
<path d="M171 220 226 291Q276 311 355.5 322.5Q435 334 512 334V305Q429 306 329.5 283.0Q230 260 171 220Z" fill="#a7a9ac" />
<path d="M44 171Q140 306 270 306Q270 305 268.0 300.5Q266 296 256.5 286.0Q247 276 232.0 263.5Q217 251 188.0 232.5Q159 214 121 195Q102 185 44 171Z" fill="#58595b" />
<path d="M85 21Q42 29 16 50H512V21Z" fill="#226699" />
<path d="M50 133Q56 148 70 162Q87 164 100.0 161.5Q113 159 113.5 153.5Q114 148 102.5 142.0Q91 136 73 134Q61 132 50 133Z" fill="#ffe8b6" />
</g></svg>