<svg xmlns="http://www.w3.org/2000/svg" viewBox="0 0 512 512">
<g transform="matrix(1 0 0 -1 0 512)">
<path d="M284 363Q284 351 276.0 342.5Q268 334 256.0 334.0Q244 334 236.0 342.5Q228 351 228 363V420Q228 431 236.0 439.5Q244 448 256.0 448.0Q268 448 276.0 439.5Q284 431 284 420ZM284 -36Q284 -47 276.0 -55.5Q268 -64 256.0 -64.0Q244 -64 236.0 -55.5Q228 -47 228 -36V21Q228 33 236.0 41.5Q244 50 256.0 50.0Q268 50 276.0 41.5Q284 33 284 21ZM85 220Q97 220 105.5 212.0Q114 204 114.0 192.0Q114 180 105.5 172.0Q97 164 85 164H28Q17 164 8.5 172.0Q0 180 0.0 192.0Q0 204 8.5 212.0Q17 220 28 220ZM484 220Q495 220 503.5 212.0Q512 204 512.0 192.0Q512 180 503.5 172.0Q495 164 484 164H427Q415 164 406.5 172.0Q398 180 398.0 192.0Q398 204 406.5 212.0Q415 220 427 220ZM115 91Q124 100 135.5 100.0Q147 100 155.5 91.5Q164 83 164.0 71.5Q164 60 155 51L115 11Q107 3 95.0 3.0Q83 3 75.0 11.0Q67 19 67.0 31.0Q67 43 75 51ZM397 373Q405 381 417.0 381.0Q429 381 437.0 373.0Q445 365 445.0 353.0Q445 341 437 333L397 293Q388 284 376.5 284.0Q365 284 356.5 292.5Q348 301 348.0 312.5Q348 324 357 333ZM357 51Q348 60 348.0 71.5Q348 83 356.5 91.5Q365 100 376.5 100.0Q388 100 397 91L437 51Q445 43 445.0 31.0Q445 19 437.0 11.0Q429 3 417.0 3.0Q405 3 397 11ZM165.5 282.5Q203 320 256.0 320.0Q309 320 346.5 282.5Q384 245 384.0 192.0Q384 139 346.5 101.5Q309 64 256.0 64.0Q203 64 165.5 101.5Q128 139 128.0 192.0Q128 245 165.5 282.5ZM206.0 142.0Q227 121 256.0 121.0Q285 121 306.0 142.0Q327 163 327.0 192.0Q327 221 306.0 242.0Q285 263 256.0 263.0Q227 263 206.0 242.0Q185 221 185.0 192.0Q185 163 206.0 142.0ZM75 333Q67 341 67.0 353.0Q67 365 75.0 373.0Q83 381 95.0 381.0Q107 381 115 373L155 333Q164 324 164.0 312.5Q164 301 155.5 292.5Q147 284 135.5 284.0Q124 284 115 293Z" fill="#ffac33" />
</g></svg>