<svg xmlns="http://www.w3.org/2000/svg" viewBox="0 0 512 512">
<g transform="matrix(1 0 0 -1 0 512)">
<path d="M490 48Q498 36 500 3Q500 -1 496.5 -3.5Q493 -6 490 -7H487L235 -14L33 -7Q32 -6 29.5 -5.0Q27 -4 23.0 0.0Q19 4 19 8Q19 58 28 114Q30 145 30.0 182.5Q30 220 27.5 231.0Q25 242 79.0 257.0Q133 272 167 277Q198 281 220.5 273.5Q243 266 244 244Q244 204 272.5 164.0Q301 124 329 108Q330 107 333 105Q350 95 365.0 91.5Q380 88 399.5 87.0Q419 86 426 85Q446 82 464.5 70.5Q483 59 490 48Z" fill="#c1694f" />
<path d="M330 -14Q349 20 398 23Q413 24 433.5 33.0Q454 42 467 51L480 59Q482 59 484.5 58.5Q487 58 492.5 50.5Q498 43 502 30Q504 19 503.0 12.0Q502 5 499 3L496 0Q490 -3 481.0 -7.5Q472 -12 449.5 -18.5Q427 -25 412 -23ZM27 104Q52 75 102 60Q116 56 127.5 47.0Q139 38 146.0 28.0Q153 18 157.5 9.0Q162 0 164.5 -6.5Q167 -13 167 -13Q168 -13 137.5 -14.0Q107 -15 73.5 -14.5Q40 -14 34 -13Q19 -8 15 24Q13 37 16.0 57.0Q19 77 23 91ZM31 220Q24 216 23 227Q22 240 30 248Q39 259 138 277Q196 287 207 278Q215 272 218.5 255.0Q222 238 221 226Q221 223 216.0 222.5Q211 222 202.5 223.5Q194 225 185.0 227.5Q176 230 163.5 232.5Q151 235 142 236Q117 238 82.5 233.5Q48 229 31 220Z" fill="#662113" />
<path d="M11 -30 10 -22Q11 -14 12.0 -12.5Q13 -11 14.5 -12.5Q16 -14 18 -19Q20 -22 20.5 -23.5Q21 -25 22.5 -27.0Q24 -29 25.0 -30.0Q26 -31 27 -31Q33 -31 37.0 -35.0Q41 -39 41 -45Q41 -58 27.0 -58.0Q13 -58 11 -30ZM80.0 -57.0Q76 -61 70.0 -61.0Q64 -61 60.0 -57.0Q56 -53 56.0 -47.0Q56 -41 60.0 -37.0Q64 -33 70.0 -33.0Q76 -33 80.0 -37.0Q84 -41 84.0 -47.0Q84 -53 80.0 -57.0ZM124.0 -60.0Q120 -64 114.0 -64.0Q108 -64 104.0 -60.0Q100 -56 100.0 -50.0Q100 -44 104.0 -40.0Q108 -36 114.0 -36.0Q120 -36 124.0 -40.0Q128 -44 128.0 -50.0Q128 -56 124.0 -60.0ZM167.5 -57.5Q163 -62 157.0 -62.0Q151 -62 147.0 -57.5Q143 -53 143.0 -47.5Q143 -42 147.0 -37.5Q151 -33 157.0 -33.0Q163 -33 167.5 -37.5Q172 -42 172.0 -47.5Q172 -53 167.5 -57.5ZM294.5 -60.0Q290 -64 284.5 -64.0Q279 -64 274.5 -60.0Q270 -56 270.0 -50.0Q270 -44 274.5 -40.0Q279 -36 284.5 -36.0Q290 -36 294.5 -40.0Q299 -44 299.0 -50.0Q299 -56 294.5 -60.0ZM337.0 -60.0Q333 -64 327.0 -64.0Q321 -64 317.0 -60.0Q313 -56 313.0 -50.0Q313 -44 317.0 -40.0Q321 -36 327.0 -36.0Q333 -36 337.0 -40.0Q341 -44 341.0 -50.0Q341 -56 337.0 -60.0ZM379.0 -58.0Q375 -62 369.0 -62.0Q363 -62 359.0 -58.0Q355 -54 355.0 -48.0Q355 -42 359.0 -38.0Q363 -34 369.0 -34.0Q375 -34 379.0 -38.0Q383 -42 383.0 -48.0Q383 -54 379.0 -58.0ZM422.0 -55.5Q418 -60 412.0 -60.0Q406 -60 402.0 -55.5Q398 -51 398.0 -45.0Q398 -39 402.0 -35.0Q406 -31 412.0 -31.0Q418 -31 422.0 -35.0Q426 -39 426.0 -45.0Q426 -51 422.0 -55.5ZM465.0 -53.0Q461 -57 455.0 -57.0Q449 -57 444.5 -53.0Q440 -49 440.0 -43.0Q440 -37 444.5 -32.5Q449 -28 455.0 -28.0Q461 -28 465.0 -32.5Q469 -37 469.0 -43.0Q469 -49 465.0 -53.0ZM497 -50H493Q487 -50 483.0 -45.0Q479 -40 479 -34Q479 -28 483.0 -23.5Q487 -19 493 -19Q496 -19 501.0 -17.0Q506 -15 507.5 -14.5Q509 -14 510 -18L509 -33Q509 -39 505.5 -44.5Q502 -50 497 -50ZM192.5 168.5Q186 175 186.0 184.0Q186 193 192.5 199.0Q199 205 208.0 205.0Q217 205 223.0 199.0Q229 193 229.0 184.0Q229 175 223.0 168.5Q217 162 208.0 162.0Q199 162 192.5 168.5ZM211.5 123.0Q205 129 205.0 138.0Q205 147 211.5 153.5Q218 160 227.0 160.0Q236 160 242.0 153.5Q248 147 248.0 138.0Q248 129 242.0 123.0Q236 117 227.0 117.0Q218 117 211.5 123.0Z" fill="#292f33" />
<path d="M245.0 85.0Q239 91 239.0 100.0Q239 109 245.0 115.0Q251 121 260.0 121.0Q269 121 275.0 115.0Q281 109 281.0 100.0Q281 91 275.0 85.0Q269 79 260.0 79.0Q251 79 245.0 85.0ZM291.5 64.0Q285 70 285.0 79.0Q285 88 291.5 94.0Q298 100 306.5 100.0Q315 100 321.5 94.0Q328 88 328.0 79.0Q328 70 321.5 64.0Q315 58 306.5 58.0Q298 58 291.5 64.0ZM340.5 51.5Q334 58 334.0 66.5Q334 75 340.5 81.5Q347 88 355.5 88.0Q364 88 370.5 81.5Q377 75 377.0 66.5Q377 58 370.5 51.5Q364 45 355.5 45.0Q347 45 340.5 51.5Z" fill="#292f33" />
<path d="M206 172Q197 172 195 180Q193 192 204 194L258 207Q269 210 271.5 199.0Q274 188 263 185L209 172Q208 172 206 172ZM228 126Q221 126 217 133Q212 143 222 148L273 174Q283 179 288.0 169.0Q293 159 283 154L233 128Q230 126 228 126ZM260 88Q254 88 251 92Q244 101 252 108L294 144Q303 152 310.5 143.0Q318 134 309 127L267 91Q264 88 260 88ZM307 67Q304 67 302 68Q292 73 297 83L317 122Q322 132 332.0 127.0Q342 122 337 111L317 73Q314 67 307 67ZM356 54Q355 54 354 54Q343 56 345 67L350 106Q352 117 363.0 115.5Q374 114 373 103L367 64Q366 54 356 54Z" fill="#be1931" />
<path d="M19 4Q62 -6 84 -6Q104 -6 142.0 -2.0Q180 2 202 2Q221 2 272.0 -4.0Q323 -10 349 -8Q418 -5 466 3L500 10Q506 10 508 0Q515 -29 496 -35Q441 -51 315 -49Q299 -49 279.0 -46.5Q259 -44 240.5 -40.0Q222 -36 216 -36Q178 -31 172 -36Q171 -36 169.5 -42.0Q168 -48 159 -49Q131 -53 81.5 -50.0Q32 -47 18 -42Q13 -39 10.0 -27.0Q7 -15 9.0 -4.5Q11 6 19 4ZM191 155Q186 155 184 160L176 192Q174 199 180.5 200.5Q187 202 189 196L198 164Q200 157 193 155Q192 155 191 155ZM212 108Q208 108 206 113L194 144Q192 150 198.5 152.5Q205 155 207 149L219 118Q222 111 215 109Q214 108 212 108ZM250 70 227 93Q222 98 227.0 103.0Q232 108 237 103L260 80Q265 75 260 70Q258 68 255.0 68.0Q252 68 250 70ZM312 45Q310 45 309 46L279 61Q273 64 276.5 70.5Q280 77 286 74L315 59Q321 56 318 49Q316 45 312 45ZM369 35Q368 35 367 35L335 41Q328 43 329.5 50.0Q331 57 338 55L370 49Q377 47 376 40Q375 35 369 35Z" fill="#292f33" />
</g></svg>