<svg xmlns="http://www.w3.org/2000/svg" viewBox="0 0 2048 2048">
<g transform="matrix(1 0 0 -1 0 2048)">
<path d="M356 407 316 382 356 357 256 345V420Z" fill="#ff8044" />
<path d="M0 -64 28 -36H484L512 -64Z" fill="#c7521e" />
<path d="M249 405Q249 427 256.0 427.0Q263 427 263 405Q263 374 266.5 342.0Q270 310 274 294L277 277H235Q249 334 249 405Z" fill="#662113" />
<path d="M398 36 455 7V-50H57V7L114 36V64L171 92V149L199 178H201Q200 184 199.0 194.0Q198 204 202.5 225.0Q207 246 220 255V277L235 292H277L292 277V255Q305 246 310.0 226.5Q315 207 313 192L311 178H313L341 149V92L398 64Z" fill="#c7521e" />
<path d="M282 178H230Q221 249 238 249H274Q281 249 283.5 231.0Q286 213 284 196Z" fill="#662113" />
<path d="M168 114Q171 111 172.0 105.5Q173 100 172 96V92H143Q140 107 147 114V122L151 126H152Q155 142 155 159Q155 165 157.0 165.0Q159 165 159 159Q159 142 163 126L168 122ZM365 114Q372 108 370 92H340Q338 107 345 114V122L349 126H350Q353 142 353 159Q353 165 355.0 165.0Q357 165 357 159Q357 142 360 126H361L365 122ZM422 57Q429 51 426 36H397Q395 50 401 57V65L406 69H407Q410 85 410 102Q410 108 412.0 108.0Q414 108 414 102Q414 85 417 69H418L422 65ZM479 -14Q485 -20 483 -36H454Q452 -21 458 -14V-6L463 -2Q467 14 467 31Q467 37 469.0 37.0Q471 37 471 31Q471 14 474 -2H475L479 -6ZM111 57Q114 54 115.0 48.5Q116 43 115 39V36H86Q83 50 90 57V65L94 69H95Q98 85 98 102Q98 108 100.0 108.0Q102 108 102 102Q102 85 106 69H107L111 65ZM54 -14Q57 -17 58.0 -22.5Q59 -28 58 -32V-36H29Q26 -21 33 -14V-6L37 -2H38Q41 14 41 31Q41 37 43.5 37.0Q46 37 46 31Q46 14 49 -2H50L54 -6Z" fill="#c7521e" />
<path d="M220 277 235 292H277L292 277ZM171 149 199 178H313L341 149ZM114 64 142 92H370L398 64ZM57 7 85 36H427L455 7ZM0 -64 28 -36H484L512 -64Z" fill="#ff8044" />
<path d="M299 92H213Q213 95 213.5 98.5Q214 102 215.0 112.0Q216 122 218.0 129.5Q220 137 224.5 143.0Q229 149 235 149H277Q287 149 292.0 135.0Q297 121 298 107ZM313 36H199Q199 39 200.0 43.5Q201 48 208.0 56.0Q215 64 228 64H284Q297 64 304.0 57.0Q311 50 312 43Z" fill="#662113" />
<path d="M341 -36H171Q171 -34 171.0 -31.0Q171 -28 173.5 -20.5Q176 -13 180.0 -7.5Q184 -2 192.5 2.5Q201 7 213 7H299Q311 7 319.5 2.5Q328 -2 332.0 -8.0Q336 -14 338.5 -20.5Q341 -27 341 -31Z" fill="#292f33" />
<path d="M299 64H213Q207 64 203.0 68.0Q199 72 199.0 78.0Q199 84 203.0 88.0Q207 92 213 92H299Q305 92 309.0 88.0Q313 84 313.0 78.0Q313 72 309.0 68.0Q305 64 299 64ZM313 7H199Q193 7 189.0 11.0Q185 15 185.0 21.0Q185 27 189.0 31.5Q193 36 199 36H313Q319 36 323.0 31.5Q327 27 327.0 21.0Q327 15 323.0 11.0Q319 7 313 7ZM341 -64H171Q165 -64 160.5 -60.0Q156 -56 156.0 -50.0Q156 -44 160.5 -40.0Q165 -36 171 -36H341Q347 -36 351.5 -40.0Q356 -44 356.0 -50.0Q356 -56 351.5 -60.0Q347 -64 341 -64Z" fill="#ffa06c" />
<path d="M299 7H313V-36H299ZM199 7H213V-36H199Z" fill="#ff8044" />
</g></svg>