<svg xmlns="http://www.w3.org/2000/svg" viewBox="0 0 512 512">
<g transform="matrix(1 0 0 -1 0 512)">
<path d="M280 307Q252 292 219.5 225.5Q187 159 189 122Q191 87 206.0 63.0Q221 39 244 32Q255 28 270.0 26.5Q285 25 304.5 29.0Q324 33 340.0 43.5Q356 54 365.0 78.5Q374 103 371 138Q369 158 380.0 173.5Q391 189 398 187Q405 185 405.5 181.0Q406 177 402.0 171.5Q398 166 396.0 158.5Q394 151 396 142Q401 129 403.0 111.5Q405 94 400.5 65.5Q396 37 382 12Q366 -16 330.0 -33.0Q294 -50 246 -50Q204 -50 167.0 -27.5Q130 -5 116 33Q101 80 104.0 113.5Q107 147 121 168Q124 173 132.5 185.5Q141 198 148.0 208.5Q155 219 164.0 233.0Q173 247 178.5 258.5Q184 270 187.5 281.5Q191 293 190.0 301.5Q189 310 183 314Q202 308 226.0 306.0Q250 304 265 306Z" fill="#ffcc4d" />
<path d="M259.5 387.5Q249 398 234.5 398.0Q220 398 209.5 387.5Q199 377 199.0 362.5Q199 348 209.5 337.5Q220 327 234.5 327.0Q249 327 259.5 337.5Q270 348 270.0 362.5Q270 377 259.5 387.5ZM184.5 413.0Q205 434 234.5 434.0Q264 434 285.0 413.0Q306 392 306.0 362.5Q306 333 285.0 312.5Q264 292 234.5 292.0Q205 292 184.5 312.5Q164 333 164.0 362.5Q164 392 184.5 413.0Z" fill="#ffcc4d" />
<path d="M209 300Q212 299 215.5 298.0Q219 297 229.0 295.5Q239 294 247 297Q216 259 200 223Q194 208 192.5 204.0Q191 200 185.5 186.0Q180 172 178.5 164.5Q177 157 174.5 144.5Q172 132 172.5 121.0Q173 110 175 99Q191 15 264 12Q304 10 331.5 22.0Q359 34 367 50Q377 69 378 60Q379 55 376 42Q374 36 368.5 27.5Q363 19 351.0 6.0Q339 -7 315.0 -16.5Q291 -26 260 -28Q211 -31 176.5 -5.5Q142 20 130 65Q114 125 167 204Q186 232 196.5 256.0Q207 280 208 290Z" fill="#ffac33" />
<path d="M222 297Q236 294 247 297Q241 289 232 277Q222 278 213 280Q203 263 187 238Q200 262 206 282L209 300Q214 298 222 297ZM269 2Q248 3 232.5 9.5Q217 16 208.5 24.0Q200 32 192.5 46.0Q185 60 183.0 66.5Q181 73 177 86L178 87Q197 15 264 12Q304 10 331.5 22.0Q359 34 367 50Q375 62 378 61Q351 0 269 2Z" fill="#f4900c" />
<path d="M235 398Q222 398 212.5 390.5Q203 383 200 371Q199 370 199 370Q201 384 209.5 394.0Q218 404 233 405Q251 407 260.5 395.5Q270 384 270 368Q270 368 270 369Q267 381 257.5 389.5Q248 398 235 398ZM247 -43Q277 -44 302.0 -37.5Q327 -31 344.0 -18.5Q361 -6 370.0 3.0Q379 12 388 25Q385 18 382 12Q366 -16 330.0 -33.0Q294 -50 246 -50Q204 -50 167.0 -27.5Q130 -5 116 33Q114 37 112 42Q118 30 126.5 18.5Q135 7 150.5 -8.0Q166 -23 191.0 -32.5Q216 -42 247 -43Z" fill="#c1694f" />
<path d="M270 363Q270 364 270 368Q272 366 272 364Q273 349 264.5 335.5Q256 322 239 321Q220 319 208.0 334.0Q196 349 198 366Q198 368 199 370Q199 366 199 363Q199 348 209.5 337.5Q220 327 234.5 327.0Q249 327 259.5 337.5Q270 348 270 363Z" fill="#ffd983" />
<path d="M200 371Q199 367 199 363Q199 366 199 370Q199 370 200 371ZM270 363Q270 364 270 368Q270 368 270 369Q270 365 270 363Z" fill="#ffd983" />
<path d="M233 426Q247 427 263.5 419.0Q280 411 285 401Q290 393 284 394Q277 394 273 401Q269 407 255.0 410.0Q241 413 231.0 412.0Q221 411 208.5 405.0Q196 399 192 392Q185 379 180 384Q178 386 181 392Q186 404 200.5 414.5Q215 425 233 426ZM380 168Q392 180 395 176Q396 175 394 171Q383 154 383 143Q384 139 382 138Q379 136 376 143Q375 145 375 146Q375 163 380 168Z" fill="#ffe8b6" />
</g></svg>