<svg xmlns="http://www.w3.org/2000/svg" viewBox="0 0 512 512">
<g transform="matrix(1 0 0 -1 0 512)">
<path d="M331 117Q331 80 301.0 61.0Q271 42 228 41Q203 27 187.0 9.5Q171 -8 160.0 -24.0Q149 -40 139 -47Q101 -72 63.5 -57.0Q26 -42 13 -4Q10 5 10.0 14.5Q10 24 11.5 32.0Q13 40 19.5 54.5Q26 69 31.0 80.0Q36 91 47.5 114.5Q59 138 67 156Q71 164 77 177Q118 266 137.5 296.5Q157 327 189 346Q167 381 156 415Q150 433 157 432Q162 431 173 420Q178 416 200.0 402.5Q222 389 241 378L261 367Q415 419 512 342V-64H373Q373 -43 370 -26Q361 27 351.5 63.0Q342 99 337 108Z" fill="#c1694f" />
<path d="M512 362V258Q409 395 226 360Q215 395 269 410Q340 430 432 401Q477 386 512 362Z" fill="#292f33" />
<path d="M280 366Q245 363 207.0 348.0Q169 333 147 310Q147 313 147.5 318.0Q148 323 150.5 336.0Q153 349 157.5 359.0Q162 369 172.5 378.5Q183 388 198 389Q282 400 281 384ZM236.0 240.0Q241 235 241.0 227.5Q241 220 236.0 215.0Q231 210 223.5 210.0Q216 210 211.0 215.0Q206 220 206.0 227.5Q206 235 211.0 240.0Q216 245 223.5 245.0Q231 245 236.0 240.0Z" fill="#292f33" />
<path d="M233 433Q235 428 250.5 418.5Q266 409 282.0 391.5Q298 374 305 347Q311 319 299.0 311.0Q287 303 269.0 311.5Q251 320 243 335Q217 379 216 416Q215 446 222 446Q226 446 233 433Z" fill="#c1694f" />
<path d="M236 408Q270 378 274 351Q276 338 268 339Q257 339 249 357Q245 366 240.5 382.5Q236 399 233 403Q232 407 236 408ZM55.0 38.5Q60 32 60.0 22.5Q60 13 55.0 6.5Q50 0 43.0 0.0Q36 0 31.0 6.5Q26 13 26.0 22.5Q26 32 31.0 38.5Q36 45 43.0 45.0Q50 45 55.0 38.5Z" fill="#662113" />
<path d="M147 307Q166 297 167.0 270.0Q168 243 149 221Q129 196 107.5 162.5Q86 129 79 110Q72 89 56.0 75.0Q40 61 23 63Q29 75 44.0 106.5Q59 138 68 156Q71 163 76 175Q126 281 146 307Q147 307 147 307Z" fill="#d99e82" />
</g></svg>