<svg xmlns="http://www.w3.org/2000/svg" viewBox="0 0 2048 2048">
<g transform="matrix(1 0 0 -1 0 2048)">
<path d="M408 265Q408 265 398 270Q398 272 422 269Q459 264 479 285Q497 304 472 323Q461 332 455.5 351.5Q450 371 451 386V401Q452 381 475.5 358.5Q499 336 504 326Q524 284 487 259Q473 252 455.5 253.0Q438 254 423 260Z" fill="#292f33" />
<path d="M340 172 370 170Q375 159 379 154Q385 145 382.0 127.5Q379 110 375.0 97.5Q371 85 367 78Q365 74 344.0 68.0Q323 62 302.5 57.5Q282 53 281 53Q280 52 279.0 45.0Q278 38 278 31V24Q267 22 255 25Q255 36 261.5 50.0Q268 64 272 66Q276 68 307.0 79.5Q338 91 339 91Q345 94 342 101Q337 117 336.5 134.5Q336 152 338 162ZM168 137Q162 134 152.0 128.5Q142 123 122.0 104.5Q102 86 93 66Q91 62 94.5 52.5Q98 43 103 36L107 29L84 23Q78 53 77 59Q76 71 85.5 93.0Q95 115 101 122Q109 132 123.0 144.5Q137 157 147 165L157 173Z" fill="#8a4b38" />
<path d="M255 25Q280 26 281 24Q284 20 280 4Q279 1 270.0 -2.5Q261 -6 255 -5Q251 -4 251.0 3.5Q251 11 253 18ZM109 30Q113 27 114 11Q114 8 107.0 1.5Q100 -5 93 -6Q89 -6 86.5 1.0Q84 8 84 15V23Z" fill="#292f33" />
<path d="M387 289Q431 291 454.5 273.0Q478 255 478.5 229.5Q479 204 463.0 176.5Q447 149 420 134Q420 134 421.0 129.0Q422 124 423.5 116.0Q425 108 427.0 99.0Q429 90 431.0 80.5Q433 71 434 66Q438 49 430.5 43.5Q423 38 402.5 27.0Q382 16 365.0 6.5Q348 -3 345.5 -6.0Q343 -9 342.0 -16.5Q341 -24 340 -29V-35Q329 -38 318 -32Q323 -5 330 3Q336 10 363.0 31.0Q390 52 401 58L381 116Q352 126 339 152Q313 139 278.0 133.0Q243 127 216 128Q142 84 143 76Q143 72 155.5 60.0Q168 48 181 40Q185 38 191.5 38.0Q198 38 203 38L208 39L211 16Q195 19 180 23Q167 26 148.0 42.5Q129 59 122 70Q116 78 139 121Q148 139 159 160Q149 178 151 202Q130 225 116 246Q109 256 102.0 268.5Q95 281 92 289L88 297Q80 283 55 283Q48 279 44.5 276.0Q41 273 35.5 267.0Q30 261 26 258Q19 251 8.5 259.5Q-2 268 2 278Q3 281 7.0 287.0Q11 293 16.5 301.5Q22 310 24 314Q26 316 32.5 329.0Q39 342 45.5 349.0Q52 356 65 364Q64 375 55 384Q52 387 51 388H55Q58 387 64 383L68 381L85 370Q99 374 108.5 369.0Q118 364 133.5 346.5Q149 329 158 320Q172 308 180.0 302.0Q188 296 207.5 289.5Q227 283 252 283Q266 283 288.0 284.0Q310 285 340.0 286.5Q370 288 387 289Z" fill="#c1694f" />
<path d="M318 -32Q342 -32 344 -34Q346 -38 343 -54Q342 -57 333.0 -60.5Q324 -64 318 -63Q314 -62 314.0 -54.5Q314 -47 316 -40ZM208 43Q212 46 228 45Q231 44 236.0 35.5Q241 27 241 21Q241 17 233.5 16.0Q226 15 218 16H211ZM60.0 329.0Q55 329 55.0 334.0Q55 339 60.0 339.0Q65 339 65.0 334.0Q65 329 60.0 329.0ZM180 319Q184 310 191.5 302.0Q199 294 204 291L208 288Q207 289 203.5 289.0Q200 289 190.5 292.5Q181 296 172.5 301.0Q164 306 152.5 317.5Q141 329 132 344Q118 368 83 367Q80 367 79.0 370.5Q78 374 81 376Q100 387 120 384Q121 384 124 383Q132 382 137 379Q155 372 169 356Q185 346 205 346Q198 338 186 337Q203 319 225 314Q223 313 219.0 310.5Q215 308 203.0 309.0Q191 310 180 319Z" fill="#292f33" />
</g></svg>