<svg xmlns="http://www.w3.org/2000/svg" viewBox="0 0 512 512">
<g transform="matrix(1 0 0 -1 0 512)">
<path d="M0 320H512V-36Q512 -47 503.5 -55.5Q495 -64 484 -64H28Q17 -64 8.5 -55.5Q0 -47 0 -36Z" fill="#ccd6dd" />
<path d="M484 348Q495 348 503.5 340.0Q512 332 512 320H0Q0 332 8.5 340.0Q17 348 28 348ZM370 448Q382 448 390.0 439.5Q398 431 398 420H114Q114 431 122.0 439.5Q130 448 142 448Z" fill="#99aab5" />
<path d="M28 192H484V135H28ZM28 277H484V220H28ZM28 107H484V50H28Z" fill="#55acee" />
<path d="M484 107V50H28V107Z" fill="#55acee" />
<path d="M114 420H398V-64H114Z" fill="#e1e8ed" />
<path d="M142 164H370V107H142ZM142 249H370V192H142ZM142 78H370V21H142Z" fill="#55acee" />
<path d="M185 -7H327V-64H185Z" fill="#3b88c3" />
<path d="M313 356V313H277V277H235V313H199V356H235V391H277V356ZM249 341H213V327H249V292H263V327H299V341H263V377H249Z" fill="#dd2e44" />
</g></svg>