<svg xmlns="http://www.w3.org/2000/svg" viewBox="0 0 512 512">
<g transform="matrix(1 0 0 -1 0 512)">
<path d="M449 141Q498 107 498 64Q498 11 427.0 -26.5Q356 -64 256.0 -64.0Q156 -64 85.0 -26.5Q14 11 14 64Q14 107 63 141Q43 118 43 92Q43 45 105.5 12.0Q168 -21 256.0 -21.0Q344 -21 406.5 12.0Q469 45 469 92Q469 118 449 141Z" fill="#dd2e44" />
<path d="M128 57Q115 57 109 69Q105 77 108.0 85.0Q111 93 118 97Q124 100 131.5 106.0Q139 112 151.5 132.5Q164 153 164 178Q164 192 158.0 206.0Q152 220 146.5 228.5Q141 237 129 252Q117 268 111.0 277.0Q105 286 98.5 302.0Q92 318 92 334Q92 363 101.5 389.0Q111 415 117.0 422.5Q123 430 127 435Q133 441 142.0 441.0Q151 441 157.5 434.5Q164 428 164.0 419.5Q164 411 157 405Q135 381 135 334Q135 315 163 278Q177 261 184.0 250.5Q191 240 198.5 219.5Q206 199 206 178Q206 154 199.0 133.5Q192 113 183.0 100.5Q174 88 162.5 77.5Q151 67 146.0 64.0Q141 61 138 59Q133 57 128 57Z" fill="#dd2e44" />
<path d="M228 57Q214 57 208 69Q205 77 207.5 85.0Q210 93 218 97Q224 100 231.5 106.0Q239 112 251.0 132.5Q263 153 263 178Q263 192 257.5 206.0Q252 220 246.5 228.5Q241 237 229 252Q217 268 210.5 277.0Q204 286 198.0 302.0Q192 318 192 334Q192 363 201.5 389.0Q211 415 216.5 422.5Q222 430 227 435Q233 441 242.0 441.0Q251 441 257.0 434.5Q263 428 263.0 419.5Q263 411 257 405Q235 381 235 334Q235 315 263 278Q276 261 283.0 250.5Q290 240 298.0 219.5Q306 199 306 178Q306 154 299.0 133.5Q292 113 283.0 100.5Q274 88 262.5 77.5Q251 67 246.0 64.0Q241 61 237 59Q233 57 228 57Z" fill="#dd2e44" />
<path d="M327 57Q314 57 308 69Q304 77 307.0 85.0Q310 93 318 97Q323 100 330.5 106.0Q338 112 350.5 132.5Q363 153 363 178Q363 192 357.5 206.0Q352 220 346.0 228.5Q340 237 329 252Q316 268 310.0 277.0Q304 286 298.0 302.0Q292 318 292 334Q292 363 301.0 388.5Q310 414 316.0 422.0Q322 430 326 435Q333 441 341.5 441.0Q350 441 356.5 434.5Q363 428 363.0 419.5Q363 411 357 405Q334 381 334 334Q334 315 362 278Q376 261 383.0 250.5Q390 240 397.5 219.5Q405 199 405 178Q405 154 398.0 133.5Q391 113 382.0 100.5Q373 88 361.5 77.5Q350 67 345.0 64.0Q340 61 337 59Q332 57 327 57Z" fill="#dd2e44" />
</g></svg>