<svg xmlns="http://www.w3.org/2000/svg" viewBox="0 0 512 512">
<g transform="matrix(1 0 0 -1 0 512)">
<path d="M266 0 65 202Q27 239 27.0 292.0Q27 345 64.5 382.5Q102 420 155.0 420.0Q208 420 246 383L447 181Q484 144 484.0 91.0Q484 38 446.5 0.5Q409 -37 356.0 -37.0Q303 -37 266 0Z" fill="#d99e82" />
<path d="M417 151Q455 113 465.0 70.5Q475 28 452.5 5.0Q430 -18 387.0 -7.5Q344 3 307 40L105 241Q68 279 57.5 321.5Q47 364 70.0 387.0Q93 410 136.0 399.5Q179 389 216 352Z" fill="#f7bba6" />
<path d="M472 36Q487 21 488.5 1.5Q490 -18 477.5 -30.5Q465 -43 445.5 -41.0Q426 -39 411 -24L39 348Q24 363 22.0 382.5Q20 402 32.5 414.5Q45 427 64.5 425.5Q84 424 99 408Z" fill="#dd2e44" />
<path d="M447 0Q434 13 412 18Q382 25 363.0 44.0Q344 63 337 93Q332 115 319.0 128.0Q306 141 284 146Q254 153 235.5 171.5Q217 190 210 220Q205 242 192.0 255.0Q179 268 157 273Q127 280 108.0 299.0Q89 318 83 348Q78 370 65 383Q55 393 65.0 403.0Q75 413 85 403Q104 384 110 354Q115 332 128.0 319.0Q141 306 163 301Q193 294 212.0 275.5Q231 257 238 227Q243 205 256.0 192.0Q269 179 291 174Q321 167 339.5 148.0Q358 129 365 99Q370 77 383.0 64.0Q396 51 418 46Q448 39 467 20Q477 10 467 0Q463 -4 457.0 -4.0Q451 -4 447 0Z" fill="#ffcc4d" />
</g></svg>