<svg xmlns="http://www.w3.org/2000/svg" viewBox="0 0 512 512">
<g transform="matrix(1 0 0 -1 0 512)">
<path d="M299 235Q299 211 282.0 194.5Q265 178 242 178H57Q33 178 16.5 194.5Q0 211 0 235V277Q0 301 16.5 317.5Q33 334 57 334H242Q265 334 282.0 317.5Q299 301 299 277Z" fill="#c1694f" />
<path d="M512 363Q512 339 495.5 322.5Q479 306 455 306H284Q261 306 244.5 322.5Q228 339 228 363V377Q228 400 244.5 417.0Q261 434 284 434H455Q479 434 495.5 417.0Q512 400 512 377Z" fill="#c1694f" />
<path d="M0 277H469V-64H28Q17 -64 8.5 -55.5Q0 -47 0 -36Z" fill="#ffcc4d" />
<path d="M28 -7H199V-64H28ZM28 78H256V21H28Z" fill="#55acee" />
<path d="M228 377H512V-36Q512 -47 503.5 -55.5Q495 -64 484 -64H228Z" fill="#ffe8b6" />
<path d="M256 164H484V107H256ZM256 249H484V192H256ZM256 334H484V277H256ZM256 78H484V21H256Z" fill="#55acee" />
<path d="M313 348H341V7H313ZM398 348H427V7H398Z" fill="#ffe8b6" />
<path d="M313 -7H427V-64H313ZM142 249H171V107H142V164H85V107H57V249H85V192H142Z" fill="#3b88c3" />
<path d="M100 92H128V7H100ZM199 92H228V7H199Z" fill="#ffcc4d" />
</g></svg>