<svg xmlns="http://www.w3.org/2000/svg" viewBox="0 0 512 512">
<g transform="matrix(1 0 0 -1 0 512)">
<path d="M370 107Q382 88 389.5 52.5Q397 17 397 -9L398 -36H114Q114 -24 114.5 -6.5Q115 11 122.5 49.5Q130 88 142 107Q152 121 171.0 137.5Q190 154 201.5 167.0Q213 180 213.0 192.0Q213 204 201.5 217.0Q190 230 171.0 246.5Q152 263 142 277Q130 296 122.5 331.5Q115 367 115 393L114 420H398Q398 408 397.5 390.5Q397 373 389.5 334.5Q382 296 370 277Q360 263 341.0 246.5Q322 230 310.5 217.0Q299 204 299.0 192.0Q299 180 310.5 167.0Q322 154 341.0 137.5Q360 121 370 107Z" fill="#ffe8b6" />
<path d="M299 107Q318 107 334.5 93.0Q351 79 356 64Q362 45 365.5 20.0Q369 -5 369 -20L370 -36H142Q142 21 156 64Q161 79 177.5 93.0Q194 107 213 107Q224 107 233.5 116.0Q243 125 243 135Q242 159 242 192Q242 212 231.0 228.0Q220 244 200.0 262.5Q180 281 172 292H340Q332 281 312.0 262.5Q292 244 281.0 228.0Q270 212 270 192Q270 159 269 135Q269 125 278.5 116.0Q288 107 299 107Z" fill="#ffac33" />
<path d="M398 -64H114Q102 -64 93.5 -55.5Q85 -47 85.0 -35.5Q85 -24 93.5 -15.5Q102 -7 114 -7H398Q410 -7 418.5 -15.5Q427 -24 427.0 -35.5Q427 -47 418.5 -55.5Q410 -64 398 -64ZM398 391H114Q102 391 93.5 399.5Q85 408 85.0 419.5Q85 431 93.5 439.5Q102 448 114 448H398Q410 448 418.5 439.5Q427 431 427.0 419.5Q427 408 418.5 399.5Q410 391 398 391Z" fill="#3b88c3" />
</g></svg>