<svg xmlns="http://www.w3.org/2000/svg" viewBox="0 0 512 512">
<g transform="matrix(1 0 0 -1 0 512)">
<path d="M133 239H104Q97 239 97 246V346Q97 353 104 353H133Q140 353 140 346V246Q140 239 133 239Z" fill="#a0041e" />
<path d="M71 220 256 405 441 220V-21H71Z" fill="#ffe8b6" />
<path d="M256 220H270V-7H256Z" fill="#ffcc4d" />
<path d="M431 210 256 385 81 210Q71 200 61.0 210.0Q51 220 61 230L246 415Q256 425 266 415L451 230Q461 220 451 210Q447 206 441.0 206.0Q435 206 431 210Z" fill="#66757f" />
<path d="M246 210Q236 220 246 230L338 323Q348 333 358.5 323.0Q369 313 358 303L266 210Q262 206 256.0 206.0Q250 206 246 210Z" fill="#66757f" />
<path d="M142 78H199V-7H142Z" fill="#c1694f" />
<path d="M142 206H199V149H142ZM320 206H377V149H320ZM320 78H377V21H320Z" fill="#55acee" />
<path d="M455 -50H57Q48 -50 42.0 -43.5Q36 -37 36.0 -28.5Q36 -20 42.0 -13.5Q48 -7 57 -7H455Q464 -7 470.0 -13.5Q476 -20 476.0 -28.5Q476 -37 470.0 -43.5Q464 -50 455 -50Z" fill="#5c913b" />
</g></svg>