<svg xmlns="http://www.w3.org/2000/svg" viewBox="0 0 512 512">
<g transform="matrix(1 0 0 -1 0 512)">
<path d="M484 220Q484 126 417.0 59.5Q350 -7 256.0 -7.0Q162 -7 95.0 59.5Q28 126 28.0 220.5Q28 315 95.0 381.5Q162 448 256.0 448.0Q350 448 417.0 381.5Q484 315 484 220Z" fill="#ffcc4d" />
<path d="M369 210Q367 206 363.5 200.5Q360 195 349.5 182.5Q339 170 327.0 160.5Q315 151 296.0 143.0Q277 135 256.0 135.0Q235 135 216.0 143.0Q197 151 185.0 160.5Q173 170 162.5 182.5Q152 195 148.5 200.5Q145 206 143 210Q141 215 144.5 218.5Q148 222 152 219Q157 214 166.5 207.0Q176 200 203.5 189.0Q231 178 256.0 178.0Q281 178 308.5 189.0Q336 200 345.5 207.0Q355 214 360 219Q364 223 367.5 219.0Q371 215 369 210ZM394 292Q396 287 392 284Q390 283 388.0 283.0Q386 283 384 284Q369 296 339 296Q307 296 294 284Q290 281 286.5 284.0Q283 287 285 292Q287 297 291.5 304.5Q296 312 309.5 323.0Q323 334 339.0 334.0Q355 334 369.0 323.0Q383 312 387.0 304.5Q391 297 394 292ZM237 292Q239 287 235 284Q234 283 232.0 283.0Q230 283 228 284Q213 296 183 296Q152 296 138 284Q134 281 130.5 284.0Q127 287 129 292Q131 297 135.0 304.0Q139 311 153.0 322.5Q167 334 183.0 334.0Q199 334 213.0 322.5Q227 311 231.0 304.0Q235 297 237 292Z" fill="#664500" />
<path d="M190 119Q207 95 219 83Q241 59 242.0 26.5Q243 -6 222 -32Q199 -60 163.0 -63.5Q127 -67 99 -44L93 -40L9 30Q8 31 6.5 32.5Q5 34 3.0 39.0Q1 44 6 49Q10 54 15.0 54.0Q20 54 22 52L25 49L77 7Q78 8 80.5 12.5Q83 17 83 18L11 78Q9 79 7.5 80.5Q6 82 4.0 87.0Q2 92 8 97Q12 102 16.5 102.0Q21 102 24 100L27 97L95 41Q96 43 98.5 46.5Q101 50 102 50L23 115Q21 116 19.5 117.5Q18 119 16.0 124.0Q14 129 20 134Q24 139 28.5 139.0Q33 139 36 137L39 135L118 70Q118 70 121.5 74.0Q125 78 126 79L53 140Q51 141 49.5 142.5Q48 144 46.0 149.0Q44 154 49 159Q53 164 58.0 164.0Q63 164 66 162L69 160L147 96L153 90Q153 90 152 91Q153 91 156 88Q170 78 169 87L144 135Q136 147 149 155Q155 158 159.5 157.0Q164 156 166 153L169 150ZM506 49Q515 38 503 30L419 -40L413 -44Q385 -67 349.0 -63.5Q313 -60 290 -32Q269 -6 270.0 26.5Q271 59 294 83Q305 95 322 119L343 150Q344 152 346.0 153.5Q348 155 353.0 157.5Q358 160 364 155Q369 151 370.0 146.0Q371 141 370 138L368 135L343 87Q343 87 344 82Q346 80 356 88Q363 94 364 95Q359 90 359 90L365 96L443 160Q453 170 463 159Q467 153 466.0 149.0Q465 145 462 142L459 140L386 79Q386 79 388.0 77.0Q390 75 392.0 72.5Q394 70 394 70L473 135Q483 145 493 134Q497 128 496.0 124.0Q495 120 492 117L489 115L410 50Q411 50 413.5 46.5Q416 43 417 41L485 97Q495 108 504 97Q508 91 507.5 87.0Q507 83 504 80L501 78L429 18Q429 17 431.5 12.5Q434 8 435 7L487 49Q497 60 506 49Z" fill="#f4900c" />
<path d="M159 86 168 83Q135 38 173 -18Q176 -22 171 -23Q168 -23 166 -20Q154 -4 148.5 13.0Q143 30 144.5 42.5Q146 55 149.0 65.0Q152 75 155 80ZM352 84Q354 82 356.0 78.5Q358 75 362.0 64.0Q366 53 367.0 41.0Q368 29 363.0 12.0Q358 -5 345 -22Q342 -26 338 -23Q336 -22 338 -19Q376 37 344 81Q344 81 345.5 81.5Q347 82 349.0 82.5Q351 83 352 84Z" fill="#b55005" />
</g></svg>