<svg xmlns="http://www.w3.org/2000/svg" viewBox="0 0 512 512">
<g transform="matrix(1 0 0 -1 0 512)">
<path d="M25 149Q14 149 8.5 156.0Q3 163 5 173L44 353L20 352Q9 352 4 358Q-1 364 0 372Q2 380 9.0 385.5Q16 391 24 391L81 395Q83 395 84 395Q92 395 95.5 390.5Q99 386 97 378L53 171Q49 151 26 149ZM177 178Q146 178 128 200Q103 231 116 291Q127 342 158.0 375.0Q189 408 228 410Q263 412 282 388Q307 357 294 297Q283 246 252.5 213.0Q222 180 182 178Q180 178 177 178ZM226 373H224Q203 372 187.0 350.0Q171 328 163 290Q152 241 166 223Q173 215 184 215H186Q207 216 223.0 238.0Q239 260 248 298Q258 348 244 365Q237 373 226 373ZM391 201Q359 201 342 223Q316 255 329 314Q340 366 371.0 398.5Q402 431 441 434Q476 436 495 412Q521 380 508 321Q497 269 466.0 236.5Q435 204 395 201Q393 201 391 201ZM439 397H437Q417 395 400.5 373.0Q384 351 376 313Q365 264 380 246Q386 238 398 238H400Q420 239 436.5 261.5Q453 284 461 322Q472 371 457 389Q451 397 439 397ZM156 -50Q137 -50 130 -31Q126 -20 130.5 -9.5Q135 1 146 5Q161 11 186.5 19.0Q212 27 287.0 42.0Q362 57 439 64Q450 65 459.0 57.5Q468 50 469.0 38.0Q470 26 462.5 17.0Q455 8 443 7Q370 1 298.0 -14.0Q226 -29 202.5 -36.0Q179 -43 166 -48Q162 -50 156 -50ZM28 36Q9 36 2 54Q-2 65 2.5 75.5Q7 86 18 91Q27 94 43.5 99.5Q60 105 106.5 118.0Q153 131 203.5 142.0Q254 153 330.0 163.5Q406 174 482 178Q494 178 502.5 170.5Q511 163 512.0 151.0Q513 139 505.0 130.5Q497 122 485 121Q412 117 338.0 107.0Q264 97 215.0 86.0Q166 75 121.0 62.5Q76 50 61.0 45.0Q46 40 39 37Q34 36 28 36Z" fill="#bb1a34" />
</g></svg>