<svg xmlns="http://www.w3.org/2000/svg" viewBox="0 0 2048 2048">
<g transform="matrix(1 0 0 -1 0 2048)">
<path d="M512 405V334Q505 324 477.0 289.0Q449 254 440 241Q429 223 416.0 203.0Q403 183 396.0 172.0Q389 161 387 157Q382 146 350 133Q299 114 232 108Q79 95 48 99Q15 104 3.5 134.5Q-8 165 14 198Q17 202 22.0 204.5Q27 207 37.0 207.0Q47 207 54.0 207.0Q61 207 78.5 205.5Q96 204 105 204Q250 197 303 216Q326 225 338.5 230.5Q351 236 371.5 248.0Q392 260 411.0 279.0Q430 298 450 325Q458 336 470.0 351.5Q482 367 495.0 383.5Q508 400 512 405Z" fill="#f4900c" />
<path d="M100 98V204Q100 204 105 204Q250 197 303 216Q313 220 317 222L323 125Q275 112 232 108Q138 100 100 98ZM242 50H441V-7Q441 -19 412.0 -27.5Q383 -36 341.5 -36.0Q300 -36 271.0 -27.5Q242 -19 242 -7Z" fill="#31373d" />
<path d="M271.0 29.5Q242 38 242.0 50.0Q242 62 271.0 70.0Q300 78 341.5 78.0Q383 78 412.0 70.0Q441 62 441.0 50.0Q441 38 412.0 29.5Q383 21 341.5 21.0Q300 21 271.0 29.5Z" fill="#66757f" />
</g></svg>