<svg xmlns="http://www.w3.org/2000/svg" viewBox="0 0 2048 2048">
<g transform="matrix(1 0 0 -1 0 2048)">
<path d="M370 -21Q381 -32 353 -39Q305 -49 258 -38Q231 -32 242 -21Q261 -21 271.5 -10.5Q282 0 283 11L284 21H327Q327 20 327.5 17.0Q328 14 330.0 6.5Q332 -1 336.0 -6.5Q340 -12 349.0 -16.5Q358 -21 370 -21ZM171 -21Q182 -32 154 -39Q106 -49 59 -38Q32 -32 43 -21Q62 -21 72.5 -10.5Q83 0 84 11L85 21H128Q128 20 128.5 17.0Q129 14 131.0 6.5Q133 -1 137.0 -6.5Q141 -12 150.0 -16.5Q159 -21 171 -21Z" fill="#99aab5" />
<path d="M427 -64H28Q16 -64 9 -42Q3 -21 14 -21H412Q431 -21 441.5 -10.5Q452 0 458.5 15.5Q465 31 469 36Q503 15 505.5 -9.0Q508 -33 485.0 -48.5Q462 -64 427 -64Z" fill="#99aab5" />
<path d="M14 50Q14 117 28.5 209.5Q43 302 43 348Q43 364 89.0 369.5Q135 375 181.5 368.5Q228 362 228 348Q228 346 226.5 328.5Q225 311 225.0 297.0Q225 283 228.5 261.5Q232 240 239.0 223.5Q246 207 261.5 190.5Q277 174 299 164Q325 151 368.5 140.5Q412 130 440.0 123.0Q468 116 490.0 97.5Q512 79 512 50Z" fill="#e6e7e8" />
<path d="M512 50Q512 38 503.5 29.5Q495 21 484 21Q460 20 422.5 18.5Q385 17 308.0 20.0Q231 23 199 36Q180 42 179.0 38.5Q178 35 174.0 28.0Q170 21 156 21H43Q31 21 22.5 29.5Q14 38 14 50V64H156Q182 64 201.0 62.0Q220 60 237.5 57.0Q255 54 325.5 52.0Q396 50 512 50Z" fill="#e6e7e8" />
<path d="M232 153Q226 153 222 157Q212 167 222 177L246 202Q256 212 266.0 202.0Q276 192 266 182L242 157Q238 153 232 153ZM284 121Q281 121 278 122Q265 129 272 141L286 170Q292 183 305.0 176.5Q318 170 311 157L297 129Q293 121 284 121ZM341 107Q340 107 339 107Q333 108 329.5 112.5Q326 117 327 123L330 144Q331 149 335.5 153.0Q340 157 346.0 156.0Q352 155 355.5 150.0Q359 145 358 140L355 119Q354 107 341 107Z" fill="#dd2e44" />
</g></svg>