<svg xmlns="http://www.w3.org/2000/svg" viewBox="0 0 512 512">
<g transform="matrix(1 0 0 -1 0 512)">
<path d="M498 71Q498 62 491.5 56.0Q485 50 476 50H36Q27 50 20.5 56.0Q14 62 14 71V341Q14 350 20.5 356.5Q27 363 36 363H476Q485 363 491.5 356.5Q498 350 498 341Z" fill="#dfcebf" />
<path d="M199 121Q199 115 195.0 111.0Q191 107 185 107H71Q65 107 61.0 111.0Q57 115 57 121V263Q57 269 61.0 273.0Q65 277 71 277H185Q191 277 195.0 273.0Q199 269 199 263Z" fill="#fffff5" />
<path d="M427 235H256Q250 235 246.0 239.0Q242 243 242.0 249.0Q242 255 246.0 259.0Q250 263 256 263H427Q433 263 437.0 259.0Q441 255 441.0 249.0Q441 243 437.0 239.0Q433 235 427 235ZM356 178H256Q250 178 246.0 182.0Q242 186 242.0 192.0Q242 198 246.0 202.0Q250 206 256 206H356Q361 206 365.5 202.0Q370 198 370.0 192.0Q370 186 365.5 182.0Q361 178 356 178ZM398 121H256Q250 121 246.0 125.0Q242 129 242.0 135.0Q242 141 246.0 145.0Q250 149 256 149H398Q404 149 408.0 145.0Q412 141 412.0 135.0Q412 129 408.0 125.0Q404 121 398 121ZM185 107H71Q65 107 61.0 111.0Q57 115 57.0 121.0Q57 127 61 130Q79 141 105 145V156Q88 167 84 187Q84 187 84.0 186.5Q84 186 83 186Q75 186 75 199Q75 211 82 212Q82 217 82 225Q82 239 95.5 251.0Q109 263 130 263Q154 263 166.5 251.0Q179 239 179 225Q179 217 178 212Q186 212 186 199Q186 186 178 186Q178 186 177 187Q173 167 155 156V144Q179 140 194 130Q199 127 199 121Q199 115 195.0 111.0Q191 107 185 107ZM256 306H71Q65 306 61.0 310.0Q57 314 57.0 320.0Q57 326 61.0 330.0Q65 334 71 334H256Q262 334 266.0 330.0Q270 326 270.0 320.0Q270 314 266.0 310.0Q262 306 256 306Z" fill="#7d7585" />
</g></svg>