<svg xmlns="http://www.w3.org/2000/svg" viewBox="0 0 2048 2048">
<g transform="matrix(1 0 0 -1 0 2048)">
<path d="M512 -7Q512 -31 495.5 -47.5Q479 -64 455 -64H57Q33 -64 16.5 -47.5Q0 -31 0 -7V391Q0 415 16.5 431.5Q33 448 57 448H455Q479 448 495.5 431.5Q512 415 512 391Z" fill="#3b88c3" />
<path d="M223 230Q223 205 204 205Q190 205 186 221Q170 203 149 203Q121 203 102.5 224.0Q84 245 84 278Q84 310 103.0 331.5Q122 353 149 353Q173 353 186 335Q186 342 191.5 347.0Q197 352 204 352Q223 352 223 326ZM154 239Q168 239 176.0 250.5Q184 262 184.0 277.5Q184 293 176.0 305.5Q168 318 154 318Q139 318 131.0 305.5Q123 293 123.0 277.5Q123 262 131.0 250.5Q139 239 154 239ZM202 82Q197 82 187.0 86.0Q177 90 171 90Q155 90 146.5 78.5Q138 67 138 50Q138 35 147.0 23.0Q156 11 171 11Q176 11 187.0 15.0Q198 19 200 19Q207 19 212.0 14.0Q217 9 217 2Q217 -11 200.5 -18.0Q184 -25 169 -25Q138 -25 118.5 -3.0Q99 19 99 50Q99 81 119.0 103.5Q139 126 169 126Q185 126 201.0 120.0Q217 114 217 101Q217 94 212.5 88.0Q208 82 202 82ZM289 393Q289 402 294.5 408.0Q300 414 308.5 414.0Q317 414 322.5 408.0Q328 402 328 393V340Q344 353 365 353Q395 353 411.5 330.0Q428 307 428 276Q428 247 410.0 225.0Q392 203 364 203Q339 203 328 221Q324 205 309 205Q300 205 294.5 211.0Q289 217 289 226ZM359 239Q373 239 381.0 251.0Q389 263 389 278Q389 293 381.0 305.5Q373 318 359 318Q344 318 336.0 306.5Q328 295 328 279Q328 263 336.0 251.0Q344 239 359 239ZM422 -1Q422 -11 416.5 -17.0Q411 -23 403 -23Q387 -23 383 -7Q372 -25 347 -25Q319 -25 301.0 -2.5Q283 20 283 49Q283 80 300.0 103.0Q317 126 346 126Q368 126 383 112V165Q383 175 388.5 181.0Q394 187 402.5 187.0Q411 187 416.5 181.0Q422 175 422 165ZM353 90Q338 90 330.0 78.0Q322 66 322 50Q322 35 330.0 23.0Q338 11 353 11Q367 11 375.0 23.5Q383 36 383 52Q383 67 375.0 78.5Q367 90 353 90Z" fill="#ffffff" />
</g></svg>