<svg xmlns="http://www.w3.org/2000/svg" viewBox="0 0 512 512">
<g transform="matrix(1 0 0 -1 0 512)">
<path d="M512 -7Q512 -31 495.5 -47.5Q479 -64 455 -64H57Q33 -64 16.5 -47.5Q0 -31 0 -7V391Q0 415 16.5 431.5Q33 448 57 448H455Q479 448 495.5 431.5Q512 415 512 391Z" fill="#3b88c3" />
<path d="M114 379Q122 402 143 402Q164 402 172 379L225 232Q227 227 227 222Q227 215 221.5 210.0Q216 205 208 205Q193 205 188 219L180 244H105L97 219Q92 205 78 205Q69 205 63.5 210.5Q58 216 58 224Q58 228 60 232ZM117 281H168L143 360H142ZM157 174Q177 174 196.0 167.0Q215 160 215 144Q215 137 210.5 131.5Q206 126 199 126Q194 126 182.0 130.5Q170 135 157 135Q133 135 119.5 117.5Q106 100 106 74Q106 49 119.5 31.5Q133 14 157 14Q170 14 183.0 20.0Q196 26 200 26Q208 26 213.0 19.5Q218 13 218 7Q218 -10 198.0 -17.5Q178 -25 157 -25Q117 -25 90.5 3.5Q64 32 64 75Q64 117 90.0 145.5Q116 174 157 174ZM290 378Q290 399 311 399H363Q385 399 399.5 385.5Q414 372 414 351Q414 323 389 311Q406 308 418.0 295.0Q430 282 430 265Q430 237 413.0 221.5Q396 206 367 206H312Q302 206 296.0 211.5Q290 217 290 227ZM331 322H352Q374 322 374 344Q374 353 367.5 358.0Q361 363 352 363H331ZM331 242H363Q374 242 381.0 248.0Q388 254 388 265Q388 287 359 287H331ZM283 150Q283 159 289.0 165.0Q295 171 304 171H349Q394 171 419.0 144.5Q444 118 444 72Q444 30 418.5 4.5Q393 -21 351 -21H304Q296 -21 289.5 -16.5Q283 -12 283 -1ZM324 16H351Q376 16 389.0 32.0Q402 48 402 74Q402 101 388.5 117.5Q375 134 348 134H324Z" fill="#ffffff" />
</g></svg>