<svg xmlns="http://www.w3.org/2000/svg" viewBox="0 0 2048 2048">
<g transform="matrix(1 0 0 -1 0 2048)">
<path d="M412 -36Q412 -47 404.0 -55.5Q396 -64 384 -64H128Q116 -64 108.0 -55.5Q100 -47 100 -36V420Q100 431 108.0 439.5Q116 448 128 448H384Q396 448 404.0 439.5Q412 431 412 420Z" fill="#292f33" />
<path d="M95 -7Q14 58 14.0 192.0Q14 326 95 391H417Q498 326 498.0 192.0Q498 58 417 -7Z" fill="#be1931" />
<path d="M19 135H493Q491 120 488 107H24Q21 120 19 135ZM15 164Q14 178 14 192H498Q498 177 497 164ZM465 50H47Q39 64 34 78H478Q473 64 465 50ZM34 306H478Q484 292 488 277H24Q28 292 34 306ZM19 249H493Q496 235 497 220H15Q16 235 19 249ZM445 21Q432 6 417 -7H95Q80 6 67 21ZM67 363H445Q456 350 465 334H47Q56 350 67 363Z" fill="#dd2e44" />
</g></svg>