<svg xmlns="http://www.w3.org/2000/svg" viewBox="0 0 512 512">
<g transform="matrix(1 0 0 -1 0 512)">
<path d="M465 327Q512 278 512 167Q512 106 489.0 50.0Q466 -6 422 -36Q415 -40 407.5 -43.5Q400 -47 393.5 -49.5Q387 -52 377.5 -54.0Q368 -56 362.0 -57.5Q356 -59 344.0 -60.0Q332 -61 327.0 -61.5Q322 -62 309.0 -62.0Q296 -62 291.5 -62.0Q287 -62 273.0 -62.0Q259 -62 256.0 -62.0Q253 -62 239.0 -62.0Q225 -62 220.5 -62.0Q216 -62 203.0 -62.0Q190 -62 185.0 -61.5Q180 -61 168.0 -60.0Q156 -59 150.0 -57.5Q144 -56 134.5 -54.0Q125 -52 118.5 -49.5Q112 -47 104.5 -43.5Q97 -40 90 -36Q46 -6 23.0 50.0Q0 106 0 167Q0 278 47 327Q79 359 131.5 369.5Q184 380 256.0 380.0Q328 380 380.5 369.5Q433 359 465 327Z" fill="#f4900c" />
<path d="M296 371Q296 366 293.5 363.0Q291 360 286 360H223Q219 360 216.0 363.0Q213 366 214 371L224 434Q226 445 237 445H272Q283 445 285 434Z" fill="#3f7123" />
<path d="M294 147Q300 136 288.0 129.5Q276 123 256.0 123.0Q236 123 224.0 129.5Q212 136 218 147L241 184Q247 196 256.0 196.0Q265 196 271 184ZM429 98 390 24Q389 23 387.5 22.5Q386 22 385 23L356 43L313 -8Q312 -9 311 -9H310Q309 -9 308 -9L256 38L204 -9Q203 -10 202 -10L201 -9Q200 -9 199 -8L156 43L127 23Q126 22 124.5 22.5Q123 23 122 24L83 98Q82 100 83.0 101.5Q84 103 86 103H98Q100 103 101 102L132 69L171 100Q172 101 173.5 101.0Q175 101 176 99L210 56L253 102Q254 102 254.0 102.5Q254 103 254.5 103.0Q255 103 255 103Q255 103 256.0 103.0Q257 103 257.0 103.0Q257 103 257.5 103.0Q258 103 258.0 102.5Q258 102 259 102L302 56L336 99Q337 101 338.5 101.0Q340 101 341 100L380 69L411 102Q412 103 414 103H426Q428 103 429.0 101.5Q430 100 429 98ZM380.0 275.5Q396 253 397.5 229.0Q399 205 388.0 189.5Q377 174 352.5 172.5Q328 171 315.0 185.0Q302 199 300.5 223.0Q299 247 312.5 271.5Q326 296 345.0 297.0Q364 298 380.0 275.5ZM124.0 189.5Q113 205 114.5 229.0Q116 253 132.0 275.5Q148 298 167.0 297.0Q186 296 199.5 271.5Q213 247 211.5 223.0Q210 199 197.0 185.0Q184 171 159.5 172.5Q135 174 124.0 189.5Z" fill="#642116" />
</g></svg>