<svg xmlns="http://www.w3.org/2000/svg" viewBox="0 0 2048 2048">
<g transform="matrix(1 0 0 -1 0 2048)">
<path d="M398 149Q398 135 389.5 102.5Q381 70 366.5 31.5Q352 -7 326.0 -35.5Q300 -64 270 -64H156Q127 -64 101.0 -35.5Q75 -7 60.0 31.5Q45 70 36.5 102.5Q28 135 28 149V391Q28 415 45.0 431.5Q62 448 85 448H341Q365 448 381.5 431.5Q398 415 398 391Z" fill="#da2f47" />
<path d="M156.0 348.5Q183 343 205.5 318.0Q228 293 233.5 263.5Q239 234 224.0 217.0Q209 200 182.0 206.0Q155 212 132.0 237.0Q109 262 103.5 291.5Q98 321 113.5 337.5Q129 354 156.0 348.5ZM285.0 261.5Q290 291 309.0 316.0Q328 341 351.0 347.0Q374 353 387.0 336.5Q400 320 395.5 290.5Q391 261 371.5 236.0Q352 211 329.0 205.0Q306 199 293.0 215.5Q280 232 285.0 261.5Z" fill="#f5f8fa" />
<path d="M211.0 276.0Q220 276 226.5 267.5Q233 259 233.0 247.0Q233 235 226.5 227.0Q220 219 211.0 219.0Q202 219 195.5 227.0Q189 235 189.0 247.0Q189 259 195.5 267.5Q202 276 211.0 276.0ZM301.5 225.5Q295 234 295.0 246.0Q295 258 301.5 266.0Q308 274 317.0 274.0Q326 274 332.5 266.0Q339 258 339.0 246.0Q339 234 332.5 225.5Q326 217 317.0 217.0Q308 217 301.5 225.5ZM297 292Q287 292 280 298Q270 305 268.5 316.5Q267 328 275 337L341 423Q348 432 360.0 433.5Q372 435 381.0 428.0Q390 421 391.5 409.0Q393 397 386 388L320 303Q311 292 297 292ZM231 292Q217 292 208 303L142 388Q135 397 136.0 409.0Q137 421 146.5 428.0Q156 435 167.5 433.5Q179 432 187 423L253 337Q260 328 258.5 316.5Q257 305 248 298Q240 292 231 292Z" fill="#292f33" />
<path d="M341 7Q322 7 315 26Q312 31 308.0 38.0Q304 45 289.5 54.5Q275 64 256.0 64.0Q237 64 222.5 54.0Q208 44 203.5 37.5Q199 31 197 25Q193 14 182.0 9.5Q171 5 160.5 9.0Q150 13 145.0 24.0Q140 35 144 46Q145 49 148.0 54.5Q151 60 160.0 73.0Q169 86 181.0 95.5Q193 105 213.0 113.0Q233 121 256.0 121.0Q279 121 299.0 113.0Q319 105 330.5 95.5Q342 86 351.5 73.0Q361 60 364.0 54.5Q367 49 368 46Q372 35 367.0 24.0Q362 13 351 9Q346 7 341 7Z" fill="#fdd888" />
<path d="M264 135Q266 136 269.5 138.0Q273 140 284.0 145.0Q295 150 305.0 151.5Q315 153 329.5 154.5Q344 156 354 151Q362 148 371.0 154.0Q380 160 384.0 165.0Q388 170 394 164Q403 151 399 100Q396 55 382 59Q374 60 364 78Q348 107 323.0 121.0Q298 135 281 135ZM264 135Q262 134 254.5 135.5Q247 137 231.5 134.0Q216 131 199.5 126.5Q183 122 164.5 109.0Q146 96 132 78Q99 34 89 84Q80 126 90 157Q91 162 93 164Q101 169 106.5 163.5Q112 158 123.5 150.5Q135 143 145 146Q173 152 199.5 149.5Q226 147 245 141Z" fill="#292f33" />
<path d="M459 235Q475 235 486.5 222.5Q498 210 498.0 192.0Q498 174 486.5 161.5Q475 149 459 149Q458 149 456.5 149.5Q455 150 455 150V149H258Q242 149 230.5 161.5Q219 174 219.0 192.0Q219 210 230.5 222.5Q242 235 258 235H455V234Q459 235 459 235Z" fill="#e75a70" />
</g></svg>