<svg xmlns="http://www.w3.org/2000/svg" viewBox="0 0 2048 2048">
<g transform="matrix(1 0 0 -1 0 2048)">
<path d="M455 121Q457 120 461.0 117.5Q465 115 475.0 108.0Q485 101 492.5 93.0Q500 85 506.0 73.5Q512 62 512 50Q512 38 507.5 30.5Q503 23 493.5 21.0Q484 19 475.5 19.0Q467 19 451.5 20.0Q436 21 427 21Q477 -44 412 -39Q357 -35 256 7Q256 7 174 -23Q56 -59 64 -18Q66 -3 85 21Q76 21 60.5 20.0Q45 19 36.5 19.0Q28 19 18.5 21.0Q9 23 4.5 30.5Q0 38 0 50Q0 58 3.0 67.0Q6 76 11.0 82.5Q16 89 22.0 95.5Q28 102 34.5 106.5Q41 111 46.0 114.5Q51 118 54 119L57 121Q55 121 51.5 121.0Q48 121 39.5 123.5Q31 126 24.5 130.0Q18 134 13.0 142.5Q8 151 8.0 162.5Q8 174 16.5 192.5Q25 211 43 235Q43 235 24 245Q-17 279 71 334Q71 334 57 353Q36 390 92 389Q121 389 171 377Q171 380 171.0 384.5Q171 389 172.5 401.5Q174 414 176.5 423.5Q179 433 185.0 440.5Q191 448 199 448Q212 448 226.0 434.0Q240 420 248 405L256 391Q259 397 264.5 406.5Q270 416 285.0 432.0Q300 448 313.0 448.0Q326 448 333.0 430.0Q340 412 341 395V377Q466 406 460 367Q458 352 441 334Q491 303 498.5 278.0Q506 253 488 244L469 235Q487 211 495.5 192.5Q504 174 504.0 162.5Q504 151 499.5 142.5Q495 134 487.5 130.0Q480 126 473.0 123.5Q466 121 460 121Z" fill="#292f33" />
<path d="M412 220Q423 220 433.0 198.5Q443 177 440 149Q439 131 431.5 117.0Q424 103 418 98L412 92Q412 67 401.5 42.0Q391 17 380 5L369 -7Q369 -25 367.0 -32.0Q365 -39 352.5 -44.5Q340 -50 312 -50H199Q160 -50 151.0 -41.0Q142 -32 142 -7Q137 -2 130.0 6.5Q123 15 111.5 41.0Q100 67 100 92Q97 94 93.0 98.0Q89 102 81.0 116.5Q73 131 71 149Q68 177 78.0 198.5Q88 220 100 220Q100 224 100.5 230.5Q101 237 104.5 255.0Q108 273 113.5 288.5Q119 304 130.5 321.5Q142 339 156 348Q176 362 195.5 368.5Q215 375 225.5 376.0Q236 377 256 377Q275 377 286.0 376.0Q297 375 316.0 368.5Q335 362 355 348Q379 333 393.0 301.0Q407 269 410 245Z" fill="#dd2e44" />
<path d="M358 84Q368 89 374.5 81.0Q381 73 378 57Q373 28 362.5 10.5Q352 -7 332 -3Q330 -2 319.0 4.5Q308 11 291.5 16.0Q275 21 256.0 21.0Q237 21 220.5 16.0Q204 11 192.0 4.5Q180 -2 178 -3Q158 -7 146.5 11.0Q135 29 130 57Q127 73 134.5 81.0Q142 89 151 84Q163 77 195.0 70.0Q227 63 256 63Q283 63 315.0 70.5Q347 78 358 84Z" fill="#292f33" />
<path d="M366 39Q367 34 364.0 28.5Q361 23 355.5 21.5Q350 20 345.0 23.0Q340 26 338 32L330 65Q306 56 256 56Q205 56 180 65L170 32Q168 26 163.0 23.0Q158 20 152.5 21.5Q147 23 144.0 28.5Q141 34 142 39L154 82Q168 76 198.5 69.5Q229 63 256 63Q281 63 310.0 69.5Q339 76 354 82Z" fill="#ffffff" />
<path d="M326 23 322 2Q287 21 256 21Q225 21 187 1L182 23Q180 33 190.5 35.5Q201 38 204 27L206 18Q224 27 256 27Q287 27 304 18L305 27Q307 38 317.5 35.5Q328 33 326 23Z" fill="#ffffff" />
<path d="M192 235Q209 231 219.0 216.0Q229 201 225.5 183.5Q222 166 206.5 156.5Q191 147 174 150L140 157Q123 161 113.0 176.0Q103 191 107.0 208.5Q111 226 126.0 236.0Q141 246 158 242ZM320 238 354 245Q371 249 386.0 239.5Q401 230 405.0 212.5Q409 195 399.0 180.0Q389 165 372 161L338 154Q321 150 305.5 160.0Q290 170 286.5 187.0Q283 204 293.0 219.5Q303 235 320 238Z" fill="#55acee" />
<path d="M195 228Q210 225 218.0 212.5Q226 200 223.0 185.5Q220 171 207.5 163.0Q195 155 181 158L153 164Q138 167 130.0 179.5Q122 192 125.0 206.5Q128 221 140.5 229.0Q153 237 168 234ZM317 228 344 234Q359 237 371.5 229.0Q384 221 387.0 206.5Q390 192 382.0 179.5Q374 167 359 164L331 158Q317 155 304.5 163.0Q292 171 289.0 185.5Q286 200 294.0 212.5Q302 225 317 228Z" fill="#ffcc4d" />
<path d="M166.0 181.0Q160 187 160.0 196.0Q160 205 166.0 211.0Q172 217 181.0 217.0Q190 217 196.5 211.0Q203 205 203.0 196.0Q203 187 196.5 181.0Q190 175 181.0 175.0Q172 175 166.0 181.0ZM315.5 181.0Q309 187 309.0 196.0Q309 205 315.5 211.0Q322 217 331.0 217.0Q340 217 346.0 211.0Q352 205 352.0 196.0Q352 187 346.0 181.0Q340 175 331.0 175.0Q322 175 315.5 181.0ZM213 220Q152 220 106 251Q94 259 102.0 271.0Q110 283 122 275Q126 272 134.5 267.5Q143 263 166.5 256.0Q190 249 213 249Q219 249 223.5 245.0Q228 241 228.0 235.0Q228 229 223.5 224.5Q219 220 213 220ZM299 220Q293 220 288.5 224.5Q284 229 284.0 235.0Q284 241 288.5 245.0Q293 249 299 249Q351 249 390 275Q402 283 410.0 271.0Q418 259 406 251Q360 220 299 220Z" fill="#292f33" />
<path d="M215 97Q197 93 187 100Q178 107 178 121Q178 128 185.0 128.0Q192 128 192 121Q192 114 195 112Q202 107 218 113Q221 115 224.5 112.5Q228 110 228 107Q228 104 229.0 100.0Q230 96 237.0 90.5Q244 85 256 85Q269 85 276.0 91.0Q283 97 283.5 100.5Q284 104 284 107Q284 110 287.5 112.5Q291 115 294 113Q310 107 317 112Q320 114 320 121Q320 128 327.0 128.0Q334 128 334 121Q334 107 325 100Q315 93 297 97Q289 71 256.0 71.0Q223 71 215 97Z" fill="#a0041e" />
<path d="M337 -37Q323 -37 308 -25Q282 -4 256.0 -4.0Q230 -4 204 -25Q178 -46 152 -25Q146 -21 150.5 -15.5Q155 -10 161 -14Q178 -28 195 -14Q225 10 256.0 10.0Q287 10 317 -14Q330 -24 339 -23Q347 -21 350 -16Q353 -10 359.0 -14.0Q365 -18 362 -24Q355 -34 342 -37Q339 -37 337 -37Z" fill="#be1931" />
<path d="M85 434Q86 447 98 448Q108 449 115 434Q134 393 151 370Q171 342 189 333Q196 331 198.0 325.0Q200 319 197 313Q203 303 195.0 296.0Q187 289 178 293Q160 284 125 327Q107 348 97 375Q84 410 85 434ZM427 434Q428 410 415 375Q405 348 387 327Q351 284 334 293Q325 289 317.0 296.0Q309 303 315 313Q311 319 313.5 325.0Q316 331 323 333Q341 342 361 370Q378 393 397 434Q404 449 413 448Q426 447 427 434Z" fill="#f4900c" />
</g></svg>