<svg xmlns="http://www.w3.org/2000/svg" viewBox="0 0 2048 2048">
<g transform="matrix(1 0 0 -1 0 2048)">
<path d="M256 448 512 377V-36L256 -64L0 -36V377Z" fill="#000000" />
<path d="M256 -64V448L512 377V-36Z" fill="#292f33" />
<path d="M319 242 379 232V185L319 193ZM419 225 466 217V172L419 179ZM256 252 280 248V199L256 202ZM512 209V165L504 166V210Z" fill="#ffd983" />
<path d="M0 209 8 210V166L0 165ZM232 248 256 252V202L232 199ZM46 217 93 225V179L46 172ZM133 232 193 242V193L133 185Z" fill="#ffac33" />
<path d="M304 233Q309 228 309 217Q309 206 304 201Q302 196 299.5 196.0Q297 196 296 201Q290 206 290 217Q290 228 295 233Q295 244 299.5 244.0Q304 244 304 233ZM404 218Q409 212 409 202Q409 190 403 186Q402 181 399.5 181.0Q397 181 395 186Q390 190 390 202Q390 212 395 218Q395 229 399.5 229.0Q404 229 404 218ZM489 203Q494 198 494 188Q494 178 489 173Q487 169 485.0 169.0Q483 169 481 173Q476 178 476 188Q476 198 481 203V204Q481 214 485.0 214.0Q489 214 489 204Z" fill="#ffd983" />
<path d="M208 233Q208 244 212.5 244.0Q217 244 217 233Q222 228 222 217Q222 206 216 201Q215 196 212.5 196.0Q210 196 208 201Q203 206 203 217Q203 228 208 233ZM108 218Q108 229 112.5 229.0Q117 229 117 218Q122 212 122 202Q122 190 117 186Q115 181 112.5 181.0Q110 181 109 186Q103 190 103 202Q103 212 108 218ZM23 203V204Q23 214 27.0 214.0Q31 214 31 204V203Q36 198 36 188Q36 178 31 173Q29 169 27.0 169.0Q25 169 23 173Q18 178 18 188Q18 198 23 203ZM0 289 256 340V286L0 240Z" fill="#ffac33" />
<path d="M256 340 512 289V240L256 286Z" fill="#ffd983" />
</g></svg>