<svg xmlns="http://www.w3.org/2000/svg" viewBox="0 0 512 512">
<g transform="matrix(1 0 0 -1 0 512)">
<path d="M512 -7Q512 -31 495.5 -47.5Q479 -64 455 -64H57Q33 -64 16.5 -47.5Q0 -31 0 -7V391Q0 415 16.5 431.5Q33 448 57 448H455Q479 448 495.5 431.5Q512 415 512 391Z" fill="#9266cc" />
<path d="M334 350Q338 349 344.0 347.5Q350 346 365.0 339.0Q380 332 392.0 321.5Q404 311 415.0 290.5Q426 270 428 245Q430 220 422.0 194.5Q414 169 401.5 150.5Q389 132 376.5 117.5Q364 103 355 96L346 88Q330 75 329 61L290 90L276 80L324 43Q331 38 331 28Q331 20 325.5 14.5Q320 9 311.5 9.0Q303 9 297.5 14.5Q292 20 292 28Q292 36 296 40L269 58V16Q283 9 283 -7Q283 -19 275.5 -26.5Q268 -34 256 -34Q245 -34 237.0 -26.0Q229 -18 229 -7Q229 9 243 16V58L216 40Q220 36 220 28Q220 20 214.5 14.5Q209 9 200.5 9.0Q192 9 186.5 14.5Q181 20 181 28Q181 38 188 43L236 80L222 90L183 61Q183 67 178.5 74.0Q174 81 170 85L166 88Q163 91 157.0 96.0Q151 101 136.0 117.5Q121 134 110.0 151.0Q99 168 90.5 194.0Q82 220 84 245Q86 271 96.0 291.5Q106 312 119.0 322.5Q132 333 145.0 340.0Q158 347 167 349L176 351Q174 350 170.0 347.0Q166 344 156.5 334.5Q147 325 140.5 313.5Q134 302 129.0 283.5Q124 265 125 245Q127 224 139.5 201.5Q152 179 169.0 162.0Q186 145 203.0 130.5Q220 116 232 109L243 101V124L213 145Q214 149 215.5 155.0Q217 161 218 165Q187 177 168.0 204.0Q149 231 149.0 264.5Q149 298 168.0 325.0Q187 352 218 364L215 377L256 420L297 377Q296 373 294 363Q325 351 344.0 324.0Q363 297 363 263Q363 230 343.5 203.0Q324 176 293 164Q294 160 295.5 153.5Q297 147 297 144L267 122V100Q272 102 279.5 107.5Q287 113 307.0 129.0Q327 145 342.0 161.5Q357 178 370.5 200.5Q384 223 385 243Q387 264 382.5 282.5Q378 301 370.0 313.0Q362 325 354.0 333.5Q346 342 340 346ZM341 265Q341 289 327.5 310.5Q314 332 292 343Q278 264 290 186Q313 196 327.0 217.0Q341 238 341 265ZM171 265Q171 265 171 265Q171 238 185.5 217.0Q200 196 223 186Q234 269 222 343Q199 332 185.0 311.0Q171 290 171 265Z" fill="#ffffff" />
</g></svg>