<svg xmlns="http://www.w3.org/2000/svg" viewBox="0 0 2048 2048">
<g transform="matrix(1 0 0 -1 0 2048)">
<path d="M313 448H356L427 408L498 77L370 64L284 298ZM199 448 228 298 142 64 14 77 85 408 156 448Z" fill="#3b88c3" />
<path d="M156 377H356V-64H156Z" fill="#3b88c3" />
<path d="M256 323 257 321 185 249H156Z" fill="#226699" />
<path d="M356 164Q339 149 256 149Q219 149 194.0 152.5Q169 156 163 160L156 164V249H356Z" fill="#88c9f9" />
<path d="M356 192Q339 178 256 178Q219 178 194.0 181.5Q169 185 163 188L156 192V220H356ZM356 448 256 320 156 448Z" fill="#ffffff" />
<path d="M289 448 256 405 223 448Z" fill="#99aab5" />
<path d="M356 92V391L384 64ZM156 92 128 64 156 391Z" fill="#226699" />
</g></svg>