<svg xmlns="http://www.w3.org/2000/svg" viewBox="0 0 512 512">
<g transform="matrix(1 0 0 -1 0 512)">
<path d="M458 337Q462 337 467.5 335.0Q473 333 483.5 325.0Q494 317 498.0 305.0Q502 293 497.0 284.0Q492 275 486 272L479 269Q437 256 400.5 252.0Q364 248 349 251L334 254Q302 213 261 201Q239 195 219.0 195.5Q199 196 185 199L170 202Q167 198 158.5 190.5Q150 183 117.5 164.0Q85 145 42 132Q41 132 39.0 131.5Q37 131 32.0 131.0Q27 131 22.5 132.5Q18 134 13.5 139.0Q9 144 6 151Q3 163 6.5 175.5Q10 188 15 194L21 201Q28 207 46.0 237.0Q64 267 86.0 292.5Q108 318 132 325Q162 335 185.0 334.5Q208 334 218.0 337.0Q228 340 246.5 353.5Q265 367 296 376Q320 384 352.5 375.5Q385 367 416.5 353.0Q448 339 458 337ZM443 242Q463 248 476.0 243.5Q489 239 492 228Q497 218 494.5 199.5Q492 181 487.5 159.5Q483 138 469.5 113.5Q456 89 438.0 67.5Q420 46 390.5 26.5Q361 7 325 -4Q268 -20 221.0 -15.0Q174 -10 138.0 10.5Q102 31 81.0 52.5Q60 74 55 91Q51 102 59.5 113.5Q68 125 87 131Q115 140 139.0 138.0Q163 136 179.5 130.0Q196 124 223.0 123.0Q250 122 282 132Q314 142 336.0 158.5Q358 175 367.5 189.0Q377 203 396.0 218.5Q415 234 443 242Z" fill="#dd2e44" />
</g></svg>