<svg xmlns="http://www.w3.org/2000/svg" viewBox="0 0 2048 2048">
<g transform="matrix(1 0 0 -1 0 2048)">
<path d="M512 192Q512 86 437.0 11.0Q362 -64 256.0 -64.0Q150 -64 75.0 11.0Q0 86 0.0 192.0Q0 298 75.0 373.0Q150 448 256.0 448.0Q362 448 437.0 373.0Q512 298 512 192Z" fill="#ffcc4d" />
<path d="M297 50Q334 38 334 14Q334 1 324.0 -8.0Q314 -17 298.0 -21.0Q282 -25 272.5 -26.5Q263 -28 256 -28Q249 -28 249 -22Q248 -15 256 -14Q257 -14 261.0 -13.5Q265 -13 273.5 -11.0Q282 -9 288.5 -6.0Q295 -3 300.5 2.0Q306 7 306 14Q306 25 292.5 32.0Q279 39 269.5 41.0Q260 43 256 43Q255 43 255 43Q254 43 253.5 43.0Q253 43 252.0 44.0Q251 45 251.0 45.0Q251 45 250.5 46.0Q250 47 249.5 47.0Q249 47 249 48Q249 48 249 49V50Q249 50 249 51Q249 52 250 52Q250 53 250 54Q250 54 250.5 54.0Q251 54 251 55Q252 55 253.0 56.0Q254 57 255 57H256Q257 57 261.0 57.5Q265 58 273.5 60.0Q282 62 288.5 65.0Q295 68 300.5 73.5Q306 79 306.0 85.5Q306 92 300.5 97.5Q295 103 288.5 106.0Q282 109 273.5 111.0Q265 113 261.0 113.5Q257 114 256 114Q248 114 249 121Q249 129 256 128Q263 128 272.5 126.5Q282 125 298.0 121.0Q314 117 324.0 107.5Q334 98 334 85Q334 61 297 50ZM228 178Q217 178 214 188Q211 198 202.5 209.0Q194 220 184.5 220.0Q175 220 167.0 208.5Q159 197 156 188Q151 174 137.5 178.5Q124 183 129 197Q131 204 135.5 213.0Q140 222 154.0 235.5Q168 249 185.0 249.0Q202 249 216.0 235.5Q230 222 234.5 213.0Q239 204 241 196Q246 183 232 179Q230 178 228 178ZM370 178Q360 178 356 188Q353 198 345.0 209.0Q337 220 327.0 220.0Q317 220 309.0 208.5Q301 197 298 188Q293 174 279.5 178.5Q266 183 271 197Q274 204 278.0 213.0Q282 222 296.0 235.5Q310 249 327.0 249.0Q344 249 358.0 235.5Q372 222 376.5 213.0Q381 204 383 196Q388 183 374 179Q372 178 370 178Z" fill="#664500" />
</g></svg>