<svg xmlns="http://www.w3.org/2000/svg" viewBox="0 0 2048 2048">
<g transform="matrix(1 0 0 -1 0 2048)">
<path d="M480 266 462 259 451 227 445 224 456 257 430 248 417 207 411 208 423 246 397 237 385 200 379 202 390 235 364 227 353 193 319 183 309 150 303 152 313 180 286 172 275 138 269 140 279 169 253 161 245 138 240 140 246 159 212 148 223 181 205 175 203 181 225 188 234 214 205 205 203 210 236 221 245 248 216 239 215 244 247 255 256 281 248 279 247 285 291 299 300 325 267 315 265 320 302 332 311 359 273 347 271 352 313 366 322 394 288 384 289 390 324 401 328 414 334 413 331 403 363 413 361 407 353 378 395 392 412 395 415 386 398 333 448 350 460 348 457 331 443 288 470 297 475 299 464 266 479 271ZM436 286 445 313 418 304 410 278ZM301 236 274 227 266 201 292 210ZM276 234 303 243 312 270 285 261ZM307 238 299 212 326 220 334 247ZM310 245 336 254 345 280 318 272ZM358 320 366 347 340 338 331 312ZM363 316 354 289 380 298 389 324ZM356 314 329 305 321 279 347 287ZM352 283 343 256 370 265 378 291ZM385 293 376 267 403 275 411 302ZM455 346 429 337 421 311 447 319ZM422 335 396 327 387 300 414 309ZM391 331 400 358 373 349 365 323ZM410 391 384 382 375 356 402 364ZM377 380 351 372 342 345 369 354ZM329 397 320 368 346 376 354 404ZM318 361 309 334 335 343 344 369ZM307 328 298 301 325 310 333 336ZM296 294 287 268 314 276 322 303ZM263 284 254 257 280 266 289 292ZM252 250 243 223 270 232 278 259ZM241 217 232 190 259 199 267 225ZM248 166 257 192 230 183 222 157ZM281 176 290 203 263 194 255 168ZM315 187 323 214 297 205 288 179ZM348 198 357 224 330 216 322 189ZM359 231 367 258 341 249 332 223ZM392 242 401 269 374 260 366 234ZM426 253 434 279 408 271 399 244ZM432 255 459 264 467 290 441 282Z" fill="#292f33" />
<path d="M6 -34 173 132Q177 137 184.0 137.0Q191 137 196.0 132.0Q201 127 201.0 120.0Q201 113 196 108L30 -58Q25 -63 18.0 -63.0Q11 -63 6.5 -58.0Q2 -53 2.0 -46.0Q2 -39 6 -34Z" fill="#226699" />
<path d="M395 202 374 205Q382 253 349.5 285.0Q317 317 270 310L266 331Q325 340 364.5 300.0Q404 260 395 202Z" fill="#292f33" />
<path d="M435 212 414 215Q421 274 379.5 315.5Q338 357 279 349L276 370Q346 380 395.0 331.0Q444 282 435 212Z" fill="#292f33" />
<path d="M320.5 3.0Q306 17 306.0 37.0Q306 57 320.5 71.5Q335 86 355.0 86.0Q375 86 389.0 71.5Q403 57 403.0 37.0Q403 17 389.0 3.0Q375 -11 355.0 -11.0Q335 -11 320.5 3.0Z" fill="#f4900c" />
<path d="M480 230Q460 209 417 201Q397 197 385.0 193.5Q373 190 350.0 175.5Q327 161 303 138Q279 114 242 111Q217 110 201 99Q198 97 195 97Q190 97 187 100L164 123Q158 129 163 136Q174 152 176 178Q178 215 202 239Q226 263 240.0 285.5Q254 308 257.5 320.5Q261 333 265 353Q273 395 294 416Q320 443 352.5 445.5Q385 448 412.0 435.0Q439 422 462.5 398.5Q486 375 499.5 348.0Q513 321 510.0 288.5Q507 256 480 230ZM474.0 361.0Q465 374 452.0 365.0Q439 356 448.0 343.0Q457 330 470.0 339.0Q483 348 474.0 361.0ZM427.5 408.5Q423 413 416.5 413.0Q410 413 405.0 408.5Q400 404 400.0 397.5Q400 391 405.0 386.5Q410 382 416.5 382.0Q423 382 427.5 386.5Q432 391 432.0 397.5Q432 404 427.5 408.5ZM356.5 436.0Q351 433 349.0 426.5Q347 420 350.5 414.5Q354 409 360.0 407.5Q366 406 372.0 409.0Q378 412 379.5 418.5Q381 425 377.5 430.5Q374 436 368.0 437.5Q362 439 356.5 436.0ZM465 245Q471 250 475 256Q469 321 426 362Q382 405 320 411Q314 407 309 401Q293 385 286 349Q282 328 278.0 314.5Q274 301 258.5 275.5Q243 250 217 224Q213 220 210 216Q202 183 225.0 160.5Q248 138 280 146Q284 149 288 153Q314 178 339.5 193.5Q365 209 378.5 213.0Q392 217 413 222Q449 228 465 245ZM475.5 289.5Q480 285 486.5 285.0Q493 285 497.5 289.5Q502 294 502.0 300.5Q502 307 497.5 311.5Q493 316 486.5 316.0Q480 316 475.5 311.5Q471 307 471.0 300.5Q471 294 475.5 289.5Z" fill="#55acee" />
<path d="M463 261Q462 261 461 262Q458 263 460 266Q464 276 475 291Q455 289 449 304Q442 319 452 343Q423 339 412 352Q402 364 408 389Q384 377 369 384Q359 388 356 398Q354 403 355 411Q341 400 328 396Q325 395 324.0 398.5Q323 402 326 403Q346 409 361 426Q363 428 366.0 426.0Q369 424 367 421Q360 408 363 400Q365 394 372 390Q385 385 412 399Q414 400 416.0 398.5Q418 397 417 394Q407 369 418 356Q428 344 458 351Q460 351 461.5 349.5Q463 348 462 346Q461 344 459.0 339.0Q457 334 454.5 324.0Q452 314 455 307Q462 293 482 300Q485 301 486.5 299.0Q488 297 486 295Q473 277 466 263Q465 261 463 261Z" fill="#292f33" />
</g></svg>