<svg xmlns="http://www.w3.org/2000/svg" viewBox="0 0 2048 2048">
<g transform="matrix(1 0 0 -1 0 2048)">
<path d="M156 263Q156 263 156 263Q156 252 167.5 242.5Q179 233 192.5 227.0Q206 221 217.0 211.5Q228 202 227 192Q226 181 218.0 173.0Q210 165 201.5 161.5Q193 158 187.5 153.0Q182 148 185 142Q218 77 280.0 36.5Q342 -4 417 -7Q347 -64 256 -64Q150 -64 75.0 11.0Q0 86 0 192Q0 291 66.0 363.5Q132 436 229 446Q156 369 156 263Z" fill="#ffd983" />
<path d="M114.5 7.5Q100 22 100.0 42.5Q100 63 114.5 77.5Q129 92 149.5 92.0Q170 92 184.5 77.5Q199 63 199.0 42.5Q199 22 184.5 7.5Q170 -7 149.5 -7.0Q129 -7 114.5 7.5ZM118.0 338.5Q114 343 114.0 348.5Q114 354 118.0 358.5Q122 363 128.0 363.0Q134 363 138.0 358.5Q142 354 142.0 348.5Q142 343 138.0 338.5Q134 334 128.0 334.0Q122 334 118.0 338.5ZM246.0 -17.0Q242 -13 242.0 -7.0Q242 -1 246.0 3.0Q250 7 256.0 7.0Q262 7 266.0 3.0Q270 -1 270.0 -7.0Q270 -13 266.0 -17.0Q262 -21 256.0 -21.0Q250 -21 246.0 -17.0ZM22.5 143.5Q14 152 14.0 163.5Q14 175 22.5 183.5Q31 192 42.5 192.0Q54 192 62.5 183.5Q71 175 71.0 163.5Q71 152 62.5 143.5Q54 135 42.5 135.0Q31 135 22.5 143.5Z" fill="#ffcc4d" />
<path d="M230 78Q186 67 143.5 78.0Q101 89 96 104Q95 108 98.0 109.0Q101 110 109.5 109.5Q118 109 129.0 108.5Q140 108 159.5 109.5Q179 111 201 116Q214 96 230 78ZM142 242Q142 227 131.5 216.5Q121 206 106.5 206.0Q92 206 81.5 216.5Q71 227 71.0 242.0Q71 257 81.5 267.0Q92 277 106.5 277.0Q121 277 131.5 267.0Q142 257 142 242Z" fill="#292f33" />
</g></svg>