<svg xmlns="http://www.w3.org/2000/svg" viewBox="0 0 512 512">
<g transform="matrix(1 0 0 -1 0 512)">
<path d="M512 -7Q512 -31 495.5 -47.5Q479 -64 455 -64H57Q33 -64 16.5 -47.5Q0 -31 0 -7V391Q0 415 16.5 431.5Q33 448 57 448H455Q479 448 495.5 431.5Q512 415 512 391Z" fill="#9266cc" />
<path d="M236.0 84.0Q209 57 170.5 57.0Q132 57 105.0 84.0Q78 111 78.0 149.5Q78 188 105.0 215.0Q132 242 170.5 242.0Q209 242 236.0 215.0Q263 188 263.0 149.5Q263 111 236.0 84.0ZM205.5 184.5Q191 199 170.5 199.0Q150 199 135.5 184.5Q121 170 121.0 149.5Q121 129 135.5 114.5Q150 100 170.5 100.0Q191 100 205.5 114.5Q220 129 220.0 149.5Q220 170 205.5 184.5Z" fill="#ffffff" />
<path d="M363 25Q349 25 335 30Q298 42 289 79Q283 108 296.5 142.5Q310 177 340 207Q361 227 369.0 253.0Q377 279 369 299Q357 327 313 327Q288 327 268.5 313.0Q249 299 249 277Q249 251 260 222Q266 207 268.5 198.0Q271 189 270.5 170.0Q270 151 262 128Q259 120 251.0 116.0Q243 112 235.0 115.0Q227 118 223.0 125.5Q219 133 222 142Q229 170 228.0 179.5Q227 189 221 207Q206 243 206 277Q206 318 239.0 344.0Q272 370 313 370Q386 370 408 315Q421 284 410.5 245.5Q400 207 371 177Q347 153 337.0 129.0Q327 105 331 89Q334 75 348 70Q368 63 381 73Q391 80 391 92Q391 101 397.5 107.5Q404 114 412.5 114.0Q421 114 427.5 107.5Q434 101 434 92Q434 58 406 38Q387 25 363 25Z" fill="#ffffff" />
</g></svg>