<svg xmlns="http://www.w3.org/2000/svg" viewBox="0 0 2048 2048">
<g transform="matrix(1 0 0 -1 0 2048)">
<path d="M467 214Q512 199 512 149V50Q512 44 508.0 40.0Q504 36 498.0 36.0Q492 36 488.0 40.0Q484 44 484 50V121Q477 89 470.0 43.0Q463 -3 459 -34L455 -64H370Q369 -63 368.5 -62.0Q368 -61 367.0 -58.0Q366 -55 366.5 -51.5Q367 -48 371.5 -44.0Q376 -40 384 -36L412 -21V21Q384 36 356 78Q284 64 256 64H213L199 -64H114Q114 -36 128 -36Q134 -36 141.5 -32.0Q149 -28 152 -25L156 -21L142 149Q94 158 71 135Q58 122 47.5 115.0Q37 108 33 107H28Q0 130 0 158Q0 178 28.0 208.5Q56 239 85 247Q85 247 85.0 247.5Q85 248 85 249Q85 261 90.5 269.0Q96 277 104 277Q112 277 117.5 269.5Q123 262 123 250Q139 252 159.5 257.5Q180 263 185 263Q216 263 245.5 252.5Q275 242 295.5 231.0Q316 220 327 220Q348 220 377.0 223.5Q406 227 424.0 227.0Q442 227 455 220Q462 217 467 214Z" fill="#ffcc4d" />
<path d="M47.0 196.0Q43 200 43.0 206.0Q43 212 47.0 216.0Q51 220 57.0 220.0Q63 220 67.0 216.0Q71 212 71.0 206.0Q71 200 67.0 196.0Q63 192 57.0 192.0Q51 192 47.0 196.0ZM0 164Q6 170 13.5 170.0Q21 170 24 167L28 164Q27 164 24.5 163.0Q22 162 18.0 155.0Q14 148 14 135Q8 135 4.5 142.0Q1 149 0 156Z" fill="#292f33" />
<path d="M129.5 193.5Q121 202 121.0 213.5Q121 225 129.5 233.5Q138 242 149.5 242.0Q161 242 169.5 233.5Q178 225 178.0 213.5Q178 202 169.5 193.5Q161 185 149.5 185.0Q138 185 129.5 193.5ZM228.5 193.5Q220 202 220.0 213.5Q220 225 228.5 233.5Q237 242 249.0 242.0Q261 242 269.0 233.5Q277 225 277.0 213.5Q277 202 269.0 193.5Q261 185 249.0 185.0Q237 185 228.5 193.5ZM186.0 122.0Q178 130 178.0 142.0Q178 154 186.0 162.5Q194 171 206.0 171.0Q218 171 226.5 162.5Q235 154 235.0 142.0Q235 130 226.5 122.0Q218 114 206.0 114.0Q194 114 186.0 122.0ZM285.5 93.5Q277 102 277.0 114.0Q277 126 285.5 134.0Q294 142 306.0 142.0Q318 142 326.0 134.0Q334 126 334.0 114.0Q334 102 326.0 93.5Q318 85 306.0 85.0Q294 85 285.5 93.5ZM328.5 164.5Q320 173 320.0 185.0Q320 197 328.5 205.0Q337 213 348.5 213.0Q360 213 368.5 205.0Q377 197 377.0 185.0Q377 173 368.5 164.5Q360 156 348.5 156.0Q337 156 328.5 164.5ZM385.5 93.5Q377 102 377.0 114.0Q377 126 385.5 134.0Q394 142 405.5 142.0Q417 142 425.5 134.0Q434 126 434.0 114.0Q434 102 425.5 93.5Q417 85 405.5 85.0Q394 85 385.5 93.5ZM428.0 164.5Q420 173 420.0 185.0Q420 197 428.0 205.0Q436 213 448.0 213.0Q460 213 468.0 205.0Q476 197 476.0 185.0Q476 173 468.0 164.5Q460 156 448.0 156.0Q436 156 428.0 164.5Z" fill="#f4900c" />
<path d="M139.0 203.0Q135 207 135.0 213.0Q135 219 139.0 223.5Q143 228 149.0 228.0Q155 228 159.5 223.5Q164 219 164.0 213.0Q164 207 159.5 203.0Q155 199 149.0 199.0Q143 199 139.0 203.0ZM239.0 203.0Q235 207 235.0 213.0Q235 219 239.0 223.5Q243 228 249.0 228.0Q255 228 259.0 223.5Q263 219 263.0 213.0Q263 207 259.0 203.0Q255 199 249.0 199.0Q243 199 239.0 203.0ZM196.0 132.0Q192 136 192.0 142.0Q192 148 196.0 152.0Q200 156 206.0 156.0Q212 156 216.0 152.0Q220 148 220.0 142.0Q220 136 216.0 132.0Q212 128 206.0 128.0Q200 128 196.0 132.0ZM296.0 104.0Q292 108 292.0 114.0Q292 120 296.0 124.0Q300 128 306.0 128.0Q312 128 316.0 124.0Q320 120 320.0 114.0Q320 108 316.0 104.0Q312 100 306.0 100.0Q300 100 296.0 104.0ZM338.5 175.0Q334 179 334.0 185.0Q334 191 338.5 195.0Q343 199 348.5 199.0Q354 199 358.5 195.0Q363 191 363.0 185.0Q363 179 358.5 175.0Q354 171 348.5 171.0Q343 171 338.5 175.0ZM395.0 104.0Q391 108 391.0 114.0Q391 120 395.0 124.0Q399 128 405.0 128.0Q411 128 415.5 124.0Q420 120 420.0 114.0Q420 108 415.5 104.0Q411 100 405.0 100.0Q399 100 395.0 104.0ZM438.0 175.0Q434 179 434.0 185.0Q434 191 438.0 195.0Q442 199 448.0 199.0Q454 199 458.0 195.0Q462 191 462.0 185.0Q462 179 458.0 175.0Q454 171 448.0 171.0Q442 171 438.0 175.0Z" fill="#ffac33" />
</g></svg>