<svg xmlns="http://www.w3.org/2000/svg" viewBox="0 0 2048 2048">
<g transform="matrix(1 0 0 -1 0 2048)">
<path d="M0 -36H512V-64H0Z" fill="#939598" />
<path d="M71 -8V107Q71 119 89.0 172.5Q107 226 124 273L142 320Q143 322 144.5 324.5Q146 327 153.0 334.5Q160 342 170.0 347.5Q180 353 199.0 358.0Q218 363 242 363H512V-7Z" fill="#d1d3d4" />
<path d="M199 21Q199 15 195.0 11.0Q191 7 185 7H71Q65 7 61.0 11.0Q57 15 57 21V50Q57 56 61.0 60.0Q65 64 71 64H185Q191 64 195.0 60.0Q199 56 199 50Z" fill="#d1d3d4" />
<path d="M512 -50H64Q59 -50 53.0 -43.5Q47 -37 45 -28L34 14Q32 23 39.0 29.5Q46 36 57 36H512Z" fill="#f4900c" />
<path d="M512 306V107H284Q261 107 247.0 123.5Q233 140 237 164L252 249Q256 272 274.0 289.0Q292 306 313 306Z" fill="#414042" />
<path d="M512 277V135H299Q267 135 274 176L285 237Q292 277 328 277Z" fill="#3b88c3" />
<path d="M242 363H311Q303 320 256 320Q226 320 211.0 310.0Q196 300 185 277Q179 265 171.5 243.5Q164 222 155.5 193.0Q147 164 142 149Q134 123 117.5 115.0Q101 107 71 107Q71 119 89.0 172.5Q107 226 124 273L142 320Q143 322 144.5 324.5Q146 327 153.0 334.5Q160 342 170.0 347.5Q180 353 199.0 358.0Q218 363 242 363Z" fill="#414042" />
<path d="M128 192Q122 173 111.0 162.5Q100 152 93 151L85 149H81Q98 204 137 305Q149 303 154.0 295.0Q159 287 156.5 273.5Q154 260 149.5 248.0Q145 236 138.0 218.0Q131 200 128 192Z" fill="#55acee" />
<path d="M114 64H85Q79 64 75.0 68.0Q71 72 71.0 78.0Q71 84 75.0 88.0Q79 92 85 92H114Q120 92 124.0 88.0Q128 84 128.0 78.0Q128 72 124.0 68.0Q120 64 114 64Z" fill="#dd2e44" />
</g></svg>