<svg xmlns="http://www.w3.org/2000/svg" viewBox="0 0 2048 2048">
<g transform="matrix(1 0 0 -1 0 2048)">
<path d="M213 320 299 405Q302 409 308.5 414.0Q315 419 334.0 429.0Q353 439 372.5 442.5Q392 446 418.5 437.5Q445 429 469.0 405.0Q493 381 502.0 355.0Q511 329 506.5 308.5Q502 288 494.0 270.5Q486 253 478 244L469 235L356 121Q352 117 346.0 112.0Q340 107 320.5 97.0Q301 87 281.5 83.5Q262 80 235.5 88.5Q209 97 185 121Q180 125 176.0 130.5Q172 136 169.0 141.0Q166 146 163.5 150.0Q161 154 160 156L159 158L207 206Q205 186 228 164Q229 162 232.5 159.5Q236 157 245.5 151.5Q255 146 264.5 144.5Q274 143 287.5 147.5Q301 152 313 164L427 277Q428 279 431.0 282.0Q434 285 439.0 295.0Q444 305 445.5 314.5Q447 324 443.0 337.5Q439 351 427.0 363.0Q415 375 401.5 379.0Q388 383 378.0 381.0Q368 379 359.5 375.0Q351 371 346 367L341 363L288 310Q287 311 285.0 312.0Q283 313 275.5 316.0Q268 319 259.5 320.0Q251 321 237.0 320.0Q223 319 208 315Z" fill="#8899a6" />
<path d="M296 64 211 -21Q208 -25 201.5 -30.0Q195 -35 175.5 -45.0Q156 -55 137.0 -58.5Q118 -62 91.0 -53.5Q64 -45 40.5 -21.0Q17 3 8.0 29.0Q-1 55 3.5 75.5Q8 96 16.0 113.5Q24 131 32 140L40 149L154 263Q158 267 164.0 272.0Q170 277 189.5 287.0Q209 297 228.0 300.5Q247 304 274.0 295.5Q301 287 325 263Q332 256 338.5 246.5Q345 237 348 232L351 226L303 178Q305 198 282 220Q280 222 277.0 224.5Q274 227 264.5 232.5Q255 238 245.5 239.5Q236 241 222.5 236.5Q209 232 197 220L83 107Q81 105 78.5 102.0Q76 99 71.0 89.0Q66 79 64.5 69.5Q63 60 67.0 46.5Q71 33 83.0 21.0Q95 9 108.0 5.0Q121 1 131.5 3.0Q142 5 150.5 9.0Q159 13 164 17L168 21L221 74Q223 73 225.0 72.0Q227 71 234.5 68.0Q242 65 250.5 64.0Q259 63 273.0 64.0Q287 65 302 69Z" fill="#8899a6" />
</g></svg>