<svg xmlns="http://www.w3.org/2000/svg" viewBox="0 0 512 512">
<g transform="matrix(1 0 0 -1 0 512)">
<path d="M398 306V164H341V306Q341 341 316.0 366.0Q291 391 256.0 391.0Q221 391 196.0 366.0Q171 341 171 306V164H114V306Q114 365 155.5 406.5Q197 448 256.0 448.0Q315 448 356.5 406.5Q398 365 398 306Z" fill="#aab8c2" />
<path d="M455 -7Q455 -31 438.5 -47.5Q422 -64 398 -64H114Q90 -64 73.5 -47.5Q57 -31 57 -7V192Q57 216 73.5 232.5Q90 249 114 249H398Q422 249 438.5 232.5Q455 216 455 192Z" fill="#ffac33" />
</g></svg>