<svg xmlns="http://www.w3.org/2000/svg" viewBox="0 0 512 512">
<g transform="matrix(1 0 0 -1 0 512)">
<path d="M180 -42Q178 -47 175 -49Q159 -66 123.5 -54.5Q88 -43 54.5 -9.5Q21 24 9.5 59.5Q-2 95 15 111Q17 114 22 116L21 117L165 182L246 101L181 -43Z" fill="#b52e04" />
<path d="M133 199Q139 210 166.0 196.5Q193 183 220 156Q247 129 260.5 102.0Q274 75 263 69Q251 63 226.5 75.0Q202 87 176.5 112.5Q151 138 139.0 162.5Q127 187 133 199Z" fill="#662113" />
<path d="M140 190Q139 190 137 191Q131 194 134 200L255 432Q258 438 264.5 434.5Q271 431 267 425L147 194Q145 190 140 190ZM261 69Q257 69 255 73Q251 79 258 83L489 203Q495 207 498.5 200.5Q502 194 496 191L264 70Q263 69 261 69Z" fill="#662113" />
<path d="M226 162Q242 146 254.0 128.0Q266 110 269.0 98.0Q272 86 266 81Q255 76 232.5 86.5Q210 97 185.5 121.5Q161 146 150.5 168.5Q140 191 145.5 202.0Q151 213 175.5 200.0Q200 187 226 162Z" fill="#c1694f" />
<path d="M261 428 492 197 266 81 145 202Z" fill="#c1694f" />
<path d="M484 188Q465 169 418.0 193.5Q371 218 326.5 262.5Q282 307 257.5 354.0Q233 401 252 420Q303 470 418.5 354.5Q534 239 484 188Z" fill="#662113" />
<path d="M493 198Q475 179 429.5 200.5Q384 222 335.0 271.0Q286 320 264.5 365.5Q243 411 262 429Q309 477 425.0 361.0Q541 245 493 198Z" fill="#be1931" />
<path d="M435.0 207.5Q389 230 341.5 277.5Q294 325 271.5 371.0Q249 417 266.0 433.5Q283 450 328.5 428.0Q374 406 422.0 358.0Q470 310 492.0 264.5Q514 219 497.5 202.0Q481 185 435.0 207.5Z" fill="#662113" />
<path d="M272 437Q321 465 425.0 361.0Q529 257 501 208Q481 200 439.5 223.0Q398 246 354.0 290.0Q310 334 287.0 375.5Q264 417 272 437Z" fill="#d99e82" />
<path d="M450.0 237.0Q410 259 366.5 302.5Q323 346 301.0 386.0Q279 426 291.5 438.5Q304 451 343.5 429.0Q383 407 427.0 363.0Q471 319 493.0 279.5Q515 240 502.5 227.5Q490 215 450.0 237.0Z" fill="#ffe8b6" />
<path d="M181 117Q175 122 181 127L341 287Q346 293 351.5 287.5Q357 282 351 277L191 117Q188 114 185.5 114.0Q183 114 181 117ZM163 137Q161 137 159 138Q153 142 158 148L293 340Q297 346 303.0 341.5Q309 337 305 332L169 140Q167 137 163 137ZM208 92Q204 92 202 95Q198 101 204 105L396 241Q401 245 405.5 239.0Q410 233 404 229L212 94Q210 92 208 92ZM147 163Q146 163 144 164Q138 167 141 173L262 388Q265 395 271.5 391.5Q278 388 274 382L154 166Q152 163 147 163ZM234 76Q230 76 228 80Q224 86 230 90L446 210Q452 214 455.5 207.5Q459 201 452 198L237 77Q236 76 234 76Z" fill="#662113" />
</g></svg>