<svg xmlns="http://www.w3.org/2000/svg" viewBox="0 0 2048 2048">
<g transform="matrix(1 0 0 -1 0 2048)">
<path d="M242 405H270V334H242Z" fill="#66757f" />
<path d="M171 277V320Q171 332 179.0 340.0Q187 348 199 348H313Q325 348 333.0 340.0Q341 332 341 320V277Z" fill="#99aab5" />
<path d="M341 292Q361 292 377.0 261.0Q393 230 402.0 186.0Q411 142 417.0 98.0Q423 54 425 24L427 -7Q427 -31 410.0 -47.5Q393 -64 370 -64H142Q119 -64 102.0 -47.5Q85 -31 85 -7Q85 -7 95 101Q120 292 171 292Z" fill="#ffac33" />
<path d="M114 391Q115 393 117.5 397.0Q120 401 128.5 411.0Q137 421 147.5 428.5Q158 436 175.5 442.0Q193 448 213 448H299Q312 448 317.5 434.0Q323 420 317.5 405.5Q312 391 299 391H213Q182 391 160.5 387.5Q139 384 134 380L128 377Z" fill="#ccd6dd" />
<path d="M120 385Q153 420 213 420Q251 420 283.0 419.0Q315 418 320 418Q320 407 314.0 399.0Q308 391 299 391H213Q182 391 160.5 387.5Q139 384 134 380L128 377Z" fill="#99aab5" />
<path d="M334 263H178Q171 263 171.0 270.0Q171 277 178 277H334Q341 277 341.0 270.0Q341 263 334 263Z" fill="#ffcc4d" />
<path d="M256 192Q313 124 313 92Q313 69 296.5 52.5Q280 36 256.0 36.0Q232 36 215.5 52.5Q199 69 199 92Q199 106 213.5 131.0Q228 156 242 174Z" fill="#ffe8b6" />
</g></svg>