<svg xmlns="http://www.w3.org/2000/svg" viewBox="0 0 512 512">
<g transform="matrix(1 0 0 -1 0 512)">
<path d="M512 64Q512 40 495.5 23.5Q479 7 455 7H57Q33 7 16.5 23.5Q0 40 0 64V320Q0 344 16.5 360.5Q33 377 57 377H455Q479 377 495.5 360.5Q512 344 512 320Z" fill="#ccd6dd" />
<path d="M170 197Q180 207 190.0 197.0Q200 187 190 177L29 16Q28 15 28 15Q16 23 8 35Q8 35 9 36ZM504 35Q504 35 504 35Q496 23 484 15Q484 15 483 16Q483 16 322 177Q312 187 322.0 197.0Q332 207 342 197Q342 197 503 36Z" fill="#99aab5" />
<path d="M455 377Q479 377 495.5 360.5Q512 344 512 320Q512 320 512 306L305 99Q284 79 255.5 79.0Q227 79 207 99Q207 99 0 305V320Q0 344 16.5 360.5Q33 377 57 377Q57 377 455 377Z" fill="#99aab5" />
<path d="M455 377Q491 377 506 345Q506 345 296 135Q280 118 256.0 118.0Q232 118 216 135Q216 135 6 345Q21 377 57 377Q57 377 455 377Z" fill="#e1e8ed" />
<path d="M384 209Q384 201 382 193Q375 150 335.0 107.0Q295 64 255 50Q216 64 176.0 107.0Q136 150 129 193Q127 201 127 209Q127 239 147.5 259.5Q168 280 198 280Q234 280 255 251Q277 280 313 280Q342 280 363.0 259.5Q384 239 384 209Z" fill="#dd2e44" />
</g></svg>