<svg xmlns="http://www.w3.org/2000/svg" viewBox="0 0 512 512">
<g transform="matrix(1 0 0 -1 0 512)">
<path d="M59 -17Q66 -21 73 -21Q85 -21 93.5 -13.0Q102 -5 102.0 7.0Q102 19 93.5 27.5Q85 36 73.5 36.0Q62 36 53.5 27.5Q45 19 45 7Q45 0 49 -7L4 -52L16 50L144 149L216 78L116 -50L15 -62Z" fill="#99aab5" />
<path d="M320 373 379 432Q392 444 409.0 444.0Q426 444 439 432L498 373Q510 360 510.0 343.0Q510 326 498 313L439 254Q426 242 409.0 242.0Q392 242 379 254L320 313Q308 326 308.0 343.0Q308 360 320 373Z" fill="#66757f" />
<path d="M135 188 380 432 498 314 254 69Q242 57 224.5 57.0Q207 57 195 69L135 128Q123 141 123.0 158.0Q123 175 135 188Z" fill="#31373d" />
<path d="M248 301 279 331 397 212 367 182Z" fill="#66757f" />
</g></svg>