<svg xmlns="http://www.w3.org/2000/svg" viewBox="0 0 512 512">
<g transform="matrix(1 0 0 -1 0 512)">
<path d="M508 342Q518 331 508 321L171 -16Q161 -26 150 -16Q147 -14 141.0 -15.0Q135 -16 123.5 -20.0Q112 -24 101.0 -29.0Q90 -34 77.0 -40.0Q64 -46 55.0 -51.0Q46 -56 38.0 -60.0Q30 -64 29 -64L0 -34Q0 -34 5.5 -23.5Q11 -13 16.5 -2.0Q22 9 29.5 25.0Q37 41 41.5 52.5Q46 64 48.5 74.5Q51 85 48 86Q38 97 48 107L385 444Q395 454 406 444Z" fill="#dd2e44" />
<path d="M59 117 376 434 498 312 181 -5Z" fill="#ea596e" />
<path d="M335 393 355 414 478 291 457 271ZM79 138 100 158 222 36 202 15Z" fill="#292f33" />
<path d="M324.5 312.5Q366 331 382.5 315.0Q399 299 380.0 257.5Q361 216 318.5 173.5Q276 131 234.5 112.5Q193 94 177.0 110.0Q161 126 179.5 167.5Q198 209 240.5 251.5Q283 294 324.5 312.5Z" fill="#be1931" />
</g></svg>