<svg xmlns="http://www.w3.org/2000/svg" viewBox="0 0 512 512">
<g transform="matrix(1 0 0 -1 0 512)">
<path d="M85.5 7.0Q75 -9 56.5 -27.5Q38 -46 21.5 -56.5Q5 -67 1.0 -63.0Q-3 -59 7.5 -42.5Q18 -26 36.5 -7.5Q55 11 71.0 21.5Q87 32 91.5 27.5Q96 23 85.5 7.0Z" fill="#c1694f" />
<path d="M92 28 122 -3Q102 -18 70 -35L31 -53L21 -43L11 -33Q16 -18 29 6Q37 20 45.0 33.0Q53 46 57 52L61 58Z" fill="#ffcc4d" />
<path d="M327 151Q308 133 303 138L273 108Q244 80 186.5 35.5Q129 -9 122 -3L92 28L61 58Q55 65 99.5 122.5Q144 180 172 209L202 239Q197 244 215 263Q227 275 256.0 300.0Q285 325 333.0 363.0Q381 401 424.0 419.0Q467 437 484.0 420.0Q501 403 483.0 360.0Q465 317 427.0 269.0Q389 221 364.0 192.0Q339 163 327 151Z" fill="#31373d" />
<path d="M327 151Q308 133 303 138L253 189L202 239Q197 244 215 263Q218 266 227 274L338 163Q330 154 327 151Z" fill="#ffcc4d" />
<path d="M444 420Q443 419 442.0 417.0Q441 415 437.5 412.0Q434 409 430.5 406.5Q427 404 423.0 404.0Q419 404 416 408Q406 416 394.5 413.5Q383 411 357 396Q342 387 322.5 373.5Q303 360 291 351L280 342Q278 324 267 313Q255 301 237 304Q225 305 238 323Q241 328 247 334Q272 359 318.5 390.5Q365 422 388 434Q416 448 444 420Z" fill="#ffac33" />
<path d="M411 413Q426 420 439 424L488 375Q484 362 477 347Z" fill="#ffac33" />
</g></svg>