<svg xmlns="http://www.w3.org/2000/svg" viewBox="0 0 512 512">
<g transform="matrix(1 0 0 -1 0 512)">
<path d="M313 420H199Q193 420 189.0 424.0Q185 428 185.0 434.0Q185 440 189.0 444.0Q193 448 199 448H313Q319 448 323.0 444.0Q327 440 327.0 434.0Q327 428 323.0 424.0Q319 420 313 420Z" fill="#292f33" />
<path d="M185 434H213V405H185ZM299 434H327V405H299ZM85 107V192Q85 198 89.5 202.0Q94 206 99.5 206.0Q105 206 109.5 202.0Q114 198 114 192V107Q114 101 109.5 96.5Q105 92 99.5 92.0Q94 92 89.5 96.5Q85 101 85 107ZM142 -38H128Q122 -38 118.0 -34.0Q114 -30 114 -24V-10Q114 -4 118.0 0.0Q122 4 128 4H142Q148 4 152.0 0.0Q156 -4 156 -10V-24Q156 -30 152.0 -34.0Q148 -38 142 -38ZM384 -38H370Q364 -38 360.0 -34.0Q356 -30 356 -24V-10Q356 -4 360.0 0.0Q364 4 370 4H384Q390 4 394.0 0.0Q398 -4 398 -10V-24Q398 -30 394.0 -34.0Q390 -38 384 -38Z" fill="#292f33" />
<path d="M185 405H213V320H185ZM299 405H327V320H299Z" fill="#ccd6dd" />
<path d="M384 -21H128Q116 -21 108.0 -13.0Q100 -5 100 7V306Q100 318 108.0 326.0Q116 334 128 334H384Q396 334 404.0 326.0Q412 318 412 306V7Q412 -5 404.0 -13.0Q396 -21 384 -21Z" fill="#4289c1" />
<path d="M370 192H142Q136 192 132.0 196.0Q128 200 128 206V292Q128 297 132.0 301.5Q136 306 142 306H370Q376 306 380.0 301.5Q384 297 384 292V206Q384 200 380.0 196.0Q376 192 370 192ZM370 7H142Q136 7 132.0 11.0Q128 15 128 21V164Q128 169 132.0 173.5Q136 178 142 178H370Q376 178 380.0 173.5Q384 169 384 164V21Q384 15 380.0 11.0Q376 7 370 7Z" fill="#5dadec" />
<path d="M118.0 -60.0Q114 -56 114.0 -50.0Q114 -44 118.0 -40.0Q122 -36 128.0 -36.0Q134 -36 138.0 -40.0Q142 -44 142.0 -50.0Q142 -56 138.0 -60.0Q134 -64 128.0 -64.0Q122 -64 118.0 -60.0ZM374.0 -60.0Q370 -56 370.0 -50.0Q370 -44 374.0 -40.0Q378 -36 384.0 -36.0Q390 -36 394.0 -40.0Q398 -44 398.0 -50.0Q398 -56 394.0 -60.0Q390 -64 384.0 -64.0Q378 -64 374.0 -60.0Z" fill="#292f33" />
<path d="M363 277H149Q142 277 142.0 284.5Q142 292 149 292H363Q370 292 370.0 284.5Q370 277 363 277ZM363 149H149Q142 149 142.0 156.5Q142 164 149 164H363Q370 164 370.0 156.5Q370 149 363 149Z" fill="#2a6797" />
<path d="M164 277H149Q142 277 142.0 284.5Q142 292 149 292H164Q171 292 171.0 284.5Q171 277 164 277ZM164 149H149Q142 149 142.0 156.5Q142 164 149 164H164Q171 164 171.0 156.5Q171 149 164 149Z" fill="#f5f8fa" />
</g></svg>