<svg xmlns="http://www.w3.org/2000/svg" viewBox="0 0 512 512">
<g transform="matrix(1 0 0 -1 0 512)">
<path d="M277 330Q286 319 275 309L227 270L154 358L202 398Q213 407 222 396Z" fill="#ccd6dd" />
<path d="M420 92Q364 19 343 -2Q284 -60 201.0 -60.0Q118 -60 59.5 -1.5Q1 57 1.0 139.5Q1 222 60 281Q69 291 92.5 310.0Q116 329 135 344L154 358L227 270Q182 236 139 199Q115 177 115.5 140.5Q116 104 141.0 79.0Q166 54 202.5 53.5Q239 53 260 78L332 165Z" fill="#be1931" />
<path d="M391 215 458 160Q469 151 460 140L420 92L332 165L371 213Q380 224 391 215Z" fill="#ccd6dd" />
<path d="M337 388Q338 387 338.0 385.5Q338 384 336 384L263 366Q262 366 261 366L260 367Q260 367 260 368Q260 368 260.0 369.0Q260 370 260 370H261L288 397L263 423Q262 424 262.5 425.5Q263 427 264 427L337 445H338Q338 445 338.5 444.5Q339 444 339.5 444.0Q340 444 340.0 443.5Q340 443 340 443Q341 443 341 443Q341 442 340.5 441.5Q340 441 340 441V440L312 413ZM307 412ZM510 233Q511 232 511.0 230.5Q511 229 509 229L441 198H440Q439 197 438 198Q437 199 437 199Q437 200 437.0 200.5Q437 201 437 201V202L460 233L430 254Q429 255 429.0 256.5Q429 258 431 258L499 289H500Q500 289 500.5 289.0Q501 289 501.5 289.0Q502 289 502.0 288.5Q502 288 502 288Q503 288 503 288V287Q503 287 503 286L502 285L480 254ZM475 251Z" fill="#ffac33" />
</g></svg>