<svg xmlns="http://www.w3.org/2000/svg" viewBox="0 0 2048 2048">
<g transform="matrix(1 0 0 -1 0 2048)">
<path d="M455 -7Q455 -31 438.5 -47.5Q422 -64 398 -64H114Q90 -64 73.5 -47.5Q57 -31 57 -7V391Q57 415 73.5 431.5Q90 448 114 448H398Q422 448 438.5 431.5Q455 415 455 391Z" fill="#e6e7e8" />
<path d="M119 279Q131 279 139 276Q144 274 148 272Q165 273 183 276Q229 281 241 283V316Q241 350 233 373Q230 380 230 382Q230 389 235 389Q250 389 263 385Q278 381 278 375Q278 372 276 365Q270 350 270 310V286Q304 289 331 292Q346 293 360 297Q370 299 372 299Q377 299 396 290Q416 278 416 271Q416 266 411 261Q393 242 386 221L374 197Q372 191 368 187L370 186Q381 179 381 174Q381 170 373 169Q337 169 307 165L270 163V99Q270 57 267 31Q264 1 258 -11Q253 -21 250 -21Q248 -21 244 -10Q241 3 241 36V160L216 158Q190 155 176 155Q171 155 167 156Q166 152 164 149Q161 143 158 143Q154 143 150 149Q144 159 143 169L138 205Q135 234 130 245Q128 257 118 268Q114 270 114 271Q114 279 119 279ZM167 176Q205 178 241 181V268Q205 264 171 257Q164 254 159 253Q159 248 160 242Q165 199 167 176ZM270 271V184Q274 184 300 187Q328 191 341 192Q343 195 344 197Q348 210 355 240Q361 263 361 269Q361 277 346 277Q324 277 275 272Q273 272 270 271Z" fill="#be1931" />
</g></svg>