<svg xmlns="http://www.w3.org/2000/svg" viewBox="0 0 2048 2048">
<g transform="matrix(1 0 0 -1 0 2048)">
<path d="M134 157Q127 150 130 164Q141 205 177 264Q191 287 197 290Q212 297 235.5 295.0Q259 293 270 284Q289 266 347 248Q356 245 370.5 241.5Q385 238 393.0 236.0Q401 234 410.5 229.0Q420 224 426 217Q461 179 462 138Q463 128 460.0 115.5Q457 103 453 95L450 87Q450 81 446.0 67.5Q442 54 437.0 38.5Q432 23 431 19Q426 1 431 -26Q432 -35 421.0 -39.5Q410 -44 388 -44Q368 -45 361.0 -42.5Q354 -40 356 -31Q358 -24 352 49Q352 54 343.5 57.0Q335 60 323.0 61.5Q311 63 308 64Q296 68 270.0 74.5Q244 81 242 77Q238 70 234 11Q234 3 235.5 -9.0Q237 -21 236 -28Q232 -48 179 -45Q162 -45 157.5 -40.0Q153 -35 158 -23Q163 -7 163 41Q163 52 155.5 81.0Q148 110 141 133Z" fill="#662113" />
<path d="M507 46Q514 25 505 25Q498 26 488 41Q484 46 482.0 54.0Q480 62 480 67L479 72Q479 66 475.0 53.0Q471 40 466.5 24.5Q462 9 461 4Q456 -13 460 -40Q461 -49 450.0 -53.5Q439 -58 418 -59Q397 -60 390.0 -57.0Q383 -54 386 -46Q388 -36 383 27Q382 30 379 33Q375 28 373 27L366 41Q365 42 363 42L357 23L349 46L340 32L330 48L322 24L316 55L306 41L299 54L291 27L285 58H284L275 47L269 56Q267 50 264 -4Q263 -11 265.0 -23.5Q267 -36 265 -43Q262 -62 208 -60Q192 -59 187.5 -54.5Q183 -50 187 -38Q192 -22 192 26Q192 48 168 126Q144 98 135 69Q134 63 134.5 56.0Q135 49 137 44L139 38L127 42V19L116 25Q111 10 105 0L102 10Q94 2 86 -5Q48 -34 18 -39Q10 -40 4.0 -21.0Q-2 -2 7 4Q8 5 14.5 8.5Q21 12 24.0 14.0Q27 16 33.0 20.0Q39 24 43.0 28.0Q47 32 52.0 37.5Q57 43 60 50Q79 83 74 149L63 142L71 171Q70 169 66.0 167.5Q62 166 58 165L55 164L68 188L60 196Q75 209 75 220Q76 224 77 227Q78 234 79 241H71L81 264L68 260Q69 263 74.5 269.0Q80 275 84 279L89 283H78Q79 287 83.0 291.0Q87 295 90 298L94 301L79 300Q81 303 88.5 307.0Q96 311 102 314L108 317L96 318Q103 326 120 333Q122 335 124 336Q129 338 139.5 348.0Q150 358 160 360Q175 362 193 352Q204 346 216 335Q224 328 237 326Q237 326 237.5 326.0Q238 326 239 326Q243 326 254.5 333.5Q266 341 271 341L263 327Q266 328 271.5 329.5Q277 331 287.5 333.5Q298 336 301 335L287 323Q307 327 317 319L301 314Q332 312 337 304L319 298Q331 297 336 295L360 287L341 280Q363 265 384 259Q413 250 434 237Q440 236 451.0 234.0Q462 232 465 230L461 223Q481 221 489 209L471 204Q494 192 498 185L481 183Q495 170 497 153L488 160Q491 145 492 123Q493 84 507 46Z" fill="#c1694f" />
<path d="M139 148Q142 151 149.5 148.5Q157 146 164.0 140.0Q171 134 169 130Q154 105 139 88Q110 56 54 64Q34 66 19.5 81.0Q5 96 3 113Q-3 155 28 174Q36 178 38 174Q39 172 36 169Q12 144 29 109Q36 94 58.0 91.0Q80 88 99 96Q109 99 119.0 112.0Q129 125 134 137Z" fill="#da9e82" />
<path d="M139 148Q142 151 149.5 148.5Q157 146 164.0 140.0Q171 134 169 130Q157 109 138 88Q110 59 55 66Q35 69 21.0 82.5Q7 96 5 113Q1 150 26 170Q31 174 32.5 173.0Q34 172 30 167Q8 144 26 107Q33 92 55.5 88.5Q78 85 97 93Q107 96 117.5 110.0Q128 124 134 136Z" fill="#ffe9b7" />
<path d="M146.5 239.0Q142 243 142.0 249.0Q142 255 146.5 259.0Q151 263 156.5 263.0Q162 263 166.5 259.0Q171 255 171.0 249.0Q171 243 166.5 239.0Q162 235 156.5 235.0Q151 235 146.5 239.0Z" fill="#292f33" />
<path d="M221 292Q244 275 254 268Q262 263 263.5 249.5Q265 236 258 227Q239 202 229 182Q218 161 194 167Q187 169 184.0 173.0Q181 177 182 181L183 184Q186 179 194.5 176.5Q203 174 211 180Q217 184 224.5 201.0Q232 218 238 224Q246 234 246.0 245.5Q246 257 241 260Q235 265 228.5 275.5Q222 286 221 292Z" fill="#662113" />
<path d="M432 200Q435 185 431 180Q429 179 427 184L420 213Q429 210 432 200ZM456 182Q462 182 465 170Q469 153 465 149Q464 148 462 153ZM464 120Q472 115 473 102Q474 87 471 85L468 89Q468 90 467 91ZM417 91Q426 83 427 73Q428 59 424 57Q422 55 420 61ZM445 57Q446 56 447.0 54.0Q448 52 450.0 46.5Q452 41 451 37Q449 22 444 22Q442 22 442 27ZM401 185Q410 181 411 168Q412 150 407 149Q405 149 404 155ZM395 123Q396 123 397.0 123.0Q398 123 399.5 119.5Q401 116 400 110Q399 93 394 92Q392 91 392 98Q391 105 392.0 111.0Q393 117 394 120ZM437 141Q444 138 447 125Q450 111 446 108Q445 107 442 112Q442 113 442 115Q439 121 438.0 127.5Q437 134 437 137ZM376 226Q376 227 377.5 227.0Q379 227 381.0 224.5Q383 222 384 217Q388 196 383 196Q381 196 380 202Q377 208 376.5 214.0Q376 220 376 223ZM309 265Q320 266 325 256Q333 242 329 240Q328 239 325 243ZM326 219Q333 217 335 206Q338 191 334 189Q332 189 331 192Q331 192 330 194ZM313 161Q321 152 321 140Q321 128 317 129Q314 129 313 135ZM360 90Q368 89 368 78Q368 63 364 61Q363 60 362 64Q361 65 361 66ZM285 115Q285 114 286.0 112.0Q287 110 288.0 105.0Q289 100 289 95Q288 84 284 84Q282 84 282 91Q281 96 282.0 102.0Q283 108 284 112ZM264 93Q264 92 265.0 90.5Q266 89 267.0 83.5Q268 78 268 73Q267 62 263 62Q261 62 261 69Q260 75 261.0 81.0Q262 87 263 90ZM338 81Q338 80 339.0 78.5Q340 77 341.0 71.5Q342 66 341 61Q340 50 337 50Q335 50 334 57Q334 63 334.5 69.0Q335 75 336 78ZM251 161Q252 160 253.0 157.5Q254 155 255.5 148.5Q257 142 256 137Q255 127 252 126Q251 125 250.5 126.5Q250 128 249 132ZM199 100Q198 105 199.0 108.5Q200 112 201 114L202 115Q206 101 206 89Q207 78 202 88Q200 94 199 100ZM223 62Q223 67 223.5 70.5Q224 74 225 75L226 77Q230 63 231 51Q231 40 227 50Q224 56 223 62ZM205 17Q204 22 205.0 25.0Q206 28 207 29L208 30Q212 18 212 6Q213 -5 208 5Q206 10 205 17ZM281 284Q293 279 296 268Q302 253 298 251Q297 251 294 255ZM280 193Q289 184 290 173Q291 159 287 157Q285 156 284 159Q284 160 284 161ZM357 182Q368 175 370 164Q372 149 368 147Q367 146 366 149Q365 150 365 151ZM337 146Q344 141 345 130Q345 116 341 114Q340 113 339 116Q338 117 338 118ZM103 238Q98 224 93.5 216.5Q89 209 88 216Q88 219 90 224Q92 227 95.0 230.5Q98 234 101 236ZM120 301Q112 292 106 287Q100 283 100 288Q100 291 104 294Q106 297 110.0 298.5Q114 300 117 301ZM98 262Q94 258 93 261Q92 264 96 269Q105 280 115 282Q120 284 114 277Q112 275 106 270Q99 264 98 262ZM137 321Q132 317 132 320Q132 326 139 328L156 332Q145 327 137 321ZM103 206Q96 191 91 182Q87 175 87 180Q86 184 89 191Q92 196 95.0 200.0Q98 204 100 205ZM110 173Q104 158 101 149Q98 142 97 148Q97 152 99 158Q100 162 103.0 166.0Q106 170 108 171ZM134 196Q133 182 132.5 173.0Q132 164 129 170Q128 174 128 178ZM99 130Q92 117 87 109Q84 103 83 107Q82 113 86 118Q88 121 91.5 124.0Q95 127 97 128ZM102 27 107 52Q110 42 110 34Q110 25 104 23Q102 22 102 25Q102 26 102 27ZM63 27Q51 16 42 12Q39 11 39 12Q38 16 46 22Q48 23 49 23ZM59 -6Q58 -13 48 -18Q38 -23 38 -18Q38 -15 43 -14ZM205 326 191 338Q209 336 212.5 329.5Q216 323 214.0 322.0Q212 321 205 326ZM194 291 178 312Q188 309 194 303Q203 296 199 290Q197 288 194 291ZM185 207 179 226Q184 222 188 214Q193 206 188 203Q187 202 186 204Q185 205 185 207ZM207 243 201 262Q206 258 211 250Q215 242 211 239Q209 238 208 240Q207 241 207 243ZM395 222 389 241Q395 237 399 229Q404 221 399 218Q398 217 396 219Q396 220 395 222ZM404 3 402 23Q407 18 409 10Q412 2 408 -2Q406 -3 405 0Q405 1 404 3ZM246 -15 248 5Q252 -1 252 -10Q253 -18 248 -20Q246 -21 246 -18Q245 -17 246 -15ZM157 305Q146 294 142 287Q139 282 138 287Q137 291 139 294Q141 297 145.5 299.5Q150 302 154 304Z" fill="#662113" />
</g></svg>