<svg xmlns="http://www.w3.org/2000/svg" viewBox="0 0 512 512">
<g transform="matrix(1 0 0 -1 0 512)">
<path d="M455 -64H57V-36Q57 -1 88.5 24.5Q120 50 156 50H355Q392 50 423.5 24.5Q455 -1 455 -36Z" fill="#fa743e" />
<path d="M312 402Q366 384 394.5 346.5Q423 309 421 258Q415 78 270 78Q244 78 234.5 78.5Q225 79 208.0 82.0Q191 85 181.0 93.0Q171 101 160 114Q117 127 110 179Q108 191 102.5 214.0Q97 237 95.5 249.0Q94 261 96 293Q101 331 132.5 358.5Q164 386 198 386Q210 402 250.5 406.0Q291 410 312 402Z" fill="#ffac33" />
<path d="M213 107H299V50Q299 32 286.5 19.5Q274 7 256.0 7.0Q238 7 225.5 19.5Q213 32 213 50Z" fill="#ffdc5d" />
<path d="M206 64H207V114H306V64Q287 43 256.0 43.0Q225 43 206 64Z" fill="#f9ca55" />
<path d="M368 253Q384 232 384 178Q384 126 346.5 88.0Q309 50 256.0 50.0Q203 50 165.5 87.5Q128 125 128 178Q128 220 131 231Q141 261 162 274Q178 284 188.0 295.5Q198 307 200 313L202 319Q209 303 233 288Q246 279 281.5 271.5Q317 264 335 244Q342 237 341 245Q341 246 341 251Q340 259 333.5 268.5Q327 278 319 281Q352 277 368 253Z" fill="#ffdc5d" />
<path d="M313 107Q311 103 307.5 98.5Q304 94 289.5 86.0Q275 78 256.0 78.0Q237 78 223.0 85.0Q209 92 204 100L199 107ZM270 142H242Q235 142 235.0 149.0Q235 156 242 156H270Q277 156 277.0 149.0Q277 142 270 142Z" fill="#c1694f" />
<path d="M185 206V220Q185 226 189.0 230.5Q193 235 199.0 235.0Q205 235 209.0 230.5Q213 226 213 220V206Q213 200 209.0 196.0Q205 192 199.0 192.0Q193 192 189.0 196.0Q185 200 185 206ZM299 206V220Q299 226 303.0 230.5Q307 235 313.0 235.0Q319 235 323.0 230.5Q327 226 327 220V206Q327 200 323.0 196.0Q319 192 313.0 192.0Q307 192 303.0 196.0Q299 200 299 206Z" fill="#662113" />
<path d="M380 227Q351 227 322 239Q301 249 269.5 251.5Q238 254 215.0 255.0Q192 256 187 260Q181 266 180.0 278.0Q179 290 183.5 303.0Q188 316 201.0 328.0Q214 340 233 345Q294 362 347 298Q371 269 380 227Z" fill="#ffdc5d" />
<path d="M260 310Q255 308 245.5 305.0Q236 302 211.5 292.0Q187 282 167.0 270.5Q147 259 128.0 241.5Q109 224 104 206Q89 237 89 296Q89 351 134.0 387.5Q179 424 239 424H282Q350 424 390.5 388.5Q431 353 431 296Q431 240 417 209Q407 238 368.0 263.0Q329 288 295 299Z" fill="#e6e7e8" />
<path d="M379 319Q407 305 431 286Q430 270 427 253Q385 293 335 310Q334 310 334 310Q313 304 297 298L260 310Q259 309 256 308Q337 349 418 349Q418 349 419 349Q425 338 428 327Q424 322 418 322Q401 322 379 319ZM92 264Q90 280 89 295Q230 390 373 401Q389 390 402 376Q351 375 299.0 362.0Q247 349 205.0 329.0Q163 309 137.5 294.0Q112 279 92 264ZM93 327Q98 347 115 368Q127 375 144.0 382.5Q161 390 174.5 395.5Q188 401 211.5 410.0Q235 419 248 424H282Q314 424 329 419Q261 407 198.5 381.0Q136 355 93 327Z" fill="#d1d3d4" />
<path d="M355 50Q367 50 379 47Q339 39 288.0 11.0Q237 -17 187 -64H156Q234 13 318 50Z" fill="#dd551f" />
</g></svg>