<svg xmlns="http://www.w3.org/2000/svg" viewBox="0 0 512 512">
<g transform="matrix(1 0 0 -1 0 512)">
<path d="M375 398Q378 398 387.0 402.5Q396 407 399 406Q403 406 412.0 398.0Q421 390 423 388Q423 387 421.0 382.5Q419 378 416.0 373.0Q413 368 412 367Q409 358 391 375Q385 379 381.0 385.0Q377 391 376 394Z" fill="#77b255" />
<path d="M175 403Q222 431 283.5 432.5Q345 434 370 412Q409 378 433 369Q454 361 471.0 339.0Q488 317 496 292Q502 272 503.0 243.5Q504 215 496.5 177.0Q489 139 459.5 98.5Q430 58 382 29Q322 -7 226.0 -27.0Q130 -47 112 -38Q45 -5 17 53Q8 74 3.5 103.0Q-1 132 4.5 171.0Q10 210 27.0 249.0Q44 288 82.0 329.5Q120 371 175 403Z" fill="#ea564b" />
<path d="M246 411Q301 426 340 400Q361 386 350 379Q347 377 342 377Q320 375 297.0 364.0Q274 353 247.0 331.5Q220 310 206.0 297.5Q192 285 163 258Q137 233 115.0 203.5Q93 174 80.5 151.5Q68 129 58.5 110.0Q49 91 43.5 83.0Q38 75 35 80Q24 96 22.5 129.0Q21 162 36.5 210.0Q52 258 86 299Q111 330 135.0 352.0Q159 374 182.5 385.5Q206 397 217.0 401.5Q228 406 246 411Z" fill="#f97253" />
<path d="M402 387Q426 379 449.5 344.0Q473 309 472 276Q472 242 465.5 211.5Q459 181 450.5 162.5Q442 144 433.5 130.5Q425 117 420 111L414 106Q410 120 404.0 143.5Q398 167 389.0 216.0Q380 265 383 286Q385 306 396.5 325.0Q408 344 410 351Q411 360 409.0 369.0Q407 378 405 382Z" fill="#77b255" />
</g></svg>