<svg xmlns="http://www.w3.org/2000/svg" viewBox="0 0 512 512">
<g transform="matrix(1 0 0 -1 0 512)">
<path d="M45 289Q49 302 65 324Q75 339 98.0 360.0Q121 381 128 385Q141 391 148 383Q149 382 159.5 365.0Q170 348 184.0 330.0Q198 312 210 302Q250 273 302 286L322 293Q374 175 383 152Q391 132 392 130Q405 101 437 72Q445 65 454.0 58.0Q463 51 469.5 46.5Q476 42 477 41Q477 41 480.5 38.5Q484 36 487.0 33.5Q490 31 494.0 26.5Q498 22 501.0 18.0Q504 14 506.5 8.0Q509 2 509.5 -4.0Q510 -10 508.0 -17.5Q506 -25 501 -33Q490 -31 470.0 -26.5Q450 -22 396.0 -1.0Q342 20 297 51Q264 74 239.5 100.5Q215 127 187.0 159.0Q159 191 120 221Q92 243 73.5 260.0Q55 277 50 283Z" fill="#c36446" />
<path d="M219 96Q175 147 32 271Q32 272 32 272L44 290Q46 293 48 291Q68 267 99 246Q147 212 209 145Q211 143 227.0 125.5Q243 108 251.0 100.0Q259 92 276.5 76.5Q294 61 313.0 48.0Q332 35 352.0 24.5Q372 14 383.0 9.0Q394 4 415.5 -3.0Q437 -10 443 -13Q461 -20 504 -29Q508 -30 506 -34L505 -40Q493 -40 472.0 -38.0Q451 -36 395.5 -19.5Q340 -3 295 26Q260 48 219 96Z" fill="#803f29" />
<path d="M313 106 309 112Q284 146 258.5 166.0Q233 186 212.5 190.0Q192 194 181.0 193.5Q170 193 162 190L152 187L146 207Q146 207 155 210Q164 213 177.0 214.0Q190 215 213.5 211.0Q237 207 265.5 186.5Q294 166 321 131Q340 140 359 158Q346 194 335 219L302 286L322 293Q340 258 354 227Q368 197 381 158L383 152L378 147Q347 116 320 108Z" fill="#803f29" />
<path d="M131 133Q127 133 71.5 177.0Q16 221 9 230Q-1 239 6 249L31 282Q35 287 38 284Q62 258 88 240Q137 206 199 139Q201 136 217.0 118.5Q233 101 241.5 93.0Q250 85 267.5 69.5Q285 54 304.0 40.5Q323 27 343.5 16.5Q364 6 375.5 1.0Q387 -4 408.5 -11.5Q430 -19 436 -21Q452 -28 469.5 -32.5Q487 -37 496 -38L505 -40Q499 -55 498 -57Q496 -62 490 -62Q463 -61 412 -42Q327 -10 287 19Q250 44 209 90Q163 141 157 142Q154 143 144.0 138.5Q134 134 131 133ZM296 240Q288 240 285 247Q280 258 291 263L325 279Q336 284 341.0 273.0Q346 262 335 256L301 241Q299 240 296 240ZM317 198Q309 198 306 205Q301 216 312 222L346 238Q357 243 362.0 232.0Q367 221 356 216L322 200Q320 198 317 198ZM337 155Q329 155 326 162Q321 173 331 178L363 194Q374 199 379.5 188.5Q385 178 374 172L342 156Q340 155 337 155Z" fill="#292f33" />
</g></svg>