<svg xmlns="http://www.w3.org/2000/svg" viewBox="0 0 512 512">
<g transform="matrix(1 0 0 -1 0 512)">
<path d="M483.5 347.5Q512 319 512.0 278.5Q512 238 483.5 209.5Q455 181 414.5 181.0Q374 181 345.0 209.5Q316 238 316.0 278.5Q316 319 345.0 347.5Q374 376 414.5 376.0Q455 376 483.5 347.5Z" fill="#8899a6" />
<path d="M467 184Q458 175 449 184L320 314Q311 322 320 331L337 348Q345 357 354 348L484 219Q493 210 484 201ZM380 182Q389 174 388.5 162.5Q388 151 379 143L228 13Q213 0 193.5 -2.5Q174 -5 159 4L90 -65L70 -45L140 24Q132 39 134.5 58.0Q137 77 150 92L280 242Q288 251 299.0 251.5Q310 252 319 244Z" fill="#31373d" />
<path d="M57 363 185 306V178Q185 166 172.5 157.5Q160 149 142.5 149.0Q125 149 112.5 157.5Q100 166 100.0 178.0Q100 190 112.5 198.0Q125 206 142 206Q149 206 156 204V276L85 307V220Q85 209 72.5 200.5Q60 192 42.5 192.0Q25 192 12.5 200.5Q0 209 0.0 220.5Q0 232 12.5 240.5Q25 249 43 249Q50 249 57 247ZM256 434H284V292Q284 280 271.5 271.5Q259 263 241.5 263.0Q224 263 211.5 271.5Q199 280 199.0 291.5Q199 303 211.5 311.5Q224 320 242 320Q249 320 256 318Z" fill="#55acee" />
</g></svg>