<svg xmlns="http://www.w3.org/2000/svg" viewBox="0 0 2048 2048">
<g transform="matrix(1 0 0 -1 0 2048)">
<path d="M356 448Q367 448 375.5 439.5Q384 431 384 420V263Q384 249 370 235L278 164H234L142 235Q136 241 132.5 248.0Q129 255 128 259V263V420Q128 431 136.5 439.5Q145 448 156 448Z" fill="#55acee" />
<path d="M171 448H341V213L278 164H234L171 213Z" fill="#e1e8ed" />
<path d="M199 448H313V190L278 164H234L199 190Z" fill="#dd2e44" />
<path d="M311 149Q338 134 354.0 107.5Q370 81 370 50Q370 3 336.5 -30.5Q303 -64 256.0 -64.0Q209 -64 175.5 -30.5Q142 3 142 50Q142 81 158.0 107.5Q174 134 201 149Q199 153 199 156Q199 165 205.5 171.5Q212 178 220 178H292Q300 178 306.5 171.5Q313 165 313 156Q313 153 311 149Z" fill="#ffac33" />
<path d="M196.0 -11.0Q171 14 171.0 49.5Q171 85 196.0 110.0Q221 135 256.0 135.0Q291 135 316.0 110.0Q341 85 341.0 49.5Q341 14 316.0 -11.0Q291 -36 256.0 -36.0Q221 -36 196.0 -11.0Z" fill="#ffd983" />
<path d="M290 -11 256 14 222 -11Q217 -14 212.0 -10.5Q207 -7 209 -1L222 39L188 63Q183 67 185.0 72.5Q187 78 193 78H235L248 118Q250 124 256.0 124.0Q262 124 264 118L277 78H319Q325 78 327.0 72.5Q329 67 324 63L290 39L303 -1Q305 -7 300 -11Q298 -12 295.0 -12.0Q292 -12 290 -11Z" fill="#ffac33" />
</g></svg>