<svg xmlns="http://www.w3.org/2000/svg" viewBox="0 0 2048 2048">
<g transform="matrix(1 0 0 -1 0 2048)">
<path d="M512 -7Q512 -31 495.5 -47.5Q479 -64 455 -64H57Q33 -64 16.5 -47.5Q0 -31 0 -7V391Q0 415 16.5 431.5Q33 448 57 448H455Q479 448 495.5 431.5Q512 415 512 391Z" fill="#292f33" />
<path d="M417.0 353.0Q484 286 484.0 192.0Q484 98 417.0 31.0Q350 -36 256.0 -36.0Q162 -36 95.0 31.0Q28 98 28.0 192.0Q28 286 95.0 353.0Q162 420 256.0 420.0Q350 420 417.0 353.0ZM283.0 219.0Q272 230 256.0 230.0Q240 230 229.0 219.0Q218 208 218.0 192.0Q218 176 229.0 165.0Q240 154 256.0 154.0Q272 154 283.0 165.0Q294 176 294.0 192.0Q294 208 283.0 219.0Z" fill="#ffd983" />
<path d="M196 199 55 214Q63 285 113 335L213 235Q199 220 196 199ZM316 185 457 170Q449 99 399 49L299 149Q313 164 316 185Z" fill="#ffac33" />
<path d="M263 132Q284 135 299 149L399 49Q349 -1 278 -9ZM250 252Q228 249 213 235L113 335Q164 386 235 393Z" fill="#ffe8b6" />
<path d="M512 149Q512 138 503.5 129.5Q495 121 484 121H327Q315 121 307.0 129.5Q299 138 299 149V235Q299 246 307.0 254.5Q315 263 327 263H484Q495 263 503.5 254.5Q512 246 512 235Z" fill="#f5f8fa" />
</g></svg>