<svg xmlns="http://www.w3.org/2000/svg" viewBox="0 0 512 512">
<g transform="matrix(1 0 0 -1 0 512)">
<path d="M412 -7H100Q94 -7 89.5 -3.0Q85 1 85 7V348Q85 354 89.5 358.5Q94 363 100 363H412Q418 363 422.5 358.5Q427 354 427 348V7Q427 1 422.5 -3.0Q418 -7 412 -7Z" fill="#ffac33" />
<path d="M114 334H398V21H114Z" fill="#d99e82" />
<path d="M398 21H114L398 334Z" fill="#ffd983" />
<path d="M128 320H384V36H128Z" fill="#bbddf5" />
<path d="M345 320H384V243L256 36H167Z" fill="#f5f8fa" />
<path d="M398 334H100V348H412ZM114 21 100 7V334H114Z" fill="#662113" />
<path d="M412 7H100L114 21H412ZM412 348V21H398V334Z" fill="#c1694f" />
<path d="M374 372Q400 363 412 363H100Q105 363 114.5 365.5Q124 368 131 370L138 372Q140 381 153 388Q157 390 162.5 390.0Q168 390 172 390L176 389Q180 401 199 408Q206 411 212.5 410.0Q219 409 223 407L228 405Q228 416 236.5 425.0Q245 434 256.0 434.0Q267 434 275.5 425.0Q284 416 284 405Q286 406 289.0 407.0Q292 408 300.0 410.0Q308 412 313 408Q321 405 327.0 400.0Q333 395 335 392L336 389Q351 392 359 388Q365 385 368.5 381.0Q372 377 373 375ZM100 -7H412L374 -13Q372 -18 359 -22Q355 -23 349.5 -23.5Q344 -24 340 -23H336Q332 -30 313 -35Q306 -36 299.5 -35.5Q293 -35 289 -34L284 -33Q284 -39 275.5 -44.5Q267 -50 256.0 -50.0Q245 -50 236.5 -44.5Q228 -39 228 -33Q226 -33 223.0 -34.0Q220 -35 212.0 -36.0Q204 -37 199 -35Q191 -33 185.0 -30.0Q179 -27 177 -25L176 -23Q161 -25 153 -22Q147 -20 143.5 -18.0Q140 -16 139 -14L138 -13Q112 -7 100 -7Z" fill="#ffac33" />
<path d="M140 357Q135 357 135.0 362.5Q135 368 140 368H152Q153 376 160 381Q171 389 195 384Q199 396 213 396Q221 396 231 392Q230 399 233 406Q240 423 254 424Q255 425 256.0 425.0Q257 425 258 424Q272 423 279 406Q282 399 281 392Q291 396 299 396Q313 396 317 384Q341 389 352 381Q359 376 360 368H372Q377 368 377.0 362.5Q377 357 372 357H356Q350 357 350 363Q350 369 346 372Q337 379 315 372Q312 371 310.0 372.5Q308 374 308 377Q307 386 299 386Q287 386 274 373Q270 369 266.5 373.0Q263 377 266 381Q274 388 269 402Q264 414 256.0 414.0Q248 414 243 402Q238 388 246 381Q249 377 245.5 373.0Q242 369 238 373Q225 386 213 386Q205 386 204 377Q204 374 202.0 372.5Q200 371 197 372Q175 379 166 372Q162 369 162 363Q162 357 156 357ZM372 2Q377 2 377.0 -3.0Q377 -8 372 -8H360Q359 -10 357 -12Q347 -20 316 -16Q311 -22 299 -22Q291 -22 281 -20Q280 -27 272.5 -32.0Q265 -37 256.0 -37.0Q247 -37 239.5 -32.0Q232 -27 231 -20Q231 -20 231 -20Q221 -22 213 -22Q201 -22 196 -16Q165 -20 155 -12Q153 -10 152 -8H140Q135 -8 135.0 -3.0Q135 2 140 2H156Q162 2 162 -3Q169 -10 198 -5Q201 -4 202.5 -5.5Q204 -7 204 -10Q211 -12 213 -12Q228 -12 239 -5Q244 -3 246.5 -7.5Q249 -12 244 -15Q241 -16 241 -18Q242 -21 246.5 -23.5Q251 -26 256.0 -26.0Q261 -26 265.5 -23.5Q270 -21 271 -18Q271 -16 268 -15Q263 -12 265.5 -7.5Q268 -3 273 -5Q286 -12 299 -12Q307 -12 308 -9Q308 -7 309 -6Q311 -4 314 -5Q343 -10 350 -4Q350 2 356 2Z" fill="#c1694f" />
</g></svg>