<svg xmlns="http://www.w3.org/2000/svg" viewBox="0 0 2048 2048">
<g transform="matrix(1 0 0 -1 0 2048)">
<path d="M256 -64Q254 -64 250.0 -63.5Q246 -63 236.0 -60.0Q226 -57 218.5 -51.5Q211 -46 205.0 -34.5Q199 -23 199 -7V391Q199 393 199.5 397.0Q200 401 203.0 411.0Q206 421 211.5 428.5Q217 436 228.5 442.0Q240 448 256 448H455Q457 448 461.0 447.5Q465 447 475.0 444.0Q485 441 492.5 435.5Q500 430 506.0 418.5Q512 407 512 391V-7Q512 -9 511.5 -13.0Q511 -17 508.0 -27.0Q505 -37 499.5 -44.5Q494 -52 482.5 -58.0Q471 -64 455 -64Z" fill="#31373d" />
<path d="M228 377H484V7H228ZM185 220Q199 206 199 192Q199 186 195.5 178.5Q192 171 188 168L185 164L114 92Q103 80 87.0 83.5Q71 87 71 107V149H28Q25 149 20.5 150.0Q16 151 8.0 158.0Q0 165 0 178V206Q0 214 3.0 220.0Q6 226 10.0 228.5Q14 231 18.5 232.5Q23 234 26 234L28 235H71V277Q71 297 87.0 300.5Q103 304 114 292Z" fill="#55acee" />
</g></svg>