<svg xmlns="http://www.w3.org/2000/svg" viewBox="0 0 512 512">
<g transform="matrix(1 0 0 -1 0 512)">
<path d="M512 -7Q512 -32 498.0 -46.5Q484 -61 469 -62L455 -64H57Q32 -64 17.5 -50.0Q3 -36 2 -21L0 -7V391Q0 407 6.0 418.5Q12 430 20.0 435.5Q28 441 36.5 444.0Q45 447 51 448H57H455Q457 448 461.0 447.5Q465 447 475.0 444.0Q485 441 492.5 435.5Q500 430 506.0 418.5Q512 407 512 391Z" fill="#f4900c" />
<path d="M173 282Q203 282 223.0 260.5Q243 239 243 207Q243 175 223.5 154.0Q204 133 173 133Q142 133 122.5 154.5Q103 176 103.0 207.5Q103 239 122.5 260.5Q142 282 173 282ZM211 207Q211 227 201.0 240.5Q191 254 173.0 254.0Q155 254 145.0 240.5Q135 227 135 207Q135 188 144.5 174.5Q154 161 172.5 161.0Q191 161 201.0 174.5Q211 188 211 207ZM263 264Q263 270 267.5 275.0Q272 280 279 280H331Q345 280 345.0 266.0Q345 252 331 252H294V222H325Q332 222 336.0 218.0Q340 214 340.0 208.0Q340 202 336.0 198.0Q332 194 325 194H294V150Q294 134 278.5 134.0Q263 134 263 150ZM374 264Q374 270 378.5 275.0Q383 280 390 280H442Q455 280 455.0 266.0Q455 252 442 252H404V222H436Q443 222 447.0 218.0Q451 214 451.0 208.0Q451 202 447.0 198.0Q443 194 436 194H404V150Q404 134 389.0 134.0Q374 134 374 150Z" fill="#ffffff" />
<path d="M270 107H299V21Q299 20 298.5 17.0Q298 14 296.0 6.5Q294 -1 290.0 -6.5Q286 -12 277.0 -16.5Q268 -21 256 -21H85Q84 -21 81.0 -21.0Q78 -21 70.5 -18.5Q63 -16 57.5 -12.0Q52 -8 47.5 0.5Q43 9 43 21V363Q43 364 43.0 367.0Q43 370 45.5 377.5Q48 385 52.0 390.5Q56 396 64.5 400.5Q73 405 85 405H256Q258 405 260.5 405.0Q263 405 270.5 402.5Q278 400 283.5 396.0Q289 392 294.0 383.5Q299 375 299 363V306H270V334H71V50H270Z" fill="#ffffff" />
</g></svg>