<svg xmlns="http://www.w3.org/2000/svg" viewBox="0 0 512 512">
<g transform="matrix(1 0 0 -1 0 512)">
<path d="M506 216Q507 216 508.0 214.5Q509 213 510.5 208.5Q512 204 512 200Q513 189 503 182Q446 168 393 129Q366 108 348 83Q323 48 285.0 20.0Q247 -8 221.5 -19.5Q196 -31 192 -30Q179 -33 171.5 -32.0Q164 -31 161 -29L158 -27L8 152Q-1 163 1.0 175.0Q3 187 14 191Q25 196 40.5 181.5Q56 167 72.0 149.0Q88 131 98 131Q131 128 183.0 150.5Q235 173 255 175Q292 180 330.5 191.0Q369 202 393.5 212.0Q418 222 441.0 229.5Q464 237 480.0 234.5Q496 232 506 216Z" fill="#5c913b" />
<path d="M163 302Q188 336 227.0 361.5Q266 387 292 395L319 403Q331 406 338.0 405.0Q345 404 348 402L351 400L500 225Q514 207 497 192Q493 191 486.0 189.0Q479 187 458.5 178.5Q438 170 419.5 159.5Q401 149 379.0 130.5Q357 112 341 91Q317 58 280.0 30.5Q243 3 218 -8L193 -19Q181 -22 174.0 -21.0Q167 -20 164 -18L161 -16L12 159Q-2 177 15 192Q19 193 25.5 196.0Q32 199 51.5 209.0Q71 219 88.5 231.0Q106 243 127.0 262.0Q148 281 163 302Z" fill="#a7d28b" />
<path d="M257.5 193.5Q235 216 235.0 248.5Q235 281 257.5 304.0Q280 327 312.5 327.0Q345 327 368.0 304.0Q391 281 391.0 248.5Q391 216 368.0 193.5Q345 171 312.5 171.0Q280 171 257.5 193.5Z" fill="#77b255" />
<path d="M183 -6Q170 -6 165 -1L32 155Q24 164 25 173Q26 182 35 189V190Q44 193 61.0 201.5Q78 210 114.0 236.0Q150 262 172 290L175 288L172 290Q195 321 232.0 346.0Q269 371 286.0 378.0Q303 385 313 388Q338 394 347 385L479 228Q486 220 485 210Q484 201 476 194L474 193Q464 191 448.0 185.5Q432 180 395.5 157.5Q359 135 337.0 105.5Q315 76 278.5 47.5Q242 19 225.0 9.5Q208 0 200 -4Q190 -6 183 -6ZM171 4Q172 3 173.5 2.5Q175 2 181.5 1.0Q188 0 197 3Q197 3 198 3Q285 48 331 109Q353 138 388.5 160.5Q424 183 441.5 189.5Q459 196 472 200Q477 204 478 210Q478 216 473 223L341 380Q340 381 338.5 381.5Q337 382 330.5 383.0Q324 384 315 381Q304 377 288.5 371.0Q273 365 236.5 340.5Q200 316 177 286Q156 258 120.5 232.0Q85 206 68.0 197.5Q51 189 39 183Q33 179 32 173Q32 167 37 160Z" fill="#5c913b" />
<path d="M303 133H381L388 125Q365 106 348 82Q332 61 310 40L303 48Z" fill="#ffac33" />
<path d="M381 133Q357 113 341 91Q325 68 303 48L145 235L124 259Q147 280 163 302Q179 324 203 344Z" fill="#ffe8b6" />
<path d="M206 127Q225 105 204 79L211 71Q218 63 210.0 56.0Q202 49 195 57L188 65Q176 58 164.0 56.5Q152 55 148 60Q142 67 148 72Q150 74 163.5 75.5Q177 77 186 85Q194 91 196.0 99.5Q198 108 193 112Q187 119 169.5 114.5Q152 110 137.5 105.5Q123 101 110 113Q93 132 111 156L105 164Q98 172 106.0 179.0Q114 186 121 177L127 170Q153 185 162 174Q168 168 161 162Q159 160 148.5 159.0Q138 158 130 151Q114 138 124 127Q129 120 146.0 125.5Q163 131 177.5 135.5Q192 140 206 127Z" fill="#5c913b" />
<path d="M462 -15Q462 -16 461 -16Q450 -27 434.5 -27.0Q419 -27 408.5 -16.0Q398 -5 398.0 10.0Q398 25 408 37Q408 37 408.0 36.5Q408 36 407 36Q396 25 380.5 24.5Q365 24 354.0 35.0Q343 46 343.0 62.0Q343 78 355 89Q355 90 356 90H355Q344 79 328.5 79.0Q313 79 302.5 89.5Q292 100 292.0 115.5Q292 131 303 143Q303 143 303 143Q304 144 305 145Q306 146 306.5 146.0Q307 146 307 147Q308 147 308.5 147.5Q309 148 311 149Q334 165 369.5 155.5Q405 146 435.0 116.0Q465 86 474.0 50.5Q483 15 468 -8Q466 -10 466 -10Q466 -10 465.5 -11.0Q465 -12 465 -12Q462 -15 462 -15ZM198 270Q198 270 198 270Q187 259 171.5 259.0Q156 259 145.0 270.0Q134 281 134.5 296.0Q135 311 145 323Q145 323 145.0 322.5Q145 322 144 322Q133 310 117.5 310.0Q102 310 91.0 321.0Q80 332 80.0 347.5Q80 363 91 375Q92 375 92 375V376Q81 365 65.5 365.0Q50 365 39.5 375.5Q29 386 29.0 401.5Q29 417 40 428H39Q40 428 40 429Q40 429 43 432Q44 432 44.5 432.5Q45 433 46 434Q46 434 48 435Q71 450 106.5 441.0Q142 432 171.5 402.0Q201 372 210.5 336.5Q220 301 205 278Q203 276 203.0 275.5Q203 275 202.5 274.5Q202 274 201 274Q199 271 199 271Z" fill="#e1e8ed" />
<path d="M303 89Q289 103 293 123Q297 115 306.0 108.0Q315 101 329.0 99.5Q343 98 359 109Q359 99 351 85Q339 78 325.5 79.0Q312 80 303 89ZM406 35Q395 24 380.0 24.0Q365 24 354 35Q337 51 346 74Q354 52 377.0 44.0Q400 36 415 50Q413 44 406 35ZM461 -17Q450 -27 434.5 -27.0Q419 -27 408 -17Q393 -1 400 21Q408 6 427.0 -4.0Q446 -14 470 -4Q470 -4 469.0 -5.5Q468 -7 468 -8Q467 -10 466 -10Q466 -11 465.5 -11.5Q465 -12 465 -13Q462 -15 462 -16ZM39 375Q25 390 30 410Q33 401 42.5 394.5Q52 388 66.0 386.0Q80 384 95 396Q95 385 87 372Q76 364 62.5 365.0Q49 366 39 375ZM143 321Q132 310 116.5 310.0Q101 310 91 321Q74 338 83 361Q91 339 114.0 331.0Q137 323 152 336Q150 330 143 321ZM198 270Q187 259 171.5 259.0Q156 259 145 270Q129 285 137 307Q145 293 164.0 282.5Q183 272 207 283Q207 282 206.0 280.5Q205 279 205 278Q203 276 203 276Q203 275 202.5 274.5Q202 274 201 274Q199 271 199 271Z" fill="#ccd6dd" />
</g></svg>