<svg xmlns="http://www.w3.org/2000/svg" viewBox="0 0 2048 2048">
<g transform="matrix(1 0 0 -1 0 2048)">
<path d="M454 108Q484 86 484 50Q484 27 470.5 9.0Q457 -9 436 -17Q412 -64 370 -64H142Q106 -64 82 -28Q64 -19 53.5 -2.0Q43 15 43 36Q43 53 51 69Q28 90 28 121Q28 144 42.0 162.5Q56 181 77 188Q85 206 94.0 221.0Q103 236 108 243L114 249L199 363H313L398 249Q403 244 411.5 233.5Q420 223 435.0 186.0Q450 149 454 108ZM235 369Q225 363 213 363Q196 363 176.0 382.5Q156 402 156 420Q156 423 157.0 427.5Q158 432 165.0 440.0Q172 448 185 448Q190 448 198.0 441.0Q206 434 213 434Q219 434 229.5 441.0Q240 448 256.0 448.0Q272 448 282.5 441.0Q293 434 299 434Q306 434 314.0 441.0Q322 448 327 448Q340 448 347.0 441.0Q354 434 355 427L356 420Q356 402 336.0 382.5Q316 363 299 363Q287 363 277 369Q267 363 256.0 363.0Q245 363 235 369Z" fill="#fdd888" />
<path d="M327 348H185Q179 348 175.0 352.5Q171 357 171.0 363.0Q171 369 175.0 373.0Q179 377 185 377H327Q333 377 337.0 373.0Q341 369 341.0 363.0Q341 357 337.0 352.5Q333 348 327 348Z" fill="#bf6952" />
<path d="M340 99Q340 72 322.5 55.0Q305 38 277 33Q278 33 278 33V13Q278 5 271.5 -1.0Q265 -7 256.5 -7.0Q248 -7 242.0 -1.0Q236 5 236 13V33Q208 37 189.5 49.0Q171 61 171 73Q171 80 175.5 84.5Q180 89 186 89Q191 89 212.5 76.0Q234 63 258 63Q278 63 290.0 72.0Q302 81 302 92Q302 107 283.0 118.0Q264 129 241.0 136.0Q218 143 199.0 158.0Q180 173 180 194Q180 217 196.0 232.5Q212 248 236 253V272Q236 280 242.0 286.0Q248 292 256.5 292.0Q265 292 271.0 286.0Q277 280 277 272V254Q300 250 317.0 240.0Q334 230 334 217Q334 202 317 202Q311 202 294.5 213.5Q278 225 258 225Q241 225 229.5 217.5Q218 210 218 197Q218 184 237.0 174.0Q256 164 279.0 157.5Q302 151 321.0 135.5Q340 120 340 99Z" fill="#67757f" />
</g></svg>