<svg xmlns="http://www.w3.org/2000/svg" viewBox="0 0 2048 2048">
<g transform="matrix(1 0 0 -1 0 2048)">
<path d="M49.0 137.0Q28 155 19.5 186.0Q11 217 20.5 243.0Q30 269 51.5 275.0Q73 281 94.5 263.0Q116 245 124.5 214.0Q133 183 123.5 157.0Q114 131 92.0 125.0Q70 119 49.0 137.0Z" fill="#d79e84" />
<path d="M464.5 137.0Q443 119 421.5 125.0Q400 131 390.5 157.0Q381 183 389.0 214.0Q397 245 418.5 263.0Q440 281 461.5 275.0Q483 269 492.5 243.0Q502 217 494.0 186.0Q486 155 464.5 137.0Z" fill="#d79e84" />
<path d="M270 -64H242Q167 -64 110.0 -13.5Q53 37 53 112Q53 138 58.5 160.0Q64 182 70 191L75 200Q68 229 68 258Q68 323 125.5 371.5Q183 420 256 420Q326 420 385.0 367.5Q444 315 444 258Q444 245 442.5 230.5Q441 216 439 208L437 200Q459 170 459 112Q459 37 402.0 -13.5Q345 -64 270 -64Z" fill="#bf6952" />
<path d="M427 220Q427 169 384 139Q396 111 396 81Q396 22 355.5 -14.0Q315 -50 256.0 -50.0Q197 -50 156.5 -14.0Q116 22 116 81Q116 111 128 139Q85 169 85 220Q85 261 114.5 290.5Q144 320 186 320Q227 320 256 292Q285 320 326 320Q368 320 397.5 290.5Q427 261 427 220Z" fill="#d79e84" />
<path d="M162.5 173.5Q153 187 153.0 206.0Q153 225 162.5 238.5Q172 252 185.0 252.0Q198 252 207.5 238.5Q217 225 217.0 206.0Q217 187 207.5 173.5Q198 160 185.0 160.0Q172 160 162.5 173.5ZM304.5 173.5Q295 187 295.0 206.0Q295 225 304.5 238.5Q314 252 327.0 252.0Q340 252 349.5 238.5Q359 225 359.0 206.0Q359 187 349.5 173.5Q340 160 327.0 160.0Q314 160 304.5 173.5Z" fill="#292f33" />
<path d="M168 34Q164 43 169.5 51.5Q175 60 186 60H326Q337 60 342.5 51.5Q348 43 344 34Q334 11 310.0 -3.0Q286 -17 256.0 -17.0Q226 -17 202.0 -3.0Q178 11 168 34ZM221.0 111.0Q217 115 217.0 121.0Q217 127 221.0 131.0Q225 135 231.0 135.0Q237 135 241.0 131.0Q245 127 245.0 121.0Q245 115 241.0 111.0Q237 107 231.0 107.0Q225 107 221.0 111.0ZM271.0 111.0Q267 115 267.0 121.0Q267 127 271.0 131.0Q275 135 281.0 135.0Q287 135 291.0 131.0Q295 127 295.0 121.0Q295 115 291.0 111.0Q287 107 281.0 107.0Q275 107 271.0 111.0Z" fill="#642116" />
<path d="M322 446Q308 446 296.5 434.0Q285 422 280 411L276 399Q276 399 235 389Q200 385 209 407Q211 410 214 414Q227 435 254.5 443.0Q282 451 302 448Z" fill="#bf6952" />
</g></svg>