<svg xmlns="http://www.w3.org/2000/svg" viewBox="0 0 512 512">
<g transform="matrix(1 0 0 -1 0 512)">
<path d="M512 -7Q512 -31 495.5 -47.5Q479 -64 455 -64H57Q33 -64 16.5 -47.5Q0 -31 0 -7V391Q0 415 16.5 431.5Q33 448 57 448H455Q479 448 495.5 431.5Q512 415 512 391Z" fill="#226699" />
<path d="M205 411Q226 411 236 391Q220 351 184.5 304.0Q149 257 116 227Q115 228 115 228Q105 248 101.0 260.5Q97 273 99.0 296.0Q101 319 116 342Q137 374 161.0 392.5Q185 411 205 411ZM270 237Q258 210 226.5 174.5Q195 139 156 118Q131 173 174 229Q214 283 238 283Q266 283 270 237Z" fill="#ffcc4d" />
<path d="M320 236Q267 207 211 142Q233 148 247 139Q270 125 270 78Q270 72 266.0 68.0Q262 64 256.0 64.0Q250 64 246.0 68.0Q242 72 242 78Q242 109 233 115Q224 120 189 100Q181 96 177 94Q176 93 173 93Q137 44 111.5 -3.5Q86 -51 85 -64H57Q41 -64 27 -55Q12 29 12 107Q5 108 1 115Q1 115 0.5 116.0Q0 117 0 118V179Q7 169 13 155Q18 240 44 297Q50 310 63.0 304.5Q76 299 70 286Q25 186 47 5Q60 119 116 227Q163 315 236 391Q236 391 240.0 395.0Q244 399 246 401Q256 411 266.0 401.0Q276 391 266 381Q181 296 131.5 193.5Q82 91 73 -18Q104 48 156 118Q213 194 270 237Q288 251 306 261Q318 268 325.0 255.5Q332 243 320 236Z" fill="#77b255" />
<path d="M350.0 286.0Q327 309 327.0 341.5Q327 374 350.0 397.0Q373 420 405.5 420.0Q438 420 461.0 397.0Q484 374 484.0 341.5Q484 309 461.0 286.0Q438 263 405.5 263.0Q373 263 350.0 286.0Z" fill="#ffd983" />
<path d="M420 50Q434 50 444.5 39.5Q455 29 455 14Q455 3 448 -7H391H334H277Q270 3 270 14Q270 29 280.5 39.5Q291 50 306 50Q299 59 299 71Q299 86 309.0 96.5Q319 107 334 107Q327 116 327 128Q327 143 337.5 153.5Q348 164 362.5 164.0Q377 164 387.5 153.5Q398 143 398 128Q398 116 391 107Q406 107 416.5 96.5Q427 86 427 71Q427 59 419 50ZM334 35V36ZM363 50H362H363ZM363 92H362H363ZM391 35V36Z" fill="#e1e8ed" />
<path d="M256 -7H469V-62Q462 -64 455 -64H256Z" fill="#c1694f" />
</g></svg>