<svg xmlns="http://www.w3.org/2000/svg" viewBox="0 0 512 512">
<g transform="matrix(1 0 0 -1 0 512)">
<path d="M11 321Q11 326 12.5 334.5Q14 343 25.0 362.0Q36 381 53 392Q61 397 67.0 391.0Q73 385 69 378Q44 333 53 304Q54 300 57.5 300.0Q61 300 62 303Q70 327 80 342Q84 348 91.0 345.5Q98 343 97 336Q94 309 96 294Q96 287 102.5 284.5Q109 282 114 287Q122 294 126 303Q128 308 134.0 307.5Q140 307 142 302Q145 293 144 281Q143 262 160 252L189 234L172 220L145 239Q130 248 115 242Q103 237 91.0 234.0Q79 231 63.0 232.0Q47 233 36.0 241.0Q25 249 17.5 269.0Q10 289 11 321ZM501 321Q502 289 494.5 269.0Q487 249 476.0 241.0Q465 233 449.0 232.0Q433 231 421.0 234.0Q409 237 397 242Q382 248 367 239L340 220L323 234L352 252Q369 262 368 281Q367 293 370 302Q372 307 378.0 307.5Q384 308 386 303Q390 294 398 287Q403 282 409.5 284.5Q416 287 416 294Q418 309 415 336Q414 343 421.0 345.5Q428 348 432 342Q442 327 450 303Q451 300 454.5 300.0Q458 300 459 304Q468 333 443 378Q439 385 445.0 391.0Q451 397 459 392Q476 381 486.5 363.0Q497 345 499 333ZM278 313Q284 319 286 310L299 263H213L226 310Q228 319 235 313L244 304L251 317Q253 320 256.0 320.0Q259 320 261 317L268 304Z" fill="#6c1a0d" />
<path d="M187 234Q186 236 183.5 239.5Q181 243 176.5 253.5Q172 264 170.0 272.0Q168 280 169.0 289.0Q170 298 177 302Q187 308 200.5 297.0Q214 286 222 272L230 258ZM325 234 282 258Q283 259 284.0 261.0Q285 263 288.5 269.0Q292 275 295.5 279.5Q299 284 304.5 290.0Q310 296 314.5 298.5Q319 301 325.0 303.0Q331 305 335 302Q345 293 343.0 278.0Q341 263 333 248ZM230.5 -3.5Q220 7 220.0 21.5Q220 36 230.5 46.5Q241 57 256.0 57.0Q271 57 281.5 46.5Q292 36 292.0 21.5Q292 7 281.5 -3.5Q271 -14 256.0 -14.0Q241 -14 230.5 -3.5Z" fill="#282f33" />
<path d="M184 224 181 230Q156 269 162 293Q165 303 173 308Q182 313 191 310Q201 307 212.0 295.0Q223 283 228.0 275.0Q233 267 236 261L239 255ZM184 297Q182 297 180 295Q177 293 176 289Q172 275 189 243L220 261Q202 292 187 296Q186 296 184 296ZM328 224 273 255 276 261Q298 303 321 310Q330 313 338.5 308.0Q347 303 350 293Q355 270 331 230ZM292 261 323 243Q340 275 336 289Q335 294 332.0 295.5Q329 297 325 296Q311 292 292 261ZM286.5 -8.5Q274 -21 256.0 -21.0Q238 -21 225.5 -8.5Q213 4 213.0 21.5Q213 39 225.5 51.5Q238 64 256.0 64.0Q274 64 286.5 51.5Q299 39 299.0 21.5Q299 4 286.5 -8.5ZM256 50Q244 50 236.0 41.5Q228 33 228.0 21.5Q228 10 236.0 1.5Q244 -7 256.0 -7.0Q268 -7 276.0 1.5Q284 10 284.0 21.5Q284 33 276.0 41.5Q268 50 256 50Z" fill="#c86349" />
<path d="M356 199Q356 199 356 199Q356 174 339 153Q323 131 329 101Q334 71 334 57Q334 30 314.5 22.0Q295 14 256.0 14.0Q217 14 197.5 22.0Q178 30 178 57Q178 71 183 101Q189 131 173 153Q156 174 156 199Q156 234 185.5 259.0Q215 284 256.0 284.0Q297 284 326.5 259.0Q356 234 356 199Z" fill="#c86349" />
<path d="M205 163Q205 178 219 178Q226 178 229.5 174.5Q233 171 234 167V163V149Q234 134 219 134Q213 134 209.5 137.5Q206 141 205 145V149ZM278 163Q278 178 293 178Q299 178 303.0 174.5Q307 171 307 167V163V149Q307 134 293 134Q286 134 282.5 137.5Q279 141 278 145V149Z" fill="#262b2b" />
<path d="M228 49Q224 48 220.0 53.0Q216 58 214 66Q210 84 219 87Q223 88 227.0 83.0Q231 78 233 71Q238 52 228 49ZM298 66Q298 66 298 66Q295 58 291.0 53.5Q287 49 283 49Q274 52 279 71Q281 78 285.0 83.0Q289 88 293 87Q302 85 298 66Z" fill="#6c1a0d" />
</g></svg>