<svg xmlns="http://www.w3.org/2000/svg" viewBox="0 0 2048 2048">
<g transform="matrix(1 0 0 -1 0 2048)">
<path d="M327 386Q327 370 341.5 352.5Q356 335 376.5 319.5Q397 304 417.5 287.5Q438 271 452.5 247.5Q467 224 467 199Q467 175 457.0 155.0Q447 135 436 135H218Q207 135 197.0 155.0Q187 175 187 199Q187 224 201.5 247.5Q216 271 236.5 287.5Q257 304 277.5 319.5Q298 335 312.5 352.5Q327 370 327 386Z" fill="#f4900c" />
<path d="M498 -33Q498 -48 491.5 -56.0Q485 -64 467 -64H187Q169 -64 162.5 -56.0Q156 -48 156 -33V122Q156 137 162.0 143.0Q168 149 187 149H467Q486 149 492.0 143.0Q498 137 498 122Z" fill="#ffd983" />
<path d="M327 -36Q327 -47 318.5 -55.5Q310 -64 299 -64H43Q31 -64 22.5 -55.5Q14 -47 14 -36V-21Q14 -10 22.5 -1.5Q31 7 43 7H299Q310 7 318.5 -1.5Q327 -10 327 -21Z" fill="#ffd983" />
<path d="M370 36V-64H284V36Q284 65 299.0 86.0Q314 107 327.5 107.0Q341 107 355.5 86.0Q370 65 370 36ZM256 2V-64H199V2Q199 22 209.0 36.0Q219 50 228.0 50.0Q237 50 246.5 36.0Q256 22 256 2ZM455 2V-64H398V2Q398 22 408.0 36.0Q418 50 427.0 50.0Q436 50 445.5 36.0Q455 22 455 2Z" fill="#662113" />
<path d="M128 -36Q128 -47 119.5 -55.5Q111 -64 100 -64H71Q59 -64 51.0 -55.5Q43 -47 43 -36V334Q43 346 51.0 354.5Q59 363 71 363H100Q111 363 119.5 354.5Q128 346 128 334Z" fill="#ffd983" />
<path d="M85 443Q85 432 105.0 408.0Q125 384 125 363Q125 353 122.5 343.5Q120 334 117 334H54Q51 334 48.0 343.5Q45 353 45 363Q45 384 65.0 408.0Q85 432 85 443Z" fill="#f4900c" />
<path d="M128 263H43Q37 263 32.5 267.0Q28 271 28.0 277.0Q28 283 32.5 287.5Q37 292 43 292H128Q134 292 138.0 287.5Q142 283 142.0 277.0Q142 271 138.0 267.0Q134 263 128 263ZM128 320H43Q37 320 32.5 324.0Q28 328 28.0 334.0Q28 340 32.5 344.0Q37 348 43 348H128Q134 348 138.0 344.0Q142 340 142.0 334.0Q142 328 138.0 324.0Q134 320 128 320Z" fill="#ffac33" />
</g></svg>