<svg xmlns="http://www.w3.org/2000/svg" viewBox="0 0 512 512">
<g transform="matrix(1 0 0 -1 0 512)">
<path d="M35.5 227.5Q0 263 0.0 313.0Q0 363 35.5 398.5Q71 434 121.0 434.0Q171 434 206.5 398.5Q242 363 242.0 313.0Q242 263 206.5 227.5Q171 192 121.0 192.0Q71 192 35.5 227.5ZM305.5 227.5Q270 263 270.0 313.0Q270 363 305.5 398.5Q341 434 391.0 434.0Q441 434 476.5 398.5Q512 363 512.0 313.0Q512 263 476.5 227.5Q441 192 391.0 192.0Q341 192 305.5 227.5Z" fill="#99aab5" />
<path d="M172.0 364.0Q196 340 196.0 305.5Q196 271 172.0 246.5Q148 222 113.5 222.0Q79 222 54.5 246.5Q30 271 30.0 305.5Q30 340 54.5 364.0Q79 388 113.5 388.0Q148 388 172.0 364.0ZM457.5 364.0Q482 340 482.0 305.5Q482 271 457.5 246.5Q433 222 398.5 222.0Q364 222 340.0 246.5Q316 271 316.0 305.5Q316 340 340.0 364.0Q364 388 398.5 388.0Q433 388 457.5 364.0Z" fill="#f4abba" />
<path d="M427 192Q427 144 396.0 92.5Q365 41 325.0 10.0Q285 -21 256.0 -21.0Q227 -21 187.0 10.0Q147 41 116.0 92.5Q85 144 85 192Q85 228 101.5 254.5Q118 281 144.5 294.5Q171 308 198.5 314.0Q226 320 256.0 320.0Q286 320 313.5 314.0Q341 308 367.5 294.5Q394 281 410.5 254.5Q427 228 427 192Z" fill="#99aab5" />
<path d="M297 26Q297 10 282.0 -5.5Q267 -21 256.0 -21.0Q245 -21 230.0 -5.5Q215 10 215 26Q215 42 227.5 48.0Q240 54 256.0 54.0Q272 54 284.5 48.0Q297 42 297 26Z" fill="#f4abba" />
<path d="M498 -9Q494 -9 490 -7Q461 10 418.5 16.5Q376 23 357.5 22.0Q339 21 329 19Q323 18 318.5 21.5Q314 25 313.0 31.0Q312 37 315.5 42.0Q319 47 325 47Q338 49 358.0 50.5Q378 52 425.0 44.5Q472 37 505 17Q517 10 510 -2Q506 -9 498 -9Z" fill="#66757f" />
<path d="M455 -52Q448 -52 444 -46Q426 -23 394.5 -6.5Q363 10 348.0 14.0Q333 18 325 19Q319 20 315.5 25.0Q312 30 313.0 35.5Q314 41 319.0 44.5Q324 48 329 47Q341 45 358.0 40.5Q375 36 410.5 17.0Q446 -2 466 -29Q475 -41 464 -49Q460 -52 455 -52ZM14 -9Q6 -9 2 -2Q-5 10 7 17Q40 37 87.0 44.5Q134 52 154.0 50.5Q174 49 187 47Q193 47 196.5 42.0Q200 37 199.0 31.0Q198 25 193.5 21.5Q189 18 183 19Q172 21 154.0 22.0Q136 23 93.5 16.5Q51 10 22 -7Q18 -9 14 -9Z" fill="#66757f" />
<path d="M57 -52Q52 -52 48 -49Q37 -41 46 -29Q66 -2 102.0 17.5Q138 37 154.5 41.0Q171 45 183 47Q188 48 193.0 44.5Q198 41 199.0 35.5Q200 30 196.5 25.0Q193 20 187 19Q178 18 163.5 14.0Q149 10 117.0 -6.5Q85 -23 68 -46Q64 -52 57 -52Z" fill="#66757f" />
<path d="M171 149Q171 153 171.5 157.5Q172 162 179.0 170.0Q186 178 199.0 178.0Q212 178 219.0 171.0Q226 164 227 156L228 149V121Q228 118 227.0 113.0Q226 108 219.0 100.0Q212 92 199.0 92.0Q186 92 179.0 99.5Q172 107 171 114V121ZM284 149Q284 153 285.0 157.5Q286 162 293.0 170.0Q300 178 313.0 178.0Q326 178 333.0 171.0Q340 164 341 156V149V121Q341 118 340.5 113.0Q340 108 333.0 100.0Q326 92 313.0 92.0Q300 92 293.0 99.5Q286 107 285 114L284 121Z" fill="#272b2b" />
</g></svg>