<svg xmlns="http://www.w3.org/2000/svg" viewBox="0 0 2048 2048">
<g transform="matrix(1 0 0 -1 0 2048)">
<path d="M353 447 512 209 430 34H171L0 282Z" fill="#662113" />
<path d="M416 49H177L212 270H259Z" fill="#3d130c" />
<path d="M177 49 25 270H212L250 211Z" fill="#511212" />
<path d="M364 101 188 22 199 45Q203 44 205 44Q223 44 223 54Q223 62 209 64L234 116Q261 124 318 113Q318 105 326 101Q337 97 342 108Q347 107 352 105Z" fill="#ffcc4d" />
<path d="M265.0 93.0Q250 93 250.0 100.5Q250 108 265.0 108.0Q280 108 280.0 100.5Q280 93 265.0 93.0Z" fill="#f4900c" />
<path d="M224 54Q224 44 205 44Q202 44 199 45L209 63Q224 62 224 54ZM367 22 188 -51V-36Q195 -36 200.0 -31.0Q205 -26 205.0 -19.5Q205 -13 200.0 -8.0Q195 -3 188 -3V22L364 101L365 72Q362 74 358 74Q351 74 346.5 69.0Q342 64 342.0 57.5Q342 51 346.5 46.0Q351 41 358 41Q363 41 366 44Z" fill="#f4900c" />
<path d="M263.0 53.0Q254 57 254.0 63.5Q254 70 263.0 74.5Q272 79 285.0 79.0Q298 79 307.0 74.5Q316 70 316.0 63.5Q316 57 307.0 53.0Q298 49 285.0 49.0Q272 49 263.0 53.0Z" fill="#f4900c" />
<path d="M260 282H0L108 447H353Z" fill="#c1694f" />
<path d="M95 257H118V-64H95Z" fill="#f98e00" />
<path d="M106 265Q111 265 116 267H143Q130 247 106 247Q89 247 76 259Q63 272 63 290V322Q63 326 66.0 329.0Q69 332 74 332Q84 332 84 322V288Q84 279 90.5 272.0Q97 265 106 265Z" fill="#f98e00" />
</g></svg>