<svg xmlns="http://www.w3.org/2000/svg" viewBox="0 0 512 512">
<g transform="matrix(1 0 0 -1 0 512)">
<path d="M412 277Q435 261 462.0 247.5Q489 234 500.5 226.5Q512 219 512 206Q512 193 496.0 174.0Q480 155 442.5 120.0Q405 85 398 78Q341 21 256.0 21.0Q171 21 114 78Q103 89 79.0 111.5Q55 134 40.0 148.5Q25 163 12.5 179.5Q0 196 0 206Q0 219 11.5 226.5Q23 234 50.0 247.5Q77 261 100 277Q125 296 150.5 320.0Q176 344 188.5 353.5Q201 363 213 363Q229 363 240.0 355.5Q251 348 256.0 348.0Q261 348 272.0 355.5Q283 363 299 363Q311 363 323.5 353.5Q336 344 361.5 320.0Q387 296 412 277Z" fill="#e75a70" />
<path d="M404 228Q426 220 450.5 217.0Q475 214 486.5 212.5Q498 211 498 206Q498 200 462.5 183.0Q427 166 367.5 150.5Q308 135 256.0 135.0Q204 135 144.5 150.5Q85 166 49.5 183.0Q14 200 14 206Q14 211 25.5 212.5Q37 214 61.5 217.0Q86 220 108 228Q198 257 256.0 257.0Q314 257 404 228Z" fill="#662113" />
<path d="M404 228Q425 220 449.0 217.0Q473 214 484.5 213.0Q496 212 497 208Q470 205 444.5 207.5Q419 210 360.5 213.5Q302 217 256.0 217.0Q210 217 151.5 213.5Q93 210 67.5 207.5Q42 205 15 208Q16 212 27.5 213.0Q39 214 63.0 217.0Q87 220 108 228Q198 257 256.0 257.0Q314 257 404 228Z" fill="#ffffff" />
</g></svg>