<svg xmlns="http://www.w3.org/2000/svg" viewBox="0 0 2048 2048">
<g transform="matrix(1 0 0 -1 0 2048)">
<path d="M202 446Q206 447 209.5 444.0Q213 441 213 436V382Q213 370 202 368L142 356V135Q141 113 120.5 97.0Q100 81 71 81Q42 81 21.0 97.5Q0 114 0.0 137.0Q0 160 21.0 176.0Q42 192 71 192Q86 192 100 187V413Q100 425 111 427ZM500 389Q505 390 508.5 387.0Q512 384 512 379V325Q512 314 500 311L441 299V78Q440 56 419.5 40.0Q399 24 370 24Q340 24 319.5 40.5Q299 57 299.0 80.0Q299 103 319.5 119.0Q340 135 370 135Q385 135 398 130V356Q398 368 410 370Z" fill="#5dadec" />
<path d="M330 303Q334 304 337.5 301.5Q341 299 341 294V240Q341 228 330 226L270 214V-7Q269 -30 248.5 -45.5Q228 -61 199 -61Q170 -61 149.0 -44.5Q128 -28 128.0 -5.5Q128 17 149.0 33.5Q170 50 199 50Q214 50 228 45V271Q228 282 239 285Z" fill="#5dadec" />
</g></svg>