<svg xmlns="http://www.w3.org/2000/svg" viewBox="0 0 2048 2048">
<g transform="matrix(1 0 0 -1 0 2048)">
<path d="M28 -64Q25 -64 20.5 -63.0Q16 -62 8.0 -55.0Q0 -48 0 -36V420Q0 423 1.0 427.5Q2 432 9.0 440.0Q16 448 28 448H484Q496 448 503.0 441.0Q510 434 511 427L512 420V-36Q512 -39 511.0 -43.5Q510 -48 503.0 -56.0Q496 -64 484 -64Z" fill="#31373d" />
<path d="M270 -21V377H370V-21Q370 -36 356 -36H284Q278 -36 274.5 -32.0Q271 -28 271 -25ZM398 377H484V-21Q484 -36 469 -36H412Q406 -36 402.5 -32.0Q399 -28 399 -25L398 -21ZM142 -21V377H242V-21Q242 -36 228 -36H156Q150 -36 146.5 -32.0Q143 -28 143 -25ZM28 -21V377H114V-21Q114 -36 100 -36H43Q36 -36 32.5 -32.0Q29 -28 29 -25Z" fill="#e1e8ed" />
<path d="M427 121Q427 119 426.5 117.0Q426 115 422.5 111.0Q419 107 412 107H356Q349 107 345.5 110.5Q342 114 342 117L341 121V405H427ZM299 121Q299 119 298.5 117.0Q298 115 294.5 111.0Q291 107 284 107H228Q221 107 217.5 110.5Q214 114 214 117L213 121V405H299ZM171 121Q171 119 170.5 117.0Q170 115 166.5 111.0Q163 107 156 107H100Q93 107 89.5 110.5Q86 114 86 117L85 121V405H171Z" fill="#31373d" />
</g></svg>