<svg xmlns="http://www.w3.org/2000/svg" viewBox="0 0 2048 2048">
<g transform="matrix(1 0 0 -1 0 2048)">
<path d="M512 192Q512 86 437.0 11.0Q362 -64 256.0 -64.0Q150 -64 75.0 11.0Q0 86 0.0 192.0Q0 298 75.0 373.0Q150 448 256.0 448.0Q362 448 437.0 373.0Q512 298 512 192Z" fill="#77b255" />
<path d="M219 76 197 109Q222 126 255 126Q288 126 313 109L292 77Q276 87 255.0 86.5Q234 86 219 76ZM399 263Q400 261 399 260Q395 240 380.5 227.0Q366 214 347 214Q342 214 337 215Q316 220 304.5 239.0Q293 258 298 281Q298 284 302 284Q304 284 350.0 274.5Q396 265 399 263ZM210 284Q213 284 214 281Q219 258 207.5 239.0Q196 220 175 215Q170 214 164 214Q146 214 131.0 227.0Q116 240 112 260Q112 261 113 263Q115 265 161.0 274.5Q207 284 210 284Z" fill="#292f33" />
<path d="M166 26Q155 26 151 37Q149 43 152.0 48.5Q155 54 161 56Q165 57 171.0 60.0Q177 63 186.5 75.0Q196 87 196.0 102.0Q196 117 186.5 128.5Q177 140 171.0 143.0Q165 146 161 148Q155 150 152.0 155.5Q149 161 151.0 167.0Q153 173 159.0 175.5Q165 178 170 176Q173 175 177.0 173.5Q181 172 190.5 165.5Q200 159 207.0 151.5Q214 144 220.0 130.5Q226 117 226.0 101.5Q226 86 220.0 72.5Q214 59 207.0 51.5Q200 44 190.5 38.0Q181 32 177.0 30.0Q173 28 170 27Q168 26 166 26ZM346 26Q344 26 342 27Q339 28 335.0 30.0Q331 32 321.5 38.0Q312 44 305.0 51.5Q298 59 292.0 72.5Q286 86 286.0 101.5Q286 117 292.0 130.5Q298 144 305.0 151.5Q312 159 321.5 165.5Q331 172 335.0 173.5Q339 175 342 176Q348 178 353.5 175.5Q359 173 361.0 167.0Q363 161 360.0 155.5Q357 150 351 148Q347 146 341.0 143.0Q335 140 325.5 128.5Q316 117 316.0 102.0Q316 87 325.5 75.0Q335 63 341.0 60.0Q347 57 351 56Q357 54 360.0 48.0Q363 42 361 37Q357 26 346 26Z" fill="#3e721d" />
</g></svg>