<svg xmlns="http://www.w3.org/2000/svg" viewBox="0 0 2048 2048">
<g transform="matrix(1 0 0 -1 0 2048)">
<path d="M512 -7Q512 -31 495.5 -47.5Q479 -64 455 -64H57Q33 -64 16.5 -47.5Q0 -31 0 -7V391Q0 415 16.5 431.5Q33 448 57 448H455Q479 448 495.5 431.5Q512 415 512 391Z" fill="#77b255" />
<path d="M306 192 423 75Q434 64 434.0 49.5Q434 35 423.5 24.5Q413 14 398.5 14.0Q384 14 373 24L256 142L138 24Q128 14 113.5 14.0Q99 14 88.5 24.5Q78 35 78.0 49.5Q78 64 88 74L206 192L88 309Q78 319 78.0 334.0Q78 349 88.5 359.5Q99 370 113.5 370.0Q128 370 139 359L256 242L373 359Q383 370 398.0 370.0Q413 370 423.5 359.5Q434 349 434.0 334.0Q434 319 423 309Z" fill="#ffffff" />
</g></svg>