<svg xmlns="http://www.w3.org/2000/svg" viewBox="0 0 512 512">
<g transform="matrix(1 0 0 -1 0 512)">
<path d="M100 121H412Q391 -14 377 -28Q367 -38 329.5 -44.0Q292 -50 256.0 -50.0Q220 -50 182.5 -44.0Q145 -38 135 -28Q129 -22 120.0 15.5Q111 53 105 87Z" fill="#be1931" />
<path d="M363 161Q372 133 367.0 103.5Q362 74 349.5 49.0Q337 24 312.0 8.5Q287 -7 256.0 -7.0Q225 -7 200.0 8.5Q175 24 162.5 49.0Q150 74 145.0 103.5Q140 133 149 161Q159 197 207.5 211.0Q256 225 304.5 211.0Q353 197 363 161Z" fill="#f5f8fa" />
<path d="M350 161Q364 103 337.5 57.5Q311 12 256.0 12.0Q201 12 174.5 57.5Q148 103 162 161Q169 188 197.0 203.0Q225 218 256.0 218.0Q287 218 315.0 203.0Q343 188 350 161Z" fill="#292f33" />
<path d="M310 106Q312 105 303.5 95.0Q295 85 285.0 80.0Q275 75 263 84Q262 85 261 86V69Q261 64 256.0 64.0Q251 64 251 69V86Q250 85 249 84Q237 75 227.0 80.0Q217 85 208.5 95.0Q200 105 203 106Q212 109 228.5 107.5Q245 106 251 99V157Q251 162 256.0 162.0Q261 162 261 157V99Q267 106 283.5 107.5Q300 109 310 106Z" fill="#77b255" />
<path d="M145.5 100.5Q100 109 100.0 121.0Q100 133 145.5 141.0Q191 149 256.0 149.0Q321 149 366.5 141.0Q412 133 412.0 121.0Q412 109 366.5 100.5Q321 92 256.0 92.0Q191 92 145.5 100.5Z" fill="#ea596e" />
<path d="M153.5 106.0Q111 112 111.0 121.0Q111 130 153.5 136.0Q196 142 256.0 142.0Q316 142 358.5 136.0Q401 130 401.0 121.0Q401 112 358.5 106.0Q316 100 256.0 100.0Q196 100 153.5 106.0Z" fill="#662113" />
<path d="M137 109Q135 126 135 138Q135 165 148.0 190.5Q161 216 174.0 238.0Q187 260 187 279Q187 285 178.5 312.0Q170 339 170 356Q170 382 195.0 408.0Q220 434 256.0 434.0Q292 434 317.0 408.0Q342 382 342 356Q342 339 333.5 312.0Q325 285 325 279Q325 260 338.0 238.0Q351 216 364.0 190.5Q377 165 377 138Q377 126 375 109Q332 100 256.0 100.0Q180 100 137 109Z" fill="#dd2e44" />
<path d="M188 102Q161 144 175 192Q179 208 188.0 227.0Q197 246 201.5 256.5Q206 267 204.5 283.5Q203 300 191 320H321Q309 300 307.5 283.5Q306 267 310.5 256.5Q315 246 324.0 227.0Q333 208 337 192Q351 144 324 102Q292 100 256.0 100.0Q220 100 188 102ZM323 371Q311 383 256.0 383.0Q201 383 189 371Q196 392 214.5 406.0Q233 420 256.0 420.0Q279 420 297.5 406.0Q316 392 323 371Z" fill="#f5f8fa" />
<path d="M203 101Q171 137 185 192Q189 209 197.0 225.5Q205 242 208.5 249.5Q212 257 210.5 271.5Q209 286 199 306H313Q303 286 301.5 271.5Q300 257 303.5 249.5Q307 242 315.0 225.5Q323 209 327 192Q341 137 309 101Q283 100 256.0 100.0Q229 100 203 101Z" fill="#292f33" />
<path d="M323 371Q327 359 327 348Q327 319 306.0 298.0Q285 277 256.0 277.0Q227 277 206.0 298.0Q185 319 185 348Q185 359 189 371Q190 373 198.0 376.0Q206 379 215.5 382.0Q225 385 234.0 388.0Q243 391 250 393L256 395Q317 377 323 371Z" fill="#ffd983" />
<path d="M323 371Q327 359 327 349Q311 350 293.5 360.5Q276 371 266 381L256 391Q252 387 245.0 380.0Q238 373 219.5 361.5Q201 350 185 349Q185 359 189 371Q215 398 256.0 398.0Q297 398 323 371Z" fill="#f4900c" />
<path d="M228 341V356Q228 363 235.0 363.0Q242 363 242 356V341Q242 334 235.0 334.0Q228 334 228 341ZM270 341V356Q270 363 277.0 363.0Q284 363 284 356V341Q284 334 277.0 334.0Q270 334 270 341Z" fill="#662113" />
<path d="M256 299Q245 299 234 303Q229 304 230.5 309.0Q232 314 237 313Q249 309 256 309Q268 309 275 313Q280 314 281.5 309.0Q283 304 278 303Q266 299 256 299Z" fill="#dd2e44" />
<path d="M292 144Q294 144 288.5 137.0Q283 130 276.0 127.0Q269 124 261 130Q260 130 259 131V119Q259 116 256.0 116.0Q253 116 253 119V131Q252 130 251 130Q243 124 236.0 127.0Q229 130 223.5 137.0Q218 144 220 144Q226 147 237.0 145.5Q248 144 253 140V179Q253 182 256.0 182.0Q259 182 259 179V140Q264 144 275.0 145.5Q286 147 292 144Z" fill="#77b255" />
<path d="M234 155 229 166 219 171Q211 174 214 182L219 192L214 203Q211 211 219 214L230 218L235 230Q238 237 246 234L256 229L267 234Q271 235 274.0 233.5Q277 232 278 229L283 218L294 213Q301 210 298 203L293 191L298 181Q301 173 293 169L282 165L277 155Q274 147 267 150L256 155L245 150Q241 149 238.0 150.5Q235 152 234 155Z" fill="#ccd6dd" />
<path d="M294 213Q301 210 298 203L293 191Q280 192 271 193Q271 193 271 192Q271 185 265 180L282 165L277 155Q274 147 267 150L256 155V177Q249 177 244 183L229 166L219 171Q211 174 214 182L219 192H241Q241 198 246 203L230 218L235 230Q238 237 246 234L256 229V207Q261 207 265 204Q277 214 282 219L283 218Z" fill="#e1e8ed" />
<path d="M244.5 180.5Q240 185 240.0 192.0Q240 199 244.5 204.0Q249 209 256.0 209.0Q263 209 268.0 204.0Q273 199 273.0 192.0Q273 185 268.0 180.5Q263 176 256.0 176.0Q249 176 244.5 180.5Z" fill="#f4900c" />
</g></svg>