<svg xmlns="http://www.w3.org/2000/svg" viewBox="0 0 2048 2048">
<g transform="matrix(1 0 0 -1 0 2048)">
<path d="M85.0 21.0Q14 92 14.0 192.0Q14 292 85.0 363.0Q156 434 256.0 434.0Q356 434 427.0 363.0Q498 292 498.0 192.0Q498 92 427.0 21.0Q356 -50 256.0 -50.0Q156 -50 85.0 21.0Z" fill="#000000" />
<path d="M337 206Q326 206 326 216Q326 246 368 273Q383 283 388.0 298.0Q393 313 389 326Q382 349 356 349Q327 349 322 328Q318 314 325.0 308.0Q332 302 341 308Q345 310 345 316Q345 321 348.0 324.0Q351 327 355.5 327.0Q360 327 363.0 324.0Q366 321 366 316Q366 298 352 289Q335 279 315 289Q306 295 302.0 307.0Q298 319 301 333Q305 350 319.5 360.5Q334 371 356 371Q397 371 409 332Q416 311 407.5 289.5Q399 268 380 255Q348 234 348 215Q347 206 337 206ZM313 178V107H85Q82 107 77.5 107.5Q73 108 65.0 115.0Q57 122 57 135V149Q57 162 64.0 169.0Q71 176 78 177L85 178ZM384 178Q387 178 392.0 177.0Q397 176 404.5 169.0Q412 162 412 149V135Q412 122 405.0 115.0Q398 108 391 107H384H341V178Z" fill="#ffffff" />
<path d="M75.0 373.0Q150 448 256.0 448.0Q362 448 437.0 373.0Q512 298 512.0 192.0Q512 86 437.0 11.0Q362 -64 256.0 -64.0Q150 -64 75.0 11.0Q0 86 0.0 192.0Q0 298 75.0 373.0ZM484 192Q484 286 417.0 353.0Q350 420 256 420Q172 420 108 365L429 44Q484 108 484 192ZM28 192Q28 98 95.0 31.0Q162 -36 256 -36Q340 -36 404 19L83 340Q28 276 28 192Z" fill="#dd2e44" />
</g></svg>