<svg xmlns="http://www.w3.org/2000/svg" viewBox="0 0 2048 2048">
<g transform="matrix(1 0 0 -1 0 2048)">
<path d="M503 12Q512 0 511.0 -9.5Q510 -19 503 -26L474 -55Q466 -63 456 -63Q444 -63 436 -55L75 306L142 373Z" fill="#8899a6" />
<path d="M427 -50Q424 -50 422 -49Q409 -45 413 -31L442 54Q446 68 459.5 63.5Q473 59 469 45L440 -40Q437 -50 427 -50ZM384 -7Q382 -7 380 -6Q366 -2 371 12L399 97Q403 110 416.5 105.5Q430 101 426 88L397 3Q394 -7 384 -7ZM341 36Q339 36 337 36Q323 41 328 54L356 140Q361 153 374.5 148.5Q388 144 383 131L355 45Q352 36 341 36ZM299 78Q296 78 294 79Q281 83 285 97L314 182Q318 196 331.5 191.5Q345 187 341 173L312 88Q309 78 299 78ZM228 149Q225 149 223 150Q210 155 214 168L243 253Q247 267 260.5 262.5Q274 258 269 244L241 159Q238 149 228 149ZM185 192Q183 192 180 193Q167 197 171 211L200 296Q204 310 217.5 305.5Q231 301 227 287L198 202Q195 192 185 192ZM142 235Q140 235 138 235Q124 240 129 253L157 339Q162 352 175.5 347.5Q189 343 184 330L156 244Q152 235 142 235Z" fill="#66757f" />
<path d="M185 92Q171 107 185 121L327 263Q341 277 356 263L398 220Q412 206 398 192L256 50Q242 36 228 50Z" fill="#ccd6dd" />
<path d="M185 121 213 149 284 78 256 50Q242 36 228 50L185 92Q171 107 185 121Z" fill="#8899a6" />
<path d="M398 192 370 164 299 235 327 263Q341 277 356 263L398 220Q412 206 398 192Z" fill="#e1e8ed" />
<path d="M14 263Q0 277 14 292L156 434Q171 448 185 434L228 391Q242 377 228 363L85 220Q71 206 57 220Z" fill="#ccd6dd" />
<path d="M14 292 43 320 114 249 85 220Q71 206 57 220L14 263Q0 277 14 292Z" fill="#8899a6" />
<path d="M228 363 199 334 128 405 156 434Q171 448 185 434L228 391Q242 377 228 363Z" fill="#e1e8ed" />
</g></svg>