<svg xmlns="http://www.w3.org/2000/svg" viewBox="0 0 2048 2048">
<g transform="matrix(1 0 0 -1 0 2048)">
<path d="M484 263Q484 251 475.5 243.0Q467 235 455 235H370Q358 235 349.5 243.0Q341 251 341 263V292Q341 303 349.5 311.5Q358 320 370 320H455Q467 320 475.5 311.5Q484 303 484 292ZM171 263Q171 251 162.5 243.0Q154 235 142 235H57Q45 235 36.5 243.0Q28 251 28 263V292Q28 303 36.5 311.5Q45 320 57 320H142Q154 320 162.5 311.5Q171 303 171 292Z" fill="#dac8b1" />
<path d="M512 -36Q512 -47 503.5 -55.5Q495 -64 484 -64H28Q17 -64 8.5 -55.5Q0 -47 0 -36V263Q0 275 8.5 283.5Q17 292 28 292H484Q495 292 503.5 283.5Q512 275 512 263Z" fill="#f1dcc1" />
<path d="M313 320H327V-64H185V320H199V348Q199 365 213 373V377Q213 389 221.5 397.0Q230 405 242 405H270Q282 405 290.5 397.0Q299 389 299 377V373Q313 365 313 348Z" fill="#dac8b1" />
<path d="M199 348H228V320H199ZM284 348H313V320H284ZM242 348H270V320H242Z" fill="#55acee" />
<path d="M213 235H242V36H213ZM270 235H299V36H270Z" fill="#3b88c3" />
<path d="M341 206H370V36H341ZM398 206H427V36H398ZM455 206H484V36H455ZM28 206H57V36H28ZM85 206H114V36H85ZM142 206H171V36H142ZM28 21H57V-7H28ZM85 21H114V-7H85ZM142 21H171V-7H142Z" fill="#55acee" />
<path d="M213 21H242V-7H213ZM270 21H299V-7H270Z" fill="#3b88c3" />
<path d="M341 21H370V-7H341ZM398 21H427V-7H398ZM455 21H484V-7H455Z" fill="#55acee" />
<path d="M28 -21H57V-64H28ZM85 -21H114V-64H85ZM142 -21H171V-64H142ZM213 -21H242V-64H213ZM270 -21H299V-64H270ZM341 -21H370V-64H341ZM398 -21H427V-64H398ZM455 -21H484V-64H455Z" fill="#66757f" />
</g></svg>