<svg xmlns="http://www.w3.org/2000/svg" viewBox="0 0 2048 2048">
<g transform="matrix(1 0 0 -1 0 2048)">
<path d="M100 92H412V-36H100ZM100 249H412V121H100ZM100 405H412V263H100Z" fill="#3b88c3" />
<path d="M427 403Q427 398 423.5 394.5Q420 391 415 391H97Q92 391 88.5 394.5Q85 398 85 403V408Q85 413 88.5 416.5Q92 420 97 420H415Q420 420 423.5 416.5Q427 413 427 408ZM427 246Q427 242 423.5 238.5Q420 235 415 235H97Q92 235 88.5 238.5Q85 242 85 246V251Q85 256 88.5 259.5Q92 263 97 263H415Q420 263 423.5 259.5Q427 256 427 251ZM427 104Q427 99 423.5 95.5Q420 92 415 92H97Q92 92 88.5 95.5Q85 99 85 104V109Q85 114 88.5 117.5Q92 121 97 121H415Q420 121 423.5 117.5Q427 114 427 109ZM427 -52Q427 -57 423.5 -60.5Q420 -64 415 -64H97Q92 -64 88.5 -60.5Q85 -57 85 -52V-47Q85 -42 88.5 -39.0Q92 -36 97 -36H415Q420 -36 423.5 -39.0Q427 -42 427 -47Z" fill="#226699" />
<path d="M370 432Q370 427 366.5 423.5Q363 420 357 420H325Q320 420 316.5 423.5Q313 427 313 432V436Q313 441 316.5 444.5Q320 448 325 448H357Q363 448 366.5 444.5Q370 441 370 436Z" fill="#99aab5" />
</g></svg>