<svg xmlns="http://www.w3.org/2000/svg" viewBox="0 0 2048 2048">
<g transform="matrix(1 0 0 -1 0 2048)">
<path d="M113 -48 74 -10Q67 -2 66.0 8.0Q65 18 72 25L142 95Q149 102 159.0 101.0Q169 100 176 92L215 54Q221 47 223.5 43.5Q226 40 225.5 33.5Q225 27 218 20Q210 12 189.5 16.5Q169 21 161 13L153 6Q145 -2 150.0 -22.5Q155 -43 147 -51Q140 -58 133.5 -59.0Q127 -60 123.0 -57.5Q119 -55 113 -48Z" fill="#31373d" />
<path d="M15 8 277 270Q290 263 307.0 272.0Q324 281 337.0 296.0Q350 311 361.5 322.0Q373 333 376 329Q385 321 372.5 307.0Q360 293 343.0 274.0Q326 255 326 239L55 -32Q47 -41 35.0 -41.0Q23 -41 14.5 -32.5Q6 -24 6.0 -12.0Q6 0 15 8Z" fill="#67757f" />
<path d="M218.0 339.5Q218 372 241.0 395.0Q264 418 296.0 418.0Q328 418 351.0 395.0Q374 372 374.0 339.5Q374 307 351.0 284.0Q328 261 296.0 261.0Q264 261 241.0 284.0Q218 307 218.0 339.5ZM296.0 290.0Q317 290 331.5 304.5Q346 319 346.0 339.5Q346 360 331.5 374.5Q317 389 296.0 389.0Q275 389 260.5 374.5Q246 360 246.0 339.5Q246 319 260.5 304.5Q275 290 296.0 290.0Z" fill="#31373d" />
<path d="M348.0 369.5Q348 402 371.0 425.0Q394 448 426.5 448.0Q459 448 482.0 425.0Q505 402 505.0 369.5Q505 337 482.0 314.0Q459 291 426.5 291.0Q394 291 371.0 314.0Q348 337 348.0 369.5ZM426.5 320.0Q447 320 461.5 334.5Q476 349 476.0 369.5Q476 390 461.5 404.5Q447 419 426.5 419.0Q406 419 391.5 404.5Q377 390 377.0 369.5Q377 349 391.5 334.5Q406 320 426.5 320.0Z" fill="#31373d" />
<path d="M318.0 238.5Q318 271 341.0 294.0Q364 317 396.5 317.0Q429 317 452.0 294.0Q475 271 475.0 238.5Q475 206 452.0 183.5Q429 161 396.5 161.0Q364 161 341.0 183.5Q318 206 318.0 238.5ZM396.5 189.0Q417 189 431.5 203.5Q446 218 446.0 239.0Q446 260 431.5 274.5Q417 289 396.5 289.0Q376 289 361.5 274.5Q347 260 347.0 239.0Q347 218 361.5 203.5Q376 189 396.5 189.0Z" fill="#31373d" />
<path d="M276 189Q284 180 284.0 168.5Q284 157 275.5 148.5Q267 140 255.5 140.0Q244 140 236 148L195 189Q187 197 187.0 209.0Q187 221 195.5 229.0Q204 237 215.5 237.0Q227 237 236 229Z" fill="#67757f" />
<path d="M360.0 310.0Q356 314 356.0 320.0Q356 326 360.0 330.0Q364 334 370.0 334.0Q376 334 380.0 330.0Q384 326 384.0 320.0Q384 314 380.0 310.0Q376 306 370.0 306.0Q364 306 360.0 310.0Z" fill="#31373d" />
</g></svg>