<svg xmlns="http://www.w3.org/2000/svg" viewBox="0 0 2048 2048">
<g transform="matrix(1 0 0 -1 0 2048)">
<path d="M206.5 351.0Q186 368 186.0 391.5Q186 415 206.5 431.5Q227 448 256.0 448.0Q285 448 305.5 431.5Q326 415 326.0 391.5Q326 368 305.5 351.0Q285 334 256.0 334.0Q227 334 206.5 351.0Z" fill="#6d6e71" />
<path d="M435 93Q420 20 371.0 -22.0Q322 -64 256.0 -64.0Q190 -64 141.0 -22.0Q92 20 77 93Q63 94 53.0 110.0Q43 126 43.0 149.0Q43 172 52.5 188.5Q62 205 76 206Q91 286 141.0 338.5Q191 391 256.0 391.0Q321 391 371.0 338.5Q421 286 436 206Q450 205 459.5 188.5Q469 172 469.0 149.0Q469 126 459.0 110.0Q449 94 435 93Z" fill="#ffdc5d" />
<path d="M356 178H313Q307 178 303.0 182.0Q299 186 299.0 192.0Q299 198 303.0 202.0Q307 206 313 206H356Q361 206 365.5 202.0Q370 198 370.0 192.0Q370 186 365.5 182.0Q361 178 356 178ZM199 178H156Q151 178 146.5 182.0Q142 186 142.0 192.0Q142 198 146.5 202.0Q151 206 156 206H199Q205 206 209.0 202.0Q213 198 213.0 192.0Q213 186 209.0 182.0Q205 178 199 178Z" fill="#808285" />
<path d="M204 11Q193 20 203 31Q212 41 222 32Q232 26 256 26Q282 26 290 32Q300 42 309.5 31.0Q319 20 308 11Q293 -2 255.5 -2.0Q218 -2 204 11Z" fill="#df1f32" />
<path d="M270 50H242Q236 50 232.0 54.0Q228 58 228.0 64.0Q228 70 232.0 74.0Q236 78 242 78H270Q276 78 280.0 74.0Q284 70 284.0 64.0Q284 58 280.0 54.0Q276 50 270 50Z" fill="#c1694f" />
<path d="M313 121V149Q313 155 317.0 159.5Q321 164 327.0 164.0Q333 164 337.0 159.5Q341 155 341 149V121Q341 115 337.0 111.0Q333 107 327.0 107.0Q321 107 317.0 111.0Q313 115 313 121ZM171 121V149Q171 155 175.0 159.5Q179 164 185.0 164.0Q191 164 195.0 159.5Q199 155 199 149V121Q199 115 195.0 111.0Q191 107 185.0 107.0Q179 107 175.0 111.0Q171 115 171 121Z" fill="#662113" />
<path d="M469 277Q479 235 472.5 200.5Q466 166 453 143L441 121Q441 145 431.0 173.0Q421 201 396.0 225.0Q371 249 338 249Q318 249 302.5 255.0Q287 261 278.5 269.0Q270 277 264.5 285.5Q259 294 258 300L256 306Q255 303 254.0 299.5Q253 296 246.5 286.0Q240 276 231.5 268.5Q223 261 207.0 255.0Q191 249 171 249Q138 249 114.0 225.0Q90 201 80.5 173.0Q71 145 71 121Q70 122 68.0 125.0Q66 128 61.5 137.5Q57 147 52.5 157.0Q48 167 44.0 181.5Q40 196 38.0 210.5Q36 225 37.0 243.0Q38 261 43 277Q53 312 73.0 338.5Q93 365 116.0 379.0Q139 393 160.0 399.0Q181 405 199 405Q212 405 226.0 401.5Q240 398 248 395L256 391Q284 405 310 405Q329 405 350.5 399.0Q372 393 395.5 379.0Q419 365 439.0 339.0Q459 313 469 277Z" fill="#808285" />
<path d="M445.0 96.5Q441 101 441.0 107.0Q441 113 445.0 117.0Q449 121 455.0 121.0Q461 121 465.0 117.0Q469 113 469.0 107.0Q469 101 465.0 96.5Q461 92 455.0 92.0Q449 92 445.0 96.5ZM47.0 96.5Q43 101 43.0 107.0Q43 113 47.0 117.0Q51 121 57.0 121.0Q63 121 67.0 117.0Q71 113 71.0 107.0Q71 101 67.0 96.5Q63 92 57.0 92.0Q51 92 47.0 96.5Z" fill="#aa8dd8" />
</g></svg>