<svg xmlns="http://www.w3.org/2000/svg" viewBox="0 0 2048 2048">
<g transform="matrix(1 0 0 -1 0 2048)">
<path d="M188 107Q204 123 230.5 119.5Q257 116 280 99Q301 83 310.0 57.5Q319 32 307 15Q294 -3 267.0 -5.0Q240 -7 215 9Q191 26 182.0 55.5Q173 85 188 107ZM252 402Q303 396 291 321Q287 291 267.5 268.5Q248 246 225 247Q202 248 191.5 275.5Q181 303 185 336Q189 366 207.5 386.0Q226 406 252 402Z" fill="#909b50" />
<path d="M18 -20Q17 -20 15 -19Q7 -15 10 -7Q51 92 134 136Q157 148 192 184Q209 202 217 208Q242 226 310 274Q317 279 322.0 271.5Q327 264 320 259Q238 201 227 193Q221 189 205 172Q167 133 143 120Q65 79 27 -14Q24 -20 18 -20Z" fill="#c1694f" />
<path d="M107 100Q99 100 98 108Q95 147 97 171Q97 180 106.0 179.0Q115 178 114 169Q113 151 116 109Q117 100 108 100ZM193 94Q190 94 188 96L184 98Q151 120 139 119Q131 118 130.0 127.0Q129 136 137 137Q155 139 194 113L197 111Q205 106 200 99Q197 94 193 94ZM222 192Q217 192 214 196Q210 211 213.0 231.0Q216 251 220 260Q223 269 231.5 265.5Q240 262 236 254Q233 246 230.5 227.5Q228 209 230 205Q233 197 226 193Q224 192 222 192Z" fill="#c1694f" />
<path d="M281 161Q278 161 276 163Q243 187 215 181Q206 179 204.0 187.5Q202 196 211 198Q247 206 286 177Q294 172 288 165Q286 161 281 161ZM333 213Q331 213 330 213Q291 227 265 221Q257 220 255.0 228.5Q253 237 262 239Q292 246 336 230Q344 227 341 219Q339 213 333 213Z" fill="#c1694f" />
<path d="M490 408Q514 397 491.0 363.0Q468 329 438 313Q407 295 347.0 266.5Q287 238 282 241Q278 244 291.0 268.5Q304 293 329.0 324.5Q354 356 378 371Q415 396 445.0 405.0Q475 414 490 408ZM269 184Q284 189 329.5 173.5Q375 158 403 139Q431 120 443.5 95.0Q456 70 444 59Q434 54 414.5 54.0Q395 54 367.0 65.0Q339 76 319.0 94.0Q299 112 284.5 133.0Q270 154 267.0 166.5Q264 179 269 184ZM137 406Q152 408 161.0 390.5Q170 373 171.0 347.5Q172 322 167 295Q160 260 136.0 202.0Q112 144 106 142Q101 141 91.5 164.0Q82 187 74.5 223.0Q67 259 70 287Q74 331 95.5 366.5Q117 402 137 406Z" fill="#3e721d" />
<path d="M460 171Q445 121 373 145Q344 155 325.0 177.5Q306 200 311 223Q316 245 346.5 251.5Q377 258 405 248Q435 239 451.0 217.0Q467 195 460 171Z" fill="#909b50" />
<path d="M386 242Q425 232 435 216Q438 211 437.0 207.5Q436 204 432.0 203.5Q428 203 422 207Q413 214 394.0 221.5Q375 229 364 231Q351 233 361.0 239.0Q371 245 386 242ZM228 388Q238 392 246.5 391.5Q255 391 260.0 388.0Q265 385 265 382Q264 380 257.5 379.5Q251 379 241.5 377.0Q232 375 227 369Q211 352 203 356Q201 357 202 360Q205 367 212.5 375.5Q220 384 228 388ZM250 103Q259 102 269.0 94.0Q279 86 283.5 77.5Q288 69 284 66Q281 63 274.5 69.0Q268 75 260.0 83.5Q252 92 245 93Q233 96 233.0 100.0Q233 104 250 103Z" fill="#c7cc62" />
</g></svg>