<svg xmlns="http://www.w3.org/2000/svg" viewBox="0 0 2048 2048">
<g transform="matrix(1 0 0 -1 0 2048)">
<path d="M502 353Q512 347 512.0 338.5Q512 330 503 323L357 225Q348 218 341.5 221.5Q335 225 335 236V263H177V236Q177 225 170.5 221.5Q164 218 155 225L9 323Q0 330 0.0 338.5Q0 347 10 353L154 444Q164 450 170.5 446.5Q177 443 177 432V405H335V432Q335 443 341.5 446.5Q348 450 358 444ZM3 50Q3 99 33.0 131.5Q63 164 109 164Q156 164 186.0 131.0Q216 98 216 50Q216 1 186.0 -31.5Q156 -64 109 -64Q63 -64 33.0 -31.5Q3 1 3 50ZM168 50Q168 80 152.5 100.5Q137 121 109.5 121.0Q82 121 66.5 100.5Q51 80 51 50Q51 20 66.0 -0.5Q81 -21 109.0 -21.0Q137 -21 152.5 -0.5Q168 20 168 50ZM233 138Q233 149 239.5 155.5Q246 162 257 162Q269 162 276 152L374 21H375V138Q375 149 381.5 155.5Q388 162 398.0 162.0Q408 162 414.5 155.5Q421 149 421 138V-38Q421 -49 414.5 -55.5Q408 -62 398 -62Q387 -62 379 -52L281 78H280V-38Q280 -49 273.5 -55.5Q267 -62 256.5 -62.0Q246 -62 239.5 -55.5Q233 -49 233 -38ZM468.0 -57.0Q461 -50 461.0 -40.0Q461 -30 468.0 -23.0Q475 -16 485.0 -16.0Q495 -16 502.0 -23.0Q509 -30 509.0 -40.0Q509 -50 502.0 -57.0Q495 -64 485.0 -64.0Q475 -64 468.0 -57.0ZM463 143Q463 152 469.5 158.0Q476 164 485 164Q495 164 501.5 158.0Q508 152 508 143V24Q508 14 501.5 8.5Q495 3 485 3Q476 3 469.5 8.5Q463 14 463 24Z" fill="#31373d" />
</g></svg>