<svg xmlns="http://www.w3.org/2000/svg" viewBox="0 0 512 512">
<g transform="matrix(1 0 0 -1 0 512)">
<path d="M484 -21Q484 -33 475.5 -41.5Q467 -50 455 -50H412Q401 -50 392.5 -41.5Q384 -33 384 -21V92Q384 104 392.5 112.5Q401 121 412 121H455Q467 121 475.5 112.5Q484 104 484 92ZM128 -21Q128 -33 119.5 -41.5Q111 -50 100 -50H57Q45 -50 36.5 -41.5Q28 -33 28 -21V92Q28 104 36.5 112.5Q45 121 57 121H100Q111 121 119.5 112.5Q128 104 128 92Z" fill="#292f33" />
<path d="M128 377Q171 388 256.0 388.0Q341 388 384 377Q409 371 426.5 332.0Q444 293 450 256L455 220Q456 220 458.0 220.0Q460 220 465.0 217.0Q470 214 473.5 208.5Q477 203 480.5 191.0Q484 179 484 164V50Q483 48 483.0 45.0Q483 42 479.5 34.0Q476 26 470.5 19.0Q465 12 453.5 4.5Q442 -3 427 -7Q400 -14 371.0 -17.0Q342 -20 321.0 -20.5Q300 -21 256.0 -21.0Q212 -21 191.0 -20.5Q170 -20 141.0 -17.0Q112 -14 85 -7Q61 -1 46.5 13.0Q32 27 30 39L28 50V164Q28 166 28.5 170.0Q29 174 30.5 183.5Q32 193 34.5 200.5Q37 208 43.0 214.0Q49 220 57 220Q58 226 59.0 236.0Q60 246 66.0 271.0Q72 296 79.0 316.5Q86 337 99.5 355.0Q113 373 128 377Z" fill="#3b88c3" />
<path d="M85 227 100 306Q104 318 117.0 326.5Q130 335 144.0 339.0Q158 343 181.5 345.5Q205 348 218.5 348.0Q232 348 256.0 348.0Q280 348 293.5 348.0Q307 348 330.5 345.5Q354 343 368.0 339.0Q382 335 395.0 326.5Q408 318 412 306L427 227Q352 235 256.0 235.0Q160 235 85 227Z" fill="#bbddf5" />
<path d="M50 206H21Q12 206 6.0 212.5Q0 219 0.0 227.5Q0 236 6.0 242.5Q12 249 21 249H50Q59 249 65.0 242.5Q71 236 71.0 227.5Q71 219 65.0 212.5Q59 206 50 206ZM462 249H491Q500 249 506.0 242.5Q512 236 512.0 227.5Q512 219 506.0 212.5Q500 206 491 206H462Q453 206 447.0 212.5Q441 219 441.0 227.5Q441 236 447.0 242.5Q453 249 462 249Z" fill="#3b88c3" />
<path d="M114 78H100Q82 78 69.5 90.5Q57 103 57.0 121.0Q57 139 69.5 151.5Q82 164 100 164H114Q131 164 143.5 151.5Q156 139 156.0 121.0Q156 103 143.5 90.5Q131 78 114 78ZM412 78H398Q381 78 368.5 90.5Q356 103 356.0 121.0Q356 139 368.5 151.5Q381 164 398 164H412Q430 164 442.5 151.5Q455 139 455.0 121.0Q455 103 442.5 90.5Q430 78 412 78Z" fill="#ffcc4d" />
<path d="M171 135Q163 135 159 141Q148 158 124.0 171.0Q100 184 87.5 187.5Q75 191 68 192Q63 193 59.5 198.0Q56 203 57.0 209.0Q58 215 63.0 218.0Q68 221 74 220Q83 218 97.5 214.0Q112 210 140.5 194.0Q169 178 182 157Q190 145 179 137Q175 135 171 135ZM341 135Q337 135 333 138Q322 145 330 157Q343 178 371.5 194.0Q400 210 414.5 214.0Q429 218 438 220Q444 221 449.0 218.0Q454 215 455.0 209.0Q456 203 452.5 198.0Q449 193 444 192Q437 191 424.5 187.5Q412 184 388.0 171.0Q364 158 353 141Q349 135 341 135Z" fill="#226699" />
<path d="M61 54Q51 64 61 74Q69 82 79 76Q106 64 256.0 64.0Q406 64 433 76Q443 82 451 74Q461 64 451 54Q433 36 256.0 36.0Q79 36 61 54Z" fill="#55acee" />
<path d="M356 28Q356 13 327.0 3.0Q298 -7 256.0 -7.0Q214 -7 185.0 3.0Q156 13 156 28Q156 32 161.0 34.0Q166 36 176.5 36.5Q187 37 197.0 36.5Q207 36 225.0 36.0Q243 36 256.0 36.0Q269 36 287.0 36.0Q305 36 315.0 36.5Q325 37 335.5 36.5Q346 36 351.0 34.0Q356 32 356 28Z" fill="#226699" />
</g></svg>