<svg xmlns="http://www.w3.org/2000/svg" viewBox="0 0 512 512">
<g transform="matrix(1 0 0 -1 0 512)">
<path d="M384 264Q384 247 372.5 227.5Q361 208 354.5 194.5Q348 181 356 149Q384 67 384 50Q337 40 310.5 2.5Q284 -35 284 -64H228Q228 -27 202.5 6.5Q177 40 128 50Q128 67 156 149Q164 181 157.5 194.5Q151 208 139.5 227.5Q128 247 128 264Q128 288 154.5 358.5Q181 429 185 448H199Q199 446 198.5 429.0Q198 412 198.0 401.5Q198 391 201.0 374.0Q204 357 209.5 346.5Q215 336 227.0 328.0Q239 320 256.0 320.0Q273 320 285.0 328.0Q297 336 302.5 346.5Q308 357 311.0 374.0Q314 391 314.0 401.5Q314 412 313.5 429.0Q313 446 313 448H327Q331 429 357.5 358.5Q384 288 384 264Z" fill="#9268ca" />
<path d="M351 178Q351 171 352 164H160Q161 171 161 178ZM356 149Q360 136 365 121H147Q152 136 156 149Z" fill="#78b159" />
<path d="M299 206Q317 206 327.0 207.5Q337 209 352.5 217.5Q368 226 380 244Q378 237 365.5 216.0Q353 195 352 181Q332 192 256.0 192.0Q180 192 160 181Q159 195 146.5 216.0Q134 237 132 244Q144 226 159.5 217.5Q175 209 185.0 207.5Q195 206 213 206ZM135 84Q158 73 180.0 55.0Q202 37 222.0 4.5Q242 -28 242 -64H228Q228 -27 202.5 6.5Q177 40 128 50Q128 60 135 84ZM384 50Q337 40 310.5 2.5Q284 -35 284 -64H270Q270 -28 290.0 4.5Q310 37 332.0 55.0Q354 73 377 84Q384 60 384 50Z" fill="#7450a8" />
</g></svg>