<svg xmlns="http://www.w3.org/2000/svg" viewBox="0 0 512 512">
<g transform="matrix(1 0 0 -1 0 512)">
<path d="M0 36V348Q0 372 16.5 388.5Q33 405 57 405H150Q172 405 187.5 398.0Q203 391 211.5 380.5Q220 370 228.0 359.5Q236 349 246.0 341.5Q256 334 270 334H398Q422 334 438.5 317.5Q455 301 455 277V36Q455 12 438.5 -4.5Q422 -21 398 -21H57Q33 -21 16.5 -4.5Q0 12 0 36Z" fill="#226699" />
<path d="M460 277Q483 277 498.0 260.5Q513 244 511 220L489 36Q487 12 468.5 -4.5Q450 -21 427 -21H57Q52 -21 48 -20Q28 -17 14.0 -1.5Q0 14 0 36Q0 36 0.0 36.5Q0 37 0 38Q0 31 4.5 26.0Q9 21 15 21Q31 21 34 36L42 94L49 149Q51 173 69.5 189.5Q88 206 111 206H239Q256 206 270.0 217.0Q284 228 293.0 241.5Q302 255 321.5 266.0Q341 277 367 277Z" fill="#55acee" />
</g></svg>