<svg xmlns="http://www.w3.org/2000/svg" viewBox="0 0 512 512">
<g transform="matrix(1 0 0 -1 0 512)">
<path d="M455 348Q479 348 495.5 331.5Q512 315 512 292V78Q512 55 495.5 38.0Q479 21 455 21H293Q280 7 256.0 7.0Q232 7 219 21H57Q33 21 16.5 38.0Q0 55 0 78V292Q0 315 16.5 331.5Q33 348 57 348Z" fill="#226699" />
<path d="M284 64Q284 52 276.0 44.0Q268 36 256.0 36.0Q244 36 236.0 44.0Q228 52 228 64V320Q228 332 236.0 340.0Q244 348 256.0 348.0Q268 348 276.0 340.0Q284 332 284 320Z" fill="#292f33" />
<path d="M256 78Q256 66 247.5 58.0Q239 50 228 50H57Q45 50 36.5 58.0Q28 66 28 78V334Q28 346 36.5 354.5Q45 363 57 363H228Q239 363 247.5 354.5Q256 346 256 334ZM484 78Q484 66 475.5 58.0Q467 50 455 50H284Q273 50 264.5 58.0Q256 66 256 78V334Q256 346 264.5 354.5Q273 363 284 363H455Q467 363 475.5 354.5Q484 346 484 334Z" fill="#99aab5" />
<path d="M256 78Q242 107 199 107Q187 107 147.5 92.5Q108 78 85 78Q74 78 65.5 86.5Q57 95 57 107V334Q57 346 65.5 354.5Q74 363 85 363Q111 363 149.0 377.0Q187 391 199 391Q228 391 242.0 377.0Q256 363 256 348Z" fill="#e1e8ed" />
<path d="M256 78V348Q256 363 270.0 377.0Q284 391 313 391Q325 391 363.0 377.0Q401 363 427 363Q438 363 446.5 354.5Q455 346 455 334V107Q455 95 446.5 86.5Q438 78 427 78Q404 78 364.5 92.5Q325 107 313 107Q270 107 256 78Z" fill="#ccd6dd" />
</g></svg>