<svg xmlns="http://www.w3.org/2000/svg" viewBox="0 0 512 512">
<g transform="matrix(1 0 0 -1 0 512)">
<path d="M512 -7Q512 -31 495.5 -47.5Q479 -64 455 -64H57Q33 -64 16.5 -47.5Q0 -31 0 -7V391Q0 415 16.5 431.5Q33 448 57 448H455Q479 448 495.5 431.5Q512 415 512 391Z" fill="#9266cc" />
<path d="M327 363Q333 363 337.0 358.5Q341 354 341 348V320Q341 314 337.0 310.0Q333 306 327 306H284V-7Q284 -13 280.0 -17.0Q276 -21 270 -21H242Q236 -21 232.0 -17.0Q228 -13 228 -7V306H185Q179 306 175.0 310.0Q171 314 171 320V348Q171 354 175.0 358.5Q179 363 185 363H228V391Q228 397 232.0 401.0Q236 405 242 405H270Q276 405 280.0 401.0Q284 397 284 391V363Z" fill="#ffffff" />
<path d="M412 263Q418 263 422.5 259.0Q427 255 427 249V220Q427 215 422.5 210.5Q418 206 412 206H100Q94 206 89.5 210.5Q85 215 85 220V249Q85 255 89.5 259.0Q94 263 100 263ZM346 94Q359 89 355 76L346 49Q342 35 329 39L166 91Q153 96 157 109L166 136Q170 150 183 146Z" fill="#ffffff" />
</g></svg>