<svg xmlns="http://www.w3.org/2000/svg" viewBox="0 0 2048 2048">
<g transform="matrix(1 0 0 -1 0 2048)">
<path d="M104 292Q108 289 113.5 285.0Q119 281 135.5 267.5Q152 254 166.0 241.0Q180 228 195.0 209.5Q210 191 218.5 175.0Q227 159 227.0 141.0Q227 123 215 110Q190 79 165.5 60.5Q141 42 129 39L118 36Q114 41 108.0 50.0Q102 59 90.0 88.0Q78 117 73.0 146.0Q68 175 74.5 215.0Q81 255 104 292ZM408 292Q430 255 437.0 215.5Q444 176 438.0 145.0Q432 114 422.5 88.5Q413 63 403 49L394 36Q389 36 381.0 39.0Q373 42 347.0 60.5Q321 79 296 110Q281 130 286.0 154.0Q291 178 310.5 202.5Q330 227 351.5 247.0Q373 267 391 279Z" fill="#662113" />
<path d="M216 -1Q220 -7 217.5 -14.5Q215 -22 209 -25L161 -51Q155 -55 147.5 -52.5Q140 -50 136.5 -43.5Q133 -37 135.0 -30.0Q137 -23 144 -19L148 -17H128Q120 -17 115.0 -12.0Q110 -7 110.0 0.5Q110 8 115.0 13.5Q120 19 128 19H164Q164 73 182 91L200 110Q208 110 208.0 103.5Q208 97 204.0 86.5Q200 76 200 73Q198 69 195.5 62.5Q193 56 194.5 38.0Q196 20 209 6Q214 4 216 -1ZM296 -1Q298 3 303 6Q316 20 318.0 37.0Q320 54 316 63L312 73Q312 76 310.0 81.0Q308 86 306.5 90.5Q305 95 304.0 99.5Q303 104 305.0 107.0Q307 110 312 110L330 91Q338 83 342.5 65.0Q347 47 347 33L348 19H384Q392 19 397.0 13.5Q402 8 402.0 0.5Q402 -7 397.0 -12.0Q392 -17 384 -17H364L368 -19Q375 -23 377.0 -30.0Q379 -37 375.5 -43.5Q372 -50 364.5 -52.5Q357 -55 351 -51L303 -25Q297 -22 294.5 -14.5Q292 -7 296 -1Z" fill="#ffac33" />
<path d="M402 287Q398 290 390.5 295.5Q383 301 364.0 315.5Q345 330 332.0 343.0Q319 356 310.0 371.5Q301 387 306 396Q312 409 336.0 419.0Q360 429 381 433L402 437Q404 435 406.5 430.0Q409 425 414.0 409.5Q419 394 420.5 377.5Q422 361 418.0 336.5Q414 312 402 287Z" fill="#662113" />
<path d="M420 267Q420 209 411.0 158.5Q402 108 383.5 65.5Q365 23 332.0 -1.5Q299 -26 256.0 -26.0Q213 -26 180.0 -1.5Q147 23 128.5 65.5Q110 108 101.0 158.5Q92 209 92 267Q92 298 96.5 321.5Q101 345 108.0 361.0Q115 377 128.0 388.0Q141 399 153.0 405.0Q165 411 184.0 414.0Q203 417 217.5 417.5Q232 418 256.0 418.0Q280 418 294.5 417.5Q309 417 328.0 414.0Q347 411 359.0 405.0Q371 399 384.0 388.0Q397 377 404.0 361.0Q411 345 415.5 321.5Q420 298 420 267Z" fill="#662113" />
<path d="M393 196Q393 145 376.0 102.5Q359 60 334.5 36.5Q310 13 289.0 0.5Q268 -12 256.0 -12.0Q244 -12 223.0 0.5Q202 13 177.5 36.5Q153 60 136.0 102.5Q119 145 119 196Q119 226 134.0 249.5Q149 273 173.0 285.5Q197 298 226.5 303.5Q256 309 285.5 303.5Q315 298 339.0 285.5Q363 273 378.0 249.5Q393 226 393 196Z" fill="#c1694f" />
<path d="M110 287Q98 312 94.0 336.0Q90 360 92.0 377.5Q94 395 98.0 409.0Q102 423 106 430L110 437Q119 436 133.0 433.0Q147 430 173.5 419.5Q200 409 206 396Q213 381 189.0 354.0Q165 327 138 307Z" fill="#662113" />
<path d="M212 386Q256 369 256 315Q256 289 237.5 273.5Q219 258 196.0 256.5Q173 255 152 258Q132 263 117.0 282.0Q102 301 97 325Q90 359 93.0 384.0Q96 409 103 423L110 437Q152 408 212 386ZM300 386Q326 396 352.0 409.0Q378 422 390 429L402 437Q403 435 405.0 431.5Q407 428 411.5 416.5Q416 405 418.0 393.0Q420 381 420.0 362.0Q420 343 415 325Q410 301 395.0 282.0Q380 263 360 258Q339 255 316.0 256.5Q293 258 274.5 273.5Q256 289 256 315Q256 369 300 386Z" fill="#c1694f" />
<path d="M213.0 367.0Q229 351 229.0 328.5Q229 306 213.0 290.0Q197 274 174.5 274.0Q152 274 136.0 290.0Q120 306 120.0 328.5Q120 351 136.0 367.0Q152 383 174.5 383.0Q197 383 213.0 367.0ZM376.0 367.0Q392 351 392.0 328.5Q392 306 376.0 290.0Q360 274 337.5 274.0Q315 274 299.0 290.0Q283 306 283.0 328.5Q283 351 299.0 367.0Q315 383 337.5 383.0Q360 383 376.0 367.0Z" fill="#ffd983" />
<path d="M193.5 348.0Q201 340 201.0 328.5Q201 317 193.5 309.0Q186 301 174.5 301.0Q163 301 155.0 309.0Q147 317 147.0 328.5Q147 340 155.0 348.0Q163 356 174.5 356.0Q186 356 193.5 348.0ZM357.0 348.0Q365 340 365.0 328.5Q365 317 357.0 309.0Q349 301 337.5 301.0Q326 301 318.5 309.0Q311 317 311.0 328.5Q311 340 318.5 348.0Q326 356 337.5 356.0Q349 356 357.0 348.0Z" fill="#292f33" />
<path d="M266 224 256 219Q251 221 244.5 224.0Q238 227 226.5 239.5Q215 252 215.0 267.0Q215 282 225.5 294.0Q236 306 246 310L256 315Q261 313 267.5 310.0Q274 307 285.5 294.5Q297 282 297.0 267.0Q297 252 286.5 240.0Q276 228 266 224Z" fill="#ffcc4d" />
<path d="M297 267Q297 252 286.5 240.0Q276 228 266 224L256 219Q251 221 244.5 224.0Q238 227 226.5 239.5Q215 252 215 267Q223 259 233.0 254.0Q243 249 250 248L256 247Q280 250 297 267Z" fill="#f4900c" />
</g></svg>