<svg xmlns="http://www.w3.org/2000/svg" viewBox="0 0 2048 2048">
<g transform="matrix(1 0 0 -1 0 2048)">
<path d="M57 292 256 135V-27Q256 -27 256 -46Q253 -62 237 -49L72 80Q57 87 57 116Z" fill="#662113" />
<path d="M455 292V116Q455 103 451.5 94.0Q448 85 444 83L440 80Q301 -29 275 -49Q263 -57 258.5 -52.0Q254 -47 255 -37L256 -27V135Z" fill="#c1694f" />
<path d="M274 441 447 307Q455 300 455.0 291.0Q455 282 447 275L275 137Q267 130 255.5 130.0Q244 130 236 137L65 274Q57 280 57.0 289.5Q57 299 65 305L235 441Q243 447 254.5 447.0Q266 447 274 441Z" fill="#d99e82" />
<path d="M242 -45V139Q242 145 246.0 149.5Q250 154 256.0 154.0Q262 154 266.0 149.5Q270 145 270 139V-45Q270 -51 266.0 -55.5Q262 -60 256.0 -60.0Q250 -60 246.0 -55.5Q242 -51 242 -45Z" fill="#d99e82" />
<path d="M398 180Q398 179 398.0 175.5Q398 172 398.0 171.5Q398 171 398.0 168.0Q398 165 397.5 164.0Q397 163 397.0 161.0Q397 159 396.0 158.0Q395 157 394.0 155.0Q393 153 391.5 151.5Q390 150 388.0 148.5Q386 147 384 145L349 119Q337 111 332.0 115.5Q327 120 327 133V175Q327 180 323 184Q307 197 262.5 232.5Q218 268 172.0 304.5Q126 341 118 348L184 400Q239 360 393 238Q398 234 398 231Z" fill="#99aab5" />
<path d="M393 238Q396 236 397 235L327 178Q326 181 323 184Q307 197 262.5 232.5Q218 268 172.0 305.0Q126 342 118 348L159 381L184 400Q239 360 393 238Z" fill="#ccd6dd" />
<path d="M398 180Q398 179 398.0 175.5Q398 172 398.0 171.5Q398 171 398.0 168.0Q398 165 397.5 164.0Q397 163 397.0 161.0Q397 159 396.0 158.0Q395 157 394.0 155.0Q393 153 391.5 151.5Q390 150 388.0 148.5Q386 147 384 145L370 135V203Q370 209 366 212Q348 226 262.5 292.5Q177 359 154 377L184 400Q239 360 393 238Q398 234 398 231Z" fill="#ccd6dd" />
<path d="M393 238Q396 236 397 235L367 211Q366 212 366 212Q348 226 262.5 292.5Q177 359 154 377L184 400Q239 360 393 238Z" fill="#e1e8ed" />
</g></svg>