<svg xmlns="http://www.w3.org/2000/svg" viewBox="0 0 512 512">
<g transform="matrix(1 0 0 -1 0 512)">
<path d="M512 64Q512 40 495.5 23.5Q479 7 455 7H57Q33 7 16.5 23.5Q0 40 0 64V320Q0 344 16.5 360.5Q33 377 57 377H455Q479 377 495.5 360.5Q512 344 512 320Z" fill="#31373d" />
<path d="M484 149Q484 138 475.5 129.5Q467 121 455 121H57Q45 121 36.5 129.5Q28 138 28 149V320Q28 332 36.5 340.0Q45 348 57 348H455Q467 348 475.5 340.0Q484 332 484 320Z" fill="#c6e5b3" />
<path d="M171 36H57Q45 36 36.5 44.0Q28 52 28.0 64.0Q28 76 36.5 84.0Q45 92 57 92H171Q182 92 190.5 84.0Q199 76 199.0 64.0Q199 52 190.5 44.0Q182 36 171 36ZM370 36H256Q244 36 236.0 44.0Q228 52 228.0 64.0Q228 76 236.0 84.0Q244 92 256 92H370Q382 92 390.0 84.0Q398 76 398.0 64.0Q398 52 390.0 44.0Q382 36 370 36Z" fill="#66757f" />
<path d="M435.0 44.0Q427 52 427.0 64.0Q427 76 435.0 84.0Q443 92 455.0 92.0Q467 92 475.5 84.0Q484 76 484.0 64.0Q484 52 475.5 44.0Q467 36 455.0 36.0Q443 36 435.0 44.0Z" fill="#dd2e44" />
<path d="M350 218Q344 218 344 223Q344 225 345 227L364 262Q367 266 373 266Q383 266 383 256V230H384Q390 230 390.0 224.0Q390 218 384 218H383V211Q383 205 376.5 205.0Q370 205 370 211V218ZM370 253 359 230H370ZM311.0 206.0Q289 206 289.0 236.5Q289 267 311.0 267.0Q333 267 333.0 236.5Q333 206 311.0 206.0ZM311.0 217.0Q320 217 320.0 236.5Q320 256 311.0 256.0Q302 256 302.0 236.5Q302 217 311.0 217.0ZM238 220Q232 220 232 224Q232 226 233 228L252 263Q255 267 261 267Q270 267 270 257V231H272Q278 231 278.0 225.5Q278 220 272 220H270V212Q270 206 264.0 206.0Q258 206 258 212V220ZM258 254 247 231H258ZM199.0 205.0Q177 205 177.0 235.5Q177 266 199.0 266.0Q221 266 221.0 235.5Q221 205 199.0 205.0ZM199.0 216.0Q208 216 208.0 235.5Q208 255 199.0 255.0Q190 255 190.0 235.5Q190 216 199.0 216.0ZM126 218Q120 218 120 223Q120 225 121 227L140 262Q143 266 149 266Q158 266 158 256V230H160Q166 230 166.0 224.0Q166 218 160 218H158V211Q158 205 152.0 205.0Q146 205 146 211V218ZM146 253 135 230H146Z" fill="#77b255" />
</g></svg>