<svg xmlns="http://www.w3.org/2000/svg" viewBox="0 0 512 512">
<g transform="matrix(1 0 0 -1 0 512)">
<path d="M313 158Q314 142 314 131Q314 129 313.5 125.5Q313 122 313 120Q313 103 313 88Q312 69 310 51Q309 35 307 21Q305 1 301 -17L294 -48Q293 -49 292.5 -50.5Q292 -52 288.0 -55.0Q284 -58 278.5 -60.0Q273 -62 261.0 -61.5Q249 -61 234 -57Q194 -47 194 -28Q194 -27 207 0Q215 18 221 34Q226 47 230 60Q236 78 240 95Q242 109 244 121Q246 136 246 149Q246 149 245 158Q245 170 244 181Q243 200 241 217Q239 229 237 239Q234 258 230 275L217 312L269 318Q275 308 282 289Q289 273 294 255Q299 241 302 226Q306 209 309 191Q311 175 313 158Z" fill="#c1694f" />
<path d="M260 20Q290 15 307 21Q305 1 301 -17Q292 -18 284 -18Q270 -18 254 -15Q227 -11 207 0Q215 18 221 34Q236 25 260 20ZM275 87Q296 85 313 88Q312 69 310 51Q300 50 290 50Q281 50 272 51Q249 53 230 60Q236 78 240 95Q255 89 275 87ZM280 117H279Q261 117 244 121Q246 136 246 149Q246 149 245 158Q260 154 279 153Q298 154 313 158Q314 143 314 131Q314 129 313.5 125.5Q313 122 313 120Q297 117 280 117ZM276 182Q263 180 251 180Q249 180 247.0 180.5Q245 181 244 181Q243 200 241 217Q255 216 271 218Q288 221 302 226Q306 209 309 191Q292 185 276 182ZM294 255Q280 248 267 245Q254 241 237 239Q234 258 230 275Q243 276 258 280Q271 283 282 289Q289 273 294 255Z" fill="#d99e82" />
<path d="M464 387Q465 385 463.5 382.5Q462 380 459 381Q455 384 446.0 386.0Q437 388 410.0 386.5Q383 385 355 372Q312 353 268 304Q267 303 265 303Q265 303 264 303Q205 317 148 327Q129 332 111.0 330.5Q93 329 81.5 327.0Q70 325 59.5 320.5Q49 316 45.5 314.0Q42 312 40 311Q38 309 36.0 311.0Q34 313 35 315Q37 319 41.5 326.0Q46 333 60.0 349.0Q74 365 89.0 376.5Q104 388 128.0 395.5Q152 403 177 398Q225 390 249 356Q262 410 318 435Q335 443 352.0 444.0Q369 445 382.5 442.0Q396 439 409.5 432.0Q423 425 432.0 418.0Q441 411 449.0 403.0Q457 395 460.0 391.5Q463 388 464 387Z" fill="#3e721d" />
<path d="M397 339Q425 324 443.0 299.5Q461 275 467.0 253.5Q473 232 474.0 208.0Q475 184 473.5 175.0Q472 166 471 160Q470 157 466.0 156.5Q462 156 461 159Q457 167 449.5 179.5Q442 192 415.5 220.5Q389 249 358 266Q314 291 260 300Q206 253 171 209Q146 180 126.5 142.0Q107 104 102.0 89.5Q97 75 94 66Q94 62 90 62Q90 62 89 62Q86 62 85 64Q82 69 78.0 77.5Q74 86 67.0 110.5Q60 135 58.5 158.5Q57 182 65.0 213.0Q73 244 93 269Q159 354 254 336Q320 380 397 339Z" fill="#5c913b" />
</g></svg>