<svg xmlns="http://www.w3.org/2000/svg" viewBox="0 0 2048 2048">
<g transform="matrix(1 0 0 -1 0 2048)">
<path d="M75.0 6.5Q0 48 0.0 107.0Q0 166 75.0 208.0Q150 250 256.0 250.0Q362 250 437.0 208.0Q512 166 512.0 107.0Q512 48 437.0 6.5Q362 -35 256.0 -35.0Q150 -35 75.0 6.5Z" fill="#929497" />
<path d="M75.0 31.5Q0 73 0.0 132.0Q0 191 75.0 233.0Q150 275 256.0 275.0Q362 275 437.0 233.0Q512 191 512.0 132.0Q512 73 437.0 31.5Q362 -10 256.0 -10.0Q150 -10 75.0 31.5Z" fill="#ccd6dc" />
<path d="M396.5 236.5Q455 204 455.0 158.0Q455 112 396.5 79.5Q338 47 256.0 47.0Q174 47 115.5 79.5Q57 112 57.0 158.0Q57 204 115.5 236.5Q174 269 256.0 269.0Q338 269 396.5 236.5Z" fill="#f19020" />
<path d="M396.5 266.5Q455 234 455.0 188.5Q455 143 396.5 110.5Q338 78 256.0 78.0Q174 78 115.5 110.5Q57 143 57.0 188.5Q57 234 115.5 266.5Q174 299 256.0 299.0Q338 299 396.5 266.5Z" fill="#faaa35" />
<path d="M396.5 297.5Q455 265 455.0 219.0Q455 173 396.5 141.0Q338 109 256.0 109.0Q174 109 115.5 141.0Q57 173 57.0 219.0Q57 265 115.5 297.5Q174 330 256.0 330.0Q338 330 396.5 297.5Z" fill="#f19020" />
<path d="M396.5 328.0Q455 296 455.0 250.0Q455 204 396.5 171.5Q338 139 256.0 139.0Q174 139 115.5 171.5Q57 204 57.0 250.0Q57 296 115.5 328.0Q174 360 256.0 360.0Q338 360 396.5 328.0Z" fill="#faaa35" />
<path d="M396.5 358.5Q455 326 455.0 280.5Q455 235 396.5 202.5Q338 170 256.0 170.0Q174 170 115.5 202.5Q57 235 57.0 280.5Q57 326 115.5 358.5Q174 391 256.0 391.0Q338 391 396.5 358.5Z" fill="#f19020" />
<path d="M403 114Q403 114 403 114Q400 100 394.0 92.5Q388 85 381 85Q371 85 368 97Q387 104 403 114Z" fill="#e18524" />
<path d="M404 145Q404 145 404 145V128Q404 121 403 114Q387 104 368 97Q368 100 368 103Q368 109 367 127Q388 135 404 145Z" fill="#e5922e" />
<path d="M404 176Q404 176 404 176Q404 166 404 145Q388 135 367 127Q367 144 367 158Q387 166 404 176Z" fill="#e18524" />
<path d="M404 207V176Q387 166 367 158Q367 175 367 189Q367 189 404 207Z" fill="#e5922e" />
<path d="M218 358Q256 346 272.0 344.0Q288 342 306.0 345.5Q324 349 340 349Q387 350 404 332Q415 321 393 316Q352 308 337 286Q325 267 356 253Q374 245 387.0 231.0Q400 217 404 207Q390 197 367 189Q361 218 287 241Q201 267 153 243Q108 221 95 240Q83 256 106 276Q108 278 111 280Q123 289 132.5 301.0Q142 313 142 322Q139 355 157.5 363.0Q176 371 218 358Z" fill="#d17a28" />
<path d="M315 326Q316 308 310 305L267 280Q256 274 245 280L202 305Q199 306 198.0 311.5Q197 317 197 322V326Z" fill="#faaa35" />
<path d="M310 333Q315 330 315 326Q314 323 310 320L267 296Q256 289 245 296L202 320Q197 323 197.0 326.5Q197 330 202 333L245 357Q256 363 267 357Z" fill="#ffd882" />
</g></svg>