<svg xmlns="http://www.w3.org/2000/svg" viewBox="0 0 512 512">
<g transform="matrix(1 0 0 -1 0 512)">
<path d="M39.0 302.0Q14 327 14.0 362.5Q14 398 39.0 423.0Q64 448 99.5 448.0Q135 448 160.0 423.0Q185 398 185.0 362.5Q185 327 160.0 302.0Q135 277 99.5 277.0Q64 277 39.0 302.0ZM352.0 302.0Q327 327 327.0 362.5Q327 398 352.0 423.0Q377 448 412.5 448.0Q448 448 473.0 423.0Q498 398 498.0 362.5Q498 327 473.0 302.0Q448 277 412.5 277.0Q377 277 352.0 302.0Z" fill="#272b2b" />
<path d="M59.5 322.5Q43 339 43.0 362.5Q43 386 59.5 403.0Q76 420 99.5 420.0Q123 420 139.5 403.0Q156 386 156.0 362.5Q156 339 139.5 322.5Q123 306 99.5 306.0Q76 306 59.5 322.5ZM372.5 322.5Q356 339 356.0 362.5Q356 386 372.5 403.0Q389 420 412.5 420.0Q436 420 452.5 403.0Q469 386 469.0 362.5Q469 339 452.5 322.5Q436 306 412.5 306.0Q389 306 372.5 322.5Z" fill="#66757f" />
<path d="M498 135Q498 59 433.0 11.5Q368 -36 256.0 -36.0Q144 -36 79.0 11.5Q14 59 14 135Q15 142 16.0 153.0Q17 164 23.5 196.5Q30 229 39.0 258.5Q48 288 67.0 324.0Q86 360 110.0 386.0Q134 412 172.0 430.0Q210 448 256 448Q292 448 323.0 437.5Q354 427 376.5 408.5Q399 390 418.0 366.5Q437 343 449.0 317.5Q461 292 470.5 266.0Q480 240 485.0 216.5Q490 193 493.0 175.0Q496 157 497 146Z" fill="#eeeeee" />
<path d="M196.0 -39.0Q171 -14 171.0 21.5Q171 57 196.0 82.0Q221 107 256.0 107.0Q291 107 316.0 82.0Q341 57 341.0 21.5Q341 -14 316.0 -39.0Q291 -64 256.0 -64.0Q221 -64 196.0 -39.0Z" fill="#ccd6dd" />
<path d="M215.5 -19.0Q199 -2 199.0 21.5Q199 45 215.5 61.5Q232 78 256.0 78.0Q280 78 296.5 61.5Q313 45 313.0 21.5Q313 -2 296.5 -19.0Q280 -36 256.0 -36.0Q232 -36 215.5 -19.0Z" fill="#dd2e44" />
<path d="M295 268Q313 278 335.0 276.0Q357 274 374.0 258.0Q391 242 401.5 222.0Q412 202 408.0 175.5Q404 149 383 126Q361 101 336.5 92.5Q312 84 298 88L284 92Q283 98 280.5 108.0Q278 118 274.5 145.0Q271 172 270.5 194.0Q270 216 275.5 238.0Q281 260 295 268ZM217 268Q238 255 240.5 211.0Q243 167 235 130L227 92Q225 91 221.5 90.0Q218 89 207.0 88.0Q196 87 184.5 89.5Q173 92 157.5 101.0Q142 110 128 125Q108 148 104.0 175.0Q100 202 110.5 222.0Q121 242 138.0 258.0Q155 274 176.5 276.0Q198 278 217 268Z" fill="#272b2b" />
<path d="M156 206Q156 209 157.0 214.0Q158 219 165.0 227.0Q172 235 185.0 235.0Q198 235 205.0 227.5Q212 220 213 213V206V178Q213 175 212.5 170.0Q212 165 205.0 157.0Q198 149 185.0 149.0Q172 149 165.0 156.5Q158 164 157 171L156 178Z" fill="#66757f" />
<path d="M256 164Q262 161 272.5 157.5Q283 154 310.0 142.5Q337 131 358.0 119.5Q379 108 395.5 92.5Q412 77 412 64Q412 29 387.0 4.0Q362 -21 327 -21Q281 -21 256 17Q231 -21 185 -21Q150 -21 125.0 4.0Q100 29 100 64Q100 85 139.0 110.0Q178 135 217 149Z" fill="#ffffff" />
<path d="M299 206Q299 209 299.5 214.0Q300 219 307.0 227.0Q314 235 327.0 235.0Q340 235 347.0 227.5Q354 220 355 213L356 206V178Q356 175 355.0 170.0Q354 165 347.0 157.0Q340 149 327.0 149.0Q314 149 307.0 156.5Q300 164 299 171V178Z" fill="#66757f" />
<path d="M187 92Q204 103 256.0 103.0Q308 103 325.5 92.5Q343 82 304 56Q274 36 256 36Q234 36 200 62Q172 83 187 92Z" fill="#272b2b" />
</g></svg>