<svg xmlns="http://www.w3.org/2000/svg" viewBox="0 0 512 512">
<g transform="matrix(1 0 0 -1 0 512)">
<path d="M201 -62Q196 -57 201 -52L228 -26V0Q228 7 235.0 7.0Q242 7 242 0V-31L211 -62Q209 -64 206.0 -64.0Q203 -64 201 -62Z" fill="#292f33" />
<path d="M235 -36H192Q185 -36 185.0 -28.5Q185 -21 192 -21H235Q242 -21 242.0 -28.5Q242 -36 235 -36ZM301 -62 270 -31V0Q270 7 277.0 7.0Q284 7 284 0V-26L311 -52Q316 -57 311 -62Q309 -64 306.0 -64.0Q303 -64 301 -62Z" fill="#292f33" />
<path d="M320 -36H277Q270 -36 270.0 -28.5Q270 -21 277 -21H320Q327 -21 327.0 -28.5Q327 -36 320 -36Z" fill="#292f33" />
<path d="M512 80Q512 50 495.5 36.0Q479 22 424.0 14.5Q369 7 256.0 7.0Q143 7 88.0 14.5Q33 22 16.5 36.0Q0 50 0 80Q0 213 74.5 302.0Q149 391 256.0 391.0Q363 391 437.5 302.0Q512 213 512 80Z" fill="#a6d388" />
<path d="M256 36Q251 36 249 40Q247 47 254 49L488 128Q495 130 497.5 123.0Q500 116 493 114L258 36Q257 36 256 36ZM256 78Q252 78 250 81Q246 87 252 91L458 240Q464 245 468.0 239.0Q472 233 466 229L260 80Q258 78 256 78ZM256 135Q254 135 252 136Q246 140 250 146L371 338Q375 344 381.0 340.0Q387 336 383 330L262 138Q260 135 256 135Z" fill="#77b255" />
<path d="M442.0 44.0Q434 52 434.0 64.0Q434 76 442.0 84.0Q450 92 462.0 92.0Q474 92 482.5 84.0Q491 76 491.0 64.0Q491 52 482.5 44.0Q474 36 462.0 36.0Q450 36 442.0 44.0ZM442.0 143.5Q434 152 434.0 163.5Q434 175 442.0 183.5Q450 192 462.0 192.0Q474 192 482.5 183.5Q491 175 491.0 163.5Q491 152 482.5 143.5Q474 135 462.0 135.0Q450 135 442.0 143.5ZM385.5 243.0Q377 251 377.0 263.0Q377 275 385.5 283.5Q394 292 405.5 292.0Q417 292 425.5 283.5Q434 275 434.0 263.0Q434 251 425.5 243.0Q417 235 405.5 235.0Q394 235 385.5 243.0ZM285.5 314.0Q277 322 277.0 334.0Q277 346 285.5 354.5Q294 363 306.0 363.0Q318 363 326.0 354.5Q334 346 334.0 334.0Q334 322 326.0 314.0Q318 306 306.0 306.0Q294 306 285.5 314.0ZM383.0 27.5Q377 34 377.0 43.0Q377 52 383.0 58.0Q389 64 398.0 64.0Q407 64 413.5 58.0Q420 52 420.0 43.0Q420 34 413.5 27.5Q407 21 398.0 21.0Q389 21 383.0 27.5ZM383.0 113.0Q377 119 377.0 128.0Q377 137 383.0 143.0Q389 149 398.0 149.0Q407 149 413.5 143.0Q420 137 420.0 128.0Q420 119 413.5 113.0Q407 107 398.0 107.0Q389 107 383.0 113.0ZM340.5 198.0Q334 204 334.0 213.0Q334 222 340.5 228.5Q347 235 355.5 235.0Q364 235 370.5 228.5Q377 222 377.0 213.0Q377 204 370.5 198.0Q364 192 355.5 192.0Q347 192 340.5 198.0ZM338.5 25.5Q334 30 334.0 35.5Q334 41 338.5 45.5Q343 50 348.5 50.0Q354 50 358.5 45.5Q363 41 363.0 35.5Q363 30 358.5 25.5Q354 21 348.5 21.0Q343 21 338.5 25.5ZM338.5 96.5Q334 101 334.0 107.0Q334 113 338.5 117.0Q343 121 348.5 121.0Q354 121 358.5 117.0Q363 113 363.0 107.0Q363 101 358.5 96.5Q354 92 348.5 92.0Q343 92 338.5 96.5ZM296.0 153.5Q292 158 292.0 163.5Q292 169 296.0 173.5Q300 178 306.0 178.0Q312 178 316.0 173.5Q320 169 320.0 163.5Q320 158 316.0 153.5Q312 149 306.0 149.0Q300 149 296.0 153.5Z" fill="#55acee" />
<path d="M249 36Q248 36 247 36L12 114Q5 116 7.5 123.0Q10 130 16 128L251 49Q258 47 256 40Q254 36 249 36ZM249 78Q247 78 245 80L38 229Q33 233 37.0 239.0Q41 245 47 240L253 91Q259 87 255 81Q253 78 249 78ZM249 135Q245 135 243 138L122 330Q118 336 124.0 340.0Q130 344 134 338L255 146Q259 140 253 136Q251 135 249 135Z" fill="#77b255" />
<path d="M242 114V370Q242 377 249.0 377.0Q256 377 256 370V114Q256 107 249.0 107.0Q242 107 242 114Z" fill="#77b255" />
<path d="M213 220Q207 233 207.0 247.5Q207 262 210 269L213 277Q213 263 228 249Q228 268 231.5 278.5Q235 289 238 290L242 292Q242 263 256 249Q262 243 251.5 235.5Q241 228 227 224ZM327 36Q331 17 308.0 -2.0Q285 -21 256 -21Q227 -21 204.0 -2.0Q181 17 185 36Q187 48 193.0 59.0Q199 70 208.0 81.5Q217 93 221 100Q252 152 223 194Q218 201 233.0 210.5Q248 220 256 220Q264 220 279.0 210.5Q294 201 289 194Q260 152 291 100Q294 93 303.0 81.5Q312 70 318.0 59.0Q324 48 327 36Z" fill="#226699" />
<path d="M270 220Q289 220 310.5 213.0Q332 206 344 199L356 192Q313 178 270 192Q258 196 253.5 200.5Q249 205 251.5 208.5Q254 212 258.0 214.5Q262 217 266 219L270 220Z" fill="#292f33" />
<path d="M225.5 190.5Q213 203 213.0 220.5Q213 238 225.5 250.5Q238 263 256.0 263.0Q274 263 286.5 250.5Q299 238 299.0 220.5Q299 203 286.5 190.5Q274 178 256.0 178.0Q238 178 225.5 190.5Z" fill="#226699" />
<path d="M260.0 210.5Q256 215 256.0 220.5Q256 226 260.0 230.5Q264 235 270.0 235.0Q276 235 280.0 230.5Q284 226 284.0 220.5Q284 215 280.0 210.5Q276 206 270.0 206.0Q264 206 260.0 210.5Z" fill="#292f33" />
<path d="M22.5 44.0Q14 52 14.0 64.0Q14 76 22.5 84.0Q31 92 42.5 92.0Q54 92 62.5 84.0Q71 76 71.0 64.0Q71 52 62.5 44.0Q54 36 42.5 36.0Q31 36 22.5 44.0ZM22.5 143.5Q14 152 14.0 163.5Q14 175 22.5 183.5Q31 192 42.5 192.0Q54 192 62.5 183.5Q71 175 71.0 163.5Q71 152 62.5 143.5Q54 135 42.5 135.0Q31 135 22.5 143.5ZM79.5 243.0Q71 251 71.0 263.0Q71 275 79.5 283.5Q88 292 99.5 292.0Q111 292 119.5 283.5Q128 275 128.0 263.0Q128 251 119.5 243.0Q111 235 99.5 235.0Q88 235 79.5 243.0ZM179.0 314.0Q171 322 171.0 334.0Q171 346 179.0 354.5Q187 363 199.0 363.0Q211 363 219.5 354.5Q228 346 228.0 334.0Q228 322 219.5 314.0Q211 306 199.0 306.0Q187 306 179.0 314.0ZM91.5 27.5Q85 34 85.0 43.0Q85 52 91.5 58.0Q98 64 107.0 64.0Q116 64 122.0 58.0Q128 52 128.0 43.0Q128 34 122.0 27.5Q116 21 107.0 21.0Q98 21 91.5 27.5ZM91.5 113.0Q85 119 85.0 128.0Q85 137 91.5 143.0Q98 149 107.0 149.0Q116 149 122.0 143.0Q128 137 128.0 128.0Q128 119 122.0 113.0Q116 107 107.0 107.0Q98 107 91.5 113.0ZM134.0 198.0Q128 204 128.0 213.0Q128 222 134.0 228.5Q140 235 149.0 235.0Q158 235 164.5 228.5Q171 222 171.0 213.0Q171 204 164.5 198.0Q158 192 149.0 192.0Q140 192 134.0 198.0ZM146.5 25.5Q142 30 142.0 35.5Q142 41 146.5 45.5Q151 50 156.5 50.0Q162 50 166.5 45.5Q171 41 171.0 35.5Q171 30 166.5 25.5Q162 21 156.5 21.0Q151 21 146.5 25.5ZM146.5 96.5Q142 101 142.0 107.0Q142 113 146.5 117.0Q151 121 156.5 121.0Q162 121 166.5 117.0Q171 113 171.0 107.0Q171 101 166.5 96.5Q162 92 156.5 92.0Q151 92 146.5 96.5ZM189.0 153.5Q185 158 185.0 163.5Q185 169 189.0 173.5Q193 178 199.0 178.0Q205 178 209.0 173.5Q213 169 213.0 163.5Q213 158 209.0 153.5Q205 149 199.0 149.0Q193 149 189.0 153.5Z" fill="#55acee" />
</g></svg>