<svg xmlns="http://www.w3.org/2000/svg" viewBox="0 0 2048 2048">
<g transform="matrix(1 0 0 -1 0 2048)">
<path d="M512 -7Q512 -31 495.5 -47.5Q479 -64 455 -64H57Q33 -64 16.5 -47.5Q0 -31 0 -7V391Q0 415 16.5 431.5Q33 448 57 448H455Q479 448 495.5 431.5Q512 415 512 391Z" fill="#9266cc" />
<path d="M115.5 332.5Q174 391 256.0 391.0Q338 391 396.5 332.5Q455 274 455.0 192.0Q455 110 396.5 51.5Q338 -7 256.0 -7.0Q174 -7 115.5 51.5Q57 110 57.0 192.0Q57 274 115.5 332.5ZM414 192Q414 252 374.5 296.5Q335 341 277 348V208L388 105Q414 145 414 192ZM234 36V150L151 74Q187 42 234 36ZM277 150V36Q324 42 360 73ZM234 348Q176 340 137.0 295.5Q98 251 98 192Q98 145 124 106L234 208Z" fill="#ffffff" />
</g></svg>