<svg xmlns="http://www.w3.org/2000/svg" viewBox="0 0 512 512">
<g transform="matrix(1 0 0 -1 0 512)">
<path d="M245 0Q195 -51 134.0 -59.0Q73 -67 37 -30Q0 7 8.5 68.0Q17 129 66 179Q92 204 136.5 225.0Q181 246 198 262Q213 278 229.5 318.0Q246 358 275 388Q325 437 381.0 444.0Q437 451 478 411Q518 370 510.5 313.5Q503 257 454 209Q425 179 385.0 163.0Q345 147 329 131Q313 115 292.0 70.0Q271 25 245 0Z" fill="#d99e82" />
<path d="M117 144Q109 144 105 150Q97 162 109 170Q124 179 141 187Q183 203 212.5 230.0Q242 257 251 287Q253 292 258.0 295.0Q263 298 269.0 296.5Q275 295 277.5 289.5Q280 284 278 279Q267 242 233.0 210.5Q199 179 151 160Q137 154 125 146Q121 144 117 144ZM45 17Q39 17 35.0 21.0Q31 25 31 31Q32 97 68 131Q78 140 88.0 130.0Q98 120 87 110Q60 85 59 30Q59 25 55.0 21.0Q51 17 45 17ZM104 27Q102 27 100 27Q94 29 91.0 34.0Q88 39 90 44Q109 117 173 141Q187 146 192.0 132.5Q197 119 183 114Q132 95 117 37Q115 27 104 27ZM355 184Q345 184 342 193Q337 207 350 211Q441 243 462 339Q463 345 468.0 348.0Q473 351 479.0 350.0Q485 349 488.0 344.0Q491 339 490 333Q465 222 360 184Q357 184 355 184Z" fill="#c1694f" />
<path d="M348 236Q338 236 335 245Q329 259 343 264Q361 271 377.0 286.5Q393 302 401 320Q407 333 420.0 327.0Q433 321 427 308Q417 285 397.0 266.0Q377 247 353 237Q351 236 348 236ZM224 134Q214 134 211 143Q205 156 219 161Q228 165 237.5 173.5Q247 182 251 187Q258 200 270.5 192.5Q283 185 275 173Q270 163 256.5 152.0Q243 141 229 135Q227 134 224 134ZM281 314Q278 314 276 315Q263 320 267 333Q277 360 298 373Q310 380 317.5 368.0Q325 356 313 349Q300 341 294 324Q291 314 281 314ZM92 -34Q80 -34 78 -22Q76 -11 79 2Q80 8 85.0 11.0Q90 14 96.0 12.5Q102 11 105.0 6.0Q108 1 107 -4Q105 -12 106.0 -18.0Q107 -24 103.5 -28.5Q100 -33 94 -34Q93 -34 92 -34Z" fill="#c1694f" />
</g></svg>