<svg xmlns="http://www.w3.org/2000/svg" viewBox="0 0 2048 2048">
<g transform="matrix(1 0 0 -1 0 2048)">
<path d="M512 192Q512 86 437.0 11.0Q362 -64 256.0 -64.0Q150 -64 75.0 11.0Q0 86 0.0 192.0Q0 298 75.0 373.0Q150 448 256.0 448.0Q362 448 437.0 373.0Q512 298 512 192Z" fill="#ffcc4d" />
<path d="M248 189Q247 187 245.5 183.5Q244 180 238.0 172.0Q232 164 225.0 158.0Q218 152 207.5 147.0Q197 142 185.0 142.0Q173 142 162.0 147.0Q151 152 144.5 158.0Q138 164 132.0 172.0Q126 180 124.5 183.5Q123 187 122 189Q119 194 123.5 197.5Q128 201 132 198Q151 185 185 185Q221 185 238 198Q242 201 246.0 197.5Q250 194 248 189ZM390 189Q389 187 387.5 183.5Q386 180 380.0 172.0Q374 164 367.5 158.0Q361 152 350.0 147.0Q339 142 327.0 142.0Q315 142 304.5 147.0Q294 152 287.0 158.0Q280 164 274.0 172.0Q268 180 266.5 183.5Q265 187 264 189Q262 194 266.0 197.5Q270 201 274 198Q293 185 327 185Q363 185 380 198Q384 201 388.5 197.5Q393 194 390 189ZM313 50H199Q193 50 189.0 54.0Q185 58 185.0 64.0Q185 70 189.0 74.0Q193 78 199 78H313Q319 78 323.0 74.0Q327 70 327.0 64.0Q327 58 323.0 54.0Q319 50 313 50ZM85 249Q79 249 75.0 253.0Q71 257 71.0 263.0Q71 269 75.0 273.0Q79 277 85 277Q92 277 101.5 279.0Q111 281 134.0 293.5Q157 306 174 329Q182 340 193.5 331.5Q205 323 196 311Q183 294 167.0 281.5Q151 269 138.0 263.0Q125 257 112.0 253.5Q99 250 94.0 249.5Q89 249 85 249ZM427 249Q423 249 418.0 249.5Q413 250 400.0 253.5Q387 257 374.0 263.0Q361 269 345.0 281.5Q329 294 316 311Q307 323 318.5 331.5Q330 340 338 329Q355 306 378.0 293.5Q401 281 411.0 279.0Q421 277 427 277Q433 277 437.0 273.0Q441 269 441.0 263.0Q441 257 437.0 253.0Q433 249 427 249Z" fill="#664500" />
</g></svg>