<svg xmlns="http://www.w3.org/2000/svg" viewBox="0 0 512 512">
<g transform="matrix(1 0 0 -1 0 512)">
<path d="M14 235H498V149H14Z" fill="#99aab5" />
<path d="M498 149Q498 128 484 106Q473 90 455 77Q422 51 369.5 36.0Q317 21 256 21Q156 21 85 59Q47 79 28 106Q14 128 14 149Q14 202 85.0 239.5Q156 277 256.0 277.0Q356 277 427.0 239.5Q498 202 498 149Z" fill="#99aab5" />
<path d="M28 192Q47 164 85 144V59Q47 79 28 106ZM484 106Q473 90 455 77V162Q473 176 484 192Z" fill="#e1e8ed" />
<path d="M85.0 144.5Q14 182 14.0 235.0Q14 288 85.0 325.5Q156 363 256.0 363.0Q356 363 427.0 325.5Q498 288 498.0 235.0Q498 182 427.0 144.5Q356 107 256.0 107.0Q156 107 85.0 144.5Z" fill="#ccd6dd" />
<path d="M104.0 166.5Q41 198 41.0 242.0Q41 286 104.0 317.0Q167 348 256.0 348.0Q345 348 408.0 317.0Q471 286 471.0 242.0Q471 198 408.0 166.5Q345 135 256.0 135.0Q167 135 104.0 166.5Z" fill="#ea596e" />
<path d="M43 228Q41 235 41 242Q41 286 104.0 317.0Q167 348 256.0 348.0Q345 348 408.0 317.0Q471 286 471 242Q471 236 469 228Q458 267 397.5 293.5Q337 320 256.0 320.0Q175 320 114.5 293.5Q54 267 43 228Z" fill="#99aab5" />
<path d="M148.5 253.0Q142 257 142.0 263.0Q142 269 148.5 273.0Q155 277 163.5 277.0Q172 277 178.5 273.0Q185 269 185.0 263.0Q185 257 178.5 253.0Q172 249 163.5 249.0Q155 249 148.5 253.0ZM106.0 224.5Q100 229 100.0 235.0Q100 241 106.0 245.0Q112 249 121.0 249.0Q130 249 136.0 245.0Q142 241 142.0 235.0Q142 229 136.0 224.5Q130 220 121.0 220.0Q112 220 106.0 224.5ZM205.5 239.0Q199 243 199.0 249.0Q199 255 205.5 259.0Q212 263 220.5 263.0Q229 263 235.5 259.0Q242 255 242.0 249.0Q242 243 235.5 239.0Q229 235 220.5 235.0Q212 235 205.5 239.0ZM148.5 196.0Q142 200 142.0 206.0Q142 212 148.5 216.0Q155 220 163.5 220.0Q172 220 178.5 216.0Q185 212 185.0 206.0Q185 200 178.5 196.0Q172 192 163.5 192.0Q155 192 148.5 196.0ZM290.5 182.0Q284 186 284.0 192.0Q284 198 290.5 202.0Q297 206 306.0 206.0Q315 206 321.0 202.0Q327 198 327.0 192.0Q327 186 321.0 182.0Q315 178 306.0 178.0Q297 178 290.5 182.0Z" fill="#f5f8fa" />
</g></svg>