<svg xmlns="http://www.w3.org/2000/svg" viewBox="0 0 2048 2048">
<g transform="matrix(1 0 0 -1 0 2048)">
<path d="M469 7H28Q0 7 0 36Q0 46 3.5 53.0Q7 60 11 62L14 64V121Q14 133 23.0 141.5Q32 150 44.5 154.0Q57 158 69.5 160.5Q82 163 91 163L100 164Q101 168 104.5 176.0Q108 184 117.5 203.5Q127 223 136.5 238.0Q146 253 159.5 265.0Q173 277 185 277H256Q273 277 278.5 269.5Q284 262 284 249V164H455Q466 164 474.5 154.5Q483 145 483 137Q484 119 484 64Q484 44 483.5 36.5Q483 29 481.5 20.5Q480 12 477.5 9.5Q475 7 469 7Z" fill="#dd2e44" />
<path d="M87.5 -33.0Q71 -16 71.0 7.5Q71 31 87.5 47.5Q104 64 128.0 64.0Q152 64 168.5 47.5Q185 31 185.0 7.5Q185 -16 168.5 -33.0Q152 -50 128.0 -50.0Q104 -50 87.5 -33.0ZM343.5 -33.0Q327 -16 327.0 7.5Q327 31 343.5 47.5Q360 64 384.0 64.0Q408 64 424.5 47.5Q441 31 441.0 7.5Q441 -16 424.5 -33.0Q408 -50 384.0 -50.0Q360 -50 343.5 -33.0Z" fill="#292f33" />
<path d="M108.0 -13.0Q100 -5 100.0 7.0Q100 19 108.0 27.5Q116 36 128.0 36.0Q140 36 148.0 27.5Q156 19 156.0 7.0Q156 -5 148.0 -13.0Q140 -21 128.0 -21.0Q116 -21 108.0 -13.0ZM364.0 -13.0Q356 -5 356.0 7.0Q356 19 364.0 27.5Q372 36 384.0 36.0Q396 36 404.0 27.5Q412 19 412.0 7.0Q412 -5 404.0 -13.0Q396 -21 384.0 -21.0Q372 -21 364.0 -13.0Z" fill="#ccd6dd" />
<path d="M142 178Q142 190 158.5 219.5Q175 249 185 249H228Q233 249 237.5 245.0Q242 241 242 235V178Q242 172 237.5 168.0Q233 164 228 164H156Q151 164 149.0 164.5Q147 165 144.5 168.0Q142 171 142 178Z" fill="#bbddf5" />
<path d="M491 121H284V164H491Q500 164 506.0 157.5Q512 151 512.0 142.0Q512 133 505.5 127.0Q499 121 491 121Z" fill="#f492a9" />
<path d="M14 121H28V50H14Z" fill="#99aab5" />
<path d="M28 7H14Q8 7 4.0 11.0Q0 15 0 21V50Q0 56 4.0 60.0Q8 64 14 64H28Q34 64 38.5 60.0Q43 56 43 50V21Q43 15 38.5 11.0Q34 7 28 7ZM484 7H469Q463 7 459.0 11.0Q455 15 455 21V50Q455 56 459.0 60.0Q463 64 469 64H484Q489 64 493.5 60.0Q498 56 498 50V21Q498 15 493.5 11.0Q489 7 484 7Z" fill="#ccd6dd" />
</g></svg>