<svg xmlns="http://www.w3.org/2000/svg" viewBox="0 0 2048 2048">
<g transform="matrix(1 0 0 -1 0 2048)">
<path d="M110 403Q111 405 112.5 407.5Q114 410 120.0 413.0Q126 416 134 415Q164 411 228.0 397.0Q292 383 328.0 366.0Q364 349 387.5 337.0Q411 325 441.0 304.0Q471 283 490 261Q494 256 495.5 250.5Q497 245 497 242L496 239L481 134Q477 113 456 107L36 -9Q35 -8 30.0 -9.5Q25 -11 19.5 -6.5Q14 -2 14 8V119Q16 132 22 147Z" fill="#f4900c" />
<path d="M435 156Q447 145 446 137Q445 133 441 132L23 17Q22 17 21 17Q19 17 17 18Q14 20 14 24L103 293Q105 298 111 298Q192 290 289.0 246.5Q386 203 435 156Z" fill="#a0041e" />
<path d="M445 137 14 21V122Q23 141 36.0 172.0Q49 203 73.5 276.5Q98 350 105 396Q172 386 232.5 366.5Q293 347 332.5 325.5Q372 304 401.5 284.0Q431 264 444 251L457 238Z" fill="#a0041e" />
<path d="M105.5 110.5Q116 100 116.0 85.0Q116 70 105.5 59.0Q95 48 80.0 48.0Q65 48 54.0 59.0Q43 70 43.0 85.0Q43 100 54.0 110.5Q65 121 80.0 121.0Q95 121 105.5 110.5ZM177.0 167.5Q188 157 188.0 142.0Q188 127 177.0 116.0Q166 105 151.0 105.0Q136 105 125.0 116.0Q114 127 114.0 142.0Q114 157 125.0 167.5Q136 178 151.0 178.0Q166 178 177.0 167.5ZM262.0 153.5Q273 143 273.0 127.5Q273 112 262.0 101.5Q251 91 236.0 91.0Q221 91 210.5 101.5Q200 112 200.0 127.5Q200 143 210.5 153.5Q221 164 236.0 164.0Q251 164 262.0 153.5ZM333.5 210.5Q344 200 344.0 184.5Q344 169 333.5 158.5Q323 148 307.5 148.0Q292 148 281.5 158.5Q271 169 271.0 184.5Q271 200 281.5 210.5Q292 221 307.5 221.0Q323 221 333.5 210.5ZM418.5 196.0Q429 185 429.0 170.0Q429 155 418.5 144.5Q408 134 393.0 134.0Q378 134 367.0 144.5Q356 155 356.0 170.0Q356 185 367.0 196.0Q378 207 393.0 207.0Q408 207 418.5 196.0Z" fill="#be1931" />
<path d="M456 256Q468 245 466 232Q465 228 461 227L23 117Q22 116 21 116Q19 116 17 118Q14 120 14 123Q14 138 15 142L103 392Q105 398 111 397Q194 389 301.5 345.0Q409 301 456 256Z" fill="#f4900c" />
<path d="M456 256Q462 250 460 249Q458 248 457 246Q456 242 452 241L23 131Q22 131 21 131Q19 131 17 132Q14 134 14 138L103 392Q105 398 111 397Q194 389 301.5 345.0Q409 301 456 256Z" fill="#f4900c" />
<path d="M137 160 58 140 28 178Q32 191 42.5 220.5Q53 250 58 265L73 246L137 253L113 286L64 282L103 392Q105 398 111 397Q145 394 189 383L139 377L163 345L224 351L204 379Q289 355 366 316L346 313L374 276L424 281Q444 268 456 256Q462 251 464 244L413 231L408 230H409L329 209L321 220L261 213L274 195L195 175L175 203L111 195ZM260 303 199 296 225 262 286 268Z" fill="#ffcc4d" />
<path d="M154 199Q157 200 177.5 209.0Q198 218 211.5 220.0Q225 222 246.5 217.0Q268 212 270 212L303 216Q305 216 328.0 226.0Q351 236 362 238Q373 239 392.5 233.5Q412 228 416 229Q426 227 416 225Q412 225 392.0 229.0Q372 233 364 232Q354 230 335.0 222.0Q316 214 303 212Q274 208 268 207Q261 207 241.5 212.0Q222 217 211 215Q201 213 184.0 204.5Q167 196 154 195Q148 194 146 195L149 198Q151 198 154 199ZM93 157Q95 158 103.0 160.0Q111 162 114.0 162.5Q117 163 122.5 163.5Q128 164 131.5 163.0Q135 162 137 160L99 145L58 140L64 146Q73 153 93 157ZM233 193Q266 201 274 195L236 181L195 175Q199 185 233 193Z" fill="#f4900c" />
<path d="M366 226Q394 234 406 231Q447 242 463 244Q426 231 414 228Q413 228 401.5 225.0Q390 222 379.5 219.0Q369 216 356.5 213.0Q344 210 337.0 209.0Q330 208 329 209Q328 216 366 226Z" fill="#f4900c" />
<path d="M28 178Q27 195 39 226Q43 239 46.0 246.0Q49 253 51.5 258.5Q54 264 55.5 265.5Q57 267 58 265Q60 263 55.0 242.5Q50 222 46 213Q45 210 42.0 202.0Q39 194 36.5 188.0Q34 182 32 180ZM64 282Q65 304 70 319Q73 328 79.5 337.0Q86 346 86 347Q87 348 88.0 359.5Q89 371 91 376Q94 382 96.0 386.5Q98 391 102.5 395.0Q107 399 110.5 397.0Q114 395 109.5 380.0Q105 365 96.5 346.0Q88 327 87 324Q86 319 80.0 308.5Q74 298 69 290Z" fill="#ffcc4d" />
<path d="M98 285Q100 285 120.5 294.5Q141 304 154.5 305.5Q168 307 189.5 302.0Q211 297 213 298L246 301Q248 302 271.0 312.0Q294 322 305 323Q316 325 335.5 319.5Q355 314 359 315Q369 312 359 311Q355 310 335.5 314.5Q316 319 307 317Q297 316 278.0 308.0Q259 300 246 298Q217 293 212 292Q205 292 185.0 297.0Q165 302 154 300Q144 298 127.0 289.5Q110 281 98 280Q91 279 89 280L92 283Q95 284 98 285ZM126 197Q123 196 106.0 201.0Q89 206 73 203Q61 201 49.5 195.0Q38 189 33 183L28 178L29 170Q23 175 32 178Q33 178 47.0 187.0Q61 196 75 198Q88 199 102.0 195.5Q116 192 121 192Q129 192 129 193Q126 197 126 197ZM398 231 421 230 427 235 423 222 404 216ZM101 381Q111 385 128.0 381.0Q145 377 151 378Q159 379 162 378Q165 377 160 375Q158 374 155 373Q149 372 128.5 375.5Q108 379 102 377Q97 375 93.5 371.0Q90 367 89 364L88 361L90 373L92 377Q95 379 101 381ZM129 252Q118 250 118 253Q118 255 129 257Q138 258 144.5 260.5Q151 263 157.5 266.5Q164 270 168 272Q183 277 205.5 273.0Q228 269 233 272Q237 273 239 269Q240 265 233 264Q230 263 226 263Q224 263 209.0 267.0Q194 271 183 268Q173 267 159.0 261.0Q145 255 129 252ZM277 267Q272 266 269 267Q265 269 271 270Q274 271 277 272Q284 273 298.0 279.0Q312 285 324 288Q337 290 357.0 286.5Q377 283 379 283Q384 283 384 281Q385 277 374 276Q369 276 353.0 280.0Q337 284 327 282Q317 281 300.0 274.0Q283 267 277 267ZM46 246 49 252Q53 254 63.5 253.0Q74 252 80 253Q85 255 87 254Q89 252 82 249Q81 248 78 247Q73 245 62.0 246.0Q51 247 46 246ZM121 349Q113 349 94 340L78 335L82 340Q89 341 97.5 345.0Q106 349 118 352Q128 354 144.5 351.5Q161 349 163 349Q172 350 173 348L165 345Q158 344 144.5 346.5Q131 349 121 349ZM221 351Q215 350 213 351Q209 352 214 354Q217 355 221 355Q227 356 234.0 358.0Q241 360 246 362L250 364L258 362Q251 361 239.5 356.0Q228 351 221 351Z" fill="#f4900c" />
</g></svg>