<svg xmlns="http://www.w3.org/2000/svg" viewBox="0 0 512 512">
<g transform="matrix(1 0 0 -1 0 512)">
<path d="M480 158Q512 139 512 124Q512 113 487 120Q483 121 481 122Q481 115 481 113Q481 112 480.5 111.0Q480 110 480 109Q479 101 478 97Q467 36 424.5 -14.0Q382 -64 361 -64Q357 -64 354.0 -62.0Q351 -60 350.0 -55.0Q349 -50 348.5 -45.0Q348 -40 348.0 -31.0Q348 -22 347 -15Q324 -19 301 -19Q259 -19 218 -8Q208 -30 193.0 -47.0Q178 -64 166 -64Q155 -64 154.0 -52.0Q153 -40 150.5 -17.0Q148 6 136 25Q109 40 66.5 70.5Q24 101 23 102Q7 112 4.0 121.0Q1 130 1 154Q1 169 1.0 175.5Q1 182 3.0 191.0Q5 200 10.0 203.5Q15 207 23 207Q42 207 54.5 210.5Q67 214 73.5 218.0Q80 222 94.0 233.0Q108 244 120 252Q134 261 154 269Q154 274 152.0 286.5Q150 299 150.5 305.5Q151 312 154 312Q159 312 172.0 302.0Q185 292 193 282Q209 286 225 289Q256 296 287 297Q296 297 301 297Q377 297 424.0 258.5Q471 220 480 158Z" fill="#f4abba" />
<path d="M146.5 217.5Q151 213 151.0 207.0Q151 201 146.5 196.5Q142 192 135.5 192.0Q129 192 124.5 196.5Q120 201 120.0 207.0Q120 213 124.5 217.5Q129 222 135.5 222.0Q142 222 146.5 217.5Z" fill="#292f33" />
</g></svg>