<svg xmlns="http://www.w3.org/2000/svg" viewBox="0 0 512 512">
<g transform="matrix(1 0 0 -1 0 512)">
<path d="M341 36H171Q106 36 60.0 81.5Q14 127 14.0 192.0Q14 257 60.0 302.5Q106 348 171 348H341Q406 348 452.0 302.5Q498 257 498.0 192.0Q498 127 452.0 81.5Q406 36 341 36Z" fill="#e6aaaa" />
<path d="M102.0 132.0Q85 157 85.0 192.0Q85 227 102.0 252.0Q119 277 142.5 277.0Q166 277 182.5 252.0Q199 227 199.0 192.0Q199 157 182.5 132.0Q166 107 142.5 107.0Q119 107 102.0 132.0ZM329.5 132.0Q313 157 313.0 192.0Q313 227 329.5 252.0Q346 277 369.5 277.0Q393 277 410.0 252.0Q427 227 427.0 192.0Q427 157 410.0 132.0Q393 107 369.5 107.0Q346 107 329.5 132.0Z" fill="#662113" />
</g></svg>