<svg xmlns="http://www.w3.org/2000/svg" viewBox="0 0 512 512">
<g transform="matrix(1 0 0 -1 0 512)">
<path d="M285 184Q242 109 313 107Q347 106 356.5 122.5Q366 139 358 175Q324 345 319 361Q314 377 321.5 392.5Q329 408 345.5 413.5Q362 419 377.0 411.0Q392 403 398 387V388Q417 421 432 372Q433 367 434 362Q441 336 456.0 233.5Q471 131 470 86Q468 29 455.5 6.5Q443 -16 419 -26Q381 -42 314.0 -53.0Q247 -64 189 -61Q40 -55 40 -6Q40 13 41.0 49.0Q42 85 42 92Q42 104 71.0 133.0Q100 162 125 175Q137 180 160.5 183.0Q184 186 204.0 185.5Q224 185 251.5 184.5Q279 184 285 184Z" fill="#ef9645" />
<path d="M241 124Q244 124 248.5 124.5Q253 125 264.0 128.5Q275 132 284.0 137.5Q293 143 300.5 153.5Q308 164 309 178Q309 183 310.5 199.5Q312 216 312.5 225.0Q313 234 313 243Q283 353 280 368Q276 392 289.0 408.0Q302 424 322.5 423.0Q343 422 359 404Q375 384 376.5 333.0Q378 282 369.5 230.0Q361 178 348.0 136.0Q335 94 323 90Q309 86 288.5 94.5Q268 103 255 113Z" fill="#ef9645" />
<path d="M247 122Q250 122 254.0 123.0Q258 124 270.0 128.5Q282 133 291.5 138.5Q301 144 309.5 155.0Q318 166 319 180Q327 231 323 248Q318 275 305.0 319.0Q292 363 290 371Q286 392 298.5 407.0Q311 422 331.0 419.0Q351 416 364 393Q380 364 383.0 293.5Q386 223 377.0 161.5Q368 100 354 93Q341 86 314.0 93.5Q287 101 267 111Z" fill="#f9ca55" />
<path d="M265 120Q268 121 272.0 121.5Q276 122 287.0 125.5Q298 129 306.5 135.0Q315 141 323.0 152.5Q331 164 333 179Q341 241 339 253Q334 283 327.0 311.5Q320 340 314.0 360.0Q308 380 307 385Q302 409 315.5 426.5Q329 444 347.5 443.5Q366 443 383 424Q399 403 401.0 348.0Q403 293 394.5 237.5Q386 182 372.5 137.5Q359 93 348 89Q334 84 313.0 92.0Q292 100 279 110Z" fill="#ef9645" />
<path d="M272 117Q275 118 279.0 118.5Q283 119 294.5 122.5Q306 126 315.5 132.0Q325 138 333.5 149.0Q342 160 344 175Q354 238 350 257Q344 284 331.5 327.5Q319 371 317 381Q312 405 324.5 423.5Q337 442 356.0 441.0Q375 440 389 415Q405 384 407.5 308.0Q410 232 401.0 165.5Q392 99 378 92Q361 85 337.5 91.0Q314 97 293 107Z" fill="#f9ca55" />
<path d="M433 385Q447 284 447 267Q454 99 418 88Q387 79 297 100Q268 107 269 110Q269 111 275 111Q391 116 359 262Q331 392 353 420Q364 433 380.0 436.0Q396 439 411.5 426.0Q427 413 433 385Z" fill="#ef9645" />
<path d="M431 382Q440 347 455 293Q458 282 462.0 209.0Q466 136 464 118Q463 110 451.5 102.5Q440 95 414.0 83.5Q388 72 380 68Q355 56 302 77Q277 87 279 94Q280 96 287 97Q347 104 363.5 144.0Q380 184 366 270Q366 274 365 282Q358 322 355.5 341.0Q353 360 353.0 380.0Q353 400 358 410Q366 426 380.0 431.0Q394 436 409.0 423.5Q424 411 431 382Z" fill="#f9ca55" />
<path d="M287 188Q278 173 273.5 158.5Q269 144 268.5 131.0Q268 118 277.5 112.0Q287 106 306 108Q329 112 345.5 123.5Q362 135 361 156Q358 245 352 258Q342 286 333.5 308.0Q325 330 321.0 339.5Q317 349 316 357Q312 374 320.5 391.0Q329 408 345 413Q362 419 377.0 411.0Q392 403 398 387Q398 387 400.0 379.0Q402 371 406.0 358.0Q410 345 415.0 328.5Q420 312 425.5 293.0Q431 274 436.5 256.5Q442 239 447.0 223.0Q452 207 456 196Q465 169 463 89Q462 51 454.0 28.0Q446 5 437.0 -3.0Q428 -11 411 -18Q373 -35 308.5 -46.0Q244 -57 188 -54Q161 -53 148.5 -52.5Q136 -52 116.0 -50.0Q96 -48 86.5 -45.0Q77 -42 66.0 -37.5Q55 -33 50.5 -26.0Q46 -19 46 -9Q40 72 42 92Q43 104 72.0 133.0Q101 162 125 175Q133 179 147.0 181.5Q161 184 174.0 185.5Q187 187 207.0 187.5Q227 188 237.5 188.0Q248 188 267.0 188.0Q286 188 287 188Z" fill="#ef9645" />
<path d="M42 91Q42 124 55.5 147.5Q69 171 89.0 184.0Q109 197 133.5 212.0Q158 227 180.0 242.5Q202 258 220.0 287.0Q238 316 243 356Q249 401 286 397Q303 395 311.5 378.0Q320 361 320 338Q320 323 317.5 301.0Q315 279 308.5 246.0Q302 213 285.5 184.0Q269 155 246.0 142.0Q223 129 132.5 104.5Q42 80 42 91Z" fill="#ef9645" />
<path d="M458 200Q464 141 463 89Q462 51 454.0 28.0Q446 5 437.0 -3.0Q428 -11 411 -18Q376 -33 314.0 -39.5Q252 -46 190 -43Q122 -40 85.0 -28.0Q48 -16 46 12Q41 83 42 91Q42 124 55.5 147.5Q69 171 89.0 184.0Q109 197 133.5 212.0Q158 227 180.0 242.5Q202 258 220.0 287.0Q238 316 243 356Q246 378 257.0 387.0Q268 396 285 390Q301 384 306.0 370.5Q311 357 311 333Q311 246 276 187L272 179Q260 158 258.0 141.0Q256 124 269.0 112.0Q282 100 312 101Q333 102 353.5 114.5Q374 127 374 147Q375 177 371.0 215.0Q367 253 365 261Q363 267 347.0 303.5Q331 340 329 347Q321 367 327.0 385.5Q333 404 349 409Q381 420 398 387Q415 353 444 287Q450 273 458 200Z" fill="#ffdc5d" />
</g></svg>