<svg xmlns="http://www.w3.org/2000/svg" viewBox="0 0 2048 2048">
<g transform="matrix(1 0 0 -1 0 2048)">
<path d="M455 14Q455 -12 436.0 -31.0Q417 -50 391.0 -50.0Q365 -50 346.0 -31.0Q327 -12 327 14V184Q327 211 346.5 237.0Q366 263 391.0 263.0Q416 263 435.5 237.0Q455 211 455 184Z" fill="#77b255" />
<path d="M292.5 408.5Q305 392 305.0 368.5Q305 345 292.5 328.5Q280 312 262.5 312.0Q245 312 232.5 328.5Q220 345 220.0 368.5Q220 392 232.5 408.5Q245 425 262.5 425.0Q280 425 292.5 408.5Z" fill="#ffe8b6" />
<path d="M327 14Q327 -12 308.0 -31.0Q289 -50 263.0 -50.0Q237 -50 218.0 -31.0Q199 -12 199 14V369Q199 396 218.5 422.0Q238 448 263.0 448.0Q288 448 307.5 422.0Q327 396 327 369ZM199 14Q199 -12 180.0 -31.0Q161 -50 135.0 -50.0Q109 -50 90.0 -31.0Q71 -12 71 14V283Q71 311 90.5 337.0Q110 363 135.0 363.0Q160 363 179.5 337.0Q199 311 199 283Z" fill="#77b255" />
<path d="M292.5 408.5Q305 392 305.0 368.5Q305 345 292.5 328.5Q280 312 262.5 312.0Q245 312 232.5 328.5Q220 345 220.0 368.5Q220 392 232.5 408.5Q245 425 262.5 425.0Q280 425 292.5 408.5ZM420.5 223.5Q433 207 433.0 183.5Q433 160 420.5 143.5Q408 127 390.5 127.0Q373 127 360.5 143.5Q348 160 348.0 183.5Q348 207 360.5 223.5Q373 240 390.5 240.0Q408 240 420.5 223.5ZM164.5 323.5Q177 307 177.0 283.5Q177 260 164.5 243.5Q152 227 134.5 227.0Q117 227 104.5 243.5Q92 260 92.0 283.5Q92 307 104.5 323.5Q117 340 134.5 340.0Q152 340 164.5 323.5Z" fill="#ffe8b6" />
<path d="M327 121H199Q193 121 189.0 125.0Q185 129 185.0 135.0Q185 141 189.0 145.0Q193 149 199 149H327Q333 149 337.0 145.0Q341 141 341.0 135.0Q341 129 337.0 125.0Q333 121 327 121ZM327 235H199Q193 235 189.0 239.0Q185 243 185.0 249.0Q185 255 189.0 259.0Q193 263 199 263H327Q333 263 337.0 259.0Q341 255 341.0 249.0Q341 243 337.0 239.0Q333 235 327 235ZM199 178H71Q65 178 61.0 182.0Q57 186 57.0 192.0Q57 198 61.0 202.0Q65 206 71 206H199Q205 206 209.0 202.0Q213 198 213.0 192.0Q213 186 209.0 182.0Q205 178 199 178Z" fill="#5c913b" />
<path d="M462 -50H64Q49 -50 38.5 -39.5Q28 -29 28.0 -14.0Q28 1 38.5 11.0Q49 21 64 21H462Q477 21 487.5 11.0Q498 1 498.0 -14.0Q498 -29 487.5 -39.5Q477 -50 462 -50Z" fill="#d99e82" />
<path d="M441 64Q462 53 480.0 35.5Q498 18 498 7V-7H28V7Q28 18 46.0 35.5Q64 53 85 64Q102 72 120 79Q130 57 138 33Q140 27 143.5 24.0Q147 21 149.0 24.0Q151 27 150 37Q147 63 144 87Q187 99 234 101Q234 94 235.0 80.0Q236 66 236.5 56.0Q237 46 238 42Q239 28 249.0 28.0Q259 28 261 43Q261 48 263.5 68.0Q266 88 268 102Q318 100 369 87Q368 82 359 34Q358 27 359.5 23.0Q361 19 365.0 21.0Q369 23 372 32Q374 36 377.5 43.5Q381 51 386.0 62.0Q391 73 394 81Z" fill="#5c913b" />
</g></svg>