<svg xmlns="http://www.w3.org/2000/svg" viewBox="0 0 512 512">
<g transform="matrix(1 0 0 -1 0 512)">
<path d="M236 198H311V183H236Z" fill="#ffac33" />
<path d="M227 226Q240 212 240.0 190.0Q240 168 227 155Q221 150 216.0 155.0Q211 160 216 166Q225 175 225.0 190.5Q225 206 216 215Q211 220 216 226Q218 228 221.0 228.0Q224 228 227 226Z" fill="#ffac33" />
<path d="M340 114H218Q176 114 164 152L129 246L159 257L194 162Q199 146 218 146H340Z" fill="#77b255" />
<path d="M501 288 473 280 454 340 482 348Q488 350 494.0 347.0Q500 344 502 338L511 308Q513 302 510.0 296.0Q507 290 501 288ZM119 402Q130 402 144.0 395.0Q158 388 158.0 378.5Q158 369 144.0 362.0Q130 355 119 355Q109 355 102.0 362.0Q95 369 95.0 378.5Q95 388 102.0 395.0Q109 402 119 402Z" fill="#3e721d" />
<path d="M24 349H49V278H24Q15 278 8.0 284.5Q1 291 1 300V327Q1 336 8.0 342.5Q15 349 24 349Z" fill="#e95f28" />
<path d="M69 264H313V234H107Q89 234 79.0 243.0Q69 252 69 264Z" fill="#5c913b" />
<path d="M502 30Q506 16 497.0 3.5Q488 -9 473 -9H353Q346 -9 340.5 -3.5Q335 2 335 10Q335 16 343.0 27.0Q351 38 348 49L286 245Q281 262 263 262H68Q55 262 46.0 271.0Q37 280 37 294V345Q37 368 99.0 379.5Q161 391 239 391Q310 391 364.5 385.0Q419 379 437 373L456 367Q466 364 471 354Q487 322 495 283Q501 259 478 242Q458 227 455.5 204.0Q453 181 463 155Z" fill="#77b255" />
<path d="M391 149Q380 149 377 160Q349 271 259 299Q220 311 169.0 311.5Q118 312 99.5 309.0Q81 306 67 303Q61 302 56.0 305.0Q51 308 50.0 314.0Q49 320 52.0 325.0Q55 330 61 331Q75 334 96.5 337.5Q118 341 171.5 340.0Q225 339 267 326Q372 293 405 167Q406 161 403.0 156.0Q400 151 395 150Q393 149 391 149Z" fill="#a6d388" />
<path d="M382.0 263.0Q368 277 368.0 296.5Q368 316 382.0 329.5Q396 343 415.5 343.0Q435 343 448.5 329.5Q462 316 462.0 296.5Q462 277 448.5 263.0Q435 249 415.5 249.0Q396 249 382.0 263.0Z" fill="#f5f8fa" />
<path d="M392.0 273.5Q382 283 382.0 296.5Q382 310 392.0 319.5Q402 329 415.5 329.0Q429 329 438.5 319.5Q448 310 448.0 296.5Q448 283 438.5 273.5Q429 264 415.5 264.0Q402 264 392.0 273.5Z" fill="#ffcc4d" />
</g></svg>