<svg xmlns="http://www.w3.org/2000/svg" viewBox="0 0 512 512">
<g transform="matrix(1 0 0 -1 0 512)">
<path d="M284 -28Q284 -37 278.0 -43.5Q272 -50 263 -50H235Q226 -50 219.5 -43.5Q213 -37 213 -28V412Q213 421 219.5 427.5Q226 434 235 434H263Q272 434 278.0 427.5Q284 421 284 412Z" fill="#d99e82" />
<path d="M398 149H100Q88 149 79.5 157.5Q71 166 71 178V377Q71 389 79.5 397.0Q88 405 100 405H398Q410 405 418.5 397.0Q427 389 427 377V178Q427 166 418.5 157.5Q410 149 398 149Z" fill="#e1e8ed" />
<path d="M242 249H142Q136 249 132.0 253.0Q128 257 128.0 263.0Q128 269 132.0 273.0Q136 277 142 277H242Q248 277 252.0 273.0Q256 269 256.0 263.0Q256 257 252.0 253.0Q248 249 242 249ZM356 249H299Q293 249 288.5 253.0Q284 257 284.0 263.0Q284 269 288.5 273.0Q293 277 299 277H356Q361 277 365.5 273.0Q370 269 370.0 263.0Q370 257 365.5 253.0Q361 249 356 249ZM356 320H142Q136 320 132.0 324.0Q128 328 128.0 334.0Q128 340 132.0 344.0Q136 348 142 348H356Q361 348 365.5 344.0Q370 340 370.0 334.0Q370 328 365.5 324.0Q361 320 356 320Z" fill="#66757f" />
<path d="M213 149H284V121H213Z" fill="#c1694f" />
</g></svg>