<svg xmlns="http://www.w3.org/2000/svg" viewBox="0 0 512 512">
<g transform="matrix(1 0 0 -1 0 512)">
<path d="M455 -7Q455 -31 438.5 -47.5Q422 -64 398 -64H114Q90 -64 73.5 -47.5Q57 -31 57 -7V391Q57 415 73.5 431.5Q90 448 114 448H398Q422 448 438.5 431.5Q455 415 455 391Z" fill="#e6e7e8" />
<path d="M156 348Q186 348 207.0 327.5Q228 307 228 277Q228 276 228 272Q228 256 227.0 248.0Q226 240 223.5 229.5Q221 219 214.0 214.0Q207 209 195 207Q200 214 197.5 216.0Q195 218 190.0 227.5Q185 237 185 249Q185 272 168.5 289.0Q152 306 128 306Q103 306 86 287Q90 313 110.0 330.5Q130 348 156 348Z" fill="#dd2e44" />
<path d="M327 249Q327 237 322.0 227.5Q317 218 314.5 216.0Q312 214 317 207Q305 209 298.0 214.0Q291 219 288.5 229.5Q286 240 285.0 248.0Q284 256 284 272Q284 276 284 277Q284 307 305.0 327.5Q326 348 356 348Q382 348 402.0 330.5Q422 313 426 287Q409 306 384 306Q360 306 343.5 289.0Q327 272 327 249Z" fill="#55acee" />
<path d="M199 277Q199 309 213.5 341.0Q228 373 242 389L256 405Q262 399 271.5 387.5Q281 376 297.0 342.5Q313 309 313 277Q313 224 296.5 186.5Q280 149 256.0 149.0Q232 149 215.5 186.5Q199 224 199 277Z" fill="#ffac33" />
<path d="M166 148Q193 145 210.5 125.0Q228 105 228 78Q228 49 207.0 28.0Q186 7 156 7Q130 7 110.0 24.5Q90 42 86 68Q103 50 128 50Q152 50 168.5 66.5Q185 83 185 107Q185 131 166 148ZM384 50Q409 50 426 68Q422 42 402.0 24.5Q382 7 356 7Q326 7 305.0 28.0Q284 49 284 78Q284 105 301.5 125.0Q319 145 346 148Q327 131 327 107Q327 83 343.5 66.5Q360 50 384 50Z" fill="#553788" />
<path d="M199 107Q199 125 201 142Q207 183 222.0 209.0Q237 235 256.0 235.0Q275 235 290.0 209.0Q305 183 311 142Q313 125 313 107Q313 74 301.5 43.0Q290 12 277.0 -4.5Q264 -21 256.0 -21.0Q248 -21 235.0 -4.5Q222 12 210.5 43.0Q199 74 199 107Z" fill="#9266cc" />
<path d="M185 206Q185 226 191.5 238.5Q198 251 210.5 255.5Q223 260 232.5 261.5Q242 263 256.0 263.0Q270 263 279.5 261.5Q289 260 301.5 255.5Q314 251 320.5 238.5Q327 226 327 206Q327 165 306.0 136.0Q285 107 256.0 107.0Q227 107 206.0 136.0Q185 165 185 206Z" fill="#edbb9f" />
<path d="M217.5 196.0Q213 200 213.0 206.0Q213 212 217.5 216.0Q222 220 227.5 220.0Q233 220 237.5 216.0Q242 212 242.0 206.0Q242 200 237.5 196.0Q233 192 227.5 192.0Q222 192 217.5 196.0ZM274.5 196.0Q270 200 270.0 206.0Q270 212 274.5 216.0Q279 220 284.5 220.0Q290 220 294.5 216.0Q299 212 299.0 206.0Q299 200 294.5 196.0Q290 192 284.5 192.0Q279 192 274.5 196.0ZM228 164H284Q284 152 276.0 143.5Q268 135 256.0 135.0Q244 135 236.0 143.5Q228 152 228 164Z" fill="#662113" />
<path d="M75.0 281.5Q71 286 71.0 291.5Q71 297 75.0 301.5Q79 306 85.0 306.0Q91 306 95.5 301.5Q100 297 100.0 291.5Q100 286 95.5 281.5Q91 277 85.0 277.0Q79 277 75.0 281.5Z" fill="#a0041e" />
<path d="M416.5 281.5Q412 286 412.0 291.5Q412 297 416.5 301.5Q421 306 427.0 306.0Q433 306 437.0 301.5Q441 297 441.0 291.5Q441 286 437.0 281.5Q433 277 427.0 277.0Q421 277 416.5 281.5Z" fill="#226699" />
<path d="M246.0 395.0Q242 399 242.0 405.0Q242 411 246.0 415.5Q250 420 256.0 420.0Q262 420 266.0 415.5Q270 411 270.0 405.0Q270 399 266.0 395.0Q262 391 256.0 391.0Q250 391 246.0 395.0Z" fill="#dd2e44" />
</g></svg>