<svg xmlns="http://www.w3.org/2000/svg" viewBox="0 0 2048 2048">
<g transform="matrix(1 0 0 -1 0 2048)">
<path d="M455 135Q479 135 495.5 118.5Q512 102 512 78V50Q512 26 495.5 9.5Q479 -7 455 -7H28Q17 -7 8.5 1.5Q0 10 0 21Q0 38 15 46Q15 47 14.5 48.0Q14 49 14 50V78Q14 104 42.5 121.5Q71 139 100 144L128 149Q130 153 134.0 160.0Q138 167 150.5 184.0Q163 201 174.5 214.0Q186 227 201.0 238.0Q216 249 228 249H384Q403 249 421.0 220.5Q439 192 447 164Z" fill="#e1e8ed" />
<path d="M14 78Q14 85 17 92H510Q512 85 512 78V50Q512 26 495.5 9.5Q479 -7 455 -7H28Q17 -7 8.5 1.5Q0 10 0 21Q0 38 15 46Q15 47 14.5 48.0Q14 49 14 50Z" fill="#292f33" />
<path d="M226 -7H58Q57 0 57 7Q57 42 82.0 67.0Q107 92 142.5 92.0Q178 92 203.0 67.0Q228 42 228 7Q228 0 226 -7ZM468 -7H300Q299 0 299 7Q299 42 324.0 67.0Q349 92 384.0 92.0Q419 92 444.0 67.0Q469 42 469 7Q469 0 468 -7Z" fill="#66757f" />
<path d="M102.0 -33.0Q85 -16 85.0 7.5Q85 31 102.0 47.5Q119 64 142.5 64.0Q166 64 182.5 47.5Q199 31 199.0 7.5Q199 -16 182.5 -33.0Q166 -50 142.5 -50.0Q119 -50 102.0 -33.0ZM343.5 -33.0Q327 -16 327.0 7.5Q327 31 343.5 47.5Q360 64 384.0 64.0Q408 64 424.5 47.5Q441 31 441.0 7.5Q441 -16 424.5 -33.0Q408 -50 384.0 -50.0Q360 -50 343.5 -33.0Z" fill="#292f33" />
<path d="M122.0 -13.0Q114 -5 114.0 7.0Q114 19 122.0 27.5Q130 36 142.0 36.0Q154 36 162.5 27.5Q171 19 171.0 7.0Q171 -5 162.5 -13.0Q154 -21 142.0 -21.0Q130 -21 122.0 -13.0ZM364.0 -13.0Q356 -5 356.0 7.0Q356 19 364.0 27.5Q372 36 384.0 36.0Q396 36 404.0 27.5Q412 19 412.0 7.0Q412 -5 404.0 -13.0Q396 -21 384.0 -21.0Q372 -21 364.0 -13.0Z" fill="#e1e8ed" />
<path d="M284 249H242Q236 249 232.0 253.0Q228 257 228.0 263.0Q228 269 232.0 273.0Q236 277 242 277H284Q290 277 294.5 273.0Q299 269 299.0 263.0Q299 257 294.5 253.0Q290 249 284 249Z" fill="#dd2e44" />
<path d="M299 249H270Q264 249 260.0 253.0Q256 257 256.0 263.0Q256 269 260.0 273.0Q264 277 270 277H299Q305 277 309.0 273.0Q313 269 313.0 263.0Q313 257 309.0 253.0Q305 249 299 249ZM327 149V220H384Q390 220 401.0 202.5Q412 185 419 167L427 149ZM299 220V149H156Q161 157 169.0 169.0Q177 181 196.0 200.5Q215 220 228 220Z" fill="#55acee" />
</g></svg>