<svg xmlns="http://www.w3.org/2000/svg" viewBox="0 0 512 512">
<g transform="matrix(1 0 0 -1 0 512)">
<path d="M199 50H327V-64H199Z" fill="#66757f" />
<path d="M441 92Q441 69 424.5 52.5Q408 36 384 36H128Q104 36 87.5 52.5Q71 69 71 92V391Q71 415 87.5 431.5Q104 448 128 448H384Q408 448 424.5 431.5Q441 415 441 391Z" fill="#dd2e44" />
<path d="M100 334V363Q100 366 100.5 370.5Q101 375 108.0 383.0Q115 391 128 391H384Q387 391 392.0 390.5Q397 390 404.5 382.5Q412 375 412 363V334Z" fill="#a0041e" />
<path d="M384 277H128Q125 277 120.0 278.0Q115 279 107.5 286.0Q100 293 100 306V348H412V306Q412 293 405.0 286.0Q398 279 391 278Z" fill="#292f33" />
<path d="M156 348H356V149Q356 137 348.5 129.5Q341 122 334 122L327 121H185Q172 121 165.0 128.0Q158 135 157 142L156 149Z" fill="#e1e8ed" />
<path d="M185 121Q172 121 165.0 128.0Q158 135 157 142L156 149V348H284L213 277Q199 263 213 249Q226 236 316 121Z" fill="#ccd6dd" />
<path d="M213 249Q207 255 207.0 262.0Q207 269 210 273L213 277L284 348H313L228 263L339 124L327 121H316Q226 236 213 249Z" fill="#66757f" />
</g></svg>