<svg xmlns="http://www.w3.org/2000/svg" viewBox="0 0 512 512">
<g transform="matrix(1 0 0 -1 0 512)">
<path d="M185 -47Q150 -42 121.5 -27.5Q93 -13 75.5 4.0Q58 21 45.0 47.0Q32 73 26.5 91.5Q21 110 18.0 138.0Q15 166 14.5 176.5Q14 187 14 206H498Q498 194 497.5 184.5Q497 175 493.5 149.5Q490 124 483.5 103.5Q477 83 463.0 56.5Q449 30 430.0 10.5Q411 -9 380.5 -25.5Q350 -42 311 -49Q289 -52 250.0 -51.5Q211 -51 185 -47Z" fill="#292f33" />
<path d="M475 260Q498 235 498 205Q498 150 427.0 110.5Q356 71 256 71Q204 71 156 83Q91 69 37.5 89.0Q-16 109 26 164Q14 184 14 205Q14 260 83.5 293.0Q153 326 256 326Q287 326 318 322Q334 327 363.5 328.0Q393 329 423.5 325.0Q454 321 470.5 304.0Q487 287 475 260Z" fill="#66757f" />
<path d="M105.5 121.5Q43 151 43.0 192.0Q43 233 105.5 262.5Q168 292 256.0 292.0Q344 292 406.5 262.5Q469 233 469.0 192.0Q469 151 406.5 121.5Q344 92 256.0 92.0Q168 92 105.5 121.5Z" fill="#ffcc4d" />
<path d="M57 220Q50 248 79.0 274.5Q108 301 156 292Q185 320 242 320Q269 320 291.5 300.0Q314 280 299 249Q291 233 271.5 219.0Q252 205 222.0 198.5Q192 192 156 206Q150 200 136.5 194.5Q123 189 107.0 186.5Q91 184 76.5 192.5Q62 201 57 220Z" fill="#77b255" />
<path d="M171 206Q211 212 237.0 233.5Q263 255 270.0 276.0Q277 297 274 312Q293 302 300.5 287.5Q308 273 299 249Q286 223 246.5 205.5Q207 188 161 205Q166 206 171 206Z" fill="#5c913b" />
<path d="M71 220Q74 226 82.0 231.5Q90 237 104.0 238.0Q118 239 134.5 235.0Q151 231 172.0 216.5Q193 202 213 178Q220 171 254.0 158.5Q288 146 299 135Q316 118 283 110Q268 107 242 107Q219 107 187.0 115.0Q155 123 124.5 136.5Q94 150 77.5 172.5Q61 195 71 220Z" fill="#d99e82" />
<path d="M86 163Q102 155 139.0 147.5Q176 140 216.5 137.5Q257 135 281 147Q292 141 299 135Q316 118 283 110Q268 107 242 107Q208 107 159.5 122.5Q111 138 86 163Z" fill="#b27962" />
<path d="M384 178Q379 178 375 179L332 193Q321 197 316.0 207.5Q311 218 314.5 229.5Q318 241 328.5 246.0Q339 251 350 247L393 233Q404 229 409.5 218.5Q415 208 411 197Q405 178 384 178ZM370 135H341Q335 135 331.0 139.0Q327 143 327.0 149.0Q327 155 331.0 159.5Q335 164 341 164H370Q376 164 380.0 159.5Q384 155 384.0 149.0Q384 143 380.0 139.0Q376 135 370 135Z" fill="#ffe8b6" />
</g></svg>