<svg xmlns="http://www.w3.org/2000/svg" viewBox="0 0 512 512">
<g transform="matrix(1 0 0 -1 0 512)">
<path d="M199 301 152 253 69 336Q58 327 44.0 327.5Q30 328 19 338Q9 349 9.0 364.5Q9 380 19 391Q33 404 52 401Q49 420 62 433Q73 444 88.0 444.0Q103 444 114 433Q124 423 124.5 408.5Q125 394 116 384Z" fill="#ffd983" />
<path d="M469 -16Q459 -25 448.0 -33.5Q437 -42 416.5 -50.0Q396 -58 375.0 -58.0Q354 -58 326.0 -46.0Q298 -34 271 -7Q250 14 237.0 36.0Q224 58 219.0 73.0Q214 88 205.5 121.5Q197 155 190 175Q183 194 114 263Q119 268 135.0 272.0Q151 276 164 278L177 279Q173 322 185 334Q238 282 279 268Q297 263 334.5 255.5Q372 248 386.5 243.5Q401 239 425.0 226.0Q449 213 469 192Q498 163 507.5 128.5Q517 94 509.0 65.0Q501 36 490.5 15.5Q480 -5 469 -16Z" fill="#c1694f" />
</g></svg>