<svg xmlns="http://www.w3.org/2000/svg" viewBox="0 0 2048 2048">
<g transform="matrix(1 0 0 -1 0 2048)">
<path d="M395 356Q410 350 409.0 313.5Q408 277 391.5 231.0Q375 185 352.5 156.5Q330 128 314 134H313L21 274Q10 280 10.0 306.5Q10 333 22.0 366.0Q34 399 51.0 419.5Q68 440 80 437L394 356Q395 356 395 356Z" fill="#c4c9c8" />
<path d="M327 313Q325 313 323 313L191 353Q181 356 181 366Q181 372 185.5 376.0Q190 380 196 380Q197 380 199 380L331 340Q341 337 341 327Q341 321 337.0 317.0Q333 313 327 313Z" fill="#ffffff" />
<path d="M390 341Q393 338 394.0 326.0Q395 314 391.0 289.5Q387 265 377.0 236.5Q367 208 354.0 187.0Q341 166 332.0 157.5Q323 149 319 149Q316 151 315.0 163.0Q314 175 318.0 200.0Q322 225 332.5 253.0Q343 281 355.5 302.0Q368 323 377.0 332.0Q386 341 390 341Z" fill="#aeb3b2" />
<path d="M62.0 295.5Q47 278 36.5 282.0Q26 286 26.0 309.0Q26 332 36.5 360.5Q47 389 62.0 406.5Q77 424 87.5 420.5Q98 417 98.0 394.0Q98 371 87.5 342.0Q77 313 62.0 295.5Z" fill="#d9dddc" />
<path d="M439 -22Q471 -23 491.5 -29.0Q512 -35 512 -43Q512 -51 485.0 -57.5Q458 -64 419.5 -64.0Q381 -64 354.0 -57.5Q327 -51 327 -43Q327 -35 347.5 -29.0Q368 -23 399 -22Q397 38 383.0 80.5Q369 123 330 145Q330 145 301.0 159.0Q272 173 242.0 187.5Q212 202 210 203Q157 229 103 254Q99 256 98.5 260.0Q98 264 101.5 266.5Q105 269 109 267L329 176Q363 164 383 141Q428 91 439 -22Z" fill="#a6373b" />
<path d="M319 149 314 134Q299 139 300.0 175.5Q301 212 317.5 258.0Q334 304 357.0 332.5Q380 361 395 356L390 341Q386 341 377.0 332.0Q368 323 355.5 302.0Q343 281 332.5 253.0Q322 225 318.0 200.0Q314 175 315.0 163.0Q316 151 319 149Z" fill="#c4c9c8" />
<path d="M343 164Q382 146 409 83Q410 82 410 81Q410 76 405 76Q402 76 401 79Q391 106 377 126Q361 151 341 161Q340 163 343 164Z" fill="#bf6952" />
</g></svg>