<svg xmlns="http://www.w3.org/2000/svg" viewBox="0 0 512 512">
<g transform="matrix(1 0 0 -1 0 512)">
<path d="M508 165Q512 131 507.5 102.5Q503 74 498 64Q493 54 472.5 33.0Q452 12 427 -7Q389 -35 337.5 -49.5Q286 -64 256.0 -64.0Q226 -64 174.5 -49.5Q123 -35 85 -7Q60 12 39.5 33.0Q19 54 14 64Q9 74 4.5 102.5Q0 131 4 165Q11 228 28 263Q27 268 24.0 277.0Q21 286 15.5 311.0Q10 336 7.0 358.0Q4 380 5.0 404.5Q6 429 14 444Q21 456 73.5 435.5Q126 415 156 391Q213 405 256 405Q275 405 300.0 401.5Q325 398 340 395L356 391Q386 415 438.5 435.5Q491 456 498 444Q510 414 507.0 373.5Q504 333 494 298L484 263Q501 228 508 165Z" fill="#ffcc4d" />
<path d="M299 149Q299 137 285.0 122.0Q271 107 256.0 107.0Q241 107 227.0 122.0Q213 137 213 149Q213 158 214.5 161.5Q216 165 225.5 168.0Q235 171 256.0 171.0Q277 171 286.5 168.0Q296 165 297.5 161.5Q299 158 299 149Z" fill="#e75a70" />
<path d="M28 405Q33 418 71.5 404.0Q110 390 123 377Q115 372 104.0 364.0Q93 356 71.0 333.5Q49 311 43 292Q42 294 40.0 299.0Q38 304 33.5 319.0Q29 334 27.5 346.5Q26 359 24.5 377.0Q23 395 28 405ZM484 405Q489 382 486.0 357.0Q483 332 476 312L469 292Q463 311 443.0 332.0Q423 353 406 365L389 377Q402 390 440.5 404.0Q479 418 484 405Z" fill="#f18f26" />
<path d="M70 368Q70 382 108 366Q145 349 144 337Q144 336 142 334Q135 327 121.0 315.5Q107 304 100 297Q92 289 82 314Q70 347 70 368ZM442 368Q442 343 428 310Q420 290 412.5 297.0Q405 304 391.0 315.5Q377 327 370 334Q360 344 396 362Q434 381 441 371Q442 370 442 368Z" fill="#ffcc4d" />
<path d="M10 92Q7 92 4 95Q0 101 6 105Q13 111 25.0 118.0Q37 125 76.0 135.0Q115 145 157 142Q164 142 164 135Q163 127 156 128Q116 131 79.5 121.5Q43 112 31.5 105.0Q20 98 14 94Q12 92 10 92ZM136 159Q135 159 134 159Q67 180 9 164Q2 162 0.0 168.5Q-2 175 5 177Q12 180 25.0 182.0Q38 184 72.0 183.5Q106 183 138 173Q145 171 143 164Q141 159 136 159ZM502 92Q500 92 498 94Q492 98 480.5 105.0Q469 112 432.5 121.5Q396 131 356 128Q349 127 348 135Q348 142 355 142Q397 145 436.0 135.0Q475 125 487.0 118.0Q499 111 506 105Q512 101 508 95Q505 92 502 92ZM376 159Q371 159 369 164Q367 171 374 173Q406 183 440.0 183.5Q474 184 487.0 182.0Q500 180 507 177Q514 175 512.0 168.5Q510 162 503 164Q445 180 378 159Q377 159 376 159Z" fill="#fee7b8" />
<path d="M361 17Q363 16 363 13Q363 7 356 7Q354 7 352 8Q348 10 339.0 14.0Q330 18 305.0 24.5Q280 31 256 31Q202 31 160 8Q159 7 156 7Q154 7 152 9Q147 12 150 16Q156 24 165.5 34.5Q175 45 202.0 61.5Q229 78 256 78Q281 78 306.5 63.5Q332 49 342.5 38.0Q353 27 361 17ZM150.5 206.5Q142 221 142.0 241.5Q142 262 150.5 277.0Q159 292 170.5 292.0Q182 292 190.5 277.0Q199 262 199.0 241.5Q199 221 190.5 206.5Q182 192 170.5 192.0Q159 192 150.5 206.5ZM321.5 206.5Q313 221 313.0 241.5Q313 262 321.5 277.0Q330 292 341.5 292.0Q353 292 361.5 277.0Q370 262 370.0 241.5Q370 221 361.5 206.5Q353 192 341.5 192.0Q330 192 321.5 206.5Z" fill="#292f33" />
<path d="M293 269Q287 281 298 288Q329 308 361.0 315.0Q393 322 404.5 321.0Q416 320 423 318Q435 315 432 301Q430 295 425.5 292.0Q421 289 415.5 290.5Q410 292 400.5 293.0Q391 294 364.0 287.5Q337 281 311 264Q306 261 300.5 262.5Q295 264 293 269ZM201 264Q175 281 148.0 287.5Q121 294 111.5 293.0Q102 292 96 291Q84 288 80.5 301.5Q77 315 89 318Q96 320 107.5 321.0Q119 322 151.0 315.0Q183 308 214 288Q225 281 219 269Q217 264 211.5 262.5Q206 261 201 264Z" fill="#292f33" />
</g></svg>