<svg xmlns="http://www.w3.org/2000/svg" viewBox="0 0 512 512">
<g transform="matrix(1 0 0 -1 0 512)">
<path d="M427 277H85V377Q85 389 93.0 397.0Q101 405 112 405H400Q411 405 419.0 397.0Q427 389 427 377ZM427 7Q427 -5 418.5 -13.0Q410 -21 398 -21H114Q102 -21 93.5 -13.0Q85 -5 85 7V50H427Z" fill="#67757f" />
<path d="M384 277H128V420Q128 431 136.5 439.5Q145 448 156 448H356Q367 448 375.5 439.5Q384 431 384 420Z" fill="#e1e8ed" />
<path d="M484 92Q484 79 472.0 64.5Q460 50 441 50H71Q52 50 40.0 64.5Q28 79 28 92V220Q28 244 45.0 260.5Q62 277 85 277H427Q450 277 467.0 260.5Q484 244 484 220Z" fill="#5dadec" />
<path d="M427 92V36H85V92Q85 104 94.5 112.5Q104 121 116 121H396Q408 121 417.5 112.5Q427 104 427 92Z" fill="#292f33" />
<path d="M427 235Q427 223 418.5 214.5Q410 206 398 206H114Q102 206 93.5 214.5Q85 223 85 235V292H427Z" fill="#4289c1" />
<path d="M384 -36Q384 -47 375.5 -55.5Q367 -64 356 -64H156Q145 -64 136.5 -55.5Q128 -47 128 -36V78H384Z" fill="#e1e8ed" />
<path d="M341 21H171Q165 21 160.5 25.5Q156 30 156.0 35.5Q156 41 160.5 45.5Q165 50 171 50H341Q347 50 351.5 45.5Q356 41 356.0 35.5Q356 30 351.5 25.5Q347 21 341 21Z" fill="#9aaab4" />
<path d="M418.5 155.5Q412 162 412.0 171.0Q412 180 418.5 186.0Q425 192 434.0 192.0Q443 192 449.0 186.0Q455 180 455.0 171.0Q455 162 449.0 155.5Q443 149 434.0 149.0Q425 149 418.5 155.5Z" fill="#f5f8fa" />
<path d="M341 -21H171Q165 -21 160.5 -17.0Q156 -13 156.0 -7.0Q156 -1 160.5 3.0Q165 7 171 7H341Q347 7 351.5 3.0Q356 -1 356.0 -7.0Q356 -13 351.5 -17.0Q347 -21 341 -21ZM128 92H384V64H128Z" fill="#9aaab4" />
</g></svg>