<svg xmlns="http://www.w3.org/2000/svg" viewBox="0 0 2048 2048">
<g transform="matrix(1 0 0 -1 0 2048)">
<path d="M362 351 380 333 108 61 90 79ZM8 -3 63 51Q72 61 81.0 51.5Q90 42 81 33L26 -21Q17 -30 8.0 -21.0Q-1 -12 8 -3Z" fill="#ccd6dd" />
<path d="M108 97 126 79 54 6 36 24Z" fill="#dd2e44" />
<path d="M353 342 407 396Q416 405 425.0 396.0Q434 387 425 378L371 323Q362 314 353.0 323.5Q344 333 353 342Z" fill="#292f33" />
<path d="M364 312 342 335Q337 340 342 345L350 353Q355 358 360 353L382 330Q387 325 382 320L374 312Q369 307 364 312ZM463 359Q441 362 418 381L414 384L417 389Q428 404 453.0 409.5Q478 415 494 406Q512 397 509 382Q508 373 497.5 366.0Q487 359 472 358Q467 358 463 359ZM432 386Q455 370 471 371Q481 372 488.5 376.0Q496 380 497 385Q498 390 488 395Q477 400 460.0 397.5Q443 395 432 386Z" fill="#292f33" />
</g></svg>