<svg xmlns="http://www.w3.org/2000/svg" viewBox="0 0 512 512">
<g transform="matrix(1 0 0 -1 0 512)">
<path d="M0 391Q0 407 6.0 418.5Q12 430 20.0 435.5Q28 441 36.5 444.0Q45 447 51 448H57H455Q457 448 461.0 447.5Q465 447 475.0 444.0Q485 441 492.5 435.5Q500 430 506.0 418.5Q512 407 512 391V-7Q512 -9 511.5 -13.0Q511 -17 508.0 -27.0Q505 -37 499.5 -44.5Q494 -52 482.5 -58.0Q471 -64 455 -64H57Q55 -64 51.0 -63.5Q47 -63 37.0 -60.0Q27 -57 19.5 -51.5Q12 -46 6.0 -34.5Q0 -23 0 -7Z" fill="#3b88c3" />
<path d="M296.5 306.5Q284 321 284.0 341.5Q284 362 296.5 376.5Q309 391 327.0 391.0Q345 391 357.5 376.5Q370 362 370.0 341.5Q370 321 357.5 306.5Q345 292 327.0 292.0Q309 292 296.5 306.5ZM412 263V164Q412 151 405.0 144.0Q398 137 391 136L384 135V7Q384 1 380.5 -2.5Q377 -6 373 -7H370H356Q349 -7 345.5 -3.5Q342 0 342 4L341 7V121Q341 135 327 135Q321 135 317.5 131.5Q314 128 313 124V121V7Q313 1 309.5 -2.5Q306 -6 302 -7H299H284Q278 -7 274.5 -3.5Q271 0 271 4L270 7V249L242 220H171Q169 220 166.5 220.5Q164 221 160.0 224.5Q156 228 156.0 234.5Q156 241 160.0 244.5Q164 248 167 248L171 249H228L256 277Q270 292 284 292H384Q397 292 404.0 284.5Q411 277 412 270Z" fill="#ffffff" />
<path d="M85 135Q84 135 81.5 135.5Q79 136 75.0 139.5Q71 143 71.0 149.5Q71 156 74.5 159.5Q78 163 82 163L85 164Q89 164 93.5 163.0Q98 162 106.0 155.0Q114 148 114 135V21H199V135Q199 148 206.0 155.0Q213 162 220 163L228 164Q229 164 231.5 163.5Q234 163 238.0 159.5Q242 156 242.0 149.5Q242 143 238.5 139.5Q235 136 231 136L228 135V21Q228 18 227.0 13.5Q226 9 219.0 1.0Q212 -7 199 -7H114Q111 -7 106.0 -6.5Q101 -6 93.0 1.5Q85 9 85 21Z" fill="#ffffff" />
<path d="M136.5 143.5Q128 152 128.0 163.5Q128 175 136.5 183.5Q145 192 156.5 192.0Q168 192 176.5 183.5Q185 175 185.0 163.5Q185 152 176.5 143.5Q168 135 156.5 135.0Q145 135 136.5 143.5Z" fill="#ffffff" />
</g></svg>