<svg xmlns="http://www.w3.org/2000/svg" viewBox="0 0 2048 2048">
<g transform="matrix(1 0 0 -1 0 2048)">
<path d="M481 448Q484 447 467.5 388.0Q451 329 425.0 256.0Q399 183 381 152Q441 88 441 24Q441 -41 384 -61Q364 -67 322.5 -57.0Q281 -47 256.0 -47.0Q231 -47 189.5 -57.0Q148 -67 128 -61Q71 -41 71 24Q71 88 131 152Q113 183 87.0 256.0Q61 329 44.5 388.0Q28 447 31 448Q36 450 64.0 433.0Q92 416 126.0 383.5Q160 351 173 318Q197 254 197 203Q230 220 256.0 220.0Q282 220 315 203Q315 254 339 318Q352 351 386.0 383.5Q420 416 448.0 433.0Q476 450 481 448Z" fill="#99aab5" />
<path d="M181 193Q161 180 142 162Q128 193 110.5 244.5Q93 296 82.0 334.5Q71 373 74 374Q77 375 93.0 362.0Q109 349 129.5 323.5Q150 298 160 273Q176 229 181 193ZM370 162Q351 180 331 193Q336 229 352 273Q362 298 382.5 323.5Q403 349 419.0 362.0Q435 375 438 374Q441 373 430.0 334.5Q419 296 401.5 244.5Q384 193 370 162Z" fill="#f4abba" />
<path d="M327.5 71.5Q356 51 356.0 21.5Q356 -8 327.5 -29.0Q299 -50 258.5 -50.0Q218 -50 189.5 -29.0Q161 -8 161.0 21.5Q161 51 189.5 71.5Q218 92 258.5 92.0Q299 92 327.5 71.5Z" fill="#ccd6dd" />
<path d="M299 13Q299 -16 292.0 -23.0Q285 -30 256.0 -30.0Q227 -30 220.0 -23.0Q213 -16 213 13Q213 24 256.0 24.0Q299 24 299 13Z" fill="#ffffff" />
<path d="M162.5 87.0Q156 93 156.0 102.0Q156 111 162.5 117.0Q169 123 178.0 123.0Q187 123 193.0 117.0Q199 111 199.0 102.0Q199 93 193.0 87.0Q187 81 178.0 81.0Q169 81 162.5 87.0ZM319.0 87.0Q313 93 313.0 102.0Q313 111 319.0 117.0Q325 123 334.0 123.0Q343 123 349.5 117.0Q356 111 356.0 102.0Q356 93 349.5 87.0Q343 81 334.0 81.0Q325 81 319.0 87.0Z" fill="#292f33" />
<path d="M299 81Q299 64 283.5 51.0Q268 38 256.0 38.0Q244 38 228.5 51.0Q213 64 213 81Q213 92 234.5 96.5Q256 101 277.5 96.5Q299 92 299 81Z" fill="#f4abba" />
</g></svg>