<svg xmlns="http://www.w3.org/2000/svg" viewBox="0 0 2048 2048">
<g transform="matrix(1 0 0 -1 0 2048)">
<path d="M75.0 11.0Q0 86 0.0 192.0Q0 298 75.0 373.0Q150 448 256.0 448.0Q362 448 437.0 373.0Q512 298 512.0 192.0Q512 86 437.0 11.0Q362 -64 256.0 -64.0Q150 -64 75.0 11.0Z" fill="#226699" />
<path d="M175.5 111.5Q142 145 142.0 192.0Q142 239 175.5 272.5Q209 306 256.0 306.0Q303 306 336.5 272.5Q370 239 370.0 192.0Q370 145 336.5 111.5Q303 78 256.0 78.0Q209 78 175.5 111.5Z" fill="#bbddf5" />
</g></svg>