<svg xmlns="http://www.w3.org/2000/svg" viewBox="0 0 2048 2048">
<g transform="matrix(1 0 0 -1 0 2048)">
<path d="M0 -36H512V-64H0Z" fill="#939598" />
<path d="M101.5 23.5Q114 11 114.0 -7.0Q114 -25 101.5 -37.5Q89 -50 71.0 -50.0Q53 -50 40.5 -37.5Q28 -25 28.0 -7.0Q28 11 40.5 23.5Q53 36 71.0 36.0Q89 36 101.5 23.5ZM215.5 23.5Q228 11 228.0 -7.0Q228 -25 215.5 -37.5Q203 -50 185.0 -50.0Q167 -50 154.5 -37.5Q142 -25 142.0 -7.0Q142 11 154.5 23.5Q167 36 185.0 36.0Q203 36 215.5 23.5ZM424.5 -37.5Q412 -25 412.0 -7.0Q412 11 424.5 23.5Q437 36 455.0 36.0Q473 36 485.5 23.5Q498 11 498.0 -7.0Q498 -25 485.5 -37.5Q473 -50 455.0 -50.0Q437 -50 424.5 -37.5ZM311.5 -37.5Q299 -25 299.0 -7.0Q299 11 311.5 23.5Q324 36 341.5 36.0Q359 36 371.5 23.5Q384 11 384.0 -7.0Q384 -25 371.5 -37.5Q359 -50 341.5 -50.0Q324 -50 311.5 -37.5Z" fill="#58595b" />
<path d="M91.5 13.0Q100 5 100.0 -7.0Q100 -19 91.5 -27.5Q83 -36 71.0 -36.0Q59 -36 51.0 -27.5Q43 -19 43.0 -7.0Q43 5 51.0 13.0Q59 21 71.0 21.0Q83 21 91.5 13.0ZM205.0 13.0Q213 5 213.0 -7.0Q213 -19 205.0 -27.5Q197 -36 185.0 -36.0Q173 -36 164.5 -27.5Q156 -19 156.0 -7.0Q156 5 164.5 13.0Q173 21 185.0 21.0Q197 21 205.0 13.0ZM435.0 -27.5Q427 -19 427.0 -7.0Q427 5 435.0 13.0Q443 21 455.0 21.0Q467 21 475.5 13.0Q484 5 484.0 -7.0Q484 -19 475.5 -27.5Q467 -36 455.0 -36.0Q443 -36 435.0 -27.5ZM321.5 -27.5Q313 -19 313.0 -7.0Q313 5 321.5 13.0Q330 21 341.5 21.0Q353 21 361.5 13.0Q370 5 370.0 -7.0Q370 -19 361.5 -27.5Q353 -36 341.5 -36.0Q330 -36 321.5 -27.5Z" fill="#292f33" />
<path d="M0 50H512V-7H0Z" fill="#5c913b" />
<path d="M0 220H512V50H0Z" fill="#ffe8b6" />
<path d="M0 78H512V50H0Z" fill="#ffac33" />
<path d="M463 249Q495 249 512 220H0Q17 249 49 249Z" fill="#77b255" />
<path d="M71 135Q71 129 67.0 125.0Q63 121 57 121H28Q23 121 18.5 125.0Q14 129 14 135V164Q14 169 18.5 173.5Q23 178 28 178H57Q63 178 67.0 173.5Q71 169 71 164ZM156 135Q156 129 152.0 125.0Q148 121 142 121H114Q108 121 104.0 125.0Q100 129 100 135V164Q100 169 104.0 173.5Q108 178 114 178H142Q148 178 152.0 173.5Q156 169 156 164ZM242 135Q242 129 237.5 125.0Q233 121 228 121H199Q193 121 189.0 125.0Q185 129 185 135V164Q185 169 189.0 173.5Q193 178 199 178H228Q233 178 237.5 173.5Q242 169 242 164ZM327 135Q327 129 323.0 125.0Q319 121 313 121H284Q279 121 274.5 125.0Q270 129 270 135V164Q270 169 274.5 173.5Q279 178 284 178H313Q319 178 323.0 173.5Q327 169 327 164ZM412 135Q412 129 408.0 125.0Q404 121 398 121H370Q364 121 360.0 125.0Q356 129 356 135V164Q356 169 360.0 173.5Q364 178 370 178H398Q404 178 408.0 173.5Q412 169 412 164ZM498 135Q498 129 493.5 125.0Q489 121 484 121H455Q449 121 445.0 125.0Q441 129 441 135V164Q441 169 445.0 173.5Q449 178 455 178H484Q489 178 493.5 173.5Q498 169 498 164Z" fill="#55acee" />
</g></svg>