<svg xmlns="http://www.w3.org/2000/svg" viewBox="0 0 2048 2048">
<g transform="matrix(1 0 0 -1 0 2048)">
<path d="M292 406V192H100L114 324V374Q114 389 124.5 399.0Q135 409 149 409L185 388V406Q185 421 195.5 431.0Q206 441 220 441L256 370Q256 385 266.5 395.5Q277 406 292 406Z" fill="#ef9645" />
<path d="M446 217Q461 211 462.5 198.5Q464 186 459 183Q437 158 415 128Q408 120 404.0 109.5Q400 99 399 94L398 88Q393 47 368 11Q317 -64 228 -64Q157 -64 107.0 -14.0Q57 36 57 107V324Q57 327 57.5 331.5Q58 336 65.5 344.0Q73 352 85.5 352.0Q98 352 105.0 345.0Q112 338 113 331L114 324V202Q114 203 121.0 205.0Q128 207 128 208V388Q128 391 129.0 395.5Q130 400 137.0 408.0Q144 416 156.5 416.0Q169 416 176.0 409.0Q183 402 184 395L185 388V219Q185 219 192.0 219.5Q199 220 199 220V420Q199 423 200.0 427.5Q201 432 208.0 440.0Q215 448 227.5 448.0Q240 448 247.0 441.0Q254 434 255 427L256 420V220Q256 220 263.0 219.5Q270 219 270 219V384Q270 387 271.0 392.0Q272 397 279.0 404.5Q286 412 298.5 412.0Q311 412 318.5 405.0Q326 398 326 391L327 384V159Q327 148 333.0 143.0Q339 138 345 139Q352 140 357.5 147.5Q363 155 368.5 167.5Q374 180 379 186Q393 207 412.0 215.5Q431 224 446 217Z" fill="#ffdc5d" />
<path d="M333 143 342 139Q336 138 334 138Q301 135 276.0 121.5Q251 108 237.5 88.5Q224 69 217.0 51.0Q210 33 209 16Q207 2 203.5 -2.0Q200 -6 197.0 0.0Q194 6 194 16Q193 74 236 116Q267 146 327 154Q329 147 333 143Z" fill="#ef9645" />
</g></svg>