<svg xmlns="http://www.w3.org/2000/svg" viewBox="0 0 512 512">
<g transform="matrix(1 0 0 -1 0 512)">
<path d="M427 -64H85Q79 -64 75.0 -60.0Q71 -56 71.0 -50.0Q71 -44 75.0 -40.0Q79 -36 85 -36H427Q454 -36 469.0 -22.0Q484 -8 484 18Q484 35 467.5 49.5Q451 64 427 64H327Q321 64 317.0 68.0Q313 72 313.0 78.0Q313 84 317.0 88.0Q321 92 327 92H427Q463 92 487.5 69.0Q512 46 512 18Q512 -19 489.0 -41.5Q466 -64 427 -64Z" fill="#ea596e" />
<path d="M171 100Q171 78 203 37Q217 19 208 20Q205 20 199 21Q177 27 153.0 30.0Q129 33 102.5 34.0Q76 35 71 36Q66 36 57.5 36.5Q49 37 44.5 37.5Q40 38 33.5 39.0Q27 40 23.5 40.5Q20 41 15.5 42.5Q11 44 8.5 46.0Q6 48 4.0 50.5Q2 53 1.0 56.5Q0 60 0 64Q0 84 14.0 104.5Q28 125 57 135Q66 138 83.0 154.5Q100 171 114.0 185.5Q128 200 148.5 209.0Q169 218 185 206Q198 199 198.5 186.0Q199 173 192.0 161.0Q185 149 178.0 131.0Q171 113 171 100Z" fill="#66757f" />
<path d="M469 114Q469 62 422.5 34.5Q376 7 313 7Q142 7 142 92Q142 131 153.5 165.5Q165 200 188.0 229.0Q211 258 250.5 275.0Q290 292 341 292Q400 292 434.5 246.5Q469 201 469 114Z" fill="#66757f" />
<path d="M139 194Q139 209 131.0 223.5Q123 238 119.0 244.0Q115 250 122 266Q129 275 145.5 275.5Q162 276 166 274Q165 260 177.5 255.0Q190 250 195 259Q203 251 208 240Q218 220 208.0 197.0Q198 174 181 166Q165 157 152.0 164.5Q139 172 139 194Z" fill="#66757f" />
<path d="M194 218Q195 204 189.5 192.0Q184 180 174 177Q165 175 160.0 182.0Q155 189 151 205Q150 208 149.0 212.5Q148 217 147.0 220.0Q146 223 145.0 227.5Q144 232 144.0 234.5Q144 237 144.5 240.0Q145 243 146.5 244.5Q148 246 151 247Q162 250 177.5 242.5Q193 235 194 218Z" fill="#e6aaaa" />
<path d="M104.0 111.0Q100 115 100.0 121.0Q100 127 104.0 131.0Q108 135 114.0 135.0Q120 135 124.0 131.0Q128 127 128.0 121.0Q128 115 124.0 111.0Q120 107 114.0 107.0Q108 107 104.0 111.0Z" fill="#292f33" />
<path d="M151 188Q148 175 133 175Q126 175 116.0 181.5Q106 188 92 192Q83 194 82 196Q82 199 95 199Q99 199 105.0 198.5Q111 198 112.5 197.5Q114 197 115 199Q112 205 85 208Q79 209 79 212Q79 216 87 216Q130 216 151 188ZM376 287Q382 285 370 281Q334 268 302 271Q296 271 293 273Q271 286 255 284Q247 283 247 287Q248 289 255 292Q271 297 313 293Q299 304 288 306Q285 307 283.0 309.0Q281 311 282.0 313.0Q283 315 288 315Q302 317 317.5 312.0Q333 307 351.5 298.0Q370 289 376 287Z" fill="#66757f" />
</g></svg>