<svg xmlns="http://www.w3.org/2000/svg" viewBox="0 0 2048 2048">
<g transform="matrix(1 0 0 -1 0 2048)">
<path d="M121 145Q106 130 84.0 130.0Q62 130 46 145L23 169Q7 184 7.0 206.0Q7 228 23 244L204 425Q220 441 242.0 441.0Q264 441 279 425L303 402Q318 386 318.0 364.0Q318 342 303 327Z" fill="#77b255" />
<path d="M429 -41 153 236Q141 248 141.0 265.5Q141 283 153.0 295.0Q165 307 182.5 307.0Q200 307 212 295L489 19Q501 6 501.0 -11.0Q501 -28 488.5 -40.5Q476 -53 459.0 -53.0Q442 -53 429 -41Z" fill="#77b255" />
<path d="M349 178 489 38Q505 22 505.0 -1.0Q505 -24 488.5 -40.5Q472 -57 449.0 -57.0Q426 -57 410 -41L270 99Q254 115 254.0 138.0Q254 161 270.5 177.5Q287 194 310.0 194.0Q333 194 349 178Z" fill="#5c913b" />
<path d="M74 196Q64 186 54.0 196.0Q44 206 54 216L232 394Q242 404 252.0 394.0Q262 384 252 374ZM104 167Q94 157 84.0 167.0Q74 177 84 186L262 364Q271 374 281.0 364.0Q291 354 281 344Z" fill="#e1e8ed" />
<path d="M262 246 202 186 183 206 242 265Z" fill="#5c913b" />
<path d="M336 83Q329 77 320.5 77.0Q312 77 306.0 83.0Q300 89 300.0 97.5Q300 106 306 112L336 142Q342 148 350.5 148.0Q359 148 365.0 142.0Q371 136 371.0 127.5Q371 119 365 112ZM385 33Q379 27 370.0 27.0Q361 27 355.0 33.5Q349 40 349.0 48.5Q349 57 355 63L385 93Q391 99 399.5 99.0Q408 99 414.5 93.0Q421 87 421.0 78.0Q421 69 415 63ZM434 -16Q428 -22 419.5 -22.0Q411 -22 405.0 -16.0Q399 -10 399.0 -1.0Q399 8 405 14L434 43Q440 49 449.0 49.0Q458 49 464.0 43.0Q470 37 470.0 28.5Q470 20 464 14Z" fill="#3e721d" />
<path d="M49 231Q43 225 34.5 225.0Q26 225 19 231L15 236L212 433L217 429Q223 422 223.0 413.5Q223 405 217 399Z" fill="#a6d388" />
</g></svg>