<svg xmlns="http://www.w3.org/2000/svg" viewBox="0 0 2048 2048">
<g transform="matrix(1 0 0 -1 0 2048)">
<path d="M306 442 506 242 206 -58Q196 -68 186 -58L6 122Q-4 132 6 142Z" fill="#fa3c32" />
<path d="M506 262Q516 252 506 242L490 226Q462 222 423.0 240.5Q384 259 354 290Q324 320 305.5 359.5Q287 399 290 427L306 442Q316 452 326 442Z" fill="#dc282c" />
<path d="M354 290Q384 259 423.0 240.5Q462 222 490 226L471 207Q442 209 405.5 229.0Q369 249 341 277Q313 305 293.0 342.0Q273 379 272 408L290 427Q287 399 305.5 359.5Q324 320 354 290Z" fill="#b3282c" />
<path d="M281 166Q271 164 249.0 185.5Q227 207 229 218Q238 225 249.5 221.5Q261 218 271.5 208.0Q282 198 285.0 186.5Q288 175 281 166ZM272 230Q269 232 271 235L280 259Q282 263 286.5 261.0Q291 259 289 255L279 232Q278 227 273 229Q272 229 272 230ZM243 241Q241 242 241 244L240 271Q240 276 245.0 276.0Q250 276 250 271L251 244Q251 240 246 239Q244 239 243 241ZM294 208Q293 209 293 210Q291 214 295 216L319 225Q323 227 325.0 222.5Q327 218 322 216L299 207Q296 206 294 208ZM304 179Q303 181 303 183Q303 188 308 187L335 186Q340 186 339.5 181.0Q339 176 334 177L307 178Q306 178 304 179Z" fill="#ffe933" />
<path d="M223 224H222Q217 220 222.0 207.0Q227 194 242.0 178.5Q257 163 270.5 158.0Q284 153 288 159Q303 147 316 140Q297 132 274 141Q253 149 233.0 169.0Q213 189 204 211Q195 234 204 252Q211 240 223 224Z" fill="#ffe933" />
<path d="M316 130Q313 122 305 114Q293 102 277.5 99.5Q262 97 247.0 103.0Q232 109 220.0 117.0Q208 125 198.5 134.5Q189 144 181.0 156.0Q173 168 167.0 183.0Q161 198 163.5 214.0Q166 230 178 242Q185 249 193 252Q178 211 226.0 162.5Q274 114 316 130Z" fill="#ffe933" />
</g></svg>