<svg xmlns="http://www.w3.org/2000/svg" viewBox="0 0 512 512">
<g transform="matrix(1 0 0 -1 0 512)">
<path d="M341 348Q364 348 385.5 342.0Q407 336 426.5 322.0Q446 308 457.5 282.0Q469 256 469 220Q469 164 455.0 110.0Q441 56 419.5 19.0Q398 -18 373.0 -41.0Q348 -64 327 -64Q304 -64 286.0 -57.0Q268 -50 256.0 -50.0Q244 -50 226.0 -57.0Q208 -64 185 -64Q164 -64 139.0 -41.0Q114 -18 92.5 19.0Q71 56 57.0 110.0Q43 164 43 220Q43 256 54.5 282.0Q66 308 85.5 322.0Q105 336 126.5 342.0Q148 348 171 348Q192 348 213.5 341.0Q235 334 256.0 334.0Q277 334 298.5 341.0Q320 348 341 348Z" fill="#dd2e44" />
<path d="M270 348Q272 351 275.5 354.5Q279 358 290.0 368.0Q301 378 313.5 385.5Q326 393 345.0 399.0Q364 405 384 405Q409 405 430.5 398.0Q452 391 461 384L469 377Q463 372 452.5 365.0Q442 358 415.5 346.0Q389 334 370.0 334.0Q351 334 326.0 337.5Q301 341 286 345Z" fill="#77b255" />
<path d="M242 320Q242 397 289 444Q299 454 309.0 444.0Q319 434 309 424Q270 385 270 320Q270 314 266.0 310.0Q262 306 256.0 306.0Q250 306 246.0 310.0Q242 314 242 320Z" fill="#662113" />
</g></svg>