<svg xmlns="http://www.w3.org/2000/svg" viewBox="0 0 512 512">
<g transform="matrix(1 0 0 -1 0 512)">
<path d="M512 -7Q512 -31 495.5 -47.5Q479 -64 455 -64H57Q33 -64 16.5 -47.5Q0 -31 0 -7V391Q0 415 16.5 431.5Q33 448 57 448H455Q479 448 495.5 431.5Q512 415 512 391Z" fill="#3b88c3" />
<path d="M104 193Q104 262 146.5 308.5Q189 355 256 355Q322 355 365.0 308.0Q408 261 408 193Q408 123 365.5 76.5Q323 30 256 30Q190 30 147.0 76.5Q104 123 104 193ZM339 193Q339 235 317.0 264.5Q295 294 256.0 294.0Q217 294 195.0 264.5Q173 235 173 193Q173 149 194.5 120.0Q216 91 256.0 91.0Q296 91 317.5 120.0Q339 149 339 193Z" fill="#ffffff" />
</g></svg>