<svg xmlns="http://www.w3.org/2000/svg" viewBox="0 0 2048 2048">
<g transform="matrix(1 0 0 -1 0 2048)">
<path d="M512 -7Q512 -31 495.5 -47.5Q479 -64 455 -64H57Q33 -64 16.5 -47.5Q0 -31 0 -7V391Q0 415 16.5 431.5Q33 448 57 448H455Q479 448 495.5 431.5Q512 415 512 391Z" fill="#3b88c3" />
<path d="M182 318Q182 334 191.0 343.0Q200 352 215.0 352.0Q230 352 239.0 343.0Q248 334 248 318V96H327Q342 96 350.5 86.5Q359 77 358 65Q358 53 349.0 44.5Q340 36 327 36H216Q200 36 191.0 45.5Q182 55 182 72Z" fill="#ffffff" />
</g></svg>