<svg xmlns="http://www.w3.org/2000/svg" viewBox="0 0 2048 2048">
<g transform="matrix(1 0 0 -1 0 2048)">
<path d="M512 -7Q512 -31 495.5 -47.5Q479 -64 455 -64H57Q33 -64 16.5 -47.5Q0 -31 0 -7V391Q0 415 16.5 431.5Q33 448 57 448H455Q479 448 495.5 431.5Q512 415 512 391Z" fill="#3b88c3" />
<path d="M379 320Q379 309 372 300L299 196V77Q299 60 287.0 48.0Q275 36 258 36H254Q237 36 225.0 48.0Q213 60 213 77V196L140 300Q133 309 133 320Q133 333 142.0 342.5Q151 352 165 352Q183 352 193 339L256 247L320 339Q329 352 347 352Q361 352 370.0 342.5Q379 333 379 320Z" fill="#ffffff" />
</g></svg>