<svg xmlns="http://www.w3.org/2000/svg" viewBox="0 0 2048 2048">
<g transform="matrix(1 0 0 -1 0 2048)">
<path d="M512 -7Q512 -31 495.5 -47.5Q479 -64 455 -64H57Q33 -64 16.5 -47.5Q0 -31 0 -7V391Q0 415 16.5 431.5Q33 448 57 448H455Q479 448 495.5 431.5Q512 415 512 391Z" fill="#3b88c3" />
<path d="M129 316Q129 331 138.5 340.5Q148 350 163 350H236Q309 350 350.0 306.0Q391 262 391 188Q391 119 350.0 77.5Q309 36 240 36H164Q150 36 139.5 44.0Q129 52 129 69ZM195 96H240Q280 96 301.0 122.5Q322 149 322 191Q322 236 300.5 262.5Q279 289 235 289H195Z" fill="#ffffff" />
</g></svg>