<svg xmlns="http://www.w3.org/2000/svg" viewBox="0 0 2048 2048">
<g transform="matrix(1 0 0 -1 0 2048)">
<path d="M512 -7Q512 -31 495.5 -47.5Q479 -64 455 -64H57Q33 -64 16.5 -47.5Q0 -31 0 -7V391Q0 415 16.5 431.5Q33 448 57 448H455Q479 448 495.5 431.5Q512 415 512 391Z" fill="#3b88c3" />
<path d="M329 124Q329 73 303.0 51.5Q277 30 241 30Q212 30 186.0 42.5Q160 55 160 81Q160 90 167.0 98.5Q174 107 185 107Q193 107 210.5 99.0Q228 91 238 91Q249 91 255.0 98.0Q261 105 261.5 111.5Q262 118 262 128V318Q262 334 271.5 343.0Q281 352 295.5 352.0Q310 352 319.5 343.0Q329 334 329 318Z" fill="#ffffff" />
</g></svg>