<svg xmlns="http://www.w3.org/2000/svg" viewBox="0 0 2048 2048">
<g transform="matrix(1 0 0 -1 0 2048)">
<path d="M512 -7Q512 -31 495.5 -47.5Q479 -64 455 -64H57Q33 -64 16.5 -47.5Q0 -31 0 -7V391Q0 415 16.5 431.5Q33 448 57 448H455Q479 448 495.5 431.5Q512 415 512 391Z" fill="#3b88c3" />
<path d="M153 315Q153 331 162.0 340.5Q171 350 187 350H265Q375 350 375 250Q375 215 352.0 193.5Q329 172 293 167L368 86Q377 77 377 67Q377 53 367.5 43.0Q358 33 344 33Q328 33 318 44L220 163H219V67Q219 51 210.0 42.0Q201 33 186.5 33.0Q172 33 162.5 42.0Q153 51 153 67ZM219 211H265Q283 211 294.5 221.5Q306 232 306 250Q306 268 294.5 278.5Q283 289 265 289H219Z" fill="#ffffff" />
</g></svg>