<svg xmlns="http://www.w3.org/2000/svg" viewBox="0 0 2048 2048">
<g transform="matrix(1 0 0 -1 0 2048)">
<path d="M512 -7Q512 -31 495.5 -47.5Q479 -64 455 -64H57Q33 -64 16.5 -47.5Q0 -31 0 -7V391Q0 415 16.5 431.5Q33 448 57 448H455Q479 448 495.5 431.5Q512 415 512 391Z" fill="#3b88c3" />
<path d="M365 222Q404 222 404 179Q404 114 364.5 72.0Q325 30 260 30Q194 30 151.0 76.5Q108 123 108 193Q108 262 150.5 308.5Q193 355 260 355Q309 355 345.0 335.5Q381 316 381 293Q381 279 373.5 270.5Q366 262 354.0 262.0Q342 262 330.5 270.0Q319 278 302.0 286.0Q285 294 260 294Q221 294 199.0 264.5Q177 235 177 193Q177 149 198.5 120.0Q220 91 260 91Q290 91 312.5 108.5Q335 126 335 161H290Q276 161 267.5 169.5Q259 178 259.0 191.5Q259 205 268.0 213.5Q277 222 290 222Z" fill="#ffffff" />
</g></svg>