<svg xmlns="http://www.w3.org/2000/svg" viewBox="0 0 512 512">
<g transform="matrix(1 0 0 -1 0 512)">
<path d="M512 -7Q512 -31 495.5 -47.5Q479 -64 455 -64H57Q33 -64 16.5 -47.5Q0 -31 0 -7V391Q0 415 16.5 431.5Q33 448 57 448H455Q479 448 495.5 431.5Q512 415 512 391Z" fill="#3b88c3" />
<path d="M153 315Q153 331 162.0 340.5Q171 350 188 350H266Q315 350 347.0 320.5Q379 291 379 244Q379 197 347.0 168.5Q315 140 268 140H219V67Q219 51 210.0 42.0Q201 33 186.5 33.0Q172 33 162.5 42.0Q153 51 153 67ZM219 198H264Q285 198 297.5 211.0Q310 224 310.0 244.5Q310 265 297.5 278.0Q285 291 264 291H219Z" fill="#ffffff" />
</g></svg>