<svg xmlns="http://www.w3.org/2000/svg" viewBox="0 0 512 512">
<g transform="matrix(1 0 0 -1 0 512)">
<path d="M512 -7Q512 -31 495.5 -47.5Q479 -64 455 -64H57Q33 -64 16.5 -47.5Q0 -31 0 -7V391Q0 415 16.5 431.5Q33 448 57 448H455Q479 448 495.5 431.5Q512 415 512 391Z" fill="#3b88c3" />
<path d="M61 308Q59 316 59 323Q59 334 68.0 343.0Q77 352 91 352Q119 352 126 320L163 133H164L222 326Q230 352 256.0 352.0Q282 352 290 326L348 133H349L386 320Q393 352 421 352Q435 352 444.0 343.0Q453 334 453 323Q453 316 451 308L395 67Q391 52 380.0 42.5Q369 33 351 33Q336 33 324.0 42.0Q312 51 308 65L256 235L204 65Q200 51 188.5 42.0Q177 33 161 33Q143 33 132.0 42.5Q121 52 117 67Z" fill="#ffffff" />
</g></svg>