<svg xmlns="http://www.w3.org/2000/svg" viewBox="0 0 512 512">
<g transform="matrix(1 0 0 -1 0 512)">
<path d="M512 -7Q512 -31 495.5 -47.5Q479 -64 455 -64H57Q33 -64 16.5 -47.5Q0 -31 0 -7V391Q0 415 16.5 431.5Q33 448 57 448H455Q479 448 495.5 431.5Q512 415 512 391Z" fill="#3b88c3" />
<path d="M122 318Q122 334 131.5 343.0Q141 352 155 352Q162 352 170.5 347.5Q179 343 183 338L323 151H324V318Q324 334 333.0 343.0Q342 352 356.5 352.0Q371 352 380.5 343.0Q390 334 390 318V67Q390 51 380.5 42.0Q371 33 357 33Q340 33 329 47L189 232H188V67Q188 51 179.0 42.0Q170 33 155.5 33.0Q141 33 131.5 42.0Q122 51 122 67Z" fill="#ffffff" />
</g></svg>