<svg xmlns="http://www.w3.org/2000/svg" viewBox="0 0 512 512">
<g transform="matrix(1 0 0 -1 0 512)">
<path d="M512 -7Q512 -31 495.5 -47.5Q479 -64 455 -64H57Q33 -64 16.5 -47.5Q0 -31 0 -7V391Q0 415 16.5 431.5Q33 448 57 448H455Q479 448 495.5 431.5Q512 415 512 391Z" fill="#3b88c3" />
<path d="M254 189Q258 178 254.0 167.0Q250 156 239.0 151.5Q228 147 217.0 151.5Q206 156 201 167Q201 169 199 172V0Q199 -9 193.0 -15.0Q187 -21 178.0 -21.0Q169 -21 162.5 -15.0Q156 -9 156 0V107Q156 113 152.0 117.0Q148 121 142.0 121.0Q136 121 132.0 117.0Q128 113 128 107V0Q128 -9 122.0 -15.0Q116 -21 107.0 -21.0Q98 -21 91.5 -15.0Q85 -9 85 0V172Q84 168 83 167Q76 149 57 149Q51 149 46 152Q35 156 30.5 167.0Q26 178 31 189Q65 269 109 296Q100 310 100 327Q100 348 112.5 362.5Q125 377 142.5 377.0Q160 377 172.5 362.5Q185 348 185 327Q185 310 175 296Q219 269 254 189ZM441 162 412 192V164L469 78H427V0Q427 -9 420.5 -15.0Q414 -21 405.5 -21.0Q397 -21 390.5 -15.0Q384 -9 384 0V78H356V0Q356 -9 349.5 -15.0Q343 -21 334.0 -21.0Q325 -21 319.0 -15.0Q313 -9 313 0V78H270L327 164V192L300 164Q294 157 285.5 156.5Q277 156 270.5 162.0Q264 168 263.5 176.5Q263 185 269 192L350 283Q327 297 327 327Q327 348 339.5 362.5Q352 377 369.5 377.0Q387 377 399.5 362.5Q412 348 412 327Q412 299 392 285L473 190Q479 183 478.5 174.0Q478 165 471 159Q465 154 457 154Q447 154 441 162Z" fill="#ffffff" />
</g></svg>