<svg xmlns="http://www.w3.org/2000/svg" viewBox="0 0 2048 2048">
<g transform="matrix(1 0 0 -1 0 2048)">
<path d="M512 211Q512 210 512.0 208.5Q512 207 512 206Q512 136 437.0 86.0Q362 36 256 36Q188 36 128 59V110Q188 94 256 94Q360 94 434.5 128.0Q509 162 512 211ZM384 354V318Q325 334 256 334Q160 334 88.5 305.0Q17 276 3 232Q17 294 88.5 335.5Q160 377 256 377Q325 377 384 354Z" fill="#f4abba" />
<path d="M352 168Q352 157 350 146Q340 86 285.5 28.0Q231 -30 177 -50Q123 -30 68.5 28.0Q14 86 4 146Q2 157 2 168Q2 208 30.0 236.0Q58 264 98 264Q148 264 177 224Q206 264 256 264Q296 264 324.0 236.0Q352 208 352 168ZM510 367Q510 360 509 352Q502 311 464.0 270.5Q426 230 389 216Q352 230 314.0 270.5Q276 311 269 352Q267 360 267 367Q267 395 287.0 414.5Q307 434 334 434Q369 434 389 406Q409 434 443 434Q471 434 490.5 414.5Q510 395 510 367Z" fill="#dd2e44" />
</g></svg>