<svg xmlns="http://www.w3.org/2000/svg" viewBox="0 0 512 512">
<g transform="matrix(1 0 0 -1 0 512)">
<path d="M274 357Q274 366 329 396Q433 453 469 428Q484 419 484 396V204Q484 189 473.5 183.0Q463 177 445.5 179.5Q428 182 407.0 189.5Q386 197 363 208Q377 172 408.0 110.0Q439 48 467 0Q473 -9 465.5 -17.0Q458 -25 449 -20L374 18Q368 7 354 -24Q345 -46 340 -56Q337 -63 329 -64Q328 -64 327 -64Q321 -64 317 -60Q291 -33 249 141Q207 -33 181 -60Q177 -64 171 -64Q169 -64 168 -64Q161 -63 158 -56Q153 -46 143 -24Q130 7 124 18L49 -20Q40 -25 32.5 -17.0Q25 -9 30 0Q92 103 131 198Q103 186 80.5 181.5Q58 177 43.0 182.0Q28 187 28 204V395Q28 461 133 420Q198 395 234 364Q241 359 241 357Q241 353 257.5 353.0Q274 353 274 357Z" fill="#dd2e44" />
<path d="M30 194Q45 225 99.0 251.5Q153 278 252 280Q247 273 241 268Q223 249 190.0 229.0Q157 209 123.5 195.5Q90 182 63.0 179.5Q36 177 30 194ZM264 280Q355 279 408.5 257.0Q462 235 484 206V204Q484 161 402 191Q329 218 281 262Q278 265 275 268Q270 273 264 280Z" fill="#a0041e" />
<path d="M313 286Q313 265 298.0 250.0Q283 235 262 235H236Q215 235 200.0 250.0Q185 265 185 286V340Q185 361 200.0 376.0Q215 391 236 391H262Q283 391 298.0 376.0Q313 361 313 340Z" fill="#ea596e" />
</g></svg>