<svg xmlns="http://www.w3.org/2000/svg" viewBox="0 0 512 512">
<g transform="matrix(1 0 0 -1 0 512)">
<path d="M85.0 21.0Q14 92 14.0 192.0Q14 292 85.0 363.0Q156 434 256.0 434.0Q356 434 427.0 363.0Q498 292 498.0 192.0Q498 92 427.0 21.0Q356 -50 256.0 -50.0Q156 -50 85.0 21.0Z" fill="#c1694f" />
<path d="M388 55Q376 47 368.0 58.5Q360 70 371 79L395 95Q407 103 415.0 91.0Q423 79 411 71ZM422 156Q409 161 414.5 174.0Q420 187 433 182L459 171Q473 166 467.5 153.0Q462 140 449 145ZM358 231Q345 236 350.5 249.5Q356 263 369 257L396 246Q409 241 403.5 227.5Q398 214 385 220ZM60 131Q46 136 51.5 149.5Q57 163 71 158L97 147Q111 141 105.5 128.0Q100 115 86 120ZM110 218Q98 210 90.0 222.0Q82 234 94 242L118 258Q130 267 138.0 255.0Q146 243 134 235ZM239 165Q231 169 227.5 177.0Q224 185 227.0 193.0Q230 201 238.5 204.5Q247 208 255 205L294 189Q303 185 306.0 177.0Q309 169 306.0 161.0Q303 153 294.5 149.5Q286 146 278 149ZM151 79Q164 84 169.0 70.5Q174 57 161 52L134 42Q121 37 115.5 50.5Q110 64 124 69Z" fill="#e29386" />
<path d="M341 178Q353 178 361.5 169.5Q370 161 370 149V-21Q317 -50 256.0 -50.0Q195 -50 142 -21V149Q142 161 150.5 169.5Q159 178 171 178Z" fill="#292f33" />
</g></svg>