<svg xmlns="http://www.w3.org/2000/svg" viewBox="0 0 2048 2048">
<g transform="matrix(1 0 0 -1 0 2048)">
<path d="M385 71 337 107 312 43 271 125 229 55 203 121 72 14 150 158H95L119 195L55 233L113 260L78 306L136 293L105 367L176 320L195 384L235 316L276 398L302 333L370 394L351 309L413 321L373 268H436L389 234L457 194L391 167L426 121L373 133Z" fill="#e1e8ed" />
<path d="M419 160 470 93 395 109 411 29 345 78 314 0 269 88 226 16 195 92 13 -57 120 140H62L94 189L16 236L86 267L35 334L106 318L66 415L166 348L189 427L234 353L278 441L309 364L398 445L374 331L455 348L409 286H489L421 235L496 190ZM271 125 312 43 337 107 385 71 373 133 426 121 391 168 457 194 389 234 436 268H373L413 321L351 309L370 394L302 333L276 398L235 316L195 384L176 320L105 367L136 293L78 306L113 260L55 234L119 195L95 158H150L72 14L203 121L229 55Z" fill="#67757f" />
</g></svg>