<svg xmlns="http://www.w3.org/2000/svg" viewBox="0 0 512 512">
<g transform="matrix(1 0 0 -1 0 512)">
<path d="M464 211H406V154H464V140H406V83H464V69H406V12H464V-2H406V-64H392V-2H264V-64H250V-2H122V-64H108V-2H31V12H108V69H31V83H108V129H122V83H250V140H182V154H250V220H264V154H392V211H347V225H392V329H406V225H464ZM122 12H250V69H122ZM392 12V69H264V12ZM392 83V140H264V83Z" fill="#e1e8ed" />
<path d="M442 354H498V-64H442ZM356 303V-64H299V268ZM157 151H214V-64H157ZM15 82H72V-64H15Z" fill="#ccd6dd" />
<path d="M484 354H498V-64H484ZM58 82H72V-64H58ZM200 151H214V-64H200ZM342 303H356V-64H342Z" fill="#8899a6" />
<path d="M267 215Q317 257 343.0 277.5Q369 298 403.0 318.5Q437 339 457 339Q487 339 512 324V298Q486 317 457 317Q441 317 411.0 298.5Q381 280 358.0 261.5Q335 243 290 204Q232 155 197.5 127.5Q163 100 106.0 63.5Q49 27 0 9V35Q43 50 94.5 83.0Q146 116 178.5 142.0Q211 168 267 215Z" fill="#ccd6dd" />
<path d="M457 381Q486 381 512 371V324Q487 339 457 339Q437 339 403.0 318.5Q369 298 343.0 277.5Q317 257 267 215Q211 168 178.5 142.0Q146 116 94.5 83.0Q43 50 0 35V80Q37 96 83.5 126.5Q130 157 159.5 180.5Q189 204 240 248Q282 283 303.5 300.0Q325 317 356.5 340.0Q388 363 412.0 372.0Q436 381 457 381Z" fill="#dd2e44" />
<path d="M155 243 150 239Q146 236 143 240L130 256Q127 260 131 263L136 267Q140 270 143 266L156 249Q159 246 155 243ZM204 280 199 276Q195 273 192 277L179 294Q176 297 180 300L185 304Q189 307 192 303L205 287Q208 283 204 280ZM297 354 292 350Q288 347 285 351L272 368Q269 371 273 374L278 378Q282 381 285 377L298 361Q300 357 297 354ZM346 392 341 388Q337 385 334 389L321 405Q318 409 322 412L327 416Q331 419 334 415L347 399Q350 395 346 392ZM225 255Q220 255 217 259Q210 267 218 274L238 290Q246 297 253.0 288.5Q260 280 252 273L232 257Q229 255 225 255Z" fill="#1c6399" />
<path d="M133 248Q149 228 135.5 217.5Q122 207 106 227Q97 238 95.0 249.0Q93 260 98.5 264.5Q104 269 114.0 264.0Q124 259 133 248Z" fill="#ea596e" />
<path d="M181 286Q197 266 183.5 255.5Q170 245 154 265Q146 276 143.5 287.0Q141 298 146.5 302.5Q152 307 162.5 302.0Q173 297 181 286Z" fill="#a6d388" />
<path d="M193 282Q201 288 210.5 286.5Q220 285 226 277L232 270Q238 262 237.0 252.0Q236 242 228 236L122 152Q112 145 105 154Q102 158 99.0 168.5Q96 179 98.0 194.0Q100 209 110 216Z" fill="#3b94d9" />
<path d="M273 361Q288 341 275.0 330.5Q262 320 246 340Q237 351 235.0 362.0Q233 373 238.5 377.5Q244 382 254.0 377.0Q264 372 273 361Z" fill="#f4900c" />
<path d="M322 400Q337 380 324.0 369.5Q311 359 295 379Q286 390 284.0 401.0Q282 412 287.5 416.5Q293 421 303.0 416.0Q313 411 322 400Z" fill="#aa8dd8" />
<path d="M333 395Q341 401 350.5 399.5Q360 398 366 390L372 383Q378 375 377.0 365.0Q376 355 368 349L262 265Q252 258 245 267Q242 271 239.0 281.5Q236 292 238.0 307.0Q240 322 249 329Z" fill="#3b94d9" />
<path d="M129 152Q126 152 124 154Q119 160 125 164L225 243Q231 247 235.5 241.5Q240 236 234 232L134 153Q132 152 129 152ZM269 264Q265 264 263 267Q259 272 264 277L365 355Q370 360 374.5 354.0Q379 348 373 344L273 266Q271 264 269 264Z" fill="#e1e8ed" />
</g></svg>