<svg xmlns="http://www.w3.org/2000/svg" viewBox="0 0 512 512">
<g transform="matrix(1 0 0 -1 0 512)">
<path d="M437 373Q512 298 512.0 192.0Q512 86 437.0 11.0Q362 -64 256.0 -64.0Q150 -64 75.0 11.0Q0 86 0.0 192.0Q0 298 75.0 373.0Q150 448 256.0 448.0Q362 448 437 373Z" fill="#ffcb4c" />
<path d="M384 311Q389 318 395.5 322.5Q402 327 414.0 325.5Q426 324 439 311Q467 283 476.0 236.0Q485 189 469.0 133.5Q453 78 411.5 36.5Q370 -5 314.5 -21.0Q259 -37 212.0 -28.0Q165 -19 137 9Q124 22 122.5 34.0Q121 46 125.5 52.5Q130 59 137 64Q221 121 274.0 174.0Q327 227 384 311Z" fill="#65471b" />
<path d="M164 37Q219 64 302 146Q338 183 365.5 217.5Q393 252 402 268L411 284Q412 280 413.5 274.0Q415 268 414.5 248.5Q414 229 408.5 209.0Q403 189 386.5 160.5Q370 132 343.0 105.0Q316 78 287.5 61.0Q259 44 238.0 39.0Q217 34 200.0 33.0Q183 32 174 34Z" fill="#ffffff" />
<path d="M118 89Q113 84 105 85Q100 86 96.5 90.5Q93 95 93 101Q101 152 133 200Q95 187 67 160Q57 149 47.0 159.5Q37 170 47 180Q54 186 65.5 195.5Q77 205 108.0 219.5Q139 234 168 234Q177 234 181.0 225.5Q185 217 178 210Q157 189 143.0 159.0Q129 129 126.0 117.0Q123 105 122 97Q121 92 118 89ZM359 330Q356 327 351 326Q343 325 330.5 322.0Q318 319 288.5 305.0Q259 291 238 270Q231 263 222.5 267.0Q214 271 214 280Q214 309 228.5 340.0Q243 371 252.5 382.5Q262 394 268 401Q278 411 288.5 401.0Q299 391 288 381Q261 353 248 315Q296 347 347 355Q353 355 357.5 351.5Q362 348 363 343Q364 336 359 330Z" fill="#65471b" />
<path d="M428 277Q400 280 347.0 316.5Q294 353 295.5 364.5Q297 376 357.5 398.5Q418 421 445 418Q475 414 493.0 391.0Q511 368 507.5 338.5Q504 309 480.5 291.0Q457 273 428 277ZM173 21Q176 -8 158.0 -31.0Q140 -54 111.0 -57.5Q82 -61 58.5 -43.0Q35 -25 32 4Q28 32 51.0 92.5Q74 153 85.0 154.0Q96 155 133.0 102.0Q170 49 173 21Z" fill="#64aadd" />
</g></svg>