<svg xmlns="http://www.w3.org/2000/svg" viewBox="0 0 512 512">
<g transform="matrix(1 0 0 -1 0 512)">
<path d="M451 381 99 29 20 108 321 410Q342 431 379.0 423.5Q416 416 447 385Q448 384 449.0 382.5Q450 381 451 381Z" fill="#99aab5" />
<path d="M77.5 121.5Q114 114 145.5 83.0Q177 52 184.0 15.0Q191 -22 170.5 -43.0Q150 -64 113.0 -56.5Q76 -49 45.0 -17.5Q14 14 6.5 50.5Q-1 87 20.0 108.0Q41 129 77.5 121.5Z" fill="#66757f" />
<path d="M451 381Q480 350 486.0 314.5Q492 279 472 259L171 -43Q191 -22 184.0 15.0Q177 52 145 83L90 138L392 440Z" fill="#ccd6dd" />
<path d="M471 401Q500 370 506.0 334.5Q512 299 492 279L191 -23Q211 -2 204.0 35.0Q197 72 165 103L130 138L432 440Z" fill="#e1e8ed" />
<path d="M31 92Q44 105 63 100Q80 95 93.5 74.5Q107 54 113 24Q116 14 105.5 11.5Q95 9 92 20Q87 45 77.0 60.5Q67 76 56 79Q50 81 47 77Q38 71 43.5 50.5Q49 30 66 10Q82 -8 103.0 -19.0Q124 -30 138 -18Q147 -10 147 5Q146 40 108 71Q99 77 106 86Q113 94 121 87Q168 50 168 5Q169 -20 152 -34Q137 -48 117.5 -45.0Q98 -42 81.0 -31.0Q64 -20 50 -4Q27 22 21.5 49.5Q16 77 31 92ZM404 387Q411 394 419 388Q425 383 434.0 374.0Q443 365 457.5 340.0Q472 315 473 290Q473 279 462.5 278.5Q452 278 451 288Q451 309 438.0 330.5Q425 352 417.5 360.0Q410 368 405 371Q397 378 404 386Q404 387 404 387ZM374 357Q381 364 388 358Q395 353 404.0 344.0Q413 335 427.0 309.5Q441 284 443 259Q443 249 432.5 248.5Q422 248 421 258Q420 279 407.5 300.5Q395 322 387.0 330.0Q379 338 375 341Q367 348 373 356Q374 356 374 357ZM253 236Q260 243 268 237Q274 232 283.0 223.0Q292 214 306.5 189.0Q321 164 322 139Q322 128 311.5 127.5Q301 127 301 138Q300 158 287.5 179.5Q275 201 267.0 209.0Q259 217 254 220Q246 227 253 235Q253 236 253 236ZM183 166Q190 173 197 167Q204 162 212.5 153.0Q221 144 235.5 118.5Q250 93 252 68Q252 58 241.5 57.5Q231 57 230 67Q229 88 216.5 109.5Q204 131 196.0 139.0Q188 147 184 150Q176 157 182 165Q183 165 183 166Z" fill="#99aab5" />
<path d="M352 170Q349 167 345.5 167.5Q342 168 341 171Q336 192 320.5 215.0Q305 238 291 251Q284 257 291 265Q320 293 344 318Q351 325 359 320Q377 305 395.0 267.0Q413 229 406 222Q406 222 384.5 202.0Q363 182 352 170Z" fill="#5dadec" />
</g></svg>