<svg xmlns="http://www.w3.org/2000/svg" viewBox="0 0 512 512">
<g transform="matrix(1 0 0 -1 0 512)">
<path d="M100 448H341V107H100Z" fill="#e1e8ed" />
<path d="M100 277H341V107H100Z" fill="#99aab5" />
<path d="M29.0 157.0Q0 207 0.0 277.5Q0 348 29.0 398.0Q58 448 99.5 448.0Q141 448 170.0 398.0Q199 348 199.0 277.5Q199 207 170.0 157.0Q141 107 99.5 107.0Q58 107 29.0 157.0Z" fill="#ccd6dd" />
<path d="M261.0 157.0Q228 207 228.0 277.5Q228 348 261.0 398.0Q294 448 341.0 448.0Q388 448 421.5 398.0Q455 348 455.0 277.5Q455 207 421.5 157.0Q388 107 341.0 107.0Q294 107 261.0 157.0Z" fill="#e1e8ed" />
<path d="M455 277V107Q455 71 461.0 40.0Q467 9 475.5 -9.0Q484 -27 492.0 -40.5Q500 -54 506 -59L512 -64H256Q254 -62 250.0 -58.5Q246 -55 236.0 -40.5Q226 -26 218.5 -8.5Q211 9 205.0 40.0Q199 71 199 107V292Z" fill="#e1e8ed" />
<path d="M455 277V107Q455 5 498 -50H261Q220 -8 213 78V277Q213 327 199.0 368.0Q185 409 161 434H387Q417 414 436.0 371.5Q455 329 455 277Z" fill="#f5f8fa" />
<path d="M55.5 227.0Q43 248 43.0 277.5Q43 307 55.5 327.5Q68 348 85.5 348.0Q103 348 115.5 327.5Q128 307 128.0 277.5Q128 248 115.5 227.0Q103 206 85.5 206.0Q68 206 55.5 227.0Z" fill="#99aab5" />
<path d="M46 306Q51 325 61.5 336.5Q72 348 85 348Q103 348 115.5 327.5Q128 307 128 277Q128 265 125 253Q118 275 96.5 290.0Q75 305 46 306Z" fill="#66757f" />
<path d="M235 263H213V277H235Q242 277 242.0 270.0Q242 263 235 263ZM292 263H263Q256 263 256.0 270.0Q256 277 263 277H292Q299 277 299.0 270.0Q299 263 292 263ZM348 263H320Q313 263 313.0 270.0Q313 277 320 277H348Q356 277 356.0 270.0Q356 263 348 263ZM405 263H377Q370 263 370.0 270.0Q370 277 377 277H405Q412 277 412.0 270.0Q412 263 405 263ZM455 263H434Q427 263 427.0 270.0Q427 277 434 277H455ZM235 92H213V107H235Q242 107 242.0 99.5Q242 92 235 92ZM292 92H263Q256 92 256.0 99.5Q256 107 263 107H292Q299 107 299.0 99.5Q299 92 292 92ZM348 92H320Q313 92 313.0 99.5Q313 107 320 107H348Q356 107 356.0 99.5Q356 92 348 92ZM405 92H377Q370 92 370.0 99.5Q370 107 377 107H405Q412 107 412.0 99.5Q412 92 405 92ZM455 92H434Q427 92 427.0 99.5Q427 107 434 107H455Z" fill="#ccd6dd" />
</g></svg>