<svg xmlns="http://www.w3.org/2000/svg" viewBox="0 0 2048 2048">
<g transform="matrix(1 0 0 -1 0 2048)">
<path d="M354 -23Q361 -35 348 -42L311 -62Q298 -69 291.5 -56.5Q285 -44 297 -37L300 -36H284Q279 -36 274.5 -31.5Q270 -27 270.0 -21.0Q270 -15 274.5 -11.0Q279 -7 284 -7H313Q313 36 327 50L341 64Q348 64 348.0 59.0Q348 54 344.5 46.0Q341 38 341 36Q340 32 337.5 27.0Q335 22 336.5 8.0Q338 -6 348 -17Q352 -19 354 -23ZM254 -23Q261 -35 249 -42L211 -62Q199 -69 192.0 -56.5Q185 -44 197 -37L201 -36H185Q179 -36 175.0 -31.5Q171 -27 171.0 -21.0Q171 -15 175.0 -11.0Q179 -7 185 -7H213Q213 36 228 50L242 64Q248 64 248.0 59.0Q248 54 245.0 46.0Q242 38 242 36Q240 32 238.0 27.0Q236 22 237.0 8.0Q238 -6 248 -17Q252 -19 254 -23ZM71 277Q56 277 39.0 286.5Q22 296 22.0 306.0Q22 316 39.0 325.0Q56 334 71 334Q86 334 96.5 326.0Q107 318 107.0 306.0Q107 294 96.5 285.5Q86 277 71 277Z" fill="#ffac33" />
<path d="M192 420Q207 412 210.5 395.0Q214 378 202.0 363.0Q190 348 164 348H145Q153 337 153 320Q153 300 148.5 285.5Q144 271 137.5 265.0Q131 259 123.0 257.0Q115 255 108.0 257.0Q101 259 96 263Q96 241 95.5 228.5Q95 216 91.5 198.5Q88 181 78.5 172.5Q69 164 54.0 164.0Q39 164 33.0 170.5Q27 177 29.0 186.5Q31 196 36.0 205.5Q41 215 46 220Q50 224 52.5 230.0Q55 236 56.0 243.0Q57 250 57.0 255.0Q57 260 57.0 268.0Q57 276 57 277V343Q42 343 32.0 352.0Q22 361 22 377Q22 395 32.5 402.5Q43 410 54 408L64 405Q64 407 64.5 410.0Q65 413 67.0 420.5Q69 428 73.0 433.5Q77 439 86.0 443.5Q95 448 107 448Q126 448 136.5 437.5Q147 427 148 416L150 405Q150 406 151.0 408.0Q152 410 156.0 414.5Q160 419 164.5 420.5Q169 422 176.5 423.5Q184 425 192 420Z" fill="#dd2e44" />
<path d="M462 320Q480 277 483.5 233.0Q487 189 475.0 148.5Q463 108 439.0 76.5Q415 45 373.0 26.0Q331 7 278 7Q201 7 145.5 55.5Q90 104 78 164Q75 181 72.5 196.0Q70 211 68.5 225.0Q67 239 66.0 247.5Q65 256 64.5 270.0Q64 284 64.0 290.0Q64 296 64.0 312.0Q64 328 64 334Q64 364 84.5 382.0Q105 400 135 391Q162 383 181.0 365.5Q200 348 210.0 328.5Q220 309 231.0 291.0Q242 273 260.0 261.0Q278 249 306 249Q335 249 357.5 258.0Q380 267 392.5 280.0Q405 293 414.5 307.5Q424 322 429.0 333.0Q434 344 439.0 349.0Q444 354 449.0 347.5Q454 341 462 320Z" fill="#e1e8ed" />
<path d="M97.0 324.0Q93 328 93.0 334.0Q93 340 97.0 344.0Q101 348 107.0 348.0Q113 348 117.0 344.0Q121 340 121.0 334.0Q121 328 117.0 324.0Q113 320 107.0 320.0Q101 320 97.0 324.0Z" fill="#292f33" />
</g></svg>