<svg xmlns="http://www.w3.org/2000/svg" viewBox="0 0 2048 2048">
<g transform="matrix(1 0 0 -1 0 2048)">
<path d="M218 222 262 206 246 162Q181 176 171 192Q167 200 169.0 209.0Q171 218 175 224L180 231Z" fill="#000000" />
<path d="M28 206H484Q484 178 469 107Q464 79 385.0 77.0Q306 75 230.0 86.0Q154 97 119 107Q100 112 77.0 137.0Q54 162 41 184Z" fill="#c1694f" />
<path d="M484 178H28Q23 178 18.5 182.0Q14 186 14.0 192.0Q14 198 18.5 202.0Q23 206 28 206H484Q489 206 493.5 202.0Q498 198 498.0 192.0Q498 186 493.5 182.0Q489 178 484 178Z" fill="#f4900c" />
<path d="M0 108Q0 119 11 122Q65 133 132.0 130.5Q199 128 253.0 119.5Q307 111 374.0 108.0Q441 105 495 115Q501 117 506.5 112.5Q512 108 512 102V-36Q512 -47 503.5 -55.5Q495 -64 484 -64H28Q17 -64 8.5 -55.5Q0 -47 0 -36Z" fill="#55acee" />
<path d="M351 247 236 133Q221 117 216.0 97.5Q211 78 194 61L149 15Q143 10 138 15L124 29L110 43Q105 48 110 54L156 99Q173 116 192.5 121.0Q212 126 227 141L342 256Q346 260 350.5 255.5Q355 251 351 247Z" fill="#1c6399" />
<path d="M258 362Q269 364 280.0 356.5Q291 349 292 338Q292 321 282.5 310.5Q273 300 262 303Q251 307 245.0 312.0Q239 317 237 328Q235 340 241.0 350.0Q247 360 258 362Z" fill="#ffdc5d" />
<path d="M240 324Q233 336 241.0 339.5Q249 343 260 341L272 339Q276 338 276.0 334.0Q276 330 274.5 324.0Q273 318 274 314Q275 312 272.5 310.0Q270 308 266 308H263Q258 309 256 302Q255 299 256 295Q257 283 245 282Q237 281 236 290Q235 297 239 305Q243 318 240 324Z" fill="#ffdc5d" />
<path d="M240 361Q247 367 260.5 367.5Q274 368 284 358Q291 358 293.5 352.5Q296 347 295 342Q294 341 287.0 338.5Q280 336 278 332Q276 335 278 340Q277 340 275.0 336.5Q273 333 269.5 330.0Q266 327 259.5 326.0Q253 325 249.5 321.0Q246 317 246 314V311Q239 316 236 322Q231 331 232.0 342.5Q233 354 240 361Z" fill="#ffac33" />
<path d="M343 248Q349 241 346 236Q339 225 336 225Q336 225 335 225Q333 225 328 229Q325 232 324 233Q323 233 317 235Q291 240 285 243Q274 250 249 265Q235 274 242 289Q246 295 252 296Q256 298 264 292Q272 287 285 273Q286 272 288.0 270.0Q290 268 292.0 266.0Q294 264 294 264Q297 261 312.0 255.0Q327 249 330 249Q330 249 333 251Q337 253 341 249Z" fill="#ffdc5d" />
<path d="M277 284 287 271 270 252Q262 256 256 261Q256 261 253.5 257.5Q251 254 247 250Q238 242 231 219Q228 215 213.0 215.5Q198 216 181 218L164 221Q174 233 182.5 250.5Q191 268 196 275Q224 309 256 302Q266 300 277 284Z" fill="#fa743e" />
</g></svg>