<svg xmlns="http://www.w3.org/2000/svg" viewBox="0 0 2048 2048">
<g transform="matrix(1 0 0 -1 0 2048)">
<path d="M24.5 78.5Q49 103 83.5 103.0Q118 103 142.5 78.5Q167 54 167.0 19.5Q167 -15 142.5 -39.5Q118 -64 83.5 -64.0Q49 -64 24.5 -39.5Q0 -15 0.0 19.5Q0 54 24.5 78.5ZM41.5 -22.5Q59 -40 83.5 -40.0Q108 -40 125.5 -22.5Q143 -5 143.0 19.5Q143 44 125.5 61.5Q108 79 83.5 79.0Q59 79 41.5 61.5Q24 44 24.0 19.5Q24 -5 41.5 -22.5ZM280 392Q315 427 350.5 438.5Q386 450 415.0 440.5Q444 431 469.5 405.5Q495 380 504.5 351.0Q514 322 502.5 286.5Q491 251 456 216Q433 192 410 181Q391 171 375 187L251 311Q235 327 245 346Q256 369 280 392Z" fill="#99aab5" />
<path d="M434 308Q430 290 414.0 278.5Q398 267 378.0 270.5Q358 274 346 295Q337 282 335.0 268.5Q333 255 338.5 241.0Q344 227 349.0 218.5Q354 210 363 198Q307 249 260 301Q274 291 287.0 286.5Q300 282 307.5 283.0Q315 284 315 289Q315 317 335.0 345.0Q355 373 380 373Q406 373 423.5 353.0Q441 333 434 308Z" fill="#66757f" />
<path d="M19 67Q26 80 59.0 124.0Q92 168 151.5 233.5Q211 299 264 340L278 322Q210 270 142.5 190.0Q75 110 44 64Q42 63 36.5 63.5Q31 64 25 66ZM137 -42 127 -21Q139 -15 181.5 16.0Q224 47 287.5 103.5Q351 160 393 211L410 197Q351 123 259.0 48.0Q167 -27 137 -42Z" fill="#99aab5" />
</g></svg>