<svg xmlns="http://www.w3.org/2000/svg" viewBox="0 0 512 512">
<g transform="matrix(1 0 0 -1 0 512)">
<path d="M512 149Q512 61 449.5 -1.5Q387 -64 298.5 -64.0Q210 -64 147.5 -1.5Q85 61 85.0 149.5Q85 238 147.5 300.5Q210 363 298.5 363.0Q387 363 449.5 300.5Q512 238 512 149Z" fill="#ffcc4d" />
<path d="M325 432Q325 431 325 430Q325 426 322 424L320 423Q324 408 310 399Q304 396 294.0 390.0Q284 384 262.5 371.5Q241 359 227.0 350.5Q213 342 213 342Q218 339 218 333Q218 330 216 327Q200 306 192.0 284.0Q184 262 175.5 248.5Q167 235 142 223Q129 217 121 206Q97 175 57 175Q33 175 17.0 191.0Q1 207 1 230Q1 258 14.5 278.5Q28 299 44.0 308.5Q60 318 79.5 328.5Q99 339 105 345Q145 384 161 393Q167 397 213 411L295 446Q299 448 304 448Q305 448 306 448Q321 446 325 432Z" fill="#f4900c" />
<path d="M325 430Q325 429 325 428Q324 425 322 424L320 423L202 366H201Q201 366 200.5 365.5Q200 365 199 365Q188 359 182 347Q193 354 203 352Q217 350 218 332Q218 327 213 327Q209 327 208 331Q207 341 201 343Q184 346 165 312Q146 279 108 241Q106 240 104 240Q99 240 99 245Q99 247 101 248Q138 285 157 317Q161 325 167 339Q178 366 195 374Q207 380 213.0 389.5Q219 399 217 407Q216 410 214 412L223 416Q226 413 227 409Q230 399 224 387L260 405Q275 414 269 427Q267 431 263 433L274 437Q277 434 278 431Q280 426 280 421Q280 418 280 414Q282 415 286.0 417.0Q290 419 298.5 423.0Q307 427 312.5 430.0Q318 433 318 433Q319 433 320 433Q323 433 325 430Z" fill="#b55005" />
<path d="M299 32Q240 32 210 40Q199 42 199 53Q199 55 200 57Q202 68 213 68Q215 68 217 67Q243 60 299 60Q354 60 381 67Q382 68 384 68Q390 68 394.0 63.5Q398 59 398 53Q398 42 387 40Q359 32 299 32ZM256 249Q262 249 266.0 245.0Q270 241 270.0 235.0Q270 229 266.0 224.5Q262 220 256 220H249Q256 208 256 192Q256 174 247.5 161.5Q239 149 227.5 149.0Q216 149 207.5 161.5Q199 174 199 192Q199 208 206 220H199Q193 220 189.0 224.5Q185 229 185.0 235.0Q185 241 189.0 245.0Q193 249 199 249ZM398 249Q404 249 408.0 245.0Q412 241 412.0 235.0Q412 229 408.0 224.5Q404 220 398 220H391Q398 208 398 192Q398 174 390.0 161.5Q382 149 370.0 149.0Q358 149 349.5 161.5Q341 174 341 192Q341 208 349 220H341Q335 220 331.0 224.5Q327 229 327.0 235.0Q327 241 331.0 245.0Q335 249 341 249Z" fill="#65471b" />
</g></svg>