<svg xmlns="http://www.w3.org/2000/svg" viewBox="0 0 2048 2048">
<g transform="matrix(1 0 0 -1 0 2048)">
<path d="M18.5 -45.5Q0 -27 0.0 0.0Q0 27 18.5 45.5Q37 64 64.0 64.0Q91 64 109.5 45.5Q128 27 128.0 0.0Q128 -27 109.5 -45.5Q91 -64 64.0 -64.0Q37 -64 18.5 -45.5ZM402.5 -45.5Q384 -27 384.0 0.0Q384 27 402.5 45.5Q421 64 448.0 64.0Q475 64 493.5 45.5Q512 27 512.0 0.0Q512 -27 493.5 -45.5Q475 -64 448.0 -64.0Q421 -64 402.5 -45.5Z" fill="#292f33" />
<path d="M33.5 -30.5Q21 -18 21.0 0.0Q21 18 33.5 30.5Q46 43 64.0 43.0Q82 43 94.5 30.5Q107 18 107.0 0.0Q107 -18 94.5 -30.5Q82 -43 64.0 -43.0Q46 -43 33.5 -30.5ZM417.5 -30.5Q405 -18 405.0 0.0Q405 18 417.5 30.5Q430 43 448.0 43.0Q466 43 478.5 30.5Q491 18 491.0 0.0Q491 -18 478.5 -30.5Q466 -43 448.0 -43.0Q430 -43 417.5 -30.5Z" fill="#dd2e44" />
<path d="M448 -21H164Q155 -21 148.5 -15.0Q142 -9 142.0 0.0Q142 9 148.5 15.0Q155 21 164 21H448Q457 21 463.0 15.0Q469 9 469.0 0.0Q469 -9 463.0 -15.0Q457 -21 448 -21Z" fill="#55acee" />
<path d="M370 -3 349 -4Q349 -4 348.5 -2.5Q348 -1 348 0Q348 41 377.5 70.5Q407 100 448 100Q480 100 507 80L494 63Q473 78 448 78Q416 78 393.0 55.0Q370 32 370 0Q370 -1 370.0 -2.0Q370 -3 370 -3ZM80 77Q86 105 90 125Q134 116 163.0 81.0Q192 46 192 0H142Q142 28 124.5 49.5Q107 71 80 77Z" fill="#55acee" />
<path d="M57 1 142 403Q144 410 151.0 408.5Q158 407 156 400L71 -2Q69 -9 62.5 -7.5Q56 -6 57 1Z" fill="#99aab5" />
<path d="M87 75 73 77Q67 79 64.0 84.0Q61 89 62 94L80 178Q81 184 86.0 187.0Q91 190 97 189L111 186Q116 185 119.5 180.0Q123 175 122 169L104 85Q103 80 98.0 76.5Q93 73 87 75Z" fill="#55acee" />
<path d="M132 387 104 392Q96 394 91.0 401.5Q86 409 88.0 417.5Q90 426 97.5 431.0Q105 436 113 434L141 428Q150 426 154.5 419.0Q159 412 157.5 403.0Q156 394 148.5 389.5Q141 385 132 387Z" fill="#dd2e44" />
<path d="M171 399 151 308Q150 303 145.0 299.5Q140 296 135 298L121 300Q115 302 111.5 307.0Q108 312 110 317L129 408Q131 416 138.5 421.0Q146 426 154.5 424.0Q163 422 167.5 414.5Q172 407 171 399ZM493.0 64.0Q490 67 490.0 71.5Q490 76 493.0 79.0Q496 82 500.5 82.0Q505 82 508.0 79.0Q511 76 511.0 71.5Q511 67 508.0 64.0Q505 61 500.5 61.0Q496 61 493.0 64.0Z" fill="#55acee" />
<path d="M201 372 159 381Q150 383 145.5 390.5Q141 398 142.5 406.5Q144 415 151.5 419.5Q159 424 168 423L209 414Q218 412 223.0 404.5Q228 397 226.0 388.5Q224 380 216.5 375.0Q209 370 201 372Z" fill="#dd2e44" />
<path d="M223.0 404.5Q228 397 226.0 388.5Q224 380 217.0 375.0Q210 370 201.0 372.0Q192 374 187.5 381.5Q183 389 184.5 397.5Q186 406 193.5 410.5Q201 415 209.5 413.5Q218 412 223.0 404.5Z" fill="#ea596e" />
</g></svg>