<svg xmlns="http://www.w3.org/2000/svg" viewBox="0 0 512 512">
<g transform="matrix(1 0 0 -1 0 512)">
<path d="M266 72Q269 86 278.5 95.0Q288 104 296 103Q304 102 307.0 91.0Q310 80 302 68Q294 57 291.5 40.0Q289 23 290 11L291 -1Q287 3 282.0 10.5Q277 18 270.0 37.5Q263 57 266 72Z" fill="#583529" />
<path d="M222 71Q234 80 255 76Q279 72 247 47Q225 30 203.0 26.5Q181 23 164.5 30.0Q148 37 136.0 47.5Q124 58 117 70Q104 91 113 99Q122 106 135 87Q149 65 171.5 59.0Q194 53 222 71Z" fill="#583529" />
<path d="M137 77Q126 61 105.5 58.0Q85 55 64.5 67.5Q44 80 33 105Q23 129 22.5 153.5Q22 178 27.5 193.0Q33 208 40 217L41 208Q42 143 71 128Q76 126 75 129Q74 131 71 139Q45 194 61 229Q64 235 66 225Q76 175 100 160Q104 157 108 156Q173 128 137 77ZM175 137Q180 144 188.0 148.0Q196 152 223.0 156.0Q250 160 296 160Q328 160 351.0 168.5Q374 177 390.5 188.5Q407 200 414 203Q450 215 458 179Q468 138 436 92Q397 35 329 35Q301 35 276.5 40.0Q252 45 236.0 53.0Q220 61 207.0 71.0Q194 81 187.5 91.0Q181 101 176.5 110.5Q172 120 173.0 127.0Q174 134 175 137Z" fill="#7c533e" />
<path d="M330 162Q362 168 385.0 189.0Q408 210 417.0 237.0Q426 264 425.5 292.0Q425 320 414 341Q391 383 346.0 393.0Q301 403 255 369Q257 364 256.0 350.5Q255 337 252.5 323.0Q250 309 238.0 296.5Q226 284 207 281Q215 296 206.5 313.5Q198 331 189.5 350.5Q181 370 188 390Q195 411 210.5 418.5Q226 426 238.0 423.0Q250 420 252 413Q285 439 323.5 443.5Q362 448 378 430Q425 430 456.0 404.5Q487 379 487 351Q505 333 508.5 299.0Q512 265 505.5 238.0Q499 211 490 206Q496 159 479.5 124.5Q463 90 418 77Q408 74 356 103Q286 142 313 157Q319 161 330 162Z" fill="#7c533e" />
<path d="M256 85Q262 94 275 84Q293 69 275 50Q273 48 270 45Q236 18 190 25Q162 29 162 43Q162 56 188 53Q234 48 256 85Z" fill="#af7e57" />
<path d="M199 48Q208 15 175.5 -10.0Q143 -35 98 -22Q58 -10 34.0 17.0Q10 44 6 65Q5 67 17 58Q72 14 106 28Q113 31 100 34Q40 51 19 79Q14 86 11 93Q9 97 10.5 97.0Q12 97 21 92Q74 62 109 80Q120 86 130.5 88.5Q141 91 155.5 91.5Q170 92 181.5 81.0Q193 70 199 48ZM437 84Q446 71 448.0 52.0Q450 33 447 20L445 7Q432 51 406 65Q394 72 392.5 84.5Q391 97 398 100Q404 105 416.5 100.5Q429 96 437 84ZM397 62Q404 45 403.0 27.5Q402 10 397 -3L393 -16Q386 30 363 48Q352 57 352.0 68.5Q352 80 360 83Q368 86 379.0 80.5Q390 75 397 62ZM350 46Q353 31 347.0 12.5Q341 -6 333 -17L326 -27Q331 18 314 42Q306 54 309.0 65.0Q312 76 320 77Q329 78 338.0 69.0Q347 60 350 46Z" fill="#af7e57" />
<path d="M237.5 137.5Q243 132 243.0 124.5Q243 117 237.5 112.0Q232 107 224.5 107.0Q217 107 211.5 112.0Q206 117 206.0 124.5Q206 132 211.5 137.5Q217 143 224.5 143.0Q232 143 237.5 137.5ZM255 413Q263 393 263.0 368.5Q263 344 256 324Q251 311 237.5 296.5Q224 282 204 279Q208 287 208.0 296.0Q208 305 206.5 309.5Q205 314 198.0 327.0Q191 340 189 343Q170 384 201 414Q216 428 232.0 427.0Q248 426 255 413Z" fill="#292f33" />
<path d="M420 244Q479 241 508 256Q510 244 504.5 227.0Q499 210 490 206Q478 199 442.0 201.5Q406 204 404 215Q403 219 410.0 231.5Q417 244 420 244ZM470 391Q479 385 484.0 372.0Q489 359 487 351Q486 341 456.0 330.0Q426 319 421 322Q419 323 416.0 329.0Q413 335 411.5 340.5Q410 346 411 346Q425 349 446.5 364.5Q468 380 470 391ZM378 430Q378 419 371.5 404.5Q365 390 360 389Q354 387 339 393Q336 394 336 395Q355 418 348 443Q356 444 363.5 441.5Q371 439 374.5 435.5Q378 432 378 430Z" fill="#583529" />
</g></svg>