<svg xmlns="http://www.w3.org/2000/svg" viewBox="0 0 512 512">
<g transform="matrix(1 0 0 -1 0 512)">
<path d="M85 178H100V78H85Z" fill="#67757f" />
<path d="M156 192V135Q156 126 155.5 120.5Q155 115 148.0 107.0Q141 99 128 92L100 78V178Z" fill="#9aaab4" />
<path d="M160 235H174Q185 235 185 219V216Q185 206 176 202L105 167Q99 164 92 164H84Q79 164 75.0 168.5Q71 173 71 179V183Q71 192 79 196L153 233Q156 235 160 235Z" fill="#9aaab4" />
<path d="M185 221V213Q185 207 177 202L104 167Q100 165 96.0 167.5Q92 170 92 175V181Q92 189 100 193L174 230Q179 232 182.0 229.0Q185 226 185 221Z" fill="#ccd6dd" />
<path d="M384 107H214Q190 107 173.5 123.5Q157 140 157 164V377Q157 400 173.5 417.0Q190 434 214 434H384Q407 434 424.0 417.0Q441 400 441 377V164Q441 140 424.0 123.5Q407 107 384 107Z" fill="#5dadec" />
<path d="M370 107H200Q176 107 159.5 123.5Q143 140 143 164V377Q143 400 159.5 417.0Q176 434 200 434H370Q393 434 410.0 417.0Q427 400 427 377V164Q427 140 410.0 123.5Q393 107 370 107Z" fill="#4289c1" />
<path d="M213 434H356V320H213Z" fill="#e1e8ed" />
<path d="M356 7V107Q356 118 364.0 126.5Q372 135 384.0 135.0Q396 135 404.0 126.5Q412 118 412 107V7Q412 -5 404.0 -13.0Q396 -21 384.0 -21.0Q372 -21 364.0 -13.0Q356 -5 356 7Z" fill="#9aaab4" />
<path d="M320 -56 312 -61 327 46 412 89V11L398 -17ZM156 7V107Q156 118 164.5 126.5Q173 135 185.0 135.0Q197 135 205.0 126.5Q213 118 213 107V7Q213 -5 205.0 -13.0Q197 -21 185.0 -21.0Q173 -21 164.5 -13.0Q156 -5 156 7Z" fill="#9aaab4" />
<path d="M121 -56 112 -61 128 46 213 89V11L199 -17Z" fill="#9aaab4" />
<path d="M71 -36V64Q71 76 79.5 84.0Q88 92 99.5 92.0Q111 92 119.5 84.0Q128 76 128 64V-36Q128 -47 119.5 -55.5Q111 -64 99.5 -64.0Q88 -64 79.5 -55.5Q71 -47 71 -36ZM270 -36V64Q270 76 278.5 84.0Q287 92 298.5 92.0Q310 92 318.5 84.0Q327 76 327 64V-36Q327 -47 318.5 -55.5Q310 -64 298.5 -64.0Q287 -64 278.5 -55.5Q270 -47 270 -36Z" fill="#67757f" />
<path d="M154 162 399 164 314 121 63 118 67 121 149 162ZM341 41 333 37 341 99 427 141V97L419 80Z" fill="#5dadec" />
<path d="M412 78H156Q151 78 146.5 82.5Q142 87 142 92V149Q142 155 146.5 159.5Q151 164 156 164H412Q418 164 422.5 159.5Q427 155 427 149V92Q427 87 422.5 82.5Q418 78 412 78Z" fill="#5dadec" />
<path d="M327 36H71Q65 36 61.0 40.0Q57 44 57 50V107Q57 113 61.0 117.0Q65 121 71 121H327Q333 121 337.0 117.0Q341 113 341 107V50Q341 44 337.0 40.0Q333 36 327 36Z" fill="#2a6797" />
<path d="M370 178H384V78H370Z" fill="#67757f" />
<path d="M441 192V135Q441 126 440.0 120.5Q439 115 432.5 107.0Q426 99 412 92L384 78V178Z" fill="#9aaab4" />
<path d="M444 235H458Q469 235 469 219V216Q469 206 461 202L390 167Q384 164 377 164H368Q363 164 359.5 168.5Q356 173 356 179V183Q356 192 364 196L438 233Q441 235 444 235Z" fill="#9aaab4" />
<path d="M469 221V213Q469 207 462 202L389 167Q385 165 380.5 167.5Q376 170 376 175V181Q376 189 385 193L459 230Q463 232 466.0 229.0Q469 226 469 221Z" fill="#ccd6dd" />
</g></svg>