<svg xmlns="http://www.w3.org/2000/svg" viewBox="0 0 512 512">
<g transform="matrix(1 0 0 -1 0 512)">
<path d="M326 243Q324 308 415 310Q471 311 501 297Q508 293 505 291Q486 282 465.0 249.0Q444 216 439 210Q415 185 389.5 179.5Q364 174 347 189Q311 161 284 114V-50Q284 -62 256.0 -62.0Q228 -62 228 -50V149Q228 156 228 169Q229 229 219.5 267.0Q210 305 177 327Q162 303 133.0 306.0Q104 309 76 338Q74 341 49.0 375.5Q24 410 5 419Q1 421 10 425Q49 441 106 438Q180 433 189 385Q281 341 285 209Q304 229 326 243Z" fill="#77b255" />
</g></svg>