<svg xmlns="http://www.w3.org/2000/svg" viewBox="0 0 2048 2048">
<g transform="matrix(1 0 0 -1 0 2048)">
<path d="M512 149Q512 32 356 -7Q300 -19 233.5 -14.5Q167 -10 112.0 1.5Q57 13 57 21Q57 43 154 37Q276 30 319 74Q339 97 324 112Q309 124 290.0 126.0Q271 128 253.0 123.5Q235 119 206.5 115.5Q178 112 153 114Q88 120 44.0 158.5Q0 197 0 220Q0 235 45.5 262.0Q91 289 160.5 311.5Q230 334 284 334Q345 334 395.5 314.5Q446 295 479.0 252.0Q512 209 512 149Z" fill="#66757f" />
<path d="M213 270Q213 261 207.0 255.0Q201 249 192.0 249.0Q183 249 177.0 255.0Q171 261 171 270Q171 274 172.0 275.5Q173 277 175.0 277.5Q177 278 179.0 278.0Q181 278 185.0 277.5Q189 277 192.0 277.0Q195 277 199.0 277.5Q203 278 205.0 278.0Q207 278 209.0 277.5Q211 277 212.0 275.5Q213 274 213 270ZM383 128 497 21Q495 20 491.5 19.0Q488 18 476.0 21.0Q464 24 452.0 33.0Q440 42 421.0 66.5Q402 91 383 128Z" fill="#292f33" />
<path d="M199 320Q221 375 252.5 411.5Q284 448 312 448Q323 448 326.0 444.5Q329 441 329.0 430.5Q329 420 329.5 405.5Q330 391 340.0 364.0Q350 337 370 306Q403 253 353 259Q302 266 199 320ZM43 21Q43 36 41.5 51.5Q40 67 38.5 76.0Q37 85 36.5 92.5Q36 100 38.0 103.5Q40 107 45 107Q59 107 94.5 73.5Q130 40 130.0 18.0Q130 -4 95.0 -34.0Q60 -64 45 -64Q37 -64 36.5 -56.5Q36 -49 39.5 -24.5Q43 0 43 21ZM383 128 462 183Q463 180 465.0 174.5Q467 169 472.0 154.0Q477 139 481.5 125.0Q486 111 491.0 93.5Q496 76 498.5 62.0Q501 48 501.0 36.5Q501 25 497 21Q480 28 451.5 54.5Q423 81 403 104Z" fill="#66757f" />
<path d="M128 159Q128 152 123.0 136.5Q118 121 113.5 121.0Q109 121 104.5 136.5Q100 152 100 159V184Q100 187 105 179Q110 172 113.5 172.0Q117 172 126 184Q128 187 128 184ZM171 159Q171 152 166.0 136.5Q161 121 156.5 121.0Q152 121 147.0 136.5Q142 152 142 159V184Q142 187 148 179Q153 172 156.5 172.0Q160 172 168 184Q171 187 171 184ZM213 173Q213 166 208.5 150.5Q204 135 199.0 135.0Q194 135 189.5 150.5Q185 166 185 173V199Q185 201 191 193Q196 186 199.5 186.0Q203 186 211 198Q213 202 213 199ZM256 173Q256 166 251.0 150.5Q246 135 241.5 135.0Q237 135 232.5 150.5Q228 166 228 173V199Q228 201 233 193Q238 186 241.5 186.0Q245 186 254 198Q256 202 256 199Z" fill="#ffffff" />
<path d="M85 164V206H270V178H185Z" fill="#66757f" />
<path d="M262 175Q262 175 249 174Q137 174 72 139Q60 146 50 154Q69 173 142.5 184.0Q216 195 262 175Z" fill="#292f33" />
</g></svg>