<svg xmlns="http://www.w3.org/2000/svg" viewBox="0 0 2048 2048">
<g transform="matrix(1 0 0 -1 0 2048)">
<path d="M238 135H464Q461 125 454.5 108.0Q448 91 425.5 51.0Q403 11 376 -15Q339 -51 249 -51Q173 -51 136 -15Q114 6 93.5 44.0Q73 82 64 108L54 135Z" fill="#55acee" />
<path d="M442 81Q388 43 259 43Q128 43 75 82Q65 104 57 125Q60 130 66 135H452Q458 130 460 125Q453 104 442 81Z" fill="#3b88c3" />
<path d="M28 206H484V143Q484 118 417.0 100.5Q350 83 256.0 83.0Q162 83 95.0 100.5Q28 118 28 143Z" fill="#55acee" />
<path d="M55 174Q3 193 42 270Q78 341 152 398Q211 443 255 443Q287 443 306.5 432.5Q326 422 352.0 400.0Q378 378 406 363Q437 347 457.0 317.0Q477 287 482.5 258.5Q488 230 486.0 207.5Q484 185 476 179Q458 166 395.5 153.0Q333 140 254 140Q147 140 55 174Z" fill="#f9d2dc" />
<path d="M169 281Q130 332 68 311Q106 364 159.5 403.5Q213 443 255 443Q287 443 306.5 432.5Q326 422 351.5 400.0Q377 378 406 363Q442 344 464 306Q431 317 398.0 316.5Q365 316 343 294Q322 274 290.0 261.0Q258 248 223.0 251.5Q188 255 169 281Z" fill="#f98097" />
<path d="M160.5 338.5Q156 343 156.0 348.5Q156 354 160.5 358.5Q165 363 171.0 363.0Q177 363 181.0 358.5Q185 354 185.0 348.5Q185 343 181.0 338.5Q177 334 171.0 334.0Q165 334 160.5 338.5ZM246.0 296.0Q242 300 242.0 306.0Q242 312 246.0 316.0Q250 320 256.0 320.0Q262 320 266.0 316.0Q270 312 270.0 306.0Q270 300 266.0 296.0Q262 292 256.0 292.0Q250 292 246.0 296.0ZM303.0 367.0Q299 371 299.0 377.0Q299 383 303.0 387.0Q307 391 313.0 391.0Q319 391 323.0 387.0Q327 383 327.0 377.0Q327 371 323.0 367.0Q319 363 313.0 363.0Q307 363 303.0 367.0Z" fill="#ea596e" />
</g></svg>