<svg xmlns="http://www.w3.org/2000/svg" viewBox="0 0 2048 2048">
<g transform="matrix(1 0 0 -1 0 2048)">
<path d="M170 397Q280 404 285 300Q288 260 248.0 232.0Q208 204 171 202Q150 202 151 213Q152 226 173 234Q176 235 180 236Q199 240 217.5 259.5Q236 279 231 299Q224 325 193.5 325.0Q163 325 141 295Q132 282 110.0 284.5Q88 287 82 301Q71 329 96.0 361.5Q121 394 170 397Z" fill="#ffac33" />
<path d="M508 144Q508 68 467 29Q461 11 453.0 -6.5Q445 -24 429.0 -44.0Q413 -64 398 -64Q371 -64 369 -14Q338 -18 302 -18Q274 -18 249 -15Q237 -64 213 -64Q201 -64 191.0 -54.0Q181 -44 174.0 -28.5Q167 -13 163.5 -2.5Q160 8 157 18Q116 50 111 121Q90 121 76.5 122.0Q63 123 46.5 126.5Q30 130 21.0 137.5Q12 145 6.0 158.0Q0 171 0 190Q0 240 48.0 292.0Q96 344 142 344Q236 344 259 304Q280 306 302 306Q409 306 458.5 266.5Q508 227 508 144Z" fill="#e1e8ed" />
<path d="M49.0 208.5Q43 215 43.0 223.5Q43 232 49.0 238.5Q55 245 64.0 245.0Q73 245 79.0 238.5Q85 232 85.0 223.5Q85 215 79.0 208.5Q73 202 64.0 202.0Q55 202 49.0 208.5Z" fill="#292f33" />
<path d="M250 386Q297 371 311.0 340.5Q325 310 307 257Q298 231 270.0 216.5Q242 202 214.0 202.5Q186 203 164 209Q139 218 153 230Q164 239 185 236Q205 234 229.0 245.0Q253 256 256 276Q259 302 231.0 314.0Q203 326 171 306Q158 297 124.0 301.0Q90 305 92 319Q100 355 150.5 379.0Q201 403 250 386Z" fill="#ffcc4d" />
</g></svg>