<svg xmlns="http://www.w3.org/2000/svg" viewBox="0 0 2048 2048">
<g transform="matrix(1 0 0 -1 0 2048)">
<path d="M270 334V220H242V334Q242 370 217.0 395.0Q192 420 156.5 420.0Q121 420 96.0 395.0Q71 370 71 334V220H43V334Q43 381 76.0 414.5Q109 448 156.5 448.0Q204 448 237.0 414.5Q270 381 270 334Z" fill="#f4900c" />
<path d="M14 334 43 306 71 334 100 306 128 334 156 306 185 334 213 306 242 334 270 306 299 334V7H14Z" fill="#dd2e44" />
<path d="M469 263V149H441V263Q441 298 416.0 323.0Q391 348 355.5 348.0Q320 348 295.0 323.0Q270 298 270 263V149H242V263Q242 310 275.0 343.5Q308 377 355.5 377.0Q403 377 436.0 343.5Q469 310 469 263Z" fill="#ffcc4d" />
<path d="M213 263 242 235 270 263 299 235 327 263 356 235 384 263 412 235 441 263 469 235 498 263V-64H213Z" fill="#744eaa" />
</g></svg>