<svg xmlns="http://www.w3.org/2000/svg" viewBox="0 0 2048 2048">
<g transform="matrix(1 0 0 -1 0 2048)">
<path d="M512 234V-7Q512 -9 511.5 -13.0Q511 -17 508.0 -27.0Q505 -37 499.5 -44.5Q494 -52 482.5 -58.0Q471 -64 455 -64H57Q32 -64 17.5 -50.0Q3 -36 2 -21L0 -7V21Q228 119 512 234Z" fill="#e1e8ed" />
<path d="M181 75Q178 75 175 77Q170 79 169 85Q164 108 164 119Q164 123 167 127Q195 156 239 193Q195 266 167 311Q161 321 171 327Q183 336 271 396Q281 402 288 393Q297 382 347 299Q371 260 381 244Q382 242 382 240Q397 183 397 171Q397 163 389 160Q384 158 367.0 151.0Q350 144 328.0 135.0Q306 126 280.5 115.5Q255 105 234.5 96.5Q214 88 199.5 82.0Q185 76 185 76Q183 75 181 75Z" fill="#55acee" />
<path d="M167 59Q159 59 156 66Q151 78 162 83L265 126Q276 130 281.0 119.0Q286 108 274 103L172 60Q170 59 167 59ZM339 131Q331 131 328 138Q323 150 334 155L402 184Q414 189 418.5 178.0Q423 167 412 162L344 132Q342 131 339 131Z" fill="#226699" />
<path d="M80 -2Q75 -2 71 -2Q43 2 30 29Q24 42 36.5 48.5Q49 55 55 42Q69 15 107 34Q125 43 313 122Q437 173 478 191Q491 197 496.5 183.5Q502 170 489 165Q451 148 324 95Q137 17 120 9Q98 -2 80 -2Z" fill="#be1931" />
<path d="M382 240Q382 240 382.5 238.0Q383 236 384.0 232.5Q385 229 386.0 225.0Q387 221 388.5 215.5Q390 210 391 206L380 201Q331 182 312 176Q310 175 308 175Q299 175 295 182Q281 207 260 250Q242 288 239.0 302.0Q236 316 245 322Q264 335 274.0 349.0Q284 363 285.5 370.0Q287 377 288 389Q288 391 288 393Q297 381 347 299Q371 260 381 244Q382 242 382 240Z" fill="#3b88c3" />
<path d="M237 241Q231 241 227 247Q220 257 231 264L266 287Q276 294 283.0 283.5Q290 273 280 267L244 243Q241 241 237 241ZM266 198Q255 198 253 208Q252 220 264 222L306 229Q318 231 320.0 218.5Q322 206 310 204L268 198Q267 198 266 198ZM278 134Q275 134 272 135L247 149Q237 154 242.5 165.0Q248 176 259 170L284 157Q295 151 289 141Q285 134 278 134Z" fill="#226699" />
<path d="M335 369Q328 369 324 376Q318 386 329 392L409 437Q420 444 426.0 433.0Q432 422 421 416L341 371Q338 369 335 369ZM370 317Q363 317 360 323Q354 334 364 340L412 366Q422 372 428.5 361.5Q435 351 424 345L376 318Q374 317 370 317ZM399 260Q391 260 388 266Q382 277 393 283L424 300Q435 306 441.0 295.0Q447 284 436 278L405 261Q402 260 399 260Z" fill="#bbddf5" />
</g></svg>