<svg xmlns="http://www.w3.org/2000/svg" viewBox="0 0 512 512">
<g transform="matrix(1 0 0 -1 0 512)">
<path d="M396 210Q396 191 396.0 185.0Q396 179 394.5 164.0Q393 149 390.0 142.0Q387 135 381.0 125.0Q375 115 365.0 108.5Q355 102 341 98V59Q341 48 332.5 40.0Q324 32 313.0 32.0Q302 32 293.0 40.0Q284 48 284 59V87V59Q284 48 275.5 40.0Q267 32 256.0 32.0Q245 32 236.5 40.0Q228 48 228 59V87V59Q228 48 219.0 40.0Q210 32 199.0 32.0Q188 32 179.5 40.0Q171 48 171 59V98Q157 102 147.0 108.5Q137 115 131.0 125.0Q125 135 121.5 142.0Q118 149 117.0 163.5Q116 178 115.5 185.0Q115 192 115 210Q115 275 155.0 313.5Q195 352 255.5 352.0Q316 352 356.0 313.5Q396 275 396 210Z" fill="#ccd6dd" />
<path d="M162.0 196.0Q149 209 149.0 227.5Q149 246 162.0 259.0Q175 272 193.5 272.0Q212 272 225.0 259.0Q238 246 238.0 227.5Q238 209 225.0 196.0Q212 183 193.5 183.0Q175 183 162.0 196.0Z" fill="#292f33" />
<path d="M362 228Q362 216 361.5 210.0Q361 204 357.0 196.5Q353 189 343.5 186.0Q334 183 318.0 183.0Q302 183 292.5 186.0Q283 189 279.0 196.5Q275 204 274.5 210.0Q274 216 274 228Q274 246 287.0 259.0Q300 272 318.5 272.0Q337 272 349.5 259.0Q362 246 362 228ZM273 147Q283 144 283 134Q283 129 279.0 125.0Q275 121 269 121Q260 121 257 130Q257 130 256 130Q256 130 255.5 130.0Q255 130 255 130Q252 121 243 121Q237 121 233.0 125.0Q229 129 229 134Q229 144 239 147Q243 156 256.0 156.0Q269 156 273 147Z" fill="#292f33" />
<path d="M156 64Q156 55 160 47Q146 32 132 15Q142 2 142 -14Q142 -35 127.5 -49.5Q113 -64 92 -64Q74 -64 60.0 -51.5Q46 -39 43 -21Q25 -18 12.5 -4.0Q0 10 0 28Q0 49 14.5 63.5Q29 78 50 78Q66 78 79 68Q103 88 124 107Q137 89 159 79Q156 71 156 64ZM396 284Q381 318 352 337Q367 354 380 369Q370 382 370 398Q370 419 384.5 433.5Q399 448 420 448Q438 448 452.0 435.5Q466 423 469 405Q487 402 499.0 388.0Q511 374 511 356Q511 335 496.0 320.5Q481 306 461 306Q445 306 432 315Q415 300 396 284ZM50 306Q29 306 14.5 320.5Q0 335 0 356Q0 374 12.5 388.0Q25 402 43 405Q46 423 60.0 435.5Q74 448 92 448Q113 448 127.5 433.5Q142 419 142 398Q142 382 132 369Q148 351 160 337Q131 318 116 284Q97 300 79 316Q66 306 50 306ZM461 78Q481 78 496.0 63.5Q511 49 511 28Q511 10 499.0 -4.0Q487 -18 469 -21Q466 -39 452.0 -51.5Q438 -64 420 -64Q399 -64 384.5 -49.5Q370 -35 370 -14Q370 2 380 15Q366 32 352 47Q356 55 356 64Q356 71 353 79Q375 89 388 107Q410 88 432 69Q445 78 461 78Z" fill="#aab8c2" />
</g></svg>