<svg xmlns="http://www.w3.org/2000/svg" viewBox="0 0 512 512">
<g transform="matrix(1 0 0 -1 0 512)">
<path d="M512 192Q512 86 437.0 11.0Q362 -64 256.0 -64.0Q150 -64 75.0 11.0Q0 86 0.0 192.0Q0 298 75.0 373.0Q150 448 256.0 448.0Q362 448 437.0 373.0Q512 298 512 192Z" fill="#ffcc4d" />
<path d="M334 37Q335 32 331 29Q329 28 327 28Q324 28 322 30Q308 43 256 43Q204 43 190 30Q186 27 181.5 29.5Q177 32 178 37Q179 40 180.5 44.5Q182 49 188.0 59.5Q194 70 202.0 78.0Q210 86 224.5 93.0Q239 100 256.0 100.0Q273 100 287.5 93.0Q302 86 310.0 78.0Q318 70 324.0 59.5Q330 49 331.5 44.5Q333 40 334 37ZM223 198Q228 201 232.5 197.0Q237 193 233 188Q231 184 226.0 178.5Q221 173 205.0 164.5Q189 156 170.5 156.0Q152 156 136.0 164.5Q120 173 115.5 178.5Q111 184 108 188Q105 193 109.0 197.0Q113 201 118 198Q136 185 171 185Q205 185 223 198ZM404 188Q401 184 396.5 178.5Q392 173 376.0 164.5Q360 156 341.5 156.0Q323 156 307.0 164.5Q291 173 286.0 178.5Q281 184 279 188Q275 193 279.5 197.0Q284 201 289 198Q307 185 341 185Q377 185 394 198Q399 201 403.0 197.0Q407 193 404 188ZM441 220Q434 220 430 226Q413 248 390.0 261.0Q367 274 357.0 275.5Q347 277 341 277Q335 277 331.0 281.5Q327 286 327.0 292.0Q327 298 331.0 302.0Q335 306 341 306Q345 306 350.0 305.5Q355 305 368.0 301.5Q381 298 394.0 292.0Q407 286 423.0 273.5Q439 261 452 243Q461 232 449 223Q446 220 441 220ZM71 220Q66 220 63 223Q51 232 60 243Q73 261 89.0 273.5Q105 286 118.0 292.0Q131 298 144.0 301.5Q157 305 162.0 305.5Q167 306 171 306Q177 306 181.0 301.5Q185 297 185.0 291.5Q185 286 181.0 281.5Q177 277 171 277Q164 277 154.5 275.5Q145 274 122.0 261.0Q99 248 82 226Q78 220 71 220Z" fill="#664500" />
<path d="M327 121Q396 121 454.0 83.0Q512 45 512 -7Q512 -32 501.5 -46.5Q491 -61 480 -62L469 -64Q438 -64 424.0 -50.5Q410 -37 406.5 -15.0Q403 7 400.0 31.0Q397 55 379.5 80.0Q362 105 327 121Z" fill="#5dadec" />
</g></svg>