<svg xmlns="http://www.w3.org/2000/svg" viewBox="0 0 2048 2048">
<g transform="matrix(1 0 0 -1 0 2048)">
<path d="M469 178Q482 178 490.0 170.0Q498 162 498 149Q498 138 489.0 129.5Q480 121 469 121H313Q284 121 284 149Q284 158 299 178L412 348H313Q301 348 292.5 356.5Q284 365 284 377Q284 388 292.5 396.5Q301 405 313 405H469Q498 405 498 377Q498 367 484 348L370 178ZM242 107Q256 107 256 92Q256 86 252.0 82.0Q248 78 242 78H156Q142 78 142 92Q142 96 150 107L213 192H156Q142 192 142 206Q142 212 146.0 216.0Q150 220 156 220H242Q256 220 256 206Q256 200 248 190L185 107ZM114 7Q128 7 128 -7Q128 -13 124.0 -17.0Q120 -21 114 -21H28Q14 -21 14 -7Q14 -3 22 7L85 92H28Q14 92 14 107Q14 113 18.0 117.0Q22 121 28 121H114Q128 121 128 107Q128 101 120 91L57 7Z" fill="#4289c1" />
</g></svg>