<svg xmlns="http://www.w3.org/2000/svg" viewBox="0 0 2048 2048">
<g transform="matrix(1 0 0 -1 0 2048)">
<path d="M75.0 11.0Q0 86 0.0 192.0Q0 298 75.0 373.0Q150 448 256.0 448.0Q362 448 437.0 373.0Q512 298 512.0 192.0Q512 86 437.0 11.0Q362 -64 256.0 -64.0Q150 -64 75.0 11.0Z" fill="#ffcc4d" />
<path d="M362 59Q364 53 359 51Q357 50 356 50Q353 50 351 52Q348 55 341.0 59.5Q334 64 310.0 71.0Q286 78 256.0 78.0Q226 78 202.0 71.0Q178 64 171.0 59.5Q164 55 161 52Q158 48 153.0 50.5Q148 53 150 59Q150 62 152.0 66.5Q154 71 161.5 81.5Q169 92 179.5 100.0Q190 108 210.5 114.5Q231 121 256.0 121.0Q281 121 301.5 114.5Q322 108 332.5 100.0Q343 92 350.5 81.5Q358 71 360.0 66.5Q362 62 362 59ZM145.5 220.5Q135 235 135.0 256.0Q135 277 145.5 291.5Q156 306 170.5 306.0Q185 306 195.5 291.5Q206 277 206.0 256.0Q206 235 195.5 220.5Q185 206 170.5 206.0Q156 206 145.5 220.5ZM316.5 220.5Q306 235 306.0 256.0Q306 277 316.5 291.5Q327 306 341.5 306.0Q356 306 366.5 291.5Q377 277 377.0 256.0Q377 235 366.5 220.5Q356 206 341.5 206.0Q327 206 316.5 220.5Z" fill="#664500" />
</g></svg>