<svg xmlns="http://www.w3.org/2000/svg" viewBox="0 0 2048 2048">
<g transform="matrix(1 0 0 -1 0 2048)">
<path d="M367 295Q362 292 358 298L314 372Q310 377 316 381H317Q322 385 326 379L370 305Q374 299 368 296Z" fill="#66757f" />
<path d="M359 303 360 304Q363 310 369 306L443 262Q449 258 445 253V252Q441 246 436 250L362 294Q356 298 359 303Z" fill="#66757f" />
<path d="M186 -9Q196 -19 186 -29L155 -59Q145 -69 135 -59L5 71Q-5 81 5 91L35 122Q45 132 55 122L125 71L135 61Z" fill="#be1931" />
<path d="M330 196Q284 150 215.0 96.0Q146 42 97.0 9.5Q48 -23 44.5 -19.5Q41 -16 73.5 33.0Q106 82 160.0 151.0Q214 220 260 266Q307 313 337.5 333.0Q368 353 380.5 352.5Q393 352 404.5 340.5Q416 329 416.5 316.5Q417 304 397.0 273.5Q377 243 330 196Z" fill="#ccd6dd" />
<path d="M476.0 412.0Q481 407 456.0 382.0Q431 357 426.0 362.0Q421 367 446.0 392.0Q471 417 476.0 412.0Z" fill="#be1931" />
<path d="M341 206Q332 198 320.5 198.0Q309 198 300 206L270 236Q262 245 262.0 256.5Q262 268 270 277L381 387Q391 397 410.5 404.0Q430 411 438 404L468 374Q475 366 468.0 346.5Q461 327 451 317Z" fill="#ccd6dd" />
<path d="M406 402Q429 412 438 404L468 374Q476 365 466 342Z" fill="#226699" />
<path d="M443.5 425.0Q469 400 464.0 395.0Q459 390 433.5 415.0Q408 440 413.0 445.0Q418 450 443.5 425.0Z" fill="#be1931" />
<path d="M489.5 379.0Q515 354 509.5 349.0Q504 344 479.0 369.0Q454 394 459.0 399.0Q464 404 489.5 379.0Z" fill="#be1931" />
<path d="M349 304Q333 320 324 323H325Q335 333 349.0 333.0Q363 333 373 323L387 309Q397 299 397.0 285.0Q397 271 387 261V260Q384 269 368 285Z" fill="#66757f" />
<path d="M310 357Q302 348 293 357L290 360Q282 368 290 377L313 400Q322 409 331 400L333 397Q342 389 333 380ZM441 226Q432 218 424 226L421 229Q412 238 421 246L444 270Q453 278 461 270L464 266Q473 258 464 250Z" fill="#292f33" />
<path d="M55 61 65 51 55 41 45 31 35 41 25 51 4 71Q-5 81 4 91L5 92Q9 96 14.5 96.0Q20 96 25 92L45 71ZM155 -39Q165 -49 155.0 -59.0Q145 -69 135 -59L115 -39L105 -29L95 -19L115 1L125 -9L135 -19Z" fill="#ea596e" />
<path d="M150.0 86.0Q154 82 101.5 29.0Q49 -24 44.5 -19.5Q40 -15 93.0 37.5Q146 90 150.0 86.0ZM500 118Q508 110 508.0 98.5Q508 87 500 78L458 42L307 159L223 243L106 394L142 436Q150 444 162.0 444.0Q174 444 182 436Z" fill="#be1931" />
<path d="M235 299 204 267 106 394 122 412ZM476 58 458 42 323 146 356 178Z" fill="#ea596e" />
</g></svg>