<svg xmlns="http://www.w3.org/2000/svg" viewBox="0 0 2048 2048">
<g transform="matrix(1 0 0 -1 0 2048)">
<path d="M512 192Q512 86 437.0 11.0Q362 -64 256.0 -64.0Q150 -64 75.0 11.0Q0 86 0.0 192.0Q0 298 75.0 373.0Q150 448 256.0 448.0Q362 448 437.0 373.0Q512 298 512 192Z" fill="#ffcc4d" />
<path d="M138.5 215.0Q128 238 128.0 270.5Q128 303 138.5 325.5Q149 348 163.5 348.0Q178 348 188.5 325.5Q199 303 199.0 270.5Q199 238 188.5 215.0Q178 192 163.5 192.0Q149 192 138.5 215.0ZM323.5 215.0Q313 238 313.0 270.5Q313 303 323.5 325.5Q334 348 348.5 348.0Q363 348 373.5 325.5Q384 303 384.0 270.5Q384 238 373.5 215.0Q363 192 348.5 192.0Q334 192 323.5 215.0ZM384 149Q394 151 403.0 145.5Q412 140 412 121Q412 75 366.5 34.0Q321 -7 256.0 -7.0Q191 -7 145.5 34.0Q100 75 100 121Q100 140 109.0 145.5Q118 151 128 149Q201 135 256.0 135.0Q311 135 384 149Z" fill="#664500" />
<path d="M128 121Q171 107 256 107Q294 107 326.0 110.5Q358 114 371 117L384 121Q383 119 380.5 115.0Q378 111 367.5 101.0Q357 91 344.0 83.5Q331 76 307.5 70.0Q284 64 256.0 64.0Q228 64 204.5 70.0Q181 76 167.5 84.0Q154 92 144.5 100.5Q135 109 132 115Z" fill="#ffffff" />
</g></svg>