<svg xmlns="http://www.w3.org/2000/svg" viewBox="0 0 512 512">
<g transform="matrix(1 0 0 -1 0 512)">
<path d="M512 192Q512 86 437.0 11.0Q362 -64 256.0 -64.0Q150 -64 75.0 11.0Q0 86 0.0 192.0Q0 298 75.0 373.0Q150 448 256.0 448.0Q362 448 437.0 373.0Q512 298 512 192Z" fill="#ffcc4d" />
<path d="M405 195Q407 190 403 186Q401 185 398.5 185.0Q396 185 394 186Q376 199 341 199Q306 199 289 186Q284 183 280.0 186.5Q276 190 278 195Q279 197 281.0 200.5Q283 204 288.5 212.0Q294 220 301.0 226.0Q308 232 319.0 237.0Q330 242 341.5 242.0Q353 242 364.0 237.0Q375 232 381.5 226.0Q388 220 394.0 212.0Q400 204 402.0 200.5Q404 197 405 195ZM234 195Q236 190 232 186Q230 185 227.5 185.0Q225 185 223 186Q205 199 171 199Q136 199 118 186Q114 183 109.5 186.5Q105 190 107 195Q108 197 110.0 200.5Q112 204 118.0 212.0Q124 220 130.5 226.0Q137 232 148.0 237.0Q159 242 170.5 242.0Q182 242 193.0 237.0Q204 232 211.0 226.0Q218 220 223.5 212.0Q229 204 231.0 200.5Q233 197 234 195ZM384 149Q394 151 403.0 145.5Q412 140 412 121Q412 75 366.5 34.0Q321 -7 256.0 -7.0Q191 -7 145.5 34.0Q100 75 100 121Q100 140 109.0 145.5Q118 151 128 149Q201 135 256.0 135.0Q311 135 384 149Z" fill="#664500" />
<path d="M128 121Q171 107 256 107Q294 107 326.0 110.5Q358 114 371 117L384 121Q383 119 380.5 115.0Q378 111 367.5 101.0Q357 91 344.0 83.5Q331 76 307.5 70.0Q284 64 256.0 64.0Q228 64 204.5 70.0Q181 76 167.5 84.0Q154 92 144.5 100.5Q135 109 132 115Z" fill="#ffffff" />
<path d="M498 292Q498 262 477.0 241.0Q456 220 426.5 220.0Q397 220 376.5 241.0Q356 262 356 292Q356 320 385.5 377.0Q415 434 426.5 434.0Q438 434 468.0 377.0Q498 320 498 292Z" fill="#5dadec" />
</g></svg>