<svg xmlns="http://www.w3.org/2000/svg" viewBox="0 0 512 512">
<g transform="matrix(1 0 0 -1 0 512)">
<path d="M512 192Q512 86 437.0 11.0Q362 -64 256.0 -64.0Q150 -64 75.0 11.0Q0 86 0.0 192.0Q0 298 75.0 373.0Q150 448 256.0 448.0Q362 448 437.0 373.0Q512 298 512 192Z" fill="#ffcc4d" />
<path d="M256 137Q256 137 256 137Q301 137 361 149Q369 151 376.5 146.0Q384 141 384 126Q384 88 346.5 54.5Q309 21 256.0 21.0Q203 21 165.5 54.5Q128 88 128 126Q128 141 135.5 146.0Q143 151 151 149Q211 137 256 137Z" fill="#664500" />
<path d="M237 401Q239 394 240 387Q247 346 225.0 295.5Q203 245 173 220Q134 221 85.0 246.0Q36 271 17 308Q12 314 10 321Q1 347 12.5 372.0Q24 397 50 406Q82 417 110 398Q120 431 152 442Q178 451 203.0 439.0Q228 427 237 401ZM275 401Q284 427 309.0 439.0Q334 451 360 442Q392 431 402 398Q430 417 462 406Q488 397 499.5 372.0Q511 347 502 321Q500 314 495 308Q476 271 427.0 246.0Q378 221 339 220Q309 245 287.0 295.5Q265 346 272 387Q273 394 275 401Z" fill="#dd2e44" />
</g></svg>