<svg xmlns="http://www.w3.org/2000/svg" viewBox="0 0 512 512">
<g transform="matrix(1 0 0 -1 0 512)">
<path d="M512 192Q512 86 437.0 11.0Q362 -64 256.0 -64.0Q150 -64 75.0 11.0Q0 86 0.0 192.0Q0 298 75.0 373.0Q150 448 256.0 448.0Q362 448 437.0 373.0Q512 298 512 192Z" fill="#ffcc4d" />
<path d="M49.0 142.0Q28 163 28.0 192.0Q28 221 49.0 242.0Q70 263 99.5 263.0Q129 263 150.0 242.0Q171 221 171.0 192.0Q171 163 150.0 142.0Q129 121 99.5 121.0Q70 121 49.0 142.0ZM362.0 142.0Q341 163 341.0 192.0Q341 221 362.0 242.0Q383 263 412.5 263.0Q442 263 463.0 242.0Q484 221 484.0 192.0Q484 163 463.0 142.0Q442 121 412.5 121.0Q383 121 362.0 142.0Z" fill="#ff7892" />
<path d="M390 131Q388 128 384.0 122.5Q380 117 367.5 104.5Q355 92 341.0 82.0Q327 72 304.0 64.5Q281 57 256.0 57.0Q231 57 208.0 64.5Q185 72 171.0 82.0Q157 92 144.5 104.5Q132 117 128.0 122.5Q124 128 122 131Q119 136 123.5 140.0Q128 144 132 141Q138 136 150.0 129.0Q162 122 194.0 111.0Q226 100 256.0 100.0Q286 100 318.5 111.0Q351 122 362.0 129.0Q373 136 380 141Q384 144 388.5 140.0Q393 136 390 131ZM114 235Q110 235 107 236Q95 243 101 255Q103 260 108.0 266.0Q113 272 130.5 282.0Q148 292 170.5 292.0Q193 292 211.0 282.0Q229 272 233.5 266.0Q238 260 240 255Q247 243 234.0 236.5Q221 230 215 242Q204 263 171 263Q156 263 144.5 257.5Q133 252 130.5 248.5Q128 245 126 243Q123 235 114 235ZM398 235Q389 235 385 243Q374 263 341.0 263.0Q308 263 297 242Q290 230 278.0 236.5Q266 243 272 255Q274 260 278.5 266.0Q283 272 301.0 282.0Q319 292 341.5 292.0Q364 292 381.5 282.0Q399 272 404.0 266.0Q409 260 411 255Q417 243 405 236Q402 235 398 235Z" fill="#664500" />
</g></svg>