<svg xmlns="http://www.w3.org/2000/svg" viewBox="0 0 2048 2048">
<g transform="matrix(1 0 0 -1 0 2048)">
<path d="M512 192Q512 86 437.0 11.0Q362 -64 256.0 -64.0Q150 -64 75.0 11.0Q0 86 0.0 192.0Q0 298 75.0 373.0Q150 448 256.0 448.0Q362 448 437.0 373.0Q512 298 512 192Z" fill="#ffcc4d" />
<path d="M348 104Q342 88 326.0 72.5Q310 57 284 57H185Q183 57 181 58Q178 60 178 64Q178 71 185 71Q254 71 281 85L338 113Q342 115 346.0 112.0Q350 109 348 104ZM441 220Q434 220 430 226Q413 248 390.0 261.0Q367 274 357.0 275.5Q347 277 341 277Q335 277 331.0 281.5Q327 286 327.0 292.0Q327 298 331.0 302.0Q335 306 341 306Q345 306 350.0 305.5Q355 305 368.0 301.5Q381 298 394.0 292.0Q407 286 423.0 273.5Q439 261 452 243Q461 232 449 223Q446 220 441 220ZM71 220Q66 220 63 223Q51 232 60 243Q73 261 89.0 273.5Q105 286 118.0 292.0Q131 298 144.0 301.5Q157 305 162.0 305.5Q167 306 171 306Q177 306 181.0 301.5Q185 297 185.0 291.5Q185 286 181.0 281.5Q177 277 171 277Q164 277 154.5 275.5Q145 274 122.0 261.0Q99 248 82 226Q78 220 71 220ZM226 201Q228 196 228 192Q228 180 219.5 172.0Q211 164 199.0 164.0Q187 164 179.0 172.0Q171 180 171 192Q171 192 171 195Q142 194 122 180Q118 178 114 178Q106 178 102 184Q94 196 106 204Q127 218 156.0 221.5Q185 225 197.0 223.5Q209 222 217 220Q222 219 225.5 213.5Q229 208 227 203Q227 202 226.5 201.5Q226 201 226 201ZM397 201Q398 196 398 192Q398 180 390.0 172.0Q382 164 370.0 164.0Q358 164 349.5 172.0Q341 180 341 192Q341 192 342 195Q312 193 292 180Q289 178 284 178Q277 178 273 184Q265 196 277 204Q298 218 326.5 221.5Q355 225 367.5 223.5Q380 222 387 220Q393 219 396.0 213.5Q399 208 398 203Q398 202 397.5 201.5Q397 201 397 201Z" fill="#664500" />
</g></svg>