<svg xmlns="http://www.w3.org/2000/svg" viewBox="0 0 512 512">
<g transform="matrix(1 0 0 -1 0 512)">
<path d="M185 21H28Q25 21 20.5 22.0Q16 23 8.0 30.0Q0 37 0 50V121Q0 129 3.0 135.0Q6 141 10.0 143.5Q14 146 18.5 147.5Q23 149 26 149H28H185Z" fill="#d99e82" />
<path d="M171 149H370V21H171Z" fill="#e1e8ed" />
<path d="M441 149Q444 149 449.0 148.5Q454 148 461.5 141.0Q469 134 469 121V50Q469 37 462.0 30.0Q455 23 448 22L441 21H356V149Z" fill="#66757f" />
<path d="M395 164Q383 164 381 176Q381 179 380.5 184.5Q380 190 382.5 204.0Q385 218 390.5 231.5Q396 245 410.0 261.0Q424 277 445 290Q470 304 478.5 329.5Q487 355 481 377Q469 420 424 420Q403 420 389.0 412.5Q375 405 370.5 398.0Q366 391 365 383Q359 357 374 346Q386 337 401 346Q409 351 409 363Q409 369 413.5 373.0Q418 377 424.0 377.0Q430 377 434.0 373.0Q438 369 438 363Q438 335 416 322Q404 315 388.5 315.5Q373 316 360 323Q346 331 339.5 349.5Q333 368 338 389Q344 416 367.0 432.0Q390 448 424 448Q455 448 477.5 431.0Q500 414 508 385Q518 351 504.0 317.5Q490 284 459 265Q444 256 432.5 243.5Q421 231 417.0 220.5Q413 210 410.5 200.0Q408 190 409.0 185.5Q410 181 409 180Q410 174 406.5 169.5Q403 165 397 164Q396 164 395 164Z" fill="#ccd6dd" />
</g></svg>