<svg xmlns="http://www.w3.org/2000/svg" viewBox="0 0 2048 2048">
<g transform="matrix(1 0 0 -1 0 2048)">
<path d="M75.0 11.0Q0 86 0.0 192.0Q0 298 75.0 373.0Q150 448 256.0 448.0Q362 448 437.0 373.0Q512 298 512.0 192.0Q512 86 437.0 11.0Q362 -64 256.0 -64.0Q150 -64 75.0 11.0Z" fill="#f5f8fa" />
<path d="M242 306V405Q242 411 246.0 415.5Q250 420 256.0 420.0Q262 420 266.0 415.5Q270 411 270 405V306Q270 300 266.0 296.0Q262 292 256.0 292.0Q250 292 246.0 296.0Q242 300 242 306ZM162 228Q160 228 158 228L44 264Q30 269 34 282Q36 288 41.5 290.5Q47 293 52 291L167 255Q180 251 176 237Q173 228 162 228ZM356 232Q345 232 342 242Q341 248 344.0 253.0Q347 258 352 260L448 287Q454 289 459.0 286.0Q464 283 465.5 277.5Q467 272 464.5 267.0Q462 262 456 260L360 232Q358 232 356 232ZM385 19Q377 19 373 25L296 129Q287 140 298.5 148.5Q310 157 318 146L396 42Q405 30 393 22Q389 19 385 19ZM124 20Q120 20 116 23Q105 31 113 42L186 147Q194 159 205.5 151.0Q217 143 209 131L136 26Q132 20 124 20ZM50 63Q39 63 36 74L5 188Q3 194 6.0 199.0Q9 204 15.0 205.5Q21 207 26.0 204.0Q31 201 32 196L64 81Q65 75 62.0 70.0Q59 65 54 64Q52 63 50 63ZM313 -36H185Q179 -36 175.0 -31.5Q171 -27 171.0 -21.0Q171 -15 175.0 -11.0Q179 -7 185 -7H313Q319 -7 323.0 -11.0Q327 -15 327.0 -21.0Q327 -27 323.0 -31.5Q319 -36 313 -36ZM457 62Q455 62 453 63Q448 64 445.0 69.0Q442 74 443 80L473 203Q475 208 480.0 211.0Q485 214 490.5 213.0Q496 212 499.0 206.5Q502 201 501 196L471 73Q468 62 457 62ZM431 339Q427 339 424 341L316 403Q304 410 311.0 422.5Q318 435 331 427L438 365Q451 358 443 346Q439 339 431 339ZM78 339Q71 339 67 345Q58 356 70 364L158 428Q169 436 177.5 424.5Q186 413 175 404L87 341Q83 339 78 339Z" fill="#ccd6dd" />
<path d="M363 256Q371 250 368 240L326 116Q323 107 313 107H185Q175 107 172 117L136 239Q133 249 142 254L244 328Q252 334 260 328ZM18 170Q13 170 9 173L1 181Q1 182 0.5 186.0Q0 190 0 192Q0 301 79 377H85Q92 377 96.5 371.5Q101 366 99 360L80 267Q80 265 79 263L31 177Q27 171 21 170Q20 170 18 170ZM151 415 159 429Q205 448 256 448Q301 448 344 432L348 412Q349 407 346.5 403.5Q344 400 340 399L253 385Q252 385 251.0 385.0Q250 385 250 385L159 400Q153 400 151.0 405.0Q149 410 151 415ZM443 367Q512 293 512 192Q512 191 512.0 190.0Q512 189 512 188Q494 178 487 178Q479 178 478 180Q478 180 477.0 180.5Q476 181 476 182Q473 190 428 264Q427 266 427 267L410 356Q409 361 412.5 364.5Q416 368 421 368ZM203 -34 182 -53Q133 -38 93.5 -6.0Q54 26 31 71Q35 91 38.0 95.5Q41 100 47 100Q49 100 51 99Q54 98 137 54Q139 54 140 52L204 -19Q207 -22 207.0 -26.5Q207 -31 203 -34ZM466 89 476 62Q425 -25 328 -54Q317 -45 303 -33Q299 -30 298.5 -25.5Q298 -21 301 -18L362 54Q363 56 365 57L452 95Q456 97 460.5 95.0Q465 93 466 89Z" fill="#31373d" />
</g></svg>