<svg xmlns="http://www.w3.org/2000/svg" viewBox="0 0 512 512">
<g transform="matrix(1 0 0 -1 0 512)">
<path d="M384 174H455V103Q455 73 434.0 52.5Q413 32 384 32Q356 32 335.5 51.0Q315 70 313 98H346V163Q364 174 384 174Z" fill="#55acee" />
<path d="M327 121V348H455V121Z" fill="#1c6399" />
<path d="M344 143 435 53 337 -45 246 45Z" fill="#1c6399" />
<path d="M427 391Q438 391 446.5 382.5Q455 374 455 363V334H327V363Q327 374 335.5 382.5Q344 391 356 391ZM213 231H284V160Q284 130 263.5 109.5Q243 89 213 89Q185 89 165.0 108.0Q145 127 143 155H175V220Q193 231 213 231Z" fill="#55acee" />
<path d="M156 178V405H284V178Z" fill="#1c6399" />
<path d="M337 -45Q318 -64 291.5 -64.0Q265 -64 246.0 -45.5Q227 -27 227.0 0.0Q227 27 246 45Q263 43 299 7Q315 -9 324.5 -22.0Q334 -35 335 -40ZM256 448Q268 448 276.0 439.5Q284 431 284 420V391H156V420Q156 431 164.5 439.5Q173 448 185 448Z" fill="#55acee" />
<path d="M174 200 264 109 166 12 76 102Z" fill="#1c6399" />
<path d="M166 12Q147 -7 120.5 -7.0Q94 -7 75.5 11.5Q57 30 57.0 56.5Q57 83 76 102Q92 100 128 64Q144 48 153.5 35.0Q163 22 165 17Z" fill="#55acee" />
<path d="M327 305H455V276H327ZM327 248H455V219H327ZM156 362H284V333H156ZM156 305H284V276H156Z" fill="#ffcc4d" />
</g></svg>