<svg xmlns="http://www.w3.org/2000/svg" viewBox="0 0 512 512">
<g transform="matrix(1 0 0 -1 0 512)">
<path d="M244 121H372Q341 28 327 -18Q322 -34 313.0 -44.5Q304 -55 291.5 -58.5Q279 -62 271.0 -63.0Q263 -64 250 -64Q187 -64 173 -18Q167 3 158.5 37.5Q150 72 145 96L140 121Z" fill="#ffcc4d" />
<path d="M256 50Q177 50 148 80Q145 94 142 109Q145 116 153 121H359Q366 116 369 111Q363 94 357 74Q325 50 256 50Z" fill="#ffac33" />
<path d="M128 164H384V121Q384 103 346.5 90.5Q309 78 256.0 78.0Q203 78 165.5 90.5Q128 103 128 121Z" fill="#ffcc4d" />
<path d="M338.0 181.5Q372 171 372.0 156.5Q372 142 338.0 131.5Q304 121 256.0 121.0Q208 121 174.0 131.5Q140 142 140.0 156.5Q140 171 174.0 181.5Q208 192 256.0 192.0Q304 192 338.0 181.5Z" fill="#f4900c" />
<path d="M383 250Q404 232 404 204Q404 180 383.5 164.5Q363 149 335 144Q289 136 242.0 135.0Q195 134 164 143Q137 145 118.5 164.0Q100 183 100 210Q100 230 111.0 246.5Q122 263 140 271Q133 283 133 295Q133 311 142.5 323.0Q152 335 167 341L174 344Q167 352 167 362Q167 383 187 391Q198 395 217 399Q215 430 242 446Q252 432 267.5 426.5Q283 421 294.5 417.5Q306 414 309 404Q312 394 309 386Q338 381 349 356Q355 340 351 324Q371 312 379 292Q388 271 383 250Z" fill="#ffe8b6" />
<path d="M210 189Q235 196 264.5 206.5Q294 217 332.0 237.0Q370 257 383 275Q391 230 346 202Q336 195 318.5 185.0Q301 175 254.5 158.5Q208 142 169 142Q148 142 130.5 154.0Q113 166 105 185Q124 179 155.0 180.5Q186 182 210 189ZM187 246Q155 246 140 272Q244 276 352 346Q360 311 323 289Q315 284 302.0 277.0Q289 270 253.0 258.0Q217 246 187 246ZM168 355Q195 354 241.0 370.0Q287 386 305 404Q309 401 310.0 396.0Q311 391 310 388L309 385Q293 368 278 358Q263 348 242 340Q235 337 226 335Q211 331 199 331Q188 331 179.5 337.5Q171 344 168 355Z" fill="#ffd983" />
</g></svg>