<svg xmlns="http://www.w3.org/2000/svg" viewBox="0 0 512 512">
<g transform="matrix(1 0 0 -1 0 512)">
<path d="M512 -7Q512 -31 495.5 -47.5Q479 -64 455 -64H57Q33 -64 16.5 -47.5Q0 -31 0 -7V391Q0 415 16.5 431.5Q33 448 57 448H455Q479 448 495.5 431.5Q512 415 512 391Z" fill="#77b255" />
<path d="M225.5 161.5Q213 174 213.0 192.0Q213 210 225.5 222.5Q238 235 256.0 235.0Q274 235 286.5 222.5Q299 210 299.0 192.0Q299 174 286.5 161.5Q274 149 256.0 149.0Q238 149 225.5 161.5Z" fill="#ffffff" />
<path d="M284 391V277Q284 266 276.0 257.5Q268 249 256.0 249.0Q244 249 236.0 257.5Q228 266 228 277V391Q228 403 236.0 411.5Q244 420 256.0 420.0Q268 420 276.0 411.5Q284 403 284 391ZM284 107V-7Q284 -19 276.0 -27.5Q268 -36 256.0 -36.0Q244 -36 236.0 -27.5Q228 -19 228 -7V107Q228 118 236.0 126.5Q244 135 256.0 135.0Q268 135 276.0 126.5Q284 118 284 107ZM57 220H171Q182 220 190.5 212.0Q199 204 199.0 192.0Q199 180 190.5 172.0Q182 164 171 164H57Q45 164 36.5 172.0Q28 180 28.0 192.0Q28 204 36.5 212.0Q45 220 57 220ZM341 220H455Q467 220 475.5 212.0Q484 204 484.0 192.0Q484 180 475.5 172.0Q467 164 455 164H341Q330 164 321.5 172.0Q313 180 313.0 192.0Q313 204 321.5 212.0Q330 220 341 220ZM216 252Q226 242 216.0 232.0Q206 222 196 232L89 339Q79 349 89.0 359.0Q99 369 109 359ZM423 45Q433 35 423.0 25.0Q413 15 403 25L296 132Q286 142 296.0 152.0Q306 162 316 152ZM196 152Q206 162 216.0 152.0Q226 142 216 132L109 25Q99 15 89.0 25.0Q79 35 89 45ZM403 359Q413 369 423.0 359.0Q433 349 423 339L316 232Q306 222 296.0 232.0Q286 242 296 252Z" fill="#ffffff" />
</g></svg>