<svg xmlns="http://www.w3.org/2000/svg" viewBox="0 0 512 512">
<g transform="matrix(1 0 0 -1 0 512)">
<path d="M488 208Q498 204 498.0 194.0Q498 184 489 181L362 134L315 -25Q312 -36 301.0 -36.0Q290 -36 287 -25L240 134L114 181Q104 184 104.0 194.0Q104 204 114 208L240 255L287 409Q291 420 301.5 420.0Q312 420 315 409L362 255Z" fill="#ffac33" />
<path d="M204 51Q213 48 213.0 38.0Q213 28 204 25L171 13L158 -39Q156 -50 145.0 -50.0Q134 -50 131 -39L118 12L85 25Q76 28 76.0 38.0Q76 48 85 51L118 63L131 110Q134 121 144.5 121.0Q155 121 158 110L171 63ZM142 359Q152 356 152.0 346.0Q152 336 142 333L109 320L96 287Q93 277 83.0 277.0Q73 277 70 287L57 320L24 333Q14 336 14.0 346.0Q14 356 24 359L57 372L70 405Q73 415 83.0 415.0Q93 415 96 405L109 372Z" fill="#ffcc4d" />
</g></svg>