<svg xmlns="http://www.w3.org/2000/svg" viewBox="0 0 2048 2048">
<g transform="matrix(1 0 0 -1 0 2048)">
<path d="M95 21Q90 16 85 21Q84 22 83 24Q82 28 85 31L92 38Q98 80 81.0 119.5Q64 159 30 185H21Q14 185 14.0 192.0Q14 199 21 199H30Q64 225 81.0 264.5Q98 304 92 346L85 353Q84 354 84 356Q83 360 85.5 362.5Q88 365 92 364Q94 364 95 363L102 356Q144 350 184.0 367.0Q224 384 249 418V427Q249 434 256.0 434.0Q263 434 263 427V418Q289 384 328.5 367.0Q368 350 410 356L417 363Q420 366 424 365Q426 364 427 363Q432 358 427 353L420 346Q414 304 431.0 264.5Q448 225 482 199H491Q498 199 498.0 192.0Q498 185 491 185H482Q448 160 431.0 120.0Q414 80 420 38L427 31Q428 30 428 28H429Q429 24 426.5 21.5Q424 19 420 20Q418 20 417 21L410 28Q368 34 328.5 17.0Q289 0 263 -34V-43Q263 -50 256.0 -50.0Q249 -50 249 -43V-34Q223 0 183.5 17.0Q144 34 102 28ZM107 331Q110 257 57 204Q57 204 51 199H98Q119 218 129 242Q141 270 138 300ZM279 215Q266 216 256 223Q251 220 246 218Q240 216 233 215Q232 208 230 203Q229 198 225 192Q232 182 233 169Q240 168 245.5 166.5Q251 165 257 161Q262 164 267 166Q272 168 279 169Q280 176 282 181Q284 186 288 192Q280 202 279 215ZM213 185H181Q188 174 192 162Q195 154 197 143L219 165V169Q218 176 215 182Q215 182 213 185ZM229 155 207 133Q218 131 226 128Q238 124 249 117V149Q249 149 248 150Q247 151 246 151Q243 153 241 154Q237 155 232 155Q232 156 230.5 155.5Q229 155 229 155ZM263 116Q276 124 286 128Q295 131 305 133L283 155Q283 155 281.5 155.0Q280 155 280 155Q273 154 267 151Q266 150 263 148ZM293 165 315 143Q317 153 320 162Q324 173 332 185H300Q298 182 297 181Q296 178 295 176Q294 173 293 168Q293 168 293.0 166.5Q293 165 293 165ZM299 199H331Q324 210 320 222Q317 230 315 241L293 219Q293 219 293 218Q293 216 293 216Q294 208 297 202Q297 202 299 199ZM283 229 305 251Q294 253 286 256Q274 260 263 267V235Q266 233 266 233Q273 229 280 229Q280 229 281.5 229.0Q283 229 283 229ZM249 268Q237 260 226 256Q217 253 207 251L229 229Q229 229 230.5 229.0Q232 229 232 229Q237 229 241 231Q243 231 246 233Q246 234 249 236ZM219 219 197 241Q195 231 192 222Q188 211 180 199H212Q215 202 215 203Q218 209 219 216Q219 216 219.0 217.5Q219 219 219 219ZM179 157Q174 172 164 185H118Q133 168 142 147Q152 124 153 98L176 122L185 131Q184 145 179 157ZM186 112 162 89Q188 88 211 78Q232 69 249 54V100Q236 110 221 115Q209 120 195 121ZM263 54Q281 69 301 78Q324 88 350 88L317 121Q303 119 291 115Q277 110 263 99ZM336 122 360 98Q360 124 370 147Q379 167 394 185H349Q338 171 333 157Q329 145 327 131ZM348 199H394Q379 216 370 237Q360 260 359 286L336 262L327 253Q328 239 333 227Q339 212 348 199ZM326 272 350 295Q324 296 301 306Q280 315 263 330V284Q276 274 291 269Q303 264 317 263ZM249 330Q231 315 211 306Q188 296 162 296L186 272L195 263Q209 265 221 269Q235 274 249 285ZM185 253 152 286Q152 260 142 237Q133 217 118 199H163Q174 213 179 227Q183 239 185 253ZM57 180Q110 128 107 53L125 70L139 84Q141 114 129 142Q119 167 99 185H52Q52 185 54.0 183.0Q56 181 57 180ZM244 -7Q244 -7 249 -12V35Q231 55 206 65Q178 77 148 75L134 61L117 43Q192 46 244 -7ZM268 -7Q321 46 395 43L364 74Q334 77 306 65Q282 55 263 34V-13Q263 -12 265.0 -10.0Q267 -8 268 -7ZM405 53Q402 127 455 180Q455 180 461 185H414Q393 166 383 142Q371 114 374 84L387 70ZM455 204Q402 256 405 331L387 314L373 300Q371 270 383 242Q393 217 413 199H460Q460 199 458.0 201.0Q456 203 455 204ZM268 391Q267 392 265.0 394.0Q263 396 263 396V349Q281 329 306 319Q334 307 364 309L378 323L395 341Q320 338 268 391ZM244 391Q191 338 117 341L134 323L148 310Q178 307 206 319Q230 329 249 350V397Q249 396 247.0 394.0Q245 392 244 391Z" fill="#66757f" />
</g></svg>