<svg xmlns="http://www.w3.org/2000/svg" viewBox="0 0 512 512">
<g transform="matrix(1 0 0 -1 0 512)">
<path d="M507 183Q508 170 508.0 136.5Q508 103 507 96Q507 94 507 90Q501 22 451.0 -15.5Q401 -53 334 -43Q304 -38 276.0 -22.5Q248 -7 234.0 5.0Q220 17 195.0 44.5Q170 72 164 78Q150 92 124.0 104.0Q98 116 75.5 123.0Q53 130 33.5 143.0Q14 156 9 173Q4 190 5 206Q5 206 4.5 225.0Q4 244 4.0 265.0Q4 286 5 293Q8 309 132.5 292.5Q257 276 381.5 242.5Q506 209 507 183Z" fill="#f4900c" />
<path d="M67 379Q93 394 124.0 399.0Q155 404 188.0 394.5Q221 385 245 361Q278 328 301.5 315.5Q325 303 376 292Q436 280 473.5 251.0Q511 222 507 177Q501 109 451.0 71.0Q401 33 334 44Q304 49 276.0 64.0Q248 79 234.0 91.5Q220 104 195.0 131.5Q170 159 164 165Q150 179 124.0 190.5Q98 202 75.5 209.5Q53 217 33.5 230.0Q14 243 9 260Q-11 331 67 379Z" fill="#ffcc4d" />
<path d="M163.0 232.5Q157 239 157.0 247.5Q157 256 163.0 262.5Q169 269 178.0 269.0Q187 269 193.0 262.5Q199 256 199.0 247.5Q199 239 193.0 232.5Q187 226 178.0 226.0Q169 226 163.0 232.5ZM402.5 71.0Q398 75 398.0 81.0Q398 87 402.5 91.0Q407 95 413.0 95.0Q419 95 423.0 91.0Q427 87 427.0 81.0Q427 75 423.0 71.0Q419 67 413.0 67.0Q407 67 402.5 71.0ZM232.0 95.0Q228 99 228.0 105.0Q228 111 232.0 115.0Q236 119 242.0 119.0Q248 119 252.0 115.0Q256 111 256.0 105.0Q256 99 252.0 95.0Q248 91 242.0 91.0Q236 91 232.0 95.0ZM333.5 80.5Q327 87 327.0 95.5Q327 104 333.5 110.5Q340 117 348.5 117.0Q357 117 363.5 110.5Q370 104 370.0 95.5Q370 87 363.5 80.5Q357 74 348.5 74.0Q340 74 333.5 80.5ZM437.5 125.5Q431 132 431.0 141.0Q431 150 437.5 156.0Q444 162 452.5 162.0Q461 162 467.5 156.0Q474 150 474.0 141.0Q474 132 467.5 125.5Q461 119 452.5 119.0Q444 119 437.5 125.5ZM402.5 176.0Q398 180 398.0 186.0Q398 192 402.5 196.0Q407 200 413.0 200.0Q419 200 423.0 196.0Q427 192 427.0 186.0Q427 180 423.0 176.0Q419 172 413.0 172.0Q407 172 402.5 176.0ZM346.0 148.5Q342 153 342.0 158.5Q342 164 346.0 168.5Q350 173 356.0 173.0Q362 173 366.0 168.5Q370 164 370.0 158.5Q370 153 366.0 148.5Q362 144 356.0 144.0Q350 144 346.0 148.5ZM267.5 134.0Q263 138 263.0 144.0Q263 150 267.5 154.0Q272 158 277.5 158.0Q283 158 287.5 154.0Q292 150 292.0 144.0Q292 138 287.5 134.0Q283 130 277.5 130.0Q272 130 267.5 134.0ZM199 155Q199 143 190 137Q172 156 164 165Q163 165 162.0 166.0Q161 167 161 168Q167 176 178 176Q187 176 193.0 170.0Q199 164 199 155ZM126.0 204.5Q122 209 122.0 214.5Q122 220 126.0 224.5Q130 229 136.0 229.0Q142 229 146.0 224.5Q150 220 150.0 214.5Q150 209 146.0 204.5Q142 200 136.0 200.0Q130 200 126.0 204.5ZM218.0 190.0Q214 194 214.0 200.0Q214 206 218.0 210.0Q222 214 228.0 214.0Q234 214 238.0 210.0Q242 206 242.0 200.0Q242 194 238.0 190.0Q234 186 228.0 186.0Q222 186 218.0 190.0ZM333.5 239.5Q327 246 327.0 254.5Q327 263 333.5 269.5Q340 276 348.5 276.0Q357 276 363.5 269.5Q370 263 370.0 254.5Q370 246 363.5 239.5Q357 233 348.5 233.0Q340 233 333.5 239.5ZM284.0 185.0Q278 191 278.0 200.0Q278 209 284.0 215.5Q290 222 299.0 222.0Q308 222 314.0 215.5Q320 209 320.0 200.0Q320 191 314.0 185.0Q308 179 299.0 179.0Q290 179 284.0 185.0ZM161.0 294.0Q157 298 157.0 304.0Q157 310 161.0 314.0Q165 318 171.0 318.0Q177 318 181.0 314.0Q185 310 185.0 304.0Q185 298 181.0 294.0Q177 290 171.0 290.0Q165 290 161.0 294.0ZM282.0 280.0Q278 284 278.0 290.0Q278 296 282.0 300.0Q286 304 292.0 304.0Q298 304 302.0 300.0Q306 296 306.0 290.0Q306 284 302.0 280.0Q298 276 292.0 276.0Q286 276 282.0 280.0ZM196.5 326.0Q192 330 192.0 336.0Q192 342 196.5 346.0Q201 350 206.5 350.0Q212 350 216.5 346.0Q221 342 221.0 336.0Q221 330 216.5 326.0Q212 322 206.5 322.0Q201 322 196.5 326.0ZM98.0 258.5Q94 263 94.0 269.0Q94 275 98.0 279.0Q102 283 108.0 283.0Q114 283 118.0 279.0Q122 275 122.0 269.0Q122 263 118.0 258.5Q114 254 108.0 254.0Q102 254 98.0 258.5ZM75.5 340.5Q71 345 71.0 350.5Q71 356 75.5 360.5Q80 365 85.5 365.0Q91 365 95.5 360.5Q100 356 100.0 350.5Q100 345 95.5 340.5Q91 336 85.5 336.0Q80 336 75.5 340.5ZM396.5 237.0Q392 241 392.0 247.0Q392 253 396.5 257.5Q401 262 406.5 262.0Q412 262 416.5 257.5Q421 253 421.0 247.0Q421 241 416.5 237.0Q412 233 406.5 233.0Q401 233 396.5 237.0ZM464.0 190.0Q460 194 460.0 200.0Q460 206 464.0 210.0Q468 214 474.0 214.0Q480 214 484.0 210.0Q488 206 488.0 200.0Q488 194 484.0 190.0Q480 186 474.0 186.0Q468 186 464.0 190.0ZM31.5 282.0Q25 288 25.0 297.0Q25 306 31.5 312.0Q38 318 46.5 318.0Q55 318 61.5 312.0Q68 306 68.0 297.0Q68 288 61.5 282.0Q55 276 46.5 276.0Q38 276 31.5 282.0ZM135.5 349.5Q129 356 129.0 365.0Q129 374 135.5 380.0Q142 386 150.5 386.0Q159 386 165.5 380.0Q172 374 172.0 365.0Q172 356 165.5 349.5Q159 343 150.5 343.0Q142 343 135.5 349.5ZM220.0 275.0Q214 281 214.0 290.0Q214 299 220.0 305.0Q226 311 235.0 311.0Q244 311 250.0 305.0Q256 299 256.0 290.0Q256 281 250.0 275.0Q244 269 235.0 269.0Q226 269 220.0 275.0Z" fill="#ffac33" />
<path d="M299 55Q299 55 299 53Q280 60 263 71Q269 77 277.5 77.0Q286 77 292.5 70.5Q299 64 299 55ZM68 226Q68 220 62 215Q49 221 39 226Q40 232 44.0 236.0Q48 240 53.5 240.0Q59 240 63.5 236.0Q68 232 68 226Z" fill="#ffac33" />
</g></svg>