<svg xmlns="http://www.w3.org/2000/svg" viewBox="0 0 512 512">
<g transform="matrix(1 0 0 -1 0 512)">
<path d="M256 334 363 274 199 206 0 448H156Z" fill="#55acee" />
<path d="M356 448H512L350 251L333 230L256 334Z" fill="#3b88c3" />
<path d="M331 220Q366 200 387.5 165.0Q409 130 409 88Q409 25 364.5 -19.5Q320 -64 257.0 -64.0Q194 -64 149.5 -19.5Q105 25 105 88Q105 130 126.0 165.0Q147 200 183 220Q181 225 181 230Q181 242 189.5 250.0Q198 258 209 258H304Q316 258 324.5 250.0Q333 242 333 230Q333 225 331 220Z" fill="#ffac33" />
<path d="M176.5 7.5Q143 41 143.0 88.0Q143 135 176.5 168.0Q210 201 257.0 201.0Q304 201 337.5 168.0Q371 135 371.0 88.0Q371 41 337.5 7.5Q304 -26 257.0 -26.0Q210 -26 176.5 7.5Z" fill="#ffd983" />
<path d="M297 14 256 43 215 14Q209 10 203.5 14.0Q198 18 200 25L215 74L175 103Q169 107 171.0 114.0Q173 121 181 121H231L247 169Q249 176 256.0 176.0Q263 176 265 169L281 121H331Q339 121 341.0 114.0Q343 107 337 103L297 74L312 25Q314 18 308 14Q306 12 302.5 12.0Q299 12 297 14Z" fill="#ffac33" />
</g></svg>