<svg xmlns="http://www.w3.org/2000/svg" viewBox="0 0 512 512">
<g transform="matrix(1 0 0 -1 0 512)">
<path d="M512 -7Q512 -31 495.5 -47.5Q479 -64 455 -64H57Q33 -64 16.5 -47.5Q0 -31 0 -7V391Q0 415 16.5 431.5Q33 448 57 448H455Q479 448 495.5 431.5Q512 415 512 391Z" fill="#f4900c" />
<path d="M141 255Q141 270 144 286Q132 272 113 256Q108 252 103 252Q98 252 93 257Q90 261 90 265Q90 273 97 277Q137 308 162 358Q165 364 173 364Q177 364 180 363Q188 360 188 352Q188 349 186 345Q178 332 168 320Q189 321 208 321H401Q411 321 411 308Q411 296 401 296H371V233H415Q425 233 425.0 220.0Q425 207 415 207H371V143H405Q415 143 415 130Q415 117 405 117H105Q95 117 95 130Q95 143 105 143H141V207H97Q87 207 87.0 220.0Q87 233 97 233H141ZM158 90Q158 88 157 85Q144 52 121 26Q116 21 109 21Q104 21 99 25Q94 29 94 35Q94 40 98 44Q118 64 131 95Q133 103 142 103Q145 103 148 102Q158 99 158 90ZM209 233V296H167V233ZM209 143V207H167V143ZM209 101Q219 101 221 93Q226 69 229 34V33Q229 22 216 21H214Q202 21 201 31Q200 61 194 89V90Q194 99 205 101Q206 101 209 101ZM277 233V296H234V233ZM277 143V207H234V143ZM286 102Q295 102 297 94Q309 65 314 38Q314 37 314 35Q314 25 303 23Q299 22 298 22Q287 22 286 31Q283 54 272 87Q271 89 271 91Q271 99 281 101Q284 102 286 102ZM345 233V296H302V233ZM345 143V207H302V143ZM367 103Q373 103 377 99Q400 70 414 43Q415 40 415 37Q415 29 407 25Q404 23 400 23Q392 23 388 29Q373 61 354 84Q353 87 353 90Q353 97 359 101Q363 103 367 103Z" fill="#ffffff" />
</g></svg>