<svg xmlns="http://www.w3.org/2000/svg" viewBox="0 0 512 512">
<g transform="matrix(1 0 0 -1 0 512)">
<path d="M512 -7Q512 -31 495.5 -47.5Q479 -64 455 -64H57Q33 -64 16.5 -47.5Q0 -31 0 -7V391Q0 415 16.5 431.5Q33 448 57 448H455Q479 448 495.5 431.5Q512 415 512 391Z" fill="#3b88c3" />
<path d="M32 284Q32 294 38.5 300.5Q45 307 55.0 307.0Q65 307 71.0 300.5Q77 294 77 284V179Q77 158 89.5 144.0Q102 130 123 130Q143 130 156.0 144.5Q169 159 169 179V284Q169 294 175.0 300.5Q181 307 191.0 307.0Q201 307 207.5 300.5Q214 294 214 284V177Q214 140 187.5 114.5Q161 89 123 89Q85 89 58.5 114.0Q32 139 32 177ZM239 282Q239 305 262 305H315Q348 305 369.5 285.0Q391 265 391.0 233.5Q391 202 369.5 182.5Q348 163 317 163H284V114Q284 103 277.5 97.0Q271 91 261.0 91.0Q251 91 245.0 97.0Q239 103 239 114ZM284 202H314Q328 202 336.5 211.0Q345 220 345.0 234.0Q345 248 336.5 257.0Q328 266 314 266H284ZM425.0 96.0Q418 103 418.0 112.5Q418 122 425.0 128.5Q432 135 441.5 135.0Q451 135 458.0 128.5Q465 122 465.0 112.5Q465 103 458.0 96.0Q451 89 441.5 89.0Q432 89 425.0 96.0ZM420 288Q420 298 426.0 303.5Q432 309 441 309Q450 309 456.5 303.0Q463 297 463 288V173Q463 164 456.5 158.5Q450 153 441 153Q432 153 426.0 158.5Q420 164 420 173Z" fill="#ffffff" />
</g></svg>