<svg xmlns="http://www.w3.org/2000/svg" viewBox="0 0 512 512">
<g transform="matrix(1 0 0 -1 0 512)">
<path d="M512 -7Q512 -31 495.5 -47.5Q479 -64 455 -64H57Q33 -64 16.5 -47.5Q0 -31 0 -7V391Q0 415 16.5 431.5Q33 448 57 448H455Q479 448 495.5 431.5Q512 415 512 391Z" fill="#dd2e44" />
<path d="M101 302Q91 302 91 315Q91 326 101 326H164V352Q164 363 177 363Q189 363 189 352V326H233Q243 326 243 315Q243 302 233 302H197Q213 279 238 263Q244 260 244 253Q244 250 241 246Q237 241 232 241Q228 241 223 244Q197 264 185 290Q189 270 189 255V223Q189 213 177 213Q164 213 164 223V255Q164 274 168 290Q150 251 105 220Q101 217 96 217Q90 217 86 222Q83 226 83 230Q83 237 89 241Q130 266 154 302ZM100 122Q91 122 91.0 134.5Q91 147 100 147H410Q419 147 419.0 134.5Q419 122 410 122H271V55Q271 36 261.0 29.0Q251 22 228 22Q208 22 193 25Q182 28 182 38Q182 40 183 42Q186 52 195 52Q197 52 198 51Q212 48 225 48Q235 48 238.5 50.5Q242 53 242 60V122ZM191 96Q191 91 187 86Q159 53 121 31Q117 28 113 28Q104 28 100 35Q98 39 98 43Q98 50 105 54Q142 75 165 102Q170 108 176 108Q180 108 185 106Q191 102 191 96ZM140 175Q131 175 131.0 187.5Q131 200 140 200H370Q379 200 379.0 187.5Q379 175 370 175ZM266 302Q256 302 256 315Q256 326 266 326H318V352Q318 362 331 362Q343 362 343 352V326H409Q419 326 419 315Q419 302 409 302H352Q377 270 422 244Q429 241 429 233Q429 229 426 226Q423 219 415 219Q411 219 408 221Q363 249 339 290Q343 270 343 254V223Q343 213 331 213Q318 213 318 223V256Q318 268 321 289Q302 251 265 227Q260 224 256 224Q251 224 247 229Q245 232 245 236Q245 242 250 246Q285 265 309 302ZM334 108Q340 108 346 103Q373 73 406 57Q415 53 415 45Q415 41 412 37Q408 30 400 30Q397 30 392 32Q354 51 323 87Q320 91 320 95Q320 102 326 105Q330 108 334 108Z" fill="#ffffff" />
</g></svg>