<svg xmlns="http://www.w3.org/2000/svg" viewBox="0 0 512 512">
<g transform="matrix(1 0 0 -1 0 512)">
<path d="M512 -7Q512 -31 495.5 -47.5Q479 -64 455 -64H57Q33 -64 16.5 -47.5Q0 -31 0 -7V391Q0 415 16.5 431.5Q33 448 57 448H455Q479 448 495.5 431.5Q512 415 512 391Z" fill="#9266cc" />
<path d="M386 192 439 99Q443 92 439.0 85.0Q435 78 427 78H321L268 -14Q264 -21 256.0 -21.0Q248 -21 244 -14L191 78H85Q77 78 73.0 85.0Q69 92 73 99L126 192L73 285Q69 292 73.0 299.0Q77 306 85 306H191L244 398Q247 405 256.0 405.0Q265 405 268 398L321 306H427Q435 306 439.0 299.0Q443 292 439 285ZM402 277H337L370 221ZM353 192 305 277H207L159 192L207 107H305ZM256 362 224 306H288ZM110 277 142 221 175 277ZM110 107H175L142 163ZM256 22 288 78H224ZM337 107H402L370 163Z" fill="#ffffff" />
</g></svg>