<svg xmlns="http://www.w3.org/2000/svg" viewBox="0 0 2048 2048">
<g transform="matrix(1 0 0 -1 0 2048)">
<path d="M0 -64 137 178H261L398 -64Z" fill="#a7a9ac" />
<path d="M37 -64 162 178H236L361 -64Z" fill="#58595b" />
<path d="M75 -64 187 178H212L324 -64Z" fill="#808285" />
<path d="M327 -64H71Q65 -64 61.0 -60.0Q57 -56 57.0 -50.0Q57 -44 61.0 -40.0Q65 -36 71 -36H327Q333 -36 337.0 -40.0Q341 -44 341.0 -50.0Q341 -56 337.0 -60.0Q333 -64 327 -64ZM299 -7H100Q94 -7 89.5 -3.0Q85 1 85.0 7.0Q85 13 89.5 17.0Q94 21 100 21H299Q305 21 309.0 17.0Q313 13 313.0 7.0Q313 1 309.0 -3.0Q305 -7 299 -7ZM270 50H128Q122 50 118.0 54.0Q114 58 114.0 64.0Q114 70 118.0 74.0Q122 78 128 78H270Q276 78 280.0 74.0Q284 70 284.0 64.0Q284 58 280.0 54.0Q276 50 270 50Z" fill="#a7a9ac" />
<path d="M98 109 129 164Q133 164 199 164Q248 164 268 165L300 109Q275 78 249 78H149Q123 78 98 109ZM327 122V149L455 7H512V-64H455Z" fill="#58595b" />
<path d="M213 405Q213 399 209.0 395.0Q205 391 199.0 391.0Q193 391 189.0 395.0Q185 399 185 405V420Q185 425 189.0 429.5Q193 434 199.0 434.0Q205 434 209.0 429.5Q213 425 213 420Z" fill="#414042" />
<path d="M228 348H171Q159 348 150.5 356.5Q142 365 142.0 377.0Q142 389 150.5 397.0Q159 405 171 405H228Q239 405 247.5 397.0Q256 389 256.0 377.0Q256 365 247.5 356.5Q239 348 228 348Z" fill="#6d6e71" />
<path d="M327 192Q327 169 299.5 145.0Q272 121 250 121H148Q126 121 98.5 145.0Q71 169 71 192V334Q71 358 86.0 374.5Q101 391 122 391H276Q297 391 312.0 374.5Q327 358 327 334Z" fill="#d1d3d4" />
<path d="M299 220Q299 197 282.0 180.5Q265 164 242 164H156Q133 164 116.5 180.5Q100 197 100 220V292Q100 334 156 334H242Q299 334 299 292Z" fill="#808285" />
<path d="M156 235Q133 235 116.5 251.5Q100 268 100 292V306H299V292Q299 268 282.0 251.5Q265 235 242 235Z" fill="#55acee" />
<path d="M327 219V192Q327 167 302.5 137.0Q278 107 250 107H148Q121 107 96.0 137.0Q71 167 71 192V210Q82 196 91.5 188.0Q101 180 129.5 172.0Q158 164 199.5 164.0Q241 164 269.0 173.5Q297 183 306.5 192.5Q316 202 327 219Z" fill="#5c913b" />
<path d="M150.0 214.0Q156 208 156.0 199.0Q156 190 150.0 184.0Q144 178 135.0 178.0Q126 178 120.0 184.0Q114 190 114.0 199.0Q114 208 120.0 214.0Q126 220 135.0 220.0Q144 220 150.0 214.0ZM278.0 214.0Q284 208 284.0 199.0Q284 190 278.0 184.0Q272 178 263.0 178.0Q254 178 248.0 184.0Q242 190 242.0 199.0Q242 208 248.0 214.0Q254 220 263.0 220.0Q272 220 278.0 214.0Z" fill="#ffd983" />
<path d="M299 306H100V334Q100 346 108.0 354.5Q116 363 128 363H270Q282 363 290.5 354.5Q299 346 299 334Z" fill="#292f33" />
<path d="M228 320H171Q165 320 160.5 324.0Q156 328 156.0 334.0Q156 340 160.5 344.0Q165 348 171 348H228Q233 348 237.5 344.0Q242 340 242.0 334.0Q242 328 237.5 324.0Q233 320 228 320Z" fill="#6d6e71" />
<path d="M512 7H455L327 149H512Z" fill="#a7a9ac" />
<path d="M469 107Q469 96 467.5 94.0Q466 92 455.0 92.0Q444 92 442.5 94.0Q441 96 441 107V263Q441 269 445.0 273.0Q449 277 455.0 277.0Q461 277 465.0 273.0Q469 269 469 263Z" fill="#6d6e71" />
<path d="M469 206Q469 196 467.5 194.0Q466 192 455.0 192.0Q444 192 442.5 194.0Q441 196 441 206V306Q441 312 445.0 316.0Q449 320 455.0 320.0Q461 320 465.0 316.0Q469 312 469 306Z" fill="#939598" />
<path d="M512 292Q512 280 503.5 271.5Q495 263 484 263H427Q415 263 406.5 271.5Q398 280 398 292V320Q398 332 406.5 340.0Q415 348 427 348H484Q495 348 503.5 340.0Q512 332 512 320Z" fill="#58595b" />
<path d="M469 292H441Q435 292 431.0 296.0Q427 300 427.0 306.0Q427 312 431.0 316.0Q435 320 441 320H469Q475 320 479.5 316.0Q484 312 484.0 306.0Q484 300 479.5 296.0Q475 292 469 292Z" fill="#939598" />
</g></svg>