<svg xmlns="http://www.w3.org/2000/svg" viewBox="0 0 2048 2048">
<g transform="matrix(1 0 0 -1 0 2048)">
<path d="M412 213 427 206 424 188Q398 176 372 176Q363 176 353 178L351 173Q347 156 350 109Q354 85 352.0 51.5Q350 18 338 -5Q323 -31 297.0 -46.0Q271 -61 238 -61Q207 -61 181.5 -47.5Q156 -34 144 -12Q134 9 132 56Q131 76 130.0 87.5Q129 99 123.0 115.5Q117 132 107 144L50 208L72 227L128 163Q141 147 148.5 127.0Q156 107 157.5 93.5Q159 80 160 57Q162 16 170 1Q178 -14 196.5 -23.5Q215 -33 238 -33Q290 -33 313 9Q327 36 322 107Q318 159 324 181L325 185Q289 199 267 230L270 249L290 247Q290 248 290 248Q310 218 346 208Q380 199 412 214Z" fill="#31373d" />
<path d="M56.5 160.5Q33 162 17.5 179.5Q2 197 3.5 220.5Q5 244 23.0 259.5Q41 275 64.5 273.5Q88 272 103.5 254.5Q119 237 117.5 213.5Q116 190 98.0 174.5Q80 159 56.5 160.5ZM424 187 412 213Q455 233 468 279L479 320Q482 331 476.0 341.5Q470 352 459 355L466 382Q489 376 500.5 355.5Q512 335 506 312L495 271Q479 212 424 187ZM267 230Q232 280 248 338L259 379Q265 402 285.5 413.5Q306 425 329 419L321 392Q310 395 300.0 389.0Q290 383 286 371L275 330Q263 285 290 247Z" fill="#99aab5" />
<path d="M59.0 189.0Q47 190 39.5 198.5Q32 207 32.5 219.0Q33 231 42.0 238.5Q51 246 62.5 245.5Q74 245 82.0 236.0Q90 227 89.0 215.5Q88 204 79.5 196.0Q71 188 59.0 189.0ZM306 388 317 430Q319 438 326.5 442.5Q334 447 343.0 444.5Q352 442 356.0 434.5Q360 427 358 418L347 377Q345 369 337.0 364.5Q329 360 320.5 362.5Q312 365 307.5 372.5Q303 380 306 388ZM429 355 440 396Q443 405 450.5 409.5Q458 414 466.5 411.5Q475 409 479.5 401.5Q484 394 482 385L471 344Q468 336 460.5 331.5Q453 327 444.5 329.0Q436 331 431.5 339.0Q427 347 429 355Z" fill="#31373d" />
</g></svg>