<svg xmlns="http://www.w3.org/2000/svg" viewBox="0 0 2048 2048">
<g transform="matrix(1 0 0 -1 0 2048)">
<path d="M322 -48Q299 -63 275.5 -60.5Q252 -58 228.0 -39.5Q204 -21 186.5 0.0Q169 21 158 41Q144 68 112.5 105.0Q81 142 62.0 172.5Q43 203 43 234Q43 309 91.5 346.5Q140 384 255 396Q307 402 350.5 390.5Q394 379 418.5 357.0Q443 335 456.0 311.0Q469 287 469 264Q469 235 439.0 174.5Q409 114 409 86Q409 24 386.5 -4.5Q364 -33 322 -48Z" fill="#be1931" />
<path d="M373 397Q393 381 306 389Q280 391 280 391Q282 385 286.5 378.0Q291 371 295.5 365.5Q300 360 301 359Q305 350 291.0 348.0Q277 346 270 348Q258 350 235.5 358.0Q213 366 212 369Q199 348 146 331Q139 328 126.5 326.5Q114 325 109 328Q108 342 128 363Q124 362 112.5 357.0Q101 352 93.0 349.0Q85 346 85 348Q85 359 97.5 371.5Q110 384 128 391Q127 392 115.5 391.0Q104 390 95.5 389.5Q87 389 85 391Q85 400 105.5 406.5Q126 413 140 414Q141 417 135 418Q133 419 114 420Q96 420 115 427Q134 434 156 434Q175 434 187.0 432.0Q199 430 205.5 427.0Q212 424 213 424Q226 435 247.0 440.5Q268 446 283.5 444.5Q299 443 299 438Q295 436 288 432Q319 437 329 438Q344 439 341 435Q334 426 312 423Q310 422 309 422Q305 422 297 421Q348 418 373 397Z" fill="#77b255" />
<path d="M133 202Q134 186 125 187Q111 188 103 207Q100 212 100 216Q98 232 108 231Q121 230 130 211Q132 206 133 202ZM239 194Q240 187 237.5 179.5Q235 172 228 173Q214 177 212 201Q216 191 221 179L220 180Q207 195 212 213Q213 221 218.5 222.5Q224 224 229 218Q237 208 239 194ZM321 263Q310 242 307 263Q303 280 309 291Q319 312 323 291Q326 274 321 263ZM423 284Q425 262 410 252Q403 248 399.0 253.0Q395 258 394 266Q394 266 394 267L399 254Q398 254 398 254Q386 263 397 286Q406 306 418 298Q422 295 423 284ZM404 162Q392 143 380 154Q367 166 379 184Q391 203 403 192Q416 180 404 162ZM322 121Q321 100 306 101Q291 102 287 119Q286 123 287 128Q288 148 303 147Q318 146 322 129Q323 125 322 121ZM182 138Q194 139 208 119Q220 103 206 102Q198 101 186 112Q168 129 175 136Q182 144 200 128L181 138ZM370 54Q355 37 351 56Q347 75 358 88Q374 104 377 85Q381 66 370 54ZM179 252Q166 252 168 272Q169 281 172.5 290.5Q176 300 183 300H187Q200 301 198 280Q197 272 193.5 262.5Q190 253 183 253Q181 252 179 252ZM279.5 47.5Q287 44 291.0 35.5Q295 27 293.5 19.0Q292 11 286.0 8.0Q280 5 273.0 8.5Q266 12 261.5 20.0Q257 28 258.5 36.0Q260 44 266.0 47.5Q272 51 279.5 47.5Z" fill="#f4abba" />
</g></svg>