<svg xmlns="http://www.w3.org/2000/svg" viewBox="0 0 512 512">
<g transform="matrix(1 0 0 -1 0 512)">
<path d="M85 235H427V206H85ZM299 21Q299 -36 256.0 -36.0Q213 -36 213 21Q213 26 213.5 29.5Q214 33 214.5 36.0Q215 39 217.0 41.0Q219 43 219.5 44.5Q220 46 223.0 47.0Q226 48 227.0 48.5Q228 49 233.0 49.5Q238 50 239.5 50.0Q241 50 247.5 50.0Q254 50 256.0 50.0Q258 50 264.5 50.0Q271 50 272.5 50.0Q274 50 279.0 49.5Q284 49 285.0 48.5Q286 48 289.0 47.0Q292 46 292.5 44.5Q293 43 295.0 41.0Q297 39 297.5 36.0Q298 33 298.5 29.5Q299 26 299 21Z" fill="#292f33" />
<path d="M398 -36V-64H114V-36Q114 -17 151.0 -5.0Q188 7 256.0 7.0Q324 7 361.0 -5.0Q398 -17 398 -36Z" fill="#66757f" />
<path d="M384 320V220H128V320Q128 373 165.5 410.5Q203 448 256.0 448.0Q309 448 346.5 410.5Q384 373 384 320Z" fill="#99aab5" />
<path d="M205.5 397.5Q199 404 199.0 412.5Q199 421 205.5 427.5Q212 434 220.5 434.0Q229 434 235.5 427.5Q242 421 242.0 412.5Q242 404 235.5 397.5Q229 391 220.5 391.0Q212 391 205.5 397.5ZM276.5 397.5Q270 404 270.0 412.5Q270 421 276.5 427.5Q283 434 291.5 434.0Q300 434 306.5 427.5Q313 421 313.0 412.5Q313 404 306.5 397.5Q300 391 291.5 391.0Q283 391 276.5 397.5ZM234.0 340.5Q228 347 228.0 355.5Q228 364 234.0 370.5Q240 377 249.0 377.0Q258 377 264.0 370.5Q270 364 270.0 355.5Q270 347 264.0 340.5Q258 334 249.0 334.0Q240 334 234.0 340.5ZM305.0 340.5Q299 347 299.0 355.5Q299 364 305.0 370.5Q311 377 320.0 377.0Q329 377 335.0 370.5Q341 364 341.0 355.5Q341 347 335.0 340.5Q329 334 320.0 334.0Q311 334 305.0 340.5ZM162.5 340.5Q156 347 156.0 355.5Q156 364 162.5 370.5Q169 377 178.0 377.0Q187 377 193.0 370.5Q199 364 199.0 355.5Q199 347 193.0 340.5Q187 334 178.0 334.0Q169 334 162.5 340.5ZM205.5 283.5Q199 290 199.0 299.0Q199 308 205.5 314.0Q212 320 220.5 320.0Q229 320 235.5 314.0Q242 308 242.0 299.0Q242 290 235.5 283.5Q229 277 220.5 277.0Q212 277 205.5 283.5ZM134.0 283.5Q128 290 128.0 299.0Q128 308 134.0 314.0Q140 320 149.0 320.0Q158 320 164.5 314.0Q171 308 171.0 299.0Q171 290 164.5 283.5Q158 277 149.0 277.0Q140 277 134.0 283.5ZM276.5 283.5Q270 290 270.0 299.0Q270 308 276.5 314.0Q283 320 291.5 320.0Q300 320 306.5 314.0Q313 308 313.0 299.0Q313 290 306.5 283.5Q300 277 291.5 277.0Q283 277 276.5 283.5ZM347.5 283.5Q341 290 341.0 299.0Q341 308 347.5 314.0Q354 320 363.0 320.0Q372 320 378.0 314.0Q384 308 384.0 299.0Q384 290 378.0 283.5Q372 277 363.0 277.0Q354 277 347.5 283.5ZM234.0 226.5Q228 233 228.0 242.0Q228 251 234.0 257.0Q240 263 249.0 263.0Q258 263 264.0 257.0Q270 251 270.0 242.0Q270 233 264.0 226.5Q258 220 249.0 220.0Q240 220 234.0 226.5ZM305.0 226.5Q299 233 299.0 242.0Q299 251 305.0 257.0Q311 263 320.0 263.0Q329 263 335.0 257.0Q341 251 341.0 242.0Q341 233 335.0 226.5Q329 220 320.0 220.0Q311 220 305.0 226.5ZM162.5 226.5Q156 233 156.0 242.0Q156 251 162.5 257.0Q169 263 178.0 263.0Q187 263 193.0 257.0Q199 251 199.0 242.0Q199 233 193.0 226.5Q187 220 178.0 220.0Q169 220 162.5 226.5Z" fill="#292f33" />
<path d="M128 234H384V206Q384 153 346.5 115.5Q309 78 256.0 78.0Q203 78 165.5 115.5Q128 153 128 206Z" fill="#66757f" />
<path d="M441 235V206Q441 130 387.0 75.5Q333 21 256.0 21.0Q179 21 125.0 75.5Q71 130 71 206V235Q71 241 75.0 245.0Q79 249 85.0 249.0Q91 249 95.5 245.0Q100 241 100 235V206Q100 141 145.5 95.5Q191 50 256.0 50.0Q321 50 366.5 95.5Q412 141 412 206V235Q412 241 416.5 245.0Q421 249 427.0 249.0Q433 249 437.0 245.0Q441 241 441 235Z" fill="#66757f" />
</g></svg>