<svg xmlns="http://www.w3.org/2000/svg" viewBox="0 0 2048 2048">
<g transform="matrix(1 0 0 -1 0 2048)">
<path d="M199 420Q199 423 200.0 427.5Q201 432 208.0 440.0Q215 448 227.5 448.0Q240 448 247.0 441.0Q254 434 255 427L256 420V391Q256 388 255.0 383.0Q254 378 247.0 370.5Q240 363 227.5 363.0Q215 363 208.0 370.0Q201 377 200 384L199 391ZM427 249Q430 249 434.5 248.0Q439 247 447.0 240.0Q455 233 455.0 220.5Q455 208 448.0 201.0Q441 194 434 193L427 192H398Q395 192 390.5 193.0Q386 194 378.0 201.0Q370 208 370.0 220.5Q370 233 377.0 240.0Q384 247 391 248L398 249ZM57 249Q60 249 65.0 248.0Q70 247 77.5 240.0Q85 233 85.0 220.5Q85 208 78.0 201.0Q71 194 64 193L57 192H28Q25 192 20.5 193.0Q16 194 8.0 201.0Q0 208 0 220Q0 228 3.0 234.0Q6 240 10.0 242.5Q14 245 18.5 247.0Q23 249 26 249H28ZM112 362Q114 360 117.0 356.0Q120 352 120.5 341.5Q121 331 112.0 322.0Q103 313 93.0 313.0Q83 313 77 317L72 322L52 342Q49 344 46.5 348.0Q44 352 43.5 362.5Q43 373 52.0 382.0Q61 391 71.0 391.0Q81 391 86 387L92 382ZM383 322Q381 320 377.0 317.0Q373 314 362.5 313.5Q352 313 343.0 322.0Q334 331 334.0 341.0Q334 351 339 356L343 362L363 382Q366 384 369.5 387.0Q373 390 384.0 390.5Q395 391 403.5 382.0Q412 373 412.0 363.0Q412 353 408 348L403 342Z" fill="#ffac33" />
<path d="M137.5 129.5Q100 167 100.0 220.0Q100 273 137.5 310.5Q175 348 228.0 348.0Q281 348 318.5 310.5Q356 273 356.0 220.0Q356 167 318.5 129.5Q281 92 228.0 92.0Q175 92 137.5 129.5Z" fill="#ffac33" />
<path d="M398 164Q445 164 478.5 130.5Q512 97 512.0 50.0Q512 3 478.5 -30.5Q445 -64 398 -64H71Q42 -64 21.0 -43.0Q0 -22 0.0 7.5Q0 37 21.0 57.5Q42 78 71 78Q80 78 90 75Q85 87 85 100Q85 126 104.0 145.0Q123 164 149 164Q170 164 188 150Q195 181 220.0 200.5Q245 220 277 220Q307 220 331.0 203.0Q355 186 365 158Q381 164 398 164Z" fill="#e1e8ed" />
</g></svg>