<svg xmlns="http://www.w3.org/2000/svg" viewBox="0 0 2048 2048">
<g transform="matrix(1 0 0 -1 0 2048)">
<path d="M455 448Q479 448 495.5 431.5Q512 415 512 391V7H0V391Q0 415 16.5 431.5Q33 448 57 448Z" fill="#ffcc4d" />
<path d="M457 182 439 178 398 165 432 137 439 132 446 126Q460 115 457.5 108.5Q455 102 437 104L428 106L419 107L377 112L398 74L402 66L406 58Q415 43 410.0 38.0Q405 33 390 42L382 46L374 50L336 71L341 29L342 20L344 11Q346 -6 339.5 -9.0Q333 -12 322 2L316 9L310 16L283 50L270 9L266 -9Q262 -26 255.5 -26.0Q249 -26 244 -9L242 0L239 9L228 50L201 16L196 9L190 2Q179 -12 172.5 -9.0Q166 -6 168 11L170 20L171 29L175 71L130 46L122 42Q107 33 102.0 38.0Q97 43 106 58L110 66L114 74L135 112L93 107L84 106L75 104Q58 102 55.0 108.5Q52 115 66 126L73 132L114 164L73 175L55 180Q38 185 38.0 192.0Q38 199 55 204L64 206L73 209L114 220L80 247L73 252L66 258Q52 269 55.0 275.5Q58 282 75 280L84 279L93 278L135 273L110 318L106 326Q97 341 102.0 346.0Q107 351 122 342L130 338L175 313L170 355L169 364L168 373Q166 390 172.5 393.0Q179 396 190 382L196 375L201 368L228 334L239 375L242 384L244 393Q249 410 256.0 410.0Q263 410 268 393L273 375L284 334L316 375L322 382Q333 396 339.5 393.0Q346 390 344 373L342 364L341 355L336 313L374 334L382 338L390 342Q405 351 410.0 346.0Q415 341 406 326L402 318L377 273L419 277L428 279L437 280Q455 282 457.5 275.5Q460 269 446 259L439 253L432 249L399 221L441 209L449 206L457 204Q474 199 474.0 192.5Q474 186 457 182Z" fill="#f4900c" />
<path d="M159.0 95.0Q119 135 119.0 192.0Q119 249 159.0 289.0Q199 329 256.0 329.0Q313 329 353.0 289.0Q393 249 393.0 192.0Q393 135 353.0 95.0Q313 55 256.0 55.0Q199 55 159.0 95.0Z" fill="#ffe8b6" />
<path d="M512 -7Q512 -31 495.5 -47.5Q479 -64 455 -64H205V69Q311 206 356 206Q402 206 512 60Z" fill="#5c913b" />
<path d="M128 121Q154 121 205 69Q229 44 256.0 11.0Q283 -22 298 -43L313 -64H57Q33 -64 16.5 -47.5Q0 -31 0 -7V11Q89 121 128 121Z" fill="#3e721d" />
</g></svg>