<svg xmlns="http://www.w3.org/2000/svg" viewBox="0 0 512 512">
<g transform="matrix(1 0 0 -1 0 512)">
<path d="M375 311Q365 321 375 331Q375 331 474 419Q503 444 505.5 441.5Q508 439 480.5 406.5Q453 374 424 342L395 311Q391 307 385.0 307.0Q379 307 375 311Z" fill="#ccd6dd" />
<path d="M410 286Q404 280 395.0 280.0Q386 280 380 286L350 316Q344 322 344.0 331.0Q344 340 350 346Q357 353 382.0 360.5Q407 368 412 363L427 348Q432 343 424.5 318.0Q417 293 410 286Z" fill="#add3e0" />
<path d="M248 84Q240 75 228.0 75.0Q216 75 208 84L148 144Q139 152 139.0 164.0Q139 176 148 184L319 355Q327 364 339.0 364.0Q351 364 359 355L419 295Q428 287 428.0 275.0Q428 263 419 255Z" fill="#c1e1ea" />
<path d="M148 144Q139 152 139.0 164.0Q139 176 148 184L319 355Q327 364 339.0 364.0Q351 364 359 355Z" fill="#d2ecf3" />
<path d="M103 -21 43 39 211 207 271 147Z" fill="#ccd6dd" />
<path d="M80 -54 10 16Q3 22 3.0 31.0Q3 40 9.5 46.0Q16 52 25.0 52.0Q34 52 40 46L110 -24Q116 -30 116.0 -39.0Q116 -48 110.0 -54.5Q104 -61 95.0 -61.0Q86 -61 80 -54ZM223 49 113 159Q106 165 106.0 174.0Q106 183 112.5 189.5Q119 196 128.0 196.0Q137 196 143 189L253 79Q260 73 260.0 64.0Q260 55 253.5 48.5Q247 42 238.0 42.0Q229 42 223 49Z" fill="#99aab5" />
<path d="M204 240 304 140 289 125 189 225Z" fill="#292f33" />
<path d="M204 240 224 220 209 205 189 225ZM336 193 347 182 332 167 322 178Q314 185 321.5 192.5Q329 200 336 193ZM363 220 374 209 359 194 348 205Q341 212 348.5 219.5Q356 227 363 220ZM390 246 400 236 385 221 375 231Q368 239 375.0 246.5Q382 254 390 246Z" fill="#66757f" />
</g></svg>