<svg xmlns="http://www.w3.org/2000/svg" viewBox="0 0 512 512">
<g transform="matrix(1 0 0 -1 0 512)">
<path d="M156 420Q170 420 172.5 380.0Q175 340 169.5 298.0Q164 256 156 249Q143 235 92.5 225.5Q42 216 28 235Q18 255 9.0 297.5Q0 340 0 363Q0 382 59.5 401.0Q119 420 156 420ZM356 420Q393 420 452.5 401.0Q512 382 512 363Q512 340 503.0 297.5Q494 255 484 235Q470 216 419.5 225.5Q369 235 356 249Q348 256 342.5 298.0Q337 340 339.5 380.0Q342 420 356 420Z" fill="#3b88c3" />
<path d="M14 381Q40 271 57 223Q34 224 28 235Q18 255 9.0 297.5Q0 340 0 363Q0 373 14 381ZM498 381Q512 373 512 363Q512 340 503.0 297.5Q494 255 484 235Q478 224 455 223Q472 271 498 381Z" fill="#55acee" />
<path d="M356 420Q380 420 403.5 402.5Q427 385 427 363Q427 78 441 21Q444 10 443.5 0.5Q443 -9 441.5 -15.0Q440 -21 434.5 -25.0Q429 -29 424.5 -31.0Q420 -33 411.5 -34.0Q403 -35 398.0 -35.5Q393 -36 384 -36H128Q119 -36 114.0 -35.5Q109 -35 100.5 -34.0Q92 -33 87.5 -31.0Q83 -29 77.5 -25.0Q72 -21 70.5 -15.0Q69 -9 68.5 0.5Q68 10 71 21Q77 47 81.0 132.0Q85 217 85 290V363Q85 385 108.5 402.5Q132 420 156 420H172Q176 401 200.0 389.0Q224 377 256.0 377.0Q288 377 312.0 389.0Q336 401 340 420Z" fill="#3b88c3" />
<path d="M156 420H172Q176 401 200.0 389.0Q224 377 256.0 377.0Q288 377 312.0 389.0Q336 401 340 420H356Q356 390 326.5 369.0Q297 348 256.0 348.0Q215 348 185.5 369.0Q156 390 156 420Z" fill="#55acee" />
</g></svg>