<svg xmlns="http://www.w3.org/2000/svg" viewBox="0 0 512 512">
<g transform="matrix(1 0 0 -1 0 512)">
<path d="M329 363Q371 321 379.5 271.0Q388 221 365 177Q360 159 356 142Q357 136 355.5 133.0Q354 130 357.0 124.5Q360 119 360.5 116.5Q361 114 365.0 108.5Q369 103 371.0 100.5Q373 98 378.0 93.0Q383 88 385.0 85.5Q387 83 392.0 78.0Q397 73 399 71Q410 60 448.0 32.5Q486 5 489.5 1.0Q493 -3 493.5 -6.5Q494 -10 491.5 -14.5Q489 -19 487.0 -21.5Q485 -24 479 -29L469 -39L459 -49Q454 -54 451.5 -56.5Q449 -59 444.5 -61.5Q440 -64 436.5 -63.5Q433 -63 429.0 -59.5Q425 -56 397.5 -18.0Q370 20 359 31Q357 33 352.0 38.0Q347 43 345.0 45.5Q343 48 337.5 52.5Q332 57 329.5 59.0Q327 61 322.0 65.0Q317 69 314.0 70.0Q311 71 305.5 73.5Q300 76 297.0 75.0Q294 74 288 74Q268 70 246 63Q242 61 235 59L233 58H234Q141 28 67 102Q8 161 1.0 244.5Q-6 328 47 383Q102 436 185.5 429.5Q269 423 329 363Z" fill="#dd2e44" />
<path d="M221 55 377 210Q373 194 365 177Q360 159 356 142Q357 136 355.5 133.0Q354 130 357.0 124.5Q360 119 360.5 116.5Q361 114 365.0 108.5Q369 103 371.0 100.5Q373 98 378.0 93.0Q383 88 385.0 85.5Q387 83 392.0 78.0Q397 73 399 71Q410 60 448.0 32.5Q486 5 489.5 1.0Q493 -3 493.5 -6.5Q494 -10 491.5 -14.5Q489 -19 487.0 -21.5Q485 -24 479 -29L469 -39L459 -49Q454 -54 451.5 -56.5Q449 -59 444.5 -61.5Q440 -64 436.5 -63.5Q433 -63 429.0 -59.5Q425 -56 397.5 -18.0Q370 20 359 31Q357 33 352.0 38.0Q347 43 345.0 45.5Q343 48 337.5 52.5Q332 57 329.5 59.0Q327 61 322.0 65.0Q317 69 314.0 70.0Q311 71 305.5 73.5Q300 76 297.0 75.0Q294 74 288 74Q268 70 246 63Q242 61 235 59L233 58H234Q228 56 221 55Z" fill="#d99e82" />
<path d="M288 122 308 142 479 -29 459 -49Z" fill="#ffcc4d" />
<path d="M412.5 320.5Q398 335 398.0 355.5Q398 376 412.5 390.5Q427 405 448.0 405.0Q469 405 483.5 390.5Q498 376 498.0 355.5Q498 335 483.5 320.5Q469 306 448.0 306.0Q427 306 412.5 320.5Z" fill="#ccd6dd" />
</g></svg>