<svg xmlns="http://www.w3.org/2000/svg" viewBox="0 0 512 512">
<g transform="matrix(1 0 0 -1 0 512)">
<path d="M111.5 4.5Q43 73 43.0 170.5Q43 268 111.5 336.5Q180 405 277.5 405.0Q375 405 443.5 336.5Q512 268 512.0 170.5Q512 73 443.5 4.5Q375 -64 277.5 -64.0Q180 -64 111.5 4.5Z" fill="#f4900c" />
<path d="M162 340Q166 336 163.5 327.0Q161 318 152.5 310.0Q144 302 135.0 299.0Q126 296 122 300Q117 305 123 318Q82 351 12 363Q6 364 2.5 368.5Q-1 373 0.0 379.0Q1 385 6.0 388.5Q11 392 17 391Q26 389 41.0 385.5Q56 382 89.0 369.0Q122 356 143 338Q156 346 162 340Z" fill="#662113" />
<path d="M299 434Q294 427 285.0 416.5Q276 406 250.0 385.5Q224 365 199 359Q167 351 133.0 351.0Q99 351 95 361Q90 372 111.0 397.5Q132 423 165 437Q192 446 221.5 445.5Q251 445 275 439Z" fill="#5c913b" />
</g></svg>