<svg xmlns="http://www.w3.org/2000/svg" viewBox="0 0 2048 2048">
<g transform="matrix(1 0 0 -1 0 2048)">
<path d="M498 7Q498 5 497.5 1.0Q497 -3 494.0 -12.5Q491 -22 485.5 -29.5Q480 -37 468.5 -43.5Q457 -50 441 -50H71Q46 -50 31.5 -35.5Q17 -21 16 -7L14 7V277Q14 303 28.5 317.0Q43 331 57 333L71 334H441Q443 334 447.0 334.0Q451 334 460.5 330.5Q470 327 477.5 322.0Q485 317 491.5 305.0Q498 293 498 277Z" fill="#31373d" />
<path d="M303 300Q313 290 303.0 280.0Q293 270 283 280L152 411Q142 421 152.0 431.0Q162 441 172 431Z" fill="#31373d" />
<path d="M209 300 340 431Q350 441 360.0 431.0Q370 421 360 411L229 280Q219 270 209.0 280.0Q199 290 209 300Z" fill="#31373d" />
<path d="M99.5 263.5Q128 292 256.0 292.0Q384 292 412.5 263.5Q441 235 441.0 149.5Q441 64 412.5 35.5Q384 7 256.0 7.0Q128 7 99.5 35.5Q71 64 71.0 149.5Q71 235 99.5 263.5Z" fill="#55acee" />
<path d="M433.0 -15.0Q427 -9 427.0 0.0Q427 9 433.0 15.0Q439 21 448.0 21.0Q457 21 463.0 15.0Q469 9 469.0 0.0Q469 -9 463.0 -15.0Q457 -21 448.0 -21.0Q439 -21 433.0 -15.0ZM49.0 -15.0Q43 -9 43.0 0.0Q43 9 49.0 15.0Q55 21 64.0 21.0Q73 21 79.0 15.0Q85 9 85.0 0.0Q85 -9 79.0 -15.0Q73 -21 64.0 -21.0Q55 -21 49.0 -15.0Z" fill="#66757f" />
</g></svg>