<svg xmlns="http://www.w3.org/2000/svg" viewBox="0 0 2048 2048">
<g transform="matrix(1 0 0 -1 0 2048)">
<path d="M211.5 133.5Q199 146 199.0 163.5Q199 181 211.5 193.5Q224 206 241.5 206.0Q259 206 271.5 193.5Q284 181 284.0 163.5Q284 146 271.5 133.5Q259 121 241.5 121.0Q224 121 211.5 133.5Z" fill="#9aaab4" />
<path d="M274 205Q267 193 254 200L79 293Q66 300 73 312L113 388Q120 400 132 394L308 300Q320 293 314 281Z" fill="#da2f47" />
<path d="M443 131Q437 118 424 125L286 199Q274 205 280 218L307 268Q314 281 326 274L464 200Q477 194 470 181Z" fill="#da2f47" />
<path d="M274 205 314 281 339 267 299 192Z" fill="#bb1a34" />
<path d="M412 132 452 207 502 180 462 105Z" fill="#9d0522" />
<path d="M118 337 98 299 91 287 66 300 16 327Q3 333 10 346L50 421Q57 434 69 427L132 394L145 387ZM299 64H185Q173 64 164.5 72.5Q156 81 156.0 92.5Q156 104 164.5 112.5Q173 121 185 121H299Q310 121 318.5 112.5Q327 104 327.0 92.5Q327 81 318.5 72.5Q310 64 299 64Z" fill="#292f33" />
<path d="M135 -64H72L131 62Q136 72 147.0 76.5Q158 81 168.5 76.0Q179 71 183.0 59.5Q187 48 182 38ZM349 -64 301 38Q296 48 300.0 59.5Q304 71 315.0 76.0Q326 81 337.0 76.5Q348 72 353 62L412 -64ZM270 -64H213V50Q213 62 221.5 70.0Q230 78 242.0 78.0Q254 78 262.0 70.0Q270 62 270 50Z" fill="#9aaab4" />
</g></svg>