<svg xmlns="http://www.w3.org/2000/svg" viewBox="0 0 512 512">
<g transform="matrix(1 0 0 -1 0 512)">
<path d="M75.0 11.0Q0 86 0.0 192.0Q0 298 75.0 373.0Q150 448 256.0 448.0Q362 448 437.0 373.0Q512 298 512.0 192.0Q512 86 437.0 11.0Q362 -64 256.0 -64.0Q150 -64 75.0 11.0Z" fill="#77b255" />
<path d="M452 356Q512 285 512.0 192.0Q512 99 452 28Q418 43 394.0 87.0Q370 131 370.0 192.0Q370 253 394.0 297.0Q418 341 452 356ZM60 28Q0 99 0.0 192.0Q0 285 60 356Q94 341 118.0 297.0Q142 253 142.0 192.0Q142 131 118.0 87.0Q94 43 60 28Z" fill="#a6d388" />
<path d="M452 28Q444 17 432 6Q356 49 356.0 192.0Q356 335 432 378Q444 367 452 356Q420 342 402.0 299.0Q384 256 384.0 192.0Q384 128 402.0 85.0Q420 42 452 28ZM60 356Q68 366 80 378Q156 335 156.0 192.0Q156 49 80 6Q68 18 60 28Q92 42 110.0 85.0Q128 128 128.0 192.0Q128 256 110.0 299.0Q92 342 60 356Z" fill="#ffffff" />
</g></svg>