<svg xmlns="http://www.w3.org/2000/svg" viewBox="0 0 512 512">
<g transform="matrix(1 0 0 -1 0 512)">
<path d="M239 -21Q225 -21 220 -8L122 269Q118 278 124 286Q130 294 140 294H372Q385 294 390 283L509 6Q513 -4 507.5 -12.5Q502 -21 491 -21Z" fill="#f4900c" />
<path d="M22 -21Q11 -21 5.0 -12.5Q-1 -4 3 6L122 283Q127 295 140.0 295.0Q153 295 158 283L277 6Q281 -4 275.5 -12.5Q270 -21 259 -21Z" fill="#ffcc4d" />
<path d="M140 246 180 -21H101Z" fill="#292f33" />
<path d="M220 1 229 -21H180ZM61 1 101 -21H52Z" fill="#ffac33" />
<path d="M180 -21 140 246 233 4Q226 -3 212.5 -9.5Q199 -16 189 -19ZM101 -21Q65 -12 47 4L140 246Z" fill="#ffe8b6" />
</g></svg>