<svg xmlns="http://www.w3.org/2000/svg" viewBox="0 0 512 512">
<g transform="matrix(1 0 0 -1 0 512)">
<path d="M256 334 363 274 199 206 0 448H156Z" fill="#55acee" />
<path d="M356 448H512L350 251L333 230L256 334Z" fill="#3b88c3" />
<path d="M330 220Q365 200 386.5 165.0Q408 130 408 88Q408 25 363.5 -19.5Q319 -64 256.0 -64.0Q193 -64 148.5 -19.5Q104 25 104 88Q104 130 125.5 165.0Q147 200 182 220Q180 225 180 230Q180 242 188.5 250.0Q197 258 209 258H303Q315 258 323.5 250.0Q332 242 332 230Q332 225 330 220Z" fill="#ff8a3b" />
<path d="M201 31 218 47Q221 51 224 48Q241 36 253 36Q262 36 269.5 42.0Q277 48 277 57Q277 66 268.0 72.0Q259 78 245 78H236Q231 78 231 83V106Q231 111 236 111H245Q258 111 265.5 116.5Q273 122 273 131Q273 140 267.0 145.5Q261 151 252 151Q238 151 229 140Q226 137 222 140L206 156Q202 159 206 163Q227 186 256 186Q280 186 297.0 172.5Q314 159 314 138Q314 124 305.5 112.5Q297 101 286 97V96Q298 91 308.5 79.0Q319 67 319 51Q319 29 301.5 14.5Q284 0 257 0Q219 0 201 24Q198 27 201 31Z" fill="#7c4119" />
</g></svg>