<svg xmlns="http://www.w3.org/2000/svg" viewBox="0 0 2048 2048">
<g transform="matrix(1 0 0 -1 0 2048)">
<path d="M498 277Q498 247 481.0 222.0Q464 197 437 186Q441 171 441 156Q441 112 409.5 81.0Q378 50 334 50Q288 50 256 84Q224 50 178 50Q135 50 104.5 79.0Q74 108 71 151Q41 156 20.5 179.5Q0 203 0 235Q0 265 18.5 288.0Q37 311 66 318Q82 368 124.5 400.0Q167 432 221 432Q261 432 295.5 414.0Q330 396 352 366Q374 377 398 377Q439 377 468.5 348.0Q498 319 498 277ZM26.5 -23.5Q14 -11 14.0 7.0Q14 25 26.5 37.5Q39 50 57.0 50.0Q75 50 87.5 37.5Q100 25 100.0 7.0Q100 -11 87.5 -23.5Q75 -36 57.0 -36.0Q39 -36 26.5 -23.5Z" fill="#bdddf4" />
</g></svg>