<svg xmlns="http://www.w3.org/2000/svg" viewBox="0 0 2048 2048">
<g transform="matrix(1 0 0 -1 0 2048)">
<path d="M494 294Q511 278 511.0 255.0Q511 232 494 216L410 132Q404 135 398 135Q386 135 378.0 126.5Q370 118 370 107Q370 100 373 94L232 -46Q216 -63 193.0 -63.0Q170 -63 154 -46L115 -8L56 51L18 90Q1 106 1.0 129.0Q1 152 18 168L158 309Q164 306 171 306Q182 306 190.5 314.0Q199 322 199 334Q199 339 197 347L281 431Q297 447 319.5 447.0Q342 447 358 430L397 392L456 333ZM207.5 257.5Q216 249 227.5 249.0Q239 249 247.5 257.5Q256 266 256.0 277.5Q256 289 247.5 297.5Q239 306 227.5 306.0Q216 306 207.5 297.5Q199 289 199.0 277.5Q199 266 207.5 257.5ZM264.5 200.5Q273 192 284.5 192.0Q296 192 304.5 200.5Q313 209 313.0 220.5Q313 232 304.5 240.5Q296 249 284.5 249.0Q273 249 264.5 240.5Q256 232 256.0 220.5Q256 209 264.5 200.5ZM321.5 143.5Q330 135 341.5 135.0Q353 135 361.5 143.5Q370 152 370.0 163.5Q370 175 361.5 183.5Q353 192 341.5 192.0Q330 192 321.5 183.5Q313 175 313.0 163.5Q313 152 321.5 143.5Z" fill="#ccd6dd" />
<path d="M146 26Q136 36 146 46L203 102Q213 113 223.0 102.5Q233 92 223 82L166 26Q162 21 156.5 21.0Q151 21 146 26ZM104 68Q94 78 104 88L203 188Q213 198 223.0 188.0Q233 178 223 168L124 68Q120 64 114.0 64.0Q108 64 104 68ZM61 111Q51 121 61 131L161 230Q171 241 181.0 230.5Q191 220 181 210L81 111Q77 107 71.0 107.0Q65 107 61 111ZM290 352Q284 365 293.0 374.5Q302 384 316 377L405 335Q409 334 411 332Q419 324 410 316Q404 309 395 313L380 321L347 287L354 272Q359 264 352 257Q343 248 335 257Q333 259 331 262ZM335 309 358 332 312 356Z" fill="#99aab5" />
</g></svg>