<svg xmlns="http://www.w3.org/2000/svg" viewBox="0 0 512 512">
<g transform="matrix(1 0 0 -1 0 512)">
<path d="M229 78H272V-64H229Z" fill="#be1931" />
<path d="M295 171Q296 166 300.0 155.5Q304 145 317.5 116.5Q331 88 348.5 61.0Q366 34 397.5 -1.0Q429 -36 466 -64H383Q326 -26 250.0 -26.0Q174 -26 118 -64H35Q72 -36 103.5 -1.0Q135 34 152.5 61.0Q170 88 183.5 116.5Q197 145 201.0 155.5Q205 166 206 171ZM337 4Q312 36 293 71H208Q188 36 164 4Q206 17 250.5 17.0Q295 17 337 4Z" fill="#dd2e44" />
<path d="M207 220H295Q300 191 306 170H196Q202 192 207 220Z" fill="#dd2e44" />
<path d="M333 169Q335 168 335 166Q332 117 331.0 115.5Q330 114 326.5 111.5Q323 109 322 109H179Q178 109 174.5 111.5Q171 114 170 116L166 166Q166 168 168 169L180 179Q181 179 183 179H318Q320 179 321 179ZM287 267Q291 242 295 220H207Q211 242 214 267ZM280 333 281 317H220Q221 326 222 333Q222 333 250.5 333.0Q279 333 280 333Z" fill="#cdd6dd" />
<path d="M281 317Q284 290 287 267H214Q217 291 220 317ZM279 390Q286 390 286 383V364H216V383Q216 390 223 390H240L243 443Q243 446 245 446H257Q260 446 260 443L263 390Z" fill="#dd2e44" />
<path d="M280 333Q279 333 250.5 333.0Q222 333 222 333L224 351H278Q279 341 280 333Z" fill="#aab8c2" />
<path d="M216 364H286V345Q286 338 279 338H223Q216 338 216 345Z" fill="#e1e8ed" />
</g></svg>