<svg xmlns="http://www.w3.org/2000/svg" viewBox="0 0 2048 2048">
<g transform="matrix(1 0 0 -1 0 2048)">
<path d="M320 372Q339 372 362.0 366.5Q385 361 412.5 346.5Q440 332 461.5 310.0Q483 288 497.5 251.5Q512 215 512 169Q512 73 437.0 5.0Q362 -63 256 -63Q151 -63 83.0 4.5Q15 72 15 169Q15 373 241 373Q266 373 292 369Q306 372 320 372Z" fill="#dd2e44" />
<path d="M120 447Q124 443 133.0 434.5Q142 426 145.0 422.5Q148 419 153.5 411.5Q159 404 162.0 396.0Q165 388 167 377Q168 367 177.0 361.5Q186 356 191.0 355.5Q196 355 199 355Q199 355 184 348Q170 342 150.0 329.5Q130 317 120 307Q120 307 138.0 313.0Q156 319 179.5 324.5Q203 330 213 330Q213 330 225 324Q236 317 248.0 305.5Q260 294 260 284Q260 284 259 295Q258 307 252.5 318.5Q247 330 236 330Q236 330 254 329Q271 328 288.5 316.0Q306 304 306 284Q306 284 306 301Q305 319 299.0 336.5Q293 354 283 354Q283 354 301.0 359.0Q319 364 342.5 364.0Q366 364 376 354Q376 354 369.0 360.0Q362 366 344.5 371.5Q327 377 306 377Q306 377 313.0 383.0Q320 389 337.5 394.5Q355 400 376 400Q376 400 357 404Q337 408 312.5 402.0Q288 396 278 375Q278 375 274.0 381.0Q270 387 275.0 402.0Q280 417 297 434Q297 434 282.0 430.0Q267 426 251.5 412.0Q236 398 236 377Q236 377 230 377Q225 378 215.5 382.5Q206 387 199 395Q168 429 120 447Z" fill="#77b255" />
</g></svg>