<svg xmlns="http://www.w3.org/2000/svg" viewBox="0 0 512 512">
<g transform="matrix(1 0 0 -1 0 512)">
<path d="M370 441Q390 441 405.0 426.5Q420 412 420 391V334H377V391Q377 398 370 398H142Q135 398 135 391V334H92V391Q92 412 107.0 426.5Q122 441 142 441Z" fill="#292f33" />
<path d="M512 -4Q512 -6 511.5 -10.0Q511 -14 508.0 -24.5Q505 -35 499.0 -43.0Q493 -51 481.0 -57.5Q469 -64 452 -64H60Q43 -64 31.0 -58.0Q19 -52 13.0 -43.0Q7 -34 4.0 -25.0Q1 -16 0 -10V-4V282Q0 299 6.0 311.5Q12 324 21.0 329.5Q30 335 39.0 338.5Q48 342 54 342L60 343H452Q454 343 458.0 342.5Q462 342 472.5 338.5Q483 335 491.0 329.5Q499 324 505.5 311.5Q512 299 512 282Z" fill="#dd2e44" />
<path d="M57 135H455V107H57Z" fill="#ccd6dd" />
<path d="M0 235H512V206H0ZM57 107H455V78H57ZM57 21H455V-7H57Z" fill="#be1931" />
<path d="M57 50H455V21H57Z" fill="#ccd6dd" />
<path d="M142 178H114Q108 178 104.0 182.0Q100 186 100 192V249Q100 255 104.0 259.0Q108 263 114 263H142Q148 263 152.0 259.0Q156 255 156 249V192Q156 186 152.0 182.0Q148 178 142 178ZM398 178H370Q364 178 360.0 182.0Q356 186 356 192V249Q356 255 360.0 259.0Q364 263 370 263H398Q404 263 408.0 259.0Q412 255 412 249V192Q412 186 408.0 182.0Q404 178 398 178Z" fill="#aab8c2" />
<path d="M356 206H412V192Q412 186 408.0 182.0Q404 178 398 178H370Q364 178 360.0 182.0Q356 186 356 192ZM100 206H156V192Q156 186 152.0 182.0Q148 178 142 178H114Q108 178 104.0 182.0Q100 186 100 192Z" fill="#292f33" />
<path d="M370 235H398V192H370ZM114 235H142V192H114Z" fill="#292f33" />
</g></svg>