<svg xmlns="http://www.w3.org/2000/svg" viewBox="0 0 512 512">
<g transform="matrix(1 0 0 -1 0 512)">
<path d="M256 420V121Q237 121 222.0 92.0Q207 63 199.5 28.5Q192 -6 183.0 -35.0Q174 -64 165 -64Q140 -64 126 8Q121 32 122.0 84.0Q123 136 128 164Q112 187 95.0 247.5Q78 308 75.0 364.0Q72 420 100 438Q118 449 139.0 447.0Q160 445 173.0 439.0Q186 433 209.5 426.5Q233 420 256 420ZM256 420Q279 420 302.5 426.5Q326 433 339.0 439.0Q352 445 373.0 447.0Q394 449 412 438Q440 420 437.0 364.0Q434 308 417.0 247.5Q400 187 384 164Q389 136 390.0 84.0Q391 32 386 8Q372 -64 347 -64Q338 -64 329.0 -35.0Q320 -6 312.5 28.5Q305 63 290.0 92.0Q275 121 256 121Z" fill="#e1e8ed" />
<path d="M256 345Q209 345 179 367Q170 373 176.5 381.5Q183 390 191 384Q216 366 256 366Q276 366 294.5 371.5Q313 377 320 383Q328 391 335.0 383.0Q342 375 334 368Q324 358 301.0 351.5Q278 345 256 345Z" fill="#9aaab4" />
</g></svg>