<svg xmlns="http://www.w3.org/2000/svg" viewBox="0 0 512 512">
<g transform="matrix(1 0 0 -1 0 512)">
<path d="M429 59Q512 37 512 7Q512 -22 435.0 -43.0Q358 -64 256.0 -64.0Q154 -64 77.0 -43.0Q0 -22 0 7Q0 37 83 59L57 394Q57 397 57 399Q57 399 57.0 399.5Q57 400 57 401Q57 420 115.5 433.5Q174 447 256.0 447.0Q338 447 396.5 433.5Q455 420 455 401Q455 400 455.0 399.5Q455 399 455 399Q455 397 455 394Z" fill="#31373d" />
<path d="M249 354Q165 354 95 378Q82 382 86.5 395.5Q91 409 104 405Q133 395 168.0 388.5Q203 382 271.5 384.0Q340 386 409 405Q414 406 419.5 403.5Q425 401 426.5 395.0Q428 389 425.0 384.0Q422 379 416 377Q331 354 249 354Z" fill="#66757f" />
<path d="M429 59 430 58Q429 54 429 53Q429 38 417.5 25.5Q406 13 390 8Q339 -8 254.0 -8.0Q169 -8 122 10Q83 25 83 58Q83 67 81 74L76 147Q157 120 256.0 119.0Q355 118 436 141Z" fill="#744eaa" />
</g></svg>