<svg xmlns="http://www.w3.org/2000/svg" viewBox="0 0 512 512">
<g transform="matrix(1 0 0 -1 0 512)">
<path d="M366 293Q372 284 368.5 277.5Q365 271 354 271H327V220Q327 209 318.5 200.5Q310 192 299 192H213Q202 192 193.5 200.5Q185 209 185 220V271H158Q147 271 143.5 277.5Q140 284 146 294L237 438Q243 448 252.0 448.0Q261 448 267 439ZM52 113H20Q11 113 6.0 118.5Q1 124 1.0 132.5Q1 141 6.5 147.0Q12 153 20 153H127Q136 153 141.0 147.0Q146 141 146.0 132.5Q146 124 141.0 118.5Q136 113 127 113H95V-32Q95 -43 89.0 -49.0Q83 -55 73.5 -55.0Q64 -55 58.0 -49.0Q52 -43 52 -32ZM148 50Q148 95 175.5 125.5Q203 156 247 156Q290 156 318.0 125.0Q346 94 346 50Q346 4 318.5 -26.0Q291 -56 247 -56Q204 -56 176.0 -26.0Q148 4 148 50ZM301 50Q301 78 287.0 97.0Q273 116 247.0 116.0Q221 116 207.0 97.0Q193 78 193 50Q193 22 207.0 2.5Q221 -17 247.0 -17.0Q273 -17 287.0 2.5Q301 22 301 50ZM364 130Q364 153 387 153H438Q470 153 491.0 133.5Q512 114 512.0 83.5Q512 53 491.0 34.0Q470 15 440 15H408V-32Q408 -43 402.0 -49.0Q396 -55 386.5 -55.0Q377 -55 370.5 -49.0Q364 -43 364 -32ZM408 53H437Q451 53 459.0 62.0Q467 71 467.0 84.0Q467 97 459.0 105.5Q451 114 437 114H408Z" fill="#31373d" />
</g></svg>