<svg xmlns="http://www.w3.org/2000/svg" viewBox="0 0 512 512">
<g transform="matrix(1 0 0 -1 0 512)">
<path d="M156 292H199V164H156Z" fill="#ccd6dd" />
<path d="M341 76Q341 47 326.0 27.0Q311 7 289 7H67Q45 7 31.5 21.5Q18 36 21 57L30 131Q32 152 48.5 169.5Q65 187 85 191L293 237Q313 241 327.0 224.5Q341 208 341 179Z" fill="#77b255" />
<path d="M235 104 266 322Q269 345 284.5 361.0Q300 377 319 377H423Q442 377 455.5 361.0Q469 345 469 322V104Q469 82 452.5 66.0Q436 50 412 50H284Q261 50 246.5 66.0Q232 82 235 104ZM73.5 -33.0Q57 -16 57.0 7.5Q57 31 73.5 47.5Q90 64 113.5 64.0Q137 64 154.0 47.5Q171 31 171.0 7.5Q171 -16 154.0 -33.0Q137 -50 113.5 -50.0Q90 -50 73.5 -33.0Z" fill="#292f33" />
<path d="M259 92 284 292Q285 303 293.0 311.5Q301 320 311 320H417Q427 320 434.0 311.5Q441 303 441 292V92Q441 81 432.5 72.5Q424 64 412 64H284Q273 64 265.5 72.5Q258 81 259 92Z" fill="#bbddf5" />
<path d="M213 149H469V7H213Z" fill="#77b255" />
<path d="M469 121H28L43 149H469ZM93.5 -13.0Q85 -5 85.0 7.0Q85 19 93.5 27.5Q102 36 114.0 36.0Q126 36 134.0 27.5Q142 19 142.0 7.0Q142 -5 134.0 -13.0Q126 -21 114.0 -21.0Q102 -21 93.5 -13.0Z" fill="#ffcc4d" />
<path d="M469 220V164L327 36L228 50L270 192L313 220ZM463 348H275Q292 377 319 377H423Q450 377 463 348Z" fill="#77b255" />
<path d="M296.0 -13.0Q259 24 259.0 76.5Q259 129 296.0 166.0Q333 203 385.5 203.0Q438 203 475.0 166.0Q512 129 512.0 76.5Q512 24 475.0 -13.0Q438 -50 385.5 -50.0Q333 -50 296.0 -13.0Z" fill="#292f33" />
<path d="M441.5 132.5Q465 109 465.0 76.5Q465 44 441.5 21.0Q418 -2 385.5 -2.0Q353 -2 330.0 21.0Q307 44 307.0 76.5Q307 109 330.0 132.5Q353 156 385.5 156.0Q418 156 441.5 132.5Z" fill="#ffcc4d" />
<path d="M419.0 110.0Q433 96 433.0 76.5Q433 57 419.0 43.0Q405 29 385.5 29.0Q366 29 352.0 43.0Q338 57 338.0 76.5Q338 96 352.0 110.0Q366 124 385.5 124.0Q405 124 419.0 110.0Z" fill="#ffe8b6" />
<path d="M408.0 99.0Q417 90 417.0 77.0Q417 64 408.0 54.5Q399 45 385.5 45.0Q372 45 363.0 54.5Q354 64 354.0 77.0Q354 90 363.0 99.0Q372 108 385.5 108.0Q399 108 408.0 99.0ZM104.0 -3.0Q100 1 100.0 7.0Q100 13 104.0 17.0Q108 21 114.0 21.0Q120 21 124.0 17.0Q128 13 128.0 7.0Q128 1 124.0 -3.0Q120 -7 114.0 -7.0Q108 -7 104.0 -3.0Z" fill="#f4900c" />
<path d="M156 263H199V235H156Z" fill="#66757f" />
<path d="M228 39Q225 39 224 40Q218 41 215.0 46.5Q212 52 214 57L242 153Q248 181 269.5 208.0Q291 235 327 235H469Q475 235 479.5 230.5Q484 226 484.0 220.5Q484 215 479.5 210.5Q475 206 469 206H327Q315 206 304.0 199.5Q293 193 287.5 185.5Q282 178 277.5 167.5Q273 157 272.0 153.0Q271 149 270 147L241 49Q238 39 228 39Z" fill="#5c913b" />
<path d="M28 36Q28 36 27 36Q21 36 17.5 41.0Q14 46 14 52L29 165Q29 171 34.0 174.5Q39 178 44.5 177.5Q50 177 54.0 172.5Q58 168 57 162L43 48Q41 36 28 36Z" fill="#3e721d" />
</g></svg>