<svg xmlns="http://www.w3.org/2000/svg" viewBox="0 0 512 512">
<g transform="matrix(1 0 0 -1 0 512)">
<path d="M74 268H34Q21 268 15.0 275.5Q9 283 9.0 293.5Q9 304 15.5 311.5Q22 319 34 319H170Q181 319 188.0 311.5Q195 304 195.0 293.5Q195 283 188.5 275.5Q182 268 170 268H130V82Q130 69 122.0 61.0Q114 53 102.0 53.0Q90 53 82.0 61.0Q74 69 74 82ZM234 293Q236 303 246.5 312.0Q257 321 270 321Q284 321 294.0 313.0Q304 305 307 294L351 148H352L395 294Q399 305 409.0 313.0Q419 321 432 321Q446 321 456.5 312.0Q467 303 469 293L503 86Q503 84 503 80Q503 68 495.5 60.5Q488 53 477 53Q452 53 448 79L426 230H425L381 75Q375 53 351.5 53.0Q328 53 322 75L277 230L255 79Q251 53 226 53Q215 53 207.0 60.5Q199 68 199 80Q199 84 200 86Z" fill="#31373d" />
</g></svg>