<svg xmlns="http://www.w3.org/2000/svg" viewBox="0 0 2048 2048">
<g transform="matrix(1 0 0 -1 0 2048)">
<path d="M185 -36Q185 -39 184.0 -43.5Q183 -48 176.0 -56.0Q169 -64 156.5 -64.0Q144 -64 137.0 -57.0Q130 -50 129 -43L128 -36V420Q128 423 129.0 427.5Q130 432 137.0 440.0Q144 448 156.5 448.0Q169 448 176.0 441.0Q183 434 184 427L185 420Z" fill="#66757f" />
<path d="M156 391Q156 415 171.5 424.5Q187 434 208 424L446 315Q467 305 467.0 291.5Q467 278 446 268L208 159Q187 149 171.5 159.0Q156 169 156 192Z" fill="#dd2e44" />
</g></svg>