<svg xmlns="http://www.w3.org/2000/svg" viewBox="0 0 2048 2048">
<g transform="matrix(1 0 0 -1 0 2048)">
<path d="M100 131H99ZM413 131Z" fill="#ffcc4d" />
<path d="M511 169Q511 168 511.5 166.0Q512 164 512 163Q512 120 449.0 60.0Q386 0 304 -16L256 -64L209 -16Q126 0 63.5 60.0Q1 120 1 163Q1 164 1.5 166.0Q2 168 2 169Q44 144 99 131Q100 131 103.0 130.0Q106 129 109 128Q120 124 131.5 127.5Q143 131 138 144L107 186L100 178L36 242L100 306L164 242L128 206L160 162Q177 142 201.5 146.5Q226 151 228 175V263L149 341L256 448L363 341L284 263V178H285Q285 152 310.0 146.5Q335 141 353 162L385 205L348 242L412 306L476 242L412 178L405 185L375 144Q370 131 381.5 127.5Q393 124 404 128Q406 129 409.0 130.0Q412 131 414 131H413Q469 144 511 169Z" fill="#ffcc4d" />
</g></svg>