<svg xmlns="http://www.w3.org/2000/svg" viewBox="0 0 512 512">
<g transform="matrix(1 0 0 -1 0 512)">
<path d="M494 135Q502 135 460.5 87.0Q419 39 361.0 -6.0Q303 -51 270 -45V-50Q270 -56 266.0 -60.0Q262 -64 256.0 -64.0Q250 -64 246.0 -60.0Q242 -56 242 -50V-44Q209 -53 150.5 -8.0Q92 37 49.5 86.0Q7 135 15 135Q54 135 128.5 101.5Q203 68 242 31V206Q242 212 246.0 216.0Q250 220 256.0 220.0Q262 220 266.0 216.0Q270 212 270 206V33Q310 70 383.0 102.5Q456 135 494 135Z" fill="#77b255" />
<path d="M356 257Q356 187 333.5 154.0Q311 121 256.0 121.0Q201 121 178.5 154.0Q156 187 156 257Q156 299 175.5 345.5Q195 392 218.0 420.0Q241 448 256.0 448.0Q271 448 294.0 420.0Q317 392 336.5 345.5Q356 299 356 257Z" fill="#ea596e" />
<path d="M324 420Q331 420 352.0 386.0Q373 352 391.5 306.5Q410 261 410 235Q410 192 361.5 156.5Q313 121 256 121Q199 121 149.5 156.5Q100 192 100 235Q100 261 118.0 306.5Q136 352 157.0 386.0Q178 420 185 420Q190 420 219.0 309.0Q248 198 256 145Q261 179 276.0 246.0Q291 313 306.0 366.5Q321 420 324 420Z" fill="#f4abba" />
</g></svg>