<svg xmlns="http://www.w3.org/2000/svg" viewBox="0 0 2048 2048">
<g transform="matrix(1 0 0 -1 0 2048)">
<path d="M512 -7Q512 -31 495.5 -47.5Q479 -64 455 -64H57Q33 -64 16.5 -47.5Q0 -31 0 -7V391Q0 415 16.5 431.5Q33 448 57 448H455Q479 448 495.5 431.5Q512 415 512 391Z" fill="#3b88c3" />
<path d="M184 224Q167 263 142 263H100V320H142Q187 320 215 283Q198 261 184 224ZM277 147Q292 121 313 121H356V64H313Q276 64 251 89Q264 111 277 147Z" fill="#ffffff" />
<path d="M142 64H100V121H142Q161 121 173.0 138.5Q185 156 201 202Q208 223 213.0 234.5Q218 246 228.0 265.0Q238 284 248.5 294.0Q259 304 276.0 312.0Q293 320 313 320H356V263H313Q294 263 282.0 245.5Q270 228 254 182Q247 161 242.0 149.5Q237 138 227.0 119.0Q217 100 206.5 90.0Q196 80 179.0 72.0Q162 64 142 64Z" fill="#ffffff" />
<path d="M430 292 327 206V377ZM430 92 327 7V178Z" fill="#ffffff" />
</g></svg>