<svg xmlns="http://www.w3.org/2000/svg" viewBox="0 0 512 512">
<g transform="matrix(1 0 0 -1 0 512)">
<path d="M352 168Q352 157 350 146Q340 86 285.5 28.0Q231 -30 177 -50Q123 -30 68.5 28.0Q14 86 4 146Q2 157 2 168Q2 208 30.0 236.0Q58 264 98 264Q148 264 177 224Q206 264 256 264Q296 264 324.0 236.0Q352 208 352 168ZM510 367Q510 360 509 352Q502 311 464.0 270.5Q426 230 389 216Q352 230 314.0 270.5Q276 311 269 352Q267 360 267 367Q267 395 287.0 414.5Q307 434 334 434Q369 434 389 406Q409 434 443 434Q471 434 490.5 414.5Q510 395 510 367Z" fill="#dd2e44" />
</g></svg>