<svg xmlns="http://www.w3.org/2000/svg" viewBox="0 0 2048 2048">
<g transform="matrix(1 0 0 -1 0 2048)">
<path d="M512 64Q512 40 495.5 23.5Q479 7 455 7H57Q33 7 16.5 23.5Q0 40 0 64V320Q0 344 16.5 360.5Q33 377 57 377H455Q479 377 495.5 360.5Q512 344 512 320Z" fill="#00247d" />
<path d="M48 289 53 274H69L56 264L61 249L48 259L34 249L40 265L26 274H43ZM115 192 121 172H143L125 160L132 140L115 152L98 140L105 160L88 172H109ZM118 355 123 340H139L126 330L131 315L118 325L105 315L110 330L96 340H113ZM186 293 189 282H201L191 275L195 264L186 271L176 264L180 275L171 282H182Z" fill="#ffffff" />
<path d="M455 36H71Q67 38 67 43Q67 45 68.0 46.5Q69 48 70 49L71 50H455L476 43ZM71 64Q79 67 93.0 74.0Q107 81 148.5 110.5Q190 140 228 178Q268 219 287.5 238.0Q307 257 332.5 281.5Q358 306 373.0 317.5Q388 329 398 334Q384 320 375.0 270.5Q366 221 374.5 162.5Q383 104 416 78Q455 71 455 64Z" fill="#fed100" />
</g></svg>