<svg xmlns="http://www.w3.org/2000/svg" viewBox="0 0 2048 2048">
<g transform="matrix(1 0 0 -1 0 2048)">
<path d="M455 377Q479 377 495.5 360.5Q512 344 512 320V64Q512 40 495.5 23.5Q479 7 455 7H57Q33 7 16.5 23.5Q0 40 0 64V320Q0 344 16.5 360.5Q33 377 57 377Z" fill="#009b3a" />
<path d="M509 45 305 192 509 339Q512 330 512 320V64Q512 54 509 45ZM207 192 3 45Q0 54 0 64V320Q0 330 3 339Z" fill="#141414" />
<path d="M463 376Q497 372 509 339L305 192L509 45Q497 12 463 8L256 157L49 8Q15 12 3 45L207 192L3 339Q15 372 49 376L256 227Z" fill="#ffd202" />
</g></svg>