<svg xmlns="http://www.w3.org/2000/svg" viewBox="0 0 2048 2048">
<g transform="matrix(1 0 0 -1 0 2048)">
<path d="M512 64Q512 40 495.5 23.5Q479 7 455 7H57Q33 7 16.5 23.5Q0 40 0 64V320Q0 344 16.5 360.5Q33 377 57 377H455Q479 377 495.5 360.5Q512 344 512 320Z" fill="#141414" />
<path d="M0 263H512V121H0Z" fill="#eeeeee" />
<path d="M455 377Q479 377 495.5 360.5Q512 344 512 320V263H0V320Q0 344 16.5 360.5Q33 377 57 377Z" fill="#ce1225" />
<path d="M210 141 214 145Q216 149 219 149Q221 149 225.0 148.5Q229 148 237.0 147.0Q245 146 253.0 145.5Q261 145 268.5 146.0Q276 147 280.0 148.5Q284 150 285 149L289 145Q294 143 294 141L291 137Q291 133 288 132Q280 128 252 128Q224 128 216 132L213 136Z" fill="#bf9300" />
<path d="M212 142 216 144Q217 148 219 148Q220 148 224.0 147.0Q228 146 236.0 144.5Q244 143 253.0 143.0Q262 143 269.5 144.5Q277 146 280.5 147.0Q284 148 284 148L287 144Q291 143 292 141L289 137Q287 134 286 133Q283 131 252 130Q228 130 218 133L215 137Z" fill="#eeeeee" />
<path d="M297 228 300 147 293 153V154L276 168L275 170L281 152Q282 152 283.5 151.5Q285 151 287.5 149.5Q290 148 288 144L284 148L274 145L271 141L268 144H257L254 140Q253 143 254 145L251 144Q251 143 250 140L247 144H236L233 141L230 145Q223 147 220 148L216 144Q214 148 216.0 149.5Q218 151 221 152H223L230 171L227 168L211 154V153L203 147L207 228Q207 229 207.5 230.5Q208 232 210.5 234.5Q213 237 217 237Q221 236 226.5 233.0Q232 230 237 230Q238 230 239.0 230.0Q240 230 240 230Q248 241 246 249L240 252L239 255Q239 257 240 258L248 257Q250 260 256 257Q259 256 260.0 254.5Q261 253 261.5 252.0Q262 251 261.5 248.0Q261 245 261 244Q261 237 264 230H266Q271 230 276.5 233.0Q282 236 287 237Q291 237 293.5 235.0Q296 233 296 230ZM252 179Q260 183 264.0 192.0Q268 201 269 208L270 214Q259 214 252 219Q249 217 244.5 215.5Q240 214 238 214H235Q236 189 252 179ZM289 231 293 229Q293 235 287 234Q283 233 277.5 230.5Q272 228 267 227H265Q266 226 266 225Q263 225 261 227V224Q258 225 257 226H255L252 225L251 226H247Q245 224 243 224L244 227H242Q239 226 238 226L239 227H236Q232 228 226.0 230.5Q220 233 216 234Q211 235 211 229L214 231L229 217H231Q244 217 252 223Q260 217 273 217L276 218Z" fill="#bf9300" />
<path d="M247 179 239 149 226 152 240 191ZM257 179 265 191 278 152 265 149ZM241 255Q243 256 247 253L253 250L257 251Q258 251 259 239L262 228L258 230L259 228L254 230L252 227L250 230L247 228L246 231L242 229Q248 236 248 243V251Q248 251 247.0 252.0Q246 253 244.5 254.0Q243 255 241 255Z" fill="#eeeeee" />
<path d="M238 211 245 214V188Q243 193 241.0 198.5Q239 204 239 208ZM266 211Q265 198 259 188V214ZM221 140Q222 140 224.5 140.0Q227 140 234.5 139.0Q242 138 251 138Q258 138 265.5 139.0Q273 140 277.5 140.0Q282 140 283 140Q288 139 284 137Q278 134 251 135Q225 135 221 137Q218 138 221 140Z" fill="#bf9300" />
</g></svg>