<svg xmlns="http://www.w3.org/2000/svg" viewBox="0 0 512 512">
<g transform="matrix(1 0 0 -1 0 512)">
<path d="M512 64Q512 40 495.5 23.5Q479 7 455 7H57Q33 7 16.5 23.5Q0 40 0 64V320Q0 344 16.5 360.5Q33 377 57 377H455Q479 377 495.5 360.5Q512 344 512 320Z" fill="#007934" />
<path d="M0 263H512V121H0Z" fill="#ffe000" />
<path d="M455 377Q479 377 495.5 360.5Q512 344 512 320V263H0V320Q0 344 16.5 360.5Q33 377 57 377Z" fill="#d52b1e" />
<path d="M183 216 193 212 196 208H189Q184 215 183 216ZM194 223 203 219 206 215H199Q194 222 194 223ZM204 231 211 225 213 220 206 222Q204 230 204 231ZM329 216 323 208H316L319 212ZM318 223 313 215H306L309 219ZM308 231 306 222 299 220 301 225Z" fill="#ffffff" />
<path d="M198 142Q197 142 196.5 143.0Q196 144 197 144L232 162Q234 163 234.5 162.0Q235 161 234 160ZM205 136Q205 135 204.0 136.0Q203 137 204 138L237 159Q238 160 238.5 159.0Q239 158 238 158Z" fill="#a05a2d" />
<path d="M213 130Q212 129 211.0 129.5Q210 130 211 131L237 161Q238 162 238.5 161.0Q239 160 239 159Z" fill="#a05a2d" />
<path d="M247 153 239 137 237 138 234 134 225 138 236 159ZM314 142 278 160Q277 161 278.0 162.0Q279 163 280 162L315 144Q316 144 315.5 143.0Q315 142 314 142ZM307 136 274 158Q273 158 273.5 159.0Q274 160 275 159L308 138Q309 137 308.5 136.0Q308 135 307 136Z" fill="#a05a2d" />
<path d="M250 128Q250 128 249.5 128.5Q249 129 248.0 131.0Q247 133 247 135Q250 150 250 150L244 156Q243 154 239.5 151.5Q236 149 225.5 145.5Q215 142 205 144Q192 146 193 175Q195 206 196 209Q196 210 198.0 209.0Q200 208 201 206L203 205L205 215L211 210L214 219L255 179L256 155Z" fill="#d52b1e" />
<path d="M221 211 228 205 227 198 224 200Q223 191 223 182L225 165L231 167L239 157Q238 156 237.5 155.5Q237 155 233.0 153.5Q229 152 221 155Q214 156 212.5 169.0Q211 182 213 195L215 207L219 205Z" fill="#ffe000" />
<path d="M237 197Q236 170 233 167Q231 166 228.5 166.0Q226 166 224 167H222Q221 176 221 185L223 201L227 198L228 205Z" fill="#007934" />
<path d="M234 170Q235 169 236.5 168.0Q238 167 240.5 164.0Q243 161 239 157Q233 151 225.5 149.5Q218 148 215 153Q215 156 215.0 158.0Q215 160 219.0 162.5Q223 165 225.5 166.0Q228 167 232 169Q233 169 234 170Z" fill="#e8a30f" />
<path d="M299 130 273 159Q273 160 273.5 161.0Q274 162 275 161L301 131Q302 130 301.0 129.5Q300 129 299 130Z" fill="#a05a2d" />
<path d="M265 153 276 159 287 138 278 134 275 138 273 137Z" fill="#a05a2d" />
<path d="M262 128 256 155 257 179 298 219 301 210 307 215 309 205Q309 205 316 209Q317 206 319 175Q320 146 307 144Q297 142 287.0 145.0Q277 148 272 152L268 156Q262 151 262 150Q262 150 265 135Q265 133 264.5 131.5Q264 130 263 129ZM223.5 224.0Q228 228 232.5 223.0Q237 218 232.0 214.0Q227 210 223.0 215.0Q219 220 223.5 224.0Z" fill="#d52b1e" />
<path d="M291 211 293 205 297 207Q306 158 291 155Q283 153 279.0 153.5Q275 154 274 156L273 157L281 167L287 165Q289 172 289 182L288 200L285 198L284 205Z" fill="#ffe000" />
<path d="M275 197 284 205 285 198 289 201 291 185 290 167Q283 165 279 167Q278 168 277.0 175.5Q276 183 275 190Z" fill="#007934" />
<path d="M278 170Q279 169 280 169Q284 167 286.5 166.0Q289 165 293.0 162.5Q297 160 297.0 158.0Q297 156 297 153Q294 148 286.5 149.5Q279 151 273 157Q270 161 271.0 164.0Q272 167 275 168Z" fill="#e8a30f" />
<path d="M281.5 214.0Q277 218 281.0 223.0Q285 228 290.0 224.0Q295 220 290.5 215.0Q286 210 281.5 214.0Z" fill="#e7e7e7" />
<path d="M272 256Q273 257 276.0 254.5Q279 252 282.0 247.5Q285 243 285 239Q285 232 279.5 222.5Q274 213 269 211L256 207Q250 208 243 211Q238 213 232.5 222.5Q227 232 227 239Q227 243 230.0 247.5Q233 252 236.0 254.5Q239 257 240 256Q241 256 240.0 253.0Q239 250 238.0 245.0Q237 240 238 235Q238 231 242.5 226.5Q247 222 252 219L256 217Q273 225 274 235Q275 240 274.0 245.0Q273 250 272.0 253.0Q271 256 272 256Z" fill="#007934" />
<path d="M256 217Q251 212 244 212Q251 224 245 227L215 233Q230 242 233 243Q245 244 247 241Q252 234 256 235Q262 236 263 238Q264 243 274 242L296 234L295 233Q288 233 269 227Q264 225 260.5 223.0Q257 221 257 219Z" fill="#ffffff" />
<path d="M256 217Q251 212 244 212Q251 224 245 227L215 233Q232 240 235 240Q243 241 245 239Q248 234 256 235Q258 235 260.0 235.0Q262 235 264.0 235.5Q266 236 266 237Q267 241 276 240L296 233H295Q288 233 269 227Q264 225 260.5 223.0Q257 221 257 219Z" fill="#000000" />
<path d="M234.0 159.0Q225 169 225.0 183.0Q225 197 234.0 207.0Q243 217 256.0 217.0Q269 217 278.0 207.0Q287 197 287.0 183.0Q287 169 278.0 159.0Q269 149 256.0 149.0Q243 149 234.0 159.0Z" fill="#00a6de" />
<path d="M240.0 164.0Q233 172 233.0 183.0Q233 194 240.0 201.5Q247 209 256.0 209.0Q265 209 272.0 201.5Q279 194 279.0 183.0Q279 172 272.0 164.0Q265 156 256.0 156.0Q247 156 240.0 164.0ZM252.5 235.0Q259 235 259.0 232.5Q259 230 252.5 230.0Q246 230 246.0 232.5Q246 235 252.5 235.0Z" fill="#e8a30f" />
<path d="M256.0 184.0Q246 184 246.0 194.0Q246 204 256.0 204.0Q266 204 266.0 194.0Q266 184 256.0 184.0Z" fill="#d52b1e" />
<path d="M233 181Q240 183 244 186Q253 194 256 194Q257 194 266.0 188.0Q275 182 279 181Q278 170 271.5 163.0Q265 156 256.0 156.0Q247 156 240.5 163.0Q234 170 233 181Z" fill="#007934" />
<path d="M244 170H251L253 175L256 172L253 164H247Z" fill="#ffffff" />
<path d="M259.0 170.0Q262 170 262.0 165.0Q262 160 259.0 160.0Q256 160 256.0 165.0Q256 170 259.0 170.0ZM266 160Q266 159 265.5 159.0Q265 159 265 160V175Q265 175 266 175Z" fill="#b37d0a" />
<path d="M266.0 181.0Q271 181 271.0 176.5Q271 172 266.0 172.0Q261 172 261.0 176.5Q261 181 266.0 181.0Z" fill="#32b266" />
</g></svg>