<svg xmlns="http://www.w3.org/2000/svg" viewBox="0 0 512 512">
<g transform="matrix(1 0 0 -1 0 512)">
<path d="M508 42Q501 26 487.0 16.5Q473 7 455 7H57Q39 7 25.0 16.5Q11 26 4 42ZM0 109H512V73H0ZM164 311H512V275H164ZM508 342H164V377H455Q473 377 487.0 367.5Q501 358 508 342ZM164 244H512V207H164ZM0 177H512V140H0Z" fill="#bf0a30" />
<path d="M164 275H512V244H164ZM0 207H171H512V177H0ZM164 342H508Q512 331 512 320V311H164ZM0 140H512V109H0ZM0 64V73H512V64Q512 53 508 42H4Q0 53 0 64Z" fill="#eeeeee" />
<path d="M57 377H171V207H0V320Q0 344 16.5 360.5Q33 377 57 377Z" fill="#002868" />
<path d="M97 302H133L104 281L115 246L85 268L56 246L67 281L38 302H74L85 337Z" fill="#ffffff" />
</g></svg>