<svg xmlns="http://www.w3.org/2000/svg" viewBox="0 0 2048 2048">
<g transform="matrix(1 0 0 -1 0 2048)">
<path d="M270 7H128Q104 7 87.5 23.5Q71 40 71 64V320Q71 344 87.5 360.5Q104 377 128 377H270Z" fill="#fddf00" />
<path d="M441 64Q441 40 424.5 23.5Q408 7 384 7H256V377H384Q408 377 424.5 360.5Q441 344 441 320Z" fill="#eeeeee" />
<path d="M410 246 405 250 415 254Z" fill="#a1a1a1" />
<path d="M413.5 250.0Q410 250 410.0 253.5Q410 257 413.5 257.0Q417 257 417.0 253.5Q417 250 413.5 250.0ZM404.0 243.5Q399 248 402.0 251.0Q405 254 410.0 249.5Q415 245 412.0 242.0Q409 239 404.0 243.5Z" fill="#a1a1a1" />
<path d="M321 170Q316 175 324 181Q325 183 326 183Q327 185 361.0 213.5Q395 242 399 245Q402 248 404.5 247.5Q407 247 407.0 244.0Q407 241 405 239Q402 237 373.0 210.0Q344 183 339 179Q338 178 335 175Q325 166 321 170Z" fill="#cb9c2b" />
<path d="M403 241 409 234 406 231 409 229 413 231 417 226V222L408 214L403 218V222H399V218H401L403 215V210L396 204L380 219ZM286.0 139.0Q280 145 280.0 154.0Q280 163 286.0 169.0Q292 175 301.0 175.0Q310 175 316.0 169.0Q322 163 322.0 154.0Q322 145 316.0 139.0Q310 133 301.0 133.0Q292 133 286.0 139.0ZM293 154Q286 154 286.0 147.0Q286 140 293.0 140.0Q300 140 300 147Q300 147 300.5 147.0Q301 147 301 147Q301 140 308.0 140.0Q315 140 315.0 147.0Q315 154 308 154Q315 154 315.0 161.0Q315 168 308.0 168.0Q301 168 301 161Q301 161 300 161Q300 168 293.0 168.0Q286 168 286.0 161.0Q286 154 293 154ZM287 246 282 254 292 250Z" fill="#cb9c2b" />
<path d="M316.5 166.5Q312 171 315.0 174.0Q318 177 322.5 172.5Q327 168 324.0 165.0Q321 162 316.5 166.5ZM284.5 168.0Q281 168 281.0 171.5Q281 175 284.5 175.0Q288 175 288.0 171.5Q288 168 284.5 168.0ZM315.5 133.0Q312 133 312.0 136.5Q312 140 315.5 140.0Q319 140 319.0 136.5Q319 133 315.5 133.0ZM283.5 134.0Q280 134 280.0 137.5Q280 141 283.5 141.0Q287 141 287.0 137.5Q287 134 283.5 134.0Z" fill="#a1a1a1" />
<path d="M381 205Q386 213 379 229Q370 247 375 252Q377 254 379 254Q380 254 381 254Q376 248 381 240Q391 223 385 210Q384 207 381 205Z" fill="#b4b4b5" />
<path d="M373 248Q373 257 380 260Q382 260 384 260Q389 260 395 256L391 250Q387 253 382 253Q376 253 373 248Z" fill="#b4b4b5" />
<path d="M283.5 257.0Q287 257 287.0 253.5Q287 250 283.5 250.0Q280 250 280.0 253.5Q280 257 283.5 257.0ZM287.0 249.5Q292 254 295.0 251.0Q298 248 293.0 243.5Q288 239 285.0 242.0Q282 245 287.0 249.5Z" fill="#cb9c2b" />
<path d="M376 170Q372 166 362 175Q359 178 357 179Q353 183 324.0 210.0Q295 237 292.5 239.0Q290 241 290.0 244.0Q290 247 292.5 247.5Q295 248 298 245Q302 242 335.5 213.5Q369 185 371 183Q372 183 373 181Q381 175 376 170Z" fill="#a1a1a1" />
<path d="M294 241 317 219 301 204 294 210V215L296 218H298V222H294V218L289 214L280 222V226L284 231L288 229L291 231L288 234ZM381.0 169.0Q387 175 396.0 175.0Q405 175 411.0 169.0Q417 163 417.0 154.0Q417 145 411.0 139.0Q405 133 396.0 133.0Q387 133 381.0 139.0Q375 145 375.0 154.0Q375 163 381.0 169.0ZM404 154Q411 154 411.0 161.0Q411 168 404.0 168.0Q397 168 397 161Q397 161 396 161Q396 168 389.0 168.0Q382 168 382.0 161.0Q382 154 389 154Q382 154 382.0 147.0Q382 140 389.0 140.0Q396 140 396 147Q397 147 397 147Q397 140 404.0 140.0Q411 140 411.0 147.0Q411 154 404 154Z" fill="#a1a1a1" />
<path d="M374.5 172.5Q379 177 382.0 174.0Q385 171 380.5 166.5Q376 162 373.0 165.0Q370 168 374.5 172.5ZM412.5 175.0Q416 175 416.0 171.5Q416 168 412.5 168.0Q409 168 409.0 171.5Q409 175 412.5 175.0ZM381.0 140.0Q385 140 385.0 136.5Q385 133 381.0 133.0Q377 133 377.0 136.5Q377 140 381.0 140.0ZM413.5 141.0Q417 141 417.0 137.5Q417 134 413.5 134.0Q410 134 410.0 137.5Q410 141 413.5 141.0Z" fill="#cb9c2b" />
<path d="M369 253Q369 239 364.0 236.0Q359 233 348 233Q341 233 337.5 233.5Q334 234 331.0 238.5Q328 243 328 253Q328 269 334.0 282.5Q340 296 348.0 296.0Q356 296 362.5 282.5Q369 269 369 253Z" fill="#000000" />
<path d="M347 234Q337 234 334 236Q329 240 329 253Q329 263 332.0 273.0Q335 283 339.5 289.0Q344 295 348 295Q355 295 361.0 282.0Q367 269 367 253Q367 240 363.0 237.0Q359 234 350 234Z" fill="#ffffff" />
<path d="M359 248Q366 246 370 249L366 236Q360 241 348 241Q343 241 338.5 239.5Q334 238 332 237L330 236L327 249Q327 249 328.0 248.5Q329 248 332.0 247.5Q335 247 338 248Q341 249 343.5 253.0Q346 257 348.0 257.0Q350 257 352.5 253.0Q355 249 359 248Z" fill="#cb9c2b" />
<path d="M360 266Q364 265 366.5 265.5Q369 266 370.5 266.5Q372 267 372 268L368 253Q362 259 348 259Q342 259 337.0 257.5Q332 256 330 255L328 253L325 268Q325 267 326.0 266.5Q327 266 330.0 265.5Q333 265 337 266Q341 267 343.5 271.5Q346 276 348.5 276.0Q351 276 353.5 271.5Q356 267 360 266Z" fill="#cb9c2b" />
<path d="M358 285Q365 283 368 286L365 274Q359 278 348 278L332 274L328 286Q329 286 329.5 285.5Q330 285 332.5 284.5Q335 284 338 285Q342 286 344.0 289.5Q346 293 348.0 293.0Q350 293 352.5 289.5Q355 286 358 285ZM348.5 295.0Q346 295 346.0 299.0Q346 303 348.5 303.0Q351 303 351.0 299.0Q351 295 348.5 295.0Z" fill="#cb9c2b" />
<path d="M348.5 300.0Q342 300 342.0 302.5Q342 305 348.5 305.0Q355 305 355.0 302.5Q355 300 348.5 300.0Z" fill="#cb9c2b" />
<path d="M348.5 304.0Q346 304 346.0 306.5Q346 309 348.5 309.0Q351 309 351.0 306.5Q351 304 348.5 304.0Z" fill="#cb9c2b" />
<path d="M316 205Q313 207 311 210Q306 223 316 240Q320 248 315 254Q316 254 317 254Q320 254 322 252Q326 247 318 229Q311 213 316 205Z" fill="#b4b4b5" />
<path d="M324 248Q321 253 315 253Q310 253 306 250L302 256Q307 260 313 260Q315 260 316 260Q323 257 324 248Z" fill="#b4b4b5" />
<path d="M348 206Q352 204 352 186V108Q352 107 353.0 106.5Q354 106 354.5 103.0Q355 100 355 95Q355 93 351.5 93.0Q348 93 347.0 95.0Q346 97 346.5 101.5Q347 106 348 107V185Q348 194 346 203Q345 205 346.0 206.0Q347 207 348 206Z" fill="#ec1c24" />
<path d="M375 152Q375 149 376 147Q371 148 361 161Q359 164 356.5 169.0Q354 174 352.0 177.0Q350 180 347.0 182.0Q344 184 341.0 186.5Q338 189 336.5 190.5Q335 192 335 192Q334 193 335.0 194.0Q336 195 336 196Q341 196 355 180Q357 177 360.0 171.5Q363 166 365 164Q372 155 375 152Z" fill="#ec1c24" />
<path d="M361 198Q363 200 363 197Q362 194 361 192Q360 192 352 185Q351 184 348.5 180.5Q346 177 342.5 170.5Q339 164 335 160Q327 148 320 146Q321 148 322 152Q326 155 331 160Q333 163 338.5 171.5Q344 180 346 183Q351 189 361 198Z" fill="#ec1c24" />
<path d="M343 188Q343 191 346 186Q348 184 348 183V107Q350 104 351.0 98.0Q352 92 350 91Q350 90 345.5 90.5Q341 91 341 93Q338 102 343 106Z" fill="#ec1c24" />
<path d="M314 150Q315 150 316 149Q316 147 315 146Q313 145 313.5 143.5Q314 142 316 141Q336 134 347 134Q359 134 379 141Q386 144 380 146Q378 147 379 148Q380 149 382 148Q392 146 383 139Q379 136 367.5 132.5Q356 129 348 129Q338 129 316 138Q304 142 314 150Z" fill="#ec1c24" />
<path d="M350.5 113.0Q354 113 354.0 110.0Q354 107 350.5 107.0Q347 107 347.0 110.0Q347 113 350.5 113.0Z" fill="#cb9c2b" />
<path d="M345.0 111.0Q348 111 348.0 108.0Q348 105 345.0 105.0Q342 105 342.0 108.0Q342 111 345.0 111.0Z" fill="#cb9c2b" />
</g></svg>