<svg xmlns="http://www.w3.org/2000/svg" viewBox="0 0 512 512">
<g transform="matrix(1 0 0 -1 0 512)">
<path d="M57 377H156V7H57Q33 7 16.5 23.5Q0 40 0 64V320Q0 344 16.5 360.5Q33 377 57 377Z" fill="#006847" />
<path d="M455 377Q479 377 495.5 360.5Q512 344 512 320V64Q512 40 495.5 23.5Q479 7 455 7H356V377Z" fill="#ce1126" />
<path d="M156 377H356V7H156Z" fill="#eeeeee" />
<path d="M327 192H341Q341 157 316.0 132.0Q291 107 256.0 107.0Q221 107 196.0 132.0Q171 157 171 192H185Q185 163 206.0 142.0Q227 121 256.0 121.0Q285 121 306.0 142.0Q327 163 327 192Z" fill="#a6d388" />
<path d="M193 160Q195 155 199 150Q203 144 197 140Q196 138 193 138Q190 138 187 141Q186 143 185 144V145H184V146Q182 149 180 153Q177 160 183 163Q184 164 186 164Q191 164 193 160ZM186 182Q187 175 179 174Q172 174 171 180Q171 184 171 187V188V189V190Q171 192 171 194Q171 201 177 201H178Q185 201 185 194Q185 191 185 189Q185 186 186 182ZM261 121Q268 121 268 114Q269 107 262 107Q262 107 261.0 107.0Q260 107 260 107H259H258H257Q254 107 250 107H249H247Q240 108 241 115Q242 121 248 121Q248 121 249 121Q254 121 259 121ZM226 127Q233 124 230 118Q228 114 223 114Q222 114 220 115Q214 117 208 121V122Q202 126 206 131Q208 134 212 135Q214 135 216 133Q221 130 226 127ZM298 133Q302 133 304 130Q308 124 302 120Q301 120 299 118H298V117H297H296V116H295H294V115H293H292V114H291L289 113Q288 113 287 113Q282 113 280 117Q277 124 284 126Q289 129 294 132Q296 133 298 133ZM334 199Q341 199 341 192Q341 188 341 185V184Q341 181 340 178Q339 172 333 172Q333 172 332 172Q325 173 326 180Q327 186 327 192Q327 198 334 199ZM328 160Q334 157 331 151L330 150V149H329V148V147H328V146V145Q325 142 323 139Q321 136 318 136Q315 136 313 138Q307 142 312 148Q315 152 318 158Q320 161 324 161Q326 161 328 160Z" fill="#5c913b" />
<path d="M225.5 139.0Q213 143 213.0 149.0Q213 155 225.5 159.5Q238 164 256.0 164.0Q274 164 286.5 159.5Q299 155 299.0 149.0Q299 143 286.5 139.0Q274 135 256.0 135.0Q238 135 225.5 139.0Z" fill="#55acee" />
<path d="M248.0 139.0Q242 143 242.0 149.0Q242 155 248.0 159.5Q254 164 263.0 164.0Q272 164 278.0 159.5Q284 155 284.0 149.0Q284 143 278.0 139.0Q272 135 263.0 135.0Q254 135 248.0 139.0Z" fill="#ffcc4d" />
<path d="M272 145Q270 145 268 146Q262 150 265.5 156.0Q269 162 273 167Q270 167 267 167Q259 167 259.0 174.0Q259 181 266 181H267Q273 181 279 182Q283 182 285 180Q286 180 286 180Q288 182 290 182Q291 183 293 184Q296 185 299 185Q302 185 304.5 182.0Q307 179 305 176Q304 172 297 170Q296 170 294 168Q289 165 285 169Q289 164 285 160Q282 155 278 149Q276 145 272 145ZM252 168Q251 168 251 168Q243 169 236.0 171.0Q229 173 231 180Q227 174 221 177Q214 181 208 187Q203 192 208.0 197.0Q213 202 218 197Q223 193 228 190Q233 187 231 181Q234 187 240.0 185.0Q246 183 253.0 182.0Q260 181 259 174Q258 168 252 168ZM217 201Q205 201 198 209Q186 223 187 237Q188 241 183 242Q180 243 179 240Q177 237 174.0 238.5Q171 240 172 243Q176 251 185 249Q195 246 194 237Q193 226 204 214Q208 209 216 208Q220 208 221 209Q220 211 205 219Q201 222 200 226Q199 232 212 245Q216 250 218 251Q219 253 218 255Q217 259 208 261Q201 263 199 268Q196 275 202 286Q204 289 207.0 287.5Q210 286 208 283Q203 274 205 271Q206 269 210 268Q222 265 225 257Q227 252 223 247Q222 245 217 240Q206 230 207 227Q207 226 208 225Q226 216 228 211Q228 208 227 206Q225 202 219 201Q218 201 217 201Z" fill="#5c913b" />
<path d="M277.0 178.0Q270 178 270.0 192.0Q270 206 277.0 206.0Q284 206 284.0 192.0Q284 178 277.0 178.0ZM235.0 211.0Q246 211 246.0 203.5Q246 196 235.0 196.0Q224 196 224.0 203.5Q224 211 235.0 211.0ZM229 269Q230 267 227.0 264.5Q224 262 220 261Q210 259 209 265Q208 267 210.5 269.0Q213 271 218 272Q228 275 229 269Z" fill="#ffcc4d" />
<path d="M320 193Q320 193 319 205Q319 210 318 216Q318 217 318.0 220.0Q318 223 318 225L316 226V222L317 209Q317 207 316.5 203.5Q316 200 316 198L314 200V204Q313 208 312.0 215.0Q311 222 310 223V218L311 200L310 201L309 202Q309 203 309.0 204.0Q309 205 309 206Q306 223 303 225V221L305 210Q305 210 302 213Q298 225 297 226Q297 226 297.5 224.0Q298 222 299.0 219.5Q300 217 300 215Q300 215 298 216Q297 217 296.0 220.0Q295 223 294 225Q288 230 285 232Q290 226 293 219L291 220Q290 221 288.0 223.5Q286 226 285 227Q280 229 277 231L275 229Q279 225 279 216Q279 216 312 193Q315 191 312 190Q312 190 310.5 190.0Q309 190 307.0 190.0Q305 190 303 191Q303 189 300.5 188.5Q298 188 296 189Q295 187 292.5 187.5Q290 188 289 189H285L279 194L278 192Q277 193 276 194Q276 191 275 190L273 192H272L269 190V192Q268 190 267 189L265 190Q264 191 262.5 193.0Q261 195 261 196H259Q258 197 256.5 199.5Q255 202 254 203Q256 197 253 197L251 199L249 198Q249 196 240 197V199Q233 201 233 203Q235 205 238 207L241 208Q238 212 237 213H242Q242 214 239.0 218.5Q236 223 235 226Q233 226 232 226Q233 227 231.5 230.5Q230 234 230.0 238.0Q230 242 233 245Q233 246 232 246Q232 249 237 253H235Q234 255 238 259Q237 262 234.5 263.0Q232 264 229.5 263.5Q227 263 226 263Q225 263 224 264H221L219 265Q219 268 219 268Q226 274 226 278L227 274Q227 275 230 280Q230 279 230 278Q230 277 230 276Q231 275 231.5 275.0Q232 275 232 275Q232 275 232.5 278.0Q233 281 234 282Q234 281 235.0 279.0Q236 277 236 277Q236 278 237.0 279.0Q238 280 238 281L239 278L249 276Q252 277 253 276L252 274L256 270V274Q255 277 248 279Q245 279 245 282Q245 287 252 288Q253 290 259 291Q269 291 282.0 285.0Q295 279 299 281Q297 279 297 277Q310 268 315 260Q317 257 319.0 251.5Q321 246 323.0 243.0Q325 240 327 241Q327 239 324 239Q325 236 325.5 228.5Q326 221 325 220Q324 216 324 207Z" fill="#c1694f" />
</g></svg>