<svg xmlns="http://www.w3.org/2000/svg" viewBox="0 0 2048 2048">
<g transform="matrix(1 0 0 -1 0 2048)">
<path d="M512 64Q512 40 495.5 23.5Q479 7 455 7H57Q33 7 16.5 23.5Q0 40 0 64V320Q0 344 16.5 360.5Q33 377 57 377H455Q479 377 495.5 360.5Q512 344 512 320Z" fill="#eeeeee" />
<path d="M9 33Q1 45 0 59H512Q511 45 503 33ZM512 112V86H0V112ZM512 139H0V165H512ZM0 218H512V192H0ZM512 245H0V271H512ZM0 320Q0 322 0 324H512Q512 322 512 320V298H0ZM57 377Q455 377 455 377Q486 377 503 350H9Q26 377 57 377Z" fill="#dd2e44" />
<path d="M256 377V165H0V320Q0 344 16.5 360.5Q33 377 57 377Z" fill="#010066" />
<path d="M136 197Q151 197 164 202Q142 186 114 186Q78 186 53.0 211.0Q28 236 28.0 271.0Q28 306 53.0 331.0Q78 356 114 356Q142 356 164 340Q150 346 136 346Q105 345 84.0 323.0Q63 301 63.0 271.0Q63 241 84.0 219.0Q105 197 136 197Z" fill="#ffcc4d" />
<path d="M184 316 189 293 203 312 197 289 218 300 203 282H227L205 272L227 263H203L218 245L197 256L203 233L189 252L184 228L179 252L165 233L170 256L150 245L165 263H141L162 272L141 282H165L150 300L170 289L165 312L179 293Z" fill="#ffcc4d" />
</g></svg>