<svg xmlns="http://www.w3.org/2000/svg" viewBox="0 0 2048 2048">
<g transform="matrix(1 0 0 -1 0 2048)">
<path d="M512 64Q512 40 495.5 23.5Q479 7 455 7H57Q33 7 16.5 23.5Q0 40 0 64V320Q0 344 16.5 360.5Q33 377 57 377H455Q479 377 495.5 360.5Q512 344 512 320Z" fill="#c60a1d" />
<path d="M0 277H512V107H0Z" fill="#ffc400" />
<path d="M128 206H213V164Q213 146 200.5 133.5Q188 121 170.5 121.0Q153 121 140.5 133.5Q128 146 128 164ZM140.5 226.5Q128 233 128.0 242.0Q128 251 140.5 257.0Q153 263 170.5 263.0Q188 263 200.5 257.0Q213 251 213.0 242.0Q213 233 200.5 226.5Q188 220 170.5 220.0Q153 220 140.5 226.5Z" fill="#ea596e" />
<path d="M171 220H213V178H171Z" fill="#f4a2b2" />
<path d="M128 220H171V178H128Z" fill="#dd2e44" />
<path d="M140.5 245.0Q128 248 128.0 252.5Q128 257 140.5 260.0Q153 263 170.5 263.0Q188 263 200.5 260.0Q213 257 213.0 252.5Q213 248 200.5 245.0Q188 242 170.5 242.0Q153 242 140.5 245.0Z" fill="#ffac33" />
<path d="M100 220H114V121H100ZM228 220H242V121H228Z" fill="#99aab5" />
<path d="M85 135H128V121H85ZM213 135H256V121H213ZM100 235H114V220H100ZM228 235H242V220H228Z" fill="#66757f" />
</g></svg>