<svg xmlns="http://www.w3.org/2000/svg" viewBox="0 0 512 512">
<g transform="matrix(1 0 0 -1 0 512)">
<path d="M512 64Q512 40 495.5 23.5Q479 7 455 7H57Q33 7 16.5 23.5Q0 40 0 64V320Q0 344 16.5 360.5Q33 377 57 377H455Q479 377 495.5 360.5Q512 344 512 320Z" fill="#eeeeee" />
<path d="M195 262 40 374Q49 377 57 377H455Q462 377 471 374L317 263Q291 286 256 286Q221 286 195 262Z" fill="#ce1126" />
<path d="M342 228 505 346Q512 333 512 320V64Q512 50 505 37L341 156Q349 174 349 193Q349 211 342 228ZM171 157 7 38Q0 50 0 64V320Q0 333 6 346L170 227Q164 211 164 193Q164 174 171 157Z" fill="#1eb53a" />
<path d="M315 122 470 9Q462 7 455 7H57Q50 7 41 10L197 123Q222 101 256 101Q289 101 315 122Z" fill="#ce1126" />
<path d="M271 231 276 223 279 218H264L259 210L256 205L253 210L249 218H233L236 223L241 231L236 239L233 244H249L253 252L256 257L259 252L264 244H279L276 239ZM312 166 316 159 319 153H304L300 145L297 140L294 145L289 153H274L277 159L282 166L277 174L274 179H289L294 187L297 193L300 187L304 179H319L316 174ZM235 159 238 153H223L219 145L216 140L213 145L208 153H193L196 159L200 166L196 174L193 179H208L213 187L216 193L219 187L223 179H238L235 174L231 166Z" fill="#1eb53a" />
<path d="M273 240 267 231 273 221H262L256 212L251 221H240L245 231L240 240H251L256 250L262 240ZM297 185 302 176H313L308 166L313 157H302L297 147L291 157H280L286 166L280 176H291ZM232 176 227 166 232 157H221L216 147L210 157H199L205 166L199 176H210L216 185L221 176Z" fill="#ce1126" />
</g></svg>