<svg xmlns="http://www.w3.org/2000/svg" viewBox="0 0 512 512">
<g transform="matrix(1 0 0 -1 0 512)">
<path d="M512 64Q512 40 495.5 23.5Q479 7 455 7H57Q33 7 16.5 23.5Q0 40 0 64V320Q0 344 16.5 360.5Q33 377 57 377H455Q479 377 495.5 360.5Q512 344 512 320Z" fill="#006600" />
<path d="M455 377Q479 377 495.5 360.5Q512 344 512 320V64Q512 40 495.5 23.5Q479 7 455 7H213V377Z" fill="#d52b1e" />
<path d="M133.0 272.5Q166 306 213.0 306.0Q260 306 293.5 272.5Q327 239 327.0 192.0Q327 145 293.5 111.5Q260 78 213.0 78.0Q166 78 133.0 111.5Q100 145 100.0 192.0Q100 239 133.0 272.5ZM126 240Q116 222 114 200L149 218ZM114 184Q117 151 138 127L177 152ZM199 94V107H162Q179 96 199 94ZM199 121V150L155 121ZM199 167V168L160 207L130 192L190 162ZM199 188V230L149 238ZM199 245V290Q161 285 136 255ZM300 240 277 218 312 200Q311 222 300 240ZM228 290V245L291 255Q266 285 228 290ZM228 230V188L278 238ZM228 168V167L236 162L297 192L267 207ZM228 94Q247 96 264 107H228ZM228 121H272L228 150ZM288 127Q310 151 312 184L250 152Z" fill="#ffcc4d" />
<path d="M156 263H270V164Q270 140 253.5 123.5Q237 107 213.5 107.0Q190 107 173.0 123.5Q156 140 156 164Z" fill="#d52b1e" />
<path d="M171 249H256V164Q256 146 243.5 133.5Q231 121 213.5 121.0Q196 121 183.5 133.5Q171 146 171 164Z" fill="#ffffff" />
<path d="M185 206H242V178H185Z" fill="#829acd" />
<path d="M199 220H228V164H199Z" fill="#829acd" />
<path d="M171 206H185V178H171ZM199 206H228V178H199ZM242 206H256V178H242ZM199 164H228V135H199ZM199 249H228V220H199Z" fill="#003399" />
</g></svg>