<svg xmlns="http://www.w3.org/2000/svg" viewBox="0 0 2048 2048">
<g transform="matrix(1 0 0 -1 0 2048)">
<path d="M512 64Q512 40 495.5 23.5Q479 7 455 7H57Q33 7 16.5 23.5Q0 40 0 64V320Q0 344 16.5 360.5Q33 377 57 377H455Q479 377 495.5 360.5Q512 344 512 320Z" fill="#002d62" />
<path d="M455 377Q479 377 495.5 360.5Q512 344 512 320V220H284V377Z" fill="#dd2e44" />
<path d="M57 7Q33 7 16.5 23.5Q0 40 0 64V164H228V7Z" fill="#ce1225" />
<path d="M512 235V149H299V7H213V149H0V235H213V377H299V235Z" fill="#eeeeee" />
<path d="M256 221V193H234V217L229 221ZM256 165V193H279V180Q279 169 273 169Q260 169 256 165Z" fill="#002d62" />
<path d="M256 165Q253 169 240 169Q234 169 234 180V193H256ZM256 221H284L279 217V193H256Z" fill="#ce1225" />
<path d="M260 168Q258 167 256 165Q254 167 252 168V221H260Z" fill="#ffffff" />
<path d="M234 197H279V189H234Z" fill="#ffffff" />
<path d="M256 198 271 214V209L274 212V185Q274 179 266.0 178.0Q258 177 256 181Q255 177 247.0 178.0Q239 179 239 185V212L242 209V214Z" fill="#002d62" />
<path d="M256 181Q251 179 248.0 180.0Q245 181 245 184V189Q239 189 239 191V195Q239 193 245 193V206L247 204V208L251 204V201L249 203V192Q250 192 252.5 191.0Q255 190 256.5 190.0Q258 190 260.5 191.0Q263 192 264 192V203L262 201V204L265 208V204L268 206V193Q274 193 274 195V191Q274 189 268 189V184Q268 181 265.0 180.0Q262 179 256 181V185Q259 184 261.5 183.5Q264 183 264 185V188Q263 188 260.5 187.0Q258 186 256.5 186.0Q255 186 252.5 187.0Q250 188 249 188V185Q249 183 251.0 183.5Q253 184 256 185Z" fill="#ffffff" />
<path d="M262 204V201L264 203V192Q263 192 260.5 191.0Q258 190 256.5 190.0Q255 190 252.5 191.0Q250 192 249 192V203L251 201V204L256 198Z" fill="#ce1225" />
<path d="M239 191Q239 189 245 189V184Q245 181 248.0 180.0Q251 179 256 181Q262 179 265.0 180.0Q268 181 268 184V189Q274 189 274 191V185Q274 179 266.0 178.0Q258 177 256 181Q255 177 247.0 178.0Q239 179 239 185Z" fill="#ce1225" />
<path d="M262 231Q262 231 263 233Q260 234 256.5 234.0Q253 234 250 233Q250 231 250 231L246 229Q240 229 234 228Q234 227 234 226Q234 225 228 224Q224 223 222 214Q219 215 216 215Q219 227 224 228Q223 231 227 233Q232 235 244 236Q243 238 246 239Q249 240 256.5 240.0Q264 240 267 239Q270 238 269 236Q280 235 286 233Q290 231 289 228Q293 227 296 215Q293 215 291 214Q289 223 284 224Q278 225 278 226Q278 227 279 228Q272 229 267 229Z" fill="#002d62" />
<path d="M256 197 274 212H275L256 196ZM256 199 272 215 256 198ZM256 201 268 218 269 217 256 200ZM256 197V196L238 212Z" fill="#996b38" />
<path d="M256 199V198L241 215ZM256 201V200L244 217V218Z" fill="#996b38" />
<path d="M274 213 277 214 275 212ZM271 215 274 217 272 215ZM268 218 270 220 269 217ZM238 213Q238 213 238 212L236 214ZM241 215Q241 215 240 215L239 217ZM244 218Q245 218 244.0 217.5Q243 217 243 217L242 220Z" fill="#ffce46" />
<path d="M252 201Q254 203 256 202Q258 204 260 203L263 195Q262 195 261.0 195.0Q260 195 260 195Q259 194 259 194Q258 194 256 194Q256 194 255.5 193.5Q255 193 255 193L252 201Z" fill="#ffffff" />
<path d="M255 193 252 201Q254 203 256 202Q258 204 260 203L263 195Q262 195 261.0 195.0Q260 195 260 195Q259 194 259 194Q258 194 257 194Q256 194 255.5 193.5Q255 193 255 193ZM252 201 255 193Q255 193 255.5 193.5Q256 194 256 194Q258 194 259 194Q259 194 260 195Q260 195 261.0 195.0Q262 195 263 196L260 203Q258 204 256 202Q254 203 252 201Z" fill="#000000" />
<path d="M280 160Q285 159 286 157Q281 159 278 158Q274 157 269.5 158.0Q265 159 264 158Q263 157 258.0 152.5Q253 148 249 146Q248 147 247 148Q251 149 256.0 154.5Q261 160 263 162Q266 164 265 171Q266 170 267 168Q267 170 269 171Q268 169 268 166Q270 169 270 170Q270 167 269 165Q270 166 272 170Q272 168 271 166Q274 168 274 171Q274 170 274 168Q274 168 274.5 169.0Q275 170 275 171Q275 169 275 167Q276 169 276 171Q277 170 276 168Q277 168 277 172Q278 170 278 169Q279 172 278 175Q279 174 279 172Q278 176 278 178Q279 177 280 175Q280 180 279 182Q280 182 280 181Q280 182 280 186Q281 183 282 179Q282 182 281 187V188Q281 187 283 184Q283 186 281 190Q281 192 280 190V191Q282 193 282 193Q282 193 282 192Q282 195 281 197Q283 196 283 194Q283 198 283 200Q284 198 284 197Q284 198 283.5 200.0Q283 202 283 203Q284 201 286 198Q285 198 285 199Q285 201 285 201Q285 201 286 200Q287 197 288 197Q287 199 284 204Q283 205 282 204Q282 204 281.5 203.5Q281 203 280 203Q283 207 284 206Q284 209 284 210Q284 209 286 206Q287 205 287 204Q287 206 287.0 206.0Q287 206 286.0 209.0Q285 212 285 214Q285 213 286.5 211.0Q288 209 288 208Q288 212 287 214Q288 213 288.5 211.5Q289 210 290 209Q290 210 290.5 212.0Q291 214 291 215Q292 214 292 209Q293 212 294 214Q294 213 293.5 210.0Q293 207 293 206Q295 210 298 213Q297 212 296.0 209.0Q295 206 295 205Q295 206 295.5 206.5Q296 207 297 207Q298 208 299 207Q300 206 300 205Q297 206 296 205Q293 202 293.0 201.5Q293 201 293 200Q294 203 297 204Q296 203 295 201Q296 202 299 203Q299 203 298.0 202.0Q297 201 295.5 199.5Q294 198 294 198Q295 199 298 201Q298 201 298 200Q295 198 295 196Q296 197 297.0 198.0Q298 199 300 198H298Q298 198 297 197Q297 197 297 196Q296 194 295 193Q295 193 298 195Q298 195 296 192Q299 194 302 196Q301 195 292 187Q293 188 296.0 190.0Q299 192 299 192Q300 193 301 191L302 190Q299 191 299 191Q299 190 296.5 187.5Q294 185 293 184Q295 185 296 185Q299 186 300 185Q300 183 300 182Q298 184 297 183Q294 182 291 180Q292 181 294 181Q301 182 303 183L302 182Q299 180 297 179Q297 179 300 179L299 178Q294 177 291 175Q296 176 300 175Q296 175 293 174Q296 174 299 173Q299 173 295 172Q298 172 301 170Q296 172 292 171Q294 171 297 169Q294 170 291 170Q295 169 298 166Q296 167 292 168Q294 167 297 164Q295 166 291 166Q293 165 296 162Q293 163 289 164Q291 163 293 161Q290 162 287 163Q289 162 291 160Q289 161 285 162Q287 161 288 160Q289 160 288 158Q288 156 288.0 156.5Q288 157 288 158Q288 159 287 160Q286 160 285.0 160.5Q284 161 283 161Q285 160 287 159Q284 160 280 160Z" fill="#549334" />
<path d="M236 164Q238 164 242 163Q241 164 241.0 166.0Q241 168 240 169Q240 169 243 168H244Q243 169 244 170Q244 170 246 168Q247 168 247 168Q247 169 248.0 170.0Q249 171 249 171Q249 171 249.5 170.0Q250 169 250 168Q251 166 250.0 164.0Q249 162 249 161Q251 160 256.5 154.5Q262 149 266 148Q265 147 264 146Q260 148 253.0 154.5Q246 161 242 161H241Q238 159 236.0 159.5Q234 160 231 159Q234 163 236 164Q233 163 231 163Q230 161 226 160Q222 160 221 158Q221 160 221 161Q220 162 218 161Q219 161 220.5 163.0Q222 165 224 166Q223 166 222 167Q222 167 225 167Q226 168 227 168Q226 169 225 171Q224 167 220 167Q217 167 216 165Q216 167 217 169Q215 168 215 168Q215 171 217 172Q214 173 214 176Q214 176 217.0 175.5Q220 175 221 174Q219 176 219 178Q220 178 220.5 177.5Q221 177 222 177Q221 179 220.0 180.0Q219 181 217.0 181.5Q215 182 215 182Q213 184 212.5 186.5Q212 189 211 190Q213 190 213 190Q213 191 213 194Q213 193 214.5 192.5Q216 192 216 191Q217 192 217 192Q218 190 219 190Q219 192 220 193Q220 191 221 189Q222 187 221 184Q220 182 223 178Q223 181 222 183Q222 185 222 188Q222 187 224 185Q224 185 225 184Q225 184 225 186Q225 186 225 187Q222 189 222 192Q217 195 217 198Q217 198 218 198Q216 201 217 204Q217 203 219 202Q220 203 218.5 204.5Q217 206 217 207Q217 209 218.5 210.5Q220 212 220 213Q221 212 221 211Q221 211 222.0 212.5Q223 214 223 214Q225 212 224 210Q226 211 227 210Q226 209 225.5 207.5Q225 206 224 206Q220 204 221 201Q222 199 223 195Q223 195 224 194Q224 195 225 196Q225 197 224.0 198.0Q223 199 223 199Q222 200 222.5 202.0Q223 204 223 205Q225 204 226 203Q228 208 228 208Q228 207 229 205Q230 207 233 208Q232 207 232.0 203.0Q232 199 230 197Q227 195 227 191Q227 192 228.5 193.5Q230 195 230 196Q231 192 231 191Q232 192 234 192Q234 192 233.0 190.5Q232 189 231.5 187.5Q231 186 229 186Q227 185 225 181Q223 179 224 177Q224 179 225 181Q226 182 227.0 183.0Q228 184 228 185Q229 183 229 181Q229 183 231.5 183.5Q234 184 234 184Q233 183 232 181Q232 179 229.5 177.5Q227 176 226 175Q226 175 226.5 174.0Q227 173 227 172Q227 173 227 174Q228 176 228 176Q231 174 230 171Q229 168 230 166Q231 165 232 165Q233 166 231 168Q230 169 230.0 170.5Q230 172 231 173Q233 175 233 176Q234 175 234 174Q235 175 236 176Q236 175 236.5 174.0Q237 173 237 172Q238 174 239 174Q239 174 239.5 172.5Q240 171 240 171Q240 170 239 169Q239 167 237 167Q237 167 236.5 166.5Q236 166 236 166Q239 166 240 165Q239 165 236 164Z" fill="#549334" />
<path d="M258 154Q262 155 262 153V151Q262 150 258 151Q257 150 256.5 150.0Q256 150 255 151Q250 150 250 151V153Q250 155 255 154Q255 154 256.0 154.0Q257 154 258 154Z" fill="#ce1225" />
<path d="M262 154Q264 154 265 153Q265 151 265 150Q264 151 262 151ZM251 154V151Q249 151 248 150Q248 151 247 153Q248 154 251 154Z" fill="#ce1225" />
<path d="M237 155Q237 155 237.5 154.5Q238 154 238 154Q239 153 237 151Q235 149 231 151H230Q231 150 231 149Q230 147 226.0 147.5Q222 148 220 146Q218 148 216 150Q217 153 223 152Q221 154 224 156Q225 157 229 155Q228 158 233 160Q239 163 256.0 163.0Q273 163 280 160Q284 158 283 155Q287 157 289 156Q291 154 290 152Q295 153 297 150Q295 148 293 146Q291 148 286.5 147.5Q282 147 282 149Q281 150 283 151H281Q278 149 275 151Q273 153 274 154Q275 154 275.5 154.5Q276 155 276 155Q269 157 256.5 157.0Q244 157 237 155Z" fill="#ce1225" />
</g></svg>