<svg xmlns="http://www.w3.org/2000/svg" viewBox="0 0 2048 2048">
<g transform="matrix(1 0 0 -1 0 2048)">
<path d="M504 348H256V377H455Q488 377 504 348ZM0 92H512V64H0ZM256 206H512V178H256ZM256 263H512V235H256ZM0 149H512V121H0ZM57 7Q24 7 8 36H504Q488 7 455 7ZM256 320H512V292H256Z" fill="#b22334" />
<path d="M1 54Q0 60 0 64H512Q512 60 511 54Q511 52 510.5 50.5Q510 49 509 46Q507 40 504 36H8Q5 40 3 46Q2 49 1.5 50.5Q1 52 1 54ZM0 121H512V92H0ZM0 178H256H512V149H0ZM256 235H512V206H256ZM256 292H512V263H256ZM0 320Q0 324 1 330Q0 324 0 320ZM8 348ZM2 334Q2 335 3 338Q2 334 2 334ZM256 320V348H504Q507 344 509 338Q510 336 510 334Q511 332 511 330Q512 324 512 320Z" fill="#eeeeee" />
<path d="M256 377V178H0V320Q0 344 16.5 360.5Q33 377 57 377Z" fill="#3c3b6e" />
<path d="M28 338H39L43 348L46 338H57L48 332L51 321L43 328L34 321L37 332ZM57 310H68L71 320L74 310H85L77 303L80 293L71 299L62 293L66 303ZM114 310H125L128 320L131 310H142L133 303L137 293L128 299L119 293L123 303ZM171 310H182L185 320L188 310H199L190 303L194 293L185 299L176 293L179 303ZM57 253H68L71 263L74 253H85L77 246L80 236L71 242L62 236L66 246ZM114 253H125L128 263L131 253H142L133 246L137 236L128 242L119 236L123 246ZM171 253H182L185 263L188 253H199L190 246L194 236L185 242L176 236L179 246ZM85 338H96L100 348L103 338H114L105 332L108 321L100 328L91 321L94 332ZM142 338H153L156 348L160 338H171L162 332L165 321L156 328L148 321L151 332ZM199 338H210L213 348L217 338H228L219 332L222 321L213 328L205 321L208 332ZM28 281H39L43 292L46 281H57L48 275L51 265L43 271L34 265L37 275ZM91 265 94 275 85 281H96L100 292L103 281H114L105 275L108 265L100 271ZM142 281H153L156 292L160 281H171L162 275L165 265L156 271L148 265L151 275ZM199 281H210L213 292L217 281H228L219 275L222 265L213 271L205 265L208 275ZM28 224H39L43 235L46 224H57L48 218L51 208L43 214L34 208L37 218ZM91 208 94 218 85 224H96L100 235L103 224H114L105 218L108 208L100 214ZM142 224H153L156 235L160 224H171L162 218L165 208L156 214L148 208L151 218ZM199 224H210L213 235L217 224H228L219 218L222 208L213 214L205 208L208 218Z" fill="#ffffff" />
</g></svg>