<svg xmlns="http://www.w3.org/2000/svg" viewBox="0 0 512 512">
<g transform="matrix(1 0 0 -1 0 512)">
<path d="M0 64V121H512V64Q512 40 495.5 23.5Q479 7 455 7H57Q33 7 16.5 23.5Q0 40 0 64Z" fill="#141414" />
<path d="M0 263H512V121H0Z" fill="#eeeeee" />
<path d="M455 377Q479 377 495.5 360.5Q512 344 512 320V263H0V320Q0 344 16.5 360.5Q33 377 57 377Z" fill="#dd2e44" />
<path d="M160 191V174H240V184Q240 189 237 188Q235 187 235 185V177H172V189L216 234L223 226L183 186H224Q226 198 238 198L251 189V156H133Q133 154 132.0 151.5Q131 149 126.0 145.5Q121 142 113 143Q125 151 125 161Q125 165 123.0 169.0Q121 173 119 176L117 178L128 185Q129 179 131 177L136 174H151V181L149 182ZM278 177 284 156H258V233L272 225L268 223Q269 222 268 174H275ZM355 221 364 230V156H306V174Q306 180 312.0 183.5Q318 187 324 184V190L322 191L324 193L333 202V174H340V207L348 216V174H355ZM319 174H324V176Q323 178 320 178Q316 178 316 176Q316 174 318 174ZM336.0 237.0Q338 237 338.0 233.5Q338 230 336.0 230.0Q334 230 334.0 233.5Q334 237 336.0 237.0ZM323 223 330 221Q332 221 334.0 222.5Q336 224 336 225L337 226L343 222L348 228Q349 220 344 220L338 222Q335 219 331 218Q329 218 327.0 219.0Q325 220 324 222ZM393 177 399 156H373V233L387 225L383 223V174H389Z" fill="#007a3c" />
<path d="M148.5 151.0Q152 151 152.0 147.5Q152 144 148.5 144.0Q145 144 145.0 147.5Q145 151 148.5 151.0Z" fill="#007a3c" />
</g></svg>