<svg xmlns="http://www.w3.org/2000/svg" viewBox="0 0 512 512">
<g transform="matrix(1 0 0 -1 0 512)">
<path d="M512 64Q512 40 495.5 23.5Q479 7 455 7H57Q33 7 16.5 23.5Q0 40 0 64V320Q0 344 16.5 360.5Q33 377 57 377H455Q479 377 495.5 360.5Q512 344 512 320Z" fill="#21428e" />
<path d="M228 377H284V7H228Z" fill="#eeeeee" />
<path d="M0 220H512V164H0Z" fill="#eeeeee" />
<path d="M163 260Q164 254 164.0 248.5Q164 243 153.5 238.5Q143 234 125 233Q107 233 96.0 237.0Q85 241 80.0 245.0Q75 249 73 249Q48 250 44 260Q52 257 61.0 256.5Q70 256 71 257Q71 258 71.5 261.5Q72 265 75.0 270.0Q78 275 85 279Q97 285 129 287Q137 288 140 290Q142 291 138 293Q136 293 133 294Q103 298 99 300Q91 305 89.5 313.0Q88 321 100 327Q125 336 126 338Q126 339 124.0 341.0Q122 343 120.5 343.0Q119 343 113.5 342.0Q108 341 103 341Q83 340 81 342Q65 334 52 341L58 342L55 345Q66 340 79 345Q77 350 84.5 353.0Q92 356 101 356Q102 356 106.0 356.0Q110 356 112.5 355.5Q115 355 119.0 354.5Q123 354 126.0 353.0Q129 352 131.5 351.0Q134 350 136.0 347.5Q138 345 138 342Q140 333 135.0 328.5Q130 324 120 320Q107 314 106 313Q105 311 112 309Q113 309 127.5 307.0Q142 305 149.5 301.5Q157 298 156 290Q155 277 127.0 273.0Q99 269 93 264Q106 271 132.5 269.0Q159 267 163 260ZM96 349Q96 349 95 350ZM95 254Q93 252 100 251Q128 244 145 251Q148 252 149 253Q152 261 111 258Q97 256 95 254ZM459 260Q461 254 460.5 248.5Q460 243 449.5 238.5Q439 234 421 233Q404 233 392.5 237.0Q381 241 376.0 245.0Q371 249 369 249Q344 250 340 260Q348 257 357.0 256.5Q366 256 367 257Q367 258 367.5 261.5Q368 265 371.0 270.0Q374 275 382 279Q394 285 425 287Q434 288 436 290Q438 291 434 293Q432 293 429 294Q399 298 396 300Q387 305 386.0 313.0Q385 321 396 327Q422 336 422 338Q422 339 420.5 341.0Q419 343 417.5 343.0Q416 343 410.5 342.0Q405 341 399 341Q380 340 377 342Q362 334 348 341L355 342L351 345Q362 340 375 345Q373 350 380.5 353.0Q388 356 397 356Q398 356 402.5 356.0Q407 356 409.0 355.5Q411 355 415.5 354.5Q420 354 422.5 353.0Q425 352 428.0 351.0Q431 350 432.5 347.5Q434 345 434 342Q436 333 431.5 328.5Q427 324 416 320Q403 314 402 313Q402 311 408 309Q410 309 424.0 307.0Q438 305 445.5 301.5Q453 298 452 290Q452 277 423.5 273.0Q395 269 389 264Q402 271 428.5 269.0Q455 267 459 260ZM393 349Q393 349 391 350ZM391 254Q389 252 396 251Q425 244 441 251Q444 252 445 253Q448 261 407 258Q393 256 391 254ZM163 53Q164 48 164.0 42.0Q164 36 153.5 31.5Q143 27 125 27Q107 26 96.0 30.0Q85 34 80.0 38.0Q75 42 73 42Q48 43 44 53Q52 50 61.0 49.5Q70 49 71 51Q71 51 71.5 55.0Q72 59 75.0 63.5Q78 68 85 72Q97 78 129 81Q137 81 140 83Q142 85 138 86Q136 86 133 87Q103 92 99 94Q91 98 89.5 106.0Q88 114 100 120Q125 129 126 131Q126 132 124.0 134.0Q122 136 120.5 136.0Q119 136 113.5 135.0Q108 134 103 134Q83 133 81 135Q65 127 52 134L58 135L55 139Q66 133 79 139Q77 143 84.5 146.5Q92 150 101 149Q102 149 106.0 149.0Q110 149 112.5 148.5Q115 148 119.0 147.5Q123 147 126.0 146.5Q129 146 131.5 144.5Q134 143 136.0 140.5Q138 138 138 135Q140 126 135.0 122.0Q130 118 120 113Q107 108 106 106Q105 104 112 102Q113 102 127.5 100.0Q142 98 149.5 94.5Q157 91 156 83Q155 71 127.0 67.0Q99 63 93 57Q106 64 132.5 62.0Q159 60 163 53ZM96 142Q96 142 95 143ZM95 47Q93 46 100 44Q128 37 145 44Q148 45 149 47Q150 50 137.5 51.0Q125 52 111.0 51.0Q97 50 95 47ZM459 53Q461 48 460.5 42.0Q460 36 449.5 31.5Q439 27 421 27Q404 26 392.5 30.0Q381 34 376.0 38.0Q371 42 369 42Q344 43 340 53Q348 50 357.0 49.5Q366 49 367 51Q367 51 367.5 55.0Q368 59 371.0 63.5Q374 68 382 72Q394 78 425 81Q434 81 436 83Q438 85 434 86Q432 86 429 87Q399 92 396 94Q387 98 386.0 106.0Q385 114 396 120Q422 129 422 131Q422 132 420.5 134.0Q419 136 417.5 136.0Q416 136 410.5 135.0Q405 134 399 134Q380 133 377 135Q362 127 348 134L355 135L351 139Q362 133 375 139Q373 143 380.5 146.5Q388 150 397 149Q398 149 402.5 149.0Q407 149 409.0 148.5Q411 148 415.5 147.5Q420 147 422.5 146.5Q425 146 428.0 144.5Q431 143 432.5 140.5Q434 138 434 135Q436 126 431.5 122.0Q427 118 416 113Q403 108 402 106Q402 104 408 102Q410 102 424.0 100.0Q438 98 445.5 94.5Q453 91 452 83Q452 71 423.5 67.0Q395 63 389 57Q402 64 428.5 62.0Q455 60 459 53ZM393 142Q393 142 391 143ZM391 47Q389 46 396 44Q425 37 441 44Q444 45 445 47Q446 50 433.5 51.0Q421 52 407.0 51.0Q393 50 391 47Z" fill="#ffffff" />
</g></svg>