<svg xmlns="http://www.w3.org/2000/svg" viewBox="0 0 512 512">
<g transform="matrix(1 0 0 -1 0 512)">
<path d="M512 64Q512 40 495.5 23.5Q479 7 455 7H57Q33 7 16.5 23.5Q0 40 0 64V320Q0 344 16.5 360.5Q33 377 57 377H455Q479 377 495.5 360.5Q512 344 512 320Z" fill="#d01c3a" />
<path d="M57 377H171V7H57Q33 7 16.5 23.5Q0 40 0 64V320Q0 344 16.5 360.5Q33 377 57 377Z" fill="#0020a8" />
<path d="M171 377H341V7H171Z" fill="#fedf00" />
<path d="M328 169Q330 162 323 160Q335 144 318 131Q312 127 284 125Q280 125 277.5 123.5Q275 122 275 121L274 120Q277 117 276.5 114.5Q276 112 273 111L271 109Q270 106 268.0 106.5Q266 107 263 108L261 110L256 105L251 110Q250 109 248.5 108.0Q247 107 244.0 106.5Q241 106 241 109Q240 110 239.0 111.0Q238 112 236.0 115.0Q234 118 238 120Q236 124 228 125Q200 127 194 131Q177 144 189 160Q188 160 187.0 160.5Q186 161 184.5 163.5Q183 166 184 169Q188 175 192 172Q193 173 194.0 174.0Q195 175 196.5 179.0Q198 183 194 188Q193 187 191.5 187.5Q190 188 188.0 189.5Q186 191 190 195Q180 200 180 212Q179 220 186.0 224.5Q193 229 198 225Q198 230 200 230L204 227Q203 234 198 238Q182 253 205 260Q224 266 224 254Q225 252 223 250L234 248Q239 248 234 258Q233 261 234.5 266.0Q236 271 241 271Q244 270 246.0 269.5Q248 269 249.0 268.0Q250 267 251 266H256Q259 266 261 266Q262 267 263.0 268.0Q264 269 266.0 269.5Q268 270 271 271Q276 271 277.5 266.0Q279 261 278 258Q273 248 278 248L289 250Q284 255 290 260Q296 264 307 260Q330 253 314 238Q311 236 310.0 233.5Q309 231 309 229L308 227Q310 230 312 230L314 225Q319 229 326.0 224.0Q333 219 332 211Q332 207 329.5 202.5Q327 198 325 197L322 195Q325 191 324.0 189.5Q323 188 320 188H318Q315 182 315.5 178.5Q316 175 318 174L320 172Q320 175 324 173Q326 172 328 169Z" fill="#c7b37f" />
<path d="M253 197H211V239H253Z" fill="#d01c3a" />
<path d="M227 213V210L216 198L214 200ZM247 230 248 231Q250 233 250.5 234.0Q251 235 249.5 235.5Q248 236 246 236Q246 236 246 233Q246 231 245 230L240 225L238 227Q242 230 243 231Q243 231 242.5 232.5Q242 234 242 235Q242 238 248 238Q253 238 253 233Z" fill="#fedf00" />
<path d="M237 208Q238 202 240 201Q242 201 244.0 205.5Q246 210 249 210Q251 210 252.0 208.0Q253 206 252.0 204.0Q251 202 249 201L248 203Q249 204 249.5 205.0Q250 206 249 207Q248 207 247.0 206.0Q246 205 245 203Q244 199 240 199Q236 199 234 206ZM228 208 231 206Q229 199 225 199Q221 199 220 203Q219 205 218.0 206.0Q217 207 216 207Q214 206 217 203L216 201Q214 202 213.0 204.0Q212 206 213.0 208.0Q214 210 216 210Q219 210 221.0 205.5Q223 201 225 201Z" fill="#ffffff" />
<path d="M233 238 245 222 239 205Q237 207 233 207L227 205L220 222Z" fill="#ffffff" />
<path d="M234 232 243 222 238 209 234 210ZM231 232V210L227 209L223 222ZM211 193H253V150Q243 152 235 150Q211 145 211 167ZM259 197V239H301V197ZM301 193V167Q301 145 277 150H259V193Z" fill="#fedf00" />
<path d="M235 150Q232 149 229 149V193H236V150ZM248 150Q245 151 242 151V193H248ZM223 150Q219 151 216 153V193H223ZM264 239H270V197H264ZM276 239H283V197H276ZM289 239H296V197H289ZM265 186 269 189H274V187Q281 187 287 188Q291 186 292 183Q291 182 292 178Q293 176 292 175Q292 173 289 172V178Q288 175 287 174L284 173Q287 176 286 177Q285 178 282.0 178.5Q279 179 279 178Q279 178 279 177Q278 172 277 172L276 174V179L273 178Q273 177 274.0 176.0Q275 175 275 174Q273 174 272 174Q272 175 270.5 176.0Q269 177 270 178L273 180Q271 181 270.0 182.5Q269 184 265 184ZM265 167 269 170H274V168Q281 168 287 168Q291 167 292 164Q291 163 292 159Q293 157 292 156Q292 154 289 153V159Q288 156 287 154H284Q287 157 286 158Q285 159 282.0 159.5Q279 160 279 159Q279 159 279 158Q278 153 277 153L276 155V160L273 158Q273 158 274.0 157.0Q275 156 275 155Q273 155 272 155Q272 155 270.5 156.5Q269 158 270 159L273 161Q271 162 270.0 163.5Q269 165 265 165Z" fill="#d01c3a" />
<path d="M208 147Q208 144 234 139Q237 139 235 135Q234 134 232 134Q217 135 209 139ZM240 139Q247 138 253 138H264L268 132Q260 131 255 131L242 132ZM271 139Q281 141 287 142Q290 143 296.0 144.5Q302 146 303 147Q305 147 307 144Q307 143 307 143L308 142Q298 137 292 136L271 132Q269 138 271 139Z" fill="#af9167" />
</g></svg>