<svg xmlns="http://www.w3.org/2000/svg" viewBox="0 0 512 512">
<g transform="matrix(1 0 0 -1 0 512)">
<path d="M57 7Q51 7 46 8L512 288V64Q512 40 495.5 23.5Q479 7 455 7ZM455 377Q461 377 466 376L0 96V320Q0 344 16.5 360.5Q33 377 57 377ZM137 220 120 274 164 307H110L93 361L77 307H23L67 274L50 220L93 253Z" fill="#007fff" />
<path d="M110 307H164L120 274L137 220L93 253L50 220L67 274L23 307H77L93 361ZM46 8Q36 10 27 16L512 307V288ZM466 376Q476 374 485 368L0 77V96Z" fill="#f7d618" />
<path d="M485 368Q512 351 512 320V307L27 16Q0 33 0 64V77Z" fill="#ce1021" />
</g></svg>