<svg xmlns="http://www.w3.org/2000/svg" viewBox="0 0 512 512">
<g transform="matrix(1 0 0 -1 0 512)">
<path d="M512 64Q512 40 495.5 23.5Q479 7 455 7H57Q33 7 16.5 23.5Q0 40 0 64V320Q0 344 16.5 360.5Q33 377 57 377H455Q479 377 495.5 360.5Q512 344 512 320Z" fill="#244aa5" />
<path d="M242 253H245Q246 252 250 248Q250 246 252 245Q251 245 248 245Q248 243 247 243Q247 242 250 238Q253 238 254 237H257V233Q259 234 260 235Q264 235 266 235Q266 234 269 233L270 230Q272 234 274 234Q274 233 276 231Q278 231 278 230H280Q280 223 280 222H282Q282 219 282 216Q285 214 286 216H288Q289 214 290 213Q290 212 290.0 210.5Q290 209 290 208Q292 207 292 204Q291 202 292 201Q294 200 294 198Q295 198 295 199Q295 200 296 200H300Q301 198 302 197L303 196Q305 196 306 195H308Q309 194 312 193L310 192Q310 192 310.0 187.5Q310 183 310 182H309Q309 179 308 177H310V176H311Q312 177 312 177H314V176Q318 175 318 175Q322 175 329 175V173Q329 172 330 171Q333 171 334 171V169Q336 167 338 167V170H340V171Q344 171 344 169L346 172Q347 171 349 170V168Q350 168 350 164L348 162Q348 158 348 156H345V149Q344 149 341 146V142Q341 141 340.0 140.5Q339 140 339 140V138Q337 136 335 136Q334 135 333 134Q333 134 332 133L334 132Q334 127 334 124Q332 123 328 123L326 120Q324 120 323 118Q323 116 323 114Q323 114 325.0 112.0Q327 110 329 110Q329 105 327 104Q326 104 324 104Q323 103 320 103Q318 103 318 103V105H316Q315 104 314 103Q312 103 311 102Q310 102 306 102V100H303Q302 99 301 97L299 95Q299 92 298 91Q299 86 299 86V84Q298 84 289 84V87Q289 87 288 93H286V95Q284 95 284 96H282V99H276Q275 99 275 97Q275 96 274 95H271Q270 94 269 93Q265 93 265 93Q264 92 263 91V89Q260 89 260 88H257Q256 86 255 85H250Q250 85 245 84Q243 82 242 81Q242 80 242 78H240V74Q240 74 238 72Q238 68 238 63L240 61V53Q240 53 239 52H237V50L235 48Q231 48 228 48Q227 47 225 44H221Q220 46 220 47Q220 49 220 56Q223 59 223 60V64H222Q222 65 222.0 70.0Q222 75 222 76H220Q219 79 218 79Q218 85 218 89L216 90Q215 93 214 93V96Q213 97 213.0 98.0Q213 99 215 100Q214 100 212.5 101.5Q211 103 211 103V105Q210 105 208.5 105.5Q207 106 206 107Q206 108 204 108L203 109Q201 109 200 110H198Q197 116 197 117Q196 118 195 119Q194 119 191.0 119.0Q188 119 186 119Q185 119 184.0 120.0Q183 121 182 122Q182 122 182.0 125.0Q182 128 182 128Q182 129 180 132V134H178V136Q178 136 177 140H174V142L172 144H170V146Q168 147 168 149H171Q171 154 171 156Q169 159 168 160L167 161H165L164 163V166Q163 166 162 170Q161 170 163 176Q163 176 164 177Q165 178 166 180H169L171 177L174 178V175Q184 175 186 175Q186 178 187 178Q187 184 187 185Q191 185 191 186H193V190Q198 190 199 190L200 191Q202 191 202 189Q203 191 205 192Q207 193 208 194Q209 195 211 196Q212 196 212 196L211 198Q211 200 208 202Q208 204 208 207Q210 208 211 210H214Q216 212 220 215V217Q220 217 220.5 217.0Q221 217 222 217Q222 216 224 216Q225 217 226 218V219Q227 220 227 223Q227 225 227 225Q229 228 229 228Q229 229 227 231Q227 233 223 238H221Q220 241 220 241Q220 243 220 246Q220 246 224.5 246.0Q229 246 229 246L230 247Q230 247 231 248Q233 249 234 250Q235 250 238 250Q238 250 238.5 251.0Q239 252 240 252H242Q242 252 242 253Z" fill="#d0a650" />
<path d="M399 317 404 300H421L407 290L413 273L399 284L384 273L390 290L376 300H393ZM342 332 347 316H364L350 306L356 289L342 299L327 289L333 305L319 316H336ZM285 340 290 323H307L293 313L299 296L285 307L270 296L276 313L262 323H279ZM113 317 119 300H136L122 290L128 274L113 284L99 274L105 290L91 300H108ZM170 332 176 316H193L179 305L185 289L170 299L156 289L162 306L148 316H165ZM227 340 233 323H250L236 313L242 296L227 307L213 296L219 313L205 323H222Z" fill="#ededed" />
</g></svg>