<svg xmlns="http://www.w3.org/2000/svg" viewBox="0 0 2048 2048">
<g transform="matrix(1 0 0 -1 0 2048)">
<path d="M455 377Q479 377 495.5 360.5Q512 344 512 320V277H0V320Q0 344 16.5 360.5Q33 377 57 377Z" fill="#141414" />
<path d="M0 64V107H512V64Q512 40 495.5 23.5Q479 7 455 7H57Q33 7 16.5 23.5Q0 40 0 64Z" fill="#078930" />
<path d="M0 277H512V107H0Z" fill="#da121a" />
<path d="M0 277H512V249H0ZM0 135H512V107H0Z" fill="#eeeeee" />
<path d="M19 363 249 192 19 21Q0 38 0 60V316Q0 346 19 363Z" fill="#0f47af" />
<path d="M117 193 143 158 102 172 76 137V180L36 193L76 206V249L102 215L143 228Z" fill="#fcdd09" />
</g></svg>