<svg xmlns="http://www.w3.org/2000/svg" viewBox="0 0 2048 2048">
<g transform="matrix(1 0 0 -1 0 2048)">
<path d="M512 64Q512 40 495.5 23.5Q479 7 455 7H57Q33 7 16.5 23.5Q0 40 0 64V320Q0 344 16.5 360.5Q33 377 57 377H455Q479 377 495.5 360.5Q512 344 512 320Z" fill="#eeeeee" />
<path d="M185 95 180 94H173L150 133Q149 132 146.5 130.5Q144 129 137.5 127.5Q131 126 127 132Q129 131 136.0 135.5Q143 140 148 137Q146 139 132.5 139.0Q119 139 117 149Q122 146 130.5 148.0Q139 150 144 147Q139 151 128.5 151.5Q118 152 115 160Q118 159 126.5 161.5Q135 164 138 160Q136 164 131.0 165.0Q126 166 121.5 165.0Q117 164 113.0 167.0Q109 170 108 177Q112 175 120.5 175.5Q129 176 131 174Q127 182 117.5 183.0Q108 184 103 199Q106 196 114.0 194.5Q122 193 126 186Q123 197 112.0 200.0Q101 203 98 217Q104 219 111.5 211.0Q119 203 121 202Q119 209 115.0 214.5Q111 220 110.0 222.5Q109 225 112 237Q119 233 121.0 228.0Q123 223 123.5 214.5Q124 206 125 201Q127 204 126.5 209.5Q126 215 127 218Q131 225 130 227Q136 218 135.5 212.0Q135 206 131.5 200.0Q128 194 129 192L132 184Q131 193 134 198Q135 199 138.5 203.0Q142 207 141 209Q148 202 140 192Q137 189 136.5 182.5Q136 176 137 173Q137 179 141.5 184.5Q146 190 145 196Q150 195 151.0 187.5Q152 180 147 176Q144 174 143.5 169.5Q143 165 144 161L145 157Q146 166 149 170Q155 177 154 183Q158 180 158.5 173.5Q159 167 156 163Q156 162 154.0 159.5Q152 157 151.5 155.5Q151 154 151.0 151.5Q151 149 153 146Q153 155 158.0 160.0Q163 165 163 169Q167 165 166.0 159.5Q165 154 162 151L159 140Q163 145 166 148L171 156Q174 137 163 136Q162 131 170.5 116.5Q179 102 185 95Z" fill="#379543" />
<path d="M389 176 421 198 403 162 400 170 356 116 353 107V106L358 98L348 62L340 72L329 66L333 79L321 66L319 79H306L332 107H334L337 113L345 116L352 129L365 183H359L377 217V177L371 182L364 151L387 195L381 196L406 225L397 186L393 193L362 133L395 173ZM52 234Q51 234 50.0 233.0Q49 232 47.5 230.0Q46 228 47 224L63 177Q75 217 77 224Q79 228 77.0 230.0Q75 232 73 233L71 234H98Q93 232 91 226Q90 225 85.5 211.0Q81 197 76.5 183.0Q72 169 71.0 165.0Q70 161 71.5 158.5Q73 156 75 155H76H49Q50 155 51.0 155.5Q52 156 53.5 158.5Q55 161 54 165Q53 170 44.0 196.0Q35 222 33 226Q32 229 30.0 231.0Q28 233 26 233L25 234ZM481 234Q481 233 480.0 232.5Q479 232 477.0 230.0Q475 228 475 225V164Q475 161 477.0 159.0Q479 157 481 156L482 155H455Q461 157 461 163Q461 165 461.0 192.5Q461 220 461 224Q461 227 460.0 229.5Q459 232 458 233L456 234Z" fill="#0081c7" />
<path d="M469 327Q475 328 475 322Q476 316 468 312Q471 310 468.5 305.0Q466 300 460 299Q462 297 461.0 294.5Q460 292 455.5 289.0Q451 286 443 284Q445 282 443.5 278.5Q442 275 436.5 271.5Q431 268 422 267Q423 262 418.0 258.0Q413 254 403 253Q404 251 403.0 248.5Q402 246 397.5 243.5Q393 241 387 241Q391 234 377 230Q371 229 364 229Q368 227 366.5 222.5Q365 218 360 217Q362 213 358.0 208.5Q354 204 348 205Q348 202 344.5 200.5Q341 199 337 202Q337 198 331.0 195.5Q325 193 323 198Q316 191 308 198Q308 197 307 195Q311 185 320 178Q332 169 331 157Q331 147 337 145L334 144Q339 137 342 136Q342 136 352.0 136.0Q362 136 362 135Q365 132 367.0 126.5Q369 121 366 119Q364 118 362.0 115.0Q360 112 359 111Q358 110 352.0 111.5Q346 113 344 115Q342 116 341.0 122.0Q340 128 339 128L318 138V134Q314 138 312 139Q310 140 309.5 141.5Q309 143 308.0 145.5Q307 148 307 148Q301 158 283 162Q282 162 282.5 161.0Q283 160 284 160Q288 159 290.0 157.0Q292 155 292 153V151Q303 143 311 131Q316 120 309 119Q310 115 307.5 112.5Q305 110 302 111Q302 107 300.0 105.0Q298 103 296 104Q296 100 294.0 97.5Q292 95 289 96Q289 92 286.0 90.0Q283 88 280 90Q280 83 275.5 81.0Q271 79 266 83Q265 75 260.5 73.0Q256 71 251.5 74.5Q247 78 246 84Q241 79 237.5 81.5Q234 84 234 90Q225 88 224 96Q222 96 220.0 98.0Q218 100 217 103Q211 103 211 111Q208 110 206.0 112.0Q204 114 204 118Q198 117 201 126Q203 132 210.5 141.5Q218 151 222 151Q222 154 224.0 157.0Q226 160 229 159L230 162Q212 158 206 148Q206 148 205.0 145.5Q204 143 203.5 141.5Q203 140 201 139L196 134L195 138Q176 129 174 128Q173 128 172.0 122.0Q171 116 169 115Q167 113 161.0 111.5Q155 110 154 111Q154 112 151.5 115.0Q149 118 147 119Q145 121 147.0 126.5Q149 132 151 135Q151 136 161.0 136.0Q171 136 171 136L179 144L176 145Q182 147 182 157Q181 169 193 177Q202 185 206 195Q205 197 205 198Q197 191 191 198Q188 193 182.0 195.5Q176 198 176 202Q172 199 169.0 200.5Q166 202 165 205Q160 204 156.0 208.5Q152 213 153 217Q148 218 146.5 222.5Q145 227 149 229Q125 229 126 238Q126 239 127 241Q120 241 115.5 243.5Q111 246 110.5 248.5Q110 251 111 253Q100 254 95.0 258.0Q90 262 92 267Q83 268 77.5 271.5Q72 275 70.5 278.5Q69 282 70 284Q62 286 57.5 289.0Q53 292 52.5 294.5Q52 297 53 299Q47 300 45.0 305.0Q43 310 45 312Q34 317 39 325Q41 328 44 327Q46 327 55.0 323.5Q64 320 80.5 315.0Q97 310 115 306Q118 309 129 304Q133 302 154.0 295.5Q175 289 179 288Q195 282 193 271Q192 266 189.5 262.5Q187 259 185.5 257.5Q184 256 185.5 254.5Q187 253 193.5 255.0Q200 257 203 255L223 257L229 268Q225 267 223 271Q231 272 235 279L229 281Q238 284 239 289Q241 296 243 298Q243 300 242.5 301.5Q242 303 240.0 305.0Q238 307 236 306Q224 305 223 302Q221 306 223.0 310.0Q225 314 229 315L237 316L241 320Q246 327 257 326Q266 326 272 315Q273 313 275.5 302.5Q278 292 282 288H274Q280 279 288 274L282 271Q288 266 290 259Q290 258 299.0 256.0Q308 254 310 255Q313 257 320.0 255.0Q327 253 328.0 254.5Q329 256 328.0 257.5Q327 259 324.5 262.5Q322 266 321 271Q319 282 334 288Q338 289 359.5 295.5Q381 302 385 304Q395 309 399 306Q417 310 433.0 315.0Q449 320 458.0 323.5Q467 327 469 327Z" fill="#f4c63d" />
<path d="M196 228H317Q317 208 308 190Q304 181 298 173L289 163Q285 158 279 153L270 146Q266 143 261 140Q258 138 257 137Q255 138 252 140Q247 143 242 147L233 153Q228 158 224 163L215 173Q209 181 205 190Q197 208 196 228Z" fill="#ffffff" />
<path d="M205 228H308V190Q304 181 298 173V228H289V163Q285 158 279 153V228H270V146Q266 143 261 140V228H252V140Q247 143 242 147V228H233V153Q228 158 224 163V228H215V173Q209 181 205 190Z" fill="#a70033" />
<path d="M257 270Q272 262 288 262Q295 262 302.5 264.0Q310 266 313 268L317 270V228Q317 228 317 224H196Q196 225 196.0 226.5Q196 228 196 228V270Q209 262 226 262Q233 262 240.5 264.0Q248 266 252 268Z" fill="#172668" />
</g></svg>