<svg xmlns="http://www.w3.org/2000/svg" viewBox="0 0 512 512">
<g transform="matrix(1 0 0 -1 0 512)">
<path d="M0 263H512V121H0Z" fill="#eeeeee" />
<path d="M455 377Q479 377 495.5 360.5Q512 344 512 320V263H0V320Q0 344 16.5 360.5Q33 377 57 377ZM215.5 151.5Q199 168 199.0 192.0Q199 216 215.5 232.5Q232 249 256.0 249.0Q280 249 296.5 232.5Q313 216 313.0 192.0Q313 168 296.5 151.5Q280 135 256.0 135.0Q232 135 215.5 151.5Z" fill="#e05206" />
<path d="M455 7H57Q33 7 16.5 23.5Q0 40 0 64V121H512V64Q512 40 495.5 23.5Q479 7 455 7Z" fill="#0db02b" />
</g></svg>