<svg xmlns="http://www.w3.org/2000/svg" viewBox="0 0 512 512">
<g transform="matrix(1 0 0 -1 0 512)">
<path d="M455 377Q479 377 495.5 360.5Q512 344 512 320V64Q512 40 495.5 23.5Q479 7 455 7H57Q33 7 16.5 23.5Q0 40 0 64V320Q0 337 9 351H48V376Q52 377 57 377Z" fill="#ffe150" />
<path d="M270 192H0V320Q0 335 8 348L9 351H48V376Q52 377 57 377H270Z" fill="#00247d" />
<path d="M270 377V348L230 320H270V249H230L270 221V192H237L171 238V192H100V229L47 192H0V210L55 249H0V320H54L9 351Q11 354 14 357L67 320H91L25 367Q35 374 48 376L100 340V377H171V330L237 377Z" fill="#eeeeee" />
<path d="M156 377V306H270V263H156V192H114V263H0V306H114V377Z" fill="#cf1b2b" />
<path d="M270 377V374L193 320H171V322L249 377ZM25 367 91 320H67L14 357Q19 363 25 367ZM92 249H100V237L35 192H10ZM270 195 193 249H218L270 212Z" fill="#cf1b2b" />
<path d="M110.0 259.5Q100 270 100.0 284.5Q100 299 110.0 309.5Q120 320 135.0 320.0Q150 320 160.5 309.5Q171 299 171.0 284.5Q171 270 160.5 259.5Q150 249 135.0 249.0Q120 249 110.0 259.5Z" fill="#004a77" />
<path d="M135 320 144 298 170 297 149 280 156 255 135 270 114 255 121 280 101 297 127 298ZM54 299 58 289H69L60 282L63 272L54 278L46 272L49 282L40 289H51ZM216 299 219 289H230L221 282L225 272L216 278L207 272L210 282L202 289H212ZM135 365 139 355H149L141 349L144 338L135 344L126 338L129 349L121 355H132ZM135 231 139 221 149 220 141 214 144 204 135 210 126 204 129 214 121 220 132 221Z" fill="#ffe150" />
</g></svg>