<svg xmlns="http://www.w3.org/2000/svg" viewBox="0 0 2048 2048">
<g transform="matrix(1 0 0 -1 0 2048)">
<path d="M512 64Q512 40 495.5 23.5Q479 7 455 7H57Q33 7 16.5 23.5Q0 40 0 64V320Q0 344 16.5 360.5Q33 377 57 377H455Q479 377 495.5 360.5Q512 344 512 320Z" fill="#141414" />
<path d="M455 377Q479 377 495.5 360.5Q512 344 512 320V64Q512 40 495.5 23.5Q479 7 455 7H341V377Z" fill="#007a36" />
<path d="M171 377H341V7H171Z" fill="#d32011" />
<path d="M314 110Q313 107 310.5 108.0Q308 109 309 112Q309 112 311.0 114.0Q313 116 313.5 116.0Q314 116 314.0 113.5Q314 111 314 110ZM314 109Q312 108 312.0 106.0Q312 104 315 104Q321 105 320 107Q320 108 317.5 108.5Q315 109 314 109ZM319 114Q318 112 316.0 113.0Q314 114 315 116Q316 117 317.5 118.5Q319 120 319.5 120.0Q320 120 320.0 117.5Q320 115 319 114ZM320 113Q318 113 318.0 111.0Q318 109 321 109Q326 110 326 112Q326 112 323.5 113.0Q321 114 320 113ZM294 106Q294 103 291.0 103.5Q288 104 289 107Q289 108 290.5 110.5Q292 113 292.5 113.0Q293 113 293.5 110.0Q294 107 294 106ZM295 105Q292 104 293.0 101.0Q294 98 297 99Q298 100 300.5 102.0Q303 104 303.0 104.5Q303 105 300.0 105.0Q297 105 295 105ZM299 112Q299 109 296.5 109.5Q294 110 295 112Q295 113 296.5 115.5Q298 118 298.0 118.0Q298 118 298.5 115.0Q299 112 299 112ZM300 111Q298 110 298.5 107.5Q299 105 302 106Q303 107 305.0 108.5Q307 110 306.5 110.5Q306 111 303.5 111.0Q301 111 300 111ZM304 117Q304 115 301.5 115.5Q299 116 300 118Q300 119 301.5 121.0Q303 123 303.0 123.0Q303 123 303.5 120.5Q304 118 304 117ZM305 116Q303 116 303.5 113.5Q304 111 307 112Q307 113 309.0 114.5Q311 116 311.0 116.0Q311 116 308.5 116.5Q306 117 305 116ZM308 122Q308 120 306.0 120.5Q304 121 304 123Q304 124 305.5 125.5Q307 127 307.0 127.0Q307 127 307.5 125.0Q308 123 308 122ZM309 121Q310 122 312.0 121.5Q314 121 314.0 121.0Q314 121 312.5 119.5Q311 118 311 118Q308 117 307.5 119.0Q307 121 309 121ZM308 96Q305 94 303.0 96.0Q301 98 304 101Q305 101 308.0 102.0Q311 103 311.0 103.0Q311 103 310.0 100.0Q309 97 308 96ZM308 95Q309 95 311.5 93.0Q314 91 314.0 90.5Q314 90 311.0 89.5Q308 89 307 89Q303 90 304.0 93.0Q305 96 308 95ZM315 98Q313 96 311.5 98.0Q310 100 312 102Q313 102 315.5 103.0Q318 104 318.0 103.5Q318 103 317.0 101.0Q316 99 315 98ZM316 97Q313 98 312.5 95.5Q312 93 314 92Q315 92 317.5 92.5Q320 93 320.0 93.0Q320 93 318.0 94.5Q316 96 316 97ZM323 100Q321 98 319.5 99.5Q318 101 320 103Q320 104 322.5 104.5Q325 105 325.0 105.0Q325 105 324.0 102.5Q323 100 323 100ZM323 98Q320 99 319.5 97.0Q319 95 322 94Q322 94 324.5 94.5Q327 95 327.0 95.0Q327 95 325.5 96.5Q324 98 323 98ZM329 101Q327 100 325.5 101.0Q324 102 326 104Q327 105 329.0 105.5Q331 106 331.0 106.0Q331 106 330.0 104.0Q329 102 329 101ZM329 100Q327 101 326.5 99.0Q326 97 328 96Q329 96 331.0 96.0Q333 96 333.0 96.5Q333 97 331.5 98.5Q330 100 329 100ZM334 139Q334 136 331.5 135.5Q329 135 328 139Q328 140 329.0 143.0Q330 146 330.5 146.0Q331 146 332.5 143.0Q334 140 334 139ZM336 139Q333 137 334.5 134.5Q336 132 339 134Q340 135 341.5 137.5Q343 140 342.5 140.5Q342 141 339.0 140.0Q336 139 336 139ZM337 146Q337 144 335.0 143.5Q333 143 332 146Q332 151 334.0 151.5Q336 152 337 146ZM338 146Q336 144 337.5 142.5Q339 141 341 142Q342 143 343.0 145.0Q344 147 344.0 147.5Q344 148 341.5 147.0Q339 146 338 146ZM340 153Q340 151 338.0 150.5Q336 150 336 153Q336 154 336.5 156.0Q337 158 337 158Q339 159 340 153ZM341 153Q339 151 340.5 149.5Q342 148 344 149Q345 150 346.0 152.0Q347 154 347.0 154.5Q347 155 344.5 154.0Q342 153 341 153ZM343 159Q343 157 341.0 156.5Q339 156 339 159Q338 159 339.0 161.5Q340 164 340.0 164.0Q340 164 341.0 162.0Q342 160 343 159ZM344 159Q342 157 343.0 155.5Q344 154 346 156Q347 156 348.0 158.0Q349 160 348.5 160.0Q348 160 346.0 159.5Q344 159 344 159ZM350 135Q348 132 345.5 133.5Q343 135 345 137Q345 138 347.5 140.0Q350 142 350.5 142.0Q351 142 350.5 138.5Q350 135 350 135ZM351 133Q352 133 354.5 132.0Q357 131 357.0 130.5Q357 130 354.5 128.5Q352 127 351 127Q347 127 347.0 130.0Q347 133 351 133ZM356 138Q355 136 353.0 137.0Q351 138 352 141Q353 141 355.0 143.0Q357 145 357.0 144.5Q357 144 357.0 141.5Q357 139 356 138ZM357 137Q354 137 354.0 134.5Q354 132 357 132Q363 132 363.0 134.5Q363 137 357 137ZM363 142Q362 140 360.0 141.0Q358 142 359 144Q359 145 361.0 146.5Q363 148 363.5 148.0Q364 148 363.5 145.5Q363 143 363 142ZM364 141Q361 141 361.0 139.0Q361 137 364 137Q369 137 369.0 139.0Q369 141 364 141ZM368 145Q367 143 365.5 144.0Q364 145 365 147Q365 148 367.0 149.5Q369 151 369.0 150.5Q369 150 369.0 148.0Q369 146 368 145ZM369 144Q367 144 367.0 142.0Q367 140 369 140Q374 140 374.0 142.0Q374 144 369 144ZM354 152Q354 149 351.0 149.0Q348 149 348 152Q348 153 349.5 156.0Q351 159 351.5 159.0Q352 159 353.0 156.0Q354 153 354 152ZM356 151Q353 150 354.0 147.5Q355 145 358 146Q359 147 361.0 149.5Q363 152 363.0 152.0Q363 152 359.5 152.0Q356 152 356 151ZM358 159Q358 156 355.5 156.0Q353 156 353 159Q354 165 356.0 164.5Q358 164 358 159ZM359 158Q357 157 358.0 154.5Q359 152 362 154Q362 154 364.0 156.0Q366 158 365.5 158.5Q365 159 362.5 158.5Q360 158 359 158ZM362 165Q362 163 360.0 163.0Q358 163 358 165Q358 170 360.0 170.0Q362 170 362 165ZM363 164Q364 165 366.5 165.0Q369 165 369.0 165.0Q369 165 367.5 163.0Q366 161 365 161Q363 159 362.0 161.0Q361 163 363 164ZM351 189Q352 186 349.5 184.5Q347 183 346 186Q345 188 345.0 191.0Q345 194 345.5 194.0Q346 194 348.5 192.0Q351 190 351 189ZM353 189Q353 189 356.0 191.0Q359 193 359.0 192.5Q359 192 358.5 189.0Q358 186 357 185Q355 182 353.0 184.0Q351 186 353 189ZM352 196Q353 194 351.0 193.0Q349 192 348 194Q347 195 347.0 198.0Q347 201 347.5 201.0Q348 201 350.0 199.0Q352 197 352 196ZM354 196Q354 197 356.5 198.5Q359 200 359.0 199.5Q359 199 358.5 196.5Q358 194 357 193Q356 191 354.0 192.5Q352 194 354 196ZM353 204Q354 201 352.0 200.5Q350 200 349 202Q349 203 349.0 205.5Q349 208 349.0 208.0Q349 208 351.0 206.0Q353 204 353 204ZM354 204Q353 202 354.5 200.5Q356 199 358 201Q358 202 358.5 204.0Q359 206 359.0 206.5Q359 207 357.0 205.5Q355 204 354 204ZM354 210Q355 208 353.0 207.0Q351 206 350 209Q350 209 350.0 211.5Q350 214 350 214Q352 215 354 210ZM355 210Q355 211 357.0 212.0Q359 213 359.5 212.5Q360 212 359.5 210.0Q359 208 358 208Q357 206 355.5 207.0Q354 208 355 210ZM368 188Q367 185 364.0 186.0Q361 187 362 190Q362 191 364.0 193.5Q366 196 366.5 196.0Q367 196 367.5 192.5Q368 189 368 188ZM369 187Q370 188 373.0 187.5Q376 187 376.0 186.5Q376 186 373.5 184.0Q371 182 370 182Q367 181 366.5 183.5Q366 186 369 187ZM373 194Q372 191 370.0 191.5Q368 192 368 195Q369 196 370.5 198.0Q372 200 372.0 200.0Q372 200 372.5 197.5Q373 195 373 194ZM374 193Q375 193 377.5 193.0Q380 193 380.0 192.5Q380 192 378.0 190.5Q376 189 375 188Q373 188 372.0 190.0Q371 192 374 193ZM378 199Q378 197 375.5 197.5Q373 198 374 200Q374 201 375.5 203.0Q377 205 377.5 205.0Q378 205 378.0 202.5Q378 200 378 199ZM379 198Q377 198 377.5 195.5Q378 193 380 194Q381 194 383.0 195.5Q385 197 385.0 197.5Q385 198 382.5 198.5Q380 199 379 198ZM383 204Q382 202 380.0 202.5Q378 203 379 205Q379 206 380.5 207.5Q382 209 382.0 209.0Q382 209 382.5 207.0Q383 205 383 204ZM383 203Q381 202 381.5 200.5Q382 199 385 199Q385 199 387.0 200.5Q389 202 389.0 202.5Q389 203 386.5 203.0Q384 203 383 203ZM367 207Q368 203 365.0 202.5Q362 202 361 205Q361 206 361.5 209.0Q362 212 362.5 212.0Q363 212 365.0 210.0Q367 208 367 207ZM369 206Q366 204 368.0 202.0Q370 200 373 202Q373 203 374.5 206.0Q376 209 375.5 209.0Q375 209 372.0 208.0Q369 207 369 206ZM369 214Q370 211 367.5 210.5Q365 210 364 213Q364 214 364.5 216.5Q365 219 365.5 219.0Q366 219 367.5 217.0Q369 215 369 214ZM370 214Q371 214 373.5 215.0Q376 216 376.0 216.0Q376 216 375.0 213.5Q374 211 374 210Q372 208 370.0 210.0Q368 212 370 214ZM371 221Q372 219 369.5 218.5Q367 218 367 220Q367 221 367.0 223.5Q367 226 367.5 226.0Q368 226 369.5 224.0Q371 222 371 221ZM372 221Q373 221 375.0 222.0Q377 223 377.5 223.0Q378 223 377.0 220.5Q376 218 375 218Q374 216 372.0 217.5Q370 219 372 221ZM353 237Q356 236 355.0 233.5Q354 231 351 232Q350 232 348.0 234.5Q346 237 346.5 237.0Q347 237 349.5 237.0Q352 237 353 237ZM354 238Q354 239 355.0 242.0Q356 245 356.0 245.0Q356 245 358.0 242.5Q360 240 360 239Q360 236 357.5 235.5Q355 235 354 238ZM349 243Q351 242 350.5 240.0Q350 238 347 239Q346 239 344.5 240.5Q343 242 343.0 242.5Q343 243 345.5 243.0Q348 243 349 243ZM350 243Q350 244 350.5 246.5Q351 249 351 249Q353 249 354 244Q355 242 352.5 241.5Q350 241 350 243ZM345 248Q347 247 346.0 245.0Q345 243 343 244Q342 245 340.5 246.5Q339 248 339.0 248.0Q339 248 341.5 248.0Q344 248 345 248ZM345 249Q345 250 345.5 252.0Q346 254 347 254Q349 254 350 249Q350 247 348.0 246.5Q346 246 345 249ZM341 253Q343 252 342.0 250.5Q341 249 340 249Q339 250 337.5 251.0Q336 252 336.0 252.5Q336 253 338.0 253.0Q340 253 341 253ZM342 253Q342 254 342.5 256.0Q343 258 343 258Q345 258 345 254Q346 252 344.0 251.5Q342 251 342 253ZM364 248Q366 245 363.5 243.5Q361 242 360 245Q359 246 358.5 248.5Q358 251 358.5 251.5Q359 252 361.5 250.5Q364 249 364 248ZM366 248Q366 249 368.5 250.5Q371 252 371.0 252.0Q371 252 371.0 249.0Q371 246 370 245Q369 243 366.5 244.0Q364 245 366 248ZM364 255Q365 253 363.5 251.5Q362 250 360 252Q360 253 359.5 255.5Q359 258 359.5 258.0Q360 258 362.0 256.5Q364 255 364 255ZM365 255Q366 256 367.5 257.5Q369 259 369.5 258.5Q370 258 370.0 256.0Q370 254 369 253Q368 251 366.0 252.0Q364 253 365 255ZM364 262Q365 260 363.5 259.0Q362 258 360 260Q360 260 359.5 262.5Q359 265 359.5 265.0Q360 265 361.5 263.5Q363 262 364 262ZM365 262Q365 262 367.0 263.5Q369 265 369.0 265.0Q369 265 369.0 263.0Q369 261 369 260Q368 258 366.0 259.0Q364 260 365 262ZM364 268Q365 266 363.5 265.0Q362 264 361 266Q360 266 360.0 268.0Q360 270 360.0 270.5Q360 271 361.5 269.5Q363 268 364 268ZM365 268Q365 268 366.5 269.5Q368 271 368.5 271.0Q369 271 368.5 269.0Q368 267 368 266Q367 264 365.5 265.0Q364 266 365 268ZM352 259Q354 258 353.0 255.5Q352 253 349 254Q348 255 346.5 257.5Q345 260 345.0 260.0Q345 260 348.0 260.0Q351 260 352 259ZM353 260Q353 266 355.5 266.0Q358 266 358 260Q358 257 355.5 257.0Q353 257 353 260ZM348 265Q350 264 349.0 262.0Q348 260 346 261Q345 262 343.5 264.0Q342 266 342.5 266.0Q343 266 345.5 266.0Q348 266 348 265ZM349 266Q349 271 351.5 271.0Q354 271 354 266Q354 263 351.5 263.0Q349 263 349 266ZM345 271Q347 270 346.0 268.0Q345 266 343 268Q342 268 340.5 270.0Q339 272 339.5 272.0Q340 272 342.0 272.0Q344 272 345 271ZM346 272Q346 277 348.0 277.0Q350 277 350 272Q350 270 348.0 269.5Q346 269 346 272Z" fill="#ffffff" />
<path d="M362 119Q358 111 349 111Q336 110 320 123Q317 126 312.5 127.0Q308 128 305 128H302Q317 143 343 125Q347 123 352.0 121.5Q357 120 359 119Z" fill="#ffffff" />
<path d="M185 275 173 287Q207 322 256.5 322.0Q306 322 341 287L328 275Q299 304 257.0 304.0Q215 304 185 275Z" fill="#ff5b57" />
<path d="M207 138V147H304V138ZM304 227 297 217H296V203H286V217H228V203H218V217H217L210 227L218 228V247Q218 247 219 248H218Q216 248 216.0 250.5Q216 253 218 253H228Q230 253 230.0 250.5Q230 248 228 248Q228 247 228 247V229L232 230L239 237Q237 241 237 245Q237 251 243.0 256.0Q249 261 257.5 261.0Q266 261 272.0 256.0Q278 251 278 245Q278 241 275 237L283 230L286 229V247Q286 247 287 248H286Q284 248 284.0 250.5Q284 253 286 253H296Q298 253 298.0 250.5Q298 248 296 248Q296 247 296 247V228Z" fill="#ffffff" />
<path d="M284 258Q284 260 287 261L291 267L296 261Q298 260 298 258Q298 254 291.0 254.0Q284 254 284 258ZM249 267Q249 269 252 270L256 277L261 270Q264 269 264 267Q264 263 256.5 263.0Q249 263 249 267ZM216 258Q216 260 219 261L223 267L228 261Q230 260 230 258Q230 254 223.0 254.0Q216 254 216 258ZM303 151H273V159L260 165L234 166L235 197L255 196L282 159H286V172H296V159Z" fill="#ffffff" />
<path d="M228 172V159H242V151H212L218 158V172ZM200 223 219 195H228V180H218V189L211 198Q197 191 199 183Q204 169 190 162Q193 168 184 182Q180 189 188 200Q186 205 188.0 209.5Q190 214 194 217L197 220ZM326 200Q334 189 330 182Q322 168 324 162Q311 169 315 183Q317 191 303 198L296 189V180H286V195H295L314 223L317 220Q319 219 321.0 217.0Q323 215 325.5 210.0Q328 205 326 200ZM303 72Q300 72 292.5 73.5Q285 75 285.0 77.0Q285 79 292.5 80.5Q300 82 303 82Q308 82 308.0 77.0Q308 72 303 72Z" fill="#ffffff" />
<path d="M326 77Q336 72 346 75Q338 66 325 67Q306 68 303 68Q303 68 299.0 67.0Q295 66 293 66Q282 63 279 63Q274 63 274.0 68.0Q274 73 279 73Q282 73 293 71Q304 68 308 71Q312 74 311.5 77.0Q311 80 309 83L307 85Q315 86 324 84Q329 83 332.5 83.5Q336 84 338 86L340 87Q340 79 326 77ZM393 189Q387 174 380 172Q371 169 350 169L337 166Q340 172 343 179Q347 185 372 182Q376 181 393 189ZM381 231Q366 220 359 217Q356 215 353.0 212.0Q350 209 349 207L348 205H347Q345 207 347.0 215.0Q349 223 353 228Q371 247 375 244Q376 244 374.5 240.0Q373 236 373.5 235.0Q374 234 377.5 233.5Q381 233 381 231ZM197 110Q198 107 200.5 108.0Q203 109 202 112Q202 112 200.0 114.0Q198 116 197.5 116.0Q197 116 197.0 113.5Q197 111 197 110ZM197 109Q199 108 199.0 106.0Q199 104 196 104Q190 105 191 107Q191 108 193.5 108.5Q196 109 197 109ZM192 114Q191 115 191.0 117.5Q191 120 191.5 120.0Q192 120 193.5 118.5Q195 117 196 116Q197 114 195.0 113.0Q193 112 192 114ZM191 113Q193 113 193.0 111.0Q193 109 190 109Q185 110 185 112Q185 112 187.5 113.0Q190 114 191 113ZM217 106Q217 103 220.0 103.5Q223 104 222 107Q222 108 220.5 110.5Q219 113 218.5 113.0Q218 113 217.5 110.0Q217 107 217 106ZM216 105Q219 104 218.0 101.0Q217 98 214 99Q213 100 210.5 102.0Q208 104 208.0 104.5Q208 105 211.0 105.0Q214 105 216 105ZM212 112Q212 109 214.5 109.5Q217 110 216 112Q216 113 214.5 115.5Q213 118 213.0 118.0Q213 118 212.5 115.0Q212 112 212 112ZM211 111Q213 110 212.5 107.5Q212 105 209 106Q208 107 206.0 108.5Q204 110 204.5 110.5Q205 111 207.5 111.0Q210 111 211 111ZM207 117Q207 118 207.5 120.5Q208 123 208.0 123.0Q208 123 209.5 121.0Q211 119 211 118Q212 116 209.5 115.5Q207 115 207 117ZM206 116Q208 116 207.5 113.5Q207 111 204 112Q204 113 202.0 114.5Q200 116 200.0 116.0Q200 116 202.5 116.5Q205 117 206 116ZM203 122Q203 123 203.5 125.0Q204 127 204.0 127.0Q204 127 205.5 125.5Q207 124 207 123Q207 121 205.0 120.5Q203 120 203 122ZM202 121Q204 121 203.5 119.0Q203 117 200 118Q200 118 198.5 119.5Q197 121 197.0 121.0Q197 121 199.0 121.5Q201 122 202 121ZM203 96Q206 94 208.0 96.0Q210 98 207 101Q206 101 203.0 102.0Q200 103 200.0 103.0Q200 103 201.0 100.0Q202 97 203 96ZM203 95Q206 96 207.0 93.0Q208 90 204 89Q203 89 200.0 89.5Q197 90 197.0 90.5Q197 91 199.5 93.0Q202 95 203 95ZM196 98Q198 96 199.5 98.0Q201 100 199 102Q198 102 195.5 103.0Q193 104 193.0 103.5Q193 103 194.0 101.0Q195 99 196 98ZM195 97Q198 98 198.5 95.5Q199 93 197 92Q196 92 193.5 92.5Q191 93 191.0 93.0Q191 93 193.0 94.5Q195 96 195 97ZM188 100Q190 98 191.5 99.5Q193 101 191 103Q191 104 188.5 104.5Q186 105 186.0 105.0Q186 105 187.0 102.5Q188 100 188 100ZM188 98Q191 99 191.5 97.0Q192 95 189 94Q189 94 186.5 94.5Q184 95 184.0 95.0Q184 95 185.5 96.5Q187 98 188 98ZM182 101Q184 100 185.5 101.0Q187 102 185 104Q184 105 182.0 105.5Q180 106 180.0 106.0Q180 106 181.0 104.0Q182 102 182 101ZM182 100Q184 101 184.5 99.0Q185 97 183 96Q182 96 180.0 96.0Q178 96 178.0 96.5Q178 97 179.5 98.5Q181 100 182 100ZM177 139Q177 136 179.5 135.5Q182 135 183 139Q183 140 182.0 143.0Q181 146 180.5 146.0Q180 146 178.5 143.0Q177 140 177 139ZM175 139Q178 137 176.5 134.5Q175 132 172 134Q171 135 169.5 137.5Q168 140 168.5 140.5Q169 141 172.0 140.0Q175 139 175 139ZM174 146Q174 144 176.0 143.5Q178 143 179 146Q179 151 177.0 151.5Q175 152 174 146ZM173 146Q175 144 173.5 142.5Q172 141 170 142Q169 143 168.0 145.0Q167 147 167.0 147.5Q167 148 169.5 147.0Q172 146 173 146ZM171 153Q171 151 173.0 150.5Q175 150 175 153Q175 154 174.5 156.0Q174 158 174 158Q172 159 171 153ZM170 153Q172 151 170.5 149.5Q169 148 167 149Q166 150 165.0 152.0Q164 154 164.0 154.5Q164 155 166.5 154.0Q169 153 170 153ZM168 159Q168 157 170.0 156.5Q172 156 172 159Q173 159 172.0 161.5Q171 164 171.0 164.0Q171 164 170.0 162.0Q169 160 168 159ZM167 159Q169 157 168.0 155.5Q167 154 165 156Q164 156 163.0 158.0Q162 160 162.5 160.0Q163 160 165.0 159.5Q167 159 167 159ZM161 135Q163 132 165.5 133.5Q168 135 166 137Q166 138 163.5 140.0Q161 142 160.5 142.0Q160 142 160.5 138.5Q161 135 161 135ZM160 133Q164 133 164.0 130.0Q164 127 160 127Q159 127 156.5 128.5Q154 130 154.0 130.5Q154 131 156.5 132.0Q159 133 160 133ZM155 138Q156 136 158.0 137.0Q160 138 159 141Q158 141 156.0 143.0Q154 145 154.0 144.5Q154 144 154.0 141.5Q154 139 155 138ZM154 137Q157 137 157.0 134.5Q157 132 154 132Q148 132 148.0 134.5Q148 137 154 137ZM148 142Q149 140 151.0 141.0Q153 142 152 144Q152 145 150.0 146.5Q148 148 147.5 148.0Q147 148 147.5 145.5Q148 143 148 142ZM147 141Q150 141 150.0 139.0Q150 137 147 137Q142 137 142.0 139.0Q142 141 147 141ZM143 145Q144 143 145.5 144.0Q147 145 146 147Q146 148 144.0 149.5Q142 151 142.0 150.5Q142 150 142.0 148.0Q142 146 143 145ZM142 144Q144 144 144.0 142.0Q144 140 142 140Q137 140 137.0 142.0Q137 144 142 144ZM157 152Q157 149 160.0 149.0Q163 149 163 152Q163 153 161.5 156.0Q160 159 159.5 159.0Q159 159 158.0 156.0Q157 153 157 152ZM155 151Q158 150 157.0 147.5Q156 145 153 146Q152 147 150.0 149.5Q148 152 148.0 152.5Q148 153 151.5 152.5Q155 152 155 151ZM153 159Q153 164 155.0 164.5Q157 165 158 159Q158 156 155.5 156.0Q153 156 153 159ZM152 158Q154 157 153.0 154.5Q152 152 149 154Q149 154 147.0 156.0Q145 158 145.5 158.5Q146 159 148.5 158.5Q151 158 152 158ZM149 165Q149 170 151.0 170.0Q153 170 153 165Q153 163 151.0 163.0Q149 163 149 165ZM148 164Q150 163 149.0 161.0Q148 159 146 161Q145 161 143.5 163.0Q142 165 142.0 165.0Q142 165 144.5 165.0Q147 165 148 164ZM160 189Q160 190 162.5 192.0Q165 194 165.5 194.0Q166 194 166.0 191.0Q166 188 165 186Q164 183 161.5 184.5Q159 186 160 189ZM158 189Q160 186 158.0 184.0Q156 182 154 185Q153 186 152.5 189.0Q152 192 152.0 192.5Q152 193 155.0 191.0Q158 189 158 189ZM159 196Q159 197 161.0 199.0Q163 201 163.5 201.0Q164 201 164.0 198.0Q164 195 163 194Q162 192 160.0 193.0Q158 194 159 196ZM157 196Q159 194 157.0 192.5Q155 191 154 193Q153 194 152.5 196.5Q152 199 152.0 199.5Q152 200 154.5 198.5Q157 197 157 196ZM158 204Q157 201 159.0 200.5Q161 200 162 202Q162 203 162.0 205.5Q162 208 162.0 208.0Q162 208 160.0 206.0Q158 204 158 204ZM157 204Q158 202 156.5 200.5Q155 199 153 201Q153 202 152.5 204.0Q152 206 152.0 206.5Q152 207 154.0 205.5Q156 204 157 204ZM157 210Q159 215 161 214Q161 214 161.0 211.5Q161 209 161 209Q160 206 158.0 207.0Q156 208 157 210ZM156 210Q157 208 155.5 207.0Q154 206 153 208Q152 208 151.5 210.0Q151 212 151.5 212.5Q152 213 154.0 212.0Q156 211 156 210ZM143 188Q143 189 143.5 192.5Q144 196 144.5 196.0Q145 196 147.0 193.5Q149 191 149 190Q150 187 147.0 186.0Q144 185 143 188ZM142 187Q145 186 144.5 183.5Q144 181 141 182Q140 182 137.5 184.0Q135 186 135.0 186.5Q135 187 138.0 187.5Q141 188 142 187ZM138 194Q138 195 138.5 197.5Q139 200 139.0 200.0Q139 200 140.5 198.0Q142 196 143 195Q143 192 141.0 191.5Q139 191 138 194ZM137 193Q140 192 139.0 190.0Q138 188 136 188Q135 189 133.0 190.5Q131 192 131.0 192.5Q131 193 133.5 193.0Q136 193 137 193ZM133 199Q133 200 133.0 202.5Q133 205 133.5 205.0Q134 205 135.5 203.0Q137 201 137 200Q138 198 135.5 197.5Q133 197 133 199ZM132 198Q134 198 133.5 195.5Q133 193 131 194Q130 194 128.0 195.5Q126 197 126.0 197.5Q126 198 128.5 198.5Q131 199 132 198ZM128 204Q129 202 131.0 202.5Q133 203 132 205Q132 206 130.5 207.5Q129 209 129.0 209.0Q129 209 128.5 207.0Q128 205 128 204ZM128 203Q130 202 129.5 200.5Q129 199 126 199Q126 199 124.0 200.5Q122 202 122.0 202.5Q122 203 124.5 203.0Q127 203 128 203ZM144 207Q144 208 146.0 210.0Q148 212 148.5 212.0Q149 212 149.5 209.0Q150 206 150 205Q149 202 146.0 202.5Q143 203 144 207ZM142 206Q145 204 143.0 202.0Q141 200 138 202Q138 203 136.5 206.0Q135 209 135.5 209.0Q136 209 139.0 208.0Q142 207 142 206ZM142 214Q142 215 143.5 217.0Q145 219 145.5 219.0Q146 219 146.5 216.5Q147 214 147 213Q146 210 143.5 210.5Q141 211 142 214ZM141 214Q143 212 141.0 210.0Q139 208 137 210Q137 211 136.0 213.5Q135 216 135.0 216.0Q135 216 137.5 215.0Q140 214 141 214ZM140 221Q140 222 141.5 224.0Q143 226 143.5 226.0Q144 226 144.0 223.5Q144 221 144 220Q144 218 141.5 218.5Q139 219 140 221ZM139 221Q141 219 139.0 217.5Q137 216 136 218Q135 218 134.0 220.5Q133 223 133.5 223.0Q134 223 136.0 222.0Q138 221 139 221ZM158 237Q159 237 161.5 237.0Q164 237 164.5 237.0Q165 237 163.0 234.5Q161 232 160 232Q157 231 156.0 233.5Q155 236 158 237ZM157 238Q156 235 153.5 235.5Q151 236 151 239Q151 240 153.0 242.5Q155 245 155.0 245.0Q155 245 156.0 242.0Q157 239 157 238ZM162 243Q163 243 165.5 243.0Q168 243 168.0 242.5Q168 242 166.0 240.5Q164 239 164 239Q161 238 160.5 240.0Q160 242 162 243ZM161 243Q161 241 158.5 241.5Q156 242 157 244Q158 249 160 249Q160 249 160.5 246.5Q161 244 161 243ZM166 248Q167 248 169.5 248.0Q172 248 172.0 248.0Q172 248 170.5 246.5Q169 245 168 244Q166 243 165.0 245.0Q164 247 166 248ZM166 249Q165 246 163.0 246.5Q161 247 161 249Q162 254 164 254Q165 254 165.5 252.0Q166 250 166 249ZM170 253Q171 253 173.0 253.0Q175 253 175.0 252.5Q175 252 173.5 251.0Q172 250 171 249Q170 249 169.0 250.5Q168 252 170 253ZM169 253Q169 251 167.0 251.5Q165 252 166 254Q166 258 168 258Q168 258 168.5 256.0Q169 254 169 253ZM147 248Q147 249 149.5 250.5Q152 252 152.5 251.5Q153 251 152.5 248.5Q152 246 151 245Q150 242 147.5 243.5Q145 245 147 248ZM145 248Q147 245 144.5 244.0Q142 243 141 245Q140 246 140.0 249.0Q140 252 140.0 252.0Q140 252 142.5 250.5Q145 249 145 248ZM147 255Q147 255 149.0 256.5Q151 258 151.5 258.0Q152 258 151.5 255.5Q151 253 151 252Q149 250 147.5 251.5Q146 253 147 255ZM146 255Q147 253 145.0 252.0Q143 251 142 253Q141 254 141.0 256.0Q141 258 141.5 258.5Q142 259 143.5 257.5Q145 256 146 255ZM147 262Q148 262 149.5 263.5Q151 265 151.5 265.0Q152 265 151.5 262.5Q151 260 151 260Q149 258 147.5 259.0Q146 260 147 262ZM146 262Q147 260 145.0 259.0Q143 258 142 260Q142 261 142.0 263.0Q142 265 142.0 265.0Q142 265 144.0 263.5Q146 262 146 262ZM147 268Q148 268 149.5 269.5Q151 271 151.0 270.5Q151 270 151.0 268.0Q151 266 150 266Q149 264 147.5 265.0Q146 266 147 268ZM146 268Q147 266 145.5 265.0Q144 264 143 266Q143 267 142.5 269.0Q142 271 142.5 271.0Q143 271 144.5 269.5Q146 268 146 268ZM159 259Q160 260 163.0 260.0Q166 260 166.0 260.0Q166 260 164.5 257.5Q163 255 162 254Q159 253 158.0 255.5Q157 258 159 259ZM158 260Q158 257 155.5 257.0Q153 257 153 260Q153 266 155.5 266.0Q158 266 158 260ZM163 265Q161 264 162.0 262.0Q163 260 165 261Q166 262 167.5 264.0Q169 266 168.5 266.0Q168 266 165.5 266.0Q163 266 163 265ZM162 266Q162 263 159.5 263.0Q157 263 157 266Q157 271 159.5 271.0Q162 271 162 266ZM166 271Q167 272 169.0 272.0Q171 272 171.5 272.0Q172 272 170.5 270.0Q169 268 168 268Q166 266 165.0 268.0Q164 270 166 271ZM165 272Q165 269 163.0 269.5Q161 270 161 272Q161 277 163.0 277.0Q165 277 165 272Z" fill="#ffffff" />
<path d="M149 119Q159 119 168 125Q194 143 209 128Q199 130 191 123Q175 110 162 111ZM289 99 305 84Q299 85 289 81Q269 72 255.5 72.0Q242 72 222 81Q218 83 214.0 83.5Q210 84 208 84H206L222 99Q224 98 227.5 97.0Q231 96 239.5 95.0Q248 94 256 94Q260 94 265.0 94.5Q270 95 274.0 95.5Q278 96 281.5 97.0Q285 98 287 98Z" fill="#ffffff" />
<path d="M208 82Q211 82 218.5 80.5Q226 79 226.0 77.0Q226 75 218.5 73.5Q211 72 208 72Q203 72 203.0 77.0Q203 82 208 82Z" fill="#ffffff" />
<path d="M185 77Q179 78 175.5 80.5Q172 83 171 85V87Q171 86 172.5 85.5Q174 85 178.5 84.0Q183 83 187 84L204 85Q203 84 202.0 82.5Q201 81 200.0 77.0Q199 73 203 71Q207 68 218 71Q229 73 232 73Q237 73 237.0 68.0Q237 63 232 63Q229 63 218 66Q216 66 212.0 67.0Q208 68 208 68Q205 68 186 67Q173 66 165 75Q175 72 185 77ZM118 189Q118 189 121.0 187.5Q124 186 129.5 183.5Q135 181 139 182Q164 185 168 179L174 166Q168 169 161 169Q140 169 131 172Q124 174 118 189ZM130 231Q130 233 133.0 233.5Q136 234 137.0 235.0Q138 236 136.5 239.5Q135 243 136 244Q140 247 157 228Q162 223 164.0 215.0Q166 207 164 205H163Q159 213 152 217ZM287 120Q289 120 291.5 121.5Q294 123 296.0 125.5Q298 128 299 128Q299 120 290 113Q288 112 286.5 108.5Q285 105 286 102V100Q275 97 271 97Q271 98 273 102Q272 102 271 101L268 97Q262 96 256 96L243 97L241 101Q239 102 238 103Q240 98 240 97L225 100Q227 109 221 113Q217 116 215.0 120.0Q213 124 213 126L212 128Q213 128 215.5 125.5Q218 123 220.0 121.5Q222 120 224 120Q228 119 234 110Q234 119 243 119Q244 119 246 119Q248 121 251 121Q254 121 256 120Q258 121 260 121Q264 121 266 119Q267 119 269 119Q277 119 278 111Q283 119 287 120Z" fill="#ffffff" />
</g></svg>