<svg xmlns="http://www.w3.org/2000/svg" viewBox="0 0 512 512">
<g transform="matrix(1 0 0 -1 0 512)">
<path d="M455 377Q479 377 495.5 360.5Q512 344 512 320V64Q512 40 495.5 23.5Q479 7 455 7H57Q33 7 16.5 23.5Q0 40 0 64V320Q0 344 16.5 360.5Q33 377 57 377Z" fill="#006c35" />
<path d="M127 248Q119 250 121 274Q122 275 122.5 273.0Q123 271 124.0 266.5Q125 262 125 261Q128 250 130 260L131 267Q132 277 137 277Q139 277 140 275Q142 270 140 261Q140 258 142 256Q144 256 144 258Q144 259 144 260Q143 272 142 276Q141 280 141 286Q143 290 146 287Q147 285 149 274Q149 266 150 261Q152 258 153 261Q153 261 151 266Q147 274 151 280Q152 282 154 280Q157 275 157 274Q158 269 157 263L162 259Q164 257 166 258Q167 261 165 265Q160 272 161 278Q162 284 167 280Q170 279 171 273Q171 272 170.0 272.0Q169 272 168 273Q168 273 168.5 271.5Q169 270 169 270Q171 265 172 257Q172 251 163 249Q161 248 156 252Q152 254 152 251Q152 249 152.0 247.5Q152 246 152.5 241.5Q153 237 153 233Q153 227 151.5 223.5Q150 220 148 220H147L146 243Q145 246 141 246Q136 248 136 252V266Q136 267 135.5 267.0Q135 267 134 266Q133 265 133.0 260.0Q133 255 132.0 251.5Q131 248 127 248Z" fill="#ffffff" />
<path d="M140 242Q144 242 145 239Q145 239 145 238Q141 236 132.5 232.0Q124 228 122 227Q122 231 128.5 236.5Q135 242 140 242Z" fill="#ffffff" />
<path d="M181 213Q178 203 166.5 196.5Q155 190 144.5 192.5Q134 195 133 207Q133 212 134 214Q134 220 136 220Q138 221 138 217Q138 209 140 206Q144 202 152.0 200.5Q160 199 168.5 207.0Q177 215 177 230Q176 230 175 229Q172 208 155 205Q140 203 139 218Q138 224 141 231Q143 232 143.5 229.5Q144 227 144.5 223.0Q145 219 145 218Q149 211 159 216Q164 219 166.5 222.0Q169 225 169.5 227.0Q170 229 170 230Q169 230 167.5 229.0Q166 228 165 227Q160 226 157 229Q156 233 157 238Q158 246 165 246Q167 246 168.5 245.0Q170 244 171.5 242.5Q173 241 174 240Q175 240 176.0 241.0Q177 242 176 244Q175 250 173.5 262.5Q172 275 170 282Q170 286 174 287Q176 288 176 287Q178 286 183 272Q182 271 179 271Q179 267 180.0 258.0Q181 249 182 245Q188 248 187 242Q187 240 189.0 240.0Q191 240 192 241Q196 249 199 243Q199 242 200.5 242.0Q202 242 202 243V246Q202 247 207 249Q207 243 205 237Q205 234 201.5 233.0Q198 232 196 234Q194 236 193 234Q188 227 182 233Q182 233 182.0 230.5Q182 228 182.5 223.5Q183 219 181 213ZM166 235Q167 236 166.0 237.0Q165 238 164.0 238.0Q163 238 163 238Q162 236 162 235Q162 234 164 234Q166 234 166 235Z" fill="#ffffff" />
<path d="M193 263Q193 263 189.0 263.0Q185 263 185 263Q184 263 187.0 265.5Q190 268 194.5 271.5Q199 275 201 277Q203 279 199 280Q196 284 200 287Q203 289 206 288Q210 283 206 280Q205 280 206 279Q206 278 206.5 278.0Q207 278 208 277Q196 264 193 263ZM204.0 282.5Q203 284 202.0 284.0Q201 284 201.5 282.0Q202 280 203.5 280.5Q205 281 204.0 282.5ZM126 203Q127 204 129 202Q131 196 125 193Q123 192 120 195Q118 197 119.0 204.0Q120 211 123 216L124 215Q123 209 123 204Q124 198 126 203ZM271 277Q267 281 267 282Q267 285 267 289Q268 292 272 289Q275 286 279 283Q280 282 281 281Q281 283 282 286Q284 288 285 286Q293 275 293 270Q293 270 292 270Q291 270 291 267Q292 266 293 257Q297 250 299 248Q299 247 301.5 243.5Q304 240 306.5 235.5Q309 231 311 227Q311 225 311.5 219.5Q312 214 310 213Q303 228 294 243Q294 238 294 235Q295 211 294 211Q292 202 288 202Q289 219 287 238Q287 247 285 256Q278 267 271 277ZM281 277Q279 277 280 275Q281 274 282 272V273Q282 274 281 277Z" fill="#ffffff" />
<path d="M312 211Q314 212 313 217Q308 272 307 277Q307 283 310 286Q311 289 312 287Q319 275 317 273Q317 272 316.0 272.0Q315 272 314 272Q314 271 314 268Q319 245 319 215Q318 211 315 205Q308 192 298 191Q293 192 292 196Q301 200 312 211ZM395 263Q399 243 398 211Q398 204 395 200Q390 192 376 190Q372 192 377 196Q378 197 381.0 198.5Q384 200 385 200Q386 201 391 208Q392 209 392 213Q392 233 386 272Q385 279 387 282Q388 285 390 283Q398 270 397 270Q397 269 395.5 269.0Q394 269 394 269Q394 268 395 263ZM347 246Q341 246 336 255Q336 257 337 259Q339 261 341 260L342 258Q344 257 344 258Q344 259 344.0 260.0Q344 261 344 261Q344 264 346.0 264.5Q348 265 349 263Q351 261 351 257H350H349Q348 257 347 255Q347 248 347 246Z" fill="#ffffff" />
<path d="M345 270Q343 274 343 276Q342 278 343 284Q343 286 346 284Q348 282 353 277Q355 275 353 274Q351 274 354 271Q354 271 355 270V271Q355 273 354.5 276.5Q354 280 354 281Q354 284 356 285Q357 287 358 285L365 272Q366 271 365.5 270.0Q365 269 364.5 269.5Q364 270 363 270Q362 270 362 269Q363 266 363 260Q368 253 371 249Q369 262 367 275Q365 282 367 284Q370 287 371 285Q373 282 375.5 275.5Q378 269 377 268Q377 268 376.0 268.0Q375 268 375.0 267.5Q375 267 376 261Q376 259 376.5 254.5Q377 250 377 249Q377 248 377.0 245.0Q377 242 378 240Q378 240 378.5 239.5Q379 239 379 239Q387 227 390 222Q391 221 391.0 215.5Q391 210 390 209Q386 216 380 225Q380 224 380.0 222.5Q380 221 380.0 219.5Q380 218 380 216Q380 211 374 207Q374 220 373 236Q368 242 366 244Q367 213 366 210Q364 206 360 204Q355 200 350 204Q348 206 346 208Q343 212 341 207Q341 207 339.5 201.5Q338 196 336 194Q333 190 329 193Q326 195 323 201Q317 211 325 219Q322 209 328 202Q331 199 333 202Q333 202 336.5 209.5Q340 217 342.5 219.5Q345 222 348 219Q352 212 353 212H357Q360 213 360 222Q359 228 358.5 238.5Q358 249 358 255Q355 258 350.5 263.5Q346 269 345 270ZM218 255Q216 254 213.5 258.0Q211 262 210.0 268.0Q209 274 211 281Q212 282 213 277Q216 265 216 264Q218 261 220 266Q223 278 228 283Q231 285 233 282Q234 280 233 267Q234 264 237 262Q240 260 242 263Q243 264 245 266Q246 275 244 280Q243 283 245 289Q247 293 249 289Q250 287 250.5 284.0Q251 281 251.0 276.5Q251 272 251 270Q252 263 255 262L260 264Q261 269 256 277Q254 280 255 283Q256 287 257 288Q260 291 263 288Q268 282 267 280Q266 278 264 279Q262 279 264 275Q264 274 265.0 270.5Q266 267 266 266Q267 264 272 265Q272 265 273.0 265.5Q274 266 274 267Q276 268 276 265Q274 259 271 257Q269 257 269 257Q268 258 269 261L266 260Q266 260 265.0 258.5Q264 257 263 256Q261 251 254 254Q253 255 252.0 256.5Q251 258 250 258Q248 260 247 258L242 254Q237 249 231 254Q228 258 228 269Q227 271 226 268Q223 253 218 255Z" fill="#ffffff" />
<path d="M286 227Q286 226 285 225Q282 221 282 217Q274 214 258 212Q253 210 254 207Q255 205 261 202Q265 200 261 195Q240 196 234 209Q233 210 231 208Q222 196 213 193Q204 191 200 197Q199 198 198.5 199.5Q198 201 197 201Q173 191 174 195Q176 197 180.0 200.0Q184 203 189.5 206.5Q195 210 199 212Q202 222 204 223Q204 223 204 221Q203 218 203 217V216H204Q215 223 216 227Q216 228 216 233Q215 236 213.0 238.0Q211 240 210 241Q208 248 212 249Q214 252 218 249Q221 246 222 240Q222 240 220 240Q219 241 219 241Q220 239 221 235Q223 228 221 223Q217 215 205 206L206 202Q208 200 213 202Q224 208 229 219Q231 225 228 235Q223 246 223 247Q223 251 225 253Q227 254 229 252Q235 242 236 229L237 227Q238 230 244.5 233.5Q251 237 258 238Q258 238 259 243Q258 253 267 254Q277 252 277 243Q276 232 258 229Q257 229 258 228H285ZM266.0 241.5Q264 243 264.5 244.0Q265 245 267.5 243.5Q270 242 269.0 241.0Q268 240 266.0 241.5ZM254 217Q257 218 254 220Q253 220 252 221Q241 222 241 222Q237 222 238 219Q238 213 245 208Q246 207 247.5 207.0Q249 207 248 211Q248 215 254 217ZM155 281Q155 281 152 285Q152 288 154 288Q155 288 155.0 287.5Q155 287 155 286Q155 286 156 286Q157 286 157 286Q157 287 157 288Q157 288 158 288Q159 287 159 287L160 285Q160 286 160 286Q160 287 160 287Q161 288 162.0 288.0Q163 288 163 287Q163 286 163 285Q163 282 160.0 281.0Q157 280 155 281Z" fill="#ffffff" />
<path d="M249 249Q249 249 250 247Q251 247 250 248Q250 249 250 249Q251 250 252.0 250.0Q253 250 253 249Q253 248 253 247Q255 244 251.0 242.5Q247 241 245 243L243 247Q242 250 244 250Q245 250 245.0 249.5Q245 249 245 248Q245 248 246 248Q246 247 246.5 247.5Q247 248 247 248Q247 248 247 249Q248 250 248.0 250.0Q248 250 249 250Q249 249 249 249ZM297 259Q297 259 295 263Q295 266 297 266Q297 266 297.5 265.5Q298 265 298 264Q298 264 298 263Q299 263 299.5 263.0Q300 263 300 264Q300 264 300 265Q300 266 300.5 266.0Q301 266 301 265Q302 265 302 264L303 263Q303 263 303 264Q303 264 303 265Q303 266 304.0 266.0Q305 266 306 265Q306 264 306 263Q306 259 303.0 258.0Q300 257 297 259ZM299 278Q299 279 297 281Q295 284 295 285Q295 286 296.0 287.0Q297 288 299 287Q304 285 303 278L300 271Q299 272 300 273Q300 276 299 278ZM328 206Q328 224 319 271Q318 277 321 285Q322 287 323 285Q324 283 327.0 278.0Q330 273 331 271Q331 270 329.0 270.0Q327 270 328 267Q332 253 333 230Q334 216 333 216Q331 206 328 206ZM381 267Q381 268 379.0 271.0Q377 274 378 275Q377 276 378.0 277.0Q379 278 381 278Q385 275 384 268L382 261Q381 261 381 264Q381 267 381 267ZM194 218Q195 220 194 221Q194 222 192.5 224.0Q191 226 191 226Q190 227 191.0 228.0Q192 229 194 228Q198 226 197 221Q197 219 196.0 217.0Q195 215 194.5 215.5Q194 216 194 218ZM130 281Q130 282 128 284Q126 286 127 287Q126 288 127.0 288.5Q128 289 130 289Q134 288 133 281L130 276Q130 276 130 279Q130 281 130 281ZM200 264Q201 265 201.5 264.5Q202 264 202 263Q201 262 201 259Q202 258 203 258L206 260L202 255Q198 255 198 256Q194 261 200 264ZM220 281Q218 280 217 281Q216 282 216 284Q216 288 220 291Q222 292 222 290Q219 286 219 285Q219 284 219.5 284.0Q220 284 221 284Q222 284 222 283Q221 282 220 281ZM239 280Q237 278 235 280Q235 280 235.5 282.0Q236 284 236.0 286.0Q236 288 236 288Q237 291 238.5 291.0Q240 291 240 289Q240 284 239 280ZM355 246Q355 246 355 241Q355 240 348.0 235.0Q341 230 340 230V235ZM353 218Q352 219 353 222Q353 224 352.5 225.0Q352 226 352 228Q350 231 350 232Q350 234 351.0 235.0Q352 236 353 235Q358 233 356 225Q356 220 353 218ZM272 197Q271 198 272 200Q272 201 271.5 201.5Q271 202 270 202Q269 201 268 202Q268 203 268 204Q271 207 272 207Q274 208 275 207Q275 206 274.5 204.5Q274 203 275 202Q275 201 277 201Q279 203 283 203Q284 202 284 200Q282 199 275 197Q272 195 272 197ZM365 195Q366 195 367.0 196.0Q368 197 368 197Q369 198 368 200Q366 201 366 202Q366 204 367 204Q370 204 371 204Q373 203 372.5 201.5Q372 200 372 200Q371 198 373 198Q375 198 375 198V196Q375 196 373.5 195.0Q372 194 369.5 193.0Q367 192 366 192Q364 193 365 195ZM363 121Q370 121 370 114V100Q370 92 363.0 92.0Q356 92 356 100V107H341V100Q341 92 334.0 92.0Q327 92 327 100V107H199Q180 107 169.5 110.5Q159 114 158 117L156 121H327V128Q327 135 334.0 135.0Q341 135 341 128V121Z" fill="#ffffff" />
</g></svg>