<svg xmlns="http://www.w3.org/2000/svg" viewBox="0 0 512 512">
<g transform="matrix(1 0 0 -1 0 512)">
<path d="M455 377Q479 377 495.5 360.5Q512 344 512 320V64Q512 40 495.5 23.5Q479 7 455 7H341V377ZM57 377H171V7H57Q33 7 16.5 23.5Q0 40 0 64V320Q0 344 16.5 360.5Q33 377 57 377Z" fill="#4997d0" />
<path d="M171 377H341V7H171Z" fill="#eeeeee" />
<path d="M322 182Q326 181 327 182V180Q326 179 324 178Q319 176 317 175Q316 174 314.0 172.5Q312 171 311 170Q314 173 318.5 173.5Q323 174 324 174H326Q325 173 325 172Q318 166 313.0 166.0Q308 166 306 164Q307 164 309 165Q310 165 311 165Q314 165 314.0 165.0Q314 165 313 163Q309 158 305 156Q308 156 309 156Q313 155 309 154Q308 154 305.5 152.5Q303 151 302 150Q306 149 306.5 148.5Q307 148 304 147Q297 143 290 144Q293 143 295 142Q295 140 294 139Q292 140 288.5 139.5Q285 139 284 139Q289 135 291 135Q296 133 290 133Q283 132 276.5 136.0Q270 140 268 140Q262 138 258 135Q260 134 260 134Q260 133 258.5 132.5Q257 132 257 132Q257 132 256.5 132.5Q256 133 255.5 132.5Q255 132 254 132Q254 132 252.0 132.5Q250 133 250 134Q251 134 253 135Q249 138 244 140Q242 140 235.5 136.0Q229 132 221 133Q215 133 220 135Q223 135 227 139Q226 139 223.0 139.5Q220 140 217 139Q217 141 217 142Q219 143 221 144Q215 143 208 146Q205 148 205.5 148.5Q206 149 210 150Q208 151 206.0 152.0Q204 153 203 154Q199 155 202 156Q204 156 207 156Q203 158 199 162Q197 164 198 165Q198 165 203 164Q204 164 206 163Q204 165 199.0 165.5Q194 166 187 172Q186 173 186 174Q186 175 188 174Q189 173 193.5 172.5Q198 172 201 170Q200 171 198.0 172.5Q196 174 195 174Q193 176 188 178L184 181H185Q186 181 190 181Q189 185 190 185Q191 184 193.5 182.5Q196 181 197 180V181Q196 183 191.5 185.0Q187 187 185 191Q185 192 185 193Q183 194 186 194Q191 194 195 189Q195 190 191.0 193.5Q187 197 186 204Q187 207 187 208Q188 206 191 202Q190 206 191 209Q189 212 189 214Q190 216 191 217Q191 216 193 214Q193 216 194 214Q195 213 195 211Q196 209 196 208Q196 209 197 212Q196 213 194.5 215.0Q193 217 191.5 220.5Q190 224 192 230Q192 235 194 230Q194 230 196.0 226.5Q198 223 198 218L199 219Q199 222 197.0 230.0Q195 238 198 240L201 242V240Q201 239 202.0 235.5Q203 232 202 229H203Q203 231 202.5 235.5Q202 240 204 241Q206 242 206 242Q206 242 206 240Q207 244 213 246Q216 247 216.0 246.5Q216 246 214 245Q214 244 213.0 241.5Q212 239 211 237Q216 240 217 240Q220 244 217 237Q216 233 211 230Q212 230 211 227Q209 224 207 221Q209 222 210 223Q213 228 213 226Q213 225 213 223Q213 217 209 214Q209 213 207 211Q205 208 203 207Q202 205 201 202Q204 204 204.5 203.5Q205 203 204 201Q203 194 200.0 191.0Q197 188 198 185Q198 183 198 182Q198 187 202 192Q205 195 205 192Q205 191 204 188Q204 187 203 184Q206 189 206 187Q206 186 206 184Q206 183 207.0 179.0Q208 175 207 172Q206 167 208 163H209Q207 167 207.0 169.0Q207 171 208.0 173.0Q209 175 209 176L211 175Q212 171 211 166Q212 166 212 166Q214 164 216 163Q215 165 215 165Q215 168 216 169L218 167Q218 165 221.0 162.0Q224 159 225 155Q227 149 230 147H231Q225 151 224 159L225 163Q226 162 227 160Q227 160 230.0 157.5Q233 155 234 151Q236 146 240 144Q232 150 233 158Q234 163 235 158Q236 157 238.0 154.5Q240 152 241.5 148.0Q243 144 249 141H248Q253 139 256 137Q259 139 263 141Q269 144 270.0 148.0Q271 152 273.5 154.5Q276 157 276 158Q278 163 278 159Q280 150 271 144Q276 146 277 151Q279 155 281.5 157.5Q284 160 285 161Q286 164 287 163Q287 162 287 159Q286 151 280 147H281Q284 149 286 155Q288 159 290.5 162.0Q293 165 294 167L296 169Q296 168 296 166Q296 165 296.0 164.5Q296 164 296 163Q297 165 299 166Q299 166 300 167Q299 171 301 176H303Q303 175 304.0 173.0Q305 171 305.0 169.0Q305 167 303 163H304Q306 167 305 172Q303 176 304.5 180.0Q306 184 305 185Q305 189 307 188Q307 187 308 185H309Q308 187 308 189Q308 193 310 192Q314 188 314 183Q314 184 314 185Q315 189 312.0 192.0Q309 195 308 202Q307 204 307.0 204.5Q307 205 311 203Q310 206 309 208Q306 209 304 212Q303 214 303 215Q299 218 298 224Q298 227 299.0 227.0Q300 227 302 224Q303 223 304 222Q302 225 301 228Q300 231 300 231Q296 234 294 239Q292 245 295 242Q295 241 301 238Q300 240 299.0 242.5Q298 245 297 246Q296 247 296.0 247.5Q296 248 298 248Q305 246 306 241Q306 243 305 243Q305 246 307 244Q307 243 308 242Q310 241 309.5 236.5Q309 232 309 230Q309 233 310.0 236.5Q311 240 311.0 241.5Q311 243 311 243Q312 244 314 241Q316 239 314.5 231.0Q313 223 313 220L314 219Q314 224 316.0 227.5Q318 231 318 231Q320 236 320 231Q321 225 320.0 221.5Q319 218 317.0 216.0Q315 214 315 213Q316 210 316 209Q317 213 318 215Q319 217 319 215Q321 217 321 218Q322 221 323 218Q323 217 323 215Q323 213 321 210Q322 207 321 203Q324 207 325 208Q325 209 325 209Q326 211 326 209Q326 207 326 205Q325 197 321.0 193.5Q317 190 317 189Q321 194 326 195Q329 195 327 193Q327 192 327 192Q325 188 320.5 186.0Q316 184 315 182V181Q316 182 318.5 183.0Q321 184 322 185Q323 187 323 186Q324 184 322 182ZM224 148 225 147Q223 148 220 149Q222 149 224 148ZM241 143 240 144H241ZM211 164Q210 161 212 159Q213 158 214 157Q213 158 212.5 160.0Q212 162 211 163Q211 164 211 164ZM210 230Q209 229 207 229Q205 228 202 223Q203 224 205.5 225.5Q208 227 208.5 228.0Q209 229 210 230ZM206 163ZM222 144Q225 145 230 145Q230 145 229.0 145.0Q228 145 222 144ZM307 233ZM310 224Q307 229 304 230Q303 230 302 231Q302 230 303.0 229.0Q304 228 306.5 226.5Q309 225 310 224ZM292 149Q289 148 287 147L288 148Q290 149 292 149ZM300 164Q300 163 299.0 161.0Q298 159 298 158Q299 158 300 159Q301 161 301 164ZM271 144H270ZM282 145Q286 145 290 144Q284 145 283 145Q283 145 282 145ZM305 163 306 164V163Z" fill="#437e24" />
<path d="M236 186 240 182 225 166 221 168Q223 174 224 175ZM206 249 227 231 231 232 232 229 227 227Z" fill="#b1b6ba" />
<path d="M221 168 224 165Q221 163 221 160Q221 158 219.0 155.5Q217 153 214.5 149.5Q212 146 211 146Q209 142 207 146Q206 146 205.0 147.5Q204 149 204.0 150.0Q204 151 211 159Q212 160 214.5 161.5Q217 163 217 164ZM237 184 238 182 232 174 230 176Z" fill="#6c301e" />
<path d="M232 156 235 152 238 154Q240 150 238 150H234L227 144Q225 146 222 144Q223 147 224 147L230 154L228 156Z" fill="#fab81b" />
<path d="M232 154Q272 194 288 195Q276 187 268 181L235 152Z" fill="#b1b6ba" />
<path d="M277 186Q288 176 289 175L292 168L289 166L273 182ZM267 217 283 232 286 231 265 210Z" fill="#b1b6ba" />
<path d="M292 168Q295 166 296 164Q296 163 298.5 161.5Q301 160 302 159Q310 151 309.5 150.0Q309 149 308.0 147.5Q307 146 306 146Q305 142 302 146Q302 146 299.5 149.5Q297 153 294.5 155.5Q292 158 292 160L289 165ZM277 184 283 176 281 174 275 182Z" fill="#6c301e" />
<path d="M308 249 286 227 281 229 286 231Z" fill="#b1b6ba" />
<path d="M281 156Q284 158 285 156L283 154Q288 147 289 147L291 144H286L279 150Q278 149 276 150V154L278 152Z" fill="#fab81b" />
<path d="M281 154 278 152Q253 175 245 181L225 195Q232 194 246.0 184.0Q260 174 270 164Z" fill="#b1b6ba" />
<path d="M233 232Q236 233 249.0 232.5Q262 232 265 232Q270 233 270 228Q270 227 270 227L267 223Q271 220 277 205Q285 182 274 182Q242 180 239 180Q231 180 231 186Q231 189 234.5 191.5Q238 194 242 192Q242 194 239 203Q237 207 233.0 215.0Q229 223 229 225Q228 232 233 232Z" fill="#f9f0aa" />
<path d="M252 248Q251 249 252.5 251.0Q254 253 256 253Q261 252 257 248Q265 243 271 238Q290 220 291 200Q292 192 290.0 185.0Q288 178 286.0 174.0Q284 170 280.5 165.0Q277 160 276 159L262 132Q262 142 275 160Q265 141 249 138Q269 152 274 163Q288 190 286 202Q284 223 268 231Q258 232 254 235Q251 238 250.5 241.0Q250 244 251 246Z" fill="#437e24" />
<path d="M267 223Q267 222 268 220L269 219H235Q233 219 233 222L230 225Q232 224 235 224V225H269Q267 225 267 223ZM242 184Q242 187 241 187H275H280L278 184Q278 183 276.5 182.0Q275 181 275 181H241Q242 181 242 184Z" fill="#e2cf81" />
</g></svg>