<svg xmlns="http://www.w3.org/2000/svg" viewBox="0 0 2048 2048">
<g transform="matrix(1 0 0 -1 0 2048)">
<path d="M512 64Q512 40 495.5 23.5Q479 7 455 7H57Q33 7 16.5 23.5Q0 40 0 64V320Q0 344 16.5 360.5Q33 377 57 377H455Q479 377 495.5 360.5Q512 344 512 320Z" fill="#ce1126" />
<path d="M0 277H512V107H0Z" fill="#eeeeee" />
<path d="M213 167H190Q188 172 188 173Q191 170 194 171Q196 171 198.0 172.0Q200 173 202.5 174.5Q205 176 206 176H210Q211 172 213 167ZM264 167H248Q251 172 256 172Q261 172 264 167ZM322 167H300L302 177Q308 176 310 173Q312 171 316.5 170.5Q321 170 324 173Q324 172 322 167ZM317 156H291Q295 159 297 162Q299 160 303 160Q307 160 310.0 161.5Q313 163 315 163Q318 163 320 162Q320 161 317 156ZM241 156Q242 157 243 158H242Q248 164 256 164Q259 164 262.0 162.5Q265 161 267 159L268 158Q269 157 270 156ZM220 156H195Q193 161 191 163Q192 163 195 165Q197 166 201.0 163.0Q205 160 208.0 159.5Q211 159 215 162Q217 159 220 156ZM205 144Q202 147 199 150Q205 154 209 154Q212 154 216.5 150.5Q221 147 224.0 147.0Q227 147 232.0 150.0Q237 153 239.5 153.0Q242 153 247.0 150.0Q252 147 255 147Q258 147 263.0 150.0Q268 153 272.0 153.0Q276 153 279.5 150.5Q283 148 286.0 148.0Q289 148 294.0 151.0Q299 154 302 154Q307 154 312 149Q310 147 308 144ZM295 133H217Q212 137 210 138Q218 142 224 142Q228 142 233.0 139.0Q238 136 241.0 136.0Q244 136 248.0 138.5Q252 141 255.5 141.0Q259 141 264.0 139.0Q269 137 272.0 137.0Q275 137 279.0 139.0Q283 141 286 141Q291 141 300 136Q300 136 295 133ZM272 129Q277 129 282 126Q269 121 256.0 121.0Q243 121 230 126Q236 130 241 130Q244 130 249.0 126.5Q254 123 256 123Q258 123 263.0 126.0Q268 129 272 129Z" fill="#083e9d" />
<path d="M210 211V201L186 203Q187 212 190 219ZM225 205 238 199 225 200ZM300 201V211L321 220Q324 213 326 203ZM286 205V200L274 199V200ZM309 240Q312 235 316 229L300 220V232ZM286 220V213L274 207V209ZM238 207V204L225 211V219ZM210 232V218L194 227Q198 234 202 238ZM286 232V229L274 216Q273 222 273 223L291 254Q297 250 302 246L292 235Q286 235 286 232ZM225 234Q225 238 217 237L209 245Q214 249 219 253L238 221V214L225 228ZM273 237Q273 245 274 245Q268 245 268 245L272 261Q277 260 283 257ZM236 260 237 236 228 257Q234 259 236 260ZM210 194V184H186Q185 190 185 192Q185 192 185 194ZM300 184V193L327 194Q327 192 327 192Q327 190 326 184Z" fill="#ff9d11" />
<path d="M214 230Q214 234 219 232Q222 231 222 229V186Q222 171 230 168Q233 167 238.0 168.5Q243 170 245 172L248 175Q244 156 229 156Q221 156 217.5 164.0Q214 172 214 180ZM297 230V180Q297 172 293.5 164.0Q290 156 283 156Q276 156 271.0 160.5Q266 165 265 170L263 175Q264 174 266.0 172.5Q268 171 273.0 169.0Q278 167 281 168Q289 171 289 186V229Q289 233 295 233Q297 232 297 230ZM268 202 242 210V251Q242 260 248.5 263.5Q255 267 268 263Q256 262 255.0 254.5Q254 247 268 241Z" fill="#ce1126" />
<path d="M283 180H228Q226 180 226.0 182.0Q226 184 228 184H283Q284 184 284.0 182.0Q284 180 283 180ZM242 172H229L235 179H247ZM268 172 263 179H276L281 172ZM237 188Q238 187 236.5 186.0Q235 185 234 186L232 189L229 186Q228 185 226.5 186.0Q225 187 226 188L229 191L226 195Q225 196 226.5 196.5Q228 197 229 196L231 195V197Q231 198 231.5 198.0Q232 198 232 197V195L234 196Q235 197 236.5 196.5Q238 196 237 195L234 191ZM249 188Q250 187 248.5 186.0Q247 185 246 186L243 189L241 186Q240 185 238.5 186.0Q237 187 238 188L241 191L238 195Q237 196 238.5 196.5Q240 197 241 196L242 195V197Q242 198 243.0 198.0Q244 198 244 197V195L246 196Q247 197 248.5 196.5Q250 196 249 195L246 191ZM260 188Q261 187 259.5 186.0Q258 185 257 186L255 189L253 186Q252 185 250.5 186.0Q249 187 250 188L253 191L250 195Q249 196 250.5 196.5Q252 197 253 196L254 195V197Q254 198 255.0 198.0Q256 198 256 197V195L257 196Q258 197 260.0 196.5Q262 196 260 195L257 191ZM272 188Q273 187 271.5 186.0Q270 185 269 186L267 189L265 186Q264 185 262.5 186.0Q261 187 262 188L265 191L262 195Q261 196 262.5 196.5Q264 197 265 196L266 195V197Q266 198 267.0 198.0Q268 198 268 197V195L269 196Q270 197 271.5 196.5Q273 196 272 195L269 191ZM284 188Q285 187 283.5 186.0Q282 185 281 186L279 189L276 186Q275 185 273.5 186.0Q272 187 273 188L277 191L273 195Q272 196 273.5 196.5Q275 197 276 196L278 195V197Q278 198 279.0 198.0Q280 198 280 197V195L281 196Q282 197 283.5 196.5Q285 196 284 195L281 191Z" fill="#630810" />
</g></svg>