<svg xmlns="http://www.w3.org/2000/svg" viewBox="0 0 2048 2048">
<g transform="matrix(1 0 0 -1 0 2048)">
<path d="M512 64Q512 40 495.5 23.5Q479 7 455 7H57Q33 7 16.5 23.5Q0 40 0 64V320Q0 344 16.5 360.5Q33 377 57 377H455Q479 377 495.5 360.5Q512 344 512 320Z" fill="#e30917" />
<path d="M228 107Q255 107 277 123Q246 87 199 87Q156 87 125.5 118.0Q95 149 95.0 192.0Q95 235 125.5 266.0Q156 297 199 297Q246 297 277 261Q255 277 228 277Q192 277 167.0 252.0Q142 227 142.0 192.0Q142 157 167.0 132.0Q192 107 228 107ZM283 189 316 203 313 238 336 211 369 225 351 195 374 168 339 176 321 145 318 181Z" fill="#eeeeee" />
</g></svg>