<svg xmlns="http://www.w3.org/2000/svg" viewBox="0 0 2048 2048">
<g transform="matrix(1 0 0 -1 0 2048)">
<path d="M455 377Q479 377 495.5 360.5Q512 344 512 320V192H0V320Q0 344 16.5 360.5Q33 377 57 377Z" fill="#d21034" />
<path d="M57 7Q33 7 16.5 23.5Q0 40 0 64V192H512V64Q512 40 495.5 23.5Q479 7 455 7Z" fill="#009543" />
<path d="M242 235H512V149H242L25 17Q15 24 8 35Q0 48 0 64V320Q0 336 8 349Q14 360 25 367Z" fill="#141414" />
<path d="M8 349 242 206H512V178H242L8 35Q0 48 0 64L213 192L0 320Q0 336 8 349Z" fill="#fdce12" />
<path d="M62 141 63 160Q78 159 88 177Q95 187 91.0 201.5Q87 216 72 220Q54 226 43.0 212.0Q32 198 41 184Q49 170 65.5 172.0Q82 174 87 194Q88 180 79.5 172.5Q71 165 60 165Q49 165 37.5 173.0Q26 181 26 198Q26 216 38.0 226.5Q50 237 65 237Q81 237 94.5 225.0Q108 213 108 193Q108 173 96.5 160.0Q85 147 74 144Z" fill="#fdce12" />
<path d="M76 192 79 182Q75 183 72 186Q71 188 69.5 189.5Q68 191 66.5 193.0Q65 195 64 197Q63 195 61.0 193.0Q59 191 58.0 189.5Q57 188 56 186L49 182Q48 188 51 192Q54 196 60 201Q57 204 53.5 206.5Q50 209 49.0 210.0Q48 211 49 211Q52 213 64 204Q76 213 79 211Q79 211 78.0 210.0Q77 209 73.5 206.5Q70 204 67 201Q73 196 76 192Z" fill="#fdce12" />
</g></svg>