<svg xmlns="http://www.w3.org/2000/svg" viewBox="0 0 512 512">
<g transform="matrix(1 0 0 -1 0 512)">
<path d="M512 64Q512 40 495.5 23.5Q479 7 455 7H57Q33 7 16.5 23.5Q0 40 0 64V320Q0 344 16.5 360.5Q33 377 57 377H455Q479 377 495.5 360.5Q512 344 512 320Z" fill="#dd2e44" />
<path d="M498 64Q498 46 485.5 33.5Q473 21 455 21H57Q39 21 26.5 33.5Q14 46 14 64V320Q14 338 26.5 350.5Q39 363 57 363H455Q473 363 485.5 350.5Q498 338 498 320Z" fill="#00297b" />
<path d="M249 69Q224 90 210.0 104.0Q196 118 182.5 141.5Q169 165 169.0 189.0Q169 213 182.5 237.0Q196 261 210.0 275.0Q224 289 249 309Q274 289 288.0 275.0Q302 261 315.5 237.0Q329 213 329.0 189.0Q329 165 315.5 141.5Q302 118 288.0 104.0Q274 90 249 69Z" fill="#dd2e44" />
<path d="M181 169H317Q311 145 294.0 125.0Q277 105 249 81Q231 96 220.0 106.5Q209 117 197.0 134.5Q185 152 181 169Z" fill="#017bdd" />
<path d="M317 169H181Q179 179 179 189Q179 211 190.5 232.5Q202 254 214.5 266.5Q227 279 249 298Q271 279 283.5 266.5Q296 254 308.0 232.5Q320 211 320 189Q320 179 317 169Z" fill="#66afeb" />
<path d="M319 183Q319 176 317 169H235Q236 170 237.0 173.5Q238 177 239 179Q284 173 319 183Z" fill="#9c8431" />
<path d="M212 115Q202 126 195 136Q232 135 243 124Q245 123 245.0 122.0Q245 121 243 122Q229 124 212 115Z" fill="#fff100" />
<path d="M310 149Q296 121 249 81Q235 92 228 100Q233 107 249.0 109.5Q265 112 265 119Q265 125 260.0 129.0Q255 133 248 133Q244 134 247 135Q252 140 264.5 139.5Q277 139 288 143Q304 151 310 149Z" fill="#fff100" />
<path d="M264 242Q274 241 281.5 234.5Q289 228 288 218Q286 221 285 224Q285 222 285 221Q285 223 283 226Q283 225 282 224Q281 228 280 229Q280 227 280 226Q279 229 278 231Q278 231 277 228Q277 229 275 233Q275 232 274 230Q273 232 272 234Q272 233 272 231Q271 233 269 235Q270 233 269 231Q268 234 265 236Q265 235 265 234Q264 235 261 237Q262 235 262 234Q261 235 257 237Q260 234 261 232Q259 233 258 233Q261 231 263 229Q261 229 260 229Q264 227 265 225Q264 225 263 226Q265 224 266 221Q266 221 264 222Q266 219 266 216Q266 217 265 217Q266 216 266 213Q266 213 265 214Q267 210 265 207Q265 209 264 212Q263 212 263 210Q261 213 262 216Q261 215 261 214Q260 214 260.0 216.5Q260 219 260 220Q260 220 259.5 219.0Q259 218 259 218Q259 218 258.5 220.5Q258 223 258 224Q257 223 257 222Q256 225 257 227Q256 227 256 225Q256 227 256 230Q255 229 255 228Q254 232 254 233Q254 232 254 232Q253 231 253 231Q253 231 253 232Q251 236 250 237Q247 234 246 231Q246 231 245 232Q245 228 245 227Q243 228 243 229Q243 226 243 224Q242 225 242 225Q242 224 242 220Q241 221 240 223Q240 222 240.0 220.5Q240 219 240 218Q239 219 239 220Q239 217 240 215Q239 216 238 217Q238 213 239 211Q238 212 237 213Q237 208 237 208Q236 208 236 209Q236 209 236 208Q235 206 235 205Q234 207 235 210Q233 209 233 209Q233 211 234 213Q232 211 232 211Q233 214 235 217Q233 216 232 216Q234 221 236 222Q236 222 235.0 221.5Q234 221 234 221Q235 224 237 226Q235 226 235 225Q236 228 238 230L236 229Q241 235 242 236Q239 235 236 232Q237 235 237 236Q233 232 231 230Q232 233 232 234Q229 231 228 228Q228 230 228 231Q226 229 224 226Q224 228 224 229Q222 225 221 224Q221 225 221 226Q219 223 218 221Q218 223 218 224Q216 222 214 219Q214 224 220.5 231.0Q227 238 235 241Q231 241 229 240Q229 241 230 242Q227 242 224 241Q224 241 225 243Q225 243 223 242Q220 240 219 240Q219 240 220 242Q217 240 215 238Q215 240 216 241Q213 239 210 237Q210 237 210.5 238.0Q211 239 211 239Q210 239 208.5 238.0Q207 237 206 236Q206 236 206.5 237.0Q207 238 207 239Q206 238 203.5 236.5Q201 235 200 235Q208 245 220.5 248.0Q233 251 244 245Q243 246 240 249Q240 249 242 249Q242 249 240.0 250.0Q238 251 238 251Q240 251 240 251Q239 253 236 254Q238 254 238 254Q237 256 234 257Q234 257 235.0 257.0Q236 257 236 257Q235 258 233.0 259.0Q231 260 231 260Q231 260 233 260Q231 261 229 263Q229 263 230.0 263.0Q231 263 231 263Q229 265 226 266Q239 265 247 252Q248 251 250 251Q247 255 246 256Q248 256 249 255Q247 258 245 260Q248 260 248 260Q247 261 244 264Q245 264 247 263Q247 263 245.5 264.5Q244 266 244 267Q245 267 246 266Q244 268 242 270Q243 270 243.5 270.0Q244 270 245 270Q243 272 241 274Q242 274 243 274Q241 277 240 278Q240 278 241 278Q241 278 240.5 279.5Q240 281 239 282Q241 280 243 278Q243 280 243 280Q245 277 246 275Q246 275 246 276Q246 278 246 279Q248 276 248 271Q249 273 249 275Q251 269 250 267Q250 267 250.5 268.0Q251 269 252 269Q253 266 252 262Q253 265 254 265Q254 264 254.0 262.0Q254 260 253 259L255 260Q255 260 255.5 257.0Q256 254 256 253Q264 266 281 266Q279 264 277 264Q279 263 279 263Q275 262 274 262Q274 262 275.0 261.5Q276 261 277 261Q273 260 271 261Q272 260 273.0 259.0Q274 258 274 258Q273 258 270 258Q270 258 272 257Q270 257 267 257Q267 257 268 256Q269 255 269 255Q264 254 264 255Q264 254 266 253Q265 253 263.5 251.5Q262 250 261 250Q268 253 278.0 251.0Q288 249 291 243Q290 244 288.0 245.0Q286 246 285 246Q286 246 286 244Q286 244 284.0 245.0Q282 246 282 247Q282 246 283 245Q283 245 281.5 245.5Q280 246 280 247Q280 246 280.0 245.5Q280 245 281 244Q280 244 277 247Q277 246 277.0 245.0Q277 244 278 244Q277 245 274 247Q274 246 275 244Q272 245 271 246Q271 245 272 244Q271 244 269 245Q268 245 268 245Q268 245 270 243Q269 243 266 244Q266 244 266.5 243.5Q267 243 267 243Q264 243 263 244Q264 242 264 242Z" fill="#029270" />
<path d="M240 154Q241 149 230 148V146Q232 146 233 146Q233 143 220.5 143.0Q208 143 209 146Q210 146 212 146V148Q201 149 201 154Q204 154 209.5 153.0Q215 152 221 152Q222 152 225 152Q225 184 225.5 184.0Q226 184 226 152Q228 153 232.5 153.5Q237 154 240 154ZM228 146V148Q224 147 220.5 147.0Q217 147 214 148L213 146Q216 145 221.0 145.0Q226 145 228 146Z" fill="#7b4800" />
<path d="M251 239Q251 236 250.5 214.5Q250 193 251.0 181.0Q252 169 259.5 153.5Q267 138 280 131Q285 129 280 125Q278 124 275 125Q262 133 255.5 149.5Q249 166 248.0 179.0Q247 192 248.0 213.5Q249 235 249 239Z" fill="#7b4800" />
<path d="M248.0 235.0Q245 235 245.0 238.0Q245 241 248.0 241.0Q251 241 251.0 238.0Q251 235 248.0 235.0Z" fill="#7b4800" />
<path d="M251.5 236.0Q249 236 249.0 239.0Q249 242 251.5 242.0Q254 242 254.0 239.0Q254 236 251.5 236.0Z" fill="#7b4800" />
<path d="M253.0 239.0Q250 239 250.0 241.5Q250 244 253.0 244.0Q256 244 256.0 241.5Q256 239 253.0 239.0Z" fill="#7b4800" />
<path d="M248.0 240.0Q245 240 245.0 242.5Q245 245 248.0 245.0Q251 245 251.0 242.5Q251 240 248.0 240.0Z" fill="#7b4800" />
<path d="M211 182Q226 178 236 154Q229 156 206 154Q214 169 211 182Z" fill="#ffffff" />
<path d="M211 198Q210 201 207 201Q203 201 203.0 194.5Q203 188 208 188Q211 188 211 192H208V195H214V185H212Q212 187 212 188Q210 185 207 185Q200 184 200 195Q200 204 207 204Q214 204 214 198ZM237 191V204H240V192Q240 185 234.0 185.0Q228 185 228 192V204H231V191Q231 188 234.0 188.0Q237 188 237 191ZM264 192V189H261L260 185H257L262 204H266L271 185H268L267 189H264V192H266L264 200L262 192ZM289 185 286 200V185H283V204H288L291 189L294 204H299V185H295V200L292 185Z" fill="#dd2e44" />
</g></svg>