<svg xmlns="http://www.w3.org/2000/svg" viewBox="0 0 512 512">
<g transform="matrix(1 0 0 -1 0 512)">
<path d="M142 377V235H0V320Q0 344 16.5 360.5Q33 377 57 377ZM455 377Q479 377 495.5 360.5Q512 344 512 320V235H228V377ZM142 7H57Q33 7 16.5 23.5Q0 40 0 64V149H142ZM455 7H228V149H512V64Q512 40 495.5 23.5Q479 7 455 7Z" fill="#003897" />
<path d="M206 377V213H512V171H206V7H164V171H0V213H164V377Z" fill="#d72828" />
<path d="M206 7V171H512V149H228V7ZM228 377V235H512V213H206V377ZM164 377V213H0V235H142V377ZM0 171H164V7H142V149H0Z" fill="#eeeeee" />
</g></svg>