<svg xmlns="http://www.w3.org/2000/svg" viewBox="0 0 2048 2048">
<g transform="matrix(1 0 0 -1 0 2048)">
<path d="M0 64V135H512V64Q512 40 495.5 23.5Q479 7 455 7H57Q33 7 16.5 23.5Q0 40 0 64Z" fill="#138808" />
<path d="M512 249H0V320Q0 344 16.5 360.5Q33 377 57 377H455Q479 377 495.5 360.5Q512 344 512 320Z" fill="#ff9933" />
<path d="M0 254H512V130H0Z" fill="#f7f7f7" />
<path d="M215.5 151.5Q199 168 199.0 192.0Q199 216 215.5 232.5Q232 249 256.0 249.0Q280 249 296.5 232.5Q313 216 313.0 192.0Q313 168 296.5 151.5Q280 135 256.0 135.0Q232 135 215.5 151.5Z" fill="#000080" />
<path d="M222.0 158.0Q208 172 208.0 192.0Q208 212 222.0 226.0Q236 240 256.0 240.0Q276 240 290.0 226.0Q304 212 304.0 192.0Q304 172 290.0 158.0Q276 144 256.0 144.0Q236 144 222.0 158.0Z" fill="#f7f7f7" />
<path d="M257 210 256 201 255 210 256 238ZM244 236 253 210 254 200 250 209ZM233 231 248 208 252 199 246 207ZM224 224 244 206 250 198 242 204ZM217 215 241 202 249 196 240 200ZM212 204 239 198 248 194 238 195ZM210 192 238 193 247 192 238 191ZM212 180 238 189 248 190 239 186ZM217 169 240 184 249 188 241 182ZM224 160 242 180 250 186 244 178ZM233 153 246 177 252 185 248 176ZM244 148 250 175 254 184 253 174ZM256 146 255 174 256 183 257 174ZM268 148 259 174 258 184 262 175ZM279 153 264 176 260 185 266 177ZM288 160 268 178 262 186 270 180ZM295 169 271 182 263 188 272 184ZM300 180 273 186 264 190 274 189ZM302 192 274 191 265 192 274 193ZM300 204 274 195 264 194 273 198ZM295 215 272 200 263 196 271 202ZM288 224 270 204 262 198 268 206ZM279 231 266 207 260 199 264 208ZM268 236 262 209 258 200 259 210Z" fill="#6666b3" />
<path d="M250.0 237.0Q247 237 247.0 239.5Q247 242 250.0 242.0Q253 242 253.0 239.5Q253 237 250.0 237.0ZM237.5 233.0Q235 233 235.0 236.0Q235 239 237.5 239.0Q240 239 240.0 236.0Q240 233 237.5 233.0ZM227.0 227.0Q224 227 224.0 230.0Q224 233 227.0 233.0Q230 233 230.0 230.0Q230 227 227.0 227.0ZM218.0 218.0Q215 218 215.0 221.0Q215 224 218.0 224.0Q221 224 221.0 221.0Q221 218 218.0 218.0ZM212.0 208.0Q209 208 209.0 210.5Q209 213 212.0 213.0Q215 213 215.0 210.5Q215 208 212.0 208.0ZM208.5 195.0Q206 195 206.0 198.0Q206 201 208.5 201.0Q211 201 211.0 198.0Q211 195 208.5 195.0ZM208.5 183.0Q206 183 206.0 186.0Q206 189 208.5 189.0Q211 189 211.0 186.0Q211 183 208.5 183.0ZM212.0 171.0Q209 171 209.0 173.5Q209 176 212.0 176.0Q215 176 215.0 173.5Q215 171 212.0 171.0ZM218.0 160.0Q215 160 215.0 163.0Q215 166 218.0 166.0Q221 166 221.0 163.0Q221 160 218.0 160.0ZM227.0 151.0Q224 151 224.0 154.0Q224 157 227.0 157.0Q230 157 230.0 154.0Q230 151 227.0 151.0ZM237.5 145.0Q235 145 235.0 148.0Q235 151 237.5 151.0Q240 151 240.0 148.0Q240 145 237.5 145.0ZM250.0 142.0Q247 142 247.0 144.5Q247 147 250.0 147.0Q253 147 253.0 144.5Q253 142 250.0 142.0ZM262.0 142.0Q259 142 259.0 144.5Q259 147 262.0 147.0Q265 147 265.0 144.5Q265 142 262.0 142.0ZM274.5 145.0Q272 145 272.0 148.0Q272 151 274.5 151.0Q277 151 277.0 148.0Q277 145 274.5 145.0ZM285.0 151.0Q282 151 282.0 154.0Q282 157 285.0 157.0Q288 157 288.0 154.0Q288 151 285.0 151.0ZM294.0 160.0Q291 160 291.0 163.0Q291 166 294.0 166.0Q297 166 297.0 163.0Q297 160 294.0 160.0ZM300.0 171.0Q297 171 297.0 173.5Q297 176 300.0 176.0Q303 176 303.0 173.5Q303 171 300.0 171.0ZM303.5 183.0Q301 183 301.0 186.0Q301 189 303.5 189.0Q306 189 306.0 186.0Q306 183 303.5 183.0ZM303.5 195.0Q301 195 301.0 198.0Q301 201 303.5 201.0Q306 201 306.0 198.0Q306 195 303.5 195.0ZM300.0 208.0Q297 208 297.0 210.5Q297 213 300.0 213.0Q303 213 303.0 210.5Q303 208 300.0 208.0ZM294.0 218.0Q291 218 291.0 221.0Q291 224 294.0 224.0Q297 224 297.0 221.0Q297 218 294.0 218.0ZM285.0 227.0Q282 227 282.0 230.0Q282 233 285.0 233.0Q288 233 288.0 230.0Q288 227 285.0 227.0ZM274.5 233.0Q272 233 272.0 236.0Q272 239 274.5 239.0Q277 239 277.0 236.0Q277 233 274.5 233.0ZM262.0 237.0Q259 237 259.0 239.5Q259 242 262.0 242.0Q265 242 265.0 239.5Q265 237 262.0 237.0ZM247.0 183.0Q243 187 243.0 192.0Q243 197 247.0 201.0Q251 205 256.0 205.0Q261 205 265.0 201.0Q269 197 269.0 192.0Q269 187 265.0 183.0Q261 179 256.0 179.0Q251 179 247.0 183.0Z" fill="#000080" />
</g></svg>