<svg xmlns="http://www.w3.org/2000/svg" viewBox="0 0 512 512">
<g transform="matrix(1 0 0 -1 0 512)">
<path d="M455 377Q479 377 495.5 360.5Q512 344 512 320V64Q512 40 495.5 23.5Q479 7 455 7H139V377Z" fill="#0092c8" />
<path d="M480 253Q485 264 489 265Q491 266 491.0 263.5Q491 261 489 257Q484 249 461 204Q466 200 462 192Q460 188 457.0 185.5Q454 183 453 182H451Q450 160 428 141Q439 137 448 114Q449 113 403.0 110.0Q357 107 310.0 105.5Q263 104 261 105Q243 116 218 141Q206 153 195.5 156.0Q185 159 184 161Q181 166 187 169L168 179Q167 179 165.0 179.5Q163 180 160.5 182.0Q158 184 160 188Q162 191 164.5 190.0Q167 189 169 187L171 184L204 169Q206 169 207 168Q225 159 225 166Q225 168 224 171Q223 176 222.5 181.5Q222 187 222 189V192Q216 192 216 198Q216 205 229 206L233 222Q231 222 230 222Q225 222 221.5 218.5Q218 215 217 211L216 207Q214 209 212.5 212.5Q211 216 209.0 226.5Q207 237 211 246L223 276L251 284L257 302Q248 302 240 300Q235 298 228.0 299.5Q221 301 216 304L212 306Q225 305 233 308Q230 309 226.0 312.0Q222 315 219 317L217 320Q220 319 223.5 318.5Q227 318 236.5 316.5Q246 315 249 318Q255 321 262 320Q262 320 261.5 323.0Q261 326 262.5 328.5Q264 331 267.5 330.0Q271 329 271.0 326.0Q271 323 270 320L268 318L259 286Q278 291 290.5 295.0Q303 299 303 299Q302 299 294.0 293.0Q286 287 275.0 276.5Q264 266 258.0 255.5Q252 245 250.5 233.5Q249 222 250 216L252 209Q247 215 240 219L237 206Q254 206 254 198L249 192Q255 169 284 156L291 177Q285 176 281.0 173.5Q277 171 275 169L274 167Q273 168 272.0 170.5Q271 173 268.5 181.0Q266 189 264.5 196.5Q263 204 264.0 213.0Q265 222 268 229L288 264L324 277L335 313Q326 313 318 310Q313 309 306.0 310.5Q299 312 294 314L289 316Q303 315 310 319Q307 319 303.5 322.0Q300 325 297 328L295 330Q297 330 301.0 329.0Q305 328 314.5 327.0Q324 326 327 328Q334 331 341 330Q341 330 341.0 332.5Q341 335 342.5 337.0Q344 339 347 338Q350 336 350.0 334.0Q350 332 348 330L346 328L332 280L372 295Q341 259 338 224Q335 192 354 149Q360 149 367 151L377 185Q373 183 370.0 179.0Q367 175 366.0 171.5Q365 168 364.5 165.0Q364 162 364 160V158Q362 161 359.0 166.5Q356 172 352.0 189.5Q348 207 350.5 223.5Q353 240 358.0 253.0Q363 266 367 270L372 274L407 285L415 313Q403 313 394 310Q389 309 382.0 310.5Q375 312 371 314L366 316Q380 315 387 319Q384 319 380.0 322.0Q376 325 374 328L372 330Q374 330 377.5 329.0Q381 328 391.0 327.0Q401 326 404 328Q411 332 420 329Q422 337 425 335Q427 334 427.0 330.5Q427 327 426 324L425 321L415 287L454 299Q420 274 410 240Q406 226 405.5 212.0Q405 198 407 191L408 185Q407 186 405.0 186.5Q403 187 397.5 188.5Q392 190 387 189L377 154Q391 158 400.5 165.0Q410 172 413 177L416 182Q409 186 416 196Q425 209 445 209Q451 209 455 208Q468 230 468 232Q468 233 459.0 234.0Q450 235 441 235H432L444 260Q463 259 480 253ZM331 147Q343 147 354 149Q329 170 307 176Q306 177 302 177L295 152Q311 147 331 147Z" fill="#ffcc4d" />
<path d="M493 120Q498 117 503.0 116.0Q508 115 510 115L512 116V107Q504 103 493 111Q485 117 478.5 116.0Q472 115 470 109Q467 98 446 112Q429 125 425 110Q424 104 416.0 104.0Q408 104 399 111Q390 116 383.0 114.0Q376 112 372 107Q369 102 364.5 102.0Q360 102 349 108Q330 121 321 104Q316 95 299 107Q283 118 270 107Q260 98 246 107Q230 117 221 108Q217 104 215.0 102.0Q213 100 207.0 100.5Q201 101 193 107Q188 111 184.0 112.5Q180 114 176.0 113.0Q172 112 170.0 111.5Q168 111 163.5 107.5Q159 104 159 104Q154 101 150.5 103.0Q147 105 145 109L142 112V122Q143 120 144.5 118.0Q146 116 150.5 112.5Q155 109 159 113Q159 113 163.5 116.5Q168 120 170.0 120.5Q172 121 176.0 122.5Q180 124 184.0 122.0Q188 120 193 117Q201 111 207.0 110.5Q213 110 215.0 111.5Q217 113 221 117Q230 126 246 116Q260 107 270 116Q283 127 299 116Q316 105 321 114Q330 130 349 118Q360 111 364.5 111.0Q369 111 372 116Q376 122 383.0 123.5Q390 125 399 120Q408 114 416.0 113.5Q424 113 425 120Q429 134 446 122Q467 107 470 118Q472 124 478.5 125.0Q485 126 493 120Z" fill="#000000" />
<path d="M493 111Q498 108 503.0 106.5Q508 105 510 106L512 107V98Q504 94 493 102Q485 108 478.5 107.0Q472 106 470 100Q467 89 446 104Q429 116 425 101Q424 95 416.0 95.0Q408 95 399 102Q390 107 383.0 105.0Q376 103 372 98Q369 93 364.5 93.0Q360 93 349 100Q330 112 321 96Q316 86 299 98Q283 109 270 98Q260 89 246 98Q230 108 221 99Q217 95 215.0 93.0Q213 91 207.0 91.5Q201 92 193 98Q188 102 184.0 103.5Q180 105 176.0 104.0Q172 103 170.0 102.5Q168 102 163.5 98.5Q159 95 159 95Q154 92 150.5 94.0Q147 96 145 100L142 104V112Q143 111 144.5 109.0Q146 107 150.5 103.5Q155 100 159 104Q159 104 163.5 107.5Q168 111 170.0 111.5Q172 112 176.0 113.0Q180 114 184.0 112.5Q188 111 193 107Q201 101 207.0 100.5Q213 100 215.0 102.0Q217 104 221 108Q230 117 246 107Q260 98 270 107Q283 118 299 107Q316 95 321 104Q330 121 349 108Q360 102 364.5 102.0Q369 102 372 107Q376 112 383.0 114.0Q390 116 399 111Q408 104 416.0 104.0Q424 104 425 110Q429 125 446 112Q467 98 470 109Q472 115 478.5 116.0Q485 117 493 111ZM173 79Q185 92 201 79Q204 76 207.0 75.5Q210 75 211.5 75.5Q213 76 217.0 78.5Q221 81 222 82Q228 86 235.5 85.5Q243 85 245 80Q246 77 243.0 77.0Q240 77 235.0 78.0Q230 79 226 75Q209 60 194 75Q189 80 172 76Q170 76 173 79ZM272 77Q288 71 301 80Q313 87 328 74Q340 65 357 74Q358 75 361.5 77.0Q365 79 366.5 80.0Q368 81 371.0 82.0Q374 83 376.5 83.0Q379 83 382.0 82.5Q385 82 388 81Q406 73 414 76L416 75Q413 69 401 71Q397 72 388.5 74.5Q380 77 377.5 77.0Q375 77 366 74Q341 57 326.5 69.0Q312 81 300 74Q288 66 279 71L270 77ZM443 77Q452 72 459 77Q464 81 476 74Q484 70 482 68Q481 67 476 69Q474 69 470.0 71.5Q466 74 464.5 74.0Q463 74 459 73Q448 67 443 73Q440 78 441 78Q442 78 443 77ZM214 56Q233 66 242 56Q249 48 259 54Q260 55 261 56Q274 65 284 59Q294 52 303 56Q306 58 307 57Q309 56 303 53Q291 46 282 53Q272 61 264 52Q250 39 239 50Q231 58 222.5 54.0Q214 50 212 53Q211 54 214 56ZM350 54Q351 54 353.5 55.5Q356 57 357.5 57.5Q359 58 361.5 59.5Q364 61 365.5 61.0Q367 61 369.5 61.5Q372 62 373.5 61.5Q375 61 377.0 60.0Q379 59 381 57Q390 51 393.5 52.0Q397 53 404 58Q405 58 408.5 60.5Q412 63 413.0 63.5Q414 64 416.5 65.0Q419 66 421.0 66.0Q423 66 426.0 65.0Q429 64 432 62Q445 51 456 56Q459 57 459 57Q461 56 456 53Q455 52 452 52Q438 48 429 56Q419 65 409 54Q403 48 392.5 47.0Q382 46 377 51Q371 57 356 51Q347 47 346 50ZM164 47Q172 54 185 41Q194 32 206 38Q221 47 229 39Q232 35 231.0 34.0Q230 33 226 35Q216 39 209 32Q203 27 195.0 27.0Q187 27 182 32Q172 44 168 42Q163 41 161.0 41.5Q159 42 164 47ZM287 38Q299 51 312 38Q320 31 323.5 30.5Q327 30 332 35Q350 46 360 37Q366 31 371.0 31.0Q376 31 382 35Q398 44 407 37Q421 27 432 33Q438 37 438.5 35.5Q439 34 434 30Q420 19 408 30Q398 41 384 31Q368 19 357 32Q349 40 338 32Q322 18 312 32Q304 43 292 36Q286 32 284 33Q283 34 287 38Z" fill="#bbddf5" />
<path d="M0 135H142V7H57Q33 7 16.5 23.5Q0 40 0 64Z" fill="#ca0000" />
<path d="M116 98Q119 99 122.0 96.0Q125 93 125.0 89.5Q125 86 120 84Q115 82 112.5 83.0Q110 84 108.5 86.0Q107 88 108 90Q109 91 104 90Q95 88 92 90Q94 81 86 81Q74 81 72 83Q68 88 71 90L58 89Q57 81 44 81Q42 81 37.0 81.0Q32 81 30.5 81.0Q29 81 26.5 81.5Q24 82 23.0 83.5Q22 85 22 87Q22 96 33 94H40Q40 97 39 98Q32 97 28.0 99.5Q24 102 23 105L22 108Q21 109 19.0 109.5Q17 110 16.0 111.5Q15 113 15 116Q15 121 16.0 122.0Q17 123 21 123Q22 123 22 123Q34 123 34 116Q35 110 39 111Q40 121 50 121Q56 121 59.5 118.0Q63 115 63 112L64 110L74 108Q74 108 77.5 108.5Q81 109 83 109Q90 119 107 115L119 110Q118 109 116.5 108.0Q115 107 111.5 106.0Q108 105 104 105Q103 105 101.0 105.5Q99 106 96.5 106.5Q94 107 93 108Q96 106 98 104Q106 94 116 98ZM116 48Q119 49 122.0 46.0Q125 43 125.0 39.5Q125 36 120 34Q115 32 112.5 33.0Q110 34 108.5 36.0Q107 38 108 40Q109 41 104 40Q95 38 92 40Q94 31 86 31Q74 31 72 33Q68 38 71 40L58 39Q57 31 44 31Q42 31 37.0 31.0Q32 31 30.5 31.0Q29 31 26.5 31.5Q24 32 23.0 33.5Q22 35 22 37Q22 46 33 44H40Q40 47 39 48Q32 47 28.0 49.5Q24 52 23 55L22 58Q21 59 19.0 59.5Q17 60 16.0 61.5Q15 63 15 66Q15 71 16.0 72.0Q17 73 21 73Q22 73 22 73Q34 73 34 66Q35 60 39 61Q40 71 50 71Q56 71 59.5 68.0Q63 65 63 62L64 60L74 58Q74 58 77.5 58.5Q81 59 83 59Q90 69 107 65L119 60Q118 59 116.5 58.0Q115 57 111.5 56.0Q108 55 104 55Q103 55 101.0 55.5Q99 56 96.5 56.5Q94 57 93 58Q96 56 98 54Q106 44 116 48Z" fill="#ffcc4d" />
<path d="M48.0 99.0Q44 99 44.0 103.0Q44 107 48.0 107.0Q52 107 52.0 103.0Q52 99 48.0 99.0ZM45.0 113.0Q48 113 48.0 111.0Q48 109 45.0 109.0Q42 109 42.0 111.0Q42 113 45.0 113.0ZM52.0 109.0Q49 109 49.0 111.0Q49 113 52.0 113.0Q55 113 55.0 111.0Q55 109 52.0 109.0ZM48.0 57.0Q52 57 52.0 53.0Q52 49 48.0 49.0Q44 49 44.0 53.0Q44 57 48.0 57.0ZM45.0 63.0Q48 63 48.0 61.0Q48 59 45.0 59.0Q42 59 42.0 61.0Q42 63 45.0 63.0ZM52.0 63.0Q55 63 55.0 61.0Q55 59 52.0 59.0Q49 59 49.0 61.0Q49 63 52.0 63.0Z" fill="#000000" />
<path d="M0 249H142V135H0Z" fill="#eeeeee" />
<path d="M30 202Q31 199 28 199H25Q25 196 24.0 196.0Q23 196 22 199H20Q16 199 18 202L22 208Q22 216 23.5 216.0Q25 216 26 208ZM26 223Q26 220 24.0 220.0Q22 220 22 223Q22 229 24.0 229.0Q26 229 26 223ZM28 216Q25 216 25.0 218.0Q25 220 28 220Q35 220 35.0 218.0Q35 216 28 216ZM19 216Q13 216 13.0 218.0Q13 220 19 220Q22 220 22.0 218.0Q22 216 19 216ZM74 202Q76 199 73 199H70Q69 196 68.5 196.0Q68 196 67 199H64Q61 199 63 202L67 208Q67 216 68.5 216.0Q70 216 70 208ZM70 223Q70 220 68.5 220.0Q67 220 67 223Q67 229 68.5 229.0Q70 229 70 223ZM73 216Q70 216 70.0 218.0Q70 220 73 220Q79 220 79.0 218.0Q79 216 73 216ZM64 216Q58 216 58.0 218.0Q58 220 64 220Q67 220 67.0 218.0Q67 216 64 216ZM120 202Q122 199 118 199H116Q115 196 114.0 196.0Q113 196 113 199H110Q107 199 108 202L112 208Q113 216 114.5 216.0Q116 216 116 208ZM116 223Q116 220 114.0 220.0Q112 220 112 223Q112 229 114.0 229.0Q116 229 116 223ZM119 216Q116 216 116.0 218.0Q116 220 119 220Q125 220 125.0 218.0Q125 216 119 216ZM110 216Q104 216 104.0 218.0Q104 220 110 220Q113 220 113.0 218.0Q113 216 110 216ZM85 239 89 245Q89 247 89 249H92Q93 247 93 245L97 239Q98 237 95 237H92Q92 233 91.0 233.0Q90 233 89 237H87Q84 237 85 239ZM40 239 44 245Q44 247 45 249H48Q48 247 48 245L52 239Q54 237 50 237H48Q47 233 46.0 233.0Q45 233 45 237H42Q39 237 40 239ZM5 186Q5 183 3.0 183.0Q1 183 1 186Q1 192 3.0 192.0Q5 192 5 186ZM8 179Q5 179 5.0 181.0Q5 183 8 183Q14 183 14.0 181.0Q14 179 8 179ZM2 236H0V243L1 245Q1 247 2 249H5Q5 247 5 245L9 239Q11 236 7 236H5Q4 233 3.0 233.0Q2 233 2 236ZM2 163H0V169L1 171Q2 180 3.5 180.0Q5 180 5 171L9 165Q11 163 7 163H5Q4 159 3.0 159.0Q2 159 2 163ZM0 179V183Q2 183 2.0 181.0Q2 179 0 179ZM52 165Q54 163 51 163H48Q47 159 46.5 159.0Q46 159 45 163H42Q39 163 41 165L45 171Q45 180 46.5 180.0Q48 180 48 171ZM48 186Q48 183 46.5 183.0Q45 183 45 186Q45 192 46.5 192.0Q48 192 48 186ZM51 179Q48 179 48.0 181.0Q48 183 51 183Q57 183 57.0 181.0Q57 179 51 179ZM42 179Q36 179 36.0 181.0Q36 183 42 183Q45 183 45.0 181.0Q45 179 42 179ZM97 165Q99 163 95 163H93Q92 159 91.0 159.0Q90 159 90 163H87Q84 163 86 165L90 171Q90 180 91.5 180.0Q93 180 93 171ZM93 186Q93 183 91.0 183.0Q89 183 89 186Q89 192 91.0 192.0Q93 192 93 186ZM96 179Q93 179 93.0 181.0Q93 183 96 183Q102 183 102.0 181.0Q102 179 96 179ZM87 179Q81 179 81.0 181.0Q81 183 87 183Q90 183 90.0 181.0Q90 179 87 179ZM139 186Q139 183 137.5 183.0Q136 183 136 186Q136 192 137.5 192.0Q139 192 139 186ZM131 239 135 245Q135 247 135 249H138Q138 247 138 245L142 239V237Q141 237 141 237H138Q138 233 137.0 233.0Q136 233 135 237H133Q129 237 131 239ZM139 171 142 166V163Q142 163 142 163H139Q138 159 137.5 159.0Q137 159 136 163H133Q130 163 132 165L136 171Q136 180 137.5 180.0Q139 180 139 171ZM142 183V179Q139 179 139.0 181.0Q139 183 142 183ZM133 179Q127 179 127.0 181.0Q127 183 133 183Q136 183 136.0 181.0Q136 179 133 179ZM113 135Q113 142 114.5 142.0Q116 142 116 135ZM116 148Q116 145 114.5 145.0Q113 145 113 148Q113 154 114.5 154.0Q116 154 116 148ZM119 141Q116 141 116.0 143.0Q116 145 119 145Q125 145 125.0 143.0Q125 141 119 141ZM110 141Q104 141 104.0 143.0Q104 145 110 145Q113 145 113.0 143.0Q113 141 110 141ZM71 148Q71 145 69.0 145.0Q67 145 67 148Q67 154 69.0 154.0Q71 154 71 148ZM74 141Q71 141 71.0 143.0Q71 145 74 145Q80 145 80.0 143.0Q80 141 74 141ZM64 141Q58 141 58.0 143.0Q58 145 64 145Q67 145 67.0 143.0Q67 141 64 141ZM67 135Q68 142 69.0 142.0Q70 142 71 135ZM22 135Q22 142 23.0 142.0Q24 142 25 135ZM25 148Q25 145 23.0 145.0Q21 145 21 148Q21 154 23.0 154.0Q25 154 25 148ZM28 141Q25 141 25.0 143.0Q25 145 28 145Q34 145 34.0 143.0Q34 141 28 141ZM19 141Q13 141 13.0 143.0Q13 145 19 145Q22 145 22.0 143.0Q22 141 19 141Z" fill="#292f33" />
<path d="M0 249V320Q0 344 16.5 360.5Q33 377 57 377L71 363L85 377H142V249H85L71 263L57 249Z" fill="#dc241f" />
<path d="M142 356 103 320 85 306 103 292 142 256V249H119L85 279L71 292L57 279L24 249H0V256L39 292L57 306L39 320L8 349Q13 358 22 365L57 333L71 320L85 333L134 377H142Z" fill="#009543" />
<path d="M85 320H142V292H85V249H57V292H0V320H57V377H85Z" fill="#eeeeee" />
</g></svg>