<svg xmlns="http://www.w3.org/2000/svg" viewBox="0 0 512 512">
<g transform="matrix(1 0 0 -1 0 512)">
<path d="M455 377Q479 377 495.5 360.5Q512 344 512 320V64Q512 40 495.5 23.5Q479 7 455 7H57Q33 7 16.5 23.5Q0 40 0 64V320Q0 344 16.5 360.5Q33 377 57 377Z" fill="#002a8f" />
<path d="M197 235 98 306H512V235ZM98 78 197 149H512V78Z" fill="#eeeeee" />
<path d="M197 235 256 192 197 149 98 78 20 21Q0 38 0 64V320Q0 346 20 363L98 306Z" fill="#cf142b" />
<path d="M107 183 118 150 89 171 60 150 71 183 43 204H78L89 238L100 204H135Z" fill="#ffffff" />
</g></svg>