<svg xmlns="http://www.w3.org/2000/svg" viewBox="0 0 2048 2048">
<g transform="matrix(1 0 0 -1 0 2048)">
<path d="M455 377Q479 377 495.5 360.5Q512 344 512 320V64Q512 40 495.5 23.5Q479 7 455 7H57Q33 7 16.5 23.5Q0 40 0 64V192H270V377Z" fill="#ce1126" />
<path d="M270 377V192H0V320Q0 344 16.5 360.5Q33 377 57 377ZM129 354H113L126 345L121 330L134 339L147 330L142 345L154 354H139L134 369ZM90 284 85 299 98 308H82L77 323L73 308H57L70 299L65 284L77 293ZM150 200 144 218 160 230H140L134 249L128 230H108L124 218L118 200L134 211ZM170 259 167 268 175 274H165L162 283L159 274H149L157 268L154 259L162 265ZM204 294 199 308 211 317H196L192 331L187 317H172L184 308L180 294L192 303Z" fill="#002b7f" />
<path d="M121 330 126 345 113 354H129L134 369L139 354H154L142 345L147 330L134 339ZM82 308H98L85 299L90 284L77 293L65 284L70 299L57 308H73L77 323ZM196 317H211L199 308L204 294L192 303L180 294L184 308L172 317H187L192 331ZM165 274H175L167 268L170 259L162 265L154 259L157 268L149 274H159L162 283ZM140 230H160L144 218L150 200L134 211L118 200L124 218L108 230H128L134 249Z" fill="#ffffff" />
</g></svg>