<svg xmlns="http://www.w3.org/2000/svg" viewBox="0 0 512 512">
<g transform="matrix(1 0 0 -1 0 512)">
<path d="M512 64Q512 40 495.5 23.5Q479 7 455 7H57Q33 7 16.5 23.5Q0 40 0 64V320Q0 344 16.5 360.5Q33 377 57 377H455Q479 377 495.5 360.5Q512 344 512 320Z" fill="#c4272f" />
<path d="M171 377H341V7H171Z" fill="#005197" />
<path d="M18 214H41V36H18ZM52 181H118V170H52ZM130 214H152V36H130ZM52 80H118V69H52ZM54 214H117L85 192ZM52 55H118L85 32ZM101.5 297.5Q108 291 108.0 281.5Q108 272 101.5 265.5Q95 259 85.5 259.0Q76 259 69.5 265.5Q63 272 63.0 281.5Q63 291 69.5 297.5Q76 304 85.5 304.0Q95 304 101.5 297.5ZM97 323Q97 309 85.5 309.0Q74 309 74 323Q74 331 78.5 339.5Q83 348 85.5 348.0Q88 348 92.5 339.5Q97 331 97 323Z" fill="#f9cf01" />
<path d="M129 264Q126 248 114.0 238.0Q102 228 85.5 228.0Q69 228 56.5 238.0Q44 248 41 264Q57 243 85.5 243.0Q114 243 129 264ZM122 125Q122 110 111.5 99.5Q101 89 87 89Q86 89 86 88H85V89Q78 89 73.5 94.0Q69 99 69.0 105.5Q69 112 73.5 117.0Q78 122 85 122V123Q107 123 107 144Q107 152 98 159Q122 150 122 125ZM86.0 111.0Q80 111 80.0 105.5Q80 100 86.0 100.0Q92 100 92.0 105.5Q92 111 86.0 111.0Z" fill="#f9cf01" />
<path d="M85 161Q92 161 97.0 156.0Q102 151 102.0 144.0Q102 137 97.0 132.0Q92 127 85 127Q64 127 64 105Q64 98 72 91Q49 100 49 125Q49 140 59.5 150.5Q70 161 84 161H85ZM79.0 144.0Q79 138 85.0 138.0Q91 138 91.0 144.0Q91 150 85.0 150.0Q79 150 79.0 144.0Z" fill="#f9cf01" />
</g></svg>