<svg xmlns="http://www.w3.org/2000/svg" viewBox="0 0 2048 2048">
<g transform="matrix(1 0 0 -1 0 2048)">
<path d="M15 26 498 358Q512 341 512 320V64Q512 40 495.5 23.5Q479 7 455 7H57Q32 7 15 26Z" fill="#009543" />
<path d="M497 358 14 26Q0 43 0 64V320Q0 344 16.5 360.5Q33 377 57 377H455Q480 377 497 358Z" fill="#003580" />
<path d="M512 320V319L66 7H57Q33 7 16.5 23.5Q0 40 0 64V65L446 377H455Q479 377 495.5 360.5Q512 344 512 320Z" fill="#eeeeee" />
<path d="M469 375Q501 367 510 335L44 9Q12 16 2 48Z" fill="#d20f34" />
<path d="M114 334 125 306 149 325 145 295 175 299 157 275 185 263 157 252 175 228 145 232 149 202 125 220 114 192 102 220 78 202 82 232 52 228 71 252 43 263 71 275 52 299 82 295 78 325 102 306Z" fill="#ffce00" />
<path d="M82.0 231.0Q69 244 69.0 263.0Q69 282 82.0 295.0Q95 308 113.5 308.0Q132 308 145.5 295.0Q159 282 159.0 263.0Q159 244 145.5 231.0Q132 218 113.5 218.0Q95 218 82.0 231.0Z" fill="#003580" />
<path d="M89.0 238.5Q79 249 79.0 263.5Q79 278 89.0 288.0Q99 298 113.5 298.0Q128 298 138.5 288.0Q149 278 149.0 263.5Q149 249 138.5 238.5Q128 228 113.5 228.0Q99 228 89.0 238.5Z" fill="#ffce00" />
</g></svg>