<svg xmlns="http://www.w3.org/2000/svg" viewBox="0 0 512 512">
<g transform="matrix(1 0 0 -1 0 512)">
<path d="M455 377Q479 377 495.5 360.5Q512 344 512 320V64Q512 40 495.5 23.5Q479 7 455 7H57Q33 7 16.5 23.5Q0 40 0 64V320Q0 337 9 351H48V376Q52 377 57 377Z" fill="#00247d" />
<path d="M128 78 111 62 112 85 89 89 108 102 97 123 119 116 128 138 137 116 159 123 148 102 167 89 144 85 145 62ZM398 312 386 302 387 317 372 319 385 328 377 341 392 337 398 351 403 337 418 341 410 328 423 319 408 317 409 302ZM341 227 329 216 330 232 315 234 328 243 320 256 335 252 341 266 346 252 361 256 353 243 366 234 351 232 352 216ZM469 255 457 245 458 260 443 262 456 271 448 285 463 280 469 294 474 280 489 285 481 271 494 262 479 260 480 245ZM398 56 386 45 387 61 372 63 385 72 377 85 392 81 398 95 403 81 418 85 410 72 423 63 408 61 409 45ZM441 220 445 212 454 211 448 204 449 195 441 199 433 195 434 204 427 211 437 212Z" fill="#ffffff" />
<path d="M270 192H0V320Q0 335 8 348L9 351H48V376Q52 377 57 377H270Z" fill="#00247d" />
<path d="M270 377V348L230 320H270V249H230L270 221V192H237L171 238V192H100V229L47 192H0V210L55 249H0V320H54L9 351Q11 354 14 357L67 320H91L25 367Q35 374 48 376L100 340V377H171V330L237 377Z" fill="#eeeeee" />
<path d="M156 377V306H270V263H156V192H114V263H0V306H114V377Z" fill="#cf1b2b" />
<path d="M270 377V374L193 320H171V322L249 377ZM25 367 91 320H67L14 357Q19 363 25 367ZM92 249H100V237L35 192H10ZM270 195 193 249H218L270 212Z" fill="#cf1b2b" />
</g></svg>