<svg xmlns="http://www.w3.org/2000/svg" viewBox="0 0 2048 2048">
<g transform="matrix(1 0 0 -1 0 2048)">
<path d="M512 64Q512 40 495.5 23.5Q479 7 455 7H57Q33 7 16.5 23.5Q0 40 0 64V320Q0 344 16.5 360.5Q33 377 57 377H455Q479 377 495.5 360.5Q512 344 512 320Z" fill="#eeeeee" />
<path d="M512 192H0V320Q0 344 16.5 360.5Q33 377 57 377H455Q479 377 495.5 360.5Q512 344 512 320Z" fill="#ed2939" />
<path d="M140 209Q130 206 121 206Q88 206 65.5 229.0Q43 252 43.0 284.5Q43 317 65.5 340.0Q88 363 121 363Q130 363 140 360Q116 354 100.5 333.0Q85 312 85.0 284.5Q85 257 100.5 236.0Q116 215 140 209Z" fill="#ffffff" />
<path d="M171 348 174 339H184L176 333L179 323L171 329L162 323L166 333L157 339H167ZM142 249 145 239H156L147 233L151 223L142 229L134 223L137 233L129 239H139ZM199 249 202 239H213L204 233L207 223L199 229L191 223L194 233L186 239H196ZM128 306 131 296H142L133 290L136 280L128 286L120 280L123 290L114 296H125ZM213 306 217 296H227L218 290L222 280L213 286L205 280L208 290L200 296H210Z" fill="#eeeeee" />
</g></svg>