<svg xmlns="http://www.w3.org/2000/svg" viewBox="0 0 512 512">
<g transform="matrix(1 0 0 -1 0 512)">
<path d="M512 64Q512 40 495.5 23.5Q479 7 455 7H57Q33 7 16.5 23.5Q0 40 0 64V121H512Z" fill="#ee2024" />
<path d="M512 121H0V320Q0 344 16.5 360.5Q33 377 57 377H455Q479 377 495.5 360.5Q512 344 512 320Z" fill="#eeeeee" />
<path d="M0 263H512V121H0Z" fill="#0a4ea2" />
<path d="M168 91Q118 120 104 155Q95 176 94.0 212.0Q93 248 97 285L98 298H268L269 285Q272 248 271.5 212.0Q271 176 262 155Q247 120 197 91L183 83Z" fill="#ffffff" />
<path d="M254 284Q260 189 249 160Q242 145 224.5 129.5Q207 114 198.0 108.5Q189 103 183 100Q177 102 167.5 108.0Q158 114 140.5 129.5Q123 145 117 160Q105 189 111 284Z" fill="#ee2024" />
<path d="M226 219Q232 219 232 213V204Q232 198 226 198Q207 199 189 199L192 152Q192 146 185 146H177Q170 146 170 152Q172 178 173 199L136 198Q129 198 129 204V213Q129 219 136 219Q156 217 174 217Q174 222 174 226Q174 229 174 235L150 231Q144 231 144 238V246Q144 253 150 253Q161 251 173 250L170 271Q170 277 177 277H185Q192 277 192 271Q190 261 189 250L212 253Q218 253 218 246V238Q218 231 212 231Q202 234 188 235Q188 230 188 226Q188 222 188 217Z" fill="#ffffff" />
<path d="M243 150Q224 120 183 100Q141 120 122 150Q128 162 139.5 163.0Q151 164 159 151Q161 161 167.0 166.5Q173 172 178 173H182Q200 173 206 151Q214 164 225.5 163.0Q237 162 243 150Z" fill="#0a4ea2" />
</g></svg>