<svg xmlns="http://www.w3.org/2000/svg" viewBox="0 0 2048 2048">
<g transform="matrix(1 0 0 -1 0 2048)">
<path d="M512 64Q512 40 495.5 23.5Q479 7 455 7H57Q33 7 16.5 23.5Q0 40 0 64V320Q0 344 16.5 360.5Q33 377 57 377H455Q479 377 495.5 360.5Q512 344 512 320Z" fill="#eeeeee" />
<path d="M45 376 256 220 467 376Q492 370 505 347L295 192L505 37Q492 14 467 8L256 164L45 8Q20 14 7 37L217 192L7 347Q20 370 45 376Z" fill="#d52048" />
<path d="M292 348 297 349Q292 342 289 335L285 321Q280 325 272 327Q266 328 256 328Q247 328 241 327L227 321Q226 328 223 335L216 349Q218 349 221 348L224 343Q225 344 225.5 344.5Q226 345 228.0 346.0Q230 347 233 345L230 338Q231 334 236 335L241 340Q239 340 238 342Q238 346 241 346Q244 346 244 343L243 340Q244 337 247 337Q254 336 254 343Q254 346 252.0 347.5Q250 349 248 349H246Q247 352 250 353H255L253 360Q254 363 256 366Q259 363 259 360L258 353H263L266 349Q266 349 264.5 349.0Q263 349 261.0 347.5Q259 346 259 343Q259 337 265 337L270 340Q268 341 268 343Q268 346 272 346Q275 346 274 343L271 340Q272 335 276 335Q281 334 283 338L280 345Q283 346 285.0 346.0Q287 346 288 344V343Q290 348 292 348Z" fill="#ffcc4d" />
<path d="M285 321Q286 319 286.5 315.0Q287 311 288.5 300.5Q290 290 288 284Q281 252 256 239V238V239Q232 252 225 284Q224 292 224.5 300.5Q225 309 226 315L227 321Q234 326 241 327Q248 329 256.5 329.0Q265 329 271 327Z" fill="#dd2e44" />
<path d="M256 238V239Q232 252 225 284Q222 296 227 321Q232 325 241 327Q248 329 256.5 329.0Q265 329 271 327Q278 326 285 321Q292 302 288 284Q281 252 256 239V238ZM256 239V238V239Q281 252 288 284Q291 300 285 321Q278 326 271.5 327.5Q265 329 256.5 329.0Q248 329 241 327Q235 326 227 321Q222 297 225 284Q232 252 256 239V238Z" fill="#231f20" />
<path d="M276 321Q275 319 270 319Q268 319 267.0 319.5Q266 320 264 320Q259 320 259 318Q259 316 265 316Q267 316 270.5 316.5Q274 317 275 317Q281 317 281 314Q281 313 279.0 311.0Q277 309 274 310L280 309Q286 309 286 309Q287 305 287 303Q287 299 282 299Q279 300 278 298V300L276 299L277 301H275Q276 303 278 303Q283 303 283 304Q283 305 282.0 305.5Q281 306 280 306Q280 306 276.5 305.5Q273 305 271 306V303Q273 301 272 301Q272 300 269 300Q265 300 262 299L259 298V300Q258 301 257 300Q257 301 259 302H257L260 303Q263 303 264 303L262 306Q260 305 257 304H250Q250 300 244 300Q241 299 234 302H230L231 304H229Q229 306 231 306H228L232 308Q233 307 234.5 306.0Q236 305 237 305H244H242L240 307Q236 306 234 310Q230 315 228 315L231 316L228 317L231 318L229 319L233 320Q235 319 234 317Q234 316 234 316Q235 314 238 312Q241 310 241 312Q240 312 239 315Q239 315 239 316Q238 318 238 319L240 318Q242 319 244 319L247 318L249 319Q249 318 249 317Q248 316 248 316V313Q250 311 253 311Q258 311 263.0 312.0Q268 313 270 313Q271 312 274.5 312.5Q278 313 277 314Q277 316 273 315Q264 314 262 315Q259 315 257.5 316.5Q256 318 257 319Q258 322 263 322Q265 322 267.5 321.5Q270 321 271 321ZM273 296Q272 294 268 294Q266 294 265.0 294.5Q264 295 263 295Q258 295 258 293Q258 291 263 291Q266 291 268.5 291.5Q271 292 273 292Q278 292 278 289Q278 284 272 286L277 285Q282 285 282 285Q283 280 283 279Q283 275 278 276Q276 276 275 274V276H274V278H273Q274 279 275 279Q279 279 279.5 280.0Q280 281 279.0 281.5Q278 282 277 282Q277 282 273.5 281.5Q270 281 269 282V280Q270 278 270 277Q269 277 267 277Q263 277 261 276L258 275V277Q257 277 256 276Q257 278 258 278H256L259 280Q262 279 262 280L261 282Q259 281 256 281L250 280Q250 277 245 276Q242 276 235 279H232L233 280H231Q231 282 232 282H231L234 284Q235 283 236.5 282.0Q238 281 238 281H244H243L241 283Q238 282 235 286Q232 290 230 290L233 291L231 292L233 293L231 294H234Q236 293 236 292Q236 291 236 291Q237 289 239 288Q242 286 242 287Q241 288 240 290Q240 290 240 291Q239 293 239 293H241Q242 294 245 294L248 293H249Q249 293 249 292Q248 291 248 291V289Q250 287 253 287Q257 287 261.5 287.5Q266 288 268 288Q269 288 272.0 288.0Q275 288 275 289Q274 291 271 290Q263 290 261 290Q258 290 257.0 291.0Q256 292 256 294Q257 296 262 296Q263 296 265.5 295.5Q268 295 269 295ZM268 271Q267 270 264 270Q263 270 262.0 270.0Q261 270 260 270Q257 270 257.0 268.5Q257 267 261 267Q263 267 265.0 267.5Q267 268 268 268Q272 268 272 266Q272 262 267 263H271Q275 263 275 263Q276 259 276 259Q275 256 272 256Q271 256 269 255L270 256H269V258H268Q269 259 270 259Q273 259 273.0 259.5Q273 260 272.5 260.5Q272 261 271 261Q271 261 268.5 260.5Q266 260 265 260V259Q266 257 265.5 257.0Q265 257 264 257Q261 257 259 256L257 255V257Q256 257 256 257Q256 258 257 258H256L258 259Q260 259 260 259L259 261Q258 260 255 260L251 259Q251 257 247 256Q245 256 240 258H238L239 259H237Q237 261 238 261H237L239 262Q240 262 241.0 261.0Q242 260 242 260Q244 259 246 260L244 261Q242 261 240 263Q238 267 236 267H238L237 268L239 269L237 270H239Q241 270 241.0 268.5Q241 267 241 267Q241 266 243 265Q245 264 245 264Q244 265 244 267Q244 267 244 268Q243 269 243 269H244Q245 269 247 269H249H251Q251 269 250 268Q250 268 250 267V266Q251 264 253 264Q256 264 259.5 264.5Q263 265 264 265Q265 265 267.0 265.0Q269 265 269 266Q269 267 266 267Q261 266 259 266Q257 267 256.0 267.5Q255 268 256 269Q256 271 260 271Q261 271 263.0 270.5Q265 270 265 270Z" fill="#ffcc4d" />
<path d="M242 313H243H245Q245 312 245 312Q245 311 243.5 310.5Q242 310 242 312ZM242 288H244H246Q245 288 245 287Q245 286 244.0 286.0Q243 286 243 287ZM245 265H247H248Q248 264 247.0 264.0Q246 264 246 265Z" fill="#dd2e44" />
<path d="M244 307Q244 306 244 306H243Q243 306 243 307V311H244ZM230 307 231 304H229L230 306H228ZM277 303 279 299Q278 298 278 298V300L276 299L277 301H275Q276 302 277 303ZM260 299Q260 299 259 298V300Q258 301 257 300Q257 301 259 302H257Q258 303 258 303ZM229 320Q229 320 231 320V319Q230 320 229 320ZM231 304 230 302Q231 303 232 303ZM230 317Q229 317 228 317Q228 317 231 319ZM228 315 230 316V315Q229 315 228 315ZM245 283Q245 282 244.0 282.0Q243 282 243 283V286Q243 287 244.0 287.0Q245 287 245 286ZM231 283 232 280H230L232 282H230ZM273 279 275 276Q274 275 274 274Q274 274 274 276H273L274 278H272ZM258 275H257Q257 275 258 277L256 276L257 278H256L257 279ZM230 294Q230 294 232 295V294Q231 294 230 294ZM232 280V279Q232 279 233 279ZM232 292Q231 292 230 292Q230 292 232 293ZM229 290 232 291 231 290Q230 290 229 290ZM247 261Q246 261 246 261V264Q246 264 246.5 264.0Q247 264 247 264ZM237 262 238 259H237L238 261H237ZM269 259 268 258H269V256H270L269 255Q270 255 270 256ZM258 256 257 259 256 258H257L256 257H257V255Q257 255 258 256ZM237 270Q237 270 238 270V269ZM238 259V258Q238 258 239 258ZM238 268V269L237 268Q237 268 238 268ZM236 266Q236 266 238 268V266Q237 267 236 266Z" fill="#11429a" />
</g></svg>