<svg xmlns="http://www.w3.org/2000/svg" viewBox="0 0 512 512">
<g transform="matrix(1 0 0 -1 0 512)">
<path d="M512 64Q512 40 495.5 23.5Q479 7 455 7H57Q33 7 16.5 23.5Q0 40 0 64V320Q0 344 16.5 360.5Q33 377 57 377H455Q479 377 495.5 360.5Q512 344 512 320Z" fill="#00afca" />
<path d="M242.0 184.0Q230 196 230.0 213.0Q230 230 242.0 242.0Q254 254 271.0 254.0Q288 254 299.5 242.0Q311 230 311.0 213.0Q311 196 299.5 184.0Q288 172 271.0 172.0Q254 172 242.0 184.0Z" fill="#ffcc4d" />
<path d="M267 260 271 282Q274 263 274 260Q274 257 270.5 257.0Q267 257 267 260ZM274 166 271 145Q267 163 267 166Q267 169 270.5 169.0Q274 169 274 166ZM262 167 253 147Q255 166 255 168Q256 172 259.5 171.0Q263 170 262 167ZM280 260 288 279Q287 260 286 258Q285 255 282.0 256.0Q279 257 280 260ZM250 171 236 154Q243 172 244 174Q246 177 249.0 175.5Q252 174 250 171ZM292 256 305 272Q299 255 297 253Q296 250 293.0 251.5Q290 253 292 256ZM240 177 222 165Q233 180 235 182Q237 184 239.5 182.0Q242 180 240 177ZM302 249 319 262Q308 246 307 244Q304 242 302.0 244.5Q300 247 302 249ZM232 187 211 179Q226 191 228 192Q231 194 232.5 191.0Q234 188 232 187ZM310 240 330 247Q316 235 313 234Q311 232 309.0 235.0Q307 238 310 240ZM226 198 205 195Q222 204 224 204Q228 205 228.5 202.0Q229 199 226 198ZM316 229 337 231Q320 223 317 222Q314 221 313.0 224.5Q312 228 316 229ZM224 210 202 213Q221 216 224 216Q227 216 227.0 213.0Q227 210 224 210ZM318 216 339 213Q321 210 318 210Q315 210 315.0 213.5Q315 217 318 216ZM224 222 205 231Q224 229 226 229Q229 228 228.5 224.5Q228 221 224 222ZM317 204 337 195Q318 197 316 198Q312 199 313.0 202.0Q314 205 317 204ZM228 234 211 247Q229 241 232 240Q234 238 232.5 235.0Q231 232 228 234ZM313 192 330 179Q312 185 310 187Q307 188 309.0 191.0Q311 194 313 192ZM235 244 222 262Q238 251 240 249Q242 247 239.5 244.5Q237 242 235 244ZM307 182 319 165Q304 176 302 177Q300 180 302.0 182.0Q304 184 307 182ZM244 252 237 272Q249 258 250 256Q252 253 249.0 251.0Q246 249 244 252ZM297 174 305 154Q293 168 292 170Q290 173 293.0 175.0Q296 177 297 174ZM255 258 253 279Q261 262 262 260Q263 256 259.5 255.5Q256 255 255 258ZM286 168 288 147Q280 164 280 166Q279 170 282.0 170.5Q285 171 286 168Z" fill="#ffcc4d" />
<path d="M311 112 310 111H309H308V112H307L306 113H305L303 110L302 109H301H300V110H299V111L298 110L297 109V108H296V107H295H294H293V108L292 109L291 108L290 107L289 106H288H287L286 107Q286 107 286 108V109H285L283 106V105H282H281H280H279V106V109Q278 108 277 107L276 106L275 105H274L273 104V105H272V106L273 108V109H272L271 108Q270 107 269 106Q269 105 268 105L267 104V105H266V106V109Q264 107 262 106H261Q260 105 259 105H258H257L258 106V107V108H259L260 109L261 110H262L263 111H264L265 112H268H269Q274 113 281 112L285 113H287H289L290 114H291L292 115Q293 115 294 116L295 117L294 118H295V119H296H297V120V121L298 122H300H301H303Q306 122 309.5 121.5Q313 121 319 120H322V119V118V117H321Q321 117 321 116H320L319 115H318H317H316H315L314 116H313V117H312V116Q312 115 312 114Q312 114 312 113H311V112ZM248 119V120V121L249 122H250L251 123Q252 123 254.5 124.0Q257 125 259 126Q259 126 261 127L262 128L264 129L266 131L270 136L272 137Q273 138 274 139Q274 139 275 139V140H278H282L285 141L290 142L294 143L300 145L305 148L309 150Q312 152 315 154Q317 156 319.0 157.5Q321 159 324 162Q326 164 328 166Q330 168 332 171Q332 171 333 174L335 177Q337 179 338 182Q340 187 341 191Q342 195 343 198Q343 198 344 199H345V198H346V197V196Q346 195 346 194Q346 194 346 193V190Q346 188 345 186Q345 186 345 184V185L347 187Q347 188 348 191Q352 203 352 204Q352 204 352 204H353H354H355V203V202V201V200Q355 199 355.0 197.0Q355 195 354 194Q354 194 353 190V188L351 185L349 180L348 178L349 179L350 180L352 182Q354 186 357 189Q358 191 359 192Q359 192 360 193H361H362H363V192V191V190L362 188L361 187L360 185L359 184L356 179Q353 175 350 171Q349 171 348 170Q348 170 348 169L350 170Q350 171 351 171Q354 173 355 175Q355 175 357 176Q359 179 362 181Q362 181 362 182H363H364H365V181V180Q364 179 363 177Q362 176 361 175Q361 175 359 172Q357 170 354 167Q352 165 350 163Q350 163 348 162H349H350H351L352 163Q354 164 356 165Q356 165 357 165L358 166V165V164L357 163V162L356 161V160L354 159Q354 159 352 157Q348 155 343 152Q343 152 343 151H344H345H346H349V150H348V149H347L346 148Q345 148 343 147Q340 147 338 146Q338 146 337 146V145H338Q339 145 341 145Q341 145 342 145H343H344L343 144Q342 143 341 143Q341 143 340 143L332 141H333H334L335 140H336H337H338V139H337H335Q333 138 331.5 138.0Q330 138 329 138Q329 138 328 137H327L326 136H327Q328 136 329 135Q329 135 330 135L332 134L329 133L327 132L325 131L323 130Q321 129 320 128Q320 128 318 128L316 127H312Q309 127 306 127Q306 127 308 127L311 128Q313 129 315 129Q315 129 316 130H317L319 132L321 133Q323 134 324 135Q324 135 324 136V137L323 138H325H326H327V139H328L327 141L328 142H329L330 143H331H332V144H331V145H332V146H333Q334 147 336 148Q336 148 337 149H336H335L336 150L337 151L339 152L341 153Q342 154 343 155Q343 155 344 155V156Q343 156 341 156Q342 158 344 159Q344 159 344 160H345V161V162V163H344H343L342 162H341H340L341 163L342 164L343 165V166L344 168V169V170H343H342H341H339L338 169H337Q336 169 335 168Q335 168 334 167L332 166Q331 164 329.5 163.0Q328 162 327 160Q327 160 325 158L324 157V156V154L322 153Q317 151 313 149Q311 148 308 147Q308 147 306 145L304 144L303 143L302 142L301 141L299 139L298 138Q297 138 296 138Q296 138 292 137Q290 137 287.5 136.5Q285 136 284 136Q280 135 276 134Q276 134 274 134Q274 133 272 133Q272 133 271 132Q269 130 268 129Q268 129 267 128L265 127Q262 125 260 124Q260 124 259 123L257 122H256L254 121L252 120H251V119Q250 119 250 118Q250 118 248 119Z" fill="#ffcc4d" />
<path d="M276 116 278 115H279H278H277H276H273H264Q262 115 258 115Q255 115 252 114H251H249Q249 114 248 114V113V114V115L247 114H246L245 113V114Q245 114 245 115Q245 116 245 116V117L246 118H247L248 119Q249 118 250 118Q250 118 251 118Q252 118 253.0 118.0Q254 118 255 119Q255 120 255 121H256H257H259L260 122H262H263H264H263L261 120H260H261L262 119L260 117L261 116H262H263H265V117L266 116Q267 116 268 116Q271 116 271 116ZM269 139V138L268 136Q267 135 267 134L266 133L265 134L264 135L263 136H262L260 137H258Q256 137 254 137Q252 137 249 137L246 138H245H244L242 139H241L240 140L238 141Q232 147 231 149L229 150H228L226 151Q225 151 224 151Q223 152 222 152Q220 153 218 155L217 156L216 157L214 159Q213 161 210.5 164.0Q208 167 207 168Q205 170 203 172L202 173H201L199 175L198 174Q198 174 198 173H197L196 174H195H194V173Q194 173 195 172L196 171L197 168V167H198V166V165H194V164Q195 163 196 162L198 160L199 159L200 158Q199 158 198 158H196L197 157Q197 157 198 156L199 155H200L201 154H202H203L204 153V152V151V150H205H206L207 149L206 148V147H205L206 146L208 145H209H210V144L208 142H209V141H211Q211 140 213 140H214H215H216L215 139L214 138H213L212 137L213 136Q217 134 220 133Q226 131 233 128Q235 128 236 128L237 127L235 128Q233 128 230 128L228 129L224 130L222 131Q219 132 214.0 134.0Q209 136 206 137V138H207H208Q209 138 211 139Q208 139 205 140Q204 140 202 141H201V142H202L204 143L206 144Q203 144 199 145H198L197 146H196V147H197Q198 147 199 147H201Q202 147 203 148L202 149H201L197 150H196H195L193 151H192L191 152V153H192H195L197 152H199L200 153H201Q198 154 196 155Q195 155 193 156L190 158L189 159Q188 159 186 160L185 161V162H184V163L183 164V165H184H185H186L187 164L188 163H189H190V162H191H192H193H194L192 163Q190 165 187 167Q183 171 180 175L179 176L178 177Q177 179 176 180V181H177V182H178H179V181Q182 179 184 176Q187 174 190 171L192 170H193L194 169L193 170L191 171Q189 174 185 178Q184 180 183.0 182.0Q182 184 181 185Q180 187 179 188Q179 189 178 191V192H179V193H180H181H182L183 192L185 189Q187 186 190 182L192 180L193 179L194 178Q192 182 190 185Q189 187 189 188L188 190Q188 192 187 194V195L186 197V199V200V201V202V203H187V204H188H189H190Q191 201 193 191Q194 188 195 187V186L196 185L197 183L196 186Q196 188 196 190Q195 192 195 194V196V197L196 198H197H198H199L200 193Q200 191 201 189Q202 185 204 182L205 180L206 177L208 174L210 171L212 168L214 166Q216 163 218 161Q220 159 222 157L224 155Q227 153 231 151Q233 149 236 148L241 145Q246 144 250.0 142.5Q254 141 258 140Q263 140 269 139ZM49 42 51 40Q48 37 45 37Q40 37 40 41Q40 43 43.0 50.0Q46 57 46 59Q46 64 41 64Q35 64 35.0 59.0Q35 54 39 54Q42 54 42 56Q42 58 40 58L39 55Q37 56 38 58Q36 58 36 59Q36 60 38 60Q37 62 39 63Q39 61 39 60Q40 61 41 61Q45 61 45 56Q45 49 37 51Q39 50 39 48Q38 48 37 48Q39 46 38 44Q37 45 36 45Q37 42 35.5 39.0Q34 36 30 36Q33 41 33 44Q33 47 31.5 51.5Q30 56 30 58Q30 63 35 66Q32 66 31 68H41Q50 66 50 59Q50 57 48.5 53.0Q47 49 45.5 45.5Q44 42 45 41ZM48 119Q48 130 60 130Q70 130 70 121Q70 117 68 113L53 81Q52 79 52 77Q52 71 57.5 71.0Q63 71 63 77Q63 82 60 82Q56 82 56 79Q56 77 58 77L59 80Q61 80 61 78Q62 77 62 77Q62 76 61 75Q61 73 59 73Q59 74 59 75Q54 73 54 79Q54 86 61 84Q59 85 59 87H61Q60 89 60 91Q62 90 63 90Q59 97 69 99Q66 96 66 92Q66 87 67.0 83.0Q68 79 68 77Q68 72 64 70Q66 69 67 68Q61 66 55 68Q51 68 49 72Q47 77 49 82Q56 96 65 115Q66 118 66 120Q66 126 60 126Q55 126 55 121Q55 119 57 119Q60 119 59 123Q62 121 62 119Q63 119 65 117Q63 116 62 116Q62 113 59 112Q60 116 57 116Q53 116 52 117V108Q51 104 58 106Q56 101 50 101Q53 100 53 98Q53 94 49 91Z" fill="#ffcc4d" />
<path d="M50 119 49 92Q46 94 46 98Q46 100 48 101Q42 101 40 106Q47 104 47 108V117Q45 116 42 116Q38 116 39 112Q36 113 37 116Q35 116 34 117Q35 119 37 119Q36 121 39 123Q38 119 42 119Q44 119 44 121Q44 126 38 126Q32 126 32 120Q32 118 33 115Q43 96 49 82Q52 77 49 72Q47 68 43 68Q38 66 31 68Q32 69 34 70Q31 72 31 77Q31 79 32.0 83.0Q33 87 33 92Q33 96 30 99Q39 97 36 90Q36 90 39 91Q39 89 37 87Q38 87 39 87Q39 85 37 84Q44 86 44 79Q44 73 39 75Q39 74 39 73Q37 73 38 75Q37 76 36 77Q37 77 38 78Q37 80 39 80Q39 77 41 77Q42 77 42 79Q42 82 39 82Q35 82 35 77Q35 71 40.5 71.0Q46 71 46 77Q46 79 46 81L30 113Q28 117 28 121Q28 130 38 130Q50 130 50 119ZM49 42 54 41Q54 42 53.0 45.5Q52 49 50.0 53.0Q48 57 48 59Q48 66 58 68H67Q66 66 64 66Q68 63 68 58Q68 56 67.0 51.5Q66 47 66 44L68 36Q65 36 63.0 39.0Q61 42 62 45Q61 45 60 44Q60 46 61 48Q61 48 59 48Q59 50 61 51Q54 49 54 56Q54 61 57 61Q58 61 59 60Q60 61 59 63Q61 62 61 60Q62 60 63 59Q62 58 61 58Q61 56 59 55Q60 58 58 58Q57 58 57 56Q57 54 60 54Q64 54 64.0 59.0Q64 64 58 64Q52 64 52 59Q52 57 55.0 50.0Q58 43 58 41Q58 37 53 37L47 40ZM48 244Q48 254 60 254Q70 254 70 245Q70 241 68 237L53 205Q52 204 52 201Q52 196 57.5 195.5Q63 195 63 201Q63 206 60 206Q56 206 56 203Q56 202 58 202L59 205Q61 204 61 202Q62 202 62 201Q62 200 61 200Q61 198 59 197Q59 198 59 199Q54 197 54 203Q54 210 61 209Q59 210 59 212L61 211Q60 214 60 215Q62 214 63 214Q59 222 69 224Q66 220 66 216Q66 212 67.0 207.5Q68 203 68 201Q68 197 64 194Q66 194 67 192Q61 190 55 192Q51 193 49 196Q47 201 49 206Q56 221 65 240Q66 242 66 244Q66 250 60 250Q55 250 55 246Q55 243 57 243Q60 243 59 247Q62 246 62 243Q63 243 64 242Q63 240 62 240Q62 237 59 236Q60 240 57 240Q53 240 52 242V232Q51 228 58 230Q56 225 50 226Q53 225 53 222Q53 218 49 216Z" fill="#ffcc4d" />
<path d="M50 244 49 216Q46 218 46 222Q46 225 48 226Q42 225 40 230Q47 228 47 232V242Q45 240 42 240Q38 240 39 236Q36 237 37 240Q35 240 34 242Q35 243 37 243Q36 246 39 247Q38 243 42 243Q44 243 44 246Q44 250 38 250Q32 250 32 244Q32 242 33 240Q42 221 49 206Q52 201 49 196Q47 193 43 192Q38 190 31 192Q32 194 34 194Q30 197 30 201Q30 203 31.5 207.5Q33 212 33 216Q33 220 30 224Q39 222 36 214Q36 214 39 215Q39 214 37 211Q38 211 39 212Q39 210 37 209Q44 210 44 203Q44 197 39 199Q39 198 39 197Q37 198 38 200Q37 200 36 201Q37 202 38 202Q37 204 39 205Q39 202 41 202Q42 202 42 203Q42 206 39 206Q35 206 35 201Q35 195 40.5 195.5Q46 196 46 201Q46 204 46 205L30 237Q28 241 28 245Q28 254 38 254Q50 254 50 244Z" fill="#ffcc4d" />
<path d="M50 265Q50 254 38 254Q28 254 28 263Q28 267 30 271L46 303Q46 305 46 308Q46 313 40.5 313.0Q35 313 35 307Q35 302 39 302Q42 302 42 305Q42 307 41 307L39 304Q37 304 38 306Q37 307 36 307Q37 308 38 309Q37 311 39 311Q39 310 39 309Q44 311 44 305Q44 298 37 300Q39 299 39 297H37Q39 295 39 293Q36 294 36 294Q39 287 30 285Q33 288 33 292Q33 296 32.0 300.5Q31 305 31 307Q31 311 34 314Q32 315 31 316Q38 318 43 316Q47 316 49 312Q52 307 49 302Q43 288 33 269Q32 266 32 264Q32 258 38 258Q44 258 44 263Q44 265 42 265Q38 265 39 261Q36 263 37 265Q35 265 34 267Q35 268 37 268Q36 271 39 272Q38 268 42 268Q45 268 47 267V276Q47 280 41 278Q42 283 48 283Q46 284 46 286Q46 290 49 293ZM50 140Q50 130 38 130Q28 130 28 139Q28 143 30 147L46 179Q46 180 46 183Q46 188 40.5 188.5Q35 189 35 183Q35 178 39 178Q42 178 42 181Q42 182 41 182L39 179Q37 180 38 182Q37 182 36 183Q37 184 38 184Q37 186 39 187Q39 186 39 185Q44 187 44 181Q44 174 37 175Q39 174 39 172L37 173Q39 170 39 169Q36 170 36 170Q39 162 30 160Q33 164 33 168Q33 172 31.5 176.5Q30 181 30 183Q30 187 34 190Q32 190 31 192Q38 194 43 192Q47 191 49 188Q52 183 49 178Q42 163 33 144Q32 142 32 140Q32 134 38 134Q44 134 44 138Q44 141 42 141Q38 141 39 137Q36 138 37 141Q35 141 34 142Q35 144 37 144Q36 147 39 148Q38 144 42 144Q45 144 47 142V152Q47 156 41 154Q42 159 48 158Q46 159 46 162Q46 166 49 168Z" fill="#ffcc4d" />
<path d="M48 140 49 168Q53 166 53 162Q53 159 50 158Q56 159 58 154Q51 156 52 152Q52 144 52 142Q53 144 57 144Q60 144 59 148Q62 147 62 144Q63 144 65 142Q63 141 62 141Q62 138 59 137Q61 141 57 141Q55 141 55 138Q55 134 60 134Q66 134 66 140Q66 142 65 144Q56 163 49 178Q47 183 49 188Q51 191 55 192Q61 194 67 192Q66 190 64 190Q68 187 68 183Q68 181 67.0 176.5Q66 172 66 168Q66 164 69 160Q59 162 63 170Q62 170 60 169Q60 170 61 173Q60 173 59 172Q59 174 61 175Q54 174 54 181Q54 187 59 185Q59 186 59 187Q61 186 61 184Q62 184 62 183Q62 182 61 182Q61 180 59 179Q60 182 58 182Q56 182 56 181Q56 178 60 178Q63 178 63 183Q63 189 57.5 188.5Q52 188 52 183Q52 180 53 179L68 147Q70 143 70 139Q70 130 60 130Q48 130 48 140ZM49 342 47 344Q50 347 53 347Q58 347 58 343Q58 341 55.0 334.0Q52 327 52 325Q52 320 58 320Q64 320 64.0 325.0Q64 330 60 330Q56 330 56 328Q56 326 58 326L59 329Q61 328 61 326Q62 326 63 325Q62 324 61 324Q61 322 59 321Q60 323 59 324Q58 323 57 323Q54 323 54 328Q54 335 61 333Q59 334 59 336Q61 336 61 336Q60 338 60 340Q61 339 62 339Q61 342 63.0 345.0Q65 348 68 348Q66 343 66 340Q66 337 67.0 332.5Q68 328 68 326Q68 321 64 318Q66 318 67 316H58Q48 318 48 325Q48 327 50.0 331.0Q52 335 53.0 338.5Q54 342 54 343Z" fill="#ffcc4d" />
<path d="M49 342 45 343Q44 342 45.5 338.5Q47 335 48.5 331.0Q50 327 50 325Q50 318 41 316H31Q32 318 35 318Q30 321 30 326Q30 328 31.5 332.5Q33 337 33 340L30 348Q34 348 35.5 345.0Q37 342 36 339Q37 339 38 340Q39 338 37 336Q38 336 39 336Q39 334 37 333Q45 335 45 328Q45 323 41 323Q40 323 39 324Q39 323 39 321Q37 322 38 324Q36 324 36 325Q36 326 38 326Q37 328 39 329Q38 326 40 326Q42 326 42 328Q42 330 39 330Q35 330 35.0 325.5Q35 321 41 320Q46 320 46 325Q46 327 43.0 334.0Q40 341 40 343Q40 347 45 347L51 344ZM48 265 49 293Q53 290 53 286Q53 284 50 283Q56 283 58 278Q51 280 52 276Q52 269 52 267Q53 268 57 268Q60 268 59 272Q62 271 62 268Q63 268 64 267Q63 265 62 265Q62 263 59 261Q60 265 57 265Q55 265 55 263Q55 258 60 258Q66 258 66 264Q66 266 65 269Q56 288 49 302Q47 307 49 312Q51 316 55 316Q61 318 67 316Q66 315 64 314Q68 311 68 307Q68 305 67.0 300.5Q66 296 66 292Q66 288 69 285Q59 287 63 294Q62 294 60 293Q60 295 61 297Q60 297 59 297Q59 299 61 300Q54 298 54 305Q54 311 59 309Q59 310 59 311Q61 311 61 309Q62 308 62 307Q62 307 61 306Q61 304 59 304Q60 307 58 307Q56 307 56 305Q56 302 60 302Q63 302 63 307Q63 313 57.5 313.0Q52 313 52 307Q52 305 53 303L68 271Q70 267 70 263Q70 254 60 254Q48 254 48 265Z" fill="#ffcc4d" />
</g></svg>