<svg xmlns="http://www.w3.org/2000/svg" viewBox="0 0 2048 2048">
<g transform="matrix(1 0 0 -1 0 2048)">
<path d="M0 192H512V64Q512 40 495.5 23.5Q479 7 455 7H57Q33 7 16.5 23.5Q0 40 0 64Z" fill="#3a75c4" />
<path d="M512 192H0V320Q0 344 16.5 360.5Q33 377 57 377H455Q479 377 495.5 360.5Q512 344 512 320Z" fill="#ffc61e" />
<path d="M0 192H512V100H0Z" fill="#ce1126" />
<path d="M0 284H512V192H0Z" fill="#eeeeee" />
<path d="M19 363 249 192 19 21Q0 38 0 64V320Q0 346 19 363Z" fill="#3d8e33" />
<path d="M117 115Q108 113 99 113Q67 113 44.0 136.0Q21 159 21.0 192.0Q21 225 44.0 248.0Q67 271 99 271Q108 271 117 269Q90 263 73.0 241.5Q56 220 56.0 192.0Q56 164 73.0 142.5Q90 121 117 115Z" fill="#ffffff" />
<path d="M108 236 112 246 103 253H114L117 263L120 253H131L122 246L125 236L117 243ZM108 199 112 209 103 215H114L117 225L120 215H131L122 209L125 199L117 205ZM108 161 112 172 103 178H114L117 188L120 178H131L122 172L125 161L117 168ZM117 130 108 124 112 134 103 140H114L117 150L120 140H131L122 134L125 124Z" fill="#ffffff" />
</g></svg>