<svg xmlns="http://www.w3.org/2000/svg" viewBox="0 0 512 512">
<g transform="matrix(1 0 0 -1 0 512)">
<path d="M512 64Q512 40 495.5 23.5Q479 7 455 7H57Q33 7 16.5 23.5Q0 40 0 64V320Q0 344 16.5 360.5Q33 377 57 377H455Q479 377 495.5 360.5Q512 344 512 320Z" fill="#ce1126" />
<path d="M455 377Q479 377 495.5 360.5Q512 344 512 320V192H0V320Q0 344 16.5 360.5Q33 377 57 377Z" fill="#0038a8" />
<path d="M19 22Q0 39 0 64V320Q0 345 19 362L271 191Z" fill="#eeeeee" />
<path d="M229 213V197L245 192L230 187L231 170L220 183L205 177L214 191L204 204L220 199ZM23 334 35 324 49 332 43 317 55 307 39 308 33 293 29 309 13 310 27 319ZM29 90 37 75 53 79 42 67 51 53 36 60 25 47 27 64 11 70 27 73ZM129.5 222.5Q142 210 142.0 192.0Q142 174 129.5 161.5Q117 149 99.5 149.0Q82 149 69.5 161.5Q57 174 57.0 192.0Q57 210 69.5 222.5Q82 235 99.5 235.0Q117 235 129.5 222.5Z" fill="#fcd116" />
<path d="M108 269 113 266 108 227H91L86 266L91 269L93 231L97 232L96 275L100 278L104 275L102 232L106 231ZM91 115 86 118 91 157H108L113 118L108 115L106 153L102 152L104 109L100 106L96 109L97 152L93 153ZM39 144 38 149 68 173 75 167 81 161 57 130 51 132 76 160 73 162 43 130 39 131 38 136 70 166 67 169ZM160 240 161 235 131 211 125 217 118 223 142 254 148 252 123 224 126 222 156 254 160 253 161 248 130 218 132 215ZM23 200 26 205 64 201V183L26 179L23 184L60 186V189L16 188L14 192L16 196L60 195V198ZM176 184 173 179 135 183V201L173 205L176 200L139 198V195L183 196L186 192L183 188L139 189V186ZM51 252 57 254 81 223 75 217 68 211 38 235 39 240 67 215 70 218 38 248 39 253 43 254 73 222 76 224ZM148 132 142 130 118 161 125 167 131 173 161 149 160 144 132 169 130 166 161 136 160 131 156 130 126 162 123 160Z" fill="#fcd116" />
</g></svg>