<svg xmlns="http://www.w3.org/2000/svg" viewBox="0 0 2048 2048">
<g transform="matrix(1 0 0 -1 0 2048)">
<path d="M512 64Q512 40 495.5 23.5Q479 7 455 7H57Q33 7 16.5 23.5Q0 40 0 64V320Q0 344 16.5 360.5Q33 377 57 377H455Q479 377 495.5 360.5Q512 344 512 320Z" fill="#ffcc4d" />
<path d="M498 64Q498 46 485.5 33.5Q473 21 455 21H57Q39 21 26.5 33.5Q14 46 14 64V320Q14 338 26.5 350.5Q39 363 57 363H455Q473 363 485.5 350.5Q498 338 498 320Z" fill="#dd2e44" />
<path d="M325 201Q322 186 310.0 176.0Q298 166 291.5 164.0Q285 162 280 161L303 146L317 144L320 129L307 124L296 136L270 145V144L285 123L256 107L226 123L241 146L214 136L203 124L190 129L193 144L207 146L230 161Q226 162 219.5 163.5Q213 165 200.5 175.0Q188 185 184.5 200.5Q181 216 185.5 232.0Q190 248 197 257L204 265L211 230L226 210L220 199L227 195L241 216L234 229L218 240L237 245L251 230L256 214L260 230L273 245L294 238L275 228L269 216L284 195L290 199L284 210L299 230L306 265Q309 262 313.5 256.0Q318 250 323.5 233.0Q329 216 325 201Z" fill="#ffcc4d" />
<path d="M256 171V152Q253 156 245 158Q241 160 237.5 163.0Q234 166 234 168L233 171ZM256 171V152L267 158Q277 162 279 171Q279 171 256 171Z" fill="#5c913b" />
<path d="M238 209Q239 209 241.0 208.5Q243 208 248.0 207.5Q253 207 256 209V172H233Q232 180 235 190Q236 194 235.5 196.5Q235 199 234 200L233 202ZM274 209 271 208Q268 207 264.0 207.0Q260 207 256 209Q256 209 256 172H279L277 190Q276 193 276.5 196.0Q277 199 277.5 200.0Q278 201 279 202Q279 202 274 209ZM325.0 155.0Q328 152 328.0 147.0Q328 142 325.0 139.0Q322 136 317.0 136.0Q312 136 309.0 139.0Q306 142 306.0 147.0Q306 152 309.0 155.0Q312 158 317.0 158.0Q322 158 325.0 155.0Z" fill="#226699" />
<path d="M257.0 254.0Q271 254 271.0 248.5Q271 243 257.0 243.0Q243 243 243.0 248.5Q243 254 257.0 254.0Z" fill="#ffcc4d" />
<path d="M241.0 270.0Q247 274 256.0 274.0Q265 274 271.5 270.0Q278 266 278.0 261.0Q278 256 271.5 252.5Q265 249 256.0 249.0Q247 249 241.0 252.5Q235 256 235.0 261.0Q235 266 241.0 270.0ZM241 256Q243 255 243.5 256.0Q244 257 243 259V267Q239 265 239 262Q238 257 241 256ZM250 256 255 257Q253 260 253 262L254 269Q248 267 248 265Q247 263 249 259Q250 256 250 256ZM264 259Q265 263 265 265L259 269L260 262L258 257L262 256Q263 256 264 259ZM272 256Q275 257 274 262L270 267V259Q268 257 269.0 256.0Q270 255 272 256ZM325 144 309 148Q306 148 307.0 151.0Q308 154 310 153L326 149Q329 148 328.0 145.5Q327 143 325 144Z" fill="#ffcc4d" />
<path d="M320 147Q319 145 316.5 145.5Q314 146 315 149L319 165Q319 167 321.5 166.5Q324 166 323 164ZM211 108Q210 108 209.0 109.5Q208 111 208 112L180 183Q178 187 180 188H181Q185 190 187 185L214 115Q216 111 212 109ZM244 188H268V172H244Z" fill="#ffcc4d" />
</g></svg>