<svg xmlns="http://www.w3.org/2000/svg" viewBox="0 0 512 512">
<g transform="matrix(1 0 0 -1 0 512)">
<path d="M455 377Q479 377 495.5 360.5Q512 344 512 320V178H0V320Q0 344 16.5 360.5Q33 377 57 377ZM57 7Q33 7 16.5 23.5Q0 40 0 64V78H512V64Q512 40 495.5 23.5Q479 7 455 7Z" fill="#003893" />
<path d="M0 178H512V149H0ZM0 107H512V78H0Z" fill="#eeeeee" />
<path d="M0 149H512V107H0Z" fill="#cf2027" />
<path d="M204 222 208 209 197 217 186 209 191 222 180 230H193L197 242L201 230H215ZM292 158 296 145 285 153 274 145 279 158 268 166H281L285 179L289 166H303ZM116 158 120 145 109 153 99 145 103 158 92 166H105L109 179L114 166H127ZM116 101 120 88 109 96 99 88 103 101 92 109H105L109 121L114 109H127ZM292 101 296 88 285 96 274 88 279 101 268 109H281L285 121L289 109H303ZM201 45H215L204 37L208 24L197 32L186 24L191 37L180 45H193L197 58ZM258 55 263 42 252 50 241 42 245 55 234 62H248L252 75L256 62H269ZM258 204 263 191 252 199 241 191 245 204 234 212H248L252 225L256 212H269ZM136 55 125 62H139L143 75L147 62H161L150 55L154 42L143 50L132 42ZM136 204 125 212H139L143 225L147 212H161L150 204L154 191L143 199L132 191Z" fill="#f7d116" />
</g></svg>