<svg xmlns="http://www.w3.org/2000/svg" viewBox="0 0 512 512">
<g transform="matrix(1 0 0 -1 0 512)">
<path d="M455 377Q479 377 495.5 360.5Q512 344 512 320V249H0V320Q0 344 16.5 360.5Q33 377 57 377Z" fill="#cc212d" />
<path d="M219 135 256 162 293 135ZM270 205 256 249H512V135H293L279 179L316 205ZM233 179 219 135H0V249H256L242 205H196Z" fill="#fbd116" />
<path d="M293 135H512V64Q512 40 495.5 23.5Q479 7 455 7H57Q33 7 16.5 23.5Q0 40 0 64V135H219Z" fill="#288541" />
<path d="M196 205H242L256 249L270 205H316L279 179L293 135L256 162L219 135L233 179Z" fill="#000000" />
</g></svg>