<svg xmlns="http://www.w3.org/2000/svg" viewBox="0 0 2048 2048">
<g transform="matrix(1 0 0 -1 0 2048)">
<path d="M512 64Q512 40 495.5 23.5Q479 7 455 7H57Q33 7 16.5 23.5Q0 40 0 64V320Q0 344 16.5 360.5Q33 377 57 377H455Q479 377 495.5 360.5Q512 344 512 320Z" fill="#032ea1" />
<path d="M0 298H512V86H0Z" fill="#e01e24" />
<path d="M384 122H391V108H120L121 122H128V135H135V148H141V156H146V163H151L154 168V190L150 194V215L153 212V219H156V216H161V226L167 221L165 228L169 244H171Q172 250 175 250Q174 254 177 254L179 251Q183 249 183 245H186L190 226L187 221L193 226V212H227V225L229 223V219H234V223L230 226V232L233 229L237 235V239L239 237L240 241L236 246L237 250L241 246V249L239 253L246 272L248 277H251V280Q253 284 255 284L260 280V277H263L264 272L272 253L270 249V246L274 250V246L271 241L272 237L274 239V235L278 229L280 232V226L277 223V219H282V223L284 225V212H318V226L324 221L321 226L325 245H328Q328 247 329.0 248.5Q330 250 331 251H332Q331 254 334 254L335 250Q337 250 338.0 248.5Q339 247 340 245V244H342L346 228L344 221L350 226V216H355V219H357V212L361 215V194L357 190V168L360 163H366V156H370V148H377V135H384Z" fill="#ffffff" />
<path d="M165 194H170V108H165V164H151L153 169H165ZM360 164H347V108H342V194H347V169H358ZM243 194H248V108H243V164H191V108H186V194H191V169H243ZM320 194H326V108H320V164H269V108H264V194H269V169H320Z" fill="#db7f86" />
</g></svg>