<svg xmlns="http://www.w3.org/2000/svg" viewBox="0 0 2048 2048">
<g transform="matrix(1 0 0 -1 0 2048)">
<path d="M512 64Q512 40 495.5 23.5Q479 7 455 7H57Q33 7 16.5 23.5Q0 40 0 64V78H512ZM0 249H512V192H0Z" fill="#d90001" />
<path d="M0 135H512V78H0ZM0 306H512V249H0Z" fill="#fcdc02" />
<path d="M0 192H512V135H0ZM0 320Q0 344 16.5 360.5Q33 377 57 377H455Q479 377 495.5 360.5Q512 344 512 320V306H0Z" fill="#141414" />
<path d="M215.5 151.5Q199 168 199.0 192.0Q199 216 215.5 232.5Q232 249 256.0 249.0Q280 249 296.5 232.5Q313 216 313.0 192.0Q313 168 296.5 151.5Q280 135 256.0 135.0Q232 135 215.5 151.5Z" fill="#ffffff" />
<path d="M247 234 243 244Q251 247 259 244Q262 243 263.5 240.5Q265 238 265 236L266 234L256 231Z" fill="#d90000" />
<path d="M250 236V246Q252 246 256 246L263 242L256 234Z" fill="#fcdc02" />
<path d="M252 208Q253 207 260.0 203.0Q267 199 274.0 194.0Q281 189 281 185Q281 176 272 177Q268 178 266.5 177.0Q265 176 267 173Q273 164 267 165H258Q260 151 261 150Q261 149 263.5 148.0Q266 147 268.0 146.0Q270 145 270 145Q269 144 268.0 144.0Q267 144 264.5 144.5Q262 145 260.5 144.5Q259 144 256.0 142.5Q253 141 250.5 140.0Q248 139 248 139Q249 144 249.0 144.0Q249 144 241 146L256 148V164L247 165Q242 163 242 161Q240 160 239 159H238Q237 157 235 157L234 158Q234 157 233 157Q231 157 232 161Q234 169 241 168H256V177Q252 178 249 181Q248 182 244.5 184.5Q241 187 239 189Q236 192 235.0 198.0Q234 204 238 211Q248 223 246 225Q246 226 241.0 225.5Q236 225 235.5 226.0Q235 227 237.0 228.5Q239 230 241 230L244 231Q244 232 244.5 234.0Q245 236 248.0 237.5Q251 239 256 238Q262 235 260.5 229.5Q259 224 256 223Q253 222 252.0 215.5Q251 209 252 208ZM263 169Q264 169 263.0 171.0Q262 173 261 175L259 169Z" fill="#141414" />
<path d="M249 223Q248 218 244 220Q243 221 243 223Q243 227 247 225Q249 225 249 223Z" fill="#d90000" />
<path d="M252 206Q254 206 277 196Q283 193 281 180L277 173Q274 181 264 185Q257 188 253.0 192.5Q249 197 249.5 200.5Q250 204 252 206ZM248.5 231.0Q250 231 250.0 229.5Q250 228 248.5 228.0Q247 228 247.0 229.5Q247 231 248.5 231.0Z" fill="#9ca69c" />
<path d="M273 196Q292 191 293 178Q293 173 290.0 167.5Q287 162 284 160L281 158L283 162L279 161L281 164L275 162Q276 163 277.5 164.5Q279 166 281.0 170.5Q283 175 281 178Q281 175 280.5 173.0Q280 171 279 171L278 170Q281 178 266 188L270 189L266 192L274 189L270 194L278 191Z" fill="#d90000" />
</g></svg>