<svg xmlns="http://www.w3.org/2000/svg" viewBox="0 0 512 512">
<g transform="matrix(1 0 0 -1 0 512)">
<path d="M512 64Q512 40 495.5 23.5Q479 7 455 7H57Q33 7 16.5 23.5Q0 40 0 64V320Q0 344 16.5 360.5Q33 377 57 377H455Q479 377 495.5 360.5Q512 344 512 320Z" fill="#e8112d" />
<path d="M263 278Q263 284 269.5 298.0Q276 312 277 322Q282 317 278.0 299.0Q274 281 276 275Q277 282 286.0 294.5Q295 307 297 318Q301 310 294.0 293.5Q287 277 289 271Q291 278 301.5 289.0Q312 300 316 310Q319 302 309.5 286.5Q300 271 301 265Q304 271 316.5 280.5Q329 290 334 299Q335 291 323.5 277.0Q312 263 312 257Q316 263 329.5 270.0Q343 277 349 285Q350 277 336.5 265.5Q323 254 321 248Q326 253 340.5 257.5Q355 262 363 270Q362 262 346.5 252.5Q331 243 329 237Q335 241 350.0 243.5Q365 246 374 252Q371 244 354.5 237.0Q338 230 335 225Q341 228 356.5 228.0Q372 228 382 233Q378 225 360.5 221.0Q343 217 339 212Q346 214 361.0 212.0Q376 210 386 213Q382 206 364.0 204.5Q346 203 342 199Q348 200 363.0 195.5Q378 191 388 192Q383 186 365.5 187.5Q348 189 342 185Q348 185 362.0 178.5Q376 172 386 171Q381 166 363.0 170.0Q345 174 339 172Q346 171 358.5 162.0Q371 153 382 151Q375 147 358.0 154.0Q341 161 335 159Q342 157 353.0 146.5Q364 136 374 132Q366 129 350.5 138.5Q335 148 329 147Q335 144 344.5 131.5Q354 119 363 114Q355 113 341.0 124.5Q327 136 321 136Q327 132 334.0 118.5Q341 105 349 99Q341 98 329.5 111.5Q318 125 312 127Q317 122 321.5 107.5Q326 93 334 85Q325 86 316.0 101.5Q307 117 301 119Q305 113 307.5 98.0Q310 83 316 74Q308 77 301.0 93.5Q294 110 289 113Q292 107 292.0 91.5Q292 76 297 66Q289 70 285.0 87.5Q281 105 276 109Q278 102 276.0 87.0Q274 72 277 62Q270 66 268.5 84.0Q267 102 263 106Q264 100 259.5 85.0Q255 70 256 60Q250 65 251.5 82.5Q253 100 249 106Q249 100 242.5 86.0Q236 72 235 62Q230 67 234.0 85.0Q238 103 236 109Q235 102 226.0 89.5Q217 77 215 66Q211 73 218.0 90.0Q225 107 223 113Q221 106 210.5 95.0Q200 84 196 74Q193 82 202.5 97.5Q212 113 211 119Q208 113 195.5 103.5Q183 94 178 85Q177 93 188.5 106.5Q200 120 200 127Q196 121 182.5 114.0Q169 107 163 99Q162 107 175.5 118.5Q189 130 191 136Q186 131 171.5 126.5Q157 122 149 114Q150 123 165.5 132.0Q181 141 183 147Q177 143 162.0 140.5Q147 138 138 132Q141 140 157.5 147.0Q174 154 177 159Q171 156 155.5 156.0Q140 156 130 151Q134 159 151.5 163.0Q169 167 173 172Q166 170 151.0 172.0Q136 174 126 171Q130 178 148.0 179.5Q166 181 170 185Q164 184 149.0 188.5Q134 193 124 192Q129 198 146.5 196.5Q164 195 170 199Q164 199 150.0 205.5Q136 212 126 213Q131 218 149.0 214.0Q167 210 173 212Q166 213 153.5 222.0Q141 231 130 233Q138 237 154.5 230.0Q171 223 177 225Q170 227 159.0 237.5Q148 248 138 252Q146 255 161.5 245.5Q177 236 183 237Q177 240 167.5 252.5Q158 265 149 270Q157 271 171.0 259.5Q185 248 191 248Q185 252 178.0 265.5Q171 279 163 285Q171 286 182.5 272.5Q194 259 200 257Q195 262 190.5 276.5Q186 291 178 299Q186 298 195.5 282.5Q205 267 211 265Q207 271 204.5 286.0Q202 301 196 310Q204 307 211.0 290.5Q218 274 223 271Q220 277 220.0 292.5Q220 308 215 318Q223 314 227.0 296.5Q231 279 236 275Q234 282 236.0 297.0Q238 312 235 322Q242 318 243.5 300.0Q245 282 249 278Q248 284 252.5 299.0Q257 314 256 324Q262 319 260.5 301.5Q259 284 263 278Z" fill="#ffcc4d" />
<path d="M305.5 142.5Q285 122 256.0 122.0Q227 122 206.5 142.5Q186 163 186.0 192.0Q186 221 206.5 241.5Q227 262 256.0 262.0Q285 262 305.5 241.5Q326 221 326.0 192.0Q326 163 305.5 142.5Z" fill="#e8112d" />
<path d="M301 237Q275 234 256 225Q237 234 211 237Q229 257 256.0 257.0Q283 257 301 237ZM251 222Q249 221 247 220Q230 229 206 231Q207 233 209 234Q233 232 251 222ZM261 222Q279 232 304 234Q305 232 306 231Q282 229 265 220Q263 221 261 222ZM204 228Q227 227 244 217Q242 216 240 215Q224 224 202 225Q203 226 204 228ZM202 167Q195 180 195 196Q195 209 201 221Q222 221 237 213Q214 193 202 167ZM231 140Q230 141 227.0 143.0Q224 145 223 146Q225 177 250 203Q252 201 253 200Q230 173 231 140ZM308 228Q309 226 310 225Q288 224 272 215Q270 216 268 217Q285 227 308 228Z" fill="#ffcc4d" />
<path d="M310 167Q298 193 275 213Q290 221 311 221Q317 209 317 196Q317 180 310 167ZM256 195Q269 173 268 136Q263 135 256.0 135.0Q249 135 244 136Q243 172 256 195ZM281 140Q282 173 259 200Q260 201 262 203Q287 177 289 145Q281 140 281 140ZM246 206Q219 180 214 152Q212 153 211.0 155.0Q210 157 209 159Q218 188 242 210Q244 208 246 206ZM266 206Q268 208 270 210Q294 188 303 158Q302 157 300.5 155.0Q299 153 298 152Q292 181 266 206ZM256 220Q258 218 260 217Q259 217 256 214Q254 216 252 217Q254 219 256 220ZM248 215Q249 214 252 212Q252 211 249 209Q247 211 245 212Q246 213 248 215ZM264 215Q266 213 267 212Q265 211 263 209Q260 211 260 212Q263 214 264 215ZM256 209Q258 207 259 206Q257 204 256 203Q255 204 253 206Q253 206 256 209Z" fill="#ffcc4d" />
</g></svg>