<svg xmlns="http://www.w3.org/2000/svg" viewBox="0 0 2048 2048">
<g transform="matrix(1 0 0 -1 0 2048)">
<path d="M512 64Q512 40 495.5 23.5Q479 7 455 7H57Q33 7 16.5 23.5Q0 40 0 64V320Q0 344 16.5 360.5Q33 377 57 377H455Q479 377 495.5 360.5Q512 344 512 320Z" fill="#eeeeee" />
<path d="M489 48Q501 48 511 54Q507 34 492 21Q492 21 491.0 21.0Q490 21 489 21Q476 21 463.0 28.0Q450 35 437.0 35.0Q424 35 411.0 27.5Q398 20 385.0 20.0Q372 20 359.0 27.5Q346 35 333.5 35.0Q321 35 308.0 27.5Q295 20 282.0 20.0Q269 20 256.0 27.5Q243 35 230.0 35.0Q217 35 204.0 27.5Q191 20 178.5 20.0Q166 20 153.0 27.5Q140 35 127.0 35.0Q114 35 101.0 27.5Q88 20 75.0 20.0Q62 20 49.0 27.5Q36 35 23 35Q16 35 9 33Q2 44 1 58Q11 63 23 63Q36 63 49.0 56.0Q62 49 75.0 49.0Q88 49 101.0 56.0Q114 63 127.0 63.0Q140 63 153.0 56.0Q166 49 178.5 49.0Q191 49 204.0 56.0Q217 63 230.0 63.0Q243 63 256.0 56.0Q269 49 282.0 49.0Q295 49 307.5 56.0Q320 63 333 63Q346 63 359.0 56.0Q372 49 384 49Q398 49 411.0 56.0Q424 63 437.0 63.0Q450 63 463.0 55.5Q476 48 489 48ZM512 87Q501 81 489 81Q476 81 463.0 88.0Q450 95 437.0 95.0Q424 95 411.0 88.0Q398 81 385.0 81.0Q372 81 359.0 88.0Q346 95 333.5 95.0Q321 95 308.0 88.0Q295 81 282.0 81.0Q269 81 256.0 88.0Q243 95 230.0 95.0Q217 95 204.0 88.0Q191 81 178.5 81.0Q166 81 153.0 88.0Q140 95 127.0 95.0Q114 95 101.0 88.0Q88 81 75.0 81.0Q62 81 49.0 88.0Q36 95 23 95Q11 95 0 89V118Q11 124 23 124Q36 124 49.0 116.5Q62 109 75.0 109.0Q88 109 101.0 116.5Q114 124 127.0 124.0Q140 124 153.0 116.5Q166 109 178.5 109.0Q191 109 204.0 116.5Q217 124 230.0 124.0Q243 124 256.0 116.5Q269 109 282.0 109.0Q295 109 307.5 116.5Q320 124 333 124Q346 124 359.0 116.5Q372 109 384 109Q398 109 411.0 116.5Q424 124 437.0 124.0Q450 124 463.0 116.5Q476 109 489 109Q501 109 512 115ZM512 148Q501 142 489 142Q476 142 463.0 149.0Q450 156 437.0 156.0Q424 156 411.0 149.0Q398 142 385.0 142.0Q372 142 359.0 149.0Q346 156 333.5 156.0Q321 156 308.0 149.0Q295 142 282.0 142.0Q269 142 256.0 149.0Q243 156 230.0 156.0Q217 156 204.0 149.0Q191 142 178.5 142.0Q166 142 153.0 149.0Q140 156 127.0 156.0Q114 156 101.0 149.0Q88 142 75.0 142.0Q62 142 49.0 149.0Q36 156 23 156Q11 156 0 150V178Q11 184 23 184Q36 184 49.0 177.0Q62 170 75.0 170.0Q88 170 101.0 177.0Q114 184 127.0 184.0Q140 184 153.0 177.0Q166 170 178.5 170.0Q191 170 204.0 177.0Q217 184 230.0 184.0Q243 184 256.0 177.0Q269 170 282.0 170.0Q295 170 307.5 177.0Q320 184 333 184Q346 184 359.0 177.0Q372 170 384 170Q398 170 411.0 177.0Q424 184 437.0 184.0Q450 184 463.0 176.5Q476 169 489 169Q501 169 512 175ZM512 208Q501 203 489 202Q476 202 463.0 209.0Q450 216 437.0 216.0Q424 216 411.0 209.0Q398 202 385.0 202.0Q372 202 359.0 209.0Q346 216 333.5 216.0Q321 216 308.0 209.0Q295 202 282.0 202.0Q269 202 256.0 209.0Q243 216 230.0 216.0Q217 216 204.0 209.0Q191 202 178.5 202.0Q166 202 153.0 209.0Q140 216 127.0 216.0Q114 216 101.0 209.0Q88 202 75.0 202.0Q62 202 49.0 209.0Q36 216 23 216Q11 216 0 211V239Q11 245 23 245Q36 245 49.0 237.5Q62 230 75.0 230.0Q88 230 101.0 237.5Q114 245 127.0 245.0Q140 245 153.0 237.5Q166 230 178.5 230.0Q191 230 204.0 237.5Q217 245 230.0 245.0Q243 245 256.0 237.5Q269 230 282.0 230.0Q295 230 307.5 237.5Q320 245 333 245Q346 245 359.0 237.5Q372 230 384 230Q398 230 411.0 237.5Q424 245 437.0 245.0Q450 245 463.0 237.5Q476 230 489 230Q501 230 512 236ZM512 269Q501 263 489 263Q476 263 463.0 270.0Q450 277 437.0 277.0Q424 277 411.0 270.0Q398 263 385.0 263.0Q372 263 359.0 270.0Q346 277 333.5 277.0Q321 277 308.0 270.0Q295 263 282.0 263.0Q269 263 256.0 270.0Q243 277 230.0 277.0Q217 277 204.0 270.0Q191 263 178.5 263.0Q166 263 153.0 270.0Q140 277 127.0 277.0Q114 277 101.0 270.0Q88 263 75.0 263.0Q62 263 49.0 270.0Q36 277 23 277Q11 277 0 271V300Q11 305 23 305Q36 305 49.0 298.0Q62 291 75.0 291.0Q88 291 101.0 298.0Q114 305 127.0 305.0Q140 305 153.0 298.0Q166 291 178.5 291.0Q191 291 204.0 298.0Q217 305 230.0 305.0Q243 305 256.0 298.0Q269 291 282.0 291.0Q295 291 307.5 298.0Q320 305 333 305Q346 305 359.0 298.0Q372 291 384 291Q398 291 411.0 298.0Q424 305 437.0 305.0Q450 305 463.0 297.5Q476 290 489 290Q501 290 512 296ZM511 329Q501 324 489 324Q476 324 463.0 330.5Q450 337 437.0 337.0Q424 337 411.0 330.0Q398 323 385.0 323.0Q372 323 359.0 330.0Q346 337 333.5 337.0Q321 337 308.0 330.0Q295 323 282.0 323.0Q269 323 256.0 330.0Q243 337 230.0 337.0Q217 337 204.0 330.0Q191 323 178.0 323.0Q165 323 152.5 330.0Q140 337 127.0 337.0Q114 337 101.0 330.0Q88 323 75.0 323.0Q62 323 49.0 330.0Q36 337 23 337Q11 337 1 332Q6 353 23 366Q36 366 49.0 359.0Q62 352 75.0 352.0Q88 352 101.0 359.0Q114 366 127.0 366.0Q140 366 153.0 359.0Q166 352 178.5 352.0Q191 352 204.0 359.0Q217 366 230.0 366.0Q243 366 256.0 359.0Q269 352 282.0 352.0Q295 352 307.5 359.0Q320 366 333 366Q346 366 359.0 359.0Q372 352 384 352Q398 352 411.0 359.0Q424 366 437.0 366.0Q450 366 463.0 358.5Q476 351 489 351Q496 351 502 352Q509 342 511 329Z" fill="#00247d" />
<path d="M388 40Q388 36 383.0 36.0Q378 36 378 40V266Q378 270 383.0 270.0Q388 270 388 266Z" fill="#c1694f" />
<path d="M351 158Q353 163 360 163Q363 163 365.0 162.0Q367 161 369.0 159.5Q371 158 372 158L382 155V121H345Q343 134 341 140Q336 155 341 158Q344 159 346.0 159.0Q348 159 349 159ZM415 158Q420 161 425 158Q430 155 425 140L422 121H384V155Q389 156 394 158Q394 158 398.0 160.5Q402 163 406 163Q410 163 412.0 162.0Q414 161 415 160Z" fill="#dd2e44" />
<path d="M382 167V162Q372 163 364 169Q350 179 340 170Q336 167 335.5 159.5Q335 152 338 149Q345 139 341 139Q340 139 337 141Q326 152 330 166Q335 180 348 180Q356 180 371 172Q373 171 375.5 170.0Q378 169 380.0 168.5Q382 168 382 167Z" fill="#ffcc4d" />
<path d="M340 142 346 143 344 134Q344 134 350 137L351 128L344 129L348 123L342 120Q340 128 340 131ZM352 137 358 138Q358 138 356 147Q357 149 360 149Q363 149 364.0 146.0Q365 143 363 141L362 138H368L369 130L364 134V129L370 123L353 121L358 128L357 133L353 129ZM384 167Q384 168 386.0 168.5Q388 169 390.5 170.0Q393 171 395 172Q410 180 418 180Q432 180 436 166Q440 152 429 141Q425 137 424 139Q423 143 428 149Q431 152 430.5 159.5Q430 167 426 170Q416 179 402 169Q399 167 394.5 165.0Q390 163 387 163L384 162Z" fill="#ffcc4d" />
<path d="M426 142V131L424 120L418 123L422 129L415 128Q416 136 416 137Q422 134 422 134L420 143ZM414 137 413 129 409 133 408 128 413 121 396 123 403 129V134L397 130L398 138H404Q398 148 406 149Q409 149 409.5 146.0Q410 143 409 141L408 138ZM383.0 192.0Q393 192 393.0 181.5Q393 171 383.0 171.0Q373 171 373.0 181.5Q373 192 383.0 192.0ZM374 203H392V197H374Z" fill="#ffcc4d" />
<path d="M379 208H387V144H379Z" fill="#ffcc4d" />
<path d="M376 147H389L385 137L394 142V130L386 132L393 122H375L380 132L372 131V141L380 138Z" fill="#ffcc4d" />
<path d="M383 126Q407 126 423 120Q424 113 423 109Q420 108 411.5 108.5Q403 109 393 110L383 112Z" fill="#ffcc4d" />
<path d="M383 126 384 112 344 109 343 120Q359 126 383 126Z" fill="#ffcc4d" />
<path d="M383.0 112.0Q428 112 428.0 102.0Q428 92 383.0 92.0Q338 92 338.0 102.0Q338 112 383.0 112.0Z" fill="#eeeeee" />
<path d="M383.0 104.0Q413 104 413.0 98.5Q413 93 383.0 93.0Q353 93 353.0 98.5Q353 104 383.0 104.0Z" fill="#99aab5" />
<path d="M365 350 374 339Q374 339 381 342L380 332L385 331L381 320Q381 320 386 322L385 311L387 310V299Q387 298 389 296L391 310L394 307L395 314L398 326L401 322L406 342L409 335L416 343H421L428 345L429 341H436L433 337Q433 337 436 335L438 333L423 334L415 326L420 324L412 320L419 318L413 314H418L410 308L418 306L407 301L410 298L399 291L397 287L408 295Q416 301 420 303Q420 303 425.5 307.0Q431 311 435 312H455L443 305L445 302L437 299L438 294L425 292V287L414 285L412 281L404 278L408 275Q408 275 402 272L412 271Q412 271 408 267H420L416 263H427L422 259Q431 258 431 257L427 252L435 251Q435 251 432 247L443 239L431 241Q431 241 428 238L424 244L421 240L418 247Q418 247 414 246L410 252L409 249L406 257L403 253L397 260L396 257L388 263Q388 259 388 258L394 254Q390 253 390 252L397 246L394 243L401 237Q401 237 395 235L399 230L397 224L391 232L388 231L387 239H384L386 247L383 246L382 253L381 260L378 264L377 260L379 254L377 251L380 244Q380 244 374 243L377 239L374 238L372 234Q372 234 368 237L366 229L362 234L366 250L361 251L357 244Q357 244 354 247L350 240Q350 240 347 246L343 236Q343 236 339 242L336 232Q336 232 332 238L329 230L328 237L322 233L329 243L341 254L350 261L344 262Q352 265 353 265Q349 267 349 267L365 272L357 275L348 272L347 279L338 275Q338 275 336 280L330 276L326 279L322 273L318 276L310 274L314 280L309 282L318 288L320 292L333 291Q333 291 330 295L343 292L347 293L359 288L349 296L340 298L346 302L333 307L335 312L318 316L329 319L321 331L336 322L343 324L347 316L353 312L354 306L357 307L360 300L363 301L365 295H371L369 302L371 305L365 310L370 313L363 319L369 320L360 329H367L360 338L366 339Z" fill="#77b255" />
<path d="M270 192H0V320Q0 335 8 348L9 351H48V376Q52 377 57 377H270Z" fill="#00247d" />
<path d="M270 377V348L230 320H270V249H230L270 221V192H237L171 238V192H100V229L47 192H0V210L55 249H0V320H54L9 351Q11 354 14 357L67 320H91L25 367Q35 374 48 376L100 340V377H171V330L237 377Z" fill="#eeeeee" />
<path d="M156 377V306H270V263H156V192H114V263H0V306H114V377Z" fill="#cf1b2b" />
<path d="M270 377V374L193 320H171V322L249 377ZM25 367 91 320H67L14 357Q19 363 25 367ZM92 249H100V237L35 192H10ZM270 195 193 249H218L270 212Z" fill="#cf1b2b" />
</g></svg>