<svg xmlns="http://www.w3.org/2000/svg" viewBox="0 0 512 512">
<g transform="matrix(1 0 0 -1 0 512)">
<path d="M455 377Q479 377 495.5 360.5Q512 344 512 320V64Q512 40 495.5 23.5Q479 7 455 7H128V377ZM320 86Q359 86 389.0 111.5Q419 137 425 175Q414 151 391.5 136.0Q369 121 341 121Q303 121 276.0 148.0Q249 175 249 214Q249 241 263.5 263.5Q278 286 302 298Q264 291 238.5 261.5Q213 232 213 192Q213 148 244.5 117.0Q276 86 320 86ZM393 234 425 226 403 252 421 281 390 267 368 293 371 259 340 246 372 239 375 205Z" fill="#004600" />
<path d="M57 377H128V7H57Q33 7 16.5 23.5Q0 40 0 64V320Q0 344 16.5 360.5Q33 377 57 377Z" fill="#eeeeee" />
<path d="M421 281 403 252 425 226 393 234 375 205 372 239 340 246 371 259 368 293 390 267Z" fill="#ffffff" />
<path d="M341 121Q369 121 391.5 136.0Q414 151 425 175Q419 137 389.0 111.5Q359 86 320 86Q276 86 244.5 117.0Q213 148 213 192Q213 232 238.5 261.5Q264 291 302 298Q278 286 263.5 263.5Q249 241 249 214Q249 175 276.0 148.0Q303 121 341 121Z" fill="#ffffff" />
</g></svg>