<svg xmlns="http://www.w3.org/2000/svg" viewBox="0 0 2048 2048">
<g transform="matrix(1 0 0 -1 0 2048)">
<path d="M455 377Q479 377 495.5 360.5Q512 344 512 320V64Q512 40 495.5 23.5Q479 7 455 7H57Q33 7 16.5 23.5Q0 40 0 64V320Q0 344 16.5 360.5Q33 377 57 377Z" fill="#009e49" />
<path d="M26 368 512 192 26 16Q22 19 19 21V363Q22 365 26 368Z" fill="#ffffff" />
<path d="M45 40V344L462 192Z" fill="#fcd116" />
<path d="M256 192 45 40 19 21Q14 26 8 35V349Q13 357 19 363L45 344Z" fill="#141414" />
<path d="M8 349 228 192 8 35Q0 49 0 64V320Q0 336 8 349Z" fill="#ce1126" />
</g></svg>