<svg xmlns="http://www.w3.org/2000/svg" viewBox="0 0 512 512">
<g transform="matrix(1 0 0 -1 0 512)">
<path d="M455 377Q479 377 495.5 360.5Q512 344 512 320V64Q512 40 495.5 23.5Q479 7 455 7H384V377Z" fill="#009e60" />
<path d="M57 377H128V7H57Q33 7 16.5 23.5Q0 40 0 64V320Q0 344 16.5 360.5Q33 377 57 377Z" fill="#0072c6" />
<path d="M128 377H384V7H128Z" fill="#fcd116" />
<path d="M225 113 256 175 287 113 256 52ZM187 190 217 252 248 190 217 129ZM264 190 295 252 325 190 295 129Z" fill="#009e60" />
</g></svg>