<svg xmlns="http://www.w3.org/2000/svg" viewBox="0 0 512 512">
<g transform="matrix(1 0 0 -1 0 512)">
<path d="M512 64Q512 40 495.5 23.5Q479 7 455 7H57Q33 7 16.5 23.5Q0 40 0 64V320Q0 344 16.5 360.5Q33 377 57 377H455Q479 377 495.5 360.5Q512 344 512 320Z" fill="#265fb5" />
<path d="M392 179Q392 175 395.5 167.5Q399 160 397 153Q396 149 392.0 144.5Q388 140 387 138Q387 136 386.5 131.0Q386 126 385 125Q384 123 379.5 118.0Q375 113 372.5 108.0Q370 103 372 98Q368 93 368 89Q360 91 358.0 89.0Q356 87 356.0 82.0Q356 77 354 74Q352 70 331 60Q320 55 319 53Q319 53 318.0 56.0Q317 59 317 60Q312 58 307.0 56.5Q302 55 295.5 55.0Q289 55 285.0 55.0Q281 55 273.0 56.0Q265 57 263 57Q263 58 263.5 59.0Q264 60 264 60Q261 61 258 63Q256 65 264.0 79.5Q272 94 263 104Q257 98 251.0 98.0Q245 98 236.5 101.0Q228 104 224 105Q210 107 199.0 105.0Q188 103 174.5 105.5Q161 108 151 118Q147 122 144.0 133.5Q141 145 137 150Q137 150 132.0 152.0Q127 154 123.5 158.0Q120 162 120 169Q128 167 128 171L129 172Q126 179 127 189Q127 191 129.5 194.5Q132 198 132 202Q132 202 128.0 207.0Q124 212 124 213Q123 213 120.0 214.5Q117 216 114.5 217.0Q112 218 110.5 220.0Q109 222 110.0 224.0Q111 226 116 228Q106 234 99.5 246.5Q93 259 95 270Q95 272 96.5 272.0Q98 272 100 270Q102 269 105.5 263.5Q109 258 110 257Q115 252 121 248Q151 229 164 231Q182 234 190.0 243.0Q198 252 200 270H199L200 271Q199 279 202.0 286.0Q205 293 212 292Q214 304 225 304Q225 305 224.0 307.0Q223 309 223 310Q228 309 238.0 311.0Q248 313 254 311Q256 311 260.0 311.0Q264 311 267.0 310.5Q270 310 272 309Q275 308 279.0 304.0Q283 300 286 299Q300 293 313 302Q315 296 317.0 292.0Q319 288 324.0 285.5Q329 283 330.5 282.5Q332 282 340.5 281.0Q349 280 351 280Q364 278 367.0 273.5Q370 269 368.0 262.0Q366 255 368 244Q369 241 371.0 236.5Q373 232 374.0 229.5Q375 227 374.0 221.5Q373 216 368 210Q369 210 377.5 206.0Q386 202 393 203Q399 204 395 193Q391 181 392 179Z" fill="#ffffff" />
</g></svg>