<svg xmlns="http://www.w3.org/2000/svg" viewBox="0 0 512 512">
<g transform="matrix(1 0 0 -1 0 512)">
<path d="M455 377Q479 377 495.5 360.5Q512 344 512 320V64Q512 40 495.5 23.5Q479 7 455 7H57Q33 7 16.5 23.5Q0 40 0 64V320Q0 344 16.5 360.5Q33 377 57 377Z" fill="#3366ff" />
<path d="M256 192 493 21Q476 7 455 7H57Q36 7 19 21Z" fill="#ff0000" />
<path d="M256 192 512 213V171ZM0 213 256 192 0 171ZM34 372 256 192 6 345Q15 364 34 372ZM506 345 256 192 478 372Q497 364 506 345ZM277 377 256 192 235 377Z" fill="#ffff00" />
</g></svg>