<svg xmlns="http://www.w3.org/2000/svg" viewBox="0 0 2048 2048">
<g transform="matrix(1 0 0 -1 0 2048)">
<path d="M455 377Q479 377 495.5 360.5Q512 344 512 320V64Q512 40 495.5 23.5Q479 7 455 7H57Q33 7 16.5 23.5Q0 40 0 64V320Q0 337 9 351H48V376Q52 377 57 377Z" fill="#68bfe5" />
<path d="M393 283H463V165Q463 148 445.5 132.5Q428 117 411 110L393 103Q390 104 385.5 106.0Q381 108 369.0 114.0Q357 120 348.0 126.5Q339 133 331.5 143.5Q324 154 324 165V283Z" fill="#000000" />
<path d="M393 106Q383 110 371.5 115.5Q360 121 343.5 135.5Q327 150 327 165V280H460V165Q460 150 443.5 135.5Q427 121 415.0 115.5Q403 110 393 106Z" fill="#ffffff" />
<path d="M460 236H402V188H460V169H402V110Q397 108 393 106Q389 108 384 110V169H327V188H384V236H327V280H460Z" fill="#d21034" />
<path d="M336.0 260.0Q344 260 344.0 253.0Q344 246 336.0 246.0Q328 246 328.0 253.0Q328 260 336.0 260.0Z" fill="#ffffff" />
<path d="M337 259Q334 258 332.5 259.5Q331 261 331 264Q333 268 341 269Q343 269 347.0 267.0Q351 265 352 265Q357 265 358 269Q358 270 359.5 272.5Q361 275 361.5 276.0Q362 277 361 278L364 274L372 278V271Q376 273 379 271Q377 270 375.0 269.0Q373 268 373 267L372 266Q374 263 372 262L382 259Q388 258 392 260Q417 267 423 267Q427 267 430.5 266.0Q434 265 434.5 265.0Q435 265 437 266Q438 268 437.0 269.5Q436 271 433.0 272.0Q430 273 426 272Q423 272 416.5 269.5Q410 267 406.5 266.5Q403 266 399 269L397 267Q394 268 390 270Q389 271 388 269Q387 266 390 265Q385 265 384 269Q383 269 382.5 270.0Q382 271 380.5 273.5Q379 276 382 277Q382 270 392 274Q397 276 401 272Q406 267 416 273Q422 277 432.5 276.5Q443 276 444 270Q444 266 441.5 263.5Q439 261 436 261L434 260Q434 260 434.5 259.0Q435 258 436.5 257.0Q438 256 441 256Q452 258 453 254Q454 252 456.0 249.5Q458 247 458 245Q455 239 446 240Q441 241 441 243Q441 244 444 245Q450 247 448 250Q447 251 444.0 249.5Q441 248 438 249L428 255Q428 252 424 251Q422 250 424 247Q425 246 425 246Q426 244 423.0 242.5Q420 241 416 240Q405 238 401 242Q396 248 402 249Q404 249 405 248Q411 243 412.5 244.0Q414 245 412.5 247.0Q411 249 411 251V258Q404 247 389 245L371 242L366 246L361 242V246Q352 239 348 238Q344 238 337.5 239.5Q331 241 331 244Q331 248 336 250Q339 251 343 247Q347 243 350 245L354 249L355 253H351L353 258Q350 257 347 259Q343 263 342.5 263.0Q342 263 341.0 261.0Q340 259 337 259Z" fill="#ffd101" />
<path d="M348 203Q351 196 348.0 194.5Q345 193 342.0 199.5Q339 206 341.5 209.0Q344 212 348 203ZM355 196Q354 196 353.5 200.0Q353 204 353.5 208.5Q354 213 355.0 213.0Q356 213 357.0 209.0Q358 205 358.0 200.5Q358 196 355 196ZM362 193Q360 194 360.5 196.5Q361 199 363.0 201.5Q365 204 366 204Q366 204 366.5 201.5Q367 199 365.5 196.0Q364 193 362 193ZM432 190Q432 190 427 192L428 193L429 194V214H434Q433 199 434 196Q437 191 435 191Q434 191 432 190ZM449 160Q447 157 445.0 159.5Q443 162 442 162Q439 161 437 154Q435 148 432 150Q430 151 432 155Q435 166 442 166Q445 166 447.5 163.5Q450 161 449 160ZM415 130Q426 129 406 119Q407 120 407.5 122.0Q408 124 410.5 127.0Q413 130 415 130Z" fill="#964b36" />
<path d="M344 204Q344 204 337 202Q334 202 334 199Q328 200 335 206Q338 208 340 207Q339 211 336.0 211.5Q333 212 332 206Q329 209 329.5 212.0Q330 215 333.0 216.0Q336 217 338 216Q336 222 333 222Q332 222 331 219Q329 221 329.0 223.5Q329 226 331.0 227.0Q333 228 336 227L341 220Q341 221 342.0 223.0Q343 225 346.0 227.0Q349 229 352 228Q338 222 344 204Z" fill="#00a651" />
<path d="M356 209 351 215Q354 207 349 203Q349 207 348.0 210.0Q347 213 346.5 214.0Q346 215 347 217H355Q356 219 351 223Q349 225 346.5 226.5Q344 228 343.0 228.5Q342 229 342 231Q343 230 347.0 228.5Q351 227 353.0 225.5Q355 224 356 220Q357 230 363 230Q364 230 366.0 230.0Q368 230 369.5 230.0Q371 230 372 231Q372 229 368 228Q366 228 365 228Q367 226 368.0 223.5Q369 221 369 219V217L362 226L358 218Q359 218 360.5 218.0Q362 218 363.5 215.0Q365 212 363 208Q362 214 359 214Z" fill="#00a651" />
<path d="M363 202Q364 213 368 214Q370 224 376 226Q379 227 380.5 224.0Q382 221 381 219Q374 228 373 214Q376 215 377.5 213.0Q379 211 378 208Q372 215 370 209Q377 207 372 200Q371 204 369.5 204.0Q368 204 366 200Q365 198 363 202ZM431 209Q427 209 423.0 205.5Q419 202 419 196Q415 202 418.0 207.5Q421 213 427 216Q412 216 409 206Q408 214 415.0 218.0Q422 222 427 220Q425 224 418.0 224.0Q411 224 406 221Q406 228 416.0 229.5Q426 231 431 224Q430 227 430.5 229.5Q431 232 432 232L433 233V224Q449 239 458 220Q451 224 446.0 224.0Q441 224 439 222L437 220Q437 220 440.5 220.5Q444 221 447.0 217.5Q450 214 449 207Q447 211 443.5 213.5Q440 216 437 216H435Q436 215 437.5 214.0Q439 213 442.0 208.5Q445 204 442 198Q440 204 437.0 206.5Q434 209 433 209Z" fill="#00a651" />
<path d="M420 154Q420 157 422.0 159.5Q424 162 426 163L428 164Q442 156 444 154Q446 152 443.5 148.0Q441 144 437 143Q434 142 430.0 144.5Q426 147 423 151Z" fill="#fff202" />
<path d="M416 130Q413 132 412.5 138.0Q412 144 416 145Q413 154 420 156Q424 157 432 150Q433 148 435.5 146.5Q438 145 439.0 144.5Q440 144 440 143Q440 142 438.0 139.5Q436 137 432 136Q433 133 426.5 130.5Q420 128 416 130Z" fill="#00a651" />
<path d="M342 158Q345 159 347 161Q351 165 354 159L358 151Q357 158 364 161L372 166L370 156Q378 161 379 164Q382 149 367 143L369 134L379 126L368 122L363 133Q351 132 349 142Q348 145 348.5 149.0Q349 153 349.5 154.0Q350 155 349 156Z" fill="#000000" />
<path d="M364 134H363Q352 134 351 142Q350 147 351 153Q352 156 351 157L349 158Q348 158 346 158Q347 159 348.0 160.0Q349 161 350 161Q352 161 353 159Q355 155 357 151H360Q359 157 365 160Q367 161 370 163L368 153L371 155Q375 158 378 161Q378 148 367 144L365 143L366 142Q368 138 368 134L367 133L376 126L369 124Z" fill="#ffffff" />
<path d="M345 159Q346 153 344 150L342 155L339 153L341 158L337 164L341 160Q341 162 341 164Q343 163 345 159Z" fill="#00a651" />
<path d="M270 192H0V320Q0 335 8 348L9 351H48V376Q52 377 57 377H270Z" fill="#00247d" />
<path d="M270 377V348L230 320H270V249H230L270 221V192H237L171 238V192H100V229L47 192H0V210L55 249H0V320H54L9 351Q11 354 14 357L67 320H91L25 367Q35 374 48 376L100 340V377H171V330L237 377Z" fill="#eeeeee" />
<path d="M156 377V306H270V263H156V192H114V263H0V306H114V377Z" fill="#cf1b2b" />
<path d="M270 377V374L193 320H171V322L249 377ZM25 367 91 320H67L14 357Q19 363 25 367ZM92 249H100V237L35 192H10ZM270 195 193 249H218L270 212Z" fill="#cf1b2b" />
</g></svg>