<svg xmlns="http://www.w3.org/2000/svg" viewBox="0 0 2048 2048">
<g transform="matrix(1 0 0 -1 0 2048)">
<path d="M57 377H171V7H57Q33 7 16.5 23.5Q0 40 0 64V320Q0 344 16.5 360.5Q33 377 57 377ZM455 377Q479 377 495.5 360.5Q512 344 512 320V64Q512 40 495.5 23.5Q479 7 455 7H341V377Z" fill="#007934" />
<path d="M171 377H341V7H171Z" fill="#eeeeee" />
<path d="M285 140Q282 139 282 138Q285 136 295 137Q298 137 298 136L300 135Q306 138 307 135H309Q311 137 316 136Q320 134 317 133Q316 132 313 132Q300 131 288 134Q284 134 284 133Q284 132 288.0 131.5Q292 131 294 131Q298 130 298 130H302L306 129Q306 129 306.5 129.0Q307 129 309 129Q312 131 315 131Q317 129 317 128Q307 122 290 127Q284 129 284 129L282 128L283 127Q281 125 278 125H277L279 123Q278 123 268 125Q264 126 263 119Q263 118 265 91Q265 89 264.0 89.0Q263 89 258 89Q252 89 252 90Q252 92 252.0 99.0Q252 106 252.0 111.0Q252 116 252 122Q251 123 248.5 122.0Q246 121 245 121Q246 122 245.5 122.5Q245 123 243 122Q240 121 237 121Q240 124 236 124Q230 123 220 121Q211 118 204 120Q201 121 200.0 122.0Q199 123 201 124Q205 127 210 125Q211 125 213.0 124.0Q215 123 215 123Q216 124 211 127Q212 127 215.0 128.0Q218 129 221 128Q224 126 226 128Q228 131 231 131Q233 131 234.5 129.5Q236 128 238 128Q242 129 237 131Q236 132 234 133Q232 133 209 131Q202 130 196 135Q191 139 195 141Q205 143 211 138Q213 135 213.0 136.5Q213 138 212.0 139.0Q211 140 211.5 140.5Q212 141 213 141L214 142Q213 143 211 143Q208 144 202 147Q198 149 201.0 149.5Q204 150 207 148H209L211 149Q211 149 214.0 148.0Q217 147 219 145Q220 145 220.0 145.5Q220 146 220 147Q219 148 220 148Q221 149 224.0 148.5Q227 148 228 148V149Q228 149 225.5 149.5Q223 150 221 150Q215 151 208 153Q203 155 207 156Q211 156 216 153L217 154Q215 155 217.5 155.0Q220 155 223 152L224 153Q223 154 224 154Q230 155 235 151Q236 150 236.5 150.5Q237 151 236 152Q236 153 238 153L239 154Q238 155 236 155Q226 159 213 157Q210 156 212 158Q213 160 211.0 160.5Q209 161 211 162Q213 163 215 162Q220 161 222 159L224 160Q222 162 224 162Q228 162 231 161H232Q228 164 221 164Q215 163 212 166Q209 168 213.5 169.0Q218 170 225 166V168V169Q228 169 232 165L234 166L235 168Q235 168 237 167Q238 166 243.5 164.5Q249 163 250 162Q253 160 253.5 161.0Q254 162 248 165Q237 170 215 173Q210 174 213 176Q218 179 223 175Q225 173 225 175H226Q227 174 229.0 173.5Q231 173 233 172V174Q231 176 233 176V177Q229 178 226 179Q224 180 221.0 179.5Q218 179 215 180L214 182Q215 182 218 183Q221 185 223 182H225Q224 183 226 184Q231 184 234 180L235 181L237 182Q240 181 243 178L245 179Q245 180 246 180Q248 179 252 177Q253 177 253 177Q255 179 252 180Q248 182 242 182Q240 183 233.0 184.5Q226 186 221 186Q219 188 219 189Q221 191 224 189L226 190Q224 192 220.5 192.5Q217 193 218.0 194.5Q219 196 215 198Q212 199 217 201Q220 202 224 199V200V201Q224 201 226.5 199.5Q229 198 230 198Q232 199 229 201L228 203Q229 203 229.5 203.5Q230 204 229 204Q226 206 221 207Q216 207 219 209Q221 210 226 210Q228 210 232 206L233 207Q232 208 234.0 208.0Q236 208 240 205Q242 203 251 200Q254 199 255 201Q255 202 252 203Q249 203 235 210Q229 212 224 212L222 214Q222 214 226 216Q228 216 227 217Q226 218 224 218Q220 218 224 220Q226 221 233 222Q236 222 239 220Q242 218 246 217Q248 217 249.5 216.5Q251 216 253 216Q256 216 251 218Q240 223 233 224Q229 224 231 227L229 228H227L225 229L227 230Q230 233 237 228Q238 227 243.0 226.0Q248 225 251 224Q254 222 254 224Q255 225 251 227Q241 233 232 234Q230 234 233 236L230 237L228 238Q229 238 232 239Q234 240 233 240L234 241Q243 242 252 239Q256 237 256.0 238.5Q256 240 252 241Q244 244 239 243L238 245Q243 248 250 244Q256 240 256 242Q256 244 253 245Q249 245 245 247Q242 248 237 247L235 248Q237 250 234 250L233 251Q235 252 240 250Q241 250 253 250L252 251Q246 252 242 252L241 253Q244 256 252 252Q256 251 256 253Q256 254 254 255Q250 256 243 255Q240 255 240.0 255.5Q240 256 242 257Q245 259 255 256L256 257Q256 258 254 259Q250 261 243 261Q238 261 243 263Q245 263 253 260Q254 261 255 261Q253 263 247 266Q241 268 245 268Q249 269 253 265Q256 261 256 265Q256 267 252 269L253 270Q256 269 256 271Q256 273 253 275Q251 276 251.5 276.5Q252 277 254 277Q256 275 256 278Q256 279 253 280L255 281Q257 280 257 282Q257 286 257 294H258Q259 285 259 282Q259 280 261 281L263 280Q262 279 261 279Q259 279 259.0 277.0Q259 275 259.5 275.0Q260 275 261 275Q263 276 263 276L261 274Q259 274 259.0 271.5Q259 269 262 269L261 267Q259 267 259.0 265.0Q259 263 261 263Q263 263 265 264Q266 265 268.5 265.0Q271 265 271.5 264.5Q272 264 272.0 263.5Q272 263 271 264Q270 264 267.5 263.0Q265 262 264 262Q263 262 261.5 262.0Q260 262 260 261Q260 260 263 261Q269 262 271 261L270 259Q270 260 266.0 259.5Q262 259 260 259Q259 260 259 259Q258 258 260 257Q261 255 267 257Q271 259 273 257Q274 256 273.5 255.5Q273 255 271 255Q270 256 267.0 255.5Q264 255 263 255Q260 256 259 254Q258 251 260 251Q262 250 267 253Q271 254 274 253L272 251Q270 252 267 250Q266 249 260 249V247Q263 247 267 248Q268 249 271.0 248.5Q274 248 275.0 248.0Q276 248 276.0 248.0Q276 248 276 247Q275 246 275 246Q276 245 275.5 244.5Q275 244 276.0 242.0Q277 240 275 240Q274 240 270.0 240.0Q266 240 263 240Q260 239 260 237Q261 236 265 237Q270 239 274 238Q278 237 275 236Q274 235 270.0 235.0Q266 235 265 235Q264 234 263 233Q264 233 270 234Q278 235 279 233Q282 231 278 231Q276 231 275 231Q273 232 267.5 231.5Q262 231 261 231Q259 230 259 229Q260 228 262 228Q265 227 270 229Q276 231 277 230Q279 228 281 228Q281 228 282 228Q284 228 284 227Q283 226 284.0 225.5Q285 225 286 224Q287 223 284 223Q283 223 282.0 223.0Q281 223 278.0 222.5Q275 222 271.0 221.5Q267 221 265 220Q260 220 260.0 218.5Q260 217 263 217Q265 217 277 220H279H284Q286 222 293 220L294 219L293 218Q291 218 292.5 215.5Q294 213 290.0 213.5Q286 214 282 211Q282 210 286 210L290 209Q290 208 296 208Q297 208 298 208Q299 206 297 205Q295 204 291 204Q286 204 282 202Q280 202 282 201Q283 201 284.5 201.5Q286 202 288.0 202.0Q290 202 290 201Q290 200 292 200Q295 201 298 201Q300 201 300.5 199.5Q301 198 300 198Q298 197 300 195Q302 194 301.0 193.5Q300 193 299 193Q297 194 295.0 193.0Q293 192 293 192L292 191Q294 189 290 188Q285 186 282 186L283 184Q286 184 295 188Q298 189 298 186H300Q300 187 303 189Q304 190 305.0 189.5Q306 189 305 188Q304 185 298 182Q295 181 291.0 180.0Q287 179 286 179L284 177Q285 177 284 176Q282 175 283 174Q284 174 286 175Q290 178 300 178Q303 177 303 175Q300 174 295 175Q293 175 294 174Q294 173 293.5 173.0Q293 173 291 173Q288 174 285 172Q283 170 285 170Q286 169 287 170Q291 171 295 172Q297 172 296 171L299 170Q304 171 307 169Q308 167 307 166Q307 166 305.0 165.5Q303 165 301.0 165.5Q299 166 295.5 165.0Q292 164 291 164L290 163Q293 162 297 163Q299 164 299 163Q299 162 299.5 162.0Q300 162 301 162Q303 164 307 164L309 163Q308 162 306 162Q305 162 302.5 160.5Q300 159 296 160Q292 160 286 157Q281 154 285 154Q286 154 289 155H290Q290 154 291 155Q292 155 296 158L301 157H303Q304 159 308 159Q314 159 310 156Q305 153 299.0 153.0Q293 153 293 152Q290 151 286.5 151.0Q283 151 281 150L283 149Q291 151 292 150Q293 148 298.0 150.0Q303 152 304.0 150.5Q305 149 307 150Q311 152 314 149Q316 148 315.5 147.5Q315 147 314 147Q313 147 310.0 145.0Q307 143 305 144Q300 146 297 145L295 144Q298 144 295 143Q294 142 296 141Q297 141 298 141Q304 143 304 143Q307 142 307 141L308 140L310 141Q313 144 316.5 141.5Q320 139 317 139Q315 138 312 138Q308 138 298.0 139.0Q288 140 285 140ZM262 241Q260 241 260.0 241.5Q260 242 262 242Q264 242 262 241ZM265 246V245Q260 243 260 245Q260 246 261.5 245.5Q263 245 265 246ZM253 247Q251 248 253 248Q255 249 255 247Q255 246 253 247ZM227 137Q227 137 227 138L229 137Q231 137 231 135Q230 132 227 137ZM246 157Q247 156 249 156Q253 155 253 154Q253 153 251 153Q248 153 245 156ZM253 136Q252 135 250.5 135.0Q249 135 247 137L248 138Q250 138 252 138Q253 139 253 136ZM251 142Q249 142 242 144L244 146Q247 145 251 145Q253 144 251 142ZM252 185Q254 184 254 185Q254 187 251 188Q247 188 241.5 190.0Q236 192 235 192Q235 192 235 190Q240 190 243.5 188.0Q247 186 248.5 186.0Q250 186 252 185ZM242 198 240 199Q244 200 248 198Q251 196 253 196Q254 196 254.0 194.0Q254 192 251.0 194.0Q248 196 242 198ZM241 237Q242 237 246.5 236.0Q251 235 253 234V233Q252 233 251 234Q250 234 247.0 234.5Q244 235 241 236ZM249 221Q249 221 244 223Q245 224 250 222Q254 221 254 219Q254 219 249 221ZM241 216Q244 216 251 213Q254 212 254 211Q254 210 253.5 210.0Q253 210 252 211Q252 211 250.0 211.5Q248 212 245.0 213.0Q242 214 241 215ZM255 206Q255 205 253 205Q252 205 249.0 206.5Q246 208 243 209Q242 209 239.5 210.5Q237 212 236 212V213Q237 212 241 212Q247 211 251 208Q251 208 252 208Q255 207 255 206ZM255 229Q255 226 253 228Q252 229 248 230V231Q251 230 254 230Q255 230 255 229ZM261 226Q264 225 269 226L270 225Q265 224 263 223Q259 221 259.0 223.5Q259 226 261 226ZM279 178Q278 178 276.0 177.0Q274 176 270.5 175.0Q267 174 266 173Q261 171 261 174Q261 176 263.0 176.0Q265 176 265 176Q266 177 270.5 178.0Q275 179 277 179Q278 179 279 178ZM273 166Q272 166 270.5 165.5Q269 165 267.5 164.5Q266 164 265 163L263 165Q266 167 272 167ZM271 181Q270 180 266 179Q261 178 261 180Q261 181 264 181Q270 180 271 181ZM265 190Q265 190 267.5 191.0Q270 192 271 192Q272 193 271 193Q271 193 269 193Q268 193 265.5 192.0Q263 191 262 191Q261 191 261 190Q261 189 262.5 189.0Q264 189 265 190ZM263 212Q265 212 268 213H269Q268 212 264 211Q261 210 261 211Q261 212 263 212ZM263 203Q268 203 270 204Q272 205 274 205L273 203Q273 203 270.0 202.5Q267 202 266 201Q264 200 261 200Q260 200 260 201Q260 203 263 203ZM261 196Q261 197 262 197Q263 197 266.5 198.0Q270 199 271 199V198Q266 197 264 196Q263 195 262.0 195.0Q261 195 261 196ZM264 187Q261 187 261 186Q261 184 264 185Q264 187 264 187ZM263 169Q265 169 268 170L269 169Q265 168 262 168ZM267 135Q266 136 264 136Q262 135 262 138Q262 137 264.5 137.5Q267 138 269 137ZM269 143Q268 143 266.0 142.5Q264 142 263 142V144Q264 143 268 144ZM263 150Q265 150 266 151V150Q264 149 263.0 149.0Q262 149 262.0 149.5Q262 150 263 150ZM264 159Q264 159 263 160Q263 161 265.0 161.5Q267 162 269.0 162.5Q271 163 272 164Q274 165 280 165Q282 166 280 163Q279 162 275 162Q272 162 264 159ZM277 156Q277 156 276 157Q279 158 280 157Z" fill="#007934" />
<path d="M250 219H241Q237 219 237.0 223.5Q237 228 241 228H250Q254 228 254.0 223.5Q254 219 250 219ZM270 157H269Q263 157 263.0 163.0Q263 169 269 169H270Q276 169 276.0 163.0Q276 157 270 157ZM267 138Q267 135 265.0 135.0Q263 135 263 138V147Q263 149 265.0 149.0Q267 149 267 147ZM249 136H247Q242 136 242.0 140.0Q242 144 247 144H249Q253 144 253.0 140.0Q253 136 249 136ZM254 202Q254 196 250.0 196.0Q246 196 246 202V209Q246 215 250.0 215.0Q254 215 254 209ZM265 223Q265 220 262.0 220.0Q259 220 259 223V227Q259 229 262.0 229.0Q265 229 265 227ZM297 131H289Q285 131 285.0 135.5Q285 140 289 140H297Q301 140 301.0 135.5Q301 131 297 131ZM231 124H221Q217 124 217.0 128.0Q217 132 221 132H231Q236 132 236.0 128.0Q236 124 231 124Z" fill="#eeeeee" />
</g></svg>