<svg xmlns="http://www.w3.org/2000/svg" viewBox="0 0 2048 2048">
<g transform="matrix(1 0 0 -1 0 2048)">
<path d="M0 263H512V121H0Z" fill="#0c4076" />
<path d="M0 64V121H512V64Q512 40 495.5 23.5Q479 7 455 7H57Q33 7 16.5 23.5Q0 40 0 64Z" fill="#eeeeee" />
<path d="M512 320V263H0V320Q0 344 16.5 360.5Q33 377 57 377H455Q479 377 495.5 360.5Q512 344 512 320ZM100 263H256V128Q256 96 233.0 73.0Q210 50 177.5 50.0Q145 50 122.5 73.0Q100 96 100 128Z" fill="#c6363c" />
<path d="M247 315 228 283Q232 281 228 272Q226 268 220.5 267.5Q215 267 201.0 268.5Q187 270 178 270Q171 270 162.5 269.0Q154 268 149.0 268.0Q144 268 139.0 268.0Q134 268 131.5 269.0Q129 270 128 272Q126 276 126.0 279.0Q126 282 127 282L128 283Q114 306 109 315Q106 320 111.5 327.5Q117 335 134.5 341.5Q152 348 177.5 348.0Q203 348 220.5 341.5Q238 335 243.5 327.5Q249 320 247 315ZM129 305Q126 304 127 297Q127 299 125 301Q122 304 122 301Q122 301 122 300L120 305Q121 310 117 316Q113 322 118 326Q121 328 128 330Q128 330 133 314Q134 311 137 309Q137 309 137 306Q138 305 140 302Q140 302 134 305V304Q135 303 135 302Q132 306 129 305ZM174 305Q175 306 172 309Q169 312 171 313L166 316Q167 317 167.5 319.0Q168 321 169.0 327.0Q170 333 168 339Q145 340 141 333Q140 330 142.5 325.0Q145 320 147 318Q150 315 147 313L146 311L147 308Q146 305 146.0 304.0Q146 303 147 303Q148 304 149.0 305.5Q150 307 151 308L152 307Q151 305 153 304Q154 303 156.0 302.0Q158 301 159 300Q157 302 157.0 305.5Q157 309 159 310Q162 310 162.5 307.5Q163 305 162 303L161 301Q164 300 164 302Q164 304 165.5 305.0Q167 306 167 306Q167 308 167.5 308.5Q168 309 170 308Q174 305 174 305ZM209 308 210 311Q210 312 208 313Q206 315 208 318Q210 320 213.0 325.0Q216 330 215 333Q210 340 187 339Q186 332 186.5 326.5Q187 321 188 319L189 316Q185 314 184 313Q186 312 183 309Q180 306 181 305Q182 305 186 308Q187 309 188.0 308.5Q189 308 189 306Q188 306 189.5 305.0Q191 304 191 302L194 301L197 310Q199 309 199.0 305.5Q199 302 197 300Q197 301 199.5 302.0Q202 303 203 304Q204 305 204 307V308Q205 307 206.5 305.5Q208 304 209 303Q210 303 210.0 304.0Q210 305 209 308ZM239 316Q235 310 235 305L234 300V301Q234 304 230 301Q229 299 228 297Q230 304 227 305Q224 306 220 299V297Q220 298 221.0 301.5Q222 305 221 305L216 302Q217 305 218 306V309Q221 311 223 314L227 330Q235 328 238 326Q243 322 239 316Z" fill="#edb92e" />
<path d="M179 345Q179 342 176.5 342.0Q174 342 174 345V367Q174 370 176.5 370.0Q179 370 179 367Z" fill="#ffac33" />
<path d="M182 359H171Q169 359 169.0 361.5Q169 364 171 364H182Q184 364 184.0 361.5Q184 359 182 359ZM146 127 152 122Q144 110 141 108L137 106Q135 107 128 101Q127 103 128.5 105.0Q130 107 132 108L134 109Q125 108 125 110Q125 112 135 111Q137 111 138.0 111.5Q139 112 140.0 113.5Q141 115 141.5 116.5Q142 118 143.5 121.5Q145 125 146 127ZM209 127Q210 125 211.5 121.5Q213 118 213.5 116.5Q214 115 215.0 113.5Q216 112 217.0 111.5Q218 111 220 111Q230 112 230 110Q230 109 227.5 108.5Q225 108 223 109H221Q222 108 223.5 107.5Q225 107 227.0 105.0Q229 103 228 101Q227 99 225.0 100.0Q223 101 221 104L219 106Q217 106 214 108L204 122Z" fill="#edb92e" />
<path d="M176.5 356.0Q185 356 185.0 347.5Q185 339 176.5 339.0Q168 339 168.0 347.5Q168 356 176.5 356.0ZM131.5 277.0Q137 277 137.0 273.5Q137 270 131.5 270.0Q126 270 126.0 273.5Q126 277 131.5 277.0Z" fill="#0c4076" />
<path d="M152.5 278.0Q158 278 158.0 274.5Q158 271 152.5 271.0Q147 271 147.0 274.5Q147 278 152.5 278.0ZM200.5 278.0Q206 278 206.0 274.5Q206 271 200.5 271.0Q195 271 195.0 274.5Q195 278 200.5 278.0Z" fill="#c6363c" />
<path d="M223.0 277.0Q228 277 228.0 273.5Q228 270 223.0 270.0Q218 270 218.0 273.5Q218 277 223.0 277.0ZM176.5 279.0Q182 279 182.0 275.0Q182 271 176.5 271.0Q171 271 171.0 275.0Q171 279 176.5 279.0Z" fill="#0c4076" />
<path d="M243 225Q244 215 244.0 204.5Q244 194 244 186L243 177Q245 161 241 147Q236 122 241 110Q239 110 236.5 112.5Q234 115 233 116L232 118Q233 116 233.0 114.0Q233 112 231 111Q229 111 227.0 115.0Q225 119 224 120L219 128Q219 128 217 128Q216 126 219 121L212 124L210 115L208 120L206 112L202 119L199 116Q199 117 198.5 118.5Q198 120 197.5 123.0Q197 126 196.0 127.5Q195 129 194 128Q186 122 192 109Q194 107 194.0 105.0Q194 103 193 102L192 101Q197 95 199 91L198 84Q198 82 199.5 80.0Q201 78 202.5 73.5Q204 69 203 67Q200 59 178 59H177Q154 59 151 67Q150 69 151.5 73.0Q153 77 155 80L157 84L156 91L162 101Q159 103 162 109Q168 122 160 128Q157 127 156 116L153 119L148 112L146 120L144 115L142 124L135 121Q139 128 135 128Q133 123 130 120Q129 119 127.0 115.0Q125 111 123 111Q121 111 122 118Q118 111 113 110Q119 122 113 147Q111 153 111.0 160.5Q111 168 111 172V177Q111 180 110.5 185.0Q110 190 109.5 204.0Q109 218 111 224Q113 236 122.0 235.0Q131 234 136 224Q148 204 156 214Q168 230 157 243L148 254Q149 261 162 256Q166 255 170 254Q174 252 175 251L171 247Q176 242 177 225Q178 233 179.5 238.0Q181 243 182 245L183 247Q181 247 180 251Q179 252 180.5 252.5Q182 253 185.5 254.0Q189 255 192 256Q205 261 207 254L197 243Q187 230 199 214Q206 205 218 225Q224 235 232.5 236.0Q241 237 243 225Z" fill="#ffffff" />
<path d="M169 244Q173 241 167.5 238.0Q162 235 158 235Q158 235 155.0 234.0Q152 233 149.5 233.5Q147 234 145 236Q142 236 140.0 237.5Q138 239 137 241V242L146 239Q154 240 151 244Q149 245 147.0 244.5Q145 244 144 243L142 242Q140 241 137 247Q131 255 142 257Q146 258 155.0 253.5Q164 249 169 244ZM185 244Q190 249 199.0 253.5Q208 258 212 257Q223 255 218 247L212 242Q212 242 211.0 243.0Q210 244 207.0 245.0Q204 246 203 244Q200 240 208 239L218 242Q216 236 209 236Q207 234 204.5 233.5Q202 233 199.5 234.0Q197 235 196 235Q192 235 187.0 238.0Q182 241 185 244ZM142 90Q145 92 146.0 89.5Q147 87 145 84Q144 87 141 83Q141 81 143 80Q142 75 138.5 75.0Q135 75 133 80Q133 80 134.5 80.5Q136 81 136 83Q135 87 132 84Q130 87 131.0 89.5Q132 92 135 90Q133 94 136 96L138 100Q139 98 141 96Q144 94 142 90ZM219 90Q222 92 223.0 89.5Q224 87 222 84Q221 87 218 83Q218 81 220 80Q221 80 221 80Q220 75 216.0 75.0Q212 75 211 80Q211 80 212.0 80.5Q213 81 213 83Q213 87 209 84Q207 87 208.0 89.5Q209 92 212 90Q211 94 213 96L216 100Q217 98 218 96Q221 94 219 90Z" fill="#edb92e" />
<path d="M146 208H209V153Q209 140 200.0 130.5Q191 121 177.5 121.0Q164 121 155.0 130.5Q146 140 146 153Z" fill="#c6363c" />
<path d="M209 175V162H184V122Q181 121 177.5 121.0Q174 121 171 122V162H146V175H171V208H184V175Z" fill="#eeeeee" />
</g></svg>