<svg xmlns="http://www.w3.org/2000/svg" viewBox="0 0 2048 2048">
<g transform="matrix(1 0 0 -1 0 2048)">
<path d="M455 377Q479 377 495.5 360.5Q512 344 512 320V254L23 18Q19 21 16 24L344 377Z" fill="#d62828" />
<path d="M11 31 171 377H344L16 24Q13 27 11 31Z" fill="#fcd856" />
<path d="M171 377 11 31Q0 46 0 64V320Q0 344 16.5 360.5Q33 377 57 377Z" fill="#003f87" />
<path d="M29 14Q26 16 23 18L512 254V130Z" fill="#eeeeee" />
<path d="M57 7Q42 7 29 14L512 130V64Q512 40 495.5 23.5Q479 7 455 7Z" fill="#007a3d" />
</g></svg>