<svg xmlns="http://www.w3.org/2000/svg" viewBox="0 0 2048 2048">
<g transform="matrix(1 0 0 -1 0 2048)">
<path d="M512 64Q512 40 495.5 23.5Q479 7 455 7H57Q33 7 16.5 23.5Q0 40 0 64V320Q0 344 16.5 360.5Q33 377 57 377H455Q479 377 495.5 360.5Q512 344 512 320Z" fill="#ffcc00" />
<path d="M57 377H171V7H57Q33 7 16.5 23.5Q0 40 0 64V320Q0 344 16.5 360.5Q33 377 57 377Z" fill="#eeeeee" />
<path d="M171 377H341V7H171Z" fill="#0868a9" />
<path d="M299 216Q303 212 302 193Q302 189 305.0 184.0Q308 179 310 178Q314 177 317 170Q317 166 322 169Q323 170 323.0 172.5Q323 175 322.0 176.0Q321 177 321.0 178.5Q321 180 324 179Q327 178 327 171Q327 165 320 164L314 166Q313 160 317 159Q320 158 318 154L314 146H306Q307 149 309 149Q313 149 313 153Q313 154 312.0 155.5Q311 157 309.0 158.5Q307 160 307 160L306 164L300 162V158L297 153H290V157Q291 157 293 158Q296 158 296 159Q296 160 295.0 162.0Q294 164 294 165L300 172Q296 177 292 179L286 186Q281 192 279 193Q277 193 278.0 196.5Q279 200 281.0 200.0Q283 200 283 197Q283 195 283 195L286 193V195Q284 198 284 202Q284 203 283.0 204.0Q282 205 280.0 206.0Q278 207 278 207Q277 208 278.0 210.0Q279 212 281 212Q283 212 285 207L290 202Q291 206 289 207Q284 211 284 215Q283 220 288 217Q289 217 293.0 218.0Q297 219 299 216ZM213 216Q215 219 219.0 218.0Q223 217 224 217Q228 220 228 215Q228 211 223 207L222 202Q225 205 226 207Q229 212 231 212Q233 212 234.0 210.0Q235 208 234 207Q234 207 232.0 206.0Q230 205 228.5 204.0Q227 203 227 202L225 195L226 193Q228 194 229 195Q229 195 229 197Q229 200 231.0 200.0Q233 200 233.5 196.5Q234 193 233 193L225 186Q223 181 220 179L212 172Q218 168 218 165Q218 164 217.0 162.0Q216 160 216 159Q216 158 219 158Q220 157 221 157L223 153H217L212 158V162L205 164Q206 161 205 160Q204 160 202.5 158.5Q201 157 200.0 155.5Q199 154 199 153Q199 149 203 149L206 146H198Q195 152 194 154Q192 158 195 159Q198 160 198 166L191 164Q185 165 185 171Q184 178 188 179Q190 180 190.5 178.5Q191 177 190 176Q189 175 189.0 172.5Q189 170 190 169Q194 166 195 170Q197 177 201 178Q204 179 207.0 184.0Q210 189 210 193Q209 212 213 216Z" fill="#c09b5a" />
<path d="M302 203Q302 203 302 199Q298 197 290 199Q289 199 289.5 201.0Q290 203 290 203Q299 202 302 203ZM210 203Q213 202 221 203Q222 203 222.5 201.0Q223 199 222 199Q214 197 210 199Z" fill="#8c8d8f" />
<path d="M287 218Q286 216 284 216Q283 218 285 218ZM292 215Q292 215 291 214ZM300 211 296 204Q293 204 293.5 207.0Q294 210 296 212V205ZM225 218H227L228 216ZM220 215Q220 215 221 214ZM212 211 216 205V212Q218 210 218.0 207.0Q218 204 216 204Z" fill="#000000" />
<path d="M267 233Q272 235 276.0 232.5Q280 230 280 226Q280 223 275 217L270 205H242Q238 217 237 217Q232 223 232 226Q232 230 236.5 232.5Q241 235 245 233Q246 233 247.0 233.5Q248 234 250.0 235.0Q252 236 254 236H255V241H257V236H258Q260 236 262.0 235.5Q264 235 266 234Z" fill="#ebd11b" />
<path d="M253 228V225L251 222Q249 222 248 223L246 226Q248 227 250 228ZM245 224Q245 222 243 221H239Q239 222 241 223ZM258 228Q261 228 262 228L266 226Q265 224 264 223L261 222L258 225ZM267 224Q267 224 271 223Q273 222 274 221Q274 221 270 221Q268 222 267 224ZM256.0 203.0Q242 203 242.0 207.5Q242 212 256.0 212.0Q270 212 270.0 207.5Q270 203 256.0 203.0Z" fill="#be1827" />
<path d="M249 231H253Q253 228 251 228L247 229Q247 231 249 231ZM236 226Q236 228 238.5 229.0Q241 230 243 228Q243 224 240 223Q237 222 236 226ZM243 231Q244 230 245 229Q245 228 243.5 228.5Q242 229 243 231Z" fill="#0868a9" />
<path d="M243 227Q244 226 245 225Q244 224 243.5 225.0Q243 226 243 227ZM263 231Q265 231 265 229Q265 229 262 228Q259 228 259 231Q259 231 263 231ZM276 226Q275 222 272 223L269 228Q271 230 274.0 229.0Q277 228 276 226ZM269 231Q270 229 268.5 228.5Q267 228 267 229Q268 230 269 231Z" fill="#0868a9" />
<path d="M269 227Q270 226 269.0 225.0Q268 224 267 225Q268 226 269 227Z" fill="#0868a9" />
<path d="M256 208H282V165Q282 157 275.5 153.0Q269 149 263 148H256Q229 148 229 165V208Z" fill="#020202" />
<path d="M256 205H280V165Q280 158 274.0 154.5Q268 151 262 151H256Q232 151 232 165V205Z" fill="#4c86c7" />
<path d="M290 238Q291 235 295 235Q286 233 279 236Q271 239 268 242Q268 242 268.0 242.5Q268 243 269 244Q270 245 268 245L256 246Q246 246 243 245Q242 245 243 244Q243 243 243.5 242.5Q244 242 243 242Q241 239 232 236L217 235L222 238L216 244Q221 244 225 244L231 248Q229 251 231.5 253.0Q234 255 240 256L256 257Q265 256 271.0 255.5Q277 255 280.0 253.0Q283 251 281 248Q283 245 287 244H296Q293 240 290 238Z" fill="#a5a7a9" />
<path d="M264 156H248L256 164ZM252 182H236L244 190ZM252 195H236L244 203ZM252 169H236L244 177ZM275 182H259L267 190ZM275 195H259L267 203ZM275 169H259L267 177Z" fill="#ffffff" />
</g></svg>