<svg xmlns="http://www.w3.org/2000/svg" viewBox="0 0 2048 2048">
<g transform="matrix(1 0 0 -1 0 2048)">
<path d="M298 180Q295 151 297.0 109.0Q299 67 301 59Q303 53 339 -1Q344 -7 326.5 -20.0Q309 -33 304 -28Q294 -18 275.0 9.5Q256 37 254 43Q253 47 234 176Z" fill="#2a6797" />
<path d="M172 398 135 418Q132 420 132.5 424.0Q133 428 136.0 431.5Q139 435 142 433L180 412Z" fill="#66757f" />
<path d="M235 -32Q239 -37 240.0 -45.0Q241 -53 239 -59L238 -64H138Q134 -52 148 -46Q166 -36 195.0 -30.0Q224 -24 235 -32Z" fill="#ccd6dd" />
<path d="M290 321Q295 318 301.5 308.0Q308 298 312.0 289.0Q316 280 316 281Q251 299 218.0 323.5Q185 348 158 386Q157 387 163.5 392.0Q170 397 177.5 400.5Q185 404 186 402Q220 357 290 321Z" fill="#cc9b7a" />
<path d="M322 15Q331 3 338 -9Q335 -14 328 -19Q318 -5 309 10Q305 7 301 5Q310 -9 320 -24Q311 -30 306 -29Q298 -17 290 -4Q288 -6 287 -7Q283 -2 279 5Q279 5 280.0 6.0Q281 7 282 8Q275 18 270 26Q268 25 266 23Q262 30 259 35Q261 38 262 38Q257 47 254 59Q252 56 252 56Q251 63 249 74Q249 74 250 75Q251 75 251 75Q249 85 248 96Q246 94 246 94L245 100Q235 78 227 41Q226 35 235 -29Q236 -35 223.0 -37.5Q210 -40 196.0 -38.5Q182 -37 181 -34Q178 -20 174.0 10.0Q170 40 170 49L185 189L298 191Q304 163 287 141Q287 135 287 132Q291 132 296 133Q297 125 297 118Q292 118 288 117Q288 106 290 94Q294 95 298 95Q298 87 299 81Q296 81 292 80Q294 66 296 58Q297 58 301 59Q301 59 301 59Q303 55 308 46Q305 46 303 45Q307 39 314 27Q318 29 319 29Q323 24 328 16Q323 15 322 15ZM264 84Q269 87 276 90Q274 101 274 113Q268 111 261 107Q262 96 264 84ZM267 69Q270 54 273 47Q278 50 283 53Q281 61 278 75Q272 73 267 69ZM293 17Q297 19 301 22Q294 33 289 40Q285 38 281 35Q286 27 293 17Z" fill="#4289c1" />
<path d="M273 127Q261 126 252 126Q216 126 179 138L181 152Q236 133 289 143Q283 135 273 127ZM236 77H235Q205 77 173 85Q174 91 175 100Q209 90 241 91Q238 83 236 77ZM227 34Q226 34 224.5 34.0Q223 34 222 34Q197 34 170 40Q170 46 170 49Q170 50 170 55Q200 47 229 48Q228 45 227 41Q227 40 227 34ZM174 10Q203 6 230 9Q231 3 232 -5Q219 -6 207 -6Q192 -6 176 -4Q175 4 174 10Z" fill="#88c9f9" />
<path d="M202 182 216 179Q214 169 203.5 111.5Q193 54 193 50Q192 48 193 47Q193 34 203 -39Q194 -39 188 -37Q179 33 178 46Q178 48 178.5 52.5Q179 57 190.0 116.5Q201 176 202 182Z" fill="#55acee" />
<path d="M237 186 252 184Q249 162 247 150Q246 148 245 140Q243 133 241 126Q236 112 229 91Q217 53 216 48Q216 47 216 47Q217 34 226 -37Q220 -39 212 -39Q203 32 202 46Q202 48 202 49Q203 57 215 92Q222 114 226 127Q228 134 230 141Q232 148 233 153Q236 169 237 186ZM276 177H290Q290 163 284 143Q283 138 282 135Q278 130 273 127Q269 124 263.0 119.0Q257 114 255 112Q256 115 262.0 127.5Q268 140 269 141Q276 160 276 177Z" fill="#55acee" />
<path d="M361 374Q361 353 346.0 338.0Q331 323 310.0 323.0Q289 323 274.0 338.0Q259 353 259.0 374.0Q259 395 274.0 410.0Q289 425 310.0 425.0Q331 425 346.0 410.0Q361 395 361 374Z" fill="#d5ab88" />
<path d="M283 374Q266 387 257.5 409.0Q249 431 256 438Q269 450 289.0 443.5Q309 437 317 424Q321 417 314.0 403.5Q307 390 297.0 380.5Q287 371 283 374Z" fill="#4289c1" />
<path d="M185 189Q186 200 187.5 216.0Q189 232 200.5 265.5Q212 299 232 314Q257 332 289.5 323.0Q322 314 334 291Q340 280 331.5 266.0Q323 252 311.0 228.0Q299 204 299 174Q299 166 270.5 164.5Q242 163 213.5 169.5Q185 176 185 189Z" fill="#77b255" />
<path d="M287 365Q294 381 320 370Q338 363 333 355Q319 332 314 309Q312 298 297 304Q292 306 284.5 315.0Q277 324 273 326Q277 343 287 365ZM194 332Q212 310 255 310Q255 310 249.5 302.0Q244 294 238.0 286.0Q232 278 231 279Q220 280 212.0 282.0Q204 284 189.0 291.5Q174 299 165.5 310.0Q157 321 151.5 342.5Q146 364 150 393Q148 397 148 402Q148 411 155.5 418.0Q163 425 173.0 425.0Q183 425 190.0 418.0Q197 411 197 402Q197 386 183 380Q179 349 194 332Z" fill="#d5ab88" />
<path d="M269 404Q269 420 290.0 430.0Q311 440 329 435Q345 430 357.0 414.5Q369 399 369 386Q369 341 340 341Q309 341 289.0 364.0Q269 387 269 404Z" fill="#50a5e6" />
<path d="M326 1Q335 2 339.5 -3.5Q344 -9 343.5 -16.0Q343 -23 343 -27Q341 -64 324 -64H277Q276 -62 276.5 -58.0Q277 -54 282.5 -47.0Q288 -40 299 -37Q301 -37 301.0 -28.5Q301 -20 306.5 -11.0Q312 -2 326 1Z" fill="#ccd6dd" />
<path d="M205 329Q210 326 217.5 322.5Q225 319 241.5 314.0Q258 309 268 312Q266 304 258.0 292.5Q250 281 244 273L237 266Q208 268 183 290Q200 311 205 329Z" fill="#77b255" />
<path d="M421 279Q428 275 430.0 259.0Q432 243 429.5 228.0Q427 213 421 213Q411 213 400.5 220.5Q390 228 392 236Q397 258 404 269L192 387Q185 390 191 401Q193 405 196 403L418 280Q418 280 420 279Q420 279 421 279Z" fill="#66757f" />
</g></svg>