<svg xmlns="http://www.w3.org/2000/svg" viewBox="0 0 512 512">
<g transform="matrix(1 0 0 -1 0 512)">
<path d="M225 -48H205Q203 -43 199.5 -34.0Q196 -25 191.5 -3.5Q187 18 189 34L230 26Q233 13 232.0 -3.5Q231 -20 228 -34ZM286 -48Q285 -42 283.0 -33.5Q281 -25 278.5 -3.0Q276 19 281 26L322 34Q324 18 320.0 -2.0Q316 -22 311 -35L306 -48ZM123 389Q123 388 126.5 382.0Q130 376 134.5 367.0Q139 358 142 352Q144 345 147.0 336.5Q150 328 152.0 323.0Q154 318 155.5 316.5Q157 315 166.5 306.5Q176 298 186.0 288.0Q196 278 202 269Q211 253 210.0 243.0Q209 233 200 228Q181 215 166 239Q149 265 127 304Q126 306 121.5 313.0Q117 320 113.0 327.0Q109 334 106 341Q104 347 102.0 355.0Q100 363 99.5 368.0Q99 373 99 374Q98 376 92.0 383.0Q86 390 86 394Q122 395 123 389ZM389 389Q389 391 393.0 392.0Q397 393 402.5 393.5Q408 394 413.5 394.0Q419 394 422.5 394.0Q426 394 426 394Q426 390 420.0 383.0Q414 376 413 374Q413 373 412.5 368.0Q412 363 410.0 355.0Q408 347 406 341Q403 334 399.0 327.0Q395 320 390.5 313.0Q386 306 385 304Q363 265 346 239Q331 215 312 228Q303 233 302.0 243.0Q301 253 310 269Q316 278 326.0 288.0Q336 298 345.5 306.5Q355 315 356.5 316.5Q358 318 360.0 323.0Q362 328 365.0 336.5Q368 345 370 352Q373 358 377.5 367.0Q382 376 385.5 382.0Q389 388 389 389Z" fill="#d4ab88" />
<path d="M194 -52Q198 -41 199 -38Q199 -33 202 -32Q206 -31 215.0 -31.0Q224 -31 226.5 -32.0Q229 -33 230 -38Q230 -42 233 -47Q239 -58 237 -62Q236 -64 214 -64Q194 -64 192 -62Q190 -60 194 -52ZM317 -52Q321 -60 319 -62Q317 -64 297 -64Q275 -64 274 -62Q272 -58 278 -47Q281 -42 282 -38Q283 -33 285.0 -32.0Q287 -31 296.0 -31.0Q305 -31 309 -32Q312 -33 312 -38Q313 -41 317 -52ZM354 252Q351 242 344 231Q341 217 326 189Q323 184 320.0 168.5Q317 153 315 141L313 128L256 107L199 128Q192 178 186 189Q171 217 168 231Q161 242 158 252Q162 255 171.5 261.5Q181 268 189 272L197 276Q208 270 218 253L234 249H278Q285 251 294 253Q304 270 315 276Q346 260 354 252Z" fill="#4289c1" />
<path d="M505 391H7Q0 391 0.0 398.0Q0 405 7 405H505Q512 405 512.0 398.0Q512 391 505 391Z" fill="#99aab5" />
<path d="M498 434V363Q498 357 493.5 352.5Q489 348 483.5 348.0Q478 348 473.5 352.5Q469 357 469 363Q469 357 465.0 352.5Q461 348 455.0 348.0Q449 348 445.0 352.5Q441 357 441 363V434Q441 440 445.0 444.0Q449 448 455.0 448.0Q461 448 465.0 444.0Q469 440 469 434Q469 440 473.5 444.0Q478 448 483.5 448.0Q489 448 493.5 444.0Q498 440 498 434ZM71 434V363Q71 357 67.0 352.5Q63 348 57.0 348.0Q51 348 47.0 352.5Q43 357 43 363Q43 357 38.5 352.5Q34 348 28.5 348.0Q23 348 18.5 352.5Q14 357 14 363V434Q14 440 18.5 444.0Q23 448 28.5 448.0Q34 448 38.5 444.0Q43 440 43 434Q43 440 47.0 444.0Q51 448 57.0 448.0Q63 448 67.0 444.0Q71 440 71 434Z" fill="#292f33" />
<path d="M234 286H278V242Q278 233 271.5 226.5Q265 220 256.0 220.0Q247 220 240.5 226.5Q234 233 234 242Z" fill="#d4ab88" />
<path d="M261 400Q286 400 303.0 383.0Q320 366 320.0 341.5Q320 317 303.0 300.0Q286 283 261 283Q231 283 214 307Q204 311 198.5 319.5Q193 328 192.5 334.5Q192 341 192 352Q192 367 202.5 378.0Q213 389 227 389Q243 400 261 400Z" fill="#963b22" />
<path d="M309 368V304Q309 282 293.5 266.5Q278 251 256.0 251.0Q234 251 218.5 266.5Q203 282 203 304V368ZM385 386Q378 390 380 396Q382 401 391 401Q412 400 425 391Q422 387 419 383Q418 380 405.5 381.0Q393 382 385 386Z" fill="#d4ab88" />
<path d="M256 391 312 369V325Q287 325 270.5 329.0Q254 333 246.5 340.0Q239 347 236.5 352.5Q234 358 233 364Q229 325 200 325V369Z" fill="#963b22" />
<path d="M277 272Q277 262 256 262Q247 262 241.5 264.5Q236 267 235 270V272ZM245 294H267Q267 283 256 283Q251 283 248.5 285.5Q246 288 246 291Z" fill="#c1694f" />
<path d="M229.5 304.0Q224 304 224.0 309.5Q224 315 229.5 315.0Q235 315 235.0 309.5Q235 304 229.5 304.0ZM282.5 315.0Q288 315 288.0 309.5Q288 304 282.5 304.0Q277 304 277.0 309.5Q277 315 282.5 315.0Z" fill="#662113" />
<path d="M393 403 395 408Q395 412 398.5 411.0Q402 410 402 406L400 401Q400 398 396.0 398.5Q392 399 393 403ZM392 405 390 399Q389 395 385 397Q384 397 381 396H380L384 408Q385 412 389.5 411.0Q394 410 392 405Z" fill="#d4ab88" />
<path d="M401 404 402 409Q403 412 406.5 411.5Q410 411 409 407L408 402Q407 399 403.5 400.0Q400 401 401 404Z" fill="#d4ab88" />
<path d="M408 404 409 408Q410 411 413.5 410.0Q417 409 416 406L415 402Q415 398 411.0 399.0Q407 400 408 404Z" fill="#d4ab88" />
<path d="M416 403V406Q417 409 420.5 408.5Q424 408 423 404V402Q422 398 418.5 399.0Q415 400 416 403ZM127 386Q119 382 106.5 381.0Q94 380 93 383L87 391Q93 395 101.5 397.5Q110 400 116 401H121Q130 401 132 396Q134 390 127 386Z" fill="#d4ab88" />
<path d="M112 401 110 406Q110 410 113.5 411.0Q117 412 117 408L119 403Q120 399 116.0 398.5Q112 398 112 401ZM128 408 132 396H131Q128 397 127 397Q123 395 122 399L120 405Q118 410 122.5 411.0Q127 412 128 408Z" fill="#d4ab88" />
<path d="M104 402 103 407Q102 411 105.5 411.5Q109 412 110 409L111 404Q112 401 108.5 400.0Q105 399 104 402Z" fill="#d4ab88" />
<path d="M97 402 96 406Q95 409 98.5 410.0Q102 411 103 408L104 404Q105 400 101.0 399.0Q97 398 97 402Z" fill="#d4ab88" />
<path d="M89 402V404Q88 407 91.5 408.0Q95 409 96 406V403Q97 400 93.5 399.0Q90 398 89 402Z" fill="#d4ab88" />
<path d="M313 100Q325 72 327 26H282Q276 32 271.5 45.0Q267 58 266 67L264 77H248Q243 40 230 26H185Q186 46 189.5 64.5Q193 83 196 91L199 100L256 121Z" fill="#3a6693" />
<path d="M199 128H313V100H199Z" fill="#c1694f" />
<path d="M270 129H279V98H270ZM263.0 112.0Q261 112 261.0 114.5Q261 117 263.0 117.0Q265 117 265.0 114.5Q265 112 263.0 112.0ZM254.0 117.0Q256 117 256.0 114.5Q256 112 254.0 112.0Q252 112 252.0 114.5Q252 117 254.0 117.0ZM244.5 112.0Q242 112 242.0 114.5Q242 117 244.5 117.0Q247 117 247.0 114.5Q247 112 244.5 112.0ZM235.5 112.0Q233 112 233.0 114.5Q233 117 235.5 117.0Q238 117 238.0 114.5Q238 112 235.5 112.0ZM226.5 112.0Q224 112 224.0 114.5Q224 117 226.5 117.0Q229 117 229.0 114.5Q229 112 226.5 112.0ZM217.5 112.0Q215 112 215.0 114.5Q215 117 217.5 117.0Q220 117 220.0 114.5Q220 112 217.5 112.0ZM208.0 112.0Q206 112 206.0 114.5Q206 117 208.0 117.0Q210 117 210.0 114.5Q210 112 208.0 112.0Z" fill="#14171a" />
<path d="M244.5 112.0Q242 112 242.0 114.5Q242 117 244.5 117.0Q247 117 247.0 114.5Q247 112 244.5 112.0Z" fill="#14171a" />
<path d="M235.5 112.0Q233 112 233.0 114.0Q233 116 235.5 116.0Q238 116 238.0 114.0Q238 112 235.5 112.0Z" fill="#657786" />
<path d="M232 116H235V112H232Z" fill="#657786" />
<path d="M238 95H227V133H238V128H232V100H238Z" fill="#657786" />
</g></svg>