<svg xmlns="http://www.w3.org/2000/svg" viewBox="0 0 512 512">
<g transform="matrix(1 0 0 -1 0 512)">
<path d="M60.5 189.5Q71 173 71.0 149.5Q71 126 60.5 109.0Q50 92 35.5 92.0Q21 92 10.5 109.0Q0 126 0.0 149.5Q0 173 10.5 189.5Q21 206 35.5 206.0Q50 206 60.5 189.5Z" fill="#f3d2a2" />
<path d="M93.0 28.5Q43 93 43.0 184.0Q43 275 93.0 339.5Q143 404 213.5 404.0Q284 404 334.0 339.5Q384 275 384.0 184.0Q384 93 334.0 28.5Q284 -36 213.5 -36.0Q143 -36 93.0 28.5Z" fill="#f3d2a2" />
<path d="M284 448Q334 448 372.0 432.0Q410 416 431.5 389.0Q453 362 466.5 331.0Q480 300 484.0 264.5Q488 229 488.0 201.0Q488 173 484 149L469 50H441L356 263L355 264Q322 263 213 263Q206 263 191 263Q175 263 159.5 263.0Q144 263 129.5 263.5Q115 264 102.0 265.5Q89 267 77.5 269.5Q66 272 57.0 276.5Q48 281 41.5 287.0Q35 293 31.5 301.0Q28 309 28 320Q28 369 97.5 408.5Q167 448 270 448Q271 448 272.5 448.0Q274 448 274 448Q282 448 284 448Z" fill="#dd2e44" />
<path d="M416.5 189.5Q427 173 427.0 149.5Q427 126 416.5 109.0Q406 92 391.0 92.0Q376 92 366.0 109.0Q356 126 356.0 149.5Q356 173 366.0 189.5Q376 206 391.0 206.0Q406 206 416.5 189.5Z" fill="#f3d2a2" />
<path d="M128 164V192Q128 198 132.0 202.0Q136 206 142.0 206.0Q148 206 152.0 202.0Q156 198 156 192V164Q156 158 152.0 153.5Q148 149 142.0 149.0Q136 149 132.0 153.5Q128 158 128 164ZM270 164V192Q270 198 274.5 202.0Q279 206 284.5 206.0Q290 206 294.5 202.0Q299 198 299 192V164Q299 158 294.5 153.5Q290 149 284.5 149.0Q279 149 274.5 153.5Q270 158 270 164Z" fill="#662113" />
<path d="M228 78H199Q193 78 189.0 82.5Q185 87 185.0 92.5Q185 98 189.0 102.5Q193 107 199 107H228Q233 107 237.5 102.5Q242 98 242.0 92.5Q242 87 237.5 82.5Q233 78 228 78Z" fill="#b7755e" />
<path d="M384 92Q384 80 380.5 73.0Q377 66 373 65L370 64Q376 50 372.5 40.5Q369 31 362 26L356 21Q356 2 345.0 -8.5Q334 -19 324 -20L313 -21Q313 -40 298.5 -47.5Q284 -55 270 -52L256 -50Q250 -56 239.0 -59.5Q228 -63 221 -64H213Q185 -64 171 -50Q168 -50 164.5 -51.0Q161 -52 151.0 -52.0Q141 -52 133.5 -50.0Q126 -48 120.0 -40.5Q114 -33 114 -21Q112 -21 109.0 -21.0Q106 -21 99.0 -18.5Q92 -16 86.0 -12.0Q80 -8 75.5 0.5Q71 9 71 21Q70 22 68.5 23.0Q67 24 62.0 28.0Q57 32 55.5 36.5Q54 41 53.0 48.5Q52 56 57 64Q55 64 53.0 65.0Q51 66 47.0 73.0Q43 80 43 92Q43 102 48.0 105.5Q53 109 60.5 107.0Q68 105 74.5 101.0Q81 97 85 92Q128 50 156 64Q174 73 188.5 76.5Q203 80 208 79L213 78Q230 84 270 64Q299 50 341 92Q346 97 352.5 101.0Q359 105 366.5 107.0Q374 109 379.0 105.5Q384 102 384 92Z" fill="#e6e7e8" />
<path d="M164.0 45.5Q179 50 213.5 50.0Q248 50 262.5 45.5Q277 41 272.5 35.5Q268 30 251.0 25.5Q234 21 213.5 21.0Q193 21 176.0 25.5Q159 30 154.0 35.5Q149 41 164.0 45.5Z" fill="#f3d2a2" />
<path d="M22.5 208.5Q14 225 14.0 248.5Q14 272 22.5 289.0Q31 306 42.5 306.0Q54 306 62.5 289.0Q71 272 71.0 248.5Q71 225 62.5 208.5Q54 192 42.5 192.0Q31 192 22.5 208.5ZM349.5 208.5Q341 225 341.0 248.5Q341 272 349.5 289.0Q358 306 370.0 306.0Q382 306 390.0 289.0Q398 272 398.0 248.5Q398 225 390.0 208.5Q382 192 370.0 192.0Q358 192 349.5 208.5Z" fill="#d1d3d4" />
<path d="M415.0 -4.5Q398 12 398.0 35.5Q398 59 415.0 75.5Q432 92 455.5 92.0Q479 92 495.5 75.5Q512 59 512.0 35.5Q512 12 495.5 -4.5Q479 -21 455.5 -21.0Q432 -21 415.0 -4.5ZM412 277Q412 266 404.0 257.5Q396 249 384 249H28Q17 249 8.5 257.5Q0 266 0 277V292Q0 303 8.5 311.5Q17 320 28 320H384Q396 320 404.0 311.5Q412 303 412 292Z" fill="#f1f2f2" />
</g></svg>