<svg xmlns="http://www.w3.org/2000/svg" viewBox="0 0 2048 2048">
<g transform="matrix(1 0 0 -1 0 2048)">
<path d="M384 -21Q384 -64 327 -64H185Q128 -64 128 -21Q128 -10 138.5 19.0Q149 48 160.0 87.5Q171 127 171 164Q171 194 197.5 211.0Q224 228 256.0 228.0Q288 228 314.5 211.0Q341 194 341 164Q341 127 352.0 87.5Q363 48 373.5 19.0Q384 -10 384 -21Z" fill="#f2c994" />
<path d="M493 289Q512 242 512 192Q512 168 495.5 151.5Q479 135 455 135H57Q33 135 16.5 151.5Q0 168 0 192Q0 245 21 293Q45 350 93 389Q164 448 256 448Q359 448 433 377Q473 339 493 289Z" fill="#c1694f" />
<path d="M187.0 329.5Q184 309 167.5 292.5Q151 276 130.5 273.0Q110 270 97.5 282.5Q85 295 88.0 315.5Q91 336 107.5 352.5Q124 369 144.5 372.0Q165 375 177.5 362.5Q190 350 187.0 329.5Z" fill="#cc927a" />
</g></svg>