<svg xmlns="http://www.w3.org/2000/svg" viewBox="0 0 512 512">
<g transform="matrix(1 0 0 -1 0 512)">
<path d="M332 -1Q335 -7 323.0 -16.0Q311 -25 307 -20Q261 39 259 43Q253 65 239 176Q237 194 250.5 195.0Q264 196 279 188L293 180Q291 155 294.0 111.5Q297 68 300 59Q301 53 332 -1Z" fill="#f3d2a2" />
<path d="M298 180Q295 152 298 94Q298 88 285.5 80.5Q273 73 262.0 71.0Q251 69 249 74Q248 83 234 176Z" fill="#8e9195" />
<path d="M248 83 246 97Q274 103 297 116Q297 108 298 100Q275 88 248 83Z" fill="#b7c0c1" />
<path d="M271 74Q263 71 258 70Q248 154 246 175L261 176Q262 156 271 74ZM279 77Q276 120 272 178L287 179Q289 141 293 86Q288 81 279 77Z" fill="#a0a7ad" />
<path d="M172 398 135 418Q132 420 132.5 424.0Q133 428 136.0 431.5Q139 435 142 433L180 412Z" fill="#66757f" />
<path d="M281 191Q284 172 280.0 156.5Q276 141 268.5 133.0Q261 125 253.0 116.5Q245 108 243 104Q234 83 228 41Q227 35 234 -29Q235 -38 217.0 -39.0Q199 -40 198 -34Q197 -28 192.5 -8.0Q188 12 185.0 28.0Q182 44 182 49L207 184Q207 184 237 201Q276 218 281 191Z" fill="#f3d2a2" />
<path d="M235 -32Q239 -37 240.0 -45.0Q241 -53 239 -59L238 -64H138Q134 -52 148 -46Q166 -36 195.0 -30.0Q224 -24 235 -32Z" fill="#ccd6dd" />
<path d="M290 321Q295 318 301.5 308.0Q308 298 312.0 289.0Q316 280 316 281Q251 299 218.0 323.5Q185 348 158 386Q157 387 163.5 392.0Q170 397 177.5 400.5Q185 404 186 402Q220 357 290 321Z" fill="#e2c196" />
<path d="M287 141Q284 136 265.5 121.5Q247 107 245 100Q239 87 233 68Q231 58 201.0 62.0Q171 66 172 76Q174 94 179.5 121.0Q185 148 190 165L194 183L298 191Q304 163 287 141Z" fill="#a0a7ad" />
<path d="M273 127Q261 126 252 126Q216 126 183 137Q183 139 184.5 144.5Q186 150 187 152Q239 134 289 143Q283 135 273 127ZM236 77H235Q205 77 173 85Q174 92 176 100Q211 90 241 91Q238 83 236 77ZM326 1Q335 2 339.5 -3.5Q344 -9 343.5 -16.0Q343 -23 343 -27Q341 -64 324 -64H277Q276 -62 276.5 -58.0Q277 -54 282.5 -47.0Q288 -40 299 -37Q301 -37 301.0 -28.5Q301 -20 306.5 -11.0Q312 -2 326 1Z" fill="#ccd6dd" />
<path d="M202 182 216 179Q209 144 195 63Q187 65 181 67Q196 154 202 182ZM252 184Q249 162 247 150Q246 147 245 140Q243 133 241 126Q236 112 229 91Q223 73 220 61Q213 61 205 62Q210 78 215 92Q222 114 226 127Q228 134 230 141Q232 148 233 153Q236 168 237 186ZM276 177H290Q290 163 284 143Q283 138 282 135Q278 130 273 127Q269 124 263.0 119.0Q257 114 255 112Q256 115 262.0 127.5Q268 140 269 141Q276 160 276 177Z" fill="#b7c0c1" />
<path d="M361 374Q361 353 346.0 338.0Q331 323 310.0 323.0Q289 323 274.0 338.0Q259 353 259.0 374.0Q259 395 274.0 410.0Q289 425 310.0 425.0Q331 425 346.0 410.0Q361 395 361 374Z" fill="#f3d2a2" />
<path d="M194 183Q194 194 194.0 211.0Q194 228 203.0 263.5Q212 299 232 314Q257 332 289.5 323.0Q322 314 334 291Q339 282 334.0 271.0Q329 260 320.0 249.5Q311 239 304.0 218.5Q297 198 299 174Q300 166 273.5 163.0Q247 160 220.5 165.0Q194 170 194 183Z" fill="#fa743e" />
<path d="M287 365Q294 381 320 370Q338 363 333 355Q319 332 314 309Q312 298 297 304Q292 306 284.5 315.0Q277 324 273 326Q277 343 287 365Z" fill="#f3d2a2" />
<path d="M361 368Q361 348 350.5 337.0Q340 326 328 323Q319 321 307.0 328.0Q295 335 287 346Q268 374 286 391Q292 397 292 398Q290 400 277 389Q274 385 272.0 380.0Q270 375 270 372L269 368Q268 370 266.0 373.5Q264 377 261.0 387.0Q258 397 264 405Q269 414 284.5 414.0Q300 414 312.0 410.0Q324 406 329 403Q332 401 340.0 392.5Q348 384 354 376Z" fill="#ffe51e" />
<path d="M283 374Q266 387 257.5 409.0Q249 431 256 438Q269 450 289.0 443.5Q309 437 317 424Q321 417 314.0 403.5Q307 390 297.0 380.5Q287 371 283 374Z" fill="#8e9195" />
<path d="M269 404Q269 420 290.0 430.0Q311 440 329 435Q345 430 357.0 414.5Q369 399 369 386Q369 341 340 341Q309 341 289.0 364.0Q269 387 269 404Z" fill="#a0a7ad" />
<path d="M194 332Q212 310 255 310Q255 310 249.5 302.0Q244 294 238.0 286.0Q232 278 231 279Q220 280 212.0 282.0Q204 284 189.0 291.5Q174 299 165.5 310.0Q157 321 151.5 342.5Q146 364 150 393Q148 397 148 402Q148 411 155.5 418.0Q163 425 173.0 425.0Q183 425 190.0 418.0Q197 411 197 402Q197 386 183 380Q179 349 194 332Z" fill="#f3d2a2" />
<path d="M205 329Q210 326 217.5 322.5Q225 319 241.5 314.0Q258 309 268 312Q266 304 258.0 292.5Q250 281 244 273L237 266Q208 268 183 290Q200 311 205 329Z" fill="#fa743e" />
<path d="M421 279Q428 275 430.0 259.0Q432 243 429.5 228.0Q427 213 421 213Q411 213 400.5 220.5Q390 228 392 236Q397 258 404 269L192 387Q185 390 191 401Q193 405 196 403L418 280Q418 280 420 279Q420 279 421 279Z" fill="#66757f" />
</g></svg>