<svg xmlns="http://www.w3.org/2000/svg" viewBox="0 0 512 512">
<g transform="matrix(1 0 0 -1 0 512)">
<path d="M512 64Q512 40 495.5 23.5Q479 7 455 7H57Q33 7 16.5 23.5Q0 40 0 64V320Q0 344 16.5 360.5Q33 377 57 377H455Q479 377 495.5 360.5Q512 344 512 320Z" fill="#eeeeee" />
<path d="M0 64V192H512V64Q512 40 495.5 23.5Q479 7 455 7H57Q33 7 16.5 23.5Q0 40 0 64Z" fill="#3e9a00" />
<path d="M456 236 458 230Q442 234 438 241L432 223Q433 222 434.0 220.0Q435 218 436.0 212.0Q437 206 435 201Q431 187 416.5 175.5Q402 164 373 163Q396 150 406 144Q421 134 420 129Q415 127 407 133L400 138Q401 137 402.0 135.0Q403 133 404.5 127.5Q406 122 405 116Q402 88 400 87Q398 86 399.0 81.0Q400 76 402 76Q412 73 417 69Q419 67 421 60Q421 62 417.5 64.0Q414 66 411 65Q406 63 401 66Q393 71 388 69Q378 65 377 65Q375 65 371.5 67.0Q368 69 366 68Q359 67 354 62Q352 61 348.5 61.0Q345 61 343 60L336 57Q335 65 345 67Q345 71 350 72L355 73Q354 75 350.0 75.0Q346 75 344 74Q342 73 340.0 73.0Q338 73 337.0 73.5Q336 74 336 74Q330 77 325 70Q323 77 334 80Q334 81 334.5 81.0Q335 81 336 81Q336 84 339 84H347Q344 86 341 86L340 89L335 91L330 89Q331 94 336 96H341L344 97Q346 97 350.5 92.5Q355 88 358 87Q369 82 374 85L382 91L380 98L385 102Q383 108 386 112Q385 113 384.5 114.5Q384 116 383.5 119.5Q383 123 383 125Q378 129 378 132Q370 130 368 134Q357 130 352 136Q338 131 333 138Q320 138 317 146Q311 146 308 150Q305 146 301 144Q295 140 296 133Q297 125 304 123Q307 123 311.5 121.0Q316 119 318 119Q324 119 328.5 114.5Q333 110 332 103Q319 106 315 110Q311 98 296 88Q289 83 282.5 80.0Q276 77 273 76L270 75L275 74Q282 75 284 71Q291 71 293 68L296 60Q291 65 288 65Q286 65 284.0 63.5Q282 62 279.0 63.0Q276 64 270.5 67.0Q265 70 264 70Q262 71 259.0 70.0Q256 69 255 69Q246 70 244 70Q232 69 228 66Q222 62 221 64H216L211 61Q206 68 216 70Q212 73 210 74L208 77H204L200 73Q199 78 204 81Q206 82 208.0 82.5Q210 83 211 83L212 82L218 84Q218 84 222.0 82.0Q226 80 227 80H235Q234 83 231 85Q230 86 228.0 86.5Q226 87 224.0 87.5Q222 88 221 88Q217 89 218 92L213 94L208 92Q208 98 213 99L221 98L225 100Q227 99 231.0 94.5Q235 90 236 90Q243 86 251 87Q259 89 263 88Q263 89 263.5 90.0Q264 91 266.0 93.0Q268 95 271 94Q270 100 276 102L271 107Q265 106 259 108Q257 108 255.0 110.0Q253 112 253 113L252 114Q244 118 241 123Q240 126 239.5 128.5Q239 131 240 132V133Q240 133 239.0 132.5Q238 132 234.5 131.5Q231 131 230 132Q223 126 217 124H206Q201 119 197 118Q195 112 194 109L190 100Q183 112 183 115Q183 115 182 122Q181 121 180 120Q170 107 164 102Q152 94 149 78L158 75Q166 77 166 73Q167 73 168.5 72.5Q170 72 173.0 69.5Q176 67 175 63L168 66Q167 66 164.5 64.0Q162 62 159 63Q152 64 146 69Q142 73 137 69Q133 65 128 67Q122 69 117 65Q104 55 97 63Q93 63 90 62L86 57Q86 68 94 68L95 71L92 73L83 74L78 72Q79 78 84 79H93L95 82V86Q94 88 91 89L86 86Q86 94 92 94Q94 94 95.5 93.5Q97 93 97.5 91.5Q98 90 99 90H104Q105 90 108.0 88.5Q111 87 115.0 85.5Q119 84 124.0 84.5Q129 85 133.0 88.5Q137 92 139 95L141 98Q138 107 148 110L147 118L154 122L153 129Q146 130 141 129L128 128Q130 116 119 108Q117 125 111 134Q102 148 95 153Q90 156 83.0 167.5Q76 179 76 185Q75 182 73 180Q70 174 70 173Q70 166 65 166Q62 163 58 162L50 163Q54 164 57 166L60 171L59 175Q61 177 62.5 180.0Q64 183 65 183Q68 186 69 188L71 211Q66 214 64 216L62 224L61 231Q61 237 55 239Q58 241 62 239L69 234Q71 234 76 227Q76 235 79 238Q81 239 79.0 244.0Q77 249 72 250Q82 253 86 245Q87 242 88.5 239.0Q90 236 90.0 236.0Q90 236 90 232L89 227L92 229Q94 231 95 234V241Q96 240 97.0 239.5Q98 239 99.0 237.5Q100 236 100 234V228Q100 224 99 221Q98 219 93 216Q87 211 89 208Q94 196 94 196V183Q98 183 100 181Q105 177 103 174Q105 174 108 172L113 166L119 167L123 163Q124 164 126 165H128Q128 171 134 171Q128 174 128 184Q127 189 128.5 191.5Q130 194 131 194L132 195Q131 201 132 206Q133 208 134.5 210.0Q136 212 137 212L138 213Q136 216 138 221Q139 223 140.5 224.5Q142 226 143 227H144Q143 236 150 240Q148 251 157 254Q155 257 154 260Q142 257 140 246L136 252Q133 245 132 243L130 238Q130 239 129.5 240.0Q129 241 128.0 243.5Q127 246 129 248Q128 249 127.0 250.5Q126 252 125.0 255.0Q124 258 124 261Q122 260 120 260L88 263L92 255Q79 260 73 267L61 289Q64 288 68.0 285.5Q72 283 82.0 279.0Q92 275 98 275L88 271Q134 268 155 274Q155 275 154.5 276.0Q154 277 150.0 278.5Q146 280 140 280V275L136 278V274L133 277V273L130 275L129 271L126 274Q124 273 123 274Q122 276 122 277Q122 279 118.5 281.0Q115 283 110 283Q107 283 101.5 282.0Q96 281 94.0 281.0Q92 281 90 281Q89 282 91.5 284.5Q94 287 99.5 290.0Q105 293 110 294L133 296Q132 303 140 305Q145 306 160.0 305.0Q175 304 178 305Q182 310 188 311Q202 312 208 319L207 305H212Q204 299 200 297Q198 296 197.5 291.0Q197 286 199 285L201 282Q212 280 213 270Q202 272 202 268Q202 268 208.5 263.5Q215 259 214 252L200 253Q198 251 200.5 247.5Q203 244 207 243Q209 242 210.5 239.0Q212 236 212 233V231L198 236Q197 236 196.0 233.5Q195 231 195.5 229.0Q196 227 197 227Q207 226 208 215Q200 218 198 213Q197 211 197.5 208.5Q198 206 198 205L199 204Q217 205 223 208Q235 215 235 224Q235 250 243 258Q253 267 285.5 289.5Q318 312 336 320Q335 318 334.0 315.5Q333 313 331.0 305.0Q329 297 332 291Q333 285 352.5 290.5Q372 296 391 305L409 313Q378 288 377 279Q377 275 380.5 271.5Q384 268 387 267L391 266Q370 257 361 245Q356 238 357.0 230.0Q358 222 360.0 216.5Q362 211 362 211Q338 211 328 197Q344 198 358 197Q360 197 374.0 193.5Q388 190 397.5 191.5Q407 193 413 203L394 200Q386 200 379.5 207.0Q373 214 375 221Q380 239 400 239Q406 239 411.0 237.5Q416 236 419 235L421 233L427 246Q425 245 423.0 245.0Q421 245 414.5 244.5Q408 244 404 245Q421 261 430 271Q433 274 439.0 281.0Q445 288 448.5 292.0Q452 296 452.0 295.5Q452 295 452.0 291.0Q452 287 451.5 280.0Q451 273 451.0 266.0Q451 259 452.5 250.0Q454 241 456 236Z" fill="#dd2e44" />
<path d="M143 294Q146 295 150 294L156 293Q156 292 155.5 291.0Q155 290 153.0 288.5Q151 287 148.5 287.5Q146 288 144.5 289.5Q143 291 143 293Z" fill="#ffffff" />
<path d="M150 294Q152 294 154 293Q153 290 150 290Q146 290 146 294Q148 295 150 294Z" fill="#000000" />
</g></svg>