<svg xmlns="http://www.w3.org/2000/svg" viewBox="0 0 2048 2048">
<g transform="matrix(1 0 0 -1 0 2048)">
<path d="M512 158V73Q476 72 338.0 75.0Q200 78 199 78Q179 78 162.0 81.5Q145 85 140.0 86.5Q135 88 117.5 97.0Q100 106 100 107Q75 119 64.0 154.5Q53 190 71 235Q80 253 99.5 262.0Q119 271 138.0 270.5Q157 270 171 263Q209 244 225.5 217.0Q242 190 242.0 163.5Q242 137 251 123Q254 115 265.5 117.0Q277 119 281 134L299 192Q290 219 282.5 258.0Q275 297 273 323L270 348Q264 343 234 339Q222 337 184.0 339.0Q146 341 142 334Q128 327 106.5 334.0Q85 341 71 334Q60 329 48.0 314.5Q36 300 28.0 292.5Q20 285 14 292Q13 292 11.0 292.5Q9 293 8.5 300.0Q8 307 14 320Q24 339 29.5 348.5Q35 358 46.5 367.5Q58 377 71 377Q142 377 213 405Q246 418 273.0 420.5Q300 423 312.5 418.0Q325 413 327 405Q328 402 345.5 368.0Q363 334 368 316Q368 315 371.0 304.0Q374 293 375.5 288.5Q377 284 380.5 273.5Q384 263 386.5 257.0Q389 251 393.5 242.0Q398 233 402.5 227.5Q407 222 413.5 216.0Q420 210 427 206Q476 179 512 158Z" fill="#af7e57" />
<path d="M299 192Q351 161 481 179Q485 180 493.0 174.5Q501 169 506 164L512 158V88H279Q284 119 276 132Q282 141 288.0 156.0Q294 171 296 182Z" fill="#fa743e" />
<path d="M116 215Q93 194 91.5 161.5Q90 129 109 102Q103 105 100 107Q75 119 64.0 154.5Q53 190 71 235Q80 253 99.5 262.0Q119 271 138.0 270.5Q157 270 171 263Q213 242 230 208Q205 231 172.5 233.0Q140 235 116 215Z" fill="#dd551f" />
<path d="M166 187Q161 192 166 197Q182 213 199 213Q206 213 206.0 206.0Q206 199 199 199Q188 199 176 187Q174 185 171.0 185.0Q168 185 166 187ZM109 144Q104 149 109 154Q125 171 142 171Q149 171 149.0 163.5Q149 156 142 156Q131 156 119 144Q117 142 114.0 142.0Q111 142 109 144Z" fill="#90603e" />
<path d="M0 107H512V-64H0Z" fill="#55acee" />
<path d="M85 107Q158 155 166 158Q174 161 173 155Q172 153 171 149Q159 127 161.5 119.5Q164 112 185 121Q239 148 244 133Q246 129 242 121Q233 103 250 105Q270 106 284 121Q297 133 320 123Q336 116 327 107Q317 97 255.0 87.5Q193 78 156 78Q137 78 119.5 85.0Q102 92 94 100Z" fill="#55acee" />
</g></svg>