<svg xmlns="http://www.w3.org/2000/svg" viewBox="0 0 2048 2048">
<g transform="matrix(1 0 0 -1 0 2048)">
<path d="M320 141Q351 124 367 110Q373 104 373.5 98.5Q374 93 372 83L371 82Q368 68 336 -35L319 -31Q319 7 322 29Q323 35 325 51Q327 65 328 69Q329 77 322 81Q309 87 297 92ZM168 64Q184 66 187 66Q195 67 197 75Q199 88 201 102L255 92Q246 58 236 39Q232 32 227.5 30.0Q223 28 211 27H210Q196 26 88 32V49Q125 60 146 62Q157 63 168 64Z" fill="#f7dece" />
<path d="M112 25Q112 23 110 25Q109 25 105 34Q109 32 114 31Q115 30 115 29Q115 29 112 25ZM349 -14Q350 -15 349 -16Q348 -17 338 -18Q341 -15 344 -11Q344 -11 344.5 -11.0Q345 -11 346 -11Q346 -11 349 -14Z" fill="#8899a6" />
<path d="M78 58Q80 60 87 61Q91 61 97 61Q101 61 102 60Q105 59 106 58Q107 56 107.0 55.0Q107 54 104.5 51.0Q102 48 101 46Q101 45 101 43Q101 40 109 30Q113 26 113 25Q113 24 113 23Q108 15 108 15L103 -2Q102 -4 101.0 -6.0Q100 -8 100 -9Q99 -11 97.5 -18.0Q96 -25 96 -27Q94 -31 90 -32L87 -31Q82 -29 79 -12Q78 -6 81 21Q81 29 80.5 38.5Q80 48 79 53L78 58ZM307 -38Q306 -35 307 -29Q308 -24 310 -19Q311 -16 312 -14Q313 -12 316 -11Q317 -10 318.0 -10.5Q319 -11 321.5 -14.0Q324 -17 325.5 -18.5Q327 -20 328 -20Q332 -21 343 -16Q348 -13 349 -13Q350 -14 351 -14Q357 -21 358 -21L373 -31Q374 -32 375.5 -33.5Q377 -35 378 -36Q380 -37 386.0 -40.5Q392 -44 394 -45Q398 -48 397 -52L396 -55Q396 -55 394.5 -55.5Q393 -56 388.0 -57.0Q383 -58 375 -57Q370 -56 344 -46Q336 -43 327.0 -41.0Q318 -39 313 -38H307Z" fill="#be1931" />
<path d="M82 31Q82 31 82 31Q79 58 78 58Q78 58 78 59Q80 60 86 61Q89 61 92 61Q94 61 97 61Q96 46 94 42Q91 35 82 31ZM335 -42Q335 -42 335 -42Q331 -41 324.0 -40.0Q317 -39 312.0 -38.5Q307 -38 307.0 -38.0Q307 -38 307 -37Q306 -35 307 -30Q308 -24 310 -19Q324 -24 328 -27Q334 -32 335 -42Z" fill="#dd2e44" />
<path d="M109 17Q108 17 108 17Q103 19 103 19Q102 20 102 22Q102 24 104 24Q105 24 106 24Q110 22 110 22Q112 21 112 19Q112 17 109 17ZM106 8Q106 8 105 8L100 10Q98 11 98 13Q98 15 101 15Q102 15 102 15L107 14Q109 13 109 11Q109 11 109 10Q108 8 106 8ZM104 0H103L98 1Q96 1 96 4Q97 6 99 6L104 5Q106 5 106 3Q106 2 106 2Q106 0 104 0ZM67 55Q67 57 68 58Q69 59 70 59Q78 60 78 59Q78 57 79 55Q81 53 81 48Q82 34 82 28Q82 24 81.0 15.0Q80 6 80 4Q79 -5 81 -11Q82 -19 83 -23Q85 -28 87 -31Q81 -31 77 -23Q72 -14 71 -4Q70 8 69 21L68 36Q66 52 67 55ZM350 -26Q347 -26 347 -23Q347 -22 348 -21Q351 -17 351 -17Q352 -16 353 -16Q356 -16 356 -19Q356 -20 356 -21Q352 -25 352 -25Q351 -26 350 -26ZM358 -31Q355 -31 355 -29Q355 -28 355 -27Q358 -23 358 -23Q359 -21 361 -21Q364 -21 364 -24Q364 -25 363 -26Q360 -30 360 -30Q359 -31 358 -31ZM366 -36Q363 -36 363 -33Q363 -32 363 -32Q365 -28 365 -28Q366 -26 368 -26Q371 -26 371 -29Q371 -30 370 -30Q368 -35 368 -35Q367 -36 366 -36ZM307 -49Q306 -48 304 -47Q304 -47 304 -45Q305 -37 307 -37H310Q313 -37 318 -38Q332 -40 337 -42Q341 -43 349.5 -47.0Q358 -51 360 -51Q368 -54 375 -55Q382 -56 387 -56Q392 -56 396 -55Q394 -60 385 -62Q380 -63 374 -63Q370 -63 365.5 -62.0Q361 -61 341 -57L326 -54Q310 -51 307 -49Z" fill="#ccd6dd" />
<path d="M326 143Q326 143 326 143Q329 141 329 138Q325 119 303 89Q302 87 299 87Q298 87 297 88Q274 100 238 111Q237 112 241.0 126.0Q245 140 250.5 154.0Q256 168 257 168Q283 165 326 143Z" fill="#a0041e" />
<path d="M258 87Q258 87 258 87Q257 84 254 84Q235 83 202 97Q198 98 199 103Q202 112 205.0 129.0Q208 146 210.0 157.5Q212 169 214 169Q214 169 266 159Q269 134 258 87Z" fill="#be1931" />
<path d="M301 288Q305 269 277 263Q254 258 230 260Q227 260 225.0 259.0Q223 258 222.5 254.5Q222 251 221.5 248.5Q221 246 220.5 240.5Q220 235 219 232Q215 201 217 194Q217 194 221.0 189.0Q225 184 223 178Q223 177 222 175Q220 171 219.0 169.5Q218 168 215.5 166.5Q213 165 210 167Q192 173 190 178Q188 181 192.0 189.0Q196 197 196 199Q196 200 194.0 229.0Q192 258 192 261Q193 279 205 284Q232 295 275 303Q298 307 301 288Z" fill="#f7dece" />
<path d="M277 354Q270 363 268 375Q264 397 275.0 415.5Q286 434 306 438Q328 442 349.0 428.5Q370 415 369 393Q368 367 356.0 344.0Q344 321 327 326Q317 329 307 333Q301 326 304 307Q305 295 296.5 289.0Q288 283 278.0 287.5Q268 292 267 305Q266 316 272.0 332.0Q278 348 277 354Z" fill="#f7dece" />
<path d="M200 409Q207 409 218.5 413.5Q230 418 236.5 419.5Q243 421 255 416Q260 413 264 409Q269 426 282 435Q299 446 313 444Q332 442 345.0 435.5Q358 429 363.5 421.5Q369 414 371.0 406.0Q373 398 372.5 392.5Q372 387 370 385Q368 383 363.0 385.0Q358 387 352.0 390.5Q346 394 342 395Q328 397 321 388Q319 385 318.0 380.0Q317 375 316 372V369Q315 383 315 388Q315 393 311.5 394.5Q308 396 304 391Q300 387 301.0 380.0Q302 373 305 372Q309 369 295 358Q282 348 270 353Q263 355 261 372Q260 376 260 379Q248 369 234 369Q222 369 207.5 375.0Q193 381 183 392Q178 398 174.5 406.5Q171 415 170 420L168 426Q177 409 200 409Z" fill="#292f33" />
<path d="M233 292Q250 332 279 322Q302 315 312 295Q324 267 318 253Q290 189 283 153Q282 152 280.5 151.5Q279 151 271.0 150.0Q263 149 249 152L210 157Q210 160 212.5 186.5Q215 213 216.5 225.5Q218 238 222.5 258.5Q227 279 233 292Z" fill="#dd2e44" />
<path d="M267 291Q284 302 302 277Q316 256 324 232Q325 229 327.0 228.0Q329 227 332.5 227.5Q336 228 338.5 228.5Q341 229 346.5 231.0Q352 233 356 234Q388 242 393 246Q394 247 397.0 253.0Q400 259 406 259Q407 259 410 259Q415 259 417.0 258.5Q419 258 420.5 256.5Q422 255 423 250Q424 231 420 227Q418 224 409.5 224.5Q401 225 397 224Q396 224 368.5 210.0Q341 196 338 195Q320 188 311 198Q289 220 263 259Q250 279 267 291Z" fill="#f7dece" />
</g></svg>