<svg xmlns="http://www.w3.org/2000/svg" viewBox="0 0 2048 2048">
<g transform="matrix(1 0 0 -1 0 2048)">
<path d="M512 158V73Q476 72 338.0 75.0Q200 78 199 78Q179 78 162.0 81.5Q145 85 140.0 86.5Q135 88 117.5 97.0Q100 106 100 107Q75 119 64.0 154.5Q53 190 71 235Q80 253 99.5 262.0Q119 271 138.0 270.5Q157 270 171 263Q209 244 225.5 217.0Q242 190 242 164Q242 131 253 119Q262 111 270 135Q277 154 284.0 168.5Q291 183 295 187L299 192Q286 211 279.0 250.0Q272 289 271 319L270 348Q260 339 242 336Q228 334 187.5 337.5Q147 341 142 334Q128 327 106.5 334.0Q85 341 71 334Q60 329 48.0 314.5Q36 300 28.0 292.5Q20 285 14 292Q13 292 11.0 292.5Q9 293 8.5 300.0Q8 307 14 320Q24 339 29.5 348.5Q35 358 46.5 367.5Q58 377 71 377Q142 377 213 405Q246 418 273.5 420.5Q301 423 314.0 418.0Q327 413 327 405Q327 399 334.5 388.0Q342 377 353.0 361.5Q364 346 370 334Q374 325 380.0 287.0Q386 249 397.0 220.5Q408 192 427 192Q445 192 477.5 175.5Q510 159 512 158Z" fill="#f7dece" />
<path d="M116 215Q93 194 91.5 161.5Q90 129 109 102Q103 105 100 107Q75 119 64.0 154.5Q53 190 71 235Q80 253 99.5 262.0Q119 271 138.0 270.5Q157 270 171 263Q213 242 230 208Q205 231 172.5 233.0Q140 235 116 215ZM313 86Q313 107 297 123Q294 126 287.5 129.5Q281 133 276 135L271 137L286 174Q333 149 390.0 154.0Q447 159 462 183Q472 180 484.5 173.5Q497 167 504 163L512 158V86Z" fill="#dd2e44" />
<path d="M166 187Q161 192 166 197Q182 213 199 213Q206 213 206.0 206.0Q206 199 199 199Q188 199 176 187Q174 185 171.0 185.0Q168 185 166 187ZM109 144Q104 149 109 154Q125 171 142 171Q149 171 149.0 163.5Q149 156 142 156Q131 156 119 144Q117 142 114.0 142.0Q111 142 109 144Z" fill="#e0aa94" />
<path d="M0 107H512V-64H0Z" fill="#55acee" />
<path d="M85 107Q158 155 166 158Q174 161 173 155Q172 153 171 149Q159 127 161.5 119.5Q164 112 185 121Q239 148 244 133Q246 129 242 121Q233 103 250 105Q270 106 284 121Q297 133 320 123Q336 116 327 107Q317 97 255.0 87.5Q193 78 156 78Q137 78 119.5 85.0Q102 92 94 100Z" fill="#55acee" />
</g></svg>