<svg xmlns="http://www.w3.org/2000/svg" viewBox="0 0 512 512">
<g transform="matrix(1 0 0 -1 0 512)">
<path d="M192 141 215 92Q203 87 190 81Q183 77 184 69Q185 65 187 51Q189 35 190 29Q193 7 193 -31L176 -35Q144 68 141 82L140 83Q138 93 138.5 98.5Q139 104 145 110Q161 124 192 141ZM366 62Q387 60 424 49V32Q316 26 302 27H301Q289 28 284.5 30.0Q280 32 276 39Q266 58 257 92L311 102Q313 88 315 75Q317 67 325 66Q328 66 343.5 64.0Q359 62 366 62Z" fill="#af7e57" />
<path d="M400 25 397 29Q397 30 398 31Q402 32 407 34Q403 25 402 25Q400 23 400 25ZM163 -14 166 -11Q167 -10 168 -11Q171 -15 174 -18Q164 -17 163 -16Q162 -15 163 -14Z" fill="#8899a6" />
<path d="M434 58Q434 56 433.0 52.5Q432 49 431.5 39.0Q431 29 431 21Q434 -6 433 -12Q431 -20 429.5 -24.5Q428 -29 426 -30L425 -31L422 -32Q418 -31 416 -27Q416 -25 414.5 -18.0Q413 -11 412 -9Q412 -8 411.0 -6.0Q410 -4 409 -2Q405 12 404 15Q404 15 399 23Q399 24 399 25Q399 26 403 30Q411 40 411 43Q411 45 410.5 46.5Q410 48 407.5 51.0Q405 54 405.0 55.0Q405 56 406 58Q407 59 410 60Q411 61 415 61Q421 61 425 61Q432 60 434 58ZM205 -38Q185 -39 168 -46Q142 -56 137 -57Q128 -57 123.5 -56.5Q119 -56 118 -56L116 -55Q115 -54 115 -52Q114 -48 118 -45Q120 -44 126.0 -40.5Q132 -37 134 -36Q135 -35 136.5 -33.5Q138 -32 139 -31Q152 -23 154 -21Q155 -21 161 -14Q162 -14 163 -13Q164 -13 169 -16Q180 -21 184 -20Q185 -20 186.5 -18.5Q188 -17 190.5 -14.0Q193 -11 194.0 -10.5Q195 -10 196 -11Q198 -12 200 -14Q201 -15 202 -19Q204 -24 205 -29Q206 -35 205 -38Z" fill="#be1931" />
<path d="M430 31Q421 35 418 42Q416 46 415 61Q420 61 426 61Q432 60 434 59V58Q433 58 430 31ZM177 -42Q178 -32 184 -27Q188 -24 202 -19Q204 -24 205 -30Q206 -35 205 -37V-38Q205 -38 200.0 -38.5Q195 -39 188.0 -40.0Q181 -41 177 -42Z" fill="#dd2e44" />
<path d="M403 17Q401 17 400 18Q399 21 402 22L406 24Q409 25 410.0 22.5Q411 20 409 19L404 17Q404 17 403 17ZM406 8Q404 8 403 10Q402 13 405 14L410 15Q413 16 414.0 13.5Q415 11 412 10L407 8Q406 8 406 8ZM408 0Q406 0 406 2Q405 5 408 5L413 6Q415 7 415.5 4.0Q416 1 414 1L409 0Q409 0 408 0ZM445 55Q446 52 444 36Q444 26 443 21Q441 -3 441 -4Q440 -14 435 -23Q433 -27 430.5 -29.0Q428 -31 427 -31H425Q427 -28 429 -23Q430 -19 431 -11Q433 -5 432 4Q432 6 431.0 15.0Q430 24 430 28Q430 34 431 48Q431 53 433 55L434 59Q434 60 442 59Q443 59 444 58Q445 57 445 55ZM162 -26Q161 -26 160 -25L156 -21Q155 -19 157.0 -17.0Q159 -15 161 -17L164 -21Q166 -23 164 -25Q163 -26 162 -26ZM154 -31Q153 -31 152 -30L149 -26Q147 -23 149.5 -21.5Q152 -20 154 -23L157 -27Q158 -29 156 -31Q155 -31 154 -31ZM146 -36Q145 -36 144 -35L142 -30Q140 -28 142.5 -26.5Q145 -25 147 -28L149 -32Q150 -34 148 -36Q147 -36 146 -36ZM205 -49Q202 -51 186 -54Q177 -56 171 -57Q151 -61 147 -62Q137 -64 127 -62Q123 -61 120.5 -59.0Q118 -57 117 -56L116 -55Q120 -56 125 -56Q130 -56 137 -55Q143 -54 152 -51Q154 -51 162.5 -47.0Q171 -43 175 -42Q180 -40 194 -38Q199 -37 202 -37H205Q207 -37 208 -45Q208 -47 208 -47Q206 -48 205 -49Z" fill="#ccd6dd" />
<path d="M186 143Q229 165 255 168Q256 168 261.5 154.0Q267 140 271.0 126.0Q275 112 274 111Q238 100 215 88Q211 86 209 89Q187 119 183 138Q183 141 186 143Z" fill="#a0041e" />
<path d="M254 87Q243 134 246 159L298 169Q300 169 302.0 157.5Q304 146 307.0 129.0Q310 112 313 103Q314 98 310 97Q277 83 258 84Q255 84 254 87Z" fill="#be1931" />
<path d="M211 288Q214 307 237 303Q280 295 307 284Q319 279 320 261Q320 258 318.0 229.0Q316 200 316 199Q316 197 320.0 189.0Q324 181 322 178Q320 173 302 167Q297 165 295.0 167.0Q293 169 290 175Q289 177 289 178Q287 184 291.0 189.0Q295 194 295 194Q297 201 293 232Q292 235 291.5 240.5Q291 246 290.5 248.5Q290 251 289.5 254.5Q289 258 287.0 259.0Q285 260 282 260Q258 258 235 263Q207 269 211 288Z" fill="#af7e57" />
<path d="M235 354Q234 348 240.0 332.0Q246 316 245 305Q244 292 234.0 287.5Q224 283 215.5 289.0Q207 295 208 307Q211 326 205 333Q197 330 185 326Q168 321 156.0 344.0Q144 367 143 393Q142 415 163.0 428.5Q184 442 206 438Q226 434 237.0 415.5Q248 397 244 375Q242 363 235 354Z" fill="#af7e57" />
<path d="M312 409Q335 409 344 426Q339 405 329 392Q319 381 304.5 375.0Q290 369 278 369Q264 369 252 379Q252 375 251 372Q249 355 242 353Q230 348 217 358Q204 369 207 372Q210 373 211.0 380.0Q212 387 208 391Q204 396 200.5 394.5Q197 393 197 388L196 369Q195 381 191 388Q184 397 170 395Q166 394 160.0 390.5Q154 387 149.0 385.0Q144 383 142 385Q140 387 139.5 392.5Q139 398 141.0 406.0Q143 414 148.5 421.5Q154 429 167.0 435.5Q180 442 199 444Q213 446 230 435Q243 426 248 409Q252 413 257 416Q269 421 275.5 419.5Q282 418 293.5 413.5Q305 409 312 409Z" fill="#60352a" />
<path d="M279 292Q285 279 289.5 258.5Q294 238 295.5 225.5Q297 213 299.5 186.5Q302 160 302 157Q289 155 263 152Q249 150 241.5 150.0Q234 150 231 151L229 153Q222 189 194 253Q188 267 200 295Q210 315 233 322Q262 332 279 292Z" fill="#dd2e44" />
<path d="M245 291Q262 279 249 259Q223 220 201 198Q192 188 174 195Q171 196 143.5 210.0Q116 224 115 224Q112 225 102.5 224.5Q93 224 92 227Q88 231 89 250Q90 257 92.5 258.0Q95 259 106 259Q112 259 115.0 253.0Q118 247 119 246Q124 242 156 234Q160 233 165.5 231.0Q171 229 173.5 228.5Q176 228 179.5 227.5Q183 227 185.0 228.0Q187 229 188 232Q196 256 210 277Q228 302 245 291Z" fill="#af7e57" />
</g></svg>