<svg xmlns="http://www.w3.org/2000/svg" viewBox="0 0 2048 2048">
<g transform="matrix(1 0 0 -1 0 2048)">
<path d="M226 -48H207Q205 -43 202.0 -34.0Q199 -25 194.5 -3.5Q190 18 191 34L231 26Q234 13 233.0 -3.5Q232 -20 229 -34ZM285 -48Q284 -42 282.0 -33.5Q280 -25 277.5 -3.0Q275 19 280 26L320 34Q321 18 317.0 -2.0Q313 -22 309 -35L304 -48ZM123 389Q123 388 126.5 382.0Q130 376 134.5 367.0Q139 358 142 352Q144 345 147.0 336.5Q150 328 152.0 323.0Q154 318 155 317Q156 316 165.5 307.0Q175 298 184.0 288.0Q193 278 200 269Q220 240 200.5 227.5Q181 215 166 239Q149 265 127 304Q118 321 110 341Q107 347 105.5 355.0Q104 363 103.5 368.0Q103 373 102 374Q101 376 93.5 383.0Q86 390 86 394Q122 395 123 389ZM389 389Q389 391 393.0 392.0Q397 393 402.5 393.5Q408 394 413.5 394.0Q419 394 422.5 394.0Q426 394 426 394Q426 390 418.5 383.0Q411 376 410 374Q409 373 408.5 368.0Q408 363 406.5 355.0Q405 347 402 341Q395 321 385 304Q363 265 346 239Q331 215 311.5 227.5Q292 240 312 269Q319 278 328.0 288.0Q337 298 346.5 307.0Q356 316 357 317Q358 318 360.0 323.0Q362 328 365.0 336.5Q368 345 370 352Q373 358 377.5 367.0Q382 376 385.5 382.0Q389 388 389 389Z" fill="#f7dece" />
<path d="M196 -52Q201 -41 201 -38Q201 -33 204 -32Q208 -31 216.5 -31.0Q225 -31 227.5 -32.0Q230 -33 231 -38Q231 -42 234 -47Q239 -58 238 -62Q237 -64 216 -64Q196 -64 195 -62Q193 -60 196 -52ZM315 -52Q318 -60 316 -62Q315 -64 295 -64Q275 -64 274 -62Q272 -58 277 -47Q280 -42 281 -38Q281 -33 283.5 -32.0Q286 -31 294.5 -31.0Q303 -31 307 -32Q310 -33 310 -38Q310 -41 315 -52ZM315 273Q346 260 354 252Q351 242 344 231Q342 225 336.5 216.0Q331 207 326.0 200.0Q321 193 321 192Q319 187 316.0 171.0Q313 155 312 142L311 128L256 107L201 128Q196 181 191 192Q190 193 185.5 200.0Q181 207 175.5 216.0Q170 225 168 231Q161 242 158 252Q162 255 171.5 260.5Q181 266 189 270L197 273Q208 267 218 250L234 246H278Q285 249 294 250Q304 267 315 273Z" fill="#fa743e" />
<path d="M505 391H7Q0 391 0.0 398.0Q0 405 7 405H505Q512 405 512.0 398.0Q512 391 505 391Z" fill="#99aab5" />
<path d="M498 434V363Q498 357 493.5 352.5Q489 348 483.5 348.0Q478 348 473.5 352.5Q469 357 469 363Q469 357 465.0 352.5Q461 348 455.0 348.0Q449 348 445.0 352.5Q441 357 441 363V434Q441 440 445.0 444.0Q449 448 455.0 448.0Q461 448 465.0 444.0Q469 440 469 434Q469 440 473.5 444.0Q478 448 483.5 448.0Q489 448 493.5 444.0Q498 440 498 434ZM71 434V363Q71 357 67.0 352.5Q63 348 57.0 348.0Q51 348 47.0 352.5Q43 357 43 363Q43 357 38.5 352.5Q34 348 28.5 348.0Q23 348 18.5 352.5Q14 357 14 363V434Q14 440 18.5 444.0Q23 448 28.5 448.0Q34 448 38.5 444.0Q43 440 43 434Q43 440 47.0 444.0Q51 448 57.0 448.0Q63 448 67.0 444.0Q71 440 71 434Z" fill="#292f33" />
<path d="M385 386Q378 390 380 396Q382 401 391 401Q412 400 425 391Q419 387 415 383Q414 379 407.0 380.0Q400 381 394.0 383.0Q388 385 385 386Z" fill="#f7dece" />
<path d="M393 403 395 408Q395 412 398.5 411.0Q402 410 402 406L400 401Q400 398 396.0 398.5Q392 399 393 403ZM392 405 390 399Q389 395 385 397Q384 397 381 396H380L384 408Q385 412 389.5 411.0Q394 410 392 405Z" fill="#f7dece" />
<path d="M401 404 402 409Q403 412 406.5 411.5Q410 411 409 407L408 402Q407 399 403.5 400.0Q400 401 401 404Z" fill="#f7dece" />
<path d="M408 404 409 408Q410 411 413.5 410.0Q417 409 416 406L415 402Q415 398 411.0 399.0Q407 400 408 404Z" fill="#f7dece" />
<path d="M416 403V406Q417 409 420.5 408.5Q424 408 423 404V402Q422 398 418.5 399.0Q415 400 416 403ZM127 386Q119 382 108.5 381.0Q98 380 97 383L87 391Q93 395 101.5 397.5Q110 400 116 401H121Q130 401 132 396Q134 390 127 386Z" fill="#f7dece" />
<path d="M112 401 110 406Q110 410 113.5 411.0Q117 412 117 408L119 403Q120 399 116.0 398.5Q112 398 112 401ZM128 408 132 396H131Q128 397 127 397Q123 395 122 399L120 405Q118 410 122.5 411.0Q127 412 128 408Z" fill="#f7dece" />
<path d="M104 402 103 407Q102 411 105.5 411.5Q109 412 110 409L111 404Q112 401 108.5 400.0Q105 399 104 402Z" fill="#f7dece" />
<path d="M97 402 96 406Q95 409 98.5 410.0Q102 411 103 408L104 404Q105 400 101.0 399.0Q97 398 97 402Z" fill="#f7dece" />
<path d="M89 402V404Q88 407 91.5 408.0Q95 409 96 406V403Q97 400 93.5 399.0Q90 398 89 402Z" fill="#f7dece" />
<path d="M311 100Q322 72 324 26H281Q275 32 271.0 45.0Q267 58 265 67L264 77H248Q244 40 231 26H188Q189 46 192.0 64.5Q195 83 198 91L201 100L256 121Z" fill="#dd551f" />
<path d="M201 128H311V100H201Z" fill="#c1694f" />
<path d="M270 129H279V98H270ZM263.0 112.0Q261 112 261.0 114.5Q261 117 263.0 117.0Q265 117 265.0 114.5Q265 112 263.0 112.0ZM254.0 117.0Q256 117 256.0 114.5Q256 112 254.0 112.0Q252 112 252.0 114.5Q252 117 254.0 117.0ZM244.5 112.0Q242 112 242.0 114.5Q242 117 244.5 117.0Q247 117 247.0 114.5Q247 112 244.5 112.0ZM235.5 112.0Q233 112 233.0 114.5Q233 117 235.5 117.0Q238 117 238.0 114.5Q238 112 235.5 112.0ZM226.5 112.0Q224 112 224.0 114.5Q224 117 226.5 117.0Q229 117 229.0 114.5Q229 112 226.5 112.0ZM217.5 112.0Q215 112 215.0 114.5Q215 117 217.5 117.0Q220 117 220.0 114.5Q220 112 217.5 112.0ZM208.0 112.0Q206 112 206.0 114.5Q206 117 208.0 117.0Q210 117 210.0 114.5Q210 112 208.0 112.0Z" fill="#14171a" />
<path d="M244.5 112.0Q242 112 242.0 114.5Q242 117 244.5 117.0Q247 117 247.0 114.5Q247 112 244.5 112.0Z" fill="#14171a" />
<path d="M235.5 112.0Q233 112 233.0 114.0Q233 116 235.5 116.0Q238 116 238.0 114.0Q238 112 235.5 112.0Z" fill="#657786" />
<path d="M232 116H235V112H232Z" fill="#657786" />
<path d="M238 95H227V133H238V128H232V100H238Z" fill="#657786" />
<path d="M279 393Q325 378 323 335Q321 262 262 262Q248 262 242.5 262.0Q237 262 230.0 265.5Q223 269 217 276Q199 282 196 303Q196 308 193.5 317.5Q191 327 190.5 331.5Q190 336 191 349Q193 365 206.0 376.0Q219 387 233 387Q237 393 253.5 395.0Q270 397 279 393Z" fill="#292f33" />
<path d="M239 273H273V239Q273 231 268.0 226.0Q263 221 256.0 221.0Q249 221 244.0 226.0Q239 231 239 239Z" fill="#f7dece" />
<path d="M302 333Q308 324 308 302Q308 281 293.0 265.5Q278 250 256.5 250.0Q235 250 219.5 265.5Q204 281 204 302Q204 320 205 324Q209 336 218 342Q224 346 228.0 350.5Q232 355 233 357L234 360Q237 353 247 347Q252 344 266.5 340.5Q281 337 288 329Q290 327 290.5 328.0Q291 329 291 332H290Q289 341 282 344Q295 342 302 333Z" fill="#f7dece" />
<path d="M279 273Q273 262 256 262Q248 262 242.5 264.5Q237 267 235 270L233 273ZM262 288H250Q247 288 247.0 291.0Q247 294 250 294H262Q265 294 265.0 291.0Q265 288 262 288Z" fill="#c1694f" />
<path d="M227 314V320Q227 325 233.0 325.0Q239 325 239 320V314Q239 308 233.0 308.0Q227 308 227 314ZM273 314V320Q273 325 279.0 325.0Q285 325 285 320V314Q285 308 279.0 308.0Q273 308 273 314Z" fill="#662113" />
</g></svg>