<svg xmlns="http://www.w3.org/2000/svg" viewBox="0 0 2048 2048">
<g transform="matrix(1 0 0 -1 0 2048)">
<path d="M348 268Q361 272 378 271Q385 271 392.0 266.0Q399 261 401 256Q405 242 397 240Q395 239 387.5 240.5Q380 242 374 241Q365 240 366 231Q366 225 364.0 222.0Q362 219 360.0 219.5Q358 220 357 221Q353 227 343 236Q339 240 341.5 253.5Q344 267 348 268Z" fill="#1c6399" />
<path d="M512 220V-7Q512 -9 511.5 -13.0Q511 -17 508.0 -27.0Q505 -37 499.5 -44.5Q494 -52 482.5 -58.0Q471 -64 455 -64H57Q32 -64 17.5 -50.0Q3 -36 2 -21L0 -7V21Q10 27 28.0 37.0Q46 47 102.0 74.5Q158 102 215.5 126.0Q273 150 354.5 177.5Q436 205 512 220Z" fill="#e1e8ed" />
<path d="M467 150Q472 139 467.5 128.0Q463 117 453 112L117 -43Q106 -48 95.0 -44.0Q84 -40 79 -29L67 -3Q62 8 66.5 19.0Q71 30 81 35L417 189Q428 194 439.0 190.0Q450 186 455 175Z" fill="#ea596e" />
<path d="M192 86Q197 92 215.5 94.0Q234 96 236 92Q237 91 242.0 79.5Q247 68 252 63Q262 49 262 40Q262 32 248.0 25.5Q234 19 222 23Q218 24 201.0 39.5Q184 55 184 58Q182 75 192 86ZM310 136Q314 143 328.5 144.5Q343 146 345 142Q347 140 358.5 131.0Q370 122 375 118Q382 110 384 99Q385 92 372.5 83.5Q360 75 348 77Q343 78 325.0 91.0Q307 104 306 108Q302 125 310 136Z" fill="#1c6399" />
<path d="M352 140Q354 129 342.0 121.0Q330 113 318.5 113.5Q307 114 303 121Q302 129 293.0 146.0Q284 163 283 170Q275 171 266.0 175.0Q257 179 251 182L245 185Q260 168 262 161Q266 149 262 140Q255 122 249 82Q248 76 233.0 73.5Q218 71 204.0 74.0Q190 77 191 84Q196 123 203 144Q187 159 177.5 174.5Q168 190 167 198L166 206Q163 212 180.0 223.0Q197 234 217.5 241.5Q238 249 244 247L315 218Q327 214 331 203Q348 158 352 140Z" fill="#67757f" />
<path d="M347 277Q358 275 353.5 248.0Q349 221 342 221Q327 221 303 232Q292 238 277 250V235Q277 230 273 228L159 185Q158 185 156 185Q154 185 152 186Q149 188 149 192V267Q134 260 131 251Q125 238 132 201Q133 197 121.5 192.0Q110 187 97.5 185.0Q85 183 84 185Q77 220 80.0 247.0Q83 274 91 287Q98 299 123.0 316.5Q148 334 171 334H262Q276 334 285 323Q300 302 314 290Q326 281 347 277Z" fill="#bbddf5" />
<path d="M448 393Q449 390 447.0 387.0Q445 384 441 384Q423 384 398.5 375.5Q374 367 357.5 358.5Q341 350 312 334Q248 299 228 299Q186 299 175 325Q168 341 180 353Q182 356 185 356H228Q244 356 253.0 357.5Q262 359 279.0 368.0Q296 377 323 397Q349 416 375.5 427.0Q402 438 411.5 439.5Q421 441 427 441Q432 441 433 436ZM92 195Q101 202 118.0 205.5Q135 209 139 211Q141 212 142 209Q143 201 138 197L129 193Q134 180 126 171Q112 155 102 154Q91 153 85 164Q75 180 92 195Z" fill="#1c6399" />
<path d="M262 391Q262 368 245.0 351.0Q228 334 204.5 334.0Q181 334 164.5 351.0Q148 368 148 391Q148 434 205.0 434.0Q262 434 262 391Z" fill="#d4ab88" />
<path d="M171 391Q145 391 143 410Q140 431 172 442Q189 448 213 448Q267 448 276 403Q284 371 267 354Q262 348 256 348Q228 348 228 391Q228 397 220.5 397.0Q213 397 197.0 394.0Q181 391 171 391Z" fill="#9aaab4" />
<path d="M143.5 364.0Q135 372 135.0 384.0Q135 396 143.5 404.0Q152 412 163.5 412.0Q175 412 183.5 404.0Q192 396 192.0 384.0Q192 372 183.5 364.0Q175 356 163.5 356.0Q152 356 143.5 364.0Z" fill="#67757f" />
<path d="M153.5 374.0Q149 378 149.0 384.0Q149 390 153.5 394.0Q158 398 163.5 398.0Q169 398 173.5 394.0Q178 390 178.0 384.0Q178 378 173.5 374.0Q169 370 163.5 370.0Q158 370 153.5 374.0Z" fill="#bdddf4" />
<path d="M186.0 364.0Q178 372 178.0 384.0Q178 396 186.0 404.0Q194 412 206.0 412.0Q218 412 226.5 404.0Q235 396 235.0 384.0Q235 372 226.5 364.0Q218 356 206.0 356.0Q194 356 186.0 364.0Z" fill="#67757f" />
<path d="M196.0 374.0Q192 378 192.0 384.0Q192 390 196.0 394.0Q200 398 206.0 398.0Q212 398 216.0 394.0Q220 390 220.0 384.0Q220 378 216.0 374.0Q212 370 206.0 370.0Q200 370 196.0 374.0Z" fill="#bdddf4" />
<path d="M214 50Q212 52 213.0 55.0Q214 58 218.0 61.5Q222 65 228.5 67.5Q235 70 239.0 69.5Q243 69 245.0 67.5Q247 66 247 65Q247 65 245.0 65.5Q243 66 239.0 65.5Q235 65 231 63Q227 60 223.5 56.0Q220 52 217.5 50.0Q215 48 214 50ZM221 40Q220 42 220.5 44.5Q221 47 225.5 51.0Q230 55 236.5 57.5Q243 60 247.0 59.5Q251 59 253.0 57.5Q255 56 255 55Q255 55 253.0 55.5Q251 56 247.0 55.5Q243 55 239 52Q235 50 231.0 46.0Q227 42 225.0 40.0Q223 38 221 40ZM335 102Q333 104 333.5 107.0Q334 110 338.0 114.0Q342 118 349 121Q354 124 358.5 124.0Q363 124 365.0 123.0Q367 122 367 121Q366 120 364.5 120.5Q363 121 359.0 120.0Q355 119 351 116Q347 114 344.0 109.5Q341 105 339.0 103.0Q337 101 335 102ZM344 93Q342 95 342.5 97.5Q343 100 347.0 104.5Q351 109 357 112Q363 115 367.5 115.0Q372 115 373.5 113.5Q375 112 375 111Q375 110 373.5 111.0Q372 112 368.0 111.0Q364 110 360 107Q356 104 353.0 99.5Q350 95 348.0 93.5Q346 92 344 93Z" fill="#55acee" />
</g></svg>