<svg xmlns="http://www.w3.org/2000/svg" viewBox="0 0 512 512">
<g transform="matrix(1 0 0 -1 0 512)">
<path d="M215 94Q201 89 188 82Q182 80 184 73Q184 69 186 55Q188 39 189 33Q193 12 192 -27L173 -32Q140 70 137 85V86Q135 96 135.5 102.0Q136 108 142 114Q159 129 190 146ZM339 69Q354 67 360 66Q382 64 419 53V34Q312 28 297 29H296Q284 30 279.5 32.0Q275 34 271 41Q261 61 252 95L308 106Q310 91 313 78Q314 71 321 71Q324 70 339 69ZM214 297Q215 306 221.5 310.5Q228 315 238 313Q296 302 308 298Q319 294 321 277Q321 274 319.5 245.5Q318 217 318 216Q318 214 322.5 205.0Q327 196 326 193Q323 187 309 182Q298 178 290 195Q288 201 289.5 204.0Q291 207 294.0 212.0Q297 217 297 218Q298 222 294 246Q293 249 292.5 254.5Q292 260 291.5 263.0Q291 266 290.0 269.0Q289 272 287.0 273.0Q285 274 283 273Q261 267 234 272Q211 276 214 297Z" fill="#f3d2a2" />
<path d="M395 26 393 31Q392 32 394 32Q398 34 403 36Q399 27 398 26Q396 24 395 26ZM159 -11 163 -7Q164 -7 165 -8Q168 -11 172 -15Q161 -14 160 -13Q158 -12 159 -11Z" fill="#8899a6" />
<path d="M432 62Q432 60 431.0 56.0Q430 52 429.0 41.5Q428 31 429 22Q432 -7 431 -14Q429 -22 427.0 -27.0Q425 -32 424 -33L423 -34H419Q415 -34 413 -29Q413 -27 411.0 -19.5Q409 -12 409 -10Q408 -9 407.0 -7.0Q406 -5 405 -3Q401 12 400 15Q400 16 395 24Q394 26 394 27Q395 27 399 32Q407 42 408 46Q408 47 407.0 49.0Q406 51 404.0 54.5Q402 58 401.5 59.0Q401 60 402 61Q403 63 407 64Q408 65 412 65Q418 65 423 65Q430 64 432 62ZM204 -37Q183 -38 164 -45Q137 -55 131 -56Q122 -56 117.0 -55.5Q112 -55 110 -54L109 -53Q108 -52 108 -50Q107 -46 111 -43Q113 -42 120.0 -38.5Q127 -35 129 -33Q129 -33 130.5 -31.5Q132 -30 134 -28Q148 -20 151 -18Q151 -18 158 -11Q159 -10 160 -10Q161 -10 166 -13Q178 -18 182 -18Q183 -17 185.0 -16.0Q187 -15 189.5 -11.5Q192 -8 193.0 -7.5Q194 -7 195 -8Q198 -9 199 -12Q200 -13 201 -16Q203 -22 204 -27Q205 -34 204 -37ZM180 146Q224 169 250 172Q254 172 255 168L274 116Q276 112 271 110Q235 98 211 86Q207 84 205 87Q182 121 177 141Q177 144 180 146Z" fill="#1c6399" />
<path d="M428 32Q418 36 415 44Q413 49 412 65Q418 65 424 65Q430 64 432 63V62Q432 62 431.5 56.5Q431 51 430.0 43.5Q429 36 428 32ZM174 -41Q176 -30 182 -25Q187 -22 201 -16Q203 -22 204 -28Q206 -34 205 -36L204 -37Q204 -37 202.0 -37.5Q200 -38 196.5 -38.0Q193 -38 189.0 -38.5Q185 -39 181.0 -40.0Q177 -41 174 -41Z" fill="#3b94d9" />
<path d="M399 17Q397 17 396 19Q395 22 398 23L403 25Q405 26 406.0 23.5Q407 21 405 20L400 18Q400 17 399 17ZM402 9Q400 9 399 11Q399 13 401 14L407 16Q409 17 410.0 14.0Q411 11 408 10L403 9Q403 9 402 9ZM405 0Q402 0 402 2Q401 4 404 5L409 6Q412 7 412.5 4.0Q413 1 410 1ZM444 58Q445 55 443 38Q442 28 442 22Q440 -2 439 -5Q438 -15 433 -25Q431 -29 428.5 -31.0Q426 -33 424 -34H423Q425 -31 427 -25Q428 -21 429 -13Q431 -6 430 4Q430 6 429.0 16.0Q428 26 428 30Q427 36 429 51Q429 57 431 59L432 63Q432 64 441 63Q442 63 443 62Q444 60 444 58ZM158 -23Q157 -23 156 -22L153 -18Q151 -16 153.0 -14.0Q155 -12 157 -14L161 -18Q162 -20 160 -22Q160 -23 158 -23ZM150 -29Q149 -29 148 -28L145 -23Q143 -21 145.5 -19.5Q148 -18 150 -20L153 -25Q154 -27 152 -28Q151 -29 150 -29ZM142 -34Q140 -34 139 -32L137 -28Q135 -25 137.5 -24.0Q140 -23 142 -25L144 -30Q145 -32 143 -33Q142 -34 142 -34ZM204 -49Q201 -51 184 -54Q174 -56 168 -57Q144 -61 141 -62Q131 -63 120 -61Q116 -60 113.0 -58.0Q110 -56 110 -55L109 -53Q113 -55 118 -55Q123 -55 131 -54Q138 -54 148 -51Q150 -50 159.0 -46.0Q168 -42 172 -41Q177 -39 192 -37Q198 -36 201 -36L205 -37Q206 -36 207 -45Q208 -46 207 -47Q206 -48 204 -49Z" fill="#ccd6dd" />
<path d="M249 86Q238 134 242 160Q243 164 246 164L301 169Q306 170 307 165Q309 126 315 100Q316 96 312 95Q274 81 254 82Q250 82 249 86Z" fill="#357baa" />
<path d="M231 359Q231 353 237.0 338.0Q243 323 242 312Q242 300 232.5 295.0Q223 290 214.5 295.5Q206 301 207 313Q208 332 203 338Q195 335 184 331Q168 325 155.0 347.0Q142 369 141 394Q140 415 159.5 429.0Q179 443 200 439Q220 436 231.0 418.5Q242 401 239 379Q237 368 231 359Z" fill="#f3d2a2" />
<path d="M151 431Q196 461 230 435Q243 425 247.0 405.0Q251 385 246 372Q244 363 241.5 358.5Q239 354 238 354H236Q235 353 233.0 353.0Q231 353 226.5 353.0Q222 353 218.5 354.5Q215 356 211.5 360.0Q208 364 207 371Q207 374 208.5 378.0Q210 382 210.0 385.5Q210 389 206 394Q201 400 193.5 397.0Q186 394 186 387Q186 382 185.0 380.0Q184 378 183 378H181L165 405Q151 406 144 393Q141 387 136 397Q127 415 151 431Z" fill="#ffe51e" />
<path d="M277 305Q303 249 307 153Q287 153 264.5 154.0Q242 155 230 157L218 159Q214 173 208.0 196.0Q202 219 199.0 230.5Q196 242 193.0 258.5Q190 275 191.0 284.5Q192 294 195.5 304.0Q199 314 207.5 321.0Q216 328 229 333Q258 344 277 305Z" fill="#4289c1" />
<path d="M241 302Q260 291 247 271Q210 217 201.5 207.0Q193 197 175 203Q172 204 144.5 217.5Q117 231 115 232Q113 233 103.5 232.5Q94 232 93 234Q90 239 90 257Q91 264 93.5 265.0Q96 266 106 266Q112 267 115.5 261.0Q119 255 119 254Q125 250 156 243Q160 242 165.5 240.5Q171 239 174.0 238.5Q177 238 180.5 237.5Q184 237 185.5 238.5Q187 240 188 243Q191 267 207 292Q221 314 241 302Z" fill="#f3d2a2" />
</g></svg>