<svg xmlns="http://www.w3.org/2000/svg" viewBox="0 0 512 512">
<g transform="matrix(1 0 0 -1 0 512)">
<path d="M69 318Q79 325 92.0 324.0Q105 323 115 316L101 336Q83 361 110 380Q119 384 132.5 379.5Q146 375 158 368L170 361Q162 373 163.5 386.5Q165 400 177.0 408.5Q189 417 203.5 414.5Q218 412 226 400L374 190L356 7L198 65L60 268Q52 280 54.5 294.5Q57 309 69 318Z" fill="#e0aa94" />
<path d="M38 201Q37 204 34.5 208.5Q32 213 33.5 223.5Q35 234 46 241Q58 248 66.5 246.5Q75 245 80 239L85 234L160 125Q164 131 168 137L65 289Q63 291 61.0 295.5Q59 300 60.5 310.5Q62 321 72 328Q84 335 93.0 333.5Q102 332 107 326L112 321L209 179Q216 184 220 187L107 352Q106 355 104.0 359.5Q102 364 103.0 374.5Q104 385 115 392Q127 399 135.5 397.0Q144 395 149 390L154 384L267 220Q269 221 280 227L174 381Q172 383 170.0 387.5Q168 392 169.5 402.5Q171 413 181 420Q193 427 202.0 425.5Q211 424 216 418L221 413L333 250L350 225Q316 202 300.5 166.0Q285 130 288.5 93.5Q292 57 313 28Q316 22 321.0 21.0Q326 20 329 22L333 24Q296 77 306.5 131.0Q317 185 369 222L349 325Q348 327 348.0 328.5Q348 330 348.0 335.5Q348 341 349.5 345.0Q351 349 356.0 353.5Q361 358 368 361Q380 364 389.0 359.0Q398 354 401 348L403 341L427 270Q445 217 460 187Q489 131 473.0 68.5Q457 6 404 -30Q346 -70 276.5 -57.5Q207 -45 167 14Z" fill="#f7dece" />
<path d="M171 -8Q177 -8 181.0 -11.5Q185 -15 185.0 -21.0Q185 -27 181.0 -31.5Q177 -36 171 -36Q107 -36 67.5 3.5Q28 43 28 107Q28 113 32.5 117.0Q37 121 43.0 121.0Q49 121 52.5 117.0Q56 113 56 107Q56 64 92.0 28.0Q128 -8 171 -8Z" fill="#5dadec" />
<path d="M100 -36Q105 -36 109.5 -40.0Q114 -44 114.0 -50.0Q114 -56 109.5 -60.0Q105 -64 100 -64Q57 -64 28.5 -35.5Q0 -7 0 36Q0 41 4.0 45.5Q8 50 14.0 50.0Q20 50 24.0 45.5Q28 41 28 36Q28 4 48.0 -16.0Q68 -36 100 -36ZM341 420Q404 420 444.0 378.5Q484 337 484 277Q484 271 479.5 267.0Q475 263 469.0 263.0Q463 263 459.0 267.0Q455 271 455 277Q455 323 420.0 357.0Q385 391 341 391Q335 391 331.0 395.0Q327 399 327.0 405.0Q327 411 331.0 415.5Q335 420 341 420Z" fill="#5dadec" />
<path d="M412 447Q455 447 483.0 418.5Q511 390 511 348Q511 342 507.5 338.0Q504 334 498.0 334.0Q492 334 487.5 338.5Q483 343 483 348Q483 378 463.5 398.5Q444 419 412 419Q407 419 402.5 423.5Q398 428 398.0 434.0Q398 440 402.0 443.5Q406 447 412 447Z" fill="#5dadec" />
</g></svg>