<svg xmlns="http://www.w3.org/2000/svg" viewBox="0 0 512 512">
<g transform="matrix(1 0 0 -1 0 512)">
<path d="M459 102Q477 76 459 57L413 8L364 -44Q352 -55 337.0 -54.5Q322 -54 308 -45Q290 -34 274 -32Q273 -32 266.0 -31.5Q259 -31 256 -30Q207 -24 169 11L11 159Q10 159 8.5 160.5Q7 162 4.5 166.5Q2 171 1.0 175.5Q0 180 2.0 186.5Q4 193 9 199Q18 208 28.0 208.5Q38 209 44 205L50 201L147 110Q146 111 149.5 117.5Q153 124 152 124L17 250Q17 251 15.5 252.5Q14 254 11.5 258.5Q9 263 8.0 267.5Q7 272 9.0 278.0Q11 284 16 290Q25 300 35.0 300.0Q45 300 51 296L56 292L183 174Q183 174 187.5 179.5Q192 185 192 185L45 322Q44 322 43.0 323.5Q42 325 39.5 329.5Q37 334 36.0 338.5Q35 343 36.5 349.5Q38 356 44 362Q52 371 62.5 371.5Q73 372 78 368L84 364L231 227Q231 227 236.5 232.0Q242 237 242 236L104 364Q104 365 102.5 366.5Q101 368 98.5 372.5Q96 377 95.0 381.5Q94 386 95.5 392.5Q97 399 103 405Q112 414 122.0 414.5Q132 415 138 410L143 406L289 271Q331 232 341 241L303 278L258 319Q257 320 255.5 321.5Q254 323 251.5 327.5Q249 332 248.0 336.5Q247 341 249.0 347.5Q251 354 256 360Q265 369 275.0 369.5Q285 370 291 365L297 361L403 262Q449 220 453 160Q454 147 453.5 137.5Q453 128 454.0 118.0Q455 108 459 102Z" fill="#583529" />
<path d="M18 -46Q8 -36 18 -26L68 25Q78 35 88.0 25.0Q98 15 88 4L38 -46Q34 -50 28.0 -50.0Q22 -50 18 -46ZM124 -63Q121 -63 119 -62Q106 -58 110 -44L124 -5Q129 8 142.5 3.5Q156 -1 151 -14L137 -54Q134 -63 124 -63ZM15 46Q5 46 1 55Q-3 69 10 73L45 86Q59 91 63.5 77.5Q68 64 55 59L19 47Q17 46 15 46ZM424 360Q414 370 424 380L474 430Q484 440 494.0 430.0Q504 420 494 410L444 360Q440 355 434.0 355.0Q428 355 424 360ZM374 379Q372 379 370 380Q356 385 361 398L375 438Q380 451 393.0 446.5Q406 442 402 428L388 389Q385 379 374 379ZM462 297Q452 297 448 307Q444 320 457 325L493 338Q506 342 510.5 328.5Q515 315 502 311L467 298Q464 297 462 297Z" fill="#fa743e" />
<path d="M503 109Q520 83 501 64L454 17L403 -33Q391 -44 376.0 -42.5Q361 -41 347 -32Q329 -20 314 -18Q313 -18 306.0 -17.5Q299 -17 295 -16Q246 -8 210 29L57 181Q56 182 54.5 183.5Q53 185 51.0 189.5Q49 194 48.0 198.5Q47 203 49.0 209.5Q51 216 57 222Q66 231 76.0 231.0Q86 231 91 226L97 222L191 128Q190 129 194.0 135.5Q198 142 197 142L67 272Q66 273 64.5 274.5Q63 276 60.5 280.5Q58 285 57.5 289.5Q57 294 59.0 300.5Q61 307 67 313Q75 322 85.5 322.0Q96 322 101 317L107 313L230 190Q230 191 234.5 196.0Q239 201 239 201L97 343Q96 344 94.5 345.5Q93 347 91.0 351.5Q89 356 88.0 360.5Q87 365 89.0 371.5Q91 378 97 383Q106 392 116.0 392.0Q126 392 131 388L137 384L279 242Q280 242 285.0 246.5Q290 251 290 251L157 384Q156 384 155.0 385.5Q154 387 151.5 391.5Q149 396 148.5 401.0Q148 406 150.0 412.0Q152 418 157 424Q166 433 176.0 433.0Q186 433 192 429L198 424Q297 325 338 284Q357 266 370.0 258.0Q383 250 386 251L390 253L352 290L309 333Q308 334 307.0 335.5Q306 337 303.5 341.5Q301 346 300.0 350.5Q299 355 301.0 361.5Q303 368 309 374Q318 383 328.0 383.0Q338 383 344 378L349 374L452 272Q496 228 498 167Q499 160 498.5 146.5Q498 133 498.5 124.5Q499 116 503 109Z" fill="#7c533e" />
</g></svg>