<svg xmlns="http://www.w3.org/2000/svg" viewBox="0 0 512 512">
<g transform="matrix(1 0 0 -1 0 512)">
<path d="M156 448Q192 448 217.0 423.0Q242 398 242 363V292Q242 250 212.5 221.0Q183 192 142.0 192.0Q101 192 72.0 221.0Q43 250 43 292V377Q43 400 59.5 417.0Q76 434 100 434Q102 434 108 433Q130 448 156 448Z" fill="#292f33" />
<path d="M159 -40Q161 -25 155.5 -12.0Q150 1 153 12Q152 24 149.5 40.0Q147 56 147 57Q147 66 170.5 67.5Q194 69 194 57Q194 47 184 12Q186 -2 183.0 -14.0Q180 -26 180 -37Q180 -39 183.5 -42.0Q187 -45 189.5 -47.5Q192 -50 190 -51Q186 -53 172.5 -49.5Q159 -46 159 -40ZM125 -40Q125 -46 111.5 -49.5Q98 -53 94 -51Q93 -50 95.0 -47.5Q97 -45 100.5 -42.0Q104 -39 104 -37Q104 -26 101.0 -14.0Q98 -2 100 12Q90 47 90 57Q90 69 114.0 67.5Q138 66 138 57Q138 56 135.0 40.0Q132 24 132 12Q134 1 129.0 -12.0Q124 -25 125 -40Z" fill="#f7dece" />
<path d="M194 57Q194 52 192 43H149Q147 55 147 57Q147 66 170.5 67.5Q194 69 194 57ZM137 57Q137 55 135 43H92Q90 52 90 57Q90 69 113.5 67.5Q137 66 137 57Z" fill="#eec2ad" />
<path d="M46 65Q42 63 38 68Q27 79 34 99Q34 100 39.5 121.0Q45 142 51 156Q51 156 55.0 185.0Q59 214 62 219Q64 224 73.0 228.0Q82 232 88 231Q94 230 90 218Q90 216 89 215Q76 159 75 154Q74 151 63.0 127.5Q52 104 53 93Q53 76 48 76Q47 74 47.0 71.0Q47 68 47.0 66.5Q47 65 46 65ZM259 67Q259 68 258.5 69.5Q258 71 257.5 73.5Q257 76 257 78Q253 78 251.5 82.0Q250 86 250 95Q249 106 235.0 128.0Q221 150 220 152L198 211Q198 212 197 214Q191 225 198 227Q203 229 212.5 226.0Q222 223 225 219Q228 214 236.0 186.0Q244 158 244 158Q251 145 259.0 125.0Q267 105 268 103Q276 84 268 72Q264 66 259 67Z" fill="#f7dece" />
<path d="M198 -64H165Q156 -64 154 -57Q153 -55 154.0 -49.5Q155 -44 156.5 -40.0Q158 -36 160 -36H177Q183 -36 191.5 -45.5Q200 -55 200 -55Q203 -57 202.5 -60.5Q202 -64 198 -64ZM86 -64Q83 -64 82.5 -60.5Q82 -57 85 -55Q85 -55 93.0 -45.5Q101 -36 107 -36H124Q127 -36 129.0 -44.5Q131 -53 130 -57Q128 -64 119 -64Z" fill="#292f33" />
<path d="M204 195Q196 154 196 149Q196 148 200.0 129.5Q204 111 208.5 87.5Q213 64 213 50H71Q71 64 75.5 87.5Q80 111 84.5 129.5Q89 148 89 149L80 195L57 220Q66 232 80.0 239.0Q94 246 104 247L114 249H171Q207 246 228 220Z" fill="#e75a70" />
<path d="M196 149Q196 149 196.0 147.0Q196 145 197.0 141.5Q198 138 199 135H86Q86 138 87.0 141.5Q88 145 88.5 147.0Q89 149 89 149Q89 151 87 164H198Q196 151 196 149Z" fill="#da2f47" />
<path d="M114 292H171V235Q171 223 162.5 214.5Q154 206 142.0 206.0Q130 206 122.0 214.5Q114 223 114 235Z" fill="#f7dece" />
<path d="M114 255V267H171V255Q160 243 142.5 243.0Q125 243 114 255Z" fill="#eec2ad" />
<path d="M213 405V320Q213 291 192.5 270.0Q172 249 142.5 249.0Q113 249 92.0 270.0Q71 291 71 320V405ZM258 67Q253 66 249 72Q241 84 249 103Q251 108 254.5 117.0Q258 126 262.5 136.5Q267 147 273 158Q274 159 276.0 169.5Q278 180 282.0 195.0Q286 210 291 220Q293 224 303.5 226.5Q314 229 320 227Q322 226 322.5 224.0Q323 222 322.0 219.5Q321 217 320.0 214.0Q319 211 319 211Q313 181 298 148Q294 137 282.0 121.5Q270 106 269 96Q267 77 260 78Q260 76 259.5 73.5Q259 71 258.5 69.5Q258 68 258 67ZM465 65Q465 65 464.5 66.5Q464 68 464.0 71.0Q464 74 464 76Q457 76 458 94Q458 104 448.5 121.5Q439 139 435 150Q426 184 423 215Q423 215 422.5 218.0Q422 221 421.5 223.5Q421 226 421.5 228.5Q422 231 425 231Q431 232 441.0 228.0Q451 224 452 220Q455 209 457.5 194.0Q460 179 460.5 168.0Q461 157 462 156Q466 144 469.5 133.5Q473 123 475.0 113.0Q477 103 478 99Q484 79 474 68Q469 62 465 65Z" fill="#f7dece" />
<path d="M213 420 228 348Q196 348 172.5 354.0Q149 360 138.0 368.5Q127 377 121.0 385.5Q115 394 114 399V405Q114 403 113.5 399.0Q113 395 110.0 385.5Q107 376 101.5 368.5Q96 361 84.5 354.5Q73 348 57 348L71 420ZM377 448Q409 448 432.0 425.0Q455 402 455.0 369.5Q455 337 432.0 314.5Q409 292 377 292Q337 292 313 324Q303 328 296.5 334.5Q290 341 288.0 350.5Q286 360 285.0 366.5Q284 373 284 384Q284 404 298.0 418.0Q312 432 332 434Q352 448 377 448Z" fill="#292f33" />
<path d="M171 277Q171 276 170.0 273.5Q169 271 162.0 267.0Q155 263 142.5 263.0Q130 263 122.5 266.5Q115 270 115 274L114 277Z" fill="#df1f32" />
<path d="M107.0 320.0Q100 320 100.0 327.0Q100 334 107.0 334.0Q114 334 114.0 327.0Q114 320 107.0 320.0ZM178.0 320.0Q171 320 171.0 327.0Q171 334 178.0 334.0Q185 334 185.0 327.0Q185 320 178.0 320.0Z" fill="#662113" />
<path d="M128 306H156Q156 292 142 292Q136 292 132.5 295.5Q129 299 128 302Z" fill="#c1694f" />
<path d="M420 28Q419 22 419.0 -1.0Q419 -24 422 -50Q422 -53 412.0 -55.5Q402 -58 391.5 -56.5Q381 -55 381 -48Q382 -36 381.0 -23.5Q380 -11 378.5 0.5Q377 12 377 16Q377 19 375.0 35.0Q373 51 372 62Q372 62 370.0 62.0Q368 62 368 62Q367 51 365.0 35.0Q363 19 363 16Q362 12 360.5 0.5Q359 -11 358.0 -23.5Q357 -36 358 -48Q358 -55 348.0 -56.5Q338 -58 327.5 -55.5Q317 -53 318 -50Q320 -24 320.0 -1.0Q320 22 319 28Q316 46 314.5 69.0Q313 92 313 106V121H426Q427 67 420 28Z" fill="#aab8c2" />
<path d="M434 -64H380Q378 -56 381 -49Q385 -39 414 -44Q424 -46 430.0 -49.5Q436 -53 436.5 -57.0Q437 -61 434 -64ZM305 -64Q302 -61 302.5 -57.0Q303 -53 309.5 -49.5Q316 -46 325 -44Q354 -39 358 -49Q360 -52 360.0 -56.0Q360 -60 360 -62L359 -64Z" fill="#292f33" />
<path d="M438 238Q443 235 447.0 229.5Q451 224 453.5 218.5Q456 213 458.0 207.5Q460 202 461.0 198.5Q462 195 462 195L430 186L429 107H311L309 186L278 195Q285 227 302 238Q309 243 319.0 245.5Q329 248 335 249H341H398Q421 249 438 238Z" fill="#4289c1" />
<path d="M341 305H398V248Q398 241 389.5 235.5Q381 230 369.5 230.0Q358 230 349.5 235.5Q341 241 341 248Z" fill="#f7dece" />
<path d="M341 255V267H398V255Q387 243 369.5 243.0Q352 243 341 255Z" fill="#eec2ad" />
<path d="M441 405V320Q441 291 420.0 270.0Q399 249 369.5 249.0Q340 249 319.5 270.0Q299 291 299 320V405Z" fill="#f7dece" />
<path d="M299 412H441L448 377L441 348Q410 348 388.5 353.5Q367 359 357.5 367.5Q348 376 344.5 383.5Q341 391 341 398Q336 348 299 348L292 377Z" fill="#292f33" />
<path d="M398 277Q398 276 397.5 273.5Q397 271 389.5 267.0Q382 263 369.5 263.0Q357 263 350.0 266.5Q343 270 342 274L341 277ZM356 306H384Q384 304 383.5 301.5Q383 299 379.5 295.5Q376 292 369.5 292.0Q363 292 359.5 295.5Q356 299 356 302Z" fill="#c1694f" />
<path d="M334.0 320.0Q327 320 327.0 327.0Q327 334 334.0 334.0Q341 334 341.0 327.0Q341 320 334.0 320.0ZM405.0 320.0Q398 320 398.0 327.0Q398 334 405.0 334.0Q412 334 412.0 327.0Q412 320 405.0 320.0Z" fill="#662113" />
</g></svg>