<svg xmlns="http://www.w3.org/2000/svg" viewBox="0 0 2048 2048">
<g transform="matrix(1 0 0 -1 0 2048)">
<path d="M398 21Q397 23 396 27Q395 30 395.0 35.5Q395 41 395 42Q396 44 398 44Q398 44 401.5 43.5Q405 43 407.5 42.5Q410 42 414 43Q418 44 421.5 47.0Q425 50 426 53L427 55Q433 54 438 52Q441 51 446.5 49.5Q452 48 454 47Q459 46 466 46Q467 47 469.0 47.0Q471 47 472.0 47.5Q473 48 474 48Q483 50 484 44L485 41Q472 32 453 27Q443 24 433.0 24.5Q423 25 418 24L398 21Z" fill="#292f33" />
<path d="M426 16Q426 15 414.5 13.0Q403 11 402 11Q400 11 399 13Q399 13 397 22Q405 22 408 23Q418 26 432 25Q444 25 455 28Q467 31 477 37Q482 40 485 42Q485 42 487 40Q487 39 487 38Q484 36 477 32Q464 25 456 23Q448 21 440 21Q429 20 428 20Q427 19 426.5 17.5Q426 16 426.0 16.0Q426 16 426 16Z" fill="#292f33" />
<path d="M173 203Q173 203 173 203Q174 208 180.5 210.0Q187 212 196.5 211.0Q206 210 215.5 208.0Q225 206 235.0 204.5Q245 203 249 203Q251 203 271.5 204.0Q292 205 306.5 204.5Q321 204 327 200Q341 194 346.5 182.5Q352 171 348 161Q340 141 312 136Q304 135 293.5 133.5Q283 132 276 131Q252 127 246 127Q237 127 237 127Q236 127 236.5 128.5Q237 130 238.5 132.5Q240 135 240 137Q242 142 240.0 146.5Q238 151 236.5 152.5Q235 154 234 155Q234 155 227 154Q219 153 208.0 153.5Q197 154 191 156Q180 160 175.5 173.5Q171 187 173 203Z" fill="#4289c1" />
<path d="M416 40Q416 40 416 40Q399 38 394 39Q390 56 378.0 86.5Q366 117 362 133Q357 138 353.0 141.0Q349 144 343.0 146.0Q337 148 334.0 149.0Q331 150 323.0 151.0Q315 152 312.5 152.0Q310 152 299.0 152.0Q288 152 284 152Q268 153 254.0 163.5Q240 174 247 183Q253 189 250.0 193.5Q247 198 250.0 201.0Q253 204 268 205Q268 205 350 205Q380 204 393 161Q393 161 399 140Q405 120 416.5 93.0Q428 66 437 53Q428 42 416 40Z" fill="#4289c1" />
<path d="M201 436Q216 444 236.0 437.0Q256 430 260 413Q265 396 260.0 374.0Q255 352 240 352Q196 354 184 378Q176 395 181.0 411.5Q186 428 201 436Z" fill="#f3d2a2" />
<path d="M191 373Q178 389 186.5 396.5Q195 404 213 406L231 408Q237 408 238.5 402.0Q240 396 240.5 386.5Q241 377 244 373Q246 369 243.0 365.5Q240 362 235 360L231 359Q230 359 228.5 358.5Q227 358 224.5 355.0Q222 352 222.5 347.5Q223 343 225 338Q231 322 216 315Q203 308 198 323Q195 332 196 345V346Q198 365 191 373Z" fill="#f3d2a2" />
<path d="M178 425Q199 454 243 441Q266 433 263 418Q262 410 257 412Q234 424 219 396Q216 402 209.5 402.5Q203 403 202 396Q201 389 206.0 383.0Q211 377 210 376Q208 370 203.5 365.5Q199 361 196 360L193 358Q189 356 180 370Q173 382 171.5 396.5Q170 411 178 425Z" fill="#ffe51e" />
<path d="M186 410Q173 408 169.0 398.0Q165 388 166.5 377.5Q168 367 167 359Q165 351 160.0 346.0Q155 341 150 340L146 339Q147 340 148.0 342.0Q149 344 150.5 350.0Q152 356 151 362Q150 369 145.5 380.0Q141 391 140.5 396.5Q140 402 145 414Q159 431 183 419Q194 413 186 410Z" fill="#ffe51e" />
<path d="M166 208Q166 208 166 208Q166 216 165.0 241.5Q164 267 165 283Q165 289 161.0 296.0Q157 303 159.5 309.0Q162 315 176 327Q188 346 206 344Q225 342 248 306Q256 294 257.0 281.5Q258 269 253 263Q247 256 243.5 248.5Q240 241 240.0 233.0Q240 225 240.0 220.0Q240 215 242.0 206.0Q244 197 244 195Q244 195 238 192Q231 189 218.0 184.5Q205 180 193 177Q165 171 166 175Q166 181 166.0 183.0Q166 185 166.0 193.0Q166 201 166 208Z" fill="#9268ca" />
<path d="M192 63Q185 63 185 70Q186 77 192 77Q192 77 193 77Q193 77 231 73Q270 70 308.5 66.5Q347 63 347 63Q353 63 353 56Q353 49 346 49Q346 49 345 49Q345 49 192 63Z" fill="#dd2e44" />
<path d="M345 49Q339 50 339 56Q339 57 339 57L345 128Q346 134 352 134Q353 134 353 134Q359 134 359 127L353 56Q353 49 346 49Q346 49 345 49ZM193 157Q193 157 193 157Q199 156 199 150Q199 150 199 149Q199 149 196 108Q192 67 188.5 25.5Q185 -16 185 -16Q184 -22 178 -22Q177 -22 177 -22Q171 -22 171 -15Q171 -15 171 -14Q171 -14 174 27Q178 68 181.5 109.5Q185 151 185 151Q186 157 192 157Q192 157 193 157Z" fill="#dd2e44" />
<path d="M177 155Q177 155 177 155Q186 154 196 144Q214 125 193 123Q163 120 144 147Q143 149 143 150Q140 161 177 155Z" fill="#292f33" />
<path d="M193 123Q182 122 180.0 123.5Q178 125 177 136Q177 137 177 137Q177 150 190 151Q190 151 332 164H333Q346 164 347 151Q348 140 346.5 138.0Q345 136 334 136Q334 136 193 123ZM124 314Q123 324 124.5 326.0Q126 328 137 329Q137 329 138 329Q151 329 152 316Q152 316 165 174Q165 168 161.5 163.5Q158 159 152 159Q141 158 139.0 159.5Q137 161 136 172Q136 172 124 314Z" fill="#292f33" />
<path d="M185 119Q178 119 178 125Q178 126 178 126Q178 133 184 133Q184 133 340 147H341Q347 147 348 140Q348 133 341 133Q341 133 185 119ZM118 320V321Q118 327 124 328Q125 328 125 328Q131 328 132 321Q132 321 146 165Q146 158 139 158Q132 158 131 164Q131 164 118 320Z" fill="#dd2e44" />
<path d="M162 185Q154 184 152.5 185.0Q151 186 150 194Q150 195 150 195Q150 205 160 206Q160 206 267 215H268Q278 215 279 206Q280 198 278.5 196.5Q277 195 269 194Q269 194 162 185Z" fill="#292f33" />
<path d="M191 134Q205 135 210.5 132.0Q216 129 211.0 125.0Q206 121 192 120Q136 115 131 171Q129 191 132.0 200.0Q135 209 139.0 201.0Q143 193 145 173Q146 158 151.5 148.5Q157 139 164.0 136.5Q171 134 178.5 133.0Q186 132 191 134ZM340 147Q340 147 340 147Q350 148 354.5 144.0Q359 140 362 130Q369 103 377 73Q379 63 372.5 60.5Q366 58 363 70Q360 82 355.5 98.0Q351 114 351 117Q348 126 345.5 129.5Q343 133 334 132Q314 130 316 137Q317 145 340 147Z" fill="#dd2e44" />
<path d="M333.5 42.0Q327 48 327.0 57.0Q327 66 333.5 72.0Q340 78 348.5 78.0Q357 78 363.5 72.0Q370 66 370.0 57.0Q370 48 363.5 42.0Q357 36 348.5 36.0Q340 36 333.5 42.0Z" fill="#66757f" />
<path d="M444 10 437 -3 351 47 301 -39 289 -32 339 54 253 104 260 116 346 67 396 153 408 146 358 59Z" fill="#66757f" />
<path d="M383 -44 369 -48 343 48 247 22 244 36 340 62 314 158 328 162 353 66 450 91 453 78 357 52Z" fill="#66757f" />
<path d="M78.5 142.5Q114 178 164.0 178.0Q214 178 249.0 142.5Q284 107 284.0 57.0Q284 7 249.0 -28.5Q214 -64 164.0 -64.0Q114 -64 78.5 -28.5Q43 7 43.0 57.0Q43 107 78.5 142.5ZM164 -36Q202 -36 229.0 -8.5Q256 19 256.0 57.0Q256 95 229.0 122.0Q202 149 163.5 149.0Q125 149 98.0 122.0Q71 95 71.0 57.0Q71 19 98.0 -8.5Q125 -36 164 -36Z" fill="#292f33" />
<path d="M88.0 132.5Q119 164 163.5 164.0Q208 164 239.0 132.5Q270 101 270.0 57.0Q270 13 239.0 -18.5Q208 -50 163.5 -50.0Q119 -50 88.0 -18.5Q57 13 57.0 57.0Q57 101 88.0 132.5ZM98.0 -8.5Q125 -36 163.5 -36.0Q202 -36 229.0 -8.5Q256 19 256.0 57.0Q256 95 229.0 122.0Q202 149 163.5 149.0Q125 149 98.0 122.0Q71 95 71.0 57.0Q71 19 98.0 -8.5ZM294 -29 325 -12 307 19 319 26 337 -5 368 13 375 1 344 -17 362 -48 349 -55 332 -24 301 -42Z" fill="#66757f" />
<path d="M299.0 21.0Q314 36 334.5 36.0Q355 36 369.5 21.0Q384 6 384.0 -14.5Q384 -35 369.5 -49.5Q355 -64 334.5 -64.0Q314 -64 299.0 -49.5Q284 -35 284.0 -14.5Q284 6 299.0 21.0ZM334 -50Q349 -50 359.5 -39.5Q370 -29 370.0 -14.5Q370 0 359.5 10.5Q349 21 334.5 21.0Q320 21 309.5 10.5Q299 0 299.0 -14.5Q299 -29 309.5 -39.5Q320 -50 334 -50Z" fill="#292f33" />
<path d="M366 87Q367 88 368 88Q373 88 374 82Q374 82 379.5 61.5Q385 41 391 20L396 0Q397 -1 397 -2Q397 -9 390 -9Q384 -9 383 -4Q383 -4 377.5 16.5Q372 37 366 58L361 79Q360 79 360 80Q360 86 366 87ZM84 306H83Q76 306 76 313Q76 319 81 320Q81 320 123 328Q124 328 125 328Q131 328 132 322Q132 321 132 321Q132 315 126 314Q126 314 84 306Z" fill="#dd2e44" />
<path d="M391 -9H390Q383 -9 383 -2Q383 3 388 5Q388 5 443 20Q444 20 445 20Q450 20 451 15Q452 14 452 13Q452 7 446 6Q446 6 391 -9Z" fill="#66757f" />
<path d="M70 304H69Q62 304 62 311Q62 316 67 318Q67 318 105 324Q109 325 110.0 318.0Q111 311 107 310Q107 310 70 304Z" fill="#292f33" />
<path d="M190 293Q184 287 172.0 278.0Q160 269 152.5 262.5Q145 256 145 255Q147 244 144.0 223.5Q141 203 142 196Q143 192 148.0 185.0Q153 178 153 175Q149 175 147.5 171.0Q146 167 145.5 160.5Q145 154 143 151Q141 148 137.0 148.5Q133 149 129.5 154.0Q126 159 125 164Q125 165 126 189Q126 190 119.5 223.5Q113 257 121 267Q129 285 166 320Q170 318 176.0 311.0Q182 304 186 298L190 293Z" fill="#f3d2a2" />
</g></svg>