<svg xmlns="http://www.w3.org/2000/svg" viewBox="0 0 512 512">
<g transform="matrix(1 0 0 -1 0 512)">
<path d="M75.0 203.5Q85 187 85.0 163.5Q85 140 75.0 123.5Q65 107 50.0 107.0Q35 107 24.5 123.5Q14 140 14.0 163.5Q14 187 24.5 203.5Q35 220 50.0 220.0Q65 220 75.0 203.5ZM487.5 203.5Q498 187 498.0 163.5Q498 140 487.5 123.5Q477 107 462.0 107.0Q447 107 437.0 123.5Q427 140 427.0 163.5Q427 187 437.0 203.5Q447 220 462.0 220.0Q477 220 487.5 203.5Z" fill="#7c533e" />
<path d="M57 156Q57 247 115.5 311.0Q174 375 256.0 375.0Q338 375 396.5 311.0Q455 247 455 156Q455 66 397.5 8.0Q340 -50 256.0 -50.0Q172 -50 114.5 8.0Q57 66 57 156Z" fill="#7c533e" />
<path d="M156 149V178Q156 184 160.5 188.0Q165 192 171.0 192.0Q177 192 181.0 188.0Q185 184 185 178V149Q185 143 181.0 139.0Q177 135 171.0 135.0Q165 135 160.5 139.0Q156 143 156 149ZM327 149V178Q327 184 331.0 188.0Q335 192 341.0 192.0Q347 192 351.5 188.0Q356 184 356 178V149Q356 143 351.5 139.0Q347 135 341.0 135.0Q335 135 331.0 139.0Q327 143 327 149Z" fill="#000000" />
<path d="M256 21Q196 21 164 37Q152 43 158.0 56.0Q164 69 177 63Q204 50 256.0 50.0Q308 50 335 63Q348 69 354.0 56.0Q360 43 348 37Q316 21 256 21ZM270 92H242Q236 92 232.0 96.5Q228 101 228.0 107.0Q228 113 232.0 117.0Q236 121 242 121H270Q276 121 280.0 117.0Q284 113 284.0 107.0Q284 101 280.0 96.5Q276 92 270 92Z" fill="#3d2e24" />
<path d="M256 443Q309 443 351.5 427.5Q394 412 418.5 387.0Q443 362 456.0 333.0Q469 304 469 274Q469 208 448 192Q439 185 436 198Q432 219 422.5 236.5Q413 254 403.0 264.0Q393 274 384.0 280.5Q375 287 369 289L363 292Q299 244 290 282Q289 290 289 290Q198 244 194 283Q195 292 195 292Q180 278 158.5 270.0Q137 262 123 260L108 259L75 198Q61 171 50 202Q43 226 43 274Q43 337 103.0 390.0Q163 443 256 443Z" fill="#0b0200" />
</g></svg>