<svg xmlns="http://www.w3.org/2000/svg" viewBox="0 0 2048 2048">
<g transform="matrix(1 0 0 -1 0 2048)">
<path d="M429 332 218 121Q208 151 228 171L409 352Z" fill="#9aaab4" />
<path d="M382.0 307.5Q388 331 409.0 352.0Q430 373 453.5 379.0Q477 385 489.5 372.5Q502 360 496.0 336.5Q490 313 469.0 292.0Q448 271 424.5 265.0Q401 259 388.5 271.5Q376 284 382.0 307.5ZM453.5 350.5Q442 345 429.5 332.5Q417 320 411.0 308.0Q405 296 409.0 292.0Q413 288 425.0 293.5Q437 299 449.5 311.5Q462 324 467.5 336.0Q473 348 469.0 352.0Q465 356 453.5 350.5Z" fill="#67757f" />
<path d="M279 286Q280 285 279.0 277.0Q278 269 280.5 253.0Q283 237 287.0 220.5Q291 204 301.5 186.5Q312 169 327 157Q325 158 316.0 157.0Q307 156 289.0 163.0Q271 170 258 184Q243 153 219 134L0 277V395Q28 414 56 415Q68 430 108.5 434.0Q149 438 169 430Q224 412 252.5 375.0Q281 338 279 286Z" fill="#292f33" />
<path d="M293 31Q299 19 299 7V-64H0V64H242Q278 64 293 31Z" fill="#fa743e" />
<path d="M228 -7H242V-64H228Z" fill="#dd551f" />
<path d="M226 282Q242 260 242 206Q242 167 219 134Q195 100 156 86V50Q156 32 143.5 19.5Q131 7 113.5 7.0Q96 7 83.5 19.5Q71 32 71 50V86Q23 103 0 148V282Q9 296 20 303Q36 313 46.0 324.0Q56 335 58 342L59 348Q67 331 91 316Q104 308 139.5 300.5Q175 293 193 273Q200 265 199 273Q199 275 198 280Q197 287 190.5 296.5Q184 306 177 309Q209 305 226 282Z" fill="#f7dece" />
<path d="M171 135Q169 132 165.5 127.0Q162 122 147.5 114.5Q133 107 114.0 107.0Q95 107 80.5 114.0Q66 121 62 128L57 135ZM128 171H100Q92 171 92.0 178.0Q92 185 100 185H128Q135 185 135.0 178.0Q135 171 128 171Z" fill="#c1694f" />
<path d="M43 235V249Q43 255 47.0 259.0Q51 263 57.0 263.0Q63 263 67.0 259.0Q71 255 71 249V235Q71 229 67.0 224.5Q63 220 57.0 220.0Q51 220 47.0 224.5Q43 229 43 235ZM156 235V249Q156 255 160.5 259.0Q165 263 171.0 263.0Q177 263 181.0 259.0Q185 255 185 249V235Q185 229 181.0 224.5Q177 220 171.0 220.0Q165 220 160.5 224.5Q156 229 156 235Z" fill="#662113" />
<path d="M341 363H370V107Q370 94 363.0 83.5Q356 73 348 68L341 64Z" fill="#9aaab4" />
<path d="M345.5 267.0Q341 271 341.0 277.0Q341 283 345.5 287.5Q350 292 355.5 292.0Q361 292 365.5 287.5Q370 283 370.0 277.0Q370 271 365.5 267.0Q361 263 355.5 263.0Q350 263 345.5 267.0ZM296.5 413.0Q309 434 327.0 434.0Q345 434 357.5 413.0Q370 392 370.0 362.5Q370 333 357.5 312.5Q345 292 327.0 292.0Q309 292 296.5 312.5Q284 333 284.0 362.5Q284 392 296.5 413.0ZM317.0 332.5Q321 320 327.0 320.0Q333 320 337.0 332.5Q341 345 341.0 362.5Q341 380 337.0 392.5Q333 405 327.0 405.0Q321 405 317.0 392.5Q313 380 313.0 362.5Q313 345 317.0 332.5Z" fill="#67757f" />
</g></svg>