<svg xmlns="http://www.w3.org/2000/svg" viewBox="0 0 512 512">
<g transform="matrix(1 0 0 -1 0 512)">
<path d="M512 -64H114V-36Q114 0 139.0 25.0Q164 50 199 50H427Q462 50 487.0 25.0Q512 0 512 -36Z" fill="#e1e8ed" />
<path d="M424 48Q424 49 434.0 48.5Q444 48 444 48V34Q442 10 406.0 -2.0Q370 -14 313 -14Q256 -14 219.5 -2.0Q183 10 182 34V48L192 50H202Q202 50 202 48Q202 33 234.5 23.0Q267 13 313.0 13.0Q359 13 391.5 23.5Q424 34 424 48Z" fill="#ea596e" />
<path d="M313 98Q313 98 313 98Q367 98 405.5 83.5Q444 69 444.0 49.0Q444 29 405.5 14.5Q367 0 313.0 0.0Q259 0 220.5 14.5Q182 29 182.0 49.0Q182 69 220.5 83.5Q259 98 313 98Z" fill="#be1931" />
<path d="M313 14Q267 14 234.5 24.0Q202 34 202.0 48.5Q202 63 234.5 73.5Q267 84 313.0 84.0Q359 84 391.5 73.5Q424 63 424.0 48.5Q424 34 391.5 24.0Q359 14 313 14Z" fill="#292f33" />
<path d="M251 51V105H375V51Q345 29 312.5 29.0Q280 29 251 51ZM213.0 248.0Q220 237 220.0 221.5Q220 206 213.0 195.0Q206 184 196.5 184.0Q187 184 180.0 195.0Q173 206 173.0 221.5Q173 237 180.0 248.0Q187 259 196.5 259.0Q206 259 213.0 248.0ZM453 221Q453 206 446.0 195.0Q439 184 429.5 184.0Q420 184 413.0 195.0Q406 206 406.0 221.5Q406 237 413.0 248.0Q420 259 429.5 259.0Q439 259 446.0 248.0Q453 237 453 221Z" fill="#f3d2a2" />
<path d="M251 79V128H375V79Q353 54 313.0 54.0Q273 54 251 79Z" fill="#e2c196" />
<path d="M192 207Q192 266 227.5 308.5Q263 351 313.0 351.0Q363 351 398.5 308.5Q434 266 434.0 206.5Q434 147 398.5 105.0Q363 63 313.0 63.0Q263 63 227.5 105.0Q192 147 192 207Z" fill="#f3d2a2" />
<path d="M313 109Q272 109 260 122Q253 128 260 135Q266 141 273 135Q282 128 313 128Q345 128 353 135Q360 141 366.5 134.5Q373 128 366 122Q354 109 313 109ZM324 167H302Q298 167 295.0 170.0Q292 173 292.0 177.5Q292 182 295.0 185.0Q298 188 302 188H324Q328 188 331.0 185.0Q334 182 334.0 177.5Q334 173 331.0 170.0Q328 167 324 167Z" fill="#c1694f" />
<path d="M313 399Q370 399 406.5 364.5Q443 330 443 290Q443 231 431 233Q427 233 423 240L403 280Q343 280 323 300Q323 300 330 279Q332 261 293 300Q293 300 292 288Q285 275 243 310Q239 307 234.0 302.5Q229 298 218.0 280.0Q207 262 202 240Q200 229 193 239Q182 254 182 290Q182 332 216.0 365.5Q250 399 313 399Z" fill="#ffe51e" />
<path d="M242 220V235Q242 241 246.0 245.0Q250 249 256.0 249.0Q262 249 266.0 245.0Q270 241 270 235V220Q270 215 266.0 210.5Q262 206 256.0 206.0Q250 206 246.0 210.5Q242 215 242 220ZM370 206Q364 206 360.0 210.5Q356 215 356 220V235Q356 241 360.0 245.0Q364 249 370.0 249.0Q376 249 380.0 245.0Q384 241 384 235V220Q384 215 380.0 210.5Q376 206 370 206Z" fill="#662113" />
<path d="M469 -21H511Q512 -29 512 -36V-64H469Z" fill="#55acee" />
<path d="M484 -36H512V-64H484Z" fill="#ffcc4d" />
<path d="M341 -64H4Q17 -9 64.0 27.5Q111 64 172.5 64.0Q234 64 281.0 27.5Q328 -9 341 -64Z" fill="#e1e8ed" />
<path d="M322 -64H23Q36 -16 77.5 15.5Q119 47 172.5 47.0Q226 47 268.0 15.5Q310 -16 322 -64Z" fill="#292f33" />
<path d="M308 -64H38Q50 -22 87.5 5.5Q125 33 173.0 33.0Q221 33 258.0 5.5Q295 -22 308 -64Z" fill="#ffac33" />
<path d="M259 -50Q245 -59 234 -48Q221 -34 202 -27Q187 -21 190 -4Q192 5 200.0 9.5Q208 14 217 11Q231 7 242 -1Q254 -8 265 -19Q271 -25 269.5 -35.0Q268 -45 260 -50Q260 -50 259 -50Z" fill="#ffdc5d" />
<path d="M90 245Q96 243 96.0 236.5Q96 230 90 227Q90 227 68 219L60 185Q58 178 50.5 178.0Q43 178 41 185Q41 185 33 219L11 227Q5 230 5.0 236.5Q5 243 11 245Q11 245 33 253L41 285Q43 292 50.5 292.0Q58 292 60 285Q60 285 68 253Z" fill="#9266cc" />
<path d="M160 382Q171 378 171.0 367.0Q171 356 160 353Q160 353 123 339L110 302Q106 292 95.0 292.0Q84 292 80 302Q80 302 66 339L29 353Q19 356 19.0 367.0Q19 378 29 382Q29 382 66 396L80 433Q84 443 95.0 443.0Q106 443 110 433Q110 433 123 396Z" fill="#5dadec" />
</g></svg>