<svg xmlns="http://www.w3.org/2000/svg" viewBox="0 0 512 512">
<g transform="matrix(1 0 0 -1 0 512)">
<path d="M441 -64H71V0Q71 34 103.0 56.0Q135 78 172 78H343Q381 78 411.0 56.0Q441 34 441 0Z" fill="#3b88c3" />
<path d="M255 391Q275 391 294.0 387.5Q313 384 335.0 373.0Q357 362 373.0 345.5Q389 329 400.0 300.5Q411 272 411 236Q411 134 406.5 107.0Q402 80 382 80Q371 80 329.5 94.5Q288 109 255.0 109.0Q222 109 181.0 94.5Q140 80 129 80Q99 80 99 226Q99 233 99 236Q100 272 110.5 300.5Q121 329 137.5 345.5Q154 362 175.5 373.0Q197 384 216.5 387.5Q236 391 255 391Z" fill="#0b0200" />
<path d="M149 -14H121Q121 34 143.0 70.5Q165 107 206 107V78Q185 78 171.5 61.0Q158 44 153.5 24.5Q149 5 149 -14ZM377 43H348Q348 47 345.5 54.5Q343 62 332.5 70.0Q322 78 306 78V107Q340 107 358.5 85.5Q377 64 377 43Z" fill="#292f33" />
<path d="M104.5 -44.5Q92 -32 92.0 -14.5Q92 3 104.5 15.5Q117 28 135.0 28.0Q153 28 165.5 15.5Q178 3 178.0 -14.5Q178 -32 165.5 -44.5Q153 -57 135.0 -57.0Q117 -57 104.5 -44.5Z" fill="#ccd6dd" />
<path d="M115.0 -34.5Q107 -26 107.0 -14.0Q107 -2 115.0 6.0Q123 14 135.0 14.0Q147 14 155.5 6.0Q164 -2 164.0 -14.0Q164 -26 155.5 -34.5Q147 -43 135.0 -43.0Q123 -43 115.0 -34.5Z" fill="#f5f8fa" />
<path d="M420 -36H391Q391 -28 390.0 -19.0Q389 -10 386.5 4.0Q384 18 377.0 27.0Q370 36 359.5 36.0Q349 36 341.5 27.0Q334 18 331.5 4.0Q329 -10 328.0 -19.0Q327 -28 327 -36H299Q299 11 315.0 37.5Q331 64 359.0 64.0Q387 64 403.5 37.5Q420 11 420 -36Z" fill="#292f33" />
<path d="M303.0 -45.5Q299 -41 299.0 -35.5Q299 -30 303.0 -25.5Q307 -21 313.0 -21.0Q319 -21 323.0 -25.5Q327 -30 327.0 -35.5Q327 -41 323.0 -45.5Q319 -50 313.0 -50.0Q307 -50 303.0 -45.5ZM395.0 -45.5Q391 -41 391.0 -35.5Q391 -30 395.0 -25.5Q399 -21 405.0 -21.0Q411 -21 415.5 -25.5Q420 -30 420.0 -35.5Q420 -41 415.5 -45.5Q411 -50 405.0 -50.0Q399 -50 395.0 -45.5Z" fill="#ccd6dd" />
<path d="M206 129H306V78L256 7L206 78Z" fill="#7c533e" />
<path d="M206 107V148H306V107Q287 85 256 85Q225 85 206 107Z" fill="#664131" />
<path d="M138 240Q138 302 172.5 346.0Q207 390 255.5 390.0Q304 390 338.0 346.0Q372 302 372 240Q372 178 338.0 136.0Q304 94 255.5 94.0Q207 94 172.5 136.0Q138 178 138 240Z" fill="#7c533e" />
<path d="M255 129Q232 129 219 141Q212 148 219.0 155.0Q226 162 233 155Q240 148 255.0 148.0Q270 148 278 155Q285 162 291.5 155.0Q298 148 291 141Q279 129 255 129Z" fill="#df1f32" />
<path d="M110 193H100Q100 201 100 240Q100 284 115.5 319.5Q131 355 155.5 374.0Q180 393 206.0 402.5Q232 412 255.5 412.0Q279 412 304.5 402.5Q330 393 354.5 373.5Q379 354 395.0 319.0Q411 284 411 239Q411 222 411 193H401V200Q401 216 396.5 219.0Q392 222 386.5 217.0Q381 212 376.5 212.5Q372 213 372 226Q372 254 349.0 269.5Q326 285 294 285Q277 285 255.0 292.0Q233 299 220 307L207 314Q187 295 177 285Q172 280 163.5 273.0Q155 266 150.5 262.0Q146 258 142.0 249.0Q138 240 138 228Q138 216 133.5 215.5Q129 215 123.5 219.0Q118 223 113.5 219.5Q109 216 109 200Q110 202 110 199Q110 198 110 193Z" fill="#0b0200" />
<path d="M196 221V233Q196 238 199.5 241.5Q203 245 208.0 245.0Q213 245 216.5 241.5Q220 238 220 233V221Q220 216 216.5 212.5Q213 209 208.0 209.0Q203 209 199.5 212.5Q196 216 196 221ZM304 209Q299 209 295.5 212.5Q292 216 292 221V233Q292 238 295.5 241.5Q299 245 304.0 245.0Q309 245 312.5 241.5Q316 238 316 233V221Q316 216 312.5 212.5Q309 209 304 209Z" fill="#000000" />
<path d="M268 172H244Q238 172 238 178V180Q238 186 244 186H268Q274 186 274 180V178Q274 172 268 172Z" fill="#3d2e24" />
<path d="M156.0 263.0Q163 252 163.0 236.5Q163 221 156.0 210.5Q149 200 139.5 200.0Q130 200 123.0 210.5Q116 221 116.0 236.5Q116 252 123.0 263.0Q130 274 139.5 274.0Q149 274 156.0 263.0ZM396 237Q396 221 389.0 210.5Q382 200 372.5 200.0Q363 200 356.0 210.5Q349 221 349.0 236.5Q349 252 356.0 263.0Q363 274 372.5 274.0Q382 274 389.0 263.0Q396 252 396 237Z" fill="#7c533e" />
</g></svg>