<svg xmlns="http://www.w3.org/2000/svg" viewBox="0 0 2048 2048">
<g transform="matrix(1 0 0 -1 0 2048)">
<path d="M339 172 467 1 455 -8 328 163Z" fill="#ccd6dd" />
<path d="M467 1 496 -39Q498 -41 498 -43Q498 -50 491 -50Q487 -50 485 -48L455 -8Z" fill="#dd2e44" />
<path d="M350 145Q350 145 350 145Q349 143 346 143Q343 143 340 146Q340 146 334 155Q328 163 321.5 171.5Q315 180 315 180Q314 182 314 185Q314 188 316 190Q318 192 321 192Q324 192 326 189Q326 189 333 180Q339 172 345.5 163.5Q352 155 352 155Q353 153 353 151Q353 147 350 145Z" fill="#292f33" />
<path d="M345 141Q343 139 340 139Q333 139 333 146Q333 150 336 152Q336 152 339.0 154.0Q342 156 345.0 158.0Q348 160 348 160Q350 162 352 162Q355 162 358 159Q359 157 359 155Q359 151 356 149Q356 149 345 141ZM221 -51Q220 -49 220 -44Q220 -36 223 -31Q224 -29 226 -29Q226 -29 228.5 -30.5Q231 -32 234.5 -33.0Q238 -34 241 -34Q245 -34 249.0 -32.0Q253 -30 254 -27L256 -25Q262 -28 266 -31Q269 -32 273.5 -35.5Q278 -39 280 -40Q284 -43 291 -43Q292 -44 294.0 -44.0Q296 -44 297.0 -44.0Q298 -44 299 -44Q308 -45 308 -51V-53Q294 -59 274 -59Q264 -59 254.5 -56.0Q245 -53 240 -53L221 -51Z" fill="#292f33" />
<path d="M503 -60Q503 -60 503 -60Q498 -65 494 -59Q492 -57 492 -55Q492 -51 495 -49Q497 -48 499 -48Q503 -48 505 -51Q506 -52 506 -55Q506 -58 503 -60Z" fill="#99aab5" />
<path d="M221 -61Q219 -61 219 -59V-50Q219 -49 220 -49Q227 -51 230 -51Q240 -51 254 -55Q265 -58 276 -58Q288 -58 299 -56L309 -52Q309 -55 309 -55Q309 -56 309 -56Q306 -58 298 -60Q284 -64 276 -64Q269 -64 260 -62Q249 -59 248 -59Q248 -60 247.0 -61.5Q246 -63 245.5 -63.0Q245 -63 234.0 -62.5Q223 -62 221 -61ZM72 8Q73 10 76 13Q83 19 89 20Q91 20 92 19Q92 19 93.0 16.0Q94 13 95.0 9.5Q96 6 98 4Q101 0 105.0 -1.5Q109 -3 112 -2H115Q116 -9 117 -14Q117 -17 118.0 -22.5Q119 -28 119 -30Q120 -35 124 -41Q125 -43 126.0 -44.0Q127 -45 127.5 -46.0Q128 -47 129 -48Q134 -55 129 -59L127 -61Q114 -54 101 -39Q94 -31 90.0 -21.5Q86 -12 82 -8L72 8Z" fill="#292f33" />
<path d="M79 -19Q78 -19 71.5 -10.0Q65 -1 64 1Q63 1 63 2Q63 3 64 4Q64 4 66 5Q68 7 69.5 8.5Q71 10 71.0 10.0Q71 10 72 10Q75 3 78 0Q84 -7 90 -20Q95 -31 103 -40Q111 -49 120 -56Q125 -59 129 -61Q129 -61 127 -63Q126 -64 125 -64Q122 -63 115 -58Q103 -49 98 -43Q93 -38 89 -29Q84 -19 83 -19Q83 -19 81.0 -19.0Q79 -19 79.0 -19.0Q79 -19 79 -19Z" fill="#292f33" />
<path d="M206 428Q224 435 244.5 426.5Q265 418 268 399Q271 377 264.0 355.0Q257 333 241 334Q193 339 182 367Q175 386 182.0 404.0Q189 422 206 428Z" fill="#d4ab88" />
<path d="M189 361Q176 379 186.5 387.0Q197 395 216 395L235 396Q242 395 243.5 388.5Q245 382 244.5 372.0Q244 362 247 356Q249 352 245.0 348.5Q241 345 236 343L231 342Q222 342 222 331Q221 325 223 320Q228 302 212 295Q197 289 193 306Q190 316 192 330V331Q196 352 189 361Z" fill="#d4ab88" />
<path d="M180 419Q205 448 251 430Q277 420 272 403Q270 395 265 398Q240 413 222 383Q219 390 212.0 391.5Q205 393 203 385Q201 377 206.0 370.0Q211 363 211 362Q207 356 202.0 351.5Q197 347 194 346L190 344Q190 344 189.0 344.0Q188 344 184.5 347.5Q181 351 177 359Q170 373 169.5 388.5Q169 404 180 419Z" fill="#963b22" />
<path d="M188 401Q174 398 169.5 385.0Q165 372 166.0 352.0Q167 332 167 328Q165 319 159.0 313.0Q153 307 147 307L142 306Q142 308 142.5 310.5Q143 313 144.0 321.5Q145 330 143 337Q143 343 138.5 356.0Q134 369 134.5 378.5Q135 388 142 398Q156 419 184 410Q192 407 192 404Q193 402 190 401Q189 401 188 401Z" fill="#963b22" />
<path d="M247 -38Q247 -38 247 -38Q239 -38 233.0 -35.5Q227 -33 224.5 -30.5Q222 -28 222 -26Q223 -12 222.0 15.0Q221 42 222 57Q222 58 197.5 100.0Q173 142 167 164Q159 192 177 202Q184 206 191 206Q208 206 216 192Q216 192 228 170Q239 149 253.0 121.5Q267 94 272 83Q277 72 277 60Q277 60 275 47Q273 33 271.5 12.0Q270 -9 270 -25Q270 -30 272 -33Q273 -34 270.5 -35.5Q268 -37 262.0 -38.0Q256 -39 247 -38Z" fill="#2a6797" />
<path d="M95 -6Q95 -6 95 -6Q87 6 86 20Q100 31 117.0 56.5Q134 82 147 93Q147 94 158.5 141.5Q170 189 181 208Q194 234 215 229Q225 227 231.0 219.0Q237 211 237 201Q237 198 236 194Q236 194 229 171Q223 148 214.0 118.5Q205 89 200 77Q196 66 188 58Q188 58 174 45Q161 32 143.5 13.0Q126 -6 118 -18Q104 -20 95 -6Z" fill="#4289c1" />
<path d="M149 164Q149 164 149 164Q149 207 152 250Q158 321 194 333Q211 339 234.0 307.5Q257 276 248 242Q243 222 246.5 192.0Q250 162 247 149Q247 149 177 149Q165 149 157.5 153.0Q150 157 149.5 159.5Q149 162 149 164Z" fill="#9268ca" />
<path d="M226 282Q230 276 238.5 261.5Q247 247 253.5 237.5Q260 228 261 227Q302 209 310.5 208.0Q319 207 332 195Q344 184 341 176Q340 173 336.0 171.5Q332 170 330 172Q328 176 319.5 179.5Q311 183 309 185Q303 189 278.5 195.5Q254 202 244 209Q221 226 200 262L226 282Z" fill="#d4ab88" />
<path d="M310 206Q304 204 301.5 199.5Q299 195 302 190Q304 187 302 187Q299 186 295 191Q292 196 295.5 202.0Q299 208 304 209Q311 212 312 208Q312 207 310 206Z" fill="#292f33" />
</g></svg>