<svg xmlns="http://www.w3.org/2000/svg" viewBox="0 0 2048 2048">
<g transform="matrix(1 0 0 -1 0 2048)">
<path d="M148 404Q171 378 167.5 349.0Q164 320 137.5 293.5Q111 267 82.0 263.5Q53 260 27 284Q3 308 0.5 352.5Q-2 397 17 414Q34 433 78.5 431.0Q123 429 148 404ZM364 404Q389 429 433.5 431.0Q478 433 495 414Q514 397 511.5 352.5Q509 308 485 284Q459 260 430.0 263.5Q401 267 374.5 293.5Q348 320 344.5 349.0Q341 378 364 404Z" fill="#ccd6dd" />
<path d="M124 384Q154 354 113.5 314.0Q73 274 43 304Q28 319 26.0 353.5Q24 388 33 395Q39 403 73.5 401.5Q108 400 124 384ZM388 384Q404 400 438.5 401.5Q473 403 479 395Q488 388 486.0 353.5Q484 319 469 304Q439 274 398.5 314.0Q358 354 388 384Z" fill="#66757f" />
<path d="M484 235Q484 182 467.0 137.5Q450 93 424.5 64.5Q399 36 367.0 16.0Q335 -4 307.0 -12.5Q279 -21 256 -21Q234 -21 205.5 -11.0Q177 -1 145.5 21.0Q114 43 88.0 73.5Q62 104 45.5 150.0Q29 196 29 249Q28 251 28.0 255.0Q28 259 29.0 270.5Q30 282 33.0 293.5Q36 305 43.0 320.0Q50 335 60.5 348.5Q71 362 88.5 375.5Q106 389 128.5 398.5Q151 408 184.0 414.0Q217 420 256 420Q306 420 345.0 409.5Q384 399 407.5 383.0Q431 367 447.5 347.0Q464 327 470.5 307.5Q477 288 480.5 271.5Q484 255 484 245Z" fill="#e1e8ed" />
<path d="M215.5 -19.0Q199 -2 199.0 21.5Q199 45 215.5 61.5Q232 78 256.0 78.0Q280 78 296.5 61.5Q313 45 313.0 21.5Q313 -2 296.5 -19.0Q280 -36 256.0 -36.0Q232 -36 215.5 -19.0Z" fill="#dd2e44" />
<path d="M356 50Q356 10 330.5 -20.0Q305 -50 256.0 -50.0Q207 -50 181.5 -20.0Q156 10 156 50Q156 70 162.0 99.0Q168 128 179.0 159.5Q190 191 210.5 213.0Q231 235 256.0 235.0Q281 235 301.5 213.0Q322 191 333.0 159.5Q344 128 350.0 99.0Q356 70 356 50Z" fill="#ccd6dd" />
<path d="M207 102Q227 115 256.0 115.0Q285 115 305 102Q312 98 313.0 88.0Q314 78 308.5 67.0Q303 56 295.0 45.5Q287 35 276.0 28.0Q265 21 256.0 21.0Q247 21 236.0 28.0Q225 35 217.0 45.5Q209 56 203.5 67.0Q198 78 199.0 88.0Q200 98 207 102ZM341 199V213Q341 222 347.5 228.5Q354 235 362.5 235.0Q371 235 377.5 228.5Q384 222 384 213V199Q384 190 377.5 184.0Q371 178 362.5 178.0Q354 178 347.5 184.0Q341 190 341 199ZM128 199V213Q128 222 134.5 228.5Q141 235 149.5 235.0Q158 235 164.5 228.5Q171 222 171 213V199Q171 190 164.5 184.0Q158 178 149.5 178.0Q141 178 134.5 184.0Q128 190 128 199Z" fill="#272b2b" />
<path d="M228 -7Q257 7 257 21Q257 8 264.5 0.5Q272 -7 280 -7H287Q287 -10 286.0 -15.0Q285 -20 277.5 -28.0Q270 -36 257.5 -36.0Q245 -36 237.5 -28.5Q230 -21 229 -14Z" fill="#dd2e44" />
<path d="M228 -14Q203 -14 193 4Q189 10 195.5 13.5Q202 17 205 11Q212 0 228 0Q247 0 249 22Q250 29 257 28Q264 28 263 21Q262 8 253.5 -3.0Q245 -14 228 -14Z" fill="#292f33" />
<path d="M284 -14Q267 -14 258.5 -3.0Q250 8 249 21Q248 28 255 28Q263 29 263 22Q265 0 284 0Q301 0 307 11Q310 17 316.5 13.5Q323 10 319 4Q309 -14 284 -14Z" fill="#292f33" />
</g></svg>