<svg xmlns="http://www.w3.org/2000/svg" viewBox="0 0 512 512">
<g transform="matrix(1 0 0 -1 0 512)">
<path d="M193 183Q193 183 173 134Q156 137 140.5 145.0Q125 153 116.5 161.0Q108 169 101.0 179.0Q94 189 92.5 193.0Q91 197 90 199Q90 199 111 203Q113 203 113.0 204.5Q113 206 112 207Q97 216 88.5 232.5Q80 249 79.0 256.0Q78 263 78 268Q78 268 115 239Q116 238 117.0 239.0Q118 240 117 241Q104 261 100.0 283.5Q96 306 98.5 321.5Q101 337 107.5 352.5Q114 368 117.0 373.5Q120 379 123 381Q123 381 142 337Q143 336 144.0 336.0Q145 336 145 338Q145 366 157.5 387.5Q170 409 185.5 420.0Q201 431 221.0 438.0Q241 445 249.0 446.5Q257 448 262 448Q234 423 214.5 380.5Q195 338 189.5 313.0Q184 288 181 268Q181 265 178 262Q163 246 163.5 221.5Q164 197 173 187Q183 176 193 183Z" fill="#f47c01" />
<path d="M173 134Q152 137 135.5 146.5Q119 156 109.5 168.5Q100 181 96.0 187.0Q92 193 90 199Q91 197 93.0 194.5Q95 192 103.5 184.0Q112 176 121.0 172.0Q130 168 145.0 164.0Q160 160 176 164Q181 165 186 165Z" fill="#f4531f" />
<path d="M261 112Q268 95 285 83Q269 75 240.0 94.0Q211 113 194.0 140.5Q177 168 190 181Q193 185 198.5 189.5Q204 194 206 196Q212 203 209.0 213.5Q206 224 199 226Q194 227 190.0 226.0Q186 225 184 223L182 221Q182 235 188.5 241.5Q195 248 202.0 248.5Q209 249 224 249Q227 249 229 249Q240 249 248.5 253.0Q257 257 259 262L262 266Q264 243 245 233Q235 228 239 218Q245 200 246 187Q248 172 251.5 165.5Q255 159 263.0 159.0Q271 159 280.5 166.5Q290 174 296 190Q311 234 287 255Q280 260 285 268Q295 283 302.5 303.0Q310 323 309.5 364.0Q309 405 290 448Q292 447 295.5 445.5Q299 444 309.0 437.5Q319 431 327.0 424.0Q335 417 344.0 405.5Q353 394 357.0 381.5Q361 369 360.0 352.5Q359 336 350 319Q350 318 350.5 317.5Q351 317 352 318L394 369Q395 367 397.5 363.0Q400 359 404.0 346.5Q408 334 406.5 321.0Q405 308 394.5 289.0Q384 270 364 252Q363 251 363.5 250.0Q364 249 365 250L433 281Q432 280 433.5 273.5Q435 267 431.0 254.5Q427 242 421.0 229.0Q415 216 398.0 201.0Q381 186 357 176Q356 176 356.5 175.0Q357 174 358 174L427 176Q423 172 417.5 167.0Q412 162 394.0 149.0Q376 136 357.5 127.0Q339 118 312.0 113.0Q285 108 261 112Z" fill="#f47c01" />
<path d="M216.0 237.0Q216 233 212.0 233.0Q208 233 208.0 237.0Q208 241 212.0 241.0Q216 241 216.0 237.0Z" fill="#292f33" />
<path d="M195 226Q192 226 188.5 225.0Q185 224 183.5 222.5Q182 221 182 221Q182 236 188.5 242.0Q195 248 208 249Q206 248 204.5 246.0Q203 244 203.5 238.0Q204 232 210 226Z" fill="#ffcc4d" />
<path d="M374 82Q364 85 368 92Q371 97 377 93Q382 90 384.5 85.5Q387 81 388 77V74Q386 78 374 82ZM400 30Q417 18 412 -1L408 -22Q396 -8 401 6Q403 11 402.5 16.5Q402 22 401 26Z" fill="#ffac33" />
<path d="M335 84Q336 77 344.0 76.5Q352 76 362.0 77.0Q372 78 383.0 68.0Q394 58 399 35Q390 49 378.5 54.0Q367 59 362.0 47.5Q357 36 368 31Q370 30 372 29Q393 21 391 -21Q391 -31 393.0 -37.5Q395 -44 397 -46L400 -48Q381 -46 378 -30Q378 -29 376.5 -23.0Q375 -17 374.5 -15.5Q374 -14 373.0 -10.0Q372 -6 370.5 -4.0Q369 -2 366.5 0.5Q364 3 361 4Q362 2 363.5 -0.5Q365 -3 367.5 -11.0Q370 -19 367 -25Q359 -49 375 -64Q373 -64 369.0 -63.5Q365 -63 357.5 -56.5Q350 -50 348 -38Q345 -25 343.0 -19.5Q341 -14 340.0 -13.0Q339 -12 336 -13Q333 -14 332.0 -18.0Q331 -22 333.5 -27.5Q336 -33 341 -38Q318 -33 314 -19Q310 3 300.0 9.0Q290 15 287 26Q286 29 286 33Q286 36 286 40L285 83Q291 81 297 82Q302 84 306.5 87.0Q311 90 313 92L315 94Q323 103 335.5 103.5Q348 104 358 93Q357 93 355.0 94.0Q353 95 349.0 95.5Q345 96 342.0 95.5Q339 95 336.5 92.0Q334 89 335 84ZM247 47 260 54Q257 31 256 19Q255 14 255.5 8.5Q256 3 254 1Q252 -6 233 -24Q232 -25 231 -24Q229 -20 233 -11Q232 -10 232 -11L213 -22Q212 -24 212 -21Q212 -13 223 -6Q223 -6 223.0 -5.5Q223 -5 222 -5L211 -9Q211 -9 210.5 -8.5Q210 -8 210 -8Q212 -2 232 6Q233 6 235 7Q246 11 247 19ZM219 51Q211 21 211 17Q209 10 204 5L183 -8Q182 -8 182 -7Q180 -4 186 3Q187 4 186.5 4.0Q186 4 186 4L168 -2Q167 -3 167 -2Q167 4 179 9Q180 9 180.0 9.5Q180 10 179 10H169Q169 11 169 11Q173 15 176 15Q179 16 187.0 16.0Q195 16 198 16Q202 17 204 20Q205 22 205 25L207 49Z" fill="#f47c01" />
<path d="M266 106Q267 105 272.0 99.0Q277 93 281.0 88.0Q285 83 285 83Q282 76 270 69Q267 67 266 63Q261 45 253 43Q248 41 246.0 44.5Q244 48 241.5 54.0Q239 60 235 63Q232 55 227.5 53.0Q223 51 220.0 53.5Q217 56 217 60Q217 63 214.5 68.0Q212 73 210 77L207 80Q190 92 185 99Q176 112 173 128Q167 164 191 182Q202 188 215.0 188.0Q228 188 239.5 176.0Q251 164 252 144Q252 136 257.5 123.0Q263 110 266 106Z" fill="#ffac33" />
<path d="M358 174H363Q362 174 360.0 174.0Q358 174 357 174ZM425 237ZM397 291Q396 291 396.0 291.0Q396 291 397 291ZM398 294Q398 294 398 293ZM395 289Q395 289 395 288Q395 289 395 289ZM401 302Q401 302 401 302ZM405 315Q405 315 405.0 314.5Q405 314 405 315ZM406 317Q405 316 405 316Q406 316 406 317ZM406 340Q406 340 406 339Q406 340 406 340ZM404 309V308ZM402 304Q402 304 402 304ZM403 307Q403 307 403 306Q403 307 403 307ZM406 342Q406 342 406 341Q406 342 406 342ZM406 338Q406 338 406 338ZM406 319Q406 319 406 318Q406 319 406 319ZM390 280Q389 280 389 279Q389 280 390 280ZM394 286ZM406 338Q406 338 406.0 337.5Q406 337 406 338ZM407 324Q407 323 406.5 322.0Q406 321 406 321Q406 322 407 324ZM406 341Q406 340 406 340Q406 341 406 341ZM407 335Q407 334 407.0 333.5Q407 333 407 332Q407 332 407.0 333.0Q407 334 407 335ZM355 387Q355 386 355 386Q355 387 355 387ZM355 386Q355 385 355.5 384.5Q356 384 356 384Q356 385 355 386ZM406 336Q406 336 407 335Q406 335 406 336ZM404 207Q402 205 401 204Q402 205 404 207ZM426 239Q426 239 425.5 238.0Q425 237 425 237Q426 239 426 239ZM404 207 406 209Q405 208 404 207ZM428 245Q428 244 427.5 242.0Q427 240 426 240Q428 243 428 245ZM406 318Q406 317 406 317Q406 317 406 318ZM385 274Q387 277 389 279Q387 277 385 274ZM390 280Q391 282 391 282Q392 284 394 286Q391 282 390 280ZM357 335Q365 361 356 384Q365 360 357 335ZM402 304Q402 304 402.0 303.0Q402 302 402 302Q402 304 402 304ZM405 314Q405 313 405 313Q405 313 405 314ZM395 288Q395 288 394 286Q394 287 394.5 287.5Q395 288 395 288ZM401 300Q401 300 398 294Q399 297 401 300ZM405 316Q405 316 405 315Q405 316 405 316ZM397 293Q397 292 397 291Q397 291 397 293Z" fill="#f4531f" />
<path d="M358 174Q338 174 325 176Q324 177 324.0 178.5Q324 180 325 180Q344 181 362.0 189.5Q380 198 392.0 208.0Q404 218 413.0 228.5Q422 239 426.5 245.5Q431 252 431 252Q430 249 429 247Q429 247 429.0 246.0Q429 245 428 245Q427 242 426 240V239Q426 239 425.5 238.0Q425 237 425 237Q423 232 421 228Q418 223 415 220Q411 214 406 208L404 206Q403 206 402.5 205.5Q402 205 401.5 204.5Q401 204 400.5 203.0Q400 202 399 202Q398 201 397 200Q380 186 357 176Q356 176 356.5 175.0Q357 174 358 174ZM337 300Q336 299 335.0 299.5Q334 300 335 301Q345 320 349.5 343.0Q354 366 353 380L352 394Q353 392 355 387Q355 387 355 386Q355 385 355.5 384.5Q356 384 356 384Q365 360 357 335Q354 327 350 319Q350 318 350.5 317.5Q351 317 351 317ZM332 240Q387 269 404 338L405 344V341Q405 341 406 341Q406 341 406 340Q406 339 406 339Q406 338 406.0 338.0Q406 338 406 337Q406 336 406 336Q406 335 406 335V334Q406 334 406.5 333.0Q407 332 407 332V325Q406 325 406 324Q406 323 406 321V320Q406 320 406 319Q406 318 406 318Q406 318 406 317Q406 316 405.5 316.0Q405 316 405.0 316.0Q405 316 405.0 315.5Q405 315 405 314Q405 314 405 314Q405 313 405 312Q404 309 404 308Q403 307 403 306Q403 306 403 306Q403 305 403.0 304.5Q403 304 402 304Q402 304 402.0 303.5Q402 303 402.0 302.5Q402 302 402 302Q402 302 401.5 301.5Q401 301 401 301Q401 300 401.0 299.5Q401 299 398 294Q398 293 398 293L397 291Q397 291 396 291Q396 290 395.5 289.5Q395 289 395.0 289.0Q395 289 395 288Q394 286 394 286Q393 285 392.0 283.5Q391 282 391 282Q390 281 390 280Q389 280 389 279Q387 277 385 274Q376 263 364 252Q363 251 363.5 250.5Q364 250 365 250L343 240Q338 238 333 237Q332 237 331.5 238.0Q331 239 332 240Z" fill="#f4531f" />
<path d="M286 33Q286 36 286 40L285 83Q291 25 309 24Q318 24 323.0 -5.5Q328 -35 339 -38Q317 -32 314 -19Q310 3 299.5 8.5Q289 14 287 26Q286 29 286 33Z" fill="#ffac33" />
<path d="M356 -33Q360 -49 363.5 -55.0Q367 -61 375 -64Q372 -64 368.5 -63.5Q365 -63 357.5 -56.5Q350 -50 347 -38Q343 -15 339 -13Q350 -14 356 -33ZM115 239 78 268ZM192 424Q163 398 155 320Q155 318 152.5 317.5Q150 317 149 319L123 381L142 337Q143 336 144.0 336.0Q145 336 145 338Q145 394 192 424ZM117 241Q77 302 115 370Q97 306 137 229Q138 227 136.0 226.0Q134 225 133 226L115 239Q116 239 117.0 239.5Q118 240 117 241ZM79 261Q93 220 131 210Q133 210 133.0 208.0Q133 206 131 206L112 203Q113 203 113.0 204.5Q113 206 112 207Q84 224 79 261ZM380 -7Q383 -13 384.5 -22.5Q386 -32 389.0 -38.0Q392 -44 399 -48Q381 -46 378 -30Q377 -29 376.0 -23.0Q375 -17 374.5 -15.5Q374 -14 372.5 -10.0Q371 -6 369.5 -4.0Q368 -2 365.5 0.5Q363 3 360 4Q373 11 380 -7ZM254 131Q252 138 252 145Q289 132 328.0 139.0Q367 146 397 161L427 176Q424 173 419.0 168.5Q414 164 399.0 152.5Q384 141 368.0 132.5Q352 124 328.5 117.0Q305 110 283 111Q283 111 282.5 110.5Q282 110 282 110Q276 110 275.0 106.0Q274 102 277.0 96.5Q280 91 282.0 87.5Q284 84 285 83Q285 83 284.0 84.0Q283 85 281.5 86.5Q280 88 277.5 90.0Q275 92 272.5 95.0Q270 98 268 101Q264 105 262 110Q257 119 254 131Z" fill="#f4531f" />
</g></svg>