<svg xmlns="http://www.w3.org/2000/svg" viewBox="0 0 2048 2048">
<g transform="matrix(1 0 0 -1 0 2048)">
<path d="M122 -37Q123 -44 107.5 -51.0Q92 -58 88 -56Q86 -55 89.5 -52.0Q93 -49 97.5 -45.0Q102 -41 102 -38Q101 -24 95.0 -9.5Q89 5 90 21Q82 45 79 96Q78 112 107 97Q133 84 132 75Q130 66 126.0 50.0Q122 34 122 25Q125 12 122.5 -6.0Q120 -24 122 -37ZM224 -24Q235 -49 230 -52Q225 -51 216.5 -45.5Q208 -40 205 -32Q200 -18 187.0 -7.0Q174 4 169 20Q145 56 135 83Q132 92 144.0 97.5Q156 103 170.5 102.5Q185 102 187 96Q190 81 193.0 60.0Q196 39 198 32Q206 18 212.5 1.5Q219 -15 224 -24Z" fill="#ffdc5d" />
<path d="M80 76Q75 72 70 74Q63 76 56 85Q54 87 35.0 100.5Q16 114 12 126Q10 132 13 138Q28 165 53 190Q56 194 64.0 194.5Q72 195 77 192Q78 190 84.0 187.5Q90 185 93.0 182.5Q96 180 94 177Q88 165 63.5 150.5Q39 136 36 131Q41 127 48.5 117.0Q56 107 67 100Q72 103 74 102Q78 101 78 96Q81 94 81 92Q83 90 82.5 84.0Q82 78 80 76ZM194 75Q192 77 191.0 82.5Q190 88 191 91Q192 93 195 95Q194 100 197 101Q200 102 205 100Q215 108 222.0 118.5Q229 129 234 134Q230 138 204.5 151.0Q179 164 171 176Q170 178 172.5 180.5Q175 183 180.5 186.0Q186 189 188 191Q192 194 200.0 194.5Q208 195 212 191Q238 168 255 143Q259 136 258 131Q255 119 237.0 104.0Q219 89 217 86Q211 76 204 73Q203 73 199.5 73.5Q196 74 194 75Z" fill="#ffdc5d" />
<path d="M221 187 190 154V93Q195 65 196 49Q185 44 159 35Q158 35 155.5 40.0Q153 45 149.0 52.5Q145 60 143 64Q138 63 131 63Q130 57 128.0 49.0Q126 41 125.0 37.0Q124 33 124 33Q100 36 84 37Q82 44 80.5 59.0Q79 74 79 86V97L77 154L46 187Q62 211 100 211H134H167Q205 211 221 187Z" fill="#292f33" />
<path d="M172 201Q172 199 171.5 196.5Q171 194 169.0 188.5Q167 183 163.5 179.0Q160 175 152.0 172.0Q144 169 134 169H133Q123 169 115.0 172.0Q107 175 103.5 179.0Q100 183 98.0 188.5Q96 194 96.0 196.5Q96 199 96 201Q96 211 105 211V254H162V211Q172 211 172 201Z" fill="#ffdc5d" />
<path d="M105 217V229H162V217Q151 205 133.5 205.0Q116 205 105 217Z" fill="#f9ca55" />
<path d="M141 410Q173 410 196.0 387.0Q219 364 219.0 332.0Q219 300 196.0 277.0Q173 254 141 254Q101 254 77 286Q67 290 60.5 296.5Q54 303 51.5 312.5Q49 322 48.5 328.5Q48 335 48 346Q48 366 62.0 380.5Q76 395 95 396Q116 410 141 410Z" fill="#ffac33" />
<path d="M205 368V282Q205 253 184.0 232.0Q163 211 133.5 211.0Q104 211 83.0 232.0Q62 253 62 282V368ZM365 -37Q366 -44 350.5 -51.0Q335 -58 331 -56Q329 -55 332.5 -52.0Q336 -49 340.5 -45.0Q345 -41 345 -38Q344 -24 338.0 -9.5Q332 5 333 21Q325 45 322 96Q321 112 350 97Q376 84 374 75Q373 66 369.0 50.0Q365 34 365 25Q368 12 365.5 -6.0Q363 -24 365 -37ZM467 -24Q478 -49 473 -52Q468 -51 459.5 -45.5Q451 -40 448 -32Q443 -18 430.0 -7.0Q417 4 412 20Q388 56 378 83Q375 92 387.0 97.5Q399 103 413.5 102.5Q428 102 430 96Q433 81 436.0 60.0Q439 39 441 32Q449 18 455.5 1.5Q462 -15 467 -24Z" fill="#ffdc5d" />
<path d="M63 375H205L212 346L205 311Q174 311 152.5 316.0Q131 321 121.5 330.0Q112 339 108.5 346.0Q105 353 105 360Q99 311 62 311L56 346ZM384 410Q416 410 439.0 387.0Q462 364 462.0 332.0Q462 300 439.0 277.0Q416 254 384 254Q344 254 320 286Q310 290 303.5 296.5Q297 303 294.5 312.5Q292 322 291.5 328.5Q291 335 291 346Q291 366 305.0 380.5Q319 395 338 396Q359 410 384 410Z" fill="#ffac33" />
<path d="M162 240Q162 238 161.0 235.5Q160 233 153.0 229.0Q146 225 133.5 225.0Q121 225 114.0 229.0Q107 233 106 236L105 240ZM119 268H148Q148 254 134 254Q127 254 123.5 257.5Q120 261 120 265Z" fill="#c1694f" />
<path d="M98.0 282.0Q91 282 91.0 289.5Q91 297 98.0 297.0Q105 297 105.0 289.5Q105 282 98.0 282.0ZM169.0 282.0Q162 282 162.0 289.5Q162 297 169.0 297.0Q176 297 176.0 289.5Q176 282 169.0 282.0Z" fill="#662113" />
<path d="M58 437Q84 439 97.0 416.0Q110 393 101 377Q78 377 63.5 394.5Q49 412 58 437ZM200 436Q209 411 194.5 393.5Q180 376 157 376Q148 392 161.0 415.0Q174 438 200 436Z" fill="#292f33" />
<path d="M95 393Q115 407 137.0 405.5Q159 404 169 390Q169 386 165.5 380.0Q162 374 159 376Q129 389 101 377Q100 377 97.5 384.5Q95 392 95 393ZM204 -31Q205 -32 206.5 -33.0Q208 -34 213.0 -35.5Q218 -37 222 -36Q231 -34 227 -28Q231 -29 240.0 -40.5Q249 -52 247 -56Q244 -62 235.5 -63.5Q227 -65 221 -62Q214 -59 207.0 -47.5Q200 -36 204 -31ZM122 -37Q129 -41 126.0 -50.0Q123 -59 107 -62Q76 -68 73 -57Q72 -51 82.5 -45.0Q93 -39 100 -37Q103 -37 100.5 -41.0Q98 -45 104 -45Q108 -45 112.5 -43.0Q117 -41 120 -39Z" fill="#292f33" />
<path d="M323 76Q318 72 313 74Q306 76 299 85Q297 87 278.0 100.5Q259 114 255 126Q253 132 256 138Q271 165 296 190Q299 194 307.0 194.5Q315 195 320 192Q321 190 327.0 187.5Q333 185 336.0 182.5Q339 180 337 177Q331 165 306.5 150.5Q282 136 279 131Q284 127 291.5 117.0Q299 107 310 100Q315 103 317 102Q321 101 321 96Q324 94 324 92Q326 90 325.5 84.0Q325 78 323 76ZM437 75Q435 77 434.0 82.5Q433 88 434 91Q435 93 438 95Q437 100 440 101Q443 102 448 100Q458 108 465.0 118.5Q472 129 477 134Q473 138 447.5 151.0Q422 164 414 176Q413 178 415.5 180.5Q418 183 423.5 186.0Q429 189 431 191Q435 194 443.0 194.5Q451 195 455 191Q481 168 498 143Q502 136 501 131Q498 119 480.0 104.0Q462 89 460 86Q454 76 447 73Q446 73 442.5 73.5Q439 74 437 75Z" fill="#ffdc5d" />
<path d="M464 187 433 154V93Q438 65 439 49Q428 44 401 35Q401 35 398.5 40.0Q396 45 392.0 52.5Q388 60 386 64Q381 63 374 63Q373 57 371.0 49.0Q369 41 368.0 37.0Q367 33 367 33Q343 36 327 37Q325 44 323.5 59.0Q322 74 322 86V97L320 154L289 187Q305 211 343 211H376H410Q448 211 464 187ZM301 437Q327 439 340.0 416.0Q353 393 344 377Q321 377 306.0 394.5Q291 412 301 437ZM443 436Q452 411 437.5 393.5Q423 376 400 376Q391 392 404.0 415.0Q417 438 443 436Z" fill="#292f33" />
<path d="M414 201Q414 199 414.0 196.5Q414 194 412.0 188.5Q410 183 406.5 179.0Q403 175 395.0 172.0Q387 169 376.5 169.0Q366 169 358.0 172.0Q350 175 346.5 179.0Q343 183 341.0 188.5Q339 194 338.5 196.5Q338 199 338 201Q338 211 348 211V254H405V211Q414 211 414 201Z" fill="#ffdc5d" />
<path d="M348 217V229H405V217Q394 205 376.5 205.0Q359 205 348 217Z" fill="#f9ca55" />
<path d="M448 368V282Q448 253 427.0 232.0Q406 211 376.5 211.0Q347 211 326.0 232.0Q305 253 305 282V368Z" fill="#ffdc5d" />
<path d="M306 375H448L455 346L448 311Q417 311 395.5 316.0Q374 321 364.5 330.0Q355 339 351.5 346.0Q348 353 348 360Q342 311 305 311L299 346Z" fill="#ffac33" />
<path d="M405 240Q405 238 404.0 235.5Q403 233 396.0 229.0Q389 225 376.5 225.0Q364 225 357.0 229.0Q350 233 349 236L348 240ZM362 268H391Q391 254 376 254Q370 254 366.5 257.5Q363 261 363 265Z" fill="#c1694f" />
<path d="M341.0 282.0Q334 282 334.0 289.5Q334 297 341.0 297.0Q348 297 348.0 289.5Q348 282 341.0 282.0ZM412.0 282.0Q405 282 405.0 289.5Q405 297 412.0 297.0Q419 297 419.0 289.5Q419 282 412.0 282.0Z" fill="#662113" />
<path d="M338 393Q358 407 380.0 405.5Q402 404 412 390Q412 386 408.5 380.0Q405 374 402 376Q372 389 344 377Q343 377 340.5 384.5Q338 392 338 393ZM447 -31Q448 -32 449.5 -33.0Q451 -34 456.0 -35.5Q461 -37 465 -36Q474 -34 470 -28Q474 -29 483.0 -40.5Q492 -52 490 -56Q487 -62 478.5 -63.5Q470 -65 464 -62Q456 -59 449.5 -47.5Q443 -36 447 -31ZM365 -37Q372 -41 369.0 -50.0Q366 -59 350 -62Q319 -68 316 -57Q315 -51 325.5 -45.0Q336 -39 343 -37Q346 -37 343.5 -41.0Q341 -45 347 -45Q351 -45 355.5 -43.0Q360 -41 362 -39Z" fill="#292f33" />
</g></svg>