<svg xmlns="http://www.w3.org/2000/svg" viewBox="0 0 2048 2048">
<g transform="matrix(1 0 0 -1 0 2048)">
<path d="M142 92Q142 88 142 79Q142 46 140.5 41.0Q139 36 128 36Q108 36 96.5 58.0Q85 80 85 107Q85 132 88.0 143.0Q91 154 93.5 155.0Q96 156 103.0 152.5Q110 149 114 149Q126 149 134.0 132.5Q142 116 142 92ZM370 92Q370 116 378.0 132.5Q386 149 398 149Q402 149 409.0 152.5Q416 156 419.0 155.0Q422 154 424.5 143.0Q427 132 427 107Q427 80 415.5 58.0Q404 36 384 36Q373 36 371.5 41.0Q370 46 370 79Q370 88 370 92Z" fill="#d1d3d4" />
<path d="M85 184Q85 275 135.0 339.5Q185 404 256.0 404.0Q327 404 377.0 339.5Q427 275 427 184Q427 136 410.0 93.5Q393 51 367.5 23.5Q342 -4 312.5 -20.0Q283 -36 256.0 -36.0Q229 -36 199.5 -20.0Q170 -4 144.5 23.5Q119 51 102.0 93.5Q85 136 85 184Z" fill="#f7dece" />
<path d="M79.5 208.5Q71 225 71.0 248.5Q71 272 79.5 289.0Q88 306 99.5 306.0Q111 306 119.5 289.0Q128 272 128.0 248.5Q128 225 119.5 208.5Q111 192 99.5 192.0Q88 192 79.5 208.5ZM392.5 208.5Q384 225 384.0 248.5Q384 272 392.5 289.0Q401 306 412.5 306.0Q424 306 432.5 289.0Q441 272 441.0 248.5Q441 225 432.5 208.5Q424 192 412.5 192.0Q401 192 392.5 208.5Z" fill="#d1d3d4" />
<path d="M103.5 189.5Q114 173 114.0 149.5Q114 126 103.5 109.0Q93 92 78.0 92.0Q63 92 53.0 109.0Q43 126 43.0 149.5Q43 173 53.0 189.5Q63 206 78.0 206.0Q93 206 103.5 189.5ZM459.0 189.5Q469 173 469.0 149.5Q469 126 459.0 109.0Q449 92 434.0 92.0Q419 92 408.5 109.0Q398 126 398.0 149.5Q398 173 408.5 189.5Q419 206 434.0 206.0Q449 206 459.0 189.5Z" fill="#f7dece" />
<path d="M440 306H71Q71 313 71 314Q71 369 125.0 408.5Q179 448 255.5 448.0Q332 448 386.5 408.5Q441 369 441 314Q441 312 440 306ZM256 12Q222 12 194 22Q181 27 186.0 40.5Q191 54 204 49Q226 41 256 41Q287 41 308 49Q321 54 326.0 40.5Q331 27 318 22Q291 12 256 12Z" fill="#dd2e44" />
<path d="M270 78H242Q236 78 232.0 82.5Q228 87 228.0 92.5Q228 98 232.0 102.5Q236 107 242 107H270Q276 107 280.0 102.5Q284 98 284.0 92.5Q284 87 280.0 82.5Q276 78 270 78Z" fill="#c1694f" />
<path d="M156 135V164Q156 169 160.5 173.5Q165 178 171.0 178.0Q177 178 181.0 173.5Q185 169 185 164V135Q185 129 181.0 125.0Q177 121 171.0 121.0Q165 121 160.5 125.0Q156 129 156 135ZM327 135V164Q327 169 331.0 173.5Q335 178 341.0 178.0Q347 178 351.5 173.5Q356 169 356 164V135Q356 129 351.5 125.0Q347 121 341.0 121.0Q335 121 331.0 125.0Q327 129 327 135Z" fill="#662113" />
<path d="M215.5 251.5Q199 268 199.0 291.5Q199 315 215.5 331.5Q232 348 256.0 348.0Q280 348 296.5 331.5Q313 315 313.0 291.5Q313 268 296.5 251.5Q280 235 256.0 235.0Q232 235 215.5 251.5Z" fill="#f1f2f2" />
<path d="M128.5 249.5Q114 264 114.0 284.5Q114 305 128.5 319.5Q143 334 163.5 334.0Q184 334 198.5 319.5Q213 305 213.0 284.5Q213 264 198.5 249.5Q184 235 163.5 235.0Q143 235 128.5 249.5Z" fill="#f1f2f2" />
<path d="M55.5 247.5Q43 260 43.0 277.5Q43 295 55.5 307.5Q68 320 85.5 320.0Q103 320 115.5 307.5Q128 295 128.0 277.5Q128 260 115.5 247.5Q103 235 85.5 235.0Q68 235 55.5 247.5ZM313.5 249.5Q299 264 299.0 284.5Q299 305 313.5 319.5Q328 334 348.5 334.0Q369 334 383.5 319.5Q398 305 398.0 284.5Q398 264 383.5 249.5Q369 235 348.5 235.0Q328 235 313.5 249.5Z" fill="#f1f2f2" />
<path d="M396.5 247.5Q384 260 384.0 277.5Q384 295 396.5 307.5Q409 320 426.5 320.0Q444 320 456.5 307.5Q469 295 469.0 277.5Q469 260 456.5 247.5Q444 235 426.5 235.0Q409 235 396.5 247.5Z" fill="#f1f2f2" />
<path d="M299.0 86.5Q284 95 284.0 106.5Q284 118 299.0 126.5Q314 135 334.5 135.0Q355 135 369.5 126.5Q384 118 384.0 106.5Q384 95 369.5 86.5Q355 78 334.5 78.0Q314 78 299.0 86.5ZM142.5 86.5Q128 95 128.0 106.5Q128 118 142.5 126.5Q157 135 177.5 135.0Q198 135 213.0 126.5Q228 118 228.0 106.5Q228 95 213.0 86.5Q198 78 177.5 78.0Q157 78 142.5 86.5Z" fill="#d1d3d4" />
<path d="M469 277Q469 260 456.5 247.5Q444 235 427 235H85Q68 235 55.5 247.5Q43 260 43 277Q43 288 149.5 293.0Q256 298 362.5 293.0Q469 288 469 277Z" fill="#f1f2f2" />
</g></svg>