<svg xmlns="http://www.w3.org/2000/svg" viewBox="0 0 2048 2048">
<g transform="matrix(1 0 0 -1 0 2048)">
<path d="M498 192Q498 148 501.5 84.0Q505 20 508 -22L512 -64H0Q14 93 14 192Q14 360 114 420Q145 439 180.5 441.5Q216 444 236 437L256 431V430V431Q259 432 264.0 434.0Q269 436 285.5 439.0Q302 442 318.0 442.0Q334 442 356.0 437.0Q378 432 398 420Q498 360 498 192Z" fill="#e6e7e8" />
<path d="M370 50Q405 50 430.0 25.0Q455 0 455 -36V-64H57V-36Q57 0 82.0 25.0Q107 50 142 50Z" fill="#ffffff" />
<path d="M194 48V103H318V48Q318 39 297.5 29.5Q277 20 256.0 20.0Q235 20 214.5 29.5Q194 39 194 48Z" fill="#7c533e" />
<path d="M194 79V128H318V79Q296 54 256.0 54.0Q216 54 194 79Z" fill="#664131" />
<path d="M301 401Q353 384 380.0 348.5Q407 313 406 264Q402 180 370.0 136.5Q338 93 270 93Q238 93 225.5 94.0Q213 95 195.5 102.5Q178 110 165 127Q123 140 117 189Q115 198 112.0 213.5Q109 229 108.0 237.0Q107 245 106.0 263.0Q105 281 108 295Q113 332 141.0 359.0Q169 386 201 387Q212 401 246.5 405.0Q281 409 301 401Z" fill="#0b0200" />
<path d="M363 260Q378 239 378 188Q378 138 342.0 102.0Q306 66 256.0 66.0Q206 66 170.0 102.0Q134 138 134 188Q134 228 137 239Q147 268 166 280Q182 289 191.5 300.0Q201 311 203 317L204 323Q211 307 234 292Q247 285 280.5 277.5Q314 270 332 251Q338 244 338 251Q337 253 337 258Q336 265 329.5 274.0Q323 283 317 286Q347 282 363 260Z" fill="#7c533e" />
<path d="M205 109Q198 116 205 123Q211 129 218 123Q227 116 258 116Q290 116 298 123Q305 129 311.5 122.5Q318 116 311 109Q299 97 258.0 97.0Q217 97 205 109ZM270 154H243Q236 154 236.0 160.5Q236 167 243 167H270Q276 167 276.0 160.5Q276 154 270 154Z" fill="#3d2e24" />
<path d="M188 215V228Q188 234 192.0 238.0Q196 242 201.5 242.0Q207 242 211.0 238.0Q215 234 215 228V215Q215 209 211.5 205.0Q208 201 202.0 201.0Q196 201 192.0 205.0Q188 209 188 215ZM297 215V228Q297 234 301.0 238.0Q305 242 310.5 242.0Q316 242 320.0 238.0Q324 234 324 228V215Q324 209 320.0 205.0Q316 201 310.5 201.0Q305 201 301.0 205.0Q297 209 297 215Z" fill="#000000" />
<path d="M140 358Q155 373 173 380Q209 377 256 377Q307 377 344 381Q360 371 372 358Q325 348 256.0 348.0Q187 348 140 358Z" fill="#ffffff" />
</g></svg>