<svg xmlns="http://www.w3.org/2000/svg" viewBox="0 0 512 512">
<g transform="matrix(1 0 0 -1 0 512)">
<path d="M455 164Q455 141 445.5 125.0Q436 109 422 107Q409 37 363.0 -6.5Q317 -50 256.0 -50.0Q195 -50 149.0 -6.5Q103 37 90 107Q76 109 66.5 125.0Q57 141 57 164Q57 187 67.5 203.5Q78 220 92 220H93Q109 288 154.0 331.5Q199 375 256.0 375.0Q313 375 358.0 331.5Q403 288 419 220H420Q434 220 444.5 203.5Q455 187 455 164Z" fill="#af7e57" />
<path d="M171 164V192Q171 198 175.0 202.0Q179 206 185.0 206.0Q191 206 195.0 202.0Q199 198 199 192V164Q199 158 195.0 153.5Q191 149 185.0 149.0Q179 149 175.0 153.5Q171 158 171 164ZM313 164V192Q313 198 317.0 202.0Q321 206 327.0 206.0Q333 206 337.0 202.0Q341 198 341 192V164Q341 158 337.0 153.5Q333 149 327.0 149.0Q321 149 317.0 153.5Q313 158 313 164Z" fill="#60352a" />
<path d="M175 26Q165 36 175 46Q184 55 194 46Q209 36 256 36Q304 36 318 46Q327 56 337.5 46.0Q348 36 337 25Q319 7 256.0 7.0Q193 7 175 26ZM270 78H242Q236 78 232.0 82.5Q228 87 228.0 92.5Q228 98 232.0 102.5Q236 107 242 107H270Q276 107 280.0 102.5Q284 98 284.0 92.5Q284 87 280.0 82.5Q276 78 270 78Z" fill="#915a34" />
<path d="M469 268Q469 249 453 238Q455 232 455 225Q455 211 446.5 200.5Q438 190 427 190Q421 190 415 193Q408 171 403 170Q399 169 399 190Q399 217 395 230Q378 218 356 218Q336 218 321.0 227.0Q306 236 301 249Q284 233 256 233Q236 233 220.0 242.5Q204 252 200 266Q195 262 189 259Q153 238 125 248Q114 226 114 190Q114 173 110 173Q105 173 98 194Q92 190 85 190Q74 190 65.5 200.5Q57 211 57 225Q57 232 59 238Q43 249 43 268Q43 288 59 298Q57 304 57 311Q57 324 66.0 334.0Q75 344 88 346Q85 353 85 361Q85 378 97.5 390.5Q110 403 128 403Q136 403 144 400Q148 414 159.0 423.0Q170 432 185 432Q203 432 216 418Q221 430 231.5 438.0Q242 446 256.0 446.0Q270 446 280.5 438.0Q291 430 296 418Q309 432 327 432Q342 432 353.0 423.0Q364 414 368 400Q376 403 384 403Q402 403 414.5 390.5Q427 378 427 361Q427 353 424 346Q437 344 446.0 334.0Q455 324 455 311Q455 304 453 298Q469 288 469 268Z" fill="#60352a" />
</g></svg>