<svg xmlns="http://www.w3.org/2000/svg" viewBox="0 0 512 512">
<g transform="matrix(1 0 0 -1 0 512)">
<path d="M441 -64H71V-14Q71 19 102.0 41.5Q133 64 171 64H341Q379 64 410.0 41.5Q441 19 441 -14Z" fill="#9266cc" />
<path d="M202 3Q156 23 156 60Q156 61 156.5 62.0Q157 63 157 63Q164 64 171 64H341Q348 64 355 63Q355 63 355.5 62.0Q356 61 356 60Q356 23 310 3Q304 -17 289.0 -30.0Q274 -43 256.0 -43.0Q238 -43 223.0 -30.0Q208 -17 202 3Z" fill="#744eaa" />
<path d="M334 64Q334 62 334 60Q334 47 322.5 36.0Q311 25 291 19Q289 2 279.0 -9.5Q269 -21 256.0 -21.0Q243 -21 233.0 -9.5Q223 2 221 19Q201 25 189.5 36.0Q178 47 178 60Q178 62 178 64H204V109H308V64ZM389.0 248.0Q396 237 396.0 221.5Q396 206 389.0 195.0Q382 184 372.5 184.0Q363 184 356.0 195.0Q349 206 349.0 221.5Q349 237 356.0 248.0Q363 259 372.5 259.0Q382 259 389.0 248.0ZM163 221Q163 206 156.0 195.0Q149 184 139.5 184.0Q130 184 123.0 195.0Q116 206 116.0 221.5Q116 237 123.0 248.0Q130 259 139.5 259.0Q149 259 156.0 248.0Q163 237 163 221Z" fill="#d5ab88" />
<path d="M204 90V132H308V90Q290 69 256.0 69.0Q222 69 204 90Z" fill="#cc9b7a" />
<path d="M138 224Q138 287 172.5 331.0Q207 375 255.5 375.0Q304 375 338.0 331.0Q372 287 372 224Q372 163 338.0 120.5Q304 78 255.5 78.0Q207 78 172.5 120.5Q138 163 138 224Z" fill="#d5ab88" />
<path d="M255 113Q232 113 219 126Q212 133 219.0 139.5Q226 146 233 140Q240 133 255 133Q270 133 278 140Q285 146 291.5 139.0Q298 132 291 126Q279 113 255 113Z" fill="#df1f32" />
<path d="M196 206V218Q196 223 199.5 226.5Q203 230 208.0 230.0Q213 230 216.5 226.5Q220 223 220 218V206Q220 201 216.5 197.5Q213 194 208.0 194.0Q203 194 199.5 197.5Q196 201 196 206ZM304 194Q299 194 295.5 197.5Q292 201 292 206V218Q292 223 295.5 226.5Q299 230 304.0 230.0Q309 230 312.5 226.5Q316 223 316 218V206Q316 201 312.5 197.5Q309 194 304 194Z" fill="#662113" />
<path d="M268 156H244Q238 156 238 162V165Q238 171 244 171H268Q274 171 274 165V162Q274 156 268 156Z" fill="#c1694f" />
<path d="M256 310Q252 309 245.5 306.5Q239 304 221.5 297.0Q204 290 190.0 282.5Q176 275 162.5 263.0Q149 251 145 238Q135 260 135 301Q135 339 166.5 365.0Q198 391 241 391H271Q318 391 347.5 365.5Q377 340 377 301Q377 261 367 240Q360 260 332.5 277.5Q305 295 280 302Z" fill="#e6e7e8" />
<path d="M340 316Q360 306 377 293Q376 282 374 270Q344 298 309 310Q308 310 308 310Q293 306 282 301L256 310L253 309Q310 337 368 337Q369 337 369 337Q372 329 374 322Q372 318 368 318Q356 318 340 316ZM137 278Q135 289 135 299Q234 366 336 373Q347 366 356 356Q309 355 259.0 338.5Q209 322 183.5 307.5Q158 293 137 278ZM138 322Q142 337 153 351Q171 362 247 391H271Q291 391 305 387Q215 372 138 322Z" fill="#d1d3d4" />
</g></svg>