<svg xmlns="http://www.w3.org/2000/svg" viewBox="0 0 512 512">
<g transform="matrix(1 0 0 -1 0 512)">
<path d="M512 -64H114V-36Q114 0 139.0 25.0Q164 50 199 50H427Q462 50 487.0 25.0Q512 0 512 -36Z" fill="#ccd6dd" />
<path d="M251 49V103H375V49Q375 29 344.0 21.5Q313 14 282.0 22.0Q251 30 251 49ZM213.0 248.0Q220 237 220.0 221.5Q220 206 213.0 195.0Q206 184 196.5 184.0Q187 184 180.0 195.0Q173 206 173.0 221.5Q173 237 180.0 248.0Q187 259 196.5 259.0Q206 259 213.0 248.0ZM453 221Q453 206 446.0 195.0Q439 184 429.5 184.0Q420 184 413.0 195.0Q406 206 406.0 221.5Q406 237 413.0 248.0Q420 259 429.5 259.0Q439 259 446.0 248.0Q453 237 453 221Z" fill="#d5ab88" />
<path d="M251 79V128H375V79Q353 54 313.0 54.0Q273 54 251 79Z" fill="#cc9b7a" />
<path d="M192 207Q192 266 227.5 308.5Q263 351 313.0 351.0Q363 351 398.5 308.5Q434 266 434.0 206.5Q434 147 398.5 105.0Q363 63 313.0 63.0Q263 63 227.5 105.0Q192 147 192 207Z" fill="#d5ab88" />
<path d="M313 109Q272 109 260 122Q253 128 260 135Q266 141 273 135Q282 128 313 128Q345 128 353 135Q360 141 366.5 134.5Q373 128 366 122Q354 109 313 109ZM324 167H302Q298 167 295.0 170.0Q292 173 292.0 177.5Q292 182 295.0 185.0Q298 188 302 188H324Q328 188 331.0 185.0Q334 182 334.0 177.5Q334 173 331.0 170.0Q328 167 324 167Z" fill="#c1694f" />
<path d="M313 399Q370 399 406.5 364.5Q443 330 443 290Q443 231 431 233Q427 233 423 240L403 280Q343 280 323 300Q323 300 330 279Q332 261 293 300Q293 300 292 288Q285 275 243 310Q239 307 234.0 302.5Q229 298 218.0 280.0Q207 262 202 240Q200 229 193 239Q182 254 182 290Q182 332 216.0 365.5Q250 399 313 399Z" fill="#963b22" />
<path d="M242 220V235Q242 241 246.0 245.0Q250 249 256.0 249.0Q262 249 266.0 245.0Q270 241 270 235V220Q270 215 266.0 210.5Q262 206 256.0 206.0Q250 206 246.0 210.5Q242 215 242 220ZM370 206Q364 206 360.0 210.5Q356 215 356 220V235Q356 241 360.0 245.0Q364 249 370.0 249.0Q376 249 380.0 245.0Q384 241 384 235V220Q384 215 380.0 210.5Q376 206 370 206Z" fill="#662113" />
<path d="M185 50H228V-64H185ZM398 50H441V-64H398Z" fill="#226699" />
<path d="M427 7 441 -64H187L199 7Z" fill="#226699" />
<path d="M442 313Q442 305 426.5 305.0Q411 305 375.5 309.0Q340 313 313.5 313.0Q287 313 251.5 309.0Q216 305 201.0 305.0Q186 305 186 313Q186 335 190.0 353.5Q194 372 206.5 391.5Q219 411 246.0 422.5Q273 434 314 434Q349 434 375.5 422.5Q402 411 415.5 392.0Q429 373 435.5 353.5Q442 334 442 313Z" fill="#3b88c3" />
<path d="M186 313Q208 306 314 306Q362 306 394.0 307.5Q426 309 434 311L442 313Q443 311 443.0 308.0Q443 305 443.0 298.0Q443 291 441.0 285.0Q439 279 434.0 274.5Q429 270 421 270Q417 270 404.5 277.0Q392 284 369.0 291.5Q346 299 314.5 299.0Q283 299 260.0 291.5Q237 284 224.5 277.0Q212 270 208 270Q195 270 189.5 281.0Q184 292 185 302ZM292 427Q292 429 293.0 432.5Q294 436 299.0 442.0Q304 448 313.5 448.0Q323 448 328.5 442.5Q334 437 334 432L335 427Z" fill="#226699" />
<path d="M186 320Q207 313 314 313Q361 313 393.0 314.5Q425 316 433 318L442 320Q442 318 442.5 315.5Q443 313 442.5 305.5Q442 298 440.0 292.5Q438 287 433.0 282.0Q428 277 420 277Q416 277 404.0 284.5Q392 292 368.5 299.0Q345 306 313.5 306.0Q282 306 259.0 299.0Q236 292 223.5 284.5Q211 277 207 277Q194 277 189.0 288.0Q184 299 185 309Z" fill="#55acee" />
<path d="M372.0 -44.5Q363 -39 363.0 -32.0Q363 -25 372.0 -19.5Q381 -14 394.5 -14.0Q408 -14 417.5 -19.5Q427 -25 427.0 -32.0Q427 -39 417.5 -44.5Q408 -50 394.5 -50.0Q381 -50 372.0 -44.5Z" fill="#f5f8fa" />
<path d="M99 171Q135 152 135 112Q135 84 115.5 64.0Q96 44 68.0 44.0Q40 44 20.0 64.0Q0 84 0 112Q0 151 35 171L36 108Q36 102 45.0 98.0Q54 94 67.5 94.0Q81 94 90.5 98.0Q100 102 100 108Z" fill="#66757f" />
<path d="M46 58H89V-64H46Z" fill="#66757f" />
</g></svg>