<svg xmlns="http://www.w3.org/2000/svg" viewBox="0 0 512 512">
<g transform="matrix(1 0 0 -1 0 512)">
<path d="M420 235Q434 235 444.5 218.0Q455 201 455 178Q455 155 445.5 139.0Q436 123 422 121H420Q404 52 358.5 8.0Q313 -36 256.0 -36.0Q199 -36 153.5 8.0Q108 52 92 121H90Q76 123 66.5 139.0Q57 155 57 178Q57 201 67.5 218.0Q78 235 92 235Q104 313 149.5 353.0Q195 393 256.0 393.0Q317 393 362.5 353.0Q408 313 420 235Z" fill="#f2d1a1" />
<path d="M203 40Q193 50 203.0 60.0Q213 70 223 60Q234 50 256.0 50.0Q278 50 289 60Q299 70 309.0 60.0Q319 50 309 40Q290 21 256.0 21.0Q222 21 203 40Z" fill="#df1f32" />
<path d="M270 92H242Q236 92 232.0 96.5Q228 101 228.0 107.0Q228 113 232.0 117.0Q236 121 242 121H270Q276 121 280.0 117.0Q284 113 284.0 107.0Q284 101 280.0 96.5Q276 92 270 92Z" fill="#c1694f" />
<path d="M171 149V178Q171 184 175.0 188.0Q179 192 185.0 192.0Q191 192 195.0 188.0Q199 184 199 178V149Q199 143 195.0 139.0Q191 135 185.0 135.0Q179 135 175.0 139.0Q171 143 171 149ZM313 149V178Q313 184 317.0 188.0Q321 192 327.0 192.0Q333 192 337.0 188.0Q341 184 341 178V149Q341 143 337.0 139.0Q333 135 327.0 135.0Q321 135 317.0 139.0Q313 143 313 149Z" fill="#662113" />
</g></svg>