<svg xmlns="http://www.w3.org/2000/svg" viewBox="0 0 512 512">
<g transform="matrix(1 0 0 -1 0 512)">
<path d="M498 -64H128V-14Q128 19 159.0 41.5Q190 64 228 64H398Q436 64 467.0 41.5Q498 19 498 -14Z" fill="#3b88c3" />
<path d="M313 -64 228 64H398Z" fill="#292f33" />
<path d="M206 64Q242 79 242 64Q242 50 249.0 41.0Q256 32 268.0 24.0Q280 16 284 12Q294 1 298.5 -5.0Q303 -11 308.0 -26.5Q313 -42 313 -64Q278 -42 256 -18Q235 4 220.5 28.0Q206 52 206 64ZM420 64Q420 52 405.5 28.0Q391 4 370 -18Q360 -29 345.5 -40.5Q331 -52 322 -58L313 -64Q313 -42 318.0 -26.5Q323 -11 327.5 -5.0Q332 1 341 12Q345 16 357.5 24.0Q370 32 377.0 41.0Q384 50 384 64Q384 71 393.0 71.0Q402 71 411 67L420 64Z" fill="#55acee" />
<path d="M312 376Q331 376 350.5 372.0Q370 368 392.0 357.5Q414 347 430.0 330.0Q446 313 457.0 284.5Q468 256 468 220Q468 118 463.5 91.5Q459 65 439 65Q428 65 386.5 79.5Q345 94 312.0 94.0Q279 94 238.0 79.5Q197 65 186 65Q156 65 156 210Q156 217 156 220Q156 256 167.0 284.5Q178 313 194.5 330.0Q211 347 232.5 357.5Q254 368 273.5 372.0Q293 376 312 376Z" fill="#60352a" />
<path d="M261 64V109H365V64Q346 50 313.0 50.0Q280 50 261 64Z" fill="#af7e57" />
<path d="M261 90V132H365V90Q346 69 312.5 69.0Q279 69 261 90Z" fill="#9b6a49" />
<path d="M195 224Q195 287 229.5 331.0Q264 375 312.0 375.0Q360 375 394.5 331.0Q429 287 429 224Q429 163 395.0 120.5Q361 78 312.0 78.0Q263 78 229.0 120.5Q195 163 195 224Z" fill="#af7e57" />
<path d="M312 113Q288 113 276 126Q269 133 276.0 139.5Q283 146 290 140Q297 133 312.0 133.0Q327 133 335 140Q342 146 348.5 139.0Q355 132 348 126Q336 113 312 113Z" fill="#df1f32" />
<path d="M325 156H301Q295 156 295 162V165Q295 171 301 171H325Q331 171 331 165V162Q331 156 325 156Z" fill="#915a34" />
<path d="M167 178H157Q156 186 156 224Q156 269 172.0 304.0Q188 339 212.5 358.5Q237 378 262.5 387.5Q288 397 312.0 397.0Q336 397 361.5 387.0Q387 377 411.5 358.0Q436 339 452.0 303.5Q468 268 468 223Q468 206 468 178H458V185V184Q458 201 453.5 203.5Q449 206 443.5 201.0Q438 196 433.5 197.0Q429 198 429 211Q429 238 406.0 253.5Q383 269 351 269Q334 269 312.0 276.5Q290 284 277 291L263 298Q244 279 234 270Q229 265 220.0 257.5Q211 250 207.0 246.0Q203 242 199.0 233.0Q195 224 195 212Q195 201 190.5 200.0Q186 199 180.5 203.5Q175 208 170.5 204.5Q166 201 166 184Q166 186 167 184Q167 182 167 178Z" fill="#60352a" />
<path d="M213.0 248.0Q220 237 220.0 221.5Q220 206 213.0 195.0Q206 184 196.5 184.0Q187 184 180.0 195.0Q173 206 173.0 221.5Q173 237 180.0 248.0Q187 259 196.5 259.0Q206 259 213.0 248.0ZM453 221Q453 206 446.0 195.0Q439 184 429.5 184.0Q420 184 413.0 195.0Q406 206 406.0 221.5Q406 237 413.0 248.0Q420 259 429.5 259.0Q439 259 446.0 248.0Q453 237 453 221Z" fill="#af7e57" />
<path d="M207.5 182.5Q192 198 192.0 220.5Q192 243 207.5 258.5Q223 274 245.0 274.0Q267 274 283.0 258.5Q299 243 299.0 220.5Q299 198 283.0 182.5Q267 167 245.0 167.0Q223 167 207.5 182.5ZM342.5 182.5Q327 198 327.0 220.5Q327 243 342.5 258.5Q358 274 380.5 274.0Q403 274 418.5 258.5Q434 243 434.0 220.5Q434 198 418.5 182.5Q403 167 380.5 167.0Q358 167 342.5 182.5Z" fill="#9b6a49" />
<path d="M277 235H348V199H277Z" fill="#9b6a49" />
<path d="M213.5 192.5Q199 207 199.0 227.5Q199 248 213.5 262.5Q228 277 249.0 277.0Q270 277 284.5 262.5Q299 248 299.0 227.5Q299 207 284.5 192.5Q270 178 249.0 178.0Q228 178 213.5 192.5ZM341.5 192.5Q327 207 327.0 227.5Q327 248 341.5 262.5Q356 277 377.0 277.0Q398 277 412.5 262.5Q427 248 427.0 227.5Q427 207 412.5 192.5Q398 178 377.0 178.0Q356 178 341.5 192.5Z" fill="#e1e8ed" />
<path d="M277 249H348V213H277Z" fill="#e1e8ed" />
<path d="M223.5 202.5Q213 213 213.0 227.5Q213 242 223.5 252.5Q234 263 249.0 263.0Q264 263 274.0 252.5Q284 242 284.0 227.5Q284 213 274.0 202.5Q264 192 249.0 192.0Q234 192 223.5 202.5ZM351.5 202.5Q341 213 341.0 227.5Q341 242 351.5 252.5Q362 263 377.0 263.0Q392 263 402.0 252.5Q412 242 412.0 227.5Q412 213 402.0 202.5Q392 192 377.0 192.0Q362 192 351.5 202.5Z" fill="#292f33" />
<path d="M71 107Q74 103 79.0 95.0Q84 87 92.0 61.5Q100 36 100 7V-64H71V7Q71 29 65.5 50.5Q60 72 55 82L50 92Z" fill="#66757f" />
<path d="M86 109Q92 100 82 94L52 78Q42 72 37 82L30 94Q25 103 35 109L65 125Q75 131 80 121Z" fill="#99aab5" />
<path d="M50 127Q32 118 21.5 124.0Q11 130 6.5 145.0Q2 160 0.5 175.5Q-1 191 0 204L1 216Q4 214 9.0 211.0Q14 208 26.5 200.0Q39 192 47.5 183.0Q56 174 63.0 164.0Q70 154 67.0 144.0Q64 134 50 127Z" fill="#f4900c" />
<path d="M42 144Q28 137 21.5 148.5Q15 160 16 176V191Q18 190 20.5 188.5Q23 187 30.0 182.5Q37 178 41.5 173.5Q46 169 49.5 163.5Q53 158 51.0 153.0Q49 148 42 144Z" fill="#ffdc5d" />
<path d="M484 292Q484 292 484 292Q495 284 474 276Q423 259 313 259Q214 259 159 274Q129 283 142 292Q161 304 165.5 319.5Q170 335 172.0 355.0Q174 375 185 391Q206 421 234.0 434.5Q262 448 313 448Q401 448 441 391Q452 375 454.0 355.0Q456 335 460.5 319.5Q465 304 484 292Z" fill="#3b88c3" />
<path d="M284 284H277Q223 284 151 298Q157 304 161 311Q222 300 270 299V445Q277 446 284 447ZM348 284H341V446Q350 445 356 444V299Q406 300 465 311Q469 304 475 298Q406 284 348 284Z" fill="#226699" />
</g></svg>