<svg xmlns="http://www.w3.org/2000/svg" viewBox="0 0 2048 2048">
<g transform="matrix(1 0 0 -1 0 2048)">
<path d="M441 -64H71V-14Q71 19 102.0 41.5Q133 64 171 64H341Q379 64 410.0 41.5Q441 19 441 -14Z" fill="#f2760f" />
<path d="M411 220Q411 118 406.5 91.5Q402 65 382 65Q371 65 329.5 79.5Q288 94 255.0 94.0Q222 94 181.0 79.5Q140 65 129 65Q99 65 99 210Q99 217 99 220Q100 256 110.5 284.5Q121 313 137.5 330.0Q154 347 175.5 357.5Q197 368 216.5 372.0Q236 376 255.5 376.0Q275 376 294.0 372.0Q313 368 335.0 357.5Q357 347 373.0 330.0Q389 313 400.0 284.5Q411 256 411 220ZM199 64H313Q312 61 311.0 56.5Q310 52 305.0 39.5Q300 27 294.0 17.5Q288 8 278.0 0.5Q268 -7 256 -7Q247 -7 239.5 -3.0Q232 1 226.5 7.0Q221 13 216.0 20.5Q211 28 208.0 36.0Q205 44 203.0 50.0Q201 56 200 60L199 64Z" fill="#292f33" />
<path d="M185 64H327V7H185Z" fill="#292f33" />
<path d="M204 64V109H308V64Q289 50 256.0 50.0Q223 50 204 64Z" fill="#f7dece" />
<path d="M204 90V132H308V90Q290 69 256.0 69.0Q222 69 204 90Z" fill="#eec2ad" />
<path d="M138 224Q138 287 172.5 331.0Q207 375 255.5 375.0Q304 375 338.0 331.0Q372 287 372 224Q372 163 338.0 120.5Q304 78 255.5 78.0Q207 78 172.5 120.5Q138 163 138 224Z" fill="#f7dece" />
<path d="M255 113Q232 113 219 126Q212 133 219.0 139.5Q226 146 233 140Q240 133 255.0 133.0Q270 133 278 140Q285 146 291.5 139.0Q298 132 291 126Q279 113 255 113Z" fill="#df1f32" />
<path d="M110 178H100Q100 186 100 224Q100 269 115.5 304.0Q131 339 155.5 358.5Q180 378 206.0 387.5Q232 397 255.5 397.0Q279 397 304.5 387.0Q330 377 354.5 358.0Q379 339 395.0 303.5Q411 268 411 223Q411 206 411 178H401V185V184Q401 201 396.5 203.5Q392 206 386.5 201.0Q381 196 376.5 197.0Q372 198 372 211Q372 238 349.0 253.5Q326 269 294 269Q277 269 255.0 276.5Q233 284 220 291L207 298Q187 279 177 270Q172 265 163.5 257.5Q155 250 150.5 246.0Q146 242 142.0 233.0Q138 224 138 212Q138 201 133.5 200.0Q129 199 123.5 203.5Q118 208 113.5 204.5Q109 201 109 184Q110 186 110 184Q110 182 110 178ZM270 -49 256 -64 242 -50 228 7H277Z" fill="#292f33" />
<path d="M196 206V218Q196 223 199.5 226.5Q203 230 208.0 230.0Q213 230 216.5 226.5Q220 223 220 218V206Q220 201 216.5 197.5Q213 194 208.0 194.0Q203 194 199.5 197.5Q196 201 196 206ZM304 194Q299 194 295.5 197.5Q292 201 292 206V218Q292 223 295.5 226.5Q299 230 304.0 230.0Q309 230 312.5 226.5Q316 223 316 218V206Q316 201 312.5 197.5Q309 194 304 194Z" fill="#662113" />
<path d="M268 156H244Q238 156 238 162V165Q238 171 244 171H268Q274 171 274 165V162Q274 156 268 156Z" fill="#c1694f" />
<path d="M156.0 248.0Q163 237 163.0 221.5Q163 206 156.0 195.0Q149 184 139.5 184.0Q130 184 123.0 195.0Q116 206 116.0 221.5Q116 237 123.0 248.0Q130 259 139.5 259.0Q149 259 156.0 248.0ZM396 221Q396 206 389.0 195.0Q382 184 372.5 184.0Q363 184 356.0 195.0Q349 206 349.0 221.5Q349 237 356.0 248.0Q363 259 372.5 259.0Q382 259 389.0 248.0Q396 237 396 221Z" fill="#f7dece" />
<path d="M341 64H384V-64H341ZM128 64H171V-64H128ZM427 292Q427 292 427 292Q438 284 417 276Q367 259 256 259Q158 259 102 274Q72 283 85 292Q104 304 108.5 319.5Q113 335 115.0 355.0Q117 375 128 391Q149 421 177.0 434.5Q205 448 256 448Q344 448 384 391Q395 375 397.0 355.0Q399 335 403.5 319.5Q408 304 427 292Z" fill="#fff75f" />
<path d="M149 64Q185 79 185 64Q185 50 192.0 41.0Q199 32 211.0 24.0Q223 16 228 12Q237 1 241.5 -5.0Q246 -11 251.0 -26.5Q256 -42 256 -64Q222 -42 199 -18Q178 4 163.5 28.0Q149 52 149 64ZM363 64Q363 52 348.5 28.0Q334 4 313 -18Q303 -29 288.5 -40.5Q274 -52 265 -58L256 -64Q256 -42 261.0 -26.5Q266 -11 270.5 -5.0Q275 1 284 12Q289 16 301.0 24.0Q313 32 320.0 41.0Q327 50 327 64Q327 71 336.0 71.0Q345 71 354 67L363 64Z" fill="#55acee" />
<path d="M228 284H220Q166 284 94 298Q101 304 104 311Q165 300 213 299V445Q220 446 228 447ZM410 307Q415 300 424 294Q341 284 292 284H284V446Q293 445 299 444V299Q344 299 410 307Z" fill="#ffac33" />
</g></svg>