<svg xmlns="http://www.w3.org/2000/svg" viewBox="0 0 512 512">
<g transform="matrix(1 0 0 -1 0 512)">
<path d="M498 156Q512 146 512 128Q512 103 489 95Q498 84 498 71Q498 58 489.5 48.0Q481 38 468 36Q469 32 469 28Q469 14 459.0 3.5Q449 -7 434 -7Q420 -7 410 2Q402 -21 377 -21Q364 -21 353 -12Q345 -36 320 -36Q307 -36 297.0 -27.5Q287 -19 285 -6Q269 -7 256.0 -7.0Q243 -7 227 -6Q225 -19 215.0 -27.5Q205 -36 192 -36Q167 -36 159 -12Q148 -21 135 -21Q110 -21 102 2Q92 -7 78 -7Q63 -7 53.0 3.5Q43 14 43 28Q43 32 44 36Q31 38 22.5 48.0Q14 58 14 71Q14 84 23 95Q0 103 0 128Q0 146 14 156Q0 167 0 185Q0 210 23 218Q14 228 14 242Q14 257 24.5 267.0Q35 277 50 277Q43 287 43 299Q43 313 53.0 323.5Q63 334 78 334Q89 334 98 328Q128 365 169.5 385.0Q211 405 256 405Q300 405 340.0 384.0Q380 363 411 326Q421 334 434 334Q449 334 459.0 323.5Q469 313 469 299Q469 287 462 277Q477 277 487.5 267.0Q498 257 498 242Q498 228 489 218Q512 210 512 185Q512 167 498 156Z" fill="#ffe51e" />
<path d="M135.0 28.5Q85 93 85.0 184.0Q85 275 135.0 339.5Q185 404 256.0 404.0Q327 404 377.0 339.5Q427 275 427.0 184.0Q427 93 377.0 28.5Q327 -36 256.0 -36.0Q185 -36 135.0 28.5Z" fill="#f3d2a2" />
<path d="M203 40Q193 50 203.0 60.0Q213 70 223 60Q234 50 256.0 50.0Q278 50 289 60Q299 70 309.0 60.0Q319 50 309 40Q290 21 256.0 21.0Q222 21 203 40Z" fill="#df1f32" />
<path d="M270 92H242Q236 92 232.0 96.5Q228 101 228.0 107.0Q228 113 232.0 117.0Q236 121 242 121H270Q276 121 280.0 117.0Q284 113 284.0 107.0Q284 101 280.0 96.5Q276 92 270 92Z" fill="#c1694f" />
<path d="M171 149V178Q171 184 175.0 188.0Q179 192 185.0 192.0Q191 192 195.0 188.0Q199 184 199 178V149Q199 143 195.0 139.0Q191 135 185.0 135.0Q179 135 175.0 139.0Q171 143 171 149ZM313 149V178Q313 184 317.0 188.0Q321 192 327.0 192.0Q333 192 337.0 188.0Q341 184 341 178V149Q341 143 337.0 139.0Q333 135 327.0 135.0Q321 135 317.0 139.0Q313 143 313 149Z" fill="#662113" />
<path d="M424 315Q441 286 441 263Q441 259 439 255Q441 248 441 242Q441 221 428.5 206.5Q416 192 398 192Q384 192 372.5 202.0Q361 212 357 228Q340 206 313 206Q292 206 276.5 219.5Q261 233 257 253Q240 235 213 235Q190 235 174.0 248.5Q158 262 157 282Q120 269 102.5 229.5Q85 190 90 138Q92 119 85 123Q72 132 59 180Q48 221 55 244Q67 280 90 313Q71 326 71 348Q71 366 83.5 378.5Q96 391 114 391Q122 391 130 388Q133 402 144.5 411.0Q156 420 171 420Q182 420 192 414Q204 434 228 434Q244 434 256 423Q268 434 284 434Q308 434 320 414Q330 420 341 420Q356 420 367.5 411.0Q379 402 382 388Q390 391 398 391Q416 391 428.5 378.5Q441 366 441 348Q441 328 424 315Z" fill="#ffe51e" />
</g></svg>