<svg xmlns="http://www.w3.org/2000/svg" viewBox="0 0 2048 2048">
<g transform="matrix(1 0 0 -1 0 2048)">
<path d="M498 192Q498 148 501.5 84.0Q505 20 508 -22L512 -64H0Q14 93 14 192Q14 360 114 420Q145 439 180.5 441.5Q216 444 236 437L256 431V430V431Q259 432 264.0 434.0Q269 436 285.5 439.0Q302 442 318.0 442.0Q334 442 356.0 437.0Q378 432 398 420Q498 360 498 192Z" fill="#e6e7e8" />
<path d="M370 50Q405 50 430.0 25.0Q455 0 455 -36V-64H57V-36Q57 0 82.0 25.0Q107 50 142 50Z" fill="#ffffff" />
<path d="M194 48V103H318V48Q296 32 283.5 25.5Q271 19 256.0 19.0Q241 19 228.5 25.5Q216 32 194 48ZM156.0 248.0Q163 237 163.0 221.5Q163 206 156.0 195.0Q149 184 139.5 184.0Q130 184 123.0 195.0Q116 206 116.0 221.5Q116 237 123.0 248.0Q130 259 139.5 259.0Q149 259 156.0 248.0ZM396 221Q396 206 389.0 195.0Q382 184 372.5 184.0Q363 184 356.0 195.0Q349 206 349.0 221.5Q349 237 356.0 248.0Q363 259 372.5 259.0Q382 259 389.0 248.0Q396 237 396 221Z" fill="#f7dece" />
<path d="M194 79V128H318V79Q296 54 256.0 54.0Q216 54 194 79Z" fill="#eec2ad" />
<path d="M135 207Q135 266 170.5 308.5Q206 351 256.0 351.0Q306 351 341.5 308.5Q377 266 377.0 206.5Q377 147 341.5 105.0Q306 63 256.0 63.0Q206 63 170.5 105.0Q135 147 135 207Z" fill="#f7dece" />
<path d="M256 399Q313 399 350.0 364.5Q387 330 387 290Q387 231 374 233Q370 233 366 240L346 280Q286 280 266 300Q266 300 274 279Q275 261 236 300Q236 300 235 288Q228 275 186 310Q182 307 177.0 302.5Q172 298 161.0 280.0Q150 262 146 240Q143 229 136 239Q125 254 125 290Q125 332 159.0 365.5Q193 399 256 399Z" fill="#292f33" />
<path d="M203 122Q196 128 203 135Q209 141 216 135Q225 128 256 128Q288 128 296 135Q303 141 309.5 134.5Q316 128 309 122Q297 109 256.0 109.0Q215 109 203 122ZM267 167H245Q241 167 238.0 170.0Q235 173 235.0 177.5Q235 182 238.0 185.0Q241 188 245 188H267Q271 188 274.0 185.0Q277 182 277.0 177.5Q277 173 274.0 170.0Q271 167 267 167Z" fill="#c1694f" />
<path d="M299 220V235Q299 241 303.0 245.0Q307 249 313.0 249.0Q319 249 323.0 245.0Q327 241 327 235V220Q327 215 323.0 210.5Q319 206 313.0 206.0Q307 206 303.0 210.5Q299 215 299 220ZM199 206Q193 206 189.0 210.5Q185 215 185 220V235Q185 241 189.0 245.0Q193 249 199.0 249.0Q205 249 209.0 245.0Q213 241 213 235V220Q213 215 209.0 210.5Q205 206 199 206Z" fill="#662113" />
<path d="M329 379Q346 369 358 355Q314 348 256 348Q196 348 151 356Q163 370 180 380Q214 377 256 377Q295 377 329 379Z" fill="#ffffff" />
</g></svg>