<svg xmlns="http://www.w3.org/2000/svg" viewBox="0 0 512 512">
<g transform="matrix(1 0 0 -1 0 512)">
<path d="M114 21Q107 21 94 24Q89 25 79.0 24.5Q69 24 59 27Q50 29 42.0 32.5Q34 36 31 39L27 41L28 44Q29 50 38 48Q39 48 40.0 47.5Q41 47 43.0 47.0Q45 47 46 46Q53 46 58 47Q60 48 65.5 49.5Q71 51 74 52L85 55Q88 45 98 43Q102 42 104.5 42.5Q107 43 110.5 43.5Q114 44 114 44Q116 44 117 42Q117 41 117.0 35.5Q117 30 116 27Z" fill="#292f33" />
<path d="M84 20Q83 20 72 21Q63 21 56 23Q48 25 35 32Q28 36 25 38Q25 39 25 40L27 42Q30 40 35 37Q45 31 57 28Q68 25 80 25Q94 26 104 23Q107 22 115 22L113 13Q112 11 110 11Q109 11 97.5 13.0Q86 15 86.0 15.5Q86 16 85.5 17.5Q85 19 84 20Z" fill="#292f33" />
<path d="M339 203Q341 187 336.5 173.5Q332 160 321 156Q315 154 304.0 153.5Q293 153 285 154L278 155Q277 154 275.5 152.5Q274 151 272.0 146.5Q270 142 272 137Q272 135 273.5 132.5Q275 130 275.5 128.5Q276 127 275 127Q275 127 266 127Q260 127 236 131Q229 132 218.5 133.5Q208 135 200 136Q172 141 164 161Q160 171 165.5 182.5Q171 194 185 200Q191 204 205.5 204.5Q220 205 240.5 204.0Q261 203 263 203Q267 203 277.0 204.5Q287 206 296.5 208.0Q306 210 315.5 211.0Q325 212 331.5 210.0Q338 208 339 203Z" fill="#4289c1" />
<path d="M96 40Q84 42 75 53Q84 66 95.5 93.0Q107 120 113 140L119 161Q132 204 162 205H244Q259 204 262.0 201.0Q265 198 262.0 193.5Q259 189 265 183Q272 174 258.0 163.5Q244 153 228 152Q224 152 213.0 152.0Q202 152 199.5 152.0Q197 152 189.0 151.0Q181 150 178.0 149.0Q175 148 169.0 146.0Q163 144 159.0 141.0Q155 138 150 133Q146 117 134.0 86.5Q122 56 118 39Q113 38 96 40Z" fill="#4289c1" />
<path d="M311 436Q326 428 331.0 411.5Q336 395 328 378Q316 354 272 352Q257 352 252.0 374.0Q247 396 252 413Q256 430 276.0 437.0Q296 444 311 436Z" fill="#d4ab88" />
<path d="M321 373Q314 365 316 346V345Q317 332 314 323Q308 307 294 316Q282 323 287 338Q289 343 289.5 347.5Q290 352 287.5 355.0Q285 358 283 358L281 359Q279 359 276.0 360.5Q273 362 269.5 365.5Q266 369 268 373Q271 377 271.5 386.5Q272 396 273.5 402.0Q275 408 281 408Q283 408 286.5 407.5Q290 407 299.0 406.0Q308 405 314.0 402.5Q320 400 325.5 396.5Q331 393 330.0 387.0Q329 381 321 373Z" fill="#d4ab88" />
<path d="M334 425Q342 411 340.5 396.5Q339 382 332 370Q328 364 324.5 361.0Q321 358 320 358H319Q308 363 302 376Q301 377 306.0 383.0Q311 389 310 396Q309 403 302.5 402.5Q296 402 293 396Q278 424 255 412Q250 410 249 417Q245 433 269 441Q313 454 334 425Z" fill="#963b22" />
<path d="M326 410Q315 412 327 418Q347 430 363 417Q365 416 367 414Q372 402 371.5 396.5Q371 391 366.5 380.0Q362 369 361 362Q360 356 361.5 350.5Q363 345 364 342L366 339Q349 340 345 359Q344 367 345.5 377.5Q347 388 343.0 398.0Q339 408 326 410Z" fill="#963b22" />
<path d="M346 208Q346 201 346.0 193.0Q346 185 346.0 183.0Q346 181 346 175Q347 171 319 177Q307 180 294.0 184.5Q281 189 274 192L268 195Q268 197 270.0 206.0Q272 215 272.0 220.0Q272 225 272.0 233.0Q272 241 268.5 248.5Q265 256 259 263Q254 269 255.0 281.5Q256 294 264 306Q287 342 306 344Q324 346 336 327Q350 315 352.5 309.0Q355 303 351.0 296.0Q347 289 347 283Q348 267 347.0 241.5Q346 216 346 208Z" fill="#9268ca" />
<path d="M192 63Q184 63 185.0 70.0Q186 77 193 77L347 63Q354 63 353.5 56.0Q353 49 345 49Z" fill="#dd2e44" />
<path d="M339 57 345 128Q346 135 353.0 134.5Q360 134 359 127L353 56Q353 49 345.5 49.5Q338 50 339 57ZM199 149 185 -16Q184 -23 177.0 -22.0Q170 -21 171 -14L185 151Q186 158 193.0 157.0Q200 156 199 149Z" fill="#dd2e44" />
<path d="M335 155Q372 161 369 150Q369 149 368 147Q349 120 319 123Q298 125 316 144Q326 154 335 155Z" fill="#292f33" />
<path d="M319 123 178 136Q167 136 165.5 138.0Q164 140 165 151Q165 157 169.5 160.5Q174 164 180 164L322 151Q328 151 331.5 146.5Q335 142 335 136Q334 125 332.0 123.5Q330 122 319 123ZM388 314 376 172Q375 161 373.0 159.5Q371 158 360 159Q354 159 350.5 163.5Q347 168 347 174L360 316Q360 322 364.5 325.5Q369 329 375 329Q386 328 387.5 326.0Q389 324 388 314Z" fill="#292f33" />
<path d="M327 119 171 133Q164 133 164.5 140.0Q165 147 172 147L328 133Q335 133 334.5 125.5Q334 118 327 119ZM394 320 381 164Q380 157 373.0 157.5Q366 158 366 165L380 321Q381 328 388.0 327.5Q395 327 394 320Z" fill="#dd2e44" />
<path d="M350 185 243 194Q235 195 233.5 196.5Q232 198 233 206Q234 216 245 215L352 206Q363 205 362 194Q361 186 359.5 185.0Q358 184 350 185Z" fill="#292f33" />
<path d="M321 134Q326 132 333.5 133.0Q341 134 348.0 136.5Q355 139 360.5 148.5Q366 158 367 173Q369 193 373.0 201.0Q377 209 380.0 200.0Q383 191 381 171Q376 115 320 120Q306 121 301.0 125.0Q296 129 301.5 132.0Q307 135 321 134ZM172 147Q195 145 196 137Q198 130 178 132Q169 133 166.5 129.5Q164 126 161 117Q161 114 156.5 98.0Q152 82 149 70Q146 58 139.5 60.5Q133 63 135 73Q143 103 150 130Q153 140 157.5 144.0Q162 148 172 147Z" fill="#dd2e44" />
<path d="M333.5 42.0Q327 48 327.0 57.0Q327 66 333.5 72.0Q340 78 348.5 78.0Q357 78 363.5 72.0Q370 66 370.0 57.0Q370 48 363.5 42.0Q357 36 348.5 36.0Q340 36 333.5 42.0Z" fill="#66757f" />
<path d="M444 10 437 -3 351 47 301 -39 289 -32 339 54 253 104 260 116 346 67 396 153 408 146 358 59Z" fill="#66757f" />
<path d="M383 -44 369 -48 343 48 247 22 244 36 340 62 314 158 328 162 353 66 450 91 453 78 357 52Z" fill="#66757f" />
<path d="M263.0 142.5Q298 178 348.5 178.0Q399 178 434.0 142.5Q469 107 469.0 57.0Q469 7 434.0 -28.5Q399 -64 348.5 -64.0Q298 -64 263.0 -28.5Q228 7 228.0 57.0Q228 107 263.0 142.5ZM283.0 -8.5Q310 -36 348.5 -36.0Q387 -36 414.0 -8.5Q441 19 441.0 57.0Q441 95 414.0 122.0Q387 149 348.5 149.0Q310 149 283.0 122.0Q256 95 256.0 57.0Q256 19 283.0 -8.5Z" fill="#292f33" />
<path d="M273.0 132.5Q304 164 348.5 164.0Q393 164 424.0 132.5Q455 101 455.0 57.0Q455 13 424.0 -18.5Q393 -50 348.5 -50.0Q304 -50 273.0 -18.5Q242 13 242.0 57.0Q242 101 273.0 132.5ZM283.0 -8.5Q310 -36 348.5 -36.0Q387 -36 414.0 -8.5Q441 19 441.0 57.0Q441 95 414.0 122.0Q387 149 348.5 149.0Q310 149 283.0 122.0Q256 95 256.0 57.0Q256 19 283.0 -8.5ZM218 -29 211 -42 180 -24 163 -55 150 -48 168 -17 137 1 144 13 175 -5 193 26 205 19 187 -12Z" fill="#66757f" />
<path d="M142.5 21.0Q157 36 177.5 36.0Q198 36 213.0 21.0Q228 6 228.0 -14.5Q228 -35 213.0 -49.5Q198 -64 177.5 -64.0Q157 -64 142.5 -49.5Q128 -35 128.0 -14.5Q128 6 142.5 21.0ZM152.5 -39.5Q163 -50 178.0 -50.0Q193 -50 203.0 -39.5Q213 -29 213.0 -14.0Q213 1 203.0 11.0Q193 21 178.0 21.0Q163 21 152.5 11.0Q142 1 142.0 -14.0Q142 -29 152.5 -39.5Z" fill="#292f33" />
<path d="M151 79 129 -4Q127 -11 120.5 -9.0Q114 -7 116 0L138 82Q139 89 146.0 87.0Q153 85 151 79ZM428 306 386 314Q379 315 380.5 322.0Q382 329 389 328L431 320Q438 319 436.5 312.0Q435 305 428 306Z" fill="#dd2e44" />
<path d="M121 -9 66 6Q59 8 60.5 14.5Q62 21 69 20L124 5Q131 3 129.0 -4.0Q127 -11 121 -9Z" fill="#66757f" />
<path d="M442 304 405 310Q401 311 402.0 318.0Q403 325 407 324L445 318Q452 317 450.5 310.0Q449 303 442 304Z" fill="#292f33" />
<path d="M322 293Q337 314 346 320Q383 285 391 267Q399 257 392.5 223.5Q386 190 386 189Q387 165 387 164Q386 159 382.5 154.0Q379 149 375.0 148.5Q371 148 369 151Q367 154 366.5 160.5Q366 167 364.5 171.0Q363 175 359 175Q359 178 364.0 185.0Q369 192 370 196Q371 203 368.0 223.5Q365 244 367 255Q367 256 359.5 262.5Q352 269 340.0 278.0Q328 287 322 293Z" fill="#d4ab88" />
</g></svg>