<svg xmlns="http://www.w3.org/2000/svg" viewBox="0 0 512 512">
<g transform="matrix(1 0 0 -1 0 512)">
<path d="M312 434Q326 426 329.5 409.5Q333 393 324 378Q311 356 269 358Q255 359 251.5 380.0Q248 401 255 418Q260 434 279.5 438.5Q299 443 312 434Z" fill="#f7dece" />
<path d="M317 373Q310 367 310 348Q310 335 307 327Q300 312 287 321Q276 329 282 343Q284 348 285 352Q286 362 278 363Q276 364 273.5 365.5Q271 367 267.5 371.0Q264 375 267 378Q270 382 271.0 391.0Q272 400 274.5 405.5Q277 411 282 410Q284 410 287.0 409.5Q290 409 298.5 407.0Q307 405 312.5 402.5Q318 400 323.0 396.0Q328 392 326.5 386.0Q325 380 317 373Z" fill="#f7dece" />
<path d="M333 423Q340 408 337.5 394.5Q335 381 327 370Q323 364 319.5 361.5Q316 359 315 359L314 360Q302 366 298 381Q311 381 310 397Q310 403 306.0 405.5Q302 408 298 403Q297 402 295.5 399.0Q294 396 292.0 395.0Q290 394 287 394Q286 394 286.5 397.0Q287 400 287.5 404.0Q288 408 287 411Q285 417 277.0 418.5Q269 420 257 416Q254 415 251.5 419.0Q249 423 248.5 428.5Q248 434 253 440Q254 440 256.0 440.0Q258 440 263.0 440.5Q268 441 273 442Q315 454 333 423ZM117 20Q110 19 98 23Q92 24 82.0 23.5Q72 23 62 26Q53 28 45.5 31.5Q38 35 34 38L30 40L31 42Q33 48 42 47Q42 47 43.0 46.5Q44 46 46.0 45.5Q48 45 50 45Q56 44 61 46Q63 46 68.5 48.0Q74 50 77 51L89 54Q91 44 101 42Q105 41 108.0 41.5Q111 42 114.5 42.5Q118 43 118 43Q119 43 120 40Q120 40 120.0 34.5Q120 29 119 26Z" fill="#292f33" />
<path d="M88 18Q87 19 76 19Q66 20 59 21Q51 23 38 30Q31 34 29 37Q28 38 28 38L30 41Q33 38 38 35Q48 30 60 27Q71 24 83 24Q98 24 107 22Q110 21 118 21Q119 21 119 20L116 11Q116 9 114 10Q112 10 100.5 12.0Q89 14 89.0 14.5Q89 15 88.5 16.5Q88 18 88 18Z" fill="#292f33" />
<path d="M342 202Q344 186 339.5 172.5Q335 159 324 155Q318 153 307.0 152.5Q296 152 289 153H281Q280 153 278.5 151.5Q277 150 275.0 145.5Q273 141 275 136Q276 133 277.0 130.5Q278 128 278.5 127.0Q279 126 279 126Q279 126 269 126Q263 125 239 130Q232 131 221.5 132.5Q211 134 203 135Q176 140 168 160Q163 170 168.5 181.5Q174 193 188 199Q210 210 266 209Q268 209 290.5 211.0Q313 213 327.0 211.5Q341 210 342 202Z" fill="#4289c1" />
<path d="M98 38Q80 40 76 54Q84 66 94.5 94.0Q105 122 112 143L119 165Q126 189 135.0 202.0Q144 215 159 214L240 206Q255 205 259.5 202.0Q264 199 264.0 192.0Q264 185 268 181Q275 173 261.0 162.0Q247 151 231 151Q227 151 216.0 151.0Q205 151 202.5 150.5Q200 150 192.0 149.5Q184 149 181.0 148.0Q178 147 172.5 145.0Q167 143 162.5 140.0Q158 137 154 132Q149 116 137.0 85.5Q125 55 121 38Q117 36 114.0 36.0Q111 36 109.0 36.0Q107 36 103.5 37.0Q100 38 98 38Z" fill="#4289c1" />
<path d="M351 218Q351 196 347 196Q337 198 317.5 199.0Q298 200 284 199L270 198Q267 208 265.5 222.5Q264 237 263.5 257.5Q263 278 262 288Q260 317 273.5 336.0Q287 355 302 352Q315 349 324 341Q326 339 332.5 332.0Q339 325 340 324Q347 317 347.5 312.0Q348 307 346.0 300.5Q344 294 345 287Q350 259 351 218Z" fill="#77b255" />
<path d="M192 63Q184 63 185.0 70.0Q186 77 193 77L347 63Q354 63 353.5 56.0Q353 49 345 49Z" fill="#dd2e44" />
<path d="M339 57 345 128Q346 135 353.0 134.5Q360 134 359 127L353 56Q353 49 345.5 49.5Q338 50 339 57ZM199 149 185 -16Q184 -23 177.0 -22.0Q170 -21 171 -14L185 151Q186 158 193.0 157.0Q200 156 199 149Z" fill="#dd2e44" />
<path d="M335 155Q372 161 369 150Q369 149 368 147Q349 120 319 123Q298 125 316 144Q326 154 335 155Z" fill="#292f33" />
<path d="M319 123 178 136Q167 136 165.5 138.0Q164 140 165 151Q165 157 169.5 160.5Q174 164 180 164L322 151Q328 151 331.5 146.5Q335 142 335 136Q334 125 332.0 123.5Q330 122 319 123ZM388 314 376 172Q375 161 373.0 159.5Q371 158 360 159Q354 159 350.5 163.5Q347 168 347 174L360 316Q360 322 364.5 325.5Q369 329 375 329Q386 328 387.5 326.0Q389 324 388 314Z" fill="#292f33" />
<path d="M327 119 171 133Q164 133 164.5 140.0Q165 147 172 147L328 133Q335 133 334.5 125.5Q334 118 327 119ZM394 320 381 164Q380 157 373.0 157.5Q366 158 366 165L380 321Q381 328 388.0 327.5Q395 327 394 320Z" fill="#dd2e44" />
<path d="M350 185 243 194Q235 195 233.5 196.5Q232 198 233 206Q234 216 245 215L352 206Q363 205 362 194Q361 186 359.5 185.0Q358 184 350 185Z" fill="#292f33" />
<path d="M321 134Q326 132 333.5 133.0Q341 134 348.0 136.5Q355 139 360.5 148.5Q366 158 367 173Q369 193 373.0 201.0Q377 209 380.0 200.0Q383 191 381 171Q376 115 320 120Q306 121 301.0 125.0Q296 129 301.5 132.0Q307 135 321 134ZM172 147Q195 145 196 137Q198 130 178 132Q169 133 166.5 129.5Q164 126 161 117Q161 114 156.5 98.0Q152 82 149 70Q146 58 139.5 60.5Q133 63 135 73Q143 103 150 130Q153 140 157.5 144.0Q162 148 172 147Z" fill="#dd2e44" />
<path d="M333.5 42.0Q327 48 327.0 57.0Q327 66 333.5 72.0Q340 78 348.5 78.0Q357 78 363.5 72.0Q370 66 370.0 57.0Q370 48 363.5 42.0Q357 36 348.5 36.0Q340 36 333.5 42.0Z" fill="#66757f" />
<path d="M444 10 437 -3 351 47 301 -39 289 -32 339 54 253 104 260 116 346 67 396 153 408 146 358 59Z" fill="#66757f" />
<path d="M383 -44 369 -48 343 48 247 22 244 36 340 62 314 158 328 162 353 66 450 91 453 78 357 52Z" fill="#66757f" />
<path d="M263.0 142.5Q298 178 348.5 178.0Q399 178 434.0 142.5Q469 107 469.0 57.0Q469 7 434.0 -28.5Q399 -64 348.5 -64.0Q298 -64 263.0 -28.5Q228 7 228.0 57.0Q228 107 263.0 142.5ZM283.0 -8.5Q310 -36 348.5 -36.0Q387 -36 414.0 -8.5Q441 19 441.0 57.0Q441 95 414.0 122.0Q387 149 348.5 149.0Q310 149 283.0 122.0Q256 95 256.0 57.0Q256 19 283.0 -8.5Z" fill="#292f33" />
<path d="M273.0 132.5Q304 164 348.5 164.0Q393 164 424.0 132.5Q455 101 455.0 57.0Q455 13 424.0 -18.5Q393 -50 348.5 -50.0Q304 -50 273.0 -18.5Q242 13 242.0 57.0Q242 101 273.0 132.5ZM283.0 -8.5Q310 -36 348.5 -36.0Q387 -36 414.0 -8.5Q441 19 441.0 57.0Q441 95 414.0 122.0Q387 149 348.5 149.0Q310 149 283.0 122.0Q256 95 256.0 57.0Q256 19 283.0 -8.5ZM218 -29 211 -42 180 -24 163 -55 150 -48 168 -17 137 1 144 13 175 -5 193 26 205 19 187 -12Z" fill="#66757f" />
<path d="M142.5 21.0Q157 36 177.5 36.0Q198 36 213.0 21.0Q228 6 228.0 -14.5Q228 -35 213.0 -49.5Q198 -64 177.5 -64.0Q157 -64 142.5 -49.5Q128 -35 128.0 -14.5Q128 6 142.5 21.0ZM152.5 -39.5Q163 -50 178.0 -50.0Q193 -50 203.0 -39.5Q213 -29 213.0 -14.0Q213 1 203.0 11.0Q193 21 178.0 21.0Q163 21 152.5 11.0Q142 1 142.0 -14.0Q142 -29 152.5 -39.5Z" fill="#292f33" />
<path d="M151 79 129 -4Q127 -11 120.5 -9.0Q114 -7 116 0L138 82Q139 89 146.0 87.0Q153 85 151 79ZM428 306 386 314Q379 315 380.5 322.0Q382 329 389 328L431 320Q438 319 436.5 312.0Q435 305 428 306Z" fill="#dd2e44" />
<path d="M121 -9 66 6Q59 8 60.5 14.5Q62 21 69 20L124 5Q131 3 129.0 -4.0Q127 -11 121 -9Z" fill="#66757f" />
<path d="M442 304 405 310Q401 311 402.0 318.0Q403 325 407 324L445 318Q452 317 450.5 310.0Q449 303 442 304Z" fill="#292f33" />
<path d="M315 297Q329 321 338 327Q378 292 390 268Q398 258 392.0 224.5Q386 191 386 191Q389 166 389 166Q388 160 384.5 155.0Q381 150 377.0 149.5Q373 149 371 152Q369 155 368.5 161.5Q368 168 366.0 172.0Q364 176 360 176Q360 179 364.0 186.0Q368 193 369 197Q370 203 366.0 224.0Q362 245 363 255Q364 257 355.5 264.0Q347 271 333.5 281.5Q320 292 315 297Z" fill="#f7dece" />
</g></svg>