<svg xmlns="http://www.w3.org/2000/svg" viewBox="0 0 2048 2048">
<g transform="matrix(1 0 0 -1 0 2048)">
<path d="M217 160 188 71 92 74 19 261Q16 268 19.5 275.5Q23 283 32 287V288Q41 292 49.0 289.5Q57 287 61 281L53 298Q50 304 53.5 311.5Q57 319 65 323H66Q71 325 78.0 322.0Q85 319 90 316L95 312Q92 326 108 333L109 334Q117 338 125.5 336.0Q134 334 137 327L191 212ZM481 287Q490 283 493.5 275.5Q497 268 494 261L429 122L338 67L300 164L321 212L376 327Q380 334 388.0 336.0Q396 338 404 334L405 333Q421 326 418 312L420 316Q424 323 431.5 325.0Q439 327 447 323H448Q456 319 459.5 311.5Q463 304 460 298L452 281Q456 287 464.0 289.5Q472 292 481 288Z" fill="#b78b60" />
<path d="M509 225 454 107 451 99Q433 60 392.0 45.0Q351 30 312 48Q277 65 261.0 101.0Q245 137 257 174Q263 193 268 227L275 272Q276 274 276.5 277.0Q277 280 282.0 284.0Q287 288 294.5 287.5Q302 287 306.0 282.0Q310 277 310 273V268L308 204Q343 187 355.0 155.5Q367 124 350 88Q363 85 367 93Q382 122 369.0 159.0Q356 196 321 212L323 216L327 225L378 334Q379 336 380.0 338.0Q381 340 386.5 344.0Q392 348 399 343Q406 340 407.5 334.5Q409 329 407 325L406 321L358 218Q359 217 365.0 214.5Q371 212 372 212L423 323Q424 325 425.0 327.0Q426 329 431.5 333.0Q437 337 444 332Q451 329 452.5 323.5Q454 318 452 314L451 310L399 199Q400 199 404.5 196.5Q409 194 411 193L455 289Q456 291 457.0 293.0Q458 295 463.5 299.0Q469 303 476 298Q483 295 484.5 289.5Q486 284 484 280L483 276L435 174Q436 173 441.5 169.5Q447 166 448 165L482 238Q482 240 483.5 242.0Q485 244 490.5 248.0Q496 252 503 247Q507 245 509.5 242.0Q512 239 512.0 236.0Q512 233 511.5 230.5Q511 228 510 227Z" fill="#d5ab88" />
<path d="M3 225Q-7 240 9 247Q17 250 21.5 248.0Q26 246 28 242L30 238L64 165Q65 166 70.5 169.5Q76 173 77 174L29 276Q20 291 36 298Q44 301 48.5 299.0Q53 297 55 293L57 289L101 193Q103 194 107.5 196.5Q112 199 113 199L61 310Q52 325 68 332Q73 334 76.5 334.0Q80 334 82.5 332.0Q85 330 86.5 328.0Q88 326 88 324L89 323L140 212Q141 212 147.0 214.5Q153 217 155 218L106 321Q97 336 113 343Q121 346 125.5 344.0Q130 342 132 338L134 334L185 225L189 216L191 212Q156 196 143.0 159.0Q130 122 145 93Q147 89 151.0 88.0Q155 87 159 88H162Q145 124 157.0 155.5Q169 187 204 204L202 268Q200 286 217 288Q225 288 230.0 284.5Q235 281 236 276L237 272L244 227Q249 194 255 174Q267 137 251.0 101.0Q235 65 200 48Q161 30 120.0 45.0Q79 60 61 99L58 107Z" fill="#d5ab88" />
</g></svg>