<svg xmlns="http://www.w3.org/2000/svg" viewBox="0 0 2048 2048">
<g transform="matrix(1 0 0 -1 0 2048)">
<path d="M512 -7Q512 -31 495.5 -47.5Q479 -64 455 -64H57Q33 -64 16.5 -47.5Q0 -31 0 -7V391Q0 415 16.5 431.5Q33 448 57 448H455Q479 448 495.5 431.5Q512 415 512 391Z" fill="#3b88c3" />
<path d="M288 246Q316 246 336.0 226.5Q356 207 356 179V46Q356 36 345 36H167Q156 36 156 46V179Q156 207 176.0 226.5Q196 246 224 246Q226 246 226.5 248.0Q227 250 225 251Q191 272 191 311V312Q191 339 210.0 358.0Q229 377 256.0 377.0Q283 377 302.0 358.0Q321 339 321 311Q321 272 287 251Q285 250 285.5 248.0Q286 246 288 246Z" fill="#ffffff" />
<path d="M262 110Q262 138 282.0 157.5Q302 177 330 177Q336 177 340 177Q377 171 392 137Q408 99 382 65Q401 48 406 23Q407 20 407 17Q407 6 399.0 -2.5Q391 -11 379 -11H280Q267 -11 259 -1Q252 7 252 17Q252 20 253 23Q258 48 278 65Q262 85 262 110Z" fill="#3b88c3" />
<path d="M389 19Q390 14 387.0 10.5Q384 7 379 7H280Q275 7 272.0 11.0Q269 15 270 19Q276 49 303 61Q305 62 305.0 63.0Q305 64 304 65Q280 81 280 110Q280 127 290.0 140.0Q300 153 316 158Q323 160 329 160Q362 160 375 130Q383 111 377.0 93.0Q371 75 355 65Q354 64 354.0 63.0Q354 62 355 61Q383 49 389 19Z" fill="#ffffff" />
</g></svg>