<svg xmlns="http://www.w3.org/2000/svg" viewBox="0 0 2048 2048">
<g transform="matrix(1 0 0 -1 0 2048)">
<path d="M427 50Q462 50 487.0 25.0Q512 0 512 -36V-64H114V-36Q114 0 139.0 25.0Q164 50 199 50H251V103H375V50Z" fill="#77b255" />
<path d="M251 79V128H375V79Q353 54 313.0 54.0Q273 54 251 79Z" fill="#664131" />
<path d="M213.0 248.0Q220 237 220.0 221.5Q220 206 213.0 195.0Q206 184 196.5 184.0Q187 184 180.0 195.0Q173 206 173.0 221.5Q173 237 180.0 248.0Q187 259 196.5 259.0Q206 259 213.0 248.0ZM453 221Q453 206 446.0 195.0Q439 184 429.5 184.0Q420 184 413.0 195.0Q406 206 406.0 221.5Q406 237 413.0 248.0Q420 259 429.5 259.0Q439 259 446.0 248.0Q453 237 453 221Z" fill="#7c533e" />
<path d="M192 207Q192 266 227.5 308.5Q263 351 313.0 351.0Q363 351 398.5 308.5Q434 266 434.0 206.5Q434 147 398.5 105.0Q363 63 313.0 63.0Q263 63 227.5 105.0Q192 147 192 207Z" fill="#7c533e" />
<path d="M377 144Q386 142 384 134Q382 128 375 128Q374 128 372 128L354 134Q358 129 355.0 124.0Q352 119 347 119Q345 119 343 120L328 127Q327 122 323 120Q321 119 319 119Q315 119 312 124L313 126L312 124Q309 119 304 119Q301 119 299 120Q295 122 294 127L280 120Q278 119 276 119Q270 119 267.5 124.0Q265 129 268 134L250 128Q248 128 248 128Q240 128 239 134Q236 142 245 144L263 148Q267 149 285 149H337Q355 149 359 148ZM313 399Q370 399 406.5 364.5Q443 330 443 290Q443 231 431 233Q427 233 423 240L403 280Q343 280 323 300Q323 300 330 279Q332 261 293 300Q293 300 292 288Q285 275 243 310Q239 307 234.0 302.5Q229 298 218.0 280.0Q207 262 202 240Q200 229 193 239Q182 254 182 290Q182 332 216.0 365.5Q250 399 313 399Z" fill="#0b0200" />
<path d="M242 220V235Q242 241 246.0 245.0Q250 249 256.0 249.0Q262 249 266.0 245.0Q270 241 270 235V220Q270 215 266.0 210.5Q262 206 256.0 206.0Q250 206 246.0 210.5Q242 215 242 220ZM370 206Q364 206 360.0 210.5Q356 215 356 220V235Q356 241 360.0 245.0Q364 249 370.0 249.0Q376 249 380.0 245.0Q384 241 384 235V220Q384 215 380.0 210.5Q376 206 370 206Z" fill="#000000" />
<path d="M324 167H302Q298 167 295.0 170.0Q292 173 292.0 177.5Q292 182 295.0 185.0Q298 188 302 188H324Q328 188 331.0 185.0Q334 182 334.0 177.5Q334 173 331.0 170.0Q328 167 324 167Z" fill="#3d2e24" />
<path d="M470 357Q472 347 471.0 340.5Q470 334 468.0 330.0Q466 326 463.0 324.0Q460 322 458 322L456 321Q456 319 455.5 316.0Q455 313 451.5 308.5Q448 304 442 305Q435 307 421.5 308.5Q408 310 394.0 311.0Q380 312 352.5 314.0Q325 316 301 318Q266 321 238.0 321.0Q210 321 199 320L188 319Q175 320 175 332Q174 338 166.0 337.5Q158 337 156 344Q155 352 176.5 367.5Q198 383 239.5 398.0Q281 413 325 415Q330 421 337.0 426.0Q344 431 348 433L352 435Q363 435 368 428Q371 424 365 422Q360 421 352 416Q400 413 432.5 396.5Q465 380 470 357Z" fill="#66757f" />
<path d="M391 -64H55Q27 -19 41 22Q58 69 120.0 85.0Q182 101 254 77Q312 56 350.0 17.0Q388 -22 391 -64Z" fill="#d99e82" />
<path d="M281 2Q281 2 281 2Q285 11 295.5 14.5Q306 18 318.0 14.0Q330 10 336.0 0.5Q342 -9 339.0 -18.0Q336 -27 325.0 -31.0Q314 -35 302.0 -30.5Q290 -26 284.0 -17.0Q278 -8 281 2Z" fill="#5c913b" />
<path d="M77 -21Q77 -21 77 -21Q80 -12 90.5 -8.5Q101 -5 113.0 -9.0Q125 -13 131.5 -22.5Q138 -32 134.5 -41.5Q131 -51 120.5 -54.5Q110 -58 98.0 -53.5Q86 -49 80.0 -40.0Q74 -31 77 -21Z" fill="#226699" />
<path d="M103 49Q103 49 103 49Q106 59 117.0 62.5Q128 66 139.5 62.0Q151 58 157.5 48.5Q164 39 160.5 29.5Q157 20 146.5 16.5Q136 13 124.0 17.0Q112 21 106.0 30.5Q100 40 103 49Z" fill="#dd2e44" />
<path d="M203 50Q203 50 203 50Q206 59 216.5 63.0Q227 67 239.0 63.0Q251 59 257.5 50.0Q264 41 261.0 31.5Q258 22 247.5 18.0Q237 14 225.0 18.0Q213 22 206.5 31.0Q200 40 203 50Z" fill="#ffcc4d" />
<path d="M14 21Q15 36 28.0 51.0Q41 66 57 64Q67 63 67.5 52.5Q68 42 62.5 25.5Q57 9 57 7Q57 6 56.5 -8.0Q56 -22 53.0 -28.5Q50 -35 43 -36Q27 -36 20.0 -20.0Q13 -4 14 21Z" fill="#7c533e" />
</g></svg>