<svg xmlns="http://www.w3.org/2000/svg" viewBox="0 0 512 512">
<g transform="matrix(1 0 0 -1 0 512)">
<path d="M226 7H170Q99 7 49.5 58.0Q0 109 0 180Q0 244 42.5 292.0Q85 340 148 349Q224 359 283 385Q322 402 329 371Q334 348 318 331Q312 323 301.5 315.5Q291 308 268.5 300.0Q246 292 222 292H184Q173 292 173.0 284.5Q173 277 184 277H475Q489 277 500.5 269.0Q512 261 512.0 242.0Q512 223 500.5 214.5Q489 206 475 206H302Q304 204 308.0 200.5Q312 197 316.5 186.0Q321 175 318 165Q315 152 306.5 144.0Q298 136 291 134L284 132Q285 132 286.5 131.0Q288 130 291.5 126.5Q295 123 296.5 118.5Q298 114 299.5 107.5Q301 101 298 93Q293 80 283.5 73.5Q274 67 267 66L260 65Q262 64 264.5 62.0Q267 60 271.0 51.5Q275 43 269 33Q265 23 254.0 16.5Q243 10 234 8Z" fill="#af7e57" />
</g></svg>