<svg xmlns="http://www.w3.org/2000/svg" viewBox="0 0 2048 2048">
<g transform="matrix(1 0 0 -1 0 2048)">
<path d="M149 448Q182 448 205.0 425.0Q228 402 228.0 369.5Q228 337 205.0 314.5Q182 292 149 292Q109 292 86 324Q76 328 69.5 334.5Q63 341 60.5 350.5Q58 360 57.5 366.5Q57 373 57 384Q57 404 70.5 418.0Q84 432 104 434Q124 448 149 448Z" fill="#60352a" />
<path d="M255 67Q254 68 253.5 69.5Q253 71 252.5 73.5Q252 76 252 78Q245 77 243 96Q242 106 230.5 121.5Q219 137 214 148Q200 181 193 211Q193 211 192.0 214.0Q191 217 190.0 219.5Q189 222 189.5 224.0Q190 226 193 227Q198 229 208.5 226.5Q219 224 221 220Q226 210 230.0 195.0Q234 180 236.0 169.5Q238 159 239 158Q245 147 249.5 136.5Q254 126 257.5 117.0Q261 108 263 103Q272 84 263 72Q259 66 255 67ZM47 65Q43 62 38 68Q28 79 34 99Q35 103 37.5 113.0Q40 123 43.0 133.5Q46 144 51 156Q51 157 52.0 168.0Q53 179 55.0 194.0Q57 209 60 220Q61 224 71.0 228.0Q81 232 87 231Q90 231 91.0 228.5Q92 226 91.5 223.5Q91 221 90.0 218.0Q89 215 89 215Q87 184 77 150Q73 139 63.5 121.5Q54 104 54 94Q55 76 48 76Q48 74 48.0 71.0Q48 68 48.0 66.5Q48 65 47 65Z" fill="#af7e57" />
<path d="M193 28Q192 22 192.0 -1.0Q192 -24 194 -50Q195 -53 184.5 -55.5Q174 -58 164.0 -56.5Q154 -55 154 -48Q154 -36 153.5 -23.5Q153 -11 151.0 0.5Q149 12 149 16Q149 19 147.0 35.0Q145 51 144 62Q144 62 142.0 62.0Q140 62 140 62Q139 51 137.0 35.0Q135 19 135 16Q135 12 133.5 0.5Q132 -11 131.0 -23.5Q130 -36 130 -48Q131 -55 120.5 -56.5Q110 -58 99.5 -55.5Q89 -53 90 -50Q93 -24 93.0 -1.0Q93 22 92 28Q88 46 86.5 69.0Q85 92 85 106L86 121H199Q200 67 193 28Z" fill="#aab8c2" />
<path d="M207 -64H152Q150 -56 153 -49Q157 -39 187 -44Q196 -46 202.0 -49.5Q208 -53 209.0 -57.0Q210 -61 207 -64ZM77 -64Q74 -61 75.0 -57.0Q76 -53 82.0 -49.5Q88 -46 97 -44Q127 -39 131 -49Q132 -52 132.5 -56.0Q133 -60 132 -62V-64Z" fill="#292f33" />
<path d="M210 238Q215 235 219.5 229.5Q224 224 226.5 218.5Q229 213 230.5 207.5Q232 202 233.0 198.5Q234 195 234 195L203 186L201 107H83L82 186L50 195Q57 227 74 238Q82 243 92.0 245.5Q102 248 108 249H114H171Q193 249 210 238Z" fill="#4289c1" />
<path d="M114 305H171V248Q171 241 162.5 235.5Q154 230 142.5 230.0Q131 230 122.5 235.5Q114 241 114 248Z" fill="#af7e57" />
<path d="M114 255V267H171V255Q160 243 142.5 243.0Q125 243 114 255Z" fill="#9b6a49" />
<path d="M213 405V320Q213 291 192.5 270.0Q172 249 142.5 249.0Q113 249 92.0 270.0Q71 291 71 320V405Z" fill="#af7e57" />
<path d="M71 412H213L220 377L213 348Q182 348 160.5 353.5Q139 359 130.0 367.5Q121 376 117.5 383.5Q114 391 113 398Q108 348 71 348L64 377Z" fill="#60352a" />
<path d="M171 277Q171 276 170.0 273.5Q169 271 162.0 267.0Q155 263 142.5 263.0Q130 263 122.5 266.5Q115 270 115 274L114 277ZM128 306H156Q156 292 142 292Q136 292 132.5 295.5Q129 299 128 302Z" fill="#915a34" />
<path d="M107.0 320.0Q100 320 100.0 327.0Q100 334 107.0 334.0Q114 334 114.0 327.0Q114 320 107.0 320.0ZM178.0 320.0Q171 320 171.0 327.0Q171 334 178.0 334.0Q185 334 185.0 327.0Q185 320 178.0 320.0Z" fill="#662113" />
<path d="M377 448Q409 448 432.0 425.0Q455 402 455.0 369.5Q455 337 432.0 314.5Q409 292 377 292Q337 292 313 324Q303 328 296.5 334.5Q290 341 288.0 350.5Q286 360 285.0 366.5Q284 373 284 384Q284 404 298.0 418.0Q312 432 332 434Q352 448 377 448Z" fill="#0b0200" />
<path d="M258 67Q253 66 249 72Q241 84 249 103Q251 108 254.5 117.0Q258 126 262.5 136.5Q267 147 273 158Q274 159 276.0 169.5Q278 180 282.0 195.0Q286 210 291 220Q293 224 303.5 226.5Q314 229 320 227Q322 226 322.5 224.0Q323 222 322.0 219.5Q321 217 320.0 214.0Q319 211 319 211Q313 181 298 148Q294 137 282.0 121.5Q270 106 269 96Q267 77 260 78Q260 76 259.5 73.5Q259 71 258.5 69.5Q258 68 258 67ZM465 65Q465 65 464.5 66.5Q464 68 464.0 71.0Q464 74 464 76Q457 76 458 94Q458 104 448.5 121.5Q439 139 435 150Q426 184 423 215Q423 215 422.5 218.0Q422 221 421.5 223.5Q421 226 421.5 228.5Q422 231 425 231Q431 232 441.0 228.0Q451 224 452 220Q455 209 457.5 194.0Q460 179 460.5 168.0Q461 157 462 156Q466 144 469.5 133.5Q473 123 475.0 113.0Q477 103 478 99Q484 79 474 68Q469 62 465 65Z" fill="#7c533e" />
<path d="M258 67Q253 66 249 72Q241 84 249 103Q251 108 254.5 117.0Q258 126 262.5 136.5Q267 147 273 158Q274 159 276.0 169.5Q278 180 282.0 195.0Q286 210 291 220Q293 224 303.5 226.5Q314 229 320 227Q322 226 322.5 224.0Q323 222 322.0 219.5Q321 217 320.0 214.0Q319 211 319 211Q313 181 298 148Q294 137 282.0 121.5Q270 106 269 96Q267 77 260 78Q260 76 259.5 73.5Q259 71 258.5 69.5Q258 68 258 67ZM465 65Q465 65 464.5 66.5Q464 68 464.0 71.0Q464 74 464 76Q457 76 458 94Q458 104 448.5 121.5Q439 139 435 150Q426 184 423 215Q423 215 422.5 218.0Q422 221 421.5 223.5Q421 226 421.5 228.5Q422 231 425 231Q431 232 441.0 228.0Q451 224 452 220Q455 209 457.5 194.0Q460 179 460.5 168.0Q461 157 462 156Q466 144 469.5 133.5Q473 123 475.0 113.0Q477 103 478 99Q484 79 474 68Q469 62 465 65Z" fill="#7c533e" />
<path d="M420 28Q419 22 419.0 -1.0Q419 -24 422 -50Q422 -53 412.0 -55.5Q402 -58 391.5 -56.5Q381 -55 381 -48Q382 -36 381.0 -23.5Q380 -11 378.5 0.5Q377 12 377 16Q377 19 375.0 35.0Q373 51 372 62Q372 62 370.0 62.0Q368 62 368 62Q367 51 365.0 35.0Q363 19 363 16Q362 12 360.5 0.5Q359 -11 358.0 -23.5Q357 -36 358 -48Q358 -55 348.0 -56.5Q338 -58 327.5 -55.5Q317 -53 318 -50Q320 -24 320.0 -1.0Q320 22 319 28Q316 46 314.5 69.0Q313 92 313 106V121H426Q427 67 420 28Z" fill="#67757f" />
<path d="M434 -64H380Q378 -56 381 -49Q385 -39 414 -44Q424 -46 430.0 -49.5Q436 -53 436.5 -57.0Q437 -61 434 -64ZM305 -64Q302 -61 302.5 -57.0Q303 -53 309.5 -49.5Q316 -46 325 -44Q354 -39 358 -49Q360 -52 360.0 -56.0Q360 -60 360 -62L359 -64Z" fill="#292f33" />
<path d="M438 238Q443 235 447.0 229.5Q451 224 453.5 218.5Q456 213 458.0 207.5Q460 202 461.0 198.5Q462 195 462 195L430 186L429 107H311L309 186L278 195Q285 227 302 238Q309 243 319.0 245.5Q329 248 335 249H341H398Q421 249 438 238Z" fill="#78b159" />
<path d="M341 305H398V248Q398 241 389.5 235.5Q381 230 369.5 230.0Q358 230 349.5 235.5Q341 241 341 248Z" fill="#7c533e" />
<path d="M341 255V267H398V255Q387 243 369.5 243.0Q352 243 341 255Z" fill="#664131" />
<path d="M441 405V320Q441 291 420.0 270.0Q399 249 369.5 249.0Q340 249 319.5 270.0Q299 291 299 320V405Z" fill="#7c533e" />
<path d="M299 412H441L448 377L441 348Q410 348 388.5 353.5Q367 359 357.5 367.5Q348 376 344.5 383.5Q341 391 341 398Q336 348 299 348L292 377Z" fill="#0b0200" />
<path d="M398 277Q398 276 397.5 273.5Q397 271 389.5 267.0Q382 263 369.5 263.0Q357 263 350.0 266.5Q343 270 342 274L341 277ZM356 306H384Q384 304 383.5 301.5Q383 299 379.5 295.5Q376 292 369.5 292.0Q363 292 359.5 295.5Q356 299 356 302Z" fill="#3d2e24" />
<path d="M334.0 320.0Q327 320 327.0 327.0Q327 334 334.0 334.0Q341 334 341.0 327.0Q341 320 334.0 320.0ZM405.0 320.0Q398 320 398.0 327.0Q398 334 405.0 334.0Q412 334 412.0 327.0Q412 320 405.0 320.0Z" fill="#000000" />
</g></svg>