<svg xmlns="http://www.w3.org/2000/svg" viewBox="0 0 512 512">
<g transform="matrix(1 0 0 -1 0 512)">
<path d="M287 7Q252 10 243 33Q239 44 241.0 51.5Q243 59 247 62L252 65Q249 65 244.0 66.0Q239 67 229.0 73.5Q219 80 214 93Q211 106 214.0 115.0Q217 124 222 128L228 132Q225 133 220.5 134.5Q216 136 206.5 144.0Q197 152 194 165Q191 175 195.0 185.5Q199 196 205 201L210 206H37Q23 206 11.5 214.5Q0 223 0.0 242.0Q0 261 11.5 269.0Q23 277 37 277H328Q339 277 339.0 284.5Q339 292 328 292H290Q266 292 243.5 300.0Q221 308 210.5 315.5Q200 323 194 331Q178 348 183 371Q190 402 229 385Q288 359 364 349Q427 340 469.5 292.0Q512 244 512 180Q512 109 462.5 58.0Q413 7 342 7Z" fill="#af7e57" />
</g></svg>