<svg xmlns="http://www.w3.org/2000/svg" viewBox="0 0 2048 2048">
<g transform="matrix(1 0 0 -1 0 2048)">
<path d="M469 28Q469 13 449.0 1.0Q429 -11 388.0 -25.5Q347 -40 330 -49Q306 -64 256 -64Q196 -64 174 -44Q160 -38 139.0 -30.5Q118 -23 103.0 -17.5Q88 -12 73.0 -4.5Q58 3 50.5 11.0Q43 19 43 28Q43 58 73.5 89.5Q104 121 142 121Q142 121 143 121Q148 189 164.5 264.0Q181 339 206.0 393.5Q231 448 256 448Q281 448 306.5 393.5Q332 339 348.5 263.5Q365 188 369 121H370Q408 121 438.5 89.5Q469 58 469 28Z" fill="#af7e57" />
<path d="M370 21Q368 21 367.0 22.5Q366 24 367.0 28.5Q368 33 369.0 38.5Q370 44 371.0 54.0Q372 64 372 74Q372 84 371.0 99.0Q370 114 370 121Q375 121 382 120Q400 115 400 79Q400 63 388.0 43.0Q376 23 370 21ZM111 79Q111 113 126 119Q134 121 141 121Q141 114 140.0 99.0Q139 84 139 74Q139 64 140.0 54.0Q141 44 142.0 38.5Q143 33 143.5 28.5Q144 24 143.5 22.5Q143 21 141 21Q134 23 122.5 43.0Q111 63 111 79Z" fill="#845636" />
<path d="M128 2Q149 -4 161.0 -17.0Q173 -30 169 -42V-43Q156 -37 122.5 -24.5Q89 -12 75 -5Q92 12 128 2ZM384 2Q420 12 437 -5Q423 -12 389.5 -24.5Q356 -37 343 -43V-42Q339 -30 351.0 -17.0Q363 -4 384 2Z" fill="#60352a" />
</g></svg>