<svg xmlns="http://www.w3.org/2000/svg" viewBox="0 0 512 512">
<g transform="matrix(1 0 0 -1 0 512)">
<path d="M512 -7Q512 -31 495.5 -47.5Q479 -64 455 -64H57Q33 -64 16.5 -47.5Q0 -31 0 -7V391Q0 415 16.5 431.5Q33 448 57 448H455Q479 448 495.5 431.5Q512 415 512 391Z" fill="#3b88c3" />
<path d="M203 246Q231 246 250.5 226.5Q270 207 270 179V46Q270 36 260 36H81Q71 36 71 46V179Q71 207 90.5 226.5Q110 246 138 246Q140 246 140.5 248.0Q141 250 140 251Q106 272 106 311V312Q106 339 125.0 358.0Q144 377 171.0 377.0Q198 377 217.0 358.0Q236 339 236 311Q236 272 202 251Q200 250 200.5 248.0Q201 246 203 246Z" fill="#ffffff" />
<path d="M374 246Q402 246 421.5 226.5Q441 207 441 179V46Q441 36 431 36H252Q242 36 242 46V179Q242 207 261.5 226.5Q281 246 309 246Q311 246 311.5 248.0Q312 250 310 251Q276 272 276 311V312Q276 339 295.0 358.0Q314 377 341.0 377.0Q368 377 387.0 358.0Q406 339 406 311Q406 272 372 251Q371 250 371.5 248.0Q372 246 374 246Z" fill="#ffffff" />
<path d="M188 110Q188 138 208.0 157.5Q228 177 256 177Q262 177 266 177Q303 171 318 137Q335 99 308 65Q328 48 333 23Q333 20 333 17Q333 6 325.0 -2.5Q317 -11 306 -11H207Q193 -11 185 -1Q179 7 179 17Q179 20 179 23Q185 48 204 65Q188 85 188 110Z" fill="#3b88c3" />
<path d="M315 19Q316 14 313.0 10.5Q310 7 305 7H206Q202 7 199.0 11.0Q196 15 197 19Q203 49 230 61Q231 62 231.0 63.0Q231 64 230 65Q206 81 206 110Q206 131 220.5 145.5Q235 160 256 160Q260 160 263 159Q291 155 302 130Q309 111 303.0 93.0Q297 75 282 65Q281 64 281.0 63.0Q281 62 282 61Q309 49 315 19Z" fill="#ffffff" />
</g></svg>