<svg xmlns="http://www.w3.org/2000/svg" viewBox="0 0 512 512">
<g transform="matrix(1 0 0 -1 0 512)">
<path d="M441 -64H71V-14Q71 19 102.0 41.5Q133 64 171 64H341Q379 64 410.0 41.5Q441 19 441 -14Z" fill="#ce9e5d" />
<path d="M71 -21H441V-64H71Z" fill="#fff35f" />
<path d="M73 -36H443V-50H73Z" fill="#ccd6dd" />
<path d="M455 254Q455 215 396.5 188.0Q338 161 256.0 161.0Q174 161 115.5 188.0Q57 215 57 254Q57 264 62.0 271.5Q67 279 77.5 283.0Q88 287 100.0 289.0Q112 291 131.5 291.5Q151 292 168.0 291.5Q185 291 211.0 290.0Q237 289 256.0 289.0Q275 289 301.0 290.0Q327 291 344.0 291.5Q361 292 380.5 291.5Q400 291 412.0 289.0Q424 287 434.5 283.0Q445 279 450.0 271.5Q455 264 455 254Z" fill="#a0041e" />
<path d="M411 220Q411 118 406.5 91.0Q402 64 382 64Q371 64 329.5 79.0Q288 94 255.0 94.0Q222 94 181.0 79.0Q140 64 129 64Q99 64 99 210Q100 217 100 220Q100 256 110.5 284.5Q121 313 137.5 330.0Q154 347 175.5 357.5Q197 368 216.5 372.0Q236 376 255.5 376.0Q275 376 294.0 372.0Q313 368 335.0 357.5Q357 347 373.0 330.0Q389 313 400.0 284.5Q411 256 411 220Z" fill="#60352a" />
<path d="M199 64H313Q312 61 311.0 56.5Q310 52 305.0 39.5Q300 27 294.0 17.5Q288 8 278.0 0.5Q268 -7 256 -7Q247 -7 239.5 -3.0Q232 1 226.5 7.0Q221 13 216.0 20.5Q211 28 208.0 36.0Q205 44 203.0 50.0Q201 56 200 60Z" fill="#292f33" />
<path d="M204 64V109H308V64Q289 50 256.0 50.0Q223 50 204 64Z" fill="#af7e57" />
<path d="M204 90V132H308V90Q290 69 256.0 69.0Q222 69 204 90Z" fill="#9b6a49" />
<path d="M138 224Q138 287 172.5 331.0Q207 375 255.5 375.0Q304 375 338.0 331.0Q372 287 372 224Q372 163 338.0 120.5Q304 78 255.5 78.0Q207 78 172.5 120.5Q138 163 138 224Z" fill="#af7e57" />
<path d="M219 126Q212 133 219.0 139.5Q226 146 233 140Q240 133 255 133Q270 133 278 140Q285 146 291.5 139.0Q298 132 291 126Q279 113 255.5 113.0Q232 113 219 126Z" fill="#df1f32" />
<path d="M110 178H100Q100 186 100 224Q100 269 115.5 304.0Q131 339 155.5 358.5Q180 378 206.0 387.5Q232 397 255.5 397.0Q279 397 304.5 387.0Q330 377 354.5 358.0Q379 339 395.0 303.5Q411 268 411 223Q411 206 411 178H401V185V184Q401 201 396.5 203.5Q392 206 386.5 201.0Q381 196 376.5 197.0Q372 198 372 211Q372 238 349.0 253.5Q326 269 294 269Q277 269 255.0 276.5Q233 284 220 291L207 298Q187 279 177 270Q172 265 163.5 257.5Q155 250 150.5 246.0Q146 242 142.0 233.0Q138 224 138 212Q138 201 133.5 200.0Q129 199 123.5 203.5Q118 208 113.5 204.5Q109 201 109 184Q110 186 110 184Q110 182 110 178Z" fill="#60352a" />
<path d="M196 206V218Q196 223 199.5 226.5Q203 230 208.0 230.0Q213 230 216.5 226.5Q220 223 220 218V206Q220 201 216.5 197.5Q213 194 208.0 194.0Q203 194 199.5 197.5Q196 201 196 206ZM292 206V218Q292 223 295.5 226.5Q299 230 304.0 230.0Q309 230 312.5 226.5Q316 223 316 218V206Q316 201 312.5 197.5Q309 194 304.0 194.0Q299 194 295.5 197.5Q292 201 292 206Z" fill="#60352a" />
<path d="M268 156H244Q238 156 238 162V165Q238 171 244 171H268Q274 171 274 165V162Q274 156 268 156Z" fill="#915a34" />
<path d="M384 -64H341V64Q341 70 345.5 74.0Q350 78 356 78H370Q376 78 380.0 74.0Q384 70 384 64ZM171 -64H128V64Q128 70 132.0 74.0Q136 78 142 78H156Q162 78 166.5 74.0Q171 70 171 64Z" fill="#292f33" />
<path d="M410 294Q427 290 437.0 284.5Q447 279 450.5 272.0Q454 265 454.5 261.5Q455 258 455 254Q449 276 400 277Q375 278 327.5 272.0Q280 266 256.0 266.0Q232 266 184.5 272.0Q137 278 112 277Q63 276 57 254Q57 258 57.5 261.5Q58 265 61.5 272.0Q65 279 75.0 284.5Q85 290 102 294Q107 295 111.5 310.0Q116 325 124.5 349.5Q133 374 145 391Q164 418 196.5 433.0Q229 448 256.0 448.0Q283 448 315.5 433.0Q348 418 366 391Q378 374 387.0 349.5Q396 325 400.5 310.0Q405 295 410 294Z" fill="#df1f32" />
<path d="M327 376V320Q326 306 314 306H198Q193 306 189.5 309.5Q186 313 186 316L185 320V376Q185 393 210.0 420.5Q235 448 256.0 448.0Q277 448 302.0 420.5Q327 393 327 376Z" fill="#ea596e" />
<path d="M340 92Q342 90 342.5 85.0Q343 80 342.0 73.0Q341 66 341 64V-64H171Q170 56 171 64Q171 66 169.5 73.5Q168 81 168.0 84.5Q168 88 171 92Q175 96 191.0 90.5Q207 85 213 78Q217 74 219.0 68.0Q221 62 223.5 51.5Q226 41 228 36Q232 19 255 -6Q278 19 282 36Q284 41 286.5 51.5Q289 62 291.0 68.0Q293 74 297 78Q303 85 319.0 90.5Q335 96 340 92Z" fill="#ce9e5d" />
</g></svg>