<svg xmlns="http://www.w3.org/2000/svg" viewBox="0 0 2048 2048">
<g transform="matrix(1 0 0 -1 0 2048)">
<path d="M117 41Q110 41 98 46Q93 47 83.0 47.5Q73 48 63 52Q54 55 46.5 59.0Q39 63 36 66L33 69V71Q36 77 44 75Q45 74 46.0 74.0Q47 74 49.0 73.5Q51 73 52 72Q59 71 64 72Q66 72 71.5 73.5Q77 75 80 76L92 78Q93 67 103 64Q106 63 109.5 63.0Q113 63 116.5 63.5Q120 64 120 64Q121 64 122 61Q122 60 121.5 55.0Q121 50 120 47Z" fill="#292f33" />
<path d="M88 42Q87 43 76 44Q66 45 59 48Q52 50 40 58Q33 63 31 66Q30 67 30 67L32 70Q35 67 40 63Q50 57 61 53Q72 49 83 48Q98 47 107 44Q110 43 118 42Q119 42 119 42L116 33Q115 31 113 31Q111 31 100.0 34.0Q89 37 89.0 38.0Q89 39 88.5 40.5Q88 42 88 42Z" fill="#292f33" />
<path d="M357 203Q358 187 352.5 174.0Q347 161 336 158Q327 156 317.5 156.5Q308 157 300 158L292 160Q291 159 289.5 158.0Q288 157 285.5 152.5Q283 148 285 143Q285 140 286.0 137.5Q287 135 287.5 134.0Q288 133 287 133Q287 133 278 133Q272 134 248 140Q241 142 230.5 144.0Q220 146 213 148Q186 156 180 176Q176 187 182.5 197.5Q189 208 203 214Q219 215 226.5 215.0Q234 215 257.0 212.0Q280 209 281 209Q286 209 307.0 211.0Q328 213 342.5 212.0Q357 211 357 203Z" fill="#4289c1" />
<path d="M101 61Q89 64 81 76Q92 88 105.5 114.0Q119 140 127 160L135 180Q152 222 181 221L263 213Q277 211 280.0 207.5Q283 204 280.0 199.5Q277 195 282 189Q288 180 273.0 170.5Q258 161 242 162Q216 165 197.5 163.5Q179 162 163 150Q158 134 143.5 105.0Q129 76 123 59Q117 58 101 61Z" fill="#4289c1" />
<path d="M354 435Q368 427 371.5 409.5Q375 392 366 377Q352 353 308 356Q293 357 290.0 379.0Q287 401 294 418Q299 435 319.5 439.5Q340 444 354 435Z" fill="#ffdc5d" />
<path d="M359 372Q351 365 351 345Q352 331 347 323Q340 307 327 317Q315 326 322 340Q324 345 325 349V350Q326 354 324.0 357.0Q322 360 320 361H318Q316 362 313.0 363.5Q310 365 306.5 369.0Q303 373 306 376Q309 381 310.5 390.0Q312 399 314.0 405.0Q316 411 322 410Q324 410 327.5 409.5Q331 409 339.5 407.0Q348 405 354.0 402.0Q360 399 365.0 395.0Q370 391 368.5 385.0Q367 379 359 372Z" fill="#ffdc5d" />
<path d="M376 423Q383 408 380.5 394.0Q378 380 369 368Q365 362 361.5 359.5Q358 357 357 357H355Q345 363 340 376Q339 377 344.5 382.5Q350 388 350 395Q349 403 342.5 403.0Q336 403 333 397Q321 426 296 417Q292 415 291 421Q288 436 308 442Q311 443 313 444Q358 453 376 423Z" fill="#ffac33" />
<path d="M368 409Q357 413 370 418Q392 426 405 410Q407 408 408 406Q411 393 409.5 388.0Q408 383 401.5 372.5Q395 362 393 356Q391 350 391.0 344.5Q391 339 392 336L393 333Q377 337 377 355Q377 359 380.5 373.0Q384 387 381.5 396.0Q379 405 368 409Z" fill="#ffac33" />
<path d="M367 217Q365 207 361.0 192.5Q357 178 357 174Q354 173 353.0 173.0Q352 173 344.0 176.5Q336 180 334 181Q323 186 311.0 192.5Q299 199 293 203L287 207Q299 242 289 282Q284 302 310.5 328.5Q337 355 350 348Q369 338 375.5 324.0Q382 310 377 281Z" fill="#9268ca" />
<path d="M396 297 402 372Q402 379 409.0 378.5Q416 378 416 371L410 296Q409 289 402.0 289.5Q395 290 396 297Z" fill="#66757f" />
<path d="M228 149H370Q380 149 389.0 140.5Q398 132 398 121V50Q398 39 389.0 30.0Q380 21 370 21H228Q217 21 208.0 30.0Q199 39 199 50V92Q199 105 206.0 112.0Q213 119 220 120L228 121Z" fill="#292f33" />
<path d="M326 127 186 152Q176 154 174.5 156.0Q173 158 175 168Q176 174 181.0 177.5Q186 181 191 180L331 155Q337 154 340.5 149.0Q344 144 343 139Q341 128 339.0 126.5Q337 125 326 127Z" fill="#292f33" />
<path d="M359 177Q361 184 372.0 183.5Q383 183 383 178Q386 161 373 141Q362 122 317 134Q305 138 310 149Q315 158 329 156Q353 151 359 177Z" fill="#292f33" />
<path d="M333 122 179 150Q172 151 173.5 158.0Q175 165 182 164L336 136Q343 135 341.5 128.0Q340 121 333 122Z" fill="#dd2e44" />
<path d="M411 311 387 171Q385 160 383.0 158.5Q381 157 370 159Q365 160 361.5 165.0Q358 170 359 176L383 316Q384 322 389.0 325.0Q394 328 400 327Q410 325 411.5 323.0Q413 321 411 311ZM426 417 415 360Q415 355 414.0 353.0Q413 351 409.5 349.0Q406 347 399 348Q393 349 390.0 355.0Q387 361 388 368L397 419Q402 435 414 432Q423 431 425.0 427.5Q427 424 426 417Z" fill="#292f33" />
<path d="M418 317 391 163Q390 156 383.0 157.0Q376 158 377 165L404 319Q405 326 412.0 325.0Q419 324 418 317ZM436 423 423 349Q422 342 415.0 343.5Q408 345 409 352L422 425Q423 432 430.0 431.0Q437 430 436 423Z" fill="#dd2e44" />
<path d="M363 186 256 204Q248 206 247.0 207.5Q246 209 248 217Q249 227 260 225L366 207Q377 205 375 194Q374 186 372.5 185.0Q371 184 363 186Z" fill="#292f33" />
<path d="M329 138Q337 137 346.5 136.0Q356 135 365.5 144.0Q375 153 378 172Q382 192 387.0 199.5Q392 207 393.5 198.5Q395 190 392 170Q382 114 326 124Q305 127 306.5 134.0Q308 141 329 138ZM182 164Q205 159 205 151Q205 145 186 148Q180 149 176.5 147.5Q173 146 172.0 143.5Q171 141 169 135Q168 132 162.5 116.5Q157 101 152 89Q148 77 141.5 80.0Q135 83 139 94Q148 121 159 148Q162 159 167.0 162.0Q172 165 182 164Z" fill="#dd2e44" />
<path d="M155 97 126 17Q124 11 117.0 13.0Q110 15 113 22L142 102Q144 109 151.0 106.5Q158 104 155 97ZM197 9Q192 4 187.0 9.0Q182 14 187 19L229 61Q234 66 239.0 61.0Q244 56 239 51ZM441 -21V21Q441 27 445.0 31.5Q449 36 455.0 36.0Q461 36 465.0 31.5Q469 27 469 21V-21Q469 -27 465.0 -31.5Q461 -36 455.0 -36.0Q449 -36 445.0 -31.5Q441 -27 441 -21Z" fill="#dd2e44" />
<path d="M117 13 64 32Q57 35 59.5 41.5Q62 48 68 46L122 26Q129 24 126.5 17.5Q124 11 117 13Z" fill="#66757f" />
<path d="M178 -21V21Q178 27 182.0 31.5Q186 36 192.0 36.0Q198 36 202.0 31.5Q206 27 206 21V-21Q206 -27 202.0 -31.5Q198 -36 192.0 -36.0Q186 -36 182.0 -31.5Q178 -27 178 -21ZM377 50Q370 50 370.0 57.0Q370 64 377 64H405Q412 64 412.0 57.0Q412 50 405 50Z" fill="#dd2e44" />
<path d="M443 10 401 52Q396 57 401.0 62.0Q406 67 411 62L453 20Q458 15 453.0 10.0Q448 5 443 10ZM377 92H220Q213 92 213.0 99.5Q213 107 220 107H377Q384 107 384.0 99.5Q384 92 377 92Z" fill="#dd2e44" />
<path d="M166 219Q171 216 184.0 210.5Q197 205 199 204Q201 216 206 216Q208 223 209 226Q212 231 214 225Q215 224 215 222L214 215Q214 214 214.5 213.0Q215 212 216.0 208.0Q217 204 215 201Q216 201 217.0 200.5Q218 200 219.5 198.0Q221 196 221 192Q220 190 220.0 185.5Q220 181 219.0 179.0Q218 177 216 176Q188 169 188 177Q188 189 172 199Q153 210 155 216Q158 222 166 219Z" fill="#292f33" />
<path d="M323 302Q341 299 356 292Q333 232 323 225Q317 218 280.5 219.5Q244 221 242 220Q240 218 230.5 219.5Q221 221 218 221Q212 221 208.0 222.5Q204 224 203.0 226.0Q202 228 203 230Q205 233 223 239Q224 240 246 239Q253 238 274.0 242.0Q295 246 305 246Q307 247 309.5 256.0Q312 265 315.5 279.0Q319 293 323 302Z" fill="#ffdc5d" />
<path d="M260.5 -45.5Q242 -27 242.0 0.0Q242 27 260.5 45.5Q279 64 305.5 64.0Q332 64 351.0 45.5Q370 27 370.0 0.0Q370 -27 351.0 -45.5Q332 -64 305.5 -64.0Q279 -64 260.5 -45.5ZM166.5 -53.5Q156 -43 156.0 -28.5Q156 -14 166.5 -3.5Q177 7 192.0 7.0Q207 7 217.5 -3.5Q228 -14 228.0 -28.5Q228 -43 217.5 -53.5Q207 -64 192.0 -64.0Q177 -64 166.5 -53.5ZM435.0 -55.5Q427 -47 427.0 -35.5Q427 -24 435.0 -15.5Q443 -7 455.0 -7.0Q467 -7 475.5 -15.5Q484 -24 484.0 -35.5Q484 -47 475.5 -55.5Q467 -64 455.0 -64.0Q443 -64 435.0 -55.5Z" fill="#66757f" />
<path d="M280.5 -25.5Q270 -15 270.0 0.0Q270 15 280.5 25.5Q291 36 306.0 36.0Q321 36 331.0 25.5Q341 15 341.0 0.0Q341 -15 331.0 -25.5Q321 -36 306.0 -36.0Q291 -36 280.5 -25.5ZM177.0 -43.5Q171 -37 171.0 -28.5Q171 -20 177.0 -13.5Q183 -7 192.0 -7.0Q201 -7 207.0 -13.5Q213 -20 213.0 -28.5Q213 -37 207.0 -43.5Q201 -50 192.0 -50.0Q183 -50 177.0 -43.5Z" fill="#ccd6dd" />
<path d="M445.0 -45.5Q441 -41 441.0 -35.5Q441 -30 445.0 -25.5Q449 -21 455.0 -21.0Q461 -21 465.0 -25.5Q469 -30 469.0 -35.5Q469 -41 465.0 -45.5Q461 -50 455.0 -50.0Q449 -50 445.0 -45.5ZM313.0 5.0Q306 5 306.0 12.0Q306 19 313.0 19.0Q320 19 320.0 12.0Q320 5 313.0 5.0ZM299.0 -19.0Q292 -19 292.0 -12.0Q292 -5 299.0 -5.0Q306 -5 306.0 -12.0Q306 -19 299.0 -19.0ZM293.5 0.0Q286 0 286.0 7.0Q286 14 293.5 14.0Q301 14 301.0 7.0Q301 0 293.5 0.0ZM318.0 -14.0Q311 -14 311.0 -7.0Q311 0 318.0 0.0Q325 0 325.0 -7.0Q325 -14 318.0 -14.0ZM184.5 -36.0Q181 -33 181.0 -28.5Q181 -24 184.5 -21.0Q188 -18 192.0 -18.0Q196 -18 199.5 -21.0Q203 -24 203.0 -28.5Q203 -33 199.5 -36.0Q196 -39 192.0 -39.0Q188 -39 184.5 -36.0Z" fill="#292f33" />
<path d="M455.0 -43.0Q448 -43 448.0 -35.5Q448 -28 455.0 -28.0Q462 -28 462.0 -35.5Q462 -43 455.0 -43.0Z" fill="#66757f" />
</g></svg>