<svg xmlns="http://www.w3.org/2000/svg" viewBox="0 0 2048 2048">
<g transform="matrix(1 0 0 -1 0 2048)">
<path d="M399 179 378 159 197 340Q189 349 186.0 361.5Q183 374 185 382L187 390Z" fill="#9aaab4" />
<path d="M465.5 175.0Q471 151 458.5 138.5Q446 126 422.5 132.0Q399 138 378.5 159.0Q358 180 352.0 203.5Q346 227 358.5 239.5Q371 252 394.5 246.0Q418 240 439.0 219.5Q460 199 465.5 175.0ZM394.5 218.0Q383 224 378.5 219.5Q374 215 380.0 203.5Q386 192 398.5 179.5Q411 167 423.0 161.0Q435 155 439.0 159.0Q443 163 437.0 175.0Q431 187 418.5 199.5Q406 212 394.5 218.0Z" fill="#67757f" />
<path d="M377 330Q336 299 270 295Q268 237 226.0 196.5Q184 156 126 156Q96 156 78.0 167.0Q60 178 37 205Q17 212 0 227V402Q32 430 74 430Q67 430 66 430Q95 443 126 443Q164 443 196.0 425.0Q228 407 247 377Q277 359 309.5 347.5Q342 336 359 333Z" fill="#963b22" />
<path d="M242 64Q265 64 282.0 47.5Q299 31 299 7V-64H0V64Z" fill="#4289c1" />
<path d="M228 -7H242V-64H228Z" fill="#2a6797" />
<path d="M242 212V206Q242 165 218.0 132.0Q194 99 156 86V50Q156 32 143.5 19.5Q131 7 113.5 7.0Q96 7 83.5 19.5Q71 32 71 50V86Q23 103 0 148V297Q38 309 58 369Q125 294 242 294Q252 293 259.0 281.0Q266 269 266.0 252.5Q266 236 259.0 224.5Q252 213 242 212Z" fill="#d5ab88" />
<path d="M57 135H171Q169 132 165.5 127.0Q162 122 147.5 114.5Q133 107 114.0 107.0Q95 107 80.5 114.0Q66 121 62 128ZM128 171H100Q92 171 92.0 178.0Q92 185 100 185H128Q135 185 135.0 178.0Q135 171 128 171Z" fill="#c1694f" />
<path d="M43 235V249Q43 255 47.0 259.0Q51 263 57.0 263.0Q63 263 67.0 259.0Q71 255 71 249V235Q71 229 67.0 224.5Q63 220 57.0 220.0Q51 220 47.0 224.5Q43 229 43 235ZM156 235V249Q156 255 160.5 259.0Q165 263 171.0 263.0Q177 263 181.0 259.0Q185 255 185 249V235Q185 229 181.0 224.5Q177 220 171.0 220.0Q165 220 160.5 224.5Q156 229 156 235Z" fill="#662113" />
<path d="M315 139V437Q318 436 323.0 433.0Q328 430 335.5 418.5Q343 407 343 395V139Z" fill="#9aaab4" />
<path d="M318.0 219.5Q314 224 314.0 229.5Q314 235 318.0 239.5Q322 244 328.0 244.0Q334 244 338.0 239.5Q342 235 342.0 229.5Q342 224 338.0 219.5Q334 215 328.0 215.0Q322 215 318.0 219.5ZM330.5 189.0Q343 168 343.0 138.5Q343 109 330.5 88.5Q318 68 300.5 68.0Q283 68 270.5 88.5Q258 109 258.0 138.5Q258 168 270.5 189.0Q283 210 300.5 210.0Q318 210 330.5 189.0ZM311.0 108.5Q315 121 315.0 138.5Q315 156 311.0 168.5Q307 181 301.0 181.0Q295 181 290.5 168.5Q286 156 286.0 138.5Q286 121 290.5 108.5Q295 96 301.0 96.0Q307 96 311.0 108.5Z" fill="#67757f" />
</g></svg>