<svg xmlns="http://www.w3.org/2000/svg" viewBox="0 0 512 512">
<g transform="matrix(1 0 0 -1 0 512)">
<path d="M466 297Q466 253 404.5 222.5Q343 192 256.0 192.0Q169 192 107.5 222.5Q46 253 46 297Q46 317 49.5 332.0Q53 347 65.0 364.5Q77 382 98.5 393.0Q120 404 160.0 412.0Q200 420 256.0 420.0Q312 420 352.0 412.0Q392 404 413.5 393.0Q435 382 447.0 364.5Q459 347 462.5 332.0Q466 317 466 297Z" fill="#d1d3d4" />
<path d="M457 256Q474 256 486.0 237.5Q498 219 498.0 192.0Q498 165 486.0 146.5Q474 128 457 128Q450 128 442 132Q425 53 373.5 1.5Q322 -50 256.0 -50.0Q190 -50 138.5 1.5Q87 53 70 132Q62 128 55 128Q38 128 26.0 146.5Q14 165 14.0 192.0Q14 219 26.0 237.5Q38 256 55 256Q61 256 67 253Q82 334 134.5 384.0Q187 434 256.0 434.0Q325 434 377.5 384.0Q430 334 445 253Q451 256 457 256Z" fill="#f3d2a2" />
<path d="M159 178Q151 178 147 186Q140 198 153 205L185 221Q198 227 204.5 214.5Q211 202 198 195L166 179Q163 178 159 178ZM353 178Q349 178 346 179L314 195Q301 202 307.5 214.5Q314 227 327 221L359 205Q372 198 365 186Q362 178 353 178Z" fill="#662113" />
<path d="M370 249H327Q321 249 317.0 253.0Q313 257 313.0 263.0Q313 269 317.0 273.0Q321 277 327 277H370Q376 277 380.0 273.0Q384 269 384.0 263.0Q384 257 380.0 253.0Q376 249 370 249ZM185 249H142Q136 249 132.0 253.0Q128 257 128.0 263.0Q128 269 132.0 273.0Q136 277 142 277H185Q191 277 195.0 273.0Q199 269 199.0 263.0Q199 257 195.0 253.0Q191 249 185 249Z" fill="#d1d3d4" />
<path d="M256 17Q221 17 185 34Q172 41 178.5 53.5Q185 66 198 60Q226 45 256 45Q283 45 314 60Q327 66 333.5 53.5Q340 41 327 34Q292 17 256 17ZM270 92H242Q236 92 232.0 96.5Q228 101 228.0 107.0Q228 113 232.0 117.0Q236 121 242 121H270Q276 121 280.0 117.0Q284 113 284.0 107.0Q284 101 280.0 96.5Q276 92 270 92Z" fill="#c1694f" />
</g></svg>