<svg xmlns="http://www.w3.org/2000/svg" viewBox="0 0 2048 2048">
<g transform="matrix(1 0 0 -1 0 2048)">
<path d="M512 185Q512 167 502.0 153.0Q492 139 476 136Q457 61 396.0 12.5Q335 -36 256.0 -36.0Q177 -36 116.0 12.5Q55 61 36 136Q20 139 10.0 153.0Q0 167 0 185Q0 202 9.0 215.5Q18 229 32 233Q47 313 110.0 366.5Q173 420 256.0 420.0Q339 420 402.0 366.5Q465 313 480 233Q494 229 503.0 215.5Q512 202 512 185Z" fill="#f7dece" />
<path d="M313 78Q313 57 295.0 39.0Q277 21 256.0 21.0Q235 21 217.0 39.0Q199 57 199 78Q199 87 200.5 91.0Q202 95 207.0 95.5Q212 96 217.5 95.5Q223 95 234.0 93.5Q245 92 256.0 92.0Q267 92 278.0 93.5Q289 95 294.5 95.5Q300 96 305.0 95.5Q310 95 311.5 91.0Q313 87 313 78ZM294.5 159.5Q284 170 284.0 185.0Q284 200 294.5 210.0Q305 220 320.0 220.0Q335 220 345.5 210.0Q356 200 356.0 185.0Q356 170 345.5 159.5Q335 149 320.0 149.0Q305 149 294.5 159.5ZM166.5 159.5Q156 170 156.0 185.0Q156 200 166.5 210.0Q177 220 192.0 220.0Q207 220 217.5 210.0Q228 200 228.0 185.0Q228 170 217.5 159.5Q207 149 192.0 149.0Q177 149 166.5 159.5Z" fill="#662113" />
<path d="M256 78H284V64Q284 50 270 50Q264 50 260.5 53.5Q257 57 256 60V64Z" fill="#ffffff" />
<path d="M256 292H255Q229 292 211 310Q194 327 195 351Q196 356 200.0 360.0Q204 364 210.0 364.0Q216 364 220.0 359.5Q224 355 224 349Q223 338 231 330Q241 320 255 319Q271 320 280 329Q294 343 294.0 362.5Q294 382 281 396Q262 414 236.5 414.5Q211 415 192 397Q182 387 172.0 397.0Q162 407 172 417Q199 443 236.5 443.0Q274 443 301 416Q323 394 322.5 362.5Q322 331 300 310Q282 292 256 292Z" fill="#d89882" />
</g></svg>