<svg xmlns="http://www.w3.org/2000/svg" viewBox="0 0 512 512">
<g transform="matrix(1 0 0 -1 0 512)">
<path d="M427 -64H85V-50Q85 -13 103.5 11.5Q122 36 156 36H356Q390 36 408.5 11.5Q427 -13 427 -50Z" fill="#dd2e44" />
<path d="M384 363V192Q384 171 376.5 157.5Q369 144 360.0 136.5Q351 129 331.0 125.5Q311 122 297.0 121.5Q283 121 256.0 121.0Q229 121 215.0 121.5Q201 122 181.0 125.5Q161 129 152.0 136.5Q143 144 135.5 157.5Q128 171 128 192V363Q128 398 153.0 423.0Q178 448 213 448H299Q334 448 359.0 423.0Q384 398 384 363Z" fill="#292f33" />
<path d="M208 29V71H304V29Q280 12 255.5 12.0Q231 12 208 29Z" fill="#f3d2a2" />
<path d="M208 52V91H304V52Q287 33 256.0 33.0Q225 33 208 52Z" fill="#e2c196" />
<path d="M364 162Q364 152 359.5 143.5Q355 135 348 134Q343 94 317.0 67.0Q291 40 256.0 40.0Q221 40 195.0 67.0Q169 94 164 134Q157 135 152.5 143.5Q148 152 148 162Q148 174 153.5 182.5Q159 191 166 191Q167 191 169 191Q169 192 169 192H343Q343 192 343 191Q345 191 346 191Q353 191 358.5 182.5Q364 174 364 162Z" fill="#f3d2a2" />
<path d="M215 85Q210 91 215 96Q220 100 225 96Q232 91 256 91Q278 91 287 96Q292 101 297.0 96.0Q302 91 297 85Q287 76 255.5 76.0Q224 76 215 85ZM264 121H248Q239 121 239.0 129.0Q239 137 248 137H264Q272 137 272.0 129.0Q272 121 264 121Z" fill="#c1694f" />
<path d="M201 162V173Q201 177 204.0 180.5Q207 184 211.5 184.0Q216 184 219.5 180.5Q223 177 223 173V162Q223 157 219.5 154.0Q216 151 211.5 151.0Q207 151 204.0 154.0Q201 157 201 162ZM289 162V173Q289 177 292.0 180.5Q295 184 299.5 184.0Q304 184 307.5 180.5Q311 177 311 173V162Q311 157 307.5 154.0Q304 151 299.5 151.0Q295 151 292.0 154.0Q289 157 289 162Z" fill="#662113" />
<path d="M179 15 113 4Q106 3 105 10L102 24Q101 31 108 32L174 43Q181 44 183 37L185 23Q186 16 179 15ZM333 15Q326 16 328 23L330 37Q331 44 338 43L404 32Q411 31 410 24L408 10Q407 3 400 4Z" fill="#292f33" />
<path d="M169 192Q169 187 169.5 178.5Q170 170 174.0 147.5Q178 125 186.0 108.5Q194 92 212.5 78.0Q231 64 256.0 64.0Q281 64 299.0 77.0Q317 90 325.0 109.0Q333 128 337.5 147.0Q342 166 343 179V192H356Q355 186 354.5 176.5Q354 167 348.0 142.5Q342 118 332.5 99.5Q323 81 303.0 65.5Q283 50 256 50Q237 50 221.0 57.5Q205 65 195.0 78.0Q185 91 177.0 106.0Q169 121 165.5 136.0Q162 151 159.5 163.5Q157 176 157 184L156 192Z" fill="#99aab5" />
<path d="M249 7H263V-64H249Z" fill="#f5f8fa" />
<path d="M304 52Q305 53 306.5 52.5Q308 52 310.5 48.0Q313 44 313 36Q313 21 295.5 7.0Q278 -7 256.0 -7.0Q234 -7 216.5 7.0Q199 21 199 36Q199 44 201.5 48.0Q204 52 206 52H208Q208 37 224.0 29.0Q240 21 256.0 21.0Q272 21 288.0 29.0Q304 37 304 52Z" fill="#292f33" />
</g></svg>