<svg xmlns="http://www.w3.org/2000/svg" viewBox="0 0 512 512">
<g transform="matrix(1 0 0 -1 0 512)">
<path d="M441 56Q466 46 482.0 27.5Q498 9 498 -14V-64H128V-14Q128 9 144.0 27.5Q160 46 185 56Q206 64 228 64H398Q420 64 441 56Z" fill="#ccd6dd" />
<path d="M398 64Q420 64 441 56V-64H185V56Q206 64 228 64V7H398Z" fill="#226699" />
<path d="M372.0 -44.5Q363 -39 363.0 -32.0Q363 -25 372.0 -19.5Q381 -14 394.5 -14.0Q408 -14 417.5 -19.5Q427 -25 427.0 -32.0Q427 -39 417.5 -44.5Q408 -50 394.5 -50.0Q381 -50 372.0 -44.5Z" fill="#f5f8fa" />
<path d="M468 220Q468 118 463.5 91.0Q459 64 439 64Q428 64 386.5 79.0Q345 94 312.0 94.0Q279 94 238.0 79.0Q197 64 186 64Q156 64 156 210Q156 217 156 220Q156 256 167.0 284.5Q178 313 194.5 329.5Q211 346 232.5 357.0Q254 368 273.5 372.0Q293 376 312.0 376.0Q331 376 350.5 372.0Q370 368 392.0 357.0Q414 346 430.0 329.5Q446 313 457.0 284.5Q468 256 468 220Z" fill="#ffe51e" />
<path d="M261 64V109H365V64Q359 45 340.5 29.5Q322 14 313.0 14.0Q304 14 285.5 29.5Q267 45 261 64Z" fill="#f3d2a2" />
<path d="M261 90V132H365V90Q346 69 312.5 69.0Q279 69 261 90Z" fill="#e2c196" />
<path d="M195 224Q195 287 229.5 331.0Q264 375 312.0 375.0Q360 375 394.5 331.0Q429 287 429 224Q429 163 395.0 120.5Q361 78 312.0 78.0Q263 78 229.0 120.5Q195 163 195 224Z" fill="#f3d2a2" />
<path d="M312 113Q288 113 276 126Q269 133 276.0 139.5Q283 146 290 140Q297 133 312.0 133.0Q327 133 335 140Q342 146 348.5 139.0Q355 132 348 126Q336 113 312 113Z" fill="#df1f32" />
<path d="M167 178H157Q156 186 156 224Q156 363 312.0 363.0Q468 363 468 223Q468 206 468 178H458V185V184Q458 201 453.5 203.5Q449 206 443.5 201.0Q438 196 433.5 197.0Q429 198 429 210Q429 238 406.0 253.5Q383 269 351 269Q334 269 312.0 276.5Q290 284 277 291L263 298Q244 279 234 269Q229 265 220.0 257.5Q211 250 207.0 246.0Q203 242 199.0 233.0Q195 224 195 212Q195 200 190.5 199.5Q186 199 180.5 203.5Q175 208 170.5 204.5Q166 201 166 184Q166 186 167 184Q167 182 167 178Z" fill="#ffe51e" />
<path d="M213.0 248.0Q220 237 220.0 221.5Q220 206 213.0 195.0Q206 184 196.5 184.0Q187 184 180.0 195.0Q173 206 173.0 221.5Q173 237 180.0 248.0Q187 259 196.5 259.0Q206 259 213.0 248.0ZM453 221Q453 206 446.0 195.0Q439 184 429.5 184.0Q420 184 413.0 195.0Q406 206 406.0 221.5Q406 237 413.0 248.0Q420 259 429.5 259.0Q439 259 446.0 248.0Q453 237 453 221Z" fill="#f3d2a2" />
<path d="M253 206V218Q253 223 256.5 226.5Q260 230 265.0 230.0Q270 230 273.5 226.5Q277 223 277 218V206Q277 201 273.5 197.5Q270 194 265.0 194.0Q260 194 256.5 197.5Q253 201 253 206ZM361 194Q356 194 352.5 197.5Q349 201 349 206V218Q349 223 352.5 226.5Q356 230 361.0 230.0Q366 230 369.5 226.5Q373 223 373 218V206Q373 201 369.5 197.5Q366 194 361 194Z" fill="#662113" />
<path d="M325 156H301Q295 156 295 162V165Q295 171 301 171H325Q331 171 331 165V162Q331 156 325 156Z" fill="#c1694f" />
<path d="M441 313Q441 299 313.0 299.0Q185 299 185 313Q185 335 189.5 353.5Q194 372 206.0 391.5Q218 411 245.5 422.5Q273 434 313 434Q348 434 374.5 422.5Q401 411 414.5 392.0Q428 373 434.5 353.5Q441 334 441 313Z" fill="#3b88c3" />
<path d="M186 313Q207 306 314 306Q361 306 393.0 307.5Q425 309 433 311L442 313Q442 311 442.5 308.0Q443 305 442.5 298.0Q442 291 440.0 285.0Q438 279 433.0 274.5Q428 270 420 270Q416 270 404.0 277.0Q392 284 368.5 291.5Q345 299 313.5 299.0Q282 299 259.0 291.5Q236 284 223.5 277.0Q211 270 207 270Q194 270 189.0 281.0Q184 292 185 302ZM292 427Q292 429 292.5 432.5Q293 436 298.0 442.0Q303 448 312.5 448.0Q322 448 327.5 442.5Q333 437 334 432V427Z" fill="#226699" />
<path d="M185 320Q206 313 313 313Q360 313 392.0 314.5Q424 316 433 318L441 320Q441 318 441.5 315.5Q442 313 441.5 305.5Q441 298 439.5 292.5Q438 287 433.0 282.0Q428 277 420 277Q415 277 403.0 284.5Q391 292 367.5 299.0Q344 306 313.0 306.0Q282 306 258.5 299.0Q235 292 223.0 284.5Q211 277 206 277Q198 277 193.0 281.5Q188 286 186.5 292.5Q185 299 184.5 305.0Q184 311 184 316Z" fill="#55acee" />
<path d="M135 112Q135 90 122.0 72.5Q109 55 89 48V-64H46V48Q26 55 13.0 72.5Q0 90 0 112Q0 151 35 171L36 108Q36 102 45.0 98.0Q54 94 67.5 94.0Q81 94 90.5 98.0Q100 102 100 108L99 171Q135 152 135 112Z" fill="#66757f" />
</g></svg>