<svg xmlns="http://www.w3.org/2000/svg" viewBox="0 0 512 512">
<g transform="matrix(1 0 0 -1 0 512)">
<path d="M0 310V443Q48 454 84 442Q141 424 171.5 384.5Q202 345 200 292Q196 177 137 132Q137 132 103.0 176.5Q69 221 34.5 265.5Q0 310 0 310ZM512 310Q512 310 477.5 265.5Q443 221 409.0 176.5Q375 132 375 132Q316 177 312 292Q310 345 340.5 384.5Q371 424 428 442Q464 454 512 443Z" fill="#60352a" />
<path d="M213 7V-64H0V64H156Q180 64 196.5 47.5Q213 31 213 7Z" fill="#99aab5" />
<path d="M156 -64H142V-7H156Z" fill="#66757f" />
<path d="M0 324Q0 324 1.0 323.5Q2 323 2 323Q16 314 53.0 306.0Q90 298 109 277Q116 270 116 275Q116 277 115.0 284.5Q114 292 107.0 302.0Q100 312 93 316Q127 311 144 286Q161 264 161 207Q161 166 137 132Q112 96 71 81V49Q63 -26 28 -26Q12 -26 0 -8Z" fill="#af7e57" />
<path d="M85 135Q81 127 71 120Q54 107 28 107Q13 107 0 112V135ZM14 171Q7 171 7.0 178.0Q7 185 14 185H43Q50 185 50.0 178.0Q50 171 43 171Z" fill="#915a34" />
<path d="M71 235V249Q71 255 75.0 259.0Q79 263 85.0 263.0Q91 263 95.5 259.0Q100 255 100 249V235Q100 229 95.5 224.5Q91 220 85.0 220.0Q79 220 75.0 224.5Q71 229 71 235Z" fill="#662113" />
<path d="M356 64H512V-64H299V7Q299 31 315.5 47.5Q332 64 356 64Z" fill="#fa743e" />
<path d="M356 -7H370V-64H356Z" fill="#dd551f" />
<path d="M512 324V-8Q500 -26 484 -26Q449 -26 441 49V81Q400 96 375 132Q351 166 351 207Q351 264 368 286Q385 311 419 316Q412 312 405.0 302.0Q398 292 397 285Q396 274 397.0 273.0Q398 272 403 277Q422 298 459.0 306.0Q496 314 510 323Q510 323 511.0 323.5Q512 324 512 324Z" fill="#af7e57" />
<path d="M427 135H512V112Q499 107 484 107Q458 107 441 120Q436 123 432.5 127.0Q429 131 428 133ZM498 171H469Q462 171 462.0 178.0Q462 185 469 185H498Q505 185 505.0 178.0Q505 171 498 171Z" fill="#915a34" />
<path d="M412 235V249Q412 255 416.5 259.0Q421 263 427.0 263.0Q433 263 437.0 259.0Q441 255 441 249V235Q441 229 437.0 224.5Q433 220 427.0 220.0Q421 220 416.5 224.5Q412 229 412 235Z" fill="#662113" />
<path d="M377 381Q377 373 376 366Q369 325 331.0 284.5Q293 244 256 230Q219 244 181.0 284.5Q143 325 136 366Q135 374 135 381Q135 409 154.5 428.5Q174 448 202 448Q236 448 256 420Q276 448 310 448Q338 448 357.5 428.5Q377 409 377 381Z" fill="#dd2e44" />
</g></svg>