<svg xmlns="http://www.w3.org/2000/svg" viewBox="0 0 2048 2048">
<g transform="matrix(1 0 0 -1 0 2048)">
<path d="M441 -64H71V-14Q71 19 102.0 41.5Q133 64 171 64H341Q379 64 410.0 41.5Q441 19 441 -14Z" fill="#e1e8ed" />
<path d="M427 341Q427 297 377.0 266.0Q327 235 256.0 235.0Q185 235 135.0 266.0Q85 297 85.0 341.5Q85 386 135.0 417.0Q185 448 256.0 448.0Q327 448 377.0 417.0Q427 386 427 341Z" fill="#292f33" />
<path d="M255 376Q275 376 294.0 372.0Q313 368 335.0 357.5Q357 347 373.0 330.0Q389 313 400.0 284.5Q411 256 411 220Q411 118 406.5 91.0Q402 64 382 64Q371 64 329.5 79.0Q288 94 255.0 94.0Q222 94 181.0 79.0Q140 64 129 64Q99 64 99 210Q99 217 99 220Q99 256 110.0 284.5Q121 313 137.5 330.0Q154 347 175.5 357.5Q197 368 216.5 372.0Q236 376 255 376Z" fill="#60352a" />
<path d="M204 64V109H308V64Q269 36 256.0 36.0Q243 36 204 64Z" fill="#af7e57" />
<path d="M204 90V132H308V90Q290 69 256.0 69.0Q222 69 204 90Z" fill="#9b6a49" />
<path d="M138 224Q138 287 172.5 331.0Q207 375 255.5 375.0Q304 375 338.0 331.0Q372 287 372 224Q372 163 338.0 120.5Q304 78 255.5 78.0Q207 78 172.5 120.5Q138 163 138 224Z" fill="#af7e57" />
<path d="M255 113Q232 113 219 126Q212 133 219.0 139.5Q226 146 233 140Q240 133 255 133Q270 133 278 140Q285 146 291.5 139.0Q298 132 291 126Q279 113 255 113Z" fill="#df1f32" />
<path d="M110 178H100Q100 186 100 224Q100 269 115.5 304.0Q131 339 155.5 358.5Q180 378 206.0 387.5Q232 397 255.5 397.0Q279 397 304.5 387.0Q330 377 354.5 358.0Q379 339 395.0 303.5Q411 268 411 223Q411 206 411 178H401V185V184Q401 201 396.5 203.5Q392 206 386.5 201.0Q381 196 376.5 197.0Q372 198 372 211Q372 238 349.0 253.5Q326 269 294 269Q277 269 255.0 276.5Q233 284 220 291L207 298Q187 279 177 270Q172 265 163.5 257.5Q155 250 150.5 246.0Q146 242 142.0 233.0Q138 224 138 212Q138 201 133.5 200.0Q129 199 123.5 203.5Q118 208 113.5 204.5Q109 201 109 184Q110 186 110 184Q110 182 110 178Z" fill="#60352a" />
<path d="M196 206V218Q196 223 199.5 226.5Q203 230 208.0 230.0Q213 230 216.5 226.5Q220 223 220 218V206Q220 201 216.5 197.5Q213 194 208.0 194.0Q203 194 199.5 197.5Q196 201 196 206ZM304 194Q299 194 295.5 197.5Q292 201 292 206V218Q292 223 295.5 226.5Q299 230 304.0 230.0Q309 230 312.5 226.5Q316 223 316 218V206Q316 201 312.5 197.5Q309 194 304 194Z" fill="#60352a" />
<path d="M268 156H244Q238 156 238 162V165Q238 171 244 171H268Q274 171 274 165V162Q274 156 268 156Z" fill="#915a34" />
<path d="M121 320Q121 332 160.5 340.0Q200 348 256.0 348.0Q312 348 351.5 340.0Q391 332 391.0 320.0Q391 308 351.5 300.0Q312 292 256.0 292.0Q200 292 160.5 300.0Q121 308 121 320ZM165 35 80 21Q73 20 72 27L70 41Q69 48 76 50L160 63Q167 64 168 57L171 43Q172 36 165 35ZM432 21 347 35Q340 36 341 43L344 57Q345 64 352 63L436 50Q443 48 442 41L440 27Q439 20 432 21Z" fill="#292f33" />
<path d="M391 334H121V383Q127 389 138.5 397.5Q150 406 185.5 420.0Q221 434 256.0 434.0Q291 434 325.0 421.5Q359 409 375 396L391 383Z" fill="#66757f" />
<path d="M213 377Q213 391 217.0 396.0Q221 401 225.5 399.5Q230 398 239.5 394.5Q249 391 256.0 391.0Q263 391 272.5 394.5Q282 398 286.5 399.5Q291 401 295.0 396.0Q299 391 299 377Q299 348 256.0 348.0Q213 348 213 377Z" fill="#ffac33" />
<path d="M236.0 356.5Q228 365 228.0 377.0Q228 389 236.0 397.0Q244 405 256.0 405.0Q268 405 276.0 397.0Q284 389 284.0 377.0Q284 365 276.0 356.5Q268 348 256.0 348.0Q244 348 236.0 356.5ZM391 320H121Q114 320 114.0 327.0Q114 334 121 334H391Q398 334 398.0 327.0Q398 320 391 320ZM83 51 97 53 101 25 87 23ZM111 55 125 57 130 29 115 27ZM139 60 153 62 158 34 144 31ZM354 34 359 62 373 60 368 31ZM382 29 387 57 401 55 397 27ZM411 25 415 53 429 51 425 22Z" fill="#fdcb58" />
<path d="M256 9Q256 9 256 9L200 -30Q199 -31 198.5 -29.0Q198 -27 198.5 -23.0Q199 -19 199.0 -15.0Q199 -11 199.5 -5.5Q200 0 200.5 4.5Q201 9 201.5 13.0Q202 17 202.5 18.5Q203 20 203 21Q203 21 309 21L311 8Q313 -5 314.0 -18.0Q315 -31 314 -31Q304 -27 256 9Z" fill="#99aab5" />
<path d="M275 -28Q275 -28 275 -28L277 -32Q280 -36 284.0 -45.0Q288 -54 289 -64Q289 -64 223 -64Q227 -36 238 -28Q238 -28 230 -15Q228 -10 223 8Q223 8 252 20L251 19L250 20L253 21H255Q257 21 258 21Q258 21 289 8L282 -15Q280 -19 275 -28Z" fill="#292f33" />
<path d="M189 69Q193 66 209.5 54.0Q226 42 241 31L256 21Q226 3 198 -29Q197 -31 191.5 -13.5Q186 4 181.0 24.5Q176 45 175 52Q175 54 177.5 59.0Q180 64 183.5 67.5Q187 71 189 69ZM323 69Q323 69 323 69Q325 71 328.5 67.5Q332 64 334.5 59.0Q337 54 337 52Q337 45 332.0 24.5Q327 4 321.5 -13.5Q316 -31 314 -29Q287 3 256 21Q256 21 271 31Q286 42 303.0 54.0Q320 66 323 69Z" fill="#f5f8fa" />
<path d="M256 12Q261 12 269.5 5.5Q278 -1 276 -6Q275 -14 273.0 -18.5Q271 -23 268.5 -24.5Q266 -26 265.0 -26.5Q264 -27 261.0 -26.5Q258 -26 257 -26Q256 -26 251.5 -26.5Q247 -27 245.5 -26.0Q244 -25 241.5 -20.5Q239 -16 237 -7Q236 -3 243.0 4.0Q250 11 256 12ZM285 -64H228Q229 -61 230.5 -55.5Q232 -50 239.5 -41.5Q247 -33 256.5 -33.0Q266 -33 273.0 -41.0Q280 -49 283 -56L285 -64Z" fill="#323a3f" />
</g></svg>