<svg xmlns="http://www.w3.org/2000/svg" viewBox="0 0 2048 2048">
<g transform="matrix(1 0 0 -1 0 2048)">
<path d="M256 64H370L313 -36L256 64Z" fill="#3e721d" />
<path d="M312 376Q331 376 350.5 372.0Q370 368 392.0 357.5Q414 347 430.0 330.0Q446 313 457.0 284.5Q468 256 468 220Q468 118 463.5 91.5Q459 65 439 65Q428 65 386.5 79.5Q345 94 312.0 94.0Q279 94 238.0 79.5Q197 65 186 65Q156 65 156 210Q156 217 156 220Q156 256 167.0 284.5Q178 313 194.5 330.0Q211 347 232.5 357.5Q254 368 273.5 372.0Q293 376 312 376Z" fill="#292f33" />
<path d="M261 64V109H365V64Q346 50 313.0 50.0Q280 50 261 64Z" fill="#f7dece" />
<path d="M261 90V132H365V90Q346 69 312.5 69.0Q279 69 261 90Z" fill="#eec2ad" />
<path d="M195 224Q195 287 229.5 331.0Q264 375 312.0 375.0Q360 375 394.5 331.0Q429 287 429 224Q429 163 395.0 120.5Q361 78 312.0 78.0Q263 78 229.0 120.5Q195 163 195 224Z" fill="#f7dece" />
<path d="M312 113Q288 113 276 126Q269 133 276.0 139.5Q283 146 290 140Q297 133 312.0 133.0Q327 133 335 140Q342 146 348.5 139.0Q355 132 348 126Q336 113 312 113Z" fill="#df1f32" />
<path d="M167 178H157Q156 186 156 224Q156 260 167.0 288.0Q178 316 194.0 332.0Q210 348 232.0 358.5Q254 369 273.0 372.5Q292 376 312.0 376.0Q332 376 351.0 372.5Q370 369 392.0 358.5Q414 348 430.0 332.0Q446 316 457.0 288.0Q468 260 468 223Q468 206 468 178H458V185V184Q458 201 453.5 203.5Q449 206 443.5 201.0Q438 196 433.5 197.0Q429 198 429 211Q429 238 406.0 253.5Q383 269 351 269Q334 269 312.0 276.5Q290 284 277 291L263 298Q244 279 234 270Q229 265 220.0 257.5Q211 250 207.0 246.0Q203 242 199.0 233.0Q195 224 195 212Q195 201 190.5 200.0Q186 199 180.5 203.5Q175 208 170.5 204.5Q166 201 166 184Q166 186 167 184Q167 182 167 178Z" fill="#292f33" />
<path d="M253 206V218Q253 223 256.5 226.5Q260 230 265.0 230.0Q270 230 273.5 226.5Q277 223 277 218V206Q277 201 273.5 197.5Q270 194 265.0 194.0Q260 194 256.5 197.5Q253 201 253 206ZM361 194Q356 194 352.5 197.5Q349 201 349 206V218Q349 223 352.5 226.5Q356 230 361.0 230.0Q366 230 369.5 226.5Q373 223 373 218V206Q373 201 369.5 197.5Q366 194 361 194Z" fill="#662113" />
<path d="M325 156H301Q295 156 295 162V165Q295 171 301 171H325Q331 171 331 165V162Q331 156 325 156ZM100 -4V-64H64V-4Q64 4 69.0 9.0Q74 14 81.5 14.0Q89 14 94.5 9.0Q100 4 100 -4ZM427 323Q427 309 396.0 300.5Q365 292 313.0 292.0Q261 292 230.0 300.5Q199 309 199 323Q199 358 229.0 403.0Q259 448 275 448Q286 448 298.5 435.5Q311 423 312.5 423.0Q314 423 327.0 435.5Q340 448 351 448Q367 448 397.0 403.0Q427 358 427 323Z" fill="#c1694f" />
<path d="M213.0 248.0Q220 237 220.0 221.5Q220 206 213.0 195.0Q206 184 196.5 184.0Q187 184 180.0 195.0Q173 206 173.0 221.5Q173 237 180.0 248.0Q187 259 196.5 259.0Q206 259 213.0 248.0ZM453 221Q453 206 446.0 195.0Q439 184 429.5 184.0Q420 184 413.0 195.0Q406 206 406.0 221.5Q406 237 413.0 248.0Q420 259 429.5 259.0Q439 259 446.0 248.0Q453 237 453 221Z" fill="#f7dece" />
<path d="M441 56Q466 46 482.0 27.5Q498 9 498 -14V-64H128V-14Q128 9 144.0 27.5Q160 46 185 56Q206 64 228 64H398Q420 64 441 56Z" fill="#77b255" />
<path d="M398 64Q420 64 441 56V-64H185V56Q206 64 228 64V-43H398Z" fill="#226699" />
<path d="M164 245V124Q164 93 143.5 70.0Q123 47 92 43V7Q92 3 89.0 -0.5Q86 -4 81.5 -4.0Q77 -4 74.0 -0.5Q71 3 71 7V43Q41 47 20.5 70.0Q0 93 0 124V245Q0 250 3.0 253.0Q6 256 10.5 256.0Q15 256 18.0 253.0Q21 250 21 245V124Q21 102 35.5 85.5Q50 69 71 65V245Q71 250 74.0 253.0Q77 256 81.5 256.0Q86 256 89.0 253.0Q92 250 92 245V65Q114 69 128.0 85.5Q142 102 142 124V245Q142 250 145.0 253.0Q148 256 152.5 256.0Q157 256 160.5 253.0Q164 250 164 245Z" fill="#66757f" />
<path d="M512 334Q512 324 501.5 310.5Q491 297 469.5 282.5Q448 268 406.5 258.5Q365 249 313.0 249.0Q261 249 219.5 258.5Q178 268 156.5 282.5Q135 297 124.5 310.5Q114 324 114 334Q114 341 124.0 344.5Q134 348 155.5 349.0Q177 350 197.5 350.0Q218 350 254.0 349.0Q290 348 313.0 348.0Q336 348 372.0 349.0Q408 350 428.0 350.0Q448 350 470.0 349.0Q492 348 502.0 344.5Q512 341 512 334Z" fill="#c1694f" />
<path d="M427 323Q427 309 396.0 300.5Q365 292 313.0 292.0Q261 292 230.0 300.5Q199 309 199 323Q199 334 203 348Q229 327 313.0 327.0Q397 327 423 348Q427 334 427 323Z" fill="#292f33" />
</g></svg>