<svg xmlns="http://www.w3.org/2000/svg" viewBox="0 0 512 512">
<g transform="matrix(1 0 0 -1 0 512)">
<path d="M355.5 30.0Q298 -11 228.5 0.0Q159 11 117.5 68.5Q76 126 87.5 196.0Q99 266 156.5 307.0Q214 348 283.5 337.0Q353 326 394.5 268.5Q436 211 424.5 141.0Q413 71 355.5 30.0Z" fill="#60352a" />
<path d="M114.5 264.0Q85 293 85.0 334.0Q85 375 114.5 404.5Q144 434 185.0 434.0Q226 434 255.0 404.5Q284 375 284.0 334.0Q284 293 255.0 264.0Q226 235 185.0 235.0Q144 235 114.5 264.0Z" fill="#60352a" />
<path d="M159.5 181.0Q114 227 114.0 291.5Q114 356 159.5 402.0Q205 448 270.0 448.0Q335 448 381.0 402.0Q427 356 427.0 291.5Q427 227 381.0 181.0Q335 135 270.0 135.0Q205 135 159.5 181.0Z" fill="#60352a" />
<path d="M427 164H85V334L427 292Z" fill="#60352a" />
<path d="M384 64Q408 64 424.5 47.5Q441 31 441 7V-64H71V7Q71 31 87.5 47.5Q104 64 128 64Z" fill="#9268ca" />
<path d="M370 -7H384V-64H370ZM128 -7H142V-64H128Z" fill="#7450a8" />
<path d="M213 135H299V50Q299 32 286.5 19.5Q274 7 256.0 7.0Q238 7 225.5 19.5Q213 32 213 50Z" fill="#af7e57" />
<path d="M199 377Q200 373 203.0 366.5Q206 360 219.0 343.5Q232 327 250.5 314.5Q269 302 304.5 290.5Q340 279 384 278V206Q384 153 346.5 115.5Q309 78 256.0 78.0Q203 78 165.5 115.5Q128 153 128 206V292Q148 295 162.5 304.5Q177 314 184.0 326.0Q191 338 194.5 349.5Q198 361 199 369Z" fill="#af7e57" />
<path d="M236.0 125.0Q228 129 228.0 135.0Q228 141 236.0 145.0Q244 149 256.0 149.0Q268 149 276.0 145.0Q284 141 284.0 135.0Q284 129 276.0 125.0Q268 121 256.0 121.0Q244 121 236.0 125.0Z" fill="#df1f32" />
<path d="M270 171H242Q235 171 235.0 178.0Q235 185 242 185H270Q277 185 277.0 178.0Q277 171 270 171Z" fill="#915a34" />
<path d="M79 376 153 431 176 433V393L219 383Q226 382 230.0 375.5Q234 369 232.5 361.5Q231 354 224.5 350.0Q218 346 211 348L153 361L124 332Q116 324 102 320L91 229Q91 215 77 215Q70 215 66.5 218.5Q63 222 63 226V229V343ZM433 376 450 343V229Q449 215 435 215Q429 215 425.5 218.5Q422 222 422 226L421 229L410 320Q396 324 389 332L359 361L301 348Q294 346 287.5 350.0Q281 354 279.5 361.5Q278 369 282.0 375.5Q286 382 293 383L336 393V433L350 428Z" fill="#90603e" />
<path d="M74 382 105 414 114 448H171V399L213 389Q221 387 225.0 380.5Q229 374 227.0 367.0Q225 360 218.5 356.0Q212 352 205 353L147 367L118 338Q110 330 96 325L85 235Q85 220 71 220Q65 220 61.5 224.0Q58 228 57 231V235V348ZM439 382 455 348V235Q455 233 454.5 230.5Q454 228 450.5 224.0Q447 220 441.0 220.0Q435 220 431.0 224.0Q427 228 427 231V235L416 325Q402 330 394 338L365 367L307 353Q300 352 293.5 356.0Q287 360 285.0 367.0Q283 374 287.0 380.5Q291 387 299 389L341 399V448H398L407 414Z" fill="#af7e57" />
<path d="M341 230Q331 206 309.5 206.0Q288 206 278 230Q277 232 279.0 234.0Q281 236 283 234Q291 228 309 228Q328 228 336 234Q338 236 340.0 234.0Q342 232 341 230ZM234 230Q224 206 202.5 206.0Q181 206 171 230Q170 232 172.0 234.0Q174 236 176 234Q184 228 203 228Q221 228 229 234Q231 236 233.0 234.0Q235 232 234 230Z" fill="#60352a" />
</g></svg>