<svg xmlns="http://www.w3.org/2000/svg" viewBox="0 0 2048 2048">
<g transform="matrix(1 0 0 -1 0 2048)">
<path d="M512 -64H114V-36Q114 0 139.0 25.0Q164 50 199 50H427Q462 50 487.0 25.0Q512 0 512 -36Z" fill="#3b88c3" />
<path d="M313 -64 233 64H393Z" fill="#292f33" />
<path d="M251 21V103H375V21Q336 -7 312.5 -7.0Q289 -7 251 21ZM213.0 248.0Q220 237 220.0 221.5Q220 206 213.0 195.0Q206 184 196.5 184.0Q187 184 180.0 195.0Q173 206 173.0 221.5Q173 237 180.0 248.0Q187 259 196.5 259.0Q206 259 213.0 248.0ZM453 221Q453 206 446.0 195.0Q439 184 429.5 184.0Q420 184 413.0 195.0Q406 206 406.0 221.5Q406 237 413.0 248.0Q420 259 429.5 259.0Q439 259 446.0 248.0Q453 237 453 221Z" fill="#af7e57" />
<path d="M213 50Q215 52 217.5 54.0Q220 56 227.5 62.0Q235 68 237.5 68.0Q240 68 242 64Q242 51 248.0 41.5Q254 32 268.5 20.5Q283 9 284 7Q294 -3 298.5 -8.5Q303 -14 308.0 -29.0Q313 -44 313 -64Q278 -44 256 -21Q236 -1 224.5 18.5Q213 38 213 50ZM412 50Q412 38 401.0 18.5Q390 -1 370 -21Q360 -31 345.5 -42.0Q331 -53 322 -58L313 -64Q313 -44 318.0 -29.0Q323 -14 327.5 -8.5Q332 -3 341 7Q343 9 357.0 20.5Q371 32 377.5 41.5Q384 51 384 64Q384 78 412 50Z" fill="#55acee" />
<path d="M251 79V128H375V79Q353 54 313.0 54.0Q273 54 251 79Z" fill="#9b6a49" />
<path d="M192 207Q192 266 227.5 308.5Q263 351 313.0 351.0Q363 351 398.5 308.5Q434 266 434.0 206.5Q434 147 398.5 105.0Q363 63 313.0 63.0Q263 63 227.5 105.0Q192 147 192 207Z" fill="#af7e57" />
<path d="M260 122Q253 128 260 135Q266 141 273 135Q282 128 313 128Q345 128 353 135Q360 141 366.5 134.5Q373 128 366 122Q354 109 313.0 109.0Q272 109 260 122ZM324 167H302Q298 167 295.0 170.0Q292 173 292.0 177.5Q292 182 295.0 185.0Q298 188 302 188H324Q328 188 331.0 185.0Q334 182 334.0 177.5Q334 173 331.0 170.0Q328 167 324 167Z" fill="#915a34" />
<path d="M313 399Q370 399 406.5 364.5Q443 330 443 290Q443 231 431 233Q427 233 423 240L403 280Q343 280 323 300Q323 300 330 279Q332 261 293 300Q293 300 292 288Q285 275 243 310Q239 307 234.0 302.5Q229 298 218.0 280.0Q207 262 202 240Q200 229 193 239Q182 254 182 290Q182 332 216.0 365.5Q250 399 313 399Z" fill="#60352a" />
<path d="M207.5 182.5Q192 198 192.0 220.5Q192 243 207.5 258.5Q223 274 245.0 274.0Q267 274 283.0 258.5Q299 243 299.0 220.5Q299 198 283.0 182.5Q267 167 245.0 167.0Q223 167 207.5 182.5ZM342.5 182.5Q327 198 327.0 220.5Q327 243 342.5 258.5Q358 274 380.5 274.0Q403 274 418.5 258.5Q434 243 434.0 220.5Q434 198 418.5 182.5Q403 167 380.5 167.0Q358 167 342.5 182.5Z" fill="#9b6a49" />
<path d="M277 235H348V199H277Z" fill="#9b6a49" />
<path d="M213.5 192.5Q199 207 199.0 227.5Q199 248 213.5 262.5Q228 277 249.0 277.0Q270 277 284.5 262.5Q299 248 299.0 227.5Q299 207 284.5 192.5Q270 178 249.0 178.0Q228 178 213.5 192.5ZM341.5 192.5Q327 207 327.0 227.5Q327 248 341.5 262.5Q356 277 377.0 277.0Q398 277 412.5 262.5Q427 248 427.0 227.5Q427 207 412.5 192.5Q398 178 377.0 178.0Q356 178 341.5 192.5Z" fill="#e1e8ed" />
<path d="M277 249H348V213H277Z" fill="#e1e8ed" />
<path d="M223.5 202.5Q213 213 213.0 227.5Q213 242 223.5 252.5Q234 263 249.0 263.0Q264 263 274.0 252.5Q284 242 284.0 227.5Q284 213 274.0 202.5Q264 192 249.0 192.0Q234 192 223.5 202.5ZM351.5 202.5Q341 213 341.0 227.5Q341 242 351.5 252.5Q362 263 377.0 263.0Q392 263 402.0 252.5Q412 242 412.0 227.5Q412 213 402.0 202.5Q392 192 377.0 192.0Q362 192 351.5 202.5Z" fill="#292f33" />
<path d="M71 107Q74 103 79.0 95.0Q84 87 92.0 61.5Q100 36 100 7V-64H71V7Q71 29 65.5 50.5Q60 72 55 82L50 92Z" fill="#66757f" />
<path d="M86 109Q92 100 82 94L52 78Q42 72 37 82L30 94Q25 103 35 109L65 125Q75 131 80 121Z" fill="#99aab5" />
<path d="M50 127Q32 118 21.5 124.0Q11 130 6.5 145.0Q2 160 0.5 175.5Q-1 191 0 204L1 216Q4 214 9.0 211.0Q14 208 26.5 200.0Q39 192 47.5 183.0Q56 174 63.0 164.0Q70 154 67.0 144.0Q64 134 50 127Z" fill="#f4900c" />
<path d="M42 144Q28 137 21.5 148.5Q15 160 16 176V191Q18 190 20.5 188.5Q23 187 30.0 182.5Q37 178 41.5 173.5Q46 169 49.5 163.5Q53 158 51.0 153.0Q49 148 42 144Z" fill="#ffdc5d" />
<path d="M484 292Q484 292 484 292Q495 284 474 276Q423 259 313 259Q214 259 159 274Q129 283 142 292Q161 304 165.5 319.5Q170 335 172.0 355.0Q174 375 185 391Q206 421 234.0 434.5Q262 448 313 448Q401 448 441 391Q452 375 454.0 355.0Q456 335 460.5 319.5Q465 304 484 292Z" fill="#3b88c3" />
<path d="M284 284H277Q223 284 151 298Q157 304 161 311Q222 300 270 299V445Q277 446 284 447ZM348 284H341V446Q350 445 356 444V299Q406 300 465 311Q469 304 475 298Q406 284 348 284Z" fill="#226699" />
</g></svg>