<svg xmlns="http://www.w3.org/2000/svg" viewBox="0 0 512 512">
<g transform="matrix(1 0 0 -1 0 512)">
<path d="M420 220Q434 220 444.5 203.5Q455 187 455 164Q455 141 445.5 125.0Q436 109 422 107Q409 37 363.0 -6.5Q317 -50 256.0 -50.0Q195 -50 149.0 -6.5Q103 37 90 107Q76 109 66.5 125.0Q57 141 57 164Q57 187 67.5 203.5Q78 220 92 220Q104 298 149.5 338.5Q195 379 256.0 379.0Q317 379 362.5 338.5Q408 298 420 220Z" fill="#f2d1a1" />
<path d="M175 26Q165 36 175 46Q184 55 194 46Q209 36 256 36Q304 36 318 46Q327 56 337.5 46.0Q348 36 337 25Q319 7 256.0 7.0Q193 7 175 26ZM270 78H242Q236 78 232.0 82.5Q228 87 228.0 92.5Q228 98 232.0 102.5Q236 107 242 107H270Q276 107 280.0 102.5Q284 98 284.0 92.5Q284 87 280.0 82.5Q276 78 270 78Z" fill="#c1694f" />
<path d="M171 164V192Q171 198 175.0 202.0Q179 206 185.0 206.0Q191 206 195.0 202.0Q199 198 199 192V164Q199 158 195.0 153.5Q191 149 185.0 149.0Q179 149 175.0 153.5Q171 158 171 164ZM313 164V192Q313 198 317.0 202.0Q321 206 327.0 206.0Q333 206 337.0 202.0Q341 198 341 192V164Q341 158 337.0 153.5Q333 149 327.0 149.0Q321 149 317.0 153.5Q313 158 313 164Z" fill="#662113" />
</g></svg>