<svg xmlns="http://www.w3.org/2000/svg" viewBox="0 0 2048 2048">
<g transform="matrix(1 0 0 -1 0 2048)">
<path d="M415 -64H97V-36Q97 -6 117.5 15.0Q138 36 168 36H330Q365 36 390.0 11.0Q415 -14 415 -50Z" fill="#dd2e44" />
<path d="M128 192Q128 193 145.5 196.5Q163 200 195.0 203.0Q227 206 256 206Q285 206 316.5 203.0Q348 200 366.0 196.5Q384 193 384 192Q384 171 376.5 157.5Q369 144 360.0 136.5Q351 129 331.0 125.5Q311 122 297.0 121.5Q283 121 256.0 121.0Q229 121 215.0 121.5Q201 122 181.0 125.5Q161 129 152.0 136.5Q143 144 135.5 157.5Q128 171 128 192Z" fill="#292f33" />
<path d="M207 33V82H305V33L256 12Z" fill="#f7dece" />
<path d="M207 56V105H305V56Q286 35 256.0 35.0Q226 35 207 56Z" fill="#eec2ad" />
<path d="M295 306Q335 293 356.0 266.0Q377 239 376 201Q371 70 265 70Q240 70 230.5 70.5Q221 71 208.0 77.0Q195 83 185 96Q153 106 148 143Q146 152 142.0 169.0Q138 186 137.0 195.0Q136 204 138 227Q141 255 164.0 275.0Q187 295 213 295Q221 306 250.5 309.0Q280 312 295 306Z" fill="#292f33" />
<path d="M337 198Q348 182 348 143Q348 105 320.5 77.0Q293 49 254.5 49.0Q216 49 188.5 76.5Q161 104 161 143Q161 174 164 182Q171 204 186 213Q198 221 205.0 229.0Q212 237 214 242L215 246Q220 234 238 223Q248 217 273.5 211.5Q299 206 312 191Q317 186 317 190Q317 192 317 196Q316 202 311.0 209.0Q306 216 301 218Q325 215 337 198Z" fill="#f7dece" />
<path d="M265 117H244Q239 117 239.0 122.0Q239 127 244 127H265Q270 127 270.0 122.0Q270 117 265 117ZM256 73Q224 73 215 82Q210 88 215 93Q220 97 225 93Q233 88 256 88Q282 88 287 93Q292 98 297.0 93.0Q302 88 297 82Q288 73 256 73Z" fill="#c1694f" />
<path d="M203 163V174Q203 178 206.0 181.0Q209 184 213.0 184.0Q217 184 220.0 181.0Q223 178 223 174V163Q223 159 220.0 156.0Q217 153 213.0 153.0Q209 153 206.0 156.0Q203 159 203 163ZM286 163V174Q286 178 289.0 181.0Q292 184 296.5 184.0Q301 184 304.0 181.0Q307 178 307 174V163Q307 159 304.0 156.0Q301 153 296.5 153.0Q292 153 289.0 156.0Q286 159 286 163Z" fill="#662113" />
<path d="M384 192H128V363Q128 398 153.0 423.0Q178 448 213 448H299Q334 448 359.0 423.0Q384 398 384 363ZM184 15 122 4Q116 3 115 10L113 24Q112 31 118 32L180 43Q186 44 188 37L190 23Q191 16 184 15ZM328 15Q322 16 323 23L325 37Q326 44 332 43L394 32Q401 31 400 24L398 10Q397 3 390 4Z" fill="#292f33" />
<path d="M169 192Q169 187 169.5 177.5Q170 168 174.0 145.0Q178 122 186.0 104.5Q194 87 212.5 72.5Q231 58 256 58Q274 58 288.5 65.5Q303 73 312.0 84.5Q321 96 327.5 110.5Q334 125 337.0 139.5Q340 154 341.5 165.5Q343 177 343 185V192H356Q355 186 354.5 176.0Q354 166 348.0 140.5Q342 115 332.5 95.0Q323 75 303.0 59.0Q283 43 256.0 43.0Q229 43 209.0 58.5Q189 74 179.5 96.0Q170 118 164.0 139.5Q158 161 157 177L156 192Z" fill="#99aab5" />
<path d="M249 7H263V-64H249Z" fill="#f5f8fa" />
<path d="M304 52Q305 53 306.5 52.5Q308 52 310.5 48.0Q313 44 313 36Q313 21 295.5 7.0Q278 -7 256.0 -7.0Q234 -7 216.5 7.0Q199 21 199 36Q199 44 201.5 48.0Q204 52 206 52H208Q208 37 224.0 29.0Q240 21 256.0 21.0Q272 21 288.0 29.0Q304 37 304 52Z" fill="#292f33" />
</g></svg>