<svg xmlns="http://www.w3.org/2000/svg" viewBox="0 0 2048 2048">
<g transform="matrix(1 0 0 -1 0 2048)">
<path d="M427 78Q427 55 410.0 38.0Q393 21 370 21H57Q33 21 16.5 38.0Q0 55 0 78V391Q0 415 16.5 431.5Q33 448 57 448H370Q393 448 410.0 431.5Q427 415 427 391Z" fill="#d99e82" />
<path d="M398 78Q398 66 390.0 58.0Q382 50 370 50H57Q45 50 36.5 58.0Q28 66 28 78V391Q28 403 36.5 411.5Q45 420 57 420H370Q382 420 390.0 411.5Q398 403 398 391Z" fill="#5c913b" />
<path d="M107 321Q134 354 135 355Q139 361 139 366Q139 375 131 375Q124 375 121.0 365.5Q118 356 113 356Q105 356 105 365Q105 375 113.0 382.5Q121 390 131.5 390.0Q142 390 149.5 383.5Q157 377 157 367Q157 361 154.0 354.5Q151 348 147.5 344.0Q144 340 138.0 333.0Q132 326 130 323H150Q159 323 159.0 315.5Q159 308 151 308H113Q104 308 104 316Q104 318 107 321ZM88 244Q95 244 95.0 237.5Q95 231 88 231H72V214Q72 207 65.0 207.0Q58 207 58 214V231H42Q35 231 35.0 237.5Q35 244 42 244H58V261Q58 267 65.0 267.0Q72 267 72 261V244ZM150 224Q159 224 159.0 216.5Q159 209 151 209H113Q104 209 104 216Q104 219 107 222Q134 255 135 256Q139 262 139 266Q139 275 131 275Q124 275 121.0 266.0Q118 257 113 257Q105 257 105 265Q105 276 113.0 283.5Q121 291 131.5 291.0Q142 291 149.5 284.5Q157 278 157 267Q157 262 154.0 255.5Q151 249 147.5 244.5Q144 240 138.0 233.0Q132 226 130 224ZM162 178H44Q37 178 37.0 185.0Q37 192 44 192H162Q169 192 169.0 185.0Q169 178 162 178Z" fill="#ffffff" />
<path d="M498 -64H128V-14Q128 19 159.0 41.5Q190 64 228 64H398Q436 64 467.0 41.5Q498 19 498 -14Z" fill="#9266cc" />
<path d="M468 220Q468 118 463.5 91.0Q459 64 439 64Q428 64 386.5 79.0Q345 94 312.0 94.0Q279 94 238.0 79.0Q197 64 186 64Q156 64 156 210Q156 217 156 220Q156 256 167.0 284.5Q178 313 194.5 330.0Q211 347 232.5 357.5Q254 368 273.5 372.0Q293 376 312.0 376.0Q331 376 350.5 372.0Q370 368 392.0 357.5Q414 347 430.0 330.0Q446 313 457.0 284.5Q468 256 468 220ZM242 64H382Q381 62 379.5 58.5Q378 55 372.5 46.5Q367 38 359.5 31.5Q352 25 339.5 19.5Q327 14 312 14Q289 14 271.5 26.5Q254 39 248 52L242 64Z" fill="#292f33" />
<path d="M261 64V109H365V64Q365 49 348.0 38.5Q331 28 313.0 28.0Q295 28 278.0 38.5Q261 49 261 64Z" fill="#f7dece" />
<path d="M261 90V132H365V90Q346 69 312.5 69.0Q279 69 261 90Z" fill="#eec2ad" />
<path d="M195 224Q195 287 229.5 331.0Q264 375 312.0 375.0Q360 375 394.5 331.0Q429 287 429 224Q429 163 395.0 120.5Q361 78 312.0 78.0Q263 78 229.0 120.5Q195 163 195 224Z" fill="#f7dece" />
<path d="M312 113Q288 113 276 126Q269 133 276.0 139.5Q283 146 290 140Q297 133 312 133Q327 133 335 140Q342 146 348.5 139.0Q355 132 348 126Q336 113 312 113Z" fill="#df1f32" />
<path d="M167 178H157Q156 186 156 224Q156 269 172.0 304.0Q188 339 212.5 358.5Q237 378 262.5 387.5Q288 397 312.0 397.0Q336 397 361.5 387.0Q387 377 411.5 358.0Q436 339 452.0 303.5Q468 268 468 223Q468 206 468 178H458V185V184Q458 201 453.5 203.5Q449 206 443.5 201.0Q438 196 433.5 197.0Q429 198 429 211Q429 238 406.0 253.5Q383 269 351 269Q334 269 312.0 276.5Q290 284 277 291L263 298Q244 279 234 270Q229 265 220.0 257.5Q211 250 207.0 246.0Q203 242 199.0 233.0Q195 224 195 212Q195 201 190.5 200.0Q186 199 180.5 203.5Q175 208 170.5 204.5Q166 201 166 184Q166 186 167 184Q167 182 167 178Z" fill="#292f33" />
<path d="M253 206V218Q253 223 256.5 226.5Q260 230 265.0 230.0Q270 230 273.5 226.5Q277 223 277 218V206Q277 201 273.5 197.5Q270 194 265.0 194.0Q260 194 256.5 197.5Q253 201 253 206ZM361 194Q356 194 352.5 197.5Q349 201 349 206V218Q349 223 352.5 226.5Q356 230 361.0 230.0Q366 230 369.5 226.5Q373 223 373 218V206Q373 201 369.5 197.5Q366 194 361 194Z" fill="#662113" />
<path d="M325 156H301Q295 156 295 162V165Q295 171 301 171H325Q331 171 331 165V162Q331 156 325 156Z" fill="#c1694f" />
<path d="M213.0 248.0Q220 237 220.0 221.5Q220 206 213.0 195.0Q206 184 196.5 184.0Q187 184 180.0 195.0Q173 206 173.0 221.5Q173 237 180.0 248.0Q187 259 196.5 259.0Q206 259 213.0 248.0ZM453 221Q453 206 446.0 195.0Q439 184 429.5 184.0Q420 184 413.0 195.0Q406 206 406.0 221.5Q406 237 413.0 248.0Q420 259 429.5 259.0Q439 259 446.0 248.0Q453 237 453 221Z" fill="#f7dece" />
<path d="M313 18Q313 18 313 18L257 -21Q256 -21 255.5 -19.0Q255 -17 255.5 -13.5Q256 -10 256.0 -5.5Q256 -1 256.5 4.5Q257 10 257.5 14.0Q258 18 258.5 22.5Q259 27 259.5 28.5Q260 30 260 31Q260 31 366 31L368 17Q369 4 370.5 -9.0Q372 -22 371 -21Q361 -17 313 18Z" fill="#744eaa" />
<path d="M246 79Q249 76 266.0 64.0Q283 52 298 42L313 31Q283 14 255 -19Q253 -21 248.0 -3.5Q243 14 238.0 34.5Q233 55 232 62Q232 64 234.5 69.0Q237 74 240.5 77.5Q244 81 246 79ZM380 79Q380 79 380 79Q382 81 385.5 77.5Q389 74 391.5 69.0Q394 64 394 62Q393 55 388.0 34.5Q383 14 378.0 -3.5Q373 -21 371 -19Q343 14 313 31Q313 31 328 42Q343 52 360.0 64.0Q377 76 380 79Z" fill="#cbb7ea" />
<path d="M299 21H327V-64H299Z" fill="#744eaa" />
<path d="M303.0 -53.0Q299 -49 299.0 -43.0Q299 -37 303.0 -32.5Q307 -28 313.0 -28.0Q319 -28 323.0 -32.5Q327 -37 327.0 -43.0Q327 -49 323.0 -53.0Q319 -57 313.0 -57.0Q307 -57 303.0 -53.0ZM303.0 -10.0Q299 -6 299.0 0.0Q299 6 303.0 10.0Q307 14 313.0 14.0Q319 14 323.0 10.0Q327 6 327.0 0.0Q327 -6 323.0 -10.0Q319 -14 313.0 -14.0Q307 -14 303.0 -10.0Z" fill="#cbb7ea" />
</g></svg>