<svg xmlns="http://www.w3.org/2000/svg" viewBox="0 0 2048 2048">
<g transform="matrix(1 0 0 -1 0 2048)">
<path d="M199 135Q199 129 195.0 125.0Q191 121 185.0 121.0Q179 121 175.0 125.0Q171 129 171 135V249Q171 255 175.0 259.0Q179 263 185.0 263.0Q191 263 195.0 259.0Q199 255 199 249ZM341 135Q341 129 337.0 125.0Q333 121 327.0 121.0Q321 121 317.0 125.0Q313 129 313 135V249Q313 255 317.0 259.0Q321 263 327.0 263.0Q333 263 337.0 259.0Q341 255 341 249Z" fill="#d4ab88" />
<path d="M270 178H313L299 21H256V121V21H213L199 178Z" fill="#66757f" />
<path d="M256 121Q259 121 263.0 96.0Q267 71 268 46L270 21Q270 18 268.5 18.0Q267 18 263.0 19.5Q259 21 256.0 21.0Q253 21 249.0 19.5Q245 18 243.5 18.0Q242 18 242 21Q248 121 256 121Z" fill="#546170" />
<path d="M315 282Q341 277 341 254V149H313V135H284L256 149L228 135H199V149H171V254Q171 277 197 282L228 292H284Q298 286 315 282ZM237 29Q256 29 256 21Q257 6 241.0 -10.0Q225 -26 211 -21Q203 -16 204.5 -4.0Q206 8 213 21Q217 29 237 29Z" fill="#292f33" />
<path d="M275 29Q295 29 299 21Q306 8 307.5 -4.0Q309 -16 301 -21Q287 -26 271.0 -10.0Q255 6 256 21Q256 29 275 29Z" fill="#292f33" />
<path d="M275 411Q313 398 312 363Q309 302 261 302Q249 302 245.0 302.5Q241 303 234.5 305.5Q228 308 224 314Q209 319 207 336Q206 340 204.5 348.0Q203 356 202.5 360.0Q202 364 202 375Q204 387 214.5 396.5Q225 406 237 406Q241 411 254.5 412.5Q268 414 275 411Z" fill="#963b22" />
<path d="M239 312H273V269H239Z" fill="#d4ab88" />
<path d="M294 361Q299 354 299 336Q299 318 286.5 305.5Q274 293 256.0 293.0Q238 293 225.5 305.5Q213 318 213 336Q213 350 214 354Q218 364 224 368Q230 371 233.5 375.0Q237 379 237 381L238 383Q240 378 248 373Q253 370 265.0 367.5Q277 365 283 358Q284 356 284.5 357.0Q285 358 285 360H284Q283 368 277 370Q288 369 294 361Z" fill="#d4ab88" />
<path d="M275 312Q270 302 256 302Q250 302 245.0 304.5Q240 307 239 309L237 312ZM261 324H251Q249 324 249.0 326.5Q249 329 251 329H261Q263 329 263.0 326.5Q263 324 261 324Z" fill="#c1694f" />
<path d="M282 260 281 283 284 292 292 290 300 277ZM230 260 212 277 220 290 228 292 231 283Z" fill="#546170" />
<path d="M256 192 282 283 300 264Z" fill="#66757f" />
<path d="M256 192 212 264 230 283Z" fill="#66757f" />
<path d="M256 192 228 292 256 277 284 292Z" fill="#e1e8ed" />
<path d="M270 277 258 265 269 238 256 192 243 238 254 265 242 277 256 283ZM289 391Q330 390 330 379Q330 372 308.0 366.0Q286 360 256.0 360.0Q226 360 204.0 366.0Q182 372 182 379Q182 390 222 391Q221 391 221.0 391.5Q221 392 221 392L208 397Q216 436 236 433Q263 430 274 433Q290 437 301 411L305 397Q298 394 289 391Z" fill="#292f33" />
<path d="M236 298 256 283 243 269 228 292ZM276 298 284 292 269 269 256 283Z" fill="#f5f8fa" />
<path d="M196.0 -60.0Q171 -56 171.0 -50.0Q171 -44 196.0 -40.0Q221 -36 256.0 -36.0Q291 -36 316.0 -40.0Q341 -44 341.0 -50.0Q341 -56 316.0 -60.0Q291 -64 256.0 -64.0Q221 -64 196.0 -60.0Z" fill="#99aab5" />
<path d="M307 388Q308 385 305.0 383.0Q302 381 293 379Q276 375 256 376Q236 375 219 379Q210 381 207.5 383.0Q205 385 205 388Q206 389 206 391L208 397Q223 391 256 391Q271 391 283.0 392.5Q295 394 300 396L305 397Q306 394 306 391Q307 389 307 388Z" fill="#66757f" />
<path d="M306 364Q308 365 309.0 362.5Q310 360 307 359L294 355Q291 353 291 352Q291 351 290.5 347.5Q290 344 289.0 341.0Q288 338 286 337Q283 335 276.5 335.0Q270 335 267 336Q264 338 260 352L256 354Q253 354 252 352Q249 338 245 336Q243 335 236.0 335.0Q229 335 226 337Q225 338 224.0 341.0Q223 344 222.0 347.5Q221 351 221 352Q221 353 218 355L205 359Q203 360 203.5 362.5Q204 365 207 364L220 360Q231 361 246 359Q256 358 256.5 358.0Q257 358 267 359Q282 361 292 360Z" fill="#292f33" />
</g></svg>