<svg xmlns="http://www.w3.org/2000/svg" viewBox="0 0 512 512">
<g transform="matrix(1 0 0 -1 0 512)">
<path d="M460 217Q475 211 477.0 198.5Q479 186 473 183Q451 158 429 128Q422 120 418.0 109.5Q414 99 413 94L412 88Q411 81 407.5 68.0Q404 55 392.0 30.5Q380 6 362.5 -13.5Q345 -33 313.0 -48.5Q281 -64 242 -64Q202 -64 171.5 -50.5Q141 -37 125.0 -18.0Q109 1 99.0 25.0Q89 49 86.0 66.5Q83 84 83 100Q83 162 74 220L52 301Q49 312 54.5 321.0Q60 330 72.5 333.5Q85 337 94.5 331.5Q104 326 107 316L129 230Q142 190 149 193Q157 195 150 240L129 381Q127 392 134.0 401.0Q141 410 153.0 412.0Q165 414 174.0 407.5Q183 401 185 390L207 236Q210 208 219 208Q225 209 226 232L235 422Q236 433 244.0 439.5Q252 446 264.0 446.0Q276 446 284.0 438.0Q292 430 291 419L281 233Q278 197 288 199Q294 201 298 222L333 381Q335 391 344.5 396.5Q354 402 366.5 398.5Q379 395 384.5 386.5Q390 378 388 368L349 193Q344 163 347 147Q350 137 359 139Q367 140 372.0 147.5Q377 155 382.5 167.5Q388 180 393 186Q408 207 426.5 215.5Q445 224 460 217Z" fill="#7c533e" />
<path d="M354 139Q321 137 295.5 123.0Q270 109 256.5 89.5Q243 70 236.0 52.0Q229 34 227 17Q226 2 222.5 -1.5Q219 -5 216.0 0.5Q213 6 212 16Q212 74 255 116Q286 146 346 155Q347 142 354 139Z" fill="#583529" />
</g></svg>