<svg xmlns="http://www.w3.org/2000/svg" viewBox="0 0 512 512">
<g transform="matrix(1 0 0 -1 0 512)">
<path d="M427 161V105Q427 31 382.5 -17.0Q338 -65 254 -65Q151 -65 116 65Q105 109 110.5 154.0Q116 199 133 214Q139 219 144.0 217.0Q149 215 153.0 216.5Q157 218 157 226V249Q157 262 165.0 274.0Q173 286 192.0 286.0Q211 286 219.5 274.0Q228 262 228 249V237Q230 240 233.5 243.5Q237 247 248.0 252.0Q259 257 269 254Q282 250 289.0 242.0Q296 234 297 228L298 222Q300 224 303.5 227.0Q307 230 318.0 234.5Q329 239 341 233Q354 229 360.5 219.5Q367 210 368 203V196Q370 198 372.0 200.0Q374 202 382.5 206.0Q391 210 401 205Q413 200 419.5 189.0Q426 178 426 170Z" fill="#d5ab88" />
<path d="M299 185Q299 170 288.5 159.5Q278 149 263.0 149.0Q248 149 238.0 159.5Q228 170 228 185V412Q228 427 238.0 437.5Q248 448 263.0 448.0Q278 448 288.5 437.5Q299 427 299 412ZM174 220 249 -63Q215 -62 183.5 -40.5Q152 -19 132.0 10.5Q112 40 99.5 68.5Q87 97 87 114Q87 125 89.0 134.5Q91 144 95.0 156.0Q99 168 101 176Q108 204 116.0 212.0Q124 220 141 220Z" fill="#d5ab88" />
<path d="M142 85 143 220H156V85Q156 78 150 78H149Q142 78 142 85Z" fill="#aa8052" />
</g></svg>