<svg xmlns="http://www.w3.org/2000/svg" viewBox="0 0 512 512">
<g transform="matrix(1 0 0 -1 0 512)">
<path d="M469 -64H43V-50Q43 -14 68.0 11.0Q93 36 128 36H384Q419 36 444.0 11.0Q469 -14 469 -50ZM380 157Q384 157 390.5 156.0Q397 155 401.0 154.5Q405 154 409.0 153.0Q413 152 414.5 150.0Q416 148 415 144Q412 135 405.5 130.5Q399 126 393.0 126.0Q387 126 380.0 126.5Q373 127 372 127Q370 128 372.0 135.0Q374 142 377 150Z" fill="#66757f" />
<path d="M385 154Q412 151 412 147Q412 145 401 141Q397 139 388.0 122.0Q379 105 370.0 91.5Q361 78 354.0 82.5Q347 87 355.0 105.0Q363 123 374 138Z" fill="#292f33" />
<path d="M132 157Q132 155 133.5 152.5Q135 150 137.5 142.5Q140 135 140.5 132.0Q141 129 140 127Q139 127 132.0 126.5Q125 126 119.0 126.0Q113 126 106.5 130.5Q100 135 97 144Q96 148 97.5 150.0Q99 152 103.0 153.0Q107 154 111.0 154.5Q115 155 121.5 156.0Q128 157 132 157Z" fill="#66757f" />
<path d="M127 154Q127 154 152 115Q167 88 158 82Q151 78 142.0 91.5Q133 105 124.0 122.0Q115 139 111 141Q93 148 108 151Q114 153 127 154Z" fill="#292f33" />
<path d="M310 391Q362 374 390.0 337.5Q418 301 416 252Q410 77 270 77Q237 77 224.5 78.0Q212 79 194.0 87.0Q176 95 163 112Q121 125 114 175Q112 187 106.5 209.5Q101 232 100.0 243.5Q99 255 101 286Q106 323 136.5 349.0Q167 375 200 376Q211 391 250.5 395.0Q290 399 310 391Z" fill="#292f33" />
<path d="M365 247Q380 226 380 174Q380 123 343.5 86.5Q307 50 256.0 50.0Q205 50 168.5 86.5Q132 123 132 174Q132 215 135 226Q145 255 165 267Q180 277 190.0 288.0Q200 299 201 305L203 311Q210 295 234 280Q246 272 280.5 265.0Q315 258 332 238Q339 231 339 239Q339 240 338 245Q337 252 330.5 261.5Q324 271 317 274Q348 270 365 247Z" fill="#f7dece" />
<path d="M269 141H242Q235 141 235 148V151Q235 157 242 157H269Q276 157 276 151V148Q276 141 269 141Z" fill="#c1694f" />
<path d="M109 238Q107 239 107.0 244.0Q107 249 109 250Q113 254 144.5 255.0Q176 256 216 252Q219 252 225.0 251.0Q231 250 238.0 249.0Q245 248 256.5 248.0Q268 248 275.0 249.0Q282 250 287.5 251.0Q293 252 296 252Q321 255 346.0 255.5Q371 256 386.0 254.0Q401 252 404 250Q405 249 405.0 244.0Q405 239 404 238Q403 237 399.5 234.5Q396 232 393.0 229.0Q390 226 389 223Q389 223 386.5 210.0Q384 197 380.0 186.0Q376 175 370 170Q358 163 332.5 163.5Q307 164 298 168Q292 171 287.5 176.0Q283 181 280.5 188.0Q278 195 276.5 200.0Q275 205 273.0 213.0Q271 221 271 223Q270 227 266.5 229.0Q263 231 259 231H256Q244 231 242 223Q241 221 239.5 213.0Q238 205 236.5 200.0Q235 195 232.0 188.0Q229 181 224.5 176.0Q220 171 214 168Q205 164 179.5 163.5Q154 163 143 170Q137 175 133.0 186.0Q129 197 126.5 210.0Q124 223 124 223Q123 226 120.0 229.0Q117 232 113.0 234.5Q109 237 109 238Z" fill="#292f33" />
<path d="M112 329Q113 334 114.5 342.5Q116 351 123.0 372.5Q130 394 138.5 410.0Q147 426 162.5 438.0Q178 450 196 448Q205 447 222.0 444.5Q239 442 245.5 441.5Q252 441 264.0 440.5Q276 440 285.5 441.5Q295 443 308 446Q329 452 349.5 435.0Q370 418 384 384Q389 371 393.0 356.5Q397 342 399 334L401 327Q403 326 415.5 327.0Q428 328 443.5 321.5Q459 315 460 302Q461 293 454.0 283.5Q447 274 429.5 265.0Q412 256 386.0 249.5Q360 243 321.0 239.0Q282 235 234 235Q167 235 106.5 255.0Q46 275 43 296Q41 309 58.0 317.0Q75 325 94 327Z" fill="#66757f" />
<path d="M116 346Q127 343 153 337Q193 330 253.5 331.0Q314 332 345 339L394 353Q400 334 402 322Q403 313 394.0 309.0Q385 305 362 299Q318 288 249.5 287.0Q181 286 148 294Q123 299 115.5 305.0Q108 311 110 320ZM114 148Q112 147 116 145Q150 129 220 127Q298 126 298 114Q298 111 293 106Q277 91 282 58Q283 54 297.5 40.0Q312 26 314 21Q315 17 310.5 -4.0Q306 -25 301 -44L296 -63L172 -60Q155 -1 139.0 47.5Q123 96 114 134Q110 147 114 148Z" fill="#292f33" />
<path d="M99 147Q98 147 102 145Q136 128 206 127Q284 125 284 114Q284 111 279 106Q265 92 271 57Q271 54 284.5 39.5Q298 25 299 21Q300 17 296.0 -4.5Q292 -26 287 -45L282 -64L158 -60Q141 -1 125.0 47.0Q109 95 99 133Q96 147 99 147Z" fill="#66757f" />
<path d="M399 148Q399 148 400 141Q400 138 399 134Q392 102 385.5 82.0Q379 62 367.0 26.5Q355 -9 341 -60L216 -63Q216 -62 215.5 -59.0Q215 -56 213.0 -48.0Q211 -40 209.0 -32.5Q207 -25 205.0 -16.0Q203 -7 201.5 0.5Q200 8 199.5 13.5Q199 19 199 21Q200 26 230.0 40.0Q260 54 261 58Q262 65 219 106Q205 120 236 124Q254 126 293 127Q362 128 396 145Q399 147 399 148Z" fill="#292f33" />
<path d="M412 148Q412 148 413 141Q413 138 412 134Q403 95 386.0 45.0Q369 -5 352 -64L229 -63Q229 -62 228.5 -59.0Q228 -56 225.5 -48.0Q223 -40 221.5 -32.5Q220 -25 218.0 -16.0Q216 -7 214.5 0.5Q213 8 212.0 13.5Q211 19 212 21Q213 26 243.0 40.0Q273 54 273 58Q275 65 232 106Q218 120 249 124Q267 126 305 127Q375 128 409 145Q411 147 412 148Z" fill="#66757f" />
</g></svg>