<svg xmlns="http://www.w3.org/2000/svg" viewBox="0 0 512 512">
<g transform="matrix(1 0 0 -1 0 512)">
<path d="M128 364 384 359V206Q384 153 346.5 115.5Q309 78 256.0 78.0Q203 78 165.5 115.5Q128 153 128 206Z" fill="#7c533e" />
<path d="M185 235V249Q185 255 189.0 259.0Q193 263 199.0 263.0Q205 263 209.0 259.0Q213 255 213 249V235Q213 229 209.0 224.5Q205 220 199.0 220.0Q193 220 189.0 224.5Q185 229 185 235ZM299 235V249Q299 255 303.0 259.0Q307 263 313.0 263.0Q319 263 323.0 259.0Q327 255 327 249V235Q327 229 323.0 224.5Q319 220 313.0 220.0Q307 220 303.0 224.5Q299 229 299 235Z" fill="#000000" />
<path d="M270 171H242Q235 171 235.0 178.0Q235 185 242 185H270Q277 185 277.0 178.0Q277 171 270 171ZM213 107Q215 110 218.0 114.5Q221 119 232.0 127.0Q243 135 256.0 135.0Q269 135 279.5 128.0Q290 121 294 114L299 107Z" fill="#3d2e24" />
<path d="M146.5 282.0Q154 270 154.0 253.0Q154 236 146.5 224.0Q139 212 128.5 212.0Q118 212 110.5 224.0Q103 236 103.0 253.0Q103 270 110.5 282.0Q118 294 128.5 294.0Q139 294 146.5 282.0ZM401.5 282.0Q409 270 409.0 253.0Q409 236 401.5 224.0Q394 212 383.5 212.0Q373 212 365.5 224.0Q358 236 358.0 253.0Q358 270 365.5 282.0Q373 294 383.5 294.0Q394 294 401.5 282.0Z" fill="#7c533e" />
<path d="M256 436Q319 436 359.5 397.5Q400 359 400 314Q400 249 386 250Q382 250 378 259L356 298Q289 298 267 320Q267 320 275 297Q278 276 234 320Q234 320 233 308Q226 291 178 331Q175 329 169.0 325.0Q163 321 151.0 302.0Q139 283 134 259Q132 247 124 257Q112 272 112 314Q112 361 149.5 398.5Q187 436 256 436Z" fill="#0b0200" />
<path d="M384 64Q408 64 424.5 47.5Q441 31 441 7V-64H71V7Q71 31 87.5 47.5Q104 64 128 64Z" fill="#4289c1" />
<path d="M370 -7H384V-64H370ZM128 -7H142V-64H128Z" fill="#2a6797" />
<path d="M213 107H299V50Q299 32 286.5 19.5Q274 7 256.0 7.0Q238 7 225.5 19.5Q213 32 213 50Z" fill="#7c533e" />
<path d="M213 107H299V50Q299 32 286.5 19.5Q274 7 256.0 7.0Q238 7 225.5 19.5Q213 32 213 50Z" fill="#7c533e" />
</g></svg>