<svg xmlns="http://www.w3.org/2000/svg" viewBox="0 0 512 512">
<g transform="matrix(1 0 0 -1 0 512)">
<path d="M384 64Q408 64 424.5 47.5Q441 31 441 7V-64H71V7Q71 31 87.5 47.5Q104 64 128 64Z" fill="#fa743e" />
<path d="M128 -7H142V-64H128ZM370 -7H384V-64H370Z" fill="#dd551f" />
<path d="M312 430Q366 412 394.5 375.0Q423 338 421 286Q415 107 270 107Q244 107 234.5 107.0Q225 107 208.0 110.5Q191 114 181.0 121.5Q171 129 160 143Q117 156 110 207Q108 219 102.5 242.5Q97 266 95.5 278.0Q94 290 96 322Q101 360 132.5 387.0Q164 414 198 415Q210 430 250.5 434.0Q291 438 312 430Z" fill="#ffe51e" />
<path d="M213 135H299V50Q299 32 286.5 19.5Q274 7 256.0 7.0Q238 7 225.5 19.5Q213 32 213 50Z" fill="#f3d2a2" />
<path d="M368 282Q384 260 384 206Q384 154 346.5 116.0Q309 78 256.0 78.0Q203 78 165.5 116.0Q128 154 128 206Q128 249 131 260Q141 290 162 303Q178 313 188.0 324.0Q198 335 200 342L202 348Q209 331 233 316Q246 308 281.5 300.5Q317 293 335 273Q342 265 341 273Q341 275 341 280Q340 287 333.5 296.5Q327 306 319 309Q352 305 368 282Z" fill="#f3d2a2" />
<path d="M270 156H242Q235 156 235.0 163.5Q235 171 242 171H270Q277 171 277.0 163.5Q277 156 270 156ZM213 107Q215 110 218.0 114.5Q221 119 232.0 127.0Q243 135 256.0 135.0Q269 135 279.5 128.0Q290 121 294 114L299 107Z" fill="#c1694f" />
<path d="M185 220V235Q185 241 189.0 245.0Q193 249 199.0 249.0Q205 249 209.0 245.0Q213 241 213 235V220Q213 215 209.0 210.5Q205 206 199.0 206.0Q193 206 189.0 210.5Q185 215 185 220ZM299 220V235Q299 241 303.0 245.0Q307 249 313.0 249.0Q319 249 323.0 245.0Q327 241 327 235V220Q327 215 323.0 210.5Q319 206 313.0 206.0Q307 206 303.0 210.5Q299 215 299 220Z" fill="#662113" />
</g></svg>