<svg xmlns="http://www.w3.org/2000/svg" viewBox="0 0 2048 2048">
<g transform="matrix(1 0 0 -1 0 2048)">
<path d="M75.0 11.0Q0 86 0.0 192.0Q0 298 75.0 373.0Q150 448 256.0 448.0Q362 448 437.0 373.0Q512 298 512.0 192.0Q512 86 437.0 11.0Q362 -64 256.0 -64.0Q150 -64 75.0 11.0Z" fill="#ffcc4d" />
<path d="M282 78Q268 91 256.0 91.0Q244 91 230 78Q209 57 186.5 57.0Q164 57 143 78Q130 91 118 91Q107 91 99 84Q89 76 81.5 85.5Q74 95 83 103Q98 116 117 116H118Q140 116 161 95Q175 82 187.0 82.0Q199 82 213 95Q234 116 256.5 116.0Q279 116 300 95Q313 82 325.5 82.0Q338 82 352 95Q372 116 395 116Q414 116 429 104Q438 96 430.5 86.5Q423 77 413 85Q405 91 395 91Q383 91 369 78Q348 57 325.5 57.0Q303 57 282 78ZM162 180Q140 180 124.5 195.5Q109 211 109.0 233.0Q109 255 124.5 271.0Q140 287 162 287Q176 287 185.5 277.0Q195 267 195.0 253.5Q195 240 185.5 230.5Q176 221 162 221Q157 221 153.5 224.5Q150 228 150.0 233.0Q150 238 153.5 242.0Q157 246 162 246Q170 246 170.0 254.0Q170 262 162 262Q150 262 141.5 253.5Q133 245 133.0 233.0Q133 221 141.5 212.5Q150 204 162 204Q182 204 196.5 218.5Q211 233 211.0 253.5Q211 274 196.5 288.5Q182 303 162 303Q133 303 112.5 282.5Q92 262 92 233Q92 228 88.5 224.5Q85 221 80.0 221.0Q75 221 71.0 224.5Q67 228 67 233Q67 272 95.0 300.0Q123 328 162 328Q193 328 214.5 306.0Q236 284 236.0 253.5Q236 223 214.5 201.5Q193 180 162 180ZM350 180Q319 180 297.5 201.5Q276 223 276.0 253.5Q276 284 297.5 306.0Q319 328 350 328Q372 328 387.5 312.0Q403 296 403.0 274.0Q403 252 387.5 236.5Q372 221 350 221Q336 221 326.5 230.5Q317 240 317.0 253.5Q317 267 326.5 277.0Q336 287 350 287Q355 287 358.5 283.0Q362 279 362.0 274.0Q362 269 358.5 265.5Q355 262 350 262Q342 262 342.0 254.0Q342 246 350 246Q362 246 370.5 254.0Q379 262 379.0 274.0Q379 286 370.5 294.5Q362 303 350 303Q330 303 315.5 288.5Q301 274 301.0 253.5Q301 233 315.5 218.5Q330 204 350 204Q379 204 399.5 224.5Q420 245 420 274Q420 279 423.5 283.0Q427 287 432.0 287.0Q437 287 440.5 283.0Q444 279 444 274Q444 235 416.5 207.5Q389 180 350 180Z" fill="#664500" />
</g></svg>