<svg xmlns="http://www.w3.org/2000/svg" viewBox="0 0 512 512">
<g transform="matrix(1 0 0 -1 0 512)">
<path d="M512 149V-50Q512 -56 508.0 -60.0Q504 -64 498.0 -64.0Q492 -64 488.0 -60.0Q484 -56 484 -50V-21H28V-50Q28 -56 24.0 -60.0Q20 -64 14.0 -64.0Q8 -64 4.0 -60.0Q0 -56 0 -50V263Q0 269 4.0 273.0Q8 277 14.0 277.0Q20 277 24.0 273.0Q28 269 28 263V50H484V149Q484 155 488.0 159.5Q492 164 498.0 164.0Q504 164 508.0 159.5Q512 155 512 149Z" fill="#c1694f" />
<path d="M242 206V121H185V178Q185 190 193.5 198.0Q202 206 213 206Z" fill="#aa8dd8" />
<path d="M441 189Q484 189 484 149V36H171V121H185Q185 124 186.0 130.0Q187 136 191.5 150.5Q196 165 202.0 176.5Q208 188 218.5 197.0Q229 206 242 206Z" fill="#55acee" />
<path d="M185 121 171 36H28V92Q28 104 36.5 112.5Q45 121 57 121Z" fill="#bdddf4" />
<path d="M47.5 134.5Q27 147 30.0 160.0Q33 173 57.5 179.0Q82 185 114.0 180.5Q146 176 166.0 164.0Q186 152 183.0 139.0Q180 126 155.5 120.0Q131 114 99.5 118.0Q68 122 47.5 134.5Z" fill="#5c913b" />
<path d="M188 135H484V121H185Q186 127 188 135Z" fill="#226699" />
<path d="M484 149V135H188Q189 142 191 149Z" fill="#3b88c3" />
<path d="M161.0 130.5Q139 128 116.5 139.5Q94 151 84.0 170.0Q74 189 82.0 205.0Q90 221 112.0 224.0Q134 227 156.5 215.0Q179 203 189.0 184.0Q199 165 191.0 149.0Q183 133 161.0 130.5Z" fill="#f7dece" />
<path d="M112 130Q111 130 109.0 131.5Q107 133 102.0 136.5Q97 140 92.5 144.5Q88 149 83.5 155.5Q79 162 77.0 169.5Q75 177 76.0 186.5Q77 196 82 205Q91 222 109.5 224.5Q128 227 142 221L156 215Q153 217 148.0 218.5Q143 220 132.0 216.5Q121 213 114 201Q111 194 117.0 181.0Q123 168 125.5 157.5Q128 147 112 130Z" fill="#292f33" />
</g></svg>