<svg xmlns="http://www.w3.org/2000/svg" viewBox="0 0 2048 2048">
<g transform="matrix(1 0 0 -1 0 2048)">
<path d="M299 86V64H213V86Q176 99 152.0 132.0Q128 165 128 206V212Q118 213 110.5 224.5Q103 236 103.0 252.5Q103 269 110.5 281.0Q118 293 128 294V348H384V294Q394 293 401.5 281.0Q409 269 409.0 252.5Q409 236 401.5 224.5Q394 213 384 212V206Q384 165 360.0 132.0Q336 99 299 86Z" fill="#f6ddcd" />
<path d="M256 436Q319 436 359.5 397.5Q400 359 400 314Q400 249 386 250Q382 250 378 259L356 298Q289 298 267 320Q267 320 275 297Q278 276 234 320Q234 320 233 308Q226 291 178 331Q175 329 169.0 325.0Q163 321 151.0 302.0Q139 283 134 259Q132 247 124 257Q112 272 112 314Q112 361 149.5 398.5Q187 436 256 436Z" fill="#292f33" />
<path d="M455 354Q461 342 470.5 324.0Q480 306 496.0 263.5Q512 221 512.0 195.5Q512 170 494.0 105.0Q476 40 459 -12L441 -64H71Q0 139 0 196Q0 221 14.0 260.5Q28 300 43 327L57 354L100 377L128 354Q85 251 85 196Q85 171 100.0 137.5Q115 104 127.5 85.5Q140 67 142 64H370Q372 67 384.5 85.5Q397 104 412.0 137.5Q427 171 427.0 195.5Q427 220 416.0 259.5Q405 299 395 326L384 354L412 377Z" fill="#4289c1" />
<path d="M213 50V78H299V50Q299 32 286.5 19.5Q274 7 256.0 7.0Q238 7 225.5 19.5Q213 32 213 50ZM274 414Q274 425 290 424Q368 420 397 406Q413 398 428.0 385.0Q443 372 449 363L455 354H384Q369 375 356 384Q346 392 289 403Q273 406 274 414ZM238 414Q239 406 223 403Q166 392 156 384Q150 380 143.0 372.5Q136 365 132 359L128 354H57Q78 389 115 406Q128 412 155.0 416.5Q182 421 202 423L222 424Q238 425 238 414Z" fill="#f6ddcd" />
<path d="M199 135H313Q311 132 307.5 127.0Q304 122 289.5 114.5Q275 107 256.0 107.0Q237 107 223.0 114.0Q209 121 204 128ZM270 171H242Q235 171 235.0 178.0Q235 185 242 185H270Q277 185 277.0 178.0Q277 171 270 171Z" fill="#c1694f" />
<path d="M185 235V249Q185 255 189.0 259.0Q193 263 199.0 263.0Q205 263 209.0 259.0Q213 255 213 249V235Q213 229 209.0 224.5Q205 220 199.0 220.0Q193 220 189.0 224.5Q185 229 185 235ZM299 235V249Q299 255 303.0 259.0Q307 263 313.0 263.0Q319 263 323.0 259.0Q327 255 327 249V235Q327 229 323.0 224.5Q319 220 313.0 220.0Q307 220 303.0 224.5Q299 229 299 235Z" fill="#662113" />
</g></svg>