<svg xmlns="http://www.w3.org/2000/svg" viewBox="0 0 2048 2048">
<g transform="matrix(1 0 0 -1 0 2048)">
<path d="M75.0 11.0Q0 86 0.0 192.0Q0 298 75.0 373.0Q150 448 256.0 448.0Q362 448 437.0 373.0Q512 298 512.0 192.0Q512 86 437.0 11.0Q362 -64 256.0 -64.0Q150 -64 75.0 11.0Z" fill="#ffcc4d" />
<path d="M420 229Q413 229 409 234Q393 257 371.0 269.5Q349 282 339.5 284.0Q330 286 324 286Q318 286 314.0 290.0Q310 294 310.0 300.0Q310 306 314.0 310.0Q318 314 324 314Q327 314 332.0 313.5Q337 313 350.0 309.5Q363 306 375.0 300.0Q387 294 402.5 281.5Q418 269 431 251Q439 240 428 232Q424 229 420 229ZM64 229Q59 229 56 232Q45 240 53 251Q65 269 81.0 281.5Q97 294 109.0 300.0Q121 306 134.0 309.5Q147 313 152.0 313.5Q157 314 160 314Q165 314 169.0 310.0Q173 306 173.0 300.0Q173 294 169.0 290.0Q165 286 160 286Q154 286 144.5 284.0Q135 282 113.0 269.5Q91 257 75 234Q71 229 64 229ZM209 206Q214 210 218.5 205.5Q223 201 219 196Q217 192 212.0 187.0Q207 182 191.0 173.5Q175 165 156.5 165.0Q138 165 122.0 173.5Q106 182 101.0 187.0Q96 192 94 196Q90 201 94.5 205.5Q99 210 104 206Q122 193 156.5 193.0Q191 193 209 206ZM390 196Q387 192 382.5 187.0Q378 182 361.5 173.5Q345 165 327.0 165.0Q309 165 293.0 173.5Q277 182 272.0 187.0Q267 192 264 196Q261 201 265.5 205.5Q270 210 274 206Q293 193 327 193Q363 193 380 206Q385 210 389.0 205.5Q393 201 390 196ZM320 46Q321 40 316 38Q315 37 313 37Q310 37 308 39Q294 51 242 51Q189 51 176 39Q172 35 167.5 38.0Q163 41 164 46Q164 48 166.0 52.5Q168 57 174.0 67.5Q180 78 188.0 86.5Q196 95 210.0 101.5Q224 108 241.5 108.0Q259 108 273.5 101.5Q288 95 296.0 86.5Q304 78 310.0 67.5Q316 57 317.5 52.5Q319 48 320 46Z" fill="#664500" />
<path d="M46 24Q30 47 46 70Q55 84 71.5 86.5Q88 89 102 80Q122 65 118 40Q144 49 167 33Q185 20 189.0 -1.5Q193 -23 180.0 -41.5Q167 -60 145.5 -63.5Q124 -67 105 -54Q97 -48 91 -39Q71 -46 54 -34Q40 -25 37.5 -8.5Q35 8 45 22Q45 22 45.5 22.5Q46 23 46 24Z" fill="#dee7ed" />
<path d="M246 58Q223 42 202 13Q194 3 187 -18Q185 -24 182 -29Q182 -29 181 -31Q177 -35 173 -39Q161 -49 145.0 -50.0Q129 -51 116 -42Q108 -36 103 -29Q86 -35 71 -24Q59 -16 56.5 -2.0Q54 12 63 24Q63 25 63.5 25.5Q64 26 64 26Q56 36 58.0 50.0Q60 64 71 74Q82 82 94.5 81.0Q107 80 117 71Q143 47 174 53Q202 57 239 70Q245 72 248.0 66.5Q251 61 246 58Z" fill="#f3f7f9" />
</g></svg>