<svg xmlns="http://www.w3.org/2000/svg" viewBox="0 0 512 512">
<g transform="matrix(1 0 0 -1 0 512)">
<path d="M384 135Q387 135 391.5 135.0Q396 135 409.0 133.0Q422 131 434.5 127.5Q447 124 461.5 116.5Q476 109 486.5 99.0Q497 89 504.5 72.5Q512 56 512 36Q512 16 498.0 -9.0Q484 -34 469 -49L455 -64H57Q51 -58 41.5 -47.5Q32 -37 16.0 -10.5Q0 16 0 36Q0 63 13.0 83.5Q26 104 45.0 113.5Q64 123 83.0 128.5Q102 134 115 135H128Z" fill="#fa743e" />
<path d="M312 387Q366 370 394.5 332.5Q423 295 421 244Q415 64 270 64Q244 64 234.5 64.5Q225 65 208.0 68.0Q191 71 181.0 78.5Q171 86 160 100Q117 113 110 164Q108 177 102.5 200.0Q97 223 95.5 235.0Q94 247 96 279Q101 317 132.5 344.5Q164 372 198 372Q210 388 250.5 391.5Q291 395 312 387Z" fill="#0b0200" />
<path d="M225.5 19.5Q213 32 213.0 49.5Q213 67 225.5 79.5Q238 92 256.0 92.0Q274 92 286.5 79.5Q299 67 299.0 49.5Q299 32 286.5 19.5Q274 7 256.0 7.0Q238 7 225.5 19.5Z" fill="#664131" />
<path d="M368 225Q384 203 384 150Q384 97 346.0 59.5Q308 22 255.5 22.0Q203 22 165.5 59.5Q128 97 128 150Q128 192 131 203Q141 233 162 246Q178 256 188.0 267.5Q198 279 200 285L201 291Q209 274 233 259Q246 251 281.5 243.5Q317 236 335 216Q342 208 341 217Q341 218 340 223Q339 230 332.5 239.5Q326 249 319 253Q351 248 368 225ZM242 -36Q256 -42 256 -50Q256 -64 242 -64H85L100 -7H142L171 -21ZM370 -7H412L427 -64H270Q264 -64 260.5 -60.5Q257 -57 256 -53V-50Q256 -46 259.5 -42.5Q263 -39 267 -37L270 -36L341 -21Z" fill="#7c533e" />
<path d="M299 149V164Q299 169 303.0 173.5Q307 178 313.0 178.0Q319 178 323.0 173.5Q327 169 327 164V149Q327 143 323.0 139.0Q319 135 313.0 135.0Q307 135 303.0 139.0Q299 143 299 149ZM185 149V164Q185 169 189.0 173.5Q193 178 199.0 178.0Q205 178 209.0 173.5Q213 169 213 164V149Q213 143 209.0 139.0Q205 135 199.0 135.0Q193 135 189.0 139.0Q185 143 185 149Z" fill="#000000" />
<path d="M270 71H242Q235 71 235.0 78.0Q235 85 242 85H270Q277 85 277.0 78.0Q277 71 270 71Z" fill="#3d2e24" />
<path d="M78 334Q73 334 70 337L13 380Q1 388 10.0 399.5Q19 411 30 402L87 360Q98 351 90 340Q85 334 78 334ZM121 377Q113 377 109 383L81 426Q73 438 84.5 446.0Q96 454 104 442L133 399Q141 387 129 379Q125 377 121 377ZM434 334Q427 334 422 340Q414 351 425 360L482 402Q493 411 502.0 399.5Q511 388 499 380L442 337Q439 334 434 334ZM391 377Q387 377 383 379Q371 387 379 399L408 442Q416 454 427.5 446.0Q439 438 431 426L403 383Q399 377 391 377Z" fill="#5dadec" />
</g></svg>