<svg xmlns="http://www.w3.org/2000/svg" viewBox="0 0 2048 2048">
<g transform="matrix(1 0 0 -1 0 2048)">
<path d="M256 -49 257 -50Q256 -47 256 -45V-44Q256 -36 259 -31Q260 -29 262 -29Q262 -29 264.5 -30.5Q267 -32 270.5 -33.0Q274 -34 277 -34Q281 -34 285.0 -32.0Q289 -30 290 -27L292 -25Q298 -28 302 -31Q305 -32 309.5 -35.5Q314 -39 316 -40Q320 -43 327 -43Q328 -44 330.0 -44.0Q332 -44 333.5 -44.0Q335 -44 335 -44Q344 -45 344 -51V-53L345 -52Q345 -55 345 -55Q345 -56 345 -56Q342 -58 334 -60Q320 -64 312 -64Q305 -64 296 -62Q285 -59 284 -60Q284 -60 283.0 -61.5Q282 -63 281.5 -63.0Q281 -63 270.0 -62.5Q259 -62 257.0 -61.5Q255 -61 255 -59Q255 -59 255.0 -57.0Q255 -55 255 -52V-50Q256 -49 256 -49ZM100 4 107 10H108V9Q110 11 112 13Q119 19 125 20Q127 20 128 19Q128 19 129.0 16.0Q130 13 131.0 9.5Q132 6 134 4Q137 0 141.0 -1.5Q145 -3 148 -2H151L153 -14Q154 -17 154.5 -22.5Q155 -28 155 -30Q156 -35 160 -41Q161 -43 162.0 -44.0Q163 -45 164.0 -46.0Q165 -47 165 -48Q170 -55 165 -59L164 -60L165 -61Q163 -63 163 -63Q162 -64 161 -64Q158 -63 151 -58Q139 -49 134 -43Q130 -38 125 -29Q120 -19 119 -19Q119 -19 117.0 -19.0Q115 -19 115 -19Q114 -19 107.5 -10.0Q101 -1 100 1Q99 3 100 4Z" fill="#292f33" />
<path d="M238 274Q233 269 221.0 258.0Q209 247 201.5 239.0Q194 231 193 229Q185 189 186 180Q187 172 178 158Q170 145 162 146Q159 146 157.0 149.5Q155 153 156 155Q159 158 161.0 166.0Q163 174 164 177Q167 184 168.0 207.5Q169 231 173 242Q184 267 213 293L238 274Z" fill="#cc9b7a" />
<path d="M242 428Q260 435 280.5 426.5Q301 418 304 399Q307 377 300.0 355.0Q293 333 277 334Q229 339 218 367Q211 386 218.0 404.0Q225 422 242 428Z" fill="#d4ab88" />
<path d="M225 361Q212 379 222.5 387.0Q233 395 252 395L271 396Q278 395 279.5 388.5Q281 382 280.5 372.0Q280 362 283 356Q285 352 281.0 348.5Q277 345 272 343L268 342Q258 342 258 331Q257 325 259 320Q264 302 249 295Q234 289 229 306Q226 316 228 330V331Q232 352 225 361Z" fill="#d4ab88" />
<path d="M216 419Q241 448 287 430Q313 420 308 403Q306 395 301 398Q276 413 258 383Q255 390 248.0 391.5Q241 393 239 385Q237 377 242.0 370.0Q247 363 247 362Q243 356 238.0 351.5Q233 347 230 346L226 344Q226 344 225.0 344.0Q224 344 220.5 347.5Q217 351 213 359Q206 373 206.0 388.5Q206 404 216 419Z" fill="#963b22" />
<path d="M224 401Q210 398 205.5 385.0Q201 372 202.0 352.0Q203 332 203 328Q201 319 195.0 313.0Q189 307 183 307L178 306Q178 308 178.5 310.5Q179 313 180.0 321.5Q181 330 179 337Q179 343 175.0 356.0Q171 369 171.0 378.5Q171 388 178 398Q192 419 220 410Q228 407 228 404Q229 402 226 401Q225 401 224 401Z" fill="#963b22" />
<path d="M284 -38Q284 -38 284 -38Q275 -38 269.0 -35.5Q263 -33 260.5 -30.5Q258 -28 258 -26Q259 -12 258.0 15.0Q257 42 258 57Q258 58 233.5 100.0Q209 142 203 164Q195 192 213 202Q220 206 228 206Q244 206 252 192Q252 192 264 170Q275 149 289.5 121.5Q304 94 308 83Q313 72 313 60Q313 60 311 47Q309 33 307.5 12.0Q306 -9 306 -25Q306 -30 308 -33Q309 -34 306.5 -35.5Q304 -37 298.0 -38.0Q292 -39 284 -38Z" fill="#2a6797" />
<path d="M131 -6Q131 -6 131 -6Q123 6 122 20Q136 31 153.0 56.5Q170 82 183 93Q183 94 194.5 141.5Q206 189 217 208Q230 234 251 229Q261 227 267.0 219.0Q273 211 273 201Q273 198 272 194Q272 194 265 171Q259 148 250.0 118.5Q241 89 236 77Q232 66 224 58Q224 58 210 45Q197 32 179.5 13.0Q162 -6 154 -18Q140 -20 131 -6Z" fill="#4289c1" />
<path d="M185 164Q185 164 185 164L188 250Q194 321 230 333Q248 339 270.5 307.5Q293 276 284 242Q279 222 282.5 192.0Q286 162 283 149Q283 149 213 149Q201 149 193.5 153.0Q186 157 185.5 159.5Q185 162 185 164Z" fill="#9268ca" />
<path d="M260 280Q260 273 261.5 256.0Q263 239 264.0 227.5Q265 216 266 215Q294 181 302 176Q309 171 315 154Q320 139 314 133Q312 131 307.5 131.5Q303 132 303 134Q302 139 296.5 146.0Q291 153 290 155Q286 162 267.0 178.5Q248 195 243 206Q230 232 228 273L260 280Z" fill="#d4ab88" />
</g></svg>