<svg xmlns="http://www.w3.org/2000/svg" viewBox="0 0 2048 2048">
<g transform="matrix(1 0 0 -1 0 2048)">
<path d="M66.5 2.5Q0 69 0.0 163.5Q0 258 66.5 324.5Q133 391 227.5 391.0Q322 391 388.5 324.5Q455 258 455.0 163.5Q455 69 388.5 2.5Q322 -64 227.5 -64.0Q133 -64 66.5 2.5Z" fill="#ffcc4d" />
<path d="M311 192Q314 190 313 186Q292 152 256 152Q240 152 225.5 161.0Q211 170 206.5 176.5Q202 183 200.0 186.5Q198 190 202 192Q206 195 210 193Q210 192 214.5 190.0Q219 188 231.0 185.5Q243 183 256.5 183.0Q270 183 282.0 185.5Q294 188 298.0 190.0Q302 192 303 193Q305 194 307.0 194.0Q309 194 311 192ZM132 193Q134 194 136.0 194.0Q138 194 140 192Q143 190 141 186Q121 152 85 152Q68 152 54.0 161.0Q40 170 35.5 176.5Q31 183 29.0 186.5Q27 190 31 192Q34 195 38 193Q38 192 43.0 190.0Q48 188 59.5 185.5Q71 183 85.0 183.0Q99 183 110.5 185.5Q122 188 126.5 190.0Q131 192 132 193ZM91 99Q90 103 93 105Q95 106 96 106Q98 106 100 104Q104 101 109.0 97.5Q114 94 132.0 89.0Q150 84 172 84Q194 84 212.5 89.5Q231 95 236.5 98.5Q242 102 244 104Q245 106 248 106Q249 106 250 105Q253 104 253 100Q253 100 253 99Q252 97 251.0 93.5Q250 90 244.0 82.0Q238 74 230.0 68.0Q222 62 206.5 57.0Q191 52 172.0 52.0Q153 52 137.5 57.0Q122 62 114.0 68.0Q106 74 100.0 82.0Q94 90 92.5 93.5Q91 97 91 99Z" fill="#664500" />
<path d="M372 95Q451 98 485 121Q489 123 493 123Q501 123 505 117Q513 105 501 97Q461 71 374 66H373Q367 66 363.0 70.0Q359 74 359.0 80.0Q359 86 362.5 90.5Q366 95 372 95ZM482 229Q496 224 504.0 211.5Q512 199 512.0 184.0Q512 169 503.5 157.0Q495 145 481 140Q466 134 451 131Q403 119 335 119Q329 119 325.0 123.0Q321 127 321.0 133.0Q321 139 325.0 143.0Q329 147 335 147Q406 147 454 161Q464 164 471 166Q484 171 484 184Q484 198 471 203Q468 204 464 204H450Q447 219 443 232Q445 233 447 233H464Q473 233 482 229Z" fill="#5dadec" />
</g></svg>