<svg xmlns="http://www.w3.org/2000/svg" viewBox="0 0 512 512">
<g transform="matrix(1 0 0 -1 0 512)">
<path d="M512 -64H114V-36Q114 0 139.0 25.0Q164 50 199 50H427Q462 50 487.0 25.0Q512 0 512 -36Z" fill="#ccd6dd" />
<path d="M251 49V103H375V49Q375 29 344.0 21.5Q313 14 282.0 22.0Q251 30 251 49Z" fill="#f7dece" />
<path d="M251 79V128H375V79Q353 54 313.0 54.0Q273 54 251 79Z" fill="#eec2ad" />
<path d="M358 401Q409 384 436.5 348.5Q464 313 462 264Q459 180 427.0 136.5Q395 93 327 93Q294 93 282.0 94.0Q270 95 252.5 102.5Q235 110 222 127Q180 140 173 189Q172 198 169.0 213.5Q166 229 165.0 237.0Q164 245 163.0 263.0Q162 281 165 295Q170 332 198.0 359.0Q226 386 258 387Q269 401 303.5 405.0Q338 409 358 401Z" fill="#292f33" />
<path d="M420 259Q435 239 435 187Q435 138 399.0 101.5Q363 65 313.0 65.0Q263 65 227.0 101.5Q191 138 191 187Q191 228 194 238Q204 267 223 279Q239 289 248.5 300.0Q258 311 260 317L261 322Q268 306 291 292Q304 284 337.5 277.0Q371 270 388 251Q395 243 394 251Q394 253 394 258Q393 264 386.5 273.5Q380 283 374 286Q404 282 420 259Z" fill="#f7dece" />
<path d="M262 109Q255 116 262 122Q268 128 274 122Q284 116 315 116Q347 116 355 123Q362 129 368.5 122.5Q375 116 368 109Q356 97 314.5 97.0Q273 97 262 109ZM327 154H299Q293 154 293.0 160.5Q293 167 299 167H327Q333 167 333.0 160.5Q333 154 327 154Z" fill="#c1694f" />
<path d="M245 215V228Q245 234 249.0 238.0Q253 242 258.5 242.0Q264 242 268.0 238.0Q272 234 272 228V215Q272 209 268.0 205.0Q264 201 258.5 201.0Q253 201 249.0 205.0Q245 209 245 215ZM354 215V228Q354 234 358.0 238.0Q362 242 367.5 242.0Q373 242 377.0 238.0Q381 234 381 228V215Q381 209 377.0 205.0Q373 201 367.5 201.0Q362 201 358.0 205.0Q354 209 354 215Z" fill="#662113" />
<path d="M185 50H228V-64H185ZM398 50H441V-64H398Z" fill="#226699" />
<path d="M185 7H441V-64H185Z" fill="#226699" />
<path d="M372.0 -44.5Q363 -39 363.0 -32.0Q363 -25 372.0 -19.5Q381 -14 394.5 -14.0Q408 -14 417.5 -19.5Q427 -25 427.0 -32.0Q427 -39 417.5 -44.5Q408 -50 394.5 -50.0Q381 -50 372.0 -44.5Z" fill="#f5f8fa" />
<path d="M441 313Q441 299 313.0 299.0Q185 299 185 313Q185 335 189.5 353.5Q194 372 206.0 391.5Q218 411 245.5 422.5Q273 434 313 434Q348 434 374.5 422.5Q401 411 414.5 392.0Q428 373 434.5 353.5Q441 334 441 313Z" fill="#3b88c3" />
<path d="M186 313Q207 306 314 306Q361 306 393.0 307.5Q425 309 433 311L442 313Q442 311 442.5 308.0Q443 305 442.5 298.0Q442 291 440.0 285.0Q438 279 433.0 274.5Q428 270 420 270Q416 270 404.0 277.0Q392 284 368.5 291.5Q345 299 313.5 299.0Q282 299 259.0 291.5Q236 284 223.5 277.0Q211 270 207 270Q194 270 189.0 281.0Q184 292 185 302ZM292 427Q292 429 292.5 432.5Q293 436 298.0 442.0Q303 448 312.5 448.0Q322 448 327.5 442.5Q333 437 334 432V427Z" fill="#226699" />
<path d="M185 320Q206 313 313 313Q360 313 392.0 314.5Q424 316 433 318L441 320Q441 318 441.5 315.5Q442 313 441.5 305.5Q441 298 439.5 292.5Q438 287 433.0 282.0Q428 277 420 277Q415 277 403.0 284.5Q391 292 367.5 299.0Q344 306 313.0 306.0Q282 306 258.5 299.0Q235 292 223.0 284.5Q211 277 206 277Q198 277 193.0 281.5Q188 286 186.5 292.5Q185 299 184.5 305.0Q184 311 184 316Z" fill="#55acee" />
<path d="M135 112Q135 90 122.0 72.5Q109 55 89 48V-64H46V48Q26 55 13.0 72.5Q0 90 0 112Q0 151 35 171L36 108Q36 102 45.0 98.0Q54 94 67.5 94.0Q81 94 90.5 98.0Q100 102 100 108L99 171Q135 152 135 112Z" fill="#66757f" />
</g></svg>