<svg xmlns="http://www.w3.org/2000/svg" viewBox="0 0 512 512">
<g transform="matrix(1 0 0 -1 0 512)">
<path d="M455 -64H57V-36Q57 0 82.0 25.0Q107 50 142 50H370Q405 50 430.0 25.0Q455 0 455 -36Z" fill="#292f33" />
<path d="M256 277Q301 277 339.5 270.0Q378 263 401.0 252.5Q424 242 440.5 231.5Q457 221 463 214L469 206Q469 187 453.5 165.5Q438 144 419.5 128.0Q401 112 385.5 90.5Q370 69 370 50Q357 31 328.5 16.5Q300 2 278 -2L256 -7Q246 -6 231.5 -2.0Q217 2 186.0 16.5Q155 31 142 50Q142 69 126.5 90.5Q111 112 92.5 128.0Q74 144 58.5 165.5Q43 187 43 206Q43 209 45.5 214.0Q48 219 61.0 231.0Q74 243 94.5 252.5Q115 262 157.5 269.5Q200 277 256 277Z" fill="#be1931" />
<path d="M322 21Q329 23 335.0 18.0Q341 13 341 6V-23Q341 -31 334.5 -36.5Q328 -42 320 -40L278 -19Q274 -21 270 -21H242Q238 -21 234 -19L192 -40Q184 -42 177.5 -36.5Q171 -31 171 -23V6Q171 13 177.0 18.0Q183 23 190 21L231 2Q236 7 242 7H270Q276 7 281 2Z" fill="#e1e8ed" />
<path d="M221 -26Q212 -9 219 8L232 3Q228 -8 233 -19ZM292 -26 279 -19Q285 -9 281 3L294 8Q301 -9 292 -26Z" fill="#99aab5" />
<path d="M194 48V103H318V48Q280 20 256.0 20.0Q232 20 194 48Z" fill="#f7dece" />
<path d="M194 79V128H318V79Q296 54 256.0 54.0Q216 54 194 79Z" fill="#eec2ad" />
<path d="M170.5 105.0Q135 147 135.0 206.5Q135 266 170.5 308.5Q206 351 256.0 351.0Q306 351 341.5 308.5Q377 266 377.0 206.5Q377 147 341.5 105.0Q306 63 256.0 63.0Q206 63 170.5 105.0Z" fill="#f7dece" />
<path d="M309 122Q309 121 308 120Q306 117 305 115Q305 112 305 109Q305 108 304 108L290 78Q288 74 283 74Q279 74 277 79L270 94Q263 92 256.0 92.0Q249 92 241 94L234 78Q233 74 228.5 74.0Q224 74 222 78L207 108Q207 108 207 109Q206 113 207 116Q205 118 204 120Q203 121 203 122Q196 128 203 135Q209 141 216 135Q225 128 256 128Q288 128 296 135Q303 141 309.5 134.5Q316 128 309 122ZM267 167H245Q241 167 238.0 170.0Q235 173 235.0 177.5Q235 182 238.0 185.0Q241 188 245 188H267Q271 188 274.0 185.0Q277 182 277.0 177.5Q277 173 274.0 170.0Q271 167 267 167Z" fill="#c1694f" />
<path d="M279 118 290 121Q294 121 296.5 118.0Q299 115 298 111L283 81L271 109Q269 117 279 118ZM233 118Q242 117 240 109L228 81L214 111Q213 115 215.0 118.0Q217 121 221 121Z" fill="#f5f8fa" />
<path d="M185 220V235Q185 241 189.0 245.0Q193 249 199.0 249.0Q205 249 209.0 245.0Q213 241 213 235V220Q213 215 209.0 210.5Q205 206 199.0 206.0Q193 206 189.0 210.5Q185 215 185 220ZM299 220V235Q299 241 303.0 245.0Q307 249 313.0 249.0Q319 249 323.0 245.0Q327 241 327 235V220Q327 215 323.0 210.5Q319 206 313.0 206.0Q307 206 303.0 210.5Q299 215 299 220Z" fill="#dd2e44" />
<path d="M370 220Q371 221 373.0 222.5Q375 224 380.5 227.5Q386 231 391.0 233.0Q396 235 401.0 237.0Q406 239 409.0 238.5Q412 238 412 235Q412 226 409.5 212.5Q407 199 402.0 184.0Q397 169 386.5 162.0Q376 155 363 162Q356 166 356.0 180.0Q356 194 359 206L363 219ZM142 220 149 219Q166 170 149 162Q132 153 120.0 168.5Q108 184 104.0 202.5Q100 221 100 235Q100 249 142 220Z" fill="#f7dece" />
<path d="M384 263Q384 234 380.0 225.5Q376 217 371.0 226.0Q366 235 361.5 245.5Q357 256 356 263Q349 291 330.5 304.5Q312 318 291.0 311.5Q270 305 256 277Q242 305 221.0 311.5Q200 318 181.5 304.5Q163 291 156 263Q155 256 150.5 245.5Q146 235 141.0 226.0Q136 217 132.0 225.5Q128 234 128 263Q128 299 132.0 322.0Q136 345 149.0 365.5Q162 386 188.5 395.5Q215 405 256.0 405.0Q297 405 323.5 395.5Q350 386 363.0 365.5Q376 345 380.0 322.0Q384 299 384 263Z" fill="#292f33" />
</g></svg>