<svg xmlns="http://www.w3.org/2000/svg" viewBox="0 0 512 512">
<g transform="matrix(1 0 0 -1 0 512)">
<path d="M375 185Q385 178 392 167Q392 167 354.5 113.0Q317 59 279 5L242 -50L100 103V134L156 193V207Q156 228 176 237L228 181L230 183Q235 187 241 189L268 224V265L244 332Q237 350 252 363L303 372L312 388H343V304L336 285H303L370 192Z" fill="#583529" />
<path d="M129 92Q151 92 164 111Q166 108 170 104Q183 92 200.0 92.5Q217 93 229 105Q233 110 235 112Q245 107 256 107H292Q285 101 278 92Q249 58 249 7Q249 0 256.0 0.0Q263 0 263 7Q263 63 297 92Q313 107 332 107Q340 106 341 114Q342 121 334 121H256Q244 121 236.0 129.5Q228 138 228.0 149.5Q228 161 236.0 169.5Q244 178 256 178H370Q379 178 386.5 172.0Q394 166 397 158L412 107Q420 83 418 76Q418 23 374.0 -20.5Q330 -64 270 -64Q201 -64 151.0 -15.5Q101 33 100 103Q112 92 127 92ZM256 192 241 189 268 265 295 192Z" fill="#7c533e" />
<path d="M127 220H129Q140 220 148.0 212.0Q156 204 156 193V134Q156 123 148.0 115.0Q140 107 129 107H127Q116 107 108.0 115.0Q100 123 100 134V193Q100 204 108.0 212.0Q116 220 127 220ZM225 178 224 177Q213 165 213 149Q213 149 213.5 148.0Q214 147 214 147Q215 132 224 121Q223 119 220 116Q212 107 199 107Q187 107 179.0 115.0Q171 123 171 135V220Q171 230 176 237Q185 249 199 249Q211 249 219.5 240.5Q228 232 228 220V181Q227 180 226.0 179.5Q225 179 225 178ZM316 395Q321 405 331.0 409.0Q341 413 351 409Q362 405 367.0 394.5Q372 384 368 373L343 304L312 388ZM370 192H309L253 346Q250 355 252 363Q256 378 270 383Q291 391 303 372Q305 369 306 366L336 285Z" fill="#7c533e" />
</g></svg>