<svg xmlns="http://www.w3.org/2000/svg" viewBox="0 0 2048 2048">
<g transform="matrix(1 0 0 -1 0 2048)">
<path d="M394 360Q420 367 435.0 355.0Q450 343 463 310Q502 214 509 180Q516 154 510.0 135.5Q504 117 481 115L408 105Q432 102 439.5 83.0Q447 64 434.0 47.0Q421 30 398 34Q388 35 359.0 38.5Q330 42 294.0 47.0Q258 52 219 59Q156 70 131.5 98.0Q107 126 106 174Q106 214 135.5 249.0Q165 284 212 304Q259 325 394 360Z" fill="#f7dece" />
<path d="M441 63Q440 63 440.5 66.5Q441 70 439.5 76.5Q438 83 435.0 89.0Q432 95 425.0 99.5Q418 104 407 105Q397 106 343 113Q330 114 325.5 124.0Q321 134 325 146Q328 155 346.5 202.0Q365 249 367 255Q372 265 380.0 264.0Q388 263 392 254Q414 211 420 194Q424 184 416.0 179.5Q408 175 402 185L379 236Q345 154 342 144Q337 130 352 128Q355 127 381.0 124.0Q407 121 413 119Q430 117 438.5 101.5Q447 86 441 63Z" fill="#e0aa94" />
<path d="M404 198 414 179Q395 174 383 170Q374 168 372.0 176.0Q370 184 378 187ZM454 314Q459 304 479.0 246.0Q499 188 503 176Q504 170 503.0 167.0Q502 164 499.5 165.5Q497 167 495 173Q493 177 467.0 240.5Q441 304 439 309Q437 314 440.0 317.0Q443 320 447.5 319.5Q452 319 454 314Z" fill="#e0aa94" />
<path d="M379 236 408 194 373 182Q387 209 379 236Z" fill="#e0aa94" />
<path d="M211 304Q243 314 244 272Q245 215 205 131Q177 74 161 77Q160 77 158 78Q147 87 136.5 92.5Q126 98 119.0 101.0Q112 104 100.0 104.0Q88 104 82.5 103.5Q77 103 62.0 100.5Q47 98 41 97Q18 93 9.0 97.0Q0 101 0 121V272Q0 288 10.5 291.5Q21 295 46 293Q148 283 211 304Z" fill="#f7dece" />
</g></svg>