<svg xmlns="http://www.w3.org/2000/svg" viewBox="0 0 2048 2048">
<g transform="matrix(1 0 0 -1 0 2048)">
<path d="M186 127Q182 124 176 129Q165 139 168 159Q176 212 177 218Q178 219 177.5 230.0Q177 241 178.0 256.5Q179 272 180 283Q181 288 188.5 293.0Q196 298 202 298Q204 298 205.5 295.5Q207 293 206.5 290.5Q206 288 205.5 285.0Q205 282 205 282Q207 265 200 216Q198 206 192.5 187.0Q187 168 189 157Q192 139 185 138Q185 136 185.5 133.0Q186 130 186.0 129.0Q186 128 186 127ZM326 127Q326 128 326.0 129.0Q326 130 326.5 133.0Q327 136 327 138Q320 139 323 157Q325 168 319.5 187.0Q314 206 312 216Q305 265 307 282Q307 282 306.5 285.0Q306 288 305.5 290.5Q305 293 306.5 295.5Q308 298 310 298Q316 298 323.5 293.0Q331 288 332 283Q333 272 334.0 256.5Q335 241 334.5 230.0Q334 219 335 218Q336 212 344 159Q347 139 336 129Q330 124 326 127Z" fill="#af7e57" />
<path d="M307 68Q306 -35 308 -50Q309 -54 299.0 -56.5Q289 -59 279.0 -57.0Q269 -55 269 -49Q270 -29 265 55Q265 58 263.0 77.5Q261 97 260 107Q260 108 258.0 108.0Q256 108 256 107Q255 97 253.0 77.5Q251 58 251 55Q246 -29 247 -49Q247 -55 237.0 -57.0Q227 -59 217.0 -56.5Q207 -54 208 -50Q209 -22 209.5 -12.5Q210 -3 208.0 31.0Q206 65 206 68L205 160H307Q307 111 307 68Z" fill="#4289c1" />
<path d="M318 313Q330 299 337 274L312 269Q305 245 305 225L311 149H201Q207 203 207 225Q207 234 205.0 245.5Q203 257 202 263L200 269L175 274Q181 299 193 313Q198 319 213.5 324.0Q229 329 243 331L256 334Q308 325 318 313Z" fill="#fa743e" />
<path d="M274 436Q307 425 306 394Q304 342 262 342Q252 342 248.0 342.0Q244 342 238.5 344.5Q233 347 229 352Q217 356 215 371Q214 375 212.5 381.5Q211 388 210.5 391.5Q210 395 211 405Q212 416 221.5 424.0Q231 432 241 432Q244 436 256.0 437.5Q268 439 274 436Z" fill="#60352a" />
<path d="M242 350H273V325Q273 320 268.5 316.5Q264 313 257.5 313.0Q251 313 246.5 316.5Q242 320 242 325Z" fill="#af7e57" />
<path d="M242 334V350H273V335Q257 325 242 334Z" fill="#9b6a49" />
<path d="M290 393Q295 387 295 371Q295 356 284.0 344.5Q273 333 257.5 333.0Q242 333 231.0 344.0Q220 355 220 371Q220 383 221 386Q224 395 230 399Q235 402 237.5 405.5Q240 409 241 410L242 412Q244 407 251 403Q255 400 265.0 398.0Q275 396 281 390Q282 388 282.5 389.0Q283 390 282 392Q281 398 276 401Q285 400 290 393Z" fill="#af7e57" />
<path d="M237 379V383Q237 387 241.0 387.0Q245 387 245 383V379Q245 375 241.0 375.0Q237 375 237 379ZM270 379V383Q270 387 274.0 387.0Q278 387 278 383V379Q278 375 274.0 375.0Q270 375 270 379Z" fill="#662113" />
<path d="M264 343H251Q248 343 248.0 346.0Q248 349 251 349H264Q267 349 267.0 346.0Q267 343 264 343ZM262 360H253Q251 360 251.0 362.5Q251 365 253 365H262Q264 365 264.0 362.5Q264 360 262 360Z" fill="#915a34" />
<path d="M197 -63Q192 -61 193.5 -57.0Q195 -53 198 -50Q199 -49 202.5 -47.0Q206 -45 208.0 -42.5Q210 -40 212 -38Q214 -33 223.5 -33.0Q233 -33 236 -37Q239 -43 242.5 -43.0Q246 -43 247 -44Q248 -48 248.0 -52.5Q248 -57 248 -60L247 -63ZM318 -63H268Q266 -51 269 -44Q269 -43 272.5 -43.0Q276 -43 280 -37Q283 -33 292.0 -33.0Q301 -33 304 -38Q305 -40 307.5 -42.5Q310 -45 313.0 -47.0Q316 -49 317 -50Q321 -53 322.0 -57.0Q323 -61 318 -63Z" fill="#292f33" />
</g></svg>