<svg xmlns="http://www.w3.org/2000/svg" viewBox="0 0 512 512">
<g transform="matrix(1 0 0 -1 0 512)">
<path d="M498 -64H100V7Q100 42 125.0 67.0Q150 92 185 92H412Q448 92 473.0 67.0Q498 42 498 7Z" fill="#fa743e" />
<path d="M237 91V145H361V91Q361 81 340.5 72.0Q320 63 298.5 63.0Q277 63 257.0 72.0Q237 81 237 91Z" fill="#ffdc5d" />
<path d="M237 119V169H361V119Q339 94 299.0 94.0Q259 94 237 119Z" fill="#f9ca55" />
<path d="M352 440Q403 424 430.5 388.0Q458 352 456 304Q450 132 312 132Q280 132 267.5 133.0Q255 134 238.0 142.0Q221 150 208 167Q166 179 159 228Q158 240 152.5 262.0Q147 284 146.0 295.5Q145 307 146 337Q151 374 181.0 399.5Q211 425 244 426Q255 441 293.5 444.5Q332 448 352 440Z" fill="#ffac33" />
<path d="M406 299Q421 278 421 227Q421 178 385.0 141.5Q349 105 298.5 105.0Q248 105 212.5 141.0Q177 177 177 227Q177 268 180 278Q189 307 209 319Q225 329 234.5 339.5Q244 350 245 356L247 362Q254 346 277 332Q289 324 323.0 317.0Q357 310 374 290Q381 283 380 291Q380 292 379 297Q378 304 372.0 313.0Q366 322 359 326Q390 321 406 299Z" fill="#ffdc5d" />
<path d="M312 193H285Q278 193 278.0 200.0Q278 207 285 207H312Q319 207 319.0 200.0Q319 193 312 193ZM301 137Q259 137 247 149Q241 155 247 162Q254 168 260 162Q270 155 301 155Q332 155 341 162Q347 169 354.0 162.0Q361 155 354 149Q342 137 301 137Z" fill="#c1694f" />
<path d="M231 254V268Q231 273 235.0 277.0Q239 281 244.5 281.0Q250 281 254.0 277.0Q258 273 258 268V254Q258 249 254.0 245.0Q250 241 244.5 241.0Q239 241 235.0 245.0Q231 249 231 254ZM339 254V268Q339 273 343.0 277.0Q347 281 353.0 281.0Q359 281 363.0 277.0Q367 273 367 268V254Q367 249 363.0 245.0Q359 241 353.0 241.0Q347 241 343.0 245.0Q339 249 339 254Z" fill="#662113" />
<path d="M455 -64H313Q307 -64 303.0 -60.0Q299 -56 299.0 -50.0Q299 -44 303.0 -40.0Q307 -36 313 -36H455Q461 -36 465.0 -40.0Q469 -44 469.0 -50.0Q469 -56 465.0 -60.0Q461 -64 455 -64Z" fill="#e1e8ed" />
<path d="M288 135Q314 135 327 96L384 -64H100Q86 -64 76.5 -56.5Q67 -49 65.0 -44.0Q63 -39 62 -36L18 85Q9 111 21.0 123.0Q33 135 53 135Z" fill="#e1e8ed" />
<path d="M274 135Q300 135 313 96L370 -64H85Q71 -64 61.5 -56.5Q52 -49 50.5 -44.0Q49 -39 48 -36L4 85Q-6 111 6.5 123.0Q19 135 39 135Z" fill="#99aab5" />
<path d="M182.0 57.5Q194 48 199.5 31.5Q205 15 201.0 0.5Q197 -14 186.0 -18.0Q175 -22 163.0 -12.5Q151 -3 145.5 13.5Q140 30 144.0 44.5Q148 59 159.0 63.0Q170 67 182.0 57.5ZM270 96H43Q38 96 35.0 99.0Q32 102 32.0 106.5Q32 111 35.0 114.0Q38 117 43 117H270Q275 117 278.0 114.0Q281 111 281.0 106.5Q281 102 278.0 99.0Q275 96 270 96Z" fill="#e1e8ed" />
</g></svg>