<svg xmlns="http://www.w3.org/2000/svg" viewBox="0 0 2048 2048">
<g transform="matrix(1 0 0 -1 0 2048)">
<path d="M441 -64H71V-14Q71 19 102.0 41.5Q133 64 171 64H341Q379 64 410.0 41.5Q441 19 441 -14Z" fill="#9266cc" />
<path d="M387 210Q387 183 388.5 154.0Q390 125 391.0 107.0Q392 89 392.5 70.5Q393 52 391.5 41.5Q390 31 386.5 22.5Q383 14 375.5 10.5Q368 7 356 7Q354 6 351.5 3.0Q349 0 340.0 -7.0Q331 -14 321.5 -20.0Q312 -26 298.5 -32.5Q285 -39 272.0 -41.5Q259 -44 243.5 -43.0Q228 -42 213 -36Q172 -16 143.0 18.5Q114 53 126 92Q131 108 124.0 148.5Q117 189 117 210Q117 252 130.5 284.5Q144 317 166.0 333.5Q188 350 210.5 358.0Q233 366 256.0 366.0Q279 366 300.5 358.5Q322 351 342.5 334.0Q363 317 375.0 285.0Q387 253 387 210Z" fill="#744eaa" />
<path d="M395 210Q395 186 397.0 160.0Q399 134 400.5 117.0Q402 100 403.0 83.0Q404 66 402.5 55.5Q401 45 396.0 36.5Q391 28 381.0 24.5Q371 21 356 21Q344 21 320.5 31.5Q297 42 274.5 42.0Q252 42 226.0 52.0Q200 62 175.0 80.5Q150 99 133.5 133.0Q117 167 117.0 209.5Q117 252 130.5 286.0Q144 320 165.5 339.0Q187 358 210.5 367.5Q234 377 256.0 377.0Q278 377 301.5 367.5Q325 358 346.5 339.0Q368 320 381.5 286.5Q395 253 395 210Z" fill="#9266cc" />
<path d="M240 289Q264 292 314.5 260.5Q365 229 367 205Q365 149 333.0 109.5Q301 70 256 70Q211 70 179.0 110.0Q147 150 145 207Q147 227 182.0 256.5Q217 286 240 289Z" fill="#7c533e" />
<path d="M255 113Q232 113 219 126Q212 133 219.0 139.5Q226 146 233 140Q240 133 255 133Q270 133 278 140Q285 146 291.5 139.0Q298 132 291 126Q279 113 255 113Z" fill="#df1f32" />
<path d="M196 206V218Q196 223 199.5 226.5Q203 230 208.0 230.0Q213 230 216.5 226.5Q220 223 220 218V206Q220 201 216.5 197.5Q213 194 208.0 194.0Q203 194 199.5 197.5Q196 201 196 206ZM304 194Q299 194 295.5 197.5Q292 201 292 206V218Q292 223 295.5 226.5Q299 230 304.0 230.0Q309 230 312.5 226.5Q316 223 316 218V206Q316 201 312.5 197.5Q309 194 304 194Z" fill="#000000" />
<path d="M268 156H244Q238 156 238 162V165Q238 171 244 171H268Q274 171 274 165V162Q274 156 268 156Z" fill="#3d2e24" />
<path d="M142 206Q143 211 144.5 218.5Q146 226 154.0 245.5Q162 265 173.0 280.0Q184 295 206.0 307.5Q228 320 256.0 320.0Q284 320 306.0 308.5Q328 297 339.5 280.0Q351 263 358.5 246.5Q366 230 368 218L370 206Q368 209 364.5 214.0Q361 219 350.0 231.0Q339 243 326.5 252.5Q314 262 295.0 269.5Q276 277 256.0 277.0Q236 277 217.0 270.0Q198 263 185.0 252.5Q172 242 162.0 231.5Q152 221 147 214Z" fill="#553788" />
</g></svg>