<svg xmlns="http://www.w3.org/2000/svg" viewBox="0 0 512 512">
<g transform="matrix(1 0 0 -1 0 512)">
<path d="M103.5 218.0Q114 201 114.0 177.5Q114 154 103.5 137.5Q93 121 78.0 121.0Q63 121 53.0 137.5Q43 154 43.0 177.5Q43 201 53.0 218.0Q63 235 78.0 235.0Q93 235 103.5 218.0ZM459.0 218.0Q469 201 469.0 177.5Q469 154 459.0 137.5Q449 121 434.0 121.0Q419 121 408.5 137.5Q398 154 398.0 177.5Q398 201 408.5 218.0Q419 235 434.0 235.0Q449 235 459.0 218.0Z" fill="#ffdc5d" />
<path d="M125.0 0.5Q71 65 71.0 156.0Q71 247 125.0 311.0Q179 375 256.0 375.0Q333 375 387.0 311.0Q441 247 441.0 156.0Q441 65 387.0 0.5Q333 -64 256.0 -64.0Q179 -64 125.0 0.5Z" fill="#ffdc5d" />
<path d="M171 178V206Q171 212 175.0 216.0Q179 220 185.0 220.0Q191 220 195.0 216.0Q199 212 199 206V178Q199 172 195.0 168.0Q191 164 185.0 164.0Q179 164 175.0 168.0Q171 172 171 178ZM313 178V206Q313 212 317.0 216.0Q321 220 327.0 220.0Q333 220 337.0 216.0Q341 212 341 206V178Q341 172 337.0 168.0Q333 164 327.0 164.0Q321 164 317.0 168.0Q313 172 313 178Z" fill="#662113" />
<path d="M270 107H242Q236 107 232.0 111.0Q228 115 228.0 121.0Q228 127 232.0 131.0Q236 135 242 135H270Q276 135 280.0 131.0Q284 127 284.0 121.0Q284 115 280.0 111.0Q276 107 270 107Z" fill="#c1694f" />
<path d="M256 448Q343 448 399.0 396.0Q455 344 455 282Q455 198 437 195Q431 194 424 207L394 267Q384 267 367.5 268.0Q351 269 318.0 276.5Q285 284 271 297Q271 297 282 268Q288 237 231 292Q228 295 225 297Q225 297 225 282Q217 256 149 312Q144 309 136.0 302.0Q128 295 111.0 267.5Q94 240 88 207Q84 192 74 203Q57 223 57 282Q57 312 69.0 340.5Q81 369 104.5 393.5Q128 418 167.5 433.0Q207 448 256 448ZM389 104Q394 109 401.0 113.5Q408 118 415.5 120.5Q423 123 428.5 119.0Q434 115 434 104Q434 83 426.5 63.5Q419 44 412 35L404 26Q396 4 383.5 -12.0Q371 -28 359.5 -35.5Q348 -43 338.0 -47.0Q328 -51 322 -52H315Q304 -64 256.0 -64.0Q208 -64 197 -52Q194 -52 190.0 -51.5Q186 -51 174.0 -47.0Q162 -43 151.5 -35.5Q141 -28 128.5 -12.0Q116 4 108 26Q105 29 100.0 35.5Q95 42 86.5 62.5Q78 83 78 104Q78 115 83.5 119.0Q89 123 96.5 120.5Q104 118 111.0 113.5Q118 109 123 104Q167 57 197 73Q215 83 230.0 87.0Q245 91 250 90L256 89Q273 95 315 73Q345 57 389 104Z" fill="#ffac33" />
<path d="M256 26Q235 26 217.0 31.0Q199 36 194.0 41.5Q189 47 204.5 52.0Q220 57 256.0 57.0Q292 57 307.5 52.0Q323 47 318.0 41.5Q313 36 295.0 31.0Q277 26 256 26Z" fill="#ffdc5d" />
</g></svg>