<svg xmlns="http://www.w3.org/2000/svg" viewBox="0 0 512 512">
<g transform="matrix(1 0 0 -1 0 512)">
<path d="M455 -64H57V-36Q57 0 82.0 25.0Q107 50 142 50H370Q405 50 430.0 25.0Q455 0 455 -36Z" fill="#ce9e5d" />
<path d="M58 -21H454Q455 -29 455 -36V-64H57V-36Q57 -29 58 -21Z" fill="#fff35f" />
<path d="M57 -36H455V-50H57Z" fill="#ccd6dd" />
<path d="M455 254Q455 215 396.5 188.0Q338 161 256.0 161.0Q174 161 115.5 188.0Q57 215 57 254Q57 264 62.0 271.5Q67 279 77.5 283.0Q88 287 100.0 289.0Q112 291 131.5 291.5Q151 292 168.0 291.5Q185 291 211.0 290.0Q237 289 256.0 289.0Q275 289 301.0 290.0Q327 291 344.0 291.5Q361 292 380.5 291.5Q400 291 412.0 289.0Q424 287 434.5 283.0Q445 279 450.0 271.5Q455 264 455 254Z" fill="#a0041e" />
<path d="M199 64H313Q312 60 311.0 53.5Q310 47 305.0 29.5Q300 12 294.0 -1.0Q288 -14 278.0 -25.0Q268 -36 256.0 -36.0Q244 -36 234.0 -25.5Q224 -15 217.5 -0.5Q211 14 207.0 28.5Q203 43 201 54Z" fill="#292f33" />
<path d="M194 48V103H318V48Q280 20 256.0 20.0Q232 20 194 48Z" fill="#ffdc5d" />
<path d="M194 79V128H318V79Q296 54 256.0 54.0Q216 54 194 79Z" fill="#f9ca55" />
<path d="M301 401Q353 384 380.0 348.5Q407 313 406 264Q402 180 370.0 136.5Q338 93 270 93Q238 93 225.5 94.0Q213 95 195.5 102.5Q178 110 165 127Q123 140 117 189Q115 198 112.0 213.5Q109 229 108.0 237.0Q107 245 106.0 263.0Q105 281 108 295Q113 332 141.0 359.0Q169 386 201 387Q212 401 246.5 405.0Q281 409 301 401Z" fill="#ffac33" />
<path d="M363 260Q378 239 378 188Q378 138 342.0 102.0Q306 66 256.0 66.0Q206 66 170.0 102.0Q134 138 134 188Q134 228 137 239Q147 268 166 280Q182 289 191.5 300.0Q201 311 203 317L204 323Q211 307 234 292Q247 285 280.5 277.5Q314 270 332 251Q338 244 338 251Q337 253 337 258Q336 265 329.5 274.0Q323 283 317 286Q347 282 363 260Z" fill="#ffdc5d" />
<path d="M270 154H243Q236 154 236.0 160.5Q236 167 243 167H270Q276 167 276.0 160.5Q276 154 270 154ZM258 97Q217 97 205 109Q198 116 205 123Q211 129 218 123Q227 116 258 116Q290 116 298 123Q305 129 311.5 122.5Q318 116 311 109Q299 97 258 97Z" fill="#c1694f" />
<path d="M188 215V228Q188 234 192.0 238.0Q196 242 201.5 242.0Q207 242 211.0 238.0Q215 234 215 228V215Q215 209 211.5 205.0Q208 201 202.0 201.0Q196 201 192.0 205.0Q188 209 188 215ZM297 215V228Q297 234 301.0 238.0Q305 242 310.5 242.0Q316 242 320.0 238.0Q324 234 324 228V215Q324 209 320.0 205.0Q316 201 310.5 201.0Q305 201 301.0 205.0Q297 209 297 215Z" fill="#662113" />
<path d="M384 -64H341V64Q341 70 345.5 74.0Q350 78 356 78H370Q376 78 380.0 74.0Q384 70 384 64ZM171 -64H128V64Q128 70 132.0 74.0Q136 78 142 78H156Q162 78 166.5 74.0Q171 70 171 64Z" fill="#292f33" />
<path d="M410 294Q427 290 437.0 284.5Q447 279 450.5 272.0Q454 265 454.5 261.5Q455 258 455 254Q449 276 400 277Q375 278 327.5 272.0Q280 266 256.0 266.0Q232 266 184.5 272.0Q137 278 112 277Q63 276 57 254Q57 258 57.5 261.5Q58 265 61.5 272.0Q65 279 75.0 284.5Q85 290 102 294Q107 295 111.5 310.0Q116 325 124.5 349.5Q133 374 145 391Q164 418 196.5 433.0Q229 448 256.0 448.0Q283 448 315.5 433.0Q348 418 366 391Q378 374 387.0 349.5Q396 325 400.5 310.0Q405 295 410 294Z" fill="#df1f32" />
<path d="M327 376V320Q326 306 314 306H198Q193 306 189.5 309.5Q186 313 186 316L185 320V376Q185 393 210.0 420.5Q235 448 256.0 448.0Q277 448 302.0 420.5Q327 393 327 376Z" fill="#ea596e" />
<path d="M340 92Q342 90 342.5 85.0Q343 80 342.0 73.0Q341 66 341 64V-64H171Q170 56 171 64Q171 66 169.5 73.5Q168 81 168.0 84.5Q168 88 171 92Q175 96 191.0 90.5Q207 85 213 78Q217 74 219.0 68.0Q221 62 223.5 51.5Q226 41 228 36Q233 19 255 -32Q278 19 282 36Q284 41 286.5 51.5Q289 62 291.0 68.0Q293 74 297 78Q303 85 319.0 90.5Q335 96 340 92Z" fill="#ce9e5d" />
</g></svg>