<svg xmlns="http://www.w3.org/2000/svg" viewBox="0 0 512 512">
<g transform="matrix(1 0 0 -1 0 512)">
<path d="M339 172 467 1 455 -8 328 163Z" fill="#ccd6dd" />
<path d="M467 1 496 -39Q498 -41 498 -43Q498 -50 491 -50Q487 -50 485 -48L455 -8Z" fill="#dd2e44" />
<path d="M350 145Q350 145 350 145Q349 143 346 143Q343 143 340 146Q340 146 334 155Q328 163 321.5 171.5Q315 180 315 180Q314 182 314 185Q314 188 316 190Q318 192 321 192Q324 192 326 189Q326 189 333 180Q339 172 345.5 163.5Q352 155 352 155Q353 153 353 151Q353 147 350 145Z" fill="#292f33" />
<path d="M345 141Q343 139 340 139Q333 139 333 146Q333 150 336 152Q336 152 339.0 154.0Q342 156 345.0 158.0Q348 160 348 160Q350 162 352 162Q355 162 358 159Q359 157 359 155Q359 151 356 149Q356 149 345 141ZM221 -51Q220 -49 220 -44Q220 -36 223 -31Q224 -29 226 -29Q226 -29 229.0 -30.5Q232 -32 235.5 -33.0Q239 -34 241 -34Q246 -34 249.5 -32.0Q253 -30 255 -27L256 -25Q262 -28 267 -31Q269 -32 274.0 -35.5Q279 -39 280 -40Q285 -43 291 -43Q293 -44 295.0 -44.0Q297 -44 298.0 -44.0Q299 -44 299 -44Q308 -45 308 -51V-53Q294 -59 275 -59Q264 -59 255.0 -56.0Q246 -53 240 -53L221 -51Z" fill="#292f33" />
<path d="M503 -60Q503 -60 503 -60Q498 -65 494 -59Q492 -57 492 -55Q492 -51 495 -49Q497 -48 499 -48Q503 -48 505 -51Q506 -52 506 -55Q506 -58 503 -60Z" fill="#99aab5" />
<path d="M222 -61Q220 -61 220 -59V-50Q220 -49 220 -49Q228 -51 231 -51Q240 -51 255 -55Q266 -58 277 -58Q289 -58 299 -56L309 -52Q310 -55 310 -55Q310 -56 309 -56Q306 -58 298 -60Q285 -64 277 -64Q270 -64 260 -62Q250 -59 249 -59Q248 -60 247.5 -61.5Q247 -63 246.5 -63.0Q246 -63 234.5 -62.5Q223 -62 222 -61ZM72 8Q73 10 77 13Q83 19 89 20Q91 20 92 19Q92 19 93.0 16.0Q94 13 95.5 9.5Q97 6 98 4Q101 0 105.5 -1.5Q110 -3 113 -2H115Q117 -9 118 -14Q118 -17 118.5 -22.5Q119 -28 120 -30Q120 -35 124 -41Q125 -43 126.0 -44.0Q127 -45 128.0 -46.0Q129 -47 129 -48Q134 -55 130 -59L128 -61Q114 -54 102 -39Q95 -30 91.0 -21.0Q87 -12 83 -8L72 8Z" fill="#292f33" />
<path d="M79 -19Q79 -19 79 -19L72 -10Q65 -1 64 1Q64 1 64 2Q64 3 65 4Q65 4 72 10H73Q76 3 78 0Q84 -7 91 -20Q96 -31 103 -40Q111 -49 120 -56Q125 -59 129 -61Q129 -61 127 -63Q127 -64 126 -64Q122 -63 116 -58Q104 -49 99 -43Q94 -38 90 -29Q85 -19 84 -19Q83 -19 81.5 -19.0Q80 -19 79 -19Z" fill="#292f33" />
<path d="M213 428Q231 433 250.5 423.0Q270 413 272 394Q275 367 261.5 348.5Q248 330 231 333Q211 337 201.0 344.5Q191 352 185 370Q180 389 188.0 406.0Q196 423 213 428Z" fill="#af7e57" />
<path d="M191 363Q180 382 191.0 389.0Q202 396 221 394L240 393Q246 392 247.0 385.0Q248 378 246.5 369.5Q245 361 248 354Q250 349 245.5 346.0Q241 343 236 342L231 341Q222 342 221 331Q220 326 221 320Q225 302 208 297Q194 292 190 309Q188 319 192 332V333Q198 354 191 363Z" fill="#af7e57" />
<path d="M185 423Q195 434 217.0 437.0Q239 440 257 426Q268 427 273.0 418.5Q278 410 276 402Q275 399 264.5 394.0Q254 389 251 382Q247 388 249 396Q247 395 244.5 389.5Q242 384 237.0 378.5Q232 373 222 370Q212 367 207.0 360.5Q202 354 202 349V344Q191 350 185 360Q175 373 175.0 392.0Q175 411 185 423Z" fill="#60352a" />
<path d="M248 -38Q248 -38 248 -38Q240 -38 233.5 -35.5Q227 -33 224.5 -30.5Q222 -28 222 -26Q224 -12 222.5 15.0Q221 42 223 57Q223 58 198.0 100.0Q173 142 167 164Q159 192 178 202Q185 206 192 206Q209 206 217 192Q217 192 228 170Q240 149 254.0 121.5Q268 94 273 83Q277 72 277 60Q277 60 276 47Q274 33 272.5 12.0Q271 -9 271 -25Q271 -30 273 -33Q274 -34 271.5 -35.5Q269 -37 262.5 -38.0Q256 -39 248 -38Z" fill="#2a6797" />
<path d="M95 -6Q95 -6 95 -6Q88 6 87 20Q100 31 117.0 56.5Q134 82 147 93Q147 94 159.0 141.5Q171 189 181 208Q195 234 216 229Q225 227 231.0 219.0Q237 211 237 201Q237 198 236 194Q236 194 230 171Q223 148 214.5 118.5Q206 89 201 77Q197 66 189 58Q189 58 175.0 45.0Q161 32 143.5 13.0Q126 -6 118 -18Q105 -20 95 -6Z" fill="#4289c1" />
<path d="M151 164Q151 164 151 164L154 250Q160 320 196 333Q210 338 226.0 319.5Q242 301 245 271Q247 259 243.5 220.0Q240 181 249 149Q249 149 179 149Q167 149 159.5 153.0Q152 157 151.5 159.5Q151 162 151 164Z" fill="#fa743e" />
<path d="M227 282Q231 276 240.0 261.5Q249 247 255.5 237.0Q262 227 263 226Q303 208 312.0 207.0Q321 206 333 194Q345 183 342 175Q341 172 337.5 170.5Q334 169 332 171Q329 175 321.0 178.5Q313 182 311 184Q304 188 279.5 194.5Q255 201 246 208Q223 225 200 264L227 282Z" fill="#af7e57" />
<path d="M310 206Q304 204 301.5 199.5Q299 195 302 190Q304 187 302 187Q299 186 295 191Q292 196 295.5 202.0Q299 208 304 209Q311 212 312 208Q312 207 310 206Z" fill="#292f33" />
</g></svg>