<svg xmlns="http://www.w3.org/2000/svg" viewBox="0 0 512 512">
<g transform="matrix(1 0 0 -1 0 512)">
<path d="M248 355Q271 355 293.5 348.5Q316 342 339.0 327.5Q362 313 376.0 283.5Q390 254 390 213Q390 120 386.0 95.5Q382 71 364 71Q354 71 316.0 84.5Q278 98 248.0 98.0Q218 98 180.5 84.5Q143 71 133 71Q106 71 106 204Q106 210 106 213Q106 254 120.5 283.5Q135 313 158.0 327.5Q181 342 203.5 348.5Q226 355 248 355Z" fill="#0b0200" />
<path d="M370 76H427V-64H85V64H370Z" fill="#9266cc" />
<path d="M199 64V121L298 119L299 64Q297 61 294.5 56.0Q292 51 279.5 43.0Q267 35 250.0 35.0Q233 35 220.0 42.0Q207 49 203 57Z" fill="#7c533e" />
<path d="M199 97V132H298V97Q280 75 249.0 75.0Q218 75 199 97ZM464 114Q466 104 458 99Q458 97 458 97H451L447 96Q447 87 440.5 81.0Q434 75 426 75H371V97Q371 106 377.5 112.5Q384 119 393 119H418L448 125Q453 126 458.0 123.0Q463 120 464 114ZM49 61Q50 66 55.0 69.5Q60 73 65 72L95 66H120Q129 66 135.5 59.5Q142 53 142 43V21H88Q79 21 72.5 27.5Q66 34 66 43H62H55Q55 44 55 46Q47 51 49 61Z" fill="#664131" />
<path d="M142 217Q142 274 173.0 314.0Q204 354 248.0 354.0Q292 354 323.5 314.0Q355 274 355 217Q355 161 324.0 122.5Q293 84 248.5 84.0Q204 84 173.0 122.5Q142 161 142 217ZM513 108Q513 105 510.0 102.5Q507 100 504.5 98.5Q502 97 502 97L436 75H393H370L371 97Q371 101 374.0 104.5Q377 108 382 108H436L502 119Q507 119 510.0 115.5Q513 112 513 108ZM0 54Q0 59 3.0 62.5Q6 66 11 66L77 54H131Q136 54 139.0 51.0Q142 48 142 43V21H77L11 43Q0 48 0 54Z" fill="#7c533e" />
<path d="M248 116Q227 116 215 127Q209 133 215.5 139.5Q222 146 228 140Q235 133 248 133Q262 133 269 140Q275 146 281.0 139.5Q287 133 281 127Q270 116 248 116Z" fill="#df1f32" />
<path d="M116 174H106Q106 181 106 217Q106 257 120.5 289.0Q135 321 157.5 338.5Q180 356 203.5 365.0Q227 374 248.5 374.0Q270 374 293.0 365.0Q316 356 338.5 338.5Q361 321 375.5 289.0Q390 257 390 216Q390 200 390 174H381V181V180Q381 195 377.0 197.5Q373 200 368.0 195.5Q363 191 359.0 192.0Q355 193 355 204Q355 229 333.5 243.5Q312 258 284 258Q268 258 248.0 264.5Q228 271 216 278L204 284Q186 267 177 258Q173 254 164.5 247.5Q156 241 152.5 237.0Q149 233 145.5 225.0Q142 217 142 206Q142 195 138.0 194.5Q134 194 129.0 198.0Q124 202 119.5 198.5Q115 195 115 180Q115 182 116 180Q116 179 116 174Z" fill="#0b0200" />
<path d="M194 200V211Q194 215 197.0 218.5Q200 222 205.0 222.0Q210 222 213.0 218.5Q216 215 216 211V200Q216 195 213.0 192.0Q210 189 205.0 189.0Q200 189 197.0 192.0Q194 195 194 200ZM293 189Q288 189 285.0 192.0Q282 195 282 200V211Q282 215 285.0 218.5Q288 222 292.5 222.0Q297 222 300.5 218.5Q304 215 304 211V200Q304 195 300.5 192.0Q297 189 293 189Z" fill="#000000" />
<path d="M260 155H238Q232 155 232 160V162Q232 168 238 168H260Q265 168 265 162V160Q265 155 260 155Z" fill="#3d2e24" />
<path d="M84 246Q82 245 78.0 243.5Q74 242 64.5 234.5Q55 227 47.0 218.0Q39 209 32.0 193.0Q25 177 24 157Q23 160 20.5 165.0Q18 170 13.5 186.0Q9 202 7.0 218.5Q5 235 7.0 258.0Q9 281 16 302ZM285 363Q284 365 281.0 367.5Q278 370 267.5 376.5Q257 383 245.5 386.5Q234 390 216.5 390.0Q199 390 180 384Q182 387 186.0 390.5Q190 394 203.0 404.5Q216 415 230.0 423.0Q244 431 266.0 438.0Q288 445 311 447ZM416 216Q417 218 419.0 221.5Q421 225 423.5 237.0Q426 249 426.0 260.5Q426 272 420.5 289.0Q415 306 403 322Q406 321 411.0 318.5Q416 316 430.0 307.0Q444 298 456.0 287.0Q468 276 481.5 257.5Q495 239 504 218Z" fill="#d1d3d4" />
<path d="M30.5 256.5Q16 271 16.0 291.5Q16 312 30.5 327.0Q45 342 65.5 342.0Q86 342 100.5 327.0Q115 312 115.0 291.5Q115 271 100.5 256.5Q86 242 65.5 242.0Q45 242 30.5 256.5Z" fill="#5c913b" />
<path d="M285.0 363.0Q270 378 270.0 398.5Q270 419 285.0 433.5Q300 448 320.5 448.0Q341 448 355.5 433.5Q370 419 370.0 398.5Q370 378 355.5 363.0Q341 348 320.5 348.0Q300 348 285.0 363.0Z" fill="#be1931" />
<path d="M425.5 158.5Q411 173 411.0 194.0Q411 215 425.5 229.5Q440 244 460.5 244.0Q481 244 496.0 229.5Q511 215 511.0 194.0Q511 173 496.0 158.5Q481 144 460.5 144.0Q440 144 425.5 158.5Z" fill="#3b88c3" />
<path d="M142 21H156V-64H142ZM356 64H370V-64H356Z" fill="#744eaa" />
</g></svg>