<svg xmlns="http://www.w3.org/2000/svg" viewBox="0 0 2048 2048">
<g transform="matrix(1 0 0 -1 0 2048)">
<path d="M258 67Q258 68 257.5 69.5Q257 71 256.5 73.5Q256 76 255 78Q248 77 247 96Q246 106 234.0 121.5Q222 137 217 148Q203 181 197 211Q197 211 195.5 214.0Q194 217 193.5 219.5Q193 222 193.5 224.0Q194 226 196 227Q202 229 212.5 226.5Q223 224 225 220Q230 210 234.0 195.0Q238 180 240.0 169.5Q242 159 243 158Q249 147 253.5 136.5Q258 126 261.5 117.0Q265 108 267 103Q275 84 267 72Q263 66 258 67ZM47 65Q43 62 39 68Q28 79 34 99Q36 103 38.0 113.0Q40 123 43.0 133.5Q46 144 51 156Q51 157 52.0 168.0Q53 179 55.0 194.0Q57 209 60 220Q62 224 72.0 228.0Q82 232 88 231Q90 231 91.0 228.5Q92 226 91.5 223.5Q91 221 90.0 218.0Q89 215 89 215Q87 184 77 150Q74 139 64.0 121.5Q54 104 55 94Q56 76 49 76Q48 74 48.0 71.0Q48 68 48.0 66.5Q48 65 47 65Z" fill="#ffdc5d" />
<path d="M92 28Q89 46 88.0 69.0Q87 92 88 106L89 121H197Q201 67 194 28Q192 22 192.0 -1.0Q192 -24 195 -50Q196 -53 185.5 -55.5Q175 -58 164.5 -56.5Q154 -55 155 -48Q155 -36 154.0 -23.5Q153 -11 151.5 0.5Q150 12 150 16Q150 19 148.0 35.0Q146 51 145 62Q145 62 143.0 62.0Q141 62 141 62Q140 51 138.0 35.0Q136 19 136 16Q136 12 134.5 0.5Q133 -11 132.0 -23.5Q131 -36 131 -48Q131 -55 121.0 -56.5Q111 -58 100.5 -55.5Q90 -53 91 -50Q93 -24 93.0 -1.0Q93 22 92 28Z" fill="#5c913b" />
<path d="M78 -64Q75 -61 76.0 -57.0Q77 -53 83.0 -49.5Q89 -46 98 -44Q128 -39 132 -49Q133 -52 133.5 -56.0Q134 -60 133 -62V-64ZM208 -64H153Q151 -56 154 -49Q158 -39 188 -44Q197 -46 203.0 -49.5Q209 -53 210.0 -57.0Q211 -61 208 -64Z" fill="#292f33" />
<path d="M75 238Q82 243 92.0 245.5Q102 248 108 249H114H171Q194 249 211 238Q219 233 224.5 222.5Q230 212 233 204L235 195L201 186L199 107H86L85 186L51 195Q58 227 75 238Z" fill="#99aab5" />
<path d="M174 441Q203 431 219.0 411.0Q235 391 234 363Q230 264 151 264Q133 264 126.0 264.5Q119 265 109.0 269.5Q99 274 91 284Q67 291 63 319Q63 326 59.5 338.5Q56 351 55.5 357.5Q55 364 56 382Q59 403 76.0 417.5Q93 432 112 433Q118 441 140.0 443.0Q162 445 174 441ZM398 441Q428 431 443.5 411.0Q459 391 458 363Q455 264 376 264Q357 264 350.0 264.5Q343 265 333.0 269.5Q323 274 316 284Q292 291 288 319Q287 326 284.0 338.5Q281 351 280.5 357.5Q280 364 281 382Q283 403 300.5 417.5Q318 432 337 433Q343 441 365.0 443.0Q387 445 398 441Z" fill="#ffac33" />
<path d="M120 283H167V248Q167 237 160.0 223.0Q153 209 143.5 209.0Q134 209 127.0 223.0Q120 237 120 248Z" fill="#ffdc5d" />
<path d="M120 253V262H167V253Q158 243 143.5 243.0Q129 243 120 253Z" fill="#f9ca55" />
<path d="M205 360Q213 348 213 319Q213 290 192.5 269.5Q172 249 143.5 249.0Q115 249 94.5 269.5Q74 290 74 319Q74 342 75 348Q81 365 92 371Q101 377 106.5 383.0Q112 389 113 393L114 396Q118 387 131 379Q138 374 157.5 370.0Q177 366 187 355Q189 352 189.5 353.5Q190 355 190 359Q188 371 178 375Q196 373 205 360ZM257 67Q253 66 249 72Q240 84 249 103Q251 108 254.0 117.0Q257 126 261.5 136.5Q266 147 273 158Q273 159 275.5 169.5Q278 180 282.0 195.0Q286 210 290 220Q292 224 302.5 226.5Q313 229 319 227Q321 226 321.5 224.0Q322 222 321.5 219.5Q321 217 319.5 214.0Q318 211 318 211Q312 181 298 148Q293 137 281.0 121.5Q269 106 268 96Q267 77 260 78Q259 76 258.5 73.5Q258 71 258.0 69.5Q258 68 257 67ZM465 65Q464 65 464.0 66.5Q464 68 464.0 71.0Q464 74 463 76Q456 76 457 94Q458 104 448.0 121.5Q438 139 435 150Q425 184 423 215Q423 215 422.0 218.0Q421 221 420.5 223.5Q420 226 421.0 228.5Q422 231 424 231Q430 232 440.0 228.0Q450 224 452 220Q455 209 457.0 194.0Q459 179 460.0 168.0Q461 157 461 156Q466 144 469.0 133.5Q472 123 474.0 113.0Q476 103 478 99Q484 79 473 68Q469 62 465 65Z" fill="#ffdc5d" />
<path d="M171 277Q171 276 170.0 273.5Q169 271 162.0 267.0Q155 263 142.5 263.0Q130 263 122.5 266.5Q115 270 115 274L114 277ZM128 306H156Q156 292 142 292Q136 292 132.5 295.5Q129 299 128 302Z" fill="#c1694f" />
<path d="M107.0 320.0Q100 320 100.0 327.0Q100 334 107.0 334.0Q114 334 114.0 327.0Q114 320 107.0 320.0ZM178.0 320.0Q171 320 171.0 327.0Q171 334 178.0 334.0Q185 334 185.0 327.0Q185 320 178.0 320.0Z" fill="#662113" />
<path d="M420 28Q419 22 419.0 -1.0Q419 -24 421 -50Q422 -53 411.5 -55.5Q401 -58 391.0 -56.5Q381 -55 381 -48Q381 -36 380.0 -23.5Q379 -11 377.5 0.5Q376 12 376 16Q376 19 374.0 35.0Q372 51 371 62Q371 62 369.0 62.0Q367 62 367 62Q366 51 364.0 35.0Q362 19 362 16Q362 12 360.5 0.5Q359 -11 358.0 -23.5Q357 -36 357 -48Q358 -55 347.5 -56.5Q337 -58 326.5 -55.5Q316 -53 317 -50Q320 -24 320.0 -1.0Q320 22 318 28Q315 46 314.0 69.0Q313 92 314 106L315 121H423Q427 67 420 28Z" fill="#4289c1" />
<path d="M434 -64H379Q377 -56 380 -49Q384 -39 414 -44Q423 -46 429.0 -49.5Q435 -53 436.0 -57.0Q437 -61 434 -64ZM304 -64Q301 -61 302.0 -57.0Q303 -53 309.0 -49.5Q315 -46 324 -44Q354 -39 358 -49Q359 -52 359.5 -56.0Q360 -60 359 -62V-64Z" fill="#292f33" />
<path d="M437 238Q445 233 451.0 222.5Q457 212 459 204L461 195L427 186L426 107H313L311 186L277 195Q284 227 301 238Q309 243 319.0 245.5Q329 248 335 249H341H398Q420 249 437 238Z" fill="#fa743e" />
<path d="M345 283H391V248Q391 237 384.0 223.0Q377 209 368.0 209.0Q359 209 352.0 223.0Q345 237 345 248Z" fill="#ffdc5d" />
<path d="M345 253V262H391V253Q382 243 368.0 243.0Q354 243 345 253Z" fill="#f9ca55" />
<path d="M430 360Q438 348 438 319Q438 290 417.5 269.5Q397 249 368.0 249.0Q339 249 318.5 269.5Q298 290 298 319Q298 342 300 348Q305 365 317 371Q326 377 331.0 383.0Q336 389 337 393L338 396Q342 387 356 379Q363 374 382.0 370.0Q401 366 411 355Q414 352 414.5 353.5Q415 355 414 359Q413 371 403 375Q420 373 430 360Z" fill="#ffdc5d" />
<path d="M398 277Q398 276 397.5 273.5Q397 271 389.5 267.0Q382 263 369.5 263.0Q357 263 350.0 266.5Q343 270 342 274L341 277ZM356 306H384Q384 304 383.5 301.5Q383 299 379.5 295.5Q376 292 369.5 292.0Q363 292 359.5 295.5Q356 299 356 302Z" fill="#c1694f" />
<path d="M334.0 320.0Q327 320 327.0 327.0Q327 334 334.0 334.0Q341 334 341.0 327.0Q341 320 334.0 320.0ZM405.0 320.0Q398 320 398.0 327.0Q398 334 405.0 334.0Q412 334 412.0 327.0Q412 320 405.0 320.0Z" fill="#662113" />
</g></svg>