<svg xmlns="http://www.w3.org/2000/svg" viewBox="0 0 2048 2048">
<g transform="matrix(1 0 0 -1 0 2048)">
<path d="M461 52Q462 51 464.0 48.5Q466 46 472.5 42.5Q479 39 486 44Q501 51 492 20Q491 14 491 14H420Q388 16 427 36Z" fill="#553788" />
<path d="M377 258Q383 267 393 253Q402 240 394 235Q364 216 356 207Q343 193 325 202Q309 210 321 217Q329 221 347 226Q359 229 377 258Z" fill="#f9ca55" />
<path d="M373 251 387 266 382 301 425 299Q419 263 417 255Q414 242 387 231Q379 227 374.5 236.0Q370 245 373 251ZM448 109Q451 109 456.5 106.5Q462 104 473.0 90.0Q484 76 488 55Q491 38 479.0 38.5Q467 39 461 50Q454 62 438.0 75.5Q422 89 410.0 99.0Q398 109 398 115Q400 120 411.0 119.0Q422 118 435 114Z" fill="#f9ca55" />
<path d="M412 115Q441 177 459 200Q473 218 482 197Q488 182 484 170Q478 153 464.5 128.0Q451 103 443 99Q437 96 429.5 100.0Q422 104 417 109Z" fill="#f9ca55" />
<path d="M499 197 467 134 412 164Z" fill="#553788" />
<path d="M398 164 441 135Q439 133 436.5 130.5Q434 128 427.0 119.5Q420 111 416.5 104.5Q413 98 410.0 89.5Q407 81 412 78Q422 68 422.0 47.5Q422 27 417.0 4.0Q412 -19 412 -21Q412 -31 402 -30Q385 -25 384 7Q384 32 377.0 67.5Q370 103 370 107Q370 113 377.0 127.0Q384 141 391 152ZM384 376 398 345 362 331 347 356Z" fill="#ffdc5d" />
<path d="M427 220 476 275Q477 274 479.5 273.0Q482 272 488.0 267.5Q494 263 498.5 257.5Q503 252 507.0 242.5Q511 233 511 222Q511 209 491.5 184.0Q472 159 452 140L432 122L389 149Z" fill="#9266cc" />
<path d="M391 379Q388 354 350 339Q337 334 326.5 350.5Q316 367 314 386Q312 403 327.0 414.5Q342 426 358 424Q374 422 383.5 409.0Q393 396 391 379ZM320 257Q329 291 337.0 308.0Q345 325 357 331Q361 333 369.0 337.5Q377 342 380.5 343.5Q384 345 391.5 347.0Q399 349 404.0 348.0Q409 347 417.0 343.5Q425 340 434 333L369 267Q368 269 367.5 269.5Q367 270 366 268Q366 268 364.0 262.5Q362 257 361.5 256.0Q361 255 359.0 250.5Q357 246 356.0 244.5Q355 243 353.0 239.5Q351 236 349.0 234.0Q347 232 344.0 229.5Q341 227 338 225Q323 215 298.5 202.5Q274 190 263 190Q244 190 234.5 197.5Q225 205 232 214Q237 223 243.0 223.5Q249 224 256.5 221.5Q264 219 269.0 219.5Q274 220 282.0 226.5Q290 233 301.5 242.5Q313 252 320 257Z" fill="#ffdc5d" />
<path d="M427 220Q416 233 398.5 243.0Q381 253 380 254Q376 257 373.0 260.5Q370 264 369 266L368 268Q370 270 373.5 273.0Q377 276 382.5 284.5Q388 293 387 302Q387 314 379.0 323.0Q371 332 360 333Q363 334 369 338Q374 338 390.5 334.5Q407 331 415 333Q423 336 420 342Q427 339 434 333Q447 323 466.0 297.5Q485 272 492 264Q472 239 427 220ZM383 -4Q384 -6 386.0 -8.0Q388 -10 395.5 -13.5Q403 -17 410 -11Q421 -5 420 -21Q417 -42 417 -42Q411 -44 403.0 -46.5Q395 -49 372.5 -52.5Q350 -56 341 -51Q331 -49 327.5 -45.5Q324 -42 328.0 -38.0Q332 -34 335.5 -31.5Q339 -29 348 -24Z" fill="#9266cc" />
<path d="M397 373Q395 366 393.5 362.5Q392 359 391 359H389Q380 355 370 363Q358 373 363 374Q365 375 366.0 380.0Q367 385 364 389Q360 393 358.0 391.5Q356 390 355 387L354 372Q353 382 350 386Q349 388 348 389Q341 393 335 392Q331 392 325.0 388.5Q319 385 315 385Q314 385 314.0 385.0Q314 385 313 385Q308 387 309.5 398.0Q311 409 320 416Q343 431 358 430Q370 430 381.5 422.5Q393 415 396.5 400.5Q400 386 397 373Z" fill="#ffac33" />
<path d="M393 384Q384 396 402 407Q411 411 416.5 410.0Q422 409 430.5 405.0Q439 401 444 401Q462 400 470 413Q466 397 457 388Q442 370 418 371Q410 371 404.0 374.5Q398 378 396 381Z" fill="#ffac33" />
<path d="M143 48 175 27Q209 4 182 5Q181 5 179 5L109 14Q109 17 108.5 20.5Q108 24 107.5 32.0Q107 40 109.5 43.0Q112 46 117 43Q125 38 131.0 39.5Q137 41 140 44Z" fill="#a0041e" />
<path d="M55 3 85 -23Q93 -30 96.5 -33.5Q100 -37 102.5 -41.5Q105 -46 101.0 -48.5Q97 -51 87 -52Q75 -53 56.5 -47.0Q38 -41 26 -35L14 -29Q14 -26 14.0 -22.0Q14 -18 14.5 -9.0Q15 0 18.0 1.5Q21 3 26 1Q34 -5 40.5 -4.5Q47 -4 51 -1ZM110 337Q127 339 140.5 334.0Q154 329 158 323L163 317Q169 292 165.0 279.0Q161 266 152 263L144 260Q143 259 122.0 237.0Q101 215 99 205Q98 200 97.5 197.0Q97 194 98.5 192.0Q100 190 101.0 189.0Q102 188 106.0 185.5Q110 183 111.5 181.5Q113 180 133 168L110 128L91 134L41 121Q40 123 32.0 135.5Q24 148 18.0 161.0Q12 174 12 182Q12 196 17.0 213.5Q22 231 28 240Q40 256 53 301Q63 332 110 337Z" fill="#dd2e44" />
<path d="M88 141 92 132Q93 130 94.0 127.0Q95 124 96.5 116.5Q98 109 98 105Q97 93 80 72Q73 63 64.0 40.5Q55 18 55 3Q54 2 53.0 1.0Q52 0 49.0 -2.0Q46 -4 43.0 -5.0Q40 -6 35.5 -4.5Q31 -3 26 1Q26 36 28 50Q30 65 47 95Q50 100 41 121Q48 126 59.5 131.0Q71 136 80 139ZM48 288Q54 325 88 332Q97 335 102.0 324.0Q107 313 105 303Q102 283 77 272Q66 267 56.5 271.5Q47 276 48 288Z" fill="#ffdc5d" />
<path d="M166 143Q173 127 164 112Q158 104 150.0 79.0Q142 54 142 46Q141 45 139.0 43.0Q137 41 129.5 39.0Q122 37 115 44Q116 82 119 97L126 121L107 129Q120 159 133 168Q162 151 166 143ZM136 335Q162 332 168 315Q171 307 175.0 283.5Q179 260 180 258Q183 251 189 254Q198 258 219 260Q223 260 228.0 267.0Q233 274 238 276Q247 279 254.5 274.5Q262 270 262 262Q263 253 259.5 249.0Q256 245 245 243Q230 240 218 234Q213 232 192.0 226.0Q171 220 168 221Q165 222 159.0 231.5Q153 241 148 250L144 260Q157 267 158 281Q161 302 155.5 315.0Q150 328 143 332Z" fill="#f9ca55" />
<path d="M50 290Q51 299 63.0 302.5Q75 306 86.5 303.5Q98 301 98 296Q96 279 86 249Q83 241 92 237Q93 237 110.5 223.5Q128 210 134 211Q151 212 164 192Q169 183 159.5 179.0Q150 175 141 176Q136 176 127.5 183.5Q119 191 117 192Q104 197 80.0 209.0Q56 221 56 226Q55 228 53.5 242.0Q52 256 51.0 270.0Q50 284 50 290Z" fill="#ffdc5d" />
<path d="M107 129 91 134 79 165 115 144Q112 141 111 137Z" fill="#a0041e" />
<path d="M128 338Q131 338 135.5 330.0Q140 322 140 317Q141 311 137.5 308.0Q134 305 128.5 306.5Q123 308 120 314Q108 334 101 336Q108 337 115 338Z" fill="#ffdc5d" />
<path d="M122 360 149 344 135 317 110 336Z" fill="#ffdc5d" />
<path d="M131.0 396.0Q142 406 155.5 404.5Q169 403 177.0 390.5Q185 378 183.5 362.5Q182 347 171.0 337.5Q160 328 146.5 329.5Q133 331 124.5 343.0Q116 355 118.0 370.5Q120 386 131.0 396.0Z" fill="#ffdc5d" />
<path d="M102 410Q110 408 113.5 404.0Q117 400 117 397L116 394Q113 381 100 376Q81 368 63 378Q59 381 55.0 385.0Q51 389 48 392L46 395Q56 387 70 393Q73 394 83.5 403.0Q94 412 102 410Z" fill="#ffac33" />
<path d="M177 412Q186 405 190.0 395.0Q194 385 192 379L184 363Q184 377 181 383Q179 386 177.0 389.0Q175 392 173 393L172 394Q167 386 160.5 382.5Q154 379 147.5 378.0Q141 377 140 376Q138 374 137.0 369.5Q136 365 135 362V358Q134 369 133 373Q133 376 130.5 378.0Q128 380 125 378Q122 375 122.5 368.0Q123 361 126 360Q130 359 124 354Q121 351 118.5 352.0Q116 353 112.5 361.5Q109 370 109 378Q107 408 132 418Q144 422 157.5 420.0Q171 418 177 412Z" fill="#ffac33" />
</g></svg>