<svg xmlns="http://www.w3.org/2000/svg" viewBox="0 0 512 512">
<g transform="matrix(1 0 0 -1 0 512)">
<path d="M420 222Q434 222 444.5 205.5Q455 189 455 165Q455 143 445.5 126.5Q436 110 422 109Q409 39 363.5 -1.0Q318 -41 256.0 -41.0Q194 -41 148.5 -1.0Q103 39 90 109Q76 110 66.5 126.5Q57 143 57 165Q57 189 67.5 205.5Q78 222 92 222Q104 300 149.5 340.0Q195 380 256.0 380.0Q317 380 362.5 340.0Q408 300 420 222Z" fill="#f7dece" />
<path d="M203 26Q193 36 203.0 46.0Q213 56 223 46Q234 36 256 36Q277 36 289 46Q299 55 309.0 45.0Q319 35 309 26Q290 7 256.0 7.0Q222 7 203 26ZM270 78H242Q236 78 232.0 82.5Q228 87 228.0 92.5Q228 98 232.0 102.5Q236 107 242 107H270Q276 107 280.0 102.5Q284 98 284.0 92.5Q284 87 280.0 82.5Q276 78 270 78Z" fill="#c1694f" />
<path d="M171 149V178Q171 184 175.0 188.0Q179 192 185.0 192.0Q191 192 195.0 188.0Q199 184 199 178V149Q199 143 195.0 139.0Q191 135 185.0 135.0Q179 135 175.0 139.0Q171 143 171 149ZM313 149V178Q313 184 317.0 188.0Q321 192 327.0 192.0Q333 192 337.0 188.0Q341 184 341 178V149Q341 143 337.0 139.0Q333 135 327.0 135.0Q321 135 317.0 139.0Q313 143 313 149Z" fill="#662113" />
</g></svg>