<svg xmlns="http://www.w3.org/2000/svg" viewBox="0 0 2048 2048">
<g transform="matrix(1 0 0 -1 0 2048)">
<path d="M512 -64H114V-36Q114 0 139.0 25.0Q164 50 199 50H427Q462 50 487.0 25.0Q512 0 512 -36Z" fill="#292f33" />
<path d="M242 50H383V-64H242Z" fill="#e1e8ed" />
<path d="M251 48V103H375V48Q336 20 312.5 20.0Q289 20 251 48Z" fill="#7c533e" />
<path d="M251 79V128H375V79Q353 54 313.0 54.0Q273 54 251 79Z" fill="#664131" />
<path d="M364 398Q416 381 443.5 345.5Q471 310 469 261Q462 90 325 90Q293 90 280.5 91.0Q268 92 250.5 99.5Q233 107 220 124Q178 137 172 185Q170 197 164.5 219.0Q159 241 158.0 252.5Q157 264 159 295Q163 331 193.0 357.0Q223 383 256 384Q267 398 305.5 402.0Q344 406 364 398Z" fill="#6d6e71" />
<path d="M418 256Q433 236 433 185Q433 135 397.0 99.0Q361 63 311.0 63.0Q261 63 225.0 99.0Q189 135 189 185Q189 225 192 236Q202 264 221 277Q237 286 246.5 297.0Q256 308 258 314L259 320Q266 304 289 289Q302 282 335.5 274.5Q369 267 387 248Q393 241 393 248Q392 250 392 255Q391 262 384.5 271.0Q378 280 372 283Q402 279 418 256Z" fill="#7c533e" />
<path d="M325 151H298Q291 151 291.0 157.5Q291 164 298 164H325Q331 164 331.0 157.5Q331 151 325 151ZM313 94Q272 94 260 106Q253 113 260 119Q266 126 273 120Q282 113 313 113Q345 113 353 120Q360 126 366.5 119.5Q373 113 366 106Q354 94 313 94Z" fill="#3d2e24" />
<path d="M243 212V225Q243 231 247.0 235.0Q251 239 256.5 239.0Q262 239 266.0 235.0Q270 231 270 225V212Q270 206 266.0 202.0Q262 198 256.5 198.0Q251 198 247.0 202.0Q243 206 243 212ZM352 212V225Q352 231 356.0 235.0Q360 239 365.5 239.0Q371 239 375.0 235.0Q379 231 379 225V212Q379 206 375.0 202.0Q371 198 365.5 198.0Q360 198 356.0 202.0Q352 206 352 212Z" fill="#000000" />
<path d="M313 9Q313 9 313 9L257 -30Q256 -31 255.5 -29.0Q255 -27 255.5 -23.0Q256 -19 256.0 -15.0Q256 -11 256.5 -5.5Q257 0 257.5 4.5Q258 9 258.5 13.0Q259 17 259.5 18.5Q260 20 260 21Q260 21 366 21L368 8Q369 -5 370.5 -18.0Q372 -31 371 -31Q361 -27 313 9Z" fill="#99aab5" />
<path d="M246 69Q250 66 266.5 54.0Q283 42 298 31L313 21Q283 3 255 -29Q253 -31 248.0 -13.5Q243 4 238.0 24.5Q233 45 232 52Q232 54 234.5 59.0Q237 64 240.5 67.5Q244 71 246 69ZM380 69Q380 69 380 69Q382 71 385.5 67.5Q389 64 391.5 59.0Q394 54 394 52Q394 45 388.5 24.5Q383 4 378.0 -13.5Q373 -31 371 -29Q343 3 313 21Q313 21 328 31Q343 42 360.0 54.0Q377 66 380 69Z" fill="#f5f8fa" />
<path d="M393 50H412V-64H213V50H233Q234 47 236.0 41.5Q238 36 244.5 21.0Q251 6 259.5 -7.0Q268 -20 282.5 -34.0Q297 -48 313 -56Q339 -43 359.0 -17.0Q379 9 386 30Z" fill="#292f33" />
<path d="M172 -26Q173 -26 174.5 -35.5Q176 -45 177 -55L178 -64H164Q167 -26 172 -26ZM215 -26Q216 -26 217.5 -35.5Q219 -45 220 -55V-64H207Q209 -26 215 -26ZM454 -26Q459 -26 462 -64H448Q451 -26 454 -26ZM411 -26Q411 -26 411 -26Q413 -26 414.5 -31.0Q416 -36 417.0 -44.0Q418 -52 418.5 -56.0Q419 -60 419 -64Q419 -64 406 -64V-55Q407 -45 408.5 -35.5Q410 -26 411 -26Z" fill="#66757f" />
<path d="M112 111Q117 98 114.0 86.5Q111 75 102.5 71.5Q94 68 84.0 75.0Q74 82 69.0 95.5Q64 109 67.0 120.5Q70 132 78.5 135.5Q87 139 97.0 132.0Q107 125 112 111Z" fill="#c1694f" />
<path d="M129 -64H105L59 59L55 58Q43 53 31.5 58.5Q20 64 15.5 75.5Q11 87 16.5 98.5Q22 110 34 114L62 125Q74 129 85.5 124.0Q97 119 101.0 107.5Q105 96 100.0 84.5Q95 73 83 68L80 67Z" fill="#662113" />
<path d="M48 87Q53 74 50.0 62.5Q47 51 38.5 47.5Q30 44 20.0 51.0Q10 58 5.0 71.0Q0 84 3.0 96.0Q6 108 14.5 111.5Q23 115 33.0 108.0Q43 101 48 87Z" fill="#c1694f" />
<path d="M161 -64H72Q69 -51 75.5 -39.5Q82 -28 95 -24L113 -19Q126 -15 138.0 -21.5Q150 -28 154 -41Z" fill="#7c533e" />
</g></svg>