<svg xmlns="http://www.w3.org/2000/svg" viewBox="0 0 2048 2048">
<g transform="matrix(1 0 0 -1 0 2048)">
<path d="M466 -64H57Q33 -64 16.5 -47.5Q0 -31 0 -7V391Q0 415 16.5 431.5Q33 448 57 448H271Q271 448 311 439Q338 431 335 420Q333 408 316.5 361.5Q300 315 299 310Q298 299 331.5 266.5Q365 234 363 220Q359 186 346.5 153.0Q334 120 328.0 99.0Q322 78 328 60Q328 57 341.5 54.5Q355 52 371.5 48.5Q388 45 393 43Q409 34 421.5 24.0Q434 14 441.5 4.0Q449 -6 454.5 -16.0Q460 -26 462.5 -34.5Q465 -43 466.0 -49.5Q467 -56 467.0 -60.0Q467 -64 466 -64Z" fill="#66757f" />
<path d="M427 -64H57Q33 -64 16.5 -47.5Q0 -31 0 -7V391Q0 415 16.5 431.5Q33 448 57 448H159Q159 448 243 436Q285 427 285 419Q284 409 271.0 379.5Q258 350 250.0 325.0Q242 300 249 293Q251 291 261.0 282.0Q271 273 278.5 266.0Q286 259 294.5 249.0Q303 239 308.0 230.5Q313 222 314 215Q315 205 306.0 181.5Q297 158 288.5 134.5Q280 111 277.0 80.5Q274 50 287 25Q293 13 331.5 8.5Q370 4 377 -1Q397 -15 410.0 -31.0Q423 -47 426.0 -55.5Q429 -64 427 -64Z" fill="#99aab5" />
<path d="M470 395Q482 386 483.5 370.0Q485 354 475 341Q465 328 454.0 325.0Q443 322 429 325Q414 328 409.0 346.0Q404 364 414 385Q421 399 439.5 401.5Q458 404 470 395Z" fill="#7c533e" />
<path d="M468 337Q457 330 467 312L459 313Q458 301 453 294Q445 281 432 292Q420 303 427 316Q435 318 436 322Q436 324 434.5 326.0Q433 328 432 330L430 331Q428 332 426.0 333.5Q424 335 420.5 339.5Q417 344 421 346Q424 350 426.0 358.0Q428 366 430.5 371.0Q433 376 439 375Q441 375 443.5 374.0Q446 373 454.0 370.5Q462 368 467.0 365.0Q472 362 476.0 357.5Q480 353 478.0 348.0Q476 343 468 337Z" fill="#7c533e" />
<path d="M491 382Q495 370 489.5 355.5Q484 341 473 333Q469 330 464.5 328.5Q460 327 457 326L454 325Q461 340 446 352Q439 357 436.5 362.5Q434 368 433.5 373.5Q433 379 432 380Q432 373 427 370Q426 376 419.5 383.0Q413 390 413 393Q414 400 420.0 404.5Q426 409 435 405Q451 412 468.5 403.5Q486 395 491 382Z" fill="#0b0200" />
<path d="M423 24Q429 20 445 14Q449 12 446.5 0.0Q444 -12 440 -15Q437 -19 420.5 -20.0Q404 -21 385 -17Q357 -8 395 0Q402 2 409.0 8.0Q416 14 420 19Z" fill="#292f33" />
<path d="M403 244Q420 252 419 237Q419 222 408 217Q407 217 405 216Q371 215 359 212Q341 206 330 224Q321 238 335 238Q344 238 362 233Q370 230 403 244Z" fill="#664131" />
<path d="M396 240 415 246 428 278 464 255Q440 227 434 221Q428 215 393 216Q388 216 387.0 221.5Q386 227 389.0 232.5Q392 238 396 240ZM424 76Q427 74 430.5 70.0Q434 66 440.5 52.0Q447 38 447 20Q447 10 441.5 8.5Q436 7 430.5 11.5Q425 16 423 22Q419 33 408.0 48.5Q397 64 389.0 75.0Q381 86 382 91Q385 96 394.5 92.5Q404 89 414 82Z" fill="#664131" />
<path d="M386 85Q428 138 451 155Q468 169 472 147Q474 132 467 121Q458 106 439.0 85.5Q420 65 411 63Q406 62 399.5 67.5Q393 73 390 79Z" fill="#664131" />
<path d="M487 136 441 83 396 124Z" fill="#c63900" />
<path d="M393 133 424 100Q419 96 413.0 90.5Q407 85 397.0 72.5Q387 60 388 54Q390 44 385.0 26.5Q380 9 373.0 -8.5Q366 -26 365 -29Q363 -39 353 -34Q340 -26 347 1Q352 23 353.5 55.0Q355 87 356 90Q357 96 366.5 106.5Q376 117 384 125Z" fill="#7c533e" />
<path d="M424 174 483 215Q486 213 491.0 208.5Q496 204 502.5 188.5Q509 173 504 156Q498 137 473.5 118.0Q449 99 427 89L405 80L371 116Q380 126 391.0 140.0Q402 154 409.0 161.5Q416 169 424 174Z" fill="#dd551f" />
<path d="M358 337Q377 331 396 324Q403 324 410.5 322.0Q418 320 422 318L427 316Q450 320 463.5 313.5Q477 307 489 279Q493 267 494.0 238.0Q495 209 502 191Q498 189 491.5 186.0Q485 183 465.0 179.0Q445 175 426 176Q437 201 417 233Q403 255 401 259Q395 272 381.0 283.0Q367 294 353.0 301.0Q339 308 336 311Q326 321 312.5 346.5Q299 372 299 383Q298 391 296 405Q293 424 297 423Q299 423 301 422Q306 419 310.0 415.5Q314 412 316.0 407.0Q318 402 319.0 399.5Q320 397 321.0 391.0Q322 385 322 383Q323 378 328.5 370.5Q334 363 343.5 353.0Q353 343 358 337Z" fill="#7c533e" />
<path d="M424 176Q426 193 424.5 200.0Q423 207 416 223Q414 226 409.5 232.5Q405 239 403.5 243.5Q402 248 403 254Q427 245 436 269Q440 281 437.5 295.0Q435 309 427 316Q429 316 437 315Q441 313 453.0 301.5Q465 290 473 288Q481 287 481 293Q485 287 489 279Q494 266 496.0 235.0Q498 204 504 187Q499 186 491.5 183.5Q484 181 463.0 178.0Q442 175 424 176Z" fill="#fa743e" />
<path d="M424 185Q424 185 428.5 185.0Q433 185 443.0 185.0Q453 185 464 187L504 194L505 185Q478 178 461 176L424 174Z" fill="#c63900" />
<path d="M346 -7Q346 -9 347.5 -11.0Q349 -13 355.0 -16.5Q361 -20 369 -19Q374 -19 366 -35Q365 -39 363 -40Q357 -46 334.5 -52.5Q312 -59 293 -52Q285 -48 282.5 -44.5Q280 -41 284.0 -38.5Q288 -36 292.0 -34.5Q296 -33 305 -30Q312 -28 322.5 -22.0Q333 -16 339 -12Z" fill="#292f33" />
<path d="M90 414H157Q167 414 142 389Q120 369 110 369Q98 369 86 392Q76 414 90 414ZM152 325H215Q224 325 198 302Q175 283 166 283Q155 283 146.5 304.0Q138 325 152 325ZM126 196H256Q270 196 218 157Q173 123 161 123Q149 123 128 154Q103 191 122 195Q124 196 126 196ZM45 35H160Q178 35 147 6Q109 -30 87 -30Q67 -30 46 3Q30 32 45 35Z" fill="#66757f" />
</g></svg>