<svg xmlns="http://www.w3.org/2000/svg" viewBox="0 0 512 512">
<g transform="matrix(1 0 0 -1 0 512)">
<path d="M318.0 2.0Q302 6 292.0 20.5Q282 35 284.0 51.5Q286 68 298.5 77.0Q311 86 327.0 82.0Q343 78 353.0 63.5Q363 49 361.5 32.5Q360 16 347.0 7.0Q334 -2 318.0 2.0Z" fill="#f3d2a2" />
<path d="M302 99 329 49Q332 44 330.0 38.0Q328 32 323 30Q311 23 304 35L279 81L247 58L240 89Q240 90 259.0 100.0Q278 110 299.0 120.5Q320 131 322 133Q323 132 323.5 127.5Q324 123 319.0 114.5Q314 106 302 99Z" fill="#f3d2a2" />
<path d="M382 143Q387 143 391.0 139.0Q395 135 395.0 129.5Q395 124 391.5 120.5Q388 117 382 117L320 116Q315 116 311.0 120.0Q307 124 307.0 129.5Q307 135 311.0 139.0Q315 143 320 143Z" fill="#f3d2a2" />
<path d="M439 121Q439 121 447.5 120.5Q456 120 458 119Q475 108 473 103L471 99Q471 98 469.5 97.5Q468 97 465.0 98.0Q462 99 459 99Q459 99 452.5 97.5Q446 96 443 98Q442 99 438.5 102.0Q435 105 434 105Q432 106 422.0 106.5Q412 107 401.5 109.0Q391 111 386 114Q379 119 376.5 121.0Q374 123 372.0 126.0Q370 129 371 133Q375 143 385 142Q390 142 412.0 132.0Q434 122 439 121ZM298 325Q298 327 306.0 343.5Q314 360 315 364Q319 375 330 394Q334 402 345.5 397.0Q357 392 353 384Q347 367 342.0 347.5Q337 328 334 317L332 305Q328 293 312 272Q287 241 279 234L237 263Q242 266 250.0 274.0Q258 282 268.0 292.5Q278 303 282 307Q296 320 298 325ZM144 309Q148 305 154.5 298.5Q161 292 167.5 286.0Q174 280 174 280Q179 274 191.5 264.0Q204 254 209 247L176 213Q176 213 145 243Q141 247 127.5 266.5Q114 286 110 291Q92 316 73 351Q69 359 79.0 364.0Q89 369 96 364Q103 357 124 334Q126 331 135.0 320.0Q144 309 144 309ZM208 32 234 88Q239 100 251.0 94.5Q263 89 258 77L232 21Q226 9 214.0 14.5Q202 20 208 32Z" fill="#f3d2a2" />
<path d="M361 47Q364 46 368 37Q373 24 368 11Q364 2 353.0 -4.5Q342 -11 331 -11Q300 -10 288 14Q285 21 283.5 29.0Q282 37 283 42V47Q284 46 285.5 45.0Q287 44 289.5 42.0Q292 40 293.5 38.0Q295 36 295 36Q292 33 295.0 25.5Q298 18 302.5 17.5Q307 17 308.5 20.0Q310 23 308 26Q305 35 306.0 36.0Q307 37 308.5 36.0Q310 35 312.5 32.5Q315 30 316.0 28.5Q317 27 320.0 24.0Q323 21 326.0 18.5Q329 16 333 14Q359 20 361 29Z" fill="#ffe51e" />
<path d="M327 413Q329 419 331 420L332 421Q381 411 392 406Q401 403 406.5 399.5Q412 396 413 394L415 393Q415 391 414 390Q413 386 408 385Q406 385 399.0 385.0Q392 385 390 385Q390 385 388.0 384.5Q386 384 384 384Q369 383 366.0 382.5Q363 382 360.0 381.0Q357 380 357 380Q356 380 349 371L348 365Q347 363 346 364Q345 364 343.5 368.0Q342 372 340 374Q337 376 333.5 377.0Q330 378 326.5 378.0Q323 378 322 378Q321 378 321 380L324 399Q324 405 327 413Z" fill="#226699" />
<path d="M356 377Q356 377 355 376Q354 374 352 376L348 379Q347 381 348.5 382.5Q350 384 352 383L355 380Q356 379 356 377Z" fill="#ccd6dd" />
<path d="M357 411Q351 403 344 402Q339 401 325 403Q326 408 327 414Q329 419 331 421Q331 421 336.0 419.0Q341 417 347.5 414.5Q354 412 357 411Z" fill="#3b88c3" />
<path d="M331 421Q330 421 331.5 425.5Q333 430 334 430Q335 431 337 431Q340 431 355 426Q364 423 369 421Q390 414 392 413Q401 410 409 404Q412 401 413.5 398.5Q415 396 415 394V393Q412 395 408 398Q404 400 397 403Q392 405 382 407Q381 408 372.0 408.5Q363 409 359 410Q354 411 341 416Q336 417 334 419ZM364 381Q363 380 362 379Q359 379 359 381L358 385Q357 388 359.5 388.5Q362 389 363 387L364 382Q364 382 364 381ZM373 383Q372 381 370 381Q368 380 368 383L367 388Q367 390 369.5 390.0Q372 390 372 388ZM382 383Q381 381 379 382Q376 382 377 384V388Q377 391 379.5 391.0Q382 391 382 388V384ZM44 423Q52 433 65.5 429.5Q79 426 84 413Q85 410 88.0 395.5Q91 381 94 378Q102 370 102 360Q102 358 100.0 357.0Q98 356 96 358Q104 349 94 348Q89 347 88.5 344.0Q88 341 85.0 342.0Q82 343 81.0 344.5Q80 346 80 347V348Q80 348 78 341Q77 340 75 342Q71 347 59.0 366.0Q47 385 43 395Q37 414 44 423Z" fill="#ccd6dd" />
<path d="M48 420Q55 429 67.5 425.0Q80 421 83 411Q84 407 85.5 399.0Q87 391 88.5 386.0Q90 381 93 378Q106 365 106 358Q106 356 103.5 355.0Q101 354 99 356Q99 356 103 349Q104 347 101 346Q100 346 99 346Q94 345 91.5 341.0Q89 337 86.0 337.5Q83 338 81.5 341.0Q80 344 79 346V349Q79 349 77 342Q76 340 74 342Q70 347 59.5 364.5Q49 382 46 393Q41 410 48 420ZM207 176Q182 191 173 199Q168 202 160.0 212.5Q152 223 146 232L140 241Q168 270 183 280L220 253L254 284Q289 270 299 254Q283 228 278 219Q278 205 282 204Z" fill="#226699" />
<path d="M75 358Q75 358 76 359L92 367Q95 368 95.5 365.5Q96 363 94 362L78 354Q75 353 74 355Q74 357 75 358ZM69 369Q70 369 70 370L86 377Q88 378 89.0 375.5Q90 373 88 372L72 365Q70 364 69 366Q68 368 69 369ZM65 380 79 386Q82 387 82.5 384.5Q83 382 81 381L67 375Q65 374 64 377Q63 378 65 380ZM61 389 62 390 75 395Q77 395 78.0 393.0Q79 391 77 390L63 385Q61 384 60 386Q59 388 61 389Z" fill="#ccd6dd" />
<path d="M199 -39Q203 11 204 21Q205 28 210.0 33.0Q215 38 220 37Q230 36 232 19Q232 13 225.5 -10.0Q219 -33 219 -40Q220 -41 223.0 -43.5Q226 -46 228.5 -47.5Q231 -49 229 -50Q228 -51 222.5 -52.0Q217 -53 215 -52L207 -53Q193 -51 192 -51Q191 -50 192.5 -47.5Q194 -45 196.5 -42.5Q199 -40 199 -39Z" fill="#f3d2a2" />
<path d="M262 66 248 46Q241 48 233 55L218 66Q227 81 233 88Q236 91 231.5 99.0Q227 107 216.5 123.0Q206 139 200 149Q176 194 174 196Q202 191 221 196L280 217Q282 207 292 184Q300 164 300 163L308 149L336 148L340 111Q329 108 323 106L309 104Q299 109 285 98Q278 94 276.0 88.5Q274 83 275 80L276 77Z" fill="#3b88c3" />
</g></svg>