<svg xmlns="http://www.w3.org/2000/svg" viewBox="0 0 2048 2048">
<g transform="matrix(1 0 0 -1 0 2048)">
<path d="M370 50Q405 50 430.0 25.0Q455 0 455 -36V-64H57V-36Q57 0 82.0 25.0Q107 50 142 50Z" fill="#292f33" />
<path d="M115 -26Q117 -26 118.0 -35.5Q119 -45 120 -55L121 -64H107Q110 -26 115 -26ZM163 -55V-64H150Q150 -60 150.5 -56.0Q151 -52 152.0 -44.0Q153 -36 154.5 -31.0Q156 -26 157.5 -26.0Q159 -26 160.5 -35.5Q162 -45 163 -55ZM355 -26Q359 -26 362 -64H349Q351 -26 355 -26ZM397 -26Q397 -26 397 -26Q402 -26 405 -64Q405 -64 392 -64V-55Q393 -45 394.5 -35.5Q396 -26 397 -26Z" fill="#66757f" />
<path d="M176 50H336Q333 38 325 22Q298 -35 256 -56Q214 -35 187 22Z" fill="#fa743e" />
<path d="M187 22 176 50H336Q333 38 325 22Q297 -7 256.0 -7.0Q215 -7 187 22Z" fill="#dd551f" />
<path d="M194 48V103H318V48Q318 39 297.5 29.5Q277 20 256.0 20.0Q235 20 214.5 29.5Q194 39 194 48Z" fill="#7c533e" />
<path d="M194 79V128H318V79Q296 54 256.0 54.0Q216 54 194 79Z" fill="#664131" />
<path d="M301 401Q353 384 380.0 348.5Q407 313 406 264Q402 180 370.0 136.5Q338 93 270 93Q238 93 225.5 94.0Q213 95 195.5 102.5Q178 110 165 127Q123 140 117 189Q115 198 112.0 213.5Q109 229 108.0 237.0Q107 245 106.0 263.0Q105 281 108 295Q113 332 141.0 359.0Q169 386 201 387Q212 401 246.5 405.0Q281 409 301 401Z" fill="#0b0200" />
<path d="M363 260Q378 239 378 188Q378 138 342.0 102.0Q306 66 256.0 66.0Q206 66 170.0 102.0Q134 138 134 188Q134 228 137 239Q147 268 166 280Q182 289 191.5 300.0Q201 311 203 317L204 323Q211 307 234 292Q247 285 280.5 277.5Q314 270 332 251Q338 244 338 251Q337 253 337 258Q336 265 329.5 274.0Q323 283 317 286Q347 282 363 260Z" fill="#7c533e" />
<path d="M270 154H243Q236 154 236.0 160.5Q236 167 243 167H270Q276 167 276.0 160.5Q276 154 270 154ZM258 97Q217 97 205 109Q198 116 205 123Q211 129 218 123Q227 116 258 116Q290 116 298 123Q305 129 311.5 122.5Q318 116 311 109Q299 97 258 97Z" fill="#3d2e24" />
<path d="M188 215V228Q188 234 192.0 238.0Q196 242 201.5 242.0Q207 242 211.0 238.0Q215 234 215 228V215Q215 209 211.5 205.0Q208 201 202.0 201.0Q196 201 192.0 205.0Q188 209 188 215ZM297 215V228Q297 234 301.0 238.0Q305 242 310.5 242.0Q316 242 320.0 238.0Q324 234 324 228V215Q324 209 320.0 205.0Q316 201 310.5 201.0Q305 201 301.0 205.0Q297 209 297 215Z" fill="#000000" />
<path d="M457 398Q462 397 462.0 391.5Q462 386 457 384L387 364Q391 351 391 334Q391 284 256.0 284.0Q121 284 121 334Q121 351 125 364L55 384Q50 386 50.0 391.5Q50 397 55 398L255 441Q256 441 257 441Z" fill="#292f33" />
<path d="M457 384 258 327Q257 327 256.0 327.0Q255 327 254 327L55 384Q48 386 50.0 393.0Q52 400 59 398L256 342L453 398Q460 400 462.0 393.0Q464 386 457 384Z" fill="#66757f" />
<path d="M255 398Q262 399 263.0 392.0Q264 385 257 384L92 370V290Q100 286 100 256Q100 229 95.5 210.5Q91 192 85.0 192.0Q79 192 75.0 210.5Q71 229 71 256Q71 286 78 290V377Q78 383 85 384Z" fill="#ffcc4d" />
</g></svg>