<svg xmlns="http://www.w3.org/2000/svg" viewBox="0 0 512 512">
<g transform="matrix(1 0 0 -1 0 512)">
<path d="M215.5 363.0Q199 378 199.0 398.5Q199 419 215.5 433.5Q232 448 256.0 448.0Q280 448 296.5 433.5Q313 419 313.0 398.5Q313 378 296.5 363.0Q280 348 256.0 348.0Q232 348 215.5 363.0Z" fill="#292f33" />
<path d="M135.0 120.0Q85 162 85.0 220.5Q85 279 135.0 321.0Q185 363 256.0 363.0Q327 363 377.0 321.0Q427 279 427.0 220.5Q427 162 377.0 120.0Q327 78 256.0 78.0Q185 78 135.0 120.0Z" fill="#292f33" />
<path d="M225.5 371.0Q213 379 213.0 391.0Q213 403 225.5 411.5Q238 420 256.0 420.0Q274 420 286.5 411.5Q299 403 299.0 391.0Q299 379 286.5 371.0Q274 363 256.0 363.0Q238 363 225.5 371.0Z" fill="#ffcc4d" />
<path d="M441 -64H71V0Q71 34 103.0 56.0Q135 78 172 78H343Q381 78 411.0 56.0Q441 34 441 0Z" fill="#88c9f9" />
<path d="M206 71V129H306V70Q289 57 256 57Q225 57 206 71Z" fill="#88c9f9" />
<path d="M206 100V147H306V100Q289 85 255.5 85.0Q222 85 206 100Z" fill="#55acee" />
<path d="M153 240Q153 302 183.0 346.0Q213 390 255.5 390.0Q298 390 328.0 346.0Q358 302 358 240Q358 178 328.0 136.0Q298 94 255.0 94.0Q212 94 182.5 136.0Q153 178 153 240Z" fill="#88c9f9" />
<path d="M255 129Q232 129 219 141Q212 148 219.0 155.0Q226 162 233 155Q240 148 255.0 148.0Q270 148 278 155Q285 162 291.5 155.0Q298 148 291 141Q279 129 255 129Z" fill="#df1f32" />
<path d="M196 221V233Q196 238 199.5 241.5Q203 245 208.0 245.0Q213 245 216.5 241.5Q220 238 220 233V221Q220 216 216.5 212.5Q213 209 208.0 209.0Q203 209 199.5 212.5Q196 216 196 221ZM304 209Q299 209 295.5 212.5Q292 216 292 221V233Q292 238 295.5 241.5Q299 245 304.0 245.0Q309 245 312.5 241.5Q316 238 316 233V221Q316 216 312.5 212.5Q309 209 304 209Z" fill="#662113" />
<path d="M268 172H244Q238 172 238 178V180Q238 186 244 186H268Q274 186 274 180V178Q274 172 268 172Z" fill="#55acee" />
<path d="M257 405Q298 405 329.0 390.5Q360 376 377.5 350.5Q395 325 403.5 295.5Q412 266 412 233Q412 209 408.0 189.0Q404 169 398.0 157.0Q392 145 386.0 136.5Q380 128 376 124L371 121Q385 149 371 176Q365 189 361.5 209.5Q358 230 357 245V260Q316 264 286 274Q267 280 253.0 287.0Q239 294 234 297L229 301Q186 260 158 260Q158 232 144 190Q140 179 140.0 161.5Q140 144 142 132L144 121Q139 126 132.0 135.0Q125 144 113.0 176.5Q101 209 101 246Q101 315 138.5 360.0Q176 405 257 405Z" fill="#292f33" />
<path d="M143.5 184.5Q134 192 128.5 205.5Q123 219 125.0 231.0Q127 243 135.0 246.5Q143 250 152.5 242.5Q162 235 167.5 221.5Q173 208 171.5 196.0Q170 184 161.5 180.5Q153 177 143.5 184.5Z" fill="#88c9f9" />
<path d="M368.5 184.5Q359 177 350.5 180.5Q342 184 340.5 196.0Q339 208 344.5 221.5Q350 235 359.5 242.5Q369 250 377.0 246.5Q385 243 387.0 231.0Q389 219 383.5 205.5Q378 192 368.5 184.5Z" fill="#88c9f9" />
<path d="M128 -64Q126 -59 124.5 -51.5Q123 -44 126.5 -28.5Q130 -13 142 -7Q160 2 185.0 -8.5Q210 -19 231.0 -34.5Q252 -50 256.0 -50.0Q260 -50 281.0 -34.5Q302 -19 327.0 -8.5Q352 2 370 -7Q382 -13 386.0 -27.5Q390 -42 387 -53L384 -64Z" fill="#a0041e" />
<path d="M256 36Q275 36 289.0 46.5Q303 57 308 68L313 78H327Q327 75 326.5 70.5Q326 66 322.5 53.5Q319 41 312.0 31.5Q305 22 290.5 14.5Q276 7 256.0 7.0Q236 7 221.5 14.5Q207 22 200.0 32.5Q193 43 189.5 53.5Q186 64 185 71V78H199Q200 76 201.0 73.5Q202 71 207.0 63.5Q212 56 217.5 50.5Q223 45 233.5 40.5Q244 36 256 36Z" fill="#ffcc4d" />
</g></svg>