<svg xmlns="http://www.w3.org/2000/svg" viewBox="0 0 2048 2048">
<g transform="matrix(1 0 0 -1 0 2048)">
<path d="M384 149Q408 149 424.5 132.5Q441 116 441 92V-64H71V92Q71 116 87.5 132.5Q104 149 128 149Z" fill="#4289c1" />
<path d="M142 64H156V-64H142ZM356 64H370V-64H356Z" fill="#2a6797" />
<path d="M67 71 63 72H56Q56 72 56 74Q48 80 50 89Q51 95 56.0 98.5Q61 102 66 100L96 94H120Q129 94 135.5 87.5Q142 81 142 72V50H89Q68 59 67 71ZM445 71Q444 60 423 50H370V72Q370 81 376.5 87.5Q383 94 392 94H416L446 100Q451 102 456.0 98.5Q461 95 462 89Q464 80 456 74Q456 72 456 72H449Z" fill="#e0aa94" />
<path d="M0 83Q0 88 3.5 91.0Q7 94 11 94L78 83H131Q136 83 139.0 80.0Q142 77 142 72V50H71L11 72Q0 77 0 83ZM512 83Q512 80 509.0 77.5Q506 75 504 73L501 72L441 50H370V72Q370 77 373.0 80.0Q376 83 381 83H434L501 94Q505 94 508.5 91.0Q512 88 512 83Z" fill="#f7dece" />
<path d="M57 -64 71 50H142V-64ZM455 -64H370V50H441Z" fill="#4289c1" />
<path d="M128 348H384V206Q384 153 346.5 115.5Q309 78 256.0 78.0Q203 78 165.5 115.5Q128 153 128 206Z" fill="#f7dece" />
<path d="M146.5 282.0Q154 270 154.0 253.0Q154 236 146.5 224.0Q139 212 128.5 212.0Q118 212 110.5 224.0Q103 236 103.0 253.0Q103 270 110.5 282.0Q118 294 128.5 294.0Q139 294 146.5 282.0ZM401.5 282.0Q409 270 409.0 253.0Q409 236 401.5 224.0Q394 212 383.5 212.0Q373 212 365.5 224.0Q358 236 358.0 253.0Q358 270 365.5 282.0Q373 294 383.5 294.0Q394 294 401.5 282.0Z" fill="#f7dece" />
<path d="M256 436Q319 436 359.5 397.5Q400 359 400 314Q400 249 386 250Q382 250 378 259L356 298Q289 298 267 320Q267 320 275 297Q278 276 234 320Q234 320 233 308Q226 291 178 331Q175 329 169.0 325.0Q163 321 151.0 302.0Q139 283 134 259Q132 247 124 257Q112 272 112 314Q112 361 149.5 398.5Q187 436 256 436Z" fill="#292f33" />
<path d="M270 171H242Q235 171 235.0 178.0Q235 185 242 185H270Q277 185 277.0 178.0Q277 171 270 171ZM292 121H284Q277 121 277.0 128.0Q277 135 284 135H292Q299 135 299.0 128.0Q299 121 292 121Z" fill="#bf6952" />
<path d="M185 235V249Q185 255 189.0 259.0Q193 263 199.0 263.0Q205 263 209.0 259.0Q213 255 213 249V235Q213 229 209.0 224.5Q205 220 199.0 220.0Q193 220 189.0 224.5Q185 229 185 235ZM299 235V249Q299 255 303.0 259.0Q307 263 313.0 263.0Q319 263 323.0 259.0Q327 255 327 249V235Q327 229 323.0 224.5Q319 220 313.0 220.0Q307 220 303.0 224.5Q299 229 299 235Z" fill="#662113" />
</g></svg>