<svg xmlns="http://www.w3.org/2000/svg" viewBox="0 0 512 512">
<g transform="matrix(1 0 0 -1 0 512)">
<path d="M407 13Q311 -21 256 -21Q232 -21 194.0 -12.5Q156 -4 130 5L105 13Q106 27 116.5 34.0Q127 41 137 41Q139 41 152.5 37.5Q166 34 174.5 36.0Q183 38 185 49L186 52H327V49Q330 38 338.0 36.0Q346 34 359.5 37.5Q373 41 375 41Q385 41 395.5 34.0Q406 27 407 13Z" fill="#4289c1" />
<path d="M173 206Q179 205 184.5 200.0Q190 195 189 190L173 116Q174 111 171 101Q167 92 144.5 69.0Q122 46 119.5 35.0Q117 24 105.0 11.0Q93 -2 87 2L82 4Q79 6 79.0 14.0Q79 22 84 28Q84 29 82.5 30.0Q81 31 83 38Q86 44 100 56Q108 63 118.0 88.0Q128 113 142 122Q143 123 145 124L157 194Q158 200 162.5 203.5Q167 207 173 206ZM428 27Q432 21 433.0 13.5Q434 6 430 4L425 2Q419 -2 407.0 11.0Q395 24 392.5 35.0Q390 46 367.5 69.0Q345 92 342 101Q339 110 339 115L323 190Q322 195 327.5 200.0Q333 205 339 206Q345 207 349.5 203.5Q354 200 355 194L367 124Q369 123 371 122Q384 113 394.0 88.0Q404 63 411 56Q427 43 429 38Q432 31 429.5 29.5Q427 28 428 27Z" fill="#f3d2a2" />
<path d="M324 -61Q318 -62 302.0 -61.0Q286 -60 281 -61Q270 -62 263 -56Q260 -53 198.0 -40.5Q136 -28 125 -20Q116 -15 109.0 -4.5Q102 6 105 15Q111 35 136 35Q153 36 201.0 9.5Q249 -17 262 -22Q266 -24 273.0 -23.5Q280 -23 285 -24Q290 -25 307.0 -21.0Q324 -17 330 -18Q353 -21 351 -40Q349 -59 324 -61Z" fill="#f3d2a2" />
<path d="M324 -61Q318 -62 302.0 -61.0Q286 -60 281 -61Q270 -62 263 -56Q258 -51 268.0 -36.5Q278 -22 285 -24Q290 -25 307.0 -21.0Q324 -17 330 -17Q353 -21 351 -40Q349 -59 324 -61ZM159 -24Q163 -13 182 -11Q190 -10 207 -17Q218 -22 228 -18Q235 -15 242 -18Q242 -18 245.0 -18.0Q248 -18 249 -17Q249 -17 267 -26Q269 -28 265 -29Q259 -31 224.0 -33.5Q189 -36 179 -36Q175 -36 170.0 -33.0Q165 -30 162 -27Z" fill="#e2c196" />
<path d="M105 15Q105 15 105 15Q111 -6 125 -12Q135 -15 183.5 -29.0Q232 -43 240 -44Q268 -47 271 -50Q278 -54 291 -51Q294 -51 307.0 -53.0Q320 -55 325 -54Q348 -49 351 -37V-36Q351 -38 351 -40Q349 -59 324 -61Q318 -62 302.0 -61.0Q286 -60 281 -61Q270 -62 263 -56Q260 -53 198.0 -40.5Q136 -28 125 -20Q116 -15 109.0 -4.5Q102 6 105 15Z" fill="#e2c196" />
<path d="M188 -61Q163 -59 161 -40Q159 -21 182 -18Q188 -17 205.0 -21.0Q222 -25 227 -24Q232 -23 239.5 -23.5Q247 -24 250 -22Q263 -17 311.0 9.5Q359 36 376 35Q401 35 407 15Q410 6 403.0 -4.5Q396 -15 387 -20Q376 -28 314.0 -40.5Q252 -53 249 -56Q242 -62 231 -61Q226 -60 210.0 -61.0Q194 -62 188 -61Z" fill="#f3d2a2" />
<path d="M270 448Q306 448 331.0 423.0Q356 398 356 363V320Q356 279 326.5 249.5Q297 220 256.0 220.0Q215 220 185.5 249.5Q156 279 156 320V377Q156 400 173.0 417.0Q190 434 213 434Q216 434 222 433Q244 448 270 448Z" fill="#ffe51e" />
<path d="M321 235Q337 235 347.5 220.5Q358 206 360 192L362 178L327 169Q320 136 320 108Q320 95 322.0 80.5Q324 66 325 58L327 50Q298 45 256 45Q244 45 232.5 45.5Q221 46 212.5 46.5Q204 47 197.5 48.0Q191 49 188 49L185 50Q191 79 191 107Q191 120 189.5 135.0Q188 150 187 160L185 169L150 178Q150 180 150.5 184.0Q151 188 154.0 197.5Q157 207 161.0 214.5Q165 222 173.0 228.5Q181 235 191 235Z" fill="#9268ca" />
<path d="M228 292H284V235Q284 223 276.0 214.5Q268 206 256.0 206.0Q244 206 236.0 214.5Q228 223 228 235Z" fill="#f3d2a2" />
<path d="M284 292V235Q272 228 257.5 228.0Q243 228 235 232L228 235V291Z" fill="#e2c196" />
<path d="M228 405Q228 403 228.5 399.5Q229 396 234.5 387.0Q240 378 249.0 370.5Q258 363 278.5 356.5Q299 350 327 349V320Q327 291 306.0 270.0Q285 249 256.0 249.0Q227 249 206.0 270.0Q185 291 185 320V350Q204 354 214.5 367.5Q225 381 226 393Z" fill="#f3d2a2" />
<path d="M284 277Q284 276 283.5 273.5Q283 271 276.0 267.0Q269 263 256.0 263.0Q243 263 236.0 266.5Q229 270 228 274V277Z" fill="#df1f32" />
<path d="M231 324H210Q206 324 206.0 327.5Q206 331 210 331H231Q235 331 235.0 327.5Q235 324 231 324ZM302 324H281Q277 324 277.0 327.5Q277 331 281 331H302Q306 331 306.0 327.5Q306 324 302 324ZM242 306H270Q270 304 269.5 301.5Q269 299 265.5 295.5Q262 292 256.0 292.0Q250 292 246.5 295.5Q243 299 242 302Z" fill="#c1694f" />
</g></svg>