<svg xmlns="http://www.w3.org/2000/svg" viewBox="0 0 512 512">
<g transform="matrix(1 0 0 -1 0 512)">
<path d="M512 -64H114V-36Q114 0 139.0 25.0Q164 50 199 50H427Q462 50 487.0 25.0Q512 0 512 -36Z" fill="#77b255" />
<path d="M242 50H384Q384 22 354.5 -7.0Q325 -36 313.0 -36.0Q301 -36 271.5 -7.0Q242 22 242 50Z" fill="#3e721d" />
<path d="M251 49V103H375V49Q375 29 344.0 21.5Q313 14 282.0 22.0Q251 30 251 49Z" fill="#f3d2a2" />
<path d="M251 79V128H375V79Q353 54 313.0 54.0Q273 54 251 79Z" fill="#e2c196" />
<path d="M358 401Q369 397 378.0 384.0Q387 371 392.0 360.5Q397 350 409.0 343.0Q421 336 440 345Q464 310 462 264Q459 180 427.0 136.5Q395 93 327 93Q294 93 282.0 94.0Q270 95 252.5 102.5Q235 110 222 127Q180 140 173 189Q172 198 169.0 213.5Q166 229 165.0 237.0Q164 245 163.0 263.0Q162 281 165 295Q169 322 185 344Q202 341 214.0 346.5Q226 352 230.5 361.0Q235 370 242.5 378.5Q250 387 258 387Q269 401 303.5 405.0Q338 409 358 401Z" fill="#ffe51e" />
<path d="M420 260Q435 239 435 188Q435 138 399.0 102.0Q363 66 313.0 66.0Q263 66 227.0 102.0Q191 138 191 188Q191 228 194 239Q204 268 223 280Q239 289 248.5 300.0Q258 311 260 317L261 323Q268 307 291 292Q302 286 340.0 272.5Q378 259 396 240Q403 232 402 240Q402 241 401 246Q400 253 390.0 268.0Q380 283 374 286Q404 282 420 260Z" fill="#f3d2a2" />
<path d="M327 154H299Q293 154 293.0 160.5Q293 167 299 167H327Q333 167 333.0 160.5Q333 154 327 154ZM315 97Q273 97 262 109Q255 116 262 123Q268 129 274 123Q284 116 315 116Q347 116 355 123Q362 129 368.5 122.5Q375 116 368 109Q356 97 315 97ZM427 323Q427 309 396.0 300.5Q365 292 313.0 292.0Q261 292 230.0 300.5Q199 309 199 323Q199 358 229.0 403.0Q259 448 275 448Q286 448 298.5 435.5Q311 423 312.5 423.0Q314 423 327.0 435.5Q340 448 351 448Q367 448 397.0 403.0Q427 358 427 323Z" fill="#c1694f" />
<path d="M245 215V228Q245 234 249.0 238.0Q253 242 258.5 242.0Q264 242 268.0 238.0Q272 234 272 228V215Q272 209 268.0 205.0Q264 201 258.5 201.0Q253 201 249.0 205.0Q245 209 245 215ZM354 215V228Q354 234 358.0 238.0Q362 242 367.5 242.0Q373 242 377.0 238.0Q381 234 381 228V215Q381 209 377.0 205.0Q373 201 367.5 201.0Q362 201 358.0 205.0Q354 209 354 215Z" fill="#662113" />
<path d="M185 50H228V-64H185ZM398 50H441V-64H398Z" fill="#3b88c3" />
<path d="M187 -50H441V-64H187Z" fill="#3b88c3" />
<path d="M511 334Q511 324 500.5 310.5Q490 297 468.5 282.5Q447 268 405.5 258.5Q364 249 312.0 249.0Q260 249 218.5 258.5Q177 268 155.5 282.5Q134 297 123.5 310.5Q113 324 113 334Q113 341 123.0 344.5Q133 348 154.5 349.0Q176 350 196.5 350.0Q217 350 253.0 349.0Q289 348 312.0 348.0Q335 348 371.0 349.0Q407 350 427.5 350.0Q448 350 469.5 349.0Q491 348 501.0 344.5Q511 341 511 334ZM100 -4V-64H64V-4Q64 4 69.0 9.0Q74 14 81.5 14.0Q89 14 94.5 9.0Q100 4 100 -4Z" fill="#c1694f" />
<path d="M427 323Q427 309 396.0 300.5Q365 292 313.0 292.0Q261 292 230.0 300.5Q199 309 199 323Q199 334 203 348Q229 327 313.0 327.0Q397 327 423 348Q427 334 427 323Z" fill="#292f33" />
<path d="M142 124Q142 125 153.0 125.0Q164 125 164 124Q164 91 140.0 67.0Q116 43 82.0 43.0Q48 43 24.0 67.0Q0 91 0 124Q0 125 10.5 125.0Q21 125 21 124Q21 99 39.0 81.5Q57 64 82.0 64.0Q107 64 124.5 81.5Q142 99 142 124Z" fill="#66757f" />
<path d="M21 124Q21 120 18.0 117.0Q15 114 10.5 114.0Q6 114 3.0 117.0Q0 120 0 124V245Q0 250 3.0 253.0Q6 256 10.5 256.0Q15 256 18.0 253.0Q21 250 21 245ZM164 124Q164 120 160.5 117.0Q157 114 152.5 114.0Q148 114 145.0 117.0Q142 120 142 124V245Q142 250 145.0 253.0Q148 256 152.5 256.0Q157 256 160.5 253.0Q164 250 164 245ZM92 7Q92 3 89.0 -0.5Q86 -4 81.5 -4.0Q77 -4 74.0 -0.5Q71 3 71 7V245Q71 250 74.0 253.0Q77 256 81.5 256.0Q86 256 89.0 253.0Q92 250 92 245Z" fill="#66757f" />
</g></svg>