<svg xmlns="http://www.w3.org/2000/svg" viewBox="0 0 512 512">
<g transform="matrix(1 0 0 -1 0 512)">
<path d="M15 197 44 217 134 89 105 69Z" fill="#42484c" />
<path d="M55 208 20 183Q15 179 10.5 185.0Q6 191 12 195L47 219Q53 223 57.0 217.5Q61 212 55 208ZM149 99 90 58Q85 54 80.5 60.0Q76 66 82 70L141 111Q146 115 150.0 109.0Q154 103 149 99Z" fill="#66757f" />
<path d="M99 64 140 93 213 -12 173 -40ZM32 173 61 194 69 182 40 162ZM48 150 77 171 85 159 56 138ZM64 127 93 147 101 136 72 115ZM80 104 110 124 118 112 89 92Z" fill="#000000" />
<path d="M332 162Q333 161 335.0 159.0Q337 157 342.5 151.5Q348 146 352.5 140.0Q357 134 361.5 125.0Q366 116 368.0 107.0Q370 98 369.5 86.5Q369 75 364 64Q359 64 343 79Q308 115 332 162Z" fill="#292f33" />
<path d="M369 84Q328 99 326 146Q326 146 326.5 147.5Q327 149 327 150Q339 147 351 142Q373 113 369 84Z" fill="#000000" />
<path d="M327 164Q330 163 334.5 161.5Q339 160 351.5 154.5Q364 149 373.5 142.0Q383 135 391.0 121.5Q399 108 400 91Q397 91 392.0 91.5Q387 92 374.5 96.0Q362 100 352.5 106.5Q343 113 335.0 128.0Q327 143 327 164ZM455 -64H57V-36Q57 0 82.0 25.0Q107 50 142 50H370Q405 50 430.0 25.0Q455 0 455 -36Z" fill="#292f33" />
<path d="M182 68H330V7H182Z" fill="#292f33" />
<path d="M199 64H313Q312 60 311.0 53.5Q310 47 305.0 29.5Q300 12 294.0 -1.0Q288 -14 278.0 -25.0Q268 -36 256.0 -36.0Q244 -36 234.0 -25.5Q224 -15 217.5 -0.5Q211 14 207.0 28.5Q203 43 201 54L199 64Z" fill="#292f33" />
<path d="M194 21V103H318V21Q280 -7 256.0 -7.0Q232 -7 194 21ZM156.0 248.0Q163 237 163.0 221.5Q163 206 156.0 195.0Q149 184 139.5 184.0Q130 184 123.0 195.0Q116 206 116.0 221.5Q116 237 123.0 248.0Q130 259 139.5 259.0Q149 259 156.0 248.0ZM396 221Q396 206 389.0 195.0Q382 184 372.5 184.0Q363 184 356.0 195.0Q349 206 349.0 221.5Q349 237 356.0 248.0Q363 259 372.5 259.0Q382 259 389.0 248.0Q396 237 396 221Z" fill="#292f33" />
<path d="M194 79V128H318V79Q296 54 256.0 54.0Q216 54 194 79Z" fill="#000000" />
<path d="M135 213Q135 295 164.0 336.0Q193 377 256.0 377.0Q319 377 348.0 336.0Q377 295 377 213Q377 151 341.5 107.0Q306 63 256.0 63.0Q206 63 170.5 107.0Q135 151 135 213Z" fill="#292f33" />
<path d="M156 50Q156 50 156 50Q185 78 185 64Q185 56 188.0 48.0Q191 40 197.5 31.5Q204 23 207.5 18.5Q211 14 220.0 6.0Q229 -2 230 -3Q265 -39 277 -64Q253 -64 238 -64Q238 -64 199 -21Q179 -1 167.5 18.5Q156 38 156 50Z" fill="#66757f" />
<path d="M238 -64Q234 -60 229 -54Q237 -37 249 -23Q268 -44 277 -64Z" fill="#292f33" />
<path d="M356 50Q356 38 344.5 18.5Q333 -1 313 -21Q303 -31 294.0 -42.0Q285 -53 281 -58L277 -64Q268 -64 235 -64Q245 -40 282 -3Q283 -2 292.0 6.0Q301 14 304.5 18.5Q308 23 314.5 31.5Q321 40 324.0 48.0Q327 56 327 64Q327 78 356 50Z" fill="#66757f" />
<path d="M356 225Q350 200 339.5 192.5Q329 185 307 188Q292 190 278.5 196.0Q265 202 254.5 202.0Q244 202 232.0 196.0Q220 190 205 188Q183 185 172.5 192.5Q162 200 156 225Q151 241 155.5 249.5Q160 258 172.5 259.5Q185 261 197.5 259.5Q210 258 228.0 255.5Q246 253 256.0 253.0Q266 253 284.0 255.5Q302 258 314.5 259.5Q327 261 339.5 259.5Q352 258 356.5 249.5Q361 241 356 225Z" fill="#f3d2a2" />
<path d="M185 220V235Q185 241 189.0 245.0Q193 249 199.0 249.0Q205 249 209.0 245.0Q213 241 213 235V220Q213 215 209.0 210.5Q205 206 199.0 206.0Q193 206 189.0 210.5Q185 215 185 220ZM313 206Q307 206 303.0 210.5Q299 215 299 220V235Q299 241 303.0 245.0Q307 249 313.0 249.0Q319 249 323.0 245.0Q327 241 327 235V220Q327 215 323.0 210.5Q319 206 313 206Z" fill="#662113" />
</g></svg>