<svg xmlns="http://www.w3.org/2000/svg" viewBox="0 0 512 512">
<g transform="matrix(1 0 0 -1 0 512)">
<path d="M242 432Q263 440 287.0 430.0Q311 420 314 398Q318 372 310.0 346.5Q302 321 283 323Q228 329 215 361Q207 383 214.5 403.5Q222 424 242 432Z" fill="#f7dece" />
<path d="M223 353Q208 375 220.0 384.0Q232 393 254 393L277 394Q284 394 285.5 386.0Q287 378 287.0 366.5Q287 355 290 348Q293 344 288.5 339.5Q284 335 278 333L272 332Q261 332 261 319V318Q260 313 262 306Q268 286 251 278Q234 272 227 290Q224 301 227 318V319Q231 343 223 353Z" fill="#f7dece" />
<path d="M212 421Q243 458 295 434Q302 431 308.0 430.0Q314 429 317.0 428.5Q320 428 321 426Q326 418 324.5 411.0Q323 404 318.5 399.5Q314 395 311 397Q296 405 285.0 404.0Q274 403 271 397Q269 393 268.5 387.5Q268 382 268.0 378.0Q268 374 267 374Q262 374 260.5 376.5Q259 379 257.5 383.0Q256 387 255 389Q250 395 244.5 392.5Q239 390 237 383Q233 362 250 359Q246 351 239.5 344.5Q233 338 229 337L224 335Q224 334 222.5 334.5Q221 335 217.0 339.0Q213 343 209 351Q201 367 200.5 385.5Q200 404 212 421ZM143 -19 145 -41Q116 -49 96.0 -51.0Q76 -53 71 -50L65 -48Q52 -36 63 -33Q93 -22 108 0Q112 6 118 6Q124 6 128 1ZM391 -64H320Q314 -64 314 -58V-52Q314 -42 319 -34L325 -26H352L379 -33Q397 -39 397 -57Q397 -58 397 -58Q397 -64 391 -64Z" fill="#292f33" />
<path d="M177 141Q177 141 177 141Q175 170 180 231Q187 309 229 322Q248 327 268.5 304.0Q289 281 290 242Q290 229 291.5 201.5Q293 174 293.0 155.0Q293 136 290 122Q290 122 269 121Q248 121 220.5 118.0Q193 115 179 110Q176 109 175.5 113.5Q175 118 176.0 127.5Q177 137 177 141Z" fill="#77b255" />
<path d="M265 83 270 -19Q270 -20 270.0 -23.0Q270 -26 268.0 -33.5Q266 -41 262.0 -46.5Q258 -52 248.5 -56.5Q239 -61 227 -60L129 -49Q122 -24 134 -13L205 -5Q207 -4 207 -1Q207 -1 207 0L185 72Q177 96 176 111Q176 114 177.5 115.0Q179 116 179 118L270 92Z" fill="#2a6797" />
<path d="M239 144Q251 144 277.0 142.0Q303 140 323 137L343 135Q360 131 367.0 115.0Q374 99 373 85L372 70L365 -28Q341 -41 321 -28L308 70H250Q249 70 247.0 69.5Q245 69 238.0 68.5Q231 68 225.5 68.5Q220 69 211.5 70.0Q203 71 197.5 74.5Q192 78 185.5 83.5Q179 89 176.5 97.5Q174 106 173.0 117.5Q172 129 177 144Q177 144 191.0 144.0Q205 144 220.5 144.0Q236 144 239 144Z" fill="#4289c1" />
<path d="M261 250Q263 238 264.0 219.0Q265 200 265.5 188.0Q266 176 268 175Q282 168 311.5 162.0Q341 156 346 155Q353 152 363 144Q364 142 368.5 138.5Q373 135 375.0 133.0Q377 131 379.0 128.0Q381 125 382 123Q382 119 379.5 117.0Q377 115 371.5 115.5Q366 116 359 119Q356 120 345.5 123.0Q335 126 329 130Q319 136 303.0 134.0Q287 132 265.5 136.0Q244 140 235 153Q224 170 210 241Q216 243 228.5 245.5Q241 248 251 249L261 250Z" fill="#f7dece" />
</g></svg>