<svg xmlns="http://www.w3.org/2000/svg" viewBox="0 0 512 512">
<g transform="matrix(1 0 0 -1 0 512)">
<path d="M370 50Q405 50 430.0 25.0Q455 0 455 -36V-64H14V-21Q14 -10 22.5 -1.5Q31 7 43 7Q55 7 64 -2Q73 21 94.5 35.5Q116 50 142 50Z" fill="#4289c1" />
<path d="M199 64H313Q313 59 314.0 50.5Q315 42 313.5 19.5Q312 -3 307.0 -19.5Q302 -36 289.0 -50.0Q276 -64 256.0 -64.0Q236 -64 223.0 -51.0Q210 -38 205.5 -19.0Q201 0 199.0 19.0Q197 38 198 51Z" fill="#2a6797" />
<path d="M105.5 142.0Q43 157 43.0 177.5Q43 198 105.5 213.0Q168 228 256.0 228.0Q344 228 406.5 213.0Q469 198 469.0 177.5Q469 157 406.5 142.0Q344 127 256.0 127.0Q168 127 105.5 142.0Z" fill="#292f33" />
<path d="M375 198Q396 197 396 171Q396 156 389.0 145.0Q382 134 373 134Q372 134 372 134Q360 86 328.0 53.0Q296 20 256.0 20.0Q216 20 184.0 53.0Q152 86 140 134Q140 134 139 134Q130 134 123.0 145.0Q116 156 116 171Q116 197 137 198Q147 242 181.0 281.5Q215 321 256.0 321.0Q297 321 331.0 281.5Q365 242 375 198Z" fill="#f7dece" />
<path d="M185 168V182Q185 188 189.0 192.0Q193 196 199.0 196.0Q205 196 209.0 192.0Q213 188 213 182V168Q213 162 209.0 157.5Q205 153 199.0 153.0Q193 153 189.0 157.5Q185 162 185 168ZM299 168V182Q299 188 303.0 192.0Q307 196 313.0 196.0Q319 196 323.0 192.0Q327 188 327 182V168Q327 162 323.0 157.5Q319 153 313.0 153.0Q307 153 303.0 157.5Q299 162 299 168Z" fill="#662113" />
<path d="M267 138H245Q241 138 238.0 141.0Q235 144 235.0 148.5Q235 153 238.0 156.0Q241 159 245 159H267Q271 159 274.0 156.0Q277 153 277.0 148.5Q277 144 274.0 141.0Q271 138 267 138ZM287 92H225Q221 92 218.0 95.0Q215 98 215 103V107Q215 112 218.0 115.0Q221 118 225 118H287Q291 118 294.0 115.0Q297 112 297 107V103Q297 98 294.0 95.0Q291 92 287 92Z" fill="#c1694f" />
<path d="M376 194Q384 183 384 156Q384 138 380.0 125.5Q376 113 370 113Q370 113 369 113Q370 110 370 106Q370 94 367.5 87.5Q365 81 363 81L360 80Q364 67 362.0 55.0Q360 43 355 36L351 28Q351 11 344.0 1.0Q337 -9 329 -10L322 -11Q322 -28 312.5 -34.5Q303 -41 294 -39L284 -37Q280 -43 273.0 -46.0Q266 -49 261 -49L256 -50Q237 -50 228 -37Q226 -37 223.5 -38.0Q221 -39 214.5 -39.0Q208 -39 203.0 -37.0Q198 -35 194.0 -28.5Q190 -22 190 -11Q188 -11 186.5 -10.5Q185 -10 180.0 -8.0Q175 -6 171.0 -2.5Q167 1 164.0 9.0Q161 17 161 28Q159 31 156.5 36.0Q154 41 150.0 55.5Q146 70 152 80Q142 80 142 106Q142 110 143 113Q142 113 142 113Q136 113 132.0 125.5Q128 138 128 156Q128 188 138 197Q137 198 136 200Q131 208 137.0 218.5Q143 229 156.0 236.0Q169 243 181.0 243.0Q193 243 197.5 235.5Q202 228 196.0 217.5Q190 207 177 199Q163 191 149 192Q156 180 156 156Q156 132 150 120Q158 120 168 110Q188 130 212 135Q231 139 242.0 134.0Q253 129 255 121Q258 129 269.0 133.5Q280 138 299 135Q324 130 344 109Q354 120 362 120Q356 132 356 156Q356 180 363 192Q352 193 341 199Q328 207 322.0 217.5Q316 228 320.5 235.5Q325 243 337.0 243.0Q349 243 362.0 236.0Q375 229 381.0 218.5Q387 208 382 200Q380 196 376 194ZM294 80Q311 69 333 95Q308 104 294 107Q259 107 255 115Q251 106 217 107Q203 104 179 95Q201 69 218 80Q230 88 239.5 91.5Q249 95 252 94L256 93Q267 98 294 80Z" fill="#e6e7e8" />
<path d="M366 232Q416 224 442.5 209.0Q469 194 469 178Q365 213 256.0 213.0Q147 213 43 178Q43 194 69.5 209.0Q96 224 146 232Q244 448 256.0 448.0Q268 448 366 232Z" fill="#4289c1" />
<path d="M71 -64H43V279L28 334H85L71 279Z" fill="#d99e82" />
<path d="M26.5 332.5Q14 345 14.0 362.5Q14 380 26.5 392.5Q39 405 57.0 405.0Q75 405 87.5 392.5Q100 380 100.0 362.5Q100 345 87.5 332.5Q75 320 57.0 320.0Q39 320 26.5 332.5Z" fill="#55acee" />
<path d="M34.5 354.5Q28 361 28.0 370.0Q28 379 34.5 385.0Q41 391 50.0 391.0Q59 391 65.0 385.0Q71 379 71.0 370.0Q71 361 65.0 354.5Q59 348 50.0 348.0Q41 348 34.5 354.5Z" fill="#b0f0ff" />
<path d="M100 14Q100 -6 87.5 -21.0Q75 -36 57.0 -36.0Q39 -36 26.5 -21.0Q14 -6 14 14Q14 50 57.0 50.0Q100 50 100 14Z" fill="#f7dece" />
</g></svg>