<svg xmlns="http://www.w3.org/2000/svg" viewBox="0 0 512 512">
<g transform="matrix(1 0 0 -1 0 512)">
<path d="M342 209Q361 209 375.5 195.0Q390 181 390 162Q390 117 382.5 60.5Q375 4 368 -30L361 -64H217Q209 -54 196.5 -37.5Q184 -21 163.5 20.5Q143 62 143 92Q143 100 147.0 109.5Q151 119 155.5 126.5Q160 134 168.0 142.5Q176 151 181.5 155.5Q187 160 194.5 167.0Q202 174 203 175Q217 186 240.5 197.5Q264 209 281 209Z" fill="#9268ca" />
<path d="M321 199Q315 166 263 114Q247 98 227.5 87.5Q208 77 197 74L185 71Q184 71 182.5 70.5Q181 70 175.5 70.0Q170 70 166.5 70.5Q163 71 157.5 72.5Q152 74 149.5 78.0Q147 82 145.0 88.0Q143 94 146 103Q150 116 173.0 130.5Q196 145 206 159Q220 178 245.5 190.0Q271 202 292 206Q323 212 321 199Z" fill="#f7dece" />
<path d="M205 106Q231 125 230 120Q230 118 218.5 106.5Q207 95 201 76L185 71Q176 70 168 72Q168 72 168.0 73.0Q168 74 168 74Q166 81 157.5 92.0Q149 103 149 110Q150 112 155.0 112.5Q160 113 167.0 111.0Q174 109 179 104Q191 94 205 106Z" fill="#e0aa94" />
<path d="M190.5 389.0Q209 381 217.0 362.5Q225 344 217.0 325.5Q209 307 191.0 299.5Q173 292 154.5 299.5Q136 307 128.0 325.5Q120 344 127.5 362.5Q135 381 153.5 389.0Q172 397 190.5 389.0Z" fill="#292f33" />
<path d="M258 231 312 245 321 208Q324 197 312.0 182.0Q300 167 289 168Q283 168 279.0 169.0Q275 170 273.0 173.5Q271 177 270.0 179.0Q269 181 268.0 186.5Q267 192 267 195Z" fill="#f7dece" />
<path d="M258 231 314 241Q314 237 312.5 231.0Q311 225 299.5 211.0Q288 197 268 188Z" fill="#eec2ad" />
<path d="M180 380Q181 378 184.5 375.0Q188 372 200.0 365.0Q212 358 227.0 355.0Q242 352 266.5 354.0Q291 356 319 367L337 323Q350 292 325.5 253.5Q301 215 266 201Q212 179 179 257L157 310Q176 321 181.5 338.5Q187 356 183 368Z" fill="#f7dece" />
<path d="M195 238 189 236Q185 234 183.0 238.5Q181 243 186 244L191 247Q196 249 197.5 244.5Q199 240 195 238Z" fill="#bf6952" />
<path d="M185 280 182 289Q178 298 186.5 301.5Q195 305 199 296L203 287Q206 279 197.5 275.0Q189 271 185 280Z" fill="#662113" />
<path d="M202 217H203L237 231Q235 214 217 203Q209 209 202 217Z" fill="#df1f32" />
<path d="M258 277 232 319Q229 318 224.0 317.5Q219 317 205.0 316.0Q191 315 179.5 316.5Q168 318 156.0 324.5Q144 331 138 343Q123 370 148.5 396.5Q174 423 208 435Q226 441 240.0 443.5Q254 446 274.0 444.5Q294 443 311.0 429.0Q328 415 341 389Q376 316 319 243Q300 258 295 268Q293 272 292.5 290.5Q292 309 286 314Q280 316 272.0 315.5Q264 315 259.0 304.5Q254 294 258 277Z" fill="#292f33" />
<path d="M331 373Q324 389 340.0 407.5Q356 426 377 424Q403 422 421.0 400.5Q439 379 428 352Q418 324 425.0 305.0Q432 286 454 286Q453 285 452.0 283.5Q451 282 446.5 279.0Q442 276 437.0 274.5Q432 273 424.5 274.0Q417 275 409 280Q393 289 388.5 324.0Q384 359 375 364Q353 375 344 364Q341 361 338.5 363.5Q336 366 333 370Z" fill="#292f33" />
<path d="M235 -12Q222 -12 224 -30Q227 -54 249 -58Q251 -59 253 -59Q234 -64 213 -64Q172 -64 140.0 -42.5Q108 -21 89 15Q79 33 77.5 55.5Q76 78 80.0 93.0Q84 108 89 116Q98 129 113.5 131.5Q129 134 136 126Q147 114 177.5 90.0Q208 66 226 57Q250 46 318 -1Q269 -13 235 -12Z" fill="#77b255" />
<path d="M256 -64H220Q196 -64 174.5 -49.5Q153 -35 157 -19Q160 -12 164.5 -9.5Q169 -7 174.0 -8.0Q179 -9 189.0 -10.5Q199 -12 206 -12H235Q246 -47 256 -64Z" fill="#f7dece" />
</g></svg>