<svg xmlns="http://www.w3.org/2000/svg" viewBox="0 0 512 512">
<g transform="matrix(1 0 0 -1 0 512)">
<path d="M455 -64H57V-21Q57 20 88.0 49.0Q119 78 156 78H356Q393 78 424.0 49.0Q455 20 455 -21Z" fill="#292f33" />
<path d="M320 21V78H354L381 34ZM192 21 131 34 158 78H192Z" fill="#546170" />
<path d="M293 -64 329 63 354 32 395 45 333 -64ZM219 -64H179L117 45L158 32L183 63Z" fill="#66757f" />
<path d="M296 -64H216L175 78H337Z" fill="#dfe7ec" />
<path d="M256.0 -15.0Q246 -15 246.0 -5.0Q246 5 256.0 5.0Q266 5 266.0 -5.0Q266 -15 256.0 -15.0ZM256.0 -56.0Q246 -56 246.0 -46.0Q246 -36 256.0 -36.0Q266 -36 266.0 -46.0Q266 -56 256.0 -56.0Z" fill="#292f33" />
<path d="M199 80V137H313V80L256 55Z" fill="#f3d2a2" />
<path d="M199 107V164H313V107Q291 82 256.0 82.0Q221 82 199 107Z" fill="#e2c196" />
<path d="M198 96 256 55 218 15 175 78ZM314 96 337 78 294 15 256 55Z" fill="#f4f7f9" />
<path d="M301 66V20Q301 18 299 17Q299 17 298.0 17.0Q297 17 296 17L256 39L216 17Q215 17 214.0 17.0Q213 17 213 17Q211 18 211 20V66Q211 68 212.5 69.0Q214 70 216 69L256 47L296 69Q298 70 299.5 69.0Q301 68 301 66Z" fill="#292f33" />
<path d="M307 426Q359 410 386.5 374.0Q414 338 412 290Q405 118 268 118Q236 118 223.5 119.0Q211 120 193.5 128.0Q176 136 163 153Q121 165 115 214Q113 226 107.5 248.0Q102 270 101.0 281.5Q100 293 102 323Q106 360 136.0 385.5Q166 411 199 412Q211 427 249.0 430.5Q287 434 307 426Z" fill="#ffe51e" />
<path d="M361 285Q376 264 376 213Q376 163 340.0 127.0Q304 91 254.0 91.0Q204 91 168.0 127.0Q132 163 132 213Q132 254 136 264Q145 293 165 305Q180 315 189.5 325.5Q199 336 201 342L202 348Q209 332 233 318Q245 310 278.5 303.0Q312 296 330 276Q336 269 336 277Q336 278 335 283Q334 290 328.0 299.0Q322 308 315 311Q345 307 361 285Z" fill="#f3d2a2" />
<path d="M203 135Q196 141 203 148Q209 154 216 148Q225 141 256 141Q288 141 296 148Q303 155 309.5 148.0Q316 141 309 135Q297 123 256.0 123.0Q215 123 203 135ZM268 179H241Q234 179 234.0 186.0Q234 193 241 193H268Q275 193 275.0 186.0Q275 179 268 179Z" fill="#c1694f" />
<path d="M186 240V254Q186 259 190.0 263.0Q194 267 200.0 267.0Q206 267 210.0 263.0Q214 259 214 254V240Q214 235 210.0 231.0Q206 227 200.0 227.0Q194 227 190.0 231.0Q186 235 186 240ZM295 240V254Q295 259 299.0 263.0Q303 267 308.5 267.0Q314 267 318.0 263.0Q322 259 322 254V240Q322 235 318.0 231.0Q314 227 308.5 227.0Q303 227 299.0 231.0Q295 235 295 240Z" fill="#662113" />
</g></svg>