<svg xmlns="http://www.w3.org/2000/svg" viewBox="0 0 2048 2048">
<g transform="matrix(1 0 0 -1 0 2048)">
<path d="M370 76H427V-64H85V64H370Z" fill="#77b255" />
<path d="M199 64V121L298 119L299 64Q297 61 294.5 56.0Q292 51 279.5 43.0Q267 35 250.0 35.0Q233 35 220.0 42.0Q207 49 203 57ZM162.5 241.0Q168 231 168.0 217.5Q168 204 162.5 194.5Q157 185 148.5 185.0Q140 185 134.0 194.5Q128 204 128.0 217.5Q128 231 134.0 241.0Q140 251 148.5 251.0Q157 251 162.5 241.0ZM371 218Q371 204 365.0 194.5Q359 185 351.0 185.0Q343 185 337.0 194.5Q331 204 331.0 217.5Q331 231 337.0 241.0Q343 251 351.0 251.0Q359 251 365.0 241.0Q371 231 371 218Z" fill="#ffdc5d" />
<path d="M199 92V142H298V92Q280 71 249.0 71.0Q218 71 199 92ZM464 114Q466 104 458 99Q458 97 458 97H451L447 96Q447 87 440.5 81.0Q434 75 426 75H371V97Q371 106 377.5 112.5Q384 119 393 119H418L448 125Q453 126 458.0 123.0Q463 120 464 114ZM49 61Q50 66 55.0 69.5Q60 73 65 72L95 66H120Q129 66 135.5 59.5Q142 53 142 43V21H88Q79 21 72.5 27.5Q66 34 66 43H62H55Q55 44 55 46Q47 51 49 61Z" fill="#f9ca55" />
<path d="M144 205Q144 257 175.0 294.0Q206 331 249.5 331.0Q293 331 324.0 294.0Q355 257 355.0 205.0Q355 153 324.0 116.0Q293 79 249.5 79.0Q206 79 175.0 116.0Q144 153 144 205ZM513 108Q513 105 510.0 102.5Q507 100 504.5 98.5Q502 97 502 97L436 75H393H370L371 97Q371 101 374.0 104.5Q377 108 382 108H436L502 119Q507 119 510.0 115.5Q513 112 513 108ZM0 54Q0 59 3.0 62.5Q6 66 11 66L77 54H131Q136 54 139.0 51.0Q142 48 142 43V21H77L11 43Q0 48 0 54Z" fill="#ffdc5d" />
<path d="M250 119Q214 119 203 130Q198 136 203 142Q209 147 214 142Q223 136 250 136Q277 136 285 142Q290 148 296.0 142.0Q302 136 296 130Q285 119 250 119ZM259 170H240Q231 170 231.0 179.5Q231 189 240 189H259Q268 189 268.0 179.5Q268 170 259 170Z" fill="#c1694f" />
<path d="M250 373Q299 373 331.0 343.0Q363 313 363 278Q363 225 352 228Q349 229 346 235L328 269Q276 269 258 287Q258 287 265 269Q267 252 232 287Q232 287 231 276Q225 265 188 295Q185 293 180.5 289.0Q176 285 166.5 269.5Q157 254 153 235Q151 224 145 234Q136 247 136 278Q136 315 165.5 344.0Q195 373 250 373Z" fill="#ffac33" />
<path d="M188 217V229Q188 235 191.5 238.5Q195 242 200.0 242.0Q205 242 208.5 238.5Q212 235 212 229V217Q212 212 208.5 208.0Q205 204 200.0 204.0Q195 204 191.5 208.0Q188 212 188 217ZM299 204Q294 204 290.5 208.0Q287 212 287 217V229Q287 235 290.5 238.5Q294 242 299.0 242.0Q304 242 307.5 238.5Q311 235 311 229V217Q311 212 307.5 208.0Q304 204 299 204Z" fill="#662113" />
<path d="M84 246Q82 245 78.0 243.5Q74 242 64.5 234.5Q55 227 47.0 218.0Q39 209 32.0 193.0Q25 177 24 157Q23 160 20.5 165.0Q18 170 13.5 186.0Q9 202 7.0 218.5Q5 235 7.0 258.0Q9 281 16 302ZM285 363Q284 365 281.0 367.5Q278 370 267.5 376.5Q257 383 245.5 386.5Q234 390 216.5 390.0Q199 390 180 384Q182 387 186.0 390.5Q190 394 203.0 404.5Q216 415 230.0 423.0Q244 431 266.0 438.0Q288 445 311 447ZM416 216Q417 218 419.0 221.5Q421 225 423.5 237.0Q426 249 426.0 260.5Q426 272 420.5 289.0Q415 306 403 322Q406 321 411.0 318.5Q416 316 430.0 307.0Q444 298 456.0 287.0Q468 276 481.5 257.5Q495 239 504 218Z" fill="#d1d3d4" />
<path d="M30.5 256.5Q16 271 16.0 291.5Q16 312 30.5 327.0Q45 342 65.5 342.0Q86 342 100.5 327.0Q115 312 115.0 291.5Q115 271 100.5 256.5Q86 242 65.5 242.0Q45 242 30.5 256.5ZM142 21H156V-64H142ZM356 64H370V-64H356Z" fill="#5c913b" />
<path d="M285.0 363.0Q270 378 270.0 398.5Q270 419 285.0 433.5Q300 448 320.5 448.0Q341 448 355.5 433.5Q370 419 370.0 398.5Q370 378 355.5 363.0Q341 348 320.5 348.0Q300 348 285.0 363.0Z" fill="#be1931" />
<path d="M425.5 158.5Q411 173 411.0 194.0Q411 215 425.5 229.5Q440 244 460.5 244.0Q481 244 496.0 229.5Q511 215 511.0 194.0Q511 173 496.0 158.5Q481 144 460.5 144.0Q440 144 425.5 158.5Z" fill="#3b88c3" />
</g></svg>