<svg xmlns="http://www.w3.org/2000/svg" viewBox="0 0 2048 2048">
<g transform="matrix(1 0 0 -1 0 2048)">
<path d="M18.5 40.0Q0 59 0.0 85.5Q0 112 18.5 130.5Q37 149 64.0 149.0Q91 149 109.5 130.5Q128 112 128.0 85.5Q128 59 109.5 40.0Q91 21 64.0 21.0Q37 21 18.5 40.0ZM307.0 101.0Q284 124 284.0 156.5Q284 189 307.0 212.0Q330 235 362.5 235.0Q395 235 418.0 212.0Q441 189 441.0 156.5Q441 124 418.0 101.0Q395 78 362.5 78.0Q330 78 307.0 101.0Z" fill="#e1e8ed" />
<path d="M390.5 21.0Q370 42 370.0 71.5Q370 101 390.5 121.5Q411 142 440.5 142.0Q470 142 491.0 121.5Q512 101 512.0 71.5Q512 42 491.0 21.0Q470 0 440.5 0.0Q411 0 390.5 21.0ZM120.5 56.5Q100 77 100.0 106.5Q100 136 120.5 157.0Q141 178 170.5 178.0Q200 178 221.0 157.0Q242 136 242.0 106.5Q242 77 221.0 56.5Q200 36 170.5 36.0Q141 36 120.5 56.5Z" fill="#e1e8ed" />
<path d="M469 -64Q462 -64 455 -61V-64H43Q25 -64 12.5 -51.5Q0 -39 0.0 -21.5Q0 -4 12.5 8.5Q25 21 42.5 21.0Q60 21 72.5 8.5Q85 -4 85 -21H427Q427 -4 439.5 8.5Q452 21 469.5 21.0Q487 21 499.5 8.5Q512 -4 512.0 -21.5Q512 -39 499.5 -51.5Q487 -64 469 -64Z" fill="#e1e8ed" />
<path d="M0 85H128V-21H0ZM284 121H412V64H284ZM441 71H512V-21H441Z" fill="#e1e8ed" />
<path d="M441 -64H71V0Q71 34 103.0 56.0Q135 78 172 78H343Q381 78 411.0 56.0Q441 34 441 0Z" fill="#d4ab88" />
<path d="M303 391Q350 376 374.5 344.5Q399 313 397 269Q391 116 268 116Q239 116 228.0 116.5Q217 117 201.5 124.0Q186 131 174 147Q137 158 131 201Q130 212 125.0 231.5Q120 251 119.0 261.5Q118 272 120 299Q124 332 151.0 355.0Q178 378 207 378Q217 392 251.5 395.0Q286 398 303 391Z" fill="#963b22" />
<path d="M220 140H292V67Q292 52 281.5 41.5Q271 31 256.0 31.0Q241 31 230.5 41.5Q220 52 220 67Z" fill="#d4ab88" />
<path d="M220 97V126H292V97Q279 82 256.0 82.0Q233 82 220 97Z" fill="#cc9b7a" />
<path d="M352 265Q365 247 365 201Q365 156 333.0 123.5Q301 91 256.0 91.0Q211 91 179.0 123.5Q147 156 147 201Q147 237 150 246Q158 272 176 283Q190 292 198.5 301.5Q207 311 208 316L210 321Q216 307 237 294Q248 287 278.0 280.5Q308 274 323 257Q328 252 329 255Q329 256 328 263Q327 270 321.5 278.0Q316 286 310 289Q338 285 352 265Z" fill="#d4ab88" />
<path d="M219 141Q212 148 219.0 155.0Q226 162 233 155Q240 148 255.0 148.0Q270 148 278 155Q285 162 291.5 155.0Q298 148 291 141Q279 129 255.5 129.0Q232 129 219 141ZM268 172H244Q238 172 238 178V180Q238 186 244 186H268Q274 186 274 180V178Q274 172 268 172Z" fill="#c1694f" />
<path d="M195 225V237Q195 242 198.5 245.5Q202 249 207.5 249.0Q213 249 216.5 245.5Q220 242 220 237V225Q220 220 216.5 216.5Q213 213 207.5 213.0Q202 213 198.5 216.5Q195 220 195 225ZM292 225V237Q292 242 295.5 245.5Q299 249 304.5 249.0Q310 249 313.5 245.5Q317 242 317 237V225Q317 220 313.5 216.5Q310 213 304.5 213.0Q299 213 295.5 216.5Q292 220 292 225Z" fill="#662113" />
<path d="M220 93Q234 48 259.0 9.0Q284 -30 301 -47L319 -64H85V21Q85 34 91 46Q123 78 172 78Z" fill="#cc9b7a" />
<path d="M343 78Q381 78 411.0 56.0Q441 34 441 0V-64H224Q227 -63 232.0 -60.0Q237 -57 251.0 -45.0Q265 -33 277.0 -18.5Q289 -4 301.5 22.0Q314 48 321 78Z" fill="#dd551f" />
<path d="M224 -64Q277 -57 298 -45L317 -64Z" fill="#c63900" />
<path d="M349 78Q339 30 322.0 -5.5Q305 -41 293 -52L281 -64H224Q229 -59 237.0 -47.5Q245 -36 263.5 4.5Q282 45 292 92Q302 92 323.0 85.0Q344 78 349 78Z" fill="#fa743e" />
<path d="M264 2Q274 -15 298 -45L281 -64H224Q251 -24 264 2Z" fill="#dd551f" />
<path d="M191 78Q200 50 213.5 25.5Q227 1 240.0 -15.0Q253 -31 264.5 -42.5Q276 -54 283 -59L290 -64H71V0Q71 34 103.0 56.0Q135 78 172 78Z" fill="#fa743e" />
<path d="M220 92Q234 48 252.0 9.0Q270 -30 280 -47L290 -64H234Q229 -59 222.0 -49.5Q215 -40 196.0 -3.0Q177 34 163 78Q168 78 190.0 85.0Q212 92 220 92Z" fill="#fa8c56" />
<path d="M455 50Q488 50 512 28V-21Q512 -39 499.5 -51.5Q487 -64 469 -64H305Q313 -45 330.5 -33.0Q348 -21 370 -21Q371 -21 371 -21Q376 9 400.0 29.5Q424 50 455 50ZM193 -64H43Q25 -64 12.5 -51.5Q0 -39 0 -21V-7H1Q3 11 17.0 23.5Q31 36 50 36Q70 36 85.0 21.0Q100 6 100 -14Q100 -21 97 -29Q112 -21 128 -21Q150 -21 167.5 -33.0Q185 -45 193 -64Z" fill="#ffffff" />
</g></svg>