<svg xmlns="http://www.w3.org/2000/svg" viewBox="0 0 2048 2048">
<g transform="matrix(1 0 0 -1 0 2048)">
<path d="M384 64Q408 64 424.5 47.5Q441 31 441 7V-64H142V64Z" fill="#4289c1" />
<path d="M370 -7H384V-64H370Z" fill="#2a6797" />
<path d="M128 364 384 359V206Q384 153 346.5 115.5Q309 78 256.0 78.0Q203 78 165.5 115.5Q128 153 128 206Z" fill="#ffdc5d" />
<path d="M270 171H242Q235 171 235.0 178.0Q235 185 242 185H270Q277 185 277.0 178.0Q277 171 270 171Z" fill="#c1694f" />
<path d="M146.5 282.0Q154 270 154.0 253.0Q154 236 146.5 224.0Q139 212 128.5 212.0Q118 212 110.5 224.0Q103 236 103.0 253.0Q103 270 110.5 282.0Q118 294 128.5 294.0Q139 294 146.5 282.0ZM401.5 282.0Q409 270 409.0 253.0Q409 236 401.5 224.0Q394 212 383.5 212.0Q373 212 365.5 224.0Q358 236 358.0 253.0Q358 270 365.5 282.0Q373 294 383.5 294.0Q394 294 401.5 282.0ZM213 107H299V50Q299 32 286.5 19.5Q274 7 256.0 7.0Q238 7 225.5 19.5Q213 32 213 50Z" fill="#ffdc5d" />
<path d="M256 436Q319 436 359.5 397.5Q400 359 400 314Q400 249 386 250Q382 250 378 259L356 298Q289 298 267 320Q267 320 275 297Q278 276 234 320Q234 320 233 308Q226 291 178 331Q175 329 169.0 325.0Q163 321 151.0 302.0Q139 283 134 259Q132 247 124 257Q112 272 112 314Q112 361 149.5 398.5Q187 436 256 436Z" fill="#ffac33" />
<path d="M266 187 292 177Q200 -19 187 -37Q176 -52 162.5 -58.5Q149 -65 122 -62ZM370 -7H384V-64H370Z" fill="#2a6797" />
<path d="M192 336Q201 339 208.0 333.5Q215 328 217 319L221 303L232 334Q236 345 246.5 350.0Q257 355 268 351L322 332Q333 329 338.0 318.0Q343 307 339 296L302 189Q301 187 300.0 185.0Q299 183 294.5 180.5Q290 178 284 180L203 208L194 226L199 240L182 311Q180 319 182.5 326.5Q185 334 192 336Z" fill="#ef9645" />
<path d="M344 215Q345 213 343 211Q342 210 340.5 210.0Q339 210 338 211Q330 217 313 217Q313 217 312 217L319 237Q335 233 344 215Z" fill="#662113" />
<path d="M313 238Q315 238 319 237L312 217Q295 217 288 211Q286 209 284.0 211.0Q282 213 283 215Q293 238 313 238Z" fill="#4f140b" />
<path d="M299 116H263Q268 125 275 140Q282 136 288.0 130.0Q294 124 296 120Z" fill="#c1694f" />
<path d="M266 187 292 177Q285 162 275 140L263 116Q238 63 220 27Q213 37 213 50L208 88L225 116L239 141Z" fill="#ef9645" />
<path d="M275 140 263 116H225L239 141Q248 144 256 144Q266 144 275 140Z" fill="#894935" />
<path d="M200 326 204 310 215 340Q219 351 229.5 356.5Q240 362 251 358L305 339Q316 335 321.0 324.5Q326 314 322 303L285 195Q284 194 283.0 192.0Q282 190 277.0 187.0Q272 184 266 187L186 215L177 233L182 247L165 317Q163 324 167.0 330.5Q171 337 178.0 339.0Q185 341 191.5 337.0Q198 333 200 326Z" fill="#ffdc5d" />
<path d="M267 277 290 344 304 339 280 272ZM226 291 250 358 263 353 240 286Z" fill="#ef9645" />
<path d="M203 23Q179 -27 173 -39Q169 -49 161.0 -55.0Q153 -61 148 -63L142 -64Q110 -64 93.0 -52.0Q76 -40 74.5 -22.5Q73 -5 76.0 12.5Q79 30 85 42L91 55L182 223L275 186Z" fill="#4289c1" />
</g></svg>