<svg xmlns="http://www.w3.org/2000/svg" viewBox="0 0 2048 2048">
<g transform="matrix(1 0 0 -1 0 2048)">
<path d="M484 178Q484 28 477.5 -11.0Q471 -50 441 -50Q425 -50 364.5 -28.5Q304 -7 256.0 -7.0Q208 -7 148.0 -28.5Q88 -50 71 -50Q61 -50 53.0 -39.0Q45 -28 40.5 -9.5Q36 9 33.0 31.5Q30 54 29.5 78.0Q29 102 28.5 124.0Q28 146 28 163Q28 173 28 178Q28 231 44.0 272.5Q60 314 84.0 338.0Q108 362 139.5 378.0Q171 394 199.5 399.5Q228 405 256.0 405.0Q284 405 312.5 399.5Q341 394 372.5 378.0Q404 362 428.0 338.0Q452 314 468.0 272.5Q484 231 484 178Z" fill="#0b0200" />
<path d="M135.0 28.5Q85 93 85.0 184.0Q85 275 135.0 339.5Q185 404 256.0 404.0Q327 404 377.0 339.5Q427 275 427.0 184.0Q427 93 377.0 28.5Q327 -36 256.0 -36.0Q185 -36 135.0 28.5Z" fill="#7c533e" />
<path d="M270 92H242Q236 92 232.0 96.5Q228 101 228.0 107.0Q228 113 232.0 117.0Q236 121 242 121H270Q276 121 280.0 117.0Q284 113 284.0 107.0Q284 101 280.0 96.5Q276 92 270 92Z" fill="#3d2e24" />
<path d="M44 107H29Q28 115 28 178Q28 231 44.0 275.0Q60 319 84.0 348.0Q108 377 139.0 397.0Q170 417 199.5 425.5Q229 434 256.0 434.0Q283 434 312.5 425.5Q342 417 373.0 397.0Q404 377 428.0 348.0Q452 319 468.0 275.0Q484 231 484 178Q484 128 483 107H469Q469 117 469 121Q469 145 462.5 149.5Q456 154 448.0 147.5Q440 141 433.5 143.0Q427 145 427 164Q427 204 393.0 226.5Q359 249 313 249Q288 249 256.0 259.5Q224 270 204 281L185 292L142 249Q135 242 122.0 231.0Q109 220 102.5 214.0Q96 208 90.5 194.5Q85 181 85 164Q85 147 78.5 145.5Q72 144 64.0 150.0Q56 156 49.5 150.5Q43 145 43 121Q43 117 44 107Z" fill="#0b0200" />
<path d="M171 149V178Q171 184 175.0 188.0Q179 192 185.0 192.0Q191 192 195.0 188.0Q199 184 199 178V149Q199 143 195.0 139.0Q191 135 185.0 135.0Q179 135 175.0 139.0Q171 143 171 149ZM313 149V178Q313 184 317.0 188.0Q321 192 327.0 192.0Q333 192 337.0 188.0Q341 184 341 178V149Q341 143 337.0 139.0Q333 135 327.0 135.0Q321 135 317.0 139.0Q313 143 313 149Z" fill="#000000" />
<path d="M402 70Q405 62 400.5 49.5Q396 37 390 29L384 21Q379 8 372.5 -1.0Q366 -10 362.0 -13.5Q358 -17 349 -23L325 -16H187L163 -23Q154 -17 150.0 -13.5Q146 -10 139.5 -1.0Q133 8 128 21Q125 24 121.5 29.5Q118 35 112.5 48.5Q107 62 110 70L156 57H356Z" fill="#212629" />
<path d="M368 96Q372 100 378.0 103.5Q384 107 390.0 109.0Q396 111 400.5 108.0Q405 105 405 96Q405 78 399.0 61.5Q393 45 387 37L380 30Q369 0 350.5 -16.5Q332 -33 319 -35L306 -37Q296 -47 256.0 -47.0Q216 -47 206 -37Q204 -37 200.5 -36.5Q197 -36 187.0 -32.5Q177 -29 168.5 -22.5Q160 -16 149.5 -2.5Q139 11 132 30Q107 56 107 96Q107 105 111.5 108.0Q116 111 122.0 109.0Q128 107 134.0 103.5Q140 100 144 96Q181 56 206 69Q216 75 225.0 78.0Q234 81 239.0 82.0Q244 83 248.5 83.0Q253 83 254 83H256Q271 88 306 69Q331 56 368 96Z" fill="#0b0200" />
<path d="M256 26Q239 26 224.5 30.0Q210 34 206.0 39.0Q202 44 214.5 48.0Q227 52 256.0 52.0Q285 52 297.5 48.0Q310 44 306.0 39.0Q302 34 287.5 30.0Q273 26 256 26Z" fill="#7c533e" />
</g></svg>