<svg xmlns="http://www.w3.org/2000/svg" viewBox="0 0 2048 2048">
<g transform="matrix(1 0 0 -1 0 2048)">
<path d="M71 330Q142 330 192.0 280.0Q242 230 242 159Q242 132 233 105Q220 52 176.0 19.0Q132 -14 76 -11Q76 -11 76 -11Q34 -9 0 13V314Q34 330 71 330Z" fill="#af7e57" />
<path d="M142 127Q135 127 135.0 134.5Q135 142 142 142Q163 142 164 163Q164 170 171.0 170.0Q178 170 178 163Q178 150 169.5 138.5Q161 127 142 127ZM107 163Q107 150 98.5 138.5Q90 127 71 127Q64 127 64.0 134.5Q64 142 71 142Q92 142 92 163Q92 170 99.5 170.0Q107 170 107 163Z" fill="#662113" />
<path d="M142 99Q150 99 157.0 93.5Q164 88 164 78Q164 69 159 63Q164 58 164 49Q164 39 157.0 33.5Q150 28 142 28Q135 28 135.0 35.0Q135 42 142.0 42.0Q149 42 149.0 49.0Q149 56 142.0 56.0Q135 56 135.0 63.0Q135 70 142.0 70.5Q149 71 149.0 78.0Q149 85 142.0 85.0Q135 85 135.0 92.0Q135 99 142 99Z" fill="#915a34" />
<path d="M36 184Q19 184 0 166V355Q52 371 108.5 360.5Q165 350 191 321Q214 317 230.5 301.0Q247 285 255.0 263.5Q263 242 266.0 222.0Q269 202 269 183Q269 167 260.5 148.5Q252 130 243 120L234 110Q239 140 234.5 162.0Q230 184 219.5 198.5Q209 213 198.0 221.5Q187 230 178 234L170 237Q158 214 136.0 201.0Q114 188 93.0 183.5Q72 179 49.0 167.5Q26 156 14 136Q11 164 36 184Z" fill="#60352a" />
<path d="M441 330Q478 330 512 314V13Q478 -9 436 -11Q436 -11 436 -11Q380 -14 336.0 19.0Q292 52 279 105Q270 132 270 159Q270 230 320.0 280.0Q370 330 441 330Z" fill="#d4ab88" />
<path d="M370 142Q377 142 377.0 134.5Q377 127 370 127Q351 127 342.5 138.5Q334 150 334 163Q334 170 341.0 170.0Q348 170 348 163Q349 142 370 142ZM441 142Q448 142 448.0 134.5Q448 127 441 127Q422 127 413.5 138.5Q405 150 405 163Q405 170 412.5 170.0Q420 170 420 163Q420 142 441 142Z" fill="#662113" />
<path d="M370 56Q363 56 363.0 49.0Q363 42 370.0 42.0Q377 42 377.0 35.0Q377 28 370 28Q362 28 355.0 33.5Q348 39 348 49Q348 58 353 63Q348 69 348 78Q348 88 355.0 93.5Q362 99 370 99Q377 99 377.0 92.0Q377 85 370.0 85.0Q363 85 363.0 78.0Q363 71 370.0 70.5Q377 70 377.0 63.0Q377 56 370 56Z" fill="#c1694f" />
<path d="M321 321Q347 350 403.5 360.5Q460 371 512 355V166Q493 184 476 184Q501 164 498 136Q486 156 463.0 167.5Q440 179 419.0 183.5Q398 188 376.0 201.0Q354 214 342 237Q340 237 337.5 235.5Q335 234 326.5 229.5Q318 225 311.5 219.0Q305 213 295.5 202.5Q286 192 282.5 179.5Q279 167 275.5 149.0Q272 131 278 110Q274 114 268.0 121.0Q262 128 252.5 147.5Q243 167 243 183Q243 202 246.0 222.0Q249 242 257.0 263.5Q265 285 281.5 301.0Q298 317 321 321Z" fill="#963b22" />
<path d="M377 353Q377 345 376 337Q369 296 331.0 255.5Q293 215 256 202Q219 215 181.0 255.5Q143 296 136 337Q135 345 135 353Q135 380 154.5 400.0Q174 420 202 420Q236 420 256 392Q276 420 310 420Q338 420 357.5 400.0Q377 380 377 353Z" fill="#dd2e44" />
</g></svg>