<svg xmlns="http://www.w3.org/2000/svg" viewBox="0 0 2048 2048">
<g transform="matrix(1 0 0 -1 0 2048)">
<path d="M429 136 454 170Q462 182 473.5 174.0Q485 166 477 154L452 119Q444 108 432.5 116.0Q421 124 429 136Z" fill="#66757f" />
<path d="M256 448Q289 448 319.5 444.0Q350 440 383.5 428.5Q417 417 441.5 399.0Q466 381 482.0 349.5Q498 318 498 277Q498 229 466.5 171.5Q435 114 387.5 75.0Q340 36 299 36Q275 36 261.5 78.5Q248 121 246.5 181.5Q245 242 246.5 302.5Q248 363 252 406Z" fill="#99aab5" />
<path d="M412 235Q405 188 370.0 133.5Q335 79 327 50Q317 14 299.5 -10.0Q282 -34 259.0 -45.0Q236 -56 215.5 -60.0Q195 -64 171 -64Q142 -64 126.5 -54.0Q111 -44 105.0 -22.0Q99 0 97.0 24.5Q95 49 89.0 89.0Q83 129 71 164Q54 215 49.5 254.0Q45 293 53.0 327.5Q61 362 90.5 385.5Q120 409 171 420Q237 434 296.5 416.0Q356 398 390.0 350.0Q424 302 412 235Z" fill="#af7e57" />
<path d="M341 360Q384 324 384 263Q384 235 377.5 213.0Q371 191 364.0 180.5Q357 170 344 153Q331 136 325 127Q321 121 313 121Q309 121 305 123Q293 131 301 143Q308 153 321 170Q334 186 339.5 195.0Q345 204 350.5 222.0Q356 240 356 263Q356 310 323 338Q299 357 263.0 364.0Q227 371 188 363Q148 355 130 326Q113 299 113 255Q160 267 188.5 252.0Q217 237 226 208Q235 177 220.0 143.5Q205 110 172 99Q153 94 148 83Q146 78 149 72Q155 59 143 52Q140 51 136 51Q128 51 124 59Q114 78 122 95Q132 118 164 126Q184 133 194.0 156.0Q204 179 198 200Q185 244 117 227Q117 227 116.0 227.0Q115 227 115 227Q116 215 118 208Q120 202 116.5 197.0Q113 192 107.5 190.5Q102 189 97.0 192.0Q92 195 91 201Q88 211 85.5 227.0Q83 243 86.5 279.5Q90 316 106 341Q131 381 182 391Q227 400 269.5 391.5Q312 383 341 360Z" fill="#90603e" />
<path d="M106.0 142.0Q85 163 85.0 192.0Q85 221 106.0 242.0Q127 263 156.5 263.0Q186 263 207.0 242.0Q228 221 228.0 192.0Q228 163 207.0 142.0Q186 121 156.5 121.0Q127 121 106.0 142.0Z" fill="#66757f" />
<path d="M126.5 161.5Q114 174 114.0 192.0Q114 210 126.5 222.5Q139 235 156.5 235.0Q174 235 186.5 222.5Q199 210 199.0 192.0Q199 174 186.5 161.5Q174 149 156.5 149.0Q139 149 126.5 161.5Z" fill="#99aab5" />
<path d="M156 178Q155 178 153 178Q109 188 84.5 223.0Q60 258 65 305Q72 362 122.0 405.0Q172 448 256 448Q262 448 266.0 444.0Q270 440 270.0 434.0Q270 428 266.0 424.0Q262 420 256 420Q183 420 141.0 385.0Q99 350 94 302Q90 270 106.0 242.0Q122 214 160 206Q165 205 168.5 200.0Q172 195 170 189Q168 178 156 178Z" fill="#ccd6dd" />
</g></svg>