<svg xmlns="http://www.w3.org/2000/svg" viewBox="0 0 2048 2048">
<g transform="matrix(1 0 0 -1 0 2048)">
<path d="M455 -64H57V-36Q57 0 82.0 25.0Q107 50 142 50H370Q405 50 430.0 25.0Q455 0 455 -36Z" fill="#e1e8ed" />
<path d="M427 341Q427 297 377.0 266.0Q327 235 256.0 235.0Q185 235 135.0 266.0Q85 297 85.0 341.5Q85 386 135.0 417.0Q185 448 256.0 448.0Q327 448 377.0 417.0Q427 386 427 341Z" fill="#292f33" />
<path d="M194 48V103H318V48Q280 20 256.0 20.0Q232 20 194 48Z" fill="#ffdc5d" />
<path d="M194 79V128H318V79Q296 54 256.0 54.0Q216 54 194 79Z" fill="#f9ca55" />
<path d="M252 372Q258 370 281.5 362.5Q305 355 314.5 351.5Q324 348 343.5 340.5Q363 333 372.0 326.5Q381 320 392.5 310.0Q404 300 408.0 288.5Q412 277 412 264Q405 92 268 92Q236 92 223.5 93.0Q211 94 193.5 102.0Q176 110 163 127Q121 139 115 188Q114 195 110.5 214.5Q107 234 106.0 244.0Q105 254 106.0 268.5Q107 283 113 294Q124 317 166.0 337.5Q208 358 241 359Q251 372 242 377Q259 368 245 374Q248 373 252 372Z" fill="#ffac33" />
<path d="M361 259Q376 238 376 187Q376 138 340.0 101.5Q304 65 254.0 65.0Q204 65 168.0 101.0Q132 137 132 187Q132 228 136 238Q145 267 165 279Q180 289 189.5 299.5Q199 310 201 316L202 322Q209 306 233 292Q245 284 278.5 277.0Q312 270 330 251Q336 243 336 251Q336 252 335 257Q334 264 328.0 273.0Q322 282 315 286Q345 281 361 259Z" fill="#ffdc5d" />
<path d="M268 153H241Q234 153 234.0 160.0Q234 167 241 167H268Q275 167 275.0 160.0Q275 153 268 153ZM256 97Q215 97 203 109Q196 115 203 122Q209 128 216 122Q225 115 256 115Q288 115 296 122Q303 129 309.5 122.0Q316 115 309 109Q297 97 256 97Z" fill="#c1694f" />
<path d="M186 214V228Q186 233 190.0 237.0Q194 241 200.0 241.0Q206 241 210.0 237.0Q214 233 214 228V214Q214 209 210.0 205.0Q206 201 200.0 201.0Q194 201 190.0 205.0Q186 209 186 214ZM295 214V228Q295 233 299.0 237.0Q303 241 308.5 241.0Q314 241 318.0 237.0Q322 233 322 228V214Q322 209 318.0 205.0Q314 201 308.5 201.0Q303 201 299.0 205.0Q295 209 295 214Z" fill="#662113" />
<path d="M121 320Q121 332 160.5 340.0Q200 348 256.0 348.0Q312 348 351.5 340.0Q391 332 391.0 320.0Q391 308 351.5 300.0Q312 292 256.0 292.0Q200 292 160.5 300.0Q121 308 121 320ZM165 35 80 21Q73 20 72 27L70 41Q69 48 76 50L160 63Q167 64 168 57L171 43Q172 36 165 35ZM432 21 347 35Q340 36 341 43L344 57Q345 64 352 63L436 50Q443 48 442 41L440 27Q439 20 432 21Z" fill="#292f33" />
<path d="M391 334H121V383Q127 389 138.5 397.5Q150 406 185.5 420.0Q221 434 256.0 434.0Q291 434 325.0 421.5Q359 409 375 396L391 383Z" fill="#66757f" />
<path d="M213 377Q213 391 217.0 396.0Q221 401 225.5 399.5Q230 398 239.5 394.5Q249 391 256.0 391.0Q263 391 272.5 394.5Q282 398 286.5 399.5Q291 401 295.0 396.0Q299 391 299 377Q299 348 256.0 348.0Q213 348 213 377Z" fill="#ffac33" />
<path d="M236.0 356.5Q228 365 228.0 377.0Q228 389 236.0 397.0Q244 405 256.0 405.0Q268 405 276.0 397.0Q284 389 284.0 377.0Q284 365 276.0 356.5Q268 348 256.0 348.0Q244 348 236.0 356.5ZM391 320H121Q114 320 114.0 327.0Q114 334 121 334H391Q398 334 398.0 327.0Q398 320 391 320ZM83 51 97 53 101 25 87 23ZM111 55 125 57 130 29 115 27ZM139 60 153 62 158 34 144 31ZM354 34 359 62 373 60 368 31ZM382 29 387 57 401 55 397 27ZM411 25 415 53 429 51 425 22Z" fill="#fdcb58" />
<path d="M256 9Q256 9 256 9L200 -30Q199 -31 198.5 -29.0Q198 -27 198.5 -23.0Q199 -19 199.0 -15.0Q199 -11 199.5 -5.5Q200 0 200.5 4.5Q201 9 201.5 13.0Q202 17 202.5 18.5Q203 20 203 21Q203 21 309 21L311 8Q313 -5 314.0 -18.0Q315 -31 314 -31Q304 -27 256 9Z" fill="#99aab5" />
<path d="M275 -28Q275 -28 275 -28L277 -32Q280 -36 284.0 -45.0Q288 -54 289 -64Q289 -64 223 -64Q227 -36 238 -28Q238 -28 230 -15Q228 -10 223 8Q223 8 252 20L251 19L250 20L253 21H255Q257 21 258 21Q258 21 289 8L282 -15Q280 -19 275 -28Z" fill="#292f33" />
<path d="M189 69Q193 66 209.5 54.0Q226 42 241 31L256 21Q226 3 198 -29Q197 -31 191.5 -13.5Q186 4 181.0 24.5Q176 45 175 52Q175 54 177.5 59.0Q180 64 183.5 67.5Q187 71 189 69ZM323 69Q323 69 323 69Q325 71 328.5 67.5Q332 64 334.5 59.0Q337 54 337 52Q337 45 332.0 24.5Q327 4 321.5 -13.5Q316 -31 314 -29Q287 3 256 21Q256 21 271 31Q286 42 303.0 54.0Q320 66 323 69Z" fill="#f5f8fa" />
<path d="M256 12Q261 12 269.5 5.5Q278 -1 276 -6Q275 -14 273.0 -18.5Q271 -23 268.5 -24.5Q266 -26 265.0 -26.5Q264 -27 261.0 -26.5Q258 -26 257 -26Q256 -26 251.5 -26.5Q247 -27 245.5 -26.0Q244 -25 241.5 -20.5Q239 -16 237 -7Q236 -3 243.0 4.0Q250 11 256 12ZM285 -64H228Q229 -61 230.5 -55.5Q232 -50 239.5 -41.5Q247 -33 256.5 -33.0Q266 -33 273.0 -41.0Q280 -49 283 -56L285 -64Z" fill="#323a3f" />
</g></svg>