<svg xmlns="http://www.w3.org/2000/svg" viewBox="0 0 2048 2048">
<g transform="matrix(1 0 0 -1 0 2048)">
<path d="M353 438Q379 429 392.5 398.5Q406 368 400.0 335.5Q394 303 368 291Q317 268 280 276Q262 280 245.5 281.0Q229 282 221 281L212 280Q215 279 220.0 276.5Q225 274 238.0 265.5Q251 257 262.0 247.0Q273 237 284.5 221.5Q296 206 303 190Q311 168 316.5 138.5Q322 109 328.5 90.5Q335 72 349 60Q368 41 375.5 22.5Q383 4 372 -11Q362 -22 332.0 -24.5Q302 -27 285 -47Q275 -58 256.5 -61.0Q238 -64 220.0 -60.5Q202 -57 184 -49Q149 -33 190 -20Q201 -17 211 -16Q231 -14 253.5 9.5Q276 33 258 63Q190 174 97 242Q70 262 68.5 295.5Q67 329 95 363Q127 401 227 430Q307 453 353 438Z" fill="#f7dece" />
<path d="M118 262 117 263Q107 268 112 278Q129 309 119 336Q115 346 125.0 350.0Q135 354 139 344Q154 308 132 267Q127 258 118 262Z" fill="#e0aa94" />
</g></svg>