<svg xmlns="http://www.w3.org/2000/svg" viewBox="0 0 2048 2048">
<g transform="matrix(1 0 0 -1 0 2048)">
<path d="M512 -64H114V-36Q114 0 139.0 25.0Q164 50 199 50H427Q462 50 487.0 25.0Q512 0 512 -36Z" fill="#e1e8ed" />
<path d="M424 48Q424 49 444 48V34Q442 10 406.0 -2.0Q370 -14 313 -14Q256 -14 219.5 -2.0Q183 10 182 34V48L192 50H202Q202 50 202 48Q202 33 234.5 23.0Q267 13 313.0 13.0Q359 13 391.5 23.5Q424 34 424 48Z" fill="#ea596e" />
<path d="M220.5 14.5Q182 29 182.0 49.0Q182 69 220.5 83.5Q259 98 313.0 98.0Q367 98 405.5 83.5Q444 69 444.0 49.0Q444 29 405.5 14.5Q367 0 313.0 0.0Q259 0 220.5 14.5Z" fill="#be1931" />
<path d="M391.5 24.0Q359 14 313.0 14.0Q267 14 234.5 24.0Q202 34 202.0 48.5Q202 63 234.5 73.5Q267 84 313.0 84.0Q359 84 391.5 73.5Q424 63 424.0 48.5Q424 34 391.5 24.0Z" fill="#292f33" />
<path d="M251 51V105H375V51Q345 29 312.5 29.0Q280 29 251 51Z" fill="#af7e57" />
<path d="M251 79V128H375V79Q353 54 313.0 54.0Q273 54 251 79Z" fill="#9b6a49" />
<path d="M364 398Q416 381 443.5 345.5Q471 310 469 261Q462 90 325 90Q293 90 280.5 91.0Q268 92 250.5 99.5Q233 107 220 124Q178 137 172 185Q170 197 164.5 219.0Q159 241 158.0 252.5Q157 264 159 295Q163 331 193.0 357.0Q223 383 256 384Q267 398 305.5 402.0Q344 406 364 398Z" fill="#60352a" />
<path d="M418 256Q433 236 433 185Q433 135 397.0 99.0Q361 63 311.0 63.0Q261 63 225.0 99.0Q189 135 189 185Q189 225 192 236Q202 264 221 277Q237 286 246.5 297.0Q256 308 258 314L259 320Q266 304 289 289Q302 282 335.5 274.5Q369 267 387 248Q393 241 393 248Q392 250 392 255Q391 262 384.5 271.0Q378 280 372 283Q402 279 418 256Z" fill="#af7e57" />
<path d="M325 151H298Q291 151 291.0 157.5Q291 164 298 164H325Q331 164 331.0 157.5Q331 151 325 151ZM313 94Q272 94 260 106Q253 113 260 119Q266 126 273 120Q282 113 313 113Q345 113 353 120Q360 126 366.5 119.5Q373 113 366 106Q354 94 313 94Z" fill="#915a34" />
<path d="M243 212V225Q243 231 247.0 235.0Q251 239 256.5 239.0Q262 239 266.0 235.0Q270 231 270 225V212Q270 206 266.0 202.0Q262 198 256.5 198.0Q251 198 247.0 202.0Q243 206 243 212ZM352 212V225Q352 231 356.0 235.0Q360 239 365.5 239.0Q371 239 375.0 235.0Q379 231 379 225V212Q379 206 375.0 202.0Q371 198 365.5 198.0Q360 198 356.0 202.0Q352 206 352 212Z" fill="#662113" />
<path d="M469 -21H511Q512 -29 512 -36V-64H469Z" fill="#55acee" />
<path d="M484 -36H512V-64H484Z" fill="#ffcc4d" />
<path d="M341 -64H4Q17 -9 64.0 27.5Q111 64 172.5 64.0Q234 64 281.0 27.5Q328 -9 341 -64Z" fill="#e1e8ed" />
<path d="M322 -64H23Q36 -16 77.5 15.5Q119 47 172.5 47.0Q226 47 268.0 15.5Q310 -16 322 -64Z" fill="#292f33" />
<path d="M308 -64H38Q50 -22 87.5 5.5Q125 33 173.0 33.0Q221 33 258.0 5.5Q295 -22 308 -64Z" fill="#ffac33" />
<path d="M259 -50Q245 -59 234 -48Q221 -34 202 -27Q187 -21 190 -4Q192 5 200.0 9.5Q208 14 217 11Q231 7 242 -1Q254 -8 265 -19Q271 -25 269.5 -35.0Q268 -45 260 -50Z" fill="#ffdc5d" />
<path d="M90 245Q96 243 96.0 236.5Q96 230 90 227L68 219L60 185Q58 178 50.5 178.0Q43 178 41 185L33 219L11 227Q5 230 5.0 236.5Q5 243 11 245L33 253L41 285Q43 292 50.5 292.0Q58 292 60 285L68 253Z" fill="#9266cc" />
<path d="M160 382Q171 378 171.0 367.0Q171 356 160 353L123 339L110 302Q106 292 95.0 292.0Q84 292 80 302L66 339L29 353Q19 356 19.0 367.0Q19 378 29 382L66 396L80 433Q84 443 95.0 443.0Q106 443 110 433L123 396Z" fill="#5dadec" />
</g></svg>