<svg xmlns="http://www.w3.org/2000/svg" viewBox="0 0 512 512">
<g transform="matrix(1 0 0 -1 0 512)">
<path d="M455 165Q455 143 445.5 126.5Q436 110 422 109Q409 39 363.5 -1.0Q318 -41 256.0 -41.0Q194 -41 148.5 -1.0Q103 39 90 109Q76 110 66.5 126.5Q57 143 57 165Q57 189 67.5 205.5Q78 222 92 222H93Q109 290 154.0 333.5Q199 377 256.0 377.0Q313 377 358.0 333.5Q403 290 419 222H420Q434 222 444.5 205.5Q455 189 455 165Z" fill="#af7e57" />
<path d="M469 268Q469 249 453 238Q461 227 456.5 212.5Q452 198 438 198Q432 175 423 176Q417 176 417 196Q417 212 409 233Q391 220 363 220Q343 220 327.0 227.5Q311 235 306 248Q291 233 256 233Q236 233 220.0 242.5Q204 252 200 266Q187 256 164 250Q132 240 109 248Q94 217 93 191Q93 175 85 176Q75 178 74 196Q74 197 74 199Q59 201 55.0 214.5Q51 228 59 238Q43 249 43 268Q43 288 59 298Q57 304 57 311Q57 324 66.0 334.0Q75 344 88 346Q85 353 85 361Q85 378 97.5 390.5Q110 403 128 403Q136 403 144 400Q148 414 159.0 423.0Q170 432 185 432Q203 432 216 418Q221 430 231.5 438.0Q242 446 256.0 446.0Q270 446 280.5 438.0Q291 430 296 418Q309 432 327 432Q342 432 353.0 423.0Q364 414 368 400Q376 403 384 403Q402 403 414.5 390.5Q427 378 427 361Q427 353 424 346Q437 344 446.0 334.0Q455 324 455 311Q455 304 453 298Q469 288 469 268Z" fill="#60352a" />
<path d="M203 26Q193 36 203.0 46.0Q213 56 223 46Q234 36 256 36Q277 36 289 46Q299 55 309.0 45.0Q319 35 309 26Q290 7 256.0 7.0Q222 7 203 26ZM270 78H242Q236 78 232.0 82.5Q228 87 228.0 92.5Q228 98 232.0 102.5Q236 107 242 107H270Q276 107 280.0 102.5Q284 98 284.0 92.5Q284 87 280.0 82.5Q276 78 270 78Z" fill="#915a34" />
<path d="M171 149V178Q171 184 175.0 188.0Q179 192 185.0 192.0Q191 192 195.0 188.0Q199 184 199 178V149Q199 143 195.0 139.0Q191 135 185.0 135.0Q179 135 175.0 139.0Q171 143 171 149ZM313 149V178Q313 184 317.0 188.0Q321 192 327.0 192.0Q333 192 337.0 188.0Q341 184 341 178V149Q341 143 337.0 139.0Q333 135 327.0 135.0Q321 135 317.0 139.0Q313 143 313 149Z" fill="#662113" />
</g></svg>