<svg xmlns="http://www.w3.org/2000/svg" viewBox="0 0 512 512">
<g transform="matrix(1 0 0 -1 0 512)">
<path d="M512 -64H114V-36Q114 0 139.0 25.0Q164 50 199 50H427Q462 50 487.0 25.0Q512 0 512 -36Z" fill="#e1e8ed" />
<path d="M313 -64 242 50H384Z" fill="#226699" />
<path d="M251 49V103H375V49Q375 36 344.0 30.5Q313 25 282.0 30.5Q251 36 251 49Z" fill="#f7dece" />
<path d="M251 79V128H375V79Q353 54 313.0 54.0Q273 54 251 79Z" fill="#eec2ad" />
<path d="M329 349Q448 310 453 250Q457 180 425.5 136.5Q394 93 327 93Q294 93 282.0 93.5Q270 94 252.5 102.0Q235 110 222 127Q180 139 173 188Q173 190 172.0 199.0Q171 208 170.5 210.0Q170 212 169.5 219.5Q169 227 169.0 229.5Q169 232 169.5 239.0Q170 246 171.5 250.0Q173 254 174.5 260.5Q176 267 179.0 271.5Q182 276 186.0 282.5Q190 289 194 295Q218 327 260.5 353.5Q303 380 334 380L336 386Q324 377 321 363Q319 352 329 349Z" fill="#292f33" />
<path d="M420 259Q435 239 435 187Q435 138 399.0 101.5Q363 65 313.0 65.0Q263 65 227.0 101.5Q191 138 191 187Q191 228 194 238Q204 267 223 279Q239 289 248.5 300.0Q258 311 259 317L261 322Q268 306 291 292Q303 285 324.5 279.0Q346 273 363.5 264.0Q381 255 394 237Q399 230 400 241Q400 247 399 253Q398 259 389.5 271.0Q381 283 374 286Q404 282 420 259Z" fill="#f7dece" />
<path d="M327 154H299Q293 154 293.0 160.5Q293 167 299 167H327Q333 167 333.0 160.5Q333 154 327 154ZM315 97Q273 97 262 109Q255 116 262 122Q268 128 274 122Q284 116 315 116Q347 116 355 123Q362 129 368.5 122.5Q375 116 368 109Q356 97 315 97Z" fill="#c1694f" />
<path d="M245 215V228Q245 234 249.0 238.0Q253 242 258.5 242.0Q264 242 268.0 238.0Q272 234 272 228V215Q272 209 268.0 205.0Q264 201 258.5 201.0Q253 201 249.0 205.0Q245 209 245 215ZM354 215V228Q354 234 358.0 238.0Q362 242 367.5 242.0Q373 242 377.0 238.0Q381 234 381 228V215Q381 209 377.0 205.0Q373 201 367.5 201.0Q362 201 358.0 205.0Q354 209 354 215Z" fill="#662113" />
<path d="M443 277Q406 263 313 263Q271 263 238.5 266.5Q206 270 194 274L182 277V363H443Z" fill="#ccd6dd" />
<path d="M228 288Q228 281 220.5 281.0Q213 281 213 288V331Q213 338 220.5 338.0Q228 338 228 331ZM412 288Q412 281 405.0 281.0Q398 281 398 288V331Q398 338 405.0 338.0Q412 338 412 331ZM270 282Q270 275 263.0 275.0Q256 275 256 282V325Q256 332 263.0 332.0Q270 332 270 325ZM320 281Q320 274 313.0 274.0Q306 274 306 281V324Q306 331 313.0 331.0Q320 331 320 324ZM370 282Q370 275 363.0 275.0Q356 275 356 282V325Q356 332 363.0 332.0Q370 332 370 325ZM142 96Q142 61 124.0 41.0Q106 21 78.0 21.0Q50 21 32.0 41.0Q14 61 14 96Q14 134 33.5 166.5Q53 199 78.5 199.0Q104 199 123.0 166.5Q142 134 142 96Z" fill="#99aab5" />
<path d="M402 448Q439 448 465.0 422.0Q491 396 491 359Q491 313 312 313Q135 313 135 359Q135 396 161.0 422.0Q187 448 224 448Q247 448 268 436Q288 448 312 448Q336 448 357 436Q378 448 402 448Z" fill="#e1e8ed" />
<path d="M64 50H92V-64H64Z" fill="#99aab5" />
<path d="M142 96Q142 61 124.0 41.0Q106 21 78.0 21.0Q50 21 32.0 41.0Q14 61 14 96Q14 134 33.5 166.5Q53 199 78.5 199.0Q104 199 123.0 166.5Q142 134 142 96Z" fill="#c1694f" />
<path d="M64 50H92V-64H64Z" fill="#c1694f" />
<path d="M212 384Q205 386 206 393Q212 418 230 432Q238 438 250 444Q260 441 268 436Q251 430 239 421Q225 410 220 390Q219 384 213 384Q213 384 212 384ZM385 421Q374 429 357 436Q365 441 375 444Q386 438 393 432Q412 418 417 392Q419 386 412 384Q411 384 410 384Q405 384 403 389Q399 409 385 421Z" fill="#ccd6dd" />
</g></svg>