<svg xmlns="http://www.w3.org/2000/svg" viewBox="0 0 512 512">
<g transform="matrix(1 0 0 -1 0 512)">
<path d="M25 222Q59 282 112 307Q135 317 153.5 343.5Q172 370 184.5 400.0Q197 430 201 435Q212 448 225.5 447.0Q239 446 249.0 430.5Q259 415 256 395Q252 367 234.5 339.5Q217 312 216 309Q206 285 238 283Q337 276 341 259Q344 250 334.0 233.0Q324 216 312.5 197.0Q301 178 293.0 156.5Q285 135 292.5 111.0Q300 87 327 67Q451 43 475 40Q496 37 502.5 21.0Q509 5 498.0 -8.5Q487 -22 466 -20Q458 -19 426.0 -14.5Q394 -10 372.0 -7.5Q350 -5 324.5 -6.0Q299 -7 288 -14Q273 -23 243.0 -29.0Q213 -35 167.5 -30.0Q122 -25 83 -3Q42 20 21.0 59.0Q0 98 2.0 141.0Q4 184 25 222Z" fill="#7c533e" />
<path d="M201 80Q173 85 163.0 105.5Q153 126 165.5 143.5Q178 161 204 159Q279 153 350 137Q370 132 375.0 112.5Q380 93 368.0 76.0Q356 59 334 62Q328 63 298.5 66.0Q269 69 245.0 72.0Q221 75 201 80Z" fill="#583529" />
<path d="M207 93Q183 98 177.0 113.5Q171 129 183.0 141.5Q195 154 217 153Q268 150 353 137Q375 133 379.5 116.5Q384 100 372.5 85.5Q361 71 344 73Q334 75 304.0 78.5Q274 82 248.5 85.5Q223 89 207 93Z" fill="#7c533e" />
<path d="M188 135Q168 135 154.5 143.5Q141 152 137.5 164.0Q134 176 136.0 188.0Q138 200 148.5 209.5Q159 219 174 221Q206 222 232.5 221.0Q259 220 298.5 217.0Q338 214 340 214Q359 213 366.0 195.0Q373 177 364.5 159.0Q356 141 336 140Q227 135 188 135Z" fill="#583529" />
<path d="M186 148Q165 147 155.5 161.5Q146 176 153.5 192.0Q161 208 183 210Q234 215 347 213Q364 212 370.0 197.0Q376 182 367.0 167.0Q358 152 337 151Q321 150 263.0 149.5Q205 149 186 148Z" fill="#7c533e" />
<path d="M182 196Q152 192 138.5 211.0Q125 230 132.5 250.5Q140 271 162 274Q196 277 215.5 276.0Q235 275 247.5 273.0Q260 271 261 272Q331 288 341 259Q346 245 337.5 229.0Q329 213 313 211Q293 208 242.0 202.5Q191 197 182 196Z" fill="#583529" />
<path d="M184 208Q164 207 152.5 220.0Q141 233 147.0 249.0Q153 265 175 269Q233 281 310 284Q329 285 338.5 271.0Q348 257 341.0 241.0Q334 225 314 222Q274 215 184 208Z" fill="#7c533e" />
</g></svg>