<svg xmlns="http://www.w3.org/2000/svg" viewBox="0 0 512 512">
<g transform="matrix(1 0 0 -1 0 512)">
<path d="M414 6Q414 3 414.5 -1.0Q415 -5 420.5 -9.5Q426 -14 437 -10Q441 -23 441 -36V-64H71V-36Q71 0 96.0 25.0Q121 50 156 50H356Q367 50 378 47Q374 39 376.5 32.0Q379 25 387 24Q381 13 392 6Q397 3 402.0 3.0Q407 3 411 5Z" fill="#3b88c3" />
<path d="M369 -26Q373 -24 375.0 -33.5Q377 -43 377 -54V-64H357Q367 -54 369 -26ZM94 -35Q94 -35 103.0 -19.5Q112 -4 121 -1Q127 2 134.0 4.0Q141 6 148.5 6.5Q156 7 161.0 5.0Q166 3 166 -2Q166 -9 157.5 -25.0Q149 -41 151 -45Q135 -53 103 -45Q86 -41 94 -35Z" fill="#662113" />
<path d="M103 -33Q103 -32 110.5 -19.0Q118 -6 126 -2Q133 1 139.0 2.5Q145 4 151.5 5.5Q158 7 162.0 5.0Q166 3 166 -2Q165 -18 134 -33Q113 -43 101 -39Q97 -38 103 -33ZM199 50H313L256 -21L199 50Z" fill="#ccd6dd" />
<path d="M422 138Q428 131 421 131Q417 131 414 133Q412 135 409 137Q408 118 406 104Q405 88 411 70Q412 66 409 66Q406 66 403 68Q400 70 397 75Q390 63 373 63Q362 63 325.0 72.0Q288 81 255.0 81.0Q222 81 181.0 66.5Q140 52 129 52Q102 52 100 153Q99 152 95 144Q93 141 91.0 139.0Q89 137 87.5 138.0Q86 139 86 145Q87 151 93.0 166.0Q99 181 99 190Q99 192 99 193Q99 204 99 207Q99 243 110.0 271.5Q121 300 137.5 317.0Q154 334 175.5 344.5Q197 355 216.5 359.0Q236 363 255.5 363.0Q275 363 294.0 359.0Q313 355 335.0 344.5Q357 334 373.0 317.0Q389 300 400.0 271.5Q411 243 411 207Q411 195 411 179Q411 178 411 176Q411 169 414.0 156.0Q417 143 422 138Z" fill="#292f33" />
<path d="M206 42V101H306V42Q289 28 256 28Q225 28 206 42Z" fill="#ccd6dd" />
<path d="M206 77V119H306V77Q288 56 256.0 56.0Q224 56 206 77Z" fill="#99aab5" />
<path d="M139 212Q139 274 173.0 318.0Q207 362 255.5 362.0Q304 362 338.0 318.0Q372 274 372 212Q372 150 338.0 108.0Q304 66 255.5 66.0Q207 66 173.0 108.0Q139 150 139 212Z" fill="#ccd6dd" />
<path d="M255 129Q279 129 291 117Q298 110 291.0 103.0Q284 96 278 103Q270 110 255.0 110.0Q240 110 233 103Q226 96 219.0 103.0Q212 110 219 117Q232 129 255 129Z" fill="#66757f" />
<path d="M408 304Q395 304 388 304Q411 264 411 210Q411 193 411 165H401V172V171V172Q401 188 396.5 190.5Q392 193 386.5 188.0Q381 183 376.5 184.0Q372 185 372 198Q372 225 349.0 240.5Q326 256 294 256Q274 256 247 266Q248 259 246.0 252.5Q244 246 242.5 244.0Q241 242 238 244Q237 246 235.5 253.5Q234 261 230.0 268.0Q226 275 219 278V279L207 286Q197 276 188 267Q176 254 173 238Q172 232 168 234Q166 236 166 240Q166 241 165 246Q155 238 151.0 234.5Q147 231 142.5 221.5Q138 212 138 199Q138 188 133.5 187.0Q129 186 123.5 190.5Q118 195 113.5 191.5Q109 188 109 171Q110 173 110 171Q110 169 110 165H100Q99 173 99 211Q99 243 108 272Q105 271 97.0 271.0Q89 271 89 271Q86 271 85 272Q83 275 88 277Q89 277 90 277Q94 278 101.0 285.0Q108 292 117.0 302.5Q126 313 129 316Q129 316 129.5 316.0Q130 316 130 317Q157 355 202 373Q195 382 188 383Q181 384 187 389Q188 390 190 390Q207 392 231 383Q233 383 236 383Q258 385 282 398Q287 400 287 398Q287 395 285 392Q282 387 276 382Q330 373 367 333Q376 325 389.5 318.5Q403 312 408 312Q414 312 414.0 308.5Q414 305 408 304Z" fill="#292f33" />
<path d="M232 182 223 172Q215 164 203.0 164.0Q191 164 183.0 172.0Q175 180 175.0 192.0Q175 204 183 212L193 221Q201 229 212.5 229.0Q224 229 232.0 221.0Q240 213 240.0 201.5Q240 190 232 182ZM289 172 280 182Q271 190 271.0 201.5Q271 213 279.5 221.0Q288 229 299.5 229.0Q311 229 319 221L328 212Q337 204 337.0 192.0Q337 180 328.5 172.0Q320 164 308.5 164.0Q297 164 289 172Z" fill="#99aab5" />
<path d="M214 187H202Q197 187 193.5 190.5Q190 194 190.0 199.0Q190 204 193.5 207.5Q197 211 202 211H214Q219 211 222.5 207.5Q226 204 226.0 199.0Q226 194 222.5 190.5Q219 187 214 187ZM322 199Q322 194 318.5 190.5Q315 187 310 187H298Q293 187 289.5 190.5Q286 194 286.0 199.0Q286 204 289.5 207.5Q293 211 298 211H310Q315 211 318.5 207.5Q322 204 322 199Z" fill="#662113" />
<path d="M261 150V158Q261 165 267.5 165.0Q274 165 274 158V150Q274 144 267.5 144.0Q261 144 261 150ZM238 150V158Q238 165 244.5 165.0Q251 165 251 158V150Q251 144 244.5 144.0Q238 144 238 150Z" fill="#99aab5" />
<path d="M156.0 221.0Q163 210 163.0 194.5Q163 179 156.0 168.0Q149 157 139.5 157.0Q130 157 123.0 168.0Q116 179 116.0 194.5Q116 210 123.0 221.0Q130 232 139.5 232.0Q149 232 156.0 221.0ZM396 194Q396 179 389.0 168.0Q382 157 372.5 157.0Q363 157 356.0 168.0Q349 179 349.0 194.5Q349 210 356.0 221.0Q363 232 372.5 232.0Q382 232 389.0 221.0Q396 210 396 194Z" fill="#ccd6dd" />
</g></svg>