<svg xmlns="http://www.w3.org/2000/svg" viewBox="0 0 512 512">
<g transform="matrix(1 0 0 -1 0 512)">
<path d="M238 260Q244 259 251.5 255.5Q259 252 263 249L267 246Q266 229 248 195Q245 190 241.5 175.0Q238 160 236 147L235 134V106H118Q120 117 118 134Q111 184 105 195Q87 229 86 246Q90 250 96 253Q106 259 115 260L176 261Q208 261 238 260Z" fill="#f3d2a2" />
<path d="M213 187Q197 187 184 193Q181 194 182.5 197.5Q184 201 187 199Q206 191 228 196Q231 197 232.0 193.5Q233 190 230 189Q222 187 213 187ZM137 187Q129 187 121 189Q118 190 118.5 193.5Q119 197 123 196Q145 191 163 199Q166 201 167.5 197.5Q169 194 166 193Q154 187 137 187Z" fill="#d2a077" />
<path d="M409 85Q415 90 424.5 98.5Q434 107 461.0 120.0Q488 133 511 131Q500 123 492 114Q478 99 466.0 70.5Q454 42 440 32Q426 23 387.0 54.5Q348 86 359 99Q385 132 390 163Q394 179 395 187Q397 184 399.5 180.0Q402 176 407.0 163.0Q412 150 415.0 138.0Q418 126 417.0 111.0Q416 96 409 85ZM364 41 386 19Q378 2 355.5 -16.0Q333 -34 299.5 -48.5Q266 -63 219.0 -62.5Q172 -62 124 -41Q86 -24 67.0 12.0Q48 48 59.5 77.0Q71 106 108 106L217 21Q226 13 247.0 8.5Q268 4 301.5 10.5Q335 17 364 41Z" fill="#184f87" />
<path d="M396 66Q401 71 410.0 78.5Q419 86 444.5 99.0Q470 112 492 114Q478 98 467.5 70.0Q457 42 442 32Q421 18 391 22Q381 5 356.5 -11.0Q332 -27 297.5 -39.0Q263 -51 216.5 -49.0Q170 -47 124 -27Q74 -5 60 42Q46 87 77 105Q90 113 108 113H210Q230 113 244.5 99.0Q259 85 259 65Q259 34 230 21Q245 14 262.5 12.0Q280 10 306.0 16.5Q332 23 356 42Q349 55 348.0 70.0Q347 85 356 102Q386 139 390 163Q397 150 401.0 135.0Q405 120 405.0 100.0Q405 80 396 66Z" fill="#4292e0" />
<path d="M231 21Q198 28 128 60Q123 62 125.5 67.0Q128 72 133 70Q206 36 243 29Q240 27 238 25Z" fill="#184f87" />
<path d="M106 201Q94 194 82.5 185.0Q71 176 65.5 171.0Q60 166 58 164Q53 156 55 131Q58 97 63 89Q67 84 63 72Q60 65 63 35Q62 31 61 31Q45 42 46 67Q46 72 42 83Q42 83 40.0 88.5Q38 94 35.0 101.0Q32 108 29.0 116.5Q26 125 23.0 133.0Q20 141 19 146Q15 164 24 178Q50 219 69 234Q88 249 96 253Q110 261 113 238Q116 209 106 201ZM432 297Q435 297 435.0 294.0Q435 291 433.5 284.0Q432 277 432 276Q429 263 422 250Q420 246 416.0 242.0Q412 238 407.0 234.0Q402 230 401 229Q400 227 376.0 198.5Q352 170 349 167Q332 152 318 159Q302 166 276.0 181.0Q250 196 241 206Q233 214 227.5 231.5Q222 249 229 258Q252 255 268 245Q277 240 286.0 233.0Q295 226 299.5 221.5Q304 217 309.5 211.0Q315 205 315 205Q318 203 320.5 202.5Q323 202 327.0 204.0Q331 206 333.5 208.0Q336 210 341.5 214.5Q347 219 350 221Q356 225 365.5 232.0Q375 239 381.0 243.5Q387 248 388 249L390 252Q389 263 395 273Q397 278 401.5 281.0Q406 284 408 280Q408 278 406 276Q402 274 402 270Q402 270 403.0 270.0Q404 270 404.5 270.5Q405 271 408 272Q411 275 413.5 280.0Q416 285 417.5 288.0Q419 291 421 291Q422 291 423 290Q425 297 427 297Q429 297 429 293Q431 296 432 297ZM150 302H203V249Q203 238 195.0 230.0Q187 222 176.0 222.0Q165 222 157.5 230.0Q150 238 150 249Z" fill="#f3d2a2" />
<path d="M203 315V262Q191 256 178.0 256.0Q165 256 157 259L150 262V315Z" fill="#e2c196" />
<path d="M243 381V328Q243 301 223.5 281.5Q204 262 176.5 262.0Q149 262 129.5 281.5Q110 301 110 328V393Z" fill="#f3d2a2" />
<path d="M203 288Q203 287 202.0 284.5Q201 282 194.5 278.5Q188 275 176.5 275.0Q165 275 158.0 278.5Q151 282 151 285L150 288ZM163 315H190Q190 302 176 302Q171 302 167.5 305.0Q164 308 164 312Z" fill="#c1694f" />
<path d="M143.5 328.0Q137 328 137.0 334.5Q137 341 143.5 341.0Q150 341 150.0 334.5Q150 328 143.5 328.0ZM209.5 328.0Q203 328 203.0 334.5Q203 341 209.5 341.0Q216 341 216.0 334.5Q216 328 209.5 328.0Z" fill="#662113" />
<path d="M176 434Q209 434 229.5 414.5Q250 395 250 372Q250 337 243 340Q241 341 239 344L228 366Q193 366 182 378Q182 378 186 364Q185 358 165 378Q165 378 164 370Q159 365 137 383Q120 372 114 344Q112 337 108 345Q102 353 102 372Q102 396 121.5 415.0Q141 434 176 434Z" fill="#4292e0" />
</g></svg>