<svg xmlns="http://www.w3.org/2000/svg" viewBox="0 0 512 512">
<g transform="matrix(1 0 0 -1 0 512)">
<path d="M370 76H427V-64H85V64H370Z" fill="#fa743e" />
<path d="M197 64V121L296 119L297 64Q296 61 293.0 56.0Q290 51 277.5 43.0Q265 35 248.0 35.0Q231 35 218.0 42.0Q205 49 201 57Z" fill="#af7e57" />
<path d="M197 92V142H296V92Q278 71 247.0 71.0Q216 71 197 92Z" fill="#9b6a49" />
<path d="M293 371Q338 356 361.5 325.5Q385 295 383 252Q378 104 259 104Q231 104 220.0 105.0Q209 106 194.0 112.5Q179 119 168 134Q132 145 126 187Q125 197 120.5 216.0Q116 235 115.0 245.0Q114 255 115 282Q119 313 145.0 335.5Q171 358 199 358Q209 371 242.5 374.5Q276 378 293 371Z" fill="#60352a" />
<path d="M340 248Q353 231 353 186Q353 143 322.0 112.0Q291 81 247.0 81.0Q203 81 172.0 112.0Q141 143 141 186Q141 221 144 230Q152 255 169 266Q183 274 191.0 283.5Q199 293 201 298L202 303Q208 289 228 277Q239 270 268.0 264.0Q297 258 312 241Q317 236 317 239Q318 240 317 247Q316 253 310.5 261.0Q305 269 299 271Q326 268 340 248Z" fill="#af7e57" />
<path d="M201 123Q195 129 201 135Q206 141 212 135Q220 129 247 129Q275 129 282 135Q288 141 293.5 135.0Q299 129 293 123Q283 113 247.0 113.0Q211 113 201 123ZM259 157H235Q229 157 229.0 163.0Q229 169 235 169H259Q265 169 265.0 163.0Q265 157 259 157Z" fill="#915a34" />
<path d="M188 210V221Q188 226 191.5 229.5Q195 233 200.0 233.0Q205 233 208.5 229.5Q212 226 212 221V210Q212 205 208.5 201.5Q205 198 200.0 198.0Q195 198 191.5 201.5Q188 205 188 210ZM282 210V221Q282 226 285.5 229.5Q289 233 294.0 233.0Q299 233 302.5 229.5Q306 226 306 221V210Q306 205 302.5 201.5Q299 198 294.0 198.0Q289 198 285.5 201.5Q282 205 282 210Z" fill="#662113" />
<path d="M84 246Q82 245 78.0 243.5Q74 242 64.5 234.5Q55 227 47.0 218.0Q39 209 32.0 193.0Q25 177 24 157Q23 160 20.5 165.0Q18 170 13.5 186.0Q9 202 7.0 218.5Q5 235 7.0 258.0Q9 281 16 302ZM285 363Q284 365 281.0 367.5Q278 370 267.5 376.5Q257 383 245.5 386.5Q234 390 216.5 390.0Q199 390 180 384Q182 387 186.0 390.5Q190 394 203.0 404.5Q216 415 230.0 423.0Q244 431 266.0 438.0Q288 445 311 447ZM416 216Q417 218 419.0 221.5Q421 225 423.5 237.0Q426 249 426.0 260.5Q426 272 420.5 289.0Q415 306 403 322Q406 321 411.0 318.5Q416 316 430.0 307.0Q444 298 456.0 287.0Q468 276 481.5 257.5Q495 239 504 218Z" fill="#d1d3d4" />
<path d="M30.5 256.5Q16 271 16.0 291.5Q16 312 30.5 327.0Q45 342 65.5 342.0Q86 342 100.5 327.0Q115 312 115.0 291.5Q115 271 100.5 256.5Q86 242 65.5 242.0Q45 242 30.5 256.5Z" fill="#5c913b" />
<path d="M285.0 363.0Q270 378 270.0 398.5Q270 419 285.0 433.5Q300 448 320.5 448.0Q341 448 355.5 433.5Q370 419 370.0 398.5Q370 378 355.5 363.0Q341 348 320.5 348.0Q300 348 285.0 363.0Z" fill="#be1931" />
<path d="M425.5 158.5Q411 173 411.0 194.0Q411 215 425.5 229.5Q440 244 460.5 244.0Q481 244 496.0 229.5Q511 215 511.0 194.0Q511 173 496.0 158.5Q481 144 460.5 144.0Q440 144 425.5 158.5Z" fill="#3b88c3" />
<path d="M464 114Q466 104 458 99Q458 97 458 97H451L447 96Q447 87 440.5 81.0Q434 75 426 75H371V97Q371 106 377.5 112.5Q384 119 393 119H418L448 125Q453 126 458.0 123.0Q463 120 464 114ZM49 61Q50 66 55.0 69.5Q60 73 65 72L95 66H120Q129 66 135.5 59.5Q142 53 142 43V21H88Q79 21 72.5 27.5Q66 34 66 43H62H55Q55 44 55 46Q47 51 49 61Z" fill="#9b6a49" />
<path d="M513 108Q513 105 510.0 102.5Q507 100 504.5 98.5Q502 97 502 97L436 75H393H370L371 97Q371 101 374.0 104.5Q377 108 382 108H436L502 119Q507 119 510.0 115.5Q513 112 513 108ZM0 54Q0 59 3.0 62.5Q6 66 11 66L77 54H131Q136 54 139.0 51.0Q142 48 142 43V21H77L11 43Q0 48 0 54Z" fill="#af7e57" />
<path d="M142 21H156V-64H142ZM356 64H370V-64H356Z" fill="#dd551f" />
</g></svg>