<svg xmlns="http://www.w3.org/2000/svg" viewBox="0 0 2048 2048">
<g transform="matrix(1 0 0 -1 0 2048)">
<path d="M370 120Q370 120 319 64L324 -11Q324 -31 309 -43Q296 -54 272.0 -55.0Q248 -56 233 -48Q209 -38 209 -12Q209 -11 209.0 -11.0Q209 -11 216 48L110 103L106 105Q103 107 101 110Q101 110 46 181Q38 191 43.0 196.5Q48 202 58 194Q58 194 90 170L93 258Q93 270 100.5 270.5Q108 271 110 259Q110 259 129 152Q133 140 145 135Q145 135 224 119L227 143Q227 145 227 148Q227 166 217 182Q217 182 207 197L93 367L88 374Q83 382 78.5 389.0Q74 396 74 396Q72 399 72 403Q72 407 75 411Q78 413 82 413Q87 413 91 409Q91 409 96 403Q102 397 107.0 391.0Q112 385 112 385Q113 386 115 387Q115 387 157 413Q164 418 167.5 414.5Q171 411 165 405Q165 405 134 366L131 364L142 351L157 335Q161 330 168 330Q176 330 180 336Q180 336 285 436Q289 439 294.0 439.0Q299 439 302.5 435.5Q306 432 306 428Q306 424 304 421Q304 421 285.0 393.0Q266 365 247.0 337.0Q228 309 228 309Q224 303 224 296Q224 286 231 278Q231 278 258 247L333 307Q345 317 345 333Q345 333 345 334Q345 334 343 388V389Q343 393 346.0 396.5Q349 400 354 400Q363 400 365 391Q365 391 367 381Q369 372 371.5 362.0Q374 352 374 352Q375 347 381 347Q383 347 385 348Q385 348 394 356Q402 363 411.0 370.0Q420 377 420 377Q423 379 427 379Q432 379 435.5 375.5Q439 372 439 367Q439 363 436 359Q436 359 308 217L314 132L344 155L363 171Q375 180 375 195Q375 196 374 197Q374 197 372 249Q372 259 382 260Q382 260 383 260Q391 260 393 252Q393 252 395 242Q398 232 400.0 222.0Q402 212 402 212Q403 207 408 207Q411 207 412 209Q412 209 452 240Q463 248 468.5 242.0Q474 236 465 226Q465 226 373 123Q372 121 370 120Z" fill="#5e2618" />
</g></svg>