<svg xmlns="http://www.w3.org/2000/svg" viewBox="0 0 512 512">
<g transform="matrix(1 0 0 -1 0 512)">
<path d="M210 314Q217 315 221.0 319.0Q225 323 225.0 332.5Q225 342 225.0 347.5Q225 353 222.5 366.0Q220 379 220 380Q218 400 229.5 415.5Q241 431 266 424Q279 422 288.0 411.0Q297 400 297 386Q297 371 287 360Q278 350 273.0 340.5Q268 331 269.5 320.5Q271 310 283 304Q315 289 357 352Q374 377 402.5 378.5Q431 380 443 360Q468 322 439 296Q431 289 387.5 282.0Q344 275 339.5 261.5Q335 248 352.0 232.0Q369 216 368 208Q368 199 360.0 189.0Q352 179 352 171Q352 161 356.0 154.0Q360 147 379.5 139.0Q399 131 432 127Q482 121 499.5 98.0Q517 75 508 45Q503 28 482.0 20.5Q461 13 434.5 21.5Q408 30 392 55Q368 93 340 84Q321 79 325 64Q326 59 329 55Q343 40 349.5 31.0Q356 22 355.5 10.0Q355 -2 339 -10Q332 -14 325.5 -14.0Q319 -14 313.5 -12.0Q308 -10 302.0 -5.0Q296 0 292.0 4.5Q288 9 283.0 17.0Q278 25 275.5 30.0Q273 35 268 43Q261 56 252.5 58.0Q244 60 236.0 57.0Q228 54 216 57Q207 60 200.0 67.0Q193 74 181 73Q152 68 139 -14Q134 -46 100 -55Q68 -65 54 -43Q48 -34 49 -23Q49 -5 59.5 9.5Q70 24 83.0 33.5Q96 43 110.0 57.0Q124 71 130 85Q138 106 131.0 119.0Q124 132 110.0 132.0Q96 132 84 125Q74 118 61.0 112.5Q48 107 34.0 103.5Q20 100 10.0 107.0Q0 114 0.0 131.0Q0 148 8.0 159.0Q16 170 27.5 172.5Q39 175 51.5 176.5Q64 178 73 176Q91 176 103.5 188.5Q116 201 116 218Q115 233 103.5 240.0Q92 247 76 245Q55 243 39.0 251.0Q23 259 33 280Q40 294 51.0 298.5Q62 303 72.0 300.0Q82 297 91 290Q101 280 114 280Q131 280 141 293Q149 305 141.0 316.5Q133 328 106 350Q105 351 104 352Q81 371 84.5 400.0Q88 429 113.5 438.0Q139 447 151.0 432.0Q163 417 168 369Q169 352 174.0 339.5Q179 327 185.0 322.0Q191 317 196.5 315.0Q202 313 206 313Z" fill="#9266cc" />
<path d="M475 211Q474 196 462.5 185.5Q451 175 436 175Q434 175 433 175Q407 180 389 198Q383 203 383.0 210.5Q383 218 389 224Q407 242 433 246Q434 246 436 246Q451 246 462.5 236.0Q474 226 475 211ZM193 -56Q182 -54 176.0 -40.0Q170 -26 173 -9Q181 15 199 31Q203 35 208 35Q217 35 219 27Q228 9 228 -11Q228 -16 228 -19Q225 -36 214.5 -47.0Q204 -58 193 -56Z" fill="#9266cc" />
<path d="M81 161Q72 161 49.5 148.0Q27 135 23 135Q15 135 17 146Q20 159 37 161Q48 163 59 163Q70 163 81 161ZM96 274Q90 276 70.0 275.5Q50 275 49 277Q48 279 48.0 282.0Q48 285 52.5 287.5Q57 290 64 290Q82 287 96 274ZM215 299Q215 299 228 291Q231 288 225 288Q224 288 222 288Q215 288 200 286Q185 284 184 286Q183 288 186 291Q195 300 207 300Q211 300 215 299ZM410 214Q408 214 406 215Q399 218 405.5 223.5Q412 229 419 232Q437 238 439 231Q440 226 435.0 222.0Q430 218 424.5 216.5Q419 215 414 214ZM150 398Q150 392 149.5 392.0Q149 392 146 396Q140 402 133 406L115 419Q110 423 110.0 423.5Q110 424 114 426Q120 430 127 430Q136 430 142 424Q151 415 151 403Q151 400 150 398ZM260 412Q260 412 260 412Q294 413 282 378Q275 357 268 356Q266 355 268 361Q269 368 269 376Q269 395 260 412Z" fill="#cbb8e9" />
</g></svg>