<svg xmlns="http://www.w3.org/2000/svg" viewBox="0 0 512 512">
<g transform="matrix(1 0 0 -1 0 512)">
<path d="M230 46 218 32 162 395Q170 394 176 393ZM263 85 250 70 202 387Q210 384 217 381ZM296 123 283 109Q281 125 276.5 152.0Q272 179 263.5 235.0Q255 291 249.0 328.5Q243 366 243 366Q252 360 260 353ZM323 155 316 148Q314 159 311.5 176.5Q309 194 303.0 231.5Q297 269 293.5 294.0Q290 319 290 319Q298 309 307 301L328 162ZM361 200 348 186Q334 282 334 282Q338 280 342 278Q346 277 350 276Z" fill="#cdd5db" />
<path d="M316 -51Q317 -52 317 -54Q317 -58 314.0 -61.0Q311 -64 306 -64Q306 -64 108 -64Q103 -64 100.0 -61.0Q97 -58 97 -54Q97 -52 98 -51Q98 -51 106 -22Q109 -15 116 -15Q116 -15 298 -15Q305 -15 308 -22Q308 -22 316 -51Z" fill="#efae56" />
<path d="M199 -16H298Q305 -16 308 -23L311 -36H103Q106 -23 106 -23Q109 -16 116 -16Z" fill="#e59438" />
<path d="M460 280Q468 248 438 213L276 23H277Q285 23 287 16Q287 15 287.5 14.0Q288 13 289.0 9.5Q290 6 291.0 3.0Q292 0 292.5 -3.5Q293 -7 294.0 -8.5Q295 -10 295 -10Q295 -12 295 -13Q295 -23 285 -23H129Q119 -23 119 -13Q119 -12 119 -10Q127 16 127 16Q129 23 137 23H140L82 397Q82 397 76 397Q66 397 58.5 404.5Q51 412 51 422Q51 424 51 426Q53 435 60.5 441.5Q68 448 77 448Q78 448 78 448H130Q257 448 324 358Q346 320 389 320Q409 318 428 312Q452 304 460 280ZM396 241Q400 247 400 254Q400 258 398 263Q396 266 392.0 268.0Q388 270 385.0 270.5Q382 271 376.5 271.5Q371 272 369 272Q359 274 349 277Q346 278 342 279Q338 281 334 283Q319 290 306 302Q297 310 289 320Q287 323 282 329Q272 342 260 354Q252 361 243 367Q230 376 216 381Q210 384 201 387Q189 391 176 394Q165 396 161 396Q157 396 157 396Q156 396 155 396Q146 396 139.5 389.5Q133 383 133 374Q133 372 134 370Q137 349 142.0 314.0Q147 279 157.5 205.0Q168 131 175.0 81.5Q182 32 182 32Q182 27 186 23Q209 23 209 23Q210 24 210 24L217 32L230 47L241 60L250 71L263 85L283 109L296 123L316 148L323 156L329 162L349 186Q361 200 361 201Q380 220 396 241Z" fill="#efae56" />
<path d="M398 271Q401 266 401 259Q401 250 395 242Q399 248 399 255Q399 259 398 263Q396 266 392.0 268.0Q388 270 385.0 270.5Q382 271 376.5 271.5Q371 272 369 272Q359 274 349 277Q346 278 342 279Q338 281 334 283Q319 290 306 302Q297 310 289 320Q287 323 282 329Q272 342 260 354Q252 361 243 367Q230 376 216 381Q210 384 201 387Q189 391 176 394Q165 396 161 396Q161 396 154 396Q145 395 139.0 388.5Q133 382 133 374Q133 372 134 370L136 352H89L82 397Q82 397 76 397Q66 397 58.5 404.5Q51 412 51 422Q51 424 51 426Q52 417 58.5 412.0Q65 407 70 406H76Q76 406 132 406Q168 406 202 396Q210 393 217 390Q231 384 243 376Q252 370 260 363Q273 351 283 337Q287 331 290 328Q298 318 307 310Q319 299 334 292L343 287Q343 287 350 285Q360 282 370 280Q371 280 377.0 279.5Q383 279 385.5 278.5Q388 278 392.0 276.0Q396 274 398 271Z" fill="#e59438" />
</g></svg>