<svg xmlns="http://www.w3.org/2000/svg" viewBox="0 0 2048 2048">
<g transform="matrix(1 0 0 -1 0 2048)">
<path d="M234 17 148 76Q140 82 133 89L22 183Q8 195 18 210L67 289L425 124Q434 118 434 107Q434 100 430 94Q424 85 412 85Q406 85 400 89L317 148L385 90Q394 83 394 72Q394 65 390 60Q383 51 372 51Q366 51 360 55L284 108L335 61Q344 55 344 44Q344 37 340 31Q334 22 323 22Q316 22 310 26L250 68L277 41Q281 37 281 31Q281 28 279 25Q270 11 252 11Q242 11 234 17Z" fill="#d2a077" />
<path d="M424 139Q432 133 432 122Q432 114 426.5 108.0Q421 102 412 102Q406 102 401.0 106.0Q396 110 387.5 115.5Q379 121 361.5 133.5Q344 146 332.5 154.0Q321 162 321 162Q319 163 317 163Q315 163 313 161Q312 160 312 157Q312 154 315 153Q384 104 384 104Q392 98 392 88Q392 80 386.5 74.0Q381 68 372 68Q366 68 361 71Q356 75 348.5 80.0Q341 85 325.0 96.5Q309 108 298.5 115.5Q288 123 288 123Q286 124 284 124Q282 124 280 122Q278 120 278 118Q278 115 281 113Q334 76 334 76Q342 70 342 59Q342 51 336.5 45.0Q331 39 323 39Q316 39 311 43Q308 46 302.0 50.0Q296 54 283.5 62.5Q271 71 263.0 77.0Q255 83 255 83Q253 84 251 84Q248 84 246 82Q245 80 245 78Q245 75 248 73L274 55Q279 51 279 45Q279 42 277 39Q268 27 253 27Q244 27 237 32L149 93Q141 99 134 105L23 200Q16 206 16 215Q16 220 19 225Q69 304 69 304Q74 313 85 313Q89 313 92 312L94 311Q137 294 159 294Q159 294 159 294Q171 294 183 298L201 305Q235 316 252.0 316.0Q269 316 283 308Q290 304 309 291Q309 291 317 286Q335 273 357 270Q364 269 368.5 263.5Q373 258 373 250Q373 249 373 247Q369 229 344 229Q310 229 276 251L264 258L263 257L262 256L263 255Z" fill="#f3d2a2" />
<path d="M235 51Q234 45 230 41L215 27Q209 21 200 21Q198 21 195 21Q179 25 179 42Q179 51 185 57L199 71Q206 78 215 78Q217 78 220 77Q236 73 236 56Q236 53 235 51ZM85 121Q79 115 70 115Q66 115 61 116Q49 122 49 136Q49 145 55 151Q56 152 58.5 154.5Q61 157 65.5 161.5Q70 166 73.0 169.0Q76 172 76 172Q83 178 92 178Q96 178 100 177Q113 171 113 157Q113 148 107 142ZM159 120Q157 117 152.5 113.0Q148 109 138.5 99.5Q129 90 123.0 83.5Q117 77 117 77Q110 71 101 71Q92 71 86.0 77.0Q80 83 80 92Q80 101 86 108Q89 110 93.5 114.5Q98 119 107.5 128.5Q117 138 123.0 144.0Q129 150 129 150Q135 157 145 157Q154 157 160.0 150.5Q166 144 166 136Q166 126 159 120ZM191 77 163 49Q156 42 146 43Q138 43 132.0 49.5Q126 56 126 64Q126 73 133 79Q161 107 161 107Q167 114 176 114Q177 114 178 114Q186 113 191.5 107.0Q197 101 197 92Q197 84 191 77ZM427 136 264 254Q244 243 220.5 234.5Q197 226 173.5 227.0Q150 228 145 245Q145 247 145 249Q145 257 150.0 263.0Q155 269 163 270L337 298L436 144Z" fill="#583529" />
<path d="M235 65Q234 59 230 55L215 41Q209 35 200 35Q198 35 195 36Q179 40 179 56Q179 65 185 71L199 85Q206 92 215 92Q217 92 220 91Q236 87 236 70Q236 68 235 65ZM85 135Q79 129 70 129Q66 129 61 131Q49 136 49 150Q49 159 55 165Q56 166 58.5 168.5Q61 171 65.5 175.5Q70 180 73.0 183.0Q76 186 76 186Q83 193 92 193Q96 193 100 191Q113 185 113 171Q113 163 107 156ZM159 134 117 92Q110 85 101 85Q92 85 86.0 91.0Q80 97 80 106Q80 115 86 122L129 164Q135 171 145 171Q154 171 160.0 165.0Q166 159 166 150Q166 141 159 134ZM191 92 163 63Q156 56 146 57Q138 58 132.0 64.0Q126 70 126 78Q126 87 133 93Q161 122 161 122Q167 128 176 128Q177 128 178 128Q186 127 191.5 121.0Q197 115 197 107Q197 98 191 92ZM498 198 436 144Q425 151 408.0 163.5Q391 176 355.0 202.5Q319 229 295.0 246.5Q271 264 271 264Q267 266 263 266Q260 266 257 265Q235 254 213.0 247.0Q191 240 170.0 241.5Q149 243 145 260Q145 261 145 263Q145 271 150.0 277.0Q155 283 163 284Q184 288 202 300Q232 320 236 322Q249 330 265.5 330.0Q282 330 292.0 327.5Q302 325 322 318L337 312Q348 309 359.0 308.5Q370 308 383.5 311.5Q397 315 404.5 317.5Q412 320 427 326Q430 327 434 327Q446 327 452 317L502 225V224Q505 219 505 213Q505 204 498 198Z" fill="#7c533e" />
</g></svg>