<svg xmlns="http://www.w3.org/2000/svg" viewBox="0 0 2048 2048">
<g transform="matrix(1 0 0 -1 0 2048)">
<path d="M235 7Q220 7 209 17Q183 44 160.0 102.5Q137 161 123.0 230.0Q109 299 102.5 336.0Q96 373 93 401Q91 416 100.0 427.5Q109 439 123.5 440.5Q138 442 150.0 433.0Q162 424 163 410Q176 310 202.5 204.5Q229 99 260 68Q270 57 270.0 42.5Q270 28 259.5 17.5Q249 7 235 7Z" fill="#e0aa94" />
<path d="M411 88V87Q426 89 436.5 79.5Q447 70 447 56V-17Q447 -34 435.5 -45.5Q424 -57 408 -57H173Q120 -57 87.5 -14.5Q55 28 69 79Q80 107 82 117Q58 190 81 229Q82 231 82 232Q79 406 79 406Q79 406 79 407Q79 421 89.0 431.0Q99 441 113 441Q126 441 135.5 432.0Q145 423 147 410L174 244Q185 178 213 117L215 111Q246 62 287 71Z" fill="#f7dece" />
<path d="M174 72Q177 64 172.5 58.5Q168 53 161.0 53.5Q154 54 151 61Q143 85 139.0 108.5Q135 132 132.0 169.0Q129 206 127 216Q123 231 109.0 235.0Q95 239 82 232V244Q92 247 101 247Q118 250 131.0 238.0Q144 226 144 208Q148 179 153 154Q165 91 174 72ZM378 -36Q411 -36 445 -28Q442 -41 431.5 -49.0Q421 -57 408 -57Q173 -57 173 -57Q127 -57 95 -23L124 -29Q156 -36 190 -36Z" fill="#e0aa94" />
</g></svg>