<svg xmlns="http://www.w3.org/2000/svg" viewBox="0 0 512 512">
<g transform="matrix(1 0 0 -1 0 512)">
<path d="M420 170Q429 94 423 16Q421 -15 398.0 -37.0Q375 -59 343 -59Q343 -59 331 -59Q240 -59 163 -13Q122 11 106.0 28.5Q90 46 82 84Q62 181 112 296Q105 302 98.5 309.0Q92 316 81.5 327.0Q71 338 64.5 348.5Q58 359 53.0 370.0Q48 381 50.0 389.5Q52 398 62 403Q104 423 156 376Q175 404 198 430Q210 442 227 442Q230 442 234 442Q245 439 252.5 430.5Q260 422 260 410Q260 404 257 398L215 289Q225 285 241.0 279.0Q257 273 291.5 259.5Q326 246 348.5 237.0Q371 228 371 228Q390 222 403.5 206.5Q417 191 420 170Z" fill="#af7e57" />
<path d="M364 231Q364 231 371 228Q383 224 393 216Q393 160 386 105Q385 93 372 93Q366 93 362.0 97.0Q358 101 358 107Q358 108 358 108Q364 154 364 200Q364 214 364 228Q364 229 364 231ZM288 256Q288 258 289 260Q317 250 317 250Q317 249 317 249Q317 184 305 122Q303 110 291 110Q285 110 280.5 114.0Q276 118 276 124Q276 126 277 127Q288 187 288 248Q288 252 288 256ZM196 129Q190 130 186.0 134.0Q182 138 182 144Q183 220 215 289L241 279Q211 214 210 143Q210 137 206.0 133.0Q202 129 196 129ZM133 393Q145 386 156 376Q130 338 112 296Q101 307 90 318Q109 357 133 393Z" fill="#90603e" />
</g></svg>