<svg xmlns="http://www.w3.org/2000/svg" viewBox="0 0 512 512">
<g transform="matrix(1 0 0 -1 0 512)">
<path d="M374 69Q376 69 393.5 67.0Q411 65 414 65Q425 64 443 60Q453 57 452.0 44.5Q451 32 439 31L349 28Q338 29 333.0 30.5Q328 32 324 40Q314 59 305 94L361 105Q363 91 366 76Q367 70 374 69ZM268 93Q255 88 242 81Q236 78 237 72Q237 70 239.5 52.5Q242 35 243 32Q244 21 245 2Q245 -9 232.5 -11.0Q220 -13 217 -2L191 85Q188 94 188.5 100.5Q189 107 196 113Q212 127 243 144ZM256 296Q257 305 263.5 310.0Q270 315 280 314Q339 307 350.5 304.0Q362 301 365 284Q365 281 366.0 253.0Q367 225 367 223Q367 222 372.5 213.0Q378 204 377 202Q374 195 360 189Q350 184 340 201Q339 206 340.0 209.5Q341 213 343.5 218.0Q346 223 346 224Q347 228 340 252Q339 255 338.0 260.0Q337 265 336.5 268.0Q336 271 334.5 274.0Q333 277 331.5 278.0Q330 279 327 278Q306 270 279 272Q255 275 256 296Z" fill="#af7e57" />
<path d="M465 64 487 61Q488 5 485 -9Q484 -20 481.5 -27.0Q479 -34 478 -36L476 -38H473Q468 -37 467 -32Q466 -31 464.5 -23.0Q463 -15 462 -13Q462 -12 460.5 -10.0Q459 -8 459 -6Q454 10 453.0 13.5Q452 17 450.0 20.0Q448 23 447 23Q447 24 436 29H428Q426 29 427 31Q427 32 431.0 35.0Q435 38 437 40Q438 45 438.0 48.0Q438 51 437.0 55.5Q436 60 436 60Q436 63 438 63L460 64Q462 64 465 64ZM255 -17 257 -40Q203 -54 189 -56Q177 -57 170.5 -56.5Q164 -56 161 -55L159 -54Q158 -53 158 -51Q157 -46 162 -43Q163 -42 170.5 -38.5Q178 -35 180 -34Q180 -33 182.0 -31.5Q184 -30 186 -29Q199 -20 202.0 -18.0Q205 -16 207.5 -13.5Q210 -11 211 -11Q211 -10 213 2L211 9Q211 11 213 11Q214 11 218.0 8.0Q222 5 224 4Q228 3 232.0 4.0Q236 5 240.0 7.0Q244 9 244 9Q246 10 246 8L253 -13Q254 -15 255 -17ZM233 145Q277 168 304 170Q307 171 309 167L328 115Q329 110 324 109Q288 97 264 84Q261 82 258 86Q235 119 231 139Q230 143 233 145Z" fill="#1c6399" />
<path d="M444 23Q443 23 443 24Q440 25 442 28L444 32Q445 34 447.5 33.0Q450 32 449 29L447 25Q446 23 444 23Z" fill="#ccd6dd" />
<path d="M482 31Q471 35 468 43Q466 48 465 64Q471 65 477 64Q484 64 486 62Q486 62 485.0 56.0Q484 50 483.0 42.5Q482 35 482 31ZM227 -42Q228 -31 235 -26Q240 -23 255 -17Q257 -23 258 -30Q259 -36 258 -38Q258 -38 255.5 -38.5Q253 -39 249.5 -39.5Q246 -40 241.5 -40.5Q237 -41 233.0 -41.5Q229 -42 227 -42Z" fill="#3b94d9" />
<path d="M486 62Q486 63 491.0 63.0Q496 63 496.5 62.0Q497 61 498 58Q499 54 497 37L494 -7Q492 -18 487 -28Q485 -32 482.5 -34.5Q480 -37 478 -37L476 -38Q479 -34 480 -29Q482 -24 483 -15Q484 -9 484 2Q484 4 482.5 14.0Q481 24 481 28Q481 34 482 50Q483 56 485 58ZM451 16Q449 16 448 17Q447 20 449 21L454 23Q456 24 457.5 21.5Q459 19 456 18L452 16Q451 16 451 16ZM454 6Q452 6 452 8Q451 11 453 12L459 13Q461 14 462.0 11.5Q463 9 460 8L455 6Q455 6 454 6ZM458 -3Q455 -3 455 -1Q454 2 457 2L462 3Q465 4 465.5 1.0Q466 -2 463 -3ZM218 -11Q217 -11 217 -11L212 -10Q209 -9 210.0 -6.0Q211 -3 213 -4L218 -5Q221 -6 220 -9Q220 -11 218 -11ZM258 -38Q259 -38 260.0 -43.0Q261 -48 260 -49Q259 -50 257 -51Q254 -53 236 -56Q193 -63 192 -63Q182 -65 171 -62Q166 -61 163.0 -59.0Q160 -57 160 -55L159 -54Q163 -56 169 -56Q174 -56 182 -55Q189 -55 199 -52Q201 -51 210.5 -47.5Q220 -44 224 -42Q230 -41 245 -38Q251 -37 254 -38ZM210 -22Q209 -22 208 -21L205 -17Q203 -15 205.0 -13.0Q207 -11 209 -13L212 -17Q214 -19 212 -21Q211 -22 210 -22ZM201 -28Q200 -28 199 -27L196 -22Q195 -20 197.5 -18.5Q200 -17 201 -20L204 -24Q205 -26 203 -28Q202 -28 201 -28ZM192 -34Q190 -34 190 -32L188 -28Q186 -25 188.5 -24.0Q191 -23 193 -25L195 -30Q196 -32 193 -34Q193 -34 192 -34Z" fill="#ccd6dd" />
<path d="M302 84Q291 133 295 159Q296 162 300 163L355 168Q360 169 360 163Q362 125 369 99Q370 95 365 93Q327 80 307 80Q303 81 302 84Z" fill="#357baa" />
<path d="M269 360Q269 354 276.5 339.5Q284 325 284 313Q284 301 275.5 295.5Q267 290 258.0 295.0Q249 300 249 312Q249 331 242 336Q235 332 224 328Q208 321 194.0 341.5Q180 362 176 387Q173 408 192.0 423.5Q211 439 232 437Q252 435 264.5 418.5Q277 402 275 380Q274 369 269 360Z" fill="#af7e57" />
<path d="M184 425Q226 458 262 435Q276 426 281.0 408.0Q286 390 283 373Q282 365 279.5 360.0Q277 355 276 355L274 354Q273 354 271.5 353.5Q270 353 265.5 353.0Q261 353 257.0 354.0Q253 355 249.5 359.0Q246 363 245 370Q244 372 245.5 376.0Q247 380 246.0 384.0Q245 388 241 392Q236 397 229.0 394.0Q222 391 222 384Q223 379 222.0 376.5Q221 374 219 374L218 375L199 400Q186 400 180 387Q177 380 171 390Q162 407 184 425Z" fill="#60352a" />
<path d="M319 309Q327 294 334.5 273.0Q342 252 347.0 233.0Q352 214 355.0 197.5Q358 181 359.5 170.5Q361 160 361 160Q341 158 318.5 157.5Q296 157 284 158H271Q267 173 259.0 195.0Q251 217 247.0 228.5Q243 240 239.0 256.0Q235 272 235.0 281.5Q235 291 237.5 301.5Q240 312 248.0 319.5Q256 327 269 333Q298 347 319 309Z" fill="#4289c1" />
<path d="M283 303Q303 293 291 272Q259 216 251.5 205.5Q244 195 226 200Q222 200 190.0 210.0Q158 220 157 220Q144 224 139 229Q137 230 119 233Q96 237 96 239Q100 242 113.5 245.0Q127 248 131 248Q155 247 160 244Q161 244 204 238Q207 238 212.5 236.5Q218 235 221.0 234.5Q224 234 227.5 234.0Q231 234 233.0 235.5Q235 237 235 240Q236 264 250 290Q262 314 283 303Z" fill="#af7e57" />
<path d="M55.0 101.0Q40 116 40.0 137.5Q40 159 55.0 174.0Q70 189 91.0 189.0Q112 189 127.0 174.0Q142 159 142.0 137.5Q142 116 127.0 101.0Q112 86 91.0 86.0Q70 86 55.0 101.0Z" fill="#ffac33" />
<path d="M105 140 86 122Q101 106 109 90Q103 87 96 87Q89 99 77 112L61 96Q56 100 52 105L68 122Q54 135 40 141Q41 148 43 154Q59 147 77 131L96 149Q79 167 72 184Q72 185 72 185Q77 187 84 188Q90 174 105 158L124 177Q129 172 132 168L114 149Q128 136 141 130Q140 123 138 117Q122 124 105 140Z" fill="#c1694f" />
</g></svg>