<svg xmlns="http://www.w3.org/2000/svg" viewBox="0 0 512 512">
<g transform="matrix(1 0 0 -1 0 512)">
<path d="M431 406 484 178Q450 108 383.5 47.0Q317 -14 256 -36Q200 -16 138.0 38.5Q76 93 39 157L28 211Q6 243 5 248Q2 264 2 280Q2 338 43.0 379.0Q84 420 142 420Q177 420 207.0 404.0Q237 388 256 361Q275 388 305.0 404.0Q335 420 370 420Q402 420 431 406Z" fill="#dd2e44" />
<path d="M510 297Q511 288 511 280Q511 265 507 250L492 237L502 226Q496 203 484 178H28Q17 201 11 223L17 237L428 392L456 391Q477 375 490 353L483 336L501 331Q503 325 505 321L490 309Z" fill="#e6e7e8" />
<path d="M505 321Q508 310 510 297H367L430 321ZM456 391 11 223Q7 235 6 246L431 406Q445 400 456 391Z" fill="#d1d3d4" />
<path d="M221 226 39 157Q33 167 28 178L490 353Q497 342 501 331L284 249L507 250Q504 231 502 226Z" fill="#bcbec0" />
</g></svg>