<svg xmlns="http://www.w3.org/2000/svg" viewBox="0 0 512 512">
<g transform="matrix(1 0 0 -1 0 512)">
<path d="M512 -7Q512 -31 495.5 -47.5Q479 -64 455 -64H57Q33 -64 16.5 -47.5Q0 -31 0 -7V391Q0 415 16.5 431.5Q33 448 57 448H455Q479 448 495.5 431.5Q512 415 512 391Z" fill="#3b88c3" />
<path d="M234 289H208Q193 289 185.5 298.0Q178 307 178 319Q178 332 186.5 341.0Q195 350 208 350H271Q285 350 292.5 341.0Q300 332 300 319V68Q300 52 291.0 42.5Q282 33 267.5 33.0Q253 33 243.5 42.5Q234 52 234 68Z" fill="#ffffff" />
</g></svg>