<svg xmlns="http://www.w3.org/2000/svg" viewBox="0 0 2048 2048">
<g transform="matrix(1 0 0 -1 0 2048)">
<path d="M512 -7Q512 -31 495.5 -47.5Q479 -64 455 -64H57Q33 -64 16.5 -47.5Q0 -31 0 -7V391Q0 415 16.5 431.5Q33 448 57 448H455Q479 448 495.5 431.5Q512 415 512 391Z" fill="#3b88c3" />
<path d="M257 341Q261 345 271 352Q276 355 285 355Q294 355 305.0 344.5Q316 334 316 323Q316 316 307 305Q301 297 277.5 271.5Q254 246 246 234L247 233Q259 238 275 238Q313 238 340.0 208.5Q367 179 367 140Q367 95 335.5 62.5Q304 30 256 30Q207 30 176.0 62.0Q145 94 145.0 139.5Q145 185 181.5 244.5Q218 304 257 341ZM214 140Q214 120 225.5 107.0Q237 94 256 94Q275 94 286.5 107.0Q298 120 298 140Q298 158 287.0 171.5Q276 185 256 185Q237 185 225.5 172.0Q214 159 214 140Z" fill="#ffffff" />
</g></svg>