<svg xmlns="http://www.w3.org/2000/svg" viewBox="0 0 512 512">
<g transform="matrix(1 0 0 -1 0 512)">
<path d="M512 -7Q512 -31 495.5 -47.5Q479 -64 455 -64H57Q33 -64 16.5 -47.5Q0 -31 0 -7V391Q0 415 16.5 431.5Q33 448 57 448H455Q479 448 495.5 431.5Q512 415 512 391Z" fill="#3b88c3" />
<path d="M290 289H177Q160 289 152.0 297.5Q144 306 144 319Q144 332 152.0 341.0Q160 350 177 350H336Q351 350 359.5 339.5Q368 329 368 318Q368 310 358 289L249 66Q238 46 231.5 39.5Q225 33 211 33Q195 33 185.0 43.0Q175 53 175 64Q175 71 179 80Z" fill="#ffffff" />
</g></svg>