<svg xmlns="http://www.w3.org/2000/svg" viewBox="0 0 2048 2048">
<g transform="matrix(1 0 0 -1 0 2048)">
<path d="M512 -7Q512 -31 495.5 -47.5Q479 -64 455 -64H57Q33 -64 16.5 -47.5Q0 -31 0 -7V391Q0 415 16.5 431.5Q33 448 57 448H455Q479 448 495.5 431.5Q512 415 512 391Z" fill="#3b88c3" />
<path d="M147 131Q147 182 194 207Q161 231 161 270Q161 308 188.5 331.5Q216 355 256 355Q296 355 324.0 331.5Q352 308 352 270Q352 229 318 207Q365 183 365 131Q365 86 333.5 58.0Q302 30 256 30Q210 30 178.5 58.5Q147 87 147 131ZM216 135Q216 117 226.5 104.0Q237 91 256 91Q274 91 285.0 104.0Q296 117 296 135Q296 156 285.0 167.5Q274 179 256 179Q237 179 226.5 166.5Q216 154 216 135ZM224 263Q224 248 232.5 239.0Q241 230 256.0 230.0Q271 230 279.5 239.0Q288 248 288 263Q288 278 279.5 287.5Q271 297 256.0 297.0Q241 297 232.5 287.5Q224 278 224 263Z" fill="#ffffff" />
</g></svg>