<svg xmlns="http://www.w3.org/2000/svg" viewBox="0 0 2048 2048">
<g transform="matrix(1 0 0 -1 0 2048)">
<path d="M512 -7Q512 -31 495.5 -47.5Q479 -64 455 -64H57Q33 -64 16.5 -47.5Q0 -31 0 -7V391Q0 415 16.5 431.5Q33 448 57 448H455Q479 448 495.5 431.5Q512 415 512 391Z" fill="#3b88c3" />
<path d="M255 44Q251 40 241 33Q236 30 227 30Q218 30 207.0 40.5Q196 51 196 62Q196 69 205 81Q212 88 235.0 113.5Q258 139 266 151L265 152Q253 147 238 147Q199 147 172.0 176.5Q145 206 145 245Q145 290 176.5 322.5Q208 355 256 355Q306 355 336.5 323.0Q367 291 367.0 245.5Q367 200 330.5 140.5Q294 81 255 44ZM298 245Q298 265 286.5 278.0Q275 291 256 291Q237 291 225.5 278.0Q214 265 214 245Q214 227 225.0 213.5Q236 200 256 200Q275 200 286.5 213.0Q298 226 298 245Z" fill="#ffffff" />
</g></svg>