<svg xmlns="http://www.w3.org/2000/svg" viewBox="0 0 512 512">
<g transform="matrix(1 0 0 -1 0 512)">
<path d="M484 7Q495 7 503.5 -1.5Q512 -10 512 -21V-64H0V-21Q0 -10 8.5 -1.5Q17 7 28 7Z" fill="#ffac33" />
<path d="M242 -14Q240 -23 232.5 -27.5Q225 -32 216.5 -30.5Q208 -29 203.0 -21.5Q198 -14 200 -5L285 427Q286 435 293.5 440.0Q301 445 310.0 443.0Q319 441 323.5 433.5Q328 426 326 418Z" fill="#66757f" />
<path d="M494 185Q493 182 491.5 177.5Q490 173 485.0 166.0Q480 159 474.0 160.0Q468 161 459.0 170.5Q450 180 444 188L438 197L91 272Q87 270 81.0 266.5Q75 263 62.0 257.5Q49 252 43.0 253.5Q37 255 35.0 262.5Q33 270 34 277L35 284Q52 359 130.5 397.5Q209 436 304.0 415.5Q399 395 454.5 327.5Q510 260 494 185Z" fill="#dd2e44" />
<path d="M438 197Q438 194 436.0 189.5Q434 185 425.5 178.5Q417 172 404.5 175.0Q392 178 376.0 188.5Q360 199 351 209L341 218L188 251Q183 249 174.0 246.0Q165 243 145.0 239.5Q125 236 112.5 238.5Q100 241 94.5 249.5Q89 258 90 265L91 272Q107 347 169.5 389.0Q232 431 304.0 415.5Q376 400 415.5 336.0Q455 272 438 197Z" fill="#e1e8ed" />
<path d="M341 218Q336 216 327.0 213.0Q318 210 298.0 206.5Q278 203 266 205L252 208Q239 211 223.5 221.5Q208 232 198 242L188 251Q205 329 236.5 376.0Q268 423 304.0 415.0Q340 407 349.5 349.5Q359 292 341 218Z" fill="#dd2e44" />
</g></svg>