<svg xmlns="http://www.w3.org/2000/svg" viewBox="0 0 2048 2048">
<g transform="matrix(1 0 0 -1 0 2048)">
<path d="M30 237 214 124 69 -3Q58 -12 44 -12Q26 -12 13.5 1.5Q1 15 1 35Q1 46 8.5 96.5Q16 147 23 192ZM481 237Q510 60 510 35Q510 15 497.5 1.5Q485 -12 468 -12Q453 -12 442 -3L297 124Z" fill="#31373d" />
<path d="M284.0 141.5Q249 177 249.0 227.0Q249 277 284.0 312.5Q319 348 369.0 348.0Q419 348 454.5 312.5Q490 277 490.0 227.0Q490 177 454.5 141.5Q419 106 369.0 106.0Q319 106 284.0 141.5Z" fill="#14171a" />
<path d="M56.5 141.5Q21 177 21.0 227.0Q21 277 56.5 312.5Q92 348 142.0 348.0Q192 348 227.5 312.5Q263 277 263.0 227.0Q263 177 227.5 141.5Q192 106 142.0 106.0Q92 106 56.5 141.5Z" fill="#14171a" />
<path d="M142 348H369V108H142Z" fill="#14171a" />
<path d="M135.5 66.0Q115 87 115.0 116.5Q115 146 135.5 167.0Q156 188 185.5 188.0Q215 188 236.0 167.0Q257 146 257.0 116.5Q257 87 236.0 66.0Q215 45 185.5 45.0Q156 45 135.5 66.0Z" fill="#14171a" />
<path d="M275.0 66.0Q254 87 254.0 116.5Q254 146 275.0 167.0Q296 188 325.5 188.0Q355 188 375.5 167.0Q396 146 396.0 116.5Q396 87 375.5 66.0Q355 45 325.5 45.0Q296 45 275.0 66.0Z" fill="#14171a" />
<path d="M295.5 86.5Q283 99 283.0 116.5Q283 134 295.5 146.5Q308 159 325.5 159.0Q343 159 355.5 146.5Q368 134 368.0 116.5Q368 99 355.5 86.5Q343 74 325.5 74.0Q308 74 295.5 86.5ZM155.5 86.5Q143 99 143.0 116.5Q143 134 155.5 146.5Q168 159 186.0 159.0Q204 159 216.5 146.5Q229 134 229.0 116.5Q229 99 216.5 86.5Q204 74 186.0 74.0Q168 74 155.5 86.5Z" fill="#67757f" />
<path d="M350.0 273.5Q343 280 343.0 289.5Q343 299 350.0 305.5Q357 312 366.0 312.0Q375 312 382.0 305.5Q389 299 389.0 289.5Q389 280 382.0 273.5Q375 267 366.0 267.0Q357 267 350.0 273.5Z" fill="#ffcc4d" />
<path d="M350.0 181.5Q343 188 343.0 197.5Q343 207 350.0 213.5Q357 220 366.0 220.0Q375 220 382.0 213.5Q389 207 389.0 197.5Q389 188 382.0 181.5Q375 175 366.0 175.0Q357 175 350.0 181.5Z" fill="#77b255" />
<path d="M304.0 227.5Q297 234 297.0 243.5Q297 253 304.0 259.5Q311 266 320.0 266.0Q329 266 336.0 259.5Q343 253 343.0 243.5Q343 234 336.0 227.5Q329 221 320.0 221.0Q311 221 304.0 227.5Z" fill="#50a5e6" />
<path d="M396.0 227.5Q389 234 389.0 243.5Q389 253 396.0 259.5Q403 266 412.0 266.0Q421 266 428.0 259.5Q435 253 435.0 243.5Q435 234 428.0 227.5Q421 221 412.0 221.0Q403 221 396.0 227.5Z" fill="#dd2e44" />
<path d="M159 270 140 252 122 270V301Q122 308 129 308H151Q159 308 159 301ZM122 218 140 237 159 218V188Q159 180 151 180H129Q122 180 122 188ZM197 262Q204 262 204 255V233Q204 226 197 226H166L148 244L166 262ZM114 262 133 244 114 226H84Q76 226 76 233V255Q76 262 84 262Z" fill="#8899a6" />
</g></svg>