<svg xmlns="http://www.w3.org/2000/svg" viewBox="0 0 512 512">
<g transform="matrix(1 0 0 -1 0 512)">
<path d="M75.0 11.0Q0 86 0.0 192.0Q0 298 75.0 373.0Q150 448 256.0 448.0Q362 448 437.0 373.0Q512 298 512.0 192.0Q512 86 437.0 11.0Q362 -64 256.0 -64.0Q150 -64 75.0 11.0Z" fill="#e6e7e8" />
<path d="M467 337Q476 324 484 308Q476 309 466 309Q518 216 488 84Q468 41 433 8Q509 192 434 308Q434 308 434 309Q402 305 375 291Q450 142 388 -27Q369 -38 350 -46Q426 124 351 276Q318 249 300 202L303 194Q346 51 291 -61Q272 -64 257 -64Q265 -50 271 -35Q159 -33 78 8Q46 39 26 80Q113 -4 281 -9Q291 26 293 64Q279 63 273 63Q99 63 1 167Q0 180 0 192Q0 197 1 210Q18 187 41.0 167.5Q64 148 98.5 129.0Q133 110 183.0 100.0Q233 90 292 92Q290 134 277 180Q120 181 52 252Q33 272 23 297Q31 315 41 331Q46 304 66 280Q106 392 213 444Q236 448 256 448Q277 448 300 444Q285 441 268.0 436.5Q251 432 223.5 418.5Q196 405 173.0 386.5Q150 368 126.5 335.5Q103 303 89 262Q89 261 87 259Q113 238 152 226Q171 280 199.0 319.0Q227 358 259.5 377.5Q292 397 321.0 405.5Q350 414 380 416Q403 403 422 386Q409 390 389.0 388.5Q369 387 347.5 384.0Q326 381 302.0 369.0Q278 357 256.5 339.5Q235 322 214.5 290.5Q194 259 180 219Q220 209 272 208Q296 276 349 309Q349 309 349 309H350Q400 340 467 337Z" fill="#99aab5" />
</g></svg>