<svg xmlns="http://www.w3.org/2000/svg" viewBox="0 0 512 512">
<g transform="matrix(1 0 0 -1 0 512)">
<path d="M38 -50Q18 -50 10.5 -37.5Q3 -25 12 -7L234 420Q243 437 256.0 437.0Q269 437 278 420L500 -8Q509 -25 501.5 -37.5Q494 -50 474 -50Z" fill="#ffcc4d" />
<path d="M232.0 12.0Q222 22 222.0 36.0Q222 50 232.0 60.5Q242 71 256.0 71.0Q270 71 280.0 60.5Q290 50 290.0 36.0Q290 22 280.0 12.0Q270 2 256.0 2.0Q242 2 232.0 12.0ZM224 296Q224 310 233.0 318.0Q242 326 256 326Q270 326 279.0 318.0Q288 310 288 296V127Q288 113 279.0 105.0Q270 97 256 97Q242 97 233.0 105.0Q224 113 224 127Z" fill="#231f20" />
</g></svg>