<svg xmlns="http://www.w3.org/2000/svg" viewBox="0 0 2048 2048">
<g transform="matrix(1 0 0 -1 0 2048)">
<path d="M31 448 731 176Q690 69 593.5 2.5Q497 -64 377 -64Q275 -64 188.0 -15.0Q101 34 50.5 118.5Q0 203 0 303Q0 378 31 448Z" fill="#5c913b" />
<path d="M70 433 692 191Q656 96 570.0 36.5Q484 -23 377 -23Q286 -23 209.0 20.5Q132 64 87.0 139.0Q42 214 42 303Q42 371 70 433Z" fill="#ffe8b6" />
<path d="M109 418 653 206Q622 123 546.5 70.5Q471 18 377 18Q256 18 170.0 101.5Q84 185 84 303Q84 363 109 418Z" fill="#dd2e44" />
<path d="M187 286Q175 269 166.5 275.0Q158 281 170 298Q174 305 180.0 308.5Q186 312 190 310Q198 304 187 286ZM313 265Q301 248 292.5 254.0Q284 260 295 277Q300 285 306.0 288.0Q312 291 315 289Q324 283 313 265ZM419 167Q421 146 411 146Q406 145 402.5 151.0Q399 157 398 166Q396 187 407 187Q411 188 414.5 182.0Q418 176 419 167ZM231 209Q232 188 222 188Q218 187 214.0 193.0Q210 199 210 207Q208 228 218 229Q223 230 226.5 224.0Q230 218 231 209ZM312 97Q307 90 301.0 87.0Q295 84 292 87Q283 93 296 110Q301 117 307.0 120.0Q313 123 317 120Q325 114 312 97ZM461.5 101.0Q471 106 481.0 87.5Q491 69 482.0 64.0Q473 59 462.5 77.5Q452 96 461.5 101.0ZM334 193Q345 176 336.5 170.0Q328 164 316 181Q305 199 313.5 204.5Q322 210 334 193ZM522 160Q517 153 511.0 150.0Q505 147 501 150Q493 156 506 173Q511 179 517.0 182.0Q523 185 526 183Q535 176 522 160Z" fill="#000000" />
</g></svg>