<svg xmlns="http://www.w3.org/2000/svg" viewBox="0 0 2048 2048">
<g transform="matrix(1 0 0 -1 0 2048)">
<path d="M384 121Q371 121 360.0 126.5Q349 132 339.0 144.0Q329 156 323.0 165.5Q317 175 308 192Q297 211 291.0 220.5Q285 230 275.0 239.5Q265 249 256.0 249.0Q247 249 237.0 239.5Q227 230 221.0 220.5Q215 211 204 192Q195 175 189.0 165.5Q183 156 173.0 144.0Q163 132 152.0 126.5Q141 121 128 121Q115 121 104.0 126.5Q93 132 84.0 145.0Q75 158 70.5 167.0Q66 176 58 193Q45 223 36.0 236.0Q27 249 14 249Q8 249 4.0 253.0Q0 257 0.0 263.0Q0 269 4.0 273.0Q8 277 14 277Q28 277 38.5 271.5Q49 266 58.0 253.0Q67 240 71.5 231.0Q76 222 84 205Q97 175 106.5 162.0Q116 149 128 149Q137 149 147.0 158.5Q157 168 163.0 177.5Q169 187 180 206Q189 224 195.0 233.0Q201 242 211.0 254.0Q221 266 232.0 271.5Q243 277 256.0 277.0Q269 277 280.0 271.5Q291 266 301.0 254.0Q311 242 317.0 233.0Q323 224 332 206Q343 187 349.0 177.5Q355 168 365.0 158.5Q375 149 384 149Q396 149 405.5 162.0Q415 175 428 205Q436 222 440.5 231.0Q445 240 454.0 253.0Q463 266 473.5 271.5Q484 277 498 277Q504 277 508.0 273.0Q512 269 512.0 263.0Q512 257 508.0 253.0Q504 249 498 249Q486 249 476.5 236.0Q467 223 454 193Q446 176 441.5 167.0Q437 158 428.0 145.0Q419 132 408.0 126.5Q397 121 384 121Z" fill="#292f33" />
</g></svg>