<svg xmlns="http://www.w3.org/2000/svg" viewBox="0 0 512 512">
<g transform="matrix(1 0 0 -1 0 512)">
<path d="M256 -64Q254 -64 252.0 -64.0Q250 -64 247.5 -63.5Q245 -63 244 -63Q180 -36 140.0 34.0Q100 104 100.0 192.0Q100 280 140.0 350.0Q180 420 244 447Q244 447 249.0 447.5Q254 448 256 448Q362 448 437.0 373.0Q512 298 512.0 192.0Q512 86 437.0 11.0Q362 -64 256 -64Z" fill="#ffd983" />
<path d="M244 -63Q142 -58 71.0 15.5Q0 89 0.0 192.0Q0 295 71.0 368.5Q142 442 244 447Q180 420 140.0 350.0Q100 280 100.0 192.0Q100 104 140.0 34.0Q180 -36 244 -63Z" fill="#66757f" />
<path d="M327.5 291.5Q313 306 313.0 327.0Q313 348 327.5 362.5Q342 377 362.5 377.0Q383 377 397.5 362.5Q412 348 412.0 327.0Q412 306 397.5 291.5Q383 277 362.5 277.0Q342 277 327.5 291.5ZM197.5 190.5Q185 203 185.0 220.5Q185 238 197.5 250.5Q210 263 227.5 263.0Q245 263 257.5 250.5Q270 238 270.0 220.5Q270 203 257.5 190.5Q245 178 227.5 178.0Q210 178 197.5 190.5ZM171.0 21.5Q156 36 156.0 57.0Q156 78 171.0 92.5Q186 107 206.5 107.0Q227 107 241.5 92.5Q256 78 256.0 57.0Q256 36 241.5 21.5Q227 7 206.5 7.0Q186 7 171.0 21.5ZM193.5 342.5Q185 351 185.0 362.5Q185 374 193.5 382.5Q202 391 213.5 391.0Q225 391 233.5 382.5Q242 374 242.0 362.5Q242 351 233.5 342.5Q225 334 213.5 334.0Q202 334 193.5 342.5ZM459.0 182.0Q455 186 455.0 192.0Q455 198 459.0 202.0Q463 206 469.0 206.0Q475 206 479.5 202.0Q484 198 484.0 192.0Q484 186 479.5 182.0Q475 178 469.0 178.0Q463 178 459.0 182.0ZM288.5 -3.0Q284 1 284.0 7.0Q284 13 288.5 17.0Q293 21 299.0 21.0Q305 21 309.0 17.0Q313 13 313.0 7.0Q313 1 309.0 -3.0Q305 -7 299.0 -7.0Q293 -7 288.5 -3.0ZM349.5 100.5Q341 109 341.0 121.0Q341 133 349.5 141.0Q358 149 370.0 149.0Q382 149 390.0 141.0Q398 133 398.0 121.0Q398 109 390.0 100.5Q382 92 370.0 92.0Q358 92 349.5 100.5Z" fill="#ffcc4d" />
<path d="M75.0 310.0Q71 314 71.0 320.0Q71 326 75.0 330.0Q79 334 85.0 334.0Q91 334 95.5 330.0Q100 326 100.0 320.0Q100 314 95.5 310.0Q91 306 85.0 306.0Q79 306 75.0 310.0ZM36.5 157.5Q28 166 28.0 178.0Q28 190 36.5 198.0Q45 206 57.0 206.0Q69 206 77.0 198.0Q85 190 85.0 178.0Q85 166 77.0 157.5Q69 149 57.0 149.0Q45 149 36.5 157.5Z" fill="#5b6876" />
</g></svg>