<svg xmlns="http://www.w3.org/2000/svg" viewBox="0 0 512 512">
<g transform="matrix(1 0 0 -1 0 512)">
<path d="M57 222V278Q57 348 107.5 398.0Q158 448 229 447Q294 447 342.0 405.0Q390 363 398 300Q409 223 434 164Q451 125 421 119Q397 114 380 129Q373 136 365.5 146.5Q358 157 349.5 179.0Q341 201 341 226V264Q341 274 334.0 274.0Q327 274 327 264V-28Q327 -41 319.0 -53.0Q311 -65 292.0 -65.0Q273 -65 264.5 -53.0Q256 -41 256 -28V146Q254 143 250.5 139.5Q247 136 236.0 131.0Q225 126 215 129Q202 133 194.0 141.5Q186 150 184 157L182 163Q181 163 180.0 161.5Q179 160 175.5 156.0Q172 152 168.0 150.5Q164 149 157.0 147.5Q150 146 143 150Q130 154 123.0 163.5Q116 173 116 180L115 187Q114 185 112.0 183.0Q110 181 101.5 177.0Q93 173 82 178Q75 181 69.5 186.5Q64 192 61.5 198.0Q59 204 58.0 209.5Q57 215 57 218Z" fill="#ffdc5d" />
</g></svg>