<svg xmlns="http://www.w3.org/2000/svg" viewBox="0 0 2048 2048">
<g transform="matrix(1 0 0 -1 0 2048)">
<path d="M228 420Q228 423 228.5 427.5Q229 432 236.0 440.0Q243 448 256.0 448.0Q269 448 276.0 441.0Q283 434 284 427V420V391Q284 388 283.5 383.0Q283 378 276.0 370.5Q269 363 256.0 363.0Q243 363 236.0 370.0Q229 377 228 384V391ZM484 220Q487 220 491.5 219.5Q496 219 504.0 212.0Q512 205 512.0 192.0Q512 179 505.0 172.0Q498 165 491 164H484H455Q452 164 447.0 164.5Q442 165 434.5 172.0Q427 179 427.0 192.0Q427 205 434.0 212.0Q441 219 448 220H455ZM57 220Q60 220 65.0 219.5Q70 219 77.5 212.0Q85 205 85.0 192.0Q85 179 78.0 172.0Q71 165 64 164H57H28Q25 164 20.5 164.5Q16 165 8.0 172.0Q0 179 0 192Q0 200 3.0 206.0Q6 212 10.0 214.5Q14 217 18.5 218.5Q23 220 26 220H28ZM130 344Q132 342 135.0 338.0Q138 334 138.5 323.5Q139 313 130.0 304.0Q121 295 111.0 295.0Q101 295 95 300L90 304L69 324Q67 326 64.5 330.0Q62 334 61.0 344.5Q60 355 69.0 364.0Q78 373 88.0 373.0Q98 373 104 369L110 364ZM423 304Q420 302 416.0 299.0Q412 296 401.5 295.5Q391 295 382.0 304.0Q373 313 373.0 323.0Q373 333 378 339L382 344L402 364Q405 367 408.5 369.5Q412 372 423.0 372.5Q434 373 443.0 364.0Q452 355 452.0 345.0Q452 335 447 330L443 324ZM124 5Q122 3 118.0 0.5Q114 -2 103.5 -3.0Q93 -4 84.0 5.0Q75 14 75.0 24.0Q75 34 79 40L84 46L104 66Q106 68 110.0 71.0Q114 74 124.5 74.5Q135 75 144.0 66.0Q153 57 153.0 47.0Q153 37 148 31L144 26Z" fill="#ffac33" />
<path d="M155.5 91.5Q114 133 114.0 192.0Q114 251 155.5 292.5Q197 334 256.0 334.0Q315 334 356.5 292.5Q398 251 398.0 192.0Q398 133 356.5 91.5Q315 50 256.0 50.0Q197 50 155.5 91.5Z" fill="#ffac33" />
<path d="M423 118Q460 118 486.0 91.5Q512 65 512.0 27.0Q512 -11 486.0 -37.5Q460 -64 424 -64H169Q146 -64 130.0 -47.5Q114 -31 114.0 -7.5Q114 16 130.0 33.0Q146 50 169 50Q176 50 184 47Q180 57 180 67Q180 88 194.5 103.0Q209 118 230 118Q246 118 260 108Q266 132 285.0 148.0Q304 164 329 164Q353 164 371.5 150.0Q390 136 397 114Q410 118 423 118Z" fill="#e1e8ed" />
</g></svg>