<svg xmlns="http://www.w3.org/2000/svg" viewBox="0 0 512 512">
<g transform="matrix(1 0 0 -1 0 512)">
<path d="M222 -45Q205 -32 193 -8L190 -1L184 -5Q163 -16 145 -19L142 35L90 21Q87 39 91 64L93 71L85 72Q58 76 41 88L63 129L20 151Q27 171 46 190L52 195L46 200Q29 217 21 233L71 252L42 297Q58 306 82 309L89 310L88 317Q83 343 89 364L137 356L144 404Q165 403 189 391L196 387L199 394Q209 415 222 428L256 386L290 428Q303 415 313 394L316 387L323 391Q347 403 368 403L375 356L423 364Q429 343 424 317L423 310L430 309Q454 306 470 297L441 252L491 233Q483 216 466 200L460 195L466 190Q485 171 492 151L449 129L471 87Q453 74 427 71L420 70L421 62Q425 39 422 21L370 35L367 -19Q349 -16 328 -5L322 -1L319 -8Q307 -32 290 -45L256 -11Z" fill="#ffffff" />
<path d="M101 296Q93 296 86 295Q72 339 85 372L131 365L138 410Q140 411 143 411Q176 411 210 386Q208 380 205 372Q177 393 150 396L145 362L142 348L128 351L95 356Q89 329 101 296ZM307 372Q304 380 302 386Q336 411 369 411Q372 411 374 410L381 365L427 372Q440 339 426 295Q419 296 411 296Q423 329 417 356L384 351L370 348L367 362L362 396Q335 393 307 372ZM105 64Q58 64 32 86L53 126L12 147Q20 181 58 208Q63 204 69 199Q40 179 29 154L60 139L72 132L66 120L50 89Q72 77 105 77Q106 77 107.0 77.0Q108 77 109 77Q108 76 107.5 72.0Q107 68 106.5 66.0Q106 64 105 64ZM500 147 459 126 480 85Q453 62 407 62Q405 69 403 77Q404 77 405.0 76.5Q406 76 407 76Q440 76 462 89L446 120L440 132L452 139L483 154Q472 179 443 199Q449 204 454 208Q492 181 500 147ZM320 17Q327 12 333 9Q319 -35 289 -54L256 -21L223 -54Q193 -35 179 9Q185 12 192 17Q202 -17 222 -35L246 -11L256 -1L266 -11L290 -35Q310 -17 320 17Z" fill="#ea596e" />
<path d="M286 367 256 330 226 367Q216 340 214 306L211 254L160 267Q132 275 105 275Q102 275 99 275L125 235L80 217Q103 199 134 187L183 168L155 124Q136 96 129 68L175 80L177 33Q202 49 223 75L256 116L289 75Q310 49 335 33L337 80L383 68Q376 96 357 124L329 168L378 187Q409 199 432 217L387 235L413 275Q410 275 407 275Q380 275 352 267L301 254L298 306Q296 340 286 367ZM289 438Q310 422 324.0 387.0Q338 352 341 309Q375 318 407 318Q453 318 480 299L452 256L500 237Q491 211 462.5 187.0Q434 163 393 148Q417 111 426.0 74.5Q435 38 427 12L377 26L374 -26Q347 -26 315.5 -6.0Q284 14 256 48Q228 14 196.5 -6.0Q165 -26 138 -26L135 26L85 12Q77 38 86.0 74.5Q95 111 119 148Q78 163 49.5 187.0Q21 211 12 237L60 256L32 299Q59 318 105 318Q137 318 171 309Q174 352 188.0 387.0Q202 422 223 438L256 398Z" fill="#ea596e" />
</g></svg>