<svg xmlns="http://www.w3.org/2000/svg" viewBox="0 0 2048 2048">
<g transform="matrix(1 0 0 -1 0 2048)">
<path d="M512 192Q512 86 437.0 11.0Q362 -64 256.0 -64.0Q150 -64 75.0 11.0Q0 86 0.0 192.0Q0 298 75.0 373.0Q150 448 256.0 448.0Q362 448 437.0 373.0Q512 298 512 192Z" fill="#ffcc4d" />
<path d="M362.0 85.0Q341 106 341.0 135.5Q341 165 362.0 185.5Q383 206 412.5 206.0Q442 206 463.0 185.5Q484 165 484.0 135.5Q484 106 463.0 85.0Q442 64 412.5 64.0Q383 64 362.0 85.0ZM49.0 85.0Q28 106 28.0 135.5Q28 165 49.0 185.5Q70 206 99.5 206.0Q129 206 150.0 185.5Q171 165 171.0 135.5Q171 106 150.0 85.0Q129 64 99.5 64.0Q70 64 49.0 85.0Z" fill="#ff7892" />
<path d="M402 253Q386 269 359.5 275.0Q333 281 320.0 280.0Q307 279 301.5 277.5Q296 276 291.0 279.5Q286 283 285.0 289.0Q284 295 287.0 299.5Q290 304 296 305Q305 307 320.0 308.5Q335 310 368.0 302.0Q401 294 422 273Q433 263 422 253Q418 249 412.5 249.0Q407 249 402 253ZM90 253Q79 263 90 273Q111 294 144.0 302.0Q177 310 191.5 308.5Q206 307 216 305Q222 304 225.0 299.5Q228 295 227.0 289.0Q226 283 221.0 279.5Q216 276 211 278Q204 279 191.5 280.0Q179 281 152.5 275.0Q126 269 110 253Q105 249 99.5 249.0Q94 249 90 253ZM360 182Q348 194 322.0 195.5Q296 197 288 192Q282 191 277.0 194.0Q272 197 270.5 203.0Q269 209 272.0 214.0Q275 219 281 220Q289 222 301.0 223.5Q313 225 339.0 221.0Q365 217 380 202Q390 192 380 182Q376 178 370.0 178.0Q364 178 360 182ZM132 182Q122 192 132 202Q147 217 173.0 221.0Q199 225 211.0 223.5Q223 222 231 220Q237 219 240.0 214.0Q243 209 241.5 203.0Q240 197 235.0 194.0Q230 191 224 192Q216 197 190.0 195.5Q164 194 152 182Q148 178 142.0 178.0Q136 178 132 182ZM185 92Q199 78 256 78Q281 78 299.0 81.5Q317 85 322 89L327 92Q327 90 325.5 86.0Q324 82 318.5 72.5Q313 63 305.5 55.5Q298 48 285.0 42.0Q272 36 256 36Q231 36 213.0 50.0Q195 64 190 78Z" fill="#664500" />
<path d="M178 91Q177 96 181.5 98.5Q186 101 190 98Q204 85 256 85Q307 85 322 98Q326 101 330.5 98.5Q335 96 334 91Q333 88 331.5 83.5Q330 79 324.0 68.5Q318 58 310.0 50.0Q302 42 287.5 35.0Q273 28 256.0 28.0Q239 28 224.5 35.0Q210 42 202.0 50.0Q194 58 188.0 68.5Q182 79 180.5 83.5Q179 88 178 91ZM198 78Q218 43 256.0 43.0Q294 43 314 78Q291 71 256.0 71.0Q221 71 198 78ZM185 92Z" fill="#664500" />
</g></svg>