<svg xmlns="http://www.w3.org/2000/svg" viewBox="0 0 2048 2048">
<g transform="matrix(1 0 0 -1 0 2048)">
<path d="M384 178Q387 176 392 167Q392 167 354.5 113.0Q317 59 279 5L242 -50L100 103V134L157 193V207Q157 228 176 237L227 207Q227 222 237.5 232.5Q248 243 262 243L298 191H306L336 220L363 191Q378 183 384 178Z" fill="#ef9645" />
<path d="M363 365V191H306V365Q306 377 314.5 385.5Q323 394 335.0 394.0Q347 394 355.0 385.5Q363 377 363 365ZM298 191H241V220Q241 232 249.5 240.0Q258 248 269.5 248.5Q281 249 289.5 240.5Q298 232 298 220ZM127 220H129Q140 220 148.0 212.0Q156 204 156 193V134Q156 123 148.0 115.0Q140 107 129 107H127Q116 107 108.0 115.0Q100 123 100 134V193Q100 204 108.0 212.0Q116 220 127 220ZM225 178 224 177Q213 165 213 149Q213 149 213.5 148.0Q214 147 214 147Q215 132 224 121Q223 119 220 116Q212 107 199 107Q187 107 179.0 115.0Q171 123 171 135V220Q171 230 176 237Q185 249 199 249Q211 249 219.5 240.5Q228 232 228 220V181Q227 180 226.0 179.5Q225 179 225 178Z" fill="#ffdc5d" />
<path d="M129 92Q151 92 164 111Q166 108 170 104Q183 92 200.0 92.5Q217 93 229 105Q233 110 235 112Q245 107 256 107H292Q285 101 278 92Q249 58 249 7Q249 0 256.0 0.0Q263 0 263 7Q263 63 297 92Q313 107 332 107Q340 106 341 114Q342 121 334 121H256Q244 121 236.0 129.5Q228 138 228.0 149.5Q228 161 236.0 169.5Q244 178 256 178H370Q379 178 386.5 172.0Q394 166 397 158L412 107Q420 83 418 76Q418 23 374.0 -20.5Q330 -64 270 -64Q201 -64 151.0 -15.5Q101 33 100 103Q112 92 127 92Z" fill="#ffdc5d" />
</g></svg>