<svg xmlns="http://www.w3.org/2000/svg" viewBox="0 0 2048 2048">
<g transform="matrix(1 0 0 -1 0 2048)">
<path d="M324 381 290 342Q288 345 285.5 349.0Q283 353 274.0 364.0Q265 375 256.0 382.5Q247 390 234.5 395.0Q222 400 211 397Q164 383 180 291Q202 170 208 126Q211 105 225.0 37.0Q239 -31 240 -46Q241 -58 213.5 -62.5Q186 -67 184 -54Q179 -22 170.5 38.0Q162 98 157 129Q151 165 139.0 226.0Q127 287 125 299Q120 333 129.0 371.5Q138 410 172 434Q194 447 215.5 447.0Q237 447 256.5 436.5Q276 426 291.0 413.5Q306 401 315 391Z" fill="#78b159" />
<path d="M186 214Q210 205 227 189Q245 171 250.5 142.5Q256 114 245 76Q241 60 244.5 44.0Q248 28 254 16L260 4Q231 19 214 42Q185 77 181 122Q177 164 186 214Z" fill="#c6e4b5" />
<path d="M146 249Q146 249 146 249L166 206Q171 194 174.0 176.0Q177 158 175.5 136.5Q174 115 166 105Q151 84 141 27Q141 27 135 35Q130 42 122.5 55.0Q115 68 108.0 87.0Q101 106 98.5 129.5Q96 153 100 181Q103 197 120.0 221.0Q137 245 146 249Z" fill="#a6d388" />
<path d="M352 331Q343 319 326.5 319.0Q310 319 295.0 330.0Q280 341 275.0 357.0Q270 373 278.5 384.5Q287 396 303.5 396.0Q320 396 335.5 385.0Q351 374 355.5 358.0Q360 342 352 331Z" fill="#78b159" />
<path d="M373 372Q382 358 375.0 339.5Q368 321 349.5 309.0Q331 297 311.0 298.0Q291 299 282.0 312.5Q273 326 280.0 344.5Q287 363 306.0 375.0Q325 387 344.5 386.0Q364 385 373 372Z" fill="#78b159" />
<path d="M295 332Q307 313 292 303Q284 299 275.5 301.0Q267 303 260 307L253 311Q282 316 295 332ZM331 379Q330 388 341.0 399.0Q352 410 359 406Q357 404 356.0 402.0Q355 400 353.0 393.5Q351 387 358 383Q365 378 350 378Q331 379 331 379Z" fill="#78b159" />
<path d="M302 325Q310 329 319.5 329.5Q329 330 342.0 322.5Q355 315 363 297Q378 267 375.5 222.5Q373 178 366.5 147.5Q360 117 352 100Q333 55 317 57Q302 59 303 86Q303 96 306 105Q313 121 305.5 136.5Q298 152 284.0 173.5Q270 195 266 217Q250 297 302 325Z" fill="#da2f47" />
<path d="M332 347Q346 367 364.5 370.5Q383 374 397 361Q437 323 445.5 262.5Q454 202 436.5 152.5Q419 103 389 85Q380 80 375.0 88.5Q370 97 367.5 116.0Q365 135 362.0 156.5Q359 178 351.5 201.0Q344 224 331 238Q311 260 311.0 291.0Q311 322 332 347Z" fill="#e75a70" />
</g></svg>