<svg xmlns="http://www.w3.org/2000/svg" viewBox="0 0 512 512">
<g transform="matrix(1 0 0 -1 0 512)">
<path d="M456.5 192.5Q470 179 470.0 160.0Q470 141 456.5 127.5Q443 114 424.5 114.0Q406 114 392.5 127.5Q379 141 379.0 160.0Q379 179 392.5 192.5Q406 206 424.5 206.0Q443 206 456.5 192.5Z" fill="#bbddf5" />
<path d="M498.0 155.0Q510 143 510.0 127.0Q510 111 498.0 99.5Q486 88 470.0 88.0Q454 88 442.5 99.5Q431 111 431.0 127.0Q431 143 442.5 155.0Q454 167 470.0 167.0Q486 167 498.0 155.0Z" fill="#bbddf5" />
<path d="M478.5 95.0Q492 82 492.0 63.0Q492 44 478.5 31.0Q465 18 446.5 18.0Q428 18 414.5 31.0Q401 44 401.0 63.0Q401 82 414.5 95.0Q428 108 446.5 108.0Q465 108 478.5 95.0Z" fill="#bbddf5" />
<path d="M421.5 76.0Q431 69 431.0 60.0Q431 51 421.5 44.0Q412 37 399.0 37.0Q386 37 376.5 44.0Q367 51 367.0 60.0Q367 69 376.5 76.0Q386 83 399.0 83.0Q412 83 421.5 76.0ZM413 142 428 121Q421 119 409.5 118.0Q398 117 372.0 120.0Q346 123 330 135Q351 132 369.5 134.0Q388 136 400 139Z" fill="#bbddf5" />
<path d="M416 116Q416 116 425 108Q429 102 421 99Q412 95 369.5 98.5Q327 102 316 114Q380 108 416 116ZM425 59Q391 75 330 88Q362 95 399.0 89.5Q436 84 442 75Q445 71 440.5 67.0Q436 63 431 61Z" fill="#bbddf5" />
<path d="M452.5 144.0Q462 127 462.0 102.5Q462 78 452.5 61.0Q443 44 430.0 44.0Q417 44 407.5 61.0Q398 78 398.0 102.5Q398 127 407.5 144.0Q417 161 430.0 161.0Q443 161 452.5 144.0Z" fill="#bbddf5" />
<path d="M27 332Q29 331 31.5 329.5Q34 328 43.0 324.5Q52 321 61.0 319.5Q70 318 81.5 320.0Q93 322 103 330Q132 350 163.0 359.5Q194 369 219.0 367.5Q244 366 262 357Q292 341 306.0 309.5Q320 278 306 249Q294 228 293.5 213.5Q293 199 298.5 194.0Q304 189 314 184Q325 177 317.5 167.0Q310 157 300 155Q291 153 302 141Q308 134 315 134Q311 117 300 112Q304 109 307.0 104.0Q310 99 309.5 95.0Q309 91 307 89Q287 85 282 73Q274 55 263.0 53.0Q252 51 240.0 58.5Q228 66 209.5 67.0Q191 68 168 55Q143 40 117.0 43.5Q91 47 76.0 63.5Q61 80 55.0 102.0Q49 124 64 146Q30 153 21.5 182.5Q13 212 39 232Q11 247 6.5 282.0Q2 317 27 332Z" fill="#ccd6dd" />
<path d="M23 211Q23 208 23.5 202.5Q24 197 34.0 184.0Q44 171 63 164Q85 157 103.0 159.0Q121 161 133 167L145 173Q141 169 134.5 163.0Q128 157 107.5 149.0Q87 141 64 146Q47 149 36.5 157.0Q26 165 23.0 174.0Q20 183 20.0 191.5Q20 200 21 206ZM27 332Q1 308 14.5 274.0Q28 240 68 235Q43 225 24.0 239.5Q5 254 3 283Q2 299 8.0 311.5Q14 324 21 328Z" fill="#99aab5" />
<path d="M64 146Q64 146 90 155Q98 156 82 144Q71 135 69.5 117.0Q68 99 75.5 81.5Q83 64 102.0 53.0Q121 42 147 46Q138 42 126.0 40.5Q114 39 95.0 46.5Q76 54 64 73Q53 92 53.0 110.0Q53 128 58 137ZM315 134Q310 113 300 112Q291 111 288 118Q288 119 289 120Q290 120 291 120Q299 121 305.0 124.0Q311 127 313 131ZM308 90Q302 96 292 94Q288 93 282.0 77.0Q276 61 271 57Q278 64 281.5 70.0Q285 76 287.5 79.5Q290 83 295 85Q307 90 308 90ZM321 175Q321 174 320.0 171.0Q319 168 313.5 162.5Q308 157 298 154Q285 150 284 153Q282 157 291 161Q294 162 296 162Q316 163 321 175ZM287 200Q279 193 268.0 191.5Q257 190 249 193L242 196Q257 196 271 203Q279 205 285 218Q286 214 286.5 209.5Q287 205 287 202ZM313 277Q312 276 313.0 271.5Q314 267 311.0 259.0Q308 251 304.0 243.5Q300 236 288.5 230.5Q277 225 261 224Q236 223 209.0 236.0Q182 249 169 263L155 277Q161 272 171.0 264.5Q181 257 209.0 245.0Q237 233 261.0 234.5Q285 236 298.0 247.0Q311 258 312 267Z" fill="#99aab5" />
<path d="M239 231Q237 227 232.0 221.5Q227 216 206.5 206.0Q186 196 160.5 195.5Q135 195 119.0 207.5Q103 220 100 233L97 246Q98 244 99.0 241.0Q100 238 106.0 230.0Q112 222 119.5 216.0Q127 210 141.0 206.5Q155 203 172 205Q190 207 203.5 214.5Q217 222 221 229L225 235Z" fill="#99aab5" />
</g></svg>