<svg xmlns="http://www.w3.org/2000/svg" viewBox="0 0 512 512">
<g transform="matrix(1 0 0 -1 0 512)">
<path d="M482 404 481 405Q478 328 390 285V284Q392 285 394 285Q396 286 401.0 287.5Q406 289 410 291L474 319Q475 319 475 319Q480 319 483.5 316.0Q487 313 487 308Q487 306 486 304Q466 249 391 228H395Q392 227 390 227L386 222L451 236L461 238Q472 239 478.0 229.5Q484 220 477 211Q449 175 378 157H377L375 156L461 154L463 155Q467 152 467.5 147.5Q468 143 464 140Q425 105 363 103L366 102L363 103L360 101L438 91H440L457 88Q463 87 465.0 80.5Q467 74 462 70Q406 22 306 49L297 47Q300 45 304.5 42.5Q309 40 319.0 35.0Q329 30 335.5 26.5Q342 23 342 23Q343 22 345 22L347 20Q356 14 353.0 4.5Q350 -5 340 -6Q272 -7 193 42V41L192 42L181 44L217 8L218 9L227 -3Q232 -10 228.5 -17.0Q225 -24 218 -23Q142 -22 109 32Q103 42 99 52Q98 54 97 57L96 58L88 61L110 4L109 5L110 4Q107 -6 98 -4Q28 15 28 55Q28 70 41 97L42 100L88 173Q99 190 105 212Q116 247 134.5 263.5Q153 280 194 286Q250 293 323.0 327.5Q396 362 460 415Q466 421 474.0 417.0Q482 413 482 404Z" fill="#cad4db" />
<path d="M353 142Q281 142 207 163Q201 156 195 150Q281 109 366 102L441 91Q418 87 394 87Q291 87 183 140Q174 132 166 127Q211 83 305 49L345 22Q325 27 300.0 35.5Q275 44 227.5 68.0Q180 92 153 120Q144 115 138 112Q155 72 194 41L218 9V8Q211 11 199.0 19.0Q187 27 162.0 52.5Q137 78 125 107Q108 100 88 96Q89 79 95 63L110 8Q111 6 110 4Q78 49 74 93Q71 93 65 92H64Q58 92 57 99Q57 106 64 107Q70 107 72 108Q95 111 116.5 118.5Q138 126 163.0 142.0Q188 158 209.0 187.5Q230 217 242 258Q244 263 250 263Q251 263 251 263Q256 261 256 256Q256 255 256 254Q256 253 255.0 250.5Q254 248 253 246Q321 247 396 286Q400 288 408.0 291.5Q416 295 432.5 302.0Q449 309 460.0 314.0Q471 319 471 319Q472 319 474 319Q358 232 251 232H248Q243 219 237 208Q324 206 395 228L451 236V235Q367 193 255 193Q240 193 229 194Q223 183 216 175Q297 153 378 157H377Q382 157 390.0 157.0Q398 157 416.0 157.0Q434 157 445.5 157.0Q457 157 457 157Q461 157 463 155Q411 142 353 142Z" fill="#97a8b3" />
</g></svg>