<svg xmlns="http://www.w3.org/2000/svg" viewBox="0 0 512 512">
<g transform="matrix(1 0 0 -1 0 512)">
<path d="M512 192Q512 86 437.0 11.0Q362 -64 256.0 -64.0Q150 -64 75.0 11.0Q0 86 0.0 192.0Q0 298 75.0 373.0Q150 448 256.0 448.0Q362 448 437.0 373.0Q512 298 512 192Z" fill="#ffcc4d" />
<path d="M138.5 178.5Q128 193 128.0 213.5Q128 234 138.5 248.5Q149 263 163.5 263.0Q178 263 188.5 248.5Q199 234 199.0 213.5Q199 193 188.5 178.5Q178 164 163.5 164.0Q149 164 138.5 178.5Z" fill="#664500" />
<path d="M405 195Q407 190 403 186Q401 185 398.5 185.0Q396 185 394 186Q376 199 341 199Q306 199 289 186Q284 183 280.0 186.5Q276 190 278 195Q279 197 281.0 200.5Q283 204 288.5 212.0Q294 220 301.0 226.0Q308 232 319.0 237.0Q330 242 341.5 242.0Q353 242 364.0 237.0Q375 232 381.5 226.0Q388 220 394.0 212.0Q400 204 402.0 200.5Q404 197 405 195ZM85 271Q81 271 77 274Q65 282 74 294Q87 311 103.0 324.0Q119 337 132.0 342.5Q145 348 158.5 351.5Q172 355 177.0 355.5Q182 356 185 356Q191 356 195.0 352.0Q199 348 199.0 342.0Q199 336 195.0 332.0Q191 328 185 328Q179 328 169.0 326.0Q159 324 136.0 311.5Q113 299 97 277Q92 271 85 271ZM412 241Q405 241 401 246Q391 260 376.5 269.0Q362 278 350.5 281.0Q339 284 326.0 284.5Q313 285 309.0 284.5Q305 284 301 284Q296 282 291.0 285.5Q286 289 285.0 294.5Q284 300 287.0 305.0Q290 310 296 311Q300 312 306.0 313.0Q312 314 328.5 313.0Q345 312 359.5 308.0Q374 304 392.0 292.5Q410 281 424 263Q432 252 421 243Q417 241 412 241ZM334 105Q333 102 331.5 98.0Q330 94 324.0 83.0Q318 72 310.0 64.0Q302 56 287.5 49.5Q273 43 256.0 43.0Q239 43 224.5 49.5Q210 56 202.0 64.5Q194 73 188.0 83.0Q182 93 180.0 98.0Q178 103 178 105Q177 110 181.5 112.5Q186 115 190 112Q204 100 256 100Q307 100 322 112Q326 115 330.5 112.5Q335 110 334 105Z" fill="#664500" />
</g></svg>