<svg xmlns="http://www.w3.org/2000/svg" viewBox="0 0 2048 2048">
<g transform="matrix(1 0 0 -1 0 2048)">
<path d="M491 -28Q508 -31 508 -46Q508 -64 478 -64H226Q211 -64 169.5 -35.5Q128 -7 114 -7L105 -64H14V-22Q14 -5 8.0 7.0Q2 19 2 23Q2 37 4.0 52.5Q6 68 9 77L11 86L242 -21Z" fill="#662113" />
<path d="M362 62Q373 57 412.5 43.5Q452 30 480.0 18.0Q508 6 508 -1Q508 -15 504.0 -23.5Q500 -32 495 -34L491 -36H284Q270 -36 254.0 -31.0Q238 -26 230 -21L222 -16Q102 41 24 60Q2 65 8 93Q10 100 16.0 112.5Q22 125 27 135L32 144Q43 164 43 192L28 434Q66 441 114 445L128 434L142 447Q157 448 171 448Q203 448 228.0 444.5Q253 441 261 437L270 434Q267 427 263.0 414.5Q259 402 251.0 366.0Q243 330 240.0 296.0Q237 262 244.0 219.5Q251 177 270 144Q329 78 362 62Z" fill="#c1694f" />
<path d="M142 164H114V445Q128 447 142 447Z" fill="#d99e82" />
</g></svg>