<svg xmlns="http://www.w3.org/2000/svg" viewBox="0 0 512 512">
<g transform="matrix(1 0 0 -1 0 512)">
<path d="M171 405H341Q341 404 339.5 401.0Q338 398 331.5 390.5Q325 383 316.5 377.5Q308 372 292.0 367.5Q276 363 256.0 363.0Q236 363 220.0 367.0Q204 371 195.0 377.5Q186 384 180.0 390.5Q174 397 173 401Z" fill="#553788" />
<path d="M435 209 370 235Q370 225 370.0 209.5Q370 194 371.5 152.5Q373 111 377.0 77.0Q381 43 390.5 9.5Q400 -24 412 -36Q341 -50 256 -50Q218 -50 179.0 -46.5Q140 -43 120 -39L100 -36Q120 -17 130.5 51.0Q141 119 142 177V235L77 209L14 292Q40 304 79.0 332.5Q118 361 144 383L171 405Q172 403 174.0 399.0Q176 395 184.0 385.5Q192 376 201.0 368.5Q210 361 225.0 354.5Q240 348 256.0 348.0Q272 348 286.5 354.0Q301 360 310.5 368.5Q320 377 327.5 385.5Q335 394 338 399L341 405Q441 320 498 292Z" fill="#aa8dd8" />
<path d="M85 206Q78 206 74 212L17 283Q8 294 19.5 303.0Q31 312 40 300L96 229Q105 218 94 209Q90 206 85 206ZM427 206Q422 206 418 209Q407 218 416 229L472 300Q481 312 492.5 303.0Q504 294 495 283L438 212Q433 206 427 206ZM341 405 313 306 270 338V-36Q270 -41 266.0 -45.5Q262 -50 256.0 -50.0Q250 -50 246.0 -45.5Q242 -41 242 -36V338L199 306L171 405Q175 401 183.5 393.5Q192 386 214.5 374.5Q237 363 256.0 363.0Q275 363 296.5 373.5Q318 384 329 395Z" fill="#9266cc" />
</g></svg>