<svg xmlns="http://www.w3.org/2000/svg" viewBox="0 0 512 512">
<g transform="matrix(1 0 0 -1 0 512)">
<path d="M461 125Q489 43 457 -8Q440 -37 406.0 -46.5Q372 -56 340 -46Q304 -37 282.0 -11.5Q260 14 254 51Q252 62 249.5 91.0Q247 120 242.5 140.0Q238 160 228 178Q216 202 191.5 213.0Q167 224 141 218Q122 214 112.5 198.0Q103 182 103.0 163.5Q103 145 106 127Q124 51 173 40Q191 35 196.0 19.5Q201 4 191.5 -9.5Q182 -23 164 -23Q118 -21 86.5 12.0Q55 45 40 94Q31 124 30.5 153.0Q30 182 41.0 211.5Q52 241 75 260Q106 285 149.5 287.0Q193 289 228 272Q263 258 284.5 225.0Q306 192 315 151Q317 139 318.5 125.5Q320 112 321.5 95.0Q323 78 324 69Q328 29 354 18Q386 5 397 22Q410 42 399 88Q394 110 381.5 135.0Q369 160 359.5 175.0Q350 190 331 217Q328 222 313.5 242.0Q299 262 293.5 271.0Q288 280 279.0 297.5Q270 315 267.5 330.0Q265 345 267 361Q272 401 307.0 423.5Q342 446 382 436Q420 426 443.5 393.0Q467 360 465 320Q464 302 448.5 294.5Q433 287 417.5 294.5Q402 302 400 320Q398 363 371 373Q362 377 352.0 374.0Q342 371 337 362Q329 343 353 306Q361 293 378.0 269.0Q395 245 397 242Q445 172 461 125Z" fill="#dd637f" />
<path d="M238 247Q253 238 270.5 212.0Q288 186 294 162Q302 122 301 77Q301 65 297.5 60.5Q294 56 290.5 60.5Q287 65 288 77Q289 117 278 156Q273 178 259.0 201.5Q245 225 230 232L117 242Q115 242 112.0 241.0Q109 240 101.5 234.5Q94 229 87.0 220.5Q80 212 73.0 195.0Q66 178 63 157Q61 142 57 142Q52 143 52 162Q53 173 55.0 184.5Q57 196 63.0 211.5Q69 227 82.5 240.0Q96 253 114 260Q122 259 135.0 258.5Q148 258 176.0 256.0Q204 254 221.5 251.5Q239 249 238 247Z" fill="#ef8ea7" />
<path d="M367 266Q350 261 330 260Q315 259 299 262Q288 277 282 290Q306 282 329 283Q344 284 359 288Q360 288 364 290Q377 270 377 270Q373 268 367 266ZM385 196Q368 191 351 191Q350 191 349.5 191.0Q349 191 349 191Q342 201 333 215Q346 214 350 214Q364 214 378 218Q390 222 405 230Q411 221 418 210L416 209Q400 200 385 196ZM454 142Q438 133 421 128Q406 124 387 124Q383 133 376 146Q381 146 382 146Q397 146 414 151Q430 155 444 164Q450 152 454 142ZM473 46Q452 43 427 47Q417 49 405 53Q404 65 401 80Q415 73 432 70Q449 67 473 70Q474 58 473 46ZM285 64Q274 56 267 44Q264 39 259 29Q255 41 254 51Q253 58 252 68Q260 78 268 83Q284 96 303 101Q311 103 321 103Q322 91 323 80Q300 76 285 64ZM266 139Q255 132 246 120Q244 137 240 151Q247 157 252 161Q277 178 307 179Q311 168 313 156Q285 152 266 139ZM247 209Q232 197 224 185Q216 196 205 204Q223 227 244 238Q252 244 265 248Q275 238 283 226Q275 224 270 222Q258 218 247 209ZM106 239Q111 225 122 211Q122 211 123 210Q113 201 107 186Q88 208 79 234Q75 245 74 258Q74 259 75 259Q87 269 101 275Q101 275 101.0 274.0Q101 273 101 272Q100 256 106 239ZM39 208Q49 190 71 173Q85 163 103 155Q103 142 106 129Q76 136 50 156Q40 164 32 172Q34 191 39 208ZM48 107Q62 103 78 103Q92 103 112 107Q116 94 121 84Q98 78 75 78Q60 78 45 81Q42 88 40 93Q38 101 36 111Q43 108 48 107ZM72 31Q88 36 103 44Q118 52 134 65Q142 55 152 49Q136 33 115 22Q104 16 88 11Q78 20 71 31Q71 31 72 31ZM344 321Q314 319 286 330Q276 334 266 339Q265 350 267 360Q267 361 267.5 363.0Q268 365 268 365Q268 365 270.0 363.5Q272 362 273 361Q288 353 302 349Q318 344 335 344Q337 334 344 321ZM317 404Q316 417 321 430Q337 437 353 438Q348 432 345 425Q343 419 343 415Q342 411 342.5 408.0Q343 405 343 404Q345 393 356 380Q358 377 361 375Q345 375 338 363Q335 367 331 372Q319 387 317 404ZM393 392Q410 403 432 404Q433 404 433.5 404.0Q434 404 434 404Q445 393 452 379Q451 379 450.5 379.5Q450 380 450 380Q443 381 435 381Q421 380 408 373Q398 367 392 355Q392 355 391.5 354.5Q391 354 391 354Q384 366 373 372Q381 384 393 392ZM428 -36H429Q416 -44 401 -48Q390 -37 384 -26Q375 -11 372 4Q371 8 371 13Q389 9 397 21Q397 22 397.5 22.5Q398 23 398 23Q398 16 398 13Q400 6 402 -1Q403 -3 404 -4V-6Q406 -9 408 -11Q411 -18 416 -23L417 -24L419 -26Q421 -29 423.5 -31.0Q426 -33 428 -36ZM330 8Q320 -8 320 -20Q320 -28 323 -41Q306 -34 292 -21Q292 -21 292.0 -19.5Q292 -18 292 -17Q294 2 305 21Q315 37 328 48Q332 34 342 25Q335 17 330 8Z" fill="#bf345d" />
<path d="M122 294Q134 300 157.5 301.0Q181 302 208.0 295.5Q235 289 250 276Q248 262 226.0 227.5Q204 193 194 200Q173 214 135 206Q124 210 115.5 248.0Q107 286 122 294Z" fill="#bf345d" />
<path d="M169 241Q141 243 120 234Q116 245 114.0 254.0Q112 263 113 267V270Q131 282 163 282Q219 282 243 259V258Q236 242 225 227Q224 225 223 224Q195 238 169 241Z" fill="#d65073" />
</g></svg>