<svg xmlns="http://www.w3.org/2000/svg" viewBox="0 0 512 512">
<g transform="matrix(1 0 0 -1 0 512)">
<path d="M469 7Q469 -16 452.5 -33.0Q436 -50 412 -50H100Q76 -50 59.5 -33.0Q43 -16 43 7V249Q43 272 59.5 289.0Q76 306 100 306H412Q436 306 452.5 289.0Q469 272 469 249Z" fill="#fdd888" />
<path d="M455 235H57Q33 235 16.5 251.5Q0 268 0.0 291.5Q0 315 16.5 331.5Q33 348 57 348H455Q479 348 495.5 331.5Q512 315 512.0 291.5Q512 268 495.5 251.5Q479 235 455 235Z" fill="#fdd888" />
<path d="M43 235H469V206H43Z" fill="#fcab40" />
<path d="M270 405Q288 405 300.5 392.5Q313 380 313 363V-50H199V363Q199 380 211.5 392.5Q224 405 242 405Z" fill="#da2f47" />
<path d="M228 348H85Q74 348 69.5 355.5Q65 363 71 373L100 423Q105 433 116.0 435.5Q127 438 137 432L233 365Q242 358 240.5 353.0Q239 348 228 348ZM284 348Q273 348 271.5 353.0Q270 358 279 365L375 432Q385 438 396.0 435.5Q407 433 412 423L441 373Q447 363 442.5 355.5Q438 348 427 348Z" fill="#da2f47" />
</g></svg>