<svg xmlns="http://www.w3.org/2000/svg" viewBox="0 0 512 512">
<g transform="matrix(1 0 0 -1 0 512)">
<path d="M122.0 1.5Q68 60 68.0 142.5Q68 225 122.0 283.0Q176 341 252.0 341.0Q328 341 382.0 283.0Q436 225 436.0 142.5Q436 60 382.0 1.5Q328 -57 252.0 -57.0Q176 -57 122.0 1.5Z" fill="#be1931" />
<path d="M91.5 1.5Q38 60 38.0 142.5Q38 225 91.5 283.0Q145 341 221.5 341.0Q298 341 351.5 283.0Q405 225 405.0 142.5Q405 60 351.5 1.5Q298 -57 221.5 -57.0Q145 -57 91.5 1.5Z" fill="#a0041e" />
<path d="M402 253Q379 253 328 276Q313 283 305.0 286.0Q297 289 285.0 293.0Q273 297 264.5 296.5Q256 296 250 292L234 314Q248 324 267.5 323.0Q287 322 300.5 317.0Q314 312 340 301Q398 274 415 283Q430 290 436 319L463 313Q454 271 428 258Q416 253 402 253Z" fill="#99aab5" />
<path d="M61.0 1.5Q7 60 7.0 142.5Q7 225 61.0 283.0Q115 341 191.0 341.0Q267 341 321.0 283.0Q375 225 375.0 142.5Q375 60 321.0 1.5Q267 -57 191.0 -57.0Q115 -57 61.0 1.5Z" fill="#dd2e44" />
<path d="M91.0 37.5Q53 81 53.0 142.5Q53 204 91.0 247.5Q129 291 183.0 291.0Q237 291 275.0 247.5Q313 204 313.0 142.5Q313 81 275.0 37.5Q237 -6 183.0 -6.0Q129 -6 91.0 37.5Z" fill="#ea596e" />
<path d="M394 386Q394 412 409.0 426.5Q424 441 450.0 441.0Q476 441 490.5 426.5Q505 412 505 386Q505 357 489.5 330.0Q474 303 450.0 303.0Q426 303 410.0 330.0Q394 357 394 386ZM422 386Q422 366 431.5 348.0Q441 330 449.5 330.0Q458 330 467.5 348.0Q477 366 477 386Q477 413 449.5 413.0Q422 413 422 386Z" fill="#99aab5" />
</g></svg>