<svg xmlns="http://www.w3.org/2000/svg" viewBox="0 0 2048 2048">
<g transform="matrix(1 0 0 -1 0 2048)">
<path d="M244 662 1067 653 1071 328 248 325Z" fill="#ffffff" />
<path d="M420.11767578125 683.587158203125Q420.11767578125 693.888671875 416.210205078125 702.9468994140625Q412.302734375 712.005126953125 405.43505859375 718.872802734375Q398.5673828125 725.740478515625 389.5091552734375 729.64794921875Q380.450927734375 733.555419921875 370.1494140625 733.555419921875Q359.847900390625 733.555419921875 350.7896728515625 729.64794921875Q341.7314453125 725.740478515625 334.86376953125 718.872802734375Q327.99609375 712.005126953125 324.088623046875 702.9468994140625Q320.18115234375 693.888671875 320.18115234375 683.587158203125Q320.18115234375 673.28564453125 324.088623046875 664.2274169921875Q327.99609375 655.169189453125 334.86376953125 648.301513671875Q341.7314453125 641.433837890625 350.7896728515625 637.5263671875Q359.847900390625 633.618896484375 370.1494140625 633.618896484375Q380.450927734375 633.618896484375 389.5091552734375 637.5263671875Q398.5673828125 641.433837890625 405.43505859375 648.301513671875Q412.302734375 655.169189453125 416.210205078125 664.2274169921875Q420.11767578125 673.28564453125 420.11767578125 683.587158203125Z" fill="#ea5a47" />
<path d="M390 732Q399 726 405 717Q416 700 411.5 679.5Q407 659 390 648Q373 637 352.5 641.5Q332 646 321 663Q348 646 375 663Q392 675 396.5 695.0Q401 715 390 732Z" fill="#d22f27" />
<path d="M615.1278076171875 683.1616821289062Q615.1121826171875 712.5347290039062 590.3208618164062 727.2080688476562Q564.6116333007812 741.8809204101562 539.8359375 727.1812133789062Q514.142333984375 712.4810180664062 515.0758666992188 683.1084594726562Q514.173583984375 653.7349243164062 539.8828125 639.0620727539062Q564.6741333007812 624.3887329101562 590.3677368164062 639.0889282226562Q615.1434326171875 653.7886352539062 615.1278076171875 683.1616821289062Z" fill="#ea5a47" />
<path d="M585 732Q594 726 600 717Q611 700 607.0 679.5Q603 659 585 648Q568 637 547.5 641.5Q527 646 516 663Q543 646 570 663Q587 675 591.5 695.0Q596 715 585 732Z" fill="#d22f27" />
<path d="M741.11767578125 683.587158203125Q741.11767578125 693.888671875 737.210205078125 702.9468994140625Q733.302734375 712.005126953125 726.43505859375 718.872802734375Q719.5673828125 725.740478515625 710.5091552734375 729.64794921875Q701.450927734375 733.555419921875 691.1494140625 733.555419921875Q680.847900390625 733.555419921875 671.7896728515625 729.64794921875Q662.7314453125 725.740478515625 655.86376953125 718.872802734375Q648.99609375 712.005126953125 645.088623046875 702.9468994140625Q641.18115234375 693.888671875 641.18115234375 683.587158203125Q641.18115234375 673.28564453125 645.088623046875 664.2274169921875Q648.99609375 655.169189453125 655.86376953125 648.301513671875Q662.7314453125 641.433837890625 671.7896728515625 637.5263671875Q680.847900390625 633.618896484375 691.1494140625 633.618896484375Q701.450927734375 633.618896484375 710.5091552734375 637.5263671875Q719.5673828125 641.433837890625 726.43505859375 648.301513671875Q733.302734375 655.169189453125 737.210205078125 664.2274169921875Q741.11767578125 673.28564453125 741.11767578125 683.587158203125Z" fill="#ea5a47" />
<path d="M711 732Q720 726 726 717Q737 700 733.0 679.5Q729 659 711 648Q694 637 673.5 641.5Q653 646 642 663Q669 646 696 663Q713 675 717.5 695.0Q722 715 711 732Z" fill="#d22f27" />
<path d="M879.1278076171875 683.1616821289062Q879.1121826171875 712.5347290039062 854.3208618164062 727.2080688476562Q828.6116333007812 741.8809204101562 803.8359375 727.1812133789062Q778.142333984375 712.4810180664062 779.0758666992188 683.1084594726562Q778.173583984375 653.7349243164062 803.8828125 639.0620727539062Q828.6741333007812 624.3887329101562 854.3677368164062 639.0889282226562Q879.1434326171875 653.7886352539062 879.1278076171875 683.1616821289062Z" fill="#ea5a47" />
<path d="M849 732Q858 726 864 717Q875 700 871.0 679.5Q867 659 849 648Q832 637 811.5 641.5Q791 646 780 663Q807 646 834 663Q851 675 855.5 695.0Q860 715 849 732Z" fill="#d22f27" />
<path d="M489.11767578125 488.587158203125Q489.11767578125 498.888671875 485.210205078125 507.9468994140625Q481.302734375 517.005126953125 474.43505859375 523.872802734375Q467.5673828125 530.740478515625 458.5091552734375 534.64794921875Q449.450927734375 538.555419921875 439.1494140625 538.555419921875Q428.847900390625 538.555419921875 419.7896728515625 534.64794921875Q410.7314453125 530.740478515625 403.86376953125 523.872802734375Q396.99609375 517.005126953125 393.088623046875 507.9468994140625Q389.18115234375 498.888671875 389.18115234375 488.587158203125Q389.18115234375 478.28564453125 393.088623046875 469.2274169921875Q396.99609375 460.169189453125 403.86376953125 453.301513671875Q410.7314453125 446.433837890625 419.7896728515625 442.5263671875Q428.847900390625 438.618896484375 439.1494140625 438.618896484375Q449.450927734375 438.618896484375 458.5091552734375 442.5263671875Q467.5673828125 446.433837890625 474.43505859375 453.301513671875Q481.302734375 460.169189453125 485.210205078125 469.2274169921875Q489.11767578125 478.28564453125 489.11767578125 488.587158203125Z" fill="#fcea2b" />
<path d="M458 537Q467 531 473 522Q484 505 479.5 484.5Q475 464 458 453Q441 442 420.5 446.5Q400 451 389 468Q416 451 443 468Q460 480 464.5 500.0Q469 520 458 537Z" fill="#f1b31c" />
<path d="M621.11767578125 488.587158203125Q621.11767578125 498.888671875 617.210205078125 507.9468994140625Q613.302734375 517.005126953125 606.43505859375 523.872802734375Q599.5673828125 530.740478515625 590.5091552734375 534.64794921875Q581.450927734375 538.555419921875 571.1494140625 538.555419921875Q560.847900390625 538.555419921875 551.7896728515625 534.64794921875Q542.7314453125 530.740478515625 535.86376953125 523.872802734375Q528.99609375 517.005126953125 525.088623046875 507.9468994140625Q521.18115234375 498.888671875 521.18115234375 488.587158203125Q521.18115234375 478.28564453125 525.088623046875 469.2274169921875Q528.99609375 460.169189453125 535.86376953125 453.301513671875Q542.7314453125 446.433837890625 551.7896728515625 442.5263671875Q560.847900390625 438.618896484375 571.1494140625 438.618896484375Q581.450927734375 438.618896484375 590.5091552734375 442.5263671875Q599.5673828125 446.433837890625 606.43505859375 453.301513671875Q613.302734375 460.169189453125 617.210205078125 469.2274169921875Q621.11767578125 478.28564453125 621.11767578125 488.587158203125Z" fill="#fcea2b" />
<path d="M591 537Q600 531 606 522Q617 505 612.5 484.5Q608 464 591 453Q574 442 553.5 446.5Q533 451 522 468Q549 451 576 468Q593 480 597.5 500.0Q602 520 591 537Z" fill="#f1b31c" />
<path d="M916.1278076171875 488.16168212890625Q916.1121826171875 517.5347290039062 891.3208618164062 532.2080688476562Q865.6116333007812 546.8809204101562 840.8359375 532.1812133789062Q815.142333984375 517.4810180664062 816.0758666992188 488.10845947265625Q815.173583984375 458.73492431640625 840.8828125 444.06207275390625Q865.6741333007812 429.38873291015625 891.3677368164062 444.08892822265625Q916.1434326171875 458.78863525390625 916.1278076171875 488.16168212890625Z" fill="#fcea2b" />
<path d="M886 537Q895 531 901 522Q912 505 908.0 484.5Q904 464 886 453Q869 442 848.5 446.5Q828 451 817 468Q844 451 871 468Q888 480 892.5 500.0Q897 520 886 537Z" fill="#f1b31c" />
<path d="M1055.1278076171875 488.16168212890625Q1055.1121826171875 517.5347290039062 1030.3208618164062 532.2080688476562Q1004.6116333007812 546.8809204101562 979.8359375 532.1812133789062Q954.142333984375 517.4810180664062 955.0758666992188 488.10845947265625Q954.173583984375 458.73492431640625 979.8828125 444.06207275390625Q1004.6741333007812 429.38873291015625 1030.3677368164062 444.08892822265625Q1055.1434326171875 458.78863525390625 1055.1278076171875 488.16168212890625Z" fill="#fcea2b" />
<path d="M1025 537Q1034 531 1040 522Q1051 505 1047.0 484.5Q1043 464 1025 453Q1008 442 987.5 446.5Q967 451 956 468Q983 451 1010 468Q1027 480 1031.5 500.0Q1036 520 1025 537Z" fill="#f1b31c" />
<path d="M489.11767578125 293.587158203125Q489.11767578125 303.888671875 485.210205078125 312.9468994140625Q481.302734375 322.005126953125 474.43505859375 328.872802734375Q467.5673828125 335.740478515625 458.5091552734375 339.64794921875Q449.450927734375 343.555419921875 439.1494140625 343.555419921875Q428.847900390625 343.555419921875 419.7896728515625 339.64794921875Q410.7314453125 335.740478515625 403.86376953125 328.872802734375Q396.99609375 322.005126953125 393.088623046875 312.9468994140625Q389.18115234375 303.888671875 389.18115234375 293.587158203125Q389.18115234375 283.28564453125 393.088623046875 274.2274169921875Q396.99609375 265.169189453125 403.86376953125 258.301513671875Q410.7314453125 251.433837890625 419.7896728515625 247.5263671875Q428.847900390625 243.618896484375 439.1494140625 243.618896484375Q449.450927734375 243.618896484375 458.5091552734375 247.5263671875Q467.5673828125 251.433837890625 474.43505859375 258.301513671875Q481.302734375 265.169189453125 485.210205078125 274.2274169921875Q489.11767578125 283.28564453125 489.11767578125 293.587158203125Z" fill="#f4aa41" />
<path d="M458 342Q467 336 473 327Q484 310 480.0 289.5Q476 269 458 258Q441 247 420.5 251.5Q400 256 389 273Q416 256 443 273Q460 285 464.5 305.0Q469 325 458 342Z" fill="#e27022" />
<path d="M621.11767578125 293.587158203125Q621.11767578125 303.888671875 617.210205078125 312.9468994140625Q613.302734375 322.005126953125 606.43505859375 328.872802734375Q599.5673828125 335.740478515625 590.5091552734375 339.64794921875Q581.450927734375 343.555419921875 571.1494140625 343.555419921875Q560.847900390625 343.555419921875 551.7896728515625 339.64794921875Q542.7314453125 335.740478515625 535.86376953125 328.872802734375Q528.99609375 322.005126953125 525.088623046875 312.9468994140625Q521.18115234375 303.888671875 521.18115234375 293.587158203125Q521.18115234375 283.28564453125 525.088623046875 274.2274169921875Q528.99609375 265.169189453125 535.86376953125 258.301513671875Q542.7314453125 251.433837890625 551.7896728515625 247.5263671875Q560.847900390625 243.618896484375 571.1494140625 243.618896484375Q581.450927734375 243.618896484375 590.5091552734375 247.5263671875Q599.5673828125 251.433837890625 606.43505859375 258.301513671875Q613.302734375 265.169189453125 617.210205078125 274.2274169921875Q621.11767578125 283.28564453125 621.11767578125 293.587158203125Z" fill="#f4aa41" />
<path d="M591 342Q600 336 606 327Q617 310 612.5 289.5Q608 269 591 258Q574 247 553.5 251.5Q533 256 522 273Q549 256 576 273Q593 285 597.5 305.0Q602 325 591 342Z" fill="#e27022" />
<path d="M803.11767578125 293.587158203125Q803.11767578125 303.888671875 799.210205078125 312.9468994140625Q795.302734375 322.005126953125 788.43505859375 328.872802734375Q781.5673828125 335.740478515625 772.5091552734375 339.64794921875Q763.450927734375 343.555419921875 753.1494140625 343.555419921875Q742.847900390625 343.555419921875 733.7896728515625 339.64794921875Q724.7314453125 335.740478515625 717.86376953125 328.872802734375Q710.99609375 322.005126953125 707.088623046875 312.9468994140625Q703.18115234375 303.888671875 703.18115234375 293.587158203125Q703.18115234375 283.28564453125 707.088623046875 274.2274169921875Q710.99609375 265.169189453125 717.86376953125 258.301513671875Q724.7314453125 251.433837890625 733.7896728515625 247.5263671875Q742.847900390625 243.618896484375 753.1494140625 243.618896484375Q763.450927734375 243.618896484375 772.5091552734375 247.5263671875Q781.5673828125 251.433837890625 788.43505859375 258.301513671875Q795.302734375 265.169189453125 799.210205078125 274.2274169921875Q803.11767578125 283.28564453125 803.11767578125 293.587158203125Z" fill="#f4aa41" />
<path d="M773 342Q782 336 788 327Q799 310 794.5 289.5Q790 269 773 258Q756 247 735.5 251.5Q715 256 704 273Q731 256 758 273Q775 284 779.5 304.5Q784 325 773 342Z" fill="#e27022" />
<path d="M993.1278076171875 293.16168212890625Q993.1121826171875 322.53472900390625 968.3208618164062 337.20806884765625Q942.6116333007812 351.88092041015625 917.8359375 337.18121337890625Q892.142333984375 322.48101806640625 893.0758666992188 293.10845947265625Q892.173583984375 263.73492431640625 917.8828125 249.06207275390625Q942.6741333007812 234.38873291015625 968.3677368164062 249.08892822265625Q993.1434326171875 263.78863525390625 993.1278076171875 293.16168212890625Z" fill="#f4aa41" />
<path d="M962 342Q971 336 977 327Q988 310 983.5 289.5Q979 269 962 258Q945 247 924.5 251.5Q904 256 893 273Q920 256 947 273Q964 285 968.5 305.0Q973 325 962 342Z" fill="#e27022" />
<path d="M203 -34Q203 -53 222 -53Q240 -53 240 -34V809Q240 827 222 827Q203 827 203 809Z" fill="#000000" />
<path d="M892 701Q874 701 874 683Q874 674 878 669Q883 665 892 665H1092Q1110 665 1110 683Q1110 692 1105 697Q1101 702 1092 702Z" fill="#000000" />
<path d="M752 701Q734 701 734 683Q734 665 752 665H768Q786 665 786 683Q786 701 768 701Z" fill="#000000" />
<path d="M626 701Q608 701 608 683Q608 665 626 665H631Q649 665 649 683Q649 701 631 701Z" fill="#000000" />
<path d="M431.983642578125 700.5576171875Q414.7069091796875 700.5576171875 414.7069091796875 683.2808837890625Q414.7069091796875 664.6751708984375 431.983642578125 664.6751708984375H503.74853515625Q522.354248046875 664.6751708984375 522.354248046875 683.2808837890625Q522.354248046875 700.5576171875 503.74853515625 700.5576171875Z" fill="#000000" />
<path d="M236 701Q217 701 217 683Q217 665 236 665H310Q328 665 328 683Q328 701 310 701Z" fill="#000000" />
<path d="M1080 -34Q1080 -53 1099 -53Q1117 -53 1117 -34V809Q1117 827 1099 827Q1080 827 1080 809Z" fill="#000000" />
<path d="M433 683Q433 746 370 746Q344 746 326 727Q308 709 308 683Q308 657 326 639Q344 621 370 621Q433 621 433 683ZM408 683Q408 668 397 657Q386 646 370 646Q333 646 333 683Q333 699 344 710Q355 721 370 721Q386 721 397 710Q408 699 408 683Z" fill="#000000" />
<path d="M628 683Q628 746 565 746Q503 746 503 683Q503 657 521 639Q539 621 565 621Q628 621 628 683ZM603 683Q603 668 592 657Q581 646 565 646Q528 646 528 683Q528 699 539 710Q550 721 565 721Q581 721 592 710Q603 699 603 683Z" fill="#000000" />
<path d="M754 683Q754 746 691 746Q629 746 629 683Q629 621 691 621Q754 621 754 683ZM729 683Q729 668 718 657Q707 646 691 646Q676 646 665 657Q654 668 654 683Q654 699 665 710Q676 721 691 721Q729 721 729 683Z" fill="#000000" />
<path d="M892 683Q892 746 830 746Q767 746 767 683Q767 621 830 621Q855 621 874 639Q892 657 892 683ZM867 683Q867 668 856 657Q845 646 830 646Q792 646 792 683Q792 721 830 721Q867 721 867 683Z" fill="#000000" />
<path d="M1065 506Q1046 506 1046 488Q1046 470 1065 470H1079Q1097 470 1097 488Q1097 506 1079 506Z" fill="#000000" />
<path d="M927 506Q909 506 909 488Q909 470 927 470H945Q963 470 963 488Q963 506 945 506Z" fill="#000000" />
<path d="M632 506Q614 506 614 488Q614 470 632 470H805Q824 470 824 488Q824 506 805 506Z" fill="#000000" />
<path d="M498 506Q480 506 480 488Q480 470 498 470H511Q530 470 530 488Q530 506 511 506Z" fill="#000000" />
<path d="M236 506Q217 506 217 488Q217 470 236 470H378Q397 470 397 488Q397 506 378 506Z" fill="#000000" />
<path d="M501 488Q501 551 439 551Q413 551 395 532Q376 514 376 488Q376 462 395 444Q413 426 439 426Q501 426 501 488ZM476 488Q476 473 465 462Q454 451 439 451Q401 451 401 488Q401 504 412 515Q423 526 439 526Q476 526 476 488Z" fill="#000000" />
<path d="M633 488Q633 551 571 551Q545 551 527 532Q508 514 508 488Q508 462 527 444Q545 426 571 426Q597 426 615 444Q633 462 633 488ZM608 488Q608 473 597 462Q586 451 571 451Q533 451 533 488Q533 526 571 526Q608 526 608 488Z" fill="#000000" />
<path d="M929 488Q929 551 867 551Q841 551 822 532Q804 514 804 488Q804 462 822 444Q841 426 867 426Q929 426 929 488ZM904 488Q904 473 893 462Q882 451 867 451Q829 451 829 488Q829 526 867 526Q882 526 893 515Q904 504 904 488Z" fill="#000000" />
<path d="M1067 488Q1067 514 1049 532Q1031 551 1005 551Q979 551 961 532Q942 514 942 488Q942 462 961 444Q979 426 1005 426Q1067 426 1067 488ZM1042 488Q1042 473 1031 462Q1020 451 1005 451Q989 451 978 462Q967 473 967 488Q967 526 1005 526Q1020 526 1031 515Q1042 504 1042 488Z" fill="#000000" />
<path d="M1004 311Q986 311 986 293Q986 275 1004 275H1079Q1097 275 1097 293Q1097 311 1079 311Z" fill="#000000" />
<path d="M815 311Q796 311 796 293Q796 275 815 275H881Q900 275 900 293Q900 311 881 311Z" fill="#000000" />
<path d="M632 311Q613 311 613 293Q613 275 632 275H693Q711 275 711 293Q711 311 693 311Z" fill="#000000" />
<path d="M500 311Q481 311 481 293Q481 275 500 275H510Q528 275 528 293Q528 311 510 311Z" fill="#000000" />
<path d="M236.150146484375 311.1778564453125Q217.21856689453125 311.1778564453125 217.21856689453125 293.24267578125Q217.21856689453125 275.3074951171875 236.150146484375 275.3074951171875H377.6387939453125Q396.57037353515625 275.3074951171875 396.57037353515625 293.24267578125Q396.57037353515625 311.1778564453125 377.6387939453125 311.1778564453125Z" fill="#000000" />
<path d="M501 293Q501 319 483 337Q465 356 439 356Q376 356 376 293Q376 231 439 231Q465 231 483 249Q501 267 501 293ZM476 293Q476 278 465 267Q454 256 439 256Q401 256 401 293Q401 309 412 320Q423 331 439 331Q454 331 465 320Q476 309 476 293Z" fill="#000000" />
<path d="M633 293Q633 319 615 337Q597 356 571 356Q508 356 508 293Q508 231 571 231Q597 231 615 249Q633 267 633 293ZM608 293Q608 256 571 256Q533 256 533 293Q533 309 544 320Q555 331 571 331Q586 331 597 320Q608 309 608 293Z" fill="#000000" />
<path d="M816 293Q816 319 797 337Q779 356 753 356Q727 356 709 337Q691 319 691 293Q691 231 753 231Q779 231 797 249Q816 267 816 293ZM791 293Q791 256 753 256Q738 256 727 267Q716 278 716 293Q716 309 727 320Q738 331 753 331Q791 331 791 293Z" fill="#000000" />
<path d="M1005 293Q1005 319 987 337Q969 356 943 356Q880 356 880 293Q880 267 899 249Q917 231 943 231Q969 231 987 249Q1005 267 1005 293ZM980 293Q980 256 943 256Q927 256 916 267Q905 278 905 293Q905 309 916 320Q927 331 943 331Q980 331 980 293Z" fill="#000000" />
</g></svg>