<svg xmlns="http://www.w3.org/2000/svg" viewBox="0 0 2048 2048">
<g transform="matrix(1 0 0 -1 0 2048)">
<path d="M1013 632Q1025 639 1040.5 650.5Q1056 662 1067.0 681.5Q1078 701 1078 732Q1078 756 1063.5 778.0Q1049 800 1028.0 817.5Q1007 835 988.0 844.5Q969 854 960 853Q942 851 924.0 849.0Q906 847 886.5 831.5Q867 816 847 774Z" fill="#d0cfce" />
<path d="M307.0 632.0Q295.0 639.0 279.5 650.5Q264.0 662.0 253.0 681.5Q242.0 701.0 242.0 732.0Q242.0 756.0 256.5 778.0Q271.0 800.0 292.0 817.5Q313.0 835.0 332.0 844.5Q351.0 854.0 360.0 853.0Q378.0 851.0 396.0 849.0Q414.0 847.0 433.5 831.5Q453.0 816.0 473.0 774.0Z" fill="#d0cfce" />
<path d="M1082 379Q1082 466 1049.0 542.5Q1016 619 958.0 677.0Q900 735 824.0 768.0Q748 801 660 801Q573 801 496.5 768.0Q420 735 362.0 677.0Q304 619 271.5 542.5Q239 466 239 379Q239 292 271.5 215.5Q304 139 362.0 81.0Q420 23 496.5 -10.0Q573 -43 660 -43Q748 -43 824.0 -10.0Q900 23 958.0 81.0Q1016 139 1049.0 215.5Q1082 292 1082 379Z" fill="#ffffff" />
<path d="M937 45Q928 61 912 52Q896 42 906 27L959 -62Q968 -78 984 -68Q999 -59 990 -43Z" fill="#000000" />
<path d="M414 27Q419 34 417 41Q416 47 408 52Q392 61 383 45L330 -43Q325 -51 327 -57Q328 -64 336 -68Q352 -78 361 -62Z" fill="#000000" />
<path d="M883 828Q877 822 876 816Q876 809 882 802Q894 789 908 801Q931 821 962 821Q996 821 1021 797Q1045 773 1045 739Q1045 714 1031 693Q1021 678 1037 668Q1052 658 1062 673Q1081 703 1081 739Q1081 788 1046 823Q1012 858 962 858Q917 858 883 828Z" fill="#000000" />
<path d="M412 801Q426 789 438 802Q444 809 444 816Q443 822 437 828Q403 858 358 858Q308 858 274 823Q239 788 239 739Q239 703 258 673Q263 666 269 664Q276 663 283 668Q291 673 292 679Q294 686 289 693Q275 714 275 739Q275 773 299 797Q324 821 358 821Q389 821 412 801Z" fill="#000000" />
<path d="M1100 380Q1100 562 971 691Q842 820 660 820Q478 820 349 691Q220 562 220 380Q220 198 349 69Q478 -60 660 -60Q842 -60 971 69Q1100 198 1100 380ZM1063 380Q1063 213 945 95Q827 -23 660 -23Q493 -23 375 95Q257 213 257 380Q257 547 375 665Q493 783 660 783Q827 783 945 665Q1063 547 1063 380Z" fill="#000000" />
<path d="M679 697Q679 715 660 715Q642 715 642 697V385Q642 367 660 367Q679 367 679 385Z" fill="#000000" />
<path d="M676 377Q686 393 669 403Q653 412 643 396L533 205Q524 189 540 179Q548 174 555 176Q561 178 566 186Z" fill="#000000" />
</g></svg>