<svg xmlns="http://www.w3.org/2000/svg" viewBox="0 0 2048 2048">
<g transform="matrix(1 0 0 -1 0 2048)">
<path d="M678 968Q678 986 660 986Q642 986 642 968V-196Q642 -214 660 -214Q678 -214 678 -196Z" fill="#000000" />
<path d="M713 368Q732 368 732 387Q732 405 713 405H607Q589 405 589 387Q589 368 607 368Z" fill="#000000" />
<path d="M713 460Q732 460 732 479Q732 497 713 497H607Q589 497 589 479Q589 460 607 460Z" fill="#000000" />
<path d="M713 276Q732 276 732 295Q732 313 713 313H607Q589 313 589 295Q589 276 607 276Z" fill="#000000" />
<path d="M469 -11Q451 -11 451 -29Q451 -48 469 -48H853Q871 -48 871 -29Q871 -11 853 -11Z" fill="#000000" />
<path d="M433 770Q414 770 414 752Q414 733 433 733H887Q906 733 906 752Q906 770 887 770Z" fill="#000000" />
<path d="M658 972Q760 913 836.5 823.5Q913 734 955.0 622.5Q997 511 997 385Q997 260 955.0 149.0Q913 38 837.5 -51.5Q762 -141 662 -200H660Q559 -141 483.0 -51.5Q407 38 365.0 150.0Q323 262 323 387Q323 511 364.5 622.5Q406 734 481.5 823.5Q557 913 658 972Z" fill="#a57939" />
<path d="M765 897Q832 834 884.5 752.0Q937 670 967.0 576.0Q997 482 997 383Q997 259 955.5 147.5Q914 36 838.5 -53.5Q763 -143 662 -202H660Q630 -184 602.0 -163.5Q574 -143 548 -119Q637 -72 709.5 -0.5Q782 71 831.5 163.5Q881 256 900 363Q917 457 903.5 552.5Q890 648 854.0 736.0Q818 824 765 897Z" fill="#6a462f" />
<path d="M678 968Q678 986 660 986Q642 986 642 968V-196Q642 -214 660 -214Q678 -214 678 -196Z" fill="#ffffff" />
<path d="M713 368Q732 368 732 387Q732 405 713 405H607Q589 405 589 387Q589 368 607 368Z" fill="#ffffff" />
<path d="M713 460Q732 460 732 479Q732 497 713 497H607Q589 497 589 479Q589 460 607 460Z" fill="#ffffff" />
<path d="M713 276Q732 276 732 295Q732 313 713 313H607Q589 313 589 295Q589 276 607 276Z" fill="#ffffff" />
<path d="M469 -11Q451 -11 451 -29Q451 -48 469 -48H853Q871 -48 871 -29Q871 -11 853 -11Z" fill="#ffffff" />
<path d="M433 770Q414 770 414 752Q414 733 433 733H887Q906 733 906 752Q906 770 887 770Z" fill="#ffffff" />
<path d="M658 991Q656 991 653 990Q649 989 646 986Q490 894 399 738Q304 576 304 387Q304 198 400 35Q493 -124 651 -216Q655 -218 660 -218H662Q667 -218 671 -216Q828 -124 920 34Q1016 196 1016 385Q1016 575 920 738Q828 894 671 986Q665 992 658 991ZM658 950Q803 864 888 719Q979 565 979 385Q979 206 889 52Q804 -93 661 -179Q517 -93 432 53Q341 208 341 387Q341 566 431 719Q515 864 658 950Z" fill="#000000" />
</g></svg>