<svg xmlns="http://www.w3.org/2000/svg" viewBox="0 0 2048 2048">
<g transform="matrix(1 0 0 -1 0 2048)">
<path d="M660 807Q747 807 823.5 774.0Q900 741 958.0 683.0Q1016 625 1049.0 548.5Q1082 472 1082 385Q1082 298 1049.0 221.5Q1016 145 958.0 87.0Q900 29 823.5 -4.0Q747 -37 660 -37Q573 -37 496.5 -4.0Q420 29 362.0 87.0Q304 145 271.0 221.5Q238 298 238 385Q238 472 271.0 548.5Q304 625 362.0 683.0Q420 741 496.5 774.0Q573 807 660 807Z" fill="#fcea2b" />
<path d="M1100 385Q1100 567 971 696Q842 825 660 825Q478 825 349 696Q220 567 220 385Q220 203 349 74Q478 -55 660 -55Q842 -55 971 74Q1100 203 1100 385ZM1063 385Q1063 218 945 100Q827 -18 660 -18Q493 -18 375 100Q257 218 257 385Q257 552 375 670Q493 788 660 788Q827 788 945 670Q1063 552 1063 385Z" fill="#000000" />
<path d="M550.10888671875 441.170654296875Q550.10888671875 464.26025390625 533.9461669921875 480.4229736328125Q517.783447265625 496.585693359375 494.69384765625 496.585693359375Q471.604248046875 496.585693359375 455.4415283203125 480.4229736328125Q439.27880859375 464.26025390625 439.27880859375 441.170654296875Q439.27880859375 418.0810546875 455.4415283203125 401.9183349609375Q471.604248046875 385.755615234375 494.69384765625 385.755615234375Q517.783447265625 385.755615234375 533.9461669921875 401.9183349609375Q550.10888671875 418.0810546875 550.10888671875 441.170654296875Z" fill="#000000" />
<path d="M880.10888671875 441.170654296875Q880.10888671875 464.26025390625 863.9461669921875 480.4229736328125Q847.783447265625 496.585693359375 824.69384765625 496.585693359375Q801.604248046875 496.585693359375 785.4415283203125 480.4229736328125Q769.27880859375 464.26025390625 769.27880859375 441.170654296875Q769.27880859375 418.0810546875 785.4415283203125 401.9183349609375Q801.604248046875 385.755615234375 824.69384765625 385.755615234375Q847.783447265625 385.755615234375 863.9461669921875 401.9183349609375Q880.10888671875 418.0810546875 880.10888671875 441.170654296875Z" fill="#000000" />
<path d="M431 621Q415 630 406 614Q397 598 413 589L541 515Q557 506 566 522Q575 538 559 547Z" fill="#000000" />
<path d="M907.6766967773438 588.5513305664062Q923.5533447265625 597.7662963867188 914.33837890625 613.6429443359375Q905.1234130859375 629.5195922851562 889.2467651367188 620.3046264648438L760.5105590820312 547.6002807617188Q744.6339111328125 538.3853149414062 753.848876953125 522.5086669921875Q763.0638427734375 506.63201904296875 778.9404907226562 515.8469848632812Z" fill="#000000" />
<path d="M533 273Q524 269 522 263Q520 256 524 248Q533 232 549 240Q584 257 666 256Q740 255 771 240Q787 232 796 248Q804 265 787 273Q749 292 666 293Q575 294 533 273Z" fill="#000000" />
</g></svg>