<svg xmlns="http://www.w3.org/2000/svg" viewBox="0 0 2048 2048">
<g transform="matrix(1 0 0 -1 0 2048)">
<path d="M660 807Q747 807 823.5 774.0Q900 741 958.0 683.0Q1016 625 1049.0 548.5Q1082 472 1082 385Q1082 298 1049.0 221.5Q1016 145 958.0 87.0Q900 29 823.5 -4.0Q747 -37 660 -37Q573 -37 496.5 -4.0Q420 29 362.0 87.0Q304 145 271.0 221.5Q238 298 238 385Q238 472 271.0 548.5Q304 625 362.0 683.0Q420 741 496.5 774.0Q573 807 660 807Z" fill="#fcea2b" />
<path d="M513 202H807Q807 202 807.0 215.5Q807 229 807.0 242.5Q807 256 807 257Q788 267 751.5 271.0Q715 275 660 275Q605 275 568.5 271.0Q532 267 513 257Q512 256 512.0 242.0Q512 228 512.5 215.0Q513 202 513 202Z" fill="#ffffff" />
<path d="M1100 385Q1100 567 971 696Q842 825 660 825Q478 825 349 696Q220 567 220 385Q220 203 349 74Q478 -55 660 -55Q842 -55 971 74Q1100 203 1100 385ZM1063 385Q1063 218 945 100Q827 -18 660 -18Q493 -18 375 100Q257 218 257 385Q257 552 375 670Q493 788 660 788Q827 788 945 670Q1063 552 1063 385Z" fill="#000000" />
<path d="M550.10888671875 478.170654296875Q550.10888671875 501.26025390625 533.9461669921875 517.4229736328125Q517.783447265625 533.585693359375 494.69384765625 533.585693359375Q471.604248046875 533.585693359375 455.4415283203125 517.4229736328125Q439.27880859375 501.26025390625 439.27880859375 478.170654296875Q439.27880859375 455.0810546875 455.4415283203125 438.9183349609375Q471.604248046875 422.755615234375 494.69384765625 422.755615234375Q517.783447265625 422.755615234375 533.9461669921875 438.9183349609375Q550.10888671875 455.0810546875 550.10888671875 478.170654296875Z" fill="#000000" />
<path d="M880.10888671875 478.170654296875Q880.10888671875 501.26025390625 863.9461669921875 517.4229736328125Q847.783447265625 533.585693359375 824.69384765625 533.585693359375Q801.604248046875 533.585693359375 785.4415283203125 517.4229736328125Q769.27880859375 501.26025390625 769.27880859375 478.170654296875Q769.27880859375 455.0810546875 785.4415283203125 438.9183349609375Q801.604248046875 422.755615234375 824.69384765625 422.755615234375Q847.783447265625 422.755615234375 863.9461669921875 438.9183349609375Q880.10888671875 455.0810546875 880.10888671875 478.170654296875Z" fill="#000000" />
<path d="M495 201Q496 183 513 183H807Q824 183 825 201Q827 265 817 272Q816 272 815 273Q777 293 660 293Q543 293 505 273Q503 272 502 271Q492 263 495 201ZM531 220Q531 224 531 229Q531 238 531 244Q566 257 660 257Q754 257 789 244Q789 238 789 229Q789 225 789 220Z" fill="#000000" />
<path d="M431.484375 617.3846435546875Q415.14288330078125 624.4600219726562 408.0675048828125 608.1185302734375Q400.02490234375 591.5224609375 416.6209716796875 583.4798583984375Q469.5654296875 559.1485595703125 524.9006958007812 576.8157348632812Q570.563720703125 591.9371337890625 598.2045288085938 632.3076782226562Q608.9453125 646.51123046875 594.7417602539062 657.2520141601562Q579.5709838867188 667.7382202148438 568.8302001953125 653.53466796875Q547.8577880859375 623.193115234375 513.546875 612.0938720703125Q471.75274658203125 597.9907836914062 431.484375 617.3846435546875Z" fill="#000000" />
<path d="M903 584Q920 592 912 608Q908 616 902 619Q896 621 888 617Q848 598 807 612Q772 623 751 653Q740 668 725 657Q718 652 717 646Q716 639 721 632Q749 592 795 577Q850 559 903 584Z" fill="#000000" />
</g></svg>