<svg xmlns="http://www.w3.org/2000/svg" viewBox="0 0 2048 2048">
<g transform="matrix(1 0 0 -1 0 2048)">
<path d="M220 825V-52H1100V825Z" fill="#b399c8" />
<path d="M201.3607177734375 -54.7630615234375Q201.3607177734375 -73.0552978515625 219.6529541015625 -73.0552978515625H1099.7127685546875Q1118.0050048828125 -73.0552978515625 1118.0050048828125 -54.7630615234375V825.2967529296875Q1118.0050048828125 843.5889892578125 1099.7127685546875 843.5889892578125H219.6529541015625Q201.3607177734375 843.5889892578125 201.3607177734375 825.2967529296875ZM237.9451904296875 807.0045166015625H1081.4205322265625V-36.4708251953125H237.9451904296875Z" fill="#000000" />
<path d="M927 289Q927 277 935 269Q943 261 955 262Q966 262 974 270Q982 278 982 290Q981 313 972 335Q949 387 895 386Q873 386 853 375Q809 350 809 292Q809 267 794 258Q785 253 778 254H777Q747 253 746 296Q746 353 703 378Q682 390 660 390Q606 390 584 339Q574 317 574 294Q574 267 558 259Q550 254 542 254Q512 253 511 296Q511 354 468 379Q447 391 425 391Q371 391 348 339Q339 317 338 294Q338 282 346 274Q354 266 365 266Q377 266 385 274Q393 281 393 293Q394 336 424 336H425Q432 336 440 331Q456 322 456 295Q456 272 466 250Q488 198 542 199Q564 199 585 211Q629 235 629 293Q629 335 660 335Q668 335 676 330Q691 321 691 294Q692 272 701 249Q724 198 778 199Q800 198 821 210Q864 235 864 292Q864 318 879 327Q888 331 895 331H896Q926 332 927 289Z" fill="#000000" />
<path d="M927 470Q927 458 935 450Q943 442 955 443Q966 443 974 451Q982 459 982 471Q981 494 972 516Q949 568 895 567Q873 567 853 556Q809 531 809 473Q809 448 794 439Q785 434 778 434H777Q750 434 746 477Q746 534 703 559Q682 571 660 571Q606 571 584 520Q574 498 574 475Q574 448 558 440Q550 435 542 435Q512 434 511 477Q511 535 468 560Q447 572 425 572Q371 572 348 520Q339 498 338 475Q338 463 346 455Q354 447 365 447Q377 447 385 454Q393 462 393 474Q394 517 424 517H425Q432 517 440 512Q456 503 456 476Q456 453 466 431Q488 379 542 380Q564 380 585 392Q629 416 629 474Q629 516 660 516Q668 516 676 511Q691 502 691 476Q691 476 691 476Q691 476 691 475Q691 475 691 474Q698 378 778 379Q800 379 821 391Q864 415 864 473Q864 499 879 508Q888 512 895 512H896Q926 513 927 470ZM732 474 692 469Q692 471 691 474Q691 474 691 474Q691 475 691 475ZM706 478H691Q691 477 691 476Q691 476 691 476Z" fill="#000000" />
</g></svg>