<svg xmlns="http://www.w3.org/2000/svg" viewBox="0 0 2048 2048">
<g transform="matrix(1 0 0 -1 0 2048)">
<path d="M220 825V-55H1100V825Z" fill="#b399c8" />
<path d="M633 155Q631 144 637 134Q644 125 655 123Q666 120 676 127Q685 133 687 145Q773 602 869 593Q889 588 897 568Q906 546 896 526Q891 516 895 505Q898 494 908 489Q918 484 929 488Q940 491 945 501Q967 544 948 589Q928 636 879 647L878 648H877Q787 659 726 513Q679 401 633 155Z" fill="#000000" />
<path d="M201.3607177734375 -54.7630615234375Q201.3607177734375 -73.0552978515625 219.6529541015625 -73.0552978515625H1099.7127685546875Q1118.0050048828125 -73.0552978515625 1118.0050048828125 -54.7630615234375V825.2967529296875Q1118.0050048828125 843.5889892578125 1099.7127685546875 843.5889892578125H219.6529541015625Q201.3607177734375 843.5889892578125 201.3607177734375 825.2967529296875ZM237.9451904296875 807.0045166015625H1081.4205322265625V-36.4708251953125H237.9451904296875Z" fill="#000000" />
<path d="M633 145Q635 133 644 127Q654 120 665 123Q676 125 683 134Q689 144 687 155Q641 401 594 513Q533 659 443 648H442L441 647Q392 636 372 589Q353 544 375 501Q380 491 391 488Q402 484 412 489Q422 494 425 505Q429 516 424 526Q414 546 423 568Q431 588 451 593Q547 602 633 145Z" fill="#000000" />
</g></svg>