<svg xmlns="http://www.w3.org/2000/svg" viewBox="0 0 2048 2048">
<g transform="matrix(1 0 0 -1 0 2048)">
<path d="M737.0 -55.0 994.0 217.0 926.0 280.0 788.0 134.0V437.0Q788.0 624.0 678.0 724.5Q568.0 825.0 362.0 825.0H344.0V723.0H362.0Q685.0 723.0 685.0 437.0V134.0L547.0 280.0L479.0 217.0Z" fill="#3f3f3f" />
<path d="M723 -68Q724 -68 724 -68Q737 -81 750 -68L1008 205Q1008 205 1008 205Q1020 219 1007 231L938 293Q925 306 913 293L807 181V437Q807 633 691 738Q575 843 362 843H344Q326 843 326 825V723Q326 705 344 705H362Q518 705 593 639Q667 573 667 437V180L561 293Q548 306 535 293L467 231Q467 231 466 231Q453 218 466 205ZM737 -28 505 216 546 254 672 122Q684 108 698 121Q703 126 703 134V437Q703 590 617 666Q532 742 362 742V807Q770 807 770 437V134Q770 116 788 116Q796 116 802 122L927 254L968 216Z" fill="#000000" />
</g></svg>