<svg xmlns="http://www.w3.org/2000/svg" viewBox="0 0 2048 2048">
<g transform="matrix(1 0 0 -1 0 2048)">
<path d="M1082 385Q1093 353 1088.0 327.5Q1083 302 1082 293Q1066 228 1023.5 181.5Q981 135 920.0 107.0Q859 79 787.5 69.0Q716 59 642.0 66.5Q568 74 500.0 99.0Q432 124 377.0 166.0Q322 208 288.5 267.0Q255 326 252 402Q249 459 274.5 509.5Q300 560 347 591Q348 591 348 592Q379 614 406.5 626.5Q434 639 458 647Q493 658 534.0 666.0Q575 674 605 678Q663 687 704.0 685.0Q745 683 770 678Q806 672 826.5 663.0Q847 654 862 642Q869 636 881.0 622.0Q893 608 898 587Q901 577 900.5 564.5Q900 552 898 532Q896 505 894.5 495.0Q893 485 898 477Q905 467 916.0 463.5Q927 460 935 458Q946 456 953.5 457.0Q961 458 972 458Q977 458 1000.5 456.5Q1024 455 1045 440Q1063 428 1070.5 411.5Q1078 395 1082 385ZM701 493H750Q771 493 786 508Q801 523 801 543Q801 564 786.0 579.0Q771 594 750 594H701Q679 594 664.5 579.0Q650 564 650 543Q650 522 664.5 507.5Q679 493 701 493Z" fill="#a57939" />
<path d="M421.31304931640625 440.00860595703125Q421.31304931640625 451.29638671875 417.02655029296875 461.2982177734375Q412.74005126953125 471.300048828125 405.167236328125 478.87286376953125Q397.59442138671875 486.4456787109375 387.6640319824219 490.732177734375Q377.733642578125 495.0186767578125 366.302978515625 495.0186767578125Q354.872314453125 495.0186767578125 344.9419250488281 490.732177734375Q335.01153564453125 486.4456787109375 327.438720703125 478.87286376953125Q319.86590576171875 471.300048828125 315.57940673828125 461.2982177734375Q311.29290771484375 451.29638671875 311.29290771484375 440.00860595703125Q311.29290771484375 428.57794189453125 315.57940673828125 418.57611083984375Q319.86590576171875 408.57427978515625 327.438720703125 401.00146484375Q335.01153564453125 393.42864990234375 344.9419250488281 389.2135925292969Q354.872314453125 384.99853515625 366.302978515625 384.99853515625Q377.733642578125 384.99853515625 387.6640319824219 389.2135925292969Q397.59442138671875 393.42864990234375 405.167236328125 401.00146484375Q412.74005126953125 408.57427978515625 417.02655029296875 418.57611083984375Q421.31304931640625 428.57794189453125 421.31304931640625 440.00860595703125Z" fill="#61b2e4" />
<path d="M513.3130493164062 275.00860595703125Q513.3130493164062 286.29638671875 509.02655029296875 296.2982177734375Q504.74005126953125 306.300048828125 497.167236328125 313.87286376953125Q489.59442138671875 321.4456787109375 479.6640319824219 325.732177734375Q469.733642578125 330.0186767578125 458.302978515625 330.0186767578125Q446.872314453125 330.0186767578125 436.9419250488281 325.732177734375Q427.01153564453125 321.4456787109375 419.438720703125 313.87286376953125Q411.86590576171875 306.300048828125 407.57940673828125 296.2982177734375Q403.29290771484375 286.29638671875 403.29290771484375 275.00860595703125Q403.29290771484375 263.57794189453125 407.57940673828125 253.57611083984375Q411.86590576171875 243.57427978515625 419.438720703125 236.00146484375Q427.01153564453125 228.42864990234375 436.9419250488281 224.21359252929688Q446.872314453125 219.99853515625 458.302978515625 219.99853515625Q469.733642578125 219.99853515625 479.6640319824219 224.21359252929688Q489.59442138671875 228.42864990234375 497.167236328125 236.00146484375Q504.74005126953125 243.57427978515625 509.02655029296875 253.57611083984375Q513.3130493164062 263.57794189453125 513.3130493164062 275.00860595703125Z" fill="#5c9e31" />
<path d="M696.3130493164062 220.00860595703125Q696.3130493164062 231.29638671875 692.0265502929688 241.2982177734375Q687.7400512695312 251.300048828125 680.167236328125 258.87286376953125Q672.5944213867188 266.4456787109375 662.6640319824219 270.732177734375Q652.733642578125 275.0186767578125 641.302978515625 275.0186767578125Q629.872314453125 275.0186767578125 619.9419250488281 270.732177734375Q610.0115356445312 266.4456787109375 602.438720703125 258.87286376953125Q594.8659057617188 251.300048828125 590.5794067382812 241.2982177734375Q586.2929077148438 231.29638671875 586.2929077148438 220.00860595703125Q586.2929077148438 208.57794189453125 590.5794067382812 198.57611083984375Q594.8659057617188 188.57427978515625 602.438720703125 181.00146484375Q610.0115356445312 173.42864990234375 619.9419250488281 169.21359252929688Q629.872314453125 164.99853515625 641.302978515625 164.99853515625Q652.733642578125 164.99853515625 662.6640319824219 169.21359252929688Q672.5944213867188 173.42864990234375 680.167236328125 181.00146484375Q687.7400512695312 188.57427978515625 692.0265502929688 198.57611083984375Q696.3130493164062 208.57794189453125 696.3130493164062 220.00860595703125Z" fill="#fcea2b" />
<path d="M880.3130493164062 238.00860595703125Q880.3130493164062 249.29638671875 876.0265502929688 259.2982177734375Q871.7400512695312 269.300048828125 864.167236328125 276.87286376953125Q856.5944213867188 284.4456787109375 846.6640319824219 288.732177734375Q836.733642578125 293.0186767578125 825.302978515625 293.0186767578125Q813.872314453125 293.0186767578125 803.9419250488281 288.732177734375Q794.0115356445312 284.4456787109375 786.438720703125 276.87286376953125Q778.8659057617188 269.300048828125 774.5794067382812 259.2982177734375Q770.2929077148438 249.29638671875 770.2929077148438 238.00860595703125Q770.2929077148438 226.57794189453125 774.5794067382812 216.57611083984375Q778.8659057617188 206.57427978515625 786.438720703125 199.00146484375Q794.0115356445312 191.42864990234375 803.9419250488281 187.21359252929688Q813.872314453125 182.99853515625 825.302978515625 182.99853515625Q836.733642578125 182.99853515625 846.6640319824219 187.21359252929688Q856.5944213867188 191.42864990234375 864.167236328125 199.00146484375Q871.7400512695312 206.57427978515625 876.0265502929688 216.57611083984375Q880.3130493164062 226.57794189453125 880.3130493164062 238.00860595703125Z" fill="#d22f27" />
<path d="M1099 391Q1084 435 1055 455Q1022 478 971 477Q967 476 959 476Q947 475 939 476Q938 476 938 476Q918 481 914 487Q912 489 914 505Q916 520 917 530Q920 574 916 591Q908 626 874 656Q840 685 773 696Q695 710 602 696Q511 684 453 664Q391 644 339 607Q338 607 337 606Q228 535 233 401Q240 249 366 151Q477 65 641 48Q801 31 928 91Q1068 156 1100 289Q1100 290 1100 291Q1100 292 1101 296Q1113 350 1099 391Q1099 391 1099 391ZM1064 379Q1075 348 1065 304Q1064 299 1064 297Q1036 182 912 124Q795 69 644 84Q491 100 388 180Q276 268 270 403Q265 516 357 576Q358 576 359 577Q407 611 464 629Q519 648 608 660Q695 673 767 660Q823 651 850 628Q875 606 880 583Q883 571 880 533Q879 523 878 509Q874 480 883 466Q896 448 930 441Q931 440 931 440Q945 438 963 439Q969 440 972 440Q1011 441 1035 425Q1053 412 1064 379ZM701 474H750Q779 474 799 495Q819 515 819 543Q819 612 750 612H701Q632 612 632 543Q632 515 652 495Q672 474 701 474ZM701 511Q687 511 678 521Q668 530 668 543Q668 557 678 566Q687 576 701 576H750Q764 576 773 566Q782 557 782 543Q782 530 773 521Q764 511 750 511ZM358 576Q359 577 360 578Q359 577 358 576Z" fill="#000000" />
<path d="M440 440Q440 513 367 513Q293 513 293 440Q293 367 367 367Q440 367 440 440ZM403 440Q403 403 367 403Q330 403 330 440Q330 477 367 477Q403 477 403 440Z" fill="#000000" />
<path d="M532 275Q532 348 459 348Q385 348 385 275Q385 202 459 202Q532 202 532 275ZM495 275Q495 238 459 238Q422 238 422 275Q422 312 459 312Q495 312 495 275Z" fill="#000000" />
<path d="M715 220Q715 293 642 293Q568 293 568 220Q568 147 642 147Q715 147 715 220ZM678 220Q678 183 642 183Q605 183 605 220Q605 257 642 257Q678 257 678 220Z" fill="#000000" />
<path d="M898 238Q898 311 825 311Q751 311 751 238Q751 165 825 165Q898 165 898 238ZM861 238Q861 201 825 201Q788 201 788 238Q788 275 825 275Q861 275 861 238Z" fill="#000000" />
</g></svg>