<svg xmlns="http://www.w3.org/2000/svg" viewBox="0 0 2048 2048">
<g transform="matrix(1 0 0 -1 0 2048)">
<path d="M128 91Q145 90 191.5 89.5Q238 89 305.0 89.5Q372 90 448.5 90.0Q525 90 601.0 90.5Q677 91 743.0 91.5Q809 92 855.0 91.5Q901 91 915 91Q952 89 994.0 87.0Q1036 85 1077.0 88.5Q1118 92 1151.0 105.5Q1184 119 1204.0 146.5Q1224 174 1224 222Q1224 241 1220.5 257.5Q1217 274 1202.5 289.0Q1188 304 1156.5 318.5Q1125 333 1069 347Q1048 353 1009.5 367.5Q971 382 925.0 402.0Q879 422 832.5 443.0Q786 464 747.0 482.0Q708 500 684.0 511.0Q660 522 660 522Q598 455 540.5 429.0Q483 403 432.5 405.5Q382 408 339.0 428.5Q296 449 261.5 475.5Q227 502 202 522Q189 532 171.5 531.5Q154 531 141.0 526.5Q128 522 128 522Q115 510 105.0 481.0Q95 452 88.0 417.5Q81 383 77.0 351.0Q73 319 73 299Q73 278 76.0 248.0Q79 218 85.5 186.5Q92 155 102.5 129.0Q113 103 128 91Z" fill="#9b9b9a" />
<path d="M128 204Q98 200 91.0 185.0Q84 170 89.0 152.0Q94 134 102.0 121.0Q110 108 110 108Q110 108 149.0 106.5Q188 105 254.0 102.5Q320 100 404.0 97.0Q488 94 579.0 91.0Q670 88 757.5 85.0Q845 82 919.5 80.0Q994 78 1044.5 76.5Q1095 75 1111 75Q1142 75 1162.0 91.0Q1182 107 1193.0 128.0Q1204 149 1208.0 165.0Q1212 181 1212 181L1115 180Q1115 180 1089.0 177.5Q1063 175 1019.0 171.0Q975 167 920.0 164.5Q865 162 806.5 162.5Q748 163 693.5 168.0Q639 173 596 185Q544 199 481.5 205.0Q419 211 357.0 212.0Q295 213 243.0 211.0Q191 209 159.5 206.5Q128 204 128 204Z" fill="#d0cfce" />
<path d="M122 73Q128 70 134 72Q190 70 539 72Q882 74 914 72Q921 72 936 71Q1071 63 1131 79Q1242 109 1242 222Q1242 275 1216 302Q1180 338 1074 365Q989 387 668 539Q656 544 647 535Q524 402 398 428Q326 443 224 527Q217 533 213 536Q179 564 120 539Q117 538 115 535Q88 509 70 421Q55 349 55 299Q55 134 112 81Q113 79 114 78Q117 74 122 73ZM136 109Q92 152 92 299Q92 346 106 414Q121 486 138 507Q174 521 190 508Q193 505 201 499Q310 409 390 392Q532 363 664 500Q978 351 1065 329Q1161 305 1189 276Q1205 260 1205 222Q1205 137 1121 115Q1068 100 938 108Q923 108 916 109Q883 111 539 109Q192 107 136 109Z" fill="#000000" />
<path d="M144 205Q135 203 131 198Q127 193 129 184Q132 166 150 169Q423 213 591 167Q766 119 1117 144Q1135 145 1134 163Q1132 182 1114 180Q769 156 601 202Q425 251 144 205Z" fill="#000000" />
<path d="M755.6942749023438 374.1224365234375Q767.2765502929688 386.97552490234375 753.2042236328125 398.811767578125Q739.1318969726562 410.64801025390625 727.5496215820312 397.794921875L634.8408203125 288.62005615234375Q623.0045776367188 274.5477294921875 637.076904296875 262.71148681640625Q649.9299926757812 251.12921142578125 662.9854736328125 264.94757080078125Z" fill="#000000" />
<path d="M848.386474609375 341.71533203125Q859.949951171875 355.25634765625 846.408935546875 366.81982421875Q832.0216064453125 379.10601806640625 820.4581298828125 365.56500244140625L755.41357421875 289.39678955078125Q743.1273803710938 275.00946044921875 757.5147094726562 262.7232666015625Q771.0557250976562 251.1597900390625 783.3419189453125 265.547119140625Z" fill="#000000" />
<path d="M122 73Q128 70 134 72Q190 70 539 72Q882 74 914 72Q921 72 936 71Q1071 63 1131 79Q1242 109 1242 222Q1242 275 1216 302Q1180 338 1074 365Q989 387 668 539Q656 544 647 535Q524 402 398 428Q326 443 224 527Q217 533 213 536Q179 564 120 539Q117 538 115 535Q88 509 70 421Q55 349 55 299Q55 134 112 81Q113 79 114 78Q117 74 122 73ZM136 109Q92 152 92 299Q92 346 106 414Q121 486 138 507Q174 521 190 508Q193 505 201 499Q310 409 390 392Q532 363 664 500Q978 351 1065 329Q1161 305 1189 276Q1205 260 1205 222Q1205 137 1121 115Q1068 100 938 108Q923 108 916 109Q883 111 539 109Q192 107 136 109Z" fill="#000000" />
</g></svg>