<svg xmlns="http://www.w3.org/2000/svg" viewBox="0 0 2048 2048">
<g transform="matrix(1 0 0 -1 0 2048)">
<path d="M1099.303466796875 -73.3028564453125Q1107.638427734375 -73.3028564453125 1112.8477783203125 -68.093505859375Q1118.05712890625 -62.8841552734375 1118.05712890625 -54.5491943359375V824.7891845703125Q1118.05712890625 833.1241455078125 1112.8477783203125 838.33349609375Q1107.638427734375 843.5428466796875 1099.303466796875 843.5428466796875H219.965087890625Q211.630126953125 843.5428466796875 206.4207763671875 838.33349609375Q201.21142578125 833.1241455078125 201.21142578125 824.7891845703125V-54.5491943359375Q201.21142578125 -62.8841552734375 206.4207763671875 -68.093505859375Q211.630126953125 -73.3028564453125 219.965087890625 -73.3028564453125Z" fill="#61b2e4" />
<path d="M741 355 681 396 662 375 728 338Q724 349 727.5 352.0Q731 355 736.0 355.0Q741 355 741 355Z" fill="#ffffff" />
<path d="M558.0 355.0 618.0 396.0 637.0 375.0 571.0 338.0Q575.0 349.0 571.5 352.0Q568.0 355.0 563.0 355.0Q558.0 355.0 558.0 355.0Z" fill="#ffffff" />
<path d="M829 298Q838 291 849 292Q860 292 868 301Q875 310 874 321Q874 332 865 340Q760 431 651 424Q538 431 433 340Q424 332 424 321Q423 310 430 301Q438 292 449 292Q460 291 469 298Q558 375 649 369Q651 369 653 369Q740 375 829 298Z" fill="#ffffff" />
<path d="M568 330H733L713 404L605 403L568 330Z" fill="#ffffff" />
<path d="M587 337 484 132Q484 132 485.0 125.5Q486 119 491.5 112.5Q497 106 510 106Q519 106 536.0 118.0Q553 130 570.5 145.0Q588 160 600.0 171.5Q612 183 612 183H664H638H689Q689 183 701.5 171.5Q714 160 731.5 145.0Q749 130 765.5 118.0Q782 106 792 106Q805 106 810.5 112.5Q816 119 817.0 125.5Q818 132 818 132L715 337Z" fill="#ffffff" />
<path d="M612 183H689L741 235V286H561V235Z" fill="#ffffff" />
<path d="M740.591796875 550.3076171875Q740.591796875 566.1953125 734.5654296875 580.16552734375Q728.5390625 594.1357421875 717.947265625 604.7275390625Q707.35546875 615.3193359375 693.38525390625 621.345703125Q679.4150390625 627.3720703125 663.52734375 627.3720703125Q647.6396484375 627.3720703125 633.66943359375 621.345703125Q619.69921875 615.3193359375 609.107421875 604.7275390625Q598.515625 594.1357421875 592.4892578125 580.16552734375Q586.462890625 566.1953125 586.462890625 550.3076171875Q586.462890625 534.419921875 592.4892578125 520.44970703125Q598.515625 506.4794921875 609.107421875 495.8876953125Q619.69921875 485.2958984375 633.66943359375 479.26953125Q647.6396484375 473.2431640625 663.52734375 473.2431640625Q679.4150390625 473.2431640625 693.38525390625 479.26953125Q707.35546875 485.2958984375 717.947265625 495.8876953125Q728.5390625 506.4794921875 734.5654296875 520.44970703125Q740.591796875 534.419921875 740.591796875 550.3076171875Z" fill="#ffffff" />
<path d="M1100 -92Q1137 -92 1137 -55V825Q1137 862 1100 862H220Q183 862 183 825V-55Q183 -92 220 -92ZM1100 -55H220V825H1100Z" fill="#000000" />
<path d="M855 300Q866 286 880 297Q895 309 883 323Q828 393 734 420Q687 434 651 434Q614 434 568 420Q474 393 418 323Q413 316 413 310Q414 303 421 297Q436 286 447 300Q495 361 578 385Q620 397 651 398Q682 397 724 385Q806 361 855 300Z" fill="#000000" />
<path d="M731 346Q723 362 707 354Q690 346 699 329L799 129Q797 125 792 125Q774 125 702 196Q697 202 689 202H612Q605 202 599 196Q528 125 510 125Q504 125 503 129L603 329Q611 346 595 354Q587 358 581 356Q574 354 570 346L468 140Q466 136 466 132Q466 121 471 111Q482 88 510 88Q542 88 620 165H682Q760 88 792 88Q836 88 836 132Q836 136 834 140Z" fill="#000000" />
<path d="M599 170Q605 165 612 165H689Q697 165 702 170L754 222Q759 227 759 235V286Q759 304 741 304H561Q543 304 543 286V235Q543 227 548 222ZM620 202 579 242V268H722V242L682 202Z" fill="#000000" />
<path d="M759 550Q759 589 731 617Q703 645 664 645Q624 645 596 617Q568 589 568 550Q568 511 596 483Q624 455 664 455Q703 455 731 483Q759 511 759 550ZM722 550Q722 491 664 491Q605 491 605 550Q605 609 664 609Q722 609 722 550Z" fill="#000000" />
</g></svg>