<svg xmlns="http://www.w3.org/2000/svg" viewBox="0 0 2048 2048">
<g transform="matrix(1 0 0 -1 0 2048)">
<path d="M953 93Q880 28 807.5 3.0Q735 -22 668.5 -20.0Q602 -18 545.0 0.0Q488 18 446.0 42.0Q404 66 380.0 83.5Q356 101 356 101Q356 101 340.0 117.0Q324 133 305.5 161.5Q287 190 277.0 229.0Q267 268 278.5 316.0Q290 364 336 418Q336 418 336.0 437.5Q336 457 341.0 489.0Q346 521 360.5 559.5Q375 598 403.5 637.0Q432 676 479.5 709.0Q527 742 598 763Q651 779 706 764Q734 756 771.0 741.0Q808 726 845.5 700.5Q883 675 915.0 636.5Q947 598 966.5 544.0Q986 490 986 418Q986 418 997.0 405.5Q1008 393 1022.0 370.5Q1036 348 1045.0 317.0Q1054 286 1051.5 250.0Q1049 214 1026.5 174.0Q1004 134 953 93Z" fill="#fcea2b" />
<path d="M965 79Q1100 189 1063 322Q1045 383 1004 426Q1000 704 710 782Q651 798 593 781Q407 726 344 566Q314 491 317 424Q221 306 272 185Q298 124 345 87Q424 18 540 -18Q775 -90 965 79ZM942 108 953 93 941 107Q766 -49 551 17Q442 51 369 115L368 116Q328 147 306 200Q262 303 350 406L355 412L354 420Q349 481 378 553Q434 696 603 745Q651 760 701 746Q967 675 967 418V410L973 405Q1012 368 1027 312Q1058 202 942 108Z" fill="#fcea2b" />
<path d="M673 334Q625 334 606.0 321.5Q587 309 587.5 289.5Q588 270 601.0 248.5Q614 227 630.5 207.5Q647 188 660.0 176.0Q673 164 673 164Q721 208 740.0 238.5Q759 269 758.5 287.5Q758 306 745.0 316.0Q732 326 715.5 329.5Q699 333 686.0 333.5Q673 334 673 334Z" fill="#f1b31c" />
<path d="M565 744Q579 733 590 748Q596 755 595 762Q594 768 587 774L505 835Q498 840 492 839Q485 838 480 831Q469 816 483 805Z" fill="#000000" />
<path d="M608 772Q616 755 632 763Q640 767 643 773Q645 779 641 787L608 856Q601 873 584 865Q576 861 574 855Q571 849 575 841Z" fill="#000000" />
<path d="M671 768Q670 750 689 749Q698 749 702 753Q707 757 708 766L712 872Q712 881 708 886Q703 891 694 891Q676 892 675 873Z" fill="#000000" />
<path d="M586.3130493164062 451.00860595703125Q586.3130493164062 462.29638671875 582.0265502929688 472.2982177734375Q577.7400512695312 482.300048828125 570.167236328125 489.87286376953125Q562.5944213867188 497.4456787109375 552.6640319824219 501.732177734375Q542.733642578125 506.0186767578125 531.302978515625 506.0186767578125Q519.872314453125 506.0186767578125 509.9419250488281 501.732177734375Q500.01153564453125 497.4456787109375 492.438720703125 489.87286376953125Q484.86590576171875 482.300048828125 480.57940673828125 472.2982177734375Q476.29290771484375 462.29638671875 476.29290771484375 451.00860595703125Q476.29290771484375 439.57794189453125 480.57940673828125 429.57611083984375Q484.86590576171875 419.57427978515625 492.438720703125 412.00146484375Q500.01153564453125 404.42864990234375 509.9419250488281 400.2135925292969Q519.872314453125 395.99853515625 531.302978515625 395.99853515625Q542.733642578125 395.99853515625 552.6640319824219 400.2135925292969Q562.5944213867188 404.42864990234375 570.167236328125 412.00146484375Q577.7400512695312 419.57427978515625 582.0265502929688 429.57611083984375Q586.3130493164062 439.57794189453125 586.3130493164062 451.00860595703125Z" fill="#000000" />
<path d="M861.3130493164062 458.00860595703125Q861.3130493164062 469.29638671875 857.0265502929688 479.2982177734375Q852.7400512695312 489.300048828125 845.167236328125 496.87286376953125Q837.5944213867188 504.4456787109375 827.6640319824219 508.732177734375Q817.733642578125 513.0186767578125 806.302978515625 513.0186767578125Q794.872314453125 513.0186767578125 784.9419250488281 508.732177734375Q775.0115356445312 504.4456787109375 767.438720703125 496.87286376953125Q759.8659057617188 489.300048828125 755.5794067382812 479.2982177734375Q751.2929077148438 469.29638671875 751.2929077148438 458.00860595703125Q751.2929077148438 446.57794189453125 755.5794067382812 436.57611083984375Q759.8659057617188 426.57427978515625 767.438720703125 419.00146484375Q775.0115356445312 411.42864990234375 784.9419250488281 407.2135925292969Q794.872314453125 402.99853515625 806.302978515625 402.99853515625Q817.733642578125 402.99853515625 827.6640319824219 407.2135925292969Q837.5944213867188 411.42864990234375 845.167236328125 419.00146484375Q852.7400512695312 426.57427978515625 857.0265502929688 436.57611083984375Q861.3130493164062 446.57794189453125 861.3130493164062 458.00860595703125Z" fill="#000000" />
<path d="M965 79Q1100 189 1063 322Q1045 383 1004 426Q1000 704 710 782Q651 798 593 781Q407 726 344 566Q314 491 317 424Q221 306 272 185Q298 124 345 87Q424 18 540 -18Q775 -90 965 79ZM941 107Q940 107 940 106Q765 -48 551 17Q442 51 369 115Q368 116 368 116Q328 147 306 200Q262 303 350 406Q355 412 354 420Q349 481 378 553Q434 696 603 745Q651 760 701 746Q967 675 967 418Q967 410 973 405Q1012 368 1027 312Q1058 203 943 109Q942 108 941 107Z" fill="#000000" />
<path d="M672 352Q596 352 576 316Q559 286 585 240Q610 195 660 150Q672 138 685 150Q755 215 771 259Q788 304 757 330Q727 354 672 352ZM674 315Q715 317 733 302Q744 293 737 272Q725 239 673 189Q636 224 617 258Q601 286 608 298Q618 315 673 315Q673 315 674 315ZM660 151Q655 156 655 164Q655 156 660 151Q660 151 660 151Z" fill="#000000" />
</g></svg>