<svg xmlns="http://www.w3.org/2000/svg" viewBox="0 0 2048 2048">
<g transform="matrix(1 0 0 -1 0 2048)">
<path d="M186 -106 1121 -102 1130 475H190Z" fill="#d0cfce" />
<path d="M168 -106Q168 -125 186 -125L1121 -120Q1139 -120 1139 -102L1148 475Q1148 475 1148 475Q1148 493 1130 493H190Q172 493 172 475ZM204 -88 209 457H1111L1102 -84Z" fill="#d0cfce" />
<path d="M406.237060546875 366.76580810546875V297.72650146484375H917.64208984375V366.76580810546875Z" fill="#d0cfce" />
<path d="M442 470 620 903 920 780 738 363Z" fill="#ffffff" />
<path d="M629 -104 1134 367V-102Z" fill="#9b9b9a" />
<path d="M629 -123 1134 -120Q1153 -120 1153 -102L1152 367Q1152 386 1134 386Q1127 386 1121 381L617 -91Q611 -96 611 -104Q611 -123 629 -123ZM676 -86 1116 325V-84Z" fill="#9b9b9a" />
<path d="M403 350Q384 350 384 332Q384 314 403 314H919Q938 314 938 332Q938 350 919 350Z" fill="#9b9b9a" />
<path d="M801 493Q783 493 783 475Q783 457 801 457H1116V-74Q1116 -92 1134 -92Q1152 -92 1152 -74V475Q1152 493 1134 493Z" fill="#000000" />
<path d="M167 -74Q167 -92 186 -92Q204 -92 204 -74V457H434Q452 457 452 475Q452 493 434 493H186Q167 493 167 475Z" fill="#000000" />
<path d="M676 353Q693 346 700 363Q707 380 690 387L460 481L629 894L902 782L737 380Q730 363 747 356Q764 349 771 366L943 785Q949 802 933 809L626 935Q609 942 602 925L419 478Q412 461 429 454Z" fill="#000000" />
<path d="M402.17218017578125 386.1495361328125Q383.1640625 386.1495361328125 383.1640625 368.141845703125Q383.1640625 350.1341552734375 402.17218017578125 350.1341552734375H918.3926391601562Q937.4007568359375 350.1341552734375 937.4007568359375 368.141845703125Q937.4007568359375 386.1495361328125 918.3926391601562 386.1495361328125Z" fill="#000000" />
</g></svg>