<svg xmlns="http://www.w3.org/2000/svg" viewBox="0 0 2048 2048">
<g transform="matrix(1 0 0 -1 0 2048)">
<path d="M1094 869Q1098 869 1112.5 857.5Q1127 846 1137.5 830.0Q1148 814 1141 800Q1139 795 1125.5 781.5Q1112 768 1095.0 752.0Q1078 736 1065.0 723.5Q1052 711 1050 709Q1024 683 989 673L570 276Q554 298 534 316L936 696Q937 697 943.0 711.0Q949 725 959.5 741.5Q970 758 984 768Q992 772 1009.0 788.0Q1026 804 1045.5 822.5Q1065 841 1079.0 855.0Q1093 869 1094 869Z" fill="#a57939" />
<path d="M636 340Q634 339 632 336Q634 339 636 340Z" fill="#ea5a47" />
<path d="M611.51025390625 140.865478515625Q611.51025390625 186.255859375 594.293212890625 226.1680908203125Q577.076171875 266.080322265625 546.81591796875 296.340576171875Q516.5556640625 326.600830078125 476.6434326171875 343.81787109375Q436.731201171875 361.034912109375 391.3408203125 361.034912109375Q345.950439453125 361.034912109375 306.0382080078125 343.81787109375Q266.1259765625 326.600830078125 235.86572265625 296.340576171875Q205.60546875 266.080322265625 188.388427734375 226.1680908203125Q171.17138671875 186.255859375 171.17138671875 140.865478515625Q171.17138671875 95.47509765625 188.388427734375 55.5628662109375Q205.60546875 15.650634765625 235.86572265625 -14.609619140625Q266.1259765625 -44.869873046875 306.0382080078125 -62.0869140625Q345.950439453125 -79.303955078125 391.3408203125 -79.303955078125Q436.731201171875 -79.303955078125 476.6434326171875 -62.0869140625Q516.5556640625 -44.869873046875 546.81591796875 -14.609619140625Q577.076171875 15.650634765625 594.293212890625 55.5628662109375Q611.51025390625 95.47509765625 611.51025390625 140.865478515625Z" fill="#d0cfce" />
<path d="M292 137Q279 150 266 136Q260 130 260 123Q260 117 267 111L360 20Q373 7 386 20Q393 27 392 33Q392 40 386 46Z" fill="#000000" />
<path d="M1002 704Q984 703 984 685Q985 667 1003 667Q1029 668 1052 680Q1053 680 1053 681Q1069 690 1152 776Q1186 811 1151 846L1123 874Q1089 908 1054 874Q960 784 952 774Q951 773 951 772Q941 756 940 738Q939 734 936 731L529 334Q522 328 522 321Q522 315 529 308Q541 295 555 308L962 705Q974 717 976 734Q976 734 976 735Q977 744 981 752Q991 763 1079 848Q1088 857 1097 848L1125 820Q1134 811 1125 802Q1047 721 1034 712Q1019 704 1002 704Z" fill="#000000" />
<path d="M630 140Q630 239 560 309Q490 379 391 379Q293 379 223 309Q153 239 153 140Q153 42 223 -28Q293 -98 391 -98Q490 -98 560 -28Q630 42 630 140ZM593 140Q593 57 534 -2Q475 -61 391 -61Q308 -61 249 -2Q190 57 190 140Q190 224 249 283Q308 342 391 342Q475 342 534 283Q593 224 593 140Z" fill="#000000" />
</g></svg>