<svg xmlns="http://www.w3.org/2000/svg" viewBox="0 0 2048 2048">
<g transform="matrix(1 0 0 -1 0 2048)">
<path d="M184 679V77H1129V679Z" fill="#ffffff" />
<path d="M630 680V73H1044V680Z" fill="#b399c8" />
<path d="M671 646Q671 648 670 651Q666 663 653 663H371Q358 663 354 651Q353 648 353 646V109Q353 106 354 103Q358 91 371 91H653Q666 91 670 103Q671 106 671 109Z" fill="#d0cfce" />
<path d="M765 681Q746 681 746 663Q746 644 765 644H1091V109H765Q746 109 746 91Q746 72 765 72H1091Q1128 72 1128 109V644Q1128 681 1091 681Z" fill="#000000" />
<path d="M689 645Q689 651 687 656Q687 656 687 657Q679 681 652 681H371Q344 681 336 657Q336 656 336 656Q334 651 334 645V108Q334 103 336 97Q336 97 336 97Q344 72 371 72H652Q679 72 687 97Q687 97 687 97Q689 103 689 108ZM652 644V109H371V644ZM371 645ZM371 108ZM652 108Z" fill="#000000" />
<path d="M252 72Q270 72 270 91Q270 109 252 109H223V644H252Q270 644 270 663Q270 681 252 681H223Q186 681 186 644V109Q186 72 223 72Z" fill="#000000" />
<path d="M466.239501953125 395.13818359375Q448.270263671875 395.13818359375 448.270263671875 376.170654296875Q448.270263671875 358.201416015625 466.239501953125 358.201416015625H499.18310546875Q517.15234375 358.201416015625 517.15234375 376.170654296875Q517.15234375 395.13818359375 499.18310546875 395.13818359375Z" fill="#000000" />
<path d="M551 294Q569 294 569 313Q569 331 551 331H501V407Q501 423 517 423Q531 423 532 408Q534 390 553 392Q562 393 566 398Q570 403 569 412Q564 459 517 459Q495 459 479 444Q464 429 464 407V313Q464 294 482 294Z" fill="#000000" />
<path d="M976 423Q998 423 1014 438Q1029 454 1029 476V534Q1029 588 976 588Q923 588 923 534V476Q923 423 976 423ZM976 459Q959 459 959 476V534Q959 551 976 551Q993 551 993 534V476Q993 459 976 459Z" fill="#000000" />
<path d="M788 542Q784 524 802 520Q811 518 817 522Q822 525 824 534Q827 551 844 551Q853 551 859 545Q866 538 858 529L791 453Q779 439 793 427Q798 423 805 423H884Q902 423 902 441Q902 459 884 459H846L886 504Q917 539 885 571Q868 588 844 588Q797 588 788 542Z" fill="#000000" />
</g></svg>