<svg xmlns="http://www.w3.org/2000/svg" viewBox="0 0 2048 2048">
<g transform="matrix(1 0 0 -1 0 2048)">
<path d="M1192.3211669921875 385.45623779296875Q1192.3211669921875 495.15673828125 1150.7106323242188 591.6175231933594Q1109.10009765625 688.0783081054688 1035.9664306640625 761.2119750976562Q962.832763671875 834.3456420898438 866.3719787597656 875.9561767578125Q769.9111938476562 917.5667114257812 660.210693359375 917.5667114257812Q550.5101928710938 917.5667114257812 454.0494079589844 875.9561767578125Q357.588623046875 834.3456420898438 284.4549560546875 761.2119750976562Q211.3212890625 688.0783081054688 169.71075439453125 591.6175231933594Q128.1002197265625 495.15673828125 128.1002197265625 385.45623779296875Q128.1002197265625 275.7557373046875 169.71075439453125 179.29495239257812Q211.3212890625 82.83416748046875 284.4549560546875 9.70050048828125Q357.588623046875 -63.43316650390625 454.0494079589844 -105.043701171875Q550.5101928710938 -146.65423583984375 660.210693359375 -146.65423583984375Q769.9111938476562 -146.65423583984375 866.3719787597656 -105.043701171875Q962.832763671875 -63.43316650390625 1035.9664306640625 9.70050048828125Q1109.10009765625 82.83416748046875 1150.7106323242188 179.29495239257812Q1192.3211669921875 275.7557373046875 1192.3211669921875 385.45623779296875Z" fill="#ffffff" />
<path d="M986 3 1025 42Q907 159 907 367Q907 576 1054 724L1015 763Q852 599 852 367Q852 136 986 3Z" fill="#d0cfce" />
<path d="M304 763 265 724Q413 576 413 367Q413 157 280 25L319 -14Q468 134 468 367Q468 599 304 763Z" fill="#d0cfce" />
<path d="M930 843Q1008 797 1067.0 727.0Q1126 657 1159.0 570.0Q1192 483 1192 386Q1192 276 1150.5 179.5Q1109 83 1036.0 10.0Q963 -63 866.5 -104.5Q770 -146 660 -146Q545 -146 445.0 -100.5Q345 -55 272 22Q332 -12 400.0 -31.5Q468 -51 541 -51Q651 -51 747.5 -9.5Q844 32 917.0 105.0Q990 178 1031.5 274.5Q1073 371 1073 481Q1073 586 1035.0 679.0Q997 772 930 843Z" fill="#d0cfce" />
<path d="M1210 386Q1210 614 1049 775Q888 936 660 936Q432 936 271 775Q110 614 110 386Q110 158 271 -3Q432 -164 660 -164Q888 -164 1049 -3Q1210 158 1210 386ZM1173 386Q1173 173 1023 23Q873 -127 660 -127Q447 -127 297 23Q147 173 147 386Q147 599 297 749Q447 899 660 899Q873 899 1023 749Q1173 599 1173 386Z" fill="#000000" />
<path d="M1023 -4Q1036 -17 1049 -4Q1062 9 1049 22Q897 172 897 386Q897 598 1048 749Q1054 755 1054 762Q1054 768 1048 775Q1035 788 1022 775Q861 614 861 386Q861 157 1023 -4Z" fill="#000000" />
<path d="M298 775Q285 788 272 775Q259 762 272 749Q422 598 422 386Q422 173 271 22Q258 9 271 -4Q278 -10 284 -10Q291 -10 297 -4Q459 157 459 386Q459 614 298 775Z" fill="#000000" />
<path d="M851 411Q834 420 826 403Q818 387 834 379L871 360Q879 356 887 360L924 379Q940 387 932 403Q924 420 907 411L879 397Z" fill="#000000" />
<path d="M469 360Q477 356 483 358Q489 360 494 368Q502 385 485 393L449 411Q440 415 432 411L396 393Q387 389 385 383Q383 377 387 368Q396 352 412 360L440 374Z" fill="#000000" />
<path d="M451 236Q466 225 477 239Q488 254 473 265L441 290Q433 296 424 293L385 282Q376 279 373 274Q370 268 372 259Q377 242 395 247L426 255Z" fill="#000000" />
<path d="M408 126Q420 112 434 125Q441 131 441 137Q442 144 435 150L408 181Q402 188 393 187L352 184Q334 183 335 164Q336 155 341 151Q346 147 355 148L387 150Z" fill="#000000" />
<path d="M342 37Q348 20 366 26Q383 32 376 49L362 88Q359 97 350 99L311 111Q294 116 288 99Q286 90 289 84Q292 78 301 76L331 67Z" fill="#000000" />
<path d="M375.65985107421875 700.7955932617188Q394.2730712890625 705.655029296875 388.6766357421875 723.5922241210938Q383.7562255859375 740.7924194335938 366.5560302734375 735.8720092773438L326.44256591796875 724.862060546875Q317.84246826171875 722.40185546875 314.65057373046875 714.045654296875L300.22607421875 675.0297241210938Q293.84228515625 658.3173217773438 310.5546875 651.9335327148438Q327.943115234375 644.812744140625 334.38787841796875 662.9381713867188L345.55950927734375 692.1848754882812Z" fill="#000000" />
<path d="M432 595Q450 596 449 614Q448 633 430 632L389 630Q380 629 375 622L352 588Q341 573 356 562Q371 552 382 567L400 594Z" fill="#000000" />
<path d="M464.23199462890625 481.94097900390625Q481.958984375 478.67724609375 485.720703125 497.271240234375Q488.98443603515625 514.9982299804688 470.75946044921875 517.3949584960938L429.9744873046875 524.6783447265625Q420.677490234375 526.5592041015625 414.46160888671875 519.7521362304688L384.6361083984375 491.914794921875Q371.8353271484375 479.6656494140625 383.58648681640625 465.99786376953125Q390.3935546875 459.781982421875 397.08953857421875 459.39508056640625Q403.7855224609375 459.0081787109375 410.00140380859375 465.81524658203125L432.7440185546875 487.343505859375Z" fill="#000000" />
<path d="M869 536Q854 547 843 532Q837 525 838 518Q839 512 846 506L879 482Q886 476 895 478L935 490Q952 495 947 512Q945 521 939 524Q933 527 925 525L894 516Z" fill="#000000" />
<path d="M911.2775268554688 645.009765625Q899.542236328125 658.704345703125 884.9146728515625 646.6080322265625Q871.2200927734375 634.8727416992188 883.8883666992188 621.5391845703125L911.030029296875 590.2071533203125Q917.0781860351562 582.8933715820312 926.1970825195312 584.276611328125L966.9157104492188 587.1607055664062Q984.58154296875 588.6331787109375 984.0420532226562 606.6600341796875Q982.6588134765625 615.7789306640625 977.6937255859375 620.2937622070312Q972.7286376953125 624.80859375 963.6097412109375 623.4253540039062L932.3710327148438 620.9915161132812Z" fill="#000000" />
<path d="M980.2523193359375 737.864501953125Q974.12255859375 755.244873046875 956.3811645507812 748.18310546875Q947.6909790039062 745.1182250976562 945.5248413085938 739.5261840820312Q942.065673828125 733.3631591796875 946.423583984375 725.2439575195312L960.3960571289062 686.6041259765625Q963.4609375 677.9139404296875 972.2100219726562 675.5967407226562L1011.50537109375 663.5908203125Q1028.6425170898438 658.0244140625 1034.5699462890625 676.0935668945312Q1036.8871459960938 684.8426513671875 1033.6712036132812 690.3757934570312Q1030.4552612304688 695.908935546875 1021.7061767578125 698.2261352539062L991.159912109375 707.9148559570312Z" fill="#000000" />
<path d="M940.3401489257812 74.20440673828125Q921.7269287109375 69.344970703125 927.3233642578125 51.40777587890625Q932.2437744140625 34.20758056640625 949.4439697265625 39.12799072265625L989.5574340820312 50.137939453125Q998.1575317382812 52.59814453125 1001.3494262695312 60.954345703125L1015.77392578125 99.97027587890625Q1022.15771484375 116.68267822265625 1005.4453125 123.06646728515625Q988.056884765625 130.187255859375 981.6121215820312 112.06182861328125L970.4404907226562 82.81512451171875Z" fill="#000000" />
<path d="M888 175Q870 175 871 156Q871 138 890 139L931 141Q940 141 945 149L968 183Q978 198 963 208Q948 219 938 203L920 177Z" fill="#000000" />
<path d="M855.095703125 289.82708740234375Q837.5164794921875 293.72064208984375 834.3832397460938 274.948486328125Q830.4896850585938 257.3692626953125 849.2618408203125 254.23602294921875L889.7360229492188 247.32061767578125Q898.525634765625 245.37384033203125 905.1392211914062 252.10528564453125L934.9560546875 280.33538818359375Q947.9669189453125 292.8216552734375 935.4806518554688 305.83251953125Q923.210693359375 319.82000732421875 909.9835205078125 306.35711669921875L886.7802734375 284.85845947265625Z" fill="#000000" />
</g></svg>