<svg xmlns="http://www.w3.org/2000/svg" viewBox="0 0 2048 2048">
<g transform="matrix(1 0 0 -1 0 2048)">
<path d="M597.0865478515625 208.75445556640625Q597.0865478515625 212.54052734375 595.6504516601562 215.86965942382812Q594.21435546875 219.19879150390625 591.6903076171875 221.72283935546875Q589.166259765625 224.24688720703125 585.8371276855469 225.6829833984375Q582.5079956054688 227.11907958984375 578.721923828125 227.11907958984375Q574.9358520507812 227.11907958984375 571.6067199707031 225.6829833984375Q568.277587890625 224.24688720703125 565.7535400390625 221.72283935546875Q563.2294921875 219.19879150390625 561.7933959960938 215.86965942382812Q560.3572998046875 212.54052734375 560.3572998046875 208.75445556640625Q560.3572998046875 204.9683837890625 561.7933959960938 201.63925170898438Q563.2294921875 198.31011962890625 565.7535400390625 195.78607177734375Q568.277587890625 193.26202392578125 571.6067199707031 191.825927734375Q574.9358520507812 190.38983154296875 578.721923828125 190.38983154296875Q582.5079956054688 190.38983154296875 585.8371276855469 191.825927734375Q589.166259765625 193.26202392578125 591.6903076171875 195.78607177734375Q594.21435546875 198.31011962890625 595.6504516601562 201.63925170898438Q597.0865478515625 204.9683837890625 597.0865478515625 208.75445556640625Z" fill="#000000" />
<path d="M571.0865478515625 279.75445556640625Q571.0865478515625 283.54052734375 569.6504516601562 286.8696594238281Q568.21435546875 290.19879150390625 565.6903076171875 292.72283935546875Q563.166259765625 295.24688720703125 559.8371276855469 296.6829833984375Q556.5079956054688 298.11907958984375 552.721923828125 298.11907958984375Q548.9358520507812 298.11907958984375 545.6067199707031 296.6829833984375Q542.277587890625 295.24688720703125 539.7535400390625 292.72283935546875Q537.2294921875 290.19879150390625 535.7933959960938 286.8696594238281Q534.3572998046875 283.54052734375 534.3572998046875 279.75445556640625Q534.3572998046875 275.9683837890625 535.7933959960938 272.6392517089844Q537.2294921875 269.31011962890625 539.7535400390625 266.78607177734375Q542.277587890625 264.26202392578125 545.6067199707031 262.825927734375Q548.9358520507812 261.38983154296875 552.721923828125 261.38983154296875Q556.5079956054688 261.38983154296875 559.8371276855469 262.825927734375Q563.166259765625 264.26202392578125 565.6903076171875 266.78607177734375Q568.21435546875 269.31011962890625 569.6504516601562 272.6392517089844Q571.0865478515625 275.9683837890625 571.0865478515625 279.75445556640625Z" fill="#000000" />
<path d="M620.0865478515625 316.75445556640625Q620.0865478515625 320.54052734375 618.6504516601562 323.8696594238281Q617.21435546875 327.19879150390625 614.6903076171875 329.72283935546875Q612.166259765625 332.24688720703125 608.8371276855469 333.6829833984375Q605.5079956054688 335.11907958984375 601.721923828125 335.11907958984375Q597.9358520507812 335.11907958984375 594.6067199707031 333.6829833984375Q591.277587890625 332.24688720703125 588.7535400390625 329.72283935546875Q586.2294921875 327.19879150390625 584.7933959960938 323.8696594238281Q583.3572998046875 320.54052734375 583.3572998046875 316.75445556640625Q583.3572998046875 312.9683837890625 584.7933959960938 309.6392517089844Q586.2294921875 306.31011962890625 588.7535400390625 303.78607177734375Q591.277587890625 301.26202392578125 594.6067199707031 299.825927734375Q597.9358520507812 298.38983154296875 601.721923828125 298.38983154296875Q605.5079956054688 298.38983154296875 608.8371276855469 299.825927734375Q612.166259765625 301.26202392578125 614.6903076171875 303.78607177734375Q617.21435546875 306.31011962890625 618.6504516601562 309.6392517089844Q620.0865478515625 312.9683837890625 620.0865478515625 316.75445556640625Z" fill="#000000" />
<path d="M759.0865478515625 208.75445556640625Q759.0865478515625 212.54052734375 757.6504516601562 215.86965942382812Q756.21435546875 219.19879150390625 753.6903076171875 221.72283935546875Q751.166259765625 224.24688720703125 747.8371276855469 225.6829833984375Q744.5079956054688 227.11907958984375 740.721923828125 227.11907958984375Q736.9358520507812 227.11907958984375 733.6067199707031 225.6829833984375Q730.277587890625 224.24688720703125 727.7535400390625 221.72283935546875Q725.2294921875 219.19879150390625 723.7933959960938 215.86965942382812Q722.3572998046875 212.54052734375 722.3572998046875 208.75445556640625Q722.3572998046875 204.9683837890625 723.7933959960938 201.63925170898438Q725.2294921875 198.31011962890625 727.7535400390625 195.78607177734375Q730.277587890625 193.26202392578125 733.6067199707031 191.825927734375Q736.9358520507812 190.38983154296875 740.721923828125 190.38983154296875Q744.5079956054688 190.38983154296875 747.8371276855469 191.825927734375Q751.166259765625 193.26202392578125 753.6903076171875 195.78607177734375Q756.21435546875 198.31011962890625 757.6504516601562 201.63925170898438Q759.0865478515625 204.9683837890625 759.0865478515625 208.75445556640625Z" fill="#000000" />
<path d="M786.0865478515625 279.75445556640625Q786.0865478515625 283.54052734375 784.6504516601562 286.8696594238281Q783.21435546875 290.19879150390625 780.6903076171875 292.72283935546875Q778.166259765625 295.24688720703125 774.8371276855469 296.6829833984375Q771.5079956054688 298.11907958984375 767.721923828125 298.11907958984375Q763.9358520507812 298.11907958984375 760.6067199707031 296.6829833984375Q757.277587890625 295.24688720703125 754.7535400390625 292.72283935546875Q752.2294921875 290.19879150390625 750.7933959960938 286.8696594238281Q749.3572998046875 283.54052734375 749.3572998046875 279.75445556640625Q749.3572998046875 275.9683837890625 750.7933959960938 272.6392517089844Q752.2294921875 269.31011962890625 754.7535400390625 266.78607177734375Q757.277587890625 264.26202392578125 760.6067199707031 262.825927734375Q763.9358520507812 261.38983154296875 767.721923828125 261.38983154296875Q771.5079956054688 261.38983154296875 774.8371276855469 262.825927734375Q778.166259765625 264.26202392578125 780.6903076171875 266.78607177734375Q783.21435546875 269.31011962890625 784.6504516601562 272.6392517089844Q786.0865478515625 275.9683837890625 786.0865478515625 279.75445556640625Z" fill="#000000" />
<path d="M737.0865478515625 316.75445556640625Q737.0865478515625 320.54052734375 735.6504516601562 323.8696594238281Q734.21435546875 327.19879150390625 731.6903076171875 329.72283935546875Q729.166259765625 332.24688720703125 725.8371276855469 333.6829833984375Q722.5079956054688 335.11907958984375 718.721923828125 335.11907958984375Q714.9358520507812 335.11907958984375 711.6067199707031 333.6829833984375Q708.277587890625 332.24688720703125 705.7535400390625 329.72283935546875Q703.2294921875 327.19879150390625 701.7933959960938 323.8696594238281Q700.3572998046875 320.54052734375 700.3572998046875 316.75445556640625Q700.3572998046875 312.9683837890625 701.7933959960938 309.6392517089844Q703.2294921875 306.31011962890625 705.7535400390625 303.78607177734375Q708.277587890625 301.26202392578125 711.6067199707031 299.825927734375Q714.9358520507812 298.38983154296875 718.721923828125 298.38983154296875Q722.5079956054688 298.38983154296875 725.8371276855469 299.825927734375Q729.166259765625 301.26202392578125 731.6903076171875 303.78607177734375Q734.21435546875 306.31011962890625 735.6504516601562 309.6392517089844Q737.0865478515625 312.9683837890625 737.0865478515625 316.75445556640625Z" fill="#000000" />
<path d="M884 377Q874 377 867.0 370.0Q860 363 860 353V275Q860 265 867.0 258.0Q874 251 884 251Q894 251 901.0 258.0Q908 265 908 275V353Q908 363 901.0 370.0Q894 377 884 377Z" fill="#ffffff" />
<path d="M438 383Q428 383 421.0 376.0Q414 369 414 359V281Q414 271 421.0 264.0Q428 257 438 257Q448 257 455.0 264.0Q462 271 462 281V359Q462 369 455.0 376.0Q448 383 438 383Z" fill="#ffffff" />
<path d="M791 412Q795 412 800 414Q831 434 847.5 468.0Q864 502 860 539Q858 555 848 569Q831 586 807 589Q804 589 801.0 590.0Q798 591 796 591Q776 599 760 613Q753 618 749 621Q733 632 713.5 640.5Q694 649 673 640Q660 635 647 640Q646 640 645 641Q603 649 571 621Q568 619 565.5 617.0Q563 615 560 613Q544 599 524 591Q522 591 519.0 590.0Q516 589 513 589Q489 586 472 569Q462 555 460 539Q456 502 472.5 468.0Q489 434 520 414Q524 412 529 412Z" fill="#5c9e31" />
<path d="M816 435Q857 401 854 348Q854 329 852.5 297.0Q851 265 843.0 228.0Q835 191 817.5 156.0Q800 121 768.5 95.5Q737 70 687 61Q674 59 667 70L660 84L653 70Q646 59 633 61Q583 70 551.5 95.5Q520 121 502.5 156.0Q485 191 477.0 228.0Q469 265 467.5 297.0Q466 329 466 348Q463 401 504 435Q530 456 562.5 461.0Q595 466 622.5 463.5Q650 461 660 459Q670 461 697.5 463.5Q725 466 757.5 461.0Q790 456 816 435Z" fill="#186648" />
<path d="M597.0865478515625 208.75445556640625Q597.0865478515625 212.54052734375 595.6504516601562 215.86965942382812Q594.21435546875 219.19879150390625 591.6903076171875 221.72283935546875Q589.166259765625 224.24688720703125 585.8371276855469 225.6829833984375Q582.5079956054688 227.11907958984375 578.721923828125 227.11907958984375Q574.9358520507812 227.11907958984375 571.6067199707031 225.6829833984375Q568.277587890625 224.24688720703125 565.7535400390625 221.72283935546875Q563.2294921875 219.19879150390625 561.7933959960938 215.86965942382812Q560.3572998046875 212.54052734375 560.3572998046875 208.75445556640625Q560.3572998046875 204.9683837890625 561.7933959960938 201.63925170898438Q563.2294921875 198.31011962890625 565.7535400390625 195.78607177734375Q568.277587890625 193.26202392578125 571.6067199707031 191.825927734375Q574.9358520507812 190.38983154296875 578.721923828125 190.38983154296875Q582.5079956054688 190.38983154296875 585.8371276855469 191.825927734375Q589.166259765625 193.26202392578125 591.6903076171875 195.78607177734375Q594.21435546875 198.31011962890625 595.6504516601562 201.63925170898438Q597.0865478515625 204.9683837890625 597.0865478515625 208.75445556640625Z" fill="#fcea2b" />
<path d="M571.0865478515625 279.75445556640625Q571.0865478515625 283.54052734375 569.6504516601562 286.8696594238281Q568.21435546875 290.19879150390625 565.6903076171875 292.72283935546875Q563.166259765625 295.24688720703125 559.8371276855469 296.6829833984375Q556.5079956054688 298.11907958984375 552.721923828125 298.11907958984375Q548.9358520507812 298.11907958984375 545.6067199707031 296.6829833984375Q542.277587890625 295.24688720703125 539.7535400390625 292.72283935546875Q537.2294921875 290.19879150390625 535.7933959960938 286.8696594238281Q534.3572998046875 283.54052734375 534.3572998046875 279.75445556640625Q534.3572998046875 275.9683837890625 535.7933959960938 272.6392517089844Q537.2294921875 269.31011962890625 539.7535400390625 266.78607177734375Q542.277587890625 264.26202392578125 545.6067199707031 262.825927734375Q548.9358520507812 261.38983154296875 552.721923828125 261.38983154296875Q556.5079956054688 261.38983154296875 559.8371276855469 262.825927734375Q563.166259765625 264.26202392578125 565.6903076171875 266.78607177734375Q568.21435546875 269.31011962890625 569.6504516601562 272.6392517089844Q571.0865478515625 275.9683837890625 571.0865478515625 279.75445556640625Z" fill="#fcea2b" />
<path d="M620.0865478515625 316.75445556640625Q620.0865478515625 320.54052734375 618.6504516601562 323.8696594238281Q617.21435546875 327.19879150390625 614.6903076171875 329.72283935546875Q612.166259765625 332.24688720703125 608.8371276855469 333.6829833984375Q605.5079956054688 335.11907958984375 601.721923828125 335.11907958984375Q597.9358520507812 335.11907958984375 594.6067199707031 333.6829833984375Q591.277587890625 332.24688720703125 588.7535400390625 329.72283935546875Q586.2294921875 327.19879150390625 584.7933959960938 323.8696594238281Q583.3572998046875 320.54052734375 583.3572998046875 316.75445556640625Q583.3572998046875 312.9683837890625 584.7933959960938 309.6392517089844Q586.2294921875 306.31011962890625 588.7535400390625 303.78607177734375Q591.277587890625 301.26202392578125 594.6067199707031 299.825927734375Q597.9358520507812 298.38983154296875 601.721923828125 298.38983154296875Q605.5079956054688 298.38983154296875 608.8371276855469 299.825927734375Q612.166259765625 301.26202392578125 614.6903076171875 303.78607177734375Q617.21435546875 306.31011962890625 618.6504516601562 309.6392517089844Q620.0865478515625 312.9683837890625 620.0865478515625 316.75445556640625Z" fill="#fcea2b" />
<path d="M759.0865478515625 208.75445556640625Q759.0865478515625 212.54052734375 757.6504516601562 215.86965942382812Q756.21435546875 219.19879150390625 753.6903076171875 221.72283935546875Q751.166259765625 224.24688720703125 747.8371276855469 225.6829833984375Q744.5079956054688 227.11907958984375 740.721923828125 227.11907958984375Q736.9358520507812 227.11907958984375 733.6067199707031 225.6829833984375Q730.277587890625 224.24688720703125 727.7535400390625 221.72283935546875Q725.2294921875 219.19879150390625 723.7933959960938 215.86965942382812Q722.3572998046875 212.54052734375 722.3572998046875 208.75445556640625Q722.3572998046875 204.9683837890625 723.7933959960938 201.63925170898438Q725.2294921875 198.31011962890625 727.7535400390625 195.78607177734375Q730.277587890625 193.26202392578125 733.6067199707031 191.825927734375Q736.9358520507812 190.38983154296875 740.721923828125 190.38983154296875Q744.5079956054688 190.38983154296875 747.8371276855469 191.825927734375Q751.166259765625 193.26202392578125 753.6903076171875 195.78607177734375Q756.21435546875 198.31011962890625 757.6504516601562 201.63925170898438Q759.0865478515625 204.9683837890625 759.0865478515625 208.75445556640625Z" fill="#fcea2b" />
<path d="M786.0865478515625 279.75445556640625Q786.0865478515625 283.54052734375 784.6504516601562 286.8696594238281Q783.21435546875 290.19879150390625 780.6903076171875 292.72283935546875Q778.166259765625 295.24688720703125 774.8371276855469 296.6829833984375Q771.5079956054688 298.11907958984375 767.721923828125 298.11907958984375Q763.9358520507812 298.11907958984375 760.6067199707031 296.6829833984375Q757.277587890625 295.24688720703125 754.7535400390625 292.72283935546875Q752.2294921875 290.19879150390625 750.7933959960938 286.8696594238281Q749.3572998046875 283.54052734375 749.3572998046875 279.75445556640625Q749.3572998046875 275.9683837890625 750.7933959960938 272.6392517089844Q752.2294921875 269.31011962890625 754.7535400390625 266.78607177734375Q757.277587890625 264.26202392578125 760.6067199707031 262.825927734375Q763.9358520507812 261.38983154296875 767.721923828125 261.38983154296875Q771.5079956054688 261.38983154296875 774.8371276855469 262.825927734375Q778.166259765625 264.26202392578125 780.6903076171875 266.78607177734375Q783.21435546875 269.31011962890625 784.6504516601562 272.6392517089844Q786.0865478515625 275.9683837890625 786.0865478515625 279.75445556640625Z" fill="#fcea2b" />
<path d="M737.0865478515625 316.75445556640625Q737.0865478515625 320.54052734375 735.6504516601562 323.8696594238281Q734.21435546875 327.19879150390625 731.6903076171875 329.72283935546875Q729.166259765625 332.24688720703125 725.8371276855469 333.6829833984375Q722.5079956054688 335.11907958984375 718.721923828125 335.11907958984375Q714.9358520507812 335.11907958984375 711.6067199707031 333.6829833984375Q708.277587890625 332.24688720703125 705.7535400390625 329.72283935546875Q703.2294921875 327.19879150390625 701.7933959960938 323.8696594238281Q700.3572998046875 320.54052734375 700.3572998046875 316.75445556640625Q700.3572998046875 312.9683837890625 701.7933959960938 309.6392517089844Q703.2294921875 306.31011962890625 705.7535400390625 303.78607177734375Q708.277587890625 301.26202392578125 711.6067199707031 299.825927734375Q714.9358520507812 298.38983154296875 718.721923828125 298.38983154296875Q722.5079956054688 298.38983154296875 725.8371276855469 299.825927734375Q729.166259765625 301.26202392578125 731.6903076171875 303.78607177734375Q734.21435546875 306.31011962890625 735.6504516601562 309.6392517089844Q737.0865478515625 312.9683837890625 737.0865478515625 316.75445556640625Z" fill="#fcea2b" />
<path d="M573 81Q589 73 598 89Q602 97 601 103Q599 109 591 114Q503 162 503 348Q503 414 575 426Q608 431 642 425V128L620 88Q612 71 628 63Q644 54 653 70L676 115Q678 119 678 124V441Q678 455 664 459Q617 469 569 462Q466 446 466 348Q466 140 573 81Z" fill="#000000" />
<path d="M676.281982421875 132.11981201171875Q667.4638671875 148.831787109375 650.671875 139.971923828125Q634.763671875 131.578369140625 643.581787109375 114.86639404296875L667.25146484375 70.0079345703125Q675.60546875 54.175537109375 691.513671875 62.569091796875Q708.3056640625 71.428955078125 699.95166015625 87.2613525390625Z" fill="#000000" />
<path d="M729 114Q713 105 722 89Q731 73 747 81Q854 140 854 348Q854 446 751 462Q703 469 656 459Q638 455 642 437Q644 428 650 424Q655 421 664 423Q705 432 745 426Q817 414 817 348Q817 162 729 114Z" fill="#000000" />
<path d="M503 236Q510 242 511 248Q512 254 506 262Q495 276 480 265L411 211Q399 201 406 188L462 81Q471 64 487 73Q503 81 495 97L446 191Z" fill="#000000" />
<path d="M477 115Q485 131 469 139Q452 148 444 131Q385 14 428 -90Q434 -106 451 -100Q460 -96 462 -90Q465 -84 461 -76Q426 12 477 115Z" fill="#000000" />
<path d="M494 382Q512 378 515 397Q518 415 500 418L386 438Q368 441 365 423Q364 421 364 419L369 335Q370 316 388 317Q407 318 406 337L402 398Z" fill="#000000" />
<path d="M319 192Q324 175 341 180Q359 185 354 202Q328 295 398 361Q411 374 398 387Q386 401 373 388Q287 306 319 192Z" fill="#000000" />
<path d="M477 459Q486 443 502 452Q518 462 509 477Q493 504 497 534Q497 535 497 535Q497 541 501 546Q504 550 521 553Q530 555 535 556Q536 557 536 557Q568 570 594 593Q612 608 635 605Q661 596 687 606Q687 606 687 606Q699 611 727 592Q752 570 784 557Q784 557 785 556Q790 555 799 553Q816 550 819 546Q823 541 823 535Q823 535 823 534Q827 504 811 477Q807 469 808 463Q810 457 818 452Q834 443 843 459Q864 496 860 538Q858 554 849 568Q848 568 848 569Q837 583 807 589Q800 590 797 591Q771 602 750 620Q749 621 749 621Q704 653 673 640Q660 635 646 640Q645 641 643 641Q602 647 570 620Q549 602 523 591Q520 590 513 589Q483 583 472 569Q472 568 471 568Q462 554 460 538Q456 496 477 459Z" fill="#000000" />
<path d="M840 265Q825 276 814 262Q803 247 817 236L874 191L825 97Q817 81 833 73Q849 64 858 81L914 188Q921 201 909 211Z" fill="#000000" />
<path d="M876 131Q868 148 851 139Q835 131 843 115Q894 12 859 -76Q852 -93 869 -100Q886 -106 892 -90Q935 14 876 131Z" fill="#000000" />
<path d="M820 418Q802 415 805 397Q808 378 826 382L918 398L914 337Q913 318 932 317Q950 316 951 335L956 419Q956 421 955 423Q952 441 934 438Z" fill="#000000" />
<path d="M966 202Q961 185 979 180Q996 175 1001 192Q1033 306 947 388Q934 401 922 387Q909 374 922 361Q992 295 966 202Z" fill="#000000" />
<path d="M591 857Q585 864 578 864Q572 863 565 857Q553 843 566 831L647 755Q660 743 673 755L754 831Q767 843 755 857Q748 863 742 864Q735 864 729 857L660 793Z" fill="#000000" />
<path d="M678 768Q678 786 660 786Q642 786 642 768V619Q642 601 660 601Q678 601 678 619Z" fill="#000000" />
<path d="M463 526Q473 511 489 521Q504 531 494 546L447 618Q436 633 421 623Q406 613 416 598Z" fill="#000000" />
<path d="M391 762Q397 779 380 785Q372 788 366 786Q360 783 357 774Q341 733 344 686Q350 587 447 559Q456 557 461 560Q467 563 469 572Q475 589 457 594Q385 615 381 688Q378 727 391 762Z" fill="#000000" />
<path d="M825.8074951171875 546.4583740234375Q815.887451171875 531.4052734375 831.330078125 520.564208984375Q846.3831787109375 510.6441650390625 856.30322265625 525.697265625L904.3089599609375 597.0311279296875Q913.8394775390625 613.0052490234375 898.786376953125 622.92529296875Q883.7332763671875 632.8453369140625 873.813232421875 617.792236328125Z" fill="#000000" />
<path d="M964 774Q957 792 940 785Q931 782 929 776Q926 770 929 762Q942 727 939 688Q935 615 863 594Q854 592 851 586Q848 580 851 572Q856 554 873 559Q970 587 976 686Q979 733 964 774Z" fill="#000000" />
</g></svg>