<svg xmlns="http://www.w3.org/2000/svg" viewBox="0 0 2048 2048">
<g transform="matrix(1 0 0 -1 0 2048)">
<path d="M667 737Q732 737 791.5 712.5Q851 688 896 642Q942 596 966.0 536.5Q990 477 990 413H343Q343 477 367.5 536.5Q392 596 438 642Q483 688 543.0 712.5Q603 737 667 737Z" fill="#f1b31c" />
<path d="M667 746Q529 746 431 649Q333 551 334 412V403H999V412Q1000 550 903 648Q805 746 667 746ZM667 728Q798 728 890 635Q978 546 981 422H352Q355 546 444 636Q537 728 667 728Z" fill="#f1b31c" />
<path d="M688 759Q675 759 665 768Q656 777 656 790Q656 803 665.0 813.0Q674 823 688 823Q700 823 709.0 814.0Q718 805 719 792Q719 779 710.0 769.5Q701 760 688 759Z" fill="#f1b31c" />
<path d="M673 282Q660 282 650 291Q641 300 642 313Q641 327 650.5 336.5Q660 346 673 347Q686 346 695.0 337.0Q704 328 704 315Q704 302 695.0 292.5Q686 283 673 282Z" fill="#f1b31c" />
<path d="M748 623Q737 623 729.0 631.0Q721 639 721 651Q721 662 729.0 670.0Q737 678 748 678Q783 677 810 656Q840 640 860 612Q869 598 860.0 586.0Q851 574 836.0 572.0Q821 570 812 585Q801 601 783 609Q775 613 766.5 619.0Q758 625 748 623Z" fill="#ffffff" />
<path d="M265.988037109375 201.1990966796875V146.0013427734375H1036.65966796875V201.1990966796875Z" fill="#6a462f" />
<path d="M327.64019775390625 265.43408203125V222.08447265625H999.3048095703125V265.43408203125Z" fill="#6a462f" />
<path d="M296.306396484375 406.43408203125V363.08447265625H1052.39013671875V406.43408203125Z" fill="#f1b31c" />
<path d="M329 434Q329 424 334 418Q339 413 350 413Q372 413 372 435Q371 560 460 648Q548 737 673 737Q798 738 887 650Q975 561 976 436V435Q976 413 997 413Q1019 413 1019 435V436Q1019 579 917 680Q816 781 673 781Q530 780 429 679Q328 577 329 434Z" fill="#000000" />
<path d="M318 435Q297 435 282 420Q267 406 268 385V383Q268 383 268 383Q269 335 317 334Q317 334 317 334H1032Q1032 334 1033 334Q1080 335 1082 383Q1082 383 1082 383V385Q1082 385 1082 386Q1080 433 1033 435Q1032 435 1032 435ZM317 398H1032Q1045 397 1045 385V383Q1045 371 1032 370H317Q305 371 304 383V385Q304 385 304 386Q304 391 308 394Q311 398 316 398Q317 398 317 398Z" fill="#000000" />
<path d="M623 359V279H724V359ZM660 323H688V315H660Z" fill="#000000" />
<path d="M301 213Q301 194 319 194H1010Q1029 194 1029 213V277Q1029 295 1010 295H319Q301 295 301 277ZM337 258H992V231H337Z" fill="#000000" />
<path d="M257 147Q257 128 275 128H1052Q1071 128 1071 147V211Q1071 229 1052 229H275Q257 229 257 211ZM293 193H1034V165H293Z" fill="#000000" />
<path d="M623 770Q624 760 628 756Q633 751 642 752Q660 752 660 770Q659 795 684 796Q694 796 702 789Q709 782 710 771Q710 762 714 758Q719 753 728 754Q747 754 746 772Q745 834 683 832Q622 831 623 770Z" fill="#000000" />
</g></svg>