<svg xmlns="http://www.w3.org/2000/svg" viewBox="0 0 2048 2048">
<g transform="matrix(1 0 0 -1 0 2048)">
<path d="M744.6698608398438 -13.95611572265625Q744.6698608398438 5.083740234375 737.553955078125 21.719573974609375Q730.4380493164062 38.35540771484375 717.8409729003906 50.952484130859375Q705.243896484375 63.549560546875 688.6080627441406 70.66546630859375Q671.9722290039062 77.7813720703125 652.932373046875 77.7813720703125Q633.8925170898438 77.7813720703125 617.2566833496094 70.66546630859375Q600.620849609375 63.549560546875 588.0237731933594 50.952484130859375Q575.4266967773438 38.35540771484375 568.310791015625 21.719573974609375Q561.1948852539062 5.083740234375 561.1948852539062 -13.95611572265625Q561.1948852539062 -32.9959716796875 568.310791015625 -49.631805419921875Q575.4266967773438 -66.26763916015625 588.0237731933594 -78.86471557617188Q600.620849609375 -91.4617919921875 617.2566833496094 -98.57769775390625Q633.8925170898438 -105.693603515625 652.932373046875 -105.693603515625Q671.9722290039062 -105.693603515625 688.6080627441406 -98.57769775390625Q705.243896484375 -91.4617919921875 717.8409729003906 -78.86471557617188Q730.4380493164062 -66.26763916015625 737.553955078125 -49.631805419921875Q744.6698608398438 -32.9959716796875 744.6698608398438 -13.95611572265625Z" fill="#f1b31c" />
<path d="M763 -14Q763 32 731 64Q698 96 653 96Q607 96 575 64Q543 32 543 -14Q543 -60 575 -92Q607 -124 653 -124Q698 -124 731 -92Q763 -60 763 -14ZM726 -14Q726 -44 705 -66Q683 -87 653 -87Q622 -87 601 -66Q580 -44 580 -14Q580 59 653 59Q726 59 726 -14Z" fill="#f1b31c" />
<path d="M1029 4H268Q268 4 278.0 25.5Q288 47 302.0 86.5Q316 126 327 180Q337 225 343.5 276.0Q350 327 354.5 376.5Q359 426 362.5 467.5Q366 509 369 536Q376 611 412.5 673.5Q449 736 508.5 773.5Q568 811 644 811H653Q729 811 788.5 773.5Q848 736 884.5 673.5Q921 611 928 536Q930 509 933.5 467.5Q937 426 941.5 376.5Q946 327 953.0 276.0Q960 225 969 180Q980 126 994.0 86.5Q1008 47 1018.5 25.5Q1029 4 1029 4Z" fill="#fcea2b" />
<path d="M534 801Q534 783 552 783Q570 783 570 801Q570 832 592 853Q613 875 644 875Q717 875 717 801Q717 783 735 783Q754 783 754 801Q754 847 721 879Q689 911 644 911Q598 911 566 879Q534 847 534 801Z" fill="#000000" />
<path d="M751 -63Q759 -47 743 -39Q727 -30 719 -47Q698 -88 653 -88Q607 -88 587 -47Q579 -30 562 -39Q554 -43 552 -49Q550 -55 554 -63Q584 -124 653 -124Q721 -124 751 -63Z" fill="#000000" />
<path d="M1043 12Q1007 79 985 183Q966 279 949 485Q946 523 944 537Q933 659 854 741Q771 827 653 827H644Q525 827 442 741Q363 659 352 537Q351 523 348 485Q331 279 311 183Q290 79 253 12Q249 5 251 -1Q252 -7 260 -11Q264 -13 268 -13H1029Q1045 -13 1045 4Q1045 8 1043 12ZM1002 21H295Q325 85 344 176Q364 274 381 482Q384 520 385 534Q396 645 466 718Q539 794 644 794H653Q757 794 830 718Q901 645 911 534Q912 520 916 482Q932 274 953 176Q971 85 1002 21Z" fill="#000000" />
</g></svg>