<svg xmlns="http://www.w3.org/2000/svg" viewBox="0 0 2048 2048">
<g transform="matrix(1 0 0 -1 0 2048)">
<path d="M732 429Q732 487 752.5 529.5Q773 572 799.0 600.0Q825 628 845.0 642.0Q865 656 865 656Q865 656 884.5 641.0Q904 626 929.0 596.0Q954 566 973.5 521.5Q993 477 993 419Q942 403 892.5 403.0Q843 403 805.0 410.5Q767 418 746.5 424.5Q726 431 732 429Z" fill="#b399c8" />
<path d="M322 425Q322 484 342.5 529.0Q363 574 390.0 604.5Q417 635 437.5 650.5Q458 666 458 666Q458 666 477.5 650.5Q497 635 522.5 604.5Q548 574 568.0 529.0Q588 484 588 425Q535 400 487.0 396.5Q439 393 401.5 400.0Q364 407 343.0 416.0Q322 425 322 425Z" fill="#b399c8" />
<path d="M967 245V223Q967 223 949.5 218.0Q932 213 906.5 203.0Q881 193 856.5 179.5Q832 166 818 150Q782 128 751.0 97.0Q720 66 698.0 36.0Q676 6 664.0 -14.0Q652 -34 652 -34Q642 -24 624.5 -0.5Q607 23 586.0 50.5Q565 78 544.0 101.5Q523 125 506 137Q473 162 438.0 182.5Q403 203 378.5 215.0Q354 227 354 227L355 246Z" fill="#b399c8" />
<path d="M719 416Q751 398 802 390Q903 373 995 415Q1006 420 1006 432Q1006 534 938 617Q904 659 870 681Q860 687 850 681Q815 659 780 618Q710 535 709 434Q709 433 709 432Q709 421 719 416ZM746 443Q750 525 808 594Q834 625 860 643Q884 625 909 594Q965 526 969 444Q892 412 808 426Q771 432 746 443Z" fill="#000000" />
<path d="M324 416Q356 398 407 390Q508 373 601 415Q611 420 611 432Q611 534 543 617Q509 659 475 681Q465 687 455 681Q420 659 385 618Q315 535 314 434Q314 433 314 432Q314 421 324 416ZM351 443Q355 525 413 594Q439 625 465 643Q489 625 514 594Q570 526 574 444Q497 412 413 426Q376 432 351 443Z" fill="#000000" />
<path d="M635 457Q617 457 617 438Q616 420 635 420H685Q703 420 703 438Q704 456 685 457Z" fill="#000000" />
<path d="M481 829Q481 848 463 848Q444 848 444 829V675Q444 657 463 657Q481 657 481 675Z" fill="#000000" />
<path d="M876 825Q876 843 857 843Q839 843 839 825V665Q839 647 857 647Q876 647 876 665Z" fill="#000000" />
<path d="M656 278Q656 278 656 278H341Q323 278 323 259V214Q323 201 336 197Q461 158 533 76Q606 -8 639 -70Q645 -80 656 -80H657Q669 -80 674 -68Q697 -10 770 73Q841 155 984 197Q997 201 997 214V259Q997 278 979 278H657Q656 278 656 278ZM656 241Q656 241 656 241Q656 241 657 241H961V228Q817 183 742 97Q683 30 655 -23Q620 32 560 100Q486 186 359 228V241Z" fill="#000000" />
</g></svg>