<svg xmlns="http://www.w3.org/2000/svg" viewBox="0 0 2048 2048">
<g transform="matrix(1 0 0 -1 0 2048)">
<path d="M1082 385Q1082 472 1049.0 548.5Q1016 625 958.0 683.0Q900 741 824.0 774.0Q748 807 660 807Q573 807 496.5 774.0Q420 741 362.0 683.0Q304 625 271.5 548.5Q239 472 239 385Q239 298 271.5 221.5Q304 145 362.0 87.0Q420 29 496.5 -4.0Q573 -37 660 -37Q748 -37 824.0 -4.0Q900 29 958.0 87.0Q1016 145 1049.0 221.5Q1082 298 1082 385Z" fill="#f4aa41" />
<path d="M1100 385Q1100 567 971 696Q842 825 660 825Q478 825 349 696Q220 567 220 385Q220 203 349 74Q478 -55 660 -55Q842 -55 971 74Q1100 203 1100 385ZM1063 385Q1063 218 945 100Q827 -18 660 -18Q493 -18 375 100Q257 218 257 385Q257 552 375 670Q493 788 660 788Q827 788 945 670Q1063 552 1063 385Z" fill="#000000" />
<path d="M414 291Q414 269 422 249L405 242Q393 270 393 300Q393 338 411.0 370.0Q429 402 459.5 422.5Q490 443 528 446Q513 478 514.0 513.5Q515 549 532 580Q550 611 579.5 630.5Q609 650 644 654L648 635Q605 630 577.0 598.0Q549 566 550 523Q551 480 580.5 449.5Q610 419 653 416L652 404Q638 400 631 387Q624 374 629 361L615 353Q595 383 560.5 394.5Q526 406 492 396Q457 385 435.5 356.0Q414 327 414 291Z" fill="#000000" />
<path d="M851 196Q869 206 883 223L898 212Q879 188 854 173Q820 154 783.5 153.5Q747 153 714.0 169.0Q681 185 660 217Q640 188 608.5 171.0Q577 154 542 153Q506 152 474.5 168.0Q443 184 422 212L436 225Q461 191 503.0 183.0Q545 175 582 197Q618 219 630.0 260.0Q642 301 623 340L637 347Q647 337 661 338Q675 338 685 348L697 339Q681 306 687.5 270.5Q694 235 721 211Q747 186 783.0 182.0Q819 178 851 196Z" fill="#000000" />
<path d="M908 373Q944 309 915 241L897 247Q914 286 900.0 326.5Q886 367 849 388Q811 408 769.5 398.0Q728 388 704 352L692 361Q697 374 690 387Q683 400 669 404L668 416Q710 419 739.5 449.5Q769 480 770 522Q772 564 745.0 596.5Q718 629 676 635L678 653Q708 649 734 635Q767 616 786.0 584.5Q805 553 807.5 516.5Q810 480 793 446Q829 443 859.5 423.5Q890 404 908 373Z" fill="#000000" />
<path d="M532 369Q532 331 553.5 299.0Q575 267 611 252L594 229Q553 248 528.5 286.5Q504 325 504 370Q504 378 505 386L533 385Q532 377 532 369Z" fill="#000000" />
<path d="M751 496 737 472Q703 497 660.5 497.0Q618 497 584 472L569 497Q610 526 660.0 525.5Q710 525 751 496Z" fill="#000000" />
<path d="M814 385Q815 378 815 370Q815 325 790.5 287.0Q766 249 725 230L710 252Q746 267 767.0 299.0Q788 331 788 369Q788 377 787 385Z" fill="#000000" />
</g></svg>