<svg xmlns="http://www.w3.org/2000/svg" viewBox="0 0 2048 2048">
<g transform="matrix(1 0 0 -1 0 2048)">
<path d="M183 183Q197 170 235.5 164.5Q274 159 326.0 159.0Q378 159 433.0 162.5Q488 166 535.5 171.0Q583 176 612.5 179.5Q642 183 642 183Q685 183 719.5 195.5Q754 208 779.0 223.5Q804 239 817.0 251.5Q830 264 830 264Q877 311 897.0 347.0Q917 383 921.0 411.5Q925 440 921.5 463.0Q918 486 917.0 507.0Q916 528 928 550Q942 577 972.0 597.0Q1002 617 1034.0 629.0Q1066 641 1088.5 647.0Q1111 653 1111 653Q1109 668 1092.0 678.5Q1075 689 1050.5 696.0Q1026 703 1002.5 707.0Q979 711 963.0 713.0Q947 715 947 715Q901 742 866.5 743.0Q832 744 807.0 729.0Q782 714 767.0 693.5Q752 673 744.5 657.5Q737 642 737 642Z" fill="#6a462f" />
<path d="M186 186Q186 186 213.0 186.0Q240 186 285.0 188.0Q330 190 385.0 194.5Q440 199 496.5 207.5Q553 216 603.0 229.5Q653 243 688 264Q729 288 764.5 326.0Q800 364 824.5 406.5Q849 449 856.0 488.0Q863 527 847.5 554.0Q832 581 788 587Q757 591 709.5 571.0Q662 551 605.0 515.5Q548 480 489.5 436.5Q431 393 376.5 349.0Q322 305 279.0 268.0Q236 231 211.0 208.5Q186 186 186 186Z" fill="#a57939" />
<path d="M592 42Q583 39 580 33Q578 27 581 19Q587 2 605 8L685 38Q702 44 696 61Q689 79 672 72Z" fill="#000000" />
<path d="M786 505Q796 503 798.0 498.0Q800 493 799 490Q795 475 783.0 449.5Q771 424 747.0 394.0Q723 364 685.0 334.5Q647 305 590 282Q587 282 579.5 282.0Q572 282 568 292Q564 303 570.0 306.5Q576 310 576 310V311Q644 338 684.0 373.5Q724 409 743.0 442.0Q762 475 768 495Q768 495 771.5 501.0Q775 507 786 505Z" fill="#000000" />
<path d="M576 314Q567 312 563 306Q560 301 562 292Q566 274 584 278Q626 287 674 321Q770 387 806 508Q809 517 805 523Q802 528 794 531Q776 536 771 519Q738 410 653 351Q611 321 576 314Z" fill="#000000" />
<path d="M734 647Q731 639 734 633Q737 627 746 624Q763 618 769 636Q781 673 810 699Q864 749 944 699Q947 697 952 697Q1056 687 1084 665Q956 633 919 558Q904 528 909 475Q915 426 906 396Q890 342 828 276Q828 276 827 276Q762 202 660 202Q649 202 644 192L625 155Q622 148 625 140L661 48Q665 39 675 37L785 19Q803 16 806 34Q809 52 791 55L692 71L662 146L671 165Q782 169 855 251Q958 361 946 478Q941 522 951 542Q984 607 1115 635Q1132 639 1130 656Q1121 717 959 733Q858 794 785 726Q750 693 734 647Z" fill="#000000" />
<path d="M173 199Q167 194 167 186Q167 167 186 167Q555 165 697 248Q813 316 862 442Q885 503 871 545Q854 597 791 605Q691 617 421 408Q288 304 173 199ZM233 204Q332 292 443 379Q702 579 786 568Q827 563 836 534Q846 504 827 455Q783 341 678 279Q554 207 233 204Z" fill="#000000" />
</g></svg>