<svg xmlns="http://www.w3.org/2000/svg" viewBox="0 0 2048 2048">
<g transform="matrix(1 0 0 -1 0 2048)">
<path d="M312 440V238H1137V440Z" fill="#ffffff" />
<path d="M431 376V358H633Q649 345 675.0 328.0Q701 311 733.0 294.5Q765 278 798.0 267.5Q831 257 862 257Q892 257 934.0 268.5Q976 280 1021.5 298.0Q1067 316 1107.0 334.5Q1147 353 1173 367Q1173 367 1168.0 343.5Q1163 320 1152.0 283.5Q1141 247 1122.0 205.5Q1103 164 1075.5 126.0Q1048 88 1011.0 63.5Q974 39 926 37Q868 34 789.0 49.5Q710 65 621.5 95.5Q533 126 444.5 167.0Q356 208 279.0 256.5Q202 305 147 358L266 348L367 376Z" fill="#d22f27" />
<path d="M665 605Q641 606 625.0 610.5Q609 615 598 621Q592 624 587.0 627.5Q582 631 577 635Q576 636 572 639Q569 641 566.0 643.5Q563 646 560 648Q556 651 550 651Q477 651 405.5 621.0Q334 591 276 549Q217 506 178 459Q159 436 146.0 413.5Q133 391 129 371Q128 368 128 366Q129 357 136 352Q138 350 140 350Q154 344 187.0 337.0Q220 330 266 330Q283 330 297.5 334.5Q312 339 327 346Q331 348 335.5 350.0Q340 352 345 355Q356 360 368.0 365.5Q380 371 395 377Q437 394 507.5 408.0Q578 422 697 422Q778 422 862.0 410.5Q946 399 1014 385Q1048 379 1076.5 372.0Q1105 365 1125 360Q1136 358 1144.0 356.0Q1152 354 1157 352Q1162 351 1165 350L1168 349Q1170 348 1173 348Q1176 348 1179 349Q1187 352 1190 360Q1192 363 1192 366Q1192 368 1191 371Q1187 391 1174.5 413.5Q1162 436 1144 458Q1105 506 1049 549Q993 591 922.5 621.0Q852 651 779 651Q774 651 769 648Q766 646 763.0 643.5Q760 641 757 639Q755 637 752 635Q747 631 742.0 627.5Q737 624 731 621Q720 615 704.0 610.5Q688 606 665 605Z" fill="#d22f27" />
<path d="M403 312Q385 312 385 293Q385 275 403 275Q500 275 629 208Q766 137 871 137Q889 137 889 156Q889 174 871 174Q774 174 645 241Q509 312 403 312Z" fill="#ea5a47" />
<path d="M1192 367Q1192 385 1173 385Q1155 385 1155 367Q1155 264 1106 173Q1042 55 926 55Q627 55 364 217Q232 298 160 379Q148 393 134 380Q121 368 133 354Q208 270 344 186Q617 18 926 18Q1064 18 1138 155Q1192 255 1192 367Z" fill="#d22f27" />
<path d="M605 376Q587 376 587 357Q587 339 605 339Q629 339 685 303Q797 233 890 238Q1055 249 1185 352Q1199 364 1188 378Q1176 392 1162 381Q1041 285 888 275Q806 270 705 334Q640 376 605 376Z" fill="#d22f27" />
<path d="M1192 367Q1192 385 1173 385Q1155 385 1155 367Q1155 264 1106 173Q1042 55 926 55Q539 55 232 312Q218 324 206 310Q200 303 201 296Q201 290 208 284Q526 18 926 18Q1064 18 1138 155Q1192 255 1192 367Z" fill="#000000" />
<path d="M1185 352Q1199 364 1188 378Q1176 392 1162 381Q1041 285 888 275Q807 270 716 327Q701 337 691 321Q681 306 697 296Q798 233 890 238Q1055 249 1185 352Z" fill="#000000" />
<path d="M153 384Q136 390 130 373Q123 356 140 350Q189 330 266 330Q294 330 344 354Q484 422 697 422Q914 422 1168 349Q1186 344 1191 362Q1196 379 1178 384Q919 458 697 458Q475 458 328 387Q285 367 266 367Q196 367 153 384Z" fill="#000000" />
<path d="M129 370 165 363Q163 356 157.0 351.5Q151 347 143 349Q136 350 131.5 356.5Q127 363 129 370ZM550 633V651Q556 651 560 648ZM669 568V605Q677 605 682.5 599.5Q688 594 688 587Q688 579 682.5 573.5Q677 568 669 568ZM165 363 129 370Q133 391 146.0 413.5Q159 436 178 459Q217 506 276 549Q334 591 405.5 621.0Q477 651 550 651V614Q485 614 419.0 586.5Q353 559 297 519Q243 479 206 435Q171 393 165 363ZM540 617 560 648Q564 645 568.5 641.5Q573 638 577 635Q582 631 587.0 627.5Q592 624 598 621Q609 615 626.5 610.0Q644 605 669 605V568Q639 568 617.5 574.0Q596 580 580 589Q572 593 566.0 597.5Q560 602 555 606Q549 610 546.0 612.5Q543 615 540 617Z" fill="#000000" />
<path d="M1191 370 1155 363Q1157 356 1163.0 351.5Q1169 347 1177 349Q1184 350 1188.5 356.5Q1193 363 1191 370ZM779 633V651Q774 651 769 648ZM660 568V605Q652 605 647.0 599.5Q642 594 642 587Q642 579 647.0 573.5Q652 568 660 568ZM1155 363 1191 370Q1187 391 1174.5 413.5Q1162 436 1144 458Q1106 506 1049 549Q993 591 922.5 621.0Q852 651 779 651V614Q844 614 908.5 587.0Q973 560 1027 519Q1054 499 1076.5 477.5Q1099 456 1116 435Q1149 393 1155 363ZM789 617 769 648Q765 645 760.5 641.5Q756 638 752 635Q747 631 742.0 627.5Q737 624 731 621Q720 615 702.5 610.0Q685 605 660 605V568Q690 568 711.5 574.0Q733 580 749 589Q757 593 763.0 597.5Q769 602 774 606Q780 610 783.0 612.5Q786 615 789 617Z" fill="#000000" />
<path d="M532 385Q532 403 513 403Q495 403 495 385Q495 339 541 339H633Q678 339 678 385Q678 403 660 403Q642 403 642 385Q642 376 633 376H541Q532 376 532 385Z" fill="#000000" />
<path d="M679 385Q679 403 660 403Q642 403 642 385Q642 339 688 339H780Q825 339 825 385Q825 403 807 403Q789 403 789 385Q789 376 780 376H688Q679 376 679 385Z" fill="#000000" />
<path d="M825 385Q825 403 807 403Q788 403 788 385Q788 339 834 339H926Q944 339 944 357Q944 376 926 376H834Q825 376 825 385Z" fill="#000000" />
<path d="M532 385Q532 403 513 403Q495 403 495 385Q495 376 486 376H422Q403 376 403 357Q403 339 422 339H486Q532 339 532 385Z" fill="#000000" />
</g></svg>