<svg xmlns="http://www.w3.org/2000/svg" viewBox="0 0 2048 2048">
<g transform="matrix(1 0 0 -1 0 2048)">
<path d="M549 749Q533 758 524 742Q516 726 532 717L843 550L1105 410Q1118 402 1118 385Q1118 368 1105 360L843 220L532 53Q516 44 524 28Q529 20 535 18Q541 16 549 21L860 188L1122 328Q1155 346 1155 385Q1155 424 1122 442L860 582Z" fill="#000000" />
<path d="M119 750Q102 758 94 742Q85 726 101 717L414 550L677 410Q691 402 691 385Q691 368 677 360L414 220L101 53Q85 44 94 28Q98 20 104 18Q111 16 119 20L431 188L694 328Q727 346 727 385Q727 424 694 442L431 582Z" fill="#000000" />
<path d="M1228.0 733.0Q1228.0 752.0 1210.0 752.0Q1192.0 752.0 1192.0 733.0V37.0Q1192.0 18.0 1210.0 18.0Q1228.0 18.0 1228.0 37.0Z" fill="#000000" />
</g></svg>