<svg xmlns="http://www.w3.org/2000/svg" viewBox="0 0 2048 2048">
<g transform="matrix(1 0 0 -1 0 2048)">
<path d="M981 -57 825 163 754 365 565 397 506 162 310 -57Z" fill="#3f3f3f" />
<path d="M744 -57H981L798 212Z" fill="#000000" />
<path d="M379 507V439H970V507Z" fill="#3f3f3f" />
<path d="M843.46923828125 733.403564453125Q843.46923828125 771.232421875 829.120361328125 804.4957275390625Q814.771484375 837.759033203125 789.55224609375 862.978271484375Q764.3330078125 888.197509765625 731.0697021484375 902.54638671875Q697.806396484375 916.895263671875 659.9775390625 916.895263671875Q622.148681640625 916.895263671875 588.8853759765625 902.54638671875Q555.6220703125 888.197509765625 530.40283203125 862.978271484375Q505.18359375 837.759033203125 490.834716796875 804.4957275390625Q476.48583984375 771.232421875 476.48583984375 733.403564453125Q476.48583984375 695.57470703125 490.834716796875 662.3114013671875Q505.18359375 629.048095703125 530.40283203125 603.828857421875Q555.6220703125 578.609619140625 588.8853759765625 564.2607421875Q622.148681640625 549.911865234375 659.9775390625 549.911865234375Q697.806396484375 549.911865234375 731.0697021484375 564.2607421875Q764.3330078125 578.609619140625 789.55224609375 603.828857421875Q814.771484375 629.048095703125 829.120361328125 662.3114013671875Q843.46923828125 695.57470703125 843.46923828125 733.403564453125Z" fill="#3f3f3f" />
<path d="M757.999267578125 887.7378540039062Q789.7125854492188 867.61865234375 810.3432922363281 837.4398498535156Q830.9739990234375 807.2610473632812 838.8170776367188 771.4556884765625Q846.66015625 735.6503295898438 839.4990844726562 698.8219604492188Q832.3380126953125 661.9935913085938 812.0483093261719 631.644287109375Q791.7586059570312 601.2949829101562 761.4093017578125 581.0052795410156Q731.0599975585938 560.715576171875 694.2316284179688 553.5545043945312Q657.4032592773438 546.3934326171875 621.597900390625 554.2365112304688Q585.7925415039062 562.07958984375 555.6137390136719 582.7102966308594Q525.4349365234375 603.3410034179688 505.31573486328125 635.0543212890625Q532.2550048828125 617.6631469726562 562.6043090820312 610.6725769042969Q592.95361328125 603.6820068359375 623.6439208984375 607.092041015625Q654.334228515625 610.5020751953125 682.4670104980469 623.6307067871094Q710.5997924804688 636.7593383789062 733.447021484375 659.6065673828125Q756.2942504882812 682.4537963867188 769.5933837890625 710.5865783691406Q782.8925170898438 738.7193603515625 786.1320495605469 769.40966796875Q789.37158203125 800.0999755859375 782.551513671875 830.4492797851562Q775.7314453125 860.798583984375 757.999267578125 887.7378540039062Z" fill="#000000" />
<path d="M862 733Q862 817 803 876Q744 935 660 935Q576 935 517 876Q458 817 458 733Q458 649 517 590Q576 531 660 531Q744 531 803 590Q862 649 862 733ZM825 733Q825 665 777 616Q728 568 660 568Q592 568 543 616Q495 665 495 733Q495 801 543 850Q592 898 660 898Q728 898 777 850Q825 801 825 733Z" fill="#000000" />
<path d="M397 489Q415 491 413 510Q410 528 392 525Q345 519 345 470Q345 422 392 416Q410 413 413 431Q414 440 410 446Q406 451 397 452Q381 454 381 470Q381 487 397 489Z" fill="#000000" />
<path d="M583 391Q583 410 565 410Q546 410 546 391Q546 267 436 108Q346 -21 303 -40Q295 -44 292 -50Q290 -56 294 -64Q298 -75 310 -75H660Q678 -75 678 -57Q678 -38 660 -38H365Q408 3 466 88Q583 255 583 391Z" fill="#000000" />
<path d="M775 370Q773 388 755 387Q737 385 738 367Q748 235 860 78Q916 0 955 -38H660Q642 -38 642 -57Q642 -75 660 -75H1010Q1022 -75 1026 -64Q1034 -47 1017 -40Q977 -23 890 99Q784 248 775 370Z" fill="#000000" />
<path d="M952 452Q934 449 936 431Q939 413 957 416Q1004 422 1004 470Q1004 519 957 525Q939 528 936 510Q934 491 952 489Q968 487 968 470Q968 454 952 452Z" fill="#000000" />
<path d="M395 525Q376 525 376 507Q376 489 395 489H954Q973 489 973 507Q973 525 954 525Z" fill="#000000" />
<path d="M395 452Q376 452 376 434Q376 416 395 416H954Q973 416 973 434Q973 452 954 452Z" fill="#000000" />
</g></svg>