<svg xmlns="http://www.w3.org/2000/svg" viewBox="0 0 2048 2048">
<g transform="matrix(1 0 0 -1 0 2048)">
<path d="M744 20Q760 12 768 29Q776 45 760 53L415 220L125 361Q110 368 110 385Q110 402 125 409L415 550L760 717Q776 725 768 741Q764 750 758 752Q752 754 744 750L399 583L109 442Q73 425 73 385Q73 345 109 328L399 187Z" fill="#000000" />
<path d="M1220.0 20.0Q1229.0 16.0 1235.0 18.0Q1241.0 20.0 1245.0 29.0Q1253.0 45.0 1236.0 53.0L890.0 220.0L599.0 361.0Q584.0 368.0 584.0 385.0Q584.0 402.0 599.0 409.0L890.0 550.0L1236.0 717.0Q1253.0 725.0 1245.0 741.0Q1241.0 750.0 1235.0 752.0Q1229.0 754.0 1220.0 750.0L874.0 583.0L583.0 442.0Q547.0 425.0 547.0 385.0Q547.0 345.0 583.0 328.0L874.0 187.0Z" fill="#000000" />
</g></svg>