<svg xmlns="http://www.w3.org/2000/svg" viewBox="0 0 2048 2048">
<g transform="matrix(1 0 0 -1 0 2048)">
<path d="M935 403Q935 475 909.5 538.0Q884 601 838.5 651.0Q793 701 734 731Q696 750 654.5 760.0Q613 770 568 770Q492 770 425.5 741.5Q359 713 309.0 662.5Q259 612 230.5 545.5Q202 479 202 403Q202 327 230.5 260.5Q259 194 309.0 144.0Q359 94 425.5 65.5Q492 37 568 37Q644 37 710.5 65.5Q777 94 827.5 144.0Q878 194 906.5 260.5Q935 327 935 403Z" fill="#6a462f" />
<path d="M863 639Q878 658 887.5 683.5Q897 709 902.0 733.0Q907 757 906.0 772.5Q905 788 898 788Q893 788 874.0 784.0Q855 780 830.0 773.5Q805 767 781.0 760.5Q757 754 741.5 750.0Q726 746 726 746Z" fill="#6a462f" />
<path d="M891 265Q929 226 964.0 213.0Q999 200 1021.5 200.0Q1044 200 1044 200Q1065 213 1082.0 246.5Q1099 280 1111.5 325.5Q1124 371 1132.0 419.5Q1140 468 1143.0 511.0Q1146 554 1143.0 583.0Q1140 612 1130 617Q1118 623 1092.0 613.5Q1066 604 1034.0 586.0Q1002 568 972.0 549.0Q942 530 922.5 516.5Q903 503 903 503Z" fill="#6a462f" />
<path d="M748 84 888 27 852 162Z" fill="#6a462f" />
<path d="M220 295Q220 295 232.0 311.0Q244 327 263.5 347.0Q283 367 305.5 379.5Q328 392 348 385Q369 378 378.5 363.5Q388 349 394.0 333.0Q400 317 409.5 306.0Q419 295 440 295Q461 295 470.5 308.5Q480 322 488.0 340.0Q496 358 509.5 371.5Q523 385 550 385Q550 385 556.5 381.0Q563 377 575.5 361.5Q588 346 605 313Q616 291 626.5 291.0Q637 291 646.5 303.5Q656 316 665.0 334.0Q674 352 682.0 367.0Q690 382 697 385Q715 394 727.0 389.0Q739 384 752.5 365.0Q766 346 788 313Q799 296 812.0 298.5Q825 301 839.0 314.5Q853 328 866.5 344.5Q880 361 893.0 373.0Q906 385 917 385Q926 385 925.5 359.0Q925 333 912.5 292.0Q900 251 874.5 206.0Q849 161 808.5 121.0Q768 81 710.5 57.5Q653 34 578 37Q487 41 424.0 68.5Q361 96 321.0 133.5Q281 171 259.0 208.0Q237 245 228.5 270.0Q220 295 220 295Z" fill="#a57939" />
<path d="M178 408Q188 402 199 405Q210 407 216 417Q222 427 220 438Q217 449 208 455L152 490Q142 496 131 494Q120 491 114 481Q108 472 110 461Q113 450 122 444Z" fill="#000000" />
<path d="M200 352Q210 357 214 367Q218 378 214 388Q209 399 199 403Q188 407 178 402L130 381Q120 377 116 366Q112 355 116 345Q121 335 131 331Q142 326 152 331Z" fill="#000000" />
<path d="M265 185Q273 189 275 196Q277 202 273 210Q265 226 248 218L212 200Q204 196 202 189Q200 183 204 175Q212 159 228 167Z" fill="#000000" />
<path d="M343.0 97.0Q356.0 110.0 343.0 123.0Q330.0 136.0 317.0 123.0L298.0 104.0Q285.0 91.0 298.0 78.0Q311.0 65.0 324.0 78.0Z" fill="#000000" />
<path d="M697.3493041992188 48.18548583984375Q689.0164184570312 64.57830810546875 672.6235961914062 56.24542236328125Q656.2307739257812 47.91253662109375 664.5636596679688 31.51971435546875L676.7424926757812 7.56097412109375Q685.0753784179688 -8.83184814453125 701.4682006835938 -0.49896240234375Q717.8610229492188 7.83392333984375 709.5281372070312 24.22674560546875Z" fill="#000000" />
<path d="M893.0806884765625 219.578857421875Q878.8966064453125 230.483154296875 867.9923095703125 216.299072265625Q855.9155883789062 201.32379150390625 871.0814819335938 190.2288818359375L902.9956665039062 165.6942138671875Q917.970947265625 153.61749267578125 929.0658569335938 168.78338623046875Q939.9701538085938 182.96746826171875 925.7860717773438 193.87176513671875Z" fill="#000000" />
<path d="M884 592Q868 583 877 567Q882 559 888 557Q894 556 902 560L942 583Q958 592 949 608Q944 616 938 618Q931 619 924 615Z" fill="#000000" />
<path d="M603 772Q602 754 620 752Q638 750 640 768L643 805Q645 823 627 825Q618 826 613 822Q608 817 607 808Z" fill="#000000" />
<path d="M469 764Q472 745 490 749Q508 752 505 770L498 809Q497 818 491 821Q486 825 477 824Q459 820 462 802Z" fill="#000000" />
<path d="M354 706Q365 691 380 702Q395 712 384 727L361 761Q350 776 335 765Q328 760 326 753Q325 747 331 739Z" fill="#000000" />
<path d="M262 610Q269 604 275 604Q281 604 288 610Q301 623 288 636L251 673Q245 679 238 679Q232 679 225 673Q212 660 225 647Z" fill="#000000" />
<path d="M579 19Q582 37 564 40Q555 42 550 38Q545 34 543 25L539 -1Q536 -19 554 -22Q563 -23 568 -19Q574 -16 575 -7Z" fill="#000000" />
<path d="M453 28Q463 44 448 54Q440 59 434 57Q428 56 423 48L408 27Q398 11 414 1Q421 -4 428 -2Q434 -1 439 7Z" fill="#000000" />
<path d="M721 763Q712 761 709 755Q706 749 708 741Q713 723 731 728Q854 762 888 769Q888 756 884 737Q873 683 848 649Q838 635 852 624Q860 618 866 619Q873 620 878 628Q907 668 920 729Q925 755 924 773Q922 807 898 807Q878 807 721 763Z" fill="#000000" />
<path d="M911 516Q904 511 903 504Q902 498 908 490Q919 476 933 487Q1098 616 1122 601Q1141 590 1115 422Q1087 251 1043 217Q985 208 923 276Q911 290 897 277Q883 265 896 252Q973 166 1053 182Q1057 182 1060 184Q1120 224 1151 417Q1182 609 1141 633Q1095 660 911 516Z" fill="#000000" />
<path d="M870 166Q865 184 848 179Q830 175 835 157L861 58L755 101Q738 108 732 91Q725 74 741 67L881 10Q887 7 893 9Q911 14 906 31Z" fill="#000000" />
<path d="M205 304Q200 296 201 290Q202 283 210 278Q225 268 235 283Q301 382 343 368Q361 361 376 327Q399 275 440 275Q477 275 502 326Q521 365 547 367Q561 360 589 303Q601 279 617 274Q635 267 652 282Q666 294 688 337Q703 368 705 369Q717 375 724 370Q733 363 759 322Q768 309 773 301Q798 265 835 288Q851 297 880 332Q910 367 917 367Q935 367 935 385Q935 403 917 403Q894 403 853 356Q827 326 816 319Q809 314 804 322Q799 329 790 342Q760 388 746 399Q722 418 688 401Q675 395 655 354Q636 317 628 309L629 308Q627 309 621 320Q584 395 555 403Q552 403 550 403Q499 403 469 342Q454 312 440 312Q423 312 410 342Q388 391 354 402Q286 425 205 304Z" fill="#000000" />
<path d="M953 403Q953 514 895 608Q838 699 742 747Q660 788 568 788Q409 788 296 676Q183 563 183 403Q183 244 296 131Q409 18 568 18Q728 18 841 131Q953 244 953 403ZM917 403Q917 259 815 157Q713 55 568 55Q424 55 322 157Q220 259 220 403Q220 548 322 650Q424 752 568 752Q652 752 725 714Q917 618 917 403Z" fill="#000000" />
<path d="M659.49951171875 128.32568359375Q659.49951171875 135.84765625 656.64306640625 142.5126953125Q653.78662109375 149.177734375 648.740234375 154.22412109375Q643.69384765625 159.2705078125 637.076416015625 162.126953125Q630.458984375 164.9833984375 622.841796875 164.9833984375Q615.224609375 164.9833984375 608.607177734375 162.126953125Q601.98974609375 159.2705078125 596.943359375 154.22412109375Q591.89697265625 149.177734375 589.04052734375 142.5126953125Q586.18408203125 135.84765625 586.18408203125 128.32568359375Q586.18408203125 120.70849609375 589.04052734375 114.04345703125Q591.89697265625 107.37841796875 596.943359375 102.33203125Q601.98974609375 97.28564453125 608.607177734375 94.476806640625Q615.224609375 91.66796875 622.841796875 91.66796875Q630.458984375 91.66796875 637.076416015625 94.476806640625Q643.69384765625 97.28564453125 648.740234375 102.33203125Q653.78662109375 107.37841796875 656.64306640625 114.04345703125Q659.49951171875 120.70849609375 659.49951171875 128.32568359375Z" fill="#000000" />
<path d="M769.49951171875 238.32568359375Q769.49951171875 245.84765625 766.64306640625 252.5126953125Q763.78662109375 259.177734375 758.740234375 264.22412109375Q753.69384765625 269.2705078125 747.076416015625 272.126953125Q740.458984375 274.9833984375 732.841796875 274.9833984375Q725.224609375 274.9833984375 718.607177734375 272.126953125Q711.98974609375 269.2705078125 706.943359375 264.22412109375Q701.89697265625 259.177734375 699.04052734375 252.5126953125Q696.18408203125 245.84765625 696.18408203125 238.32568359375Q696.18408203125 230.70849609375 699.04052734375 224.04345703125Q701.89697265625 217.37841796875 706.943359375 212.33203125Q711.98974609375 207.28564453125 718.607177734375 204.476806640625Q725.224609375 201.66796875 732.841796875 201.66796875Q740.458984375 201.66796875 747.076416015625 204.476806640625Q753.69384765625 207.28564453125 758.740234375 212.33203125Q763.78662109375 217.37841796875 766.64306640625 224.04345703125Q769.49951171875 230.70849609375 769.49951171875 238.32568359375Z" fill="#000000" />
<path d="M439.49951171875 201.32568359375Q439.49951171875 208.84765625 436.64306640625 215.5126953125Q433.78662109375 222.177734375 428.740234375 227.22412109375Q423.69384765625 232.2705078125 417.076416015625 235.126953125Q410.458984375 237.9833984375 402.841796875 237.9833984375Q395.224609375 237.9833984375 388.607177734375 235.126953125Q381.98974609375 232.2705078125 376.943359375 227.22412109375Q371.89697265625 222.177734375 369.04052734375 215.5126953125Q366.18408203125 208.84765625 366.18408203125 201.32568359375Q366.18408203125 193.70849609375 369.04052734375 187.04345703125Q371.89697265625 180.37841796875 376.943359375 175.33203125Q381.98974609375 170.28564453125 388.607177734375 167.476806640625Q395.224609375 164.66796875 402.841796875 164.66796875Q410.458984375 164.66796875 417.076416015625 167.476806640625Q423.69384765625 170.28564453125 428.740234375 175.33203125Q433.78662109375 180.37841796875 436.64306640625 187.04345703125Q439.49951171875 193.70849609375 439.49951171875 201.32568359375Z" fill="#000000" />
<path d="M568.749755859375 238.662841796875Q568.749755859375 242.423828125 567.321533203125 245.75634765625Q565.893310546875 249.0888671875 563.3701171875 251.612060546875Q560.846923828125 254.13525390625 557.5382080078125 255.5634765625Q554.2294921875 256.99169921875 550.4208984375 256.99169921875Q546.6123046875 256.99169921875 543.3035888671875 255.5634765625Q539.994873046875 254.13525390625 537.4716796875 251.612060546875Q534.948486328125 249.0888671875 533.520263671875 245.75634765625Q532.092041015625 242.423828125 532.092041015625 238.662841796875Q532.092041015625 234.854248046875 533.520263671875 231.521728515625Q534.948486328125 228.189208984375 537.4716796875 225.666015625Q539.994873046875 223.142822265625 543.3035888671875 221.7384033203125Q546.6123046875 220.333984375 550.4208984375 220.333984375Q554.2294921875 220.333984375 557.5382080078125 221.7384033203125Q560.846923828125 223.142822265625 563.3701171875 225.666015625Q565.893310546875 228.189208984375 567.321533203125 231.521728515625Q568.749755859375 234.854248046875 568.749755859375 238.662841796875Z" fill="#000000" />
<path d="M329.749755859375 274.662841796875Q329.749755859375 278.423828125 328.321533203125 281.75634765625Q326.893310546875 285.0888671875 324.3701171875 287.612060546875Q321.846923828125 290.13525390625 318.5382080078125 291.5634765625Q315.2294921875 292.99169921875 311.4208984375 292.99169921875Q307.6123046875 292.99169921875 304.3035888671875 291.5634765625Q300.994873046875 290.13525390625 298.4716796875 287.612060546875Q295.948486328125 285.0888671875 294.520263671875 281.75634765625Q293.092041015625 278.423828125 293.092041015625 274.662841796875Q293.092041015625 270.854248046875 294.520263671875 267.521728515625Q295.948486328125 264.189208984375 298.4716796875 261.666015625Q300.994873046875 259.142822265625 304.3035888671875 257.7384033203125Q307.6123046875 256.333984375 311.4208984375 256.333984375Q315.2294921875 256.333984375 318.5382080078125 257.7384033203125Q321.846923828125 259.142822265625 324.3701171875 261.666015625Q326.893310546875 264.189208984375 328.321533203125 267.521728515625Q329.749755859375 270.854248046875 329.749755859375 274.662841796875Z" fill="#000000" />
<path d="M513.749755859375 128.662841796875Q513.749755859375 132.423828125 512.321533203125 135.75634765625Q510.893310546875 139.0888671875 508.3701171875 141.612060546875Q505.846923828125 144.13525390625 502.5382080078125 145.5634765625Q499.2294921875 146.99169921875 495.4208984375 146.99169921875Q491.6123046875 146.99169921875 488.3035888671875 145.5634765625Q484.994873046875 144.13525390625 482.4716796875 141.612060546875Q479.948486328125 139.0888671875 478.520263671875 135.75634765625Q477.092041015625 132.423828125 477.092041015625 128.662841796875Q477.092041015625 124.854248046875 478.520263671875 121.521728515625Q479.948486328125 118.189208984375 482.4716796875 115.666015625Q484.994873046875 113.142822265625 488.3035888671875 111.7384033203125Q491.6123046875 110.333984375 495.4208984375 110.333984375Q499.2294921875 110.333984375 502.5382080078125 111.7384033203125Q505.846923828125 113.142822265625 508.3701171875 115.666015625Q510.893310546875 118.189208984375 512.321533203125 121.521728515625Q513.749755859375 124.854248046875 513.749755859375 128.662841796875Z" fill="#000000" />
<path d="M751.749755859375 146.662841796875Q751.749755859375 150.423828125 750.321533203125 153.75634765625Q748.893310546875 157.0888671875 746.3701171875 159.612060546875Q743.846923828125 162.13525390625 740.5382080078125 163.5634765625Q737.2294921875 164.99169921875 733.4208984375 164.99169921875Q729.6123046875 164.99169921875 726.3035888671875 163.5634765625Q722.994873046875 162.13525390625 720.4716796875 159.612060546875Q717.948486328125 157.0888671875 716.520263671875 153.75634765625Q715.092041015625 150.423828125 715.092041015625 146.662841796875Q715.092041015625 142.854248046875 716.520263671875 139.521728515625Q717.948486328125 136.189208984375 720.4716796875 133.666015625Q722.994873046875 131.142822265625 726.3035888671875 129.7384033203125Q729.6123046875 128.333984375 733.4208984375 128.333984375Q737.2294921875 128.333984375 740.5382080078125 129.7384033203125Q743.846923828125 131.142822265625 746.3701171875 133.666015625Q748.893310546875 136.189208984375 750.321533203125 139.521728515625Q751.749755859375 142.854248046875 751.749755859375 146.662841796875Z" fill="#000000" />
</g></svg>