<svg xmlns="http://www.w3.org/2000/svg" viewBox="0 0 2048 2048">
<g transform="matrix(1 0 0 -1 0 2048)">
<path d="M862.4884033203125 475.68487548828125Q862.4884033203125 535.94873046875 839.6296997070312 588.9393615722656Q816.77099609375 641.9299926757812 776.5950927734375 682.1058959960938Q736.419189453125 722.2817993164062 683.4285583496094 745.1405029296875Q630.4379272460938 767.9992065429688 570.174072265625 767.9992065429688Q509.91021728515625 767.9992065429688 456.9195861816406 745.1405029296875Q403.928955078125 722.2817993164062 363.7530517578125 682.1058959960938Q323.5771484375 641.9299926757812 300.71844482421875 588.9393615722656Q277.8597412109375 535.94873046875 277.8597412109375 475.68487548828125Q277.8597412109375 415.4210205078125 300.71844482421875 362.4303894042969Q323.5771484375 309.43975830078125 363.7530517578125 269.26385498046875Q403.928955078125 229.08795166015625 456.9195861816406 206.229248046875Q509.91021728515625 183.37054443359375 570.174072265625 183.37054443359375Q630.4379272460938 183.37054443359375 683.4285583496094 206.229248046875Q736.419189453125 229.08795166015625 776.5950927734375 269.26385498046875Q816.77099609375 309.43975830078125 839.6296997070312 362.4303894042969Q862.4884033203125 415.4210205078125 862.4884033203125 475.68487548828125Z" fill="#1e50a0" />
<path d="M571 581 573 580 572 578Q555 553 530 538Q542 510 540 480L539 478H537Q508 486 486 506Q463 486 434 478H432V480Q430 510 443 538Q417 553 400 578L399 580L401 581Q429 592 459 589Q466 618 484 641L486 643L488 641Q507 618 513 589Q543 592 571 581Z" fill="#92d3f5" />
<path d="M1118.703857421875 202.1053466796875Q1118.703857421875 258.8486328125 1097.1805419921875 308.74359130859375Q1075.6572265625 358.6385498046875 1037.828369140625 396.4674072265625Q999.99951171875 434.2962646484375 950.1045532226562 455.819580078125Q900.2095947265625 477.3428955078125 843.46630859375 477.3428955078125Q786.7230224609375 477.3428955078125 736.8280639648438 455.819580078125Q686.93310546875 434.2962646484375 649.104248046875 396.4674072265625Q611.275390625 358.6385498046875 589.7520751953125 308.74359130859375Q568.228759765625 258.8486328125 568.228759765625 202.1053466796875Q568.228759765625 145.362060546875 589.7520751953125 95.46710205078125Q611.275390625 45.5721435546875 649.104248046875 7.7432861328125Q686.93310546875 -30.0855712890625 736.8280639648438 -51.60888671875Q786.7230224609375 -73.1322021484375 843.46630859375 -73.1322021484375Q900.2095947265625 -73.1322021484375 950.1045532226562 -51.60888671875Q999.99951171875 -30.0855712890625 1037.828369140625 7.7432861328125Q1075.6572265625 45.5721435546875 1097.1805419921875 95.46710205078125Q1118.703857421875 145.362060546875 1118.703857421875 202.1053466796875Z" fill="#1e50a0" />
<path d="M841.1033325195312 305.9290771484375 839.1040649414062 304.92919921875 840.10400390625 302.929443359375Q857.1018676757812 277.9324951171875 882.0960693359375 262.934326171875Q870.1031494140625 234.937744140625 872.106201171875 204.94140625L873.1061401367188 202.941650390625H875.1055297851562Q904.095703125 210.940673828125 926.0865478515625 230.938232421875Q949.0819702148438 210.940673828125 978.0740966796875 202.941650390625H980.073486328125L980.0732421875 204.94140625Q982.0689697265625 234.937744140625 969.0695190429688 262.934326171875Q995.0597534179688 277.9324951171875 1012.051513671875 302.929443359375L1013.0509643554688 304.92919921875L1011.0514526367188 305.9290771484375Q983.0586547851562 316.927734375 953.0681762695312 313.9281005859375Q946.0667724609375 342.924560546875 928.0694580078125 365.9217529296875L926.06982421875 367.9215087890625L924.0706787109375 365.9217529296875Q905.0792846679688 342.924560546875 899.0846557617188 313.9281005859375Q869.0934448242188 316.927734375 841.1033325195312 305.9290771484375Z" fill="#92d3f5" />
<path d="M577 598Q553 608 527 608Q519 632 502 653Q501 654 500 655L498 657Q486 668 474 657L472 655Q471 654 470 653Q454 632 445 608Q419 608 395 598Q393 598 392 597L390 596Q375 587 383 572L384 570Q384 569 385 567Q399 546 420 530Q412 506 413 479Q413 478 414 476V474Q418 458 434 460H437Q438 460 439 460Q465 468 486 483Q507 468 532 460Q533 460 535 460H537Q554 458 557 474L558 476Q558 478 558 479Q560 506 552 530Q573 546 587 567Q588 569 589 570L590 572Q597 587 582 596L580 597Q579 598 577 598ZM542 570Q532 560 520 553Q506 545 513 530Q518 518 520 504Q509 511 498 520Q486 530 474 520Q463 511 451 504Q454 517 459 530Q466 545 452 553Q440 560 430 570Q444 572 457 570Q474 569 477 585Q480 598 486 610Q492 598 495 585Q498 569 515 570Q529 572 542 570Z" fill="#000000" />
<path d="M481 197Q498 191 504 209Q506 217 503 223Q500 229 492 232Q403 259 353 337Q303 415 313 507Q324 599 392 663Q459 727 551 733Q644 739 719 685Q794 631 817 541Q819 532 825 529Q830 525 839 528Q857 532 852 550Q826 653 740 714Q654 776 549 769Q443 762 366 689Q290 616 277 511Q265 406 322 317Q380 228 481 197Z" fill="#000000" />
<path d="M834 323Q833 323 832 322L830 321Q815 312 822 297L823 295Q824 294 824 292Q839 271 860 255Q852 231 853 204Q854 203 854 201V199Q858 183 875 185H877Q878 185 880 185Q905 193 926 208Q947 193 972 185Q974 185 975 185H977Q994 183 998 199V201Q998 203 998 204Q1000 231 992 255Q1012 271 1027 292Q1028 294 1028 295L1029 297Q1036 312 1022 321L1020 322Q1018 323 1017 323Q992 333 966 333Q958 357 942 378Q941 379 940 380L938 382Q926 393 913 382L911 380Q910 379 910 378Q893 357 885 333Q859 333 834 323ZM870 295Q883 297 897 295Q913 294 917 310Q920 323 926 335Q932 323 935 310Q938 294 954 295Q968 297 981 295Q972 285 960 278Q946 270 952 255Q958 242 960 229Q948 236 938 245Q926 255 913 245Q903 236 891 229Q893 243 899 255Q906 270 891 278Q880 285 870 295Z" fill="#000000" />
<path d="M1136 202Q1136 323 1050 409Q964 495 843 495Q722 495 636 409Q550 323 550 202Q550 81 636 -5Q722 -91 843 -91Q964 -91 1050 -5Q1136 81 1136 202ZM1100 202Q1100 96 1024 21Q949 -55 843 -55Q737 -55 662 21Q586 96 586 202Q586 308 662 383Q737 459 843 459Q949 459 1024 383Q1100 308 1100 202Z" fill="#000000" />
</g></svg>