<svg xmlns="http://www.w3.org/2000/svg" viewBox="0 0 2048 2048">
<g transform="matrix(1 0 0 -1 0 2048)">
<path d="M330 825V-46H1100V825Z" fill="#92d3f5" />
<path d="M229 825V9Q229 -14 240.5 -30.0Q252 -46 275 -46H325L348 825Z" fill="#61b2e4" />
<path d="M348 807Q348 825 330 825Q311 825 311 807V-37Q311 -55 330 -55Q348 -55 348 -37Z" fill="#000000" />
<path d="M1145 56Q1129 48 1137 32Q1145 15 1162 24Q1192 39 1192 72V878Q1192 935 1135 935H302Q245 935 214 888Q196 862 205 841V-22Q206 -74 258 -74H1098Q1117 -74 1117 -56V824Q1117 842 1098 842H367H328H258Q253 842 249 845Q243 849 241 853Q241 856 241 858Q241 862 244 867Q265 898 302 898H1135Q1155 898 1155 878V73Q1155 61 1145 56ZM241 808Q249 805 258 805H328L367 806H1080V-38H258Q242 -38 241 -22Z" fill="#000000" />
<path d="M743 546Q743 564 725 564Q706 564 706 546V418Q706 399 725 399H780Q798 399 798 418Q798 436 780 436H743Z" fill="#000000" />
<path d="M618 399Q645 399 663 418Q682 437 682 463V500Q682 527 663 546Q645 564 618 564Q591 564 573 546Q554 527 554 500V463Q554 437 573 418Q591 399 618 399ZM618 436Q607 436 599 444Q590 452 590 463V500Q590 512 599 520Q607 528 618 528Q629 528 637 520Q645 512 645 500V463Q645 436 618 436Z" fill="#000000" />
<path d="M853.4548950195312 417.59259033203125Q853.4548950195312 422.6593017578125 850.9644775390625 426.8243103027344Q848.4740600585938 430.98931884765625 844.3090515136719 433.479736328125Q840.14404296875 435.97015380859375 835.0773315429688 435.97015380859375Q830.0106201171875 435.97015380859375 825.8456115722656 433.479736328125Q821.6806030273438 430.98931884765625 819.2331237792969 426.8243103027344Q816.78564453125 422.6593017578125 816.78564453125 417.59259033203125Q816.78564453125 412.61175537109375 819.2331237792969 408.4467468261719Q821.6806030273438 404.28173828125 825.8456115722656 401.79132080078125Q830.0106201171875 399.3009033203125 835.0773315429688 399.3009033203125Q840.14404296875 399.3009033203125 844.3090515136719 401.79132080078125Q848.4740600585938 404.28173828125 850.9644775390625 408.4467468261719Q853.4548950195312 412.61175537109375 853.4548950195312 417.59259033203125Z" fill="#000000" />
<path d="M539 541Q543 559 525 563Q507 566 503 549L481 445L458 549Q454 567 436 563Q418 559 422 541L450 412Q453 398 468 398H493Q508 398 511 412Z" fill="#000000" />
<path d="M926 448Q924 457 918 460Q912 463 904 461Q886 456 891 438Q902 398 943 399Q992 394 998 444Q1001 464 988 481Q988 481 987 482Q996 493 998 508Q1001 529 988 545Q975 562 954 564Q949 565 943 564Q902 565 891 525Q886 508 904 503Q921 498 926 515Q930 528 943 528Q945 528 946 528Q948 528 950 528Q955 527 959 523Q963 518 962 512Q961 502 953 500Q947 501 942 500Q924 498 926 480Q928 465 942 464Q947 463 951 463Q956 462 959 458Q963 454 962 448Q961 442 957 439Q952 435 946 436Q945 436 943 436Q930 435 926 448Z" fill="#000000" />
</g></svg>