<svg xmlns="http://www.w3.org/2000/svg" viewBox="0 0 2048 2048">
<g transform="matrix(1 0 0 -1 0 2048)">
<path d="M561 516Q561 472 541.0 437.5Q521 403 474 403Z" fill="#ea5a47" />
<path d="M740 418Q705 418 684.5 402.5Q664 387 655.5 365.0Q647 343 647 322Z" fill="#ea5a47" />
<path d="M537 211H1047Q1084 211 1105.0 231.0Q1126 251 1133.5 281.0Q1141 311 1136.0 341.0Q1131 371 1114.5 391.5Q1098 412 1072 412H1047Q1073 430 1081.0 457.0Q1089 484 1081.5 511.5Q1074 539 1055.5 562.0Q1037 585 1011.0 596.0Q985 607 954.0 600.5Q923 594 891 563L932 592Q932 636 909.5 663.0Q887 690 855.0 701.5Q823 713 792.5 709.5Q762 706 746 690L754 696Q709 733 666.5 739.5Q624 746 597.5 724.5Q571 703 575 654Q556 683 526.0 693.5Q496 704 465.5 699.0Q435 694 413.5 675.5Q392 657 389.0 628.0Q386 599 413 563Q387 589 354.0 593.0Q321 597 291.0 583.5Q261 570 245.5 542.5Q230 515 239.0 479.0Q248 443 293 403Q251 403 226.5 383.5Q202 364 194.5 335.5Q187 307 196.0 278.5Q205 250 229.5 230.5Q254 211 293 211Q251 211 226.5 191.5Q202 172 194.5 143.5Q187 115 196.0 86.0Q205 57 229.5 37.5Q254 18 293 18H594Q639 18 667.0 37.5Q695 57 710.0 86.0Q725 115 731.5 143.5Q738 172 739.0 191.5Q740 211 740 211Z" fill="#ffa7c0" />
<path d="M667 558Q695 586 705.0 604.0Q715 622 717.5 635.0Q720 648 724.5 660.5Q729 673 746 690Z" fill="#ea5a47" />
<path d="M293 422Q275 422 275 403Q275 385 293 385H474Q493 385 493 403Q493 422 474 422Z" fill="#000000" />
<path d="M474 422Q456 422 456 403Q456 385 474 385Q580 385 580 516Q580 535 561 535Q543 535 543 516Q543 422 474 422Z" fill="#000000" />
<path d="M293 229Q275 229 275 211Q275 193 293 193H362Q380 193 380 211Q380 229 362 229Z" fill="#000000" />
<path d="M629 211Q629 193 647 193Q666 193 666 211V322Q666 340 647 340Q629 340 629 322Z" fill="#000000" />
<path d="M629 322Q629 304 647 304Q666 304 666 322Q666 353 682 374Q701 400 740 400Q759 400 759 418Q759 437 740 437Q683 437 652 397Q629 366 629 322Z" fill="#000000" />
<path d="M1071.8065795898438 392.99212646484375Q1090.2660522460938 392.40411376953125 1090.5013427734375 411.80419921875Q1090.1487426757812 429.91094970703125 1072.0419921875 429.558349609375L914.3721923828125 429.44189453125Q895.9127197265625 430.0299072265625 896.6180419921875 410.9825439453125Q896.030029296875 392.5230712890625 915.077392578125 393.2283935546875Z" fill="#000000" />
<path d="M758 193H1047Q1152 193 1156 311Q1158 356 1137 390Q1118 422 1088 428Q1103 452 1103 484Q1103 533 1070 574Q1035 617 985 621Q967 622 949 618Q938 691 862 719Q797 742 754 719Q685 770 624 757Q571 746 559 697Q540 710 514 716Q470 726 429 707Q385 687 374 647Q369 628 372 608Q356 613 337 612Q288 612 253 580Q214 545 219 495Q222 455 254 417Q223 409 202 386Q172 353 173 307Q174 261 205 228Q214 219 224 212Q212 204 202 193Q172 161 173 114Q174 68 205 36Q239 0 293 0H594Q700 0 740 108Q756 150 758 193ZM741 229Q740 229 740 229H537Q519 229 519 211Q519 193 537 193H721Q719 157 706 121Q675 37 594 37H293Q211 37 209 115Q209 147 229 168Q252 193 293 193Q312 193 312 211Q312 229 293 229Q211 229 209 307Q209 339 229 361Q252 385 293 385Q312 385 312 403Q312 412 306 417Q259 459 255 498Q252 530 277 553Q302 575 337 576Q374 576 399 550Q412 537 425 549Q437 560 427 573Q402 609 409 637Q416 661 444 674Q518 707 560 644Q570 629 585 639Q594 645 593 656Q589 712 632 721Q675 731 727 694Q725 686 731 678Q743 664 757 676L765 682Q766 683 767 684Q796 703 849 684Q908 662 913 603Q896 593 878 576Q867 564 877 552Q887 537 902 548L942 577Q962 586 982 584Q1016 581 1042 551Q1067 520 1066 484Q1066 448 1037 427Q1022 416 1032 401Q1038 393 1047 393H1072Q1093 393 1106 371Q1121 346 1119 312Q1116 229 1047 229Z" fill="#000000" />
<path d="M759 677Q765 683 765 690Q765 696 759 703Q746 716 733 703Q710 680 701 646Q692 609 654 571Q648 565 648 558Q648 552 654 545Q667 532 680 545Q725 590 737 637Q743 661 759 677Z" fill="#000000" />
</g></svg>