<svg xmlns="http://www.w3.org/2000/svg" viewBox="0 0 2048 2048">
<g transform="matrix(1 0 0 -1 0 2048)">
<path d="M807 -73Q834 -72 854.0 -54.5Q874 -37 877 -10L931 425H384L433 -9Q436 -36 456.0 -54.0Q476 -72 503 -73Z" fill="#92d3f5" />
<path d="M826 425H931L877 -10Q874 -37 854.0 -54.5Q834 -72 807 -73H702Q729 -72 749.0 -54.5Q769 -37 772 -10Z" fill="#61b2e4" />
<path d="M934 387H935Q951 388 962.5 399.5Q974 411 974 427V442Q974 483 945.0 512.5Q916 542 875 543H444Q403 542 373.5 512.5Q344 483 345 442V427Q344 411 356.0 399.5Q368 388 384 387Z" fill="#61b2e4" />
<path d="M747 882H572V788H747Z" fill="#ffffff" />
<path d="M920 342Q922 360 904 362Q886 365 883 346L840 -5Q836 -35 807 -35H503Q473 -35 470 -5L430 346Q429 355 424 359Q419 364 410 362Q391 360 393 342L433 -9Q440 -72 503 -72H807Q869 -72 876 -10Z" fill="#000000" />
<path d="M934 388H935Q951 388 962 400Q974 411 974 427V442Q974 483 945 512Q916 542 875 542H444Q402 542 374 512Q345 483 345 442V427Q345 408 354 398Q364 388 384 388ZM936 425Q935 425 934 425H384Q381 425 381 427V442Q381 468 400 487Q418 505 444 505H875Q937 505 937 442V427Q937 426 936 425Z" fill="#000000" />
<path d="M553 788Q553 769 572 769H747Q765 769 765 788V882Q765 900 747 900H572Q553 900 553 882ZM590 864H728V806H590Z" fill="#000000" />
<path d="M751 851Q733 856 729 838Q724 821 742 816Q861 783 935 685Q1010 586 1008 462Q1008 444 1026 444Q1045 443 1045 462Q1047 598 965 707Q883 816 751 851Z" fill="#000000" />
<path d="M577 815Q594 820 589 838Q587 847 581 850Q576 853 567 851Q436 814 355 706Q273 597 275 462Q275 443 294 444Q312 444 312 462Q310 585 384 684Q458 782 577 815Z" fill="#000000" />
<path d="M293 480Q275 480 275 462Q275 443 293 443H313Q332 443 332 462Q332 480 313 480Z" fill="#000000" />
<path d="M1006 479Q988 479 988 461Q988 442 1006 442H1026Q1045 442 1045 461Q1045 479 1026 479Z" fill="#000000" />
</g></svg>