<svg xmlns="http://www.w3.org/2000/svg" viewBox="0 0 2048 2048">
<g transform="matrix(1 0 0 -1 0 2048)">
<path d="M1150 57 1237 90Q1237 90 1238.0 115.0Q1239 140 1239.5 174.5Q1240 209 1240 237Q1239 267 1234.5 300.5Q1230 334 1226 353Q1224 367 1209 368Q1186 368 1134.0 368.5Q1082 369 1010.0 369.5Q938 370 855.5 370.0Q773 370 687.5 370.0Q602 370 523.5 369.0Q445 368 382.0 366.5Q319 365 279.5 362.5Q240 360 235 357Q224 351 216.0 329.5Q208 308 202.5 280.0Q197 252 193.5 225.0Q190 198 188.5 180.0Q187 162 187 162Q187 162 187.0 150.5Q187 139 187.5 123.5Q188 108 188 97Q188 80 197.5 77.0Q207 74 207 74L329 55Z" fill="#ea5a47" />
<path d="M241 347Q266 355 320.5 359.5Q375 364 449.0 366.0Q523 368 607.5 367.5Q692 367 778.0 365.5Q864 364 942.0 361.5Q1020 359 1081.5 357.0Q1143 355 1179.0 353.0Q1215 351 1215 351Q1214 305 1203.5 280.0Q1193 255 1182.5 245.5Q1172 236 1172 236L385 260Q343 220 309.5 202.5Q276 185 252.0 181.0Q228 177 215.0 179.0Q202 181 202 181Q200 235 210.0 272.0Q220 309 230.5 328.0Q241 347 241 347Z" fill="#3f3f3f" />
<path d="M1090.0615234375 68.19287109375Q1090.0615234375 79.53515625 1085.75927734375 89.508544921875Q1081.45703125 99.48193359375 1073.8955078125 107.04345703125Q1066.333984375 114.60498046875 1056.360595703125 118.9072265625Q1046.38720703125 123.20947265625 1035.044921875 123.20947265625Q1023.70263671875 123.20947265625 1013.729248046875 118.9072265625Q1003.755859375 114.60498046875 996.1943359375 107.04345703125Q988.6328125 99.48193359375 984.33056640625 89.508544921875Q980.0283203125 79.53515625 980.0283203125 68.19287109375Q980.0283203125 56.8505859375 984.33056640625 46.877197265625Q988.6328125 36.90380859375 996.1943359375 29.34228515625Q1003.755859375 21.78076171875 1013.729248046875 17.478515625Q1023.70263671875 13.17626953125 1035.044921875 13.17626953125Q1046.38720703125 13.17626953125 1056.360595703125 17.478515625Q1066.333984375 21.78076171875 1073.8955078125 29.34228515625Q1081.45703125 36.90380859375 1085.75927734375 46.877197265625Q1090.0615234375 56.8505859375 1090.0615234375 68.19287109375Z" fill="#d0cfce" />
<path d="M495.0615234375 68.19287109375Q495.0615234375 79.53515625 490.75927734375 89.508544921875Q486.45703125 99.48193359375 478.8955078125 107.04345703125Q471.333984375 114.60498046875 461.360595703125 118.9072265625Q451.38720703125 123.20947265625 440.044921875 123.20947265625Q428.70263671875 123.20947265625 418.729248046875 118.9072265625Q408.755859375 114.60498046875 401.1943359375 107.04345703125Q393.6328125 99.48193359375 389.33056640625 89.508544921875Q385.0283203125 79.53515625 385.0283203125 68.19287109375Q385.0283203125 56.8505859375 389.33056640625 46.877197265625Q393.6328125 36.90380859375 401.1943359375 29.34228515625Q408.755859375 21.78076171875 418.729248046875 17.478515625Q428.70263671875 13.17626953125 440.044921875 13.17626953125Q451.38720703125 13.17626953125 461.360595703125 17.478515625Q471.333984375 21.78076171875 478.8955078125 29.34228515625Q486.45703125 36.90380859375 490.75927734375 46.877197265625Q495.0615234375 56.8505859375 495.0615234375 68.19287109375Z" fill="#d0cfce" />
<path d="M742 306V74H835V306Z" fill="#3f3f3f" />
<path d="M205 116Q205 116 205.0 129.0Q205 142 205 142Q205 159 219 159H272L252 116Z" fill="#fcea2b" />
<path d="M329 55Q338 55 342 60Q347 65 347 74Q347 92 329 92H207Q206 92 206 97Q206 120 205 162Q217 325 244 341Q259 350 688 352Q1035 353 1208 349Q1220 281 1221 236Q1222 185 1219 106L1147 94Q1129 91 1132 73Q1135 54 1153 57L1240 72Q1255 75 1256 89Q1259 180 1258 237Q1257 285 1244 356Q1239 385 1209 386Q1036 389 688 388Q249 387 225 373Q181 347 168 164Q168 163 168 162Q169 120 169 97Q169 56 207 56Z" fill="#000000" />
<path d="M923 54Q941 54 941 72Q941 91 923 91L553 92Q535 92 535 73Q535 55 553 55Z" fill="#000000" />
<path d="M208 284Q218 285 222 290Q226 295 225 304Q224 322 206 321L122 315Q111 314 107 304L80 243Q73 227 90 219Q98 216 104 218Q110 220 114 229L136 279Z" fill="#000000" />
<path d="M1109 68Q1109 141 1035 141Q962 141 962 68Q962 38 984 16Q1005 -5 1035 -5Q1066 -5 1087 16Q1109 38 1109 68ZM1072 68Q1072 31 1035 31Q999 31 999 68Q999 105 1035 105Q1072 105 1072 68Z" fill="#000000" />
<path d="M513 68Q513 141 439 141Q366 141 366 68Q366 38 388 16Q409 -5 439 -5Q470 -5 491 16Q513 38 513 68ZM476 68Q476 31 439 31Q403 31 403 68Q403 105 439 105Q476 105 476 68Z" fill="#000000" />
<path d="M835 274Q817 275 817 256Q817 238 835 238L1167 235Q1168 235 1170 235Q1171 235 1172 235Q1181 237 1184 243Q1188 248 1186 257Q1183 274 1166 272Z" fill="#000000" />
<path d="M239 214Q221 210 226 192Q228 183 233 179Q239 176 248 178Q322 196 390 242L742 239Q760 238 761 257Q761 275 742 275L385 278Q379 278 374 275Q310 230 239 214Z" fill="#000000" />
<path d="M329 55Q338 55 342 60Q347 65 347 74Q347 92 329 92H207Q206 92 206 97Q206 120 205 162Q217 325 244 341Q259 350 688 352Q1035 353 1208 349Q1220 281 1221 236Q1222 181 1219 91Q1219 82 1223 77Q1227 72 1237 72Q1255 71 1256 89Q1259 180 1258 237Q1257 285 1244 356Q1239 385 1209 386Q1036 389 688 388Q249 387 225 373Q181 347 168 164Q168 163 168 162Q169 120 169 97Q169 56 207 56Z" fill="#000000" />
<path d="M724 74Q724 55 742 55H835Q853 55 853 74V306Q853 324 835 324H742Q724 324 724 306ZM761 288H817V92H761Z" fill="#000000" />
<path d="M205 135Q186 135 186 116Q186 98 205 98H252Q261 98 266 105L286 130Q292 137 291 144Q290 150 283 156Q268 167 257 153L243 135Z" fill="#000000" />
</g></svg>