<svg xmlns="http://www.w3.org/2000/svg" viewBox="0 0 2048 2048">
<g transform="matrix(1 0 0 -1 0 2048)">
<path d="M625 973V-202H698V973Z" fill="#d0cfce" />
<path d="M897 339Q912 339 922.5 350.0Q933 361 933 376V845Q933 860 922.5 871.0Q912 882 897 882H429Q414 882 403.0 871.0Q392 860 392 845V376Q392 361 403.0 350.0Q414 339 429 339Z" fill="#ffffff" />
<path d="M845.46923828125 612.403564453125Q845.46923828125 650.232421875 831.120361328125 683.4957275390625Q816.771484375 716.759033203125 791.55224609375 741.978271484375Q766.3330078125 767.197509765625 733.0697021484375 781.54638671875Q699.806396484375 795.895263671875 661.9775390625 795.895263671875Q624.148681640625 795.895263671875 590.8853759765625 781.54638671875Q557.6220703125 767.197509765625 532.40283203125 741.978271484375Q507.18359375 716.759033203125 492.834716796875 683.4957275390625Q478.48583984375 650.232421875 478.48583984375 612.403564453125Q478.48583984375 574.57470703125 492.834716796875 541.3114013671875Q507.18359375 508.048095703125 532.40283203125 482.828857421875Q557.6220703125 457.609619140625 590.8853759765625 443.2607421875Q624.148681640625 428.911865234375 661.9775390625 428.911865234375Q699.806396484375 428.911865234375 733.0697021484375 443.2607421875Q766.3330078125 457.609619140625 791.55224609375 482.828857421875Q816.771484375 508.048095703125 831.120361328125 541.3114013671875Q845.46923828125 574.57470703125 845.46923828125 612.403564453125Z" fill="#fcea2b" />
<path d="M863.9535522460938 611.9765014648438Q863.9535522460938 695.9739379882812 803.9553833007812 753.97216796875Q745.9571533203125 813.9703369140625 661.959716796875 813.9703369140625Q577.9622802734375 813.9703369140625 519.9640502929688 753.97216796875Q459.96588134765625 695.9739379882812 459.96588134765625 611.9765014648438Q459.96588134765625 527.9790649414062 519.9640502929688 469.9808349609375Q577.9622802734375 409.982666015625 661.959716796875 409.982666015625Q745.9571533203125 409.982666015625 803.9553833007812 469.9808349609375Q863.9535522460938 527.9790649414062 863.9535522460938 611.9765014648438ZM827.9546508789062 611.9765014648438Q827.9546508789062 543.9785766601562 777.9561767578125 495.98004150390625Q729.9576416015625 447.98150634765625 661.959716796875 447.98150634765625Q593.9617919921875 447.98150634765625 545.9632568359375 495.98004150390625Q497.9647216796875 543.9785766601562 497.9647216796875 611.9765014648438Q497.9647216796875 679.9744262695312 545.9632568359375 727.9729614257812Q593.9617919921875 777.971435546875 661.959716796875 777.971435546875Q729.9576416015625 777.971435546875 777.9561767578125 727.9729614257812Q827.9546508789062 679.9744262695312 827.9546508789062 611.9765014648438Z" fill="#5c9e31" />
<path d="M607 889Q607 871 625 871Q644 871 644 889V955H680V889Q680 871 699 871Q717 871 717 889V974Q717 992 699 992H625Q607 992 607 974Z" fill="#000000" />
<path d="M717 330Q717 348 699 348Q680 348 680 330V-183H644V332Q644 350 625 350Q607 350 607 332V-202Q607 -220 625 -220H699Q717 -220 717 -202Z" fill="#000000" />
<path d="M897 321Q919 321 935 337Q952 353 952 376V845Q952 868 935 884Q919 900 897 900H429Q406 900 390 884Q374 868 374 845V376Q374 353 390 337Q406 321 429 321ZM897 358H429Q411 358 411 376V845Q411 864 429 864H897Q915 864 915 845V376Q915 358 897 358Z" fill="#000000" />
<path d="M863.9535522460938 611.9765014648438Q863.9535522460938 695.9739379882812 803.9553833007812 753.97216796875Q745.9571533203125 813.9703369140625 661.959716796875 813.9703369140625Q577.9622802734375 813.9703369140625 519.9640502929688 753.97216796875Q459.96588134765625 695.9739379882812 459.96588134765625 611.9765014648438Q459.96588134765625 527.9790649414062 519.9640502929688 469.9808349609375Q577.9622802734375 409.982666015625 661.959716796875 409.982666015625Q745.9571533203125 409.982666015625 803.9553833007812 469.9808349609375Q863.9535522460938 527.9790649414062 863.9535522460938 611.9765014648438ZM827.9546508789062 611.9765014648438Q827.9546508789062 543.9785766601562 777.9561767578125 495.98004150390625Q729.9576416015625 447.98150634765625 661.959716796875 447.98150634765625Q593.9617919921875 447.98150634765625 545.9632568359375 495.98004150390625Q497.9647216796875 543.9785766601562 497.9647216796875 611.9765014648438Q497.9647216796875 679.9744262695312 545.9632568359375 727.9729614257812Q593.9617919921875 777.971435546875 661.959716796875 777.971435546875Q729.9576416015625 777.971435546875 777.9561767578125 727.9729614257812Q827.9546508789062 679.9744262695312 827.9546508789062 611.9765014648438Z" fill="#000000" />
<path d="M618 715Q618 733 600 733Q581 733 581 715V515Q581 497 600 497Q618 497 618 515Z" fill="#000000" />
<path d="M734 715Q734 733 716 733Q697 733 697 715V515Q697 497 716 497Q734 497 734 515Z" fill="#000000" />
<path d="M715 598Q733 598 733 616Q733 634 715 634H600Q581 634 581 616Q581 598 600 598Z" fill="#000000" />
<path d="M864 612Q864 696 805 756Q746 815 662 815Q578 815 519 756Q459 696 459 612Q459 528 519 469Q578 410 662 410Q746 410 805 469Q864 528 864 612ZM826 612Q826 544 778 496Q730 448 662 448Q594 448 546 496Q498 544 498 612Q498 680 546 728Q594 776 662 776Q730 776 778 728Q826 680 826 612Z" fill="#5c9e31" />
<path d="M619 715Q619 734 600 734Q580 734 580 715V515Q580 496 600 496Q619 496 619 515Z" fill="#5c9e31" />
<path d="M735 715Q735 734 716 734Q696 734 696 715V515Q696 496 716 496Q735 496 735 515Z" fill="#5c9e31" />
<path d="M715.1923828125 596.1531372070312Q734.0921630859375 596.1531372070312 734.0921630859375 616.1029052734375Q734.0921630859375 635.002685546875 715.1923828125 635.002685546875H599.6937255859375Q580.7939453125 635.002685546875 580.7939453125 616.1029052734375Q580.7939453125 596.1531372070312 599.6937255859375 596.1531372070312Z" fill="#5c9e31" />
</g></svg>