<svg xmlns="http://www.w3.org/2000/svg" viewBox="0 0 2048 2048">
<g transform="matrix(1 0 0 -1 0 2048)">
<path d="M981 -1 1009 -20Q1035 -29 1043.0 -47.5Q1051 -66 1043.5 -88.0Q1036 -110 1016.5 -128.0Q997 -146 967.0 -153.5Q937 -161 899 -151Q899 -151 875.0 -145.0Q851 -139 812.0 -129.5Q773 -120 729.0 -109.5Q685 -99 644.0 -90.0Q603 -81 574.5 -75.0Q546 -69 540 -69Q470 -69 424.5 -67.5Q379 -66 347.5 -56.0Q316 -46 287 -19Q238 31 213.0 92.5Q188 154 188.0 220.0Q188 286 213.0 348.0Q238 410 287 459Q299 472 322.5 506.0Q346 540 366.5 595.5Q387 651 393.0 729.0Q399 807 377 908Q371 930 384.5 941.0Q398 952 421.0 954.5Q444 957 466 953Q522 943 549.5 915.0Q577 887 585.0 841.5Q593 796 589.0 735.0Q585 674 578 599L869 541Q896 528 911.0 506.0Q926 484 931.5 459.0Q937 434 933.5 414.0Q930 394 919.0 385.5Q908 377 891 387L799 397L852 387Q891 368 907.5 341.5Q924 315 923.5 288.5Q923 262 911.0 240.5Q899 219 880.5 209.5Q862 200 843 209L785 232L820 209Q852 195 868.5 171.5Q885 148 888.5 122.0Q892 96 885.0 74.5Q878 53 863.0 42.0Q848 31 828 38L765 70Z" fill="#fcea2b" />
<path d="M839 393Q821 397 817 379Q812 362 830 357Q876 346 914 370Q949 394 958 434Q968 477 943 513Q915 551 853 564L597 614Q615 788 602 848Q580 952 470 971Q469 971 469 971Q424 978 394 967Q347 950 359 903Q396 736 349 602Q321 521 274 472Q170 368 170 220Q170 73 274 -32Q274 -32 275 -32Q316 -71 372 -81Q409 -87 514 -87Q531 -87 540 -87Q564 -87 914 -173Q1018 -201 1054 -121Q1068 -88 1056 -56Q1042 -21 1003 -8L924 20Q907 26 901 9Q894 -8 912 -14L992 -43Q1014 -51 1022 -69Q1029 -87 1020 -106Q997 -157 922 -138Q568 -50 540 -50Q531 -50 514 -50Q412 -51 379 -45Q333 -37 300 -6Q207 88 207 220Q207 353 300 446Q353 502 384 589Q434 734 395 911Q395 912 395 912Q391 927 407 933Q428 941 463 935Q550 920 567 841Q578 785 560 612Q560 605 559 601Q558 584 574 581L846 528Q893 518 913 491Q929 469 923 442Q917 416 894 401Q870 385 839 393Z" fill="#000000" />
<path d="M824 227Q806 232 802 214Q797 196 815 192Q861 179 896 204Q928 227 935 267Q952 367 839 393Q821 397 817 379Q813 361 831 357Q910 339 899 274Q894 248 875 234Q854 219 824 227Z" fill="#000000" />
<path d="M801 58Q783 63 778 46Q773 28 791 23Q838 10 871 36Q900 59 906 101Q921 201 824 227Q816 229 810 226Q804 223 802 214Q797 196 815 192Q880 174 870 106Q866 79 849 65Q830 51 801 58Z" fill="#000000" />
<path d="M791 23Q809 18 814 36Q818 53 801 58L696 87Q679 92 674 75Q669 57 687 52Z" fill="#000000" />
<path d="M815 192Q832 187 837 204Q842 222 825 227L732 253Q715 258 710 241Q705 223 722 218Z" fill="#000000" />
<path d="M830.1549072265625 356.9483642578125Q848.6898803710938 353.1632080078125 852.4750366210938 371.69818115234375Q856.0609741210938 389.25762939453125 837.5260009765625 393.04278564453125L762.4105834960938 408.38262939453125Q743.8756103515625 412.16778564453125 740.2896728515625 394.60833740234375Q736.5045166015625 376.0733642578125 755.0394897460938 372.2882080078125Z" fill="#000000" />
</g></svg>