<svg xmlns="http://www.w3.org/2000/svg" viewBox="0 0 2048 2048">
<g transform="matrix(1 0 0 -1 0 2048)">
<path d="M495 403 761 -55H229L495 403Z" fill="#fcea2b" />
<path d="M514 407Q514 408 514 408Q513 413 508 416Q503 423 495 422Q487 423 482 416Q477 413 476 408Q476 408 476 407L213 -46Q204 -62 220 -71Q224 -73 229 -73H761Q779 -73 779 -55Q779 -50 777 -46ZM261 -37 495 367 729 -37Z" fill="#fcea2b" />
<path d="M495 403 229 -55H495V403Z" fill="#f1b31c" />
<path d="M512 413Q508 420 500 421Q492 424 485 420Q479 417 477 409L213 -46Q211 -50 211 -55Q211 -73 229 -73H495Q513 -73 513 -55V400Q515 404 514 408Q513 411 512 413ZM477 335V-37H261Z" fill="#f1b31c" />
<path d="M1219 447Q1219 410 1193.0 380.5Q1167 351 1127 338Q1128 332 1128 325Q1128 293 1102.0 266.0Q1076 239 1032.0 223.5Q988 208 935 208Q887 208 846.5 221.0Q806 234 779 255Q738 231 690 232Q649 232 615.0 248.0Q581 264 561.0 290.5Q541 317 541 349Q541 386 566.5 415.5Q592 445 633 458Q632 469 632 480Q632 535 661.5 580.0Q691 625 740.5 651.5Q790 678 851 678Q917 678 970.0 646.0Q1023 614 1049 563Q1060 565 1070 565Q1111 565 1145.0 549.0Q1179 533 1199.0 506.5Q1219 480 1219 447Z" fill="#b1cc33" />
<path d="M495 55V-55H312Q312 -17 338.5 10.0Q365 37 403 37Q431 37 456.0 46.0Q481 55 495 55Z" fill="#8967aa" />
<path d="M842 -55Q842 -73 861 -73Q879 -73 879 -55V86Q879 93 873 99L776 193Q763 206 751 193Q738 180 751 167L842 78Z" fill="#000000" />
<path d="M858 100Q845 87 858 74Q872 62 884 75L939 133Q952 146 939 159Q925 172 913 158Z" fill="#000000" />
<path d="M511 394Q515 402 514 408Q512 415 504 419Q488 428 479 413L213 -46Q204 -62 220 -71Q224 -73 229 -73H761Q779 -73 779 -55Q779 -50 777 -46L650 173Q640 189 625 180Q609 171 618 155L729 -37H261Z" fill="#000000" />
<path d="M477 -55Q477 -73 495 -73Q513 -73 513 -55V234Q513 252 495 252Q477 252 477 234Z" fill="#000000" />
<path d="M513.0 234.0Q513.0 252.0 495.0 252.0Q477.0 252.0 477.0 234.0V-55.0Q477.0 -73.0 495.0 -73.0Q513.0 -73.0 513.0 -55.0Z" fill="#000000" />
<path d="M1238 447Q1238 505 1187 545Q1138 583 1070 583Q1065 583 1060 583Q995 697 851 697Q753 697 684 634Q613 570 613 480Q613 475 614 471Q523 435 523 349Q523 292 573 252Q622 213 690 213Q736 213 778 234Q839 189 935 189Q1020 189 1081 226Q1146 266 1146 325V326Q1238 361 1238 447ZM1201 447Q1201 382 1121 356L1106 351L1109 335Q1110 330 1110 325Q1110 287 1062 258Q1010 226 935 226Q844 226 791 270L781 278L770 271Q733 250 690 250Q635 250 596 281Q559 310 559 349Q559 415 639 441L653 446L651 461Q650 470 650 480Q650 554 708 607Q767 660 851 660Q979 660 1033 555L1039 544L1052 545Q1061 546 1070 546Q1125 546 1164 516Q1201 487 1201 447Z" fill="#000000" />
<path d="M495 73Q485 73 459 66Q422 55 403 55Q358 55 326 23Q293 -9 293 -55Q293 -73 312 -73H495Q513 -73 513 -55V55Q513 73 495 73ZM477 33V-37H331Q340 18 403 18Q427 18 469 31Q473 32 477 33Z" fill="#000000" />
</g></svg>