<svg xmlns="http://www.w3.org/2000/svg" viewBox="0 0 2048 2048">
<g transform="matrix(1 0 0 -1 0 2048)">
<path d="M220 825V-52H1100V825Z" fill="#b399c8" />
<path d="M644 490Q644 544 606 582Q568 620 514 620Q461 620 423 582Q385 544 385 490Q385 437 423 399Q461 361 514 361Q568 361 606 399Q644 437 644 490ZM589 490Q589 459 567 438Q545 416 514 416Q483 416 462 438Q440 459 440 490Q440 521 462 543Q483 565 514 565Q589 565 589 490Z" fill="#000000" />
<path d="M460 607Q450 602 446 592Q441 581 446 571Q451 560 461 556Q472 552 482 557Q527 577 602 580Q752 588 894 503Q903 497 914 500Q925 503 931 513Q937 522 934 533Q932 544 922 550Q766 644 599 635Q514 631 460 607Z" fill="#000000" />
<path d="M676 293Q676 240 714 202Q752 164 806 164Q859 164 897 202Q935 240 935 293Q935 347 897 385Q859 423 806 423Q752 423 714 385Q676 347 676 293ZM731 293Q731 368 806 368Q880 368 880 293Q880 219 806 219Q731 219 731 293Z" fill="#000000" />
<path d="M860.0 177.0Q870.0 182.0 874.0 192.0Q879.0 203.0 874.0 213.0Q869.0 224.0 859.0 228.0Q848.0 232.0 838.0 227.0Q793.0 207.0 718.0 204.0Q568.0 196.0 426.0 281.0Q417.0 287.0 406.0 284.0Q395.0 281.0 389.0 271.0Q383.0 262.0 386.0 251.0Q388.0 240.0 398.0 234.0Q554.0 140.0 721.0 149.0Q806.0 153.0 860.0 177.0Z" fill="#000000" />
<path d="M201.3607177734375 -54.7630615234375Q201.3607177734375 -73.0552978515625 219.6529541015625 -73.0552978515625H1099.7127685546875Q1118.0050048828125 -73.0552978515625 1118.0050048828125 -54.7630615234375V825.2967529296875Q1118.0050048828125 843.5889892578125 1099.7127685546875 843.5889892578125H219.6529541015625Q201.3607177734375 843.5889892578125 201.3607177734375 825.2967529296875ZM237.9451904296875 807.0045166015625H1081.4205322265625V-36.4708251953125H237.9451904296875Z" fill="#000000" />
</g></svg>