<svg xmlns="http://www.w3.org/2000/svg" viewBox="0 0 2048 2048">
<g transform="matrix(1 0 0 -1 0 2048)">
<path d="M764 446 757 -121H528V447Z" fill="#ffffff" />
<path d="M685 -121V449L764 448V-121Z" fill="#d0cfce" />
<path d="M553 752Q553 779 572.5 806.5Q592 834 616.0 856.5Q640 879 653 893Q664 880 684.5 853.5Q705 827 724.0 795.0Q743 763 747 737Q753 706 753.0 672.0Q753 638 745 616Q743 609 740.5 606.0Q738 603 727 593Q727 593 729 592H679H572Q577 594 574.0 602.5Q571 611 566.5 621.0Q562 631 560 636Q554 656 553.5 690.0Q553 724 553 752Z" fill="#fcea2b" />
<path d="M549 605Q554 587 572 592Q581 595 584 601Q587 606 584 615Q571 659 571 719Q571 787 652 867Q718 799 729 733Q739 678 716 616Q713 608 716 602Q718 596 727 593Q744 586 751 603Q777 674 766 740Q751 823 666 906Q653 918 640 906Q534 808 534 719Q534 654 549 605Z" fill="#000000" />
<path d="M528 -139H764Q782 -139 782 -121V447Q782 466 764 466L528 467Q509 467 509 449V-121Q509 -139 528 -139ZM546 -103V430L746 429V-103Z" fill="#000000" />
<path d="M667 610Q667 628 648 628Q630 628 630 610V536Q630 517 648 517Q667 517 667 536Z" fill="#000000" />
</g></svg>