<svg xmlns="http://www.w3.org/2000/svg" viewBox="0 0 2048 2048">
<g transform="matrix(1 0 0 -1 0 2048)">
<path d="M1219 589Q1219 589 1207.5 584.0Q1196 579 1163.0 571.0Q1130 563 1068.0 555.5Q1006 548 906.5 542.5Q807 537 660 537Q513 537 413.5 542.5Q314 548 252.0 555.5Q190 563 157.0 571.0Q124 579 112.5 584.0Q101 589 101 589Q101 589 104.5 570.5Q108 552 116.5 522.0Q125 492 140.0 458.5Q155 425 178.5 395.0Q202 365 234.5 346.0Q267 327 311 327H1009Q1053 327 1085.5 346.0Q1118 365 1141.5 395.0Q1165 425 1180.0 458.5Q1195 492 1203.5 522.0Q1212 552 1215.5 570.5Q1219 589 1219 589Z" fill="#61b2e4" />
<path d="M1237 587Q1238 594 1234 600Q1223 615 1208 604Q1194 594 1120 581Q964 555 660 555Q356 555 200 581Q126 594 112 604Q106 609 98 608Q89 606 85 601Q81 596 83 587Q92 519 124 451Q190 309 311 309H1009Q1130 309 1196 451Q1228 519 1237 587ZM1195 558Q1185 512 1163 466Q1107 346 1009 346H311Q213 346 157 466Q135 512 125 558Q245 519 660 519Q1075 519 1195 558Z" fill="#61b2e4" />
<path d="M742 709 740 668 511 272 460 258 360 83 455 28 556 203 542 253 772 650 822 664 742 709Z" fill="#a57939" />
<path d="M721 670Q720 651 739 650Q757 649 758 667L761 708Q762 727 743 728Q725 729 724 711Z" fill="#000000" />
<path d="M769 609Q774 617 772 623Q770 630 762 634Q746 643 737 628L526 262Q523 256 525 248L536 206L448 54L385 90L473 242L490 247Q508 252 503 270Q501 278 495 282Q490 285 481 283L456 276Q448 274 445 267L344 93Q335 77 350 68L446 13Q462 3 471 19L572 194Q575 201 573 208L562 251Z" fill="#000000" />
<path d="M750.437744140625 724.5145874023438Q742.9737548828125 729.4425659179688 736.7777709960938 728.174560546875Q730.581787109375 726.9065551757812 726.65380859375 717.7105712890625Q716.7978515625 702.7825927734375 733.4578247070312 693.9266357421875L796.6337280273438 656.5028076171875Q804.0977172851562 651.5748291015625 810.293701171875 652.8428344726562Q816.4896850585938 654.11083984375 820.4176635742188 663.3068237304688Q830.2736206054688 678.2348022460938 815.3456420898438 688.0907592773438Z" fill="#000000" />
<path d="M650 346Q632 346 632 327Q632 309 650 309H1009Q1130 309 1196 451Q1228 519 1237 587Q1239 596 1235 601Q1231 606 1222 608Q1214 609 1208 604Q1197 596 1138 584Q1012 561 771 556Q753 556 753 538Q753 528 758 524Q763 519 772 520Q1093 526 1195 558Q1185 512 1163 466Q1107 346 1009 346Z" fill="#000000" />
<path d="M621 519Q630 519 634 523Q639 528 639 537Q639 555 621 555Q339 557 194 582Q125 594 112 604Q97 615 86 600Q82 594 83 587Q92 519 124 451Q190 309 311 309H500Q518 309 518 327Q518 346 500 346H311Q213 346 157 466Q135 512 125 558Q239 521 621 519Z" fill="#000000" />
</g></svg>