<svg xmlns="http://www.w3.org/2000/svg" viewBox="0 0 2048 2048">
<g transform="matrix(1 0 0 -1 0 2048)">
<path d="M220 825V-55H1100V825Z" fill="#b399c8" />
<path d="M201.3607177734375 -54.7630615234375Q201.3607177734375 -73.0552978515625 219.6529541015625 -73.0552978515625H1099.7127685546875Q1118.0050048828125 -73.0552978515625 1118.0050048828125 -54.7630615234375V825.2967529296875Q1118.0050048828125 843.5889892578125 1099.7127685546875 843.5889892578125H219.6529541015625Q201.3607177734375 843.5889892578125 201.3607177734375 825.2967529296875ZM237.9451904296875 807.0045166015625H1081.4205322265625V-36.4708251953125H237.9451904296875Z" fill="#000000" />
<path d="M697 228Q697 174 735 136Q773 98 827 98Q880 98 919 136Q957 174 957 228Q957 282 919 320Q881 358 827 358Q773 358 735 320Q697 282 697 228ZM752 228Q752 259 774 281Q796 303 827 303Q858 303 880 281Q902 259 902 228Q902 197 880 175Q858 153 827 153Q752 153 752 228Z" fill="#000000" />
<path d="M750 256Q754 267 749 277Q744 287 733 291Q722 295 712 289Q702 284 698 274Q697 269 694 261Q673 199 638 115Q633 105 638 94Q642 84 652 79Q663 75 673 79Q684 83 689 94Q725 179 746 244Q749 252 750 256Z" fill="#000000" />
<path d="M487 222Q487 210 495 202Q503 194 514 194Q526 194 534 202Q542 210 542 222V479Q542 480 542 481Q536 539 497 599Q491 609 479 611Q468 614 459 607Q449 601 447 590Q445 579 451 569Q482 521 487 478Z" fill="#000000" />
<path d="M487 482Q486 471 493 462Q500 453 512 452Q523 451 532 458Q541 465 542 476Q552 572 619 572Q688 572 697 478V228Q697 217 705 209Q713 201 724 201Q736 201 744 209Q752 217 752 228V479Q752 480 752 482Q740 627 619 627Q502 627 487 482Z" fill="#000000" />
</g></svg>