<svg xmlns="http://www.w3.org/2000/svg" viewBox="0 0 2048 2048">
<g transform="matrix(1 0 0 -1 0 2048)">
<path d="M202 660V0H1118V660Z" fill="#fcea2b" />
<path d="M201.27899169921875 659.5995483398438V586.0006713867188H1118.8656005859375V659.5995483398438Z" fill="#f1b31c" />
<path d="M201.27899169921875 586.5995483398438V513.0006713867188H1118.8656005859375V586.5995483398438Z" fill="#f1b31c" />
<path d="M322 752Q310 752 301.5 743.5Q293 735 293 723V660H458V723Q458 735 450.0 743.5Q442 752 430 752Z" fill="#b1cc33" />
<path d="M560 679Q548 679 539.5 670.5Q531 662 531 650V587H696V650Q696 662 688.0 670.5Q680 679 668 679Z" fill="#ea5a47" />
<path d="M359 605Q347 605 338.5 596.5Q330 588 330 576V513H495V576Q495 588 487.0 596.5Q479 605 467 605Z" fill="#92d3f5" />
<path d="M202 532Q183 532 183 513Q183 495 202 495H1118Q1137 495 1137 513Q1137 532 1118 532Z" fill="#000000" />
<path d="M493 605Q475 605 475 587Q475 568 493 568H1118Q1137 568 1137 587Q1137 605 1118 605Z" fill="#000000" />
<path d="M202 605Q183 605 183 587Q183 568 202 568H332Q350 568 350 587Q350 605 332 605Z" fill="#000000" />
<path d="M532 642Q550 642 550 660Q550 678 532 678H202Q183 678 183 660V0Q183 -18 202 -18H1118Q1137 -18 1137 0V660Q1137 678 1118 678H695Q676 678 676 660Q676 642 695 642H1100V18H220V642Z" fill="#000000" />
<path d="M322 770Q303 770 289 756Q275 742 275 723V660Q275 642 293 642H458Q477 642 477 660V723Q477 742 463 756Q449 770 430 770ZM322 733H430Q440 733 440 723V678H312V723Q312 733 322 733Z" fill="#000000" />
<path d="M560 697Q513 697 513 650V587Q513 568 532 568H697Q715 568 715 587V650Q715 669 701 683Q687 697 668 697ZM560 660H668Q678 660 678 650V605H550V650Q550 660 560 660Z" fill="#000000" />
<path d="M359 623Q312 623 312 576V513Q312 495 330 495H495Q513 495 513 513V576Q513 623 466 623ZM359 587H466Q477 587 477 576V532H348V576Q348 587 359 587Z" fill="#000000" />
</g></svg>