<svg xmlns="http://www.w3.org/2000/svg" viewBox="0 0 2048 2048">
<g transform="matrix(1 0 0 -1 0 2048)">
<path d="M1076 694Q1032 692 996 716V762Q937 790 880.0 797.0Q823 804 776.5 799.5Q730 795 702.0 788.5Q674 782 674 782V736Q644 736 615.5 726.5Q587 717 564.0 704.0Q541 691 527.0 681.0Q513 671 513 671V604Q589 563 674 558L701 513H835L862 558Q862 558 883.5 559.0Q905 560 938.5 564.0Q972 568 1009.0 577.5Q1046 587 1076 604Q1106 621 1130.5 616.5Q1155 612 1173.0 598.0Q1191 584 1200.5 571.0Q1210 558 1210 558V739Q1210 739 1197.0 732.0Q1184 725 1163.0 716.0Q1142 707 1119.0 700.5Q1096 694 1076 694Z" fill="#61b2e4" />
<path d="M1039 309Q995 307 959 331V377Q900 405 843.0 412.0Q786 419 739.5 414.5Q693 410 665.0 403.5Q637 397 637 397V351Q607 351 578.5 341.5Q550 332 527.0 319.0Q504 306 490.0 296.0Q476 286 476 286V219Q552 178 637 173L664 128H798L825 173Q825 173 846.5 174.0Q868 175 901.5 179.0Q935 183 972.0 192.5Q1009 202 1039 219Q1069 236 1093.5 231.5Q1118 227 1136.0 213.0Q1154 199 1163.5 186.0Q1173 173 1173 173V354Q1173 354 1160.0 347.0Q1147 340 1126.0 331.0Q1105 322 1082.0 315.5Q1059 309 1039 309Z" fill="#d22f27" />
<path d="M312 -183Q312 -202 330 -202Q348 -202 348 -183V898Q348 917 330 917Q312 917 312 898Z" fill="#000000" />
<path d="M348.749755859375 916.662841796875Q348.749755859375 920.423828125 347.321533203125 923.75634765625Q345.893310546875 927.0888671875 343.3701171875 929.612060546875Q340.846923828125 932.13525390625 337.5382080078125 933.5634765625Q334.2294921875 934.99169921875 330.4208984375 934.99169921875Q326.6123046875 934.99169921875 323.3035888671875 933.5634765625Q319.994873046875 932.13525390625 317.4716796875 929.612060546875Q314.948486328125 927.0888671875 313.520263671875 923.75634765625Q312.092041015625 920.423828125 312.092041015625 916.662841796875Q312.092041015625 912.854248046875 313.520263671875 909.521728515625Q314.948486328125 906.189208984375 317.4716796875 903.666015625Q319.994873046875 901.142822265625 323.3035888671875 899.7384033203125Q326.6123046875 898.333984375 330.4208984375 898.333984375Q334.2294921875 898.333984375 337.5382080078125 899.7384033203125Q340.846923828125 901.142822265625 343.3701171875 903.666015625Q345.893310546875 906.189208984375 347.321533203125 909.521728515625Q348.749755859375 912.854248046875 348.749755859375 916.662841796875Z" fill="#000000" />
<path d="M367 916Q367 953 330 953Q293 953 293 916Q293 880 330 880Q367 880 367 916Z" fill="#000000" />
<path d="M366.49951171875 916.32568359375Q366.49951171875 923.84765625 363.64306640625 930.5126953125Q360.78662109375 937.177734375 355.740234375 942.22412109375Q350.69384765625 947.2705078125 344.076416015625 950.126953125Q337.458984375 952.9833984375 329.841796875 952.9833984375Q322.224609375 952.9833984375 315.607177734375 950.126953125Q308.98974609375 947.2705078125 303.943359375 942.22412109375Q298.89697265625 937.177734375 296.04052734375 930.5126953125Q293.18408203125 923.84765625 293.18408203125 916.32568359375Q293.18408203125 908.70849609375 296.04052734375 902.04345703125Q298.89697265625 895.37841796875 303.943359375 890.33203125Q308.98974609375 885.28564453125 315.607177734375 882.476806640625Q322.224609375 879.66796875 329.841796875 879.66796875Q337.458984375 879.66796875 344.076416015625 882.476806640625Q350.69384765625 885.28564453125 355.740234375 890.33203125Q360.78662109375 895.37841796875 363.64306640625 902.04345703125Q366.49951171875 908.70849609375 366.49951171875 916.32568359375Z" fill="#000000" />
<path d="M385 917Q385 972 330 972Q275 972 275 917Q275 862 330 862Q385 862 385 917ZM348 917Q348 898 330 898Q311 898 311 917Q311 935 330 935Q348 935 348 917Z" fill="#000000" />
<path d="M678.749755859375 653.662841796875Q678.749755859375 657.423828125 677.321533203125 660.75634765625Q675.893310546875 664.0888671875 673.3701171875 666.612060546875Q670.846923828125 669.13525390625 667.5382080078125 670.5634765625Q664.2294921875 671.99169921875 660.4208984375 671.99169921875Q656.6123046875 671.99169921875 653.3035888671875 670.5634765625Q649.994873046875 669.13525390625 647.4716796875 666.612060546875Q644.948486328125 664.0888671875 643.520263671875 660.75634765625Q642.092041015625 657.423828125 642.092041015625 653.662841796875Q642.092041015625 649.854248046875 643.520263671875 646.521728515625Q644.948486328125 643.189208984375 647.4716796875 640.666015625Q649.994873046875 638.142822265625 653.3035888671875 636.7384033203125Q656.6123046875 635.333984375 660.4208984375 635.333984375Q664.2294921875 635.333984375 667.5382080078125 636.7384033203125Q670.846923828125 638.142822265625 673.3701171875 640.666015625Q675.893310546875 643.189208984375 677.321533203125 646.521728515625Q678.749755859375 649.854248046875 678.749755859375 653.662841796875Z" fill="#000000" />
<path d="M697 653Q697 690 660 690Q623 690 623 653Q623 617 660 617Q697 617 697 653Z" fill="#000000" />
<path d="M770 697Q752 697 752 678Q752 660 770 660Q814 660 827 633Q831 625 837 623Q843 621 852 625Q868 633 860 650Q836 697 770 697Z" fill="#000000" />
<path d="M641.749755859375 268.662841796875Q641.749755859375 272.423828125 640.321533203125 275.75634765625Q638.893310546875 279.0888671875 636.3701171875 281.612060546875Q633.846923828125 284.13525390625 630.5382080078125 285.5634765625Q627.2294921875 286.99169921875 623.4208984375 286.99169921875Q619.6123046875 286.99169921875 616.3035888671875 285.5634765625Q612.994873046875 284.13525390625 610.4716796875 281.612060546875Q607.948486328125 279.0888671875 606.520263671875 275.75634765625Q605.092041015625 272.423828125 605.092041015625 268.662841796875Q605.092041015625 264.854248046875 606.520263671875 261.521728515625Q607.948486328125 258.189208984375 610.4716796875 255.666015625Q612.994873046875 253.142822265625 616.3035888671875 251.7384033203125Q619.6123046875 250.333984375 623.4208984375 250.333984375Q627.2294921875 250.333984375 630.5382080078125 251.7384033203125Q633.846923828125 253.142822265625 636.3701171875 255.666015625Q638.893310546875 258.189208984375 640.321533203125 261.521728515625Q641.749755859375 264.854248046875 641.749755859375 268.662841796875Z" fill="#000000" />
<path d="M660 268Q660 305 623 305Q586 305 586 268Q586 232 623 232Q660 232 660 268Z" fill="#000000" />
<path d="M733 312Q715 312 715 293Q715 275 733 275Q777 275 790 248Q798 232 815 240Q831 248 823 265Q800 312 733 312Z" fill="#000000" />
<path d="M516 653Q534 656 531 674Q529 692 510 689L327 660Q309 657 312 639Q314 626 326 624L510 586Q519 584 524 587Q529 591 531 600Q533 609 530 614Q526 620 517 622L431 639Z" fill="#000000" />
<path d="M480 268Q489 270 493 276Q496 281 495 290Q491 308 473 304L326 275Q308 271 312 253Q314 242 325 239L472 201Q490 196 494 214Q499 232 481 236L412 254Z" fill="#000000" />
<path d="M1076 712Q1076 712 1075 712Q1042 710 1014 727V762Q1014 773 1004 778Q902 827 775 818Q712 813 668 799Q656 795 656 782V754Q578 747 502 686Q495 680 495 671V604Q495 593 505 587Q579 547 663 541L685 504Q690 495 701 495H835Q845 495 851 504L872 540Q1004 542 1085 588Q1150 624 1194 549Q1200 540 1210 540Q1228 540 1228 558V739Q1228 744 1226 748Q1217 764 1201 755Q1125 712 1076 712ZM1077 676Q1125 676 1192 709V607Q1188 610 1184 613Q1128 654 1067 620Q991 577 862 577Q851 577 846 568L824 532H711L690 568Q685 576 675 577Q599 581 532 615V662Q604 718 674 718Q692 718 692 736V768Q728 778 778 781Q888 789 977 750V716Q977 707 985 701Q1027 673 1077 676Z" fill="#000000" />
<path d="M1039 327Q1039 327 1038 327Q1005 325 977 342V377Q977 388 967 393Q865 442 738 433Q675 428 631 414Q619 410 619 397V369Q541 362 465 301Q458 295 458 286V219Q458 208 468 202Q542 162 626 156L648 119Q653 110 664 110H798Q808 110 814 119L835 155Q967 157 1048 203Q1113 239 1157 164Q1163 155 1173 155Q1191 155 1191 173V354Q1191 359 1189 363Q1180 379 1164 370Q1088 327 1039 327ZM1040 291Q1088 291 1155 324V222Q1151 225 1147 228Q1091 269 1030 235Q954 192 825 192Q814 192 809 183L787 147H674L653 183Q648 191 638 192Q562 196 495 230V277Q567 333 637 333Q655 333 655 351V383Q691 393 741 396Q851 404 940 365V331Q940 322 948 316Q990 288 1040 291Z" fill="#000000" />
</g></svg>