<svg xmlns="http://www.w3.org/2000/svg" viewBox="0 0 2048 2048">
<g transform="matrix(1 0 0 -1 0 2048)">
<path d="M321 889Q321 889 330.0 896.5Q339 904 355.0 910.0Q371 916 390.5 913.0Q410 910 431 889Q447 873 461.5 832.0Q476 791 488.0 737.0Q500 683 510.0 626.5Q520 570 527.0 521.5Q534 473 537.5 443.0Q541 413 541 413Q541 413 571.0 414.5Q601 416 648.5 418.5Q696 421 749.0 423.5Q802 426 849.5 428.0Q897 430 926 431Q937 431 946.0 428.0Q955 425 963.5 409.5Q972 394 981 358Q992 312 991.0 284.0Q990 256 985.5 242.5Q981 229 981 229V-156H944L889 229H541Q541 206 531.5 169.0Q522 132 507.5 88.5Q493 45 476.5 2.0Q460 -41 445.5 -76.5Q431 -112 422.0 -134.0Q413 -156 413 -156H376L413 -9Q440 90 445.5 191.5Q451 293 441.0 391.5Q431 490 411.0 581.0Q391 672 367.0 750.5Q343 829 321 889Z" fill="#a57939" />
<path d="M451 238Q451 238 448.5 275.0Q446 312 439.0 375.5Q432 439 419.0 521.0Q406 603 384.0 695.0Q362 787 330 880Q328 889 330 898Q356 916 378.0 913.0Q400 910 416.0 895.5Q432 881 442.5 863.5Q453 846 457 835Q472 792 485.0 737.0Q498 682 508.0 625.0Q518 568 525.5 520.0Q533 472 537.0 442.5Q541 413 541 413Q541 413 577.0 416.0Q613 419 675.0 423.5Q737 428 815 430Q872 432 902.0 433.0Q932 434 944.0 429.5Q956 425 960.5 411.5Q965 398 972 370Q986 314 989.5 286.0Q993 258 991.5 248.0Q990 238 990 238Z" fill="#fcea2b" />
<path d="M817 238Q842 249 848.5 272.0Q855 295 851.5 322.0Q848 349 839.0 373.5Q830 398 822.5 414.0Q815 430 815 430L953 422Q978 383 985.5 336.5Q993 290 990 238Z" fill="#f1b31c" />
<path d="M314 907Q299 895 306 878Q495 355 395 -4Q395 -4 395 -5L363 -131Q359 -147 370 -161Q380 -174 397 -174H418Q443 -174 453 -152Q476 -96 512 20Q552 150 558 211H873L905 -141Q905 -142 905 -142Q910 -174 942 -174H964Q999 -174 999 -139V225Q1021 273 999 362Q977 450 925 449Q836 447 557 432Q510 836 444 902Q418 930 380 932Q342 933 314 907ZM342 884Q358 896 378 895Q402 894 417 877Q418 876 418 876Q475 819 522 419Q524 393 550 395Q836 410 926 413Q938 413 942 409Q952 399 963 353Q983 275 965 239Q963 233 963 227V-137H942Q942 -137 942 -137L908 223Q908 224 908 224Q905 248 882 248H549Q523 247 522 222Q518 166 477 31Q442 -83 419 -137Q419 -137 418 -137H399L430 -14Q532 354 342 884Z" fill="#000000" />
<path d="M550.33349609375 210.708984375V247.245849609375H448.85205078125V210.708984375Z" fill="#000000" />
<path d="M990.76171875 210.708984375V247.245849609375H861.59765625V210.708984375Z" fill="#000000" />
</g></svg>