<svg xmlns="http://www.w3.org/2000/svg" viewBox="0 0 2048 2048">
<g transform="matrix(1 0 0 -1 0 2048)">
<path d="M474 401Q445 435 408.0 451.5Q371 468 335.5 474.0Q300 480 276.5 479.5Q253 479 253 479Q253 479 250.5 453.5Q248 428 249.0 388.0Q250 348 261.5 305.5Q273 263 301 229Q329 196 365.5 179.5Q402 163 436.0 158.5Q470 154 492.0 154.5Q514 155 514 155Q514 155 518.0 180.5Q522 206 522.0 245.0Q522 284 512.0 326.0Q502 368 474 401Z" fill="#5c9e31" />
<path d="M801 461Q833 459 874.5 468.0Q916 477 956.5 506.0Q997 535 1025 592L988 608L1004 645Q940 670 893.0 666.5Q846 663 813.5 643.0Q781 623 760 599H757Q774 629 782.0 669.0Q790 709 777.0 756.0Q764 803 717 855L688 826L660 855Q612 803 599.5 756.0Q587 709 595.0 669.0Q603 629 619 599Q599 623 567.0 643.0Q535 663 488.5 666.5Q442 670 377 645L393 608L356 592Q385 535 425.0 506.0Q465 477 506.5 468.0Q548 459 580 461Q549 452 514.5 429.0Q480 406 453.0 366.5Q426 327 418 265L458 262H459L455 222Q519 220 561.0 236.5Q603 253 627.5 279.0Q652 305 664.0 331.5Q676 358 679.5 375.5Q683 393 683 393H696Q696 393 700.0 375.5Q704 358 716.0 331.5Q728 305 753.5 279.0Q779 253 821.0 236.5Q863 220 926 222L923 262L963 265Q955 327 928.0 366.5Q901 406 866.5 429.0Q832 452 801 461Z" fill="#ffa7c0" />
<path d="M696 568Q669 568 650.5 549.0Q632 530 632 504Q632 486 645.0 471.0Q658 456 676.5 446.5Q695 437 712 436L732 563Q718 567 707.0 567.5Q696 568 696 568Z" fill="#fcea2b" />
<path d="M368 176Q384 167 393 183Q397 191 396 198Q394 204 386 208Q348 229 324 258Q260 336 274 455Q351 448 414 406Q422 401 428 403Q434 404 439 412Q450 427 434 437Q356 489 259 493Q243 494 240 478Q217 331 296 235Q324 200 368 176Z" fill="#000000" />
<path d="M608 585Q617 569 633 577Q641 582 643 588Q645 594 641 602Q580 716 666 823L681 808Q686 803 694 803Q712 803 712 821Q712 834 703 838L678 863Q678 863 677 863Q671 870 664 869Q658 869 651 862Q531 730 608 585Z" fill="#000000" />
<path d="M684 838Q675 834 675 821Q675 803 694 803Q701 803 707 808L721 823Q807 716 746 602Q738 586 754 577Q758 575 763 575H766Q774 575 780 582Q855 671 985 630L976 611Q973 604 976 597Q979 590 986 587L1005 578Q940 465 808 474Q790 475 788 457Q787 439 805 438Q971 426 1047 579Q1047 580 1047 580Q1051 588 1048 594Q1046 600 1038 604L1017 613L1026 633Q1026 634 1027 634Q1033 651 1016 658Q890 705 804 652Q828 761 736 862Q735 863 735 863Q722 876 709 863Z" fill="#000000" />
<path d="M611 582Q616 575 623 574Q629 574 636 580Q650 591 639 605Q542 720 376 658Q359 651 365 634Q366 634 366 633L375 613L354 604Q338 597 345 580Q345 580 345 579Q420 426 587 438Q605 439 604 457Q602 475 584 474Q452 465 387 578L406 587Q413 590 416 597Q418 604 416 611L407 630Q536 671 611 582Z" fill="#000000" />
<path d="M591 438Q608 444 603 461Q600 470 595 473Q589 476 580 473Q426 427 405 263Q404 254 408 249Q412 243 421 242Q422 242 422 242L444 240L442 218Q442 209 446 204Q450 199 459 199Q460 199 460 199Q602 194 669 290Q686 314 695 338Q705 314 722 290Q790 194 932 199Q941 199 946 204Q950 208 950 218Q950 218 950 218L948 240L970 242Q979 243 983 248Q988 253 987 262Q987 262 987 263Q966 427 812 473Q803 476 797 473Q792 470 789 461Q784 444 801 438Q923 402 947 277L927 276Q920 275 915 270Q909 264 910 256L912 235Q804 238 752 311Q724 351 720 390Q718 407 702 407H689Q672 407 670 390Q667 350 639 311Q588 238 480 235L482 256Q483 264 477 270Q472 275 465 276L445 277Q469 402 591 438Z" fill="#000000" />
<path d="M694 422Q712 421 713 439Q713 458 695 458Q650 459 650 504Q650 550 696 550Q703 550 709 548Q727 543 732 560Q737 578 719 583Q708 586 696 586Q662 586 638 562Q614 538 614 504Q614 470 637 446Q660 422 694 422Z" fill="#000000" />
<path d="M694 521Q686 517 684 511Q681 505 685 497Q692 480 709 487L754 506Q762 509 765 515Q767 521 764 530Q757 547 740 540Z" fill="#000000" />
<path d="M829.0687255859375 558.8682861328125Q824.7659912109375 568.5880126953125 814.7976684570312 572.3458862304688Q804.829345703125 576.103759765625 795.109619140625 571.801025390625Q785.389892578125 567.498291015625 781.6320190429688 557.5299682617188Q777.8741455078125 547.5616455078125 782.1768798828125 537.8419189453125Q786.660400390625 528.269287109375 796.538330078125 524.4378662109375Q806.416259765625 520.6064453125 815.9888916015625 525.0899658203125Q825.7086181640625 529.3927001953125 829.5400390625 539.2706298828125Q833.3714599609375 549.1485595703125 829.0687255859375 558.8682861328125Z" fill="#000000" />
<path d="M714 517Q708 523 702 523Q695 523 689 517Q676 504 689 491L734 446Q747 433 759 446Q772 459 759 472Z" fill="#000000" />
<path d="M694 228Q707 241 694 253Q681 266 668 253Q515 95 556 -143Q558 -152 563 -156Q569 -159 578 -158Q596 -155 592 -137Q554 82 694 228Z" fill="#000000" />
</g></svg>