<svg xmlns="http://www.w3.org/2000/svg" viewBox="0 0 2048 2048">
<g transform="matrix(1 0 0 -1 0 2048)">
<path d="M1174.234619140625 384.7017822265625Q1174.234619140625 490.6162109375 1134.0601806640625 583.7478637695312Q1093.8857421875 676.8795166015625 1023.276123046875 747.4891357421875Q952.66650390625 818.0987548828125 859.5348510742188 858.273193359375Q766.4031982421875 898.4476318359375 660.48876953125 898.4476318359375Q554.5743408203125 898.4476318359375 461.44268798828125 858.273193359375Q368.31103515625 818.0987548828125 297.701416015625 747.4891357421875Q227.091796875 676.8795166015625 186.9173583984375 583.7478637695312Q146.742919921875 490.6162109375 146.742919921875 384.7017822265625Q146.742919921875 278.787353515625 186.9173583984375 185.65570068359375Q227.091796875 92.5240478515625 297.701416015625 21.9144287109375Q368.31103515625 -48.6951904296875 461.44268798828125 -88.86962890625Q554.5743408203125 -129.0440673828125 660.48876953125 -129.0440673828125Q766.4031982421875 -129.0440673828125 859.5348510742188 -88.86962890625Q952.66650390625 -48.6951904296875 1023.276123046875 21.9144287109375Q1093.8857421875 92.5240478515625 1134.0601806640625 185.65570068359375Q1174.234619140625 278.787353515625 1174.234619140625 384.7017822265625Z" fill="#d0cfce" />
<path d="M1192 385Q1192 605 1036 761Q880 917 660 917Q440 917 284 761Q128 605 128 385Q128 165 284 9Q440 -147 660 -147Q880 -147 1036 9Q1192 165 1192 385ZM1155 385Q1155 180 1010 35Q865 -110 660 -110Q455 -110 310 35Q165 180 165 385Q165 590 310 735Q455 880 660 880Q865 880 1010 735Q1155 590 1155 385Z" fill="#000000" />
<path d="M511 595V559H586L582 533Q578 509 565.0 477.0Q552 445 529 417Q533 411 542.5 404.0Q552 397 569 391Q578 388 576 379L570 356Q567 346 557 349Q542 353 531.0 359.0Q520 365 511 372V193Q511 183 501 183H475Q465 183 465 193V367Q449 360 431.0 355.5Q413 351 392 351V395Q436 395 464.0 416.5Q492 438 507.5 466.0Q523 494 530 515H404Q392 515 392 526V548Q392 559 404 559H465V595Q465 605 475 605H501Q511 605 511 595Z" fill="#000000" />
<path d="M902 309Q916 309 916 295V249Q916 234 910 222Q892 186 854 185Q854 185 853 185Q827 185 809 204Q789 224 789 250V430H750Q752 400 747.5 363.5Q743 327 729.0 291.5Q715 256 689.0 226.5Q663 197 622 182Q616 179 614 186L603 218Q601 224 607 226Q642 240 662.5 266.5Q683 293 692.0 324.0Q701 355 703.0 383.5Q705 412 704 430H698Q680 430 667.5 443.0Q655 456 655 475V560Q655 579 667.5 592.0Q680 605 698 605H839Q857 605 870.0 592.0Q883 579 883 560V475Q883 456 870.0 443.0Q857 430 839 430H835V250Q835 243 840 238Q847 231 853 232Q861 232 865 238Q870 242 870 249V295Q870 309 884 309ZM701 558V477H837V558Z" fill="#000000" />
</g></svg>