<svg xmlns="http://www.w3.org/2000/svg" viewBox="0 0 2048 2048">
<g transform="matrix(1 0 0 -1 0 2048)">
<path d="M1149 385Q1149 486 1111.0 575.0Q1073 664 1006.0 731.0Q939 798 850.0 836.0Q761 874 660 874Q559 874 470.0 836.0Q381 798 314.0 731.0Q247 664 209.0 575.0Q171 486 171 385Q171 284 209.0 195.0Q247 106 314.0 39.0Q381 -28 470.0 -66.0Q559 -104 660 -104Q761 -104 850.0 -66.0Q939 -28 1006.0 39.0Q1073 106 1111.0 195.0Q1149 284 1149 385Z" fill="#ffffff" />
<path d="M1193 385Q1193 606 1037 762Q881 918 660 918Q439 918 283 762Q127 606 127 385Q127 164 283 8Q439 -148 660 -148Q881 -148 1037 8Q1193 164 1193 385ZM1106 385Q1106 200 975 70Q845 -61 660 -61Q475 -61 345 70Q214 200 214 385Q214 570 345 700Q475 831 660 831Q845 831 975 700Q1106 570 1106 385Z" fill="#000000" />
<path d="M697.1890258789062 689.8796997070312Q697.1890258789062 697.4559326171875 694.3385620117188 704.1320190429688Q691.4880981445312 710.80810546875 686.4622802734375 715.8339233398438Q681.4364624023438 720.8597412109375 674.7603759765625 723.710205078125Q668.0842895507812 726.5606689453125 660.508056640625 726.5606689453125Q652.9318237304688 726.5606689453125 646.2557373046875 723.710205078125Q639.5796508789062 720.8597412109375 634.5538330078125 715.8339233398438Q629.5280151367188 710.80810546875 626.6775512695312 704.1320190429688Q623.8270874023438 697.4559326171875 623.8270874023438 689.8796997070312Q623.8270874023438 682.303466796875 626.6775512695312 675.6273803710938Q629.5280151367188 668.9512939453125 634.5538330078125 663.9254760742188Q639.5796508789062 658.899658203125 646.2557373046875 656.0491943359375Q652.9318237304688 653.19873046875 660.508056640625 653.19873046875Q668.0842895507812 653.19873046875 674.7603759765625 656.0491943359375Q681.4364624023438 658.899658203125 686.4622802734375 663.9254760742188Q691.4880981445312 668.9512939453125 694.3385620117188 675.6273803710938Q697.1890258789062 682.303466796875 697.1890258789062 689.8796997070312Z" fill="#000000" />
<path d="M709 690Q709 739 660 739Q640 739 625 725Q611 710 611 690Q611 670 625 656Q640 641 660 641Q709 641 709 690ZM684 690Q684 680 677 673Q670 666 660 666Q650 666 643 673Q636 680 636 690Q636 715 660 715Q684 715 684 690Z" fill="#000000" />
<path d="M551 312 560 544Q562 570 580.0 587.5Q598 605 624 605H697Q722 605 740.0 587.5Q758 570 760 544L769 312Z" fill="#000000" />
<path d="M551 300H769Q782 300 782 312Q782 313 782 313L772 545Q768 617 697 618H624Q552 617 548 545L538 313Q538 301 550 300Q550 300 551 300ZM563 324 572 544Q575 593 624 593H697Q745 593 748 544L757 324Z" fill="#000000" />
<path d="M599 532H721L745 68Q745 58 740.0 51.0Q735 44 728 44Q707 47 706 68L675 337Q674 347 669.5 354.0Q665 361 660 361Q655 361 651.0 354.0Q647 347 645 337L614 68Q614 47 593 44Q586 44 581.0 51.0Q576 58 576 68Z" fill="#000000" />
<path d="M587 533 564 69Q563 54 571 44Q579 31 593 31Q594 31 595 32Q625 37 627 67L658 335Q659 349 660 349Q662 349 663 335L694 67Q695 37 726 32Q727 31 728 31Q742 31 750 44Q758 54 757 69L734 533Q733 544 721 544H599Q588 544 587 533ZM611 520H710L733 67Q733 61 730 58Q729 56 728 56Q719 58 719 68Q719 69 719 69L688 338Q683 373 660 373Q637 373 633 338L602 69Q602 69 602 68Q602 58 593 56Q592 56 591 58Q588 61 588 67Z" fill="#000000" />
</g></svg>