<svg xmlns="http://www.w3.org/2000/svg" viewBox="0 0 2048 2048">
<g transform="matrix(1 0 0 -1 0 2048)">
<path d="M1149 385Q1149 486 1111.0 575.0Q1073 664 1006.0 731.0Q939 798 850.0 836.0Q761 874 660 874Q559 874 470.0 836.0Q381 798 314.0 731.0Q247 664 209.0 575.0Q171 486 171 385Q171 284 209.0 195.0Q247 106 314.0 39.0Q381 -28 470.0 -66.0Q559 -104 660 -104Q761 -104 850.0 -66.0Q939 -28 1006.0 39.0Q1073 106 1111.0 195.0Q1149 284 1149 385Z" fill="#ffffff" />
<path d="M1193 385Q1193 606 1037 762Q881 918 660 918Q439 918 283 762Q127 606 127 385Q127 164 283 8Q439 -148 660 -148Q881 -148 1037 8Q1193 164 1193 385ZM1106 385Q1106 200 975 70Q845 -61 660 -61Q475 -61 345 70Q214 200 214 385Q214 570 345 700Q475 831 660 831Q845 831 975 700Q1106 570 1106 385Z" fill="#000000" />
<path d="M968 16Q981 3 999 3Q1017 3 1030 16Q1042 29 1042 47Q1042 65 1030 77L382 725Q382 742 370 754Q357 767 339 767Q321 767 308 754L300 746Q287 733 287 715Q287 697 300 684Z" fill="#000000" />
<path d="M730 530Q736 506 757 494Q777 482 801 488Q824 494 836 514Q848 535 842 558Q828 615 774 650Q724 683 661 683Q588 683 535 640Q476 593 476 523Q476 459 528 403Q574 354 641 330Q730 300 728 248Q727 203 659 203Q599 203 590 241Q584 264 563 276Q543 288 519 282Q496 276 484 256Q472 235 478 212Q492 155 546 120Q596 87 659 87Q732 87 784 130Q842 176 844 245Q847 381 679 440Q591 470 591 523Q591 567 661 567Q721 567 730 530Z" fill="#000000" />
<path d="M718 722Q718 746 701 763Q684 780 660 780Q636 780 619 763Q602 746 602 722V626Q602 602 619 585Q636 568 660 568Q684 568 701 585Q718 602 718 626Z" fill="#000000" />
<path d="M602.0 48.0Q602.0 24.0 619.0 7.0Q636.0 -10.0 660.0 -10.0Q684.0 -10.0 701.0 7.0Q718.0 24.0 718.0 48.0V144.0Q718.0 168.0 701.0 185.0Q684.0 202.0 660.0 202.0Q636.0 202.0 619.0 185.0Q602.0 168.0 602.0 144.0Z" fill="#000000" />
</g></svg>