<svg xmlns="http://www.w3.org/2000/svg" viewBox="0 0 2048 2048">
<g transform="matrix(1 0 0 -1 0 2048)">
<path d="M675 229 680 -113Q782 -113 863.5 -75.5Q945 -38 1017 34Q1089 106 1126.0 191.5Q1163 277 1163 379Q1163 481 1129.0 569.0Q1095 657 1023 730Q951 802 864.0 841.5Q777 881 675 881Z" fill="#ffffff" />
<path d="M678 233V-114Q624 -114 581.0 -109.0Q538 -104 500.5 -92.0Q463 -80 425.0 -58.5Q387 -37 341 -3Q289 47 255.5 91.0Q222 135 201.0 186.5Q180 238 166 310Q152 382 162.5 458.5Q173 535 206.0 604.0Q239 673 291 723Q368 798 451.5 839.0Q535 880 644 880Z" fill="#3f3f3f" />
<path d="M660.0 -147.0Q880.0 -147.0 1036.0 9.0Q1192.0 165.0 1192.0 385.0Q1192.0 605.0 1036.0 761.0Q880.0 917.0 660.0 917.0Q440.0 917.0 284.0 761.0Q128.0 605.0 128.0 385.0Q128.0 165.0 284.0 9.0Q440.0 -147.0 660.0 -147.0ZM660.0 -110.0Q455.0 -110.0 310.0 35.0Q165.0 180.0 165.0 385.0Q165.0 590.0 310.0 735.0Q455.0 880.0 660.0 880.0Q865.0 880.0 1010.0 735.0Q1155.0 590.0 1155.0 385.0Q1155.0 180.0 1010.0 35.0Q865.0 -110.0 660.0 -110.0Z" fill="#000000" />
<path d="M678 898Q678 917 660 917Q642 917 642 898V-73Q642 -92 660 -92Q678 -92 678 -73Z" fill="#000000" />
</g></svg>