<svg xmlns="http://www.w3.org/2000/svg" viewBox="0 0 2048 2048">
<g transform="matrix(1 0 0 -1 0 2048)">
<path d="M1149 385Q1149 486 1111.0 575.0Q1073 664 1006.0 731.0Q939 798 850.0 836.0Q761 874 660 874Q559 874 470.0 836.0Q381 798 314.0 731.0Q247 664 209.0 575.0Q171 486 171 385Q171 284 209.0 195.0Q247 106 314.0 39.0Q381 -28 470.0 -66.0Q559 -104 660 -104Q761 -104 850.0 -66.0Q939 -28 1006.0 39.0Q1073 106 1111.0 195.0Q1149 284 1149 385Z" fill="#ffffff" />
<path d="M1193 385Q1193 606 1037 762Q881 918 660 918Q439 918 283 762Q127 606 127 385Q127 164 283 8Q439 -148 660 -148Q881 -148 1037 8Q1193 164 1193 385ZM1106 385Q1106 200 975 70Q845 -61 660 -61Q475 -61 345 70Q214 200 214 385Q214 570 345 700Q475 831 660 831Q845 831 975 700Q1106 570 1106 385Z" fill="#000000" />
<path d="M424 530Q405 549 379 549Q352 549 333 530Q315 511 315 484Q315 458 333 439L433 340Q452 321 478 321Q505 321 524 340L623 439Q642 458 642 484Q642 511 623 530Q604 549 578 549Q551 549 532 530L478 476Z" fill="#000000" />
<path d="M397 465Q397 438 415 419Q434 401 461 401Q487 401 506 419Q525 438 525 465Q525 521 564 560Q604 600 660 600Q716 600 756 560Q795 521 795 465V305Q795 249 756 210Q716 170 660 170Q576 170 539 245Q527 269 502 278Q477 286 453 274Q429 262 421 237Q412 212 424 188Q497 42 660 42Q769 42 846 119Q923 196 923 305V465Q923 574 846 651Q769 728 660 728Q551 728 474 651Q397 574 397 465Z" fill="#000000" />
</g></svg>