<svg xmlns="http://www.w3.org/2000/svg" viewBox="0 0 2048 2048">
<g transform="matrix(1 0 0 -1 0 2048)">
<path d="M1149 385Q1149 486 1111.0 575.0Q1073 664 1006.0 731.0Q939 798 850.0 836.0Q761 874 660 874Q559 874 470.0 836.0Q381 798 314.0 731.0Q247 664 209.0 575.0Q171 486 171 385Q171 284 209.0 195.0Q247 106 314.0 39.0Q381 -28 470.0 -66.0Q559 -104 660 -104Q761 -104 850.0 -66.0Q939 -28 1006.0 39.0Q1073 106 1111.0 195.0Q1149 284 1149 385Z" fill="#ffffff" />
<path d="M1193 385Q1193 606 1037 762Q881 918 660 918Q439 918 283 762Q127 606 127 385Q127 164 283 8Q439 -148 660 -148Q881 -148 1037 8Q1193 164 1193 385ZM1106 385Q1106 200 975 70Q845 -61 660 -61Q475 -61 345 70Q214 200 214 385Q214 570 345 700Q475 831 660 831Q845 831 975 700Q1106 570 1106 385Z" fill="#000000" />
<path d="M830 612 755 656 480 179 512 161 490 123 496 120Q511 111 529 116Q546 120 555 136Z" fill="#000000" />
<path d="M660 33Q754 33 820 99Q886 165 886 259V511Q886 737 660 737Q434 737 434 511V259Q434 33 660 33ZM716 203Q693 179 660 179Q627 179 604 203Q581 226 581 259V511Q581 591 660 591Q693 591 716 567Q739 544 739 511V259Q739 226 716 203Z" fill="#000000" />
</g></svg>