<svg xmlns="http://www.w3.org/2000/svg" viewBox="0 0 2048 2048">
<g transform="matrix(1 0 0 -1 0 2048)">
<path d="M1080.7703247070312 385.56427001953125Q1080.7703247070312 473.137939453125 1048.040771484375 549.6543273925781Q1015.3112182617188 626.1707153320312 957.3710632324219 684.1108703613281Q899.430908203125 742.051025390625 822.9145202636719 774.7805786132812Q746.3981323242188 807.5101318359375 658.824462890625 807.5101318359375Q571.2507934570312 807.5101318359375 494.7344055175781 774.7805786132812Q418.218017578125 742.051025390625 360.2778625488281 684.1108703613281Q302.33770751953125 626.1707153320312 269.608154296875 549.6543273925781Q236.87860107421875 473.137939453125 236.87860107421875 385.56427001953125Q236.87860107421875 297.9906005859375 269.608154296875 221.47421264648438Q302.33770751953125 144.95782470703125 360.2778625488281 87.01766967773438Q418.218017578125 29.0775146484375 494.7344055175781 -3.65203857421875Q571.2507934570312 -36.381591796875 658.824462890625 -36.381591796875Q746.3981323242188 -36.381591796875 822.9145202636719 -3.65203857421875Q899.430908203125 29.0775146484375 957.3710632324219 87.01766967773438Q1015.3112182617188 144.95782470703125 1048.040771484375 221.47421264648438Q1080.7703247070312 297.9906005859375 1080.7703247070312 385.56427001953125Z" fill="#ffffff" />
<path d="M1099 385Q1099 567 970 696Q841 825 659 825Q477 825 348 696Q219 567 219 385Q219 203 348 74Q477 -55 659 -55Q841 -55 970 74Q1099 203 1099 385ZM1062 385Q1062 218 944 100Q826 -18 659 -18Q492 -18 374 100Q256 218 256 385Q256 552 374 670Q492 788 659 788Q826 788 944 670Q1062 552 1062 385Z" fill="#000000" />
<path d="M678 697Q678 715 660 715Q642 715 642 697V385Q642 367 660 367Q678 367 678 385Z" fill="#000000" />
<path d="M669.434814453125 368.62646484375Q685.2290649414062 377.98291015625 675.8726196289062 393.77716064453125Q666.5161743164062 409.5714111328125 650.721923828125 400.2149658203125L467.4229736328125 294.73187255859375Q459.09283447265625 290.30364990234375 457.82489013671875 284.10748291015625Q456.55694580078125 277.91131591796875 460.98516845703125 269.5811767578125Q470.34161376953125 253.78692626953125 486.1358642578125 263.14337158203125Z" fill="#000000" />
</g></svg>