<svg xmlns="http://www.w3.org/2000/svg" viewBox="0 0 2048 2048">
<g transform="matrix(1 0 0 -1 0 2048)">
<path d="M275 -18Q252 -18 236.0 -2.0Q220 14 220 37V730Q220 752 235 768L271 805Q287 822 311 822H1042Q1065 822 1081.0 806.0Q1097 790 1097 767V39Q1097 17 1081.0 3.0Q1065 -11 1042 -11Z" fill="#ffffff" />
<path d="M1008 -74Q1016 -74 1021.5 -68.5Q1027 -63 1027 -55V733Q1027 741 1021.5 746.0Q1016 751 1008 751H220Q212 751 207.0 746.0Q202 741 202 733V-55Q202 -63 207.0 -68.5Q212 -74 220 -74Z" fill="#d22f27" />
<path d="M192 757Q179 744 191 731Q204 717 217 730L300 807H1082V18Q1063 18 1063 0Q1063 -18 1082 -18Q1097 -18 1108 -8Q1118 3 1118 18V807Q1118 822 1108 833Q1097 843 1082 843H293Q286 843 281 838Z" fill="#000000" />
<path d="M1009 -92Q1024 -92 1035 -81Q1045 -70 1045 -55V733Q1045 749 1035 759Q1024 770 1009 770H220Q184 770 184 733V-55Q184 -92 220 -92ZM1009 -55H220V733H1009Z" fill="#000000" />
</g></svg>