<svg xmlns="http://www.w3.org/2000/svg" viewBox="0 0 2048 2048">
<g transform="matrix(1 0 0 -1 0 2048)">
<path d="M410 97Q410 97 419.0 118.5Q428 140 431 188Q431 197 425.5 195.5Q420 194 420 194Q377 172 362.0 155.0Q347 138 347 138Q336 122 338.0 105.0Q340 88 353 79Q367 71 383.5 76.0Q400 81 410 97Z" fill="#92d3f5" />
<path d="M418 191Q408 148 391.0 125.0Q374 102 361.0 94.0Q348 86 348 86Q361 76 376.5 79.0Q392 82 405 101Q405 101 410.5 117.0Q416 133 419.5 154.5Q423 176 418 191Z" fill="#61b2e4" />
<path d="M962 97Q962 97 971.0 118.5Q980 140 983 188Q983 197 977.5 195.5Q972 194 972 194Q929 172 914.0 155.0Q899 138 899 138Q888 122 890.0 105.0Q892 88 905 79Q919 71 935.5 76.0Q952 81 962 97Z" fill="#92d3f5" />
<path d="M970 191Q960 148 943.0 125.0Q926 102 913.0 94.0Q900 86 900 86Q913 76 928.5 79.0Q944 82 957 101Q957 101 962.5 117.0Q968 133 971.5 154.5Q975 176 970 191Z" fill="#61b2e4" />
<path d="M686 97Q686 97 695.0 118.5Q704 140 707 188Q707 197 701.5 195.5Q696 194 696 194Q653 172 638.0 155.0Q623 138 623 138Q612 122 614.0 105.0Q616 88 629 79Q643 71 659.5 76.0Q676 81 686 97Z" fill="#92d3f5" />
<path d="M694 191Q684 148 667.0 125.0Q650 102 637.0 94.0Q624 86 624 86Q637 76 652.5 79.0Q668 82 681 101Q681 101 686.5 117.0Q692 133 695.5 154.5Q699 176 694 191Z" fill="#61b2e4" />
<path d="M539 -41Q539 -41 548.0 -19.5Q557 2 560 50Q560 59 554.5 57.5Q549 56 549 56Q506 34 491.0 17.0Q476 0 476 0Q465 -16 467.0 -33.0Q469 -50 482 -59Q496 -67 512.5 -62.0Q529 -57 539 -41Z" fill="#92d3f5" />
<path d="M547 53Q537 10 520.0 -13.0Q503 -36 490.0 -44.0Q477 -52 477 -52Q490 -62 505.5 -59.0Q521 -56 534 -37Q534 -37 539.5 -21.0Q545 -5 548.5 16.5Q552 38 547 53Z" fill="#61b2e4" />
<path d="M815 -41Q815 -41 824.0 -19.5Q833 2 836 50Q836 59 830.5 57.5Q825 56 825 56Q782 34 767.0 17.0Q752 0 752 0Q741 -16 743.0 -33.0Q745 -50 758 -59Q772 -67 788.5 -62.0Q805 -57 815 -41Z" fill="#92d3f5" />
<path d="M823 53Q813 10 796.0 -13.0Q779 -36 766.0 -44.0Q753 -52 753 -52Q766 -62 781.5 -59.0Q797 -56 810 -37Q810 -37 815.5 -21.0Q821 -5 824.5 16.5Q828 38 823 53Z" fill="#61b2e4" />
<path d="M353 636Q358 687 396.0 722.0Q434 757 486 757Q514 757 537 747Q547 743 554 752Q584 790 629.0 812.0Q674 834 727 834Q781 834 827.0 811.0Q873 788 904.5 747.5Q936 707 946 656Q948 645 960 644Q1004 641 1040.0 614.5Q1076 588 1097.0 546.0Q1118 504 1118 453Q1118 400 1095.0 356.5Q1072 313 1033.5 287.5Q995 262 948 262H357Q314 262 279.0 286.5Q244 311 223.0 352.0Q202 393 202 443Q202 490 220.5 529.5Q239 569 270.5 594.0Q302 619 341 623Q352 625 353 636Z" fill="#d0cfce" />
<path d="M424 89Q424 89 424 89Q424 89 424 89Q443 120 447 187Q447 198 442 205Q435 213 425 213Q418 212 412 209Q351 179 332 147Q299 95 344 66Q390 36 423 88Q424 89 424 89ZM396 107Q396 107 396 106Q380 82 362 93Q344 105 360 130Q360 130 361 130Q372 150 413 172Q408 126 396 107Z" fill="#000000" />
<path d="M976 89Q976 89 976 89Q976 89 976 89Q995 120 999 187Q999 198 994 205Q987 213 977 213Q970 212 964 209Q903 179 884 147Q851 95 896 66Q942 36 975 88Q975 89 976 89ZM948 107Q948 107 948 106Q932 82 914 93Q896 105 912 130Q912 130 913 130Q924 150 964 172Q960 126 948 107Z" fill="#000000" />
<path d="M700 89Q700 89 700 89Q700 89 700 89Q719 120 723 187Q723 198 718 205Q711 213 701 213Q694 212 688 209Q627 179 608 147Q575 95 620 66Q666 36 699 88Q700 89 700 89ZM672 107Q672 107 672 106Q656 82 638 93Q620 105 636 130Q636 130 637 130Q648 150 689 172Q684 126 672 107Z" fill="#000000" />
<path d="M552 -50Q552 -50 553 -50Q553 -50 553 -50Q572 -19 576 49Q576 59 570 66Q564 74 554 74Q547 74 541 70Q480 40 461 9Q428 -44 473 -73Q518 -102 552 -50Q552 -50 552 -50ZM525 -32Q525 -32 525 -32Q509 -57 491 -45Q473 -34 489 -9Q489 -9 489 -8Q501 12 541 33Q537 -13 525 -32Z" fill="#000000" />
<path d="M828 -50Q828 -50 828 -50Q829 -50 829 -50Q848 -19 852 49Q852 59 846 66Q840 74 830 74Q823 74 817 70Q756 40 737 9Q724 -12 726 -35Q729 -60 749 -73Q794 -102 828 -50Q828 -50 828 -50ZM801 -32Q801 -32 801 -32Q785 -57 767 -45Q760 -41 759 -32Q758 -20 765 -9Q765 -9 765 -8Q777 12 817 33Q813 -13 801 -32Z" fill="#000000" />
<path d="M336 641Q271 633 227 577Q183 520 183 443Q183 361 233 303Q284 243 357 243H948Q1027 243 1082 306Q1137 367 1137 453Q1137 536 1086 596Q1036 656 964 662Q947 744 881 798Q814 853 727 853Q612 853 541 765Q516 775 486 775Q427 775 384 735Q342 697 336 641ZM372 634Q376 678 408 708Q441 739 486 739Q510 739 530 730Q552 721 568 741Q628 816 727 816Q801 816 858 769Q914 723 928 653Q933 628 958 626Q1017 622 1058 572Q1100 522 1100 453Q1100 381 1055 330Q1010 280 948 280H357Q301 280 261 327Q220 375 220 443Q220 507 256 554Q292 600 343 605Q369 608 372 634Z" fill="#000000" />
</g></svg>