<svg xmlns="http://www.w3.org/2000/svg" viewBox="0 0 2048 2048">
<g transform="matrix(1 0 0 -1 0 2048)">
<path d="M960 824Q895 877 811.5 891.0Q728 905 639.0 883.0Q550 861 465.0 805.5Q380 750 310 664Q241 579 205.0 484.0Q169 389 166.5 297.0Q164 205 195.5 126.5Q227 48 292 -4Q357 -57 440.5 -71.0Q524 -85 613.5 -63.0Q703 -41 788.0 14.5Q873 70 942 156Q1011 241 1047.0 336.0Q1083 431 1085.5 523.0Q1088 615 1057.0 693.5Q1026 772 960 824Z" fill="#fcea2b" />
<path d="M956 824Q1021 772 1052.5 693.5Q1084 615 1081.5 523.0Q1079 431 1043.0 336.0Q1007 241 938 156Q873 76 795.0 22.5Q717 -31 634.0 -56.0Q551 -81 473 -75Q578 -68 686.0 -8.5Q794 51 878 156Q948 241 984.0 336.0Q1020 431 1022.5 523.0Q1025 615 993.5 693.5Q962 772 897 824Q816 889 712 895Q778 902 841.0 883.5Q904 865 956 824Z" fill="#ffffff" />
<path d="M1015 805Q1087 747 1123.0 662.5Q1159 578 1159.5 480.0Q1160 382 1124.0 282.0Q1088 182 1016 93Q956 18 881.0 -34.0Q806 -86 725.5 -113.0Q645 -140 567 -140Q429 -142 320 -56Q298 -38 278 -17Q277 -15 276 -14Q276 -13 276 -13Q274 -10 274 -7Q274 -6 274 -6Q274 -3 274 0Q275 0 275 1Q276 4 277 5Q277 6 278 7Q278 7 278.5 7.5Q279 8 279 8Q281 10 280 9Q280 10 281 10Q286 14 292 14Q292 14 294 14Q297 13 299 12Q299 12 300 12Q302 11 304 10Q366 -40 445.5 -53.0Q525 -66 611.0 -44.5Q697 -23 779.0 30.5Q861 84 928 167Q992 247 1027.0 335.5Q1062 424 1067.0 510.0Q1072 596 1046.5 670.5Q1021 745 964 797Q963 798 962 799Q960 802 959 805Q958 807 958 809Q958 814 960 819Q960 820 961 821Q961 821 961.5 821.5Q962 822 962 822Q962 822 962.0 822.5Q962 823 963 823Q963 824 964 824Q968 828 974 829Q979 829 984 827Q985 827 986 826Q1001 816 1015 805Z" fill="#f1b31c" />
<path d="M379 225 728 188Q729 190 732.0 200.0Q735 210 737.5 220.5Q740 231 741 233Q689 243 667.0 250.5Q645 258 643.5 271.0Q642 284 650 312L751 660Q640 645 527 645Q527 644 525.0 634.5Q523 625 520.5 615.5Q518 606 518 604L549 598Q587 591 593.0 581.5Q599 572 591 545Q579 507 571.0 482.0Q563 457 556.0 435.5Q549 414 540.5 388.5Q532 363 521 325Q513 298 504.0 286.0Q495 274 470.0 271.5Q445 269 391 270Q390 268 387.5 258.0Q385 248 382.0 237.5Q379 227 379 225Z" fill="#f1b31c" />
<path d="M986 826 966 795Q979 787 992 777Q1123 670 1123 478Q1123 284 988 116Q853 -51 663 -93Q475 -134 343 -28Q323 -12 306 8L278 -17Q298 -38 320 -56Q466 -174 671 -129Q873 -84 1016 93Q1159 271 1160 478Q1160 688 1015 805Q1001 816 986 826Z" fill="#000000" />
<path d="M972 839Q834 950 635 901Q438 852 296 676Q154 500 148 297Q143 92 281 -19Q418 -130 618 -81Q814 -32 956 144Q1098 321 1104 523Q1109 728 972 839ZM949 810Q1072 710 1067 524Q1062 334 928 167Q793 0 609 -45Q427 -90 304 10Q180 110 185 296Q190 486 325 653Q459 820 643 865Q825 910 949 810Z" fill="#000000" />
<path d="M953.40087890625 170.1656494140625 929.819091796875 142.25341796875 990.437255859375 91.053466796875 1014.01904296875 118.9656982421875Z" fill="#000000" />
<path d="M891.71630859375 99.2237548828125 864.984375 74.3408203125 918.4482421875 16.921142578125 945.18017578125 41.8040771484375Z" fill="#000000" />
<path d="M826.247802734375 42.0867919921875 796.5469970703125 20.8212890625 840.4234619140625 -40.481689453125 870.124267578125 -19.2161865234375Z" fill="#000000" />
<path d="M753.3204345703125 -8.5513916015625 721.4443359375 -26.3968505859375 755.999267578125 -88.1187744140625 787.8753662109375 -70.2733154296875Z" fill="#000000" />
<path d="M1000.474365234375 239.01953125 979.6761474609375 208.9642333984375 1044.0487060546875 164.4271240234375 1064.846923828125 194.482421875Z" fill="#000000" />
<path d="M361 230Q361 229 360 227Q359 218 363 213Q368 208 377 207L727 170Q742 168 746 183L752 205L758 228Q759 229 759 229Q762 247 744 251Q672 265 663 273Q659 276 668 306L769 655Q770 658 769 662Q768 671 763 675Q758 679 749 678Q638 664 527 664Q514 664 510 651Q509 648 505 628Q501 610 500 609Q500 608 500 607Q497 589 515 586L545 580Q575 574 578 570Q579 569 573 550Q558 500 539 441Q519 381 504 330Q494 298 483 294Q468 287 391 288Q377 289 373 275ZM402 241 403 243 405 251Q477 251 498 260Q524 271 539 320Q554 370 573 429Q593 489 608 540Q619 576 608 592Q596 608 552 616L540 618Q540 619 540 621Q541 624 542 627Q634 628 726 638L633 317Q618 264 638 246Q653 232 718 219L717 215L715 208Z" fill="#000000" />
</g></svg>