<svg xmlns="http://www.w3.org/2000/svg" viewBox="0 0 2048 2048">
<g transform="matrix(1 0 0 -1 0 2048)">
<path d="M788.1890258789062 382.049072265625V319.764892578125H843.1837158203125V382.049072265625Z" fill="#9b9b9a" />
<path d="M788 199V-21H843V199Z" fill="#9b9b9a" />
<path d="M751.2340087890625 638.1990966796875V583.0013427734375H898.024658203125V638.1990966796875Z" fill="#9b9b9a" />
<path d="M862 206V309H771H477Q454 309 437.5 325.5Q421 342 421 365V590Q421 637 454.0 670.0Q487 703 534 703H692H714Q738 703 754.5 686.5Q771 670 771 647H862V720Q862 756 836.5 781.0Q811 806 776 806H742H502Q454 806 415.0 783.0Q376 760 353.0 721.0Q330 682 330 635V292Q330 256 355.0 231.0Q380 206 416 206Z" fill="#d0cfce" />
<path d="M862 187Q880 187 880 206V309Q880 327 862 327H477Q462 327 451 338Q439 349 439 365V590Q439 629 467 657Q495 685 534 685H714Q752 685 752 647Q752 628 771 628H862Q880 628 880 647V720Q880 763 850 794Q819 824 776 824H742H502Q423 824 367 769Q312 713 312 635V292Q312 248 342 218Q373 187 416 187ZM843 224H416Q388 224 368 244Q348 264 348 292V635Q348 698 393 743Q438 788 502 788H742H776Q804 788 824 768Q843 748 843 720V665H788Q779 721 714 721H534Q480 721 441 683Q403 645 403 590V365Q403 290 477 290H843Z" fill="#000000" />
<path d="M752 -35Q752 -53 770 -53H862Q880 -53 880 -35V203Q880 222 862 222H770Q752 222 752 203ZM788 185H843V-17H788Z" fill="#000000" />
<path d="M715 577Q715 558 733 558H917Q935 558 935 577V643Q935 662 917 662H733Q715 662 715 643ZM752 625H898V595H752Z" fill="#000000" />
<path d="M752 372V313Q752 295 770 295H862Q880 295 880 313V372Q880 405 843 405H789Q752 405 752 372ZM788 372 789 368H843V372V332H788Z" fill="#000000" />
<path d="M752 70Q770 70 770 89Q770 107 752 107H678Q660 107 660 89Q660 70 678 70Z" fill="#000000" />
<path d="M954 70Q972 70 972 89Q972 107 954 107H880Q862 107 862 89Q862 70 880 70Z" fill="#000000" />
</g></svg>