<svg xmlns="http://www.w3.org/2000/svg" viewBox="0 0 2048 2048">
<g transform="matrix(1 0 0 -1 0 2048)">
<path d="M584 701 103 476Q75 542 83.0 610.0Q91 678 130.5 734.5Q170 791 235 821Q300 852 368.5 845.5Q437 839 494.0 801.5Q551 764 584 701Z" fill="#f1b31c" />
<path d="M242 822Q177 792 138.0 735.5Q99 679 90.5 611.0Q82 543 110 477L222 530Q211 588 225.0 645.5Q239 703 276.5 749.5Q314 796 370 822Q393 833 418 839Q376 850 330.5 846.0Q285 842 242 822Z" fill="#fcea2b" />
<path d="M1222.3680419921875 477.279541015625 740.822509765625 701.0863037109375Q773.37890625 764.9603271484375 830.60888671875 802.5443115234375Q887.8388671875 840.1282958984375 956.5088500976562 846.1911010742188Q1025.1788330078125 852.25390625 1089.9420166015625 821.7491455078125Q1155.47119140625 791.88720703125 1194.5255737304688 735.2384643554688Q1233.5799560546875 678.5897216796875 1241.4961547851562 610.8223876953125Q1249.412353515625 543.0550537109375 1222.3680419921875 477.279541015625Z" fill="#f1b31c" />
<path d="M1090 822Q1155 792 1194.5 735.5Q1234 679 1242.0 611.0Q1250 543 1222 477L1110 530Q1122 588 1107.5 645.5Q1093 703 1055.5 749.5Q1018 796 962 822Q939 833 914 839Q956 850 1001.5 846.0Q1047 842 1090 822Z" fill="#fcea2b" />
<path d="M390 468Q390 483 379.5 493.5Q369 504 353 504Q338 504 327.5 493.5Q317 483 317 468Q317 453 327.5 442.5Q338 432 353 432Q369 432 379.5 442.5Q390 453 390 468Z" fill="#ea5a47" />
<path d="M849 432Q849 447 838.5 457.5Q828 468 812 468Q797 468 786.5 457.5Q776 447 776 432Q776 417 786.5 406.5Q797 396 812 396Q828 396 838.5 406.5Q849 417 849 432Z" fill="#8967aa" />
<path d="M775 28Q775 43 764.5 53.5Q754 64 738 64Q723 64 712.5 53.5Q702 43 702 28Q702 13 712.5 2.5Q723 -8 738 -8Q754 -8 764.5 2.5Q775 13 775 28Z" fill="#fcea2b" />
<path d="M600 709Q548 811 440 849Q331 886 227 838Q123 789 82 682Q41 575 86 469Q89 461 95 458Q102 456 110 460Q110 460 111 460L592 684Q608 692 600 708Q600 709 600 709ZM558 709 113 501Q84 584 116 669Q152 762 243 805Q333 847 428 814Q513 785 558 709Z" fill="#000000" />
<path d="M1239 470Q1284 576 1243 683Q1202 790 1098 839Q994 887 885 850Q777 812 725 710Q716 694 733 685Q733 685 733 685L1214 461Q1231 453 1239 470Q1239 470 1239 470ZM1212 502 767 710Q812 785 897 815Q992 848 1082 806Q1173 763 1209 670Q1241 585 1212 502Z" fill="#000000" />
<path d="M676 473Q684 478 685 484Q687 490 682 498Q678 506 671 508Q665 509 657 505Q642 496 631 483Q601 448 604 401Q607 355 641 323Q654 311 666 324Q679 338 665 350Q609 402 659 458Q666 467 676 473Z" fill="#000000" />
<path d="M661 354Q646 365 635 350Q625 335 639 324Q649 317 655 308Q699 247 637 201Q623 190 634 175Q645 161 660 172Q697 200 704 246Q712 292 685 329Q675 344 661 354Z" fill="#000000" />
<path d="M388 240Q397 241 400 247Q404 252 402 261Q398 279 380 275Q364 272 348 263Q309 240 297 195Q285 150 307 109Q316 93 332 102Q340 106 342 112Q343 119 339 127Q302 194 367 231Q377 237 388 240Z" fill="#000000" />
<path d="M336 131Q325 146 310 136Q303 130 302 124Q301 118 306 110Q313 101 316 90Q338 18 265 -6Q248 -12 253 -29Q256 -38 262 -41Q268 -44 277 -41Q321 -26 342 15Q364 57 351 101Q346 117 336 131Z" fill="#000000" />
<path d="M986.8270874023438 354.69073486328125Q969.2897338867188 360.89642333984375 963.0840454101562 343.35906982421875Q957.8359375 326.1102294921875 974.4157104492188 319.61602783203125Q986.0111083984375 315.798095703125 994.3532104492188 308.91094970703125Q1054.0860595703125 263.193115234375 1007.9876708984375 201.256591796875Q997.7551879882812 186.68402099609375 1012.6162719726562 175.49395751953125Q1027.1888427734375 165.261474609375 1038.37890625 180.12255859375Q1065.7310180664062 217.60980224609375 1059.1624755859375 263.6781005859375Q1053.551513671875 310.034912109375 1017.0218505859375 337.675537109375Q1003.1183471679688 349.15411376953125 986.8270874023438 354.69073486328125Z" fill="#000000" />
<path d="M1039 181Q1051 194 1038 207Q1024 219 1012 206Q1000 193 993 177Q974 135 990 91Q1006 48 1048 27Q1065 19 1073 36Q1081 52 1064 60Q995 94 1026 162Q1031 172 1039 181Z" fill="#000000" />
</g></svg>