<svg xmlns="http://www.w3.org/2000/svg" viewBox="0 0 2048 2048">
<g transform="matrix(1 0 0 -1 0 2048)">
<path d="M1171 385V451Q1173 457 1164.0 463.0Q1155 469 1153 476Q1149 485 1142 491Q1157 508 1149 528Q1140 553 1114 552Q1119 565 1114 579Q1109 592 1096 599Q1103 613 1097 628Q1093 640 1082.0 646.5Q1071 653 1059 651Q1063 664 1059 676Q1053 690 1039.5 696.0Q1026 702 1012 697Q1010 697 1007 695Q1009 705 1005 714Q999 730 984 736Q992 750 986 766Q981 780 967.0 786.5Q953 793 939 787Q930 784 923 776Q922 780 922 781Q913 805 887 805Q889 816 885 826Q880 840 866.0 846.5Q852 853 838 848Q829 844 822 836Q822 840 821 841Q816 854 805.0 860.0Q794 866 781 865Q770 880 752 880Q726 880 717 855Q708 862 697 862Q696 862 692 861Q681 880 660 880Q639 880 628 861Q624 862 623 862Q612 862 603 855Q594 880 568 880Q550 880 539 865Q526 866 515.0 860.0Q504 854 499 841Q498 840 498 836Q491 844 482 848Q468 853 454.0 846.5Q440 840 435 826Q431 816 433 805Q407 805 398 781Q398 779 397 776Q391 784 381 787Q367 793 353.0 786.5Q339 780 334 766Q328 750 336 736Q321 730 315 714Q311 705 313 695Q310 697 308 697Q294 702 280.5 696.0Q267 690 261 676Q257 664 261 651Q249 653 238.0 646.5Q227 640 223 628Q217 613 224 599Q211 592 206 579Q201 565 206 552Q180 553 171 528Q163 508 178 491Q171 485 167 476Q165 469 156.0 463.0Q147 457 149 451V385Z" fill="#ffffff" />
<path d="M1192 385H128Q128 275 169.5 178.5Q211 82 284.0 9.0Q357 -64 453.5 -105.5Q550 -147 660 -147Q770 -147 866.5 -105.5Q963 -64 1036.0 9.0Q1109 82 1150.5 178.5Q1192 275 1192 385Z" fill="#ffffff" />
<path d="M898 385H1192Q1192 275 1150.5 178.5Q1109 82 1036.0 9.0Q963 -64 866.5 -105.5Q770 -147 660 -147Q722 -147 767.0 -105.5Q812 -64 841.0 9.0Q870 82 884.0 178.5Q898 275 898 385Z" fill="#d0cfce" />
<path d="M1136 457Q1129 440 1147 433Q1164 427 1170 445Q1177 464 1170 482Q1168 488 1165 492Q1175 512 1166 535Q1157 560 1135 567Q1135 576 1132 585Q1127 598 1118 606Q1120 620 1115 634Q1104 663 1079 668Q1078 675 1076 682Q1068 703 1047 713Q1035 718 1023 718Q1023 719 1022 721Q1017 735 1006 744Q1008 758 1003 772Q984 824 932 805Q931 804 930 804Q921 816 905 821Q905 827 902 832Q894 854 874 863Q853 873 832 865Q831 864 830 864Q815 884 789 884Q774 898 752 898Q723 898 709 879Q705 880 701 880Q686 898 660 898Q634 898 619 880Q615 880 611 879Q597 898 568 898Q546 898 531 884Q505 884 490 864Q489 864 488 865Q467 873 446 863Q426 854 418 832Q415 827 415 821Q399 816 390 804Q389 804 388 805Q336 824 317 772Q312 758 314 744Q303 735 298 721Q297 719 297 718Q285 718 273 713Q252 703 244 682Q242 675 241 668Q216 663 205 634Q200 620 202 606Q193 598 188 585Q185 576 185 567Q163 560 154 535Q145 512 155 492Q152 488 150 482Q143 464 150 445Q153 436 159 433Q165 430 173 433Q191 440 184 457Q182 463 184 469Q186 474 190 477Q190 477 190 477Q204 490 192 503Q184 512 188 522Q193 534 206 534Q210 534 213 535Q230 542 223 559Q220 566 223 572Q225 579 232 582Q248 590 240 607Q237 614 240 621Q245 635 259 633Q263 632 267 634Q285 640 279 657Q276 663 278 669Q281 676 288 679Q295 683 302 680Q302 680 304 679Q310 675 317 677Q335 680 331 698Q330 703 332 708Q335 715 343 718Q344 719 345 719Q361 728 352 744Q348 752 351 759Q358 777 375 770Q379 768 383 764Q387 759 393 758Q411 754 415 772Q415 772 415 772Q415 774 416 775Q420 787 433 786Q436 786 438 787Q456 791 451 809Q450 814 452 820Q455 827 461 830Q468 833 476 830Q480 829 483 825Q488 819 494 818Q512 814 516 832Q516 834 516 835Q521 849 536 847Q547 845 554 854Q559 862 568 862Q581 862 585 849Q586 847 588 845Q593 838 599 836Q605 835 613 840Q618 843 623 843Q623 843 625 843Q625 843 626 843Q638 841 644 852Q649 862 660 862Q671 862 676 852Q682 841 694 843Q695 843 695 843Q697 843 697 843Q702 843 707 840Q709 839 711 838Q728 832 735 849Q739 862 752 862Q761 862 766 854Q773 845 784 847Q799 849 804 835Q804 834 804 832Q806 826 811 822Q825 810 837 825Q840 829 844 830Q852 833 859 830Q865 827 868 820Q870 814 869 809Q868 807 868 804Q868 795 873 791Q878 786 887 786Q900 787 904 775Q905 774 905 772Q906 765 912 761Q919 756 925 756Q932 757 937 764Q941 768 945 770Q962 777 969 759Q972 752 968 744Q967 743 967 742Q963 734 966 728Q969 722 977 718Q985 715 988 708Q990 703 989 698Q987 692 991 686Q995 678 1001 676Q1008 674 1016 679Q1018 680 1018 680Q1025 683 1032 679Q1039 676 1042 669Q1044 663 1041 657Q1040 653 1041 649Q1043 631 1061 633Q1075 635 1080 621Q1083 614 1080 607Q1072 590 1088 582Q1095 579 1097 572Q1100 566 1097 559Q1095 555 1095 551Q1096 542 1100 538Q1105 533 1114 534Q1127 534 1132 522Q1136 512 1128 503Q1128 503 1128 503Q1116 489 1130 477Q1134 474 1136 469Q1138 463 1136 457Z" fill="#000000" />
<path d="M1210 385Q1210 403 1192 403H128Q119 403 115 399Q110 394 110 385Q110 157 271 -4Q432 -165 660 -165Q888 -165 1049 -4Q1210 157 1210 385ZM1173 367Q1167 166 1023 22Q873 -128 660 -128Q447 -128 297 22Q153 166 147 367Z" fill="#000000" />
</g></svg>