<svg xmlns="http://www.w3.org/2000/svg" viewBox="0 0 2048 2048">
<g transform="matrix(1 0 0 -1 0 2048)">
<path d="M1134 937Q1151 953 1173.5 953.0Q1196 953 1212 937Q1228 921 1228.0 898.5Q1228 876 1212 859L993 644Q960 685 919 718Z" fill="#9b9b9a" />
<path d="M993 644Q1034 591 1058.0 524.5Q1082 458 1082 385Q1082 298 1049.0 221.5Q1016 145 958.0 87.0Q900 29 823.5 -4.0Q747 -37 660 -37Q573 -37 496.5 -4.0Q420 29 362.0 87.0Q304 145 271.0 221.5Q238 298 238 385Q238 472 271.0 548.5Q304 625 362.0 683.0Q420 741 496.5 774.0Q573 807 660 807Q733 807 799.5 783.0Q866 759 919 718Q960 685 993 644Z" fill="#d0cfce" />
<path d="M866 357Q888 345 902.5 323.5Q917 302 917 275Q917 237 890.0 210.0Q863 183 825 183Q791 183 765 206Q765 207 762 209Q747 220 729 216Q712 208 693 205Q692 205 691.5 205.0Q691 205 691 205Q682 203 677 203Q667 202 659 202Q609 202 567.0 226.5Q525 251 500.5 292.5Q476 334 476 385Q476 421 489.5 453.5Q503 486 526 510Q526 511 526 511Q531 516 537 521Q537 521 537.5 521.5Q538 522 538 522Q543 527 549 531Q551 532 550 532Q550 532 551 533Q552 534 553.5 535.0Q555 536 557 537Q568 547 569 564Q570 567 570.5 570.0Q571 573 572 575Q580 604 604.5 623.0Q629 642 660 642Q694 642 720.0 619.5Q746 597 751 564Q751 546 765 535Q809 504 829 454Q829 453 829.5 452.5Q830 452 830 452Q833 444 835 436Q836 434 836.0 432.5Q836 431 837 430Q839 423 840 417Q840 414 841 410Q842 404 842 397Q842 396 842.0 395.0Q842 394 842 392Q842 369 862 358Q862 358 866 357Z" fill="#ffffff" />
<path d="M751.6849975585938 387.29412841796875Q751.6849975585938 406.09423828125 744.5457153320312 422.7525634765625Q737.4064331054688 439.410888671875 724.793701171875 452.02362060546875Q712.1809692382812 464.6363525390625 695.6416320800781 471.775634765625Q679.102294921875 478.9149169921875 660.064208984375 478.9149169921875Q641.026123046875 478.9149169921875 624.4867858886719 471.775634765625Q607.9474487304688 464.6363525390625 595.334716796875 452.02362060546875Q582.7219848632812 439.410888671875 575.5827026367188 422.7525634765625Q568.4434204101562 406.09423828125 568.4434204101562 387.29412841796875Q568.4434204101562 368.25604248046875 575.5827026367188 351.59771728515625Q582.7219848632812 334.93939208984375 595.334716796875 322.32666015625Q607.9474487304688 309.71392822265625 624.4867858886719 302.6936340332031Q641.026123046875 295.67333984375 660.064208984375 295.67333984375Q679.102294921875 295.67333984375 695.6416320800781 302.6936340332031Q712.1809692382812 309.71392822265625 724.793701171875 322.32666015625Q737.4064331054688 334.93939208984375 744.5457153320312 351.59771728515625Q751.6849975585938 368.25604248046875 751.6849975585938 387.29412841796875Z" fill="#fcea2b" />
<path d="M1121 950 906 730Q893 717 906 704Q907 704 908 703Q947 672 978 633Q984 626 990 625Q997 624 1004 630Q1005 630 1005 631L1225 846Q1251 872 1251 898Q1251 924 1225 950Q1173 1002 1121 950ZM1148 924Q1173 950 1199 924Q1210 914 1210 898Q1210 883 1199 873L994 671Q972 697 946 719Z" fill="#000000" />
<path d="M1100 385Q1100 536 1007 655Q974 698 930 732Q811 825 660 825Q478 825 349 696Q220 567 220 385Q220 203 349 74Q478 -55 660 -55Q842 -55 971 74Q1100 203 1100 385ZM978 633Q1063 524 1063 385Q1063 218 945 100Q827 -18 660 -18Q493 -18 375 100Q257 218 257 385Q257 552 375 670Q493 788 660 788Q799 788 908 703Q947 672 978 633Z" fill="#000000" />
<path d="M770 387Q770 432 738 465Q705 497 660 497Q614 497 582 465Q550 432 550 387Q550 341 582 309Q614 277 660 277Q705 277 738 309Q770 341 770 387ZM733 387Q733 314 660 314Q587 314 587 387Q587 460 660 460Q733 460 733 387Z" fill="#000000" />
<path d="M874 373H873Q871 374 870 375Q861 380 861 392Q861 394 860 396Q855 493 776 549Q769 555 769 564Q769 565 769 567Q754 660 660 660Q577 660 554 580Q552 571 551 566Q550 557 545 551Q458 491 458 385Q458 301 517 242Q576 183 659 183Q699 183 735 198Q743 200 750 195Q750 195 750 194Q751 193 753 192Q784 165 825 165Q871 165 903 197Q935 229 935 275Q935 343 874 373ZM858 340Q898 320 898 275Q898 202 825 202Q799 202 779 218Q779 219 778 219Q776 221 774 223Q773 223 773 223Q751 241 724 233Q723 233 722 233Q692 220 659 220Q591 220 543 268Q494 317 494 385Q494 473 567 522Q568 523 569 523Q586 538 588 563Q588 564 589 570Q605 623 660 623Q722 623 732 562Q733 537 753 521Q754 520 754 520Q820 473 824 392Q824 391 824 390Q825 357 853 342Q854 342 855 342Q855 341 857 340Z" fill="#000000" />
</g></svg>