<svg xmlns="http://www.w3.org/2000/svg" viewBox="0 0 2048 2048">
<g transform="matrix(1 0 0 -1 0 2048)">
<path d="M1173 385Q1173 333 1145 289Q1154 237 1134 189Q1114 140 1071 110Q1060 59 1023 22Q986 -15 935 -26Q905 -69 856 -89Q808 -109 756 -100Q712 -128 660 -128Q608 -128 564 -100Q512 -109 464 -89Q439 -79 419.5 -62.5Q400 -46 385 -26Q334 -15 297 22Q260 59 249 110Q206 140 186 189Q166 237 175 288Q147 333 147 385Q147 437 175 481Q166 533 186 581Q206 630 249 660Q260 711 297 748Q334 785 385 796Q415 839 464 859Q512 879 564 870Q608 898 660 898Q712 898 756 870Q808 879 856 859Q905 839 935 796Q959 791 981.5 779.0Q1004 767 1023 748Q1060 711 1071 660Q1114 630 1134 581Q1154 533 1145 481Q1173 437 1173 385Z" fill="#a57939" />
<path d="M384.49951171875 403.32568359375Q384.49951171875 410.84765625 381.64306640625 417.5126953125Q378.78662109375 424.177734375 373.740234375 429.22412109375Q368.69384765625 434.2705078125 362.076416015625 437.126953125Q355.458984375 439.9833984375 347.841796875 439.9833984375Q340.224609375 439.9833984375 333.607177734375 437.126953125Q326.98974609375 434.2705078125 321.943359375 429.22412109375Q316.89697265625 424.177734375 314.04052734375 417.5126953125Q311.18408203125 410.84765625 311.18408203125 403.32568359375Q311.18408203125 395.70849609375 314.04052734375 389.04345703125Q316.89697265625 382.37841796875 321.943359375 377.33203125Q326.98974609375 372.28564453125 333.607177734375 369.476806640625Q340.224609375 366.66796875 347.841796875 366.66796875Q355.458984375 366.66796875 362.076416015625 369.476806640625Q368.69384765625 372.28564453125 373.740234375 377.33203125Q378.78662109375 382.37841796875 381.64306640625 389.04345703125Q384.49951171875 395.70849609375 384.49951171875 403.32568359375Z" fill="#6a462f" />
<path d="M623.49951171875 293.32568359375Q623.49951171875 300.84765625 620.64306640625 307.5126953125Q617.78662109375 314.177734375 612.740234375 319.22412109375Q607.69384765625 324.2705078125 601.076416015625 327.126953125Q594.458984375 329.9833984375 586.841796875 329.9833984375Q579.224609375 329.9833984375 572.607177734375 327.126953125Q565.98974609375 324.2705078125 560.943359375 319.22412109375Q555.89697265625 314.177734375 553.04052734375 307.5126953125Q550.18408203125 300.84765625 550.18408203125 293.32568359375Q550.18408203125 285.70849609375 553.04052734375 279.04345703125Q555.89697265625 272.37841796875 560.943359375 267.33203125Q565.98974609375 262.28564453125 572.607177734375 259.476806640625Q579.224609375 256.66796875 586.841796875 256.66796875Q594.458984375 256.66796875 601.076416015625 259.476806640625Q607.69384765625 262.28564453125 612.740234375 267.33203125Q617.78662109375 272.37841796875 620.64306640625 279.04345703125Q623.49951171875 285.70849609375 623.49951171875 293.32568359375Z" fill="#6a462f" />
<path d="M586.49951171875 110.32568359375Q586.49951171875 117.84765625 583.64306640625 124.5126953125Q580.78662109375 131.177734375 575.740234375 136.22412109375Q570.69384765625 141.2705078125 564.076416015625 144.126953125Q557.458984375 146.9833984375 549.841796875 146.9833984375Q542.224609375 146.9833984375 535.607177734375 144.126953125Q528.98974609375 141.2705078125 523.943359375 136.22412109375Q518.89697265625 131.177734375 516.04052734375 124.5126953125Q513.18408203125 117.84765625 513.18408203125 110.32568359375Q513.18408203125 102.70849609375 516.04052734375 96.04345703125Q518.89697265625 89.37841796875 523.943359375 84.33203125Q528.98974609375 79.28564453125 535.607177734375 76.476806640625Q542.224609375 73.66796875 549.841796875 73.66796875Q557.458984375 73.66796875 564.076416015625 76.476806640625Q570.69384765625 79.28564453125 575.740234375 84.33203125Q580.78662109375 89.37841796875 583.64306640625 96.04345703125Q586.49951171875 102.70849609375 586.49951171875 110.32568359375Z" fill="#6a462f" />
<path d="M879.49951171875 110.32568359375Q879.49951171875 117.84765625 876.64306640625 124.5126953125Q873.78662109375 131.177734375 868.740234375 136.22412109375Q863.69384765625 141.2705078125 857.076416015625 144.126953125Q850.458984375 146.9833984375 842.841796875 146.9833984375Q835.224609375 146.9833984375 828.607177734375 144.126953125Q821.98974609375 141.2705078125 816.943359375 136.22412109375Q811.89697265625 131.177734375 809.04052734375 124.5126953125Q806.18408203125 117.84765625 806.18408203125 110.32568359375Q806.18408203125 102.70849609375 809.04052734375 96.04345703125Q811.89697265625 89.37841796875 816.943359375 84.33203125Q821.98974609375 79.28564453125 828.607177734375 76.476806640625Q835.224609375 73.66796875 842.841796875 73.66796875Q850.458984375 73.66796875 857.076416015625 76.476806640625Q863.69384765625 79.28564453125 868.740234375 84.33203125Q873.78662109375 89.37841796875 876.64306640625 96.04345703125Q879.49951171875 102.70849609375 879.49951171875 110.32568359375Z" fill="#6a462f" />
<path d="M989.49951171875 385.32568359375Q989.49951171875 392.84765625 986.64306640625 399.5126953125Q983.78662109375 406.177734375 978.740234375 411.22412109375Q973.69384765625 416.2705078125 967.076416015625 419.126953125Q960.458984375 421.9833984375 952.841796875 421.9833984375Q945.224609375 421.9833984375 938.607177734375 419.126953125Q931.98974609375 416.2705078125 926.943359375 411.22412109375Q921.89697265625 406.177734375 919.04052734375 399.5126953125Q916.18408203125 392.84765625 916.18408203125 385.32568359375Q916.18408203125 377.70849609375 919.04052734375 371.04345703125Q921.89697265625 364.37841796875 926.943359375 359.33203125Q931.98974609375 354.28564453125 938.607177734375 351.476806640625Q945.224609375 348.66796875 952.841796875 348.66796875Q960.458984375 348.66796875 967.076416015625 351.476806640625Q973.69384765625 354.28564453125 978.740234375 359.33203125Q983.78662109375 364.37841796875 986.64306640625 371.04345703125Q989.49951171875 377.70849609375 989.49951171875 385.32568359375Z" fill="#6a462f" />
<path d="M916.49951171875 660.32568359375Q916.49951171875 667.84765625 913.64306640625 674.5126953125Q910.78662109375 681.177734375 905.740234375 686.22412109375Q900.69384765625 691.2705078125 894.076416015625 694.126953125Q887.458984375 696.9833984375 879.841796875 696.9833984375Q872.224609375 696.9833984375 865.607177734375 694.126953125Q858.98974609375 691.2705078125 853.943359375 686.22412109375Q848.89697265625 681.177734375 846.04052734375 674.5126953125Q843.18408203125 667.84765625 843.18408203125 660.32568359375Q843.18408203125 652.70849609375 846.04052734375 646.04345703125Q848.89697265625 639.37841796875 853.943359375 634.33203125Q858.98974609375 629.28564453125 865.607177734375 626.476806640625Q872.224609375 623.66796875 879.841796875 623.66796875Q887.458984375 623.66796875 894.076416015625 626.476806640625Q900.69384765625 629.28564453125 905.740234375 634.33203125Q910.78662109375 639.37841796875 913.64306640625 646.04345703125Q916.49951171875 652.70849609375 916.49951171875 660.32568359375Z" fill="#6a462f" />
<path d="M623.49951171875 641.32568359375Q623.49951171875 648.84765625 620.64306640625 655.5126953125Q617.78662109375 662.177734375 612.740234375 667.22412109375Q607.69384765625 672.2705078125 601.076416015625 675.126953125Q594.458984375 677.9833984375 586.841796875 677.9833984375Q579.224609375 677.9833984375 572.607177734375 675.126953125Q565.98974609375 672.2705078125 560.943359375 667.22412109375Q555.89697265625 662.177734375 553.04052734375 655.5126953125Q550.18408203125 648.84765625 550.18408203125 641.32568359375Q550.18408203125 633.70849609375 553.04052734375 627.04345703125Q555.89697265625 620.37841796875 560.943359375 615.33203125Q565.98974609375 610.28564453125 572.607177734375 607.476806640625Q579.224609375 604.66796875 586.841796875 604.66796875Q594.458984375 604.66796875 601.076416015625 607.476806640625Q607.69384765625 610.28564453125 612.740234375 615.33203125Q617.78662109375 620.37841796875 620.64306640625 627.04345703125Q623.49951171875 633.70849609375 623.49951171875 641.32568359375Z" fill="#6a462f" />
<path d="M1191 387Q1191 441 1163 487Q1171 541 1151 591Q1130 641 1087 672Q1074 725 1036 763Q997 801 945 814Q913 857 863 878Q813 899 760 891Q714 918 660 918Q606 918 560 891Q507 899 457 878Q407 857 375 814Q323 801 284 763Q246 725 233 672Q190 640 169 591Q149 541 157 487Q129 441 129 387Q129 333 157 287Q149 234 169 184Q190 134 233 102Q246 50 284 12Q323 -27 375 -40Q407 -83 457 -103Q507 -124 560 -116Q606 -144 660 -144Q714 -144 760 -116Q813 -124 863 -103Q913 -83 945 -39Q997 -26 1036 12Q1074 50 1087 102Q1130 134 1151 184Q1171 234 1163 287Q1191 333 1191 387ZM1156 387Q1156 340 1130 301Q1126 295 1127 288Q1136 241 1118 198Q1100 154 1061 127Q1055 123 1054 116Q1044 70 1010 37Q977 4 931 -6Q924 -8 920 -14Q893 -52 850 -71Q806 -89 760 -80Q753 -79 747 -83Q707 -108 660 -108Q613 -108 573 -83Q567 -79 560 -80Q514 -89 470 -71Q427 -53 400 -14Q396 -8 389 -6Q343 4 310 37Q276 70 266 116Q265 123 259 127Q220 154 202 198Q184 241 193 288Q194 295 190 300Q164 340 164 387Q164 434 190 474Q194 480 193 487Q184 533 202 577Q220 620 259 647Q265 651 266 658Q276 704 310 738Q343 771 389 781Q396 782 400 788Q427 827 470 845Q514 863 560 855Q567 853 573 857Q613 883 660 883Q707 883 747 857Q753 853 760 855Q806 863 850 845Q893 827 920 788Q924 782 931 781Q977 771 1010 738Q1044 704 1054 658Q1055 651 1061 647Q1100 620 1118 577Q1136 533 1127 487Q1126 480 1130 474Q1156 434 1156 387Z" fill="#000000" />
<path d="M403 403Q403 458 348 458Q326 458 310 442Q294 426 294 403Q294 381 310 365Q326 349 348 349Q403 349 403 403ZM367 403Q367 384 348 384Q329 384 329 403Q329 422 348 422Q367 422 367 403Z" fill="#000000" />
<path d="M641 293Q641 316 625 332Q609 348 587 348Q564 348 548 332Q532 316 532 293Q532 239 587 239Q609 239 625 255Q641 271 641 293ZM606 293Q606 274 587 274Q568 274 568 293Q568 312 587 312Q606 312 606 293Z" fill="#000000" />
<path d="M604 110Q604 164 550 164Q496 164 496 110Q496 87 512 71Q527 56 550 56Q573 56 589 71Q604 87 604 110ZM569 110Q569 91 550 91Q542 91 537 97Q531 102 531 110Q531 129 550 129Q569 129 569 110Z" fill="#000000" />
<path d="M897 110Q897 164 843 164Q789 164 789 110Q789 87 805 71Q820 56 843 56Q866 56 882 71Q897 87 897 110ZM862 110Q862 91 843 91Q835 91 830 97Q824 102 824 110Q824 129 843 129Q862 129 862 110Z" fill="#000000" />
<path d="M1008 385Q1008 408 992 424Q976 439 953 439Q931 439 915 424Q899 408 899 385Q899 362 915 346Q931 331 953 331Q1008 331 1008 385ZM972 385Q972 366 953 366Q934 366 934 385Q934 404 953 404Q972 404 972 385Z" fill="#000000" />
<path d="M934 660Q934 683 919 699Q903 714 880 714Q826 714 826 660Q826 637 842 622Q857 606 880 606Q903 606 919 622Q934 637 934 660ZM899 660Q899 641 880 641Q872 641 867 647Q861 652 861 660Q861 679 880 679Q888 679 893 673Q899 668 899 660Z" fill="#000000" />
<path d="M641 641Q641 664 625 680Q609 696 587 696Q564 696 548 680Q532 664 532 641Q532 587 587 587Q609 587 625 603Q641 619 641 641ZM606 641Q606 622 587 622Q568 622 568 641Q568 660 587 660Q606 660 606 641Z" fill="#000000" />
</g></svg>