<svg xmlns="http://www.w3.org/2000/svg" viewBox="0 0 2048 2048">
<g transform="matrix(1 0 0 -1 0 2048)">
<path d="M125.556640625 25.27288818359375V-104.70294189453125H225.01953125V25.27288818359375Z" fill="#a57939" />
<path d="M949.556640625 25.27288818359375V-104.70294189453125H1049.01953125V25.27288818359375Z" fill="#a57939" />
<path d="M230 523 234 35 948 31 944 523Z" fill="#92d3f5" />
<path d="M230.67218017578125 195.2449951171875V30.5277099609375H948.2554931640625V195.2449951171875Z" fill="#61b2e4" />
<path d="M1062 411H951L948 31H1062Z" fill="#61b2e4" />
<path d="M229 386 100 423V31H231Z" fill="#61b2e4" />
<path d="M1030.0604248046875 -12.19140625V-99.4453125H967.2539672851562V-12.19140625Z" fill="#a57939" />
<path d="M199.6221923828125 -11.27099609375V-99.2529296875H136.89691162109375V-11.27099609375Z" fill="#a57939" />
<path d="M632 870Q675 896 716.0 900.0Q757 904 790.0 896.0Q823 888 842.5 879.0Q862 870 862 870V715Q819 691 778.0 687.5Q737 684 704.0 691.0Q671 698 651.5 706.5Q632 715 632 715Z" fill="#fcea2b" />
<path d="M213 410Q162 449 105 441Q89 439 89 423V31Q89 13 107 13H1069Q1087 13 1087 31V423Q1087 441 1069 441Q1068 441 1064 441Q1012 441 991 434Q977 429 963 418V523Q963 541 945 541H231Q213 541 213 523ZM215 360Q218 351 231 351Q239 351 245 357Q251 363 251 370Q251 372 250 375V504H927V371Q927 353 945 353Q954 353 960 360Q983 392 1003 399Q1016 404 1051 404V50H126V406Q167 405 205 369Q210 364 215 360Z" fill="#000000" />
<path d="M162 -30Q162 -11 144 -11Q125 -11 125 -30V-100Q125 -118 144 -118H206Q225 -118 225 -100V-30Q225 -11 206 -11Q188 -11 188 -30V-82H162Z" fill="#000000" />
<path d="M987 -30Q987 -11 969 -11Q950 -11 950 -30V-100Q950 -118 969 -118H1031Q1050 -118 1050 -100V-30Q1050 -11 1031 -11Q1013 -11 1013 -30V-82H987Z" fill="#000000" />
<path d="M615 870V715Q615 703 625 698Q754 636 872 699Q882 704 882 715V870Q882 881 872 886Q751 955 624 886Q615 881 615 870ZM651 859Q750 908 845 859V726Q753 682 651 726Z" fill="#000000" />
<path d="M233 212Q215 212 215 194Q215 176 233 176H945Q964 176 964 194Q964 212 945 212Z" fill="#000000" />
<path d="M927 44Q927 26 945 26Q964 26 964 44L963 371Q963 389 945 389Q927 389 927 371Z" fill="#000000" />
<path d="M250 369Q250 378 245 383Q240 387 231 387Q213 387 213 369V31Q213 22 218 17Q222 13 231 13Q250 13 250 31Z" fill="#000000" />
<path d="M860 812Q842 808 845 790Q847 781 852 778Q858 774 867 776Q930 788 995 752Q1126 680 1130 432Q1132 324 1130 2Q1130 -16 1148 -16Q1167 -16 1167 2Q1169 325 1167 432Q1162 702 1012 784Q936 826 860 812Z" fill="#000000" />
<path d="M1080 -30Q1062 -30 1062 -48Q1062 -66 1080 -66H1219Q1237 -66 1237 -48Q1237 -30 1219 -30Z" fill="#000000" />
</g></svg>