<svg xmlns="http://www.w3.org/2000/svg" viewBox="0 0 2048 2048">
<g transform="matrix(1 0 0 -1 0 2048)">
<path d="M613 139 377 -97Q354 -114 322.5 -110.5Q291 -107 267 -84L227 -44L763 492Q766 490 771.5 491.5Q777 493 777 493L960 533Q962 516 957.5 498.0Q953 480 941 468Z" fill="#6a462f" />
<path d="M1148 824Q1149 820 1149 816Q1150 804 1144 794Q1142 791 1139 788L943 592Q941 590 940 587Q939 585 939 582Q939 576 942 572V571Q956 552 960 530L777 490Q777 490 773.0 489.0Q769 488 766 490Q763 493 760 496L1123 858L1136 845Q1145 836 1148 824Z" fill="#d22f27" />
<path d="M766 491 229 -46 191 -7Q166 18 163.5 51.5Q161 85 183 107L742 666Q767 691 805 685Q811 684 816 683Q813 683 811.5 684.0Q810 685 815 685L775 503Q775 503 769.0 498.0Q763 493 766 491Z" fill="#a57939" />
<path d="M765 503 805 685Q811 684 816 683Q821 681 826 679Q837 675 846 668Q848 666 851 665Q857 663 862 665Q864 666 866 668L1063 865Q1069 870 1076 873Q1083 875 1091 874Q1108 873 1120 861L1128 853L766 491Q763 493 764.0 498.0Q765 503 765 503Z" fill="#ea5a47" />
<path d="M593.8125610351562 18.33428955078125Q593.8125610351562 37.14404296875 586.6696166992188 53.8109130859375Q579.5266723632812 70.477783203125 566.907470703125 83.09698486328125Q554.2882690429688 95.7161865234375 537.7404479980469 102.859130859375Q521.192626953125 110.0020751953125 502.144775390625 110.0020751953125Q483.096923828125 110.0020751953125 466.5491027832031 102.859130859375Q450.00128173828125 95.7161865234375 437.382080078125 83.09698486328125Q424.76287841796875 70.477783203125 417.61993408203125 53.8109130859375Q410.47698974609375 37.14404296875 410.47698974609375 18.33428955078125Q410.47698974609375 -0.71356201171875 417.61993408203125 -17.38043212890625Q424.76287841796875 -34.04730224609375 437.382080078125 -46.66650390625Q450.00128173828125 -59.28570556640625 466.5491027832031 -66.30960083007812Q483.096923828125 -73.33349609375 502.144775390625 -73.33349609375Q521.192626953125 -73.33349609375 537.7404479980469 -66.30960083007812Q554.2882690429688 -59.28570556640625 566.907470703125 -46.66650390625Q579.5266723632812 -34.04730224609375 586.6696166992188 -17.38043212890625Q593.8125610351562 -0.71356201171875 593.8125610351562 18.33428955078125Z" fill="#d0cfce" />
<path d="M552 95Q571 83 582.5 62.5Q594 42 594 18Q594 -20 567.0 -47.0Q540 -74 502 -74Q478 -74 457.5 -62.5Q437 -51 425 -31Q448 -46 474 -46Q512 -46 539.0 -19.0Q566 8 566 46Q566 72 552 95Z" fill="#9b9b9a" />
<path d="M383 -91Q389 -85 389 -78Q389 -72 383 -65Q370 -52 357 -65L356 -66Q340 -82 316 -82Q292 -82 276 -66L209 1Q169 41 209 81L768 640Q787 659 814 657Q829 655 842 646Q865 630 884 650L1081 847Q1095 860 1108 847L1115 840L1122 833Q1135 820 1122 806L925 609Q905 590 921 567Q922 567 922 566Q931 554 932 539Q934 512 915 493L587 165Q581 159 581 152Q581 146 587 139Q600 126 613 139L941 467Q972 498 968 542Q966 566 953 586L1148 780Q1187 820 1148 859L1141 866L1134 873Q1095 912 1055 873L861 678Q841 691 817 693Q773 697 742 666L183 107Q156 80 156 41Q156 2 183 -25L250 -92Q277 -119 316 -119Q355 -119 382 -92Z" fill="#000000" />
<path d="M614 18Q614 64 582 96Q550 128 504 128Q459 128 427 96Q394 64 394 18Q394 -27 427 -59Q459 -92 504 -92Q550 -92 582 -59Q614 -27 614 18ZM578 18Q578 -12 556 -34Q535 -55 504 -55Q431 -55 431 18Q431 92 504 92Q535 92 556 70Q578 49 578 18Z" fill="#000000" />
</g></svg>