<svg xmlns="http://www.w3.org/2000/svg" viewBox="0 0 2048 2048">
<g transform="matrix(1 0 0 -1 0 2048)">
<path d="M125.05230712890625 578.3562622070312 243.7235107421875 330.2547607421875 607.6151123046875 504.2244873046875 488.94390869140625 752.3259887695312Z" fill="#ffffff" />
<path d="M1072.7605590820312 329.83782958984375 1191.4317626953125 577.9393310546875 827.5401611328125 751.9090576171875 708.8689575195312 503.80755615234375Z" fill="#ffffff" />
<path d="M412.3743896484375 541.1571044921875Q412.3743896484375 550.5595703125 408.8038330078125 558.890869140625Q405.2332763671875 567.22216796875 398.92529296875 573.5301513671875Q392.6173095703125 579.838134765625 384.34552001953125 583.40869140625Q376.07373046875 586.979248046875 366.55224609375 586.979248046875Q357.03076171875 586.979248046875 348.75897216796875 583.40869140625Q340.4871826171875 579.838134765625 334.17919921875 573.5301513671875Q327.8712158203125 567.22216796875 324.3006591796875 558.890869140625Q320.7301025390625 550.5595703125 320.7301025390625 541.1571044921875Q320.7301025390625 531.6356201171875 324.3006591796875 523.3043212890625Q327.8712158203125 514.9730224609375 334.17919921875 508.6650390625Q340.4871826171875 502.3570556640625 348.75897216796875 498.84600830078125Q357.03076171875 495.3349609375 366.55224609375 495.3349609375Q376.07373046875 495.3349609375 384.34552001953125 498.84600830078125Q392.6173095703125 502.3570556640625 398.92529296875 508.6650390625Q405.2332763671875 514.9730224609375 408.8038330078125 523.3043212890625Q412.3743896484375 531.6356201171875 412.3743896484375 541.1571044921875Z" fill="#000000" />
<path d="M996.3743896484375 541.1571044921875Q996.3743896484375 550.5595703125 992.8038330078125 558.890869140625Q989.2332763671875 567.22216796875 982.92529296875 573.5301513671875Q976.6173095703125 579.838134765625 968.3455200195312 583.40869140625Q960.07373046875 586.979248046875 950.55224609375 586.979248046875Q941.03076171875 586.979248046875 932.7589721679688 583.40869140625Q924.4871826171875 579.838134765625 918.17919921875 573.5301513671875Q911.8712158203125 567.22216796875 908.3006591796875 558.890869140625Q904.7301025390625 550.5595703125 904.7301025390625 541.1571044921875Q904.7301025390625 531.6356201171875 908.3006591796875 523.3043212890625Q911.8712158203125 514.9730224609375 918.17919921875 508.6650390625Q924.4871826171875 502.3570556640625 932.7589721679688 498.84600830078125Q941.03076171875 495.3349609375 950.55224609375 495.3349609375Q960.07373046875 495.3349609375 968.3455200195312 498.84600830078125Q976.6173095703125 502.3570556640625 982.92529296875 508.6650390625Q989.2332763671875 514.9730224609375 992.8038330078125 523.3043212890625Q996.3743896484375 531.6356201171875 996.3743896484375 541.1571044921875Z" fill="#000000" />
<path d="M827 10Q835 -6 851 2Q868 10 860 26L512 760Q508 768 502 770Q495 772 487 768Q471 760 478 744Z" fill="#000000" />
<path d="M227 322Q235 305 252 313L616 487Q632 495 624 512L506 760Q498 776 481 768L118 594Q101 587 109 570ZM150 569 481 727 583 512 253 354Z" fill="#000000" />
<path d="M457 26Q449 10 466 2Q474 -2 480 0Q486 2 490 10L839 744Q843 752 840 758Q838 764 830 768Q813 776 806 760Z" fill="#000000" />
<path d="M1208 570Q1216 587 1200 594L836 768Q819 776 811 760L693 512Q685 495 701 487L1065 313Q1082 305 1090 322ZM1064 354 734 512 836 727 1167 569Z" fill="#000000" />
<path d="M412.3743896484375 541.1571044921875Q412.3743896484375 550.5595703125 408.8038330078125 558.890869140625Q405.2332763671875 567.22216796875 398.92529296875 573.5301513671875Q392.6173095703125 579.838134765625 384.34552001953125 583.40869140625Q376.07373046875 586.979248046875 366.55224609375 586.979248046875Q357.03076171875 586.979248046875 348.75897216796875 583.40869140625Q340.4871826171875 579.838134765625 334.17919921875 573.5301513671875Q327.8712158203125 567.22216796875 324.3006591796875 558.890869140625Q320.7301025390625 550.5595703125 320.7301025390625 541.1571044921875Q320.7301025390625 531.6356201171875 324.3006591796875 523.3043212890625Q327.8712158203125 514.9730224609375 334.17919921875 508.6650390625Q340.4871826171875 502.3570556640625 348.75897216796875 498.84600830078125Q357.03076171875 495.3349609375 366.55224609375 495.3349609375Q376.07373046875 495.3349609375 384.34552001953125 498.84600830078125Q392.6173095703125 502.3570556640625 398.92529296875 508.6650390625Q405.2332763671875 514.9730224609375 408.8038330078125 523.3043212890625Q412.3743896484375 531.6356201171875 412.3743896484375 541.1571044921875Z" fill="#d22f27" />
<path d="M996.3743896484375 541.1571044921875Q996.3743896484375 550.5595703125 992.8038330078125 558.890869140625Q989.2332763671875 567.22216796875 982.92529296875 573.5301513671875Q976.6173095703125 579.838134765625 968.3455200195312 583.40869140625Q960.07373046875 586.979248046875 950.55224609375 586.979248046875Q941.03076171875 586.979248046875 932.7589721679688 583.40869140625Q924.4871826171875 579.838134765625 918.17919921875 573.5301513671875Q911.8712158203125 567.22216796875 908.3006591796875 558.890869140625Q904.7301025390625 550.5595703125 904.7301025390625 541.1571044921875Q904.7301025390625 531.6356201171875 908.3006591796875 523.3043212890625Q911.8712158203125 514.9730224609375 918.17919921875 508.6650390625Q924.4871826171875 502.3570556640625 932.7589721679688 498.84600830078125Q941.03076171875 495.3349609375 950.55224609375 495.3349609375Q960.07373046875 495.3349609375 968.3455200195312 498.84600830078125Q976.6173095703125 502.3570556640625 982.92529296875 508.6650390625Q989.2332763671875 514.9730224609375 992.8038330078125 523.3043212890625Q996.3743896484375 531.6356201171875 996.3743896484375 541.1571044921875Z" fill="#d22f27" />
</g></svg>