<svg xmlns="http://www.w3.org/2000/svg" viewBox="0 0 2048 2048">
<g transform="matrix(1 0 0 -1 0 2048)">
<path d="M73.970458984375 98.16656494140625V-34.92474365234375H1246.649169921875V98.16656494140625Z" fill="#ffffff" />
<path d="M751.6849975585938 751.2941284179688Q751.6849975585938 770.09423828125 744.5457153320312 786.7525634765625Q737.4064331054688 803.410888671875 724.793701171875 816.0236206054688Q712.1809692382812 828.6363525390625 695.6416320800781 835.775634765625Q679.102294921875 842.9149169921875 660.064208984375 842.9149169921875Q641.026123046875 842.9149169921875 624.4867858886719 835.775634765625Q607.9474487304688 828.6363525390625 595.334716796875 816.0236206054688Q582.7219848632812 803.410888671875 575.5827026367188 786.7525634765625Q568.4434204101562 770.09423828125 568.4434204101562 751.2941284179688Q568.4434204101562 732.2560424804688 575.5827026367188 715.5977172851562Q582.7219848632812 698.9393920898438 595.334716796875 686.32666015625Q607.9474487304688 673.7139282226562 624.4867858886719 666.6936340332031Q641.026123046875 659.67333984375 660.064208984375 659.67333984375Q679.102294921875 659.67333984375 695.6416320800781 666.6936340332031Q712.1809692382812 673.7139282226562 724.793701171875 686.32666015625Q737.4064331054688 698.9393920898438 744.5457153320312 715.5977172851562Q751.6849975585938 732.2560424804688 751.6849975585938 751.2941284179688Z" fill="#ffffff" />
<path d="M73.970458984375 98.16656494140625V-34.92474365234375H1246.649169921875V98.16656494140625Z" fill="#f1b31c" />
<path d="M127.99664306640625 659.4330444335938Q152.9969482421875 659.4330444335938 174.06863403320312 671.9331970214844Q195.14031982421875 684.433349609375 207.2833251953125 705.1478881835938Q219.42633056640625 725.8624267578125 219.42633056640625 751.5770263671875Q219.42633056640625 776.5773315429688 207.2833251953125 797.2918701171875Q195.14031982421875 818.0064086914062 174.06863403320312 830.5065612792969Q152.9969482421875 843.0067138671875 127.99664306640625 843.0067138671875Z" fill="#fcea2b" />
<path d="M1192.0033569335938 843.5669555664062Q1167.0030517578125 843.5669555664062 1145.9313659667969 831.0668029785156Q1124.8596801757812 818.566650390625 1112.7166748046875 797.8521118164062Q1100.5736694335938 777.1375732421875 1100.5736694335938 751.4229736328125Q1100.5736694335938 726.4226684570312 1112.7166748046875 705.7081298828125Q1124.8596801757812 684.9935913085938 1145.9313659667969 672.4934387207031Q1167.0030517578125 659.9932861328125 1192.0033569335938 659.9932861328125Z" fill="#fcea2b" />
<path d="M1192 843V99H128V843V724Q128 672 144.5 625.5Q161 579 191 541Q232 487 294.5 455.0Q357 423 430 423H427Q510 423 555.5 463.5Q601 504 619.0 572.5Q637 641 637 724H675Q675 641 692.5 572.5Q710 504 755.5 463.5Q801 423 884 423H890Q952 423 1006.5 446.5Q1061 470 1102.5 511.5Q1144 553 1167.5 607.5Q1191 662 1191 724Z" fill="#fcea2b" />
<path d="M751.6849975585938 751.2941284179688Q751.6849975585938 770.09423828125 744.5457153320312 786.7525634765625Q737.4064331054688 803.410888671875 724.793701171875 816.0236206054688Q712.1809692382812 828.6363525390625 695.6416320800781 835.775634765625Q679.102294921875 842.9149169921875 660.064208984375 842.9149169921875Q641.026123046875 842.9149169921875 624.4867858886719 835.775634765625Q607.9474487304688 828.6363525390625 595.334716796875 816.0236206054688Q582.7219848632812 803.410888671875 575.5827026367188 786.7525634765625Q568.4434204101562 770.09423828125 568.4434204101562 751.2941284179688Q568.4434204101562 732.2560424804688 575.5827026367188 715.5977172851562Q582.7219848632812 698.9393920898438 595.334716796875 686.32666015625Q607.9474487304688 673.7139282226562 624.4867858886719 666.6936340332031Q641.026123046875 659.67333984375 660.064208984375 659.67333984375Q679.102294921875 659.67333984375 695.6416320800781 666.6936340332031Q712.1809692382812 673.7139282226562 724.793701171875 686.32666015625Q737.4064331054688 698.9393920898438 744.5457153320312 715.5977172851562Q751.6849975585938 732.2560424804688 751.6849975585938 751.2941284179688Z" fill="#fcea2b" />
<path d="M55 -35Q55 -53 73 -53H1247Q1265 -53 1265 -35V99Q1265 117 1247 117H73Q55 117 55 99ZM92 80H1228V-16H92Z" fill="#000000" />
<path d="M147 843Q147 862 128 862Q110 862 110 843V99Q110 80 128 80H1192Q1210 80 1210 99V843Q1210 862 1192 862Q1173 862 1173 843V117H147Z" fill="#000000" />
<path d="M128.0 861.0Q110.0 861.0 110.0 843.0Q110.0 825.0 128.0 825.0Q202.0 825.0 202.0 751.0Q202.0 678.0 128.0 678.0Q110.0 678.0 110.0 660.0Q110.0 641.0 128.0 641.0Q174.0 641.0 206.0 674.0Q238.0 706.0 238.0 751.0Q238.0 797.0 206.0 829.0Q174.0 861.0 128.0 861.0Z" fill="#000000" />
<path d="M430 404Q448 404 448 423Q448 441 430 441Q290 441 205 552Q147 628 147 724Q147 743 128 743Q110 743 110 724Q110 616 176 529Q272 404 430 404Z" fill="#000000" />
<path d="M1209 724Q1209 743 1191 743Q1173 743 1173 724Q1173 607 1090 524Q1007 441 890 441Q871 441 871 423Q871 404 890 404Q1022 404 1116 498Q1209 592 1209 724Z" fill="#000000" />
<path d="M770 752Q770 797 738 829Q705 862 660 862Q614 862 582 829Q550 797 550 752Q550 706 582 674Q614 642 660 642Q705 642 738 674Q770 706 770 752ZM733 752Q733 678 660 678Q587 678 587 752Q587 782 608 803Q630 825 660 825Q690 825 712 803Q733 782 733 752Z" fill="#000000" />
<path d="M1192.0 642.0Q1210.0 642.0 1210.0 660.0Q1210.0 678.0 1192.0 678.0Q1118.0 678.0 1118.0 752.0Q1118.0 825.0 1192.0 825.0Q1210.0 825.0 1210.0 843.0Q1210.0 862.0 1192.0 862.0Q1146.0 862.0 1114.0 829.0Q1082.0 797.0 1082.0 752.0Q1082.0 706.0 1114.0 674.0Q1146.0 642.0 1192.0 642.0Z" fill="#000000" />
<path d="M55 -35Q55 -53 73 -53H1247Q1265 -53 1265 -35V99Q1265 117 1247 117H73Q55 117 55 99ZM92 80H1228V-16H92Z" fill="#000000" />
<path d="M128.0 861.0Q110.0 861.0 110.0 843.0Q110.0 825.0 128.0 825.0Q202.0 825.0 202.0 751.0Q202.0 678.0 128.0 678.0Q110.0 678.0 110.0 660.0Q110.0 641.0 128.0 641.0Q174.0 641.0 206.0 674.0Q238.0 706.0 238.0 751.0Q238.0 797.0 206.0 829.0Q174.0 861.0 128.0 861.0Z" fill="#000000" />
<path d="M1192.0 642.0Q1210.0 642.0 1210.0 660.0Q1210.0 678.0 1192.0 678.0Q1118.0 678.0 1118.0 752.0Q1118.0 825.0 1192.0 825.0Q1210.0 825.0 1210.0 843.0Q1210.0 862.0 1192.0 862.0Q1146.0 862.0 1114.0 829.0Q1082.0 797.0 1082.0 752.0Q1082.0 706.0 1114.0 674.0Q1146.0 642.0 1192.0 642.0Z" fill="#000000" />
<path d="M653 661Q653 670 649 675Q645 680 636 681Q627 681 622 677Q617 673 616 664Q599 442 428 441Q290 442 205 552Q147 628 147 724V843Q147 862 128 862Q110 862 110 843V99Q110 80 128 80H1192Q1210 80 1210 99V843Q1210 862 1192 862Q1173 862 1173 843V117H147V575Q159 551 176 529Q271 406 425 405Q426 404 427 404H430Q431 404 431 405Q633 407 653 661Z" fill="#000000" />
<path d="M1209 724Q1209 743 1191 743Q1173 743 1173 724Q1173 607 1090 524Q1007 441 890 441H884Q713 441 695 663Q694 681 675 680Q666 679 662 674Q658 669 659 660Q679 404 884 404H890Q1022 404 1116 498Q1209 592 1209 724Z" fill="#000000" />
<path d="M770 752Q770 797 738 829Q705 862 660 862Q614 862 582 829Q550 797 550 752Q550 706 582 674Q614 642 660 642Q705 642 738 674Q770 706 770 752ZM733 752Q733 678 660 678Q587 678 587 752Q587 782 608 803Q630 825 660 825Q690 825 712 803Q733 782 733 752Z" fill="#000000" />
</g></svg>