<svg xmlns="http://www.w3.org/2000/svg" viewBox="0 0 2048 2048">
<g transform="matrix(1 0 0 -1 0 2048)">
<path d="M347 653 477 -157 861 -160 971 651Z" fill="#ffffff" />
<path d="M915 124H415L374 388H952Z" fill="#d22f27" />
<path d="M931 105 933 121 973 406H353L400 105ZM899 142H431L395 369H930Z" fill="#000000" />
<path d="M1008 666Q1011 684 992 686Q983 688 978 684Q973 680 972 671L859 -155H478L348 671Q345 689 327 686Q309 684 312 665L444 -176Q446 -192 462 -192H875Q890 -192 893 -176Z" fill="#000000" />
<path d="M330 687Q312 687 312 668Q312 650 330 650H990Q1008 650 1008 668Q1008 687 990 687Z" fill="#000000" />
<path d="M678 953Q678 972 660 972Q642 972 642 953V733Q642 715 660 715Q678 715 678 733Z" fill="#000000" />
</g></svg>