<svg xmlns="http://www.w3.org/2000/svg" viewBox="0 0 2048 2048">
<g transform="matrix(1 0 0 -1 0 2048)">
<path d="M617 758Q609 754 607 748Q605 741 610 733Q619 717 635 727L667 745Q675 750 676 756Q678 762 673 770Q664 786 648 777Z" fill="#000000" />
<path d="M502.25384521484375 561.59619140625Q517.8423461914062 552.59619140625 526.8423461914062 568.1846923828125Q535.8423461914062 583.773193359375 520.2538452148438 592.773193359375L488.2108154296875 611.273193359375Q472.622314453125 620.273193359375 463.622314453125 604.6846923828125Q454.622314453125 589.09619140625 470.2108154296875 580.09619140625Z" fill="#000000" />
<path d="M667.2538452148438 378.59619140625Q682.8423461914062 369.59619140625 691.8423461914062 385.1846923828125Q700.8423461914062 400.773193359375 685.2538452148438 409.773193359375L653.2108154296875 428.273193359375Q637.622314453125 437.273193359375 628.622314453125 421.6846923828125Q619.622314453125 406.09619140625 635.2108154296875 397.09619140625Z" fill="#000000" />
<path d="M818 543Q827 527 843 537Q851 541 853 547Q855 554 850 562L832 593Q823 609 807 600Q799 596 797 589Q795 583 800 575Z" fill="#000000" />
<path d="M617.3391723632812 542.9490966796875Q612.4109497070312 535.4849853515625 613.6788940429688 529.288818359375Q615.4468383789062 522.2266235351562 623.7769775390625 517.7984008789062Q639.5712280273438 508.44195556640625 648.4276733398438 525.1022338867188L667.1405639648438 556.6907348632812Q671.5687866210938 565.0208740234375 669.434814453125 570.717041015625Q668.1668701171875 576.9132080078125 659.8367309570312 581.3414306640625Q644.04248046875 590.6978759765625 634.68603515625 574.9036254882812Z" fill="#000000" />
<path d="M745 690Q754 674 770 684Q778 688 780 694Q782 701 777 709L759 740Q750 756 734 747Q726 743 724 736Q722 730 727 722Z" fill="#000000" />
<path d="M415.59619140625 377.74615478515625Q424.59619140625 362.15765380859375 440.1846923828125 371.15765380859375Q455.773193359375 380.15765380859375 446.773193359375 395.74615478515625L428.273193359375 427.7891845703125Q419.273193359375 443.377685546875 403.6846923828125 434.377685546875Q388.09619140625 425.377685546875 397.09619140625 409.7891845703125Z" fill="#000000" />
<path d="M531 330Q513 330 513 312Q513 294 531 294H568Q586 294 586 312Q586 330 568 330Z" fill="#000000" />
<path d="M854.59619140625 377.74615478515625Q845.59619140625 362.15765380859375 861.1846923828125 353.15765380859375Q876.773193359375 344.15765380859375 885.773193359375 359.74615478515625L904.273193359375 391.7891845703125Q913.273193359375 407.377685546875 897.6846923828125 416.377685546875Q882.09619140625 425.377685546875 873.09619140625 409.7891845703125Z" fill="#000000" />
<path d="M744.7461547851562 336.40380859375Q729.1576538085938 327.40380859375 738.1576538085938 311.8153076171875Q747.1576538085938 296.226806640625 762.7461547851562 305.226806640625L794.7891845703125 323.726806640625Q810.377685546875 332.726806640625 801.377685546875 348.3153076171875Q792.377685546875 363.90380859375 776.7891845703125 354.90380859375Z" fill="#000000" />
<path d="M1082 245 660 0 238 245Q226 253 222.0 267.5Q218 282 225 295Q233 307 247.5 311.0Q262 315 275 309L660 312L1046 309Q1064 319 1082 309Q1101 298 1101 277Q1101 256 1082 245Z" fill="#a57939" />
<path d="M1091 229Q1111 241 1117 263Q1123 285 1112 304Q1100 324 1078 330Q1059 335 1041 327L660 330L279 327Q236 345 210 305L209 304L208 303Q186 258 228 230L660 -21ZM1073 261 660 21 248 261Q234 271 241 286Q251 300 267 292L271 290L660 293L1050 290L1055 293Q1061 297 1069 295Q1076 293 1080 286Q1084 279 1082 272Q1080 265 1073 261Z" fill="#a57939" />
<path d="M1027 202H935L880 165L825 202L770 165L715 202L660 165L605 202L550 165L495 202L440 165L385 202H293Q315 202 336.5 176.5Q358 151 376.5 108.5Q395 66 409.5 15.0Q424 -36 432.0 -87.5Q440 -139 440 -183H880Q880 -139 888.0 -87.5Q896 -36 910.5 15.0Q925 66 943.5 108.5Q962 151 983.5 176.5Q1005 202 1027 202Z" fill="#92d3f5" />
<path d="M917 275Q869 261 838.5 259.0Q808 257 786.5 261.0Q765 265 744.5 270.0Q724 275 697 275Q662 275 639.0 270.0Q616 265 598.0 259.0Q580 253 560.5 251.5Q541 250 513 257Q471 267 429.0 276.5Q387 286 352.0 301.5Q317 317 296.0 345.5Q275 374 275 422Q275 449 283.5 464.0Q292 479 302.5 485.5Q313 492 321.5 493.5Q330 495 330 495Q330 495 339.0 500.5Q348 506 357.5 514.0Q367 522 367 532Q367 535 398.5 537.5Q430 540 482.5 541.5Q535 543 597.0 544.0Q659 545 721.0 545.0Q783 545 835.0 544.0Q887 543 917.5 541.0Q948 539 947 535Q942 524 948.5 510.5Q955 497 963.5 487.0Q972 477 972 477Q972 477 985.5 466.0Q999 455 1013.0 438.5Q1027 422 1027 403Q1027 348 998.5 319.0Q970 290 917 275Z" fill="#ffa7c0" />
<path d="M922 257Q1045 293 1045 403Q1045 449 983 491Q959 517 964 528Q971 545 953 553Q950 555 945 556Q938 557 925 558Q902 560 859 561Q778 564 659 563Q348 561 348 532Q348 525 325 513Q308 512 292 501Q257 477 257 422Q257 337 325 295Q364 272 464 249Q494 243 509 239Q554 228 611 244Q658 257 697 257Q719 257 754 249Q832 232 922 257ZM912 293Q831 269 762 285Q723 293 697 293Q653 293 601 279Q554 266 518 274Q503 278 472 285Q378 306 344 327Q293 358 293 422Q293 477 330 477H334L338 479Q373 496 382 517Q387 518 394 519Q416 521 459 522Q541 526 659 526Q777 527 858 525Q900 524 922 522Q924 522 926 521Q928 495 959 464L960 462L961 461Q1008 430 1008 403Q1008 320 912 293Z" fill="#ffa7c0" />
<path d="M441 666Q457 666 465.5 675.5Q474 685 477.5 697.5Q481 710 482.0 719.5Q483 729 483 729Q483 753 506.0 771.5Q529 790 563.5 807.5Q598 825 632.5 845.0Q667 865 690.5 891.0Q714 917 715 953L750 855Q754 850 754 844Q757 823 776.0 805.0Q795 787 819.0 770.5Q843 754 860.5 739.0Q878 724 879 709Q864 672 873.5 654.5Q883 637 900 624Q900 624 915.5 617.5Q931 611 947.0 598.0Q963 585 963 565Q963 545 944.5 527.0Q926 509 876.5 497.5Q827 486 733 486L545 488Q483 488 445.5 497.5Q408 507 389.0 522.5Q370 538 364.0 555.0Q358 572 358 587Q358 604 370.0 622.5Q382 641 401.0 653.5Q420 666 441 666Z" fill="#ffa7c0" />
<path d="M441 685Q403 685 371 652Q339 621 339 587Q339 537 378 508Q428 470 545 470L733 468Q948 468 976 541Q981 552 981 565Q981 618 909 640Q880 665 896 701Q898 705 897 709Q896 738 835 782Q776 824 772 846Q772 855 767 863L732 960Q729 968 723 971Q717 974 709 971Q697 966 697 954Q696 897 572 833Q464 776 464 729Q464 694 450 687Q446 685 441 685ZM441 648Q480 648 495 692Q501 710 501 729Q501 754 589 800Q682 849 715 899L733 849Q734 847 735 846Q736 844 736 842Q736 842 736 842Q741 803 814 752Q855 722 860 711Q837 650 889 610Q891 607 895 606Q944 592 944 565Q944 504 733 504L545 506Q376 506 376 587Q376 606 396 626Q418 648 441 648Z" fill="#ffa7c0" />
<path d="M617 758Q609 754 607 748Q605 741 610 733Q619 717 635 727L667 745Q675 750 676 756Q678 762 673 770Q664 786 648 777Z" fill="#61b2e4" />
<path d="M502.25384521484375 561.59619140625Q517.8423461914062 552.59619140625 526.8423461914062 568.1846923828125Q535.8423461914062 583.773193359375 520.2538452148438 592.773193359375L488.2108154296875 611.273193359375Q472.622314453125 620.273193359375 463.622314453125 604.6846923828125Q454.622314453125 589.09619140625 470.2108154296875 580.09619140625Z" fill="#d22f27" />
<path d="M667.2538452148438 378.59619140625Q682.8423461914062 369.59619140625 691.8423461914062 385.1846923828125Q700.8423461914062 400.773193359375 685.2538452148438 409.773193359375L653.2108154296875 428.273193359375Q637.622314453125 437.273193359375 628.622314453125 421.6846923828125Q619.622314453125 406.09619140625 635.2108154296875 397.09619140625Z" fill="#5c9e31" />
<path d="M818 543Q827 527 843 537Q851 541 853 547Q855 554 850 562L832 593Q823 609 807 600Q799 596 797 589Q795 583 800 575Z" fill="#5c9e31" />
<path d="M617.3391723632812 542.9490966796875Q612.4109497070312 535.4849853515625 613.6788940429688 529.288818359375Q615.4468383789062 522.2266235351562 623.7769775390625 517.7984008789062Q639.5712280273438 508.44195556640625 648.4276733398438 525.1022338867188L667.1405639648438 556.6907348632812Q671.5687866210938 565.0208740234375 669.434814453125 570.717041015625Q668.1668701171875 576.9132080078125 659.8367309570312 581.3414306640625Q644.04248046875 590.6978759765625 634.68603515625 574.9036254882812Z" fill="#fcea2b" />
<path d="M745 690Q754 674 770 684Q778 688 780 694Q782 701 777 709L759 740Q750 756 734 747Q726 743 724 736Q722 730 727 722Z" fill="#8967aa" />
<path d="M415.59619140625 377.74615478515625Q424.59619140625 362.15765380859375 440.1846923828125 371.15765380859375Q455.773193359375 380.15765380859375 446.773193359375 395.74615478515625L428.273193359375 427.7891845703125Q419.273193359375 443.377685546875 403.6846923828125 434.377685546875Q388.09619140625 425.377685546875 397.09619140625 409.7891845703125Z" fill="#61b2e4" />
<path d="M531 330Q513 330 513 312Q513 294 531 294H568Q586 294 586 312Q586 330 568 330Z" fill="#e27022" />
<path d="M854.59619140625 377.74615478515625Q845.59619140625 362.15765380859375 861.1846923828125 353.15765380859375Q876.773193359375 344.15765380859375 885.773193359375 359.74615478515625L904.273193359375 391.7891845703125Q913.273193359375 407.377685546875 897.6846923828125 416.377685546875Q882.09619140625 425.377685546875 873.09619140625 409.7891845703125Z" fill="#d22f27" />
<path d="M744.7461547851562 336.40380859375Q729.1576538085938 327.40380859375 738.1576538085938 311.8153076171875Q747.1576538085938 296.226806640625 762.7461547851562 305.226806640625L794.7891845703125 323.726806640625Q810.377685546875 332.726806640625 801.377685546875 348.3153076171875Q792.377685546875 363.90380859375 776.7891845703125 354.90380859375Z" fill="#fcea2b" />
<path d="M733 953Q734 971 715 972Q706 972 702 967Q697 963 697 954Q696 897 572 833Q464 776 464 729Q464 670 587 670Q605 670 605 688Q605 707 587 707Q542 707 524 711Q501 717 501 729Q501 754 589 800Q732 875 733 953Z" fill="#000000" />
<path d="M772 850Q772 869 754 869Q736 869 736 850Q736 807 815 750Q861 717 861 709Q861 688 815 669Q757 644 671 648Q653 649 652 630Q652 621 656 616Q660 612 670 611Q763 607 829 635Q897 664 897 709Q897 736 837 780Q772 826 772 850Z" fill="#000000" />
<path d="M441 648Q459 648 459 666Q459 685 441 685Q403 685 371 652Q339 621 339 587Q339 537 378 508Q428 470 545 470Q564 470 564 488Q564 506 545 506Q376 506 376 587Q376 606 396 626Q418 648 441 648Z" fill="#000000" />
<path d="M733 504Q715 504 715 486Q715 468 733 468Q981 468 981 565Q981 619 905 641Q887 647 882 629Q880 620 883 615Q886 609 895 606Q944 592 944 565Q944 542 911 527Q858 504 733 504Z" fill="#000000" />
<path d="M1027 183Q1045 183 1045 202Q1045 220 1027 220Q961 220 909 70Q865 -53 862 -165H458Q455 -53 411 70Q359 220 293 220Q275 220 275 202Q275 183 293 183Q333 183 377 58Q422 -69 422 -183Q422 -202 440 -202H880Q898 -202 898 -183Q898 -69 943 58Q987 183 1027 183Z" fill="#000000" />
<path d="M395 217Q388 222 381 221Q375 219 370 212Q360 197 375 186L415 160Q415 160 415 159Q440 145 465 159Q465 160 465 160L489 176Q495 179 501 176L525 160Q525 160 525 159Q550 145 575 159Q575 160 575 160L599 176Q605 179 611 176L635 160Q635 160 635 159Q660 145 685 159Q685 160 685 160L709 176Q715 179 721 176L745 160Q745 160 745 159Q770 145 795 159Q795 160 795 160L819 176Q825 179 831 176L855 160Q855 160 855 159Q880 145 905 159Q905 160 905 160L945 186Q960 197 950 212Q940 227 925 217L886 191Q880 188 874 191L850 207Q850 207 850 207Q825 222 800 207Q800 207 800 207L776 191Q770 188 764 191L740 207Q740 207 740 207Q715 222 690 207Q690 207 690 207L666 191Q660 188 654 191L630 207Q630 207 630 207Q605 222 580 207Q580 207 580 207L556 191Q550 188 544 191L520 207Q520 207 520 207Q495 222 470 207Q470 207 470 207L446 191Q440 188 434 191Z" fill="#000000" />
<path d="M330 477Q348 477 348 495Q348 513 330 513Q311 513 292 501Q257 477 257 422Q257 365 303 315Q357 257 440 257Q458 257 458 275Q458 293 440 293Q373 293 330 340Q293 380 293 422Q293 477 330 477Z" fill="#000000" />
<path d="M1035.5096435546875 324.1817626953125Q1020.2210693359375 315.6966552734375 1029.0718994140625 299.0426025390625Q1038.422607421875 283.254150390625 1054.2110595703125 292.6048583984375Q1061.172607421875 296.66455078125 1068.2315673828125 294.8966064453125Q1076.1561279296875 292.6287841796875 1079.3502197265625 286.1671142578125Q1083.409912109375 279.20556640625 1081.6419677734375 272.1466064453125Q1079.3741455078125 264.2220458984375 1072.9124755859375 261.0279541015625Q1057.1240234375 251.67724609375 1066.4747314453125 235.8887939453125Q1074.9598388671875 220.6002197265625 1091.114013671875 228.58544921875Q1110.6331787109375 240.3988037109375 1116.4368896484375 262.4412841796875Q1122.2406005859375 284.4837646484375 1111.792724609375 304.36865234375Q1099.9793701171875 323.8878173828125 1077.9368896484375 329.6915283203125Q1055.8944091796875 335.4952392578125 1035.5096435546875 324.1817626953125Z" fill="#000000" />
<path d="M267 292Q283 284 291 301Q295 309 293 315Q291 321 283 325Q238 347 210 305Q209 304 208 303Q186 258 228 230Q236 225 242 226Q248 227 253 235Q264 250 248 260Q234 270 241 286Q251 300 267 292Z" fill="#000000" />
<path d="M977 494Q960 500 954 482Q951 474 954 468Q957 462 966 459Q1008 445 1008 403Q1008 362 984 329Q958 293 917 293Q898 293 898 275Q898 257 917 257Q977 257 1014 308Q1045 350 1045 403Q1045 472 977 494Z" fill="#000000" />
</g></svg>