<svg xmlns="http://www.w3.org/2000/svg" viewBox="0 0 2048 2048">
<g transform="matrix(1 0 0 -1 0 2048)">
<path d="M537 299Q517 268 483.0 245.5Q449 223 408.5 210.5Q368 198 329 198Q265 198 213.0 228.5Q161 259 130.5 311.0Q100 363 100 427L98 517L63 516V592Q63 592 82.5 606.5Q102 621 136.0 641.0Q170 661 214.5 677.5Q259 694 309.5 698.0Q360 702 412.0 686.0Q464 670 513.0 624.0Q562 578 603 494H658H667H721Q763 578 812.0 624.0Q861 670 913.0 686.0Q965 702 1015.0 698.0Q1065 694 1109.5 677.5Q1154 661 1188.5 641.0Q1223 621 1242.5 606.5Q1262 592 1262 592V516L1227 517L1225 427Q1225 363 1194.0 311.0Q1163 259 1111.0 228.5Q1059 198 996 198Q956 198 916.0 210.5Q876 223 842.5 245.5Q809 268 787 299Q777 313 763.5 320.5Q750 328 738.0 338.5Q726 349 722 372Q714 408 704.0 422.0Q694 436 683.5 437.5Q673 439 663 437Z" fill="#3f3f3f" />
<path d="M662 446 665 428Q700 433 713 370Q719 338 754 315Q773 303 780 293Q854 188 996 188Q1095 188 1164 258Q1234 328 1234 427L1236 507L1271 506V596L1268 598Q1179 674 1066 699Q839 750 715 503H609Q485 750 259 700Q146 674 57 598L54 596V506L89 507L90 426Q90 328 160 258Q230 188 329 188Q474 188 545 293L530 304Q464 207 329 207Q238 207 173 271Q109 336 109 427L107 526L72 525V587Q156 658 263 682Q478 730 595 490L598 485H727L729 490Q847 730 1062 682Q1169 658 1252 587V525L1218 526L1216 427Q1216 336 1151 271Q1087 207 996 207Q863 207 795 304Q786 317 764 331Q736 349 731 374Q715 454 662 446Z" fill="#3f3f3f" />
<path d="M995 197Q956 197 916.0 210.0Q876 223 842.0 245.5Q808 268 787 298Q777 313 763.0 320.5Q749 328 737.5 338.0Q726 348 721 372Q714 408 704.0 421.5Q694 435 683.5 436.5Q673 438 663 437Z" fill="#3f3f3f" />
<path d="M662 446 665 428Q700 433 713 370Q719 338 754 315Q773 303 780 293Q854 188 996 188V207Q863 207 795 304Q786 317 764 331Q736 349 731 374Q715 454 662 446Z" fill="#3f3f3f" />
<path d="M667 443Q630 449 614.0 444.0Q598 439 595.5 428.5Q593 418 597.5 405.5Q602 393 607.0 383.5Q612 374 611 371Q598 351 586.5 342.0Q575 333 564.5 326.0Q554 319 543 304Q522 274 488.0 251.5Q454 229 414.0 216.0Q374 203 335 203Z" fill="#3f3f3f" />
<path d="M335 213V194Q477 194 551 299Q559 311 577 323Q603 342 618 367Q622 373 614 390Q601 417 604 426Q611 442 666 434L668 452Q599 462 587 433Q581 416 597 382Q600 376 601 374Q588 354 566 338Q546 324 536 310Q467 213 335 213Z" fill="#3f3f3f" />
<path d="M552 288Q557 296 556 302Q555 309 547 314Q532 324 522 309Q459 216 329 216Q241 216 180 278Q118 339 118 427L116 517Q116 526 111 531Q106 535 97 535H81V583Q162 650 265 673Q472 719 587 486Q592 476 603 476H721Q733 476 738 486Q852 719 1060 673Q1162 650 1243 583V535H1227Q1218 535 1214 531Q1209 526 1209 517L1207 427Q1207 339 1145 278Q1083 216 996 216Q865 216 803 309Q792 324 777 314Q762 303 772 288Q846 179 996 179Q1098 179 1171 252Q1243 324 1243 426L1245 498H1261Q1261 498 1262 498Q1280 498 1280 516V592Q1280 600 1274 605Q1183 683 1068 708Q837 760 710 512H615Q488 760 257 708Q141 683 51 605Q45 600 45 592V516Q45 516 45 515Q45 497 63 498H80L81 427Q81 324 154 252Q226 179 329 179Q479 179 552 288Z" fill="#000000" />
<path d="M593 372Q593 354 612 354Q630 354 630 372Q630 409 667 409Q703 409 703 372Q703 354 722 354Q740 354 740 372Q740 402 718 424Q697 445 667 445Q636 445 615 424Q593 402 593 372Z" fill="#000000" />
<path d="M531 448Q531 528 474 585Q417 642 337 642Q256 642 200 585Q143 528 143 448Q143 368 200 311Q256 254 337 254Q417 254 474 311Q531 368 531 448ZM494 448Q494 383 448 337Q402 291 337 291Q272 291 225 337Q179 383 179 448Q179 513 225 559Q272 605 337 605Q402 605 448 559Q494 513 494 448Z" fill="#000000" />
<path d="M1182 448Q1182 528 1125 585Q1068 642 988 642Q907 642 851 585Q794 528 794 448Q794 368 851 311Q907 254 988 254Q1068 254 1125 311Q1182 368 1182 448ZM1145 448Q1145 383 1099 337Q1053 291 988 291Q923 291 876 337Q830 383 830 448Q830 513 876 559Q923 605 988 605Q1053 605 1099 559Q1145 513 1145 448Z" fill="#000000" />
</g></svg>