<svg xmlns="http://www.w3.org/2000/svg" viewBox="0 0 2048 2048">
<g transform="matrix(1 0 0 -1 0 2048)">
<path d="M338.9627685546875 467.0406494140625V8.7353515625H980.6473388671875V467.0406494140625Z" fill="#ffffff" />
<path d="M523 641V733H431V554Z" fill="#ea5a47" />
<path d="M467.875 311.60205078125V18.26953125H632.875V311.60205078125Z" fill="#a57939" />
<path d="M687 305 633 358 587 312 468 193 391 116 445 63Z" fill="#6a462f" />
<path d="M880 183V312H770H733V183H785Z" fill="#9b9b9a" />
<path d="M785 183H880V312H770L788 275L843 257Z" fill="#92d3f5" />
<path d="M660 770 708 722 587 642 623 605 587 532 733 550 862 568 972 477V458H348V477Z" fill="#ea5a47" />
<path d="M535 627Q541 633 541 641V733Q541 752 523 752H431Q413 752 413 733V554Q413 547 417 542Q430 528 443 541ZM504 649 449 597V715H504Z" fill="#000000" />
<path d="M600 299Q605 304 605 312Q605 330 587 330H468Q449 330 449 312V193Q449 185 455 180Q468 167 480 180ZM542 293 486 237V293Z" fill="#000000" />
<path d="M651 251Q651 258 645 264Q633 277 620 264L455 99Q449 93 449 86V18Q449 0 468 0H633Q651 0 651 18ZM614 206V37H486V78Z" fill="#000000" />
<path d="M715 183Q715 165 733 165H880Q898 165 898 183V312Q898 330 880 330H733Q715 330 715 312ZM752 293H862V202H752Z" fill="#000000" />
<path d="M432 50Q445 37 458 50L700 292Q712 305 700 318L646 371Q633 384 620 371L378 129Q365 116 378 103ZM417 116 633 332 661 305 445 89Z" fill="#000000" />
<path d="M770 195Q766 190 766 183Q766 165 785 165H880Q898 165 898 183V312Q898 330 880 330H770Q766 330 762 328Q745 320 754 303L772 267Q775 260 783 258L813 248ZM823 202 858 245Q860 249 862 252V202ZM862 263Q860 267 855 271Q852 273 849 274L801 290L800 293H862Z" fill="#000000" />
<path d="M789 642Q789 660 770 660Q752 660 752 642V568Q752 550 770 550Q789 550 789 568Z" fill="#000000" />
<path d="M843 587Q843 605 825 605Q807 605 807 587V568Q807 550 825 550Q843 550 843 568Z" fill="#000000" />
<path d="M732.4974975585938 697.110107421875Q732.4974975585938 715.5902099609375 715.0440673828125 715.5902099609375Q696.56396484375 715.5902099609375 696.56396484375 697.110107421875V568.7760620117188Q696.56396484375 550.2959594726562 715.0440673828125 550.2959594726562Q732.4974975585938 550.2959594726562 732.4974975585938 568.7760620117188Z" fill="#000000" />
<path d="M720 684Q733 671 746 684Q759 697 746 710L673 783Q660 796 647 783L336 490Q330 485 330 477V458Q330 440 348 440H972Q990 440 990 458V477Q990 485 983 491L873 582Q867 588 859 586L731 568L618 554L640 597Q646 609 636 618L615 639L705 699ZM679 725 576 657Q575 656 574 655Q561 642 574 629L601 601L570 540Q568 535 568 529Q571 511 589 513L736 532L856 549L943 477H375L660 744Z" fill="#000000" />
<path d="M677.4974975585938 679.110107421875Q677.4974975585938 697.5902099609375 660.0440673828125 697.5902099609375Q641.56396484375 697.5902099609375 641.56396484375 679.110107421875V550.7760620117188Q641.56396484375 532.2959594726562 660.0440673828125 532.2959594726562Q677.4974975585938 532.2959594726562 677.4974975585938 550.7760620117188Z" fill="#000000" />
<path d="M330 18Q330 0 348 0H972Q990 0 990 18V458Q990 477 972 477H348Q330 477 330 458ZM367 440H953V37H367Z" fill="#000000" />
</g></svg>