<svg xmlns="http://www.w3.org/2000/svg" viewBox="0 0 2048 2048">
<g transform="matrix(1 0 0 -1 0 2048)">
<path d="M810 -73 807 18H518V-73Q518 -100 503.5 -121.0Q489 -142 467.5 -157.5Q446 -173 424.5 -182.5Q403 -192 388.5 -197.0Q374 -202 374 -202H954Q954 -202 939.5 -197.0Q925 -192 903.5 -182.5Q882 -173 860.5 -157.5Q839 -142 824.5 -121.0Q810 -100 810 -73Z" fill="#d0cfce" />
<path d="M1159 18Q1197 18 1224.5 45.5Q1252 73 1252 111V751Q1252 790 1224.5 817.0Q1197 844 1159 844H169Q131 844 103.5 817.0Q76 790 76 751V111Q76 73 103.5 45.5Q131 18 169 18Z" fill="#9b9b9a" />
<path d="M1238 188V431L143 821Q119 829 98.0 814.5Q77 800 77 775V601Z" fill="#ffffff" />
<path d="M76 173 93 63Q93 58 101.5 47.0Q110 36 127.0 27.0Q144 18 169 18L1159 28Q1167 28 1181.0 35.0Q1195 42 1207.5 50.0Q1220 58 1223 62Q1239 79 1245.0 105.5Q1251 132 1251.5 152.5Q1252 173 1252 173Z" fill="#d0cfce" />
<path d="M1159 0Q1205 0 1237 33Q1270 65 1270 111V751Q1270 797 1237 830Q1205 862 1159 862H169Q123 862 91 830Q58 797 58 751V111Q58 65 91 33Q123 0 169 0ZM1159 37H169Q95 37 95 111V751Q95 826 169 826H1159Q1233 826 1233 751V111Q1233 37 1159 37Z" fill="#000000" />
<path d="M1159 24Q1167 24 1167 32Q1167 41 1158 41L169 27Q138 27 117 43Q101 56 101 63Q101 64 101 64L85 174Q84 178 82 180Q79 182 75 181Q67 180 68 172L85 62Q85 47 107 30Q133 10 169 10Z" fill="#000000" />
<path d="M1159 9Q1205 9 1233 37Q1261 65 1261 111L1270 751Q1270 797 1237 830Q1205 862 1159 862H169Q123 862 91 830Q58 797 58 751V111Q58 65 91 33Q123 0 169 0ZM1159 46H1158L169 37Q95 37 95 111V751Q95 826 169 826H1159Q1233 826 1233 751L1224 112Q1224 46 1159 46Z" fill="#000000" />
<path d="M132 174Q114 174 114 156Q114 138 132 138H1196Q1214 138 1214 156Q1214 174 1196 174Z" fill="#000000" />
<path d="M810 -73Q810 -54 792 -54Q773 -54 773 -73Q773 -138 856 -183H471Q554 -138 554 -73Q554 -54 536 -54Q518 -54 518 -73Q518 -118 447 -155Q408 -175 370 -184Q356 -187 356 -202Q356 -220 374 -220H954Q968 -220 972 -206Q976 -188 958 -184Q920 -175 881 -155Q810 -118 810 -73Z" fill="#000000" />
</g></svg>