<svg xmlns="http://www.w3.org/2000/svg" viewBox="0 0 2048 2048">
<g transform="matrix(1 0 0 -1 0 2048)">
<path d="M221 376 665 -68 1109 376 665 820Z" fill="#92d3f5" />
<path d="M581.3024291992188 444.5401611328125V289.0H736.8425903320312V444.5401611328125Z" fill="#e27022" />
<path d="M574 427Q587 414 600 427Q613 440 600 453L462 590Q449 603 436 590Q423 578 436 565Z" fill="#000000" />
<path d="M720 453Q707 440 720 427Q733 414 746 427L902 583Q915 596 902 609Q889 622 876 609Z" fill="#000000" />
<path d="M746.0 306.0Q733.0 319.0 720.0 306.0Q707.0 293.0 720.0 280.0L858.0 143.0Q871.0 130.0 884.0 143.0Q897.0 155.0 884.0 168.0Z" fill="#000000" />
<path d="M600.0 281.0Q613.0 294.0 600.0 307.0Q587.0 320.0 574.0 307.0L437.0 169.0Q424.0 156.0 437.0 143.0Q449.0 130.0 462.0 143.0Z" fill="#000000" />
<path d="M652 -81Q665 -94 678 -81L1122 363Q1135 376 1122 389L678 833Q665 846 652 833L208 389Q195 376 208 363ZM247 376 665 794 1083 376 665 -42Z" fill="#000000" />
<path d="M564 289Q564 271 582 271H738Q756 271 756 289V444Q756 463 738 463H582Q564 463 564 444ZM601 426H719V307H601Z" fill="#000000" />
</g></svg>