<svg xmlns="http://www.w3.org/2000/svg" viewBox="0 0 2048 2048">
<g transform="matrix(1 0 0 -1 0 2048)">
<path d="M727 356Q727 356 725.0 372.0Q723 388 716.5 408.5Q710 429 696.5 445.0Q683 461 659 461Q635 461 620.5 445.5Q606 430 599.0 409.0Q592 388 589.5 372.0Q587 356 587 356Q573 352 561 346Q560 346 559 345Q535 322 502.0 315.5Q469 309 438 323Q407 336 389.0 364.5Q371 393 372 426Q373 460 392.5 487.5Q412 515 443 527Q475 538 507.5 530.5Q540 523 563 498Q572 494 602.5 486.5Q633 479 674.5 479.0Q716 479 757 497Q779 522 812.0 530.0Q845 538 876 527Q908 515 927.5 487.5Q947 460 948 427Q949 393 931.0 364.5Q913 336 882 323Q851 309 818.0 315.5Q785 322 761 345L760 346Q744 352 727 356ZM482 350Q513 350 534.5 371.5Q556 393 556 423Q556 454 534.5 475.5Q513 497 482 497Q452 497 430.5 475.5Q409 454 409 423Q409 393 430.5 371.5Q452 350 482 350ZM838 350Q868 350 889.5 371.5Q911 393 911 423Q911 454 889.5 475.5Q868 497 838 497Q807 497 785.5 475.5Q764 454 764 423Q764 393 785.5 371.5Q807 350 838 350Z" fill="#000000" />
<path d="M1082 385Q1082 472 1049.0 548.5Q1016 625 958.0 683.0Q900 741 823.5 774.0Q747 807 660 807Q573 807 496.5 774.0Q420 741 362.0 683.0Q304 625 271.0 548.5Q238 472 238 385Q238 298 271.0 221.5Q304 145 362.0 87.0Q420 29 496.5 -4.0Q573 -37 660 -37Q747 -37 823.5 -4.0Q900 29 958.0 87.0Q1016 145 1049.0 221.5Q1082 298 1082 385Z" fill="#fcea2b" />
<path d="M574.234619140625 423.7017822265625Q574.234619140625 442.6162109375 567.0601806640625 459.24786376953125Q559.8857421875 475.8795166015625 547.276123046875 488.4891357421875Q534.66650390625 501.0987548828125 518.0348510742188 508.273193359375Q501.4031982421875 515.4476318359375 482.48876953125 515.4476318359375Q463.5743408203125 515.4476318359375 446.94268798828125 508.273193359375Q430.31103515625 501.0987548828125 417.701416015625 488.4891357421875Q405.091796875 475.8795166015625 397.9173583984375 459.24786376953125Q390.742919921875 442.6162109375 390.742919921875 423.7017822265625Q390.742919921875 404.787353515625 397.9173583984375 388.15570068359375Q405.091796875 371.5240478515625 417.701416015625 358.9144287109375Q430.31103515625 346.3048095703125 446.94268798828125 339.13037109375Q463.5743408203125 331.9559326171875 482.48876953125 331.9559326171875Q501.4031982421875 331.9559326171875 518.0348510742188 339.13037109375Q534.66650390625 346.3048095703125 547.276123046875 358.9144287109375Q559.8857421875 371.5240478515625 567.0601806640625 388.15570068359375Q574.234619140625 404.787353515625 574.234619140625 423.7017822265625Z" fill="#92d3f5" />
<path d="M930.234619140625 423.7017822265625Q930.234619140625 442.6162109375 923.0601806640625 459.24786376953125Q915.8857421875 475.8795166015625 903.276123046875 488.4891357421875Q890.66650390625 501.0987548828125 874.0348510742188 508.273193359375Q857.4031982421875 515.4476318359375 838.48876953125 515.4476318359375Q819.5743408203125 515.4476318359375 802.9426879882812 508.273193359375Q786.31103515625 501.0987548828125 773.701416015625 488.4891357421875Q761.091796875 475.8795166015625 753.9173583984375 459.24786376953125Q746.742919921875 442.6162109375 746.742919921875 423.7017822265625Q746.742919921875 404.787353515625 753.9173583984375 388.15570068359375Q761.091796875 371.5240478515625 773.701416015625 358.9144287109375Q786.31103515625 346.3048095703125 802.9426879882812 339.13037109375Q819.5743408203125 331.9559326171875 838.48876953125 331.9559326171875Q857.4031982421875 331.9559326171875 874.0348510742188 339.13037109375Q890.66650390625 346.3048095703125 903.276123046875 358.9144287109375Q915.8857421875 371.5240478515625 923.0601806640625 388.15570068359375Q930.234619140625 404.787353515625 930.234619140625 423.7017822265625Z" fill="#92d3f5" />
<path d="M584 473Q554 503 527.0 512.0Q500 521 478.0 516.0Q456 511 439.5 500.5Q423 490 414.0 480.5Q405 471 405 471H367Q353 472 344 482Q334 492 335 506Q333 520 341.5 532.0Q350 544 364 548L349 567Q355 579 370.0 584.5Q385 590 402.0 591.0Q419 592 431.0 591.5Q443 591 443 591Q437 599 434 609Q479 609 507.5 595.5Q536 582 552.0 561.5Q568 541 575.0 521.0Q582 501 583.0 487.0Q584 473 584 473Z" fill="#3f3f3f" />
<path d="M747 473Q777 501 804.0 508.5Q831 516 853.5 512.0Q876 508 892.0 498.0Q908 488 917.0 479.5Q926 471 926 471H964Q978 472 987 482Q997 492 996 506Q998 520 989.5 532.0Q981 544 967 548L982 567Q976 579 961.0 584.5Q946 590 929.5 591.0Q913 592 900.5 591.5Q888 591 888 591Q894 599 897 609Q852 609 823.5 595.5Q795 582 779.0 561.5Q763 541 756.5 521.0Q750 501 748.5 487.0Q747 473 747 473Z" fill="#3f3f3f" />
<path d="M727 356Q727 356 725.0 372.0Q723 388 716.5 408.5Q710 429 696.5 445.0Q683 461 659 461Q635 461 620.5 445.5Q606 430 599.0 409.0Q592 388 589.5 372.0Q587 356 587 356Q573 352 561 346Q560 346 559 345Q535 322 502.0 315.5Q469 309 438 323Q407 336 389.0 364.5Q371 393 372 426Q373 460 392.5 487.5Q412 515 443 527Q475 538 507.5 530.5Q540 523 563 498Q572 494 602.5 486.5Q633 479 674.5 479.0Q716 479 757 497Q779 522 812.0 530.0Q845 538 876 527Q908 515 927.5 487.5Q947 460 948 427Q949 393 931.0 364.5Q913 336 882 323Q851 309 818.0 315.5Q785 322 761 345L760 346Q744 352 727 356ZM482 350Q513 350 534.5 371.5Q556 393 556 423Q556 454 534.5 475.5Q513 497 482 497Q452 497 430.5 475.5Q409 454 409 423Q409 393 430.5 371.5Q452 350 482 350ZM838 350Q868 350 889.5 371.5Q911 393 911 423Q911 454 889.5 475.5Q868 497 838 497Q807 497 785.5 475.5Q764 454 764 423Q764 393 785.5 371.5Q807 350 838 350Z" fill="#000000" />
<path d="M732 208 730 201Q706 172 684.5 163.5Q663 155 645.0 160.5Q627 166 613.5 177.0Q600 188 592.5 198.0Q585 208 585 208Q572 223 552 224Q539 224 530 233Q521 243 523 256Q525 291 556 309Q590 337 596 381Q600 422 614.5 440.0Q629 458 642.5 462.5Q656 467 658 467H659Q662 467 675.5 462.5Q689 458 703.0 439.5Q717 421 721 381Q728 337 762 309Q792 291 794 256Q796 243 787 233Q779 224 766 224Q745 223 732 208Z" fill="#f1b31c" />
<path d="M785 231 741 216Q733 190 710.5 174.0Q688 158 660 159Q633 157 610.5 172.5Q588 188 580 214L532 231Q532 231 519.0 229.5Q506 228 491.5 220.5Q477 213 472.5 197.0Q468 181 486 151Q501 163 519 166Q519 166 520.5 152.5Q522 139 535.5 124.5Q549 110 583 107V133Q583 133 588.5 123.5Q594 114 610.0 104.5Q626 95 658 95H659Q691 95 707.0 104.5Q723 114 728.5 123.5Q734 133 734 133V107Q768 110 781.5 124.5Q795 139 796.5 152.5Q798 166 798 166Q817 163 831 151Q849 181 844.5 197.0Q840 213 825.5 220.5Q811 228 798.0 229.5Q785 231 785 231Z" fill="#3f3f3f" />
<path d="M1100 385Q1100 567 971 696Q842 825 660 825Q478 825 349 696Q220 567 220 385Q220 203 349 74Q478 -55 660 -55Q842 -55 971 74Q1100 203 1100 385ZM1063 385Q1063 218 945 100Q827 -18 660 -18Q493 -18 375 100Q257 218 257 385Q257 552 375 670Q493 788 660 788Q827 788 945 670Q1063 552 1063 385Z" fill="#000000" />
<path d="M566 473Q566 455 584 455Q603 455 603 473Q603 512 582 550Q539 628 434 628Q417 628 416 611Q349 612 333 574Q328 564 335 556V555Q313 539 317 505Q316 485 330 470Q345 454 366 453Q366 453 367 453H405Q423 453 423 471Q423 490 405 490H367Q361 490 357 494Q353 499 353 505Q354 506 353 508Q351 526 368 530Q372 531 375 533Q389 544 378 559L372 567Q389 578 441 572Q448 572 454 576Q462 582 463 589Q523 580 550 532Q566 502 566 473Z" fill="#000000" />
<path d="M728 473Q728 455 747 455Q765 455 765 473Q765 502 782 532Q808 580 869 589Q869 582 877 576Q883 572 890 572Q942 578 959 567L953 559Q942 544 956 533Q959 531 963 530Q980 526 978 508Q978 506 978 505Q978 499 974 494Q970 490 964 490H926Q908 490 908 471Q908 453 926 453H964Q965 453 965 453Q987 454 1001 470Q1015 485 1014 505Q1018 539 996 555V556Q1003 564 999 574Q982 612 915 611Q915 628 897 628Q792 628 750 550Q728 512 728 473Z" fill="#000000" />
<path d="M571 196Q583 182 597 194Q611 206 599 220Q581 241 552 242Q552 243 551 243Q547 242 544 246Q541 249 541 253Q541 254 541 255Q543 280 565 294Q566 294 567 295Q607 328 614 378Q614 378 615 379Q621 446 659 449Q697 446 703 379Q703 378 703 378Q711 328 750 295Q751 294 752 294Q774 280 776 255Q776 254 776 253Q777 249 774 246Q771 242 766 243Q766 243 765 242Q737 241 718 220Q706 206 720 194Q734 182 746 196Q754 205 766 206Q787 205 801 221Q815 237 812 257Q810 301 772 324Q745 347 739 383Q730 482 660 485Q660 485 659 485H658Q658 485 657 485Q588 482 578 383Q572 347 545 324Q508 301 505 257Q502 237 516 221Q530 205 551 206Q563 205 571 196Z" fill="#000000" />
<path d="M599 247Q601 265 583 268Q565 271 562 253Q558 226 568 200Q588 144 659 144Q729 144 749 200Q759 226 754 253Q753 262 747 266Q742 270 733 268Q715 265 718 247Q721 230 715 212Q703 181 659 181Q614 181 602 213Q596 230 599 247Z" fill="#000000" />
<path d="M785 249Q767 250 767 231Q766 213 785 213Q803 212 817 205Q825 200 826 193Q827 187 824 177Q813 182 802 184Q784 188 780 170Q780 167 780 165Q782 137 752 129V133Q752 151 734 151Q720 151 716 138Q709 113 659 113H658Q608 113 601 138Q598 147 593 150Q587 153 578 151Q565 147 565 133V129Q535 137 537 165Q539 183 520 185Q518 185 515 184Q504 182 493 177Q490 187 491 193Q492 200 501 205Q514 213 532 213Q541 213 546 217Q551 222 550 231Q550 249 532 249Q504 249 482 236Q460 223 455 200Q450 175 470 142Q470 141 471 140Q482 126 497 137Q500 139 504 142Q506 136 509 130Q529 93 582 89Q582 89 583 89Q589 89 594 91Q617 76 658 76H659Q700 76 723 91Q728 88 735 89Q788 93 808 130Q811 136 813 142Q817 139 820 137Q821 136 822 136Q838 126 847 142Q867 175 862 200Q857 223 835 236Q813 249 785 249Z" fill="#000000" />
</g></svg>