<svg xmlns="http://www.w3.org/2000/svg" viewBox="0 0 2048 2048">
<g transform="matrix(1 0 0 -1 0 2048)">
<path d="M119 413 202 394H1183Q1183 394 1176.0 367.0Q1169 340 1150.5 297.0Q1132 254 1097.5 206.0Q1063 158 1009.0 115.5Q955 73 876.5 45.5Q798 18 691 18Q581 18 501.5 43.0Q422 68 367.5 107.0Q313 146 278.5 190.0Q244 234 225.5 273.0Q207 312 199 336Q197 347 184.5 360.5Q172 374 157.0 386.0Q142 398 130.5 405.5Q119 413 119 413Z" fill="#a57939" />
<path d="M921 367 1183 394Q1175 327 1146.5 273.5Q1118 220 1078.0 179.0Q1038 138 994.0 109.0Q950 80 910.0 62.0Q870 44 841.5 36.5Q813 29 804.5 31.5Q796 34 816 46Q843 62 862.0 99.5Q881 137 892.5 182.5Q904 228 910.0 270.0Q916 312 918.5 339.5Q921 367 921 367Z" fill="#6a462f" />
<path d="M108 495H167Q167 495 167.0 514.0Q167 533 166.0 562.5Q165 592 163.5 624.0Q162 656 158.5 683.0Q155 710 150.0 724.0Q145 738 138 731Q129 722 123.0 695.5Q117 669 114.0 635.5Q111 602 110.0 569.5Q109 537 108.5 516.0Q108 495 108 495Z" fill="#ea5a47" />
<path d="M123.0 485.5H152.5Q152.5 485.5 152.5 495.0Q152.5 504.5 152.0 519.25Q151.5 534.0 150.75 550.0Q150.0 566.0 148.25 579.5Q146.5 593.0 144.0 600.0Q141.5 607.0 138.0 603.5Q133.5 599.0 130.5 585.75Q127.5 572.5 126.0 555.75Q124.5 539.0 124.0 522.75Q123.5 506.5 123.25 496.0Q123.0 485.5 123.0 485.5Z" fill="#f1b31c" />
<path d="M131 495H144Q144 495 144.0 505.5Q144 516 142.5 525.5Q141 535 138 531Q132 526 131.5 510.5Q131 495 131 495Z" fill="#fcea2b" />
<path d="M109 397Q176 355 181 332Q181 331 182 330Q220 213 305 134Q448 0 691 0Q968 0 1112 195Q1184 293 1201 391Q1204 409 1186 412Q1184 413 1182 412Q800 394 673 394Q556 394 204 412L123 430Q105 434 101 416Q98 404 109 397ZM195 377 198 376Q199 376 201 376Q554 358 673 358Q797 357 1160 375Q1141 296 1083 217Q950 37 691 37Q318 37 217 341Q213 358 195 377Z" fill="#000000" />
<path d="M129.0 413.0Q129.0 404.0 138.0 404.0Q147.0 404.0 147.0 413.0V459.0Q147.0 468.0 138.0 468.0Q129.0 468.0 129.0 459.0Z" fill="#000000" />
<path d="M98 486Q98 477 107 477H168Q177 477 177 486Q177 555 173 620Q170 678 164 707Q160 726 155 734Q151 741 145 742Q137 744 131 737Q98 704 98 486ZM116 495Q117 687 141 721Q144 716 146 704Q152 676 155 619Q159 559 159 495Z" fill="#000000" />
</g></svg>