<svg xmlns="http://www.w3.org/2000/svg" viewBox="0 0 2048 2048">
<g transform="matrix(1 0 0 -1 0 2048)">
<path d="M544.396240234375 -44.78045654296875Q544.330810546875 -29.2281494140625 536.8101501464844 -16.78692626953125Q529.2894897460938 -4.345703125 516.9111328125 3.333221435546875Q504.53277587890625 11.01214599609375 489.46148681640625 10.7222900390625Q474.26190185546875 10.78515625 461.5801696777344 3.376708984375Q448.8984375 -4.03173828125 441.524169921875 -16.69866943359375Q434.14990234375 -29.3656005859375 434.0870361328125 -44.565185546875Q434.1524658203125 -60.11749267578125 441.6731262207031 -72.5587158203125Q449.19378662109375 -84.99993896484375 461.50799560546875 -92.50250244140625Q473.82220458984375 -100.00506591796875 489.37451171875 -99.93963623046875Q504.5740966796875 -100.00250244140625 517.0153198242188 -92.48184204101562Q529.45654296875 -84.961181640625 536.8949584960938 -72.47061157226562Q544.3333740234375 -59.98004150390625 544.396240234375 -44.78045654296875Z" fill="#d22f27" />
<path d="M487 129Q506 129 520 142Q533 156 533 175V825Q533 844 519.5 857.5Q506 871 487 871Q468 871 454.5 857.5Q441 844 441 825V175Q441 156 454 142Q468 129 487 129Z" fill="#d22f27" />
<path d="M886.396240234375 -44.78045654296875Q886.330810546875 -29.2281494140625 878.8101501464844 -16.78692626953125Q871.2894897460938 -4.345703125 858.9111328125 3.333221435546875Q846.5327758789062 11.01214599609375 831.4614868164062 10.7222900390625Q816.2619018554688 10.78515625 803.5801696777344 3.376708984375Q790.8984375 -4.03173828125 783.524169921875 -16.69866943359375Q776.14990234375 -29.3656005859375 776.0870361328125 -44.565185546875Q776.1524658203125 -60.11749267578125 783.6731262207031 -72.5587158203125Q791.1937866210938 -84.99993896484375 803.5079956054688 -92.50250244140625Q815.8222045898438 -100.00506591796875 831.37451171875 -99.93963623046875Q846.5740966796875 -100.00250244140625 859.0153198242188 -92.48184204101562Q871.45654296875 -84.961181640625 878.8949584960938 -72.47061157226562Q886.3333740234375 -59.98004150390625 886.396240234375 -44.78045654296875Z" fill="#d22f27" />
<path d="M829 129Q848 129 862 142Q875 156 875 175V825Q875 844 861.5 857.5Q848 871 829 871Q810 871 796.5 857.5Q783 844 783 825V175Q783 156 796 142Q810 129 829 129Z" fill="#d22f27" />
<path d="M562 -56Q562 -26 541 -4Q519 17 489 17Q416 17 416 -56Q416 -87 437 -109Q459 -130 489 -130Q562 -130 562 -56ZM526 -56Q526 -72 515 -83Q504 -94 489 -94Q452 -94 452 -56Q452 -19 489 -19Q526 -19 526 -56Z" fill="#000000" />
<path d="M904 -56Q904 -26 883 -4Q861 17 831 17Q801 17 779 -4Q758 -26 758 -56Q758 -130 831 -130Q861 -130 883 -109Q904 -87 904 -56ZM868 -56Q868 -72 857 -83Q846 -94 831 -94Q794 -94 794 -56Q794 -19 831 -19Q868 -19 868 -56Z" fill="#000000" />
<path d="M489 111Q516 111 535 130Q553 149 553 175V825Q553 890 489 890Q425 890 425 825V175Q424 149 443 130Q462 111 489 111ZM489 147Q477 147 469 155Q461 163 461 175V825Q461 853 489 853Q500 853 508 845Q516 837 516 825V175Q517 163 509 155Q500 147 489 147Z" fill="#000000" />
<path d="M831 111Q858 111 877 130Q896 149 895 175V825Q895 890 831 890Q804 890 786 871Q767 852 767 825V175Q767 149 785 130Q804 111 831 111ZM831 147Q820 147 811 155Q803 163 804 175V825Q804 837 812 845Q820 853 831 853Q859 853 859 825V175Q859 163 851 155Q843 147 831 147Z" fill="#000000" />
</g></svg>