<svg xmlns="http://www.w3.org/2000/svg" viewBox="0 0 2048 2048">
<g transform="matrix(1 0 0 -1 0 2048)">
<path d="M660 917Q770 917 866.5 875.5Q963 834 1036.0 761.0Q1109 688 1150.5 591.5Q1192 495 1192 385Q1192 275 1150.5 178.5Q1109 82 1036.0 9.0Q963 -64 866.5 -105.5Q770 -147 660 -147Q550 -147 453.5 -105.5Q357 -64 284.0 9.0Q211 82 169.5 178.5Q128 275 128 385Q128 495 169.5 591.5Q211 688 284.0 761.0Q357 834 453.5 875.5Q550 917 660 917ZM660 202Q711 202 752.5 226.5Q794 251 818.5 292.5Q843 334 843 385Q843 436 818.5 477.5Q794 519 752.5 543.5Q711 568 660 568Q609 568 567.5 543.5Q526 519 501.5 477.5Q477 436 477 385Q477 334 501.5 292.5Q526 251 567.5 226.5Q609 202 660 202Z" fill="#fcea2b" />
<path d="M660 917Q770 917 866.5 875.5Q963 834 1036.0 761.0Q1109 688 1150.5 591.5Q1192 495 1192 385Q1192 293 1162.0 209.5Q1132 126 1080 59Q1065 65 1055.0 79.0Q1045 93 1045 110Q1045 133 1029.0 149.0Q1013 165 990 165Q967 165 951.0 149.0Q935 133 935 110Q935 72 908.0 45.0Q881 18 843 18Q805 18 778.5 45.0Q752 72 752 110Q752 148 725.0 175.0Q698 202 660 202Q711 202 752.5 226.5Q794 251 818.5 292.5Q843 334 843 385Q843 436 818.5 477.5Q794 519 752.5 543.5Q711 568 660 568Q609 568 567.5 543.5Q526 519 501.5 477.5Q477 436 477 385Q477 348 491.0 314.5Q505 281 529 257H513Q491 257 474.5 240.5Q458 224 458 202Q458 164 431.5 137.0Q405 110 367 110Q329 110 302.0 137.0Q275 164 275 202Q275 240 248.0 266.5Q221 293 183 293H136Q128 340 128 385Q128 495 169.5 591.5Q211 688 284.0 761.0Q357 834 453.5 875.5Q550 917 660 917Z" fill="#f1b31c" />
<path d="M293.49951171875 476.32568359375Q293.49951171875 483.84765625 290.64306640625 490.5126953125Q287.78662109375 497.177734375 282.740234375 502.22412109375Q277.69384765625 507.2705078125 271.076416015625 510.126953125Q264.458984375 512.9833984375 256.841796875 512.9833984375Q249.224609375 512.9833984375 242.607177734375 510.126953125Q235.98974609375 507.2705078125 230.943359375 502.22412109375Q225.89697265625 497.177734375 223.04052734375 490.5126953125Q220.18408203125 483.84765625 220.18408203125 476.32568359375Q220.18408203125 468.70849609375 223.04052734375 462.04345703125Q225.89697265625 455.37841796875 230.943359375 450.33203125Q235.98974609375 445.28564453125 242.607177734375 442.476806640625Q249.224609375 439.66796875 256.841796875 439.66796875Q264.458984375 439.66796875 271.076416015625 442.476806640625Q277.69384765625 445.28564453125 282.740234375 450.33203125Q287.78662109375 455.37841796875 290.64306640625 462.04345703125Q293.49951171875 468.70849609375 293.49951171875 476.32568359375Z" fill="#ffffff" />
<path d="M403.49951171875 330.32568359375Q403.49951171875 337.84765625 400.64306640625 344.5126953125Q397.78662109375 351.177734375 392.740234375 356.22412109375Q387.69384765625 361.2705078125 381.076416015625 364.126953125Q374.458984375 366.9833984375 366.841796875 366.9833984375Q359.224609375 366.9833984375 352.607177734375 364.126953125Q345.98974609375 361.2705078125 340.943359375 356.22412109375Q335.89697265625 351.177734375 333.04052734375 344.5126953125Q330.18408203125 337.84765625 330.18408203125 330.32568359375Q330.18408203125 322.70849609375 333.04052734375 316.04345703125Q335.89697265625 309.37841796875 340.943359375 304.33203125Q345.98974609375 299.28564453125 352.607177734375 296.476806640625Q359.224609375 293.66796875 366.841796875 293.66796875Q374.458984375 293.66796875 381.076416015625 296.476806640625Q387.69384765625 299.28564453125 392.740234375 304.33203125Q397.78662109375 309.37841796875 400.64306640625 316.04345703125Q403.49951171875 322.70849609375 403.49951171875 330.32568359375Z" fill="#ffffff" />
<path d="M989.49951171875 311.32568359375Q989.49951171875 318.84765625 986.64306640625 325.5126953125Q983.78662109375 332.177734375 978.740234375 337.22412109375Q973.69384765625 342.2705078125 967.076416015625 345.126953125Q960.458984375 347.9833984375 952.841796875 347.9833984375Q945.224609375 347.9833984375 938.607177734375 345.126953125Q931.98974609375 342.2705078125 926.943359375 337.22412109375Q921.89697265625 332.177734375 919.04052734375 325.5126953125Q916.18408203125 318.84765625 916.18408203125 311.32568359375Q916.18408203125 303.70849609375 919.04052734375 297.04345703125Q921.89697265625 290.37841796875 926.943359375 285.33203125Q931.98974609375 280.28564453125 938.607177734375 277.476806640625Q945.224609375 274.66796875 952.841796875 274.66796875Q960.458984375 274.66796875 967.076416015625 277.476806640625Q973.69384765625 280.28564453125 978.740234375 285.33203125Q983.78662109375 290.37841796875 986.64306640625 297.04345703125Q989.49951171875 303.70849609375 989.49951171875 311.32568359375Z" fill="#ffffff" />
<path d="M1099.49951171875 458.32568359375Q1099.49951171875 465.84765625 1096.64306640625 472.5126953125Q1093.78662109375 479.177734375 1088.740234375 484.22412109375Q1083.69384765625 489.2705078125 1077.076416015625 492.126953125Q1070.458984375 494.9833984375 1062.841796875 494.9833984375Q1055.224609375 494.9833984375 1048.607177734375 492.126953125Q1041.98974609375 489.2705078125 1036.943359375 484.22412109375Q1031.89697265625 479.177734375 1029.04052734375 472.5126953125Q1026.18408203125 465.84765625 1026.18408203125 458.32568359375Q1026.18408203125 450.70849609375 1029.04052734375 444.04345703125Q1031.89697265625 437.37841796875 1036.943359375 432.33203125Q1041.98974609375 427.28564453125 1048.607177734375 424.476806640625Q1055.224609375 421.66796875 1062.841796875 421.66796875Q1070.458984375 421.66796875 1077.076416015625 424.476806640625Q1083.69384765625 427.28564453125 1088.740234375 432.33203125Q1093.78662109375 437.37841796875 1096.64306640625 444.04345703125Q1099.49951171875 450.70849609375 1099.49951171875 458.32568359375Z" fill="#ffffff" />
<path d="M953.49951171875 586.32568359375Q953.49951171875 593.84765625 950.64306640625 600.5126953125Q947.78662109375 607.177734375 942.740234375 612.22412109375Q937.69384765625 617.2705078125 931.076416015625 620.126953125Q924.458984375 622.9833984375 916.841796875 622.9833984375Q909.224609375 622.9833984375 902.607177734375 620.126953125Q895.98974609375 617.2705078125 890.943359375 612.22412109375Q885.89697265625 607.177734375 883.04052734375 600.5126953125Q880.18408203125 593.84765625 880.18408203125 586.32568359375Q880.18408203125 578.70849609375 883.04052734375 572.04345703125Q885.89697265625 565.37841796875 890.943359375 560.33203125Q895.98974609375 555.28564453125 902.607177734375 552.476806640625Q909.224609375 549.66796875 916.841796875 549.66796875Q924.458984375 549.66796875 931.076416015625 552.476806640625Q937.69384765625 555.28564453125 942.740234375 560.33203125Q947.78662109375 565.37841796875 950.64306640625 572.04345703125Q953.49951171875 578.70849609375 953.49951171875 586.32568359375Z" fill="#ffffff" />
<path d="M806.49951171875 788.32568359375Q806.49951171875 795.84765625 803.64306640625 802.5126953125Q800.78662109375 809.177734375 795.740234375 814.22412109375Q790.69384765625 819.2705078125 784.076416015625 822.126953125Q777.458984375 824.9833984375 769.841796875 824.9833984375Q762.224609375 824.9833984375 755.607177734375 822.126953125Q748.98974609375 819.2705078125 743.943359375 814.22412109375Q738.89697265625 809.177734375 736.04052734375 802.5126953125Q733.18408203125 795.84765625 733.18408203125 788.32568359375Q733.18408203125 780.70849609375 736.04052734375 774.04345703125Q738.89697265625 767.37841796875 743.943359375 762.33203125Q748.98974609375 757.28564453125 755.607177734375 754.476806640625Q762.224609375 751.66796875 769.841796875 751.66796875Q777.458984375 751.66796875 784.076416015625 754.476806640625Q790.69384765625 757.28564453125 795.740234375 762.33203125Q800.78662109375 767.37841796875 803.64306640625 774.04345703125Q806.49951171875 780.70849609375 806.49951171875 788.32568359375Z" fill="#ffffff" />
<path d="M641.49951171875 678.32568359375Q641.49951171875 685.84765625 638.64306640625 692.5126953125Q635.78662109375 699.177734375 630.740234375 704.22412109375Q625.69384765625 709.2705078125 619.076416015625 712.126953125Q612.458984375 714.9833984375 604.841796875 714.9833984375Q597.224609375 714.9833984375 590.607177734375 712.126953125Q583.98974609375 709.2705078125 578.943359375 704.22412109375Q573.89697265625 699.177734375 571.04052734375 692.5126953125Q568.18408203125 685.84765625 568.18408203125 678.32568359375Q568.18408203125 670.70849609375 571.04052734375 664.04345703125Q573.89697265625 657.37841796875 578.943359375 652.33203125Q583.98974609375 647.28564453125 590.607177734375 644.476806640625Q597.224609375 641.66796875 604.841796875 641.66796875Q612.458984375 641.66796875 619.076416015625 644.476806640625Q625.69384765625 647.28564453125 630.740234375 652.33203125Q635.78662109375 657.37841796875 638.64306640625 664.04345703125Q641.49951171875 670.70849609375 641.49951171875 678.32568359375Z" fill="#ffffff" />
<path d="M421.49951171875 678.32568359375Q421.49951171875 685.84765625 418.64306640625 692.5126953125Q415.78662109375 699.177734375 410.740234375 704.22412109375Q405.69384765625 709.2705078125 399.076416015625 712.126953125Q392.458984375 714.9833984375 384.841796875 714.9833984375Q377.224609375 714.9833984375 370.607177734375 712.126953125Q363.98974609375 709.2705078125 358.943359375 704.22412109375Q353.89697265625 699.177734375 351.04052734375 692.5126953125Q348.18408203125 685.84765625 348.18408203125 678.32568359375Q348.18408203125 670.70849609375 351.04052734375 664.04345703125Q353.89697265625 657.37841796875 358.943359375 652.33203125Q363.98974609375 647.28564453125 370.607177734375 644.476806640625Q377.224609375 641.66796875 384.841796875 641.66796875Q392.458984375 641.66796875 399.076416015625 644.476806640625Q405.69384765625 647.28564453125 410.740234375 652.33203125Q415.78662109375 657.37841796875 418.64306640625 664.04345703125Q421.49951171875 670.70849609375 421.49951171875 678.32568359375Z" fill="#ffffff" />
<path d="M312 477Q312 532 257 532Q202 532 202 477Q202 422 257 422Q312 422 312 477ZM275 477Q275 458 257 458Q238 458 238 477Q238 495 257 495Q275 495 275 477Z" fill="#000000" />
<path d="M422 330Q422 385 367 385Q312 385 312 330Q312 275 367 275Q422 275 422 330ZM385 330Q385 311 367 311Q348 311 348 330Q348 348 367 348Q385 348 385 330Z" fill="#000000" />
<path d="M1009 312Q1009 367 954 367Q899 367 899 312Q899 257 954 257Q1009 257 1009 312ZM972 312Q972 293 954 293Q935 293 935 312Q935 330 954 330Q972 330 972 312Z" fill="#000000" />
<path d="M1119 459Q1119 514 1064 514Q1009 514 1009 459Q1009 404 1064 404Q1119 404 1119 459ZM1082 459Q1082 440 1064 440Q1045 440 1045 459Q1045 477 1064 477Q1082 477 1082 459Z" fill="#000000" />
<path d="M972 587Q972 642 917 642Q862 642 862 587Q862 532 917 532Q972 532 972 587ZM935 587Q935 568 917 568Q898 568 898 587Q898 605 917 605Q935 605 935 587Z" fill="#000000" />
<path d="M825 789Q825 844 770 844Q715 844 715 789Q715 734 770 734Q825 734 825 789ZM788 789Q788 770 770 770Q751 770 751 789Q751 807 770 807Q788 807 788 789Z" fill="#000000" />
<path d="M660 679Q660 734 605 734Q550 734 550 679Q550 624 605 624Q660 624 660 679ZM623 679Q623 660 605 660Q586 660 586 679Q586 697 605 697Q623 697 623 679Z" fill="#000000" />
<path d="M440 679Q440 734 385 734Q330 734 330 679Q330 624 385 624Q440 624 440 679ZM403 679Q403 660 385 660Q366 660 366 679Q366 697 385 697Q403 697 403 679Z" fill="#000000" />
<path d="M1210 385Q1210 613 1049 774Q888 935 660 935Q432 935 271 774Q110 613 110 385Q110 157 271 -4Q432 -165 660 -165Q888 -165 1049 -4Q1210 157 1210 385ZM1173 385Q1173 172 1023 22Q873 -128 660 -128Q447 -128 297 22Q147 172 147 385Q147 598 297 748Q447 898 660 898Q873 898 1023 748Q1173 598 1173 385Z" fill="#000000" />
<path d="M861.9535522460938 384.97650146484375Q861.9535522460938 468.97393798828125 801.9553833007812 526.97216796875Q743.9571533203125 586.9703369140625 659.959716796875 586.9703369140625Q575.9622802734375 586.9703369140625 517.9640502929688 526.97216796875Q457.96588134765625 468.97393798828125 457.96588134765625 384.97650146484375Q457.96588134765625 300.97906494140625 517.9640502929688 242.9808349609375Q575.9622802734375 182.982666015625 659.959716796875 182.982666015625Q743.9571533203125 182.982666015625 801.9553833007812 242.9808349609375Q861.9535522460938 300.97906494140625 861.9535522460938 384.97650146484375ZM825.9546508789062 384.97650146484375Q825.9546508789062 316.97857666015625 775.9561767578125 268.98004150390625Q727.9576416015625 220.98150634765625 659.959716796875 220.98150634765625Q591.9617919921875 220.98150634765625 543.9632568359375 268.98004150390625Q495.9647216796875 316.97857666015625 495.9647216796875 384.97650146484375Q495.9647216796875 452.97442626953125 543.9632568359375 500.97296142578125Q591.9617919921875 550.971435546875 659.959716796875 550.971435546875Q727.9576416015625 550.971435546875 775.9561767578125 500.97296142578125Q825.9546508789062 452.97442626953125 825.9546508789062 384.97650146484375Z" fill="#000000" />
<path d="M147 312Q128 312 128 293Q128 275 147 275H183Q257 275 257 202Q257 156 289 124Q321 92 367 92Q412 92 444 124Q477 156 477 202Q477 238 513 238H526Q544 238 544 257Q544 275 526 275H513Q440 275 440 202Q440 128 367 128Q293 128 293 202Q293 247 261 279Q229 312 183 312Z" fill="#000000" />
<path d="M1071 43Q1088 35 1095 52Q1103 69 1086 76Q1063 86 1063 110Q1063 183 990 183Q917 183 917 110Q917 37 843 37Q770 37 770 110Q770 156 738 188Q706 220 660 220Q642 220 642 202Q642 183 660 183Q733 183 733 110Q733 64 766 32Q798 0 843 0Q889 0 921 32Q953 64 953 110Q953 147 990 147Q1027 147 1027 110Q1027 61 1071 43Z" fill="#000000" />
</g></svg>