<svg xmlns="http://www.w3.org/2000/svg" viewBox="0 0 2048 2048">
<g transform="matrix(1 0 0 -1 0 2048)">
<path d="M963.0 142.0 888.0 211.0 711.0 21.0V952.0H609.0V21.0L433.0 211.0L358.0 142.0L660.0 -184.0Z" fill="#3f3f3f" />
<path d="M976 130Q988 143 975 156L900 225Q887 237 874 224L729 68V953Q729 971 711 971H609Q591 971 591 953V68L446 224Q433 237 420 225L345 156Q332 143 344 130L647 -196Q647 -197 648 -197Q661 -210 673 -196ZM937 141 660 -157 383 141 431 186 596 9Q608 -5 621 8Q627 13 627 21V934H693V21Q693 3 711 3Q719 3 724 9L889 186Z" fill="#000000" />
</g></svg>