<svg xmlns="http://www.w3.org/2000/svg" viewBox="0 0 2048 2048">
<g transform="matrix(1 0 0 -1 0 2048)">
<path d="M705.0 -2.0Q695.0 -20.0 677.5 -25.5Q660.0 -31.0 642.5 -25.5Q625.0 -20.0 615.0 -2.0L208.0 703.0Q198.0 721.0 201.5 739.0Q205.0 757.0 219.0 769.0Q233.0 781.0 253.0 781.0H1067.0Q1087.0 781.0 1101.0 769.0Q1115.0 757.0 1118.5 739.0Q1122.0 721.0 1112.0 703.0Z" fill="#ea5a47" />
<path d="M721 -12 1128 694Q1149 729 1128 764Q1108 799 1067 799H253Q212 799 192 764Q171 729 192 694L599 -12Q619 -47 660 -47Q701 -47 721 -12ZM689 6Q679 -10 660 -10Q641 -10 631 6L223 712Q214 729 223 746Q233 763 253 763H1067Q1087 763 1097 746Q1106 729 1097 712Z" fill="#000000" />
</g></svg>