<svg xmlns="http://www.w3.org/2000/svg" viewBox="0 0 2048 2048">
<g transform="matrix(1 0 0 -1 0 2048)">
<path d="M1027 189Q1027 189 1013.5 276.0Q1000 363 935.0 529.0Q870 695 715 932Q686 978 659.5 972.5Q633 967 616.0 946.5Q599 926 599 926Q444 689 380.5 524.5Q317 360 305.0 274.5Q293 189 293 189Q293 27 400.5 -87.5Q508 -202 660 -202Q812 -202 919.5 -87.5Q1027 27 1027 189Z" fill="#ea5a47" />
<path d="M660 972Q746 791 787.5 641.5Q829 492 837.0 371.0Q845 250 829.5 156.5Q814 63 786.5 -4.5Q759 -72 730.0 -116.0Q701 -160 680.5 -181.0Q660 -202 660 -202Q761 -202 844.0 -153.0Q927 -104 975.5 -9.5Q1024 85 1024 222Q1024 222 1016.5 253.0Q1009 284 993.5 337.0Q978 390 955.5 457.0Q933 524 903.0 597.0Q873 670 835.5 740.5Q798 811 754.5 871.0Q711 931 660 972Z" fill="#d22f27" />
<path d="M933 -100Q1045 19 1045 188Q1045 189 1045 189Q1045 189 1045 189Q1044 259 1004 388Q925 644 731 942Q685 1015 626 979Q600 964 583 936Q389 637 312 385Q274 257 275 189Q275 20 387 -100Q500 -220 660 -220Q820 -220 933 -100ZM1008 189Q1008 34 906 -75Q804 -183 660 -183Q516 -183 414 -75Q312 35 312 189Q311 252 348 374Q422 622 614 916Q614 916 614 917Q627 937 644 948Q673 965 700 923Q892 628 969 377Q1008 253 1008 189Z" fill="#000000" />
</g></svg>