<svg xmlns="http://www.w3.org/2000/svg" viewBox="0 0 2048 2048">
<g transform="matrix(1 0 0 -1 0 2048)">
<path d="M720 859Q720 898 701.5 925.5Q683 953 657 953Q630 953 611.5 925.5Q593 898 593 859Q593 819 611.5 791.5Q630 764 657 764Q683 764 701.5 791.5Q720 819 720 859Z" fill="#f4aa41" />
<path d="M619 738Q591 766 558.0 772.0Q525 778 507 760Q488 741 494.5 708.0Q501 675 528 648Q556 620 589.0 613.5Q622 607 641 626Q659 645 652.5 677.5Q646 710 619 738Z" fill="#f1b31c" />
<path d="M619 589Q591 616 558.0 622.5Q525 629 507 611Q488 592 494.5 559.0Q501 526 528 499Q556 471 589.0 464.5Q622 458 641 477Q659 495 652.5 528.0Q646 561 619 589Z" fill="#f1b31c" />
<path d="M617.8190307617188 439.41082763671875Q590.2471923828125 466.9874267578125 557.7243041992188 473.353515625Q525.201416015625 479.7196044921875 506.8170166015625 461.33837890625Q487.72552490234375 442.25018310546875 494.08599853515625 409.7261962890625Q500.44647216796875 377.20220947265625 528.018310546875 349.6256103515625Q556.297119140625 321.3419189453125 588.8200073242188 314.975830078125Q621.3428955078125 308.6097412109375 640.4343872070312 327.69793701171875Q658.8187866210938 346.07916259765625 652.4583129882812 378.6031494140625Q646.0978393554688 411.12713623046875 617.8190307617188 439.41082763671875Z" fill="#f1b31c" />
<path d="M619 291Q591 318 558.0 324.5Q525 331 507 313Q488 294 494.5 261.0Q501 228 528 201Q556 173 589.0 166.5Q622 160 641 179Q659 197 652.5 230.0Q646 263 619 291Z" fill="#f1b31c" />
<path d="M619 141Q591 169 558.0 175.5Q525 182 507 163Q488 144 494.5 111.0Q501 78 528 51Q556 23 589.0 16.5Q622 10 641 29Q659 48 652.5 80.5Q646 113 619 141Z" fill="#f1b31c" />
<path d="M813 760Q795 778 762.0 772.0Q729 766 701 738Q674 710 667.5 677.5Q661 645 679 626Q698 607 731.0 613.5Q764 620 792 648Q819 675 825.5 708.0Q832 741 813 760Z" fill="#f1b31c" />
<path d="M813 611Q795 629 762.0 623.0Q729 617 701 589Q674 561 667.5 528.5Q661 496 679 477Q698 458 731.0 464.5Q764 471 792 499Q819 526 825.5 559.0Q832 592 813 611Z" fill="#f1b31c" />
<path d="M813 462Q795 480 762.0 474.0Q729 468 701 440Q674 412 667.5 379.5Q661 347 679 328Q698 309 731.0 315.5Q764 322 792 350Q819 377 825.5 410.0Q832 443 813 462Z" fill="#f1b31c" />
<path d="M813 312Q795 330 762.0 324.0Q729 318 701 290Q674 262 667.5 229.5Q661 197 679 178Q698 159 731.0 165.5Q764 172 792 200Q819 227 825.5 260.0Q832 293 813 312Z" fill="#f1b31c" />
<path d="M813 163Q795 181 762.0 175.0Q729 169 701 141Q674 113 667.5 80.5Q661 48 679 29Q698 10 731.0 16.5Q764 23 792 51Q819 78 825.5 111.0Q832 144 813 163Z" fill="#f1b31c" />
<path d="M674.3252563476562 18.125H637.65869140625V-146.875H674.3252563476562Z" fill="#000000" />
<path d="M720 859Q720 898 701.5 925.5Q683 953 657 953Q630 953 611.5 925.5Q593 898 593 859Q593 819 611.5 791.5Q630 764 657 764Q683 764 701.5 791.5Q720 819 720 859Z" fill="#f4aa41" />
<path d="M619 738Q591 766 558.0 772.0Q525 778 507 760Q488 741 494.5 708.0Q501 675 528 648Q556 620 589.0 613.5Q622 607 641 626Q659 645 652.5 677.5Q646 710 619 738Z" fill="#f1b31c" />
<path d="M619 589Q591 616 558.0 622.5Q525 629 507 611Q488 592 494.5 559.0Q501 526 528 499Q556 471 589.0 464.5Q622 458 641 477Q659 495 652.5 528.0Q646 561 619 589Z" fill="#f1b31c" />
<path d="M617.8190307617188 439.41082763671875Q590.2471923828125 466.9874267578125 557.7243041992188 473.353515625Q525.201416015625 479.7196044921875 506.8170166015625 461.33837890625Q487.72552490234375 442.25018310546875 494.08599853515625 409.7261962890625Q500.44647216796875 377.20220947265625 528.018310546875 349.6256103515625Q556.297119140625 321.3419189453125 588.8200073242188 314.975830078125Q621.3428955078125 308.6097412109375 640.4343872070312 327.69793701171875Q658.8187866210938 346.07916259765625 652.4583129882812 378.6031494140625Q646.0978393554688 411.12713623046875 617.8190307617188 439.41082763671875Z" fill="#f1b31c" />
<path d="M619 291Q591 318 558.0 324.5Q525 331 507 313Q488 294 494.5 261.0Q501 228 528 201Q556 173 589.0 166.5Q622 160 641 179Q659 197 652.5 230.0Q646 263 619 291Z" fill="#f1b31c" />
<path d="M619 141Q591 169 558.0 175.5Q525 182 507 163Q488 144 494.5 111.0Q501 78 528 51Q556 23 589.0 16.5Q622 10 641 29Q659 48 652.5 80.5Q646 113 619 141Z" fill="#f1b31c" />
<path d="M813 760Q795 778 762.0 772.0Q729 766 701 738Q674 710 667.5 677.5Q661 645 679 626Q698 607 731.0 613.5Q764 620 792 648Q819 675 825.5 708.0Q832 741 813 760Z" fill="#f1b31c" />
<path d="M813 611Q795 629 762.0 623.0Q729 617 701 589Q674 561 667.5 528.5Q661 496 679 477Q698 458 731.0 464.5Q764 471 792 499Q819 526 825.5 559.0Q832 592 813 611Z" fill="#f1b31c" />
<path d="M813 462Q795 480 762.0 474.0Q729 468 701 440Q674 412 667.5 379.5Q661 347 679 328Q698 309 731.0 315.5Q764 322 792 350Q819 377 825.5 410.0Q832 443 813 462Z" fill="#f1b31c" />
<path d="M813 312Q795 330 762.0 324.0Q729 318 701 290Q674 262 667.5 229.5Q661 197 679 178Q698 159 731.0 165.5Q764 172 792 200Q819 227 825.5 260.0Q832 293 813 312Z" fill="#f1b31c" />
<path d="M813 163Q795 181 762.0 175.0Q729 169 701 141Q674 113 667.5 80.5Q661 48 679 29Q698 10 731.0 16.5Q764 23 792 51Q819 78 825.5 111.0Q832 144 813 163Z" fill="#f1b31c" />
<path d="M720 859Q720 898 701.5 925.5Q683 953 657 953Q630 953 611.5 925.5Q593 898 593 859Q593 819 611.5 791.5Q630 764 657 764Q683 764 701.5 791.5Q720 819 720 859Z" fill="#f1b31c" />
<path d="M619 738Q591 766 558.0 772.0Q525 778 507 760Q488 741 494.5 708.0Q501 675 528 648Q556 620 589.0 613.5Q622 607 641 626Q659 645 652.5 677.5Q646 710 619 738Z" fill="#f1b31c" />
<path d="M619 589Q591 616 558.0 622.5Q525 629 507 611Q488 592 494.5 559.0Q501 526 528 499Q556 471 589.0 464.5Q622 458 641 477Q659 495 652.5 528.0Q646 561 619 589Z" fill="#f1b31c" />
<path d="M617.8190307617188 439.41082763671875Q590.2471923828125 466.9874267578125 557.7243041992188 473.353515625Q525.201416015625 479.7196044921875 506.8170166015625 461.33837890625Q487.72552490234375 442.25018310546875 494.08599853515625 409.7261962890625Q500.44647216796875 377.20220947265625 528.018310546875 349.6256103515625Q556.297119140625 321.3419189453125 588.8200073242188 314.975830078125Q621.3428955078125 308.6097412109375 640.4343872070312 327.69793701171875Q658.8187866210938 346.07916259765625 652.4583129882812 378.6031494140625Q646.0978393554688 411.12713623046875 617.8190307617188 439.41082763671875Z" fill="#f1b31c" />
<path d="M619 291Q591 318 558.0 324.5Q525 331 507 313Q488 294 494.5 261.0Q501 228 528 201Q556 173 589.0 166.5Q622 160 641 179Q659 197 652.5 230.0Q646 263 619 291Z" fill="#f1b31c" />
<path d="M619 141Q591 169 558.0 175.5Q525 182 507 163Q488 144 494.5 111.0Q501 78 528 51Q556 23 589.0 16.5Q622 10 641 29Q659 48 652.5 80.5Q646 113 619 141Z" fill="#f1b31c" />
<path d="M813 760Q795 778 762.0 772.0Q729 766 701 738Q674 710 667.5 677.5Q661 645 679 626Q698 607 731.0 613.5Q764 620 792 648Q819 675 825.5 708.0Q832 741 813 760Z" fill="#f1b31c" />
<path d="M813 611Q795 629 762.0 623.0Q729 617 701 589Q674 561 667.5 528.5Q661 496 679 477Q698 458 731.0 464.5Q764 471 792 499Q819 526 825.5 559.0Q832 592 813 611Z" fill="#f1b31c" />
<path d="M813 462Q795 480 762.0 474.0Q729 468 701 440Q674 412 667.5 379.5Q661 347 679 328Q698 309 731.0 315.5Q764 322 792 350Q819 377 825.5 410.0Q832 443 813 462Z" fill="#f1b31c" />
<path d="M813 312Q795 330 762.0 324.0Q729 318 701 290Q674 262 667.5 229.5Q661 197 679 178Q698 159 731.0 165.5Q764 172 792 200Q819 227 825.5 260.0Q832 293 813 312Z" fill="#f1b31c" />
<path d="M813 163Q795 181 762.0 175.0Q729 169 701 141Q674 113 667.5 80.5Q661 48 679 29Q698 10 731.0 16.5Q764 23 792 51Q819 78 825.5 111.0Q832 144 813 163Z" fill="#f4aa41" />
<path d="M739 859Q739 904 717 936Q693 972 657 972Q620 972 596 936Q574 904 574 859Q574 814 596 782Q620 746 657 746Q693 746 717 782Q739 814 739 859ZM702 859Q702 825 686 802Q673 782 657 782Q640 782 627 802Q611 825 611 859Q611 892 627 915Q640 935 657 935Q668 935 677 930Q702 915 702 859Z" fill="#000000" />
<path d="M632 751Q600 783 562 790Q519 798 494 773Q468 747 476 705Q484 666 515 635Q547 603 585 596Q628 587 653 613Q679 639 671 681Q663 719 632 751ZM606 725Q660 671 628 639Q616 627 592 632Q565 637 541 661Q518 684 512 712Q508 735 520 747Q528 755 538 758Q566 765 606 725Z" fill="#000000" />
<path d="M632 602Q600 633 562 641Q519 649 494 624Q468 598 476 556Q484 517 515 486Q547 454 585 446Q628 438 653 464Q679 489 671 532Q663 570 632 602ZM606 576Q660 522 628 490Q595 458 541 511Q502 551 509 579Q511 589 520 598Q552 630 606 576Z" fill="#000000" />
<path d="M632 452Q600 484 562 492Q519 500 494 474Q468 449 476 406Q484 368 515 336Q547 305 585 297Q628 289 653 315Q679 340 671 382Q663 421 632 452ZM606 427Q660 373 628 340Q616 329 592 333Q565 338 541 362Q518 386 512 413Q508 437 520 448Q552 480 606 427Z" fill="#000000" />
<path d="M632 303Q600 335 562 342Q519 351 494 325Q468 299 476 257Q484 219 515 187Q547 155 585 148Q628 140 653 165Q679 191 671 233Q663 272 632 303ZM606 277Q660 223 628 191Q595 159 541 213Q518 237 512 264Q508 287 520 299Q552 331 606 277Z" fill="#000000" />
<path d="M632 154Q600 186 562 193Q519 201 494 176Q468 150 476 108Q484 69 515 38Q547 6 585 -1Q628 -10 653 16Q679 42 671 84Q663 122 632 154ZM606 128Q630 104 635 77Q639 54 628 42Q595 10 541 64Q487 118 520 150Q552 182 606 128Z" fill="#000000" />
<path d="M826 773Q801 798 758 790Q720 783 688 751Q657 719 649 681Q641 639 667 613Q692 587 735 596Q773 603 805 635Q836 666 844 705Q852 747 826 773ZM800 747Q812 735 808 712Q802 684 779 661Q755 637 728 632Q704 627 692 639Q660 671 714 725Q738 749 765 754Q789 759 800 747Z" fill="#000000" />
<path d="M826 624Q801 649 758 641Q720 633 688 602Q657 570 649 532Q641 489 667 464Q692 438 735 446Q773 454 805 486Q836 517 844 556Q852 598 826 624ZM800 598Q833 565 779 511Q755 488 728 482Q704 478 692 490Q681 501 685 525Q690 552 714 576Q738 600 765 605Q789 609 800 598Z" fill="#000000" />
<path d="M826 474Q801 500 758 492Q720 484 688 452Q657 421 649 382Q641 340 667 315Q692 289 735 297Q773 305 805 336Q836 368 844 406Q852 449 826 474ZM800 448Q833 416 779 362Q755 338 728 333Q704 329 692 340Q660 373 714 427Q738 450 765 456Q789 460 800 448Z" fill="#000000" />
<path d="M826 325Q801 351 758 343Q720 335 688 303Q657 272 649 233Q641 191 667 166Q692 140 735 148Q773 156 805 187Q836 219 844 257Q852 300 826 325ZM800 299Q833 267 779 213Q755 189 728 184Q704 180 692 191Q660 224 714 278Q738 301 765 307Q789 311 800 299Z" fill="#000000" />
<path d="M826 176Q801 201 758 193Q720 186 688 154Q657 122 649 84Q641 42 667 16Q692 -10 735 -1Q773 6 805 38Q836 69 844 108Q852 150 826 176ZM800 150Q833 118 779 64Q755 40 728 35Q704 30 692 42Q660 74 714 128Q738 152 765 157Q789 162 800 150Z" fill="#000000" />
</g></svg>