<svg xmlns="http://www.w3.org/2000/svg" viewBox="0 0 2048 2048">
<g transform="matrix(1 0 0 -1 0 2048)">
<path d="M998 164H997Q990 144 972.5 133.0Q955 122 935 122H393Q373 122 355.5 133.0Q338 144 331 164Q316 201 339 232L613 742L618 747Q636 768 665 768Q692 768 713 747L718 742L989 232Q1003 212 1003 191Q1003 178 998 164Z" fill="#ffffff" />
<path d="M1021 150Q1027 167 1027 183Q1027 210 1012 235L732 759Q731 761 729 763L724 768Q698 795 663 795Q626 795 601 768L596 763Q594 761 593 759L312 235Q283 196 302 149Q324 95 383 95H940Q999 95 1020 148Q1021 149 1021 150ZM989 163Q989 162 988 162Q976 130 940 130H383Q348 130 335 162Q323 192 341 215Q342 216 342 217L623 740L626 744Q627 744 627 744Q641 760 663 760Q684 760 699 744L703 740L981 217Q981 217 982 216Q992 200 992 183Q992 173 989 163Z" fill="#000000" />
<path d="M312 11Q293 11 293 -7Q293 -25 312 -25H1008Q1027 -25 1027 -7Q1027 11 1008 11Z" fill="#000000" />
</g></svg>