<svg xmlns="http://www.w3.org/2000/svg" viewBox="0 0 2048 2048">
<g transform="matrix(1 0 0 -1 0 2048)">
<path d="M541 -37Q523 -37 523 -56Q523 -65 528 -70Q532 -74 541 -74H817Q835 -74 835 -56Q835 -37 817 -37Z" fill="#d0cfce" />
<path d="M636 -38Q617 -38 617 -56Q617 -74 636 -74H683Q702 -74 702 -56Q702 -38 683 -38Z" fill="#ffffff" />
<path d="M370 539V-40H950V539Z" fill="#d0cfce" />
<path d="M621 630Q627 630 632 633Q638 638 639.0 645.5Q640 653 636 659L540 790Q539 792 537 793Q531 798 523.0 797.0Q515 796 510 790L415 659Q411 654 411 648Q411 640 416.5 635.0Q422 630 429 630Z" fill="#61b2e4" />
<path d="M804 630Q813 630 819 637L915 768Q918 773 918 779Q918 787 912.5 792.5Q907 798 900 798H708Q702 798 697 794Q691 790 690.0 782.5Q689 775 693 768L789 637Q795 630 804 630Z" fill="#ea5a47" />
<path d="M370 539V-37H541Q549 -37 554.5 -32.0Q560 -27 560 -19V539Z" fill="#9b9b9a" />
<path d="M760 539V-21Q760 -28 765.5 -33.0Q771 -38 779 -38H950V539Z" fill="#9b9b9a" />
<path d="M694.1070556640625 270.48541259765625Q694.1070556640625 278.05224609375 691.2368774414062 284.7058410644531Q688.36669921875 291.35943603515625 683.3221435546875 296.40399169921875Q678.277587890625 301.44854736328125 671.6239929199219 304.3187255859375Q664.9703979492188 307.18890380859375 657.403564453125 307.18890380859375Q649.8367309570312 307.18890380859375 643.1831359863281 304.3187255859375Q636.529541015625 301.44854736328125 631.4849853515625 296.40399169921875Q626.4404296875 291.35943603515625 623.5702514648438 284.7058410644531Q620.7000732421875 278.05224609375 620.7000732421875 270.48541259765625Q620.7000732421875 262.9185791015625 623.5702514648438 256.2649841308594Q626.4404296875 249.61138916015625 631.4849853515625 244.56683349609375Q636.529541015625 239.52227783203125 643.1831359863281 236.652099609375Q649.8367309570312 233.78192138671875 657.403564453125 233.78192138671875Q664.9703979492188 233.78192138671875 671.6239929199219 236.652099609375Q678.277587890625 239.52227783203125 683.3221435546875 244.56683349609375Q688.36669921875 249.61138916015625 691.2368774414062 256.2649841308594Q694.1070556640625 262.9185791015625 694.1070556640625 270.48541259765625Z" fill="#ffffff" />
<path d="M669 -53H677Q678 -53 683.0 -53.5Q688 -54 688 -54Q696 -53 695.5 -53.0Q695 -53 705 -55L701 45L730 48Q747 51 745 68L737 162Q735 183 719.5 197.0Q704 211 684 210H635Q614 211 598.5 197.0Q583 183 582 162L573 68Q571 51 589 48L619 45L615 -54Q615 -58 615.5 -55.5Q616 -53 624 -51Q634 -52 636.5 -52.5Q639 -53 643 -53Z" fill="#ffffff" />
<path d="M540 768Q551 783 536 794Q528 799 522 798Q516 797 510 790L415 659Q404 644 419 633Q423 630 429 630H621Q639 630 639 648Q639 666 621 666H465Z" fill="#000000" />
<path d="M900 761Q918 761 918 779Q918 798 900 798H708Q690 798 690 779Q690 773 693 768L789 637Q800 622 815 633Q822 639 823 645Q824 652 819 659L744 761Z" fill="#000000" />
<path d="M352 -56Q352 -74 370 -74Q388 -74 388 -56V520H932V-56Q932 -74 950 -74Q968 -74 968 -56V539Q968 557 950 557H370Q352 557 352 539Z" fill="#000000" />
<path d="M615 -55Q614 -73 632 -74Q651 -75 651 -56L656 59Q656 77 638 78Q620 79 619 60Z" fill="#000000" />
<path d="M700.6492309570312 60.40606689453125Q700.2872924804688 78.4288330078125 682.2645263671875 78.06689453125Q663.2446899414062 77.62945556640625 664.67919921875 58.68511962890625L668.3764038085938 -56.35546875Q669.7354125976562 -74.302734375 687.7581787109375 -73.9407958984375Q705.7809448242188 -73.578857421875 705.343505859375 -54.55902099609375Z" fill="#000000" />
<path d="M709 65Q711 47 729 48Q747 50 745 68L737 162Q732 211 684 211H635Q586 211 582 162L573 68Q572 59 576 54Q580 49 589 48Q608 47 609 65L618 159Q619 174 635 174H684Q699 174 700 159Z" fill="#000000" />
<path d="M714 271Q714 295 698 311Q681 327 658 327Q635 327 619 311Q603 295 603 271Q603 216 658 216Q714 216 714 271ZM677 271Q677 252 658 252Q639 252 639 271Q639 290 658 290Q677 290 677 271Z" fill="#000000" />
<path d="M560 470Q560 489 541 489Q523 489 523 470V-37H202Q183 -37 183 -56Q183 -74 202 -74H541Q560 -74 560 -56Z" fill="#000000" />
<path d="M797 470Q797 489 779 489Q760 489 760 470V-56Q760 -74 779 -74H1118Q1137 -74 1137 -56Q1137 -37 1118 -37H797Z" fill="#000000" />
</g></svg>