<svg xmlns="http://www.w3.org/2000/svg" viewBox="0 0 2048 2048">
<g transform="matrix(1 0 0 -1 0 2048)">
<path d="M293 58V665Q317 670 342.0 682.0Q367 694 393.0 704.0Q419 714 446 714Q586 714 694.0 672.0Q802 630 876.0 558.5Q950 487 988.5 398.5Q1027 310 1027 217Q1027 190 1017.5 163.5Q1008 137 998.0 110.5Q988 84 987 58Z" fill="#d0cfce" />
<path d="M275 39H1004L1005 56Q1006 79 1024 126Q1045 185 1045 217Q1045 424 889 572Q720 732 446 732Q410 732 345 704Q307 686 290 683L275 680ZM312 76V651Q331 657 360 670Q417 696 446 696Q705 696 864 545Q1008 408 1008 217Q1008 192 989 139Q975 101 971 76Z" fill="#d0cfce" />
<path d="M293 57V275Q345 277 394.0 290.5Q443 304 498.0 321.0Q553 338 621.5 350.5Q690 363 780 363Q780 363 791.5 321.0Q803 279 819.0 209.5Q835 140 850 57Z" fill="#fcea2b" />
<path d="M275 39H872L868 60Q838 226 798 368L794 381H780Q638 381 457 327Q347 295 293 293H275ZM312 75V258Q369 263 467 292Q634 342 767 345Q801 219 828 75Z" fill="#fcea2b" />
<path d="M1004 56Q1003 38 1021 37Q1039 36 1040 54Q1045 131 1045 216Q1045 423 889 571Q720 732 446 732Q367 732 290 715Q272 712 275 694Q277 685 283 681Q288 678 297 679Q371 695 446 695Q705 695 864 544Q1008 407 1008 216Q1008 132 1004 56Z" fill="#000000" />
<path d="M871 51Q875 33 893 37Q910 41 907 59Q871 231 795 389Q790 400 779 400Q636 400 455 358Q348 333 294 331Q275 330 276 312Q277 293 295 294Q352 296 463 322Q633 361 767 363Q837 213 871 51Z" fill="#000000" />
</g></svg>