<svg xmlns="http://www.w3.org/2000/svg" viewBox="0 0 2048 2048">
<g transform="matrix(1 0 0 -1 0 2048)">
<path d="M238.9122314453125 788.531005859375V-54.853515625H1082.2276611328125V788.531005859375Z" fill="#d0cfce" />
<path d="M788.5623168945312 366.99713134765625Q788.5623168945312 389.56787109375 779.9911499023438 409.5672607421875Q771.4199829101562 429.566650390625 756.277587890625 444.70904541015625Q741.1351928710938 459.8514404296875 721.2786560058594 468.422607421875Q701.422119140625 476.9937744140625 678.565673828125 476.9937744140625Q655.709228515625 476.9937744140625 635.8526916503906 468.422607421875Q615.9961547851562 459.8514404296875 600.853759765625 444.70904541015625Q585.7113647460938 429.566650390625 577.1401977539062 409.5672607421875Q568.5690307617188 389.56787109375 568.5690307617188 366.99713134765625Q568.5690307617188 344.14068603515625 577.1401977539062 324.14129638671875Q585.7113647460938 304.14190673828125 600.853759765625 288.99951171875Q615.9961547851562 273.85711669921875 635.8526916503906 265.4288024902344Q655.709228515625 257.00048828125 678.565673828125 257.00048828125Q701.422119140625 257.00048828125 721.2786560058594 265.4288024902344Q741.1351928710938 273.85711669921875 756.277587890625 288.99951171875Q771.4199829101562 304.14190673828125 779.9911499023438 324.14129638671875Q788.5623168945312 344.14068603515625 788.5623168945312 366.99713134765625Z" fill="#fcea2b" />
<path d="M541.0372314453125 128.6763916015625V-54.7099609375H779.3526611328125V128.6763916015625Z" fill="#92d3f5" />
<path d="M917 404Q917 385 935 385H972Q990 385 990 404V495Q990 514 972 514H935Q917 514 917 495Z" fill="#92d3f5" />
<path d="M917 587Q917 568 935 568H972Q990 568 990 587V678Q990 697 972 697H935Q917 697 917 678Z" fill="#92d3f5" />
<path d="M623 587Q623 568 641 568H678Q696 568 696 587V678Q696 697 678 697H641Q623 697 623 678Z" fill="#92d3f5" />
<path d="M770 587Q770 568 788 568H825Q843 568 843 587V678Q843 697 825 697H788Q770 697 770 678Z" fill="#92d3f5" />
<path d="M477 587Q477 568 495 568H532Q550 568 550 587V678Q550 697 532 697H495Q477 697 477 678Z" fill="#92d3f5" />
<path d="M917 220Q917 201 935 201H972Q990 201 990 220V311Q990 330 972 330H935Q917 330 917 311Z" fill="#92d3f5" />
<path d="M917 37Q917 18 935 18H972Q990 18 990 37V128Q990 147 972 147H935Q917 147 917 128Z" fill="#92d3f5" />
<path d="M330 404Q330 385 348 385H385Q403 385 403 404V495Q403 514 385 514H348Q330 514 330 495Z" fill="#92d3f5" />
<path d="M330 587Q330 568 348 568H385Q403 568 403 587V678Q403 697 385 697H348Q330 697 330 678Z" fill="#92d3f5" />
<path d="M330 220Q330 201 348 201H385Q403 201 403 220V311Q403 330 385 330H348Q330 330 330 311Z" fill="#92d3f5" />
<path d="M330 37Q330 18 348 18H385Q403 18 403 37V128Q403 147 385 147H348Q330 147 330 128Z" fill="#92d3f5" />
<path d="M733.3130493164062 367.00860595703125Q733.3130493164062 378.29638671875 729.0265502929688 388.2982177734375Q724.7400512695312 398.300048828125 717.167236328125 405.87286376953125Q709.5944213867188 413.4456787109375 699.6640319824219 417.732177734375Q689.733642578125 422.0186767578125 678.302978515625 422.0186767578125Q666.872314453125 422.0186767578125 656.9419250488281 417.732177734375Q647.0115356445312 413.4456787109375 639.438720703125 405.87286376953125Q631.8659057617188 398.300048828125 627.5794067382812 388.2982177734375Q623.2929077148438 378.29638671875 623.2929077148438 367.00860595703125Q623.2929077148438 355.57794189453125 627.5794067382812 345.57611083984375Q631.8659057617188 335.57427978515625 639.438720703125 328.00146484375Q647.0115356445312 320.42864990234375 656.9419250488281 316.2135925292969Q666.872314453125 311.99853515625 678.302978515625 311.99853515625Q689.733642578125 311.99853515625 699.6640319824219 316.2135925292969Q709.5944213867188 320.42864990234375 717.167236328125 328.00146484375Q724.7400512695312 335.57427978515625 729.0265502929688 345.57611083984375Q733.3130493164062 355.57794189453125 733.3130493164062 367.00860595703125Z" fill="#d0cfce" />
<path d="M568 413 605 312 587 293 490 334Z" fill="#fcea2b" />
<path d="M862 367 823 403 752 330 788 293Z" fill="#fcea2b" />
<path d="M788 293 752 330Q717 314 678 312Q640 314 605 330L568 293Q616 254 678 257Q740 254 788 293Z" fill="#fcea2b" />
<path d="M220 -55Q220 -73 238 -73H1082Q1100 -73 1100 -55V788Q1100 807 1082 807H238Q220 807 220 788ZM257 770H1063V-37H257Z" fill="#000000" />
<path d="M802 356Q807 361 807 369Q806 416 774 452Q742 487 695 494Q648 500 608 474Q568 449 554 403Q553 397 555 391L582 318Q584 314 587 312Q598 301 608 308Q640 295 674 293Q676 293 678 293Q680 293 683 293Q687 294 691 294Q727 298 759 313Q763 315 765 317ZM751 356Q752 362 752 369Q749 440 678 440Q607 440 605 369Q605 365 605 362L591 398Q615 468 690 458Q765 447 770 375ZM678 330Q677 330 676 330Q641 332 642 368Q643 403 678 403Q714 403 715 368Q716 334 684 330Q682 330 681 330Q679 330 678 330Z" fill="#000000" />
<path d="M523 -55Q523 -73 541 -73H779Q798 -73 798 -55V128Q798 147 779 147H541Q523 147 523 128ZM559 110H761V-37H559Z" fill="#000000" />
<path d="M641.0 -55.0Q641.0 -73.0 660.0 -73.0Q678.0 -73.0 678.0 -55.0V129.0Q678.0 147.0 660.0 147.0Q641.0 147.0 641.0 129.0Z" fill="#000000" />
<path d="M612 312Q621 320 617 331L590 403L586 417Q585 422 581 425Q568 438 555 425L477 347Q474 344 473 341Q466 324 482 317L567 282Q578 277 587 286ZM560 378 578 329 570 320 522 340Z" fill="#000000" />
<path d="M875 354Q875 354 875 354Q888 367 874 380L836 417Q823 429 810 416L775 381Q775 381 775 381L738 343Q726 330 739 317L775 280Q788 267 801 280ZM835 366 788 319 777 330 801 356 823 378Z" fill="#000000" />
<path d="M800 279Q801 280 801 280Q814 293 801 306L765 343Q755 352 743 346Q714 332 682 330H675Q643 333 613 347Q601 352 592 343L555 306Q555 306 554 305Q543 291 557 279Q607 238 671 238H688Q751 239 800 279ZM760 296Q727 275 687 275H671Q630 275 597 296L609 308Q640 296 673 293Q674 293 675 293H682Q682 293 683 293Q717 295 748 308Z" fill="#000000" />
<path d="M385 568Q403 568 403 587Q403 605 385 605H366V678Q366 697 348 697Q330 697 330 678V587Q330 568 348 568Z" fill="#000000" />
<path d="M972 385Q990 385 990 404Q990 422 972 422H953V495Q953 514 935 514Q917 514 917 495V404Q917 385 935 385Z" fill="#000000" />
<path d="M825 568Q843 568 843 587Q843 605 825 605H806V678Q806 697 788 697Q770 697 770 678V587Q770 568 788 568Z" fill="#000000" />
<path d="M972 568Q990 568 990 587Q990 605 972 605H953V678Q953 697 935 697Q917 697 917 678V587Q917 568 935 568Z" fill="#000000" />
<path d="M679 568Q697 568 697 587Q697 605 679 605H660V678Q660 697 642 697Q624 697 624 678V587Q624 568 642 568Z" fill="#000000" />
<path d="M532 568Q550 568 550 587Q550 605 532 605H513V678Q513 697 495 697Q477 697 477 678V587Q477 568 495 568Z" fill="#000000" />
<path d="M385 385Q403 385 403 404Q403 422 385 422H366V495Q366 514 348 514Q330 514 330 495V404Q330 385 348 385Z" fill="#000000" />
<path d="M385 201Q403 201 403 220Q403 238 385 238H366V311Q366 330 348 330Q330 330 330 311V220Q330 201 348 201Z" fill="#000000" />
<path d="M972 201Q990 201 990 220Q990 238 972 238H953V311Q953 330 935 330Q917 330 917 311V220Q917 201 935 201Z" fill="#000000" />
<path d="M972 18Q990 18 990 37Q990 55 972 55H953V128Q953 147 935 147Q917 147 917 128V37Q917 18 935 18Z" fill="#000000" />
<path d="M385 18Q403 18 403 37Q403 55 385 55H366V128Q366 147 348 147Q330 147 330 128V37Q330 18 348 18Z" fill="#000000" />
</g></svg>