<svg xmlns="http://www.w3.org/2000/svg" viewBox="0 0 2048 2048">
<g transform="matrix(1 0 0 -1 0 2048)">
<path d="M563 280Q542 250 508.0 227.0Q474 204 434.0 191.5Q394 179 354 179Q291 179 239.0 210.0Q187 241 156.0 293.0Q125 345 125 408L123 499L89 498V573Q89 573 108.5 588.0Q128 603 162.0 622.5Q196 642 240.5 658.5Q285 675 335.5 679.5Q386 684 437.5 667.5Q489 651 538.5 605.5Q588 560 629 476H684H692H747Q788 560 837.0 605.5Q886 651 938.0 667.5Q990 684 1040.5 679.5Q1091 675 1135.5 658.5Q1180 642 1214.0 622.5Q1248 603 1267.5 588.0Q1287 573 1287 573V498L1253 499L1251 408Q1251 345 1220.0 293.0Q1189 241 1137.0 210.0Q1085 179 1021 179Q982 179 942.0 192.0Q902 205 868.0 227.5Q834 250 813 280Q803 295 789.0 302.5Q775 310 763.5 320.0Q752 330 747 354Q740 390 730.0 403.5Q720 417 709.5 418.5Q699 420 689 419Z" fill="#9b9b9a" />
<path d="M686 437 692 401Q718 405 729 350Q737 314 775 289Q792 278 798 270Q875 161 1021 161Q1124 161 1197 233Q1269 306 1269 408L1271 480L1287 479Q1296 479 1301 483Q1305 488 1306 497Q1306 497 1306 498V573Q1306 582 1299 587Q1209 664 1094 690Q862 742 736 494H640Q514 742 282 690Q167 664 77 587Q70 582 70 573V498Q70 479 89 479Q89 479 89 479L105 480L107 408Q107 306 179 233Q252 161 354 161Q504 161 578 270L548 291Q485 198 354 198Q267 198 205 259Q144 321 144 409L142 499Q141 517 123 517L107 516V565Q188 631 290 654Q498 701 613 468Q618 457 629 457H747Q758 457 763 468Q878 701 1086 654Q1188 631 1269 565V516L1253 517Q1244 517 1239 513Q1234 508 1234 499L1232 408Q1232 321 1171 259Q1109 198 1021 198Q894 198 828 291Q818 305 794 320Q769 336 765 357Q748 446 686 437Z" fill="#9b9b9a" />
<path d="M1021 179Q982 179 942.0 192.0Q902 205 868.0 227.5Q834 250 813 280Q803 295 789.0 302.5Q775 310 763.5 320.0Q752 330 747 354Q740 390 730.0 403.5Q720 417 709.5 418.5Q699 420 689 419Z" fill="#9b9b9a" />
<path d="M686 437 692 401Q718 405 729 350Q737 314 775 289Q792 278 798 270Q875 161 1021 161V198Q894 198 828 291Q818 305 794 320Q769 336 765 357Q748 446 686 437Z" fill="#9b9b9a" />
<path d="M360 185Q400 185 440.0 198.0Q480 211 514.0 233.5Q548 256 569 286Q579 301 590.0 308.0Q601 315 612.0 323.5Q623 332 636 353Q638 356 633.0 365.5Q628 375 623.5 387.0Q619 399 621.5 410.0Q624 421 640.0 425.5Q656 430 693 425Z" fill="#9b9b9a" />
<path d="M690 407 696 443Q619 454 605 418Q597 397 615 360Q616 358 616 356Q605 340 587 328Q565 313 554 297Q488 203 360 203V167Q507 167 584 276Q591 286 608 298Q636 317 652 343Q658 354 648 376Q637 399 639 405Q642 414 690 407Z" fill="#9b9b9a" />
<path d="M538 430Q538 477 515.0 518.5Q492 560 451 583Q410 607 362.5 607.0Q315 607 274 583Q233 560 209.5 518.5Q186 477 187 430Q186 382 209.5 341.0Q233 300 274 276Q315 252 362.5 252.0Q410 252 451 276Q492 300 515.0 341.0Q538 382 538 430Z" fill="#d0cfce" />
<path d="M1189 430Q1189 477 1166.0 518.5Q1143 560 1102 583Q1061 607 1013.5 607.0Q966 607 925 583Q884 560 860.5 518.5Q837 477 838 430Q837 382 860.5 341.0Q884 300 925 276Q966 252 1013.5 252.0Q1061 252 1102 276Q1143 300 1166.0 341.0Q1189 382 1189 430Z" fill="#d0cfce" />
<path d="M578 270Q583 278 582 284Q581 290 573 295Q558 306 548 291Q485 198 354 198Q267 198 205 259Q144 321 144 408L142 499Q141 508 137 513Q132 517 123 517L107 516V565Q188 631 290 654Q498 701 613 468Q618 457 629 457H747Q758 457 763 468Q878 701 1086 654Q1188 631 1269 565V516L1253 517Q1244 517 1239 513Q1235 508 1234 499L1232 409Q1232 321 1171 259Q1109 198 1021 198Q891 198 828 291Q818 306 803 295Q788 285 798 270Q872 161 1021 161Q1124 161 1197 233Q1269 306 1269 408L1271 480L1287 479Q1287 479 1287 479Q1306 479 1306 498V573Q1306 582 1299 587Q1209 664 1094 690Q862 742 736 494H640Q514 742 282 690Q167 664 77 587Q70 582 70 573V498Q70 497 70 497Q71 479 89 479L105 480L107 408Q107 306 179 233Q252 161 354 161Q504 161 578 270Z" fill="#000000" />
<path d="M619 354Q619 335 637 335Q656 335 656 354Q656 390 692 390Q729 390 729 354Q729 335 747 335Q766 335 766 354Q766 427 692 427Q619 427 619 354Z" fill="#000000" />
<path d="M555 430Q555 510 499 566Q442 622 362 622Q283 622 226 566Q170 510 170 430Q170 350 226 294Q283 237 362 237Q442 237 499 294Q555 350 555 430ZM521 430Q521 364 475 318Q428 271 362 271Q297 271 250 318Q204 364 204 430Q204 496 250 542Q297 588 362 588Q428 588 475 542Q521 496 521 430Z" fill="#000000" />
<path d="M1206 430Q1206 510 1150 566Q1093 622 1013 622Q934 622 877 566Q821 510 821 430Q821 350 877 294Q934 237 1013 237Q1093 237 1150 294Q1206 350 1206 430ZM1172 430Q1172 364 1126 318Q1079 271 1013 271Q948 271 901 318Q855 364 855 430Q855 496 901 542Q948 588 1013 588Q1079 588 1126 542Q1172 496 1172 430Z" fill="#000000" />
</g></svg>