<svg xmlns="http://www.w3.org/2000/svg" viewBox="0 0 2048 2048">
<g transform="matrix(1 0 0 -1 0 2048)">
<path d="M1100.0865478515625 384.75445556640625Q1100.0865478515625 475.54052734375 1065.6504516601562 555.3696594238281Q1031.21435546875 635.1987915039062 970.6903076171875 695.7228393554688Q910.166259765625 756.2468872070312 830.3371276855469 790.6829833984375Q750.5079956054688 825.1190795898438 659.721923828125 825.1190795898438Q568.9358520507812 825.1190795898438 489.1067199707031 790.6829833984375Q409.277587890625 756.2468872070312 348.7535400390625 695.7228393554688Q288.2294921875 635.1987915039062 253.79339599609375 555.3696594238281Q219.3572998046875 475.54052734375 219.3572998046875 384.75445556640625Q219.3572998046875 293.9683837890625 253.79339599609375 214.13925170898438Q288.2294921875 134.31011962890625 348.7535400390625 73.78607177734375Q409.277587890625 13.26202392578125 489.1067199707031 -21.174072265625Q568.9358520507812 -55.61016845703125 659.721923828125 -55.61016845703125Q750.5079956054688 -55.61016845703125 830.3371276855469 -21.174072265625Q910.166259765625 13.26202392578125 970.6903076171875 73.78607177734375Q1031.21435546875 134.31011962890625 1065.6504516601562 214.13925170898438Q1100.0865478515625 293.9683837890625 1100.0865478515625 384.75445556640625Z" fill="#fcea2b" />
<path d="M825 122Q825 122 837.0 104.5Q849 87 869.5 64.5Q890 42 915.0 24.5Q940 7 966 7Q1003 7 1023.5 31.5Q1044 56 1044 90Q1044 113 1026.5 137.5Q1009 162 986.0 183.0Q963 204 945.0 217.0Q927 230 927 230Z" fill="#ea5a47" />
<path d="M1033 230Q1026 214 1043 206Q1060 199 1067 216Q1100 297 1100 385Q1100 567 971 696Q842 825 660 825Q478 825 349 696Q220 567 220 385Q220 203 349 74Q478 -55 660 -55Q755 -55 841 -16Q858 -9 850 8Q843 25 826 17Q747 -18 660 -18Q493 -18 375 100Q257 218 257 385Q257 552 375 670Q493 788 660 788Q827 788 945 670Q1063 552 1063 385Q1063 304 1033 230Z" fill="#000000" />
<path d="M564 425Q572 408 589 416Q605 423 598 440Q580 480 540 495Q499 511 459 493Q422 477 406 440Q402 432 405 426Q407 420 415 416Q432 408 439 425Q450 449 474 460Q500 471 526 461Q553 451 564 425Z" fill="#000000" />
<path d="M881 425Q888 408 905 416Q922 423 914 440Q896 480 856 495Q815 511 776 493Q739 477 722 440Q715 423 732 416Q748 408 756 425Q766 449 790 460Q816 471 843 461Q869 451 881 425Z" fill="#000000" />
<path d="M937 245 917 214Q1026 143 1026 90Q1026 62 1010 44Q994 26 966 26Q908 26 840 132L810 112Q888 -11 966 -11Q1010 -11 1037 19Q1063 48 1063 90Q1063 162 937 245Z" fill="#000000" />
<path d="M387 293Q381 310 364 304Q346 298 352 281Q385 183 469 123Q554 60 660 60Q766 60 851 123Q935 183 968 281Q974 298 956 304Q939 310 933 293Q904 206 830 152Q754 97 660 97Q566 97 490 152Q416 206 387 293Z" fill="#000000" />
</g></svg>