<svg xmlns="http://www.w3.org/2000/svg" viewBox="0 0 2048 2048">
<g transform="matrix(1 0 0 -1 0 2048)">
<path d="M660 807Q747 807 823.5 774.0Q900 741 958.0 683.0Q1016 625 1049.0 548.5Q1082 472 1082 385Q1082 298 1049.0 221.5Q1016 145 958.0 87.0Q900 29 823.5 -4.0Q747 -37 660 -37Q573 -37 496.5 -4.0Q420 29 362.0 87.0Q304 145 271.0 221.5Q238 298 238 385Q238 472 271.0 548.5Q304 625 362.0 683.0Q420 741 496.5 774.0Q573 807 660 807Z" fill="#fcea2b" />
<path d="M564 187Q534 202 510.5 225.5Q487 249 474 278H478Q503 266 550.0 258.5Q597 251 653 250Q713 249 766.0 257.0Q819 265 846 278Q822 222 764 191Z" fill="#ffffff" />
<path d="M555 260Q555 204 569.0 158.5Q583 113 606.5 85.5Q630 58 659 58Q687 58 710.5 85.5Q734 113 748.0 158.5Q762 204 762 260Z" fill="#ea5a47" />
<path d="M1100 385Q1100 567 971 696Q842 825 660 825Q478 825 349 696Q220 567 220 385Q220 203 349 74Q478 -55 660 -55Q842 -55 971 74Q1100 203 1100 385ZM1063 385Q1063 218 945 100Q827 -18 660 -18Q493 -18 375 100Q257 218 257 385Q257 552 375 670Q493 788 660 788Q827 788 945 670Q1063 552 1063 385Z" fill="#000000" />
<path d="M449 566Q433 575 424 559Q415 543 431 534L495 497L531 477L495 456L431 419Q415 410 424 394Q429 386 435 385Q441 383 449 387L577 461Q582 463 584 468Q593 483 577 493Z" fill="#000000" />
<path d="M889 534Q897 539 899 545Q900 551 896 559Q887 575 871 566L743 493Q735 488 733 482Q731 476 736 468Q738 463 743 461L807 424L871 387Q887 378 896 394Q905 410 889 419L825 456L789 477Z" fill="#000000" />
<path d="M556 171Q572 163 580 179Q588 196 572 204Q538 220 515 246Q569 233 652 232Q744 231 803 244Q784 222 755 207Q739 198 748 182Q756 166 773 175Q834 208 861 266Q866 272 865 279Q866 287 859 292Q854 298 846 297Q839 298 834 293Q777 267 653 268Q536 270 486 295Q479 298 474 297Q470 297 466 295Q458 292 456 285Q453 279 457 271Q485 205 556 171Z" fill="#000000" />
<path d="M782 260H745Q745 181 717 126Q692 77 660 77Q628 77 603 126Q575 181 575 260H538Q538 172 570 109Q606 40 660 40Q714 40 750 109Q782 172 782 260Z" fill="#000000" />
</g></svg>