<svg xmlns="http://www.w3.org/2000/svg" viewBox="0 0 2048 2048">
<g transform="matrix(1 0 0 -1 0 2048)">
<path d="M660 821Q750 820 829.0 786.5Q908 753 968.0 693.0Q1028 633 1061.5 554.0Q1095 475 1096 385Q1096 295 1062.0 216.0Q1028 137 968.0 77.0Q908 17 829.0 -17.0Q750 -51 660 -51Q570 -51 491.0 -17.0Q412 17 352.0 77.0Q292 137 258.0 216.0Q224 295 224 385Q224 475 258.0 554.0Q292 633 352.0 693.0Q412 753 491.0 787.0Q570 821 660 821Z" fill="#fcea2b" />
<path d="M568 227Q538 209 523.0 179.0Q508 149 499.0 115.0Q490 81 477.5 48.5Q465 16 440 -7L535 -102Q551 -73 582.5 -58.5Q614 -44 651.5 -33.5Q689 -23 726.5 -8.5Q764 6 792 35Q799 44 800.5 57.0Q802 70 803.0 81.5Q804 93 810 97Q821 121 820.5 133.0Q820 145 815.0 148.5Q810 152 810 152Q825 167 815.0 178.5Q805 190 783.0 198.0Q761 206 738.0 210.0Q715 214 704 215Q646 168 578 141Q577 151 581.0 168.5Q585 186 584.0 203.0Q583 220 568 227Z" fill="#fcea2b" />
<path d="M393 35Q408 24 419 38Q430 53 416 64Q306 147 271 280Q235 413 288 540Q340 666 460 735Q579 803 715 784Q851 766 947 668Q1044 570 1060 434Q1077 297 1007 179Q937 61 809 10Q792 3 799 -14Q806 -31 823 -24Q962 32 1038 160Q1115 289 1097 438Q1079 587 973 694Q868 800 720 821Q571 841 441 767Q311 692 254 554Q196 415 235 271Q274 126 393 35Z" fill="#000000" />
<path d="M393.536376953125 532.2454833984375Q378.927490234375 521.001953125 390.1710205078125 506.39306640625Q402.59783935546875 492.55804443359375 416.2281494140625 504.00628662109375Q449.60992431640625 531.7506713867188 494.10028076171875 529.5933837890625Q530.3526000976562 527.1166381835938 558.1869506835938 503.9300537109375Q572.0017700195312 491.84747314453125 584.2890625 506.640869140625Q595.39306640625 520.660400390625 581.37353515625 531.764404296875Q544.0031127929688 563.0742797851562 495.59844970703125 566.0504150390625Q437.9771728515625 568.9118041992188 393.536376953125 532.2454833984375Z" fill="#000000" />
<path d="M738.9051513671875 532.109375Q732.355712890625 527.0982666015625 731.0655517578125 520.003173828125Q730.6932983398438 513.3049926757812 736.622314453125 507.1524658203125Q748.3562622070312 492.61468505859375 762.89404296875 504.3486328125Q796.6832275390625 532.0338134765625 840.02294921875 530.0731201171875Q875.74658203125 528.0877685546875 903.5311889648438 504.14739990234375Q918.1429443359375 493.0330810546875 929.6541748046875 506.7269287109375Q935.4097900390625 513.5738525390625 934.8641357421875 519.8751220703125Q934.3184814453125 526.1763916015625 927.4715576171875 531.9320068359375Q889.8134765625 563.587890625 841.6113891601562 566.7146606445312Q783.9573974609375 569.02294921875 738.9051513671875 532.109375Z" fill="#000000" />
<path d="M550 403Q550 426 534.0 442.0Q518 458 495 458Q472 458 456.0 442.0Q440 426 440 403Q440 381 456.0 364.5Q472 348 495 348Q518 348 534.0 364.5Q550 381 550 403Z" fill="#000000" />
<path d="M880 403Q880 426 864.0 442.0Q848 458 825 458Q802 458 786.0 442.0Q770 426 770 403Q770 381 786.0 364.5Q802 348 825 348Q848 348 864.0 364.5Q880 381 880 403Z" fill="#000000" />
<path d="M530 -75Q517 -88 530 -101Q543 -114 556 -101L585 -72Q762 -28 801 35Q822 60 808 84Q827 96 833 119Q838 141 826 161Q825 164 824 166Q831 189 814 211Q814 211 813 212Q787 243 750 226Q737 242 716 245Q696 248 679 237Q676 235 673 232Q672 231 671 230Q637 203 599 181Q601 193 602 204Q604 228 596 242Q582 265 554 256Q538 251 520 215Q517 210 516 208Q482 158 462 53Q462 51 462 49Q462 43 446 29Q438 22 434 18Q421 6 434 -7Q441 -14 447 -14Q454 -14 460 -7Q463 -5 469 1Q498 25 499 48Q517 145 547 188Q547 188 547 189Q549 191 553 199Q564 221 565 221L564 223Q566 219 566 206Q564 179 553 152Q550 144 554 137Q558 129 564 126Q570 124 578 128Q642 159 697 204Q698 205 699 206Q705 210 711 209Q718 208 722 202Q723 201 724 200Q724 194 728 189Q733 182 740 181Q746 180 753 185Q775 201 785 188Q791 180 786 171Q785 171 785 170Q781 162 783 156Q784 149 793 145Q794 145 794 144Q794 143 795 143Q799 135 797 127Q795 119 788 115Q785 113 781 110Q775 106 772 104Q763 98 763 88Q763 75 772 71Q772 71 772 71Q778 65 773 58Q772 57 771 55Q740 3 571 -37Q566 -38 563 -42Z" fill="#000000" />
</g></svg>