<svg xmlns="http://www.w3.org/2000/svg" viewBox="0 0 2048 2048">
<g transform="matrix(1 0 0 -1 0 2048)">
<path d="M1088 371Q1088 458 1055.0 534.5Q1022 611 964.0 669.0Q906 727 830.0 760.0Q754 793 666 793Q579 793 502.5 760.0Q426 727 368.0 669.0Q310 611 277.5 534.5Q245 458 245 371Q245 284 277.5 207.5Q310 131 368.0 73.0Q426 15 502.5 -18.0Q579 -51 666 -51Q754 -51 830.0 -18.0Q906 15 964.0 73.0Q1022 131 1055.0 207.5Q1088 284 1088 371Z" fill="#fcea2b" />
<path d="M1106 371Q1106 553 977 682Q848 811 666 811Q484 811 355 682Q226 553 226 371Q226 189 355 60Q484 -69 666 -69Q848 -69 977 60Q1106 189 1106 371ZM1069 371Q1069 204 951 86Q833 -32 666 -32Q499 -32 381 86Q263 204 263 371Q263 538 381 656Q499 774 666 774Q833 774 951 656Q1069 538 1069 371Z" fill="#000000" />
<path d="M556 462Q556 485 540.0 501.0Q524 517 501 517Q478 517 462.0 501.0Q446 485 446 462Q446 440 462.0 423.5Q478 407 501 407Q524 407 540.0 423.5Q556 440 556 462Z" fill="#000000" />
<path d="M886 462Q886 485 870.0 501.0Q854 517 831 517Q808 517 792.0 501.0Q776 485 776 462Q776 440 792.0 423.5Q808 407 831 407Q854 407 870.0 423.5Q886 440 886 462Z" fill="#000000" />
<path d="M468 181Q460 177 458 171Q456 165 460 157Q468 140 485 149Q596 204 740 218Q811 225 860 221Q878 219 880 237Q882 256 863 257Q811 262 736 255Q586 240 468 181Z" fill="#000000" />
</g></svg>