<svg xmlns="http://www.w3.org/2000/svg" viewBox="0 0 2048 2048">
<g transform="matrix(1 0 0 -1 0 2048)">
<path d="M660 807Q747 807 823.5 774.0Q900 741 958.0 683.0Q1016 625 1049.0 548.5Q1082 472 1082 385Q1082 298 1049.0 221.5Q1016 145 958.0 87.0Q900 29 823.5 -4.0Q747 -37 660 -37Q573 -37 496.5 -4.0Q420 29 362.0 87.0Q304 145 271.0 221.5Q238 298 238 385Q238 472 271.0 548.5Q304 625 362.0 683.0Q420 741 496.5 774.0Q573 807 660 807Z" fill="#fcea2b" />
<path d="M564 205Q534 220 510.5 243.5Q487 267 474 296H478Q503 284 550.0 276.5Q597 269 653 268Q713 267 766.0 275.0Q819 283 846 296Q822 240 764 209Z" fill="#ffffff" />
<path d="M555 278Q555 222 569.0 176.5Q583 131 606.5 103.5Q630 76 659 76Q687 76 710.5 103.5Q734 131 748.0 176.5Q762 222 762 278Z" fill="#ea5a47" />
<path d="M1100 385Q1100 567 971 696Q842 825 660 825Q478 825 349 696Q220 567 220 385Q220 203 349 74Q478 -55 660 -55Q842 -55 971 74Q1100 203 1100 385ZM1063 385Q1063 218 945 100Q827 -18 660 -18Q493 -18 375 100Q257 218 257 385Q257 552 375 670Q493 788 660 788Q827 788 945 670Q1063 552 1063 385Z" fill="#000000" />
<path d="M722 477Q715 472 714 465Q714 459 719 452Q731 438 745 449Q779 478 822 475Q859 473 887 449Q901 438 913 452Q924 466 910 477Q873 509 825 512Q767 515 722 477Z" fill="#000000" />
<path d="M556 189Q572 181 580 197Q588 214 572 222Q538 238 515 264Q569 251 652 250Q744 249 803 262Q784 240 755 225Q739 216 748 200Q756 184 773 193Q834 226 861 284Q866 290 865 297Q866 305 859 310Q854 316 846 315Q839 316 834 311Q777 285 653 286Q536 288 486 313Q479 316 474 315Q470 315 466 313Q458 310 456 303Q453 297 457 289Q485 223 556 189Z" fill="#000000" />
<path d="M782 278H745Q745 199 717 144Q692 95 660 95Q628 95 603 144Q575 199 575 278H538Q538 190 570 127Q606 58 660 58Q714 58 750 127Q782 190 782 278Z" fill="#000000" />
<path d="M550.10888671875 477.170654296875Q550.10888671875 500.26025390625 533.9461669921875 516.4229736328125Q517.783447265625 532.585693359375 494.69384765625 532.585693359375Q471.604248046875 532.585693359375 455.4415283203125 516.4229736328125Q439.27880859375 500.26025390625 439.27880859375 477.170654296875Q439.27880859375 454.0810546875 455.4415283203125 437.9183349609375Q471.604248046875 421.755615234375 494.69384765625 421.755615234375Q517.783447265625 421.755615234375 533.9461669921875 437.9183349609375Q550.10888671875 454.0810546875 550.10888671875 477.170654296875Z" fill="#000000" />
</g></svg>