<svg xmlns="http://www.w3.org/2000/svg" viewBox="0 0 2048 2048">
<g transform="matrix(1 0 0 -1 0 2048)">
<path d="M1100.0865478515625 384.75445556640625Q1100.0865478515625 475.54052734375 1065.6504516601562 555.3696594238281Q1031.21435546875 635.1987915039062 970.6903076171875 695.7228393554688Q910.166259765625 756.2468872070312 830.3371276855469 790.6829833984375Q750.5079956054688 825.1190795898438 659.721923828125 825.1190795898438Q568.9358520507812 825.1190795898438 489.1067199707031 790.6829833984375Q409.277587890625 756.2468872070312 348.7535400390625 695.7228393554688Q288.2294921875 635.1987915039062 253.79339599609375 555.3696594238281Q219.3572998046875 475.54052734375 219.3572998046875 384.75445556640625Q219.3572998046875 293.9683837890625 253.79339599609375 214.13925170898438Q288.2294921875 134.31011962890625 348.7535400390625 73.78607177734375Q409.277587890625 13.26202392578125 489.1067199707031 -21.174072265625Q568.9358520507812 -55.61016845703125 659.721923828125 -55.61016845703125Q750.5079956054688 -55.61016845703125 830.3371276855469 -21.174072265625Q910.166259765625 13.26202392578125 970.6903076171875 73.78607177734375Q1031.21435546875 134.31011962890625 1065.6504516601562 214.13925170898438Q1100.0865478515625 293.9683837890625 1100.0865478515625 384.75445556640625Z" fill="#fcea2b" />
<path d="M972 230Q1012 218 1018 177Q1019 173 1022 172Q1026 171 1028 174Q1056 204 1096 193Q1122 185 1135.5 160.5Q1149 136 1141 110Q1134 89 1117 76L960 -35L891 143L889 149Q884 167 889 185Q897 211 921.5 224.5Q946 238 972 230Z" fill="#d22f27" />
<path d="M359.84881591796875 499.12615966796875Q355.45867919921875 481.78875732421875 372.79608154296875 477.39862060546875Q390.347412109375 472.0318603515625 395.500244140625 490.559814453125Q405.043212890625 526.4251708984375 436.4439697265625 546.6087646484375Q437.42059326171875 546.8226928710938 438.18328857421875 548.0132446289062Q466.989013671875 570.6988525390625 505.26336669921875 568.8479614257812Q522.9356079101562 567.6016235351562 523.968017578125 586.25048828125Q525.21435546875 603.9227294921875 507.5421142578125 605.1690673828125Q455.7159423828125 608.1453857421875 415.4976806640625 576.8189697265625Q373.44708251953125 549.1851196289062 359.84881591796875 499.12615966796875Z" fill="#000000" />
<path d="M923 462Q936 449 949 463Q962 476 949 488Q869 568 771 513Q755 504 763 488Q772 472 788 481Q863 522 923 462Z" fill="#000000" />
<path d="M853 372Q869 362 878 378Q888 394 872 403Q839 422 810 423Q781 423 744 407Q727 400 734 383Q742 366 759 374Q788 387 809 386Q829 386 853 372Z" fill="#000000" />
<path d="M1052 291Q1048 273 1066 269Q1084 265 1088 282Q1100 333 1100 385Q1100 567 971 696Q842 825 660 825Q478 825 349 696Q220 567 220 385Q220 203 349 74Q478 -55 660 -55Q762 -55 853 -10Q870 -2 862 14Q853 31 837 22Q754 -18 660 -18Q493 -18 375 100Q257 218 257 385Q257 552 375 670Q493 788 660 788Q827 788 945 670Q1063 552 1063 385Q1063 337 1052 291Z" fill="#000000" />
<path d="M569.0615234375 398.19287109375Q569.0615234375 409.53515625 564.75927734375 419.508544921875Q560.45703125 429.48193359375 552.8955078125 437.04345703125Q545.333984375 444.60498046875 535.360595703125 448.9072265625Q525.38720703125 453.20947265625 514.044921875 453.20947265625Q502.70263671875 453.20947265625 492.729248046875 448.9072265625Q482.755859375 444.60498046875 475.1943359375 437.04345703125Q467.6328125 429.48193359375 463.33056640625 419.508544921875Q459.0283203125 409.53515625 459.0283203125 398.19287109375Q459.0283203125 386.8505859375 463.33056640625 376.877197265625Q467.6328125 366.90380859375 475.1943359375 359.34228515625Q482.755859375 351.78076171875 492.729248046875 347.478515625Q502.70263671875 343.17626953125 514.044921875 343.17626953125Q525.38720703125 343.17626953125 535.360595703125 347.478515625Q545.333984375 351.78076171875 552.8955078125 359.34228515625Q560.45703125 366.90380859375 564.75927734375 376.877197265625Q569.0615234375 386.8505859375 569.0615234375 398.19287109375Z" fill="#000000" />
<path d="M673 309Q655 315 650 297Q645 279 662 274Q707 261 728 243Q736 237 735 235Q724 221 664 208Q646 203 650 186Q652 175 663 172Q707 159 728 143Q732 141 733 139Q720 128 664 118Q646 114 650 96Q653 78 671 82Q743 95 762 116Q776 132 769 150Q765 162 751 172Q740 181 725 188Q753 199 763 213Q786 242 752 271Q725 293 673 309Z" fill="#000000" />
<path d="M977 247Q944 257 913 241Q882 224 872 190Q865 168 871 145Q871 144 871 144L873 137Q874 137 874 136L943 -42Q950 -59 967 -52Q969 -51 971 -50L1128 61Q1128 62 1128 62Q1150 78 1158 105Q1168 138 1152 169Q1135 200 1101 210Q1062 222 1031 200Q1017 235 977 247ZM967 212Q995 204 1000 174Q1003 159 1017 154Q1032 150 1042 161Q1062 184 1091 175Q1110 169 1119 152Q1129 134 1123 115Q1119 100 1106 91L969 -7L908 149L906 154Q903 167 907 180Q921 226 967 212Z" fill="#000000" />
</g></svg>