<svg xmlns="http://www.w3.org/2000/svg" viewBox="0 0 2048 2048">
<g transform="matrix(1 0 0 -1 0 2048)">
<path d="M1082 385Q1082 472 1049.0 548.5Q1016 625 958.0 683.0Q900 741 823.5 774.0Q747 807 660 807Q573 807 496.5 774.0Q420 741 362.0 683.0Q304 625 271.0 548.5Q238 472 238 385Q238 298 271.0 221.5Q304 145 362.0 87.0Q420 29 496.5 -4.0Q573 -37 660 -37Q747 -37 823.5 -4.0Q900 29 958.0 87.0Q1016 145 1049.0 221.5Q1082 298 1082 385Z" fill="#fcea2b" />
<path d="M962.765380859375 458.7982177734375Q962.765380859375 483.3837890625 953.4398193359375 505.00213623046875Q944.1142578125 526.6204833984375 927.723876953125 543.0108642578125Q911.33349609375 559.4012451171875 889.7151489257812 568.726806640625Q868.0968017578125 578.0523681640625 843.51123046875 578.0523681640625Q818.9256591796875 578.0523681640625 797.3073120117188 568.726806640625Q775.68896484375 559.4012451171875 759.298583984375 543.0108642578125Q742.908203125 526.6204833984375 733.5826416015625 505.00213623046875Q724.257080078125 483.3837890625 724.257080078125 458.7982177734375Q724.257080078125 434.212646484375 733.5826416015625 412.59429931640625Q742.908203125 390.9759521484375 759.298583984375 374.5855712890625Q775.68896484375 358.1951904296875 797.3073120117188 348.86962890625Q818.9256591796875 339.5440673828125 843.51123046875 339.5440673828125Q868.0968017578125 339.5440673828125 889.7151489257812 348.86962890625Q911.33349609375 358.1951904296875 927.723876953125 374.5855712890625Q944.1142578125 390.9759521484375 953.4398193359375 412.59429931640625Q962.765380859375 434.212646484375 962.765380859375 458.7982177734375Z" fill="#ffffff" />
<path d="M595.765380859375 458.7982177734375Q595.765380859375 483.3837890625 586.4398193359375 505.00213623046875Q577.1142578125 526.6204833984375 560.723876953125 543.0108642578125Q544.33349609375 559.4012451171875 522.7151489257812 568.726806640625Q501.0968017578125 578.0523681640625 476.51123046875 578.0523681640625Q451.9256591796875 578.0523681640625 430.30731201171875 568.726806640625Q408.68896484375 559.4012451171875 392.298583984375 543.0108642578125Q375.908203125 526.6204833984375 366.5826416015625 505.00213623046875Q357.257080078125 483.3837890625 357.257080078125 458.7982177734375Q357.257080078125 434.212646484375 366.5826416015625 412.59429931640625Q375.908203125 390.9759521484375 392.298583984375 374.5855712890625Q408.68896484375 358.1951904296875 430.30731201171875 348.86962890625Q451.9256591796875 339.5440673828125 476.51123046875 339.5440673828125Q501.0968017578125 339.5440673828125 522.7151489257812 348.86962890625Q544.33349609375 358.1951904296875 560.723876953125 374.5855712890625Q577.1142578125 390.9759521484375 586.4398193359375 412.59429931640625Q595.765380859375 434.212646484375 595.765380859375 458.7982177734375Z" fill="#ffffff" />
<path d="M890.8963012695312 531.5555419921875Q890.8709106445312 559.1258544921875 867.5957641601562 572.8895874023438Q843.4590454101562 586.6525268554688 820.2092895507812 572.845947265625Q796.0979614257812 559.03857421875 796.9849243164062 531.4690551757812Q796.1487426757812 503.89794921875 820.2854614257812 490.135009765625Q843.5606079101562 476.37127685546875 867.6719360351562 490.17864990234375Q890.9216918945312 503.9852294921875 890.8963012695312 531.5555419921875Z" fill="#000000" />
<path d="M524.8963012695312 531.5555419921875Q524.8709106445312 559.1258544921875 501.59576416015625 572.8895874023438Q477.45904541015625 586.6525268554688 454.20928955078125 572.845947265625Q430.09796142578125 559.03857421875 430.98492431640625 531.4690551757812Q430.14874267578125 503.89794921875 454.28546142578125 490.135009765625Q477.56060791015625 476.37127685546875 501.67193603515625 490.17864990234375Q524.9216918945312 503.9852294921875 524.8963012695312 531.5555419921875Z" fill="#000000" />
<path d="M1100 385Q1100 567 971 696Q842 825 660 825Q478 825 349 696Q220 567 220 385Q220 203 349 74Q478 -55 660 -55Q842 -55 971 74Q1100 203 1100 385ZM1063 385Q1063 218 945 100Q827 -18 660 -18Q493 -18 375 100Q257 218 257 385Q257 552 375 670Q493 788 660 788Q827 788 945 670Q1063 552 1063 385Z" fill="#000000" />
<path d="M981 458Q981 515 941 556Q900 596 843 596Q786 596 746 556Q706 515 706 458Q706 401 746 361Q786 321 843 321Q900 321 941 361Q981 401 981 458ZM944 458Q944 417 915 387Q885 358 843 358Q802 358 772 387Q743 417 743 458Q743 500 772 530Q802 559 843 559Q885 559 915 530Q944 500 944 458Z" fill="#000000" />
<path d="M614 458Q614 515 574 556Q533 596 476 596Q419 596 379 556Q339 515 339 458Q339 401 379 361Q419 321 476 321Q533 321 574 361Q614 401 614 458ZM577 458Q577 417 548 387Q518 358 476 358Q435 358 405 387Q376 417 376 458Q376 500 405 530Q435 559 476 559Q518 559 548 530Q577 500 577 458Z" fill="#000000" />
<path d="M568 156Q550 156 550 138Q550 119 568 119H752Q770 119 770 138Q770 156 752 156Z" fill="#000000" />
</g></svg>