<svg xmlns="http://www.w3.org/2000/svg" viewBox="0 0 2048 2048">
<g transform="matrix(1 0 0 -1 0 2048)">
<path d="M665 825Q755 825 834.0 791.0Q913 757 972.5 696.5Q1032 636 1066.0 556.5Q1100 477 1100 386Q1100 295 1066.0 215.5Q1032 136 972.5 75.0Q913 14 834.0 -20.5Q755 -55 665 -55Q569 -55 488.0 -20.5Q407 14 347.0 75.0Q287 136 253.5 215.5Q220 295 220 386Q220 477 255.5 556.5Q291 636 353.0 696.5Q415 757 495.0 791.0Q575 825 665 825Z" fill="#fcea2b" />
<path d="M610 479Q610 527 576.0 560.5Q542 594 495 594Q448 594 414.0 560.5Q380 527 380 479Q380 432 414.0 398.5Q448 365 495 365Q542 365 576.0 398.5Q610 432 610 479Z" fill="#ffffff" />
<path d="M940 479Q940 527 906.0 560.5Q872 594 825 594Q778 594 744.0 560.5Q710 527 710 479Q710 432 744.0 398.5Q778 365 825 365Q872 365 906.0 398.5Q940 432 940 479Z" fill="#ffffff" />
<path d="M513 140Q513 140 534.5 140.0Q556 140 589.5 140.0Q623 140 660.0 140.0Q697 140 730.5 140.0Q764 140 785.5 140.0Q807 140 807 140Q804 143 794.0 165.0Q784 187 766.5 215.0Q749 243 724.0 264.0Q699 285 668 286Q640 288 616.5 274.0Q593 260 574.5 238.5Q556 217 543.0 195.0Q530 173 522.5 157.5Q515 142 513 140Z" fill="#ffffff" />
<path d="M1055 -102 1027 1Q1027 1 1033.0 18.0Q1039 35 1046.0 62.0Q1053 89 1056.5 119.0Q1060 149 1054 176Q1046 210 1033.5 243.0Q1021 276 1007.0 298.0Q993 320 981 319Q975 319 975.0 308.5Q975 298 973.5 270.5Q972 243 960 192Q952 153 947.5 132.0Q943 111 942.0 97.0Q941 83 941 65Q940 30 944.0 2.5Q948 -25 954 -44Q952 -63 948.5 -72.5Q945 -82 940.5 -90.0Q936 -98 930.5 -111.5Q925 -125 918 -153Z" fill="#fcea2b" />
<path d="M278 -100 306 -2Q306 -2 298.5 15.0Q291 32 282.0 59.0Q273 86 268.5 116.5Q264 147 270 174Q278 207 291.5 240.5Q305 274 320.0 296.0Q335 318 347 317Q353 317 356.5 306.0Q360 295 365.0 267.5Q370 240 382 189Q390 151 391.0 130.0Q392 109 389.5 95.0Q387 81 388 63Q388 28 384.0 0.0Q380 -28 374 -46Q376 -65 378.0 -73.0Q380 -81 382.5 -87.5Q385 -94 389.5 -106.0Q394 -118 401 -146Z" fill="#fcea2b" />
<path d="M372 618Q359 605 372 592Q385 579 398 592Q399 593 401 595Q483 679 576 609Q583 603 589 604Q596 605 601 612Q612 627 598 638Q480 728 375 621Q373 619 372 618Z" fill="#000000" />
<path d="M628 468Q628 523 589 562Q550 601 495 601Q440 601 401 562Q362 523 362 468Q362 413 401 374Q440 335 495 335Q550 335 589 374Q628 413 628 468ZM563 536Q591 508 591 468Q591 428 563 400Q535 372 495 372Q455 372 427 400Q399 428 399 468Q399 508 427 536Q455 564 495 564Q535 564 563 536Z" fill="#000000" />
<path d="M532.0570068359375 468.43743896484375Q532.0570068359375 483.8302001953125 521.2820739746094 494.6051330566406Q510.50714111328125 505.38006591796875 495.1143798828125 505.38006591796875Q479.72161865234375 505.38006591796875 468.9466857910156 494.6051330566406Q458.1717529296875 483.8302001953125 458.1717529296875 468.43743896484375Q458.1717529296875 453.044677734375 468.9466857910156 442.2697448730469Q479.72161865234375 431.49481201171875 495.1143798828125 431.49481201171875Q510.50714111328125 431.49481201171875 521.2820739746094 442.2697448730469Q532.0570068359375 453.044677734375 532.0570068359375 468.43743896484375Z" fill="#000000" />
<path d="M958 468Q958 523 919 562Q880 601 825 601Q770 601 731 562Q692 523 692 468Q692 413 731 374Q770 335 825 335Q880 335 919 374Q958 413 958 468ZM893 536Q921 508 921 468Q921 428 893 400Q865 372 825 372Q785 372 757 400Q729 428 729 468Q729 508 757 536Q785 564 825 564Q865 564 893 536Z" fill="#000000" />
<path d="M862.0570068359375 468.43743896484375Q862.0570068359375 483.8302001953125 851.2820739746094 494.6051330566406Q840.5071411132812 505.38006591796875 825.1143798828125 505.38006591796875Q809.7216186523438 505.38006591796875 798.9466857910156 494.6051330566406Q788.1717529296875 483.8302001953125 788.1717529296875 468.43743896484375Q788.1717529296875 453.044677734375 798.9466857910156 442.2697448730469Q809.7216186523438 431.49481201171875 825.1143798828125 431.49481201171875Q840.5071411132812 431.49481201171875 851.2820739746094 442.2697448730469Q862.0570068359375 453.044677734375 862.0570068359375 468.43743896484375Z" fill="#000000" />
<path d="M499 139Q495 135 495 128Q495 110 513 110H807Q813 110 818 114Q825 119 826 126Q827 132 821 139L823 138Q822 140 821 146Q783 293 668 293Q536 293 498 142ZM538 147Q570 257 668 257Q751 257 782 147Z" fill="#000000" />
<path d="M877 2Q893 11 884 27Q875 43 859 34Q767 -18 660 -18Q557 -18 467 31Q451 40 442 24Q433 8 449 -1Q547 -55 660 -55Q776 -55 877 2Z" fill="#000000" />
<path d="M224 327Q225 309 244 310Q253 311 257 316Q261 321 260 330Q260 339 258 351Q256 369 257 385Q261 553 377 670Q494 788 660 788Q827 788 945 670Q1063 552 1063 385Q1063 357 1060 330Q1057 311 1075 309Q1093 306 1096 325Q1100 355 1100 385Q1100 567 971 696Q842 825 660 825Q479 825 351 696Q224 568 220 385Q220 367 222 347Q223 336 224 327Z" fill="#000000" />
<path d="M896 -129Q890 -146 908 -152Q925 -157 931 -140Q939 -111 946 -92Q951 -79 956 -48V-47Q957 -43 956 -39Q941 13 944 64Q945 74 959 98Q991 152 996 206Q998 220 1000 243Q1003 278 1005 291Q1011 282 1021 260Q1041 216 1050 166Q1061 99 1020 4Q1018 -2 1020 -9L1045 -92Q1050 -110 1068 -104Q1085 -99 1080 -81L1057 -5Q1099 97 1086 172Q1076 227 1054 275Q1028 334 999 334Q972 334 963 246Q961 223 960 209Q956 164 928 117Q909 86 908 67Q904 11 919 -45Q915 -71 912 -80Q905 -100 896 -129Z" fill="#000000" />
<path d="M396 -140Q399 -148 405 -151Q410 -154 419 -152Q437 -146 431 -129Q422 -100 415 -80Q412 -71 408 -45Q423 11 419 67Q418 86 399 117Q371 164 367 209Q366 223 364 246Q355 334 328 334Q299 334 273 275Q251 227 241 172Q228 97 270 -5L247 -81Q242 -99 259 -104Q268 -107 274 -104Q280 -101 282 -92L307 -9Q309 -2 307 4Q266 99 277 166Q286 216 306 260Q316 282 322 291Q324 278 327 243Q329 220 331 206Q336 152 368 98Q382 74 383 64Q386 13 371 -39Q370 -43 371 -47V-48Q376 -79 381 -92Q388 -111 396 -140Z" fill="#000000" />
<path d="M931 592Q944 579 957 592Q970 605 957 618Q956 619 954 621Q849 728 731 638Q716 627 728 612Q733 605 740 604Q746 603 753 609Q845 679 928 595Q930 593 931 592Z" fill="#000000" />
</g></svg>