<svg xmlns="http://www.w3.org/2000/svg" viewBox="0 0 2048 2048">
<g transform="matrix(1 0 0 -1 0 2048)">
<path d="M633 450Q633 412 613 379Q614 384 613 388Q610 396 602 398Q595 400 588 400Q570 372 539.0 361.5Q508 351 476 361Q445 371 426.0 398.0Q407 425 408 458Q409 491 429.5 516.5Q450 542 482 550Q429 543 405 495Q381 446 408 400Q397 401 387 395Q376 389 379 378Q356 415 358.5 458.5Q361 502 388 537Q415 571 457.5 583.0Q500 595 541 581Q582 566 607.5 530.0Q633 494 633 450ZM521 432Q543 432 559.5 448.0Q576 464 576 487Q576 510 559.5 526.0Q543 542 521 542Q498 542 482.0 526.0Q466 510 466 487Q466 464 482.0 448.0Q498 432 521 432Z" fill="#000000" />
<path d="M945 450Q945 411 925 378Q926 383 925 388Q922 396 914 398Q907 400 900 400Q882 372 851.0 361.5Q820 351 788 361Q757 371 738.0 397.5Q719 424 720 457Q720 490 740.5 515.5Q761 541 793 550Q740 542 717 494Q694 446 721 400Q709 401 699 395Q693 391 691 385Q691 381 691 378Q668 415 670.5 459.0Q673 503 701 537Q728 571 770.0 583.0Q812 595 854 580Q895 566 920.5 530.0Q946 494 945 450ZM832 432Q855 432 871.0 448.0Q887 464 887 487Q887 510 871.0 526.0Q855 542 832 542Q810 542 793.5 526.0Q777 510 777 487Q777 464 793.5 448.0Q810 432 832 432Z" fill="#000000" />
<path d="M1082 385Q1082 472 1049.0 548.5Q1016 625 958.0 683.0Q900 741 823.5 774.0Q747 807 660 807Q573 807 496.5 774.0Q420 741 362.0 683.0Q304 625 271.0 548.5Q238 472 238 385Q238 298 271.0 221.5Q304 145 362.0 87.0Q420 29 496.5 -4.0Q573 -37 660 -37Q747 -37 823.5 -4.0Q900 29 958.0 87.0Q1016 145 1049.0 221.5Q1082 298 1082 385Z" fill="#fcea2b" />
<path d="M613.765380859375 450.7982177734375Q613.765380859375 475.3837890625 604.4398193359375 497.00213623046875Q595.1142578125 518.6204833984375 578.723876953125 535.0108642578125Q562.33349609375 551.4012451171875 540.7151489257812 560.726806640625Q519.0968017578125 570.0523681640625 494.51123046875 570.0523681640625Q469.9256591796875 570.0523681640625 448.30731201171875 560.726806640625Q426.68896484375 551.4012451171875 410.298583984375 535.0108642578125Q393.908203125 518.6204833984375 384.5826416015625 497.00213623046875Q375.257080078125 475.3837890625 375.257080078125 450.7982177734375Q375.257080078125 426.212646484375 384.5826416015625 404.59429931640625Q393.908203125 382.9759521484375 410.298583984375 366.5855712890625Q426.68896484375 350.1951904296875 448.30731201171875 340.86962890625Q469.9256591796875 331.5440673828125 494.51123046875 331.5440673828125Q519.0968017578125 331.5440673828125 540.7151489257812 340.86962890625Q562.33349609375 350.1951904296875 578.723876953125 366.5855712890625Q595.1142578125 382.9759521484375 604.4398193359375 404.59429931640625Q613.765380859375 426.212646484375 613.765380859375 450.7982177734375Z" fill="#ffffff" />
<path d="M926.765380859375 450.7982177734375Q926.765380859375 475.3837890625 917.4398193359375 497.00213623046875Q908.1142578125 518.6204833984375 891.723876953125 535.0108642578125Q875.33349609375 551.4012451171875 853.7151489257812 560.726806640625Q832.0968017578125 570.0523681640625 807.51123046875 570.0523681640625Q782.9256591796875 570.0523681640625 761.3073120117188 560.726806640625Q739.68896484375 551.4012451171875 723.298583984375 535.0108642578125Q706.908203125 518.6204833984375 697.5826416015625 497.00213623046875Q688.257080078125 475.3837890625 688.257080078125 450.7982177734375Q688.257080078125 426.212646484375 697.5826416015625 404.59429931640625Q706.908203125 382.9759521484375 723.298583984375 366.5855712890625Q739.68896484375 350.1951904296875 761.3073120117188 340.86962890625Q782.9256591796875 331.5440673828125 807.51123046875 331.5440673828125Q832.0968017578125 331.5440673828125 853.7151489257812 340.86962890625Q875.33349609375 350.1951904296875 891.723876953125 366.5855712890625Q908.1142578125 382.9759521484375 917.4398193359375 404.59429931640625Q926.765380859375 426.212646484375 926.765380859375 450.7982177734375Z" fill="#ffffff" />
<path d="M602 398Q609 396 612 388Q615 381 610 374Q591 345 560.5 328.5Q530 312 495 312Q461 312 431.0 328.0Q401 344 382 372Q378 378 379 385Q381 391 387 395Q409 405 432 395Q442 390 451 384H452Q458 381 460 379Q493 361 528 376Q533 378 538.5 381.5Q544 385 549 388Q558 393 568 397Q585 402 602 398Z" fill="#92d3f5" />
<path d="M924 388Q927 381 923 374Q903 345 872.5 328.5Q842 312 807 312Q773 312 743.0 328.0Q713 344 694 372Q690 378 692 385Q693 391 699 395Q722 405 744 394Q754 390 764 384H765Q770 381 772 379Q805 361 840 376Q846 378 851.5 381.5Q857 385 861 388Q870 393 880 397Q897 402 914 398Q922 396 924 388Z" fill="#92d3f5" />
<path d="M633 450Q633 412 613 379Q614 384 613 388Q610 396 602 398Q595 400 588 400Q570 372 539.0 361.5Q508 351 476 361Q445 371 426.0 398.0Q407 425 408 458Q409 491 429.5 516.5Q450 542 482 550Q429 543 405 495Q381 446 408 400Q397 401 387 395Q376 389 379 378Q356 415 358.5 458.5Q361 502 388 537Q415 571 457.5 583.0Q500 595 541 581Q582 566 607.5 530.0Q633 494 633 450ZM521 432Q543 432 559.5 448.0Q576 464 576 487Q576 510 559.5 526.0Q543 542 521 542Q498 542 482.0 526.0Q466 510 466 487Q466 464 482.0 448.0Q498 432 521 432Z" fill="#000000" />
<path d="M945 450Q945 411 925 378Q926 383 925 388Q922 396 914 398Q907 400 900 400Q882 372 851.0 361.5Q820 351 788 361Q757 371 738.0 397.5Q719 424 720 457Q720 490 740.5 515.5Q761 541 793 550Q740 542 717 494Q694 446 721 400Q709 401 699 395Q693 391 691 385Q691 381 691 378Q668 415 670.5 459.0Q673 503 701 537Q728 571 770.0 583.0Q812 595 854 580Q895 566 920.5 530.0Q946 494 945 450ZM832 432Q855 432 871.0 448.0Q887 464 887 487Q887 510 871.0 526.0Q855 542 832 542Q810 542 793.5 526.0Q777 510 777 487Q777 464 793.5 448.0Q810 432 832 432Z" fill="#000000" />
<path d="M1100 385Q1100 567 971 696Q842 825 660 825Q478 825 349 696Q220 567 220 385Q220 203 349 74Q478 -55 660 -55Q842 -55 971 74Q1100 203 1100 385ZM1063 385Q1063 218 945 100Q827 -18 660 -18Q493 -18 375 100Q257 218 257 385Q257 552 375 670Q493 788 660 788Q827 788 945 670Q1063 552 1063 385Z" fill="#000000" />
<path d="M569 687Q578 703 562 712Q546 721 537 705Q516 666 475 652Q441 640 406 651Q388 657 383 640Q380 631 383 625Q386 619 395 616Q441 602 487 617Q542 636 569 687Z" fill="#000000" />
<path d="M930 631Q938 635 940 641Q942 647 938 656Q930 672 913 664Q874 644 832 655Q797 665 775 694Q769 701 763 702Q756 703 749 697Q735 686 746 672Q776 633 822 620Q878 604 930 631Z" fill="#000000" />
<path d="M792 180Q805 194 791 206Q777 218 765 205Q723 157 660 157Q596 157 554 205Q542 218 528 206Q521 200 521 194Q521 187 527 180Q580 121 660 121Q739 121 792 180Z" fill="#000000" />
</g></svg>