<svg xmlns="http://www.w3.org/2000/svg" viewBox="0 0 2048 2048">
<g transform="matrix(1 0 0 -1 0 2048)">
<path d="M763 155 714 267Q689 282 660 282Q631 282 606 267Q606 267 606 267L557 155Q565 119 593.5 95.5Q622 72 660 72Q698 72 726.5 95.5Q755 119 763 155Z" fill="#ffffff" />
<path d="M862 341Q868 396 865.5 441.5Q863 487 870 512Q849 523 825 523Q798 523 775 509Q750 494 738 466Q747 466 759.0 456.5Q771 447 782 421Q791 403 802.0 382.0Q813 361 829 334Q847 334 862 341Z" fill="#ffffff" />
<path d="M1100 385Q1100 567 971 696Q842 825 660 825Q478 825 349 696Q220 567 220 385Q220 203 349 74Q478 -55 660 -55Q842 -55 971 74Q1100 203 1100 385ZM1063 385Q1063 218 945 100Q827 -18 660 -18Q493 -18 375 100Q257 218 257 385Q257 552 375 670Q493 788 660 788Q827 788 945 670Q1063 552 1063 385Z" fill="#fcea2b" />
<path d="M660 807Q747 807 823.5 774.0Q900 741 958.0 683.0Q1016 625 1049.0 548.5Q1082 472 1082 385Q1082 298 1049.0 221.5Q1016 145 958.0 87.0Q900 29 823.5 -4.0Q747 -37 660 -37Q573 -37 496.5 -4.0Q420 29 362.0 87.0Q304 145 271.0 221.5Q238 298 238 385Q238 472 271.0 548.5Q304 625 362.0 683.0Q420 741 496.5 774.0Q573 807 660 807ZM763 155 714 267Q689 282 660 282Q631 282 606 267Q606 267 606 267L557 155Q565 119 593.5 95.5Q622 72 660 72Q698 72 726.5 95.5Q755 119 763 155ZM862 341Q868 396 865.5 441.5Q863 487 870 512Q849 523 825 523Q798 523 775 509Q750 494 738 466Q747 466 759.0 456.5Q771 447 782 421Q791 403 802.0 382.0Q813 361 829 334Q847 334 862 341Z" fill="#fcea2b" />
<path d="M294 -16 472 -29Q473 -15 476.5 2.0Q480 19 483.0 32.0Q486 45 486 45Q486 45 501.5 66.0Q517 87 540.5 126.0Q564 165 588.5 220.5Q613 276 629 345Q633 361 625.5 374.5Q618 388 604.5 390.5Q591 393 576 376Q594 414 599.0 430.5Q604 447 595 459Q586 471 574.5 470.0Q563 469 554.5 463.5Q546 458 546 458Q558 479 554.5 495.5Q551 512 539.0 519.5Q527 527 511.5 520.0Q496 513 484 485Q484 485 483.5 498.0Q483 511 468 519Q446 530 429.0 510.0Q412 490 393.5 444.0Q375 398 350 330Q342 393 306 393Q293 392 284 382Q270 365 275 312Q281 251 285.0 219.5Q289 188 292.0 176.0Q295 164 297 160Q303 149 308.5 137.0Q314 125 319 114Q316 102 309.0 63.5Q302 25 294 -16Z" fill="#fcea2b" />
<path d="M850 -29 1026 -16Q1018 25 1011.0 63.5Q1004 102 1001 114Q1007 125 1012.5 137.0Q1018 149 1023 160Q1025 164 1028.0 176.0Q1031 188 1035.5 219.5Q1040 251 1045 312Q1050 365 1036 382Q1027 392 1014 393Q978 393 970 330Q973 402 975.5 438.0Q978 474 976.0 488.0Q974 502 963 508Q949 515 940.0 511.0Q931 507 926.5 501.0Q922 495 922 495Q924 512 916.5 523.0Q909 534 896 535Q876 536 870 512Q863 487 865.5 441.5Q868 396 862 341Q860 315 855 291Q847 303 840.5 313.5Q834 324 829 334Q813 361 802.0 382.0Q791 403 782 421Q771 447 759.0 456.5Q747 466 738 466Q734 466 731 465Q711 458 713.5 438.0Q716 418 737 378Q724 390 712.0 387.5Q700 385 693.5 373.0Q687 361 691 345Q707 275 731.5 220.0Q756 165 779.5 126.0Q803 87 819.0 66.0Q835 45 835 45Q835 45 838.0 32.5Q841 20 845.0 2.5Q849 -15 850 -29Z" fill="#fcea2b" />
<path d="M779 -39Q797 -34 792 -16Q787 2 769 -3Q716 -18 660 -18Q602 -18 547 -2Q529 3 524 -15Q522 -24 525 -29Q528 -35 537 -37Q597 -55 660 -55Q721 -55 779 -39Z" fill="#000000" />
<path d="M275 172Q279 164 286 162Q292 160 300 165Q316 174 307 190Q257 280 257 385Q257 552 375 670Q493 788 660 788Q827 788 945 670Q1063 552 1063 385Q1063 280 1013 190Q1004 174 1020 165Q1036 156 1045 172Q1100 271 1100 385Q1100 567 971 696Q842 825 660 825Q478 825 349 696Q220 567 220 385Q220 271 275 172Z" fill="#000000" />
<path d="M597 283Q581 274 591 258Q600 242 616 252Q636 264 660 264Q684 264 704 252Q708 249 714 249Q732 249 732 267Q732 283 719 285Q692 301 660 301Q626 301 597 283Z" fill="#000000" />
<path d="M781 155Q781 173 763 173Q746 173 745 157Q730 90 660 90Q590 90 575 157Q574 173 557 173Q539 173 539 155Q539 153 539 151Q560 53 660 53Q760 53 781 151Q781 153 781 155Z" fill="#000000" />
<path d="M520 618Q538 613 543 630Q548 648 530 653Q418 685 360 585Q350 569 366 559Q382 550 391 566Q436 642 520 618Z" fill="#000000" />
<path d="M790 653Q772 648 777 630Q780 622 786 618Q791 615 800 618Q884 642 929 566Q938 550 954 559Q962 564 963 570Q965 577 960 585Q902 685 790 653Z" fill="#000000" />
<path d="M277 6Q274 -12 292 -16Q310 -19 313 -1Q323 47 336 104Q337 108 337 110Q338 116 335 122Q332 129 325 145Q317 161 313 168Q305 185 293 314Q289 359 298 370Q298 370 299 370Q302 374 307 374Q326 374 332 328Q333 319 338 315Q343 311 352 312Q363 313 367 324Q371 333 377 351Q416 454 431 481Q448 509 459 502Q468 498 466 488Q463 470 481 467Q495 464 501 478Q510 498 521 503Q526 506 529 504Q546 494 530 467Q521 452 537 443Q548 436 558 444Q563 448 569 450Q577 453 581 448Q586 440 560 384Q552 367 568 360Q581 354 590 364Q600 375 606 371Q615 364 612 349Q568 169 472 57Q469 55 468 51Q457 20 455 -9Q453 -27 472 -29Q481 -30 486 -25Q491 -21 491 -12Q493 11 502 36Q602 154 647 341Q656 379 628 400Q618 407 609 409Q623 453 610 470Q596 488 576 488Q578 518 548 535Q527 548 503 536Q496 532 489 526Q484 531 476 535Q434 557 400 499Q384 473 351 386Q335 411 306 411Q284 411 270 393Q251 370 257 310Q269 175 281 152Q284 145 292 129Q296 119 300 112Q287 55 277 6Z" fill="#000000" />
<path d="M860.7451171875 428.45941162109375Q860.7451171875 443.3243408203125 850.404296875 453.6651611328125Q840.0634765625 464.0059814453125 825.1985473632812 464.0059814453125Q810.3336181640625 464.0059814453125 799.9927978515625 453.6651611328125Q789.6519775390625 443.3243408203125 789.6519775390625 428.45941162109375Q789.6519775390625 414.24078369140625 799.9927978515625 403.5768127441406Q810.3336181640625 392.912841796875 825.1985473632812 392.912841796875Q840.0634765625 392.912841796875 850.404296875 403.5768127441406Q860.7451171875 414.24078369140625 860.7451171875 428.45941162109375Z" fill="#000000" />
<path d="M829 -12Q830 -31 849 -29Q867 -27 865 -9Q863 20 852 51Q851 54 848 57Q752 169 708 349Q705 363 713 369Q717 372 724 365Q737 352 750 365Q760 374 753 386Q733 424 732 440Q731 446 737 448Q737 448 738 448Q750 448 766 413Q787 367 813 324Q821 310 839 281Q849 266 865 275Q871 280 873 287Q878 312 881 340Q884 375 884 437Q883 492 887 507Q890 517 895 517Q899 516 901 513Q905 507 904 497Q902 479 920 477Q933 475 938 487Q940 490 943 492Q947 495 954 492Q960 489 956 416Q953 366 952 331Q951 322 956 317Q960 312 969 312Q986 311 988 328Q994 374 1014 374Q1018 374 1021 370Q1022 370 1022 370Q1031 359 1027 314Q1015 185 1007 168Q1003 161 995 145Q988 129 985 122Q982 116 983 110Q983 108 985 104Q997 47 1007 -1Q1010 -19 1028 -16Q1046 -12 1043 6Q1033 55 1020 112Q1024 119 1029 129Q1036 145 1039 152Q1051 175 1063 310Q1069 370 1050 393Q1036 411 1014 411Q1002 411 992 407Q993 411 993 414Q998 510 971 524Q952 535 934 529Q933 531 931 534Q919 552 897 553Q862 555 852 517Q846 497 847 437Q847 377 844 343Q820 385 799 429Q773 485 738 484Q731 484 725 482Q692 471 695 436Q696 424 704 405Q697 403 690 398Q664 377 673 341Q718 153 818 36Q827 11 829 -12Z" fill="#000000" />
<path d="M721 473 754 459Q764 481 784 493Q803 505 825 505Q844 505 861 496L878 528Q853 542 825 542Q793 542 765 525Q735 506 721 473Z" fill="#000000" />
</g></svg>