<svg xmlns="http://www.w3.org/2000/svg" viewBox="0 0 2048 2048">
<g transform="matrix(1 0 0 -1 0 2048)">
<path d="M1100.4210205078125 385.3448486328125Q1100.4210205078125 476.71923828125 1066.27099609375 556.5564575195312Q1032.1209716796875 636.3936767578125 971.6661987304688 696.8484497070312Q911.21142578125 757.30322265625 831.3742065429688 791.4532470703125Q751.5369873046875 825.603271484375 660.16259765625 825.603271484375Q568.7882080078125 825.603271484375 488.95098876953125 791.4532470703125Q409.11376953125 757.30322265625 348.65899658203125 696.8484497070312Q288.2042236328125 636.3936767578125 254.05419921875 556.5564575195312Q219.9041748046875 476.71923828125 219.9041748046875 385.3448486328125Q219.9041748046875 293.970458984375 254.05419921875 214.13323974609375Q288.2042236328125 134.2960205078125 348.65899658203125 73.84124755859375Q409.11376953125 13.386474609375 488.95098876953125 -20.7635498046875Q568.7882080078125 -54.91357421875 660.16259765625 -54.91357421875Q751.5369873046875 -54.91357421875 831.3742065429688 -20.7635498046875Q911.21142578125 13.386474609375 971.6661987304688 73.84124755859375Q1032.1209716796875 134.2960205078125 1066.27099609375 214.13323974609375Q1100.4210205078125 293.970458984375 1100.4210205078125 385.3448486328125Z" fill="#fcea2b" />
<path d="M928 282 924 280Q847 261 770.5 255.5Q694 250 626.5 253.0Q559 256 506.5 263.0Q454 270 424.0 276.0Q394 282 394 282H392Q392 240 408 202Q422 198 469.5 190.0Q517 182 587.5 176.5Q658 171 742.0 174.5Q826 178 912 199Q928 239 928 282Z" fill="#ffffff" />
<path d="M912 199Q826 178 742.0 174.5Q658 171 587.5 176.5Q517 182 469.5 190.0Q422 198 408 202Q432 142 495.5 104.5Q559 67 661 67Q762 67 824.5 104.0Q887 141 912 199Z" fill="#ea5a47" />
<path d="M1206 177Q1228 200 1228 232Q1228 264 1206 287Q1185 307 1158.0 318.5Q1131 330 1104.5 335.0Q1078 340 1060.0 341.0Q1042 342 1040 343Q1040 342 1041.5 324.0Q1043 306 1047.5 279.5Q1052 253 1063.5 225.5Q1075 198 1096 177Q1118 154 1150.5 154.0Q1183 154 1206 177Z" fill="#92d3f5" />
<path d="M114 177Q137 154 169 154Q202 154 224 177Q245 197 256.0 224.5Q267 252 272.0 278.5Q277 305 278.5 323.0Q280 341 280 342Q279 342 261.5 341.0Q244 340 217.0 335.0Q190 330 162.5 319.0Q135 308 114 287Q92 264 92.0 232.0Q92 200 114 177Z" fill="#92d3f5" />
<path d="M1061 432Q1063 413 1081 416Q1099 418 1097 436V439Q1076 604 952 714Q828 824 662 825Q497 826 371 717Q246 608 224 444Q224 443 223 438Q223 437 223 436Q222 427 226 422Q230 417 239 416Q257 413 259 431Q259 432 260 434Q260 438 260 439Q281 590 395 689Q510 789 662 788Q814 787 928 686Q1042 585 1060 435Z" fill="#000000" />
<path d="M330 153Q325 161 318 162Q312 163 304 157Q289 147 300 132Q433 -52 660 -55Q886 -53 1019 130Q1029 145 1015 156Q1000 167 989 152Q868 -17 660 -18Q452 -16 330 153Z" fill="#000000" />
<path d="M363 536Q355 520 371 512Q387 503 396 520Q413 553 448 566Q449 566 450 567Q483 583 520 573Q537 568 542 586Q547 603 530 608Q480 622 434 600Q387 582 363 536Z" fill="#000000" />
<path d="M925 519Q934 503 950 512Q958 517 959 523Q961 529 957 537Q901 635 791 609Q774 604 778 587Q780 578 785 574Q791 571 800 573Q883 593 925 519Z" fill="#000000" />
<path d="M946 282Q946 285 945 288Q938 305 921 299L919 298Q761 259 564 275Q465 283 399 299Q397 300 394 300H392Q374 300 374 282Q374 237 391 195Q394 186 404 184Q673 122 916 181Q925 184 929 192Q946 235 946 282ZM908 258Q905 236 898 215Q671 162 421 217Q414 238 412 259Q475 246 561 238Q752 223 908 258Z" fill="#000000" />
<path d="M929 192Q931 198 929 204Q925 221 907 217Q672 160 412 220Q406 221 401 219Q384 212 391 195Q450 48 661 48Q868 48 929 192ZM876 173Q816 85 661 85Q502 85 442 176Q668 131 876 173Z" fill="#000000" />
<path d="M1219 164Q1247 192 1247 232Q1247 272 1218 300Q1162 357 1042 361H1041Q1041 361 1040 361Q1022 361 1022 342Q1023 224 1083 164Q1111 136 1151 136Q1190 136 1218 164ZM1193 190Q1175 173 1151 173Q1126 173 1108 190Q1064 234 1059 323Q1150 317 1193 274Q1210 257 1210 232Q1210 208 1193 190Z" fill="#000000" />
<path d="M101 164Q130 136 169 136Q209 136 237 164Q294 221 298 341Q298 342 298 342Q298 352 293 356Q289 361 280 361Q161 360 101 300Q73 272 73 232Q73 192 101 164ZM127 190Q110 207 110 232Q110 257 127 274Q172 319 260 323Q254 233 211 190Q194 173 169 173Q145 173 127 190Z" fill="#000000" />
<path d="M564 393Q568 385 574 382Q580 380 589 384Q605 391 598 408Q570 470 502 470Q434 470 406 408Q398 391 415 384Q424 380 430 382Q436 385 439 393Q457 433 502 433Q546 433 564 393Z" fill="#000000" />
<path d="M880 392Q888 376 905 383Q921 391 914 407Q886 470 818 470Q750 470 722 407Q714 391 731 383Q748 376 755 392Q773 433 818 433Q862 433 880 392Z" fill="#000000" />
</g></svg>