<svg xmlns="http://www.w3.org/2000/svg" viewBox="0 0 2048 2048">
<g transform="matrix(1 0 0 -1 0 2048)">
<path d="M659.721923828125 825.1190795898438Q750.5079956054688 825.1190795898438 830.3371276855469 790.6829833984375Q910.166259765625 756.2468872070312 970.6903076171875 695.7228393554688Q1031.21435546875 635.1987915039062 1065.6504516601562 555.3696594238281Q1100.0865478515625 475.54052734375 1100.0865478515625 384.75445556640625Q1100.0865478515625 293.9683837890625 1065.6504516601562 214.13925170898438Q1031.21435546875 134.31011962890625 970.6903076171875 73.78607177734375Q910.166259765625 13.26202392578125 830.3371276855469 -21.174072265625Q750.5079956054688 -55.61016845703125 659.721923828125 -55.61016845703125Q568.9358520507812 -55.61016845703125 489.1067199707031 -21.174072265625Q409.277587890625 13.26202392578125 348.7535400390625 73.78607177734375Q288.2294921875 134.31011962890625 253.79339599609375 214.13925170898438Q219.3572998046875 293.9683837890625 219.3572998046875 384.75445556640625Q219.3572998046875 475.54052734375 253.79339599609375 555.3696594238281Q288.2294921875 635.1987915039062 348.7535400390625 695.7228393554688Q409.277587890625 756.2468872070312 489.1067199707031 790.6829833984375Q568.9358520507812 825.1190795898438 659.721923828125 825.1190795898438Z" fill="#fcea2b" />
<path d="M455 851Q450 856 442.5 856.0Q435 856 430 851Q429 850 416.5 836.0Q404 822 388.5 799.0Q373 776 361.5 747.5Q350 719 350 688Q350 651 377.0 624.5Q404 598 443 598Q481 598 508.0 624.5Q535 651 535 688Q535 719 523.5 747.5Q512 776 496.5 799.0Q481 822 468.5 836.0Q456 850 455 851Z" fill="#92d3f5" />
<path d="M507 230Q497 214 513 204Q521 200 527 201Q533 203 538 210Q580 279 676 275Q762 272 800 210Q810 195 825 204Q841 214 831 230Q783 308 678 312Q560 316 507 230Z" fill="#000000" />
<path d="M731 477Q724 472 723 465Q723 459 728 452Q740 438 754 449Q788 478 831 475Q868 473 896 449Q910 438 922 452Q933 466 919 477Q882 509 834 512Q776 515 731 477Z" fill="#000000" />
<path d="M401 477Q394 472 393 465Q393 459 398 452Q410 438 424 449Q458 478 501 475Q538 473 566 449Q580 438 592 452Q603 466 589 477Q552 509 504 512Q446 515 401 477Z" fill="#000000" />
<path d="M585 819Q567 816 570 797Q573 779 591 782Q625 788 660 788Q827 788 945 670Q1063 552 1063 385Q1063 218 945 100Q827 -18 660 -18Q493 -18 375 100Q257 218 257 385Q257 495 312 590Q317 598 315 604Q314 610 306 615Q290 624 281 608Q220 505 220 385Q220 203 349 74Q478 -55 660 -55Q842 -55 971 74Q1100 203 1100 385Q1100 567 971 696Q842 825 660 825Q622 825 585 819Z" fill="#000000" />
<path d="M468 864 462 869H461Q453 874 443 874Q428 874 417 864Q331 778 331 688Q331 643 364 611Q397 579 443 579Q488 579 521 611Q554 643 554 688Q554 778 468 864ZM443 837V836Q517 762 517 688Q517 658 495 637Q473 616 443 616Q368 616 368 688Q368 763 443 837Z" fill="#000000" />
</g></svg>