<svg xmlns="http://www.w3.org/2000/svg" viewBox="0 0 2048 2048">
<g transform="matrix(1 0 0 -1 0 2048)">
<path d="M1174.234619140625 384.7017822265625Q1174.234619140625 490.6162109375 1134.0601806640625 583.7478637695312Q1093.8857421875 676.8795166015625 1023.276123046875 747.4891357421875Q952.66650390625 818.0987548828125 859.5348510742188 858.273193359375Q766.4031982421875 898.4476318359375 660.48876953125 898.4476318359375Q554.5743408203125 898.4476318359375 461.44268798828125 858.273193359375Q368.31103515625 818.0987548828125 297.701416015625 747.4891357421875Q227.091796875 676.8795166015625 186.9173583984375 583.7478637695312Q146.742919921875 490.6162109375 146.742919921875 384.7017822265625Q146.742919921875 278.787353515625 186.9173583984375 185.65570068359375Q227.091796875 92.5240478515625 297.701416015625 21.9144287109375Q368.31103515625 -48.6951904296875 461.44268798828125 -88.86962890625Q554.5743408203125 -129.0440673828125 660.48876953125 -129.0440673828125Q766.4031982421875 -129.0440673828125 859.5348510742188 -88.86962890625Q952.66650390625 -48.6951904296875 1023.276123046875 21.9144287109375Q1093.8857421875 92.5240478515625 1134.0601806640625 185.65570068359375Q1174.234619140625 278.787353515625 1174.234619140625 384.7017822265625Z" fill="#ffffff" />
<path d="M971 211 935 232Q863 274 816.0 306.0Q769 338 738.5 357.5Q708 377 687.0 379.0Q666 381 646.5 362.5Q627 344 602.5 301.5Q578 259 539 188L476 78Q538 42 609.5 32.5Q681 23 751 42Q821 60 878.0 104.5Q935 149 971 211Z" fill="#a57939" />
<path d="M987 202 997 218 945 248Q884 283 802 338Q695 411 654 391Q618 373 530 210Q525 201 523 197L451 71L466 62Q603 -17 756 24Q908 65 987 202ZM946 205Q875 94 746 59Q618 25 501 85L555 179Q558 184 562 192Q645 345 671 358Q692 368 782 308Q865 252 926 216Z" fill="#a57939" />
<path d="M693 730Q654 744 616.0 736.5Q578 729 547.5 705.0Q517 681 504 643Q490 605 497.0 566.5Q504 528 529.0 498.0Q554 468 592 454Q631 440 669.0 447.5Q707 455 737.0 479.0Q767 503 781 542Q795 580 787.5 618.0Q780 656 755.5 686.0Q731 716 693 730Z" fill="#6a462f" />
<path d="M699 747Q634 770 572 742Q510 713 486 649Q463 585 492 523Q521 461 586 437Q651 414 713 442Q775 471 798 535Q822 599 793 662Q763 723 699 747ZM686 713Q737 694 759 646Q782 598 764 548Q746 498 697 476Q649 453 599 472Q548 490 525 538Q503 586 521 636Q539 686 587 708Q636 731 686 713Z" fill="#6a462f" />
<path d="M639 407Q632 447 606.5 476.0Q581 505 544.5 518.5Q508 532 468 525Q428 518 398.0 493.0Q368 468 354.5 431.5Q341 395 348 355Q355 316 380.5 286.5Q406 257 442.5 243.5Q479 230 519 237Q559 244 588.5 269.0Q618 294 632.0 330.5Q646 367 639 407Z" fill="#5c9e31" />
<path d="M373 302Q379 302 386 303Q393 305 400 307Q407 309 414 311Q421 314 428 317Q434 320 441 325Q447 328 453 333Q458 338 464 343Q469 348 474 353Q479 359 483 365Q487 371 490 378Q494 384 497 391Q500 398 502 404Q504 412 506 419Q507 426 508 433Q509 441 509 448Q509 453 508 458Q508 465 506 473Q505 480 503 487Q501 494 498 501Q496 508 492 514Q489 521 485 527Q484 528 483 529Q489 530 495 530Q536 530 569.5 510.0Q603 490 623.0 457.0Q643 424 643 383Q643 343 623.0 310.0Q603 277 569.5 257.0Q536 237 495 237Q458 237 425.5 254.0Q393 271 373 302Z" fill="#6a462f" />
<path d="M841 513Q802 527 764.0 519.5Q726 512 695.5 488.0Q665 464 652 426Q638 388 645.0 349.5Q652 311 677.0 281.0Q702 251 740 237Q779 223 817.0 230.5Q855 238 885.0 262.0Q915 286 929 325Q943 363 935.5 401.0Q928 439 903.5 469.0Q879 499 841 513Z" fill="#6a462f" />
<path d="M949 245Q933 254 924 239Q915 223 931 213L946 205Q875 94 746 60Q617 25 501 85L555 179Q565 195 549 204Q541 208 534 207Q528 205 524 197L451 71L467 62Q603 -17 756 24Q908 65 987 202L996 218Z" fill="#000000" />
<path d="M1192 385Q1192 605 1036 761Q880 917 660 917Q440 917 284 761Q128 605 128 385Q128 165 284 9Q440 -147 660 -147Q880 -147 1036 9Q1192 165 1192 385ZM1155 385Q1155 180 1010 35Q865 -110 660 -110Q455 -110 310 35Q165 180 165 385Q165 590 310 735Q455 880 660 880Q865 880 1010 735Q1155 590 1155 385Z" fill="#000000" />
<path d="M477 590Q478 572 496 572Q514 573 514 591Q513 615 521 638Q539 688 588 710Q636 733 687 714Q781 680 772 582Q770 563 788 562Q806 560 808 578Q813 634 783 681Q753 729 699 749Q635 772 572 744Q510 715 487 651Q476 621 477 590Z" fill="#000000" />
<path d="M653 415Q641 482 585 522Q529 561 461 549Q393 537 354 481Q314 425 326 358Q338 290 394 251Q451 212 518 224Q586 236 626 292Q665 348 653 415ZM617 409Q626 357 596 313Q565 269 512 260Q459 251 415 281Q372 312 362 364Q353 416 384 460Q415 503 468 513Q520 522 564 491Q608 461 617 409Z" fill="#000000" />
<path d="M853 537Q786 561 721 532Q657 502 632 435Q608 368 638 304Q669 239 736 215Q803 191 868 220Q932 250 957 317Q981 384 950 448Q920 513 853 537ZM840 503Q893 483 917 433Q941 382 922 330Q903 277 852 254Q801 230 748 249Q695 269 672 319Q648 370 667 422Q686 475 737 498Q788 522 840 503Z" fill="#000000" />
<path d="M352 294Q401 221 490 221Q558 221 607 270Q656 318 656 386Q656 455 607 503Q558 551 490 551Q483 551 476 550Q467 550 463 545Q459 540 460 531Q460 525 463 521Q464 520 464 519Q468 514 471 509Q474 503 476 497Q478 491 480 485Q482 479 483 472Q484 466 484 460Q485 455 485 450Q485 444 484 438Q483 431 482 425Q481 419 479 413Q477 407 474 401Q472 395 469 389Q466 383 462 378Q458 373 454 368Q450 363 446 359Q441 354 436 350Q431 346 425 343Q420 339 414 336Q408 333 402 331Q396 329 390 327Q384 325 377 324Q372 323 366 323Q349 322 349 305Q349 299 352 294ZM401 292Q408 294 415 297Q423 300 431 304Q438 307 445 312Q452 316 458 321Q465 326 471 332Q477 338 482 344Q488 351 492 357Q497 364 501 371Q505 379 508 386Q511 394 514 402Q516 410 518 418Q520 426 521 434Q521 442 521 451Q521 456 521 462Q520 470 519 479Q518 487 515 495Q513 503 510 510Q510 512 509 513Q550 507 581 477Q619 439 619 386Q619 333 581 296Q543 258 490 258Q436 258 401 292Z" fill="#000000" />
</g></svg>