<svg xmlns="http://www.w3.org/2000/svg" viewBox="0 0 2048 2048">
<g transform="matrix(1 0 0 -1 0 2048)">
<path d="M879.5 823.125Q879.5 834.5 875.25 844.5Q871.0 854.5 863.4375 862.0625Q855.875 869.625 845.875 873.875Q835.875 878.125 824.5 878.125Q813.125 878.125 803.125 873.875Q793.125 869.625 785.5625 862.0625Q778.0 854.5 773.75 844.5Q769.5 834.5 769.5 823.125Q769.5 811.75 773.75 801.75Q778.0 791.75 785.5625 784.1875Q793.125 776.625 803.125 772.375Q813.125 768.125 824.5 768.125Q835.875 768.125 845.875 772.375Q855.875 776.625 863.4375 784.1875Q871.0 791.75 875.25 801.75Q879.5 811.75 879.5 823.125Z" fill="#fcea2b" />
<path d="M975 600 1027 515Q1047 492 1066.5 491.5Q1086 491 1102.0 502.0Q1118 513 1125 525Q1130 533 1133.5 558.0Q1137 583 1139.0 611.5Q1141 640 1142.0 661.0Q1143 682 1143 682Q1144 701 1133.0 707.5Q1122 714 1111.5 714.0Q1101 714 1101 714L1078 546L1029 626L927 683L820 691L709 653L669 593L638 507L595 500L533 522Q533 522 529.0 513.5Q525 505 526.0 493.0Q527 481 543 469Q559 457 582.5 450.0Q606 443 630.5 445.5Q655 448 674 465Q697 487 709.0 518.0Q721 549 725.5 573.5Q730 598 731 600Q733 604 738.0 595.5Q743 587 743 587L770 367L621 133L684 -147H744L718 122L843 275H880L913 73L979 -147H1040L1010 72L990 367L963 587Z" fill="#fcea2b" />
<path d="M898 823Q898 897 824 897Q794 897 773 875Q751 854 751 823Q751 793 773 771Q794 750 824 750Q898 750 898 823ZM861 823Q861 787 824 787Q788 787 788 823Q788 860 824 860Q861 860 861 823Z" fill="#000000" />
<path d="M1118 695Q1119 704 1115 709Q1111 714 1102 715Q1083 717 1082 698L1071 573L1033 640Q1001 696 937 703L882 709Q823 715 767 699L745 693Q682 675 663 613L638 535Q634 520 622 513Q612 508 602 512L557 530Q540 537 533 520Q526 503 543 496L588 478Q614 467 640 481Q664 495 673 524L698 602Q711 645 755 657L777 664Q827 678 878 672L933 666Q979 661 1001 621L1041 552Q1059 521 1081 526Q1104 530 1107 567Z" fill="#000000" />
<path d="M981 589Q978 607 960 605Q951 604 947 599Q943 593 944 584L967 401Q972 365 974 329L990 107Q992 70 997 33L1016 -113Q1018 -121 1014 -125Q1012 -128 1009 -128Q993 -128 986 -106L941 44Q931 77 925 112L904 242Q896 293 862 293Q835 293 806 258L727 162Q699 128 703 84L722 -112Q723 -120 720 -125Q717 -128 714 -128Q699 -128 694 -107L647 101Q641 130 657 154L766 326Q789 362 784 405L761 589Q758 607 740 605Q731 604 727 599Q723 593 724 584L747 401Q751 371 735 346L626 174Q602 136 612 93L658 -115Q669 -165 714 -165Q736 -165 749 -147Q761 -130 759 -108L740 87Q737 116 755 139L834 235Q852 257 862 257Q864 257 868 236L889 107Q895 69 906 33L951 -117Q965 -165 1009 -165Q1031 -165 1044 -146Q1056 -130 1053 -108L1033 38Q1029 73 1026 110L1011 331Q1008 369 1004 405Z" fill="#000000" />
<path d="M529.57666015625 577.5826416015625Q538.0758666992188 594.5822143554688 521.0762939453125 603.0814208984375Q504.971435546875 611.13330078125 496.47222900390625 594.1337280273438L460.23876953125 521.661865234375Q451.73956298828125 504.66229248046875 467.84442138671875 496.61041259765625Q484.843994140625 488.1112060546875 493.34320068359375 505.11077880859375Z" fill="#000000" />
<path d="M100 786Q84 795 76 779Q67 763 83 754L486 534Q502 525 511 541Q520 557 504 566Z" fill="#000000" />
</g></svg>