<svg xmlns="http://www.w3.org/2000/svg" viewBox="0 0 2048 2048">
<g transform="matrix(1 0 0 -1 0 2048)">
<path d="M623 -127Q623 -145 642 -145H678Q697 -145 697 -127V332Q697 350 678 350H642Q623 350 623 332Z" fill="#000000" />
<path d="M312 442Q312 460 293 460Q275 460 275 442Q275 423 293 423Q312 423 312 442Z" fill="#000000" />
<path d="M1045 442Q1045 460 1026 460Q1008 460 1008 442Q1008 423 1026 423Q1045 423 1045 442Z" fill="#000000" />
<path d="M678 809Q678 827 659 827Q641 827 641 809Q641 790 659 790Q678 790 678 809Z" fill="#000000" />
<path d="M413.7645263671875 714.198486328125Q400.32977294921875 727.6332397460938 386.89501953125 714.198486328125Q374.1673583984375 701.4708251953125 387.60211181640625 688.0360717773438L568.6177368164062 507.02044677734375Q582.052490234375 493.585693359375 594.7801513671875 506.3133544921875Q608.2149047851562 519.7481079101562 594.7801513671875 533.182861328125Z" fill="#000000" />
<path d="M725 532Q718 526 718 519Q718 513 725 506Q738 493 751 506L932 688Q945 701 932 714Q919 727 906 714Z" fill="#000000" />
<path d="M905.2176513671875 169.667236328125Q918.6500854492188 156.23480224609375 932.08251953125 169.667236328125Q944.8079833984375 182.3927001953125 931.3755493164062 195.82513427734375L750.3911743164062 376.80950927734375Q736.958740234375 390.241943359375 724.2332763671875 377.5164794921875Q710.8008422851562 364.08404541015625 724.2332763671875 350.651611328125Z" fill="#000000" />
<path d="M595.198486328125 350.2354736328125Q608.6332397460938 363.67022705078125 595.198486328125 377.10498046875Q582.4708251953125 389.8326416015625 569.0360717773438 376.39788818359375L388.02044677734375 195.38226318359375Q374.585693359375 181.947509765625 387.3133544921875 169.2198486328125Q400.74810791015625 155.78509521484375 414.182861328125 169.2198486328125Z" fill="#000000" />
<path d="M550 423Q568 423 568 442Q568 460 550 460H385Q367 460 367 442Q367 423 385 423Z" fill="#000000" />
<path d="M678.0 717.0Q678.0 735.0 659.0 735.0Q641.0 735.0 641.0 717.0V552.0Q641.0 534.0 659.0 534.0Q678.0 534.0 678.0 552.0Z" fill="#000000" />
<path d="M935 423Q953 423 953 442Q953 460 935 460H770Q752 460 752 442Q752 423 770 423Z" fill="#000000" />
<path d="M247 632Q230 639 223 623Q216 606 233 599L353 549Q370 542 377 559Q384 576 367 583Z" fill="#000000" />
<path d="M233 284Q224 281 222 275Q220 269 223 260Q230 244 247 251L367 300Q376 304 378 310Q381 316 377 324Q370 341 353 334Z" fill="#000000" />
<path d="M470.00177001953125 28.7769775390625Q463.0078125 11.77691650390625 479.00799560546875 4.78265380859375Q496.008056640625 -2.2113037109375 503.00201416015625 14.78875732421875L552.9592895507812 134.78936767578125Q559.9532470703125 151.7894287109375 542.9531860351562 158.78338623046875Q525.953125 165.77734375 518.9591674804688 148.77728271484375Z" fill="#000000" />
<path d="M817.497802734375 14.62359619140625Q824.5726928710938 -2.3458251953125 840.8351440429688 4.02178955078125Q857.8045654296875 11.0966796875 850.7296752929688 28.06610107421875L801.2051391601562 148.26629638671875Q794.1302490234375 165.2357177734375 777.1608276367188 158.16082763671875Q760.19140625 151.0859375 767.2662963867188 134.11651611328125Z" fill="#000000" />
<path d="M1073.4158935546875 250.9263916015625Q1090.4180908203125 243.9376220703125 1097.407470703125 259.93994140625Q1104.396240234375 276.942138671875 1087.39404296875 283.930908203125L967.378173828125 333.8515625Q950.3759765625 340.84033203125 943.38720703125 323.838134765625Q936.3984375 306.8359375 953.400634765625 299.84716796875Z" fill="#000000" />
<path d="M1086.6211547851562 598.6689453125Q1103.5860595703125 605.7505493164062 1097.2119750976562 622.0088500976562Q1090.13037109375 638.9737548828125 1073.1654663085938 631.8921508789062L952.9970092773438 582.3200073242188Q936.0321044921875 575.2384033203125 943.1137084960938 558.2734985351562Q950.1953125 541.30859375 967.1602172851562 548.3901977539062Z" fill="#000000" />
<path d="M851 855Q858 872 841 879Q832 882 826 880Q820 877 817 869L767 748Q760 732 777 724Q785 721 791 723Q797 726 801 734Z" fill="#000000" />
<path d="M503 868Q496 885 479 878Q470 875 468 869Q465 863 469 854L519 734Q526 717 543 724Q560 731 553 748Z" fill="#000000" />
<path d="M660 416 629 394 640 430 610 453H648L660 490L672 453H710L680 430L691 394Z" fill="#000000" />
<path d="M660 393 681 379Q695 368 706 383Q711 390 709 399L701 423L721 438Q736 449 725 464Q720 471 711 471H685L677 495Q674 504 669 507Q663 510 654 507Q645 504 643 495L635 471H609Q591 471 591 453Q591 444 599 438L619 423L611 399Q606 382 623 376Q632 373 639 379ZM658 437Q659 438 660 439Q661 438 662 437Q662 436 661 435Q660 435 659 435Q658 436 658 437Z" fill="#000000" />
<path d="M623 -127Q623 -145 642 -145H678Q697 -145 697 -127V332Q697 350 678 350H642Q623 350 623 332Z" fill="#d22f27" />
<path d="M312 442Q312 460 293 460Q275 460 275 442Q275 423 293 423Q312 423 312 442Z" fill="#fcea2b" />
<path d="M1045 442Q1045 460 1026 460Q1008 460 1008 442Q1008 423 1026 423Q1045 423 1045 442Z" fill="#f1b31c" />
<path d="M678 809Q678 827 659 827Q641 827 641 809Q641 790 659 790Q678 790 678 809Z" fill="#f1b31c" />
<path d="M413.7645263671875 714.198486328125Q400.32977294921875 727.6332397460938 386.89501953125 714.198486328125Q374.1673583984375 701.4708251953125 387.60211181640625 688.0360717773438L568.6177368164062 507.02044677734375Q582.052490234375 493.585693359375 594.7801513671875 506.3133544921875Q608.2149047851562 519.7481079101562 594.7801513671875 533.182861328125Z" fill="#e27022" />
<path d="M725 532Q718 526 718 519Q718 513 725 506Q738 493 751 506L932 688Q945 701 932 714Q919 727 906 714Z" fill="#61b2e4" />
<path d="M905.2176513671875 169.667236328125Q918.6500854492188 156.23480224609375 932.08251953125 169.667236328125Q944.8079833984375 182.3927001953125 931.3755493164062 195.82513427734375L750.3911743164062 376.80950927734375Q736.958740234375 390.241943359375 724.2332763671875 377.5164794921875Q710.8008422851562 364.08404541015625 724.2332763671875 350.651611328125Z" fill="#f1b31c" />
<path d="M595.198486328125 350.2354736328125Q608.6332397460938 363.67022705078125 595.198486328125 377.10498046875Q582.4708251953125 389.8326416015625 569.0360717773438 376.39788818359375L388.02044677734375 195.38226318359375Q374.585693359375 181.947509765625 387.3133544921875 169.2198486328125Q400.74810791015625 155.78509521484375 414.182861328125 169.2198486328125Z" fill="#e67a94" />
<path d="M550 423Q568 423 568 442Q568 460 550 460H385Q367 460 367 442Q367 423 385 423Z" fill="#d0cfce" />
<path d="M678.0 717.0Q678.0 735.0 659.0 735.0Q641.0 735.0 641.0 717.0V552.0Q641.0 534.0 659.0 534.0Q678.0 534.0 678.0 552.0Z" fill="#8967aa" />
<path d="M935 423Q953 423 953 442Q953 460 935 460H770Q752 460 752 442Q752 423 770 423Z" fill="#ea5a47" />
<path d="M247 632Q230 639 223 623Q216 606 233 599L353 549Q370 542 377 559Q384 576 367 583Z" fill="#b399c8" />
<path d="M233 284Q224 281 222 275Q220 269 223 260Q230 244 247 251L367 300Q376 304 378 310Q381 316 377 324Q370 341 353 334Z" fill="#92d3f5" />
<path d="M470.00177001953125 28.7769775390625Q463.0078125 11.77691650390625 479.00799560546875 4.78265380859375Q496.008056640625 -2.2113037109375 503.00201416015625 14.78875732421875L552.9592895507812 134.78936767578125Q559.9532470703125 151.7894287109375 542.9531860351562 158.78338623046875Q525.953125 165.77734375 518.9591674804688 148.77728271484375Z" fill="#b1cc33" />
<path d="M817.497802734375 14.62359619140625Q824.5726928710938 -2.3458251953125 840.8351440429688 4.02178955078125Q857.8045654296875 11.0966796875 850.7296752929688 28.06610107421875L801.2051391601562 148.26629638671875Q794.1302490234375 165.2357177734375 777.1608276367188 158.16082763671875Q760.19140625 151.0859375 767.2662963867188 134.11651611328125Z" fill="#ffa7c0" />
<path d="M1073.4158935546875 250.9263916015625Q1090.4180908203125 243.9376220703125 1097.407470703125 259.93994140625Q1104.396240234375 276.942138671875 1087.39404296875 283.930908203125L967.378173828125 333.8515625Q950.3759765625 340.84033203125 943.38720703125 323.838134765625Q936.3984375 306.8359375 953.400634765625 299.84716796875Z" fill="#b399c8" />
<path d="M1086.6211547851562 598.6689453125Q1103.5860595703125 605.7505493164062 1097.2119750976562 622.0088500976562Q1090.13037109375 638.9737548828125 1073.1654663085938 631.8921508789062L952.9970092773438 582.3200073242188Q936.0321044921875 575.2384033203125 943.1137084960938 558.2734985351562Q950.1953125 541.30859375 967.1602172851562 548.3901977539062Z" fill="#b1cc33" />
<path d="M851 855Q858 872 841 879Q832 882 826 880Q820 877 817 869L767 748Q760 732 777 724Q785 721 791 723Q797 726 801 734Z" fill="#a57939" />
<path d="M503 868Q496 885 479 878Q470 875 468 869Q465 863 469 854L519 734Q526 717 543 724Q560 731 553 748Z" fill="#fcea2b" />
<path d="M660 416 629 394 640 430 610 453H648L660 490L672 453H710L680 430L691 394Z" fill="#d22f27" />
<path d="M660 393 681 379Q695 368 706 383Q711 390 709 399L701 423L721 438Q736 449 725 464Q720 471 711 471H685L677 495Q674 504 669 507Q663 510 654 507Q645 504 643 495L635 471H609Q591 471 591 453Q591 444 599 438L619 423L611 399Q606 382 623 376Q632 373 639 379ZM658 437Q659 438 660 439Q661 438 662 437Q662 436 661 435Q660 435 659 435Q658 436 658 437Z" fill="#d22f27" />
<path d="M623 -35Q623 -53 642 -53Q660 -53 660 -35V313H678Q697 313 697 332Q697 350 678 350H642Q623 350 623 332Z" fill="#000000" />
</g></svg>