<svg xmlns="http://www.w3.org/2000/svg" viewBox="0 0 2048 2048">
<g transform="matrix(1 0 0 -1 0 2048)">
<path d="M771 62 458 79V80H240L131 117Q123 205 133.0 276.5Q143 348 161.5 391.5Q180 435 197 439Q210 443 238.5 444.5Q267 446 299.0 447.0Q331 448 353.5 448.0Q376 448 376 448H1140L1186 403V127L1077 79L999 62Z" fill="#ea5a47" />
<path d="M423 374Q423 381 427.5 386.5Q432 392 439 392L587 393Q594 393 598.5 387.5Q603 382 603 374L593 305Q593 297 588.0 291.5Q583 286 576 286L439 275Q432 275 427.5 280.5Q423 286 423 294Z" fill="#3f3f3f" />
<path d="M324 458Q324 458 322.0 468.5Q320 479 311.0 489.0Q302 499 280 498Q257 498 248.0 488.0Q239 478 238.0 468.0Q237 458 237 458Z" fill="#92d3f5" />
<path d="M403.0615234375 67.19287109375Q403.0615234375 78.53515625 398.75927734375 88.508544921875Q394.45703125 98.48193359375 386.8955078125 106.04345703125Q379.333984375 113.60498046875 369.360595703125 117.9072265625Q359.38720703125 122.20947265625 348.044921875 122.20947265625Q336.70263671875 122.20947265625 326.729248046875 117.9072265625Q316.755859375 113.60498046875 309.1943359375 106.04345703125Q301.6328125 98.48193359375 297.33056640625 88.508544921875Q293.0283203125 78.53515625 293.0283203125 67.19287109375Q293.0283203125 55.8505859375 297.33056640625 45.877197265625Q301.6328125 35.90380859375 309.1943359375 28.34228515625Q316.755859375 20.78076171875 326.729248046875 16.478515625Q336.70263671875 12.17626953125 348.044921875 12.17626953125Q359.38720703125 12.17626953125 369.360595703125 16.478515625Q379.333984375 20.78076171875 386.8955078125 28.34228515625Q394.45703125 35.90380859375 398.75927734375 45.877197265625Q403.0615234375 55.8505859375 403.0615234375 67.19287109375Z" fill="#9b9b9a" />
<path d="M307 402 296 313 189 292 195 347Q195 370 211.5 386.0Q228 402 250 402Z" fill="#3f3f3f" />
<path d="M939.0615234375 67.19287109375Q939.0615234375 78.53515625 934.75927734375 88.508544921875Q930.45703125 98.48193359375 922.8955078125 106.04345703125Q915.333984375 113.60498046875 905.360595703125 117.9072265625Q895.38720703125 122.20947265625 884.044921875 122.20947265625Q872.70263671875 122.20947265625 862.729248046875 117.9072265625Q852.755859375 113.60498046875 845.1943359375 106.04345703125Q837.6328125 98.48193359375 833.33056640625 88.508544921875Q829.0283203125 78.53515625 829.0283203125 67.19287109375Q829.0283203125 55.8505859375 833.33056640625 45.877197265625Q837.6328125 35.90380859375 845.1943359375 28.34228515625Q852.755859375 20.78076171875 862.729248046875 16.478515625Q872.70263671875 12.17626953125 884.044921875 12.17626953125Q895.38720703125 12.17626953125 905.360595703125 16.478515625Q915.333984375 20.78076171875 922.8955078125 28.34228515625Q930.45703125 35.90380859375 934.75927734375 45.877197265625Q939.0615234375 55.8505859375 939.0615234375 67.19287109375Z" fill="#9b9b9a" />
<path d="M591 374V305Q591 297 586.0 291.5Q581 286 573 286H440Z" fill="#3f3f3f" />
<path d="M1113 375Q1113 382 1108.0 387.0Q1103 392 1096 392H683Q676 392 671.0 387.0Q666 382 666 375V158Q666 147 677 147H792Q803 147 803 158V180H976V158Q976 147 987 147H1103Q1113 147 1113 158Z" fill="#d0cfce" />
<path d="M182 211Q172 211 165.0 203.5Q158 196 159 185L161 159Q162 150 168.5 144.0Q175 138 184 138Q194 138 201.0 145.0Q208 152 208 162V187Q208 197 214.5 202.0Q221 207 218 211Z" fill="#d0cfce" />
<path d="M473 99Q473 117 455 117Q436 117 436 99V79Q436 60 455 60H766Q785 60 785 79Q785 97 766 97H473Z" fill="#000000" />
<path d="M1001 97Q982 97 982 79Q982 60 1001 60H1074Q1078 60 1081 62L1190 110Q1201 115 1201 127V403Q1201 411 1195 416L1150 461Q1145 467 1137 467H373Q225 467 189 457Q150 446 124 336Q98 222 110 97Q112 80 128 80H237Q255 80 255 99Q255 117 237 117H145Q136 227 160 328Q181 417 199 422Q230 430 373 430H1130L1164 396V139L1070 97Z" fill="#000000" />
<path d="M218 457Q220 439 238 440Q247 441 251 445Q256 450 255 460Q255 464 257 469Q263 479 281 480Q297 481 302 470Q305 464 305 458Q305 440 324 440Q342 440 342 458Q342 473 334 487Q318 518 279 517Q240 515 225 486Q217 472 218 457Z" fill="#000000" />
<path d="M421 67Q421 98 400 119Q379 141 348 141Q318 141 296 119Q275 98 275 67Q275 -6 348 -6Q421 -6 421 67ZM385 67Q385 31 348 31Q311 31 311 67Q311 104 348 104Q385 104 385 67Z" fill="#000000" />
<path d="M957 67Q957 98 936 119Q914 141 884 141Q853 141 832 119Q810 98 810 67Q810 37 832 15Q853 -6 884 -6Q957 -6 957 67ZM920 67Q920 31 884 31Q847 31 847 67Q847 104 884 104Q920 104 920 67Z" fill="#000000" />
<path d="M204 314Q195 312 191 307Q187 302 189 293Q192 275 210 277L290 290Q319 295 321 325L323 383Q323 392 319 397Q315 402 306 402Q287 403 286 385L284 326Z" fill="#000000" />
<path d="M440 305Q422 305 422 286Q422 268 440 268H573Q610 268 610 305V374Q610 392 591 392Q573 392 573 374V305Z" fill="#000000" />
<path d="M1131 375Q1131 409 1096 409H683Q648 409 648 375V158Q648 130 677 130H792Q820 130 820 158V163H959V158Q959 130 987 130H1103Q1131 130 1131 158ZM1095 374V165H994V180Q994 198 976 198H803Q785 198 785 180V165H684V374Z" fill="#000000" />
<path d="M1123.0 430.0Q1141.0 430.0 1141.0 448.0Q1141.0 467.0 1123.0 467.0H390.0Q371.0 467.0 371.0 448.0Q371.0 430.0 390.0 430.0Z" fill="#000000" />
<path d="M1123.0 522.0Q1141.0 522.0 1141.0 540.0Q1141.0 558.0 1123.0 558.0H390.0Q371.0 558.0 371.0 540.0Q371.0 522.0 390.0 522.0Z" fill="#000000" />
<path d="M463.0 448.0Q463.0 430.0 481.0 430.0Q500.0 430.0 500.0 448.0V540.0Q500.0 558.0 481.0 558.0Q463.0 558.0 463.0 540.0Z" fill="#000000" />
<path d="M573.0 448.0Q573.0 430.0 591.0 430.0Q610.0 430.0 610.0 448.0V540.0Q610.0 558.0 591.0 558.0Q573.0 558.0 573.0 540.0Z" fill="#000000" />
<path d="M683.0 448.0Q683.0 430.0 701.0 430.0Q720.0 430.0 720.0 448.0V540.0Q720.0 558.0 701.0 558.0Q683.0 558.0 683.0 540.0Z" fill="#000000" />
<path d="M1013.0 448.0Q1013.0 430.0 1031.0 430.0Q1050.0 430.0 1050.0 448.0V540.0Q1050.0 558.0 1031.0 558.0Q1013.0 558.0 1013.0 540.0Z" fill="#000000" />
<path d="M903.0 448.0Q903.0 430.0 921.0 430.0Q940.0 430.0 940.0 448.0V540.0Q940.0 558.0 921.0 558.0Q903.0 558.0 903.0 540.0Z" fill="#000000" />
<path d="M793.0 448.0Q793.0 430.0 811.0 430.0Q830.0 430.0 830.0 448.0V540.0Q830.0 558.0 811.0 558.0Q793.0 558.0 793.0 540.0Z" fill="#000000" />
<path d="M234 194Q234 212 215 212Q197 212 197 194V174H179Q160 174 160 155Q160 137 179 137Q234 137 234 174Z" fill="#000000" />
</g></svg>