<svg xmlns="http://www.w3.org/2000/svg" viewBox="0 0 2048 2048">
<g transform="matrix(1 0 0 -1 0 2048)">
<path d="M147 385Q147 527 216.0 643.5Q285 760 401.5 829.0Q518 898 660 898V-128Q518 -128 401.5 -59.0Q285 10 216.0 126.5Q147 243 147 385Z" fill="#000000" />
<path d="M907 222Q896 223 888.0 231.0Q880 239 880 250Q880 261 888.0 269.0Q896 277 907 277Q918 277 925.5 269.0Q933 261 933 250Q933 239 925.5 231.0Q918 223 907 222Z" fill="#fcea2b" />
<path d="M1173 385Q1173 243 1104.0 126.5Q1035 10 918.5 -59.0Q802 -128 660 -128V898Q802 898 918.5 829.0Q1035 760 1104.0 643.5Q1173 527 1173 385Z" fill="#fcea2b" />
<path d="M1192 385Q1192 605 1036 761Q880 917 660 917Q651 917 646 912Q642 908 642 898V-128Q642 -147 660 -147Q880 -147 1036 9Q1192 165 1192 385ZM1155 385Q1155 180 1010 35Q872 -103 678 -110V880Q872 873 1010 735Q1155 590 1155 385Z" fill="#fcea2b" />
<path d="M147 385Q147 527 216.0 643.5Q285 760 401.5 829.0Q518 898 660 898V-128Q518 -128 401.5 -59.0Q285 10 216.0 126.5Q147 243 147 385Z" fill="#3f3f3f" />
<path d="M128 385Q128 165 284 9Q440 -147 660 -147Q678 -147 678 -128V898Q678 917 660 917Q440 917 284 761Q128 605 128 385ZM165 385Q165 590 310 735Q448 873 642 880V-110Q448 -103 310 35Q165 180 165 385Z" fill="#3f3f3f" />
<path d="M1192 385Q1192 605 1036 761Q880 917 660 917Q440 917 284 761Q128 605 128 385Q128 165 284 9Q440 -147 660 -147Q880 -147 1036 9Q1192 165 1192 385ZM1155 385Q1155 180 1010 35Q865 -110 660 -110Q455 -110 310 35Q165 180 165 385Q165 590 310 735Q455 880 660 880Q865 880 1010 735Q1155 590 1155 385Z" fill="#000000" />
<path d="M1192 385Q1192 605 1036 761Q880 917 660 917Q651 917 646 912Q642 908 642 898V-128Q642 -147 660 -147Q880 -147 1036 9Q1192 165 1192 385ZM1155 385Q1155 180 1010 35Q872 -103 678 -110V880Q872 873 1010 735Q1155 590 1155 385Z" fill="#000000" />
</g></svg>