<svg xmlns="http://www.w3.org/2000/svg" viewBox="0 0 2048 2048">
<g transform="matrix(1 0 0 -1 0 2048)">
<path d="M979 144 988 155Q1011 139 1038 133Q1065 128 1091 135Q1153 156 1173 218Q1182 249 1178 280Q1172 309 1156 333Q1119 379 1060 378Z" fill="#d0cfce" />
<path d="M777 2 790 6Q807 -50 862 -71Q890 -80 919 -75Q951 -70 977 -51Q990 -41 1001 -30Q1010 -17 1017 -4Q1031 22 1030 52Q1028 111 979 144Z" fill="#d0cfce" />
<path d="M530 6 543 2Q524 -54 556 -103Q573 -126 599 -140Q628 -154 660 -155Q692 -154 721 -140Q747 -126 764 -103Q796 -54 777 2Z" fill="#d0cfce" />
<path d="M332 155 341 144Q292 111 290 52Q289 22 303 -4Q310 -17 319 -30Q330 -41 343 -51Q369 -70 401 -75Q430 -80 458 -71Q513 -50 530 6Z" fill="#d0cfce" />
<path d="M260 385V378Q201 379 164 333Q148 309 142 280Q138 249 147 218Q167 156 229 135Q255 128 282 133Q309 139 332 155Z" fill="#d0cfce" />
<path d="M1060 378V385Q1119 384 1156 429Q1172 453 1178 482Q1182 514 1173 544Q1153 607 1091 627Q1065 635 1038 629Q1010 624 988 607Z" fill="#d0cfce" />
<path d="M988.0 607.0 979.0 618.0Q1028.0 651.0 1030.0 710.0Q1031.0 740.0 1017.0 766.0Q1010.0 779.0 1001.0 792.0Q990.0 803.0 977.0 813.0Q951.0 832.0 919.0 837.0Q890.0 842.0 862.0 833.0Q807.0 812.0 790.0 756.0Z" fill="#d0cfce" />
<path d="M790.09814453125 755.904052734375 777.0997924804688 759.9009399414062Q796.0860595703125 815.8941650390625 764.0829467773438 864.8793334960938Q747.0818481445312 887.8720092773438 721.0840454101562 901.8646850585938Q692.0867919921875 915.8568115234375 660.0924682617188 916.8507690429688Q628.0985107421875 915.8450927734375 599.1063842773438 901.8423461914062Q573.1137084960938 887.8401489257812 556.1210327148438 864.8412475585938Q524.1358642578125 815.8443603515625 543.1426391601562 759.8580932617188Z" fill="#d0cfce" />
<path d="M543.0 760.0 530.0 756.0Q513.0 812.0 458.0 833.0Q430.0 842.0 401.0 837.0Q369.0 832.0 343.0 813.0Q330.0 803.0 319.0 792.0Q310.0 779.0 303.0 766.0Q289.0 740.0 290.0 710.0Q292.0 651.0 341.0 618.0Z" fill="#d0cfce" />
<path d="M341.1458740234375 617.8383178710938 332.14898681640625 606.8380126953125Q309.14886474609375 622.8318481445312 282.15106201171875 628.826171875Q255.1534423828125 633.8206176757812 229.15789794921875 626.8167114257812Q167.1693115234375 605.8079223632812 147.18310546875 543.8118286132812Q138.18988037109375 512.81396484375 142.195068359375 481.8184814453125Q148.19964599609375 452.8231201171875 164.20208740234375 428.8289794921875Q201.20599365234375 382.84136962890625 260.1986083984375 383.85205078125Z" fill="#d0cfce" />
<path d="M1063.749755859375 385.662841796875Q1063.749755859375 468.423828125 1032.321533203125 541.75634765625Q1000.893310546875 615.0888671875 945.3701171875 670.612060546875Q889.846923828125 726.13525390625 817.0382080078125 757.5634765625Q744.2294921875 788.99169921875 660.4208984375 788.99169921875Q576.6123046875 788.99169921875 503.8035888671875 757.5634765625Q430.994873046875 726.13525390625 375.4716796875 670.612060546875Q319.948486328125 615.0888671875 288.520263671875 541.75634765625Q257.092041015625 468.423828125 257.092041015625 385.662841796875Q257.092041015625 301.854248046875 288.520263671875 228.521728515625Q319.948486328125 155.189208984375 375.4716796875 99.666015625Q430.994873046875 44.142822265625 503.8035888671875 13.2384033203125Q576.6123046875 -17.666015625 660.4208984375 -17.666015625Q744.2294921875 -17.666015625 817.0382080078125 13.2384033203125Q889.846923828125 44.142822265625 945.3701171875 99.666015625Q1000.893310546875 155.189208984375 1032.321533203125 228.521728515625Q1063.749755859375 301.854248046875 1063.749755859375 385.662841796875Z" fill="#d0cfce" />
<path d="M611 401Q611 417 595 417Q578 417 578 401Q578 400 578 398Q582 351 625 333Q668 314 704 344Q742 374 742 426Q741 489 668 530Q623 554 553 518Q477 479 464 404Q456 350 482 303Q533 211 639 200Q694 194 745 212Q812 237 838 296Q883 396 837 472Q815 511 782 529Q768 538 760 523Q756 516 758 511Q759 505 766 501Q791 487 809 456Q846 394 808 310Q768 218 642 233Q554 242 510 319Q490 356 496 398Q506 458 568 489Q622 517 652 501Q708 470 709 425Q710 390 684 369Q663 352 638 363Q613 373 611 400Q611 401 611 401Z" fill="#ffffff" />
<path d="M1060 396Q1041 396 1041 377Q1042 359 1060 359Q1110 360 1141 322Q1155 302 1160 277Q1163 250 1155 223Q1139 170 1086 153Q1064 147 1042 151Q1018 156 998 170Q984 181 973 166L965 155Q954 140 968 129Q982 119 992 131Q1012 120 1035 115Q1066 109 1096 118Q1097 118 1097 118Q1168 141 1190 213Q1201 247 1196 283Q1196 283 1196 284Q1190 316 1171 343Q1170 344 1170 344Q1127 397 1060 396Z" fill="#000000" />
<path d="M990 159Q975 170 964 154Q954 139 969 129Q1010 101 1012 51Q1013 27 1001 5Q995 -7 987 -18Q977 -28 966 -36Q943 -53 916 -57Q892 -61 869 -53Q822 -36 808 12Q802 29 785 24Q784 24 784 24L771 19Q754 13 760 -4Q765 -19 779 -17Q801 -67 856 -88Q856 -88 857 -88Q889 -99 922 -94Q958 -88 988 -66Q1002 -55 1014 -42Q1015 -42 1015 -41Q1026 -27 1033 -12Q1050 18 1048 52Q1046 120 990 159Z" fill="#000000" />
<path d="M794 8Q788 25 771 19Q754 13 760 -4Q776 -51 749 -92Q734 -112 713 -123Q688 -135 660 -136Q632 -135 607 -123Q586 -112 571 -92Q544 -51 560 -4Q566 13 549 19L536 24Q519 30 513 13Q509 4 512 -2Q515 -7 521 -10Q509 -64 541 -113Q541 -113 541 -114Q561 -141 591 -156Q591 -156 591 -156Q624 -172 660 -173Q660 -173 660 -173Q696 -172 729 -156Q729 -156 729 -156Q759 -141 779 -114Q779 -113 779 -113Q816 -56 794 8Z" fill="#000000" />
<path d="M547 1Q550 10 547 16Q544 21 535 24Q518 29 512 12Q498 -36 451 -53Q428 -61 404 -57Q377 -53 354 -36Q343 -28 333 -18Q325 -7 319 5Q307 27 308 51Q310 101 351 129Q366 139 356 154Q356 155 355 155L347 166Q336 181 321 170Q308 160 315 148Q274 111 272 52Q270 18 286 -12Q294 -27 305 -41Q305 -42 306 -42Q318 -55 332 -66Q362 -88 398 -94Q431 -99 463 -88Q464 -88 464 -88Q528 -64 547 1Z" fill="#000000" />
<path d="M343 140Q358 151 347 166Q336 181 322 170Q302 156 278 151Q256 146 234 153Q181 170 165 223Q157 250 160 277Q165 302 179 322Q210 360 260 359Q269 359 274 364Q278 368 279 377Q279 377 279 378V385Q279 403 260 403Q248 403 244 395Q187 391 150 344Q150 344 149 343Q130 316 124 284Q124 283 124 283Q119 247 130 213Q152 141 223 118Q223 118 224 118Q254 109 286 115Q317 122 343 140Z" fill="#000000" />
<path d="M977 622Q962 611 973 596Q984 581 999 592Q1018 606 1042 611Q1064 616 1086 609Q1139 592 1155 539Q1163 512 1160 485Q1155 461 1141 441Q1110 402 1060 403Q1051 403 1046 399Q1042 394 1041 385Q1041 385 1041 385V378Q1041 359 1060 359Q1072 359 1076 367Q1133 372 1170 418Q1170 418 1171 419Q1190 446 1196 478Q1196 479 1196 479Q1201 515 1190 550Q1168 621 1097 644Q1097 644 1096 644Q1066 653 1034 647Q1003 641 977 622Z" fill="#000000" />
<path d="M773 761Q767 743 785 738Q794 735 799 739Q805 742 808 750Q822 798 869 815Q892 823 916 819Q943 815 966 799Q977 790 987 780Q995 769 1001 758Q1013 736 1012 711Q1010 661 969 633Q954 623 964 608Q964 607 965 607L973 596Q979 589 985 588Q991 587 999 592Q1012 602 1005 615Q1046 651 1048 710Q1050 744 1034 774Q1026 790 1015 803Q1015 804 1014 804Q1002 817 988 828Q958 850 922 856Q889 861 857 850Q856 850 856 850Q792 826 773 761Z" fill="#000000" />
<path d="M526.096923828125 754.0009765625Q532.09619140625 737.0030517578125 549.0941162109375 743.0023193359375Q566.092041015625 749.0015869140625 560.0927734375 765.99951171875Q544.0947265625 812.9937744140625 571.0914306640625 853.98876953125Q586.089599609375 873.986328125 607.0870361328125 884.9849853515625Q632.083984375 896.9835205078125 660.08056640625 897.9833984375Q688.0771484375 896.9835205078125 713.0740966796875 884.9849853515625Q734.071533203125 873.986328125 749.0697021484375 853.98876953125Q776.06640625 812.9937744140625 760.068359375 765.99951171875Q754.069091796875 749.0015869140625 771.0670166015625 743.0023193359375L784.0654296875 738.0029296875Q801.0633544921875 732.003662109375 807.0626220703125 749.0015869140625Q811.0621337890625 758.00048828125 808.0625 763.999755859375Q805.0628662109375 768.9991455078125 799.0635986328125 771.998779296875Q811.0621337890625 825.9921875 779.0660400390625 874.9862060546875Q779.0660400390625 874.9862060546875 779.0660400390625 875.986083984375Q759.0684814453125 902.9827880859375 729.0721435546875 917.98095703125Q729.0721435546875 917.98095703125 729.0721435546875 917.98095703125Q696.076171875 933.97900390625 660.08056640625 934.9788818359375Q660.08056640625 934.9788818359375 660.08056640625 934.9788818359375Q624.0849609375 933.97900390625 591.0889892578125 917.98095703125Q591.0889892578125 917.98095703125 591.0889892578125 917.98095703125Q561.0926513671875 902.9827880859375 541.0950927734375 875.986083984375Q541.0950927734375 874.9862060546875 541.0950927734375 874.9862060546875Q504.099609375 817.9931640625 526.096923828125 754.0009765625Z" fill="#000000" />
<path d="M330 603Q345 593 356 608Q366 623 351 633Q310 661 308 711Q307 736 319 757Q325 769 333 780Q343 790 354 799Q377 815 404 820Q428 823 451 815Q498 798 512 750Q518 733 535 738Q536 738 536 738L549 743Q558 746 561 752Q563 758 560 766Q555 782 541 779Q519 830 464 850Q464 850 463 850Q431 861 398 856Q362 850 332 828Q318 817 306 804Q305 804 305 803Q294 790 287 774Q270 744 272 710Q274 642 330 603Z" fill="#000000" />
<path d="M260 366Q279 367 279 385Q278 394 274 399Q269 403 260 403Q210 402 179 441Q165 461 160 485Q157 512 165 539Q181 592 234 609Q256 616 278 611Q302 606 322 592Q336 582 347 596L355 607Q366 622 352 633Q338 643 328 631Q308 642 285 647Q254 653 224 644Q223 644 223 644Q152 621 130 550Q119 515 124 479Q124 479 124 478Q130 446 149 419Q150 418 150 418Q193 365 260 366Z" fill="#000000" />
<path d="M613 417Q613 436 595 436Q576 436 576 417Q576 416 576 414Q580 366 624 347Q668 328 706 359Q744 390 744 442Q743 507 669 548Q623 573 552 536Q475 497 462 420Q454 366 480 319Q532 225 639 215Q694 208 746 227Q813 251 840 312Q885 412 839 490Q816 529 783 548Q768 557 758 541Q754 533 756 526Q757 520 765 516Q790 502 808 471Q844 410 807 327Q766 236 642 251Q555 260 512 337Q492 373 498 414Q508 473 569 504Q622 532 651 516Q706 485 707 441Q707 407 682 387Q662 371 639 381Q615 391 613 416Q613 417 613 417Z" fill="#d22f27" />
</g></svg>