<svg xmlns="http://www.w3.org/2000/svg" viewBox="0 0 2048 2048">
<g transform="matrix(1 0 0 -1 0 2048)">
<path d="M500 281 123 288Q114 330 119.5 379.5Q125 429 137.5 472.5Q150 516 164.5 543.5Q179 571 188 569Q233 522 294.5 493.5Q356 465 427.0 451.5Q498 438 572.5 436.5Q647 435 717.5 441.5Q788 448 847 458Q854 459 860.0 468.0Q866 477 872.0 485.5Q878 494 885 495Q940 500 994.5 494.0Q1049 488 1094.5 473.5Q1140 459 1168.0 438.5Q1196 418 1199 394Q1203 359 1196.5 334.0Q1190 309 1162.5 291.5Q1135 274 1075.5 263.0Q1016 252 915.0 245.5Q814 239 660 235Q640 235 613.5 237.0Q587 239 561.0 244.5Q535 250 518.0 259.0Q501 268 500 281Z" fill="#ffa7c0" />
<path d="M487 263Q502 239 557 227Q608 215 661 217Q1034 227 1132 258Q1228 290 1217 396Q1211 455 1100 491Q997 524 883 513Q868 511 851 487Q845 479 843 477L844 476Q658 444 501 460Q297 480 202 582L197 586L191 587Q153 593 120 477Q88 365 105 284L108 270ZM519 281 518 299 139 306Q128 374 155 467Q167 508 181 534Q184 540 187 545Q291 444 497 423Q659 407 850 440Q864 442 881 466Q886 473 889 476H887Q993 487 1089 456Q1177 428 1181 392Q1185 349 1176 330Q1164 307 1121 293Q1028 263 660 254Q612 252 565 263Q519 273 519 281Z" fill="#ffa7c0" />
<path d="M117.9287109375 297.30877685546875V234.37884521484375H373.216796875V297.30877685546875Z" fill="#3f3f3f" />
<path d="M100 294Q104 276 122 280Q131 281 134 287Q138 292 136 301Q116 394 149 484Q162 517 177 538Q181 543 185 547Q289 444 496 423Q657 406 848 439Q862 442 881 466Q887 475 890 477V479Q992 488 1079 462Q1158 439 1177 402Q1196 364 1187 340Q1177 310 1120 290Q973 238 525 258Q492 269 461 283Q444 290 437 274Q433 265 436 259Q438 253 446 249Q480 234 516 223Q518 222 521 222Q978 201 1132 256Q1205 281 1222 327Q1236 366 1209 418Q1183 469 1089 497Q996 525 887 515Q871 514 851 488Q842 475 841 475Q656 443 500 459Q297 480 202 582Q197 586 191 587Q151 593 115 497Q78 397 100 294Z" fill="#000000" />
<path d="M99 235Q99 217 118 217H373Q391 217 391 235V298Q391 316 373 316H118Q99 316 99 298ZM136 279H355V253H136Z" fill="#000000" />
</g></svg>