<svg xmlns="http://www.w3.org/2000/svg" viewBox="0 0 2048 2048">
<g transform="matrix(1 0 0 -1 0 2048)">
<path d="M204 843V-73H1121V843Z" fill="#3f3f3f" />
<path d="M296 -55V400H1029V-55Z" fill="#d0cfce" />
<path d="M863 825V502H296V825Z" fill="#9b9b9a" />
<path d="M366 331V225H953V331Z" fill="#61b2e4" />
<path d="M185 -73Q185 -92 204 -92H1120Q1139 -92 1139 -73V843Q1139 862 1120 862H204Q185 862 185 843ZM222 825H1102V-55H222Z" fill="#000000" />
<path d="M1011 -55Q1011 -73 1029 -73Q1047 -73 1047 -55V400Q1047 419 1029 419H296Q277 419 277 400V-55Q277 -73 296 -73Q314 -73 314 -55V382H1011Z" fill="#000000" />
<path d="M314 825Q314 843 296 843Q277 843 277 825V502Q277 484 296 484H863Q881 484 881 502V825Q881 843 863 843Q844 843 844 825V521H314Z" fill="#000000" />
<path d="M348 225Q348 207 366 207H953Q971 207 971 225V331Q971 349 953 349H366Q348 349 348 331ZM384 312H935V243H384Z" fill="#000000" />
</g></svg>