<svg xmlns="http://www.w3.org/2000/svg" viewBox="0 0 2048 2048">
<g transform="matrix(1 0 0 -1 0 2048)">
<path d="M316.86041259765625 326.736328125Q303.9525146484375 314.62774658203125 317.13165283203125 301.48748779296875Q330.310791015625 288.34722900390625 343.36566162109375 301.44122314453125L380.1165771484375 338.07373046875Q393.02447509765625 350.18231201171875 379.8453369140625 363.32257080078125Q366.66619873046875 376.46282958984375 353.611328125 363.36883544921875Z" fill="#000000" />
<path d="M354.354736328125 253.712158203125Q341.579833984375 240.937255859375 354.354736328125 228.162353515625Q367.83935546875 214.677734375 380.6142578125 227.45263671875L453.715087890625 300.553466796875Q467.19970703125 314.0380859375 453.715087890625 327.522705078125Q440.940185546875 340.297607421875 427.45556640625 326.81298828125Z" fill="#000000" />
<path d="M977.263671875 300.86041259765625Q989.3722534179688 287.9525146484375 1002.5125122070312 301.13165283203125Q1015.6527709960938 314.310791015625 1002.5587768554688 327.36566162109375L965.92626953125 364.1165771484375Q953.8176879882812 377.02447509765625 940.6774291992188 363.8453369140625Q927.5371704101562 350.66619873046875 940.6311645507812 337.611328125Z" fill="#000000" />
<path d="M940.287841796875 227.354736328125Q953.062744140625 214.579833984375 965.837646484375 227.354736328125Q979.322265625 240.83935546875 966.54736328125 253.6142578125L893.446533203125 326.715087890625Q879.9619140625 340.19970703125 866.477294921875 326.715087890625Q853.702392578125 313.940185546875 867.18701171875 300.45556640625Z" fill="#000000" />
<path d="M660 807Q747 807 823.5 774.0Q900 741 958.0 683.0Q1016 625 1049.0 548.5Q1082 472 1082 385Q1082 298 1049.0 221.5Q1016 145 958.0 87.0Q900 29 823.5 -4.0Q747 -37 660 -37Q573 -37 496.5 -4.0Q420 29 362.0 87.0Q304 145 271.0 221.5Q238 298 238 385Q238 472 271.0 548.5Q304 625 362.0 683.0Q420 741 496.5 774.0Q573 807 660 807Z" fill="#fcea2b" />
<path d="M614 453Q614 502 579.0 537.0Q544 572 495 572Q446 572 411.0 537.0Q376 502 376 453Q376 403 411.0 368.0Q446 333 495 333Q544 333 579.0 368.0Q614 403 614 453Z" fill="#ffffff" />
<path d="M944 453Q944 502 909.0 537.0Q874 572 825 572Q776 572 741.0 537.0Q706 502 706 453Q706 403 741.0 368.0Q776 333 825 333Q874 333 909.0 368.0Q944 403 944 453Z" fill="#ffffff" />
<path d="M316.86041259765625 277.736328125Q303.9525146484375 265.62774658203125 317.13165283203125 252.48748779296875Q330.310791015625 239.34722900390625 343.36566162109375 252.44122314453125L380.1165771484375 289.07373046875Q393.02447509765625 301.18231201171875 379.8453369140625 314.32257080078125Q366.66619873046875 327.46282958984375 353.611328125 314.36883544921875Z" fill="#ea5a47" />
<path d="M354.354736328125 204.712158203125Q341.579833984375 191.937255859375 354.354736328125 179.162353515625Q367.83935546875 165.677734375 380.6142578125 178.45263671875L453.715087890625 251.553466796875Q467.19970703125 265.0380859375 453.715087890625 278.522705078125Q440.940185546875 291.297607421875 427.45556640625 277.81298828125Z" fill="#ea5a47" />
<path d="M977.263671875 251.86041259765625Q989.3722534179688 238.9525146484375 1002.5125122070312 252.13165283203125Q1015.6527709960938 265.310791015625 1002.5587768554688 278.36566162109375L965.92626953125 315.1165771484375Q953.8176879882812 328.02447509765625 940.6774291992188 314.8453369140625Q927.5371704101562 301.66619873046875 940.6311645507812 288.611328125Z" fill="#ea5a47" />
<path d="M940.287841796875 178.354736328125Q953.062744140625 165.579833984375 965.837646484375 178.354736328125Q979.322265625 191.83935546875 966.54736328125 204.6142578125L893.446533203125 277.715087890625Q879.9619140625 291.19970703125 866.477294921875 277.715087890625Q853.702392578125 264.940185546875 867.18701171875 251.45556640625Z" fill="#ea5a47" />
<path d="M542.533447265625 450.9156494140625Q542.533447265625 470.586669921875 528.7637329101562 484.35638427734375Q514.9940185546875 498.1260986328125 495.322998046875 498.1260986328125Q475.6519775390625 498.1260986328125 461.88226318359375 484.35638427734375Q448.112548828125 470.586669921875 448.112548828125 450.9156494140625Q448.112548828125 431.24462890625 461.88226318359375 417.47491455078125Q475.6519775390625 403.7052001953125 495.322998046875 403.7052001953125Q514.9940185546875 403.7052001953125 528.7637329101562 417.47491455078125Q542.533447265625 431.24462890625 542.533447265625 450.9156494140625Z" fill="#000000" />
<path d="M872.533447265625 450.9156494140625Q872.533447265625 470.586669921875 858.7637329101562 484.35638427734375Q844.9940185546875 498.1260986328125 825.322998046875 498.1260986328125Q805.6519775390625 498.1260986328125 791.8822631835938 484.35638427734375Q778.112548828125 470.586669921875 778.112548828125 450.9156494140625Q778.112548828125 431.24462890625 791.8822631835938 417.47491455078125Q805.6519775390625 403.7052001953125 825.322998046875 403.7052001953125Q844.9940185546875 403.7052001953125 858.7637329101562 417.47491455078125Q872.533447265625 431.24462890625 872.533447265625 450.9156494140625Z" fill="#000000" />
<path d="M1100 385Q1100 567 971 696Q842 825 660 825Q478 825 349 696Q220 567 220 385Q220 203 349 74Q478 -55 660 -55Q842 -55 971 74Q1100 203 1100 385ZM1063 385Q1063 218 945 100Q827 -18 660 -18Q493 -18 375 100Q257 218 257 385Q257 552 375 670Q493 788 660 788Q827 788 945 670Q1063 552 1063 385Z" fill="#000000" />
<path d="M633 450Q633 507 592 548Q552 588 495 588Q438 588 398 548Q358 507 358 450Q358 394 398 353Q438 313 495 313Q552 313 592 353Q633 394 633 450ZM566 522Q596 492 596 450Q596 409 566 379Q537 350 495 350Q453 350 424 379Q394 409 394 450Q394 492 424 522Q453 551 495 551Q537 551 566 522Z" fill="#000000" />
<path d="M963 450Q963 507 922 548Q882 588 825 588Q768 588 728 548Q688 507 688 450Q688 394 728 353Q768 313 825 313Q882 313 922 353Q963 394 963 450ZM896 522Q926 492 926 450Q926 409 896 379Q867 350 825 350Q783 350 754 379Q724 409 724 450Q724 492 754 522Q783 551 825 551Q867 551 896 522Z" fill="#000000" />
<path d="M384.2177734375 645.492431640625Q372.3056640625 631.2049560546875 386.5931396484375 619.2928466796875Q399.88250732421875 607.4429321289062 411.79461669921875 621.7304077148438Q440.92034912109375 654.9849243164062 484.27435302734375 659.2973022460938Q519.581298828125 663.109130859375 551.4615478515625 644.0888671875Q566.9337158203125 635.10888671875 576.9118041992188 650.5188598632812Q585.8917846679688 665.9910278320312 570.4818115234375 675.9691162109375Q527.933349609375 700.6640625 480.52471923828125 695.6023559570312Q423.07281494140625 690.1644897460938 384.2177734375 645.492431640625Z" fill="#000000" />
<path d="M750.21923828125 675.6817626953125Q734.037109375 666.1376953125 743.48828125 650.951171875Q748.2138671875 643.35791015625 754.4661865234375 640.928466796875Q760.6256103515625 639.49462890625 768.2188720703125 644.22021484375Q806.278076171875 666.8525390625 848.3984375 656.7227783203125Q884.2664794921875 649.0224609375 907.9610595703125 621.1051025390625Q920.30615234375 607.19287109375 934.2183837890625 619.5379638671875Q940.72314453125 625.166259765625 941.161376953125 631.2327880859375Q941.5067138671875 638.294921875 935.87841796875 644.7996826171875Q904.28564453125 682.0228271484375 857.0943603515625 692.6837158203125Q800.6639404296875 705.495361328125 750.21923828125 675.6817626953125Z" fill="#000000" />
<path d="M787 176Q804 184 796 201Q787 217 771 209Q757 202 659 202Q562 203 549 209Q541 213 535 211Q529 209 524 201Q516 184 533 176Q553 166 659 166Q766 166 787 176Z" fill="#000000" />
</g></svg>