<svg xmlns="http://www.w3.org/2000/svg" viewBox="0 0 2048 2048">
<g transform="matrix(1 0 0 -1 0 2048)">
<path d="M367 170Q378 123 413.0 103.0Q448 83 489 93Q517 99 538.5 118.0Q560 137 569.0 163.0Q578 189 567 215Q552 246 528.5 291.5Q505 337 485.0 389.5Q465 442 459.5 494.0Q454 546 475 592Q486 617 484.5 640.5Q483 664 475.0 684.5Q467 705 458.5 720.0Q450 735 448 743Q443 763 418.0 767.0Q393 771 359.0 762.0Q325 753 291.5 733.5Q258 714 235.0 687.0Q212 660 212 628Q211 617 225.0 578.5Q239 540 260.5 485.5Q282 431 304.5 372.0Q327 313 344.5 259.5Q362 206 367 170Z" fill="#3f3f3f" />
<path d="M200.749755859375 711.662841796875Q200.749755859375 715.423828125 199.321533203125 718.75634765625Q197.893310546875 722.0888671875 195.3701171875 724.612060546875Q192.846923828125 727.13525390625 189.5382080078125 728.5634765625Q186.2294921875 729.99169921875 182.4208984375 729.99169921875Q178.6123046875 729.99169921875 175.3035888671875 728.5634765625Q171.994873046875 727.13525390625 169.4716796875 724.612060546875Q166.948486328125 722.0888671875 165.520263671875 718.75634765625Q164.092041015625 715.423828125 164.092041015625 711.662841796875Q164.092041015625 707.854248046875 165.520263671875 704.521728515625Q166.948486328125 701.189208984375 169.4716796875 698.666015625Q171.994873046875 696.142822265625 175.3035888671875 694.7384033203125Q178.6123046875 693.333984375 182.4208984375 693.333984375Q186.2294921875 693.333984375 189.5382080078125 694.7384033203125Q192.846923828125 696.142822265625 195.3701171875 698.666015625Q197.893310546875 701.189208984375 199.321533203125 704.521728515625Q200.749755859375 707.854248046875 200.749755859375 711.662841796875Z" fill="#3f3f3f" />
<path d="M234.031982421875 780.6859130859375Q232.31060791015625 784.0274047851562 229.51641845703125 786.3345336914062Q226.72222900390625 788.6416625976562 223.32562255859375 789.7285766601562Q219.92901611328125 790.8154907226562 216.33566284179688 790.5700378417969Q212.7423095703125 790.3245849609375 209.3585205078125 788.5814208984375Q205.9747314453125 786.8382568359375 203.68875122070312 784.0549621582031Q201.40277099609375 781.2716674804688 200.31585693359375 777.8750610351562Q199.22894287109375 774.4784545898438 199.48529052734375 770.8639526367188Q199.74163818359375 767.2494506835938 201.4630126953125 763.907958984375Q203.2061767578125 760.524169921875 206.0003662109375 758.217041015625Q208.7945556640625 755.909912109375 212.191162109375 754.822998046875Q215.5877685546875 753.736083984375 219.17022705078125 754.002685546875Q222.752685546875 754.269287109375 226.136474609375 756.012451171875Q229.520263671875 757.755615234375 231.817138671875 760.5177612304688Q234.114013671875 763.2799072265625 235.200927734375 766.676513671875Q236.287841796875 770.0731201171875 236.031494140625 773.6876220703125Q235.775146484375 777.3021240234375 234.031982421875 780.6859130859375Z" fill="#3f3f3f" />
<path d="M283.22125244140625 828.4292602539062Q281.34075927734375 831.6839599609375 278.43853759765625 833.853759765625Q275.53631591796875 836.0235595703125 272.0911865234375 836.9454956054688Q268.64605712890625 837.867431640625 265.0686340332031 837.4490356445312Q261.4912109375 837.0306396484375 258.1953125 835.1263427734375Q254.8994140625 833.2220458984375 252.75021362304688 830.3317260742188Q250.60101318359375 827.44140625 249.6790771484375 823.9962768554688Q248.75714111328125 820.5511474609375 249.18743896484375 816.953125Q249.61773681640625 813.3551025390625 251.49822998046875 810.1004028320312Q253.40252685546875 806.8045043945312 256.30474853515625 804.6347045898438Q259.20697021484375 802.4649047851562 262.652099609375 801.54296875Q266.09722900390625 800.6210327148438 269.6627502441406 801.0600280761719Q273.228271484375 801.4990234375 276.524169921875 803.4033203125Q279.820068359375 805.3076171875 281.9811706542969 808.1773376464844Q284.14227294921875 811.0470581054688 285.064208984375 814.4921875Q285.98614501953125 817.9373168945312 285.55584716796875 821.5353393554688Q285.12554931640625 825.1333618164062 283.22125244140625 828.4292602539062Z" fill="#3f3f3f" />
<path d="M349.749755859375 841.662841796875Q349.749755859375 845.423828125 348.321533203125 848.75634765625Q346.893310546875 852.0888671875 344.3701171875 854.612060546875Q341.846923828125 857.13525390625 338.5382080078125 858.5634765625Q335.2294921875 859.99169921875 331.4208984375 859.99169921875Q327.6123046875 859.99169921875 324.3035888671875 858.5634765625Q320.994873046875 857.13525390625 318.4716796875 854.612060546875Q315.948486328125 852.0888671875 314.520263671875 848.75634765625Q313.092041015625 845.423828125 313.092041015625 841.662841796875Q313.092041015625 837.854248046875 314.520263671875 834.521728515625Q315.948486328125 831.189208984375 318.4716796875 828.666015625Q320.994873046875 826.142822265625 324.3035888671875 824.7384033203125Q327.6123046875 823.333984375 331.4208984375 823.333984375Q335.2294921875 823.333984375 338.5382080078125 824.7384033203125Q341.846923828125 826.142822265625 344.3701171875 828.666015625Q346.893310546875 831.189208984375 348.321533203125 834.521728515625Q349.749755859375 837.854248046875 349.749755859375 841.662841796875Z" fill="#3f3f3f" />
<path d="M920 -50Q909 -98 874.0 -117.5Q839 -137 798 -127Q757 -118 737.0 -86.0Q717 -54 734 -15Q753 26 775.0 82.5Q797 139 809.0 209.0Q821 279 810 359Q805 398 811.5 431.5Q818 465 827.0 488.5Q836 512 839 523Q844 543 869.5 546.0Q895 549 930.5 539.0Q966 529 1000.5 508.5Q1035 488 1058.0 460.0Q1081 432 1082 400Q1082 389 1067.5 351.0Q1053 313 1030.5 260.0Q1008 207 984.5 149.0Q961 91 943.0 38.5Q925 -14 920 -50Z" fill="#3f3f3f" />
<path d="M1129.749755859375 501.662841796875Q1129.749755859375 505.423828125 1128.321533203125 508.75634765625Q1126.893310546875 512.0888671875 1124.3701171875 514.612060546875Q1121.846923828125 517.13525390625 1118.5382080078125 518.5634765625Q1115.2294921875 519.99169921875 1111.4208984375 519.99169921875Q1107.6123046875 519.99169921875 1104.3035888671875 518.5634765625Q1100.994873046875 517.13525390625 1098.4716796875 514.612060546875Q1095.948486328125 512.0888671875 1094.520263671875 508.75634765625Q1093.092041015625 505.423828125 1093.092041015625 501.662841796875Q1093.092041015625 497.854248046875 1094.520263671875 494.521728515625Q1095.948486328125 491.189208984375 1098.4716796875 488.666015625Q1100.994873046875 486.142822265625 1104.3035888671875 484.7384033203125Q1107.6123046875 483.333984375 1111.4208984375 483.333984375Q1115.2294921875 483.333984375 1118.5382080078125 484.7384033203125Q1121.846923828125 486.142822265625 1124.3701171875 488.666015625Q1126.893310546875 491.189208984375 1128.321533203125 494.521728515625Q1129.749755859375 497.854248046875 1129.749755859375 501.662841796875Z" fill="#3f3f3f" />
<path d="M1080.9818115234375 568.40966796875Q1077.6403198242188 570.1406860351562 1074.0221557617188 570.4055786132812Q1070.4039916992188 570.6704711914062 1067.0009155273438 569.5900268554688Q1063.5978393554688 568.5095825195312 1060.8060607910156 566.2272644042969Q1058.0142822265625 563.9449462890625 1056.2613525390625 560.5611572265625Q1054.5084228515625 557.1773681640625 1054.2544860839844 553.5803527832031Q1054.0005493164062 549.9833374023438 1055.0809936523438 546.5802612304688Q1056.1614379882812 543.1771850585938 1058.4649047851562 540.3744506835938Q1060.7683715820312 537.5717163085938 1064.10986328125 535.8406982421875Q1067.49365234375 534.0877685546875 1071.11181640625 533.8228759765625Q1074.72998046875 533.5579833984375 1078.133056640625 534.638427734375Q1081.5361328125 535.7188720703125 1084.3067626953125 538.0121459960938Q1087.077392578125 540.305419921875 1088.830322265625 543.689208984375Q1090.583251953125 547.072998046875 1090.8583374023438 550.6590576171875Q1091.1334228515625 554.2451171875 1090.052978515625 557.648193359375Q1088.9725341796875 561.05126953125 1086.6690673828125 563.85400390625Q1084.3656005859375 566.65673828125 1080.9818115234375 568.40966796875Z" fill="#3f3f3f" />
<path d="M1025.3204956054688 608.8840942382812Q1022.0657958984375 610.7645874023438 1018.4677734375 611.1948852539062Q1014.8697509765625 611.6251831054688 1011.4246215820312 610.7032470703125Q1007.9794921875 609.7813110351562 1005.0891723632812 607.6321105957031Q1002.1988525390625 605.48291015625 1000.2945556640625 602.18701171875Q998.3902587890625 598.89111328125 997.9718627929688 595.3136901855469Q997.553466796875 591.7362670898438 998.4754028320312 588.2911376953125Q999.3973388671875 584.8460083007812 1001.567138671875 581.9437866210938Q1003.7369384765625 579.0415649414062 1006.9916381835938 577.1610717773438Q1010.2875366210938 575.2567749023438 1013.8855590820312 574.8264770507812Q1017.4835815429688 574.3961791992188 1020.9287109375 575.318115234375Q1024.3738403320312 576.2400512695312 1027.2435607910156 578.4011535644531Q1030.11328125 580.562255859375 1032.017578125 583.858154296875Q1033.921875 587.154052734375 1034.3608703613281 590.7195739746094Q1034.7998657226562 594.2850952148438 1033.8779296875 597.730224609375Q1032.9559936523438 601.1753540039062 1030.7861938476562 604.0775756835938Q1028.6163940429688 606.9797973632812 1025.3204956054688 608.8840942382812Z" fill="#3f3f3f" />
<path d="M971.749755859375 615.662841796875Q971.749755859375 619.423828125 970.321533203125 622.75634765625Q968.893310546875 626.0888671875 966.3701171875 628.612060546875Q963.846923828125 631.13525390625 960.5382080078125 632.5634765625Q957.2294921875 633.99169921875 953.4208984375 633.99169921875Q949.6123046875 633.99169921875 946.3035888671875 632.5634765625Q942.994873046875 631.13525390625 940.4716796875 628.612060546875Q937.948486328125 626.0888671875 936.520263671875 622.75634765625Q935.092041015625 619.423828125 935.092041015625 615.662841796875Q935.092041015625 611.854248046875 936.520263671875 608.521728515625Q937.948486328125 605.189208984375 940.4716796875 602.666015625Q942.994873046875 600.142822265625 946.3035888671875 598.7384033203125Q949.6123046875 597.333984375 953.4208984375 597.333984375Q957.2294921875 597.333984375 960.5382080078125 598.7384033203125Q963.846923828125 600.142822265625 966.3701171875 602.666015625Q968.893310546875 605.189208984375 970.321533203125 608.521728515625Q971.749755859375 611.854248046875 971.749755859375 615.662841796875Z" fill="#3f3f3f" />
<path d="M904 630Q909 648 904.5 662.5Q900 677 888 680Q877 682 865.0 670.5Q853 659 847 641Q842 622 846.5 607.5Q851 593 863 591Q875 589 886.5 600.5Q898 612 904 630Z" fill="#3f3f3f" />
<path d="M439.82861328125 867.382080078125Q436.5745849609375 885.779052734375 426.25933837890625 896.9199829101562Q415.944091796875 908.0609130859375 403.8232421875 905.5908203125Q393.0360107421875 902.64990234375 387.17041015625 887.0975952148438Q381.3048095703125 871.5452880859375 383.6566162109375 852.7169189453125Q387.342041015625 833.417724609375 397.65728759765625 822.2767944335938Q407.9725341796875 811.1358642578125 419.6619873046875 814.5081787109375Q431.3514404296875 817.8804931640625 436.76593017578125 833.2171020507812Q442.180419921875 848.5537109375 439.82861328125 867.382080078125Z" fill="#3f3f3f" />
<path d="M347 174Q347 172 347 170Q359 116 402 91Q441 67 491 78Q541 89 562 133Q583 177 563 224Q563 225 563 225Q473 390 493 579Q499 636 487 695Q477 746 461 763Q418 817 309 771Q197 725 195 637Q194 618 249 471Q335 242 347 174ZM383 176Q373 247 284 484Q231 624 231 636Q233 700 323 737Q407 772 433 740Q433 739 434 738Q443 730 451 687Q462 635 457 583Q436 383 530 209Q543 177 529 149Q516 121 483 114Q447 106 420 122Q392 139 383 176Z" fill="#000000" />
<path d="M207 719Q206 748 177 747Q166 747 157 738Q149 729 150 718Q150 706 158 698Q167 689 179 690Q191 690 199 699Q207 707 207 719ZM188 719Q188 709 178 709Q169 709 169 718Q168 728 178 728Q187 728 188 719Z" fill="#000000" />
<path d="M243.60455322265625 786.5728759765625Q229.817626953125 811.6357421875 204.7547607421875 797.8488159179688Q179.69189453125 784.0618896484375 193.47882080078125 758.9990234375Q207.2657470703125 733.9361572265625 232.32861328125 747.7230834960938Q257.3914794921875 761.510009765625 243.60455322265625 786.5728759765625ZM226.74407958984375 777.2980346679688Q231.5068359375 768.6399536132812 223.304443359375 764.1278686523438Q214.6463623046875 759.3651123046875 209.88360595703125 768.023193359375Q205.37152099609375 776.2255859375 214.02960205078125 780.9883422851562Q222.23199462890625 785.5004272460938 226.74407958984375 777.2980346679688Z" fill="#000000" />
<path d="M294 831Q288 841 276 843Q264 846 254 840Q244 834 242 822Q239 811 245 801Q260 776 284 791Q309 806 294 831ZM277 821Q282 812 274 807Q266 802 261 811Q256 819 264 824Q272 829 277 821Z" fill="#000000" />
<path d="M358 844Q357 872 329 871Q317 871 309 863Q300 854 301 842Q301 814 330 814Q342 815 350 823Q358 832 358 844ZM339 843Q339 834 330 833Q320 833 320 843Q320 852 329 852Q339 853 339 843Z" fill="#000000" />
<path d="M936 -49Q947 18 1039 250Q1096 393 1095 412Q1093 499 979 546Q868 593 829 542Q783 502 794 359Q807 190 724 15Q724 14 723 14Q703 -33 722 -80Q742 -131 792 -142Q842 -153 882 -129Q923 -105 936 -52Q936 -51 936 -49ZM900 -42Q900 -42 900 -42Q892 -81 863 -98Q836 -114 800 -106Q769 -99 756 -67Q743 -34 757 -1Q844 183 830 361Q821 489 854 515Q856 516 857 518Q879 549 965 513Q1057 474 1059 411Q1059 399 1005 264Q912 31 900 -42Z" fill="#000000" />
<path d="M1139 496Q1139 525 1110 525Q1098 525 1090 516Q1081 508 1081 496Q1081 468 1110 468Q1139 468 1139 496ZM1120 496Q1120 487 1110 487Q1101 487 1101 496Q1101 506 1110 506Q1120 506 1120 496Z" fill="#000000" />
<path d="M1085 575Q1060 588 1046 563Q1041 552 1045 541Q1048 529 1059 524Q1084 511 1097 536Q1103 547 1099 558Q1095 569 1085 575ZM1076 558Q1085 554 1080 545Q1076 537 1067 541Q1064 543 1063 547Q1062 550 1063 554Q1066 558 1069 559Q1072 560 1076 558Z" fill="#000000" />
<path d="M1032 615Q1022 621 1011 617Q999 614 993 604Q979 579 1004 565Q1014 559 1025 562Q1037 565 1043 576Q1057 600 1032 615ZM1023 598Q1031 593 1026 585Q1021 577 1013 582Q1005 586 1010 595Q1014 603 1023 598Z" fill="#000000" />
<path d="M987 616Q987 645 958 645Q930 645 930 616Q930 604 938 596Q946 588 958 588Q987 588 987 616ZM968 616Q968 607 958 607Q949 607 949 616Q949 626 958 626Q968 626 968 616Z" fill="#000000" />
<path d="M923 629Q928 682 883 685Q838 689 832 636Q827 583 872 579Q891 578 906 593Q921 608 923 629ZM902 631Q898 599 874 600Q865 601 859 610Q852 620 854 634Q857 666 881 664Q905 663 902 631Z" fill="#000000" />
<path d="M457 864Q454 886 439 900Q424 915 405 913Q360 908 367 854Q374 800 419 805Q464 811 457 864ZM435 862Q440 829 416 827Q407 826 399 833Q390 842 388 856Q386 871 392 881Q398 891 407 892Q431 895 435 862Z" fill="#000000" />
</g></svg>