<svg xmlns="http://www.w3.org/2000/svg" viewBox="0 0 2048 2048">
<g transform="matrix(1 0 0 -1 0 2048)">
<path d="M588 563Q588 522 583.5 471.0Q579 420 573.0 373.0Q567 326 562.5 295.5Q558 265 558 265L567 -34Q567 -49 556.5 -59.5Q546 -70 531 -70Q516 -70 505.0 -59.5Q494 -49 494 -34L511 263Q511 263 510.5 288.0Q510 313 508.0 354.0Q506 395 504.5 444.5Q503 494 501.0 545.0Q499 596 497.5 640.0Q496 684 495.0 714.0Q494 744 494 752Q494 764 508.0 752.0Q522 740 541.0 711.0Q560 682 574.0 643.0Q588 604 588 563Z" fill="#d0cfce" />
<path d="M708 738Q708 738 707.5 716.0Q707 694 706.5 660.0Q706 626 706 589Q706 549 717.5 523.5Q729 498 746 487L731 -34Q731 -49 742.0 -59.5Q753 -70 768 -70Q783 -70 794.0 -59.5Q805 -49 805 -34L804 487Q822 498 833.0 523.5Q844 549 844 589Q844 626 843.5 660.0Q843 694 842.5 716.0Q842 738 842 738Z" fill="#d0cfce" />
<path d="M606 563Q606 640 557 721Q538 751 521 766Q509 776 499 776Q487 776 480 767Q476 760 476 752V751L484 508L493 264L476 -33V-34Q476 -89 531 -89Q554 -89 570 -72Q586 -56 586 -34V-33L576 264Q606 454 606 563ZM570 563Q570 457 540 268Q540 268 540 268Q540 268 540 268Q540 268 540 267Q540 267 539 267Q539 266 539 266Q539 265 539 265V264L549 -34Q549 -52 531 -52Q513 -52 512 -34L530 263L521 509L512 752Z" fill="#000000" />
<path d="M861 739Q860 757 842 756Q833 756 828 751Q824 747 824 738Q826 662 826 589Q826 521 795 503Q786 498 786 487V-34Q786 -52 768 -52Q750 -52 750 -34L765 487Q765 498 755 503Q724 521 724 589Q724 662 727 738Q727 747 722 751Q718 756 709 756Q690 757 690 739Q688 662 688 589Q688 509 728 478L713 -33Q713 -33 713 -34Q713 -89 768 -89Q791 -89 807 -72Q823 -56 823 -34V478Q863 509 863 589Q863 662 861 739Z" fill="#000000" />
<path d="M794 738Q794 756 775 756Q757 756 757 738V562Q757 544 775 544Q794 544 794 562Z" fill="#000000" />
</g></svg>