<svg xmlns="http://www.w3.org/2000/svg" viewBox="0 0 2048 2048">
<g transform="matrix(1 0 0 -1 0 2048)">
<path d="M222 388 488 219 572 351 306 520Z" fill="#d0cfce" />
<path d="M605 367Q488 425 396 518Q392 523 392 523Q423 570 468 606Q520 660 587.5 688.5Q655 717 728.0 717.0Q801 717 870 686Q938 656 987.5 602.0Q1037 548 1061.5 479.0Q1086 410 1080 335Q1075 260 1040.5 195.5Q1006 131 949.5 84.5Q893 38 821 18Q748 -2 676.0 8.5Q604 19 541.0 57.0Q478 95 435 156Q410 179 392 208Q392 208 396 213Q480 301 594 343Q645 361 698 366Z" fill="#fcea2b" />
<path d="M915 660Q984 616 1026.0 548.0Q1068 480 1077.5 401.0Q1087 322 1060 244Q1033 166 976.5 110.0Q920 54 845.0 26.5Q770 -1 688 7Q764 14 828.5 50.0Q893 86 938.5 144.5Q984 203 1002 277Q1020 351 1006.5 423.5Q993 496 952.0 557.5Q911 619 847 660Q775 706 690 714Q812 726 915 660Z" fill="#f1b31c" />
<path d="M590 361Q589 361 588 361Q588 361 588 360Q470 316 383 226Q383 226 383 226Q377 220 376 218Q370 209 376 198Q395 168 421 144Q489 48 600 9Q712 -31 826 1Q940 32 1015 124Q1090 216 1099 334Q1107 452 1046 553Q985 655 877 703Q769 751 652 728Q537 705 456 619Q409 583 376 534Q370 523 376 513Q377 512 383 506Q461 421 590 361ZM700 348Q718 349 717 368Q715 386 697 384Q668 381 641 375Q638 380 630 384Q495 441 415 525Q443 562 479 592Q480 592 481 593Q555 671 660 692Q764 713 862 669Q960 626 1015 535Q1070 443 1062 336Q1054 230 987 147Q919 65 816 36Q713 7 612 43Q512 79 450 166Q449 168 448 169Q429 186 415 206Q494 286 600 326Q649 343 700 348Z" fill="#000000" />
<path d="M317 331Q325 326 331 327Q338 328 343 336Q352 352 337 362L259 411L301 478L436 393Q443 388 450 389Q456 391 461 398Q471 414 455 424L305 519Q290 529 280 513L218 415Q208 400 224 390Z" fill="#000000" />
</g></svg>