<svg xmlns="http://www.w3.org/2000/svg" viewBox="0 0 2048 2048">
<g transform="matrix(1 0 0 -1 0 2048)">
<path d="M178 45Q313 -5 436.0 -25.5Q559 -46 665.0 -47.0Q771 -48 856.5 -36.5Q942 -25 1003.0 -9.0Q1064 7 1096.5 19.0Q1129 31 1129 31V466Q1108 497 1090.0 506.0Q1072 515 1057.5 510.5Q1043 506 1033.0 495.5Q1023 485 1017.5 476.0Q1012 467 1012 467V383L858 381L856 754Q833 784 814.0 792.5Q795 801 780.5 797.0Q766 793 755.5 783.0Q745 773 739.5 764.5Q734 756 734 756L731 541H580L585 752Q563 782 544.5 790.5Q526 799 511.0 795.0Q496 791 485.0 780.5Q474 770 468.5 761.0Q463 752 463 752L459 375L325 373L320 456Q295 503 272.0 516.5Q249 530 230.5 523.5Q212 517 198.5 500.5Q185 484 177.5 470.0Q170 456 170 456Z" fill="#ffffff" />
<path d="M659 288 613 285 600 365 567 456 659 445Z" fill="#d0cfce" />
<path d="M659.0 280.0 705.0 277.0 718.0 357.0 751.0 448.0 659.0 437.0Z" fill="#9b9b9a" />
<path d="M618 271Q605 271 575.5 275.5Q546 280 509.5 286.5Q473 293 439.0 300.0Q405 307 383.0 311.5Q361 316 361 316Q361 316 376.5 304.0Q392 292 416.0 273.0Q440 254 465.0 231.0Q490 208 510.0 185.5Q530 163 537 145Q546 123 552.0 89.5Q558 56 561.5 23.0Q565 -10 566.5 -32.5Q568 -55 568 -55H659L660 271Z" fill="#d0cfce" />
<path d="M660 -66Q660 -66 633.5 -61.5Q607 -57 543 -64Q522 -66 482.0 -58.5Q442 -51 392.5 -38.0Q343 -25 292.5 -10.0Q242 5 199.5 19.0Q157 33 131.0 42.0Q105 51 105 51V-168H660Z" fill="#d0cfce" />
<path d="M660.0 -66.0Q660.0 -66.0 686.5 -61.5Q713.0 -57.0 777.0 -64.0Q798.0 -66.0 838.0 -58.5Q878.0 -51.0 927.5 -38.0Q977.0 -25.0 1027.5 -10.0Q1078.0 5.0 1120.5 19.0Q1163.0 33.0 1189.0 42.0Q1215.0 51.0 1215.0 51.0V-168.0H660.0Z" fill="#9b9b9a" />
<path d="M964 388Q964 370 982 370Q1001 370 1001 388V465Q1001 483 982 483Q964 483 964 465Z" fill="#61b2e4" />
<path d="M954 388Q954 370 973 370Q991 370 991 388V490Q1002 522 1033 537Q1064 553 1098 542Q1137 529 1151 491V483Q1138 480 1138 465V111Q1138 93 1156 93H1169Q1188 93 1188 111V495Q1188 498 1187 501Q1167 558 1109 577Q1061 593 1016 570Q971 547 955 499Q954 496 954 493Z" fill="#61b2e4" />
<path d="M701 271Q714 271 743.5 275.5Q773 280 809.5 286.5Q846 293 880.0 300.0Q914 307 936.0 311.5Q958 316 958 316Q958 316 942.5 304.0Q927 292 903.5 273.0Q880 254 854.5 231.0Q829 208 809.0 185.5Q789 163 782 145Q773 123 767.0 89.5Q761 56 757.5 23.0Q754 -10 752.5 -32.5Q751 -55 751 -55H659V271Z" fill="#9b9b9a" />
<path d="M873 376Q876 375 880 375Q883 375 885 375H892Q910 375 910 394V777Q910 780 909 783Q889 841 832 860Q783 875 738 852Q693 829 677 781Q677 779 677 776V555Q677 537 695 537H706Q725 537 725 555V749Q729 812 792 809Q793 809 794 809Q854 812 861 755Q860 752 860 747V394Q860 379 873 376Z" fill="#61b2e4" />
<path d="M323 388Q323 370 342 370Q360 370 360 388V493Q360 496 359 498Q335 584 245 583Q154 588 127 500Q127 497 127 495V111Q127 93 145 93H158Q176 93 176 111V465Q176 480 163 483V492Q182 550 244 546Q245 546 245 546Q306 547 323 490Z" fill="#92d3f5" />
<path d="M601 765Q590 762 590 747V555Q590 537 608 537H619Q638 537 638 555V776Q638 778 637 781Q612 867 523 866Q432 870 405 783Q404 780 404 777V394Q404 375 423 375H436Q454 375 454 394Q454 409 441 412V774Q460 832 522 829Q522 829 523 829Q583 830 601 773Z" fill="#92d3f5" />
<path d="M1229 -196Q1247 -196 1247 -178V67Q1247 71 1245 75Q1242 83 1235 86Q1229 88 1221 84Q954 -37 660 -37Q366 -37 99 84Q95 86 91 86Q73 86 73 67V-178Q73 -196 91 -196ZM1210 -160H110V39Q373 -73 660 -74Q947 -73 1210 39Z" fill="#000000" />
<path d="M299 350Q291 353 285 350Q279 347 276 339Q270 321 287 315Q472 249 668 252Q857 255 1033 322Q1050 329 1044 346Q1037 363 1020 357Q850 292 667 289Q478 286 299 350Z" fill="#000000" />
<path d="M530 485Q513 491 507 474Q503 466 506 460Q509 454 518 451Q658 400 798 453Q815 460 809 477Q806 486 800 488Q794 491 785 488Q658 439 530 485Z" fill="#000000" />
<path d="M299 350Q282 356 276 338Q273 330 276 324Q279 318 287 315Q402 275 474 177Q546 79 550 -42Q551 -51 556 -56Q560 -60 569 -60Q588 -59 587 -41Q582 92 504 199Q425 306 299 350Z" fill="#000000" />
<path d="M1033 322Q1050 328 1044 346Q1038 363 1021 357Q895 313 816 206Q738 99 733 -34Q732 -52 751 -53Q769 -54 770 -35Q774 86 846 184Q918 282 1033 322Z" fill="#000000" />
<path d="M536 481Q523 493 510 480Q498 466 511 454Q539 429 556 397Q584 345 583 286Q583 267 601 267Q619 267 620 285Q621 354 588 414Q568 452 536 481Z" fill="#000000" />
<path d="M802 454Q816 466 803 480Q797 487 791 487Q784 487 778 481Q746 452 725 414Q693 354 694 285Q694 267 713 267Q731 267 731 286Q730 345 758 397Q775 429 802 454Z" fill="#000000" />
<path d="M976 388Q976 370 994 370Q1013 370 1013 388V456Q1013 479 1029 495Q1046 512 1069 512Q1126 512 1126 456V112Q1126 93 1144 93Q1162 93 1162 112V456Q1162 494 1135 521Q1108 548 1070 549Q1031 549 1004 522Q976 494 976 456Z" fill="#000000" />
<path d="M700 555Q700 537 718 537Q737 537 737 555V738Q737 761 753 778Q770 794 794 794Q850 794 850 738V394Q850 375 868 375Q887 375 887 394V738Q886 776 859 803Q832 831 794 831Q755 831 728 804Q700 777 700 738Z" fill="#000000" />
<path d="M302 388Q302 370 320 370Q338 370 338 388V456Q338 494 311 522Q284 549 245 549Q206 549 179 522Q152 494 152 456V112Q152 93 170 93Q188 93 188 112V456Q188 512 245 512Q268 512 285 496Q302 479 302 456Z" fill="#000000" />
<path d="M578 555Q578 537 596 537Q614 537 614 555V738Q614 776 587 804Q560 831 521 831Q482 831 455 804Q428 776 428 738V394Q428 375 446 375Q464 375 464 394V738Q464 794 521 794Q544 794 561 778Q578 761 578 738Z" fill="#000000" />
</g></svg>