<svg xmlns="http://www.w3.org/2000/svg" viewBox="0 0 2048 2048">
<g transform="matrix(1 0 0 -1 0 2048)">
<path d="M660 825Q751 825 831.0 791.0Q911 757 971.0 696.5Q1031 636 1065.5 556.0Q1100 476 1100 385Q1100 294 1066.0 214.0Q1032 134 971.5 73.5Q911 13 831.0 -21.0Q751 -55 660 -55Q569 -55 489.0 -21.0Q409 13 348.5 73.5Q288 134 254.0 214.0Q220 294 220 385Q220 476 254.0 556.0Q288 636 348.5 696.5Q409 757 489.0 791.0Q569 825 660 825Z" fill="#92d3f5" />
<path d="M214 380Q234 422 262 422Q290 422 310.0 380.0Q330 338 330 278Q325 146 271 26Q267 18 261.5 18.0Q256 18 253 26Q198 146 194 278Q193 331 214 380Z" fill="#ffffff" />
<path d="M1002 380Q1022 422 1050 422Q1078 422 1098.0 380.0Q1118 338 1118 278Q1113 146 1059 26Q1055 18 1049.5 18.0Q1044 18 1041 26Q986 146 982 278Q981 331 1002 380Z" fill="#ffffff" />
<path d="M392 88Q403 109 427 110Q447 110 462.0 87.5Q477 65 477 34Q472 -39 433 -100Q432 -103 430 -104Q423 -107 420 -100Q381 -39 377 34Q376 63 392 88Z" fill="#ffffff" />
<path d="M869 88Q880 109 904 110Q924 110 939.0 87.5Q954 65 954 34Q949 -39 910 -100Q909 -103 907 -104Q900 -107 897 -100Q858 -39 854 34Q853 63 869 88Z" fill="#ffffff" />
<path d="M816 142Q846 142 867.5 163.5Q889 185 889 215Q889 245 867.5 266.5Q846 288 816 288H504Q474 288 452.5 266.5Q431 245 431 215Q431 185 452.5 163.5Q474 142 504 142Z" fill="#ffffff" />
<path d="M886 737Q861 733 843 752Q830 765 808.5 766.5Q787 768 765.5 761.0Q744 754 729.5 741.5Q715 729 715 715Q715 687 662.5 676.0Q610 665 513 678Q475 684 453.5 681.0Q432 678 419.5 667.5Q407 657 397.0 640.0Q387 623 372.5 600.0Q358 577 330 550Q303 522 283.5 518.0Q264 514 251.5 523.5Q239 533 232.5 547.5Q226 562 223.0 574.5Q220 587 220 587Q202 623 209.5 651.5Q217 680 237.0 693.0Q257 706 275 697Q289 690 305.0 702.5Q321 715 335.0 735.5Q349 756 358.0 772.0Q367 788 367 788Q367 788 379.0 806.0Q391 824 412.5 849.0Q434 874 462.0 895.5Q490 917 522.0 925.0Q554 933 587 917Q669 875 710.5 868.5Q752 862 752 862Q752 862 769.0 861.0Q786 860 811.0 857.0Q836 854 861.0 846.0Q886 838 902.0 824.0Q918 810 917 788Q915 762 906.0 750.5Q897 739 886 737Z" fill="#ffffff" />
<path d="M810 -29Q827 -23 821 -6Q814 12 797 6Q670 -40 540 0Q523 5 517 -12Q515 -21 518 -27Q521 -33 530 -35Q671 -79 810 -29Z" fill="#000000" />
<path d="M945 720Q938 726 932 725Q925 725 919 718Q908 704 921 692Q1025 604 1054 472Q1058 454 1076 458Q1094 462 1090 480Q1058 624 945 720Z" fill="#000000" />
<path d="M231 482Q229 473 232 468Q236 462 245 460Q253 458 259 462Q264 465 266 474Q271 492 276 509Q282 527 264 532Q247 538 241 521Q235 502 231 482Z" fill="#000000" />
<path d="M196 385Q174 333 175 278Q180 142 236 19Q245 0 262 0Q279 0 287 18Q344 142 348 278Q348 342 327 388Q302 440 262 440Q222 440 197 388L196 385ZM230 372 231 373Q245 404 262 403Q278 403 293 372Q312 334 312 279Q307 160 262 51Q216 160 212 279Q211 328 230 372Z" fill="#000000" />
<path d="M984 385Q962 333 964 278Q968 142 1024 19Q1033 0 1050 0Q1067 0 1076 18Q1132 142 1137 278Q1137 342 1115 388Q1090 440 1050 440Q1010 440 985 388L984 385ZM1019 372V373Q1034 404 1050 403Q1067 403 1082 372Q1100 334 1100 279Q1096 160 1050 51Q1004 160 1000 279Q999 328 1019 372Z" fill="#000000" />
<path d="M381 106 379 102Q377 100 376 97Q358 68 359 33Q363 -44 404 -109Q415 -131 438 -120Q445 -117 449 -109Q490 -44 495 33V34Q495 71 477 98Q457 128 427 128H426Q398 127 382 106ZM403 70 408 79Q414 91 427 92Q458 91 458 34Q455 -25 427 -76Q399 -25 395 34Q395 53 403 70Z" fill="#000000" />
<path d="M858 106 856 102Q854 100 852 97Q835 68 835 33Q840 -44 881 -109Q892 -131 914 -120Q922 -117 926 -109Q967 -44 972 33V34Q972 71 954 98Q934 128 904 128H903H902Q874 127 858 106ZM880 70 884 79Q891 91 904 92Q935 91 935 34Q931 -25 904 -76Q876 -25 872 34Q872 53 880 70ZM912 -90Q912 -90 913 -91L912 -90Q912 -90 912 -90Z" fill="#000000" />
<path d="M816 123Q854 123 881 150Q907 177 908 215Q907 253 881 280Q854 307 816 307H504Q466 307 439 280Q413 253 413 215Q413 177 439 150Q466 123 504 123ZM816 160H504Q449 160 449 215Q449 270 504 270H816Q871 270 871 215Q871 160 816 160Z" fill="#000000" />
<path d="M532 279Q532 298 513 298Q495 298 495 279V151Q495 133 513 133Q532 133 532 151Z" fill="#000000" />
<path d="M624 279Q624 298 605 298Q587 298 587 279V151Q587 133 605 133Q624 133 624 151Z" fill="#000000" />
<path d="M715 279Q715 298 696 298Q678 298 678 279V151Q678 133 696 133Q715 133 715 151Z" fill="#000000" />
<path d="M807 279Q807 298 788 298Q770 298 770 279V151Q770 133 788 133Q807 133 807 151Z" fill="#000000" />
<path d="M886 737 890 719Q931 728 935 787Q940 849 840 870Q796 880 752 880Q701 880 595 933Q515 973 423 886Q380 846 351 798V797H350Q337 770 320 746Q292 709 283 713Q238 736 205 686Q174 640 202 581Q208 546 226 523Q246 497 275 499Q307 501 343 537Q375 569 406 619Q425 651 438 657Q458 668 511 660Q608 646 666 658Q733 672 733 715Q733 731 771 743Q812 757 830 739Q854 713 889 719ZM883 755Q867 753 857 764L856 765Q822 799 760 778Q697 757 697 715Q697 702 659 694Q606 684 516 696Q451 706 421 690Q399 679 374 638Q346 592 317 563Q291 536 273 535Q263 535 255 545Q242 562 238 589V592L236 595Q216 636 235 666Q250 688 267 680Q320 654 383 779Q409 823 448 860Q521 929 579 900Q692 843 752 843Q792 843 832 834Q901 820 898 790Q896 758 883 755Z" fill="#000000" />
<path d="M550 476Q550 499 534.0 515.0Q518 531 495 531Q472 531 456.0 515.0Q440 499 440 476Q440 454 456.0 437.5Q472 421 495 421Q518 421 534.0 437.5Q550 454 550 476Z" fill="#000000" />
<path d="M880 476Q880 499 864.0 515.0Q848 531 825 531Q802 531 786.0 515.0Q770 499 770 476Q770 454 786.0 437.5Q802 421 825 421Q848 421 864.0 437.5Q880 454 880 476Z" fill="#000000" />
</g></svg>