<svg xmlns="http://www.w3.org/2000/svg" viewBox="0 0 2048 2048">
<g transform="matrix(1 0 0 -1 0 2048)">
<path d="M275 752V18H642V752Z" fill="#d0cfce" />
<path d="M1155 202V385H642V202Z" fill="#ea5a47" />
<path d="M642 202V18H1155V202Z" fill="#d0cfce" />
<path d="M366.2493896484375 659.7275390625V568.3853759765625H532.3048095703125V659.7275390625Z" fill="#92d3f5" />
<path d="M642 715V532H953V715Z" fill="#d0cfce" />
<path d="M257 18Q257 0 275 0H642Q660 0 660 18V752Q660 770 642 770H275Q257 770 257 752ZM293 733H623V37H293Z" fill="#000000" />
<path d="M623 202Q623 183 642 183Q660 183 660 202V367H1137V202Q1137 183 1155 183Q1173 183 1173 202V385Q1173 403 1155 403H642Q623 403 623 385Z" fill="#000000" />
<path d="M1174.0 201.0Q1174.0 220.0 1155.0 220.0Q1137.0 220.0 1137.0 201.0V36.0H660.0V201.0Q660.0 220.0 642.0 220.0Q624.0 220.0 624.0 201.0V18.0Q624.0 0.0 642.0 0.0H1155.0Q1174.0 0.0 1174.0 18.0Z" fill="#000000" />
<path d="M348 568Q348 550 367 550H532Q550 550 550 568V660Q550 678 532 678H367Q348 678 348 660ZM385 642H513V587H385Z" fill="#000000" />
<path d="M623 532Q623 513 642 513H953Q972 513 972 532V715Q972 733 953 733H642Q623 733 623 715ZM660 697H935V550H660Z" fill="#000000" />
<path d="M752.0 678.0Q734.0 678.0 734.0 660.0Q734.0 642.0 752.0 642.0H844.0Q862.0 642.0 862.0 660.0Q862.0 678.0 844.0 678.0Z" fill="#000000" />
<path d="M752.0 623.0Q734.0 623.0 734.0 605.0Q734.0 587.0 752.0 587.0H844.0Q862.0 587.0 862.0 605.0Q862.0 623.0 844.0 623.0Z" fill="#000000" />
<path d="M165 422Q165 403 183 403Q202 403 202 422V495Q202 499 200 503L181 540Q177 548 171 550Q165 552 157 548Q140 540 149 523L165 491Z" fill="#000000" />
<path d="M220 367V422Q220 430 214.5 435.0Q209 440 202 440H165Q157 440 152.0 435.0Q147 430 147 422V367Z" fill="#000000" />
<path d="M238 348Q238 356 234.0 361.5Q230 367 225 367H142Q136 367 132.0 361.5Q128 356 128 348Q128 341 132.0 335.5Q136 330 142 330H225Q230 330 234.0 335.5Q238 341 238 348Z" fill="#000000" />
<path d="M205 81Q215 66 230 76Q238 81 239 88Q240 94 235 102Q194 164 202 236Q209 300 201 351Q200 360 195 364Q190 368 181 366Q163 364 165 346Q172 299 165 240Q156 155 205 81Z" fill="#000000" />
</g></svg>