<svg xmlns="http://www.w3.org/2000/svg" viewBox="0 0 2048 2048">
<g transform="matrix(1 0 0 -1 0 2048)">
<path d="M1065 631 654 726 255 637 654 535Z" fill="#d0cfce" />
<path d="M1067 159 1066 644 654 550 661 53Z" fill="#9b9b9a" />
<path d="M256 166V636L415 592L654 535L655 53Z" fill="#d0cfce" />
<path d="M643 38Q647 35 653 35Q659 35 663 38Q663 38 663 38L1058 133Q1073 137 1073 152V646Q1073 665 1054 665Q1052 665 1050 665L653 578L256 665Q238 669 234 650Q233 648 233 646V152Q233 137 248 133ZM672 79V488Q672 507 653 507Q634 507 634 488V79L271 167V622L649 540Q653 539 657 540L1035 622V167Z" fill="#000000" />
<path d="M248 664Q230 660 234 642Q236 632 242 629Q248 625 257 628L656 724L1049 628Q1068 623 1072 641Q1077 660 1058 664L661 762Q657 763 652 762Z" fill="#000000" />
<path d="M445.31304931640625 441.00860595703125Q445.31304931640625 452.29638671875 441.02655029296875 462.2982177734375Q436.74005126953125 472.300048828125 429.167236328125 479.87286376953125Q421.59442138671875 487.4456787109375 411.6640319824219 491.732177734375Q401.733642578125 496.0186767578125 390.302978515625 496.0186767578125Q378.872314453125 496.0186767578125 368.9419250488281 491.732177734375Q359.01153564453125 487.4456787109375 351.438720703125 479.87286376953125Q343.86590576171875 472.300048828125 339.57940673828125 462.2982177734375Q335.29290771484375 452.29638671875 335.29290771484375 441.00860595703125Q335.29290771484375 429.57794189453125 339.57940673828125 419.57611083984375Q343.86590576171875 409.57427978515625 351.438720703125 402.00146484375Q359.01153564453125 394.42864990234375 368.9419250488281 390.2135925292969Q378.872314453125 385.99853515625 390.302978515625 385.99853515625Q401.733642578125 385.99853515625 411.6640319824219 390.2135925292969Q421.59442138671875 394.42864990234375 429.167236328125 402.00146484375Q436.74005126953125 409.57427978515625 441.02655029296875 419.57611083984375Q445.31304931640625 429.57794189453125 445.31304931640625 441.00860595703125Z" fill="#000000" />
<path d="M554.3130493164062 231.00860595703125Q554.3130493164062 242.29638671875 550.0265502929688 252.2982177734375Q545.7400512695312 262.300048828125 538.167236328125 269.87286376953125Q530.5944213867188 277.4456787109375 520.6640319824219 281.732177734375Q510.733642578125 286.0186767578125 499.302978515625 286.0186767578125Q487.872314453125 286.0186767578125 477.9419250488281 281.732177734375Q468.01153564453125 277.4456787109375 460.438720703125 269.87286376953125Q452.86590576171875 262.300048828125 448.57940673828125 252.2982177734375Q444.29290771484375 242.29638671875 444.29290771484375 231.00860595703125Q444.29290771484375 219.57794189453125 448.57940673828125 209.57611083984375Q452.86590576171875 199.57427978515625 460.438720703125 192.00146484375Q468.01153564453125 184.42864990234375 477.9419250488281 180.21359252929688Q487.872314453125 175.99853515625 499.302978515625 175.99853515625Q510.733642578125 175.99853515625 520.6640319824219 180.21359252929688Q530.5944213867188 184.42864990234375 538.167236328125 192.00146484375Q545.7400512695312 199.57427978515625 550.0265502929688 209.57611083984375Q554.3130493164062 219.57794189453125 554.3130493164062 231.00860595703125Z" fill="#000000" />
<path d="M820.3130493164062 216.00860595703125Q820.3130493164062 227.29638671875 816.0265502929688 237.2982177734375Q811.7400512695312 247.300048828125 804.167236328125 254.87286376953125Q796.5944213867188 262.4456787109375 786.6640319824219 266.732177734375Q776.733642578125 271.0186767578125 765.302978515625 271.0186767578125Q753.872314453125 271.0186767578125 743.9419250488281 266.732177734375Q734.0115356445312 262.4456787109375 726.438720703125 254.87286376953125Q718.8659057617188 247.300048828125 714.5794067382812 237.2982177734375Q710.2929077148438 227.29638671875 710.2929077148438 216.00860595703125Q710.2929077148438 204.57794189453125 714.5794067382812 194.57611083984375Q718.8659057617188 184.57427978515625 726.438720703125 177.00146484375Q734.0115356445312 169.42864990234375 743.9419250488281 165.21359252929688Q753.872314453125 160.99853515625 765.302978515625 160.99853515625Q776.733642578125 160.99853515625 786.6640319824219 165.21359252929688Q796.5944213867188 169.42864990234375 804.167236328125 177.00146484375Q811.7400512695312 184.57427978515625 816.0265502929688 194.57611083984375Q820.3130493164062 204.57794189453125 820.3130493164062 216.00860595703125Z" fill="#000000" />
<path d="M913.3130493164062 347.00860595703125Q913.3130493164062 358.29638671875 909.0265502929688 368.2982177734375Q904.7400512695312 378.300048828125 897.167236328125 385.87286376953125Q889.5944213867188 393.4456787109375 879.6640319824219 397.732177734375Q869.733642578125 402.0186767578125 858.302978515625 402.0186767578125Q846.872314453125 402.0186767578125 836.9419250488281 397.732177734375Q827.0115356445312 393.4456787109375 819.438720703125 385.87286376953125Q811.8659057617188 378.300048828125 807.5794067382812 368.2982177734375Q803.2929077148438 358.29638671875 803.2929077148438 347.00860595703125Q803.2929077148438 335.57794189453125 807.5794067382812 325.57611083984375Q811.8659057617188 315.57427978515625 819.438720703125 308.00146484375Q827.0115356445312 300.42864990234375 836.9419250488281 296.2135925292969Q846.872314453125 291.99853515625 858.302978515625 291.99853515625Q869.733642578125 291.99853515625 879.6640319824219 296.2135925292969Q889.5944213867188 300.42864990234375 897.167236328125 308.00146484375Q904.7400512695312 315.57427978515625 909.0265502929688 325.57611083984375Q913.3130493164062 335.57794189453125 913.3130493164062 347.00860595703125Z" fill="#000000" />
<path d="M1006.3130493164062 478.00860595703125Q1006.3130493164062 489.29638671875 1002.0265502929688 499.2982177734375Q997.7400512695312 509.300048828125 990.167236328125 516.8728637695312Q982.5944213867188 524.4456787109375 972.6640319824219 528.732177734375Q962.733642578125 533.0186767578125 951.302978515625 533.0186767578125Q939.872314453125 533.0186767578125 929.9419250488281 528.732177734375Q920.0115356445312 524.4456787109375 912.438720703125 516.8728637695312Q904.8659057617188 509.300048828125 900.5794067382812 499.2982177734375Q896.2929077148438 489.29638671875 896.2929077148438 478.00860595703125Q896.2929077148438 466.57794189453125 900.5794067382812 456.57611083984375Q904.8659057617188 446.57427978515625 912.438720703125 439.00146484375Q920.0115356445312 431.42864990234375 929.9419250488281 427.2135925292969Q939.872314453125 422.99853515625 951.302978515625 422.99853515625Q962.733642578125 422.99853515625 972.6640319824219 427.2135925292969Q982.5944213867188 431.42864990234375 990.167236328125 439.00146484375Q997.7400512695312 446.57427978515625 1002.0265502929688 456.57611083984375Q1006.3130493164062 466.57794189453125 1006.3130493164062 478.00860595703125Z" fill="#000000" />
<path d="M730 658Q730 670 708.5 678.5Q687 687 657 687Q627 687 605.5 678.5Q584 670 584 658Q584 645 605.5 636.5Q627 628 657 628Q687 628 708.5 636.5Q730 645 730 658Z" fill="#000000" />
</g></svg>