<svg xmlns="http://www.w3.org/2000/svg" viewBox="0 0 2048 2048">
<g transform="matrix(1 0 0 -1 0 2048)">
<path d="M764.028076171875 404.9471435546875Q764.028076171875 426.1767578125 755.9754638671875 444.84417724609375Q747.9228515625 463.5115966796875 733.769775390625 477.6646728515625Q719.61669921875 491.8177490234375 700.9492797851562 499.870361328125Q682.2818603515625 507.9229736328125 661.05224609375 507.9229736328125Q639.8226318359375 507.9229736328125 621.1552124023438 499.870361328125Q602.48779296875 491.8177490234375 588.334716796875 477.6646728515625Q574.181640625 463.5115966796875 566.1290283203125 444.84417724609375Q558.076416015625 426.1767578125 558.076416015625 404.9471435546875Q558.076416015625 383.717529296875 566.1290283203125 365.05010986328125Q574.181640625 346.3826904296875 588.334716796875 332.2296142578125Q602.48779296875 318.0765380859375 621.1552124023438 310.02392578125Q639.8226318359375 301.9713134765625 661.05224609375 301.9713134765625Q682.2818603515625 301.9713134765625 700.9492797851562 310.02392578125Q719.61669921875 318.0765380859375 733.769775390625 332.2296142578125Q747.9228515625 346.3826904296875 755.9754638671875 365.05010986328125Q764.028076171875 383.717529296875 764.028076171875 404.9471435546875Z" fill="#ffffff" />
<path d="M940 498 1095 460 1092 368 1091 350 938 318Q925 313 920.5 300.0Q916 287 923 275V274L1006 136L939 74L926 61L795 147Q782 153 769.0 146.5Q756 140 753 127L719 -17H609L576 120Q572 136 557.0 144.5Q542 153 527 148Q526 148 526.0 148.0Q526 148 526 148Q526 147 525 147L394 61L381 74L314 136L397 274V275Q404 287 399.5 300.0Q395 313 382 318L228 350V368L225 460L380 498Q380 498 388.0 501.5Q396 505 401.5 513.5Q407 522 400 536L317 674L384 736L398 749L529 663Q529 663 529 662Q542 657 554.5 663.5Q567 670 571 684L605 827H715L750 683Q753 670 765.5 663.5Q778 657 791 663L922 749L936 736L1003 674L920 536Q913 522 918.5 513.5Q924 505 932.0 501.5Q940 498 940 498ZM660 222Q711 222 752.5 246.5Q794 271 818.5 312.5Q843 354 843 405Q843 456 818.5 497.5Q794 539 752.5 563.5Q711 588 660 588Q609 588 567.5 563.5Q526 539 501.5 497.5Q477 456 477 405Q477 354 501.5 312.5Q526 271 567.5 246.5Q609 222 660 222Z" fill="#d0cfce" />
<path d="M660 588Q711 588 752.5 563.5Q794 539 818.5 497.5Q843 456 843 405Q843 354 818.5 312.5Q794 271 752.5 246.5Q711 222 660 222Q609 222 567.5 246.5Q526 271 501.5 312.5Q477 354 477 405Q477 456 501.5 497.5Q526 539 567.5 563.5Q609 588 660 588ZM660 313Q698 313 725.0 340.0Q752 367 752 405Q752 443 725.0 470.0Q698 497 660 497Q622 497 595.0 470.0Q568 443 568 405Q568 367 595.0 340.0Q622 313 660 313Z" fill="#9b9b9a" />
<path d="M770 405Q770 451 738 483Q706 515 660 515Q614 515 582 483Q550 451 550 405Q550 359 582 327Q614 295 660 295Q706 295 738 327Q770 359 770 405ZM733 405Q733 375 712 353Q690 332 660 332Q630 332 608 353Q587 375 587 405Q587 435 608 457Q630 478 660 478Q697 478 715 460Q733 442 733 405Z" fill="#000000" />
<path d="M862 405Q862 489 803 548Q744 607 660 607Q576 607 517 548Q458 489 458 405Q458 321 517 262Q576 203 660 203Q744 203 803 262Q862 321 862 405ZM825 405Q825 337 777 288Q728 240 660 240Q592 240 543 288Q495 337 495 405Q495 473 543 522Q592 570 660 570Q728 570 777 522Q825 473 825 405Z" fill="#000000" />
<path d="M553 688Q551 683 546 680Q542 677 537 679L408 764Q396 772 385 762L372 750L305 687Q294 677 302 664L384 528Q386 523 383 520Q380 517 376 516L220 478Q206 474 207 459L210 368V349Q211 335 225 332L376 301Q381 299 382 294Q384 289 381 284V283L298 146Q291 133 301 123L368 60L382 48Q392 38 404 46L533 131Q541 133 548 129Q556 124 558 115L591 -21Q594 -35 609 -35H719Q733 -35 736 -21L771 122Q772 128 777 130Q782 132 786 131L916 46Q928 38 938 48L952 60L1019 123Q1029 133 1022 146L939 283V284Q936 289 938 294Q939 299 944 301L1095 332Q1109 335 1110 349V368L1113 459Q1114 474 1100 478L944 516Q940 517 937 520Q934 523 936 528L1018 664Q1026 677 1015 687L948 750L935 762Q924 772 912 764L783 679Q778 678 774 680Q769 682 767 688L733 831Q729 845 715 845H605Q591 845 587 831ZM588 680 619 808H701L732 679Q737 657 758 647Q778 637 799 646Q800 647 801 648L920 726L923 723L979 670L904 546Q904 545 903 544Q889 513 913 493Q923 484 935 481L1076 446L1074 369V365L934 336Q933 336 932 335Q911 327 903 306Q896 285 907 265L908 264L983 140L927 87L924 84L805 163Q804 163 802 164Q782 173 761 163Q741 153 735 131L704 2H623L593 124Q588 148 566 160Q544 173 521 165Q520 165 520 165Q519 164 518 164Q518 164 518 164Q518 164 517 164Q516 163 515 163L396 84L393 87L337 140L412 264L413 265Q424 285 417 306Q409 327 388 335Q387 336 385 336L246 365V369L244 446L385 481Q397 484 407 492Q431 513 417 544Q416 545 416 546L341 670L397 723L400 726L519 648Q520 647 521 646H522Q543 637 563 647Q583 658 588 680Z" fill="#000000" />
</g></svg>