<svg xmlns="http://www.w3.org/2000/svg" viewBox="0 0 2048 2048">
<g transform="matrix(1 0 0 -1 0 2048)">
<path d="M353 539 968 542 989 719 326 724Z" fill="#ffffff" />
<path d="M342 531 451 -183H886L982 533Z" fill="#ffffff" />
<path d="M796 513H979L886 -183H703Z" fill="#d0cfce" />
<path d="M886 -202Q902 -202 905 -186L1027 731Q1027 732 1027 733Q1027 752 1008 752H312Q310 752 309 751Q300 750 296 745Q292 740 294 731L433 -186Q435 -202 451 -202ZM870 -165H467L333 715H987Z" fill="#000000" />
<path d="M357.95849609375 549.8009033203125V512.9986572265625H967.0029296875V549.8009033203125Z" fill="#000000" />
</g></svg>