<svg xmlns="http://www.w3.org/2000/svg" viewBox="0 0 2048 2048">
<g transform="matrix(1 0 0 -1 0 2048)">
<path d="M1172.8749389648438 385.05731201171875Q1172.8749389648438 491.0567626953125 1132.9939575195312 584.4622192382812Q1093.1129760742188 677.86767578125 1022.7965087890625 748.1841430664062Q952.4800415039062 818.5006103515625 859.0745849609375 858.381591796875Q765.6691284179688 898.2625732421875 659.669677734375 898.2625732421875Q553.6702270507812 898.2625732421875 460.2647705078125 858.381591796875Q366.85931396484375 818.5006103515625 296.5428466796875 748.1841430664062Q226.22637939453125 677.86767578125 186.34539794921875 584.4622192382812Q146.46441650390625 491.0567626953125 146.46441650390625 385.05731201171875Q146.46441650390625 279.057861328125 186.34539794921875 185.65240478515625Q226.22637939453125 92.2469482421875 296.5428466796875 21.93048095703125Q366.85931396484375 -48.385986328125 460.2647705078125 -88.2669677734375Q553.6702270507812 -128.14794921875 659.669677734375 -128.14794921875Q765.6691284179688 -128.14794921875 859.0745849609375 -88.2669677734375Q952.4800415039062 -48.385986328125 1022.7965087890625 21.93048095703125Q1093.1129760742188 92.2469482421875 1132.9939575195312 185.65240478515625Q1172.8749389648438 279.057861328125 1172.8749389648438 385.05731201171875Z" fill="#92d3f5" />
<path d="M1192 385Q1192 605 1036 761Q880 917 660 917Q440 917 284 761Q128 605 128 385Q128 165 284 9Q440 -147 660 -147Q880 -147 1036 9Q1192 165 1192 385ZM1155 385Q1155 180 1010 35Q865 -110 660 -110Q455 -110 310 35Q165 180 165 385Q165 590 310 735Q455 880 660 880Q865 880 1010 735Q1155 590 1155 385Z" fill="#000000" />
<path d="M660 -147Q789 -147 877 13Q963 168 963 385Q963 602 877 757Q789 917 660 917Q531 917 443 757Q358 602 358 385Q358 168 443 13Q531 -147 660 -147ZM642 879V-109Q546 -98 475 31Q394 177 394 385Q394 593 475 739Q546 868 642 879ZM678 -109V879Q774 868 845 739Q926 593 926 385Q926 177 845 31Q774 -98 678 -109Z" fill="#000000" />
<path d="M1173 367Q1192 367 1192 385Q1192 403 1173 403H147Q128 403 128 385Q128 367 147 367Z" fill="#000000" />
<path d="M1100 623Q1118 623 1118 642Q1118 660 1100 660H220Q202 660 202 642Q202 623 220 623Z" fill="#000000" />
<path d="M1100 110Q1118 110 1118 129Q1118 147 1100 147H220Q202 147 202 129Q202 110 220 110Z" fill="#000000" />
</g></svg>