<svg xmlns="http://www.w3.org/2000/svg" viewBox="0 0 2048 2048">
<g transform="matrix(1 0 0 -1 0 2048)">
<path d="M604 634Q741 649 839.0 637.5Q937 626 1002.0 596.0Q1067 566 1105.0 522.5Q1143 479 1159.0 429.0Q1175 379 1175 329Q1175 246 1136.5 178.5Q1098 111 1023.0 71.0Q948 31 838 31Z" fill="#c19a65" />
<path d="M838 41V22Q1001 22 1095 111Q1184 195 1184 329Q1184 485 1066 570Q917 677 603 643L605 625Q912 658 1055 555Q1166 476 1166 329Q1166 203 1082 125Q993 41 838 41Z" fill="#c19a65" />
<path d="M857.19970703125 18.71759033203125V37.02667236328125H637.40478515625V18.71759033203125Z" fill="#c19a65" />
<path d="M637.541015625 27.3330078125Q620.05810546875 26.59814453125 604.955078125 34.72021484375Q589.85205078125 42.84228515625 580.75146484375 56.97119140625Q571.65087890625 71.10009765625 570.89501953125 89.08251953125Q570.16015625 106.5654296875 578.04296875 121.408203125Q585.92578125 136.2509765625 600.2939453125 145.61181640625Q614.662109375 154.97265625 632.14501953125 155.70751953125Z" fill="#c19a65" />
<path d="M632 147 631 165Q601 164 581 141Q560 119 561 89Q563 58 585 38Q607 17 638 18L637 37Q614 36 597 51Q581 67 580 89Q579 112 594 129Q609 146 632 147Z" fill="#c19a65" />
<path d="M632.5645141601562 155.36431884765625Q615.0794677734375 154.62945556640625 599.9746398925781 162.75259399414062Q584.8698120117188 170.875732421875 575.7681884765625 185.00640869140625Q566.6665649414062 199.1370849609375 565.9107055664062 217.1217041015625Q565.1758422851562 234.60675048828125 573.0596923828125 249.4512939453125Q580.9435424804688 264.29583740234375 595.3135070800781 273.6577453613281Q609.6834716796875 283.0196533203125 627.1685180664062 283.7545166015625Z" fill="#c19a65" />
<path d="M628 275 627 293Q554 290 557 217Q558 187 581 166Q603 145 633 147V165Q610 164 593 179Q576 195 575 218Q574 240 590 257Q605 274 628 275Z" fill="#c19a65" />
<path d="M635.3176879882812 156.12445068359375Q617.8732299804688 154.720947265625 602.4682922363281 162.26022338867188Q587.0633544921875 169.79949951171875 577.4274291992188 183.57177734375Q567.79150390625 197.34405517578125 566.347900390625 215.28692626953125Q564.9443969726562 232.73138427734375 572.2545166015625 247.8670654296875Q579.5646362304688 263.00274658203125 593.5660705566406 272.9079284667969Q607.5675048828125 282.8131103515625 625.011962890625 284.21661376953125Z" fill="#c19a65" />
<path d="M626 275 624 293Q594 291 574 268Q555 244 557 214Q563 141 636 147L635 165Q580 161 575 216Q571 270 626 275Z" fill="#c19a65" />
<path d="M626.717041015625 285.312255859375Q609.251220703125 284.19287109375 593.9703369140625 291.9822998046875Q578.689453125 299.771728515625 569.278564453125 313.69970703125Q559.86767578125 327.627685546875 558.71630859375 345.592529296875Q557.596923828125 363.058349609375 565.15283203125 378.07373046875Q572.708740234375 393.089111328125 586.8702392578125 402.7655029296875Q601.03173828125 412.44189453125 618.49755859375 413.561279296875Z" fill="#c19a65" />
<path d="M619 404 618 422Q588 420 568 397Q548 375 550 344Q552 314 574 294Q597 274 628 276L626 294Q572 291 568 346Q565 400 619 404Z" fill="#c19a65" />
<path d="M609 593Q599 603 588.5 620.0Q578 637 570.0 657.5Q562 678 561.0 695.5Q560 713 569 722Q581 735 606.0 732.0Q631 729 675.5 703.5Q720 678 789 624Z" fill="#c19a65" />
<path d="M784 617 795 631Q608 776 562 729Q541 707 561 654Q578 610 602 587L615 600Q594 620 579 661Q563 703 575 716Q609 751 784 617Z" fill="#c19a65" />
<path d="M208.5 412.5Q191.0 412.5 176.25 421.25Q161.5 430.0 153.0 444.5Q144.5 459.0 144.5 477.0Q144.5 494.5 153.0 509.0Q161.5 523.5 176.25 532.25Q191.0 541.0 208.5 541.0Z" fill="#c19a65" />
<path d="M209 532V551Q135 551 135 477Q135 404 209 404V422Q186 422 170 438Q154 454 154 477Q154 500 170 516Q186 532 209 532Z" fill="#c19a65" />
<path d="M618 404V422H209V404Z" fill="#c19a65" />
<path d="M209.0833740234375 551.0V533.0H717.9618530273438V551.0Z" fill="#c19a65" />
<path d="M604.9645385742188 588.4580688476562 617.0714721679688 602.1792602539062 576.5099487304688 638.0952758789062 564.4030151367188 624.3740844726562Z" fill="#c19a65" />
<path d="M877 631Q817 630 774.5 647.5Q732 665 702 691Z" fill="#c19a65" />
<path d="M708 698 696 685Q767 620 877 622V640Q774 638 708 698Z" fill="#c19a65" />
<path d="M665.2535400390625 731.5941162109375 654.1236572265625 717.0657958984375 697.7359619140625 683.6458740234375 708.8658447265625 698.1741943359375Z" fill="#c19a65" />
<path d="M711 411 203 413V541H675Z" fill="#c19a65" />
<path d="M723 402 720 414 682 550H193V404ZM699 420 212 422V531H668Z" fill="#c19a65" />
<path d="M841.8180541992188 410.958984375H617.9035034179688V27.669921875H841.8180541992188Z" fill="#c19a65" />
<path d="M851 420H609V18H851ZM833 402V37H627V402Z" fill="#c19a65" />
<path d="M677 541H654L601 581L659 590Z" fill="#c19a65" />
<path d="M690 532 686 545 665 600 578 586 651 532ZM664 550H657L624 575L653 580Z" fill="#c19a65" />
<path d="M873 46Q855 46 855 28Q855 9 873 9Q1006 9 1100 103Q1193 197 1193 329Q1193 462 1100 556Q1006 649 873 649Q855 649 855 631Q855 622 860 617Q864 613 873 613Q991 613 1074 530Q1157 447 1157 329Q1157 212 1074 129Q991 46 873 46Z" fill="#000000" />
<path d="M858.0 9.0Q876.0 9.0 876.0 27.0Q876.0 45.0 858.0 45.0H638.0Q619.0 45.0 619.0 27.0Q619.0 9.0 638.0 9.0Z" fill="#000000" />
<path d="M633 137Q651 138 650 157Q649 175 631 174Q597 173 574 148Q551 122 552 88Q554 54 579 31Q604 8 638 9Q656 10 656 28Q655 47 636 46Q618 45 604 58Q590 71 589 90Q588 109 601 123Q614 137 633 137Z" fill="#000000" />
<path d="M628 266Q647 267 646 285Q645 303 627 302Q593 301 570 276Q546 251 548 216Q549 182 574 159Q600 136 634 138Q652 138 651 157Q651 175 632 174Q613 173 599 186Q585 199 584 218Q583 264 628 266Z" fill="#000000" />
<path d="M627 266Q645 267 643 285Q642 304 624 302Q590 300 567 274Q545 247 548 213Q551 179 577 157Q603 135 637 138Q655 139 654 158Q652 176 634 174Q588 171 585 216Q581 262 627 266Z" fill="#000000" />
<path d="M620.0611572265625 394.57574462890625Q638.0687866210938 395.27972412109375 636.3652954101562 413.30377197265625Q635.677734375 432.3109130859375 617.6536865234375 430.607421875Q583.637451171875 429.1666259765625 560.2218017578125 403.55694580078125Q537.7892456054688 376.93133544921875 540.2295532226562 342.898681640625Q542.6698608398438 308.86602783203125 568.2959594726562 286.44989013671875Q593.9220581054688 264.03375244140625 627.9547119140625 266.47406005859375Q645.9623413085938 267.17803955078125 645.2747802734375 286.1851806640625Q643.5712890625 304.209228515625 625.5472412109375 302.5057373046875Q579.5204467773438 300.262451171875 577.2607421875 345.28973388671875Q574.0179443359375 391.33294677734375 620.0611572265625 394.57574462890625Z" fill="#000000" />
<path d="M647 711Q660 698 673 711Q679 718 679 724Q679 731 672 737Q648 761 614 760Q579 760 556 735Q532 710 533 676Q533 642 558 618Q571 606 584 619Q596 632 583 645Q570 658 569 677Q569 696 582 710Q614 743 647 711Z" fill="#000000" />
<path d="M208.556640625 523.369140625Q227.580078125 523.5703125 227.3369140625 541.5947265625Q227.09375 559.619140625 209.0693359375 559.3759765625Q175.060546875 559.8046875 151.033203125 535.794921875Q126.0068359375 511.8271484375 126.53515625 476.77734375Q126.1064453125 442.7685546875 150.1162109375 418.7412109375Q175.125 394.671875 209.17578125 395.2421875Q227.158203125 394.486328125 226.95703125 413.509765625Q227.712890625 431.4921875 208.689453125 431.291015625Q189.666015625 431.08984375 176.2255859375 444.6650390625Q162.78515625 458.240234375 162.583984375 477.263671875Q163.5166015625 523.2607421875 208.556640625 523.369140625Z" fill="#000000" />
<path d="M618 395Q636 395 636 413Q636 431 618 431H209Q190 431 190 413Q190 395 209 395Z" fill="#000000" />
<path d="M209 560Q190 560 190 541Q190 523 209 523H718Q736 523 736 541Q736 560 718 560Z" fill="#000000" />
<path d="M598.2094116210938 581.3642578125Q611.8317260742188 568.9371337890625 624.1365356445312 583.5519409179688Q636.5636596679688 597.1742553710938 623.0636596679688 608.60888671875L582.3190307617188 644.8977661132812Q568.6967163085938 657.3248901367188 556.2695922851562 643.7025756835938Q543.9647827148438 629.0877685546875 557.4647827148438 617.6531372070312Z" fill="#000000" />
<path d="M714 705Q701 717 689 704Q676 690 690 678Q764 611 877 613Q895 613 895 631Q895 640 890 645Q886 649 876 649Q777 648 714 705Z" fill="#000000" />
<path d="M671 738Q663 744 657 743Q651 742 645 735Q634 721 648 709L692 676Q699 670 706 671Q712 672 718 679Q729 694 714 705Z" fill="#000000" />
<path d="M874 46Q855 46 855 28Q855 10 874 10Q1006 10 1100 103Q1194 197 1194 330Q1194 462 1100 556Q1006 650 874 650Q855 650 855 631Q855 613 874 613Q991 613 1074 530Q1157 447 1157 330Q1157 212 1074 129Q991 46 874 46Z" fill="#000000" />
<path d="M858.0 10.0Q876.0 10.0 876.0 28.0Q876.0 46.0 858.0 46.0H638.0Q619.0 46.0 619.0 28.0Q619.0 10.0 638.0 10.0Z" fill="#000000" />
<path d="M633 138Q651 139 650 157Q650 175 631 174Q597 173 574 148Q551 123 552 89Q554 54 579 31Q604 8 638 10Q657 10 656 29Q655 47 637 46Q591 44 589 90Q588 109 601 123Q614 137 633 138Z" fill="#000000" />
<path d="M629 266Q647 267 646 286Q645 304 627 303Q593 302 570 277Q547 251 548 217Q550 183 575 160Q600 137 634 138Q652 139 652 157Q651 176 632 175Q614 174 600 187Q586 200 585 219Q584 238 597 252Q610 266 629 266Z" fill="#000000" />
<path d="M627 266Q645 267 644 286Q642 304 624 303Q590 300 568 274Q546 248 548 214Q551 180 577 157Q603 135 637 138Q655 140 654 158Q653 176 634 175Q615 173 601 185Q586 198 585 217Q583 236 596 250Q608 264 627 266Z" fill="#000000" />
<path d="M619.963623046875 395.7176513671875Q638.9358520507812 397.13482666015625 637.5406494140625 415.10736083984375Q636.1454467773438 433.07989501953125 618.1729125976562 431.6846923828125Q584.2052612304688 429.93792724609375 561.7615966796875 404.440185546875Q538.3182373046875 378.92047119140625 541.086669921875 343.97509765625Q542.8334350585938 310.0074462890625 568.3311767578125 287.56378173828125Q594.82861328125 265.14208984375 628.7742919921875 267.8885498046875Q646.768798828125 268.2840576171875 645.3516235351562 287.25628662109375Q644.9561157226562 305.25079345703125 625.98388671875 303.8336181640625Q607.0116577148438 302.41644287109375 592.7302856445312 315.1048583984375Q578.4489135742188 327.79327392578125 577.03173828125 346.7655029296875Q575.0213012695312 392.7294921875 619.963623046875 395.7176513671875Z" fill="#000000" />
<path d="M647 711Q660 698 673 711Q679 718 679 725Q679 731 673 737Q648 761 614 761Q580 760 556 735Q532 711 533 677Q533 642 558 619Q571 606 584 619Q597 632 583 645Q570 658 569 677Q569 696 582 710Q614 743 647 711Z" fill="#000000" />
<path d="M209.50762939453125 523.437255859375Q227.54180908203125 523.6831665039062 227.2958984375 541.7173461914062Q228.049560546875 559.7096557617188 209.01580810546875 559.505615234375Q174.98846435546875 559.9296264648438 150.9515380859375 535.9033203125Q126.91461181640625 511.87701416015625 126.4906005859375 477.84967041015625Q127.0242919921875 442.7808837890625 151.05059814453125 418.74395751953125Q175.076904296875 394.70703125 209.1461181640625 395.2825927734375Q228.13800048828125 394.487060546875 227.9339599609375 413.52081298828125Q227.68804931640625 431.55499267578125 209.65386962890625 431.30908203125Q163.58978271484375 431.2359619140625 163.51666259765625 477.300048828125Q163.3126220703125 496.33380126953125 176.89324951171875 509.78350830078125Q190.473876953125 523.2332153320312 209.50762939453125 523.437255859375Z" fill="#000000" />
<path d="M618 395Q637 395 637 413Q637 432 618 432H209Q191 432 191 413Q191 395 209 395Z" fill="#000000" />
<path d="M209 560Q191 560 191 542Q191 523 209 523H718Q737 523 737 542Q737 560 718 560Z" fill="#000000" />
<path d="M599 582Q606 576 612 577Q619 577 625 584Q637 598 623 610L583 646Q569 658 557 644Q545 630 559 618Z" fill="#000000" />
<path d="M715 705Q701 718 689 704Q677 691 690 678Q764 611 877 613Q896 613 895 632Q895 641 890 645Q886 650 877 650Q778 648 715 705Z" fill="#000000" />
<path d="M671 738Q663 744 657 743Q651 742 645 735Q634 721 648 709L692 676Q699 670 706 671Q712 672 718 679Q729 694 714 705Z" fill="#000000" />
</g></svg>