<svg xmlns="http://www.w3.org/2000/svg" viewBox="0 0 2048 2048">
<g transform="matrix(1 0 0 -1 0 2048)">
<path d="M496 371Q498 375 498 378L510 676Q511 702 530.0 720.5Q549 739 575 739H667Q684 739 703.5 732.5Q723 726 736.5 714.0Q750 702 751 685L766 378Q765 372 764 365L709 404L738 60Q738 58 730.0 55.5Q722 53 713.5 51.5Q705 50 705 50Q703 50 699.0 54.5Q695 59 694 67L655 412Q647 429 634 442Q634 442 628.0 435.5Q622 429 615.5 421.5Q609 414 608 411L571 64Q570 56 554.5 53.0Q539 50 537 50Q535 50 534 51Q530 57 530 64L541 403Z" fill="#a57939" />
<path d="M667.4674682617188 853.7282104492188Q667.4674682617188 863.172607421875 663.937744140625 871.4245300292969Q660.4080200195312 879.6764526367188 654.1594543457031 885.9250183105469Q647.910888671875 892.173583984375 639.6589660644531 895.7033081054688Q631.4070434570312 899.2330322265625 621.962646484375 899.2330322265625Q612.5182495117188 899.2330322265625 604.2663269042969 895.7033081054688Q596.014404296875 892.173583984375 589.7658386230469 885.9250183105469Q583.5172729492188 879.6764526367188 579.987548828125 871.4245300292969Q576.4578247070312 863.172607421875 576.4578247070312 853.7282104492188Q576.4578247070312 844.2838134765625 579.987548828125 836.0318908691406Q583.5172729492188 827.7799682617188 589.7658386230469 821.5314025878906Q596.014404296875 815.2828369140625 604.2663269042969 811.7531127929688Q612.5182495117188 808.223388671875 621.962646484375 808.223388671875Q631.4070434570312 808.223388671875 639.6589660644531 811.7531127929688Q647.910888671875 815.2828369140625 654.1594543457031 821.5314025878906Q660.4080200195312 827.7799682617188 663.937744140625 836.0318908691406Q667.4674682617188 844.2838134765625 667.4674682617188 853.7282104492188Z" fill="#a57939" />
<path d="M650 690Q650 711 629 711Q608 711 608 690V517Q608 496 629 496Q650 496 650 517Z" fill="#000000" />
<path d="M702 854Q702 927 629 927Q592 927 574 909Q556 891 556 854Q556 824 577 802Q599 781 629 781Q702 781 702 854ZM666 854Q666 817 629 817Q614 817 603 828Q592 839 592 854Q592 872 602 881Q611 891 629 891Q666 891 666 854Z" fill="#000000" />
<path d="M724 657Q723 675 705 674Q696 674 691 669Q687 664 687 655L717 73Q717 67 714 63V62Q706 65 705 74Q705 75 705 76L666 413Q661 460 629 460Q597 460 592 413L553 76Q553 75 553 74Q553 65 545 62L544 63Q541 67 542 73L571 655Q572 673 554 674Q535 675 534 657L505 75Q504 56 514 42Q526 25 545 25Q546 25 548 25Q588 32 590 72L629 409Q629 411 629 413Q630 411 630 409L669 72Q670 32 710 25Q712 25 713 25Q732 25 744 42Q754 56 753 75Z" fill="#000000" />
<path d="M470 381Q470 363 488 362Q497 362 502 366Q507 370 507 379L519 671Q522 729 581 730H673Q731 729 734 670L751 373Q752 355 771 356Q789 357 788 375L771 672Q769 711 740 739Q712 766 673 766H581Q541 766 513 739Q485 711 483 672Z" fill="#000000" />
<path d="M781 -44Q781 -34 736.5 -27.0Q692 -20 629 -20Q566 -20 522.0 -27.0Q478 -34 478 -44Q478 -54 522.0 -61.0Q566 -68 629 -68Q692 -68 736.5 -61.0Q781 -54 781 -44Z" fill="#000000" />
<path d="M795 -44Q795 -6 629 -6Q464 -6 464 -44Q464 -82 629 -82Q795 -82 795 -44ZM766 -44Q766 -54 629 -54Q492 -54 492 -44Q492 -35 629 -35Q766 -35 766 -44Z" fill="#000000" />
</g></svg>