<svg xmlns="http://www.w3.org/2000/svg" viewBox="0 0 2048 2048">
<g transform="matrix(1 0 0 -1 0 2048)">
<path d="M848 346Q876 346 892.0 383.5Q908 421 915.0 480.0Q922 539 922 603Q922 658 892.0 708.5Q862 759 805.0 791.0Q748 823 665 823Q583 823 525.5 791.0Q468 759 438.0 708.5Q408 658 408 603Q408 539 415.0 480.0Q422 421 438.0 383.5Q454 346 482 346Z" fill="#6a462f" />
<path d="M463 475Q467 565 519 640Q560 626 591.0 626.5Q622 627 652.0 635.0Q682 643 719.5 650.5Q757 658 812 658Q812 658 820.5 642.5Q829 627 839.5 600.5Q850 574 858.5 541.5Q867 509 867 475Q867 401 843.5 343.0Q820 285 774.5 251.5Q729 218 664 218Q601 218 555.5 251.5Q510 285 486.0 343.0Q462 401 463 475Z" fill="#c19a65" />
<path d="M312 -71H1009V-1Q1009 45 982.0 82.5Q955 120 913.0 142.0Q871 164 826 164Q661 26 496 164Q450 164 408.0 142.0Q366 120 339.0 82.5Q312 45 312 -1Z" fill="#3f3f3f" />
<path d="M863 -71H464Q474 -39 489.0 -4.5Q504 30 522.5 60.0Q541 90 564 106H763Q786 90 804.5 60.0Q823 30 838.0 -5.0Q853 -40 863 -71Z" fill="#ea5a47" />
<path d="M756 -73H565Q551 -47 537 -21Q553 -19 565 -8Q571 -3 574 5Q577 10 578 16H660Q660 -11 660 -38Q660 -11 660 16H741Q744 2 754 -8Q766 -19 783 -21Q770 -47 756 -73Z" fill="#fcea2b" />
<path d="M464 507 462 479Q501 480 532 459Q552 443 576.5 435.0Q601 427 634 452Q647 461 662 463Q678 461 690 452Q724 427 748.5 435.0Q773 443 792 459Q824 480 862 479L864 507Q826 506 794 527Q774 544 750.0 551.5Q726 559 692 535Q679 526 664 524Q648 526 636 535Q602 559 577.5 551.5Q553 544 534 527Q502 506 464 507Z" fill="#ea5a47" />
<path d="M772.6845703125 492.67486572265625Q772.6845703125 508.0086669921875 762.017578125 518.6756591796875Q751.3505859375 529.3426513671875 736.0167846679688 529.3426513671875Q720.6829833984375 529.3426513671875 710.0159912109375 518.6756591796875Q699.3489990234375 508.0086669921875 699.3489990234375 492.67486572265625Q699.3489990234375 478.00775146484375 710.0159912109375 467.0074157714844Q720.6829833984375 456.007080078125 736.0167846679688 456.007080078125Q751.3505859375 456.007080078125 762.017578125 467.0074157714844Q772.6845703125 478.00775146484375 772.6845703125 492.67486572265625Z" fill="#000000" />
<path d="M626.6845703125 492.67486572265625Q626.6845703125 508.0086669921875 616.017578125 518.6756591796875Q605.3505859375 529.3426513671875 590.0167846679688 529.3426513671875Q574.6829833984375 529.3426513671875 564.0159912109375 518.6756591796875Q553.3489990234375 508.0086669921875 553.3489990234375 492.67486572265625Q553.3489990234375 478.00775146484375 564.0159912109375 467.0074157714844Q574.6829833984375 456.007080078125 590.0167846679688 456.007080078125Q605.3505859375 456.007080078125 616.017578125 467.0074157714844Q626.6845703125 478.00775146484375 626.6845703125 492.67486572265625Z" fill="#000000" />
<path d="M615 359Q598 366 591 349Q584 332 601 325Q663 301 725 325Q742 332 735 349Q729 366 711 359Q663 340 615 359Z" fill="#000000" />
<path d="M482 328Q501 328 501 346Q501 365 482 365Q459 365 443 431Q427 496 427 603Q427 683 488 741Q555 805 666 805Q776 805 843 741Q904 683 904 603Q904 365 849 365Q831 365 831 346Q831 328 849 328Q941 328 941 603Q941 699 869 768Q791 841 666 841Q541 841 463 768Q391 699 391 603Q391 328 482 328Z" fill="#000000" />
<path d="M444 475Q443 360 507 280Q571 200 664 200Q756 200 821 280Q885 360 885 475Q885 571 829 685Q823 695 812 695Q747 695 666 676Q583 656 525 676Q511 680 503 668Q446 572 444 475ZM481 475Q482 555 527 637Q591 620 675 640Q745 657 801 658Q849 558 849 475Q849 373 792 303Q738 237 664 237Q589 237 535 303Q480 373 481 475Z" fill="#000000" />
<path d="M615 359Q598 366 591 349Q584 332 601 325Q663 301 725 325Q742 332 735 349Q729 366 711 359Q663 340 615 359Z" fill="#000000" />
<path d="M772.6845703125 492.67486572265625Q772.6845703125 508.0086669921875 762.017578125 518.6756591796875Q751.3505859375 529.3426513671875 736.0167846679688 529.3426513671875Q720.6829833984375 529.3426513671875 710.0159912109375 518.6756591796875Q699.3489990234375 508.0086669921875 699.3489990234375 492.67486572265625Q699.3489990234375 478.00775146484375 710.0159912109375 467.0074157714844Q720.6829833984375 456.007080078125 736.0167846679688 456.007080078125Q751.3505859375 456.007080078125 762.017578125 467.0074157714844Q772.6845703125 478.00775146484375 772.6845703125 492.67486572265625Z" fill="#000000" />
<path d="M626.6845703125 492.67486572265625Q626.6845703125 508.0086669921875 616.017578125 518.6756591796875Q605.3505859375 529.3426513671875 590.0167846679688 529.3426513671875Q574.6829833984375 529.3426513671875 564.0159912109375 518.6756591796875Q553.3489990234375 508.0086669921875 553.3489990234375 492.67486572265625Q553.3489990234375 478.00775146484375 564.0159912109375 467.0074157714844Q574.6829833984375 456.007080078125 590.0167846679688 456.007080078125Q605.3505859375 456.007080078125 616.017578125 467.0074157714844Q626.6845703125 478.00775146484375 626.6845703125 492.67486572265625Z" fill="#000000" />
<path d="M363 73Q352 59 366 48Q374 42 380 43Q386 44 392 51Q420 87 460 108Q486 121 515 126Q524 127 528 133Q532 138 530 147Q527 165 509 162Q475 156 443 140Q396 116 363 73Z" fill="#000000" />
<path d="M542 118Q559 123 554 141Q551 149 545 152Q539 155 530 152Q420 115 394 1Q392 -8 396 -13Q399 -19 408 -21Q426 -25 430 -7Q451 87 542 118Z" fill="#000000" />
<path d="M933 47Q944 32 959 43Q973 54 962 69Q929 112 882 136Q850 152 816 157Q798 161 794 142Q791 124 809 121Q839 116 865 103Q905 83 933 47Z" fill="#000000" />
<path d="M795 148Q777 154 771 136Q765 119 783 113Q874 82 895 -12Q899 -29 917 -25Q935 -21 931 -3Q905 110 795 148Z" fill="#000000" />
<path d="M563 105Q576 118 563 131Q550 144 537 131Q484 78 454 10Q442 -18 434 -47Q429 -65 447 -70Q465 -74 469 -57Q477 -30 488 -5Q515 57 563 105Z" fill="#000000" />
<path d="M293 -54Q293 -72 312 -72Q330 -72 330 -54V1Q330 60 381 104Q429 146 488 148Q660 9 831 148Q891 146 939 104Q990 60 990 1V-54Q990 -72 1008 -72Q1027 -72 1027 -54V1Q1027 77 963 132Q902 184 825 184Q818 184 813 180Q660 52 507 180Q502 184 495 184Q418 184 357 132Q293 77 293 1Z" fill="#000000" />
<path d="M791 130Q779 144 765 131Q751 119 764 105Q809 55 837 -6Q850 -32 858 -59Q864 -76 882 -70Q899 -65 893 -47Q884 -18 871 10Q839 76 791 130Z" fill="#000000" />
<path d="M555 -54Q564 -70 580 -61Q596 -52 587 -36L579 -21Q596 -11 603 9H718Q725 -11 742 -21L734 -35Q726 -51 742 -60Q758 -69 766 -52L776 -36L785 -19Q786 -16 787 -13Q788 -4 784 1Q781 7 771 8Q753 11 751 30Q749 46 732 46H588Q572 46 570 30Q568 11 549 8Q546 8 543 6Q535 2 533 -5Q532 -11 536 -19Z" fill="#000000" />
<path d="M464 526Q446 526 445 508L444 480Q444 480 444 479Q445 461 463 461Q495 462 521 445Q584 393 645 437Q653 443 662 444Q672 443 680 437Q741 393 803 445Q830 462 862 461Q880 461 881 479L882 507Q882 507 882 508Q881 526 863 526Q831 525 805 542Q742 594 681 550Q673 544 664 543Q654 544 646 550Q585 594 523 542Q496 525 464 526ZM502 493Q524 499 544 513Q545 513 545 514Q586 548 625 520Q641 508 662 506Q664 506 666 506Q686 508 703 520Q741 548 782 514Q783 513 783 513Q803 499 824 494Q802 488 782 474Q781 474 781 473Q740 439 701 467Q685 479 664 481Q662 481 660 481Q640 479 623 467Q585 439 544 473Q543 474 543 474Q523 488 502 493Z" fill="#000000" />
</g></svg>