<svg xmlns="http://www.w3.org/2000/svg" viewBox="0 0 2048 2048">
<g transform="matrix(1 0 0 -1 0 2048)">
<path d="M843 348Q871 348 887.0 385.5Q903 423 910.0 482.0Q917 541 917 605Q917 660 887.0 710.5Q857 761 800.0 793.0Q743 825 660 825Q578 825 520.5 793.0Q463 761 433.0 710.5Q403 660 403 605Q403 541 410.0 482.0Q417 423 433.0 385.5Q449 348 477 348Z" fill="#fcea2b" />
<path d="M456 486Q460 576 512 651Q553 637 584.0 637.5Q615 638 645.0 646.0Q675 654 712.5 661.5Q750 669 805 669Q805 669 813.5 653.5Q822 638 832.5 611.5Q843 585 851.5 552.5Q860 520 860 486Q860 412 836.5 354.0Q813 296 767.5 262.5Q722 229 657 229Q594 229 548.5 262.5Q503 296 479.0 354.0Q455 412 456 486Z" fill="#debb90" />
<path d="M313 -71Q313 -71 311.5 -53.0Q310 -35 311.5 -6.0Q313 23 322.0 55.5Q331 88 351.0 116.5Q371 145 406.0 163.5Q441 182 496 182Q540 153 579.5 134.5Q619 116 661 116H659Q701 116 740.5 134.5Q780 153 824 182Q879 182 914.0 163.5Q949 145 969.0 116.5Q989 88 998.0 55.5Q1007 23 1008.5 -6.0Q1010 -35 1008.5 -53.0Q1007 -71 1007 -71Z" fill="#ffffff" />
<path d="M496 182Q506 108 524.0 58.5Q542 9 560.5 -20.0Q579 -49 591.5 -61.5Q604 -74 604 -74H313Q313 -74 311.5 -55.5Q310 -37 311.5 -8.0Q313 21 322.0 53.5Q331 86 351.0 115.5Q371 145 406.0 163.5Q441 182 496 182Z" fill="#3f3f3f" />
<path d="M824 182Q822 137 805.5 91.5Q789 46 769.0 8.5Q749 -29 734.0 -51.5Q719 -74 719 -74H1007Q1007 -74 1008.5 -55.5Q1010 -37 1008.5 -8.0Q1007 21 998.0 53.5Q989 86 969.0 115.5Q949 145 914.0 163.5Q879 182 824 182Z" fill="#3f3f3f" />
<path d="M702 118Q702 118 704.5 101.0Q707 84 705.5 62.5Q704 41 694.0 24.0Q684 7 660 7Q636 7 626.0 24.0Q616 41 614.5 62.5Q613 84 615.5 101.0Q618 118 618 118Z" fill="#000000" />
<path d="M601 -63 439 -43 457 14 403 47 496 175Q496 175 500.5 153.5Q505 132 513.5 100.0Q522 68 534.5 34.0Q547 0 563.5 -26.5Q580 -53 600 -63L644 4Z" fill="#3f3f3f" />
<path d="M719.0 -63.0 881.0 -43.0 863.0 14.0 917.0 47.0 824.0 175.0Q824.0 175.0 819.5 153.5Q815.0 132.0 806.5 100.0Q798.0 68.0 785.5 34.0Q773.0 0.0 756.5 -26.5Q740.0 -53.0 720.0 -63.0L676.0 4.0Z" fill="#3f3f3f" />
<path d="M660 26 739 -75H580Z" fill="#000000" />
<path d="M767.6845703125 494.67486572265625Q767.6845703125 510.0086669921875 757.017578125 520.6756591796875Q746.3505859375 531.3426513671875 731.0167846679688 531.3426513671875Q715.6829833984375 531.3426513671875 705.0159912109375 520.6756591796875Q694.3489990234375 510.0086669921875 694.3489990234375 494.67486572265625Q694.3489990234375 480.00775146484375 705.0159912109375 469.0074157714844Q715.6829833984375 458.007080078125 731.0167846679688 458.007080078125Q746.3505859375 458.007080078125 757.017578125 469.0074157714844Q767.6845703125 480.00775146484375 767.6845703125 494.67486572265625Z" fill="#000000" />
<path d="M620.6845703125 494.67486572265625Q620.6845703125 510.0086669921875 610.017578125 520.6756591796875Q599.3505859375 531.3426513671875 584.0167846679688 531.3426513671875Q568.6829833984375 531.3426513671875 558.0159912109375 520.6756591796875Q547.3489990234375 510.0086669921875 547.3489990234375 494.67486572265625Q547.3489990234375 480.00775146484375 558.0159912109375 469.0074157714844Q568.6829833984375 458.007080078125 584.0167846679688 458.007080078125Q599.3505859375 458.007080078125 610.017578125 469.0074157714844Q620.6845703125 480.00775146484375 620.6845703125 494.67486572265625Z" fill="#000000" />
<path d="M609 361Q592 367 586 350Q579 333 596 327Q658 303 719 327Q736 333 730 350Q723 367 706 361Q658 342 609 361Z" fill="#000000" />
<path d="M477 330Q495 330 495 348Q495 367 477 367Q422 367 422 605Q422 685 482 743Q550 807 660 807Q770 807 838 743Q898 685 898 605Q898 367 843 367Q825 367 825 348Q825 330 843 330Q935 330 935 605Q935 701 863 770Q785 843 660 843Q535 843 457 770Q385 701 385 605Q385 330 477 330Z" fill="#000000" />
<path d="M767.6845703125 494.67486572265625Q767.6845703125 510.0086669921875 757.017578125 520.6756591796875Q746.3505859375 531.3426513671875 731.0167846679688 531.3426513671875Q715.6829833984375 531.3426513671875 705.0159912109375 520.6756591796875Q694.3489990234375 510.0086669921875 694.3489990234375 494.67486572265625Q694.3489990234375 480.00775146484375 705.0159912109375 469.0074157714844Q715.6829833984375 458.007080078125 731.0167846679688 458.007080078125Q746.3505859375 458.007080078125 757.017578125 469.0074157714844Q767.6845703125 480.00775146484375 767.6845703125 494.67486572265625Z" fill="#000000" />
<path d="M620.6845703125 494.67486572265625Q620.6845703125 510.0086669921875 610.017578125 520.6756591796875Q599.3505859375 531.3426513671875 584.0167846679688 531.3426513671875Q568.6829833984375 531.3426513671875 558.0159912109375 520.6756591796875Q547.3489990234375 510.0086669921875 547.3489990234375 494.67486572265625Q547.3489990234375 480.00775146484375 558.0159912109375 469.0074157714844Q568.6829833984375 458.007080078125 584.0167846679688 458.007080078125Q599.3505859375 458.007080078125 610.017578125 469.0074157714844Q620.6845703125 480.00775146484375 620.6845703125 494.67486572265625Z" fill="#000000" />
<path d="M439 477Q437 362 501 282Q566 202 659 202Q750 202 815 282Q880 362 880 477Q880 573 823 687Q818 697 807 697Q742 697 661 678Q577 658 519 677Q505 682 498 669Q440 574 439 477ZM475 476Q477 557 522 638Q585 622 669 642Q739 658 795 660Q843 560 843 477Q843 375 787 305Q733 238 659 238Q583 238 530 305Q474 374 475 476Z" fill="#000000" />
<path d="M609 361Q592 367 586 350Q579 333 596 327Q658 303 719 327Q736 333 730 350Q723 367 706 361Q658 342 609 361Z" fill="#000000" />
<path d="M636 117Q639 135 621 139Q603 142 600 124Q594 94 596 64Q603 -8 660 -8Q717 -8 724 64Q726 94 720 124Q717 142 699 139Q690 137 686 132Q683 126 684 117Q689 92 687 67Q684 29 660 29Q636 29 633 67Q631 92 636 117Z" fill="#000000" />
<path d="M629 21 595 -31Q546 11 514 185Q513 194 507 197Q502 201 493 199Q486 198 481 192L388 65Q377 50 392 39Q392 39 393 39L435 12L421 -31Q419 -40 422 -46Q424 -51 433 -54Q435 -55 437 -55L595 -74Q602 -76 608 -74Q613 -72 617 -66L660 0Q670 16 654 26Q639 36 629 21ZM548 -31 463 -21 475 15Q479 28 467 36L429 59L486 137Q511 23 548 -31Z" fill="#000000" />
<path d="M691 21Q681 36 666 26Q658 21 657 15Q655 9 660 1L703 -66Q707 -72 713 -73Q718 -76 725 -74L883 -54Q885 -54 887 -54Q904 -48 899 -31L885 13L927 39Q928 39 928 40Q943 51 932 65L839 193Q834 198 827 200Q809 203 806 185Q774 11 725 -31ZM772 -31Q809 23 834 137L891 60L853 36Q841 29 846 15L857 -21Z" fill="#000000" />
<path d="M294 -60Q296 -69 301 -73Q306 -77 315 -75Q333 -73 330 -54Q322 1 339 57Q371 160 490 163Q588 99 657 97Q657 97 658 97H661Q662 97 662 97Q731 99 829 163Q948 160 980 57Q997 1 989 -54Q986 -73 1004 -75Q1022 -78 1025 -60Q1035 4 1015 67Q974 199 823 199Q818 199 813 196Q720 134 660 134Q599 134 506 196Q501 199 496 199Q345 199 304 67Q284 4 294 -60Z" fill="#000000" />
</g></svg>