<svg xmlns="http://www.w3.org/2000/svg" viewBox="0 0 2048 2048">
<g transform="matrix(1 0 0 -1 0 2048)">
<path d="M845 326Q882 326 897.5 359.0Q913 392 916.0 446.0Q919 500 919 564Q919 612 904.5 658.0Q890 704 859.0 741.0Q828 778 779.5 799.5Q731 821 662 821Q593 821 544.5 799.5Q496 778 465.0 741.0Q434 704 419.5 658.0Q405 612 405 564Q405 500 408.0 446.0Q411 392 426.5 359.0Q442 326 479 326Z" fill="#000000" />
<path d="M457 475Q457 521 462.0 544.5Q467 568 472.5 576.5Q478 585 478 585Q533 594 572.5 614.0Q612 634 645.5 660.0Q679 686 716 713Q716 713 728.0 698.0Q740 683 759.5 660.0Q779 637 801.5 612.0Q824 587 844 567Q863 523 863 475Q863 392 834.5 335.0Q806 278 759.5 248.0Q713 218 659 218Q603 218 557.5 248.0Q512 278 484.5 335.0Q457 392 457 475Z" fill="#6a462f" />
<path d="M654 218Q678 218 706.5 234.0Q735 250 761.0 270.5Q787 291 803.0 307.0Q819 323 819 323H1073Q1030 248 995 169Q959 81 943 -13H377Q361 81 325 169Q290 248 247 323H496Q496 323 511.5 307.5Q527 292 551.5 271.5Q576 251 603.0 235.0Q630 219 654 218Z" fill="#d22f27" />
<path d="M312 -73H1008V-4Q1008 42 981.5 79.5Q955 117 913.0 139.0Q871 161 825 161Q660 24 495 161Q449 161 407.0 139.0Q365 117 338.5 79.5Q312 42 312 -4Z" fill="#3f3f3f" />
<path d="M577 -73Q557 -57 541.5 -27.0Q526 3 513.5 38.0Q501 73 492.5 104.0Q484 135 480.0 155.0Q476 175 476 174Q529 128 594.5 113.0Q660 98 725.5 113.0Q791 128 844 174Q844 174 840.0 154.0Q836 134 827.5 102.5Q819 71 806.5 36.5Q794 2 777.5 -27.5Q761 -57 742 -73Z" fill="#000000" />
<path d="M486 304V341H246Q227 341 227 323Q227 317 230 313Q275 241 308 162Q321 129 331 94L366 104Q356 140 341 176Q314 242 278 304Z" fill="#000000" />
<path d="M954 108 989 97Q1004 140 1012 162Q1044 241 1090 313Q1100 328 1084 338Q1080 341 1074 341H820V304H1042Q1005 242 979 176Q969 153 954 108Z" fill="#000000" />
<path d="M769.6845703125 492.67486572265625Q769.6845703125 508.0086669921875 759.017578125 518.6756591796875Q748.3505859375 529.3426513671875 733.0167846679688 529.3426513671875Q717.6829833984375 529.3426513671875 707.0159912109375 518.6756591796875Q696.3489990234375 508.0086669921875 696.3489990234375 492.67486572265625Q696.3489990234375 478.00775146484375 707.0159912109375 467.0074157714844Q717.6829833984375 456.007080078125 733.0167846679688 456.007080078125Q748.3505859375 456.007080078125 759.017578125 467.0074157714844Q769.6845703125 478.00775146484375 769.6845703125 492.67486572265625Z" fill="#000000" />
<path d="M623.6845703125 492.67486572265625Q623.6845703125 508.0086669921875 613.017578125 518.6756591796875Q602.3505859375 529.3426513671875 587.0167846679688 529.3426513671875Q571.6829833984375 529.3426513671875 561.0159912109375 518.6756591796875Q550.3489990234375 508.0086669921875 550.3489990234375 492.67486572265625Q550.3489990234375 478.00775146484375 561.0159912109375 467.0074157714844Q571.6829833984375 456.007080078125 587.0167846679688 456.007080078125Q602.3505859375 456.007080078125 613.017578125 467.0074157714844Q623.6845703125 478.00775146484375 623.6845703125 492.67486572265625Z" fill="#000000" />
<path d="M596 346Q580 338 589 321Q597 305 614 314Q660 339 706 314Q723 305 731 321Q740 338 724 346Q660 380 596 346Z" fill="#000000" />
<path d="M700 348Q691 351 688 342Q685 333 694 330Q700 328 705 326Q713 321 718 329Q722 338 714 342Q707 345 700 348Z" fill="#000000" />
<path d="M293 -55Q293 -73 312 -73Q330 -73 330 -55V0Q330 59 381 103Q429 144 489 147Q660 8 831 147Q891 144 939 103Q990 59 990 0V-55Q990 -73 1008 -73Q1027 -73 1027 -55V0Q1027 76 963 131Q902 183 825 183Q818 183 813 179Q660 51 507 179Q502 183 495 183Q418 183 357 131Q293 76 293 0Z" fill="#000000" />
<path d="M623 335H642L644 334L629 292Z" fill="#000000" />
<path d="M614 334 620 290Q621 281 630 282Q636 283 637 288L652 331Q654 336 650 340L648 342Q645 345 642 345H623Q614 345 614 335Q614 335 614 334Z" fill="#000000" />
<path d="M695 335H675L677 334L691 292Z" fill="#000000" />
<path d="M704 335Q704 335 704 335Q704 345 695 345H675Q671 345 668 342Q662 335 668 329H669L683 288Q684 283 690 282Q700 282 700 291Z" fill="#000000" />
<path d="M439 475Q439 348 502 273Q563 200 659 200Q753 200 815 273Q881 349 881 475Q882 526 861 574Q860 577 857 579Q803 634 730 725Q719 739 705 728Q694 719 672 703Q563 618 475 603Q469 602 465 598Q439 575 439 475ZM476 475Q476 550 487 568Q582 586 695 674Q705 682 713 688Q778 607 829 556Q845 517 844 475Q844 363 787 297Q736 237 659 237Q580 237 530 296Q476 362 476 475Z" fill="#000000" />
<path d="M477 310Q495 310 495 328Q495 347 477 347Q422 347 422 567Q422 667 477 731Q540 805 660 805Q780 805 843 731Q898 667 898 567Q898 445 890 403Q878 347 843 347Q825 347 825 328Q825 310 843 310Q907 310 925 395Q935 441 935 567Q935 680 871 755Q797 842 660 842Q523 842 449 755Q385 680 385 567Q385 441 395 395Q413 310 477 310Z" fill="#000000" />
</g></svg>