<svg xmlns="http://www.w3.org/2000/svg" viewBox="0 0 2048 2048">
<g transform="matrix(1 0 0 -1 0 2048)">
<path d="M91.5877685546875 733.1798706054688V36.51513671875H1228.2723388671875V733.1798706054688Z" fill="#d22f27" />
<path d="M458 453Q451 453 447 448Q439 436 450 428L567 344L522 207Q520 200 524 194Q532 183 543 191L660 276L777 191Q782 187 789 189Q802 194 798 207L753 344L870 428Q875 432 875 439Q875 453 862 453H718L673 590Q671 597 664 599Q651 603 647 590L602 453ZM599 354 622 426H698L721 354L660 310ZM593 426 576 371 501 426ZM744 371 727 426H819ZM590 327 637 293 562 238ZM683 293 730 327 758 238ZM689 453H631L660 541Z" fill="#5c9e31" />
<path d="M73 37Q73 18 92 18H1228Q1247 18 1247 37V733Q1247 752 1228 752H92Q73 752 73 733ZM110 715H1210V55H110Z" fill="#000000" />
</g></svg>