<svg xmlns="http://www.w3.org/2000/svg" viewBox="0 0 2048 2048">
<g transform="matrix(1 0 0 -1 0 2048)">
<path d="M218 822V-55H1098V822Z" fill="#d0cfce" />
<path d="M204 -53Q204 -72 222 -72H1102Q1121 -72 1121 -53V827Q1121 845 1102 845H222Q204 845 204 827ZM241 808H1084V-35H241Z" fill="#000000" />
<path d="M658 206Q701 206 732 237Q763 268 763 311V456Q763 499 732 530Q701 561 658 561Q614 561 583 530Q552 499 552 456V311Q552 268 583 237Q614 206 658 206ZM658 242Q589 242 589 311V456Q589 525 658 525Q727 525 727 456V311Q727 283 706 263Q686 242 658 242Z" fill="#000000" />
</g></svg>