<svg xmlns="http://www.w3.org/2000/svg" viewBox="0 0 2048 2048">
<g transform="matrix(1 0 0 -1 0 2048)">
<path d="M935.6849975585938 28.29412841796875Q935.6849975585938 47.09423828125 928.5457153320312 63.7525634765625Q921.4064331054688 80.410888671875 908.793701171875 93.02362060546875Q896.1809692382812 105.6363525390625 879.6416320800781 112.775634765625Q863.102294921875 119.9149169921875 844.064208984375 119.9149169921875Q825.026123046875 119.9149169921875 808.4867858886719 112.775634765625Q791.9474487304688 105.6363525390625 779.334716796875 93.02362060546875Q766.7219848632812 80.410888671875 759.5827026367188 63.7525634765625Q752.4434204101562 47.09423828125 752.4434204101562 28.29412841796875Q752.4434204101562 9.25604248046875 759.5827026367188 -7.40228271484375Q766.7219848632812 -24.06060791015625 779.334716796875 -36.67333984375Q791.9474487304688 -49.28607177734375 808.4867858886719 -56.306365966796875Q825.026123046875 -63.32666015625 844.064208984375 -63.32666015625Q863.102294921875 -63.32666015625 879.6416320800781 -56.306365966796875Q896.1809692382812 -49.28607177734375 908.793701171875 -36.67333984375Q921.4064331054688 -24.06060791015625 928.5457153320312 -7.40228271484375Q935.6849975585938 9.25604248046875 935.6849975585938 28.29412841796875Z" fill="#d0cfce" />
<path d="M453.68499755859375 28.29412841796875Q453.68499755859375 47.09423828125 446.54571533203125 63.7525634765625Q439.40643310546875 80.410888671875 426.793701171875 93.02362060546875Q414.18096923828125 105.6363525390625 397.6416320800781 112.775634765625Q381.102294921875 119.9149169921875 362.064208984375 119.9149169921875Q343.026123046875 119.9149169921875 326.4867858886719 112.775634765625Q309.94744873046875 105.6363525390625 297.334716796875 93.02362060546875Q284.72198486328125 80.410888671875 277.58270263671875 63.7525634765625Q270.44342041015625 47.09423828125 270.44342041015625 28.29412841796875Q270.44342041015625 9.25604248046875 277.58270263671875 -7.40228271484375Q284.72198486328125 -24.06060791015625 297.334716796875 -36.67333984375Q309.94744873046875 -49.28607177734375 326.4867858886719 -56.306365966796875Q343.026123046875 -63.32666015625 362.064208984375 -63.32666015625Q381.102294921875 -63.32666015625 397.6416320800781 -56.306365966796875Q414.18096923828125 -49.28607177734375 426.793701171875 -36.67333984375Q439.40643310546875 -24.06060791015625 446.54571533203125 -7.40228271484375Q453.68499755859375 9.25604248046875 453.68499755859375 28.29412841796875Z" fill="#d0cfce" />
<path d="M980 298Q1053 163 1032 12Q1032 62 1007.5 103.5Q983 145 941.5 169.5Q900 194 850 194Q800 194 759.0 169.5Q718 145 693.5 103.5Q669 62 669 12L511 14L491 103L617 104Q617 104 621.0 125.0Q625 146 637.5 176.5Q650 207 675.5 236.0Q701 265 744 280Z" fill="#ea5a47" />
<path d="M923 340Q923 350 922 360L932 600Q932 608 932.5 613.5Q933 619 940 619H962Q969 619 974.5 613.5Q980 608 980 601V298Q979 281 962 280H661Q644 281 643 298V320Q643 328 648.5 333.0Q654 338 661 338H905Q914 338 923 340Z" fill="#a57939" />
<path d="M919.349365234375 838.723388671875Q919.349365234375 848.501953125 915.635986328125 857.16650390625Q911.922607421875 865.8310546875 905.3623046875 872.391357421875Q898.802001953125 878.95166015625 890.1993408203125 882.6650390625Q881.5966796875 886.37841796875 871.6943359375 886.37841796875Q861.7919921875 886.37841796875 853.1893310546875 882.6650390625Q844.586669921875 878.95166015625 838.0263671875 872.391357421875Q831.466064453125 865.8310546875 827.752685546875 857.16650390625Q824.039306640625 848.501953125 824.039306640625 838.723388671875Q824.039306640625 828.821044921875 827.752685546875 820.156494140625Q831.466064453125 811.491943359375 838.0263671875 804.931640625Q844.586669921875 798.371337890625 853.1893310546875 794.7198486328125Q861.7919921875 791.068359375 871.6943359375 791.068359375Q881.5966796875 791.068359375 890.1993408203125 794.7198486328125Q898.802001953125 798.371337890625 905.3623046875 804.931640625Q911.922607421875 811.491943359375 915.635986328125 820.156494140625Q919.349365234375 828.821044921875 919.349365234375 838.723388671875Z" fill="#fadcbc" />
<path d="M642 423Q614 420 591 405Q564 391 554 363L475 189Q466 170 466 150Q469 141 478.5 138.5Q488 136 493 144L635 334L787 335H870Q888 335 901.5 348.0Q915 361 916 380L922 661Q921 688 902.0 707.0Q883 726 856 727Q830 728 809.0 711.0Q788 694 784 667L772 588L750 430L749 429Z" fill="#fadcbc" />
<path d="M934 841Q934 868 915 887Q895 907 868 907Q802 907 802 841Q802 813 821 794Q841 775 868 775Q934 775 934 841ZM897 841Q897 829 889 820Q880 811 868 811Q839 811 839 841Q839 870 868 870Q897 870 897 841Z" fill="#000000" />
<path d="M648 444Q648 444 648 444Q616 441 589 425Q558 408 545 374L459 189Q449 167 451 143Q451 141 452 138Q459 117 482 118Q501 118 512 134L652 320H794H877Q940 320 942 383L948 664Q948 664 948 665Q945 745 865 749Q865 749 864 749Q786 751 773 674Q773 674 773 673L761 594L741 450ZM651 408 758 415Q765 415 769 420H770Q775 425 775 431L797 589L809 668Q817 713 863 713Q910 710 911 664L905 384Q904 357 877 357H794L643 356Q634 356 628 349L489 165Q490 170 492 174L578 359Q578 360 579 360Q587 382 607 393Q607 393 608 393Q628 405 651 408ZM481 154Q481 154 481 154Z" fill="#000000" />
<path d="M885 656Q894 672 878 681Q862 690 853 674L783 548L623 577Q605 581 602 563Q600 553 604 548Q607 543 616 541L789 510Q802 508 808 519Z" fill="#000000" />
<path d="M503 113Q493 129 477 119Q462 110 471 94Q494 57 493 14Q492 -4 510 -4Q510 -4 511 -4L668 -6Q687 -6 687 12Q687 80 735 127Q782 175 850 175Q918 175 965 127Q1013 80 1013 12Q1013 -6 1032 -6Q1047 -6 1050 10Q1072 167 996 307Q988 323 972 314Q955 306 964 289Q1007 210 1016 125Q1005 140 991 153Q933 212 850 212Q767 212 709 153Q657 102 651 31L529 32Q526 75 503 113Z" fill="#000000" />
<path d="M750 262Q767 269 761 286Q755 303 738 297Q659 269 621 184Q607 152 601 122H559Q540 122 540 104Q540 85 559 85H617Q634 85 635 102Q638 133 655 169Q686 240 750 262Z" fill="#000000" />
<path d="M904 357H661Q625 357 625 320V298Q625 297 625 297Q627 264 660 261Q661 261 661 261H962Q962 261 963 261Q996 264 998 297Q999 297 999 298V601Q998 637 962 637H940Q922 637 916 621Q914 615 914 604Q914 602 914 600L903 361Q903 359 903 357Q903 357 904 357ZM927 322Q942 325 942 341Q942 351 940 361L950 599Q951 600 951 600Q951 600 951 601H962V299Q962 298 961 298H662Q661 298 661 299V320H905Q916 320 927 322Z" fill="#000000" />
<path d="M472 29Q472 74 440 106Q408 139 362 139Q317 139 285 106Q252 74 252 29Q252 -17 285 -49Q317 -81 362 -81Q408 -81 440 -49Q472 -17 472 29ZM436 29Q436 -45 362 -45Q332 -45 311 -23Q289 -2 289 29Q289 59 311 80Q332 102 362 102Q393 102 414 80Q436 59 436 29Z" fill="#000000" />
<path d="M955 29Q955 74 922 106Q890 139 845 139Q799 139 767 106Q735 74 735 29Q735 -17 767 -49Q799 -81 845 -81Q890 -81 922 -49Q955 -17 955 29ZM918 29Q918 -45 845 -45Q814 -45 793 -23Q771 -2 771 29Q771 59 793 80Q814 102 845 102Q875 102 896 80Q918 59 918 29Z" fill="#000000" />
<path d="M494 13Q494 4 498 -1Q503 -6 512 -6Q530 -7 531 11Q532 26 529 41Q519 106 473 153Q417 215 336 198Q327 196 323 190Q320 185 322 176Q325 158 343 162Q404 175 446 128Q446 128 447 127Q485 89 493 35Q493 35 493 35Q495 24 494 13Z" fill="#000000" />
<path d="M388 196Q381 179 398 172Q415 165 422 182L553 492H596L637 490Q656 489 656 507Q657 517 652 521Q648 526 639 526L597 528Q596 528 596 528H541Q529 528 524 517Z" fill="#000000" />
<path d="M614 539Q614 558 596 558Q578 558 578 539V510Q578 492 596 492Q614 492 614 510Z" fill="#000000" />
</g></svg>