<svg xmlns="http://www.w3.org/2000/svg" viewBox="0 0 2048 2048">
<g transform="matrix(1 0 0 -1 0 2048)">
<path d="M1021 -41Q1020 -41 1020.5 -21.5Q1021 -2 1019.0 28.5Q1017 59 1008.5 93.0Q1000 127 980.0 157.0Q960 187 925.5 206.0Q891 225 836 225Q792 194 747.0 174.0Q702 154 658 154H661Q618 154 577.5 173.0Q537 192 492 223Q436 223 399.5 204.0Q363 185 342.5 154.5Q322 124 312.5 90.5Q303 57 300.5 27.0Q298 -3 299.5 -22.0Q301 -41 301 -41Z" fill="#92d3f5" />
<path d="M658 51 625 -7 596 -43Q594 -44 595 -46Q596 -48 598 -48H718Q720 -48 721 -46Q722 -44 721 -43L692 -7Z" fill="#3f3f3f" />
<path d="M704 94 657 142 610 93 613 90Q615 70 624.5 52.5Q634 35 658 35Q683 35 692.5 53.5Q702 72 704 94Z" fill="#3f3f3f" />
<path d="M641 613Q710 605 776 623Q813 633 844 656Q858 666 868 678H482Q494 666 509 657Q570 619 641 613Z" fill="#3f3f3f" />
<path d="M923 725Q891 733 869.5 750.0Q848 767 829.0 787.5Q810 808 788.5 826.5Q767 845 736.5 857.0Q706 869 660 869Q614 869 584.0 857.0Q554 845 532.5 826.5Q511 808 492.0 787.5Q473 767 451.5 750.0Q430 733 398 725Q387 722 386.5 710.0Q386 698 392.0 683.5Q398 669 405 660L442 616L445 614Q458 632 477 646L491 657Q476 666 464 678H850Q839 666 826 656L838 646Q859 631 873 610L874 611L915 660Q923 669 929.0 683.5Q935 698 934.5 710.0Q934 722 923 725ZM661 719Q646 719 637.0 729.5Q628 740 623.0 754.5Q618 769 616.0 780.0Q614 791 614 791Q635 806 660.5 805.5Q686 805 706 790Q706 790 704.5 779.0Q703 768 698.0 754.0Q693 740 684.5 729.5Q676 719 661 719Z" fill="#92d3f5" />
<path d="M662 723Q676 723 685.0 734.0Q694 745 699.0 759.0Q704 773 705.5 783.5Q707 794 707 794Q687 810 661.5 810.0Q636 810 615 795Q615 795 617.0 784.0Q619 773 624.0 759.0Q629 745 638.0 734.0Q647 723 662 723Z" fill="#fcea2b" />
<path d="M786 833Q792 819 815.0 799.5Q838 780 866.0 761.5Q894 743 914.0 730.5Q934 718 934 718Q935 695 925.0 677.0Q915 659 902.0 647.0Q889 635 878.5 628.5Q868 622 868 622L836 677L738 683Q758 683 768.5 698.0Q779 713 783.0 735.5Q787 758 787.5 780.5Q788 803 787.0 818.0Q786 833 786 833Z" fill="#61b2e4" />
<path d="M818 197Q872 197 907.0 180.0Q942 163 961.5 135.5Q981 108 989.0 77.5Q997 47 998.5 20.0Q1000 -7 998.0 -24.0Q996 -41 996 -41H903Q899 -22 894.0 1.0Q889 24 876.5 46.5Q864 69 838.5 88.5Q813 108 767.5 120.5Q722 133 651 135Q688 140 714.5 148.0Q741 156 765.0 168.0Q789 180 818 197Z" fill="#61b2e4" />
<path d="M853 261Q853 255 824.5 251.0Q796 247 752.0 245.0Q708 243 658.5 243.0Q609 243 564.5 245.0Q520 247 492.0 251.0Q464 255 464 261Q407 266 374.5 281.0Q342 296 328.5 308.5Q315 321 315 321L418 332Q381 371 371.0 409.0Q361 447 368.5 481.5Q376 516 394.0 545.0Q412 574 432.0 596.0Q452 618 466.0 630.0Q480 642 480 642H514L678 613L809 642H836Q836 642 850.5 630.0Q865 618 885.0 596.0Q905 574 922.5 545.0Q940 516 948.0 481.5Q956 447 945.5 409.0Q935 371 898 332L1006 321Q1006 321 991.5 308.5Q977 296 943.5 281.0Q910 266 853 261Z" fill="#000000" />
<path d="M660 617Q660 617 638.5 612.0Q617 607 585.5 597.5Q554 588 522.5 574.0Q491 560 470.5 541.5Q450 523 451 500Q451 428 479.0 369.0Q507 310 554.0 275.0Q601 240 659 240Q716 240 763.0 275.0Q810 310 838.5 369.0Q867 428 867 500Q867 510 853.0 531.0Q839 552 819.5 574.0Q800 596 785.5 611.5Q771 627 771 627Z" fill="#a57939" />
<path d="M905.0570068359375 18.43743896484375Q905.0570068359375 33.8302001953125 894.2820739746094 44.605133056640625Q883.5071411132812 55.38006591796875 868.1143798828125 55.38006591796875Q852.7216186523438 55.38006591796875 841.9466857910156 44.605133056640625Q831.1717529296875 33.8302001953125 831.1717529296875 18.43743896484375Q831.1717529296875 3.044677734375 841.9466857910156 -7.730255126953125Q852.7216186523438 -18.50518798828125 868.1143798828125 -18.50518798828125Q883.5071411132812 -18.50518798828125 894.2820739746094 -7.730255126953125Q905.0570068359375 3.044677734375 905.0570068359375 18.43743896484375Z" fill="#000000" />
<path d="M293 -33Q296 -52 314 -49Q332 -46 329 -28Q320 27 338 83Q370 187 489 189Q588 124 657 123H659Q729 124 827 189Q947 187 979 83Q996 27 987 -28Q984 -46 1003 -49Q1021 -52 1023 -33Q1033 30 1014 94Q973 226 822 226Q816 226 812 223L809 221Q718 161 659 160H657Q598 161 504 223Q500 226 494 226Q343 226 303 94Q283 30 293 -33Z" fill="#000000" />
<path d="M511 215Q508 223 502 226Q496 228 487 225Q470 217 477 200L546 38Q550 29 556 27Q562 24 570 28Q574 29 576 32L623 80L670 129Q683 142 670 155Q657 168 644 155L597 106L569 77Z" fill="#000000" />
<path d="M691 81Q703 68 717 81Q730 93 717 107L670 155Q657 168 644 155Q631 142 644 129Z" fill="#000000" />
<path d="M837 201Q844 217 827 225Q810 232 803 215L802 212L745 77L717 106Q704 120 691 107Q678 94 691 81L738 32Q741 29 744 28Q761 21 768 38L836 198Z" fill="#000000" />
<path d="M631 92Q629 110 611 109Q593 107 595 89Q601 17 658 17Q717 17 722 92Q722 93 722 94Q722 112 704 112Q686 112 685 94Q682 54 658 54Q635 54 631 92Z" fill="#000000" />
<path d="M658.2117919921875 24.9736328125Q668.4513549804688 40.9937744140625 652.821533203125 50.12451171875Q637.9290771484375 60.6513671875 627.3626098632812 45.6959228515625L583.5384521484375 -20.443603515625Q577.7230834960938 -28.0870361328125 579.6845092773438 -34.4752197265625Q580.5816650390625 -41.19482421875 587.8644409179688 -45.9259033203125Q603.8211669921875 -56.121337890625 614.3876342773438 -41.1658935546875Z" fill="#000000" />
<path d="M689 46Q679 61 663 51Q648 40 658 25L703 -41Q713 -56 728 -46Q744 -36 733 -20Z" fill="#000000" />
<path d="M494 -21Q502 -21 507.5 -15.5Q513 -10 513 -2Q513 5 507.5 10.5Q502 16 494 16H387Q380 16 374.5 10.5Q369 5 369 -2Q369 -10 374.5 -15.5Q380 -21 387 -21Z" fill="#000000" />
<path d="M733 572Q718 572 707 561Q696 550 696 535Q696 520 707.0 509.0Q718 498 733 498Q748 498 759.0 509.0Q770 520 770 535Q770 550 759.0 561.0Q748 572 733 572Z" fill="#000000" />
<path d="M586 572Q571 572 560 561Q549 550 549 535Q549 520 560.0 509.0Q571 498 586 498Q601 498 612.0 509.0Q623 520 623 535Q623 550 612.0 561.0Q601 572 586 572Z" fill="#000000" />
<path d="M660 352Q694 352 724 367Q730 371 732.5 378.0Q735 385 732 392Q728 399 721.0 401.5Q714 404 707 400Q660 375 614 400Q607 404 599.5 401.5Q592 399 589 392Q586 385 588.0 378.0Q590 371 597 367Q627 352 660 352Z" fill="#000000" />
<path d="M660 232Q718 232 767.0 264.5Q816 297 847.5 353.0Q879 409 885 479Q887 494 887 510H850Q850 496 849 482Q843 421 816.5 373.0Q790 325 749.5 297.0Q709 269 660 269Q612 269 571.0 298.0Q530 327 503.0 376.5Q476 426 472 487L435 484Q441 412 472.0 355.0Q503 298 552.5 265.0Q602 232 660 232Z" fill="#000000" />
<path d="M662 705Q682 705 694.5 717.0Q707 729 713.5 745.5Q720 762 722.5 775.5Q725 789 725 793Q726 801 720 807Q695 828 662.5 828.5Q630 829 604 810Q596 803 597 793Q597 790 600.0 776.0Q603 762 609.5 745.5Q616 729 629.0 717.0Q642 705 662 705ZM662 741Q652 741 645.0 756.0Q638 771 635 786Q661 798 687 786Q685 773 678.5 757.0Q672 741 662 741V723Z" fill="#000000" />
<path d="M665 597Q673 597 681 597Q741 599 789.0 618.5Q837 638 865 671Q872 680 867 690Q862 701 851 701H465Q452 701 448 690Q443 678 452 670Q485 636 543.0 616.5Q601 597 665 597ZM522 664H800Q743 634 680 634Q597 629 522 664Z" fill="#000000" />
<path d="M875 597Q884 597 889 603L930 653Q940 664 948.5 685.5Q957 707 952 725Q946 743 928 747Q899 755 879.0 772.0Q859 789 840 808Q821 828 798.0 847.0Q775 866 742.5 879.0Q710 892 661 892Q613 892 580.0 879.0Q547 866 524.5 847.0Q502 828 483 808Q463 789 443.0 772.0Q423 755 394 747Q376 743 371 725Q365 707 374.0 685.5Q383 664 392 653L429 608Q434 603 441.5 602.0Q449 601 455 606Q461 611 461.5 618.5Q462 626 457 632L420 676Q407 692 405 712Q467 732 509 782Q527 801 546.5 817.5Q566 834 593.0 844.5Q620 855 661 855Q702 855 729.0 844.5Q756 834 775.5 817.5Q795 801 814 782Q855 732 917 712Q915 692 902 676L861 627Q854 618 859 607Q863 597 875 597Z" fill="#000000" />
<path d="M661 232Q723 232 774.5 269.5Q826 307 856.5 370.0Q887 433 887 510Q887 517 881.5 522.5Q876 528 869 528Q861 528 855.5 522.5Q850 517 850 510Q850 443 824.5 388.0Q799 333 756.0 300.5Q713 268 661 268Q608 268 565.0 300.5Q522 333 496.5 388.0Q471 443 471 510Q471 517 465.5 522.5Q460 528 453 528Q445 528 439.5 522.5Q434 517 434 510Q434 433 465.0 370.0Q496 307 547.0 269.5Q598 232 661 232Z" fill="#000000" />
<path d="M464 249Q481 248 482 266Q483 284 465 285Q411 289 362 314L420 320Q432 322 435 332Q439 343 431 351Q380 399 384 468Q387 502 403.5 532.0Q420 562 440.0 584.5Q460 607 475.5 620.0Q491 633 491 633Q497 638 498.0 645.5Q499 653 494 659Q490 665 482.5 666.0Q475 667 469 663Q468 662 450.5 647.0Q433 632 410.5 606.0Q388 580 369.5 546.0Q351 512 348 471Q342 406 382 353L313 346Q303 345 298 335Q294 326 300 317Q301 316 316.0 301.5Q331 287 366.0 271.0Q401 255 462 249Q463 249 464 249Z" fill="#000000" />
<path d="M852 249Q853 249 854 249Q915 255 951.0 270.5Q987 286 1003.5 300.5Q1020 315 1021 316Q1027 325 1023 335Q1019 345 1008 346L934 353Q974 406 968 471Q965 512 946.5 546.0Q928 580 905.5 606.0Q883 632 866.0 647.0Q849 662 847 663Q841 667 833.5 666.0Q826 665 822 659Q817 653 818.0 645.5Q819 638 825 633Q826 633 841.0 620.0Q856 607 876.0 584.5Q896 562 912.5 532.0Q929 502 932 468Q936 399 885 351Q877 343 881 332Q885 322 896 320L957 314Q907 289 851 285Q833 284 834 266Q835 248 852 249Z" fill="#000000" />
<path d="M435 471Q450 471 453 485Q457 502 476.5 519.0Q496 536 523.5 551.5Q551 567 581.0 578.5Q611 590 636 597Q643 600 646.5 606.5Q650 613 648 620Q646 627 639.5 631.0Q633 635 625 633Q620 631 598.5 624.0Q577 617 549.0 605.0Q521 593 492.5 576.0Q464 559 443.5 538.5Q423 518 417 493Q416 485 420.0 479.0Q424 473 431 471Q433 471 435 471Z" fill="#000000" />
<path d="M868 496Q880 496 884 506Q889 517 882 526L785 638Q780 643 772.5 644.0Q765 645 760 640Q754 635 753.5 627.5Q753 620 758 614L854 502Q859 496 868 496Z" fill="#000000" />
</g></svg>