<svg xmlns="http://www.w3.org/2000/svg" viewBox="0 0 2048 2048">
<g transform="matrix(1 0 0 -1 0 2048)">
<path d="M91.5877685546875 733.1798706054688V36.51513671875H1228.2723388671875V733.1798706054688Z" fill="#ffffff" />
<path d="M91.5877685546875 732.7880859375V641.1484375H1228.2723388671875V732.7880859375Z" fill="#d22f27" />
<path d="M91.5877685546875 568.6505126953125V495.3173828125H1228.2723388671875V568.6505126953125Z" fill="#d22f27" />
<path d="M91.5877685546875 421.6505126953125V348.3173828125H1228.2723388671875V421.6505126953125Z" fill="#d22f27" />
<path d="M92.3377685546875 733.4402465820312V348.41455078125H679.0223388671875V733.4402465820312Z" fill="#1e50a0" />
<path d="M91.5877685546875 274.6505126953125V201.3173828125H1228.2723388671875V274.6505126953125Z" fill="#d22f27" />
<path d="M206.38909912109375 641.2609252929688Q206.38909912109375 647.8878173828125 203.89581298828125 653.7273559570312Q201.40252685546875 659.56689453125 197.0064697265625 663.9629516601562Q192.61041259765625 668.3590087890625 186.7708740234375 670.852294921875Q180.93133544921875 673.3455810546875 174.304443359375 673.3455810546875Q167.67755126953125 673.3455810546875 161.8380126953125 670.852294921875Q155.99847412109375 668.3590087890625 151.6024169921875 663.9629516601562Q147.20635986328125 659.56689453125 144.71307373046875 653.7273559570312Q142.21978759765625 647.8878173828125 142.21978759765625 641.2609252929688Q142.21978759765625 634.634033203125 144.71307373046875 628.7944946289062Q147.20635986328125 622.9549560546875 151.6024169921875 618.5588989257812Q155.99847412109375 614.162841796875 161.8380126953125 611.6695556640625Q167.67755126953125 609.17626953125 174.304443359375 609.17626953125Q180.93133544921875 609.17626953125 186.7708740234375 611.6695556640625Q192.61041259765625 614.162841796875 197.0064697265625 618.5588989257812Q201.40252685546875 622.9549560546875 203.89581298828125 628.7944946289062Q206.38909912109375 634.634033203125 206.38909912109375 641.2609252929688Z" fill="#ffffff" />
<path d="M353.38909912109375 641.2609252929688Q353.38909912109375 647.8878173828125 350.89581298828125 653.7273559570312Q348.40252685546875 659.56689453125 344.0064697265625 663.9629516601562Q339.61041259765625 668.3590087890625 333.7708740234375 670.852294921875Q327.93133544921875 673.3455810546875 321.304443359375 673.3455810546875Q314.67755126953125 673.3455810546875 308.8380126953125 670.852294921875Q302.99847412109375 668.3590087890625 298.6024169921875 663.9629516601562Q294.20635986328125 659.56689453125 291.71307373046875 653.7273559570312Q289.21978759765625 647.8878173828125 289.21978759765625 641.2609252929688Q289.21978759765625 634.634033203125 291.71307373046875 628.7944946289062Q294.20635986328125 622.9549560546875 298.6024169921875 618.5588989257812Q302.99847412109375 614.162841796875 308.8380126953125 611.6695556640625Q314.67755126953125 609.17626953125 321.304443359375 609.17626953125Q327.93133544921875 609.17626953125 333.7708740234375 611.6695556640625Q339.61041259765625 614.162841796875 344.0064697265625 618.5588989257812Q348.40252685546875 622.9549560546875 350.89581298828125 628.7944946289062Q353.38909912109375 634.634033203125 353.38909912109375 641.2609252929688Z" fill="#ffffff" />
<path d="M499.38909912109375 641.2609252929688Q499.38909912109375 647.8878173828125 496.89581298828125 653.7273559570312Q494.40252685546875 659.56689453125 490.0064697265625 663.9629516601562Q485.61041259765625 668.3590087890625 479.7708740234375 670.852294921875Q473.93133544921875 673.3455810546875 467.304443359375 673.3455810546875Q460.67755126953125 673.3455810546875 454.8380126953125 670.852294921875Q448.99847412109375 668.3590087890625 444.6024169921875 663.9629516601562Q440.20635986328125 659.56689453125 437.71307373046875 653.7273559570312Q435.21978759765625 647.8878173828125 435.21978759765625 641.2609252929688Q435.21978759765625 634.634033203125 437.71307373046875 628.7944946289062Q440.20635986328125 622.9549560546875 444.6024169921875 618.5588989257812Q448.99847412109375 614.162841796875 454.8380126953125 611.6695556640625Q460.67755126953125 609.17626953125 467.304443359375 609.17626953125Q473.93133544921875 609.17626953125 479.7708740234375 611.6695556640625Q485.61041259765625 614.162841796875 490.0064697265625 618.5588989257812Q494.40252685546875 622.9549560546875 496.89581298828125 628.7944946289062Q499.38909912109375 634.634033203125 499.38909912109375 641.2609252929688Z" fill="#ffffff" />
<path d="M646.3890991210938 641.2609252929688Q646.3890991210938 647.8878173828125 643.8958129882812 653.7273559570312Q641.4025268554688 659.56689453125 637.0064697265625 663.9629516601562Q632.6104125976562 668.3590087890625 626.7708740234375 670.852294921875Q620.9313354492188 673.3455810546875 614.304443359375 673.3455810546875Q607.6775512695312 673.3455810546875 601.8380126953125 670.852294921875Q595.9984741210938 668.3590087890625 591.6024169921875 663.9629516601562Q587.2063598632812 659.56689453125 584.7130737304688 653.7273559570312Q582.2197875976562 647.8878173828125 582.2197875976562 641.2609252929688Q582.2197875976562 634.634033203125 584.7130737304688 628.7944946289062Q587.2063598632812 622.9549560546875 591.6024169921875 618.5588989257812Q595.9984741210938 614.162841796875 601.8380126953125 611.6695556640625Q607.6775512695312 609.17626953125 614.304443359375 609.17626953125Q620.9313354492188 609.17626953125 626.7708740234375 611.6695556640625Q632.6104125976562 614.162841796875 637.0064697265625 618.5588989257812Q641.4025268554688 622.9549560546875 643.8958129882812 628.7944946289062Q646.3890991210938 634.634033203125 646.3890991210938 641.2609252929688Z" fill="#ffffff" />
<path d="M573.3890991210938 568.2609252929688Q573.3890991210938 574.8878173828125 570.8958129882812 580.7273559570312Q568.4025268554688 586.56689453125 564.0064697265625 590.9629516601562Q559.6104125976562 595.3590087890625 553.7708740234375 597.852294921875Q547.9313354492188 600.3455810546875 541.304443359375 600.3455810546875Q534.6775512695312 600.3455810546875 528.8380126953125 597.852294921875Q522.9984741210938 595.3590087890625 518.6024169921875 590.9629516601562Q514.2063598632812 586.56689453125 511.71307373046875 580.7273559570312Q509.21978759765625 574.8878173828125 509.21978759765625 568.2609252929688Q509.21978759765625 561.634033203125 511.71307373046875 555.7944946289062Q514.2063598632812 549.9549560546875 518.6024169921875 545.5588989257812Q522.9984741210938 541.162841796875 528.8380126953125 538.6695556640625Q534.6775512695312 536.17626953125 541.304443359375 536.17626953125Q547.9313354492188 536.17626953125 553.7708740234375 538.6695556640625Q559.6104125976562 541.162841796875 564.0064697265625 545.5588989257812Q568.4025268554688 549.9549560546875 570.8958129882812 555.7944946289062Q573.3890991210938 561.634033203125 573.3890991210938 568.2609252929688Z" fill="#ffffff" />
<path d="M426.38909912109375 568.2609252929688Q426.38909912109375 574.8878173828125 423.89581298828125 580.7273559570312Q421.40252685546875 586.56689453125 417.0064697265625 590.9629516601562Q412.61041259765625 595.3590087890625 406.7708740234375 597.852294921875Q400.93133544921875 600.3455810546875 394.304443359375 600.3455810546875Q387.67755126953125 600.3455810546875 381.8380126953125 597.852294921875Q375.99847412109375 595.3590087890625 371.6024169921875 590.9629516601562Q367.20635986328125 586.56689453125 364.71307373046875 580.7273559570312Q362.21978759765625 574.8878173828125 362.21978759765625 568.2609252929688Q362.21978759765625 561.634033203125 364.71307373046875 555.7944946289062Q367.20635986328125 549.9549560546875 371.6024169921875 545.5588989257812Q375.99847412109375 541.162841796875 381.8380126953125 538.6695556640625Q387.67755126953125 536.17626953125 394.304443359375 536.17626953125Q400.93133544921875 536.17626953125 406.7708740234375 538.6695556640625Q412.61041259765625 541.162841796875 417.0064697265625 545.5588989257812Q421.40252685546875 549.9549560546875 423.89581298828125 555.7944946289062Q426.38909912109375 561.634033203125 426.38909912109375 568.2609252929688Z" fill="#ffffff" />
<path d="M279.38909912109375 568.2609252929688Q279.38909912109375 574.8878173828125 276.89581298828125 580.7273559570312Q274.40252685546875 586.56689453125 270.0064697265625 590.9629516601562Q265.61041259765625 595.3590087890625 259.7708740234375 597.852294921875Q253.93133544921875 600.3455810546875 247.304443359375 600.3455810546875Q240.67755126953125 600.3455810546875 234.8380126953125 597.852294921875Q228.99847412109375 595.3590087890625 224.6024169921875 590.9629516601562Q220.20635986328125 586.56689453125 217.71307373046875 580.7273559570312Q215.21978759765625 574.8878173828125 215.21978759765625 568.2609252929688Q215.21978759765625 561.634033203125 217.71307373046875 555.7944946289062Q220.20635986328125 549.9549560546875 224.6024169921875 545.5588989257812Q228.99847412109375 541.162841796875 234.8380126953125 538.6695556640625Q240.67755126953125 536.17626953125 247.304443359375 536.17626953125Q253.93133544921875 536.17626953125 259.7708740234375 538.6695556640625Q265.61041259765625 541.162841796875 270.0064697265625 545.5588989257812Q274.40252685546875 549.9549560546875 276.89581298828125 555.7944946289062Q279.38909912109375 561.634033203125 279.38909912109375 568.2609252929688Z" fill="#ffffff" />
<path d="M206.38909912109375 495.26092529296875Q206.38909912109375 501.8878173828125 203.89581298828125 507.72735595703125Q201.40252685546875 513.56689453125 197.0064697265625 517.9629516601562Q192.61041259765625 522.3590087890625 186.7708740234375 524.852294921875Q180.93133544921875 527.3455810546875 174.304443359375 527.3455810546875Q167.67755126953125 527.3455810546875 161.8380126953125 524.852294921875Q155.99847412109375 522.3590087890625 151.6024169921875 517.9629516601562Q147.20635986328125 513.56689453125 144.71307373046875 507.72735595703125Q142.21978759765625 501.8878173828125 142.21978759765625 495.26092529296875Q142.21978759765625 488.634033203125 144.71307373046875 482.79449462890625Q147.20635986328125 476.9549560546875 151.6024169921875 472.55889892578125Q155.99847412109375 468.162841796875 161.8380126953125 465.6695556640625Q167.67755126953125 463.17626953125 174.304443359375 463.17626953125Q180.93133544921875 463.17626953125 186.7708740234375 465.6695556640625Q192.61041259765625 468.162841796875 197.0064697265625 472.55889892578125Q201.40252685546875 476.9549560546875 203.89581298828125 482.79449462890625Q206.38909912109375 488.634033203125 206.38909912109375 495.26092529296875Z" fill="#ffffff" />
<path d="M353.38909912109375 495.26092529296875Q353.38909912109375 501.8878173828125 350.89581298828125 507.72735595703125Q348.40252685546875 513.56689453125 344.0064697265625 517.9629516601562Q339.61041259765625 522.3590087890625 333.7708740234375 524.852294921875Q327.93133544921875 527.3455810546875 321.304443359375 527.3455810546875Q314.67755126953125 527.3455810546875 308.8380126953125 524.852294921875Q302.99847412109375 522.3590087890625 298.6024169921875 517.9629516601562Q294.20635986328125 513.56689453125 291.71307373046875 507.72735595703125Q289.21978759765625 501.8878173828125 289.21978759765625 495.26092529296875Q289.21978759765625 488.634033203125 291.71307373046875 482.79449462890625Q294.20635986328125 476.9549560546875 298.6024169921875 472.55889892578125Q302.99847412109375 468.162841796875 308.8380126953125 465.6695556640625Q314.67755126953125 463.17626953125 321.304443359375 463.17626953125Q327.93133544921875 463.17626953125 333.7708740234375 465.6695556640625Q339.61041259765625 468.162841796875 344.0064697265625 472.55889892578125Q348.40252685546875 476.9549560546875 350.89581298828125 482.79449462890625Q353.38909912109375 488.634033203125 353.38909912109375 495.26092529296875Z" fill="#ffffff" />
<path d="M499.38909912109375 495.26092529296875Q499.38909912109375 501.8878173828125 496.89581298828125 507.72735595703125Q494.40252685546875 513.56689453125 490.0064697265625 517.9629516601562Q485.61041259765625 522.3590087890625 479.7708740234375 524.852294921875Q473.93133544921875 527.3455810546875 467.304443359375 527.3455810546875Q460.67755126953125 527.3455810546875 454.8380126953125 524.852294921875Q448.99847412109375 522.3590087890625 444.6024169921875 517.9629516601562Q440.20635986328125 513.56689453125 437.71307373046875 507.72735595703125Q435.21978759765625 501.8878173828125 435.21978759765625 495.26092529296875Q435.21978759765625 488.634033203125 437.71307373046875 482.79449462890625Q440.20635986328125 476.9549560546875 444.6024169921875 472.55889892578125Q448.99847412109375 468.162841796875 454.8380126953125 465.6695556640625Q460.67755126953125 463.17626953125 467.304443359375 463.17626953125Q473.93133544921875 463.17626953125 479.7708740234375 465.6695556640625Q485.61041259765625 468.162841796875 490.0064697265625 472.55889892578125Q494.40252685546875 476.9549560546875 496.89581298828125 482.79449462890625Q499.38909912109375 488.634033203125 499.38909912109375 495.26092529296875Z" fill="#ffffff" />
<path d="M646.3890991210938 495.26092529296875Q646.3890991210938 501.8878173828125 643.8958129882812 507.72735595703125Q641.4025268554688 513.56689453125 637.0064697265625 517.9629516601562Q632.6104125976562 522.3590087890625 626.7708740234375 524.852294921875Q620.9313354492188 527.3455810546875 614.304443359375 527.3455810546875Q607.6775512695312 527.3455810546875 601.8380126953125 524.852294921875Q595.9984741210938 522.3590087890625 591.6024169921875 517.9629516601562Q587.2063598632812 513.56689453125 584.7130737304688 507.72735595703125Q582.2197875976562 501.8878173828125 582.2197875976562 495.26092529296875Q582.2197875976562 488.634033203125 584.7130737304688 482.79449462890625Q587.2063598632812 476.9549560546875 591.6024169921875 472.55889892578125Q595.9984741210938 468.162841796875 601.8380126953125 465.6695556640625Q607.6775512695312 463.17626953125 614.304443359375 463.17626953125Q620.9313354492188 463.17626953125 626.7708740234375 465.6695556640625Q632.6104125976562 468.162841796875 637.0064697265625 472.55889892578125Q641.4025268554688 476.9549560546875 643.8958129882812 482.79449462890625Q646.3890991210938 488.634033203125 646.3890991210938 495.26092529296875Z" fill="#ffffff" />
<path d="M573.3890991210938 421.26092529296875Q573.3890991210938 427.8878173828125 570.8958129882812 433.72735595703125Q568.4025268554688 439.56689453125 564.0064697265625 443.96295166015625Q559.6104125976562 448.3590087890625 553.7708740234375 450.852294921875Q547.9313354492188 453.3455810546875 541.304443359375 453.3455810546875Q534.6775512695312 453.3455810546875 528.8380126953125 450.852294921875Q522.9984741210938 448.3590087890625 518.6024169921875 443.96295166015625Q514.2063598632812 439.56689453125 511.71307373046875 433.72735595703125Q509.21978759765625 427.8878173828125 509.21978759765625 421.26092529296875Q509.21978759765625 414.634033203125 511.71307373046875 408.79449462890625Q514.2063598632812 402.9549560546875 518.6024169921875 398.55889892578125Q522.9984741210938 394.162841796875 528.8380126953125 391.6695556640625Q534.6775512695312 389.17626953125 541.304443359375 389.17626953125Q547.9313354492188 389.17626953125 553.7708740234375 391.6695556640625Q559.6104125976562 394.162841796875 564.0064697265625 398.55889892578125Q568.4025268554688 402.9549560546875 570.8958129882812 408.79449462890625Q573.3890991210938 414.634033203125 573.3890991210938 421.26092529296875Z" fill="#ffffff" />
<path d="M426.38909912109375 421.26092529296875Q426.38909912109375 427.8878173828125 423.89581298828125 433.72735595703125Q421.40252685546875 439.56689453125 417.0064697265625 443.96295166015625Q412.61041259765625 448.3590087890625 406.7708740234375 450.852294921875Q400.93133544921875 453.3455810546875 394.304443359375 453.3455810546875Q387.67755126953125 453.3455810546875 381.8380126953125 450.852294921875Q375.99847412109375 448.3590087890625 371.6024169921875 443.96295166015625Q367.20635986328125 439.56689453125 364.71307373046875 433.72735595703125Q362.21978759765625 427.8878173828125 362.21978759765625 421.26092529296875Q362.21978759765625 414.634033203125 364.71307373046875 408.79449462890625Q367.20635986328125 402.9549560546875 371.6024169921875 398.55889892578125Q375.99847412109375 394.162841796875 381.8380126953125 391.6695556640625Q387.67755126953125 389.17626953125 394.304443359375 389.17626953125Q400.93133544921875 389.17626953125 406.7708740234375 391.6695556640625Q412.61041259765625 394.162841796875 417.0064697265625 398.55889892578125Q421.40252685546875 402.9549560546875 423.89581298828125 408.79449462890625Q426.38909912109375 414.634033203125 426.38909912109375 421.26092529296875Z" fill="#ffffff" />
<path d="M279.38909912109375 421.26092529296875Q279.38909912109375 427.8878173828125 276.89581298828125 433.72735595703125Q274.40252685546875 439.56689453125 270.0064697265625 443.96295166015625Q265.61041259765625 448.3590087890625 259.7708740234375 450.852294921875Q253.93133544921875 453.3455810546875 247.304443359375 453.3455810546875Q240.67755126953125 453.3455810546875 234.8380126953125 450.852294921875Q228.99847412109375 448.3590087890625 224.6024169921875 443.96295166015625Q220.20635986328125 439.56689453125 217.71307373046875 433.72735595703125Q215.21978759765625 427.8878173828125 215.21978759765625 421.26092529296875Q215.21978759765625 414.634033203125 217.71307373046875 408.79449462890625Q220.20635986328125 402.9549560546875 224.6024169921875 398.55889892578125Q228.99847412109375 394.162841796875 234.8380126953125 391.6695556640625Q240.67755126953125 389.17626953125 247.304443359375 389.17626953125Q253.93133544921875 389.17626953125 259.7708740234375 391.6695556640625Q265.61041259765625 394.162841796875 270.0064697265625 398.55889892578125Q274.40252685546875 402.9549560546875 276.89581298828125 408.79449462890625Q279.38909912109375 414.634033203125 279.38909912109375 421.26092529296875Z" fill="#ffffff" />
<path d="M91.5877685546875 127.7880859375V36.1484375H1228.2723388671875V127.7880859375Z" fill="#d22f27" />
<path d="M73 37Q73 18 92 18H1228Q1247 18 1247 37V733Q1247 752 1228 752H92Q73 752 73 733ZM110 715H1210V55H110Z" fill="#000000" />
</g></svg>