<svg xmlns="http://www.w3.org/2000/svg" viewBox="0 0 2048 2048">
<g transform="matrix(1 0 0 -1 0 2048)">
<path d="M91.5877685546875 733.1798706054688V36.51513671875H1228.2723388671875V733.1798706054688Z" fill="#d22f27" />
<path d="M91.5877685546875 495.00164794921875V274.94873046875H1228.2723388671875V495.00164794921875Z" fill="#ffffff" />
<path d="M91.5877685546875 733.1392211914062V494.77978515625H1228.2723388671875V733.1392211914062Z" fill="#5c9e31" />
<path d="M477 385 92 733V37Z" fill="#1e50a0" />
<path d="M752 413Q752 431 733 431Q715 431 715 413V339Q715 321 733 321Q752 321 752 339Z" fill="#6a462f" />
<path d="M697 458Q685 458 677 450Q669 442 669 431Q669 419 677 411Q685 403 697 403H770Q781 403 789 411Q798 419 798 431Q798 442 789 450Q781 458 770 458Z" fill="#5c9e31" />
<path d="M73 37Q73 18 92 18H1228Q1247 18 1247 37V733Q1247 752 1228 752H92Q73 752 73 733ZM110 715H1210V55H110Z" fill="#000000" />
</g></svg>