<svg xmlns="http://www.w3.org/2000/svg" viewBox="0 0 2048 2048">
<g transform="matrix(1 0 0 -1 0 2048)">
<path d="M91.5877685546875 733.1798706054688V36.51513671875H1228.2723388671875V733.1798706054688Z" fill="#ffffff" />
<path d="M91.5877685546875 732.7880859375V641.1484375H1228.2723388671875V732.7880859375Z" fill="#d22f27" />
<path d="M91.5877685546875 568.6505126953125V495.3173828125H1228.2723388671875V568.6505126953125Z" fill="#d22f27" />
<path d="M91.5877685546875 421.6505126953125V348.3173828125H1228.2723388671875V421.6505126953125Z" fill="#d22f27" />
<path d="M91.5877685546875 274.6505126953125V201.3173828125H1228.2723388671875V274.6505126953125Z" fill="#d22f27" />
<path d="M91.5877685546875 127.7880859375V36.1484375H1228.2723388671875V127.7880859375Z" fill="#d22f27" />
<path d="M92.2127685546875 732.7897338867188V421.09716796875H403.8973388671875V732.7897338867188Z" fill="#1e50a0" />
<path d="M265 567 276 532 248 553 219 532 230 567 202 588H237L248 623L258 588H293Z" fill="#ffffff" />
<path d="M276 563 299 581Q306 587 301 594Q298 597 293 597H265L256 626Q254 635 245 632Q240 631 239 626L230 597H202Q193 597 193 588Q193 584 196 581L219 563L210 534Q208 526 216 523Q221 522 225 524L248 542L270 524Q278 519 283 526Q286 530 285 534ZM259 574Q254 570 256 564L259 556L253 561Q248 565 242 561L236 556L239 564Q241 570 236 574L229 579H237Q243 579 245 586L248 592L250 586Q252 579 258 579H266Z" fill="#ffffff" />
<path d="M73 37Q73 18 92 18H1228Q1247 18 1247 37V733Q1247 752 1228 752H92Q73 752 73 733ZM110 715H1210V55H110Z" fill="#000000" />
</g></svg>