<svg xmlns="http://www.w3.org/2000/svg" viewBox="0 0 2048 2048">
<g transform="matrix(1 0 0 -1 0 2048)">
<path d="M1019 -34Q1019 -34 1021.0 -14.0Q1023 6 1021.5 37.0Q1020 68 1010.5 103.5Q1001 139 979.5 170.0Q958 201 919.0 221.0Q880 241 819 241Q790 222 765.0 201.5Q740 181 715.5 167.0Q691 153 663 153H665Q623 153 583.5 171.5Q544 190 500 219Q445 219 410.0 200.5Q375 182 355.0 153.5Q335 125 326.5 92.5Q318 60 316.0 31.5Q314 3 315.5 -15.5Q317 -34 317 -34Z" fill="#9b9b9a" />
<path d="M746 -19 951 56 832 236 716 -32 671 51Z" fill="#d0cfce" />
<path d="M706 -14 734 31 794 191 656 141 509 191 572 31 605 -14Q609 -21 623.5 -24.5Q638 -28 655.5 -28.0Q673 -28 687.5 -24.5Q702 -21 706 -14Z" fill="#ffffff" />
<path d="M1205 -27V332Q1205 336 1201 336H921V-27Z" fill="#d0cfce" />
<path d="M1148 -73Q1148 -73 1148.0 -53.0Q1148 -33 1148.0 -1.5Q1148 30 1148.0 65.5Q1148 101 1148.0 132.5Q1148 164 1148.0 184.0Q1148 204 1148 204Q1148 233 1127.5 254.0Q1107 275 1077 275H880V-73Z" fill="#ffffff" />
<path d="M698 155Q698 155 700.5 138.0Q703 121 701.5 99.5Q700 78 690.0 61.0Q680 44 656 44Q632 44 622.0 61.0Q612 78 610.5 99.5Q609 121 611.5 138.0Q614 155 614 155Z" fill="#3f3f3f" />
<path d="M642 39 621 2 586 -34H655H725L690 2L669 39Q664 47 655.0 47.0Q646 47 642 39Z" fill="#3f3f3f" />
<path d="M593 -15 419 67 492 222 596 -15 640 45Z" fill="#d0cfce" />
<path d="M502 701Q502 701 495.0 686.5Q488 672 479.0 650.0Q470 628 462.0 603.5Q454 579 452 558L450 551Q415 597 407.5 634.0Q400 671 408.5 698.5Q417 726 432.5 744.5Q448 763 461.0 772.0Q474 781 474 781Q474 824 494.0 844.5Q514 865 543.5 870.5Q573 876 603.5 872.0Q634 868 656 863Q716 849 765.5 816.5Q815 784 848.5 745.0Q882 706 897.0 669.5Q912 633 903.5 609.5Q895 586 860 586Q835 586 806.0 596.5Q777 607 752.0 621.0Q727 635 711.0 645.5Q695 656 695 656Q693 631 678.5 624.0Q664 617 642.0 622.5Q620 628 595.5 640.5Q571 653 550.0 667.0Q529 681 515.5 691.0Q502 701 502 701Z" fill="#000000" />
<path d="M501 695Q554 661 597.5 639.5Q641 618 667.0 619.5Q693 621 695 656Q736 626 777.5 608.0Q819 590 860 586Q866 556 866 524Q866 453 838.0 394.0Q810 335 762.5 300.0Q715 265 658 265Q600 265 553.0 300.0Q506 335 478.0 394.0Q450 453 450 524Q450 573 463.5 617.0Q477 661 501 695Z" fill="#6a462f" />
<path d="M470 553Q471 572 453 573Q435 575 433 557Q432 541 432 524Q432 410 497 329Q563 246 658 246Q753 246 819 329Q884 410 884 524Q884 558 878 590Q874 608 856 604Q847 602 844 597Q840 592 842 583Q847 554 847 524Q847 423 791 352Q735 283 658 283Q581 283 525 352Q468 423 468 524Q468 539 470 553Z" fill="#000000" />
<path d="M768.0570068359375 549.4374389648438Q768.0570068359375 564.8302001953125 757.2820739746094 575.6051330566406Q746.5071411132812 586.3800659179688 731.1143798828125 586.3800659179688Q715.7216186523438 586.3800659179688 704.9466857910156 575.6051330566406Q694.1717529296875 564.8302001953125 694.1717529296875 549.4374389648438Q694.1717529296875 534.044677734375 704.9466857910156 523.2697448730469Q715.7216186523438 512.4948120117188 731.1143798828125 512.4948120117188Q746.5071411132812 512.4948120117188 757.2820739746094 523.2697448730469Q768.0570068359375 534.044677734375 768.0570068359375 549.4374389648438Z" fill="#000000" />
<path d="M621.0570068359375 549.4374389648438Q621.0570068359375 564.8302001953125 610.2820739746094 575.6051330566406Q599.5071411132812 586.3800659179688 584.1143798828125 586.3800659179688Q568.7216186523438 586.3800659179688 557.9466857910156 575.6051330566406Q547.1717529296875 564.8302001953125 547.1717529296875 549.4374389648438Q547.1717529296875 534.044677734375 557.9466857910156 523.2697448730469Q568.7216186523438 512.4948120117188 584.1143798828125 512.4948120117188Q599.5071411132812 512.4948120117188 610.2820739746094 523.2697448730469Q621.0570068359375 534.044677734375 621.0570068359375 549.4374389648438Z" fill="#000000" />
<path d="M657.0 366.0Q689.0 366.0 721.0 382.0Q727.0 385.0 729.5 392.5Q732.0 400.0 729.0 406.0Q725.0 413.0 718.0 415.5Q711.0 418.0 704.0 415.0Q657.0 391.0 611.0 415.0Q604.0 418.0 596.5 415.5Q589.0 413.0 586.0 406.0Q583.0 400.0 585.0 392.5Q587.0 385.0 594.0 382.0Q626.0 366.0 657.0 366.0Z" fill="#000000" />
<path d="M1148 -91Q1166 -91 1166 -73V230Q1166 249 1148 249H1115V269Q1115 287 1097 287H880Q862 287 862 269V-73Q862 -91 880 -91ZM1130 -54H899V251H1079V230Q1079 212 1097 212H1130Z" fill="#000000" />
<path d="M939 351Q921 351 921 333Q921 314 939 314H1192V-9Q1192 -27 1211 -27Q1229 -27 1229 -9V333Q1229 351 1211 351Z" fill="#000000" />
<path d="M1108 284Q1093 295 1082 280Q1071 266 1086 254L1137 216Q1152 205 1163 219Q1174 234 1159 245Z" fill="#000000" />
<path d="M934.6605224609375 173.9376220703125Q915.583984375 173.9376220703125 915.583984375 155.8651123046875Q915.583984375 136.78857421875 934.6605224609375 136.78857421875H1089.2808837890625Q1107.3533935546875 136.78857421875 1107.3533935546875 155.8651123046875Q1107.3533935546875 173.9376220703125 1089.2808837890625 173.9376220703125Z" fill="#000000" />
<path d="M934.6605224609375 98.9376220703125Q915.583984375 98.9376220703125 915.583984375 80.8651123046875Q915.583984375 61.78857421875 934.6605224609375 61.78857421875H1089.2808837890625Q1107.3533935546875 61.78857421875 1107.3533935546875 80.8651123046875Q1107.3533935546875 98.9376220703125 1089.2808837890625 98.9376220703125Z" fill="#000000" />
<path d="M934.6605224609375 32.9376220703125Q915.583984375 32.9376220703125 915.583984375 14.8651123046875Q915.583984375 -4.21142578125 934.6605224609375 -4.21142578125H1089.2808837890625Q1107.3533935546875 -4.21142578125 1107.3533935546875 14.8651123046875Q1107.3533935546875 32.9376220703125 1089.2808837890625 32.9376220703125Z" fill="#000000" />
<path d="M631 152Q635 170 617 173Q599 177 595 159Q589 129 592 98Q599 26 656 26Q713 26 719 98Q722 129 716 159Q714 168 709 171Q703 175 694 173Q676 170 680 152Q685 127 683 102Q679 63 656 63Q632 63 629 102Q626 127 631 152Z" fill="#000000" />
<path d="M826 8Q843 15 837 32Q830 49 813 42L708 2Q691 -4 697 -21Q704 -38 721 -32Z" fill="#000000" />
<path d="M508 673Q548 644 587 624Q633 601 662 602Q694 603 706 626Q794 568 860 568Q919 568 924 621Q928 662 893 716Q811 845 660 881Q588 898 540 888Q461 872 456 792Q423 770 403 732Q356 645 435 540Q441 533 447 532Q454 531 461 537Q466 541 468 547L469 553Q470 554 470 556Q475 602 508 673ZM513 715Q512 716 510 717Q494 725 486 709Q454 647 441 599Q407 663 435 715Q453 749 483 765Q493 771 493 781Q493 841 547 852Q587 861 651 845Q788 813 862 697Q891 652 888 624Q886 604 860 604Q798 604 705 671Q701 674 696 674Q687 675 682 671Q677 666 676 657Q675 639 661 638Q641 638 604 657Q558 680 513 715Z" fill="#000000" />
<path d="M290 -19Q292 -28 297 -32Q302 -36 311 -34Q329 -32 327 -13Q318 42 335 98Q367 201 486 204Q584 140 653 138Q654 138 654 138H655H657Q658 138 659 138Q729 140 830 207Q845 217 835 232Q825 248 809 237Q716 175 656 175Q595 175 502 237Q497 240 492 240Q341 240 300 108Q281 45 290 -19Z" fill="#000000" />
<path d="M655 34Q665 48 651 59Q644 65 638 64Q631 63 626 56L599 23L509 229Q501 246 484 239Q478 236 475 230L403 74Q395 58 411 50L585 -31Q589 -33 592 -33Q602 -36 610 -26ZM560 21 444 75 491 178Z" fill="#000000" />
<path d="M836 215Q844 231 827 239Q810 246 803 229L711 22L686 56Q675 70 660 60Q646 49 657 34L701 -26Q704 -30 708 -31Q725 -39 732 -22Z" fill="#000000" />
</g></svg>