<svg xmlns="http://www.w3.org/2000/svg" viewBox="0 0 2048 2048">
<g transform="matrix(1 0 0 -1 0 2048)">
<path d="M419 705 889 704Q907 708 905.5 718.5Q904 729 896.5 738.0Q889 747 889 747Q912 757 914.0 770.0Q916 783 908.5 795.5Q901 808 892.0 816.5Q883 825 883 825Q856 849 818.0 861.5Q780 874 738.0 876.5Q696 879 657 874Q609 869 564.5 856.5Q520 844 483.5 829.5Q447 815 424.0 803.0Q401 791 396 786Q385 776 391.5 765.0Q398 754 408.5 746.5Q419 739 419 739Q408 731 409.0 723.0Q410 715 414.5 710.0Q419 705 419 705Z" fill="#3f3f3f" />
<path d="M278.6812744140625 -40.58953857421875Q278.6812744140625 -40.58953857421875 277.0473327636719 -20.98223876953125Q275.41339111328125 -1.37493896484375 277.0473327636719 30.214599609375Q278.6812744140625 61.80413818359375 288.48492431640625 97.20620727539062Q298.28857421875 132.6082763671875 320.074462890625 163.65316772460938Q341.8603515625 194.69805908203125 379.98565673828125 214.85000610351562Q418.1109619140625 235.001953125 478.02215576171875 235.001953125Q525.9511108398438 203.41241455078125 568.9782409667969 183.26046752929688Q612.00537109375 163.1085205078125 657.7557373046875 163.1085205078125H655.5771484375Q701.3275146484375 163.1085205078125 744.3546447753906 183.26046752929688Q787.3817749023438 203.41241455078125 835.3107299804688 235.001953125Q895.221923828125 235.001953125 933.3472290039062 214.85000610351562Q971.4725341796875 194.69805908203125 993.2584228515625 163.65316772460938Q1015.0443115234375 132.6082763671875 1024.8479614257812 97.20620727539062Q1034.651611328125 61.80413818359375 1036.2855529785156 30.214599609375Q1037.9194946289062 -1.37493896484375 1036.2855529785156 -20.98223876953125Q1034.651611328125 -40.58953857421875 1034.651611328125 -40.58953857421875Z" fill="#ffffff" />
<path d="M821 237Q887 237 929.0 217.0Q971 197 995.0 165.5Q1019 134 1029.5 98.5Q1040 63 1042.0 31.5Q1044 0 1042.5 -20.0Q1041 -40 1041 -40Q1041 -40 1019.5 -40.0Q998 -40 928 -40Q923 -14 917.5 13.0Q912 40 897.0 65.0Q882 90 851.0 110.0Q820 130 765.5 142.5Q711 155 624 158Q669 164 700.0 174.0Q731 184 758.5 199.0Q786 214 821 237Z" fill="#d0cfce" />
<path d="M917 69Q917 69 913.5 80.0Q910 91 900.5 106.5Q891 122 872.5 136.0Q854 150 823 155L804 158Q803 146 797 136L804 125Q819 98 838.5 85.5Q858 73 876.0 70.0Q894 67 905.5 68.0Q917 69 917 69Z" fill="#ea5a47" />
<path d="M797 136Q803 146 804 158Q806 173 799 187L793 201V202Q767 186 742.0 174.5Q717 163 692 158L700 138Q715 109 748 108Q753 107 759 109Q767 110 774 114Q778 116 780 117Q791 124 797 136Z" fill="#ea5a47" />
<path d="M792 106 782 114 780 117Q778 116 774 114Q767 110 759 109V108L755 97Q748 69 753.5 48.5Q759 28 770.0 14.5Q781 1 790.5 -5.5Q800 -12 800 -12Q800 -12 806.0 -1.5Q812 9 816.0 26.0Q820 43 816.0 64.0Q812 85 792 106Z" fill="#ea5a47" />
<path d="M748 108Q715 109 700 138L692 158Q677 155 661 155H658Q617 155 578.0 173.5Q539 192 496 221Q496 221 498.5 203.0Q501 185 513.5 160.5Q526 136 552.5 115.5Q579 95 626.5 89.0Q674 83 748 102Z" fill="#ea5a47" />
<path d="M298 -49Q345 -84 403.0 -97.0Q461 -110 515.5 -101.0Q570 -92 605 -62Q624 -45 636 -27Q655 1 653.0 24.5Q651 48 635.0 63.5Q619 79 594.5 84.5Q570 90 544 82Q537 151 516.0 191.5Q495 232 468.5 253.0Q442 274 417.5 282.5Q393 291 380 294Q342 305 305.5 295.5Q269 286 242.0 260.0Q215 234 205 197Q191 149 203.0 92.0Q215 35 261 -15Q267 -22 275 -29Q286 -39 298 -49Z" fill="#f1b31c" />
<path d="M326.943603515625 194.74298095703125Q331.02587890625 209.5208740234375 323.58544921875 222.6409912109375Q316.14501953125 235.7611083984375 301.36712646484375 239.8433837890625Q286.5892333984375 243.9256591796875 273.4691162109375 236.4852294921875Q260.3489990234375 229.0447998046875 256.2667236328125 214.26690673828125Q252.3619384765625 200.13153076171875 259.713623046875 186.69015502929688Q267.0653076171875 173.248779296875 281.84320068359375 169.16650390625Q296.62109375 165.084228515625 309.8299560546875 172.84591674804688Q323.038818359375 180.60760498046875 326.943603515625 194.74298095703125Z" fill="#ea5a47" />
<path d="M432.943603515625 -17.25701904296875Q437.02587890625 -2.4791259765625 429.58544921875 10.6409912109375Q422.14501953125 23.7611083984375 407.36712646484375 27.8433837890625Q392.5892333984375 31.9256591796875 379.4691162109375 24.4852294921875Q366.3489990234375 17.0447998046875 362.2667236328125 2.26690673828125Q358.3619384765625 -11.86846923828125 365.713623046875 -25.309844970703125Q373.0653076171875 -38.751220703125 387.84320068359375 -42.83349609375Q402.62109375 -46.915771484375 415.8299560546875 -39.154083251953125Q429.038818359375 -31.39239501953125 432.943603515625 -17.25701904296875Z" fill="#61b2e4" />
<path d="M1105 235 1030 254 959 -20Q955 -36 963 -50Q971 -64 987 -68Q1002 -72 1016.0 -63.5Q1030 -55 1034 -40Z" fill="#3f3f3f" />
<path d="M1121 297 1103 302 1065 312 1046 317 1030 254 1105 235Z" fill="#9b9b9a" />
<path d="M1124 460Q1124 460 1109.0 453.5Q1094 447 1076.5 432.0Q1059 417 1051.0 391.5Q1043 366 1056 328L1065 312L1103 302L1116 313Q1146 338 1151.5 364.0Q1157 390 1150.0 412.0Q1143 434 1133.5 447.0Q1124 460 1124 460Z" fill="#a57939" />
<path d="M336.17852783203125 69.6556396484375Q340.2650146484375 84.437744140625 332.8245849609375 97.563720703125Q325.3841552734375 110.689697265625 310.60205078125 114.77618408203125Q295.8199462890625 118.8626708984375 282.6939697265625 111.4222412109375Q269.5679931640625 103.9818115234375 265.48150634765625 89.19970703125Q261.57269287109375 75.060302734375 268.9242858886719 61.61297607421875Q276.27587890625 48.1656494140625 291.0579833984375 44.07916259765625Q305.840087890625 39.99267578125 319.0549011230469 47.75445556640625Q332.26971435546875 55.5162353515625 336.17852783203125 69.6556396484375Z" fill="#fcea2b" />
<path d="M538 666Q538 666 529.5 648.5Q521 631 508.0 607.0Q495 583 480.0 563.0Q465 543 452 538Q429 558 425.5 586.5Q422 615 428.5 642.0Q435 669 443.5 686.5Q452 704 452 704H874Q893 684 897.5 655.5Q902 627 897.5 600.0Q893 573 884.0 555.5Q875 538 867 538Q854 536 845.5 549.5Q837 563 832.0 581.5Q827 600 825.0 614.5Q823 629 823 629Q821 600 809.5 592.0Q798 584 782.5 589.5Q767 595 752.0 606.5Q737 618 727.0 628.0Q717 638 717 638Q722 619 713.5 614.5Q705 610 690.5 614.5Q676 619 660.5 627.0Q645 635 634.0 642.0Q623 649 623 649Q631 632 624.5 629.0Q618 626 604.5 631.0Q591 636 575.5 644.5Q560 653 549.0 659.5Q538 666 538 666Z" fill="#6a462f" />
<path d="M823 629Q823 629 825.0 615.0Q827 601 832.0 582.0Q837 563 845.5 549.5Q854 536 867 538Q867 533 867.0 528.0Q867 523 867 517Q867 446 839.0 387.0Q811 328 764.0 293.0Q717 258 659 258Q602 258 555.0 293.0Q508 328 480.0 387.0Q452 446 452 517Q452 523 452.0 528.0Q452 533 452 538Q465 543 480.0 563.5Q495 584 508.5 607.5Q522 631 530.0 648.5Q538 666 538 666Q538 666 549.0 659.5Q560 653 575.5 644.5Q591 636 604.5 631.0Q618 626 624.5 629.0Q631 632 623 649Q623 649 634.0 642.0Q645 635 660.5 627.0Q676 619 690.5 614.5Q705 610 713.5 614.5Q722 619 717 638Q717 638 727.0 628.0Q737 618 752.0 606.5Q767 595 782.5 589.5Q798 584 809.5 592.0Q821 600 823 629Z" fill="#c19a65" />
<path d="M769.6845703125 550.6748657226562Q769.6845703125 566.0086669921875 759.017578125 576.6756591796875Q748.3505859375 587.3426513671875 733.0167846679688 587.3426513671875Q717.6829833984375 587.3426513671875 707.0159912109375 576.6756591796875Q696.3489990234375 566.0086669921875 696.3489990234375 550.6748657226562Q696.3489990234375 536.0077514648438 707.0159912109375 525.0074157714844Q717.6829833984375 514.007080078125 733.0167846679688 514.007080078125Q748.3505859375 514.007080078125 759.017578125 525.0074157714844Q769.6845703125 536.0077514648438 769.6845703125 550.6748657226562Z" fill="#000000" />
<path d="M622.6845703125 550.6748657226562Q622.6845703125 566.0086669921875 612.017578125 576.6756591796875Q601.3505859375 587.3426513671875 586.0167846679688 587.3426513671875Q570.6829833984375 587.3426513671875 560.0159912109375 576.6756591796875Q549.3489990234375 566.0086669921875 549.3489990234375 550.6748657226562Q549.3489990234375 536.0077514648438 560.0159912109375 525.0074157714844Q570.6829833984375 514.007080078125 586.0167846679688 514.007080078125Q601.3505859375 514.007080078125 612.017578125 525.0074157714844Q622.6845703125 536.0077514648438 622.6845703125 550.6748657226562Z" fill="#000000" />
<path d="M659.0 368.0Q691.0 368.0 723.0 384.0Q729.0 387.0 731.5 394.5Q734.0 402.0 731.0 408.0Q727.0 415.0 720.0 417.5Q713.0 420.0 706.0 417.0Q659.0 393.0 613.0 417.0Q606.0 420.0 598.5 417.5Q591.0 415.0 588.0 408.0Q585.0 402.0 587.0 394.5Q589.0 387.0 596.0 384.0Q628.0 368.0 659.0 368.0Z" fill="#000000" />
<path d="M659 248Q722 248 773.5 285.5Q825 323 855.5 386.0Q886 449 886 526Q886 533 885 538L849 537Q849 532 849 526Q849 459 823.5 404.5Q798 350 755.0 317.5Q712 285 659 285Q607 285 564.0 317.5Q521 350 495.5 404.5Q470 459 470 526Q470 531 470 537L433 538Q433 532 433 526Q433 449 463.5 386.0Q494 323 545.5 285.5Q597 248 659 248Z" fill="#000000" />
<path d="M889 686Q891 686 893 686Q908 690 914.5 697.5Q921 705 922 710Q925 718 922.5 726.5Q920 735 916 742Q924 749 928.0 757.0Q932 765 932 771Q934 788 926.0 802.5Q918 817 908.0 826.5Q898 836 895 838Q868 863 834.5 875.5Q801 888 766.5 892.0Q732 896 702.5 895.5Q673 895 655 893Q607 887 561.5 874.5Q516 862 478.5 847.0Q441 832 415.5 819.0Q390 806 383 799Q370 787 372 770Q373 759 379.5 750.0Q386 741 393 735Q391 729 391 723Q391 710 398.0 701.0Q405 692 407 691Q412 687 419 687L889 686Q889 686 889.0 686.0Q889 686 889 686ZM428 723Q429 724 430 725Q438 730 437 740Q436 750 428 755Q412 764 409 773Q413 776 435.0 787.5Q457 799 491.5 813.0Q526 827 569.0 839.0Q612 851 659 856Q727 864 783.0 852.0Q839 840 872 810Q880 804 888.5 793.0Q897 782 896 776Q895 772 890.0 768.5Q885 765 882 764Q873 760 871 751Q869 741 876 734Q882 729 885 722Z" fill="#000000" />
<path d="M657 856Q664 856 669.5 861.5Q675 867 675 874V931Q675 939 669.5 944.0Q664 949 657 949Q649 949 643.5 944.0Q638 939 638 931V874Q638 867 643.5 861.5Q649 856 657 856Z" fill="#000000" />
<path d="M865 519Q867 519 869 519Q889 520 903 553Q912 573 916.5 602.5Q921 632 915.0 662.5Q909 693 888 717Q882 722 874 722H452Q441 722 436 713Q435 711 425.5 691.0Q416 671 409.5 641.0Q403 611 408.0 579.5Q413 548 440 524Q448 516 458 520Q475 527 491.5 548.0Q508 569 522.5 594.5Q537 620 546 640Q581 618 599.0 613.0Q617 608 625.0 610.5Q633 613 637 616Q638 616 639 617Q662 604 686.0 597.0Q710 590 724 600Q726 601 727 603Q744 588 766.5 576.5Q789 565 809 572Q812 573 815 574Q820 560 826.5 547.0Q833 534 842 527Q852 519 865 519ZM865 556Q866 556 867 556Q867 556 865 556Q865 556 865 556ZM823 648Q823 648 823.0 648.0Q823 648 823 648Q806 647 805 631Q804 617 801.5 612.0Q799 607 797 606Q790 604 769.5 617.5Q749 631 730 651Q720 661 708 654Q695 647 699 634Q699 633 700 631Q690 633 670.5 642.5Q651 652 633 664Q621 672 611 663Q605 658 605 650Q580 661 548 682Q541 686 533 684Q525 682 522 674Q507 641 488.0 608.5Q469 576 455 562Q441 581 442.0 605.5Q443 630 450.0 652.0Q457 674 463 686H866Q878 669 880.0 650.0Q882 631 881 618Q879 595 873.5 579.0Q868 563 864 557Q857 563 850.5 585.0Q844 607 841 631Q840 648 823 648Z" fill="#000000" />
<path d="M766 130Q750 122 758 105Q766 89 782 97Q787 100 791 102Q805 112 813 127Q821 141 822 156Q824 176 815 195L810 208Q804 225 786 219Q769 212 776 195L782 181Q782 180 782 179Q787 170 786 160Q786 159 786 159Q785 152 781 144Q777 137 770 132Q769 131 766 130Z" fill="#000000" />
<path d="M783 97Q799 106 790 122Q782 138 766 130Q761 128 756 127Q755 127 755 127Q752 126 750 126Q749 126 748 126Q727 127 717 146L708 165Q701 182 684 175Q667 167 675 151L684 131Q684 130 684 130Q704 91 747 90Q754 89 762 91Q773 92 783 97Z" fill="#000000" />
<path d="M924 176Q939 166 949 182Q959 197 944 207Q896 239 823 239Q818 239 813 236Q796 225 784 217Q729 184 688 176Q675 174 660 173H658Q602 174 522 226Q506 236 496 220Q491 212 493 206Q494 200 502 195Q591 137 658 137H661Q679 137 695 140Q742 149 803 186Q814 193 829 202Q886 201 924 176Z" fill="#000000" />
<path d="M793 129Q779 140 768 126Q767 125 767 125Q765 125 764 126Q746 131 741 114L737 101Q722 47 755 4Q772 -17 791 -28Q806 -36 815 -23Q828 -4 834 23Q845 77 806 119Q805 120 804 121ZM774 97 780 93Q814 55 794 14Q759 42 773 92Z" fill="#000000" />
<path d="M553 140Q539 152 527 139Q514 125 528 113Q541 101 557 92Q574 82 595 77Q601 75 608 74Q669 62 752 84Q770 89 765 106Q761 124 743 119Q667 100 615 110Q609 111 604 112Q588 117 574 124Q562 131 553 140Z" fill="#000000" />
<path d="M786 151Q773 143 781 128V127Q781 127 781 126L788 116Q836 33 921 51Q938 54 935 71Q922 157 826 173Q826 173 826 173L807 176Q789 178 786 160Q785 155 786 151ZM818 137H821Q878 127 894 84Q849 84 819 134Z" fill="#000000" />
<path d="M470 -123Q513 -123 551.0 -111.0Q589 -99 617 -76Q638 -57 651 -37Q691 21 656 67Q641 88 614.5 98.0Q588 108 560 104Q550 167 528.5 206.0Q507 245 480.5 266.5Q454 288 429.5 297.0Q405 306 390 310L385 312Q320 330 262 297Q204 265 187 202Q171 143 186.5 82.0Q202 21 247 -27Q254 -35 262 -42Q274 -53 287 -63Q326 -93 374.5 -108.0Q423 -123 470 -123ZM309 -34Q297 -26 287 -16Q281 -10 274 -2Q236 39 222.0 90.5Q208 142 222 192Q236 240 280 265Q325 291 375 277L381 275Q395 271 417.0 262.5Q439 254 461.5 234.0Q484 214 501.5 177.5Q519 141 526 80Q527 72 534 67Q541 62 549 65Q572 72 594.0 66.5Q616 61 627 46Q646 20 621 -17Q610 -32 593 -48Q560 -76 509.5 -83.5Q459 -91 405.0 -78.5Q351 -66 309 -34Z" fill="#000000" />
<path d="M1049 303Q1057 287 1074 295Q1090 304 1081 320L1073 336Q1055 386 1089 419Q1103 431 1118 438Q1127 425 1133 407Q1145 361 1104 327L1091 316Q1077 305 1088 290Q1100 276 1114 288L1127 298Q1128 298 1128 299Q1187 349 1168 417Q1159 449 1138 473Q1130 481 1119 478Q1088 469 1064 445Q1012 396 1039 322Q1039 321 1040 319Z" fill="#000000" />
<path d="M1123 230Q1127 248 1110 253Q1092 257 1087 239L1016 -35Q1011 -55 991 -50Q983 -48 979 -40Q974 -33 977 -25L1048 250Q1052 267 1034 272Q1017 277 1012 259L941 -16Q935 -39 947 -59Q959 -79 982 -85Q1038 -100 1052 -44Z" fill="#000000" />
<path d="M1123 230 1139 292Q1143 310 1126 315L1107 320L1069 329L1050 334Q1033 339 1028 321L1012 259Q1007 241 1025 236L1100 217Q1109 215 1115 218Q1120 221 1123 230ZM1092 257 1052 267 1059 294H1060L1098 284H1099Z" fill="#000000" />
</g></svg>