<svg xmlns="http://www.w3.org/2000/svg" viewBox="0 0 2048 2048">
<g transform="matrix(1 0 0 -1 0 2048)">
<path d="M91.5877685546875 733.1798706054688V36.51513671875H1228.2723388671875V733.1798706054688Z" fill="#1e50a0" />
<path d="M91.5877685546875 733.1798706054688V36.51513671875H1228.2723388671875V733.1798706054688Z" fill="#ffffff" />
<path d="M91.5877685546875 275.13922119140625V36.77978515625H1228.2723388671875V275.13922119140625Z" fill="#61b2e4" />
<path d="M91.5877685546875 733.1392211914062V494.77978515625H1228.2723388671875V733.1392211914062Z" fill="#61b2e4" />
<path d="M660 424 637 458 638 416 601 430 625 397 587 385 625 373 601 340 638 354 637 312 660 346 683 312 682 354 719 340 695 373 733 385 695 397 719 430 682 416 683 458Z" fill="#f1b31c" />
<path d="M660 440 645 463Q642 468 637 468Q628 467 628 458L629 430L604 439Q599 441 595 438Q588 432 593 425L610 402L584 394Q579 392 578 388Q575 379 584 376L610 368L593 345Q590 341 592 336Q595 328 604 331L629 340L628 312Q628 307 632 304Q636 301 639 302Q643 303 645 307L660 330L675 307Q678 302 683 303Q687 303 690 305Q692 307 692 312L691 340L716 331Q721 329 725 332Q732 338 727 345L710 368L736 376Q741 378 742 382Q745 391 736 394L710 402L727 425Q730 429 728 434Q725 442 716 439L691 430L692 458Q692 463 688 466Q684 469 681 468Q677 467 675 463ZM668 419 673 426 672 416Q672 412 675 409Q677 407 681 407Q683 407 685 408L694 411L687 402Q682 395 689 390Q691 389 692 388L702 385L692 382Q683 379 686 370Q687 369 687 368L694 359L685 362Q676 366 673 357Q672 355 672 354L673 344L668 351Q665 355 662 356Q659 357 655 354Q653 353 652 351L647 344L648 354Q648 358 645 361Q643 363 639 363Q637 363 635 362L626 359L633 368Q638 375 631 380Q629 381 628 382L618 385L628 388Q637 391 634 400Q633 401 633 402L626 411L635 408Q644 404 647 413Q648 415 648 416L647 426L652 419Q655 415 658 414Q661 413 665 416Q667 417 668 419Z" fill="#f1b31c" />
<path d="M73 37Q73 18 92 18H1228Q1247 18 1247 37V733Q1247 752 1228 752H92Q73 752 73 733ZM110 715H1210V55H110Z" fill="#000000" />
</g></svg>