<svg xmlns="http://www.w3.org/2000/svg" viewBox="0 0 2048 2048">
<g transform="matrix(1 0 0 -1 0 2048)">
<path d="M984 547Q1031 442 1056.0 367.0Q1081 292 1090.0 241.5Q1099 191 1097.5 161.0Q1096 131 1089.5 116.0Q1083 101 1078 96Q1062 80 1039 81Q1012 82 988 95Q981 98 978 105Q978 106 977.5 106.0Q977 106 977 107Q935 175 836 177Q789 145 747.5 127.0Q706 109 661 108Q661 108 660 108H658Q657 108 657 108Q613 109 571.5 127.0Q530 145 482 177Q380 175 339 102Q338 101 337 100Q337 99 336 99Q334 96 331 95Q330 94 331 95Q306 82 279 81Q256 80 240 96Q222 113 220.0 148.5Q218 184 226.5 229.5Q235 275 250.0 324.0Q265 373 282.0 418.0Q299 463 313.0 497.0Q327 531 335 547V548Q335 549 336 550Q337 552 339 553Q340 555 342 556Q343 556 345 557Q347 558 349 558Q351 558 352 559Q353 558 354 558Q357 558 359 557Q360 556 361 556Q365 554 367 549Q368 548 369 547Q375 531 388.5 504.5Q402 478 420.0 451.0Q438 424 458.0 404.0Q478 384 498 381Q499 381 499.0 381.0Q499 381 499 381Q501 380 502 380Q504 379 506 378Q507 377 508 376Q510 374 511 373Q511 372 511.0 372.0Q511 372 511 372Q538 324 577.0 297.5Q616 271 660 270Q713 269 759.5 305.5Q806 342 833 406Q834 407 834 408Q836 411 840 413Q840 414 842 415Q925 456 949 545Q949 545 949.5 545.0Q950 545 950 545Q950 547 952 549Q953 552 956 554Q957 555 959 556Q959 556 959.0 556.0Q959 556 960 556Q961 557 962 557Q964 558 966 558Q969 558 972 557Q972 557 972.5 557.0Q973 557 973 557Q976 555 979 553Q980 552 981 551Q982 549 983 548Q983 548 983.5 547.5Q984 547 984 547Z" fill="#ffffff" />
<path d="M938 -73Q949 -73 954 -63Q959 -53 953 -44Q913 12 883.5 34.5Q854 57 824.5 59.5Q795 62 756 56Q708 48 659 47Q613 48 568 56Q529 61 499.0 59.5Q469 58 439.0 35.0Q409 12 369 -44Q362 -53 367 -63Q373 -73 384 -73Z" fill="#ffffff" />
<path d="M663 233Q712 235 755.0 258.0Q798 281 826 322Q896 417 897 535Q897 608 883 680Q881 689 874 693Q866 697 858 694Q768 654 670.0 654.0Q572 654 482 693Q475 697 468 694Q460 691 457 684Q434 616 434 545Q433 481 449.5 425.0Q466 369 497.0 326.5Q528 284 569.5 259.0Q611 234 659 233Q662 233 663 233Z" fill="#debb90" />
<path d="M992 149Q1017 119 1028.5 84.5Q1040 50 1042.5 18.5Q1045 -13 1043.0 -34.0Q1041 -55 1041 -57Q1039 -73 1023 -73H938Q949 -73 954 -63Q959 -53 953 -44Q913 12 883.5 34.5Q854 57 824.5 59.5Q795 62 756 56Q708 48 659 47Q613 48 568 56Q529 61 499.0 59.5Q469 58 439.0 35.0Q409 12 369 -44Q362 -53 367 -63Q373 -73 384 -73H296Q280 -73 278 -57Q278 -55 276.0 -34.0Q274 -13 276.5 18.5Q279 50 290.5 84.5Q302 119 327 149Q383 214 488 214Q493 214 498 211Q544 180 582.0 162.5Q620 145 659 145Q699 145 737.0 162.5Q775 180 821 211Q825 214 831 214Q936 214 992 149Z" fill="#debb90" />
<path d="M975 764Q975 763 980.5 742.5Q986 722 991.5 688.0Q997 654 996.0 612.5Q995 571 982.5 528.5Q970 486 940.5 447.5Q911 409 858 382Q858 382 858.0 382.0Q858 382 857 382Q855 381 852 381Q851 380 851 380Q851 380 850.5 380.0Q850 380 850 380Q849 380 847 381Q845 381 844 382Q843 382 843.0 382.0Q843 382 843 382Q839 384 835 388Q834 389 834 390Q834 389 833 391Q831 398 833 405Q833 405 833.0 405.5Q833 406 833 406Q859 468 860 536Q860 536 860.0 536.0Q860 536 860 536Q860 594 851 651Q762 617 667.5 617.0Q573 617 484 652Q471 599 471 544Q468 453 511 372Q512 371 512 370Q513 368 513 366Q513 363 514 360Q513 360 513.0 359.5Q513 359 513 359Q512 356 510 353Q510 352 509 351Q507 349 505 348Q505 348 505.0 347.5Q505 347 504 347Q504 347 503 346Q501 346 501 346Q498 345 495 345Q495 345 495.0 345.0Q495 345 495 345Q494 345 492 345Q493 345 491 345Q491 345 490 346Q460 351 434.0 376.5Q408 402 387.5 433.5Q367 465 353.5 492.5Q340 520 336 530Q305 562 307 605Q310 637 329 661Q312 674 302.0 693.0Q292 712 287.5 728.0Q283 744 283 747Q281 757 288 764Q295 770 304 769Q338 763 370.5 775.0Q403 787 426 813Q519 912 621 907Q666 905 702.0 886.5Q738 868 764.0 846.0Q790 824 803 810Q839 832 882 829Q912 827 937.0 809.5Q962 792 975 764Z" fill="#fcea2b" />
<path d="M897 534Q897 534 897 535Q897 536 897 537Q896 609 883 680Q881 689 876 693Q871 696 862 695Q859 694 857 693Q669 609 481 693Q465 701 457 684Q457 683 456 683Q434 615 434 544Q431 419 496 328Q562 235 659 233Q757 231 826 322Q894 409 897 534ZM860 535Q858 422 797 344Q739 268 660 270Q581 271 525 350Q468 430 471 544Q471 599 485 652Q668 578 851 651Q860 594 860 535Z" fill="#000000" />
<path d="M842 415Q825 406 834 390Q842 374 858 382Q992 451 997 616Q999 696 975 763Q974 764 974 765Q947 825 882 829Q839 831 803 810Q761 859 699 887Q556 952 427 814Q426 814 426 813Q377 757 304 769Q286 772 283 753Q282 750 283 747Q294 683 328 661Q320 650 314 637Q291 581 336 530Q407 359 492 345Q502 343 507 347Q512 351 514 360Q516 378 498 381Q432 392 369 547Q367 550 365 553Q333 587 348 622Q356 642 371 653Q376 658 377 664Q380 682 362 686Q337 690 324 730Q400 728 454 789Q565 908 684 854Q746 826 785 774Q785 774 785 774Q790 767 797 766Q803 765 810 771Q841 795 879 793Q922 790 940 750Q962 690 960 617Q956 474 842 415Z" fill="#000000" />
<path d="M770.0570068359375 499.43743896484375Q770.0570068359375 514.8302001953125 759.2820739746094 525.6051330566406Q748.5071411132812 536.3800659179688 733.1143798828125 536.3800659179688Q717.7216186523438 536.3800659179688 706.9466857910156 525.6051330566406Q696.1717529296875 514.8302001953125 696.1717529296875 499.43743896484375Q696.1717529296875 484.044677734375 706.9466857910156 473.2697448730469Q717.7216186523438 462.49481201171875 733.1143798828125 462.49481201171875Q748.5071411132812 462.49481201171875 759.2820739746094 473.2697448730469Q770.0570068359375 484.044677734375 770.0570068359375 499.43743896484375Z" fill="#000000" />
<path d="M623.0570068359375 499.43743896484375Q623.0570068359375 514.8302001953125 612.2820739746094 525.6051330566406Q601.5071411132812 536.3800659179688 586.1143798828125 536.3800659179688Q570.7216186523438 536.3800659179688 559.9466857910156 525.6051330566406Q549.1717529296875 514.8302001953125 549.1717529296875 499.43743896484375Q549.1717529296875 484.044677734375 559.9466857910156 473.2697448730469Q570.7216186523438 462.49481201171875 586.1143798828125 462.49481201171875Q601.5071411132812 462.49481201171875 612.2820739746094 473.2697448730469Q623.0570068359375 484.044677734375 623.0570068359375 499.43743896484375Z" fill="#000000" />
<path d="M660 316Q693 316 723 332Q733 336 733 347Q734 357 725 363Q716 369 707 364Q660 339 613 364Q606 368 599.0 365.5Q592 363 589 356Q585 349 587.5 342.0Q590 335 597 332Q627 316 660 316Z" fill="#000000" />
<path d="M278 -57Q279 -66 284 -70Q289 -74 299 -72Q317 -70 314 -51Q305 7 323 65Q357 175 482 177Q584 110 656 108Q657 108 658 108H660Q661 108 662 108Q734 110 836 177Q962 175 996 65Q1014 7 1005 -51Q1002 -70 1020 -72Q1038 -75 1041 -57Q1051 10 1031 76Q988 214 831 214Q825 214 821 211Q722 145 659 145Q596 145 498 211Q493 214 488 214Q330 214 288 76Q267 10 278 -57Z" fill="#000000" />
<path d="M923 -65Q934 -80 949 -69Q964 -59 953 -44Q897 35 853 53Q822 66 756 56Q699 47 659 47Q622 47 568 56Q502 66 470 53Q425 35 369 -44Q358 -58 373 -69Q388 -80 399 -65Q448 5 484 19Q506 28 562 19Q620 11 659 11Q702 11 761 19Q817 28 839 19Q873 5 923 -65Z" fill="#000000" />
<path d="M460 759Q452 763 446 761Q440 759 436 751Q428 734 444 726Q502 699 586 685Q754 658 887 727Q903 735 895 751Q887 768 870 759Q748 696 592 721Q513 734 460 759Z" fill="#000000" />
<path d="M368 533Q376 549 359 557Q342 564 335 548Q289 446 255 340Q183 112 258 84Q267 81 273 84Q279 87 282 95Q288 112 271 119Q229 135 290 328Q323 433 368 533Z" fill="#000000" />
<path d="M984 547Q976 564 960 556Q943 549 950 532Q998 426 1030 322Q1089 134 1047 119Q1030 112 1036 95Q1043 78 1060 84Q1134 112 1065 333Q1032 439 984 547Z" fill="#000000" />
</g></svg>