<svg xmlns="http://www.w3.org/2000/svg" viewBox="0 0 2048 2048">
<g transform="matrix(1 0 0 -1 0 2048)">
<path d="M1008 -73V0Q1008 46 981.5 83.5Q955 121 913.0 143.0Q871 165 825 165Q660 27 495 165Q449 165 407.0 143.0Q365 121 338.5 83.5Q312 46 312 0V-73Z" fill="#92d3f5" />
<path d="M330 178Q331 176 327.0 194.0Q323 212 319.0 242.0Q315 272 315.0 307.5Q315 343 323.0 376.0Q331 409 352 433Q367 451 372 471Q392 526 387 581Q384 640 398 695Q410 739 443.5 773.0Q477 807 525.5 826.0Q574 845 631 845Q675 845 704.0 833.0Q733 821 747.5 809.0Q762 797 763 796Q768 790 776 790Q809 787 841.0 769.0Q873 751 893.0 722.5Q913 694 913 660Q916 605 920.5 574.0Q925 543 933.0 520.5Q941 498 955 468Q961 455 966.5 443.5Q972 432 977 420Q996 388 1000.5 349.0Q1005 310 1000.5 273.5Q996 237 987.0 211.5Q978 186 970 182Q957 170 943.5 159.5Q930 149 915 139Q879 164 838 167Q666 29 495 167Q470 165 444.5 155.0Q419 145 396 128Q380 139 362.5 151.5Q345 164 330 178Z" fill="#000000" />
<path d="M466 506Q469 513 489.5 527.0Q510 541 537.5 556.5Q565 572 589 585Q633 608 674.0 634.5Q715 661 754 691Q802 642 826.5 597.0Q851 552 851 488Q851 418 825.0 361.5Q799 305 755.5 271.5Q712 238 658 238Q604 238 560.5 271.5Q517 305 491.5 361.5Q466 418 466 488Z" fill="#6a462f" />
<path d="M329 181Q339 165 354 175Q370 185 360 200Q326 255 332 311Q336 345 366 412Q378 439 384 453Q400 496 398 563Q395 628 408 675Q427 743 492 785Q557 827 642 827Q732 827 774 778Q779 773 787 772Q837 767 872 730Q906 693 906 644Q906 643 906 642Q912 530 950 447Q962 419 969 402Q1014 298 946 205Q935 190 950 180Q965 169 975 183Q1057 294 1003 416Q995 434 983 462Q948 539 942 644Q942 707 899 755Q857 800 797 808Q744 864 642 864Q547 864 473 816Q395 766 373 685Q358 632 361 561Q363 502 350 467Q344 453 332 427Q301 355 296 315Q288 247 329 181Z" fill="#000000" />
<path d="M293 -53Q293 -71 312 -71Q330 -71 330 -53V2Q330 61 381 105Q429 146 489 149Q660 10 831 149Q891 146 939 105Q990 61 990 2V-53Q990 -71 1008 -71Q1027 -71 1027 -53V2Q1027 78 963 133Q902 185 825 185Q818 185 813 181Q660 53 507 181Q502 185 495 185Q418 185 357 133Q293 78 293 2Z" fill="#000000" />
<path d="M770 497Q770 512 759.0 523.0Q748 534 733 534Q718 534 707.5 523.0Q697 512 697 497Q697 482 707.5 471.0Q718 460 733 460Q748 460 759.0 471.0Q770 482 770 497Z" fill="#000000" />
<path d="M623 497Q623 512 612.5 523.0Q602 534 587 534Q572 534 561.0 523.0Q550 512 550 497Q550 482 561.0 471.0Q572 460 587 460Q602 460 612.5 471.0Q623 482 623 497Z" fill="#000000" />
<path d="M440 479Q440 363 504 284Q568 203 660 203Q752 203 816 284Q880 363 880 479Q880 596 765 711Q752 724 739 711Q705 678 576 604Q440 527 440 497ZM477 479V497Q477 505 594 572Q707 637 751 673Q843 575 843 479Q843 376 788 307Q735 240 660 240Q585 240 532 307Q477 376 477 479Z" fill="#000000" />
<path d="M614 363Q598 371 589 355Q581 339 597 330Q660 297 724 330Q740 339 732 355Q723 371 707 363Q660 338 614 363Z" fill="#000000" />
</g></svg>