<svg xmlns="http://www.w3.org/2000/svg" viewBox="0 0 2048 2048">
<g transform="matrix(1 0 0 -1 0 2048)">
<path d="M660 776Q645 809 610.5 820.5Q576 832 545 816Q513 799 501.0 765.5Q489 732 504 699Q506 696 507.5 692.0Q509 688 512 686L660 495L809 686Q810 688 812.0 691.0Q814 694 816 699Q831 732 819.0 765.5Q807 799 776 816Q744 832 709.5 820.5Q675 809 660 776Z" fill="#ea5a47" />
<path d="M776 519Q786 500 782.5 480.0Q779 460 772.0 446.0Q765 432 763 431Q754 416 752.5 391.0Q751 366 752.5 346.0Q754 326 754 326Q755 303 763.5 286.5Q772 270 772 270L816 413Q852 388 892.5 382.5Q933 377 969.5 382.0Q1006 387 1029.0 394.5Q1052 402 1052 402L1106 268Q1116 277 1120.0 292.5Q1124 308 1125.5 323.5Q1127 339 1128 348Q1132 390 1125.0 418.0Q1118 446 1106.0 462.5Q1094 479 1084.0 486.0Q1074 493 1074 493Q1062 532 1036.0 548.5Q1010 565 976.0 567.0Q942 569 907.0 561.5Q872 554 842.0 543.5Q812 533 794.0 525.0Q776 517 776 519Z" fill="#a57939" />
<path d="M174 389Q171 355 182.0 326.5Q193 298 204.5 280.5Q216 263 216 262Q216 269 216.0 282.0Q216 295 216.0 306.0Q216 317 216 317Q223 324 229.0 341.0Q235 358 239.5 372.5Q244 387 244 387Q248 366 272.0 361.0Q296 356 329.0 360.5Q362 365 394.0 374.0Q426 383 447.5 390.5Q469 398 469 398Q470 381 480.0 360.5Q490 340 503.0 321.0Q516 302 525.5 289.5Q535 277 535 277Q549 291 555.0 309.5Q561 328 562.0 346.0Q563 364 563 374Q563 395 552.5 425.0Q542 455 521.5 483.5Q501 512 469.5 529.0Q438 546 396 541Q392 541 382.5 540.0Q373 539 369 541Q346 545 314.5 544.0Q283 543 252.5 529.5Q222 516 200.0 482.5Q178 449 174 389Z" fill="#a57939" />
<path d="M1106 268Q1106 268 1106.5 268.5Q1107 269 1107 270Q1102 217 1079.0 175.0Q1056 133 1021.0 108.5Q986 84 944 84Q899 84 862.5 112.5Q826 141 803.5 188.5Q781 236 779 294L816 413Q852 388 892.5 382.5Q933 377 969.5 382.0Q1006 387 1029.0 394.5Q1052 402 1052 402Z" fill="#a57939" />
<path d="M469 398Q470 382 479.0 362.5Q488 343 500.5 324.5Q513 306 523.0 293.0Q533 280 535 277Q532 224 510.0 180.0Q488 136 453.0 110.0Q418 84 376 84Q332 84 295.5 112.0Q259 140 237.5 187.0Q216 234 216 292Q216 304 218 319Q224 328 230.0 344.0Q236 360 240.0 373.5Q244 387 244 387Q248 366 272.0 361.0Q296 356 329.0 360.5Q362 365 394.0 374.0Q426 383 447.5 390.5Q469 398 469 398Z" fill="#6a462f" />
<path d="M1128 317H1091V301Q1091 217 1046 159Q1004 103 944 103Q885 103 842 159Q798 217 798 301V313H761V301Q761 205 813 137Q866 66 944 66Q1022 66 1076 137Q1128 205 1128 301Z" fill="#000000" />
<path d="M920 188Q908 202 894 190Q880 178 892 164Q905 148 924 148Q942 148 957 163Q970 176 957 189Q944 202 931 189Q927 185 924 185Q922 185 920 188Z" fill="#000000" />
<path d="M860 292Q847 305 834 292Q821 279 834 266Q844 256 858 251Q890 240 915 266Q928 279 915 292Q902 305 889 292Q880 282 870 286Q864 288 860 292Z" fill="#000000" />
<path d="M994 304Q981 317 968 304Q955 292 968 279Q1008 238 1049 279Q1062 292 1049 304Q1036 317 1023 304Q1008 290 994 304Z" fill="#000000" />
<path d="M757 519Q757 510 761 506Q768 489 761 467Q755 447 754 447Q749 445 747 440Q727 406 735 325Q737 289 756 260Q760 254 766 252Q784 247 789 264L826 385Q886 354 972 364Q1011 369 1042 378L1088 261Q1090 258 1092 255Q1104 242 1118 254Q1141 275 1145 338Q1146 344 1146 346Q1155 423 1121 473Q1106 495 1090 506Q1057 596 937 585Q875 579 784 541Q779 539 776 538Q772 537 767 535Q757 530 757 519ZM799 508Q884 543 940 548Q1035 557 1057 488Q1059 480 1066 477Q1078 471 1091 452Q1117 414 1109 350Q1109 347 1108 340Q1108 327 1106 316L1069 408Q1063 425 1046 419Q1013 406 968 400Q880 390 826 428Q819 433 812 432Q806 430 801 423Q799 421 798 418L772 331Q766 395 777 419Q787 430 796 456Q804 484 799 508ZM786 535Q792 531 793 524Q793 526 792 527Q789 532 786 535Z" fill="#000000" />
<path d="M660 809Q643 829 617 838Q575 852 536 832Q498 812 484 771Q469 730 488 691Q488 691 488 690Q488 690 489 688Q493 679 498 674L646 484Q647 482 649 481Q656 475 662 476Q669 477 674 484L823 674Q824 676 825 677Q825 678 826 679Q831 686 833 692Q850 731 836 771Q822 812 784 832Q745 852 703 838Q677 829 660 809ZM677 768Q689 794 716 803Q742 812 767 800Q828 768 799 706Q799 705 798 704Q798 703 796 700Q794 698 793 696L660 525L526 697Q525 698 524 699Q524 699 522 703Q521 705 521 706Q493 768 553 800Q578 812 604 803Q631 794 643 768Q647 760 653 757Q659 755 668 759Q674 762 677 768Z" fill="#000000" />
<path d="M554 308H517V292Q517 211 474 156Q433 103 376 103Q319 103 278 156Q235 212 235 292V304H198V292Q198 200 249 134Q301 66 376 66Q451 66 503 133Q554 199 554 292Z" fill="#000000" />
<path d="M384 188Q372 202 358 190Q351 184 351 177Q350 171 356 164Q370 148 389 148Q407 148 422 163Q435 176 422 189Q415 195 409 195Q402 195 396 189Q392 185 389 185Q387 185 384 188Z" fill="#000000" />
<path d="M426 292Q413 305 400 292Q387 279 400 266Q410 256 424 251Q456 240 481 266Q494 279 481 292Q468 305 455 292Q446 282 436 286Q430 288 426 292Z" fill="#000000" />
<path d="M286 304Q280 311 273 311Q267 311 260 304Q247 292 260 279Q301 238 341 279Q354 292 341 304Q328 317 315 304Q301 290 286 304Z" fill="#000000" />
<path d="M245 546Q164 507 156 390Q151 325 199 256Q202 244 216 244Q235 244 235 262V311Q243 324 252 349Q287 332 366 348Q411 358 455 373Q468 329 521 265Q522 264 522 264Q535 251 548 264Q581 297 581 374Q581 435 536 495Q479 570 395 559Q392 559 388 559Q375 558 374 558Q373 559 372 559Q299 572 245 546ZM192 387Q199 483 261 513Q304 534 365 523Q373 521 390 522Q395 523 396 523Q397 523 398 523Q462 531 507 472Q545 423 545 374Q545 331 534 308Q489 366 488 399Q487 408 482 412Q478 417 469 416Q466 416 463 415Q411 395 358 384Q267 365 262 391Q258 409 240 405Q229 402 226 392Q213 341 203 329Q202 329 201 328Q190 359 192 387Z" fill="#000000" />
</g></svg>