<svg xmlns="http://www.w3.org/2000/svg" viewBox="0 0 2048 2048">
<g transform="matrix(1 0 0 -1 0 2048)">
<path d="M91.5877685546875 733.1798706054688V36.51513671875H1228.2723388671875V733.1798706054688Z" fill="#d22f27" />
<path d="M824.5350341796875 384.8529052734375Q824.5350341796875 418.918212890625 811.7183837890625 448.9361572265625Q798.9017333984375 478.9541015625 776.303955078125 501.5518798828125Q753.7061767578125 524.149658203125 723.688232421875 536.96630859375Q693.6702880859375 549.782958984375 659.60498046875 549.782958984375Q625.5396728515625 549.782958984375 595.521728515625 536.96630859375Q565.5037841796875 524.149658203125 542.906005859375 501.5518798828125Q520.3082275390625 478.9541015625 507.4915771484375 448.9361572265625Q494.6749267578125 418.918212890625 494.6749267578125 384.8529052734375Q494.6749267578125 350.78759765625 507.4915771484375 320.7696533203125Q520.3082275390625 290.751708984375 542.906005859375 268.1539306640625Q565.5037841796875 245.55615234375 595.521728515625 232.739501953125Q625.5396728515625 219.9228515625 659.60498046875 219.9228515625Q693.6702880859375 219.9228515625 723.688232421875 232.739501953125Q753.7061767578125 245.55615234375 776.303955078125 268.1539306640625Q798.9017333984375 290.751708984375 811.7183837890625 320.7696533203125Q824.5350341796875 350.78759765625 824.5350341796875 384.8529052734375Z" fill="#ffffff" />
<path d="M697.3394775390625 298.43743896484375Q718.059326171875 298.4285888671875 736.6397094726562 307.7088623046875Q713.0518798828125 284.14117431640625 680.1830139160156 277.36767578125Q647.3141479492188 270.59417724609375 616.5968017578125 282.75341796875Q585.165283203125 295.62744140625 566.6007690429688 323.5Q548.0362548828125 351.37255859375 548.0505981445312 384.9530029296875Q548.06494140625 418.533447265625 566.6532592773438 446.39013671875Q585.2415771484375 474.246826171875 616.68408203125 487.093994140625Q647.4118041992188 499.22698974609375 680.2748718261719 492.4254150390625Q713.137939453125 485.62384033203125 736.7056274414062 462.0360107421875Q713.133056640625 474.19219970703125 686.338623046875 470.6312561035156Q659.544189453125 467.0703125 639.5311889648438 449.2169189453125Q619.5181884765625 431.363525390625 613.0767517089844 405.287841796875Q606.6353149414062 379.212158203125 616.6273193359375 354.201171875Q625.9048461914062 329.19049072265625 648.0470886230469 313.81976318359375Q670.1893310546875 298.44903564453125 697.3394775390625 298.43743896484375Z" fill="#d22f27" />
<path d="M697 308Q644 308 625 357Q606 407 646 443Q685 478 732 454Q741 450 745 458Q748 464 743 468Q687 526 613 495Q539 465 539 385Q539 305 613 275Q687 244 743 302Q746 305 746 308Q746 311 743 315Q738 319 733 316Q716 308 697 308ZM695 289Q660 275 620 292Q557 317 557 385Q557 453 620 478Q658 494 691 482Q661 480 633 456Q585 412 608 351Q631 291 695 289Z" fill="#d22f27" />
<path d="M703.539794921875 335.1407470703125 754.6822509765625 416.079833984375 669.7215576171875 382.136474609375 756.7623291015625 356.0196533203125 700.9074096679688 432.25030517578125Z" fill="#d22f27" />
<path d="M695 335Q695 330 699 328Q703 325 706 326Q709 327 712 330L727 355L754 347Q758 346 762 349Q769 354 764 361L746 385L763 411Q765 415 763 419Q760 428 751 424L725 414L708 437Q706 441 701 441Q692 441 692 432L693 401L666 391Q662 389 661 385Q658 376 667 373L694 365ZM719 377 712 379 711 389 719 392 724 385Z" fill="#d22f27" />
<path d="M73 37Q73 18 92 18H1228Q1247 18 1247 37V733Q1247 752 1228 752H92Q73 752 73 733ZM110 715H1210V55H110Z" fill="#000000" />
</g></svg>