<svg xmlns="http://www.w3.org/2000/svg" viewBox="0 0 2048 2048">
<g transform="matrix(1 0 0 -1 0 2048)">
<path d="M91.5877685546875 733.1798706054688V36.51513671875H1228.2723388671875V733.1798706054688Z" fill="#ffffff" />
<path d="M91.5877685546875 733.1392211914062V494.77978515625H1228.2723388671875V733.1392211914062Z" fill="#000000" />
<path d="M653 531 590 664 640 525 530 625 630 515 491 565 624 502 477 495 624 488 491 425 630 475 530 365 640 465 590 326 653 459 660 312 667 459 730 326 680 465 790 365 690 475 829 425 696 488 843 495 696 502 829 565 690 515 790 625 680 525 730 664 667 531 660 678Z" fill="#f1b31c" />
<path d="M550 517 476 513Q459 513 458 496Q457 478 476 477L550 473L483 441Q468 434 473 419Q480 401 497 408L567 433L517 378Q506 365 517 353Q529 339 543 352L598 402L573 332Q567 316 582 309Q590 305 596 307Q603 310 606 318L638 385L642 311Q642 294 659 293Q677 292 678 311L682 385L714 318Q721 303 736 308Q754 315 747 332L722 402L777 352Q790 341 802 352Q816 364 803 378L753 433L823 408Q839 402 846 417Q850 425 848 431Q845 438 837 441L770 473L844 477Q861 477 862 494Q863 512 844 513L770 517L837 549Q852 556 847 571Q840 589 823 582L753 557L803 612Q814 625 803 637Q797 644 791 644Q784 644 777 638L722 588L747 658Q753 674 738 681Q730 685 724 683Q717 680 714 672L682 605L678 679Q678 696 661 697Q643 698 642 679L638 605L606 672Q599 687 584 682Q575 679 572 673Q569 667 573 658L598 588L543 638Q530 649 518 638Q504 626 517 612L567 557L497 582Q481 588 474 573Q466 556 483 549ZM652 512Q655 512 659 514Q662 513 666 513Q669 510 673 509Q674 506 677 503Q677 500 679 496Q678 493 678 489Q675 486 674 482Q671 481 668 478Q665 478 661 476Q658 477 654 477Q651 480 647 481Q646 484 643 487Q643 490 641 494Q642 497 642 501Q645 504 646 508Q649 509 652 512Z" fill="#f1b31c" />
<path d="M91.5877685546875 495.00164794921875V274.94873046875H1228.2723388671875V495.00164794921875Z" fill="#1e50a0" />
<path d="M92 37V733L660 37Z" fill="#d22f27" />
<path d="M660 37 1228 733V37Z" fill="#d22f27" />
<path d="M73 37Q73 18 92 18H1228Q1247 18 1247 37V733Q1247 752 1228 752H92Q73 752 73 733ZM110 715H1210V55H110Z" fill="#000000" />
</g></svg>