<svg xmlns="http://www.w3.org/2000/svg" viewBox="0 0 2048 2048">
<g transform="matrix(1 0 0 -1 0 2048)">
<path d="M91.5877685546875 733.1798706054688V36.51513671875H1228.2723388671875V733.1798706054688Z" fill="#ffffff" />
<path d="M91.5877685546875 733.1392211914062V494.77978515625H1228.2723388671875V733.1392211914062Z" fill="#d22f27" />
<path d="M91.5877685546875 495.00164794921875V274.94873046875H1228.2723388671875V495.00164794921875Z" fill="#1e50a0" />
<path d="M623.4862670898438 312.02020263671875Q623.4862670898438 338.5216064453125 613.5154418945312 361.87432861328125Q603.5446166992188 385.22705078125 585.9644775390625 402.80718994140625Q568.3843383789062 420.3873291015625 545.0316162109375 430.358154296875Q521.6788940429688 440.3289794921875 495.177490234375 440.3289794921875Q468.67608642578125 440.3289794921875 445.3233642578125 430.358154296875Q421.97064208984375 420.3873291015625 404.3905029296875 402.80718994140625Q386.81036376953125 385.22705078125 376.83953857421875 361.87432861328125Q366.86871337890625 338.5216064453125 366.86871337890625 312.02020263671875Q366.86871337890625 285.518798828125 376.83953857421875 262.16607666015625Q386.81036376953125 238.8133544921875 404.3905029296875 221.23321533203125Q421.97064208984375 203.653076171875 445.3233642578125 193.6822509765625Q468.67608642578125 183.71142578125 495.177490234375 183.71142578125Q521.6788940429688 183.71142578125 545.0316162109375 193.6822509765625Q568.3843383789062 203.653076171875 585.9644775390625 221.23321533203125Q603.5446166992188 238.8133544921875 613.5154418945312 262.16607666015625Q623.4862670898438 285.518798828125 623.4862670898438 312.02020263671875Z" fill="#ffffff" />
<path d="M642 312Q642 372 599 415Q556 458 495 458Q434 458 391 415Q348 372 348 312Q348 251 391 208Q434 165 495 165Q556 165 599 208Q642 251 642 312ZM605 312Q605 266 573 234Q541 202 495 202Q449 202 417 234Q385 266 385 312Q385 357 417 389Q449 422 495 422Q541 422 573 389Q605 357 605 312Z" fill="#d22f27" />
<path d="M366.1883544921875 311.3211669921875V513.1002197265625H623.7928466796875V311.3211669921875Z" fill="#ffffff" />
<path d="M605 312H642V532H348V312H385V495H605Z" fill="#d22f27" />
<path d="M389 250Q377 236 391 224Q398 218 405 219Q411 219 417 226L637 483Q643 490 643 496Q642 503 635 509Q621 521 609 507Z" fill="#d22f27" />
<path d="M573 226Q579 219 585 219Q592 218 599 224Q613 236 601 250L381 507Q369 521 355 509Q341 497 353 483Z" fill="#d22f27" />
<path d="M513.3252563476562 439.5877685546875H476.65869140625V256.2723388671875H513.3252563476562Z" fill="#ffffff" />
<path d="M403.4122314453125 366.32525634765625V329.65869140625H586.7276611328125V366.32525634765625Z" fill="#ffffff" />
<path d="M491 641Q439 631 418 613Q387 586 405 543Q409 532 422 532H568Q581 532 585 543Q603 586 572 613Q551 631 499 641Q495 642 491 641ZM495 605Q535 596 548 585Q556 579 554 568H436Q435 579 442 585Q455 596 495 605Z" fill="#fcea2b" />
<path d="M513 659Q513 677 495 677Q477 677 477 659V623Q477 605 495 605Q513 605 513 623Z" fill="#fcea2b" />
<path d="M73 37Q73 18 92 18H1228Q1247 18 1247 37V733Q1247 752 1228 752H92Q73 752 73 733ZM110 715H1210V55H110Z" fill="#000000" />
</g></svg>