<svg xmlns="http://www.w3.org/2000/svg" viewBox="0 0 2048 2048">
<g transform="matrix(1 0 0 -1 0 2048)">
<path d="M1008 -73V1Q1008 47 981.5 84.0Q955 121 913.0 143.5Q871 166 825 166Q660 28 495 166Q449 166 407.0 143.5Q365 121 338.5 84.0Q312 47 312 1V-73Z" fill="#92d3f5" />
<path d="M457 477Q457 523 462.0 546.5Q467 570 472.0 578.5Q477 587 477 587Q532 596 571.5 616.0Q611 636 644.5 662.0Q678 688 715 715Q715 715 727.0 700.5Q739 686 758.5 663.0Q778 640 800.5 614.5Q823 589 843 569Q862 525 862 477Q862 394 834.0 337.0Q806 280 759.5 250.0Q713 220 659 220Q603 220 557.5 250.0Q512 280 484.5 337.0Q457 394 457 477Z" fill="#a57939" />
<path d="M856 518Q856 503 855.0 473.0Q854 443 852.0 410.5Q850 378 847.5 354.5Q845 331 843 331Q879 331 894.5 363.5Q910 396 913.0 450.5Q916 505 916 569Q916 617 901.5 663.0Q887 709 856.5 745.5Q826 782 777.0 804.0Q728 826 659 826Q591 826 542.0 804.0Q493 782 462.0 745.5Q431 709 417.0 663.0Q403 617 403 569Q403 505 406.0 450.5Q409 396 424.0 363.5Q439 331 476 331Q476 331 470.5 353.5Q465 376 459.0 409.5Q453 443 450.5 478.0Q448 513 452.5 539.5Q457 566 474 572Q490 578 518.0 591.5Q546 605 578.0 622.0Q610 639 639.5 656.5Q669 674 690.0 689.5Q711 705 715 716Q715 716 729.5 699.0Q744 682 765.0 655.5Q786 629 807.0 601.0Q828 573 842.5 550.0Q857 527 856 518Z" fill="#000000" />
<path d="M476 312Q495 312 495 330Q495 349 476 349Q442 349 430 405Q421 447 421 569Q421 669 476 733Q540 807 660 807Q779 807 843 733Q898 669 898 569Q898 349 843 349Q825 349 825 330Q825 312 843 312Q907 312 925 398Q935 443 935 569Q935 682 871 757Q796 844 660 844Q523 844 449 757Q385 682 385 569Q385 443 394 398Q412 312 476 312Z" fill="#000000" />
<path d="M293 -54Q293 -72 312 -72Q330 -72 330 -54V1Q330 60 381 104Q429 146 488 148Q660 9 831 148Q891 146 939 104Q990 60 990 1V-54Q990 -72 1008 -72Q1027 -72 1027 -54V1Q1027 77 963 132Q902 184 825 184Q818 184 813 180Q660 52 507 180Q502 184 495 184Q418 184 357 132Q293 77 293 1Z" fill="#000000" />
<path d="M439 477Q439 351 502 275Q564 202 659 202Q753 202 815 275Q880 352 880 477Q881 529 860 576Q859 580 856 582Q802 636 729 727Q718 741 704 730Q693 722 671 705Q562 620 474 606Q468 605 464 601Q439 577 439 477ZM476 477Q476 552 486 571Q582 589 694 676Q704 684 712 690Q777 610 828 559Q844 520 843 477Q843 365 787 299Q736 239 659 239Q581 239 530 299Q475 364 476 477Z" fill="#000000" />
<path d="M768 496Q766 517 752 532Q742 532 728.5 527.5Q715 523 704.5 514.5Q694 506 694 496Q694 481 705.0 470.0Q716 459 731 459Q746 459 757.0 470.0Q768 481 768 496Z" fill="#000000" />
<path d="M623 496Q623 511 603.5 521.5Q584 532 568 532Q552 518 550 496Q550 481 560.5 470.0Q571 459 587 459Q602 459 612.5 470.0Q623 481 623 496Z" fill="#000000" />
<path d="M699 341Q707 325 723 333Q740 341 731 357Q713 395 660 395Q607 395 589 357Q580 341 597 333Q613 325 621 341Q630 358 660 358Q690 358 699 341Z" fill="#000000" />
</g></svg>