<svg xmlns="http://www.w3.org/2000/svg" viewBox="0 0 2048 2048">
<g transform="matrix(1 0 0 -1 0 2048)">
<path d="M994 445Q1012 413 1016.5 373.5Q1021 334 1016.5 298.0Q1012 262 1003.5 236.5Q995 211 986 206Q978 198 969.0 177.0Q960 156 951.0 135.5Q942 115 932 109Q897 133 855 136Q783 110 722.5 107.0Q662 104 609.5 114.5Q557 125 512 136Q504 136 496 138Q451 148 415.0 175.5Q379 203 358.0 243.0Q337 283 335 330L332 411Q363 453 389 498Q409 551 403 607Q398 665 413 721Q425 765 459.0 799.0Q493 833 541.5 852.0Q590 871 647 871Q691 871 720.0 859.5Q749 848 764.0 836.0Q779 824 780 823Q785 817 792 816Q826 814 857.5 795.5Q889 777 909.5 748.5Q930 720 929 686Q932 631 937.0 600.0Q942 569 950.5 546.0Q959 523 972 493Q981 469 994 445ZM660 220Q704 222 737.0 243.0Q770 264 794.0 296.5Q818 329 834.0 365.0Q850 401 859.0 432.5Q868 464 872.0 484.0Q876 504 876 504Q876 504 874.5 522.0Q873 540 867.0 568.0Q861 596 848.5 626.0Q836 656 814.0 681.0Q792 706 759 718Q759 718 734.0 702.0Q709 686 671.0 661.5Q633 637 592.5 609.5Q552 582 519.5 558.0Q487 534 475 520Q475 520 475.0 498.5Q475 477 478.5 442.5Q482 408 492.0 370.0Q502 332 522.5 297.5Q543 263 576.5 241.5Q610 220 660 220Z" fill="#f1b31c" />
<path d="M449 511Q454 519 475.5 534.0Q497 549 525.0 566.5Q553 584 579 599Q671 649 752 714Q803 660 828.5 611.0Q854 562 854 492Q854 416 827.0 354.0Q800 292 754.5 256.0Q709 220 652 220Q595 220 549.0 256.0Q503 292 476.0 354.0Q449 416 449 492Z" fill="#fcea2b" />
<path d="M1009 -73V1Q1009 47 982.5 84.5Q956 122 913.5 144.0Q871 166 825 166Q660 28 495 166Q449 166 406.5 144.0Q364 122 337.5 84.5Q311 47 311 1V-73Z" fill="#92d3f5" />
<path d="M485 413 462 406 562 229H743L842 382L835 414L650 441Z" fill="#ffffff" />
<path d="M770.6845703125 516.6748657226562Q770.6845703125 532.0086669921875 760.017578125 542.6756591796875Q749.3505859375 553.3426513671875 734.0167846679688 553.3426513671875Q718.6829833984375 553.3426513671875 708.0159912109375 542.6756591796875Q697.3489990234375 532.0086669921875 697.3489990234375 516.6748657226562Q697.3489990234375 502.00775146484375 708.0159912109375 491.0074157714844Q718.6829833984375 480.007080078125 734.0167846679688 480.007080078125Q749.3505859375 480.007080078125 760.017578125 491.0074157714844Q770.6845703125 502.00775146484375 770.6845703125 516.6748657226562Z" fill="#000000" />
<path d="M623.6845703125 516.6748657226562Q623.6845703125 532.0086669921875 613.017578125 542.6756591796875Q602.3505859375 553.3426513671875 587.0167846679688 553.3426513671875Q571.6829833984375 553.3426513671875 561.0159912109375 542.6756591796875Q550.3489990234375 532.0086669921875 550.3489990234375 516.6748657226562Q550.3489990234375 502.00775146484375 561.0159912109375 491.0074157714844Q571.6829833984375 480.007080078125 587.0167846679688 480.007080078125Q602.3505859375 480.007080078125 613.017578125 491.0074157714844Q623.6845703125 502.00775146484375 623.6845703125 516.6748657226562Z" fill="#000000" />
<path d="M323 395Q320 387 323 381Q326 375 335 372Q352 366 358 383Q364 401 380 437Q392 465 398 479Q414 522 412 589Q409 654 422 702Q440 769 506 811Q571 853 656 853Q746 853 789 804Q793 798 801 798Q851 793 885 756Q919 719 920 668Q920 668 920 668Q926 557 963 475Q976 446 984 426Q1030 321 960 231Q949 216 963 205Q978 194 989 209Q1072 316 1018 441Q1010 460 996 490Q962 566 957 669Q956 734 912 781Q871 826 811 833Q758 889 656 889Q560 889 486 842Q409 793 387 711Q372 658 375 587Q377 528 364 493Q358 479 346 452Q330 415 323 395Z" fill="#000000" />
<path d="M831 412 866 401Q881 450 881 501Q881 618 765 734Q752 747 739 734Q706 700 576 626Q441 549 441 519V501Q441 456 452 413L487 422Q477 461 477 501V519Q477 528 595 595Q708 659 751 695Q844 597 844 501Q844 455 831 412Z" fill="#000000" />
<path d="M292.59014892578125 -54.128662109375Q292.59014892578125 -72.1649169921875 311.62841796875 -72.16607666015625Q329.6646728515625 -72.16717529296875 329.6646728515625 -54.13092041015625V0.9798583984375Q329.6646728515625 60.09869384765625 380.76739501953125 104.1842041015625Q428.86407470703125 145.26385498046875 488.98492431640625 148.2662353515625Q660.329345703125 8.975830078125 831.6737670898438 148.245361328125Q891.7946166992188 145.23565673828125 939.8912963867188 104.150146484375Q990.9940185546875 60.05841064453125 990.9940185546875 0.9395751953125V-54.17120361328125Q990.9940185546875 -72.20745849609375 1009.0302734375 -72.20855712890625Q1028.0685424804688 -72.209716796875 1028.0685424804688 -54.1734619140625V0.93731689453125Q1028.0685424804688 77.09039306640625 963.9396362304688 132.205078125Q902.8167724609375 184.31353759765625 825.6616821289062 184.3182373046875Q818.6475830078125 184.31866455078125 813.6375122070312 180.3109130859375Q660.329345703125 52.06243896484375 507.02117919921875 180.32958984375Q502.0111083984375 184.33795166015625 494.99700927734375 184.33837890625Q417.8419189453125 184.34307861328125 356.71905517578125 132.2420654296875Q292.59014892578125 77.13519287109375 292.59014892578125 0.98211669921875Z" fill="#000000" />
<path d="M835 415Q821 403 832 389Q844 375 858 386L919 434Q933 446 921 460Q916 467 909 468Q903 469 896 463Z" fill="#000000" />
<path d="M457 387Q471 374 483 388Q496 401 482 414L422 470Q408 482 396 469Q383 455 397 443Z" fill="#000000" />
<path d="M597 215 727 216Q785 217 830 288Q830 289 830 289Q860 342 866 402Q866 403 866 404Q866 423 848 423H840L689 464Q658 472 626 464L463 422Q463 422 462 422Q453 419 450 413Q447 408 450 399L452 392Q464 330 500 279Q546 214 597 215ZM597 251Q565 251 530 300Q501 342 490 391L636 429Q657 434 679 428L827 388Q820 345 798 307Q765 253 727 253L597 251Z" fill="#000000" />
</g></svg>