<svg xmlns="http://www.w3.org/2000/svg" viewBox="0 0 2048 2048">
<g transform="matrix(1 0 0 -1 0 2048)">
<path d="M933 540Q933 597 911.5 647.0Q890 697 852.5 735.0Q815 773 765.0 794.0Q715 815 658 815Q601 815 551.5 794.0Q502 773 464.0 735.0Q426 697 404.5 647.0Q383 597 383 540Q383 507 391 475Q406 415 444.5 367.5Q483 320 538.0 292.5Q593 265 658 265Q723 265 778.5 292.5Q834 320 872.5 367.5Q911 415 925 475Q933 507 933 540Z" fill="#9b9b9a" />
<path d="M585 808Q646 794 693.5 755.0Q741 716 769.0 660.5Q797 605 797 540Q797 507 789 475Q771 400 715.5 345.0Q660 290 585 273Q585 273 568.0 281.0Q551 289 525.0 305.5Q499 322 471.5 346.5Q444 371 422.0 403.0Q400 435 391 475Q380 525 379.5 557.0Q379 589 385.0 609.5Q391 630 400.0 644.0Q409 658 417 673Q435 708 463.5 733.5Q492 759 520.0 775.5Q548 792 566.5 800.0Q585 808 585 808Z" fill="#d0cfce" />
<path d="M1009 -32Q1009 -32 1014.0 -13.0Q1019 6 1021.5 35.5Q1024 65 1018.0 98.5Q1012 132 991.0 161.5Q970 191 927.0 210.0Q884 229 813 229Q769 199 732.5 174.5Q696 150 653 150H656Q613 150 574.0 168.5Q535 187 491 216Q436 216 400.5 198.0Q365 180 345.0 152.0Q325 124 316.5 92.0Q308 60 306.0 32.0Q304 4 305.5 -14.0Q307 -32 307 -32Z" fill="#d0cfce" />
<path d="M522 75V-31H807V75Z" fill="#9b9b9a" />
<path d="M820 208Q875 208 910.0 190.5Q945 173 965.0 146.0Q985 119 994.0 88.5Q1003 58 1004.5 31.0Q1006 4 1004.5 -13.5Q1003 -31 1003 -31Q1003 -31 985.5 -31.0Q968 -31 909 -31Q904 -3 897.0 26.0Q890 55 867.5 80.0Q845 105 795.5 122.0Q746 139 656 142Q693 147 719.0 155.0Q745 163 768.0 175.5Q791 188 820 208Z" fill="#9b9b9a" />
<path d="M864 558Q867 535 867.5 529.0Q868 523 867.5 523.0Q867 523 867 516Q867 444 838.5 385.0Q810 326 763.0 291.0Q716 256 659 256Q601 256 554.0 291.0Q507 326 479.0 385.0Q451 444 451 516Q451 531 454.0 552.0Q457 573 457 573Q502 616 556.0 631.0Q610 646 663.5 642.5Q717 639 761.5 624.5Q806 610 834.0 591.0Q862 572 864 558Z" fill="#a57939" />
<path d="M873 560Q870 583 823 608Q776 634 716 645Q554 676 450 580L448 578V574Q442 537 442 516Q442 405 505 326Q568 247 659 247Q749 247 813 326Q876 405 876 516Q876 519 876 520Q878 525 873 560ZM855 557Q859 527 859 525Q857 522 857 516Q857 411 799 338Q740 265 659 265Q577 265 519 338Q460 411 460 516Q460 535 465 568Q561 656 713 627Q770 617 814 592Q853 571 855 557Z" fill="#a57939" />
<path d="M567 -31Q566 -27 566 -22Q566 -7 576.5 4.0Q587 15 603 15H602Q618 15 628.5 4.0Q639 -7 639 -22Q639 -27 638 -31Z" fill="#000000" />
<path d="M690 -31Q689 -27 689 -22Q689 -7 699.5 4.0Q710 15 726 15H725Q741 15 751.5 4.0Q762 -7 762 -22Q762 -27 761 -31Z" fill="#000000" />
<path d="M291 -17Q294 -35 312 -33Q330 -30 327 -12Q318 44 336 99Q368 203 487 205Q584 141 653 140Q654 140 655 140H657Q658 140 659 140Q728 141 825 205Q945 203 977 99Q994 44 985 -12Q982 -30 1000 -33Q1019 -35 1021 -17Q1031 46 1012 110Q971 242 820 242Q814 242 810 239Q716 177 656 176Q596 177 502 239Q498 242 492 242Q341 242 301 110Q281 46 291 -17Z" fill="#000000" />
<path d="M860 522Q864 514 871 512Q877 510 885 514Q901 523 892 539Q886 551 878 562Q840 614 777 632Q717 650 658 648Q600 650 539 632Q462 610 424 539Q415 523 432 514Q448 505 456 522Q487 579 549 597Q605 613 658 612Q658 612 659 612Q712 613 767 597Q817 582 848 540Q855 531 860 522Z" fill="#000000" />
<path d="M1006 578Q1006 597 988 597Q969 597 969 578V491Q969 473 988 473Q1006 473 1006 491Z" fill="#000000" />
<path d="M344 578Q344 597 326 597Q307 597 307 578V491Q307 473 326 473Q344 473 344 491Z" fill="#000000" />
<path d="M785 -14Q785 -33 804 -33Q822 -33 822 -14V74Q822 92 804 92H524Q505 92 505 74V-14Q505 -33 524 -33Q542 -33 542 -14V55H785Z" fill="#000000" />
<path d="M768.6845703125 550.6748657226562Q768.6845703125 566.0086669921875 758.017578125 576.6756591796875Q747.3505859375 587.3426513671875 732.0167846679688 587.3426513671875Q716.6829833984375 587.3426513671875 706.0159912109375 576.6756591796875Q695.3489990234375 566.0086669921875 695.3489990234375 550.6748657226562Q695.3489990234375 536.0077514648438 706.0159912109375 525.0074157714844Q716.6829833984375 514.007080078125 732.0167846679688 514.007080078125Q747.3505859375 514.007080078125 758.017578125 525.0074157714844Q768.6845703125 536.0077514648438 768.6845703125 550.6748657226562Z" fill="#000000" />
<path d="M621.6845703125 550.6748657226562Q621.6845703125 566.0086669921875 611.017578125 576.6756591796875Q600.3505859375 587.3426513671875 585.0167846679688 587.3426513671875Q569.6829833984375 587.3426513671875 559.0159912109375 576.6756591796875Q548.3489990234375 566.0086669921875 548.3489990234375 550.6748657226562Q548.3489990234375 536.0077514648438 559.0159912109375 525.0074157714844Q569.6829833984375 514.007080078125 585.0167846679688 514.007080078125Q600.3505859375 514.007080078125 611.017578125 525.0074157714844Q621.6845703125 536.0077514648438 621.6845703125 550.6748657226562Z" fill="#000000" />
<path d="M658 368Q690 368 722 384Q728 387 730.5 394.0Q733 401 730 408Q726 415 719.0 417.5Q712 420 705 416Q658 393 612 416Q605 420 597.5 417.5Q590 415 587 408Q584 401 586.0 394.0Q588 387 595 384Q627 368 658 368Z" fill="#000000" />
<path d="M830 424 865 411Q885 466 885 526Q885 537 884 548L848 546Q848 536 848 526Q848 472 830 424Z" fill="#000000" />
<path d="M470 547 433 550Q433 538 433 526Q433 412 497 331Q564 248 659 248V284Q581 284 526 354Q469 425 469 526Q469 537 470 547Z" fill="#000000" />
<path d="M670 342Q652 342 652 324Q652 305 670 305Q705 305 746 318Q830 344 862 410Q871 426 854 434Q838 442 830 426Q804 374 735 353Q700 342 670 342Z" fill="#000000" />
<path d="M952 540Q952 662 866 748Q780 834 658 834Q537 834 451 748Q365 662 365 540Q365 505 373 471Q397 374 476 311Q556 247 658 247Q761 247 841 311Q920 374 943 471Q952 505 952 540ZM915 540Q915 509 908 480Q887 394 818 340Q748 284 658 284Q568 284 498 340Q429 394 409 480Q402 509 402 540Q402 647 477 722Q552 797 658 797Q765 797 840 722Q915 647 915 540Z" fill="#000000" />
</g></svg>