<svg xmlns="http://www.w3.org/2000/svg" viewBox="0 0 2048 2048">
<g transform="matrix(1 0 0 -1 0 2048)">
<path d="M91.5877685546875 733.1798706054688V36.51513671875H1228.2723388671875V733.1798706054688Z" fill="#1e50a0" />
<path d="M91.5877685546875 292.97576904296875V182.97607421875H1228.2723388671875V292.97576904296875Z" fill="#f1b31c" />
<path d="M321 569 292 477 366 534H275L349 477Z" fill="#ffffff" />
<path d="M330 571Q328 576 324 577Q319 578 316 577Q313 575 312 571L303 542H275Q270 542 268 539Q265 535 265 532Q266 529 269 526L293 508L284 479Q282 475 285 471Q288 467 291 467Q294 467 298 469L321 487L344 469Q347 467 352 468Q356 469 358 472Q359 475 358 479L349 508L372 526Q376 529 376 533Q376 542 367 542H338ZM317 524H325L328 515L321 510L314 515Z" fill="#ffffff" />
<path d="M211 660 182 568 256 625H165L239 568Z" fill="#ffffff" />
<path d="M219 662Q218 667 213 668Q205 671 202 662L193 634H165Q160 634 157 630Q155 627 155 623Q156 620 159 617L182 600L174 571Q172 566 175 562Q178 559 181 558Q184 558 188 561L211 578L233 561Q237 558 242 559Q246 561 248 563Q249 566 248 571L239 600L262 617Q266 620 266 625Q266 634 256 634H228ZM207 615H215L217 606L211 601L204 606Z" fill="#ffffff" />
<path d="M73 37Q73 18 92 18H1228Q1247 18 1247 37V733Q1247 752 1228 752H92Q73 752 73 733ZM110 715H1210V55H110Z" fill="#000000" />
</g></svg>