<svg xmlns="http://www.w3.org/2000/svg" viewBox="0 0 2048 2048">
<g transform="matrix(1 0 0 -1 0 2048)">
<path d="M91.5877685546875 733.1798706054688V36.51513671875H1228.2723388671875V733.1798706054688Z" fill="#ffffff" />
<path d="M92 678V623H1228V678Z" fill="#1e50a0" />
<path d="M92 147V92H1228V147Z" fill="#1e50a0" />
<path d="M644 578 479 303Q470 287 486 278Q490 275 495 275H825Q843 275 843 293Q843 298 841 303L676 578Q666 593 651 584Q647 582 644 578ZM660 533 793 312H527Z" fill="#1e50a0" />
<path d="M644 192Q647 188 651 186Q666 177 676 192L841 467Q843 472 843 477Q843 495 825 495H495Q490 495 486 492Q470 483 479 467ZM660 237 527 458H793Z" fill="#1e50a0" />
<path d="M73 37Q73 18 92 18H1228Q1247 18 1247 37V733Q1247 752 1228 752H92Q73 752 73 733ZM110 715H1210V55H110Z" fill="#000000" />
</g></svg>