<svg xmlns="http://www.w3.org/2000/svg" viewBox="0 0 2048 2048">
<g transform="matrix(1 0 0 -1 0 2048)">
<path d="M91.5877685546875 733.1798706054688V36.51513671875H1228.2723388671875V733.1798706054688Z" fill="#d22f27" />
<path d="M472.38909912109375 421.26092529296875Q472.38909912109375 427.8878173828125 469.89581298828125 433.72735595703125Q467.40252685546875 439.56689453125 463.0064697265625 443.96295166015625Q458.61041259765625 448.3590087890625 452.7708740234375 450.852294921875Q446.93133544921875 453.3455810546875 440.304443359375 453.3455810546875Q433.67755126953125 453.3455810546875 427.8380126953125 450.852294921875Q421.99847412109375 448.3590087890625 417.6024169921875 443.96295166015625Q413.20635986328125 439.56689453125 410.71307373046875 433.72735595703125Q408.21978759765625 427.8878173828125 408.21978759765625 421.26092529296875Q408.21978759765625 414.634033203125 410.71307373046875 408.79449462890625Q413.20635986328125 402.9549560546875 417.6024169921875 398.55889892578125Q421.99847412109375 394.162841796875 427.8380126953125 391.6695556640625Q433.67755126953125 389.17626953125 440.304443359375 389.17626953125Q446.93133544921875 389.17626953125 452.7708740234375 391.6695556640625Q458.61041259765625 394.162841796875 463.0064697265625 398.55889892578125Q467.40252685546875 402.9549560546875 469.89581298828125 408.79449462890625Q472.38909912109375 414.634033203125 472.38909912109375 421.26092529296875Z" fill="#f1b31c" />
<path d="M472.38909912109375 605.2609252929688Q472.38909912109375 611.8878173828125 469.89581298828125 617.7273559570312Q467.40252685546875 623.56689453125 463.0064697265625 627.9629516601562Q458.61041259765625 632.3590087890625 452.7708740234375 634.852294921875Q446.93133544921875 637.3455810546875 440.304443359375 637.3455810546875Q433.67755126953125 637.3455810546875 427.8380126953125 634.852294921875Q421.99847412109375 632.3590087890625 417.6024169921875 627.9629516601562Q413.20635986328125 623.56689453125 410.71307373046875 617.7273559570312Q408.21978759765625 611.8878173828125 408.21978759765625 605.2609252929688Q408.21978759765625 598.634033203125 410.71307373046875 592.7944946289062Q413.20635986328125 586.9549560546875 417.6024169921875 582.5588989257812Q421.99847412109375 578.162841796875 427.8380126953125 575.6695556640625Q433.67755126953125 573.17626953125 440.304443359375 573.17626953125Q446.93133544921875 573.17626953125 452.7708740234375 575.6695556640625Q458.61041259765625 578.162841796875 463.0064697265625 582.5588989257812Q467.40252685546875 586.9549560546875 469.89581298828125 592.7944946289062Q472.38909912109375 598.634033203125 472.38909912109375 605.2609252929688Z" fill="#f1b31c" />
<path d="M545.3890991210938 476.26092529296875Q545.3890991210938 482.8878173828125 542.8958129882812 488.72735595703125Q540.4025268554688 494.56689453125 536.0064697265625 498.96295166015625Q531.6104125976562 503.3590087890625 525.7708740234375 505.852294921875Q519.9313354492188 508.3455810546875 513.304443359375 508.3455810546875Q506.67755126953125 508.3455810546875 500.8380126953125 505.852294921875Q494.99847412109375 503.3590087890625 490.6024169921875 498.96295166015625Q486.20635986328125 494.56689453125 483.71307373046875 488.72735595703125Q481.21978759765625 482.8878173828125 481.21978759765625 476.26092529296875Q481.21978759765625 469.634033203125 483.71307373046875 463.79449462890625Q486.20635986328125 457.9549560546875 490.6024169921875 453.55889892578125Q494.99847412109375 449.162841796875 500.8380126953125 446.6695556640625Q506.67755126953125 444.17626953125 513.304443359375 444.17626953125Q519.9313354492188 444.17626953125 525.7708740234375 446.6695556640625Q531.6104125976562 449.162841796875 536.0064697265625 453.55889892578125Q540.4025268554688 457.9549560546875 542.8958129882812 463.79449462890625Q545.3890991210938 469.634033203125 545.3890991210938 476.26092529296875Z" fill="#f1b31c" />
<path d="M545.3890991210938 568.2609252929688Q545.3890991210938 574.8878173828125 542.8958129882812 580.7273559570312Q540.4025268554688 586.56689453125 536.0064697265625 590.9629516601562Q531.6104125976562 595.3590087890625 525.7708740234375 597.852294921875Q519.9313354492188 600.3455810546875 513.304443359375 600.3455810546875Q506.67755126953125 600.3455810546875 500.8380126953125 597.852294921875Q494.99847412109375 595.3590087890625 490.6024169921875 590.9629516601562Q486.20635986328125 586.56689453125 483.71307373046875 580.7273559570312Q481.21978759765625 574.8878173828125 481.21978759765625 568.2609252929688Q481.21978759765625 561.634033203125 483.71307373046875 555.7944946289062Q486.20635986328125 549.9549560546875 490.6024169921875 545.5588989257812Q494.99847412109375 541.162841796875 500.8380126953125 538.6695556640625Q506.67755126953125 536.17626953125 513.304443359375 536.17626953125Q519.9313354492188 536.17626953125 525.7708740234375 538.6695556640625Q531.6104125976562 541.162841796875 536.0064697265625 545.5588989257812Q540.4025268554688 549.9549560546875 542.8958129882812 555.7944946289062Q545.3890991210938 561.634033203125 545.3890991210938 568.2609252929688Z" fill="#f1b31c" />
<path d="M248 450 367 541H220L339 450L293 597Z" fill="#f1b31c" />
<path d="M239 453Q238 448 241 445Q244 441 247 441Q250 440 254 443L293 473L333 443Q337 440 341 441Q350 444 347 453L332 503L372 534Q376 536 376 541Q376 550 367 550H317L302 600Q301 604 296 606Q287 608 285 600L269 550H220Q215 550 213 546Q207 539 214 534L255 503ZM293 496 276 510 283 532H304L311 510ZM264 532 260 521 247 532ZM326 521 323 532H340ZM308 485 316 491 321 475ZM270 491 278 485 265 475ZM298 550H288L293 566Z" fill="#f1b31c" />
<path d="M73 37Q73 18 92 18H1228Q1247 18 1247 37V733Q1247 752 1228 752H92Q73 752 73 733ZM110 715H1210V55H110Z" fill="#000000" />
</g></svg>