<svg xmlns="http://www.w3.org/2000/svg" viewBox="0 0 2048 2048">
<g transform="matrix(1 0 0 -1 0 2048)">
<path d="M91.5877685546875 733.1798706054688V36.51513671875H1228.2723388671875V733.1798706054688Z" fill="#61b2e4" />
<path d="M91.5877685546875 385.114990234375V36.755859375H1228.2723388671875V385.114990234375Z" fill="#5c9e31" />
<path d="M477 385 92 733V37Z" fill="#ffffff" />
<path d="M209 329 315 411 187 407 289 331 252 458Z" fill="#d22f27" />
<path d="M201 332Q199 327 202 324Q205 320 208 320Q211 319 215 322L250 349L283 324Q287 321 291 322Q300 325 297 334L285 376L320 403Q324 406 324 411Q324 415 322 417Q319 420 315 420L273 419L261 460Q259 465 255 466Q246 469 243 460L229 417L186 416Q182 416 179 413Q174 405 181 400L215 375ZM250 372 236 382 242 399 259 400 264 383ZM223 399 221 393 213 399ZM265 360 269 364 272 355ZM280 395 278 400 287 401ZM254 418H248L251 427ZM230 363 234 360 227 355Z" fill="#d22f27" />
<path d="M73 37Q73 18 92 18H1228Q1247 18 1247 37V733Q1247 752 1228 752H92Q73 752 73 733ZM110 715H1210V55H110Z" fill="#000000" />
</g></svg>