<svg xmlns="http://www.w3.org/2000/svg" viewBox="0 0 2048 2048">
<g transform="matrix(1 0 0 -1 0 2048)">
<path d="M642 -179Q653 -188 683.0 -193.5Q713 -199 756.0 -195.5Q799 -192 850.0 -174.0Q901 -156 953 -118Q993 -90 1020.5 -72.5Q1048 -55 1048 -55Q1055 -55 1067.0 -63.5Q1079 -72 1090.5 -83.0Q1102 -94 1110.0 -102.5Q1118 -111 1118 -111Q1130 -119 1154.0 -120.0Q1178 -121 1200.0 -119.5Q1222 -118 1225 -118Q1228 -118 1226.5 -107.0Q1225 -96 1221.5 -82.0Q1218 -68 1215.0 -56.5Q1212 -45 1212 -45Q1195 -30 1194.0 -15.5Q1193 -1 1192 9Q1189 27 1174.0 36.5Q1159 46 1142.5 49.5Q1126 53 1118 53Q1106 53 1088.0 49.5Q1070 46 1070 46Q1065 41 1068.5 47.0Q1072 53 1079.0 63.5Q1086 74 1091.5 83.0Q1097 92 1097 92Q1102 99 1100.5 112.0Q1099 125 1096.5 136.0Q1094 147 1094 147Q1094 147 1082.5 152.5Q1071 158 1060 158Q1049 158 1035.5 145.5Q1022 133 1008 92Q999 64 986.0 39.0Q973 14 963.0 -2.0Q953 -18 953 -18L862 -128L770 -165Q749 -172 724.0 -173.0Q699 -174 676.0 -172.0Q653 -170 638.0 -167.5Q623 -165 623 -165Z" fill="#92d3f5" />
<path d="M714.3130493164062 842.0086059570312Q714.3130493164062 853.29638671875 710.0265502929688 863.2982177734375Q705.7400512695312 873.300048828125 698.167236328125 880.8728637695312Q690.5944213867188 888.4456787109375 680.6640319824219 892.732177734375Q670.733642578125 897.0186767578125 659.302978515625 897.0186767578125Q647.872314453125 897.0186767578125 637.9419250488281 892.732177734375Q628.0115356445312 888.4456787109375 620.438720703125 880.8728637695312Q612.8659057617188 873.300048828125 608.5794067382812 863.2982177734375Q604.2929077148438 853.29638671875 604.2929077148438 842.0086059570312Q604.2929077148438 830.5779418945312 608.5794067382812 820.5761108398438Q612.8659057617188 810.5742797851562 620.438720703125 803.00146484375Q628.0115356445312 795.4286499023438 637.9419250488281 791.2135925292969Q647.872314453125 786.99853515625 659.302978515625 786.99853515625Q670.733642578125 786.99853515625 680.6640319824219 791.2135925292969Q690.5944213867188 795.4286499023438 698.167236328125 803.00146484375Q705.7400512695312 810.5742797851562 710.0265502929688 820.5761108398438Q714.3130493164062 830.5779418945312 714.3130493164062 842.0086059570312Z" fill="#6a462f" />
<path d="M724 842Q724 906 659 906Q633 906 614 887Q595 868 595 842Q595 815 614 796Q633 777 659 777Q724 777 724 842ZM705 842Q705 796 659 796Q640 796 627 809Q614 823 614 842Q614 861 627 874Q640 887 659 887Q705 887 705 842Z" fill="#6a462f" />
<path d="M842 623Q842 638 854.0 641.0Q866 644 880.0 640.5Q894 637 899 633Q949 598 999.0 574.0Q1049 550 1081 540Q1104 533 1115.0 539.0Q1126 545 1130.0 553.0Q1134 561 1134 561L1064 591L845 715L578 691Q578 691 561.5 684.0Q545 677 520.0 667.0Q495 657 468.5 646.5Q442 636 420.5 627.5Q399 619 390 616Q380 612 358.5 610.0Q337 608 310.5 607.0Q284 606 259.0 605.5Q234 605 218.0 604.5Q202 604 202 604Q202 568 236 568Q239 568 255.5 568.0Q272 568 294.0 567.5Q316 567 336.0 567.0Q356 567 367 568Q387 571 426.0 581.0Q465 591 497 607Q528 624 549.0 621.5Q570 619 570 619L623 587V495L587 403L477 238L440 0H495L568 183L678 330H697L733 183V-55H788L825 183V330V623Z" fill="#6a462f" />
<path d="M834 623H851Q851 629 854 631Q858 633 866 633Q884 632 894 625Q991 558 1078 531Q1112 521 1131 538Q1140 547 1143 559L1144 566L1068 600L847 724L575 700L574 699Q421 636 387 624Q357 614 202 613H193V604Q193 559 236 559Q237 559 248 559Q345 557 368 559Q440 567 501 599Q539 619 566 610L614 581V497L579 408L468 242L429 -9H501L576 179L683 321H690L724 182V-64H796L834 183ZM844 646Q833 639 833 623H816V184L780 -46H743V184L704 339H674L560 188L489 9H451L485 235L595 399L633 493V592L574 627H573Q538 639 492 615Q435 585 366 577Q344 575 248 577Q238 578 236 578Q216 578 212 595Q362 596 393 607Q428 619 580 682L843 706L1060 583L1122 556Q1120 554 1118 552Q1107 542 1083 549Q1000 574 905 640Q890 651 867 651Q853 651 844 646Z" fill="#6a462f" />
<path d="M733 841Q733 915 659 915Q629 915 608 893Q586 872 586 841Q586 811 608 789Q629 768 659 768Q733 768 733 841ZM696 841Q696 805 659 805Q623 805 623 841Q623 878 659 878Q696 878 696 841Z" fill="#000000" />
<path d="M218 623Q199 623 199 605Q199 596 204 591Q209 587 218 587H312Q409 587 486 635Q556 679 626 688Q698 697 788 697Q873 697 923 655Q980 608 1047 579L1111 551Q1128 544 1135 561Q1139 570 1136 576Q1134 582 1126 585L1061 613Q1000 639 947 683Q887 733 788 733Q696 733 621 724Q544 714 467 667Q398 624 312 623Z" fill="#000000" />
<path d="M843 623Q843 642 825 642Q807 642 807 623V220Q807 185 801 150L776 -16Q773 -37 761 -37Q752 -37 752 -18V147Q752 186 742 223L723 299Q711 348 688 348Q669 348 642 312L576 224Q552 192 538 156L492 41Q483 18 468 18Q466 18 465 20Q462 25 464 33L489 199Q494 232 512 259L582 363Q603 395 617 431L627 454Q642 491 642 532V550Q642 594 618 618L600 636Q587 649 574 636Q561 623 574 610L592 592Q605 579 605 550V532Q605 499 593 468L583 444Q570 412 551 383L482 279Q459 245 453 205L427 39Q424 18 434 1Q446 -18 468 -18Q507 -18 526 27L572 142Q584 174 605 202L671 290Q679 300 683 305Q686 299 688 290L707 214Q715 181 715 147V-18Q715 -73 761 -73Q804 -73 812 -22L838 144Q843 182 843 220Z" fill="#000000" />
<path d="M1008 73Q1008 55 1027 55Q1045 55 1045 73Q1045 128 1063 128Q1074 128 1075 122Q1077 113 1069 105Q1056 92 1069 79Q1082 66 1095 79Q1117 101 1111 130Q1104 165 1063 165Q1008 165 1008 73Z" fill="#000000" />
<path d="M957 -108Q946 -122 961 -133Q976 -144 987 -129Q1004 -104 1017 -98Q1041 -85 1050 -94Q1063 -107 1076 -94Q1089 -81 1076 -69Q1049 -41 1000 -65Q980 -75 957 -108Z" fill="#000000" />
<path d="M1147 -90Q1132 -80 1122 -95Q1111 -110 1126 -120Q1143 -132 1163 -140Q1211 -159 1233 -128Q1250 -104 1241 -76Q1231 -42 1184 -28Q1167 -23 1161 -40Q1159 -49 1162 -55Q1165 -60 1174 -63Q1201 -71 1206 -87Q1209 -98 1203 -107Q1198 -114 1176 -106Q1160 -100 1147 -90Z" fill="#000000" />
<path d="M134 13Q126 17 119 15Q113 13 109 5Q100 -11 116 -20Q161 -44 289 -73Q456 -110 710 -132Q728 -133 730 -115Q731 -97 713 -95Q461 -73 297 -37Q175 -10 134 13Z" fill="#000000" />
<path d="M609 -147Q601 -145 595 -148Q589 -152 587 -161Q583 -178 601 -183Q748 -220 835 -162Q858 -147 897 -102Q994 6 1102 18Q1120 20 1118 39Q1116 57 1098 55Q976 41 870 -78Q833 -119 815 -131Q742 -180 609 -147Z" fill="#000000" />
</g></svg>