<svg xmlns="http://www.w3.org/2000/svg" viewBox="0 0 2048 2048">
<g transform="matrix(1 0 0 -1 0 2048)">
<path d="M91.5877685546875 733.1798706054688V36.51513671875H1228.2723388671875V733.1798706054688Z" fill="#fcea2b" />
<path d="M91.7872314453125 733.114990234375V384.755859375H660.1026611328125V733.114990234375Z" fill="#1e50a0" />
<path d="M181 715 660 428V385H589L110 672V715Z" fill="#ffffff" />
<path d="M659.7684936523438 672.4154663085938 181.394287109375 385.056396484375H109.72149658203125V427.65032958984375L588.095703125 715.0093994140625H659.7684936523438Z" fill="#ffffff" />
<path d="M110.25 604.9757690429688V494.97607421875H660.25V604.9757690429688Z" fill="#ffffff" />
<path d="M330.25 714.9273071289062V384.92822265625H440.25V714.9273071289062Z" fill="#ffffff" />
<path d="M367.0877685546875 714.9273071289062V384.92822265625H403.7723388671875V714.9273071289062Z" fill="#d22f27" />
<path d="M110.25 568.3252563476562V531.65869140625H660.25V568.3252563476562Z" fill="#d22f27" />
<path d="M660 428V385L477 495H548Z" fill="#d22f27" />
<path d="M660 715 477 605H440V626L589 715Z" fill="#d22f27" />
<path d="M110.0 672.0V715.0L293.0 605.0H222.0Z" fill="#d22f27" />
<path d="M110.0 385.0 293.0 495.0H330.0V474.0L181.0 385.0Z" fill="#d22f27" />
<path d="M421.64862060546875 559.0702514648438Q421.64862060546875 568.5328369140625 418.08843994140625 576.8711547851562Q414.52825927734375 585.20947265625 408.2510986328125 591.4866333007812Q401.97393798828125 597.7637939453125 393.6356201171875 601.323974609375Q385.29730224609375 604.8841552734375 375.834716796875 604.8841552734375Q366.37213134765625 604.8841552734375 358.0338134765625 601.323974609375Q349.69549560546875 597.7637939453125 343.4183349609375 591.4866333007812Q337.14117431640625 585.20947265625 333.58099365234375 576.8711547851562Q330.02081298828125 568.5328369140625 330.02081298828125 559.0702514648438Q330.02081298828125 549.607666015625 333.58099365234375 541.2693481445312Q337.14117431640625 532.9310302734375 343.4183349609375 526.6538696289062Q349.69549560546875 520.376708984375 358.0338134765625 516.8165283203125Q366.37213134765625 513.25634765625 375.834716796875 513.25634765625Q385.29730224609375 513.25634765625 393.6356201171875 516.8165283203125Q401.97393798828125 520.376708984375 408.2510986328125 526.6538696289062Q414.52825927734375 532.9310302734375 418.08843994140625 541.2693481445312Q421.64862060546875 549.607666015625 421.64862060546875 559.0702514648438Z" fill="#1e50a0" />
<path d="M357.7882080078125 531.43505859375 403.2021484375 566.5872802734375 348.35107421875 564.8575439453125 392.0701904296875 532.3018798828125 376.19915771484375 586.7203979492188Z" fill="#fcea2b" />
<path d="M349 535Q348 530 351 526Q354 522 357 522Q360 522 364 524L375 533L387 525Q390 522 395 524Q399 525 401 528Q402 531 401 535L397 550L409 559Q413 562 413 567Q412 576 403 576L389 575L385 589Q384 594 379 595Q370 598 368 590L363 575L348 574Q344 574 341 571Q336 563 343 558L354 549Z" fill="#fcea2b" />
<path d="M513.0594482421875 559.4281005859375Q513.0594482421875 563.213134765625 511.6353759765625 566.5484619140625Q510.2113037109375 569.8837890625 507.700439453125 572.3946533203125Q505.1895751953125 574.905517578125 501.854248046875 576.32958984375Q498.5189208984375 577.753662109375 494.73388671875 577.753662109375Q490.9488525390625 577.753662109375 487.613525390625 576.32958984375Q484.2781982421875 574.905517578125 481.767333984375 572.3946533203125Q479.2564697265625 569.8837890625 477.8323974609375 566.5484619140625Q476.4083251953125 563.213134765625 476.4083251953125 559.4281005859375Q476.4083251953125 555.64306640625 477.8323974609375 552.3077392578125Q479.2564697265625 548.972412109375 481.767333984375 546.4615478515625Q484.2781982421875 543.95068359375 487.613525390625 542.526611328125Q490.9488525390625 541.1025390625 494.73388671875 541.1025390625Q498.5189208984375 541.1025390625 501.854248046875 542.526611328125Q505.1895751953125 543.95068359375 507.700439453125 546.4615478515625Q510.2113037109375 548.972412109375 511.6353759765625 552.3077392578125Q513.0594482421875 555.64306640625 513.0594482421875 559.4281005859375Z" fill="#fcea2b" />
<path d="M275.0594482421875 559.4281005859375Q275.0594482421875 563.213134765625 273.6353759765625 566.5484619140625Q272.2113037109375 569.8837890625 269.700439453125 572.3946533203125Q267.1895751953125 574.905517578125 263.854248046875 576.32958984375Q260.5189208984375 577.753662109375 256.73388671875 577.753662109375Q252.9488525390625 577.753662109375 249.613525390625 576.32958984375Q246.2781982421875 574.905517578125 243.767333984375 572.3946533203125Q241.2564697265625 569.8837890625 239.8323974609375 566.5484619140625Q238.4083251953125 563.213134765625 238.4083251953125 559.4281005859375Q238.4083251953125 555.64306640625 239.8323974609375 552.3077392578125Q241.2564697265625 548.972412109375 243.767333984375 546.4615478515625Q246.2781982421875 543.95068359375 249.613525390625 542.526611328125Q252.9488525390625 541.1025390625 256.73388671875 541.1025390625Q260.5189208984375 541.1025390625 263.854248046875 542.526611328125Q267.1895751953125 543.95068359375 269.700439453125 546.4615478515625Q272.2113037109375 548.972412109375 273.6353759765625 552.3077392578125Q275.0594482421875 555.64306640625 275.0594482421875 559.4281005859375Z" fill="#fcea2b" />
<path d="M394.0594482421875 458.4281005859375Q394.0594482421875 462.213134765625 392.6353759765625 465.5484619140625Q391.2113037109375 468.8837890625 388.700439453125 471.3946533203125Q386.1895751953125 473.905517578125 382.854248046875 475.32958984375Q379.5189208984375 476.753662109375 375.73388671875 476.753662109375Q371.9488525390625 476.753662109375 368.613525390625 475.32958984375Q365.2781982421875 473.905517578125 362.767333984375 471.3946533203125Q360.2564697265625 468.8837890625 358.8323974609375 465.5484619140625Q357.4083251953125 462.213134765625 357.4083251953125 458.4281005859375Q357.4083251953125 454.64306640625 358.8323974609375 451.3077392578125Q360.2564697265625 447.972412109375 362.767333984375 445.4615478515625Q365.2781982421875 442.95068359375 368.613525390625 441.526611328125Q371.9488525390625 440.1025390625 375.73388671875 440.1025390625Q379.5189208984375 440.1025390625 382.854248046875 441.526611328125Q386.1895751953125 442.95068359375 388.700439453125 445.4615478515625Q391.2113037109375 447.972412109375 392.6353759765625 451.3077392578125Q394.0594482421875 454.64306640625 394.0594482421875 458.4281005859375Z" fill="#fcea2b" />
<path d="M394.0594482421875 660.4281005859375Q394.0594482421875 664.213134765625 392.6353759765625 667.5484619140625Q391.2113037109375 670.8837890625 388.700439453125 673.3946533203125Q386.1895751953125 675.905517578125 382.854248046875 677.32958984375Q379.5189208984375 678.753662109375 375.73388671875 678.753662109375Q371.9488525390625 678.753662109375 368.613525390625 677.32958984375Q365.2781982421875 675.905517578125 362.767333984375 673.3946533203125Q360.2564697265625 670.8837890625 358.8323974609375 667.5484619140625Q357.4083251953125 664.213134765625 357.4083251953125 660.4281005859375Q357.4083251953125 656.64306640625 358.8323974609375 653.3077392578125Q360.2564697265625 649.972412109375 362.767333984375 647.4615478515625Q365.2781982421875 644.95068359375 368.613525390625 643.526611328125Q371.9488525390625 642.1025390625 375.73388671875 642.1025390625Q379.5189208984375 642.1025390625 382.854248046875 643.526611328125Q386.1895751953125 644.95068359375 388.700439453125 647.4615478515625Q391.2113037109375 649.972412109375 392.6353759765625 653.3077392578125Q394.0594482421875 656.64306640625 394.0594482421875 660.4281005859375Z" fill="#fcea2b" />
<path d="M73 37Q73 18 92 18H1228Q1247 18 1247 37V733Q1247 752 1228 752H92Q73 752 73 733ZM110 715H1210V55H110Z" fill="#000000" />
</g></svg>