<svg xmlns="http://www.w3.org/2000/svg" viewBox="0 0 2048 2048">
<g transform="matrix(1 0 0 -1 0 2048)">
<path d="M835 919Q812 919 792 905Q802 922 802 941Q802 971 780.5 992.5Q759 1014 729 1014Q704 1014 684.5 999.0Q665 984 659 961Q652 984 633.0 999.0Q614 1014 589 1014Q558 1014 536.5 992.5Q515 971 515 941Q515 922 525 905Q505 919 482 919Q452 919 430.0 897.5Q408 876 408 846Q408 815 430 794Q452 772 482 772V661H835V672V772Q866 772 887.5 793.5Q909 815 909 846Q909 876 887.5 897.5Q866 919 835 919Z" fill="#ffffff" />
<path d="M866 905 867 912Q885 903 897.0 885.5Q909 868 909 846Q909 815 887.5 793.5Q866 772 835 772V672V661H738L732 662H720V888Q720 896 728 903Q750 922 755.5 946.5Q761 971 759.0 989.5Q757 1008 757 1008Q757 1008 766.0 1001.5Q775 995 785.0 982.5Q795 970 799.0 950.5Q803 931 792 905Q792 905 807.0 909.5Q822 914 840.0 916.0Q858 918 867 912Z" fill="#d0cfce" />
<path d="M311 -15Q311 -15 310.0 1.5Q309 18 310.5 44.5Q312 71 320.5 100.5Q329 130 349.0 156.5Q369 183 404.5 199.5Q440 216 495 216Q539 187 578.0 168.5Q617 150 660 150H657Q700 150 739.5 168.5Q779 187 822 216Q877 216 912.5 199.5Q948 183 968.0 156.5Q988 130 996.5 100.5Q1005 71 1007.0 44.5Q1009 18 1007.5 1.5Q1006 -15 1006 -15Z" fill="#ffffff" />
<path d="M812 216Q867 216 903.0 199.5Q939 183 960.5 156.5Q982 130 992.0 100.5Q1002 71 1004.5 44.5Q1007 18 1006.5 1.5Q1006 -15 1006 -15Q1006 -15 984.5 -15.0Q963 -15 929.0 -15.0Q895 -15 856 -15L848 108Q782 76 720.0 74.0Q658 72 608.0 92.0Q558 112 527.5 145.0Q497 178 494 216Q551 173 599.5 161.5Q648 150 688.0 158.5Q728 167 759.5 184.5Q791 202 812 216Z" fill="#d0cfce" />
<path d="M840 661Q902 581 927.0 522.0Q952 463 949.5 422.5Q947 382 925.5 357.5Q904 333 871.0 322.0Q838 311 804 311L513 309Q499 309 485.5 311.5Q472 314 459 317Q424 325 398.5 348.5Q373 372 367.5 413.0Q362 454 386.5 515.5Q411 577 476 661Z" fill="#000000" />
<path d="M837 662Q851 633 858.5 599.0Q866 565 866 528Q866 456 838.0 397.0Q810 338 763.0 303.0Q716 268 659 268Q601 268 554.0 303.0Q507 338 479.0 397.0Q451 456 451 528Q451 552 454 576L671 662Z" fill="#a57939" />
<path d="M877 319Q880 319 883 320Q946 342 963 397Q992 495 855 673Q850 679 842.5 680.0Q835 681 829 676Q823 671 822.0 663.5Q821 656 826 650Q878 583 901.5 535.5Q925 488 929.0 457.0Q933 426 928 407Q917 370 871 354Q864 352 860.5 345.0Q857 338 860 331Q864 319 877 319Z" fill="#000000" />
<path d="M434 321Q446 321 451 333Q454 340 451.0 347.0Q448 354 441 356Q398 373 389 409Q383 427 388.0 458.0Q393 489 416.0 536.5Q439 584 491 650Q495 656 494.5 663.5Q494 671 488 676Q482 681 474.0 680.0Q466 679 462 673Q326 497 353 399Q368 345 427 322Q430 321 434 321Z" fill="#000000" />
<path d="M885 528Q885 604 853 670Q850 677 843.0 679.5Q836 682 829 679Q822 675 819.5 668.0Q817 661 820 654Q848 596 848 528Q848 461 822.5 406.5Q797 352 754.0 319.0Q711 286 659 286Q606 286 563.0 319.0Q520 352 494.5 406.5Q469 461 469 528Q469 541 470 557Q472 579 478 599Q469 596 461.5 593.0Q454 590 447 587Q451 593 455.0 598.0Q459 603 462 608Q472 622 480.5 633.5Q489 645 493 653Q496 660 493.5 667.5Q491 675 484 678Q481 680 477 680Q476 680 476 680Q468 678 464 670Q435 611 433 542Q433 539 432.5 535.0Q432 531 432 528Q432 451 462.5 388.0Q493 325 544.5 287.5Q596 250 659 250Q721 250 772.5 287.5Q824 325 854.5 388.0Q885 451 885 528Z" fill="#000000" />
<path d="M1007 -16Q1014 -16 1019.5 -10.5Q1025 -5 1025 3V58Q1025 107 997.0 148.5Q969 190 923.0 215.5Q877 241 824 241Q817 241 812 237Q659 109 505 237Q500 241 494 241Q440 241 394.0 215.5Q348 190 320.0 148.5Q292 107 292 58V3Q292 -5 297.5 -10.5Q303 -16 310 -16Q318 -16 323.5 -10.5Q329 -5 329 3V58Q329 99 352.5 131.5Q376 164 412.5 183.5Q449 203 487 204Q659 66 830 204Q868 203 904.5 183.5Q941 164 965.0 131.5Q989 99 989 58V3Q989 -5 994.0 -10.5Q999 -16 1007 -16Z" fill="#000000" />
<path d="M769 553Q769 568 758.0 578.5Q747 589 732 589Q717 589 706.0 578.5Q695 568 695 553Q695 538 706.0 527.0Q717 516 732 516Q747 516 758.0 527.0Q769 538 769 553Z" fill="#000000" />
<path d="M622 553Q622 568 611.0 578.5Q600 589 585 589Q570 589 559.0 578.5Q548 568 548 553Q548 538 559.0 527.0Q570 516 585 516Q600 516 611.0 527.0Q622 538 622 553Z" fill="#000000" />
<path d="M658 370Q690 370 722 386Q728 389 730.5 396.0Q733 403 730 410Q726 417 719.0 419.5Q712 422 705 418Q658 395 612 418Q605 422 597.5 419.5Q590 417 587 410Q584 403 586.0 396.0Q588 389 595 386Q627 370 658 370Z" fill="#000000" />
<path d="M857 -16Q864 -16 869.5 -10.5Q875 -5 875 3V111Q875 120 867 126Q860 131 851 128Q691 72 592 120Q559 136 540.0 157.0Q521 178 513.0 194.0Q505 210 505 210Q502 217 495.0 220.5Q488 224 481 222Q474 219 470.5 212.5Q467 206 470 198Q470 197 479.5 177.5Q489 158 512.0 132.5Q535 107 575 88Q680 36 839 86V3Q839 -5 844.0 -10.5Q849 -16 857 -16Z" fill="#000000" />
<path d="M548.6246337890625 21.4942626953125Q548.6246337890625 27.1357421875 546.4822998046875 32.134521484375Q544.3399658203125 37.13330078125 540.55517578125 40.9180908203125Q536.7703857421875 44.702880859375 531.8073120117188 46.84521484375Q526.84423828125 48.987548828125 521.13134765625 48.987548828125Q515.41845703125 48.987548828125 510.45538330078125 46.84521484375Q505.4923095703125 44.702880859375 501.70751953125 40.9180908203125Q497.9227294921875 37.13330078125 495.7803955078125 32.134521484375Q493.6380615234375 27.1357421875 493.6380615234375 21.4942626953125Q493.6380615234375 15.7813720703125 495.7803955078125 10.7825927734375Q497.9227294921875 5.7838134765625 501.70751953125 1.9990234375Q505.4923095703125 -1.7857666015625 510.45538330078125 -3.89239501953125Q515.41845703125 -5.9990234375 521.13134765625 -5.9990234375Q526.84423828125 -5.9990234375 531.8073120117188 -3.89239501953125Q536.7703857421875 -1.7857666015625 540.55517578125 1.9990234375Q544.3399658203125 5.7838134765625 546.4822998046875 10.7825927734375Q548.6246337890625 15.7813720703125 548.6246337890625 21.4942626953125Z" fill="#000000" />
<path d="M823.6246337890625 21.4942626953125Q823.6246337890625 27.1357421875 821.4822998046875 32.134521484375Q819.3399658203125 37.13330078125 815.55517578125 40.9180908203125Q811.7703857421875 44.702880859375 806.8073120117188 46.84521484375Q801.84423828125 48.987548828125 796.13134765625 48.987548828125Q790.41845703125 48.987548828125 785.4553833007812 46.84521484375Q780.4923095703125 44.702880859375 776.70751953125 40.9180908203125Q772.9227294921875 37.13330078125 770.7803955078125 32.134521484375Q768.6380615234375 27.1357421875 768.6380615234375 21.4942626953125Q768.6380615234375 15.7813720703125 770.7803955078125 10.7825927734375Q772.9227294921875 5.7838134765625 776.70751953125 1.9990234375Q780.4923095703125 -1.7857666015625 785.4553833007812 -3.89239501953125Q790.41845703125 -5.9990234375 796.13134765625 -5.9990234375Q801.84423828125 -5.9990234375 806.8073120117188 -3.89239501953125Q811.7703857421875 -1.7857666015625 815.55517578125 1.9990234375Q819.3399658203125 5.7838134765625 821.4822998046875 10.7825927734375Q823.6246337890625 15.7813720703125 823.6246337890625 21.4942626953125Z" fill="#000000" />
<path d="M685 639Q692 642 695.5 649.0Q699 656 696 663Q693 670 686.0 673.0Q679 676 672 673Q614 651 564.0 632.0Q514 613 478 599Q469 596 461.5 593.0Q454 590 447 587Q451 593 455.0 598.0Q459 603 462 608Q472 622 480.5 633.5Q489 645 493 653Q496 660 493.5 667.5Q491 675 484 678Q481 680 477 680Q476 680 476 680Q464 679 460 669Q457 663 449.0 652.0Q441 641 433 630Q417 608 402.5 586.5Q388 565 384 549Q380 536 392 529Q396 526 401 526Q408 526 413 530Q414 531 419.0 535.0Q424 539 433 542Q433 542 434 543L460 553Q462 554 465.0 555.0Q468 556 470 557Q507 571 562.5 592.5Q618 614 685 639Z" fill="#000000" />
<path d="M482 643Q489 643 494.5 648.5Q500 654 500 661V772Q500 780 494.5 785.5Q489 791 482 791Q459 791 443.0 807.0Q427 823 427 846Q427 868 443.0 884.5Q459 901 482 901Q499 901 514 890Q526 882 537 891Q543 897 543 905Q543 910 541 914Q533 927 533 941Q533 963 549.5 979.5Q566 996 588 996Q596 996 601.5 1001.0Q607 1006 607 1014Q607 1022 601.5 1027.0Q596 1032 588 1032Q551 1032 524.0 1005.5Q497 979 497 941Q497 939 497 936Q489 937 482 937Q444 937 417.0 910.5Q390 884 390 846Q390 813 411.0 787.5Q432 762 464 756V661Q464 654 469.0 648.5Q474 643 482 643Z" fill="#000000" />
<path d="M659 943Q672 943 676 956Q681 974 695.5 985.0Q710 996 729 996Q736 996 741.5 1001.0Q747 1006 747 1014Q747 1022 741.5 1027.0Q736 1032 729 1032Q686 1032 659 999Q631 1032 588 1032Q581 1032 575.5 1027.0Q570 1022 570 1014Q570 1006 575.5 1001.0Q581 996 588 996Q607 996 621.5 985.0Q636 974 641 956Q645 943 659 943Z" fill="#000000" />
<path d="M835 643Q843 643 848.5 648.5Q854 654 854 661V756Q885 762 906.0 787.5Q927 813 927 846Q927 884 900.0 910.5Q873 937 835 937Q828 937 820 936Q820 938 820 941Q820 979 793.5 1005.5Q767 1032 729 1032Q721 1032 715.5 1027.0Q710 1022 710 1014Q710 1006 715.5 1001.0Q721 996 729 996Q751 996 767.5 979.5Q784 963 784 941Q784 927 776 914Q769 901 780 891Q791 882 803 890Q818 901 835 901Q858 901 874.0 884.5Q890 868 890 846Q890 823 874.0 807.0Q858 791 835 791Q828 791 822.5 785.5Q817 780 817 772V680H482Q474 680 469.0 674.5Q464 669 464 661Q464 654 469.0 648.5Q474 643 482 643Z" fill="#000000" />
</g></svg>