<svg xmlns="http://www.w3.org/2000/svg" viewBox="0 0 2048 2048">
<g transform="matrix(1 0 0 -1 0 2048)">
<path d="M311 -36Q311 -36 309.5 -17.5Q308 1 309.5 30.0Q311 59 320.0 92.0Q329 125 349.0 154.5Q369 184 404.0 202.5Q439 221 494 221Q538 192 577.5 173.5Q617 155 659 155H657Q699 155 738.5 173.5Q778 192 822 221Q877 221 912.5 202.5Q948 184 967.5 154.5Q987 125 996.0 92.0Q1005 59 1006.5 30.0Q1008 1 1006.5 -17.5Q1005 -36 1005 -36Z" fill="#b1cc33" />
<path d="M404.36767578125 219.53533935546875V-37.34405517578125H482.99462890625V219.53533935546875Z" fill="#61b2e4" />
<path d="M816.36767578125 219.53533935546875V-37.34405517578125H894.99462890625V219.53533935546875Z" fill="#61b2e4" />
<path d="M403.794677734375 -6.58013916015625V-38.31304931640625H907.520263671875V-6.58013916015625Z" fill="#61b2e4" />
<path d="M658 129 600 32 493 219Z" fill="#5c9e31" />
<path d="M658.0 129.0 716.0 32.0 823.0 219.0Z" fill="#5c9e31" />
<path d="M819 745V895L657 869L496 895V745Z" fill="#f4aa41" />
<path d="M495.88623046875 807.3153686523438V758.5902709960938H815.52490234375V807.3153686523438Z" fill="#e27022" />
<path d="M1055.130859375 297.8719482421875V220.1326904296875H1155.529296875V297.8719482421875Z" fill="#9b9b9a" />
<path d="M1069 219H1142V48V-17V-36H1069V-17V48Z" fill="#a57939" />
<path d="M178 159Q171 202 183.0 224.0Q195 246 213.5 254.0Q232 262 247.0 262.5Q262 263 262 263Q262 263 264.5 248.5Q267 234 263.5 214.0Q260 194 241.0 178.0Q222 162 178 159Z" fill="#a57939" />
<path d="M1031 346Q1058 346 1062.0 330.5Q1066 315 1059 299Q1059 286 1057.5 270.5Q1056 255 1044.0 244.0Q1032 233 999 233Q980 233 966.0 247.0Q952 261 952 280Q943 263 933.0 270.5Q923 278 905 287Q887 295 883.5 311.0Q880 327 882.5 339.5Q885 352 885 352Q860 310 831.5 293.0Q803 276 777.0 274.5Q751 273 734.0 277.5Q717 282 717 282Q759 298 791.5 334.5Q824 371 843.0 421.0Q862 471 862 529Q862 570 852.5 607.0Q843 644 826 675L827 673L815 636H659H658H654H653H497L486 673V675Q469 644 459.5 607.0Q450 570 450 529Q450 471 469.0 421.0Q488 371 520.5 334.5Q553 298 595 282Q595 282 578.5 277.5Q562 273 536.0 274.5Q510 276 481.0 293.0Q452 310 427 352Q427 352 429.5 339.5Q432 327 428.5 311.0Q425 295 407 287Q389 278 372.5 279.5Q356 281 347 299Q347 279 333.0 265.5Q319 252 300 252Q280 252 266.5 265.5Q253 279 253 299Q253 318 266.5 332.0Q280 346 300 346Q283 356 282.0 373.0Q281 390 292 407Q302 424 317.0 429.0Q332 434 349 424Q328 465 329.0 505.5Q330 546 345.5 582.5Q361 619 384.0 650.0Q407 681 430.0 703.5Q453 726 468.5 738.5Q484 751 484 751H654H658H847Q847 751 865.0 736.0Q883 721 908.5 694.0Q934 667 957 632Q976 602 990.5 570.5Q1005 539 1007.5 504.5Q1010 470 990 433Q999 438 1011.5 431.5Q1024 425 1033.5 411.5Q1043 398 1044.0 380.5Q1045 363 1031 346Z" fill="#a57939" />
<path d="M658 630Q658 630 642.0 630.0Q626 630 602.0 630.0Q578 630 554.0 630.0Q530 630 513.5 630.0Q497 630 497 630Q497 630 496.0 642.5Q495 655 493.5 666.5Q492 678 490 675Q472 643 461.5 604.5Q451 566 451 523Q451 451 479.5 392.5Q508 334 555.0 298.5Q602 263 659 263Q717 263 764.0 298.5Q811 334 839.0 392.5Q867 451 867 523Q867 568 856.0 608.0Q845 648 825 680Q822 684 821.5 671.0Q821 658 820.5 644.0Q820 630 820 630Z" fill="#fadcbc" />
<path d="M768.0570068359375 548.4374389648438Q768.0570068359375 563.8302001953125 757.2820739746094 574.6051330566406Q746.5071411132812 585.3800659179688 731.1143798828125 585.3800659179688Q715.7216186523438 585.3800659179688 704.9466857910156 574.6051330566406Q694.1717529296875 563.8302001953125 694.1717529296875 548.4374389648438Q694.1717529296875 533.044677734375 704.9466857910156 522.2697448730469Q715.7216186523438 511.49481201171875 731.1143798828125 511.49481201171875Q746.5071411132812 511.49481201171875 757.2820739746094 522.2697448730469Q768.0570068359375 533.044677734375 768.0570068359375 548.4374389648438Z" fill="#000000" />
<path d="M622.0570068359375 548.4374389648438Q622.0570068359375 563.8302001953125 611.2820739746094 574.6051330566406Q600.5071411132812 585.3800659179688 585.1143798828125 585.3800659179688Q569.7216186523438 585.3800659179688 558.9466857910156 574.6051330566406Q548.1717529296875 563.8302001953125 548.1717529296875 548.4374389648438Q548.1717529296875 533.044677734375 558.9466857910156 522.2697448730469Q569.7216186523438 511.49481201171875 585.1143798828125 511.49481201171875Q600.5071411132812 511.49481201171875 611.2820739746094 522.2697448730469Q622.0570068359375 533.044677734375 622.0570068359375 548.4374389648438Z" fill="#000000" />
<path d="M658 365Q690 365 721 381Q728 384 730.5 391.0Q733 398 730 405Q726 412 719.0 414.5Q712 417 705 413Q658 390 611 413Q605 417 597.5 414.5Q590 412 587 405Q583 398 585.5 391.0Q588 384 595 381Q626 365 658 365Z" fill="#000000" />
<path d="M509 228Q500 244 484 235Q476 230 474 224Q473 218 477 210L584 23Q593 7 609 16Q613 19 615 23L674 120Q683 136 668 145Q652 154 643 139L600 68Z" fill="#000000" />
<path d="M839 210Q848 226 832 235Q816 244 807 228L716 68L674 139Q664 154 649 145Q633 136 643 120L701 23Q704 19 708 16Q724 7 733 23Z" fill="#000000" />
<path d="M987 -15Q985 -33 1003 -36Q1021 -38 1024 -20Q1033 43 1014 107Q973 239 822 239Q817 239 812 236Q718 174 658 173Q598 174 505 236Q500 239 494 239Q343 239 303 107Q283 44 293 -20Q296 -38 314 -36Q332 -33 329 -15Q321 41 338 96Q370 200 489 202Q587 138 655 137Q656 137 657 137H659Q660 137 661 137Q730 138 828 202Q947 200 979 96Q996 41 987 -15Z" fill="#000000" />
<path d="M422 203Q422 222 404 222Q386 222 386 203V-20Q386 -39 404 -39Q422 -39 422 -20Z" fill="#000000" />
<path d="M926 203Q926 222 908 222Q890 222 890 203V-20Q890 -39 908 -39Q926 -39 926 -20Z" fill="#000000" />
<path d="M516 216Q516 235 498 235Q480 235 480 216V-20Q480 -39 498 -39L818 -38Q836 -38 836 -20V217Q836 235 818 235Q800 235 800 217V-2H516Z" fill="#000000" />
<path d="M290 324Q306 314 315 330Q325 345 310 355Q292 367 307 391Q315 403 323 405Q330 408 339 402Q355 392 365 408Q370 415 368 422Q367 428 359 433Q335 448 312 440Q291 434 276 411Q241 355 290 324Z" fill="#000000" />
<path d="M365 293Q365 311 347 311Q329 311 329 293Q329 264 300 264Q288 264 280 272Q271 281 271 293Q271 305 280 313Q288 321 300 321Q318 321 318 340Q318 358 300 358Q234 358 234 293Q234 227 300 227Q365 227 365 293Z" fill="#000000" />
<path d="M179 135Q265 140 281 203Q289 234 279 263Q275 274 264 275Q233 279 205 265Q147 235 160 150Q163 134 179 135ZM194 173Q192 217 221 232Q234 238 247 239Q249 226 246 212Q238 181 194 173Z" fill="#000000" />
<path d="M444 351Q441 360 436 363Q430 366 421 363Q404 357 410 340Q420 308 399 297Q372 284 363 301Q355 317 338 309Q330 304 328 298Q326 292 331 284Q357 235 415 264Q466 289 444 351Z" fill="#000000" />
<path d="M478 745Q478 726 496 726Q514 726 514 745V874L654 851Q657 851 660 851L800 874V745Q800 726 818 726Q837 726 837 745V895Q837 897 836 898Q833 916 815 913L657 888L499 913Q498 913 496 913Q478 913 478 895Z" fill="#000000" />
<path d="M496 827Q478 827 478 809Q478 791 496 791H819Q837 791 837 809Q837 827 819 827Z" fill="#000000" />
<path d="M494 730Q509 741 499 756Q488 770 473 760Q416 718 370 655Q274 523 333 409Q341 393 358 401Q366 405 368 412Q370 418 365 426Q317 520 399 633Q442 692 494 730Z" fill="#000000" />
<path d="M983 293Q983 311 965 311Q947 311 947 293Q947 261 971 242Q985 230 997 244Q1008 259 994 270Q983 279 983 293Z" fill="#000000" />
<path d="M902 340Q908 357 891 363Q874 369 868 351Q847 289 897 264Q955 235 981 284Q990 300 974 309Q958 317 949 301Q940 284 913 297Q892 308 902 340Z" fill="#000000" />
<path d="M839 760Q824 770 814 756Q808 748 809 742Q810 735 818 730Q870 692 912 634Q923 619 938 630Q945 636 946 642Q947 648 942 656Q896 718 839 760Z" fill="#000000" />
<path d="M992 582Q995 600 977 603Q968 604 963 601Q957 597 956 588Q945 514 956 440Q980 283 1103 279Q1122 279 1122 297Q1122 298 1122 298V585Q1122 603 1104 603Q1086 603 1086 585V318Q1009 332 992 446Q982 514 992 582Z" fill="#000000" />
<path d="M1252 588Q1251 597 1246 600Q1241 604 1231 603Q1213 600 1216 582Q1227 514 1216 446Q1199 332 1123 318V585Q1123 603 1104 603Q1086 603 1086 585V298Q1086 297 1086 297Q1087 279 1105 279Q1229 283 1252 440Q1264 514 1252 588Z" fill="#000000" />
<path d="M1037 220Q1037 202 1056 202H1156Q1175 202 1175 220V298Q1175 316 1156 316H1056Q1037 316 1037 298ZM1074 279H1138V238H1074Z" fill="#000000" />
<path d="M1124 -17Q1124 -36 1142 -36Q1161 -36 1161 -17V219Q1161 238 1142 238H1069Q1051 238 1051 219V-17Q1051 -36 1069 -36Q1087 -36 1087 -17V201H1124Z" fill="#000000" />
<path d="M355 763Q337 763 337 745Q337 726 355 726H953Q971 726 971 745Q971 763 953 763Z" fill="#000000" />
<path d="M505 667Q507 678 495 685Q480 693 472 680Q468 677 467 672Q432 604 432 523Q432 409 497 328Q563 245 658 245Q753 245 820 328Q884 409 884 523Q884 602 852 668L848 682Q845 691 840 694Q834 698 825 695Q814 692 812 681L805 648H511ZM833 616Q848 572 848 523Q848 422 791 351Q736 282 658 282Q581 282 526 351Q469 422 469 523Q469 573 483 617Q488 611 497 611H820Q829 611 833 616Z" fill="#000000" />
</g></svg>