<svg xmlns="http://www.w3.org/2000/svg" viewBox="0 0 2048 2048">
<g transform="matrix(1 0 0 -1 0 2048)">
<path d="M91.5877685546875 733.1798706054688V36.51513671875H1228.2723388671875V733.1798706054688Z" fill="#5c9e31" />
<path d="M1210 385 92 733V37Z" fill="#fcea2b" />
<path d="M1215 367Q1225 370 1228 380Q1230 388 1227 394Q1224 400 1215 403L97 751Q94 752 92 752Q73 752 73 733V37Q73 34 74 31Q80 14 97 19ZM1148 385 110 62V708Z" fill="#ffffff" />
<path d="M477 385 92 733V37Z" fill="#d22f27" />
<path d="M489 371Q490 372 490 373Q503 386 489 399L104 747Q99 752 92 752Q73 752 73 733V37Q73 30 78 24Q84 18 91 17Q97 17 104 23ZM449 385 110 78V692Z" fill="#000000" />
<path d="M73 37Q73 18 92 18H1228Q1247 18 1247 37V733Q1247 752 1228 752H92Q73 752 73 733ZM110 715H1210V55H110Z" fill="#000000" />
</g></svg>