<svg xmlns="http://www.w3.org/2000/svg" viewBox="0 0 2048 2048">
<g transform="matrix(1 0 0 -1 0 2048)">
<path d="M671.36083984375 877.81982421875Q671.36083984375 888.58203125 667.27392578125 898.1181640625Q663.18701171875 907.654296875 655.966796875 914.87451171875Q648.74658203125 922.0947265625 639.278564453125 926.181640625Q629.810546875 930.2685546875 618.912109375 930.2685546875Q608.013671875 930.2685546875 598.545654296875 926.181640625Q589.07763671875 922.0947265625 581.857421875 914.87451171875Q574.63720703125 907.654296875 570.55029296875 898.1181640625Q566.46337890625 888.58203125 566.46337890625 877.81982421875Q566.46337890625 866.92138671875 570.55029296875 857.38525390625Q574.63720703125 847.84912109375 581.857421875 840.62890625Q589.07763671875 833.40869140625 598.545654296875 829.389892578125Q608.013671875 825.37109375 618.912109375 825.37109375Q629.810546875 825.37109375 639.278564453125 829.389892578125Q648.74658203125 833.40869140625 655.966796875 840.62890625Q663.18701171875 847.84912109375 667.27392578125 857.38525390625Q671.36083984375 866.92138671875 671.36083984375 877.81982421875Z" fill="#debb90" />
<path d="M517 723 498 679 475 668 384 682 360 717V908L398 887Q401 830 400.0 787.0Q399 744 405 733Q413 723 438.5 719.5Q464 716 517 723Z" fill="#debb90" />
<path d="M377 889Q378 875 389.0 848.5Q400 822 413.5 796.5Q427 771 437 759Q447 748 463.0 740.5Q479 733 494.5 728.0Q510 723 517 721L479 600L444 443L426 216V-99H479L514 198L531 373H549L584 181L689 -99H741L671 181L654 425L636 495L654 688L636 740L461 792L426 880Z" fill="#debb90" />
<path d="M820 833Q802 837 799 819Q797 810 801 804Q804 799 813 797L919 777L933 734Q934 733 934 732Q937 727 936 726Q936 726 935 725Q923 723 916 746Q913 755 907 757Q901 760 892 757Q875 752 881 734Q898 682 941 689Q961 693 969 710Q977 727 968 747L951 798Q947 808 937 810Z" fill="#000000" />
<path d="M308 933Q290 936 286 918Q283 900 301 897L493 860Q511 857 514 875Q518 893 500 896Z" fill="#000000" />
<path d="M531 699Q537 717 520 722Q502 728 496 711L472 639Q472 639 472 639L462 605L453 572Q452 571 452 571L433 482Q433 481 433 481Q424 433 422 411L410 254Q406 215 406 183V-62Q406 -115 451 -115Q453 -115 454 -115Q498 -107 499 -63L525 163L529 198L532 233L539 308L557 212Q564 177 577 143L657 -72Q671 -109 709 -117Q711 -117 713 -117Q735 -117 745 -97Q754 -81 748 -61L696 150Q688 182 686 215L674 390Q671 420 663 459Q663 461 663 463Q656 494 658 525L668 648Q672 682 663 715Q662 717 661 719Q644 752 609 764Q609 764 608 765L500 798Q476 807 464 830L444 886Q441 895 435 897Q429 900 420 897Q403 891 409 874L430 816Q431 815 431 814Q450 777 488 763Q489 763 489 763L597 730Q618 723 628 704Q634 678 632 651L621 528Q619 492 627 457Q627 455 627 453Q635 415 637 387L649 213Q652 177 660 141L713 -70Q713 -70 713 -71Q715 -77 713 -80Q697 -75 692 -59L611 156Q599 187 593 219L570 343Q561 393 537 393Q511 393 506 342L496 237L492 202L489 167L462 -60Q462 -61 462 -62Q462 -75 450 -79Q443 -77 443 -62V183Q443 213 446 251L459 408Q460 428 469 474L488 563L497 595L507 628Z" fill="#000000" />
<path d="M692 878Q692 915 674 933Q655 951 619 951Q588 951 567 930Q545 908 545 878Q545 848 567 826Q588 805 619 805Q692 805 692 878ZM655 878Q655 841 619 841Q603 841 593 852Q582 863 582 878Q582 893 593 904Q603 915 619 915Q637 915 646 906Q655 896 655 878Z" fill="#000000" />
<path d="M494 652Q512 650 515 668Q517 686 499 688L411 699Q376 704 375 740V897Q375 916 357 916Q338 916 338 897V740Q338 740 338 740Q340 673 406 662Q406 662 407 662Z" fill="#000000" />
<path d="M686.38330078125 909.79443359375Q677.79052734375 907.308349609375 673.7536010742188 901.949951171875Q670.7002563476562 896.4105224609375 673.1863403320312 887.8177490234375Q677.9774780273438 869.6486206054688 695.1630249023438 874.6207885742188Q695.603515625 871.489013671875 697.2870483398438 864.0608520507812Q701.7161254882812 843.924560546875 707.1529541015625 834.7886962890625Q720.2532348632812 812.03955078125 745.7237548828125 801.250244140625Q762.8851318359375 795.0409545898438 770.0780029296875 812.0213012695312Q772.6908569335938 820.6925048828125 770.645263671875 826.1535034179688Q767.6160888671875 831.7955322265625 759.1259155273438 835.3919677734375Q745.8988647460938 840.8771362304688 738.2354125976562 854.4904174804688Q736.8113403320312 857.80322265625 733.2632446289062 871.6759643554688Q728.0316162109375 892.9768676757812 722.2327270507812 900.1455688476562Q708.8488159179688 915.82861328125 686.38330078125 909.79443359375ZM694.54150390625 876.7689819335938Q694.54150390625 876.7689819335938 694.54150390625 876.7689819335938Z" fill="#000000" />
</g></svg>