<svg xmlns="http://www.w3.org/2000/svg" viewBox="0 0 2048 2048">
<g transform="matrix(1 0 0 -1 0 2048)">
<path d="M858 477Q858 548 831.0 606.0Q804 664 758.0 698.5Q712 733 657 733Q601 733 555.0 698.5Q509 664 482.0 606.0Q455 548 455 477Q455 406 482.0 347.5Q509 289 555.0 254.5Q601 220 657 220Q712 220 758.0 254.5Q804 289 831.0 347.5Q858 406 858 477Z" fill="#debb90" />
<path d="M1008 -73V0Q1008 46 981.5 83.5Q955 121 913.0 143.0Q871 165 825 165Q660 27 495 165Q449 165 407.0 143.0Q365 121 338.5 83.5Q312 46 312 0V-73Z" fill="#92d3f5" />
<path d="M293 -53Q293 -71 312 -71Q330 -71 330 -53V2Q330 61 381 105Q429 146 489 149Q660 10 831 149Q891 146 939 105Q990 61 990 2V-53Q990 -71 1008 -71Q1027 -71 1027 -53V2Q1027 78 963 133Q902 185 825 185Q818 185 813 181Q660 53 507 181Q502 185 495 185Q418 185 357 133Q293 78 293 2Z" fill="#000000" />
<path d="M766 497Q766 512 755.5 523.0Q745 534 730 534Q715 534 704.0 523.0Q693 512 693 497Q693 482 704.0 471.0Q715 460 730 460Q745 460 755.5 471.0Q766 482 766 497Z" fill="#000000" />
<path d="M620 497Q620 512 610.0 523.0Q600 534 583 534Q568 534 557.0 523.0Q546 512 546 497Q546 482 557.0 471.0Q568 460 583 460Q598 460 609.0 471.0Q620 482 620 497Z" fill="#000000" />
<path d="M610 363Q594 371 585 355Q577 339 593 330Q656 297 720 330Q736 339 728 355Q719 371 703 363Q656 338 610 363Z" fill="#000000" />
<path d="M660 202Q751 202 816 282Q880 362 880 477Q880 594 822 671Q817 678 805 689Q805 690 804 690Q742 746 660 746Q578 746 516 690Q515 690 515 689Q512 686 507 680Q503 675 500 673Q500 672 499 671Q440 595 440 477Q440 362 504 282Q569 202 660 202ZM787 305Q734 238 660 238Q586 238 533 305Q477 375 477 477Q477 582 527 648Q530 651 535 657Q539 661 541 663Q592 710 660 710Q728 710 779 663Q789 654 791 650Q792 649 792 649Q843 582 843 477Q843 375 787 305Z" fill="#000000" />
</g></svg>