<svg xmlns="http://www.w3.org/2000/svg" viewBox="0 0 2048 2048">
<g transform="matrix(1 0 0 -1 0 2048)">
<path d="M990 147Q999 129 1007.0 110.0Q1015 91 1023 73Q1025 67 1026.5 54.5Q1028 42 1023 37Q1016 30 998.5 15.0Q981 0 961.0 -16.0Q941 -32 927.0 -43.5Q913 -55 913 -55L876 -37L950 55Q950 62 937.5 81.0Q925 100 907.0 124.5Q889 149 873 173Q840 158 800.5 140.5Q761 123 727.5 109.0Q694 95 678 92Q662 88 634.5 84.5Q607 81 579.0 78.5Q551 76 532.0 74.5Q513 73 513 73Q507 60 492.0 44.0Q477 28 461.0 12.5Q445 -3 433.5 -16.0Q422 -29 422 -37Q422 -44 435.5 -53.0Q449 -62 467.5 -71.0Q486 -80 499.5 -86.0Q513 -92 513 -92L495 -147Q495 -147 478.0 -140.5Q461 -134 435.5 -123.5Q410 -113 386.0 -100.0Q362 -87 348 -73Q344 -68 342.0 -52.0Q340 -36 348 -18Q358 0 371.0 26.0Q384 52 393.5 72.0Q403 92 403 92Q403 92 386.5 99.5Q370 107 348 128Q339 138 335.5 161.5Q332 185 331.5 211.5Q331 238 330 257Q329 269 323.5 293.0Q318 317 311.0 342.5Q304 368 298.5 385.5Q293 403 293 403Q293 403 272.0 402.5Q251 402 217.0 398.0Q183 394 147 385Q140 383 129.5 391.0Q119 399 112.0 408.5Q105 418 110 422Q144 449 165.5 469.5Q187 490 202.0 505.5Q217 521 232.0 534.5Q247 548 269 563L277 631L342 568Q345 565 361.5 548.0Q378 531 401.5 508.5Q425 486 448.5 463.5Q472 441 490.0 425.5Q508 410 513 409Q547 400 594.0 408.0Q641 416 706.0 428.5Q771 441 859 446Q889 448 918.5 438.0Q948 428 972 422Q1008 412 1028.0 387.0Q1048 362 1055.5 335.0Q1063 308 1063 293Q1063 273 1049.5 252.5Q1036 232 1019.5 213.0Q1003 194 993.0 177.0Q983 160 990 147Z" fill="#a57939" />
<path d="M940 53 886 -3V-50L909 -53L865 -144L788 -165Q788 -165 791.5 -148.5Q795 -132 800.5 -107.5Q806 -83 812.5 -58.5Q819 -34 825 -18Q831 -3 840.0 24.0Q849 51 858.5 79.5Q868 108 874.0 127.5Q880 147 880 147Z" fill="#6a462f" />
<path d="M1066 326Q1066 326 1075.0 325.5Q1084 325 1094.5 320.5Q1105 316 1108 306Q1113 292 1106.5 275.0Q1100 258 1091.5 236.0Q1083 214 1080.5 185.5Q1078 157 1090 118Q1099 90 1114.0 73.5Q1129 57 1140.5 50.5Q1152 44 1152 44Q1171 38 1179.5 43.0Q1188 48 1189.5 57.0Q1191 66 1190.0 73.5Q1189 81 1189 81Q1155 115 1146.0 142.5Q1137 170 1142.0 192.5Q1147 215 1157.5 235.0Q1168 255 1173 275Q1180 302 1164.5 325.5Q1149 349 1125.0 366.5Q1101 384 1082.0 393.5Q1063 403 1063 403H1027Z" fill="#6a462f" />
<path d="M330 128Q330 128 316.0 119.5Q302 111 282.0 98.5Q262 86 244.5 74.0Q227 62 220 55Q206 41 204.0 26.0Q202 11 202 0Q202 -5 205.5 -23.5Q209 -42 214.5 -66.0Q220 -90 225.5 -112.5Q231 -135 234.5 -150.0Q238 -165 238 -165L275 -147Q275 -147 278.0 -131.5Q281 -116 285.0 -93.5Q289 -71 291.0 -49.0Q293 -27 292 -14Q291 -6 301.0 2.0Q311 10 325.5 17.0Q340 24 353.0 29.0Q366 34 370 36L390 89Z" fill="#6a462f" />
<path d="M451.78228759765625 650.5266723632812Q451.78228759765625 661.69873046875 447.53973388671875 671.5980224609375Q443.29718017578125 681.497314453125 435.802001953125 688.9924926757812Q428.30682373046875 696.4876708984375 418.4782409667969 700.730224609375Q408.649658203125 704.9727783203125 397.336181640625 704.9727783203125Q386.022705078125 704.9727783203125 376.1941223144531 700.730224609375Q366.36553955078125 696.4876708984375 358.870361328125 688.9924926757812Q351.37518310546875 681.497314453125 347.13262939453125 671.5980224609375Q342.89007568359375 661.69873046875 342.89007568359375 650.5266723632812Q342.89007568359375 639.2131958007812 347.13262939453125 629.3139038085938Q351.37518310546875 619.4146118164062 358.870361328125 611.91943359375Q366.36553955078125 604.4242553710938 376.1941223144531 600.2524108886719Q386.022705078125 596.08056640625 397.336181640625 596.08056640625Q408.649658203125 596.08056640625 418.4782409667969 600.2524108886719Q428.30682373046875 604.4242553710938 435.802001953125 611.91943359375Q443.29718017578125 619.4146118164062 447.53973388671875 629.3139038085938Q451.78228759765625 639.2131958007812 451.78228759765625 650.5266723632812Z" fill="#c19a65" />
<path d="M609 588Q612 581 612.0 579.5Q612 578 613.0 571.5Q614 565 620 543Q617 519 604.5 504.0Q592 489 565 482Q545 477 520.5 476.0Q496 475 469 477Q455 478 449.0 497.0Q443 516 449 527L550 536L495 615L521 661L796 664L836 592Q853 555 829.0 524.0Q805 493 755.5 467.0Q706 441 644 417L642 284L578 271L572 443L576 480L728 568Z" fill="#c19a65" />
<path d="M469 663Q469 736 396 736Q323 736 323 663Q323 633 345 612Q366 591 396 591Q426 591 447 612Q469 633 469 663ZM432 663Q432 649 422 638Q411 627 396 627Q360 627 360 663Q360 700 396 700Q432 700 432 663Z" fill="#000000" />
<path d="M465 539Q447 539 447 521Q447 502 465 503Q474 503 492 502Q538 501 552 507Q572 514 574 532Q576 546 563 565Q563 566 562 566Q549 582 531 599Q520 610 521 637Q532 660 549 660Q623 662 765 634Q774 633 779 631Q802 624 810 609Q823 587 821 569Q821 569 821 568Q819 540 811 530Q789 500 694 465Q645 446 633 436Q627 431 627 423L623 333Q620 288 610 287Q600 286 596 292Q590 301 590 321Q587 414 587 428Q587 450 609 471Q612 474 616 477Q618 479 630 485Q635 487 639 489L726 528Q728 529 730 531Q757 553 753 572Q749 588 724 595Q708 600 627 608Q618 609 613 604Q608 600 607 591Q606 573 624 571Q689 565 709 561Q709 561 708 561L624 522Q620 521 615 518Q597 510 590 503Q587 500 584 498Q550 466 550 428Q550 413 553 320Q554 290 565 273Q581 247 614 250Q655 254 659 331L663 412Q675 418 707 430Q811 470 840 507Q855 527 858 566Q860 596 842 627Q826 655 790 667Q789 667 787 667Q782 668 772 670Q626 699 549 697Q506 696 486 649Q485 646 485 643Q481 596 506 572Q522 557 533 544Q535 542 535 540Q524 538 493 539Q474 539 465 539Z" fill="#000000" />
<path d="M482 390Q495 377 508 390Q521 403 508 416Q502 423 478 452Q427 515 398 545Q379 564 343 583L309 634Q304 641 297 642Q291 644 283 639Q268 628 278 613L315 558Q317 554 322 552Q356 535 372 519Q400 491 449 430Q474 398 482 390Z" fill="#000000" />
<path d="M861 306Q867 323 849 329Q832 335 826 317Q805 255 827 212Q838 191 883 126Q921 74 929 60L886 14Q859 -5 859 -26Q860 -73 913 -73H916Q921 -72 925 -69Q1052 42 1044 62Q1042 67 1036 82Q1016 136 1006 155Q1002 163 1035 203Q1082 260 1082 293Q1082 331 1061 370Q1032 425 976 439Q930 451 861 446Q852 446 848 441Q844 436 844 427Q845 409 864 410Q927 414 967 404Q1007 394 1029 353Q1045 322 1045 293Q1045 273 1007 226Q959 168 974 138Q982 122 1002 69Q1004 62 1006 57Q1003 53 997 47Q983 33 959 11Q933 -13 907 -36Q896 -34 896 -25Q896 -23 908 -15Q910 -14 912 -12L963 43Q968 48 968 55Q968 71 913 147Q869 210 860 228Q845 258 861 306Z" fill="#000000" />
<path d="M433 -145Q441 -149 447 -146Q453 -144 457 -135Q464 -119 447 -111Q387 -86 361 -60Q352 -51 365 -27L420 83Q428 100 412 108Q410 109 409 109Q387 116 361 141Q352 151 349 233Q349 250 348 258Q346 293 311 409Q307 422 293 422Q218 422 142 403L143 404Q138 407 133 412Q131 413 130 414Q215 482 267 516Q282 527 272 542Q267 549 260 551Q254 552 246 547Q191 510 99 436Q84 424 93 404Q98 395 107 386Q132 362 151 367Q215 383 280 385Q310 285 312 256Q312 249 313 232Q315 135 335 115Q357 94 378 82L332 -10Q308 -59 335 -86Q366 -117 433 -145Z" fill="#000000" />
<path d="M489 -60Q476 -47 463 -61Q451 -74 464 -87L487 -108Q490 -112 490 -117Q490 -122 487 -126Q477 -136 471 -131L452 -114Q445 -108 439 -109Q432 -109 426 -116Q414 -130 428 -142L447 -159Q479 -186 513 -151Q527 -137 527 -116Q527 -96 512 -81Z" fill="#000000" />
<path d="M869 148Q886 156 878 173Q871 189 854 182Q720 121 674 109Q631 99 512 92Q505 91 500 86Q425 11 405 -28Q399 -42 410 -51Q442 -77 469 -90Q485 -98 493 -81Q501 -65 485 -57Q467 -48 445 -32Q466 0 521 55Q638 63 683 74Q732 86 869 148Z" fill="#000000" />
<path d="M897 141Q903 159 886 164Q868 170 863 152Q823 28 808 -12Q805 -19 801 -32Q791 -59 780 -83Q764 -118 762 -125Q748 -177 792 -192Q834 -206 858 -159L877 -120Q885 -103 869 -95Q852 -87 844 -104L825 -142Q816 -161 803 -157Q792 -153 798 -135Q799 -131 813 -98Q825 -72 835 -44Q839 -32 842 -25Q858 16 897 141Z" fill="#000000" />
<path d="M293 -92Q293 -73 275 -73Q257 -73 257 -92V-128Q257 -147 248 -147Q238 -147 238 -136V-92Q238 -74 220 -74Q202 -74 202 -92V-136Q202 -183 248 -183Q293 -183 293 -128Z" fill="#000000" />
<path d="M339 113Q355 122 346 138Q341 146 335 147Q328 149 321 144Q227 88 207 68Q183 44 183 0Q183 -17 202 -97Q204 -106 210 -109Q215 -112 224 -110Q242 -106 238 -88Q220 -13 220 0Q220 29 233 42Q250 59 339 113Z" fill="#000000" />
<path d="M1021 421Q1002 421 1002 403Q1003 384 1021 384L1060 385Q1170 337 1156 279Q1153 268 1139 243Q1112 195 1111 164Q1109 112 1160 60Q1173 47 1186 60Q1199 73 1186 86Q1146 126 1148 163Q1149 185 1171 225Q1187 255 1191 271Q1205 328 1136 381Q1105 406 1071 420Q1067 422 1063 422Z" fill="#000000" />
<path d="M294 -18Q294 0 275 0Q257 0 257 -18V-92Q257 -110 275 -110Q294 -110 294 -92Z" fill="#000000" />
</g></svg>