<svg xmlns="http://www.w3.org/2000/svg" viewBox="0 0 2048 2048">
<g transform="matrix(1 0 0 -1 0 2048)">
<path d="M91.5877685546875 733.1798706054688V36.51513671875H1228.2723388671875V733.1798706054688Z" fill="#d22f27" />
<path d="M91.375 733.1798706054688V36.51513671875H476.375V733.1798706054688Z" fill="#5c9e31" />
<path d="M843.375 733.1798706054688V36.51513671875H1228.375V733.1798706054688Z" fill="#f1b31c" />
<path d="M615 312 733 402H587L705 312L660 458Z" fill="#f1b31c" />
<path d="M606 314Q605 310 607 306Q613 299 620 304L660 335L700 304Q704 302 708 303Q712 304 714 307Q715 310 714 314L699 364L739 395Q743 398 743 402Q743 411 733 411H684L669 461Q667 466 663 467Q654 470 651 461L636 411H587Q582 411 579 408Q577 404 577 401Q577 398 581 395L621 364ZM660 358 643 371 649 393H671L677 371ZM630 393 627 383 614 393ZM693 383 690 393H706ZM637 352 645 346 632 336ZM675 346 683 352 688 336ZM665 411H655L660 427Z" fill="#f1b31c" />
<path d="M73 37Q73 18 92 18H1228Q1247 18 1247 37V733Q1247 752 1228 752H92Q73 752 73 733ZM110 715H1210V55H110Z" fill="#000000" />
</g></svg>