<svg xmlns="http://www.w3.org/2000/svg" viewBox="0 0 2048 2048">
<g transform="matrix(1 0 0 -1 0 2048)">
<path d="M440 513Q394 513 362 481Q330 449 330 403V110Q330 64 362 32Q394 0 440 0H880Q926 0 958 32Q990 64 990 110V403Q990 449 958 481Q926 513 880 513ZM440 477H880Q953 477 953 403V110Q953 37 880 37H440Q367 37 367 110V403Q367 477 440 477Z" fill="#000000" />
<path d="M348 697Q341 697 335.5 691.5Q330 686 330 678V633Q330 613 327.0 599.5Q324 586 320 576Q316 566 310.0 558.0Q304 550 298 542Q296 540 294 538Q288 531 282.0 523.0Q276 515 270 506Q264 495 260.5 481.0Q257 467 257 449V110Q257 59 281.5 17.5Q306 -24 347.5 -48.5Q389 -73 440 -73H880Q931 -73 972.5 -48.5Q1014 -24 1038.5 17.5Q1063 59 1063 110V449Q1063 467 1059.5 481.0Q1056 495 1050 506Q1044 515 1038.0 523.0Q1032 531 1026 538Q1023 541 1022 542Q1016 550 1010.0 558.0Q1004 566 1000 576Q996 586 993.0 599.5Q990 613 990 633V678Q990 686 984.5 691.5Q979 697 972 697Z" fill="#ffffff" />
<path d="M440 513Q394 513 362.0 481.0Q330 449 330 403V110Q330 64 362.0 32.0Q394 0 440 0H880Q926 0 958.0 32.0Q990 64 990 110V403Q990 449 958.0 481.0Q926 513 880 513Z" fill="#61b2e4" />
<path d="M440 0H752Q797 0 829.5 32.0Q862 64 862 110V403Q862 449 829.5 481.0Q797 513 752 513H440Q394 513 362.0 481.0Q330 449 330 403V110Q330 64 362.0 32.0Q394 0 440 0Z" fill="#92d3f5" />
<path d="M422 110Q422 92 440 92Q458 92 458 110V443Q458 477 473 511Q495 562 495 623Q495 642 477 642Q458 642 458 623Q458 569 440 526Q422 485 422 443Z" fill="#ffffff" />
<path d="M990 825Q998 825 1003.0 819.5Q1008 814 1008 807V697Q1008 689 1003.0 683.5Q998 678 990 678H981H330Q322 678 317.0 683.5Q312 689 312 697V807Q312 814 317.0 819.5Q322 825 330 825Z" fill="#d0cfce" />
<path d="M660 -37Q642 -37 642 -55Q642 -73 660 -73H880Q956 -73 1010 -20Q1063 34 1063 110V449Q1063 494 1026 538Q990 580 990 633Q990 651 972 651Q953 651 953 633Q953 567 998 514Q1027 481 1027 449V110Q1027 49 984 6Q941 -37 880 -37Z" fill="#000000" />
<path d="M660 -73Q678 -73 678 -55Q678 -37 660 -37H440Q379 -37 336 6Q293 49 293 110V449Q293 481 322 514Q367 567 367 633Q367 651 348 651Q330 651 330 633Q330 580 294 538Q257 494 257 449V110Q257 34 310 -20Q364 -73 440 -73Z" fill="#000000" />
<path d="M990 843H330Q293 843 293 807V697Q293 660 330 660H990Q1027 660 1027 697V807Q1027 843 990 843ZM990 807V697H330V807Z" fill="#000000" />
</g></svg>