<svg xmlns="http://www.w3.org/2000/svg" viewBox="0 0 2048 2048">
<g transform="matrix(1 0 0 -1 0 2048)">
<path d="M91.5877685546875 733.1798706054688V36.51513671875H1228.2723388671875V733.1798706054688Z" fill="#1e50a0" />
<path d="M91.5877685546875 495.00164794921875V274.94873046875H1228.2723388671875V495.00164794921875Z" fill="#ffffff" />
<path d="M733 385Q733 394 724 394Q715 394 715 385Q715 330 660 330Q605 330 605 385Q605 394 596 394Q587 394 587 385Q587 312 660 312Q733 312 733 385Z" fill="#186648" />
<path d="M752 385Q752 423 725 450Q698 477 660 477Q622 477 595 450Q568 423 568 385Q568 347 595 320Q622 293 660 293Q698 293 725 320Q752 347 752 385ZM733 385Q733 312 660 312Q587 312 587 385Q587 458 660 458Q733 458 733 385Z" fill="#fcea2b" />
<path d="M660 422 697 367H623Z" fill="#fcea2b" />
<path d="M645 432 608 377Q598 362 613 351Q618 348 623 348H697Q715 348 715 367Q715 372 712 377L675 432Q665 447 650 437Q647 435 645 432ZM660 389 662 385H658Z" fill="#fcea2b" />
<path d="M73 37Q73 18 92 18H1228Q1247 18 1247 37V733Q1247 752 1228 752H92Q73 752 73 733ZM110 715H1210V55H110Z" fill="#000000" />
</g></svg>