<svg xmlns="http://www.w3.org/2000/svg" viewBox="0 0 2048 2048">
<g transform="matrix(1 0 0 -1 0 2048)">
<path d="M685.0615234375 848.19287109375Q685.0615234375 859.53515625 680.75927734375 869.508544921875Q676.45703125 879.48193359375 668.8955078125 887.04345703125Q661.333984375 894.60498046875 651.360595703125 898.9072265625Q641.38720703125 903.20947265625 630.044921875 903.20947265625Q618.70263671875 903.20947265625 608.729248046875 898.9072265625Q598.755859375 894.60498046875 591.1943359375 887.04345703125Q583.6328125 879.48193359375 579.33056640625 869.508544921875Q575.0283203125 859.53515625 575.0283203125 848.19287109375Q575.0283203125 836.8505859375 579.33056640625 826.877197265625Q583.6328125 816.90380859375 591.1943359375 809.34228515625Q598.755859375 801.78076171875 608.729248046875 797.478515625Q618.70263671875 793.17626953125 630.044921875 793.17626953125Q641.38720703125 793.17626953125 651.360595703125 797.478515625Q661.333984375 801.78076171875 668.8955078125 809.34228515625Q676.45703125 816.90380859375 680.75927734375 826.877197265625Q685.0615234375 836.8505859375 685.0615234375 848.19287109375Z" fill="#a57939" />
<path d="M572 688 610 736 702 694 716 214 841 -60 778 -76 617 184 550 -93 513 -133 482 -96Z" fill="#a57939" />
<path d="M699 849Q699 878 679 898Q660 918 631 918Q564 918 564 849Q564 781 631 781Q699 781 699 849ZM663 849Q663 818 631 818Q600 818 600 849Q600 881 631 881Q663 881 663 849Z" fill="#000000" />
<path d="M464 -94Q462 -115 474 -131Q487 -148 508 -148Q550 -148 562 -102L653 232Q661 261 678 286L714 338Q737 370 735 410L726 580L721 669Q719 703 693 728Q667 753 633 753H632Q598 753 571 728Q544 704 540 670L531 587ZM501 -98 568 583 577 666Q582 716 632 716H633Q682 716 685 667L690 578L698 408Q699 381 684 359L648 307Q627 277 617 242L527 -92Q522 -111 508 -111Q505 -111 503 -109Q500 -105 501 -98Z" fill="#000000" />
<path d="M718 353Q716 371 697 368Q679 365 682 347L712 156Q718 120 737 88L817 -44Q825 -57 815 -64Q804 -71 795 -58L708 60Q690 85 679 114L642 208Q636 225 619 218Q602 211 608 194L645 100Q658 67 679 38L766 -80Q796 -121 835 -95Q874 -68 848 -25L768 107Q753 132 749 162Z" fill="#000000" />
<path d="M653 652Q653 661 648 665Q644 670 635 670Q616 670 616 651L617 548Q618 517 610 487L563 293Q559 275 577 271Q595 267 599 284L646 478Q654 512 654 548Z" fill="#000000" />
<path d="M685 898Q677 893 675 887Q674 881 678 873Q687 857 703 866Q704 863 708 857Q717 838 724 832Q744 813 771 809Q789 807 791 825Q793 844 775 846Q760 847 750 858Q747 861 740 874Q730 893 722 898Q705 910 685 898ZM701 868Q701 868 701 868Z" fill="#000000" />
</g></svg>