<svg xmlns="http://www.w3.org/2000/svg" viewBox="0 0 2048 2048">
<g transform="matrix(1 0 0 -1 0 2048)">
<path d="M872 -73V113Q847 145 813 165Q795 172 773.0 171.0Q751 170 732 170Q567 32 402 170Q357 170 315.0 147.5Q273 125 246.0 88.0Q219 51 219 5V-73Z" fill="#92d3f5" />
<path d="M879 -72V231Q879 255 904.0 281.5Q929 308 971 322Q998 331 1024.0 331.0Q1050 331 1070.0 331.0Q1090 331 1099 341L1154 396Q1162 403 1172.5 403.0Q1183 403 1191 396Q1198 388 1198.0 377.0Q1198 366 1191 359L1099 249L989 212L972 189L1007 -72Z" fill="#6a462f" />
<path d="M365 477Q369 567 421 642Q462 628 493.0 628.5Q524 629 554.0 637.0Q584 645 621.5 652.5Q659 660 714 660Q714 660 722.5 644.5Q731 629 741.5 602.5Q752 576 760.5 543.5Q769 511 769 477Q769 403 745.5 345.0Q722 287 676.5 253.5Q631 220 566 220Q503 220 457.5 253.5Q412 287 388.0 345.0Q364 403 365 477Z" fill="#6a462f" />
<path d="M719 684Q730 684 737.0 660.0Q744 636 747.5 597.5Q751 559 752.0 516.0Q753 473 752.5 435.0Q752 397 751.5 372.5Q751 348 751 348Q778 348 794.0 385.5Q810 423 817.0 482.0Q824 541 824 605Q824 660 794.0 710.5Q764 761 707.0 793.0Q650 825 567 825Q485 825 427.5 793.0Q370 761 340.5 710.5Q311 660 311 605Q311 541 317.5 482.0Q324 423 340.5 385.5Q357 348 384 348Q384 348 382.5 371.0Q381 394 379.5 429.5Q378 465 378.5 504.5Q379 544 382.5 578.0Q386 612 395.0 632.5Q404 653 419 650Q461 640 491.5 641.0Q522 642 546.0 648.5Q570 655 594.5 663.0Q619 671 648.5 677.5Q678 684 719 684Z" fill="#000000" />
<path d="M201 -55Q201 -73 219 -73Q237 -73 237 -55V0Q237 59 288 103Q336 145 396 147Q567 8 739 147Q770 145 799 133Q815 126 823 143Q830 160 813 167Q774 183 733 184Q726 184 721 179Q567 52 414 179Q409 184 402 184Q325 184 264 131Q201 76 201 0Z" fill="#000000" />
<path d="M675.0570068359375 495.43743896484375Q675.0570068359375 510.8302001953125 664.2820739746094 521.6051330566406Q653.5071411132812 532.3800659179688 638.1143798828125 532.3800659179688Q622.7216186523438 532.3800659179688 611.9466857910156 521.6051330566406Q601.1717529296875 510.8302001953125 601.1717529296875 495.43743896484375Q601.1717529296875 480.044677734375 611.9466857910156 469.2697448730469Q622.7216186523438 458.49481201171875 638.1143798828125 458.49481201171875Q653.5071411132812 458.49481201171875 664.2820739746094 469.2697448730469Q675.0570068359375 480.044677734375 675.0570068359375 495.43743896484375Z" fill="#000000" />
<path d="M528.0570068359375 495.43743896484375Q528.0570068359375 510.8302001953125 517.2820739746094 521.6051330566406Q506.50714111328125 532.3800659179688 491.1143798828125 532.3800659179688Q475.72161865234375 532.3800659179688 464.9466857910156 521.6051330566406Q454.1717529296875 510.8302001953125 454.1717529296875 495.43743896484375Q454.1717529296875 480.044677734375 464.9466857910156 469.2697448730469Q475.72161865234375 458.49481201171875 491.1143798828125 458.49481201171875Q506.50714111328125 458.49481201171875 517.2820739746094 469.2697448730469Q528.0570068359375 480.044677734375 528.0570068359375 495.43743896484375Z" fill="#000000" />
<path d="M521 365Q504 373 496 357Q492 349 494 343Q496 337 504 332Q567 300 631 332Q647 341 639 357Q630 373 614 365Q567 341 521 365Z" fill="#000000" />
<path d="M989 -57Q992 -75 1010 -73Q1028 -70 1026 -52L991 184L1000 197L1105 231Q1110 233 1113 237L1204 347Q1235 378 1204 408Q1172 440 1141 408L1086 353Q1082 350 1049 350Q995 350 965 340Q861 305 861 231V-55Q861 -73 879 -73Q897 -73 897 -55V231Q897 278 977 305Q1001 313 1049 313Q1097 313 1112 328L1167 383Q1172 388 1178 383Q1183 377 1178 372Q1177 371 1177 371L1088 265L983 230Q978 228 974 223L957 200Q953 194 954 187Z" fill="#000000" />
<path d="M384 330Q402 330 402 348Q402 367 384 367Q329 367 329 605Q329 685 390 743Q457 807 567 807Q678 807 745 743Q806 685 806 605Q806 498 790 433Q774 367 751 367Q732 367 732 348Q732 330 751 330Q842 330 842 605Q842 701 770 770Q692 843 567 843Q442 843 365 770Q292 701 292 605Q292 330 384 330Z" fill="#000000" />
<path d="M346 477Q345 362 409 282Q473 202 566 202Q658 202 723 282Q787 362 787 477Q787 573 730 687Q725 697 714 697Q649 697 568 678Q485 658 427 677Q413 682 405 669Q347 574 346 477ZM383 476Q384 557 429 638Q493 622 577 642Q647 658 703 660Q751 560 751 477Q751 375 694 305Q640 238 566 238Q491 238 437 305Q382 374 383 476Z" fill="#000000" />
</g></svg>