<svg xmlns="http://www.w3.org/2000/svg" viewBox="0 0 2048 2048">
<g transform="matrix(1 0 0 -1 0 2048)">
<path d="M91.5877685546875 733.1798706054688V36.51513671875H1228.2723388671875V733.1798706054688Z" fill="#1e50a0" />
<path d="M181 715 660 428V385H589L110 672V715Z" fill="#ffffff" />
<path d="M659.7684936523438 672.4154663085938 181.394287109375 385.056396484375H109.72149658203125V427.65032958984375L588.095703125 715.0093994140625H659.7684936523438Z" fill="#ffffff" />
<path d="M110.25 604.9757690429688V494.97607421875H660.25V604.9757690429688Z" fill="#ffffff" />
<path d="M330.25 714.9273071289062V384.92822265625H440.25V714.9273071289062Z" fill="#ffffff" />
<path d="M367.0877685546875 714.9273071289062V384.92822265625H403.7723388671875V714.9273071289062Z" fill="#d22f27" />
<path d="M110.25 568.3252563476562V531.65869140625H660.25V568.3252563476562Z" fill="#d22f27" />
<path d="M660 428V385L477 495H548Z" fill="#d22f27" />
<path d="M660 715 477 605H440V626L589 715Z" fill="#d22f27" />
<path d="M110.0 672.0V715.0L293.0 605.0H222.0Z" fill="#d22f27" />
<path d="M110.0 385.0 293.0 495.0H330.0V474.0L181.0 385.0Z" fill="#d22f27" />
<path d="M1026.2972412109375 330.1405029296875Q1026.2972412109375 349.065673828125 1019.1768798828125 365.7423095703125Q1012.0565185546875 382.4189453125 999.502197265625 394.9732666015625Q986.9478759765625 407.527587890625 970.271240234375 414.64794921875Q953.5946044921875 421.768310546875 934.66943359375 421.768310546875Q915.7442626953125 421.768310546875 899.067626953125 414.64794921875Q882.3909912109375 407.527587890625 869.836669921875 394.9732666015625Q857.2823486328125 382.4189453125 850.1619873046875 365.7423095703125Q843.0416259765625 349.065673828125 843.0416259765625 330.1405029296875Q843.0416259765625 311.21533203125 850.1619873046875 294.5386962890625Q857.2823486328125 277.862060546875 869.836669921875 265.3077392578125Q882.3909912109375 252.75341796875 899.067626953125 245.633056640625Q915.7442626953125 238.5126953125 934.66943359375 238.5126953125Q953.5946044921875 238.5126953125 970.271240234375 245.633056640625Q986.9478759765625 252.75341796875 999.502197265625 265.3077392578125Q1012.0565185546875 277.862060546875 1019.1768798828125 294.5386962890625Q1026.2972412109375 311.21533203125 1026.2972412109375 330.1405029296875Z" fill="#61b2e4" />
<path d="M843.4122314453125 458.6505126953125V385.3173828125H1026.7276611328125V458.6505126953125Z" fill="#d22f27" />
<path d="M843.4122314453125 384.46282958984375V329.48974609375H1026.7276611328125V384.46282958984375Z" fill="#61b2e4" />
<path d="M1008.0 284.0Q995.0 297.0 982.0 284.0Q969.0 271.0 982.0 258.0L1018.0 221.0Q1031.0 208.0 1044.0 221.0Q1057.0 234.0 1044.0 247.0Z" fill="#fcea2b" />
<path d="M889.0 257.0Q902.0 270.0 889.0 283.0Q876.0 296.0 863.0 283.0L826.0 247.0Q813.0 234.0 826.0 221.0Q839.0 208.0 852.0 221.0Z" fill="#fcea2b" />
<path d="M1026 239 1000 265Q973 238 935 238Q897 238 870 265L844 239Q882 202 935 202Q988 202 1026 239Z" fill="#fcea2b" />
<path d="M972 568Q972 605 935 605Q898 605 898 568Q898 532 935 532Q972 532 972 568Z" fill="#fcea2b" />
<path d="M1008 513Q1008 550 935 550Q862 550 862 513Q862 495 880 495H990Q1008 495 1008 513Z" fill="#5c9e31" />
<path d="M73 37Q73 18 92 18H1228Q1247 18 1247 37V733Q1247 752 1228 752H92Q73 752 73 733ZM110 715H1210V55H110Z" fill="#000000" />
</g></svg>