<svg xmlns="http://www.w3.org/2000/svg" viewBox="0 0 2048 2048">
<g transform="matrix(1 0 0 -1 0 2048)">
<path d="M91.5877685546875 733.1798706054688V36.51513671875H1228.2723388671875V733.1798706054688Z" fill="#1e50a0" />
<path d="M966.01611328125 182.7049560546875Q966.01611328125 182.7049560546875 953.415771484375 188.1051025390625Q940.8154296875 193.5052490234375 922.3649291992188 205.20556640625Q903.9144287109375 216.9058837890625 885.4639282226562 236.25640869140625Q867.013427734375 255.60693359375 854.8630981445312 283.05767822265625Q842.7127685546875 310.5084228515625 842.7127685546875 348.3094482421875V513.013916015625H1090.219482421875V348.3094482421875Q1090.219482421875 310.5084228515625 1077.619140625 283.05767822265625Q1065.018798828125 255.60693359375 1046.5682983398438 236.25640869140625Q1028.1177978515625 216.9058837890625 1009.6672973632812 205.20556640625Q991.216796875 193.5052490234375 978.616455078125 188.1051025390625Q966.01611328125 182.7049560546875 966.01611328125 182.7049560546875Z" fill="#92d3f5" />
<path d="M969 175Q1001 185 1034 212Q1099 267 1099 348V513Q1099 523 1090 523H842Q833 523 833 513V348Q833 267 898 212Q930 185 963 175Q966 174 969 175ZM966 193Q938 203 910 226Q851 275 851 348V504H1080V348Q1080 275 1022 226Q994 203 966 193Z" fill="#92d3f5" />
<path d="M848 303H1083Q1074 269 1055.0 246.5Q1036 224 1015.5 210.0Q995 196 980.5 189.5Q966 183 966 183Q966 183 951.5 189.5Q937 196 916.5 210.0Q896 224 877.0 246.5Q858 269 848 303Z" fill="#d22f27" />
<path d="M840 300Q866 207 963 175Q966 174 969 175Q1066 207 1092 300Q1094 309 1086 311Q1084 312 1083 312H848Q839 312 839 303Q839 301 840 300ZM861 293H1071Q1045 221 966 193Q887 221 861 293Z" fill="#d22f27" />
<path d="M980 457Q980 476 962 476Q943 476 943 457V262Q943 244 962 244Q980 244 980 262Z" fill="#000000" />
<path d="M1020 380Q1039 380 1039 399Q1039 417 1020 417H903Q885 417 885 399Q885 380 903 380Z" fill="#000000" />
<path d="M181 715 660 428V385H589L110 672V715Z" fill="#ffffff" />
<path d="M659.7684936523438 672.4154663085938 181.394287109375 385.056396484375H109.72149658203125V427.65032958984375L588.095703125 715.0093994140625H659.7684936523438Z" fill="#ffffff" />
<path d="M110.25 604.9757690429688V494.97607421875H660.25V604.9757690429688Z" fill="#ffffff" />
<path d="M330.25 714.9273071289062V384.92822265625H440.25V714.9273071289062Z" fill="#ffffff" />
<path d="M367.0877685546875 714.9273071289062V384.92822265625H403.7723388671875V714.9273071289062Z" fill="#d22f27" />
<path d="M110.25 568.3252563476562V531.65869140625H660.25V568.3252563476562Z" fill="#d22f27" />
<path d="M660 428V385L477 495H548Z" fill="#d22f27" />
<path d="M660 715 477 605H440V626L589 715Z" fill="#d22f27" />
<path d="M110.0 672.0V715.0L293.0 605.0H222.0Z" fill="#d22f27" />
<path d="M110.0 385.0 293.0 495.0H330.0V474.0L181.0 385.0Z" fill="#d22f27" />
<path d="M73 37Q73 18 92 18H1228Q1247 18 1247 37V733Q1247 752 1228 752H92Q73 752 73 733ZM110 715H1210V55H110Z" fill="#000000" />
</g></svg>