<svg xmlns="http://www.w3.org/2000/svg" viewBox="0 0 2048 2048">
<g transform="matrix(1 0 0 -1 0 2048)">
<path d="M91.5877685546875 733.1798706054688V36.51513671875H1228.2723388671875V733.1798706054688Z" fill="#f1b31c" />
<path d="M275 440V312Q275 296 285.5 285.5Q296 275 312 275H385Q400 275 411.0 285.5Q422 296 422 312V440Z" fill="#d22f27" />
<path d="M91.5877685546875 733.4887084960938V568.46240234375H1228.2723388671875V733.4887084960938Z" fill="#d22f27" />
<path d="M91.5877685546875 201.48870849609375V36.46240234375H1228.2723388671875V201.48870849609375Z" fill="#d22f27" />
<path d="M348.1622314453125 439.6505126953125V366.3173828125H421.4776611328125V439.6505126953125Z" fill="#f1b31c" />
<path d="M375.58917236328125 366.64215087890625Q375.58917236328125 372.3197021484375 373.45306396484375 377.32269287109375Q371.31695556640625 382.32568359375 367.5506591796875 386.09197998046875Q363.78436279296875 389.8582763671875 358.7813720703125 391.994384765625Q353.77838134765625 394.1304931640625 348.100830078125 394.1304931640625Q342.42327880859375 394.1304931640625 337.4202880859375 391.994384765625Q332.41729736328125 389.8582763671875 328.6510009765625 386.09197998046875Q324.88470458984375 382.32568359375 322.74859619140625 377.32269287109375Q320.61248779296875 372.3197021484375 320.61248779296875 366.64215087890625Q320.61248779296875 360.964599609375 322.74859619140625 355.96160888671875Q324.88470458984375 350.9586181640625 328.6510009765625 347.19232177734375Q332.41729736328125 343.426025390625 337.4202880859375 341.2899169921875Q342.42327880859375 339.15380859375 348.100830078125 339.15380859375Q353.77838134765625 339.15380859375 358.7813720703125 341.2899169921875Q363.78436279296875 343.426025390625 367.5506591796875 347.19232177734375Q371.31695556640625 350.9586181640625 373.45306396484375 355.96160888671875Q375.58917236328125 360.964599609375 375.58917236328125 366.64215087890625Z" fill="#6a462f" />
<path d="M513 440Q513 458 495 458Q477 458 477 440V275Q477 257 495 257Q513 257 513 275Z" fill="#6a462f" />
<path d="M220 440Q220 458 202 458Q184 458 184 440V275Q184 257 202 257Q220 257 220 275Z" fill="#6a462f" />
<path d="M266 511Q258 507 256 501Q255 495 259 486Q267 470 284 479Q314 495 348 495Q367 495 367 513Q367 532 348 532Q305 532 266 511Z" fill="#6a462f" />
<path d="M413 479Q429 470 438 486Q446 503 430 511Q392 532 348 532Q330 532 330 513Q330 495 348 495Q383 495 413 479Z" fill="#6a462f" />
<path d="M275 458Q257 458 257 440Q257 422 275 422H422Q440 422 440 440Q440 458 422 458Z" fill="#6a462f" />
<path d="M440 440Q440 458 422 458Q403 458 403 440V312Q403 293 385 293H312Q293 293 293 312V440Q293 458 275 458Q257 458 257 440V312Q257 257 312 257H385Q440 257 440 312Z" fill="#6a462f" />
<path d="M183 293Q165 293 165 275Q165 257 183 257H220Q238 257 238 275Q238 293 220 293Z" fill="#6a462f" />
<path d="M476 293Q458 293 458 275Q458 257 476 257H513Q531 257 531 275Q531 293 513 293Z" fill="#6a462f" />
<path d="M73 37Q73 18 92 18H1228Q1247 18 1247 37V733Q1247 752 1228 752H92Q73 752 73 733ZM110 715H1210V55H110Z" fill="#000000" />
</g></svg>