<svg xmlns="http://www.w3.org/2000/svg" viewBox="0 0 2048 2048">
<g transform="matrix(1 0 0 -1 0 2048)">
<path d="M1008 -73V1Q1008 47 981.5 84.0Q955 121 913.0 143.5Q871 166 825 166Q660 28 495 166Q449 166 407.0 143.5Q365 121 338.5 84.0Q312 47 312 1V-73Z" fill="#92d3f5" />
<path d="M469 505Q473 512 493.5 526.0Q514 540 541.0 556.0Q568 572 592 585Q679 631 757 691Q805 641 829.5 596.0Q854 551 854 487Q854 417 828.5 360.5Q803 304 759.0 270.5Q715 237 662 237Q608 237 564.0 270.5Q520 304 494.5 360.5Q469 417 469 487Z" fill="#a57939" />
<path d="M980 419Q999 386 1003.5 347.0Q1008 308 1003.5 271.5Q999 235 990.0 210.0Q981 185 973 180Q947 156 918 137Q884 162 841 165Q670 27 498 165Q444 160 400 127Q364 148 333 177Q335 175 331.0 193.0Q327 211 323.0 241.0Q319 271 318.5 306.5Q318 342 326.0 375.5Q334 409 355 433Q369 451 375 472Q395 525 389 581Q385 638 400 694Q412 739 445.5 773.0Q479 807 527.5 826.0Q576 845 633 845Q678 845 707.0 833.0Q736 821 750.5 809.0Q765 797 766 796Q771 791 779 790Q812 787 844.0 769.0Q876 751 896.0 722.5Q916 694 916 660Q919 605 923.5 573.5Q928 542 936.5 519.5Q945 497 959 467Q968 442 980 419ZM752 257Q815 305 840.5 356.0Q866 407 865.0 457.0Q864 507 847.0 551.5Q830 596 808.0 630.0Q786 664 769.0 683.0Q752 702 752 702Q751 695 730.5 678.0Q710 661 678.0 638.5Q646 616 610.0 592.5Q574 569 542.0 549.0Q510 529 489.5 517.0Q469 505 469 505Q454 465 460.0 426.5Q466 388 484.0 353.5Q502 319 523.5 293.0Q545 267 560.5 252.0Q576 237 576 237Q576 237 594.0 234.0Q612 231 640.5 229.5Q669 228 699.0 233.5Q729 239 752 257Z" fill="#000000" />
<path d="M293 -54Q293 -72 312 -72Q330 -72 330 -54V1Q330 60 381 104Q429 146 488 148Q660 9 831 148Q891 146 939 104Q990 60 990 1V-54Q990 -72 1008 -72Q1027 -72 1027 -54V1Q1027 77 963 132Q902 184 825 184Q818 184 813 180Q660 52 507 180Q502 184 495 184Q418 184 357 132Q293 77 293 1Z" fill="#000000" />
<path d="M770 477Q770 493 750.0 503.5Q730 514 715 514Q699 499 697 477Q697 462 707.5 460.5Q718 459 733 459Q749 459 759.5 460.5Q770 462 770 477Z" fill="#000000" />
<path d="M623 477Q622 499 607 514Q597 514 583.5 508.5Q570 503 560.0 495.0Q550 487 550 477Q550 462 561.0 460.5Q572 459 587 459Q602 459 612.5 460.5Q623 462 623 477Z" fill="#000000" />
<path d="M685 322Q699 309 711 323Q723 337 709 349Q660 392 611 349Q598 337 610 323Q622 309 636 322Q660 343 685 322Z" fill="#000000" />
<path d="M330 180Q335 172 341 171Q348 169 356 174Q371 184 361 199Q327 254 333 309Q337 344 367 411Q379 439 384 453Q401 495 398 562Q396 628 409 675Q427 743 492 785Q558 826 642 826Q733 826 775 778Q780 772 787 771Q838 767 872 730Q906 693 906 642Q906 642 906 641Q912 531 949 448Q963 419 971 400Q1016 295 947 204Q935 190 950 179Q964 168 976 182Q1058 290 1004 414Q996 434 983 463Q949 539 943 643Q942 707 899 755Q857 799 798 807Q745 863 642 863Q547 863 473 816Q395 766 373 685Q359 632 362 561Q364 502 350 466Q345 453 333 426Q301 353 297 313Q289 245 330 180Z" fill="#000000" />
<path d="M441 478Q441 363 504 283Q568 203 661 203Q753 203 817 283Q881 363 881 478Q881 595 765 711Q752 724 739 711Q706 677 576 603Q441 526 441 496ZM477 478V496Q477 505 595 572Q707 636 751 672Q844 574 844 478Q844 375 788 306Q735 240 661 240Q586 240 533 306Q477 375 477 478Z" fill="#000000" />
</g></svg>