<svg xmlns="http://www.w3.org/2000/svg" viewBox="0 0 2048 2048">
<g transform="matrix(1 0 0 -1 0 2048)">
<path d="M680 729Q680 750 665.0 765.5Q650 781 629 781Q608 781 593.5 765.5Q579 750 579 729Q579 707 593.5 691.5Q608 676 629 676Q650 676 665.0 691.5Q680 707 680 729Z" fill="#6a462f" />
<path d="M629 599 530 608 470 583 417 518 393 534 359 663 316 654Q316 654 321.5 635.0Q327 616 335.0 588.5Q343 561 352.0 534.5Q361 508 369 495Q376 484 389.5 477.5Q403 471 426 471Q441 471 453.5 484.0Q466 497 474.5 511.0Q483 525 487 528Q492 533 501.5 530.0Q511 527 514 511Q517 496 522.5 474.0Q528 452 533.5 429.5Q539 407 543.0 392.0Q547 377 547 377L468 318L501 43L553 35Q553 35 552.5 54.5Q552 74 552.5 104.0Q553 134 555.0 165.5Q557 197 561.0 222.5Q565 248 571 258Q576 264 590.0 267.5Q604 271 616.5 273.0Q629 275 629 275Z" fill="#6a462f" />
<path d="M627 599 726 608 785 583 838 518 862 534 896 663 939 654Q939 654 934.0 635.0Q929 616 921.0 588.5Q913 561 903.5 534.5Q894 508 886 495Q880 484 866.5 477.5Q853 471 830 471Q814 471 802.0 484.0Q790 497 781.0 511.0Q772 525 768 528Q764 533 754.5 530.0Q745 527 741 511Q738 496 733.0 474.0Q728 452 722.5 429.5Q717 407 713.0 392.0Q709 377 709 377L788 318L754 43L703 35Q703 35 703.0 54.5Q703 74 702.5 104.0Q702 134 700.5 165.5Q699 197 695.0 222.5Q691 248 684 258Q680 264 666.0 267.5Q652 271 639.5 273.0Q627 275 627 275Z" fill="#6a462f" />
<path d="M293 503V783Q292 799 276 800H243Q227 799 226 783V503Q227 487 243 486H276Q293 487 293 503Z" fill="#9b9b9a" />
<path d="M1032 503V783Q1031 799 1015 800H982Q966 799 965 783V503Q966 487 982 486H1015Q1032 487 1032 503Z" fill="#9b9b9a" />
<path d="M312 502Q312 503 312 503V783Q312 783 312 784Q310 816 278 819Q277 819 276 819H243Q242 819 241 819Q209 816 207 784Q207 783 207 783V503Q207 503 207 502Q209 470 241 467Q242 467 243 467H276Q277 467 278 467Q310 470 312 502ZM275 504H245V782H275Z" fill="#000000" />
<path d="M1051 502Q1051 503 1051 503V783Q1051 783 1051 784Q1049 816 1017 819Q1016 819 1015 819H982Q981 819 980 819Q948 816 946 784Q946 783 946 783V503Q946 503 946 502Q948 470 980 467Q981 467 982 467H1015Q1016 467 1017 467Q1049 470 1051 502ZM1014 504H984V782H1014Z" fill="#000000" />
<path d="M730 679Q711 679 711 661Q711 642 730 642Q796 642 963 624Q982 622 984 641Q985 650 981 656Q976 661 967 662Q798 679 730 679Z" fill="#000000" />
<path d="M291 661Q272 659 275 640Q276 631 281 627Q287 623 296 625Q412 641 529 642Q547 642 547 661Q547 679 528 679Q409 678 291 661Z" fill="#000000" />
<path d="M703 731Q703 805 629 805Q555 805 555 731Q555 658 629 658Q703 658 703 731ZM665 731Q665 695 629 695Q614 695 603 706Q593 716 593 731Q593 768 629 768Q644 768 655 757Q665 746 665 731Z" fill="#000000" />
<path d="M378 649Q372 667 355 661Q337 655 343 637L378 529Q388 497 413 494Q437 490 456 517Q456 517 456 517L481 553Q505 584 543 582L576 577Q576 577 577 577Q629 572 681 577Q682 577 682 577L715 583Q754 585 777 554L802 517Q802 517 802 517Q822 490 846 494Q871 497 880 529L916 637Q921 655 904 661Q895 664 889 661Q883 658 880 649L845 540Q845 540 845 540Q842 531 841 531Q839 530 832 539L807 575Q807 575 807 575Q772 624 712 620Q711 620 710 620L677 614Q629 609 581 614L548 620Q547 620 546 620Q487 622 452 576Q451 575 451 575L426 539Q420 530 418 531Q416 531 414 540Q414 540 414 540Z" fill="#000000" />
<path d="M546 524Q543 542 525 539Q507 536 510 518Q514 498 519 473Q526 436 527 398Q527 397 527 396Q528 388 523 381Q504 366 482 355Q481 354 480 353Q447 330 452 290L478 68Q477 19 526 13Q527 13 528 13Q575 13 575 63Q575 206 577 223Q577 224 577 224Q578 237 585 248Q589 253 595 255Q610 259 626 259Q642 259 658 255Q664 253 668 248Q675 237 675 224Q675 224 675 223Q677 206 677 63Q677 13 724 13Q725 13 726 13Q775 19 774 68L800 290Q805 330 773 353Q772 354 770 355Q749 366 729 381Q724 388 725 396Q725 397 725 398Q726 436 733 474Q738 498 742 518Q745 536 727 539Q718 540 713 537Q707 533 706 524Q702 505 697 480Q690 440 689 400Q686 375 703 356Q704 354 705 353Q727 336 752 323Q766 312 764 294L738 71Q737 69 737 68Q738 52 723 50Q714 50 714 63Q714 207 712 226Q710 249 698 269Q698 269 697 270Q686 284 668 290Q668 290 667 290Q647 295 626 295Q605 295 585 290Q584 290 584 290Q567 284 555 270Q555 269 554 269Q542 249 540 226Q539 207 538 63Q538 50 529 50Q514 52 515 68Q515 69 515 71L488 294Q486 312 500 323Q525 336 547 353Q548 354 550 356Q566 375 563 400Q562 440 555 481Q550 505 546 524Z" fill="#000000" />
</g></svg>