<svg xmlns="http://www.w3.org/2000/svg" viewBox="0 0 2048 2048">
<g transform="matrix(1 0 0 -1 0 2048)">
<path d="M714.0615234375 695.19287109375Q714.0615234375 706.53515625 709.75927734375 716.508544921875Q705.45703125 726.48193359375 697.8955078125 734.04345703125Q690.333984375 741.60498046875 680.360595703125 745.9072265625Q670.38720703125 750.20947265625 659.044921875 750.20947265625Q647.70263671875 750.20947265625 637.729248046875 745.9072265625Q627.755859375 741.60498046875 620.1943359375 734.04345703125Q612.6328125 726.48193359375 608.33056640625 716.508544921875Q604.0283203125 706.53515625 604.0283203125 695.19287109375Q604.0283203125 683.8505859375 608.33056640625 673.877197265625Q612.6328125 663.90380859375 620.1943359375 656.34228515625Q627.755859375 648.78076171875 637.729248046875 644.478515625Q647.70263671875 640.17626953125 659.044921875 640.17626953125Q670.38720703125 640.17626953125 680.360595703125 644.478515625Q690.333984375 648.78076171875 697.8955078125 656.34228515625Q705.45703125 663.90380859375 709.75927734375 673.877197265625Q714.0615234375 683.8505859375 714.0615234375 695.19287109375Z" fill="#debb90" />
<path d="M550 458Q550 458 542.5 430.5Q535 403 525 330Q522 308 512.5 284.0Q503 260 491.5 240.0Q480 220 471 210Q466 205 450.0 192.0Q434 179 412.5 163.0Q391 147 369.5 131.5Q348 116 332 105Q314 94 302.0 98.0Q290 102 284.0 110.0Q278 118 278 118L416 215L460 284L501 471L532 523L568 548L659 550H743L822 484L836 386L843 290L900 229L941 190Q941 190 955.5 181.5Q970 173 989.0 162.0Q1008 151 1023.5 141.0Q1039 131 1042 128Q1046 124 1039.5 115.0Q1033 106 1020.5 101.0Q1008 96 993 103Q990 104 975.0 114.5Q960 125 939.5 139.5Q919 154 900.0 168.5Q881 183 869 194Q861 202 845.5 220.0Q830 238 816.5 264.0Q803 290 800 322Q794 382 787.0 413.0Q780 444 774.0 455.0Q768 466 768 466L776 237L834 167L978 90L1008 50L988 0L953 -8L871 0L723 18L532 -8L523 0Q523 0 501.5 1.5Q480 3 448.5 5.5Q417 8 385.5 12.0Q354 16 333.0 22.0Q312 28 312 35Q312 44 322.0 60.0Q332 76 347.5 93.5Q363 111 379.5 125.0Q396 139 408 145Q459 169 483.0 185.0Q507 201 514.5 209.5Q522 218 522 218L532 220Q537 236 540.5 265.0Q544 294 546.0 327.5Q548 361 549.0 390.5Q550 420 550.0 439.0Q550 458 550 458Z" fill="#debb90" />
<path d="M733 695Q733 769 659 769Q629 769 608 747Q586 726 586 695Q586 665 608 643Q629 622 659 622Q733 622 733 695ZM696 695Q696 659 659 659Q623 659 623 695Q623 732 659 732Q696 732 696 695Z" fill="#000000" />
<path d="M283 143Q268 133 278 118Q284 110 290 109Q296 108 304 113L410 189Q492 247 500 347L506 439Q512 517 581 532Q660 550 739 532Q808 517 814 439L820 347Q828 247 910 189L1016 113Q1031 103 1042 118Q1052 133 1037 143L931 219Q863 267 857 349L850 442Q847 485 817 522Q787 559 746 568Q660 587 574 568Q533 559 503 522Q473 485 470 442L463 349Q457 267 389 219Z" fill="#000000" />
<path d="M515 210Q511 202 513 196Q515 190 523 185Q540 177 548 193L557 211Q568 232 571 272L587 457Q588 475 570 477Q552 478 550 460L535 275Q532 242 525 228Z" fill="#000000" />
<path d="M535 -8Q544 -6 548 -1Q551 4 550 13Q546 31 528 28L501 23Q475 18 440 18H348Q330 18 330 37Q330 62 353 75L421 112Q437 121 429 137Q420 153 404 144L335 107Q293 84 293 37Q293 -18 348 -18H440Q478 -18 507 -13Z" fill="#000000" />
<path d="M770 460Q769 478 750 477Q741 476 737 471Q733 466 733 457L749 255Q752 212 775 189Q796 169 830 150V149L526 163Q474 166 465 123Q455 79 507 64L638 29Q674 19 710 11L804 -10Q841 -18 880 -18H972Q1027 -18 1027 37Q1027 84 985 107L848 182Q818 198 801 215Q788 228 785 258ZM901 111 967 75Q990 62 990 37Q990 18 972 18H880Q845 18 812 26L718 47Q682 55 648 64L517 100Q498 105 501 115Q503 128 525 127L891 110Q897 110 901 111Z" fill="#000000" />
</g></svg>