<svg xmlns="http://www.w3.org/2000/svg" viewBox="0 0 2048 2048">
<g transform="matrix(1 0 0 -1 0 2048)">
<path d="M417 102Q529 28 663 27Q716 27 763.0 40.0Q810 53 846.5 70.0Q883 87 904.0 99.5Q925 112 925 112Q1001 169 1045.5 250.5Q1090 332 1099.0 424.0Q1108 516 1077 606Q1046 696 982.5 763.0Q919 830 834.0 866.5Q749 903 654 901Q558 899 475.0 859.0Q392 819 331.0 749.0Q270 679 243 588Q216 497 229.0 405.0Q242 313 290.0 234.0Q338 155 417 102Z" fill="#fcea2b" />
<path d="M742 -40Q742 -68 717.0 -88.5Q692 -109 657 -109Q622 -109 597.5 -88.5Q573 -68 573 -40Q573 -38 573 -34Q555 -33 542.0 -20.0Q529 -7 528 11Q528 25 537 36Q516 43 503.0 60.0Q490 77 488 99Q488 127 513.0 147.5Q538 168 573 168L617 264H694L736 167Q742 168 747 168Q782 168 807.0 147.5Q832 127 832 99Q830 75 814.0 56.5Q798 38 774 33Q781 23 781 11Q780 -5 769.0 -17.5Q758 -30 741 -33Q742 -36 742 -40Z" fill="#d0cfce" />
<path d="M742 -42Q742 -71 717.0 -91.0Q692 -111 657 -111Q622 -111 597.5 -91.0Q573 -71 573 -42Q573 -40 573 -37Q555 -35 542.0 -22.5Q529 -10 528 8Q528 13 529 17Q544 12 559 12Q594 12 619.0 32.0Q644 52 644 81Q644 84 643 88Q660 91 671.0 103.0Q682 115 683 132Q683 144 676 154Q706 162 724 187L736 165Q742 165 747 165Q782 165 807.0 145.0Q832 125 832 96Q830 72 814.0 53.5Q798 35 774 31Q781 21 781 9Q780 -8 769.0 -20.5Q758 -33 741 -36Q742 -39 742 -42Z" fill="#ffffff" />
<path d="M660 336Q638 336 609.5 328.5Q581 321 560.0 310.0Q539 299 539 290Q539 262 556.5 250.0Q574 238 602.0 234.5Q630 231 660 231Q690 231 717.0 234.5Q744 238 760.5 250.5Q777 263 777 291Q777 305 756.5 315.0Q736 325 708.5 330.5Q681 336 660 336Z" fill="#ffffff" />
<path d="M632 238Q641 254 625 263Q608 271 600 255L562 182Q527 180 502 159Q470 133 470 96Q470 95 470 95Q473 46 512 25Q510 17 509 9Q509 8 510 7Q514 -41 555 -52Q559 -82 586 -104Q616 -128 657 -128Q699 -128 728 -104Q757 -81 760 -49Q796 -36 799 8Q799 8 799 9Q799 14 798 19Q846 38 850 95Q850 95 850 96Q850 133 818 159Q789 183 747 183Q747 183 747 183L709 255Q700 271 684 263Q668 254 677 238L720 155Q725 144 738 146Q743 146 747 146Q813 146 813 97Q810 57 771 49Q767 48 764 46Q749 36 759 21Q762 16 763 10Q761 -13 738 -17Q721 -20 723 -37Q723 -39 723 -41Q723 -61 705 -76Q686 -92 657 -92Q591 -92 591 -41Q591 -40 591 -38Q591 -38 591 -37Q593 -19 575 -18Q549 -16 546 10Q546 17 551 22Q553 25 554 28Q557 37 554 43Q551 49 542 51Q509 62 507 96Q507 116 525 130Q544 146 572 146H573Q584 146 590 156Z" fill="#000000" />
<path d="M415 100Q431 89 441 105Q446 112 445 119Q444 125 436 130Q327 204 283 328Q239 452 276 578Q314 704 418 784Q523 864 654 867Q786 870 894 794Q1002 719 1045 595Q1087 470 1049 345Q1010 219 904 140Q897 135 896 128Q895 122 901 115Q906 107 912 106Q919 105 926 111Q1041 197 1084 334Q1126 471 1079 607Q1033 742 915 824Q797 907 654 903Q510 900 396 813Q282 726 241 589Q200 451 249 316Q297 181 415 100Z" fill="#000000" />
<path d="M759.0 570.0Q755.0 578.0 749.0 581.0Q743.0 583.0 734.0 579.0Q718.0 572.0 725.0 555.0Q753.0 493.0 821.0 493.0Q889.0 493.0 917.0 555.0Q925.0 572.0 908.0 579.0Q899.0 583.0 893.0 581.0Q887.0 578.0 884.0 570.0Q866.0 530.0 821.0 530.0Q777.0 530.0 759.0 570.0Z" fill="#000000" />
<path d="M443 570Q435 587 418 579Q402 572 409 555Q437 493 505 493Q573 493 601 555Q605 564 602 570Q600 576 592 579Q575 587 567 570Q549 529 505 529Q461 529 443 570Z" fill="#000000" />
<path d="M562 246Q570 242 576 244Q582 246 587 254Q591 262 589 268Q587 274 579 279Q573 281 574 287Q574 288 574 288Q574 304 601 318Q629 332 660 332Q690 332 717 318Q742 305 742 288Q742 278 732 276Q714 272 717 254Q721 236 739 240Q779 247 779 288Q779 327 734 351Q699 369 660 369Q620 369 584 351Q537 327 537 288Q536 259 562 246Z" fill="#000000" />
</g></svg>