<svg xmlns="http://www.w3.org/2000/svg" viewBox="0 0 2048 2048">
<g transform="matrix(1 0 0 -1 0 2048)">
<path d="M890.0615234375 898.19287109375Q890.0615234375 909.53515625 885.75927734375 919.508544921875Q881.45703125 929.48193359375 873.8955078125 937.04345703125Q866.333984375 944.60498046875 856.360595703125 948.9072265625Q846.38720703125 953.20947265625 835.044921875 953.20947265625Q823.70263671875 953.20947265625 813.729248046875 948.9072265625Q803.755859375 944.60498046875 796.1943359375 937.04345703125Q788.6328125 929.48193359375 784.33056640625 919.508544921875Q780.0283203125 909.53515625 780.0283203125 898.19287109375Q780.0283203125 886.8505859375 784.33056640625 876.877197265625Q788.6328125 866.90380859375 796.1943359375 859.34228515625Q803.755859375 851.78076171875 813.729248046875 847.478515625Q823.70263671875 843.17626953125 835.044921875 843.17626953125Q846.38720703125 843.17626953125 856.360595703125 847.478515625Q866.333984375 851.78076171875 873.8955078125 859.34228515625Q881.45703125 866.90380859375 885.75927734375 876.877197265625Q890.0615234375 886.8505859375 890.0615234375 898.19287109375Z" fill="#fadcbc" />
<path d="M835 714 858 589 698 544 676 491 694 353 634 243 661 195 758 283 880 445 936 470 994 519 925 749 895 785 833 772Z" fill="#fadcbc" />
<path d="M1036 -69 940 -71 754 24 619 50 524 28 353 115 264 142 179 218 136 248 104 235 105 143 418 -18 693 -81 979 -122Q979 -122 1000.0 -122.5Q1021 -123 1050.0 -123.5Q1079 -124 1104 -124Z" fill="#d0cfce" />
<path d="M1104 -146V-103Q1055 -103 981 -100L697 -60L425 2L126 156V221L133 224L165 202L249 126Q253 123 258 122L345 96L515 9Q521 5 529 7L620 28L747 4L931 -90Q935 -93 941 -93L1036 -90L1035 -48L945 -50L764 43Q761 44 758 45L623 71Q619 72 614 71L527 50L363 134Q361 135 359 136L274 161L193 234Q192 235 191 236L148 265Q139 272 128 268L96 255Q83 249 83 235L84 143Q84 130 95 124L408 -37Q411 -38 413 -39L688 -102Q689 -102 690 -102L976 -143Q978 -143 979 -143Q1054 -146 1104 -146Z" fill="#d0cfce" />
<path d="M944 -49Q926 -50 926 -68Q927 -86 945 -86L1029 -84L1091 -142Q1104 -154 1117 -141Q1129 -127 1116 -115L1048 -52Q1043 -47 1036 -47Z" fill="#000000" />
<path d="M429 102Q420 106 414 104Q408 101 404 93Q397 76 414 69L527 17Q533 15 539 16L623 35L716 17Q734 13 737 31Q741 49 723 53L626 71Q623 72 619 71L537 53Z" fill="#000000" />
<path d="M96 256Q87 253 85 247Q82 241 86 232Q93 215 110 222L133 232L179 198Q194 188 204 203Q210 210 209 216Q208 223 200 228L146 267Q138 273 129 270Z" fill="#000000" />
<path d="M384 390Q372 376 386 364Q393 358 399 359Q406 359 412 366L663 660L703 631Q718 620 729 635Q734 642 733 649Q732 655 725 660L671 699Q657 709 646 696Z" fill="#000000" />
<path d="M593 379Q593 461 535 518Q478 576 396 576Q315 576 257 518Q200 461 200 379Q200 298 257 240Q315 183 396 183Q478 183 535 240Q593 298 593 379ZM556 379Q556 313 509 266Q463 219 396 219Q330 219 283 266Q236 313 236 379Q236 445 283 492Q330 539 396 539Q463 539 509 492Q556 445 556 379Z" fill="#000000" />
<path d="M1159 160Q1159 242 1101 299Q1044 357 962 357Q881 357 823 299Q766 242 766 160Q766 79 823 21Q881 -36 962 -36Q1044 -36 1101 21Q1159 79 1159 160ZM1122 160Q1122 94 1075 47Q1029 0 962 0Q896 0 849 47Q802 94 802 160Q802 226 849 273Q896 320 962 320Q1029 320 1075 273Q1122 226 1122 160Z" fill="#000000" />
<path d="M906 896Q906 926 884 947Q863 969 832 969Q759 969 759 896Q759 822 832 822Q863 822 884 844Q906 865 906 896ZM869 896Q869 859 832 859Q796 859 796 896Q796 911 806 921Q817 932 832 932Q869 932 869 896Z" fill="#000000" />
<path d="M701 686Q683 682 687 664Q691 646 709 650L755 660Q794 667 829 685Q837 689 839 698Q847 746 850 761Q850 762 850 762Q851 763 851 763Q868 776 888 768Q903 761 916 726Q917 724 918 723Q953 638 974 550Q974 524 955 507L953 505Q931 488 902 486L798 482Q746 480 746 428L748 307Q748 290 733 284Q728 284 725 287Q720 291 720 297Q720 297 720 298L700 459Q698 485 705 510Q716 529 737 533L830 551Q830 551 830 551Q851 556 869 577Q890 601 887 624Q886 634 880 637Q875 641 866 640Q848 637 851 619Q854 594 823 587L729 569Q691 561 672 527Q671 525 671 523Q660 490 663 455Q663 455 663 454L683 293Q685 272 702 259Q718 246 739 248Q741 248 743 249Q786 263 784 308L783 428Q783 445 799 445L904 450Q944 452 976 477Q977 477 977 478L980 480Q1012 509 1010 552Q1010 554 1010 556Q988 649 952 737Q951 737 951 739Q931 789 902 802Q864 817 830 793Q815 785 814 768Q811 752 804 713Q777 701 748 696Q748 696 747 696Z" fill="#000000" />
<path d="M751.3369140625 254.648681640625 722.6771240234375 277.5469970703125 686.3892822265625 233.7005615234375Q674.2933349609375 219.0850830078125 655.8558349609375 224.083251953125Q652.1263427734375 225.528076171875 650.7740478515625 230.3411865234375Q649.4217529296875 235.154296875 652.16015625 239.4549560546875L709.700439453125 343.6956787109375L677.0086669921875 361.72216796875L620.761962890625 258.0526123046875Q609.4471435546875 239.9176025390625 615.427490234375 219.37158203125Q622.3402099609375 198.46435546875 642.4912109375 189.58544921875L643.423583984375 189.2242431640625L644.35595703125 188.863037109375Q686.8251953125 176.699462890625 715.049072265625 210.80224609375Z" fill="#000000" />
<path d="M912.4010620117188 457.262451171875 883.6229858398438 480.206298828125 752.2490844726562 315.3465576171875 781.0271606445312 292.4027099609375Z" fill="#000000" />
</g></svg>