<svg xmlns="http://www.w3.org/2000/svg" viewBox="0 0 2048 2048">
<g transform="matrix(1 0 0 -1 0 2048)">
<path d="M1008 -73V1Q1008 47 981.5 84.0Q955 121 913.0 143.5Q871 166 825 166Q660 28 495 166Q449 166 407.0 143.5Q365 121 338.5 84.0Q312 47 312 1V-73Z" fill="#92d3f5" />
<path d="M470 504Q474 512 494.5 525.5Q515 539 542.0 555.0Q569 571 593 585Q680 631 758 691Q806 641 830.5 595.5Q855 550 855 486Q855 416 829.5 359.5Q804 303 760.0 269.5Q716 236 662 236Q608 236 564.5 269.5Q521 303 495.5 359.5Q470 416 470 486Z" fill="#c19a65" />
<path d="M979 419Q998 386 1002.5 347.0Q1007 308 1002.5 272.0Q998 236 989.0 210.5Q980 185 972 180Q947 157 918 137Q883 162 840 165Q669 27 498 165Q443 160 399 127Q364 149 333 177Q334 175 330.0 193.0Q326 211 322.0 241.0Q318 271 317.5 306.5Q317 342 325.0 375.5Q333 409 354 434Q368 451 375 472Q394 525 388 581Q384 639 399 694Q411 739 444.5 773.0Q478 807 527.0 826.0Q576 845 632 845Q677 845 706.0 833.5Q735 822 749.5 809.5Q764 797 765 797Q770 791 778 790Q812 787 843.5 769.0Q875 751 895.0 722.5Q915 694 915 660Q918 605 923.0 574.0Q928 543 936.0 520.0Q944 497 958 467Q967 442 979 419ZM751 257Q815 305 840.0 356.0Q865 407 864.0 457.0Q863 507 846.0 551.5Q829 596 807.0 630.0Q785 664 768.0 683.5Q751 703 751 703Q750 695 729.5 678.0Q709 661 677.0 638.5Q645 616 609.0 593.0Q573 570 541.0 550.0Q509 530 489.0 517.5Q469 505 469 505Q453 465 459.0 426.5Q465 388 483.0 354.0Q501 320 522.5 293.5Q544 267 559.5 252.0Q575 237 575 237Q575 237 593.5 234.0Q612 231 640.0 229.5Q668 228 698.0 234.0Q728 240 751 257Z" fill="#6a462f" />
<path d="M293 -54Q293 -72 312 -72Q330 -72 330 -54V1Q330 60 381 104Q429 146 488 148Q660 9 831 148Q891 146 939 104Q990 60 990 1V-54Q990 -72 1008 -72Q1027 -72 1027 -54V1Q1027 77 963 132Q902 184 825 184Q818 184 813 180Q660 52 507 180Q502 184 495 184Q418 184 357 132Q293 77 293 1Z" fill="#000000" />
<path d="M768 496Q766 517 752 532Q742 532 728.5 527.5Q715 523 704.5 514.5Q694 506 694 496Q694 481 705.0 470.0Q716 459 731 459Q746 459 757.0 470.0Q768 481 768 496Z" fill="#000000" />
<path d="M623 496Q623 511 603.5 521.5Q584 532 568 532Q552 518 550 496Q550 481 560.5 470.0Q571 459 587 459Q602 459 612.5 470.0Q623 481 623 496Z" fill="#000000" />
<path d="M699 341Q707 325 723 333Q740 341 731 357Q713 395 660 395Q607 395 589 357Q580 341 597 333Q613 325 621 341Q630 358 660 358Q690 358 699 341Z" fill="#000000" />
<path d="M330 179Q335 171 342 170Q348 169 356 174Q371 183 361 199Q327 253 333 309Q337 343 367 410Q379 438 385 452Q401 495 399 562Q396 627 409 675Q427 742 493 784Q558 826 642 826Q733 826 775 777Q780 771 787 771Q838 766 872 729Q906 692 907 642Q907 641 907 641Q913 530 950 448Q963 419 971 399Q1016 294 947 204Q936 189 950 178Q965 167 976 182Q1058 289 1005 414Q996 433 983 463Q949 539 943 642Q943 707 899 754Q858 799 798 806Q745 862 642 862Q547 862 473 815Q395 766 373 684Q359 631 362 560Q364 501 350 466Q345 452 333 425Q301 353 297 313Q289 245 330 179Z" fill="#000000" />
<path d="M441 477Q441 362 504 283Q569 202 661 202Q753 202 817 283Q881 362 881 477Q881 595 765 710Q752 723 739 710Q706 677 577 603Q441 525 441 496ZM477 477V496Q477 504 595 571Q708 635 752 672Q844 574 844 477Q844 375 789 305Q735 239 661 239Q586 239 533 305Q477 375 477 477Z" fill="#000000" />
</g></svg>