<svg xmlns="http://www.w3.org/2000/svg" viewBox="0 0 2048 2048">
<g transform="matrix(1 0 0 -1 0 2048)">
<path d="M311.5877685546875 733.1798706054688V36.51513671875H1008.2723388671875V733.1798706054688Z" fill="#d22f27" />
<path d="M862 450V320H725V183H595V320H458V450H595V587H725V450Z" fill="#ffffff" />
<path d="M880 468H743V605H577V468H440V302H577V165H743V302H880ZM843 432V338H707V202H613V338H477V432H613V568H707V432Z" fill="#ffffff" />
<path d="M293 37Q293 18 312 18H1008Q1027 18 1027 37V733Q1027 752 1008 752H312Q293 752 293 733ZM330 715H990V55H330Z" fill="#000000" />
</g></svg>