<svg xmlns="http://www.w3.org/2000/svg" viewBox="0 0 2048 2048">
<g transform="matrix(1 0 0 -1 0 2048)">
<path d="M419 704 889 703Q907 707 905.5 717.5Q904 728 896.5 737.0Q889 746 889 746Q912 756 914.0 769.0Q916 782 908.5 794.5Q901 807 892.0 815.5Q883 824 883 824Q856 848 818.0 860.5Q780 873 738.0 875.5Q696 878 657 873Q609 868 564.5 855.5Q520 843 483.5 828.5Q447 814 424.0 802.0Q401 790 396 785Q385 775 391.5 764.0Q398 753 408.5 745.5Q419 738 419 738Q408 730 409.0 722.0Q410 714 414.5 709.0Q419 704 419 704Z" fill="#3f3f3f" />
<path d="M278.6812744140625 -38.58953857421875Q278.6812744140625 -38.58953857421875 277.0473327636719 -18.98223876953125Q275.41339111328125 0.62506103515625 277.0473327636719 32.214599609375Q278.6812744140625 63.80413818359375 288.48492431640625 99.20620727539062Q298.28857421875 134.6082763671875 320.074462890625 165.65316772460938Q341.8603515625 196.69805908203125 379.98565673828125 216.85000610351562Q418.1109619140625 237.001953125 478.02215576171875 237.001953125Q525.9511108398438 205.41241455078125 568.9782409667969 185.26046752929688Q612.00537109375 165.1085205078125 657.7557373046875 165.1085205078125H655.5771484375Q701.3275146484375 165.1085205078125 744.3546447753906 185.26046752929688Q787.3817749023438 205.41241455078125 835.3107299804688 237.001953125Q895.221923828125 237.001953125 933.3472290039062 216.85000610351562Q971.4725341796875 196.69805908203125 993.2584228515625 165.65316772460938Q1015.0443115234375 134.6082763671875 1024.8479614257812 99.20620727539062Q1034.651611328125 63.80413818359375 1036.2855529785156 32.214599609375Q1037.9194946289062 0.62506103515625 1036.2855529785156 -18.98223876953125Q1034.651611328125 -38.58953857421875 1034.651611328125 -38.58953857421875Z" fill="#ffffff" />
<path d="M821 239Q887 239 929.0 219.0Q971 199 995.0 167.5Q1019 136 1029.5 100.5Q1040 65 1042.0 33.5Q1044 2 1042.5 -18.0Q1041 -38 1041 -38Q1041 -38 1019.5 -38.0Q998 -38 928 -38Q923 -12 917.5 15.0Q912 42 897.0 67.0Q882 92 851.0 112.0Q820 132 765.5 144.5Q711 157 624 160Q669 166 700.0 176.0Q731 186 758.5 201.0Q786 216 821 239Z" fill="#d0cfce" />
<path d="M917 71Q917 71 913.5 82.0Q910 93 900.5 108.5Q891 124 872.5 138.0Q854 152 823 157L804 160Q803 148 797 138L804 127Q819 100 838.5 87.5Q858 75 876.0 72.0Q894 69 905.5 70.0Q917 71 917 71Z" fill="#ea5a47" />
<path d="M797 137Q803 148 804 159Q806 175 799 189L793 203Q767 187 742.0 176.0Q717 165 692 160L700 140Q715 110 748 110Q753 109 759 110Q767 111 774 115Q778 117 780 119Q791 126 797 137Z" fill="#ea5a47" />
<path d="M792 108 782 116 780 119Q778 118 774 116Q767 112 759 111V110L755 99Q748 71 753.5 50.5Q759 30 770.0 16.5Q781 3 790.5 -3.5Q800 -10 800 -10Q800 -10 806.0 0.5Q812 11 816.0 28.0Q820 45 816.0 66.0Q812 87 792 108Z" fill="#ea5a47" />
<path d="M748 110Q715 111 700 140L692 160Q677 157 661 157H658Q617 157 578.0 175.5Q539 194 496 223Q496 223 498.5 205.0Q501 187 513.5 162.5Q526 138 552.5 117.5Q579 97 626.5 91.0Q674 85 748 104Z" fill="#ea5a47" />
<path d="M298 -47Q345 -82 403.0 -95.0Q461 -108 515.5 -99.0Q570 -90 605 -60Q624 -43 636 -25Q655 3 653.0 26.5Q651 50 635.0 65.5Q619 81 594.5 86.5Q570 92 544 84Q537 153 516.0 193.5Q495 234 468.5 255.0Q442 276 417.5 284.5Q393 293 380 296Q342 307 305.5 297.5Q269 288 242.0 262.0Q215 236 205 199Q191 151 203.0 94.0Q215 37 261 -13Q267 -20 275 -27Q286 -37 298 -47Z" fill="#f1b31c" />
<path d="M327.351318359375 197.515380859375Q331.44921875 212.3505859375 323.93310546875 225.603759765625Q316.4169921875 238.85693359375 301.581787109375 242.954833984375Q286.74658203125 247.052734375 273.493408203125 239.53662109375Q260.240234375 232.0205078125 256.142333984375 217.185302734375Q252.04443359375 202.35009765625 259.560546875 189.096923828125Q267.07666015625 175.84375 281.911865234375 171.745849609375Q296.7470703125 167.64794921875 310.000244140625 175.1640625Q323.25341796875 182.68017578125 327.351318359375 197.515380859375Z" fill="#ea5a47" />
<path d="M433.351318359375 -15.484619140625Q437.44921875 -0.6494140625 429.93310546875 12.603759765625Q422.4169921875 25.85693359375 407.581787109375 29.954833984375Q392.74658203125 34.052734375 379.493408203125 26.53662109375Q366.240234375 19.0205078125 362.142333984375 4.185302734375Q358.04443359375 -10.64990234375 365.560546875 -23.903076171875Q373.07666015625 -37.15625 387.911865234375 -41.254150390625Q402.7470703125 -45.35205078125 416.000244140625 -37.8359375Q429.25341796875 -30.31982421875 433.351318359375 -15.484619140625Z" fill="#61b2e4" />
<path d="M1105 237 1030 256 959 -18Q955 -34 963 -48Q971 -62 987 -66Q1002 -70 1016.0 -61.5Q1030 -53 1034 -38Z" fill="#3f3f3f" />
<path d="M1121 299 1103 304 1065 314 1046 319 1030 256 1105 237Z" fill="#9b9b9a" />
<path d="M1124 462Q1124 462 1109.0 455.5Q1094 449 1076.5 434.0Q1059 419 1051.0 393.5Q1043 368 1056 330L1065 314L1103 304L1116 315Q1146 340 1151.5 366.0Q1157 392 1150.0 414.0Q1143 436 1133.5 449.0Q1124 462 1124 462Z" fill="#a57939" />
<path d="M335.63653564453125 71.36859130859375Q339.739013671875 86.20654296875 332.22418212890625 99.46484375Q324.7093505859375 112.72314453125 309.87139892578125 116.82562255859375Q295.033447265625 120.9281005859375 281.775146484375 113.41326904296875Q268.516845703125 105.8984375 264.41436767578125 91.06048583984375Q260.3118896484375 76.2225341796875 267.82672119140625 62.9642333984375Q275.341552734375 49.7059326171875 290.17950439453125 45.60345458984375Q305.0174560546875 41.5009765625 318.2757568359375 49.01580810546875Q331.5340576171875 56.5306396484375 335.63653564453125 71.36859130859375Z" fill="#fcea2b" />
<path d="M419 350Q419 350 421.5 350.0Q424 350 417.0 350.0Q410 350 381 350Q355 350 350.0 375.5Q345 401 354.5 441.5Q364 482 381.0 527.0Q398 572 416.5 612.0Q435 652 448.0 677.5Q461 703 461 703H619H701H860Q860 703 871.5 677.5Q883 652 899.5 612.0Q916 572 931.5 527.0Q947 482 954.5 441.5Q962 401 956.0 375.5Q950 350 924 350Q895 350 892.0 350.0Q889 350 895.0 350.0Q901 350 901 350Z" fill="#000000" />
<path d="M864 516Q864 445 836.0 386.0Q808 327 761.0 291.5Q714 256 657 256Q599 256 550.5 291.5Q502 327 473.5 386.0Q445 445 449 516Q450 548 475.5 575.0Q501 602 540.0 632.5Q579 663 619 703Q681 654 727.0 630.0Q773 606 803.5 593.0Q834 580 849.0 564.5Q864 549 864 516Z" fill="#a57939" />
<path d="M769.0570068359375 549.4374389648438Q769.0570068359375 564.8302001953125 758.2820739746094 575.6051330566406Q747.5071411132812 586.3800659179688 732.1143798828125 586.3800659179688Q716.7216186523438 586.3800659179688 705.9466857910156 575.6051330566406Q695.1717529296875 564.8302001953125 695.1717529296875 549.4374389648438Q695.1717529296875 534.044677734375 705.9466857910156 523.2697448730469Q716.7216186523438 512.4948120117188 732.1143798828125 512.4948120117188Q747.5071411132812 512.4948120117188 758.2820739746094 523.2697448730469Q769.0570068359375 534.044677734375 769.0570068359375 549.4374389648438Z" fill="#000000" />
<path d="M623.0570068359375 549.4374389648438Q623.0570068359375 564.8302001953125 612.2820739746094 575.6051330566406Q601.5071411132812 586.3800659179688 586.1143798828125 586.3800659179688Q570.7216186523438 586.3800659179688 559.9466857910156 575.6051330566406Q549.1717529296875 564.8302001953125 549.1717529296875 549.4374389648438Q549.1717529296875 534.044677734375 559.9466857910156 523.2697448730469Q570.7216186523438 512.4948120117188 586.1143798828125 512.4948120117188Q601.5071411132812 512.4948120117188 612.2820739746094 523.2697448730469Q623.0570068359375 534.044677734375 623.0570068359375 549.4374389648438Z" fill="#000000" />
<path d="M660 367Q691 367 723 383Q729 386 731.5 393.0Q734 400 731 407Q727 414 720.0 416.5Q713 419 706 415Q660 392 613 415Q606 419 598.5 416.5Q591 414 588 407Q585 400 587.5 393.0Q590 386 596 383Q628 367 660 367Z" fill="#000000" />
<path d="M659 247Q722 247 773.0 284.5Q824 322 855.0 385.0Q886 448 886 525Q886 553 881 579L845 574Q849 549 849 525Q849 458 823.5 403.5Q798 349 755.0 316.0Q712 283 659 283Q607 283 564.0 316.0Q521 349 495.5 403.5Q470 458 470 525Q470 552 475 579L438 585Q433 556 433 525Q433 448 463.5 385.0Q494 322 545.5 284.5Q597 247 659 247Z" fill="#000000" />
<path d="M889 685Q891 685 893 685Q908 688 914.0 695.5Q920 703 922 709Q924 717 922.0 725.5Q920 734 916 741Q924 748 927.5 755.5Q931 763 932 770Q934 786 926.0 800.5Q918 815 908.0 825.0Q898 835 895 837Q868 862 834.0 874.0Q800 886 766.0 890.5Q732 895 702.5 894.0Q673 893 655 891Q607 886 561.5 873.5Q516 861 478.0 846.0Q440 831 415.0 818.0Q390 805 383 798Q370 785 372 768Q373 758 379.5 749.0Q386 740 393 734Q391 728 391 722Q391 709 398.0 700.0Q405 691 407 689Q412 685 419 685H889Q889 685 889.0 685.0Q889 685 889 685ZM428 722Q429 723 430 723Q438 729 437 739Q436 749 428 754Q412 763 408 772Q413 775 435.0 786.5Q457 798 491.5 812.0Q526 826 569.0 838.0Q612 850 659 855Q726 863 782.5 850.5Q839 838 871 809Q880 803 888.5 792.0Q897 781 896 774Q895 770 890.0 767.0Q885 764 882 763Q873 759 871 749Q869 740 876 733Q881 728 885 721Z" fill="#000000" />
<path d="M657 855Q664 855 669.5 860.5Q675 866 675 873V930Q675 938 669.5 943.0Q664 948 657 948Q649 948 643.5 943.0Q638 938 638 930V873Q638 866 643.5 860.5Q649 855 657 855Z" fill="#000000" />
<path d="M865 558Q879 558 882 572Q884 580 880.0 586.5Q876 593 869 594Q785 616 733.5 644.0Q682 672 658.0 693.5Q634 715 633 715Q628 722 619 722Q619 722 619.0 722.0Q619 722 619 722Q611 722 605 715Q605 715 592.5 701.5Q580 688 558.5 668.5Q537 649 508.0 629.5Q479 610 445 597Q438 595 435.0 588.0Q432 581 434 574Q437 567 444.0 563.5Q451 560 458 563Q496 578 528.0 599.5Q560 621 583.5 642.0Q607 663 620 677Q642 657 700.0 621.0Q758 585 860 559Q862 558 865 558Z" fill="#000000" />
<path d="M766 132Q750 124 758 107Q766 91 782 99Q787 102 791 104Q805 114 813 129Q821 143 822 158Q824 178 815 197L810 210Q804 227 786 221Q769 214 776 197L782 183Q782 182 782 181Q787 172 786 162Q786 161 786 161Q785 154 781 146Q777 139 770 134Q769 133 766 132Z" fill="#000000" />
<path d="M783 99Q799 107 790 124Q782 140 766 132Q761 129 756 128Q755 128 755 128Q752 128 750 128Q749 128 748 128Q727 128 717 148L708 167Q701 184 684 176Q667 169 675 152L684 132Q684 132 684 131Q704 92 747 91Q754 91 762 92Q773 94 783 99Z" fill="#000000" />
<path d="M924 178Q939 168 949 183Q959 198 944 209Q896 241 823 241Q818 241 813 238Q796 226 784 219Q729 185 688 178Q675 175 660 175H658Q599 176 506 238Q498 243 492 242Q485 240 480 233Q470 217 485 207Q588 139 658 138H661Q679 139 695 142Q742 151 803 188Q814 194 829 204Q886 203 924 178Z" fill="#000000" />
<path d="M793 131Q779 142 768 128Q767 127 767 127Q765 127 764 128Q746 133 741 116L737 103Q722 49 755 6Q772 -15 791 -26Q806 -34 815 -21Q828 -2 834 25Q845 79 806 121Q805 122 804 123ZM774 99 780 95Q814 57 794 16Q759 44 773 94Z" fill="#000000" />
<path d="M514 223Q514 232 509 237Q504 241 495 241Q477 240 477 222Q479 170 515 127Q587 43 752 86Q770 90 765 108Q761 126 743 121Q600 84 543 151Q515 184 514 223Z" fill="#000000" />
<path d="M786 153Q773 145 781 130V129Q781 129 781 128L788 118Q836 35 921 53Q938 56 935 73Q922 159 826 175Q826 175 826 175L807 178Q789 180 786 162Q785 157 786 153ZM818 139H821Q878 129 894 86Q849 86 819 136Z" fill="#000000" />
<path d="M470 -121Q513 -121 551.0 -109.5Q589 -98 617 -74Q638 -55 651 -36Q691 22 656 69Q641 90 614.5 99.5Q588 109 560 106Q550 169 528.5 208.0Q507 247 480.5 268.0Q454 289 429.5 298.5Q405 308 390 312L385 314Q320 332 262 299Q204 266 187 203Q171 144 186.5 83.5Q202 23 247 -26Q254 -33 262 -41Q274 -52 287 -62Q287 -62 287 -62Q326 -91 374.5 -106.0Q423 -121 470 -121ZM309 -33Q297 -24 287 -14Q281 -8 274 -1Q236 41 222.0 92.5Q208 144 222 194Q236 242 280 267Q325 292 375 278L381 277Q395 273 417.0 264.5Q439 256 461.5 236.0Q484 216 501.5 179.0Q519 142 526 82Q527 73 534 69Q541 64 549 66Q572 73 594.0 67.5Q616 62 627 47Q646 22 621 -15Q611 -31 593 -46Q560 -75 509.5 -82.5Q459 -90 405.0 -77.0Q351 -64 309 -33Z" fill="#000000" />
<path d="M1049 305Q1057 289 1074 297Q1090 306 1081 322L1073 338Q1055 388 1089 421Q1103 433 1118 440Q1127 427 1133 409Q1145 363 1104 329L1091 318Q1077 307 1088 292Q1100 278 1114 290L1127 300Q1128 300 1128 301Q1187 351 1168 419Q1159 451 1138 475Q1130 483 1119 480Q1088 471 1064 447Q1012 398 1039 324Q1039 323 1040 321Z" fill="#000000" />
<path d="M1123 232Q1127 250 1110 254Q1092 259 1087 241L1016 -33Q1011 -53 991 -48Q983 -46 979 -39Q974 -31 977 -23L1048 251Q1052 269 1034 274Q1017 278 1012 260L941 -14Q935 -37 947 -57Q959 -78 982 -84Q1005 -90 1025 -78Q1046 -66 1052 -43Z" fill="#000000" />
<path d="M1123 232 1139 294Q1143 312 1126 317L1107 322L1069 331L1050 336Q1033 341 1028 323L1012 261Q1007 243 1025 238L1100 219Q1109 217 1115 220Q1120 223 1123 232ZM1092 259 1052 269 1059 296H1060L1098 286H1099Z" fill="#000000" />
<path d="M423 349Q430 349 435.5 354.0Q441 359 441 367Q441 375 435.5 380.0Q430 385 423 385H383Q377 385 375.0 387.0Q373 389 372 390Q364 404 370.5 436.5Q377 469 393.0 512.0Q409 555 430.0 600.5Q451 646 472 685H619Q627 685 632.5 690.5Q638 696 638 703Q638 711 632.5 716.5Q627 722 619 722Q619 722 619.0 722.0Q619 722 619 722L461 721Q450 721 445 712Q437 698 420.5 666.0Q404 634 385.5 592.5Q367 551 352.0 508.0Q337 465 332.5 428.5Q328 392 340 371Q345 364 355.0 356.5Q365 349 383 349Z" fill="#000000" />
<path d="M924 349Q942 349 952.0 356.5Q962 364 967 372Q979 392 976.0 428.5Q973 465 960.0 508.0Q947 551 930.0 592.5Q913 634 898.0 666.0Q883 698 876 711Q871 721 860 721L701 722Q701 722 701.0 722.0Q701 722 701 722Q693 722 688.0 716.5Q683 711 683 703Q683 696 688.0 690.5Q693 685 701 685H848Q868 646 887.0 600.5Q906 555 920.0 512.5Q934 470 939.0 437.5Q944 405 936 391Q934 389 932.0 387.0Q930 385 924 385H891Q883 385 877.5 380.0Q872 375 872 367Q872 359 877.5 354.0Q883 349 891 349Z" fill="#000000" />
</g></svg>