<svg xmlns="http://www.w3.org/2000/svg" viewBox="0 0 2048 2048">
<g transform="matrix(1 0 0 -1 0 2048)">
<path d="M738.1190795898438 194.721923828125Q738.1190795898438 198.50799560546875 736.6829833984375 201.83712768554688Q735.2468872070312 205.166259765625 732.7228393554688 207.6903076171875Q730.1987915039062 210.21435546875 726.8696594238281 211.65045166015625Q723.54052734375 213.0865478515625 719.7544555664062 213.0865478515625Q715.9683837890625 213.0865478515625 712.6392517089844 211.65045166015625Q709.3101196289062 210.21435546875 706.7860717773438 207.6903076171875Q704.2620239257812 205.166259765625 702.825927734375 201.83712768554688Q701.3898315429688 198.50799560546875 701.3898315429688 194.721923828125Q701.3898315429688 190.93585205078125 702.825927734375 187.60671997070312Q704.2620239257812 184.277587890625 706.7860717773438 181.7535400390625Q709.3101196289062 179.2294921875 712.6392517089844 177.79339599609375Q715.9683837890625 176.3572998046875 719.7544555664062 176.3572998046875Q723.54052734375 176.3572998046875 726.8696594238281 177.79339599609375Q730.1987915039062 179.2294921875 732.7228393554688 181.7535400390625Q735.2468872070312 184.277587890625 736.6829833984375 187.60671997070312Q738.1190795898438 190.93585205078125 738.1190795898438 194.721923828125Z" fill="#000000" />
<path d="M619.1190795898438 194.721923828125Q619.1190795898438 198.50799560546875 617.6829833984375 201.83712768554688Q616.2468872070312 205.166259765625 613.7228393554688 207.6903076171875Q611.1987915039062 210.21435546875 607.8696594238281 211.65045166015625Q604.54052734375 213.0865478515625 600.7544555664062 213.0865478515625Q596.9683837890625 213.0865478515625 593.6392517089844 211.65045166015625Q590.3101196289062 210.21435546875 587.7860717773438 207.6903076171875Q585.2620239257812 205.166259765625 583.825927734375 201.83712768554688Q582.3898315429688 198.50799560546875 582.3898315429688 194.721923828125Q582.3898315429688 190.93585205078125 583.825927734375 187.60671997070312Q585.2620239257812 184.277587890625 587.7860717773438 181.7535400390625Q590.3101196289062 179.2294921875 593.6392517089844 177.79339599609375Q596.9683837890625 176.3572998046875 600.7544555664062 176.3572998046875Q604.54052734375 176.3572998046875 607.8696594238281 177.79339599609375Q611.1987915039062 179.2294921875 613.7228393554688 181.7535400390625Q616.2468872070312 184.277587890625 617.6829833984375 187.60671997070312Q619.1190795898438 190.93585205078125 619.1190795898438 194.721923828125Z" fill="#000000" />
<path d="M851 523Q856 523 860 525Q893 548 902 586Q908 619 890 647Q899 662 906.5 683.5Q914 705 912.0 728.5Q910 752 893 774Q898 792 899.5 815.5Q901 839 893.5 861.0Q886 883 864 896Q864 915 854 930Q834 961 780 967Q661 982 541 967Q485 958 466 927Q458 913 458 897Q436 883 428.5 861.0Q421 839 422.0 815.5Q423 792 429 774Q412 752 410.0 728.5Q408 705 415.0 684.0Q422 663 432 648Q414 620 419 587Q429 548 461 526Q466 523 471 523H851Z" fill="#3f3f3f" />
<path d="M818 192Q818 190 817 189Q816 187 816 186Q814 184 813 183Q812 182 813 182Q770 143 715.5 130.0Q661 117 606.5 130.0Q552 143 509 182Q509 182 508 183Q506 186 504 189Q504 190 504 191Q503 193 503 196Q503 196 503.0 196.0Q503 196 503 196Q503 199 504 202Q503 201 504 202Q505 205 507 208Q507 208 507.0 208.0Q507 208 507 208Q508 209 508.0 209.0Q508 209 508 209Q511 211 514 213Q515 213 515.0 213.0Q515 213 516 213V281Q516 282 516 283Q516 288 519 291Q520 292 521 293V294Q523 295 525 297Q526 297 526.0 297.0Q526 297 527 298Q527 298 527.5 298.0Q528 298 528 298Q531 299 534 299Q535 299 536 299Q541 298 545 295Q546 295 547 294Q593 246 660 245Q727 245 774 293Q780 299 787 298Q795 298 800 293Q806 286 804 277V214Q806 213 807 213Q808 213 809 212Q811 211 813 209Q813 209 813.5 209.0Q814 209 814 208Q815 207 814 208Q816 205 818 202Q817 203 818 201Q819 199 819 196Q819 196 819.0 196.0Q819 196 819 196Q818 194 818 192Z" fill="#3f3f3f" />
<path d="M738.1190795898438 194.721923828125Q738.1190795898438 198.50799560546875 736.6829833984375 201.83712768554688Q735.2468872070312 205.166259765625 732.7228393554688 207.6903076171875Q730.1987915039062 210.21435546875 726.8696594238281 211.65045166015625Q723.54052734375 213.0865478515625 719.7544555664062 213.0865478515625Q715.9683837890625 213.0865478515625 712.6392517089844 211.65045166015625Q709.3101196289062 210.21435546875 706.7860717773438 207.6903076171875Q704.2620239257812 205.166259765625 702.825927734375 201.83712768554688Q701.3898315429688 198.50799560546875 701.3898315429688 194.721923828125Q701.3898315429688 190.93585205078125 702.825927734375 187.60671997070312Q704.2620239257812 184.277587890625 706.7860717773438 181.7535400390625Q709.3101196289062 179.2294921875 712.6392517089844 177.79339599609375Q715.9683837890625 176.3572998046875 719.7544555664062 176.3572998046875Q723.54052734375 176.3572998046875 726.8696594238281 177.79339599609375Q730.1987915039062 179.2294921875 732.7228393554688 181.7535400390625Q735.2468872070312 184.277587890625 736.6829833984375 187.60671997070312Q738.1190795898438 190.93585205078125 738.1190795898438 194.721923828125Z" fill="#fcea2b" />
<path d="M619.1190795898438 194.721923828125Q619.1190795898438 198.50799560546875 617.6829833984375 201.83712768554688Q616.2468872070312 205.166259765625 613.7228393554688 207.6903076171875Q611.1987915039062 210.21435546875 607.8696594238281 211.65045166015625Q604.54052734375 213.0865478515625 600.7544555664062 213.0865478515625Q596.9683837890625 213.0865478515625 593.6392517089844 211.65045166015625Q590.3101196289062 210.21435546875 587.7860717773438 207.6903076171875Q585.2620239257812 205.166259765625 583.825927734375 201.83712768554688Q582.3898315429688 198.50799560546875 582.3898315429688 194.721923828125Q582.3898315429688 190.93585205078125 583.825927734375 187.60671997070312Q585.2620239257812 184.277587890625 587.7860717773438 181.7535400390625Q590.3101196289062 179.2294921875 593.6392517089844 177.79339599609375Q596.9683837890625 176.3572998046875 600.7544555664062 176.3572998046875Q604.54052734375 176.3572998046875 607.8696594238281 177.79339599609375Q611.1987915039062 179.2294921875 613.7228393554688 181.7535400390625Q616.2468872070312 184.277587890625 617.6829833984375 187.60671997070312Q619.1190795898438 190.93585205078125 619.1190795898438 194.721923828125Z" fill="#fcea2b" />
<path d="M853 214Q901 214 941.0 189.0Q981 164 1004.5 121.0Q1028 78 1028 26V-54Q1028 -62 1022 -67Q1017 -72 1009 -72H311Q303 -72 298 -67Q292 -62 292 -54V26Q292 78 315.5 121.0Q339 164 379.0 189.0Q419 214 467 214H521Q522 214 524 214Q528 214 531 211Q532 210 533 210Q569 177 615.0 166.0Q661 155 706.5 166.0Q752 177 788 210Q789 210 790 211Q793 214 798 214Q799 214 800 214Z" fill="#ea5a47" />
<path d="M719 170Q758 182 788 210Q789 210 790 211Q793 214 798 214Q799 214 800 214H853Q901 214 941.0 189.0Q981 164 1004.5 121.0Q1028 78 1028 26V-54Q1028 -62 1022 -67Q1017 -72 1009 -72H912V-59V2Q912 31 895.0 60.5Q878 90 850.0 115.0Q822 140 788.0 155.0Q754 170 719 170Z" fill="#d22f27" />
<path d="M618.8737182617188 143.1529541015625V-73.0H701.0447387695312V143.1529541015625Z" fill="#ffffff" />
<path d="M661 209Q723 209 774.0 246.0Q825 283 855.5 345.0Q886 407 886 483Q886 509 879 534Q876 548 861 548L461 549Q446 550 443 535Q435 509 435 483Q435 407 465.5 345.0Q496 283 547.5 246.0Q599 209 661 209Z" fill="#6a462f" />
<path d="M550.9429931640625 511.43743896484375Q550.9429931640625 526.8302001953125 561.7179260253906 537.6051330566406Q572.4928588867188 548.3800659179688 587.8856201171875 548.3800659179688Q603.2783813476562 548.3800659179688 614.0533142089844 537.6051330566406Q624.8282470703125 526.8302001953125 624.8282470703125 511.43743896484375Q624.8282470703125 496.044677734375 614.0533142089844 485.2697448730469Q603.2783813476562 474.49481201171875 587.8856201171875 474.49481201171875Q572.4928588867188 474.49481201171875 561.7179260253906 485.2697448730469Q550.9429931640625 496.044677734375 550.9429931640625 511.43743896484375Z" fill="#000000" />
<path d="M697.9429931640625 511.43743896484375Q697.9429931640625 526.8302001953125 708.7179260253906 537.6051330566406Q719.4928588867188 548.3800659179688 734.8856201171875 548.3800659179688Q750.2783813476562 548.3800659179688 761.0533142089844 537.6051330566406Q771.8282470703125 526.8302001953125 771.8282470703125 511.43743896484375Q771.8282470703125 496.044677734375 761.0533142089844 485.2697448730469Q750.2783813476562 474.49481201171875 734.8856201171875 474.49481201171875Q719.4928588867188 474.49481201171875 708.7179260253906 485.2697448730469Q697.9429931640625 496.044677734375 697.9429931640625 511.43743896484375Z" fill="#000000" />
<path d="M879 552Q875 570 857 566Q848 564 844 559Q841 554 843 545Q849 514 849 483Q849 383 793 314Q738 245 661 245Q584 245 529 314Q472 384 472 483Q472 515 479 545Q482 563 465 567Q447 571 443 553Q435 518 435 483Q435 371 500 290Q566 209 661 209Q755 209 821 290Q886 371 886 483Q886 518 879 552Z" fill="#000000" />
<path d="M813 182Q826 195 814 208Q802 222 788 210Q734 160 661 160Q588 160 533 210Q527 216 520 215Q514 215 507 208Q495 195 509 182Q573 124 661 124Q748 124 813 182Z" fill="#000000" />
<path d="M859 921Q843 960 781 967Q661 982 541 967Q541 967 541 967Q478 958 463 920Q458 908 458 896Q420 874 422 819Q422 795 429 774Q399 736 415 684Q422 664 432 648Q415 621 420 588Q427 547 462 526Q466 523 471 523H851Q856 523 860 525Q895 547 902 587Q907 621 890 648Q900 664 907 683Q923 735 893 774Q899 795 900 818Q902 874 864 896Q864 908 859 921ZM776 931Q818 927 826 907Q830 899 827 891Q822 875 838 869Q884 851 856 776Q852 766 860 758Q900 715 854 659Q845 647 854 636Q871 617 867 593Q863 571 845 558L476 559Q459 571 455 593Q451 618 467 637Q477 648 468 659Q422 716 462 758Q469 766 466 777Q437 851 484 870Q500 876 494 892Q492 898 495 906Q503 925 546 932Q661 946 776 931Z" fill="#000000" />
<path d="M292 -54Q292 -72 311 -72Q329 -72 329 -54V26Q329 89 370 134Q410 178 467 178H534Q552 178 552 196V281Q552 299 534 299Q516 299 516 281V214H467Q394 214 343 159Q292 104 292 26Z" fill="#000000" />
<path d="M991 -54Q991 -72 1009 -72Q1028 -72 1028 -54V26Q1028 104 977 159Q926 214 853 214H804V279Q804 298 786 298Q768 298 768 279V196Q768 178 786 178H853Q910 178 950 134Q991 89 991 26Z" fill="#000000" />
<path d="M642 144Q642 162 624 162Q606 162 606 144V-54Q606 -72 624 -72Q642 -72 642 -54Z" fill="#000000" />
<path d="M716 144Q716 162 698 162Q680 162 680 144V-54Q680 -72 698 -72Q716 -72 716 -54Z" fill="#000000" />
<path d="M479 551Q478 560 473 564Q468 569 459 567Q440 565 443 547Q450 480 480 414Q542 275 660 275Q786 275 845 414Q879 491 879 548Q880 565 862 567Q853 567 848 563Q843 559 842 550Q842 549 842 548Q842 499 812 428Q762 312 660 312Q566 312 513 429Q486 490 479 551Z" fill="#000000" />
<path d="M645 412Q636 396 652 387Q667 377 677 393Q679 397 685 399Q696 404 715 389Q730 374 750 372Q768 369 771 388Q773 406 755 408Q746 409 740 415Q740 416 739 417Q703 447 671 433Q654 426 645 412Z" fill="#000000" />
<path d="M645 393Q655 377 670 387Q686 396 677 412Q668 426 651 433Q619 447 583 417Q582 416 582 415Q576 409 567 408Q558 407 554 402Q550 397 551 388Q554 369 572 372Q592 374 607 389Q626 404 637 399Q643 397 645 393Z" fill="#000000" />
</g></svg>