<svg xmlns="http://www.w3.org/2000/svg" viewBox="0 0 2048 2048">
<g transform="matrix(1 0 0 -1 0 2048)">
<path d="M985 547Q1032 442 1057.0 367.0Q1082 292 1091.0 241.5Q1100 191 1098.5 161.0Q1097 131 1090.5 116.0Q1084 101 1079 96Q1063 80 1041 81Q1013 82 989 95Q982 98 980 105Q979 106 979.0 106.0Q979 106 978 107Q936 175 837 177Q790 145 748.5 127.0Q707 109 663 108Q662 108 661 108H659Q659 108 658 108Q614 109 572.5 127.0Q531 145 483 177Q381 175 340 102Q339 101 338 100Q338 99 337 99Q335 96 332 95Q331 94 332 95Q308 82 280 81Q258 80 242 96Q224 113 221.5 148.5Q219 184 227.5 229.5Q236 275 251.0 324.0Q266 373 283.0 418.0Q300 463 314.5 497.0Q329 531 336 547V548Q337 549 337 550Q339 552 340 553Q342 555 343 556Q345 556 346 557Q348 558 351 558Q352 558 353 559Q354 558 355 558Q358 558 360 557Q361 556 362 556Q367 554 368 549Q369 548 370 547Q376 531 389.5 504.5Q403 478 421.0 451.0Q439 424 459.0 404.0Q479 384 500 381Q500 381 500.0 381.0Q500 381 501 381Q504 380 507 378Q508 377 509 376Q511 374 512 373Q512 372 512.0 372.0Q512 372 513 372Q540 324 578.5 297.5Q617 271 661 270Q714 269 760.5 305.5Q807 342 834 406Q835 407 836 408Q838 412 843 415Q926 456 951 545Q951 545 951.0 545.0Q951 545 951 545Q952 547 953 549Q954 552 957 554Q958 555 960 556Q960 556 960.5 556.0Q961 556 961 556Q962 557 963 557Q965 558 967 558Q970 558 973 557Q974 557 974.0 557.0Q974 557 974 557Q977 555 980 553Q981 552 982 551Q984 549 985 548Q985 548 985.0 547.5Q985 547 985 547Z" fill="#ffffff" />
<path d="M939 -73Q950 -73 955 -63Q960 -53 954 -44Q914 12 884.5 34.5Q855 57 825.5 59.5Q796 62 757 56Q709 48 660 47Q614 48 569 56Q530 61 500.0 59.5Q470 58 440.0 35.0Q410 12 370 -44Q363 -53 368 -63Q374 -73 385 -73Z" fill="#ffffff" />
<path d="M993 149Q1018 119 1029.5 84.5Q1041 50 1043.5 18.5Q1046 -13 1044.0 -34.0Q1042 -55 1042 -57Q1040 -73 1024 -73H939Q950 -73 955 -63Q960 -53 954 -44Q914 12 884.5 34.5Q855 57 825.5 59.5Q796 62 757 56Q709 48 660 47Q614 48 569 56Q530 61 500.0 59.5Q470 58 440.0 35.0Q410 12 370 -44Q363 -53 368 -63Q374 -73 385 -73H297Q281 -73 279 -57Q279 -55 277.0 -34.0Q275 -13 277.5 18.5Q280 50 291.5 84.5Q303 119 328 149Q384 214 489 214Q494 214 499 211Q545 180 583.0 162.5Q621 145 660 145Q700 145 738.0 162.5Q776 180 822 211Q826 214 832 214Q937 214 993 149Z" fill="#fadcbc" />
<path d="M661 212Q722 212 772.0 249.0Q822 286 852.0 348.5Q882 411 882 487Q877 579 840 663Q832 677 817 682Q776 696 687 647Q646 623 597.5 624.0Q549 625 509 651Q502 657 494 655Q485 653 481 645Q445 570 441 487Q438 428 459.0 372.5Q480 317 520 273Q577 213 661 212Z" fill="#fadcbc" />
<path d="M662 835Q744 835 801.5 803.0Q859 771 888.5 720.5Q918 670 918 615Q918 556 912.5 501.0Q907 446 893.5 407.5Q880 369 857 361Q881 421 882 487Q882 514 876.0 544.0Q870 574 862.0 600.5Q854 627 847.5 644.5Q841 662 840 663Q828 678 810 682Q778 682 751.5 672.0Q725 662 703.0 650.0Q681 638 662 633Q626 625 589.5 624.0Q553 623 509 651Q493 658 481 645Q446 570 441 487Q437 422 463 362Q442 373 429.0 411.5Q416 450 410.5 503.5Q405 557 405 615Q405 670 435.0 720.5Q465 771 522.0 803.0Q579 835 662 835Z" fill="#a57939" />
<path d="M279 -57Q280 -66 286 -70Q291 -74 300 -72Q318 -70 315 -51Q306 7 324 65Q358 175 483 177Q586 110 657 108Q658 108 659 108H662Q663 108 664 108Q735 110 837 177Q963 175 997 65Q1015 7 1006 -51Q1003 -70 1021 -72Q1039 -75 1042 -57Q1052 10 1032 76Q989 214 832 214Q826 214 822 211Q724 145 660 145Q597 145 499 211Q494 214 489 214Q331 214 289 76Q269 10 279 -57Z" fill="#000000" />
<path d="M924 -65Q935 -80 950 -69Q965 -59 954 -44Q898 35 854 53Q823 66 757 56Q700 47 660 47Q623 47 569 56Q503 66 471 53Q426 35 370 -44Q359 -58 374 -69Q389 -80 400 -65Q449 5 485 19Q507 28 563 19Q621 11 660 11Q703 11 762 19Q818 28 840 19Q874 5 924 -65Z" fill="#000000" />
<path d="M370 533Q377 549 360 557Q344 564 336 548Q290 446 257 340Q184 112 260 84Q268 81 274 84Q280 87 283 95Q290 112 272 119Q230 135 292 328Q325 433 370 533Z" fill="#000000" />
<path d="M985 547Q978 564 961 556Q944 549 952 532Q999 426 1031 322Q1090 134 1049 119Q1031 112 1038 95Q1044 78 1061 84Q1135 112 1066 333Q1033 439 985 547Z" fill="#000000" />
<path d="M479 340Q497 340 497 358Q497 377 479 377Q424 377 424 615Q424 695 484 753Q552 817 662 817Q772 817 839 753Q900 695 900 615Q900 508 885 443Q869 377 845 377Q827 377 827 358Q827 340 845 340Q898 340 920 434Q937 504 937 615Q937 711 865 779Q787 853 662 853Q537 853 459 779Q387 711 387 615Q387 340 479 340Z" fill="#000000" />
<path d="M770.0570068359375 505.43743896484375Q770.0570068359375 520.8302001953125 759.2820739746094 531.6051330566406Q748.5071411132812 542.3800659179688 733.1143798828125 542.3800659179688Q717.7216186523438 542.3800659179688 706.9466857910156 531.6051330566406Q696.1717529296875 520.8302001953125 696.1717529296875 505.43743896484375Q696.1717529296875 490.044677734375 706.9466857910156 479.2697448730469Q717.7216186523438 468.49481201171875 733.1143798828125 468.49481201171875Q748.5071411132812 468.49481201171875 759.2820739746094 479.2697448730469Q770.0570068359375 490.044677734375 770.0570068359375 505.43743896484375Z" fill="#000000" />
<path d="M623.0570068359375 505.43743896484375Q623.0570068359375 520.8302001953125 612.2820739746094 531.6051330566406Q601.5071411132812 542.3800659179688 586.1143798828125 542.3800659179688Q570.7216186523438 542.3800659179688 559.9466857910156 531.6051330566406Q549.1717529296875 520.8302001953125 549.1717529296875 505.43743896484375Q549.1717529296875 490.044677734375 559.9466857910156 479.2697448730469Q570.7216186523438 468.49481201171875 586.1143798828125 468.49481201171875Q601.5071411132812 468.49481201171875 612.2820739746094 479.2697448730469Q623.0570068359375 490.044677734375 623.0570068359375 505.43743896484375Z" fill="#000000" />
<path d="M687 647Q596 594 508 652Q501 657 494 656Q488 655 483 647Q482 646 482 645Q445 570 441 488Q441 487 441 487Q439 371 503 292Q567 212 661 212Q752 212 817 292Q882 372 882 487Q882 487 882 488Q877 579 840 663Q831 682 803 685Q761 688 687 647Q687 647 687 647ZM705 615Q769 650 800 648Q805 648 807 646Q840 570 845 486Q845 384 789 315Q735 248 661 248Q585 248 532 315Q476 384 477 486Q481 551 506 610Q604 556 705 615Z" fill="#000000" />
<path d="M611 371Q594 377 587 360Q584 352 587 346Q589 340 598 337Q660 313 721 337Q738 343 732 360Q725 377 708 371Q659 352 611 371Z" fill="#000000" />
<path d="M518 747Q510 751 504 749Q498 746 494 738Q486 722 502 714Q539 696 594 688Q702 670 791 714Q808 722 800 738Q796 747 790 749Q784 751 775 747Q697 708 599 724Q550 732 518 747Z" fill="#000000" />
</g></svg>