<svg xmlns="http://www.w3.org/2000/svg" viewBox="0 0 2048 2048">
<g transform="matrix(1 0 0 -1 0 2048)">
<path d="M1007 -72H313Q313 -72 311.5 -53.5Q310 -35 311.5 -5.5Q313 24 322.0 56.5Q331 89 350.5 118.5Q370 148 405.5 166.5Q441 185 496 185Q540 156 579.5 137.5Q619 119 661 119H659Q701 119 740.5 137.5Q780 156 824 185Q879 185 914.0 166.5Q949 148 969.0 118.5Q989 89 998.0 56.5Q1007 24 1008.5 -5.5Q1010 -35 1008.5 -53.5Q1007 -72 1007 -72Z" fill="#ffa7c0" />
<path d="M831 185Q886 185 921.0 166.5Q956 148 976.0 119.0Q996 90 1004.5 57.0Q1013 24 1014.5 -5.0Q1016 -34 1014.0 -52.5Q1012 -71 1012 -71H919Q915 -49 910.0 -24.0Q905 1 893.0 25.5Q881 50 855.0 70.5Q829 91 784.0 104.0Q739 117 667 119Q758 129 831 185Z" fill="#e67a94" />
<path d="M461 201V266H331V90Z" fill="#6a462f" />
<path d="M650 -72Q576 -44 529.5 -12.5Q483 19 451.5 60.0Q420 101 392 160Q405 171 430.0 176.0Q455 181 475.5 183.0Q496 185 496 185Q496 185 503.5 167.5Q511 150 533.0 121.5Q555 93 597.5 58.5Q640 24 709.0 -10.0Q778 -44 879 -73Z" fill="#a57939" />
<path d="M700 664Q725 625 766.5 603.0Q808 581 854 582Q866 540 866 497Q866 426 838.0 367.0Q810 308 762.5 273.0Q715 238 658 238Q601 238 553.5 273.0Q506 308 478.0 367.0Q450 426 450 497Q450 538 461 578Q509 579 551.5 602.0Q594 625 622 664Q656 705 658 757Q658 757 658.5 757.0Q659 757 660 757Q665 705 700 664Z" fill="#fadcbc" />
<path d="M873 461Q897 455 923.0 469.5Q949 484 974.5 509.0Q1000 534 1020.5 560.0Q1041 586 1053.5 604.0Q1066 622 1066 622L856 592Z" fill="#fadcbc" />
<path d="M451 463Q428 457 402.0 471.5Q376 486 351.0 510.5Q326 535 306.0 560.5Q286 586 273.5 604.0Q261 622 261 622L469 593Z" fill="#fadcbc" />
<path d="M657 826Q726 826 785.0 795.5Q844 765 884.0 712.0Q924 659 935 591Q883 577 844.0 580.5Q805 584 777.0 596.5Q749 609 732.0 624.5Q715 640 707.0 651.5Q699 663 699 663Q665 703 659 756H657Q655 703 621 663Q621 663 611.5 650.5Q602 638 583.0 621.5Q564 605 535.0 592.0Q506 579 467.5 576.5Q429 574 380 591Q391 659 431.0 712.0Q471 765 530.0 795.5Q589 826 657 826Z" fill="#a57939" />
<path d="M866 452Q852 380 826.5 334.5Q801 289 758.5 266.0Q716 243 649 237Q613 234 582.5 254.5Q552 275 527.5 307.5Q503 340 486.0 372.5Q469 405 459.5 427.5Q450 450 450 450L363 490Q363 490 365.5 479.5Q368 469 359.5 449.0Q351 429 319 401Q290 375 278.5 350.5Q267 326 266.5 305.5Q266 285 269.5 273.0Q273 261 273 261Q273 261 271.5 246.0Q270 231 266.5 208.5Q263 186 257.0 165.0Q251 144 241 132Q228 117 214.0 101.5Q200 86 192.0 65.0Q184 44 187.5 11.5Q191 -21 213 -71H313L335 88L330 259L470 255L472 175L511 182Q511 182 525.5 168.5Q540 155 568.0 139.5Q596 124 635.0 117.5Q674 111 723.0 124.0Q772 137 830 182Q830 182 844.5 180.5Q859 179 882.0 172.5Q905 166 929.5 150.5Q954 135 974.5 107.5Q995 80 1004.0 36.0Q1013 -8 1005 -72H1105Q1105 -72 1113.0 -55.0Q1121 -38 1128.0 -12.0Q1135 14 1131.5 41.5Q1128 69 1104 92Q1067 126 1052.5 175.0Q1038 224 1052 274Q1060 306 1046.5 329.0Q1033 352 1011.5 370.0Q990 388 975 407Q957 429 953.5 445.5Q950 462 953.0 471.0Q956 480 956 480L866 452Z" fill="#a57939" />
<path d="M770.6845703125 521.6748657226562Q770.6845703125 537.0086669921875 760.017578125 547.6756591796875Q749.3505859375 558.3426513671875 734.0167846679688 558.3426513671875Q718.6829833984375 558.3426513671875 708.0159912109375 547.6756591796875Q697.3489990234375 537.0086669921875 697.3489990234375 521.6748657226562Q697.3489990234375 507.00775146484375 708.0159912109375 496.0074157714844Q718.6829833984375 485.007080078125 734.0167846679688 485.007080078125Q749.3505859375 485.007080078125 760.017578125 496.0074157714844Q770.6845703125 507.00775146484375 770.6845703125 521.6748657226562Z" fill="#000000" />
<path d="M623.6845703125 521.6748657226562Q623.6845703125 537.0086669921875 613.017578125 547.6756591796875Q602.3505859375 558.3426513671875 587.0167846679688 558.3426513671875Q571.6829833984375 558.3426513671875 561.0159912109375 547.6756591796875Q550.3489990234375 537.0086669921875 550.3489990234375 521.6748657226562Q550.3489990234375 507.00775146484375 561.0159912109375 496.0074157714844Q571.6829833984375 485.007080078125 587.0167846679688 485.007080078125Q602.3505859375 485.007080078125 613.017578125 496.0074157714844Q623.6845703125 507.00775146484375 623.6845703125 521.6748657226562Z" fill="#000000" />
<path d="M660 338Q693 338 723 354Q733 358 733 369Q734 379 725 385Q716 391 707 386Q660 361 613 386Q606 390 599.0 387.5Q592 385 589 378Q585 371 587.5 364.0Q590 357 597 354Q627 338 660 338Z" fill="#000000" />
<path d="M917 597Q923 580 940 586Q957 591 952 609Q898 773 774 825Q700 857 659 846Q608 851 548 826Q425 774 370 613Q364 596 382 590Q390 587 396 590Q402 593 405 601Q454 747 562 792Q615 814 658 809Q660 809 663 809L661 833L662 841L673 814L666 810Q695 819 759 792Q868 745 917 597Z" fill="#000000" />
<path d="M464 574Q482 571 485 590Q487 608 469 610L262 640Q244 643 241 624Q240 618 244 612Q364 422 454 445Q471 449 467 467Q463 485 445 480Q408 471 339 547Q317 572 298 598Z" fill="#000000" />
<path d="M851 610Q842 609 838 604Q834 598 836 589Q838 571 856 574L1025 598Q1006 572 983 546Q913 469 876 478Q867 481 861 477Q856 474 853 465Q849 447 867 443Q957 420 1079 612Q1083 618 1082 624Q1079 643 1061 640Z" fill="#000000" />
<path d="M687.53076171875 639.096435546875Q687.53076171875 644.767578125 685.379638671875 649.7542724609375Q683.228515625 654.740966796875 679.44775390625 658.521728515625Q675.6669921875 662.302490234375 670.6802978515625 664.45361328125Q665.693603515625 666.604736328125 660.0224609375 666.604736328125Q654.351318359375 666.604736328125 649.3646240234375 664.45361328125Q644.3779296875 662.302490234375 640.59716796875 658.521728515625Q636.81640625 654.740966796875 634.665283203125 649.7542724609375Q632.51416015625 644.767578125 632.51416015625 639.096435546875Q632.51416015625 633.42529296875 634.665283203125 628.4385986328125Q636.81640625 623.451904296875 640.59716796875 619.671142578125Q644.3779296875 615.890380859375 649.3646240234375 613.7392578125Q654.351318359375 611.588134765625 660.0224609375 611.588134765625Q665.693603515625 611.588134765625 670.6802978515625 613.7392578125Q675.6669921875 615.890380859375 679.44775390625 619.671142578125Q683.228515625 623.451904296875 685.379638671875 628.4385986328125Q687.53076171875 633.42529296875 687.53076171875 639.096435546875Z" fill="#000000" />
<path d="M677 749Q684 766 667 773Q659 777 653 774Q647 772 643 764Q623 716 590 675Q578 661 592 650Q606 638 618 652Q655 696 677 749Z" fill="#000000" />
<path d="M677 764Q673 772 667 774Q661 777 653 773Q636 766 643 749Q666 696 703 652Q714 638 728 650Q742 661 731 675Q697 716 677 764Z" fill="#000000" />
<path d="M313 90Q313 72 332 72Q350 72 350 90V247H443V200Q443 182 461 182Q480 182 480 200V266Q480 284 461 284H332Q313 284 313 266Z" fill="#000000" />
<path d="M349 266Q349 248 367 248Q385 248 385 266V353Q385 372 367 372Q349 372 349 353Z" fill="#000000" />
<path d="M410 266Q410 247 429 247Q447 247 447 266V329Q447 347 429 347Q410 347 410 329Z" fill="#000000" />
<path d="M990 -50Q987 -69 1005 -71Q1023 -74 1026 -56Q1036 8 1016 71Q975 203 824 203Q819 203 814 200Q721 138 661 138Q600 138 507 200Q502 203 497 203Q346 203 305 71Q285 8 295 -56Q297 -65 302 -69Q307 -73 316 -71Q334 -69 332 -50Q323 5 340 61Q372 164 491 167Q589 103 658 101Q659 101 659 101H662Q663 101 664 101Q732 103 830 167Q949 164 981 61Q998 5 990 -50Z" fill="#000000" />
<path d="M489 578Q507 582 502 600Q498 618 480 614L462 609Q452 607 449 597Q434 548 434 497Q434 383 499 301Q565 218 660 218Q755 218 821 301Q886 383 886 497Q887 548 871 597Q869 605 861 608L846 614Q829 621 822 604Q815 587 832 580L839 578Q850 538 850 497Q850 395 793 324Q737 255 660 255Q583 255 528 324Q471 395 471 497Q471 537 481 576Z" fill="#000000" />
<path d="M851 610Q842 609 838 604Q834 598 836 589Q838 571 856 574L1025 598Q1006 572 983 546Q913 469 876 478Q867 481 861 477Q856 474 853 465Q849 447 867 443Q957 420 1079 612Q1083 618 1082 624Q1079 643 1061 640Z" fill="#000000" />
<path d="M873 -72Q891 -77 896 -59Q901 -42 883 -37Q675 21 572 114Q523 159 514 190Q510 204 495 203Q413 199 381 175Q369 165 376 152Q420 60 473 16Q525 -29 640 -73Q657 -79 663 -62Q670 -45 653 -39Q544 3 496 44Q454 79 416 153Q439 163 484 166Q500 130 548 87Q657 -12 873 -72Z" fill="#000000" />
<path d="M378 489Q379 508 360 508Q342 508 342 490Q341 433 302 411Q230 371 251 262Q269 179 216 132Q171 93 171 25Q171 -32 197 -65Q209 -79 223 -68Q230 -62 231 -56Q232 -49 226 -42Q208 -19 208 25Q208 77 240 105Q309 165 287 269Q271 352 319 379Q377 410 378 489Z" fill="#000000" />
<path d="M504 664Q491 676 478 663Q466 649 479 637Q535 585 608 604Q626 609 621 627Q619 635 614 639Q608 642 599 640Q545 626 504 664Z" fill="#000000" />
<path d="M841 637Q848 643 848 649Q848 656 842 663Q829 676 816 664Q775 626 721 640Q712 642 707 639Q701 635 699 627Q694 609 712 604Q785 585 841 637Z" fill="#000000" />
<path d="M975 490Q975 508 957 508Q938 508 939 489Q940 410 998 379Q1046 352 1030 269Q1008 165 1077 105Q1109 77 1109 25Q1109 -19 1091 -42Q1080 -56 1094 -68Q1108 -79 1120 -65Q1146 -32 1146 25Q1146 93 1101 132Q1048 179 1066 262Q1087 371 1015 411Q976 433 975 490Z" fill="#000000" />
</g></svg>