<svg xmlns="http://www.w3.org/2000/svg" viewBox="0 0 2048 2048">
<g transform="matrix(1 0 0 -1 0 2048)">
<path d="M872 -72V114Q847 145 813 165Q795 173 773.0 171.5Q751 170 732 170Q567 33 402 170Q357 170 315.0 148.0Q273 126 246.0 88.5Q219 51 219 5V-72Z" fill="#92d3f5" />
<path d="M879 -72V231Q879 255 904.0 281.5Q929 308 971 322Q998 331 1024.0 331.0Q1050 331 1070.0 331.0Q1090 331 1099 341L1154 396Q1162 403 1172.5 403.0Q1183 403 1191 396Q1198 388 1198.0 377.0Q1198 366 1191 359L1099 249L989 212L972 189L1007 -72Z" fill="#fadcbc" />
<path d="M374 504Q378 511 398.5 525.0Q419 539 446.0 555.0Q473 571 497 584Q584 630 662 690Q710 640 734.5 595.0Q759 550 759 486Q759 416 733.5 359.5Q708 303 664.0 269.5Q620 236 567 236Q513 236 469.0 269.5Q425 303 399.5 359.5Q374 416 374 486Z" fill="#fadcbc" />
<path d="M919 379Q928 344 925 309Q925 304 925.5 298.0Q926 292 922 289Q902 272 894.5 247.5Q887 223 884.5 202.5Q882 182 876 179Q868 171 869.5 161.0Q871 151 872.5 141.0Q874 131 864 125Q860 128 849.5 137.0Q839 146 827.0 155.0Q815 164 807 165Q790 167 774.0 165.0Q758 163 745 164Q573 25 402 164Q347 159 303 125Q268 147 237 175Q238 174 234.0 192.0Q230 210 226.0 240.0Q222 270 222.0 305.5Q222 341 229.5 374.5Q237 408 258 432Q272 449 279 470Q298 523 293 580Q288 637 303 693Q315 737 348.5 771.0Q382 805 431.0 824.5Q480 844 537 844Q581 844 610.0 832.0Q639 820 654.0 808.0Q669 796 669 795Q674 789 682 789Q716 786 747.5 768.0Q779 750 799.0 721.5Q819 693 819 659Q822 603 827.0 572.0Q832 541 840.5 518.5Q849 496 862 466Q871 441 883 418Q889 408 902.5 398.5Q916 389 919 379ZM728 349Q759 398 765.0 442.5Q771 487 761.0 525.0Q751 563 732.0 593.5Q713 624 693.0 645.5Q673 667 659.0 678.5Q645 690 645 690Q638 683 615.5 666.0Q593 649 561.5 626.5Q530 604 496.5 580.5Q463 557 434.0 536.5Q405 516 386.5 503.5Q368 491 368 491Q352 454 360.0 417.0Q368 380 389.5 346.5Q411 313 436.0 287.0Q461 261 479.0 246.0Q497 231 497 231Q497 231 509.0 225.0Q521 219 543.0 216.0Q565 213 594.0 222.0Q623 231 657.0 260.5Q691 290 728 349Z" fill="#a57939" />
<path d="M201 -55Q201 -73 219 -73Q237 -73 237 -55V0Q237 59 288 103Q336 145 396 147Q567 8 739 147Q770 145 799 133Q815 126 823 143Q830 160 813 167Q774 183 733 184Q726 184 721 179Q567 52 414 179Q409 184 402 184Q325 184 264 131Q201 76 201 0Z" fill="#000000" />
<path d="M675.0570068359375 495.43743896484375Q675.0570068359375 510.8302001953125 664.2820739746094 521.6051330566406Q653.5071411132812 532.3800659179688 638.1143798828125 532.3800659179688Q622.7216186523438 532.3800659179688 611.9466857910156 521.6051330566406Q601.1717529296875 510.8302001953125 601.1717529296875 495.43743896484375Q601.1717529296875 480.044677734375 611.9466857910156 469.2697448730469Q622.7216186523438 458.49481201171875 638.1143798828125 458.49481201171875Q653.5071411132812 458.49481201171875 664.2820739746094 469.2697448730469Q675.0570068359375 480.044677734375 675.0570068359375 495.43743896484375Z" fill="#000000" />
<path d="M529.0570068359375 495.43743896484375Q529.0570068359375 510.8302001953125 518.2820739746094 521.6051330566406Q507.50714111328125 532.3800659179688 492.1143798828125 532.3800659179688Q476.72161865234375 532.3800659179688 465.9466857910156 521.6051330566406Q455.1717529296875 510.8302001953125 455.1717529296875 495.43743896484375Q455.1717529296875 480.044677734375 465.9466857910156 469.2697448730469Q476.72161865234375 458.49481201171875 492.1143798828125 458.49481201171875Q507.50714111328125 458.49481201171875 518.2820739746094 469.2697448730469Q529.0570068359375 480.044677734375 529.0570068359375 495.43743896484375Z" fill="#000000" />
<path d="M521 365Q504 373 496 357Q492 349 494 343Q496 337 504 332Q567 300 631 332Q647 341 639 357Q630 373 614 365Q567 341 521 365Z" fill="#000000" />
<path d="M989 -57Q992 -75 1010 -73Q1028 -70 1026 -52L991 184L1000 197L1105 231Q1110 233 1113 237L1204 347Q1235 378 1204 408Q1172 440 1141 408L1086 353Q1082 350 1049 350Q995 350 965 340Q861 305 861 231V-55Q861 -73 879 -73Q897 -73 897 -55V231Q897 278 977 305Q1001 313 1049 313Q1097 313 1112 328L1167 383Q1172 388 1178 383Q1183 377 1178 372Q1177 371 1177 371L1088 265L983 230Q978 228 974 223L957 200Q953 194 954 187Z" fill="#000000" />
<path d="M235 179Q240 171 246 170Q252 168 260 173Q276 183 266 198Q231 253 238 308Q242 343 271 410Q283 438 289 452Q306 494 303 561Q300 627 313 674Q331 742 397 784Q462 825 547 825Q638 825 680 777Q685 771 692 770Q742 766 776 729Q811 692 811 641Q811 641 811 640Q817 530 854 447Q867 418 875 399Q884 380 888 359Q891 341 909 345Q927 348 924 366Q919 391 909 413Q901 433 888 462Q853 538 848 642Q847 706 803 754Q762 798 702 806Q649 862 547 862Q451 862 377 815Q300 765 278 684Q264 631 266 560Q269 501 255 465Q250 452 238 425Q206 352 201 312Q193 244 235 179Z" fill="#000000" />
<path d="M345 477Q345 362 409 282Q473 202 565 202Q657 202 722 282Q785 362 785 477Q785 594 670 710Q657 723 644 710Q610 676 481 602Q345 525 345 495ZM382 477V495Q382 504 499 571Q612 635 656 671Q749 573 749 477Q749 374 693 305Q640 239 565 239Q491 239 437 305Q382 374 382 477Z" fill="#000000" />
</g></svg>