<svg xmlns="http://www.w3.org/2000/svg" viewBox="0 0 2048 2048">
<g transform="matrix(1 0 0 -1 0 2048)">
<path d="M1065 -73V0Q1065 49 1034.0 89.0Q1003 129 957 149Q901 173 848 140Q803 113 759.5 106.5Q716 100 663.0 116.5Q610 133 537 175Q534 176 540.0 177.5Q546 179 552.0 180.5Q558 182 556 182Q502 187 453 161Q407 135 375.5 93.0Q344 51 332 0L313 -73Z" fill="#92d3f5" />
<path d="M717 825Q786 825 834.5 803.5Q883 782 914.0 745.0Q945 708 959.0 662.0Q973 616 973 568Q973 504 970.0 450.0Q967 396 952.0 363.0Q937 330 900 330H886Q920 399 918 477Q919 524 900 568Q880 589 857.5 614.0Q835 639 815.5 662.0Q796 685 784.0 700.0Q772 715 772 715Q735 688 701.5 662.0Q668 636 628.0 616.0Q588 596 533 587Q533 587 528.5 578.5Q524 570 519.0 546.0Q514 522 514 477Q512 400 545 330H533Q497 330 481.5 363.0Q466 396 463.0 450.0Q460 504 460 568Q460 616 474.5 662.0Q489 708 519.5 745.0Q550 782 599.0 803.5Q648 825 717 825Z" fill="#6a462f" />
<path d="M514 477Q514 523 519.0 546.5Q524 570 529.0 578.5Q534 587 534 587Q589 596 628.5 616.0Q668 636 701.5 662.0Q735 688 772 715Q772 715 784.0 700.5Q796 686 815.5 663.0Q835 640 857.5 614.5Q880 589 900 569Q919 525 919 477Q919 394 891.0 337.0Q863 280 816.5 250.0Q770 220 716 220Q660 220 614.5 250.0Q569 280 541.5 337.0Q514 394 514 477Z" fill="#c19a65" />
<path d="M346 -73H241L329 138L325 152Q316 183 324 214L347 306Q349 314 354 319L458 424Q458 424 467.0 427.5Q476 431 485.5 429.5Q495 428 497 415Q498 390 480 373L421 313Q421 313 436.0 306.5Q451 300 467.5 287.5Q484 275 489.0 258.0Q494 241 474 220L492 203V188Q492 161 469 144Q440 122 405 115Z" fill="#c19a65" />
<path d="M534 312Q552 312 552 331Q551 340 547 344Q542 349 533 348Q516 348 506 360Q508 364 515 374Q537 407 533 425Q528 453 482 455Q478 526 478 568Q478 669 534 733Q597 807 717 807Q837 807 900 733Q955 669 955 568Q955 447 946 405Q934 348 900 348Q882 348 882 330Q882 312 900 312Q964 312 982 397Q992 443 992 568Q992 682 928 757Q854 843 717 843Q580 843 506 757Q442 682 442 568Q442 520 446 436Q446 427 451 422Q456 418 465 418Q487 419 497 416V418Q498 415 484 394Q461 360 473 343Q495 310 534 312ZM504 363Q503 363 503 364Q503 364 503 364Q503 363 504 363Z" fill="#000000" />
<path d="M1047 -55Q1047 -73 1065 -73Q1083 -73 1083 -55V0Q1083 76 1020 131Q959 183 882 183Q875 183 870 179Q717 51 564 179Q549 191 538 177Q532 170 532 163Q533 157 540 151Q714 6 888 147Q948 144 996 103Q1047 59 1047 0Z" fill="#000000" />
<path d="M824.6845703125 494.67486572265625Q824.6845703125 510.0086669921875 814.017578125 520.6756591796875Q803.3505859375 531.3426513671875 788.0167846679688 531.3426513671875Q772.6829833984375 531.3426513671875 762.0159912109375 520.6756591796875Q751.3489990234375 510.0086669921875 751.3489990234375 494.67486572265625Q751.3489990234375 480.00775146484375 762.0159912109375 469.0074157714844Q772.6829833984375 458.007080078125 788.0167846679688 458.007080078125Q803.3505859375 458.007080078125 814.017578125 469.0074157714844Q824.6845703125 480.00775146484375 824.6845703125 494.67486572265625Z" fill="#000000" />
<path d="M677.6845703125 494.67486572265625Q677.6845703125 510.0086669921875 667.017578125 520.6756591796875Q656.3505859375 531.3426513671875 641.0167846679688 531.3426513671875Q625.6829833984375 531.3426513671875 615.0159912109375 520.6756591796875Q604.3489990234375 510.0086669921875 604.3489990234375 494.67486572265625Q604.3489990234375 480.00775146484375 615.0159912109375 469.0074157714844Q625.6829833984375 458.007080078125 641.0167846679688 458.007080078125Q656.3505859375 458.007080078125 667.017578125 469.0074157714844Q677.6845703125 480.00775146484375 677.6845703125 494.67486572265625Z" fill="#000000" />
<path d="M496 477Q496 350 559 275Q620 202 716 202Q810 202 872 275Q937 351 937 477Q938 528 917 576Q916 579 913 581Q859 636 786 726Q775 740 761 730Q750 721 728 704Q619 620 530 605Q525 604 521 600Q496 576 496 477ZM532 477Q532 552 543 570Q638 588 751 676Q761 684 769 690Q834 609 885 558Q901 519 900 477Q900 364 844 298Q793 238 716 238Q637 238 587 298Q532 364 532 477Z" fill="#000000" />
<path d="M654 370Q644 365 644 353V348Q644 337 654 332Q717 300 780 332Q790 337 790 348V353Q790 365 780 370Q717 402 654 370Z" fill="#000000" />
<path d="M379 518Q368 533 354 522Q339 511 350 496Q379 458 349 420Q338 405 352 394Q359 388 366 389Q372 390 378 397Q425 457 379 518Z" fill="#000000" />
<path d="M305 549Q300 557 294 559Q288 561 280 557Q264 549 272 532Q314 452 261 379Q250 365 265 354Q280 343 291 358Q332 415 323 488Q318 524 305 549Z" fill="#000000" />
<path d="M466 231Q459 224 459 218Q459 211 466 205Q479 192 492 205Q517 231 511 259Q506 281 484 299Q472 309 457 317L497 357Q522 380 520 413Q520 414 520 415Q515 450 478 445Q466 444 454 438Q451 436 449 434L346 329Q337 320 334 308L311 216Q302 180 312 144L314 137L232 -48Q228 -56 231 -62Q233 -69 241 -72Q258 -80 265 -63L351 128Q353 135 351 141L347 155Q340 181 346 207L370 299Q370 302 372 304L473 406Q478 408 483 409V410Q484 395 472 384Q472 384 471 383L412 323Q409 321 408 317Q405 308 408 302Q411 296 419 293Q443 285 461 271Q473 260 475 252Q477 243 466 231Z" fill="#000000" />
<path d="M515 201Q515 210 510 215Q506 219 496 219Q478 219 478 201V186Q478 167 463 156Q463 155 462 155Q438 135 407 129Q398 127 395 122Q391 116 393 107Q397 89 415 93Q454 101 485 127Q514 149 515 186Z" fill="#000000" />
<path d="M428 105Q435 122 417 128Q409 131 403 129Q397 126 394 117L334 -49Q328 -66 345 -72Q354 -75 359 -73Q365 -70 368 -61Z" fill="#000000" />
</g></svg>