<svg xmlns="http://www.w3.org/2000/svg" viewBox="0 0 2048 2048">
<g transform="matrix(1 0 0 -1 0 2048)">
<path d="M802 0Q800 -5 796 -9V-10Q784 -22 767 -21Q752 -21 742.0 -10.0Q732 1 732 15Q733 29 744 38Q745 39 745 39Q748 42 755.5 54.0Q763 66 770.5 94.0Q778 122 780 173Q780 181 777 189Q774 198 768.5 216.5Q763 235 756.5 256.0Q750 277 745.5 293.0Q741 309 741 314L816 286L854 229Q867 106 802 0Z" fill="#6a462f" />
<path d="M609 16Q609 10 607 4Q607 4 607.0 4.0Q607 4 607 4Q601 -13 585 -19Q572 -26 557.5 -21.5Q543 -17 536 -4Q528 15 541 31Q546 36 553 40Q560 50 563.0 74.0Q566 98 550 145L533 193L553 240L592 247Q615 202 612 150Q614 83 609 16Z" fill="#6a462f" />
<path d="M372 550Q361 569 343.5 576.5Q326 584 311.5 585.0Q297 586 297 586Q266 588 256.0 601.0Q246 614 247.0 628.0Q248 642 250 648Q251 651 250 655Q240 680 248.0 688.5Q256 697 269.0 697.0Q282 697 288 697Q312 696 322.0 702.5Q332 709 334.0 715.0Q336 721 336 721Q339 737 351.0 743.5Q363 750 373.5 751.0Q384 752 384 752L479 738Q495 738 506.0 725.0Q517 712 523.5 695.0Q530 678 533.0 665.5Q536 653 536 653Q542 607 564.5 581.5Q587 556 616.5 544.5Q646 533 674.5 530.5Q703 528 722.5 530.0Q742 532 744 532Q792 546 827.5 545.5Q863 545 884.5 539.5Q906 534 914 531Q917 529 921 530Q959 543 976.5 560.0Q994 577 999.5 593.5Q1005 610 1003.5 620.5Q1002 631 1002 631Q994 659 982.5 669.0Q971 679 959.5 678.0Q948 677 939.0 671.5Q930 666 927 662Q925 661 924 658Q923 656 917.0 646.5Q911 637 905.0 627.5Q899 618 899 616Q890 593 878.0 595.0Q866 597 860.0 615.0Q854 633 861 657Q867 676 877 694Q885 709 896.5 721.0Q908 733 923 741Q947 753 969.0 752.5Q991 752 1009.0 744.5Q1027 737 1038.5 728.5Q1050 720 1053 717Q1057 714 1059.5 711.5Q1062 709 1063 708Q1086 685 1088.0 658.5Q1090 632 1079.5 606.5Q1069 581 1053.5 560.5Q1038 540 1025.5 527.0Q1013 514 1012 513Q1007 508 998.5 495.5Q990 483 984.5 470.5Q979 458 980 452Q981 452 979.0 450.5Q977 449 977 449Q967 368 970.0 326.0Q973 284 980.0 267.5Q987 251 991 248L993 245Q1005 221 1011.5 190.5Q1018 160 1021.0 130.5Q1024 101 1024.5 80.0Q1025 59 1025 54Q1025 52 1026 51Q1036 19 1028.0 4.5Q1020 -10 1007.0 -14.0Q994 -18 989 -18L985 -17Q960 -8 956.0 4.0Q952 16 958.0 26.0Q964 36 968 40L971 45Q978 78 969.0 110.5Q960 143 936 168L934 170Q914 180 890.0 198.5Q866 217 842.5 237.5Q819 258 801.0 274.0Q783 290 778 296Q775 298 772 299Q712 305 670.5 294.0Q629 283 605.5 269.5Q582 256 578 252L576 250Q550 209 528.0 196.0Q506 183 493.0 184.0Q480 185 480 185Q439 196 406 168Q400 163 403 156Q410 142 406 126L404 122Q391 105 380.0 102.5Q369 100 360.5 105.5Q352 111 347.0 117.5Q342 124 342 124Q331 146 336.5 165.0Q342 184 356.5 198.5Q371 213 388.0 223.0Q405 233 417.5 238.5Q430 244 430 244Q459 252 468.5 263.5Q478 275 476.0 286.0Q474 297 468.5 304.0Q463 311 463 311Q450 320 441.5 335.5Q433 351 429.0 365.0Q425 379 424 383Q424 384 424 384Q421 475 372 550Z" fill="#a57939" />
<path d="M766 289Q763 298 757 300Q751 303 743 300Q734 297 731 292Q728 286 731 277Q734 267 763 191Q765 184 766 183Q767 178 767 174Q762 75 737 54Q737 53 736 53Q727 45 730 35Q731 30 736 26Q736 25 736 25Q747 15 760 25Q760 25 760 25Q760 25 760 25Q798 57 804 172Q804 184 800 196Q800 197 797 204Q769 280 766 289ZM767 40Q767 44 765 48Q767 44 767 40Z" fill="#000000" />
<path d="M777 1Q763 -11 776 -25Q788 -38 801 -26Q879 43 873 230Q872 239 868 243Q863 248 854 247Q835 247 836 229Q842 59 777 1Z" fill="#000000" />
<path d="M760 25 737 53Q721 39 717 19V18V17Q713 -34 764 -39Q790 -41 807 -21L792 -10L805 3L791 18L778 2Q774 -3 767 -3Q753 -1 753 13Q755 20 760 25Z" fill="#000000" />
<path d="M550 199 516 187 532 139Q554 76 539 53L528 44V43Q507 19 519 -11V-12H520Q545 -60 593 -36Q615 -26 624 -3L625 -2V-1Q627 7 627 16Q632 83 630 150Q632 173 628 196Q623 227 609 256L576 239Q588 216 592 190Q595 171 594 152V151V150Q596 84 591 18V17V16Q591 13 590 10Q590 10 590 10Q586 1 578 -3H577Q561 -11 552 4Q550 11 555 18L566 28L567 29Q596 68 567 150Z" fill="#000000" />
<path d="M356 164Q361 182 344 187Q335 190 329 187Q324 184 321 175Q312 145 325 116Q345 68 393 87H394H395Q432 104 415 161Q410 178 392 173Q383 171 380 165Q377 159 380 150Q387 125 380 121Q365 115 359 130V131V132Q351 147 356 164Z" fill="#000000" />
<path d="M382 170Q371 156 385 144Q398 132 410 146Q431 171 464 170Q467 169 469 169Q527 148 558 203Q567 219 551 228Q535 236 526 220Q510 193 481 204H480Q472 206 465 206Q415 208 382 170Z" fill="#000000" />
<path d="M998 438Q999 456 980 457Q962 458 961 440L956 337Q951 263 975 240Q998 207 994 167V165V164Q1004 58 1007 18Q1008 -1 1026 1Q1044 2 1043 20Q1040 61 1030 165Q1035 219 1004 263L1002 265L1001 267Q989 276 992 335Z" fill="#000000" />
<path d="M871 615Q864 598 881 591Q899 584 905 602Q930 664 953 664Q962 663 969 655Q998 619 977 590Q961 568 924 552Q919 550 913 552Q861 573 741 550Q658 543 612 567Q592 577 587 587H586Q554 650 532 717Q524 740 502 750H501Q453 766 402 770Q329 778 318 727Q315 718 310 716V715H275H274Q232 713 229 674Q228 662 232 649Q226 606 265 580Q284 568 304 565L306 564H307Q333 564 352 546Q392 486 402 413Q406 339 439 310Q461 289 456 279Q452 274 445 271Q338 232 321 174Q316 157 334 152Q352 147 357 164Q368 204 458 237Q477 244 487 261Q507 295 464 337V338Q442 356 438 416V417Q428 500 381 569L380 570L379 572Q350 600 310 601Q297 603 285 611Q265 624 269 648L270 653L268 658Q265 665 266 672Q266 678 276 679H309Q339 678 353 715L354 716V718Q358 738 398 733H399Q445 730 488 716Q494 713 497 706Q520 636 554 571Q589 499 746 514H747Q857 535 899 518Q918 510 938 518H939Q985 539 1007 569Q1044 620 997 678Q980 700 953 700Q905 701 871 615Z" fill="#000000" />
<path d="M1043 21Q1041 39 1023 37Q1005 35 1007 17Q1008 6 1004 3Q999 -1 988 0H987Q971 0 971 15Q972 27 976 38Q981 55 964 61Q946 66 941 49Q936 34 934 19V18V16Q934 -36 986 -37Q1010 -38 1026 -26Q1047 -11 1043 21Z" fill="#000000" />
<path d="M1043 20Q1042 38 1024 37Q1005 36 1007 18V10Q1008 -8 1027 -7Q1045 -5 1044 13Z" fill="#000000" />
<path d="M938 37Q933 20 950 14Q968 9 973 27Q999 113 959 171Q954 179 945 185Q851 246 816 296Q803 313 782 315Q585 332 522 214Q518 206 520 200Q522 194 530 189Q538 185 544 187Q550 189 554 197Q606 294 779 278Q784 278 786 275Q825 219 925 154Q928 152 929 150Q959 106 938 37Z" fill="#000000" />
<path d="M428 469 438 414Q441 369 453.5 352.0Q466 335 466 335Q484 319 491 297Q540 306 579 276Q640 312 710 315Q690 415 720 512Q668 511 635.5 520.0Q603 529 588.0 538.5Q573 548 573 548Q552 511 526.5 493.5Q501 476 478.5 471.5Q456 467 442.0 468.0Q428 469 428 469Z" fill="#d22f27" />
<path d="M626.199951171875 389.4351806640625V426.0533447265625H542.234130859375V389.4351806640625Z" fill="#ffffff" />
<path d="M565.4351806640625 365.800048828125H602.0533447265625V449.765869140625H565.4351806640625Z" fill="#ffffff" />
</g></svg>