<svg xmlns="http://www.w3.org/2000/svg" viewBox="0 0 2048 2048">
<g transform="matrix(1 0 0 -1 0 2048)">
<path d="M1007 -34Q1006 -34 1014.5 -13.0Q1023 8 1026 34Q1028 57 1021.0 92.0Q1014 127 992.0 161.0Q970 195 927.5 216.0Q885 237 816 233Q787 214 760.0 194.0Q733 174 707.0 160.5Q681 147 653 147H655Q613 147 573.5 165.5Q534 184 490 213Q435 213 399.5 195.0Q364 177 344.5 149.0Q325 121 316.0 89.5Q307 58 305.5 29.5Q304 1 305.5 -16.5Q307 -34 307 -34Z" fill="#a57939" />
<path d="M728 79H586L657 -29Z" fill="#3f3f3f" />
<path d="M950 644Q950 644 960.5 633.0Q971 622 979.0 603.0Q987 584 980.0 559.5Q973 535 938 508Q660 392 381 508Q346 535 339.0 559.5Q332 584 340.0 603.0Q348 622 359.0 633.0Q370 644 370 644Q387 658 411.5 662.5Q436 667 462 665Q516 661 563 633Q586 618 610.5 611.5Q635 605 660 605Q684 605 708.5 611.5Q733 618 756 633Q803 661 857 665Q883 667 908.0 662.5Q933 658 950 644Z" fill="#d22f27" />
<path d="M656 913H663Q662 913 661.0 913.0Q660 913 659 913Q659 913 658.0 913.0Q657 913 656 913Z" fill="#ea5a47" />
<path d="M659 913Q697 912 735.0 901.5Q773 891 804.5 866.0Q836 841 855.5 796.0Q875 751 876 683L881 667Q868 668 854 667Q802 663 756 637Q734 624 710.0 618.0Q686 612 663 611Q639 612 615.5 618.0Q592 624 569 637Q524 663 471 667Q454 668 438 666L443 683Q444 751 463.5 796.0Q483 841 514.5 866.0Q546 891 584.0 901.5Q622 912 659 913Z" fill="#ea5a47" />
<path d="M1167 337Q1152 323 1127.0 306.5Q1102 290 1076.5 275.0Q1051 260 1034.0 250.0Q1017 240 1017 240L1073 173Q1073 173 1085.5 189.0Q1098 205 1117.5 227.5Q1137 250 1157.5 272.0Q1178 294 1193 306Z" fill="#9b9b9a" />
<path d="M965.5296630859375 197.6298828125 1021.0609130859375 130.7392578125 1072.7841186523438 173.67718505859375 1017.2528686523438 240.56781005859375Z" fill="#9b9b9a" />
<path d="M966 197Q966 197 948.0 184.0Q930 171 904.0 148.0Q878 125 853.0 95.5Q828 66 813.0 32.5Q798 -1 804 -35H899Q897 -18 909.0 4.0Q921 26 939.5 48.0Q958 70 976.5 88.5Q995 107 1008.0 118.5Q1021 130 1021 130Z" fill="#3f3f3f" />
<path d="M581 717Q601 706 629.0 700.0Q657 694 686.0 697.0Q715 700 738 717V802L656 910L581 803Z" fill="#fcea2b" />
<path d="M819 219Q776 191 738.0 173.0Q700 155 659 155H657Q657 155 656.5 155.0Q656 155 656 155Q615 155 576.0 173.5Q537 192 494 221L586 79H728L820 218Z" fill="#a57939" />
<path d="M656 611Q636 611 607.0 619.5Q578 628 549.5 639.5Q521 651 502.0 659.0Q483 667 483 667Q466 636 457.0 599.5Q448 563 448 523Q448 451 476.0 392.0Q504 333 551.0 298.0Q598 263 656 263Q713 263 760.0 298.0Q807 333 835.0 392.0Q863 451 863 523Q863 563 854.0 600.0Q845 637 828 668Q828 668 809.0 659.5Q790 651 761.5 640.0Q733 629 704.0 620.0Q675 611 656 611Z" fill="#a57939" />
<path d="M437 667Q424 638 425.0 606.0Q426 574 434.0 551.0Q442 528 450 528Q463 526 471.5 539.5Q480 553 485.0 572.0Q490 591 492.0 605.5Q494 620 494 620Q496 594 504.0 588.0Q512 582 523.0 588.0Q534 594 546.0 607.5Q558 621 568 634Z" fill="#000000" />
<path d="M743 634Q753 621 765.0 607.5Q777 594 788.0 588.0Q799 582 807.0 588.0Q815 594 817 620Q817 620 819.0 605.5Q821 591 826.0 572.0Q831 553 839.5 539.5Q848 526 861 528Q870 528 878.0 551.0Q886 574 886.5 606.0Q887 638 875 667Z" fill="#000000" />
<path d="M769.6845703125 549.6748657226562Q769.6845703125 565.0086669921875 759.017578125 575.6756591796875Q748.3505859375 586.3426513671875 733.0167846679688 586.3426513671875Q717.6829833984375 586.3426513671875 707.0159912109375 575.6756591796875Q696.3489990234375 565.0086669921875 696.3489990234375 549.6748657226562Q696.3489990234375 535.0077514648438 707.0159912109375 524.0074157714844Q717.6829833984375 513.007080078125 733.0167846679688 513.007080078125Q748.3505859375 513.007080078125 759.017578125 524.0074157714844Q769.6845703125 535.0077514648438 769.6845703125 549.6748657226562Z" fill="#000000" />
<path d="M622.6845703125 549.6748657226562Q622.6845703125 565.0086669921875 612.017578125 575.6756591796875Q601.3505859375 586.3426513671875 586.0167846679688 586.3426513671875Q570.6829833984375 586.3426513671875 560.0159912109375 575.6756591796875Q549.3489990234375 565.0086669921875 549.3489990234375 549.6748657226562Q549.3489990234375 535.0077514648438 560.0159912109375 524.0074157714844Q570.6829833984375 513.007080078125 586.0167846679688 513.007080078125Q601.3505859375 513.007080078125 612.017578125 524.0074157714844Q622.6845703125 535.0077514648438 622.6845703125 549.6748657226562Z" fill="#000000" />
<path d="M660 366Q691 366 723 382Q729 385 731.5 392.0Q734 399 731 406Q727 413 720.0 415.5Q713 418 706 414Q660 391 613 414Q606 418 598.5 415.5Q591 413 588 406Q585 399 587.5 392.0Q590 385 596 382Q628 366 660 366Z" fill="#000000" />
<path d="M660 247Q722 247 773.5 284.5Q825 322 855.5 385.0Q886 448 886 525Q886 532 880.5 537.5Q875 543 868 543Q860 543 854.5 537.5Q849 532 849 525Q849 458 823.5 403.0Q798 348 755.0 315.5Q712 283 660 283Q607 283 564.0 315.5Q521 348 495.5 403.0Q470 458 470 525Q470 532 464.5 537.5Q459 543 452 543Q444 543 438.5 537.5Q433 532 433 525Q433 448 464.0 385.0Q495 322 546.0 284.5Q597 247 660 247Z" fill="#000000" />
<path d="M310 -34Q312 -34 313 -34Q321 -33 325.5 -27.0Q330 -21 328 -13Q328 -13 327.0 4.0Q326 21 327.5 47.5Q329 74 338.0 102.5Q347 131 367 155Q408 202 488 204Q534 174 573.5 156.5Q613 139 655 138Q656 138 656 138Q657 138 657 138H658Q658 138 658.0 138.0Q658 138 658 138Q659 138 659 138Q702 139 741.5 156.5Q781 174 827 204Q854 203 877 198Q884 196 890.5 199.5Q897 203 899 211Q901 218 897.0 224.5Q893 231 886 233Q856 241 821 241Q816 241 811 238Q768 209 731.5 192.0Q695 175 657 175Q620 175 583.5 192.0Q547 209 504 238Q499 241 494 241Q393 241 339 179Q315 150 304.0 117.0Q293 84 291.0 53.5Q289 23 290.5 3.0Q292 -17 292 -19Q295 -34 310 -34Z" fill="#000000" />
<path d="M666 677Q688 677 709.5 683.0Q731 689 749 702Q757 708 757 717V802Q757 808 753 813L671 921Q665 928 656 928Q647 928 641 920L566 814Q562 809 562 803V717Q562 706 572 701Q592 691 616.5 684.0Q641 677 666 677ZM599 729V797L657 879L720 795V727Q694 712 660.0 714.5Q626 717 599 729Z" fill="#000000" />
<path d="M871 219Q871 226 865.5 231.5Q860 237 853 237Q842 237 836 227Q833 234 825 237Q813 241 805 230L657 16L509 233Q501 244 488 240Q480 237 476 229Q471 237 461 237Q453 237 448.0 232.0Q443 227 443 219V-17Q443 -24 448.0 -29.5Q453 -35 461 -35H494Q501 -35 506.5 -29.5Q512 -24 512 -17V163L641 -26Q647 -34 657 -34Q666 -34 672 -27L802 161V8Q802 -6 816 -9Q820 -10 824 -9Q821 19 835.0 46.5Q849 74 871 98Z" fill="#000000" />
<path d="M728 69Q735 69 740.5 74.5Q746 80 746 88Q746 95 740.5 100.5Q735 106 728 106H586Q579 106 573.5 100.5Q568 95 568 88Q568 80 573.5 74.5Q579 69 586 69Z" fill="#000000" />
<path d="M873 665Q873 665 873.0 665.0Q873 665 873 665Q881 665 886.0 670.0Q891 675 891 683Q891 763 866.0 812.0Q841 861 804.5 886.5Q768 912 729.5 921.0Q691 930 663 931Q662 931 660 931H653Q652 931 650 931Q622 930 583.5 921.0Q545 912 508.5 886.5Q472 861 447.5 812.0Q423 763 422 683Q422 675 427.0 670.0Q432 665 440 665Q448 664 453.0 669.5Q458 675 459 683Q459 748 477.0 789.0Q495 830 524.0 853.0Q553 876 588.0 885.0Q623 894 657 895Q691 894 725.5 885.0Q760 876 789.0 853.0Q818 830 836.0 789.0Q854 748 855 683Q855 675 860.0 670.0Q865 665 873 665Z" fill="#000000" />
<path d="M862 510Q864 510 866 510Q871 510 877.5 513.5Q884 517 890 526Q899 539 904.5 564.5Q910 590 908.5 619.5Q907 649 896 675Q892 682 885.0 684.5Q878 687 871 684Q864 681 861.5 674.0Q859 667 862 660Q871 639 872.0 616.0Q873 593 869.0 574.5Q865 556 861 548Q855 554 848.5 576.0Q842 598 839 622Q837 638 821 638Q821 638 821.0 638.0Q821 638 821 638Q804 638 803 621Q802 611 800 605Q796 607 787.0 615.5Q778 624 762 645Q758 651 750.5 652.0Q743 653 736 649Q730 644 729.0 636.5Q728 629 733 623Q780 559 811 568Q812 568 812 568Q816 553 823.0 539.0Q830 525 840 518Q850 510 862 510ZM863 546Q864 546 865 546Q865 546 863 546Q863 546 863 546Z" fill="#000000" />
<path d="M457 510Q469 510 479 518Q489 525 496.0 539.0Q503 553 507 568Q508 568 508 568Q540 559 587 623Q591 629 590.0 636.5Q589 644 583 649Q577 653 569.5 652.0Q562 651 557 645Q542 624 532.5 615.5Q523 607 520 605Q518 610 517 621Q516 638 499 638Q499 638 499.0 638.0Q499 638 498 638Q482 638 480 622Q478 598 471.5 575.5Q465 553 459 548Q454 555 450.5 574.0Q447 593 447.5 616.0Q448 639 457 660Q461 667 458.0 674.0Q455 681 448 684Q441 687 434.0 684.5Q427 682 424 675Q412 649 411.0 619.5Q410 590 415.5 564.5Q421 539 429 526Q435 517 441.5 513.5Q448 510 453 510Q455 510 457 510Z" fill="#000000" />
<path d="M929 505Q935 505 940 508Q991 546 991 590Q991 611 981.0 627.0Q971 643 961.5 652.0Q952 661 951 662Q929 679 900.5 683.0Q872 687 850 685Q793 681 744 653Q705 630 660 630Q615 630 575 653Q526 681 470 685Q447 687 418.5 683.0Q390 679 369 662Q368 662 358.0 652.5Q348 643 338.5 627.0Q329 611 329 590Q329 546 379 508Q386 504 393.5 505.0Q401 506 405 512Q410 518 408.5 525.5Q407 533 401 538Q365 564 365 590Q365 608 377.5 620.5Q390 633 391 633Q415 652 467 649Q515 645 557 621Q604 594 660 593Q715 594 762 621Q804 645 852 649Q904 652 929 633Q929 633 941.5 620.5Q954 608 954 590Q954 564 918 538Q912 533 911.0 525.5Q910 518 914 512Q920 505 929 505Z" fill="#000000" />
<path d="M1024 112Q1030 112 1035 116L1087 159Q1087 159 1087.0 159.0Q1087 159 1087 159Q1089 161 1090 162Q1091 164 1104.0 180.0Q1117 196 1135.5 217.5Q1154 239 1173.0 259.5Q1192 280 1207 292Q1213 296 1214 304Q1215 312 1210 318L1184 349Q1179 355 1171 356Q1163 356 1157 351Q1141 336 1113.0 317.5Q1085 299 1058.5 283.5Q1032 268 1019 261L891 321Q884 324 877.0 321.5Q870 319 867 312Q864 305 866.5 298.0Q869 291 876 288L986 236L956 212Q950 207 950 199Q949 192 954 186L1009 119Q1015 112 1024 112ZM994 195 1017 214 1049 176 1026 156ZM1048 235Q1070 247 1105.5 269.0Q1141 291 1167 312L1170 308Q1146 286 1118.5 254.0Q1091 222 1075 202Z" fill="#000000" />
<path d="M977 182Q984 185 986.0 192.5Q988 200 984 206Q980 213 973.0 215.0Q966 217 959 213Q956 212 929.0 194.5Q902 177 871 149Q851 130 832.0 108.0Q813 86 802 61Q793 42 789.0 22.0Q785 2 788 -19Q791 -35 806 -35Q808 -35 809 -34Q817 -33 821.5 -27.0Q826 -21 824 -13Q824 -11 824 -9Q821 19 835.0 46.5Q849 74 871 98Q893 122 917.5 141.0Q942 160 959.0 170.5Q976 181 977 182Z" fill="#000000" />
<path d="M902 -35Q903 -35 904 -35Q911 -34 916.0 -28.0Q921 -22 920 -15Q918 1 936.5 25.0Q955 49 982.0 73.5Q1009 98 1034 115Q1040 120 1041.5 127.5Q1043 135 1038 141Q1034 147 1026.5 148.5Q1019 150 1013 145Q1004 139 982.5 122.0Q961 105 937.0 81.5Q913 58 897.0 31.5Q881 5 883 -19Q885 -35 902 -35Z" fill="#000000" />
<path d="M1006 -34Q1022 -34 1025 -19Q1025 -18 1025.5 -11.0Q1026 -4 1027 8V14Q1027 25 1027 33V45Q1027 53 1022.0 58.0Q1017 63 1009 64Q991 63 990 46V33Q991 24 990 15V9Q990 -1 989.0 -7.0Q988 -13 988 -13Q987 -21 991.5 -27.0Q996 -33 1004 -34Q1005 -34 1006 -34Z" fill="#000000" />
</g></svg>