<svg xmlns="http://www.w3.org/2000/svg" viewBox="0 0 2048 2048">
<g transform="matrix(1 0 0 -1 0 2048)">
<path d="M91.5877685546875 733.1798706054688V36.51513671875H1228.2723388671875V733.1798706054688Z" fill="#d22f27" />
<path d="M776 417 686 475 622 563 474 540 427 564 465 528 609 534 604 430 546 338 628 212 625 160 643 209 578 338 680 384 793 390 855 527 901 553 849 541Z" fill="#ffffff" />
<path d="M773 430 693 481 630 568Q627 573 621 572L475 550L431 572Q425 576 421 571Q414 564 421 558L459 521Q461 519 465 519L599 524L595 432L538 343Q535 338 538 333L618 210L616 161Q616 154 622 151Q631 148 634 157L651 206Q653 210 651 214L591 333L682 374L794 381Q799 381 802 386L862 520L905 545Q911 548 909 555Q907 564 898 562L847 550Q843 549 841 546ZM784 413 823 479 787 399 679 393Q678 393 676 392L574 346Q566 342 570 334Q570 334 570 334L605 265L557 338L612 425Q613 427 613 429L618 533Q618 542 609 543Q609 543 608 543L531 540L618 553L679 469Q680 468 681 467L771 410Q775 407 778 408Q782 409 784 413Q784 413 784 413Z" fill="#ffffff" />
<path d="M673 438Q665 454 648 446Q632 437 640 421L663 375Q672 359 688 367Q704 376 696 392Z" fill="#fcea2b" />
<path d="M701 465Q706 472 705 479Q704 485 696 490Q681 500 671 485L647 448H604Q595 448 591 443Q586 439 586 430Q586 411 604 411H657Q667 411 672 419Z" fill="#fcea2b" />
<path d="M481 450 500 487 463 469 503 461 474 492Z" fill="#fcea2b" />
<path d="M472 448Q472 444 477 441Q481 439 484 440Q487 441 489 445L493 454L502 452Q506 451 510 454Q516 460 510 467L503 474L508 483Q510 487 508 491Q506 495 503 496Q500 497 495 495L488 491L481 498Q478 502 473 501Q469 501 467 498Q465 495 465 491L467 481L459 477Q455 475 454 471Q452 462 461 460L470 458Z" fill="#fcea2b" />
<path d="M816 553 774 560 805 530 797 572 779 535Z" fill="#fcea2b" />
<path d="M820 545Q824 547 825 552Q827 561 818 562L808 564L806 573Q805 578 801 580Q793 584 789 576L785 568L776 569Q771 570 768 567Q761 560 768 554L775 547L771 539Q769 535 771 531Q773 527 776 526Q779 525 783 527L792 531L799 524Q802 521 807 521Q816 523 814 532L812 541Z" fill="#fcea2b" />
<path d="M670 248 694 212 695 254 670 222 710 232Z" fill="#fcea2b" />
<path d="M674 256Q669 258 665 256Q658 251 663 243L668 235L662 228Q660 224 661 220Q662 215 665 214Q667 212 672 213L681 215L686 207Q689 203 694 203Q703 203 703 212V221L712 223Q716 224 718 228Q722 237 713 240L704 244V254Q704 258 701 261Q694 267 688 260L683 253Z" fill="#fcea2b" />
<path d="M73 37Q73 18 92 18H1228Q1247 18 1247 37V733Q1247 752 1228 752H92Q73 752 73 733ZM110 715H1210V55H110Z" fill="#000000" />
</g></svg>