<svg xmlns="http://www.w3.org/2000/svg" viewBox="0 0 2048 2048">
<g transform="matrix(1 0 0 -1 0 2048)">
<path d="M130 733Q114 733 103.0 722.0Q92 711 92 695V75Q92 59 103.0 48.0Q114 37 130 37H1190Q1206 37 1217.0 48.0Q1228 59 1228 75V695Q1228 711 1217.0 722.0Q1206 733 1190 733Z" fill="#d22f27" />
<path d="M92 48Q92 42 98 42H1206Q1211 42 1212.5 46.5Q1214 51 1210 53L101 733Q98 735 95.0 733.0Q92 731 92 728Z" fill="#000000" />
<path d="M367.0594482421875 128.4281005859375Q367.0594482421875 132.213134765625 365.6353759765625 135.5484619140625Q364.2113037109375 138.8837890625 361.700439453125 141.3946533203125Q359.1895751953125 143.905517578125 355.854248046875 145.32958984375Q352.5189208984375 146.753662109375 348.73388671875 146.753662109375Q344.9488525390625 146.753662109375 341.613525390625 145.32958984375Q338.2781982421875 143.905517578125 335.767333984375 141.3946533203125Q333.2564697265625 138.8837890625 331.8323974609375 135.5484619140625Q330.4083251953125 132.213134765625 330.4083251953125 128.4281005859375Q330.4083251953125 124.64306640625 331.8323974609375 121.3077392578125Q333.2564697265625 117.972412109375 335.767333984375 115.4615478515625Q338.2781982421875 112.95068359375 341.613525390625 111.526611328125Q344.9488525390625 110.1025390625 348.73388671875 110.1025390625Q352.5189208984375 110.1025390625 355.854248046875 111.526611328125Q359.1895751953125 112.95068359375 361.700439453125 115.4615478515625Q364.2113037109375 117.972412109375 365.6353759765625 121.3077392578125Q367.0594482421875 124.64306640625 367.0594482421875 128.4281005859375Z" fill="#ffffff" />
<path d="M385 128Q385 165 348 165Q311 165 311 128Q311 92 348 92Q385 92 385 128Z" fill="#ffffff" />
<path d="M367.0594482421875 458.4281005859375Q367.0594482421875 462.213134765625 365.6353759765625 465.5484619140625Q364.2113037109375 468.8837890625 361.700439453125 471.3946533203125Q359.1895751953125 473.905517578125 355.854248046875 475.32958984375Q352.5189208984375 476.753662109375 348.73388671875 476.753662109375Q344.9488525390625 476.753662109375 341.613525390625 475.32958984375Q338.2781982421875 473.905517578125 335.767333984375 471.3946533203125Q333.2564697265625 468.8837890625 331.8323974609375 465.5484619140625Q330.4083251953125 462.213134765625 330.4083251953125 458.4281005859375Q330.4083251953125 454.64306640625 331.8323974609375 451.3077392578125Q333.2564697265625 447.972412109375 335.767333984375 445.4615478515625Q338.2781982421875 442.95068359375 341.613525390625 441.526611328125Q344.9488525390625 440.1025390625 348.73388671875 440.1025390625Q352.5189208984375 440.1025390625 355.854248046875 441.526611328125Q359.1895751953125 442.95068359375 361.700439453125 445.4615478515625Q364.2113037109375 447.972412109375 365.6353759765625 451.3077392578125Q367.0594482421875 454.64306640625 367.0594482421875 458.4281005859375Z" fill="#ffffff" />
<path d="M385 458Q385 495 348 495Q311 495 311 458Q311 422 348 422Q385 422 385 458Z" fill="#ffffff" />
<path d="M238.0594482421875 311.4281005859375Q238.0594482421875 315.213134765625 236.6353759765625 318.5484619140625Q235.2113037109375 321.8837890625 232.700439453125 324.3946533203125Q230.1895751953125 326.905517578125 226.854248046875 328.32958984375Q223.5189208984375 329.753662109375 219.73388671875 329.753662109375Q215.9488525390625 329.753662109375 212.613525390625 328.32958984375Q209.2781982421875 326.905517578125 206.767333984375 324.3946533203125Q204.2564697265625 321.8837890625 202.8323974609375 318.5484619140625Q201.4083251953125 315.213134765625 201.4083251953125 311.4281005859375Q201.4083251953125 307.64306640625 202.8323974609375 304.3077392578125Q204.2564697265625 300.972412109375 206.767333984375 298.4615478515625Q209.2781982421875 295.95068359375 212.613525390625 294.526611328125Q215.9488525390625 293.1025390625 219.73388671875 293.1025390625Q223.5189208984375 293.1025390625 226.854248046875 294.526611328125Q230.1895751953125 295.95068359375 232.700439453125 298.4615478515625Q235.2113037109375 300.972412109375 236.6353759765625 304.3077392578125Q238.0594482421875 307.64306640625 238.0594482421875 311.4281005859375Z" fill="#ffffff" />
<path d="M257 311Q257 348 220 348Q183 348 183 311Q183 275 220 275Q257 275 257 311Z" fill="#ffffff" />
<path d="M495.0594482421875 311.4281005859375Q495.0594482421875 315.213134765625 493.6353759765625 318.5484619140625Q492.2113037109375 321.8837890625 489.700439453125 324.3946533203125Q487.1895751953125 326.905517578125 483.854248046875 328.32958984375Q480.5189208984375 329.753662109375 476.73388671875 329.753662109375Q472.9488525390625 329.753662109375 469.613525390625 328.32958984375Q466.2781982421875 326.905517578125 463.767333984375 324.3946533203125Q461.2564697265625 321.8837890625 459.8323974609375 318.5484619140625Q458.4083251953125 315.213134765625 458.4083251953125 311.4281005859375Q458.4083251953125 307.64306640625 459.8323974609375 304.3077392578125Q461.2564697265625 300.972412109375 463.767333984375 298.4615478515625Q466.2781982421875 295.95068359375 469.613525390625 294.526611328125Q472.9488525390625 293.1025390625 476.73388671875 293.1025390625Q480.5189208984375 293.1025390625 483.854248046875 294.526611328125Q487.1895751953125 295.95068359375 489.700439453125 298.4615478515625Q492.2113037109375 300.972412109375 493.6353759765625 304.3077392578125Q495.0594482421875 307.64306640625 495.0594482421875 311.4281005859375Z" fill="#ffffff" />
<path d="M514 311Q514 348 477 348Q440 348 440 311Q440 275 477 275Q514 275 514 311Z" fill="#ffffff" />
<path d="M403.4595947265625 229.1905517578125Q403.4595947265625 231.076904296875 402.7498779296875 232.7391357421875Q402.0401611328125 234.4013671875 400.788818359375 235.6527099609375Q399.5374755859375 236.904052734375 397.875244140625 237.61376953125Q396.2130126953125 238.323486328125 394.32666015625 238.323486328125Q392.4403076171875 238.323486328125 390.778076171875 237.61376953125Q389.1158447265625 236.904052734375 387.864501953125 235.6527099609375Q386.6131591796875 234.4013671875 385.9034423828125 232.7391357421875Q385.1937255859375 231.076904296875 385.1937255859375 229.1905517578125Q385.1937255859375 227.30419921875 385.9034423828125 225.6419677734375Q386.6131591796875 223.979736328125 387.864501953125 222.7283935546875Q389.1158447265625 221.47705078125 390.778076171875 220.767333984375Q392.4403076171875 220.0576171875 394.32666015625 220.0576171875Q396.2130126953125 220.0576171875 397.875244140625 220.767333984375Q399.5374755859375 221.47705078125 400.788818359375 222.7283935546875Q402.0401611328125 223.979736328125 402.7498779296875 225.6419677734375Q403.4595947265625 227.30419921875 403.4595947265625 229.1905517578125Z" fill="#ffffff" />
<path d="M422 229Q422 257 395 257Q367 257 367 229Q367 202 395 202Q422 202 422 229ZM385 229Q385 239 395 239Q404 239 404 229Q404 220 395 220Q385 220 385 229Z" fill="#ffffff" />
<path d="M772 605Q754 607 752 589Q751 580 755 575Q759 569 768 568Q883 556 958 498Q1027 446 1027 385Q1027 384 1027 384Q1030 332 982 310Q966 302 973 286Q981 269 998 277Q1068 309 1063 386Q1063 464 981 527Q897 591 772 605Z" fill="#f1b31c" />
<path d="M917 660V550L882 568Q870 581 873.0 600.5Q876 620 888.5 637.0Q901 654 917 660Z" fill="#f1b31c" />
<path d="M910 677Q878 665 862 627Q844 584 868 556Q870 554 873 552L908 534Q924 525 933 541Q935 545 935 550V660Q935 678 917 678Q913 678 910 677ZM898 619V580L894 583Q887 593 896 612Q897 616 898 619Z" fill="#f1b31c" />
<path d="M917 550 990 495H1082Q1082 523 1059.5 545.5Q1037 568 1000.0 573.0Q963 578 917 550Z" fill="#f1b31c" />
<path d="M904 564Q899 560 898 555Q897 553 897 551Q896 544 903 538Q906 533 911 531L979 480Q984 477 990 477H1082Q1100 477 1100 495Q1100 553 1041 580Q982 608 913 569Q908 568 904 564ZM951 547Q992 563 1026 547Q1053 535 1060 513H996Z" fill="#f1b31c" />
<path d="M822 473 913 547 877 563Q860 566 844.5 555.5Q829 545 821.5 523.5Q814 502 822 473Z" fill="#f1b31c" />
<path d="M804 469Q805 465 807 462Q813 455 819 454Q826 453 833 459L925 532Q928 535 930 539Q937 556 921 563L884 580Q882 581 879 581Q841 587 816 553Q791 518 804 469ZM837 509Q839 522 846 531Q857 546 871 545L878 542Z" fill="#f1b31c" />
<path d="M913 547 987 492 950 400Q922 400 912.0 422.0Q902 444 904.0 478.0Q906 512 913 547Z" fill="#f1b31c" />
<path d="M929 557Q927 561 921 563Q915 566 910 566Q908 565 906 565Q904 564 903 563Q898 560 896 554Q893 549 894 544Q882 482 887 444Q897 382 950 382Q962 382 967 393L1004 485Q1009 498 998 506ZM923 450Q920 475 926 514L964 485L939 421Q927 427 923 450Z" fill="#f1b31c" />
<path d="M73 37Q73 18 92 18H1228Q1247 18 1247 37V733Q1247 752 1228 752H92Q73 752 73 733ZM110 715H1210V55H110Z" fill="#000000" />
</g></svg>