<svg xmlns="http://www.w3.org/2000/svg" viewBox="0 0 2048 2048">
<g transform="matrix(1 0 0 -1 0 2048)">
<path d="M586 -46Q524 -45 473.0 -13.5Q422 18 392.0 69.5Q362 121 363 183Q364 246 395.0 296.5Q426 347 477.5 377.0Q529 407 592 406Q654 405 705.0 374.0Q756 343 785.5 291.5Q815 240 815 177Q814 115 783.0 64.0Q752 13 700.0 -16.5Q648 -46 586 -46Z" fill="#d0cfce" />
<path d="M590.400146484375 281.667724609375Q611.24951171875 281.397705078125 629.62109375 273.240966796875Q647.99267578125 265.084228515625 661.799072265625 250.91552734375Q675.60546875 236.746826171875 683.285400390625 218.3021240234375Q690.96533203125 199.857421875 690.69189453125 178.744140625Q690.41845703125 157.630859375 682.263427734375 139.3912353515625Q674.1083984375 121.151611328125 659.939697265625 107.34521484375Q645.77099609375 93.538818359375 627.1943359375 85.860595703125Q608.61767578125 78.182373046875 587.768310546875 78.452392578125Q566.655029296875 78.725830078125 548.283447265625 86.882568359375Q529.911865234375 95.039306640625 516.10546875 109.2080078125Q502.299072265625 123.376708984375 494.7510986328125 141.8197021484375Q487.203125 160.2626953125 487.4765625 181.3759765625Q487.75 202.4892578125 495.7730712890625 220.7305908203125Q503.796142578125 238.971923828125 517.96484375 252.7783203125Q532.133544921875 266.584716796875 550.710205078125 274.262939453125Q569.286865234375 281.941162109375 590.400146484375 281.667724609375Z" fill="#9b9b9a" />
<path d="M515 466V338Q515 320 507.0 308.0Q499 296 485 296Q472 296 463.0 305.5Q454 315 454 336V459Q451 500 473 535L517 616Q529 640 577 634L654 625Q672 622 685.0 608.0Q698 594 699 576L710 504L719 444Q719 438 715 435Q710 432 705 435Q649 464 585 464H559Q555 464 552 466Q550 469 550 473V509Q550 515 545 515Q539 515 536 510L516 470Q515 468 515 466Z" fill="#debb90" />
<path d="M692.9305419921875 756.7034912109375Q692.9305419921875 770.0791015625 687.8511962890625 781.930908203125Q682.7718505859375 793.78271484375 673.79833984375 802.7562255859375Q664.8248291015625 811.729736328125 653.0576782226562 816.80908203125Q641.29052734375 821.888427734375 627.74560546875 821.888427734375Q614.20068359375 821.888427734375 602.4335327148438 816.80908203125Q590.6663818359375 811.729736328125 581.69287109375 802.7562255859375Q572.7193603515625 793.78271484375 567.6400146484375 781.930908203125Q562.5606689453125 770.0791015625 562.5606689453125 756.7034912109375Q562.5606689453125 743.1585693359375 567.6400146484375 731.3067626953125Q572.7193603515625 719.4549560546875 581.69287109375 710.4814453125Q590.6663818359375 701.5079345703125 602.4335327148438 696.5132446289062Q614.20068359375 691.5185546875 627.74560546875 691.5185546875Q641.29052734375 691.5185546875 653.0576782226562 696.5132446289062Q664.8248291015625 701.5079345703125 673.79833984375 710.4814453125Q682.7718505859375 719.4549560546875 687.8511962890625 731.3067626953125Q692.9305419921875 743.1585693359375 692.9305419921875 756.7034912109375Z" fill="#debb90" />
<path d="M847 375Q894 375 922.0 355.5Q950 336 952 303Q953 289 955.0 261.5Q957 234 959.0 201.5Q961 169 962.5 139.0Q964 109 965.0 89.5Q966 70 966 70Q966 46 956.0 31.0Q946 16 929 16Z" fill="#debb90" />
<path d="M929 16Q896 16 889 59L847 375Z" fill="#debb90" />
<path d="M908 62Q905 80 887 77Q868 74 871 56Q880 -2 929 -2Q948 -2 948 16Q948 34 929 34Q912 34 908 62Z" fill="#000000" />
<path d="M929 34Q911 34 911 16Q911 -2 929 -2Q984 -2 984 70Q984 71 984 71Q974 259 971 304Q964 393 847 393Q829 393 829 375Q829 356 847 356Q930 356 934 301Q937 256 948 70Q948 34 929 34Z" fill="#000000" />
<path d="M506 181Q506 191 501 195Q497 200 487 200Q469 200 469 182Q468 132 503 97Q538 61 587 60Q637 60 673 94Q708 129 709 179Q709 228 675 264Q640 300 590 300Q572 301 572 282Q572 273 576 268Q581 264 590 264Q624 263 648 238Q673 214 672 179Q672 145 647 121Q622 97 588 97Q553 98 529 122Q505 147 506 181Z" fill="#000000" />
<path d="M555 482Q537 482 537 464Q537 445 555 445H585Q653 446 712 410Q727 401 737 416Q740 422 739 429L728 507L717 578Q712 634 657 643Q657 643 656 643L579 653Q518 660 500 624Q500 624 500 624L440 487Q436 479 436 470V336Q436 310 449 294Q463 278 485 278Q504 278 504 296Q504 315 485 315Q473 315 473 336V470Q473 471 473 472L533 608Q540 620 574 616L651 607Q678 602 681 574Q681 574 681 573L692 501L698 459Q645 483 585 482Z" fill="#000000" />
<path d="M712 757Q712 791 687 816Q663 840 628 840Q593 840 569 816Q544 791 544 757Q544 722 569 697Q593 673 628 673Q663 673 687 697Q712 722 712 757ZM675 757Q675 710 628 710Q609 710 595 723Q581 737 581 757Q581 803 628 803Q675 803 675 757Z" fill="#000000" />
<path d="M427 309Q438 323 424 334Q417 340 410 340Q404 339 398 332Q343 263 344 175Q345 87 403 20Q460 -47 547 -62Q634 -76 710 -32Q787 13 817 96Q847 179 816 262Q786 345 710 389Q634 433 547 419Q529 416 532 397Q533 388 539 385Q544 381 553 382Q627 395 692 357Q756 320 782 249Q807 179 782 108Q757 38 692 0Q627 -38 553 -26Q479 -13 431 44Q382 101 381 175Q380 250 427 309Z" fill="#000000" />
</g></svg>