<svg xmlns="http://www.w3.org/2000/svg" viewBox="0 0 2048 2048">
<g transform="matrix(1 0 0 -1 0 2048)">
<path d="M622 712 674 378 539 -104 767 -105 755 686Z" fill="#ffffff" />
<path d="M788 404Q788 422 770 422Q751 421 752 403L761 -101H523Q504 -101 504 -119Q504 -137 523 -137H779Q779 -137 779 -137Q798 -137 798 -119Z" fill="#000000" />
<path d="M505 -114Q500 -132 518 -137Q526 -139 532 -136Q538 -133 540 -124L678 371Q683 389 665 394Q647 398 642 381Z" fill="#000000" />
<path d="M752 403H788V697H752Z" fill="#000000" />
<path d="M642 373 678 379 623 718 587 712Z" fill="#000000" />
<path d="M766 679Q775 677 781 680Q786 684 788 693Q792 711 774 715L600 751Q591 753 585 750Q580 746 578 737Q578 736 578 735L541 313Q540 304 544 299Q548 294 558 293Q576 292 577 310L612 711Z" fill="#000000" />
<path d="M786 706Q776 722 760 712Q753 707 751 701Q750 695 754 687L840 550L755 423Q745 407 760 397Q775 387 785 402L877 540Q883 550 877 560Z" fill="#000000" />
<path d="M752 843Q752 916 679 916Q605 916 605 843Q605 770 679 770Q752 770 752 843ZM715 843Q715 806 679 806Q642 806 642 843Q642 880 679 880Q715 880 715 843Z" fill="#000000" />
</g></svg>