<svg xmlns="http://www.w3.org/2000/svg" viewBox="0 0 2048 2048">
<g transform="matrix(1 0 0 -1 0 2048)">
<path d="M586.9613037109375 -48.8399658203125Q525.177001953125 -47.84344482421875 474.35443115234375 -16.453033447265625Q423.5318603515625 14.9373779296875 393.63623046875 66.25820922851562Q363.7406005859375 117.57904052734375 364.73712158203125 179.36334228515625Q365.733642578125 242.1441650390625 396.62579345703125 292.4684753417969Q427.5179443359375 342.79278564453125 478.8387756347656 372.68841552734375Q530.1596069335938 402.58404541015625 592.9404296875 401.5875244140625Q654.7247314453125 400.59100341796875 705.5473022460938 369.6988525390625Q756.369873046875 338.80670166015625 785.7672424316406 287.4858703613281Q815.1646118164062 236.1650390625 815.1646118164062 173.38421630859375Q814.1680908203125 111.59991455078125 783.2759399414062 60.77734375Q752.3837890625 9.95477294921875 700.564697265625 -19.442596435546875Q648.74560546875 -48.8399658203125 586.9613037109375 -48.8399658203125Z" fill="#d0cfce" />
<path d="M591.0989379882812 278.71099853515625Q611.8759765625 278.44097900390625 630.1834716796875 270.31170654296875Q648.490966796875 262.18243408203125 662.2488403320312 248.062255859375Q676.0067138671875 233.94207763671875 683.6591796875 215.56100463867188Q691.3116455078125 197.179931640625 691.0382080078125 176.139892578125Q690.7647705078125 155.099853515625 682.63720703125 136.92385864257812Q674.5096435546875 118.74786376953125 660.3894653320312 104.989990234375Q646.269287109375 91.23211669921875 627.7567138671875 83.58135986328125Q609.244140625 75.93060302734375 588.4671020507812 76.20062255859375Q567.4270629882812 76.47406005859375 549.1195678710938 84.60333251953125Q530.8120727539062 92.73260498046875 517.05419921875 106.852783203125Q503.29632568359375 120.97296142578125 495.7753601074219 139.35232543945312Q488.25439453125 157.731689453125 488.52783203125 178.771728515625Q488.80126953125 199.811767578125 496.7973327636719 217.98947143554688Q504.79339599609375 236.16717529296875 518.91357421875 249.925048828125Q533.0337524414062 263.68292236328125 551.5463256835938 271.33367919921875Q570.0588989257812 278.98443603515625 591.0989379882812 278.71099853515625Z" fill="#9b9b9a" />
<path d="M586 460H562Q551 460 551 470V504Q551 511 546 511Q540 510 537 505L518 466Q517 464 517 462V334Q517 316 509.0 304.5Q501 293 487 293Q474 293 465.0 302.5Q456 312 456 332V454Q453 496 475 531L518 611Q531 635 578 630Z" fill="#c19a65" />
<path d="M565 468 681 452 686 495Q711 508 713 535Q709 567 687 590Q673 610 661.0 617.5Q649 625 625 625Q582 625 569.0 628.0Q556 631 556 623Q556 609 558.0 579.0Q560 549 562.5 517.5Q565 486 565 468Z" fill="#c19a65" />
<path d="M694.292724609375 751.502685546875Q694.292724609375 764.830078125 689.231689453125 776.63916015625Q684.170654296875 788.4482421875 675.2294921875 797.389404296875Q666.288330078125 806.33056640625 654.5635986328125 811.3916015625Q642.8388671875 816.45263671875 629.3427734375 816.45263671875Q615.8466796875 816.45263671875 604.1219482421875 811.3916015625Q592.397216796875 806.33056640625 583.4560546875 797.389404296875Q574.514892578125 788.4482421875 569.453857421875 776.63916015625Q564.392822265625 764.830078125 564.392822265625 751.502685546875Q564.392822265625 738.006591796875 569.453857421875 726.197509765625Q574.514892578125 714.388427734375 583.4560546875 705.447265625Q592.397216796875 696.506103515625 604.1219482421875 691.5294189453125Q615.8466796875 686.552734375 629.3427734375 686.552734375Q642.8388671875 686.552734375 654.5635986328125 691.5294189453125Q666.288330078125 696.506103515625 675.2294921875 705.447265625Q684.170654296875 714.388427734375 689.231689453125 726.197509765625Q694.292724609375 738.006591796875 694.292724609375 751.502685546875Z" fill="#c19a65" />
<path d="M929 13Q896 13 890 56L848 371Z" fill="#c19a65" />
<path d="M847.9956665039062 370.54620361328125Q894.826416015625 370.54046630859375 922.7232055664062 351.1072692871094Q950.6199951171875 331.674072265625 952.6087646484375 298.79266357421875Q953.6034545898438 284.84295654296875 955.5928955078125 257.4417419433594Q957.5823364257812 230.04052734375 959.5711669921875 197.65731811523438Q961.5599975585938 165.27410888671875 963.0509338378906 135.3819580078125Q964.5418701171875 105.48980712890625 965.535888671875 86.05990600585938Q966.5299072265625 66.6300048828125 966.5299072265625 66.6300048828125Q966.5269775390625 42.7164306640625 956.5611572265625 27.77166748046875Q946.5953369140625 12.826904296875 929.6565551757812 12.8289794921875Z" fill="#c19a65" />
<path d="M929 32Q911 32 911 13Q911 -5 929 -5Q956 -5 971 18Q984 37 984 67Q984 68 984 68Q974 255 971 300Q964 389 848 389Q829 389 829 371Q829 353 848 353Q930 353 934 297Q938 253 948 67Q948 32 929 32Z" fill="#000000" />
<path d="M908 59Q905 77 887 74Q869 71 871 53Q880 -5 929 -5Q948 -5 948 13Q948 32 929 32Q912 32 908 59Z" fill="#000000" />
<path d="M507 178Q507 196 489 197Q471 197 471 179Q470 129 504 94Q539 58 589 57Q638 57 674 91Q709 126 710 175Q710 225 676 260Q641 296 592 297Q583 297 578 292Q573 288 573 279Q573 260 591 260Q626 259 650 235Q674 210 673 176Q673 142 648 118Q623 94 589 94Q555 95 531 119Q507 144 507 178Z" fill="#000000" />
<path d="M653 602Q671 599 673 618Q675 627 671 632Q667 637 657 638L580 648Q520 655 502 619Q502 619 502 619L441 483Q438 475 438 466V332Q438 306 451 290Q465 274 487 274Q505 274 505 293Q505 311 487 311Q475 311 475 332V466Q475 467 475 468L535 603Q541 615 576 611Z" fill="#000000" />
<path d="M586 610Q604 608 607 626Q608 635 604 640Q600 645 591 646Q522 655 503 616Q503 616 502 616L442 479Q439 471 439 463V329Q439 303 452 287Q466 271 488 271Q506 271 506 290Q506 308 488 308Q475 308 475 329V463Q475 464 476 465L536 600Q544 615 586 610Z" fill="#000000" />
<path d="M557 478Q538 478 538 460Q538 441 557 441H585Q644 436 700 415Q717 409 724 426Q730 443 713 450Q652 472 588 478Q587 478 586 478Z" fill="#000000" />
<path d="M712 751Q712 786 688 810Q664 834 629 834Q595 834 570 810Q546 786 546 751Q546 717 570 692Q595 668 629 668Q664 668 688 692Q712 717 712 751ZM676 751Q676 705 629 705Q583 705 583 751Q583 770 596 784Q610 798 629 798Q649 798 662 784Q676 770 676 751Z" fill="#000000" />
<path d="M429 305Q434 312 434 318Q433 325 426 331Q412 342 400 328Q345 260 346 172Q347 84 405 17Q462 -50 549 -64Q635 -79 711 -34Q787 10 817 93Q847 175 817 258Q787 341 711 385Q635 429 548 414Q539 413 535 408Q532 402 533 393Q536 375 554 378Q628 391 693 353Q757 316 783 246Q808 175 783 105Q757 35 693 -3Q628 -40 555 -28Q481 -16 433 41Q384 97 383 172Q382 247 429 305Z" fill="#000000" />
<path d="M621 643Q612 644 607 640Q602 636 601 627Q599 608 617 606Q623 605 634 604Q658 602 671 585Q685 564 683 538Q683 538 683 538Q683 518 671 502Q668 497 668 491V450Q668 432 686 432Q705 432 705 451L704 486Q719 509 720 537Q722 574 701 606Q701 606 701 607Q678 637 637 641Q627 642 621 643Z" fill="#000000" />
<path d="M547 790Q562 783 570 799Q577 816 561 823Q540 833 524 821Q517 815 509 795Q503 782 501 779Q492 768 478 765Q469 764 465 758Q462 753 464 744Q467 726 485 730Q511 735 528 755Q535 762 543 781Q545 787 547 790Z" fill="#000000" />
</g></svg>