<svg xmlns="http://www.w3.org/2000/svg" viewBox="0 0 2048 2048">
<g transform="matrix(1 0 0 -1 0 2048)">
<path d="M653.5235595703125 850.8665161132812Q653.5235595703125 861.68310546875 649.4207153320312 871.1942443847656Q645.31787109375 880.7053833007812 638.1068115234375 887.9164428710938Q630.895751953125 895.1275024414062 621.3846130371094 899.2303466796875Q611.8734741210938 903.3331909179688 601.056884765625 903.3331909179688Q590.2402954101562 903.3331909179688 580.7291564941406 899.2303466796875Q571.218017578125 895.1275024414062 564.0069580078125 887.9164428710938Q556.7958984375 880.7053833007812 552.6930541992188 871.1942443847656Q548.5902099609375 861.68310546875 548.5902099609375 850.8665161132812Q548.5902099609375 840.0499267578125 552.6930541992188 830.5387878417969Q556.7958984375 821.0276489257812 564.0069580078125 813.8165893554688Q571.218017578125 806.6055297851562 580.7291564941406 802.502685546875Q590.2402954101562 798.3998413085938 601.056884765625 798.3998413085938Q611.8734741210938 798.3998413085938 621.3846130371094 802.502685546875Q630.895751953125 806.6055297851562 638.1068115234375 813.8165893554688Q645.31787109375 821.0276489257812 649.4207153320312 830.5387878417969Q653.5235595703125 840.0499267578125 653.5235595703125 850.8665161132812Z" fill="#c19a65" />
<path d="M619 617 668 486 528 398 526 341 592 218 577 94 619 59 678 176 732 372 776 416 813 482 703 729 636 730 601 680Z" fill="#c19a65" />
<path d="M548 136Q548 218 490 275Q433 333 351 333Q270 333 212 275Q155 218 155 136Q155 55 212 -3Q270 -60 351 -60Q433 -60 490 -3Q548 55 548 136ZM511 136Q511 70 464 23Q418 -24 351 -24Q285 -24 238 23Q191 70 191 136Q191 202 238 249Q285 296 351 296Q418 296 464 249Q511 202 511 136Z" fill="#000000" />
<path d="M1107 136Q1107 218 1049 275Q992 333 910 333Q829 333 771 275Q714 218 714 136Q714 55 771 -3Q829 -60 910 -60Q992 -60 1049 -3Q1107 55 1107 136ZM1070 136Q1070 70 1023 23Q977 -24 910 -24Q844 -24 797 23Q750 70 750 136Q750 202 797 249Q844 296 910 296Q977 296 1023 249Q1070 202 1070 136Z" fill="#000000" />
<path d="M335 138Q333 119 352 118Q361 117 366 121Q371 126 371 135L405 537H454Q473 537 473 556Q473 574 454 574H388Q371 574 370 557Z" fill="#000000" />
<path d="M675 851Q675 881 653 903Q632 924 601 924Q565 924 546 906Q528 888 528 851Q528 821 549 799Q571 778 601 778Q675 778 675 851ZM638 851Q638 814 601 814Q586 814 575 825Q565 836 565 851Q565 869 574 879Q583 888 601 888Q638 888 638 851Z" fill="#000000" />
<path d="M449 569Q434 559 444 544Q455 528 470 539L545 589Q545 590 546 590Q576 612 599 643L632 690Q647 709 671 710Q693 708 702 688L782 505Q790 481 780 457L779 454Q765 430 739 419L643 377Q595 356 614 308L659 196Q666 180 654 169Q650 167 645 169Q639 171 637 176Q637 176 637 176L560 319Q548 343 546 370Q550 391 568 402L648 453Q648 453 648 453Q686 479 677 524Q677 525 677 525L650 630Q648 639 643 642Q637 646 628 643Q610 639 615 621L641 517Q645 496 628 484L547 433Q515 412 510 373Q509 371 510 369Q512 334 527 303Q527 303 527 302L604 159Q613 140 634 134Q654 127 673 138Q674 138 676 139Q711 168 693 210L648 321Q642 337 657 343L754 385Q791 402 811 436Q811 437 812 437L813 441Q814 441 814 442Q830 480 816 518Q816 519 815 519L735 703Q717 744 672 747Q671 747 670 747Q628 745 602 712Q602 712 602 711L569 664Q550 638 524 620Z" fill="#000000" />
<path d="M682 148 647 159 629 105Q623 87 604 85Q600 85 597 89Q594 93 595 98L611 216L574 221L559 104Q555 83 568 66Q582 49 604 48H605H606Q650 52 664 94Z" fill="#000000" />
<path d="M758.266357421875 394.42095947265625 723.159912109375 405.41558837890625 660.166748046875 204.21044921875 695.273193359375 193.2158203125Z" fill="#000000" />
<path d="M649 906Q636 893 650 880Q656 874 663 874Q669 874 675 880Q677 878 682 872Q697 857 705 853Q729 840 756 844Q774 847 771 865Q770 874 764 878Q759 882 750 881Q736 878 722 885Q719 887 709 898Q694 913 685 917Q666 923 649 906ZM673 882Q673 882 673 882Z" fill="#000000" />
</g></svg>