<svg xmlns="http://www.w3.org/2000/svg" viewBox="0 0 2048 2048">
<g transform="matrix(1 0 0 -1 0 2048)">
<path d="M91.5877685546875 733.1798706054688V36.51513671875H1228.2723388671875V733.1798706054688Z" fill="#1e50a0" />
<path d="M660 193Q608 222 578.5 273.5Q549 325 550 385Q549 445 578.5 496.5Q608 548 660 578Q712 548 741.5 496.5Q771 445 770 385Q771 325 741.5 273.5Q712 222 660 193Z" fill="#92d3f5" />
<path d="M665 185Q782 250 779 385Q782 520 664 585Q660 588 656 585Q538 520 541 385Q538 250 655 185Q658 183 660 183Q662 183 665 185ZM660 203Q556 264 559 385Q559 385 559 385Q556 506 660 567Q764 506 761 385Q761 385 761 385Q764 264 660 203Z" fill="#d22f27" />
<path d="M562 312H758Q733 232 660 193Q587 232 562 312Z" fill="#fcea2b" />
<path d="M110 715V55H1210V715ZM147 678H1173V92H147Z" fill="#d22f27" />
<path d="M513 348Q495 348 495 330Q495 312 513 312H807Q825 312 825 330Q825 348 807 348Z" fill="#1e50a0" />
<path d="M669 177Q791 245 788 385Q791 525 669 594Q660 599 651 594Q529 525 532 385Q529 245 651 177Q655 174 660 174Q665 174 669 177ZM660 214Q566 272 568 385Q568 385 568 385Q566 498 660 556Q754 498 752 385Q752 385 752 385Q754 272 660 214Z" fill="#d22f27" />
<path d="M73 37Q73 18 92 18H1228Q1247 18 1247 37V733Q1247 752 1228 752H92Q73 752 73 733ZM110 715H1210V55H110Z" fill="#000000" />
</g></svg>