<svg xmlns="http://www.w3.org/2000/svg" viewBox="0 0 2048 2048">
<g transform="matrix(1 0 0 -1 0 2048)">
<path d="M92 733V37H1228V733Z" fill="#d22f27" />
<path d="M194 42 1227 661Q1231 702 1221.0 715.0Q1211 728 1186.0 727.5Q1161 727 1120 729L91 111Q91 74 95.5 58.5Q100 43 121.5 41.0Q143 39 194 42Z" fill="#5c9e31" />
<path d="M189 733 1228 109Q1228 73 1224.0 58.0Q1220 43 1200.0 39.5Q1180 36 1132 35L89 661Q90 697 95.0 712.0Q100 727 120.0 730.0Q140 733 189 733Z" fill="#5c9e31" />
<path d="M1228 440V330H715V37H605V330H92V440H605V733H715V440Z" fill="#ffffff" />
<path d="M73 37Q73 18 92 18H1228Q1247 18 1247 37V733Q1247 752 1228 752H92Q73 752 73 733ZM110 715H1210V55H110Z" fill="#000000" />
</g></svg>