<svg xmlns="http://www.w3.org/2000/svg" viewBox="0 0 2048 2048">
<g transform="matrix(1 0 0 -1 0 2048)">
<path d="M811.3130493164062 859.0086059570312Q811.3130493164062 870.29638671875 807.0265502929688 880.2982177734375Q802.7400512695312 890.300048828125 795.167236328125 897.8728637695312Q787.5944213867188 905.4456787109375 777.6640319824219 909.732177734375Q767.733642578125 914.0186767578125 756.302978515625 914.0186767578125Q744.872314453125 914.0186767578125 734.9419250488281 909.732177734375Q725.0115356445312 905.4456787109375 717.438720703125 897.8728637695312Q709.8659057617188 890.300048828125 705.5794067382812 880.2982177734375Q701.2929077148438 870.29638671875 701.2929077148438 859.0086059570312Q701.2929077148438 847.5779418945312 705.5794067382812 837.5761108398438Q709.8659057617188 827.5742797851562 717.438720703125 820.00146484375Q725.0115356445312 812.4286499023438 734.9419250488281 808.2135925292969Q744.872314453125 803.99853515625 756.302978515625 803.99853515625Q767.733642578125 803.99853515625 777.6640319824219 808.2135925292969Q787.5944213867188 812.4286499023438 795.167236328125 820.00146484375Q802.7400512695312 827.5742797851562 807.0265502929688 837.5761108398438Q811.3130493164062 847.5779418945312 811.3130493164062 859.0086059570312Z" fill="#c19a65" />
<path d="M899 694 977 286Q969 274 954 276Q940 277 934 291Q929 297 922.5 323.5Q916 350 908.5 388.0Q901 426 893.5 466.5Q886 507 880.0 542.5Q874 578 870.0 600.5Q866 623 866 623L898 -129H837L775 329H738L676 -129H615L646 623Q641 566 613 517Q598 499 576.5 492.0Q555 485 533 491Q513 495 491.5 515.5Q470 536 451.5 560.0Q433 584 424 596Q415 609 418.0 622.0Q421 635 427.0 644.0Q433 653 433 653L555 540L585 562L595 640L658 722L836 718Z" fill="#c19a65" />
<path d="M829 859Q829 933 756 933Q725 933 704 911Q682 890 682 859Q682 829 704 807Q725 786 756 786Q829 786 829 859ZM792 859Q792 823 756 823Q719 823 719 859Q719 875 730 885Q741 896 756 896Q774 896 783 887Q792 878 792 859Z" fill="#000000" />
<path d="M866 624Q866 633 861 637Q856 642 847 641Q829 640 830 622L877 -94Q877 -94 877 -95Q878 -101 875 -106Q872 -109 867 -110Q852 -108 850 -91Q850 -91 850 -90L798 296Q791 348 756 348Q722 348 715 296L662 -90Q662 -91 662 -91Q661 -108 645 -110Q641 -109 638 -106Q635 -101 636 -95Q636 -94 636 -94L683 622Q684 640 666 641Q657 642 652 637Q647 633 646 624L599 -90Q596 -111 609 -128Q622 -145 644 -147Q646 -147 648 -147Q695 -142 699 -95L751 291Q754 311 756 311Q759 311 761 291L814 -95Q818 -142 865 -147Q867 -147 869 -147Q891 -145 904 -128Q917 -111 913 -90Z" fill="#000000" />
<path d="M459 653Q446 667 433 655Q419 643 431 629L499 551Q531 514 565 524Q598 533 606 582L613 621Q626 698 685 705Q756 713 828 705Q887 698 900 621L907 582Q909 570 916 524Q951 323 954 295Q956 276 974 278Q992 280 990 298Q987 328 953 530Q945 576 943 588L936 627Q929 669 900 703Q869 737 832 742Q756 750 681 742Q644 737 613 703Q584 669 577 627L570 588Q566 562 555 559Q544 556 526 575Z" fill="#000000" />
<path d="M462 638Q464 656 446 658Q427 660 425 642L344 -84Q342 -102 360 -104Q378 -106 380 -88Z" fill="#000000" />
<path d="M428 645Q430 663 412 665Q394 668 392 649L327 84Q325 66 343 64Q352 63 357 67Q362 71 363 80Z" fill="#d0cfce" />
<path d="M363 80Q364 89 360 94Q356 99 347 100Q329 102 327 84L307 -91Q305 -110 323 -112Q341 -114 343 -95Z" fill="#d22f27" />
<path d="M345.53338623046875 -94.83111572265625Q345.53338623046875 -90.70849609375 343.96783447265625 -87.0555419921875Q342.40228271484375 -83.402587890625 339.636474609375 -80.63677978515625Q336.87066650390625 -77.8709716796875 333.2438049316406 -76.305419921875Q329.616943359375 -74.7398681640625 325.442138671875 -74.7398681640625Q321.267333984375 -74.7398681640625 317.6404724121094 -76.305419921875Q314.01361083984375 -77.8709716796875 311.247802734375 -80.63677978515625Q308.48199462890625 -83.402587890625 306.91644287109375 -87.0555419921875Q305.35089111328125 -90.70849609375 305.35089111328125 -94.83111572265625Q305.35089111328125 -99.00592041015625 306.91644287109375 -102.65887451171875Q308.48199462890625 -106.31182861328125 311.247802734375 -109.07763671875Q314.01361083984375 -111.84344482421875 317.6404724121094 -113.38290405273438Q321.267333984375 -114.92236328125 325.442138671875 -114.92236328125Q329.616943359375 -114.92236328125 333.2438049316406 -113.38290405273438Q336.87066650390625 -111.84344482421875 339.636474609375 -109.07763671875Q342.40228271484375 -106.31182861328125 343.96783447265625 -102.65887451171875Q345.53338623046875 -99.00592041015625 345.53338623046875 -94.83111572265625Z" fill="#d0cfce" />
<path d="M428 645Q430 663 412 665Q394 668 392 649L377 524Q375 505 393 503Q412 501 414 519Z" fill="#000000" />
</g></svg>