<svg xmlns="http://www.w3.org/2000/svg" viewBox="0 0 2048 2048">
<g transform="matrix(1 0 0 -1 0 2048)">
<path d="M1016 -35Q1016 -35 1020.5 -16.0Q1025 3 1027.5 32.5Q1030 62 1024.0 95.5Q1018 129 996.5 158.5Q975 188 932.0 207.0Q889 226 818 226Q774 196 738.5 172.5Q703 149 660 147H662Q620 147 580.5 165.0Q541 183 497 213Q442 213 407.0 195.0Q372 177 352.0 149.0Q332 121 323.5 89.0Q315 57 313.0 29.0Q311 1 312.5 -17.0Q314 -35 314 -35Z" fill="#92d3f5" />
<path d="M904 -34H408V202L494 216V83H821V216L904 202Z" fill="#61b2e4" />
<path d="M1230 249H772L644 -51H1103Z" fill="#d0cfce" />
<path d="M1234 249H1230H1069L942 -51H1102H1106Z" fill="#9b9b9a" />
<path d="M901 425Q921 473 921 524L880 884L760 766Q710 787 657 787H646Q592 787 543 766L433 873L394 529Q394 503 394.5 476.5Q395 450 404 427L405 424Q425 375 464.5 339.5Q504 304 553.0 285.0Q602 266 651 266Q737 266 804.5 309.5Q872 353 901 426Z" fill="#f4aa41" />
<path d="M880 884 921 536Q921 510 920.5 480.0Q920 450 911 428L909 425Q890 377 851.0 340.5Q812 304 760.5 284.0Q709 264 651 266Z" fill="#e27022" />
<path d="M415 721 899 709 904 664 406 634Z" fill="#b399c8" />
<path d="M933.0570068359375 685.4374389648438Q933.0570068359375 700.8302001953125 922.2820739746094 711.6051330566406Q911.5071411132812 722.3800659179688 896.1143798828125 722.3800659179688Q880.7216186523438 722.3800659179688 869.9466857910156 711.6051330566406Q859.1717529296875 700.8302001953125 859.1717529296875 685.4374389648438Q859.1717529296875 670.044677734375 869.9466857910156 659.2697448730469Q880.7216186523438 648.4948120117188 896.1143798828125 648.4948120117188Q911.5071411132812 648.4948120117188 922.2820739746094 659.2697448730469Q933.0570068359375 670.044677734375 933.0570068359375 685.4374389648438Z" fill="#b399c8" />
<path d="M863 587Q867 582 866.5 561.5Q866 541 859.0 518.0Q852 495 836.0 480.5Q820 466 791.5 472.0Q763 478 720 517Q718 519 732.0 527.0Q746 535 767.5 545.0Q789 555 811.0 564.5Q833 574 848.0 580.5Q863 587 863 587Z" fill="#ffffff" />
<path d="M452 587Q447 578 447.5 556.0Q448 534 455.5 511.0Q463 488 480.0 474.5Q497 461 525.0 468.5Q553 476 594 517Q593 516 578.0 522.5Q563 529 542.0 540.0Q521 551 500.5 561.5Q480 572 466.0 579.5Q452 587 452 587Z" fill="#ffffff" />
<path d="M985 96Q991 112 985.0 122.5Q979 133 964 133Q927 130 912 96Q905 81 911.0 70.5Q917 60 933 60Q970 63 985 96Z" fill="#ffffff" />
<path d="M679 149Q697 152 694 170Q691 188 673 185Q665 184 658 184Q597 184 504 246Q499 250 494 250Q342 250 303 112Q284 46 294 -20Q296 -29 301 -33Q306 -37 315 -36Q333 -33 331 -15Q322 44 338 102Q369 210 488 213Q586 149 655 147Q655 147 656 147H659Q660 147 661 147Q670 147 679 149Z" fill="#000000" />
<path d="M650 71Q669 71 669 89Q669 108 650 108H512V222Q512 231 507 236Q503 240 494 240Q475 240 475 222V89Q475 71 494 71Z" fill="#000000" />
<path d="M427 206Q427 224 408 224Q390 224 390 206V-16Q390 -34 408 -34Q427 -34 427 -16Z" fill="#000000" />
<path d="M644 -69H1103Q1115 -69 1119 -58L1247 242Q1254 259 1237 266Q1234 267 1230 267H772Q760 267 755 256L627 -44Q620 -61 637 -68Q641 -69 644 -69ZM672 -32 784 231H1202L1090 -32Z" fill="#000000" />
<path d="M443.13848876953125 -31.87994384765625Q424.71551513671875 -31.87994384765625 424.71551513671875 -50.30291748046875Q424.71551513671875 -68.72589111328125 443.13848876953125 -68.72589111328125H643.7442016601562Q662.1671752929688 -68.72589111328125 662.1671752929688 -50.30291748046875Q662.1671752929688 -31.87994384765625 643.7442016601562 -31.87994384765625Z" fill="#000000" />
<path d="M689 382Q700 369 712 380Q725 390 715 403L670 458Q665 465 659 465Q653 466 647 461Q634 450 644 437Z" fill="#000000" />
<path d="M600 403Q589 390 602 380Q615 369 625 382L670 437Q680 450 668 461Q661 466 655 465Q650 465 644 458Z" fill="#000000" />
<path d="M612 464Q596 464 596 448Q596 431 612 431H702Q719 431 719 448Q719 464 702 464Z" fill="#000000" />
<path d="M931 609Q929 628 910 626Q901 625 897 620Q893 615 894 605L902 530Q902 484 885 442Q878 426 895 419Q912 412 919 429Q939 478 939 531Q939 532 939 533Z" fill="#000000" />
<path d="M396 429Q403 412 420 419Q428 422 431 428Q433 434 430 442Q413 484 412 530L447 840L539 752Q547 743 559 748Q603 767 652 767H663Q711 767 756 748Q767 743 776 752L867 840L875 760Q877 741 895 743Q904 744 909 749Q913 754 912 763L899 881Q899 887 894 892Q882 905 869 892L759 786Q712 803 663 803H652Q602 803 556 786L446 892Q442 896 435 897Q426 898 421 894Q416 890 415 881L376 533Q376 532 376 531Q376 478 396 429Z" fill="#000000" />
<path d="M524 326Q517 331 511 329Q506 328 501 321Q493 307 507 298Q573 257 652 257H663Q741 257 808 298Q822 307 813 321Q805 335 790 326Q732 290 663 290H652Q583 290 524 326Z" fill="#000000" />
<path d="M545.609130859375 536.136474609375Q545.6027221679688 545.3073120117188 539.1786499023438 551.722412109375Q532.7545776367188 558.1375122070312 522.9723510742188 558.1306762695312Q513.801513671875 558.124267578125 507.38641357421875 551.7001953125Q500.9713134765625 545.276123046875 500.97772216796875 536.1052856445312Q500.984130859375 526.9344482421875 507.408203125 520.5193481445312Q513.832275390625 514.104248046875 523.0031127929688 514.1106567382812Q532.7853393554688 514.1174926757812 539.200439453125 520.5415649414062Q545.6155395507812 526.9656372070312 545.609130859375 536.136474609375Z" fill="#000000" />
<path d="M814 536Q814 549 803 556Q792 563 780 556Q769 549 769 536Q769 523 780 517Q792 510 803 517Q814 523 814 536Z" fill="#000000" />
<path d="M857 601Q820 585 783 569Q751 554 733 545Q722 539 716 534Q712 531 709 528Q700 517 709 507Q710 507 710 506Q764 458 804 457Q841 455 862 490Q877 514 880 550Q884 583 875 596Q869 606 857 601ZM852 567Q852 561 851 552Q849 524 837 505Q825 485 805 486Q780 487 743 517Q745 518 747 519Q764 528 795 542Q823 555 852 567Z" fill="#000000" />
<path d="M927 350Q939 343 946 356Q953 369 941 376L840 431Q827 438 820 425Q813 413 826 405Z" fill="#000000" />
<path d="M886 302Q898 295 905 308Q912 321 900 328L799 383Q786 390 779 377Q772 365 785 357Z" fill="#000000" />
<path d="M458 601Q458 601 458 601Q445 607 438 594Q414 543 453 483Q476 449 513 452Q553 456 604 507Q614 516 606 526Q602 532 596 533Q595 533 593 533Q593 533 592 533Q587 535 576 540Q559 549 528 564Q493 582 458 601ZM460 567Q533 528 569 514Q535 484 510 482Q490 480 478 499Q454 536 460 567Z" fill="#000000" />
<path d="M373.53338623046875 375.2994384765625Q361.17889404296875 368.94769287109375 368.3736572265625 356.055419921875Q375.56842041015625 343.16314697265625 387.92291259765625 349.514892578125L488.604736328125 405.08172607421875Q501.49700927734375 412.2764892578125 494.30224609375 425.16876220703125Q487.95050048828125 437.52325439453125 474.2152099609375 430.86627197265625Z" fill="#000000" />
<path d="M415 328Q402 321 409 308Q413 302 418 300Q423 299 429 302L530 358Q543 365 536 377Q532 384 527 385Q522 387 516 383Z" fill="#000000" />
<path d="M861 695Q876 695 876 709Q877 724 862 724L416 735Q402 735 401 722L392 635Q390 621 405 619Q406 619 407 619L863 647Q870 647 873 651Q877 655 876 662Q876 677 861 676L423 649L428 706Z" fill="#000000" />
<path d="M925 649Q940 664 940 686Q940 737 889 737Q838 737 838 686Q838 634 889 634Q910 634 925 649ZM911 686Q911 677 905 670Q898 664 889 664Q880 664 874 670Q867 677 867 686Q867 708 889 708Q911 708 911 686Z" fill="#000000" />
</g></svg>