<svg xmlns="http://www.w3.org/2000/svg" viewBox="0 0 2048 2048">
<g transform="matrix(1 0 0 -1 0 2048)">
<path d="M91.5877685546875 733.1798706054688V36.51513671875H1228.2723388671875V733.1798706054688Z" fill="#5c9e31" />
<path d="M91.5877685546875 733.114990234375V384.755859375H1228.2723388671875V733.114990234375Z" fill="#d22f27" />
<path d="M618 321 736 411H590L708 321L663 467Z" fill="#f1b31c" />
<path d="M609 323Q607 319 610 315Q613 311 616 311Q620 311 623 313L663 344L703 313Q706 311 711 312Q720 315 717 323L702 373L742 404Q745 407 745 411Q745 420 736 420H687L672 470Q670 475 666 476Q657 479 654 470L639 420H590Q585 420 582 417Q580 413 580 410Q580 407 584 404L624 373ZM663 367 646 380 652 402H673L680 380ZM696 392 693 402H709ZM633 402 630 392 617 402ZM678 355 686 361 691 345ZM640 361 648 355 635 345ZM668 420H658L663 436Z" fill="#f1b31c" />
<path d="M73 37Q73 18 92 18H1228Q1247 18 1247 37V733Q1247 752 1228 752H92Q73 752 73 733ZM110 715H1210V55H110Z" fill="#000000" />
</g></svg>