<svg xmlns="http://www.w3.org/2000/svg" viewBox="0 0 2048 2048">
<g transform="matrix(1 0 0 -1 0 2048)">
<path d="M310 -29Q310 -29 308.5 -11.0Q307 7 308.5 36.0Q310 65 319.0 97.5Q328 130 348.0 158.5Q368 187 403.0 205.5Q438 224 493 224Q537 195 576.5 176.5Q616 158 658 158H656Q698 158 737.5 176.5Q777 195 821 224Q876 224 911.0 205.5Q946 187 966.0 158.5Q986 130 995.0 97.5Q1004 65 1005.5 36.0Q1007 7 1005.5 -11.0Q1004 -29 1004 -29Z" fill="#ffffff" />
<path d="M493 224Q503 150 521.0 100.5Q539 51 557.5 22.0Q576 -7 588.5 -19.5Q601 -32 601 -32H310Q310 -32 308.5 -13.5Q307 5 308.5 34.0Q310 63 319.0 95.5Q328 128 348.0 157.5Q368 187 403.0 205.5Q438 224 493 224Z" fill="#61b2e4" />
<path d="M821 224Q819 179 802.5 133.5Q786 88 766.0 50.5Q746 13 731.0 -9.5Q716 -32 716 -32H1004Q1004 -32 1005.5 -13.5Q1007 5 1005.5 34.0Q1004 63 995.0 95.5Q986 128 966.0 157.5Q946 187 911.0 205.5Q876 224 821 224Z" fill="#61b2e4" />
<path d="M699 160Q699 160 701.5 143.0Q704 126 702.5 104.5Q701 83 691.0 66.0Q681 49 657 49Q633 49 623.0 66.0Q613 83 611.5 104.5Q610 126 612.5 143.0Q615 160 615 160Z" fill="#92d3f5" />
<path d="M1031.6453857421875 279.8067626953125 1166.7860107421875 144.6661376953125 1218.8804931640625 196.7606201171875 1083.7398681640625 331.9012451171875Z" fill="#9b9b9a" />
<path d="M1075.2801513671875 357.99432373046875Q1075.2801513671875 373.13330078125 1069.5377807617188 386.4451599121094Q1063.79541015625 399.75701904296875 1053.7027587890625 409.84967041015625Q1043.610107421875 419.94232177734375 1030.2982482910156 425.6846923828125Q1016.9863891601562 431.42706298828125 1001.847412109375 431.42706298828125Q986.7084350585938 431.42706298828125 973.3965759277344 425.6846923828125Q960.084716796875 419.94232177734375 949.9920654296875 409.84967041015625Q939.8994140625 399.75701904296875 934.1570434570312 386.4451599121094Q928.4146728515625 373.13330078125 928.4146728515625 357.99432373046875Q928.4146728515625 342.8553466796875 934.1570434570312 329.5434875488281Q939.8994140625 316.23162841796875 949.9920654296875 306.13897705078125Q960.084716796875 296.04632568359375 973.3965759277344 290.303955078125Q986.7084350585938 284.56158447265625 1001.847412109375 284.56158447265625Q1016.9863891601562 284.56158447265625 1030.2982482910156 290.303955078125Q1043.610107421875 296.04632568359375 1053.7027587890625 306.13897705078125Q1063.79541015625 316.23162841796875 1069.5377807617188 329.5434875488281Q1075.2801513671875 342.8553466796875 1075.2801513671875 357.99432373046875Z" fill="#d0cfce" />
<path d="M598 -21 436 -1 454 56 400 90 493 217Q493 217 497.5 196.0Q502 175 510.5 143.0Q519 111 531.5 77.0Q544 43 560.5 16.0Q577 -11 597 -21L641 46Z" fill="#92d3f5" />
<path d="M654 53 626 5 599 -32H715L687 5Z" fill="#92d3f5" />
<path d="M716.0 -21.0 878.0 -1.0 860.0 56.0 914.0 90.0 821.0 217.0Q821.0 217.0 816.5 196.0Q812.0 175.0 803.5 143.0Q795.0 111.0 782.5 77.0Q770.0 43.0 753.5 16.0Q737.0 -11.0 717.0 -21.0L673.0 46.0Z" fill="#92d3f5" />
<path d="M843 402Q880 402 895.5 428.0Q911 454 914.0 501.5Q917 549 917 613Q917 661 902.5 706.5Q888 752 857.0 789.0Q826 826 777.5 847.5Q729 869 660 869Q591 869 542.5 847.5Q494 826 463.0 789.0Q432 752 417.5 706.5Q403 661 403 613Q403 549 406.0 501.5Q409 454 424.5 428.0Q440 402 477 402Z" fill="#fcea2b" />
<path d="M457 521Q457 567 462.0 590.5Q467 614 472.0 622.5Q477 631 477 631Q532 640 571.5 660.0Q611 680 644.5 706.0Q678 732 715 759Q715 759 727.0 744.5Q739 730 758.5 707.0Q778 684 800.5 658.5Q823 633 843 613Q862 569 862 521Q862 438 834.0 381.0Q806 324 759.5 294.0Q713 264 659 264Q603 264 557.5 294.0Q512 324 484.5 381.0Q457 438 457 521Z" fill="#debb90" />
<path d="M1093 359Q1093 397 1067 423Q1040 450 1002 450Q964 450 937 423Q910 397 910 359Q910 321 937 294Q964 267 1002 267Q1040 267 1067 294Q1093 321 1093 359ZM1057 359Q1057 336 1041 320Q1025 304 1002 304Q979 304 963 320Q947 336 947 359Q947 414 1002 414Q1025 414 1041 397Q1057 381 1057 359Z" fill="#000000" />
<path d="M1206 184Q1193 197 1180 184Q1167 171 1180 158L1218 121Q1231 108 1244 121Q1250 127 1250 134Q1250 140 1244 147Z" fill="#000000" />
<path d="M1098 226Q1098 244 1080 244Q1061 244 1061 226V-16Q1061 -34 1080 -34Q1098 -34 1098 -16Z" fill="#000000" />
<path d="M633 160Q636 178 618 181Q600 185 597 167Q591 137 594 106Q600 34 657 34Q714 34 721 106Q723 137 717 167Q714 185 696 181Q678 178 681 160Q686 135 684 110Q681 71 657 71Q634 71 630 110Q628 135 633 160Z" fill="#000000" />
<path d="M626 63 592 11Q543 53 511 227Q508 245 490 242Q483 240 478 235L385 107Q374 93 389 82Q389 81 390 81L432 55L418 11Q416 3 419 -3Q422 -9 430 -12Q432 -12 434 -12L592 -32Q599 -34 605 -31Q610 -30 614 -24L657 43Q667 58 651 68Q636 78 626 63ZM545 11 460 21 472 57Q476 71 464 78L426 102L483 179Q508 65 545 11Z" fill="#000000" />
<path d="M688 63Q678 78 663 68Q655 63 654 57Q652 51 657 43L700 -24Q704 -30 710 -31Q715 -34 722 -32L880 -12Q882 -12 884 -12Q901 -6 896 11L882 55L924 81Q925 81 925 82Q940 93 929 107L836 235Q831 240 824 242Q806 245 803 227Q771 53 722 11ZM769 11Q806 65 831 179L888 102L850 78Q838 71 843 57L854 21Z" fill="#000000" />
<path d="M292 -17Q295 -35 313 -33Q331 -30 328 -12Q319 44 337 99Q369 203 488 205Q585 141 654 140Q655 140 656 140H658Q659 140 660 140Q729 141 826 205Q946 203 978 99Q995 44 986 -12Q983 -30 1001 -33Q1020 -35 1022 -17Q1032 46 1013 110Q972 242 821 242Q815 242 811 239Q717 177 657 176Q597 177 503 239Q499 242 493 242Q342 242 302 110Q282 46 292 -17Z" fill="#000000" />
<path d="M477 384Q495 384 495 402Q495 420 477 420Q441 420 430 464Q422 498 422 613Q422 713 477 777Q540 851 660 851Q780 851 843 777Q898 713 898 613Q898 498 890 464Q879 420 843 420Q825 420 825 402Q825 384 843 384Q908 384 925 455Q935 494 935 613Q935 726 871 801Q797 888 660 888Q523 888 449 801Q385 726 385 613Q385 494 395 455Q413 384 477 384Z" fill="#000000" />
<path d="M439 521Q439 395 502 319Q564 246 659 246Q753 246 815 319Q880 395 880 521Q881 572 860 620Q859 623 856 626Q802 680 729 771Q718 785 704 774Q693 766 671 749Q563 664 474 649Q471 649 469 648Q468 647 466 646Q466 646 465 645Q465 645 464 645Q464 645 464 644Q464 644 464 644Q464 644 464 644Q463 644 463 643Q462 642 461 641Q460 639 458 636Q453 628 449 616Q439 581 439 521ZM476 521Q476 576 484 605Q486 611 488 614Q582 633 694 720Q704 728 712 734Q777 653 828 602Q844 563 843 521Q843 409 787 343Q736 283 659 283Q581 283 530 343Q476 408 476 521ZM463 617Q458 622 458 631Q458 629 459 628Q460 621 463 617Z" fill="#000000" />
<path d="M622.6845703125 548.6748657226562Q622.6845703125 564.0086669921875 612.017578125 574.6756591796875Q601.3505859375 585.3426513671875 586.0167846679688 585.3426513671875Q570.6829833984375 585.3426513671875 560.0159912109375 574.6756591796875Q549.3489990234375 564.0086669921875 549.3489990234375 548.6748657226562Q549.3489990234375 534.0077514648438 560.0159912109375 523.0074157714844Q570.6829833984375 512.007080078125 586.0167846679688 512.007080078125Q601.3505859375 512.007080078125 612.017578125 523.0074157714844Q622.6845703125 534.0077514648438 622.6845703125 548.6748657226562Z" fill="#000000" />
<path d="M659 366Q693 366 723 381Q729 385 731.5 392.0Q734 399 731 406Q727 413 720.0 415.5Q713 418 706 414Q659 389 613 414Q606 418 598.5 415.5Q591 413 588 406Q585 399 587.0 392.0Q589 385 596 381Q626 366 659 366Z" fill="#000000" />
<path d="M768.6845703125 548.6748657226562Q768.6845703125 564.0086669921875 758.017578125 574.6756591796875Q747.3505859375 585.3426513671875 732.0167846679688 585.3426513671875Q716.6829833984375 585.3426513671875 706.0159912109375 574.6756591796875Q695.3489990234375 564.0086669921875 695.3489990234375 548.6748657226562Q695.3489990234375 534.0077514648438 706.0159912109375 523.0074157714844Q716.6829833984375 512.007080078125 732.0167846679688 512.007080078125Q747.3505859375 512.007080078125 758.017578125 523.0074157714844Q768.6845703125 534.0077514648438 768.6845703125 548.6748657226562Z" fill="#000000" />
<path d="M1154 132Q1167 119 1180 132L1232 184Q1245 197 1232 210L1096 345Q1083 358 1070 345L1019 293Q1006 280 1019 267ZM1057 280 1083 306 1193 197 1167 171Z" fill="#000000" />
</g></svg>