<svg xmlns="http://www.w3.org/2000/svg" viewBox="0 0 2048 2048">
<g transform="matrix(1 0 0 -1 0 2048)">
<path d="M311 -33Q311 -33 310.0 -14.5Q309 4 310.5 33.0Q312 62 320.5 95.0Q329 128 349.0 157.5Q369 187 404.5 205.5Q440 224 495 224Q539 194 578.0 176.0Q617 158 660 158H657Q700 158 739.5 176.0Q779 194 822 224Q877 224 912.5 205.5Q948 187 968.0 157.5Q988 128 996.5 95.0Q1005 62 1007.0 33.0Q1009 4 1007.5 -14.5Q1006 -33 1006 -33Z" fill="#3f3f3f" />
<path d="M827 822 923 831 645 878 391 831 490 822 657 805Z" fill="#9b9b9a" />
<path d="M827 822 657 805 490 822V676Q490 676 509.5 676.0Q529 676 557.5 672.0Q586 668 614.0 658.0Q642 648 659 628Q676 648 704.0 658.0Q732 668 760.5 672.0Q789 676 808.0 676.0Q827 676 827 676Z" fill="#3f3f3f" />
<path d="M659 103Q660 103 660.0 103.0Q660 103 660 103Q704 103 744.5 121.5Q785 140 833 172Q839 176 840.5 183.5Q842 191 838 197Q834 204 826.5 205.5Q819 207 812 202Q769 174 732.5 157.0Q696 140 659 140Q621 140 584.5 157.0Q548 174 505 202Q499 207 491.5 205.5Q484 204 480 197Q475 191 476.5 183.5Q478 176 485 172Q532 140 572.5 121.5Q613 103 657 103Q658 103 658.0 103.0Q658 103 658 103H659Q659 103 659.0 103.0Q659 103 659 103Z" fill="#ffffff" />
<path d="M488 676Q488 676 506.0 676.0Q524 676 551.0 672.5Q578 669 604 660V658Q567 623 533.5 612.0Q500 601 479.0 601.5Q458 602 458 602V603Q468 643 487 677Z" fill="#000000" />
<path d="M826 677Q846 642 856 602Q856 602 834.5 601.5Q813 601 779.5 612.0Q746 623 710 658L709 659Q736 670 763.0 673.0Q790 676 807.5 676.0Q825 676 825 676Z" fill="#000000" />
<path d="M853 602Q865 561 865 517Q865 446 836.5 387.0Q808 328 761.0 293.0Q714 258 657 258Q599 258 552.0 293.0Q505 328 477.0 387.0Q449 446 449 517Q449 561 460 602Q467 601 488.5 602.0Q510 603 540.5 615.0Q571 627 604 658V660Q575 670 545.0 673.0Q515 676 500 676Q514 676 545.0 673.0Q576 670 608.0 660.0Q640 650 659 628Q668 639 681.5 646.5Q695 654 710 660Q710 660 709 659L710 658Q742 627 772.5 615.0Q803 603 825.0 602.0Q847 601 853 602Z" fill="#6a462f" />
<path d="M768.6845703125 550.6748657226562Q768.6845703125 566.0086669921875 758.017578125 576.6756591796875Q747.3505859375 587.3426513671875 732.0167846679688 587.3426513671875Q716.6829833984375 587.3426513671875 706.0159912109375 576.6756591796875Q695.3489990234375 566.0086669921875 695.3489990234375 550.6748657226562Q695.3489990234375 536.0077514648438 706.0159912109375 525.0074157714844Q716.6829833984375 514.007080078125 732.0167846679688 514.007080078125Q747.3505859375 514.007080078125 758.017578125 525.0074157714844Q768.6845703125 536.0077514648438 768.6845703125 550.6748657226562Z" fill="#000000" />
<path d="M622.6845703125 550.6748657226562Q622.6845703125 566.0086669921875 612.017578125 576.6756591796875Q601.3505859375 587.3426513671875 586.0167846679688 587.3426513671875Q570.6829833984375 587.3426513671875 560.0159912109375 576.6756591796875Q549.3489990234375 566.0086669921875 549.3489990234375 550.6748657226562Q549.3489990234375 536.0077514648438 560.0159912109375 525.0074157714844Q570.6829833984375 514.007080078125 586.0167846679688 514.007080078125Q601.3505859375 514.007080078125 612.017578125 525.0074157714844Q622.6845703125 536.0077514648438 622.6845703125 550.6748657226562Z" fill="#000000" />
<path d="M659 368Q691 368 723 384Q729 387 731.5 394.0Q734 401 731 408Q727 415 720.0 417.5Q713 420 706 416Q659 393 613 416Q606 420 598.5 417.5Q591 415 588 408Q585 401 587.0 394.0Q589 387 596 384Q628 368 659 368Z" fill="#000000" />
<path d="M846 683Q864 649 874.5 609.5Q885 570 885 526Q885 449 854.5 386.0Q824 323 772.5 285.5Q721 248 659 248Q597 248 545.5 285.5Q494 323 463.5 386.0Q433 449 433 526Q433 570 443.0 609.5Q453 649 472 683Q488 711 509 734V694Q515 694 523 694Q510 677 500 658Q486 630 477.5 596.5Q469 563 469 526Q469 459 495.0 404.5Q521 350 564.0 317.0Q607 284 659 284Q711 284 754.0 317.0Q797 350 822.5 404.5Q848 459 848 526Q848 562 840.0 595.5Q832 629 818 658Q807 678 795 694Q803 694 809 694V734Q830 711 846 683Z" fill="#000000" />
<path d="M392 850Q383 850 378 846Q373 842 372 833Q371 815 389 813L489 803L655 787Q657 787 659 787L829 804L924 813Q943 815 941 833Q940 842 935 846Q930 850 921 850L826 840L657 824L492 840Z" fill="#000000" />
<path d="M674 617Q682 628 673 639Q666 647 659 653Q630 676 590.5 684.0Q551 692 523 694Q515 694 509 694V831Q509 839 503.5 844.5Q498 850 490 850Q483 850 477.5 844.5Q472 839 472 831V676Q472 668 478 663Q483 657 491 658Q493 658 495.5 658.0Q498 658 500 658Q519 658 547.0 654.5Q575 651 602.0 642.5Q629 634 644 617Q645 615 647 614Q650 611 654 610Q655 610 656 610Q657 609 659 609Q661 609 662 610Q663 610 664 610Q669 612 673 616Q674 617 674 617Z" fill="#000000" />
<path d="M846 831Q846 839 840.5 844.5Q835 850 827 850Q820 850 814.5 844.5Q809 839 809 831V694Q803 694 795 694Q767 692 727.0 684.0Q687 676 659 653Q651 647 645 639Q635 628 644 617Q645 615 647 614Q650 611 654 610Q655 610 656 610Q657 609 659 609Q661 609 662 610Q663 610 664 610Q669 612 673 616Q674 617 674 617Q689 634 716.0 642.5Q743 651 771.0 654.5Q799 658 818 658Q824 658 827 658Q835 658 840 663Q846 668 846 676Z" fill="#000000" />
<path d="M920 813Q938 810 941 828Q944 846 926 849L648 896Q645 896 642 896L387 849Q369 846 373 828Q374 819 380 815Q385 812 394 813L645 859Z" fill="#000000" />
<path d="M391 660Q398 660 403.5 665.5Q409 671 409 678V827Q409 835 403.5 840.5Q398 846 391 846Q383 846 377.5 840.5Q372 835 372 827V678Q372 671 377.5 665.5Q383 660 391 660Z" fill="#000000" />
<path d="M354 613Q362 613 368 620L405 667Q410 673 409.0 680.5Q408 688 402 693Q396 697 388.5 696.5Q381 696 376 690L339 642Q334 636 335.0 628.5Q336 621 342 617Q347 613 354 613Z" fill="#000000" />
<path d="M391 585Q398 585 403.5 590.5Q409 596 409 603V678Q409 686 403.5 691.5Q398 697 391 697Q383 697 377.5 691.5Q372 686 372 678V603Q372 596 377.5 590.5Q383 585 391 585Z" fill="#000000" />
<path d="M841 582Q850 582 855.5 583.0Q861 584 862 584Q869 585 873.0 591.5Q877 598 876 605Q875 613 868.5 617.0Q862 621 855 620Q853 620 834.0 619.5Q815 619 786.0 629.5Q757 640 725 672Q719 677 711.5 677.0Q704 677 699 671Q694 666 694.0 658.5Q694 651 699 645Q741 604 780.0 593.0Q819 582 841 582Z" fill="#000000" />
<path d="M476 582Q498 582 537.0 593.0Q576 604 619 645Q624 651 624.0 658.5Q624 666 619 671Q614 677 606.5 677.0Q599 677 593 672Q561 640 532.0 629.5Q503 619 484.0 619.5Q465 620 463 620Q456 621 449.5 617.0Q443 613 442 605Q440 598 444.5 591.5Q449 585 456 584Q457 584 462.5 583.0Q468 582 476 582Z" fill="#000000" />
<path d="M1004 -33Q1020 -33 1022 -18Q1022 -16 1023.5 4.0Q1025 24 1023.0 54.5Q1021 85 1010.0 118.5Q999 152 975 180Q922 242 821 242Q815 242 810 239Q767 210 730.5 193.0Q694 176 657 176Q619 176 582.5 193.0Q546 210 503 239Q498 242 493 242Q392 242 339 180Q314 152 303.5 118.5Q293 85 290.5 54.5Q288 24 289.5 4.0Q291 -16 291 -18Q293 -25 299.0 -29.5Q305 -34 312 -33Q320 -32 324.5 -25.5Q329 -19 328 -12Q328 -12 326.5 5.5Q325 23 327.0 49.0Q329 75 337.5 104.0Q346 133 367 156Q407 204 487 205Q533 175 572.5 157.5Q612 140 655 139Q655 139 656 139Q656 139 656.0 139.0Q656 139 656 139H657Q657 139 657.0 139.0Q657 139 657 139Q658 139 659 139Q701 140 740.5 157.5Q780 175 826 205Q906 204 947 156Q967 133 976.0 104.0Q985 75 986.5 49.0Q988 23 987.0 5.5Q986 -12 986 -12Q985 -19 989.5 -25.5Q994 -32 1001 -33Q1002 -33 1004 -33Z" fill="#000000" />
</g></svg>