<svg xmlns="http://www.w3.org/2000/svg" viewBox="0 0 2048 2048">
<g transform="matrix(1 0 0 -1 0 2048)">
<path d="M91.5877685546875 165.38323974609375V51.74365234375H1228.2723388671875V165.38323974609375Z" fill="#b399c8" />
<path d="M91.5877685546875 274.97576904296875V164.97607421875H1228.2723388671875V274.97576904296875Z" fill="#92d3f5" />
<path d="M91.5877685546875 384.97576904296875V274.97607421875H1228.2723388671875V384.97576904296875Z" fill="#b1cc33" />
<path d="M91.5877685546875 494.97576904296875V384.97607421875H1228.2723388671875V494.97576904296875Z" fill="#fcea2b" />
<path d="M91.5877685546875 604.9757690429688V494.97607421875H1228.2723388671875V604.9757690429688Z" fill="#f4aa41" />
<path d="M91.5877685546875 718.3832397460938V604.74365234375H1228.2723388671875V718.3832397460938Z" fill="#ea5a47" />
<path d="M73 37Q73 18 92 18H1228Q1247 18 1247 37V733Q1247 752 1228 752H92Q73 752 73 733ZM110 715H1210V55H110Z" fill="#000000" />
</g></svg>