<svg xmlns="http://www.w3.org/2000/svg" viewBox="0 0 2048 2048">
<g transform="matrix(1 0 0 -1 0 2048)">
<path d="M1015 427Q1017 419 1017 410V202H1013Q1012 121 986.0 57.0Q960 -7 916.5 -50.5Q873 -94 820.5 -114.5Q768 -135 715 -130Q672 -118 630.0 -109.5Q588 -101 551.0 -83.0Q514 -65 484.5 -26.5Q455 12 436.0 82.5Q417 153 411 267Q362 333 338.5 374.5Q315 416 312.5 440.0Q310 464 322 476Q333 486 353.5 483.5Q374 481 396.5 471.0Q419 461 435 449Q444 443 451 436L464 444L489 411L503 391V368L504 390L503 391V836Q503 863 522.0 881.5Q541 900 567 900Q593 900 611.0 883.5Q629 867 631 842Q632 838 632 836V426H633V436Q638 459 657.0 473.0Q676 487 700 486Q724 484 741.0 467.0Q758 450 760 427H762Q762 430 764 436Q767 442 769 447Q770 448 773 452Q774 453 776 456Q778 459 780 461Q783 463 785 465Q795 472 806 476Q812 478 818 478Q820 479 825 479Q828 479 829 478Q830 478 830.0 478.0Q830 478 830 478H831Q834 478 835 478Q839 477 842 476Q845 476 847 474Q853 472 857 470Q858 469 861 467Q866 464 871 459Q873 456 875 454Q885 442 888 427Q888 427 888.0 427.0Q888 427 888 427Q887 427 888 425Q888 426 888.0 426.0Q888 426 888 427H891Q897 448 915.0 461.5Q933 475 956 474Q977 473 993.5 459.5Q1010 446 1015 427ZM761 420Q761 421 761 423Q761 423 761 420Z" fill="#a57939" />
<path d="M1035 171Q1035 190 1017 190Q999 190 999 171Q999 54 916 -29Q833 -112 715 -112Q598 -112 515 -29Q432 54 432 171Q432 190 414 190Q395 190 395 171Q395 39 489 -55Q583 -149 715 -149Q848 -149 942 -55Q1035 39 1035 171Z" fill="#000000" />
<path d="M999 187Q999 169 1017 169Q1035 169 1035 187V407Q1035 426 1017 426Q999 426 999 407Z" fill="#000000" />
<path d="M871 414Q870 395 888 395Q906 394 907 412Q908 431 922 444Q936 457 955 456Q1001 454 999 408Q998 390 1016 389Q1035 388 1035 407Q1037 441 1014 466Q991 491 956 493Q922 494 897 471Q872 448 871 414Z" fill="#000000" />
<path d="M742 418Q742 400 760 399Q778 398 779 416Q780 435 794 448Q808 461 827 460Q846 459 858 445Q871 431 871 413Q870 394 888 393Q906 393 907 411Q909 445 885 470Q862 495 828 497Q794 498 769 475Q744 452 742 418Z" fill="#000000" />
<path d="M742 421Q741 403 759 401Q778 400 779 418Q781 437 795 449Q809 462 828 460Q847 459 860 444Q872 430 870 411Q869 392 887 391Q905 390 907 408Q910 442 888 468Q865 494 831 497Q797 499 771 477Q745 455 742 421Z" fill="#000000" />
<path d="M613 427Q612 409 630 408Q649 406 650 425Q653 470 699 468Q718 466 730 452Q743 438 741 419Q740 401 759 399Q777 398 778 417Q780 451 758 476Q735 502 701 504Q667 506 641 484Q616 461 613 427Z" fill="#000000" />
<path d="M308 372Q314 366 320 366Q327 366 334 372Q347 385 334 398Q302 431 335 463Q349 476 368 476Q387 475 400 462Q413 448 426 461Q439 474 426 487Q403 512 368 512Q334 513 310 489Q285 465 284 431Q284 397 308 372Z" fill="#000000" />
<path d="M485 836Q485 818 503 818Q522 818 522 836Q522 855 535 868Q548 882 567 882Q613 882 613 836Q613 818 632 818Q650 818 650 836Q650 870 626 894Q602 919 567 919Q533 919 509 894Q485 870 485 836Z" fill="#000000" />
<path d="M613 427Q613 408 632 408Q650 408 650 427V836Q650 854 632 854Q613 854 613 836Z" fill="#000000" />
<path d="M522 836Q522 854 503 854Q485 854 485 836V327Q485 308 503 308Q522 308 522 327Z" fill="#000000" />
<path d="M435 422Q447 408 461 420Q468 426 468 433Q469 439 463 446L427 486Q415 500 401 488Q387 476 399 462Z" fill="#000000" />
<path d="M367 355Q354 368 341 356Q327 344 340 330Q397 267 395 168Q395 159 400 155Q404 150 413 150Q432 149 432 168Q434 281 367 355Z" fill="#000000" />
<path d="M335 396Q324 411 310 400Q302 394 302 388Q301 381 306 374L340 330Q351 316 365 327Q373 333 373 339Q374 345 369 353Z" fill="#000000" />
</g></svg>