<svg xmlns="http://www.w3.org/2000/svg" viewBox="0 0 2048 2048">
<g transform="matrix(1 0 0 -1 0 2048)">
<path d="M414 -177Q414 -177 424.5 -177.0Q435 -177 449.0 -177.0Q463 -177 473.0 -177.0Q483 -177 483 -177H1224V99L563 160Q585 86 571.0 19.0Q557 -48 516.0 -99.5Q475 -151 414 -177Z" fill="#92d3f5" />
<path d="M414 -177Q414 -177 424.5 -177.0Q435 -177 449.0 -177.0Q463 -177 473.0 -177.0Q483 -177 483 -177H1224V-91L535 -74Q501 -125 414 -177Z" fill="#61b2e4" />
<path d="M346 -39Q351 -39 367.0 -53.0Q383 -67 402.0 -86.5Q421 -106 435.0 -122.0Q449 -138 449 -143Q501 -123 526.5 -92.0Q552 -61 561.0 -23.5Q570 14 569.5 54.5Q569 95 569 133Q527 159 501.5 200.5Q476 242 462.5 290.0Q449 338 442.5 385.0Q436 432 432 468Q427 493 419.5 505.5Q412 518 404.5 530.5Q397 543 393 568L347 875Q345 894 330.5 906.0Q316 918 298 917Q283 915 271.5 905.0Q260 895 257 881Q257 881 257.0 857.0Q257 833 257.0 794.0Q257 755 257.0 708.5Q257 662 257.0 615.5Q257 569 257.0 529.5Q257 490 257.0 466.5Q257 443 257 443H208L173 357L242 64Q242 52 255.5 34.5Q269 17 287.5 0.0Q306 -17 322.5 -28.0Q339 -39 346 -39Z" fill="#a57939" />
<path d="M406 -161Q395 -166 395 -177Q395 -194 413 -194H1222Q1239 -194 1239 -177V99Q1239 114 1224 116L562 178Q559 178 556 177Q539 172 544 155Q575 53 533 -37Q493 -124 406 -161ZM477 -160Q533 -119 564 -52Q607 40 584 141L1205 83V-160Z" fill="#000000" />
<path d="M344 185Q344 167 361 167Q378 167 378 185Q378 227 337 284Q309 321 309 340Q309 410 281 441Q251 476 200 459Q152 443 156 341Q160 255 191 194Q204 168 206 98Q208 57 251 3Q299 -56 344 -56Q359 -56 395 -98Q430 -137 430 -143Q430 -160 447 -160Q464 -160 464 -143Q464 -124 421 -75Q374 -22 344 -22Q316 -22 278 24Q242 70 240 99Q238 176 221 210Q194 264 191 343Q188 419 211 427Q240 436 255 419Q275 397 275 340Q275 310 309 264Q344 216 344 185Z" fill="#000000" />
<path d="M558 118Q572 109 581 124Q590 139 575 148Q477 207 449 448Q447 463 446 471Q446 471 446 471Q441 499 424 527Q411 549 407 571L362 877Q358 923 313 932Q252 946 238 884Q238 883 238 881V511Q238 494 255 494Q272 494 272 511V879Q279 905 306 899Q326 894 328 873Q328 873 328 872L373 565Q378 537 395 509Q408 487 412 466Q413 459 415 444Q444 186 558 118Z" fill="#000000" />
</g></svg>