<svg xmlns="http://www.w3.org/2000/svg" viewBox="0 0 2048 2048">
<g transform="matrix(1 0 0 -1 0 2048)">
<path d="M402.644287109375 713.0755004882812Q402.644287109375 720.656982421875 399.8116455078125 727.322021484375Q396.97900390625 733.987060546875 391.9385681152344 739.0274963378906Q386.89813232421875 744.0679321289062 380.23309326171875 746.9005737304688Q373.56805419921875 749.7332153320312 365.986572265625 749.7332153320312Q358.40509033203125 749.7332153320312 351.74005126953125 746.9005737304688Q345.07501220703125 744.0679321289062 340.0345764160156 739.0274963378906Q334.994140625 733.987060546875 332.1614990234375 727.322021484375Q329.328857421875 720.656982421875 329.328857421875 713.0755004882812Q329.328857421875 705.4940185546875 332.1614990234375 698.8289794921875Q334.994140625 692.1639404296875 340.0345764160156 687.1235046386719Q345.07501220703125 682.0830688476562 351.74005126953125 679.2504272460938Q358.40509033203125 676.4177856445312 365.986572265625 676.4177856445312Q373.56805419921875 676.4177856445312 380.23309326171875 679.2504272460938Q386.89813232421875 682.0830688476562 391.9385681152344 687.1235046386719Q396.97900390625 692.1639404296875 399.8116455078125 698.8289794921875Q402.644287109375 705.4940185546875 402.644287109375 713.0755004882812Z" fill="#ea5a47" />
<path d="M787.644287109375 933.0755004882812Q787.644287109375 940.656982421875 784.8116455078125 947.322021484375Q781.97900390625 953.987060546875 776.9385681152344 959.0274963378906Q771.8981323242188 964.0679321289062 765.2330932617188 966.9005737304688Q758.5680541992188 969.7332153320312 750.986572265625 969.7332153320312Q743.4050903320312 969.7332153320312 736.7400512695312 966.9005737304688Q730.0750122070312 964.0679321289062 725.0345764160156 959.0274963378906Q719.994140625 953.987060546875 717.1614990234375 947.322021484375Q714.328857421875 940.656982421875 714.328857421875 933.0755004882812Q714.328857421875 925.4940185546875 717.1614990234375 918.8289794921875Q719.994140625 912.1639404296875 725.0345764160156 907.1235046386719Q730.0750122070312 902.0830688476562 736.7400512695312 899.2504272460938Q743.4050903320312 896.4177856445312 750.986572265625 896.4177856445312Q758.5680541992188 896.4177856445312 765.2330932617188 899.2504272460938Q771.8981323242188 902.0830688476562 776.9385681152344 907.1235046386719Q781.97900390625 912.1639404296875 784.8116455078125 918.8289794921875Q787.644287109375 925.4940185546875 787.644287109375 933.0755004882812Z" fill="#92d3f5" />
<path d="M1062.644287109375 548.0755004882812Q1062.644287109375 555.656982421875 1059.8116455078125 562.322021484375Q1056.97900390625 568.987060546875 1051.9385681152344 574.0274963378906Q1046.8981323242188 579.0679321289062 1040.2330932617188 581.9005737304688Q1033.5680541992188 584.7332153320312 1025.986572265625 584.7332153320312Q1018.4050903320312 584.7332153320312 1011.7400512695312 581.9005737304688Q1005.0750122070312 579.0679321289062 1000.0345764160156 574.0274963378906Q994.994140625 568.987060546875 992.1614990234375 562.322021484375Q989.328857421875 555.656982421875 989.328857421875 548.0755004882812Q989.328857421875 540.4940185546875 992.1614990234375 533.8289794921875Q994.994140625 527.1639404296875 1000.0345764160156 522.1235046386719Q1005.0750122070312 517.0830688476562 1011.7400512695312 514.2504272460938Q1018.4050903320312 511.41778564453125 1025.986572265625 511.41778564453125Q1033.5680541992188 511.41778564453125 1040.2330932617188 514.2504272460938Q1046.8981323242188 517.0830688476562 1051.9385681152344 522.1235046386719Q1056.97900390625 527.1639404296875 1059.8116455078125 533.8289794921875Q1062.644287109375 540.4940185546875 1062.644287109375 548.0755004882812Z" fill="#b1cc33" />
<path d="M714.5 805.125Q714.5 816.5 710.25 826.5Q706.0 836.5 698.4375 844.0625Q690.875 851.625 680.875 855.875Q670.875 860.125 659.5 860.125Q648.125 860.125 638.125 855.875Q628.125 851.625 620.5625 844.0625Q613.0 836.5 608.75 826.5Q604.5 816.5 604.5 805.125Q604.5 793.75 608.75 783.75Q613.0 773.75 620.5625 766.1875Q628.125 758.625 638.125 754.375Q648.125 750.125 659.5 750.125Q670.875 750.125 680.875 754.375Q690.875 758.625 698.4375 766.1875Q706.0 773.75 710.25 783.75Q714.5 793.75 714.5 805.125Z" fill="#debb90" />
<path d="M724 805Q724 869 659 869Q633 869 614 850Q595 831 595 805Q595 778 614 759Q633 740 659 740Q724 740 724 805ZM705 805Q705 759 659 759Q640 759 627 772Q614 786 614 805Q614 824 627 837Q640 850 659 850Q705 850 705 805Z" fill="#debb90" />
<path d="M550 568Q545 532 535.5 504.0Q526 476 516 463Q508 452 488.5 441.5Q469 431 436 437Q417 441 395.0 461.5Q373 482 355.0 505.5Q337 529 328 542Q319 555 321.5 568.0Q324 581 330.0 590.0Q336 599 336 599L458 486L489 507L499 586L561 668L739 664L803 639L839 506L863 479L901 458L958 468Q958 468 970.0 472.5Q982 477 994.0 480.5Q1006 484 1007 481Q1008 477 1010.0 468.5Q1012 460 1006 447Q1000 435 984.5 427.0Q969 419 951.5 414.5Q934 410 921.0 408.0Q908 406 908 406Q877 401 854.5 409.5Q832 418 818.0 432.0Q804 446 796 458Q785 476 779.5 502.0Q774 528 772.0 548.0Q770 568 770 568L801 -183H741L678 275H642L579 -183H519Z" fill="#debb90" />
<path d="M537 481 509 -192H587L650 266H670L733 -192H811L784 461Q786 457 788 453Q832 385 910 397Q997 407 1014 443Q1023 462 1016 482Q1016 483 1016 484Q1013 494 997 490Q990 489 979 485Q967 482 955 477L903 468L869 486L847 510L810 646L741 673L557 677L490 590L480 512L459 498L335 612L329 605Q298 568 320 537Q321 536 323 533Q393 436 434 428Q494 417 524 458Q531 468 537 481ZM559 568 541 569Q532 500 509 468Q486 437 438 446Q404 452 337 544Q336 546 335 547Q323 564 337 585L458 474L497 502L508 582L566 658L738 655L795 633L830 501L857 472L900 449L960 459L961 460Q973 464 985 468Q994 471 1000 472Q1003 461 998 451Q985 424 907 415Q841 405 804 463Q783 496 779 569L761 568L792 -174H749L686 284H634L571 -174H528Z" fill="#debb90" />
<path d="M733 805Q733 879 659 879Q629 879 608 857Q586 836 586 805Q586 775 608 753Q629 732 659 732Q733 732 733 805ZM696 805Q696 769 659 769Q623 769 623 805Q623 842 659 842Q696 842 696 805Z" fill="#000000" />
<path d="M770 570Q769 579 764 583Q760 587 750 587Q732 585 733 567L780 -148Q781 -156 777 -161Q774 -165 771 -165Q757 -165 754 -145L701 241Q694 293 660 293Q626 293 619 241L566 -145Q563 -165 549 -165Q546 -165 543 -161Q539 -156 540 -148L587 567Q588 585 570 587Q551 588 550 570L503 -146Q502 -167 514 -184Q528 -202 549 -202Q595 -202 602 -149L655 236Q658 257 660 257Q662 257 665 236L718 -149Q725 -202 771 -202Q792 -202 806 -184Q818 -167 817 -146Z" fill="#000000" />
<path d="M362 599Q350 613 336 600Q322 588 335 575L402 497Q435 460 468 469Q502 479 510 527L516 567Q529 644 589 651Q660 660 731 651Q791 644 804 567L810 527Q818 483 849 458Q882 431 921 441L994 459Q1012 463 1008 481Q1006 490 1000 493Q994 497 986 494L912 476Q891 471 872 486Q851 503 846 533L840 573Q833 615 803 648Q773 683 736 687Q660 697 584 687Q547 683 517 648Q487 615 480 573L474 533Q469 508 458 504Q447 501 430 521Z" fill="#000000" />
</g></svg>