<svg xmlns="http://www.w3.org/2000/svg" viewBox="0 0 2048 2048">
<g transform="matrix(1 0 0 -1 0 2048)">
<path d="M743 661Q742 657 738.5 648.0Q735 639 732.0 631.0Q729 623 729 623L762 555L822 463L708 409L683 415L640 432L570 458L499 485Q499 485 485.0 488.5Q471 492 456.0 495.0Q441 498 438 497Q425 496 416.5 482.5Q408 469 405 456Q402 442 412.0 427.5Q422 413 422 413Q403 421 385 431Q360 449 330 450Q328 450 312.0 448.0Q296 446 291 434Q280 416 277 396Q276 381 279 365Q279 365 267.5 369.0Q256 373 241.5 374.5Q227 376 217 370Q206 363 203.5 358.0Q201 353 197 342Q194 323 201 304Q209 286 214.5 285.5Q220 285 220 285Q220 285 207.5 277.5Q195 270 181.5 257.5Q168 245 165 230Q163 219 172.5 206.0Q182 193 192.0 184.0Q202 175 202 175H257Q257 175 321.0 176.5Q385 178 495 175Q615 173 734 156Q765 152 791.0 147.5Q817 143 844 138Q899 128 949.0 118.5Q999 109 1064 101Q1103 97 1122.5 97.5Q1142 98 1148.5 99.5Q1155 101 1155 101V402Q1155 402 1149.5 405.5Q1144 409 1116 418Q1100 422 1063.5 449.5Q1027 477 979.0 520.0Q931 563 880 615Q868 627 853.5 642.5Q839 658 822.5 669.0Q806 680 788 678Q788 678 778.5 677.0Q769 676 758.0 672.0Q747 668 743 661Z" fill="#6a462f" />
<path d="M1157 420Q1110 424 1053 481Q1053 481 1053 482Q996 535 846 669Q845 670 844 671Q776 717 736 684Q686 644 717 588Q718 588 718 587L800 466L727 437Q724 436 722 435L507 321L310 285H220Q202 285 184 277Q143 261 143 219Q143 150 222 150H340H459L714 135L1153 72Q1171 69 1173 88Q1174 89 1174 90Q1174 105 1175 145Q1179 291 1173 403Q1173 419 1157 420ZM835 440Q845 444 847 452Q849 458 844 466Q843 470 840 472L749 607Q733 635 759 656Q778 671 823 641Q971 508 1027 455Q1085 397 1138 386Q1142 281 1138 146Q1137 125 1137 111L719 171Q718 171 717 171L461 187Q460 187 460 187H340H222Q205 187 194 193Q180 201 180 219Q180 248 220 248H312Q314 248 315 248L517 285Q520 286 522 287L741 403Z" fill="#000000" />
<path d="M698 390Q715 383 721 400Q728 417 711 424L497 506Q496 506 496 506Q411 533 390 479Q384 465 386 450L379 452Q359 460 337 461Q284 464 269 421Q262 401 265 384L262 385Q202 401 186 345Q175 308 201 285Q215 272 239 266Q265 259 308 249Q316 246 322 250Q327 253 330 262Q334 280 316 284Q274 295 249 301Q233 305 226 312Q217 320 221 334Q227 356 253 349Q253 349 253 349L320 334Q322 333 325 332L514 288Q523 286 528 289Q534 292 536 301Q540 319 522 323L333 368L329 369Q320 371 312 378Q297 389 304 409Q309 426 335 424Q351 424 366 418Q366 418 366 418L593 338H594Q611 332 617 349Q623 366 606 372L442 431Q441 431 441 432Q439 432 438 432Q428 436 424 446Q420 456 424 466Q424 466 424 466Q433 488 484 472Z" fill="#000000" />
</g></svg>