<svg xmlns="http://www.w3.org/2000/svg" viewBox="0 0 2048 2048">
<g transform="matrix(1 0 0 -1 0 2048)">
<path d="M91.5877685546875 733.1798706054688V36.51513671875H1228.2723388671875V733.1798706054688Z" fill="#fcea2b" />
<path d="M91.375 733.1798706054688V36.51513671875H476.375V733.1798706054688Z" fill="#1e50a0" />
<path d="M843.375 733.1798706054688V36.51513671875H1228.375V733.1798706054688Z" fill="#d22f27" />
<path d="M635 485V511L596 536L624 555Q638 564 653 560Q670 555 679.5 541.0Q689 527 687 511V485L694 453H734Q745 465 761 465Q777 465 788 453V305L748 359H694L739 238H584L626 359H586L532 305V453Q543 465 559 465Q575 465 586 453H626Z" fill="#a57939" />
<path d="M617 487 612 472H593Q578 483 559 483Q535 483 518 466Q513 461 513 453V305Q513 286 532 286Q539 286 545 292L593 340H600L566 244Q560 227 577 221Q580 220 584 220H739Q757 220 757 238Q757 242 756 245L720 340H739L774 294Q779 286 786 286Q792 285 799 290Q807 296 807 305V453Q807 461 802 466Q785 483 761 483Q742 483 727 472H709L706 487V510Q710 563 658 577Q634 584 614 570L586 552Q571 542 581 526Q583 523 586 521L617 501ZM653 479Q654 482 654 485V511Q654 520 646 526L630 536L635 540Q641 544 649 542Q671 536 669 512Q669 511 669 511V485Q669 483 669 481L676 450Q679 435 694 435H734Q742 435 748 441Q753 447 761 447Q766 447 770 445V360L762 370Q757 377 748 377H694Q690 377 687 376Q679 373 676 367Q673 361 677 352L713 257H609L644 353Q645 356 645 359Q645 377 626 377H586Q578 377 573 372L550 349V445Q554 447 559 447Q567 447 572 441Q578 435 586 435H626Q640 435 644 448Z" fill="#a57939" />
<path d="M590.2733154296875 467.7705078125V384.6953125H732.6610107421875V467.7705078125Z" fill="#d22f27" />
<path d="M591 396Q582 374 590.5 353.0Q599 332 614.5 315.0Q630 298 643.0 288.0Q656 278 656 278Q656 278 668.5 284.5Q681 291 697.0 305.5Q713 320 724.0 342.5Q735 365 733 396Z" fill="#1e50a0" />
<path d="M650.435302734375 398.85369873046875 662.28955078125 363.130126953125 674.143798828125 398.85369873046875Z" fill="#fcea2b" />
<path d="M650 417Q647 417 644 416Q627 410 633 393L644 357Q647 348 656 346Q665 343 671 346Q676 349 679 357L691 393Q692 396 692 399Q692 417 674 417Z" fill="#fcea2b" />
<path d="M663 269Q740 295 740 373V468Q740 477 731 477H589Q580 477 580 468V373Q580 295 657 269Q660 268 663 269ZM660 287Q598 310 598 373V458H722V373Q722 310 660 287Z" fill="#000000" />
<path d="M73 37Q73 18 92 18H1228Q1247 18 1247 37V733Q1247 752 1228 752H92Q73 752 73 733ZM110 715H1210V55H110Z" fill="#000000" />
</g></svg>