<svg xmlns="http://www.w3.org/2000/svg" viewBox="0 0 2048 2048">
<g transform="matrix(1 0 0 -1 0 2048)">
<path d="M1052 714Q1052 763 1034.5 784.5Q1017 806 993.5 806.0Q970 806 952.5 789.5Q935 773 935 746V693Q935 724 916.5 739.0Q898 754 874.0 754.0Q850 754 831.5 741.0Q813 728 813 703V280V370Q802 396 780.0 419.0Q758 442 732.5 449.5Q707 457 688 437Q688 339 690.5 268.0Q693 197 693 155Q693 94 715.5 41.0Q738 -12 778.0 -52.0Q818 -92 871.0 -114.5Q924 -137 985 -137Q1046 -137 1098.5 -115.0Q1151 -93 1191.0 -53.0Q1231 -13 1253.5 39.5Q1276 92 1276 153V600Q1276 628 1260.5 642.0Q1245 656 1224.5 657.0Q1204 658 1188.0 647.0Q1172 636 1172 615L1175 357L1173 581L1171 699Q1171 735 1153.0 751.5Q1135 768 1111.5 767.5Q1088 767 1070.0 752.5Q1052 738 1052 714V728L1056 386Z" fill="#debb90" />
<path d="M1057 757Q1045 814 994 815Q967 816 947 796Q925 776 925 746Q908 762 874 763Q846 764 827 749Q804 732 804 703V405Q787 430 762 446Q714 476 681 443L678 441V437Q678 365 682 253Q684 180 683 155Q684 30 772 -58Q860 -147 985 -147Q1110 -147 1197 -59Q1285 28 1285 153V600Q1285 662 1225 666Q1201 668 1183 655Q1182 654 1181 653V699Q1181 737 1159 758Q1140 777 1112 776Q1074 776 1057 757ZM1046 386H1065L1062 718Q1064 758 1112 758Q1133 758 1146 745Q1162 729 1162 699L1163 614V581L1165 356L1184 357L1182 581L1181 615Q1181 631 1194 640Q1206 649 1223 648Q1267 645 1267 600V153Q1267 36 1185 -46Q1102 -128 985 -128Q868 -128 785 -45Q702 38 702 155Q702 180 700 254Q697 362 697 433Q719 452 752 430Q787 408 804 368V280H822V372V703Q822 723 838 734Q852 745 874 745Q925 744 925 693H944V746Q944 768 959 783Q974 797 993 797Q1043 795 1043 714Z" fill="#debb90" />
<path d="M259 714Q259 763 277.0 784.5Q295 806 318.5 806.0Q342 806 359.5 789.5Q377 773 377 746V693Q377 724 395.5 739.0Q414 754 438.0 754.0Q462 754 480.5 741.0Q499 728 499 703V280V370Q510 396 532.0 419.0Q554 442 579.0 449.5Q604 457 624 437Q624 339 621.0 268.0Q618 197 619 155Q619 94 596.5 41.0Q574 -12 533.5 -52.0Q493 -92 440.0 -114.5Q387 -137 327 -137Q266 -137 213.5 -115.0Q161 -93 121.0 -53.0Q81 -13 58.5 39.5Q36 92 36 153V600Q36 628 51.5 642.0Q67 656 87.5 657.0Q108 658 123.5 647.0Q139 636 139 615L137 357L139 581L140 699Q140 735 158.0 751.5Q176 768 199.5 767.5Q223 767 241.0 752.5Q259 738 259 714V728L256 386Z" fill="#debb90" />
<path d="M254 757Q237 776 200 776Q171 777 152 758Q131 737 131 699V653Q130 654 129 655Q111 668 87 666Q27 662 27 600V153Q27 28 114 -59Q202 -147 327 -147Q452 -147 540 -58Q628 30 628 155Q628 180 630 253Q633 365 633 437V441L631 443Q598 476 550 446Q525 430 508 405V703Q508 732 485 749Q465 764 438 763Q404 762 386 746Q386 776 365 796Q345 816 318 815Q267 814 254 757ZM247 386H265L268 714H269Q269 795 319 797Q338 797 352 783Q368 768 368 746V693H377H386Q386 744 438 745Q459 745 474 734Q489 723 489 703V372V280H508V368Q525 408 560 430Q593 452 615 433Q615 362 612 254Q610 180 610 155Q610 38 527 -45Q444 -128 327 -128Q209 -128 127 -46Q45 36 45 153V600Q45 645 88 648Q106 649 118 640Q130 631 130 615V581L128 357L146 356L148 581L149 614V699Q149 729 165 745Q179 758 200 758Q248 758 250 718Z" fill="#debb90" />
<path d="M1062 774Q1045 823 994 824Q963 825 940 803Q922 786 918 763Q900 772 874 772Q843 773 821 756Q795 736 795 703V431Q782 443 767 453Q713 488 675 450Q669 444 669 437Q669 365 673 253Q675 180 674 155Q674 26 765 -65Q856 -156 985 -156Q1114 -156 1204 -66Q1294 24 1294 153V600Q1294 671 1225 675Q1206 677 1190 669V699Q1190 741 1166 764Q1144 786 1112 786Q1081 785 1062 774ZM1074 386 1071 717Q1073 748 1112 749Q1129 749 1140 738Q1153 725 1153 699L1154 614V581L1156 356Q1156 338 1175 338Q1184 338 1189 343Q1193 348 1193 357L1191 581V615Q1191 626 1199 633Q1209 640 1223 639Q1258 637 1258 600V153Q1258 39 1178 -40Q1099 -119 985 -119Q872 -119 791 -39Q711 41 711 155Q711 180 709 254Q706 359 706 428Q722 438 747 422Q779 402 795 366V280Q795 262 813 262Q831 262 831 280V370V703Q831 718 843 727Q855 736 873 736Q916 735 916 693Q916 674 935 674Q953 674 953 693V746Q953 764 966 777Q978 788 993 787Q1034 786 1034 714Q1034 714 1034 713L1037 386Q1037 367 1056 368Q1074 368 1074 386Z" fill="#000000" />
<path d="M916 357Q916 338 935 338Q953 338 953 357V693Q953 711 935 711Q925 711 921 706Q916 702 916 693Z" fill="#000000" />
<path d="M359 357Q359 338 377 338Q386 338 391 343Q395 347 395 357V693Q395 711 377 711Q359 711 359 693Z" fill="#000000" />
<path d="M249 774Q231 785 200 786Q168 786 146 764Q122 741 122 699V669Q106 677 87 675Q18 671 18 600L17 153Q17 24 108 -66Q198 -156 327 -156Q455 -156 546 -65Q637 26 637 155Q637 180 639 253Q643 365 643 437Q643 444 637 450Q599 488 545 453Q529 443 517 431V703Q517 736 491 756Q468 773 437 772Q411 772 394 763Q389 786 371 803Q348 825 318 824Q266 823 249 774ZM238 386Q238 368 256 368Q265 367 270 372Q274 377 275 386L278 713Q278 714 278 714Q278 786 319 787Q334 788 346 777Q359 764 359 746V693Q359 674 377 674Q395 674 395 693Q395 735 438 736Q456 736 469 727Q480 718 480 703V370V280Q480 262 499 262Q508 262 512 267Q517 271 517 280V366Q533 402 565 422Q590 438 606 428Q606 359 603 254Q600 180 601 155Q601 41 520 -39Q440 -119 327 -119Q213 -119 134 -40Q54 39 54 153V600Q54 637 89 639Q103 640 112 633Q121 626 121 615V581L119 357Q119 338 137 338Q155 338 155 356L158 581V614L159 699Q159 725 172 738Q183 749 200 749Q239 748 241 717L238 386Z" fill="#000000" />
</g></svg>