<svg xmlns="http://www.w3.org/2000/svg" viewBox="0 0 2048 2048">
<g transform="matrix(1 0 0 -1 0 2048)">
<path d="M91.5877685546875 733.1798706054688V36.51513671875H1228.2723388671875V733.1798706054688Z" fill="#5c9e31" />
<path d="M92 733V37H1228V733ZM254 571H1066V199H254Z" fill="#d22f27" />
<path d="M634 385Q636 344 664.0 313.0Q692 282 733 277Q721 275 709 275Q676 275 648.0 290.0Q620 305 603.5 330.0Q587 355 587 385Q587 415 603.5 440.0Q620 465 648.0 480.0Q676 495 709 495Q721 495 733 493Q692 488 664.0 457.0Q636 426 634 385Z" fill="#ffffff" />
<path d="M643 385Q647 472 734 484Q744 485 742 494Q741 501 735 502Q722 504 709 504Q655 504 616 470Q577 435 577 385Q577 335 616 300Q655 266 709 266Q722 266 735 268Q744 270 742 279Q741 285 734 286Q647 298 643 385ZM625 385Q625 385 625 385Q625 385 625 385Q628 320 670 290Q647 298 629 314Q596 344 596 385Q596 426 629 456Q647 472 670 480Q628 450 625 385Z" fill="#ffffff" />
<path d="M73 37Q73 18 92 18H1228Q1247 18 1247 37V733Q1247 752 1228 752H92Q73 752 73 733ZM110 715H1210V55H110Z" fill="#000000" />
</g></svg>