<svg xmlns="http://www.w3.org/2000/svg" viewBox="0 0 2048 2048">
<g transform="matrix(1 0 0 -1 0 2048)">
<path d="M91.5877685546875 733.1798706054688V36.51513671875H1228.2723388671875V733.1798706054688Z" fill="#ffffff" />
<path d="M1228 238V275Q1172 262 1115 257Q1100 257 1079.0 262.0Q1058 267 1036.5 271.0Q1015 275 1001 275Q987 275 965.5 270.0Q944 265 923.0 260.5Q902 256 887 257Q873 257 852.0 262.0Q831 267 809.5 271.0Q788 275 774 275Q759 275 738.0 270.0Q717 265 695.5 260.5Q674 256 660 257Q646 257 624.5 262.0Q603 267 582.0 271.0Q561 275 546 275Q532 275 511.0 270.0Q490 265 468.5 260.5Q447 256 433 257Q418 257 397.0 262.0Q376 267 354.5 271.0Q333 275 319 275Q305 275 283.5 270.5Q262 266 241.0 261.5Q220 257 205 257Q148 262 92 275V238Q148 226 205 220Q220 220 241.0 224.5Q262 229 283.5 233.5Q305 238 319 238Q333 239 354.5 234.5Q376 230 397.0 225.0Q418 220 433 220Q447 220 468.5 224.0Q490 228 511.0 233.0Q532 238 546 238Q561 239 582.0 234.5Q603 230 624.5 225.0Q646 220 660 220Q674 220 695.5 224.0Q717 228 738.0 233.0Q759 238 774 238Q788 239 809.5 234.5Q831 230 852.0 225.0Q873 220 887 220Q902 220 923.0 224.0Q944 228 965.5 233.0Q987 238 1001 238Q1015 239 1036.5 234.5Q1058 230 1079.0 225.0Q1100 220 1115 220Q1172 225 1228 238Z" fill="#ffffff" />
<path d="M1228 201V238Q1172 225 1115 220Q1100 220 1079.0 225.0Q1058 230 1036.5 234.0Q1015 238 1001 238Q987 238 965.5 233.0Q944 228 923.0 223.5Q902 219 887 220Q873 220 852.0 225.0Q831 230 809.5 234.0Q788 238 774 238Q759 238 738.0 233.0Q717 228 695.5 223.5Q674 219 660 220Q646 220 624.5 225.0Q603 230 582.0 234.0Q561 238 546 238Q532 238 511.0 233.0Q490 228 468.5 223.5Q447 219 433 220Q418 220 397.0 225.0Q376 230 354.5 234.0Q333 238 319 238Q305 238 283.5 233.5Q262 229 241.0 224.5Q220 220 205 220Q148 225 92 238V201Q148 189 205 183Q220 183 241.0 187.5Q262 192 283.5 196.5Q305 201 319 201Q333 202 354.5 197.5Q376 193 397.0 188.0Q418 183 433 183Q447 183 468.5 187.0Q490 191 511.0 196.0Q532 201 546 201Q561 202 582.0 197.5Q603 193 624.5 188.0Q646 183 660 183Q674 183 695.5 187.0Q717 191 738.0 196.0Q759 201 774 201Q788 202 809.5 197.5Q831 193 852.0 188.0Q873 183 887 183Q902 183 923.0 187.0Q944 191 965.5 196.0Q987 201 1001 201Q1015 202 1036.5 197.5Q1058 193 1079.0 188.0Q1100 183 1115 183Q1172 188 1228 201Z" fill="#1e50a0" />
<path d="M1228 165V202Q1172 189 1115 184Q1100 184 1079.0 189.0Q1058 194 1036.5 198.0Q1015 202 1001 202Q987 202 965.5 197.0Q944 192 923.0 187.5Q902 183 887 184Q873 184 852.0 189.0Q831 194 809.5 198.0Q788 202 774 202Q759 202 738.0 197.0Q717 192 695.5 187.5Q674 183 660 184Q646 184 624.5 189.0Q603 194 582.0 198.0Q561 202 546 202Q532 202 511.0 197.0Q490 192 468.5 187.5Q447 183 433 184Q418 184 397.0 189.0Q376 194 354.5 198.0Q333 202 319 202Q305 202 283.5 197.5Q262 193 241.0 188.5Q220 184 205 184Q148 189 92 202V165Q148 153 205 147Q220 147 241.0 151.5Q262 156 283.5 160.5Q305 165 319 165Q333 166 354.5 161.5Q376 157 397.0 152.0Q418 147 433 147Q447 147 468.5 151.0Q490 155 511.0 160.0Q532 165 546 165Q561 166 582.0 161.5Q603 157 624.5 152.0Q646 147 660 147Q674 147 695.5 151.0Q717 155 738.0 160.0Q759 165 774 165Q788 166 809.5 161.5Q831 157 852.0 152.0Q873 147 887 147Q902 147 923.0 151.0Q944 155 965.5 160.0Q987 165 1001 165Q1015 166 1036.5 161.5Q1058 157 1079.0 152.0Q1100 147 1115 147Q1172 152 1228 165Z" fill="#ffffff" />
<path d="M1228 128V165Q1172 152 1115 147Q1100 147 1079.0 152.0Q1058 157 1036.5 161.0Q1015 165 1001 165Q987 165 965.5 160.0Q944 155 923.0 150.5Q902 146 887 147Q873 147 852.0 152.0Q831 157 809.5 161.0Q788 165 774 165Q759 165 738.0 160.0Q717 155 695.5 150.5Q674 146 660 147Q646 147 624.5 152.0Q603 157 582.0 161.0Q561 165 546 165Q532 165 511.0 160.0Q490 155 468.5 150.5Q447 146 433 147Q418 147 397.0 152.0Q376 157 354.5 161.0Q333 165 319 165Q305 165 283.5 160.5Q262 156 241.0 151.5Q220 147 205 147Q148 152 92 165V128Q148 116 205 110Q220 110 241.0 114.5Q262 119 283.5 123.5Q305 128 319 128Q333 129 354.5 124.5Q376 120 397.0 115.0Q418 110 433 110Q447 110 468.5 114.0Q490 118 511.0 123.0Q532 128 546 128Q561 129 582.0 124.5Q603 120 624.5 115.0Q646 110 660 110Q674 110 695.5 114.0Q717 118 738.0 123.0Q759 128 774 128Q788 129 809.5 124.5Q831 120 852.0 115.0Q873 110 887 110Q902 110 923.0 114.0Q944 118 965.5 123.0Q987 128 1001 128Q1015 129 1036.5 124.5Q1058 120 1079.0 115.0Q1100 110 1115 110Q1172 115 1228 128Z" fill="#1e50a0" />
<path d="M1228 37V110Q1172 97 1115 92Q1100 92 1079.0 97.0Q1058 102 1036.5 106.0Q1015 110 1001 110Q987 110 965.5 105.0Q944 100 923.0 95.5Q902 91 887 92Q873 92 852.0 97.0Q831 102 809.5 106.0Q788 110 774 110Q759 110 738.0 105.0Q717 100 695.5 95.5Q674 91 660 92Q646 92 624.5 97.0Q603 102 582.0 106.0Q561 110 546 110Q532 110 511.0 105.0Q490 100 468.5 95.5Q447 91 433 92Q418 92 397.0 97.0Q376 102 354.5 106.0Q333 110 319 110Q305 110 283.5 105.5Q262 101 241.0 96.5Q220 92 205 92Q148 97 92 110V37Q148 49 205 55Q220 55 241.0 50.5Q262 46 283.5 41.0Q305 36 319 37Q333 37 354.5 42.0Q376 47 397.0 51.0Q418 55 433 55Q447 55 468.5 50.0Q490 45 511.0 40.5Q532 36 546 37Q561 37 582.0 42.0Q603 47 624.5 51.0Q646 55 660 55Q674 55 695.5 50.0Q717 45 738.0 40.5Q759 36 774 37Q788 37 809.5 42.0Q831 47 852.0 51.0Q873 55 887 55Q902 55 923.0 50.0Q944 45 965.5 40.5Q987 36 1001 37Q1015 37 1036.5 42.0Q1058 47 1079.0 51.0Q1100 55 1115 55Q1125 55 1144.0 52.0Q1163 49 1182.5 45.5Q1202 42 1215.0 39.5Q1228 37 1228 37Z" fill="#1e50a0" />
<path d="M1228 91V128Q1172 115 1115 110Q1100 110 1079.0 115.0Q1058 120 1036.5 124.0Q1015 128 1001 128Q987 128 965.5 123.0Q944 118 923.0 113.5Q902 109 887 110Q873 110 852.0 115.0Q831 120 809.5 124.0Q788 128 774 128Q759 128 738.0 123.0Q717 118 695.5 113.5Q674 109 660 110Q646 110 624.5 115.0Q603 120 582.0 124.0Q561 128 546 128Q532 128 511.0 123.0Q490 118 468.5 113.5Q447 109 433 110Q418 110 397.0 115.0Q376 120 354.5 124.0Q333 128 319 128Q305 128 283.5 123.5Q262 119 241.0 114.5Q220 110 205 110Q148 115 92 128V91Q148 79 205 73Q220 73 241.0 77.5Q262 82 283.5 86.5Q305 91 319 91Q333 92 354.5 87.5Q376 83 397.0 78.0Q418 73 433 73Q447 73 468.5 77.0Q490 81 511.0 86.0Q532 91 546 91Q561 92 582.0 87.5Q603 83 624.5 78.0Q646 73 660 73Q674 73 695.5 77.0Q717 81 738.0 86.0Q759 91 774 91Q788 92 809.5 87.5Q831 83 852.0 78.0Q873 73 887 73Q902 73 923.0 77.0Q944 81 965.5 86.0Q987 91 1001 91Q1015 92 1036.5 87.5Q1058 83 1079.0 78.0Q1100 73 1115 73Q1172 78 1228 91Z" fill="#ffffff" />
<path d="M1228 348V385Q1172 372 1115 367Q1100 367 1079.0 372.0Q1058 377 1036.5 381.0Q1015 385 1001 385Q987 385 965.5 380.0Q944 375 923.0 370.5Q902 366 887 367Q873 367 852.0 372.0Q831 377 809.5 381.0Q788 385 774 385Q759 385 738.0 380.0Q717 375 695.5 370.5Q674 366 660 367Q646 367 624.5 372.0Q603 377 582.0 381.0Q561 385 546 385Q532 385 511.0 380.0Q490 375 468.5 370.5Q447 366 433 367Q418 367 397.0 372.0Q376 377 354.5 381.0Q333 385 319 385Q305 385 283.5 380.5Q262 376 241.0 371.5Q220 367 205 367Q148 372 92 385V348Q148 336 205 330Q220 330 241.0 334.5Q262 339 283.5 343.5Q305 348 319 348Q333 349 354.5 344.5Q376 340 397.0 335.0Q418 330 433 330Q447 330 468.5 334.0Q490 338 511.0 343.0Q532 348 546 348Q561 349 582.0 344.5Q603 340 624.5 335.0Q646 330 660 330Q674 330 695.5 334.0Q717 338 738.0 343.0Q759 348 774 348Q788 349 809.5 344.5Q831 340 852.0 335.0Q873 330 887 330Q902 330 923.0 334.0Q944 338 965.5 343.0Q987 348 1001 348Q1015 349 1036.5 344.5Q1058 340 1079.0 335.0Q1100 330 1115 330Q1172 335 1228 348Z" fill="#1e50a0" />
<path d="M1228 311V348Q1172 335 1115 330Q1100 330 1079.0 335.0Q1058 340 1036.5 344.0Q1015 348 1001 348Q987 348 965.5 343.0Q944 338 923.0 333.5Q902 329 887 330Q873 330 852.0 335.0Q831 340 809.5 344.0Q788 348 774 348Q759 348 738.0 343.0Q717 338 695.5 333.5Q674 329 660 330Q646 330 624.5 335.0Q603 340 582.0 344.0Q561 348 546 348Q532 348 511.0 343.0Q490 338 468.5 333.5Q447 329 433 330Q418 330 397.0 335.0Q376 340 354.5 344.0Q333 348 319 348Q305 348 283.5 343.5Q262 339 241.0 334.5Q220 330 205 330Q148 335 92 348V311Q148 299 205 293Q220 293 241.0 297.5Q262 302 283.5 306.5Q305 311 319 311Q333 312 354.5 307.5Q376 303 397.0 298.0Q418 293 433 293Q447 293 468.5 297.0Q490 301 511.0 306.0Q532 311 546 311Q561 312 582.0 307.5Q603 303 624.5 298.0Q646 293 660 293Q674 293 695.5 297.0Q717 301 738.0 306.0Q759 311 774 311Q788 312 809.5 307.5Q831 303 852.0 298.0Q873 293 887 293Q902 293 923.0 297.0Q944 301 965.5 306.0Q987 311 1001 311Q1015 312 1036.5 307.5Q1058 303 1079.0 298.0Q1100 293 1115 293Q1172 298 1228 311Z" fill="#ffffff" />
<path d="M1228 275V312Q1172 299 1115 294Q1100 294 1079.0 299.0Q1058 304 1036.5 308.0Q1015 312 1001 312Q987 312 965.5 307.0Q944 302 923.0 297.5Q902 293 887 294Q873 294 852.0 299.0Q831 304 809.5 308.0Q788 312 774 312Q759 312 738.0 307.0Q717 302 695.5 297.5Q674 293 660 294Q646 294 624.5 299.0Q603 304 582.0 308.0Q561 312 546 312Q532 312 511.0 307.0Q490 302 468.5 297.5Q447 293 433 294Q418 294 397.0 299.0Q376 304 354.5 308.0Q333 312 319 312Q305 312 283.5 307.5Q262 303 241.0 298.5Q220 294 205 294Q148 299 92 312V275Q148 263 205 257Q220 257 241.0 261.5Q262 266 283.5 270.5Q305 275 319 275Q333 276 354.5 271.5Q376 267 397.0 262.0Q418 257 433 257Q447 257 468.5 261.0Q490 265 511.0 270.0Q532 275 546 275Q561 276 582.0 271.5Q603 267 624.5 262.0Q646 257 660 257Q674 257 695.5 261.0Q717 265 738.0 270.0Q759 275 774 275Q788 276 809.5 271.5Q831 267 852.0 262.0Q873 257 887 257Q902 257 923.0 261.0Q944 265 965.5 270.0Q987 275 1001 275Q1015 276 1036.5 271.5Q1058 267 1079.0 262.0Q1100 257 1115 257Q1172 262 1228 275Z" fill="#1e50a0" />
<path d="M1228 238V275Q1172 262 1115 257Q1100 257 1079.0 262.0Q1058 267 1036.5 271.0Q1015 275 1001 275Q987 275 965.5 270.0Q944 265 923.0 260.5Q902 256 887 257Q873 257 852.0 262.0Q831 267 809.5 271.0Q788 275 774 275Q759 275 738.0 270.0Q717 265 695.5 260.5Q674 256 660 257Q646 257 624.5 262.0Q603 267 582.0 271.0Q561 275 546 275Q532 275 511.0 270.0Q490 265 468.5 260.5Q447 256 433 257Q418 257 397.0 262.0Q376 267 354.5 271.0Q333 275 319 275Q305 275 283.5 270.5Q262 266 241.0 261.5Q220 257 205 257Q148 262 92 275V238Q148 226 205 220Q220 220 241.0 224.5Q262 229 283.5 233.5Q305 238 319 238Q333 239 354.5 234.5Q376 230 397.0 225.0Q418 220 433 220Q447 220 468.5 224.0Q490 228 511.0 233.0Q532 238 546 238Q561 239 582.0 234.5Q603 230 624.5 225.0Q646 220 660 220Q674 220 695.5 224.0Q717 228 738.0 233.0Q759 238 774 238Q788 239 809.5 234.5Q831 230 852.0 225.0Q873 220 887 220Q902 220 923.0 224.0Q944 228 965.5 233.0Q987 238 1001 238Q1015 239 1036.5 234.5Q1058 230 1079.0 225.0Q1100 220 1115 220Q1172 225 1228 238Z" fill="#ffffff" />
<path d="M1228 495V532Q1172 519 1115 514Q1100 514 1079.0 519.0Q1058 524 1036.5 528.0Q1015 532 1001 532Q987 532 965.5 527.0Q944 522 923.0 517.5Q902 513 887 514Q873 514 852.0 519.0Q831 524 809.5 528.0Q788 532 774 532Q759 532 738.0 527.0Q717 522 695.5 517.5Q674 513 660 514Q646 514 624.5 519.0Q603 524 582.0 528.0Q561 532 546 532Q532 532 511.0 527.0Q490 522 468.5 517.5Q447 513 433 514Q418 514 397.0 519.0Q376 524 354.5 528.0Q333 532 319 532Q305 532 283.5 527.5Q262 523 241.0 518.5Q220 514 205 514Q148 519 92 532V495Q148 483 205 477Q220 477 241.0 481.5Q262 486 283.5 490.5Q305 495 319 495Q333 496 354.5 491.5Q376 487 397.0 482.0Q418 477 433 477Q447 477 468.5 481.0Q490 485 511.0 490.0Q532 495 546 495Q561 496 582.0 491.5Q603 487 624.5 482.0Q646 477 660 477Q674 477 695.5 481.0Q717 485 738.0 490.0Q759 495 774 495Q788 496 809.5 491.5Q831 487 852.0 482.0Q873 477 887 477Q902 477 923.0 481.0Q944 485 965.5 490.0Q987 495 1001 495Q1015 496 1036.5 491.5Q1058 487 1079.0 482.0Q1100 477 1115 477Q1172 482 1228 495Z" fill="#1e50a0" />
<path d="M1228 458V495Q1172 482 1115 477Q1100 477 1079.0 482.0Q1058 487 1036.5 491.0Q1015 495 1001 495Q987 495 965.5 490.0Q944 485 923.0 480.5Q902 476 887 477Q873 477 852.0 482.0Q831 487 809.5 491.0Q788 495 774 495Q759 495 738.0 490.0Q717 485 695.5 480.5Q674 476 660 477Q646 477 624.5 482.0Q603 487 582.0 491.0Q561 495 546 495Q532 495 511.0 490.0Q490 485 468.5 480.5Q447 476 433 477Q418 477 397.0 482.0Q376 487 354.5 491.0Q333 495 319 495Q305 495 283.5 490.5Q262 486 241.0 481.5Q220 477 205 477Q148 482 92 495V458Q148 446 205 440Q220 440 241.0 444.5Q262 449 283.5 453.5Q305 458 319 458Q333 459 354.5 454.5Q376 450 397.0 445.0Q418 440 433 440Q447 440 468.5 444.0Q490 448 511.0 453.0Q532 458 546 458Q561 459 582.0 454.5Q603 450 624.5 445.0Q646 440 660 440Q674 440 695.5 444.0Q717 448 738.0 453.0Q759 458 774 458Q788 459 809.5 454.5Q831 450 852.0 445.0Q873 440 887 440Q902 440 923.0 444.0Q944 448 965.5 453.0Q987 458 1001 458Q1015 459 1036.5 454.5Q1058 450 1079.0 445.0Q1100 440 1115 440Q1172 445 1228 458Z" fill="#ffffff" />
<path d="M1228 421V458Q1172 445 1115 440Q1100 440 1079.0 445.0Q1058 450 1036.5 454.0Q1015 458 1001 458Q987 458 965.5 453.0Q944 448 923.0 443.5Q902 439 887 440Q873 440 852.0 445.0Q831 450 809.5 454.0Q788 458 774 458Q759 458 738.0 453.0Q717 448 695.5 443.5Q674 439 660 440Q646 440 624.5 445.0Q603 450 582.0 454.0Q561 458 546 458Q532 458 511.0 453.0Q490 448 468.5 443.5Q447 439 433 440Q418 440 397.0 445.0Q376 450 354.5 454.0Q333 458 319 458Q305 458 283.5 453.5Q262 449 241.0 444.5Q220 440 205 440Q148 445 92 458V421Q148 409 205 403Q220 403 241.0 407.5Q262 412 283.5 416.5Q305 421 319 421Q333 422 354.5 417.5Q376 413 397.0 408.0Q418 403 433 403Q447 403 468.5 407.0Q490 411 511.0 416.0Q532 421 546 421Q561 422 582.0 417.5Q603 413 624.5 408.0Q646 403 660 403Q674 403 695.5 407.0Q717 411 738.0 416.0Q759 421 774 421Q788 422 809.5 417.5Q831 413 852.0 408.0Q873 403 887 403Q902 403 923.0 407.0Q944 411 965.5 416.0Q987 421 1001 421Q1015 422 1036.5 417.5Q1058 413 1079.0 408.0Q1100 403 1115 403Q1172 408 1228 421Z" fill="#1e50a0" />
<path d="M1228 385V422Q1172 409 1115 404Q1100 404 1079.0 409.0Q1058 414 1036.5 418.0Q1015 422 1001 422Q987 422 965.5 417.0Q944 412 923.0 407.5Q902 403 887 404Q873 404 852.0 409.0Q831 414 809.5 418.0Q788 422 774 422Q759 422 738.0 417.0Q717 412 695.5 407.5Q674 403 660 404Q646 404 624.5 409.0Q603 414 582.0 418.0Q561 422 546 422Q532 422 511.0 417.0Q490 412 468.5 407.5Q447 403 433 404Q418 404 397.0 409.0Q376 414 354.5 418.0Q333 422 319 422Q305 422 283.5 417.5Q262 413 241.0 408.5Q220 404 205 404Q148 409 92 422V385Q148 373 205 367Q220 367 241.0 371.5Q262 376 283.5 380.5Q305 385 319 385Q333 386 354.5 381.5Q376 377 397.0 372.0Q418 367 433 367Q447 367 468.5 371.0Q490 375 511.0 380.0Q532 385 546 385Q561 386 582.0 381.5Q603 377 624.5 372.0Q646 367 660 367Q674 367 695.5 371.0Q717 375 738.0 380.0Q759 385 774 385Q788 386 809.5 381.5Q831 377 852.0 372.0Q873 367 887 367Q902 367 923.0 371.0Q944 375 965.5 380.0Q987 385 1001 385Q1015 386 1036.5 381.5Q1058 377 1079.0 372.0Q1100 367 1115 367Q1172 372 1228 385Z" fill="#ffffff" />
<path d="M1228 641V678Q1172 665 1115 660Q1100 660 1079.0 665.0Q1058 670 1036.5 674.0Q1015 678 1001 678Q987 678 965.5 673.0Q944 668 923.0 663.5Q902 659 887 660Q873 660 852.0 665.0Q831 670 809.5 674.0Q788 678 774 678Q759 678 738.0 673.0Q717 668 695.5 663.5Q674 659 660 660Q646 660 624.5 665.0Q603 670 582.0 674.0Q561 678 546 678Q532 678 511.0 673.0Q490 668 468.5 663.5Q447 659 433 660Q418 660 397.0 665.0Q376 670 354.5 674.0Q333 678 319 678Q305 678 283.5 673.5Q262 669 241.0 664.5Q220 660 205 660Q148 665 92 678V641Q148 629 205 623Q220 623 241.0 627.5Q262 632 283.5 636.5Q305 641 319 641Q333 642 354.5 637.5Q376 633 397.0 628.0Q418 623 433 623Q447 623 468.5 627.0Q490 631 511.0 636.0Q532 641 546 641Q561 642 582.0 637.5Q603 633 624.5 628.0Q646 623 660 623Q674 623 695.5 627.0Q717 631 738.0 636.0Q759 641 774 641Q788 642 809.5 637.5Q831 633 852.0 628.0Q873 623 887 623Q902 623 923.0 627.0Q944 631 965.5 636.0Q987 641 1001 641Q1015 642 1036.5 637.5Q1058 633 1079.0 628.0Q1100 623 1115 623Q1172 628 1228 641Z" fill="#1e50a0" />
<path d="M1228 605V642Q1172 629 1115 624Q1100 624 1079.0 629.0Q1058 634 1036.5 638.0Q1015 642 1001 642Q987 642 965.5 637.0Q944 632 923.0 627.5Q902 623 887 624Q873 624 852.0 629.0Q831 634 809.5 638.0Q788 642 774 642Q759 642 738.0 637.0Q717 632 695.5 627.5Q674 623 660 624Q646 624 624.5 629.0Q603 634 582.0 638.0Q561 642 546 642Q532 642 511.0 637.0Q490 632 468.5 627.5Q447 623 433 624Q418 624 397.0 629.0Q376 634 354.5 638.0Q333 642 319 642Q305 642 283.5 637.5Q262 633 241.0 628.5Q220 624 205 624Q148 629 92 642V605Q148 593 205 587Q220 587 241.0 591.5Q262 596 283.5 600.5Q305 605 319 605Q333 606 354.5 601.5Q376 597 397.0 592.0Q418 587 433 587Q447 587 468.5 591.0Q490 595 511.0 600.0Q532 605 546 605Q561 606 582.0 601.5Q603 597 624.5 592.0Q646 587 660 587Q674 587 695.5 591.0Q717 595 738.0 600.0Q759 605 774 605Q788 606 809.5 601.5Q831 597 852.0 592.0Q873 587 887 587Q902 587 923.0 591.0Q944 595 965.5 600.0Q987 605 1001 605Q1015 606 1036.5 601.5Q1058 597 1079.0 592.0Q1100 587 1115 587Q1172 592 1228 605Z" fill="#ffffff" />
<path d="M1228 715V752Q1172 739 1115 734Q1100 734 1079.0 739.0Q1058 744 1036.5 748.0Q1015 752 1001 752Q987 752 965.5 747.0Q944 742 923.0 737.5Q902 733 887 734Q873 734 852.0 739.0Q831 744 809.5 748.0Q788 752 774 752Q759 752 738.0 747.0Q717 742 695.5 737.5Q674 733 660 734Q646 734 624.5 739.0Q603 744 582.0 748.0Q561 752 546 752Q532 752 511.0 747.0Q490 742 468.5 737.5Q447 733 433 734Q418 734 397.0 739.0Q376 744 354.5 748.0Q333 752 319 752Q305 752 283.5 747.5Q262 743 241.0 738.5Q220 734 205 734Q148 739 92 752V715Q148 703 205 697Q220 697 241.0 701.5Q262 706 283.5 710.5Q305 715 319 715Q333 716 354.5 711.5Q376 707 397.0 702.0Q418 697 433 697Q447 697 468.5 701.0Q490 705 511.0 710.0Q532 715 546 715Q561 716 582.0 711.5Q603 707 624.5 702.0Q646 697 660 697Q674 697 695.5 701.0Q717 705 738.0 710.0Q759 715 774 715Q788 716 809.5 711.5Q831 707 852.0 702.0Q873 697 887 697Q902 697 923.0 701.0Q944 705 965.5 710.0Q987 715 1001 715Q1015 716 1036.5 711.5Q1058 707 1079.0 702.0Q1100 697 1115 697Q1172 702 1228 715Z" fill="#1e50a0" />
<path d="M1228 678V715Q1172 702 1115 697Q1100 697 1079.0 702.0Q1058 707 1036.5 711.0Q1015 715 1001 715Q987 715 965.5 710.0Q944 705 923.0 700.5Q902 696 887 697Q873 697 852.0 702.0Q831 707 809.5 711.0Q788 715 774 715Q759 715 738.0 710.0Q717 705 695.5 700.5Q674 696 660 697Q646 697 624.5 702.0Q603 707 582.0 711.0Q561 715 546 715Q532 715 511.0 710.0Q490 705 468.5 700.5Q447 696 433 697Q418 697 397.0 702.0Q376 707 354.5 711.0Q333 715 319 715Q305 715 283.5 710.5Q262 706 241.0 701.5Q220 697 205 697Q148 702 92 715V678Q148 666 205 660Q220 660 241.0 664.5Q262 669 283.5 673.5Q305 678 319 678Q333 679 354.5 674.5Q376 670 397.0 665.0Q418 660 433 660Q447 660 468.5 664.0Q490 668 511.0 673.0Q532 678 546 678Q561 679 582.0 674.5Q603 670 624.5 665.0Q646 660 660 660Q674 660 695.5 664.0Q717 668 738.0 673.0Q759 678 774 678Q788 679 809.5 674.5Q831 670 852.0 665.0Q873 660 887 660Q902 660 923.0 664.0Q944 668 965.5 673.0Q987 678 1001 678Q1015 679 1036.5 674.5Q1058 670 1079.0 665.0Q1100 660 1115 660Q1172 665 1228 678Z" fill="#ffffff" />
<path d="M1228 568V605Q1172 592 1115 587Q1100 587 1079.0 592.0Q1058 597 1036.5 601.0Q1015 605 1001 605Q987 605 965.5 600.0Q944 595 923.0 590.5Q902 586 887 587Q873 587 852.0 592.0Q831 597 809.5 601.0Q788 605 774 605Q759 605 738.0 600.0Q717 595 695.5 590.5Q674 586 660 587Q646 587 624.5 592.0Q603 597 582.0 601.0Q561 605 546 605Q532 605 511.0 600.0Q490 595 468.5 590.5Q447 586 433 587Q418 587 397.0 592.0Q376 597 354.5 601.0Q333 605 319 605Q305 605 283.5 600.5Q262 596 241.0 591.5Q220 587 205 587Q148 592 92 605V568Q148 556 205 550Q220 550 241.0 554.5Q262 559 283.5 563.5Q305 568 319 568Q333 569 354.5 564.5Q376 560 397.0 555.0Q418 550 433 550Q447 550 468.5 554.0Q490 558 511.0 563.0Q532 568 546 568Q561 569 582.0 564.5Q603 560 624.5 555.0Q646 550 660 550Q674 550 695.5 554.0Q717 558 738.0 563.0Q759 568 774 568Q788 569 809.5 564.5Q831 560 852.0 555.0Q873 550 887 550Q902 550 923.0 554.0Q944 558 965.5 563.0Q987 568 1001 568Q1015 569 1036.5 564.5Q1058 560 1079.0 555.0Q1100 550 1115 550Q1172 555 1228 568Z" fill="#1e50a0" />
<path d="M1228 531V568Q1172 555 1115 550Q1100 550 1079.0 555.0Q1058 560 1036.5 564.0Q1015 568 1001 568Q987 568 965.5 563.0Q944 558 923.0 553.5Q902 549 887 550Q873 550 852.0 555.0Q831 560 809.5 564.0Q788 568 774 568Q759 568 738.0 563.0Q717 558 695.5 553.5Q674 549 660 550Q646 550 624.5 555.0Q603 560 582.0 564.0Q561 568 546 568Q532 568 511.0 563.0Q490 558 468.5 553.5Q447 549 433 550Q418 550 397.0 555.0Q376 560 354.5 564.0Q333 568 319 568Q305 568 283.5 563.5Q262 559 241.0 554.5Q220 550 205 550Q148 555 92 568V531Q148 519 205 513Q220 513 241.0 517.5Q262 522 283.5 526.5Q305 531 319 531Q333 532 354.5 527.5Q376 523 397.0 518.0Q418 513 433 513Q447 513 468.5 517.0Q490 521 511.0 526.0Q532 531 546 531Q561 532 582.0 527.5Q603 523 624.5 518.0Q646 513 660 513Q674 513 695.5 517.0Q717 521 738.0 526.0Q759 531 774 531Q788 532 809.5 527.5Q831 523 852.0 518.0Q873 513 887 513Q902 513 923.0 517.0Q944 521 965.5 526.0Q987 531 1001 531Q1015 532 1036.5 527.5Q1058 523 1079.0 518.0Q1100 513 1115 513Q1172 518 1228 531Z" fill="#ffffff" />
<path d="M91.7872314453125 733.114990234375V384.755859375H660.1026611328125V733.114990234375Z" fill="#1e50a0" />
<path d="M181 715 660 428V385H589L110 672V715Z" fill="#ffffff" />
<path d="M659.7684936523438 672.4154663085938 181.394287109375 385.056396484375H109.72149658203125V427.65032958984375L588.095703125 715.0093994140625H659.7684936523438Z" fill="#ffffff" />
<path d="M110.25 604.9757690429688V494.97607421875H660.25V604.9757690429688Z" fill="#ffffff" />
<path d="M330.25 714.9273071289062V384.92822265625H440.25V714.9273071289062Z" fill="#ffffff" />
<path d="M367.0877685546875 714.9273071289062V384.92822265625H403.7723388671875V714.9273071289062Z" fill="#d22f27" />
<path d="M110.25 568.3252563476562V531.65869140625H660.25V568.3252563476562Z" fill="#d22f27" />
<path d="M660 428V385L477 495H548Z" fill="#d22f27" />
<path d="M660 715 477 605H440V626L589 715Z" fill="#d22f27" />
<path d="M110.0 672.0V715.0L293.0 605.0H222.0Z" fill="#d22f27" />
<path d="M110.0 385.0 293.0 495.0H330.0V474.0L181.0 385.0Z" fill="#d22f27" />
<path d="M73 37Q73 18 92 18H1228Q1247 18 1247 37V733Q1247 752 1228 752H92Q73 752 73 733ZM110 715H1210V55H110Z" fill="#000000" />
</g></svg>