<svg xmlns="http://www.w3.org/2000/svg" viewBox="0 0 2048 2048">
<g transform="matrix(1 0 0 -1 0 2048)">
<path d="M300 -33Q300 -33 298.0 -11.5Q296 10 298.0 44.0Q300 78 310.5 115.0Q321 152 346 182Q367 207 400.5 223.5Q434 240 483 240Q527 211 566.5 192.5Q606 174 648 174H646Q688 174 727.5 192.5Q767 211 811 240Q872 236 912.5 218.0Q953 200 976.0 173.5Q999 147 1008.0 116.5Q1017 86 1017 58Q1017 20 1011.0 -6.5Q1005 -33 1003 -33Z" fill="#8967aa" />
<path d="M675 6Q728 6 785.5 23.0Q843 40 881 74Q944 130 953.5 167.5Q963 205 932 239Q933 247 937.0 264.0Q941 281 944.5 298.5Q948 316 948 324L946 568Q946 622 923.0 670.0Q900 718 860.5 754.0Q821 790 771.0 810.5Q721 831 666 831Q612 831 561.5 810.5Q511 790 471.0 754.0Q431 718 407.5 670.0Q384 622 384 568V445L403 288Q403 233 423.5 183.5Q444 134 480.0 95.0Q516 56 564.0 33.5Q612 11 666 11Z" fill="#b399c8" />
<path d="M580 77V-34H869V77Z" fill="#b399c8" />
<path d="M867 493Q867 422 839.0 370.0Q811 318 763.5 290.5Q716 263 659 263Q602 263 554.5 290.5Q507 318 479.0 370.0Q451 422 451 493Q475 548 500.5 582.0Q526 616 552.0 638.5Q578 661 604.5 681.0Q631 701 659 727Q707 695 746.0 664.5Q785 634 815.5 594.0Q846 554 867 493Z" fill="#debb90" />
<path d="M876 496Q847 579 791 637Q756 672 668 733Q666 734 664 735L658 739L653 734Q633 715 594 685Q491 605 443 497L442 495V493Q442 385 505 318Q566 254 659 254Q752 254 813 318Q876 385 876 493V495ZM858 492Q857 392 799 331Q744 272 659 272Q574 272 519 331Q461 392 460 491Q507 594 605 671Q640 697 660 716Q744 657 778 624Q830 570 858 492Z" fill="#debb90" />
<path d="M768.6845703125 548.6748657226562Q768.6845703125 564.0086669921875 758.017578125 574.6756591796875Q747.3505859375 585.3426513671875 732.0167846679688 585.3426513671875Q716.6829833984375 585.3426513671875 706.0159912109375 574.6756591796875Q695.3489990234375 564.0086669921875 695.3489990234375 548.6748657226562Q695.3489990234375 534.0077514648438 706.0159912109375 523.0074157714844Q716.6829833984375 512.007080078125 732.0167846679688 512.007080078125Q747.3505859375 512.007080078125 758.017578125 523.0074157714844Q768.6845703125 534.0077514648438 768.6845703125 548.6748657226562Z" fill="#000000" />
<path d="M622.6845703125 548.6748657226562Q622.6845703125 564.0086669921875 612.017578125 574.6756591796875Q601.3505859375 585.3426513671875 586.0167846679688 585.3426513671875Q570.6829833984375 585.3426513671875 560.0159912109375 574.6756591796875Q549.3489990234375 564.0086669921875 549.3489990234375 548.6748657226562Q549.3489990234375 534.0077514648438 560.0159912109375 523.0074157714844Q570.6829833984375 512.007080078125 586.0167846679688 512.007080078125Q601.3505859375 512.007080078125 612.017578125 523.0074157714844Q622.6845703125 534.0077514648438 622.6845703125 548.6748657226562Z" fill="#000000" />
<path d="M659 366Q691 366 723 382Q729 385 731.5 392.0Q734 399 731 406Q727 413 720.0 415.5Q713 418 706 414Q659 391 613 414Q606 418 598.5 415.5Q591 413 588 406Q585 399 587.0 392.0Q589 385 596 382Q628 366 659 366Z" fill="#000000" />
<path d="M1012 108Q1007 126 989 120Q972 115 977 97Q994 42 986 -14Q983 -32 1001 -34Q1019 -37 1022 -19Q1032 45 1012 108Z" fill="#000000" />
<path d="M291 -19Q294 -37 312 -34Q330 -32 328 -14Q309 107 380 168Q387 174 388 181Q388 187 382 194Q370 208 356 196Q302 149 291 60Q286 16 291 -19Z" fill="#000000" />
<path d="M661 740H657Q652 740 648 738Q585 703 529 646Q414 527 452 411Q464 370 495 329Q559 246 659 246Q759 246 823 329Q854 370 866 411Q904 527 789 646Q733 703 670 738Q666 740 661 740ZM659 702Q714 670 762 620Q862 518 831 422Q830 422 830 421Q821 387 794 352Q741 283 659 283Q577 283 524 352Q497 387 488 421Q488 422 487 422Q456 518 556 620Q604 670 659 702Z" fill="#000000" />
<path d="M658 813Q667 812 672 817Q677 821 677 830Q678 849 660 849Q592 852 523 818Q383 748 369 561Q348 276 409 203Q428 155 469 105Q554 1 673 -13Q793 -27 897 64Q948 109 977 157Q977 158 978 160Q989 189 978 218Q957 276 857 283Q852 283 847 280Q845 279 843 277Q741 213 671 278Q658 290 646 277Q633 264 647 251Q737 167 861 246Q931 240 944 206Q950 190 944 174Q919 132 873 92Q781 11 677 24Q573 36 497 129Q459 175 442 219Q441 222 438 225Q427 238 416 284Q393 385 406 559Q418 725 539 785Q600 815 658 813Z" fill="#000000" />
<path d="M662 849Q653 849 649 844Q644 839 645 830Q645 812 664 813Q722 815 783 785Q904 725 916 559Q924 454 918 375L912 323Q909 305 927 303Q946 300 948 318L955 371Q955 371 955 372Q961 454 953 561Q939 748 799 818Q730 852 662 849Z" fill="#000000" />
<path d="M603.2061157226562 32.79388427734375Q603.1830444335938 50.81695556640625 585.1599731445312 50.84002685546875Q567.1369018554688 50.86309814453125 567.1599731445312 32.84002685546875L567.2227783203125 -16.2227783203125Q567.245849609375 -34.245849609375 585.2689208984375 -34.2689208984375Q603.2919921875 -34.2919921875 603.2689208984375 -16.2689208984375Z" fill="#000000" />
<path d="M887 65Q887 83 869 83Q851 83 851 65V-16Q851 -34 869 -34Q887 -34 887 -16Z" fill="#000000" />
<path d="M907 186Q916 201 901 211Q885 221 875 205Q861 182 832 161Q772 117 695 127Q609 138 517 223Q414 319 401 432Q399 451 381 449Q372 448 368 442Q364 437 365 428Q379 301 493 197Q593 104 690 91Q782 79 853 131Q889 157 907 186Z" fill="#000000" />
</g></svg>