<svg xmlns="http://www.w3.org/2000/svg" viewBox="0 0 2048 2048">
<g transform="matrix(1 0 0 -1 0 2048)">
<path d="M91.5877685546875 733.1798706054688V36.51513671875H1228.2723388671875V733.1798706054688Z" fill="#d22f27" />
<path d="M91.5877685546875 733.1392211914062V494.77978515625H1228.2723388671875V733.1392211914062Z" fill="#5c9e31" />
<path d="M91.5877685546875 495.00164794921875V274.94873046875H1228.2723388671875V495.00164794921875Z" fill="#ffffff" />
<path d="M669.0 458.5Q669.0 467.5 660.0 467.5Q651.0 467.5 651.0 458.5V311.5Q651.0 302.5 660.0 302.5Q669.0 302.5 669.0 311.5Z" fill="#d22f27" />
<path d="M697 468Q688 468 688 458Q688 449 697 449Q761 449 761 385Q761 321 697 321Q688 321 688 312Q688 303 697 303Q731 303 755 327Q779 351 779 385Q779 419 755 443Q731 468 697 468Z" fill="#d22f27" />
<path d="M657 320Q648 317 651 308Q655 300 663 303Q707 319 716 366Q724 412 689 443Q682 449 676 442Q670 435 677 429Q704 405 698 369Q691 333 657 320Z" fill="#d22f27" />
<path d="M657 303Q665 300 669 308Q672 317 663 320Q629 333 622 369Q616 405 644 429Q650 435 644 442Q638 449 631 443Q596 412 604 366Q613 319 657 303Z" fill="#d22f27" />
<path d="M623 449Q633 449 633 458Q633 468 623 468Q589 468 565 443Q541 419 541 385Q541 351 565 327Q589 303 623 303Q633 303 633 312Q633 321 623 321Q559 321 559 385Q559 449 623 449Z" fill="#d22f27" />
<path d="M73 37Q73 18 92 18H1228Q1247 18 1247 37V733Q1247 752 1228 752H92Q73 752 73 733ZM110 715H1210V55H110Z" fill="#000000" />
</g></svg>