<svg xmlns="http://www.w3.org/2000/svg" viewBox="0 0 2048 2048">
<g transform="matrix(1 0 0 -1 0 2048)">
<path d="M412 -147 1127 -146V-62Q1127 -26 1108.0 4.5Q1089 35 1060.0 57.0Q1031 79 1001.5 91.5Q972 104 952 104Q887 75 820.5 70.0Q754 65 695.5 81.0Q637 97 597 131Q579 144 539.0 158.5Q499 173 457 202Q438 215 427.0 202.5Q416 190 402 154L329 -31Q365 -68 408 -95Z" fill="#92d3f5" />
<path d="M585 449Q589 457 609.5 470.5Q630 484 657.0 500.0Q684 516 708 530Q795 576 873 636Q921 586 945.5 540.5Q970 495 970 431Q970 361 944.5 304.5Q919 248 875.0 214.5Q831 181 777 181Q723 181 679.5 214.5Q636 248 610.5 304.5Q585 361 585 431Z" fill="#a57939" />
<path d="M421 220Q389 244 382.0 253.0Q375 262 375 262L322 486Q372 510 418 541Q427 550 437.5 572.0Q448 594 458.5 618.5Q469 643 478 660Q487 677 494.0 693.0Q501 709 501 709Q501 709 500.5 716.5Q500 724 493.0 732.0Q486 740 467 740Q456 740 446.5 728.0Q437 716 430.0 699.5Q423 683 417.5 670.0Q412 657 409 653Q409 653 412.0 670.5Q415 688 419.0 714.0Q423 740 427.0 767.0Q431 794 434.5 815.0Q438 836 439 841Q445 869 436.5 880.5Q428 892 418.5 894.0Q409 896 409 896Q409 910 410.5 920.5Q412 931 404 942Q399 949 381.0 949.0Q363 949 353 930L345 884Q349 908 341.0 918.0Q333 928 320.5 928.5Q308 929 298.0 922.5Q288 916 287 907L268 828Q267 839 258.5 847.0Q250 855 237.5 854.0Q225 853 214 837Q206 801 208 765Q208 746 203.5 721.0Q199 696 195.5 673.5Q192 651 192 642Q199 571 187 501Q182 478 183.5 438.0Q185 398 191.0 351.0Q197 304 204.0 259.5Q211 215 218.0 182.0Q225 149 228 137Q232 119 250.0 103.0Q268 87 292.5 67.5Q317 48 342 19Z" fill="#a57939" />
<path d="M1095 363Q1114 331 1118.5 291.5Q1123 252 1118.5 216.0Q1114 180 1105.0 154.5Q1096 129 1088 124Q1063 101 1034 82Q999 106 957 109Q885 83 824.0 80.0Q763 77 711.0 87.5Q659 98 614 109Q604 109 581.5 121.5Q559 134 531.0 152.5Q503 171 475.5 191.0Q448 211 428.0 227.0Q408 243 403 248L434 329Q465 371 491 416Q510 469 505 525Q500 583 515 639Q527 683 561.0 717.0Q595 751 643.5 770.0Q692 789 749 789Q793 789 822.0 777.5Q851 766 866.0 754.0Q881 742 882 741Q887 735 894 734Q928 732 959.5 713.5Q991 695 1011.0 666.5Q1031 638 1031 604Q1034 549 1039.0 518.0Q1044 487 1052.5 464.0Q1061 441 1074 411Q1083 387 1095 363ZM762 166Q812 166 847.5 185.5Q883 205 907.0 235.5Q931 266 945.0 300.0Q959 334 966.0 365.0Q973 396 975.5 415.0Q978 434 978 434Q978 434 976.5 451.5Q975 469 969.0 495.0Q963 521 950.5 549.5Q938 578 916.0 601.5Q894 625 861 636Q861 636 836.0 621.0Q811 606 773.0 582.5Q735 559 694.5 533.5Q654 508 621.5 485.0Q589 462 577 449Q577 449 577.0 428.5Q577 408 580.5 376.0Q584 344 594.0 308.0Q604 272 624.5 240.0Q645 208 678.5 187.0Q712 166 762 166Z" fill="#000000" />
<path d="M886.0570068359375 440.43743896484375Q886.0570068359375 455.8302001953125 875.2820739746094 466.6051330566406Q864.5071411132812 477.38006591796875 849.1143798828125 477.38006591796875Q833.7216186523438 477.38006591796875 822.9466857910156 466.6051330566406Q812.1717529296875 455.8302001953125 812.1717529296875 440.43743896484375Q812.1717529296875 425.044677734375 822.9466857910156 414.2697448730469Q833.7216186523438 403.49481201171875 849.1143798828125 403.49481201171875Q864.5071411132812 403.49481201171875 875.2820739746094 414.2697448730469Q886.0570068359375 425.044677734375 886.0570068359375 440.43743896484375Z" fill="#000000" />
<path d="M740.0570068359375 440.43743896484375Q740.0570068359375 455.8302001953125 729.2820739746094 466.6051330566406Q718.5071411132812 477.38006591796875 703.1143798828125 477.38006591796875Q687.7216186523438 477.38006591796875 676.9466857910156 466.6051330566406Q666.1717529296875 455.8302001953125 666.1717529296875 440.43743896484375Q666.1717529296875 425.044677734375 676.9466857910156 414.2697448730469Q687.7216186523438 403.49481201171875 703.1143798828125 403.49481201171875Q718.5071411132812 403.49481201171875 729.2820739746094 414.2697448730469Q740.0570068359375 425.044677734375 740.0570068359375 440.43743896484375Z" fill="#000000" />
<path d="M732 310Q716 319 707 302Q699 286 715 278Q778 245 842 278Q858 286 850 302Q841 319 825 310Q778 286 732 310Z" fill="#000000" />
<path d="M394 -125Q391 -143 409 -146Q427 -150 430 -132Q437 -93 409 -66Q409 -65 408 -64Q363 -30 342 -13L429 195Q436 212 419 219Q411 222 405 220Q399 217 395 209L303 -11Q298 -23 308 -32Q327 -48 384 -92Q398 -106 394 -125Z" fill="#000000" />
<path d="M388 917Q391 935 373 939Q364 940 359 937Q354 933 352 924Q334 827 321 718Q318 699 336 697Q355 695 357 713Q371 822 388 917Z" fill="#000000" />
<path d="M377 656Q374 638 392 635Q411 633 413 651Q415 662 420 694Q436 799 442 860Q444 878 425 880Q416 881 411 877Q406 873 405 864Q399 803 383 700Q378 667 377 656Z" fill="#000000" />
<path d="M1109 -127Q1108 -137 1113 -141Q1117 -146 1126 -146Q1145 -147 1145 -129Q1147 -87 1147 -73Q1147 16 1056 82Q1012 113 968 128Q962 129 957 128Q803 84 672 110Q591 126 409 251Q344 408 341 478Q344 480 351 483Q446 533 468 600L477 627L501 704Q507 721 489 727Q472 732 466 715L442 639L433 611Q416 559 334 516Q304 500 304 486Q304 409 377 232Q379 226 383 223Q575 92 665 74Q802 47 961 91Q998 78 1035 52Q1110 -2 1110 -73Q1110 -87 1109 -127Z" fill="#000000" />
<path d="M247 718Q246 709 249 704Q253 699 262 697Q280 694 283 712Q308 856 319 893Q322 902 319 907Q316 913 308 916Q290 922 285 904Q272 865 247 718Z" fill="#000000" />
<path d="M330 18Q344 7 356 21Q367 35 353 47Q348 51 339 58Q237 140 228 187Q200 342 208 469Q210 499 210 514V522L211 623Q211 652 228 749Q234 785 246 819Q249 828 246 834Q243 840 235 843Q217 848 211 831Q199 794 192 755Q174 655 174 624V522V514Q174 500 172 471Q163 339 192 180Q200 137 229 105Q248 84 316 29Q325 22 330 18Z" fill="#000000" />
<path d="M425 313Q422 305 425 299Q428 293 437 290Q454 284 460 301Q466 319 482 355Q494 383 500 397Q516 440 514 507Q511 572 524 620Q542 687 608 729Q673 771 758 771Q848 771 891 722Q895 716 903 716Q953 711 987 674Q1021 637 1022 586Q1022 586 1022 586Q1028 475 1065 393Q1078 364 1086 344Q1132 239 1062 149Q1051 134 1065 123Q1080 112 1091 127Q1174 234 1120 359Q1112 378 1098 408Q1064 484 1059 587Q1058 652 1014 699Q973 744 913 751Q860 807 758 807Q662 807 588 760Q511 711 489 629Q474 576 477 505Q479 446 466 411Q460 397 448 370Q432 333 425 313Z" fill="#000000" />
<path d="M556 422Q556 307 620 227Q684 147 776 147Q868 147 932 227Q996 307 996 422Q996 540 881 655Q868 668 855 655Q821 622 692 548Q556 470 556 441ZM593 422V441Q593 449 710 516Q823 580 867 617Q959 519 959 422Q959 320 904 250Q851 184 776 184Q701 184 648 250Q593 320 593 422Z" fill="#000000" />
</g></svg>