<svg xmlns="http://www.w3.org/2000/svg" viewBox="0 0 2048 2048">
<g transform="matrix(1 0 0 -1 0 2048)">
<path d="M91.5877685546875 733.1798706054688V36.51513671875H1228.2723388671875V733.1798706054688Z" fill="#1e50a0" />
<path d="M1228 439V329L715 330L714 37H604L605 330L92 331V441L605 440L606 733H716L715 440Z" fill="#ffffff" />
<path d="M1247 457 1228 458H733L734 752H587V458L73 459V313L587 312L586 18H733V312L1247 311ZM1210 421V348H697L696 55H623V348L110 349V422H623L624 715H697V422Z" fill="#ffffff" />
<path d="M292.91015625 147.050048828125Q274.87060546875 147.050048828125 274.87060546875 128.00830078125Q274.87060546875 109.96875 292.91015625 109.96875H412.171630859375Q431.21337890625 109.96875 431.21337890625 128.00830078125Q431.21337890625 147.050048828125 412.171630859375 147.050048828125Z" fill="#ffffff" />
<path d="M291 146Q272 144 275 126Q277 116 282 113Q287 109 296 110L415 129Q433 131 431 149Q429 159 424 162Q419 166 410 165Z" fill="#ffffff" />
<path d="M440 137Q440 165 413 165Q385 165 385 137Q385 110 413 110Q440 110 440 137ZM403 137Q403 147 413 147Q422 147 422 137Q422 128 413 128Q403 128 403 137Z" fill="#ffffff" />
<path d="M367 183Q367 202 348 202Q330 202 330 183Q330 110 403 110Q422 110 422 128Q422 147 403 147Q367 147 367 183Z" fill="#ffffff" />
<path d="M312 257Q293 257 293 238Q293 220 312 220H330V183Q330 165 348 165Q367 165 367 183V229Q367 257 339 257Z" fill="#ffffff" />
<path d="M292.91015625 550.050048828125Q274.87060546875 550.050048828125 274.87060546875 531.00830078125Q274.87060546875 512.96875 292.91015625 512.96875H412.171630859375Q431.21337890625 512.96875 431.21337890625 531.00830078125Q431.21337890625 550.050048828125 412.171630859375 550.050048828125Z" fill="#ffffff" />
<path d="M291 550Q281 548 278 543Q274 538 275 529Q278 511 296 514L415 532Q433 535 431 553Q428 571 410 568Z" fill="#ffffff" />
<path d="M440 540Q440 568 413 568Q385 568 385 540Q385 513 413 513Q440 513 440 540ZM403 540Q403 550 413 550Q422 550 422 540Q422 531 413 531Q403 531 403 540Z" fill="#ffffff" />
<path d="M367 586Q367 605 348 605Q330 605 330 586Q330 513 403 513Q422 513 422 531Q422 550 403 550Q367 550 367 586Z" fill="#ffffff" />
<path d="M312 660Q293 660 293 641Q293 623 312 623H330V586Q330 568 348 568Q367 568 367 586V632Q367 660 339 660Z" fill="#ffffff" />
<path d="M915.91015625 147.050048828125Q897.87060546875 147.050048828125 897.87060546875 128.00830078125Q897.87060546875 109.96875 915.91015625 109.96875H1035.171630859375Q1054.21337890625 109.96875 1054.21337890625 128.00830078125Q1054.21337890625 147.050048828125 1035.171630859375 147.050048828125Z" fill="#ffffff" />
<path d="M914 146Q896 144 899 126Q901 107 919 110L1039 129Q1057 131 1054 149Q1051 168 1033 165Z" fill="#ffffff" />
<path d="M1063 137Q1063 165 1036 165Q1008 165 1008 137Q1008 110 1036 110Q1063 110 1063 137ZM1026 137Q1026 147 1036 147Q1045 147 1045 137Q1045 128 1036 128Q1026 128 1026 137Z" fill="#ffffff" />
<path d="M990 183Q990 202 971 202Q953 202 953 183Q953 110 1026 110Q1045 110 1045 128Q1045 147 1026 147Q990 147 990 183Z" fill="#ffffff" />
<path d="M935 257Q916 257 916 238Q916 220 935 220H953V183Q953 165 971 165Q990 165 990 183V229Q990 257 962 257Z" fill="#ffffff" />
<path d="M917 550Q898 550 898 532Q898 513 917 513H1036Q1054 513 1054 532Q1054 550 1036 550Z" fill="#ffffff" />
<path d="M914 550Q905 548 901 543Q897 538 899 529Q901 511 919 514L1039 532Q1048 533 1052 539Q1055 544 1054 553Q1051 571 1033 568Z" fill="#ffffff" />
<path d="M1063 540Q1063 568 1036 568Q1008 568 1008 540Q1008 513 1036 513Q1063 513 1063 540ZM1026 540Q1026 550 1036 550Q1045 550 1045 540Q1045 531 1036 531Q1026 531 1026 540Z" fill="#ffffff" />
<path d="M990 586Q990 605 971 605Q953 605 953 586Q953 513 1026 513Q1045 513 1045 531Q1045 550 1026 550Q990 550 990 586Z" fill="#ffffff" />
<path d="M935 660Q916 660 916 641Q916 623 935 623H953V586Q953 568 971 568Q990 568 990 586V632Q990 660 962 660Z" fill="#ffffff" />
<path d="M73 37Q73 18 92 18H1228Q1247 18 1247 37V733Q1247 752 1228 752H92Q73 752 73 733ZM110 715H1210V55H110Z" fill="#000000" />
</g></svg>