<svg xmlns="http://www.w3.org/2000/svg" viewBox="0 0 2048 2048">
<g transform="matrix(1 0 0 -1 0 2048)">
<path d="M91.5877685546875 733.1798706054688V36.51513671875H1228.2723388671875V733.1798706054688Z" fill="#d22f27" />
<path d="M91.375 733.1798706054688V36.51513671875H476.375V733.1798706054688Z" fill="#000000" />
<path d="M843.375 733.1798706054688V36.51513671875H1228.375V733.1798706054688Z" fill="#5c9e31" />
<path d="M660 149Q732 149 791.5 189.0Q851 229 878 295Q906 361 892.0 431.5Q878 502 827 552Q821 559 812 556Q803 554 801 545Q799 537 805 530Q845 490 858.5 437.5Q872 385 858.5 332.5Q845 280 805 240Q765 200 712.5 186.5Q660 173 607.5 186.5Q555 200 515 240Q475 280 461.5 332.5Q448 385 461.5 437.5Q475 490 515 530Q526 541 515 552Q504 563 493 552Q442 502 428.0 431.5Q414 361 442 295Q469 229 528.5 189.0Q588 149 660 149Z" fill="#ffffff" />
<path d="M722 412Q737 412 737 428Q737 444 722 444H598Q583 444 583 428Q583 412 598 412Z" fill="#ffffff" />
<path d="M690.7241821289062 489.36798095703125Q690.7241821289062 495.7606201171875 688.3190307617188 501.39373779296875Q685.9138793945312 507.02685546875 681.6732177734375 511.26751708984375Q677.4325561523438 515.5081787109375 671.7994384765625 517.913330078125Q666.1663208007812 520.3184814453125 659.773681640625 520.3184814453125Q653.3810424804688 520.3184814453125 647.7479248046875 517.913330078125Q642.1148071289062 515.5081787109375 637.8741455078125 511.26751708984375Q633.6334838867188 507.02685546875 631.2283325195312 501.39373779296875Q628.8231811523438 495.7606201171875 628.8231811523438 489.36798095703125Q628.8231811523438 482.975341796875 631.2283325195312 477.34222412109375Q633.6334838867188 471.7091064453125 637.8741455078125 467.46844482421875Q642.1148071289062 463.227783203125 647.7479248046875 460.8226318359375Q653.3810424804688 458.41748046875 659.773681640625 458.41748046875Q666.1663208007812 458.41748046875 671.7994384765625 460.8226318359375Q677.4325561523438 463.227783203125 681.6732177734375 467.46844482421875Q685.9138793945312 471.7091064453125 688.3190307617188 477.34222412109375Q690.7241821289062 482.975341796875 690.7241821289062 489.36798095703125Z" fill="#ffffff" />
<path d="M753 224Q768 224 768 240Q768 256 753 256H567Q552 256 552 240Q552 224 567 224Z" fill="#ffffff" />
<path d="M614 519Q614 535 597 535Q581 535 581 519V243Q581 227 597 227Q614 227 614 243Z" fill="#ffffff" />
<path d="M739 519Q739 536 722 536Q706 536 706 519V246Q706 230 722 230Q739 230 739 246Z" fill="#ffffff" />
<path d="M503.55792236328125 354.14617919921875 529.0906982421875 339.426025390625 567.2791748046875 405.490478515625 541.7463989257812 420.21063232421875Z" fill="#ffffff" />
<path d="M525 334Q532 330 535 336L573 402Q577 409 571 412L545 427Q539 430 535 424L497 358Q494 352 500 349ZM513 357 544 411 557 403 526 350Z" fill="#ffffff" />
<path d="M778.3627319335938 420.41424560546875 752.8299560546875 405.694091796875 791.0184326171875 339.629638671875 816.5512084960938 354.34979248046875Z" fill="#ffffff" />
<path d="M749 412Q743 409 747 402L785 336Q789 330 795 334L820 349Q826 352 823 358L785 424Q781 430 775 427ZM776 411 807 357 794 350 763 403Z" fill="#ffffff" />
<path d="M73 37Q73 18 92 18H1228Q1247 18 1247 37V733Q1247 752 1228 752H92Q73 752 73 733ZM110 715H1210V55H110Z" fill="#000000" />
</g></svg>