<svg xmlns="http://www.w3.org/2000/svg" viewBox="0 0 2048 2048">
<g transform="matrix(1 0 0 -1 0 2048)">
<path d="M1008 -72H314Q314 -72 312.5 -53.5Q311 -35 312.5 -5.5Q314 24 323.0 56.5Q332 89 351.5 118.5Q371 148 406.5 166.5Q442 185 497 185Q541 156 580.5 137.5Q620 119 662 119H660Q702 119 741.5 137.5Q781 156 825 185Q880 185 915.0 166.5Q950 148 970.0 118.5Q990 89 999.0 56.5Q1008 24 1009.5 -5.5Q1011 -35 1009.5 -53.5Q1008 -72 1008 -72Z" fill="#b1cc33" />
<path d="M832 185Q887 185 922.0 166.5Q957 148 977.0 119.0Q997 90 1005.5 57.0Q1014 24 1015.5 -5.0Q1017 -34 1015.0 -52.5Q1013 -71 1013 -71H920Q916 -49 911.0 -24.0Q906 1 894.0 25.5Q882 50 856.0 70.5Q830 91 785.0 104.0Q740 117 668 119Q759 129 832 185Z" fill="#5c9e31" />
<path d="M462 201V266H332V90Z" fill="#6a462f" />
<path d="M651 -72Q577 -44 530.5 -12.5Q484 19 452.5 60.0Q421 101 393 160Q406 171 431.0 176.0Q456 181 476.5 183.0Q497 185 497 185Q497 185 504.5 167.5Q512 150 534.0 121.5Q556 93 598.5 58.5Q641 24 710.0 -10.0Q779 -44 880 -73Z" fill="#a57939" />
<path d="M699 663Q724 624 765.5 602.0Q807 580 853 581Q865 539 865 496Q865 425 837.0 366.0Q809 307 761.5 272.0Q714 237 657 237Q600 237 552.5 272.0Q505 307 477.0 366.0Q449 425 449 496Q449 537 460 577Q508 578 550.5 601.0Q593 624 621 663Q655 704 657 756Q657 756 657.5 756.0Q658 756 659 756Q664 704 699 663Z" fill="#c19a65" />
<path d="M871 461Q895 455 921.0 469.5Q947 484 972.5 509.0Q998 534 1018.5 560.0Q1039 586 1051.5 604.0Q1064 622 1064 622L854 592Z" fill="#c19a65" />
<path d="M449 463Q426 457 400.0 471.5Q374 486 349.5 510.5Q325 535 304.5 560.5Q284 586 271.5 604.0Q259 622 259 622L467 592Z" fill="#c19a65" />
<path d="M657 827Q726 827 785.0 796.5Q844 766 884.0 713.0Q924 660 935 592Q883 578 844.0 581.5Q805 585 777.0 597.5Q749 610 732.0 625.5Q715 641 707.0 652.5Q699 664 699 664Q665 704 659 757H657Q655 704 621 664Q621 664 611.5 651.5Q602 639 583.0 622.5Q564 606 535.0 593.0Q506 580 467.5 577.5Q429 575 380 592Q391 660 431.0 713.0Q471 766 530.0 796.5Q589 827 657 827Z" fill="#6a462f" />
<path d="M687 229 779 272 845 363 869 453 909 458 952 484Q952 484 952.5 485.5Q953 487 953.5 479.5Q954 472 954.5 446.0Q955 420 955.5 366.5Q956 313 956 221Q957 183 944 146Q892 188 824 185Q781 156 741.5 137.5Q702 119 660 119Q618 119 579.0 137.5Q540 156 496 185L462 182V266L349 272V502L402 461L445 453L452 401L515 289L592 241Z" fill="#6a462f" />
<path d="M770.6845703125 521.6748657226562Q770.6845703125 537.0086669921875 760.017578125 547.6756591796875Q749.3505859375 558.3426513671875 734.0167846679688 558.3426513671875Q718.6829833984375 558.3426513671875 708.0159912109375 547.6756591796875Q697.3489990234375 537.0086669921875 697.3489990234375 521.6748657226562Q697.3489990234375 507.00775146484375 708.0159912109375 496.0074157714844Q718.6829833984375 485.007080078125 734.0167846679688 485.007080078125Q749.3505859375 485.007080078125 760.017578125 496.0074157714844Q770.6845703125 507.00775146484375 770.6845703125 521.6748657226562Z" fill="#000000" />
<path d="M623.6845703125 521.6748657226562Q623.6845703125 537.0086669921875 613.017578125 547.6756591796875Q602.3505859375 558.3426513671875 587.0167846679688 558.3426513671875Q571.6829833984375 558.3426513671875 561.0159912109375 547.6756591796875Q550.3489990234375 537.0086669921875 550.3489990234375 521.6748657226562Q550.3489990234375 507.00775146484375 561.0159912109375 496.0074157714844Q571.6829833984375 485.007080078125 587.0167846679688 485.007080078125Q602.3505859375 485.007080078125 613.017578125 496.0074157714844Q623.6845703125 507.00775146484375 623.6845703125 521.6748657226562Z" fill="#000000" />
<path d="M660 339Q693 339 723 355Q733 359 733 370Q734 380 725 386Q716 392 707 387Q660 362 613 387Q606 391 599.0 388.5Q592 386 589 379Q585 372 587.5 365.0Q590 358 597 355Q627 339 660 339Z" fill="#000000" />
<path d="M917 597Q923 580 940 586Q958 591 952 609Q898 773 774 826Q712 852 660 846Q609 852 548 826Q425 774 370 613Q365 596 382 590Q391 587 396 590Q402 593 405 602Q454 747 562 792Q615 815 658 809Q660 809 663 809Q706 815 759 792Q868 746 917 597Z" fill="#000000" />
<path d="M504 664Q491 676 478 663Q466 649 479 637Q535 585 608 604Q626 609 621 627Q619 635 614 639Q608 642 599 640Q545 626 504 664Z" fill="#000000" />
<path d="M841 637Q848 643 848 649Q848 656 842 663Q830 676 816 664Q775 626 721 640Q704 644 699 627Q697 618 700 612Q703 607 712 604Q786 585 841 637Z" fill="#000000" />
<path d="M687.53076171875 640.096435546875Q687.53076171875 645.767578125 685.379638671875 650.7542724609375Q683.228515625 655.740966796875 679.44775390625 659.521728515625Q675.6669921875 663.302490234375 670.6802978515625 665.45361328125Q665.693603515625 667.604736328125 660.0224609375 667.604736328125Q654.351318359375 667.604736328125 649.3646240234375 665.45361328125Q644.3779296875 663.302490234375 640.59716796875 659.521728515625Q636.81640625 655.740966796875 634.665283203125 650.7542724609375Q632.51416015625 645.767578125 632.51416015625 640.096435546875Q632.51416015625 634.42529296875 634.665283203125 629.4385986328125Q636.81640625 624.451904296875 640.59716796875 620.671142578125Q644.3779296875 616.890380859375 649.3646240234375 614.7392578125Q654.351318359375 612.588134765625 660.0224609375 612.588134765625Q665.693603515625 612.588134765625 670.6802978515625 614.7392578125Q675.6669921875 616.890380859375 679.44775390625 620.671142578125Q683.228515625 624.451904296875 685.379638671875 629.4385986328125Q687.53076171875 634.42529296875 687.53076171875 640.096435546875Z" fill="#000000" />
<path d="M464 574Q482 572 485 590Q488 608 469 610L262 640Q244 643 241 625Q240 618 244 612Q364 423 454 445Q463 447 466 453Q469 458 467 467Q463 485 445 480Q408 471 339 547Q317 572 298 598Z" fill="#000000" />
<path d="M677 749Q684 766 667 773Q659 777 653 774Q647 772 643 764Q623 716 590 675Q578 661 592 650Q606 638 618 652Q655 696 677 749Z" fill="#000000" />
<path d="M851 610Q842 609 838 604Q834 598 836 589Q838 571 856 574L1025 598Q1006 572 983 546Q914 469 876 478Q858 483 854 465Q851 456 855 451Q858 445 867 443Q957 420 1079 612Q1083 618 1082 625Q1079 643 1061 640Z" fill="#000000" />
<path d="M677 764Q674 772 668 775Q662 777 653 773Q636 766 643 749Q666 696 703 652Q714 638 729 650Q743 661 731 676Q698 716 677 764Z" fill="#000000" />
<path d="M957 477Q957 495 939 495Q921 495 921 477V230Q921 211 939 211Q957 211 957 230Z" fill="#000000" />
<path d="M313 90Q313 72 332 72Q350 72 350 90V247H443V200Q443 182 461 182Q480 182 480 200V266Q480 284 461 284H332Q313 284 313 266Z" fill="#000000" />
<path d="M349 266Q349 248 367 248Q385 248 385 266V353Q385 372 367 372Q349 372 349 353Z" fill="#000000" />
<path d="M410 266Q410 247 429 247Q447 247 447 266V329Q447 347 429 347Q410 347 410 329Z" fill="#000000" />
<path d="M990 -50Q987 -69 1005 -71Q1023 -74 1026 -56Q1036 8 1016 71Q975 203 824 203Q819 203 814 200Q721 138 661 138Q600 138 507 200Q502 203 497 203Q346 203 305 71Q285 8 295 -56Q297 -65 302 -69Q307 -73 316 -71Q334 -69 332 -50Q323 5 340 61Q372 164 491 167Q589 103 658 101Q659 101 659 101H662Q663 101 664 101Q732 103 830 167Q949 164 981 61Q998 5 990 -50Z" fill="#000000" />
<path d="M489 578Q507 582 503 600Q498 618 481 614L463 609Q452 607 449 597Q434 548 434 497Q434 383 499 302Q565 219 660 219Q755 219 822 302Q887 383 887 497Q887 548 871 597Q869 605 861 609L846 615Q829 621 822 604Q815 587 832 581L839 578Q850 538 850 497Q850 396 793 324Q738 255 660 255Q583 255 528 324Q471 396 471 497Q471 537 481 576Z" fill="#000000" />
<path d="M851 610Q842 609 838 604Q834 598 836 589Q838 571 856 574L1025 598Q1006 572 983 546Q914 469 876 478Q858 483 854 465Q851 456 855 451Q858 445 867 443Q957 420 1079 612Q1083 618 1082 625Q1079 643 1061 640Z" fill="#000000" />
<path d="M384.0 489.0Q384.0 508.0 365.0 508.0Q347.0 508.0 347.0 489.0V431.0Q347.0 413.0 365.0 413.0Q384.0 413.0 384.0 431.0Z" fill="#000000" />
<path d="M873 -72Q891 -77 896 -59Q901 -41 883 -36Q675 21 572 114Q523 159 514 190Q510 204 496 204Q413 200 381 175Q369 166 376 152Q420 60 473 16Q525 -28 640 -72Q657 -79 664 -62Q670 -45 653 -38Q544 4 497 44Q454 80 416 153Q439 163 484 166Q500 130 548 87Q657 -12 873 -72Z" fill="#000000" />
</g></svg>