<svg xmlns="http://www.w3.org/2000/svg" viewBox="0 0 2048 2048">
<g transform="matrix(1 0 0 -1 0 2048)">
<path d="M91.5877685546875 733.1798706054688V36.51513671875H1228.2723388671875V733.1798706054688Z" fill="#ffffff" />
<path d="M91.5877685546875 732.7880859375V641.1484375H1228.2723388671875V732.7880859375Z" fill="#d22f27" />
<path d="M91.5877685546875 568.6505126953125V495.3173828125H1228.2723388671875V568.6505126953125Z" fill="#d22f27" />
<path d="M91.5877685546875 421.6505126953125V348.3173828125H1228.2723388671875V421.6505126953125Z" fill="#d22f27" />
<path d="M92.3377685546875 733.4402465820312V348.41455078125H679.0223388671875V733.4402465820312Z" fill="#1e50a0" />
<path d="M91.5877685546875 274.6505126953125V201.3173828125H1228.2723388671875V274.6505126953125Z" fill="#d22f27" />
<path d="M197.38909912109375 641.2609252929688Q197.38909912109375 647.8878173828125 194.89581298828125 653.7273559570312Q192.40252685546875 659.56689453125 188.0064697265625 663.9629516601562Q183.61041259765625 668.3590087890625 177.7708740234375 670.852294921875Q171.93133544921875 673.3455810546875 165.304443359375 673.3455810546875Q158.67755126953125 673.3455810546875 152.8380126953125 670.852294921875Q146.99847412109375 668.3590087890625 142.6024169921875 663.9629516601562Q138.20635986328125 659.56689453125 135.71307373046875 653.7273559570312Q133.21978759765625 647.8878173828125 133.21978759765625 641.2609252929688Q133.21978759765625 634.634033203125 135.71307373046875 628.7944946289062Q138.20635986328125 622.9549560546875 142.6024169921875 618.5588989257812Q146.99847412109375 614.162841796875 152.8380126953125 611.6695556640625Q158.67755126953125 609.17626953125 165.304443359375 609.17626953125Q171.93133544921875 609.17626953125 177.7708740234375 611.6695556640625Q183.61041259765625 614.162841796875 188.0064697265625 618.5588989257812Q192.40252685546875 622.9549560546875 194.89581298828125 628.7944946289062Q197.38909912109375 634.634033203125 197.38909912109375 641.2609252929688Z" fill="#ffffff" />
<path d="M343.38909912109375 641.2609252929688Q343.38909912109375 647.8878173828125 340.89581298828125 653.7273559570312Q338.40252685546875 659.56689453125 334.0064697265625 663.9629516601562Q329.61041259765625 668.3590087890625 323.7708740234375 670.852294921875Q317.93133544921875 673.3455810546875 311.304443359375 673.3455810546875Q304.67755126953125 673.3455810546875 298.8380126953125 670.852294921875Q292.99847412109375 668.3590087890625 288.6024169921875 663.9629516601562Q284.20635986328125 659.56689453125 281.71307373046875 653.7273559570312Q279.21978759765625 647.8878173828125 279.21978759765625 641.2609252929688Q279.21978759765625 634.634033203125 281.71307373046875 628.7944946289062Q284.20635986328125 622.9549560546875 288.6024169921875 618.5588989257812Q292.99847412109375 614.162841796875 298.8380126953125 611.6695556640625Q304.67755126953125 609.17626953125 311.304443359375 609.17626953125Q317.93133544921875 609.17626953125 323.7708740234375 611.6695556640625Q329.61041259765625 614.162841796875 334.0064697265625 618.5588989257812Q338.40252685546875 622.9549560546875 340.89581298828125 628.7944946289062Q343.38909912109375 634.634033203125 343.38909912109375 641.2609252929688Z" fill="#ffffff" />
<path d="M490.38909912109375 641.2609252929688Q490.38909912109375 647.8878173828125 487.89581298828125 653.7273559570312Q485.40252685546875 659.56689453125 481.0064697265625 663.9629516601562Q476.61041259765625 668.3590087890625 470.7708740234375 670.852294921875Q464.93133544921875 673.3455810546875 458.304443359375 673.3455810546875Q451.67755126953125 673.3455810546875 445.8380126953125 670.852294921875Q439.99847412109375 668.3590087890625 435.6024169921875 663.9629516601562Q431.20635986328125 659.56689453125 428.71307373046875 653.7273559570312Q426.21978759765625 647.8878173828125 426.21978759765625 641.2609252929688Q426.21978759765625 634.634033203125 428.71307373046875 628.7944946289062Q431.20635986328125 622.9549560546875 435.6024169921875 618.5588989257812Q439.99847412109375 614.162841796875 445.8380126953125 611.6695556640625Q451.67755126953125 609.17626953125 458.304443359375 609.17626953125Q464.93133544921875 609.17626953125 470.7708740234375 611.6695556640625Q476.61041259765625 614.162841796875 481.0064697265625 618.5588989257812Q485.40252685546875 622.9549560546875 487.89581298828125 628.7944946289062Q490.38909912109375 634.634033203125 490.38909912109375 641.2609252929688Z" fill="#ffffff" />
<path d="M637.3890991210938 641.2609252929688Q637.3890991210938 647.8878173828125 634.8958129882812 653.7273559570312Q632.4025268554688 659.56689453125 628.0064697265625 663.9629516601562Q623.6104125976562 668.3590087890625 617.7708740234375 670.852294921875Q611.9313354492188 673.3455810546875 605.304443359375 673.3455810546875Q598.6775512695312 673.3455810546875 592.8380126953125 670.852294921875Q586.9984741210938 668.3590087890625 582.6024169921875 663.9629516601562Q578.2063598632812 659.56689453125 575.7130737304688 653.7273559570312Q573.2197875976562 647.8878173828125 573.2197875976562 641.2609252929688Q573.2197875976562 634.634033203125 575.7130737304688 628.7944946289062Q578.2063598632812 622.9549560546875 582.6024169921875 618.5588989257812Q586.9984741210938 614.162841796875 592.8380126953125 611.6695556640625Q598.6775512695312 609.17626953125 605.304443359375 609.17626953125Q611.9313354492188 609.17626953125 617.7708740234375 611.6695556640625Q623.6104125976562 614.162841796875 628.0064697265625 618.5588989257812Q632.4025268554688 622.9549560546875 634.8958129882812 628.7944946289062Q637.3890991210938 634.634033203125 637.3890991210938 641.2609252929688Z" fill="#ffffff" />
<path d="M563.3890991210938 568.2609252929688Q563.3890991210938 574.8878173828125 560.8958129882812 580.7273559570312Q558.4025268554688 586.56689453125 554.0064697265625 590.9629516601562Q549.6104125976562 595.3590087890625 543.7708740234375 597.852294921875Q537.9313354492188 600.3455810546875 531.304443359375 600.3455810546875Q524.6775512695312 600.3455810546875 518.8380126953125 597.852294921875Q512.9984741210938 595.3590087890625 508.6024169921875 590.9629516601562Q504.20635986328125 586.56689453125 501.71307373046875 580.7273559570312Q499.21978759765625 574.8878173828125 499.21978759765625 568.2609252929688Q499.21978759765625 561.634033203125 501.71307373046875 555.7944946289062Q504.20635986328125 549.9549560546875 508.6024169921875 545.5588989257812Q512.9984741210938 541.162841796875 518.8380126953125 538.6695556640625Q524.6775512695312 536.17626953125 531.304443359375 536.17626953125Q537.9313354492188 536.17626953125 543.7708740234375 538.6695556640625Q549.6104125976562 541.162841796875 554.0064697265625 545.5588989257812Q558.4025268554688 549.9549560546875 560.8958129882812 555.7944946289062Q563.3890991210938 561.634033203125 563.3890991210938 568.2609252929688Z" fill="#ffffff" />
<path d="M417.38909912109375 568.2609252929688Q417.38909912109375 574.8878173828125 414.89581298828125 580.7273559570312Q412.40252685546875 586.56689453125 408.0064697265625 590.9629516601562Q403.61041259765625 595.3590087890625 397.7708740234375 597.852294921875Q391.93133544921875 600.3455810546875 385.304443359375 600.3455810546875Q378.67755126953125 600.3455810546875 372.8380126953125 597.852294921875Q366.99847412109375 595.3590087890625 362.6024169921875 590.9629516601562Q358.20635986328125 586.56689453125 355.71307373046875 580.7273559570312Q353.21978759765625 574.8878173828125 353.21978759765625 568.2609252929688Q353.21978759765625 561.634033203125 355.71307373046875 555.7944946289062Q358.20635986328125 549.9549560546875 362.6024169921875 545.5588989257812Q366.99847412109375 541.162841796875 372.8380126953125 538.6695556640625Q378.67755126953125 536.17626953125 385.304443359375 536.17626953125Q391.93133544921875 536.17626953125 397.7708740234375 538.6695556640625Q403.61041259765625 541.162841796875 408.0064697265625 545.5588989257812Q412.40252685546875 549.9549560546875 414.89581298828125 555.7944946289062Q417.38909912109375 561.634033203125 417.38909912109375 568.2609252929688Z" fill="#ffffff" />
<path d="M270.38909912109375 568.2609252929688Q270.38909912109375 574.8878173828125 267.89581298828125 580.7273559570312Q265.40252685546875 586.56689453125 261.0064697265625 590.9629516601562Q256.61041259765625 595.3590087890625 250.7708740234375 597.852294921875Q244.93133544921875 600.3455810546875 238.304443359375 600.3455810546875Q231.67755126953125 600.3455810546875 225.8380126953125 597.852294921875Q219.99847412109375 595.3590087890625 215.6024169921875 590.9629516601562Q211.20635986328125 586.56689453125 208.71307373046875 580.7273559570312Q206.21978759765625 574.8878173828125 206.21978759765625 568.2609252929688Q206.21978759765625 561.634033203125 208.71307373046875 555.7944946289062Q211.20635986328125 549.9549560546875 215.6024169921875 545.5588989257812Q219.99847412109375 541.162841796875 225.8380126953125 538.6695556640625Q231.67755126953125 536.17626953125 238.304443359375 536.17626953125Q244.93133544921875 536.17626953125 250.7708740234375 538.6695556640625Q256.61041259765625 541.162841796875 261.0064697265625 545.5588989257812Q265.40252685546875 549.9549560546875 267.89581298828125 555.7944946289062Q270.38909912109375 561.634033203125 270.38909912109375 568.2609252929688Z" fill="#ffffff" />
<path d="M197.38909912109375 495.26092529296875Q197.38909912109375 501.8878173828125 194.89581298828125 507.72735595703125Q192.40252685546875 513.56689453125 188.0064697265625 517.9629516601562Q183.61041259765625 522.3590087890625 177.7708740234375 524.852294921875Q171.93133544921875 527.3455810546875 165.304443359375 527.3455810546875Q158.67755126953125 527.3455810546875 152.8380126953125 524.852294921875Q146.99847412109375 522.3590087890625 142.6024169921875 517.9629516601562Q138.20635986328125 513.56689453125 135.71307373046875 507.72735595703125Q133.21978759765625 501.8878173828125 133.21978759765625 495.26092529296875Q133.21978759765625 488.634033203125 135.71307373046875 482.79449462890625Q138.20635986328125 476.9549560546875 142.6024169921875 472.55889892578125Q146.99847412109375 468.162841796875 152.8380126953125 465.6695556640625Q158.67755126953125 463.17626953125 165.304443359375 463.17626953125Q171.93133544921875 463.17626953125 177.7708740234375 465.6695556640625Q183.61041259765625 468.162841796875 188.0064697265625 472.55889892578125Q192.40252685546875 476.9549560546875 194.89581298828125 482.79449462890625Q197.38909912109375 488.634033203125 197.38909912109375 495.26092529296875Z" fill="#ffffff" />
<path d="M343.38909912109375 495.26092529296875Q343.38909912109375 501.8878173828125 340.89581298828125 507.72735595703125Q338.40252685546875 513.56689453125 334.0064697265625 517.9629516601562Q329.61041259765625 522.3590087890625 323.7708740234375 524.852294921875Q317.93133544921875 527.3455810546875 311.304443359375 527.3455810546875Q304.67755126953125 527.3455810546875 298.8380126953125 524.852294921875Q292.99847412109375 522.3590087890625 288.6024169921875 517.9629516601562Q284.20635986328125 513.56689453125 281.71307373046875 507.72735595703125Q279.21978759765625 501.8878173828125 279.21978759765625 495.26092529296875Q279.21978759765625 488.634033203125 281.71307373046875 482.79449462890625Q284.20635986328125 476.9549560546875 288.6024169921875 472.55889892578125Q292.99847412109375 468.162841796875 298.8380126953125 465.6695556640625Q304.67755126953125 463.17626953125 311.304443359375 463.17626953125Q317.93133544921875 463.17626953125 323.7708740234375 465.6695556640625Q329.61041259765625 468.162841796875 334.0064697265625 472.55889892578125Q338.40252685546875 476.9549560546875 340.89581298828125 482.79449462890625Q343.38909912109375 488.634033203125 343.38909912109375 495.26092529296875Z" fill="#ffffff" />
<path d="M490.38909912109375 495.26092529296875Q490.38909912109375 501.8878173828125 487.89581298828125 507.72735595703125Q485.40252685546875 513.56689453125 481.0064697265625 517.9629516601562Q476.61041259765625 522.3590087890625 470.7708740234375 524.852294921875Q464.93133544921875 527.3455810546875 458.304443359375 527.3455810546875Q451.67755126953125 527.3455810546875 445.8380126953125 524.852294921875Q439.99847412109375 522.3590087890625 435.6024169921875 517.9629516601562Q431.20635986328125 513.56689453125 428.71307373046875 507.72735595703125Q426.21978759765625 501.8878173828125 426.21978759765625 495.26092529296875Q426.21978759765625 488.634033203125 428.71307373046875 482.79449462890625Q431.20635986328125 476.9549560546875 435.6024169921875 472.55889892578125Q439.99847412109375 468.162841796875 445.8380126953125 465.6695556640625Q451.67755126953125 463.17626953125 458.304443359375 463.17626953125Q464.93133544921875 463.17626953125 470.7708740234375 465.6695556640625Q476.61041259765625 468.162841796875 481.0064697265625 472.55889892578125Q485.40252685546875 476.9549560546875 487.89581298828125 482.79449462890625Q490.38909912109375 488.634033203125 490.38909912109375 495.26092529296875Z" fill="#ffffff" />
<path d="M637.3890991210938 495.26092529296875Q637.3890991210938 501.8878173828125 634.8958129882812 507.72735595703125Q632.4025268554688 513.56689453125 628.0064697265625 517.9629516601562Q623.6104125976562 522.3590087890625 617.7708740234375 524.852294921875Q611.9313354492188 527.3455810546875 605.304443359375 527.3455810546875Q598.6775512695312 527.3455810546875 592.8380126953125 524.852294921875Q586.9984741210938 522.3590087890625 582.6024169921875 517.9629516601562Q578.2063598632812 513.56689453125 575.7130737304688 507.72735595703125Q573.2197875976562 501.8878173828125 573.2197875976562 495.26092529296875Q573.2197875976562 488.634033203125 575.7130737304688 482.79449462890625Q578.2063598632812 476.9549560546875 582.6024169921875 472.55889892578125Q586.9984741210938 468.162841796875 592.8380126953125 465.6695556640625Q598.6775512695312 463.17626953125 605.304443359375 463.17626953125Q611.9313354492188 463.17626953125 617.7708740234375 465.6695556640625Q623.6104125976562 468.162841796875 628.0064697265625 472.55889892578125Q632.4025268554688 476.9549560546875 634.8958129882812 482.79449462890625Q637.3890991210938 488.634033203125 637.3890991210938 495.26092529296875Z" fill="#ffffff" />
<path d="M563.3890991210938 421.26092529296875Q563.3890991210938 427.8878173828125 560.8958129882812 433.72735595703125Q558.4025268554688 439.56689453125 554.0064697265625 443.96295166015625Q549.6104125976562 448.3590087890625 543.7708740234375 450.852294921875Q537.9313354492188 453.3455810546875 531.304443359375 453.3455810546875Q524.6775512695312 453.3455810546875 518.8380126953125 450.852294921875Q512.9984741210938 448.3590087890625 508.6024169921875 443.96295166015625Q504.20635986328125 439.56689453125 501.71307373046875 433.72735595703125Q499.21978759765625 427.8878173828125 499.21978759765625 421.26092529296875Q499.21978759765625 414.634033203125 501.71307373046875 408.79449462890625Q504.20635986328125 402.9549560546875 508.6024169921875 398.55889892578125Q512.9984741210938 394.162841796875 518.8380126953125 391.6695556640625Q524.6775512695312 389.17626953125 531.304443359375 389.17626953125Q537.9313354492188 389.17626953125 543.7708740234375 391.6695556640625Q549.6104125976562 394.162841796875 554.0064697265625 398.55889892578125Q558.4025268554688 402.9549560546875 560.8958129882812 408.79449462890625Q563.3890991210938 414.634033203125 563.3890991210938 421.26092529296875Z" fill="#ffffff" />
<path d="M417.38909912109375 421.26092529296875Q417.38909912109375 427.8878173828125 414.89581298828125 433.72735595703125Q412.40252685546875 439.56689453125 408.0064697265625 443.96295166015625Q403.61041259765625 448.3590087890625 397.7708740234375 450.852294921875Q391.93133544921875 453.3455810546875 385.304443359375 453.3455810546875Q378.67755126953125 453.3455810546875 372.8380126953125 450.852294921875Q366.99847412109375 448.3590087890625 362.6024169921875 443.96295166015625Q358.20635986328125 439.56689453125 355.71307373046875 433.72735595703125Q353.21978759765625 427.8878173828125 353.21978759765625 421.26092529296875Q353.21978759765625 414.634033203125 355.71307373046875 408.79449462890625Q358.20635986328125 402.9549560546875 362.6024169921875 398.55889892578125Q366.99847412109375 394.162841796875 372.8380126953125 391.6695556640625Q378.67755126953125 389.17626953125 385.304443359375 389.17626953125Q391.93133544921875 389.17626953125 397.7708740234375 391.6695556640625Q403.61041259765625 394.162841796875 408.0064697265625 398.55889892578125Q412.40252685546875 402.9549560546875 414.89581298828125 408.79449462890625Q417.38909912109375 414.634033203125 417.38909912109375 421.26092529296875Z" fill="#ffffff" />
<path d="M270.38909912109375 421.26092529296875Q270.38909912109375 427.8878173828125 267.89581298828125 433.72735595703125Q265.40252685546875 439.56689453125 261.0064697265625 443.96295166015625Q256.61041259765625 448.3590087890625 250.7708740234375 450.852294921875Q244.93133544921875 453.3455810546875 238.304443359375 453.3455810546875Q231.67755126953125 453.3455810546875 225.8380126953125 450.852294921875Q219.99847412109375 448.3590087890625 215.6024169921875 443.96295166015625Q211.20635986328125 439.56689453125 208.71307373046875 433.72735595703125Q206.21978759765625 427.8878173828125 206.21978759765625 421.26092529296875Q206.21978759765625 414.634033203125 208.71307373046875 408.79449462890625Q211.20635986328125 402.9549560546875 215.6024169921875 398.55889892578125Q219.99847412109375 394.162841796875 225.8380126953125 391.6695556640625Q231.67755126953125 389.17626953125 238.304443359375 389.17626953125Q244.93133544921875 389.17626953125 250.7708740234375 391.6695556640625Q256.61041259765625 394.162841796875 261.0064697265625 398.55889892578125Q265.40252685546875 402.9549560546875 267.89581298828125 408.79449462890625Q270.38909912109375 414.634033203125 270.38909912109375 421.26092529296875Z" fill="#ffffff" />
<path d="M91.5877685546875 127.7880859375V36.1484375H1228.2723388671875V127.7880859375Z" fill="#d22f27" />
<path d="M73 37Q73 18 92 18H1228Q1247 18 1247 37V733Q1247 752 1228 752H92Q73 752 73 733ZM110 715H1210V55H110Z" fill="#000000" />
</g></svg>