<svg xmlns="http://www.w3.org/2000/svg" viewBox="0 0 2048 2048">
<g transform="matrix(1 0 0 -1 0 2048)">
<path d="M559.7611083984375 403.9324951171875 563.76171875 844.575439453125Q562.748779296875 853.00048828125 563.926513671875 860.9766845703125Q567.1220703125 887.713623046875 588.6871337890625 903.8388671875Q610.252197265625 919.964111328125 637.775634765625 916.15087890625Q663.8948974609375 912.1688232421875 680.0201416015625 890.603759765625Q696.1453857421875 869.0386962890625 691.545654296875 842.1329345703125L684.8974609375 435.3590087890625L688.447998046875 630.9385986328125L690.10400390625 759.3402099609375Q689.091064453125 767.7652587890625 690.268798828125 775.741455078125Q694.8685302734375 802.647216796875 716.124755859375 818.3792114257812Q737.3809814453125 834.1112060546875 764.117919921875 830.9156494140625Q790.2371826171875 826.93359375 806.3624267578125 805.3685302734375Q822.4876708984375 783.803466796875 818.505615234375 757.6842041015625L817.5853271484375 356.5845947265625L818.7872314453125 257.728271484375L817.5853271484375 356.5845947265625L818.7872314453125 257.728271484375L1000.1361083984375 342.9207763671875Q1009.90771484375 350.5057373046875 1018.3079833984375 336.91485595703125Q1026.708251953125 323.323974609375 1026.9943237304688 300.210693359375Q1027.2803955078125 277.097412109375 1014.0291748046875 256.986083984375Q1014.0291748046875 256.986083984375 1000.271484375 241.0872802734375Q986.5137939453125 225.1884765625 964.3330688476562 199.3740234375Q942.15234375 173.5595703125 917.5009155273438 144.59912109375Q892.8494873046875 115.638671875 868.9557495117188 89.26214599609375Q845.06201171875 62.8856201171875 829.282470703125 46.031494140625Q782.223876953125 -0.93603515625 722.0172119140625 -27.405029296875Q661.810546875 -53.8740234375 596.0943603515625 -58.2138671875Q519.5936279296875 -61.713623046875 454.12261962890625 -32.54888916015625Q388.651611328125 -3.3841552734375 347.0743408203125 52.1571044921875Q305.4970703125 107.6983642578125 301.997314453125 184.1990966796875L301.1129150390625 369.274169921875L303.811279296875 607.4854736328125Q302.79833984375 615.9105224609375 304.59375 624.6732177734375Q307.789306640625 651.41015625 329.3543701171875 667.535400390625Q350.91943359375 683.66064453125 377.8251953125 679.0609130859375Q403.9444580078125 675.078857421875 420.0697021484375 653.5137939453125Q436.1949462890625 631.94873046875 432.212890625 605.8294677734375L428.8968505859375 366.8316650390625L428.4854736328125 447.264892578125L433.0126953125 794.668212890625Q431.999755859375 803.09326171875 433.795166015625 811.85595703125Q436.99072265625 838.5928955078125 458.5557861328125 854.7181396484375Q480.120849609375 870.8433837890625 507.026611328125 866.24365234375Q533.7635498046875 863.048095703125 549.8887939453125 841.4830322265625Q566.0140380859375 819.91796875 561.414306640625 793.01220703125Z" fill="#debb90" />
<path d="M422 665Q405 684 379 688Q348 693 324 674Q299 656 295 626Q293 616 294 607L291 369L292 184Q298 68 389 -4Q476 -73 596 -67Q736 -59 836 39Q889 96 1021 251V252H1022Q1043 283 1033 323Q1029 340 1020 348Q1008 360 995 351L827 272V357V757Q832 786 813 811Q795 835 765 840Q735 844 710 826Q705 822 700 817L701 842Q705 872 687 896Q668 921 638 925Q608 930 583 911Q559 893 554 863Q553 857 554 850Q536 872 508 876Q478 880 453 862Q429 844 424 813Q423 804 424 794ZM552 794H554L550 404H569L572 845Q571 853 572 860Q576 883 594 897Q613 910 636 907Q658 904 672 885Q686 867 682 844V843L681 779Q681 778 681 777Q680 768 681 758L680 693L676 436L694 435L697 631L698 692L700 777Q703 798 721 811Q739 825 762 822Q785 818 799 800Q813 781 809 759V758L808 357L809 258V243L1004 335H1005Q1006 336 1008 335Q1013 330 1016 318Q1023 287 1007 263Q876 109 822 52Q728 -41 595 -49Q482 -55 400 10Q316 77 310 184L309 369L313 608Q312 616 313 623Q316 646 335 660Q353 673 376 670Q399 667 412 648Q419 639 422 630L419 447V367H429H438L441 605Q443 619 440 632L442 795V796Q441 803 442 811Q446 833 464 847Q483 861 505 858Q528 854 542 836Q556 817 552 794Z" fill="#debb90" />
<path d="M413 685Q399 694 380 697Q346 702 318 682Q291 661 286 627Q284 617 285 606L282 369L283 184Q283 184 283 183Q289 63 383 -11Q473 -83 597 -76Q740 -68 842 33Q842 33 842 33Q896 90 1028 245Q1029 246 1029 247Q1053 282 1042 325Q1038 344 1027 355Q1009 371 990 359L836 286V357L837 756Q841 789 821 816Q800 844 766 849Q735 853 710 837V841Q714 874 694 901Q674 929 640 934Q605 939 578 919Q553 900 546 870Q530 882 509 885Q475 890 448 869Q420 849 415 815Q414 804 415 794ZM543 796Q542 789 544 784L542 469Q541 451 560 451Q578 451 578 469L581 844Q582 845 581 846Q581 853 582 859Q584 878 600 889Q615 901 634 898Q653 895 665 880Q676 864 673 845Q673 844 673 843L672 779Q672 779 672 779Q670 768 672 758L671 693L666 436Q666 418 684 417Q703 417 703 435L707 630V692L709 776Q712 793 726 804Q742 815 761 813Q780 810 791 794Q803 779 800 760Q800 759 800 757L799 357Q799 357 799 356L800 258Q800 248 805 244Q806 242 808 241Q814 237 822 240Q828 240 832 244L1004 325Q1005 322 1007 316Q1013 289 999 268Q869 115 816 59Q724 -32 595 -40Q485 -45 406 17Q325 81 320 185L319 369L322 607Q322 608 322 610Q321 616 322 622Q325 641 340 652Q356 664 375 661Q394 658 405 643Q410 636 412 629L410 447V429Q410 420 415 415Q419 411 428 411Q446 411 447 429L450 604Q452 619 449 633L451 795Q451 796 451 797Q450 803 451 809Q454 828 470 840Q485 851 504 848Q523 846 534 830Q546 815 543 796Z" fill="#000000" />
</g></svg>