<svg xmlns="http://www.w3.org/2000/svg" viewBox="0 0 2048 2048">
<g transform="matrix(1 0 0 -1 0 2048)">
<path d="M91.5877685546875 733.1798706054688V36.51513671875H1228.2723388671875V733.1798706054688Z" fill="#d22f27" />
<path d="M745 439V348Q745 348 753.5 359.0Q762 370 773.0 384.5Q784 399 792.5 410.5Q801 422 801 422L711 393L801 365Q801 365 792.5 376.5Q784 388 773.0 402.5Q762 417 753.5 428.0Q745 439 745 439Z" fill="#ffffff" />
<path d="M749 448Q746 450 742 448Q738 447 737 443Q735 440 736 437V411L708 402Q703 401 702 396Q699 387 708 385L736 376V348Q736 343 740 341Q747 335 752 342L770 365L798 357Q803 355 807 358Q814 364 808 371L791 394L808 416Q811 420 810 424Q808 429 805 430Q803 432 798 430L770 422L754 443Q753 446 749 448ZM754 390V398L763 400L768 394L763 387Z" fill="#ffffff" />
<path d="M574 227Q612 227 646 244Q603 200 543.0 187.5Q483 175 426 198Q369 222 334.5 273.0Q300 324 300 385Q300 447 334.5 498.0Q369 549 426 572Q483 595 543.0 582.5Q603 570 646 526Q602 549 553.5 542.5Q505 536 468 503Q432 470 420.5 422.5Q409 375 426 329Q444 283 484.0 255.0Q524 227 574 227Z" fill="#ffffff" />
<path d="M571 236Q471 237 435 332Q398 428 474 496Q551 565 642 518Q646 516 649 517Q652 518 654 522Q657 528 653 533Q554 634 422 580Q291 527 291 385Q291 243 422 190Q554 136 653 238Q659 244 653 251Q648 255 642 252Q610 236 574 236Q572 236 571 236ZM574 217Q575 217 576 218Q590 218 604 220Q526 167 429 207Q310 256 310 385Q310 515 429 563Q524 602 600 552Q527 568 462 510Q377 433 418 325Q458 218 574 217Z" fill="#ffffff" />
<path d="M73 37Q73 18 92 18H1228Q1247 18 1247 37V733Q1247 752 1228 752H92Q73 752 73 733ZM110 715H1210V55H110Z" fill="#000000" />
</g></svg>