<svg xmlns="http://www.w3.org/2000/svg" viewBox="0 0 2048 2048">
<g transform="matrix(1 0 0 -1 0 2048)">
<path d="M91.5877685546875 733.1798706054688V36.51513671875H1228.2723388671875V733.1798706054688Z" fill="#d22f27" />
<path d="M91.5877685546875 275.13922119140625V36.77978515625H1228.2723388671875V275.13922119140625Z" fill="#5c9e31" />
<path d="M91.5877685546875 733.1392211914062V494.77978515625H1228.2723388671875V733.1392211914062Z" fill="#ffffff" />
<path d="M91.6622314453125 733.1798706054688V36.51513671875H384.9776611328125V733.1798706054688Z" fill="#d22f27" />
<path d="M192.5 615.5Q183.5 615.5 183.5 606.5Q183.5 597.5 192.5 597.5H284.0Q293.5 597.5 293.5 606.5Q293.5 615.5 284.0 615.5Z" fill="#ffffff" />
<path d="M229.0 606.0Q229.0 597.0 238.0 597.0Q247.0 597.0 247.0 606.0V679.5Q247.0 688.5 238.0 688.5Q229.0 688.5 229.0 679.5Z" fill="#ffffff" />
<path d="M318 670Q325 677 318 683Q312 690 305 683L232 610Q231 609 230 608Q196 539 147 539Q138 539 138 530Q138 521 147 521Q207 521 246 598Z" fill="#ffffff" />
<path d="M171 683Q165 690 159 683Q152 677 159 670L231 598Q270 521 330 521Q339 521 339 530Q339 539 330 539Q281 539 247 608Q246 609 245 610Z" fill="#ffffff" />
<path d="M73 37Q73 18 92 18H1228Q1247 18 1247 37V733Q1247 752 1228 752H92Q73 752 73 733ZM110 715H1210V55H110Z" fill="#000000" />
</g></svg>