<svg xmlns="http://www.w3.org/2000/svg" viewBox="0 0 2048 2048">
<g transform="matrix(1 0 0 -1 0 2048)">
<path d="M257 574 354 614 365 636 383 673Q383 673 390.0 693.5Q397 714 414.0 744.0Q431 774 461.5 804.0Q492 834 538.5 854.5Q585 875 651 875Q711 872 748.5 850.5Q786 829 806.5 796.0Q827 763 835.5 727.0Q844 691 845 662L1063 574Z" fill="#92d3f5" />
<path d="M550 576 403 414 385 390 374 380 370 238Q369 235 366 234Q359 232 358 238L304 435Q299 453 308 469L350 574Z" fill="#61b2e4" />
<path d="M1008 -72V1Q1008 47 981.5 84.5Q955 122 913.0 144.0Q871 166 825 166Q660 28 495 166Q449 166 407.0 144.0Q365 122 338.5 84.5Q312 47 312 1V-72Z" fill="#92d3f5" />
<path d="M1008 -72V1Q1008 47 981.5 84.5Q955 122 913.0 144.0Q871 166 825 166Q798 143 770 128Q798 105 816.5 71.0Q835 37 837 1V-72Z" fill="#61b2e4" />
<path d="M1057 305Q1086 321 1099 351Q1113 386 1099.0 421.0Q1085 456 1050 471Q1015 485 979.5 471.0Q944 457 930 422Q915 387 929.0 352.0Q943 317 978 302Z" fill="#61b2e4" />
<path d="M1014 450Q1039 446 1057 429Q1014 438 971 429Q989 446 1014 450Z" fill="#92d3f5" />
<path d="M976.9853515625 -73.00372314453125V301.91046142578125H1050.478515625V-73.00372314453125Z" fill="#a57939" />
<path d="M845 572Q862 530 862 479Q862 405 834.5 347.0Q807 289 761.0 255.5Q715 222 660 222Q605 222 559.0 255.5Q513 289 485.5 347.0Q458 405 458 479Q458 530 475 572Z" fill="#fadcbc" />
<path d="M367 565Q374 582 357 589Q339 596 333 579L293 477Q281 454 288 430L340 234Q340 233 340 233Q347 209 371 216Q384 220 388 233Q389 235 389 238L392 379Q393 390 395 400Q398 409 395 415Q391 420 382 423Q365 428 360 410Q356 395 356 380L354 323L324 439Q324 439 324 440Q321 451 326 461Q327 462 327 463Z" fill="#000000" />
<path d="M348 629 250 589Q233 582 240 565Q244 554 257 554H1063Q1082 554 1082 572Q1082 584 1070 589L863 674Q857 751 819 806Q761 889 646 893Q646 893 645 893Q486 893 401 761Q359 696 349 630Q349 630 348 629ZM510 718Q517 735 500 741Q483 748 476 731Q466 704 460 675L389 646Q401 693 432 741Q506 856 645 856Q818 850 827 661Q827 649 838 645L971 590H350L484 645Q493 649 495 659Q499 689 510 718Z" fill="#000000" />
<path d="M971 284Q988 277 995 294Q1002 311 986 318Q958 330 946 358Q935 386 947 414Q975 481 1043 453Q1071 441 1082 413Q1093 385 1082 357Q1071 333 1048 320Q1032 312 1041 296Q1049 280 1066 288Q1100 306 1115 342Q1133 384 1116 427Q1099 469 1057 487Q1015 504 973 487Q930 470 913 428Q895 386 912 344Q929 302 971 284Z" fill="#000000" />
<path d="M1032 -56Q1032 -74 1051 -74Q1069 -74 1069 -56V301Q1069 319 1051 319H977Q959 319 959 301V-56Q959 -74 977 -74Q996 -74 996 -56V282H1032Z" fill="#000000" />
<path d="M293 -55Q293 -73 312 -73Q330 -73 330 -55V0Q330 59 381 103Q429 144 489 147Q660 8 831 147Q913 144 963 78Q974 63 988 74Q1003 85 992 100Q929 183 825 183Q818 183 813 179Q660 51 507 179Q502 183 495 183Q418 183 357 131Q293 76 293 0Z" fill="#000000" />
<path d="M770 497Q770 512 759.0 523.0Q748 534 733 534Q718 534 707.5 523.0Q697 512 697 497Q697 482 707.5 471.0Q718 460 733 460Q748 460 759.0 471.0Q770 482 770 497Z" fill="#000000" />
<path d="M623 497Q623 512 612.5 523.0Q602 534 587 534Q572 534 561.0 523.0Q550 512 550 497Q550 482 561.0 471.0Q572 460 587 460Q602 460 612.5 471.0Q623 482 623 497Z" fill="#000000" />
<path d="M492 565Q499 582 482 589Q465 596 458 579Q440 534 440 479Q440 363 504 284Q568 203 660 203Q752 203 816 284Q880 363 880 479Q880 534 862 579Q859 587 853 590Q847 592 838 589Q821 582 828 565Q843 527 843 479Q843 376 788 307Q735 240 660 240Q585 240 532 307Q477 376 477 479Q477 527 492 565Z" fill="#000000" />
<path d="M614 363Q598 371 589 355Q581 339 597 330Q660 297 724 330Q740 339 732 355Q723 371 707 363Q660 338 614 363Z" fill="#000000" />
</g></svg>