<svg xmlns="http://www.w3.org/2000/svg" viewBox="0 0 2048 2048">
<g transform="matrix(1 0 0 -1 0 2048)">
<path d="M91.5877685546875 733.1798706054688V36.51513671875H1228.2723388671875V733.1798706054688Z" fill="#d22f27" />
<path d="M673 465Q659 456 644.5 443.0Q630 430 635 401Q615 412 605.5 436.5Q596 461 599.5 489.5Q603 518 623.5 541.5Q644 565 683 574Q680 566 679.5 551.5Q679 537 686 525Q693 513 689.5 493.5Q686 474 673 465Z" fill="#ffffff" />
<path d="M678 458Q694 469 699 492Q703 514 694 529Q682 548 692 570Q695 579 687 582Q684 584 681 583Q602 564 590 491Q580 422 630 393Q634 390 638 391Q641 392 643 396Q645 399 644 402Q639 432 673 455Q676 457 678 458ZM678 520Q696 492 668 473Q666 472 663 470Q630 448 626 419Q602 443 609 488Q617 542 670 561Q666 539 678 520Z" fill="#ffffff" />
<path d="M663.259521484375 500.809326171875Q663.259521484375 503.64501953125 662.192626953125 506.143798828125Q661.125732421875 508.642578125 659.24462890625 510.523681640625Q657.363525390625 512.40478515625 654.86474609375 513.4716796875Q652.365966796875 514.53857421875 649.5302734375 514.53857421875Q646.694580078125 514.53857421875 644.19580078125 513.4716796875Q641.697021484375 512.40478515625 639.81591796875 510.523681640625Q637.934814453125 508.642578125 636.867919921875 506.143798828125Q635.801025390625 503.64501953125 635.801025390625 500.809326171875Q635.801025390625 497.9736328125 636.867919921875 495.474853515625Q637.934814453125 492.97607421875 639.81591796875 491.094970703125Q641.697021484375 489.2138671875 644.19580078125 488.14697265625Q646.694580078125 487.080078125 649.5302734375 487.080078125Q652.365966796875 487.080078125 654.86474609375 488.14697265625Q657.363525390625 489.2138671875 659.24462890625 491.094970703125Q661.125732421875 492.97607421875 662.192626953125 495.474853515625Q663.259521484375 497.9736328125 663.259521484375 500.809326171875Z" fill="#d22f27" />
<path d="M742 382Q729 392 712.0 402.0Q695 412 669 398Q674 420 694.0 437.0Q714 454 742.5 459.0Q771 464 799.5 452.0Q828 440 849 405Q840 406 826.0 402.0Q812 398 802 387Q793 377 774.0 374.5Q755 372 742 382Z" fill="#ffffff" />
<path d="M736 374Q752 362 775 365Q798 368 809 382Q824 398 848 396Q857 395 858 404Q858 407 856 410Q814 480 741 468Q672 457 660 400Q658 391 667 389Q670 388 673 390Q700 404 732 378Q735 376 736 374ZM748 389Q746 390 743 392Q713 417 683 412Q699 443 744 450Q797 459 832 414Q810 411 796 393Q774 368 748 389Z" fill="#ffffff" />
<path d="M773.29736328125 401.7137451171875Q775.9912719726562 402.59527587890625 778.033447265625 404.3856201171875Q780.0756225585938 406.17596435546875 781.2778930664062 408.54779052734375Q782.4801635742188 410.91961669921875 782.7169189453125 413.6251220703125Q782.9536743164062 416.33062744140625 782.0721435546875 419.0245361328125Q781.1906127929688 421.71844482421875 779.4002685546875 423.7606201171875Q777.6099243164062 425.80279541015625 775.2380981445312 427.00506591796875Q772.8662719726562 428.20733642578125 770.1607666015625 428.444091796875Q767.4552612304688 428.68084716796875 764.7613525390625 427.79931640625Q762.0674438476562 426.91778564453125 760.0252685546875 425.12744140625Q757.9830932617188 423.33709716796875 756.7808227539062 420.96527099609375Q755.5785522460938 418.59344482421875 755.341796875 415.887939453125Q755.1050415039062 413.18243408203125 755.986572265625 410.488525390625Q756.8681030273438 407.79461669921875 758.658447265625 405.75244140625Q760.4487915039062 403.71026611328125 762.8206176757812 402.50799560546875Q765.1924438476562 401.30572509765625 767.89794921875 401.0689697265625Q770.6034545898438 400.83221435546875 773.29736328125 401.7137451171875Z" fill="#d22f27" />
<path d="M684 290Q689 305 693.5 324.5Q698 344 676 365Q700 367 722.0 353.0Q744 339 757.5 313.5Q771 288 768.5 257.5Q766 227 739 196Q737 204 729.0 216.5Q721 229 708 234Q695 240 686.5 257.5Q678 275 684 290Z" fill="#ffffff" />
<path d="M675 293Q668 275 678 254Q688 233 705 226Q725 218 730 194Q732 185 741 187Q744 188 746 190Q800 252 766 318Q734 380 675 374Q671 373 669 371Q667 368 667 364Q668 360 670 358Q692 337 677 299Q676 295 675 293ZM692 287Q693 289 694 292Q709 329 695 355Q728 350 749 309Q774 261 742 215Q732 234 712 243Q681 256 692 287Z" fill="#ffffff" />
<path d="M712.1162109375 266.276611328125Q713.7806396484375 263.9710693359375 716.11474609375 262.565673828125Q718.4488525390625 261.1602783203125 721.0823974609375 260.7349853515625Q723.7159423828125 260.3096923828125 726.373779296875 260.908935546875Q729.0316162109375 261.5081787109375 731.337158203125 263.172607421875Q733.6427001953125 264.8370361328125 735.048095703125 267.171142578125Q736.4534912109375 269.5052490234375 736.8787841796875 272.1387939453125Q737.3040771484375 274.7723388671875 736.704833984375 277.43017578125Q736.1055908203125 280.0880126953125 734.441162109375 282.3935546875Q732.7767333984375 284.6990966796875 730.442626953125 286.1044921875Q728.1085205078125 287.5098876953125 725.4749755859375 287.9351806640625Q722.8414306640625 288.3604736328125 720.18359375 287.76123046875Q717.5257568359375 287.1619873046875 715.22021484375 285.49755859375Q712.9146728515625 283.8331298828125 711.50927734375 281.4990234375Q710.1038818359375 279.1649169921875 709.6785888671875 276.5313720703125Q709.2532958984375 273.8978271484375 709.8525390625 271.239990234375Q710.4517822265625 268.5821533203125 712.1162109375 266.276611328125Z" fill="#d22f27" />
<path d="M579 317Q595 317 614.5 318.5Q634 320 647 347Q657 326 650.5 300.5Q644 275 624.0 254.5Q604 234 574.0 227.0Q544 220 506 236Q513 240 522.5 251.5Q532 263 533 277Q534 291 548.5 304.5Q563 318 579 317Z" fill="#ffffff" />
<path d="M578 326Q559 327 542 311Q525 296 524 278Q522 256 502 243Q494 239 499 231Q500 228 503 227Q578 195 630 248Q680 298 656 351Q654 355 651 356Q648 357 644 356Q641 354 639 351Q625 324 585 326Q581 326 579 326Q579 326 578 326ZM578 308Q579 308 579 308Q581 308 584 308Q624 306 644 327Q650 293 617 261Q579 222 525 238Q541 254 542 276Q545 309 578 308Z" fill="#ffffff" />
<path d="M565.5672607421875 282.1934814453125Q563.90283203125 279.9002685546875 563.2989501953125 277.2532958984375Q562.695068359375 274.6063232421875 563.1121826171875 271.98095703125Q563.529296875 269.3555908203125 564.923828125 267.026123046875Q566.318359375 264.6966552734375 568.611572265625 263.0322265625Q570.90478515625 261.3677978515625 573.5517578125 260.763916015625Q576.19873046875 260.1600341796875 578.8240966796875 260.5771484375Q581.449462890625 260.9942626953125 583.7789306640625 262.3887939453125Q586.1083984375 263.7833251953125 587.7728271484375 266.0765380859375Q589.437255859375 268.3697509765625 590.0411376953125 271.0167236328125Q590.64501953125 273.6636962890625 590.2279052734375 276.2890625Q589.810791015625 278.9144287109375 588.416259765625 281.243896484375Q587.021728515625 283.5733642578125 584.728515625 285.23779296875Q582.435302734375 286.9022216796875 579.788330078125 287.506103515625Q577.141357421875 288.1099853515625 574.5159912109375 287.69287109375Q571.890625 287.2757568359375 569.5611572265625 285.8812255859375Q567.231689453125 284.4866943359375 565.5672607421875 282.1934814453125Z" fill="#d22f27" />
<path d="M572 425Q577 410 584.5 392.0Q592 374 622 369Q605 354 578.5 352.5Q552 351 526.5 363.5Q501 376 485.0 402.0Q469 428 472 469Q478 464 492.0 458.5Q506 453 520 456Q533 460 550.5 450.5Q568 441 572 425Z" fill="#ffffff" />
<path d="M581 429Q575 447 555 458Q535 469 518 465Q496 460 478 476Q471 482 465 475Q463 473 463 470Q456 388 522 355Q585 323 628 363Q632 366 632 369Q632 372 629 376Q627 378 623 379Q593 383 583 422Q582 426 581 428Q581 428 581 429ZM563 423Q563 423 564 422Q564 421 565 418Q575 379 602 366Q571 351 530 371Q482 396 481 452Q500 442 522 447Q554 455 563 423Z" fill="#ffffff" />
<path d="M534.7596435546875 427.0068359375Q532.0657348632812 427.88836669921875 529.3602294921875 427.651611328125Q526.6547241210938 427.41485595703125 524.2828979492188 426.21258544921875Q521.9110717773438 425.01031494140625 520.1207275390625 422.9681396484375Q518.3303833007812 420.92596435546875 517.4488525390625 418.2320556640625Q516.5673217773438 415.53814697265625 516.8040771484375 412.8326416015625Q517.0408325195312 410.12713623046875 518.2431030273438 407.75531005859375Q519.4453735351562 405.38348388671875 521.487548828125 403.5931396484375Q523.5297241210938 401.80279541015625 526.2236328125 400.9212646484375Q528.9175415039062 400.03973388671875 531.623046875 400.2764892578125Q534.3285522460938 400.51324462890625 536.7003784179688 401.71551513671875Q539.0722045898438 402.91778564453125 540.862548828125 404.9599609375Q542.6528930664062 407.00213623046875 543.534423828125 409.696044921875Q544.4159545898438 412.38995361328125 544.17919921875 415.095458984375Q543.9424438476562 417.80096435546875 542.7401733398438 420.17279052734375Q541.5379028320312 422.54461669921875 539.4957275390625 424.3349609375Q537.4535522460938 426.12530517578125 534.7596435546875 427.0068359375Z" fill="#d22f27" />
<path d="M73 37Q73 18 92 18H1228Q1247 18 1247 37V733Q1247 752 1228 752H92Q73 752 73 733ZM110 715H1210V55H110Z" fill="#000000" />
</g></svg>