<svg xmlns="http://www.w3.org/2000/svg" viewBox="0 0 2048 2048">
<g transform="matrix(1 0 0 -1 0 2048)">
<path d="M680 839 684 775 654 691 582 516 581 484H748L764 473L779 461L1021 451L1068 424L1065 361L1043 322L1089 300L1106 250L1071 201L1042 189L1071 134L1056 91L1031 60L966 59L979 30L966 -41L922 -69L664 -65L488 -66L251 63L214 270L348 509L626 827Z" fill="#c19a65" />
<path d="M688 850 678 848 621 836 341 515 204 272 242 57 485 -75H664L924 -79L974 -46L989 31L980 50L1036 51L1064 86L1081 134L1055 184L1077 193L1116 248L1097 307L1056 326L1074 359L1077 429L1023 460L783 470L769 480L751 493H590L591 514L662 688L694 774ZM672 828 675 777 645 695 573 518 571 475H745L758 465L776 452L1018 442L1058 419L1056 364L1031 317L1082 294L1096 251L1065 208L1029 193L1061 133L1048 95L1027 69L951 68L970 29L957 -35L919 -60L664 -56L490 -57L259 69L224 268L356 504L631 819Z" fill="#c19a65" />
<path d="M646 -66Q664 -66 664 -48Q664 -29 646 -29H481Q376 -29 309 45Q243 118 243 227Q243 357 330 453Q342 467 328 479Q321 485 315 485Q308 485 302 478Q207 371 206 227Q206 104 282 20Q360 -66 481 -66Z" fill="#000000" />
<path d="M635 447Q653 447 653 466Q653 484 635 484H581L700 789Q708 811 696 832Q685 849 663 856Q613 872 577 825L302 477Q290 463 305 451Q319 440 330 454L605 803Q626 829 652 821Q661 818 665 812Q668 808 666 802L537 472Q536 469 536 466Q536 447 554 447Z" fill="#000000" />
<path d="M668 400Q671 364 698 341Q725 317 760 319H997Q1030 315 1057 335Q1085 356 1089 390Q1094 425 1073 452Q1052 479 1018 484Q1007 485 997 484H760Q725 486 698 462Q671 439 668 403Q668 401 668 400ZM705 401Q709 450 759 447Q759 447 760 447H998Q999 447 1001 447Q1007 448 1013 447Q1059 441 1053 395Q1047 349 1001 356Q999 356 998 356H760Q759 356 759 356Q709 353 705 401Z" fill="#000000" />
<path d="M684 9Q687 -27 714 -51Q741 -74 776 -72H903Q936 -76 963 -56Q990 -35 995 -1Q999 33 978 61Q958 88 923 93Q913 94 903 93H776Q741 95 714 71Q687 48 684 12Q684 10 684 9ZM721 10Q725 59 775 56Q775 56 776 56H904Q905 56 906 56Q912 57 919 56Q965 50 958 4Q952 -42 906 -36Q905 -36 904 -36H776Q775 -36 775 -36Q725 -38 721 10Z" fill="#000000" />
<path d="M591 266Q594 230 621 206Q648 183 683 184H1030Q1063 180 1090 201Q1117 222 1122 256Q1126 290 1106 317Q1085 345 1051 349Q1040 351 1030 349H683Q648 351 621 328Q594 304 591 268Q591 267 591 266ZM628 267Q632 316 682 313Q682 313 683 313H1031Q1032 313 1033 313Q1040 314 1046 313Q1092 307 1086 261Q1079 215 1033 221Q1032 221 1031 221H683Q682 221 682 221Q632 218 628 267Z" fill="#000000" />
<path d="M628 137Q630 101 657 78Q684 54 720 56H993Q1027 52 1053 73Q1081 94 1085 128Q1090 162 1069 189Q1048 216 1014 221Q1004 222 993 221H720Q684 223 657 200Q630 176 628 140Q628 139 628 137ZM664 139Q669 187 718 185Q719 184 719 184H994Q996 184 997 185Q1003 185 1009 185Q1028 182 1040 167Q1051 152 1049 133Q1043 87 997 93Q996 93 994 93H719Q719 93 718 93Q669 90 664 139Z" fill="#000000" />
<path d="M276 372 243 388Q208 316 206 237V236Q206 104 277 23Q356 -66 502 -66V-29Q372 -29 304 48Q243 118 243 236Q245 308 276 372Z" fill="#000000" />
</g></svg>