<svg xmlns="http://www.w3.org/2000/svg" viewBox="0 0 2048 2048">
<g transform="matrix(1 0 0 -1 0 2048)">
<path d="M91.5877685546875 733.1798706054688V36.51513671875H1228.2723388671875V733.1798706054688Z" fill="#1e50a0" />
<path d="M275 733 660 385 92 733Z" fill="#f1b31c" />
<path d="M275 743H92Q83 743 83 733Q83 728 87 726L655 377Q663 372 668 380Q672 387 666 392L281 740Q279 743 275 743ZM271 724 581 444 124 724Z" fill="#f1b31c" />
<path d="M1045.0 733.0 660.0 385.0 1228.0 733.0Z" fill="#f1b31c" />
<path d="M1045 743Q1041 743 1039 740L654 392Q648 387 652 380Q657 372 665 377L1233 726Q1238 728 1238 733Q1238 743 1228 743ZM1049 724H1196L739 444Z" fill="#f1b31c" />
<path d="M1228 330 660 385 1228 440Z" fill="#f1b31c" />
<path d="M1238 330V440Q1238 449 1228 449Q1228 449 1227 449L659 394Q650 393 651 384Q652 377 659 376L1227 321Q1232 320 1235 323Q1237 325 1237 329Q1238 330 1238 330ZM1219 340 755 385 1219 430Z" fill="#f1b31c" />
<path d="M92.0 330.0 660.0 385.0 92.0 440.0Z" fill="#f1b31c" />
<path d="M83 330Q83 330 83 329Q83 320 93 321L661 376Q668 377 669 384Q670 393 661 394L93 449Q92 449 92 449Q83 449 83 440ZM101 340V430L565 385Z" fill="#f1b31c" />
<path d="M605.0 732.65966796875 660.0 384.52392578125 715.0 732.65966796875Z" fill="#f1b31c" />
<path d="M605 743Q604 743 604 742Q595 741 596 732L651 384Q652 377 659 376Q668 375 669 384L724 732Q724 733 724 733Q724 743 715 743ZM616 724H704L660 444Z" fill="#f1b31c" />
<path d="M660 385 92 37H1228Z" fill="#d22f27" />
<path d="M73 37Q73 18 92 18H1228Q1247 18 1247 37V733Q1247 752 1228 752H92Q73 752 73 733ZM110 715H1210V55H110Z" fill="#000000" />
</g></svg>