<svg xmlns="http://www.w3.org/2000/svg" viewBox="0 0 2048 2048">
<g transform="matrix(1 0 0 -1 0 2048)">
<path d="M849 346Q877 346 893.0 383.5Q909 421 916.0 480.0Q923 539 923 603Q923 658 893.0 708.5Q863 759 806.0 791.0Q749 823 666 823Q584 823 526.5 791.0Q469 759 439.0 708.5Q409 658 409 603Q409 539 416.0 480.0Q423 421 439.0 383.5Q455 346 483 346Z" fill="#000000" />
<path d="M462 475Q464 504 461.0 519.0Q458 534 460.0 546.5Q462 559 479 583Q534 595 572.0 614.5Q610 634 644.5 658.5Q679 683 726 710Q726 710 740.5 694.5Q755 679 776.0 653.5Q797 628 818.0 597.0Q839 566 853.0 534.0Q867 502 867 475Q867 402 843.5 343.5Q820 285 774.5 251.5Q729 218 664 218Q600 218 554.5 251.5Q509 285 485.0 343.5Q461 402 462 475Z" fill="#6a462f" />
<path d="M312 -72H1008V-2Q1008 44 981.5 81.5Q955 119 913.0 141.0Q871 163 825 163Q660 26 495 163Q449 163 407.0 141.0Q365 119 338.5 81.5Q312 44 312 -2Z" fill="#3f3f3f" />
<path d="M864 -72H464Q475 -39 489.5 -4.5Q504 30 523.0 60.0Q542 90 565 106H765Q787 90 805.5 60.0Q824 30 838.5 -4.5Q853 -39 864 -72Z" fill="#ea5a47" />
<path d="M757 -73H565Q558 -61 551.0 -47.5Q544 -34 537 -22Q553 -20 565 -9Q571 -4 574 4Q577 9 578 15H660H743Q744 0 755 -9Q767 -20 783 -22Q771 -48 757 -73Z" fill="#fcea2b" />
<path d="M464 508 462 479Q500 480 532 458Q551 442 575.5 434.0Q600 426 634 451Q647 460 662 462Q677 459 689 451Q724 426 748.5 434.0Q773 442 792 458Q823 480 862 479L864 508Q825 507 794 528Q775 544 750.5 552.0Q726 560 691 535Q679 526 664 524Q649 527 636 535Q602 560 577.5 552.0Q553 544 534 528Q502 506 464 508Z" fill="#ea5a47" />
<path d="M411 -2Q422 46 455.5 83.0Q489 120 535 136Z" fill="#3f3f3f" />
<path d="M913 -7Q902 41 868.5 77.5Q835 114 788 130Z" fill="#3f3f3f" />
<path d="M363 74Q352 59 366 48Q381 37 392 51Q420 87 459 108Q486 121 515 127Q524 128 528 134Q531 139 530 148Q526 166 508 163Q474 156 443 141H442Q396 115 363 74Z" fill="#000000" />
<path d="M541 118Q559 124 553 142Q547 159 529 153Q420 115 393 2Q391 -7 394 -12Q398 -18 406 -20Q424 -24 429 -6Q451 87 541 118Z" fill="#000000" />
<path d="M933 47Q945 33 959 44Q974 55 962 70Q930 112 883 137Q851 153 817 159Q799 163 796 145Q793 127 811 123Q840 118 866 105Q906 83 933 47Z" fill="#000000" />
<path d="M794 148Q777 153 771 136Q765 119 782 113Q873 82 895 -12Q899 -29 917 -25Q935 -21 931 -3Q904 110 794 148Z" fill="#000000" />
<path d="M563 104Q569 111 569 117Q570 124 563 130Q550 143 537 130Q484 78 454 9Q442 -19 435 -49Q431 -67 449 -71Q467 -75 471 -57Q477 -31 488 -6V-5Q515 57 563 104Z" fill="#000000" />
<path d="M293 -53Q293 -71 312 -71Q330 -71 330 -53V2Q330 61 381 105Q429 146 489 149Q660 10 831 149Q891 146 939 105Q990 61 990 2V-53Q990 -71 1008 -71Q1027 -71 1027 -53V2Q1027 78 963 133Q902 185 825 185Q818 185 813 181Q660 53 507 181Q502 185 495 185Q418 185 357 133Q293 78 293 2Z" fill="#000000" />
<path d="M791 130Q779 143 765 131Q751 119 764 105Q809 55 838 -6Q851 -32 859 -58Q864 -76 882 -71Q899 -65 894 -48Q885 -18 871 10Q840 75 791 130Z" fill="#000000" />
<path d="M554 -53Q558 -61 564 -63Q571 -64 579 -60Q595 -52 586 -35L578 -19Q594 -9 602 9H718Q725 -11 743 -21Q739 -27 736 -33Q727 -49 742 -58Q758 -67 767 -51Q788 -16 788 -9Q788 7 772 9Q753 11 752 29Q750 46 733 46H589Q574 46 571 31Q567 13 548 9Q546 8 543 7Q527 -1 536 -18Z" fill="#000000" />
<path d="M465 526Q447 527 446 509L444 480Q444 479 444 478Q444 460 463 460Q494 461 521 444Q583 391 645 436Q653 442 662 443Q671 441 679 436Q741 391 803 444Q829 461 861 460Q879 459 880 477L882 507Q882 508 882 508Q881 527 863 526Q831 525 805 543Q743 595 680 550Q673 545 664 543Q655 545 647 550Q584 595 522 543Q496 525 465 526ZM499 493Q523 498 544 513Q545 513 545 514Q586 549 625 520Q626 520 626 520Q642 510 660 506Q663 506 666 506Q686 509 702 520Q741 549 782 514Q783 513 784 513Q804 499 826 493Q803 488 782 473Q781 473 780 472Q739 437 700 466Q700 466 699 466Q684 477 665 480Q662 481 659 480Q640 477 624 466Q584 437 544 472Q543 473 542 474Q522 487 499 493Z" fill="#000000" />
<path d="M482 310Q501 310 501 328Q501 347 482 347Q448 347 436 403Q427 445 427 567Q427 667 482 731Q546 805 666 805Q785 805 849 731Q904 667 904 567Q904 445 895 403Q883 347 849 347Q831 347 831 328Q831 310 849 310Q913 310 931 395Q941 441 941 567Q941 680 876 755Q802 842 666 842Q529 842 455 755Q391 680 391 567Q391 441 400 395Q418 310 482 310Z" fill="#000000" />
<path d="M774 493Q774 508 763.0 519.0Q752 530 737 530Q722 530 711.0 519.0Q700 508 700 493Q700 478 711.0 467.0Q722 456 737 456Q752 456 763.0 467.0Q774 478 774 493Z" fill="#000000" />
<path d="M627 493Q627 508 616.0 519.0Q605 530 590 530Q575 530 564.0 519.0Q553 508 553 493Q553 478 564.0 467.0Q575 456 590 456Q605 456 616.0 467.0Q627 478 627 493Z" fill="#000000" />
<path d="M444 475Q444 348 507 273Q568 200 664 200Q757 200 820 273Q886 349 886 475Q886 526 866 574Q864 577 862 579Q808 634 735 725Q724 739 710 728Q698 719 677 703Q568 618 479 603Q474 602 470 598Q444 575 444 475ZM480 475Q480 550 492 568Q587 586 699 674Q710 682 717 688Q783 607 833 556Q849 517 849 475Q849 363 792 297Q741 237 664 237Q585 237 535 296Q480 362 480 475Z" fill="#000000" />
<path d="M619 363Q602 371 594 355Q586 338 602 330Q666 298 729 330Q745 338 737 355Q729 371 712 363Q666 339 619 363Z" fill="#000000" />
</g></svg>