<svg xmlns="http://www.w3.org/2000/svg" viewBox="0 0 2048 2048">
<g transform="matrix(1 0 0 -1 0 2048)">
<path d="M1008 -73V-14Q1008 36 981.5 76.5Q955 117 913.0 141.0Q871 165 825 165Q660 16 495 165Q449 165 407.0 141.0Q365 117 338.5 76.5Q312 36 312 -14V-73Z" fill="#92d3f5" />
<path d="M820 617 769 663Q741 684 710 699Q689 712 670.0 714.0Q651 716 621 699Q591 683 564 661L508 611Q505 601 501.0 580.5Q497 560 491.5 536.5Q486 513 477 495Q457 461 457 422Q457 387 473.0 351.5Q489 316 516.5 286.5Q544 257 580.5 238.5Q617 220 659 220Q700 220 736.5 238.5Q773 257 801.0 286.5Q829 316 845.5 351.5Q862 387 862 422Q857 470 836 512Q816 563 820 617Z" fill="#c19a65" />
<path d="M898 954V807Q852 793 825 752Q816 740 802.0 715.0Q788 690 773.5 664.5Q759 639 752 624Q743 606 750.0 593.0Q757 580 772.0 580.0Q787 580 800 602Q824 646 862 679Q862 679 870.0 660.5Q878 642 889.0 610.5Q900 579 908.5 539.5Q917 500 917 459Q917 459 931.5 462.0Q946 465 963.5 480.5Q981 496 990 532V752Q990 752 993.0 775.5Q996 799 999.5 832.5Q1003 866 1005.5 899.5Q1008 933 1008 954Z" fill="#c19a65" />
<path d="M422.0 954.0V807.0Q468.0 793.0 495.0 752.0Q504.0 740.0 518.0 715.0Q532.0 690.0 546.5 664.5Q561.0 639.0 568.0 624.0Q577.0 606.0 570.0 593.0Q563.0 580.0 548.0 580.0Q533.0 580.0 520.0 602.0Q496.0 646.0 458.0 679.0Q458.0 679.0 450.0 660.5Q442.0 642.0 431.0 610.5Q420.0 579.0 411.5 539.5Q403.0 500.0 403.0 459.0Q403.0 459.0 388.5 462.0Q374.0 465.0 356.5 480.5Q339.0 496.0 330.0 532.0V752.0Q330.0 752.0 327.0 775.5Q324.0 799.0 320.5 832.5Q317.0 866.0 314.5 899.5Q312.0 933.0 312.0 954.0Z" fill="#c19a65" />
<path d="M856 432 851 330Q867 336 878.5 356.5Q890 377 898.5 404.5Q907 432 917 458Q913 539 889 617Q889 617 887.5 630.5Q886 644 884.5 657.0Q883 670 883 669Q882 669 869.0 659.0Q856 649 836.5 636.0Q817 623 797.0 614.0Q777 605 762 608Q751 609 755.5 627.5Q760 646 773.5 672.0Q787 698 802.5 724.0Q818 750 829.5 767.0Q841 784 841 784Q803 813 775.5 823.5Q748 834 721.5 834.5Q695 835 659 835Q624 835 595.0 833.5Q566 832 538.5 821.5Q511 811 482 785Q482 785 492.5 768.0Q503 751 517.5 726.0Q532 701 545.0 676.0Q558 651 564.0 633.5Q570 616 562 616Q562 616 555.5 613.0Q549 610 535.5 612.0Q522 614 499.5 626.5Q477 639 446 671L440 642Q406 553 403 458Q407 406 424.0 378.0Q441 350 457 342L487 511Q487 511 490.5 527.5Q494 544 500.5 565.0Q507 586 518 598L584 619L578 660Q578 660 594.0 668.5Q610 677 629.5 686.0Q649 695 659 697Q667 698 682.0 692.5Q697 687 712.5 679.0Q728 671 738.5 665.0Q749 659 747 658V602L800 600Q818 568 829 532Z" fill="#6a462f" />
<path d="M768.0570068359375 495.43743896484375Q768.0570068359375 510.8302001953125 757.2820739746094 521.6051330566406Q746.5071411132812 532.3800659179688 731.1143798828125 532.3800659179688Q715.7216186523438 532.3800659179688 704.9466857910156 521.6051330566406Q694.1717529296875 510.8302001953125 694.1717529296875 495.43743896484375Q694.1717529296875 480.044677734375 704.9466857910156 469.2697448730469Q715.7216186523438 458.49481201171875 731.1143798828125 458.49481201171875Q746.5071411132812 458.49481201171875 757.2820739746094 469.2697448730469Q768.0570068359375 480.044677734375 768.0570068359375 495.43743896484375Z" fill="#000000" />
<path d="M621.0570068359375 495.43743896484375Q621.0570068359375 510.8302001953125 610.2820739746094 521.6051330566406Q599.5071411132812 532.3800659179688 584.1143798828125 532.3800659179688Q568.7216186523438 532.3800659179688 557.9466857910156 521.6051330566406Q547.1717529296875 510.8302001953125 547.1717529296875 495.43743896484375Q547.1717529296875 480.044677734375 557.9466857910156 469.2697448730469Q568.7216186523438 458.49481201171875 584.1143798828125 458.49481201171875Q599.5071411132812 458.49481201171875 610.2820739746094 469.2697448730469Q621.0570068359375 480.044677734375 621.0570068359375 495.43743896484375Z" fill="#000000" />
<path d="M939 459Q941 477 922 478Q913 479 908 475Q903 470 903 461Q895 348 843 348Q825 348 825 330Q825 312 843 312Q929 312 939 459Z" fill="#000000" />
<path d="M527 816Q510 809 518 792Q522 784 528 781Q534 779 542 783Q598 808 660 807Q660 807 660 807Q719 808 774 785Q782 781 788 784Q794 786 798 794Q805 811 788 818Q727 845 660 843Q590 845 527 816Z" fill="#000000" />
<path d="M477 312Q495 312 495 330Q495 348 477 348Q448 348 434 392Q424 425 422 460Q421 478 402 477Q393 476 389 471Q384 467 385 457Q387 418 399 381Q399 380 399 380Q422 312 477 312Z" fill="#000000" />
<path d="M293 -55Q293 -73 312 -73Q330 -73 330 -55V0Q330 59 381 103Q429 145 488 147Q660 8 831 147Q891 145 939 103Q990 59 990 0V-55Q990 -73 1008 -73Q1027 -73 1027 -55V0Q1027 76 963 131Q902 183 825 183Q818 183 813 179Q660 51 507 179Q502 183 495 183Q418 183 357 131Q293 76 293 0Z" fill="#000000" />
<path d="M768.0570068359375 495.43743896484375Q768.0570068359375 510.8302001953125 757.2820739746094 521.6051330566406Q746.5071411132812 532.3800659179688 731.1143798828125 532.3800659179688Q715.7216186523438 532.3800659179688 704.9466857910156 521.6051330566406Q694.1717529296875 510.8302001953125 694.1717529296875 495.43743896484375Q694.1717529296875 480.044677734375 704.9466857910156 469.2697448730469Q715.7216186523438 458.49481201171875 731.1143798828125 458.49481201171875Q746.5071411132812 458.49481201171875 757.2820739746094 469.2697448730469Q768.0570068359375 480.044677734375 768.0570068359375 495.43743896484375Z" fill="#000000" />
<path d="M621.0570068359375 495.43743896484375Q621.0570068359375 510.8302001953125 610.2820739746094 521.6051330566406Q599.5071411132812 532.3800659179688 584.1143798828125 532.3800659179688Q568.7216186523438 532.3800659179688 557.9466857910156 521.6051330566406Q547.1717529296875 510.8302001953125 547.1717529296875 495.43743896484375Q547.1717529296875 480.044677734375 557.9466857910156 469.2697448730469Q568.7216186523438 458.49481201171875 584.1143798828125 458.49481201171875Q599.5071411132812 458.49481201171875 610.2820739746094 469.2697448730469Q621.0570068359375 480.044677734375 621.0570068359375 495.43743896484375Z" fill="#000000" />
<path d="M664 697Q682 701 678 719Q674 737 656 733Q630 727 607 716Q598 712 596 706Q594 699 598 691Q607 675 623 683Q642 693 664 697Z" fill="#000000" />
<path d="M494 544Q499 562 481 566Q463 570 459 552Q443 489 439 423Q439 422 439 422Q439 342 503 274Q571 202 659 202Q746 202 814 274Q880 343 880 422Q880 422 880 423Q877 488 861 553Q859 561 853 565Q848 568 839 566Q821 562 826 544Q840 483 843 421Q843 357 788 299Q730 238 659 238Q587 238 530 299Q476 357 476 421Q480 483 494 544Z" fill="#000000" />
<path d="M613 365Q597 373 589 357Q580 340 596 332Q660 299 723 332Q740 340 731 357Q723 373 706 365Q660 341 613 365Z" fill="#000000" />
<path d="M330 935Q330 953 312 953Q293 953 293 935Q293 879 312 750V532Q312 530 312 527Q334 440 403 440Q422 440 422 458Q422 553 464 647L519 592Q545 566 575 588Q604 610 585 650Q584 651 584 651Q550 709 510 762Q483 802 440 820V935Q440 953 422 953Q403 953 403 935V807Q403 793 416 789Q456 777 480 742Q480 741 480 741Q519 689 552 633Q558 621 553 617Q548 614 545 618L471 691Q469 694 467 695Q458 699 452 697Q446 695 442 687Q390 584 386 480Q360 491 348 534V752Q348 753 348 754Q330 881 330 935Z" fill="#000000" />
<path d="M1032 935Q1032 953 1013 953Q995 953 995 935Q995 881 977 754Q977 753 977 752V534Q965 491 939 480Q935 584 883 687Q875 703 858 695Q856 694 854 691L780 618Q777 614 772 617Q767 621 773 633Q806 689 845 741Q845 741 845 742Q869 777 909 789Q922 793 922 807V935Q922 953 903 953Q885 953 885 935V820Q842 802 815 762Q775 709 741 651Q741 651 740 650Q721 610 750 588Q780 566 806 592L861 647Q903 553 903 458Q903 440 922 440Q991 440 1013 527Q1013 530 1013 532V750Q1032 879 1032 935Z" fill="#000000" />
<path d="M662 733Q653 734 648 730Q643 726 642 717Q640 699 658 697Q677 695 695 686Q703 682 709 685Q715 687 719 695Q727 712 711 719Q688 730 662 733Z" fill="#000000" />
</g></svg>