<svg xmlns="http://www.w3.org/2000/svg" viewBox="0 0 2048 2048">
<g transform="matrix(1 0 0 -1 0 2048)">
<path d="M621 -44Q666 -74 708.0 -79.5Q750 -85 788.0 -75.0Q826 -65 857.5 -46.0Q889 -27 912.0 -7.0Q935 13 948.0 27.5Q961 42 961 42L813 111Z" fill="#e67a94" />
<path d="M492 98 581 -10Q610 -22 624.0 -23.5Q638 -25 642.5 -21.0Q647 -17 646.5 -12.5Q646 -8 646 -8Q673 -17 687.0 -12.0Q701 -7 707.0 6.0Q713 19 713.0 33.5Q713 48 711.0 59.0Q709 70 709 70Q738 62 758.5 70.0Q779 78 792.0 91.0Q805 104 811.0 115.5Q817 127 817 127L742 222Q747 201 737.0 191.0Q727 181 710.0 178.0Q693 175 675.0 176.0Q657 177 644.0 179.0Q631 181 631 181Q625 157 615.0 151.0Q605 145 593.5 149.0Q582 153 570.5 159.0Q559 165 551.0 165.0Q543 165 541 151Q538 131 525.0 116.5Q512 102 492 98Z" fill="#ffa7c0" />
<path d="M725 83Q716 99 700 90Q684 81 693 65Q709 37 683 18Q658 -2 635 21Q622 34 609 21Q596 8 609 -5Q654 -50 705 -11Q756 27 725 83Z" fill="#ffa7c0" />
<path d="M812 149Q803 165 787 156Q771 147 780 131Q796 103 770 84Q745 65 722 87Q709 100 696 87Q683 74 696 61Q741 16 792 55Q843 93 812 149Z" fill="#ffa7c0" />
<path d="M570 147Q565 165 548 160Q530 155 535 138Q543 109 523 103Q521 102 520 102Q517 107 512 126Q511 131 510 134Q505 152 487 147Q479 144 475 139Q472 133 475 124Q475 122 477 116Q483 91 490 81Q506 59 534 68Q588 84 570 147Z" fill="#e67a94" />
<path d="M669 175Q665 193 647 189Q629 186 633 168Q640 138 610 129Q581 120 570 149Q563 166 546 160Q537 156 535 150Q532 144 535 136Q558 75 620 94Q682 112 669 175Z" fill="#e67a94" />
<path d="M768 204Q764 222 746 219Q728 215 732 197Q738 167 709 158Q679 149 668 178Q662 195 645 189Q627 182 634 165Q657 105 719 123Q781 141 768 204Z" fill="#e67a94" />
<path d="M434 263 470 120Q500 93 517.5 92.0Q535 91 543.0 103.5Q551 116 553.5 128.5Q556 141 556 141Q582 117 600.5 116.5Q619 116 631.0 127.5Q643 139 648.5 150.5Q654 162 654 162Q677 144 696.5 146.0Q716 148 730.0 159.5Q744 171 751.5 182.5Q759 194 759 194L723 286Q718 261 702.5 253.0Q687 245 668.5 247.5Q650 250 636.5 255.0Q623 260 623 260Q607 241 589.0 238.5Q571 236 552.5 242.5Q534 249 517.0 256.5Q500 264 486.0 266.0Q472 268 464 257Q453 242 447.0 240.5Q441 239 438.0 244.5Q435 250 434.5 256.5Q434 263 434 263Z" fill="#e67a94" />
<path d="M1086 241Q1077 245 1059.5 230.5Q1042 216 1023.0 191.0Q1004 166 989.5 140.0Q975 114 971.5 94.5Q968 75 982 71Q996 68 1014.0 82.5Q1032 97 1049.5 121.0Q1067 145 1079.0 171.0Q1091 197 1094.0 216.5Q1097 236 1086 241Z" fill="#ffa7c0" />
<path d="M986 57Q992 44 1014.5 39.5Q1037 35 1067.0 36.5Q1097 38 1124.5 45.0Q1152 52 1169.0 62.0Q1186 72 1183 84Q1180 94 1157.5 98.0Q1135 102 1104.0 101.0Q1073 100 1043.5 94.5Q1014 89 996.5 79.5Q979 70 986 57Z" fill="#ffa7c0" />
<path d="M443 253 710 262Q710 262 710.0 275.0Q710 288 712.0 302.0Q714 316 720.0 321.0Q726 326 738 309Q744 286 762.5 280.0Q781 274 797.5 280.5Q814 287 814 301Q812 316 804 329Q793 347 784.0 382.0Q775 417 764 462Q753 511 731.5 537.0Q710 563 692.0 573.5Q674 584 674 584L447 572Q406 516 372.5 484.5Q339 453 315.5 439.5Q292 426 279.0 423.0Q266 420 266 420L269 365Q295 362 321.0 373.5Q347 385 370.5 404.0Q394 423 412.5 443.0Q431 463 441.5 477.0Q452 491 452 491Z" fill="#6a462f" />
<path d="M664 728Q664 753 651.0 776.5Q638 800 618.0 810.0Q598 820 580 804Q570 795 561.5 780.5Q553 766 540.0 752.0Q527 738 503 730Q486 724 488.0 710.0Q490 696 504.5 680.0Q519 664 539.0 652.5Q559 641 577 641Q613 641 638.5 666.5Q664 692 664 728Z" fill="#6a462f" />
<path d="M434 432 454 182Q454 182 440.5 182.0Q427 182 410.0 188.5Q393 195 379.5 215.0Q366 235 367 275Q361 301 370.0 329.0Q379 357 394.5 380.0Q410 403 422.0 417.5Q434 432 434 432Z" fill="#000000" />
<path d="M455 584 569 647 482 720Q500 718 521.0 730.5Q542 743 560.5 761.5Q579 780 591.0 794.0Q603 808 603 808Q645 783 655.5 759.5Q666 736 657.0 715.5Q648 695 631.0 680.0Q614 665 599.0 656.5Q584 648 584 648L684 589L700 682Q700 682 702.0 703.5Q704 725 702.0 756.5Q700 788 688.5 819.0Q677 850 650.5 871.0Q624 892 577 891Q530 890 501.5 872.0Q473 854 458.5 827.0Q444 800 440.5 771.0Q437 742 440.0 718.0Q443 694 449 683Q458 664 459.0 640.5Q460 617 457.5 600.5Q455 584 455 584Z" fill="#000000" />
<path d="M435 579H708L706 644L436 642Z" fill="#000000" />
<path d="M273 433Q256 427 262 410Q265 401 271 399Q277 396 285 399Q362 426 417 512Q449 563 479 563H662Q701 563 728 498Q747 454 773 329Q777 308 779 298Q783 280 801 284Q819 287 815 305Q813 316 809 337Q782 465 762 513Q726 599 662 599H479Q429 599 386 532Q338 456 273 433Z" fill="#000000" />
<path d="M472 474Q473 493 454 493Q436 494 435 476L428 294Q430 75 611 -47Q651 -81 718 -84Q851 -89 991 56Q1004 69 991 82Q978 94 965 81Q836 -52 720 -47Q664 -45 634 -18H633L632 -17Q466 94 465 294Z" fill="#000000" />
<path d="M705.9391479492188 300.26593017578125Q709.3335571289062 282.12750244140625 727.2108764648438 286.91717529296875Q745.9163818359375 291.1397705078125 741.126708984375 309.01708984375L699.8106079101562 479.63494873046875Q695.0209350585938 497.51226806640625 677.1436157226562 492.72259521484375Q668.7720336914062 491.15594482421875 664.802490234375 485.358642578125Q662.2282104492188 479.82244873046875 663.7948608398438 471.45086669921875Z" fill="#000000" />
<path d="M978 48Q996 50 994 68Q992 86 974 84Q863 73 792 188Q769 225 753 271Q748 286 744 299Q741 309 740 313L742 309Q740 318 734 322Q729 325 720 323Q711 321 707 316Q704 311 706 302L708 296L706 298Q707 294 709 290Q713 275 718 259Q735 209 760 169Q843 35 978 48Z" fill="#000000" />
<path d="M256 -116Q256 -134 274 -134Q292 -134 292 -116V838Q292 856 274 856Q256 856 256 838Z" fill="#000000" />
<path d="M182 746Q182 764 164 764Q146 764 146 746Q146 687 182 645Q219 601 272 601Q325 601 362 645Q398 687 398 746L393 837Q392 855 374 854Q364 853 360 849Q356 844 356 835L361 745Q361 700 334 669Q308 638 272 638Q236 638 210 669Q182 700 182 746Z" fill="#000000" />
<path d="M398 746Q398 764 379 764Q361 764 361 746Q361 700 334 669Q308 638 272 638Q236 638 210 669Q183 700 183 745L187 835Q188 853 170 854Q152 855 151 837L146 746Q146 687 182 645Q219 601 272 601Q325 601 362 645Q398 687 398 746Z" fill="#000000" />
<path d="M961 69Q964 51 982 53Q1000 55 998 73Q994 102 1005 136Q1027 204 1098 230Q1116 236 1109 253Q1103 270 1086 264Q997 232 970 147Q957 105 961 69Z" fill="#000000" />
<path d="M1110 249Q1107 267 1089 265Q1071 263 1073 245Q1077 216 1066 182Q1044 114 973 88Q955 82 962 65Q968 47 985 54Q1074 86 1101 171Q1114 213 1110 249Z" fill="#000000" />
<path d="M987 70Q975 56 989 44Q1002 32 1014 45Q1034 67 1067 81Q1132 110 1199 73Q1207 68 1213 70Q1219 72 1224 80Q1232 96 1216 105Q1134 151 1052 115Q1012 97 987 70Z" fill="#000000" />
<path d="M1221 77Q1233 91 1219 103Q1212 109 1206 109Q1199 108 1193 102Q1174 80 1141 66Q1076 37 1009 74Q993 83 984 67Q976 51 992 42Q1074 -4 1156 32Q1196 50 1221 77Z" fill="#000000" />
<path d="M743 297Q743 315 725 315Q706 315 706 297Q706 291 672 280Q628 267 567 267Q510 267 482 279Q465 286 465 295Q465 313 446 313Q428 313 428 295Q428 230 567 230Q743 230 743 297Z" fill="#000000" />
<path d="M578 883Q587 882 592 887Q596 891 597 900Q597 909 593 914Q588 919 579 919Q541 921 502 904Q423 867 421 771Q412 701 430 672Q439 653 436 632Q433 614 451 611Q470 609 472 627Q477 659 463 689L462 690V691Q450 709 457 767V768V769Q459 843 517 870Q548 884 578 883Z" fill="#000000" />
<path d="M670 628Q671 609 690 611Q699 612 703 617Q707 622 706 631Q704 653 714 672Q728 697 723 770Q721 867 642 904Q603 921 565 919Q546 919 547 900Q548 891 552 887Q557 882 566 883Q596 884 627 870Q685 843 687 769V768Q691 705 682 691V690L681 689Q667 660 670 628Z" fill="#000000" />
<path d="M421 353Q430 369 414 378Q406 382 400 381Q394 379 389 371Q329 265 386 206Q393 199 399 199Q406 199 412 206Q425 218 412 232Q374 271 421 353Z" fill="#000000" />
<path d="M583 818Q542 773 508 751Q492 741 490 741Q489 741 488 741Q470 739 472 721Q477 665 543 642Q544 642 544 641Q544 641 544 641Q586 629 624 650Q661 671 673 713Q686 756 657 803Q644 825 626 832Q601 842 583 818ZM611 795Q613 798 613 798Q619 796 626 784Q646 751 638 723Q630 696 606 682Q582 669 555 676Q522 688 512 710Q550 726 610 794Q611 795 611 795Z" fill="#000000" />
</g></svg>