<svg xmlns="http://www.w3.org/2000/svg" viewBox="0 0 2048 2048">
<g transform="matrix(1 0 0 -1 0 2048)">
<path d="M91.5877685546875 733.1798706054688V36.51513671875H1228.2723388671875V733.1798706054688Z" fill="#5c9e31" />
<path d="M91.5877685546875 733.1392211914062V494.77978515625H1228.2723388671875V733.1392211914062Z" fill="#e27022" />
<path d="M91.5877685546875 495.00164794921875V274.94873046875H1228.2723388671875V495.00164794921875Z" fill="#ffffff" />
<path d="M627 418 600 430Q593 433 589 427Q584 420 591 414L615 397L586 394Q578 393 578 386Q577 377 586 376L615 373L591 356Q585 351 588 345Q590 340 593 339Q596 338 600 340L627 352L615 325Q612 318 618 314Q625 309 631 316L648 340L651 311Q652 303 659 303Q668 302 669 311L672 340L689 316Q694 310 700 313Q705 315 706 318Q707 321 705 325L693 352L720 340Q727 337 731 343Q736 350 729 356L705 373L734 376Q742 377 742 384Q743 393 734 394L705 397L729 414Q735 419 732 425Q730 430 727 431Q724 432 720 430L693 418L705 445Q708 452 702 456Q695 461 689 454L672 430L669 459Q668 467 661 467Q652 468 651 459L648 430L631 454Q626 460 620 457Q615 455 614 452Q613 449 615 445ZM666 396Q667 393 671 392Q670 389 673 385Q671 383 671 379Q668 378 667 374Q664 375 660 372Q658 374 654 374Q653 377 649 378Q650 381 647 385Q649 387 649 391Q652 392 653 396Q656 395 660 398Q662 396 666 396Z" fill="#1e50a0" />
<path d="M761 385Q761 427 731 456Q702 486 660 486Q618 486 589 456Q559 427 559 385Q559 343 589 314Q618 284 660 284Q702 284 731 314Q761 343 761 385ZM743 385Q743 351 718 327Q694 303 660 303Q626 303 602 327Q578 351 578 385Q578 419 602 443Q626 468 660 468Q694 468 718 443Q743 419 743 385Z" fill="#1e50a0" />
<path d="M73 37Q73 18 92 18H1228Q1247 18 1247 37V733Q1247 752 1228 752H92Q73 752 73 733ZM110 715H1210V55H110Z" fill="#000000" />
</g></svg>