<svg xmlns="http://www.w3.org/2000/svg" viewBox="0 0 2048 2048">
<g transform="matrix(1 0 0 -1 0 2048)">
<path d="M765 448 635 469 501 446 447 434 497 559 560 622 649 703 786 638Q780 629 769.5 618.0Q759 607 740 615Q702 637 658 647Q645 648 633.0 635.0Q621 622 614.5 606.5Q608 591 611 584Q615 567 625 552Q635 543 657.5 525.5Q680 508 704.5 490.0Q729 472 747.0 460.0Q765 448 765 448Z" fill="#6a462f" />
<path d="M392.95501708984375 521.052001953125Q392.94915771484375 551.884033203125 366.93170166015625 567.2951049804688Q339.95074462890625 582.7059936523438 313.93914794921875 567.2850341796875Q286.96405029296875 551.8638916015625 287.93341064453125 521.0320434570312Q286.97576904296875 490.1998291015625 313.95672607421875 474.7889404296875Q339.97418212890625 459.37786865234375 366.94927978515625 474.79901123046875Q392.96087646484375 490.219970703125 392.95501708984375 521.052001953125Z" fill="#6a462f" />
<path d="M1189 470V287Q1189 246 1184.5 208.0Q1180 170 1158.5 145.5Q1137 121 1086 121H193Q157 121 133.0 139.5Q109 158 95.5 184.0Q82 210 76.5 233.5Q71 257 71 266V470Q91 470 122.0 462.0Q153 454 191.0 444.0Q229 434 270.0 426.0Q311 418 351 418Q403 418 446.5 431.0Q490 444 534.0 457.0Q578 470 630 470Q683 470 730.0 457.0Q777 444 821.5 431.0Q866 418 910 418Q943 418 971.0 426.0Q999 434 1029.5 444.0Q1060 454 1098.5 462.0Q1137 470 1189 470Z" fill="#92d3f5" />
<path d="M88 489Q70 489 70 470Q70 452 88 452Q107 452 172 433Q286 400 351 400Q406 400 496 427Q580 452 630 452Q682 452 778 425Q866 400 910 400Q952 400 1015 422Q1097 452 1172 452Q1190 452 1190 470Q1190 489 1172 489Q1091 489 1002 457Q945 436 910 436Q871 436 788 460Q688 489 630 489Q575 489 485 462Q400 436 351 436Q292 436 182 468Q113 489 88 489Z" fill="#000000" />
<path d="M811 348Q793 354 787 336Q782 319 799 313Q853 296 909 295Q951 295 1015 317Q1030 323 1038 325Q1055 331 1050 348Q1044 366 1026 360Q1018 357 1003 352Q945 331 910 331Q859 332 811 348Z" fill="#000000" />
<path d="M230 350Q221 352 215 349Q210 346 207 337Q202 320 220 315Q284 296 350 295Q406 295 496 322Q580 347 630 347Q648 347 648 365Q648 384 630 384Q575 384 485 357Q400 331 351 331Q289 333 230 350Z" fill="#000000" />
<path d="M450 226Q442 223 438 218Q435 212 438 203Q443 186 460 190Q472 194 494 200Q580 226 630 226Q684 226 782 198Q818 188 836 183Q853 179 858 197Q862 215 844 219Q827 223 792 233Q689 263 630 263Q574 263 483 236Q461 229 450 226Z" fill="#000000" />
<path d="M413 521Q413 594 340 594Q303 594 285 576Q267 558 267 521Q267 491 288 469Q310 448 340 448Q413 448 413 521ZM377 521Q377 484 340 484Q325 484 314 495Q303 506 303 521Q303 539 313 548Q322 558 340 558Q377 558 377 521Z" fill="#000000" />
<path d="M438 441Q432 424 450 418Q458 415 464 418Q470 421 473 430Q477 443 484 470Q503 544 538 580Q547 588 566 610Q629 679 648 679Q678 679 761 629Q768 625 775 626Q781 628 786 636Q795 651 779 661Q688 716 648 716Q613 716 539 634Q520 614 512 606Q469 563 449 479Q442 454 438 441Z" fill="#000000" />
<path d="M742 438Q756 427 767 442Q778 456 764 467Q672 536 640 556Q614 572 613 577Q612 587 607 590Q602 594 593 593Q575 591 577 573Q580 550 621 525Q651 506 742 438Z" fill="#000000" />
</g></svg>