<svg xmlns="http://www.w3.org/2000/svg" viewBox="0 0 2048 2048">
<g transform="matrix(1 0 0 -1 0 2048)">
<path d="M843 348Q871 348 887.0 385.5Q903 423 910.0 482.0Q917 541 917 605Q917 660 887.0 710.5Q857 761 800.0 793.0Q743 825 660 825Q578 825 520.5 793.0Q463 761 433.0 710.5Q403 660 403 605Q403 541 410.0 482.0Q417 423 433.0 385.5Q449 348 477 348Z" fill="#e27022" />
<path d="M457 486Q459 530 473.0 572.5Q487 615 513 651Q555 637 585.5 638.0Q616 639 646.0 646.5Q676 654 714.0 661.5Q752 669 807 669Q807 669 815.0 653.5Q823 638 834.0 612.0Q845 586 853.5 553.0Q862 520 862 486Q862 412 838.0 354.0Q814 296 768.5 262.5Q723 229 658 229Q595 229 549.5 262.5Q504 296 480.0 354.0Q456 412 457 486Z" fill="#fcea2b" />
<path d="M1008 -73V0Q1008 46 981.5 83.5Q955 121 913.0 143.0Q871 165 825 165Q660 27 495 165Q449 165 407.0 143.0Q365 121 338.5 83.5Q312 46 312 0V-73Z" fill="#92d3f5" />
<path d="M768 495Q768 510 757.5 521.0Q747 532 732 532Q717 532 706.0 521.0Q695 510 695 495Q695 480 706.0 469.0Q717 458 732 458Q747 458 757.5 469.0Q768 480 768 495Z" fill="#000000" />
<path d="M621 495Q621 510 610.5 521.0Q600 532 585 532Q570 532 559.0 521.0Q548 510 548 495Q548 480 559.0 469.0Q570 458 585 458Q600 458 610.5 469.0Q621 480 621 495Z" fill="#000000" />
<path d="M610 362Q593 369 586 352Q579 335 596 328Q658 302 720 328Q737 335 730 352Q723 369 706 362Q658 341 610 362Z" fill="#000000" />
<path d="M477 330Q495 330 495 348Q495 367 477 367Q422 367 422 605Q422 685 482 743Q550 807 660 807Q770 807 838 743Q898 685 898 605Q898 367 843 367Q825 367 825 348Q825 330 843 330Q935 330 935 605Q935 701 863 770Q785 843 660 843Q535 843 457 770Q385 701 385 605Q385 330 477 330Z" fill="#000000" />
<path d="M293 -55Q293 -73 312 -73Q330 -73 330 -55V0Q330 59 381 103Q429 144 489 147Q660 8 831 147Q891 144 939 103Q990 59 990 0V-55Q990 -73 1008 -73Q1027 -73 1027 -55V0Q1027 76 963 131Q902 183 825 183Q818 183 813 179Q660 51 507 179Q502 183 495 183Q418 183 357 131Q293 76 293 0Z" fill="#000000" />
<path d="M768 495Q768 510 757.5 521.0Q747 532 732 532Q717 532 706.0 521.0Q695 510 695 495Q695 480 706.0 469.0Q717 458 732 458Q747 458 757.5 469.0Q768 480 768 495Z" fill="#000000" />
<path d="M621 495Q621 510 610.5 521.0Q600 532 585 532Q570 532 559.0 521.0Q548 510 548 495Q548 480 559.0 469.0Q570 458 585 458Q600 458 610.5 469.0Q621 480 621 495Z" fill="#000000" />
<path d="M438 477Q437 361 500 282Q565 202 658 202Q751 202 815 282Q880 362 880 477Q880 573 823 687Q818 697 807 697Q742 697 661 678Q577 658 519 677Q505 682 498 669Q440 574 438 477ZM475 476Q476 557 522 638Q585 622 669 642Q739 658 795 660Q843 560 843 477Q843 375 787 305Q733 238 658 238Q582 238 529 305Q474 374 475 476Z" fill="#000000" />
<path d="M610 362Q593 369 586 352Q579 335 596 328Q658 302 720 328Q737 335 730 352Q723 369 706 362Q658 341 610 362Z" fill="#000000" />
</g></svg>