<svg xmlns="http://www.w3.org/2000/svg" viewBox="0 0 2048 2048">
<g transform="matrix(1 0 0 -1 0 2048)">
<path d="M496 35 398 19 840 44 828 -21Q753 -50 695.0 -71.5Q637 -93 590.0 -104.5Q543 -116 500.5 -115.0Q458 -114 413.0 -98.5Q368 -83 313 -50Q313 -50 311.5 -32.5Q310 -15 311.5 12.0Q313 39 322.0 69.5Q331 100 351.0 127.0Q371 154 406.0 171.5Q441 189 496 189Q540 159 579.5 141.0Q619 123 661 123H659Q701 123 740.5 141.0Q780 159 824 189Q879 189 914.0 171.5Q949 154 969.0 127.0Q989 100 998.0 69.5Q1007 39 1008.5 12.0Q1010 -15 1008.5 -32.5Q1007 -50 1007 -50Q883 -134 733 -125L828 -21L849 71L834 116Z" fill="#ffa7c0" />
<path d="M312 -50Q312 -50 311.0 -32.5Q310 -15 311.5 12.0Q313 39 321.5 69.5Q330 100 350.0 127.0Q370 154 405.5 171.5Q441 189 496 189Q540 159 579.0 141.0Q618 123 661 123H658Q701 123 740.5 141.0Q780 159 823 189Q878 189 913.5 171.5Q949 154 969.0 127.0Q989 100 997.5 69.5Q1006 39 1008.0 12.0Q1010 -15 1008.5 -32.5Q1007 -50 1007 -50Z" fill="#ffa7c0" />
<path d="M829 189Q884 189 919.0 171.5Q954 154 974.0 127.0Q994 100 1003.0 69.5Q1012 39 1013.5 12.0Q1015 -15 1013.5 -32.5Q1012 -50 1012 -50H918Q913 -22 905.5 7.0Q898 36 876.0 61.5Q854 87 804.5 103.5Q755 120 665 123Q756 133 829 189Z" fill="#e67a94" />
<path d="M1012 -50Q1012 0 996.0 27.0Q980 54 955.5 64.5Q931 75 906.5 76.0Q882 77 865.5 74.0Q849 71 849 71L828 -21L632 -104Q673 -132 717.0 -139.0Q761 -146 803.5 -139.5Q846 -133 883.5 -118.5Q921 -104 950.0 -88.0Q979 -72 995.5 -61.0Q1012 -50 1012 -50Z" fill="#e67a94" />
<path d="M868 491Q868 561 840.5 622.0Q813 683 764 718Q716 753 660.0 753.0Q604 753 555 718Q507 683 479.0 622.0Q451 561 452 491Q451 421 479.0 360.0Q507 299 555 264Q604 229 660.0 229.0Q716 229 764 264Q813 299 840.5 360.0Q868 421 868 491Z" fill="#ffa7c0" />
<path d="M828 -21 840 42H747V-55Z" fill="#fcea2b" />
<path d="M665 811Q688 811 704.0 816.5Q720 822 720 830V869Q720 877 704.0 883.0Q688 889 665 889Q643 889 626.5 883.0Q610 877 610 869V830Q610 822 626.5 816.5Q643 811 665 811Z" fill="#fcea2b" />
<path d="M700 678Q685 723 672.5 736.0Q660 749 650.5 741.5Q641 734 634.5 717.0Q628 700 624.5 685.5Q621 671 621 671Q620 655 603.5 648.5Q587 642 563.0 637.5Q539 633 513.5 622.5Q488 612 467.0 588.5Q446 565 436 519Q436 519 430.5 538.5Q425 558 422.0 589.0Q419 620 426.0 655.5Q433 691 457.0 723.5Q481 756 530.0 778.0Q579 800 661 804Q731 808 777.0 792.5Q823 777 849.5 749.0Q876 721 887.5 686.5Q899 652 900.5 617.0Q902 582 898.5 552.5Q895 523 890.5 505.5Q886 488 886 488Q881 534 861.5 563.0Q842 592 816.5 609.5Q791 627 766.0 637.5Q741 648 723.0 656.5Q705 665 700 678Z" fill="#3f3f3f" />
<path d="M744 904Q745 928 705 940Q666 952 627 940Q587 928 588 904Q587 880 627 868Q666 856 705 868Q745 880 744 904Z" fill="#3f3f3f" />
<path d="M658 589Q673 589 683.5 599.5Q694 610 694 626V699Q694 714 683.5 725.0Q673 736 658 736Q643 736 632.0 725.0Q621 714 621 699V626Q621 610 632.0 599.5Q643 589 658 589Z" fill="#fcea2b" />
<path d="M734 -107Q716 -106 715 -124Q714 -142 732 -143Q888 -153 1017 -65Q1024 -60 1025 -52Q1035 11 1015 75Q975 207 824 207Q818 207 814 204Q720 142 660 141Q600 142 506 204Q502 207 496 207Q345 207 304 75Q285 11 295 -52Q296 -61 303 -65Q428 -141 533 -133Q605 -127 792 -55Q820 -44 835 -38Q844 -34 846 -24L858 40Q861 58 843 62Q841 62 838 62L397 37Q379 36 380 18Q380 9 385 4Q390 0 399 0L817 24L812 -8Q799 -13 779 -20Q597 -91 530 -96Q440 -103 330 -38Q324 13 339 64Q371 168 491 170Q588 106 657 105Q658 105 659 105H661Q662 105 663 105Q732 106 829 170Q948 168 980 64Q996 13 990 -39Q874 -115 734 -107Z" fill="#000000" />
<path d="M852 122Q846 139 829 134Q811 128 817 110L830 70L810 -17Q806 -35 824 -39Q842 -43 846 -25L867 67Q868 71 866 76Z" fill="#000000" />
<path d="M769.6845703125 515.6748657226562Q769.6845703125 531.0086669921875 759.017578125 541.6756591796875Q748.3505859375 552.3426513671875 733.0167846679688 552.3426513671875Q717.6829833984375 552.3426513671875 707.0159912109375 541.6756591796875Q696.3489990234375 531.0086669921875 696.3489990234375 515.6748657226562Q696.3489990234375 501.00775146484375 707.0159912109375 490.0074157714844Q717.6829833984375 479.007080078125 733.0167846679688 479.007080078125Q748.3505859375 479.007080078125 759.017578125 490.0074157714844Q769.6845703125 501.00775146484375 769.6845703125 515.6748657226562Z" fill="#000000" />
<path d="M623.6845703125 515.6748657226562Q623.6845703125 531.0086669921875 613.017578125 541.6756591796875Q602.3505859375 552.3426513671875 587.0167846679688 552.3426513671875Q571.6829833984375 552.3426513671875 561.0159912109375 541.6756591796875Q550.3489990234375 531.0086669921875 550.3489990234375 515.6748657226562Q550.3489990234375 501.00775146484375 561.0159912109375 490.0074157714844Q571.6829833984375 479.007080078125 587.0167846679688 479.007080078125Q602.3505859375 479.007080078125 613.017578125 490.0074157714844Q623.6845703125 501.00775146484375 623.6845703125 515.6748657226562Z" fill="#000000" />
<path d="M659 333Q693 333 723 348Q729 352 731.5 359.0Q734 366 731 373Q727 380 720.0 382.5Q713 385 706 381Q659 356 613 381Q606 385 598.5 382.5Q591 380 588 373Q585 366 587.0 359.0Q589 352 596 348Q626 333 659 333Z" fill="#000000" />
<path d="M765.0 37.0Q765.0 55.0 747.0 55.0Q729.0 55.0 729.0 37.0V-50.0Q729.0 -69.0 747.0 -69.0Q765.0 -69.0 765.0 -50.0Z" fill="#000000" />
<path d="M635 655Q640 662 639 668Q639 675 631 680Q617 691 606 677Q588 653 538 642Q445 622 435 526Q433 509 433 491Q433 377 498 296Q565 213 660 213Q754 213 821 296Q886 377 886 491Q886 509 884 528Q884 528 884 529Q866 619 767 649Q721 662 712 681Q707 689 701 691Q695 693 687 688Q671 680 679 664Q696 632 756 614Q834 590 847 523Q849 507 849 491Q849 390 792 318Q737 249 660 249Q582 249 527 318Q470 390 470 491Q470 507 472 523Q477 570 498 588Q510 599 546 607Q609 620 635 655Z" fill="#000000" />
<path d="M715 868Q710 861 711 854Q712 848 720 842Q734 832 745 847Q766 875 766 904Q767 935 743 952Q717 970 665 971Q664 971 663 971Q612 970 587 952Q563 934 564 904Q564 875 585 846Q590 839 597 838Q603 837 610 842Q625 853 614 868Q601 887 600 905Q600 916 609 922Q625 934 665 934Q666 934 667 934Q706 934 721 922Q730 916 730 905Q729 887 715 868Z" fill="#000000" />
<path d="M581 820Q586 803 604 808Q612 811 615 816Q618 822 616 831Q612 843 624 851Q639 861 665 862Q691 863 706 853Q717 845 713 831Q710 822 713 816Q716 811 725 808Q743 803 748 821Q759 860 727 883Q702 899 664 899Q627 898 603 881Q569 857 581 820Z" fill="#000000" />
<path d="M437 455Q441 447 447 445Q453 443 461 447Q478 455 469 471Q396 615 467 708Q531 791 660 791Q679 791 679 809Q679 818 674 823Q670 828 660 828Q513 828 438 730Q352 619 437 455Z" fill="#000000" />
<path d="M861 480Q845 470 855 454Q864 439 880 448Q905 463 918 524Q932 587 918 648Q880 824 664 828Q655 828 651 823Q646 819 646 810Q645 791 664 791Q851 787 883 640Q894 587 882 532Q873 487 861 480Z" fill="#000000" />
<path d="M658 573Q713 573 713 628V702Q713 757 658 757Q635 757 619 741Q603 725 603 702V628Q603 606 619 590Q635 573 658 573ZM658 610Q640 610 640 628V702Q640 720 658 720Q677 720 677 702V628Q677 610 658 610Z" fill="#000000" />
</g></svg>