<svg xmlns="http://www.w3.org/2000/svg" viewBox="0 0 2048 2048">
<g transform="matrix(1 0 0 -1 0 2048)">
<path d="M91.5877685546875 733.1798706054688V36.51513671875H1228.2723388671875V733.1798706054688Z" fill="#1e50a0" />
<path d="M577.6865234375 567.1962890625 637.638671875 612.5625 564.3232421875 612.5087890625 623.0087890625 567.2294921875 600.2939453125 640.5283203125Z" fill="#ffffff" />
<path d="M569 569Q568 565 571 561Q576 554 583 559L600 572L618 559Q621 557 626 558Q635 561 632 569L625 591L643 605Q646 608 646 612Q646 617 644 619Q642 621 637 621H616L609 643Q608 647 603 649Q599 650 596 649Q593 647 592 643L585 621H564Q559 621 556 618Q551 610 558 605L576 591ZM600 596 597 598 599 603H602L604 598Z" fill="#ffffff" />
<path d="M696.6865234375 567.1962890625 756.638671875 612.5625 683.3232421875 612.5087890625 742.0087890625 567.2294921875 719.2939453125 640.5283203125Z" fill="#ffffff" />
<path d="M688 569Q687 565 690 561Q692 557 696 557Q699 557 703 559L720 572L737 559Q741 557 745 558Q754 561 751 569L744 591L762 605Q765 608 765 612Q765 617 763 619Q761 621 756 621H735L728 643Q727 647 722 649Q718 650 715 649Q712 647 711 643L704 621H683Q678 621 676 618Q673 614 673 611Q674 607 677 605L695 591ZM720 596 716 598 718 603H721L723 598Z" fill="#ffffff" />
<path d="M798.605712890625 523.43896484375 858.549560546875 568.816162109375 785.234130859375 568.7490234375 843.927978515625 523.48046875 821.19970703125 596.775146484375Z" fill="#ffffff" />
<path d="M790 526Q789 521 792 517Q794 514 798 513Q801 513 805 516L822 529L839 516Q843 513 847 514Q856 517 853 526L846 548L864 561Q867 564 867 568Q867 573 865 575Q863 578 858 578H837L830 599Q829 604 824 605Q816 608 813 599L806 578H785Q780 578 778 574Q775 570 775 567Q776 564 779 561L797 548ZM822 552 818 554 820 559H823L825 554Z" fill="#ffffff" />
<path d="M908.605712890625 486.43896484375 968.549560546875 531.816162109375 895.234130859375 531.7490234375 953.927978515625 486.48046875 931.19970703125 559.775146484375Z" fill="#ffffff" />
<path d="M900 489Q899 484 902 480Q904 477 908 476Q911 476 915 479L932 492L949 479Q953 476 957 477Q966 480 963 489L956 511L974 524Q977 527 977 531Q977 536 975 538Q973 541 968 541H947L940 562Q939 567 934 568Q926 571 923 562L916 541H895Q890 541 888 537Q885 533 885 530Q886 527 889 524L907 511ZM932 515 928 517 930 522H933L935 517Z" fill="#ffffff" />
<path d="M468.605712890625 523.43896484375 528.549560546875 568.816162109375 455.234130859375 568.7490234375 513.927978515625 523.48046875 491.19970703125 596.775146484375Z" fill="#ffffff" />
<path d="M460 526Q459 522 462 518Q467 511 475 516L492 529L509 516Q513 513 517 515Q526 517 523 526L516 548L534 561Q538 564 538 569Q538 578 528 578H507L501 599Q499 604 494 605Q486 608 483 599L476 578H455Q451 578 448 574Q442 567 450 561L467 548ZM492 552 488 555 490 560H494L495 555Z" fill="#ffffff" />
<path d="M358.605712890625 486.43896484375 418.549560546875 531.816162109375 345.234130859375 531.7490234375 403.927978515625 486.48046875 381.19970703125 559.775146484375Z" fill="#ffffff" />
<path d="M350 489Q349 485 352 481Q357 474 365 479L382 492L399 479Q403 476 407 478Q416 480 413 489L406 511L424 524Q428 527 428 532Q428 541 418 541H397L391 562Q389 567 384 568Q376 571 373 562L366 541H345Q341 541 338 537Q332 530 340 524L357 511ZM382 515 378 518 380 523H384L385 518Z" fill="#ffffff" />
<path d="M547 389Q530 388 518 376Q517 374 515.0 371.5Q513 369 511 367Q507 365 502.0 367.0Q497 369 492 371Q474 376 465 359Q463 357 464 354Q465 352 468 350Q479 343 492 338Q480 330 487 317Q493 306 502 297Q521 275 522 246Q560 248 579 216Q590 193 596 168Q604 156 602 142Q600 136 597.0 131.0Q594 126 597 121Q599 118 603.0 117.5Q607 117 611 117Q619 118 626.0 121.0Q633 124 635 132Q637 138 633.5 145.0Q630 152 631 159Q631 168 638.5 173.5Q646 179 653 183L708 209Q713 213 719 211Q723 209 724 206Q730 194 734 182L753 186Q750 200 759 211Q767 222 781 222Q779 225 782.0 229.0Q785 233 788 233Q797 232 800 224Q808 224 810 227Q813 234 805.0 238.5Q797 243 798 250Q798 255 804.5 257.0Q811 259 817.0 261.0Q823 263 823 268Q823 271 822.0 273.0Q821 275 821 278Q820 282 823.5 285.5Q827 289 830 291Q833 294 835.5 298.0Q838 302 836 306Q840 304 843.5 309.0Q847 314 847 319Q847 324 849.0 329.5Q851 335 856 335Q855 345 845 348Q834 350 829 341Q804 365 770 364L779 397Q764 400 750 406Q745 407 742 410Q736 416 736.5 427.0Q737 438 729 441L725 434Q714 447 715 465Q708 465 704 470Q702 465 697 466L661 476Q656 477 652 481Q647 485 651 490Q655 494 659 491Q658 492 652.5 498.0Q647 504 642.5 507.0Q638 510 639 502Q628 506 617.5 497.0Q607 488 597 492Q598 484 605 479Q612 475 616 468Q618 464 616.5 460.0Q615 456 611 455Q614 450 610.0 444.0Q606 438 600 435Q588 432 578 424Q574 419 575.0 412.0Q576 405 582 405Q577 396 567.0 393.5Q557 391 547 389Z" fill="#f1b31c" />
<path d="M546 398Q526 397 512 382Q511 382 511 382Q510 381 509 379Q507 376 507 376Q506 375 500 378Q496 379 494 380Q494 380 494 380Q470 386 457 364Q454 358 455 352Q455 351 456 350Q458 345 463 342Q470 338 477 335Q472 325 479 312Q479 312 479 312Q485 300 495 291Q512 271 513 246Q513 241 516 239Q518 237 523 237Q555 239 571 212Q581 189 588 166Q588 164 589 163Q594 154 593 144Q592 142 591 139Q584 125 589 117Q595 106 613 108Q639 111 644 129Q646 137 642 149Q640 156 640 159Q640 166 657 174L712 201Q713 202 713 202Q714 203 715 203Q716 202 716 202Q716 202 716 201Q722 191 726 179Q728 171 736 173L755 177Q755 177 756 177Q765 179 762 188Q760 197 766 205Q772 213 782 213Q784 213 786 215Q791 217 791 221Q791 221 791 221Q793 215 800 215Q814 214 818 223Q824 234 811 246Q809 247 808 249Q810 249 813 250Q832 256 832 268Q833 272 831 277Q830 278 830 279Q830 279 836 284Q844 291 846 298Q848 300 851 303Q856 310 856 318Q856 323 857 326Q857 326 856 326Q856 326 856 326Q865 326 865 335Q864 353 847 357Q836 359 828 354Q808 370 782 372L788 394Q788 395 788 395Q790 404 781 406Q767 409 753 414Q753 414 753 414Q750 415 748 417Q747 418 746 426Q743 445 733 449Q729 451 726 450Q724 457 724 464Q724 464 724 464Q724 474 715 474Q712 474 711 476Q709 478 706 479Q701 480 699 479Q697 478 696 475L665 484Q666 485 666 485Q669 489 668 492Q668 495 664 498L663 500Q655 510 650 513Q643 518 637 516Q634 515 632 512Q624 511 613 505Q603 499 600 500Q598 501 595 501Q586 499 588 490Q590 478 600 471Q605 468 608 464Q607 464 606 463Q598 459 603 451Q603 450 602 449Q600 446 597 444Q584 440 573 431Q572 431 572 430Q564 422 566 411Q567 407 568 404Q561 401 549 399Q547 398 546 398ZM548 380Q549 380 552 381Q582 386 590 400Q595 408 587 413Q585 414 583 414H584Q584 416 585 417Q593 423 603 427Q604 427 605 427Q613 431 618 439Q621 445 621 451Q623 453 625 457Q627 464 624 471Q624 472 624 472Q620 480 613 485Q618 486 622 489Q633 495 635 494Q639 492 642 493Q636 483 646 474Q646 474 646 474Q652 469 659 467L694 457Q695 457 696 456Q701 456 705 458Q706 457 706 457Q707 441 718 428Q722 422 728 425Q728 424 728 424Q730 409 736 403Q736 403 736 403Q741 399 747 397Q757 393 768 390L761 366Q759 357 768 355Q769 354 771 354Q801 355 823 334Q829 328 836 335Q836 335 837 336Q839 340 843 339Q843 339 844 338Q839 332 838 319L840 314Q831 318 827 310Q826 305 828 301L827 302Q826 300 824 298Q811 287 812 277Q812 274 814 270Q812 269 808 268Q789 262 789 250Q788 246 791 242Q790 242 789 242Q789 242 788 242Q780 242 774 234Q773 232 772 230Q760 227 751 216Q743 206 743 193H740Q737 201 732 210Q730 216 724 219Q723 220 722 220Q712 223 703 217L649 191Q623 178 622 160Q621 154 625 144Q627 136 626 134Q625 128 610 126Q605 126 605 126Q605 126 607 131Q610 136 611 139Q611 140 611 140Q613 157 605 172Q598 196 588 220Q587 220 587 221Q567 254 531 255Q527 282 509 303Q508 304 508 304Q500 311 495 321Q492 327 497 330Q501 333 502 336Q502 339 500 343Q498 345 496 346Q485 351 474 357Q480 364 489 362Q491 362 493 360Q507 355 515 359Q520 362 524 369Q525 370 525 370Q534 379 547 380Q548 380 548 380Z" fill="#f1b31c" />
<path d="M73 37Q73 18 92 18H1228Q1247 18 1247 37V733Q1247 752 1228 752H92Q73 752 73 733ZM110 715H1210V55H110Z" fill="#000000" />
</g></svg>