<svg xmlns="http://www.w3.org/2000/svg" viewBox="0 0 2048 2048">
<g transform="matrix(1 0 0 -1 0 2048)">
<path d="M800 827Q810 870 835.5 885.0Q861 900 888.0 892.0Q915 884 931.5 858.0Q948 832 939 791Q920 683 901.0 575.5Q882 468 862 361Q861 351 857.5 333.5Q854 316 859 310Q864 301 873.5 293.0Q883 285 897 290L1166 389Q1177 396 1185.0 382.5Q1193 369 1193.5 346.0Q1194 323 1181 303Q1181 303 1167.0 287.0Q1153 271 1130.5 245.5Q1108 220 1083.0 191.0Q1058 162 1034.5 135.5Q1011 109 996 92Q978 70 952.0 37.0Q926 4 900.5 -29.5Q875 -63 856 -84Q816 -128 762.0 -157.0Q708 -186 648.5 -197.0Q589 -208 531.0 -200.0Q473 -192 424.5 -163.5Q376 -135 345 -84Q327 -54 312.0 -8.5Q297 37 284.0 88.5Q271 140 259.5 187.0Q248 234 236 267Q229 287 216.5 319.0Q204 351 190.0 387.0Q176 423 163.0 455.5Q150 488 141.5 508.0Q133 528 133 528Q120 568 130.0 594.5Q140 621 163.0 629.5Q186 638 212.5 624.5Q239 611 258 570L316 437L340 382L206 685Q189 730 198.0 761.0Q207 792 231.5 803.0Q256 814 285.5 799.0Q315 784 337 735L434 508Q444 486 459.5 461.5Q475 437 495.0 423.5Q515 410 537 420Q556 428 571.0 452.0Q586 476 597 525L664 878Q675 923 695.0 946.5Q715 970 737.5 973.0Q760 976 779.0 962.0Q798 948 805.5 918.0Q813 888 804 846L730 449Z" fill="#debb90" />
<path d="M829 901Q827 973 764 989Q726 1000 693 971Q660 941 646 882Q646 882 646 882L579 529Q562 451 529 436Q512 429 490 453Q468 475 451 515L354 743Q354 743 354 743Q303 855 224 820Q146 785 189 678Q190 678 190 678L201 651Q181 656 157 647Q83 620 116 523Q116 522 116 522Q196 326 219 261Q229 230 252 141Q297 -40 329 -93Q410 -227 590 -222Q761 -217 869 -96Q890 -73 945 -2Q993 60 1010 80L1092 174L1195 291Q1195 292 1196 293Q1220 328 1209 371Q1204 390 1194 401Q1176 417 1158 405L891 307Q884 305 874 320Q873 321 879 349Q880 355 880 358L919 572L957 787Q977 886 893 910Q859 919 829 901ZM712 452Q709 434 727 431Q745 427 748 445L818 821Q818 822 818 823Q826 856 846 869Q863 880 883 874Q935 860 921 794L883 579L844 364Q844 362 843 356Q835 313 843 300Q869 261 903 273Q903 273 903 273L1171 371Q1172 368 1174 362Q1180 335 1166 314L1065 198L982 104Q964 83 916 21Q861 -50 842 -71Q744 -181 589 -185Q430 -189 361 -74Q332 -26 288 150Q265 241 253 273Q230 339 151 535Q130 598 170 613Q206 626 234 578L323 375Q327 367 333 364Q339 362 347 366Q364 373 357 390L333 444L275 578Q275 578 275 578Q271 587 266 595L223 692Q194 766 239 786Q284 806 321 728L417 501Q437 455 463 427Q503 385 544 403Q593 425 615 522Q615 522 615 522L682 874Q693 922 717 943Q736 959 755 954Q807 940 786 850Q786 849 786 849Z" fill="#000000" />
<path d="M829 901Q827 973 764 989Q726 1000 693 971Q660 941 646 882Q646 882 646 882L579 529Q562 451 529 436Q512 429 490 453Q468 475 451 515L354 743Q354 743 354 743Q303 855 224 820Q146 785 189 678Q190 678 190 678L201 651Q181 656 157 647Q83 620 116 523Q116 522 116 522Q196 326 219 261Q229 230 252 141Q297 -40 329 -93Q410 -227 590 -222Q761 -217 869 -96Q890 -73 945 -2Q993 60 1010 80L1092 174L1195 291Q1195 292 1196 293Q1220 328 1209 371Q1204 390 1194 401Q1176 417 1158 405L891 307Q884 305 874 320Q873 321 879 349Q880 355 880 358L919 572L957 787Q977 886 893 910Q859 919 829 901ZM712 452Q709 434 727 431Q745 427 748 445L818 821Q818 822 818 823Q826 856 846 869Q863 880 883 874Q935 860 921 794L883 579L844 364Q844 362 843 356Q835 313 843 300Q869 261 903 273Q903 273 903 273L1171 371Q1172 368 1174 362Q1180 335 1166 314L1065 198L982 104Q964 83 916 21Q861 -50 842 -71Q744 -181 589 -185Q430 -189 361 -74Q332 -26 288 150Q265 241 253 273Q230 339 151 535Q130 598 170 613Q206 626 234 578L323 375Q327 367 333 364Q339 362 347 366Q364 373 357 390L333 444L275 578Q275 578 275 578Q271 587 266 595L223 692Q194 766 239 786Q284 806 321 728L417 501Q437 455 463 427Q503 385 544 403Q593 425 615 522Q615 522 615 522L682 874Q693 922 717 943Q736 959 755 954Q807 940 786 850Q786 849 786 849Z" fill="#000000" />
</g></svg>