<svg xmlns="http://www.w3.org/2000/svg" viewBox="0 0 2048 2048">
<g transform="matrix(1 0 0 -1 0 2048)">
<path d="M91.5877685546875 733.1798706054688V36.51513671875H1228.2723388671875V733.1798706054688Z" fill="#92d3f5" />
<path d="M1076.2117919921875 586.56494140625 1136.7978515625 633.4127197265625 1063.64892578125 631.1424560546875 1121.9298095703125 587.6981201171875 1100.8008422851562 660.2796020507812Z" fill="#f1b31c" />
<path d="M1068 589Q1066 585 1069 581Q1075 573 1082 579L1100 593L1116 580Q1120 577 1125 579Q1133 581 1131 590L1124 612L1143 626Q1146 628 1146 633Q1146 642 1137 642L1116 641L1110 662Q1108 667 1104 668Q1100 670 1097 668Q1094 667 1092 663L1085 641L1063 640Q1059 640 1056 636Q1051 629 1058 624L1075 611ZM1100 616 1097 618 1098 623H1102L1103 618Z" fill="#f1b31c" />
<path d="M1076.2117919921875 293.56494140625 1136.7978515625 340.4127197265625 1063.64892578125 338.1424560546875 1121.9298095703125 294.6981201171875 1100.8008422851562 367.27960205078125Z" fill="#f1b31c" />
<path d="M1068 296Q1066 292 1069 288Q1075 280 1082 286L1100 300L1116 287Q1120 284 1125 286Q1133 288 1131 297L1124 319L1143 333Q1146 335 1146 340Q1146 349 1137 349L1116 348L1110 369Q1108 374 1104 375Q1100 377 1097 375Q1094 374 1092 370L1085 348L1063 347Q1059 347 1056 343Q1051 336 1058 331L1075 318ZM1100 323 1097 325 1098 330H1102L1103 325Z" fill="#f1b31c" />
<path d="M948.2117919921875 219.56494140625 1008.7978515625 266.4127197265625 935.64892578125 264.1424560546875 993.9298095703125 220.6981201171875 972.8008422851562 293.27960205078125Z" fill="#f1b31c" />
<path d="M939 223Q938 218 941 214Q946 207 954 213L971 226L988 214Q991 211 996 212Q1005 215 1002 224L996 245L1014 259Q1018 262 1018 267Q1017 276 1008 276L987 275L981 296Q980 301 975 302Q971 303 968 302Q965 301 964 296L956 274H935Q930 274 928 270Q922 263 930 257L947 245ZM971 249 968 251 970 256H974L975 252Z" fill="#f1b31c" />
<path d="M489.2117919921875 91.56494140625 549.7978515625 138.4127197265625 476.64892578125 136.1424560546875 534.9298095703125 92.6981201171875 513.8008422851562 165.27960205078125Z" fill="#f1b31c" />
<path d="M481 95Q480 90 483 86Q488 79 496 85L513 98L530 86Q533 83 538 84Q547 87 544 96L538 117L556 131Q560 134 560 139Q559 148 550 148L529 147L523 168Q522 173 517 174Q513 175 510 174Q507 173 506 168L498 146H477Q472 146 470 142Q464 135 472 129L489 117ZM513 121 510 123 512 128H516L517 124Z" fill="#f1b31c" />
<path d="M866.920166015625 220.409423828125 806.360595703125 173.540771484375 879.500732421875 175.842041015625 821.20751953125 219.2568359375 842.365234375 146.692138671875Z" fill="#f1b31c" />
<path d="M876 217Q877 222 874 226Q869 233 861 227L844 214L827 226Q824 229 819 228Q810 225 813 216L819 195L801 181Q797 178 798 173Q798 164 807 164L828 165L834 144Q835 139 840 138Q849 135 851 144L859 166H880Q885 166 887 170Q893 177 886 183L869 195ZM844 191 847 189 845 184H842L840 188Z" fill="#f1b31c" />
<path d="M683.920166015625 201.409423828125 623.360595703125 154.540771484375 696.500732421875 156.842041015625 638.20751953125 200.2568359375 659.365234375 127.692138671875Z" fill="#f1b31c" />
<path d="M693 199Q694 204 691 208Q686 215 678 209L661 196L644 208Q641 211 636 210Q627 207 630 198L636 177L618 163Q614 160 615 155Q615 146 624 146L645 147L651 126Q652 121 657 120Q666 117 668 126L676 148H697Q702 148 704 152Q710 159 703 165L686 177ZM661 173 664 171 662 166H659L657 170Z" fill="#f1b31c" />
<path d="M683.920166015625 330.409423828125 623.360595703125 283.540771484375 696.500732421875 285.842041015625 638.20751953125 329.2568359375 659.365234375 256.692138671875Z" fill="#f1b31c" />
<path d="M693 327Q694 332 691 336Q686 343 678 337L661 324L644 336Q641 339 636 338Q627 335 630 326L636 305L618 291Q614 288 615 283Q615 274 624 274L645 275L651 254Q652 249 657 248Q666 245 668 254L676 276H697Q702 276 704 280Q710 287 703 293L686 305ZM661 301 664 299 662 294H659L657 298Z" fill="#f1b31c" />
<path d="M932.559814453125 509.0880126953125 961.5885009765625 579.952392578125 899.3875732421875 541.402587890625 971.5782470703125 532.9342041015625 916.9833374023438 585.2119750976562Z" fill="#f1b31c" />
<path d="M924 508Q925 503 930 501Q934 499 937 501Q940 502 941 506L950 527L971 524Q975 524 978 527Q981 530 981 533Q981 537 978 540L962 555L971 576Q972 581 970 585Q965 593 957 588L939 577L924 592Q920 595 916 594Q907 592 908 583L913 561L895 550Q891 547 890 543Q889 534 898 533L919 530ZM938 546 935 547 934 552 937 554 940 551Z" fill="#f1b31c" />
<path d="M822.559814453125 473.0880126953125 851.5885009765625 543.952392578125 789.3875732421875 505.402587890625 861.5782470703125 496.9342041015625 806.9833374023438 549.2119750976562Z" fill="#f1b31c" />
<path d="M814 471Q815 466 820 464Q824 462 827 464Q830 465 831 469L840 490L861 487Q865 487 868 490Q871 493 871 496Q871 500 868 503L852 518L861 539Q862 544 860 548Q855 556 847 551L829 540L814 555Q810 558 806 557Q797 555 798 546L803 524L785 513Q781 510 780 506Q779 497 788 496L809 493ZM828 509 825 510 824 515 827 517 830 514Z" fill="#f1b31c" />
<path d="M91.7872314453125 733.114990234375V384.755859375H660.1026611328125V733.114990234375Z" fill="#1e50a0" />
<path d="M181 715 660 428V385H589L110 672V715Z" fill="#ffffff" />
<path d="M659.7684936523438 672.4154663085938 181.394287109375 385.056396484375H109.72149658203125V427.65032958984375L588.095703125 715.0093994140625H659.7684936523438Z" fill="#ffffff" />
<path d="M110.25 604.9757690429688V494.97607421875H660.25V604.9757690429688Z" fill="#ffffff" />
<path d="M330.25 714.9273071289062V384.92822265625H440.25V714.9273071289062Z" fill="#ffffff" />
<path d="M367.0877685546875 714.9273071289062V384.92822265625H403.7723388671875V714.9273071289062Z" fill="#d22f27" />
<path d="M110.25 568.3252563476562V531.65869140625H660.25V568.3252563476562Z" fill="#d22f27" />
<path d="M660 428V385L477 495H548Z" fill="#d22f27" />
<path d="M660 715 477 605H440V626L589 715Z" fill="#d22f27" />
<path d="M110.0 672.0V715.0L293.0 605.0H222.0Z" fill="#d22f27" />
<path d="M110.0 385.0 293.0 495.0H330.0V474.0L181.0 385.0Z" fill="#d22f27" />
<path d="M73 37Q73 18 92 18H1228Q1247 18 1247 37V733Q1247 752 1228 752H92Q73 752 73 733ZM110 715H1210V55H110Z" fill="#000000" />
</g></svg>