<svg xmlns="http://www.w3.org/2000/svg" viewBox="0 0 2048 2048">
<g transform="matrix(1 0 0 -1 0 2048)">
<path d="M898 331Q898 331 909.0 327.5Q920 324 934.5 317.0Q949 310 960.0 300.0Q971 290 971 276L916 221Q912 216 911.5 193.0Q911 170 913.0 137.0Q915 104 918.5 67.5Q922 31 926.0 -0.5Q930 -32 932.5 -52.0Q935 -72 935 -72H385Q385 -72 386.5 -55.0Q388 -38 391.0 -12.0Q394 14 396.5 42.5Q399 71 401.0 94.5Q403 118 403 129Q399 185 385 239L348 276Q348 290 359.0 300.0Q370 310 384.5 317.0Q399 324 410.0 327.5Q421 331 421 331Z" fill="#92d3f5" />
<path d="M458 477Q458 523 463.0 546.5Q468 570 473.0 578.5Q478 587 478 587Q533 596 572.5 616.0Q612 636 645.5 662.0Q679 688 716 715Q716 715 728.0 700.5Q740 686 759.5 663.0Q779 640 801.5 614.5Q824 589 844 569Q863 525 863 477Q863 394 835.0 337.0Q807 280 760.5 250.0Q714 220 660 220Q604 220 558.5 250.0Q513 280 485.5 337.0Q458 394 458 477Z" fill="#debb90" />
<path d="M384 -72Q384 -72 388.5 -9.5Q393 53 402 176Q404 192 401.5 210.0Q399 228 387.0 243.5Q375 259 347 268Q306 282 287.5 286.5Q269 291 256 305L182 378Q175 385 164.0 385.0Q153 385 146 378Q138 370 138.0 359.5Q138 349 146 341L219 231L292 176L310 153L256 -72Z" fill="#debb90" />
<path d="M292 303V371Q292 383 306.5 383.5Q321 384 327 368Q342 326 354.0 293.0Q366 260 366 260Z" fill="#debb90" />
<path d="M936.0 -72.0Q936.0 -72.0 931.5 -9.5Q927.0 53.0 918.0 176.0Q916.0 192.0 918.5 210.0Q921.0 228.0 933.0 243.5Q945.0 259.0 973.0 268.0Q1014.0 282.0 1032.5 286.5Q1051.0 291.0 1064.0 305.0L1138.0 378.0Q1145.0 385.0 1156.0 385.0Q1167.0 385.0 1174.0 378.0Q1182.0 370.0 1182.0 359.5Q1182.0 349.0 1174.0 341.0L1101.0 231.0L1028.0 176.0L1010.0 153.0L1064.0 -72.0Z" fill="#debb90" />
<path d="M1028.1239013671875 302.8746337890625V370.8663330078125Q1028.1239013671875 382.8648681640625 1013.6300964355469 383.3603820800781Q999.1362915039062 383.85589599609375 993.1388549804688 367.85601806640625Q978.145263671875 325.8565673828125 966.150390625 292.85693359375Q954.155517578125 259.8572998046875 954.155517578125 259.8572998046875Z" fill="#debb90" />
<path d="M847 567Q847 567 849.0 547.0Q851 527 853.0 496.0Q855 465 856.0 431.5Q857 398 854.5 370.5Q852 343 844 330Q881 330 896.5 363.0Q912 396 915.0 450.0Q918 504 918 569Q918 617 903.5 662.5Q889 708 858.0 745.0Q827 782 778.5 803.5Q730 825 661 825Q592 825 543.5 803.5Q495 782 464.0 745.0Q433 708 418.5 662.5Q404 617 404 569Q404 504 407.5 450.0Q411 396 426.0 363.0Q441 330 478 330Q478 330 473.0 351.0Q468 372 462.5 404.0Q457 436 454.5 471.5Q452 507 457.0 537.5Q462 568 479 584Q479 584 498.0 591.5Q517 599 546.5 612.0Q576 625 609.0 641.5Q642 658 670.0 676.5Q698 695 712 712Q712 712 726.0 692.5Q740 673 761.5 645.5Q783 618 806.0 595.5Q829 573 847 567Z" fill="#fcea2b" />
<path d="M843 349Q825 349 825 331Q825 312 843 312Q907 312 925 398Q935 443 935 569Q935 683 871 757Q797 844 660 844Q523 844 449 757Q385 683 385 569Q385 443 395 398Q413 312 477 312Q495 312 495 331Q495 349 477 349Q422 349 422 569Q422 669 477 733Q540 807 660 807Q780 807 843 733Q898 669 898 569Q898 349 843 349Z" fill="#000000" />
<path d="M767.6845703125 495.67486572265625Q767.6845703125 511.0086669921875 757.017578125 521.6756591796875Q746.3505859375 532.3426513671875 731.0167846679688 532.3426513671875Q715.6829833984375 532.3426513671875 705.0159912109375 521.6756591796875Q694.3489990234375 511.0086669921875 694.3489990234375 495.67486572265625Q694.3489990234375 481.00775146484375 705.0159912109375 470.0074157714844Q715.6829833984375 459.007080078125 731.0167846679688 459.007080078125Q746.3505859375 459.007080078125 757.017578125 470.0074157714844Q767.6845703125 481.00775146484375 767.6845703125 495.67486572265625Z" fill="#000000" />
<path d="M620.6845703125 495.67486572265625Q620.6845703125 511.0086669921875 610.017578125 521.6756591796875Q599.3505859375 532.3426513671875 584.0167846679688 532.3426513671875Q568.6829833984375 532.3426513671875 558.0159912109375 521.6756591796875Q547.3489990234375 511.0086669921875 547.3489990234375 495.67486572265625Q547.3489990234375 481.00775146484375 558.0159912109375 470.0074157714844Q568.6829833984375 459.007080078125 584.0167846679688 459.007080078125Q599.3505859375 459.007080078125 610.017578125 470.0074157714844Q620.6845703125 481.00775146484375 620.6845703125 495.67486572265625Z" fill="#000000" />
<path d="M439 477Q439 351 502 275Q564 202 659 202Q753 202 815 275Q880 351 880 477Q881 529 860 576Q859 579 856 582Q802 636 729 727Q718 741 704 730Q693 722 671 705Q562 620 474 605Q468 604 464 601Q439 577 439 477ZM476 477Q476 552 486 570Q582 589 694 676Q704 684 712 690Q777 609 828 559Q844 520 843 477Q843 365 787 299Q736 239 659 239Q581 239 530 299Q476 364 476 477Z" fill="#000000" />
<path d="M628 367Q610 371 606 352Q603 334 621 331Q661 324 700 331Q718 334 715 352Q712 371 694 367Q661 362 628 367Z" fill="#000000" />
<path d="M238 -50Q236 -59 239 -64Q243 -70 251 -72Q269 -77 274 -59L328 148Q330 157 325 164L307 187Q306 189 304 190L233 244L161 351Q160 352 159 354Q154 359 159 365Q164 370 170 365L243 291Q259 275 303 262Q326 255 342 250Q389 235 384 177Q372 13 366 -53Q365 -62 369 -67Q374 -72 383 -73Q401 -74 403 -56Q409 10 421 174Q427 260 354 285Q337 290 313 297Q279 307 269 317L196 390Q183 403 164 403Q146 403 133 390Q103 360 132 329L204 221Q206 218 208 216L280 163L290 149Z" fill="#000000" />
<path d="M349 253Q352 245 358 242Q364 239 372 242Q390 249 383 266L345 374Q335 401 307 402Q294 402 285 394Q274 385 274 371V303Q274 285 292 285Q311 285 311 303V360Z" fill="#000000" />
<path d="M1046 -59Q1051 -77 1069 -72Q1086 -67 1082 -50L1030 149L1040 163L1112 216Q1114 218 1116 221L1188 329Q1217 360 1187 391Q1156 422 1124 391L1051 317Q1041 308 1007 298Q983 290 966 285Q893 260 899 175Q911 10 917 -56Q919 -74 937 -72Q956 -71 954 -53Q948 13 936 177Q931 235 978 250Q994 255 1017 262Q1061 275 1077 291L1150 365Q1156 370 1161 365Q1166 359 1161 354Q1160 353 1159 351L1087 244L1016 191Q1014 189 1013 187L995 164Q990 157 992 148Z" fill="#000000" />
<path d="M936 266Q930 248 947 242Q965 236 971 253L1009 359V303Q1009 284 1027 284Q1046 284 1046 303V370Q1046 385 1034 394Q1025 401 1013 401Q985 401 975 374Z" fill="#000000" />
<path d="M416 330Q398 324 404 307Q407 298 413 295Q418 292 427 295L482 314Q500 319 494 337Q491 345 485 348Q479 351 471 348Z" fill="#000000" />
<path d="M848 348Q831 353 826 336Q821 318 838 313L901 295Q919 290 924 307Q929 325 912 330Z" fill="#000000" />
</g></svg>