<svg xmlns="http://www.w3.org/2000/svg" viewBox="0 0 2048 2048">
<g transform="matrix(1 0 0 -1 0 2048)">
<path d="M1227.8758544921875 732.822509765625V39.744140625H97.0994873046875V732.822509765625Z" fill="#9b9b9a" />
<path d="M414 455Q412 453 412 450Q405 425 404 400Q403 387 416 382L429 378Q440 374 441 361Q442 351 445 340Q447 328 438 320L427 312Q416 304 421 292Q430 268 444 246Q451 235 464 239L477 243Q489 247 497 237Q504 229 512 222Q522 214 518 202L514 189Q510 176 521 169Q543 155 567 146Q579 141 587 152L595 163Q603 172 615 170Q626 167 636 166Q649 165 653 154L657 141Q662 128 675 129Q687 129 700 131Q713 134 725 137Q738 140 738 153V167Q739 179 750 184Q760 189 769 194Q780 200 790 194L801 186Q813 178 823 186Q842 203 859 222Q867 233 859 244L851 255Q845 265 851 276Q856 285 861 295Q866 306 878 307H892Q905 307 908 320Q915 345 916 370Q917 383 904 388L891 392Q880 396 879 409Q878 419 875 430Q873 442 882 450L893 458Q904 466 899 478Q890 502 876 524Q869 535 856 531L843 527Q831 523 823 533Q816 541 808 548Q798 556 802 568L806 581Q810 594 799 601Q777 615 753 624Q741 629 733 618L725 607Q717 598 705 600Q694 603 684 604Q671 605 667 616L663 629Q658 642 645 641Q633 641 620 639Q607 636 595 633Q592 633 590 631L593 583L612 562Q636 568 660 568Q711 568 752.5 543.5Q794 519 818.5 477.5Q843 436 843 385Q843 334 818.5 292.5Q794 251 752.5 226.5Q711 202 660 202Q609 202 567.5 226.5Q526 251 501.5 292.5Q477 334 477 385Q477 409 483 433L462 452Z" fill="#ffffff" />
<path d="M847 223Q847 224 846 225L544 552Q542 555 542 558L537 644Q537 650 531.0 652.5Q525 655 521 650L395 524Q390 520 392.5 514.0Q395 508 401 508L487 503Q490 503 493 501L820 199Q821 198 822 198L861 172Q867 168 872.0 173.0Q877 178 873 184Z" fill="#ffffff" />
<path d="M73 733V37Q73 18 92 18H1228Q1247 18 1247 37V733Q1247 752 1228 752H92Q73 752 73 733ZM110 715H1210V55H110Z" fill="#000000" />
</g></svg>