<svg xmlns="http://www.w3.org/2000/svg" viewBox="0 0 2048 2048">
<g transform="matrix(1 0 0 -1 0 2048)">
<path d="M843 330Q880 330 895.5 363.0Q911 396 914.0 450.0Q917 504 917 568Q917 616 902.5 662.0Q888 708 857.0 745.0Q826 782 777.5 803.5Q729 825 660 825Q591 825 542.5 803.5Q494 782 463.0 745.0Q432 708 417.5 662.0Q403 616 403 568Q403 504 406.0 450.0Q409 396 424.5 363.0Q440 330 477 330Z" fill="#6a462f" />
<path d="M457 477Q457 522 462.0 546.0Q467 570 472.0 578.5Q477 587 477 587Q532 596 571.5 616.0Q611 636 644.5 662.0Q678 688 715 715Q715 715 727.0 700.0Q739 685 758.5 662.0Q778 639 800.5 614.0Q823 589 843 568Q843 568 852.5 543.0Q862 518 862 477Q862 394 834.0 337.0Q806 280 759.5 250.0Q713 220 659 220Q603 220 557.5 250.0Q512 280 484.5 337.0Q457 394 457 477Z" fill="#c19a65" />
<path d="M1008 -73V0Q1008 46 981.5 83.5Q955 121 913.0 143.0Q871 165 825 165Q660 27 495 165Q449 165 407.0 143.0Q365 121 338.5 83.5Q312 46 312 0V-73Z" fill="#c19a65" />
<path d="M1177 470Q1160 461 1135.5 446.5Q1111 432 1080 415Q938 334 863.5 290.0Q789 246 771 227Q715 170 688 95Q767 109 826 162Q872 162 914.0 140.0Q956 118 982.0 80.5Q1008 43 1008 -3V-73H1057Q1079 -61 1097 -45Q1099 -42 1101 -40Q1103 -36 1104 -31Q1107 -22 1114.5 1.5Q1122 25 1129.0 49.0Q1136 73 1137 82Q1136 91 1138.5 104.0Q1141 117 1145.0 145.0Q1149 173 1155 228Q1161 274 1164.5 304.5Q1168 335 1175 370Q1181 404 1177.5 428.5Q1174 453 1177 470Z" fill="#b1cc33" />
<path d="M635 95 632 102Q604 173 552 227Q533 246 459.0 290.0Q385 334 243 415Q212 432 187.0 446.5Q162 461 145 470Q149 453 154.5 426.0Q160 399 167 365Q173 330 179.5 292.5Q186 255 191 209Q200 126 205.0 82.5Q210 39 210 25Q211 -3 219 -31Q220 -36 222 -40Q224 -43 225 -45Q244 -61 266 -73H313V-3Q313 43 340.0 80.5Q367 118 409.0 140.0Q451 162 496 162Q556 108 635 95Z" fill="#b1cc33" />
<path d="M1136.0140380859375 125.47247314453125 1165.2155151367188 197.5177001953125 1241.1610717773438 214.19000244140625 1181.5291137695312 264.24737548828125 1189.035888671875 341.54241943359375 1123.1636962890625 300.427001953125 1051.910400390625 331.29107666015625 1070.5986938476562 255.954345703125 1019.283203125 197.83172607421875 1096.6527709960938 192.39202880859375Z" fill="#fcea2b" />
<path d="M867 -73Q865 -55 863.5 -31.0Q862 -7 861.0 15.0Q860 37 860 49Q859 111 866.0 134.5Q873 158 873 158H872Q850 163 826 164Q661 26 496 164Q471 164 446 156Q446 156 453.5 133.5Q461 111 460 49Q460 37 459.0 15.0Q458 -7 456.5 -31.0Q455 -55 453 -73Z" fill="#a57939" />
<path d="M477 312Q495 312 495 330Q495 348 477 348Q422 348 422 568Q422 668 477 733Q540 807 660 807Q780 807 843 733Q898 668 898 568Q898 348 843 348Q825 348 825 330Q825 312 843 312Q907 312 925 397Q935 443 935 568Q935 682 871 757Q797 843 660 843Q523 843 449 757Q385 682 385 568Q385 443 395 397Q413 312 477 312Z" fill="#000000" />
<path d="M439 477Q439 350 502 275Q564 202 659 202Q753 202 815 275Q880 351 880 477Q880 536 860 577Q858 579 856 581Q802 636 729 726Q718 740 704 730Q693 721 671 704Q562 620 474 605Q468 604 464 600Q439 576 439 477ZM476 477Q476 552 486 570Q582 588 694 676Q704 684 712 690Q777 609 828 558Q843 525 843 477Q843 364 787 298Q736 238 659 238Q581 238 530 298Q476 364 476 477Z" fill="#000000" />
<path d="M676 109Q669 92 686 85Q703 78 710 95Q737 161 785 215Q808 241 914 300Q1011 354 1089 399L1151 434Q1146 411 1142 388Q1140 379 1144 374Q1147 369 1156 367Q1174 364 1178 382Q1186 424 1195 466Q1197 473 1193 479Q1189 487 1182 489Q1176 491 1168 486L1071 431Q993 386 896 332Q784 270 757 239Q706 181 676 109Z" fill="#000000" />
<path d="M1068 -24Q1059 -40 1076 -48Q1092 -57 1100 -41Q1114 -15 1118 -4Q1132 30 1137 68Q1139 86 1121 88Q1102 91 1100 72Q1096 40 1084 9Q1080 0 1068 -24Z" fill="#000000" />
<path d="M222 -41Q231 -57 247 -48Q255 -44 257 -38Q259 -32 255 -24Q243 0 239 9Q225 44 218 125Q206 250 185 368Q179 401 172 434L234 399Q312 354 408 300Q515 241 538 215Q584 163 611 99Q618 82 635 89Q652 96 645 113Q615 183 566 239Q538 270 426 332Q330 386 252 431L154 486Q148 490 141 488Q123 484 127 466Q139 414 149 361Q170 245 181 122Q189 35 205 -4Q209 -15 222 -41Z" fill="#000000" />
<path d="M1105 160Q1115 176 1099 185Q1083 195 1074 179L919 -80Q910 -96 926 -105Q941 -115 951 -99Z" fill="#000000" />
<path d="M1120 116Q1123 111 1129 108Q1146 101 1153 118L1178 182L1245 196Q1251 198 1255 202Q1267 216 1252 228L1200 272L1207 340Q1207 346 1204 351Q1194 367 1179 357L1121 321L1059 348Q1053 350 1047 349Q1029 345 1034 327L1050 261L1005 210Q1001 205 1001 199Q999 181 1018 179L1085 175ZM1133 167 1112 202Q1107 210 1098 211L1057 213L1084 244Q1090 251 1088 260L1078 300L1115 283Q1124 280 1132 285L1167 306L1163 266Q1162 256 1169 250L1200 224L1161 215Q1151 213 1148 204Z" fill="#000000" />
<path d="M295 -56Q295 -75 313 -75Q331 -75 331 -56V-1Q331 58 382 102Q430 143 490 145Q661 7 833 145Q911 142 961 80Q972 66 987 78Q1001 89 989 104Q926 181 827 182Q820 182 815 178Q661 50 508 178Q503 182 496 182Q419 182 358 129Q295 74 295 -1Z" fill="#000000" />
<path d="M463 163Q458 171 452 172Q446 174 438 169Q422 159 432 143Q443 127 442 50Q441 14 435 -53Q434 -62 438 -67Q442 -72 451 -73Q469 -75 471 -57Q478 12 478 49Q479 137 463 163Z" fill="#000000" />
<path d="M889 149Q897 165 881 174Q865 182 856 166Q841 136 841 49Q842 12 849 -57Q851 -75 869 -73Q887 -71 885 -53Q878 14 878 50Q877 127 889 149Z" fill="#000000" />
<path d="M769.6845703125 495.67486572265625Q769.6845703125 511.0086669921875 759.017578125 521.6756591796875Q748.3505859375 532.3426513671875 733.0167846679688 532.3426513671875Q717.6829833984375 532.3426513671875 707.0159912109375 521.6756591796875Q696.3489990234375 511.0086669921875 696.3489990234375 495.67486572265625Q696.3489990234375 481.00775146484375 707.0159912109375 470.0074157714844Q717.6829833984375 459.007080078125 733.0167846679688 459.007080078125Q748.3505859375 459.007080078125 759.017578125 470.0074157714844Q769.6845703125 481.00775146484375 769.6845703125 495.67486572265625Z" fill="#000000" />
<path d="M623.6845703125 495.67486572265625Q623.6845703125 511.0086669921875 613.017578125 521.6756591796875Q602.3505859375 532.3426513671875 587.0167846679688 532.3426513671875Q571.6829833984375 532.3426513671875 561.0159912109375 521.6756591796875Q550.3489990234375 511.0086669921875 550.3489990234375 495.67486572265625Q550.3489990234375 481.00775146484375 561.0159912109375 470.0074157714844Q571.6829833984375 459.007080078125 587.0167846679688 459.007080078125Q602.3505859375 459.007080078125 613.017578125 470.0074157714844Q623.6845703125 481.00775146484375 623.6845703125 495.67486572265625Z" fill="#000000" />
<path d="M613.8707275390625 360.9425048828125Q596.8676147460938 368.9439697265625 588.8661499023438 352.9410400390625Q579.864501953125 336.9381103515625 595.867431640625 327.93646240234375Q659.879150390625 293.93023681640625 723.890869140625 327.93646240234375Q739.893798828125 336.9381103515625 730.8921508789062 352.9410400390625Q722.8906860351562 368.9439697265625 705.8875732421875 360.9425048828125Q659.879150390625 335.93792724609375 613.8707275390625 360.9425048828125Z" fill="#000000" />
</g></svg>