<svg xmlns="http://www.w3.org/2000/svg" viewBox="0 0 2048 2048">
<g transform="matrix(1 0 0 -1 0 2048)">
<path d="M91.5877685546875 733.1798706054688V36.51513671875H1228.2723388671875V733.1798706054688Z" fill="#61b2e4" />
<path d="M879 385Q879 476 815 541Q751 605 660 605Q569 605 505 541Q441 476 441 385Q441 294 505 229Q569 165 660 165Q751 165 815 229Q879 294 879 385ZM824 385Q824 317 776 268Q728 220 660 220Q592 220 544 268Q496 317 496 385Q496 453 544 502Q592 550 660 550Q728 550 776 502Q824 453 824 385Z" fill="#ffffff" />
<path d="M861 386Q861 396 852 395Q843 395 843 386Q844 281 753 227Q661 174 570 226Q478 278 477 384Q477 388 475 391Q473 393 468 393Q459 393 459 384Q459 267 560 210Q662 152 762 211Q862 270 861 386Z" fill="#fcea2b" />
<path d="M459 384Q459 374 468 375Q477 375 477 384Q476 489 567 543Q659 596 750 544Q842 492 843 386Q843 377 852 377Q861 377 861 386Q861 503 760 560Q658 618 558 559Q458 500 459 384Z" fill="#d22f27" />
<path d="M743.0 128.989501953125 687.5 458.785888671875H633.5L578.0 128.989501953125Z" fill="#9b9b9a" />
<path d="M743 119Q743 119 744 119Q753 121 752 130L697 460Q695 468 688 468H633Q625 468 623 460L568 130Q568 129 568 128Q568 119 578 119ZM732 137H588L640 449H680Z" fill="#9b9b9a" />
<path d="M706 513 688 440H633L614 513Z" fill="#9b9b9a" />
<path d="M706 523H614Q605 523 605 513Q605 512 605 511L624 438Q625 431 633 431H688Q695 431 696 438L715 511Q717 520 708 522Q707 523 706 523ZM694 504 680 449H640L626 504Z" fill="#9b9b9a" />
<path d="M588.4896240234375 274.69091796875 770.21484375 415.2501220703125 550.78466796875 408.4085693359375 725.6334228515625 278.1097412109375 662.2200317382812 495.82965087890625Z" fill="#ffffff" />
<path d="M580 278Q579 273 582 269Q587 262 594 268L658 317L719 271Q723 268 727 270Q736 272 734 281L711 358L776 407Q779 410 779 415Q779 424 770 423L693 422L671 498Q669 502 665 504Q656 507 653 498L627 420L550 418Q545 418 543 414Q540 411 540 408Q541 404 545 402L606 356ZM658 340 628 362 641 402 679 403 690 365ZM621 402 612 374 577 400ZM673 328 696 346 708 302ZM706 377 698 403 742 404ZM674 421 647 420 661 464ZM622 344 643 328 607 301Z" fill="#ffffff" />
<path d="M463 344Q465 335 474 337Q483 339 481 348Q474 384 481 420Q481 424 480 427Q478 430 473 431Q464 432 463 423Q455 384 463 344Z" fill="#5c9e31" />
<path d="M857 423Q855 432 846 431Q837 429 839 420Q846 384 839 348Q838 339 847 337Q856 335 857 344Q865 384 857 423Z" fill="#5c9e31" />
<path d="M73 37Q73 18 92 18H1228Q1247 18 1247 37V733Q1247 752 1228 752H92Q73 752 73 733ZM110 715H1210V55H110Z" fill="#000000" />
</g></svg>