<svg xmlns="http://www.w3.org/2000/svg" viewBox="0 0 2048 2048">
<g transform="matrix(1 0 0 -1 0 2048)">
<path d="M916.3130493164062 843.0086059570312Q916.3130493164062 854.29638671875 912.0265502929688 864.2982177734375Q907.7400512695312 874.300048828125 900.167236328125 881.8728637695312Q892.5944213867188 889.4456787109375 882.6640319824219 893.732177734375Q872.733642578125 898.0186767578125 861.302978515625 898.0186767578125Q849.872314453125 898.0186767578125 839.9419250488281 893.732177734375Q830.0115356445312 889.4456787109375 822.438720703125 881.8728637695312Q814.8659057617188 874.300048828125 810.5794067382812 864.2982177734375Q806.2929077148438 854.29638671875 806.2929077148438 843.0086059570312Q806.2929077148438 831.5779418945312 810.5794067382812 821.5761108398438Q814.8659057617188 811.5742797851562 822.438720703125 804.00146484375Q830.0115356445312 796.4286499023438 839.9419250488281 792.2135925292969Q849.872314453125 787.99853515625 861.302978515625 787.99853515625Q872.733642578125 787.99853515625 882.6640319824219 792.2135925292969Q892.5944213867188 796.4286499023438 900.167236328125 804.00146484375Q907.7400512695312 811.5742797851562 912.0265502929688 821.5761108398438Q916.3130493164062 831.5779418945312 916.3130493164062 843.0086059570312Z" fill="#a57939" />
<path d="M770 603Q791 571 791.5 544.5Q792 518 784.0 496.0Q776 474 770 457Q765 445 762.0 425.5Q759 406 756.5 386.5Q754 367 754 354Q751 326 748.5 283.0Q746 240 744.0 190.0Q742 140 740.5 90.5Q739 41 737.5 0.5Q736 -40 735.5 -65.0Q735 -90 735 -90Q734 -105 743.0 -114.0Q752 -123 763 -123Q774 -123 781.5 -116.0Q789 -109 790 -99L840 328Q841 336 846.5 342.0Q852 348 862 348Q871 348 876.5 342.0Q882 336 884 328L933 -99Q935 -109 942.5 -116.0Q950 -123 961 -123Q972 -123 981.0 -114.0Q990 -105 988 -90Q988 -90 987.5 -65.5Q987 -41 985.5 0.0Q984 41 982.0 90.0Q980 139 978.0 188.5Q976 238 973.5 280.5Q971 323 968 350Q967 364 965.5 384.5Q964 405 961.0 425.0Q958 445 953 458Q948 476 939.0 498.5Q930 521 930.5 548.0Q931 575 953 605Z" fill="#a57939" />
<path d="M1027 258 1012 623Q1011 662 983.0 688.5Q955 715 917 715H807Q768 715 740.5 688.5Q713 662 711 623Q711 623 711.0 603.5Q711 584 710.0 555.5Q709 527 708.0 498.5Q707 470 706 453Q703 419 695.5 385.0Q688 351 680.0 322.0Q672 293 666.0 275.5Q660 258 660 258Q677 258 694.5 282.5Q712 307 729.0 345.0Q746 383 763.0 426.0Q780 469 796.5 507.5Q813 546 829.5 570.0Q846 594 862 594Q878 594 892.0 570.0Q906 546 919.5 507.5Q933 469 945.5 426.0Q958 383 971.0 345.0Q984 307 998.0 282.5Q1012 258 1027 258Z" fill="#a57939" />
<path d="M513.3130493164062 843.0086059570312Q513.3130493164062 854.29638671875 509.02655029296875 864.2982177734375Q504.74005126953125 874.300048828125 497.167236328125 881.8728637695312Q489.59442138671875 889.4456787109375 479.6640319824219 893.732177734375Q469.733642578125 898.0186767578125 458.302978515625 898.0186767578125Q446.872314453125 898.0186767578125 436.9419250488281 893.732177734375Q427.01153564453125 889.4456787109375 419.438720703125 881.8728637695312Q411.86590576171875 874.300048828125 407.57940673828125 864.2982177734375Q403.29290771484375 854.29638671875 403.29290771484375 843.0086059570312Q403.29290771484375 831.5779418945312 407.57940673828125 821.5761108398438Q411.86590576171875 811.5742797851562 419.438720703125 804.00146484375Q427.01153564453125 796.4286499023438 436.9419250488281 792.2135925292969Q446.872314453125 787.99853515625 458.302978515625 787.99853515625Q469.733642578125 787.99853515625 479.6640319824219 792.2135925292969Q489.59442138671875 796.4286499023438 497.167236328125 804.00146484375Q504.74005126953125 811.5742797851562 509.02655029296875 821.5761108398438Q513.3130493164062 831.5779418945312 513.3130493164062 843.0086059570312Z" fill="#debb90" />
<path d="M367 607Q389 577 389.5 550.0Q390 523 381.0 500.5Q372 478 367 460Q361 440 357.0 406.5Q353 373 352 352Q349 325 346.5 282.5Q344 240 342.0 190.0Q340 140 338.0 91.0Q336 42 334.5 1.5Q333 -39 332.5 -63.5Q332 -88 332 -88Q330 -103 339.0 -112.0Q348 -121 359 -121Q370 -121 377.5 -114.0Q385 -107 387 -97L436 330Q438 338 443.5 344.0Q449 350 458 350Q468 350 473.5 344.0Q479 338 480 330L530 -97Q531 -107 538.5 -114.0Q546 -121 557 -121Q568 -121 577.0 -112.0Q586 -103 585 -88Q585 -88 584.5 -63.5Q584 -39 582.5 2.0Q581 43 579.5 92.5Q578 142 576.0 192.0Q574 242 571.5 285.0Q569 328 567 356Q566 369 563.5 388.5Q561 408 558.0 427.0Q555 446 550 458Q544 476 535.0 497.5Q526 519 527.0 546.0Q528 573 550 605Z" fill="#debb90" />
<path d="M308 623 293 258Q308 258 322.0 282.5Q336 307 349.0 345.0Q362 383 374.5 426.0Q387 469 400.5 507.5Q414 546 428.0 570.0Q442 594 458 594Q474 594 490.5 570.0Q507 546 523.5 507.5Q540 469 557.0 426.0Q574 383 591.0 345.0Q608 307 625.5 282.5Q643 258 660 258Q660 258 654.0 275.5Q648 293 640.0 322.0Q632 351 624.5 385.0Q617 419 614 453Q613 471 612.0 499.0Q611 527 610.0 555.5Q609 584 609.0 603.5Q609 623 609 623Q607 662 579.5 688.5Q552 715 513 715H403Q365 715 337.0 688.5Q309 662 308 623Z" fill="#debb90" />
<path d="M532 843Q532 916 459 916Q385 916 385 843Q385 770 459 770Q532 770 532 843ZM495 843Q495 806 459 806Q422 806 422 843Q422 880 459 880Q495 880 495 843Z" fill="#000000" />
<path d="M275 278Q275 268 279 264Q283 259 293 259Q311 258 312 276L326 623Q329 697 403 697H513Q588 697 590 623Q592 500 596 451Q603 358 643 269Q651 253 667 260Q684 268 677 284Q640 368 632 454Q629 501 627 624Q625 670 592 702Q559 733 513 733H403Q357 733 324 702Q291 670 290 624Z" fill="#000000" />
<path d="M565 595Q575 610 560 620Q545 630 535 615Q491 552 527 466Q531 456 533 452Q543 425 548 354Q548 354 548 354Q559 245 567 -88Q567 -89 567 -90Q567 -96 564 -100Q561 -103 557 -103Q549 -103 548 -95L499 332Q498 333 498 333Q493 368 458 368Q424 368 418 333Q418 333 418 332L369 -95Q367 -103 359 -103Q356 -103 353 -100Q350 -96 350 -90Q350 -89 350 -89Q359 243 370 350Q370 350 370 351Q375 419 384 455Q386 460 390 472Q424 559 381 618Q371 632 356 622Q348 616 347 610Q346 603 352 596Q383 553 356 485Q351 472 349 466Q349 465 349 465Q339 426 334 354Q323 245 314 -87Q312 -109 326 -124Q340 -139 359 -139Q399 -139 405 -100Q405 -100 405 -99L454 327Q455 332 458 332Q461 332 462 327L512 -99Q512 -100 512 -100Q517 -139 557 -139Q577 -139 591 -124Q605 -109 603 -87Q596 246 585 357Q579 433 567 465Q565 470 561 480Q533 547 565 595Z" fill="#000000" />
<path d="M935 843Q935 916 862 916Q788 916 788 843Q788 770 862 770Q935 770 935 843ZM898 843Q898 806 862 806Q825 806 825 843Q825 880 862 880Q898 880 898 843Z" fill="#000000" />
<path d="M643 284Q636 268 653 260Q669 253 677 269Q717 358 724 451Q728 498 730 623Q732 697 807 697H917Q991 697 994 623L1008 276Q1009 258 1027 259Q1046 259 1045 278L1030 624Q1029 670 996 702Q963 733 917 733H807Q761 733 728 702Q695 670 693 624Q691 500 688 454Q680 368 643 284Z" fill="#000000" />
<path d="M968 594Q979 609 964 620Q949 631 939 616Q896 557 930 470Q934 458 936 453Q936 452 936 452Q944 429 950 349Q950 349 950 348Q961 241 970 -90Q970 -91 970 -92Q970 -98 967 -101Q964 -104 961 -104Q953 -104 951 -97L902 330Q902 331 902 331Q896 367 862 367Q827 367 822 331Q822 331 821 330L772 -97Q771 -104 763 -104Q759 -104 756 -101Q753 -98 753 -92Q753 -91 754 -90Q761 243 772 352Q772 352 772 353Q777 423 787 450Q787 450 787 451Q789 456 794 468Q826 551 785 613Q775 629 760 618Q752 613 751 607Q750 601 755 593Q785 547 759 481Q755 469 753 463Q741 431 735 355Q724 245 717 -89Q715 -111 729 -126Q743 -141 763 -141Q803 -141 808 -102Q808 -101 808 -101L858 326Q859 330 862 330Q865 330 866 326L915 -101Q915 -101 915 -102Q921 -141 961 -141Q980 -141 994 -126Q1008 -111 1006 -89Q997 243 986 352Q981 436 971 464Q969 470 964 483Q937 552 968 594Z" fill="#000000" />
</g></svg>