<svg xmlns="http://www.w3.org/2000/svg" viewBox="0 0 2048 2048">
<g transform="matrix(1 0 0 -1 0 2048)">
<path d="M933 540Q933 597 911.5 647.0Q890 697 852.5 735.0Q815 773 765.0 794.0Q715 815 658 815Q601 815 551.5 794.0Q502 773 464.0 735.0Q426 697 404.5 647.0Q383 597 383 540Q383 507 391 475Q406 415 444.5 367.5Q483 320 538.5 292.5Q594 265 658 265Q723 265 778.5 292.5Q834 320 872.5 367.5Q911 415 925 475Q933 507 933 540Z" fill="#9b9b9a" />
<path d="M585 808Q646 794 693.5 755.0Q741 716 769.0 660.5Q797 605 797 540Q797 507 789 475Q771 400 715.5 345.0Q660 290 585 273Q585 273 568.0 281.0Q551 289 525.0 305.5Q499 322 471.5 346.5Q444 371 422.0 403.0Q400 435 391 475Q380 525 379.5 557.0Q379 589 385.0 609.5Q391 630 400.0 644.0Q409 658 417 673Q435 708 463.5 733.5Q492 759 520.0 775.5Q548 792 566.5 800.0Q585 808 585 808Z" fill="#d0cfce" />
<path d="M1009 -33Q1009 -33 1014.0 -13.5Q1019 6 1021.5 36.0Q1024 66 1018.0 99.5Q1012 133 991.0 163.5Q970 194 927.0 213.0Q884 232 813 232Q769 203 732.5 178.0Q696 153 653 153H656Q613 153 574.0 171.5Q535 190 491 219Q436 219 400.5 201.0Q365 183 345.0 154.0Q325 125 316.5 93.0Q308 61 306.0 32.5Q304 4 305.5 -14.5Q307 -33 307 -33Z" fill="#d0cfce" />
<path d="M516.08984375 75.3837890625V-31.3271484375H801.19921875V75.3837890625Z" fill="#9b9b9a" />
<path d="M815 208Q870 208 905.0 190.5Q940 173 960.0 145.5Q980 118 989.0 87.5Q998 57 999.5 29.5Q1001 2 999.5 -15.5Q998 -33 998 -33Q998 -33 980.5 -33.0Q963 -33 904 -33Q899 -5 892.0 24.5Q885 54 862.5 79.5Q840 105 790.5 122.0Q741 139 651 142Q688 147 714.0 155.0Q740 163 763.0 175.5Q786 188 815 208Z" fill="#9b9b9a" />
<path d="M543 617Q508 606 481.0 584.0Q454 562 439 532L450 551Q449 539 449 528Q449 501 453 475L465 484Q498 502 526.5 527.0Q555 552 576.0 575.5Q597 599 608.5 615.0Q620 631 620 631Z" fill="#000000" />
<path d="M798 600Q798 600 798.0 580.5Q798 561 800.0 533.0Q802 505 807.5 478.5Q813 452 823.0 437.5Q833 423 851 432L846 419Q865 471 865 528Q865 538 864 549L874 532Q869 543 861 553Q827 600 770 617Z" fill="#000000" />
<path d="M850 432Q860 462 863 494Q859 427 830.0 373.0Q801 319 755.5 287.5Q710 256 656 256Q599 256 551.5 291.0Q504 326 476.0 385.0Q448 444 448 515Q448 524 449 539Q449 536 449.0 533.5Q449 531 449 528Q449 501 453 475L465 484Q498 502 526.5 527.0Q555 552 576.0 575.5Q597 599 608.5 615.0Q620 631 620 631L770 617L798 600Q798 600 798.0 580.5Q798 561 800.0 533.5Q802 506 807.0 479.5Q812 453 822.5 438.5Q833 424 850 432Q849 429 848.0 425.5Q847 422 846 419L851 432Q851 432 850 432Z" fill="#a57939" />
<path d="M561 -32Q560 -27 560 -22Q560 -7 571.0 3.5Q582 14 597 14Q612 14 622.5 3.5Q633 -7 633 -22Q633 -27 632 -32Z" fill="#000000" />
<path d="M684 -32Q683 -27 683 -22Q683 -7 694.0 3.5Q705 14 720 14Q735 14 745.5 3.5Q756 -7 756 -22Q756 -27 755 -32Z" fill="#000000" />
<path d="M779 -14Q779 -33 798 -33Q816 -33 816 -14V74Q816 92 798 92H518Q499 92 499 74V-14Q499 -33 518 -33Q536 -33 536 -14V55H779Z" fill="#000000" />
<path d="M769.0570068359375 550.4374389648438Q769.0570068359375 565.8302001953125 758.2820739746094 576.6051330566406Q747.5071411132812 587.3800659179688 732.1143798828125 587.3800659179688Q716.7216186523438 587.3800659179688 705.9466857910156 576.6051330566406Q695.1717529296875 565.8302001953125 695.1717529296875 550.4374389648438Q695.1717529296875 535.044677734375 705.9466857910156 524.2697448730469Q716.7216186523438 513.4948120117188 732.1143798828125 513.4948120117188Q747.5071411132812 513.4948120117188 758.2820739746094 524.2697448730469Q769.0570068359375 535.044677734375 769.0570068359375 550.4374389648438Z" fill="#000000" />
<path d="M622.0570068359375 550.4374389648438Q622.0570068359375 565.8302001953125 611.2820739746094 576.6051330566406Q600.5071411132812 587.3800659179688 585.1143798828125 587.3800659179688Q569.7216186523438 587.3800659179688 558.9466857910156 576.6051330566406Q548.1717529296875 565.8302001953125 548.1717529296875 550.4374389648438Q548.1717529296875 535.044677734375 558.9466857910156 524.2697448730469Q569.7216186523438 513.4948120117188 585.1143798828125 513.4948120117188Q600.5071411132812 513.4948120117188 611.2820739746094 524.2697448730469Q622.0570068359375 535.044677734375 622.0570068359375 550.4374389648438Z" fill="#000000" />
<path d="M659 367Q690 367 722 383Q728 386 730.5 393.0Q733 400 730 407Q726 414 719.0 416.5Q712 419 705 415Q659 392 612 415Q605 419 597.5 416.5Q590 414 587 407Q584 400 586.5 393.0Q589 386 595 383Q627 367 659 367Z" fill="#000000" />
<path d="M830 424 865 411Q885 466 885 526Q885 537 884 548L848 546Q848 536 848 526Q848 472 830 424Z" fill="#000000" />
<path d="M470 547 433 550Q433 538 433 526Q433 412 497 331Q564 248 659 248V284Q581 284 526 354Q469 425 469 526Q469 537 470 547Z" fill="#000000" />
<path d="M291 -17Q294 -35 312 -33Q330 -30 327 -12Q318 44 336 99Q368 203 487 205Q584 141 653 140Q654 140 655 140H657Q658 140 659 140Q728 141 825 205Q945 203 977 99Q994 44 985 -12Q982 -30 1000 -33Q1019 -35 1021 -17Q1031 46 1012 110Q971 242 820 242Q814 242 810 239Q716 177 656 176Q596 177 502 239Q498 242 492 242Q341 242 301 110Q281 46 291 -17Z" fill="#000000" />
<path d="M952 540Q952 662 866 748Q780 834 658 834Q537 834 451 748Q365 662 365 540Q365 505 373 471Q397 374 476 311Q556 247 658 247Q761 247 841 311Q920 374 943 471Q952 505 952 540ZM915 540Q915 509 908 480Q887 394 818 340Q748 284 658 284Q568 284 498 340Q429 394 409 480Q402 509 402 540Q402 647 477 722Q552 797 658 797Q765 797 840 722Q915 647 915 540Z" fill="#000000" />
<path d="M860 521Q869 505 885 514Q901 523 892 539Q886 551 878 562Q840 614 777 632Q717 650 658 648Q600 650 539 632Q462 609 424 539Q415 523 432 514Q448 505 456 521Q487 578 549 597Q605 613 658 612Q658 611 659 612Q712 613 767 597Q817 582 848 540Q855 531 860 521Z" fill="#000000" />
<path d="M1006 578Q1006 597 988 597Q969 597 969 578V491Q969 473 988 473Q1006 473 1006 491Z" fill="#000000" />
<path d="M344 578Q344 597 326 597Q307 597 307 578V491Q307 473 326 473Q344 473 344 491Z" fill="#000000" />
<path d="M862 410Q871 426 854 434Q838 442 830 426Q804 374 735 353Q700 342 670 342Q652 342 652 324Q652 305 670 305Q705 305 746 318Q830 344 862 410Z" fill="#000000" />
<path d="M785 -14Q785 -33 804 -33Q822 -33 822 -14V74Q822 92 804 92H524Q505 92 505 74V-14Q505 -33 524 -33Q542 -33 542 -14V55H785Z" fill="#000000" />
<path d="M818 597Q818 607 813 611Q809 616 800 616Q781 617 781 598Q780 548 786 501Q792 458 804 435Q825 396 861 414Q877 422 869 438Q861 455 844 446Q840 444 836 453Q827 469 822 506Q817 550 818 597Z" fill="#000000" />
<path d="M637 619Q648 634 632 644Q617 654 607 639Q542 544 458 498Q442 489 451 473Q455 465 461 463Q468 461 476 466Q568 516 637 619Z" fill="#000000" />
<path d="M830 424 865 411Q885 466 885 526Q885 537 884 548L848 546Q848 536 848 526Q848 472 830 424Z" fill="#000000" />
<path d="M470 547 433 550Q433 538 433 526Q433 412 497 331Q564 248 659 248V284Q581 284 526 354Q469 425 469 526Q469 537 470 547Z" fill="#000000" />
<path d="M860 521Q869 505 885 514Q901 523 892 539Q886 551 878 562Q840 614 777 632Q717 650 658 648Q600 650 539 632Q462 609 424 539Q415 523 432 514Q448 505 456 521Q487 578 549 597Q605 613 658 612Q658 611 659 612Q712 613 767 597Q817 582 848 540Q855 531 860 521Z" fill="#000000" />
<path d="M818 597Q818 607 813 611Q809 616 800 616Q781 617 781 598Q780 548 786 501Q792 458 804 435Q825 396 861 414Q877 422 869 438Q861 455 844 446Q840 444 836 453Q827 469 822 506Q817 550 818 597Z" fill="#000000" />
<path d="M637 619Q648 634 632 644Q617 654 607 639Q542 544 458 498Q442 489 451 473Q455 465 461 463Q468 461 476 466Q568 516 637 619Z" fill="#000000" />
</g></svg>