<svg xmlns="http://www.w3.org/2000/svg" viewBox="0 0 2048 2048">
<g transform="matrix(1 0 0 -1 0 2048)">
<path d="M633 709Q620 683 634.0 668.0Q648 653 668 646Q769 615 874 596Q872 593 866.5 575.5Q861 558 854.0 534.0Q847 510 840.0 486.5Q833 463 828.5 447.0Q824 431 824 431L629 491L478 302L515 270L647 403L804 316V141L892 -86L944 -68L892 141L928 349L947 376L996 606L909 648Z" fill="#6a462f" />
<path d="M1031.5235595703125 750.8665161132812Q1031.5235595703125 761.68310546875 1027.4207153320312 771.1942443847656Q1023.31787109375 780.7053833007812 1016.1068115234375 787.9164428710938Q1008.895751953125 795.1275024414062 999.3846130371094 799.2303466796875Q989.8734741210938 803.3331909179688 979.056884765625 803.3331909179688Q968.2402954101562 803.3331909179688 958.7291564941406 799.2303466796875Q949.218017578125 795.1275024414062 942.0069580078125 787.9164428710938Q934.7958984375 780.7053833007812 930.6930541992188 771.1942443847656Q926.5902099609375 761.68310546875 926.5902099609375 750.8665161132812Q926.5902099609375 740.0499267578125 930.6930541992188 730.5387878417969Q934.7958984375 721.0276489257812 942.0069580078125 713.8165893554688Q949.218017578125 706.6055297851562 958.7291564941406 702.502685546875Q968.2402954101562 698.3998413085938 979.056884765625 698.3998413085938Q989.8734741210938 698.3998413085938 999.3846130371094 702.502685546875Q1008.895751953125 706.6055297851562 1016.1068115234375 713.8165893554688Q1023.31787109375 721.0276489257812 1027.4207153320312 730.5387878417969Q1031.5235595703125 740.0499267578125 1031.5235595703125 750.8665161132812Z" fill="#6a462f" />
<path d="M770 893 687 917 161 918V-84L264 -68L348 33L418 139L465 221L458 237L446 260L431 298L526 491L561 526L613 561L625 628L592 706L641 747L743 767L770 875Z" fill="#d0cfce" />
<path d="M789 893Q789 907 776 910L692 935Q690 935 687 935L161 936Q143 936 143 918V-84Q143 -85 143 -87Q146 -105 164 -102L266 -87Q273 -85 278 -80L362 21Q362 22 363 22L434 129Q434 129 434 130L481 212Q485 220 481 228L474 245Q474 245 474 246L462 267L451 298L541 480L572 512L623 546Q630 550 631 558L643 625Q644 630 642 635L614 701L649 730L747 749Q758 751 761 763L788 871Q789 873 789 875ZM752 879V878L728 783L638 765Q633 764 630 761L580 720Q570 712 575 699L606 626L596 572L551 541Q549 540 548 539L513 504Q511 502 509 499L414 307Q411 299 414 292L429 253Q429 252 430 251L441 229L444 222L403 148L333 44L254 -51L180 -63L179 899H684Z" fill="#d0cfce" />
<path d="M940 369 995 351 1017 417 963 435Z" fill="#92d3f5" />
<path d="M849 498Q840 501 834 498Q829 496 825 487Q819 470 837 464L955 421Q972 415 979 432Q985 450 968 456Z" fill="#000000" />
<path d="M969 452Q951 458 946 441Q940 423 957 417L994 406L983 374L946 386Q929 392 923 374Q917 357 935 351L989 334Q1006 328 1012 345L1035 412Q1035 412 1035 412Q1040 429 1023 435Z" fill="#000000" />
<path d="M728 784Q724 766 742 762Q760 758 764 776L786 868Q790 886 773 890Q755 895 750 877Z" fill="#000000" />
<path d="M334 46Q324 31 340 21Q348 16 354 17Q360 19 365 27L487 219Q493 228 488 237L454 307L556 496L645 557Q654 564 653 574L647 623Q645 641 627 639Q609 637 611 619L615 581L531 523Q528 521 526 517L418 316Q413 308 417 299L451 230Z" fill="#000000" />
<path d="M1052 752Q1052 825 979 825Q948 825 927 803Q905 782 905 752Q905 721 927 700Q948 678 979 678Q1052 678 1052 752ZM1015 752Q1015 715 979 715Q942 715 942 752Q942 767 953 778Q964 788 979 788Q1015 788 1015 752Z" fill="#000000" />
<path d="M809 419Q827 414 832 432Q837 450 819 455L668 498Q667 498 667 498Q623 509 593 475Q592 475 592 474L480 334Q450 303 473 266Q473 265 474 263Q488 248 513 254Q533 259 547 273Q547 273 547 274L635 366Q651 380 669 370L765 316Q766 316 766 315Q800 299 838 296Q838 296 839 296H856Q857 296 858 296Q899 299 928 327Q929 327 929 328L938 336Q938 337 938 337Q964 365 974 402Q974 403 974 403Q977 420 981 434Q985 452 968 456Q950 461 945 443Q942 429 938 411Q931 383 911 362L903 354Q883 335 856 333H840Q810 335 783 348L687 402Q645 426 610 392Q609 392 609 392L521 299Q514 292 504 290L503 288Q497 299 507 309Q508 310 508 310L621 451Q636 468 658 463Z" fill="#000000" />
<path d="M946 346Q949 364 931 367Q913 370 910 352L880 179Q880 179 880 179Q875 142 882 105Q882 104 882 104L917 -38Q918 -39 918 -40Q923 -52 912 -58Q900 -59 897 -47Q897 -45 896 -44L834 118Q823 148 822 180V302Q822 320 804 320Q786 320 786 302V180Q786 180 786 179Q787 141 799 106Q799 105 799 105L862 -56Q873 -103 921 -93Q923 -93 925 -92Q969 -73 953 -28L918 112Q913 143 917 174Z" fill="#000000" />
<path d="M944 444Q938 426 956 421Q974 416 979 433L1012 541Q1022 575 1010 606Q997 639 967 648Q905 666 842 675Q840 675 839 675H838Q767 685 711 699Q678 708 650 716Q642 719 636 716Q630 713 628 704Q622 687 640 681Q668 672 702 664Q761 649 835 639Q836 639 837 639H838Q898 629 956 613Q991 603 977 552Z" fill="#000000" />
<path d="M1052 758Q1033 757 1034 739Q1034 730 1039 726Q1044 721 1052 721Q1052 718 1052 711Q1052 690 1056 681Q1064 655 1086 640Q1101 629 1112 644Q1122 659 1107 670Q1095 678 1090 692Q1089 696 1089 711Q1089 733 1085 741Q1075 759 1052 758ZM1052 724Q1052 724 1052 724Z" fill="#000000" />
</g></svg>