<svg xmlns="http://www.w3.org/2000/svg" viewBox="0 0 2048 2048">
<g transform="matrix(1 0 0 -1 0 2048)">
<path d="M91.5877685546875 733.1798706054688V36.51513671875H1228.2723388671875V733.1798706054688Z" fill="#b1cc33" />
<path d="M91.5877685546875 733.1392211914062V494.77978515625H1228.2723388671875V733.1392211914062Z" fill="#61b2e4" />
<path d="M91.5877685546875 490.38275146484375V279.53662109375H1228.2723388671875V490.38275146484375Z" fill="#ffffff" />
<path d="M78 504V266H1242V504ZM105 477H1215V293H105Z" fill="#d22f27" />
<path d="M555.0594482421875 660.4281005859375Q555.0594482421875 664.213134765625 553.6353759765625 667.5484619140625Q552.2113037109375 670.8837890625 549.700439453125 673.3946533203125Q547.1895751953125 675.905517578125 543.854248046875 677.32958984375Q540.5189208984375 678.753662109375 536.73388671875 678.753662109375Q532.9488525390625 678.753662109375 529.613525390625 677.32958984375Q526.2781982421875 675.905517578125 523.767333984375 673.3946533203125Q521.2564697265625 670.8837890625 519.8323974609375 667.5484619140625Q518.4083251953125 664.213134765625 518.4083251953125 660.4281005859375Q518.4083251953125 656.64306640625 519.8323974609375 653.3077392578125Q521.2564697265625 649.972412109375 523.767333984375 647.4615478515625Q526.2781982421875 644.95068359375 529.613525390625 643.526611328125Q532.9488525390625 642.1025390625 536.73388671875 642.1025390625Q540.5189208984375 642.1025390625 543.854248046875 643.526611328125Q547.1895751953125 644.95068359375 549.700439453125 647.4615478515625Q552.2113037109375 649.972412109375 553.6353759765625 653.3077392578125Q555.0594482421875 656.64306640625 555.0594482421875 660.4281005859375Z" fill="#ffffff" />
<path d="M555.0594482421875 605.4281005859375Q555.0594482421875 609.213134765625 553.6353759765625 612.5484619140625Q552.2113037109375 615.8837890625 549.700439453125 618.3946533203125Q547.1895751953125 620.905517578125 543.854248046875 622.32958984375Q540.5189208984375 623.753662109375 536.73388671875 623.753662109375Q532.9488525390625 623.753662109375 529.613525390625 622.32958984375Q526.2781982421875 620.905517578125 523.767333984375 618.3946533203125Q521.2564697265625 615.8837890625 519.8323974609375 612.5484619140625Q518.4083251953125 609.213134765625 518.4083251953125 605.4281005859375Q518.4083251953125 601.64306640625 519.8323974609375 598.3077392578125Q521.2564697265625 594.972412109375 523.767333984375 592.4615478515625Q526.2781982421875 589.95068359375 529.613525390625 588.526611328125Q532.9488525390625 587.1025390625 536.73388671875 587.1025390625Q540.5189208984375 587.1025390625 543.854248046875 588.526611328125Q547.1895751953125 589.95068359375 549.700439453125 592.4615478515625Q552.2113037109375 594.972412109375 553.6353759765625 598.3077392578125Q555.0594482421875 601.64306640625 555.0594482421875 605.4281005859375Z" fill="#ffffff" />
<path d="M555.0594482421875 550.4281005859375Q555.0594482421875 554.213134765625 553.6353759765625 557.5484619140625Q552.2113037109375 560.8837890625 549.700439453125 563.3946533203125Q547.1895751953125 565.905517578125 543.854248046875 567.32958984375Q540.5189208984375 568.753662109375 536.73388671875 568.753662109375Q532.9488525390625 568.753662109375 529.613525390625 567.32958984375Q526.2781982421875 565.905517578125 523.767333984375 563.3946533203125Q521.2564697265625 560.8837890625 519.8323974609375 557.5484619140625Q518.4083251953125 554.213134765625 518.4083251953125 550.4281005859375Q518.4083251953125 546.64306640625 519.8323974609375 543.3077392578125Q521.2564697265625 539.972412109375 523.767333984375 537.4615478515625Q526.2781982421875 534.95068359375 529.613525390625 533.526611328125Q532.9488525390625 532.1025390625 536.73388671875 532.1025390625Q540.5189208984375 532.1025390625 543.854248046875 533.526611328125Q547.1895751953125 534.95068359375 549.700439453125 537.4615478515625Q552.2113037109375 539.972412109375 553.6353759765625 543.3077392578125Q555.0594482421875 546.64306640625 555.0594482421875 550.4281005859375Z" fill="#ffffff" />
<path d="M500.0594482421875 660.4281005859375Q500.0594482421875 664.213134765625 498.6353759765625 667.5484619140625Q497.2113037109375 670.8837890625 494.700439453125 673.3946533203125Q492.1895751953125 675.905517578125 488.854248046875 677.32958984375Q485.5189208984375 678.753662109375 481.73388671875 678.753662109375Q477.9488525390625 678.753662109375 474.613525390625 677.32958984375Q471.2781982421875 675.905517578125 468.767333984375 673.3946533203125Q466.2564697265625 670.8837890625 464.8323974609375 667.5484619140625Q463.4083251953125 664.213134765625 463.4083251953125 660.4281005859375Q463.4083251953125 656.64306640625 464.8323974609375 653.3077392578125Q466.2564697265625 649.972412109375 468.767333984375 647.4615478515625Q471.2781982421875 644.95068359375 474.613525390625 643.526611328125Q477.9488525390625 642.1025390625 481.73388671875 642.1025390625Q485.5189208984375 642.1025390625 488.854248046875 643.526611328125Q492.1895751953125 644.95068359375 494.700439453125 647.4615478515625Q497.2113037109375 649.972412109375 498.6353759765625 653.3077392578125Q500.0594482421875 656.64306640625 500.0594482421875 660.4281005859375Z" fill="#ffffff" />
<path d="M500.0594482421875 605.4281005859375Q500.0594482421875 609.213134765625 498.6353759765625 612.5484619140625Q497.2113037109375 615.8837890625 494.700439453125 618.3946533203125Q492.1895751953125 620.905517578125 488.854248046875 622.32958984375Q485.5189208984375 623.753662109375 481.73388671875 623.753662109375Q477.9488525390625 623.753662109375 474.613525390625 622.32958984375Q471.2781982421875 620.905517578125 468.767333984375 618.3946533203125Q466.2564697265625 615.8837890625 464.8323974609375 612.5484619140625Q463.4083251953125 609.213134765625 463.4083251953125 605.4281005859375Q463.4083251953125 601.64306640625 464.8323974609375 598.3077392578125Q466.2564697265625 594.972412109375 468.767333984375 592.4615478515625Q471.2781982421875 589.95068359375 474.613525390625 588.526611328125Q477.9488525390625 587.1025390625 481.73388671875 587.1025390625Q485.5189208984375 587.1025390625 488.854248046875 588.526611328125Q492.1895751953125 589.95068359375 494.700439453125 592.4615478515625Q497.2113037109375 594.972412109375 498.6353759765625 598.3077392578125Q500.0594482421875 601.64306640625 500.0594482421875 605.4281005859375Z" fill="#ffffff" />
<path d="M500.0594482421875 550.4281005859375Q500.0594482421875 554.213134765625 498.6353759765625 557.5484619140625Q497.2113037109375 560.8837890625 494.700439453125 563.3946533203125Q492.1895751953125 565.905517578125 488.854248046875 567.32958984375Q485.5189208984375 568.753662109375 481.73388671875 568.753662109375Q477.9488525390625 568.753662109375 474.613525390625 567.32958984375Q471.2781982421875 565.905517578125 468.767333984375 563.3946533203125Q466.2564697265625 560.8837890625 464.8323974609375 557.5484619140625Q463.4083251953125 554.213134765625 463.4083251953125 550.4281005859375Q463.4083251953125 546.64306640625 464.8323974609375 543.3077392578125Q466.2564697265625 539.972412109375 468.767333984375 537.4615478515625Q471.2781982421875 534.95068359375 474.613525390625 533.526611328125Q477.9488525390625 532.1025390625 481.73388671875 532.1025390625Q485.5189208984375 532.1025390625 488.854248046875 533.526611328125Q492.1895751953125 534.95068359375 494.700439453125 537.4615478515625Q497.2113037109375 539.972412109375 498.6353759765625 543.3077392578125Q500.0594482421875 546.64306640625 500.0594482421875 550.4281005859375Z" fill="#ffffff" />
<path d="M445.0594482421875 660.4281005859375Q445.0594482421875 664.213134765625 443.6353759765625 667.5484619140625Q442.2113037109375 670.8837890625 439.700439453125 673.3946533203125Q437.1895751953125 675.905517578125 433.854248046875 677.32958984375Q430.5189208984375 678.753662109375 426.73388671875 678.753662109375Q422.9488525390625 678.753662109375 419.613525390625 677.32958984375Q416.2781982421875 675.905517578125 413.767333984375 673.3946533203125Q411.2564697265625 670.8837890625 409.8323974609375 667.5484619140625Q408.4083251953125 664.213134765625 408.4083251953125 660.4281005859375Q408.4083251953125 656.64306640625 409.8323974609375 653.3077392578125Q411.2564697265625 649.972412109375 413.767333984375 647.4615478515625Q416.2781982421875 644.95068359375 419.613525390625 643.526611328125Q422.9488525390625 642.1025390625 426.73388671875 642.1025390625Q430.5189208984375 642.1025390625 433.854248046875 643.526611328125Q437.1895751953125 644.95068359375 439.700439453125 647.4615478515625Q442.2113037109375 649.972412109375 443.6353759765625 653.3077392578125Q445.0594482421875 656.64306640625 445.0594482421875 660.4281005859375Z" fill="#ffffff" />
<path d="M445.0594482421875 605.4281005859375Q445.0594482421875 609.213134765625 443.6353759765625 612.5484619140625Q442.2113037109375 615.8837890625 439.700439453125 618.3946533203125Q437.1895751953125 620.905517578125 433.854248046875 622.32958984375Q430.5189208984375 623.753662109375 426.73388671875 623.753662109375Q422.9488525390625 623.753662109375 419.613525390625 622.32958984375Q416.2781982421875 620.905517578125 413.767333984375 618.3946533203125Q411.2564697265625 615.8837890625 409.8323974609375 612.5484619140625Q408.4083251953125 609.213134765625 408.4083251953125 605.4281005859375Q408.4083251953125 601.64306640625 409.8323974609375 598.3077392578125Q411.2564697265625 594.972412109375 413.767333984375 592.4615478515625Q416.2781982421875 589.95068359375 419.613525390625 588.526611328125Q422.9488525390625 587.1025390625 426.73388671875 587.1025390625Q430.5189208984375 587.1025390625 433.854248046875 588.526611328125Q437.1895751953125 589.95068359375 439.700439453125 592.4615478515625Q442.2113037109375 594.972412109375 443.6353759765625 598.3077392578125Q445.0594482421875 601.64306640625 445.0594482421875 605.4281005859375Z" fill="#ffffff" />
<path d="M445.0594482421875 550.4281005859375Q445.0594482421875 554.213134765625 443.6353759765625 557.5484619140625Q442.2113037109375 560.8837890625 439.700439453125 563.3946533203125Q437.1895751953125 565.905517578125 433.854248046875 567.32958984375Q430.5189208984375 568.753662109375 426.73388671875 568.753662109375Q422.9488525390625 568.753662109375 419.613525390625 567.32958984375Q416.2781982421875 565.905517578125 413.767333984375 563.3946533203125Q411.2564697265625 560.8837890625 409.8323974609375 557.5484619140625Q408.4083251953125 554.213134765625 408.4083251953125 550.4281005859375Q408.4083251953125 546.64306640625 409.8323974609375 543.3077392578125Q411.2564697265625 539.972412109375 413.767333984375 537.4615478515625Q416.2781982421875 534.95068359375 419.613525390625 533.526611328125Q422.9488525390625 532.1025390625 426.73388671875 532.1025390625Q430.5189208984375 532.1025390625 433.854248046875 533.526611328125Q437.1895751953125 534.95068359375 439.700439453125 537.4615478515625Q442.2113037109375 539.972412109375 443.6353759765625 543.3077392578125Q445.0594482421875 546.64306640625 445.0594482421875 550.4281005859375Z" fill="#ffffff" />
<path d="M390.0594482421875 605.4281005859375Q390.0594482421875 609.213134765625 388.6353759765625 612.5484619140625Q387.2113037109375 615.8837890625 384.700439453125 618.3946533203125Q382.1895751953125 620.905517578125 378.854248046875 622.32958984375Q375.5189208984375 623.753662109375 371.73388671875 623.753662109375Q367.9488525390625 623.753662109375 364.613525390625 622.32958984375Q361.2781982421875 620.905517578125 358.767333984375 618.3946533203125Q356.2564697265625 615.8837890625 354.8323974609375 612.5484619140625Q353.4083251953125 609.213134765625 353.4083251953125 605.4281005859375Q353.4083251953125 601.64306640625 354.8323974609375 598.3077392578125Q356.2564697265625 594.972412109375 358.767333984375 592.4615478515625Q361.2781982421875 589.95068359375 364.613525390625 588.526611328125Q367.9488525390625 587.1025390625 371.73388671875 587.1025390625Q375.5189208984375 587.1025390625 378.854248046875 588.526611328125Q382.1895751953125 589.95068359375 384.700439453125 592.4615478515625Q387.2113037109375 594.972412109375 388.6353759765625 598.3077392578125Q390.0594482421875 601.64306640625 390.0594482421875 605.4281005859375Z" fill="#ffffff" />
<path d="M390.0594482421875 550.4281005859375Q390.0594482421875 554.213134765625 388.6353759765625 557.5484619140625Q387.2113037109375 560.8837890625 384.700439453125 563.3946533203125Q382.1895751953125 565.905517578125 378.854248046875 567.32958984375Q375.5189208984375 568.753662109375 371.73388671875 568.753662109375Q367.9488525390625 568.753662109375 364.613525390625 567.32958984375Q361.2781982421875 565.905517578125 358.767333984375 563.3946533203125Q356.2564697265625 560.8837890625 354.8323974609375 557.5484619140625Q353.4083251953125 554.213134765625 353.4083251953125 550.4281005859375Q353.4083251953125 546.64306640625 354.8323974609375 543.3077392578125Q356.2564697265625 539.972412109375 358.767333984375 537.4615478515625Q361.2781982421875 534.95068359375 364.613525390625 533.526611328125Q367.9488525390625 532.1025390625 371.73388671875 532.1025390625Q375.5189208984375 532.1025390625 378.854248046875 533.526611328125Q382.1895751953125 534.95068359375 384.700439453125 537.4615478515625Q387.2113037109375 539.972412109375 388.6353759765625 543.3077392578125Q390.0594482421875 546.64306640625 390.0594482421875 550.4281005859375Z" fill="#ffffff" />
<path d="M335.0594482421875 550.4281005859375Q335.0594482421875 554.213134765625 333.6353759765625 557.5484619140625Q332.2113037109375 560.8837890625 329.700439453125 563.3946533203125Q327.1895751953125 565.905517578125 323.854248046875 567.32958984375Q320.5189208984375 568.753662109375 316.73388671875 568.753662109375Q312.9488525390625 568.753662109375 309.613525390625 567.32958984375Q306.2781982421875 565.905517578125 303.767333984375 563.3946533203125Q301.2564697265625 560.8837890625 299.8323974609375 557.5484619140625Q298.4083251953125 554.213134765625 298.4083251953125 550.4281005859375Q298.4083251953125 546.64306640625 299.8323974609375 543.3077392578125Q301.2564697265625 539.972412109375 303.767333984375 537.4615478515625Q306.2781982421875 534.95068359375 309.613525390625 533.526611328125Q312.9488525390625 532.1025390625 316.73388671875 532.1025390625Q320.5189208984375 532.1025390625 323.854248046875 533.526611328125Q327.1895751953125 534.95068359375 329.700439453125 537.4615478515625Q332.2113037109375 539.972412109375 333.6353759765625 543.3077392578125Q335.0594482421875 546.64306640625 335.0594482421875 550.4281005859375Z" fill="#ffffff" />
<path d="M207 605Q207 582 221.0 564.5Q235 547 257 542Q251 541 245 541Q219 542 201.0 560.5Q183 579 183 605Q183 631 201.0 649.5Q219 668 245 669Q251 669 257 668Q235 663 221.0 645.5Q207 628 207 605Z" fill="#ffffff" />
<path d="M216 605Q216 649 259 659Q268 661 266 670Q264 676 259 677Q252 678 245 678Q245 678 244 678Q174 675 174 605Q174 535 244 532Q245 532 245 532Q252 532 259 533Q263 534 265 537Q267 539 266 544Q264 550 259 551Q216 561 216 605Q216 605 216 605ZM198 605Q198 579 208 562Q193 576 193 605Q193 634 208 648Q198 631 198 605Z" fill="#ffffff" />
<path d="M73 37Q73 18 92 18H1228Q1247 18 1247 37V733Q1247 752 1228 752H92Q73 752 73 733ZM110 715H1210V55H110Z" fill="#000000" />
</g></svg>