<svg xmlns="http://www.w3.org/2000/svg" viewBox="0 0 2048 2048">
<g transform="matrix(1 0 0 -1 0 2048)">
<path d="M1001 -46Q1000 -45 1000.5 -27.0Q1001 -9 999.0 20.0Q997 49 988.5 81.0Q980 113 961.0 141.5Q942 170 909.0 188.0Q876 206 824 206Q781 177 737.5 158.0Q694 139 653 139H655Q614 139 575.5 157.0Q537 175 494 204Q440 204 405.0 186.0Q370 168 350.0 139.5Q330 111 321.0 79.0Q312 47 310.0 18.5Q308 -10 309.0 -28.0Q310 -46 310 -46Z" fill="#92d3f5" />
<path d="M826 224Q880 224 914.5 204.5Q949 185 968.0 154.0Q987 123 995.0 89.0Q1003 55 1004.5 24.0Q1006 -7 1004.0 -26.5Q1002 -46 1002 -46H910Q906 -24 901.5 2.0Q897 28 884.5 53.5Q872 79 847.0 101.0Q822 123 777.0 137.5Q732 152 662 154Q698 159 724.5 168.0Q751 177 774.5 191.0Q798 205 826 224Z" fill="#61b2e4" />
<path d="M658 51 625 -7 596 -43Q594 -44 595 -46Q596 -48 598 -48H718Q720 -48 721 -46Q722 -44 721 -43L692 -7Z" fill="#3f3f3f" />
<path d="M704 94 657 142 610 93 613 90Q615 70 624.5 52.5Q634 35 658 35Q683 35 692.5 53.5Q702 72 704 94Z" fill="#3f3f3f" />
<path d="M923 725Q891 733 869.5 750.0Q848 767 829.0 787.5Q810 808 788.5 826.5Q767 845 736.5 857.0Q706 869 660 869Q614 869 584.0 857.0Q554 845 532.5 826.5Q511 808 492.0 787.5Q473 767 451.5 750.0Q430 733 398 725Q387 722 386.5 710.0Q386 698 392.0 683.5Q398 669 405 660L442 616L445 614Q458 632 477 646L491 657Q476 666 464 678H850Q839 666 826 656L838 646Q859 631 873 610L874 611L915 660Q923 669 929.0 683.5Q935 698 934.5 710.0Q934 722 923 725ZM661 719Q646 719 637.0 729.5Q628 740 623.0 754.5Q618 769 616.0 780.0Q614 791 614 791Q635 806 660.5 805.5Q686 805 706 790Q706 790 704.5 779.0Q703 768 698.0 754.0Q693 740 684.5 729.5Q676 719 661 719Z" fill="#92d3f5" />
<path d="M786 829Q792 815 815.0 795.5Q838 776 866.0 757.5Q894 739 914.0 726.5Q934 714 934 714Q935 691 925.0 673.0Q915 655 902.0 643.0Q889 631 878.5 624.5Q868 618 868 618L836 673L738 679Q758 679 768.5 694.0Q779 709 783.0 731.5Q787 754 787.5 776.5Q788 799 787.0 814.0Q786 829 786 829Z" fill="#61b2e4" />
<path d="M662 723Q676 723 685.0 734.0Q694 745 699.0 759.0Q704 773 705.5 783.5Q707 794 707 794Q687 810 661.5 810.0Q636 810 615 795Q615 795 617.0 784.0Q619 773 624.0 759.0Q629 745 638.0 734.0Q647 723 662 723Z" fill="#fcea2b" />
<path d="M623 613Q692 605 758 623Q795 633 826 656Q840 666 850 678H464Q476 666 491 657Q552 619 623 613Z" fill="#3f3f3f" />
<path d="M621 619Q546 626 484 667V666Q460 647 444 622Q419 590 420.5 549.0Q422 508 449 477Q449 477 457.5 496.0Q466 515 486.0 540.5Q506 566 539.0 588.5Q572 611 621 619Z" fill="#a57939" />
<path d="M870 615Q852 641 827 661L826 662Q794 638 756 628Q773 627 788.5 611.0Q804 595 817.5 573.0Q831 551 841.0 529.0Q851 507 856.5 492.0Q862 477 862 477Q888 506 890.0 544.5Q892 583 870 615Z" fill="#a57939" />
<path d="M660 617Q660 617 638.5 612.0Q617 607 585.5 597.5Q554 588 522.5 574.0Q491 560 470.5 541.5Q450 523 451 500Q451 428 479.0 369.0Q507 310 554.0 275.0Q601 240 659 240Q716 240 763.0 275.0Q810 310 838.5 369.0Q867 428 867 500Q867 510 853.0 531.0Q839 552 819.5 574.0Q800 596 785.5 611.5Q771 627 771 627Z" fill="#fadcbc" />
<path d="M905.0570068359375 18.43743896484375Q905.0570068359375 33.8302001953125 894.2820739746094 44.605133056640625Q883.5071411132812 55.38006591796875 868.1143798828125 55.38006591796875Q852.7216186523438 55.38006591796875 841.9466857910156 44.605133056640625Q831.1717529296875 33.8302001953125 831.1717529296875 18.43743896484375Q831.1717529296875 3.044677734375 841.9466857910156 -7.730255126953125Q852.7216186523438 -18.50518798828125 868.1143798828125 -18.50518798828125Q883.5071411132812 -18.50518798828125 894.2820739746094 -7.730255126953125Q905.0570068359375 3.044677734375 905.0570068359375 18.43743896484375Z" fill="#000000" />
<path d="M293 -33Q296 -52 314 -49Q332 -46 329 -28Q320 27 338 83Q370 187 489 189Q588 124 657 123H659Q729 124 827 189Q947 187 979 83Q996 27 987 -28Q984 -46 1003 -49Q1021 -52 1023 -33Q1033 30 1014 94Q973 226 822 226Q816 226 812 223L809 221Q718 161 659 160H657Q598 161 504 223Q500 226 494 226Q343 226 303 94Q283 30 293 -33Z" fill="#000000" />
<path d="M511 215Q508 223 502 226Q496 228 487 225Q470 217 477 200L546 38Q550 29 556 27Q562 24 570 28Q574 29 576 32L623 80L670 129Q683 142 670 155Q657 168 644 155L597 106L569 77Z" fill="#000000" />
<path d="M691 81Q703 68 717 81Q730 93 717 107L670 155Q657 168 644 155Q631 142 644 129Z" fill="#000000" />
<path d="M837 201Q844 217 827 225Q810 232 803 215L802 212L745 77L717 106Q704 120 691 107Q678 94 691 81L738 32Q741 29 744 28Q761 21 768 38L836 198Z" fill="#000000" />
<path d="M631 92Q629 110 611 109Q593 107 595 89Q601 17 658 17Q717 17 722 92Q722 93 722 94Q722 112 704 112Q686 112 685 94Q682 54 658 54Q635 54 631 92Z" fill="#000000" />
<path d="M658.2117919921875 24.9736328125Q668.4513549804688 40.9937744140625 652.821533203125 50.12451171875Q637.9290771484375 60.6513671875 627.3626098632812 45.6959228515625L583.5384521484375 -20.443603515625Q577.7230834960938 -28.0870361328125 579.6845092773438 -34.4752197265625Q580.5816650390625 -41.19482421875 587.8644409179688 -45.9259033203125Q603.8211669921875 -56.121337890625 614.3876342773438 -41.1658935546875Z" fill="#000000" />
<path d="M689 46Q679 61 663 51Q648 40 658 25L703 -41Q713 -56 728 -46Q744 -36 733 -20Z" fill="#000000" />
<path d="M494 -21Q502 -21 507.5 -15.5Q513 -10 513 -2Q513 5 507.5 10.5Q502 16 494 16H387Q380 16 374.5 10.5Q369 5 369 -2Q369 -10 374.5 -15.5Q380 -21 387 -21Z" fill="#000000" />
<path d="M733 572Q718 572 707 561Q696 550 696 535Q696 520 707.0 509.0Q718 498 733 498Q748 498 759.0 509.0Q770 520 770 535Q770 550 759.0 561.0Q748 572 733 572Z" fill="#000000" />
<path d="M586 572Q571 572 560 561Q549 550 549 535Q549 520 560.0 509.0Q571 498 586 498Q601 498 612.0 509.0Q623 520 623 535Q623 550 612.0 561.0Q601 572 586 572Z" fill="#000000" />
<path d="M660 352Q694 352 724 367Q730 371 732.5 378.0Q735 385 732 392Q728 399 721.0 401.5Q714 404 707 400Q660 375 614 400Q607 404 599.5 401.5Q592 399 589 392Q586 385 588.0 378.0Q590 371 597 367Q627 352 660 352Z" fill="#000000" />
<path d="M660 232Q718 232 767.0 264.5Q816 297 847.5 353.0Q879 409 885 479Q887 494 887 510H850Q850 496 849 482Q843 421 816.5 373.0Q790 325 749.5 297.0Q709 269 660 269Q612 269 571.0 298.0Q530 327 503.0 376.5Q476 426 472 487L435 484Q441 412 472.0 355.0Q503 298 552.5 265.0Q602 232 660 232Z" fill="#000000" />
<path d="M662 705Q682 705 694.5 717.0Q707 729 713.5 745.5Q720 762 722.5 775.5Q725 789 725 793Q726 801 720 807Q695 828 662.5 828.5Q630 829 604 810Q596 803 597 793Q597 790 600.0 776.0Q603 762 609.5 745.5Q616 729 629.0 717.0Q642 705 662 705ZM662 741Q652 741 645.0 756.0Q638 771 635 786Q661 798 687 786Q685 773 678.5 757.0Q672 741 662 741V723Z" fill="#000000" />
<path d="M665 597Q673 597 681 597Q741 599 789.0 618.5Q837 638 865 671Q872 680 867 690Q862 701 851 701H465Q452 701 448 690Q443 678 452 670Q485 636 543.0 616.5Q601 597 665 597ZM522 664H800Q743 634 680 634Q597 629 522 664Z" fill="#000000" />
<path d="M875 597Q884 597 889 603L930 653Q940 664 948.5 685.5Q957 707 952 725Q946 743 928 747Q899 755 879.0 772.0Q859 789 840 808Q821 828 798.0 847.0Q775 866 742.5 879.0Q710 892 661 892Q613 892 580.0 879.0Q547 866 524.5 847.0Q502 828 483 808Q463 789 443.0 772.0Q423 755 394 747Q376 743 371 725Q365 707 374.0 685.5Q383 664 392 653L429 608Q434 603 441.5 602.0Q449 601 455 606Q461 611 461.5 618.5Q462 626 457 632L420 676Q407 692 405 712Q467 732 509 782Q527 801 546.5 817.5Q566 834 593.0 844.5Q620 855 661 855Q702 855 729.0 844.5Q756 834 775.5 817.5Q795 801 814 782Q855 732 917 712Q915 692 902 676L861 627Q854 618 859 607Q863 597 875 597Z" fill="#000000" />
<path d="M450 457Q452 457 453 457Q464 459 467 469Q487 520 529.5 554.0Q572 588 626 597Q633 598 638 604Q642 610 641 617Q640 625 634 630Q628 634 621 633Q566 625 520.0 593.5Q474 562 448 513Q436 537 439 563Q449 607 486 634Q493 639 494.0 646.5Q495 654 491 660Q487 666 479.5 667.5Q472 669 466 665Q416 629 403 568Q396 509 436 464Q441 457 450 457Z" fill="#000000" />
<path d="M863 457Q872 457 878 464Q917 509 910 568Q898 629 848 665Q842 669 834.5 667.5Q827 666 823 660Q818 654 819.5 646.5Q821 639 827 634Q864 607 874 563Q877 539 867 516Q857 541 841.0 570.0Q825 599 804.0 620.5Q783 642 759 644Q751 645 745.5 640.0Q740 635 739 627Q739 620 743.5 614.0Q748 608 756 608Q771 606 788.5 583.0Q806 560 821.5 528.0Q837 496 846 469Q850 457 863 457Z" fill="#000000" />
</g></svg>