<svg xmlns="http://www.w3.org/2000/svg" viewBox="0 0 2048 2048">
<g transform="matrix(1 0 0 -1 0 2048)">
<path d="M496 36 399 20 840 45 829 -20Q753 -49 695.5 -70.5Q638 -92 591.0 -103.5Q544 -115 501.0 -114.0Q458 -113 413.0 -97.5Q368 -82 313 -49Q313 -49 311.5 -31.5Q310 -14 311.5 13.0Q313 40 322.0 70.5Q331 101 351.0 128.0Q371 155 406.0 172.5Q441 190 496 190Q540 160 579.5 142.0Q619 124 661 124H659Q701 124 740.5 142.0Q780 160 824 190Q879 190 914.5 172.5Q950 155 970.0 128.0Q990 101 998.5 70.5Q1007 40 1008.5 13.0Q1010 -14 1008.5 -31.5Q1007 -49 1007 -49Q883 -133 734 -124L829 -20L849 72L835 117Z" fill="#92d3f5" />
<path d="M312 -49Q312 -49 311.0 -31.5Q310 -14 311.5 13.0Q313 40 321.5 70.5Q330 101 350.0 128.0Q370 155 405.5 172.5Q441 190 496 190Q540 160 579.0 142.0Q618 124 661 124H658Q701 124 740.5 142.0Q780 160 823 190Q878 190 913.5 172.5Q949 155 969.0 128.0Q989 101 997.5 70.5Q1006 40 1008.0 13.0Q1010 -14 1008.5 -31.5Q1007 -49 1007 -49Z" fill="#92d3f5" />
<path d="M829 190Q884 190 919.0 172.5Q954 155 974.0 128.0Q994 101 1003.0 70.5Q1012 40 1013.5 13.0Q1015 -14 1013.5 -31.5Q1012 -49 1012 -49H918Q913 -21 905.5 8.0Q898 37 876.0 62.5Q854 88 804.5 104.5Q755 121 665 124Q756 134 829 190Z" fill="#61b2e4" />
<path d="M1012 -49Q1012 1 996.0 28.0Q980 55 955.5 65.5Q931 76 906.5 77.0Q882 78 865.5 75.0Q849 72 849 72L828 -20L632 -103Q673 -131 717.0 -138.0Q761 -145 803.5 -138.5Q846 -132 883.5 -117.5Q921 -103 950.0 -87.0Q979 -71 995.5 -60.0Q1012 -49 1012 -49Z" fill="#61b2e4" />
<path d="M868 492Q868 562 840.5 623.0Q813 684 764 719Q716 754 660.0 754.0Q604 754 555 719Q507 684 479.0 623.0Q451 562 452 492Q451 422 479.0 361.0Q507 300 555 265Q604 230 660.0 230.0Q716 230 764 265Q813 300 840.5 361.0Q868 422 868 492Z" fill="#92d3f5" />
<path d="M686 678Q770 598 863 526Q863 526 877.0 536.5Q891 547 908.5 567.5Q926 588 937.0 618.0Q948 648 942.0 687.5Q936 727 902 775Q882 794 850.5 817.0Q819 840 770.0 856.0Q721 872 650 872Q591 872 549.5 857.0Q508 842 481.0 820.0Q454 798 438.5 776.0Q423 754 417.0 739.0Q411 724 411 724Q400 687 404.0 652.0Q408 617 420.0 588.5Q432 560 442.0 543.5Q452 527 452 527Q452 527 475.5 545.0Q499 563 541.0 592.5Q583 622 639.5 655.5Q696 689 762.5 720.5Q829 752 902 775Z" fill="#ffffff" />
<path d="M660 184Q625 185 593.5 203.5Q562 222 536.5 251.5Q511 281 494.0 316.0Q477 351 471 384Q493 345 520.5 326.5Q548 308 572.5 303.0Q597 298 613.0 299.0Q629 300 629 300L660 348L692 300Q692 300 708.0 299.0Q724 298 748.5 303.0Q773 308 800.0 326.5Q827 345 850 384Q844 351 827.0 316.0Q810 281 784.5 251.5Q759 222 727.0 203.5Q695 185 661 184Z" fill="#3f3f3f" />
<path d="M686 678Q770 598 863 526Q863 526 877.0 536.5Q891 547 908.5 567.5Q926 588 937.0 618.0Q948 648 942.0 687.5Q936 727 902 775Z" fill="#d0cfce" />
<path d="M661 572Q676 572 686.5 582.5Q697 593 697 609V682Q697 697 686.5 708.0Q676 719 661 719Q646 719 635.0 708.0Q624 697 624 682V609Q624 593 635.0 582.5Q646 572 661 572Z" fill="#fcea2b" />
<path d="M828 -20 840 43H747V-54Z" fill="#fcea2b" />
<path d="M735 -106Q716 -105 715 -123Q715 -132 719 -137Q723 -142 732 -142Q889 -152 1018 -64Q1024 -59 1026 -51Q1035 12 1016 76Q975 208 824 208Q819 208 814 205Q720 143 660 142Q600 143 507 205Q502 208 496 208Q345 208 305 76Q285 12 295 -51Q296 -60 304 -64Q429 -140 533 -132Q605 -126 792 -54Q820 -43 835 -37Q845 -33 847 -23L858 41Q861 59 843 63Q841 63 839 63L398 38Q379 37 380 19Q381 10 386 5Q391 1 400 1L818 25L812 -7Q799 -12 779 -19Q597 -90 530 -95Q440 -102 330 -37Q324 14 340 65Q372 169 491 171Q589 107 657 106Q658 105 659 105H661Q662 105 663 106Q732 107 830 171Q949 169 981 65Q997 14 990 -38Q874 -114 735 -106Z" fill="#000000" />
<path d="M852 123Q847 140 829 134Q812 129 817 111L830 71L811 -16Q807 -34 825 -38Q842 -42 846 -24L867 68Q868 72 867 77Z" fill="#000000" />
<path d="M454 377Q461 360 478 366Q495 373 489 390Q471 439 471 492Q471 510 473 527Q475 545 456 547Q438 549 436 531Q434 512 434 492Q434 433 454 377Z" fill="#000000" />
<path d="M884 530Q882 548 864 546Q855 545 851 540Q847 535 848 526Q850 509 850 492Q850 439 832 389Q825 372 842 366Q860 359 866 376Q887 432 887 492Q886 511 884 530Z" fill="#000000" />
<path d="M770.6845703125 516.6748657226562Q770.6845703125 532.0086669921875 760.017578125 542.6756591796875Q749.3505859375 553.3426513671875 734.0167846679688 553.3426513671875Q718.6829833984375 553.3426513671875 708.0159912109375 542.6756591796875Q697.3489990234375 532.0086669921875 697.3489990234375 516.6748657226562Q697.3489990234375 502.00775146484375 708.0159912109375 491.0074157714844Q718.6829833984375 480.007080078125 734.0167846679688 480.007080078125Q749.3505859375 480.007080078125 760.017578125 491.0074157714844Q770.6845703125 502.00775146484375 770.6845703125 516.6748657226562Z" fill="#000000" />
<path d="M623.6845703125 516.6748657226562Q623.6845703125 532.0086669921875 613.017578125 542.6756591796875Q602.3505859375 553.3426513671875 587.0167846679688 553.3426513671875Q571.6829833984375 553.3426513671875 561.0159912109375 542.6756591796875Q550.3489990234375 532.0086669921875 550.3489990234375 516.6748657226562Q550.3489990234375 502.00775146484375 561.0159912109375 491.0074157714844Q571.6829833984375 480.007080078125 587.0167846679688 480.007080078125Q602.3505859375 480.007080078125 613.017578125 491.0074157714844Q623.6845703125 502.00775146484375 623.6845703125 516.6748657226562Z" fill="#000000" />
<path d="M660 334Q694 334 724 349Q730 353 732.5 360.0Q735 367 732 374Q728 381 721.0 383.5Q714 386 707 382Q660 357 614 382Q607 386 599.5 383.5Q592 381 589 374Q586 367 588.0 360.0Q590 353 597 349Q627 334 660 334Z" fill="#000000" />
<path d="M662 166Q735 168 798 240Q855 305 868 381Q871 399 853 402Q840 404 834 393Q800 335 744 321Q721 315 703 317L676 358Q666 373 650 363Q647 361 645 358L618 317Q600 315 577 321Q520 335 487 393Q478 409 462 400Q451 394 453 381Q466 305 523 240Q586 168 660 166Q661 166 662 166ZM660 203Q603 204 550 264Q532 284 520 306Q542 292 568 285Q604 276 633 282Q640 283 644 290L660 314L676 290Q680 283 688 282Q717 276 753 285Q779 292 801 306Q788 284 770 264Q718 204 660 203Z" fill="#000000" />
<path d="M633 630Q641 635 642 641Q644 647 639 655Q630 671 614 662Q580 641 549 620Q499 587 456 554Q403 636 429 718Q429 719 429 719Q438 752 470 785Q535 854 650 854Q796 854 888 763Q946 680 914 610Q897 574 863 548Q788 607 710 681Q703 687 696 687Q690 687 684 680Q671 667 684 654Q770 574 851 511Q861 504 872 510Q874 511 876 513Q925 545 947 595Q988 685 917 785Q916 787 915 788Q812 890 650 890Q519 890 443 810Q405 770 394 729Q360 622 438 516Q438 516 438 516Q443 509 450 508Q456 507 463 513Q465 513 466 515Q513 552 569 590Q600 610 633 630Z" fill="#000000" />
<path d="M688 703Q680 699 678 693Q676 687 680 679Q689 662 705 671Q802 724 907 757Q916 760 919 766Q922 772 919 781Q914 798 896 792Q788 757 688 703Z" fill="#000000" />
<path d="M660 553Q715 553 715 608V682Q715 737 660 737Q637 737 621 721Q605 705 605 682V608Q605 586 621 570Q637 553 660 553ZM660 590Q642 590 642 608V682Q642 700 660 700Q679 700 679 682V608Q679 590 660 590Z" fill="#000000" />
<path d="M766.0 38.0Q766.0 56.0 748.0 56.0Q730.0 56.0 730.0 38.0V-49.0Q730.0 -68.0 748.0 -68.0Q766.0 -68.0 766.0 -49.0Z" fill="#000000" />
</g></svg>