<svg xmlns="http://www.w3.org/2000/svg" viewBox="0 0 2048 2048">
<g transform="matrix(1 0 0 -1 0 2048)">
<path d="M660 776Q645 809 610.5 820.5Q576 832 545 816Q513 799 501.0 765.5Q489 732 504 699Q506 696 507.5 692.0Q509 688 512 686L660 495L809 686Q810 688 812.0 691.0Q814 694 816 699Q831 732 819.0 765.5Q807 799 776 816Q744 832 709.5 820.5Q675 809 660 776Z" fill="#ea5a47" />
<path d="M1170 35Q1190 59 1199.5 92.0Q1209 125 1208.0 159.0Q1207 193 1195 222Q1183 251 1174.5 269.0Q1166 287 1161.0 303.0Q1156 319 1153.0 341.0Q1150 363 1148 400Q1148 444 1118.5 475.5Q1089 507 1045 512Q1045 512 1032.5 522.5Q1020 533 995.5 543.5Q971 554 933 554Q866 554 812.0 520.5Q758 487 743 429Q732 391 732.5 364.5Q733 338 734.0 314.5Q735 291 724 262Q711 230 697.0 193.5Q683 157 682.5 117.5Q682 78 710 37Z" fill="#fcea2b" />
<path d="M545 79Q616 73 630.0 123.0Q644 173 609 257Q598 286 592.5 298.0Q587 310 585.0 317.0Q583 324 582.0 339.5Q581 355 579 392Q578 435 548.5 466.5Q519 498 477 502Q477 502 465.0 512.5Q453 523 428.5 534.0Q404 545 367 545Q323 545 283.5 529.5Q244 514 216.0 486.5Q188 459 178 422Q167 383 168.0 357.0Q169 331 170.0 307.5Q171 284 160 255Q152 236 141.0 210.5Q130 185 123.5 159.5Q117 134 121.0 114.0Q125 94 145.5 84.0Q166 74 211 81Z" fill="#fcea2b" />
<path d="M792 277Q792 277 792.0 284.5Q792 292 792 292Q792 300 809.5 312.5Q827 325 854.0 341.0Q881 357 912.0 374.5Q943 392 970.0 409.5Q997 427 1014 444Q1055 402 1075.5 365.5Q1096 329 1096 277Q1096 221 1075.5 177.0Q1055 133 1020.0 107.5Q985 82 944 82Q903 82 868.5 107.5Q834 133 813.0 177.0Q792 221 792 277Z" fill="#debb90" />
<path d="M535 284Q535 303 529.0 322.0Q523 341 517.0 353.0Q511 365 511 365Q511 365 489.0 372.0Q467 379 435.0 385.5Q403 392 374 392Q344 392 311.5 384.5Q279 377 257.0 369.0Q235 361 235 361Q235 361 230.0 349.0Q225 337 220.5 319.5Q216 302 216 284Q216 227 237.5 180.0Q259 133 295.5 105.0Q332 77 376 77Q420 77 456.0 105.0Q492 133 513.5 180.0Q535 227 535 284Z" fill="#debb90" />
<path d="M694 45Q704 30 720 40Q735 50 725 65Q684 126 728 225Q737 245 741 255Q754 288 752 339Q750 388 760 424Q760 424 760 424Q789 535 933 535Q1000 535 1031 499Q1036 494 1043 493Q1129 485 1129 400Q1129 399 1129 399Q1134 315 1162 252Q1172 230 1178 215Q1213 133 1156 65Q1150 58 1150 52Q1151 45 1158 39Q1172 27 1184 41Q1255 126 1212 229Q1206 244 1196 267Q1170 324 1166 400Q1166 451 1132 488Q1100 522 1054 529Q1012 572 933 572Q859 572 802 536Q742 497 725 434Q713 392 715 338Q717 294 707 269Q703 259 695 240Q642 123 694 45Z" fill="#000000" />
<path d="M774 277Q774 188 823 126Q873 64 944 64Q1016 64 1065 126Q1115 188 1115 277Q1115 369 1027 457Q1014 470 1001 457Q976 432 879 376Q774 316 774 292ZM810 277V292Q810 295 897 345Q978 391 1013 418Q1078 347 1078 277Q1078 201 1037 149Q998 101 944 101Q890 101 851 149Q810 201 810 277Z" fill="#000000" />
<path d="M917 187Q906 202 891 191Q876 180 887 165Q901 147 921 147Q939 147 954 164Q966 178 953 190Q939 202 927 188Q923 183 921 183Q919 183 917 187Z" fill="#000000" />
<path d="M1001 304Q988 317 975 304Q962 292 975 279Q1015 238 1056 279Q1069 292 1056 304Q1043 317 1030 304Q1015 290 1001 304Z" fill="#000000" />
<path d="M862 292Q849 305 836 292Q823 279 836 266Q846 256 860 251Q892 240 917 266Q930 279 917 292Q904 305 891 292Q882 282 872 286Q866 288 862 292Z" fill="#000000" />
<path d="M554 284Q554 327 527 374Q524 380 518 382Q436 411 374 411Q310 411 228 378Q221 375 218 368Q198 323 198 284Q198 193 249 127Q301 59 376 59Q451 59 503 127Q554 193 554 284ZM517 284Q517 205 474 149Q433 95 376 95Q319 95 278 149Q235 205 235 284Q235 312 249 347Q320 374 374 374Q427 374 499 350Q517 315 517 284Z" fill="#000000" />
<path d="M402 188Q390 202 376 190Q369 184 369 177Q368 171 374 164Q388 148 407 148Q425 148 440 163Q453 176 440 189Q433 195 427 195Q420 195 414 189Q410 185 407 185Q405 185 402 188Z" fill="#000000" />
<path d="M303 304Q297 311 290 311Q284 311 277 304Q264 292 277 279Q318 238 358 279Q371 292 358 304Q345 317 332 304Q318 290 303 304Z" fill="#000000" />
<path d="M438 292Q425 305 412 292Q399 279 412 266Q422 256 436 251Q468 240 493 266Q506 279 493 292Q480 305 467 292Q458 282 448 286Q442 288 438 292Z" fill="#000000" />
<path d="M214 81Q232 84 229 102Q228 111 222 115Q217 118 208 117Q167 111 150 119Q140 123 138 134Q136 156 165 220Q173 239 177 248Q189 281 187 332Q185 381 195 417Q209 465 257 496Q305 526 367 526Q433 526 463 491Q467 485 475 484Q558 476 561 392Q561 392 561 391Q562 380 563 362Q565 315 575 290Q584 270 591 250Q592 250 592 249Q625 171 613 139Q603 111 546 115Q528 117 526 99Q526 89 530 85Q534 80 543 79Q627 72 647 126Q665 172 626 263Q618 284 609 305Q601 323 599 364Q598 382 598 393Q596 443 562 479Q530 513 486 520Q445 563 367 563Q294 563 237 527Q177 489 160 427Q148 385 150 330Q152 287 142 262Q139 254 131 235Q98 162 102 130Q106 98 135 85Q163 73 214 81Z" fill="#000000" />
<path d="M660 809Q643 829 617 838Q575 852 536 832Q498 812 484 771Q469 730 488 691Q488 691 488 690Q488 690 489 688Q493 679 498 674L646 484Q647 482 649 481Q656 475 662 476Q669 477 674 484L823 674Q824 676 825 677Q825 678 826 679Q831 686 833 692Q850 731 836 771Q822 812 784 832Q745 852 703 838Q677 829 660 809ZM677 768Q689 794 716 803Q742 812 767 800Q828 768 799 706Q799 705 798 704Q798 703 796 700Q794 698 793 696L660 525L526 697Q525 698 524 699Q524 699 522 703Q521 705 521 706Q493 768 553 800Q578 812 604 803Q631 794 643 768Q647 760 653 757Q659 755 668 759Q674 762 677 768Z" fill="#000000" />
</g></svg>