<svg xmlns="http://www.w3.org/2000/svg" viewBox="0 0 2048 2048">
<g transform="matrix(1 0 0 -1 0 2048)">
<path d="M1118 -73V221Q1118 251 1100.5 276.0Q1083 301 1055.5 315.5Q1028 330 998 330Q888 240 781 330H539Q430 240 322 330Q292 330 264.5 315.5Q237 301 219.5 276.0Q202 251 202 221V-73Z" fill="#92d3f5" />
<path d="M834 -73V-27Q834 7 805.5 31.0Q777 55 742 55Q659 -13 577 55Q543 55 514.5 31.0Q486 7 486 -27V-73Z" fill="#b1cc33" />
<path d="M616 270Q615 284 603.0 278.0Q591 272 577.0 257.0Q563 242 552.5 228.5Q542 215 542 215Q542 215 537.0 220.0Q532 225 529.0 236.5Q526 248 531 270Q541 314 564.0 333.0Q587 352 613.5 355.0Q640 358 661 355Q671 354 680 355Q718 361 749.0 339.0Q780 317 787 279Q789 270 791.5 249.0Q794 228 780 215Q780 215 769.0 222.0Q758 229 743.0 240.0Q728 251 715.5 263.0Q703 275 699 286Q699 286 687.5 275.5Q676 265 661.0 255.0Q646 245 633.0 246.0Q620 247 616 270Z" fill="#a57939" />
<path d="M660 330Q660 330 657.0 341.5Q654 353 650.0 369.5Q646 386 643.0 401.0Q640 416 640 422Q640 449 637.0 460.0Q634 471 634.5 480.5Q635 490 643 512Q674 531 684.0 560.5Q694 590 697.0 624.0Q700 658 710 692Q723 742 771.0 771.5Q819 801 878 801Q911 801 933.0 791.5Q955 782 965.5 773.0Q976 764 976 764Q1013 760 1039.5 732.0Q1066 704 1067 666Q1069 633 1071.5 613.5Q1074 594 1078.5 580.0Q1083 566 1090.5 550.5Q1098 535 1109 509Q1125 472 1126.5 426.5Q1128 381 1101 351L1070 313L1064 310Q1032 330 998 330Q888 240 781 330Z" fill="#a57939" />
<path d="M663 422Q663 416 662.5 401.0Q662 386 661.5 369.5Q661 353 660.5 341.5Q660 330 660 330H539Q432 240 322 330Q288 330 256 310L250 313L219 351Q192 381 193.5 426.5Q195 472 211 509Q222 535 229.5 550.5Q237 566 241.5 580.0Q246 594 248.5 613.5Q251 633 253 666Q254 704 280.5 732.0Q307 760 344 764Q344 764 354.5 773.0Q365 782 387.0 791.5Q409 801 442 801Q501 801 549.0 771.5Q597 742 610 692Q620 658 619.0 634.5Q618 611 617.5 590.5Q617 570 626 544Q639 511 651.0 486.5Q663 462 663 422Z" fill="#a57939" />
<path d="M754 553 756 565Q756 574 779.0 589.5Q802 605 835.0 623.5Q868 642 900.5 662.0Q933 682 951 700Q988 663 1006.0 631.5Q1024 600 1024 553Q1024 505 1005.5 466.0Q987 427 956.5 404.5Q926 382 889 382Q852 382 821.5 404.5Q791 427 772.5 466.0Q754 505 754 553Z" fill="#fcea2b" />
<path d="M566 553Q566 505 547.5 466.0Q529 427 498.5 404.5Q468 382 431 382Q394 382 363.5 404.5Q333 427 314.5 466.0Q296 505 296 553Q296 600 314.0 631.5Q332 663 369 700Q387 682 419.5 662.0Q452 642 485.5 623.5Q519 605 542.0 589.5Q565 574 565 565Z" fill="#fcea2b" />
<path d="M699 286Q703 273 720.0 258.5Q737 244 754.0 232.0Q771 220 777 217Q780 208 780 207Q781 173 765.5 144.5Q750 116 722.5 98.0Q695 80 661 78Q627 80 599.5 98.0Q572 116 556.5 144.5Q541 173 542 207Q542 208 544 218Q549 224 560.0 237.0Q571 250 583.5 262.5Q596 275 605.5 279.0Q615 283 616 270Q620 247 633.0 246.0Q646 245 661.0 255.0Q676 265 687.5 275.5Q699 286 699 286Z" fill="#fcea2b" />
<path d="M633 527Q625 522 624 515Q623 509 628 501Q638 486 654 497Q704 531 717 628Q722 668 728 687Q753 783 878 783Q936 783 961 752Q966 746 974 745Q1046 738 1049 665Q1049 665 1049 665Q1053 590 1078 534Q1087 515 1092 502Q1120 437 1080 382Q1069 367 1084 356Q1099 346 1109 361Q1161 432 1126 517Q1120 530 1111 549Q1089 599 1085 667Q1084 711 1053 744Q1025 775 985 781Q948 820 878 820Q813 820 761 787Q707 753 692 697Q686 675 680 633Q670 552 633 527Z" fill="#000000" />
<path d="M736 553Q736 474 780 420Q825 364 889 364Q954 364 999 420Q1043 474 1043 553Q1043 634 964 713Q951 726 938 713Q916 691 831 642Q742 591 737 567L736 556Q736 555 736 553ZM772 552 774 562Q774 564 774 565Q774 567 849 610Q919 651 950 675Q1006 613 1006 553Q1006 487 970 443Q936 401 889 401Q842 401 808 443Q773 487 772 552Z" fill="#000000" />
<path d="M865.6697998046875 559.0806884765625Q865.6697998046875 568.9024047851562 859.4196166992188 575.5990295410156Q853.16943359375 582.295654296875 843.3477172851562 582.295654296875Q833.5260009765625 582.295654296875 826.8293762207031 575.5990295410156Q820.1327514648438 568.9024047851562 820.1327514648438 559.0806884765625Q820.1327514648438 549.2589721679688 826.8293762207031 542.5623474121094Q833.5260009765625 535.86572265625 843.3477172851562 535.86572265625Q853.16943359375 535.86572265625 859.4196166992188 542.5623474121094Q865.6697998046875 549.2589721679688 865.6697998046875 559.0806884765625Z" fill="#000000" />
<path d="M957.6697998046875 559.0806884765625Q957.6697998046875 568.9024047851562 951.4196166992188 575.5990295410156Q945.16943359375 582.295654296875 935.3477172851562 582.295654296875Q925.5260009765625 582.295654296875 918.8293762207031 575.5990295410156Q912.1327514648438 568.9024047851562 912.1327514648438 559.0806884765625Q912.1327514648438 549.2589721679688 918.8293762207031 542.5623474121094Q925.5260009765625 535.86572265625 935.3477172851562 535.86572265625Q945.16943359375 535.86572265625 951.4196166992188 542.5623474121094Q957.6697998046875 549.2589721679688 957.6697998046875 559.0806884765625Z" fill="#000000" />
<path d="M863 483Q847 492 838 476Q830 459 846 451Q889 428 932 451Q948 459 939 476Q931 492 914 483Q889 469 863 483Z" fill="#000000" />
<path d="M211 361Q221 346 236 356Q244 362 245 368Q246 375 240 382Q200 437 228 502Q233 515 242 534Q267 590 271 665Q271 665 271 665Q274 738 346 745Q354 746 359 752Q384 783 442 783Q567 783 592 687Q602 655 600 612Q598 567 609 537Q613 527 622 508Q645 455 645 429Q644 410 663 410Q681 410 681 428Q682 463 655 523Q647 541 644 550Q635 573 637 611Q638 660 628 697Q613 753 559 787Q507 820 442 820Q372 820 335 781Q295 775 267 744Q236 711 235 667Q231 599 209 549Q200 530 194 517Q159 432 211 361Z" fill="#000000" />
<path d="M584 556 583 567Q578 591 489 642Q404 691 382 713Q369 726 356 713Q277 634 277 553Q277 474 321 420Q366 364 431 364Q495 364 540 420Q584 474 584 553Q584 555 584 556ZM548 552Q547 487 512 443Q478 401 431 401Q384 401 350 443Q314 487 314 553Q314 613 370 675Q401 651 471 610Q546 567 546 565Q546 564 546 562Z" fill="#000000" />
<path d="M454.3302001953125 558.9193115234375Q454.3302001953125 549.0975952148438 460.58038330078125 542.4009704589844Q466.83056640625 535.704345703125 476.65228271484375 535.704345703125Q486.4739990234375 535.704345703125 493.1706237792969 542.4009704589844Q499.86724853515625 549.0975952148438 499.86724853515625 558.9193115234375Q499.86724853515625 568.7410278320312 493.1706237792969 575.4376525878906Q486.4739990234375 582.13427734375 476.65228271484375 582.13427734375Q466.83056640625 582.13427734375 460.58038330078125 575.4376525878906Q454.3302001953125 568.7410278320312 454.3302001953125 558.9193115234375Z" fill="#000000" />
<path d="M362.3302001953125 558.9193115234375Q362.3302001953125 549.0975952148438 368.58038330078125 542.4009704589844Q374.83056640625 535.704345703125 384.65228271484375 535.704345703125Q394.4739990234375 535.704345703125 401.1706237792969 542.4009704589844Q407.86724853515625 549.0975952148438 407.86724853515625 558.9193115234375Q407.86724853515625 568.7410278320312 401.1706237792969 575.4376525878906Q394.4739990234375 582.13427734375 384.65228271484375 582.13427734375Q374.83056640625 582.13427734375 368.58038330078125 575.4376525878906Q362.3302001953125 568.7410278320312 362.3302001953125 558.9193115234375Z" fill="#000000" />
<path d="M405 483Q389 492 380 476Q372 459 388 451Q431 428 474 451Q490 459 481 476Q473 492 456 483Q431 469 405 483Z" fill="#000000" />
<path d="M471 -59Q471 -73 486 -73Q501 -73 501 -59V-27Q501 0 524 20Q546 39 573 40Q659 -28 748 40Q774 39 796 20Q820 0 820 -27V-59Q820 -73 834 -73Q849 -73 849 -59V-27Q849 13 815 42Q783 70 743 70Q737 70 733 66Q659 6 587 66Q583 70 578 70Q537 70 505 42Q471 13 471 -27Z" fill="#000000" />
<path d="M711 207Q711 223 695 223Q694 223 694 222Q677 221 678 205Q679 188 696 190Q712 191 711 207Z" fill="#000000" />
<path d="M645 155Q634 164 624 153Q615 141 626 132Q660 104 694 132Q705 141 696 153Q687 164 675 155Q660 142 645 155Z" fill="#000000" />
<path d="M625 223Q609 223 609 207Q608 191 624 190Q641 188 642 205Q643 221 626 222Q626 223 625 223Z" fill="#000000" />
<path d="M795 216 765 214Q766 211 766 207Q767 161 737 128Q706 95 661 93Q616 95 586 128Q555 161 557 207Q557 210 557 212L528 213Q528 210 528 208Q526 150 564 108Q603 66 661 64H662Q719 66 758 108Q797 150 795 208Q795 212 795 216Z" fill="#000000" />
<path d="M604 261Q610 236 631 232Q647 229 669 242Q682 251 696 262Q717 235 773 202Q782 197 790 204Q814 227 802 281Q801 282 801 283Q793 325 757 351Q722 376 679 370Q671 369 663 370Q543 387 517 273Q504 220 535 202Q546 196 554 206Q571 229 588 247Q597 256 604 261ZM631 272Q629 287 618 292Q608 296 597 291Q585 285 567 267Q555 254 543 240Q541 249 545 267Q565 354 659 340Q660 340 660 340Q671 339 682 340Q682 340 683 340Q758 352 772 277Q773 276 773 276Q773 276 773 274Q779 248 775 235Q720 269 713 291Q712 294 709 297Q698 307 688 296Q671 278 653 267Q641 260 636 261Q633 261 631 272Z" fill="#000000" />
<path d="M854 309Q836 314 831 297Q825 279 843 274Q923 248 1004 312Q1040 310 1069 284Q1100 257 1100 221V-55Q1100 -73 1118 -73Q1137 -73 1137 -55V221Q1137 273 1093 312Q1051 348 998 348Q991 348 986 344Q918 288 854 309Z" fill="#000000" />
<path d="M183 -55Q183 -73 202 -73Q220 -73 220 -55V221Q220 257 251 284Q280 309 316 312Q395 249 476 273Q485 276 488 282Q491 288 488 296Q483 314 465 309Q400 289 334 344Q329 348 322 348Q269 348 227 312Q183 273 183 221Z" fill="#000000" />
</g></svg>