<svg xmlns="http://www.w3.org/2000/svg" viewBox="0 0 2048 2048">
<g transform="matrix(1 0 0 -1 0 2048)">
<path d="M942 645 972 284Q972 282 963.5 275.5Q955 269 956 267L910 286L915 -97Q915 -102 909.0 -105.5Q903 -109 900 -113Q899 -114 897 -114Q894 -114 889.5 -108.5Q885 -103 884 -93L837 325Q835 338 830 350L812 361H782L760 348Q755 337 754 325L716 -96Q715 -106 705.5 -110.0Q696 -114 693 -114Q692 -114 690 -113Q688 -109 679.5 -104.5Q671 -100 672 -96L687 361L723 566L699 592Q692 550 669 515Q654 497 632.0 490.0Q610 483 587 489Q568 493 546.0 514.0Q524 535 505.5 559.0Q487 583 478 595Q468 608 471.0 621.5Q474 635 480.0 644.0Q486 653 486 653L610 539L641 560L651 640V643Q654 668 669.5 687.0Q685 706 708 715L714 716Q726 721 740 721H851Q872 721 892.5 711.0Q913 701 927.0 683.5Q941 666 942 645Z" fill="#debb90" />
<path d="M859.5184936523438 850.3135375976562Q859.5243530273438 883.3623657226562 831.642333984375 899.8917236328125Q802.7275390625 916.4212646484375 774.8396606445312 899.9017944335938Q745.9190063476562 883.3825073242188 746.9459228515625 850.33349609375Q745.9072875976562 817.2848510742188 774.8220825195312 800.7553100585938Q802.7041015625 784.2259521484375 831.624755859375 800.7452392578125Q859.5126342773438 817.2647094726562 859.5184936523438 850.3135375976562Z" fill="#debb90" />
<path d="M718 624Q708 639 693 629Q685 624 684 617Q682 611 687 603Q719 555 692 488Q688 476 686 471Q686 470 685 469Q672 417 668 362Q657 251 650 -84Q649 -106 660 -122Q673 -141 694 -141Q696 -141 697 -140Q743 -133 745 -86L792 322Q793 331 796 337Q799 331 801 322L848 -86Q849 -133 895 -140Q897 -141 898 -141Q919 -141 933 -122Q944 -106 943 -84Q933 247 923 358Q920 414 907 469Q907 470 907 471Q905 477 900 490Q872 560 903 602Q914 617 899 628Q884 639 873 624Q830 565 865 476Q869 465 871 460Q883 408 886 355Q886 355 886 354Q896 245 906 -86Q906 -95 902 -100Q901 -103 899 -103Q885 -100 885 -85Q885 -84 885 -83L837 326Q831 379 796 379Q761 379 755 326L708 -83Q708 -84 708 -85Q707 -100 693 -103Q692 -103 690 -100Q686 -95 687 -86Q687 -86 687 -85Q694 249 705 359Q705 359 705 359Q709 410 721 460Q723 464 727 474Q761 560 718 624Z" fill="#000000" />
<path d="M945 278Q946 260 964 261Q983 261 982 280L967 633Q965 679 931 711Q898 743 852 743H741Q722 743 722 725Q722 706 741 706H852Q926 705 930 631Z" fill="#000000" />
<path d="M512 653Q500 667 486 655Q472 642 484 628L553 550Q586 512 620 522Q654 531 662 581L668 620Q682 699 742 706Q751 707 755 712Q759 718 758 727Q756 745 737 743Q700 738 669 703Q639 669 632 626L625 587Q621 561 610 557Q599 554 581 574Z" fill="#000000" />
<path d="M516 637Q518 656 499 658Q481 660 479 641L396 -93Q395 -102 399 -107Q403 -112 412 -114Q431 -116 433 -97Z" fill="#000000" />
<path d="M876 847Q876 877 855 898Q834 919 804 919Q774 919 753 898Q732 877 732 847Q732 775 804 775Q876 775 876 847ZM840 847Q840 832 829 822Q819 811 804 811Q768 811 768 847Q768 862 778 873Q789 883 804 883Q840 883 840 847Z" fill="#000000" />
<path d="M856 923Q847 919 845 913Q843 907 847 898Q854 882 870 889Q871 886 874 880Q882 862 888 854Q905 834 931 829Q949 825 953 843Q955 852 951 857Q948 863 939 865Q925 868 915 879Q913 881 908 894Q899 914 892 920Q877 933 856 923Z" fill="#000000" />
<path d="M480 645Q482 663 464 665Q446 668 444 649L379 84Q377 66 395 64Q404 63 409 67Q414 71 415 80Z" fill="#d0cfce" />
<path d="M415 80Q417 98 399 100Q390 101 385 97Q380 93 379 84L359 -91Q357 -110 375 -112Q384 -113 389 -109Q394 -105 395 -95Z" fill="#d22f27" />
<path d="M397.66094970703125 -94.79095458984375Q397.66094970703125 -90.65869140625 396.09173583984375 -86.9971923828125Q394.52252197265625 -83.335693359375 391.750244140625 -80.56341552734375Q388.97796630859375 -77.7911376953125 385.3426208496094 -76.221923828125Q381.707275390625 -74.6527099609375 377.522705078125 -74.6527099609375Q373.338134765625 -74.6527099609375 369.7027893066406 -76.221923828125Q366.06744384765625 -77.7911376953125 363.295166015625 -80.56341552734375Q360.52288818359375 -83.335693359375 358.95367431640625 -86.9971923828125Q357.38446044921875 -90.65869140625 357.38446044921875 -94.79095458984375Q357.38446044921875 -98.97552490234375 358.95367431640625 -102.63702392578125Q360.52288818359375 -106.29852294921875 363.295166015625 -109.07080078125Q366.06744384765625 -111.84307861328125 369.7027893066406 -113.38613891601562Q373.338134765625 -114.92919921875 377.522705078125 -114.92919921875Q381.707275390625 -114.92919921875 385.3426208496094 -113.38613891601562Q388.97796630859375 -111.84307861328125 391.750244140625 -109.07080078125Q394.52252197265625 -106.29852294921875 396.09173583984375 -102.63702392578125Q397.66094970703125 -98.97552490234375 397.66094970703125 -94.79095458984375Z" fill="#d0cfce" />
<path d="M480 645Q482 663 464 665Q446 668 444 649L429 524Q427 505 445 503Q464 501 466 519Z" fill="#000000" />
</g></svg>