<svg xmlns="http://www.w3.org/2000/svg" viewBox="0 0 2048 2048">
<g transform="matrix(1 0 0 -1 0 2048)">
<path d="M330 -72H990V0Q990 46 967.0 83.5Q944 121 905.5 143.0Q867 165 821 165Q656 27 491 165Q446 165 409.0 143.0Q372 121 351.0 83.5Q330 46 330 0Z" fill="#92d3f5" />
<path d="M405 139Q390 150 378.0 162.0Q366 174 358 183Q327 221 321.5 253.5Q316 286 326.0 316.0Q336 346 352.5 376.0Q369 406 381 438Q392 467 393.5 491.0Q395 515 393.5 538.5Q392 562 393.5 591.0Q395 620 405 658Q419 709 456.0 746.0Q493 783 545.5 803.0Q598 823 656 823Q706 823 738.5 809.5Q771 796 787.0 782.0Q803 768 803 768Q842 765 872.5 745.0Q903 725 921.0 692.5Q939 660 939 622Q941 572 945.0 543.0Q949 514 956.0 493.5Q963 473 974.0 449.5Q985 426 1001 387Q1024 332 1014.0 281.5Q1004 231 964 189Q953 178 938.5 166.0Q924 154 908 141Q888 152 866.5 158.5Q845 165 821 165Q656 27 491 165Q445 165 405 139Z" fill="#6a462f" />
<path d="M458 458Q458 513 467.5 540.5Q477 568 477 568Q499 579 535.0 590.0Q571 601 611.5 610.0Q652 619 688.0 626.5Q724 634 747.0 638.0Q770 642 770 642Q770 642 793.0 619.0Q816 596 843 568Q843 568 852.5 540.5Q862 513 862 458Q862 385 833.5 332.0Q805 279 758.0 250.5Q711 222 656 222Q601 222 556.0 250.5Q511 279 484.5 332.0Q458 385 458 458Z" fill="#c19a65" />
<path d="M312 -55Q312 -73 330 -73Q348 -73 348 -55V2Q348 64 389 106Q429 146 485 148Q656 10 828 148Q885 146 927 106Q972 62 972 2V-55Q972 -73 990 -73Q1008 -73 1008 -55V2Q1008 78 953 132Q898 185 821 185Q815 185 810 181Q656 53 503 181Q498 185 491 185Q415 185 363 131Q312 78 312 2Z" fill="#000000" />
<path d="M770 477Q770 492 759.0 502.5Q748 513 733 513Q718 513 707.5 502.5Q697 492 697 477Q697 462 707.5 451.0Q718 440 733 440Q748 440 759.0 451.0Q770 462 770 477Z" fill="#000000" />
<path d="M623 477Q623 492 612.5 502.5Q602 513 587 513Q572 513 561.0 502.5Q550 492 550 477Q550 462 561.0 451.0Q572 440 587 440Q602 440 612.5 451.0Q623 462 623 477Z" fill="#000000" />
<path d="M440 458Q440 344 502 273Q563 203 656 203Q750 203 814 273Q880 345 880 458Q880 536 860 577Q858 579 856 581L783 655Q776 661 767 660Q544 623 468 585Q463 582 460 577Q440 536 440 458ZM477 458Q477 522 491 555Q562 588 764 622L828 558Q843 525 843 458Q843 359 787 298Q734 240 656 240Q580 240 530 297Q477 358 477 458Z" fill="#000000" />
<path d="M610 361Q594 369 585 353Q577 337 593 328Q656 295 720 328Q736 337 728 353Q719 369 703 361Q656 336 610 361Z" fill="#000000" />
<path d="M351 191Q362 176 377 186Q384 191 386 198Q387 204 382 212Q343 270 344 313Q345 341 370 397Q380 420 385 433Q402 476 399 542Q397 608 410 655Q428 723 494 765Q559 807 644 807Q734 807 776 758Q781 752 788 752Q839 747 873 710Q908 673 908 623Q908 623 908 622Q914 510 951 427Q964 399 971 381Q1009 295 940 216Q927 202 941 190Q955 178 967 191Q1052 288 1005 396Q997 414 985 442Q950 519 944 624Q944 687 900 735Q859 779 799 787Q746 843 644 843Q549 843 474 796Q397 746 375 665Q360 612 363 541Q365 482 352 447Q346 434 336 412Q308 349 307 314Q306 260 351 191Z" fill="#000000" />
</g></svg>