<svg xmlns="http://www.w3.org/2000/svg" viewBox="0 0 2048 2048">
<g transform="matrix(1 0 0 -1 0 2048)">
<path d="M846 -72V0Q846 46 819.5 83.5Q793 121 751.0 143.0Q709 165 663 165Q498 28 333 165Q287 165 245.0 143.0Q203 121 176.0 83.5Q149 46 149 0V-72Z" fill="#92d3f5" />
<path d="M1080 317Q1081 321 1071.0 330.0Q1061 339 1061 339L884 521L837 543L840 463L868 397L918 341L906 330L915 317Q894 289 897.0 254.0Q900 219 925 195Q951 171 986.0 170.0Q1021 169 1048 192Q1074 214 1079.0 249.0Q1084 284 1064 313Z" fill="#9b9b9a" />
<path d="M988 463Q988 501 1014.5 528.0Q1041 555 1079 555Q1117 555 1144.0 528.0Q1171 501 1171 463Q1171 425 1144.0 398.0Q1117 371 1079 371H768Q747 371 733.5 381.5Q720 392 712.5 405.5Q705 419 702.0 429.5Q699 440 699 440L990 445Q988 454 988 463Z" fill="#d0cfce" />
<path d="M294 477Q294 511 302.5 543.5Q311 576 322.5 602.5Q334 629 342.5 644.5Q351 660 351 660Q499 643 644 678Q666 625 681 568Q700 524 699 477Q699 394 671.0 337.0Q643 280 597.0 250.0Q551 220 496 220Q441 220 395.0 250.0Q349 280 321.5 337.0Q294 394 294 477Z" fill="#fcea2b" />
<path d="M314 330Q302 350 300.5 388.5Q299 427 304.0 472.0Q309 517 317.0 558.0Q325 599 331.0 625.5Q337 652 337 652L644 678L667 569Q687 551 691.5 518.0Q696 485 690.0 447.5Q684 410 674.0 376.0Q664 342 655.5 320.0Q647 298 647 298Q695 312 743 321Q751 321 767.5 332.0Q784 343 798.5 354.0Q813 365 813 365Q761 368 736.5 385.0Q712 402 699 440L827 458Q827 500 823.0 525.5Q819 551 809 568Q782 616 755.5 662.0Q729 708 695.0 744.5Q661 781 613.5 803.0Q566 825 497 825Q429 825 380.0 803.5Q331 782 300.0 745.0Q269 708 255.0 662.0Q241 616 241 568Q241 504 244.0 450.0Q247 396 262.0 363.0Q277 330 314 330Z" fill="#f1b31c" />
<path d="M1116.1889038085938 463.403564453125Q1116.1889038085938 470.97039794921875 1113.3187255859375 477.6239929199219Q1110.4485473632812 484.277587890625 1105.4039916992188 489.3221435546875Q1100.3594360351562 494.36669921875 1093.7058410644531 497.23687744140625Q1087.05224609375 500.1070556640625 1079.4854125976562 500.1070556640625Q1071.9185791015625 500.1070556640625 1065.2649841308594 497.23687744140625Q1058.6113891601562 494.36669921875 1053.5668334960938 489.3221435546875Q1048.5222778320312 484.277587890625 1045.652099609375 477.6239929199219Q1042.7819213867188 470.97039794921875 1042.7819213867188 463.403564453125Q1042.7819213867188 455.83673095703125 1045.652099609375 449.1831359863281Q1048.5222778320312 442.529541015625 1053.5668334960938 437.4849853515625Q1058.6113891601562 432.4404296875 1065.2649841308594 429.57025146484375Q1071.9185791015625 426.7000732421875 1079.4854125976562 426.7000732421875Q1087.05224609375 426.7000732421875 1093.7058410644531 429.57025146484375Q1100.3594360351562 432.4404296875 1105.4039916992188 437.4849853515625Q1110.4485473632812 442.529541015625 1113.3187255859375 449.1831359863281Q1116.1889038085938 455.83673095703125 1116.1889038085938 463.403564453125Z" fill="#000000" />
<path d="M802 351Q813 366 798 377Q783 387 772 372Q739 326 663 337Q645 339 643 321Q640 303 658 300Q756 286 802 351Z" fill="#000000" />
<path d="M497 843Q479 843 479 825Q479 807 497 807Q604 807 673 741Q716 700 779 585Q788 569 793 560Q816 509 804 455Q801 437 818 433Q836 430 840 447Q854 514 826 576Q825 577 825 577Q820 586 811 603Q745 723 698 767Q619 843 497 843Z" fill="#000000" />
<path d="M130 -55Q130 -73 149 -73Q167 -73 167 -55V0Q167 59 218 103Q266 145 325 147Q497 8 668 147Q728 145 776 103Q827 59 827 0V-55Q827 -73 845 -73Q864 -73 864 -55V0Q864 76 800 131Q739 183 662 183Q655 183 650 179Q497 51 344 179Q339 183 332 183Q255 183 194 131Q130 76 130 0Z" fill="#000000" />
<path d="M605.0570068359375 495.43743896484375Q605.0570068359375 510.8302001953125 594.2820739746094 521.6051330566406Q583.5071411132812 532.3800659179688 568.1143798828125 532.3800659179688Q552.7216186523438 532.3800659179688 541.9466857910156 521.6051330566406Q531.1717529296875 510.8302001953125 531.1717529296875 495.43743896484375Q531.1717529296875 480.044677734375 541.9466857910156 469.2697448730469Q552.7216186523438 458.49481201171875 568.1143798828125 458.49481201171875Q583.5071411132812 458.49481201171875 594.2820739746094 469.2697448730469Q605.0570068359375 480.044677734375 605.0570068359375 495.43743896484375Z" fill="#000000" />
<path d="M458.0570068359375 495.43743896484375Q458.0570068359375 510.8302001953125 447.2820739746094 521.6051330566406Q436.50714111328125 532.3800659179688 421.1143798828125 532.3800659179688Q405.72161865234375 532.3800659179688 394.9466857910156 521.6051330566406Q384.1717529296875 510.8302001953125 384.1717529296875 495.43743896484375Q384.1717529296875 480.044677734375 394.9466857910156 469.2697448730469Q405.72161865234375 458.49481201171875 421.1143798828125 458.49481201171875Q436.50714111328125 458.49481201171875 447.2820739746094 469.2697448730469Q458.0570068359375 480.044677734375 458.0570068359375 495.43743896484375Z" fill="#000000" />
<path d="M451 365Q434 373 426 357Q422 349 424 342Q426 336 434 332Q497 299 561 332Q569 336 571 342Q573 349 569 357Q560 373 544 365Q497 341 451 365Z" fill="#000000" />
<path d="M969 463 699 458Q689 458 685 454Q680 449 681 440Q681 438 681 436Q698 353 768 353H1079Q1125 353 1157 385Q1189 417 1189 463Q1189 508 1157 541Q1125 573 1079 573Q1034 573 1002 541Q969 508 969 463ZM1006 463Q1006 536 1079 536Q1153 536 1153 463Q1153 390 1079 390H768Q737 390 723 422L990 426Q992 426 993 427Q1011 430 1008 448Q1006 455 1006 463Z" fill="#000000" />
<path d="M1079 323Q1069 338 1054 328Q1039 318 1049 303Q1086 248 1036 206Q986 163 938 208Q890 253 929 306Q940 320 926 331Q911 342 900 328Q875 294 879 252Q882 210 913 181Q943 153 985 152Q1027 151 1059 178Q1091 205 1097 247Q1103 288 1079 323Z" fill="#000000" />
<path d="M825 572Q808 579 801 562Q797 553 800 547Q802 541 811 538Q816 536 820 532Q822 531 823 529L871 482Q884 469 896 482Q903 489 903 495Q903 502 896 508L849 555Q846 558 843 561Q835 568 825 572Z" fill="#000000" />
<path d="M1025 262Q1025 283 1007 294Q988 305 970 294Q951 283 951 262Q951 240 970 229Q988 218 1007 229Q1025 240 1025 262Z" fill="#000000" />
<path d="M276 477Q275 362 339 282Q403 202 496 202Q588 202 653 282Q717 362 717 477Q717 573 660 687Q655 697 644 697Q579 697 498 678Q415 658 356 677Q342 682 335 669Q277 574 276 477ZM313 476Q314 557 359 638Q423 622 506 642Q576 658 633 660Q681 560 681 477Q681 375 624 305Q570 238 496 238Q421 238 367 305Q312 374 313 476Z" fill="#000000" />
<path d="M313 330Q332 330 332 348Q332 367 313 367Q258 367 258 605Q258 685 319 743Q386 807 497 807Q515 807 515 825Q515 843 497 843Q372 843 294 770Q222 701 222 605Q222 330 313 330Z" fill="#000000" />
</g></svg>