<svg xmlns="http://www.w3.org/2000/svg" viewBox="0 0 2048 2048">
<g transform="matrix(1 0 0 -1 0 2048)">
<path d="M1008 -73V1Q1008 47 981.5 84.0Q955 121 913.0 143.5Q871 166 825 166Q660 28 495 166Q449 166 407.0 143.5Q365 121 338.5 84.0Q312 47 312 1V-73Z" fill="#92d3f5" />
<path d="M457 478Q461 568 513 643Q554 629 585.0 629.5Q616 630 646.0 638.0Q676 646 713.5 653.5Q751 661 806 661Q806 661 814.5 645.5Q823 630 833.5 603.5Q844 577 852.5 544.5Q861 512 861 478Q861 404 837.5 346.0Q814 288 768.5 254.5Q723 221 658 221Q595 221 549.5 254.5Q504 288 480.0 346.0Q456 404 457 478Z" fill="#6a462f" />
<path d="M805 687Q812 691 820.5 668.0Q829 645 837.0 606.5Q845 568 851.0 523.5Q857 479 859.5 439.5Q862 400 858.5 374.5Q855 349 843 349Q871 349 887.0 386.5Q903 424 909.5 483.0Q916 542 916 606Q916 661 886.5 711.5Q857 762 799.5 794.0Q742 826 660 826Q577 826 520.0 794.0Q463 762 433.0 711.5Q403 661 403 606Q403 542 410.0 483.0Q417 424 433.0 386.5Q449 349 476 349Q476 349 471.5 375.5Q467 402 463.5 442.5Q460 483 462.5 526.0Q465 569 478.0 603.0Q491 637 521 650Q521 650 547.0 652.5Q573 655 612.5 659.0Q652 663 693.5 668.0Q735 673 766.0 678.0Q797 683 805 687Z" fill="#000000" />
<path d="M293 -54Q293 -72 312 -72Q330 -72 330 -54V1Q330 60 381 104Q429 146 488 148Q660 9 831 148Q891 146 939 104Q990 60 990 1V-54Q990 -72 1008 -72Q1027 -72 1027 -54V1Q1027 77 963 132Q902 184 825 184Q818 184 813 180Q660 52 507 180Q502 184 495 184Q418 184 357 132Q293 77 293 1Z" fill="#000000" />
<path d="M770 477Q770 493 750.0 503.5Q730 514 715 514Q699 499 697 477Q697 462 707.5 460.5Q718 459 733 459Q749 459 759.5 460.5Q770 462 770 477Z" fill="#000000" />
<path d="M623 477Q622 499 607 514Q597 514 583.5 508.5Q570 503 560.0 495.0Q550 487 550 477Q550 462 561.0 460.5Q572 459 587 459Q602 459 612.5 460.5Q623 462 623 477Z" fill="#000000" />
<path d="M685 322Q698 309 710 323Q723 337 709 349Q660 392 611 349Q597 337 610 323Q622 309 635 322Q660 343 685 322Z" fill="#000000" />
<path d="M476 331Q495 331 495 349Q495 368 476 368Q453 368 437 434Q421 499 421 606Q421 686 482 744Q549 808 660 808Q770 808 837 744Q898 686 898 606Q898 368 843 368Q825 368 825 349Q825 331 843 331Q935 331 935 606Q935 702 863 771Q785 844 660 844Q535 844 457 771Q385 702 385 606Q385 331 476 331Z" fill="#000000" />
<path d="M439 478Q437 363 501 283Q565 203 659 203Q750 203 815 283Q880 363 880 478Q880 574 823 688Q818 698 806 698Q742 698 661 679Q580 660 523 677Q519 679 513 679Q501 679 497 669Q440 573 439 478ZM475 477Q476 557 522 639Q585 623 669 643Q739 659 795 661Q843 561 843 478Q843 376 787 306Q733 239 659 239Q583 239 530 306Q474 375 475 477ZM510 643Q503 644 500 647Q503 645 507 644Q508 643 510 643Z" fill="#000000" />
</g></svg>