<svg xmlns="http://www.w3.org/2000/svg" viewBox="0 0 2048 2048">
<g transform="matrix(1 0 0 -1 0 2048)">
<path d="M975 434Q994 401 998.5 362.0Q1003 323 998.5 286.5Q994 250 985.0 225.0Q976 200 968 195Q959 187 950.0 166.0Q941 145 932.0 124.5Q923 104 913 97Q878 122 836 125Q764 98 703.5 95.5Q643 93 591.0 103.0Q539 113 493 125Q485 125 477 127Q432 136 396.0 164.0Q360 192 339.0 232.0Q318 272 316 318L313 400Q345 441 370 487Q390 540 384 596Q380 654 394 709Q406 754 440.0 788.0Q474 822 522.5 841.0Q571 860 628 860Q672 860 701.5 848.0Q731 836 745.5 824.0Q760 812 761 811Q766 806 773 805Q807 802 838.5 784.0Q870 766 890.5 737.5Q911 709 911 675Q914 620 918.5 588.5Q923 557 931.5 534.5Q940 512 954 482Q963 457 975 434ZM641 208Q685 210 718.5 231.5Q752 253 775.5 285.5Q799 318 815.0 354.0Q831 390 840.0 421.5Q849 453 853.0 473.0Q857 493 857 493Q857 493 855.5 511.0Q854 529 848.0 557.0Q842 585 829.5 615.0Q817 645 795.5 670.0Q774 695 740 706Q740 706 714.5 692.0Q689 678 649.5 656.5Q610 635 568.5 610.0Q527 585 493.5 563.0Q460 541 447 527Q447 527 448.0 504.0Q449 481 454.5 444.5Q460 408 471.5 367.5Q483 327 504.5 290.5Q526 254 559.5 231.0Q593 208 641 208Z" fill="#f1b31c" />
<path d="M447 511Q452 519 473.5 534.0Q495 549 523.0 566.5Q551 584 577 599Q669 649 750 714Q801 660 826.5 611.0Q852 562 852 492Q852 416 825.0 354.0Q798 292 752.5 256.0Q707 220 650 220Q593 220 547.0 256.0Q501 292 474.0 354.0Q447 416 447 492Z" fill="#fcea2b" />
<path d="M865 193Q895 179 925.0 153.5Q955 128 975.0 91.5Q995 55 995 6V-73H298V6Q298 24 301 43L305 102L298 101L309 145L312 196L320 195L330 235L484 326L607 128Q637 112 668.0 101.5Q699 91 731.5 93.5Q764 96 797.5 119.0Q831 142 865 193Z" fill="#92d3f5" />
<path d="M484 326 919 449 945 494 984 538 1030 549H1074L1191 474L1176 421L1135 396L1071 430L995 365L588 140Z" fill="#fcea2b" />
<path d="M870 201Q853 207 847 189Q842 171 860 166Q976 130 976 27V-73Q976 -91 995 -91Q1013 -91 1013 -73V27Q1013 87 970 137Q930 183 870 201Z" fill="#000000" />
<path d="M1003 350Q1018 360 1008 376Q999 391 983 382L719 216Q617 153 504 114L418 85Q410 82 407 76Q404 70 407 61Q413 44 430 50L515 79Q633 120 738 185Z" fill="#000000" />
<path d="M1086 444Q1071 454 1061 438Q1052 422 1067 413L1100 393Q1143 367 1181 399Q1232 443 1189 495Q1145 545 1083 565Q1028 584 978 557Q969 552 961 545L952 537Q941 527 934 514L924 492Q915 474 898 464Q766 438 642 389L394 297Q299 262 287 161Q275 52 278 -56Q278 -65 283 -70Q288 -74 297 -74Q315 -74 315 -55Q312 51 323 156Q333 235 407 263L655 355Q778 403 908 429H910L913 431Q942 446 957 476L967 497Q971 504 977 510L986 518Q990 522 995 525Q1031 544 1071 530Q1124 513 1161 471Q1180 447 1157 427Q1139 412 1120 424Z" fill="#000000" />
<path d="M543 520Q527 529 517 514Q508 498 524 488Q582 453 620 491Q627 498 627 504Q627 511 620 517Q607 530 594 517Q577 500 543 520Z" fill="#000000" />
<path d="M695 524Q680 534 670 518Q661 502 676 493Q735 458 773 495Q786 508 773 521Q766 528 760 528Q754 528 747 521Q729 504 695 524Z" fill="#000000" />
<path d="M551 266Q552 284 533 284Q524 284 519 279Q515 275 515 266Q515 207 563 186Q580 178 587 195Q594 212 578 219Q551 231 551 266Z" fill="#000000" />
<path d="M666 127Q648 129 645 111Q643 93 661 90Q765 76 868 161Q882 173 871 187Q859 201 845 190Q754 114 666 127Z" fill="#000000" />
<path d="M1014 313Q1017 331 999 334Q981 337 978 318Q970 270 940 231Q929 216 944 205Q958 194 970 208Q1005 255 1014 313Z" fill="#000000" />
<path d="M298 316Q299 307 304 303Q309 299 318 300Q337 302 335 320Q329 370 369 457Q376 473 378 479Q395 522 392 589Q390 654 403 702Q421 769 486 811Q551 853 636 853Q727 853 769 804Q774 798 781 798Q832 793 866 756Q900 719 900 668Q902 608 914 550Q916 541 922 538Q927 534 936 536Q954 540 950 558Q938 613 937 669Q936 733 893 781Q851 826 792 833Q739 889 636 889Q541 889 467 842Q389 793 367 711Q353 658 356 587Q358 528 344 493Q342 487 335 472Q292 376 298 316Z" fill="#000000" />
<path d="M824 487Q823 469 842 468Q860 467 861 485Q861 493 861 501Q861 618 746 734Q733 747 720 734Q686 700 557 626Q421 549 421 519V501Q421 456 432 413Q437 395 455 400Q463 402 467 408Q470 413 468 422Q458 461 458 501V519Q458 528 575 595Q688 659 732 695Q824 597 824 501Q824 494 824 487Z" fill="#000000" />
</g></svg>