<svg xmlns="http://www.w3.org/2000/svg" viewBox="0 0 2048 2048">
<g transform="matrix(1 0 0 -1 0 2048)">
<path d="M150 733Q126 733 109.0 716.0Q92 699 92 675V95Q92 71 109.0 54.0Q126 37 150 37H1170Q1194 37 1211.0 54.0Q1228 71 1228 95V675Q1228 699 1211.0 716.0Q1194 733 1170 733Z" fill="#5c9e31" />
<path d="M540 312Q568 329 577.0 357.0Q586 385 577.0 413.0Q568 441 540 458L222 653Q194 671 163.5 665.0Q133 659 112.5 636.0Q92 613 92 580V190Q92 157 112.5 134.0Q133 111 163.5 105.0Q194 99 222 117Z" fill="#000000" />
<path d="M772 316Q747 332 738.0 358.5Q729 385 738.0 411.5Q747 438 772 454L1106 658Q1132 675 1160.5 669.5Q1189 664 1208.5 642.5Q1228 621 1228 589V181Q1228 149 1208.5 127.5Q1189 106 1160.5 100.5Q1132 95 1106 112Z" fill="#000000" />
<path d="M92 647Q92 623 112 611L1090 42Q1100 37 1111 37H1187Q1204 37 1216.0 49.0Q1228 61 1228 78V123Q1228 147 1208 159L230 728Q220 733 209 733H133Q116 733 104.0 721.0Q92 709 92 692Z" fill="#fcea2b" />
<path d="M1228 654Q1228 623 1202 608L233 44Q220 37 206 37H145Q123 37 107.5 52.5Q92 68 92 90V116Q92 147 118 162L1087 726Q1100 733 1114 733H1175Q1197 733 1212.5 717.5Q1228 702 1228 680Z" fill="#fcea2b" />
<path d="M73 37Q73 18 92 18H1228Q1247 18 1247 37V733Q1247 752 1228 752H92Q73 752 73 733ZM110 715H1210V55H110Z" fill="#000000" />
</g></svg>