<svg xmlns="http://www.w3.org/2000/svg" viewBox="0 0 2048 2048">
<g transform="matrix(1 0 0 -1 0 2048)">
<path d="M91.5877685546875 733.1798706054688V36.51513671875H1228.2723388671875V733.1798706054688Z" fill="#1e50a0" />
<path d="M91.5877685546875 292.97576904296875V182.97607421875H1228.2723388671875V292.97576904296875Z" fill="#d22f27" />
<path d="M73 183Q73 165 92 165H1228Q1247 165 1247 183V293Q1247 312 1228 312H92Q73 312 73 293ZM110 275H1210V202H110Z" fill="#ffffff" />
<path d="M492.38909912109375 110.26092529296875Q492.38909912109375 116.8878173828125 489.89581298828125 122.72735595703125Q487.40252685546875 128.56689453125 483.0064697265625 132.96295166015625Q478.61041259765625 137.3590087890625 472.7708740234375 139.852294921875Q466.93133544921875 142.3455810546875 460.304443359375 142.3455810546875Q453.67755126953125 142.3455810546875 447.8380126953125 139.852294921875Q441.99847412109375 137.3590087890625 437.6024169921875 132.96295166015625Q433.20635986328125 128.56689453125 430.71307373046875 122.72735595703125Q428.21978759765625 116.8878173828125 428.21978759765625 110.26092529296875Q428.21978759765625 103.634033203125 430.71307373046875 97.79449462890625Q433.20635986328125 91.9549560546875 437.6024169921875 87.55889892578125Q441.99847412109375 83.162841796875 447.8380126953125 80.6695556640625Q453.67755126953125 78.17626953125 460.304443359375 78.17626953125Q466.93133544921875 78.17626953125 472.7708740234375 80.6695556640625Q478.61041259765625 83.162841796875 483.0064697265625 87.55889892578125Q487.40252685546875 91.9549560546875 489.89581298828125 97.79449462890625Q492.38909912109375 103.634033203125 492.38909912109375 110.26092529296875Z" fill="#f1b31c" />
<path d="M492.38909912109375 366.26092529296875Q492.38909912109375 372.8878173828125 489.89581298828125 378.72735595703125Q487.40252685546875 384.56689453125 483.0064697265625 388.96295166015625Q478.61041259765625 393.3590087890625 472.7708740234375 395.852294921875Q466.93133544921875 398.3455810546875 460.304443359375 398.3455810546875Q453.67755126953125 398.3455810546875 447.8380126953125 395.852294921875Q441.99847412109375 393.3590087890625 437.6024169921875 388.96295166015625Q433.20635986328125 384.56689453125 430.71307373046875 378.72735595703125Q428.21978759765625 372.8878173828125 428.21978759765625 366.26092529296875Q428.21978759765625 359.634033203125 430.71307373046875 353.79449462890625Q433.20635986328125 347.9549560546875 437.6024169921875 343.55889892578125Q441.99847412109375 339.162841796875 447.8380126953125 336.6695556640625Q453.67755126953125 334.17626953125 460.304443359375 334.17626953125Q466.93133544921875 334.17626953125 472.7708740234375 336.6695556640625Q478.61041259765625 339.162841796875 483.0064697265625 343.55889892578125Q487.40252685546875 347.9549560546875 489.89581298828125 353.79449462890625Q492.38909912109375 359.634033203125 492.38909912109375 366.26092529296875Z" fill="#f1b31c" />
<path d="M567.3890991210938 134.26092529296875Q567.3890991210938 140.8878173828125 564.8958129882812 146.72735595703125Q562.4025268554688 152.56689453125 558.0064697265625 156.96295166015625Q553.6104125976562 161.3590087890625 547.7708740234375 163.852294921875Q541.9313354492188 166.3455810546875 535.304443359375 166.3455810546875Q528.6775512695312 166.3455810546875 522.8380126953125 163.852294921875Q516.9984741210938 161.3590087890625 512.6024169921875 156.96295166015625Q508.20635986328125 152.56689453125 505.71307373046875 146.72735595703125Q503.21978759765625 140.8878173828125 503.21978759765625 134.26092529296875Q503.21978759765625 127.634033203125 505.71307373046875 121.79449462890625Q508.20635986328125 115.9549560546875 512.6024169921875 111.55889892578125Q516.9984741210938 107.162841796875 522.8380126953125 104.6695556640625Q528.6775512695312 102.17626953125 535.304443359375 102.17626953125Q541.9313354492188 102.17626953125 547.7708740234375 104.6695556640625Q553.6104125976562 107.162841796875 558.0064697265625 111.55889892578125Q562.4025268554688 115.9549560546875 564.8958129882812 121.79449462890625Q567.3890991210938 127.634033203125 567.3890991210938 134.26092529296875Z" fill="#f1b31c" />
<path d="M416.38909912109375 342.26092529296875Q416.38909912109375 348.8878173828125 413.89581298828125 354.72735595703125Q411.40252685546875 360.56689453125 407.0064697265625 364.96295166015625Q402.61041259765625 369.3590087890625 396.7708740234375 371.852294921875Q390.93133544921875 374.3455810546875 384.304443359375 374.3455810546875Q377.67755126953125 374.3455810546875 371.8380126953125 371.852294921875Q365.99847412109375 369.3590087890625 361.6024169921875 364.96295166015625Q357.20635986328125 360.56689453125 354.71307373046875 354.72735595703125Q352.21978759765625 348.8878173828125 352.21978759765625 342.26092529296875Q352.21978759765625 335.634033203125 354.71307373046875 329.79449462890625Q357.20635986328125 323.9549560546875 361.6024169921875 319.55889892578125Q365.99847412109375 315.162841796875 371.8380126953125 312.6695556640625Q377.67755126953125 310.17626953125 384.304443359375 310.17626953125Q390.93133544921875 310.17626953125 396.7708740234375 312.6695556640625Q402.61041259765625 315.162841796875 407.0064697265625 319.55889892578125Q411.40252685546875 323.9549560546875 413.89581298828125 329.79449462890625Q416.38909912109375 335.634033203125 416.38909912109375 342.26092529296875Z" fill="#f1b31c" />
<path d="M567.3890991210938 342.26092529296875Q567.3890991210938 348.8878173828125 564.8958129882812 354.72735595703125Q562.4025268554688 360.56689453125 558.0064697265625 364.96295166015625Q553.6104125976562 369.3590087890625 547.7708740234375 371.852294921875Q541.9313354492188 374.3455810546875 535.304443359375 374.3455810546875Q528.6775512695312 374.3455810546875 522.8380126953125 371.852294921875Q516.9984741210938 369.3590087890625 512.6024169921875 364.96295166015625Q508.20635986328125 360.56689453125 505.71307373046875 354.72735595703125Q503.21978759765625 348.8878173828125 503.21978759765625 342.26092529296875Q503.21978759765625 335.634033203125 505.71307373046875 329.79449462890625Q508.20635986328125 323.9549560546875 512.6024169921875 319.55889892578125Q516.9984741210938 315.162841796875 522.8380126953125 312.6695556640625Q528.6775512695312 310.17626953125 535.304443359375 310.17626953125Q541.9313354492188 310.17626953125 547.7708740234375 312.6695556640625Q553.6104125976562 315.162841796875 558.0064697265625 319.55889892578125Q562.4025268554688 323.9549560546875 564.8958129882812 329.79449462890625Q567.3890991210938 335.634033203125 567.3890991210938 342.26092529296875Z" fill="#f1b31c" />
<path d="M416.38909912109375 134.26092529296875Q416.38909912109375 140.8878173828125 413.89581298828125 146.72735595703125Q411.40252685546875 152.56689453125 407.0064697265625 156.96295166015625Q402.61041259765625 161.3590087890625 396.7708740234375 163.852294921875Q390.93133544921875 166.3455810546875 384.304443359375 166.3455810546875Q377.67755126953125 166.3455810546875 371.8380126953125 163.852294921875Q365.99847412109375 161.3590087890625 361.6024169921875 156.96295166015625Q357.20635986328125 152.56689453125 354.71307373046875 146.72735595703125Q352.21978759765625 140.8878173828125 352.21978759765625 134.26092529296875Q352.21978759765625 127.634033203125 354.71307373046875 121.79449462890625Q357.20635986328125 115.9549560546875 361.6024169921875 111.55889892578125Q365.99847412109375 107.162841796875 371.8380126953125 104.6695556640625Q377.67755126953125 102.17626953125 384.304443359375 102.17626953125Q390.93133544921875 102.17626953125 396.7708740234375 104.6695556640625Q402.61041259765625 107.162841796875 407.0064697265625 111.55889892578125Q411.40252685546875 115.9549560546875 413.89581298828125 121.79449462890625Q416.38909912109375 127.634033203125 416.38909912109375 134.26092529296875Z" fill="#f1b31c" />
<path d="M614.3890991210938 278.26092529296875Q614.3890991210938 284.8878173828125 611.8958129882812 290.72735595703125Q609.4025268554688 296.56689453125 605.0064697265625 300.96295166015625Q600.6104125976562 305.3590087890625 594.7708740234375 307.852294921875Q588.9313354492188 310.3455810546875 582.304443359375 310.3455810546875Q575.6775512695312 310.3455810546875 569.8380126953125 307.852294921875Q563.9984741210938 305.3590087890625 559.6024169921875 300.96295166015625Q555.2063598632812 296.56689453125 552.7130737304688 290.72735595703125Q550.2197875976562 284.8878173828125 550.2197875976562 278.26092529296875Q550.2197875976562 271.634033203125 552.7130737304688 265.79449462890625Q555.2063598632812 259.9549560546875 559.6024169921875 255.55889892578125Q563.9984741210938 251.162841796875 569.8380126953125 248.6695556640625Q575.6775512695312 246.17626953125 582.304443359375 246.17626953125Q588.9313354492188 246.17626953125 594.7708740234375 248.6695556640625Q600.6104125976562 251.162841796875 605.0064697265625 255.55889892578125Q609.4025268554688 259.9549560546875 611.8958129882812 265.79449462890625Q614.3890991210938 271.634033203125 614.3890991210938 278.26092529296875Z" fill="#f1b31c" />
<path d="M370.38909912109375 198.26092529296875Q370.38909912109375 204.8878173828125 367.89581298828125 210.72735595703125Q365.40252685546875 216.56689453125 361.0064697265625 220.96295166015625Q356.61041259765625 225.3590087890625 350.7708740234375 227.852294921875Q344.93133544921875 230.3455810546875 338.304443359375 230.3455810546875Q331.67755126953125 230.3455810546875 325.8380126953125 227.852294921875Q319.99847412109375 225.3590087890625 315.6024169921875 220.96295166015625Q311.20635986328125 216.56689453125 308.71307373046875 210.72735595703125Q306.21978759765625 204.8878173828125 306.21978759765625 198.26092529296875Q306.21978759765625 191.634033203125 308.71307373046875 185.79449462890625Q311.20635986328125 179.9549560546875 315.6024169921875 175.55889892578125Q319.99847412109375 171.162841796875 325.8380126953125 168.6695556640625Q331.67755126953125 166.17626953125 338.304443359375 166.17626953125Q344.93133544921875 166.17626953125 350.7708740234375 168.6695556640625Q356.61041259765625 171.162841796875 361.0064697265625 175.55889892578125Q365.40252685546875 179.9549560546875 367.89581298828125 185.79449462890625Q370.38909912109375 191.634033203125 370.38909912109375 198.26092529296875Z" fill="#f1b31c" />
<path d="M614.3890991210938 198.26092529296875Q614.3890991210938 204.8878173828125 611.8958129882812 210.72735595703125Q609.4025268554688 216.56689453125 605.0064697265625 220.96295166015625Q600.6104125976562 225.3590087890625 594.7708740234375 227.852294921875Q588.9313354492188 230.3455810546875 582.304443359375 230.3455810546875Q575.6775512695312 230.3455810546875 569.8380126953125 227.852294921875Q563.9984741210938 225.3590087890625 559.6024169921875 220.96295166015625Q555.2063598632812 216.56689453125 552.7130737304688 210.72735595703125Q550.2197875976562 204.8878173828125 550.2197875976562 198.26092529296875Q550.2197875976562 191.634033203125 552.7130737304688 185.79449462890625Q555.2063598632812 179.9549560546875 559.6024169921875 175.55889892578125Q563.9984741210938 171.162841796875 569.8380126953125 168.6695556640625Q575.6775512695312 166.17626953125 582.304443359375 166.17626953125Q588.9313354492188 166.17626953125 594.7708740234375 168.6695556640625Q600.6104125976562 171.162841796875 605.0064697265625 175.55889892578125Q609.4025268554688 179.9549560546875 611.8958129882812 185.79449462890625Q614.3890991210938 191.634033203125 614.3890991210938 198.26092529296875Z" fill="#f1b31c" />
<path d="M370.38909912109375 278.26092529296875Q370.38909912109375 284.8878173828125 367.89581298828125 290.72735595703125Q365.40252685546875 296.56689453125 361.0064697265625 300.96295166015625Q356.61041259765625 305.3590087890625 350.7708740234375 307.852294921875Q344.93133544921875 310.3455810546875 338.304443359375 310.3455810546875Q331.67755126953125 310.3455810546875 325.8380126953125 307.852294921875Q319.99847412109375 305.3590087890625 315.6024169921875 300.96295166015625Q311.20635986328125 296.56689453125 308.71307373046875 290.72735595703125Q306.21978759765625 284.8878173828125 306.21978759765625 278.26092529296875Q306.21978759765625 271.634033203125 308.71307373046875 265.79449462890625Q311.20635986328125 259.9549560546875 315.6024169921875 255.55889892578125Q319.99847412109375 251.162841796875 325.8380126953125 248.6695556640625Q331.67755126953125 246.17626953125 338.304443359375 246.17626953125Q344.93133544921875 246.17626953125 350.7708740234375 248.6695556640625Q356.61041259765625 251.162841796875 361.0064697265625 255.55889892578125Q365.40252685546875 259.9549560546875 367.89581298828125 265.79449462890625Q370.38909912109375 271.634033203125 370.38909912109375 278.26092529296875Z" fill="#f1b31c" />
<path d="M73 37Q73 18 92 18H1228Q1247 18 1247 37V733Q1247 752 1228 752H92Q73 752 73 733ZM110 715H1210V55H110Z" fill="#000000" />
</g></svg>