<svg xmlns="http://www.w3.org/2000/svg" viewBox="0 0 2048 2048">
<g transform="matrix(1 0 0 -1 0 2048)">
<path d="M1008 -73V0Q1008 46 981.5 88.0Q955 130 913.0 156.5Q871 183 825 183Q660 46 495 183Q461 183 425.0 170.0Q389 157 358.5 132.5Q328 108 309.5 74.0Q291 40 291 0L293 -73Z" fill="#92d3f5" />
<path d="M839 330Q876 330 891.0 363.0Q906 396 909.0 450.0Q912 504 912 568Q912 616 898.0 662.0Q884 708 853.0 745.0Q822 782 773.5 803.5Q725 825 656 825Q564 825 503.5 790.0Q443 755 413.5 698.5Q384 642 384 578Q384 513 391.0 456.5Q398 400 417.0 365.0Q436 330 472 330Z" fill="#000000" />
<path d="M640 656Q657 675 671.0 696.0Q685 717 701 729Q701 729 714.5 710.0Q728 691 750.0 662.5Q772 634 796.0 604.5Q820 575 841 555Q841 555 850.0 529.5Q859 504 859 463Q859 380 831.0 322.0Q803 264 756.5 233.0Q710 202 655 202Q629 202 602.5 211.5Q576 221 556.0 234.0Q536 247 529 255Z" fill="#6a462f" />
<path d="M309 -73Q323 -11 336.0 48.0Q349 107 359.5 154.0Q370 201 376.5 229.0Q383 257 383 257Q383 257 377.0 264.0Q371 271 352 310Q346 322 340.0 348.5Q334 375 332.5 406.5Q331 438 338 464Q349 504 360.0 535.5Q371 567 385 568Q411 570 417.5 551.5Q424 533 416 517Q403 489 402.0 464.5Q401 440 401 440Q415 481 431.0 520.5Q447 560 464.0 591.0Q481 622 495 637Q511 653 527.5 650.0Q544 647 551.0 631.0Q558 615 544 594L578 660Q589 673 605.5 675.5Q622 678 636.5 671.5Q651 665 657.5 650.0Q664 635 656 612L600 543Q615 571 632.5 577.5Q650 584 659.0 571.5Q668 559 658 532Q643 493 637.0 463.0Q631 433 627.0 405.5Q623 378 614.0 347.0Q605 316 584 275Q575 257 563.0 247.0Q551 237 541.5 227.5Q532 218 529 202Q525 171 524.0 126.0Q523 81 524.5 37.0Q526 -7 527.5 -38.0Q529 -69 529 -73Z" fill="#6a462f" />
<path d="M389 619Q386 601 404 598Q422 595 425 613Q454 807 660 807Q780 807 843 733Q898 668 898 568Q898 348 843 348Q825 348 825 330Q825 312 843 312Q907 312 925 397Q935 443 935 568Q935 682 871 757Q797 843 660 843Q540 843 467 775Q403 716 389 619Z" fill="#000000" />
<path d="M767.6845703125 494.67486572265625Q767.6845703125 510.0086669921875 757.017578125 520.6756591796875Q746.3505859375 531.3426513671875 731.0167846679688 531.3426513671875Q715.6829833984375 531.3426513671875 705.0159912109375 520.6756591796875Q694.3489990234375 510.0086669921875 694.3489990234375 494.67486572265625Q694.3489990234375 480.00775146484375 705.0159912109375 469.0074157714844Q715.6829833984375 458.007080078125 731.0167846679688 458.007080078125Q746.3505859375 458.007080078125 757.017578125 469.0074157714844Q767.6845703125 480.00775146484375 767.6845703125 494.67486572265625Z" fill="#000000" />
<path d="M686 367Q668 367 668 348Q668 330 686 330H715Q733 330 733 348Q733 367 715 367Z" fill="#000000" />
<path d="M990 -55Q990 -73 1008 -73Q1027 -73 1027 -55V0Q1027 76 963 131Q902 183 825 183Q818 183 813 179Q737 116 640 116Q624 116 605 118Q595 119 590 115Q585 111 584 102Q582 84 600 82Q622 79 640 79Q747 79 831 147Q891 144 939 103Q990 59 990 0Z" fill="#000000" />
<path d="M608 640Q618 655 603 665Q596 670 589 669Q583 668 578 660Q577 658 574 655Q540 604 493 512Q484 495 479 485Q470 469 487 460Q495 456 501 458Q507 460 511 468Q516 478 525 495Q572 585 605 635Q607 638 608 640Z" fill="#000000" />
<path d="M387 456Q383 448 385 441Q387 435 395 431Q411 423 420 439Q491 577 519 612Q530 626 516 638Q502 649 490 635Q460 597 387 456Z" fill="#000000" />
<path d="M294 -51Q290 -69 308 -73Q317 -75 322 -71Q328 -68 330 -59Q366 106 403 260Q405 268 400 275Q390 288 365 338Q322 423 400 540Q410 555 395 565Q380 575 370 560Q280 426 332 322Q353 279 365 260Q330 110 294 -51Z" fill="#000000" />
<path d="M658 615Q666 632 650 640Q642 644 636 642Q629 640 625 632Q623 626 617 616Q570 523 551 464Q545 447 563 441Q571 438 577 441Q583 444 586 453Q604 509 650 599Q655 610 658 615Z" fill="#000000" />
<path d="M513 -55Q513 -64 518 -69Q522 -73 532 -73Q550 -73 550 -55Q550 -53 549 -37Q539 131 550 199Q552 211 572 229Q595 250 603 267Q628 320 654 434Q668 493 677 527Q679 536 676 542Q672 547 663 549Q646 554 641 536Q632 501 619 443Q594 332 570 283Q565 272 547 256Q517 229 514 205Q503 133 513 -39Q513 -54 513 -55Z" fill="#000000" />
<path d="M671 696Q665 689 665 683Q665 676 672 670Q686 658 698 671Q700 674 705 680Q709 684 713 688Q778 608 828 558Q843 525 843 477Q843 364 787 298Q736 238 659 238Q654 238 643 239Q625 241 623 223Q622 204 640 203Q653 202 659 202Q753 202 815 275Q880 351 880 477Q880 536 860 577Q858 579 856 581Q802 636 729 726Q718 740 704 730Q692 721 677 703Q673 698 671 696Z" fill="#000000" />
</g></svg>