<svg xmlns="http://www.w3.org/2000/svg" viewBox="0 0 2048 2048">
<g transform="matrix(1 0 0 -1 0 2048)">
<path d="M216 817V-60H1096V817Z" fill="#d0cfce" />
<path d="M202 -58Q202 -77 220 -77H1100Q1119 -77 1119 -58V822Q1119 840 1100 840H220Q202 840 202 822ZM239 803H1082V-40H239Z" fill="#000000" />
<path d="M556 302Q556 262 585 233Q614 204 654 204H666Q706 204 735 233Q764 262 764 302Q764 343 735 371Q706 400 666 400H654Q614 400 585 371Q556 343 556 302ZM593 302Q593 364 654 364H666Q727 364 727 302Q727 241 666 241H654Q593 241 593 302Z" fill="#000000" />
<path d="M556 462Q556 421 585 392Q614 364 654 364H666Q706 364 735 392Q764 421 764 462Q764 502 735 531Q706 560 666 560H654Q614 560 585 531Q556 502 556 462ZM593 462Q593 523 654 523H666Q727 523 727 462Q727 436 709 418Q691 400 666 400H654Q593 400 593 462Z" fill="#000000" />
</g></svg>