<svg xmlns="http://www.w3.org/2000/svg" viewBox="0 0 2048 2048">
<g transform="matrix(1 0 0 -1 0 2048)">
<path d="M842 -72V0Q842 46 815.5 83.5Q789 121 747.0 143.0Q705 165 659 165Q494 28 329 165Q283 165 241.0 143.0Q199 121 172.0 83.5Q145 46 145 0V-72Z" fill="#92d3f5" />
<path d="M1076 317Q1077 321 1067.0 330.0Q1057 339 1057 339L880 521L833 543L836 463L864 397L914 341L902 330L911 317Q890 289 893.0 254.0Q896 219 921 195Q947 171 982.0 170.0Q1017 169 1044 192Q1070 214 1075.0 249.0Q1080 284 1060 313Z" fill="#9b9b9a" />
<path d="M984 463Q984 501 1011.0 528.0Q1038 555 1076 555Q1114 555 1140.5 528.0Q1167 501 1167 463Q1167 425 1140.5 398.5Q1114 372 1076 372H764Q744 372 730.5 382.0Q717 392 709.5 406.0Q702 420 698.5 430.0Q695 440 695 440L986 445Q984 454 984 463Z" fill="#d0cfce" />
<path d="M291 477Q289 507 289.0 514.5Q289 522 290.5 518.0Q292 514 294.5 509.0Q297 504 301 510Q449 592 584 695Q636 636 677 569Q696 525 695 477Q695 394 667.0 337.0Q639 280 593.0 250.0Q547 220 493 220Q409 220 354.5 287.0Q300 354 291 477Z" fill="#a57939" />
<path d="M940 181 989 154Q977 105 955.0 78.5Q933 52 909.5 41.0Q886 30 869.5 28.0Q853 26 853 26Q847 46 830.5 65.0Q814 84 795.5 100.0Q777 116 763.5 125.5Q750 135 750 135Q715 159 673 162Q502 24 330 162Q275 157 232 124Q196 146 165 174Q166 172 162.5 190.0Q159 208 154.5 238.5Q150 269 150.0 304.0Q150 339 158.0 372.5Q166 406 187 431Q200 448 207 469Q227 522 221 578Q217 636 231 691Q243 736 277.0 770.0Q311 804 359.5 823.0Q408 842 465 842Q509 842 538.5 830.5Q568 819 582.5 806.5Q597 794 598 794Q603 788 610 787Q636 785 669.0 769.5Q702 754 733.0 730.5Q764 707 784.0 680.0Q804 653 804 628Q806 586 806.5 560.5Q807 535 808.5 517.5Q810 500 814.0 484.0Q818 468 828 445L708 439Q708 439 710.0 429.0Q712 419 718.0 406.5Q724 394 737.0 385.0Q750 376 772 377Q830 381 888 371L914 341L902 330Q902 330 901.0 314.0Q900 298 900.5 275.0Q901 252 904.5 229.5Q908 207 916.5 192.5Q925 178 940 181ZM506 219Q560 221 594.5 244.5Q629 268 649.0 303.5Q669 339 678.0 378.5Q687 418 689.0 453.0Q691 488 690.0 510.0Q689 532 689 532Q666 627 587 684Q587 684 567.5 673.5Q548 663 516.5 645.0Q485 627 448.5 606.0Q412 585 378.5 564.0Q345 543 321.0 525.0Q297 507 291 495Q291 495 292.5 474.5Q294 454 299.5 421.5Q305 389 318.0 353.0Q331 317 355.0 285.5Q379 254 416.0 235.0Q453 216 506 219Z" fill="#000000" />
<path d="M1112.1889038085938 463.403564453125Q1112.1889038085938 470.97039794921875 1109.3187255859375 477.6239929199219Q1106.4485473632812 484.277587890625 1101.4039916992188 489.3221435546875Q1096.3594360351562 494.36669921875 1089.7058410644531 497.23687744140625Q1083.05224609375 500.1070556640625 1075.4854125976562 500.1070556640625Q1067.9185791015625 500.1070556640625 1061.2649841308594 497.23687744140625Q1054.6113891601562 494.36669921875 1049.5668334960938 489.3221435546875Q1044.5222778320312 484.277587890625 1041.652099609375 477.6239929199219Q1038.7819213867188 470.97039794921875 1038.7819213867188 463.403564453125Q1038.7819213867188 455.83673095703125 1041.652099609375 449.1831359863281Q1044.5222778320312 442.529541015625 1049.5668334960938 437.4849853515625Q1054.6113891601562 432.4404296875 1061.2649841308594 429.57025146484375Q1067.9185791015625 426.7000732421875 1075.4854125976562 426.7000732421875Q1083.05224609375 426.7000732421875 1089.7058410644531 429.57025146484375Q1096.3594360351562 432.4404296875 1101.4039916992188 437.4849853515625Q1106.4485473632812 442.529541015625 1109.3187255859375 449.1831359863281Q1112.1889038085938 455.83673095703125 1112.1889038085938 463.403564453125Z" fill="#000000" />
<path d="M127 -55Q127 -73 146 -73Q164 -73 164 -55V0Q164 59 215 103Q263 145 322 147Q494 8 665 147Q725 145 773 103Q824 59 824 0V-55Q824 -73 842 -73Q861 -73 861 -55V0Q861 76 797 131Q736 183 659 183Q652 183 647 179Q494 51 341 179Q336 183 329 183Q252 183 191 131Q127 76 127 0Z" fill="#000000" />
<path d="M602.0570068359375 495.43743896484375Q602.0570068359375 510.8302001953125 591.2820739746094 521.6051330566406Q580.5071411132812 532.3800659179688 565.1143798828125 532.3800659179688Q549.7216186523438 532.3800659179688 538.9466857910156 521.6051330566406Q528.1717529296875 510.8302001953125 528.1717529296875 495.43743896484375Q528.1717529296875 480.044677734375 538.9466857910156 469.2697448730469Q549.7216186523438 458.49481201171875 565.1143798828125 458.49481201171875Q580.5071411132812 458.49481201171875 591.2820739746094 469.2697448730469Q602.0570068359375 480.044677734375 602.0570068359375 495.43743896484375Z" fill="#000000" />
<path d="M455.0570068359375 495.43743896484375Q455.0570068359375 510.8302001953125 444.2820739746094 521.6051330566406Q433.50714111328125 532.3800659179688 418.1143798828125 532.3800659179688Q402.72161865234375 532.3800659179688 391.9466857910156 521.6051330566406Q381.1717529296875 510.8302001953125 381.1717529296875 495.43743896484375Q381.1717529296875 480.044677734375 391.9466857910156 469.2697448730469Q402.72161865234375 458.49481201171875 418.1143798828125 458.49481201171875Q433.50714111328125 458.49481201171875 444.2820739746094 469.2697448730469Q455.0570068359375 480.044677734375 455.0570068359375 495.43743896484375Z" fill="#000000" />
<path d="M447 365Q431 373 422 357Q418 349 420 343Q422 337 430 332Q494 300 557 332Q565 337 567 343Q569 349 565 357Q557 373 540 365Q494 341 447 365Z" fill="#000000" />
<path d="M966 463 695 459Q686 458 681 454Q677 449 677 440Q677 438 677 437Q694 353 764 353H1076Q1121 353 1154 385Q1186 418 1186 463Q1186 509 1154 541Q1121 573 1076 573Q1030 573 998 541Q966 509 966 463ZM1002 463Q1002 537 1076 537Q1149 537 1149 463Q1149 390 1076 390H764Q733 390 720 422L986 427Q988 427 990 427Q1008 431 1004 449Q1002 456 1002 463Z" fill="#000000" />
<path d="M1075 323Q1065 338 1050 328Q1035 318 1045 303Q1082 248 1032 206Q982 163 934 208Q886 253 925 306Q936 320 922 331Q907 342 896 328Q871 294 875 252Q878 210 909 181Q939 153 981 152Q1023 151 1055 178Q1087 205 1093 247Q1099 288 1075 323Z" fill="#000000" />
<path d="M821 572Q804 579 797 562Q794 554 796 548Q799 542 807 538Q812 536 816 533Q818 531 820 530L867 482Q880 469 893 482Q899 489 899 495Q899 502 893 508L846 556Q843 559 839 561Q831 568 821 572Z" fill="#000000" />
<path d="M1021 262Q1021 283 1003 294Q984 305 966 294Q947 283 947 262Q947 240 966 229Q984 218 1003 229Q1021 240 1021 262Z" fill="#000000" />
<path d="M162 177Q167 169 173 168Q180 167 187 171Q203 181 193 197Q158 251 165 307Q169 341 198 408Q211 436 216 450Q233 493 230 560Q228 625 241 673Q259 740 324 782Q389 824 474 824Q565 824 607 775Q612 769 619 769Q675 764 723 725Q775 683 786 624Q788 613 790 580Q797 491 816 445Q823 428 840 435Q848 438 851 444Q853 450 850 459Q833 499 827 583Q825 617 822 631Q808 703 746 753Q692 797 630 804Q577 860 474 860Q379 860 305 813Q227 763 205 682Q191 629 194 558Q196 499 182 464Q177 450 165 423Q133 351 128 311Q120 242 162 177Z" fill="#000000" />
<path d="M272 475Q272 360 336 280Q400 200 492 200Q585 200 649 280Q712 360 712 475Q712 593 597 708Q584 721 571 708Q538 675 408 601Q272 523 272 494ZM309 475V494Q309 502 426 569Q539 633 583 670Q676 572 676 475Q676 373 620 303Q567 237 492 237Q418 237 365 303Q309 373 309 475Z" fill="#000000" />
<path d="M995 161Q1000 178 982 183Q964 188 959 170Q950 132 926 101Q914 86 929 75Q944 64 955 78Q983 115 995 161Z" fill="#000000" />
</g></svg>