<svg xmlns="http://www.w3.org/2000/svg" viewBox="0 0 2048 2048">
<g transform="matrix(1 0 0 -1 0 2048)">
<path d="M990 -72H330V0Q330 46 351.0 83.5Q372 121 409.0 143.0Q446 165 491 165Q656 27 821 165Q867 165 905.5 143.0Q944 121 967.0 83.5Q990 46 990 0Z" fill="#92d3f5" />
<path d="M880 385Q891 385 899.5 408.0Q908 431 912.0 467.0Q916 503 914.5 543.5Q913 584 905.0 620.0Q897 656 880 678Q839 733 781.0 760.5Q723 788 660.0 788.0Q597 788 539.0 760.5Q481 733 440 678Q424 656 415.5 620.0Q407 584 405.5 543.5Q404 503 408.0 467.0Q412 431 420.5 408.0Q429 385 440 385Z" fill="#000000" />
<path d="M458 422Q458 477 466.5 512.5Q475 548 486.0 568.5Q497 589 505.0 597.0Q513 605 513 605Q532 587 573.0 573.0Q614 559 673.5 563.5Q733 568 807 605Q807 605 815.0 597.0Q823 589 834.0 568.5Q845 548 853.5 512.5Q862 477 862 422Q862 348 833.5 299.5Q805 251 758.0 227.0Q711 203 656 203Q601 203 556.0 227.0Q511 251 484.5 299.5Q458 348 458 422Z" fill="#6a462f" />
<path d="M440 367Q458 367 458 385Q458 403 440 403Q428 403 424 505Q420 621 455 667Q532 770 660 770Q788 770 865 667Q900 621 896 505Q892 403 880 403Q862 403 862 385Q862 367 880 367Q928 367 933 504Q937 632 895 689Q807 807 660 807Q513 807 425 689Q383 632 387 504Q392 367 440 367Z" fill="#000000" />
<path d="M972 -55Q972 -73 990 -73Q1008 -73 1008 -55V2Q1008 78 953 132Q898 185 821 185Q815 185 810 181Q656 53 503 181Q498 185 491 185Q415 185 363 131Q312 78 312 2V-55Q312 -73 330 -73Q348 -73 348 -55V2Q348 64 389 106Q429 146 485 148Q656 10 828 148Q885 146 927 106Q972 62 972 2Z" fill="#000000" />
<path d="M770 440Q770 455 759.0 466.0Q748 477 733 477Q718 477 707.5 466.0Q697 455 697 440Q697 425 707.5 414.0Q718 403 733 403Q748 403 759.0 414.0Q770 425 770 440Z" fill="#000000" />
<path d="M623 440Q623 455 612.5 466.0Q602 477 587 477Q572 477 561.0 466.0Q550 455 550 440Q550 425 561.0 414.0Q572 403 587 403Q602 403 612.5 414.0Q623 425 623 440Z" fill="#000000" />
<path d="M440 422Q440 309 503 245Q562 185 656 185Q752 185 813 244Q880 309 880 422Q880 578 817 620Q808 626 798 621Q704 574 620 582Q556 588 526 618Q516 629 503 620Q440 578 440 422ZM477 422Q477 509 502 560Q508 573 514 580Q552 551 617 545Q706 537 804 583Q810 575 818 560Q843 509 843 422Q843 325 788 271Q737 222 656 222Q577 222 529 270Q477 324 477 422Z" fill="#000000" />
<path d="M610 343Q594 351 585 335Q577 319 593 310Q656 277 720 310Q736 319 728 335Q719 351 703 343Q656 318 610 343Z" fill="#000000" />
</g></svg>