<svg xmlns="http://www.w3.org/2000/svg" viewBox="0 0 2048 2048">
<g transform="matrix(1 0 0 -1 0 2048)">
<path d="M91.5877685546875 733.1798706054688V36.51513671875H1228.2723388671875V733.1798706054688Z" fill="#1e50a0" />
<path d="M181 715 660 428V385H589L110 672V715Z" fill="#ffffff" />
<path d="M659.7684936523438 672.4154663085938 181.394287109375 385.056396484375H109.72149658203125V427.65032958984375L588.095703125 715.0093994140625H659.7684936523438Z" fill="#ffffff" />
<path d="M110.25 604.9757690429688V494.97607421875H660.25V604.9757690429688Z" fill="#ffffff" />
<path d="M330.25 714.9273071289062V384.92822265625H440.25V714.9273071289062Z" fill="#ffffff" />
<path d="M367.0877685546875 714.9273071289062V384.92822265625H403.7723388671875V714.9273071289062Z" fill="#d22f27" />
<path d="M110.25 568.3252563476562V531.65869140625H660.25V568.3252563476562Z" fill="#d22f27" />
<path d="M660 428V385L477 495H548Z" fill="#d22f27" />
<path d="M660 715 477 605H440V626L589 715Z" fill="#d22f27" />
<path d="M110.0 672.0V715.0L293.0 605.0H222.0Z" fill="#d22f27" />
<path d="M110.0 385.0 293.0 495.0H330.0V474.0L181.0 385.0Z" fill="#d22f27" />
<path d="M1113 512Q1113 512 1113.5 485.0Q1114 458 1109.0 416.0Q1104 374 1089.5 328.0Q1075 282 1045.5 241.5Q1016 201 966 179H965Q916 201 886.5 241.5Q857 282 842.0 328.0Q827 374 822.0 416.0Q817 458 817.5 485.0Q818 512 818 512Z" fill="#f1b31c" />
<path d="M1113 521H818Q809 521 809 512Q804 446 820 371Q853 221 958 172Q960 170 964 169Q969 168 973 172Q1078 221 1111 371Q1127 446 1123 512Q1122 521 1113 521ZM966 189Q869 235 839 375Q824 443 827 502H1105Q1108 443 1093 375Q1062 235 966 189Z" fill="#ffffff" />
<path d="M913 262Q933 241 953.0 238.0Q973 235 989.0 241.0Q1005 247 1014.5 254.5Q1024 262 1024 262Q1024 262 1023.0 276.0Q1022 290 1017.0 308.0Q1012 326 1000.5 340.0Q989 354 968 354Q947 354 935.5 340.0Q924 326 919.5 308.0Q915 290 914.0 276.0Q913 262 913 262Z" fill="#5c9e31" />
<path d="M986.4100952148438 354.54559326171875Q986.4100952148438 358.3614501953125 984.9744262695312 361.72393798828125Q983.5387573242188 365.08642578125 981.0074462890625 367.61773681640625Q978.4761352539062 370.1490478515625 975.1136474609375 371.584716796875Q971.7511596679688 373.0203857421875 967.935302734375 373.0203857421875Q964.1194458007812 373.0203857421875 960.7569580078125 371.584716796875Q957.3944702148438 370.1490478515625 954.8631591796875 367.61773681640625Q952.3318481445312 365.08642578125 950.8961791992188 361.72393798828125Q949.4605102539062 358.3614501953125 949.4605102539062 354.54559326171875Q949.4605102539062 350.729736328125 950.8961791992188 347.36724853515625Q952.3318481445312 344.0047607421875 954.8631591796875 341.47344970703125Q957.3944702148438 338.942138671875 960.7569580078125 337.5064697265625Q964.1194458007812 336.07080078125 967.935302734375 336.07080078125Q971.7511596679688 336.07080078125 975.1136474609375 337.5064697265625Q978.4761352539062 338.942138671875 981.0074462890625 341.47344970703125Q983.5387573242188 344.0047607421875 984.9744262695312 347.36724853515625Q986.4100952148438 350.729736328125 986.4100952148438 354.54559326171875Z" fill="#d22f27" />
<path d="M996 354Q996 366 988 374Q980 382 968 382Q957 382 948 374Q940 366 940 354Q940 327 968 327Q980 327 988 335Q996 343 996 354ZM977 354Q977 345 968 345Q959 345 959 354Q959 364 968 364Q977 364 977 354Z" fill="#d22f27" />
<path d="M903 442Q895 461 881.5 470.5Q868 480 857 475Q847 470 845.5 453.5Q844 437 853 419Q861 401 874.5 391.5Q888 382 899 387Q909 392 910.5 408.0Q912 424 903 442Z" fill="#f4aa41" />
<path d="M924 431Q925 459 911 474Q896 488 882 474Q868 459 869 431Q868 402 882 388Q896 373 911 388Q925 402 924 431Z" fill="#ffa7c0" />
<path d="M1072.2606811523438 430.43756103515625Q1073.0712890625 451.0379638671875 1064.8724365234375 465.36627197265625Q1056.673583984375 479.694580078125 1044.5908203125 479.8302001953125Q1033.4137573242188 479.54180908203125 1025.0590209960938 465.2337646484375Q1016.7042846679688 450.92572021484375 1017.223388671875 430.8070068359375Q1016.8367919921875 411.1123046875 1025.03564453125 396.78399658203125Q1033.2344970703125 382.4556884765625 1045.3172607421875 382.320068359375Q1056.4943237304688 382.60845947265625 1064.6370544433594 396.4636535644531Q1072.77978515625 410.31884765625 1072.2606811523438 430.43756103515625Z" fill="#a57939" />
<path d="M73 37Q73 18 92 18H1228Q1247 18 1247 37V733Q1247 752 1228 752H92Q73 752 73 733ZM110 715H1210V55H110Z" fill="#000000" />
</g></svg>