<svg xmlns="http://www.w3.org/2000/svg" viewBox="0 0 2048 2048">
<g transform="matrix(1 0 0 -1 0 2048)">
<path d="M91.5877685546875 733.1798706054688V36.51513671875H1228.2723388671875V733.1798706054688Z" fill="#1e50a0" />
<path d="M643.276611328125 553.8310546875 685.4658203125 585.05322265625 634.662109375 583.629638671875 674.718994140625 554.525634765625 660.375244140625 603.283203125Z" fill="#f1b31c" />
<path d="M635 557Q633 552 636 548Q642 541 649 546L660 554L670 547Q673 544 678 546Q682 547 684 550Q685 553 684 557L680 570L691 578Q695 581 695 585Q694 594 685 594H673L669 606Q668 610 663 612Q659 613 656 612Q653 610 652 606L647 593H634Q630 593 627 589Q622 582 629 576L639 569Z" fill="#f1b31c" />
<path d="M643.276611328125 166.8310546875 685.4658203125 198.05322265625 634.662109375 196.629638671875 674.718994140625 167.525634765625 660.375244140625 216.283203125Z" fill="#f1b31c" />
<path d="M635 170Q633 165 636 161Q642 154 649 159L660 167L670 160Q673 158 678 159Q686 161 684 170L680 183L691 191Q695 194 695 198Q694 207 685 207H673L669 219Q668 223 663 225Q659 226 656 225Q653 224 652 219L647 206H634Q630 206 627 202Q622 195 629 189L639 182Z" fill="#f1b31c" />
<path d="M478.444091796875 459.773193359375 520.61083984375 491.00244140625 469.821044921875 489.560791015625 509.8779296875 460.47900390625 495.520263671875 509.218505859375Z" fill="#f1b31c" />
<path d="M470 463Q468 458 471 454Q474 451 477 450Q480 450 484 452L494 460L504 453Q508 450 512 452Q517 453 518 456Q520 459 519 463L515 476L526 484Q529 487 529 491Q529 496 527 498Q524 500 520 500H508L504 512Q503 516 498 518Q489 521 487 512L482 499H469Q465 499 462 495Q459 491 460 488Q460 485 464 482L474 475Z" fill="#f1b31c" />
<path d="M813.276611328125 265.8310546875 855.4658203125 297.05322265625 804.662109375 295.629638671875 844.718994140625 266.525634765625 830.375244140625 315.283203125Z" fill="#f1b31c" />
<path d="M805 269Q803 265 806 261Q809 257 812 257Q815 256 819 259L830 267L839 260Q843 257 847 258Q856 261 854 270L850 282L861 290Q865 293 864 298Q864 307 855 307L843 306L839 318Q838 323 833 324Q825 327 822 319L817 306H804Q800 305 797 302Q792 294 799 289L809 282Z" fill="#f1b31c" />
<path d="M546.276611328125 526.8310546875 588.4658203125 558.05322265625 537.662109375 556.629638671875 577.718994140625 527.525634765625 563.375244140625 576.283203125Z" fill="#f1b31c" />
<path d="M538 530Q537 526 540 522Q545 514 553 520L563 528L573 521Q577 518 581 519Q590 522 587 531L583 543L594 551Q598 554 598 559Q598 568 589 568L576 567L573 579Q571 584 567 585Q558 588 555 580L551 567L538 566Q533 566 531 563Q525 555 533 550L543 543Z" fill="#f1b31c" />
<path d="M740.3200073242188 191.9566650390625 782.50390625 223.1619873046875 731.7137451171875 221.74884033203125 771.7539672851562 192.64483642578125 757.4237670898438 241.3919677734375Z" fill="#f1b31c" />
<path d="M732 195Q730 191 733 187Q736 183 739 183Q742 182 746 185L757 193L766 185Q770 183 774 184Q783 187 781 196L777 208L788 216Q792 219 791 224Q791 233 782 233L770 232L766 244Q765 249 760 250Q752 253 749 244L744 232L731 231Q727 231 724 228Q721 224 722 221Q722 217 726 215L736 208Z" fill="#f1b31c" />
<path d="M836.3200073242188 359.9566650390625 878.50390625 391.1619873046875 827.7137451171875 389.74884033203125 867.7539672851562 360.64483642578125 853.4237670898438 409.3919677734375Z" fill="#f1b31c" />
<path d="M828 363Q827 359 830 355Q835 347 843 353L853 361L863 354Q867 351 871 352Q880 355 877 364L874 376L884 384Q888 387 888 392Q888 401 879 401L866 400L863 412Q861 417 857 418Q848 421 845 413L841 400H828Q823 399 821 396Q818 392 818 389Q819 386 823 383L833 376Z" fill="#f1b31c" />
<path d="M449.32000732421875 359.9566650390625 491.50390625 391.1619873046875 440.7137451171875 389.74884033203125 480.75396728515625 360.64483642578125 466.42376708984375 409.3919677734375Z" fill="#f1b31c" />
<path d="M441 363Q440 359 443 355Q446 351 449 351Q452 350 456 353L466 361L476 354Q480 351 484 352Q493 355 490 364L487 376L497 384Q501 387 501 392Q501 401 492 401L479 400L476 412Q474 417 470 418Q466 420 463 418Q460 417 458 413L454 400H441Q436 399 434 396Q428 388 436 383L446 376Z" fill="#f1b31c" />
<path d="M738.3200073242188 527.9566650390625 780.50390625 559.1619873046875 729.7137451171875 557.7488403320312 769.7539672851562 528.6448364257812 755.4237670898438 577.3919677734375Z" fill="#f1b31c" />
<path d="M730 531Q728 526 731 522Q734 519 737 518Q740 518 744 520L755 528L764 521Q768 518 772 520Q781 522 779 531L775 544L786 552Q790 554 789 559Q789 568 780 568H768L764 580Q763 584 758 586Q750 589 747 580L742 567H729Q725 567 722 563Q717 556 724 550L734 543Z" fill="#f1b31c" />
<path d="M544.276611328125 192.8310546875 586.4658203125 224.05322265625 535.662109375 222.629638671875 575.718994140625 193.525634765625 561.375244140625 242.283203125Z" fill="#f1b31c" />
<path d="M536 196Q535 191 538 187Q543 180 551 185L561 193L571 186Q575 183 579 185Q588 187 585 196L581 208L592 217Q596 219 596 224Q596 233 587 233H574L571 245Q569 249 565 251Q556 254 553 245L549 232H536Q531 232 529 228Q526 224 526 221Q527 218 531 215L541 208Z" fill="#f1b31c" />
<path d="M808.444091796875 460.773193359375 850.61083984375 492.00244140625 799.821044921875 490.560791015625 839.8779296875 461.47900390625 825.520263671875 510.218505859375Z" fill="#f1b31c" />
<path d="M800 463Q799 459 802 455Q807 448 815 453L825 461L835 454Q839 451 843 452Q852 455 849 464L845 476L856 484Q860 487 860 492Q860 501 851 501H838L835 512Q833 517 829 519Q820 521 817 513L813 500H800Q795 500 793 496Q790 492 790 489Q791 486 795 483L805 476Z" fill="#f1b31c" />
<path d="M473.32000732421875 266.9566650390625 515.50390625 298.1619873046875 464.7137451171875 296.74884033203125 504.75396728515625 267.64483642578125 490.42376708984375 316.3919677734375Z" fill="#f1b31c" />
<path d="M465 270Q464 265 467 261Q472 254 479 260L490 268L500 260Q504 258 508 259Q517 262 514 270L510 283L521 291Q525 294 525 298Q525 308 515 307H503L500 319Q498 323 494 325Q489 326 486 325Q484 324 482 319L478 306H465Q460 306 458 302Q455 299 455 295Q456 292 460 290L470 282Z" fill="#f1b31c" />
<path d="M73 37Q73 18 92 18H1228Q1247 18 1247 37V733Q1247 752 1228 752H92Q73 752 73 733ZM110 715H1210V55H110Z" fill="#000000" />
</g></svg>