<svg xmlns="http://www.w3.org/2000/svg" viewBox="0 0 2048 2048">
<g transform="matrix(1 0 0 -1 0 2048)">
<path d="M1065 -73V0Q1065 49 1034.0 89.0Q1003 129 957 149Q901 173 848 140Q803 113 759.5 106.5Q716 100 663.0 116.5Q610 133 537 175Q534 176 540.0 177.5Q546 179 552.0 180.5Q558 182 556 182Q502 187 453 161Q407 135 375.5 93.0Q344 51 332 0L313 -73Z" fill="#92d3f5" />
<path d="M545 181 496 179 498 266 432 318 513 407 472 444 382 341 402 450Q416 467 422 488Q442 541 436 597Q432 655 447 710Q459 755 492.5 789.0Q526 823 574.5 842.0Q623 861 680 861Q725 861 754.0 849.5Q783 838 797.5 825.5Q812 813 813 812Q818 807 826 806Q859 803 891.0 785.0Q923 767 943.0 738.5Q963 710 963 676Q966 621 971.0 590.0Q976 559 984.0 536.0Q992 513 1006 483Q1015 459 1027 435Q1046 402 1050.5 363.0Q1055 324 1050.5 288.0Q1046 252 1037.0 226.5Q1028 201 1020 196Q994 173 965 153Q931 178 888 181Q717 43 545 181Z" fill="#6a462f" />
<path d="M346 -73H241L329 138L325 152Q316 183 324 214L347 306Q349 314 354 319L458 424Q458 424 467.0 427.5Q476 431 485.5 429.5Q495 428 497 415Q498 390 480 373L421 313Q421 313 436.0 306.5Q451 300 467.5 287.5Q484 275 489.0 258.0Q494 241 474 220L492 203V188Q492 161 469 144Q440 122 405 115Z" fill="#c19a65" />
<path d="M522 512Q526 520 546.5 533.5Q567 547 594.0 563.0Q621 579 645 593Q732 639 810 699Q858 649 882.5 603.5Q907 558 907 494Q907 424 881.5 367.5Q856 311 812.0 277.5Q768 244 714 244Q660 244 616.5 277.5Q573 311 547.5 367.5Q522 424 522 494Z" fill="#c19a65" />
<path d="M1047 -55Q1047 -73 1065 -73Q1083 -73 1083 -55V0Q1083 76 1020 131Q959 183 882 183Q875 183 870 179Q717 51 564 179Q549 191 538 177Q532 170 532 163Q533 157 540 151Q714 6 888 147Q948 144 996 103Q1047 59 1047 0Z" fill="#000000" />
<path d="M355 518Q344 533 329 522Q315 511 326 496Q354 458 325 420Q319 413 320 406Q321 400 328 394Q343 383 354 397Q400 457 355 518Z" fill="#000000" />
<path d="M291 557Q283 573 266 565Q250 556 258 540Q300 460 247 387Q237 372 251 362Q266 351 277 366Q319 422 309 495Q304 532 291 557Z" fill="#000000" />
<path d="M466 231Q459 224 459 218Q459 211 466 205Q479 192 492 205Q517 231 511 259Q506 281 484 299Q472 309 457 317L497 357Q522 380 520 413Q520 414 520 415Q515 450 478 445Q466 444 454 438Q451 436 449 434L346 329Q337 320 334 308L311 216Q302 180 312 144L314 137L232 -48Q228 -56 231 -62Q233 -69 241 -72Q258 -80 265 -63L351 128Q353 135 351 141L347 155Q340 181 346 207L370 299Q370 302 372 304L473 406Q478 408 483 409V410Q484 395 472 384Q472 384 471 383L412 323Q409 321 408 317Q405 308 408 302Q411 296 419 293Q443 285 461 271Q473 260 475 252Q477 243 466 231Z" fill="#000000" />
<path d="M515 201Q515 210 510 215Q506 219 496 219Q478 219 478 201V186Q478 167 463 156Q463 155 462 155Q438 135 407 129Q398 127 395 122Q391 116 393 107Q397 89 415 93Q454 101 485 127Q514 149 515 186Z" fill="#000000" />
<path d="M428 105Q435 122 417 128Q409 131 403 129Q397 126 394 117L334 -49Q328 -66 345 -72Q354 -75 359 -73Q365 -70 368 -61Z" fill="#000000" />
<path d="M364 348Q365 330 383 331Q401 333 400 351Q397 400 436 466Q437 468 437 469Q454 512 451 578Q449 644 461 692Q480 759 545 801Q610 842 695 842Q786 842 828 794Q833 788 840 787Q890 783 925 746Q959 709 959 658Q959 658 959 657Q965 547 1002 464Q1015 435 1023 416Q1069 311 999 221Q988 206 1003 195Q1017 184 1028 198Q1111 306 1057 430Q1049 450 1036 479Q1001 555 996 659Q995 723 952 771Q910 815 851 823Q798 879 695 879Q600 879 526 832Q448 782 426 701Q412 648 414 577Q417 519 403 484Q359 409 364 348Z" fill="#000000" />
<path d="M823.6845703125 511.67486572265625Q823.6845703125 527.0086669921875 813.017578125 537.6756591796875Q802.3505859375 548.3426513671875 787.0167846679688 548.3426513671875Q771.6829833984375 548.3426513671875 761.0159912109375 537.6756591796875Q750.3489990234375 527.0086669921875 750.3489990234375 511.67486572265625Q750.3489990234375 497.00775146484375 761.0159912109375 486.0074157714844Q771.6829833984375 475.007080078125 787.0167846679688 475.007080078125Q802.3505859375 475.007080078125 813.017578125 486.0074157714844Q823.6845703125 497.00775146484375 823.6845703125 511.67486572265625Z" fill="#000000" />
<path d="M676.6845703125 511.67486572265625Q676.6845703125 527.0086669921875 666.017578125 537.6756591796875Q655.3505859375 548.3426513671875 640.0167846679688 548.3426513671875Q624.6829833984375 548.3426513671875 614.0159912109375 537.6756591796875Q603.3489990234375 527.0086669921875 603.3489990234375 511.67486572265625Q603.3489990234375 497.00775146484375 614.0159912109375 486.0074157714844Q624.6829833984375 475.007080078125 640.0167846679688 475.007080078125Q655.3505859375 475.007080078125 666.017578125 486.0074157714844Q676.6845703125 497.00775146484375 676.6845703125 511.67486572265625Z" fill="#000000" />
<path d="M494 494Q494 379 557 299Q621 219 714 219Q806 219 870 299Q934 379 934 494Q934 611 818 727Q805 740 792 727Q759 693 629 619Q494 542 494 512ZM530 494V512Q530 521 648 588Q760 652 804 688Q897 590 897 494Q897 391 841 322Q788 256 714 256Q639 256 586 322Q530 391 530 494Z" fill="#000000" />
<path d="M650 381Q640 376 640 364V359Q640 348 650 343Q713 311 776 343Q786 348 786 359V364Q786 376 776 381Q713 413 650 381Z" fill="#000000" />
</g></svg>