<svg xmlns="http://www.w3.org/2000/svg" viewBox="0 0 2048 2048">
<g transform="matrix(1 0 0 -1 0 2048)">
<path d="M660 330V-73H202V221Q202 251 219.5 276.0Q237 301 264.5 315.5Q292 330 322 330Q430 240 539 330Z" fill="#92d3f5" />
<path d="M770 -73V-27Q770 7 741.5 31.0Q713 55 678 55Q595 -13 513 55Q479 55 450.5 31.0Q422 7 422 -27V-73Z" fill="#b1cc33" />
<path d="M1118 -73V-27Q1118 7 1089.5 31.0Q1061 55 1026 55Q943 -13 861 55Q827 55 798.5 31.0Q770 7 770 -27V-73Z" fill="#b1cc33" />
<path d="M944 299Q909 286 886.0 257.5Q863 229 852.0 193.0Q841 157 840 122Q820 118 801.5 126.0Q783 134 770 149Q798 172 809 206Q803 259 817.0 297.5Q831 336 863.0 354.0Q895 372 944 362Q993 372 1025.5 354.0Q1058 336 1072.0 297.5Q1086 259 1079 206Q1091 172 1118 149Q1106 134 1087.0 126.0Q1068 118 1049 122Q1047 157 1036.0 193.0Q1025 229 1002.5 257.5Q980 286 944 299Z" fill="#a57939" />
<path d="M552 270Q551 284 539.0 278.0Q527 272 513.0 257.0Q499 242 488.5 228.5Q478 215 478 215Q478 215 473.0 220.0Q468 225 465.0 236.5Q462 248 467 270Q477 314 500.0 333.0Q523 352 549.5 355.0Q576 358 597 355Q607 354 616 355Q654 361 685.0 339.0Q716 317 723 279Q725 270 727.5 249.0Q730 228 716 215Q716 215 705.0 222.0Q694 229 679.0 240.0Q664 251 651.5 263.0Q639 275 635 286Q635 286 623.5 275.5Q612 265 597.0 255.0Q582 245 569.0 246.0Q556 247 552 270Z" fill="#a57939" />
<path d="M681 427Q681 403 675.5 380.5Q670 358 665.0 344.0Q660 330 660 330H539Q432 240 322 330Q288 330 256 310L250 313L219 351Q192 381 193.5 426.5Q195 472 211 509Q222 535 229.5 550.5Q237 566 241.5 580.0Q246 594 248.5 613.5Q251 633 253 666Q254 704 280.5 732.0Q307 760 344 764Q344 764 354.5 773.0Q365 782 387.0 791.5Q409 801 442 801Q501 801 549.0 771.5Q597 742 610 692Q620 658 619.0 634.5Q618 611 617.5 590.5Q617 570 626 544Q635 522 648.0 505.5Q661 489 671.0 471.5Q681 454 681 427Z" fill="#a57939" />
<path d="M635 286Q639 273 656.0 258.5Q673 244 690.0 232.0Q707 220 713 217Q716 208 716 207Q717 173 701.5 144.5Q686 116 658.5 98.0Q631 80 597 78Q563 80 535.5 98.0Q508 116 492.5 144.5Q477 173 478 207Q478 208 480 218Q485 224 496.0 237.0Q507 250 519.5 262.5Q532 275 541.5 279.0Q551 283 552 270Q556 247 569.0 246.0Q582 245 597.0 255.0Q612 265 623.5 275.5Q635 286 635 286Z" fill="#fcea2b" />
<path d="M1045 156Q1034 118 1006.5 97.0Q979 76 944 76Q910 76 882.5 97.0Q855 118 843 156Q843 156 843.5 157.0Q844 158 844 159Q851 202 875.5 243.0Q900 284 944 299Q989 284 1013.0 243.0Q1037 202 1044 159Q1045 158 1045.0 157.0Q1045 156 1045 156Z" fill="#fcea2b" />
<path d="M566 553Q566 505 547.5 466.0Q529 427 498.5 404.5Q468 382 431 382Q394 382 363.5 404.5Q333 427 314.5 466.0Q296 505 296 553Q296 600 314.0 631.5Q332 663 369 700Q387 682 419.5 662.0Q452 642 485.5 623.5Q519 605 542.0 589.5Q565 574 565 565Z" fill="#fcea2b" />
<path d="M992 207Q992 223 976 223Q975 223 975 222Q958 221 959 205Q960 188 977 190Q993 191 992 207Z" fill="#000000" />
<path d="M929 155Q918 164 908 153Q899 141 910 132Q944 104 978 132Q989 141 980 153Q971 164 959 155Q944 142 929 155Z" fill="#000000" />
<path d="M1060 153 1032 162Q1011 91 944 91Q877 91 857 162L828 153Q855 62 944 62Q1034 62 1060 153Z" fill="#000000" />
<path d="M913 223Q897 223 897 207Q895 191 912 190Q928 188 929 205Q931 221 914 222Q913 223 913 223Z" fill="#000000" />
<path d="M407 -59Q407 -73 422 -73Q436 -73 436 -59V-27Q436 0 460 20Q482 39 508 40Q595 -28 683 40Q710 39 732 20Q755 0 755 -27V-59Q755 -73 770 -73Q785 -73 785 -59V-27Q785 13 751 42Q719 70 678 70Q673 70 669 66Q595 6 523 66Q519 70 513 70Q473 70 441 42Q407 13 407 -27Z" fill="#000000" />
<path d="M755 -59Q755 -73 770 -73Q785 -73 785 -59V-27Q785 0 808 20Q830 39 857 40Q943 -28 1032 40Q1058 39 1080 20Q1104 0 1104 -27V-59Q1104 -73 1118 -73Q1133 -73 1133 -59V-27Q1133 13 1099 42Q1067 70 1027 70Q1021 70 1017 66Q943 6 871 66Q867 70 862 70Q821 70 789 42Q755 13 755 -27Z" fill="#000000" />
<path d="M647 207Q647 223 631 223Q630 223 630 222Q613 221 614 205Q615 188 632 190Q648 191 647 207Z" fill="#000000" />
<path d="M581 155Q575 159 570 159Q565 158 560 153Q551 141 562 132Q596 104 630 132Q641 141 632 153Q622 164 611 155Q596 142 581 155Z" fill="#000000" />
<path d="M561 223Q545 223 545 207Q543 191 560 190Q576 188 577 205Q579 221 562 222Q561 223 561 223Z" fill="#000000" />
<path d="M944 283Q1030 249 1034 122Q1034 110 1045 108Q1093 97 1129 139Q1139 151 1128 160Q1128 160 1128 160Q1105 180 1094 208Q1104 293 1065 340Q1022 392 944 377Q866 392 824 340Q785 293 794 208Q784 180 761 160Q749 151 759 140Q759 139 759 139Q795 97 843 108Q854 110 854 122Q859 249 944 283ZM949 313Q944 314 939 313Q835 276 826 135Q807 135 791 149Q813 171 823 202Q824 205 824 208Q814 283 846 322Q878 361 941 348Q944 347 947 348Q1010 361 1042 322Q1074 283 1064 208Q1064 205 1065 202Q1076 171 1097 149Q1081 135 1063 135Q1054 276 949 313Z" fill="#000000" />
<path d="M731 216 701 214Q701 211 701 207Q703 161 673 128Q642 95 597 93Q552 95 522 128Q491 161 493 207Q493 210 493 212L464 213Q464 210 464 208Q461 150 500 108Q539 66 597 64H598Q655 66 694 108Q733 150 731 208Q731 212 731 216Z" fill="#000000" />
<path d="M539 261Q545 236 566 232Q583 229 604 242Q618 251 632 262Q653 235 708 202Q718 197 726 204Q750 227 737 281Q737 282 737 283Q729 325 693 351Q658 376 615 370Q607 369 599 370Q478 387 452 273Q440 219 471 202Q482 196 490 206Q507 229 524 247Q533 256 539 261ZM567 272Q565 287 554 292Q544 296 532 291Q520 285 503 267Q491 254 479 240Q477 249 481 267Q501 354 595 340Q596 340 596 340Q607 339 617 340Q618 340 618 340Q694 352 708 277Q708 276 708 276Q709 276 709 274Q715 248 711 235Q656 269 649 291Q647 294 645 297Q634 307 624 296Q607 278 589 267Q577 260 571 261Q568 261 567 272Z" fill="#000000" />
<path d="M211 361Q221 346 236 356Q244 362 245 368Q246 375 240 382Q200 437 228 502Q233 515 242 534Q267 590 271 665Q271 665 271 665Q274 738 346 745Q354 746 359 752Q384 783 442 783Q567 783 592 687Q602 655 600 612Q598 567 609 537Q613 527 622 508Q645 455 645 429Q644 410 663 410Q681 410 681 428Q682 463 655 523Q647 541 644 550Q635 573 637 611Q638 660 628 697Q613 753 559 787Q507 820 442 820Q372 820 335 781Q295 775 267 744Q236 711 235 667Q231 599 209 549Q200 530 194 517Q159 432 211 361Z" fill="#000000" />
<path d="M584 556 583 567Q578 591 489 642Q404 691 382 713Q369 726 356 713Q277 634 277 553Q277 474 321 420Q366 364 431 364Q495 364 540 420Q584 474 584 553Q584 555 584 556ZM548 552Q547 487 512 443Q478 401 431 401Q384 401 350 443Q314 487 314 553Q314 613 370 675Q401 651 471 610Q546 567 546 565Q546 564 546 562Z" fill="#000000" />
<path d="M454.3302001953125 558.9193115234375Q454.3302001953125 549.0975952148438 460.58038330078125 542.4009704589844Q466.83056640625 535.704345703125 476.65228271484375 535.704345703125Q486.4739990234375 535.704345703125 493.1706237792969 542.4009704589844Q499.86724853515625 549.0975952148438 499.86724853515625 558.9193115234375Q499.86724853515625 568.7410278320312 493.1706237792969 575.4376525878906Q486.4739990234375 582.13427734375 476.65228271484375 582.13427734375Q466.83056640625 582.13427734375 460.58038330078125 575.4376525878906Q454.3302001953125 568.7410278320312 454.3302001953125 558.9193115234375Z" fill="#000000" />
<path d="M362.3302001953125 558.9193115234375Q362.3302001953125 549.0975952148438 368.58038330078125 542.4009704589844Q374.83056640625 535.704345703125 384.65228271484375 535.704345703125Q394.4739990234375 535.704345703125 401.1706237792969 542.4009704589844Q407.86724853515625 549.0975952148438 407.86724853515625 558.9193115234375Q407.86724853515625 568.7410278320312 401.1706237792969 575.4376525878906Q394.4739990234375 582.13427734375 384.65228271484375 582.13427734375Q374.83056640625 582.13427734375 368.58038330078125 575.4376525878906Q362.3302001953125 568.7410278320312 362.3302001953125 558.9193115234375Z" fill="#000000" />
<path d="M405 483Q389 492 380 476Q372 459 388 451Q431 428 474 451Q490 459 481 476Q473 492 456 483Q431 469 405 483Z" fill="#000000" />
<path d="M183 -55Q183 -73 202 -73Q220 -73 220 -55V221Q220 257 251 284Q280 309 316 312Q358 278 401 269Q410 268 415 271Q421 275 422 284Q426 302 408 305Q372 313 334 344Q329 348 322 348Q269 348 227 312Q183 273 183 221Z" fill="#000000" />
</g></svg>