<svg xmlns="http://www.w3.org/2000/svg" viewBox="0 0 2048 2048">
<g transform="matrix(1 0 0 -1 0 2048)">
<path d="M403.234619140625 291.7017822265625Q403.234619140625 310.6162109375 396.0601806640625 327.24786376953125Q388.8857421875 343.8795166015625 376.276123046875 356.4891357421875Q363.66650390625 369.0987548828125 347.03485107421875 376.273193359375Q330.4031982421875 383.4476318359375 311.48876953125 383.4476318359375Q292.5743408203125 383.4476318359375 275.94268798828125 376.273193359375Q259.31103515625 369.0987548828125 246.701416015625 356.4891357421875Q234.091796875 343.8795166015625 226.9173583984375 327.24786376953125Q219.742919921875 310.6162109375 219.742919921875 291.7017822265625Q219.742919921875 272.787353515625 226.9173583984375 256.15570068359375Q234.091796875 239.5240478515625 246.701416015625 226.9144287109375Q259.31103515625 214.3048095703125 275.94268798828125 207.13037109375Q292.5743408203125 199.9559326171875 311.48876953125 199.9559326171875Q330.4031982421875 199.9559326171875 347.03485107421875 207.13037109375Q363.66650390625 214.3048095703125 376.276123046875 226.9144287109375Q388.8857421875 239.5240478515625 396.0601806640625 256.15570068359375Q403.234619140625 272.787353515625 403.234619140625 291.7017822265625Z" fill="#ea5a47" />
<path d="M604.0615234375 786.19287109375Q604.0615234375 797.53515625 599.75927734375 807.508544921875Q595.45703125 817.48193359375 587.8955078125 825.04345703125Q580.333984375 832.60498046875 570.360595703125 836.9072265625Q560.38720703125 841.20947265625 549.044921875 841.20947265625Q537.70263671875 841.20947265625 527.729248046875 836.9072265625Q517.755859375 832.60498046875 510.1943359375 825.04345703125Q502.6328125 817.48193359375 498.33056640625 807.508544921875Q494.0283203125 797.53515625 494.0283203125 786.19287109375Q494.0283203125 774.8505859375 498.33056640625 764.877197265625Q502.6328125 754.90380859375 510.1943359375 747.34228515625Q517.755859375 739.78076171875 527.729248046875 735.478515625Q537.70263671875 731.17626953125 549.044921875 731.17626953125Q560.38720703125 731.17626953125 570.360595703125 735.478515625Q580.333984375 739.78076171875 587.8955078125 747.34228515625Q595.45703125 754.90380859375 599.75927734375 764.877197265625Q604.0615234375 774.8505859375 604.0615234375 786.19287109375Z" fill="#c19a65" />
<path d="M614 787Q614 851 549 851Q523 851 504 832Q485 813 485 787Q485 760 504 741Q523 722 549 722Q576 722 595 741Q614 760 614 787ZM595 787Q595 741 549 741Q530 741 517 754Q504 768 504 787Q504 806 517 819Q530 832 549 832Q595 832 595 787Z" fill="#c19a65" />
<path d="M715 623 825 422V348L715 257L660 147L627 -73H564L568 202L623 416Q623 416 615.5 428.5Q608 441 604 447Q577 496 564.0 533.0Q551 570 547.5 591.5Q544 613 544 613Z" fill="#c19a65" />
<path d="M553 613 535 612Q540 542 596 442Q601 435 613 414L559 203L554 -82H634L669 144L722 251L834 344V424L723 628L707 619L816 419V353L708 262L651 149L619 -64H573L577 200L633 417L631 420Q617 444 612 451Q558 547 553 613Z" fill="#c19a65" />
<path d="M733 257 862 110 1085 18 1103 73 917 183 825 367Z" fill="#c19a65" />
<path d="M833 371 817 363 910 177 1092 69 1079 31 867 118 740 263 726 251 856 102 1090 6 1114 77 924 190Z" fill="#c19a65" />
<path d="M568 587Q556 614 564.5 645.5Q573 677 604 689Q620 695 638.5 693.5Q657 692 677.0 676.0Q697 660 715 623Z" fill="#c19a65" />
<path d="M707 619 723 627Q674 726 601 698Q567 684 556 648Q545 615 560 583L577 590Q565 616 573 643Q582 670 608 680Q665 703 707 619Z" fill="#c19a65" />
<path d="M623 786Q623 860 549 860Q519 860 498 838Q476 817 476 786Q476 756 498 734Q519 713 549 713Q623 713 623 786ZM586 786Q586 750 549 750Q513 750 513 786Q513 823 549 823Q586 823 586 786Z" fill="#000000" />
<path d="M421 292Q421 338 389 370Q357 402 311 402Q266 402 233 370Q201 338 201 292Q201 246 233 214Q266 182 311 182Q357 182 389 214Q421 246 421 292ZM385 292Q385 219 311 219Q238 219 238 292Q238 322 259 344Q281 365 311 365Q342 365 363 344Q385 322 385 292Z" fill="#000000" />
<path d="M626 477Q622 485 616 487Q610 489 602 485Q594 481 592 475Q589 469 593 460L609 428Q622 402 612 375L564 242Q550 205 549 165L546 -36Q546 -58 559 -74Q574 -92 595 -92Q642 -92 650 -40L673 108Q678 141 693 171L715 216Q730 245 755 266L809 311Q843 340 843 385Q843 426 824 463L731 632Q722 648 706 639Q698 635 696 629Q695 623 699 615L791 445Q807 417 807 385Q807 357 785 339L731 294Q700 268 682 232L660 188Q642 152 636 113L614 -34Q611 -55 595 -55Q591 -55 587 -51Q583 -45 583 -37L586 165Q587 198 598 230L646 363Q662 404 642 444Z" fill="#000000" />
<path d="M841 375Q833 391 817 383Q800 375 809 358L884 208Q903 170 939 149L1062 76Q1081 65 1076 52Q1076 49 1072 48Q1066 46 1058 49L903 113Q873 125 851 150L747 269Q735 283 721 270Q707 258 720 245L824 126Q851 95 889 79L1044 15Q1064 7 1083 13Q1105 20 1111 40Q1125 82 1081 108L958 180Q931 196 917 224Z" fill="#000000" />
<path d="M699 615Q703 607 709 605Q715 603 723 607Q740 615 731 632Q678 737 598 706Q557 690 546 647Q541 629 559 625Q577 620 581 638Q588 663 611 672Q661 691 699 615Z" fill="#000000" />
<path d="M639 614Q648 630 632 639Q624 644 618 642Q612 640 607 632L552 536Q538 511 510 505L383 476Q365 472 369 454Q373 436 391 440L518 469Q562 479 584 518Z" fill="#000000" />
</g></svg>