<svg xmlns="http://www.w3.org/2000/svg" viewBox="0 0 2048 2048">
<g transform="matrix(1 0 0 -1 0 2048)">
<path d="M91.5877685546875 733.1798706054688V36.51513671875H1228.2723388671875V733.1798706054688Z" fill="#ffffff" />
<path d="M91.375 733.1798706054688V36.51513671875H476.375V733.1798706054688Z" fill="#92d3f5" />
<path d="M843.375 733.1798706054688V36.51513671875H1228.375V733.1798706054688Z" fill="#92d3f5" />
<path d="M583 482Q596 495 583 508Q571 521 557 508Q487 439 524 348Q561 257 660 257Q759 257 796 348Q833 439 763 508Q749 521 737 508Q724 495 737 482Q790 430 762 362Q734 293 660 293Q586 293 558 362Q530 430 583 482Z" fill="#b1cc33" />
<path d="M601.0108642578125 336.72052001953125Q612.3308715820312 351.481201171875 597.5701904296875 362.80120849609375Q582.8095092773438 374.1212158203125 571.489501953125 359.36053466796875L516.8095092773438 286.1171875Q511.76953125 278.3968505859375 512.4896850585938 272.356689453125Q513.4898681640625 265.35650634765625 520.2501831054688 260.0364990234375Q535.0108642578125 248.71649169921875 546.3308715820312 263.4771728515625Z" fill="#a57939" />
<path d="M746 343Q733 356 720 343Q707 330 720 317L775 262Q788 249 801 262Q814 275 801 288Z" fill="#a57939" />
<path d="M642 385V532Q685 508 688 458Q685 409 642 385Z" fill="#fcea2b" />
<path d="M651 369Q702 398 706 457Q706 458 706 459Q702 519 651 548Q635 557 626 541Q623 536 623 532V385Q623 367 642 367Q646 367 651 369ZM660 427V490Q668 476 669 458Q668 441 660 427Z" fill="#fcea2b" />
<path d="M73 37Q73 18 92 18H1228Q1247 18 1247 37V733Q1247 752 1228 752H92Q73 752 73 733ZM110 715H1210V55H110Z" fill="#000000" />
</g></svg>