<svg xmlns="http://www.w3.org/2000/svg" viewBox="0 0 2048 2048">
<g transform="matrix(1 0 0 -1 0 2048)">
<path d="M91.5877685546875 733.1798706054688V36.51513671875H1228.2723388671875V733.1798706054688Z" fill="#1e50a0" />
<path d="M969.3890991210938 128.26092529296875Q969.3890991210938 134.8878173828125 966.8958129882812 140.72735595703125Q964.4025268554688 146.56689453125 960.0064697265625 150.96295166015625Q955.6104125976562 155.3590087890625 949.7708740234375 157.852294921875Q943.9313354492188 160.3455810546875 937.304443359375 160.3455810546875Q930.6775512695312 160.3455810546875 924.8380126953125 157.852294921875Q918.9984741210938 155.3590087890625 914.6024169921875 150.96295166015625Q910.2063598632812 146.56689453125 907.7130737304688 140.72735595703125Q905.2197875976562 134.8878173828125 905.2197875976562 128.26092529296875Q905.2197875976562 121.634033203125 907.7130737304688 115.79449462890625Q910.2063598632812 109.9549560546875 914.6024169921875 105.55889892578125Q918.9984741210938 101.162841796875 924.8380126953125 98.6695556640625Q930.6775512695312 96.17626953125 937.304443359375 96.17626953125Q943.9313354492188 96.17626953125 949.7708740234375 98.6695556640625Q955.6104125976562 101.162841796875 960.0064697265625 105.55889892578125Q964.4025268554688 109.9549560546875 966.8958129882812 115.79449462890625Q969.3890991210938 121.634033203125 969.3890991210938 128.26092529296875Z" fill="#ffffff" />
<path d="M969.3890991210938 495.26092529296875Q969.3890991210938 501.8878173828125 966.8958129882812 507.72735595703125Q964.4025268554688 513.56689453125 960.0064697265625 517.9629516601562Q955.6104125976562 522.3590087890625 949.7708740234375 524.852294921875Q943.9313354492188 527.3455810546875 937.304443359375 527.3455810546875Q930.6775512695312 527.3455810546875 924.8380126953125 524.852294921875Q918.9984741210938 522.3590087890625 914.6024169921875 517.9629516601562Q910.2063598632812 513.56689453125 907.7130737304688 507.72735595703125Q905.2197875976562 501.8878173828125 905.2197875976562 495.26092529296875Q905.2197875976562 488.634033203125 907.7130737304688 482.79449462890625Q910.2063598632812 476.9549560546875 914.6024169921875 472.55889892578125Q918.9984741210938 468.162841796875 924.8380126953125 465.6695556640625Q930.6775512695312 463.17626953125 937.304443359375 463.17626953125Q943.9313354492188 463.17626953125 949.7708740234375 465.6695556640625Q955.6104125976562 468.162841796875 960.0064697265625 472.55889892578125Q964.4025268554688 476.9549560546875 966.8958129882812 482.79449462890625Q969.3890991210938 488.634033203125 969.3890991210938 495.26092529296875Z" fill="#ffffff" />
<path d="M1060.3890991210938 153.26092529296875Q1060.3890991210938 159.8878173828125 1057.8958129882812 165.72735595703125Q1055.4025268554688 171.56689453125 1051.0064697265625 175.96295166015625Q1046.6104125976562 180.3590087890625 1040.7708740234375 182.852294921875Q1034.9313354492188 185.3455810546875 1028.304443359375 185.3455810546875Q1021.6775512695312 185.3455810546875 1015.8380126953125 182.852294921875Q1009.9984741210938 180.3590087890625 1005.6024169921875 175.96295166015625Q1001.2063598632812 171.56689453125 998.7130737304688 165.72735595703125Q996.2197875976562 159.8878173828125 996.2197875976562 153.26092529296875Q996.2197875976562 146.634033203125 998.7130737304688 140.79449462890625Q1001.2063598632812 134.9549560546875 1005.6024169921875 130.55889892578125Q1009.9984741210938 126.162841796875 1015.8380126953125 123.6695556640625Q1021.6775512695312 121.17626953125 1028.304443359375 121.17626953125Q1034.9313354492188 121.17626953125 1040.7708740234375 123.6695556640625Q1046.6104125976562 126.162841796875 1051.0064697265625 130.55889892578125Q1055.4025268554688 134.9549560546875 1057.8958129882812 140.79449462890625Q1060.3890991210938 146.634033203125 1060.3890991210938 153.26092529296875Z" fill="#ffffff" />
<path d="M877.3890991210938 470.26092529296875Q877.3890991210938 476.8878173828125 874.8958129882812 482.72735595703125Q872.4025268554688 488.56689453125 868.0064697265625 492.96295166015625Q863.6104125976562 497.3590087890625 857.7708740234375 499.852294921875Q851.9313354492188 502.3455810546875 845.304443359375 502.3455810546875Q838.6775512695312 502.3455810546875 832.8380126953125 499.852294921875Q826.9984741210938 497.3590087890625 822.6024169921875 492.96295166015625Q818.2063598632812 488.56689453125 815.7130737304688 482.72735595703125Q813.2197875976562 476.8878173828125 813.2197875976562 470.26092529296875Q813.2197875976562 463.634033203125 815.7130737304688 457.79449462890625Q818.2063598632812 451.9549560546875 822.6024169921875 447.55889892578125Q826.9984741210938 443.162841796875 832.8380126953125 440.6695556640625Q838.6775512695312 438.17626953125 845.304443359375 438.17626953125Q851.9313354492188 438.17626953125 857.7708740234375 440.6695556640625Q863.6104125976562 443.162841796875 868.0064697265625 447.55889892578125Q872.4025268554688 451.9549560546875 874.8958129882812 457.79449462890625Q877.3890991210938 463.634033203125 877.3890991210938 470.26092529296875Z" fill="#ffffff" />
<path d="M785.3890991210938 311.26092529296875Q785.3890991210938 317.8878173828125 782.8958129882812 323.72735595703125Q780.4025268554688 329.56689453125 776.0064697265625 333.96295166015625Q771.6104125976562 338.3590087890625 765.7708740234375 340.852294921875Q759.9313354492188 343.3455810546875 753.304443359375 343.3455810546875Q746.6775512695312 343.3455810546875 740.8380126953125 340.852294921875Q734.9984741210938 338.3590087890625 730.6024169921875 333.96295166015625Q726.2063598632812 329.56689453125 723.7130737304688 323.72735595703125Q721.2197875976562 317.8878173828125 721.2197875976562 311.26092529296875Q721.2197875976562 304.634033203125 723.7130737304688 298.79449462890625Q726.2063598632812 292.9549560546875 730.6024169921875 288.55889892578125Q734.9984741210938 284.162841796875 740.8380126953125 281.6695556640625Q746.6775512695312 279.17626953125 753.304443359375 279.17626953125Q759.9313354492188 279.17626953125 765.7708740234375 281.6695556640625Q771.6104125976562 284.162841796875 776.0064697265625 288.55889892578125Q780.4025268554688 292.9549560546875 782.8958129882812 298.79449462890625Q785.3890991210938 304.634033203125 785.3890991210938 311.26092529296875Z" fill="#ffffff" />
<path d="M1152.3890991210938 311.26092529296875Q1152.3890991210938 317.8878173828125 1149.8958129882812 323.72735595703125Q1147.4025268554688 329.56689453125 1143.0064697265625 333.96295166015625Q1138.6104125976562 338.3590087890625 1132.7708740234375 340.852294921875Q1126.9313354492188 343.3455810546875 1120.304443359375 343.3455810546875Q1113.6775512695312 343.3455810546875 1107.8380126953125 340.852294921875Q1101.9984741210938 338.3590087890625 1097.6024169921875 333.96295166015625Q1093.2063598632812 329.56689453125 1090.7130737304688 323.72735595703125Q1088.2197875976562 317.8878173828125 1088.2197875976562 311.26092529296875Q1088.2197875976562 304.634033203125 1090.7130737304688 298.79449462890625Q1093.2063598632812 292.9549560546875 1097.6024169921875 288.55889892578125Q1101.9984741210938 284.162841796875 1107.8380126953125 281.6695556640625Q1113.6775512695312 279.17626953125 1120.304443359375 279.17626953125Q1126.9313354492188 279.17626953125 1132.7708740234375 281.6695556640625Q1138.6104125976562 284.162841796875 1143.0064697265625 288.55889892578125Q1147.4025268554688 292.9549560546875 1149.8958129882812 298.79449462890625Q1152.3890991210938 304.634033203125 1152.3890991210938 311.26092529296875Z" fill="#ffffff" />
<path d="M1127.3890991210938 220.26092529296875Q1127.3890991210938 226.8878173828125 1124.8958129882812 232.72735595703125Q1122.4025268554688 238.56689453125 1118.0064697265625 242.96295166015625Q1113.6104125976562 247.3590087890625 1107.7708740234375 249.852294921875Q1101.9313354492188 252.3455810546875 1095.304443359375 252.3455810546875Q1088.6775512695312 252.3455810546875 1082.8380126953125 249.852294921875Q1076.9984741210938 247.3590087890625 1072.6024169921875 242.96295166015625Q1068.2063598632812 238.56689453125 1065.7130737304688 232.72735595703125Q1063.2197875976562 226.8878173828125 1063.2197875976562 220.26092529296875Q1063.2197875976562 213.634033203125 1065.7130737304688 207.79449462890625Q1068.2063598632812 201.9549560546875 1072.6024169921875 197.55889892578125Q1076.9984741210938 193.162841796875 1082.8380126953125 190.6695556640625Q1088.6775512695312 188.17626953125 1095.304443359375 188.17626953125Q1101.9313354492188 188.17626953125 1107.7708740234375 190.6695556640625Q1113.6104125976562 193.162841796875 1118.0064697265625 197.55889892578125Q1122.4025268554688 201.9549560546875 1124.8958129882812 207.79449462890625Q1127.3890991210938 213.634033203125 1127.3890991210938 220.26092529296875Z" fill="#ffffff" />
<path d="M810.3890991210938 403.26092529296875Q810.3890991210938 409.8878173828125 807.8958129882812 415.72735595703125Q805.4025268554688 421.56689453125 801.0064697265625 425.96295166015625Q796.6104125976562 430.3590087890625 790.7708740234375 432.852294921875Q784.9313354492188 435.3455810546875 778.304443359375 435.3455810546875Q771.6775512695312 435.3455810546875 765.8380126953125 432.852294921875Q759.9984741210938 430.3590087890625 755.6024169921875 425.96295166015625Q751.2063598632812 421.56689453125 748.7130737304688 415.72735595703125Q746.2197875976562 409.8878173828125 746.2197875976562 403.26092529296875Q746.2197875976562 396.634033203125 748.7130737304688 390.79449462890625Q751.2063598632812 384.9549560546875 755.6024169921875 380.55889892578125Q759.9984741210938 376.162841796875 765.8380126953125 373.6695556640625Q771.6775512695312 371.17626953125 778.304443359375 371.17626953125Q784.9313354492188 371.17626953125 790.7708740234375 373.6695556640625Q796.6104125976562 376.162841796875 801.0064697265625 380.55889892578125Q805.4025268554688 384.9549560546875 807.8958129882812 390.79449462890625Q810.3890991210938 396.634033203125 810.3890991210938 403.26092529296875Z" fill="#ffffff" />
<path d="M877.3890991210938 153.26092529296875Q877.3890991210938 159.8878173828125 874.8958129882812 165.72735595703125Q872.4025268554688 171.56689453125 868.0064697265625 175.96295166015625Q863.6104125976562 180.3590087890625 857.7708740234375 182.852294921875Q851.9313354492188 185.3455810546875 845.304443359375 185.3455810546875Q838.6775512695312 185.3455810546875 832.8380126953125 182.852294921875Q826.9984741210938 180.3590087890625 822.6024169921875 175.96295166015625Q818.2063598632812 171.56689453125 815.7130737304688 165.72735595703125Q813.2197875976562 159.8878173828125 813.2197875976562 153.26092529296875Q813.2197875976562 146.634033203125 815.7130737304688 140.79449462890625Q818.2063598632812 134.9549560546875 822.6024169921875 130.55889892578125Q826.9984741210938 126.162841796875 832.8380126953125 123.6695556640625Q838.6775512695312 121.17626953125 845.304443359375 121.17626953125Q851.9313354492188 121.17626953125 857.7708740234375 123.6695556640625Q863.6104125976562 126.162841796875 868.0064697265625 130.55889892578125Q872.4025268554688 134.9549560546875 874.8958129882812 140.79449462890625Q877.3890991210938 146.634033203125 877.3890991210938 153.26092529296875Z" fill="#ffffff" />
<path d="M1060.3890991210938 470.26092529296875Q1060.3890991210938 476.8878173828125 1057.8958129882812 482.72735595703125Q1055.4025268554688 488.56689453125 1051.0064697265625 492.96295166015625Q1046.6104125976562 497.3590087890625 1040.7708740234375 499.852294921875Q1034.9313354492188 502.3455810546875 1028.304443359375 502.3455810546875Q1021.6775512695312 502.3455810546875 1015.8380126953125 499.852294921875Q1009.9984741210938 497.3590087890625 1005.6024169921875 492.96295166015625Q1001.2063598632812 488.56689453125 998.7130737304688 482.72735595703125Q996.2197875976562 476.8878173828125 996.2197875976562 470.26092529296875Q996.2197875976562 463.634033203125 998.7130737304688 457.79449462890625Q1001.2063598632812 451.9549560546875 1005.6024169921875 447.55889892578125Q1009.9984741210938 443.162841796875 1015.8380126953125 440.6695556640625Q1021.6775512695312 438.17626953125 1028.304443359375 438.17626953125Q1034.9313354492188 438.17626953125 1040.7708740234375 440.6695556640625Q1046.6104125976562 443.162841796875 1051.0064697265625 447.55889892578125Q1055.4025268554688 451.9549560546875 1057.8958129882812 457.79449462890625Q1060.3890991210938 463.634033203125 1060.3890991210938 470.26092529296875Z" fill="#ffffff" />
<path d="M810.3890991210938 220.26092529296875Q810.3890991210938 226.8878173828125 807.8958129882812 232.72735595703125Q805.4025268554688 238.56689453125 801.0064697265625 242.96295166015625Q796.6104125976562 247.3590087890625 790.7708740234375 249.852294921875Q784.9313354492188 252.3455810546875 778.304443359375 252.3455810546875Q771.6775512695312 252.3455810546875 765.8380126953125 249.852294921875Q759.9984741210938 247.3590087890625 755.6024169921875 242.96295166015625Q751.2063598632812 238.56689453125 748.7130737304688 232.72735595703125Q746.2197875976562 226.8878173828125 746.2197875976562 220.26092529296875Q746.2197875976562 213.634033203125 748.7130737304688 207.79449462890625Q751.2063598632812 201.9549560546875 755.6024169921875 197.55889892578125Q759.9984741210938 193.162841796875 765.8380126953125 190.6695556640625Q771.6775512695312 188.17626953125 778.304443359375 188.17626953125Q784.9313354492188 188.17626953125 790.7708740234375 190.6695556640625Q796.6104125976562 193.162841796875 801.0064697265625 197.55889892578125Q805.4025268554688 201.9549560546875 807.8958129882812 207.79449462890625Q810.3890991210938 213.634033203125 810.3890991210938 220.26092529296875Z" fill="#ffffff" />
<path d="M1127.3890991210938 403.26092529296875Q1127.3890991210938 409.8878173828125 1124.8958129882812 415.72735595703125Q1122.4025268554688 421.56689453125 1118.0064697265625 425.96295166015625Q1113.6104125976562 430.3590087890625 1107.7708740234375 432.852294921875Q1101.9313354492188 435.3455810546875 1095.304443359375 435.3455810546875Q1088.6775512695312 435.3455810546875 1082.8380126953125 432.852294921875Q1076.9984741210938 430.3590087890625 1072.6024169921875 425.96295166015625Q1068.2063598632812 421.56689453125 1065.7130737304688 415.72735595703125Q1063.2197875976562 409.8878173828125 1063.2197875976562 403.26092529296875Q1063.2197875976562 396.634033203125 1065.7130737304688 390.79449462890625Q1068.2063598632812 384.9549560546875 1072.6024169921875 380.55889892578125Q1076.9984741210938 376.162841796875 1082.8380126953125 373.6695556640625Q1088.6775512695312 371.17626953125 1095.304443359375 371.17626953125Q1101.9313354492188 371.17626953125 1107.7708740234375 373.6695556640625Q1113.6104125976562 376.162841796875 1118.0064697265625 380.55889892578125Q1122.4025268554688 384.9549560546875 1124.8958129882812 390.79449462890625Q1127.3890991210938 396.634033203125 1127.3890991210938 403.26092529296875Z" fill="#ffffff" />
<path d="M181 715 660 428V385H589L110 672V715Z" fill="#ffffff" />
<path d="M659.7684936523438 672.4154663085938 181.394287109375 385.056396484375H109.72149658203125V427.65032958984375L588.095703125 715.0093994140625H659.7684936523438Z" fill="#ffffff" />
<path d="M110.25 604.9757690429688V494.97607421875H660.25V604.9757690429688Z" fill="#ffffff" />
<path d="M330.25 714.9273071289062V384.92822265625H440.25V714.9273071289062Z" fill="#ffffff" />
<path d="M367.0877685546875 714.9273071289062V384.92822265625H403.7723388671875V714.9273071289062Z" fill="#d22f27" />
<path d="M110.25 568.3252563476562V531.65869140625H660.25V568.3252563476562Z" fill="#d22f27" />
<path d="M660 428V385L477 495H548Z" fill="#d22f27" />
<path d="M660 715 477 605H440V626L589 715Z" fill="#d22f27" />
<path d="M110.0 672.0V715.0L293.0 605.0H222.0Z" fill="#d22f27" />
<path d="M110.0 385.0 293.0 495.0H330.0V474.0L181.0 385.0Z" fill="#d22f27" />
<path d="M73 37Q73 18 92 18H1228Q1247 18 1247 37V733Q1247 752 1228 752H92Q73 752 73 733ZM110 715H1210V55H110Z" fill="#000000" />
</g></svg>