<svg xmlns="http://www.w3.org/2000/svg" viewBox="0 0 2048 2048">
<g transform="matrix(1 0 0 -1 0 2048)">
<path d="M91.5877685546875 733.1798706054688V36.51513671875H1228.2723388671875V733.1798706054688Z" fill="#1e50a0" />
<path d="M816.075439453125 384.662353515625Q816.075439453125 416.84130859375 803.968505859375 445.197021484375Q791.861572265625 473.552734375 770.51513671875 494.899169921875Q749.168701171875 516.24560546875 720.81298828125 528.3525390625Q692.457275390625 540.45947265625 660.2783203125 540.45947265625Q628.099365234375 540.45947265625 599.74365234375 528.3525390625Q571.387939453125 516.24560546875 550.04150390625 494.899169921875Q528.695068359375 473.552734375 516.588134765625 445.197021484375Q504.481201171875 416.84130859375 504.481201171875 384.662353515625Q504.481201171875 352.4833984375 516.588134765625 324.127685546875Q528.695068359375 295.77197265625 550.04150390625 274.425537109375Q571.387939453125 253.0791015625 599.74365234375 240.97216796875Q628.099365234375 228.865234375 660.2783203125 228.865234375Q692.457275390625 228.865234375 720.81298828125 240.97216796875Q749.168701171875 253.0791015625 770.51513671875 274.425537109375Q791.861572265625 295.77197265625 803.968505859375 324.127685546875Q816.075439453125 352.4833984375 816.075439453125 384.662353515625Z" fill="#ffffff" />
<path d="M91.5877685546875 165.11334228515625V36.80712890625H1228.2723388671875V165.11334228515625Z" fill="#d22f27" />
<path d="M91.5877685546875 733.1133422851562V604.80712890625H1228.2723388671875V733.1133422851562Z" fill="#d22f27" />
<path d="M73 37Q73 18 92 18H1228Q1247 18 1247 37V733Q1247 752 1228 752H92Q73 752 73 733ZM110 715H1210V55H110Z" fill="#000000" />
</g></svg>