<svg xmlns="http://www.w3.org/2000/svg" viewBox="0 0 2048 2048">
<g transform="matrix(1 0 0 -1 0 2048)">
<path d="M91.5877685546875 733.1798706054688V36.51513671875H1228.2723388671875V733.1798706054688Z" fill="#1e50a0" />
<path d="M362.59710693359375 642.7916259765625 339.3974609375 569.1927490234375 398.5965576171875 614.7920532226562H325.79766845703125L384.99676513671875 569.1927490234375Z" fill="#ffffff" />
<path d="M371 645Q369 650 365 651Q360 652 358 651Q355 649 353 645L347 623H325Q321 623 318 620Q313 612 320 607L337 593L331 572Q329 567 332 563Q338 556 345 562L362 575L379 562Q383 559 387 560Q392 561 393 564Q395 567 394 572L387 593L404 607Q408 610 408 614Q408 623 399 623H378ZM360 605H364L365 600L362 598L359 600Z" fill="#ffffff" />
<path d="M362.59710693359375 385.7916259765625 339.3974609375 312.1927490234375 398.5965576171875 357.79205322265625H325.79766845703125L384.99676513671875 312.1927490234375Z" fill="#ffffff" />
<path d="M371 388Q369 393 365 394Q360 396 358 394Q355 393 353 388L347 367H325Q321 367 318 363Q315 359 316 356Q316 353 320 350L337 337L331 315Q329 310 332 307Q338 299 345 305L362 318L379 305Q383 302 387 303Q396 306 394 315L387 337L404 350Q408 353 408 358Q408 367 399 367H378ZM360 348H364L365 344L362 341L359 344Z" fill="#ffffff" />
<path d="M229.59710693359375 532.7916259765625 206.3974609375 459.1927490234375 265.5965576171875 504.79205322265625H192.79766845703125L251.99676513671875 459.1927490234375Z" fill="#ffffff" />
<path d="M238 535Q237 540 232 541Q223 544 220 535L214 513H193Q188 513 185 510Q182 506 183 503Q183 500 187 497L205 483L198 462Q196 457 199 453Q205 446 212 452L229 465L246 452Q250 449 255 450Q263 453 261 462L254 483L271 497Q275 500 275 504Q275 513 266 513H245ZM227 495H231L233 490L229 488L226 490Z" fill="#ffffff" />
<path d="M486.1942138671875 550.583251953125 468.794921875 495.385498046875 513.193115234375 529.5841064453125H458.5953369140625L502.9935302734375 495.385498046875Z" fill="#ffffff" />
<path d="M495 553Q493 558 489 559Q484 561 481 559Q478 558 477 553L473 539H458Q454 539 451 535Q445 528 453 522L465 513L460 498Q459 494 462 490Q467 483 474 488L486 497L497 488Q501 485 506 487Q510 488 511 491Q513 494 512 498L507 513L519 522Q523 525 523 530Q523 539 513 539H499Z" fill="#ffffff" />
<path d="M1036 642Q1016 608 993.0 570.5Q970 533 953.5 493.5Q937 454 937 413Q937 371 953.5 331.5Q970 292 993.0 254.5Q1016 217 1036 183H999H413Z" fill="#f1b31c" />
<path d="M1025 656 402 198Q394 193 393 186Q392 180 398 172Q403 165 413 165H999H1036Q1054 165 1054 183Q1054 188 1052 193Q1045 205 1029 229Q955 349 955 413Q955 476 1029 596Q1045 620 1052 632Q1056 640 1055 646Q1053 653 1045 657Q1035 664 1025 656ZM973 573Q918 474 918 413Q918 339 998 210Q1001 206 1003 202H999H468Z" fill="#f1b31c" />
<path d="M413 147Q394 147 394 128Q394 110 413 110H1073Q1091 110 1091 128Q1091 147 1073 147Z" fill="#f1b31c" />
<path d="M73 37Q73 18 92 18H1228Q1247 18 1247 37V733Q1247 752 1228 752H92Q73 752 73 733ZM110 715H1210V55H110Z" fill="#000000" />
</g></svg>