<svg xmlns="http://www.w3.org/2000/svg" viewBox="0 0 2048 2048">
<g transform="matrix(1 0 0 -1 0 2048)">
<path d="M1228 733V40H98V733Z" fill="#5c9e31" />
<path d="M92 495V422H1228V495Z" fill="#fcea2b" />
<path d="M92 348V275H1228V348Z" fill="#fcea2b" />
<path d="M73 733V37Q73 18 92 18H1228Q1247 18 1247 37V733Q1247 752 1228 752H92Q73 752 73 733ZM110 715H1210V55H110Z" fill="#000000" />
<path d="M660 587 615 441H468L587 351L541 205L660 295L779 205L733 351L852 441H705Z" fill="#000000" />
<path d="M678 592Q675 601 665 604Q648 610 642 592L601 459H468Q459 459 454 452Q443 437 457 426L565 344L524 211Q521 202 527 194Q532 187 539 186Q545 185 553 191L660 272L767 191Q775 185 784 188Q801 193 796 211L755 344L863 426Q870 432 870 441Q870 459 852 459H719ZM660 525 688 436Q692 423 705 423H797L722 366Q712 358 716 346L744 254L671 310Q660 318 649 310L576 254L604 346Q608 358 598 366L523 423H615Q628 423 632 436Z" fill="#000000" />
</g></svg>