<svg xmlns="http://www.w3.org/2000/svg" viewBox="0 0 2048 2048">
<g transform="matrix(1 0 0 -1 0 2048)">
<path d="M946 646Q946 646 956.5 635.5Q967 625 975.0 606.0Q983 587 976.5 562.5Q970 538 935 511Q656 394 377 511Q342 538 335.0 562.5Q328 587 336.0 606.0Q344 625 355.0 635.5Q366 646 366 646Q383 661 408.0 665.0Q433 669 458 668Q512 664 559 635Q582 621 607.0 614.5Q632 608 656 607Q680 608 704.5 614.5Q729 621 753 635Q800 664 854 668Q879 669 904.0 665.0Q929 661 946 646Z" fill="#d22f27" />
<path d="M652 905H659Q658 905 657.0 905.0Q656 905 655 905Q655 905 654.0 905.0Q653 905 652 905Z" fill="#ea5a47" />
<path d="M656 905Q693 904 731.0 895.0Q769 886 800.5 863.0Q832 840 852.0 797.0Q872 754 872 685L878 669Q864 670 850 669Q798 666 752 640Q730 627 706.0 620.5Q682 614 659 614Q636 614 612.0 620.5Q588 627 565 640Q520 666 468 669Q450 671 434 669L439 685Q440 754 459.5 797.0Q479 840 511.0 863.0Q543 886 580.5 895.0Q618 904 656 905Z" fill="#ea5a47" />
<path d="M1007 -34Q1006 -34 1014.5 -13.0Q1023 8 1026 34Q1028 57 1021.0 92.0Q1014 127 992.0 161.0Q970 195 927.5 216.0Q885 237 816 233Q787 214 760.0 194.0Q733 174 707.0 160.5Q681 147 653 147H655Q613 147 573.5 165.5Q534 184 490 213Q435 213 399.5 195.0Q364 177 344.5 149.0Q325 121 316.0 89.5Q307 58 305.5 29.5Q304 1 305.5 -16.5Q307 -34 307 -34Z" fill="#a57939" />
<path d="M728 79H586L657 -29Z" fill="#3f3f3f" />
<path d="M1167 337Q1152 323 1127.0 306.5Q1102 290 1076.5 275.0Q1051 260 1034.0 250.0Q1017 240 1017 240L1073 173Q1073 173 1085.5 189.0Q1098 205 1117.5 227.5Q1137 250 1157.5 272.0Q1178 294 1193 306Z" fill="#9b9b9a" />
<path d="M965.7376708984375 197.92254638671875 1021.2171630859375 131.01580810546875 1072.6644287109375 173.72674560546875 1017.1849365234375 240.63348388671875Z" fill="#9b9b9a" />
<path d="M966 197Q966 197 948.0 184.0Q930 171 904.0 148.0Q878 125 853.0 95.5Q828 66 813.0 32.5Q798 -1 804 -35H899Q897 -18 909.0 4.0Q921 26 939.5 48.0Q958 70 976.5 88.5Q995 107 1008.0 118.5Q1021 130 1021 130Z" fill="#3f3f3f" />
<path d="M577 720Q597 709 625.0 702.5Q653 696 682.0 699.5Q711 703 735 720V804L652 901L577 806Z" fill="#fcea2b" />
<path d="M592 639Q563 617 522.0 597.5Q481 578 452 574L455 582Q454 600 460.0 626.0Q466 652 491 683Z" fill="#6a462f" />
<path d="M857 676Q857 676 863.5 663.5Q870 651 876.5 631.0Q883 611 881 589Q868 579 846.5 587.5Q825 596 799.0 614.0Q773 632 749 652Z" fill="#6a462f" />
<path d="M456 573Q456 573 467.5 573.0Q479 573 493.0 566.5Q507 560 515.0 539.5Q523 519 516 478Q506 424 490.5 391.0Q475 358 463.0 343.0Q451 328 451 328Q436 311 413.0 301.5Q390 292 367.0 288.5Q344 285 328.5 284.5Q313 284 313 284Q298 356 308.0 406.5Q318 457 342.0 489.5Q366 522 393.0 540.0Q420 558 439.0 565.0Q458 572 458 572Z" fill="#6a462f" />
<path d="M655 616Q628 633 598.0 632.0Q568 631 540.0 619.0Q512 607 489.5 589.5Q467 572 454.5 554.5Q442 537 444 526Q444 454 472.0 395.0Q500 336 547.5 301.0Q595 266 652 266Q709 266 756.5 301.0Q804 336 832.0 395.0Q860 454 860 526Q864 553 843.5 577.0Q823 601 789.0 616.0Q755 631 718.5 632.0Q682 633 655 616Z" fill="#fcea2b" />
<path d="M819 219Q776 191 738.0 173.0Q700 155 659 155H657Q657 155 656.5 155.0Q656 155 656 155Q615 155 576.0 173.5Q537 192 494 221L586 79H728L820 218Z" fill="#fcea2b" />
<path d="M768.0570068359375 552.4374389648438Q768.0570068359375 567.8302001953125 757.2820739746094 578.6051330566406Q746.5071411132812 589.3800659179688 731.1143798828125 589.3800659179688Q715.7216186523438 589.3800659179688 704.9466857910156 578.6051330566406Q694.1717529296875 567.8302001953125 694.1717529296875 552.4374389648438Q694.1717529296875 537.044677734375 704.9466857910156 526.2697448730469Q715.7216186523438 515.4948120117188 731.1143798828125 515.4948120117188Q746.5071411132812 515.4948120117188 757.2820739746094 526.2697448730469Q768.0570068359375 537.044677734375 768.0570068359375 552.4374389648438Z" fill="#000000" />
<path d="M621.0570068359375 552.4374389648438Q621.0570068359375 567.8302001953125 610.2820739746094 578.6051330566406Q599.5071411132812 589.3800659179688 584.1143798828125 589.3800659179688Q568.7216186523438 589.3800659179688 557.9466857910156 578.6051330566406Q547.1717529296875 567.8302001953125 547.1717529296875 552.4374389648438Q547.1717529296875 537.044677734375 557.9466857910156 526.2697448730469Q568.7216186523438 515.4948120117188 584.1143798828125 515.4948120117188Q599.5071411132812 515.4948120117188 610.2820739746094 526.2697448730469Q621.0570068359375 537.044677734375 621.0570068359375 552.4374389648438Z" fill="#000000" />
<path d="M657.0 369.0Q689.0 369.0 721.0 385.0Q727.0 388.0 729.5 395.5Q732.0 403.0 729.0 409.0Q725.0 416.0 718.0 418.5Q711.0 421.0 704.0 418.0Q657.0 394.0 611.0 418.0Q604.0 421.0 596.5 418.5Q589.0 416.0 586.0 409.0Q583.0 403.0 585.0 395.5Q587.0 388.0 594.0 385.0Q626.0 369.0 657.0 369.0Z" fill="#000000" />
<path d="M658 249Q720 249 771.5 286.5Q823 324 853.5 387.5Q884 451 884 527Q884 560 878 592L842 585Q847 557 847 527Q847 461 821.5 406.0Q796 351 753.0 318.5Q710 286 658 286Q606 286 563.0 318.5Q520 351 494.0 406.0Q468 461 468 527Q468 550 472 572L435 578Q432 553 432 527Q432 451 462.5 387.5Q493 324 544.5 286.5Q596 249 658 249Z" fill="#000000" />
<path d="M663 680Q685 680 706.0 686.0Q727 692 745 705Q753 710 753 720V804Q753 811 749 816L666 913Q661 920 652 920Q652 920 652.0 920.0Q652 920 652 920Q643 919 638 913L563 817Q559 812 559 806V720Q559 709 568 704Q588 693 612.5 686.5Q637 680 663 680ZM595 731V799L653 872L716 797V730Q691 715 657.0 717.0Q623 719 595 731Z" fill="#000000" />
<path d="M664 680Q686 680 707.5 686.0Q729 692 747 705Q755 710 755 720V804Q755 811 750 816L668 913Q663 920 654 920Q654 920 654.0 920.0Q654 920 654 920Q645 919 640 913L564 817Q560 812 560 806V720Q560 709 570 704Q590 693 614.5 686.5Q639 680 664 680ZM597 731Q597 731 597.0 741.5Q597 752 597.0 765.5Q597 779 597.0 789.0Q597 799 597 799L655 872L718 797V730Q692 715 658.5 717.0Q625 719 597 731Z" fill="#000000" />
<path d="M871 667Q871 667 871.0 667.0Q871 667 871 667Q879 667 884.5 672.5Q890 678 890 686Q889 800 830.5 860.0Q772 920 661 923Q660 923 659 923H651Q650 923 649 923Q538 920 479.5 860.0Q421 800 420 686Q420 678 425.5 672.5Q431 667 438 667Q438 667 438.0 667.0Q438 667 438 667Q446 667 451.5 672.5Q457 678 457 685Q458 884 655 886Q851 884 853 685Q853 678 858.5 672.5Q864 667 871 667Z" fill="#000000" />
<path d="M862 547Q874 547 883 554Q890 559 891 567Q892 588 887.5 610.0Q883 632 876.0 650.0Q869 668 865 675Q862 682 854.5 684.0Q847 686 841 682Q834 678 832.0 671.0Q830 664 833 657Q837 650 844.5 628.5Q852 607 854 585Q841 591 820.0 607.5Q799 624 785 636Q780 641 774.5 645.5Q769 650 763 654Q757 659 749.5 658.0Q742 657 737 652Q733 646 733.5 638.5Q734 631 740 626Q745 621 750.5 616.5Q756 612 762 608Q789 585 815.0 566.0Q841 547 862 547Z" fill="#000000" />
<path d="M927 507Q933 507 938 511Q989 548 989 592Q989 614 979.5 630.0Q970 646 960.0 655.0Q950 664 950 664Q928 682 899.0 685.5Q870 689 848 688Q791 684 742 655Q703 633 658 632Q613 633 574 655Q524 684 468 688Q445 689 416.5 685.5Q388 682 367 665Q366 664 353.0 651.5Q340 639 331.0 618.0Q322 597 331 569Q333 562 339.5 558.5Q346 555 354 558Q361 560 364.5 566.5Q368 573 365 581Q361 596 366.5 608.0Q372 620 380.0 627.5Q388 635 389 636Q413 655 466 651Q513 648 555 624Q603 596 658 596Q713 596 760 624Q802 648 850 651Q903 655 927 635Q928 635 940.0 622.5Q952 610 952 592Q952 567 916 540Q910 536 909.0 528.5Q908 521 912 515Q918 507 927 507Z" fill="#000000" />
<path d="M455 557Q456 557 457 557Q509 562 587 619Q593 623 594.0 630.5Q595 638 591 644Q587 650 579.5 651.5Q572 653 565 648Q496 598 453 593Q445 592 440.5 586.5Q436 581 437 573Q438 557 455 557Z" fill="#000000" />
<path d="M323 276Q324 276 324 276Q325 277 339.5 278.0Q354 279 374.5 284.0Q395 289 416.5 299.0Q438 309 453 327Q457 333 456.5 340.5Q456 348 450 353Q445 358 437.0 357.0Q429 356 425 351Q410 333 384.0 325.0Q358 317 338 314Q330 368 338.5 406.0Q347 444 365.5 469.0Q384 494 404.0 508.5Q424 523 439.0 529.0Q454 535 456 536Q464 538 468 546Q471 553 468 561Q467 562 464.0 575.0Q461 588 464.5 609.5Q468 631 487 659Q491 665 489.5 672.5Q488 680 482 684Q476 688 468.5 687.0Q461 686 456 679Q431 643 428.0 612.5Q425 582 429 565Q412 557 385.5 539.5Q359 522 335.5 490.0Q312 458 301.5 409.0Q291 360 305 291Q308 276 323 276Z" fill="#000000" />
<path d="M310 -34Q312 -34 313 -34Q321 -33 325.5 -27.0Q330 -21 328 -13Q328 -13 327.0 4.0Q326 21 327.5 47.5Q329 74 338.0 102.5Q347 131 367 155Q408 202 488 204Q534 174 573.5 156.5Q613 139 655 138Q656 138 656 138Q657 138 657 138H658Q658 138 658.0 138.0Q658 138 658 138Q659 138 659 138Q702 139 741.5 156.5Q781 174 827 204Q854 203 877 198Q884 196 890.5 199.5Q897 203 899 211Q901 218 897.0 224.5Q893 231 886 233Q856 241 821 241Q816 241 811 238Q768 209 731.5 192.0Q695 175 657 175Q620 175 583.5 192.0Q547 209 504 238Q499 241 494 241Q393 241 339 179Q315 150 304.0 117.0Q293 84 291.0 53.5Q289 23 290.5 3.0Q292 -17 292 -19Q295 -34 310 -34Z" fill="#000000" />
<path d="M871 219Q871 226 865.5 231.5Q860 237 853 237Q842 237 836 227Q833 234 825 237Q813 241 805 230L657 16L509 233Q501 244 488 240Q480 237 476 229Q471 237 461 237Q453 237 448.0 232.0Q443 227 443 219V-17Q443 -24 448.0 -29.5Q453 -35 461 -35H494Q501 -35 506.5 -29.5Q512 -24 512 -17V163L641 -26Q647 -34 657 -34Q666 -34 672 -27L802 161V8Q802 -6 816 -9Q820 -10 824 -9Q821 19 835.0 46.5Q849 74 871 98Z" fill="#000000" />
<path d="M728 69Q735 69 740.5 74.5Q746 80 746 88Q746 95 740.5 100.5Q735 106 728 106H586Q579 106 573.5 100.5Q568 95 568 88Q568 80 573.5 74.5Q579 69 586 69Z" fill="#000000" />
<path d="M1024 112Q1030 112 1035 116L1087 159Q1087 159 1087.0 159.0Q1087 159 1087 159Q1089 161 1090 162Q1091 164 1104.0 180.0Q1117 196 1135.5 217.5Q1154 239 1173.0 259.5Q1192 280 1207 292Q1213 296 1214 304Q1215 312 1210 318L1184 349Q1179 355 1171 356Q1163 356 1157 351Q1141 336 1113.0 317.5Q1085 299 1058.5 283.5Q1032 268 1019 261L891 321Q884 324 877.0 321.5Q870 319 867 312Q864 305 866.5 298.0Q869 291 876 288L986 236L956 212Q950 207 950 199Q949 192 954 186L1009 119Q1015 112 1024 112ZM994 195 1017 214 1049 176 1026 156ZM1048 235Q1070 247 1105.5 269.0Q1141 291 1167 312L1170 308Q1146 286 1118.5 254.0Q1091 222 1075 202Z" fill="#000000" />
<path d="M977 182Q984 185 986.0 192.5Q988 200 984 206Q980 213 973.0 215.0Q966 217 959 213Q956 212 929.0 194.5Q902 177 871 149Q851 130 832.0 108.0Q813 86 802 61Q793 42 789.0 22.0Q785 2 788 -19Q791 -35 806 -35Q808 -35 809 -34Q817 -33 821.5 -27.0Q826 -21 824 -13Q824 -11 824 -9Q821 19 835.0 46.5Q849 74 871 98Q893 122 917.5 141.0Q942 160 959.0 170.5Q976 181 977 182Z" fill="#000000" />
<path d="M902 -35Q903 -35 904 -35Q911 -34 916.0 -28.0Q921 -22 920 -15Q918 1 936.5 25.0Q955 49 982.0 73.5Q1009 98 1034 115Q1040 120 1041.5 127.5Q1043 135 1038 141Q1034 147 1026.5 148.5Q1019 150 1013 145Q1004 139 982.5 122.0Q961 105 937.0 81.5Q913 58 897.0 31.5Q881 5 883 -19Q885 -35 902 -35Z" fill="#000000" />
<path d="M1006 -34Q1022 -34 1025 -19Q1025 -18 1025.5 -11.0Q1026 -4 1027 8V14Q1027 25 1027 33V45Q1027 53 1022.0 58.0Q1017 63 1009 64Q991 63 990 46V33Q991 24 990 15V9Q990 -1 989.0 -7.0Q988 -13 988 -13Q987 -21 991.5 -27.0Q996 -33 1004 -34Q1005 -34 1006 -34Z" fill="#000000" />
</g></svg>