<svg xmlns="http://www.w3.org/2000/svg" viewBox="0 0 2048 2048">
<g transform="matrix(1 0 0 -1 0 2048)">
<path d="M91.5877685546875 733.1798706054688V36.51513671875H1228.2723388671875V733.1798706054688Z" fill="#d22f27" />
<path d="M91.5877685546875 733.1392211914062V494.77978515625H1228.2723388671875V733.1392211914062Z" fill="#ffffff" />
<path d="M91.5877685546875 495.00164794921875V274.94873046875H1228.2723388671875V495.00164794921875Z" fill="#1e50a0" />
<path d="M414 642Q369 665 325.0 668.5Q281 672 245.0 665.0Q209 658 188.0 650.0Q167 642 167 642V477Q167 430 185.5 398.5Q204 367 228.5 348.0Q253 329 271.5 320.5Q290 312 290 312Q290 312 309.0 320.5Q328 329 352.5 348.0Q377 367 395.5 398.5Q414 430 414 477Z" fill="#1e50a0" />
<path d="M423 642Q423 647 418 650Q340 690 243 674Q195 666 162 650Q157 647 157 642V477Q157 395 223 341Q255 314 287 303Q290 302 293 303Q326 314 358 341Q423 395 423 477ZM405 636V477Q405 404 346 355Q318 331 290 321Q262 331 234 355Q176 404 176 477V636Q205 649 246 656Q334 671 405 636Z" fill="#000000" />
<path d="M219 434Q219 434 223.0 418.5Q227 403 235.5 384.0Q244 365 258.5 353.0Q273 341 293 348Q348 371 366 427L219 434Z" fill="#ffffff" />
<path d="M220 443 219 434 210 432Q215 405 227 380Q254 326 296 340H297Q356 364 374 425L378 436ZM231 424 353 419Q335 375 290 357Q264 348 244 388Q235 405 231 424Z" fill="#ffffff" />
<path d="M266 431 326 420 284 468 266 431Z" fill="#ffffff" />
<path d="M258 435 266 431 264 422 350 407 282 484ZM280 438 286 451 302 434Z" fill="#ffffff" />
<path d="M257.0594482421875 605.4281005859375Q257.0594482421875 609.213134765625 255.6353759765625 612.5484619140625Q254.2113037109375 615.8837890625 251.700439453125 618.3946533203125Q249.1895751953125 620.905517578125 245.854248046875 622.32958984375Q242.5189208984375 623.753662109375 238.73388671875 623.753662109375Q234.9488525390625 623.753662109375 231.613525390625 622.32958984375Q228.2781982421875 620.905517578125 225.767333984375 618.3946533203125Q223.2564697265625 615.8837890625 221.8323974609375 612.5484619140625Q220.4083251953125 609.213134765625 220.4083251953125 605.4281005859375Q220.4083251953125 601.64306640625 221.8323974609375 598.3077392578125Q223.2564697265625 594.972412109375 225.767333984375 592.4615478515625Q228.2781982421875 589.95068359375 231.613525390625 588.526611328125Q234.9488525390625 587.1025390625 238.73388671875 587.1025390625Q242.5189208984375 587.1025390625 245.854248046875 588.526611328125Q249.1895751953125 589.95068359375 251.700439453125 592.4615478515625Q254.2113037109375 594.972412109375 255.6353759765625 598.3077392578125Q257.0594482421875 601.64306640625 257.0594482421875 605.4281005859375Z" fill="#fcea2b" />
<path d="M402 409 384 464Q381 473 375 476Q370 479 361 476Q355 474 351 469L334 442L310 502Q307 510 301 513Q295 515 287 512Q279 509 276 502L253 442L235 469Q230 476 224 477Q217 479 210 474Q205 470 203 464L184 409Q182 402 185 396Q205 350 242 326Q322 275 400 393Q405 401 402 409ZM365 406Q309 327 262 357Q237 373 221 404L226 417L241 393Q245 388 250 386Q267 380 274 397L293 446L313 397Q315 391 320 388Q335 378 345 393L361 417Z" fill="#ffffff" />
<path d="M312.0594482421875 568.4281005859375Q312.0594482421875 572.213134765625 310.6353759765625 575.5484619140625Q309.2113037109375 578.8837890625 306.700439453125 581.3946533203125Q304.1895751953125 583.905517578125 300.854248046875 585.32958984375Q297.5189208984375 586.753662109375 293.73388671875 586.753662109375Q289.9488525390625 586.753662109375 286.613525390625 585.32958984375Q283.2781982421875 583.905517578125 280.767333984375 581.3946533203125Q278.2564697265625 578.8837890625 276.8323974609375 575.5484619140625Q275.4083251953125 572.213134765625 275.4083251953125 568.4281005859375Q275.4083251953125 564.64306640625 276.8323974609375 561.3077392578125Q278.2564697265625 557.972412109375 280.767333984375 555.4615478515625Q283.2781982421875 552.95068359375 286.613525390625 551.526611328125Q289.9488525390625 550.1025390625 293.73388671875 550.1025390625Q297.5189208984375 550.1025390625 300.854248046875 551.526611328125Q304.1895751953125 552.95068359375 306.700439453125 555.4615478515625Q309.2113037109375 557.972412109375 310.6353759765625 561.3077392578125Q312.0594482421875 564.64306640625 312.0594482421875 568.4281005859375Z" fill="#fcea2b" />
<path d="M367.0594482421875 605.4281005859375Q367.0594482421875 609.213134765625 365.6353759765625 612.5484619140625Q364.2113037109375 615.8837890625 361.700439453125 618.3946533203125Q359.1895751953125 620.905517578125 355.854248046875 622.32958984375Q352.5189208984375 623.753662109375 348.73388671875 623.753662109375Q344.9488525390625 623.753662109375 341.613525390625 622.32958984375Q338.2781982421875 620.905517578125 335.767333984375 618.3946533203125Q333.2564697265625 615.8837890625 331.8323974609375 612.5484619140625Q330.4083251953125 609.213134765625 330.4083251953125 605.4281005859375Q330.4083251953125 601.64306640625 331.8323974609375 598.3077392578125Q333.2564697265625 594.972412109375 335.767333984375 592.4615478515625Q338.2781982421875 589.95068359375 341.613525390625 588.526611328125Q344.9488525390625 587.1025390625 348.73388671875 587.1025390625Q352.5189208984375 587.1025390625 355.854248046875 588.526611328125Q359.1895751953125 589.95068359375 361.700439453125 592.4615478515625Q364.2113037109375 594.972412109375 365.6353759765625 598.3077392578125Q367.0594482421875 601.64306640625 367.0594482421875 605.4281005859375Z" fill="#fcea2b" />
<path d="M423 642Q423 647 418 650Q340 690 243 674Q195 666 162 650Q157 647 157 642V477Q157 395 223 341Q255 314 287 303Q290 302 293 303Q326 314 358 341Q423 395 423 477ZM405 636V477Q405 404 346 355Q318 331 290 321Q262 331 234 355Q176 404 176 477V636Q205 649 246 656Q334 671 405 636Z" fill="#d22f27" />
<path d="M73 37Q73 18 92 18H1228Q1247 18 1247 37V733Q1247 752 1228 752H92Q73 752 73 733ZM110 715H1210V55H110Z" fill="#000000" />
</g></svg>