<svg xmlns="http://www.w3.org/2000/svg" viewBox="0 0 2048 2048">
<g transform="matrix(1 0 0 -1 0 2048)">
<path d="M91.5877685546875 733.1798706054688V36.51513671875H1228.2723388671875V733.1798706054688Z" fill="#000000" />
<path d="M91.5877685546875 733.114990234375V384.755859375H1228.2723388671875V733.114990234375Z" fill="#d22f27" />
<path d="M678 513 648 418 728 477H629L709 418Z" fill="#f1b31c" />
<path d="M687 516Q686 520 681 521Q672 524 670 516L660 486H629Q624 486 621 482Q616 475 623 469L649 451L639 421Q637 417 640 413Q643 409 646 409Q649 408 653 411L678 429L704 411Q707 408 712 410Q720 413 718 421L708 451L733 469Q737 472 737 477Q737 486 728 486H697ZM673 468H683L686 458L678 452L670 458Z" fill="#f1b31c" />
<path d="M806 302Q796 287 811 277Q826 267 837 282Q838 283 839 285Q897 376 854 474Q811 573 706 592Q697 594 691 590Q686 587 684 578Q681 560 699 556Q786 540 821 460Q856 379 808 305Q807 304 806 302Z" fill="#f1b31c" />
<path d="M574 260Q559 270 548 256Q543 248 544 242Q545 235 552 230Q634 172 729 202Q739 205 748 208Q764 215 757 232Q750 249 733 242Q726 239 718 237Q640 212 574 260Z" fill="#f1b31c" />
<path d="M568 425Q560 430 554 429Q548 428 542 420Q532 405 547 395L851 187Q866 176 877 191Q887 206 872 217Z" fill="#f1b31c" />
<path d="M73 37Q73 18 92 18H1228Q1247 18 1247 37V733Q1247 752 1228 752H92Q73 752 73 733ZM110 715H1210V55H110Z" fill="#000000" />
</g></svg>