<svg xmlns="http://www.w3.org/2000/svg" viewBox="0 0 2048 2048">
<g transform="matrix(1 0 0 -1 0 2048)">
<path d="M91.5877685546875 733.1798706054688V36.51513671875H1228.2723388671875V733.1798706054688Z" fill="#5c9e31" />
<path d="M91.5877685546875 733.1392211914062V494.77978515625H1228.2723388671875V733.1392211914062Z" fill="#d22f27" />
<path d="M91.5877685546875 495.00164794921875V274.94873046875H1228.2723388671875V495.00164794921875Z" fill="#ffffff" />
<path d="M669.3894653320312 400.16705322265625Q669.3894653320312 402.0472412109375 668.6820678710938 403.70404052734375Q667.9746704101562 405.36083984375 666.7274169921875 406.60809326171875Q665.4801635742188 407.8553466796875 663.8233642578125 408.562744140625Q662.1665649414062 409.2701416015625 660.286376953125 409.2701416015625Q658.4061889648438 409.2701416015625 656.7493896484375 408.562744140625Q655.0925903320312 407.8553466796875 653.8453369140625 406.60809326171875Q652.5980834960938 405.36083984375 651.8906860351562 403.70404052734375Q651.1832885742188 402.0472412109375 651.1832885742188 400.16705322265625Q651.1832885742188 398.286865234375 651.8906860351562 396.63006591796875Q652.5980834960938 394.9732666015625 653.8453369140625 393.72601318359375Q655.0925903320312 392.478759765625 656.7493896484375 391.7713623046875Q658.4061889648438 391.06396484375 660.286376953125 391.06396484375Q662.1665649414062 391.06396484375 663.8233642578125 391.7713623046875Q665.4801635742188 392.478759765625 666.7274169921875 393.72601318359375Q667.9746704101562 394.9732666015625 668.6820678710938 396.63006591796875Q669.3894653320312 398.286865234375 669.3894653320312 400.16705322265625Z" fill="#fcea2b" />
<path d="M678 400Q678 408 673 413Q668 419 660 419Q642 419 642 400Q642 382 660 382Q678 382 678 400Z" fill="#fcea2b" />
<path d="M657 400Q651 400 651 395V333Q651 328 657 328H663Q669 328 669 333V395Q669 400 663 400Z" fill="#fcea2b" />
<path d="M702 297Q715 284 728 296Q740 309 728 322Q700 350 660 350Q620 350 592 322Q580 309 592 296Q605 284 618 297Q636 314 660 314Q684 314 702 297Z" fill="#fcea2b" />
<path d="M760.4595947265625 366.1905517578125Q760.4595947265625 368.076904296875 759.7498779296875 369.7391357421875Q759.0401611328125 371.4013671875 757.788818359375 372.6527099609375Q756.5374755859375 373.904052734375 754.875244140625 374.61376953125Q753.2130126953125 375.323486328125 751.32666015625 375.323486328125Q749.4403076171875 375.323486328125 747.778076171875 374.61376953125Q746.1158447265625 373.904052734375 744.864501953125 372.6527099609375Q743.6131591796875 371.4013671875 742.9034423828125 369.7391357421875Q742.1937255859375 368.076904296875 742.1937255859375 366.1905517578125Q742.1937255859375 364.30419921875 742.9034423828125 362.6419677734375Q743.6131591796875 360.979736328125 744.864501953125 359.7283935546875Q746.1158447265625 358.47705078125 747.778076171875 357.767333984375Q749.4403076171875 357.0576171875 751.32666015625 357.0576171875Q753.2130126953125 357.0576171875 754.875244140625 357.767333984375Q756.5374755859375 358.47705078125 757.788818359375 359.7283935546875Q759.0401611328125 360.979736328125 759.7498779296875 362.6419677734375Q760.4595947265625 364.30419921875 760.4595947265625 366.1905517578125Z" fill="#fcea2b" />
<path d="M770.0 367.0Q770.0 385.5 751.5 385.5Q733.0 385.5 733.0 367.0Q733.0 349.0 751.5 349.0Q770.0 349.0 770.0 367.0Z" fill="#fcea2b" />
<path d="M746.4595947265625 410.1905517578125Q746.4595947265625 412.076904296875 745.7498779296875 413.7391357421875Q745.0401611328125 415.4013671875 743.788818359375 416.6527099609375Q742.5374755859375 417.904052734375 740.875244140625 418.61376953125Q739.2130126953125 419.323486328125 737.32666015625 419.323486328125Q735.4403076171875 419.323486328125 733.778076171875 418.61376953125Q732.1158447265625 417.904052734375 730.864501953125 416.6527099609375Q729.6131591796875 415.4013671875 728.9034423828125 413.7391357421875Q728.1937255859375 412.076904296875 728.1937255859375 410.1905517578125Q728.1937255859375 408.30419921875 728.9034423828125 406.6419677734375Q729.6131591796875 404.979736328125 730.864501953125 403.7283935546875Q732.1158447265625 402.47705078125 733.778076171875 401.767333984375Q735.4403076171875 401.0576171875 737.32666015625 401.0576171875Q739.2130126953125 401.0576171875 740.875244140625 401.767333984375Q742.5374755859375 402.47705078125 743.788818359375 403.7283935546875Q745.0401611328125 404.979736328125 745.7498779296875 406.6419677734375Q746.4595947265625 408.30419921875 746.4595947265625 410.1905517578125Z" fill="#fcea2b" />
<path d="M755.0 411.0Q755.0 429.5 736.5 429.5Q718.0 429.5 718.0 411.0Q718.0 393.0 736.5 393.0Q755.0 393.0 755.0 411.0Z" fill="#fcea2b" />
<path d="M713.4595947265625 442.1905517578125Q713.4595947265625 444.076904296875 712.7498779296875 445.7391357421875Q712.0401611328125 447.4013671875 710.788818359375 448.6527099609375Q709.5374755859375 449.904052734375 707.875244140625 450.61376953125Q706.2130126953125 451.323486328125 704.32666015625 451.323486328125Q702.4403076171875 451.323486328125 700.778076171875 450.61376953125Q699.1158447265625 449.904052734375 697.864501953125 448.6527099609375Q696.6131591796875 447.4013671875 695.9034423828125 445.7391357421875Q695.1937255859375 444.076904296875 695.1937255859375 442.1905517578125Q695.1937255859375 440.30419921875 695.9034423828125 438.6419677734375Q696.6131591796875 436.979736328125 697.864501953125 435.7283935546875Q699.1158447265625 434.47705078125 700.778076171875 433.767333984375Q702.4403076171875 433.0576171875 704.32666015625 433.0576171875Q706.2130126953125 433.0576171875 707.875244140625 433.767333984375Q709.5374755859375 434.47705078125 710.788818359375 435.7283935546875Q712.0401611328125 436.979736328125 712.7498779296875 438.6419677734375Q713.4595947265625 440.30419921875 713.4595947265625 442.1905517578125Z" fill="#fcea2b" />
<path d="M723.0 442.0Q723.0 460.5 704.5 460.5Q686.0 460.5 686.0 442.0Q686.0 424.0 704.5 424.0Q723.0 424.0 723.0 442.0Z" fill="#fcea2b" />
<path d="M669.4595947265625 454.1905517578125Q669.4595947265625 456.076904296875 668.7498779296875 457.7391357421875Q668.0401611328125 459.4013671875 666.788818359375 460.6527099609375Q665.5374755859375 461.904052734375 663.875244140625 462.61376953125Q662.2130126953125 463.323486328125 660.32666015625 463.323486328125Q658.4403076171875 463.323486328125 656.778076171875 462.61376953125Q655.1158447265625 461.904052734375 653.864501953125 460.6527099609375Q652.6131591796875 459.4013671875 651.9034423828125 457.7391357421875Q651.1937255859375 456.076904296875 651.1937255859375 454.1905517578125Q651.1937255859375 452.30419921875 651.9034423828125 450.6419677734375Q652.6131591796875 448.979736328125 653.864501953125 447.7283935546875Q655.1158447265625 446.47705078125 656.778076171875 445.767333984375Q658.4403076171875 445.0576171875 660.32666015625 445.0576171875Q662.2130126953125 445.0576171875 663.875244140625 445.767333984375Q665.5374755859375 446.47705078125 666.788818359375 447.7283935546875Q668.0401611328125 448.979736328125 668.7498779296875 450.6419677734375Q669.4595947265625 452.30419921875 669.4595947265625 454.1905517578125Z" fill="#fcea2b" />
<path d="M679.0 455.0Q679.0 473.5 660.5 473.5Q642.0 473.5 642.0 455.0Q642.0 437.0 660.5 437.0Q679.0 437.0 679.0 455.0Z" fill="#fcea2b" />
<path d="M625.4595947265625 442.1905517578125Q625.4595947265625 444.076904296875 624.7498779296875 445.7391357421875Q624.0401611328125 447.4013671875 622.788818359375 448.6527099609375Q621.5374755859375 449.904052734375 619.875244140625 450.61376953125Q618.2130126953125 451.323486328125 616.32666015625 451.323486328125Q614.4403076171875 451.323486328125 612.778076171875 450.61376953125Q611.1158447265625 449.904052734375 609.864501953125 448.6527099609375Q608.6131591796875 447.4013671875 607.9034423828125 445.7391357421875Q607.1937255859375 444.076904296875 607.1937255859375 442.1905517578125Q607.1937255859375 440.30419921875 607.9034423828125 438.6419677734375Q608.6131591796875 436.979736328125 609.864501953125 435.7283935546875Q611.1158447265625 434.47705078125 612.778076171875 433.767333984375Q614.4403076171875 433.0576171875 616.32666015625 433.0576171875Q618.2130126953125 433.0576171875 619.875244140625 433.767333984375Q621.5374755859375 434.47705078125 622.788818359375 435.7283935546875Q624.0401611328125 436.979736328125 624.7498779296875 438.6419677734375Q625.4595947265625 440.30419921875 625.4595947265625 442.1905517578125Z" fill="#fcea2b" />
<path d="M635.0 442.0Q635.0 460.5 616.5 460.5Q598.0 460.5 598.0 442.0Q598.0 424.0 616.5 424.0Q635.0 424.0 635.0 442.0Z" fill="#fcea2b" />
<path d="M592.4595947265625 410.1905517578125Q592.4595947265625 412.076904296875 591.7498779296875 413.7391357421875Q591.0401611328125 415.4013671875 589.788818359375 416.6527099609375Q588.5374755859375 417.904052734375 586.875244140625 418.61376953125Q585.2130126953125 419.323486328125 583.32666015625 419.323486328125Q581.4403076171875 419.323486328125 579.778076171875 418.61376953125Q578.1158447265625 417.904052734375 576.864501953125 416.6527099609375Q575.6131591796875 415.4013671875 574.9034423828125 413.7391357421875Q574.1937255859375 412.076904296875 574.1937255859375 410.1905517578125Q574.1937255859375 408.30419921875 574.9034423828125 406.6419677734375Q575.6131591796875 404.979736328125 576.864501953125 403.7283935546875Q578.1158447265625 402.47705078125 579.778076171875 401.767333984375Q581.4403076171875 401.0576171875 583.32666015625 401.0576171875Q585.2130126953125 401.0576171875 586.875244140625 401.767333984375Q588.5374755859375 402.47705078125 589.788818359375 403.7283935546875Q591.0401611328125 404.979736328125 591.7498779296875 406.6419677734375Q592.4595947265625 408.30419921875 592.4595947265625 410.1905517578125Z" fill="#fcea2b" />
<path d="M602.0 410.0Q602.0 428.5 583.5 428.5Q565.0 428.5 565.0 410.0Q565.0 392.0 583.5 392.0Q602.0 392.0 602.0 410.0Z" fill="#fcea2b" />
<path d="M577.4595947265625 366.1905517578125Q577.4595947265625 368.076904296875 576.7498779296875 369.7391357421875Q576.0401611328125 371.4013671875 574.788818359375 372.6527099609375Q573.5374755859375 373.904052734375 571.875244140625 374.61376953125Q570.2130126953125 375.323486328125 568.32666015625 375.323486328125Q566.4403076171875 375.323486328125 564.778076171875 374.61376953125Q563.1158447265625 373.904052734375 561.864501953125 372.6527099609375Q560.6131591796875 371.4013671875 559.9034423828125 369.7391357421875Q559.1937255859375 368.076904296875 559.1937255859375 366.1905517578125Q559.1937255859375 364.30419921875 559.9034423828125 362.6419677734375Q560.6131591796875 360.979736328125 561.864501953125 359.7283935546875Q563.1158447265625 358.47705078125 564.778076171875 357.767333984375Q566.4403076171875 357.0576171875 568.32666015625 357.0576171875Q570.2130126953125 357.0576171875 571.875244140625 357.767333984375Q573.5374755859375 358.47705078125 574.788818359375 359.7283935546875Q576.0401611328125 360.979736328125 576.7498779296875 362.6419677734375Q577.4595947265625 364.30419921875 577.4595947265625 366.1905517578125Z" fill="#fcea2b" />
<path d="M587.0 367.0Q587.0 385.5 568.5 385.5Q550.0 385.5 550.0 367.0Q550.0 349.0 568.5 349.0Q587.0 349.0 587.0 367.0Z" fill="#fcea2b" />
<path d="M73 37Q73 18 92 18H1228Q1247 18 1247 37V733Q1247 752 1228 752H92Q73 752 73 733ZM110 715H1210V55H110Z" fill="#000000" />
</g></svg>