<svg xmlns="http://www.w3.org/2000/svg" viewBox="0 0 2048 2048">
<g transform="matrix(1 0 0 -1 0 2048)">
<path d="M1019 -34Q1019 -34 1023.5 -14.0Q1028 6 1029.5 37.0Q1031 68 1024.0 103.0Q1017 138 995.0 169.0Q973 200 930.0 220.0Q887 240 815 240Q786 220 762.0 200.5Q738 181 714.5 167.5Q691 154 663 154H666Q623 154 583.5 172.0Q544 190 501 220Q446 220 410.0 201.5Q374 183 353.0 154.0Q332 125 322.0 92.5Q312 60 309.5 31.5Q307 3 308.0 -15.5Q309 -34 309 -34Z" fill="#9b9b9a" />
<path d="M740 -25 957 62 832 236 716 -8 671 52Z" fill="#d0cfce" />
<path d="M706 -13 734 31 795 191 656 142 510 191 572 31 605 -13Q609 -20 623.5 -24.0Q638 -28 655.5 -28.0Q673 -28 687.5 -24.0Q702 -20 706 -13Z" fill="#ffffff" />
<path d="M698 156Q698 156 700.0 139.5Q702 123 701.0 101.0Q700 79 690.0 62.0Q680 45 656 45Q632 45 622.0 62.0Q612 79 610.5 101.0Q609 123 611.0 139.5Q613 156 613 156Z" fill="#3f3f3f" />
<path d="M642 40 594 -34H716L669 40Q664 47 655.0 47.0Q646 47 642 40Z" fill="#3f3f3f" />
<path d="M593 -16 419 67 492 222 596 -16 640 45Z" fill="#d0cfce" />
<path d="M1212 -26V333Q1212 337 1208 337H928V-26Z" fill="#d0cfce" />
<path d="M1149 -72V205Q1149 234 1128.0 254.5Q1107 275 1078 275H881V-72Z" fill="#ffffff" />
<path d="M315 225Q296 269 299.5 311.0Q303 353 317.0 392.0Q331 431 344.0 466.0Q357 501 358 532Q354 631 374.5 698.5Q395 766 431.5 806.5Q468 847 513.0 866.0Q558 885 604.5 887.0Q651 889 692.0 879.5Q733 870 761.0 853.5Q789 837 797 820Q849 822 879.5 795.5Q910 769 925.5 726.0Q941 683 946.5 633.0Q952 583 953 538Q1016 414 1022 333H929V265H881L877 235Q849 240 815 240Q786 220 762.5 200.5Q739 181 715.5 167.5Q692 154 664 154Q622 154 583.0 172.5Q544 191 501 220Q454 220 422.0 206.5Q390 193 368 171Q362 177 355.0 182.0Q348 187 342 193Q327 206 315 225Z" fill="#3f3f3f" />
<path d="M754 750Q794 724 822.0 680.0Q850 636 861 581Q867 551 867 519Q867 447 839.0 388.0Q811 329 763.5 294.0Q716 259 659 259Q601 259 554.0 294.0Q507 329 479.0 388.0Q451 447 451 519Q451 538 453 557H451Q484 572 529.0 595.0Q574 618 620.0 645.5Q666 673 702.0 701.0Q738 729 752 754Z" fill="#fcea2b" />
<path d="M317 222Q327 207 343 216Q358 226 349 241L339 257Q312 321 360 440Q388 508 388 538Q388 539 388 539Q378 810 563 851Q630 866 699 846Q758 828 768 805Q773 794 786 794Q860 797 890 716Q912 658 915 544Q915 540 917 536Q957 458 972 400Q976 382 994 387Q1012 391 1007 409Q992 470 951 549Q948 667 925 729Q887 828 796 831Q774 862 710 881Q632 904 555 887Q341 839 351 539Q351 515 326 454Q272 320 306 241Q306 240 307 239Z" fill="#000000" />
<path d="M434 551Q433 535 433 519Q433 405 497 324Q564 241 659 241Q754 241 820 324Q885 405 885 519Q885 552 879 584Q856 703 769 762Q767 767 761 770Q753 775 746 773Q740 771 736 763Q693 688 444 574Q435 570 433 564Q431 558 434 551ZM755 727Q823 677 843 577Q848 549 848 519Q848 418 791 347Q736 278 659 278Q581 278 526 347Q469 418 469 519Q469 532 470 546Q694 649 755 727Z" fill="#000000" />
<path d="M769.0570068359375 550.4374389648438Q769.0570068359375 565.8302001953125 758.2820739746094 576.6051330566406Q747.5071411132812 587.3800659179688 732.1143798828125 587.3800659179688Q716.7216186523438 587.3800659179688 705.9466857910156 576.6051330566406Q695.1717529296875 565.8302001953125 695.1717529296875 550.4374389648438Q695.1717529296875 535.044677734375 705.9466857910156 524.2697448730469Q716.7216186523438 513.4948120117188 732.1143798828125 513.4948120117188Q747.5071411132812 513.4948120117188 758.2820739746094 524.2697448730469Q769.0570068359375 535.044677734375 769.0570068359375 550.4374389648438Z" fill="#000000" />
<path d="M622.0570068359375 550.4374389648438Q622.0570068359375 565.8302001953125 611.2820739746094 576.6051330566406Q600.5071411132812 587.3800659179688 585.1143798828125 587.3800659179688Q569.7216186523438 587.3800659179688 558.9466857910156 576.6051330566406Q548.1717529296875 565.8302001953125 548.1717529296875 550.4374389648438Q548.1717529296875 535.044677734375 558.9466857910156 524.2697448730469Q569.7216186523438 513.4948120117188 585.1143798828125 513.4948120117188Q600.5071411132812 513.4948120117188 611.2820739746094 524.2697448730469Q622.0570068359375 535.044677734375 622.0570068359375 550.4374389648438Z" fill="#000000" />
<path d="M658 367Q690 367 722 383Q728 386 730.5 393.0Q733 400 730 407Q726 414 719.0 416.5Q712 419 705 415Q658 392 612 415Q605 419 597.5 416.5Q590 414 587 407Q584 400 586.0 393.0Q588 386 595 383Q627 367 658 367Z" fill="#000000" />
<path d="M631 152Q635 170 617 174Q599 177 595 159Q589 129 592 99Q599 27 656 27Q713 27 719 99Q722 129 716 159Q714 168 709 172Q703 176 694 174Q676 170 680 152Q685 127 683 102Q679 64 656 64Q632 64 629 102Q626 127 631 152Z" fill="#000000" />
<path d="M826 9Q843 16 837 33Q830 50 813 43L708 1Q690 -6 697 -23Q704 -40 721 -33Z" fill="#000000" />
<path d="M290 -18Q292 -27 297 -31Q302 -35 311 -34Q329 -31 327 -13Q318 43 335 98Q367 202 486 204Q584 140 653 139Q654 139 655 139H657Q658 139 659 139Q729 140 830 208Q845 218 835 233Q825 248 809 238Q716 176 656 175Q595 176 502 238Q497 241 492 241Q341 241 300 109Q281 45 290 -18Z" fill="#000000" />
<path d="M655 35Q665 49 651 60Q637 71 626 57L599 22L509 229Q501 246 484 239Q478 236 475 230L403 75Q395 59 411 51L585 -33Q589 -35 593 -35Q603 -38 611 -27ZM560 20 444 76 491 178Z" fill="#000000" />
<path d="M836 215Q844 232 827 240Q810 247 803 230L712 21L686 56Q675 71 661 60Q646 50 656 35L701 -27Q704 -31 708 -33Q717 -36 723 -34Q729 -32 732 -23Z" fill="#000000" />
<path d="M1149 -90Q1167 -90 1167 -72V231Q1167 250 1149 250H1116V270Q1116 288 1098 288H881Q863 288 863 270V-72Q863 -90 881 -90ZM1131 -53H900V252H1080V231Q1080 213 1098 213H1131Z" fill="#000000" />
<path d="M940 352Q922 352 922 334Q922 315 940 315H1193V-8Q1193 -26 1212 -26Q1230 -26 1230 -8V334Q1230 352 1212 352Z" fill="#000000" />
<path d="M1109 285Q1094 296 1083 281Q1072 267 1087 255L1138 217Q1153 206 1164 220Q1175 235 1160 246Z" fill="#000000" />
<path d="M935 174Q917 174 917 156Q917 138 935 138H1090Q1108 138 1108 156Q1108 174 1090 174Z" fill="#000000" />
<path d="M935 99Q917 99 917 81Q917 63 935 63H1090Q1108 63 1108 81Q1108 99 1090 99Z" fill="#000000" />
<path d="M935 33Q917 33 917 15Q917 -3 935 -3H1090Q1108 -3 1108 15Q1108 33 1090 33Z" fill="#000000" />
</g></svg>