<svg xmlns="http://www.w3.org/2000/svg" viewBox="0 0 2048 2048">
<g transform="matrix(1 0 0 -1 0 2048)">
<path d="M1012 -37Q1011 -36 1012.0 -15.5Q1013 5 1011.5 36.5Q1010 68 1001.0 103.5Q992 139 971.5 171.0Q951 203 915.0 223.0Q879 243 823 243Q779 213 736.0 190.5Q693 168 650 168H653Q610 168 572.5 187.0Q535 206 491 235Q436 235 401.0 215.5Q366 196 346.5 165.0Q327 134 318.5 99.5Q310 65 309.0 34.0Q308 3 309.5 -17.0Q311 -37 311 -37Z" fill="#3f3f3f" />
<path d="M821 227Q660 82 492 227L555 118L603 35Q614 16 633.0 9.5Q652 3 671.5 9.5Q691 16 702 35L750 118Z" fill="#ffffff" />
<path d="M1178 286 1131 296 1130 292 1068 163 1061 155 1099 123Q1120 113 1142.0 120.5Q1164 128 1174 149L1204 211Q1214 232 1206.5 254.0Q1199 276 1178 286Z" fill="#a57939" />
<path d="M1131 296 1116 298 1050 331 1034 343 1031 340 969 210 966 199 984 195 1051 163 1061 155 1068 163 1130 292Z" fill="#f1b31c" />
<path d="M1051 163 984 195 983 194 882 -17Q874 -32 881.0 -47.5Q888 -63 905 -69Q918 -72 930.5 -66.0Q943 -60 950 -47L1050 162L1051 163Z" fill="#a57939" />
<path d="M999 373Q978 383 956.0 375.0Q934 367 924 346L894 284Q884 263 891.5 241.0Q899 219 920 209L966 199L969 210L1031 340L1034 343Z" fill="#a57939" />
<path d="M843 374Q880 374 895.5 407.0Q911 440 914.0 494.0Q917 548 917 612Q917 660 902.5 706.0Q888 752 857.0 789.0Q826 826 777.5 847.5Q729 869 660 869Q591 869 542.5 847.5Q494 826 463.0 789.0Q432 752 417.5 706.0Q403 660 403 612Q403 548 406.0 494.0Q409 440 424.5 407.0Q440 374 477 374Z" fill="#fcea2b" />
<path d="M457 521Q457 567 462.0 590.5Q467 614 472.0 622.5Q477 631 477 631Q532 640 571.5 660.0Q611 680 644.5 706.0Q678 732 715 759Q715 759 727.0 744.5Q739 730 758.5 707.0Q778 684 800.5 658.5Q823 633 843 613Q862 569 862 521Q862 438 834.0 381.0Q806 324 759.5 294.0Q713 264 659 264Q603 264 557.5 294.0Q512 324 484.5 381.0Q457 438 457 521Z" fill="#debb90" />
<path d="M310 -36Q311 -36 313 -36Q320 -35 324.5 -29.0Q329 -23 328 -15Q328 -15 326.5 2.0Q325 19 327.0 45.5Q329 72 338.0 100.5Q347 129 367 153Q407 199 483 202Q606 -35 660 -19Q673 -16 692.0 4.0Q711 24 732.5 52.5Q754 81 774.5 111.5Q795 142 811.5 169.0Q828 196 837 211Q844 223 834 234Q823 244 811 236Q768 207 731.5 190.0Q695 173 657 173Q621 173 585.0 189.0Q549 205 508 233Q500 242 489 239Q391 237 339 177Q315 148 304.0 115.0Q293 82 291.0 51.5Q289 21 290.5 1.0Q292 -19 292 -21Q294 -36 310 -36ZM543 169Q571 154 598.5 145.5Q626 137 655 136Q656 136 656 136Q656 136 657 136H658Q658 136 658.0 136.0Q658 136 658 136Q658 136 658.5 136.0Q659 136 659 136Q687 136 713.0 144.0Q739 152 766 166Q742 129 719.0 96.5Q696 64 678.0 42.5Q660 21 651 16Q642 20 624.5 42.0Q607 64 585.5 97.5Q564 131 543 169Z" fill="#000000" />
<path d="M1067 154Q1075 170 1058 178Q1042 186 1034 169L933 -39Q925 -55 910 -51Q902 -48 898 -40Q895 -33 898 -25L1000 186Q1008 202 991 210Q975 218 967 202L865 -9Q854 -32 864 -55Q875 -79 900 -86Q945 -99 966 -55Z" fill="#000000" />
<path d="M1046 358 1011 387Q1009 388 1007 389Q979 403 950 392Q921 382 907 354L877 292Q845 225 912 193Q914 192 916 191L962 181L978 178L1041 148L1049 141L1087 109Q1089 107 1091 106Q1158 74 1190 141L1220 203Q1234 231 1224 260Q1213 289 1186 303Q1183 304 1181 304L1135 314L1122 316L1060 346ZM1023 329 1038 317Q1040 315 1042 314L1108 282Q1111 281 1113 280L1127 278L1172 269Q1184 262 1189 248Q1194 233 1187 219L1157 157Q1141 124 1109 138L1073 169L1064 176Q1062 178 1059 180L992 212Q989 213 986 214L970 217L926 227Q894 243 910 276L940 338Q947 353 962 358Q976 363 989 357Z" fill="#000000" />
<path d="M1147 284Q1155 300 1138 308Q1122 316 1114 300L1051 171Q1043 154 1060 146Q1076 138 1084 155Z" fill="#000000" />
<path d="M952.0 218.0Q944.0 202.0 961.0 194.0Q977.0 186.0 985.0 202.0L1048.0 331.0Q1056.0 348.0 1039.0 356.0Q1023.0 364.0 1015.0 347.0Z" fill="#000000" />
<path d="M587 44Q596 44 602 51L656 123L703 57Q707 50 714.5 49.0Q722 48 729 52Q735 57 736.0 64.5Q737 72 733 78L671 165Q666 173 656 173Q647 173 641 165L572 73Q568 67 569.0 59.5Q570 52 576 47Q581 44 587 44Z" fill="#000000" />
<path d="M768.6845703125 548.6748657226562Q768.6845703125 564.0086669921875 758.017578125 574.6756591796875Q747.3505859375 585.3426513671875 732.0167846679688 585.3426513671875Q716.6829833984375 585.3426513671875 706.0159912109375 574.6756591796875Q695.3489990234375 564.0086669921875 695.3489990234375 548.6748657226562Q695.3489990234375 534.0077514648438 706.0159912109375 523.0074157714844Q716.6829833984375 512.007080078125 732.0167846679688 512.007080078125Q747.3505859375 512.007080078125 758.017578125 523.0074157714844Q768.6845703125 534.0077514648438 768.6845703125 548.6748657226562Z" fill="#000000" />
<path d="M622.6845703125 548.6748657226562Q622.6845703125 564.0086669921875 612.017578125 574.6756591796875Q601.3505859375 585.3426513671875 586.0167846679688 585.3426513671875Q570.6829833984375 585.3426513671875 560.0159912109375 574.6756591796875Q549.3489990234375 564.0086669921875 549.3489990234375 548.6748657226562Q549.3489990234375 534.0077514648438 560.0159912109375 523.0074157714844Q570.6829833984375 512.007080078125 586.0167846679688 512.007080078125Q601.3505859375 512.007080078125 612.017578125 523.0074157714844Q622.6845703125 534.0077514648438 622.6845703125 548.6748657226562Z" fill="#000000" />
<path d="M659 366Q693 366 723 381Q729 385 731.5 392.0Q734 399 731 406Q727 413 720.0 415.5Q713 418 706 414Q659 389 613 414Q606 418 598.5 415.5Q591 413 588 406Q585 399 587.0 392.0Q589 385 596 381Q626 366 659 366Z" fill="#000000" />
<path d="M477 356Q496 356 496 374Q496 393 477 393Q443 393 431 449Q422 491 422 613Q422 713 477 777Q541 851 661 851Q780 851 844 777Q899 713 899 613Q899 491 890 449Q878 393 844 393Q826 393 826 374Q826 356 844 356Q908 356 926 441Q936 487 936 613Q936 726 871 801Q797 888 661 888Q524 888 450 801Q386 726 386 613Q386 487 395 441Q413 356 477 356Z" fill="#000000" />
<path d="M439 521Q439 395 502 319Q564 246 659 246Q753 246 815 319Q880 395 880 521Q881 572 860 620Q859 623 856 626Q802 680 729 771Q718 785 704 774Q693 766 671 749Q563 664 474 649Q471 649 469 648Q468 647 466 646Q466 646 465 645Q465 645 464 645Q464 645 464 644Q464 644 464 644Q464 644 464 644Q463 644 463 643Q462 642 461 641Q460 639 458 636Q453 628 449 616Q439 581 439 521ZM476 521Q476 576 484 605Q486 611 488 614Q582 633 694 720Q704 728 712 734Q777 653 828 602Q844 563 843 521Q843 409 787 343Q736 283 659 283Q581 283 530 343Q476 408 476 521ZM463 617Q458 622 458 631Q458 629 459 628Q460 621 463 617Z" fill="#000000" />
</g></svg>