<svg xmlns="http://www.w3.org/2000/svg" viewBox="0 0 2048 2048">
<g transform="matrix(1 0 0 -1 0 2048)">
<path d="M549.3130493164062 768.0086059570312Q549.3130493164062 779.29638671875 545.0265502929688 789.2982177734375Q540.7400512695312 799.300048828125 533.167236328125 806.8728637695312Q525.5944213867188 814.4456787109375 515.6640319824219 818.732177734375Q505.733642578125 823.0186767578125 494.302978515625 823.0186767578125Q482.872314453125 823.0186767578125 472.9419250488281 818.732177734375Q463.01153564453125 814.4456787109375 455.438720703125 806.8728637695312Q447.86590576171875 799.300048828125 443.57940673828125 789.2982177734375Q439.29290771484375 779.29638671875 439.29290771484375 768.0086059570312Q439.29290771484375 756.5779418945312 443.57940673828125 746.5761108398438Q447.86590576171875 736.5742797851562 455.438720703125 729.00146484375Q463.01153564453125 721.4286499023438 472.9419250488281 717.2135925292969Q482.872314453125 712.99853515625 494.302978515625 712.99853515625Q505.733642578125 712.99853515625 515.6640319824219 717.2135925292969Q525.5944213867188 721.4286499023438 533.167236328125 729.00146484375Q540.7400512695312 736.5742797851562 545.0265502929688 746.5761108398438Q549.3130493164062 756.5779418945312 549.3130493164062 768.0086059570312Z" fill="#fadcbc" />
<path d="M733 605Q733 605 728.5 610.5Q724 616 720.0 623.5Q716 631 718.0 636.5Q720 642 733 642Q825 642 873.0 642.0Q921 642 941.5 642.0Q962 642 972 642Q999 642 1010.5 655.5Q1022 669 1024.5 683.0Q1027 697 1027 697H752H678L477 605Q477 605 462.0 582.5Q447 560 423.5 524.0Q400 488 373.5 447.5Q347 407 322.5 370.0Q298 333 282.5 308.5Q267 284 265 280Q265 280 273.5 273.5Q282 267 295.5 269.0Q309 271 324 296Q372 378 405.0 425.5Q438 473 457.5 496.0Q477 519 486.0 525.5Q495 532 495 532H513L541 513L565 440L424 396L348 183L422 165L523 321L622 323L633 318L623 37L697 16L738 264L811 329Q811 329 801.0 354.0Q791 379 775.5 423.0Q760 467 741.5 523.5Q723 580 706 642Z" fill="#fadcbc" />
<path d="M568 768Q568 842 494 842Q464 842 443 820Q421 799 421 768Q421 738 443 716Q464 695 494 695Q568 695 568 768ZM531 768Q531 732 494 732Q458 732 458 768Q458 805 494 805Q531 805 531 768Z" fill="#000000" />
<path d="M259 302Q255 294 256 288Q258 282 266 277Q282 268 291 284L410 493Q454 569 506 606Q558 644 611 661Q663 678 752 678H1008Q1027 678 1027 697Q1027 715 1008 715H752Q657 715 599 696Q542 677 484 636Q426 595 379 512Z" fill="#000000" />
<path d="M723 631Q715 648 698 640Q690 636 688 630Q685 624 689 616L756 468Q781 411 784 383Q788 354 769 331L747 304Q721 271 714 231L685 55Q684 48 679 45Q674 42 667 44H664Q642 50 643 73L650 281Q651 331 634 338Q625 341 585 340H559Q513 339 487 300L426 206Q413 186 391 192H388Q382 194 379 200Q376 205 378 212L429 355Q438 381 464 389L535 412Q557 418 568 439Q578 459 571 481L570 484Q556 525 537 538L524 547Q508 557 498 542Q488 527 503 516L517 507Q525 502 535 473L536 469Q538 462 535 455Q532 449 524 447L453 424Q410 411 394 367L343 224Q336 202 346 182Q357 162 380 157L382 156Q430 144 457 186L518 280Q533 303 560 303L585 304Q604 304 613 304Q614 295 613 282L606 74Q605 23 654 9L657 8Q679 2 698 14Q718 26 721 49L750 225Q756 256 776 281L798 308Q826 343 821 387Q817 421 789 483Z" fill="#000000" />
<path d="M825 -147Q843 -147 843 -128Q843 -110 825 -110H807Q793 -110 750 -85L240 208Q197 233 191 247L181 265Q173 281 157 273Q149 269 147 263Q145 257 149 248L158 230Q169 207 222 177L732 -117Q783 -147 807 -147Z" fill="#000000" />
</g></svg>