<svg xmlns="http://www.w3.org/2000/svg" viewBox="0 0 2048 2048">
<g transform="matrix(1 0 0 -1 0 2048)">
<path d="M91.5877685546875 733.1798706054688V36.51513671875H1228.2723388671875V733.1798706054688Z" fill="#d22f27" />
<path d="M92.3377685546875 733.4402465820312V348.41455078125H679.0223388671875V733.4402465820312Z" fill="#1e50a0" />
<path d="M367.605712890625 603.43896484375 427.549560546875 648.816162109375 354.234130859375 648.7490234375 412.927978515625 603.48046875 390.19970703125 676.775146484375Z" fill="#ffffff" />
<path d="M359 606Q358 602 361 598Q366 591 374 596L391 609L408 596Q412 593 416 595Q425 597 422 606L415 628L433 641Q437 644 437 649Q437 658 427 658H406L400 679Q398 684 393 685Q385 688 382 679L375 658H354Q350 658 347 654Q341 647 349 641L366 628ZM391 632 387 635 389 640H393L394 635Z" fill="#ffffff" />
<path d="M367.605712890625 385.43896484375 427.549560546875 430.816162109375 354.234130859375 430.7490234375 412.927978515625 385.48046875 390.19970703125 458.775146484375Z" fill="#ffffff" />
<path d="M359 388Q358 384 361 380Q366 373 374 378L391 391L408 378Q412 375 416 377Q425 380 422 388L415 410L433 424Q437 426 437 431Q437 440 427 440H406L400 462Q398 466 393 468Q385 470 382 462L375 440H354Q350 440 347 436Q344 433 344 430Q345 426 349 424L366 410ZM391 414 387 417 389 422H393L394 417Z" fill="#ffffff" />
<path d="M486.605712890625 541.43896484375 546.549560546875 586.816162109375 473.234130859375 586.7490234375 531.927978515625 541.48046875 509.19970703125 614.775146484375Z" fill="#ffffff" />
<path d="M478 544Q477 540 480 536Q485 529 493 534L510 547L527 534Q531 531 535 533Q544 535 541 544L534 566L552 579Q556 582 556 587Q556 596 546 596H525L519 617Q517 622 512 623Q504 626 501 617L494 596H473Q469 596 466 592Q460 585 468 579L485 566ZM510 570 506 573 508 578H512L513 573Z" fill="#ffffff" />
<path d="M248.605712890625 541.43896484375 308.549560546875 586.816162109375 235.234130859375 586.7490234375 293.927978515625 541.48046875 271.19970703125 614.775146484375Z" fill="#ffffff" />
<path d="M240 544Q239 540 242 536Q244 532 248 532Q251 531 255 534L272 547L289 534Q293 531 297 533Q306 535 303 544L296 566L314 579Q317 582 317 587Q317 596 308 596H287L280 617Q279 622 274 623Q266 626 263 617L256 596H235Q230 596 228 592Q222 585 229 579L247 566ZM272 570 268 573 270 578H273L275 573Z" fill="#ffffff" />
<path d="M462.4595947265625 495.1905517578125Q462.4595947265625 497.076904296875 461.7498779296875 498.7391357421875Q461.0401611328125 500.4013671875 459.788818359375 501.6527099609375Q458.5374755859375 502.904052734375 456.875244140625 503.61376953125Q455.2130126953125 504.323486328125 453.32666015625 504.323486328125Q451.4403076171875 504.323486328125 449.778076171875 503.61376953125Q448.1158447265625 502.904052734375 446.864501953125 501.6527099609375Q445.6131591796875 500.4013671875 444.9034423828125 498.7391357421875Q444.1937255859375 497.076904296875 444.1937255859375 495.1905517578125Q444.1937255859375 493.30419921875 444.9034423828125 491.6419677734375Q445.6131591796875 489.979736328125 446.864501953125 488.7283935546875Q448.1158447265625 487.47705078125 449.778076171875 486.767333984375Q451.4403076171875 486.0576171875 453.32666015625 486.0576171875Q455.2130126953125 486.0576171875 456.875244140625 486.767333984375Q458.5374755859375 487.47705078125 459.788818359375 488.7283935546875Q461.0401611328125 489.979736328125 461.7498779296875 491.6419677734375Q462.4595947265625 493.30419921875 462.4595947265625 495.1905517578125Z" fill="#ffffff" />
<path d="M73 37Q73 18 92 18H1228Q1247 18 1247 37V733Q1247 752 1228 752H92Q73 752 73 733ZM110 715H1210V55H110Z" fill="#000000" />
</g></svg>