<svg xmlns="http://www.w3.org/2000/svg" viewBox="0 0 2048 2048">
<g transform="matrix(1 0 0 -1 0 2048)">
<path d="M91.5877685546875 733.1798706054688V36.51513671875H1228.2723388671875V733.1798706054688Z" fill="#d22f27" />
<path d="M91.5877685546875 733.1392211914062V494.77978515625H1228.2723388671875V733.1392211914062Z" fill="#f1b31c" />
<path d="M91.5877685546875 495.00164794921875V274.94873046875H1228.2723388671875V495.00164794921875Z" fill="#1e50a0" />
<path d="M642.0594482421875 440.4281005859375Q642.0594482421875 444.213134765625 640.6353759765625 447.5484619140625Q639.2113037109375 450.8837890625 636.700439453125 453.3946533203125Q634.1895751953125 455.905517578125 630.854248046875 457.32958984375Q627.5189208984375 458.753662109375 623.73388671875 458.753662109375Q619.9488525390625 458.753662109375 616.613525390625 457.32958984375Q613.2781982421875 455.905517578125 610.767333984375 453.3946533203125Q608.2564697265625 450.8837890625 606.8323974609375 447.5484619140625Q605.4083251953125 444.213134765625 605.4083251953125 440.4281005859375Q605.4083251953125 436.64306640625 606.8323974609375 433.3077392578125Q608.2564697265625 429.972412109375 610.767333984375 427.4615478515625Q613.2781982421875 424.95068359375 616.613525390625 423.526611328125Q619.9488525390625 422.1025390625 623.73388671875 422.1025390625Q627.5189208984375 422.1025390625 630.854248046875 423.526611328125Q634.1895751953125 424.95068359375 636.700439453125 427.4615478515625Q639.2113037109375 429.972412109375 640.6353759765625 433.3077392578125Q642.0594482421875 436.64306640625 642.0594482421875 440.4281005859375Z" fill="#ffffff" />
<path d="M715.0594482421875 440.4281005859375Q715.0594482421875 444.213134765625 713.6353759765625 447.5484619140625Q712.2113037109375 450.8837890625 709.700439453125 453.3946533203125Q707.1895751953125 455.905517578125 703.854248046875 457.32958984375Q700.5189208984375 458.753662109375 696.73388671875 458.753662109375Q692.9488525390625 458.753662109375 689.613525390625 457.32958984375Q686.2781982421875 455.905517578125 683.767333984375 453.3946533203125Q681.2564697265625 450.8837890625 679.8323974609375 447.5484619140625Q678.4083251953125 444.213134765625 678.4083251953125 440.4281005859375Q678.4083251953125 436.64306640625 679.8323974609375 433.3077392578125Q681.2564697265625 429.972412109375 683.767333984375 427.4615478515625Q686.2781982421875 424.95068359375 689.613525390625 423.526611328125Q692.9488525390625 422.1025390625 696.73388671875 422.1025390625Q700.5189208984375 422.1025390625 703.854248046875 423.526611328125Q707.1895751953125 424.95068359375 709.700439453125 427.4615478515625Q712.2113037109375 429.972412109375 713.6353759765625 433.3077392578125Q715.0594482421875 436.64306640625 715.0594482421875 440.4281005859375Z" fill="#ffffff" />
<path d="M568.0594482421875 421.4281005859375Q568.0594482421875 425.213134765625 566.6353759765625 428.5484619140625Q565.2113037109375 431.8837890625 562.700439453125 434.3946533203125Q560.1895751953125 436.905517578125 556.854248046875 438.32958984375Q553.5189208984375 439.753662109375 549.73388671875 439.753662109375Q545.9488525390625 439.753662109375 542.613525390625 438.32958984375Q539.2781982421875 436.905517578125 536.767333984375 434.3946533203125Q534.2564697265625 431.8837890625 532.8323974609375 428.5484619140625Q531.4083251953125 425.213134765625 531.4083251953125 421.4281005859375Q531.4083251953125 417.64306640625 532.8323974609375 414.3077392578125Q534.2564697265625 410.972412109375 536.767333984375 408.4615478515625Q539.2781982421875 405.95068359375 542.613525390625 404.526611328125Q545.9488525390625 403.1025390625 549.73388671875 403.1025390625Q553.5189208984375 403.1025390625 556.854248046875 404.526611328125Q560.1895751953125 405.95068359375 562.700439453125 408.4615478515625Q565.2113037109375 410.972412109375 566.6353759765625 414.3077392578125Q568.0594482421875 417.64306640625 568.0594482421875 421.4281005859375Z" fill="#ffffff" />
<path d="M513.0594482421875 385.4281005859375Q513.0594482421875 389.213134765625 511.6353759765625 392.5484619140625Q510.2113037109375 395.8837890625 507.700439453125 398.3946533203125Q505.1895751953125 400.905517578125 501.854248046875 402.32958984375Q498.5189208984375 403.753662109375 494.73388671875 403.753662109375Q490.9488525390625 403.753662109375 487.613525390625 402.32958984375Q484.2781982421875 400.905517578125 481.767333984375 398.3946533203125Q479.2564697265625 395.8837890625 477.8323974609375 392.5484619140625Q476.4083251953125 389.213134765625 476.4083251953125 385.4281005859375Q476.4083251953125 381.64306640625 477.8323974609375 378.3077392578125Q479.2564697265625 374.972412109375 481.767333984375 372.4615478515625Q484.2781982421875 369.95068359375 487.613525390625 368.526611328125Q490.9488525390625 367.1025390625 494.73388671875 367.1025390625Q498.5189208984375 367.1025390625 501.854248046875 368.526611328125Q505.1895751953125 369.95068359375 507.700439453125 372.4615478515625Q510.2113037109375 374.972412109375 511.6353759765625 378.3077392578125Q513.0594482421875 381.64306640625 513.0594482421875 385.4281005859375Z" fill="#ffffff" />
<path d="M477.0594482421875 330.4281005859375Q477.0594482421875 334.213134765625 475.6353759765625 337.5484619140625Q474.2113037109375 340.8837890625 471.700439453125 343.3946533203125Q469.1895751953125 345.905517578125 465.854248046875 347.32958984375Q462.5189208984375 348.753662109375 458.73388671875 348.753662109375Q454.9488525390625 348.753662109375 451.613525390625 347.32958984375Q448.2781982421875 345.905517578125 445.767333984375 343.3946533203125Q443.2564697265625 340.8837890625 441.8323974609375 337.5484619140625Q440.4083251953125 334.213134765625 440.4083251953125 330.4281005859375Q440.4083251953125 326.64306640625 441.8323974609375 323.3077392578125Q443.2564697265625 319.972412109375 445.767333984375 317.4615478515625Q448.2781982421875 314.95068359375 451.613525390625 313.526611328125Q454.9488525390625 312.1025390625 458.73388671875 312.1025390625Q462.5189208984375 312.1025390625 465.854248046875 313.526611328125Q469.1895751953125 314.95068359375 471.700439453125 317.4615478515625Q474.2113037109375 319.972412109375 475.6353759765625 323.3077392578125Q477.0594482421875 326.64306640625 477.0594482421875 330.4281005859375Z" fill="#ffffff" />
<path d="M788.0594482421875 421.4281005859375Q788.0594482421875 425.213134765625 786.6353759765625 428.5484619140625Q785.2113037109375 431.8837890625 782.700439453125 434.3946533203125Q780.1895751953125 436.905517578125 776.854248046875 438.32958984375Q773.5189208984375 439.753662109375 769.73388671875 439.753662109375Q765.9488525390625 439.753662109375 762.613525390625 438.32958984375Q759.2781982421875 436.905517578125 756.767333984375 434.3946533203125Q754.2564697265625 431.8837890625 752.8323974609375 428.5484619140625Q751.4083251953125 425.213134765625 751.4083251953125 421.4281005859375Q751.4083251953125 417.64306640625 752.8323974609375 414.3077392578125Q754.2564697265625 410.972412109375 756.767333984375 408.4615478515625Q759.2781982421875 405.95068359375 762.613525390625 404.526611328125Q765.9488525390625 403.1025390625 769.73388671875 403.1025390625Q773.5189208984375 403.1025390625 776.854248046875 404.526611328125Q780.1895751953125 405.95068359375 782.700439453125 408.4615478515625Q785.2113037109375 410.972412109375 786.6353759765625 414.3077392578125Q788.0594482421875 417.64306640625 788.0594482421875 421.4281005859375Z" fill="#ffffff" />
<path d="M843.0594482421875 385.4281005859375Q843.0594482421875 389.213134765625 841.6353759765625 392.5484619140625Q840.2113037109375 395.8837890625 837.700439453125 398.3946533203125Q835.1895751953125 400.905517578125 831.854248046875 402.32958984375Q828.5189208984375 403.753662109375 824.73388671875 403.753662109375Q820.9488525390625 403.753662109375 817.613525390625 402.32958984375Q814.2781982421875 400.905517578125 811.767333984375 398.3946533203125Q809.2564697265625 395.8837890625 807.8323974609375 392.5484619140625Q806.4083251953125 389.213134765625 806.4083251953125 385.4281005859375Q806.4083251953125 381.64306640625 807.8323974609375 378.3077392578125Q809.2564697265625 374.972412109375 811.767333984375 372.4615478515625Q814.2781982421875 369.95068359375 817.613525390625 368.526611328125Q820.9488525390625 367.1025390625 824.73388671875 367.1025390625Q828.5189208984375 367.1025390625 831.854248046875 368.526611328125Q835.1895751953125 369.95068359375 837.700439453125 372.4615478515625Q840.2113037109375 374.972412109375 841.6353759765625 378.3077392578125Q843.0594482421875 381.64306640625 843.0594482421875 385.4281005859375Z" fill="#ffffff" />
<path d="M880.0594482421875 330.4281005859375Q880.0594482421875 334.213134765625 878.6353759765625 337.5484619140625Q877.2113037109375 340.8837890625 874.700439453125 343.3946533203125Q872.1895751953125 345.905517578125 868.854248046875 347.32958984375Q865.5189208984375 348.753662109375 861.73388671875 348.753662109375Q857.9488525390625 348.753662109375 854.613525390625 347.32958984375Q851.2781982421875 345.905517578125 848.767333984375 343.3946533203125Q846.2564697265625 340.8837890625 844.8323974609375 337.5484619140625Q843.4083251953125 334.213134765625 843.4083251953125 330.4281005859375Q843.4083251953125 326.64306640625 844.8323974609375 323.3077392578125Q846.2564697265625 319.972412109375 848.767333984375 317.4615478515625Q851.2781982421875 314.95068359375 854.613525390625 313.526611328125Q857.9488525390625 312.1025390625 861.73388671875 312.1025390625Q865.5189208984375 312.1025390625 868.854248046875 313.526611328125Q872.1895751953125 314.95068359375 874.700439453125 317.4615478515625Q877.2113037109375 319.972412109375 878.6353759765625 323.3077392578125Q880.0594482421875 326.64306640625 880.0594482421875 330.4281005859375Z" fill="#ffffff" />
<path d="M73 37Q73 18 92 18H1228Q1247 18 1247 37V733Q1247 752 1228 752H92Q73 752 73 733ZM110 715H1210V55H110Z" fill="#000000" />
</g></svg>