<svg xmlns="http://www.w3.org/2000/svg" viewBox="0 0 2048 2048">
<g transform="matrix(1 0 0 -1 0 2048)">
<path d="M91.5877685546875 733.1798706054688V36.51513671875H1228.2723388671875V733.1798706054688Z" fill="#1e50a0" />
<path d="M92 403V367H1228V403Z" fill="#f1b31c" />
<path d="M299 222 293 275 288 222 257 265 279 216 230 238 273 207 220 202 273 196 230 165 279 187 257 138 288 181 293 128 299 181 330 138 308 187 357 165 314 196 367 202 314 207 357 238 308 216 330 265Z" fill="#ffffff" />
<path d="M260 235 234 247Q227 250 222 244Q220 240 220 237Q221 234 224 231L248 214L219 211Q212 210 211 203Q210 193 219 193L248 190L224 172Q218 168 221 161Q223 157 226 156Q229 155 234 157L260 169L248 142Q245 135 251 131Q259 125 264 133L281 157L284 127Q285 120 292 119Q302 118 302 127L305 157L323 133Q327 127 334 130Q342 134 338 142L326 169L353 157Q360 154 364 160Q370 167 362 172L338 190L368 193Q375 193 376 201Q377 210 368 211L338 214L362 231Q368 235 365 242Q363 246 360 247Q357 249 353 247L326 235L338 261Q341 268 335 273Q328 278 323 271L305 247L302 276Q302 283 294 284Q285 285 284 276L281 247L264 271Q260 277 253 274Q249 272 248 269Q246 266 248 261ZM299 213Q300 210 304 208Q304 205 306 202Q304 200 304 196Q302 195 300 191Q297 191 294 189Q291 191 287 191Q286 193 283 195Q283 198 281 201Q283 204 282 208Q285 209 287 212Q290 212 293 214Q295 212 299 213Z" fill="#ffffff" />
<path d="M73 37Q73 18 92 18H1228Q1247 18 1247 37V733Q1247 752 1228 752H92Q73 752 73 733ZM110 715H1210V55H110Z" fill="#000000" />
</g></svg>