<svg xmlns="http://www.w3.org/2000/svg" viewBox="0 0 2048 2048">
<g transform="matrix(1 0 0 -1 0 2048)">
<path d="M91.5877685546875 733.1798706054688V36.51513671875H1228.2723388671875V733.1798706054688Z" fill="#ffffff" />
<path d="M91.5877685546875 733.1392211914062V494.77978515625H1228.2723388671875V733.1392211914062Z" fill="#61b2e4" />
<path d="M91.5877685546875 275.13922119140625V36.77978515625H1228.2723388671875V275.13922119140625Z" fill="#61b2e4" />
<path d="M687.5891723632812 384.64215087890625Q687.5891723632812 390.3197021484375 685.4530639648438 395.32269287109375Q683.3169555664062 400.32568359375 679.5506591796875 404.09197998046875Q675.7843627929688 407.8582763671875 670.7813720703125 409.994384765625Q665.7783813476562 412.1304931640625 660.100830078125 412.1304931640625Q654.4232788085938 412.1304931640625 649.4202880859375 409.994384765625Q644.4172973632812 407.8582763671875 640.6510009765625 404.09197998046875Q636.8847045898438 400.32568359375 634.7485961914062 395.32269287109375Q632.6124877929688 390.3197021484375 632.6124877929688 384.64215087890625Q632.6124877929688 378.964599609375 634.7485961914062 373.96160888671875Q636.8847045898438 368.9586181640625 640.6510009765625 365.19232177734375Q644.4172973632812 361.426025390625 649.4202880859375 359.2899169921875Q654.4232788085938 357.15380859375 660.100830078125 357.15380859375Q665.7783813476562 357.15380859375 670.7813720703125 359.2899169921875Q675.7843627929688 361.426025390625 679.5506591796875 365.19232177734375Q683.3169555664062 368.9586181640625 685.4530639648438 373.96160888671875Q687.5891723632812 378.964599609375 687.5891723632812 384.64215087890625Z" fill="#61b2e4" />
<path d="M815.5891723632812 329.64215087890625Q815.5891723632812 335.3197021484375 813.4530639648438 340.32269287109375Q811.3169555664062 345.32568359375 807.5506591796875 349.09197998046875Q803.7843627929688 352.8582763671875 798.7813720703125 354.994384765625Q793.7783813476562 357.1304931640625 788.100830078125 357.1304931640625Q782.4232788085938 357.1304931640625 777.4202880859375 354.994384765625Q772.4172973632812 352.8582763671875 768.6510009765625 349.09197998046875Q764.8847045898438 345.32568359375 762.7485961914062 340.32269287109375Q760.6124877929688 335.3197021484375 760.6124877929688 329.64215087890625Q760.6124877929688 323.964599609375 762.7485961914062 318.96160888671875Q764.8847045898438 313.9586181640625 768.6510009765625 310.19232177734375Q772.4172973632812 306.426025390625 777.4202880859375 304.2899169921875Q782.4232788085938 302.15380859375 788.100830078125 302.15380859375Q793.7783813476562 302.15380859375 798.7813720703125 304.2899169921875Q803.7843627929688 306.426025390625 807.5506591796875 310.19232177734375Q811.3169555664062 313.9586181640625 813.4530639648438 318.96160888671875Q815.5891723632812 323.964599609375 815.5891723632812 329.64215087890625Z" fill="#61b2e4" />
<path d="M815.5891723632812 439.64215087890625Q815.5891723632812 445.3197021484375 813.4530639648438 450.32269287109375Q811.3169555664062 455.32568359375 807.5506591796875 459.09197998046875Q803.7843627929688 462.8582763671875 798.7813720703125 464.994384765625Q793.7783813476562 467.1304931640625 788.100830078125 467.1304931640625Q782.4232788085938 467.1304931640625 777.4202880859375 464.994384765625Q772.4172973632812 462.8582763671875 768.6510009765625 459.09197998046875Q764.8847045898438 455.32568359375 762.7485961914062 450.32269287109375Q760.6124877929688 445.3197021484375 760.6124877929688 439.64215087890625Q760.6124877929688 433.964599609375 762.7485961914062 428.96160888671875Q764.8847045898438 423.9586181640625 768.6510009765625 420.19232177734375Q772.4172973632812 416.426025390625 777.4202880859375 414.2899169921875Q782.4232788085938 412.15380859375 788.100830078125 412.15380859375Q793.7783813476562 412.15380859375 798.7813720703125 414.2899169921875Q803.7843627929688 416.426025390625 807.5506591796875 420.19232177734375Q811.3169555664062 423.9586181640625 813.4530639648438 428.96160888671875Q815.5891723632812 433.964599609375 815.5891723632812 439.64215087890625Z" fill="#61b2e4" />
<path d="M559.5891723632812 329.64215087890625Q559.5891723632812 335.3197021484375 557.4530639648438 340.32269287109375Q555.3169555664062 345.32568359375 551.5506591796875 349.09197998046875Q547.7843627929688 352.8582763671875 542.7813720703125 354.994384765625Q537.7783813476562 357.1304931640625 532.100830078125 357.1304931640625Q526.4232788085938 357.1304931640625 521.4202880859375 354.994384765625Q516.4172973632812 352.8582763671875 512.6510009765625 349.09197998046875Q508.88470458984375 345.32568359375 506.74859619140625 340.32269287109375Q504.61248779296875 335.3197021484375 504.61248779296875 329.64215087890625Q504.61248779296875 323.964599609375 506.74859619140625 318.96160888671875Q508.88470458984375 313.9586181640625 512.6510009765625 310.19232177734375Q516.4172973632812 306.426025390625 521.4202880859375 304.2899169921875Q526.4232788085938 302.15380859375 532.100830078125 302.15380859375Q537.7783813476562 302.15380859375 542.7813720703125 304.2899169921875Q547.7843627929688 306.426025390625 551.5506591796875 310.19232177734375Q555.3169555664062 313.9586181640625 557.4530639648438 318.96160888671875Q559.5891723632812 323.964599609375 559.5891723632812 329.64215087890625Z" fill="#61b2e4" />
<path d="M559.5891723632812 439.64215087890625Q559.5891723632812 445.3197021484375 557.4530639648438 450.32269287109375Q555.3169555664062 455.32568359375 551.5506591796875 459.09197998046875Q547.7843627929688 462.8582763671875 542.7813720703125 464.994384765625Q537.7783813476562 467.1304931640625 532.100830078125 467.1304931640625Q526.4232788085938 467.1304931640625 521.4202880859375 464.994384765625Q516.4172973632812 462.8582763671875 512.6510009765625 459.09197998046875Q508.88470458984375 455.32568359375 506.74859619140625 450.32269287109375Q504.61248779296875 445.3197021484375 504.61248779296875 439.64215087890625Q504.61248779296875 433.964599609375 506.74859619140625 428.96160888671875Q508.88470458984375 423.9586181640625 512.6510009765625 420.19232177734375Q516.4172973632812 416.426025390625 521.4202880859375 414.2899169921875Q526.4232788085938 412.15380859375 532.100830078125 412.15380859375Q537.7783813476562 412.15380859375 542.7813720703125 414.2899169921875Q547.7843627929688 416.426025390625 551.5506591796875 420.19232177734375Q555.3169555664062 423.9586181640625 557.4530639648438 428.96160888671875Q559.5891723632812 433.964599609375 559.5891723632812 439.64215087890625Z" fill="#61b2e4" />
<path d="M73 37Q73 18 92 18H1228Q1247 18 1247 37V733Q1247 752 1228 752H92Q73 752 73 733ZM110 715H1210V55H110Z" fill="#000000" />
</g></svg>