<svg xmlns="http://www.w3.org/2000/svg" viewBox="0 0 2048 2048">
<g transform="matrix(1 0 0 -1 0 2048)">
<path d="M91.5877685546875 733.1798706054688V36.51513671875H1228.2723388671875V733.1798706054688Z" fill="#ffffff" />
<path d="M449 337Q448 335 449 334L453 328Q454 327 455 327Q470 334 477.0 348.5Q484 363 481 379Q480 384 477 380Q473 375 466 375Q464 375 465 373Q460 353 449 337Z" fill="#3f3f3f" />
<path d="M386 353Q361 380 336.5 392.0Q312 404 302 395Q292 385 302.5 360.0Q313 335 338 308Q363 282 387.5 270.0Q412 258 422 267Q432 276 421.5 301.5Q411 327 386 353Z" fill="#5c9e31" />
<path d="M334 387Q321 400 308 388Q294 375 307 362L531 129Q544 116 557 129Q570 142 557 155Z" fill="#5c9e31" />
<path d="M1002 318Q1010 324 1004 331Q998 338 991 332L779 160Q771 154 777 147Q783 140 790 145Z" fill="#61b2e4" />
<path d="M986 369Q991 376 983 381Q975 386 971 378L805 116Q800 108 808 103Q815 98 820 106Z" fill="#61b2e4" />
<path d="M950 390Q953 399 944 402Q935 404 933 396L841 94Q838 86 847 83Q856 80 858 89Z" fill="#61b2e4" />
<path d="M1097 636Q1104 629 1105 620Q1105 611 1100 603Q1096 593 1075.0 572.5Q1054 552 1023.0 526.5Q992 501 958.5 476.0Q925 451 896 431Q879 418 865 402Q857 393 846 390Q831 387 819 378Q812 373 805.0 367.0Q798 361 791 355Q794 353 804.0 346.0Q814 339 821.0 326.0Q828 313 821 294Q816 279 821.5 273.0Q827 267 836.5 266.0Q846 265 853 266Q872 272 884 256Q896 240 885 224Q873 207 854 214Q835 220 835 240Q822 265 794 267Q783 267 775 275Q767 283 767 294Q756 305 741 308L730 297L769 259Q776 251 776 240Q776 229 769 221L692 145Q684 137 673 137Q660 136 651 145L574 221Q566 229 566 240Q566 251 574 259L612 297L602 308Q586 305 575 294Q575 283 567 275Q559 267 548 267Q520 265 508 240Q508 221 489 215Q471 208 459 224Q448 240 459 256Q471 272 489 266Q497 265 506.5 266.0Q516 267 521.0 273.0Q526 279 521 294Q515 313 522.0 326.0Q529 339 539.0 346.0Q549 353 552 355Q535 369 524 378Q512 387 497 390Q486 393 478 402Q464 418 447 431Q418 451 384.5 476.0Q351 501 320.0 526.5Q289 552 267.5 572.5Q246 593 242 603Q238 611 238 620Q239 629 246 636Q259 652 277 642Q299 633 333.5 622.5Q368 612 405.0 601.0Q442 590 472.5 580.0Q503 570 516 563Q533 556 535 537Q535 522 522 514V513Q569 503 609 530L626 548Q630 552 633 557Q647 580 646.0 592.5Q645 605 636.5 609.0Q628 613 617.5 611.5Q607 610 602 605Q595 598 601.5 608.5Q608 619 625.5 632.0Q643 645 670 645Q673 645 676 644Q692 642 701.0 628.5Q710 615 714.5 597.0Q719 579 722.5 561.5Q726 544 730 534L734 530Q774 503 821 513V514Q808 522 808 537Q809 556 827 563Q840 570 870.5 580.0Q901 590 938.0 601.0Q975 612 1009.5 622.5Q1044 633 1066 642Q1084 652 1097 636Z" fill="#fcea2b" />
<path d="M1109 647Q1088 673 1058 657Q1032 646 946 621Q842 589 819 578Q794 567 792 538Q791 538 791 537Q792 532 792 527Q767 528 745 543H744Q742 550 738 569Q721 653 679 661Q674 662 670 662Q629 662 599 631Q589 621 585 612Q583 609 583 606Q580 592 593 587Q604 583 614 593Q620 599 628 594Q629 594 629 592Q629 583 619 565Q617 562 614 559L598 543Q576 528 550 527Q551 532 551 537Q551 538 551 538Q549 567 523 578Q501 589 396 621Q311 646 284 657Q255 673 234 647Q223 637 221 622Q221 621 221 620Q222 607 228 596Q246 553 437 417Q453 406 465 391Q477 379 492 374Q493 374 493 374Q504 371 514 365Q519 361 524 357Q492 330 506 289Q508 283 507 283Q503 281 493 282Q464 291 446 266Q427 240 446 215Q464 189 494 199Q522 208 524 236Q532 249 549 251Q550 251 551 251Q550 246 550 240Q550 222 562 210L639 133Q653 119 673 121Q691 120 704 133L780 210Q793 222 793 240Q793 246 792 251Q793 251 794 251Q810 249 819 236Q820 207 849 198Q879 188 898 214Q917 240 898 266Q879 291 850 282Q840 281 835 283Q835 283 837 289Q851 330 818 357Q824 361 828 365Q838 371 850 374Q850 374 850 374Q866 379 877 391Q890 406 906 417Q1097 553 1115 596Q1121 607 1121 620Q1121 621 1121 622Q1119 637 1109 647ZM1084 626Q1085 624 1086 623Q1088 622 1088 619Q1088 615 1086 611Q1085 610 1085 609Q1072 576 886 444Q868 430 853 413Q848 408 842 406Q824 402 809 391Q809 391 809 391Q797 382 780 367Q777 365 776 362Q769 347 783 340Q814 325 806 299Q803 290 803 283Q799 283 796 284Q795 284 794 284Q790 284 787 287Q784 290 784 294Q784 301 779 306Q764 321 743 324Q735 325 729 319L719 309Q707 297 719 286L757 247Q760 244 760 240Q760 236 757 233L680 156Q677 153 673 153Q672 154 671 153Q666 153 662 156L586 233Q583 236 583 240Q583 244 586 247L624 286Q636 297 624 309L614 319Q608 325 600 324Q579 321 563 306Q559 301 559 294Q559 290 556 287Q553 284 549 284Q548 284 547 284Q543 283 540 283Q540 290 537 299Q528 325 559 340Q562 341 564 344Q570 350 569 356Q569 362 563 367Q546 382 534 391Q534 391 533 391Q519 402 501 406Q495 408 490 413Q475 430 456 444Q271 576 258 609Q258 610 257 611Q255 615 254 619Q255 622 257 623Q258 624 259 626Q263 631 269 628Q270 627 271 627Q298 616 387 589Q490 558 508 548Q509 548 510 547Q517 544 518 537Q518 531 513 528Q504 523 506 512V511Q507 499 519 497Q572 486 618 516Q619 517 620 518L638 536Q639 537 639 538Q643 543 647 548Q662 574 662 592Q662 613 644 623Q644 623 644 623Q656 629 670 629Q671 629 672 628Q672 628 673 628Q693 625 706 562Q711 537 715 528Q716 525 718 522L722 518Q724 517 725 516Q770 486 824 497Q836 499 837 511V512Q838 523 829 528Q825 531 824 537Q825 544 833 547Q834 548 834 548Q853 558 956 589Q1045 616 1072 627Q1073 627 1074 628Q1080 631 1084 626ZM849 249Q852 249 856 249Q857 250 859 250Q866 253 871 246Q876 240 871 233Q867 227 859 229Q851 232 851 240Q852 244 850 248Q849 248 849 249ZM494 249Q493 248 493 248Q491 244 491 240Q491 233 484 230Q477 228 472 234Q468 240 472 246Q477 252 484 250Q486 250 487 249Q490 249 494 249Z" fill="#fcea2b" />
<path d="M1148.1435546875 471.8564453125Q1148.15234375 489.84765625 1130.1611328125 489.8388671875Q1112.169921875 489.830078125 1112.1611328125 471.8388671875L1112.08935546875 324.91064453125Q1112.08056640625 306.91943359375 1130.07177734375 306.92822265625Q1148.06298828125 306.93701171875 1148.07177734375 324.92822265625Z" fill="#61b2e4" />
<path d="M171 478Q168 486 162 489Q156 492 148 489Q130 483 136 466L185 324Q188 315 194 312Q199 310 208 313Q225 318 219 336Z" fill="#61b2e4" />
<path d="M275 466Q281 483 264 489Q255 492 249 489Q244 486 241 478L192 336Q186 318 203 313Q212 310 218 312Q224 315 227 324Z" fill="#61b2e4" />
<path d="M505.6568603515625 538.8755493164062V428.98291015625H835.2808837890625V538.8755493164062Z" fill="#1e50a0" />
<path d="M506 420Q505 424 505.0 426.5Q505 429 505 429H835Q835 429 835.0 426.5Q835 424 835 420Q834 405 830 391Q819 328 780.5 277.0Q742 226 685 198Q670 190 655 198Q598 226 560.0 277.0Q522 328 510 391Q506 405 506 420Z" fill="#781e32" />
<path d="M606 429H624V217Q615 223 606 229Z" fill="#ffffff" />
<path d="M551 429H568V266Q559 276 551 288Z" fill="#ffffff" />
<path d="M717 429H733V229Q725 223 717 217Z" fill="#ffffff" />
<path d="M662 429H679V196Q670 194 662 196Z" fill="#ffffff" />
<path d="M771 429H789V287Q781 276 771 265Z" fill="#ffffff" />
<path d="M73 37Q73 18 92 18H1228Q1247 18 1247 37V733Q1247 752 1228 752H92Q73 752 73 733ZM110 715H1210V55H110Z" fill="#000000" />
</g></svg>