<svg xmlns="http://www.w3.org/2000/svg" viewBox="0 0 2048 2048">
<g transform="matrix(1 0 0 -1 0 2048)">
<path d="M91.5877685546875 733.1798706054688V36.51513671875H1228.2723388671875V733.1798706054688Z" fill="#5c9e31" />
<path d="M91.5877685546875 733.1392211914062V494.77978515625H1228.2723388671875V733.1392211914062Z" fill="#000000" />
<path d="M91.5877685546875 495.00164794921875V274.94873046875H1228.2723388671875V495.00164794921875Z" fill="#d22f27" />
<path d="M83 504V266H1238V504ZM101 486H1219V284H101Z" fill="#ffffff" />
<path d="M477 385 92 733V37Z" fill="#1e50a0" />
<path d="M192.0 385.0 284.0 414.0 227.0 340.0V431.0L284.0 357.0Z" fill="#f1b31c" />
<path d="M190 376 218 367V339Q218 330 228 330Q232 330 235 334L253 357L281 348Q286 347 289 348Q292 350 293 354Q294 358 291 362L274 385L291 408Q294 411 294 415Q293 418 290 421Q286 423 281 422L253 413L235 436Q229 444 222 438Q218 435 218 431V403L190 394Q181 391 184 382Q185 378 190 376ZM237 381V389L246 392L251 385L246 378Z" fill="#f1b31c" />
<path d="M73 37Q73 18 92 18H1228Q1247 18 1247 37V733Q1247 752 1228 752H92Q73 752 73 733ZM110 715H1210V55H110Z" fill="#000000" />
</g></svg>