<svg xmlns="http://www.w3.org/2000/svg" viewBox="0 0 2048 2048">
<g transform="matrix(1 0 0 -1 0 2048)">
<path d="M91.5877685546875 733.1798706054688V36.51513671875H1228.2723388671875V733.1798706054688Z" fill="#d22f27" />
<path d="M91.5877685546875 385.114990234375V36.755859375H1228.2723388671875V385.114990234375Z" fill="#1e50a0" />
<path d="M477 385 92 733V37Z" fill="#ffffff" />
<path d="M283.64862060546875 477.07025146484375Q283.64862060546875 486.5328369140625 280.08843994140625 494.87115478515625Q276.52825927734375 503.20947265625 270.2510986328125 509.48663330078125Q263.97393798828125 515.7637939453125 255.6356201171875 519.323974609375Q247.29730224609375 522.8841552734375 237.834716796875 522.8841552734375Q228.37213134765625 522.8841552734375 220.0338134765625 519.323974609375Q211.69549560546875 515.7637939453125 205.4183349609375 509.48663330078125Q199.14117431640625 503.20947265625 195.58099365234375 494.87115478515625Q192.02081298828125 486.5328369140625 192.02081298828125 477.07025146484375Q192.02081298828125 467.607666015625 195.58099365234375 459.26934814453125Q199.14117431640625 450.9310302734375 205.4183349609375 444.65386962890625Q211.69549560546875 438.376708984375 220.0338134765625 434.8165283203125Q228.37213134765625 431.25634765625 237.834716796875 431.25634765625Q247.29730224609375 431.25634765625 255.6356201171875 434.8165283203125Q263.97393798828125 438.376708984375 270.2510986328125 444.65386962890625Q276.52825927734375 450.9310302734375 280.08843994140625 459.26934814453125Q283.64862060546875 467.607666015625 283.64862060546875 477.07025146484375Z" fill="#fcea2b" />
<path d="M293 477Q293 532 238 532Q183 532 183 477Q183 422 238 422Q293 422 293 477ZM275 477Q275 440 238 440Q202 440 202 477Q202 513 238 513Q275 513 275 477Z" fill="#fcea2b" />
<path d="M330 462Q239 491 148 462V378Q148 354 162.0 338.0Q176 322 194.0 312.0Q212 302 225.5 297.5Q239 293 239 293Q239 293 253.0 297.5Q267 302 285.0 312.0Q303 322 316.5 338.0Q330 354 330 378Z" fill="#92d3f5" />
<path d="M339 462Q339 469 333 471Q239 500 145 471Q139 469 139 462V378Q139 307 237 284Q239 284 241 284Q339 307 339 378ZM321 456V378Q321 322 239 303Q157 322 157 378V456Q239 479 321 456Z" fill="#d22f27" />
<path d="M358 330Q358 339 348 339Q339 339 339 330Q339 275 238 275Q138 275 138 330Q138 339 128 339Q119 339 119 330Q119 298 156 277Q190 257 238 257Q286 257 321 277Q358 298 358 330Z" fill="#fcea2b" />
<path d="M202.1622314453125 421.46282958984375V366.48974609375H275.4776611328125V421.46282958984375Z" fill="#ffffff" />
<path d="M183 367Q183 348 202 348H275Q293 348 293 367V422Q293 440 275 440H202Q183 440 183 422ZM220 403H257V385H220Z" fill="#ffffff" />
<path d="M73 37Q73 18 92 18H1228Q1247 18 1247 37V733Q1247 752 1228 752H92Q73 752 73 733ZM110 715H1210V55H110Z" fill="#000000" />
</g></svg>