<svg xmlns="http://www.w3.org/2000/svg" viewBox="0 0 2048 2048">
<g transform="matrix(1 0 0 -1 0 2048)">
<path d="M91.5877685546875 733.1798706054688V36.51513671875H1228.2723388671875V733.1798706054688Z" fill="#186648" />
<path d="M697.1622314453125 733.1798706054688V36.51513671875H770.4776611328125V733.1798706054688Z" fill="#ffffff" />
<path d="M91.5877685546875 421.6505126953125V348.3173828125H1228.2723388671875V421.6505126953125Z" fill="#000000" />
<path d="M91.5877685546875 348.6505126953125V275.3173828125H1228.2723388671875V348.6505126953125Z" fill="#ffffff" />
<path d="M91.5877685546875 494.6505126953125V421.3173828125H1228.2723388671875V494.6505126953125Z" fill="#fcea2b" />
<path d="M623.1622314453125 733.1798706054688V36.51513671875H696.4776611328125V733.1798706054688Z" fill="#000000" />
<path d="M550.1622314453125 733.1798706054688V36.51513671875H623.4776611328125V733.1798706054688Z" fill="#fcea2b" />
<path d="M897.9130859375 384.6123046875Q897.9130859375 433.830078125 879.3955078125 477.2001953125Q860.8779296875 520.5703125 828.228515625 553.2197265625Q795.5791015625 585.869140625 752.208984375 604.38671875Q708.8388671875 622.904296875 659.62109375 622.904296875Q610.4033203125 622.904296875 567.033203125 604.38671875Q523.6630859375 585.869140625 491.013671875 553.2197265625Q458.3642578125 520.5703125 439.8466796875 477.2001953125Q421.3291015625 433.830078125 421.3291015625 384.6123046875Q421.3291015625 335.39453125 439.8466796875 292.0244140625Q458.3642578125 248.654296875 491.013671875 216.0048828125Q523.6630859375 183.35546875 567.033203125 164.837890625Q610.4033203125 146.3203125 659.62109375 146.3203125Q708.8388671875 146.3203125 752.208984375 164.837890625Q795.5791015625 183.35546875 828.228515625 216.0048828125Q860.8779296875 248.654296875 879.3955078125 292.0244140625Q897.9130859375 335.39453125 897.9130859375 384.6123046875Z" fill="#d22f27" />
<path d="M667 404Q667 408 671 408Q675 408 676 405Q687 364 725 347Q727 347 727 345Q728 343 727 342Q726 340 724 340Q722 339 720 340Q677 359 667 404Z" fill="#000000" />
<path d="M711 368Q712 359 709.0 343.0Q706 327 709 319Q687 328 663 326Q647 331 634.0 346.5Q621 362 613.0 376.0Q605 390 605 390Q590 417 591.5 431.5Q593 446 598.5 455.0Q604 464 601 476Q599 487 585.5 488.5Q572 490 559.5 487.5Q547 485 547 485Q550 491 567.0 498.0Q584 505 600.5 509.0Q617 513 617 513Q643 526 657.0 526.0Q671 526 677.0 521.5Q683 517 683 517L711 482Q716 474 717.0 458.5Q718 443 708 437Q699 432 690.0 423.0Q681 414 687 405Q692 395 698.5 387.0Q705 379 710 369Z" fill="#8967aa" />
<path d="M670 305Q683 303 686 316Q689 329 676 332Q663 336 645.5 357.0Q628 378 618 396Q607 416 608.0 422.5Q609 429 613 434Q625 446 622 463Q614 487 588 493Q610 499 633 503Q637 504 639 506Q646 511 655.0 515.5Q664 520 671 517Q680 513 685.5 499.5Q691 486 692 480Q694 467 708 469Q721 471 719 485Q719 487 715.5 499.0Q712 511 704.0 524.0Q696 537 681 543Q649 552 625 530Q582 522 562.0 515.0Q542 508 536.5 502.5Q531 497 530 495Q527 488 531 482Q534 476 541 475Q562 473 578.0 467.5Q594 462 595 458Q596 456 592 452Q584 442 581.0 427.5Q578 413 594 383Q596 379 607.0 362.0Q618 345 634.5 327.5Q651 310 669 305Q669 305 670 305Z" fill="#000000" />
<path d="M661 353Q663 336 674.0 314.5Q685 293 698.0 272.5Q711 252 720.5 239.0Q730 226 730 226Q730 226 731.5 244.0Q733 262 734.0 289.5Q735 317 734.0 346.0Q733 375 729.0 398.5Q725 422 717 431Q702 446 688.0 434.5Q674 423 666.0 399.0Q658 375 661 353Z" fill="#186648" />
<path d="M731 213Q737 212 742 216Q747 219 747 226Q748 237 749.0 267.0Q750 297 748.5 333.0Q747 369 741.0 399.0Q735 429 723 441Q706 460 683 448Q662 438 652.5 406.5Q643 375 647 349Q650 331 661.0 310.0Q672 289 685.5 269.0Q699 249 710.0 235.0Q721 221 723 218Q726 214 731 213ZM674 353Q671 374 678.5 396.5Q686 419 695 424Q697 424 698.5 424.5Q700 425 704 421Q711 415 715.0 391.0Q719 367 720.5 334.0Q722 301 721 265Q706 286 691.5 311.0Q677 336 674 353Z" fill="#000000" />
<path d="M678.0594482421875 586.4281005859375Q678.0594482421875 590.213134765625 676.6353759765625 593.5484619140625Q675.2113037109375 596.8837890625 672.700439453125 599.3946533203125Q670.1895751953125 601.905517578125 666.854248046875 603.32958984375Q663.5189208984375 604.753662109375 659.73388671875 604.753662109375Q655.9488525390625 604.753662109375 652.613525390625 603.32958984375Q649.2781982421875 601.905517578125 646.767333984375 599.3946533203125Q644.2564697265625 596.8837890625 642.8323974609375 593.5484619140625Q641.4083251953125 590.213134765625 641.4083251953125 586.4281005859375Q641.4083251953125 582.64306640625 642.8323974609375 579.3077392578125Q644.2564697265625 575.972412109375 646.767333984375 573.4615478515625Q649.2781982421875 570.95068359375 652.613525390625 569.526611328125Q655.9488525390625 568.1025390625 659.73388671875 568.1025390625Q663.5189208984375 568.1025390625 666.854248046875 569.526611328125Q670.1895751953125 570.95068359375 672.700439453125 573.4615478515625Q675.2113037109375 575.972412109375 676.6353759765625 579.3077392578125Q678.0594482421875 582.64306640625 678.0594482421875 586.4281005859375Z" fill="#186648" />
<path d="M793.24365234375 537.40869140625Q795.462890625 540.46630859375 796.26806640625 543.99560546875Q797.0732421875 547.52490234375 796.51708984375 551.025390625Q795.9609375 554.52587890625 794.1015625 557.6318359375Q792.2421875 560.73779296875 789.1845703125 562.95703125Q786.126953125 565.17626953125 782.59765625 565.9814453125Q779.068359375 566.78662109375 775.56787109375 566.23046875Q772.0673828125 565.67431640625 768.96142578125 563.81494140625Q765.85546875 561.95556640625 763.63623046875 558.89794921875Q761.4169921875 555.84033203125 760.61181640625 552.31103515625Q759.806640625 548.78173828125 760.36279296875 545.28125Q760.9189453125 541.78076171875 762.7783203125 538.6748046875Q764.6376953125 535.56884765625 767.6953125 533.349609375Q770.7529296875 531.13037109375 774.2822265625 530.3251953125Q777.8115234375 529.52001953125 781.31201171875 530.076171875Q784.8125 530.63232421875 787.91845703125 532.49169921875Q791.0244140625 534.35107421875 793.24365234375 537.40869140625Z" fill="#186648" />
<path d="M857.0242309570312 429.57928466796875Q860.6181640625 430.75054931640625 863.3444213867188 433.13482666015625Q866.0706787109375 435.51910400390625 867.6777954101562 438.68017578125Q869.284912109375 441.84124755859375 869.60498046875 445.4488525390625Q869.925048828125 449.05645751953125 868.7537841796875 452.650390625Q867.58251953125 456.24432373046875 865.1982421875 458.9705810546875Q862.81396484375 461.69683837890625 859.6528930664062 463.303955078125Q856.4918212890625 464.91107177734375 852.8842163085938 465.23114013671875Q849.276611328125 465.55120849609375 845.6826782226562 464.37994384765625Q842.0887451171875 463.20867919921875 839.3624877929688 460.82440185546875Q836.63623046875 458.44012451171875 835.0291137695312 455.279052734375Q833.4219970703125 452.11798095703125 833.1019287109375 448.5103759765625Q832.7818603515625 444.90277099609375 833.953125 441.308837890625Q835.1243896484375 437.71490478515625 837.5086669921875 434.9886474609375Q839.8929443359375 432.26239013671875 843.0540161132812 430.6552734375Q846.215087890625 429.04815673828125 849.8226928710938 428.72808837890625Q853.4302978515625 428.40802001953125 857.0242309570312 429.57928466796875Z" fill="#186648" />
<path d="M846.3750610351562 305.64984130859375Q849.968994140625 304.47857666015625 853.5765991210938 304.79864501953125Q857.1842041015625 305.11871337890625 860.3452758789062 306.725830078125Q863.50634765625 308.33294677734375 865.890625 311.0592041015625Q868.27490234375 313.78546142578125 869.4461669921875 317.37939453125Q870.617431640625 320.97332763671875 870.29736328125 324.5809326171875Q869.977294921875 328.18853759765625 868.3701782226562 331.349609375Q866.7630615234375 334.51068115234375 864.0368041992188 336.89495849609375Q861.310546875 339.27923583984375 857.7166137695312 340.45050048828125Q854.1226806640625 341.62176513671875 850.5150756835938 341.30169677734375Q846.907470703125 340.98162841796875 843.7463989257812 339.37451171875Q840.5853271484375 337.76739501953125 838.2010498046875 335.0411376953125Q835.8167724609375 332.31488037109375 834.6455078125 328.720947265625Q833.4742431640625 325.12701416015625 833.7943115234375 321.5194091796875Q834.1143798828125 317.91180419921875 835.7214965820312 314.750732421875Q837.32861328125 311.58966064453125 840.0548706054688 309.20538330078125Q842.7811279296875 306.82110595703125 846.3750610351562 305.64984130859375Z" fill="#186648" />
<path d="M763.67529296875 211.09814453125Q765.89453125 208.04052734375 769.00048828125 206.18115234375Q772.1064453125 204.32177734375 775.60693359375 203.765625Q779.107421875 203.20947265625 782.63671875 204.0146484375Q786.166015625 204.81982421875 789.2236328125 207.0390625Q792.28125 209.25830078125 794.140625 212.3642578125Q796.0 215.47021484375 796.55615234375 218.970703125Q797.1123046875 222.47119140625 796.30712890625 226.00048828125Q795.501953125 229.52978515625 793.28271484375 232.58740234375Q791.0634765625 235.64501953125 787.95751953125 237.50439453125Q784.8515625 239.36376953125 781.35107421875 239.919921875Q777.8505859375 240.47607421875 774.3212890625 239.6708984375Q770.7919921875 238.86572265625 767.734375 236.646484375Q764.6767578125 234.42724609375 762.8173828125 231.3212890625Q760.9580078125 228.21533203125 760.40185546875 224.71484375Q759.845703125 221.21435546875 760.65087890625 217.68505859375Q761.4560546875 214.15576171875 763.67529296875 211.09814453125Z" fill="#186648" />
<path d="M641.9405517578125 183.5718994140625Q641.9405517578125 179.786865234375 643.3646240234375 176.4515380859375Q644.7886962890625 173.1162109375 647.299560546875 170.6053466796875Q649.8104248046875 168.094482421875 653.145751953125 166.67041015625Q656.4810791015625 165.246337890625 660.26611328125 165.246337890625Q664.0511474609375 165.246337890625 667.386474609375 166.67041015625Q670.7218017578125 168.094482421875 673.232666015625 170.6053466796875Q675.7435302734375 173.1162109375 677.1676025390625 176.4515380859375Q678.5916748046875 179.786865234375 678.5916748046875 183.5718994140625Q678.5916748046875 187.35693359375 677.1676025390625 190.6922607421875Q675.7435302734375 194.027587890625 673.232666015625 196.5384521484375Q670.7218017578125 199.04931640625 667.386474609375 200.473388671875Q664.0511474609375 201.8974609375 660.26611328125 201.8974609375Q656.4810791015625 201.8974609375 653.145751953125 200.473388671875Q649.8104248046875 199.04931640625 647.299560546875 196.5384521484375Q644.7886962890625 194.027587890625 643.3646240234375 190.6922607421875Q641.9405517578125 187.35693359375 641.9405517578125 183.5718994140625Z" fill="#186648" />
<path d="M526.75634765625 232.59130859375Q524.537109375 229.53369140625 523.73193359375 226.00439453125Q522.9267578125 222.47509765625 523.48291015625 218.974609375Q524.0390625 215.47412109375 525.8984375 212.3681640625Q527.7578125 209.26220703125 530.8154296875 207.04296875Q533.873046875 204.82373046875 537.40234375 204.0185546875Q540.931640625 203.21337890625 544.43212890625 203.76953125Q547.9326171875 204.32568359375 551.03857421875 206.18505859375Q554.14453125 208.04443359375 556.36376953125 211.10205078125Q558.5830078125 214.15966796875 559.38818359375 217.68896484375Q560.193359375 221.21826171875 559.63720703125 224.71875Q559.0810546875 228.21923828125 557.2216796875 231.3251953125Q555.3623046875 234.43115234375 552.3046875 236.650390625Q549.2470703125 238.86962890625 545.7177734375 239.6748046875Q542.1884765625 240.47998046875 538.68798828125 239.923828125Q535.1875 239.36767578125 532.08154296875 237.50830078125Q528.9755859375 235.64892578125 526.75634765625 232.59130859375Z" fill="#186648" />
<path d="M462.97576904296875 340.42071533203125Q459.3818359375 339.24945068359375 456.65557861328125 336.86517333984375Q453.9293212890625 334.48089599609375 452.32220458984375 331.31982421875Q450.715087890625 328.15875244140625 450.39501953125 324.5511474609375Q450.074951171875 320.94354248046875 451.2462158203125 317.349609375Q452.41748046875 313.75567626953125 454.8017578125 311.0294189453125Q457.18603515625 308.30316162109375 460.34710693359375 306.696044921875Q463.5081787109375 305.08892822265625 467.11578369140625 304.76885986328125Q470.723388671875 304.44879150390625 474.31732177734375 305.62005615234375Q477.9112548828125 306.79132080078125 480.63751220703125 309.17559814453125Q483.36376953125 311.55987548828125 484.97088623046875 314.720947265625Q486.5780029296875 317.88201904296875 486.8980712890625 321.4896240234375Q487.2181396484375 325.09722900390625 486.046875 328.691162109375Q484.8756103515625 332.28509521484375 482.4913330078125 335.0113525390625Q480.1070556640625 337.73760986328125 476.94598388671875 339.3447265625Q473.784912109375 340.95184326171875 470.17730712890625 341.27191162109375Q466.5697021484375 341.59197998046875 462.97576904296875 340.42071533203125Z" fill="#186648" />
<path d="M473.62493896484375 464.35015869140625Q470.031005859375 465.52142333984375 466.42340087890625 465.20135498046875Q462.8157958984375 464.88128662109375 459.65472412109375 463.274169921875Q456.49365234375 461.66705322265625 454.109375 458.9407958984375Q451.72509765625 456.21453857421875 450.5538330078125 452.62060546875Q449.382568359375 449.02667236328125 449.70263671875 445.4190673828125Q450.022705078125 441.81146240234375 451.62982177734375 438.650390625Q453.2369384765625 435.48931884765625 455.96319580078125 433.10504150390625Q458.689453125 430.72076416015625 462.28338623046875 429.54949951171875Q465.8773193359375 428.37823486328125 469.48492431640625 428.69830322265625Q473.092529296875 429.01837158203125 476.25360107421875 430.62548828125Q479.4146728515625 432.23260498046875 481.7989501953125 434.9588623046875Q484.1832275390625 437.68511962890625 485.3544921875 441.279052734375Q486.5257568359375 444.87298583984375 486.2056884765625 448.4805908203125Q485.8856201171875 452.08819580078125 484.27850341796875 455.249267578125Q482.67138671875 458.41033935546875 479.94512939453125 460.79461669921875Q477.2188720703125 463.17889404296875 473.62493896484375 464.35015869140625Z" fill="#186648" />
<path d="M556.32470703125 558.90185546875Q554.10546875 561.95947265625 550.99951171875 563.81884765625Q547.8935546875 565.67822265625 544.39306640625 566.234375Q540.892578125 566.79052734375 537.36328125 565.9853515625Q533.833984375 565.18017578125 530.7763671875 562.9609375Q527.71875 560.74169921875 525.859375 557.6357421875Q524.0 554.52978515625 523.44384765625 551.029296875Q522.8876953125 547.52880859375 523.69287109375 543.99951171875Q524.498046875 540.47021484375 526.71728515625 537.41259765625Q528.9365234375 534.35498046875 532.04248046875 532.49560546875Q535.1484375 530.63623046875 538.64892578125 530.080078125Q542.1494140625 529.52392578125 545.6787109375 530.3291015625Q549.2080078125 531.13427734375 552.265625 533.353515625Q555.3232421875 535.57275390625 557.1826171875 538.6787109375Q559.0419921875 541.78466796875 559.59814453125 545.28515625Q560.154296875 548.78564453125 559.34912109375 552.31494140625Q558.5439453125 555.84423828125 556.32470703125 558.90185546875Z" fill="#186648" />
<path d="M73 37Q73 18 92 18H1228Q1247 18 1247 37V733Q1247 752 1228 752H92Q73 752 73 733ZM110 715H1210V55H110Z" fill="#000000" />
</g></svg>