<svg xmlns="http://www.w3.org/2000/svg" viewBox="0 0 2048 2048">
<g transform="matrix(1 0 0 -1 0 2048)">
<path d="M91.5877685546875 733.1798706054688V36.51513671875H1228.2723388671875V733.1798706054688Z" fill="#000000" />
<path d="M91.5877685546875 495.00164794921875V274.94873046875H1228.2723388671875V495.00164794921875Z" fill="#ffffff" />
<path d="M91.5877685546875 733.1392211914062V494.77978515625H1228.2723388671875V733.1392211914062Z" fill="#d22f27" />
<path d="M605.25 439.97576904296875V329.97607421875H715.25V439.97576904296875Z" fill="#f1b31c" />
<path d="M587 330Q587 312 605 312H715Q733 312 733 330V440Q733 458 715 458H605Q587 458 587 440ZM623 422H697V348H623Z" fill="#f1b31c" />
<path d="M678.0 458.0Q678.0 476.0 660.0 476.0Q642.0 476.0 642.0 458.0V311.0Q642.0 293.0 660.0 293.0Q678.0 293.0 678.0 311.0Z" fill="#ffffff" />
<path d="M73 37Q73 18 92 18H1228Q1247 18 1247 37V733Q1247 752 1228 752H92Q73 752 73 733ZM110 715H1210V55H110Z" fill="#000000" />
</g></svg>