<svg xmlns="http://www.w3.org/2000/svg" viewBox="0 0 2048 2048">
<g transform="matrix(1 0 0 -1 0 2048)">
<path d="M1225 213V581Q1220 620 1198.0 645.0Q1176 670 1146.0 684.0Q1116 698 1087 701L162 738Q116 697 98.5 640.5Q81 584 93.0 526.5Q105 469 146 423L309 388Q323 385 337.5 378.0Q352 371 369 349L522 173Q532 160 541.0 152.0Q550 144 567 138L944 -1Q984 -11 1017.5 -4.0Q1051 3 1069.0 39.0Q1087 75 1078 151Q1117 136 1151.5 138.5Q1186 141 1206.5 160.0Q1227 179 1225 213Z" fill="#a57939" />
<path d="M511 161Q512 159 513 158Q539 132 563 121Q564 121 564 121L941 -18Q941 -19 942 -19Q1021 -39 1062 -4Q1106 33 1102 125Q1152 112 1193 128Q1251 151 1246 214L1247 582Q1247 583 1246 584Q1230 705 1092 719Q1091 719 1091 719L166 757Q158 757 153 752Q79 685 73 585Q68 485 135 411Q139 406 145 405L308 370Q337 363 358 338Q358 338 358 337ZM537 186 386 361Q358 396 316 406Q316 406 316 406L159 439Q106 501 110 583Q114 664 172 720L1089 683Q1197 671 1210 580V213Q1210 212 1210 212Q1213 175 1179 162Q1141 147 1087 168Q1070 174 1064 157Q1062 153 1063 149Q1074 54 1039 24Q1012 2 952 16L577 155Q559 163 538 185Q538 186 537 186Z" fill="#000000" />
<path d="M1058 501Q1058 519 1039 519Q1021 519 1021 501Q1021 465 976 452Q939 441 842 441Q824 441 824 423Q824 422 824 421Q842 274 1014 173Q1029 164 1039 180Q1048 195 1032 205Q889 289 864 405Q949 406 987 417Q1058 438 1058 501Z" fill="#000000" />
<path d="M1058 501Q1058 519 1039 519Q1021 519 1021 501Q1021 465 976 452Q939 441 842 441Q824 441 824 423Q824 422 824 421Q842 274 1014 173Q1029 164 1039 180Q1048 195 1032 205Q889 289 864 405Q949 406 987 417Q1058 438 1058 501Z" fill="#000000" />
</g></svg>