<svg xmlns="http://www.w3.org/2000/svg" viewBox="0 0 2048 2048">
<g transform="matrix(1 0 0 -1 0 2048)">
<path d="M197 713 1131 716 1120 65 977 202 328 209 201 77Z" fill="#ffffff" />
<path d="M1118 27Q1118 9 1137 9Q1155 9 1155 27V733Q1155 752 1137 752H183Q165 752 165 733V27Q165 9 183 9Q202 9 202 27V715H1118Z" fill="#000000" />
<path d="M1124 15Q1137 2 1150 15Q1163 27 1150 40L983 207Q970 220 957 207Q944 194 957 181Z" fill="#000000" />
<path d="M367 220Q348 220 348 202Q348 183 367 183H972Q990 183 990 202Q990 220 972 220Z" fill="#000000" />
<path d="M170 40Q157 27 170 15Q177 8 183 8Q190 8 196 15L363 181Q376 194 363 207Q350 220 337 207Z" fill="#000000" />
<path d="M201 739Q198 748 192 751Q186 754 178 751Q169 748 166 742Q163 736 166 728L337 204Q340 195 345 192Q351 189 360 192Q377 198 372 215Z" fill="#000000" />
<path d="M197 732Q179 732 179 713Q179 695 197 695H1132Q1150 695 1150 713Q1150 732 1132 732Z" fill="#000000" />
<path d="M899 732Q880 732 880 713Q880 695 899 695H1129Q1148 695 1148 713Q1148 732 1129 732Z" fill="#000000" />
<path d="M310 347Q291 347 291 328Q291 310 310 310H1022Q1040 310 1040 328Q1040 347 1022 347Z" fill="#000000" />
<path d="M899 347Q880 347 880 328Q880 310 899 310H1025Q1044 310 1044 328Q1044 347 1025 347Z" fill="#000000" />
<path d="M270 475Q252 475 252 457Q252 438 270 438H1040Q1059 438 1059 457Q1059 475 1040 475Z" fill="#000000" />
<path d="M899 475Q880 475 880 457Q880 438 899 438H1051Q1070 438 1070 457Q1070 475 1051 475Z" fill="#000000" />
<path d="M674 724Q674 743 656 743Q637 743 637 724V211Q637 193 656 193Q674 193 674 211Z" fill="#000000" />
<path d="M546 724Q546 743 528 743Q509 743 509 724V211Q509 193 528 193Q546 193 546 211Z" fill="#000000" />
<path d="M417 724Q417 743 399 743Q380 743 380 724V211Q380 193 399 193Q417 193 417 211Z" fill="#000000" />
<path d="M289 724Q289 743 271 743Q252 743 252 724V120Q252 102 271 102Q289 102 289 120Z" fill="#000000" />
<path d="M802 713Q802 732 784 732Q766 732 766 713V209Q766 191 784 191Q802 191 802 209Z" fill="#000000" />
<path d="M931 724Q931 742 912 742Q894 742 894 724V209Q894 191 912 191Q931 191 931 209Z" fill="#000000" />
<path d="M1059 713Q1059 732 1041 732Q1022 732 1022 713V127Q1022 108 1041 108Q1059 108 1059 127Z" fill="#000000" />
<path d="M802 660Q802 678 784 678Q766 678 766 660V382Q766 364 784 364Q802 364 802 382Z" fill="#000000" />
<path d="M234 603Q216 603 216 585Q216 567 234 567H1095Q1114 567 1114 585Q1114 603 1095 603Z" fill="#000000" />
<path d="M894 603Q876 603 876 585Q876 567 894 567H1103Q1122 567 1122 585Q1122 603 1103 603Z" fill="#000000" />
<path d="M1064 471Q1051 484 1038 471Q1025 458 1038 445L1121 363Q1134 350 1147 363Q1160 376 1147 389Z" fill="#000000" />
<path d="M1108 598Q1102 605 1095 605Q1089 605 1082 598Q1070 585 1082 572L1122 533Q1128 526 1135 526Q1141 526 1148 533Q1161 546 1148 559Z" fill="#000000" />
<path d="M1023 342Q1009 354 997 341Q984 328 998 315L1124 196Q1137 183 1150 197Q1163 210 1149 223Z" fill="#000000" />
<path d="M282 444Q289 450 289 457Q289 463 282 470Q269 483 256 470L175 389Q162 376 175 363Q182 356 188 356Q195 356 201 363Z" fill="#000000" />
<path d="M247 559Q260 572 247 585Q234 598 221 585L173 538Q160 525 173 512Q186 499 199 512Z" fill="#000000" />
<path d="M328.162109375 320.401123046875Q334.71966552734375 325.92840576171875 334.1612548828125 332.88482666015625Q334.6763916015625 338.92724609375 328.15533447265625 345.405029296875Q316.0272216796875 359.43414306640625 303.0716552734375 346.39202880859375L177.527587890625 228.2950439453125Q171.0498046875 221.77398681640625 170.53466796875 215.7315673828125Q170.01953125 209.68914794921875 176.620361328125 202.21759033203125Q189.6624755859375 189.26202392578125 202.6180419921875 202.30413818359375Z" fill="#000000" />
<path d="M954 207Q949 190 966 184Q984 179 989 196L1154 709Q1160 727 1142 732Q1134 735 1128 732Q1122 729 1119 721Z" fill="#000000" />
<path d="M197 732V695H1132V732Z" fill="#d0cfce" />
<path d="M898.7483520507812 731.8009033203125V694.9986572265625H1129.6265869140625V731.8009033203125Z" fill="#9b9b9a" />
<path d="M309.6790771484375 346.8009033203125V309.9986572265625H1022.910888671875V346.8009033203125Z" fill="#d0cfce" />
<path d="M899.1036987304688 346.8009033203125V309.9986572265625H1025.9603271484375V346.8009033203125Z" fill="#9b9b9a" />
<path d="M271.22662353515625 475.33892822265625V438.671142578125H1040.7861938476562V475.33892822265625Z" fill="#d0cfce" />
<path d="M898.9674072265625 474.8009033203125V437.9986572265625H1051.725830078125V474.8009033203125Z" fill="#9b9b9a" />
<path d="M673.8009033203125 704.5067138671875H636.9986572265625V216.558349609375H673.8009033203125Z" fill="#d0cfce" />
<path d="M545.8009033203125 704.5067138671875H508.9986572265625V216.558349609375H545.8009033203125Z" fill="#d0cfce" />
<path d="M417.8009033203125 705.2599487304688H380.9986572265625V216.7728271484375H417.8009033203125Z" fill="#d0cfce" />
<path d="M288.8009033203125 716.0078735351562H251.9986572265625V122.1729736328125H288.8009033203125Z" fill="#d0cfce" />
<path d="M802.8009033203125 714.1218872070312H765.9986572265625V216.6002197265625H802.8009033203125Z" fill="#d0cfce" />
<path d="M930.8009033203125 718.4894409179688H893.9986572265625V217.4036865234375H930.8009033203125Z" fill="#9b9b9a" />
<path d="M1058.8009033203125 713.4746704101562H1021.9986572265625V131.5753173828125H1058.8009033203125Z" fill="#9b9b9a" />
<path d="M802.8009033203125 660.4983520507812H765.9986572265625V382.1265869140625H802.8009033203125Z" fill="#d0cfce" />
<path d="M234 603V567H1095V603Z" fill="#d0cfce" />
<path d="M893.97265625 603.8009033203125V566.9986572265625H1103.5078125V603.8009033203125Z" fill="#9b9b9a" />
<path d="M1063.860107421875 471.0833740234375 1037.822265625 445.0455322265625 1117.2682495117188 365.59954833984375 1143.3060913085938 391.63739013671875Z" fill="#9b9b9a" />
<path d="M1108.802978515625 597.093505859375 1082.748291015625 571.094970703125 1118.38916015625 535.3712158203125 1144.44384765625 561.3697509765625Z" fill="#9b9b9a" />
<path d="M1109.7984619140625 606.0822143554688 1083.7550048828125 580.1117553710938 1119.3958740234375 544.3880004882812 1145.4393310546875 570.3584594726562Z" fill="#9b9b9a" />
<path d="M1022.6574096679688 341.60430908203125 997.4562377929688 314.78594970703125 1118.6766357421875 200.8594970703125 1143.8778076171875 227.6778564453125Z" fill="#9b9b9a" />
<path d="M282.60882568359375 443.66534423828125 256.57098388671875 469.70318603515625 176.08892822265625 389.22113037109375 202.12677001953125 363.18328857421875Z" fill="#d0cfce" />
<path d="M259.6837158203125 572.749267578125 233.6571044921875 598.77587890625 175.18121337890625 540.2999877929688 201.20782470703125 514.2733764648438Z" fill="#d0cfce" />
<path d="M327.5531005859375 319.9942626953125 302.3294677734375 346.7845458984375 176.591796875 228.38226318359375 201.8154296875 201.59197998046875Z" fill="#d0cfce" />
<path d="M954 207Q949 190 966 184Q984 179 989 196L1154 709Q1160 727 1142 732Q1134 735 1128 732Q1122 729 1119 721Z" fill="#000000" />
<path d="M1118 27Q1118 9 1137 9Q1155 9 1155 27V733Q1155 752 1137 752H183Q165 752 165 733V27Q165 9 183 9Q202 9 202 27V715H1118Z" fill="#000000" />
<path d="M1124 15Q1137 2 1150 15Q1163 27 1150 40L983 207Q970 220 957 207Q944 194 957 181Z" fill="#000000" />
<path d="M367 220Q348 220 348 202Q348 183 367 183H972Q990 183 990 202Q990 220 972 220Z" fill="#000000" />
<path d="M170 40Q157 27 170 15Q177 8 183 8Q190 8 196 15L363 181Q376 194 363 207Q350 220 337 207Z" fill="#000000" />
<path d="M201 739Q198 748 192 751Q186 754 178 751Q169 748 166 742Q163 736 166 728L337 204Q340 195 345 192Q351 189 360 192Q377 198 372 215Z" fill="#000000" />
<path d="M954 207Q949 190 966 184Q984 179 989 196L1154 709Q1160 727 1142 732Q1134 735 1128 732Q1122 729 1119 721Z" fill="#000000" />
</g></svg>