<svg xmlns="http://www.w3.org/2000/svg" viewBox="0 0 2048 2048">
<g transform="matrix(1 0 0 -1 0 2048)">
<path d="M293 533V204H1027V533Z" fill="#3f3f3f" />
<path d="M1045 533H1008V222H312V533H275V185H1045Z" fill="#3f3f3f" />
<path d="M202.32525634765625 522.8260498046875H165.65869140625V368.7293701171875H202.32525634765625Z" fill="#f1b31c" />
<path d="M220.49951171875 368.32568359375Q220.49951171875 375.84765625 217.64306640625 382.5126953125Q214.78662109375 389.177734375 209.740234375 394.22412109375Q204.69384765625 399.2705078125 198.076416015625 402.126953125Q191.458984375 404.9833984375 183.841796875 404.9833984375Q176.224609375 404.9833984375 169.607177734375 402.126953125Q162.98974609375 399.2705078125 157.943359375 394.22412109375Q152.89697265625 389.177734375 150.04052734375 382.5126953125Q147.18408203125 375.84765625 147.18408203125 368.32568359375Q147.18408203125 360.70849609375 150.04052734375 354.04345703125Q152.89697265625 347.37841796875 157.943359375 342.33203125Q162.98974609375 337.28564453125 169.607177734375 334.476806640625Q176.224609375 331.66796875 183.841796875 331.66796875Q191.458984375 331.66796875 198.076416015625 334.476806640625Q204.69384765625 337.28564453125 209.740234375 342.33203125Q214.78662109375 347.37841796875 217.64306640625 354.04345703125Q220.49951171875 360.70849609375 220.49951171875 368.32568359375Z" fill="#f1b31c" />
<path d="M220.4337158203125 203.234619140625 185.67266845703125 352.064208984375 150.91162109375 203.234619140625Z" fill="#f1b31c" />
<path d="M221 188Q223 188 224 188Q240 192 236 207L202 356Q199 366 190 368Q174 372 170 356L136 207Q135 205 135 204Q135 188 151 188ZM201 220H171L186 282Z" fill="#f1b31c" />
<path d="M73.6622314453125 625.5397338867188V533.09716796875H1246.9776611328125V625.5397338867188Z" fill="#3f3f3f" />
<path d="M293 478V204H1027V478Z" fill="#3f3f3f" />
<path d="M715.3130493164062 642.0086059570312Q715.3130493164062 653.29638671875 711.0265502929688 663.2982177734375Q706.7400512695312 673.300048828125 699.167236328125 680.8728637695312Q691.5944213867188 688.4456787109375 681.6640319824219 692.732177734375Q671.733642578125 697.0186767578125 660.302978515625 697.0186767578125Q648.872314453125 697.0186767578125 638.9419250488281 692.732177734375Q629.0115356445312 688.4456787109375 621.438720703125 680.8728637695312Q613.8659057617188 673.300048828125 609.5794067382812 663.2982177734375Q605.2929077148438 653.29638671875 605.2929077148438 642.0086059570312Q605.2929077148438 630.5779418945312 609.5794067382812 620.5761108398438Q613.8659057617188 610.5742797851562 621.438720703125 603.00146484375Q629.0115356445312 595.4286499023438 638.9419250488281 591.2135925292969Q648.872314453125 586.99853515625 660.302978515625 586.99853515625Q671.733642578125 586.99853515625 681.6640319824219 591.2135925292969Q691.5944213867188 595.4286499023438 699.167236328125 603.00146484375Q706.7400512695312 610.5742797851562 711.0265502929688 620.5761108398438Q715.3130493164062 630.5779418945312 715.3130493164062 642.0086059570312Z" fill="#000000" />
<path d="M55 533Q55 515 73 515H1247Q1265 515 1265 533V626Q1265 644 1247 644H73Q55 644 55 626ZM92 607H1228V552H92Z" fill="#000000" />
<path d="M1043 478Q1043 494 1027 494Q1011 494 1011 478V220H309V478Q309 494 293 494Q277 494 277 478V204Q277 188 293 188H1027Q1043 188 1043 204Z" fill="#000000" />
</g></svg>