<svg xmlns="http://www.w3.org/2000/svg" viewBox="0 0 2048 2048">
<g transform="matrix(1 0 0 -1 0 2048)">
<path d="M593 357Q593 408 557.0 443.5Q521 479 470 479Q419 479 383.0 443.5Q347 408 347 357Q347 306 383.0 270.0Q419 234 470 234Q521 234 557.0 270.0Q593 306 593 357Z" fill="#b399c8" />
<path d="M511 541Q511 591 475.0 627.0Q439 663 389 663Q338 663 302.0 627.0Q266 591 266 541Q266 490 302.0 454.0Q338 418 389 418Q439 418 475.0 454.0Q511 490 511 541Z" fill="#b399c8" />
<path d="M464 483Q445 519 451.5 560.0Q458 601 488 629Q518 658 559.0 662.5Q600 667 635 646Q671 624 686.0 586.0Q701 548 690 508Q679 468 646.5 443.0Q614 418 572 418Z" fill="#b399c8" />
<path d="M899 173Q899 223 863.0 259.0Q827 295 777 295Q726 295 690.0 259.0Q654 223 654 173Q654 122 690.0 86.0Q726 50 777 50Q827 50 863.0 86.0Q899 122 899 173Z" fill="#b399c8" />
<path d="M695 173Q695 223 659.0 259.0Q623 295 572 295Q522 295 486.0 259.0Q450 223 450 173Q450 122 486.0 86.0Q522 50 572 50Q623 50 659.0 86.0Q695 122 695 173Z" fill="#b399c8" />
<path d="M1022 357Q1022 408 986.0 443.5Q950 479 899 479Q848 479 812.5 443.5Q777 408 777 357Q777 306 812.5 270.0Q848 234 899 234Q950 234 986.0 270.0Q1022 306 1022 357Z" fill="#b399c8" />
<path d="M797 377Q797 428 761.0 464.0Q725 500 675 500Q624 500 588.0 464.0Q552 428 552 377Q552 326 588.0 290.5Q624 255 675 255Q725 255 761.0 290.5Q797 326 797 377Z" fill="#b399c8" />
<path d="M670.0599365234375 265.2681884765625Q703.509033203125 265.2681884765625 731.7018432617188 281.99273681640625Q759.8946533203125 298.71728515625 776.141357421875 326.4322509765625Q792.3880615234375 354.147216796875 792.3880615234375 388.552001953125Q792.3880615234375 422.0010986328125 776.141357421875 449.716064453125Q759.8946533203125 477.4310302734375 731.7018432617188 494.15557861328125Q703.509033203125 510.880126953125 670.0599365234375 510.880126953125Z" fill="#8967aa" />
<path d="M1060 547Q1060 581 1043.5 608.5Q1027 636 999.0 652.5Q971 669 937 669Q887 669 852.5 633.0Q818 597 815 547Q813 516 825.0 503.0Q837 490 859.5 486.0Q882 482 911.0 479.5Q940 477 973 466Q1021 451 1040.5 473.5Q1060 496 1060 547Z" fill="#8967aa" />
<path d="M789 422Q748 411 708.0 428.0Q668 445 648 484Q628 523 636.5 565.5Q645 608 679 635Q712 663 755.5 663.0Q799 663 833 636Q867 609 876.0 566.5Q885 524 866 485Z" fill="#b399c8" />
<path d="M797 -11Q797 40 761.0 75.5Q725 111 675 111Q624 111 588.0 75.5Q552 40 552 -11Q552 -62 588.0 -98.0Q624 -134 675 -134Q725 -134 761.0 -98.0Q797 -62 797 -11Z" fill="#b399c8" />
<path d="M670.0599365234375 -133.7318115234375Q703.509033203125 -133.7318115234375 731.7018432617188 -117.00726318359375Q759.8946533203125 -100.28271484375 776.141357421875 -72.5677490234375Q792.3880615234375 -44.852783203125 792.3880615234375 -10.447998046875Q792.3880615234375 23.0010986328125 776.141357421875 50.716064453125Q759.8946533203125 78.4310302734375 731.7018432617188 95.15557861328125Q703.509033203125 111.880126953125 670.0599365234375 111.880126953125Z" fill="#8967aa" />
<path d="M773.0599365234375 49.2681884765625Q806.509033203125 49.2681884765625 834.7018432617188 65.99273681640625Q862.8946533203125 82.71728515625 879.141357421875 110.4322509765625Q895.3880615234375 138.147216796875 895.3880615234375 172.552001953125Q895.3880615234375 206.0010986328125 879.141357421875 233.716064453125Q862.8946533203125 261.4310302734375 834.7018432617188 278.15557861328125Q806.509033203125 294.880126953125 773.0599365234375 294.880126953125Z" fill="#8967aa" />
<path d="M898.0599365234375 235.2681884765625Q931.509033203125 235.2681884765625 959.7018432617188 251.99273681640625Q987.8946533203125 268.71728515625 1004.141357421875 296.4322509765625Q1020.3880615234375 324.147216796875 1020.3880615234375 358.552001953125Q1020.3880615234375 392.0010986328125 1004.141357421875 419.716064453125Q987.8946533203125 447.4310302734375 959.7018432617188 464.15557861328125Q931.509033203125 480.880126953125 898.0599365234375 480.880126953125Z" fill="#8967aa" />
<path d="M753.0599365234375 416.2681884765625Q786.509033203125 416.2681884765625 814.7018432617188 432.99273681640625Q842.8946533203125 449.71728515625 859.141357421875 477.4322509765625Q875.3880615234375 505.147216796875 875.3880615234375 539.552001953125Q875.3880615234375 573.0010986328125 859.141357421875 600.716064453125Q842.8946533203125 628.4310302734375 814.7018432617188 645.1555786132812Q786.509033203125 661.880126953125 753.0599365234375 661.880126953125Z" fill="#8967aa" />
<path d="M660 642Q664 624 682 627Q700 630 697 648Q666 816 586 881Q458 986 247 798Q234 785 246 772Q252 765 259 764Q265 764 272 770Q459 937 562 853Q632 796 660 642Z" fill="#000000" />
<path d="M992 450 1000 434Q1078 474 1071 561Q1064 648 981 675Q898 702 841 637L854 625Q904 681 975 658Q1046 634 1052 559Q1058 485 992 450Z" fill="#000000" />
<path d="M543 295 575 313Q560 338 560 367Q560 453 645 469L638 505Q588 496 556 456Q523 417 523 367Q523 328 543 295Z" fill="#000000" />
<path d="M812 -6Q812 52 771 94Q729 135 670 135Q612 135 570 94Q529 52 529 -6Q529 -65 570 -106Q612 -148 670 -148Q729 -148 771 -106Q812 -65 812 -6ZM775 -6Q775 -50 745 -80Q714 -111 670 -111Q627 -111 596 -80Q566 -50 566 -6Q566 37 596 68Q627 99 670 99Q714 99 745 68Q775 37 775 -6Z" fill="#000000" />
<path d="M670 99V135Q612 135 570 94Q529 52 529 -6Q529 -65 570 -106Q612 -148 670 -148V-111Q627 -111 596 -80Q566 -50 566 -6Q566 37 596 68Q627 99 670 99Z" fill="#000000" />
<path d="M773 74V37Q778 37 784 37L781 74Q777 74 773 74Z" fill="#000000" />
<path d="M781 74 784 37Q888 45 911 147Q934 249 843 301Q753 353 676 282Q600 210 646 117L679 133Q645 202 701 255Q758 308 825 269Q892 231 875 155Q858 80 781 74Z" fill="#000000" />
<path d="M652 241 682 262Q616 351 514 309Q411 267 428 157Q444 48 554 38L558 74Q476 82 464 163Q452 244 528 275Q603 307 652 241Z" fill="#000000" />
<path d="M806 417 775 436Q735 370 769 301L802 317Q777 368 806 417Z" fill="#000000" />
<path d="M881 259 876 223Q928 215 973 244Q1018 273 1032 324Q1047 375 1024 424Q1001 472 953 493Q904 514 853 498Q802 482 775 436L806 417Q854 496 938 459Q1022 423 997 334Q972 246 881 259Z" fill="#000000" />
<path d="M544 432 571 457Q502 535 407 492Q311 449 325 345Q338 241 442 224L448 260Q371 273 361 350Q351 427 422 459Q492 491 544 432Z" fill="#000000" />
<path d="M448 260 442 224Q453 222 465 222V258Q456 258 448 260Z" fill="#000000" />
<path d="M990 457 1008 425Q1088 471 1078 562Q1069 653 982 682Q895 711 833 643L860 619Q906 669 970 647Q1035 626 1042 559Q1049 491 990 457Z" fill="#000000" />
<path d="M840 491 871 471Q899 514 893 565Q887 616 849 651Q811 686 760 688Q709 691 667 660Q626 629 615 579Q603 529 627 483Q650 438 697 418Q745 397 794 412L783 448Q699 422 659 500Q620 578 690 631Q760 684 824 624Q888 564 840 491Z" fill="#000000" />
<path d="M644 620 670 646Q634 683 582 688Q530 694 487 664Q444 634 431 583Q418 533 441 486L474 502Q434 582 508 634Q582 685 644 620Z" fill="#000000" />
<path d="M457 622 483 648Q412 719 321 675Q231 631 242 532Q254 432 352 410L360 446Q287 462 279 536Q270 610 337 642Q404 675 457 622Z" fill="#000000" />
<path d="M944 869Q951 886 934 893Q926 897 920 894Q914 892 910 883Q897 853 858 826Q777 770 643 793Q625 797 622 778Q618 760 637 757Q785 732 879 796Q926 829 944 869Z" fill="#000000" />
</g></svg>