<svg xmlns="http://www.w3.org/2000/svg" viewBox="0 0 2048 2048">
<g transform="matrix(1 0 0 -1 0 2048)">
<path d="M1100 385Q1100 476 1066.0 556.0Q1032 636 971.5 696.5Q911 757 831.0 791.0Q751 825 660 825Q569 825 489.0 791.0Q409 757 348.5 696.5Q288 636 254.0 556.0Q220 476 220 385Q220 294 254.0 214.0Q288 134 348.5 73.5Q409 13 489.0 -21.0Q569 -55 660 -55Q751 -55 831.0 -21.0Q911 13 971.5 73.5Q1032 134 1066.0 214.0Q1100 294 1100 385Z" fill="#fcea2b" />
<path d="M459 656 358 764 334 618 200 555 331 487 349 340 455 444 600 416 534 548 606 678Z" fill="#f1b31c" />
<path d="M860.0 656.0 961.0 764.0 985.0 618.0 1119.0 555.0 988.0 487.0 970.0 340.0 864.0 444.0 719.0 416.0 785.0 548.0 713.0 678.0Z" fill="#f1b31c" />
<path d="M912 195Q826 174 742.0 170.5Q658 167 587.5 172.5Q517 178 469.5 186.0Q422 194 408 198Q432 138 495.5 100.5Q559 63 661 63Q762 63 824.5 99.5Q887 136 912 195Z" fill="#ea5a47" />
<path d="M928 277 924 276Q847 257 770.5 251.5Q694 246 626.5 249.0Q559 252 506.5 258.5Q454 265 424.0 271.0Q394 277 394 277H392Q392 235 408 198Q422 194 469.5 186.0Q517 178 587.5 172.5Q658 167 742.0 170.5Q826 174 912 195Q928 233 928 277Z" fill="#ffffff" />
<path d="M946 277Q946 281 945 284Q939 301 922 295L919 294Q761 254 564 271Q465 279 399 295Q397 296 394 296H392Q374 296 374 277Q374 231 391 191Q394 182 404 180Q674 118 916 177Q925 180 929 188Q946 229 946 277ZM908 254Q906 231 898 211Q673 158 421 213Q414 233 412 255Q475 242 561 234Q752 218 908 254Z" fill="#000000" />
<path d="M929 188Q931 194 930 199Q925 217 908 213Q673 156 412 215Q406 217 401 215Q392 211 390 205Q387 199 391 191Q451 44 661 44Q868 44 929 188ZM877 169Q817 81 661 81Q502 81 442 172Q669 127 877 169Z" fill="#000000" />
<path d="M925 180 916 215 912 214 907 213 916 177Z" fill="#000000" />
<path d="M403 180 412 215Q409 216 407 217L399 181Q400 181 403 180Z" fill="#000000" />
<path d="M845 743Q853 739 859 741Q866 743 870 751Q878 768 862 776Q767 825 660 825Q548 825 451 772L448 771Q432 762 441 746Q450 730 466 739L468 740Q558 788 660 788Q758 788 845 743Z" fill="#000000" />
<path d="M260 438Q262 456 244 458Q226 461 224 442Q220 414 220 385Q220 203 349 74Q478 -55 660 -55Q842 -55 971 74Q1100 203 1100 385Q1100 414 1096 442Q1094 460 1076 458Q1058 455 1060 437Q1063 411 1063 385Q1063 218 945 100Q827 -18 660 -18Q493 -18 375 100Q257 218 257 385Q257 412 260 438Z" fill="#000000" />
<path d="M467 675 373 776Q369 781 362 782Q344 785 341 767L319 630L193 572Q188 569 185 563Q180 555 182 549Q184 543 193 539L315 475L332 338Q333 331 338 327Q350 314 363 327L462 424L598 398Q604 396 610 399Q626 407 618 424L556 548L623 669Q626 674 625 680Q624 689 618 693Q613 697 604 696ZM463 638 573 654 519 557Q515 548 519 540L568 441L460 462Q450 463 443 457L364 379L351 489Q349 499 341 503L242 554L343 601Q352 605 353 615L371 724L447 643Q454 636 463 638Z" fill="#000000" />
<path d="M853 675 716 696Q707 697 702 693Q696 689 695 680Q694 674 697 669L764 548L702 424Q694 407 710 399Q716 396 722 398L858 424L957 327Q970 314 982 327Q987 331 988 338L1005 475L1128 539Q1136 543 1138 549Q1140 555 1135 563Q1132 569 1127 572L1001 630L979 767Q976 785 958 782Q952 781 947 776ZM857 638Q866 636 873 643L949 724L967 615Q968 605 977 601L1078 554L979 503Q971 499 969 489L956 379L877 457Q870 463 860 462L752 441L801 540Q805 548 801 557L747 654Z" fill="#000000" />
</g></svg>