<svg xmlns="http://www.w3.org/2000/svg" viewBox="0 0 2048 2048">
<g transform="matrix(1 0 0 -1 0 2048)">
<path d="M1091 587Q1091 506 1040 443L660 -28L280 443Q229 506 229 587Q229 682 296.0 749.0Q363 816 458 816Q524 816 577.5 782.5Q631 749 660 696Q689 749 742.5 782.5Q796 816 862 816Q957 816 1024.0 749.0Q1091 682 1091 587Z" fill="#ffa7c0" />
<path d="M1034.5784301757812 506.5211181640625Q1034.5784301757812 436.39599609375 990.2888793945312 381.0340576171875L659.962646484375 -28.644287109375L329.63641357421875 381.0340576171875Q285.34686279296875 436.39599609375 285.34686279296875 506.5211181640625Q285.34686279296875 589.5640258789062 343.4768981933594 647.6940612792969Q401.60693359375 705.8240966796875 484.64984130859375 705.8240966796875Q541.857177734375 705.8240966796875 587.9921264648438 676.2977294921875Q634.1270751953125 646.7713623046875 659.962646484375 600.6364135742188Q685.7982177734375 646.7713623046875 731.9331665039062 676.2977294921875Q778.068115234375 705.8240966796875 835.2754516601562 705.8240966796875Q918.318359375 705.8240966796875 976.4483947753906 647.6940612792969Q1034.5784301757812 589.5640258789062 1034.5784301757812 506.5211181640625Z" fill="#e67a94" />
<path d="M987.4207153320312 439.419921875Q987.4253540039062 378.0618896484375 948.6765747070312 329.618408203125L659.675048828125 -28.863525390625L370.61932373046875 329.57470703125Q331.86322021484375 378.0123291015625 331.85858154296875 439.370361328125Q331.85308837890625 512.0311889648438 382.7118225097656 562.8976135253906Q433.570556640625 613.7640380859375 506.23138427734375 613.76953125Q556.28662109375 613.7733154296875 596.6557006835938 587.94140625Q637.0247802734375 562.1094970703125 659.6334228515625 521.7440795898438Q682.2359619140625 562.1129150390625 722.6011352539062 587.950927734375Q762.96630859375 613.7889404296875 813.0215454101562 613.792724609375Q885.682373046875 613.7982177734375 936.5487976074219 562.9394836425781Q987.4152221679688 512.0807495117188 987.4207153320312 439.419921875Z" fill="#ffa7c0" />
<path d="M941 372Q941 346 932.0 322.0Q923 298 908 279L660 -28L412 279Q397 298 388.0 322.0Q379 346 379 372Q379 414 399.5 447.5Q420 481 453.5 501.5Q487 522 529 522Q571 522 606.0 500.0Q641 478 660 443Q679 478 714.0 500.0Q749 522 791 522Q833 522 866.5 501.5Q900 481 920.5 447.5Q941 414 941 372Z" fill="#e67a94" />
<path d="M1109 587Q1109 689 1037 762Q964 834 862 834Q730 834 660 731Q590 834 458 834Q356 834 283 762Q211 689 211 587Q211 501 264 434Q265 433 265 432Q266 431 266 431L646 -40Q657 -54 672 -42Q673 -41 674 -40L1054 431Q1055 433 1056 434Q1109 501 1109 587ZM1073 587Q1073 512 1026 454Q1026 454 1026 454Q1025 453 1024 452L660 1L296 452Q295 453 294 454Q248 512 248 587Q248 674 309 736Q371 798 458 798Q584 798 644 687Q646 682 651 679Q667 671 676 687Q736 798 862 798Q949 798 1011 736Q1073 674 1073 587Z" fill="#000000" />
</g></svg>