<svg xmlns="http://www.w3.org/2000/svg" viewBox="0 0 2048 2048">
<g transform="matrix(1 0 0 -1 0 2048)">
<path d="M845 -2Q846 -14 857.0 -13.5Q868 -13 882.5 -6.5Q897 0 907.5 7.0Q918 14 918 14L926 119Q926 119 919.0 126.0Q912 133 903.5 140.0Q895 147 889.0 147.5Q883 148 884 135Q885 122 879.5 99.5Q874 77 866.0 53.5Q858 30 851.5 14.0Q845 -2 845 -2Z" fill="#ffffff" />
<path d="M654 85Q655 73 665.5 76.0Q676 79 691.0 89.5Q706 100 720.5 113.0Q735 126 745.0 135.5Q755 145 755 145L720 256Q720 256 708.5 259.5Q697 263 681.5 264.5Q666 266 655.0 262.0Q644 258 646 242Q648 227 649.5 201.0Q651 175 652.0 148.5Q653 122 653.5 103.5Q654 85 654 85Z" fill="#ffffff" />
<path d="M879 586Q883 571 891.0 572.5Q899 574 913 573Q927 571 940.5 580.0Q954 589 966 595Q979 601 970.5 619.5Q962 638 943 646Q933 650 922.0 641.5Q911 633 901.5 620.0Q892 607 885.5 596.5Q879 586 879 586Z" fill="#ffffff" />
<path d="M738 578Q742 563 750.0 564.5Q758 566 772 565Q786 563 799.5 572.0Q813 581 825 587Q838 593 829.5 611.5Q821 630 802 638Q792 642 781.0 633.5Q770 625 760.5 612.0Q751 599 744.5 588.5Q738 578 738 578Z" fill="#ffffff" />
<path d="M804 3Q802 -2 798 -6V-7Q786 -19 769 -18Q754 -18 744.0 -7.0Q734 4 734 18Q735 32 746 41Q747 42 747 42Q750 45 757.5 57.0Q765 69 772.5 97.0Q780 125 782 176Q782 184 779 192Q776 201 770.5 219.5Q765 238 758.5 259.0Q752 280 747.5 296.0Q743 312 743 317L818 289L856 232Q869 109 804 3Z" fill="#6a462f" />
<path d="M611 19Q611 13 609 7Q609 7 609.0 7.0Q609 7 609 7Q603 -10 587 -16Q574 -23 559.5 -18.5Q545 -14 538 -1Q530 18 543 34Q548 39 555 43Q562 53 565.0 77.0Q568 101 552 148L535 196L555 243L594 250Q617 205 614 153Q616 86 611 19Z" fill="#6a462f" />
<path d="M373 553Q363 572 345.5 579.0Q328 586 313.5 587.0Q299 588 299 588Q268 591 258.0 603.5Q248 616 249.0 630.5Q250 645 252 651Q253 654 251 657Q242 682 250.0 690.5Q258 699 270.5 699.5Q283 700 290 700Q313 699 323.0 705.0Q333 711 335.5 717.5Q338 724 338 724Q341 740 352.5 746.5Q364 753 375.0 754.0Q386 755 386 755L481 741Q497 740 508.0 727.0Q519 714 525.5 697.5Q532 681 535.0 668.5Q538 656 538 656Q544 610 566.0 584.5Q588 559 617.0 547.5Q646 536 674.5 533.5Q703 531 723.0 532.5Q743 534 745 535Q746 535 746 535Q793 548 828.5 548.0Q864 548 886.0 542.5Q908 537 915 533Q919 532 923 533Q960 546 978.0 563.0Q996 580 1001.0 596.0Q1006 612 1005.0 623.0Q1004 634 1004 634Q996 662 984.5 672.0Q973 682 961.5 681.0Q950 680 941.0 674.0Q932 668 929 665Q927 663 926 661Q925 658 919.0 648.5Q913 639 907.0 630.0Q901 621 900 619Q891 595 879.5 597.5Q868 600 862.0 618.0Q856 636 863 660Q875 695 897 724Q918 748 944.0 751.5Q970 755 994.0 747.0Q1018 739 1035.0 728.5Q1052 718 1055 715Q1055 715 1055 715Q1078 691 1081.0 664.0Q1084 637 1075.0 611.5Q1066 586 1052.0 564.5Q1038 543 1026.5 530.0Q1015 517 1014 516Q1008 510 1000.0 498.0Q992 486 986.0 473.5Q980 461 982 455Q982 454 980.5 453.0Q979 452 979 451Q969 371 971.5 329.0Q974 287 981.5 270.5Q989 254 993 251Q994 250 995 248Q1007 224 1013.5 193.5Q1020 163 1023.0 133.5Q1026 104 1026.5 82.5Q1027 61 1027 56Q1027 55 1028 54Q1038 22 1030.0 7.5Q1022 -7 1009.0 -11.0Q996 -15 990 -15Q988 -16 986 -15Q961 -5 957.5 7.0Q954 19 960.0 29.0Q966 39 970 43Q972 45 973 48Q980 81 970.5 113.5Q961 146 938 171Q937 172 936 172Q916 182 891.5 200.5Q867 219 843.5 239.5Q820 260 802.5 276.5Q785 293 779 299Q777 301 773 301Q714 307 672.5 296.5Q631 286 607.5 272.5Q584 259 580 255Q579 254 578 253Q551 211 529.5 198.5Q508 186 495.0 187.0Q482 188 482 188Q441 199 408 171Q402 166 405 159Q412 144 407 128Q407 126 406 125Q393 108 381.5 105.5Q370 103 361.5 108.5Q353 114 348.5 120.0Q344 126 344 126Q333 149 338.0 168.0Q343 187 358.0 201.5Q373 216 390.0 226.0Q407 236 419.0 241.0Q431 246 431 246Q461 255 470.0 266.5Q479 278 477.5 289.0Q476 300 470.5 307.0Q465 314 465 314Q452 323 443.5 338.5Q435 354 431.0 368.0Q427 382 426 385Q426 386 426 387Q423 477 373 553Z" fill="#a57939" />
<path d="M767 292Q762 309 744 303Q727 297 733 280Q736 270 764 194Q767 187 767 186Q769 181 769 176Q764 78 739 56Q738 56 738 56Q728 47 732 36Q734 33 737 29Q738 28 738 28Q749 18 761 27L762 28Q762 28 762 28Q762 28 762 28Q800 60 805 175Q806 187 802 198Q801 199 799 207Q771 282 767 292Z" fill="#000000" />
<path d="M779 4Q765 -8 777 -22Q790 -36 803 -23Q881 46 874 232Q874 242 869 246Q865 250 855 250Q837 250 838 231Q843 62 779 4Z" fill="#000000" />
<path d="M762 28 738 56Q722 42 719 21L718 20V19Q715 -31 766 -37Q792 -39 808 -18L794 -7L807 6L793 20L780 5Q776 -1 769 0Q754 1 755 16Q756 23 762 28Z" fill="#000000" />
<path d="M552 202 517 190 534 141Q556 79 541 55L530 46L529 45Q508 21 521 -8V-9V-10Q546 -58 595 -33Q617 -23 626 0V1Q629 10 629 19Q634 86 632 153Q633 176 630 198Q625 230 610 258L578 242Q590 218 594 192Q597 173 595 154V153Q597 86 592 20V19V18Q592 16 592 13Q591 13 591 12Q588 4 579 0H578Q563 -9 554 6Q551 14 556 20L568 30L569 32Q598 71 569 153Z" fill="#000000" />
<path d="M358 167Q360 176 357 182Q354 187 345 190Q328 195 323 177Q314 147 327 119Q346 71 395 89L396 90Q433 107 417 163Q411 181 394 176Q385 173 382 168Q379 162 381 153Q389 127 381 123Q367 118 361 133V134Q353 150 358 167Z" fill="#000000" />
<path d="M384 173Q372 159 386 147Q393 141 400 142Q406 142 412 149Q433 174 465 172H466Q468 172 471 172Q529 151 559 205Q568 221 552 230Q536 239 527 223Q512 196 482 206L481 207Q474 209 467 209Q417 211 384 173Z" fill="#000000" />
<path d="M999 441Q1000 459 982 460Q964 461 963 443L957 339Q953 266 977 243Q999 210 996 170L995 168L996 166Q1005 61 1008 20Q1010 2 1028 3Q1046 5 1045 23Q1042 64 1032 168Q1037 222 1005 266L1004 268L1002 269Q991 279 994 337Z" fill="#000000" />
<path d="M873 618Q866 601 883 594Q900 587 907 604Q931 666 955 666Q964 666 971 658Q1000 622 979 593Q963 571 926 554Q920 552 915 555H914Q863 576 743 553Q687 546 634 561Q632 561 630 562Q615 567 603 576H602Q593 582 588 591Q555 653 533 720Q526 743 504 752L503 753H502Q454 769 404 773Q331 781 320 729Q317 721 312 719V718H277H276Q234 716 231 677Q230 664 234 652Q228 608 267 583Q286 571 306 567H308H309Q335 567 354 549Q394 488 403 416Q408 342 441 313Q463 292 457 282Q454 276 447 274Q340 235 323 177Q321 168 324 163Q327 157 336 154Q353 149 358 167Q370 207 460 239Q479 246 489 263Q509 298 466 340L465 341Q443 359 440 419V420Q429 502 383 571L382 573L381 574Q352 602 311 604Q299 606 287 614Q266 627 271 650L272 656L270 661Q267 668 267 675Q268 681 278 681H311Q340 680 355 717V719L356 721Q359 741 400 736H401Q447 733 490 718Q496 715 498 709V708Q522 638 556 573V572Q566 556 582 545Q599 534 618 528Q620 527 623 526Q685 508 748 517H749Q858 538 900 521Q920 512 940 521H941Q987 542 1008 571Q1046 623 999 681Q982 703 955 703Q907 703 873 618Z" fill="#000000" />
<path d="M1045 24Q1043 42 1025 40Q1006 38 1008 19Q1010 9 1005 6Q1000 2 990 3H989H988Q973 3 972 18Q974 29 978 40Q983 58 966 63Q948 69 943 51Q938 37 936 22V20V19Q936 -33 988 -34Q1012 -35 1027 -24Q1048 -8 1045 24Z" fill="#000000" />
<path d="M1045 23Q1044 41 1026 40Q1007 39 1009 21V13Q1010 -5 1029 -4Q1047 -2 1046 16Z" fill="#000000" />
<path d="M940 40Q935 22 952 17Q970 12 975 29Q1001 115 961 174Q955 182 947 187Q853 249 818 299Q805 316 784 318Q587 335 524 217Q520 209 521 202Q523 196 531 192Q548 183 556 200Q608 296 781 281Q785 281 788 277Q827 222 927 156Q929 155 931 153Q961 109 940 40Z" fill="#000000" />
<path d="M882 768Q890 765 896 767Q902 770 905 779Q912 796 895 802L863 814Q839 826 821 807Q820 806 819 806L593 625Q579 614 591 600Q602 585 616 597L842 777Q844 779 847 781L848 780Z" fill="#3f3f3f" />
<path d="M627 542Q632 559 615 565Q606 568 600 565Q595 562 592 553Q545 406 603 263Q609 246 626 252Q643 259 637 276Q584 407 627 542Z" fill="#3f3f3f" />
<path d="M622 535Q635 548 622 561Q616 567 609 567Q603 567 596 561Q491 456 413 469Q404 471 398 467Q393 463 392 454Q389 436 407 433Q504 417 622 535Z" fill="#3f3f3f" />
<path d="M523 503Q509 492 521 478Q532 463 546 475L898 758Q919 775 902 796Q897 803 888 806L845 817Q836 819 830 816Q825 812 822 804Q818 786 836 781L860 775Z" fill="#3f3f3f" />
</g></svg>