<svg xmlns="http://www.w3.org/2000/svg" viewBox="0 0 2048 2048">
<g transform="matrix(1 0 0 -1 0 2048)">
<path d="M880 419Q893 446 918.5 469.5Q944 493 973.0 500.5Q1002 508 1025 488Q1027 320 987 156Q957 75 916.0 18.5Q875 -38 814.0 -68.5Q753 -99 664 -100V-101Q662 -101 661.0 -101.0Q660 -101 658 -101Q657 -101 656.0 -101.0Q655 -101 653 -101V-100Q564 -99 504.0 -68.5Q444 -38 403.5 18.5Q363 75 333 156Q293 319 295 488Q318 508 347.0 500.5Q376 493 401.5 469.5Q427 446 440 419V327V761Q440 786 460.5 799.5Q481 813 508.5 813.0Q536 813 557.5 798.5Q579 784 580 754Q580 753 580.0 728.5Q580 704 580.0 665.0Q580 626 580.5 583.0Q581 540 581.0 501.0Q581 462 581.0 437.5Q581 413 581 413V779Q581 814 593.0 833.0Q605 852 622.5 860.5Q640 869 656 871H664Q680 869 697.5 860.5Q715 852 727.0 833.0Q739 814 739 779V413Q739 413 739.0 437.5Q739 462 739.0 501.0Q739 540 739.5 583.0Q740 626 740.0 665.0Q740 704 740.0 728.5Q740 753 740 754Q741 784 762.5 798.5Q784 813 811.5 813.0Q839 813 859.5 799.5Q880 786 880 761V327Z" fill="#fcea2b" />
<path d="M662 294Q620 294 583.5 276.0Q547 258 519.0 234.5Q491 211 475.0 193.0Q459 175 459 175Q459 175 475.0 157.0Q491 139 519.0 115.5Q547 92 583.5 74.0Q620 56 662 56Q704 56 741.0 74.0Q778 92 806.0 115.5Q834 139 850.0 157.0Q866 175 866 175Q866 175 850.0 193.0Q834 211 806.0 234.5Q778 258 741.0 276.0Q704 294 662 294Z" fill="#ffffff" />
<path d="M770.1486206054688 177.52606201171875Q771.1566162109375 206.7579345703125 756.5406799316406 231.95782470703125Q741.9247436523438 257.15771484375 716.724853515625 271.2696533203125Q692.532958984375 286.38958740234375 663.3010864257812 286.38958740234375Q634.0692138671875 286.38958740234375 608.8693237304688 271.2696533203125Q584.6774291992188 257.15771484375 570.0614929199219 231.95782470703125Q555.445556640625 206.7579345703125 556.4535522460938 177.52606201171875Q555.445556640625 148.294189453125 570.0614929199219 123.09429931640625Q584.6774291992188 97.8944091796875 608.8693237304688 83.782470703125Q634.0692138671875 68.66253662109375 663.3010864257812 68.66253662109375Q692.532958984375 68.66253662109375 716.724853515625 83.782470703125Q741.9247436523438 97.8944091796875 756.5406799316406 123.09429931640625Q771.1566162109375 148.294189453125 770.1486206054688 177.52606201171875Z" fill="#61b2e4" />
<path d="M898 477V761Q898 795 869 815Q845 831 811 831Q775 831 754 818Q738 883 665 889Q664 889 664 889H656Q656 889 655 889Q582 883 566 818Q545 831 509 831Q475 831 451 815Q422 795 422 761V477Q405 493 384 505Q325 539 283 501Q277 496 276 488Q275 317 315 152Q315 151 316 150Q366 16 437 -45Q517 -115 648 -119Q650 -119 653 -119Q655 -119 657 -119Q658 -119 659 -119Q659 -119 660 -119Q662 -119 664 -119Q666 -119 669 -119Q800 -115 882 -46Q954 16 1004 150Q1005 151 1005 152Q1045 317 1044 488Q1043 496 1037 501Q995 539 936 505Q915 493 898 477ZM862 419V327Q862 309 880 309Q898 309 898 327V415Q917 452 954 473Q986 491 1007 479Q1007 318 970 161Q923 38 858 -18Q785 -80 663 -82Q662 -82 660 -82Q659 -82 658 -82Q658 -82 657 -82Q655 -82 654 -82Q532 -80 461 -18Q397 37 350 161Q312 318 313 479Q334 491 366 473Q403 452 422 415V327Q422 309 440 309Q458 309 458 327V419V761Q458 775 472 785Q486 795 508 795Q560 794 562 753V583L563 413Q563 394 581 394Q599 394 599 413V779Q599 848 657 852H663Q721 848 721 779V413Q721 394 739 394Q757 394 757 413L758 583V753Q760 794 812 795Q834 795 848 785Q862 775 862 761Z" fill="#000000" />
<path d="M662 322Q580 322 495 254Q454 220 428 186Q420 175 428 164Q454 130 495 96Q580 28 662 28Q745 28 829 96Q871 130 897 164Q905 175 897 186Q871 220 829 254Q745 322 662 322ZM662 286Q732 286 806 225Q837 200 858 175Q837 150 806 125Q732 64 662 64Q593 64 519 125Q487 150 466 175Q487 200 519 225Q593 286 662 286Z" fill="#000000" />
<path d="M713.4666748046875 177.99969482421875Q713.4666748046875 188.16845703125 709.6095581054688 197.10995483398438Q705.75244140625 206.05145263671875 698.9732666015625 212.83062744140625Q692.194091796875 219.60980224609375 683.2525939941406 223.4669189453125Q674.3110961914062 227.32403564453125 664.142333984375 227.32403564453125Q653.9735717773438 227.32403564453125 645.0320739746094 223.4669189453125Q636.090576171875 219.60980224609375 629.3114013671875 212.83062744140625Q622.5322265625 206.05145263671875 618.6751098632812 197.10995483398438Q614.8179931640625 188.16845703125 614.8179931640625 177.99969482421875Q614.8179931640625 167.8309326171875 618.6751098632812 158.88943481445312Q622.5322265625 149.94793701171875 629.3114013671875 143.16876220703125Q636.090576171875 136.38958740234375 645.0320739746094 132.532470703125Q653.9735717773438 128.67535400390625 664.142333984375 128.67535400390625Q674.3110961914062 128.67535400390625 683.2525939941406 132.532470703125Q692.194091796875 136.38958740234375 698.9732666015625 143.16876220703125Q705.75244140625 149.94793701171875 709.6095581054688 158.88943481445312Q713.4666748046875 167.8309326171875 713.4666748046875 177.99969482421875Z" fill="#000000" />
<path d="M789 178Q789 230 752 266Q716 303 664 303Q612 303 575 266Q538 230 538 178Q538 126 575 89Q612 52 664 52Q716 52 752 89Q789 126 789 178ZM753 178Q753 141 727 115Q701 89 664 89Q627 89 601 115Q575 141 575 178Q575 214 601 240Q627 266 664 266Q701 266 727 240Q753 214 753 178Z" fill="#000000" />
</g></svg>