<svg xmlns="http://www.w3.org/2000/svg" viewBox="0 0 2048 2048">
<g transform="matrix(1 0 0 -1 0 2048)">
<path d="M1118 -73 1082 523H238L202 -73Z" fill="#6a462f" />
<path d="M402.661865234375 459.65765380859375V290.96771240234375H571.356201171875V459.65765380859375Z" fill="#d0cfce" />
<path d="M786.661865234375 459.65765380859375V290.96771240234375H955.356201171875V459.65765380859375Z" fill="#d0cfce" />
<path d="M1118 -91Q1119 -91 1119 -91Q1138 -90 1137 -71L1100 524Q1099 541 1082 541H238Q221 541 220 524L183 -71Q183 -72 183 -73Q183 -91 202 -91ZM1099 -54H221L256 504H1064Z" fill="#000000" />
<path d="M384 291Q384 272 403 272H571Q590 272 590 291V459Q590 478 571 478H403Q384 478 384 459ZM421 441H553V309H421Z" fill="#000000" />
<path d="M768 291Q768 272 787 272H955Q974 272 974 291V459Q974 478 955 478H787Q768 478 768 459ZM805 441H937V309H805Z" fill="#000000" />
<path d="M431 583Q431 565 450 565Q468 565 468 583Q468 717 501 775Q543 849 660 849Q777 849 819 775Q852 717 852 583Q852 565 871 565Q889 565 889 583Q889 727 851 793Q799 886 660 886Q522 886 469 793Q431 727 431 583Z" fill="#000000" />
<path d="M1118 -91Q1119 -91 1119 -91Q1138 -90 1137 -71L1100 524Q1099 541 1082 541H238Q221 541 220 524L183 -71Q183 -72 183 -73Q183 -91 202 -91ZM1099 -54H221L256 504H1064Z" fill="#000000" />
</g></svg>