<svg xmlns="http://www.w3.org/2000/svg" viewBox="0 0 2048 2048">
<g transform="matrix(1 0 0 -1 0 2048)">
<path d="M397 239Q426 241 444.5 262.5Q463 284 461 312V441Q462 449 461 458Q458 484 436.5 500.5Q415 517 389 513Q362 510 345.5 488.5Q329 467 333 441V312Q331 284 350.0 262.5Q369 241 397 239Z" fill="#fcea2b" />
<path d="M527 125Q555 127 573.5 148.5Q592 170 591 198V473Q592 482 591 490Q587 517 566.0 533.0Q545 549 518 546Q491 542 475.0 521.0Q459 500 462 473V198Q461 170 479.5 148.5Q498 127 527 125Z" fill="#fcea2b" />
<path d="M743 392 696 689 637 854Q628 879 635.5 899.0Q643 919 661.5 931.5Q680 944 702.0 946.5Q724 949 744.0 939.5Q764 930 775 904L997 349Z" fill="#fcea2b" />
<path d="M775 905Q781 930 799.0 942.0Q817 954 839.0 954.5Q861 955 880.5 944.5Q900 934 911.0 914.5Q922 895 917 867L856 690Z" fill="#fcea2b" />
<path d="M591 462Q630 573 662.5 634.0Q695 695 720.0 718.0Q745 741 763.0 736.0Q781 731 791.5 709.0Q802 687 805.5 658.5Q809 630 804 608L622 48Z" fill="#fcea2b" />
<path d="M705 111Q751 153 813 166V174V210Q813 225 791.0 238.5Q769 252 738 255L719 257Q689 259 668.0 279.5Q647 300 645 329Q647 358 668.5 376.5Q690 395 719 394H906Q937 393 960.0 372.0Q983 351 985 320L997 116Q997 47 970.5 -9.5Q944 -66 898.0 -107.0Q852 -148 791.5 -170.5Q731 -193 663 -193Q582 -194 513.0 -159.0Q444 -124 398.5 -61.5Q353 1 342 79V193Z" fill="#fcea2b" />
<path d="M796 39 818 316 315 312V185Z" fill="#fcea2b" />
<path d="M396 221Q397 221 398 221Q434 223 458 250Q482 277 480 313V440Q481 450 479 460Q475 494 448 515Q420 536 386 532Q352 527 331 500Q311 473 315 440V313Q313 277 336 250Q360 223 396 221ZM397 257Q348 262 351 311Q351 312 351 312V441Q351 442 351 443Q345 489 391 495Q437 501 443 455Q444 449 443 443Q443 442 443 441V312Q443 312 443 311Q446 262 397 257Z" fill="#000000" />
<path d="M525 106Q527 106 528 106Q564 109 588 136Q611 163 609 199V472Q610 482 609 493Q604 527 577 548Q550 569 516 564Q482 559 461 532Q440 505 444 472V199Q442 163 466 136Q489 109 525 106ZM527 143Q478 147 481 197Q481 198 481 198V473Q481 474 481 476Q474 522 520 528Q566 534 573 488Q573 482 573 476Q572 474 572 473V198Q572 198 572 197Q575 147 527 143Z" fill="#000000" />
<path d="M713 682Q719 699 702 706Q694 709 688 706Q682 704 678 695L624 553Q617 536 634 529Q643 526 649 529Q655 531 658 540Z" fill="#000000" />
<path d="M928 450Q934 433 951 440Q960 443 963 449Q965 455 962 463L792 911Q792 911 792 912Q757 990 674 959Q590 927 620 848L678 683L759 453Q766 435 783 442Q800 448 794 465L713 695L654 861Q654 861 654 861Q637 906 687 925Q737 944 758 897Z" fill="#000000" />
<path d="M839 696Q833 679 850 673Q859 670 865 673Q871 676 874 684L934 862Q934 863 935 864Q951 949 864 970Q777 991 757 909Q753 891 771 887Q779 885 785 888Q791 891 793 900Q804 947 856 934Q908 921 899 872Z" fill="#000000" />
<path d="M351 181Q351 191 346 195Q342 200 333 200Q314 201 314 182Q312 106 314 80Q322 -44 434 -131Q540 -213 669 -211Q812 -211 912 -121Q1015 -27 1015 116Q1015 117 1015 119L1003 322Q997 411 908 412H725Q689 414 662 390Q635 367 632 331Q632 329 632 328Q640 246 722 239L741 237Q797 231 797 210V180Q741 165 697 125Q684 113 696 99Q709 85 722 98Q764 136 820 148Q834 151 834 166V210Q834 263 745 273L726 275Q725 275 725 275Q674 279 669 330Q673 378 723 375Q723 375 724 375H907Q963 375 967 319L979 116Q978 -11 887 -94Q798 -175 669 -175Q552 -176 456 -102Q358 -25 351 82Q349 107 351 181Z" fill="#000000" />
</g></svg>