<svg xmlns="http://www.w3.org/2000/svg" viewBox="0 0 2048 2048">
<g transform="matrix(1 0 0 -1 0 2048)">
<path d="M1109 587Q1109 510 1066 447H1067L1054 431L684 -28H636L254 446H255Q211 510 211 587Q211 655 244.5 711.0Q278 767 334.0 800.5Q390 834 458 834Q519 834 572.0 806.5Q625 779 660 730Q695 779 748.0 806.5Q801 834 862 834Q930 834 986.0 800.5Q1042 767 1075.5 711.0Q1109 655 1109 587Z" fill="#ea5a47" />
<path d="M1105.59228515625 595.435302734375Q1125.6552734375 595.435302734375 1141.587646484375 575.96240234375Q1157.52001953125 556.489501953125 1167.2564697265625 525.21484375Q1176.992919921875 493.940185546875 1178.4681396484375 456.7646484375Q1179.943359375 419.589111328125 1171.092041015625 383.2987060546875Q1162.24072265625 347.00830078125 1140.99755859375 318.68408203125Q1122.704833984375 294.490478515625 1106.4774169921875 288.8846435546875Q1090.25 283.27880859375 1073.4324951171875 290.949951171875Q1056.614990234375 298.62109375 1035.9619140625 313.373291015625Q1015.308837890625 328.12548828125 987.8697509765625 344.3529052734375Q960.4306640625 360.580322265625 922.6650390625 372.382080078125Q923.84521484375 378.282958984375 924.1402587890625 384.183837890625Q924.435302734375 390.084716796875 924.1402587890625 405.427001953125Q923.84521484375 420.769287109375 924.435302734375 454.404296875Q924.435302734375 476.82763671875 909.68310546875 492.169921875Q927.3857421875 511.642822265625 952.4644775390625 529.935546875Q977.543212890625 548.228271484375 1005.27734375 562.98046875Q1033.011474609375 577.732666015625 1059.2703857421875 586.583984375Q1085.529296875 595.435302734375 1105.59228515625 595.435302734375Z" fill="#fcea2b" />
<path d="M925 449Q925 451 925 454Q925 476 910 492Q934 517 970.0 541.0Q1006 565 1042.5 580.0Q1079 595 1106 595Q1130 595 1147.5 569.0Q1165 543 1173.5 502.0Q1182 461 1177 418Q1172 467 1152.5 502.5Q1133 538 1106 538Q1082 538 1049.0 525.5Q1016 513 983.0 492.5Q950 472 925 449Z" fill="#f1b31c" />
<path d="M595 319Q574 347 565.5 383.0Q557 419 558.5 456.0Q560 493 569.5 524.5Q579 556 595.0 575.5Q611 595 631 595Q657 595 694.0 580.0Q731 565 767.0 541.0Q803 517 827 492Q812 476 812 454Q812 420 812.0 405.0Q812 390 812.0 384.0Q812 378 814 372Q767 357 735.0 336.0Q703 315 680.5 300.0Q658 285 638.5 286.5Q619 288 595 319Z" fill="#fcea2b" />
<path d="M812.0 449.0Q812.0 451.0 812.0 454.0Q812.0 476.0 827.0 492.0Q803.0 517.0 767.0 541.0Q731.0 565.0 694.5 580.0Q658.0 595.0 631.0 595.0Q607.0 595.0 589.5 569.0Q572.0 543.0 563.5 502.0Q555.0 461.0 560.0 418.0Q565.0 467.0 584.5 502.5Q604.0 538.0 631.0 538.0Q655.0 538.0 688.0 525.5Q721.0 513.0 754.0 492.5Q787.0 472.0 812.0 449.0Z" fill="#f1b31c" />
<path d="M811 364Q818 331 845 325Q831 287 819.0 241.0Q807 195 798.0 152.5Q789 110 783 84Q782 76 775.5 75.0Q769 74 766 81L743 134Q736 148 724 145L672 134Q666 133 663.0 138.5Q660 144 662 150Q696 226 726.0 275.0Q756 324 774 347Q792 357 811 364Z" fill="#fcea2b" />
<path d="M961 347Q979 323 1008.5 274.5Q1038 226 1072 150Q1074 144 1071.0 138.5Q1068 133 1062 134L1010 146Q998 148 991 134L968 81Q965 74 958.5 75.0Q952 76 951 84Q946 110 936.5 152.5Q927 195 915.0 241.0Q903 287 889 325Q916 331 923 364Q942 358 961 347Z" fill="#fcea2b" />
<path d="M871.008544921875 517.472412109375Q889.31640625 517.472412109375 902.0137939453125 500.345703125Q914.711181640625 483.218994140625 914.711181640625 459.595947265625V387.545654296875Q914.711181640625 363.922607421875 902.0137939453125 347.0911865234375Q889.31640625 330.259765625 871.008544921875 330.259765625H852.70068359375Q834.9833984375 330.259765625 821.99072265625 347.0911865234375Q808.998046875 363.922607421875 808.998046875 387.545654296875V459.595947265625Q808.998046875 483.218994140625 821.99072265625 500.345703125Q834.9833984375 517.472412109375 852.70068359375 517.472412109375Z" fill="#fcea2b" />
<path d="M863 387Q863 349 836 334Q844 330 853 330H871Q889 330 902.0 347.0Q915 364 915 387V459Q915 483 902.0 500.0Q889 517 871 517H853Q844 517 836 512Q863 498 863 459Z" fill="#f1b31c" />
<path d="M919 388 908 353Q953 339 1012 299Q1056 269 1078 267Q1114 263 1147 306Q1196 372 1186 475Q1177 575 1125 604Q1111 612 1097 612Q1059 612 1004 585L1000 583Q930 549 887 503L914 478Q952 519 1015 550L1016 551Q1066 575 1097 575Q1102 575 1107 572Q1142 553 1150 471Q1158 382 1117 328Q1098 302 1082 303Q1069 305 1033 330Q969 372 919 388Z" fill="#000000" />
<path d="M805 388Q784 380 765 370Q762 368 759 365Q700 286 646 164Q639 149 647 136Q657 118 676 122L728 134L726 133L749 80Q758 60 779 64Q797 67 801 87Q832 243 862 325Q869 342 852 348Q850 349 849 349Q833 353 829 374Q825 392 807 388Q806 388 805 388ZM800 346Q808 329 822 321Q796 246 771 122L759 148Q747 176 720 170L685 162Q734 269 786 339Q793 343 800 346Z" fill="#000000" />
<path d="M960 369Q940 380 920 388Q903 394 896 377Q896 376 896 374Q891 353 875 349Q857 345 861 328Q862 326 862 325Q893 243 923 87Q927 67 946 64Q966 60 975 80L998 133L997 134L1049 122Q1067 118 1077 136Q1085 149 1079 164Q1025 285 966 364Q963 367 960 369ZM939 339Q991 268 1039 162L1005 170Q977 176 965 148L953 122Q928 246 902 321Q917 329 925 346Q932 343 939 339Z" fill="#000000" />
<path d="M871 535H853Q790 535 790 459V387Q790 358 807 336Q825 312 853 312H871Q898 312 916 336Q933 358 933 387V459Q933 535 871 535ZM871 498Q896 498 896 459V387Q896 370 887 358Q880 348 871 348H853Q827 348 827 387V459Q827 498 853 498Z" fill="#000000" />
<path d="M800 485 827 510Q730 613 627 613Q559 613 540 495Q522 381 577 308Q610 264 647 269Q668 271 712 301Q771 341 816 355L805 390Q755 374 691 331Q655 306 642 305Q627 303 607 330Q560 391 576 489Q591 577 627 577Q714 577 800 485Z" fill="#000000" />
<path d="M1058 663Q1061 655 1067 652Q1073 650 1082 653Q1099 660 1092 677Q1065 747 1003 790Q939 834 862 834Q730 834 660 731Q590 834 458 834Q356 834 283 762Q211 689 211 587Q211 501 264 434Q265 433 265 432Q266 431 266 431L646 -40Q657 -54 672 -42Q673 -41 674 -40L731 31Q743 45 728 57Q714 68 703 54L660 1L296 452Q295 453 294 454Q248 512 248 587Q248 674 309 736Q371 798 458 798Q584 798 644 687Q646 682 651 679Q667 671 676 687Q736 798 862 798Q1006 798 1058 663Z" fill="#000000" />
</g></svg>