<svg xmlns="http://www.w3.org/2000/svg" viewBox="0 0 2048 2048">
<g transform="matrix(1 0 0 -1 0 2048)">
<path d="M1109 587Q1109 510 1066 447H1067L1054 431L684 -28H636L254 446H255Q211 510 211 587Q211 655 244.5 711.0Q278 767 334.0 800.5Q390 834 458 834Q519 834 572.0 806.5Q625 779 660 730Q695 779 748.0 806.5Q801 834 862 834Q930 834 986.0 800.5Q1042 767 1075.5 711.0Q1109 655 1109 587Z" fill="#ffa7c0" />
<path d="M363 88 254 -21 259 -145 368 -35 363 88Z" fill="#61b2e4" />
<path d="M145 -12 254 98H373L263 -12H145Z" fill="#92d3f5" />
<path d="M1250 978 1161 955 1072 932 1138 867 1204 801 1227 890Z" fill="#92d3f5" />
<path d="M532 159Q527 166 520 167Q514 168 507 162Q492 150 504 136L646 -40Q657 -54 672 -42Q673 -41 674 -40L1054 431Q1055 433 1056 434Q1109 501 1109 587Q1109 689 1037 762Q964 834 862 834Q730 834 660 731Q590 834 458 834Q356 834 283 762Q211 689 211 587Q211 501 264 434Q265 433 265 432Q266 431 266 431L410 253Q421 239 435 250Q450 262 438 276L296 452Q295 453 294 454Q248 512 248 587Q248 674 309 736Q371 798 458 798Q584 798 644 687Q646 682 651 679Q667 671 676 687Q736 798 862 798Q949 798 1011 736Q1073 674 1073 587Q1073 512 1026 454Q1026 454 1026 454Q1025 453 1024 452L660 1Z" fill="#000000" />
<path d="M645 345Q658 358 645 370Q633 383 620 370L372 123Q359 110 372 97Q385 84 398 97Z" fill="#000000" />
<path d="M1151.6519165039062 850.590576171875Q1157.6714477539062 857.6116333007812 1157.6721801757812 863.6303100585938Q1157.6730346679688 870.652099609375 1151.6550903320312 876.6715087890625Q1138.6162109375 889.7135620117188 1125.5741577148438 876.6746826171875L1050.33154296875 801.4503784179688Q1043.3090209960938 795.4325561523438 1043.3081665039062 788.4107666015625Q1043.3074340820312 782.39208984375 1050.328369140625 775.3694458007812Q1063.3672485351562 762.327392578125 1076.4093017578125 775.3662719726562Z" fill="#000000" />
<path d="M378 120H250Q243 120 237 115L119 -4Q106 -17 119 -30Q124 -35 132 -35H241V-144Q241 -162 259 -162Q267 -162 272 -157L391 -39Q396 -33 396 -26V102Q396 120 378 120ZM359 83V-18L278 -100V-17Q278 2 259 2H176L258 83Z" fill="#000000" />
<path d="M1268 974Q1269 978 1268 983Q1263 1001 1245 996L1156 973L1067 950Q1063 949 1059 945Q1053 939 1053 932Q1053 926 1059 919L1125 854L1191 788Q1195 784 1199 783Q1217 778 1222 796ZM1224 953 1209 894 1194 836 1151 879 1108 923 1166 938Z" fill="#000000" />
</g></svg>