<svg xmlns="http://www.w3.org/2000/svg" viewBox="0 0 2048 2048">
<g transform="matrix(1 0 0 -1 0 2048)">
<path d="M935 165Q950 177 938 191Q926 205 912 194Q882 169 848 159Q831 154 836 136Q836 136 836 135Q870 31 852 -25Q846 -42 863 -48Q881 -54 887 -36Q907 26 876 130Q907 142 935 165Z" fill="#000000" />
<path d="M429 487Q412 481 418 463Q424 446 441 452Q494 470 554 450Q616 429 647 377Q656 361 672 370Q676 372 679 376Q709 426 768 448Q823 468 875 455Q893 450 897 468Q900 477 896 482Q893 488 884 490Q822 506 755 482Q698 461 663 418Q627 465 565 485Q494 509 429 487Z" fill="#000000" />
<path d="M454 -52Q456 -61 462 -64Q467 -67 476 -65Q494 -61 489 -43Q470 33 495 147Q497 156 494 162Q490 167 481 169Q481 169 481 169Q446 177 413 201Q406 207 399 206Q393 205 387 198Q376 183 391 172Q422 148 456 138Q434 27 454 -52Z" fill="#000000" />
<path d="M1102.0865478515625 384.75445556640625Q1102.0865478515625 475.54052734375 1067.6504516601562 555.3696594238281Q1033.21435546875 635.1987915039062 972.6903076171875 695.7228393554688Q912.166259765625 756.2468872070312 832.3371276855469 790.6829833984375Q752.5079956054688 825.1190795898438 661.721923828125 825.1190795898438Q570.9358520507812 825.1190795898438 491.1067199707031 790.6829833984375Q411.277587890625 756.2468872070312 350.7535400390625 695.7228393554688Q290.2294921875 635.1987915039062 255.79339599609375 555.3696594238281Q221.3572998046875 475.54052734375 221.3572998046875 384.75445556640625Q221.3572998046875 293.9683837890625 255.79339599609375 214.13925170898438Q290.2294921875 134.31011962890625 350.7535400390625 73.78607177734375Q411.277587890625 13.26202392578125 491.1067199707031 -21.174072265625Q570.9358520507812 -55.61016845703125 661.721923828125 -55.61016845703125Q752.5079956054688 -55.61016845703125 832.3371276855469 -21.174072265625Q912.166259765625 13.26202392578125 972.6903076171875 73.78607177734375Q1033.21435546875 134.31011962890625 1067.6504516601562 214.13925170898438Q1102.0865478515625 293.9683837890625 1102.0865478515625 384.75445556640625Z" fill="#6a462f" />
<path d="M770 -17Q772 -13 789.0 -12.0Q806 -11 823.0 -8.5Q840 -6 843 1Q853 23 860.5 32.5Q868 42 869 50Q874 75 870.5 108.0Q867 141 854 198Q857 199 872.0 205.0Q887 211 907.5 224.0Q928 237 947.0 259.0Q966 281 977 313Q989 350 985.0 388.5Q981 427 962.0 460.5Q943 494 910 515Q872 538 825.0 537.5Q778 537 734.5 513.0Q691 489 663 442Q636 489 592.5 513.0Q549 537 501.5 538.0Q454 539 416 515Q384 495 363.5 462.0Q343 429 338.5 390.0Q334 351 349 313Q361 282 381.0 261.5Q401 241 422.5 229.5Q444 218 459.5 213.0Q475 208 477 208Q465 151 462.5 113.0Q460 75 464.5 45.0Q469 15 479 -16Z" fill="#a57939" />
<path d="M769 148Q714 148 659.0 148.0Q604 148 549 148Q550 146 554.0 129.0Q558 112 568.5 91.0Q579 70 599.0 54.0Q619 38 653 38Q692 38 714.5 54.0Q737 70 748.5 91.5Q760 113 764.0 130.0Q768 147 769 148Z" fill="#ffffff" />
<path d="M216 361Q175 398 148.5 437.5Q122 477 118.0 522.5Q114 568 142 622Q161 659 187.5 678.5Q214 698 241.5 705.5Q269 713 294.0 712.5Q319 712 335.0 709.5Q351 707 353 707Z" fill="#6a462f" />
<path d="M1102 368Q1144 389 1171.0 430.5Q1198 472 1201.5 524.0Q1205 576 1178 628Q1160 664 1134.0 682.0Q1108 700 1080.5 705.5Q1053 711 1028.5 709.0Q1004 707 988.0 703.5Q972 700 970 700Z" fill="#6a462f" />
<path d="M196 230Q201 265 203.0 277.0Q205 289 206.0 287.0Q207 285 207.5 278.5Q208 272 209.0 270.0Q210 268 212.0 279.5Q214 291 218 327Q214 372 216.5 436.5Q219 501 241 576Q252 611 266.5 646.0Q281 681 296.5 709.5Q312 738 326.5 754.5Q341 771 351 768Q358 766 360.0 750.0Q362 734 363.5 693.0Q365 652 369 576Q373 518 375.5 486.5Q378 455 379.0 434.0Q380 413 377 387Q372 336 360.5 297.0Q349 258 339 232Q342 199 342.5 188.0Q343 177 343.0 176.5Q343 176 343.0 175.5Q343 175 344.0 164.0Q345 153 347 120Z" fill="#a57939" />
<path d="M207 327Q207 327 209.0 331.5Q211 336 208 326Z" fill="#6a462f" />
<path d="M348 -17 183 229Q195 274 201.0 296.0Q207 318 208 326L339 231Q339 231 339.0 208.5Q339 186 340.0 149.0Q341 112 343.0 68.5Q345 25 348 -17Z" fill="#6a462f" />
<path d="M1135 207Q1131 242 1128.5 255.0Q1126 268 1124.5 269.0Q1123 270 1121.5 266.5Q1120 263 1118.5 264.0Q1117 265 1114.5 278.0Q1112 291 1108 327Q1112 372 1110.0 436.5Q1108 501 1085 576Q1075 611 1060.5 646.0Q1046 681 1030.0 709.5Q1014 738 1000.0 754.5Q986 771 976 768Q969 766 966.5 750.0Q964 734 963.0 693.0Q962 652 957 576Q953 518 950.5 486.5Q948 455 947.5 434.0Q947 413 949 387Q954 336 965.5 297.0Q977 258 987 232Q984 199 983.5 188.0Q983 177 983.0 176.5Q983 176 983.0 175.5Q983 175 982.5 164.0Q982 153 979 120Z" fill="#a57939" />
<path d="M1116 321Q1118 329 1121.0 328.0Q1124 327 1124 327Z" fill="#6a462f" />
<path d="M1137 203 979 -35Q983 9 985.0 55.0Q987 101 987.5 140.0Q988 179 988.0 203.0Q988 227 988 227L1116 321Q1115 312 1118.0 286.0Q1121 260 1137 203Z" fill="#6a462f" />
<path d="M547.0615234375 344.19287109375Q547.0615234375 355.53515625 542.75927734375 365.508544921875Q538.45703125 375.48193359375 530.8955078125 383.04345703125Q523.333984375 390.60498046875 513.360595703125 394.9072265625Q503.38720703125 399.20947265625 492.044921875 399.20947265625Q480.70263671875 399.20947265625 470.729248046875 394.9072265625Q460.755859375 390.60498046875 453.1943359375 383.04345703125Q445.6328125 375.48193359375 441.33056640625 365.508544921875Q437.0283203125 355.53515625 437.0283203125 344.19287109375Q437.0283203125 332.8505859375 441.33056640625 322.877197265625Q445.6328125 312.90380859375 453.1943359375 305.34228515625Q460.755859375 297.78076171875 470.729248046875 293.478515625Q480.70263671875 289.17626953125 492.044921875 289.17626953125Q503.38720703125 289.17626953125 513.360595703125 293.478515625Q523.333984375 297.78076171875 530.8955078125 305.34228515625Q538.45703125 312.90380859375 542.75927734375 322.877197265625Q547.0615234375 332.8505859375 547.0615234375 344.19287109375Z" fill="#000000" />
<path d="M887.0615234375 344.19287109375Q887.0615234375 355.53515625 882.75927734375 365.508544921875Q878.45703125 375.48193359375 870.8955078125 383.04345703125Q863.333984375 390.60498046875 853.360595703125 394.9072265625Q843.38720703125 399.20947265625 832.044921875 399.20947265625Q820.70263671875 399.20947265625 810.729248046875 394.9072265625Q800.755859375 390.60498046875 793.1943359375 383.04345703125Q785.6328125 375.48193359375 781.33056640625 365.508544921875Q777.0283203125 355.53515625 777.0283203125 344.19287109375Q777.0283203125 332.8505859375 781.33056640625 322.877197265625Q785.6328125 312.90380859375 793.1943359375 305.34228515625Q800.755859375 297.78076171875 810.729248046875 293.478515625Q820.70263671875 289.17626953125 832.044921875 289.17626953125Q843.38720703125 289.17626953125 853.360595703125 293.478515625Q863.333984375 297.78076171875 870.8955078125 305.34228515625Q878.45703125 312.90380859375 882.75927734375 322.877197265625Q887.0615234375 332.8505859375 887.0615234375 344.19287109375Z" fill="#000000" />
<path d="M784 135Q788 140 788 146Q788 165 770 165H549Q543 165 538 161Q530 155 530 149Q529 144 533 138Q533 136 534 132Q563 18 653 18Q756 18 785 135ZM745 128Q721 54 653 54Q596 54 573 128ZM533 137Q534 136 534 135Q533 136 533 137Z" fill="#000000" />
<path d="M643.0865478515625 227.75445556640625Q643.0865478515625 231.54052734375 641.6504516601562 234.86965942382812Q640.21435546875 238.19879150390625 637.6903076171875 240.72283935546875Q635.166259765625 243.24688720703125 631.8371276855469 244.6829833984375Q628.5079956054688 246.11907958984375 624.721923828125 246.11907958984375Q620.9358520507812 246.11907958984375 617.6067199707031 244.6829833984375Q614.277587890625 243.24688720703125 611.7535400390625 240.72283935546875Q609.2294921875 238.19879150390625 607.7933959960938 234.86965942382812Q606.3572998046875 231.54052734375 606.3572998046875 227.75445556640625Q606.3572998046875 223.9683837890625 607.7933959960938 220.63925170898438Q609.2294921875 217.31011962890625 611.7535400390625 214.78607177734375Q614.277587890625 212.26202392578125 617.6067199707031 210.825927734375Q620.9358520507812 209.38983154296875 624.721923828125 209.38983154296875Q628.5079956054688 209.38983154296875 631.8371276855469 210.825927734375Q635.166259765625 212.26202392578125 637.6903076171875 214.78607177734375Q640.21435546875 217.31011962890625 641.6504516601562 220.63925170898438Q643.0865478515625 223.9683837890625 643.0865478515625 227.75445556640625Z" fill="#000000" />
<path d="M710.0865478515625 227.75445556640625Q710.0865478515625 231.54052734375 708.6504516601562 234.86965942382812Q707.21435546875 238.19879150390625 704.6903076171875 240.72283935546875Q702.166259765625 243.24688720703125 698.8371276855469 244.6829833984375Q695.5079956054688 246.11907958984375 691.721923828125 246.11907958984375Q687.9358520507812 246.11907958984375 684.6067199707031 244.6829833984375Q681.277587890625 243.24688720703125 678.7535400390625 240.72283935546875Q676.2294921875 238.19879150390625 674.7933959960938 234.86965942382812Q673.3572998046875 231.54052734375 673.3572998046875 227.75445556640625Q673.3572998046875 223.9683837890625 674.7933959960938 220.63925170898438Q676.2294921875 217.31011962890625 678.7535400390625 214.78607177734375Q681.277587890625 212.26202392578125 684.6067199707031 210.825927734375Q687.9358520507812 209.38983154296875 691.721923828125 209.38983154296875Q695.5079956054688 209.38983154296875 698.8371276855469 210.825927734375Q702.166259765625 212.26202392578125 704.6903076171875 214.78607177734375Q707.21435546875 217.31011962890625 708.6504516601562 220.63925170898438Q710.0865478515625 223.9683837890625 710.0865478515625 227.75445556640625Z" fill="#000000" />
<path d="M223 659Q231 663 233 669Q235 676 230 684Q222 700 206 691Q163 668 139 621Q93 532 141 442Q145 434 151 432Q157 431 165 435Q182 443 173 460Q135 532 172 604Q191 642 223 659Z" fill="#000000" />
<path d="M1119 689Q1103 699 1094 683Q1085 667 1101 658Q1132 640 1150 604Q1185 536 1153 468Q1145 451 1161 443Q1170 439 1176 442Q1182 444 1186 452Q1226 537 1183 621Q1159 667 1119 689Z" fill="#000000" />
<path d="M928 37Q943 48 931 62Q920 77 906 66Q797 -18 659 -18Q526 -18 420 60Q412 66 406 65Q400 64 394 57Q383 42 398 31Q514 -55 659 -55Q809 -55 928 37Z" fill="#000000" />
<path d="M427 759Q412 749 421 734Q431 718 447 728Q544 788 659 788Q778 788 878 724Q885 719 892 721Q898 722 903 730Q913 745 897 755Q789 825 659 825Q534 825 427 759Z" fill="#000000" />
<path d="M329 0Q330 -9 335 -13Q340 -17 349 -16Q367 -15 366 3Q361 58 362 116Q362 173 358 228Q387 303 395 383Q399 422 394 493Q390 540 388 575Q385 624 382 688Q378 778 355 784Q323 793 281 717Q246 654 224 579Q193 477 200 326L179 232Q174 214 192 210Q201 208 207 212Q212 215 214 224L236 321Q237 323 237 326Q230 471 259 569Q280 640 313 699Q333 737 342 746Q342 746 342 745Q343 734 345 686Q348 622 351 573Q353 538 357 490Q362 422 359 387Q351 310 322 237Q321 233 321 229Q325 174 325 116Q325 57 329 0Z" fill="#000000" />
<path d="M961 -17Q959 -35 978 -36Q996 -38 997 -20Q1002 37 1001 106Q1001 174 1005 229Q1006 233 1004 237Q975 310 968 387Q964 422 969 490Q973 538 975 573Q978 622 981 686Q983 734 985 745Q985 746 985 746Q993 737 1014 699Q1047 640 1068 569Q1097 471 1090 326Q1089 323 1090 321L1117 201Q1121 183 1139 187Q1157 191 1153 209L1126 326Q1133 477 1103 579Q1081 654 1046 717Q1004 793 971 784Q948 778 944 688Q942 624 939 575Q936 540 933 493Q927 422 931 383Q939 303 969 228Q964 173 965 106Q965 38 961 -17Z" fill="#000000" />
</g></svg>