<svg xmlns="http://www.w3.org/2000/svg" viewBox="0 0 2048 2048">
<g transform="matrix(1 0 0 -1 0 2048)">
<path d="M202 843V-73H1118V843Z" fill="#b399c8" />
<path d="M953.9369506835938 483.930908203125Q953.9415893554688 428.9788818359375 919.2387084960938 385.5927734375L660.412841796875 64.535400390625L401.53277587890625 385.549072265625Q366.82257080078125 428.9293212890625 366.81793212890625 483.88134765625Q366.81243896484375 548.9561157226562 412.3609313964844 594.5122985839844Q457.909423828125 640.0684814453125 522.9841918945312 640.073974609375Q567.8134765625 640.0777587890625 603.9680786132812 616.943115234375Q640.1226806640625 593.8084716796875 660.3712158203125 557.6575317382812Q680.6136474609375 593.8118896484375 716.7643432617188 616.95263671875Q752.9150390625 640.0933837890625 797.7443237304688 640.09716796875Q862.819091796875 640.1026611328125 908.3752746582031 594.5541687011719Q953.9314575195312 549.0056762695312 953.9369506835938 483.930908203125Z" fill="#ffffff" />
<path d="M183 -73Q183 -92 202 -92H1118Q1137 -92 1137 -73V843Q1137 862 1118 862H202Q183 862 183 843ZM220 825H1100V-55H220Z" fill="#000000" />
<path d="M972 483Q972 556 921 607Q870 658 797 658Q709 658 660 592Q611 658 523 658Q450 658 399 607Q348 556 348 483Q348 423 386 376Q386 375 387 374Q387 374 387 374L646 53Q657 39 672 50Q673 52 674 53L933 374Q934 375 935 376Q972 423 972 483ZM935 483Q935 435 904 397Q904 397 904 397Q904 396 903 395L660 94L417 395Q416 396 416 397Q385 435 385 483Q385 540 425 581Q466 621 523 621Q605 621 644 549Q646 544 651 541Q667 533 676 549Q715 621 797 621Q854 621 895 581Q935 540 935 483Z" fill="#000000" />
</g></svg>