<svg xmlns="http://www.w3.org/2000/svg" viewBox="0 0 2048 2048">
<g transform="matrix(1 0 0 -1 0 2048)">
<path d="M717.0615234375 -33.80712890625Q717.0615234375 -22.46484375 712.75927734375 -12.491455078125Q708.45703125 -2.51806640625 700.8955078125 5.04345703125Q693.333984375 12.60498046875 683.360595703125 16.9072265625Q673.38720703125 21.20947265625 662.044921875 21.20947265625Q650.70263671875 21.20947265625 640.729248046875 16.9072265625Q630.755859375 12.60498046875 623.1943359375 5.04345703125Q615.6328125 -2.51806640625 611.33056640625 -12.491455078125Q607.0283203125 -22.46484375 607.0283203125 -33.80712890625Q607.0283203125 -45.1494140625 611.33056640625 -55.122802734375Q615.6328125 -65.09619140625 623.1943359375 -72.65771484375Q630.755859375 -80.21923828125 640.729248046875 -84.521484375Q650.70263671875 -88.82373046875 662.044921875 -88.82373046875Q673.38720703125 -88.82373046875 683.360595703125 -84.521484375Q693.333984375 -80.21923828125 700.8955078125 -72.65771484375Q708.45703125 -65.09619140625 712.75927734375 -55.122802734375Q717.0615234375 -45.1494140625 717.0615234375 -33.80712890625Z" fill="#d22f27" />
<path d="M660 140Q679 140 692.5 153.5Q706 167 706 186V831Q706 850 692.5 863.5Q679 877 660 877Q641 877 627.5 863.5Q614 850 614 831V186Q614 167 627.5 153.5Q641 140 660 140Z" fill="#d22f27" />
<path d="M735 -34Q735 -3 714 18Q692 40 662 40Q588 40 588 -34Q588 -64 610 -86Q631 -107 662 -107Q692 -107 714 -86Q735 -64 735 -34ZM698 -34Q698 -70 662 -70Q625 -70 625 -34Q625 3 662 3Q698 3 698 -34Z" fill="#000000" />
<path d="M660 121Q686 121 705 140Q724 159 724 186V831Q724 895 660 895Q633 895 614 877Q596 858 596 831V186Q596 159 614 140Q633 121 660 121ZM660 158Q648 158 640 166Q632 174 632 186V831Q632 843 640 851Q648 859 660 859Q687 859 687 831V186Q687 174 679 166Q671 158 660 158Z" fill="#000000" />
</g></svg>