<svg xmlns="http://www.w3.org/2000/svg" viewBox="0 0 2048 2048">
<g transform="matrix(1 0 0 -1 0 2048)">
<path d="M657 901Q716 900 775.5 883.0Q835 866 884.5 826.5Q934 787 964.5 717.5Q995 648 995 541L1015 439H964Q938 438 911.5 443.5Q885 449 859.5 450.5Q834 452 811 439Q788 426 762.5 424.5Q737 423 711.0 425.5Q685 428 660 428Q636 428 608.5 425.5Q581 423 554.0 424.5Q527 426 504 439Q481 452 464.5 450.5Q448 449 430.0 443.5Q412 438 385 439Q376 441 361.5 452.0Q347 463 332.5 472.5Q318 482 309 481L318 541Q319 648 349.5 717.5Q380 787 430.0 826.5Q480 866 539.5 883.0Q599 900 657 901Z" fill="#ea5a47" />
<path d="M1117 490Q1117 490 1091.5 487.5Q1066 485 1024.0 480.5Q982 476 930.5 471.5Q879 467 827.5 463.0Q776 459 731.0 457.0Q686 455 657 456Q536 461 455.0 466.0Q374 471 325.5 475.5Q277 480 253.0 483.5Q229 487 221.0 489.0Q213 491 213.5 491.5Q214 492 215 490Q170 473 157.0 454.0Q144 435 148.5 419.5Q153 404 164.5 395.0Q176 386 181 388Q181 388 203.5 381.5Q226 375 264 362Q340 336 504 337Q558 338 582.5 337.0Q607 336 618.0 336.0Q629 336 640 337Q700 343 760 337Q870 346 936.0 352.5Q1002 359 1034.0 363.0Q1066 367 1074.5 369.0Q1083 371 1077.0 372.0Q1071 373 1061.5 372.5Q1052 372 1049 371Q1110 382 1135.0 397.0Q1160 412 1161.5 428.0Q1163 444 1152.0 458.5Q1141 473 1129.0 481.5Q1117 490 1117 490Z" fill="#d22f27" />
<path d="M812 878H775V622Q657 562 540 622V882H503V601L512 595Q657 515 803 595L812 601Z" fill="#000000" />
<path d="M290 482Q290 464 308 464Q327 464 327 482Q327 596 383 707Q441 820 526 860Q588 889 657 889Q794 889 891 785Q988 681 988 533Q988 531 988 522Q988 488 988 483Q988 474 992 469Q996 464 1005 464Q1024 463 1025 481Q1025 487 1025 522Q1025 531 1025 533Q1025 695 918 810Q810 926 657 926Q580 926 510 893Q414 848 351 724Q290 605 290 482Z" fill="#000000" />
<path d="M352 287Q352 296 347 301Q342 305 333 305Q315 304 316 285Q320 184 364 83Q454 -124 657 -124Q861 -124 951 83Q995 184 999 285Q1000 295 995 299Q991 304 982 305Q963 305 963 287Q959 193 917 98Q837 -87 657 -87Q478 -87 398 98Q356 193 352 287Z" fill="#000000" />
<path d="M1095 508Q1079 509 1076 492Q1074 483 1078 478Q1082 473 1091 471Q1093 471 1095 471Q1148 472 1150 438Q1152 408 1107 398Q885 356 658 356Q640 356 640 337Q640 319 658 319Q888 320 1114 362H1115Q1190 380 1186 441Q1182 509 1095 508Z" fill="#000000" />
<path d="M226 471Q244 474 241 492Q239 501 234 505Q229 508 222 508Q135 509 130 441Q126 380 201 362H202Q428 320 658 319Q677 319 677 337Q677 356 658 356Q432 356 209 398Q165 408 167 438Q169 472 222 471Q224 471 226 471Z" fill="#000000" />
<path d="M506 475Q488 476 486 458Q484 440 502 438Q657 423 812 438Q831 440 829 458Q827 476 809 475Q657 460 506 475Z" fill="#000000" />
<path d="M541 -41Q528 -33 513 -36Q498 -40 490 -52Q482 -65 486 -80Q489 -95 502 -103Q541 -128 599 -140Q716 -164 813 -103Q826 -95 829 -80Q833 -65 825 -52Q817 -40 802 -36Q787 -33 774 -41Q702 -87 614 -68Q569 -59 541 -41Z" fill="#000000" />
<path d="M531 882 521 610Q562 584 601.5 576.5Q641 569 676.0 572.5Q711 576 737.5 585.0Q764 594 779.0 602.0Q794 610 794 610L790 879Q750 903 705.0 907.0Q660 911 620.5 904.5Q581 898 556.0 890.0Q531 882 531 882Z" fill="#000000" />
<path d="M677 818Q677 836 658 836Q640 836 640 818V673Q640 655 658 655Q677 655 677 673Z" fill="#ffffff" />
<path d="M594.7551879882812 763.9578247070312Q576.7321166992188 763.4777221679688 576.2109375 745.427978515625Q576.6910400390625 727.4049072265625 594.7407836914062 726.8837280273438L721.9835815429688 727.2672729492188Q741.0346069335938 726.7727661132812 740.52783203125 745.797119140625Q741.0490112304688 763.8468627929688 722.024658203125 763.340087890625Z" fill="#ffffff" />
</g></svg>