<svg xmlns="http://www.w3.org/2000/svg" viewBox="0 0 2048 2048">
<g transform="matrix(1 0 0 -1 0 2048)">
<path d="M675.101806640625 713.6002807617188Q663.2623901367188 725.3367919921875 648.6684265136719 730.9022827148438Q634.074462890625 736.4677734375 620.80810546875 738.2906799316406Q607.541748046875 740.1135864257812 598.6284484863281 739.9554748535156Q589.7151489257812 739.79736328125 589.7151489257812 739.79736328125Q589.7151489257812 739.79736328125 590.1625671386719 731.3621520996094Q590.6099853515625 722.9269409179688 593.2909240722656 709.5477905273438Q595.9718627929688 696.1686401367188 601.9552917480469 681.7707824707031Q607.938720703125 667.3729248046875 620.0674438476562 656.114501953125Q632.1961669921875 644.8560791015625 646.6454772949219 639.0515441894531Q661.0947875976562 633.2470092773438 674.7448425292969 631.5184936523438Q688.3948974609375 629.7899780273438 696.9244995117188 629.8536987304688Q705.4541015625 629.9174194335938 705.4541015625 629.9174194335938Q705.4541015625 629.9174194335938 705.1513366699219 638.5916748046875Q704.8485717773438 647.2659301757812 702.4066772460938 660.5004272460938Q699.9647827148438 673.7349243164062 693.59765625 688.0383911132812Q687.2305297851562 702.3418579101562 675.101806640625 713.6002807617188Z" fill="#b1cc33" />
<path d="M772 48Q803 58 828.0 79.0Q853 100 870.5 122.5Q888 145 897.5 161.0Q907 177 907 177Q907 177 892.0 185.0Q877 193 852.5 202.0Q828 211 797.5 214.5Q767 218 736 208Q704 198 679.0 177.0Q654 156 636.5 133.5Q619 111 609.5 95.0Q600 79 600 79Q600 79 615.0 71.0Q630 63 654.5 54.0Q679 45 709.5 41.5Q740 38 772 48Z" fill="#5c9e31" />
<path d="M899.3837890625 390.736328125Q923.950927734375 397.9091796875 944.04736328125 413.853271484375Q964.143798828125 429.79736328125 978.3826904296875 447.0843505859375Q992.62158203125 464.371337890625 1000.4344482421875 476.72900390625Q1008.247314453125 489.086669921875 1008.247314453125 489.086669921875Q1008.247314453125 489.086669921875 996.64208984375 495.699462890625Q985.036865234375 502.312255859375 965.9923095703125 509.919189453125Q946.94775390625 517.526123046875 923.0699462890625 520.9451904296875Q899.192138671875 524.3642578125 874.625 517.19140625Q849.2724609375 510.04052734375 829.176025390625 494.096435546875Q809.07958984375 478.15234375 794.8406982421875 460.8653564453125Q780.601806640625 443.578369140625 772.7889404296875 431.220703125Q764.97607421875 418.863037109375 764.97607421875 418.863037109375Q764.97607421875 418.863037109375 776.581298828125 412.250244140625Q788.1865234375 405.637451171875 807.2310791015625 398.030517578125Q826.275634765625 390.423583984375 850.1534423828125 387.0045166015625Q874.03125 383.58544921875 899.3837890625 390.736328125Z" fill="#b1cc33" />
<path d="M495.39117431640625 455.21240234375Q474.2869873046875 471.58099365234375 449.99896240234375 477.6016540527344Q425.7109375 483.622314453125 404.2599792480469 483.9486083984375Q382.80902099609375 484.27490234375 368.6648864746094 482.2949523925781Q354.520751953125 480.31500244140625 354.520751953125 480.31500244140625Q354.520751953125 480.31500244140625 356.8680725097656 466.9872741699219Q359.21539306640625 453.6595458984375 366.07342529296875 432.9026184082031Q372.93145751953125 412.14569091796875 385.2389831542969 390.4091491699219Q397.5465087890625 368.672607421875 419.01806640625 353.12042236328125Q440.4896240234375 337.5682373046875 464.5939636230469 331.1393737792969Q488.69830322265625 324.71051025390625 510.74114990234375 324.6087341308594Q532.7839965820312 324.5069580078125 546.3362426757812 326.26239013671875Q559.8884887695312 328.017822265625 559.8884887695312 328.017822265625Q559.8884887695312 328.017822265625 557.724853515625 341.7537536621094Q555.5612182617188 355.48968505859375 549.1113891601562 376.06292724609375Q542.6615600585938 396.63616943359375 529.7621459960938 418.148193359375Q516.8627319335938 439.66021728515625 495.39117431640625 455.21240234375Z" fill="#5c9e31" />
<path d="M688 727Q650 763 589 758Q572 757 572 740Q570 679 608 643Q645 607 707 611Q723 613 724 629Q726 691 688 727ZM663 700Q683 681 687 648Q654 649 633 669Q612 689 609 722Q642 720 663 700Z" fill="#000000" />
<path d="M506 470Q443 517 351 499Q335 495 336 479Q345 385 408 338Q471 291 563 310Q579 313 578 330Q569 423 506 470ZM484 441Q529 408 539 343Q474 335 430 368Q385 401 375 465Q440 474 484 441Z" fill="#000000" />
<path d="M777 31Q869 60 923 169Q930 183 917 192Q823 255 730 225Q638 196 584 88Q577 73 590 64Q684 1 777 31ZM766 66Q697 44 625 86Q670 168 741 190Q811 212 883 170Q837 88 766 66Z" fill="#000000" />
<path d="M904 373Q979 394 1024 480Q1032 494 1019 503Q945 556 869 534Q795 513 749 427Q742 413 755 404Q829 351 904 373ZM894 408Q842 393 790 425Q826 484 879 499Q931 514 984 483Q947 424 894 408Z" fill="#000000" />
<path d="M750 572Q750 591 732 591Q713 591 713 572Q713 475 627 341Q609 313 579 278Q472 151 503 -28Q505 -37 510 -41Q516 -45 525 -43Q543 -40 540 -22Q511 141 607 254Q638 292 657 322Q750 464 750 572Z" fill="#000000" />
</g></svg>