<svg xmlns="http://www.w3.org/2000/svg" viewBox="0 0 2048 2048">
<g transform="matrix(1 0 0 -1 0 2048)">
<path d="M312 733V843H1008V733Z" fill="#f4aa41" />
<path d="M825 -55H495Q438 -55 388.0 -33.5Q338 -12 300.5 25.5Q263 63 241.5 113.0Q220 163 220 220V642Q220 680 247.0 706.5Q274 733 312 733H1008Q1046 733 1073.0 706.5Q1100 680 1100 642V220Q1100 163 1078.5 113.0Q1057 63 1019.5 25.5Q982 -12 932.0 -33.5Q882 -55 825 -55Z" fill="#f4aa41" />
<path d="M1008 733V843H605V733H642H1008Q1027 733 1045 726V623Q1045 601 1029.0 584.5Q1013 568 990 568Q967 568 951.0 584.5Q935 601 935 623V275Q935 252 919.0 236.0Q903 220 880 220Q857 220 841.0 236.0Q825 252 825 275V477Q825 439 798.0 412.0Q771 385 733 385Q695 385 668.5 412.0Q642 439 642 477V733Z" fill="#fcea2b" />
<path d="M990 733Q990 715 1008 715Q1027 715 1027 733V843Q1027 862 1008 862H312Q293 862 293 843V733Q293 715 312 715Q330 715 330 733V825H990Z" fill="#000000" />
<path d="M953 275Q953 293 935 293Q917 293 917 275Q917 238 880 238Q843 238 843 275Q843 293 825 293Q807 293 807 275Q807 202 880 202Q953 202 953 275Z" fill="#000000" />
<path d="M953 623Q953 642 935 642Q917 642 917 623Q917 550 990 550Q1063 550 1063 623V715Q1063 733 1045 733Q1027 733 1027 715V623Q1027 587 990 587Q953 587 953 623Z" fill="#000000" />
<path d="M843 477Q843 495 825 495Q807 495 807 477Q807 403 733 403Q660 403 660 477Q660 495 642 495Q623 495 623 477Q623 431 656 399Q688 367 733 367Q779 367 811 399Q843 431 843 477Z" fill="#000000" />
<path d="M807 275Q807 257 825 257Q843 257 843 275V477Q843 495 825 495Q807 495 807 477Z" fill="#000000" />
<path d="M917 275Q917 257 935 257Q953 257 953 275V623Q953 642 935 642Q917 642 917 623Z" fill="#000000" />
<path d="M623 477Q623 458 642 458Q660 458 660 477V733Q660 752 642 752Q623 752 623 733Z" fill="#000000" />
<path d="M587 733Q587 715 605 715Q623 715 623 733V843Q623 862 605 862Q587 862 587 843Z" fill="#000000" />
<path d="M825 -73Q946 -73 1032 13Q1118 99 1118 220V642Q1118 687 1086 719Q1054 752 1008 752H312Q266 752 234 719Q202 687 202 642V220Q202 99 288 13Q374 -73 495 -73ZM825 -37H495Q389 -37 314 39Q238 114 238 220V642Q238 715 312 715H1008Q1082 715 1082 642V220Q1082 114 1006 39Q931 -37 825 -37Z" fill="#000000" />
</g></svg>