<svg xmlns="http://www.w3.org/2000/svg" viewBox="0 0 2048 2048">
<g transform="matrix(1 0 0 -1 0 2048)">
<path d="M151.0 367.0 390.0 -46.0Q401.0 -64.0 421.0 -64.0H899.0Q919.0 -64.0 930.0 -46.0L1169.0 367.0Q1179.0 385.0 1169.0 403.0L930.0 816.0Q919.0 834.0 899.0 834.0H421.0Q401.0 834.0 390.0 816.0L151.0 403.0Q141.0 385.0 151.0 367.0Z" fill="#000000" />
<path d="M151.0 367.0 390.0 -46.0Q401.0 -64.0 421.0 -64.0H899.0Q919.0 -64.0 930.0 -46.0L1169.0 367.0Q1179.0 385.0 1169.0 403.0L930.0 816.0Q919.0 834.0 899.0 834.0H421.0Q401.0 834.0 390.0 816.0L151.0 403.0Q141.0 385.0 151.0 367.0Z" fill="#3f3f3f" />
<path d="M136.0 358.0 374.0 -56.0Q390.0 -83.0 421.0 -83.0H899.0Q930.0 -83.0 946.0 -56.0L1184.0 358.0Q1200.0 385.0 1184.0 412.0L946.0 826.0Q930.0 853.0 899.0 853.0H421.0Q390.0 853.0 374.0 826.0L136.0 412.0Q120.0 385.0 136.0 358.0ZM167.0 376.0Q162.0 385.0 167.0 394.0L406.0 807.0Q411.0 816.0 421.0 816.0H899.0Q909.0 816.0 914.0 807.0L1153.0 394.0Q1158.0 385.0 1153.0 376.0L914.0 -37.0Q909.0 -46.0 899.0 -46.0H421.0Q411.0 -46.0 406.0 -37.0Z" fill="#000000" />
</g></svg>