<svg xmlns="http://www.w3.org/2000/svg" viewBox="0 0 2048 2048">
<g transform="matrix(1 0 0 -1 0 2048)">
<path d="M418 832Q461 829 499 810L520 799Q537 790 557 793L620 799Q638 801 657 798L760 780L855 704L904 622L986 553L1030 473L1029 374L1053 336L1095 290Q1130 252 1148 203Q1164 160 1167 114L1173 50Q1129 -14 1075.0 -51.5Q1021 -89 962.5 -105.5Q904 -122 847.0 -123.0Q790 -124 738.5 -115.5Q687 -107 647.5 -95.0Q608 -83 586 -73Q565 -64 568.5 -57.5Q572 -51 578 -43Q587 -31 602.5 -18.0Q618 -5 623 9L637 39Q646 62 652.5 89.0Q659 116 657 141L648 201Q637 218 630.5 227.0Q624 236 613 244Q563 281 541.5 301.5Q520 322 514.5 330.0Q509 338 509 338L374 296L325 250L255 262L217 275L198 340L367 620L451 713Z" fill="#a57939" />
<path d="M1191 -98Q1198 -115 1187.0 -128.5Q1176 -142 1159 -139Q1125 -132 1085.0 -112.0Q1045 -92 1012.5 -61.5Q980 -31 971 10L970 16V30Q958 29 936.0 31.5Q914 34 888.0 46.0Q862 58 837.5 85.0Q813 112 797 161L782 205Q768 249 770 294L774 359L800 463L795 552L753 632L688 684L582 722L537 796L731 785Q730 784 747.5 775.0Q765 766 793.0 746.5Q821 727 850.0 694.0Q879 661 899 611L915 617L1001 536Q1001 536 1012.5 511.0Q1024 486 1032.5 441.0Q1041 396 1031 336L1055 340Q1055 340 1072.5 326.5Q1090 313 1114.0 282.5Q1138 252 1157.5 200.5Q1177 149 1180 71Q1181 48 1180.5 16.5Q1180 -15 1181.5 -46.0Q1183 -77 1191 -98ZM961 57Q963 54 965.0 50.5Q967 47 969 44V50Z" fill="#6a462f" />
<path d="M1063 380Q1052 395 1038 384Q1023 373 1034 358Q1038 352 1049 339Q1149 218 1141 72Q1140 54 1159 53Q1177 52 1178 70Q1186 230 1078 362Q1067 375 1063 380Z" fill="#000000" />
<path d="M584 308Q570 320 559 305Q547 291 561 280Q596 252 614 198Q650 90 558 -40Q547 -55 562 -65Q577 -76 588 -61Q690 84 649 210Q627 274 584 308Z" fill="#000000" />
<path d="M641 497Q639 515 621 514Q603 513 604 495Q612 370 414 327Q403 325 399 324Q385 321 374 310L333 270Q329 265 322 265H258Q234 265 227 287L217 317Q212 331 220 344L380 610L465 695Q473 703 469 714L438 817Q459 816 481 810Q543 792 549 735Q551 721 565 719Q637 709 697 662Q812 570 744 388Q743 388 743 387Q735 357 737 315Q740 230 790 166Q801 151 816 162Q830 173 819 188Q751 276 778 376Q855 582 719 690Q658 739 584 753Q570 823 491 845Q451 857 411 853Q410 853 408 853Q390 847 396 830L431 714L352 635Q351 633 350 631L188 363Q172 335 182 305L192 276Q208 228 258 228H322Q344 228 359 244L400 284Q403 288 407 289Q411 289 422 292Q651 341 641 497Z" fill="#000000" />
<path d="M541 823Q523 820 526 801Q527 792 533 789Q538 785 547 787Q644 804 736 769Q916 701 892 441Q890 422 908 421Q917 420 922 424Q927 428 928 437Q956 726 749 804Q648 842 541 823Z" fill="#000000" />
<path d="M900 654Q891 658 885 655Q879 653 876 645Q868 628 885 621Q948 592 991 531Q1077 409 977 240Q951 207 939 158Q915 56 990 -31Q1002 -45 1016 -33Q1030 -22 1018 -8Q955 66 975 149Q985 191 1006 218Q1007 219 1008 221Q1121 410 1021 552Q972 622 900 654Z" fill="#000000" />
<path d="M461.49951171875 531.32568359375Q461.49951171875 538.84765625 458.64306640625 545.5126953125Q455.78662109375 552.177734375 450.740234375 557.22412109375Q445.69384765625 562.2705078125 439.076416015625 565.126953125Q432.458984375 567.9833984375 424.841796875 567.9833984375Q417.224609375 567.9833984375 410.607177734375 565.126953125Q403.98974609375 562.2705078125 398.943359375 557.22412109375Q393.89697265625 552.177734375 391.04052734375 545.5126953125Q388.18408203125 538.84765625 388.18408203125 531.32568359375Q388.18408203125 523.70849609375 391.04052734375 517.04345703125Q393.89697265625 510.37841796875 398.943359375 505.33203125Q403.98974609375 500.28564453125 410.607177734375 497.476806640625Q417.224609375 494.66796875 424.841796875 494.66796875Q432.458984375 494.66796875 439.076416015625 497.476806640625Q445.69384765625 500.28564453125 450.740234375 505.33203125Q455.78662109375 510.37841796875 458.64306640625 517.04345703125Q461.49951171875 523.70849609375 461.49951171875 531.32568359375Z" fill="#000000" />
</g></svg>