<svg xmlns="http://www.w3.org/2000/svg" viewBox="0 0 2048 2048">
<g transform="matrix(1 0 0 -1 0 2048)">
<path d="M660.0 91.986572265625Q752.0 91.986572265625 826.0 136.98519897460938Q900.0 181.98382568359375 945.0 255.9815673828125Q990.0 329.97930908203125 990.0 421.97650146484375H330.0Q330.0 329.97930908203125 375.0 255.9815673828125Q420.0 181.98382568359375 494.0 136.98519897460938Q568.0 91.986572265625 660.0 91.986572265625Z" fill="#ffffff" />
<path d="M891 117Q891 117 896 117Q900 117 901.0 114.0Q902 111 897 103Q887 88 880.0 77.5Q873 67 862 54Q860 51 857 50H847Q849 50 851 50Q855 50 857 50H1002Q1004 50 1013.0 59.0Q1022 68 1034.0 80.0Q1046 92 1056 101Q1058 105 1060.0 107.0Q1062 109 1064 110Q1067 113 1066.5 114.0Q1066 115 1059 115Q1059 115 1038.0 115.0Q1017 115 988.0 115.5Q959 116 933.0 116.5Q907 117 896 117Q895 117 892 117Z" fill="#d0cfce" />
<path d="M853 137Q929 186 962.0 249.0Q995 312 995 407H839Q835 344 827.5 299.5Q820 255 803.0 217.5Q786 180 753 137Z" fill="#d0cfce" />
<path d="M1009 408Q1009 408 1023.5 405.5Q1038 403 1057.0 393.5Q1076 384 1089.5 364.0Q1103 344 1102 309Q1101 280 1086.0 264.0Q1071 248 1049.5 241.5Q1028 235 1006.5 234.0Q985 233 971.0 235.0Q957 237 957 237Z" fill="#ffffff" />
<path d="M725 657Q752 684 752.0 722.0Q752 760 725 786Q698 813 660.0 813.0Q622 813 595 786Q611 802 634.0 802.0Q657 802 673 786Q689 770 689.0 747.5Q689 725 673 709L610 645Q583 618 583.0 580.0Q583 542 610 515Q636 489 674.0 489.0Q712 489 739 515Q723 499 700.5 499.0Q678 499 661 515Q645 532 645.0 554.5Q645 577 661 593Z" fill="#d0cfce" />
<path d="M681 574 744 637Q779 672 779 722Q779 771 744 806Q709 841 660 841Q611 841 576 806L595 786L615 767Q634 786 654 767Q673 748 654 728L590 665Q555 630 555 580Q555 531 590 496Q625 461 674 461Q724 461 759 496Q759 496 759 496L739 515L720 535Q700 515 681 535Q673 543 673 554Q673 566 681 574ZM618 549Q610 563 610 580Q610 607 629 626L693 689Q717 713 717 748Q717 751 716 754Q744 715 705 676L642 613Q618 589 618 554Q618 552 618 549Z" fill="#d0cfce" />
<path d="M586.0029296875 796.5865478515625Q583.3646850585938 793.9269409179688 582.4708251953125 790.3661499023438Q581.5769653320312 786.8053588867188 582.4992065429688 783.3275756835938Q583.4214477539062 779.8497924804688 586.1570434570312 777.1361694335938Q588.816650390625 774.4979248046875 592.3017578125 773.603759765625Q595.786865234375 772.7095947265625 599.34033203125 773.6321411132812Q602.893798828125 774.5546875 605.5320434570312 777.2142944335938Z" fill="#d0cfce" />
<path d="M615 767 595 787 576 806Q568 798 568 787Q568 775 576 767Q596 748 615 767Z" fill="#d0cfce" />
<path d="M730.3821411132812 525.9344482421875Q733.041748046875 528.5726928710938 736.6014709472656 529.4644165039062Q740.1611938476562 530.3561401367188 743.63720703125 529.4303588867188Q747.1132202148438 528.5045776367188 749.8246459960938 525.7645874023438Q752.4607543945312 523.1007080078125 753.3531494140625 519.612060546875Q754.2455444335938 516.1234130859375 753.3219299316406 512.5678100585938Q752.3983154296875 509.01220703125 749.7387084960938 506.37396240234375Z" fill="#d0cfce" />
<path d="M740 516 759 496Q779 516 759 535Q740 555 720 535L740 516Z" fill="#d0cfce" />
<path d="M428 162Q435 156 441 156Q448 157 454 163Q466 177 452 189Q355 276 349 403H971Q965 276 868 189Q854 177 866 163Q879 150 892 162Q1008 266 1008 422Q1008 440 990 440H330Q312 440 312 422Q312 266 428 162Z" fill="#000000" />
<path d="M935 238Q917 238 917 220Q917 202 935 202H1018Q1067 202 1102 237Q1137 271 1137 321Q1137 370 1102 405Q1067 440 1018 440H972Q953 440 953 422Q953 403 972 403H1018Q1052 403 1076 379Q1100 355 1100 321Q1100 287 1076 262Q1052 238 1018 238Z" fill="#000000" />
<path d="M1070 148H303Q284 148 276 131Q268 114 280 100L335 39Q352 18 380 18H990Q1014 18 1030 34L1093 92Q1108 108 1100 128Q1092 148 1070 148ZM319 111H1060L1005 61V60Q999 54 990 54H380Q370 54 363 62V63Z" fill="#000000" />
</g></svg>