<svg xmlns="http://www.w3.org/2000/svg" viewBox="0 0 2048 2048">
<g transform="matrix(1 0 0 -1 0 2048)">
<path d="M311.5877685546875 733.1798706054688V36.51513671875H1008.2723388671875V733.1798706054688Z" fill="#d0cfce" />
<path d="M1008.238037109375 677.717041015625V36.025390625H1219.107177734375V677.717041015625Z" fill="#d0cfce" />
<path d="M1082 495Q1082 476 1100 476H1137Q1155 476 1155 495V586Q1155 605 1137 605H1100Q1082 605 1082 586Z" fill="#92d3f5" />
<path d="M1082 312Q1082 293 1100 293H1137Q1155 293 1155 312V403Q1155 422 1137 422H1100Q1082 422 1082 403Z" fill="#92d3f5" />
<path d="M1082 129Q1082 110 1100 110H1137Q1155 110 1155 129V220Q1155 239 1137 239H1100Q1082 239 1082 220Z" fill="#92d3f5" />
<path d="M91.761962890625 677.717041015625V36.025390625H320.892822265625V677.717041015625Z" fill="#d0cfce" />
<path d="M165 495Q165 476 183 476H220Q238 476 238 495V586Q238 605 220 605H183Q165 605 165 586Z" fill="#92d3f5" />
<path d="M165 312Q165 293 183 293H220Q238 293 238 312V403Q238 422 220 422H183Q165 422 165 403Z" fill="#92d3f5" />
<path d="M165 129Q165 110 183 110H220Q238 110 238 129V220Q238 239 220 239H183Q165 239 165 220Z" fill="#92d3f5" />
<path d="M550 550Q550 531 568 531H605Q623 531 623 550V641Q623 660 605 660H568Q550 660 550 641Z" fill="#92d3f5" />
<path d="M697 550Q697 531 715 531H752Q770 531 770 550V641Q770 660 752 660H715Q697 660 697 641Z" fill="#92d3f5" />
<path d="M843 550Q843 531 861 531H898Q916 531 916 550V641Q916 660 898 660H861Q843 660 843 641Z" fill="#92d3f5" />
<path d="M403 550Q403 531 421 531H458Q476 531 476 550V641Q476 660 458 660H421Q403 660 403 641Z" fill="#92d3f5" />
<path d="M422.0877685546875 293.326904296875V36.607421875H898.7723388671875V293.326904296875Z" fill="#9b9b9a" />
<path d="M394.7127685546875 458.48870849609375V293.46240234375H926.3973388671875V458.48870849609375Z" fill="#fcea2b" />
<path d="M577.875 219.6763916015625V36.2900390625H742.875V219.6763916015625Z" fill="#92d3f5" />
<path d="M293 37Q293 18 312 18H1008Q1027 18 1027 37V733Q1027 752 1008 752H312Q293 752 293 733ZM330 715H990V55H330Z" fill="#000000" />
<path d="M990 37Q990 18 1008 18H1219Q1238 18 1238 37V678Q1238 697 1219 697H1008Q990 697 990 678ZM1027 660H1201V55H1027Z" fill="#000000" />
<path d="M73 37Q73 18 91 18H302Q321 18 321 37V678Q321 697 302 697H91Q73 697 73 678ZM110 660H284V55H110Z" fill="#000000" />
<path d="M403 37Q403 18 422 18H898Q917 18 917 37V293Q917 312 898 312H422Q403 312 403 293ZM440 275H880V55H440Z" fill="#000000" />
<path d="M376 293Q376 275 394 275H926Q944 275 944 293V458Q944 477 926 477H394Q376 477 376 458ZM413 440H908V312H413Z" fill="#000000" />
<path d="M477 37Q477 18 495 18Q513 18 513 37V293Q513 312 495 312Q477 312 477 293Z" fill="#000000" />
<path d="M807 37Q807 18 825 18Q843 18 843 37V293Q843 312 825 312Q807 312 807 293Z" fill="#000000" />
<path d="M559 37Q559 19 578 19H743Q761 19 761 37V220Q761 239 743 239H578Q559 239 559 220ZM596 202H724V55H596Z" fill="#000000" />
<path d="M642 37Q642 18 660 18Q678 18 678 37V220Q678 238 660 238Q642 238 642 220Z" fill="#000000" />
<path d="M899 531Q917 531 917 550Q917 568 899 568H880V641Q880 660 862 660Q844 660 844 641V550Q844 531 862 531Z" fill="#000000" />
<path d="M752 531Q770 531 770 550Q770 568 752 568H733V641Q733 660 715 660Q697 660 697 641V550Q697 531 715 531Z" fill="#000000" />
<path d="M605 531Q623 531 623 550Q623 568 605 568H586V641Q586 660 568 660Q550 660 550 641V550Q550 531 568 531Z" fill="#000000" />
<path d="M459 531Q477 531 477 550Q477 568 459 568H440V641Q440 660 422 660Q404 660 404 641V550Q404 531 422 531Z" fill="#000000" />
<path d="M220 476Q238 476 238 495Q238 513 220 513H201V586Q201 605 183 605Q165 605 165 586V495Q165 476 183 476Z" fill="#000000" />
<path d="M220 293Q238 293 238 312Q238 330 220 330H201V403Q201 422 183 422Q165 422 165 403V312Q165 293 183 293Z" fill="#000000" />
<path d="M1137 293Q1155 293 1155 312Q1155 330 1137 330H1118V403Q1118 422 1100 422Q1082 422 1082 403V312Q1082 293 1100 293Z" fill="#000000" />
<path d="M1137 476Q1155 476 1155 495Q1155 513 1137 513H1118V586Q1118 605 1100 605Q1082 605 1082 586V495Q1082 476 1100 476Z" fill="#000000" />
<path d="M1137 110Q1155 110 1155 129Q1155 147 1137 147H1118V220Q1118 239 1100 239Q1082 239 1082 220V129Q1082 110 1100 110Z" fill="#000000" />
<path d="M220 110Q238 110 238 129Q238 147 220 147H201V220Q201 239 183 239Q165 239 165 220V129Q165 110 183 110Z" fill="#000000" />
<path d="M771 403Q780 403 780 413Q780 422 771 422H729Q720 422 720 413V340Q720 331 729 331H771Q780 331 780 340Q780 349 771 349H739V403Z" fill="#000000" />
<path d="M729 385Q720 385 720 376Q720 367 729 367H760Q770 367 770 376Q770 385 760 385Z" fill="#000000" />
<path d="M480 413Q480 422 470 422Q461 422 461 413V340Q461 331 470 331Q480 331 480 340Z" fill="#000000" />
<path d="M521 413Q521 422 511 422Q502 422 502 413V340Q502 331 511 331Q521 331 521 340Z" fill="#000000" />
<path d="M512.0057373046875 366.83984375Q521.64892578125 366.687744140625 521.2982177734375 376.2860107421875Q521.4952392578125 385.4263916015625 512.3548583984375 385.6234130859375L470.8101806640625 385.45947265625Q461.6697998046875 385.656494140625 461.5177001953125 376.0133056640625Q461.3206787109375 366.8729248046875 470.9638671875 366.7208251953125Z" fill="#000000" />
<path d="M821 413Q821 422 812 422Q803 422 803 413V340Q803 331 812 331H843Q853 331 853 340Q853 349 843 349H821Z" fill="#000000" />
<path d="M581 331Q595 331 606 341Q616 351 616 366V387Q616 422 581 422Q566 422 556 411Q546 401 546 387V366Q546 351 556 341Q566 331 581 331ZM581 349Q564 349 564 366V387Q564 394 569 398Q574 403 581 403Q598 403 598 387V366Q598 349 581 349Z" fill="#000000" />
<path d="M647.9942626953125 421.16015625Q638.35107421875 421.312255859375 638.7017822265625 411.7139892578125Q638.5047607421875 402.5736083984375 647.6451416015625 402.3765869140625L689.1898193359375 402.54052734375Q698.3302001953125 402.343505859375 698.4822998046875 411.9866943359375Q698.6793212890625 421.1270751953125 689.0361328125 421.2791748046875Z" fill="#000000" />
<path d="M679 413Q679 422 669 422Q660 422 660 413V340Q660 331 669 331Q679 331 679 340Z" fill="#000000" />
</g></svg>