<svg xmlns="http://www.w3.org/2000/svg" viewBox="0 0 2048 2048">
<g transform="matrix(1 0 0 -1 0 2048)">
<path d="M650 351Q581 351 525.0 318.0Q469 285 435.5 228.5Q402 172 402 104V-20H922V98Q922 168 887.5 225.5Q853 283 795.5 317.0Q738 351 668 351Z" fill="#ffffff" />
<path d="M671 424Q739 424 795.5 457.5Q852 491 885.0 547.0Q918 603 918 672V796H399V677Q399 608 433.5 550.5Q468 493 525.0 458.5Q582 424 652 424Z" fill="#ffffff" />
<path d="M720 430 598 432Q617 414 620.5 398.0Q624 382 618.5 370.5Q613 359 606.0 352.0Q599 345 599 345Q659 354 688.0 350.5Q717 347 717 347Q698 364 696.0 379.0Q694 394 700.0 405.5Q706 417 713.0 423.5Q720 430 720 430Z" fill="#ffffff" />
<path d="M807 257Q846 221 863.0 171.5Q880 122 880 86V-37H440V86Q440 122 457.0 171.5Q474 221 513 257Z" fill="#9b9b9a" />
<path d="M1008 843V862Q1008 877 997.5 887.5Q987 898 972 898H348Q333 898 322.5 887.5Q312 877 312 862V843Q312 828 322.5 817.5Q333 807 348 807H972Q987 807 997.5 817.5Q1008 828 1008 843Z" fill="#a57939" />
<path d="M1008 -92V-73Q1008 -58 997.5 -47.5Q987 -37 972 -37H348Q333 -37 322.5 -47.5Q312 -58 312 -73V-92Q312 -107 322.5 -117.5Q333 -128 348 -128H972Q987 -128 997.5 -117.5Q1008 -107 1008 -92Z" fill="#a57939" />
<path d="M564 404Q581 399 586 417Q588 426 585 431Q582 437 573 439Q490 461 443 542Q403 610 403 684V807Q403 825 385 825Q367 825 367 807V684Q367 600 411 524Q465 430 564 404Z" fill="#000000" />
<path d="M367 -37Q367 -55 385 -55Q403 -55 403 -37V86Q403 160 443 228Q490 309 573 331Q582 333 585 339Q588 344 586 353Q581 371 564 366Q465 340 411 246Q367 170 367 86Z" fill="#000000" />
<path d="M564 366Q546 361 551 344Q553 335 559 331Q564 328 573 331Q623 344 623 385Q623 426 573 439Q564 442 559 439Q553 435 551 426Q546 409 564 404Q587 398 587 385Q587 372 564 366Z" fill="#000000" />
<path d="M747 439Q729 435 734 417Q739 399 756 404Q855 430 909 524Q953 600 953 684V807Q953 825 935 825Q917 825 917 807V684Q917 610 877 542Q830 461 747 439Z" fill="#000000" />
<path d="M917 -37Q917 -55 935 -55Q953 -55 953 -37V86Q953 170 909 246Q855 340 756 366Q739 371 734 353Q729 335 747 331Q830 309 877 228Q917 160 917 86Z" fill="#000000" />
<path d="M747 331Q765 326 769 344Q774 361 756 366Q733 372 733 385Q733 398 756 404Q774 409 769 426Q765 444 747 439Q697 426 697 385Q697 344 747 331Z" fill="#000000" />
<path d="M1027 843V862Q1027 917 972 917H348Q293 917 293 862V843Q293 788 348 788H972Q1027 788 1027 843ZM990 843Q990 825 972 825H348Q330 825 330 843V862Q330 880 348 880H972Q990 880 990 862Z" fill="#000000" />
<path d="M1027 -92V-73Q1027 -18 972 -18H348Q293 -18 293 -73V-92Q293 -147 348 -147H972Q1027 -147 1027 -92ZM990 -92Q990 -110 972 -110H348Q330 -110 330 -92V-73Q330 -55 348 -55H972Q990 -55 990 -73Z" fill="#000000" />
<path d="M532 275Q513 275 513 257Q513 238 532 238H788Q807 238 807 257Q807 275 788 275Z" fill="#000000" />
</g></svg>