<svg xmlns="http://www.w3.org/2000/svg" viewBox="0 0 2048 2048">
<g transform="matrix(1 0 0 -1 0 2048)">
<path d="M680.1060791015625 383.93170166015625V51.79150390625H1173.0113525390625V383.93170166015625Z" fill="#ffffff" />
<path d="M912 620 1150 385H685Z" fill="#ea5a47" />
<path d="M899 632 672 398Q665 391 665 385Q665 378 672 372Q677 367 685 367H1150Q1169 367 1169 385Q1169 393 1163 398L925 633Q912 646 899 633Q899 632 899 632ZM912 594 1106 403H728Z" fill="#ea5a47" />
<path d="M850 566Q850 566 851.0 576.0Q852 586 852 586Q852 598 848.5 610.5Q845 623 832 623H772Q759 623 750.0 616.0Q741 609 741 596V457Z" fill="#ea5a47" />
<path d="M788.25 275.00164794921875V54.94873046875H898.25V275.00164794921875Z" fill="#a57939" />
<path d="M990.25 274.7880859375V183.1484375H1100.25V274.7880859375Z" fill="#92d3f5" />
<path d="M752 525Q752 491 727.5 463.5Q703 436 664 424Q665 418 666 412Q666 381 641.0 356.0Q616 331 574.5 316.5Q533 302 483 302Q437 302 399.0 314.0Q361 326 336 346Q296 324 251 324Q212 324 180.0 339.0Q148 354 129.0 379.0Q110 404 110 434Q110 469 134.5 496.5Q159 524 197 536Q196 546 196 556Q196 607 224.0 649.5Q252 692 299.0 717.0Q346 742 403 742Q466 742 516.5 712.0Q567 682 591 634Q601 635 611 635Q650 635 682.0 620.5Q714 606 733.0 581.0Q752 556 752 525Z" fill="#b1cc33" />
<path d="M830 563Q817 549 831 537Q844 524 857 537L913 598L1146 393V73H692V283Q692 302 674 302Q655 302 655 283V55Q655 37 674 37H1164Q1183 37 1183 55V402Q1183 410 1176 415L924 637Q911 649 898 636Z" fill="#000000" />
<path d="M770 55Q770 37 788 37H898Q917 37 917 55V275Q917 293 898 293H788Q770 293 770 275ZM807 257H880V73H807Z" fill="#000000" />
<path d="M972 183Q972 165 990 165H1100Q1118 165 1118 183V275Q1118 293 1100 293H990Q972 293 972 275ZM1008 257H1082V202H1008Z" fill="#000000" />
<path d="M788 623Q770 623 770 605Q770 587 788 587H816V550Q816 532 834 532Q853 532 853 550V605Q853 623 834 623Z" fill="#000000" />
<path d="M394 55Q394 37 413 37Q431 37 431 55V187Q431 194 425 200L334 288Q320 301 308 288Q301 281 301 275Q302 268 308 262L394 179Z" fill="#000000" />
<path d="M409 201Q396 188 410 175Q423 162 436 176L488 230Q500 243 487 256Q474 269 461 255Z" fill="#000000" />
<path d="M770 525Q770 580 722 618Q675 654 611 654Q606 654 602 654Q540 760 403 760Q310 760 244 701Q178 641 178 556Q178 552 178 548Q92 515 92 434Q92 380 140 342Q186 306 251 306Q295 305 334 325Q392 283 483 283Q563 283 621 318Q684 356 684 411Q770 445 770 525ZM733 525Q733 465 659 441L643 436L646 420Q647 416 647 412Q647 376 602 350Q553 320 483 320Q397 320 347 361L337 368L327 362Q291 342 251 343Q199 343 163 371Q128 398 128 434Q128 494 203 519L217 523L215 538Q214 547 214 556Q214 625 269 674Q324 723 403 723Q524 723 575 626L581 615L593 616Q602 617 611 617Q663 617 699 589Q733 562 733 525Z" fill="#000000" />
<path d="M1164.7385864257812 367.05303955078125Q1182.8253784179688 367.05303955078125 1182.8253784179688 385.13983154296875Q1182.8253784179688 404.2314453125 1164.7385864257812 404.2314453125H778.8870239257812Q760.8002319335938 404.2314453125 760.8002319335938 385.13983154296875Q760.8002319335938 367.05303955078125 778.8870239257812 367.05303955078125Z" fill="#000000" />
</g></svg>