<svg xmlns="http://www.w3.org/2000/svg" viewBox="0 0 2048 2048">
<g transform="matrix(1 0 0 -1 0 2048)">
<path d="M266.4627685546875 283.60205078125V-9.73046875H688.1473388671875V283.60205078125Z" fill="#ffffff" />
<path d="M635 552 630 260 1053 257 1038 552Z" fill="#ffffff" />
<path d="M888.7127685546875 458.6505126953125V385.3173828125H980.3973388671875V458.6505126953125Z" fill="#92d3f5" />
<path d="M1054 562V577L843 770L642 565Z" fill="#ea5a47" />
<path d="M385 411V458H312V344Z" fill="#ea5a47" />
<path d="M752 686V733H679V619Z" fill="#ea5a47" />
<path d="M696.3377685546875 439.52606201171875V256.30029296875H843.0223388671875V439.52606201171875Z" fill="#a57939" />
<path d="M348.25 183.576171875V0.296875H458.25V183.576171875Z" fill="#a57939" />
<path d="M522.7127685546875 183.6505126953125V110.3173828125H614.3973388671875V183.6505126953125Z" fill="#92d3f5" />
<path d="M688 275V302L477 495L266 302V275Z" fill="#ea5a47" />
<path d="M871 385Q871 367 889 367H981Q999 367 999 385V458Q999 477 981 477H889Q871 477 871 458ZM908 440H963V403H908Z" fill="#000000" />
<path d="M1054 532Q1073 532 1073 550Q1073 568 1054 568H633Q614 568 614 550Q614 532 633 532Z" fill="#000000" />
<path d="M397 398Q403 403 403 411V458Q403 477 385 477H312Q293 477 293 458V344Q293 337 298 331Q304 325 311 324Q317 324 324 330ZM367 419 330 385V440H367Z" fill="#000000" />
<path d="M764 673Q770 678 770 686V733Q770 752 752 752H678Q660 752 660 733V619Q660 612 665 606Q677 593 691 605ZM733 694 697 660V715H733Z" fill="#000000" />
<path d="M614 440Q614 422 633 422Q651 422 651 440V569L843 745L1036 569V293H761Q743 293 743 275Q743 257 761 257H1054Q1073 257 1073 275V577Q1073 585 1067 590L856 784Q843 795 831 784L620 590Q614 585 614 577Z" fill="#000000" />
<path d="M807 275Q807 257 825 257Q843 257 843 275V458Q843 477 825 477H715Q697 477 697 458V383Q697 365 715 365Q733 365 733 383V440H807Z" fill="#000000" />
<path d="M330 0Q330 -18 348 -18H458Q477 -18 477 0V183Q477 202 458 202H348Q330 202 330 183ZM367 165H440V18H367Z" fill="#000000" />
<path d="M504 110Q504 92 522 92H614Q632 92 632 110V183Q632 202 614 202H522Q504 202 504 183ZM541 165H596V128H541Z" fill="#000000" />
<path d="M688 257Q706 257 706 275V302Q706 310 700 315L489 509Q477 520 464 509L253 315Q248 310 248 302V275Q248 257 266 257ZM669 294V293H284V294L477 470Z" fill="#000000" />
<path d="M248 0Q248 -18 266 -18H688Q706 -18 706 0V275Q706 293 688 293H266Q248 293 248 275ZM284 257H669V18H284Z" fill="#000000" />
</g></svg>