<svg xmlns="http://www.w3.org/2000/svg" viewBox="0 0 2048 2048">
<g transform="matrix(1 0 0 -1 0 2048)">
<path d="M789.0556640625 789.58447265625Q762.458740234375 816.181396484375 728.791748046875 829.648193359375Q695.124755859375 843.114990234375 659.437744140625 843.114990234375Q623.750732421875 843.114990234375 590.2520751953125 829.8165283203125Q556.75341796875 816.51806640625 529.81982421875 789.58447265625Q502.88623046875 762.65087890625 489.5877685546875 729.1522216796875Q476.289306640625 695.653564453125 476.289306640625 659.966552734375Q476.289306640625 624.279541015625 489.756103515625 590.612548828125Q503.222900390625 556.945556640625 529.81982421875 530.3486328125Q556.75341796875 503.4150390625 590.42041015625 489.9482421875Q624.08740234375 476.4814453125 659.7744140625 476.4814453125Q695.46142578125 476.4814453125 728.791748046875 489.9482421875Q762.1220703125 503.4150390625 789.0556640625 530.3486328125Q815.9892578125 557.2822265625 829.4560546875 590.612548828125Q842.9228515625 623.94287109375 842.9228515625 659.6298828125Q842.9228515625 695.31689453125 829.4560546875 728.98388671875Q815.9892578125 762.65087890625 789.0556640625 789.58447265625Z" fill="#fcea2b" />
<path d="M790 789Q825 754 837.0 707.0Q849 660 837.0 613.0Q825 566 790 530Q754 495 707.0 483.0Q660 471 614 482Q663 495 698 530Q734 566 746.0 613.0Q758 660 746.0 707.0Q734 754 698 789Q663 825 614 837Q660 849 707.0 837.0Q754 825 790 789Z" fill="#f1b31c" />
<path d="M955 606Q919 642 872.0 654.0Q825 666 778.0 654.0Q731 642 695 606Q669 579 650.0 537.5Q631 496 624.0 450.0Q617 404 625.0 362.0Q633 320 660 293Q687 266 726.0 261.0Q765 256 807.5 266.5Q850 277 889.0 298.5Q928 320 955 347Q990 383 1002.0 430.0Q1014 477 1002.0 523.5Q990 570 955 606Z" fill="#fcea2b" />
<path d="M955 606Q990 571 1002.0 524.0Q1014 477 1002.0 430.0Q990 383 955 347Q919 312 872.0 300.0Q825 288 779 299Q828 312 863 347Q899 383 911.0 430.0Q923 477 911.0 524.0Q899 571 863 606Q828 642 779 654Q825 666 872.0 654.0Q919 642 955 606Z" fill="#f1b31c" />
<path d="M624.0556640625 606.58447265625Q597.458740234375 633.181396484375 563.791748046875 646.648193359375Q530.124755859375 660.114990234375 494.437744140625 660.114990234375Q458.750732421875 660.114990234375 425.2520751953125 646.8165283203125Q391.75341796875 633.51806640625 364.81982421875 606.58447265625Q337.88623046875 579.65087890625 324.5877685546875 546.1522216796875Q311.289306640625 512.653564453125 311.289306640625 476.966552734375Q311.289306640625 441.279541015625 324.756103515625 407.612548828125Q338.222900390625 373.945556640625 364.81982421875 347.3486328125Q391.75341796875 320.4150390625 425.42041015625 306.9482421875Q459.08740234375 293.4814453125 494.7744140625 293.4814453125Q530.46142578125 293.4814453125 563.791748046875 306.9482421875Q597.1220703125 320.4150390625 624.0556640625 347.3486328125Q650.9892578125 374.2822265625 664.4560546875 407.612548828125Q677.9228515625 440.94287109375 677.9228515625 476.6298828125Q677.9228515625 512.31689453125 664.4560546875 545.98388671875Q650.9892578125 579.65087890625 624.0556640625 606.58447265625Z" fill="#fcea2b" />
<path d="M625 606Q660 571 672.0 524.0Q684 477 672.0 430.0Q660 383 625 347Q589 312 542.0 300.0Q495 288 449 299Q498 312 533 347Q569 383 581.0 430.0Q593 477 581.0 524.0Q569 571 533 606Q498 642 449 654Q495 666 542.0 654.0Q589 642 625 606Z" fill="#f1b31c" />
<path d="M715 -55V55Q715 93 742.0 120.0Q769 147 807 147H880H935Q973 147 1000.0 173.5Q1027 200 1027 238V293Q1027 309 1016.0 319.5Q1005 330 990 330H330Q315 330 304.0 319.5Q293 309 293 293V238Q293 200 320.0 173.5Q347 147 385 147H440H513Q551 147 578.0 120.0Q605 93 605 55V-55Z" fill="#ffffff" />
<path d="M458 660Q458 642 477 642Q495 642 495 660Q495 728 543 777Q592 825 660 825Q728 825 777 777Q825 728 825 660Q825 642 843 642Q862 642 862 660Q862 744 803 803Q744 862 660 862Q576 862 517 803Q458 744 458 660Z" fill="#000000" />
<path d="M645 567Q641 559 643 553Q645 547 653 543Q669 534 678 551Q723 642 825 642Q893 642 942 593Q990 545 990 477Q990 397 927 347Q913 336 924 322Q936 307 950 319Q1027 379 1027 477Q1027 560 968 619Q909 678 825 678Q701 678 645 567Z" fill="#000000" />
<path d="M367 321Q381 309 393 324Q398 331 398 337Q397 344 390 349Q330 399 330 477Q330 545 378 593Q427 642 495 642Q563 642 612 593Q660 545 660 477Q660 397 597 347Q583 336 594 322Q606 307 620 319Q697 379 697 477Q697 560 638 619Q579 678 495 678Q411 678 352 619Q293 560 293 477Q293 382 367 321Z" fill="#000000" />
<path d="M587 -55Q587 -73 605 -73Q623 -73 623 -55V55Q623 100 591 132Q559 165 513 165H385Q354 165 333 186Q311 208 311 238V293Q311 312 330 312H990Q1009 312 1009 293V238Q1009 208 987 186Q966 165 935 165H807Q761 165 729 132Q697 100 697 55V-55Q697 -73 715 -73Q733 -73 733 -55V55Q733 129 807 129H935Q980 129 1012 161Q1045 193 1045 238V293Q1045 348 990 348H330Q275 348 275 293V238Q275 193 308 161Q340 129 385 129H513Q587 129 587 55Z" fill="#000000" />
<path d="M532 -37Q514 -37 514 -55Q514 -73 532 -73H788Q806 -73 806 -55Q806 -37 788 -37Z" fill="#000000" />
</g></svg>