<svg xmlns="http://www.w3.org/2000/svg" viewBox="0 0 2048 2048">
<g transform="matrix(1 0 0 -1 0 2048)">
<path d="M182 660Q163 660 163 642Q163 623 182 623H488Q506 623 506 642Q506 660 488 660Z" fill="#000000" />
<path d="M639 660Q621 660 621 642Q621 623 639 623H1137Q1156 623 1156 642Q1156 660 1137 660Z" fill="#000000" />
<path d="M640 521Q622 521 622 503Q622 485 640 485H992Q1010 485 1010 503Q1010 521 992 521Z" fill="#000000" />
<path d="M640 448Q622 448 622 430Q622 412 640 412H992Q1010 412 1010 430Q1010 448 992 448Z" fill="#000000" />
<path d="M640 374Q622 374 622 356Q622 338 640 338H992Q1010 338 1010 356Q1010 374 992 374Z" fill="#000000" />
<path d="M156 733Q129 733 110.5 714.5Q92 696 92 669V101Q92 74 110.5 55.5Q129 37 156 37H1164Q1191 37 1209.5 55.5Q1228 74 1228 101V669Q1228 696 1209.5 714.5Q1191 733 1164 733Z" fill="#d0cfce" />
<path d="M183 503V147H486V503Z" fill="#ffffff" />
<path d="M165 147Q165 128 183 128H486Q505 128 505 147V503Q505 522 486 522H183Q165 522 165 503ZM202 485H468V165H202Z" fill="#ffffff" />
<path d="M488 110H182L202 194Q204 225 226.0 247.0Q248 269 280 269H390Q421 269 443.5 247.0Q466 225 467 194Z" fill="#fcea2b" />
<path d="M391.0615234375 407.19287109375Q391.0615234375 418.53515625 386.75927734375 428.508544921875Q382.45703125 438.48193359375 374.8955078125 446.04345703125Q367.333984375 453.60498046875 357.360595703125 457.9072265625Q347.38720703125 462.20947265625 336.044921875 462.20947265625Q324.70263671875 462.20947265625 314.729248046875 457.9072265625Q304.755859375 453.60498046875 297.1943359375 446.04345703125Q289.6328125 438.48193359375 285.33056640625 428.508544921875Q281.0283203125 418.53515625 281.0283203125 407.19287109375Q281.0283203125 395.8505859375 285.33056640625 385.877197265625Q289.6328125 375.90380859375 297.1943359375 368.34228515625Q304.755859375 360.78076171875 314.729248046875 356.478515625Q324.70263671875 352.17626953125 336.044921875 352.17626953125Q347.38720703125 352.17626953125 357.360595703125 356.478515625Q367.333984375 360.78076171875 374.8955078125 368.34228515625Q382.45703125 375.90380859375 386.75927734375 385.877197265625Q391.0615234375 395.8505859375 391.0615234375 407.19287109375Z" fill="#fcea2b" />
<path d="M617 138Q607 123 622 113Q637 103 647 118L709 212L723 141Q727 123 745 127Q752 128 756 134L790 179L796 154Q800 136 818 140Q820 141 822 142Q866 166 954 144Q1028 126 1063 139Q1080 145 1074 162Q1068 179 1051 173Q1026 164 963 180Q879 200 827 184L817 225Q816 232 811 236Q796 247 785 232L751 188L736 263Q735 270 728 274Q721 279 714 278Q708 277 703 269Z" fill="#000000" />
<path d="M156 752Q122 752 98 727Q73 703 73 669V101Q73 67 98 43Q122 18 156 18H1164Q1198 18 1222 43Q1247 67 1247 101V669Q1247 703 1222 727Q1198 752 1164 752ZM156 715H1164Q1210 715 1210 669V101Q1210 82 1197 68Q1183 55 1164 55H156Q137 55 123 68Q110 82 110 101V669Q110 715 156 715Z" fill="#000000" />
<path d="M410 407Q410 481 336 481Q306 481 285 459Q263 438 263 407Q263 377 285 355Q306 334 336 334Q410 334 410 407ZM373 407Q373 371 336 371Q300 371 300 407Q300 444 336 444Q373 444 373 407Z" fill="#000000" />
<path d="M470 127Q470 118 475 114Q480 109 489 110Q507 111 506 129L503 189Q501 235 468 266Q435 298 389 298H281Q235 298 202 266Q169 235 167 189L163 129Q162 111 181 110Q190 109 195 114Q200 118 200 127L203 187Q207 261 281 261H389Q463 261 466 187Z" fill="#000000" />
<path d="M182 660Q163 660 163 642Q163 623 182 623H488Q506 623 506 642Q506 660 488 660Z" fill="#9b9b9a" />
<path d="M639 660Q621 660 621 642Q621 623 639 623H1137Q1156 623 1156 642Q1156 660 1137 660Z" fill="#9b9b9a" />
<path d="M640 521Q622 521 622 503Q622 485 640 485H992Q1010 485 1010 503Q1010 521 992 521Z" fill="#9b9b9a" />
<path d="M640 448Q622 448 622 430Q622 412 640 412H992Q1010 412 1010 430Q1010 448 992 448Z" fill="#9b9b9a" />
<path d="M640 374Q622 374 622 356Q622 338 640 338H992Q1010 338 1010 356Q1010 374 992 374Z" fill="#9b9b9a" />
</g></svg>