<svg xmlns="http://www.w3.org/2000/svg" viewBox="0 0 2048 2048">
<g transform="matrix(1 0 0 -1 0 2048)">
<path d="M872 -72V114Q847 145 813 165Q795 173 773.0 171.5Q751 170 732 170Q567 33 402 170Q357 170 315.0 148.0Q273 126 246.0 88.5Q219 51 219 5V-72Z" fill="#92d3f5" />
<path d="M364 477Q364 523 369.0 546.5Q374 570 379.0 578.5Q384 587 384 587Q439 596 478.5 616.0Q518 636 551.5 662.0Q585 688 622 715Q622 715 634.0 700.5Q646 686 665.5 663.0Q685 640 707.5 614.5Q730 589 750 569Q769 525 769 477Q769 394 741.0 337.0Q713 280 666.5 250.0Q620 220 566 220Q510 220 464.5 250.0Q419 280 391.5 337.0Q364 394 364 477Z" fill="#fcea2b" />
<path d="M879 -72V231Q879 255 904.0 281.5Q929 308 971 322Q998 331 1024.0 331.0Q1050 331 1070.0 331.0Q1090 331 1099 341L1154 396Q1162 403 1172.5 403.0Q1183 403 1191 396Q1198 388 1198.0 377.0Q1198 366 1191 359L1099 249L989 212L972 189L1007 -72Z" fill="#fcea2b" />
<path d="M753 567Q753 567 755.0 547.0Q757 527 759.0 496.0Q761 465 762.0 431.5Q763 398 760.5 370.5Q758 343 750 330Q787 330 802.5 363.0Q818 396 821.0 450.0Q824 504 824 569Q824 617 809.5 662.5Q795 708 764.0 745.0Q733 782 684.5 803.5Q636 825 567 825Q498 825 449.5 803.5Q401 782 370.0 745.0Q339 708 324.5 662.5Q310 617 310 569Q310 504 313.5 450.0Q317 396 332.0 363.0Q347 330 384 330Q384 330 379.0 351.0Q374 372 368.5 404.0Q363 436 360.5 471.5Q358 507 363.0 537.5Q368 568 385 584Q385 584 404.0 591.5Q423 599 452.5 612.0Q482 625 515.0 641.5Q548 658 576.0 676.5Q604 695 618 712Q618 712 632.0 692.5Q646 673 667.5 645.5Q689 618 712.0 595.5Q735 573 753 567Z" fill="#f1b31c" />
<path d="M384 312Q402 312 402 330Q402 349 384 349Q349 349 338 405Q329 447 329 569Q329 669 384 733Q447 807 567 807Q687 807 750 733Q805 669 805 569Q805 447 797 405Q785 349 750 349Q732 349 732 330Q732 312 750 312Q815 312 833 398Q842 443 842 569Q842 682 778 757Q704 844 567 844Q430 844 356 757Q292 682 292 569Q292 443 302 398Q320 312 384 312Z" fill="#000000" />
<path d="M200 -55Q200 -73 219 -73Q237 -73 237 -55V0Q237 59 288 103Q336 145 396 147Q567 8 739 147Q770 145 798 133Q815 126 822 143Q830 159 813 167Q774 183 732 184Q726 184 720 179Q567 52 414 179Q409 184 402 184Q325 184 264 131Q200 76 200 0Z" fill="#000000" />
<path d="M675.0570068359375 495.43743896484375Q675.0570068359375 510.8302001953125 664.2820739746094 521.6051330566406Q653.5071411132812 532.3800659179688 638.1143798828125 532.3800659179688Q622.7216186523438 532.3800659179688 611.9466857910156 521.6051330566406Q601.1717529296875 510.8302001953125 601.1717529296875 495.43743896484375Q601.1717529296875 480.044677734375 611.9466857910156 469.2697448730469Q622.7216186523438 458.49481201171875 638.1143798828125 458.49481201171875Q653.5071411132812 458.49481201171875 664.2820739746094 469.2697448730469Q675.0570068359375 480.044677734375 675.0570068359375 495.43743896484375Z" fill="#000000" />
<path d="M528.0570068359375 495.43743896484375Q528.0570068359375 510.8302001953125 517.2820739746094 521.6051330566406Q506.50714111328125 532.3800659179688 491.1143798828125 532.3800659179688Q475.72161865234375 532.3800659179688 464.9466857910156 521.6051330566406Q454.1717529296875 510.8302001953125 454.1717529296875 495.43743896484375Q454.1717529296875 480.044677734375 464.9466857910156 469.2697448730469Q475.72161865234375 458.49481201171875 491.1143798828125 458.49481201171875Q506.50714111328125 458.49481201171875 517.2820739746094 469.2697448730469Q528.0570068359375 480.044677734375 528.0570068359375 495.43743896484375Z" fill="#000000" />
<path d="M346 477Q346 351 409 275Q471 202 566 202Q660 202 722 275Q787 351 787 477Q788 528 767 576Q766 579 763 582Q709 636 636 727Q625 741 611 730Q600 721 578 705Q469 620 381 605Q375 604 371 600Q346 577 346 477ZM383 477Q383 552 394 570Q489 588 601 676Q611 684 619 690Q684 609 735 558Q751 519 750 477Q750 365 694 299Q643 239 566 239Q488 239 437 299Q383 364 383 477Z" fill="#000000" />
<path d="M521 365Q504 373 496 357Q492 349 494 343Q496 337 504 332Q567 300 631 332Q647 341 639 357Q630 373 614 365Q567 341 521 365Z" fill="#000000" />
<path d="M989 -57Q992 -76 1010 -73Q1028 -70 1025 -52L991 184L1000 197L1105 231Q1110 233 1113 237L1204 346Q1234 377 1203 408Q1172 440 1141 408L1086 353Q1082 350 1048 350Q995 350 965 340Q860 305 860 230V-55Q860 -73 879 -73Q897 -73 897 -55V230Q897 278 976 305Q1001 313 1048 313Q1097 313 1112 327L1167 382Q1172 388 1177 382Q1183 377 1177 372Q1177 371 1176 371L1088 265L983 230Q978 228 974 223L957 200Q952 194 953 187Z" fill="#000000" />
</g></svg>