<svg xmlns="http://www.w3.org/2000/svg" viewBox="0 0 2048 2048">
<g transform="matrix(1 0 0 -1 0 2048)">
<path d="M312 825 642 605V-128L293 165Z" fill="#fcea2b" />
<path d="M1008.0 825.0 678.0 605.0V-128.0L1027.0 165.0Z" fill="#5c9e31" />
<path d="M334 839Q312 853 294 843Q275 833 275 807V183V182Q277 139 310 110L619 -138V-139Q659 -168 698 -139L699 -138L1010 110Q1043 139 1045 182V183V807Q1045 833 1026 843Q1008 853 986 839L681 641Q660 628 639 641ZM314 808 620 609Q660 586 700 609L1006 808L1009 810L1008 807V184Q1007 156 986 138L676 -109Q659 -122 641 -109L334 138Q313 156 312 184V807L311 810Z" fill="#000000" />
<path d="M678 605Q678 623 660 623Q642 623 642 605V-128Q642 -147 660 -147Q678 -147 678 -128Z" fill="#000000" />
</g></svg>