<svg xmlns="http://www.w3.org/2000/svg" viewBox="0 0 2048 2048">
<g transform="matrix(1 0 0 -1 0 2048)">
<path d="M482 438Q470 437 461.0 428.5Q452 420 451 407V148Q451 136 460 126Q469 117 482 117H836Q849 117 858 126Q867 136 867 148V407Q867 420 858 429Q849 438 836 438Z" fill="#ffffff" />
<path d="M972 504Q972 581 931 647L898 702V779H915Q927 779 936 788Q944 796 944 809V853Q944 865 936 873Q927 882 915 882H405Q393 882 384 873Q376 865 376 853V809Q376 796 384 788Q393 779 405 779H422V702L389 647Q348 581 348 504V-49Q347 -73 362.5 -90.5Q378 -108 402 -110H919Q942 -108 957.5 -90.5Q973 -73 972 -49Z" fill="#ffffff" />
<path d="M909 776 944 794 950 862 922 878H389L370 842L383 799L411 776Z" fill="#9b9b9a" />
<path d="M972 530 950 614 909 686 898 732V779H416L411 697Q500 697 582.0 677.5Q664 658 728.5 618.5Q793 579 830.0 521.0Q867 463 867 385V-110H926L972 -79Z" fill="#d0cfce" />
<path d="M950 862 931 876V878H847V779H930V783L950 799Z" fill="#3f3f3f" />
<path d="M836 457H482L481 456Q436 453 433 408V149Q432 128 447 113Q462 99 482 99H836Q856 99 871 113Q886 128 886 148V407Q886 427 871 442Q856 457 836 457ZM483 420H836Q841 420 845 416Q849 412 849 407V148Q849 143 845 139Q841 136 836 136H482Q477 136 473 139Q469 143 469 148V406Q470 419 483 420Z" fill="#000000" />
<path d="M990 504Q990 587 947 657L917 707V761Q935 761 949 775Q963 789 963 809V852Q963 872 949 886Q935 900 915 900H405Q385 900 371 886Q357 872 358 853V809Q357 789 371 775Q385 761 403 761V707L373 657Q330 586 330 504V-49Q326 -123 400 -128Q401 -128 402 -128H919Q919 -128 920 -128Q994 -123 990 -49ZM953 504V-49Q953 -50 953 -51Q955 -89 918 -92H402Q365 -89 367 -51Q367 -50 367 -49V504Q367 576 404 638L437 693Q440 697 440 702V779Q440 798 422 798H405Q400 797 397 801Q394 804 394 808V853Q394 857 397 860Q400 864 405 864H915Q920 864 923 860Q926 857 926 853V809Q926 804 923 801Q920 797 915 798H898Q880 798 880 779V702Q880 697 883 693L916 638Q954 576 953 504Z" fill="#000000" />
<path d="M909 761V797H422V761Z" fill="#000000" />
</g></svg>