<svg xmlns="http://www.w3.org/2000/svg" viewBox="0 0 2048 2048">
<g transform="matrix(1 0 0 -1 0 2048)">
<path d="M439.9251708984375 36.6865234375V91.107421875H311.75518798828125V36.6865234375Z" fill="#ea5a47" />
<path d="M843.2703247070312 733.0642700195312Q843.2703247070312 771.137939453125 829.040771484375 804.4043273925781Q814.8112182617188 837.6707153320312 789.6210632324219 862.8608703613281Q764.430908203125 888.051025390625 731.1645202636719 902.2805786132812Q697.8981323242188 916.5101318359375 659.824462890625 916.5101318359375Q621.7507934570312 916.5101318359375 588.4844055175781 902.2805786132812Q555.218017578125 888.051025390625 530.0278625488281 862.8608703613281Q504.83770751953125 837.6707153320312 490.608154296875 804.4043273925781Q476.37860107421875 771.137939453125 476.37860107421875 733.0642700195312Q476.37860107421875 694.9906005859375 490.608154296875 661.7242126464844Q504.83770751953125 628.4578247070312 530.0278625488281 603.2676696777344Q555.218017578125 578.0775146484375 588.4844055175781 563.8479614257812Q621.7507934570312 549.618408203125 659.824462890625 549.618408203125Q697.8981323242188 549.618408203125 731.1645202636719 563.8479614257812Q764.430908203125 578.0775146484375 789.6210632324219 603.2676696777344Q814.8112182617188 628.4578247070312 829.040771484375 661.7242126464844Q843.2703247070312 694.9906005859375 843.2703247070312 733.0642700195312Z" fill="#ea5a47" />
<path d="M825 37Q825 72 802.5 101.0Q780 130 743.0 147.5Q706 165 660 165Q614 165 577.0 147.5Q540 130 517.5 101.0Q495 72 495 37Z" fill="#3f3f3f" />
<path d="M605 550V165H715V550Z" fill="#9b9b9a" />
<path d="M587 165Q587 147 605 147H715Q733 147 733 165V550Q733 568 715 568H605Q587 568 587 550ZM623 532H697V183H623Z" fill="#9b9b9a" />
<path d="M256.843994140625 36.99774169921875V-146.99664306640625H1064.31689453125V36.99774169921875Z" fill="#9b9b9a" />
<path d="M752 885 801 823Q834 782 830 729L829 711Q825 660 789 624L774 609Q733 568 677 564L627 561Z" fill="#d22f27" />
<path d="M238 -147Q238 -165 257 -165H1063Q1082 -165 1082 -147V37Q1082 55 1063 55H257Q238 55 238 37ZM275 18H1045V-128H275Z" fill="#000000" />
<path d="M477 37H513Q513 81 555 113Q598 147 660 147Q722 147 765 113Q807 81 807 37H843Q843 99 788 142Q735 183 660 183Q585 183 532 142Q477 99 477 37Z" fill="#000000" />
<path d="M293 37Q293 18 312 18Q330 18 330 37V73H422V37Q422 18 440 18Q458 18 458 37V92Q458 110 440 110H312Q293 110 293 92Z" fill="#000000" />
<path d="M697 225Q697 207 715 207Q733 207 733 225V550Q733 568 715 568H605Q587 568 587 550V225Q587 207 605 207Q623 207 623 225V532H697Z" fill="#000000" />
<path d="M861.9535522460938 732.9765014648438Q861.9535522460938 816.9739379882812 801.9553833007812 874.97216796875Q743.9571533203125 934.9703369140625 659.959716796875 934.9703369140625Q575.9622802734375 934.9703369140625 517.9640502929688 874.97216796875Q457.96588134765625 816.9739379882812 457.96588134765625 732.9765014648438Q457.96588134765625 648.9790649414062 517.9640502929688 590.9808349609375Q575.9622802734375 530.982666015625 659.959716796875 530.982666015625Q743.9571533203125 530.982666015625 801.9553833007812 590.9808349609375Q861.9535522460938 648.9790649414062 861.9535522460938 732.9765014648438ZM825.9546508789062 732.9765014648438Q825.9546508789062 664.9785766601562 775.9561767578125 616.9800415039062Q727.9576416015625 568.9815063476562 659.959716796875 568.9815063476562Q591.9617919921875 568.9815063476562 543.9632568359375 616.9800415039062Q495.9647216796875 664.9785766601562 495.9647216796875 732.9765014648438Q495.9647216796875 800.9744262695312 543.9632568359375 848.9729614257812Q591.9617919921875 898.971435546875 659.959716796875 898.971435546875Q727.9576416015625 898.971435546875 775.9561767578125 848.9729614257812Q825.9546508789062 800.9744262695312 825.9546508789062 732.9765014648438Z" fill="#000000" />
</g></svg>