<svg xmlns="http://www.w3.org/2000/svg" viewBox="0 0 2048 2048">
<g transform="matrix(1 0 0 -1 0 2048)">
<path d="M1075.8529663085938 149.11822509765625Q1091.8656616210938 189.14996337890625 1100.3724060058594 231.68368530273438Q1108.879150390625 274.2174072265625 1108.879150390625 319.25311279296875L1039.8244018554688 940.745849609375L834.6617431640625 737.5847778320312Q794.6300048828125 754.5982666015625 750.5950927734375 763.6054077148438Q706.5601806640625 772.612548828125 659.5228881835938 772.612548828125H640.5078125Q594.4713134765625 772.612548828125 550.4364013671875 763.6054077148438Q506.4014892578125 754.5982666015625 466.3697509765625 737.5847778320312L278.2205810546875 921.7307739257812L211.16741943359375 328.26025390625Q211.16741943359375 283.22454833984375 212.168212890625 237.18804931640625Q213.16900634765625 191.15155029296875 229.18170166015625 152.12060546875L231.18328857421875 146.1158447265625Q256.203125 83.06585693359375 300.7384338378906 32.525787353515625Q345.27374267578125 -18.0142822265625 402.8193664550781 -54.0428466796875Q460.364990234375 -90.0714111328125 523.9153747558594 -109.08648681640625Q587.4657592773438 -128.1015625 650.5157470703125 -128.1015625Q747.5927124023438 -128.1015625 832.1597595214844 -93.57418823242188Q916.726806640625 -59.04681396484375 979.7767944335938 3.502777099609375Q1042.8267822265625 66.0523681640625 1075.8529663085938 150.1190185546875Z" fill="#f4aa41" />
<path d="M1040 940 1109 340Q1109 295 1108.0 244.0Q1107 193 1091 153L1089 149Q1056 66 989.5 2.0Q923 -62 835.0 -96.5Q747 -131 650 -128Z" fill="#e27022" />
<path d="M1128 36Q1144 27 1153 43Q1162 59 1146 68L974 163Q958 172 949 156Q940 140 956 131Z" fill="#000000" />
<path d="M1052 -59Q1068 -68 1077 -52Q1086 -36 1070 -27L898 68Q882 77 873 61Q864 45 880 36Z" fill="#000000" />
<path d="M227 158Q230 149 236 147Q242 144 251 147Q268 154 261 171Q230 246 230 328L293 890L467 720Q476 711 487 716Q565 749 650 749H670Q755 749 833 716Q844 711 853 720L1027 890L1090 328Q1090 246 1059 171Q1052 154 1069 147Q1086 141 1093 158Q1126 239 1126 329Q1126 330 1126 331L1060 931Q1059 937 1054 942Q1048 948 1042 949Q1035 949 1029 942L836 754Q756 785 670 785H650Q564 785 484 754L291 942Q287 947 281 947Q262 949 260 931L194 331Q194 330 194 329Q194 239 227 158Z" fill="#000000" />
<path d="M428 -28Q420 -23 414 -25Q408 -26 403 -34Q393 -50 409 -59Q519 -128 650 -128H670Q801 -128 911 -59Q927 -50 917 -34Q912 -26 906 -25Q900 -23 892 -28Q790 -92 670 -92H650Q530 -92 428 -28Z" fill="#000000" />
<path d="M174.96783447265625 67.6422119140625Q167.1761474609375 63.31378173828125 165.44451904296875 57.25372314453125Q163.46551513671875 50.32794189453125 167.7939453125 42.5362548828125Q176.4508056640625 26.952880859375 192.89990234375 35.36236572265625L364.3170166015625 130.58782958984375Q372.3560791015625 135.781982421875 374.08770751953125 141.842041015625Q375.8193359375 147.902099609375 371.49090576171875 155.69378662109375Q361.96832275390625 171.5245361328125 346.38494873046875 162.86767578125Z" fill="#000000" />
<path d="M250.96783447265625 -27.3577880859375Q243.1761474609375 -31.68621826171875 241.44451904296875 -37.74627685546875Q239.46551513671875 -44.67205810546875 243.7939453125 -52.4637451171875Q252.4508056640625 -68.047119140625 268.89990234375 -59.63763427734375L440.3170166015625 35.58782958984375Q448.3560791015625 40.781982421875 450.08770751953125 46.842041015625Q451.8193359375 52.902099609375 447.49090576171875 60.69378662109375Q437.96832275390625 76.5245361328125 422.38494873046875 67.86767578125Z" fill="#000000" />
<path d="M998 320Q1004 313 1010 312Q1016 311 1024 317Q1031 322 1032 329Q1033 335 1027 342Q979 407 901 407Q820 407 787 339Q778 323 795 315Q811 307 819 323Q843 370 901 370Q961 370 998 320Z" fill="#000000" />
<path d="M293 342Q287 335 288 329Q289 322 296 317Q311 306 322 320Q359 370 419 370Q477 370 501 323Q509 307 525 315Q533 319 535 325Q537 331 533 339Q500 407 419 407Q341 407 293 342Z" fill="#000000" />
<path d="M659 188Q641 194 636 176Q631 159 648 153Q695 139 717 121Q725 114 724 112Q712 97 650 83Q641 81 637 75Q634 70 636 61Q638 50 649 47Q695 34 717 17Q721 14 723 12Q710 0 650 -11Q632 -14 636 -32Q639 -50 657 -47Q732 -33 751 -11Q765 5 758 23Q754 35 739 46Q728 55 712 63Q741 75 753 89Q776 119 741 149Q713 172 659 188Z" fill="#000000" />
</g></svg>