<svg xmlns="http://www.w3.org/2000/svg" viewBox="0 0 2048 2048">
<g transform="matrix(1 0 0 -1 0 2048)">
<path d="M1082 385Q1082 472 1049.0 548.5Q1016 625 958.0 683.0Q900 741 823.5 774.0Q747 807 660 807Q573 807 496.5 774.0Q420 741 362.0 683.0Q304 625 271.0 548.5Q238 472 238 385Q238 298 271.0 221.5Q304 145 362.0 87.0Q420 29 496.5 -4.0Q573 -37 660 -37Q747 -37 823.5 -4.0Q900 29 958.0 87.0Q1016 145 1049.0 221.5Q1082 298 1082 385Z" fill="#fcea2b" />
<path d="M673 309Q655 315 650 297Q645 279 662 274Q707 261 728 243Q736 237 735 235Q724 221 664 208Q646 203 650 186Q652 175 663 172Q707 159 728 143Q732 141 733 139Q720 128 664 118Q646 114 650 96Q653 78 671 82Q743 95 762 116Q776 132 769 150Q765 162 751 172Q740 181 725 188Q753 199 763 213Q786 242 752 271Q725 293 673 309Z" fill="#000000" />
<path d="M371 554Q363 538 379 530Q395 521 404 538Q421 571 456 584Q457 584 458 585Q491 601 528 591Q545 586 550 604Q555 621 538 626Q488 640 442 618Q395 600 371 554Z" fill="#000000" />
<path d="M914 537Q923 521 939 530Q947 535 949 541Q950 547 946 555Q890 653 781 627Q763 623 767 605Q771 587 789 591Q872 611 914 537Z" fill="#000000" />
<path d="M422 433Q414 429 412 423Q410 416 414 408Q423 392 439 401Q503 436 569 401Q585 392 593 409Q602 425 586 433Q502 478 422 433Z" fill="#000000" />
<path d="M738 433Q722 424 731 408Q740 392 756 401Q819 436 885 401Q901 392 910 409Q918 425 902 433Q819 478 738 433Z" fill="#000000" />
<path d="M1100 385Q1100 567 971 696Q842 825 660 825Q478 825 349 696Q220 567 220 385Q220 203 349 74Q478 -55 660 -55Q842 -55 971 74Q1100 203 1100 385ZM1063 385Q1063 218 945 100Q827 -18 660 -18Q493 -18 375 100Q257 218 257 385Q257 552 375 670Q493 788 660 788Q827 788 945 670Q1063 552 1063 385Z" fill="#000000" />
</g></svg>