<svg xmlns="http://www.w3.org/2000/svg" viewBox="0 0 2048 2048">
<g transform="matrix(1 0 0 -1 0 2048)">
<path d="M879.144287109375 311.20050048828125Q879.144287109375 330.156982421875 872.0616455078125 346.822021484375Q864.97900390625 363.487060546875 852.3760681152344 376.0899963378906Q839.7731323242188 388.69293212890625 823.1080932617188 395.77557373046875Q806.4430541992188 402.85821533203125 787.486572265625 402.85821533203125Q768.5300903320312 402.85821533203125 751.8650512695312 395.77557373046875Q735.2000122070312 388.69293212890625 722.5970764160156 376.0899963378906Q709.994140625 363.487060546875 702.9114990234375 346.822021484375Q695.828857421875 330.156982421875 695.828857421875 311.20050048828125Q695.828857421875 292.2440185546875 702.9114990234375 275.5789794921875Q709.994140625 258.9139404296875 722.5970764160156 246.31100463867188Q735.2000122070312 233.70806884765625 751.8650512695312 226.62542724609375Q768.5300903320312 219.54278564453125 787.486572265625 219.54278564453125Q806.4430541992188 219.54278564453125 823.1080932617188 226.62542724609375Q839.7731323242188 233.70806884765625 852.3760681152344 246.31100463867188Q864.97900390625 258.9139404296875 872.0616455078125 275.5789794921875Q879.144287109375 292.2440185546875 879.144287109375 311.20050048828125Z" fill="#d0cfce" />
<path d="M827 388Q850 373 861.5 347.5Q873 322 867 294Q862 266 842.0 246.0Q822 226 795 221Q767 216 741.0 227.0Q715 238 700 262Q727 244 759.0 247.5Q791 251 814 274Q837 297 840.5 329.0Q844 361 827 388Z" fill="#9b9b9a" />
<path d="M543 -184H612V70L596 192H559L543 70Z" fill="#d0cfce" />
<path d="M525 -184Q525 -202 543 -202H612Q630 -202 630 -184V70Q630 71 630 72L614 195Q612 211 596 211H559Q543 211 541 195L525 72Q525 71 525 70ZM562 -166V68L575 174H580L593 68V-166Z" fill="#d0cfce" />
<path d="M599 523Q599 541 581 541Q563 541 563 523V208Q563 190 581 190Q599 190 599 208Z" fill="#000000" />
<path d="M508.2340087890625 637.0995483398438V609.5006713867188H655.024658203125V637.0995483398438Z" fill="#000000" />
<path d="M595.0995483398438 962.2789916992188H567.5006713867188V521.8656005859375H595.0995483398438Z" fill="#000000" />
<path d="M539.8330688476562 953.89599609375H512.8967895507812V586.8779296875H539.8330688476562Z" fill="#000000" />
<path d="M485.09954833984375 907.1127319335938H457.50067138671875V673.7479248046875H485.09954833984375Z" fill="#000000" />
<path d="M650.0995483398438 953.468017578125H622.5006713867188V568.04931640625H650.0995483398438Z" fill="#000000" />
<path d="M705.0995483398438 907.1127319335938H677.5006713867188V673.7479248046875H705.0995483398438Z" fill="#000000" />
<path d="M412.91326904296875 802.0995483398438V774.5006713867188H738.0325927734375V802.0995483398438Z" fill="#000000" />
<path d="M436.34808349609375 747.0995483398438V719.5006713867188H727.4842529296875V747.0995483398438Z" fill="#000000" />
<path d="M468.49725341796875 692.0995483398438V664.5006713867188H683.5443115234375V692.0995483398438Z" fill="#000000" />
<path d="M424.4654541015625 857.0995483398438V829.5006713867188H737.690673828125V857.0995483398438Z" fill="#000000" />
<path d="M462.68798828125 912.0995483398438V884.5006713867188H719.6337890625V912.0995483398438Z" fill="#000000" />
<path d="M622.1709594726562 912.0995483398438V884.5006713867188H718.6085205078125V912.0995483398438Z" fill="#000000" />
<path d="M622.680908203125 857.0995483398438V829.5006713867188H739.88134765625V857.0995483398438Z" fill="#000000" />
<path d="M622.680908203125 802.0995483398438V774.5006713867188H739.88134765625V802.0995483398438Z" fill="#000000" />
<path d="M621.9164428710938 747.0995483398438V719.5006713867188H728.7147216796875V747.0995483398438Z" fill="#000000" />
<path d="M622.623046875 692.0995483398438V664.5006713867188H698.21484375V692.0995483398438Z" fill="#000000" />
<path d="M621.9379272460938 637.0995483398438V609.5006713867188H661.1014404296875V637.0995483398438Z" fill="#000000" />
<path d="M523.0432739257812 582.0995483398438V554.5006713867188H627.9351806640625V582.0995483398438Z" fill="#000000" />
<path d="M572 151Q573 160 569 165Q565 170 556 171Q538 173 536 155L525 72Q525 71 525 70V-184Q525 -202 543 -202H612Q630 -202 630 -184V70Q630 88 612 88Q593 88 593 70V-166H562V68Z" fill="#000000" />
<path d="M582 501V537Q557 537 550 572Q542 608 531 631Q527 640 506 668Q414 794 437 854Q450 888 494 912Q538 935 582 935V972Q529 972 477 944Q420 914 403 867Q372 788 477 647Q495 621 498 616Q507 596 514 564Q528 501 582 501Z" fill="#000000" />
<path d="M582 972V935Q626 935 670 912Q714 888 727 854Q751 794 658 668Q637 640 633 631Q623 608 615 572Q607 537 582 537V501Q637 501 650 564Q657 596 666 616Q669 621 688 647Q792 788 762 867Q744 914 687 944Q636 972 582 972Z" fill="#000000" />
<path d="M897 312Q897 356 865 388Q833 420 788 420Q744 420 712 388Q680 356 680 312Q680 267 712 235Q744 203 788 203Q833 203 865 235Q897 267 897 312ZM864 312Q864 281 841 259Q819 237 788 237Q713 237 713 312Q713 343 735 365Q757 387 788 387Q819 387 841 365Q864 343 864 312Z" fill="#000000" />
<path d="M508.2340087890625 637.0995483398438V609.5006713867188H655.024658203125V637.0995483398438Z" fill="#d0cfce" />
<path d="M595.0995483398438 962.2789916992188H567.5006713867188V521.8656005859375H595.0995483398438Z" fill="#d0cfce" />
<path d="M540.0995483398438 953.6242065429688H512.5006713867188V583.8294677734375H540.0995483398438Z" fill="#d0cfce" />
<path d="M485.09954833984375 907.5044555664062H457.50067138671875V679.3614501953125H485.09954833984375Z" fill="#d0cfce" />
<path d="M650.0995483398438 953.468017578125H622.5006713867188V568.04931640625H650.0995483398438Z" fill="#9b9b9a" />
<path d="M705.0995483398438 907.1127319335938H677.5006713867188V673.7479248046875H705.0995483398438Z" fill="#9b9b9a" />
<path d="M408.30499267578125 802.0995483398438V774.5006713867188H738.6461181640625V802.0995483398438Z" fill="#d0cfce" />
<path d="M436.34808349609375 747.0995483398438V719.5006713867188H727.4842529296875V747.0995483398438Z" fill="#d0cfce" />
<path d="M468.49725341796875 692.0995483398438V664.5006713867188H683.5443115234375V692.0995483398438Z" fill="#d0cfce" />
<path d="M414.22991943359375 857.0995483398438V829.5006713867188H737.8572998046875V857.0995483398438Z" fill="#d0cfce" />
<path d="M462.68798828125 912.0995483398438V884.5006713867188H719.6337890625V912.0995483398438Z" fill="#d0cfce" />
<path d="M622.1709594726562 912.0995483398438V884.5006713867188H718.6085205078125V912.0995483398438Z" fill="#9b9b9a" />
<path d="M622.680908203125 857.0995483398438V829.5006713867188H739.88134765625V857.0995483398438Z" fill="#9b9b9a" />
<path d="M622.680908203125 802.0995483398438V774.5006713867188H739.88134765625V802.0995483398438Z" fill="#9b9b9a" />
<path d="M621.9164428710938 747.0995483398438V719.5006713867188H728.7147216796875V747.0995483398438Z" fill="#9b9b9a" />
<path d="M622.623046875 692.0995483398438V664.5006713867188H698.21484375V692.0995483398438Z" fill="#9b9b9a" />
<path d="M621.9379272460938 637.0995483398438V609.5006713867188H661.1014404296875V637.0995483398438Z" fill="#9b9b9a" />
<path d="M523.0432739257812 582.0995483398438V554.5006713867188H627.9351806640625V582.0995483398438Z" fill="#d0cfce" />
<path d="M582 501V537Q557 537 550 572Q542 608 531 631Q527 640 506 668Q414 794 437 854Q450 888 494 912Q538 935 582 935V972Q529 972 477 944Q420 914 403 867Q372 788 477 647Q495 621 498 616Q507 596 514 564Q528 501 582 501Z" fill="#000000" />
<path d="M582 972V935Q626 935 670 912Q714 888 727 854Q751 794 658 668Q637 640 633 631Q623 608 615 572Q607 537 582 537V501Q637 501 650 564Q657 596 666 616Q669 621 688 647Q792 788 762 867Q744 914 687 944Q636 972 582 972Z" fill="#000000" />
</g></svg>