<svg xmlns="http://www.w3.org/2000/svg" viewBox="0 0 2048 2048">
<g transform="matrix(1 0 0 -1 0 2048)">
<path d="M1174.234619140625 384.7017822265625Q1174.234619140625 490.6162109375 1134.0601806640625 583.7478637695312Q1093.8857421875 676.8795166015625 1023.276123046875 747.4891357421875Q952.66650390625 818.0987548828125 859.5348510742188 858.273193359375Q766.4031982421875 898.4476318359375 660.48876953125 898.4476318359375Q554.5743408203125 898.4476318359375 461.44268798828125 858.273193359375Q368.31103515625 818.0987548828125 297.701416015625 747.4891357421875Q227.091796875 676.8795166015625 186.9173583984375 583.7478637695312Q146.742919921875 490.6162109375 146.742919921875 384.7017822265625Q146.742919921875 278.787353515625 186.9173583984375 185.65570068359375Q227.091796875 92.5240478515625 297.701416015625 21.9144287109375Q368.31103515625 -48.6951904296875 461.44268798828125 -88.86962890625Q554.5743408203125 -129.0440673828125 660.48876953125 -129.0440673828125Q766.4031982421875 -129.0440673828125 859.5348510742188 -88.86962890625Q952.66650390625 -48.6951904296875 1023.276123046875 21.9144287109375Q1093.8857421875 92.5240478515625 1134.0601806640625 185.65570068359375Q1174.234619140625 278.787353515625 1174.234619140625 384.7017822265625Z" fill="#fcea2b" />
<path d="M1192 385Q1192 605 1036 761Q880 917 660 917Q440 917 284 761Q128 605 128 385Q128 165 284 9Q440 -147 660 -147Q880 -147 1036 9Q1192 165 1192 385ZM1155 385Q1155 180 1010 35Q865 -110 660 -110Q455 -110 310 35Q165 180 165 385Q165 590 310 735Q455 880 660 880Q865 880 1010 735Q1155 590 1155 385Z" fill="#000000" />
</g></svg>