<svg xmlns="http://www.w3.org/2000/svg" viewBox="0 0 2048 2048">
<g transform="matrix(1 0 0 -1 0 2048)">
<path d="M1171 423Q1212 469 1223.5 526.5Q1235 584 1217.5 640.5Q1200 697 1155 738L230 701Q200 698 170.5 684.5Q141 671 119.0 645.5Q97 620 92 581V213Q89 179 110.0 160.0Q131 141 165.5 138.5Q200 136 239 151Q230 75 247.5 39.0Q265 3 299.0 -4.0Q333 -11 373 -1L749 138Q767 144 776.0 152.0Q785 160 795 173L948 349Q965 371 979.0 378.0Q993 385 1008 388Z" fill="#fcea2b" />
<path d="M781 185Q769 171 783 159Q797 147 809 161L962 337Q962 337 962 338Q983 363 1012 370L1175 405Q1181 406 1185 410Q1252 485 1247 585Q1242 685 1167 752Q1162 757 1154 756L229 719Q229 719 228 719Q90 705 74 584Q73 583 73 581L74 214Q69 151 128 128Q168 112 219 125Q214 33 258 -4Q300 -39 378 -19Q379 -19 380 -18L756 121Q773 127 767 144Q761 162 744 155L368 16Q308 1 281 24Q246 53 257 148Q258 153 256 157Q250 174 233 168Q179 147 141 162Q107 175 110 211Q110 212 110 213V580Q123 671 232 682L1148 720Q1206 664 1210 583Q1214 501 1161 439L1004 406Q962 396 934 361Z" fill="#000000" />
<path d="M299 501Q299 519 281 519Q262 519 262 501Q262 438 333 417Q371 406 456 405Q431 289 288 204Q272 195 281 179Q291 164 306 173Q478 274 496 421Q496 422 496 423Q496 441 478 441Q381 441 344 452Q299 465 299 501Z" fill="#000000" />
<path d="M812 164 962 337Q962 337 962 338Q983 363 1012 370L1175 405Q1181 406 1185 410Q1252 485 1247 585Q1242 685 1167 752Q1162 757 1154 756L229 719Q229 719 228 719Q90 705 74 584Q73 583 73 581L74 214Q69 151 128 128Q168 112 219 125Q214 33 258 -4Q300 -39 378 -19Q379 -19 380 -18L756 121Q757 121 758 122Q781 134 803 155Q806 158 808 159Q811 162 812 164ZM782 185Q780 183 778 181Q760 164 742 155L368 16Q308 1 281 24Q246 53 257 148Q258 153 256 157Q250 174 233 168Q179 147 141 162Q107 175 110 211Q110 212 110 213V580Q123 671 232 682L1148 720Q1206 664 1210 583Q1214 501 1161 439L1004 406Q962 396 934 361Z" fill="#000000" />
<path d="M299 501Q299 519 281 519Q262 519 262 501Q262 438 333 417Q371 406 456 405Q431 289 288 204Q272 195 281 179Q291 164 306 173Q478 274 496 421Q496 422 496 423Q496 441 478 441Q381 441 344 452Q299 465 299 501Z" fill="#000000" />
</g></svg>