<svg xmlns="http://www.w3.org/2000/svg" viewBox="0 0 2048 2048">
<g transform="matrix(1 0 0 -1 0 2048)">
<path d="M294 19Q295 18 296 18Q319 -5 350.0 -10.0Q381 -15 409 -3Q485 -42 578.5 -39.5Q672 -37 765.5 4.5Q859 46 938 125Q1018 204 1059.5 298.0Q1101 392 1103.0 485.0Q1105 578 1066 655Q1079 682 1074.0 713.5Q1069 745 1046 768Q1023 791 991.5 796.0Q960 801 932 788Q856 827 763.0 825.0Q670 823 576.0 781.5Q482 740 403 661Q324 582 282.5 488.0Q241 394 238.5 300.5Q236 207 275 131Q263 104 267.5 73.0Q272 42 294 19Z" fill="#fcea2b" />
<path d="M927 128Q1006 207 1050.0 298.0Q1094 389 1098.0 478.5Q1102 568 1063 645Q1063 645 1060.5 618.0Q1058 591 1048.5 545.0Q1039 499 1020.0 441.5Q1001 384 968.5 323.0Q936 262 887.0 204.5Q838 147 769.5 101.0Q701 55 608.5 28.0Q516 1 397 1Q474 -39 567.0 -36.5Q660 -34 754.0 7.5Q848 49 927 128Z" fill="#f4aa41" />
<path d="M558 -55Q656 -55 756.5 -11.0Q857 33 940 115Q1023 199 1068.0 293.0Q1113 387 1117.0 480.0Q1121 573 1080 653L1048 715L1045 646Q1045 645 1042.0 618.0Q1039 591 1030.0 546.0Q1021 501 1002.5 445.5Q984 390 953 331Q784 19 397 19H321L367 0Q367 0 388.0 -8.5Q409 -17 440.0 -27.5Q471 -38 503.5 -46.5Q536 -55 558 -55ZM494 -13Q602 -1 685.0 35.0Q768 71 829.5 123.0Q891 175 934.0 235.0Q977 295 1004.5 356.5Q1032 418 1048.0 473.0Q1064 528 1072 568Q1087 501 1073.5 427.0Q1060 353 1019.5 279.5Q979 206 914 141Q853 80 781.5 41.5Q710 3 636.0 -11.0Q562 -25 494 -13Z" fill="#f4aa41" />
<path d="M1044 772 987 714 1062 639Q1068 656 1066.0 678.5Q1064 701 1059.0 722.0Q1054 743 1049.0 757.5Q1044 772 1044 772Z" fill="#f4aa41" />
<path d="M308 15 344 64 430 2Q415 -7 394.0 -6.0Q373 -5 353.5 0.0Q334 5 321.0 10.0Q308 15 308 15Z" fill="#f4aa41" />
<path d="M281 7Q281 7 281 7Q282 6 283 5Q338 -51 408 -23Q527 -80 676 -45Q830 -9 951 112Q1073 233 1109 387Q1143 536 1086 655Q1114 725 1059 781Q1003 836 933 808Q814 866 665 831Q511 795 390 674Q269 552 233 398Q198 250 255 130Q228 62 281 7ZM307 32Q268 73 292 123L296 131L292 139Q235 249 268 390Q302 534 416 648Q529 761 674 795Q814 828 924 772L932 768L940 771Q992 795 1033 755Q1073 714 1049 662L1046 654L1050 646Q1106 536 1073 396Q1039 252 925 138Q812 24 668 -10Q527 -42 417 14L409 18L401 14Q349 -10 309 31Q308 31 307 32Z" fill="#000000" />
<path d="M281 7Q281 7 281 7Q282 6 283 5Q338 -51 408 -23Q527 -80 676 -45Q830 -9 951 112Q1073 233 1109 387Q1143 536 1086 655Q1114 725 1059 781Q1003 836 933 808Q814 866 665 831Q511 795 390 674Q269 552 233 398Q198 250 255 130Q228 62 281 7ZM307 32Q268 73 292 123L296 131L292 139Q235 249 268 390Q302 534 416 648Q529 761 674 795Q814 828 924 772L932 768L940 771Q992 795 1033 755Q1073 714 1049 662L1046 654L1050 646Q1106 536 1073 396Q1039 252 925 138Q812 24 668 -10Q527 -42 417 14L409 18L401 14Q349 -10 309 31Q308 31 307 32Z" fill="#000000" />
</g></svg>