<svg xmlns="http://www.w3.org/2000/svg" viewBox="0 0 2048 2048">
<g transform="matrix(1 0 0 -1 0 2048)">
<path d="M951 936Q966 936 977.0 925.0Q988 914 988 899V-130Q988 -145 977.0 -156.0Q966 -167 951 -167H366Q351 -167 340.0 -156.0Q329 -145 329 -130V899Q329 914 340.0 925.0Q351 936 366 936Z" fill="#d0cfce" />
<path d="M533.2308959960938 615.0513916015625H786.14990234375V437.6441650390625H533.2308959960938Z" fill="#3f3f3f" />
<path d="M716 789Q716 789 716.5 771.5Q717 754 718.0 728.0Q719 702 720.0 676.0Q721 650 721.5 632.5Q722 615 722 615H600Q600 615 601.0 635.0Q602 655 602.5 684.5Q603 714 604.0 743.5Q605 773 605.5 793.0Q606 813 606 813Q606 824 618.0 830.5Q630 837 642.5 840.5Q655 844 655 844Q665 844 679.5 834.5Q694 825 705.0 812.0Q716 799 716 789Z" fill="#9b9b9a" />
<path d="M600 432H716V-18Q716 -33 699.0 -53.0Q682 -73 655 -73Q628 -73 614.0 -53.0Q600 -33 600 -18Z" fill="#9b9b9a" />
<path d="M582 622Q582 603 600 603Q618 603 618 622V789Q618 826 655 826H661Q698 826 698 789V622Q698 603 716 603Q735 603 735 622V789Q735 862 661 862H655Q625 862 603 841Q582 819 582 789Z" fill="#000000" />
<path d="M735 432Q735 451 716 451Q698 451 698 432V-18Q698 -54 661 -54H655Q618 -54 618 -18V432Q618 451 600 451Q582 451 582 432V-18Q582 -91 655 -91H661Q735 -91 735 -18Z" fill="#000000" />
<path d="M515 437Q515 419 534 419H786Q805 419 805 437V615Q805 633 786 633H534Q515 633 515 615ZM552 597H768V456H552Z" fill="#000000" />
<path d="M605 544Q587 544 587 526Q587 507 605 507H713Q732 507 732 526Q732 544 713 544Z" fill="#000000" />
<path d="M951 -203Q982 -203 1003 -182Q1025 -160 1025 -130V899Q1025 973 951 973H366Q292 973 292 899V-130Q292 -160 314 -182Q335 -203 366 -203ZM951 -167H366Q329 -167 329 -130V899Q329 936 366 936H951Q988 936 988 899V-130Q988 -167 951 -167Z" fill="#000000" />
<path d="M878 729Q860 729 860 710Q860 692 878 692H927Q945 692 945 710Q945 729 927 729Z" fill="#000000" />
<path d="M878 832Q860 832 860 813Q860 795 878 795H927Q945 795 945 813Q945 832 927 832Z" fill="#000000" />
<path d="M878.3023681640625 633.9298706054688Q860.378173828125 633.9298706054688 860.378173828125 615.0098876953125Q860.378173828125 597.085693359375 878.3023681640625 597.085693359375H927.0960083007812Q945.0202026367188 597.085693359375 945.0202026367188 615.0098876953125Q945.0202026367188 633.9298706054688 927.0960083007812 633.9298706054688Z" fill="#000000" />
<path d="M878 547Q860 547 860 528Q860 510 878 510H927Q945 510 945 528Q945 547 927 547Z" fill="#000000" />
<path d="M878.3023681640625 450.92987060546875Q860.378173828125 450.92987060546875 860.378173828125 432.0098876953125Q860.378173828125 414.085693359375 878.3023681640625 414.085693359375H927.0960083007812Q945.0202026367188 414.085693359375 945.0202026367188 432.0098876953125Q945.0202026367188 450.92987060546875 927.0960083007812 450.92987060546875Z" fill="#000000" />
<path d="M878 348Q860 348 860 329Q860 311 878 311H927Q945 311 945 329Q945 348 927 348Z" fill="#000000" />
<path d="M878 253Q860 253 860 234Q860 216 878 216H927Q945 216 945 234Q945 253 927 253Z" fill="#000000" />
<path d="M878.322509765625 165.7586669921875Q860.25439453125 165.7586669921875 860.25439453125 146.686767578125Q860.25439453125 128.61865234375 878.322509765625 128.61865234375H927.5079345703125Q945.5760498046875 128.61865234375 945.5760498046875 146.686767578125Q945.5760498046875 165.7586669921875 927.5079345703125 165.7586669921875Z" fill="#000000" />
<path d="M877.3720703125 70.5615234375Q860.03662109375 70.5615234375 860.03662109375 51.892578125Q860.03662109375 33.2236328125 877.3720703125 33.2236328125H926.71142578125Q945.38037109375 33.2236328125 945.38037109375 51.892578125Q945.38037109375 70.5615234375 926.71142578125 70.5615234375Z" fill="#000000" />
<path d="M878 -16Q860 -16 860 -35Q860 -53 878 -53H927Q945 -53 945 -35Q945 -16 927 -16Z" fill="#000000" />
<path d="M390 729Q372 729 372 710Q372 692 390 692H439Q457 692 457 710Q457 729 439 729Z" fill="#000000" />
<path d="M390 832Q372 832 372 813Q372 795 390 795H439Q457 795 457 813Q457 832 439 832Z" fill="#000000" />
<path d="M390.3023681640625 633.9298706054688Q372.378173828125 633.9298706054688 372.378173828125 615.0098876953125Q372.378173828125 597.085693359375 390.3023681640625 597.085693359375H439.09600830078125Q457.02020263671875 597.085693359375 457.02020263671875 615.0098876953125Q457.02020263671875 633.9298706054688 439.09600830078125 633.9298706054688Z" fill="#000000" />
<path d="M390 547Q372 547 372 528Q372 510 390 510H439Q457 510 457 528Q457 547 439 547Z" fill="#000000" />
<path d="M390.3023681640625 450.92987060546875Q372.378173828125 450.92987060546875 372.378173828125 432.0098876953125Q372.378173828125 414.085693359375 390.3023681640625 414.085693359375H439.09600830078125Q457.02020263671875 414.085693359375 457.02020263671875 432.0098876953125Q457.02020263671875 450.92987060546875 439.09600830078125 450.92987060546875Z" fill="#000000" />
<path d="M390 348Q372 348 372 329Q372 311 390 311H439Q457 311 457 329Q457 348 439 348Z" fill="#000000" />
<path d="M390 253Q372 253 372 234Q372 216 390 216H439Q457 216 457 234Q457 253 439 253Z" fill="#000000" />
<path d="M389.322509765625 165.7586669921875Q371.25439453125 165.7586669921875 371.25439453125 146.686767578125Q371.25439453125 128.61865234375 389.322509765625 128.61865234375H438.5079345703125Q456.5760498046875 128.61865234375 456.5760498046875 146.686767578125Q456.5760498046875 165.7586669921875 438.5079345703125 165.7586669921875Z" fill="#000000" />
<path d="M389.3720703125 70.5615234375Q372.03662109375 70.5615234375 372.03662109375 51.892578125Q372.03662109375 33.2236328125 389.3720703125 33.2236328125H438.71142578125Q457.38037109375 33.2236328125 457.38037109375 51.892578125Q457.38037109375 70.5615234375 438.71142578125 70.5615234375Z" fill="#000000" />
<path d="M390 -16Q372 -16 372 -35Q372 -53 390 -53H439Q457 -53 457 -35Q457 -16 439 -16Z" fill="#000000" />
</g></svg>