<svg xmlns="http://www.w3.org/2000/svg" viewBox="0 0 2048 2048">
<g transform="matrix(1 0 0 -1 0 2048)">
<path d="M347 577 439 629 877 637 912 626Q912 626 926.5 616.0Q941 606 960.5 592.5Q980 579 995.0 567.5Q1010 556 1011 553Q1013 550 1026.0 536.5Q1039 523 1055.5 506.5Q1072 490 1084.5 478.0Q1097 466 1097 466L1141 353L1147 176Q1122 95 1085.0 43.0Q1048 -9 1012.0 -38.5Q976 -68 951.5 -80.0Q927 -92 927 -92Q850 -151 779.0 -174.5Q708 -198 646.0 -196.5Q584 -195 534.5 -178.5Q485 -162 449.5 -140.5Q414 -119 395.0 -103.0Q376 -87 376 -87Q319 -57 279.5 -16.5Q240 24 216.0 62.5Q192 101 181.5 127.0Q171 153 171 153Q171 153 169.0 187.5Q167 222 177 301Q181 333 198.5 369.5Q216 406 239.0 442.5Q262 479 285.5 509.0Q309 539 326.0 557.5Q343 576 347 577Z" fill="#a57939" />
<path d="M1102 656 1051 597 996 567 1026 539Q1064 470 1072.0 411.0Q1080 352 1070.0 305.5Q1060 259 1042.5 226.0Q1025 193 1010.5 176.0Q996 159 996 159Q1003 119 996.0 83.0Q989 47 975.5 18.0Q962 -11 948.5 -30.0Q935 -49 929 -57L886 -145Q845 -182 783.0 -201.0Q721 -220 653.0 -221.0Q585 -222 523.0 -204.0Q461 -186 420 -150L361 -28Q336 16 329.0 55.0Q322 94 325.5 125.0Q329 156 335.0 173.5Q341 191 341 191Q292 241 270.5 286.5Q249 332 247.0 372.0Q245 412 255.5 444.5Q266 477 280.5 500.0Q295 523 306.5 535.5Q318 548 318 548L245 613Q216 644 211.0 680.0Q206 716 213.0 748.0Q220 780 229.0 800.5Q238 821 238 821Q257 839 286.5 840.5Q316 842 345.5 835.5Q375 829 394.5 821.5Q414 814 414 814Q413 821 423.5 832.0Q434 843 444.5 851.5Q455 860 455 860L476 865L662 901L769 851L829 752L886 801L982 846L1086 833L1106 762Z" fill="#f4aa41" />
<path d="M410 818 461 765 499 734Q499 734 514.0 740.0Q529 746 549.0 754.5Q569 763 585.0 769.5Q601 776 602 776Q604 778 613.0 776.5Q622 775 645.0 766.5Q668 758 712 735Q756 713 782.0 712.0Q808 711 820.0 718.0Q832 725 832 725L824 770Q824 770 814.0 781.5Q804 793 788.5 810.0Q773 827 757.0 844.0Q741 861 729.0 873.0Q717 885 714 885Q711 886 691.0 888.5Q671 891 647.0 894.5Q623 898 605.0 901.0Q587 904 587 904Q587 904 553.5 895.5Q520 887 481 873Q441 858 425.5 838.0Q410 818 410 818Z" fill="#a57939" />
<path d="M874 269Q873 267 860.0 254.0Q847 241 836 229Q840 217 843.5 206.0Q847 195 846 193Q846 192 841.0 179.0Q836 166 829.5 149.0Q823 132 818.5 119.5Q814 107 814 107L768 83L696 111L663 128L627 99L531 86L490 137Q490 137 486.0 150.0Q482 163 480.5 182.5Q479 202 486 222Q479 229 468.5 239.5Q458 250 449.5 258.5Q441 267 441 269Q440 270 437.5 286.5Q435 303 430.5 326.5Q426 350 422.5 373.0Q419 396 416.0 412.0Q413 428 413 428H416Q416 428 424.5 414.5Q433 401 447.5 382.0Q462 363 480.5 346.5Q499 330 520 324L529 296L527 263Q541 266 552.0 263.5Q563 261 563 261L585 269Q585 269 593.5 265.5Q602 262 611.5 259.0Q621 256 623 255Q624 255 628.0 245.5Q632 236 635.5 226.5Q639 217 639 217L670 207L680 223L713 254Q713 254 726.5 253.5Q740 253 757 263Q763 267 771.0 268.0Q779 269 788 268L786 296L795 324Q816 330 834.5 346.5Q853 363 867.5 382.0Q882 401 890.0 414.5Q898 428 898 428H901Q901 428 898.5 412.0Q896 396 892.0 373.0Q888 350 884.0 326.5Q880 303 877.0 286.5Q874 270 874 269Z" fill="#ffffff" />
<path d="M496 713 472 755 402 811 329 830 243 820 224 739 221 673Q221 673 229.5 658.5Q238 644 250.0 624.5Q262 605 272.0 589.5Q282 574 284 572Q289 569 303.0 564.5Q317 560 322 562Q325 564 336.0 570.0Q347 576 358.0 582.5Q369 589 371 590Q372 591 385.0 594.0Q398 597 414.0 600.5Q430 604 442.0 606.5Q454 609 454 609Q479 635 487.5 659.0Q496 683 496.0 698.0Q496 713 496 713Z" fill="#f4aa41" />
<path d="M824.9735107421875 727.8524169921875 848.9654541015625 769.8502197265625 918.9500732421875 825.8519287109375 991.9388427734375 844.8585205078125 1077.9295654296875 834.8702392578125 1096.9371337890625 753.8824462890625 1099.94482421875 687.890869140625Q1099.94482421875 687.890869140625 1091.4476318359375 673.3916015625Q1082.950439453125 658.892333984375 1070.9542846679688 639.3932495117188Q1058.9581298828125 619.8941650390625 1048.9612426757812 604.3948364257812Q1038.96435546875 588.8955078125 1036.96484375 586.8955078125Q1031.9658203125 583.895263671875 1017.9680786132812 579.3941040039062Q1003.9703369140625 574.8929443359375 998.970703125 576.89208984375Q995.9708251953125 578.8914794921875 984.971435546875 584.889404296875Q973.9720458984375 590.8873291015625 962.9725952148438 597.3851928710938Q951.97314453125 603.883056640625 949.9732666015625 604.8826904296875Q948.9732666015625 605.8824462890625 935.9744873046875 608.8804931640625Q922.9757080078125 611.8785400390625 906.9772338867188 615.3761596679688Q890.978759765625 618.873779296875 878.9799194335938 621.3720092773438Q866.9810791015625 623.8702392578125 866.9810791015625 623.8702392578125Q841.98095703125 649.864013671875 833.4790649414062 673.8600463867188Q824.9771728515625 697.8560791015625 824.975341796875 712.854248046875Q824.9735107421875 727.8524169921875 824.9735107421875 727.8524169921875Z" fill="#f4aa41" />
<path d="M507 104Q507 104 527.0 98.5Q547 93 571 87Q588 83 594.5 87.5Q601 92 602.5 98.0Q604 104 604 104L660 134L688 110L768 83L822 110L778 14L697 -15L591 -8L544 21Z" fill="#ffffff" />
<path d="M546.7816772460938 497.8828125Q540.298095703125 501.7803955078125 533.1186218261719 502.748291015625Q525.9391479492188 503.7161865234375 519.0183715820312 501.9921875Q512.0975952148438 500.2681884765625 506.21112060546875 496.0455017089844Q500.32464599609375 491.82281494140625 496.42706298828125 485.3392333984375Q492.52947998046875 478.85565185546875 491.56158447265625 471.6761779785156Q490.59368896484375 464.4967041015625 492.31768798828125 457.575927734375Q494.04168701171875 450.6551513671875 498.2643737792969 444.7686767578125Q502.487060546875 438.8822021484375 508.97064208984375 434.984619140625Q515.4542236328125 431.0870361328125 522.6336975097656 430.119140625Q529.8131713867188 429.1512451171875 536.7339477539062 430.875244140625Q543.6547241210938 432.5992431640625 549.5411987304688 436.8219299316406Q555.4276733398438 441.04461669921875 559.3252563476562 447.5281982421875Q563.2228393554688 454.01177978515625 564.1907348632812 461.1912536621094Q565.1586303710938 468.3707275390625 563.4346313476562 475.29150390625Q561.7106323242188 482.2122802734375 557.4879455566406 488.0987548828125Q553.2652587890625 493.9852294921875 546.7816772460938 497.8828125Z" fill="#000000" />
<path d="M828.386962890625 485.16510009765625Q824.4893798828125 491.648681640625 818.6029052734375 495.8713684082031Q812.7164306640625 500.09405517578125 805.795654296875 501.81805419921875Q798.8748779296875 503.54205322265625 791.6954040527344 502.57415771484375Q784.5159301757812 501.60626220703125 778.0323486328125 497.70867919921875Q771.5487670898438 493.81109619140625 767.3260803222656 487.92462158203125Q763.1033935546875 482.03814697265625 761.37939453125 475.11737060546875Q759.6553955078125 468.19659423828125 760.623291015625 461.0171203613281Q761.5911865234375 453.837646484375 765.48876953125 447.35406494140625Q769.3863525390625 440.8704833984375 775.2728271484375 436.6477966308594Q781.1593017578125 432.42510986328125 788.080078125 430.70111083984375Q795.0008544921875 428.97711181640625 802.1803283691406 429.94500732421875Q809.3598022460938 430.91290283203125 815.8433837890625 434.81048583984375Q822.3269653320312 438.70806884765625 826.5496520996094 444.59454345703125Q830.7723388671875 450.48101806640625 832.496337890625 457.40179443359375Q834.2203369140625 464.32257080078125 833.25244140625 471.5020446777344Q832.2845458984375 478.6815185546875 828.386962890625 485.16510009765625Z" fill="#000000" />
<path d="M730 241Q745 230 755 245Q766 260 751 270Q737 281 718 278Q687 273 671 228L661 220L650 228Q634 273 603 278Q585 281 570 270Q562 265 561 259Q560 252 566 245Q576 230 591 241Q594 242 597 242Q608 240 617 212Q619 206 623 203L649 183Q661 174 672 183L698 203Q702 206 704 212Q713 240 724 242Q727 242 730 241Z" fill="#000000" />
<path d="M803 322Q793 337 778 328Q762 318 772 302L811 238Q815 232 816 226L822 188Q823 178 819 169L798 125Q790 107 769 104Q756 101 744 106L720 115Q714 118 709 122L684 143Q679 147 672 147H649Q642 147 637 143L612 122Q607 118 601 115L577 106Q565 101 552 104Q531 107 523 125L502 169Q498 178 499 188L505 226Q506 232 510 238L549 302Q554 310 553 317Q551 323 543 328Q528 337 518 322L479 257Q471 245 469 231L463 193Q460 173 469 153L490 109Q506 75 545 68Q569 63 591 72L615 81Q626 86 635 94L656 110H666L686 94Q695 86 706 81L730 72Q752 63 776 68Q815 75 831 109L852 153Q861 173 858 193L852 231Q850 245 842 257Z" fill="#000000" />
<path d="M679 197Q679 216 661 216Q642 216 642 197V147Q642 129 661 129Q679 129 679 147Z" fill="#000000" />
<path d="M573 40Q560 53 547 40Q540 34 540 27Q540 21 547 14L561 0Q590 -30 631 -32L686 -34Q726 -36 757 -11L773 3Q787 14 775 28Q764 43 750 31L734 18Q714 1 688 2L632 5Q606 6 587 25Z" fill="#000000" />
<path d="M318 536Q335 529 342 546Q349 563 332 570Q229 612 231 711Q232 759 251 800Q326 842 406 786Q449 756 476 716Q486 701 501 711Q502 712 504 713Q523 731 559 744Q631 769 709 735Q726 727 733 744Q737 752 735 758Q732 764 724 768Q632 808 547 778Q516 768 494 752Q467 788 427 816Q325 887 228 829Q223 826 221 821Q195 771 194 711Q192 587 318 536Z" fill="#000000" />
<path d="M447 603Q464 609 458 627Q452 644 434 638Q351 609 277 534Q128 385 170 159Q172 150 177 146Q183 143 192 144Q210 148 206 166Q167 373 303 509Q371 577 447 603Z" fill="#000000" />
<path d="M372 206Q377 214 376 220Q375 226 367 232Q352 242 342 227Q234 72 425 -152Q437 -166 451 -154Q465 -142 453 -128Q280 74 372 206Z" fill="#000000" />
<path d="M456 526Q466 542 451 552Q435 562 425 547Q397 505 389 440Q372 312 466 199Q478 185 492 196Q499 202 499 209Q500 215 494 222Q410 323 425 436Q432 491 456 526Z" fill="#000000" />
<path d="M454 860Q447 854 446 848Q445 841 450 834Q461 819 476 830Q530 871 600 880Q736 897 813 739Q817 731 823 729Q829 727 837 731Q854 739 846 755Q758 937 595 916Q516 906 454 860Z" fill="#000000" />
<path d="M814 753Q804 738 819 727Q826 722 833 724Q839 725 844 732Q871 772 914 803Q994 859 1069 817Q1088 776 1089 727Q1091 628 988 587Q971 580 978 563Q981 554 987 552Q993 549 1002 553Q1128 604 1126 728Q1125 788 1099 838Q1097 843 1092 845Q995 904 893 833Q844 799 814 753Z" fill="#000000" />
<path d="M886 655Q868 661 862 643Q859 635 862 629Q865 623 873 620Q949 593 1017 525Q1153 390 1114 182Q1110 164 1128 161Q1146 158 1150 176Q1192 402 1043 551Q969 625 886 655Z" fill="#000000" />
<path d="M1000 204Q993 221 976 214Q959 207 966 190Q1018 66 867 -112Q861 -119 862 -125Q862 -132 869 -138Q883 -149 895 -135Q1061 59 1000 204Z" fill="#000000" />
<path d="M895 563Q885 579 869 568Q854 558 864 543Q888 508 895 452Q910 340 826 239Q814 225 828 213Q842 201 854 215Q948 329 931 457Q923 521 895 563Z" fill="#000000" />
</g></svg>