<svg xmlns="http://www.w3.org/2000/svg" viewBox="0 0 2048 2048">
<g transform="matrix(1 0 0 -1 0 2048)">
<path d="M732 177Q607 166 522.5 177.5Q438 189 387.0 208.0Q336 227 313.0 243.5Q290 260 290 260Q290 260 272.5 279.0Q255 298 219.0 323.0Q183 348 128 367Q87 380 73.5 391.0Q60 402 64.5 410.5Q69 419 82.5 426.0Q96 433 110 440Q138 454 147.5 463.0Q157 472 157 472Q157 472 171.0 471.5Q185 471 210.0 463.0Q235 455 269 432Q294 416 331.5 395.0Q369 374 413.0 354.5Q457 335 504.0 321.0Q551 307 596 304Q641 301 684.5 306.0Q728 311 772.5 313.5Q817 316 865.0 307.5Q913 299 966 269Q1018 239 1068.5 224.5Q1119 210 1159.0 205.5Q1199 201 1223.0 201.5Q1247 202 1247 202Q1247 202 1222.5 197.0Q1198 192 1159.0 187.0Q1120 182 1075.0 182.0Q1030 182 988 193Q946 203 901.5 202.0Q857 201 818.5 195.0Q780 189 756.0 183.0Q732 177 732 177Z" fill="#b1cc33" />
<path d="M728 211Q710 207 714 189Q717 171 735 174Q876 201 984 175Q1100 146 1251 184Q1269 188 1264 206Q1261 221 1245 220Q1110 208 975 285Q873 342 704 327Q633 320 597 322Q455 331 279 448Q206 496 155 490Q148 490 143 483Q135 473 102 456Q99 455 93 452Q48 430 45 409Q41 376 123 349Q228 314 277 265Q284 259 290 259Q297 259 303 265Q316 278 303 291Q248 346 134 384Q101 395 87 404Q85 406 84 407Q89 410 109 419Q115 422 118 424Q151 440 166 454Q202 454 259 417Q443 295 595 286Q633 283 707 290Q865 305 957 253Q1020 217 1084 199Q1036 200 993 210Q877 239 728 211Z" fill="#000000" />
<path d="M398 237Q380 243 375 225Q372 216 375 211Q378 205 387 202Q495 168 588 176Q606 177 605 196Q603 214 585 212Q499 205 398 237Z" fill="#000000" />
<path d="M365 249Q372 266 356 274Q347 277 341 275Q335 272 331 264L276 136Q269 119 286 111Q295 108 301 110Q307 113 310 121Z" fill="#000000" />
<path d="M294.0 147.0Q312.0 147.0 312.0 165.0Q312.0 183.0 294.0 183.0H275.0Q257.0 183.0 257.0 165.0Q257.0 147.0 275.0 147.0Z" fill="#000000" />
<path d="M324 178Q311 191 298 178Q285 165 298 152L317 133Q330 120 343 133Q356 146 343 159Z" fill="#000000" />
<path d="M688 191Q690 209 671 211Q653 212 652 194L643 68Q642 49 660 48Q678 47 680 65Z" fill="#000000" />
<path d="M656.025146484375 80.265869140625Q672.728759765625 86.998291015625 665.996337890625 103.701904296875Q659.263916015625 120.405517578125 642.560302734375 113.673095703125L624.9287109375 106.566650390625Q608.22509765625 99.834228515625 614.95751953125 83.130615234375Q621.68994140625 66.427001953125 638.3935546875 73.159423828125Z" fill="#000000" />
<path d="M672 121Q655 127 649 110Q643 92 660 86L683 78Q701 72 707 89Q713 106 696 113Z" fill="#000000" />
</g></svg>