<svg xmlns="http://www.w3.org/2000/svg" viewBox="0 0 2048 2048">
<g transform="matrix(1 0 0 -1 0 2048)">
<path d="M529 534 771 515 917 660Q917 660 918.0 672.5Q919 685 917.0 704.5Q915 724 906.5 744.0Q898 764 879.0 779.0Q860 794 826 798Q792 801 748.0 802.0Q704 803 659.0 802.5Q614 802 575.5 800.5Q537 799 513.5 797.5Q490 796 490 796L395 660Z" fill="#ffffff" />
<path d="M715 73 788 -128Q755 -106 715 -103Q681 -103 660 -128Q639 -103 605 -103Q565 -106 532 -128L605 73L660 48Z" fill="#d22f27" />
<path d="M779 450Q798 342 778 235Q774 217 770 200Q745 104 693 19Q689 14 684 10Q672 1 658 0Q643 1 632 10Q627 14 623 19Q570 104 546 200Q541 217 538 235Q517 342 536 450Q538 463 541 475Q554 543 585 604Q585 605 585.5 605.5Q586 606 587 607Q588 629 603.5 644.0Q619 659 641 660H675Q697 659 712.5 644.0Q728 629 729 607Q729 606 729.5 605.5Q730 605 731 604Q762 543 774 475Q777 463 779 450Z" fill="#d22f27" />
<path d="M546 200Q541 217 538 235Q517 342 536 450Q538 463 541 475Q554 543 585 604Q585 605 585.5 605.5Q586 606 587 607Q588 629 603.5 644.0Q619 659 641 660H675Q697 659 712.5 644.0Q728 629 729 607Q729 606 729.5 605.5Q730 605 731 604Q762 543 774 475Q777 463 779 450Q798 342 778 235Q774 217 770 200Q767 187 762.5 173.5Q758 160 754 147Q658 185 563 146Q558 159 553.5 173.0Q549 187 546 200Z" fill="#ea5a47" />
<path d="M540 226Q539 229 538.5 231.0Q538 233 538 235Q517 342 536 450Q538 463 541 475Q554 543 585 604Q585 605 585.5 605.5Q586 606 587 607Q588 629 603.5 644.0Q619 659 641 660H675Q697 659 712.5 644.0Q728 629 729 607Q729 606 729.5 605.5Q730 605 731 604Q762 543 774 475Q777 463 779 450Q798 342 778 235Q777 233 777.0 231.5Q777 230 776 229Q720 257 657.5 256.5Q595 256 540 226Z" fill="#d22f27" />
<path d="M660 348Q589 349 528 312Q524 381 536 450Q538 463 541 475Q554 543 585 604Q585 605 585.5 605.5Q586 606 587 607Q588 629 603.5 644.0Q619 659 641 660H675Q697 659 712.5 644.0Q728 629 729 607Q729 606 729.5 605.5Q730 605 731 604Q762 543 774 475Q777 463 779 450Q791 382 787 314Q728 349 660 348Z" fill="#ea5a47" />
<path d="M660 440Q590 440 530 404Q532 429 536 450Q538 463 541 475Q554 543 585 604Q585 605 585.5 605.5Q586 606 587 607Q588 629 603.5 644.0Q619 659 641 660H675Q697 659 712.5 644.0Q728 629 729 607Q729 606 729.5 605.5Q730 605 731 604Q762 543 774 475Q777 463 779 450Q783 430 785 407Q727 440 660 440Z" fill="#d22f27" />
<path d="M542 495Q546 502 522.0 528.5Q498 555 450 605Q433 622 419.0 636.0Q405 650 395 660Q413 686 432 715Q453 748 471.0 780.5Q489 813 505 843Q459 857 413 843Q366 827 336.0 787.0Q306 747 303 697Q301 658 315.5 628.0Q330 598 348.5 578.5Q367 559 377 550Q409 522 445.5 507.0Q482 492 509.5 489.0Q537 486 542 495Z" fill="#ea5a47" />
<path d="M751.0 495.0Q747.0 502.0 771.0 528.5Q795.0 555.0 843.0 605.0Q860.0 622.0 874.0 636.0Q888.0 650.0 898.0 660.0Q880.0 686.0 861.0 715.0Q840.0 748.0 822.0 780.5Q804.0 813.0 788.0 843.0Q834.0 857.0 880.0 843.0Q927.0 827.0 957.0 787.0Q987.0 747.0 990.0 697.0Q992.0 658.0 977.5 628.0Q963.0 598.0 944.5 578.5Q926.0 559.0 916.0 550.0Q884.0 522.0 847.5 507.0Q811.0 492.0 783.5 489.0Q756.0 486.0 751.0 495.0Z" fill="#ea5a47" />
<path d="M788 458Q770 458 770 440Q770 422 788 422H917Q920 422 923 423L1015 460Q1024 463 1026 469Q1029 475 1025 483Q1019 500 1002 494L913 458Z" fill="#000000" />
<path d="M789 434Q772 439 767 421Q763 403 781 399L944 359Q949 358 953 359L1032 378Q1050 382 1046 400Q1042 417 1024 413L949 396Z" fill="#000000" />
<path d="M819 403Q803 411 794 395Q786 379 802 370L946 298L995 244Q1007 231 1021 243Q1034 255 1022 269L971 325Q969 327 966 329Z" fill="#000000" />
<path d="M824 382Q813 397 798 387Q783 376 793 361L862 261L854 195Q852 177 870 175Q888 173 890 191L899 263Q900 270 896 276Z" fill="#000000" />
<path d="M532 422Q550 422 550 440Q550 458 532 458H407L318 494Q301 500 295 483Q288 466 305 460L397 423Q400 422 403 422Z" fill="#000000" />
<path d="M539 399Q557 403 553 421Q551 430 545 433Q539 437 531 434L371 396L296 413Q287 415 282 412Q276 408 274 400Q270 382 288 378L367 359Q371 358 376 359Z" fill="#000000" />
<path d="M518 370Q534 379 526 395Q522 403 515 405Q509 407 501 403L354 329Q351 327 349 325L298 269Q292 262 292 256Q293 249 299 243Q306 237 313 237Q319 238 325 244L374 298Z" fill="#000000" />
<path d="M527 361Q537 376 522 387Q507 397 496 382L424 276Q420 270 421 263L430 191Q432 173 450 175Q459 176 463 181Q467 186 466 195L458 261Z" fill="#000000" />
<path d="M662 659Q662 650 667 645Q672 641 681 642Q699 643 698 661Q694 733 698 805Q701 869 710 876Q716 881 720 879Q724 877 733 866Q738 859 741 857Q755 846 766 861Q772 868 771 874Q770 881 763 886L762 888Q749 905 737 911Q711 925 686 904Q665 887 662 808Q657 733 662 659Z" fill="#000000" />
<path d="M621 661Q621 652 625 647Q629 642 639 642Q657 641 658 659Q662 733 658 808Q654 887 633 904Q609 925 583 911Q571 905 558 888L557 886Q550 881 549 874Q548 868 553 861Q564 846 579 857Q582 859 587 866Q595 877 600 879Q604 881 610 876Q618 869 621 805Q626 733 621 661Z" fill="#000000" />
<path d="M526.8447265625 748.8974609375Q544.197998046875 756.639404296875 536.4560546875 773.99267578125Q529.12158203125 790.4326171875 511.768310546875 782.690673828125L445.09521484375 752.9453125Q428.6552734375 745.61083984375 435.98974609375 729.1708984375Q443.731689453125 711.817626953125 460.171630859375 719.152099609375Z" fill="#000000" />
<path d="M616 49Q622 66 605 73Q596 76 590 73Q584 70 581 62L514 -122Q508 -139 525 -146Q534 -149 542 -144Q571 -124 606 -121Q630 -121 646 -140Q652 -147 658 -148Q665 -148 672 -142Q678 -137 678 -128V-6Q678 13 660 13Q642 13 642 -6V-92Q625 -84 605 -85Q604 -85 604 -85Q583 -86 564 -92Z" fill="#000000" />
<path d="M739 62Q732 79 715 73Q698 67 704 49L756 -92Q737 -86 716 -85Q716 -85 715 -85Q695 -84 678 -92V-6Q678 13 660 13Q642 13 642 -6V-128Q642 -137 648 -142Q655 -148 662 -148Q668 -147 674 -140Q690 -121 714 -121Q749 -124 778 -144Q786 -149 795 -146Q812 -139 806 -122Z" fill="#000000" />
<path d="M558 486Q570 508 463 618Q441 640 419 662Q433 683 447 705Q487 768 521 835Q522 836 522 838Q525 847 522 852Q519 858 510 861Q459 876 408 861Q407 861 407 861Q292 820 285 698Q280 611 364 536Q412 494 475 477Q542 458 558 486ZM519 504Q509 506 484 512Q430 527 389 564Q318 626 322 696Q327 793 419 826Q448 835 478 831Q449 776 416 725Q398 696 380 671Q371 658 382 647Q410 620 437 592Q493 534 508 517Q515 509 519 504Z" fill="#000000" />
<path d="M796 231Q817 342 797 453Q795 466 792 479Q779 549 747 612Q747 612 747 613Q741 676 675 678Q675 678 675 678H641Q641 678 640 678Q575 676 569 613Q569 613 569 612Q537 549 523 479Q520 466 518 453Q499 342 520 231Q523 214 528 196Q553 97 607 10Q607 9 608 9Q613 1 620 -5Q620 -5 621 -5Q637 -17 657 -18Q658 -18 659 -18Q679 -17 695 -5Q695 -5 695 -5Q703 1 708 9Q708 9 709 10Q762 97 788 196Q792 213 796 231ZM761 447Q780 342 760 238Q756 222 752 205Q728 112 678 30Q675 27 673 24Q666 19 658 18Q650 19 643 24Q640 27 638 30Q587 112 563 205Q559 222 556 238Q536 342 554 447Q556 459 559 471Q559 472 559 472Q572 537 601 595Q602 597 603 598Q605 602 605 606Q607 640 641 642H674Q709 640 711 606Q711 602 713 598Q713 597 714 595H715Q744 537 756 472Q756 472 757 471Q759 459 761 447Z" fill="#000000" />
<path d="M660 422Q722 422 776 391Q784 386 790 388Q797 390 801 398Q804 403 803 409Q801 433 797 453Q795 466 792 479Q779 549 747 612Q747 612 747 613Q741 676 675 678Q675 678 675 678H641Q641 678 640 678Q575 676 569 613Q569 613 569 612Q537 549 523 479Q520 466 518 453Q514 431 512 406Q510 388 528 386Q534 385 540 389Q595 422 660 422ZM660 458Q603 458 553 436Q553 442 554 447Q556 459 559 471Q559 472 559 472Q572 536 601 595Q602 597 603 598Q605 602 605 606Q607 640 641 642H674Q709 640 711 606Q711 602 713 598Q713 597 714 595H715Q744 537 756 472Q756 472 757 471Q759 459 761 447Q762 443 763 438Q714 458 660 458Z" fill="#000000" />
<path d="M754 486Q769 458 837 477Q900 494 947 536Q1031 611 1027 698Q1020 820 904 861Q904 861 904 861Q853 876 801 861Q784 856 789 838Q790 836 790 835Q824 768 865 705Q879 683 893 662Q870 640 849 618Q742 508 754 486ZM793 504Q797 509 803 517Q818 534 875 592Q902 620 929 647Q941 658 932 671Q914 696 895 725Q863 777 834 831Q863 835 893 826Q985 793 990 696Q994 626 923 564Q882 527 827 512Q803 506 793 504Z" fill="#000000" />
<path d="M799 783Q791 787 785 785Q779 782 775 774Q767 757 784 750L851 720Q868 713 875 729Q883 746 866 753Z" fill="#000000" />
<path d="M548 210Q658 269 768 212Q784 204 793 220Q794 222 794 225Q794 226 795 227Q795 230 796 231Q817 342 797 453Q795 466 792 479Q779 549 747 612Q747 612 747 613Q741 676 675 678Q675 678 675 678H641Q641 678 640 678Q575 676 569 613Q569 613 569 612Q537 549 523 479Q520 466 518 453Q499 342 520 231Q520 229 521 226Q522 224 522 223Q526 205 544 208Q546 209 548 210ZM553 253Q537 350 554 447Q556 459 559 471Q559 472 559 472Q572 536 601 595Q602 597 603 598Q605 602 605 606Q607 640 641 642H674Q709 640 711 606Q711 602 713 598Q713 597 714 596L715 595Q744 537 756 472Q756 472 757 471Q759 459 761 447Q778 351 763 255Q658 300 553 253Z" fill="#000000" />
<path d="M528 196Q534 170 545 140Q551 122 569 128Q569 128 570 129Q658 165 747 130Q764 124 771 141Q771 141 771 141Q781 171 788 196Q792 213 796 231Q817 342 797 453Q795 466 792 479Q779 549 747 612Q747 612 747 613Q741 676 675 678Q675 678 675 678H641Q641 678 640 678Q575 676 569 613Q569 613 569 612Q537 549 523 479Q520 466 518 453Q499 342 520 231Q523 213 528 196ZM563 205Q559 222 556 238Q536 342 554 447Q556 459 559 471Q559 472 559 472Q572 536 601 595Q602 597 603 598Q605 602 605 606Q607 640 641 642H674Q709 640 711 606Q711 602 713 598Q713 597 714 595H715Q744 537 756 472Q756 472 757 471Q759 459 761 447Q780 342 760 238Q756 222 752 205Q748 189 742 171Q658 198 574 169Q568 188 563 205Z" fill="#000000" />
<path d="M660 330Q723 330 778 298Q794 289 803 305Q805 309 806 313Q810 384 797 453Q795 466 792 479Q779 549 747 612Q747 612 747 613Q741 676 675 678Q675 678 675 678H641Q641 678 640 678Q575 676 569 613Q569 613 569 612Q537 549 523 479Q520 466 518 453Q506 382 510 311Q511 301 515 297Q520 293 529 293Q534 294 538 296Q594 330 660 330ZM660 367Q599 367 546 342Q545 395 554 447Q556 459 559 471Q559 472 559 472Q572 536 601 595Q602 597 603 598Q605 602 605 606Q607 640 641 642H674Q709 640 711 606Q711 602 713 598Q713 597 714 596L715 595Q744 537 756 472Q756 472 757 471Q759 459 761 447Q770 395 770 344Q718 367 660 367Z" fill="#000000" />
</g></svg>