<svg xmlns="http://www.w3.org/2000/svg" viewBox="0 0 2048 2048">
<g transform="matrix(1 0 0 -1 0 2048)">
<path d="M687 416H662H218H194V92H687V416Z" fill="#fcea2b" />
<path d="M687 415 688 94H438Z" fill="#f1b31c" />
<path d="M240 425H307Q307 522 338 581Q371 643 437 643Q568 643 575 424L642 426Q632 709 437 709Q332 709 280 612Q240 539 240 425Z" fill="#9b9b9a" />
<path d="M698 335 626 259 636 167 734 190 787 279Z" fill="#d0cfce" />
<path d="M799 272Q807 284 794 291Q782 299 775 286L725 203L649 185L641 254L709 325Q719 335 708 345Q698 355 688 345L615 269Q611 264 611 257L622 166Q622 165 622 164Q624 157 628 154Q633 152 639 153L737 176Q743 178 746 183Z" fill="#d0cfce" />
<path d="M1126 733Q1068 597 978 479Q891 372 793 275L744 306L692 339Q757 458 838 568Q867 609 903.0 647.5Q939 686 971.5 716.5Q1004 747 1025.5 765.0Q1047 783 1047 783L1086 758Z" fill="#9b9b9a" />
<path d="M794 499 923 418Q863 342 791 276L743 307L691 340Q735 424 794 499Z" fill="#3f3f3f" />
<path d="M233 416H269Q269 527 310 599Q355 677 437 677Q604 677 612 415L649 417Q639 714 437 714Q334 714 278 617Q233 536 233 416Z" fill="#000000" />
<path d="M705 121Q705 140 687 140Q669 140 669 121V111H212V398H687Q705 398 705 416Q705 435 687 435H194Q175 435 175 416V93Q175 74 194 74H687Q705 74 705 93Z" fill="#000000" />
<path d="M781 222Q792 237 777 247Q762 258 752 243L725 207L652 190L644 255L672 291Q683 306 669 317Q654 328 643 313L611 271Q606 265 607 258L618 165Q618 164 618 163Q623 145 640 149L740 173Q746 174 750 180Z" fill="#000000" />
<path d="M695 215Q706 229 691 240Q676 251 665 236L634 194Q623 180 638 169Q653 158 664 173Z" fill="#000000" />
<path d="M1136 748 1096 773 1057 798Q1045 805 1035 797Q902 691 823 578Q742 468 676 347Q668 332 683 323L734 290L783 260Q796 252 806 262Q905 360 992 468Q992 468 992 468Q1084 587 1143 726Q1149 740 1136 748ZM1103 726Q1048 600 964 491Q882 390 790 299L754 322L717 345Q778 455 853 557Q926 661 1048 760L1077 742Z" fill="#000000" />
<path d="M801.1421508789062 517.5872192382812 781.6182250976562 486.54229736328125 917.3793334960938 401.14862060546875 936.9032592773438 432.19354248046875Z" fill="#000000" />
</g></svg>