<svg xmlns="http://www.w3.org/2000/svg" viewBox="0 0 2048 2048">
<g transform="matrix(1 0 0 -1 0 2048)">
<path d="M1011.95263671875 722.752685546875Q964.0723876953125 770.6329345703125 903.4644775390625 794.8760986328125Q842.8565673828125 819.1192626953125 778.6121826171875 819.1192626953125Q714.3677978515625 819.1192626953125 654.0629272460938 795.1791381835938Q593.758056640625 771.239013671875 545.271728515625 722.752685546875Q496.785400390625 674.266357421875 472.84527587890625 613.9614868164062Q448.9051513671875 553.6566162109375 448.9051513671875 489.4122314453125Q448.9051513671875 425.1678466796875 473.1483154296875 364.5599365234375Q497.3914794921875 303.9520263671875 545.271728515625 256.07177734375Q593.758056640625 207.58544921875 654.365966796875 183.34228515625Q714.973876953125 159.09912109375 779.21826171875 159.09912109375Q843.462646484375 159.09912109375 903.4644775390625 183.34228515625Q963.46630859375 207.58544921875 1011.95263671875 256.07177734375Q1060.43896484375 304.55810546875 1084.68212890625 364.5599365234375Q1108.92529296875 424.561767578125 1108.92529296875 488.80615234375Q1108.92529296875 553.050537109375 1084.68212890625 613.658447265625Q1060.43896484375 674.266357421875 1011.95263671875 722.752685546875Z" fill="#ea5a47" />
<path d="M1028 740Q925 843 779 843Q633 843 530 740Q427 637 427 491Q427 345 530 242Q633 139 779 139Q925 139 1028 242Q1131 345 1131 491Q1131 637 1028 740ZM1002 714Q1095 622 1095 491Q1095 360 1002 268Q910 175 779 175Q648 175 556 268Q463 360 463 491Q463 622 556 714Q648 807 779 807Q910 807 1002 714Z" fill="#000000" />
<path d="M207 -55Q194 -68 207 -81Q214 -87 220 -87Q226 -87 233 -81L486 172Q499 185 486 198Q473 211 460 198Z" fill="#000000" />
<path d="M766 481Q764 473 767 468Q770 463 778 460Q783 459 787 460Q786 458 785 457Q779 451 770 451Q755 450 745 463Q734 476 735 493Q736 518 757 533Q778 549 804 546Q838 543 858 514Q879 485 874 450Q868 408 831 382Q794 357 751 364Q699 372 669 417Q639 462 648 514Q659 575 712 610Q765 644 826 633Q895 620 935 559Q974 498 960 428Q945 350 876 306Q807 262 728 277Q641 295 592 372Q543 449 562 537Q581 633 667 687Q752 740 849 719Q865 716 869 733Q871 741 867 746Q864 751 856 753Q746 776 649 716Q551 654 528 544Q507 443 563 354Q620 264 721 244Q814 225 894 277Q976 329 994 421Q1010 505 963 577Q916 651 832 667Q757 680 693 638Q627 595 614 520Q603 455 640 398Q679 341 745 330Q802 321 850 354Q900 388 908 446Q914 494 886 534Q856 575 808 580Q768 584 737 561Q703 535 701 495Q699 465 718 441Q740 415 772 417Q793 418 809 433Q828 452 821 476Q816 490 801 497Q791 502 782 499Q770 495 766 481ZM788 466Q787 466 787 466H788Q788 466 788 466Z" fill="#000000" />
<path d="M766 481Q764 473 767 468Q770 463 778 460Q783 459 787 460Q786 458 785 457Q779 451 770 451Q755 450 745 463Q734 476 735 493Q736 518 757 533Q778 549 804 546Q838 543 858 514Q879 485 874 450Q868 408 831 382Q794 357 751 364Q699 372 669 417Q639 462 648 514Q659 575 712 610Q765 644 826 633Q895 620 935 559Q974 498 960 428Q945 350 876 306Q807 262 728 277Q641 295 592 372Q543 449 562 537Q581 633 667 687Q752 740 849 719Q865 716 869 733Q871 741 867 746Q864 751 856 753Q746 776 649 716Q551 654 528 544Q507 443 563 354Q620 264 721 244Q814 225 894 277Q976 329 994 421Q1010 505 963 577Q916 651 832 667Q757 680 693 638Q627 595 614 520Q603 455 640 398Q679 341 745 330Q802 321 850 354Q900 388 908 446Q914 494 886 534Q856 575 808 580Q768 584 737 561Q703 535 701 495Q699 465 718 441Q740 415 772 417Q793 418 809 433Q828 452 821 476Q816 490 801 497Q791 502 782 499Q770 495 766 481ZM788 466Q787 466 787 466H788Q788 466 788 466Z" fill="#ffffff" />
</g></svg>