<svg xmlns="http://www.w3.org/2000/svg" viewBox="0 0 2048 2048">
<g transform="matrix(1 0 0 -1 0 2048)">
<path d="M751.6698608398438 385.04388427734375Q751.6698608398438 404.083740234375 744.553955078125 420.7195739746094Q737.4380493164062 437.35540771484375 724.8409729003906 449.9524841308594Q712.243896484375 462.549560546875 695.6080627441406 469.66546630859375Q678.9722290039062 476.7813720703125 659.932373046875 476.7813720703125Q640.8925170898438 476.7813720703125 624.2566833496094 469.66546630859375Q607.620849609375 462.549560546875 595.0237731933594 449.9524841308594Q582.4266967773438 437.35540771484375 575.310791015625 420.7195739746094Q568.1948852539062 404.083740234375 568.1948852539062 385.04388427734375Q568.1948852539062 366.0040283203125 575.310791015625 349.3681945800781Q582.4266967773438 332.73236083984375 595.0237731933594 320.1352844238281Q607.620849609375 307.5382080078125 624.2566833496094 300.42230224609375Q640.8925170898438 293.306396484375 659.932373046875 293.306396484375Q678.9722290039062 293.306396484375 695.6080627441406 300.42230224609375Q712.243896484375 307.5382080078125 724.8409729003906 320.1352844238281Q737.4380493164062 332.73236083984375 744.553955078125 349.3681945800781Q751.6698608398438 366.0040283203125 751.6698608398438 385.04388427734375Z" fill="#fcea2b" />
<path d="M770 385Q770 430 738 463Q705 495 660 495Q614 495 582 463Q550 430 550 385Q550 339 582 307Q614 275 660 275Q705 275 738 307Q770 339 770 385ZM733 385Q733 312 660 312Q587 312 587 385Q587 458 660 458Q733 458 733 385Z" fill="#000000" />
<path d="M642 567Q642 548 660 548Q678 548 678 567V605Q678 623 660 623Q642 623 642 605Z" fill="#000000" />
<path d="M776 526Q769 520 769 514Q769 507 776 501Q789 488 801 501L829 528Q835 534 835 541Q835 547 829 554Q816 567 803 554Z" fill="#000000" />
<path d="M842.0 403.0Q823.0 403.0 823.0 385.0Q823.0 367.0 842.0 367.0H880.0Q898.0 367.0 898.0 385.0Q898.0 403.0 880.0 403.0Z" fill="#000000" />
<path d="M801.7166748046875 269.25213623046875Q788.2877197265625 282.689208984375 775.557861328125 269.967041015625Q762.8280029296875 257.244873046875 776.2569580078125 243.80780029296875L803.1148681640625 216.93365478515625Q815.8370361328125 204.20379638671875 828.56689453125 216.92596435546875Q841.2967529296875 229.64813232421875 828.5745849609375 242.37799072265625Z" fill="#000000" />
<path d="M678.0 203.0Q678.0 222.0 660.0 222.0Q642.0 222.0 642.0 203.0V165.0Q642.0 147.0 660.0 147.0Q678.0 147.0 678.0 165.0Z" fill="#000000" />
<path d="M544 244Q557 256 544 269Q538 276 531 276Q525 276 519 269L491 242Q479 229 491 216Q498 210 504 210Q511 210 517 216Z" fill="#000000" />
<path d="M478.0 367.0Q497.0 367.0 497.0 385.0Q497.0 403.0 478.0 403.0H440.0Q422.0 403.0 422.0 385.0Q422.0 367.0 440.0 367.0Z" fill="#000000" />
<path d="M518.2833251953125 500.74786376953125Q531.7122802734375 487.310791015625 544.442138671875 500.032958984375Q557.1719970703125 512.755126953125 543.7430419921875 526.1921997070312L516.8851318359375 553.0663452148438Q504.1629638671875 565.7962036132812 491.43310546875 553.0740356445312Q478.7032470703125 540.3518676757812 491.4254150390625 527.6220092773438Z" fill="#000000" />
</g></svg>