<svg xmlns="http://www.w3.org/2000/svg" viewBox="0 0 2048 2048">
<g transform="matrix(1 0 0 -1 0 2048)">
<path d="M1089 723Q1089 723 1074.5 700.0Q1060 677 1034.0 639.0Q1008 601 973.0 555.0Q938 509 896.5 461.0Q855 413 810 371Q660 229 496 103L377 221Q377 221 439.0 302.0Q501 383 644 537Q686 582 734.0 623.5Q782 665 828.0 700.0Q874 735 912.0 761.5Q950 788 972.5 802.5Q995 817 995 817L1042 769Z" fill="#9b9b9a" />
<path d="M564 442 716 290Q664 240 609.5 193.5Q555 147 495 105L377 221Q420 280 466.0 335.5Q512 391 564 442Z" fill="#3f3f3f" />
<path d="M377 221 261 117 249 -26 392 -12 495 105Z" fill="#d0cfce" />
<path d="M509 93Q521 106 508 118Q501 124 494 124Q488 124 482 117L383 6L269 -6L278 108L389 208Q403 220 390 234Q384 240 378 241Q371 241 365 235L248 131Q243 126 242 119L231 -25Q231 -26 231 -28Q233 -46 251 -44L394 -30Q401 -29 406 -24Z" fill="#d0cfce" />
<path d="M338.277099609375 39.7449951171875Q344.630859375 46.138427734375 344.59613037109375 52.525634765625Q344.5614013671875 58.912841796875 338.13818359375 65.2938232421875Q324.66424560546875 78.8341064453125 312.584228515625 65.2689208984375L257.57928466796875 8.197509765625Q251.85302734375 1.0257568359375 251.88775634765625 -5.3614501953125Q251.9224853515625 -11.7486572265625 258.345703125 -18.129638671875Q271.96783447265625 -30.2677001953125 284.67535400390625 -17.4808349609375Z" fill="#000000" />
<path d="M459 34Q465 40 465 47Q464 53 458 60Q444 72 432 58L383 6L269 -6L278 108L332 158Q346 171 333 184Q327 191 320 191Q314 191 307 185L248 130Q243 126 242 118L231 -25Q231 -26 231 -28Q233 -46 251 -44L394 -30Q401 -30 405 -24Z" fill="#000000" />
<path d="M1096 744 1049 789 1002 835Q992 846 979 838Q767 705 627 552Q437 345 360 233Q352 220 363 209L482 92Q494 80 507 90Q671 218 821 362Q971 505 1100 720Q1109 734 1096 744ZM1061 726Q938 524 795 389Q652 251 497 129L399 225Q476 333 654 527Q787 672 987 799L1024 762Z" fill="#000000" />
<path d="M702 281Q715 268 728 281Q740 294 727 307L573 458Q560 471 548 458Q535 445 548 432Z" fill="#000000" />
</g></svg>