<svg xmlns="http://www.w3.org/2000/svg" viewBox="0 0 2048 2048">
<g transform="matrix(1 0 0 -1 0 2048)">
<path d="M291 -46 223 22 309 166 434 40Z" fill="#ea5a47" />
<path d="M449 25 1132 708 976 863 294 181 309 165Z" fill="#ea5a47" />
<path d="M520.611572265625 96.611572265625 1067.044921875 643.044921875 911.1448974609375 798.1448974609375 365.5115966796875 252.5115966796875 380.611572265625 236.611572265625Z" fill="#d22f27" />
<path d="M435 11Q449 -4 464 11L1146 693Q1161 708 1146 722L991 878Q976 892 962 878L279 195Q265 181 279 166L295 151ZM449 54 324 180 323 181 976 835 1103 708Z" fill="#000000" />
<path d="M301 -63 445 23Q453 28 455 35Q457 42 452 51Q450 53 449 55L323 180Q309 194 295 180Q293 178 292 176L205 32Q197 19 209 8L276 -60Q287 -71 301 -63ZM294 -20 248 25 313 133 401 44Z" fill="#000000" />
<path d="M381 266Q374 273 367 273Q359 273 352 266Q338 252 352 237L506 83Q514 76 521 76Q528 76 535 83Q549 98 535 112Z" fill="#000000" />
<path d="M927 812Q920 819 913 819Q905 819 898 812Q884 798 898 783L1052 629Q1060 622 1067 622Q1074 622 1081 629Q1095 644 1081 658Z" fill="#000000" />
</g></svg>