<svg xmlns="http://www.w3.org/2000/svg" viewBox="0 0 2048 2048">
<g transform="matrix(1 0 0 -1 0 2048)">
<path d="M746 355 728 323 775 295 794 327 746 355ZM739 398Q744 398 749 396L828 350Q835 346 837.0 338.5Q839 331 835 325L798 261Q794 255 787 253Q780 251 773 255L694 300Q687 304 685.0 311.5Q683 319 687 325L724 389Q729 398 739 398Z" fill="#000000" />
<path d="M559 508Q554 508 550 506Q536 498 542 483Q548 468 564 472Q580 477 577 493Q575 509 559 508ZM559 545Q591 545 607 518Q616 501 613.5 482.5Q611 464 598 451Q585 438 566.5 435.5Q548 433 532 442Q515 452 508.0 469.0Q501 486 506 504Q511 522 525.5 533.5Q540 545 559 545Z" fill="#000000" />
<path d="M1072 270Q1068 270 1063 268Q1049 260 1056 245Q1062 230 1077 234Q1093 238 1091 254Q1089 270 1072 270ZM1072 307Q1104 307 1120 279Q1129 263 1127.0 244.5Q1125 226 1111 213Q1098 200 1079.5 197.5Q1061 195 1045 204Q1029 213 1022.0 230.5Q1015 248 1019 266Q1024 284 1039.0 295.5Q1054 307 1072 307Z" fill="#000000" />
<path d="M610 171 563 144 581 112 629 140 610 171ZM617 215Q628 215 633 206L670 142Q674 136 672.0 128.5Q670 121 663 117L584 71Q577 67 570 69Q562 71 559 78L522 141Q518 148 520.0 155.5Q522 163 529 166L608 212Q612 215 617 215Z" fill="#000000" />
<path d="M275 339H238V284H275V339ZM293 376Q301 376 306.5 370.5Q312 365 312 358V266Q312 258 306.5 253.0Q301 248 293 248H220Q212 248 207.0 253.0Q202 258 202 266V358Q202 365 207.0 370.5Q212 376 220 376Z" fill="#000000" />
<path d="M220 642Q197 642 181.0 625.5Q165 609 165 587V73Q165 51 181.0 34.5Q197 18 220 18H1100Q1123 18 1139.0 34.5Q1155 51 1155 73V587Q1155 609 1139.0 625.5Q1123 642 1100 642Z" fill="#a57939" />
<path d="M367 678Q359 678 353.5 673.0Q348 668 348 660V0Q348 -8 353.5 -13.0Q359 -18 367 -18H403Q411 -18 416.5 -13.0Q422 -8 422 0V660Q422 668 416.5 673.0Q411 678 403 678Z" fill="#6a462f" />
<path d="M917 678Q909 678 903.5 673.0Q898 668 898 660V0Q898 -8 903.5 -13.0Q909 -18 917 -18H953Q961 -18 966.5 -13.0Q972 -8 972 0V660Q972 668 966.5 673.0Q961 678 953 678Z" fill="#6a462f" />
<path d="M749 396Q742 399 734.5 397.5Q727 396 724 389L687 325Q683 319 685.0 311.5Q687 304 694 300L773 255Q780 251 787.0 253.0Q794 255 798 261L835 325Q839 331 837.0 338.5Q835 346 828 350Z" fill="#e67a94" />
<path d="M614.0615234375 490.19287109375Q614.0615234375 501.53515625 609.75927734375 511.508544921875Q605.45703125 521.48193359375 597.8955078125 529.04345703125Q590.333984375 536.60498046875 580.360595703125 540.9072265625Q570.38720703125 545.20947265625 559.044921875 545.20947265625Q547.70263671875 545.20947265625 537.729248046875 540.9072265625Q527.755859375 536.60498046875 520.1943359375 529.04345703125Q512.6328125 521.48193359375 508.33056640625 511.508544921875Q504.0283203125 501.53515625 504.0283203125 490.19287109375Q504.0283203125 478.8505859375 508.33056640625 468.877197265625Q512.6328125 458.90380859375 520.1943359375 451.34228515625Q527.755859375 443.78076171875 537.729248046875 439.478515625Q547.70263671875 435.17626953125 559.044921875 435.17626953125Q570.38720703125 435.17626953125 580.360595703125 439.478515625Q590.333984375 443.78076171875 597.8955078125 451.34228515625Q605.45703125 458.90380859375 609.75927734375 468.877197265625Q614.0615234375 478.8505859375 614.0615234375 490.19287109375Z" fill="#fcea2b" />
<path d="M1127.0615234375 252.19287109375Q1127.0615234375 263.53515625 1122.75927734375 273.508544921875Q1118.45703125 283.48193359375 1110.8955078125 291.04345703125Q1103.333984375 298.60498046875 1093.360595703125 302.9072265625Q1083.38720703125 307.20947265625 1072.044921875 307.20947265625Q1060.70263671875 307.20947265625 1050.729248046875 302.9072265625Q1040.755859375 298.60498046875 1033.1943359375 291.04345703125Q1025.6328125 283.48193359375 1021.33056640625 273.508544921875Q1017.0283203125 263.53515625 1017.0283203125 252.19287109375Q1017.0283203125 240.8505859375 1021.33056640625 230.877197265625Q1025.6328125 220.90380859375 1033.1943359375 213.34228515625Q1040.755859375 205.78076171875 1050.729248046875 201.478515625Q1060.70263671875 197.17626953125 1072.044921875 197.17626953125Q1083.38720703125 197.17626953125 1093.360595703125 201.478515625Q1103.333984375 205.78076171875 1110.8955078125 213.34228515625Q1118.45703125 220.90380859375 1122.75927734375 230.877197265625Q1127.0615234375 240.8505859375 1127.0615234375 252.19287109375Z" fill="#61b2e4" />
<path d="M528.552978515625 166.65484619140625Q522.4548950195312 162.0926513671875 520.0039367675781 154.84744262695312Q517.552978515625 147.60223388671875 522.1151733398438 141.504150390625L559.0409545898438 77.46112060546875Q562.2371215820312 70.99700927734375 569.7323303222656 68.97906494140625Q577.2275390625 66.96112060546875 584.191650390625 71.0233154296875L662.6629028320312 116.93951416015625Q669.6270141601562 121.001708984375 671.3949584960938 128.06390380859375Q673.1629028320312 135.1260986328125 669.9667358398438 141.5902099609375L633.0409545898438 205.63323974609375Q629.8447875976562 212.09735107421875 622.3495788574219 214.11529541015625Q614.8543701171875 216.13323974609375 607.8902587890625 212.071044921875Z" fill="#f4aa41" />
<path d="M312.447021484375 357.34515380859375Q311.54510498046875 364.9073486328125 306.4960632324219 370.6525573730469Q301.447021484375 376.39776611328125 293.88482666015625 375.495849609375L219.95904541015625 375.53887939453125Q212.76287841796875 376.00299072265625 207.26766967773438 370.52093505859375Q201.7724609375 365.03887939453125 201.808349609375 356.9766845703125L202.33709716796875 266.06048583984375Q202.37298583984375 257.998291015625 207.60504150390625 252.93609619140625Q212.83709716796875 247.8739013671875 220.03326416015625 247.4097900390625L293.95904541015625 247.36676025390625Q301.15521240234375 246.90264892578125 306.6504211425781 252.38470458984375Q312.1456298828125 257.86676025390625 312.1097412109375 265.928955078125Z" fill="#b1cc33" />
<path d="M614 642H559V711Q559 728 571.0 740.0Q583 752 600 752H721Q737 752 749.0 740.0Q761 728 761 711V642H706V678Q706 686 700.5 691.5Q695 697 688 697H633Q625 697 619.5 691.5Q614 686 614 678Z" fill="#a57939" />
<path d="M633 642V678H688V642Q688 623 706 623H761Q779 623 779 642V711Q779 770 721 770H600Q541 770 541 711V642Q541 623 559 623H614Q633 623 633 642ZM596 660H578V711Q578 720 584 727Q590 733 600 733H721Q743 733 743 711V660H724V678Q724 715 688 715H633Q596 715 596 678Z" fill="#000000" />
<path d="M972 37V0H1100Q1173 0 1173 73V587Q1173 660 1100 660H972V623H1100Q1137 623 1137 587V73Q1137 37 1100 37Z" fill="#000000" />
<path d="M348.0 623.0V660.0H220.0Q147.0 660.0 147.0 587.0V73.0Q147.0 0.0 220.0 0.0H348.0V37.0H220.0Q183.0 37.0 183.0 73.0V587.0Q183.0 623.0 220.0 623.0Z" fill="#000000" />
<path d="M725 282Q741 273 750 289Q760 305 744 314L728 323L746 355L786 332Q802 323 811 339Q820 354 804 364L749 396Q733 405 724 389L687 325Q678 310 694 300Z" fill="#000000" />
<path d="M587 443Q603 452 593 468Q584 483 568 474Q559 469 550 474Q540 479 540 490Q540 501 550 506Q566 515 557 531Q548 547 532 538Q504 522 504 490Q503 458 531 442Q559 426 587 443Z" fill="#000000" />
<path d="M1044.7382202148438 299.54034423828125Q1029.4423217773438 291.05340576171875 1038.2949829101562 274.39141845703125Q1047.6478271484375 258.5953369140625 1063.4439086914062 267.94818115234375Q1070.4088134765625 272.0087890625 1077.4705200195312 270.23931884765625Q1085.3981323242188 267.96966552734375 1088.5928344726562 261.50494384765625Q1092.6534423828125 254.5400390625 1090.8839721679688 247.47833251953125Q1088.6143188476562 239.55072021484375 1082.1495971679688 236.35601806640625Q1066.353515625 227.003173828125 1075.7063598632812 211.20709228515625Q1084.1932983398438 195.91119384765625 1100.3551025390625 203.89794921875Q1119.8837280273438 215.71405029296875 1125.6923217773438 237.76507568359375Q1131.5009155273438 259.81610107421875 1121.0509033203125 279.71044921875Q1109.2348022460938 299.23907470703125 1087.1837768554688 305.04766845703125Q1065.1327514648438 310.85626220703125 1044.7382202148438 299.54034423828125Z" fill="#000000" />
<path d="M579 153Q595 162 585 178Q581 186 575 188Q568 189 560 185L529 166Q513 157 522 141L559 78Q568 62 584 71L639 103Q655 112 646 128Q637 144 621 135L581 112L563 144Z" fill="#000000" />
<path d="M201.7198486328125 321.12982177734375Q201.92559814453125 302.77337646484375 220.28204345703125 302.9791259765625Q239.13848876953125 302.31884765625 238.9327392578125 320.67529296875L238.72698974609375 339.03173828125L275.43988037109375 339.4432373046875L275.521240234375 293.3021240234375Q275.72698974609375 274.9456787109375 294.08343505859375 275.15142822265625Q311.5738525390625 274.857177734375 312.234130859375 293.713623046875L312.447021484375 357.34515380859375Q312.24127197265625 375.70159912109375 293.88482666015625 375.495849609375L219.95904541015625 375.53887939453125Q202.4686279296875 375.8331298828125 201.808349609375 356.9766845703125Z" fill="#000000" />
<path d="M367 697Q330 697 330 660V0Q330 -37 367 -37H403Q440 -37 440 0V660Q440 697 403 697ZM367 660H403V0H367Z" fill="#000000" />
<path d="M917 697Q880 697 880 660V0Q880 -37 917 -37H953Q990 -37 990 0V660Q990 697 953 697ZM917 660H953V0H917Z" fill="#000000" />
<path d="M422 660V623H898V660Z" fill="#000000" />
<path d="M898 0V37H422V0Z" fill="#000000" />
</g></svg>