<svg xmlns="http://www.w3.org/2000/svg" viewBox="0 0 2048 2048">
<g transform="matrix(1 0 0 -1 0 2048)">
<path d="M660 825Q751 825 830.5 791.0Q910 757 971.0 696.0Q1032 635 1066.0 555.5Q1100 476 1100 385Q1100 294 1066.0 214.5Q1032 135 971.0 74.0Q910 13 830.5 -21.0Q751 -55 660 -55Q569 -55 489.5 -21.0Q410 13 349.0 74.0Q288 135 254.0 214.5Q220 294 220 385Q220 476 254.0 555.5Q288 635 349.0 696.0Q410 757 489.5 791.0Q569 825 660 825Z" fill="#fcea2b" />
<path d="M695 346Q695 346 720.0 342.0Q745 338 782.0 332.5Q819 327 855.5 323.5Q892 320 915 320Q947 321 978.0 324.5Q1009 328 1036.5 326.5Q1064 325 1084 311Q1098 301 1103.0 286.0Q1108 271 1107 257Q1106 242 1098.5 228.0Q1091 214 1075 207Q1053 197 1025.5 199.5Q998 202 968.0 210.0Q938 218 908 225Q885 229 848.0 231.5Q811 234 774.0 234.5Q737 235 711.5 235.0Q686 235 686 235Z" fill="#fcea2b" />
<path d="M368.80828857421875 554.498046875Q359.30780029296875 539.3447265625 374.46112060546875 529.84423828125Q389.51824951171875 519.3485717773438 400.110107421875 535.40087890625Q420.20245361328125 566.6065063476562 456.2841796875 576.1771240234375Q457.27935791015625 576.0809326171875 458.3707275390625 576.9799194335938Q492.75067138671875 589.7284545898438 528.6103515625 576.2175903320312Q545.0474243164062 569.6064453125 551.7547607421875 587.0386962890625Q558.3659057617188 603.4757690429688 541.9288330078125 610.0869140625Q493.5166015625 628.8289794921875 445.6221923828125 611.35986328125Q397.11737060546875 597.9676513671875 368.80828857421875 554.498046875Z" fill="#000000" />
<path d="M910 556Q918 539 935 547Q951 555 944 571Q896 673 785 656Q776 654 772 649Q768 644 769 635Q772 617 790 620Q874 633 910 556Z" fill="#000000" />
<path d="M1063 408Q1064 390 1082 391Q1100 392 1099 410Q1090 584 963 704Q836 825 660 825Q478 825 349 696Q220 567 220 385Q220 203 349 74Q478 -55 660 -55Q865 -55 997 102Q1009 117 995 128Q981 140 969 126Q848 -18 660 -18Q493 -18 375 100Q257 218 257 385Q257 552 375 670Q493 788 660 788Q821 788 938 678Q1054 567 1063 408Z" fill="#000000" />
<path d="M550 476Q550 499 534.0 515.0Q518 531 495 531Q472 531 456.0 515.0Q440 499 440 476Q440 454 456.0 437.5Q472 421 495 421Q518 421 534.0 437.5Q550 454 550 476Z" fill="#000000" />
<path d="M880 476Q880 499 864.0 515.0Q848 531 825 531Q802 531 786.0 515.0Q770 499 770 476Q770 454 786.0 437.5Q802 421 825 421Q848 421 864.0 437.5Q880 454 880 476Z" fill="#000000" />
<path d="M723 99Q740 94 746 111Q751 129 734 134Q618 171 552 101Q540 87 553 75Q560 69 566 69Q573 69 579 76Q629 129 723 99Z" fill="#000000" />
<path d="M686 254Q668 254 668 235Q668 217 686 217Q845 218 904 207Q918 204 947 196Q1043 172 1083 191Q1122 208 1125 255Q1129 302 1094 326Q1058 350 961 342Q930 339 915 339Q854 337 699 364Q680 367 677 349Q674 331 692 328Q852 300 916 302Q932 303 964 305Q1049 313 1073 296Q1091 284 1089 259Q1088 258 1088 258Q1087 233 1067 224Q1040 211 956 232Q926 240 911 243Q848 255 686 254Z" fill="#000000" />
</g></svg>