<svg xmlns="http://www.w3.org/2000/svg" viewBox="0 0 2048 2048">
<g transform="matrix(1 0 0 -1 0 2048)">
<path d="M874 -162H472Q445 -162 422 -148Q361 -111 321.0 -70.5Q281 -30 261.5 25.0Q242 80 242 160Q242 176 252.0 203.0Q262 230 277.0 261.0Q292 292 306.0 320.5Q320 349 328 368Q333 383 343 397L366 432Q393 471 440 472L929 480Q983 480 1012 435L1075 337Q1078 333 1080.0 328.0Q1082 323 1084 318Q1096 289 1113.5 262.5Q1131 236 1131 204Q1131 84 1075.0 -2.0Q1019 -88 927 -147Q902 -162 874 -162Z" fill="#f4aa41" />
<path d="M1080 329V330Q1081 328 1081 327Q1088 306 1098.0 291.0Q1108 276 1116.5 260.5Q1125 245 1125 222Q1125 138 1116.5 66.0Q1108 -6 1076.5 -63.5Q1045 -121 978 -160Q975 -162 971 -162H764Q768 -162 771 -160Q839 -121 878.0 -64.0Q917 -7 935.5 53.5Q954 114 958 165Q961 222 949 277Q947 285 942.5 303.0Q938 321 934 338Q926 374 910 406L882 460Q880 463 880 467Q880 480 894 480H975Q983 480 987 474Z" fill="#e27022" />
<path d="M399.78857421875 604.131591796875V492.1973876953125H974.87744140625V604.131591796875Z" fill="#9b9b9a" />
<path d="M705 691Q699 673 716 667Q733 661 740 678L785 802Q817 891 879 891H1055Q1073 891 1073 909Q1073 927 1055 927H879Q791 927 750 815Z" fill="#9b9b9a" />
<path d="M983 499H393Q384 499 378 492Q228 298 224 170Q221 72 265 -21Q314 -127 404 -178Q408 -181 413 -181H963Q968 -181 972 -178Q1061 -127 1111 -21Q1155 72 1152 170Q1148 298 997 492Q992 499 983 499ZM682 462H974Q1112 283 1115 169Q1118 80 1078 -6Q1034 -98 958 -144H418Q341 -98 298 -6Q258 80 260 169Q264 283 402 462Z" fill="#000000" />
<path d="M671 694Q665 677 682 670Q699 664 705 681L756 821Q793 922 864 922H1055Q1073 922 1073 940Q1073 959 1055 959H864Q767 959 722 834Z" fill="#000000" />
<path d="M374 480Q374 462 393 462Q411 462 411 480V596H965V480Q965 462 983 462Q1001 462 1001 480V614Q1001 633 983 633H393Q374 633 374 614Z" fill="#000000" />
</g></svg>