<svg xmlns="http://www.w3.org/2000/svg" viewBox="0 0 2048 2048">
<g transform="matrix(1 0 0 -1 0 2048)">
<path d="M350 265 330 395 290 376 264 267 163 233 157 60 330 44 395 77 398 171Z" fill="#d0cfce" />
<path d="M882 62 940 134 851 223 785 178V68Z" fill="#d0cfce" />
<path d="M795 78V189L751 233H462L418 189V78L462 33H751Z" fill="#d0cfce" />
<path d="M911 660 871 437 851 215 932 134 992 154 1174 558V680L1033 740Z" fill="#d0cfce" />
<path d="M1097 695Q1139 689 1156.5 665.0Q1174 641 1174.5 607.5Q1175 574 1165.5 537.5Q1156 501 1143.0 469.0Q1130 437 1119.5 417.0Q1109 397 1109 397Q1071 296 1038.5 242.5Q1006 189 982.5 169.5Q959 150 945.5 151.0Q932 152 931 160Q1002 302 1037.0 403.5Q1072 505 1084.5 569.5Q1097 634 1097.0 664.5Q1097 695 1097 695Z" fill="#9b9b9a" />
<path d="M907 178 910 75H827Z" fill="#9b9b9a" />
<path d="M798 213Q797 213 797 213Q768 193 768 158V119Q768 57 830 54L857 52Q891 51 912 77L927 96Q963 141 922 182L892 213Q854 250 810 221ZM818 182 830 190Q849 203 866 187L896 157Q914 139 898 119L883 100Q874 88 859 89L832 91Q805 92 805 119V158Q805 173 817 182Q817 182 818 182Z" fill="#000000" />
<path d="M426 216H425L420 212Q398 192 398 163V108Q398 79 420 60L435 47Q453 30 478 30H725Q750 30 768 47L783 60Q805 79 805 108V163Q805 192 783 212L768 224Q750 241 725 241H478Q453 241 435 224ZM444 184H445L459 197Q467 204 478 204H725Q736 204 744 197L759 184Q768 176 768 163V108Q768 95 759 87L744 74Q736 67 725 67H478Q467 67 459 74L445 87Q435 95 435 108V163Q435 175 444 184Z" fill="#000000" />
<path d="M896 156 901 151Q930 122 968 135L980 139Q1007 148 1019 174L1185 543Q1191 556 1191 570V648Q1191 691 1151 708L1064 746Q1032 759 1002 740L921 686Q898 670 893 643L857 446Q857 444 857 441L839 246Q836 216 858 194ZM928 175 927 177 884 220Q874 230 875 243L893 437Q893 439 893 440L929 637Q931 648 941 655L1023 709Q1036 718 1050 712L1137 674Q1154 667 1154 648V570Q1154 564 1152 559L986 189Q981 178 969 174L956 170Q940 165 928 175Z" fill="#000000" />
<path d="M214 94Q232 94 232 112Q232 130 214 130H178Q159 130 159 112Q159 94 178 94Z" fill="#000000" />
<path d="M210 159Q229 160 227 179Q226 188 221 192Q216 196 207 195L178 193Q160 192 161 173Q162 164 167 160Q172 156 181 157Z" fill="#000000" />
<path d="M326 23Q345 23 361 33L418 70Q427 76 427 85V168Q427 172 425 176L387 250Q384 255 384 259L367 376Q366 378 366 379Q358 407 322 409Q289 410 274 385Q273 383 272 380Q262 337 264 293Q265 265 237 262L180 258Q134 255 132 209Q132 185 143 172Q132 159 133 139Q133 122 142 111Q133 99 133 79Q134 36 176 29L217 23Q218 23 220 23ZM326 59H221L182 65Q170 67 170 79Q170 91 181 94Q193 96 196 108Q197 117 194 123Q190 128 181 130Q170 132 169 141Q169 151 186 158Q196 162 198 173Q199 182 195 187Q191 192 182 193Q169 195 169 208Q170 221 183 222L241 226Q303 232 300 294Q299 331 307 368Q311 372 321 372Q329 372 331 369L347 254Q349 243 354 234L390 164V95L341 64Q334 59 326 59Z" fill="#000000" />
</g></svg>