<svg xmlns="http://www.w3.org/2000/svg" viewBox="0 0 2048 2048">
<g transform="matrix(1 0 0 -1 0 2048)">
<path d="M660.2982177734375 -129.234619140625Q554.3837890625 -129.234619140625 461.25213623046875 -89.0601806640625Q368.1204833984375 -48.8857421875 297.5108642578125 21.723876953125Q226.9012451171875 92.33349609375 186.726806640625 185.46514892578125Q146.5523681640625 278.5968017578125 146.5523681640625 384.51123046875Q146.5523681640625 490.4256591796875 186.726806640625 583.5573120117188Q226.9012451171875 676.68896484375 297.5108642578125 747.298583984375Q368.1204833984375 817.908203125 461.25213623046875 858.0826416015625Q554.3837890625 898.257080078125 660.2982177734375 898.257080078125Q766.212646484375 898.257080078125 859.3442993164062 858.0826416015625Q952.4759521484375 817.908203125 1023.0855712890625 747.298583984375Q1093.6951904296875 676.68896484375 1133.86962890625 583.5573120117188Q1174.0440673828125 490.4256591796875 1174.0440673828125 384.51123046875Q1174.0440673828125 278.5968017578125 1133.86962890625 185.46514892578125Q1093.6951904296875 92.33349609375 1023.0855712890625 21.723876953125Q952.4759521484375 -48.8857421875 859.3442993164062 -89.0601806640625Q766.212646484375 -129.234619140625 660.2982177734375 -129.234619140625Z" fill="#000000" />
<path d="M660.2982177734375 -129.234619140625Q554.3837890625 -129.234619140625 461.25213623046875 -89.0601806640625Q368.1204833984375 -48.8857421875 297.5108642578125 21.723876953125Q226.9012451171875 92.33349609375 186.726806640625 185.46514892578125Q146.5523681640625 278.5968017578125 146.5523681640625 384.51123046875Q146.5523681640625 490.4256591796875 186.726806640625 583.5573120117188Q226.9012451171875 676.68896484375 297.5108642578125 747.298583984375Q368.1204833984375 817.908203125 461.25213623046875 858.0826416015625Q554.3837890625 898.257080078125 660.2982177734375 898.257080078125Q766.212646484375 898.257080078125 859.3442993164062 858.0826416015625Q952.4759521484375 817.908203125 1023.0855712890625 747.298583984375Q1093.6951904296875 676.68896484375 1133.86962890625 583.5573120117188Q1174.0440673828125 490.4256591796875 1174.0440673828125 384.51123046875Q1174.0440673828125 278.5968017578125 1133.86962890625 185.46514892578125Q1093.6951904296875 92.33349609375 1023.0855712890625 21.723876953125Q952.4759521484375 -48.8857421875 859.3442993164062 -89.0601806640625Q766.212646484375 -129.234619140625 660.2982177734375 -129.234619140625Z" fill="#3f3f3f" />
<path d="M660.0 -147.0Q880.0 -147.0 1036.0 9.0Q1192.0 165.0 1192.0 385.0Q1192.0 605.0 1036.0 761.0Q880.0 917.0 660.0 917.0Q440.0 917.0 284.0 761.0Q128.0 605.0 128.0 385.0Q128.0 165.0 284.0 9.0Q440.0 -147.0 660.0 -147.0ZM660.0 -110.0Q455.0 -110.0 310.0 35.0Q165.0 180.0 165.0 385.0Q165.0 590.0 310.0 735.0Q455.0 880.0 660.0 880.0Q865.0 880.0 1010.0 735.0Q1155.0 590.0 1155.0 385.0Q1155.0 180.0 1010.0 35.0Q865.0 -110.0 660.0 -110.0Z" fill="#000000" />
</g></svg>