<svg xmlns="http://www.w3.org/2000/svg" viewBox="0 0 2048 2048">
<g transform="matrix(1 0 0 -1 0 2048)">
<path d="M964 814 235 84Q310 9 404.5 -29.0Q499 -67 599.5 -67.0Q700 -67 794.5 -29.0Q889 9 964 84Q1040 160 1077.5 254.5Q1115 349 1115.0 449.5Q1115 550 1077.5 644.0Q1040 738 964 814Z" fill="#b1cc33" />
<path d="M910 756 303 141Q348 95 408.5 68.5Q469 42 537.0 33.0Q605 24 673.0 33.5Q741 43 801.5 70.5Q862 98 908 143Q953 188 980.5 249.5Q1008 311 1017.0 380.0Q1026 449 1017.5 518.5Q1009 588 982.0 649.5Q955 711 910 756Z" fill="#f4aa41" />
<path d="M764 614 435 285Q482 252 536.5 245.0Q591 238 643.5 255.0Q696 272 736 312Q777 353 794.0 405.0Q811 457 803.5 512.0Q796 567 764 614Z" fill="#e27022" />
<path d="M968 829 954 843 195 84 209 70Q366 -87 589 -87Q811 -87 968 70Q1123 224 1125 443Q1128 661 978 819Q973 824 968 829ZM953 785Q1086 641 1084 443Q1082 242 939 99Q794 -46 589 -46Q394 -46 253 85Z" fill="#000000" />
<path d="M915 776 900 791 260 151 275 136Q398 11 589 7Q790 2 915 143Q1043 288 1039 474Q1036 653 915 776ZM900 732Q995 625 998 473Q1001 303 884 171Q772 44 590 48Q427 52 319 151Z" fill="#000000" />
<path d="M771 626 756 647 391 282 412 267Q489 214 582 223Q675 231 741 297Q807 363 815 456Q824 549 771 626ZM749 579Q778 524 773 460Q766 382 711 328Q656 273 578 265Q514 260 459 289Z" fill="#000000" />
<path d="M586 129Q576 131 570 127Q564 122 562 112Q559 92 580 89Q637 79 707 105Q786 134 846 197Q893 248 926 322Q960 400 955 458Q954 479 933 477Q923 477 918 471Q913 465 914 455Q918 407 888 338Q858 271 816 225Q706 110 586 129Z" fill="#000000" />
<path d="M948.1392211914062 530.9125366210938Q948.1743774414062 539.8329467773438 941.8261413574219 546.1280822753906Q935.4779052734375 552.4232177734375 926.5574951171875 552.4583740234375Q917.6370849609375 552.4935302734375 911.3419494628906 546.1452941894531Q905.0468139648438 539.7970581054688 905.0116577148438 530.8766479492188Q905.1654052734375 522.0069580078125 911.419189453125 515.6864624023438Q917.6729736328125 509.365966796875 926.5426635742188 509.51971435546875Q935.4630737304688 509.48455810546875 941.7835693359375 515.7383422851562Q948.1040649414062 521.9921264648438 948.1392211914062 530.9125366210938Z" fill="#000000" />
</g></svg>