<svg xmlns="http://www.w3.org/2000/svg" viewBox="0 0 2048 2048">
<g transform="matrix(1 0 0 -1 0 2048)">
<path d="M220 825V-52H1100V825Z" fill="#b399c8" />
<path d="M633 126Q633 114 641 106Q649 98 660 98Q671 98 679 106Q688 114 688 126V644Q688 656 679 664Q671 672 660 672Q649 672 641 664Q633 656 633 644Z" fill="#000000" />
<path d="M565 151Q553 151 545 143Q537 135 537 124Q537 112 545 104Q553 96 565 96H755Q767 96 775 104Q783 112 783 124Q783 135 775 143Q767 151 755 151Z" fill="#000000" />
<path d="M202 -55Q202 -74 220 -74H1100Q1119 -74 1119 -55V825Q1119 843 1100 843H220Q202 843 202 825ZM239 806H1082V-37H239Z" fill="#000000" />
<path d="M763 654Q763 672 745 672Q727 672 727 654Q727 615 693 596Q660 577 627 596Q593 615 593 654Q593 672 575 672Q557 672 557 654Q557 594 608 565Q660 535 712 565Q763 594 763 654Z" fill="#000000" />
<path d="M841 654Q841 663 836 668Q832 672 823 672Q804 672 804 654Q804 571 732 529Q660 487 588 529Q516 571 516 654Q516 672 497 672Q488 672 484 668Q479 663 479 654Q479 549 570 497Q660 445 750 497Q841 549 841 654Z" fill="#000000" />
<path d="M919 654Q919 663 914 668Q910 672 900 672Q882 672 882 654Q882 526 771 462Q660 398 549 462Q438 526 438 654Q438 672 420 672Q411 672 406 668Q401 663 401 654Q401 505 531 430Q660 355 789 430Q919 505 919 654Z" fill="#000000" />
<path d="M996 654Q996 672 978 672Q960 672 960 654Q960 481 810 394Q660 308 510 394Q360 481 360 654Q360 672 342 672Q333 672 328 668Q324 663 324 654Q324 460 492 363Q660 265 828 363Q996 460 996 654Z" fill="#000000" />
</g></svg>