<svg xmlns="http://www.w3.org/2000/svg" viewBox="0 0 2048 2048">
<g transform="matrix(1 0 0 -1 0 2048)">
<path d="M785 733Q787 742 784 748Q781 754 773 756Q764 759 758 756Q752 753 750 745L705 607Q700 589 717 584Q726 581 732 584Q738 587 740 596Z" fill="#000000" />
<path d="M543.3488159179688 759.7537841796875Q537.7186279296875 778.0 520.5162353515625 772.69140625Q502.358154296875 767.087890625 507.98834228515625 748.8416748046875L553.0298461914062 602.8719482421875Q558.6600341796875 584.625732421875 576.818115234375 590.229248046875Q594.0205078125 595.537841796875 588.3903198242188 613.7840576171875Z" fill="#000000" />
<path d="M325 637Q310 648 299 633Q289 618 304 607L439 511Q454 501 465 516Q475 531 461 541Z" fill="#000000" />
<path d="M270 399Q251 399 251 381Q251 371 256 367Q261 362 270 362L414 363Q433 363 433 381Q433 400 414 400Z" fill="#000000" />
<path d="M327 167Q312 156 323 141Q334 127 348 137L465 223Q480 234 469 249Q458 263 443 253Z" fill="#000000" />
<path d="M517 37Q511 20 528 14Q537 11 542 13Q548 16 551 25L605 172Q611 189 594 195Q577 201 570 184Z" fill="#000000" />
<path d="M758 10Q763 -7 780 -2Q798 3 793 20L757 149Q752 166 734 161Q717 156 722 139Z" fill="#000000" />
<path d="M957 145Q972 133 983 148Q994 162 980 174L872 258Q857 270 846 255Q835 241 849 229Z" fill="#000000" />
<path d="M1059 371Q1077 371 1077 389Q1077 408 1059 408L896 407Q878 407 878 389Q878 370 896 370Z" fill="#000000" />
<path d="M993 603Q1000 608 1001 614Q1002 621 997 628Q986 643 971 633L836 538Q829 533 828 526Q827 520 832 513Q842 498 857 508Z" fill="#000000" />
<path d="M925.703857421875 385.1053466796875Q925.703857421875 441.8486328125 904.1805419921875 491.74359130859375Q882.6572265625 541.6385498046875 844.828369140625 579.4674072265625Q806.99951171875 617.2962646484375 757.1045532226562 638.819580078125Q707.2095947265625 660.3428955078125 650.46630859375 660.3428955078125Q593.7230224609375 660.3428955078125 543.8280639648438 638.819580078125Q493.93310546875 617.2962646484375 456.104248046875 579.4674072265625Q418.275390625 541.6385498046875 396.7520751953125 491.74359130859375Q375.228759765625 441.8486328125 375.228759765625 385.1053466796875Q375.228759765625 328.362060546875 396.7520751953125 278.46710205078125Q418.275390625 228.5721435546875 456.104248046875 190.7432861328125Q493.93310546875 152.9144287109375 543.8280639648438 131.39111328125Q593.7230224609375 109.8677978515625 650.46630859375 109.8677978515625Q707.2095947265625 109.8677978515625 757.1045532226562 131.39111328125Q806.99951171875 152.9144287109375 844.828369140625 190.7432861328125Q882.6572265625 228.5721435546875 904.1805419921875 278.46710205078125Q925.703857421875 328.362060546875 925.703857421875 385.1053466796875Z" fill="#ea5a47" />
<path d="M830 593Q881 549 905.0 489.0Q929 429 925.0 365.0Q921 301 886 243Q852 186 797.0 152.0Q742 118 678.0 111.0Q614 104 551 129Q553 129 555.0 128.5Q557 128 559 128Q642 128 714.0 169.5Q786 211 828 283Q870 354 870.5 437.0Q871 520 830 593Z" fill="#d22f27" />
<path d="M785 733Q787 742 784 748Q781 754 773 756Q764 759 758 756Q752 753 750 745L705 607Q700 589 717 584Q726 581 732 584Q738 587 740 596Z" fill="#d22f27" />
<path d="M543.3488159179688 759.7537841796875Q537.7186279296875 778.0 520.5162353515625 772.69140625Q502.358154296875 767.087890625 507.98834228515625 748.8416748046875L553.0298461914062 602.8719482421875Q558.6600341796875 584.625732421875 576.818115234375 590.229248046875Q594.0205078125 595.537841796875 588.3903198242188 613.7840576171875Z" fill="#d22f27" />
<path d="M325 637Q310 648 299 633Q289 618 304 607L439 511Q454 501 465 516Q475 531 461 541Z" fill="#d22f27" />
<path d="M270 399Q251 399 251 381Q251 371 256 367Q261 362 270 362L414 363Q433 363 433 381Q433 400 414 400Z" fill="#d22f27" />
<path d="M327 167Q312 156 323 141Q334 127 348 137L465 223Q480 234 469 249Q458 263 443 253Z" fill="#d22f27" />
<path d="M517 37Q511 20 528 14Q537 11 542 13Q548 16 551 25L605 172Q611 189 594 195Q577 201 570 184Z" fill="#d22f27" />
<path d="M758 10Q763 -7 780 -2Q798 3 793 20L757 149Q752 166 734 161Q717 156 722 139Z" fill="#d22f27" />
<path d="M957 145Q972 133 983 148Q994 162 980 174L872 258Q857 270 846 255Q835 241 849 229Z" fill="#d22f27" />
<path d="M1059 371Q1077 371 1077 389Q1077 408 1059 408L896 407Q878 407 878 389Q878 370 896 370Z" fill="#d22f27" />
<path d="M993 603Q1000 608 1001 614Q1002 621 997 628Q986 643 971 633L836 538Q829 533 828 526Q827 520 832 513Q842 498 857 508Z" fill="#d22f27" />
<path d="M944 385Q944 506 858 592Q772 678 651 678Q529 678 443 592Q357 506 357 385Q357 264 443 178Q529 92 651 92Q772 92 858 178Q944 264 944 385ZM907 385Q907 279 832 204Q757 128 651 128Q544 128 469 204Q394 279 394 385Q394 491 469 566Q544 642 651 642Q757 642 832 566Q907 491 907 385Z" fill="#000000" />
<path d="M719 774Q709 777 704 769Q695 758 707 750L755 715Q758 712 763 712H823Q833 712 836 721Q838 728 836 732Q834 737 827 739Z" fill="#000000" />
<path d="M557 790 472 766Q459 762 463 749Q466 739 475 739L527 736Q533 736 537 739L570 766Q575 771 575 775Q576 780 571 786Q566 793 557 790Z" fill="#000000" />
<path d="M269 588Q264 580 269 573Q273 567 278 566Q282 565 288 569L336 601Q341 604 342 610L352 674Q354 683 346 687Q334 695 327 683Z" fill="#000000" />
<path d="M242 345Q242 338 248 333Q254 330 259 331Q264 332 267 338L290 375Q294 382 290 389L268 427Q264 434 256 434Q242 434 242 420Z" fill="#000000" />
<path d="M348 100Q353 94 361 95Q375 98 372 112L360 162Q359 169 352 172L305 190Q297 193 291 188Q281 179 290 169Z" fill="#000000" />
<path d="M575 -13Q585 -16 591 -8Q599 3 587 11L542 42Q539 44 535 45L472 49Q461 50 458 39Q456 33 458 28Q460 24 467 22Z" fill="#000000" />
<path d="M830 14Q839 17 839 28Q838 41 824 40L772 37Q768 37 765 34L723 4Q715 -2 718 -11Q723 -24 736 -20Z" fill="#000000" />
<path d="M1008 179Q1014 186 1008 194Q1001 206 989 198L955 175Q952 172 950 168L935 124Q932 114 940 108Q951 100 959 111Z" fill="#000000" />
<path d="M1077 332 1078 443Q1078 450 1074 453Q1071 457 1064 457Q1054 457 1051 447L1035 393Q1034 389 1035 386L1050 328Q1054 315 1067 319Q1077 321 1077 332Z" fill="#000000" />
<path d="M965 672Q958 681 948 677Q936 671 941 659L962 607Q963 604 966 602L1008 568Q1017 562 1025 568Q1036 576 1028 587Z" fill="#000000" />
<path d="M804.775634765625 448.9136962890625Q804.775634765625 453.6396484375 802.9830322265625 457.79522705078125Q801.1904296875 461.9508056640625 798.039794921875 465.1014404296875Q794.88916015625 468.2520751953125 790.7335815429688 470.044677734375Q786.5780029296875 471.8372802734375 781.85205078125 471.8372802734375Q777.1260986328125 471.8372802734375 772.9705200195312 470.044677734375Q768.81494140625 468.2520751953125 765.664306640625 465.1014404296875Q762.513671875 461.9508056640625 760.7210693359375 457.79522705078125Q758.928466796875 453.6396484375 758.928466796875 448.9136962890625Q758.928466796875 444.187744140625 760.7210693359375 440.03216552734375Q762.513671875 435.8765869140625 765.664306640625 432.7259521484375Q768.81494140625 429.5753173828125 772.9705200195312 427.78271484375Q777.1260986328125 425.9901123046875 781.85205078125 425.9901123046875Q786.5780029296875 425.9901123046875 790.7335815429688 427.78271484375Q794.88916015625 429.5753173828125 798.039794921875 432.7259521484375Q801.1904296875 435.8765869140625 802.9830322265625 440.03216552734375Q804.775634765625 444.187744140625 804.775634765625 448.9136962890625Z" fill="#000000" />
<path d="M547.775634765625 503.9136962890625Q547.775634765625 508.6396484375 545.9830322265625 512.7952270507812Q544.1904296875 516.9508056640625 541.039794921875 520.1014404296875Q537.88916015625 523.2520751953125 533.7335815429688 525.044677734375Q529.5780029296875 526.8372802734375 524.85205078125 526.8372802734375Q520.1260986328125 526.8372802734375 515.9705200195312 525.044677734375Q511.81494140625 523.2520751953125 508.664306640625 520.1014404296875Q505.513671875 516.9508056640625 503.7210693359375 512.7952270507812Q501.928466796875 508.6396484375 501.928466796875 503.9136962890625Q501.928466796875 499.187744140625 503.7210693359375 495.03216552734375Q505.513671875 490.8765869140625 508.664306640625 487.7259521484375Q511.81494140625 484.5753173828125 515.9705200195312 482.78271484375Q520.1260986328125 480.9901123046875 524.85205078125 480.9901123046875Q529.5780029296875 480.9901123046875 533.7335815429688 482.78271484375Q537.88916015625 484.5753173828125 541.039794921875 487.7259521484375Q544.1904296875 490.8765869140625 545.9830322265625 495.03216552734375Q547.775634765625 499.187744140625 547.775634765625 503.9136962890625Z" fill="#000000" />
<path d="M676.775634765625 522.9136962890625Q676.775634765625 527.6396484375 674.9830322265625 531.7952270507812Q673.1904296875 535.9508056640625 670.039794921875 539.1014404296875Q666.88916015625 542.2520751953125 662.7335815429688 544.044677734375Q658.5780029296875 545.8372802734375 653.85205078125 545.8372802734375Q649.1260986328125 545.8372802734375 644.9705200195312 544.044677734375Q640.81494140625 542.2520751953125 637.664306640625 539.1014404296875Q634.513671875 535.9508056640625 632.7210693359375 531.7952270507812Q630.928466796875 527.6396484375 630.928466796875 522.9136962890625Q630.928466796875 518.187744140625 632.7210693359375 514.0321655273438Q634.513671875 509.8765869140625 637.664306640625 506.7259521484375Q640.81494140625 503.5753173828125 644.9705200195312 501.78271484375Q649.1260986328125 499.9901123046875 653.85205078125 499.9901123046875Q658.5780029296875 499.9901123046875 662.7335815429688 501.78271484375Q666.88916015625 503.5753173828125 670.039794921875 506.7259521484375Q673.1904296875 509.8765869140625 674.9830322265625 514.0321655273438Q676.775634765625 518.187744140625 676.775634765625 522.9136962890625Z" fill="#000000" />
<path d="M712.775634765625 228.9136962890625Q712.775634765625 233.6396484375 710.9830322265625 237.79522705078125Q709.1904296875 241.9508056640625 706.039794921875 245.1014404296875Q702.88916015625 248.2520751953125 698.7335815429688 250.044677734375Q694.5780029296875 251.8372802734375 689.85205078125 251.8372802734375Q685.1260986328125 251.8372802734375 680.9705200195312 250.044677734375Q676.81494140625 248.2520751953125 673.664306640625 245.1014404296875Q670.513671875 241.9508056640625 668.7210693359375 237.79522705078125Q666.928466796875 233.6396484375 666.928466796875 228.9136962890625Q666.928466796875 224.187744140625 668.7210693359375 220.03216552734375Q670.513671875 215.8765869140625 673.664306640625 212.7259521484375Q676.81494140625 209.5753173828125 680.9705200195312 207.78271484375Q685.1260986328125 205.9901123046875 689.85205078125 205.9901123046875Q694.5780029296875 205.9901123046875 698.7335815429688 207.78271484375Q702.88916015625 209.5753173828125 706.039794921875 212.7259521484375Q709.1904296875 215.8765869140625 710.9830322265625 220.03216552734375Q712.775634765625 224.187744140625 712.775634765625 228.9136962890625Z" fill="#000000" />
<path d="M617.1070556640625 408.48541259765625Q617.1070556640625 416.05224609375 614.2368774414062 422.7058410644531Q611.36669921875 429.35943603515625 606.3221435546875 434.40399169921875Q601.277587890625 439.44854736328125 594.6239929199219 442.3187255859375Q587.9703979492188 445.18890380859375 580.403564453125 445.18890380859375Q572.8367309570312 445.18890380859375 566.1831359863281 442.3187255859375Q559.529541015625 439.44854736328125 554.4849853515625 434.40399169921875Q549.4404296875 429.35943603515625 546.5702514648438 422.7058410644531Q543.7000732421875 416.05224609375 543.7000732421875 408.48541259765625Q543.7000732421875 400.9185791015625 546.5702514648438 394.2649841308594Q549.4404296875 387.61138916015625 554.4849853515625 382.56683349609375Q559.529541015625 377.52227783203125 566.1831359863281 374.652099609375Q572.8367309570312 371.78192138671875 580.403564453125 371.78192138671875Q587.9703979492188 371.78192138671875 594.6239929199219 374.652099609375Q601.277587890625 377.52227783203125 606.3221435546875 382.56683349609375Q611.36669921875 387.61138916015625 614.2368774414062 394.2649841308594Q617.1070556640625 400.9185791015625 617.1070556640625 408.48541259765625Z" fill="#000000" />
<path d="M608.1070556640625 279.48541259765625Q608.1070556640625 287.05224609375 605.2368774414062 293.7058410644531Q602.36669921875 300.35943603515625 597.3221435546875 305.40399169921875Q592.277587890625 310.44854736328125 585.6239929199219 313.3187255859375Q578.9703979492188 316.18890380859375 571.403564453125 316.18890380859375Q563.8367309570312 316.18890380859375 557.1831359863281 313.3187255859375Q550.529541015625 310.44854736328125 545.4849853515625 305.40399169921875Q540.4404296875 300.35943603515625 537.5702514648438 293.7058410644531Q534.7000732421875 287.05224609375 534.7000732421875 279.48541259765625Q534.7000732421875 271.9185791015625 537.5702514648438 265.2649841308594Q540.4404296875 258.61138916015625 545.4849853515625 253.56683349609375Q550.529541015625 248.52227783203125 557.1831359863281 245.652099609375Q563.8367309570312 242.78192138671875 571.403564453125 242.78192138671875Q578.9703979492188 242.78192138671875 585.6239929199219 245.652099609375Q592.277587890625 248.52227783203125 597.3221435546875 253.56683349609375Q602.36669921875 258.61138916015625 605.2368774414062 265.2649841308594Q608.1070556640625 271.9185791015625 608.1070556640625 279.48541259765625Z" fill="#000000" />
<path d="M782.0615234375 353.19287109375Q782.0615234375 364.53515625 777.75927734375 374.508544921875Q773.45703125 384.48193359375 765.8955078125 392.04345703125Q758.333984375 399.60498046875 748.360595703125 403.9072265625Q738.38720703125 408.20947265625 727.044921875 408.20947265625Q715.70263671875 408.20947265625 705.729248046875 403.9072265625Q695.755859375 399.60498046875 688.1943359375 392.04345703125Q680.6328125 384.48193359375 676.33056640625 374.508544921875Q672.0283203125 364.53515625 672.0283203125 353.19287109375Q672.0283203125 341.8505859375 676.33056640625 331.877197265625Q680.6328125 321.90380859375 688.1943359375 314.34228515625Q695.755859375 306.78076171875 705.729248046875 302.478515625Q715.70263671875 298.17626953125 727.044921875 298.17626953125Q738.38720703125 298.17626953125 748.360595703125 302.478515625Q758.333984375 306.78076171875 765.8955078125 314.34228515625Q773.45703125 321.90380859375 777.75927734375 331.877197265625Q782.0615234375 341.8505859375 782.0615234375 353.19287109375Z" fill="#000000" />
<path d="M762 664Q768 682 751 688Q733 693 728 676L705 607Q700 589 717 584Q735 578 740 596Z" fill="#d22f27" />
<path d="M560 706Q555 724 537 718Q520 713 525 695L554 603Q559 585 577 590Q594 596 589 613Z" fill="#d22f27" />
<path d="M379 599Q364 610 353 595Q343 580 358 569L439 511Q454 501 465 516Q475 531 461 541Z" fill="#d22f27" />
<path d="M330 399Q311 399 311 381Q312 371 316 367Q321 362 330 362L415 363Q433 363 433 381Q433 391 428 395Q423 400 414 400Z" fill="#d22f27" />
<path d="M380.04010009765625 206.80780029296875Q364.85662841796875 195.69000244140625 376.0372314453125 180.4232177734375Q386.6854248046875 165.8834228515625 401.868896484375 177.001220703125L465.494873046875 223.590087890625Q479.955322265625 234.178466796875 469.30712890625 248.71826171875Q458.12652587890625 263.98504638671875 443.66607666015625 253.39666748046875Z" fill="#d22f27" />
<path d="M537 92Q534 83 537 77Q540 72 548 69Q566 63 572 80L596 154Q599 163 596 168Q593 174 584 177Q567 183 561 165Z" fill="#d22f27" />
<path d="M741 68Q746 50 764 55Q782 60 777 78L757 149Q752 166 734 161Q717 156 722 139Z" fill="#d22f27" />
<path d="M909 182Q924 171 935 186Q946 200 932 211L872 258Q857 270 846 255Q835 241 849 229Z" fill="#d22f27" />
<path d="M989 371Q1007 371 1007 389Q1007 407 989 407H896Q878 407 878 389Q878 370 896 370Z" fill="#d22f27" />
<path d="M937.485595703125 563.9141845703125Q944.94091796875 569.8497314453125 946.054931640625 575.5865478515625Q946.826171875 582.262939453125 941.85595703125 590.0264892578125Q931.315673828125 604.2677001953125 916.662109375 594.6220703125L836.62451171875 538.5792236328125Q829.169189453125 532.6436767578125 828.05517578125 526.9068603515625Q826.34130859375 519.8841552734375 832.254150390625 512.4669189453125Q841.851806640625 497.87939453125 857.447998046875 507.871337890625Z" fill="#d22f27" />
</g></svg>