<svg xmlns="http://www.w3.org/2000/svg" viewBox="0 0 2048 2048">
<g transform="matrix(1 0 0 -1 0 2048)">
<path d="M808 587V110H863V587Z" fill="#9b9b9a" />
<path d="M864 561V818Q864 834 849 834H343Q328 834 328 818V-40Q328 -55 343 -55H849Q864 -55 864 -40V196Z" fill="#9b9b9a" />
<path d="M756 587V110H811V587Z" fill="#d0cfce" />
<path d="M795 561V723Q795 738 780 738H411Q397 738 397 723V109Q397 95 411 95H780Q795 95 795 109V196Z" fill="#d0cfce" />
<path d="M882 196Q882 214 864 214Q846 214 846 196V-37H346V815H846V561Q846 542 864 542Q882 542 882 561V818Q882 852 849 852H343Q329 852 319 842Q309 832 309 818V-40Q309 -73 343 -73H849Q882 -73 882 -40Z" fill="#000000" />
<path d="M813 196Q813 214 795 214Q777 214 777 196V113H415V720H777V561Q777 542 795 542Q813 542 813 561V723Q813 756 780 756H411Q378 756 378 723V109Q378 96 388 86Q398 76 411 76H780Q813 76 813 109Z" fill="#000000" />
<path d="M626.4089965820312 17.56231689453125Q626.4089965820312 26.0284423828125 622.2476806640625 32.987884521484375Q618.0863647460938 39.94732666015625 611.1269226074219 44.108642578125Q604.16748046875 48.26995849609375 595.7013549804688 48.26995849609375Q587.2352294921875 48.26995849609375 580.2757873535156 44.108642578125Q573.3163452148438 39.94732666015625 569.2267761230469 32.987884521484375Q565.13720703125 26.0284423828125 565.13720703125 17.56231689453125Q565.13720703125 9.23968505859375 569.2267761230469 2.280242919921875Q573.3163452148438 -4.67919921875 580.2757873535156 -8.84051513671875Q587.2352294921875 -13.0018310546875 595.7013549804688 -13.0018310546875Q604.16748046875 -13.0018310546875 611.1269226074219 -8.84051513671875Q618.0863647460938 -4.67919921875 622.2476806640625 2.280242919921875Q626.4089965820312 9.23968505859375 626.4089965820312 17.56231689453125Z" fill="#000000" />
<path d="M518.8541870117188 801.9696655273438Q501.12432861328125 802.68115234375 501.1219482421875 784.2420043945312Q501.11956787109375 765.8028564453125 519.5587158203125 765.8004760742188L672.7454833984375 765.7807006835938Q691.1846313476562 765.7783203125 691.18701171875 784.2174682617188Q690.4801025390625 801.947509765625 672.750244140625 802.6589965820312Z" fill="#000000" />
<path d="M804 358Q822 358 822 376Q822 394 804 394H767V422H822Q841 422 841 440Q841 459 822 459H749Q731 459 731 440V312Q731 294 749 294Q767 294 767 312V358Z" fill="#000000" />
<path d="M950 358Q968 358 968 376Q968 394 950 394H913V422H968Q987 422 987 440Q987 459 968 459H895Q877 459 877 440V312Q877 294 895 294Q913 294 913 312V358Z" fill="#000000" />
<path d="M614 294Q678 294 678 358V395Q678 459 614 459Q550 459 550 395V358Q550 294 614 294ZM614 331Q603 331 595 339Q587 347 587 358V395Q587 422 614 422Q642 422 642 395V358Q642 347 634 339Q626 331 614 331Z" fill="#000000" />
</g></svg>