<svg xmlns="http://www.w3.org/2000/svg" viewBox="0 0 2048 2048">
<g transform="matrix(1 0 0 -1 0 2048)">
<path d="M963 -142Q970 -142 975.5 -137.0Q981 -132 981 -124V903Q981 910 975.5 915.5Q970 921 963 921H358Q350 921 344.5 915.5Q339 910 339 903V-124Q339 -132 344.5 -137.0Q350 -142 358 -142Z" fill="#9b9b9a" />
<path d="M881 37Q888 37 893.0 42.0Q898 47 898 54V789Q898 796 893.0 801.5Q888 807 881 807H439Q432 807 427.0 801.5Q422 796 422 789V54Q422 47 427.0 42.0Q432 37 439 37Z" fill="#d0cfce" />
<path d="M963 -161Q999 -161 999 -124V903Q999 939 963 939H358Q321 939 321 903V-124Q321 -161 358 -161ZM963 -124H358V903H963Z" fill="#000000" />
<path d="M881 18Q917 18 917 54V789Q917 825 881 825H439Q403 825 403 789V54Q403 18 439 18ZM880 55H440V788H880Z" fill="#000000" />
<path d="M696.8568725585938 -54.85504150390625Q696.8568725585938 -44.7252197265625 691.8778076171875 -36.398162841796875Q686.8987426757812 -28.07110595703125 678.5716857910156 -23.092041015625Q670.24462890625 -18.11297607421875 660.1148071289062 -18.11297607421875Q649.9849853515625 -18.11297607421875 641.6579284667969 -23.092041015625Q633.3308715820312 -28.07110595703125 628.4376525878906 -36.398162841796875Q623.54443359375 -44.7252197265625 623.54443359375 -54.85504150390625Q623.54443359375 -64.81317138671875 628.4376525878906 -73.14022827148438Q633.3308715820312 -81.46728515625 641.6579284667969 -86.44635009765625Q649.9849853515625 -91.4254150390625 660.1148071289062 -91.4254150390625Q670.24462890625 -91.4254150390625 678.5716857910156 -86.44635009765625Q686.8987426757812 -81.46728515625 691.8778076171875 -73.14022827148438Q696.8568725585938 -64.81317138671875 696.8568725585938 -54.85504150390625Z" fill="#000000" />
<path d="M706 -55Q706 -9 660 -9Q614 -9 614 -55Q614 -101 660 -101Q706 -101 706 -55ZM688 -55Q688 -82 660 -82Q633 -82 633 -55Q633 -27 660 -27Q688 -27 688 -55Z" fill="#000000" />
<path d="M568 880Q550 880 550 862Q550 843 568 843H752Q770 843 770 862Q770 880 752 880Z" fill="#000000" />
</g></svg>