<svg xmlns="http://www.w3.org/2000/svg" viewBox="0 0 2048 2048">
<g transform="matrix(1 0 0 -1 0 2048)">
<path d="M1247 220H524Q514 220 508 229L486 275H73V150H1247Z" fill="#3f3f3f" />
<path d="M257 150V-202H330V150Z" fill="#3f3f3f" />
<path d="M990 150V-202H1063V150Z" fill="#3f3f3f" />
<path d="M1247 293V715Q1247 715 1213.5 715.5Q1180 716 1123.5 716.5Q1067 717 996.0 716.5Q925 716 849.0 712.5Q773 709 701.0 703.0Q629 697 570.5 686.5Q512 676 477 660Q431 639 388.0 611.0Q345 583 309.5 553.0Q274 523 249.5 496.0Q225 469 215 451L213 449Q213 449 209 445Q205 442 205 440Q205 439 204.5 437.5Q204 436 204 435Q204 433 203.0 431.5Q202 430 202 429Q202 428 201.0 426.5Q200 425 200 423Q200 422 200.0 420.5Q200 419 200 418Q197 404 205 385Q208 379 214.5 373.5Q221 368 231 361Q237 357 243.5 354.0Q250 351 259 347Q260 347 260.5 346.0Q261 345 262 345Q266 345 273 341Q279 338 284.5 336.5Q290 335 295 332Q301 330 305.5 328.0Q310 326 315 325H317Q323 322 328.5 319.5Q334 317 339 315Q342 314 344.0 313.5Q346 313 348 312Q352 310 355.5 309.0Q359 308 363 306Q384 299 402.5 294.5Q421 290 436 286Q438 284 442 284Q461 280 473.5 277.5Q486 275 486 275L477 293Z" fill="#d0cfce" />
<path d="M202 385Q195 397 195.0 409.0Q195 421 198 431Q190 407 196.0 396.0Q202 385 202 385Z" fill="#d0cfce" />
<path d="M200 435Q198 433 198 429Q198 430 199.0 431.5Q200 433 200 435Z" fill="#d0cfce" />
<path d="M337 313Q330 316 324.5 318.5Q319 321 312 323Q319 320 324.5 318.0Q330 316 337 313Z" fill="#d0cfce" />
<path d="M312 323Q273 338 241.0 354.5Q209 371 202 385Q202 385 205.5 379.0Q209 373 228.5 360.5Q248 348 293 330Q297 327 302.5 325.5Q308 324 312 323Z" fill="#d0cfce" />
<path d="M202 440Q203 443 204.5 445.5Q206 448 209 451Q209 451 206.5 448.0Q204 445 202 440Z" fill="#61b2e4" />
<path d="M436 286Q421 290 402.5 294.5Q384 299 363 306Q385 299 404.0 294.0Q423 289 436 286Z" fill="#61b2e4" />
<path d="M1247 308H477L486 288L508 233Q514 220 524 220H1247Z" fill="#92d3f5" />
<path d="M1082 495V640Q994 648 893.5 647.5Q793 647 697 640Q690 640 685.0 634.0Q680 628 680 622V493Z" fill="#3f3f3f" />
<path d="M347.451416015625 494.5546875H622.990966796875V623.1295166015625Z" fill="#d0cfce" />
<path d="M622 622 623 623V495H348L356 499H332Q346 519 372.5 538.0Q399 557 427.0 572.0Q455 587 475.0 596.0Q495 605 495 605Q523 614 552.0 622.0Q581 630 601.5 635.0Q622 640 622 640Z" fill="#3f3f3f" />
<path d="M695.9523315429688 494.5625H1081.7329711914062V623.1513671875Z" fill="#3f3f3f" />
<path d="M1265 220Q1265 238 1247 238H524Q524 238 524 239L502 283Q497 293 486 293H73Q55 293 55 275V150Q55 132 73 132H1247Q1265 132 1265 150ZM1228 202V169H92V257H474L491 221Q492 220 493 219Q504 202 524 202Z" fill="#000000" />
<path d="M238 -202Q238 -220 257 -220H330Q348 -220 348 -202V150Q348 169 330 169H257Q238 169 238 150ZM275 132H312V-183H275Z" fill="#000000" />
<path d="M971 -202Q971 -220 990 -220H1063Q1081 -220 1081 -202V150Q1081 169 1063 169H990Q971 169 971 150ZM1008 132H1045V-183H1008Z" fill="#000000" />
<path d="M1247 275Q1265 275 1265 293V715Q1265 733 1247 733Q638 752 469 677Q382 638 298 567Q227 507 201 464Q198 461 195 458Q189 451 187 444Q186 441 186 439Q184 436 184 433Q182 428 182 423V420Q179 401 188 378Q189 377 189 377Q195 364 220 346Q227 341 242 334Q248 331 250 330Q250 330 250 330Q256 326 262 326L265 325Q270 322 278 319Q284 317 287 315Q289 315 291 314Q293 313 298 311Q306 308 311 307Q312 307 312 306Q325 300 333 298Q335 297 338 296Q339 296 340 295Q341 295 343 294Q345 294 349 292Q354 290 357 289Q377 282 412 273Q423 271 428 269Q433 266 440 266Q464 261 482 257Q488 256 494 259Q506 265 505 275ZM459 299Q453 301 446 302Q445 302 445 302Q443 303 441 304Q435 305 421 309Q387 317 369 324Q367 324 362 326Q358 328 355 329Q353 330 350 331Q348 331 347 332Q346 333 344 333Q338 334 325 341Q322 343 318 343Q316 344 312 345Q306 348 302 349Q297 351 291 354Q284 356 281 357Q274 361 269 362Q267 363 265 364Q262 365 258 367Q246 373 242 376Q242 376 242 376Q225 388 222 393Q216 406 218 414Q218 416 218 418V420Q219 423 220 425Q221 428 221 430Q222 432 222 433Q223 434 224 435Q225 435 226 436L227 438Q229 440 230 442Q253 481 322 539Q402 606 484 643Q584 688 924 697Q1085 701 1228 697V312H477Q462 312 459 299ZM223 434Q223 434 223 434Q224 437 224 440Q224 436 223 434ZM220 432Q217 431 213 431Q216 431 220 432ZM223 434Q223 434 223 434Q223 434 223 433Q223 434 223 434ZM185 437Q185 436 185 435Q185 436 185 437ZM183 431Q183 430 183 429Q183 430 183 431ZM220 427Q220 428 220 429Q220 428 220 427ZM187 442Q187 441 187 440Q187 441 187 442Z" fill="#000000" />
<path d="M189 372Q198 362 211 369Q219 373 220 380Q222 386 218 394Q210 407 216 426Q220 442 204 448Q195 451 190 448Q184 446 181 437Q166 395 189 372Z" fill="#000000" />
<path d="M218 435Q218 442 213 447Q206 454 200 454Q193 454 187 447Q180 440 180 429Q180 411 198 411Q214 411 216 425Q218 430 218 435ZM216 429Q216 425 213 422L205 429Z" fill="#000000" />
<path d="M331 296Q339 293 345 296Q351 298 354 307Q358 315 355 321Q353 327 344 331Q342 331 338 333Q324 339 315 341Q300 344 295 329Q291 321 294 315Q296 309 305 306Q310 304 319 301Q326 298 331 296Z" fill="#000000" />
<path d="M306 305Q322 300 329 316Q335 333 318 340Q227 376 218 393Q213 403 202 403Q183 403 183 385Q183 354 285 314Q292 310 303 306Q305 306 306 305Z" fill="#000000" />
<path d="M185 448Q177 432 193 424Q210 415 218 432Q220 436 222 438Q235 451 222 464Q209 477 196 464Q190 458 185 448Z" fill="#000000" />
<path d="M433 268Q450 265 454 281Q459 299 441 304Q435 305 421 309Q402 314 388 318Q379 320 368 324Q351 329 346 312Q340 294 357 289Q366 286 377 283Q413 272 433 268Z" fill="#000000" />
<path d="M1265 308Q1265 326 1247 326H477Q473 326 469 325Q452 317 460 300L469 281L491 226Q491 225 491 225Q503 202 524 202H1247Q1265 202 1265 220ZM1228 290V238H524V239L525 240L505 290Z" fill="#000000" />
<path d="M642 623Q642 642 623 642Q605 642 605 623V513H348Q330 513 330 495Q330 477 348 477H623Q642 477 642 495Z" fill="#000000" />
<path d="M642 623Q642 642 623 642Q605 642 605 623V513H348Q330 513 330 495Q330 477 348 477H623Q642 477 642 495Z" fill="#000000" />
<path d="M1100 623Q1100 642 1082 642Q1063 642 1063 623V513H697Q678 513 678 495Q678 477 697 477H1082Q1100 477 1100 495Z" fill="#000000" />
</g></svg>