<svg xmlns="http://www.w3.org/2000/svg" viewBox="0 0 2048 2048">
<g transform="matrix(1 0 0 -1 0 2048)">
<path d="M658 -142Q690 -142 720.0 -131.5Q750 -121 769.0 -102.0Q788 -83 788 -57L773 294Q773 320 755.5 345.5Q738 371 708.5 391.0Q679 411 646 420L548 437Q521 437 501.5 412.5Q482 388 470 354Q462 334 457.5 318.5Q453 303 454.0 284.5Q455 266 463.0 238.0Q471 210 489 165Q502 130 508 92L530 -52Q539 -87 574.5 -114.5Q610 -142 658 -142Z" fill="#6a462f" />
<path d="M663 -142Q711 -142 746.5 -114.5Q782 -87 791 -52L813 92Q819 130 832 165Q850 210 857.5 238.5Q865 267 864.5 286.5Q864 306 858.5 322.0Q853 338 845 358Q833 392 814.5 412.5Q796 433 769 433L668 416Q637 410 609.5 390.5Q582 371 565.0 345.5Q548 320 548 294L533 -57Q533 -83 552.0 -102.0Q571 -121 601.0 -131.5Q631 -142 663 -142Z" fill="#6a462f" />
<path d="M963 766Q969 761 984.5 747.0Q1000 733 1021.0 714.5Q1042 696 1062.5 677.5Q1083 659 1098.5 645.5Q1114 632 1118 629L1087 530Q1086 529 1074.0 516.5Q1062 504 1044.5 486.0Q1027 468 1009.5 449.5Q992 431 980.0 419.0Q968 407 968 407Q928 373 888.5 336.5Q849 300 826 279L769 407Q769 409 774.0 429.5Q779 450 787.0 479.5Q795 509 802.5 538.5Q810 568 815.5 587.5Q821 607 821 607Q843 618 852.5 623.5Q862 629 882 641Z" fill="#6a462f" />
<path d="M351 757Q351 757 337.5 745.5Q324 734 303.0 716.5Q282 699 260.0 680.0Q238 661 220.5 646.5Q203 632 196 626L282 458Q308 436 344.0 408.5Q380 381 412.0 357.0Q444 333 459 319L547 405Q547 407 543.5 429.5Q540 452 535.5 481.5Q531 511 526.5 534.5Q522 558 520 562Q517 570 503.0 581.5Q489 593 476.0 601.0Q463 609 463 609Q455 610 441.0 626.0Q427 642 411.0 666.0Q395 690 379.5 714.5Q364 739 351 757Z" fill="#6a462f" />
<path d="M660 233Q678 233 689.5 224.0Q701 215 707.5 205.0Q714 195 716.5 189.0Q719 183 719 189L748 303Q755 333 737.5 358.5Q720 384 689 388Q676 389 664 389Q652 389 639 388Q608 384 590.5 358.5Q573 333 580 303L608 189Q608 183 609.5 189.0Q611 195 616.0 205.0Q621 215 631.5 224.0Q642 233 660 233Z" fill="#a57939" />
<path d="M738 210Q738 240 716.5 261.0Q695 282 663 282Q632 282 610.0 261.0Q588 240 588 210L580 -63Q580 -93 606.0 -113.0Q632 -133 663 -133Q695 -133 721.5 -115.0Q748 -97 748 -67Z" fill="#a57939" />
<path d="M564.7093505859375 266.39935302734375Q564.7093505859375 270.55712890625 563.1322631835938 274.2131042480469Q561.55517578125 277.86907958984375 558.7833251953125 280.64093017578125Q556.011474609375 283.41278076171875 552.3554992675781 284.9898681640625Q548.6995239257812 286.56695556640625 544.541748046875 286.56695556640625Q540.3839721679688 286.56695556640625 536.7279968261719 284.9898681640625Q533.072021484375 283.41278076171875 530.3001708984375 280.64093017578125Q527.5283203125 277.86907958984375 525.9512329101562 274.2131042480469Q524.3741455078125 270.55712890625 524.3741455078125 266.39935302734375Q524.3741455078125 262.2415771484375 525.9512329101562 258.5856018066406Q527.5283203125 254.92962646484375 530.3001708984375 252.15777587890625Q533.072021484375 249.38592529296875 536.7279968261719 247.808837890625Q540.3839721679688 246.23175048828125 544.541748046875 246.23175048828125Q548.6995239257812 246.23175048828125 552.3554992675781 247.808837890625Q556.011474609375 249.38592529296875 558.7833251953125 252.15777587890625Q561.55517578125 254.92962646484375 563.1322631835938 258.5856018066406Q564.7093505859375 262.2415771484375 564.7093505859375 266.39935302734375Z" fill="#000000" />
<path d="M799.850830078125 261.0938720703125Q799.850830078125 265.1826171875 798.2999267578125 268.77789306640625Q796.7490234375 272.3731689453125 794.023193359375 275.0989990234375Q791.29736328125 277.8248291015625 787.7020874023438 279.375732421875Q784.1068115234375 280.9266357421875 780.01806640625 280.9266357421875Q775.9293212890625 280.9266357421875 772.3340454101562 279.375732421875Q768.73876953125 277.8248291015625 766.012939453125 275.0989990234375Q763.287109375 272.3731689453125 761.7362060546875 268.77789306640625Q760.185302734375 265.1826171875 760.185302734375 261.0938720703125Q760.185302734375 257.005126953125 761.7362060546875 253.40985107421875Q763.287109375 249.8145751953125 766.012939453125 247.0887451171875Q768.73876953125 244.3629150390625 772.3340454101562 242.81201171875Q775.9293212890625 241.2611083984375 780.01806640625 241.2611083984375Q784.1068115234375 241.2611083984375 787.7020874023438 242.81201171875Q791.29736328125 244.3629150390625 794.023193359375 247.0887451171875Q796.7490234375 249.8145751953125 798.2999267578125 253.40985107421875Q799.850830078125 257.005126953125 799.850830078125 261.0938720703125Z" fill="#000000" />
<path d="M741 270Q741 289 723 289Q705 290 704 272Q700 169 737 59Q745 32 746 11Q747 -8 744 -11Q732 -23 728 -43Q726 -60 717 -80Q717 -81 717 -81Q713 -83 708 -78Q694 -66 682 -80Q670 -94 684 -106Q709 -128 735 -113Q746 -107 751 -94Q761 -70 765 -49Q766 -41 770 -37Q784 -23 783 12Q782 38 771 70Q737 174 741 270Z" fill="#000000" />
<path d="M624 272Q623 290 605 289Q587 289 587 270Q591 174 557 70Q546 38 546 12Q544 -23 559 -37Q562 -41 563 -49Q567 -70 577 -94Q582 -107 593 -113Q619 -128 645 -106Q659 -94 646 -80Q634 -66 621 -78Q615 -83 611 -81Q611 -81 611 -80Q602 -60 600 -43Q597 -23 585 -11Q581 -8 582 11Q583 32 592 59Q628 169 624 272Z" fill="#000000" />
<path d="M1096 633Q1109 621 1122 635Q1134 649 1120 661L1000 766Q986 778 976 782Q951 791 935 768Q925 752 941 742Q948 737 955 739Q960 740 965 747Q969 745 976 738Z" fill="#000000" />
<path d="M1120 661Q1106 673 1094 659Q1088 652 1088 645Q1089 639 1096 633Q1110 621 1074 553Q1032 473 963 425Q960 423 948 416Q861 369 834 305Q827 288 844 281Q861 274 868 291Q890 343 965 384Q979 392 984 395Q1060 448 1107 536Q1156 630 1120 661Z" fill="#000000" />
<path d="M966 749Q971 757 969 764Q967 770 959 774Q943 783 934 767Q930 760 874 668Q858 642 855 637Q849 628 834 630Q817 631 806 617Q761 556 753 445Q751 427 769 425Q788 424 789 442Q797 540 834 593Q869 591 886 618Q889 623 905 649Q962 742 966 749Z" fill="#000000" />
<path d="M196 658Q182 646 194 632Q200 626 207 625Q213 625 220 631L340 736Q347 742 350 744Q360 730 375 740Q383 745 384 751Q385 758 380 765Q365 789 340 779Q330 776 316 763Z" fill="#000000" />
<path d="M220 631Q234 642 222 656Q216 663 210 664Q203 664 196 659Q159 627 209 534Q255 446 331 392Q336 389 351 381Q426 340 447 288Q451 280 457 277Q463 275 471 278Q488 286 481 302Q455 366 368 413Q356 420 352 423Q284 471 241 551Q205 618 220 631Z" fill="#000000" />
<path d="M382 764Q373 780 357 772Q349 767 347 761Q345 755 349 747Q353 739 411 646Q427 620 430 615Q446 588 482 590Q520 536 528 442Q529 424 547 425Q566 427 564 445Q556 551 510 614L509 615Q499 629 481 627Q466 625 461 634Q458 639 442 666Q385 757 382 764Z" fill="#000000" />
</g></svg>