<svg xmlns="http://www.w3.org/2000/svg" viewBox="0 0 2048 2048">
<g transform="matrix(1 0 0 -1 0 2048)">
<path d="M953 271 963 178 776 422 686 414 638 497 770 596 884 513 930 435Q934 428 940.0 416.0Q946 404 948 396Q949 392 949.5 372.5Q950 353 951.0 329.5Q952 306 952.5 288.5Q953 271 953 271Z" fill="#3f3f3f" />
<path d="M917 330 770 440H678L605 587L532 642L458 715L330 367L293 147L220 18H1100L979 163L917 330Z" fill="#9b9b9a" />
<path d="M1087 24Q1099 10 1113 23Q1126 36 1113 49L995 173L934 336Q927 353 910 347Q893 340 899 323L962 156Q963 153 966 150Z" fill="#000000" />
<path d="M662 432Q670 415 687 424Q703 432 695 448L621 595Q619 599 616 601L544 656L471 728Q458 741 445 728Q443 725 441 721L313 373Q312 371 312 370L276 154L205 47Q200 39 201 33Q202 26 210 21Q225 11 235 26L309 136Q311 140 311 144L348 362L466 682L519 629Q520 628 521 627L591 575Z" fill="#000000" />
<path d="M587 607Q585 625 566 623Q548 621 550 603L568 438Q570 422 587 422H764L897 322L880 223Q880 220 880 216L897 134L812 50Q799 37 812 24Q825 11 838 24L930 115Q937 122 935 132L917 220L935 327Q937 338 928 345L781 455Q776 458 770 458H603Z" fill="#000000" />
<path d="M704 546Q689 535 700 521Q706 513 712 512Q719 512 726 517L787 562L847 502L901 412Q910 397 926 406Q942 415 932 431L877 523Q876 525 875 526L801 600Q790 611 777 601Z" fill="#000000" />
</g></svg>