<svg xmlns="http://www.w3.org/2000/svg" viewBox="0 0 2048 2048">
<g transform="matrix(1 0 0 -1 0 2048)">
<path d="M579 324Q582 319 582 315V271Q582 264 578 258L525 189Q520 183 512 182Q503 180 493 180Q451 179 415 203Q386 225 383 261Q382 262 382 264V308Q382 316 388.0 321.5Q394 327 402 328L561 335Q561 335 561.0 335.0Q561 335 561 335Q561 335 563 335Q565 334 567 334Q568 334 568.0 334.0Q568 334 568 334Q568 334 568.5 333.5Q569 333 569 333Q571 332 573 331Q574 331 575 330Q576 329 577 327Q578 326 578 325Q579 325 579.0 324.5Q579 324 579 324ZM440 300Q455 300 455 309Q455 319 440 319Q424 319 424 309Q424 300 440 300ZM502 278Q517 278 527.0 284.5Q537 291 537 299Q537 308 527.0 314.0Q517 320 502 320Q487 320 477.0 314.0Q467 308 467 299Q467 291 477.0 284.5Q487 278 502 278Z" fill="#000000" />
<path d="M567 -18Q575 -18 581.0 -12.0Q587 -6 587 2V80L1197 435Q1208 441 1207 453Q1207 466 1195 471L822 632Q813 636 804 631L172 275Q162 269 162 258V177Q162 164 174 159L558 -16Q562 -18 567 -18Z" fill="#a57939" />
<path d="M1188 454 566 98V1L1188 366Z" fill="#6a462f" />
<path d="M509 181Q519 181 525 189L578 258Q582 264 582 271V315Q582 329 568 334Q554 338 545 327L493 258Q489 252 489 246V201Q489 193 495 187Q501 181 509 181Z" fill="#f1b31c" />
<path d="M513 235 579 324Q573 335 561 335L402 328Q394 327 388.0 321.5Q382 316 382 308V264Q382 262 383 261Q386 225 415 203Q451 179 493 180Q503 180 512 182Z" fill="#fcea2b" />
<path d="M536.7150268554688 299.1734619140625Q536.7160034179688 307.7872314453125 526.4878845214844 314.24871826171875Q516.259765625 320.710205078125 501.1856689453125 320.7119140625Q487.18829345703125 320.7135009765625 476.9587097167969 314.25433349609375Q466.7291259765625 307.795166015625 466.7281494140625 299.181396484375Q466.7271728515625 290.567626953125 476.9552917480469 284.10614013671875Q487.18341064453125 277.6446533203125 501.1807861328125 277.64306640625Q516.2548828125 277.641357421875 526.4844665527344 284.10052490234375Q536.7140502929688 290.5596923828125 536.7150268554688 299.1734619140625Z" fill="#f1b31c" />
<path d="M455 309Q456 315 448 318Q440 320 432 318Q424 315 424 309Q424 304 432 301Q440 298 448 301Q456 304 455 309Z" fill="#f1b31c" />
<path d="M546 444Q554 448 556 454Q558 461 553 469Q549 477 543 478Q536 480 528 475L172 274Q162 268 162 258V177Q162 165 173 160L559 -16Q567 -20 575 -15L1198 350Q1207 355 1207 366V454Q1207 472 1189 472Q1184 472 1180 469L1059 401Q1043 392 1052 376Q1062 360 1077 369L1171 422V376L565 21L199 189V247Z" fill="#000000" />
<path d="M572 507Q558 495 570 481Q576 474 583 473Q589 473 596 479L783 636Q783 636 783 637Q808 659 838 644Q839 643 839 643L1083 538Q1096 530 1097 514Q1098 498 1085 489Q1085 489 1085 488L867 311Q853 299 864 285Q876 271 890 283L1108 460Q1136 481 1133 517Q1131 552 1100 570Q1099 571 1098 571L854 677Q803 703 759 664Z" fill="#000000" />
<path d="M601 329Q587 317 599 303Q611 289 625 300L919 546Q930 555 924 568Q920 577 919 586Q919 596 930 597Q948 600 945 618Q944 627 938 631Q933 635 924 634Q881 627 883 585Q883 575 886 566Z" fill="#000000" />
<path d="M721 165Q737 175 728 190Q719 206 703 197L564 118L447 167Q430 174 423 157Q419 149 422 143Q424 137 433 133L559 81Q567 77 575 82Z" fill="#000000" />
<path d="M577 373Q570 356 586 349Q603 342 610 359Q615 369 624 377Q637 388 654 377Q669 367 680 382Q690 397 675 407Q634 435 600 404Q585 391 577 373Z" fill="#000000" />
<path d="M517 400Q510 383 526 376Q535 372 541 375Q547 377 550 386Q555 396 564 404Q577 416 594 404Q609 394 620 409Q630 424 615 434Q574 462 540 432Q525 418 517 400Z" fill="#000000" />
<path d="M746 296Q739 279 755 272Q772 265 779 282Q784 292 793 300Q806 311 823 300Q838 290 849 305Q859 320 844 330Q803 358 769 327Q754 314 746 296Z" fill="#000000" />
<path d="M686 323Q678 306 695 299Q712 292 719 309Q724 319 733 327Q746 338 763 327Q771 322 777 323Q783 324 788 332Q799 347 784 357Q743 385 708 355Q693 341 686 323Z" fill="#000000" />
</g></svg>