<svg xmlns="http://www.w3.org/2000/svg" viewBox="0 0 2048 2048">
<g transform="matrix(1 0 0 -1 0 2048)">
<path d="M399 732Q403 729 410.5 722.0Q418 715 422 711Q435 698 453.0 698.5Q471 699 487 706Q487 706 506.0 713.5Q525 721 550.5 730.0Q576 739 597.0 746.0Q618 753 622 753H756Q763 752 772.5 748.0Q782 744 788 742L847 723Q858 719 870.0 709.5Q882 700 895.0 694.5Q908 689 923.5 696.0Q939 703 956 731L1027 799Q1032 803 1038 807L1062 825Q1081 838 1100.0 845.0Q1119 852 1139 839L1164 823Q1187 808 1195 782L1213 729Q1220 710 1216 690L1200 597Q1197 580 1187 566L1114 459Q1107 448 1098 441L1084 430Q1073 421 1066.5 420.0Q1060 419 1057.5 415.5Q1055 412 1057 398L1067 266Q1069 252 1066 238L1058 166Q1056 157 1048.0 139.5Q1040 122 1030.0 105.5Q1020 89 1013 84L956 38Q948 32 938 28L759 -50Q757 -51 755 -52L708 -76Q693 -83 677 -84L662 -85Q652 -85 642.5 -78.5Q633 -72 624 -68L567 -39L381 44Q362 53 351 66L315 106Q309 114 303.5 127.0Q298 140 296 150L281 243Q279 250 279.0 262.5Q279 275 281 282L291 359Q307 383 306.5 398.0Q306 413 296.5 423.0Q287 433 273.5 440.0Q260 447 250 453L239 460Q225 469 216 483L162 560Q151 575 149 593L136 688Q133 704 133.5 720.0Q134 736 144 749L184 808Q201 831 226 837H228Q246 842 264.5 843.5Q283 845 298 833Z" fill="#d0cfce" />
<path d="M1103 803Q1121 817 1144.0 815.5Q1167 814 1183 797L1197 782Q1204 775 1208 766L1219 742Q1226 727 1224 710L1212 604Q1211 594 1206 584L1164 503Q1159 493 1151 486L1094 434Q1073 416 1045.5 419.5Q1018 423 1004 447Q1004 447 1003 448Q995 462 995 478V623Q995 639 1004 654L1083 782Q1088 791 1096 797Z" fill="#ffa7c0" />
<path d="M249 801Q231 816 208.5 814.0Q186 812 170 796L155 781Q149 774 145 765L141 740Q134 725 136 708L149 602Q151 589 155 580L195 507Q200 497 208 490L262 437Q283 419 309.0 420.5Q335 422 349 446Q349 446 349 447Q357 460 357 476V621Q357 638 349 652L270 780Q265 789 256 796Z" fill="#ffa7c0" />
<path d="M546.3130493164062 337.00860595703125Q546.3130493164062 348.29638671875 542.0265502929688 358.2982177734375Q537.7400512695312 368.300048828125 530.167236328125 375.87286376953125Q522.5944213867188 383.4456787109375 512.6640319824219 387.732177734375Q502.733642578125 392.0186767578125 491.302978515625 392.0186767578125Q479.872314453125 392.0186767578125 469.9419250488281 387.732177734375Q460.01153564453125 383.4456787109375 452.438720703125 375.87286376953125Q444.86590576171875 368.300048828125 440.57940673828125 358.2982177734375Q436.29290771484375 348.29638671875 436.29290771484375 337.00860595703125Q436.29290771484375 325.57794189453125 440.57940673828125 315.57611083984375Q444.86590576171875 305.57427978515625 452.438720703125 298.00146484375Q460.01153564453125 290.42864990234375 469.9419250488281 286.2135925292969Q479.872314453125 281.99853515625 491.302978515625 281.99853515625Q502.733642578125 281.99853515625 512.6640319824219 286.2135925292969Q522.5944213867188 290.42864990234375 530.167236328125 298.00146484375Q537.7400512695312 305.57427978515625 542.0265502929688 315.57611083984375Q546.3130493164062 325.57794189453125 546.3130493164062 337.00860595703125Z" fill="#000000" />
<path d="M697 46Q697 65 678 65Q660 65 660 46V-9Q660 -27 678 -27Q697 -27 697 -9Z" fill="#000000" />
<path d="M781 -69 969 12Q970 12 970 13Q1101 80 1102 256Q1102 332 1082 398Q1158 434 1201 511Q1201 511 1202 511Q1282 667 1236 769Q1205 837 1125 869Q1082 887 1049 854L906 722Q678 850 451 722L308 854Q275 887 232 869Q152 837 121 769Q75 667 155 511Q155 511 155 511Q199 434 274 398Q254 332 255 256Q255 80 386 13Q387 12 387 12L575 -69Q618 -107 678 -107Q739 -107 781 -69ZM764 -37Q761 -38 759 -40Q726 -70 678 -70Q630 -70 598 -40Q596 -38 593 -37L403 46Q292 103 291 256Q291 335 314 402Q320 418 304 425Q229 455 187 528Q116 668 154 753Q179 808 246 835Q266 844 282 828Q283 828 283 827L436 686Q446 677 457 684Q678 814 899 684Q911 677 921 686L1074 827Q1074 828 1074 828Q1090 844 1111 835Q1177 808 1202 753Q1241 668 1169 528Q1128 455 1053 425Q1037 418 1043 402Q1066 335 1065 256Q1065 103 954 46Z" fill="#000000" />
<path d="M255 792Q238 799 230 783Q226 775 228 769Q230 762 239 758Q271 743 299 700Q356 614 325 476Q321 458 338 454Q347 452 353 456Q358 459 360 468Q395 621 329 721Q296 772 255 792Z" fill="#000000" />
<path d="M920.3130493164062 337.00860595703125Q920.3130493164062 348.29638671875 916.0265502929688 358.2982177734375Q911.7400512695312 368.300048828125 904.167236328125 375.87286376953125Q896.5944213867188 383.4456787109375 886.6640319824219 387.732177734375Q876.733642578125 392.0186767578125 865.302978515625 392.0186767578125Q853.872314453125 392.0186767578125 843.9419250488281 387.732177734375Q834.0115356445312 383.4456787109375 826.438720703125 375.87286376953125Q818.8659057617188 368.300048828125 814.5794067382812 358.2982177734375Q810.2929077148438 348.29638671875 810.2929077148438 337.00860595703125Q810.2929077148438 325.57794189453125 814.5794067382812 315.57611083984375Q818.8659057617188 305.57427978515625 826.438720703125 298.00146484375Q834.0115356445312 290.42864990234375 843.9419250488281 286.2135925292969Q853.872314453125 281.99853515625 865.302978515625 281.99853515625Q876.733642578125 281.99853515625 886.6640319824219 286.2135925292969Q896.5944213867188 290.42864990234375 904.167236328125 298.00146484375Q911.7400512695312 305.57427978515625 916.0265502929688 315.57611083984375Q920.3130493164062 325.57794189453125 920.3130493164062 337.00860595703125Z" fill="#000000" />
<path d="M1118 758Q1134 766 1127 783Q1123 791 1116 793Q1110 795 1102 792Q1060 772 1027 721Q962 621 996 468Q998 459 1004 456Q1009 452 1018 454Q1036 458 1032 476Q1001 614 1058 700Q1086 743 1118 758Z" fill="#000000" />
<path d="M632 123Q607 119 599.5 100.0Q592 81 609 66L646 34Q660 22 681.0 22.5Q702 23 715 36L750 71Q765 86 756.5 104.5Q748 123 723 127Q698 130 674.5 128.5Q651 127 632 123Z" fill="#000000" />
</g></svg>