<svg xmlns="http://www.w3.org/2000/svg" viewBox="0 0 2048 2048">
<g transform="matrix(1 0 0 -1 0 2048)">
<path d="M463.31304931640625 566.0086059570312Q463.31304931640625 577.29638671875 459.02655029296875 587.2982177734375Q454.74005126953125 597.300048828125 447.167236328125 604.8728637695312Q439.59442138671875 612.4456787109375 429.6640319824219 616.732177734375Q419.733642578125 621.0186767578125 408.302978515625 621.0186767578125Q396.872314453125 621.0186767578125 386.9419250488281 616.732177734375Q377.01153564453125 612.4456787109375 369.438720703125 604.8728637695312Q361.86590576171875 597.300048828125 357.57940673828125 587.2982177734375Q353.29290771484375 577.29638671875 353.29290771484375 566.0086059570312Q353.29290771484375 554.5779418945312 357.57940673828125 544.5761108398438Q361.86590576171875 534.5742797851562 369.438720703125 527.00146484375Q377.01153564453125 519.4286499023438 386.9419250488281 515.2135925292969Q396.872314453125 510.99853515625 408.302978515625 510.99853515625Q419.733642578125 510.99853515625 429.6640319824219 515.2135925292969Q439.59442138671875 519.4286499023438 447.167236328125 527.00146484375Q454.74005126953125 534.5742797851562 459.02655029296875 544.5761108398438Q463.31304931640625 554.5779418945312 463.31304931640625 566.0086059570312Z" fill="#d0cfce" />
<path d="M901.3130493164062 566.0086059570312Q901.3130493164062 577.29638671875 897.0265502929688 587.2982177734375Q892.7400512695312 597.300048828125 885.167236328125 604.8728637695312Q877.5944213867188 612.4456787109375 867.6640319824219 616.732177734375Q857.733642578125 621.0186767578125 846.302978515625 621.0186767578125Q834.872314453125 621.0186767578125 824.9419250488281 616.732177734375Q815.0115356445312 612.4456787109375 807.438720703125 604.8728637695312Q799.8659057617188 597.300048828125 795.5794067382812 587.2982177734375Q791.2929077148438 577.29638671875 791.2929077148438 566.0086059570312Q791.2929077148438 554.5779418945312 795.5794067382812 544.5761108398438Q799.8659057617188 534.5742797851562 807.438720703125 527.00146484375Q815.0115356445312 519.4286499023438 824.9419250488281 515.2135925292969Q834.872314453125 510.99853515625 846.302978515625 510.99853515625Q857.733642578125 510.99853515625 867.6640319824219 515.2135925292969Q877.5944213867188 519.4286499023438 885.167236328125 527.00146484375Q892.7400512695312 534.5742797851562 897.0265502929688 544.5761108398438Q901.3130493164062 554.5779418945312 901.3130493164062 566.0086059570312Z" fill="#d0cfce" />
<path d="M846 750Q897 750 938.5 725.0Q980 700 1004.5 658.5Q1029 617 1029 566Q1029 516 1004.5 474.5Q980 433 938.5 408.0Q897 383 846 383Q796 383 754.0 408.0Q712 433 687.5 474.5Q663 516 663 566Q663 617 687.5 658.5Q712 700 754.0 725.0Q796 750 846 750ZM846 511Q869 511 885.0 527.5Q901 544 901 566Q901 589 885.0 605.0Q869 621 846 621Q823 621 807.0 605.0Q791 589 791 566Q791 544 807.0 527.5Q823 511 846 511Z" fill="#3f3f3f" />
<path d="M408 750Q459 750 500.5 725.0Q542 700 566.5 658.5Q591 617 591 566Q591 516 566.5 474.5Q542 433 500.5 408.0Q459 383 408 383Q358 383 316.0 408.0Q274 433 249.5 474.5Q225 516 225 566Q225 617 249.5 658.5Q274 700 316.0 725.0Q358 750 408 750ZM408 511Q431 511 447.0 527.5Q463 544 463 566Q463 589 447.0 605.0Q431 621 408 621Q385 621 369.0 605.0Q353 589 353 566Q353 544 369.0 527.5Q385 511 408 511Z" fill="#3f3f3f" />
<path d="M375 234V311H882V2H426Q422 2 414.0 8.5Q406 15 399.0 23.0Q392 31 392 35L393 65Q393 97 385 128L375 169L458 156Q458 156 461.5 143.5Q465 131 473.5 114.0Q482 97 494.5 84.5Q507 72 524 72Q526 72 540.5 76.0Q555 80 573.0 88.0Q591 96 603.5 109.5Q616 123 613 142Q610 168 595.5 186.5Q581 205 568.0 215.5Q555 226 555 226Q555 226 543.5 225.0Q532 224 519.0 222.0Q506 220 503 219Z" fill="#3f3f3f" />
<path d="M948 260 951 261 948 260Z" fill="#9b9b9a" />
<path d="M1122 37Q1122 37 1104.5 39.0Q1087 41 1061.0 43.5Q1035 46 1009.5 48.5Q984 51 966.5 53.0Q949 55 949 55L952 54L885 73V242L948 260Q948 260 948 260Q948 259 965.0 262.0Q982 265 1007.0 269.0Q1032 273 1057.5 277.0Q1083 281 1100.0 284.0Q1117 287 1117 287Z" fill="#9b9b9a" />
<path d="M444 156Q444 156 420.5 160.5Q397 165 361.5 171.0Q326 177 291.0 183.0Q256 189 232.0 193.5Q208 198 207 197L120 184L145 332L225 267Q225 267 246.0 263.5Q267 260 299.5 254.5Q332 249 368.5 242.5Q405 236 437.5 231.0Q470 226 491.0 222.5Q512 219 512 219Q512 219 528.0 216.0Q544 213 561.0 209.5Q578 206 579 205Q580 205 588.5 200.0Q597 195 606.0 187.0Q615 179 617 170Q621 157 617.0 143.5Q613 130 607.5 121.0Q602 112 602 111Q602 110 592.0 100.5Q582 91 571.5 81.5Q561 72 559 72Q557 72 541.0 76.5Q525 81 509.5 85.5Q494 90 493 90Q493 91 485.5 101.0Q478 111 468.5 124.0Q459 137 452.0 146.5Q445 156 444 156Z" fill="#d0cfce" />
<path d="M392 329Q374 329 374 311Q374 293 392 293H863V20H426Q411 20 411 35V92Q411 111 392 111Q374 111 374 92V35Q374 -16 426 -16H882Q900 -16 900 2V311Q900 329 882 329Z" fill="#000000" />
<path d="M127 326 106 187Q105 178 108 172Q112 167 121 166Q124 165 127 166L216 180L447 137Q447 136 448 135Q453 96 484 73Q514 49 553 55Q591 60 615 91Q638 121 633 160Q628 198 597 222Q566 245 528 240Q517 239 506 235L236 284L155 338Q148 343 141 342Q135 341 130 333Q128 330 127 326ZM159 292 218 252Q221 250 225 249L505 198Q511 196 516 199Q524 203 533 204Q556 207 575 193Q594 178 597 155Q604 99 548 91Q524 88 506 102Q487 116 484 140Q483 146 483 151Q485 168 469 171L219 216Q216 217 213 216L146 206Z" fill="#000000" />
<path d="M1048 566Q1048 650 989 709Q930 768 846 768Q763 768 704 709Q644 650 644 566Q644 483 704 424Q763 365 846 365Q930 365 989 424Q1048 483 1048 566ZM1011 566Q1011 498 963 450Q914 401 846 401Q778 401 729 450Q681 498 681 566Q681 635 729 683Q778 731 846 731Q914 731 963 683Q1011 635 1011 566Z" fill="#000000" />
<path d="M919 566Q919 597 898 618Q877 640 846 640Q816 640 794 618Q773 597 773 566Q773 493 846 493Q919 493 919 566ZM883 566Q883 530 846 530Q809 530 809 566Q809 603 846 603Q883 603 883 566Z" fill="#000000" />
<path d="M610 566Q610 650 551 709Q492 768 408 768Q324 768 265 709Q206 650 206 566Q206 483 265 424Q325 365 408 365Q492 365 551 424Q610 483 610 566ZM573 566Q573 498 525 450Q476 401 408 401Q340 401 291 450Q243 498 243 566Q243 635 291 683Q340 731 408 731Q476 731 525 683Q573 635 573 566Z" fill="#000000" />
<path d="M481 566Q481 597 460 618Q438 640 408 640Q378 640 356 618Q335 597 335 566Q335 493 408 493Q438 493 460 514Q481 536 481 566ZM445 566Q445 530 408 530Q371 530 371 566Q371 603 408 603Q445 603 445 566Z" fill="#000000" />
<path d="M959 90Q941 94 936 76Q932 59 950 54L1113 16Q1131 11 1135 29Q1136 31 1136 33V287Q1136 305 1117 305Q1115 305 1113 304L950 260Q932 255 937 238Q941 220 959 225L1099 263V57Z" fill="#000000" />
</g></svg>