<svg xmlns="http://www.w3.org/2000/svg" viewBox="0 0 2048 2048">
<g transform="matrix(1 0 0 -1 0 2048)">
<path d="M483 627 479 705 945 809 946 723Z" fill="#3f3f3f" />
<path d="M486.97454833984375 99.66375732421875Q486.97454833984375 121.43408203125 478.70733642578125 140.7242431640625Q470.44012451171875 160.014404296875 455.834716796875 174.61981201171875Q441.22930908203125 189.2252197265625 422.0769348144531 197.492431640625Q402.924560546875 205.7596435546875 380.878662109375 205.7596435546875Q358.832763671875 205.7596435546875 339.6803894042969 197.492431640625Q320.52801513671875 189.2252197265625 305.922607421875 174.61981201171875Q291.31719970703125 160.014404296875 283.04998779296875 140.7242431640625Q274.78277587890625 121.43408203125 274.78277587890625 99.66375732421875Q274.78277587890625 77.61785888671875 283.04998779296875 58.32769775390625Q291.31719970703125 39.03753662109375 305.922607421875 24.43212890625Q320.52801513671875 9.82672119140625 339.6803894042969 1.697296142578125Q358.832763671875 -6.43212890625 380.878662109375 -6.43212890625Q402.924560546875 -6.43212890625 422.0769348144531 1.697296142578125Q441.22930908203125 9.82672119140625 455.834716796875 24.43212890625Q470.44012451171875 39.03753662109375 478.70733642578125 58.32769775390625Q486.97454833984375 77.61785888671875 486.97454833984375 99.66375732421875Z" fill="#3f3f3f" />
<path d="M952.9745483398438 201.66375732421875Q952.9745483398438 223.43408203125 944.7073364257812 242.7242431640625Q936.4401245117188 262.014404296875 921.834716796875 276.61981201171875Q907.2293090820312 291.2252197265625 888.0769348144531 299.492431640625Q868.924560546875 307.7596435546875 846.878662109375 307.7596435546875Q824.832763671875 307.7596435546875 805.6803894042969 299.492431640625Q786.5280151367188 291.2252197265625 771.922607421875 276.61981201171875Q757.3171997070312 262.014404296875 749.0499877929688 242.7242431640625Q740.7827758789062 223.43408203125 740.7827758789062 201.66375732421875Q740.7827758789062 179.61785888671875 749.0499877929688 160.32769775390625Q757.3171997070312 141.03753662109375 771.922607421875 126.43212890625Q786.5280151367188 111.82672119140625 805.6803894042969 103.69729614257812Q824.832763671875 95.56787109375 846.878662109375 95.56787109375Q868.924560546875 95.56787109375 888.0769348144531 103.69729614257812Q907.2293090820312 111.82672119140625 921.834716796875 126.43212890625Q936.4401245117188 141.03753662109375 944.7073364257812 160.32769775390625Q952.9745483398438 179.61785888671875 952.9745483398438 201.66375732421875Z" fill="#3f3f3f" />
<path d="M950 705Q965 709 965 723L963 809Q963 811 963 813Q961 822 955 825Q950 829 941 827L475 723Q460 720 460 705L462 619Q462 617 462 615Q466 597 484 601ZM928 738 498 642 497 690 927 786Z" fill="#000000" />
<path d="M505 99Q505 151 469 187Q432 224 381 224Q329 224 293 187Q256 151 256 99Q256 48 293 11Q329 -25 381 -25Q432 -25 469 11Q505 48 505 99ZM468 99Q468 63 443 37Q417 11 381 11Q344 11 318 37Q293 63 293 99Q293 136 318 161Q344 187 381 187Q417 187 443 161Q468 136 468 99Z" fill="#000000" />
<path d="M497 705Q497 724 478 723Q460 723 460 705L468 99Q468 90 473 85Q478 81 487 81Q505 81 505 99Z" fill="#000000" />
<path d="M972 201Q972 253 936 289Q899 326 848 326Q796 326 760 289Q723 253 723 201Q723 150 760 113Q796 77 848 77Q899 77 936 113Q972 150 972 201ZM935 201Q935 165 910 139Q884 113 848 113Q811 113 785 139Q760 165 760 201Q760 238 785 263Q811 289 848 289Q884 289 910 263Q935 238 935 201Z" fill="#000000" />
<path d="M964 808Q963 826 945 826Q936 826 931 821Q927 816 927 807L935 201Q935 183 953 183Q972 183 972 202Z" fill="#000000" />
</g></svg>