<svg xmlns="http://www.w3.org/2000/svg" viewBox="0 0 2048 2048">
<g transform="matrix(1 0 0 -1 0 2048)">
<path d="M1197.3211669921875 385.45623779296875Q1197.3211669921875 495.15673828125 1155.7106323242188 591.6175231933594Q1114.10009765625 688.0783081054688 1040.9664306640625 761.2119750976562Q967.832763671875 834.3456420898438 871.3719787597656 875.9561767578125Q774.9111938476562 917.5667114257812 665.210693359375 917.5667114257812Q555.5101928710938 917.5667114257812 459.0494079589844 875.9561767578125Q362.588623046875 834.3456420898438 289.4549560546875 761.2119750976562Q216.3212890625 688.0783081054688 174.71075439453125 591.6175231933594Q133.1002197265625 495.15673828125 133.1002197265625 385.45623779296875Q133.1002197265625 275.7557373046875 174.71075439453125 179.29495239257812Q216.3212890625 82.83416748046875 289.4549560546875 9.70050048828125Q362.588623046875 -63.43316650390625 459.0494079589844 -105.043701171875Q555.5101928710938 -146.65423583984375 665.210693359375 -146.65423583984375Q774.9111938476562 -146.65423583984375 871.3719787597656 -105.043701171875Q967.832763671875 -63.43316650390625 1040.9664306640625 9.70050048828125Q1114.10009765625 82.83416748046875 1155.7106323242188 179.29495239257812Q1197.3211669921875 275.7557373046875 1197.3211669921875 385.45623779296875Z" fill="#1e50a0" />
<path d="M956 835Q1049 776 1109.5 687.5Q1170 599 1193.0 494.0Q1216 389 1195 281Q1174 173 1114.5 84.0Q1055 -5 966.0 -64.5Q877 -124 769 -145Q661 -166 556.0 -143.0Q451 -120 362.5 -59.5Q274 1 215 94Q294 43 383.0 22.5Q472 2 562.0 12.0Q652 22 734.5 60.5Q817 99 884 166Q951 233 990.0 315.5Q1029 398 1038.5 488.0Q1048 578 1028.0 667.0Q1008 756 956 835Z" fill="#1e50a0" />
<path d="M1004.275634765625 385.6636962890625Q1004.275634765625 455.6396484375 977.7330322265625 517.1702270507812Q951.1904296875 578.7008056640625 904.539794921875 625.3514404296875Q857.88916015625 672.0020751953125 796.3585815429688 698.544677734375Q734.8280029296875 725.0872802734375 664.85205078125 725.0872802734375Q594.8760986328125 725.0872802734375 533.3455200195312 698.544677734375Q471.81494140625 672.0020751953125 425.164306640625 625.3514404296875Q378.513671875 578.7008056640625 351.9710693359375 517.1702270507812Q325.428466796875 455.6396484375 325.428466796875 385.6636962890625Q325.428466796875 315.687744140625 351.9710693359375 254.15716552734375Q378.513671875 192.6265869140625 425.164306640625 145.9759521484375Q471.81494140625 99.3253173828125 533.3455200195312 72.78271484375Q594.8760986328125 46.2401123046875 664.85205078125 46.2401123046875Q734.8280029296875 46.2401123046875 796.3585815429688 72.78271484375Q857.88916015625 99.3253173828125 904.539794921875 145.9759521484375Q951.1904296875 192.6265869140625 977.7330322265625 254.15716552734375Q1004.275634765625 315.687744140625 1004.275634765625 385.6636962890625Z" fill="#ffffff" />
<path d="M903.53076171875 385.596435546875Q903.53076171875 434.767578125 884.879638671875 478.0042724609375Q866.228515625 521.240966796875 833.44775390625 554.021728515625Q800.6669921875 586.802490234375 757.4302978515625 605.45361328125Q714.193603515625 624.104736328125 665.0224609375 624.104736328125Q615.851318359375 624.104736328125 572.6146240234375 605.45361328125Q529.3779296875 586.802490234375 496.59716796875 554.021728515625Q463.81640625 521.240966796875 445.165283203125 478.0042724609375Q426.51416015625 434.767578125 426.51416015625 385.596435546875Q426.51416015625 336.42529296875 445.165283203125 293.1885986328125Q463.81640625 249.951904296875 496.59716796875 217.171142578125Q529.3779296875 184.390380859375 572.6146240234375 165.7392578125Q615.851318359375 147.088134765625 665.0224609375 147.088134765625Q714.193603515625 147.088134765625 757.4302978515625 165.7392578125Q800.6669921875 184.390380859375 833.44775390625 217.171142578125Q866.228515625 249.951904296875 884.879638671875 293.1885986328125Q903.53076171875 336.42529296875 903.53076171875 385.596435546875Z" fill="#92d3f5" />
<path d="M790 604Q854 563 884.5 492.5Q915 422 900 347Q886 272 832.0 218.0Q778 164 703 150Q628 136 558.0 166.0Q488 196 446 260Q496 229 552.0 222.5Q608 216 661.5 234.5Q715 253 756 294Q798 335 816.0 388.5Q834 442 827.5 498.5Q821 555 790 604Z" fill="#61b2e4" />
<path d="M1215 386Q1215 614 1054 775Q893 936 665 936Q437 936 276 775Q115 614 115 386Q115 158 276 -3Q437 -164 665 -164Q893 -164 1054 -3Q1215 158 1215 386ZM1178 386Q1178 173 1028 23Q878 -127 665 -127Q452 -127 302 23Q152 173 152 386Q152 599 302 749Q452 899 665 899Q878 899 1028 749Q1178 599 1178 386Z" fill="#000000" />
<path d="M1041 386Q1041 541 931 652Q821 762 665 762Q510 762 399 652Q289 541 289 386Q289 230 399 120Q510 10 665 10Q821 10 931 120Q1041 230 1041 386ZM1004 386Q1004 245 905 146Q806 47 665 47Q525 47 425 146Q326 245 326 386Q326 526 425 626Q525 725 665 725Q806 725 905 626Q1004 526 1004 386Z" fill="#000000" />
<path d="M922 386Q922 492 847 567Q772 642 665 642Q559 642 484 567Q409 492 409 386Q409 279 484 204Q559 129 665 129Q772 129 847 204Q922 279 922 386ZM885 386Q885 295 821 230Q756 166 665 166Q574 166 510 230Q445 295 445 386Q445 477 510 541Q574 606 665 606Q756 606 821 541Q885 477 885 386Z" fill="#000000" />
<path d="M775.3211669921875 385.45623779296875Q775.3211669921875 408.15673828125 766.7106323242188 428.1175231933594Q758.10009765625 448.07830810546875 742.9664306640625 463.21197509765625Q727.832763671875 478.34564208984375 707.8719787597656 486.9561767578125Q687.9111938476562 495.56671142578125 665.210693359375 495.56671142578125Q642.5101928710938 495.56671142578125 622.5494079589844 486.9561767578125Q602.588623046875 478.34564208984375 587.4549560546875 463.21197509765625Q572.3212890625 448.07830810546875 563.7107543945312 428.1175231933594Q555.1002197265625 408.15673828125 555.1002197265625 385.45623779296875Q555.1002197265625 362.7557373046875 563.7107543945312 342.7949523925781Q572.3212890625 322.83416748046875 587.4549560546875 307.70050048828125Q602.588623046875 292.56683349609375 622.5494079589844 283.956298828125Q642.5101928710938 275.34576416015625 665.210693359375 275.34576416015625Q687.9111938476562 275.34576416015625 707.8719787597656 283.956298828125Q727.832763671875 292.56683349609375 742.9664306640625 307.70050048828125Q758.10009765625 322.83416748046875 766.7106323242188 342.7949523925781Q775.3211669921875 362.7557373046875 775.3211669921875 385.45623779296875Z" fill="#000000" />
<path d="M794 386Q794 439 756 477Q718 514 665 514Q612 514 574 477Q537 439 537 386Q537 333 574 295Q612 257 665 257Q718 257 756 295Q794 333 794 386ZM757 386Q757 348 730 321Q703 294 665 294Q627 294 600 321Q574 348 574 386Q574 424 600 451Q627 477 665 477Q703 477 730 451Q757 424 757 386Z" fill="#000000" />
</g></svg>