<svg xmlns="http://www.w3.org/2000/svg" viewBox="0 0 2048 2048">
<g transform="matrix(1 0 0 -1 0 2048)">
<path d="M1082 -76Q1118 -76 1118 -40V805Q1118 841 1082 841H238Q202 841 202 805V-40Q202 -76 238 -76ZM1082 -39H238V804H1082Z" fill="#000000" />
<path d="M593 238Q601 221 617 228Q634 235 627 252L509 527Q502 544 485 537Q478 534 476 527L358 252Q350 235 367 228Q376 225 382 227Q388 229 391 238L492 473Z" fill="#000000" />
<path d="M414 329Q395 329 395 311Q395 292 414 292H571Q589 292 589 311Q589 329 571 329Z" fill="#000000" />
<path d="M855 364Q891 364 917 390Q942 415 942 451Q942 487 917 512Q891 538 855 538H750Q732 538 732 519V382Q732 364 750 364ZM855 401H769V501H855Q876 501 891 486Q906 472 906 451Q906 430 891 416Q876 401 855 401Z" fill="#000000" />
<path d="M855 227Q891 227 917 253Q942 278 942 314Q942 350 917 375Q891 401 855 401H750Q732 401 732 382V246Q732 227 750 227ZM855 264H769V364H855Q876 364 891 349Q906 335 906 314Q906 264 855 264Z" fill="#000000" />
<path d="M1082 -58Q1090 -58 1095.0 -53.0Q1100 -48 1100 -40V804Q1100 812 1095.0 817.0Q1090 822 1082 822H238Q230 822 225.0 817.0Q220 812 220 804V-40Q220 -48 225.0 -53.0Q230 -58 238 -58Z" fill="#d22f27" />
<path d="M1082 -76Q1118 -76 1118 -40V805Q1118 841 1082 841H238Q202 841 202 805V-40Q202 -76 238 -76ZM1082 -39H238V804H1082Z" fill="#ffffff" />
<path d="M593 238Q601 221 617 228Q634 235 627 252L509 527Q502 544 485 537Q478 534 476 527L358 252Q350 235 367 228Q376 225 382 227Q388 229 391 238L492 473Z" fill="#ffffff" />
<path d="M414 329Q395 329 395 311Q395 292 414 292H571Q589 292 589 311Q589 329 571 329Z" fill="#ffffff" />
<path d="M855 364Q891 364 917 390Q942 415 942 451Q942 487 917 512Q891 538 855 538H750Q732 538 732 519V382Q732 364 750 364ZM855 401H769V501H855Q906 501 906 451Q906 430 891 416Q876 401 855 401Z" fill="#ffffff" />
<path d="M855 227Q891 227 917 253Q942 278 942 314Q942 350 917 375Q891 401 855 401H750Q732 401 732 382V246Q732 227 750 227ZM855 264H769V364H855Q876 364 891 349Q906 335 906 314Q906 264 855 264Z" fill="#ffffff" />
</g></svg>