<svg xmlns="http://www.w3.org/2000/svg" viewBox="0 0 2048 2048">
<g transform="matrix(1 0 0 -1 0 2048)">
<path d="M1082 -55Q1090 -55 1095.0 -50.0Q1100 -45 1100 -37V807Q1100 815 1095.0 820.0Q1090 825 1082 825H238Q230 825 225.0 820.0Q220 815 220 807V-37Q220 -45 225.0 -50.0Q230 -55 238 -55Z" fill="#d0cfce" />
<path d="M1082 -73Q1097 -73 1108 -63Q1118 -52 1118 -37V807Q1118 843 1082 843H238Q202 843 202 807V-37Q202 -73 238 -73ZM1082 -37H238V807H1082Z" fill="#000000" />
<path d="M534 183Q534 165 552 165Q570 165 570 183V367H706Q755 367 790 402Q825 437 825 486Q825 535 790 570Q755 605 706 605H552Q534 605 534 587ZM570 404V568H706Q740 568 764 544Q788 520 788 486Q788 452 764 428Q740 404 706 404Z" fill="#000000" />
</g></svg>