<svg xmlns="http://www.w3.org/2000/svg" viewBox="0 0 2048 2048">
<g transform="matrix(1 0 0 -1 0 2048)">
<path d="M239 601V844H1173V74V67Q1173 44 1160.5 31.0Q1148 18 1125 18H1080Z" fill="#9b9b9a" />
<path d="M257 548V844H1173V74V67Q1173 44 1160.5 31.0Q1148 18 1126 18H1082Z" fill="#9b9b9a" />
<path d="M257 844H1173V74V67Q1173 44 1160.5 31.0Q1148 18 1126 18H1082Z" fill="#9b9b9a" />
<path d="M165 752V18H1082V752Z" fill="#d0cfce" />
<path d="M1082 37Q1063 37 1063 18Q1063 0 1082 0H1126Q1192 0 1192 67V844Q1192 862 1173 862H257Q238 862 238 844Q238 826 257 826H1155V67Q1155 37 1126 37Z" fill="#000000" />
<path d="M147 18Q147 0 165 0H1082Q1100 0 1100 18V752Q1100 770 1082 770H165Q147 770 147 752ZM183 733H1063V37H183Z" fill="#000000" />
<path d="M238 181Q238 163 257 163H623Q642 163 642 181V548Q642 566 623 566H257Q238 566 238 548ZM275 530H605V200H275Z" fill="#000000" />
<path d="M257 660Q238 660 238 642Q238 623 257 623H990Q1008 623 1008 642Q1008 660 990 660Z" fill="#000000" />
<path d="M725 548Q707 548 707 530Q707 511 725 511H990Q1008 511 1008 530Q1008 548 990 548Z" fill="#000000" />
<path d="M725 431Q707 431 707 413Q707 394 725 394H990Q1008 394 1008 413Q1008 431 990 431Z" fill="#000000" />
<path d="M725 315Q707 315 707 297Q707 278 725 278H990Q1008 278 1008 297Q1008 315 990 315Z" fill="#000000" />
<path d="M725 198Q707 198 707 180Q707 161 725 161H990Q1008 161 1008 180Q1008 198 990 198Z" fill="#000000" />
</g></svg>