<svg xmlns="http://www.w3.org/2000/svg" viewBox="0 0 2048 2048">
<g transform="matrix(1 0 0 -1 0 2048)">
<path d="M73.6622314453125 971.5084228515625V-201.9287109375H1246.9776611328125V971.5084228515625Z" fill="#8967aa" />
<path d="M366.0 202.0615234375V514.0283203125H182.0V202.0615234375Z" fill="#9b9b9a" />
<path d="M622.0372314453125 440.46868896484375V-202.02587890625H860.3526611328125V440.46868896484375Z" fill="#9b9b9a" />
<path d="M1227.1883544921875 -201.138671875V368.396484375H932.7928466796875V-201.138671875Z" fill="#d0cfce" />
<path d="M714 -201V203H90V-201Z" fill="#d0cfce" />
<path d="M163.5850830078125 147.97576904296875V37.97607421875H218.4239501953125V147.97576904296875Z" fill="#fcea2b" />
<path d="M273.5850830078125 147.97576904296875V37.97607421875H328.4239501953125V147.97576904296875Z" fill="#fcea2b" />
<path d="M493.5850830078125 147.97576904296875V37.97607421875H548.4239501953125V147.97576904296875Z" fill="#fcea2b" />
<path d="M603.5850830078125 147.97576904296875V37.97607421875H658.4239501953125V147.97576904296875Z" fill="#fcea2b" />
<path d="M1006.5850830078125 312.97576904296875V202.97607421875H1061.4239501953125V312.97576904296875Z" fill="#fcea2b" />
<path d="M1116.5850830078125 128.97576904296875V18.97607421875H1171.4239501953125V128.97576904296875Z" fill="#fcea2b" />
<path d="M1116.5850830078125 -54.02423095703125V-164.02392578125H1171.4239501953125V-54.02423095703125Z" fill="#fcea2b" />
<path d="M1006.5850830078125 -54.02423095703125V-164.02392578125H1061.4239501953125V-54.02423095703125Z" fill="#fcea2b" />
<path d="M603.5850830078125 -36.02423095703125V-146.02392578125H658.4239501953125V-36.02423095703125Z" fill="#fcea2b" />
<path d="M383.5850830078125 -36.02423095703125V-146.02392578125H438.4239501953125V-36.02423095703125Z" fill="#fcea2b" />
<path d="M163.5850830078125 -36.02423095703125V-146.02392578125H218.4239501953125V-36.02423095703125Z" fill="#fcea2b" />
<path d="M440.18902587890625 662.8796997070312Q440.18902587890625 670.4559326171875 437.33856201171875 677.1320190429688Q434.48809814453125 683.80810546875 429.4622802734375 688.8339233398438Q424.43646240234375 693.8597412109375 417.7603759765625 696.710205078125Q411.08428955078125 699.5606689453125 403.508056640625 699.5606689453125Q395.93182373046875 699.5606689453125 389.2557373046875 696.710205078125Q382.57965087890625 693.8597412109375 377.5538330078125 688.8339233398438Q372.52801513671875 683.80810546875 369.67755126953125 677.1320190429688Q366.82708740234375 670.4559326171875 366.82708740234375 662.8796997070312Q366.82708740234375 655.303466796875 369.67755126953125 648.6273803710938Q372.52801513671875 641.9512939453125 377.5538330078125 636.9254760742188Q382.57965087890625 631.899658203125 389.2557373046875 629.0491943359375Q395.93182373046875 626.19873046875 403.508056640625 626.19873046875Q411.08428955078125 626.19873046875 417.7603759765625 629.0491943359375Q424.43646240234375 631.899658203125 429.4622802734375 636.9254760742188Q434.48809814453125 641.9512939453125 437.33856201171875 648.6273803710938Q440.18902587890625 655.303466796875 440.18902587890625 662.8796997070312Z" fill="#fcea2b" />
<path d="M660.1890258789062 570.8796997070312Q660.1890258789062 578.4559326171875 657.3385620117188 585.1320190429688Q654.4880981445312 591.80810546875 649.4622802734375 596.8339233398438Q644.4364624023438 601.8597412109375 637.7603759765625 604.710205078125Q631.0842895507812 607.5606689453125 623.508056640625 607.5606689453125Q615.9318237304688 607.5606689453125 609.2557373046875 604.710205078125Q602.5796508789062 601.8597412109375 597.5538330078125 596.8339233398438Q592.5280151367188 591.80810546875 589.6775512695312 585.1320190429688Q586.8270874023438 578.4559326171875 586.8270874023438 570.8796997070312Q586.8270874023438 563.303466796875 589.6775512695312 556.6273803710938Q592.5280151367188 549.9512939453125 597.5538330078125 544.9254760742188Q602.5796508789062 539.899658203125 609.2557373046875 537.0491943359375Q615.9318237304688 534.19873046875 623.508056640625 534.19873046875Q631.0842895507812 534.19873046875 637.7603759765625 537.0491943359375Q644.4364624023438 539.899658203125 649.4622802734375 544.9254760742188Q654.4880981445312 549.9512939453125 657.3385620117188 556.6273803710938Q660.1890258789062 563.303466796875 660.1890258789062 570.8796997070312Z" fill="#fcea2b" />
<path d="M642.1890258789062 772.8796997070312Q642.1890258789062 780.4559326171875 639.3385620117188 787.1320190429688Q636.4880981445312 793.80810546875 631.4622802734375 798.8339233398438Q626.4364624023438 803.8597412109375 619.7603759765625 806.710205078125Q613.0842895507812 809.5606689453125 605.508056640625 809.5606689453125Q597.9318237304688 809.5606689453125 591.2557373046875 806.710205078125Q584.5796508789062 803.8597412109375 579.5538330078125 798.8339233398438Q574.5280151367188 793.80810546875 571.6775512695312 787.1320190429688Q568.8270874023438 780.4559326171875 568.8270874023438 772.8796997070312Q568.8270874023438 765.303466796875 571.6775512695312 758.6273803710938Q574.5280151367188 751.9512939453125 579.5538330078125 746.9254760742188Q584.5796508789062 741.899658203125 591.2557373046875 739.0491943359375Q597.9318237304688 736.19873046875 605.508056640625 736.19873046875Q613.0842895507812 736.19873046875 619.7603759765625 739.0491943359375Q626.4364624023438 741.899658203125 631.4622802734375 746.9254760742188Q636.4880981445312 751.9512939453125 639.3385620117188 758.6273803710938Q642.1890258789062 765.303466796875 642.1890258789062 772.8796997070312Z" fill="#fcea2b" />
<path d="M293.18902587890625 845.8796997070312Q293.18902587890625 853.4559326171875 290.33856201171875 860.1320190429688Q287.48809814453125 866.80810546875 282.4622802734375 871.8339233398438Q277.43646240234375 876.8597412109375 270.7603759765625 879.710205078125Q264.08428955078125 882.5606689453125 256.508056640625 882.5606689453125Q248.93182373046875 882.5606689453125 242.2557373046875 879.710205078125Q235.57965087890625 876.8597412109375 230.5538330078125 871.8339233398438Q225.52801513671875 866.80810546875 222.67755126953125 860.1320190429688Q219.82708740234375 853.4559326171875 219.82708740234375 845.8796997070312Q219.82708740234375 838.303466796875 222.67755126953125 831.6273803710938Q225.52801513671875 824.9512939453125 230.5538330078125 819.9254760742188Q235.57965087890625 814.899658203125 242.2557373046875 812.0491943359375Q248.93182373046875 809.19873046875 256.508056640625 809.19873046875Q264.08428955078125 809.19873046875 270.7603759765625 812.0491943359375Q277.43646240234375 814.899658203125 282.4622802734375 819.9254760742188Q287.48809814453125 824.9512939453125 290.33856201171875 831.6273803710938Q293.18902587890625 838.303466796875 293.18902587890625 845.8796997070312Z" fill="#fcea2b" />
<path d="M1027 571Q1029 574 1018.5 584.5Q1008 595 993 612Q974 633 955.0 665.0Q936 697 935 736Q937 810 989 863Q1006 883 1027 901Q979 897 942.0 873.0Q905 849 883.5 813.0Q862 777 862 736Q862 700 877.5 671.5Q893 643 917.0 623.0Q941 603 965.0 590.5Q989 578 1006.5 573.0Q1024 568 1027 571Z" fill="#fcea2b" />
<path d="M915 -182Q915 -201 934 -201Q952 -201 952 -182V349H1209V-182Q1209 -201 1227 -201Q1245 -201 1245 -182V368Q1245 386 1227 386H934Q915 386 915 368Z" fill="#000000" />
<path d="M72 -182Q72 -201 90 -201Q109 -201 109 -182V184H695V-182Q695 -201 714 -201Q732 -201 732 -182V203Q732 221 714 221H90Q72 221 72 203Z" fill="#000000" />
<path d="M622 258Q622 239 640 239Q659 239 659 258V423H842V-182Q842 -201 860 -201Q879 -201 879 -182V441Q879 459 860 459H640Q622 459 622 441Z" fill="#000000" />
<path d="M182 258Q182 239 200 239Q219 239 219 258V496H329V258Q329 239 347 239Q365 239 365 258V514Q365 533 347 533H200Q182 533 182 514Z" fill="#000000" />
<path d="M1044 184Q1062 184 1062 203Q1062 221 1044 221H1025V294Q1025 313 1007 313Q989 313 989 294V203Q989 184 1007 184Z" fill="#000000" />
<path d="M1154 1Q1172 1 1172 20Q1172 38 1154 38H1135V111Q1135 130 1117 130Q1099 130 1099 111V20Q1099 1 1117 1Z" fill="#000000" />
<path d="M531 19Q549 19 549 38Q549 56 531 56H512V129Q512 148 494 148Q476 148 476 129V38Q476 19 494 19Z" fill="#000000" />
<path d="M641 19Q659 19 659 38Q659 56 641 56H622V129Q622 148 604 148Q586 148 586 129V38Q586 19 604 19Z" fill="#000000" />
<path d="M641 -164Q659 -164 659 -145Q659 -127 641 -127H622V-54Q622 -35 604 -35Q586 -35 586 -54V-145Q586 -164 604 -164Z" fill="#000000" />
<path d="M311 19Q329 19 329 38Q329 56 311 56H292V129Q292 148 274 148Q256 148 256 129V38Q256 19 274 19Z" fill="#000000" />
<path d="M201 19Q219 19 219 38Q219 56 201 56H182V129Q182 148 164 148Q146 148 146 129V38Q146 19 164 19Z" fill="#000000" />
<path d="M201 -164Q219 -164 219 -145Q219 -127 201 -127H182V-54Q182 -35 164 -35Q146 -35 146 -54V-145Q146 -164 164 -164Z" fill="#000000" />
<path d="M421 -164Q439 -164 439 -145Q439 -127 421 -127H402V-54Q402 -35 384 -35Q366 -35 366 -54V-145Q366 -164 384 -164Z" fill="#000000" />
<path d="M1044 -183Q1062 -183 1062 -164Q1062 -146 1044 -146H1025V-73Q1025 -54 1007 -54Q989 -54 989 -73V-164Q989 -183 1007 -183Z" fill="#000000" />
<path d="M1154 -183Q1172 -183 1172 -164Q1172 -146 1154 -146H1135V-73Q1135 -54 1117 -54Q1099 -54 1099 -73V-164Q1099 -183 1117 -183Z" fill="#000000" />
<path d="M292 459Q292 478 274 478Q255 478 255 459V258Q255 239 274 239Q292 239 292 258Z" fill="#000000" />
<path d="M732.0 386.0Q732.0 405.0 713.0 405.0Q695.0 405.0 695.0 386.0V258.0Q695.0 240.0 713.0 240.0Q732.0 240.0 732.0 258.0Z" fill="#000000" />
<path d="M805.0 386.0Q805.0 404.0 787.0 404.0Q768.0 404.0 768.0 386.0V-182.0Q768.0 -201.0 787.0 -201.0Q805.0 -201.0 805.0 -182.0Z" fill="#000000" />
<path d="M256.0 791.0Q275.0 791.0 275.0 809.0Q275.0 828.0 256.0 828.0Q238.0 828.0 238.0 846.0Q238.0 864.0 256.0 864.0Q275.0 864.0 275.0 883.0Q275.0 901.0 256.0 901.0Q201.0 901.0 201.0 846.0Q201.0 791.0 256.0 791.0Z" fill="#000000" />
<path d="M403.0 608.0Q422.0 608.0 422.0 626.0Q422.0 645.0 403.0 645.0Q385.0 645.0 385.0 663.0Q385.0 681.0 403.0 681.0Q422.0 681.0 422.0 700.0Q422.0 718.0 403.0 718.0Q348.0 718.0 348.0 663.0Q348.0 608.0 403.0 608.0Z" fill="#000000" />
<path d="M605.0 718.0Q624.0 718.0 624.0 736.0Q624.0 755.0 605.0 755.0Q587.0 755.0 587.0 773.0Q587.0 791.0 605.0 791.0Q624.0 791.0 624.0 810.0Q624.0 828.0 605.0 828.0Q550.0 828.0 550.0 773.0Q550.0 718.0 605.0 718.0Z" fill="#000000" />
<path d="M623.0 516.0Q642.0 516.0 642.0 534.0Q642.0 553.0 623.0 553.0Q605.0 553.0 605.0 571.0Q605.0 589.0 623.0 589.0Q642.0 589.0 642.0 608.0Q642.0 626.0 623.0 626.0Q568.0 626.0 568.0 571.0Q568.0 516.0 623.0 516.0Z" fill="#000000" />
<path d="M1040 559Q1054 574 1024 605Q1013 617 1007 624Q955 682 953 736Q956 802 1002 850Q1002 851 1002 851Q1019 870 1039 887Q1046 894 1045 903Q1043 921 1025 919Q948 913 895 859Q843 805 843 736Q843 649 930 590Q1015 532 1040 559ZM973 606Q962 612 951 620Q880 668 880 736Q880 790 922 833Q942 854 967 866Q919 811 917 737Q917 736 917 736Q918 671 973 606Z" fill="#000000" />
</g></svg>