<svg xmlns="http://www.w3.org/2000/svg" viewBox="0 0 2048 2048">
<g transform="matrix(1 0 0 -1 0 2048)">
<path d="M1137.0615234375 385.19287109375Q1137.0615234375 483.53515625 1099.75927734375 570.008544921875Q1062.45703125 656.48193359375 996.8955078125 722.04345703125Q931.333984375 787.60498046875 844.860595703125 824.9072265625Q758.38720703125 862.20947265625 660.044921875 862.20947265625Q561.70263671875 862.20947265625 475.229248046875 824.9072265625Q388.755859375 787.60498046875 323.1943359375 722.04345703125Q257.6328125 656.48193359375 220.33056640625 570.008544921875Q183.0283203125 483.53515625 183.0283203125 385.19287109375Q183.0283203125 286.8505859375 220.33056640625 200.377197265625Q257.6328125 113.90380859375 323.1943359375 48.34228515625Q388.755859375 -17.21923828125 475.229248046875 -54.521484375Q561.70263671875 -91.82373046875 660.044921875 -91.82373046875Q758.38720703125 -91.82373046875 844.860595703125 -54.521484375Q931.333984375 -17.21923828125 996.8955078125 48.34228515625Q1062.45703125 113.90380859375 1099.75927734375 200.377197265625Q1137.0615234375 286.8505859375 1137.0615234375 385.19287109375Z" fill="#ffffff" />
<path d="M660 917Q770 917 866.5 875.5Q963 834 1036.0 761.0Q1109 688 1150.5 591.5Q1192 495 1192 385Q1192 275 1150.5 178.5Q1109 82 1036.0 9.0Q963 -64 866.5 -105.5Q770 -147 660 -147Q550 -147 453.5 -105.5Q357 -64 284.0 9.0Q211 82 169.5 178.5Q128 275 128 385Q128 495 169.5 591.5Q211 688 284.0 761.0Q357 834 453.5 875.5Q550 917 660 917ZM198 380Q198 310 223.5 244.0Q249 178 294.5 120.5Q340 63 399.0 19.5Q458 -24 525.5 -48.0Q593 -72 663 -72Q710 -72 765.0 -56.0Q820 -40 871.0 -15.0Q922 10 957 36L312 682Q292 656 272.0 619.0Q252 582 235.5 540.0Q219 498 208.5 456.5Q198 415 198 380ZM1020 102Q1046 137 1069.0 186.0Q1092 235 1106.5 288.5Q1121 342 1121 388Q1121 458 1096.5 525.0Q1072 592 1028.5 650.0Q985 708 928.0 752.0Q871 796 804.5 821.0Q738 846 668 846Q622 846 567.5 831.5Q513 817 463.0 794.0Q413 771 378 746Z" fill="#ea5a47" />
<path d="M583 393V394Q594 389 612.0 378.5Q630 368 643.5 354.5Q657 341 656 324Q654 292 645.0 251.5Q636 211 623.5 169.5Q611 128 598.0 92.5Q585 57 575.0 33.5Q565 10 562 5Q553 8 548.5 39.0Q544 70 543.0 116.5Q542 163 544.5 213.0Q547 263 552.0 306.5Q557 350 565.0 374.5Q573 399 583 393Z" fill="#fcea2b" />
<path d="M650 304Q658 319 672.5 317.5Q687 316 696.5 304.0Q706 292 697 276Q704 249 723.5 212.5Q743 176 764.5 138.0Q786 100 800 69Q808 54 798.5 41.5Q789 29 774.5 27.5Q760 26 752 42Q737 70 715.5 100.5Q694 131 675.0 164.0Q656 197 647.5 232.0Q639 267 650 304Z" fill="#fcea2b" />
<path d="M697 442Q697 434 687.5 441.0Q678 448 662.5 464.0Q647 480 627.0 497.0Q607 514 587 526Q588 543 590.0 563.0Q592 583 604 596Q614 607 629.0 610.0Q644 613 657 606Q673 598 679.5 577.0Q686 556 688.5 529.5Q691 503 692.0 479.0Q693 455 697 442Z" fill="#fcea2b" />
<path d="M641 713Q630 714 622.0 722.0Q614 730 614 741Q614 752 622.0 760.0Q630 768 641 768Q652 768 659.5 760.0Q667 752 667 741Q667 730 659.5 722.0Q652 714 641 713Z" fill="#fcea2b" />
<path d="M1228 385Q1228 620 1062 787Q895 953 660 953Q425 953 258 787Q92 620 92 385Q92 150 258 -17Q425 -183 660 -183Q895 -183 1062 -17Q1228 150 1228 385ZM1192 385Q1192 165 1036 9Q880 -147 660 -147Q440 -147 284 9Q128 165 128 385Q128 605 284 761Q440 917 660 917Q880 917 1036 761Q1192 605 1192 385Z" fill="#000000" />
<path d="M1035 91Q1147 233 1137 413Q1126 594 998 722Q870 851 689 861Q509 872 366 760Q359 755 358 748Q358 742 363 735Q364 734 365 733L1007 89Q1020 76 1033 89Q1034 90 1035 91ZM1019 130 406 744Q531 834 687 825Q854 815 972 697Q1090 578 1100 411Q1109 255 1019 130Z" fill="#000000" />
<path d="M298 694Q176 553 183 366Q190 180 322 48Q454 -84 640 -92Q827 -99 969 22Q976 28 976 34Q977 41 971 48Q970 48 970 49L324 695Q312 708 299 696Q298 695 298 694ZM313 655 930 37Q804 -62 642 -55Q470 -48 348 74Q226 196 220 368Q214 530 313 655Z" fill="#000000" />
<path d="M565 548Q563 530 581 527Q599 525 602 543Q610 607 644 606Q683 604 679 468Q678 440 678 426Q678 408 697 408Q715 408 715 426Q715 439 716 466Q718 545 711 577Q698 641 645 643Q578 645 565 548Z" fill="#000000" />
<path d="M660 568Q660 587 642 587Q623 587 623 568V487Q623 469 642 469Q660 469 660 487Z" fill="#000000" />
<path d="M641 362Q646 380 628 385Q610 389 606 371L587 298Q585 289 588 283Q592 278 601 276Q618 271 623 289Z" fill="#000000" />
<path d="M589 419Q590 428 586 433Q582 438 573 439Q555 441 553 423L513 57Q513 54 514 52Q519 21 529 2Q545 -25 569 -16Q588 -9 604 30Q604 31 604 32L659 252Q660 253 660 255Q664 293 679 311Q691 326 677 337Q663 349 651 335Q629 308 624 260L569 42Q564 29 560 23Q554 35 550 56Z" fill="#000000" />
<path d="M722 294Q717 311 699 306Q682 300 687 283L698 251Q698 250 698 250Q725 178 735 157Q735 157 735 156L778 76Q780 57 777 43V38Q776 38 766 48Q758 60 742 83Q697 149 683 179Q660 229 660 238Q660 257 642 257Q623 257 623 238Q623 221 650 163Q665 131 712 63Q729 38 736 27Q737 25 739 24Q765 -3 786 3Q806 8 812 34Q817 56 814 84Q814 87 812 90L768 173Q759 193 732 263Z" fill="#000000" />
<path d="M697 734Q697 789 642 789Q587 789 587 734Q587 679 642 679Q697 679 697 734ZM660 734Q660 715 642 715Q623 715 623 734Q623 752 642 752Q660 752 660 734Z" fill="#000000" />
</g></svg>