<svg xmlns="http://www.w3.org/2000/svg" viewBox="0 0 2048 2048">
<g transform="matrix(1 0 0 -1 0 2048)">
<path d="M202 -13 220 753 293 827H1100V-13Z" fill="#ffffff" />
<path d="M1008 -72Q1016 -72 1021.5 -66.5Q1027 -61 1027 -53V735Q1027 743 1021.5 748.0Q1016 753 1008 753H220Q212 753 207.0 748.0Q202 743 202 735V-53Q202 -61 207.0 -66.5Q212 -72 220 -72Z" fill="#9b9b9a" />
<path d="M189 748Q176 735 189 722Q202 709 215 722L301 808H1082V20Q1063 20 1063 2Q1063 -17 1082 -17Q1097 -17 1108 -6Q1118 5 1118 20V808Q1118 824 1108 834Q1097 845 1082 845H293Q286 845 280 840Z" fill="#000000" />
<path d="M1009 -90Q1024 -90 1035 -79Q1045 -68 1045 -53V735Q1045 751 1035 761Q1024 772 1009 772H220Q184 772 184 735V-53Q184 -90 220 -90ZM1009 -53H220V735H1009Z" fill="#000000" />
<path d="M868 480Q887 480 887 498Q887 517 868 517H795Q777 517 777 498V370Q777 352 795 352H868Q887 352 887 370Q887 388 868 388H813V480Z" fill="#000000" />
<path d="M795 453Q777 453 777 435Q777 416 795 416H850Q868 416 868 435Q868 453 850 453Z" fill="#000000" />
<path d="M342 370Q342 352 360 352Q378 352 378 370V441L437 360Q447 345 462 355Q470 361 470 370V499Q470 517 452 517Q433 517 433 499V428L375 509Q370 517 360 517Q342 517 342 499Z" fill="#000000" />
<path d="M566 352Q592 352 611 371Q630 390 630 416V453Q630 517 566 517Q539 517 520 498Q502 479 502 453V416Q502 390 520 371Q539 352 566 352ZM566 389Q538 389 538 416V453Q538 480 566 480Q593 480 593 453V416Q593 389 566 389Z" fill="#000000" />
<path d="M667 516Q648 516 648 498Q648 480 667 480H740Q758 480 758 498Q758 516 740 516Z" fill="#000000" />
<path d="M722 498Q722 516 703 516Q685 516 685 498V370Q685 351 703 351Q722 351 722 370Z" fill="#000000" />
</g></svg>