<svg xmlns="http://www.w3.org/2000/svg" viewBox="0 0 2048 2048">
<g transform="matrix(1 0 0 -1 0 2048)">
<path d="M270 448 95 626Q90 630 86 635Q75 650 78.0 669.0Q81 688 96 699Q111 711 130.0 708.0Q149 705 160 690L352 491L265 582L201 647Q197 651 193 656Q182 671 184.5 690.0Q187 709 202 720Q218 731 236.5 728.5Q255 726 267 711L468 509L518 460L468 509L518 460L566 593Q567 602 578.5 599.5Q590 597 601.5 585.5Q613 574 616 558Q616 558 618.0 535.0Q620 512 622.5 479.0Q625 446 627.0 412.5Q629 379 630 359Q629 262 565 189Q528 149 480.5 130.5Q433 112 384.0 119.5Q335 127 295 163L202 255L83 377Q79 380 75 385Q64 401 66.5 419.5Q69 438 84 450Q100 461 118.5 458.5Q137 456 149 440L243 342L227 359L54 536Q49 540 46 545Q34 560 37.0 579.0Q40 598 55 609Q71 620 89.5 617.5Q108 615 120 600Z" fill="#fcea2b" />
<path d="M1056.0 448.0 1231.0 626.0Q1236.0 630.0 1240.0 635.0Q1251.0 650.0 1248.0 669.0Q1245.0 688.0 1230.0 699.0Q1215.0 711.0 1196.0 708.0Q1177.0 705.0 1166.0 690.0L974.0 491.0L1061.0 582.0L1125.0 647.0Q1129.0 651.0 1133.0 656.0Q1144.0 671.0 1141.5 690.0Q1139.0 709.0 1124.0 720.0Q1108.0 731.0 1089.5 728.5Q1071.0 726.0 1059.0 711.0L858.0 509.0L808.0 460.0L858.0 509.0L808.0 460.0L760.0 593.0Q759.0 602.0 747.5 599.5Q736.0 597.0 724.5 585.5Q713.0 574.0 710.0 558.0Q710.0 558.0 708.0 535.0Q706.0 512.0 703.5 479.0Q701.0 446.0 699.0 412.5Q697.0 379.0 696.0 359.0Q697.0 262.0 761.0 189.0Q798.0 149.0 845.5 130.5Q893.0 112.0 942.0 119.5Q991.0 127.0 1031.0 163.0L1124.0 255.0L1243.0 377.0Q1247.0 380.0 1251.0 385.0Q1262.0 401.0 1259.5 419.5Q1257.0 438.0 1242.0 450.0Q1226.0 461.0 1207.5 458.5Q1189.0 456.0 1177.0 440.0L1083.0 342.0L1099.0 359.0L1272.0 536.0Q1277.0 540.0 1280.0 545.0Q1292.0 560.0 1289.0 579.0Q1286.0 598.0 1271.0 609.0Q1255.0 620.0 1236.5 617.5Q1218.0 615.0 1206.0 600.0Z" fill="#fcea2b" />
<path d="M90 473Q81 470 73 464Q22 426 60 374Q65 368 71 363L188 243L282 150Q282 150 283 149Q348 90 435 100Q518 110 578 177Q648 254 648 358Q648 359 648 359Q646 415 635 559Q635 560 634 561Q628 593 599 610Q586 619 574 618Q552 618 548 598L510 493L481 522L281 723Q265 743 239 747Q213 751 191 735Q175 723 168 709Q153 723 133 726Q106 730 85 714Q38 679 65 634Q54 631 44 624Q-7 585 31 534Q36 527 42 522ZM105 589Q109 583 113 581L257 435Q270 422 283 435Q289 441 289 448Q290 454 283 461L108 639Q107 640 106 641Q103 643 101 646Q85 668 107 685Q116 691 127 690Q139 688 146 679Q146 678 147 677L178 645Q178 645 178 645Q183 638 189 633L223 599L339 478Q352 465 365 478Q372 484 372 491Q372 497 366 504L278 594L249 625L206 668Q192 690 213 705Q223 712 234 711Q245 709 252 700Q253 699 254 698L454 496Q455 496 455 496L505 447Q514 438 522 441Q524 441 526 442Q531 444 533 450Q537 455 537 459L580 579Q595 570 598 555Q610 413 611 358Q611 268 551 201Q500 145 431 137Q360 129 308 176L215 268L97 389Q96 390 95 391Q92 393 90 396Q73 419 95 435Q105 442 116 440Q120 440 124 438L214 346L230 329Q243 316 256 329Q269 342 256 355L163 452Q156 461 147 467L67 549Q67 550 66 550Q63 553 60 556Q44 578 66 594Q75 601 87 599Q98 598 105 589Z" fill="#000000" />
<path d="M1261 634Q1288 679 1241 714Q1220 730 1194 726Q1173 723 1159 709Q1151 723 1135 735Q1114 751 1087 747Q1061 743 1046 723L846 522L816 493L778 598Q774 618 753 618Q741 619 727 610Q698 593 692 561Q692 560 692 559Q680 415 678 359Q678 359 678 358Q679 254 748 177Q809 110 892 100Q978 90 1044 149Q1044 150 1044 150L1138 243L1255 363Q1261 368 1266 374Q1304 426 1253 464Q1245 470 1237 474L1284 522Q1291 527 1295 534Q1311 555 1307 581Q1303 608 1282 624Q1272 631 1261 634ZM1213 581Q1218 583 1221 589Q1228 598 1240 599Q1251 601 1260 594Q1269 587 1271 576Q1273 565 1266 556Q1264 553 1261 550Q1260 550 1259 549L1185 473Q1174 466 1164 452L1070 355Q1057 342 1070 329Q1083 316 1096 329L1113 346L1204 440Q1216 446 1231 435Q1253 419 1237 396Q1234 393 1232 391Q1231 390 1230 389L1112 268L1019 176Q966 129 896 137Q827 145 775 201Q715 268 715 358Q717 413 728 555Q731 570 746 579L789 459Q789 455 793 450Q796 444 800 442Q802 441 804 441Q813 438 821 447L872 496Q872 496 872 496L1073 698Q1074 699 1074 700Q1081 709 1092 711Q1104 712 1113 705Q1134 690 1120 668L1077 624L1048 594L961 504Q954 497 954 491Q955 484 961 478Q974 465 987 478L1103 599L1137 633Q1143 638 1148 645Q1148 645 1148 645L1179 677Q1180 678 1181 679Q1188 688 1199 690Q1210 691 1220 685Q1242 668 1225 646Q1223 643 1220 641Q1219 640 1218 639L1043 461Q1030 448 1043 435Q1057 422 1069 435Z" fill="#000000" />
</g></svg>