<svg xmlns="http://www.w3.org/2000/svg" viewBox="0 0 2048 2048">
<g transform="matrix(1 0 0 -1 0 2048)">
<path d="M368 117Q368 117 368.0 116.5Q368 116 368 116Q368 115 368.0 114.5Q368 114 368 113L375 74Q368 94 368 116Q369 150 385.0 179.0Q401 208 427.0 225.5Q453 243 486 243Q534 243 567.0 204.0Q600 165 604 110Q604 110 606.5 92.5Q609 75 612.5 48.0Q616 21 619.5 -9.0Q623 -39 627 -64Q629 -75 639 -82Q661 -104 659 -135Q659 -144 653 -150Q647 -156 638 -156H434Q419 -156 411 -142Q403 -128 411 -115Q416 -106 424 -99Q433 -90 428 -77Q397 -3 375 74Z" fill="#e27022" />
<path d="M926 152Q926 151 926.0 151.0Q926 151 926 150Q926 150 926.0 149.0Q926 148 926 148L924 108Q928 129 926 150Q921 184 901.5 211.0Q882 238 853.5 252.0Q825 266 794 262Q745 256 717.5 213.5Q690 171 692 115Q692 115 692.0 98.0Q692 81 692.0 53.5Q692 26 691.5 -4.0Q691 -34 691 -60Q690 -71 681 -79Q662 -104 668 -134Q669 -143 675 -148Q682 -153 691 -152L893 -153Q909 -151 915 -136Q921 -121 911 -109Q905 -101 897 -95Q886 -87 890 -74Q896 -53 905.5 -1.0Q915 51 924 108Z" fill="#e27022" />
<path d="M1079 618Q1085 597 1073 579L1007 484Q1005 481 1002 478Q956 433 932.5 392.5Q909 352 901.0 317.5Q893 283 894.5 258.5Q896 234 901 222Q902 220 894.5 225.0Q887 230 876.0 237.5Q865 245 856.5 250.0Q848 255 848 252Q848 252 834.5 256.0Q821 260 800.5 261.0Q780 262 757.5 254.0Q735 246 716.5 223.0Q698 200 688 154Q685 138 685.0 105.5Q685 73 685.5 34.5Q686 -4 685 -37Q685 -62 677.5 -72.0Q670 -82 660.5 -83.5Q651 -85 643.5 -83.0Q636 -81 636 -81Q626 -77 621.0 -54.5Q616 -32 614.0 -2.0Q612 28 611 55Q609 111 597.5 147.0Q586 183 569.5 202.5Q553 222 536.5 230.5Q520 239 509.5 241.0Q499 243 499 243L430 117Q404 98 378 117L252 206Q238 215 234.0 231.0Q230 247 237 262L360 532Q368 548 384 555L476 592Q484 595 492 596L771 608Q774 608 778 608L833 601Q850 598 864.5 608.0Q879 618 883 635L887 653Q891 672 880 688L806 798Q799 809 798 822Q788 822 778 825Q777 825 777 825Q756 813 735.5 815.0Q715 817 706 831Q698 846 706.5 865.0Q715 884 736 896Q745 901 754 904Q778 913 802 904Q831 896 843 869Q855 869 866 863Q943 816 987.0 768.0Q1031 720 1051.5 680.0Q1072 640 1079 618Z" fill="#e27022" />
<path d="M848 537Q848 615 819.5 679.0Q791 743 743.0 781.5Q695 820 636 820Q578 820 530.0 781.5Q482 743 453.5 679.0Q425 615 425 537Q425 458 453.5 394.0Q482 330 530.0 291.5Q578 253 636 253Q695 253 743.0 291.5Q791 330 819.5 394.0Q848 458 848 537Z" fill="#e27022" />
<path d="M789 537Q790 592 769.5 640.0Q749 688 713 716Q678 744 636.5 744.0Q595 744 560 716Q524 688 503.5 640.0Q483 592 484 537Q483 481 503.5 433.0Q524 385 560 357Q595 330 636.5 330.0Q678 330 713 357Q749 385 769.5 433.0Q790 481 789 537Z" fill="#f4aa41" />
<path d="M741 460Q741 514 712 553Q681 594 637 594Q593 594 562 553Q533 514 533 460Q533 406 562 367Q593 326 637 326Q681 326 712 367Q741 406 741 460ZM711 460Q711 415 688 384Q666 355 637 355Q607 355 586 384Q562 415 562 460Q562 505 586 536Q607 565 637 565Q666 565 688 536Q711 505 711 460Z" fill="#000000" />
<path d="M611.001708984375 651.4359130859375Q611.001708984375 655.3759765625 609.5072021484375 658.8405151367188Q608.0126953125 662.3050537109375 605.385986328125 664.9317626953125Q602.75927734375 667.5584716796875 599.2947387695312 669.052978515625Q595.8302001953125 670.5474853515625 591.89013671875 670.5474853515625Q587.9500732421875 670.5474853515625 584.4855346679688 669.052978515625Q581.02099609375 667.5584716796875 578.394287109375 664.9317626953125Q575.767578125 662.3050537109375 574.2730712890625 658.8405151367188Q572.778564453125 655.3759765625 572.778564453125 651.4359130859375Q572.778564453125 647.495849609375 574.2730712890625 644.0313110351562Q575.767578125 640.5667724609375 578.394287109375 637.9400634765625Q581.02099609375 635.3133544921875 584.4855346679688 633.81884765625Q587.9500732421875 632.3243408203125 591.89013671875 632.3243408203125Q595.8302001953125 632.3243408203125 599.2947387695312 633.81884765625Q602.75927734375 635.3133544921875 605.385986328125 637.9400634765625Q608.0126953125 640.5667724609375 609.5072021484375 644.0313110351562Q611.001708984375 647.495849609375 611.001708984375 651.4359130859375Z" fill="#000000" />
<path d="M692.001708984375 651.4359130859375Q692.001708984375 655.3759765625 690.5072021484375 658.8405151367188Q689.0126953125 662.3050537109375 686.385986328125 664.9317626953125Q683.75927734375 667.5584716796875 680.2947387695312 669.052978515625Q676.8302001953125 670.5474853515625 672.89013671875 670.5474853515625Q668.9500732421875 670.5474853515625 665.4855346679688 669.052978515625Q662.02099609375 667.5584716796875 659.394287109375 664.9317626953125Q656.767578125 662.3050537109375 655.2730712890625 658.8405151367188Q653.778564453125 655.3759765625 653.778564453125 651.4359130859375Q653.778564453125 647.495849609375 655.2730712890625 644.0313110351562Q656.767578125 640.5667724609375 659.394287109375 637.9400634765625Q662.02099609375 635.3133544921875 665.4855346679688 633.81884765625Q668.9500732421875 632.3243408203125 672.89013671875 632.3243408203125Q676.8302001953125 632.3243408203125 680.2947387695312 633.81884765625Q683.75927734375 635.3133544921875 686.385986328125 637.9400634765625Q689.0126953125 640.5667724609375 690.5072021484375 644.0313110351562Q692.001708984375 647.495849609375 692.001708984375 651.4359130859375Z" fill="#000000" />
<path d="M602 443Q588 447 584 433Q582 426 584 422Q587 417 594 415Q637 402 680 416Q694 420 690 434Q685 448 671 444Q637 432 602 443Z" fill="#000000" />
<path d="M347 116Q354 111 361 112Q367 113 373 121Q383 136 368 146L262 221Q244 234 253 254L377 524Q382 534 391 538L430 554Q447 560 440 577Q433 594 416 587L377 572Q354 562 344 539L220 269Q198 222 241 191Z" fill="#000000" />
<path d="M873 220Q876 202 894 204Q912 206 909 225Q906 250 936 322Q971 407 1025 477Q1025 478 1025 478L1059 528L1088 569Q1105 593 1096 622Q1055 769 876 878Q868 884 858 889Q838 913 808 922Q778 932 748 921Q737 918 727 912Q701 897 690 873Q677 845 690 822Q704 799 734 796Q758 794 782 807Q785 797 791 788L865 678Q872 668 869 657L865 639Q861 623 844 619Q826 615 830 597Q832 589 837 585Q842 581 851 583Q892 591 901 631L905 649Q911 676 895 699L821 808Q817 815 817 822Q817 829 812 834Q792 857 768 840Q752 832 737 833Q726 834 722 841Q718 847 723 858Q729 871 745 880Q752 884 759 886Q760 886 761 887Q778 893 796 887Q796 887 797 887Q818 880 832 863Q835 859 839 858Q847 854 855 848Q855 847 856 847Q1023 746 1061 612Q1065 600 1058 590L1029 548L995 499Q939 425 902 336Q868 254 873 220ZM790 838Q788 840 786 841Q780 844 773 843Q783 846 790 838ZM791 812Q791 813 792 814Q794 816 795 819Q794 815 791 812ZM759 820Q760 818 761 816Q762 815 763 813Q760 816 759 820ZM796 822H795Q796 824 796 826Q796 824 796 822Z" fill="#000000" />
<path d="M636 235Q655 235 655 253Q655 272 636 272Q558 272 502 347Q443 425 443 537Q443 648 502 726Q558 802 636 802Q715 802 771 726Q829 648 829 537Q831 440 779 358Q769 343 785 333Q800 323 810 339Q868 429 866 537Q866 660 801 748Q733 838 636 838Q540 838 472 748Q407 660 407 537Q407 413 472 325Q540 235 636 235Z" fill="#000000" />
<path d="M422 235Q429 219 446 226Q454 230 457 236Q459 242 455 250L424 322Q416 338 400 331Q391 327 389 321Q387 315 390 307Z" fill="#000000" />
<path d="M358 68Q380 -10 412 -85Q405 -92 399 -100Q383 -123 396 -149Q409 -174 438 -174H623Q652 -175 669 -150Q686 -126 675 -98Q675 -98 675 -97Q666 -77 646 -65Q646 -65 646 -64Q636 2 622 112Q617 174 581 216Q542 261 486 261Q430 261 390 217Q351 175 350 116Q350 116 350 116Q350 91 358 68ZM393 79Q393 80 392 81Q387 98 386 116Q387 160 417 193Q446 224 486 224Q576 224 586 108Q586 108 586 107Q600 -3 609 -70Q609 -70 610 -71Q612 -88 627 -97Q637 -102 641 -112Q645 -121 639 -129Q633 -138 623 -138H438Q431 -138 428 -132Q425 -126 429 -121Q433 -115 439 -110Q456 -95 447 -74Q415 1 393 79Z" fill="#000000" />
<path d="M808 537Q808 628 759 692Q709 760 636 760Q564 760 514 692Q465 628 465 537Q465 446 514 381Q564 314 636 314Q709 314 759 381Q808 446 808 537ZM771 537Q771 458 730 403Q691 350 636 350Q582 350 543 403Q502 458 502 537Q502 615 543 671Q582 723 636 723Q691 723 730 671Q771 615 771 537Z" fill="#000000" />
<path d="M656 -72Q642 -84 654 -98Q666 -112 680 -100Q703 -81 703 -64Q705 4 704 115Q704 116 704 116Q700 233 789 244Q829 249 862 221Q895 193 901 149Q902 148 902 147L900 110Q899 94 914 91Q932 87 936 105Q940 126 938 147Q938 149 938 151Q938 152 938 153Q938 154 938 155Q937 157 937 159Q927 213 885 249Q840 287 785 280Q729 273 696 223Q665 177 668 115Q668 4 667 -63L664 -64Q660 -69 656 -72Z" fill="#000000" />
<path d="M936 106Q939 124 921 127Q902 129 900 111Q877 -36 866 -72Q859 -94 878 -107Q884 -111 889 -117Q894 -121 891 -127Q889 -133 884 -134L701 -132Q701 -132 700 -132Q690 -133 680 -130Q662 -124 657 -142Q652 -159 669 -165Q685 -170 701 -169L885 -171Q886 -171 887 -171Q916 -167 926 -140Q936 -113 916 -92Q910 -85 902 -79Q914 -37 936 106Z" fill="#000000" />
</g></svg>