<svg xmlns="http://www.w3.org/2000/svg" viewBox="0 0 2048 2048">
<g transform="matrix(1 0 0 -1 0 2048)">
<path d="M604 424Q594 453 582.5 465.0Q571 477 560 482Z" fill="#a57939" />
<path d="M604 431Q594 459 582.5 468.0Q571 477 560 482Q535 495 516 474Q507 463 509.5 442.0Q512 421 517 411Q531 373 559 344Q560 344 564 340Q581 325 604 325Q656 325 705 341Z" fill="#a57939" />
<path d="M355 307Q336 330 331.0 346.0Q326 362 328 375Q329 403 356 409Q370 411 387.0 398.0Q404 385 410 376Q437 346 448 307Q448 306 449 300Q453 278 442 258Q416 213 377 178Z" fill="#a57939" />
<path d="M572 591Q554 630 515.5 651.0Q477 672 429.5 673.0Q382 674 334 651Q287 629 257.5 591.5Q228 554 220.0 511.0Q212 468 231 429Q249 390 287.5 369.0Q326 348 373.5 347.5Q421 347 468 369Q516 392 545.5 429.5Q575 467 583.0 510.0Q591 553 572 591Z" fill="#6a462f" />
<path d="M423 686 503 666Q511 690 493 707Q476 725 452 718Q428 710 423 686Z" fill="#6a462f" />
<path d="M207.3924560546875 497.96856689453125 231.6246337890625 576.8015747070312Q208.0811767578125 586.0686645507812 190.14495849609375 568.9965209960938Q171.26324462890625 552.976318359375 176.9769287109375 528.634521484375Q183.6893310546875 504.239501953125 207.3924560546875 497.96856689453125Z" fill="#6a462f" />
<path d="M1145 410Q1163 399 1167.5 379.0Q1172 359 1161 341L1124 273Q1106 245 1073 244Q1067 244 1059.5 236.0Q1052 228 1049 223L1034 202Q996 142 937.0 103.5Q878 65 809 54Q700 38 623.5 46.5Q547 55 495.0 79.5Q443 104 409.5 138.0Q376 172 354 207L310 350L566 457Q630 425 672 365Q688 347 714.5 338.5Q741 330 770.0 329.0Q799 328 825 331Q822 346 825.0 366.5Q828 387 845.5 408.0Q863 429 903 445Q878 466 857 489Q838 508 847 534Q856 559 883 562Q910 565 925 542L968 488Q974 480 976 470Q972 485 964.5 512.5Q957 540 950.0 565.0Q943 590 941 597Q936 620 944.5 641.5Q953 663 972 677Q997 698 1029 694Q1072 692 1094 654Q1141 544 1125 424L1122 416Q1134 416 1145 410ZM977 465V466Q977 466 977.0 466.0Q977 466 977 465Z" fill="#6a462f" />
<path d="M1161 341 1152 324Q1157 334 1161 341Z" fill="#6a462f" />
<path d="M1152 324Q1150 320 1148.0 316.5Q1146 313 1145 311Z" fill="#6a462f" />
<path d="M924.6090698242188 542.3870239257812 935.375244140625 529.28271484375Q928.942138671875 536.7518920898438 924.6090698242188 542.3870239257812Z" fill="#6a462f" />
<path d="M935.107666015625 529.0546875Q937.83203125 525.8956298828125 940.1260070800781 522.916259765625Q942.4199829101562 519.9368896484375 943.7821655273438 518.3573608398438Z" fill="#6a462f" />
<path d="M825 331Q822 346 825.0 366.5Q828 387 845.5 408.0Q863 429 903 445Q878 466 857 489Q838 508 847 534Q856 559 883 562Q910 565 925 542L968 488Q970 485 973.5 469.5Q977 454 981.0 434.5Q985 415 988.0 399.5Q991 384 992 382ZM977 465V466Q977 466 977.0 466.0Q977 466 977 465Z" fill="#6a462f" />
<path d="M1161 341 1152 324Q1157 334 1161 341Z" fill="#6a462f" />
<path d="M1152 324Q1150 320 1148.0 316.5Q1146 313 1145 311Z" fill="#6a462f" />
<path d="M924.6090698242188 542.3870239257812 935.375244140625 529.28271484375Q928.942138671875 536.7518920898438 924.6090698242188 542.3870239257812Z" fill="#6a462f" />
<path d="M935.107666015625 529.0546875Q937.83203125 525.8956298828125 940.1260070800781 522.916259765625Q942.4199829101562 519.9368896484375 943.7821655273438 518.3573608398438Z" fill="#6a462f" />
<path d="M986 376 911 349 825 331Z" fill="#a57939" />
<path d="M940 554Q928 569 913 557Q898 546 910 531L953 476Q964 460 957 442Q949 424 967 398L995 345Q1004 328 1021 337Q1038 346 1029 363L1000 418L999 419Q997 423 994 428Q994 430 993 431Q1006 467 983 499ZM993 428Q992 428 992 427V428Q992 428 993 428Z" fill="#000000" />
<path d="M910 427Q928 435 921 452Q914 470 896 463Q788 420 806 327Q809 309 828 312Q847 316 843 334Q831 396 910 427Z" fill="#000000" />
<path d="M909 532Q919 516 935 526Q951 537 941 553Q920 585 881 581Q842 577 829 540Q816 504 843 476Q865 452 891 431Q905 418 918 433Q924 440 923 447Q922 454 915 460Q892 480 870 502Q860 513 865 527Q870 542 885 543Q900 545 909 532Z" fill="#000000" />
<path d="M929 506Q941 491 956 503Q963 509 964 516Q965 522 959 530L949 543L939 554Q934 562 927 562Q920 563 913 557Q898 545 910 531Z" fill="#000000" />
<path d="M323 335 332 372Q327 373 322 375Q313 377 305 381Q266 399 248 437Q224 487 250 544Q278 603 343 634Q407 665 470 649Q531 634 555 583Q577 535 557 487L592 472Q619 536 590 600Q558 666 480 686Q403 705 326 668Q249 632 216 561Q182 487 213 421Q238 370 289 347Q299 342 310 338Q316 336 323 335Z" fill="#000000" />
<path d="M530 386 505 415Q485 398 460 386Q444 379 427 374L437 337Q457 343 477 352Q505 366 530 386Z" fill="#000000" />
<path d="M404 689 442 683Q446 708 471 706Q494 696 485 672L521 659Q542 720 482 742L480 743H478Q415 752 404 689Z" fill="#000000" />
<path d="M203 480 212 517Q188 522 192 546Q202 568 225 559L239 595Q180 618 156 559V558L155 556Q142 494 203 480Z" fill="#000000" />
<path d="M888 317 876 353Q850 344 786 354Q724 364 679 383H678Q654 392 619 436L590 412Q631 360 665 347Q714 327 780 316Q853 305 888 317Z" fill="#000000" />
<path d="M1011 141 983 167Q911 90 806 72Q547 36 425 149Q403 169 386 194Q340 276 327 370L289 365Q303 264 353 174L354 173Q374 144 399 121Q535 -4 812 35Q930 54 1011 141Z" fill="#000000" />
<path d="M959 461Q964 442 982 447Q1001 452 996 470Q993 482 979 532Q961 593 960 601Q952 639 983 662H984V663Q1003 678 1027 675H1028Q1061 674 1077 646Q1121 540 1107 427Q1104 408 1123 405Q1142 403 1144 422Q1160 546 1112 662L1111 663V664Q1084 711 1030 713Q991 717 960 692Q910 655 923 593Q924 584 942 521Q956 472 959 461Z" fill="#000000" />
<path d="M982 166Q970 151 985 139Q1000 127 1012 142Q1048 186 1072 223Q1083 239 1067 249Q1051 260 1040 244Q1017 208 982 166Z" fill="#000000" />
<path d="M1178 332Q1187 348 1171 358Q1154 367 1145 350L1107 283Q1095 264 1072 263Q1052 263 1034 234L1001 189Q990 174 1005 163Q1020 152 1032 167L1065 213H1066Q1068 218 1073 223Q1075 224 1076 225Q1118 228 1140 263V264ZM1074 225Q1073 225 1073 225Q1073 225 1074 225Z" fill="#000000" />
<path d="M1039 308Q1053 295 1066 308Q1080 321 1067 335Q997 406 925 384Q889 373 867 347V346L866 345Q847 317 848 283Q849 264 868 265Q887 266 886 285Q885 306 897 323Q911 340 936 348Q986 363 1039 308Z" fill="#000000" />
<path d="M1035 327Q1029 309 1047 303Q1065 298 1071 316Q1081 348 1095 380Q1102 396 1120 397Q1138 398 1147 382Q1156 367 1146 352Q1135 336 1150 325Q1158 320 1165 321Q1172 322 1177 330Q1201 364 1180 401Q1160 437 1118 435Q1077 433 1060 395Q1045 362 1035 327Z" fill="#000000" />
<path d="M1128 320Q1119 303 1135 294Q1152 285 1161 301L1170 317L1178 332Q1187 348 1170 358Q1154 367 1145 350Z" fill="#000000" />
<path d="M590 411Q603 397 617 410Q631 423 618 437Q608 449 596 471Q581 497 567 503H566Q527 518 500 486Q474 455 500 404Q514 362 545 331L547 330L548 329Q548 329 552 325Q574 306 604 306Q623 306 623 325Q623 344 604 344Q588 344 576 355Q573 357 572 358Q547 384 535 418V419L534 420Q519 450 529 461Q538 473 552 468Q554 466 562 452Q577 426 590 411Z" fill="#000000" />
<path d="M341 300Q347 293 354 292Q360 291 368 298Q382 310 370 324Q344 355 347 378V379Q347 392 360 395Q377 397 394 371L395 370L396 369Q419 342 429 308Q429 305 430 302Q433 286 425 273Q415 255 403 239Q397 231 398 225Q399 218 406 212Q422 201 433 216Q447 234 458 254Q473 280 467 308Q467 313 466 313V315V317Q454 359 425 393Q394 440 353 432H352Q311 423 309 381Q305 342 341 300Z" fill="#000000" />
<path d="M454 512Q446 524 432 518L391 496Q382 492 384 482Q387 464 405 461L429 458Q440 456 445 466L457 492Q462 503 454 512Z" fill="#000000" />
<path d="M346.0865478515625 517.7544555664062Q346.0865478515625 521.54052734375 344.65045166015625 524.8696594238281Q343.21435546875 528.1987915039062 340.6903076171875 530.7228393554688Q338.166259765625 533.2468872070312 334.8371276855469 534.6829833984375Q331.50799560546875 536.1190795898438 327.721923828125 536.1190795898438Q323.93585205078125 536.1190795898438 320.6067199707031 534.6829833984375Q317.277587890625 533.2468872070312 314.7535400390625 530.7228393554688Q312.2294921875 528.1987915039062 310.79339599609375 524.8696594238281Q309.3572998046875 521.54052734375 309.3572998046875 517.7544555664062Q309.3572998046875 513.9683837890625 310.79339599609375 510.6392517089844Q312.2294921875 507.31011962890625 314.7535400390625 504.78607177734375Q317.277587890625 502.26202392578125 320.6067199707031 500.825927734375Q323.93585205078125 499.38983154296875 327.721923828125 499.38983154296875Q331.50799560546875 499.38983154296875 334.8371276855469 500.825927734375Q338.166259765625 502.26202392578125 340.6903076171875 504.78607177734375Q343.21435546875 507.31011962890625 344.65045166015625 510.6392517089844Q346.0865478515625 513.9683837890625 346.0865478515625 517.7544555664062Z" fill="#000000" />
<path d="M457.0865478515625 579.7544555664062Q457.0865478515625 583.54052734375 455.65045166015625 586.8696594238281Q454.21435546875 590.1987915039062 451.6903076171875 592.7228393554688Q449.166259765625 595.2468872070312 445.8371276855469 596.6829833984375Q442.50799560546875 598.1190795898438 438.721923828125 598.1190795898438Q434.93585205078125 598.1190795898438 431.6067199707031 596.6829833984375Q428.277587890625 595.2468872070312 425.7535400390625 592.7228393554688Q423.2294921875 590.1987915039062 421.79339599609375 586.8696594238281Q420.3572998046875 583.54052734375 420.3572998046875 579.7544555664062Q420.3572998046875 575.9683837890625 421.79339599609375 572.6392517089844Q423.2294921875 569.3101196289062 425.7535400390625 566.7860717773438Q428.277587890625 564.2620239257812 431.6067199707031 562.825927734375Q434.93585205078125 561.3898315429688 438.721923828125 561.3898315429688Q442.50799560546875 561.3898315429688 445.8371276855469 562.825927734375Q449.166259765625 564.2620239257812 451.6903076171875 566.7860717773438Q454.21435546875 569.3101196289062 455.65045166015625 572.6392517089844Q457.0865478515625 575.9683837890625 457.0865478515625 579.7544555664062Z" fill="#000000" />
<path d="M815 227Q815 247 793.0 259.0Q771 271 734.5 280.5Q698 290 655 301Q644 303 629.5 306.5Q615 310 615 310Q582 302 555 323Q543 335 526 332Q509 330 500 315Q489 298 496.5 270.0Q504 242 529.0 213.0Q554 184 594 166Q623 154 660.5 155.5Q698 157 733.0 167.5Q768 178 791.5 194.0Q815 210 815 227Z" fill="#a57939" />
</g></svg>