<svg xmlns="http://www.w3.org/2000/svg" viewBox="0 0 2048 2048">
<g transform="matrix(1 0 0 -1 0 2048)">
<path d="M807 532V-55H220V532Z" fill="#ffffff" />
<path d="M1100 825V238H513V825Z" fill="#ffffff" />
<path d="M495 825V238Q495 220 513 220H1100Q1118 220 1118 238V825Q1118 843 1100 843H513Q495 843 495 825ZM532 807H1082V257H532Z" fill="#000000" />
<path d="M431 495Q449 495 449 513Q449 532 431 532H202Q183 532 183 513V-73Q183 -92 202 -92H788Q807 -92 807 -73V147Q807 165 788 165Q770 165 770 147V-55H220V495Z" fill="#000000" />
</g></svg>