<svg xmlns="http://www.w3.org/2000/svg" viewBox="0 0 2048 2048">
<g transform="matrix(1 0 0 -1 0 2048)">
<path d="M1081.144287109375 384.95050048828125Q1081.144287109375 472.156982421875 1048.5616455078125 548.822021484375Q1015.97900390625 625.487060546875 958.0010681152344 683.4649963378906Q900.0231323242188 741.4429321289062 823.3580932617188 774.0255737304688Q746.6930541992188 806.6082153320312 659.486572265625 806.6082153320312Q572.2800903320312 806.6082153320312 495.61505126953125 774.0255737304688Q418.95001220703125 741.4429321289062 360.9720764160156 683.4649963378906Q302.994140625 625.487060546875 270.4114990234375 548.822021484375Q237.828857421875 472.156982421875 237.828857421875 384.95050048828125Q237.828857421875 297.7440185546875 270.4114990234375 221.0789794921875Q302.994140625 144.4139404296875 360.9720764160156 86.43600463867188Q418.95001220703125 28.45806884765625 495.61505126953125 -4.12457275390625Q572.2800903320312 -36.70721435546875 659.486572265625 -36.70721435546875Q746.6930541992188 -36.70721435546875 823.3580932617188 -4.12457275390625Q900.0231323242188 28.45806884765625 958.0010681152344 86.43600463867188Q1015.97900390625 144.4139404296875 1048.5616455078125 221.0789794921875Q1081.144287109375 297.7440185546875 1081.144287109375 384.95050048828125Z" fill="#ea5a47" />
<path d="M758 147H791Q817 147 835.0 165.5Q853 184 853 210Q853 236 835.0 254.5Q817 273 791 273H529Q503 273 485.0 254.5Q467 236 467 210Q467 184 485.0 165.5Q503 147 529 147H595Z" fill="#000000" />
<path d="M924 300Q939 285 960 285Q982 285 997.0 300.0Q1012 315 1012 337Q1012 359 1001.0 379.5Q990 400 979.0 413.5Q968 427 967 427Q960 434 953 427Q953 427 941.5 413.5Q930 400 919.5 379.5Q909 359 909 337Q909 315 924 300Z" fill="#92d3f5" />
<path d="M764 223Q715 244 663.5 245.5Q612 247 556 223Q556 168 570.0 122.0Q584 76 607.5 49.0Q631 22 660 22Q689 22 712.5 49.0Q736 76 750.0 122.0Q764 168 764 223Z" fill="#ffa7c0" />
<path d="M1100 385Q1100 567 971 696Q842 825 660 825Q478 825 349 696Q220 567 220 385Q220 203 349 74Q478 -55 660 -55Q842 -55 971 74Q1100 203 1100 385ZM1063 385Q1063 218 945 100Q827 -18 660 -18Q493 -18 375 100Q257 218 257 385Q257 552 375 670Q493 788 660 788Q827 788 945 670Q1063 552 1063 385Z" fill="#000000" />
<path d="M550 478Q550 501 534.0 517.0Q518 533 495 533Q472 533 456.0 517.0Q440 501 440 478Q440 456 456.0 439.5Q472 423 495 423Q518 423 534.0 439.5Q550 456 550 478Z" fill="#000000" />
<path d="M880 477Q880 500 864.0 516.0Q848 532 825 532Q802 532 786.0 516.0Q770 500 770 477Q770 455 786.0 438.5Q802 422 825 422Q848 422 864.0 438.5Q880 455 880 477Z" fill="#000000" />
<path d="M388 588Q370 593 365 575Q360 558 378 553Q433 537 485 562Q529 584 551 628Q559 644 542 652Q526 660 518 644Q501 611 469 595Q430 576 388 588Z" fill="#000000" />
<path d="M943 553Q951 555 955 561Q958 567 955 575Q950 593 932 588Q890 576 851 595Q819 611 803 644Q794 660 778 652Q770 648 768 642Q766 636 770 628Q792 584 835 562Q887 537 943 553Z" fill="#000000" />
<path d="M782 223Q782 240 767 241Q766 242 764 242Q647 278 550 240Q538 236 538 223Q538 135 570 72Q606 3 660 3Q714 3 750 72Q782 135 782 223ZM745 210Q743 139 717 89Q692 40 660 40Q628 40 603 89Q577 140 575 210Q652 236 745 210Z" fill="#000000" />
<path d="M910 288Q911 287 911 287Q931 267 960 267Q1030 267 1030 337Q1030 390 980 440Q972 449 960 449Q949 449 941 440Q890 391 890 337Q890 308 910 288ZM937 313Q927 323 927 337Q927 372 960 408Q994 372 994 337Q994 303 960 303Q947 303 937 313Q937 313 937 313Z" fill="#000000" />
<path d="M579 130V162H528Q482 162 482 211Q482 261 528 261H792Q838 261 838 211Q838 162 792 162H743V130H792Q824 130 847 154Q870 178 870 211Q870 245 847 268Q824 293 792 293H528Q496 293 473 268Q451 245 450 211Q451 178 473 154Q496 130 528 130Z" fill="#000000" />
</g></svg>