<svg xmlns="http://www.w3.org/2000/svg" viewBox="0 0 2048 2048">
<g transform="matrix(1 0 0 -1 0 2048)">
<path d="M884 727H883H881Q877 726 870 726Q857 725 851 724Q800 716 752 696Q650 653 557 592Q508 563 475 516Q468 507 459 502H458V501Q452 497 440 491Q432 486 428 484Q400 468 393 436Q389 418 374 408H373Q368 404 363 399Q304 351 312 276Q313 239 337 211V210Q348 198 360 188Q379 173 385 150Q395 115 410 82Q441 6 522 7Q539 7 572 9H575H576Q598 12 615 -2Q624 -10 636 -14H637H638Q667 -21 693 -5Q724 12 748 39Q754 45 762 43Q788 37 812 49L813 50Q851 73 865 114Q872 133 876 153V154Q881 179 900 196Q911 206 920 216Q937 234 941 258V259Q945 302 941 346Q938 383 946 420Q968 499 978 540Q991 591 980 643Q966 706 919 720H918Q902 725 884 727ZM882 690Q896 688 909 685Q935 677 944 635Q953 592 942 549Q933 507 911 429V428Q901 386 905 342Q908 303 904 263Q902 250 893 241Q885 232 876 224Q847 198 840 161Q836 143 830 127Q820 97 794 81Q783 76 771 79Q741 86 721 63Q701 41 675 27L674 26Q661 18 646 21Q642 23 639 26Q610 50 572 46Q571 46 570 46Q538 44 522 44Q465 43 444 96L443 97Q429 128 420 160Q411 194 383 217Q373 225 365 234Q349 253 349 278L348 279Q342 336 386 371L387 372H388Q391 375 395 378Q422 396 428 428Q432 444 446 452H447Q450 454 458 459Q471 466 478 470Q493 479 504 493L505 494Q533 535 576 561H577Q667 620 766 662Q810 680 857 688Q861 688 873 689Q878 690 882 690Z" fill="#000000" />
<path d="M631 -108Q657 -107 681 -95Q723 -74 757 -41Q770 -28 787 -33Q820 -40 850 -25Q900 1 921 53Q930 77 936 102Q944 137 972 158Q986 170 999 183Q1021 204 1027 233Q1033 276 1029 320Q1028 325 1028.0 330.5Q1028 336 1028 342Q1023 390 1035 436Q1046 471 1057.5 510.0Q1069 549 1079 589Q1097 652 1082 717Q1063 793 1001 810Q984 814 966 816Q958 817 955 818H953H951Q947 817 943.0 817.0Q939 817 935 817Q928 816 922.0 815.5Q916 815 910 814Q840 804 773 780Q631 726 501 650Q433 615 387 554Q376 543 363 537L361 535Q355 532 348.5 528.5Q342 525 336 522Q331 520 327.0 518.0Q323 516 319 513Q283 496 272 457Q266 431 243 418Q237 415 232 410L229 408Q192 382 173.0 341.0Q154 300 159 256Q161 209 193 175Q207 160 224 148Q252 129 261 97Q275 53 296 12Q317 -30 358.0 -54.5Q399 -79 447 -77Q465 -77 482.5 -76.5Q500 -76 517 -75H520Q554 -71 582 -91Q595 -101 610 -105Q620 -108 631 -108Z" fill="#a57939" />
<path d="M654 -17Q674 -16 692 -6Q723 12 748 38Q753 44 764 43Q790 37 813 50Q851 73 865 114Q872 134 876 153Q881 179 900 196Q911 205 920 216Q937 234 941 258Q945 292 942 327Q942 331 941.5 335.5Q941 340 941 345Q938 382 946 419Q954 447 962.5 478.0Q971 509 978 540Q991 591 980 643Q966 706 919 720Q906 724 893 725Q889 726 886 726L883 727L870 726Q858 725 851 724Q800 716 752 696Q650 653 557 592Q507 563 475 515Q467 507 458 501Q454 498 449.5 495.5Q445 493 440 491Q437 489 434.0 487.5Q431 486 428 484Q400 468 393 436Q389 418 374 408Q369 405 365 401L363 399Q335 377 321.5 344.0Q308 311 312 276Q313 239 337 210Q348 198 360 188Q379 173 385 149Q395 115 410 82Q424 48 455.0 27.5Q486 7 522 7H523Q535 7 547.5 8.0Q560 9 572 9H575Q597 12 615 -2Q632 -17 654 -17Z" fill="#ffffff" />
<path d="M588 117Q603 117 618 121Q659 131 696.0 165.0Q733 199 764.5 246.0Q796 293 821.0 343.5Q846 394 864.0 439.0Q882 484 892.5 513.5Q903 543 904 547Q907 556 900 564Q894 572 884 572Q845 573 825 606Q821 613 813.0 614.5Q805 616 798 612Q795 610 769.5 593.0Q744 576 706.0 548.5Q668 521 625.5 486.0Q583 451 544.5 411.5Q506 372 480.0 331.5Q454 291 449 254Q443 204 479 170Q522 120 588 117Z" fill="#f4aa41" />
<path d="M660.234619140625 366.7017822265625Q660.234619140625 385.6162109375 653.0601806640625 402.24786376953125Q645.8857421875 418.8795166015625 633.276123046875 431.4891357421875Q620.66650390625 444.0987548828125 604.0348510742188 451.273193359375Q587.4031982421875 458.4476318359375 568.48876953125 458.4476318359375Q549.5743408203125 458.4476318359375 532.9426879882812 451.273193359375Q516.31103515625 444.0987548828125 503.701416015625 431.4891357421875Q491.091796875 418.8795166015625 483.9173583984375 402.24786376953125Q476.742919921875 385.6162109375 476.742919921875 366.7017822265625Q476.742919921875 347.787353515625 483.9173583984375 331.15570068359375Q491.091796875 314.5240478515625 503.701416015625 301.9144287109375Q516.31103515625 289.3048095703125 532.9426879882812 282.13037109375Q549.5743408203125 274.9559326171875 568.48876953125 274.9559326171875Q587.4031982421875 274.9559326171875 604.0348510742188 282.13037109375Q620.66650390625 289.3048095703125 633.276123046875 301.9144287109375Q645.8857421875 314.5240478515625 653.0601806640625 331.15570068359375Q660.234619140625 347.787353515625 660.234619140625 366.7017822265625Z" fill="#ffffff" />
<path d="M538 446Q562 453 586.5 445.5Q611 438 627 417Q643 397 644.5 371.5Q646 346 634 324Q621 302 598.0 290.5Q575 279 549 283Q554 284 558 286Q584 297 598.5 321.5Q613 346 609 374Q606 402 586.0 422.0Q566 442 538 446Z" fill="#d0cfce" />
<path d="M884 727H883H881Q877 726 870 726Q857 725 851 724Q800 716 752 696Q650 653 557 592Q508 563 475 516Q468 507 459 502H458V501Q452 497 440 491Q432 486 428 484Q400 468 393 436Q389 418 374 408H373Q368 404 363 399Q304 351 312 276Q313 239 337 211V210Q348 198 360 188Q379 173 385 150Q395 115 410 82Q441 6 522 7Q539 7 572 9H575H576Q598 12 615 -2Q624 -10 636 -14H637H638Q667 -21 693 -5Q724 12 748 39Q754 45 762 43Q788 37 812 49L813 50Q851 73 865 114Q872 133 876 153V154Q881 179 900 196Q911 206 920 216Q937 234 941 258V259Q945 302 941 346Q938 383 946 420Q968 499 978 540Q991 591 980 643Q966 706 919 720H918Q902 725 884 727ZM882 690Q896 688 909 685Q935 677 944 635Q953 592 942 549Q933 507 911 429V428Q901 386 905 342Q908 303 904 263Q902 250 893 241Q885 232 876 224Q847 198 840 161Q836 143 830 127Q820 97 794 81Q783 76 771 79Q741 86 721 63Q701 41 675 27L674 26Q661 18 646 21Q642 23 639 26Q610 50 572 46Q571 46 570 46Q538 44 522 44Q465 43 444 96L443 97Q429 128 420 160Q411 194 383 217Q373 225 365 234Q349 253 349 278L348 279Q342 336 386 371L387 372H388Q391 375 395 378Q422 396 428 428Q432 444 446 452H447Q450 454 458 459Q471 466 478 470Q493 479 504 493L505 494Q533 535 576 561H577Q667 620 766 662Q810 680 857 688Q861 688 873 689Q878 690 882 690Z" fill="#d0cfce" />
<path d="M954 818H953H951Q945 817 935 817Q918 816 910 814Q839 804 772 780Q631 726 501 650Q434 615 387 555Q376 543 362 536L361 535Q353 530 336 522Q325 517 319 514Q283 496 272 457V456Q266 431 243 419V418H242Q235 413 229 408Q149 353 159 256Q161 210 193 175Q207 160 224 148Q251 129 261 97Q275 54 296 13Q342 -81 447 -77Q471 -77 517 -75H520H521Q555 -71 583 -92Q595 -101 610 -105H611Q648 -113 682 -94Q724 -73 757 -41Q769 -29 786 -33Q818 -40 849 -26Q900 1 921 53Q930 77 936 102Q944 137 972 158Q986 169 999 182Q1021 203 1027 233V234V235Q1033 289 1028 343Q1023 390 1035 437Q1066 536 1079 588Q1097 652 1082 717Q1063 793 1001 810Q978 815 954 818ZM952 781Q972 779 992 774Q1033 763 1047 708Q1059 653 1044 598Q1031 546 1000 447V446Q986 394 991 339Q996 289 991 240Q987 222 974 209H973Q962 197 949 187Q911 158 900 110Q895 88 887 67Q871 27 833 7Q814 -2 794 3Q758 11 732 -14Q702 -43 665 -62H664Q643 -74 619 -69Q611 -67 605 -62Q565 -33 517 -38H515Q469 -41 447 -41H446Q365 -44 329 29Q309 68 296 109Q283 152 246 178Q231 188 219 201Q197 225 195 258V259Q187 335 250 378L251 379H252Q257 383 262 387Q297 408 307 447Q314 470 336 481Q341 484 352 489Q370 498 380 504Q400 514 415 531V532H416Q458 586 518 617V618H519Q647 693 785 745Q848 769 915 778Q922 779 938 780Q946 781 952 781Z" fill="#000000" />
<path d="M819 579Q827 584 829 591Q830 598 825 606Q814 622 798 612Q692 544 598 462Q590 456 590 449Q589 442 596 435Q609 420 623 433Q716 513 819 579Z" fill="#000000" />
<path d="M509 305Q519 322 502 332Q494 337 487 335Q481 333 476 325Q419 229 479 170Q562 87 652 134Q720 170 785 278Q858 399 904 547Q907 556 903 562Q900 568 891 571Q872 577 867 558Q822 415 752 298Q692 199 634 169Q569 135 506 197Q468 236 509 305Z" fill="#000000" />
<path d="M682 366Q682 413 649 447Q616 480 568 480Q521 480 488 447Q454 413 454 366Q454 319 488 286Q521 252 568 252Q616 252 649 286Q682 319 682 366ZM638 366Q638 338 617 317Q597 297 568 297Q540 297 519 317Q499 338 499 366Q499 436 568 436Q597 436 617 415Q638 395 638 366Z" fill="#000000" />
</g></svg>