<svg xmlns="http://www.w3.org/2000/svg" viewBox="0 0 2048 2048">
<g transform="matrix(1 0 0 -1 0 2048)">
<path d="M202 642V128H1118V642Z" fill="#d0cfce" />
<path d="M1118 128V642H669L929 128Z" fill="#9b9b9a" />
<path d="M293 550V345H898V550Z" fill="#b1cc33" />
<path d="M898 345V550H657L761 345Z" fill="#5c9e31" />
<path d="M183 128Q183 110 202 110Q220 110 220 128V642Q220 660 202 660Q183 660 183 642Z" fill="#000000" />
<path d="M1118 110Q1137 110 1137 128Q1137 147 1118 147H202Q183 147 183 128Q183 110 202 110Z" fill="#000000" />
<path d="M1137.0 642.0Q1137.0 660.0 1118.0 660.0Q1100.0 660.0 1100.0 642.0V128.0Q1100.0 110.0 1118.0 110.0Q1137.0 110.0 1137.0 128.0Z" fill="#000000" />
<path d="M202.0 660.0Q183.0 660.0 183.0 642.0Q183.0 623.0 202.0 623.0H1118.0Q1137.0 623.0 1137.0 642.0Q1137.0 660.0 1118.0 660.0Z" fill="#000000" />
<path d="M277 345Q277 328 293 328Q310 328 310 345V550Q310 567 293 567Q277 567 277 550Z" fill="#000000" />
<path d="M898 328Q915 328 915 345Q915 361 898 361H293Q277 361 277 345Q277 328 293 328Z" fill="#000000" />
<path d="M915.0 550.0Q915.0 567.0 899.0 567.0Q882.0 567.0 882.0 550.0V345.0Q882.0 328.0 899.0 328.0Q915.0 328.0 915.0 345.0Z" fill="#000000" />
<path d="M294.0 567.0Q277.0 567.0 277.0 550.0Q277.0 534.0 294.0 534.0H899.0Q915.0 534.0 915.0 550.0Q915.0 567.0 899.0 567.0Z" fill="#000000" />
<path d="M414.85687255859375 236.14495849609375Q414.85687255859375 246.2747802734375 409.8778076171875 254.60183715820312Q404.89874267578125 262.92889404296875 396.5716857910156 267.907958984375Q388.24462890625 272.88702392578125 378.11480712890625 272.88702392578125Q367.9849853515625 272.88702392578125 359.6579284667969 267.907958984375Q351.33087158203125 262.92889404296875 346.4376525878906 254.60183715820312Q341.54443359375 246.2747802734375 341.54443359375 236.14495849609375Q341.54443359375 226.18682861328125 346.4376525878906 217.85977172851562Q351.33087158203125 209.53271484375 359.6579284667969 204.55364990234375Q367.9849853515625 199.5745849609375 378.11480712890625 199.5745849609375Q388.24462890625 199.5745849609375 396.5716857910156 204.55364990234375Q404.89874267578125 209.53271484375 409.8778076171875 217.85977172851562Q414.85687255859375 226.18682861328125 414.85687255859375 236.14495849609375Z" fill="#000000" />
<path d="M561.8568725585938 236.14495849609375Q561.8568725585938 246.2747802734375 556.8778076171875 254.60183715820312Q551.8987426757812 262.92889404296875 543.5716857910156 267.907958984375Q535.24462890625 272.88702392578125 525.1148071289062 272.88702392578125Q514.9849853515625 272.88702392578125 506.6579284667969 267.907958984375Q498.33087158203125 262.92889404296875 493.4376525878906 254.60183715820312Q488.54443359375 246.2747802734375 488.54443359375 236.14495849609375Q488.54443359375 226.18682861328125 493.4376525878906 217.85977172851562Q498.33087158203125 209.53271484375 506.6579284667969 204.55364990234375Q514.9849853515625 199.5745849609375 525.1148071289062 199.5745849609375Q535.24462890625 199.5745849609375 543.5716857910156 204.55364990234375Q551.8987426757812 209.53271484375 556.8778076171875 217.85977172851562Q561.8568725585938 226.18682861328125 561.8568725585938 236.14495849609375Z" fill="#000000" />
<path d="M708.8568725585938 236.14495849609375Q708.8568725585938 246.2747802734375 703.8778076171875 254.60183715820312Q698.8987426757812 262.92889404296875 690.5716857910156 267.907958984375Q682.24462890625 272.88702392578125 672.1148071289062 272.88702392578125Q661.9849853515625 272.88702392578125 653.6579284667969 267.907958984375Q645.3308715820312 262.92889404296875 640.4376525878906 254.60183715820312Q635.54443359375 246.2747802734375 635.54443359375 236.14495849609375Q635.54443359375 226.18682861328125 640.4376525878906 217.85977172851562Q645.3308715820312 209.53271484375 653.6579284667969 204.55364990234375Q661.9849853515625 199.5745849609375 672.1148071289062 199.5745849609375Q682.24462890625 199.5745849609375 690.5716857910156 204.55364990234375Q698.8987426757812 209.53271484375 703.8778076171875 217.85977172851562Q708.8568725585938 226.18682861328125 708.8568725585938 236.14495849609375Z" fill="#000000" />
</g></svg>