<svg xmlns="http://www.w3.org/2000/svg" viewBox="0 0 2048 2048">
<g transform="matrix(1 0 0 -1 0 2048)">
<path d="M999 112 276 87V291V844H1027V150Z" fill="#9b9b9a" />
<path d="M293 291V844H1027V150Z" fill="#9b9b9a" />
<path d="M879 346 972 104 900 95 840 87 269 10 254 208Z" fill="#d0cfce" />
<path d="M1008 150Q1008 132 1027 132Q1045 132 1045 150V844Q1045 862 1027 862H293Q275 862 275 844V291Q275 273 293 273Q312 273 312 291V826H1008Z" fill="#000000" />
<path d="M876 363 250 226Q234 223 235 207L250 9Q251 0 256 -5Q261 -9 270 -8Q271 -8 271 -8L843 68L903 76L974 86Q992 88 990 107Q990 109 989 111L897 352Q891 367 876 363ZM868 324 946 119 898 113 838 105 285 31 273 194Z" fill="#000000" />
<path d="M378 770Q360 770 360 752Q360 733 378 733H660Q678 733 678 752Q678 770 660 770Z" fill="#000000" />
<path d="M378 672Q360 672 360 654Q360 636 378 636H947Q965 636 965 654Q965 672 947 672Z" fill="#000000" />
<path d="M378 472Q360 472 360 454Q360 436 378 436H947Q965 436 965 454Q965 472 947 472Z" fill="#000000" />
<path d="M377.74652099609375 373.19683837890625Q359.83331298828125 373.19683837890625 359.83331298828125 355.28363037109375Q359.83331298828125 336.375244140625 377.74652099609375 336.375244140625H612.6085815429688Q630.5217895507812 336.375244140625 630.5217895507812 355.28363037109375Q630.5217895507812 373.19683837890625 612.6085815429688 373.19683837890625Z" fill="#000000" />
<path d="M378 571Q360 571 360 553Q360 535 378 535H947Q965 535 965 553Q965 571 947 571Z" fill="#000000" />
<path d="M1045 159Q1045 177 1027 177Q1008 177 1008 159Q1008 122 972 122Q953 122 953 104Q953 86 972 86Q1002 86 1024 107Q1045 129 1045 159Z" fill="#000000" />
</g></svg>