<svg xmlns="http://www.w3.org/2000/svg" viewBox="0 0 2048 2048">
<g transform="matrix(1 0 0 -1 0 2048)">
<path d="M1002 -90Q1001 -89 1002.0 -70.5Q1003 -52 1001.0 -22.5Q999 7 990.5 39.5Q982 72 963.0 101.0Q944 130 910.0 148.5Q876 167 823 167Q779 138 735.0 118.5Q691 99 649 99H650Q608 99 568.5 117.5Q529 136 485 165Q430 165 394.5 146.5Q359 128 339.0 99.0Q319 70 309.5 37.5Q300 5 298.0 -24.0Q296 -53 297.0 -71.5Q298 -90 298 -90Z" fill="#92d3f5" />
<path d="M822 178Q877 178 912.5 158.5Q948 139 968.0 108.5Q988 78 996.5 44.0Q1005 10 1007.0 -20.5Q1009 -51 1007.5 -70.5Q1006 -90 1006 -90H913Q909 -68 904.0 -41.5Q899 -15 887.0 11.5Q875 38 849.0 60.0Q823 82 777.5 96.5Q732 111 660 114Q750 124 822 178Z" fill="#61b2e4" />
<path d="M918 688Q887 696 865.0 713.0Q843 730 824.5 750.0Q806 770 784.0 788.5Q762 807 732.0 819.0Q702 831 656 831Q610 831 579.5 818.5Q549 806 527.5 787.5Q506 769 487.5 748.5Q469 728 447.0 711.0Q425 694 394 686Q383 683 382.5 671.0Q382 659 388.0 645.0Q394 631 401 622L438 578L440 576Q453 595 473 609L487 618Q472 628 460 640H847Q835 628 823 618L834 611Q854 595 869 574H870L911 623Q918 633 924.0 647.0Q930 661 929.5 673.0Q929 685 918 688ZM658 680Q643 680 633.5 691.0Q624 702 619.0 716.5Q614 731 612.5 742.5Q611 754 612 754Q633 768 658.0 767.5Q683 767 704 752Q704 752 702.0 741.0Q700 730 695.0 716.0Q690 702 681.0 691.0Q672 680 658 680Z" fill="#92d3f5" />
<path d="M658 680Q672 680 681.0 691.0Q690 702 695.0 716.0Q700 730 702.0 740.5Q704 751 704 750Q684 766 658.0 766.5Q632 767 612 752Q612 752 613.5 741.0Q615 730 620.0 716.0Q625 702 634.0 691.0Q643 680 658 680Z" fill="#fcea2b" />
<path d="M782 792Q787 780 803.0 765.0Q819 750 840.5 734.5Q862 719 882.5 706.0Q903 693 916.5 685.0Q930 677 929 677Q930 654 920.0 636.0Q910 618 896.5 606.0Q883 594 873.0 587.5Q863 581 863 581L832 636L735 642Q754 642 764.5 657.0Q775 672 779.5 694.5Q784 717 784.0 739.5Q784 762 783.0 777.0Q782 792 782 792Z" fill="#61b2e4" />
<path d="M619 576Q688 567 755 587Q792 597 823 620Q837 628 847 642H460Q467 636 473.0 630.5Q479 625 487 620Q548 582 619 576Z" fill="#3f3f3f" />
<path d="M815 163Q773 136 734.5 118.0Q696 100 656 99H654L700 51L748 2Z" fill="#92d3f5" />
<path d="M652 99Q611 100 572.0 118.0Q533 136 491 165L557 2L605 50Z" fill="#92d3f5" />
<path d="M862 162Q884 167 906.0 156.5Q928 146 942.5 134.0Q957 122 957 122L862 -92H762L862 162Z" fill="#fcea2b" />
<path d="M217 326V52H410V326Z" fill="#d0cfce" />
<path d="M859 435Q859 435 853.5 449.5Q848 464 838.0 486.0Q828 508 815.0 530.0Q802 552 786.0 567.5Q770 583 753 585Q686 565 617 574Q560 564 515.0 527.5Q470 491 447 438Q453 373 482.0 320.5Q511 268 555.5 237.5Q600 207 654 207Q707 207 752.0 237.5Q797 268 826.0 320.0Q855 372 861 436ZM766 493Q766 478 755.0 467.5Q744 457 729 457Q714 457 703.5 467.5Q693 478 693 493Q693 508 703.5 519.0Q714 530 729 530Q744 530 755.0 519.0Q766 508 766 493ZM619 493Q619 478 608.5 467.5Q598 457 583 457Q567 457 556.5 467.5Q546 478 546 493Q546 508 556.5 519.0Q567 530 583 530Q598 530 608.5 519.0Q619 508 619 493Z" fill="#fcea2b" />
<path d="M861 436Q894 479 889.5 514.0Q885 549 869 572Q854 593 834 609L821 618Q790 595 753 585Q770 584 786.0 568.5Q802 553 815.0 530.5Q828 508 838.0 486.0Q848 464 853.5 449.5Q859 435 859 435Z" fill="#f4aa41" />
<path d="M449 440Q472 494 518.0 530.0Q564 566 621 576Q550 582 489 620L474 609Q455 595 441 576Q429 560 421.5 538.5Q414 517 418.5 491.0Q423 465 447 435Q447 437 449 440Z" fill="#f4aa41" />
<path d="M878 148Q885 165 869 172Q852 179 845 163L749 -66Q742 -83 759 -90Q776 -97 783 -80Z" fill="#000000" />
<path d="M963 108Q970 125 954 133Q937 140 929 123L846 -66Q839 -83 855 -90Q872 -97 880 -81Z" fill="#000000" />
<path d="M404 169Q395 165 393 159Q390 154 393 145Q399 128 417 134Q450 147 485 147Q584 83 653 81Q654 81 654 81H656Q725 81 823 146Q824 147 824 147Q944 145 976 40Q993 -15 984 -71Q981 -89 1000 -91Q1018 -94 1020 -76Q1030 -12 1011 51Q970 183 819 183Q812 183 807 180Q806 179 805 178Q715 117 656 117H654Q594 120 501 180Q496 183 491 183Q446 184 404 169Z" fill="#000000" />
<path d="M289 -76Q292 -94 310 -92Q319 -90 323 -85Q327 -80 326 -71Q318 -11 336 46Q342 64 324 69Q306 75 301 57Q281 -8 289 -76Z" fill="#000000" />
<path d="M508 172Q501 189 484 182Q475 178 473 172Q470 166 474 158L542 -5Q545 -14 551 -16Q557 -19 566 -15Q569 -14 572 -11L620 39L665 86Q678 100 665 112Q652 125 639 112L593 64L565 35Z" fill="#000000" />
<path d="M687.5258178710938 38.60809326171875Q699.771484375 25.69976806640625 713.5956420898438 38.88580322265625Q726.4335327148438 51.058349609375 713.1687622070312 64.95880126953125L665.2544555664062 112.591552734375Q652.006103515625 125.48919677734375 639.1846313476562 112.3138427734375Q626.3631591796875 99.13848876953125 639.6115112304688 86.2408447265625Z" fill="#000000" />
<path d="M834 165Q834 183 815 183Q798 183 797 167L741 35L713 64Q700 77 687 65Q674 52 687 39L734 -11Q737 -14 740 -15Q757 -22 764 -5L832 156Q834 159 834 163Z" fill="#000000" />
<path d="M491 -62Q498 -62 503.5 -57.0Q509 -52 509 -44Q510 -36 504 -31Q499 -25 491 -26H385Q377 -26 371.5 -31.0Q366 -36 366 -44Q366 -52 371.5 -57.0Q377 -62 385 -62Z" fill="#000000" />
<path d="M656 310Q690 310 720 326Q729 331 730 341Q730 352 721 357Q713 363 704 358Q657 331 610 358Q595 365 587 350Q578 335 594 326Q623 310 656 310Z" fill="#000000" />
<path d="M766.0 493.0Q766.0 508.0 755.5 518.5Q745.0 529.0 729.0 530.0Q714.0 530.0 703.5 519.0Q693.0 508.0 693.0 493.0Q693.0 478.0 703.5 467.0Q714.0 456.0 729.0 456.0Q745.0 456.0 755.5 467.0Q766.0 478.0 766.0 493.0Z" fill="#000000" />
<path d="M619.0 493.0Q619.0 508.0 608.5 518.5Q598.0 529.0 582.0 530.0Q567.0 530.0 556.5 519.0Q546.0 508.0 546.0 493.0Q546.0 478.0 556.5 467.0Q567.0 456.0 582.0 456.0Q598.0 456.0 608.5 467.0Q619.0 478.0 619.0 493.0Z" fill="#000000" />
<path d="M656 189Q714 189 762.5 221.5Q811 254 843.0 310.5Q875 367 881 438Q884 454 883 469H847Q847 462 846.0 455.5Q845 449 845 442Q839 380 812.5 331.5Q786 283 745.0 255.0Q704 227 656 227Q607 227 566.0 256.0Q525 285 498.5 334.5Q472 384 467 446L430 442Q436 369 467.5 312.0Q499 255 548.0 222.0Q597 189 656 189Z" fill="#000000" />
<path d="M447 416Q458 417 462 427Q481 479 523.5 513.5Q566 548 621 556Q629 556 634 562Q639 568 638 576Q638 584 631 589Q625 594 617 592Q562 584 516.0 552.0Q470 520 443 471Q430 494 434 521Q443 566 482 592L496 603Q502 608 503.5 615.5Q505 623 500 629Q495 635 487.5 636.0Q480 637 474 633L462 623Q411 588 399 528Q392 468 432 424Q437 416 447 416Z" fill="#000000" />
<path d="M661 554H678Q737 555 785.5 574.5Q834 594 861 627Q868 637 863 647Q859 658 847 658H460Q448 658 443 647Q437 636 447 627Q481 593 539.0 573.5Q597 554 661 554ZM518 622H795Q740 591 676 590Q593 586 518 622Z" fill="#000000" />
<path d="M870 554Q878 555 885 559L925 609Q935 620 944.0 641.0Q953 662 947 680Q941 697 924 702Q895 709 875.0 726.0Q855 743 836 763Q817 783 794.5 802.5Q772 822 739.0 834.5Q706 847 658 847Q609 847 576.5 834.0Q544 821 521.5 801.5Q499 782 480 763Q444 720 392 702Q374 698 368 680Q363 662 371.5 641.0Q380 620 390 609L427 565Q439 552 452 563Q465 575 454 589L418 633Q405 648 403 667Q439 677 462.0 696.5Q485 716 506 737Q524 756 543.5 773.0Q563 790 589.5 800.0Q616 810 658 810Q698 810 725.0 799.5Q752 789 772.0 772.0Q792 755 810 737Q830 716 853.5 696.5Q877 677 913 667Q910 648 898 633L858 583Q852 577 853 570Q854 562 859 557Q864 554 870 554Z" fill="#000000" />
<path d="M861 416Q870 416 876 422Q916 466 909 526Q899 587 848 622L836 631Q822 642 810 628Q799 615 812 603L825 592Q863 566 872 521Q875 497 865 475Q855 500 839.0 529.0Q823 558 802.0 579.5Q781 601 757 603Q749 604 743 599Q737 594 737 587Q735 579 740 573Q745 566 753 567Q768 566 785.5 543.0Q803 520 818.5 488.5Q834 457 843 429Q846 418 858 416Z" fill="#000000" />
<path d="M658 662Q678 662 690.0 674.0Q702 686 709.0 702.5Q716 719 718.5 732.5Q721 746 722 750Q722 758 716 765Q698 782 663.0 784.5Q628 787 601 766Q593 760 594 750Q594 746 596.5 732.5Q599 719 606.0 702.5Q613 686 625.5 674.0Q638 662 658 662ZM658 699Q648 699 641.5 714.0Q635 729 632 743Q658 754 683 743Q681 730 675.0 714.5Q669 699 658 699Z" fill="#000000" />
<path d="M729 530Q714 530 703.5 519.5Q693 509 692 493Q692 478 703.0 467.5Q714 457 729 457Q744 457 755.0 467.5Q766 478 766 493Q766 509 755.0 519.5Q744 530 729 530Z" fill="#000000" />
<path d="M582 530Q567 530 556.5 519.5Q546 509 545 493Q545 478 556.0 467.5Q567 457 582 457Q597 457 608.0 467.5Q619 478 619 493Q619 509 608.0 519.5Q597 530 582 530Z" fill="#000000" />
<path d="M392 151Q392 133 410 133Q429 133 429 151V326Q429 345 410 345H217Q198 345 198 326V52Q198 33 217 33H318Q337 33 337 52Q337 70 318 70H235V308H392Z" fill="#000000" />
<path d="M318 70Q300 70 300 52Q300 33 318 33H410Q429 33 429 52V151Q429 170 410 170Q392 170 392 151V70Z" fill="#000000" />
</g></svg>