<svg xmlns="http://www.w3.org/2000/svg" viewBox="0 0 2048 2048">
<g transform="matrix(1 0 0 -1 0 2048)">
<path d="M1247 183H1228Q1173 183 1136.0 175.0Q1099 167 1070.5 156.0Q1042 145 1015.0 136.5Q988 128 953 128Q908 128 861.0 142.0Q814 156 764.5 169.5Q715 183 660 183Q619 183 583.0 175.0Q547 167 513.0 156.0Q479 145 443.5 136.5Q408 128 367 128Q312 128 259.0 142.0Q206 156 162.5 169.5Q119 183 92 183H73V-202H1247Z" fill="#92d3f5" />
<path d="M688 853Q688 860 682.5 865.5Q677 871 669 871H633Q625 871 619.5 865.5Q614 860 614 853V761H688Z" fill="#3f3f3f" />
<path d="M897 477 788 749Q783 761 771 761H531Q518 761 514 749L405 477Z" fill="#ffffff" />
<path d="M1008 408H293Q333 391 359.0 355.0Q385 319 400.5 272.5Q416 226 425.5 176.0Q435 126 442.0 80.5Q449 35 457.0 2.0Q465 -31 479 -44Q498 -62 527.5 -77.0Q557 -92 587.0 -103.0Q617 -114 638 -120Q641 -122 644.5 -123.0Q648 -124 651 -124Q654 -124 657.0 -123.0Q660 -122 664 -120Q685 -114 715.0 -103.0Q745 -92 774.5 -77.0Q804 -62 823 -44Q836 -31 844.0 2.0Q852 35 859.0 80.5Q866 126 875.5 176.0Q885 226 901.0 272.5Q917 319 943.0 355.0Q969 391 1008 408Z" fill="#3f3f3f" />
<path d="M1008 458Q1008 466 1003.0 471.5Q998 477 990 477H312Q304 477 298.5 471.5Q293 466 293 458V408H1008Z" fill="#ea5a47" />
<path d="M874 158Q856 163 851 145Q847 127 865 123Q916 110 953 110Q997 110 1063 134Q1150 165 1228 165Q1247 165 1247 183Q1247 202 1228 202Q1143 202 1051 168Q991 147 953 147Q920 147 874 158Z" fill="#000000" />
<path d="M92 202Q73 202 73 183Q73 165 92 165Q112 165 179 145Q300 110 367 110Q401 110 437 117Q455 120 451 138Q448 156 430 153Q397 147 367 147Q305 147 190 180Q117 202 92 202Z" fill="#000000" />
<path d="M706 853Q706 889 669 889H633Q596 889 596 853V761Q596 743 614 743H688Q706 743 706 761ZM669 853V779H633V853Z" fill="#000000" />
<path d="M897 458Q900 458 903 460Q920 466 914 483L805 756Q796 779 771 779H531Q506 779 497 756L388 483Q387 480 387 477Q387 458 405 458ZM870 495H432L531 743H771Z" fill="#000000" />
<path d="M415 132Q418 117 422 89Q443 -35 466 -57Q512 -101 632 -138Q633 -138 635 -139Q642 -141 645 -142Q651 -144 656 -142Q659 -141 667 -139Q669 -138 669 -138Q789 -101 836 -57Q859 -35 879 89Q922 352 1015 391Q1027 396 1027 408Q1027 426 1008 426H293Q281 426 276 415Q269 398 286 391Q377 353 415 132ZM451 138Q420 319 351 390H949Q911 352 886 284Q864 224 843 95Q825 -17 810 -31Q770 -69 659 -103L657 -104Q653 -105 651 -105Q648 -105 645 -104Q644 -103 643 -103Q531 -69 491 -31Q477 -17 459 95Q454 123 451 138Z" fill="#000000" />
<path d="M1027 458Q1027 495 990 495H312Q275 495 275 458V408Q275 390 293 390H1008Q1027 390 1027 408ZM990 458V426H312V458Z" fill="#000000" />
<path d="M633 -124Q633 -143 651 -143Q669 -143 669 -124V458Q669 477 651 477Q633 477 633 458Z" fill="#000000" />
<path d="M550 678Q532 678 532 660Q532 642 550 642H752Q770 642 770 660Q770 678 752 678Z" fill="#000000" />
<path d="M513 587Q495 587 495 568Q495 550 513 550H788Q807 550 807 568Q807 587 788 587Z" fill="#000000" />
</g></svg>