<svg xmlns="http://www.w3.org/2000/svg" viewBox="0 0 2048 2048">
<g transform="matrix(1 0 0 -1 0 2048)">
<path d="M435.53076171875 367.096435546875Q435.53076171875 372.767578125 433.379638671875 377.7542724609375Q431.228515625 382.740966796875 427.44775390625 386.521728515625Q423.6669921875 390.302490234375 418.6802978515625 392.45361328125Q413.693603515625 394.604736328125 408.0224609375 394.604736328125Q402.351318359375 394.604736328125 397.3646240234375 392.45361328125Q392.3779296875 390.302490234375 388.59716796875 386.521728515625Q384.81640625 382.740966796875 382.665283203125 377.7542724609375Q380.51416015625 372.767578125 380.51416015625 367.096435546875Q380.51416015625 361.42529296875 382.665283203125 356.4385986328125Q384.81640625 351.451904296875 388.59716796875 347.671142578125Q392.3779296875 343.890380859375 397.3646240234375 341.7392578125Q402.351318359375 339.588134765625 408.0224609375 339.588134765625Q413.693603515625 339.588134765625 418.6802978515625 341.7392578125Q423.6669921875 343.890380859375 427.44775390625 347.671142578125Q431.228515625 351.451904296875 433.379638671875 356.4385986328125Q435.53076171875 361.42529296875 435.53076171875 367.096435546875Z" fill="#000000" />
<path d="M939.53076171875 367.096435546875Q939.53076171875 372.767578125 937.379638671875 377.7542724609375Q935.228515625 382.740966796875 931.44775390625 386.521728515625Q927.6669921875 390.302490234375 922.6802978515625 392.45361328125Q917.693603515625 394.604736328125 912.0224609375 394.604736328125Q906.351318359375 394.604736328125 901.3646240234375 392.45361328125Q896.3779296875 390.302490234375 892.59716796875 386.521728515625Q888.81640625 382.740966796875 886.665283203125 377.7542724609375Q884.51416015625 372.767578125 884.51416015625 367.096435546875Q884.51416015625 361.42529296875 886.665283203125 356.4385986328125Q888.81640625 351.451904296875 892.59716796875 347.671142578125Q896.3779296875 343.890380859375 901.3646240234375 341.7392578125Q906.351318359375 339.588134765625 912.0224609375 339.588134765625Q917.693603515625 339.588134765625 922.6802978515625 341.7392578125Q927.6669921875 343.890380859375 931.44775390625 347.671142578125Q935.228515625 351.451904296875 937.379638671875 356.4385986328125Q939.53076171875 361.42529296875 939.53076171875 367.096435546875Z" fill="#000000" />
<path d="M554.53076171875 458.096435546875Q554.53076171875 463.767578125 552.379638671875 468.7542724609375Q550.228515625 473.740966796875 546.44775390625 477.521728515625Q542.6669921875 481.302490234375 537.6802978515625 483.45361328125Q532.693603515625 485.604736328125 527.0224609375 485.604736328125Q521.351318359375 485.604736328125 516.3646240234375 483.45361328125Q511.3779296875 481.302490234375 507.59716796875 477.521728515625Q503.81640625 473.740966796875 501.665283203125 468.7542724609375Q499.51416015625 463.767578125 499.51416015625 458.096435546875Q499.51416015625 452.42529296875 501.665283203125 447.4385986328125Q503.81640625 442.451904296875 507.59716796875 438.671142578125Q511.3779296875 434.890380859375 516.3646240234375 432.7392578125Q521.351318359375 430.588134765625 527.0224609375 430.588134765625Q532.693603515625 430.588134765625 537.6802978515625 432.7392578125Q542.6669921875 434.890380859375 546.44775390625 438.671142578125Q550.228515625 442.451904296875 552.379638671875 447.4385986328125Q554.53076171875 452.42529296875 554.53076171875 458.096435546875Z" fill="#000000" />
<path d="M828.53076171875 460.096435546875Q828.53076171875 465.767578125 826.379638671875 470.7542724609375Q824.228515625 475.740966796875 820.44775390625 479.521728515625Q816.6669921875 483.302490234375 811.6802978515625 485.45361328125Q806.693603515625 487.604736328125 801.0224609375 487.604736328125Q795.351318359375 487.604736328125 790.3646240234375 485.45361328125Q785.3779296875 483.302490234375 781.59716796875 479.521728515625Q777.81640625 475.740966796875 775.665283203125 470.7542724609375Q773.51416015625 465.767578125 773.51416015625 460.096435546875Q773.51416015625 454.42529296875 775.665283203125 449.4385986328125Q777.81640625 444.451904296875 781.59716796875 440.671142578125Q785.3779296875 436.890380859375 790.3646240234375 434.7392578125Q795.351318359375 432.588134765625 801.0224609375 432.588134765625Q806.693603515625 432.588134765625 811.6802978515625 434.7392578125Q816.6669921875 436.890380859375 820.44775390625 440.671142578125Q824.228515625 444.451904296875 826.379638671875 449.4385986328125Q828.53076171875 454.42529296875 828.53076171875 460.096435546875Z" fill="#000000" />
<path d="M435.53076171875 173.096435546875Q435.53076171875 178.767578125 433.379638671875 183.7542724609375Q431.228515625 188.740966796875 427.44775390625 192.521728515625Q423.6669921875 196.302490234375 418.6802978515625 198.45361328125Q413.693603515625 200.604736328125 408.0224609375 200.604736328125Q402.351318359375 200.604736328125 397.3646240234375 198.45361328125Q392.3779296875 196.302490234375 388.59716796875 192.521728515625Q384.81640625 188.740966796875 382.665283203125 183.7542724609375Q380.51416015625 178.767578125 380.51416015625 173.096435546875Q380.51416015625 167.42529296875 382.665283203125 162.4385986328125Q384.81640625 157.451904296875 388.59716796875 153.671142578125Q392.3779296875 149.890380859375 397.3646240234375 147.7392578125Q402.351318359375 145.588134765625 408.0224609375 145.588134765625Q413.693603515625 145.588134765625 418.6802978515625 147.7392578125Q423.6669921875 149.890380859375 427.44775390625 153.671142578125Q431.228515625 157.451904296875 433.379638671875 162.4385986328125Q435.53076171875 167.42529296875 435.53076171875 173.096435546875Z" fill="#000000" />
<path d="M939.53076171875 173.096435546875Q939.53076171875 178.767578125 937.379638671875 183.7542724609375Q935.228515625 188.740966796875 931.44775390625 192.521728515625Q927.6669921875 196.302490234375 922.6802978515625 198.45361328125Q917.693603515625 200.604736328125 912.0224609375 200.604736328125Q906.351318359375 200.604736328125 901.3646240234375 198.45361328125Q896.3779296875 196.302490234375 892.59716796875 192.521728515625Q888.81640625 188.740966796875 886.665283203125 183.7542724609375Q884.51416015625 178.767578125 884.51416015625 173.096435546875Q884.51416015625 167.42529296875 886.665283203125 162.4385986328125Q888.81640625 157.451904296875 892.59716796875 153.671142578125Q896.3779296875 149.890380859375 901.3646240234375 147.7392578125Q906.351318359375 145.588134765625 912.0224609375 145.588134765625Q917.693603515625 145.588134765625 922.6802978515625 147.7392578125Q927.6669921875 149.890380859375 931.44775390625 153.671142578125Q935.228515625 157.451904296875 937.379638671875 162.4385986328125Q939.53076171875 167.42529296875 939.53076171875 173.096435546875Z" fill="#000000" />
<path d="M554.53076171875 264.096435546875Q554.53076171875 269.767578125 552.379638671875 274.7542724609375Q550.228515625 279.740966796875 546.44775390625 283.521728515625Q542.6669921875 287.302490234375 537.6802978515625 289.45361328125Q532.693603515625 291.604736328125 527.0224609375 291.604736328125Q521.351318359375 291.604736328125 516.3646240234375 289.45361328125Q511.3779296875 287.302490234375 507.59716796875 283.521728515625Q503.81640625 279.740966796875 501.665283203125 274.7542724609375Q499.51416015625 269.767578125 499.51416015625 264.096435546875Q499.51416015625 258.42529296875 501.665283203125 253.4385986328125Q503.81640625 248.451904296875 507.59716796875 244.671142578125Q511.3779296875 240.890380859375 516.3646240234375 238.7392578125Q521.351318359375 236.588134765625 527.0224609375 236.588134765625Q532.693603515625 236.588134765625 537.6802978515625 238.7392578125Q542.6669921875 240.890380859375 546.44775390625 244.671142578125Q550.228515625 248.451904296875 552.379638671875 253.4385986328125Q554.53076171875 258.42529296875 554.53076171875 264.096435546875Z" fill="#000000" />
<path d="M828.53076171875 266.096435546875Q828.53076171875 271.767578125 826.379638671875 276.7542724609375Q824.228515625 281.740966796875 820.44775390625 285.521728515625Q816.6669921875 289.302490234375 811.6802978515625 291.45361328125Q806.693603515625 293.604736328125 801.0224609375 293.604736328125Q795.351318359375 293.604736328125 790.3646240234375 291.45361328125Q785.3779296875 289.302490234375 781.59716796875 285.521728515625Q777.81640625 281.740966796875 775.665283203125 276.7542724609375Q773.51416015625 271.767578125 773.51416015625 266.096435546875Q773.51416015625 260.42529296875 775.665283203125 255.4385986328125Q777.81640625 250.451904296875 781.59716796875 246.671142578125Q785.3779296875 242.890380859375 790.3646240234375 240.7392578125Q795.351318359375 238.588134765625 801.0224609375 238.588134765625Q806.693603515625 238.588134765625 811.6802978515625 240.7392578125Q816.6669921875 242.890380859375 820.44775390625 246.671142578125Q824.228515625 250.451904296875 826.379638671875 255.4385986328125Q828.53076171875 260.42529296875 828.53076171875 266.096435546875Z" fill="#000000" />
<path d="M435.53076171875 547.096435546875Q435.53076171875 552.767578125 433.379638671875 557.7542724609375Q431.228515625 562.740966796875 427.44775390625 566.521728515625Q423.6669921875 570.302490234375 418.6802978515625 572.45361328125Q413.693603515625 574.604736328125 408.0224609375 574.604736328125Q402.351318359375 574.604736328125 397.3646240234375 572.45361328125Q392.3779296875 570.302490234375 388.59716796875 566.521728515625Q384.81640625 562.740966796875 382.665283203125 557.7542724609375Q380.51416015625 552.767578125 380.51416015625 547.096435546875Q380.51416015625 541.42529296875 382.665283203125 536.4385986328125Q384.81640625 531.451904296875 388.59716796875 527.671142578125Q392.3779296875 523.890380859375 397.3646240234375 521.7392578125Q402.351318359375 519.588134765625 408.0224609375 519.588134765625Q413.693603515625 519.588134765625 418.6802978515625 521.7392578125Q423.6669921875 523.890380859375 427.44775390625 527.671142578125Q431.228515625 531.451904296875 433.379638671875 536.4385986328125Q435.53076171875 541.42529296875 435.53076171875 547.096435546875Z" fill="#000000" />
<path d="M687.53076171875 725.096435546875Q687.53076171875 730.767578125 685.379638671875 735.7542724609375Q683.228515625 740.740966796875 679.44775390625 744.521728515625Q675.6669921875 748.302490234375 670.6802978515625 750.45361328125Q665.693603515625 752.604736328125 660.0224609375 752.604736328125Q654.351318359375 752.604736328125 649.3646240234375 750.45361328125Q644.3779296875 748.302490234375 640.59716796875 744.521728515625Q636.81640625 740.740966796875 634.665283203125 735.7542724609375Q632.51416015625 730.767578125 632.51416015625 725.096435546875Q632.51416015625 719.42529296875 634.665283203125 714.4385986328125Q636.81640625 709.451904296875 640.59716796875 705.671142578125Q644.3779296875 701.890380859375 649.3646240234375 699.7392578125Q654.351318359375 697.588134765625 660.0224609375 697.588134765625Q665.693603515625 697.588134765625 670.6802978515625 699.7392578125Q675.6669921875 701.890380859375 679.44775390625 705.671142578125Q683.228515625 709.451904296875 685.379638671875 714.4385986328125Q687.53076171875 719.42529296875 687.53076171875 725.096435546875Z" fill="#000000" />
<path d="M939.53076171875 556.096435546875Q939.53076171875 561.767578125 937.379638671875 566.7542724609375Q935.228515625 571.740966796875 931.44775390625 575.521728515625Q927.6669921875 579.302490234375 922.6802978515625 581.45361328125Q917.693603515625 583.604736328125 912.0224609375 583.604736328125Q906.351318359375 583.604736328125 901.3646240234375 581.45361328125Q896.3779296875 579.302490234375 892.59716796875 575.521728515625Q888.81640625 571.740966796875 886.665283203125 566.7542724609375Q884.51416015625 561.767578125 884.51416015625 556.096435546875Q884.51416015625 550.42529296875 886.665283203125 545.4385986328125Q888.81640625 540.451904296875 892.59716796875 536.671142578125Q896.3779296875 532.890380859375 901.3646240234375 530.7392578125Q906.351318359375 528.588134765625 912.0224609375 528.588134765625Q917.693603515625 528.588134765625 922.6802978515625 530.7392578125Q927.6669921875 532.890380859375 931.44775390625 536.671142578125Q935.228515625 540.451904296875 937.379638671875 545.4385986328125Q939.53076171875 550.42529296875 939.53076171875 556.096435546875Z" fill="#000000" />
<path d="M554.53076171875 637.096435546875Q554.53076171875 642.767578125 552.379638671875 647.7542724609375Q550.228515625 652.740966796875 546.44775390625 656.521728515625Q542.6669921875 660.302490234375 537.6802978515625 662.45361328125Q532.693603515625 664.604736328125 527.0224609375 664.604736328125Q521.351318359375 664.604736328125 516.3646240234375 662.45361328125Q511.3779296875 660.302490234375 507.59716796875 656.521728515625Q503.81640625 652.740966796875 501.665283203125 647.7542724609375Q499.51416015625 642.767578125 499.51416015625 637.096435546875Q499.51416015625 631.42529296875 501.665283203125 626.4385986328125Q503.81640625 621.451904296875 507.59716796875 617.671142578125Q511.3779296875 613.890380859375 516.3646240234375 611.7392578125Q521.351318359375 609.588134765625 527.0224609375 609.588134765625Q532.693603515625 609.588134765625 537.6802978515625 611.7392578125Q542.6669921875 613.890380859375 546.44775390625 617.671142578125Q550.228515625 621.451904296875 552.379638671875 626.4385986328125Q554.53076171875 631.42529296875 554.53076171875 637.096435546875Z" fill="#000000" />
<path d="M822.53076171875 637.096435546875Q822.53076171875 642.767578125 820.379638671875 647.7542724609375Q818.228515625 652.740966796875 814.44775390625 656.521728515625Q810.6669921875 660.302490234375 805.6802978515625 662.45361328125Q800.693603515625 664.604736328125 795.0224609375 664.604736328125Q789.351318359375 664.604736328125 784.3646240234375 662.45361328125Q779.3779296875 660.302490234375 775.59716796875 656.521728515625Q771.81640625 652.740966796875 769.665283203125 647.7542724609375Q767.51416015625 642.767578125 767.51416015625 637.096435546875Q767.51416015625 631.42529296875 769.665283203125 626.4385986328125Q771.81640625 621.451904296875 775.59716796875 617.671142578125Q779.3779296875 613.890380859375 784.3646240234375 611.7392578125Q789.351318359375 609.588134765625 795.0224609375 609.588134765625Q800.693603515625 609.588134765625 805.6802978515625 611.7392578125Q810.6669921875 613.890380859375 814.44775390625 617.671142578125Q818.228515625 621.451904296875 820.379638671875 626.4385986328125Q822.53076171875 631.42529296875 822.53076171875 637.096435546875Z" fill="#000000" />
<path d="M757 8 726 30 594 31 561 5Q561 5 550.5 1.5Q540 -2 525.5 -6.0Q511 -10 497.5 -11.5Q484 -13 478 -9Q471 -4 471.5 12.5Q472 29 475.0 43.5Q478 58 478 58Q478 58 466.0 52.5Q454 47 437.0 41.0Q420 35 404.5 33.0Q389 31 383 37Q378 44 381.0 57.0Q384 70 391.0 85.0Q398 100 404.5 110.0Q411 120 411 120Q411 120 396.5 121.5Q382 123 363.0 127.0Q344 131 328.5 137.5Q313 144 310 153Q308 160 315.5 171.0Q323 182 333.5 193.0Q344 204 352.5 211.5Q361 219 361 219Q361 219 343.0 222.0Q325 225 301.5 231.0Q278 237 260.5 246.5Q243 256 243 268Q244 278 254.5 286.0Q265 294 279.0 300.0Q293 306 303.5 309.0Q314 312 314 312Q314 312 302.0 315.5Q290 319 274.0 325.5Q258 332 246.0 342.0Q234 352 234 364Q234 372 245.5 379.5Q257 387 271.5 393.0Q286 399 297.5 402.5Q309 406 309 406Q309 406 295.5 412.5Q282 419 265.0 429.0Q248 439 235.0 450.0Q222 461 223 471Q224 479 234.5 485.0Q245 491 259.0 496.0Q273 501 283.0 503.5Q293 506 293 506Q293 506 284.0 517.0Q275 528 263.5 543.5Q252 559 245.0 574.0Q238 589 243 597Q247 604 261.0 605.0Q275 606 291.0 604.0Q307 602 319.0 599.5Q331 597 331 597Q331 597 323.0 609.0Q315 621 306.5 638.0Q298 655 295.5 672.0Q293 689 303 699Q312 707 329.5 706.5Q347 706 366.0 701.5Q385 697 398.0 692.5Q411 688 411 688Q411 688 409.5 700.0Q408 712 407.5 728.0Q407 744 409.5 759.0Q412 774 422 779Q430 784 446.0 776.5Q462 769 478.0 756.0Q494 743 505.0 733.0Q516 723 516 723Q516 723 514.5 736.5Q513 750 512.5 768.5Q512 787 515.5 802.0Q519 817 530 821Q543 825 556.5 819.0Q570 813 581.0 803.0Q592 793 599.0 785.0Q606 777 606 777Q606 777 611.5 789.0Q617 801 625.0 816.5Q633 832 642.5 843.5Q652 855 660 855Q668 855 677.5 844.5Q687 834 695.0 820.5Q703 807 708.5 796.5Q714 786 714 786Q714 786 722.5 793.5Q731 801 744.0 809.5Q757 818 770.5 820.5Q784 823 795 814Q811 800 811.5 778.5Q812 757 808.0 740.0Q804 723 804 723Q804 723 815.0 733.0Q826 743 842.0 756.0Q858 769 874.0 776.5Q890 784 898 779Q908 774 909.0 759.0Q910 744 907.5 727.0Q905 710 901.5 698.0Q898 686 898 686Q898 686 913.0 691.0Q928 696 949.0 701.0Q970 706 989.0 706.5Q1008 707 1017 699Q1024 692 1021.0 675.5Q1018 659 1010.5 641.0Q1003 623 996.0 610.0Q989 597 989 597Q989 597 1001.0 599.5Q1013 602 1029.0 604.0Q1045 606 1059.0 605.0Q1073 604 1077 597Q1082 589 1075.0 574.0Q1068 559 1056.5 543.5Q1045 528 1036.0 517.0Q1027 506 1027 506Q1027 506 1037.0 503.5Q1047 501 1061.0 496.0Q1075 491 1085.5 485.0Q1096 479 1097 471Q1098 461 1085.0 450.0Q1072 439 1055.0 429.0Q1038 419 1024.5 412.5Q1011 406 1011 406Q1011 406 1022.5 402.5Q1034 399 1048.5 393.0Q1063 387 1074.5 379.5Q1086 372 1086 364Q1086 352 1068.5 340.5Q1051 329 1028.0 320.0Q1005 311 987.0 305.5Q969 300 969 300Q969 300 985.5 299.0Q1002 298 1023.0 294.5Q1044 291 1060.0 284.5Q1076 278 1077 268Q1077 256 1059.5 246.5Q1042 237 1018.5 231.0Q995 225 977.0 222.0Q959 219 959 219Q959 219 967.5 211.5Q976 204 986.5 193.0Q997 182 1004.5 171.0Q1012 160 1009 153Q1007 144 991.5 137.5Q976 131 957.0 127.0Q938 123 923.5 121.5Q909 120 909 120Q909 120 915.5 110.0Q922 100 929.0 85.0Q936 70 939.0 57.0Q942 44 937 37Q931 31 915.5 33.0Q900 35 883.0 41.0Q866 47 854.0 52.5Q842 58 842 58Q842 58 845.0 43.5Q848 29 848.5 12.5Q849 -4 842 -9Q836 -13 822.5 -11.0Q809 -9 793.5 -4.5Q778 0 767.5 4.0Q757 8 757 8Z" fill="#5c9e31" />
<path d="M640 631Q624 631 606.5 618.0Q589 605 573.5 587.5Q558 570 548.5 557.0Q539 544 539 544Q539 544 556.5 543.5Q574 543 593.5 541.0Q613 539 619 533Q629 524 632.5 499.0Q636 474 634.5 443.5Q633 413 628.0 385.0Q623 357 618 341Q609 318 590.0 288.0Q571 258 554.5 226.0Q538 194 539 164Q539 146 547.5 121.5Q556 97 571.0 74.0Q586 51 608.5 35.0Q631 19 660 19Q688 19 716.0 36.5Q744 54 762.5 86.5Q781 119 781 164Q781 182 770.0 205.0Q759 228 744.5 252.5Q730 277 717.5 300.0Q705 323 702 341Q699 364 700.5 397.5Q702 431 704.5 467.0Q707 503 706.0 536.0Q705 569 696 590Q690 609 674.5 620.0Q659 631 640 631Z" fill="#1e50a0" />
<path d="M435.53076171875 367.096435546875Q435.53076171875 372.767578125 433.379638671875 377.7542724609375Q431.228515625 382.740966796875 427.44775390625 386.521728515625Q423.6669921875 390.302490234375 418.6802978515625 392.45361328125Q413.693603515625 394.604736328125 408.0224609375 394.604736328125Q402.351318359375 394.604736328125 397.3646240234375 392.45361328125Q392.3779296875 390.302490234375 388.59716796875 386.521728515625Q384.81640625 382.740966796875 382.665283203125 377.7542724609375Q380.51416015625 372.767578125 380.51416015625 367.096435546875Q380.51416015625 361.42529296875 382.665283203125 356.4385986328125Q384.81640625 351.451904296875 388.59716796875 347.671142578125Q392.3779296875 343.890380859375 397.3646240234375 341.7392578125Q402.351318359375 339.588134765625 408.0224609375 339.588134765625Q413.693603515625 339.588134765625 418.6802978515625 341.7392578125Q423.6669921875 343.890380859375 427.44775390625 347.671142578125Q431.228515625 351.451904296875 433.379638671875 356.4385986328125Q435.53076171875 361.42529296875 435.53076171875 367.096435546875Z" fill="#fcea2b" />
<path d="M426.0865478515625 357.75445556640625Q426.0865478515625 361.54052734375 424.65045166015625 364.8696594238281Q423.21435546875 368.19879150390625 420.6903076171875 370.72283935546875Q418.166259765625 373.24688720703125 414.8371276855469 374.6829833984375Q411.50799560546875 376.11907958984375 407.721923828125 376.11907958984375Q403.93585205078125 376.11907958984375 400.6067199707031 374.6829833984375Q397.277587890625 373.24688720703125 394.7535400390625 370.72283935546875Q392.2294921875 368.19879150390625 390.79339599609375 364.8696594238281Q389.3572998046875 361.54052734375 389.3572998046875 357.75445556640625Q389.3572998046875 353.9683837890625 390.79339599609375 350.6392517089844Q392.2294921875 347.31011962890625 394.7535400390625 344.78607177734375Q397.277587890625 342.26202392578125 400.6067199707031 340.825927734375Q403.93585205078125 339.38983154296875 407.721923828125 339.38983154296875Q411.50799560546875 339.38983154296875 414.8371276855469 340.825927734375Q418.166259765625 342.26202392578125 420.6903076171875 344.78607177734375Q423.21435546875 347.31011962890625 424.65045166015625 350.6392517089844Q426.0865478515625 353.9683837890625 426.0865478515625 357.75445556640625Z" fill="#1e50a0" />
<path d="M939.53076171875 367.096435546875Q939.53076171875 372.767578125 937.379638671875 377.7542724609375Q935.228515625 382.740966796875 931.44775390625 386.521728515625Q927.6669921875 390.302490234375 922.6802978515625 392.45361328125Q917.693603515625 394.604736328125 912.0224609375 394.604736328125Q906.351318359375 394.604736328125 901.3646240234375 392.45361328125Q896.3779296875 390.302490234375 892.59716796875 386.521728515625Q888.81640625 382.740966796875 886.665283203125 377.7542724609375Q884.51416015625 372.767578125 884.51416015625 367.096435546875Q884.51416015625 361.42529296875 886.665283203125 356.4385986328125Q888.81640625 351.451904296875 892.59716796875 347.671142578125Q896.3779296875 343.890380859375 901.3646240234375 341.7392578125Q906.351318359375 339.588134765625 912.0224609375 339.588134765625Q917.693603515625 339.588134765625 922.6802978515625 341.7392578125Q927.6669921875 343.890380859375 931.44775390625 347.671142578125Q935.228515625 351.451904296875 937.379638671875 356.4385986328125Q939.53076171875 361.42529296875 939.53076171875 367.096435546875Z" fill="#fcea2b" />
<path d="M930.0865478515625 357.75445556640625Q930.0865478515625 361.54052734375 928.6504516601562 364.8696594238281Q927.21435546875 368.19879150390625 924.6903076171875 370.72283935546875Q922.166259765625 373.24688720703125 918.8371276855469 374.6829833984375Q915.5079956054688 376.11907958984375 911.721923828125 376.11907958984375Q907.9358520507812 376.11907958984375 904.6067199707031 374.6829833984375Q901.277587890625 373.24688720703125 898.7535400390625 370.72283935546875Q896.2294921875 368.19879150390625 894.7933959960938 364.8696594238281Q893.3572998046875 361.54052734375 893.3572998046875 357.75445556640625Q893.3572998046875 353.9683837890625 894.7933959960938 350.6392517089844Q896.2294921875 347.31011962890625 898.7535400390625 344.78607177734375Q901.277587890625 342.26202392578125 904.6067199707031 340.825927734375Q907.9358520507812 339.38983154296875 911.721923828125 339.38983154296875Q915.5079956054688 339.38983154296875 918.8371276855469 340.825927734375Q922.166259765625 342.26202392578125 924.6903076171875 344.78607177734375Q927.21435546875 347.31011962890625 928.6504516601562 350.6392517089844Q930.0865478515625 353.9683837890625 930.0865478515625 357.75445556640625Z" fill="#1e50a0" />
<path d="M554.53076171875 458.096435546875Q554.53076171875 463.767578125 552.379638671875 468.7542724609375Q550.228515625 473.740966796875 546.44775390625 477.521728515625Q542.6669921875 481.302490234375 537.6802978515625 483.45361328125Q532.693603515625 485.604736328125 527.0224609375 485.604736328125Q521.351318359375 485.604736328125 516.3646240234375 483.45361328125Q511.3779296875 481.302490234375 507.59716796875 477.521728515625Q503.81640625 473.740966796875 501.665283203125 468.7542724609375Q499.51416015625 463.767578125 499.51416015625 458.096435546875Q499.51416015625 452.42529296875 501.665283203125 447.4385986328125Q503.81640625 442.451904296875 507.59716796875 438.671142578125Q511.3779296875 434.890380859375 516.3646240234375 432.7392578125Q521.351318359375 430.588134765625 527.0224609375 430.588134765625Q532.693603515625 430.588134765625 537.6802978515625 432.7392578125Q542.6669921875 434.890380859375 546.44775390625 438.671142578125Q550.228515625 442.451904296875 552.379638671875 447.4385986328125Q554.53076171875 452.42529296875 554.53076171875 458.096435546875Z" fill="#fcea2b" />
<path d="M545.0865478515625 448.75445556640625Q545.0865478515625 452.54052734375 543.6504516601562 455.8696594238281Q542.21435546875 459.19879150390625 539.6903076171875 461.72283935546875Q537.166259765625 464.24688720703125 533.8371276855469 465.6829833984375Q530.5079956054688 467.11907958984375 526.721923828125 467.11907958984375Q522.9358520507812 467.11907958984375 519.6067199707031 465.6829833984375Q516.277587890625 464.24688720703125 513.7535400390625 461.72283935546875Q511.2294921875 459.19879150390625 509.79339599609375 455.8696594238281Q508.3572998046875 452.54052734375 508.3572998046875 448.75445556640625Q508.3572998046875 444.9683837890625 509.79339599609375 441.6392517089844Q511.2294921875 438.31011962890625 513.7535400390625 435.78607177734375Q516.277587890625 433.26202392578125 519.6067199707031 431.825927734375Q522.9358520507812 430.38983154296875 526.721923828125 430.38983154296875Q530.5079956054688 430.38983154296875 533.8371276855469 431.825927734375Q537.166259765625 433.26202392578125 539.6903076171875 435.78607177734375Q542.21435546875 438.31011962890625 543.6504516601562 441.6392517089844Q545.0865478515625 444.9683837890625 545.0865478515625 448.75445556640625Z" fill="#1e50a0" />
<path d="M828.53076171875 460.096435546875Q828.53076171875 465.767578125 826.379638671875 470.7542724609375Q824.228515625 475.740966796875 820.44775390625 479.521728515625Q816.6669921875 483.302490234375 811.6802978515625 485.45361328125Q806.693603515625 487.604736328125 801.0224609375 487.604736328125Q795.351318359375 487.604736328125 790.3646240234375 485.45361328125Q785.3779296875 483.302490234375 781.59716796875 479.521728515625Q777.81640625 475.740966796875 775.665283203125 470.7542724609375Q773.51416015625 465.767578125 773.51416015625 460.096435546875Q773.51416015625 454.42529296875 775.665283203125 449.4385986328125Q777.81640625 444.451904296875 781.59716796875 440.671142578125Q785.3779296875 436.890380859375 790.3646240234375 434.7392578125Q795.351318359375 432.588134765625 801.0224609375 432.588134765625Q806.693603515625 432.588134765625 811.6802978515625 434.7392578125Q816.6669921875 436.890380859375 820.44775390625 440.671142578125Q824.228515625 444.451904296875 826.379638671875 449.4385986328125Q828.53076171875 454.42529296875 828.53076171875 460.096435546875Z" fill="#fcea2b" />
<path d="M819.0865478515625 450.75445556640625Q819.0865478515625 454.54052734375 817.6504516601562 457.8696594238281Q816.21435546875 461.19879150390625 813.6903076171875 463.72283935546875Q811.166259765625 466.24688720703125 807.8371276855469 467.6829833984375Q804.5079956054688 469.11907958984375 800.721923828125 469.11907958984375Q796.9358520507812 469.11907958984375 793.6067199707031 467.6829833984375Q790.277587890625 466.24688720703125 787.7535400390625 463.72283935546875Q785.2294921875 461.19879150390625 783.7933959960938 457.8696594238281Q782.3572998046875 454.54052734375 782.3572998046875 450.75445556640625Q782.3572998046875 446.9683837890625 783.7933959960938 443.6392517089844Q785.2294921875 440.31011962890625 787.7535400390625 437.78607177734375Q790.277587890625 435.26202392578125 793.6067199707031 433.825927734375Q796.9358520507812 432.38983154296875 800.721923828125 432.38983154296875Q804.5079956054688 432.38983154296875 807.8371276855469 433.825927734375Q811.166259765625 435.26202392578125 813.6903076171875 437.78607177734375Q816.21435546875 440.31011962890625 817.6504516601562 443.6392517089844Q819.0865478515625 446.9683837890625 819.0865478515625 450.75445556640625Z" fill="#1e50a0" />
<path d="M435.53076171875 173.096435546875Q435.53076171875 178.767578125 433.379638671875 183.7542724609375Q431.228515625 188.740966796875 427.44775390625 192.521728515625Q423.6669921875 196.302490234375 418.6802978515625 198.45361328125Q413.693603515625 200.604736328125 408.0224609375 200.604736328125Q402.351318359375 200.604736328125 397.3646240234375 198.45361328125Q392.3779296875 196.302490234375 388.59716796875 192.521728515625Q384.81640625 188.740966796875 382.665283203125 183.7542724609375Q380.51416015625 178.767578125 380.51416015625 173.096435546875Q380.51416015625 167.42529296875 382.665283203125 162.4385986328125Q384.81640625 157.451904296875 388.59716796875 153.671142578125Q392.3779296875 149.890380859375 397.3646240234375 147.7392578125Q402.351318359375 145.588134765625 408.0224609375 145.588134765625Q413.693603515625 145.588134765625 418.6802978515625 147.7392578125Q423.6669921875 149.890380859375 427.44775390625 153.671142578125Q431.228515625 157.451904296875 433.379638671875 162.4385986328125Q435.53076171875 167.42529296875 435.53076171875 173.096435546875Z" fill="#fcea2b" />
<path d="M426.0865478515625 163.75445556640625Q426.0865478515625 167.54052734375 424.65045166015625 170.86965942382812Q423.21435546875 174.19879150390625 420.6903076171875 176.72283935546875Q418.166259765625 179.24688720703125 414.8371276855469 180.6829833984375Q411.50799560546875 182.11907958984375 407.721923828125 182.11907958984375Q403.93585205078125 182.11907958984375 400.6067199707031 180.6829833984375Q397.277587890625 179.24688720703125 394.7535400390625 176.72283935546875Q392.2294921875 174.19879150390625 390.79339599609375 170.86965942382812Q389.3572998046875 167.54052734375 389.3572998046875 163.75445556640625Q389.3572998046875 159.9683837890625 390.79339599609375 156.63925170898438Q392.2294921875 153.31011962890625 394.7535400390625 150.78607177734375Q397.277587890625 148.26202392578125 400.6067199707031 146.825927734375Q403.93585205078125 145.38983154296875 407.721923828125 145.38983154296875Q411.50799560546875 145.38983154296875 414.8371276855469 146.825927734375Q418.166259765625 148.26202392578125 420.6903076171875 150.78607177734375Q423.21435546875 153.31011962890625 424.65045166015625 156.63925170898438Q426.0865478515625 159.9683837890625 426.0865478515625 163.75445556640625Z" fill="#1e50a0" />
<path d="M939.53076171875 173.096435546875Q939.53076171875 178.767578125 937.379638671875 183.7542724609375Q935.228515625 188.740966796875 931.44775390625 192.521728515625Q927.6669921875 196.302490234375 922.6802978515625 198.45361328125Q917.693603515625 200.604736328125 912.0224609375 200.604736328125Q906.351318359375 200.604736328125 901.3646240234375 198.45361328125Q896.3779296875 196.302490234375 892.59716796875 192.521728515625Q888.81640625 188.740966796875 886.665283203125 183.7542724609375Q884.51416015625 178.767578125 884.51416015625 173.096435546875Q884.51416015625 167.42529296875 886.665283203125 162.4385986328125Q888.81640625 157.451904296875 892.59716796875 153.671142578125Q896.3779296875 149.890380859375 901.3646240234375 147.7392578125Q906.351318359375 145.588134765625 912.0224609375 145.588134765625Q917.693603515625 145.588134765625 922.6802978515625 147.7392578125Q927.6669921875 149.890380859375 931.44775390625 153.671142578125Q935.228515625 157.451904296875 937.379638671875 162.4385986328125Q939.53076171875 167.42529296875 939.53076171875 173.096435546875Z" fill="#fcea2b" />
<path d="M930.0865478515625 163.75445556640625Q930.0865478515625 167.54052734375 928.6504516601562 170.86965942382812Q927.21435546875 174.19879150390625 924.6903076171875 176.72283935546875Q922.166259765625 179.24688720703125 918.8371276855469 180.6829833984375Q915.5079956054688 182.11907958984375 911.721923828125 182.11907958984375Q907.9358520507812 182.11907958984375 904.6067199707031 180.6829833984375Q901.277587890625 179.24688720703125 898.7535400390625 176.72283935546875Q896.2294921875 174.19879150390625 894.7933959960938 170.86965942382812Q893.3572998046875 167.54052734375 893.3572998046875 163.75445556640625Q893.3572998046875 159.9683837890625 894.7933959960938 156.63925170898438Q896.2294921875 153.31011962890625 898.7535400390625 150.78607177734375Q901.277587890625 148.26202392578125 904.6067199707031 146.825927734375Q907.9358520507812 145.38983154296875 911.721923828125 145.38983154296875Q915.5079956054688 145.38983154296875 918.8371276855469 146.825927734375Q922.166259765625 148.26202392578125 924.6903076171875 150.78607177734375Q927.21435546875 153.31011962890625 928.6504516601562 156.63925170898438Q930.0865478515625 159.9683837890625 930.0865478515625 163.75445556640625Z" fill="#1e50a0" />
<path d="M554.53076171875 265.096435546875Q554.53076171875 270.767578125 552.379638671875 275.7542724609375Q550.228515625 280.740966796875 546.44775390625 284.521728515625Q542.6669921875 288.302490234375 537.6802978515625 290.45361328125Q532.693603515625 292.604736328125 527.0224609375 292.604736328125Q521.351318359375 292.604736328125 516.3646240234375 290.45361328125Q511.3779296875 288.302490234375 507.59716796875 284.521728515625Q503.81640625 280.740966796875 501.665283203125 275.7542724609375Q499.51416015625 270.767578125 499.51416015625 265.096435546875Q499.51416015625 259.42529296875 501.665283203125 254.4385986328125Q503.81640625 249.451904296875 507.59716796875 245.671142578125Q511.3779296875 241.890380859375 516.3646240234375 239.7392578125Q521.351318359375 237.588134765625 527.0224609375 237.588134765625Q532.693603515625 237.588134765625 537.6802978515625 239.7392578125Q542.6669921875 241.890380859375 546.44775390625 245.671142578125Q550.228515625 249.451904296875 552.379638671875 254.4385986328125Q554.53076171875 259.42529296875 554.53076171875 265.096435546875Z" fill="#fcea2b" />
<path d="M545.0865478515625 255.75445556640625Q545.0865478515625 259.54052734375 543.6504516601562 262.8696594238281Q542.21435546875 266.19879150390625 539.6903076171875 268.72283935546875Q537.166259765625 271.24688720703125 533.8371276855469 272.6829833984375Q530.5079956054688 274.11907958984375 526.721923828125 274.11907958984375Q522.9358520507812 274.11907958984375 519.6067199707031 272.6829833984375Q516.277587890625 271.24688720703125 513.7535400390625 268.72283935546875Q511.2294921875 266.19879150390625 509.79339599609375 262.8696594238281Q508.3572998046875 259.54052734375 508.3572998046875 255.75445556640625Q508.3572998046875 251.9683837890625 509.79339599609375 248.63925170898438Q511.2294921875 245.31011962890625 513.7535400390625 242.78607177734375Q516.277587890625 240.26202392578125 519.6067199707031 238.825927734375Q522.9358520507812 237.38983154296875 526.721923828125 237.38983154296875Q530.5079956054688 237.38983154296875 533.8371276855469 238.825927734375Q537.166259765625 240.26202392578125 539.6903076171875 242.78607177734375Q542.21435546875 245.31011962890625 543.6504516601562 248.63925170898438Q545.0865478515625 251.9683837890625 545.0865478515625 255.75445556640625Z" fill="#1e50a0" />
<path d="M828.53076171875 266.096435546875Q828.53076171875 271.767578125 826.379638671875 276.7542724609375Q824.228515625 281.740966796875 820.44775390625 285.521728515625Q816.6669921875 289.302490234375 811.6802978515625 291.45361328125Q806.693603515625 293.604736328125 801.0224609375 293.604736328125Q795.351318359375 293.604736328125 790.3646240234375 291.45361328125Q785.3779296875 289.302490234375 781.59716796875 285.521728515625Q777.81640625 281.740966796875 775.665283203125 276.7542724609375Q773.51416015625 271.767578125 773.51416015625 266.096435546875Q773.51416015625 260.42529296875 775.665283203125 255.4385986328125Q777.81640625 250.451904296875 781.59716796875 246.671142578125Q785.3779296875 242.890380859375 790.3646240234375 240.7392578125Q795.351318359375 238.588134765625 801.0224609375 238.588134765625Q806.693603515625 238.588134765625 811.6802978515625 240.7392578125Q816.6669921875 242.890380859375 820.44775390625 246.671142578125Q824.228515625 250.451904296875 826.379638671875 255.4385986328125Q828.53076171875 260.42529296875 828.53076171875 266.096435546875Z" fill="#fcea2b" />
<path d="M819.0865478515625 256.75445556640625Q819.0865478515625 260.54052734375 817.6504516601562 263.8696594238281Q816.21435546875 267.19879150390625 813.6903076171875 269.72283935546875Q811.166259765625 272.24688720703125 807.8371276855469 273.6829833984375Q804.5079956054688 275.11907958984375 800.721923828125 275.11907958984375Q796.9358520507812 275.11907958984375 793.6067199707031 273.6829833984375Q790.277587890625 272.24688720703125 787.7535400390625 269.72283935546875Q785.2294921875 267.19879150390625 783.7933959960938 263.8696594238281Q782.3572998046875 260.54052734375 782.3572998046875 256.75445556640625Q782.3572998046875 252.9683837890625 783.7933959960938 249.63925170898438Q785.2294921875 246.31011962890625 787.7535400390625 243.78607177734375Q790.277587890625 241.26202392578125 793.6067199707031 239.825927734375Q796.9358520507812 238.38983154296875 800.721923828125 238.38983154296875Q804.5079956054688 238.38983154296875 807.8371276855469 239.825927734375Q811.166259765625 241.26202392578125 813.6903076171875 243.78607177734375Q816.21435546875 246.31011962890625 817.6504516601562 249.63925170898438Q819.0865478515625 252.9683837890625 819.0865478515625 256.75445556640625Z" fill="#1e50a0" />
<path d="M435.53076171875 547.096435546875Q435.53076171875 552.767578125 433.379638671875 557.7542724609375Q431.228515625 562.740966796875 427.44775390625 566.521728515625Q423.6669921875 570.302490234375 418.6802978515625 572.45361328125Q413.693603515625 574.604736328125 408.0224609375 574.604736328125Q402.351318359375 574.604736328125 397.3646240234375 572.45361328125Q392.3779296875 570.302490234375 388.59716796875 566.521728515625Q384.81640625 562.740966796875 382.665283203125 557.7542724609375Q380.51416015625 552.767578125 380.51416015625 547.096435546875Q380.51416015625 541.42529296875 382.665283203125 536.4385986328125Q384.81640625 531.451904296875 388.59716796875 527.671142578125Q392.3779296875 523.890380859375 397.3646240234375 521.7392578125Q402.351318359375 519.588134765625 408.0224609375 519.588134765625Q413.693603515625 519.588134765625 418.6802978515625 521.7392578125Q423.6669921875 523.890380859375 427.44775390625 527.671142578125Q431.228515625 531.451904296875 433.379638671875 536.4385986328125Q435.53076171875 541.42529296875 435.53076171875 547.096435546875Z" fill="#fcea2b" />
<path d="M426.0865478515625 537.7544555664062Q426.0865478515625 541.54052734375 424.65045166015625 544.8696594238281Q423.21435546875 548.1987915039062 420.6903076171875 550.7228393554688Q418.166259765625 553.2468872070312 414.8371276855469 554.6829833984375Q411.50799560546875 556.1190795898438 407.721923828125 556.1190795898438Q403.93585205078125 556.1190795898438 400.6067199707031 554.6829833984375Q397.277587890625 553.2468872070312 394.7535400390625 550.7228393554688Q392.2294921875 548.1987915039062 390.79339599609375 544.8696594238281Q389.3572998046875 541.54052734375 389.3572998046875 537.7544555664062Q389.3572998046875 533.9683837890625 390.79339599609375 530.6392517089844Q392.2294921875 527.3101196289062 394.7535400390625 524.7860717773438Q397.277587890625 522.2620239257812 400.6067199707031 520.825927734375Q403.93585205078125 519.3898315429688 407.721923828125 519.3898315429688Q411.50799560546875 519.3898315429688 414.8371276855469 520.825927734375Q418.166259765625 522.2620239257812 420.6903076171875 524.7860717773438Q423.21435546875 527.3101196289062 424.65045166015625 530.6392517089844Q426.0865478515625 533.9683837890625 426.0865478515625 537.7544555664062Z" fill="#1e50a0" />
<path d="M687.53076171875 725.096435546875Q687.53076171875 730.767578125 685.379638671875 735.7542724609375Q683.228515625 740.740966796875 679.44775390625 744.521728515625Q675.6669921875 748.302490234375 670.6802978515625 750.45361328125Q665.693603515625 752.604736328125 660.0224609375 752.604736328125Q654.351318359375 752.604736328125 649.3646240234375 750.45361328125Q644.3779296875 748.302490234375 640.59716796875 744.521728515625Q636.81640625 740.740966796875 634.665283203125 735.7542724609375Q632.51416015625 730.767578125 632.51416015625 725.096435546875Q632.51416015625 719.42529296875 634.665283203125 714.4385986328125Q636.81640625 709.451904296875 640.59716796875 705.671142578125Q644.3779296875 701.890380859375 649.3646240234375 699.7392578125Q654.351318359375 697.588134765625 660.0224609375 697.588134765625Q665.693603515625 697.588134765625 670.6802978515625 699.7392578125Q675.6669921875 701.890380859375 679.44775390625 705.671142578125Q683.228515625 709.451904296875 685.379638671875 714.4385986328125Q687.53076171875 719.42529296875 687.53076171875 725.096435546875Z" fill="#fcea2b" />
<path d="M678.0865478515625 715.7544555664062Q678.0865478515625 719.54052734375 676.6504516601562 722.8696594238281Q675.21435546875 726.1987915039062 672.6903076171875 728.7228393554688Q670.166259765625 731.2468872070312 666.8371276855469 732.6829833984375Q663.5079956054688 734.1190795898438 659.721923828125 734.1190795898438Q655.9358520507812 734.1190795898438 652.6067199707031 732.6829833984375Q649.277587890625 731.2468872070312 646.7535400390625 728.7228393554688Q644.2294921875 726.1987915039062 642.7933959960938 722.8696594238281Q641.3572998046875 719.54052734375 641.3572998046875 715.7544555664062Q641.3572998046875 711.9683837890625 642.7933959960938 708.6392517089844Q644.2294921875 705.3101196289062 646.7535400390625 702.7860717773438Q649.277587890625 700.2620239257812 652.6067199707031 698.825927734375Q655.9358520507812 697.3898315429688 659.721923828125 697.3898315429688Q663.5079956054688 697.3898315429688 666.8371276855469 698.825927734375Q670.166259765625 700.2620239257812 672.6903076171875 702.7860717773438Q675.21435546875 705.3101196289062 676.6504516601562 708.6392517089844Q678.0865478515625 711.9683837890625 678.0865478515625 715.7544555664062Z" fill="#1e50a0" />
<path d="M939.53076171875 556.096435546875Q939.53076171875 561.767578125 937.379638671875 566.7542724609375Q935.228515625 571.740966796875 931.44775390625 575.521728515625Q927.6669921875 579.302490234375 922.6802978515625 581.45361328125Q917.693603515625 583.604736328125 912.0224609375 583.604736328125Q906.351318359375 583.604736328125 901.3646240234375 581.45361328125Q896.3779296875 579.302490234375 892.59716796875 575.521728515625Q888.81640625 571.740966796875 886.665283203125 566.7542724609375Q884.51416015625 561.767578125 884.51416015625 556.096435546875Q884.51416015625 550.42529296875 886.665283203125 545.4385986328125Q888.81640625 540.451904296875 892.59716796875 536.671142578125Q896.3779296875 532.890380859375 901.3646240234375 530.7392578125Q906.351318359375 528.588134765625 912.0224609375 528.588134765625Q917.693603515625 528.588134765625 922.6802978515625 530.7392578125Q927.6669921875 532.890380859375 931.44775390625 536.671142578125Q935.228515625 540.451904296875 937.379638671875 545.4385986328125Q939.53076171875 550.42529296875 939.53076171875 556.096435546875Z" fill="#fcea2b" />
<path d="M930.0865478515625 546.7544555664062Q930.0865478515625 550.54052734375 928.6504516601562 553.8696594238281Q927.21435546875 557.1987915039062 924.6903076171875 559.7228393554688Q922.166259765625 562.2468872070312 918.8371276855469 563.6829833984375Q915.5079956054688 565.1190795898438 911.721923828125 565.1190795898438Q907.9358520507812 565.1190795898438 904.6067199707031 563.6829833984375Q901.277587890625 562.2468872070312 898.7535400390625 559.7228393554688Q896.2294921875 557.1987915039062 894.7933959960938 553.8696594238281Q893.3572998046875 550.54052734375 893.3572998046875 546.7544555664062Q893.3572998046875 542.9683837890625 894.7933959960938 539.6392517089844Q896.2294921875 536.3101196289062 898.7535400390625 533.7860717773438Q901.277587890625 531.2620239257812 904.6067199707031 529.825927734375Q907.9358520507812 528.3898315429688 911.721923828125 528.3898315429688Q915.5079956054688 528.3898315429688 918.8371276855469 529.825927734375Q922.166259765625 531.2620239257812 924.6903076171875 533.7860717773438Q927.21435546875 536.3101196289062 928.6504516601562 539.6392517089844Q930.0865478515625 542.9683837890625 930.0865478515625 546.7544555664062Z" fill="#1e50a0" />
<path d="M554.53076171875 637.096435546875Q554.53076171875 642.767578125 552.379638671875 647.7542724609375Q550.228515625 652.740966796875 546.44775390625 656.521728515625Q542.6669921875 660.302490234375 537.6802978515625 662.45361328125Q532.693603515625 664.604736328125 527.0224609375 664.604736328125Q521.351318359375 664.604736328125 516.3646240234375 662.45361328125Q511.3779296875 660.302490234375 507.59716796875 656.521728515625Q503.81640625 652.740966796875 501.665283203125 647.7542724609375Q499.51416015625 642.767578125 499.51416015625 637.096435546875Q499.51416015625 631.42529296875 501.665283203125 626.4385986328125Q503.81640625 621.451904296875 507.59716796875 617.671142578125Q511.3779296875 613.890380859375 516.3646240234375 611.7392578125Q521.351318359375 609.588134765625 527.0224609375 609.588134765625Q532.693603515625 609.588134765625 537.6802978515625 611.7392578125Q542.6669921875 613.890380859375 546.44775390625 617.671142578125Q550.228515625 621.451904296875 552.379638671875 626.4385986328125Q554.53076171875 631.42529296875 554.53076171875 637.096435546875Z" fill="#fcea2b" />
<path d="M545.0865478515625 627.7544555664062Q545.0865478515625 631.54052734375 543.6504516601562 634.8696594238281Q542.21435546875 638.1987915039062 539.6903076171875 640.7228393554688Q537.166259765625 643.2468872070312 533.8371276855469 644.6829833984375Q530.5079956054688 646.1190795898438 526.721923828125 646.1190795898438Q522.9358520507812 646.1190795898438 519.6067199707031 644.6829833984375Q516.277587890625 643.2468872070312 513.7535400390625 640.7228393554688Q511.2294921875 638.1987915039062 509.79339599609375 634.8696594238281Q508.3572998046875 631.54052734375 508.3572998046875 627.7544555664062Q508.3572998046875 623.9683837890625 509.79339599609375 620.6392517089844Q511.2294921875 617.3101196289062 513.7535400390625 614.7860717773438Q516.277587890625 612.2620239257812 519.6067199707031 610.825927734375Q522.9358520507812 609.3898315429688 526.721923828125 609.3898315429688Q530.5079956054688 609.3898315429688 533.8371276855469 610.825927734375Q537.166259765625 612.2620239257812 539.6903076171875 614.7860717773438Q542.21435546875 617.3101196289062 543.6504516601562 620.6392517089844Q545.0865478515625 623.9683837890625 545.0865478515625 627.7544555664062Z" fill="#1e50a0" />
<path d="M822.53076171875 637.096435546875Q822.53076171875 642.767578125 820.379638671875 647.7542724609375Q818.228515625 652.740966796875 814.44775390625 656.521728515625Q810.6669921875 660.302490234375 805.6802978515625 662.45361328125Q800.693603515625 664.604736328125 795.0224609375 664.604736328125Q789.351318359375 664.604736328125 784.3646240234375 662.45361328125Q779.3779296875 660.302490234375 775.59716796875 656.521728515625Q771.81640625 652.740966796875 769.665283203125 647.7542724609375Q767.51416015625 642.767578125 767.51416015625 637.096435546875Q767.51416015625 631.42529296875 769.665283203125 626.4385986328125Q771.81640625 621.451904296875 775.59716796875 617.671142578125Q779.3779296875 613.890380859375 784.3646240234375 611.7392578125Q789.351318359375 609.588134765625 795.0224609375 609.588134765625Q800.693603515625 609.588134765625 805.6802978515625 611.7392578125Q810.6669921875 613.890380859375 814.44775390625 617.671142578125Q818.228515625 621.451904296875 820.379638671875 626.4385986328125Q822.53076171875 631.42529296875 822.53076171875 637.096435546875Z" fill="#fcea2b" />
<path d="M813.0865478515625 627.7544555664062Q813.0865478515625 631.54052734375 811.6504516601562 634.8696594238281Q810.21435546875 638.1987915039062 807.6903076171875 640.7228393554688Q805.166259765625 643.2468872070312 801.8371276855469 644.6829833984375Q798.5079956054688 646.1190795898438 794.721923828125 646.1190795898438Q790.9358520507812 646.1190795898438 787.6067199707031 644.6829833984375Q784.277587890625 643.2468872070312 781.7535400390625 640.7228393554688Q779.2294921875 638.1987915039062 777.7933959960938 634.8696594238281Q776.3572998046875 631.54052734375 776.3572998046875 627.7544555664062Q776.3572998046875 623.9683837890625 777.7933959960938 620.6392517089844Q779.2294921875 617.3101196289062 781.7535400390625 614.7860717773438Q784.277587890625 612.2620239257812 787.6067199707031 610.825927734375Q790.9358520507812 609.3898315429688 794.721923828125 609.3898315429688Q798.5079956054688 609.3898315429688 801.8371276855469 610.825927734375Q805.166259765625 612.2620239257812 807.6903076171875 614.7860717773438Q810.21435546875 617.3101196289062 811.6504516601562 620.6392517089844Q813.0865478515625 623.9683837890625 813.0865478515625 627.7544555664062Z" fill="#1e50a0" />
<path d="M782 34Q767 45 756 30Q746 15 761 4Q826 -42 852 -24Q870 -12 866 27Q930 2 950 25Q970 47 939 105Q1017 116 1027 148Q1034 171 999 207Q1097 227 1095 269Q1094 295 1048 307Q1104 333 1104 364Q1104 389 1059 409Q1118 442 1115 473Q1113 499 1060 516Q1110 577 1093 606Q1079 630 1023 622Q1053 689 1030 712Q1004 738 925 714Q937 777 908 795Q882 810 832 772Q831 806 807 827Q772 859 720 816Q688 874 660 874Q632 874 601 811Q563 851 524 838Q493 828 494 768Q440 811 412 795Q383 778 389 715Q317 738 290 712Q259 682 292 623Q241 629 227 606Q210 577 260 516Q207 499 205 473Q202 442 261 409Q216 389 216 364Q216 333 256 313Q217 294 226 263Q241 210 307 200Q310 200 314 199Q287 169 293 148Q303 116 381 105Q350 47 370 25Q390 3 454 28Q450 -12 468 -24Q494 -42 559 4Q574 15 564 30Q559 37 552 38Q546 39 538 34Q494 3 488 6Q485 9 496 54Q497 61 494 66Q490 75 484 77Q478 79 470 75Q403 43 397 50Q392 56 426 110Q429 114 429 119Q430 137 412 139Q332 145 328 158Q326 166 373 204Q381 211 380 222Q377 240 358 237Q275 223 261 273Q260 276 282 284Q299 291 317 293Q329 295 332 307Q337 325 319 329Q253 345 252 364Q252 372 314 388Q322 391 325 399Q333 415 316 423Q240 456 241 470Q242 476 297 488Q302 489 306 493Q319 505 307 519Q253 577 259 588Q263 595 326 579Q335 577 341 582Q349 588 350 594Q351 601 345 608Q299 670 316 686Q331 700 405 671Q409 669 415 670Q424 672 427 677Q431 682 429 691Q418 755 431 763Q442 770 503 710Q510 703 519 705Q528 706 532 711Q536 716 534 725Q523 799 535 803Q558 811 591 766Q594 762 599 760Q607 757 613 759Q619 762 623 770Q651 837 660 837Q670 837 698 778Q699 775 701 773Q708 767 714 767Q721 767 727 773Q767 814 783 800Q805 781 787 729Q783 718 791 710Q804 697 817 710Q878 770 889 763Q901 756 881 692Q879 686 881 680Q888 663 905 669Q990 700 1004 686Q1013 677 973 606Q970 600 972 593Q974 584 979 580Q985 577 994 579Q1057 595 1061 588Q1067 577 1013 519Q1010 515 1009 510Q1007 501 1010 496Q1014 490 1023 488Q1078 476 1079 470Q1080 456 1004 423Q996 419 994 411Q989 393 1006 388Q1068 372 1068 364Q1067 345 965 318Q952 315 951 301Q950 283 968 282Q1058 277 1059 267Q1059 251 956 237Q949 236 944 230Q933 216 947 204Q994 166 992 158Q988 145 908 139Q903 138 900 136Q884 126 894 110Q928 56 923 50Q916 42 850 75Q844 78 838 76Q820 72 824 54Q835 9 832 6Q826 3 782 34ZM974 285 972 282H969L970 299Z" fill="#000000" />
<path d="M639 649Q588 649 524 554Q521 550 521 546Q519 528 537 526Q612 519 618 512Q623 505 618 444Q612 380 600 347Q595 332 572 294Q520 208 521 163Q522 114 556 64Q598 2 660 1Q713 0 755 45Q799 93 799 164Q799 195 756 270Q724 325 721 344Q717 367 721 442Q729 559 713 597Q696 650 639 649ZM640 612Q670 613 679 585Q679 584 679 583Q691 554 685 444Q680 365 684 338Q689 313 724 252Q763 185 763 164Q763 108 728 70Q697 37 660 37Q618 38 586 84Q558 125 557 164Q557 198 603 275Q628 317 635 335Q648 372 654 440Q661 517 646 536Q634 550 572 559Q613 612 640 612Q640 612 640 612Z" fill="#000000" />
<path d="M624 37Q624 56 606 56Q587 56 587 37V-53L559 -62Q551 -65 548 -71Q545 -77 548 -85Q554 -103 571 -97L612 -83Q624 -79 624 -66Z" fill="#000000" />
<path d="M646 -84Q665 -84 665 -66Q665 -48 646 -48H606Q587 -48 587 -66Q587 -84 606 -84Z" fill="#000000" />
<path d="M733 35Q733 54 714 54Q696 54 696 35V-53L668 -62Q650 -68 656 -85Q662 -103 679 -97L720 -83Q733 -79 733 -66Z" fill="#000000" />
<path d="M754 -84Q773 -84 773 -66Q773 -48 754 -48H714Q695 -48 695 -66Q695 -84 714 -84Z" fill="#000000" />
</g></svg>