<svg xmlns="http://www.w3.org/2000/svg" viewBox="0 0 2048 2048">
<g transform="matrix(1 0 0 -1 0 2048)">
<path d="M660 807Q747 807 823.5 774.0Q900 741 958.0 683.0Q1016 625 1049.0 548.5Q1082 472 1082 385Q1082 298 1049.0 221.5Q1016 145 958.0 87.0Q900 29 823.5 -4.0Q747 -37 660 -37Q573 -37 496.5 -4.0Q420 29 362.0 87.0Q304 145 271.0 221.5Q238 298 238 385Q238 472 271.0 548.5Q304 625 362.0 683.0Q420 741 496.5 774.0Q573 807 660 807Z" fill="#fcea2b" />
<path d="M1100 385Q1100 567 971 696Q842 825 660 825Q478 825 349 696Q220 567 220 385Q220 203 349 74Q478 -55 660 -55Q842 -55 971 74Q1100 203 1100 385ZM1063 385Q1063 218 945 100Q827 -18 660 -18Q493 -18 375 100Q257 218 257 385Q257 552 375 670Q493 788 660 788Q827 788 945 670Q1063 552 1063 385Z" fill="#000000" />
<path d="M495 220Q477 220 477 202Q477 183 495 183H825Q843 183 843 202Q843 220 825 220Z" fill="#000000" />
<path d="M433 453Q419 464 408 450Q396 436 410 424Q455 387 513 390Q561 393 598 425Q612 436 601 450Q589 464 575 453Q547 429 511 427Q467 424 433 453Z" fill="#000000" />
<path d="M763 453Q749 464 738 450Q726 436 740 424Q785 387 843 390Q891 393 928 425Q942 436 931 450Q919 464 905 453Q877 429 841 427Q797 424 763 453Z" fill="#000000" />
<path d="M372.40631103515625 562.2476196289062Q356.06890869140625 569.3211669921875 348.995361328125 552.9837646484375Q340.954833984375 536.391845703125 357.5467529296875 528.351318359375Q410.47796630859375 504.02630615234375 465.79925537109375 521.689208984375Q511.45074462890625 536.8069458007812 539.08447265625 577.1674194335938Q549.822509765625 591.367431640625 535.6224975585938 602.10546875Q520.4555053710938 612.5889892578125 509.71746826171875 598.3889770507812Q488.75042724609375 568.0549926757812 454.44818115234375 556.9584350585938Q412.66461181640625 542.8587646484375 372.40631103515625 562.2476196289062Z" fill="#000000" />
<path d="M973 529Q981 533 983 539Q986 545 982 553Q974 570 957 562Q917 543 876 557Q842 568 821 598Q810 613 795 602Q787 597 786 591Q785 584 791 577Q819 537 865 522Q920 504 973 529Z" fill="#000000" />
</g></svg>