<svg xmlns="http://www.w3.org/2000/svg" viewBox="0 0 2048 2048">
<g transform="matrix(1 0 0 -1 0 2048)">
<path d="M701.608642578125 898.6759033203125Q701.608642578125 909.9013671875 697.3507080078125 919.7720336914062Q693.0927734375 929.6427001953125 685.609130859375 937.1263427734375Q678.12548828125 944.6099853515625 668.2548217773438 948.867919921875Q658.3841552734375 953.1258544921875 647.15869140625 953.1258544921875Q635.9332275390625 953.1258544921875 626.0625610351562 948.867919921875Q616.19189453125 944.6099853515625 608.708251953125 937.1263427734375Q601.224609375 929.6427001953125 596.9666748046875 919.7720336914062Q592.708740234375 909.9013671875 592.708740234375 898.6759033203125Q592.708740234375 887.450439453125 596.9666748046875 877.5797729492188Q601.224609375 867.7091064453125 608.708251953125 860.2254638671875Q616.19189453125 852.7418212890625 626.0625610351562 848.48388671875Q635.9332275390625 844.2259521484375 647.15869140625 844.2259521484375Q658.3841552734375 844.2259521484375 668.2548217773438 848.48388671875Q678.12548828125 852.7418212890625 685.609130859375 860.2254638671875Q693.0927734375 867.7091064453125 697.3507080078125 877.5797729492188Q701.608642578125 887.450439453125 701.608642578125 898.6759033203125Z" fill="#fcea2b" />
<path d="M615.6158447265625 867.7972412109375Q616.449951171875 911.029052734375 579.255859375 932.618408203125Q542.061767578125 954.207763671875 504.898193359375 932.56591796875Q468.5992431640625 910.9246826171875 468.6297607421875 867.6934814453125Q468.6602783203125 824.4622802734375 504.98974609375 802.872314453125Q542.183837890625 781.282958984375 579.347412109375 802.9248046875Q616.510986328125 824.566650390625 615.6158447265625 867.7972412109375Z" fill="#fcea2b" />
<path d="M599 749 472 741 424 689 392 578V438L395 422L406 369L391 166L367 54L322 -154L367 -175L429 -66L495 88L552 265Q552 265 555.5 291.5Q559 318 564.5 360.0Q570 402 576.0 450.5Q582 499 586.0 545.0Q590 591 591 624Q593 687 595.0 713.0Q597 739 598.0 744.0Q599 749 599 749Z" fill="#fcea2b" />
<path d="M587 701 560 214 518 -147 543 -179 587 -157 662 133 698 131 774 -90 822 -178 853 -135 816 29 759 333 782 422 778 702Q778 702 775.5 716.0Q773 730 763.0 744.0Q753 758 731 759Q702 761 679.0 763.5Q656 766 625 756Q605 749 597.0 735.5Q589 722 588.0 711.5Q587 701 587 701Z" fill="#fcea2b" />
<path d="M720 899Q720 929 699 951Q677 972 647 972Q574 972 574 899Q574 826 647 826Q720 826 720 899ZM684 899Q684 884 673 873Q662 862 647 862Q610 862 610 899Q610 936 647 936Q684 936 684 899Z" fill="#000000" />
<path d="M557 797Q566 799 570 804Q573 809 571 818Q567 836 549 832Q535 829 522 837Q509 845 506 860Q498 896 534 904Q543 906 546 911Q550 917 548 926Q544 944 526 940Q454 924 470 852Q476 823 502 806Q528 790 557 797Z" fill="#000000" />
<path d="M615 481Q617 499 599 502Q581 504 578 486L501 -142Q498 -165 510 -181Q524 -199 546 -199Q591 -199 605 -150L705 218Q714 251 733 278L774 336Q798 371 796 414L787 599Q786 618 768 617Q750 616 751 598L760 412Q761 382 744 357L703 299Q680 267 670 228L569 -141Q563 -163 546 -163Q542 -163 540 -159Q536 -154 537 -147Z" fill="#000000" />
<path d="M778 351Q775 369 757 366Q739 363 742 345L775 134Q781 97 790 61L834 -123Q840 -146 823 -157Q820 -159 818 -158Q814 -157 812 -150L759 16Q748 52 734 86L694 190Q687 207 670 201Q653 194 660 177L700 73Q713 40 724 5L777 -161Q784 -184 803 -192Q824 -201 843 -188Q882 -162 870 -114L826 69Q817 104 811 140Z" fill="#000000" />
<path d="M751 597Q752 579 770 580Q780 581 784 586Q788 591 787 600L779 699Q777 717 759 715Q750 715 746 710Q741 705 742 696Z" fill="#000000" />
<path d="M695 666Q707 680 693 692Q686 698 679 697Q673 696 667 689L594 601Q575 577 545 568L349 514Q332 509 336 492Q341 474 359 479L555 533Q596 544 623 577Z" fill="#000000" />
<path d="M393 579Q390 561 408 558Q426 555 429 573L445 672Q454 726 485 722Q537 714 613 726L780 753Q798 756 795 774Q793 783 788 787Q783 790 774 789L607 762Q537 751 491 758Q461 762 437 736Q415 713 409 678Z" fill="#000000" />
<path d="M388 317Q388 299 406 298Q424 298 425 316L428 443Q429 462 410 462Q392 463 392 444Z" fill="#000000" />
<path d="M425 315Q427 333 408 335Q399 336 394 332Q389 328 388 319L369 140Q369 139 369 138Q368 116 356 72Q352 57 351 50L307 -133Q301 -156 316 -176Q330 -195 354 -197Q391 -199 406 -165Q406 -165 406 -164L495 88Q502 105 484 112Q467 118 461 100L372 -151Q367 -161 357 -160Q349 -160 345 -154Q341 -148 343 -141L386 41Q388 48 392 62Q404 110 405 136Z" fill="#000000" />
</g></svg>