<svg xmlns="http://www.w3.org/2000/svg" viewBox="0 0 2048 2048">
<g transform="matrix(1 0 0 -1 0 2048)">
<path d="M684.5 92.125Q684.5 103.5 680.25 113.5Q676.0 123.5 668.4375 131.0625Q660.875 138.625 650.875 142.875Q640.875 147.125 629.5 147.125Q618.125 147.125 608.125 142.875Q598.125 138.625 590.5625 131.0625Q583.0 123.5 578.75 113.5Q574.5 103.5 574.5 92.125Q574.5 80.75 578.75 70.75Q583.0 60.75 590.5625 53.1875Q598.125 45.625 608.125 41.375Q618.125 37.125 629.5 37.125Q640.875 37.125 650.875 41.375Q660.875 45.625 668.4375 53.1875Q676.0 60.75 680.25 70.75Q684.5 80.75 684.5 92.125Z" fill="#fcea2b" />
<path d="M434 182Q457 218 474.0 237.0Q491 256 495 275L532 403L367 513L183 623L202 678L403 587L605 532L642 550L752 642L880 862H935L843 605L733 440L715 312L752 275Q752 275 762.5 265.5Q773 256 788.0 241.0Q803 226 816 209Q827 195 831.5 162.5Q836 130 836.5 92.5Q837 55 835.5 23.0Q834 -9 832.0 -24.0Q830 -39 830 -25Q830 -25 831.5 -32.5Q833 -40 831.0 -49.0Q829 -58 819.5 -65.5Q810 -73 788 -73Q788 -73 788.0 -52.5Q788 -32 787.5 -1.0Q787 30 785.0 62.5Q783 95 779.5 120.5Q776 146 769 155Q759 170 733.0 188.5Q707 207 672.5 218.0Q638 229 602 219Q574 212 549.5 207.0Q525 202 506.0 192.0Q487 182 474.5 160.0Q462 138 458 97Q451 15 455.0 -29.0Q459 -73 459 -73Q427 -73 420.5 -61.0Q414 -49 415 -22Q416 56 416.0 105.0Q416 154 434 182Z" fill="#fcea2b" />
<path d="M703 92Q703 165 630 165Q556 165 556 92Q556 19 630 19Q703 19 703 92ZM666 92Q666 55 630 55Q593 55 593 92Q593 129 630 129Q666 129 666 92Z" fill="#000000" />
<path d="M495 278Q494 269 498 263Q502 258 511 257Q529 254 531 272L545 364Q551 412 511 439L407 508Q377 529 345 548L224 620Q205 631 210 645Q211 647 214 648Q220 650 227 646L362 585Q397 569 434 559L565 524Q607 512 632 524Q652 535 682 559L735 604Q766 630 786 664L877 821Q890 843 907 843Q908 840 905 833L838 646Q827 613 808 585L738 481Q716 447 710 406L702 351Q696 309 708 285L717 267Q725 250 742 259Q758 267 750 283L741 302Q734 315 738 345L746 401Q751 433 769 460L838 564Q860 597 873 633L940 821Q947 842 940 859Q931 880 908 880Q869 880 846 839L754 683Q737 654 712 632L658 588Q632 565 615 557Q603 551 574 559L444 595Q410 604 378 619L243 680Q223 689 204 683Q182 677 175 657Q161 615 205 589L326 516Q357 498 387 478L491 408Q512 394 508 370Z" fill="#000000" />
<path d="M440 -55Q440 -73 458 -73Q477 -73 477 -55V92Q477 169 536 184Q623 206 711 184Q770 169 770 92V-55Q770 -73 788 -73Q807 -73 807 -55V92Q807 198 719 219Q623 243 527 219Q440 198 440 92Z" fill="#000000" />
</g></svg>