<svg xmlns="http://www.w3.org/2000/svg" viewBox="0 0 2048 2048">
<g transform="matrix(1 0 0 -1 0 2048)">
<path d="M1224 146 1227 293Q1233 331 1168.0 347.5Q1103 364 974.0 367.5Q845 371 660 371Q473 371 355.5 359.0Q238 347 175.5 325.0Q113 303 92 271L94 146Q94 146 98.5 131.0Q103 116 108.5 98.0Q114 80 115 70Q118 47 133.0 30.5Q148 14 171 14H1149Q1172 14 1178.0 30.5Q1184 47 1187 70Q1188 80 1197.0 98.0Q1206 116 1215.0 131.0Q1224 146 1224 146Z" fill="#ffffff" />
<path d="M1168 379Q1195 369 1211.5 346.0Q1228 323 1228 293Q1228 255 1201.5 228.5Q1175 202 1137 202Q1111 202 1090.0 215.0Q1069 228 1057 248Q1045 228 1024.0 215.0Q1003 202 978 202Q952 202 931.0 215.0Q910 228 898 248Q887 228 866.0 215.0Q845 202 819 202Q793 202 772.0 215.0Q751 228 739 248Q728 228 707.0 215.0Q686 202 660 202Q634 202 613.0 215.0Q592 228 581 248Q569 228 548.0 215.0Q527 202 501 202Q475 202 454.0 215.0Q433 228 422 248Q410 228 389.0 215.0Q368 202 342 202Q317 202 296.0 215.0Q275 228 263 248Q251 228 230.0 215.0Q209 202 183 202Q145 202 118.5 228.5Q92 255 92 293Q92 324 110.0 347.5Q128 371 155 380Q160 413 168.0 435.5Q176 458 176 458Q221 555 296.0 624.5Q371 694 465.0 731.0Q559 768 661.5 768.5Q764 769 863 728Q965 686 1038.5 610.0Q1112 534 1151 440Q1151 440 1157.0 420.0Q1163 400 1168 379Z" fill="#fcea2b" />
<path d="M1228 141Q1233 159 1215 164Q1198 169 1192 152Q1176 96 1173 76Q1169 37 1137 37H183Q151 37 147 76Q144 96 128 152Q125 161 119 164Q114 167 105 164Q87 159 92 141Q108 88 110 71Q119 0 183 0H1137Q1201 0 1210 71Q1212 88 1228 141Z" fill="#000000" />
<path d="M1184 392Q1178 417 1169 446Q1168 446 1168 447Q1081 657 870 745Q665 830 458 748Q252 667 160 465Q160 465 160 465Q146 433 139 394Q73 367 73 293Q73 248 106 216Q138 183 183 183Q233 183 263 217Q293 183 342 183Q392 183 422 217Q452 183 501 183Q550 183 581 217Q611 183 660 183Q709 183 739 217Q770 183 819 183Q868 183 898 217Q928 183 978 183Q1027 183 1057 217Q1087 183 1137 183Q1182 183 1214 216Q1247 248 1247 293Q1247 365 1184 392ZM1151 375Q1153 365 1162 362Q1210 344 1210 293Q1210 220 1137 220Q1094 220 1073 257Q1071 262 1066 264Q1058 269 1052 267Q1046 265 1041 257Q1020 220 978 220Q936 220 914 257Q912 262 907 264Q891 273 882 257Q861 220 819 220Q777 220 755 257Q753 262 748 264Q741 269 734 267Q728 265 723 257Q702 220 660 220Q618 220 597 257Q594 262 590 264Q582 269 575 267Q569 265 565 257Q543 220 501 220Q459 220 438 257Q435 262 431 264Q423 269 416 267Q410 265 406 257Q384 220 342 220Q300 220 279 257Q276 262 272 264Q264 269 258 267Q251 265 247 257Q226 220 183 220Q147 220 128 238Q110 257 110 293Q110 346 161 363Q172 366 173 377Q180 418 193 450Q279 638 472 714Q665 790 856 711Q1053 630 1134 434Q1144 402 1151 375Z" fill="#000000" />
<path d="M642 458Q642 440 660 440Q678 440 678 458V568Q678 587 660 587Q642 587 642 568Z" fill="#000000" />
<path d="M399 516Q386 503 399 490Q411 477 424 490L512 578Q525 591 512 604Q499 617 486 604Z" fill="#000000" />
<path d="M896 490Q909 477 922 490Q928 497 928 503Q928 510 922 516L834 604Q821 617 808 604Q801 597 801 591Q801 584 808 578Z" fill="#000000" />
</g></svg>