<svg xmlns="http://www.w3.org/2000/svg" viewBox="0 0 2048 2048">
<g transform="matrix(1 0 0 -1 0 2048)">
<path d="M422 422Q422 422 409.0 418.0Q396 414 367 385Q341 360 326.5 335.0Q312 310 312 293Q312 280 323.5 263.5Q335 247 348 220Q329 212 312 202Q305 197 292.0 185.0Q279 173 268.0 154.0Q257 135 257 110Q257 89 279.0 72.0Q301 55 336.5 43.5Q372 32 413.0 28.5Q454 25 491 33Q546 33 607.5 33.5Q669 34 725.0 32.5Q781 31 821 26Q889 17 933.5 13.0Q978 9 1008 18Q1011 19 1024.0 24.5Q1037 30 1053.5 41.0Q1070 52 1083.5 69.0Q1097 86 1100 110Q1104 136 1094.0 160.5Q1084 185 1063 202Q1031 227 990 220Q1015 243 1025.5 273.5Q1036 304 1027 330Q1009 368 972 385Q937 404 898 403Q923 436 917 477Q910 512 880 532Q838 561 788 550Q795 562 805.0 587.5Q815 613 807 642Q800 664 782.5 679.0Q765 694 733 715Q654 766 568 807Q557 770 550 733Q543 699 533.0 669.0Q523 639 513 605Q500 601 490.0 592.0Q480 583 458 568Q435 552 421.0 541.0Q407 530 403 513Q399 495 404.0 473.5Q409 452 415.5 437.0Q422 422 422 422Z" fill="#a57939" />
<path d="M568 807Q605 788 626.5 768.5Q648 749 663.0 723.0Q678 697 697 660Q710 634 721.0 605.5Q732 577 732.5 545.0Q733 513 715 477Q750 468 768.0 440.0Q786 412 790.5 376.5Q795 341 788 312Q837 301 861.0 282.5Q885 264 892.5 239.0Q900 214 898 183Q917 183 937.5 172.5Q958 162 969.5 145.0Q981 128 972 110Q971 107 957.0 97.5Q943 88 911.5 76.0Q880 64 825 55Q799 51 806.0 44.5Q813 38 840.0 32.0Q867 26 901.5 21.5Q936 17 966.0 15.5Q996 14 1008 18Q1011 19 1024.0 24.5Q1037 30 1053.5 41.0Q1070 52 1083.5 69.0Q1097 86 1100 110Q1104 136 1094.0 160.5Q1084 185 1063 202Q1031 227 990 220Q1015 243 1025.5 273.5Q1036 304 1027 330Q1009 368 972 385Q937 404 898 403Q923 436 917 477Q910 512 880 532Q838 561 788 550Q795 562 805.0 587.5Q815 613 807 642Q800 664 782.5 679.0Q765 694 733 715Q654 766 568 807Z" fill="#6a462f" />
<path d="M589 323Q589 375 562.5 412.0Q536 449 499 449Q461 449 435.0 412.0Q409 375 409 323Q409 270 435.0 233.0Q461 196 499 196Q536 196 562.5 233.0Q589 270 589 323Z" fill="#ffffff" />
<path d="M890 332Q890 384 863.5 421.0Q837 458 800 458Q762 458 736.0 421.0Q710 384 710 332Q710 279 736.0 242.0Q762 205 800 205Q837 205 863.5 242.0Q890 279 890 332Z" fill="#ffffff" />
<path d="M433 383Q451 383 451 402Q451 419 434 420Q420 446 422 476Q427 541 485 570Q499 577 521 578Q551 579 575 588Q624 607 656 649Q667 663 653 675Q646 680 639 679Q633 678 627 671Q601 638 562 622Q544 615 519 614Q490 613 469 603Q469 603 468 603Q391 564 385 478Q385 478 385 478Q384 445 395 415Q337 397 314 357Q283 302 326 222Q238 195 238 128Q238 18 422 18Q535 18 812 111Q907 139 980 204Q983 203 987 202Q988 202 990 201Q1066 191 1083 141Q1094 108 1065 73Q1035 37 990 37Q945 37 868 52Q810 63 777 66Q759 68 757 49Q756 31 774 29Q805 26 861 16Q942 0 990 0Q1052 0 1094 50Q1135 101 1117 153Q1095 217 1012 235Q1065 298 1005 378Q1004 378 1004 379Q972 413 928 420Q929 425 931 430Q944 471 934 501Q915 557 814 567Q833 620 824 647V648Q805 710 723 750L577 823Q568 827 562 825Q556 823 552 815Q549 809 550 803Q555 779 550 755Q549 747 543 721Q535 681 532 663Q529 645 547 642Q565 639 568 657Q571 675 579 714Q585 740 586 748Q589 762 589 776L707 717Q774 684 789 637Q789 636 789 636Q795 618 775 568Q773 562 772 558Q737 508 686 474Q637 440 579 427Q561 423 565 405Q567 396 573 392Q578 389 587 391Q652 405 707 443Q760 479 798 531Q887 526 899 489Q906 470 896 442Q889 420 885 416Q883 414 882 412Q880 407 876 403Q863 390 877 377Q890 365 902 378Q906 382 909 386Q912 385 915 385Q951 382 976 355Q1021 295 977 251Q903 176 801 146Q801 146 801 146Q529 55 422 55Q275 55 275 128Q275 195 444 202H457Q475 202 475 220Q475 238 457 238H445Q444 238 443 238Q442 238 441 238Q398 236 364 230Q363 231 363 231Q324 299 346 339Q364 371 422 385H423Q429 383 433 383ZM572 244Q563 243 559 238Q555 233 556 223Q558 205 576 207Q660 217 737 253Q754 261 746 277Q738 294 722 286Q650 252 572 244Z" fill="#000000" />
<path d="M584 214Q621 262 620 323Q620 382 590 425Q556 471 508 471Q459 471 426 425Q396 382 396 323Q396 263 426 220Q459 174 508 174H509Q556 176 584 214ZM567 227 548 240Q533 220 507 218Q482 219 463 246Q440 278 440 323Q440 368 463 399Q482 427 508 427Q533 427 553 399Q575 368 575 323Q576 277 549 241Z" fill="#000000" />
<path d="M709 262 730 270 709 261Q742 183 809 183Q857 183 890 229Q921 271 921 332Q921 392 890 435Q857 481 809 481Q760 481 727 434Q696 391 696 332Q696 296 709 262ZM750 278Q741 304 741 332Q741 377 763 408Q783 436 809 436Q834 436 854 409Q876 378 876 332Q876 286 854 255Q834 228 809 228Q772 228 750 278Z" fill="#000000" />
<path d="M845.0570068359375 330.43743896484375Q845.0570068359375 345.8302001953125 834.2820739746094 356.6051330566406Q823.5071411132812 367.38006591796875 808.1143798828125 367.38006591796875Q792.7216186523438 367.38006591796875 781.9466857910156 356.6051330566406Q771.1717529296875 345.8302001953125 771.1717529296875 330.43743896484375Q771.1717529296875 315.044677734375 781.9466857910156 304.2697448730469Q792.7216186523438 293.49481201171875 808.1143798828125 293.49481201171875Q823.5071411132812 293.49481201171875 834.2820739746094 304.2697448730469Q845.0570068359375 315.044677734375 845.0570068359375 330.43743896484375Z" fill="#000000" />
<path d="M545.0570068359375 322.43743896484375Q545.0570068359375 337.8302001953125 534.2820739746094 348.6051330566406Q523.5071411132812 359.38006591796875 508.1143798828125 359.38006591796875Q492.72161865234375 359.38006591796875 481.9466857910156 348.6051330566406Q471.1717529296875 337.8302001953125 471.1717529296875 322.43743896484375Q471.1717529296875 307.044677734375 481.9466857910156 296.2697448730469Q492.72161865234375 285.49481201171875 508.1143798828125 285.49481201171875Q523.5071411132812 285.49481201171875 534.2820739746094 296.2697448730469Q545.0570068359375 307.044677734375 545.0570068359375 322.43743896484375Z" fill="#000000" />
</g></svg>