<svg xmlns="http://www.w3.org/2000/svg" viewBox="0 0 2048 2048">
<g transform="matrix(1 0 0 -1 0 2048)">
<path d="M429 202Q416 215 403 202Q390 189 403 176L572 7Q578 1 585 1Q591 1 598 7Q611 20 598 33Z" fill="#000000" />
<path d="M551.1564331054688 149.99261474609375Q551.1564331054688 168.38018798828125 532.7688598632812 168.38018798828125Q514.3812866210938 168.38018798828125 514.3812866210938 149.99261474609375V72.19903564453125Q514.3812866210938 53.81146240234375 532.7688598632812 53.81146240234375Q551.1564331054688 53.81146240234375 551.1564331054688 72.19903564453125Z" fill="#000000" />
<path d="M499.15643310546875 201.99261474609375Q499.15643310546875 220.38018798828125 480.76885986328125 220.38018798828125Q462.38128662109375 220.38018798828125 462.38128662109375 201.99261474609375V124.19903564453125Q462.38128662109375 105.81146240234375 480.76885986328125 105.81146240234375Q499.15643310546875 105.81146240234375 499.15643310546875 124.19903564453125Z" fill="#000000" />
<path d="M455.00738525390625 90.15643310546875Q436.61981201171875 90.15643310546875 436.61981201171875 71.76885986328125Q436.61981201171875 53.38128662109375 455.00738525390625 53.38128662109375H532.8009643554688Q551.1885375976562 53.38128662109375 551.1885375976562 71.76885986328125Q551.1885375976562 90.15643310546875 532.8009643554688 90.15643310546875Z" fill="#000000" />
<path d="M403.00738525390625 142.15643310546875Q384.61981201171875 142.15643310546875 384.61981201171875 123.76885986328125Q384.61981201171875 105.38128662109375 403.00738525390625 105.38128662109375H480.80096435546875Q499.18853759765625 105.38128662109375 499.18853759765625 123.76885986328125Q499.18853759765625 142.15643310546875 480.80096435546875 142.15643310546875Z" fill="#000000" />
<path d="M917 176Q930 189 917 202Q904 215 891 202L722 33Q709 20 722 7Q735 -6 748 7Z" fill="#000000" />
<path d="M805.1564331054688 149.99261474609375Q805.1564331054688 168.38018798828125 786.7688598632812 168.38018798828125Q768.3812866210938 168.38018798828125 768.3812866210938 149.99261474609375V72.19903564453125Q768.3812866210938 53.81146240234375 786.7688598632812 53.81146240234375Q805.1564331054688 53.81146240234375 805.1564331054688 72.19903564453125Z" fill="#000000" />
<path d="M857.1564331054688 201.99261474609375Q857.1564331054688 220.38018798828125 838.7688598632812 220.38018798828125Q820.3812866210938 220.38018798828125 820.3812866210938 201.99261474609375V124.19903564453125Q820.3812866210938 105.81146240234375 838.7688598632812 105.81146240234375Q857.1564331054688 105.81146240234375 857.1564331054688 124.19903564453125Z" fill="#000000" />
<path d="M864.9926147460938 53.84356689453125Q883.3801879882812 53.84356689453125 883.3801879882812 72.23114013671875Q883.3801879882812 90.61871337890625 864.9926147460938 90.61871337890625H787.1990356445312Q768.8114624023438 90.61871337890625 768.8114624023438 72.23114013671875Q768.8114624023438 53.84356689453125 787.1990356445312 53.84356689453125Z" fill="#000000" />
<path d="M916.9926147460938 105.84356689453125Q935.3801879882812 105.84356689453125 935.3801879882812 124.23114013671875Q935.3801879882812 142.61871337890625 916.9926147460938 142.61871337890625H839.1990356445312Q820.8114624023438 142.61871337890625 820.8114624023438 124.23114013671875Q820.8114624023438 105.84356689453125 839.1990356445312 105.84356689453125Z" fill="#000000" />
<path d="M678.6195678710938 257.51605224609375Q678.6148071289062 275.89569091796875 660.2351684570312 275.90045166015625Q641.8555297851562 275.90521240234375 641.8602905273438 257.52557373046875L641.9221801757812 18.59027099609375Q641.9269409179688 0.21063232421875 660.3065795898438 0.20587158203125Q678.6862182617188 0.20111083984375 678.6814575195312 18.58074951171875Z" fill="#000000" />
<path d="M618 160Q605 173 592 160Q579 147 592 134L647 79Q660 66 673 79Q686 92 673 105Z" fill="#000000" />
<path d="M618 233Q605 246 592 233Q579 220 592 207L647 152Q660 139 673 152Q686 165 673 178Z" fill="#000000" />
<path d="M728.0 134.0Q741.0 147.0 728.0 160.0Q715.0 173.0 702.0 160.0L647.0 105.0Q634.0 92.0 647.0 79.0Q660.0 66.0 673.0 79.0Z" fill="#000000" />
<path d="M728.0 207.0Q741.0 220.0 728.0 233.0Q715.0 246.0 702.0 233.0L647.0 178.0Q634.0 165.0 647.0 152.0Q660.0 139.0 673.0 152.0Z" fill="#000000" />
<path d="M660.0 642.0Q660.0 660.0 642.0 660.0Q624.0 660.0 624.0 642.0V440.0Q624.0 422.0 642.0 422.0Q660.0 422.0 660.0 440.0Z" fill="#000000" />
<path d="M696.0 532.0Q696.0 550.0 678.0 550.0Q660.0 550.0 660.0 532.0V330.0Q660.0 312.0 678.0 312.0Q696.0 312.0 696.0 330.0Z" fill="#000000" />
<path d="M669 898Q650 898 636.5 876.5Q623 855 623 825Q623 795 636.5 773.5Q650 752 669 752Q688 752 701.5 773.5Q715 795 715 825Q715 855 701.5 876.5Q688 898 669 898ZM669 935Q704 935 728.0 903.0Q752 871 752 825Q752 779 728.0 747.0Q704 715 669 715Q634 715 610.5 747.0Q587 779 587 825Q587 871 610.5 903.0Q634 935 669 935Z" fill="#000000" />
<path d="M742 605Q723 605 709.5 583.5Q696 562 696 532Q696 502 709.5 480.5Q723 459 742 459Q761 459 774.5 480.5Q788 502 788 532Q788 562 774.5 583.5Q761 605 742 605ZM742 642Q777 642 801.0 610.0Q825 578 825 532Q825 486 801.0 454.0Q777 422 742 422Q707 422 683.5 454.0Q660 486 660 532Q660 578 683.5 610.0Q707 642 742 642Z" fill="#000000" />
<path d="M577 715Q558 715 544.5 693.5Q531 672 531 642Q531 612 544.5 590.5Q558 569 577 569Q596 569 609.5 590.5Q623 612 623 642Q623 672 609.5 693.5Q596 715 577 715ZM577 752Q612 752 636.0 720.0Q660 688 660 642Q660 596 636.0 564.0Q612 532 577 532Q542 532 518.5 564.0Q495 596 495 642Q495 688 518.5 720.0Q542 752 577 752Z" fill="#000000" />
<path d="M669 898Q650 898 637.5 876.5Q625 855 625 825L623 642Q623 672 609.5 693.5Q596 715 578 715Q559 715 545.5 693.5Q532 672 532 642V37H788V532Q788 562 774.5 583.5Q761 605 743 605Q725 604 715 590V825Q715 855 701.5 876.5Q688 898 669 898ZM669 935Q704 935 728.0 903.0Q752 871 752 825V641Q783 637 804.0 606.0Q825 575 825 532V37Q825 21 814.5 10.5Q804 0 788 0H532Q516 0 505.5 10.5Q495 21 495 37V642Q495 688 519.0 720.0Q543 752 578 752Q583 752 588 751V825Q588 872 611.5 903.5Q635 935 669 935Z" fill="#000000" />
<path d="M605.0 18.0Q605.0 36.0 587.0 36.0Q569.0 36.0 569.0 18.0V-184.0Q569.0 -202.0 587.0 -202.0Q605.0 -202.0 605.0 -184.0Z" fill="#000000" />
<path d="M751.0 18.0Q751.0 36.0 733.0 36.0Q715.0 36.0 715.0 18.0V-184.0Q715.0 -202.0 733.0 -202.0Q751.0 -202.0 751.0 -184.0Z" fill="#000000" />
<path d="M843 -64Q862 -64 862 -46Q862 -27 843 -27H477Q458 -27 458 -46Q458 -64 477 -64Z" fill="#000000" />
<path d="M477 -101Q458 -101 458 -119Q458 -137 477 -137H843Q862 -137 862 -119Q862 -101 843 -101Z" fill="#000000" />
<path d="M476.8377685546875 17.81396484375V-183.87890625H843.5223388671875V17.81396484375Z" fill="#f4aa41" />
<path d="M605.0 18.0Q605.0 36.0 587.0 36.0Q569.0 36.0 569.0 18.0V-184.0Q569.0 -202.0 587.0 -202.0Q605.0 -202.0 605.0 -184.0Z" fill="#a57939" />
<path d="M751.0 18.0Q751.0 36.0 733.0 36.0Q715.0 36.0 715.0 18.0V-184.0Q715.0 -202.0 733.0 -202.0Q751.0 -202.0 751.0 -184.0Z" fill="#a57939" />
<path d="M843 -64Q862 -64 862 -46Q862 -27 843 -27H477Q458 -27 458 -46Q458 -64 477 -64Z" fill="#a57939" />
<path d="M477 -101Q458 -101 458 -119Q458 -137 477 -137H843Q862 -137 862 -119Q862 -101 843 -101Z" fill="#a57939" />
<path d="M531.7127685546875 641.3917846679688V36.36669921875H623.3973388671875V641.3917846679688Z" fill="#b1cc33" />
<path d="M623.7127685546875 825.01806640625V36.66015625H715.3973388671875V825.01806640625Z" fill="#5c9e31" />
<path d="M696.7127685546875 531.4661254882812V36.38720703125H788.3973388671875V531.4661254882812Z" fill="#b1cc33" />
<path d="M715 825Q715 855 701.5 876.5Q688 898 669 898Q650 898 636.5 876.5Q623 855 623 825Q623 795 636.5 773.5Q650 752 669 752Q688 752 701.5 773.5Q715 795 715 825Z" fill="#f4aa41" />
<path d="M788 532Q788 562 774.5 583.5Q761 605 742 605Q723 605 709.5 583.5Q696 562 696 532Q696 502 709.5 480.5Q723 459 742 459Q761 459 774.5 480.5Q788 502 788 532Z" fill="#f4aa41" />
<path d="M623 642Q623 672 609.5 693.5Q596 715 577 715Q558 715 544.5 693.5Q531 672 531 642Q531 612 544.5 590.5Q558 569 577 569Q596 569 609.5 590.5Q623 612 623 642Z" fill="#f4aa41" />
<path d="M429 202Q416 215 403 202Q390 189 403 176L572 7Q578 1 585 1Q591 1 598 7Q611 20 598 33Z" fill="#186648" />
<path d="M551.1564331054688 149.99261474609375Q551.1564331054688 168.38018798828125 532.7688598632812 168.38018798828125Q514.3812866210938 168.38018798828125 514.3812866210938 149.99261474609375V72.19903564453125Q514.3812866210938 53.81146240234375 532.7688598632812 53.81146240234375Q551.1564331054688 53.81146240234375 551.1564331054688 72.19903564453125Z" fill="#186648" />
<path d="M499.15643310546875 201.99261474609375Q499.15643310546875 220.38018798828125 480.76885986328125 220.38018798828125Q462.38128662109375 220.38018798828125 462.38128662109375 201.99261474609375V124.19903564453125Q462.38128662109375 105.81146240234375 480.76885986328125 105.81146240234375Q499.15643310546875 105.81146240234375 499.15643310546875 124.19903564453125Z" fill="#186648" />
<path d="M455.00738525390625 90.15643310546875Q436.61981201171875 90.15643310546875 436.61981201171875 71.76885986328125Q436.61981201171875 53.38128662109375 455.00738525390625 53.38128662109375H532.8009643554688Q551.1885375976562 53.38128662109375 551.1885375976562 71.76885986328125Q551.1885375976562 90.15643310546875 532.8009643554688 90.15643310546875Z" fill="#186648" />
<path d="M403.00738525390625 142.15643310546875Q384.61981201171875 142.15643310546875 384.61981201171875 123.76885986328125Q384.61981201171875 105.38128662109375 403.00738525390625 105.38128662109375H480.80096435546875Q499.18853759765625 105.38128662109375 499.18853759765625 123.76885986328125Q499.18853759765625 142.15643310546875 480.80096435546875 142.15643310546875Z" fill="#186648" />
<path d="M917 176Q930 189 917 202Q904 215 891 202L722 33Q709 20 722 7Q735 -6 748 7Z" fill="#186648" />
<path d="M805.1564331054688 149.99261474609375Q805.1564331054688 168.38018798828125 786.7688598632812 168.38018798828125Q768.3812866210938 168.38018798828125 768.3812866210938 149.99261474609375V72.19903564453125Q768.3812866210938 53.81146240234375 786.7688598632812 53.81146240234375Q805.1564331054688 53.81146240234375 805.1564331054688 72.19903564453125Z" fill="#186648" />
<path d="M857.1564331054688 201.99261474609375Q857.1564331054688 220.38018798828125 838.7688598632812 220.38018798828125Q820.3812866210938 220.38018798828125 820.3812866210938 201.99261474609375V124.19903564453125Q820.3812866210938 105.81146240234375 838.7688598632812 105.81146240234375Q857.1564331054688 105.81146240234375 857.1564331054688 124.19903564453125Z" fill="#186648" />
<path d="M864.9926147460938 53.84356689453125Q883.3801879882812 53.84356689453125 883.3801879882812 72.23114013671875Q883.3801879882812 90.61871337890625 864.9926147460938 90.61871337890625H787.1990356445312Q768.8114624023438 90.61871337890625 768.8114624023438 72.23114013671875Q768.8114624023438 53.84356689453125 787.1990356445312 53.84356689453125Z" fill="#186648" />
<path d="M916.9926147460938 105.84356689453125Q935.3801879882812 105.84356689453125 935.3801879882812 124.23114013671875Q935.3801879882812 142.61871337890625 916.9926147460938 142.61871337890625H839.1990356445312Q820.8114624023438 142.61871337890625 820.8114624023438 124.23114013671875Q820.8114624023438 105.84356689453125 839.1990356445312 105.84356689453125Z" fill="#186648" />
<path d="M678.6195678710938 257.51605224609375Q678.6148071289062 275.89569091796875 660.2351684570312 275.90045166015625Q641.8555297851562 275.90521240234375 641.8602905273438 257.52557373046875L641.9221801757812 18.59027099609375Q641.9269409179688 0.21063232421875 660.3065795898438 0.20587158203125Q678.6862182617188 0.20111083984375 678.6814575195312 18.58074951171875Z" fill="#186648" />
<path d="M618 160Q605 173 592 160Q579 147 592 134L647 79Q660 66 673 79Q686 92 673 105Z" fill="#186648" />
<path d="M618 233Q605 246 592 233Q579 220 592 207L647 152Q660 139 673 152Q686 165 673 178Z" fill="#186648" />
<path d="M728.0 134.0Q741.0 147.0 728.0 160.0Q715.0 173.0 702.0 160.0L647.0 105.0Q634.0 92.0 647.0 79.0Q660.0 66.0 673.0 79.0Z" fill="#186648" />
<path d="M728.0 207.0Q741.0 220.0 728.0 233.0Q715.0 246.0 702.0 233.0L647.0 178.0Q634.0 165.0 647.0 152.0Q660.0 139.0 673.0 152.0Z" fill="#186648" />
<path d="M458 -183Q458 -202 477 -202H843Q862 -202 862 -183V18Q862 37 843 37H477Q458 37 458 18ZM495 0H825V-165H495Z" fill="#000000" />
</g></svg>