<svg xmlns="http://www.w3.org/2000/svg" viewBox="0 0 2048 2048">
<g transform="matrix(1 0 0 -1 0 2048)">
<path d="M220 825V-52H1100V825Z" fill="#b399c8" />
<path d="M201.3607177734375 -54.7630615234375Q201.3607177734375 -73.0552978515625 219.6529541015625 -73.0552978515625H1099.7127685546875Q1118.0050048828125 -73.0552978515625 1118.0050048828125 -54.7630615234375V825.2967529296875Q1118.0050048828125 843.5889892578125 1099.7127685546875 843.5889892578125H219.6529541015625Q201.3607177734375 843.5889892578125 201.3607177734375 825.2967529296875ZM237.9451904296875 807.0045166015625H1081.4205322265625V-36.4708251953125H237.9451904296875Z" fill="#000000" />
<path d="M415 143Q405 137 402 126Q399 115 405 105Q411 95 422 92Q433 89 442 95Q480 116 515 163Q585 256 584 385Q585 514 515 607Q480 654 442 675Q433 681 422 678Q411 675 405 665Q399 655 402 644Q405 633 415 627Q443 612 471 574Q530 496 529 385Q530 274 471 196Q443 158 415 143Z" fill="#000000" />
<path d="M905 627Q915 633 918 644Q921 655 915 665Q909 675 898 678Q887 681 878 675Q840 654 805 607Q735 514 736 385Q735 256 805 163Q840 116 878 95Q887 89 898 92Q909 95 915 105Q921 115 918 126Q915 137 905 143Q877 158 849 196Q790 274 791 385Q790 496 849 574Q877 612 905 627Z" fill="#000000" />
<path d="M883 348Q895 348 903 356Q911 364 911 375Q911 387 903 395Q895 403 883 403H437Q425 403 417 395Q409 387 409 375Q409 364 417 356Q425 348 437 348Z" fill="#000000" />
</g></svg>