<svg xmlns="http://www.w3.org/2000/svg" viewBox="0 0 2048 2048">
<g transform="matrix(1 0 0 -1 0 2048)">
<path d="M654 209 632 179 634 147 677 143Z" fill="#ffffff" />
<path d="M642.0615234375 586.19287109375Q642.0615234375 597.53515625 637.75927734375 607.508544921875Q633.45703125 617.48193359375 625.8955078125 625.04345703125Q618.333984375 632.60498046875 608.360595703125 636.9072265625Q598.38720703125 641.20947265625 587.044921875 641.20947265625Q575.70263671875 641.20947265625 565.729248046875 636.9072265625Q555.755859375 632.60498046875 548.1943359375 625.04345703125Q540.6328125 617.48193359375 536.33056640625 607.508544921875Q532.0283203125 597.53515625 532.0283203125 586.19287109375Q532.0283203125 574.8505859375 536.33056640625 564.877197265625Q540.6328125 554.90380859375 548.1943359375 547.34228515625Q555.755859375 539.78076171875 565.729248046875 535.478515625Q575.70263671875 531.17626953125 587.044921875 531.17626953125Q598.38720703125 531.17626953125 608.360595703125 535.478515625Q618.333984375 539.78076171875 625.8955078125 547.34228515625Q633.45703125 554.90380859375 637.75927734375 564.877197265625Q642.0615234375 574.8505859375 642.0615234375 586.19287109375Z" fill="#fcea2b" />
<path d="M659 586Q659 657 587 657Q557 657 536 636Q516 616 516 586Q516 556 536 535Q557 514 587 514Q659 514 659 586ZM626 586Q626 570 614 559Q603 547 587 547Q571 547 560 559Q549 570 549 586Q549 602 560 613Q571 624 587 624Q603 624 614 613Q626 602 626 586Z" fill="#fcea2b" />
<path d="M877 63V62Q895 95 895.0 139.5Q895 184 881.5 232.0Q868 280 845.5 324.5Q823 369 795.5 402.5Q768 436 740.0 451.5Q712 467 688 456Q661 443 644.5 421.0Q628 399 619.0 374.0Q610 349 605 327Q605 326 605 326Q602 316 591.5 293.0Q581 270 568.0 249.0Q555 228 544 223Q526 217 505.0 229.5Q484 242 465.0 262.0Q446 282 433.5 296.5Q421 311 420 308Q415 286 431.5 261.5Q448 237 475.0 217.0Q502 197 530.0 189.0Q558 181 577 192Q585 196 598.0 207.0Q611 218 622.0 229.0Q633 240 637 244Q651 263 665.5 255.5Q680 248 692.5 225.5Q705 203 713.5 175.0Q722 147 724 125Q724 118 719.0 112.5Q714 107 706 107H590Q587 107 571.0 105.0Q555 103 535.0 94.5Q515 86 500.5 66.5Q486 47 486 12Q486 -23 501.5 -41.5Q517 -60 538.0 -66.0Q559 -72 575.0 -72.0Q591 -72 591 -72L835 -73Q835 -73 843.0 -71.0Q851 -69 859.5 -62.0Q868 -55 868 -37Q868 -28 864.5 -22.0Q861 -16 856 -13Q843 -5 850 9Z" fill="#fcea2b" />
<path d="M892 54Q892 54 892 55Q948 157 860 332Q770 512 682 471Q613 440 589 331Q562 248 538 239Q514 230 448 304Q439 314 436 317Q433 320 430 322Q425 325 420 325Q407 325 404 312Q392 258 465 204Q538 150 585 177Q623 200 650 234Q655 242 659 240Q668 236 678 217Q703 174 707 124Q707 124 707 124Q707 123 706 123H590Q558 123 528 109Q469 81 469 12Q469 -59 533 -81Q562 -92 591 -89H835Q884 -89 884 -37Q884 -11 864 1L865 2ZM863 70 835 17Q821 -12 847 -27Q851 -30 851 -37Q851 -56 834 -56H591Q590 -56 589 -56Q566 -58 544 -50Q502 -36 502 12Q502 60 542 79Q565 90 590 90H706Q721 90 731 101Q741 112 740 127Q735 184 707 234Q691 262 672 270Q645 282 623 254Q601 225 568 206Q552 196 527 206Q539 204 550 208Q588 223 621 320Q621 322 622 324Q642 417 695 441Q755 468 831 317Q911 159 864 71Q863 71 863 70Z" fill="#fcea2b" />
<path d="M660 586Q660 616 639 638Q617 659 587 659Q514 659 514 586Q514 556 535 534Q557 513 587 513Q617 513 639 534Q660 556 660 586ZM624 586Q624 549 587 549Q572 549 561 560Q550 571 550 586Q550 604 560 613Q569 623 587 623Q624 623 624 586Z" fill="#000000" />
<path d="M683 258Q671 272 657 260Q644 247 656 234Q688 200 702 125H598Q566 126 535 113Q467 85 467 13Q467 -60 532 -83Q562 -94 591 -91H835Q886 -90 886 -37Q886 -1 853 8Q840 12 827 10H684L591 35Q573 39 568 22Q566 13 569 7Q572 2 581 -1L677 -26Q679 -27 681 -27H828Q830 -27 831 -27Q837 -26 843 -27Q850 -29 850 -37Q850 -54 835 -54H591Q590 -54 589 -54Q566 -56 544 -49Q504 -34 504 13Q504 60 549 79Q573 89 598 88H723Q725 88 726 89Q744 91 742 109Q727 212 683 258Z" fill="#000000" />
<path d="M443 330Q439 338 433 340Q426 342 418 338Q402 329 411 313Q465 213 537 213Q578 213 603 299Q635 411 696 439Q754 466 829 316Q909 158 861 71Q853 55 869 46Q885 38 893 54Q951 157 862 333Q771 514 681 473Q605 438 567 309Q550 250 537 250Q487 250 443 330Z" fill="#000000" />
<path d="M195 604 654 864Q660 867 666 864L1122 615Q1129 611 1131.5 603.0Q1134 595 1130 588Q1127 582 1120.5 580.0Q1114 578 1108 581L661 824Q659 826 657 824L211 570Q196 562 188 576V577Q183 584 185.0 592.0Q187 600 195 604Z" fill="#000000" />
</g></svg>