<svg xmlns="http://www.w3.org/2000/svg" viewBox="0 0 2048 2048">
<g transform="matrix(1 0 0 -1 0 2048)">
<path d="M1009 274Q1018 274 1024.5 280.5Q1031 287 1031 296V749Q1031 759 1024.5 765.0Q1018 771 1009 771H311Q302 771 295.5 765.0Q289 759 289 749V296Q289 287 295.5 280.5Q302 274 311 274Z" fill="#ffffff" />
<path d="M816 749V296H1009V749Z" fill="#d0cfce" />
<path d="M736 296H584V-51Q584 -58 589.5 -63.5Q595 -69 602 -69H718Q725 -69 730.5 -63.5Q736 -58 736 -51Z" fill="#a57939" />
<path d="M584 749H736V822Q736 830 730.5 835.5Q725 841 718 841H602Q595 841 589.5 835.5Q584 830 584 822Z" fill="#a57939" />
<path d="M293 296Q293 277 311 277H1009Q1027 277 1027 296V749Q1027 768 1009 768H311Q293 768 293 749ZM329 731H991V314H329Z" fill="#000000" />
<path d="M736 235Q736 253 718 253Q699 253 699 235V-32H621V235Q621 253 602 253Q584 253 584 235V-51Q584 -69 602 -69H718Q736 -69 736 -51Z" fill="#000000" />
<path d="M584 749Q584 731 602 731Q621 731 621 749V804H699V749Q699 731 718 731Q736 731 736 749V822Q736 841 718 841H602Q584 841 584 822Z" fill="#000000" />
<path d="M415 405Q412 396 416 390Q419 385 428 382Q445 378 450 395Q458 425 476 450Q481 442 487 431Q504 403 517 390Q524 384 532 381Q533 381 534 381Q555 376 573 401Q590 424 614 442Q614 443 615 443Q618 446 622 447Q631 446 636 437Q647 415 667 401Q667 401 668 401Q679 394 691 397Q693 397 694 398Q702 402 706 408Q712 416 722 431Q733 448 742 457Q748 439 756 421Q767 398 787 402Q788 403 789 403Q797 405 802 412L843 453L872 403Q881 387 897 396Q913 405 904 421L863 492Q861 494 860 496Q853 503 847 502Q840 502 834 496L785 447Q777 467 771 489Q767 506 749 502Q720 496 691 451Q686 442 682 436Q673 444 668 454Q653 483 620 484Q618 484 616 483Q602 480 591 471Q564 450 543 423Q542 420 540 419Q532 428 519 449Q507 470 499 480Q493 489 482 491Q481 492 480 492Q465 495 452 479Q426 446 415 405Z" fill="#000000" />
<path d="M415 555Q408 538 425 531Q442 524 449 541Q466 582 496 614Q517 591 539 571Q559 548 589 550Q591 551 594 552Q611 558 622 573Q643 599 667 622Q668 623 669 623Q671 626 675 628Q683 628 687 620Q697 598 714 582Q715 582 715 582Q726 573 740 575Q742 575 743 576Q752 579 758 586Q778 607 803 622Q804 623 805 624Q809 627 814 627Q817 624 819 621Q820 620 820 619L859 559Q864 552 870 550Q876 549 884 554Q899 564 890 579L852 638Q843 654 827 661Q825 662 823 663Q801 667 783 653Q756 636 734 614Q726 623 720 635Q705 667 670 665Q668 665 666 664Q652 659 642 648Q616 624 593 596Q592 596 592 595Q588 590 583 587Q573 587 567 595Q566 596 565 597Q536 623 510 653Q510 653 510 653Q498 666 484 654Q439 612 415 555Z" fill="#000000" />
</g></svg>