<svg xmlns="http://www.w3.org/2000/svg" viewBox="0 0 2048 2048">
<g transform="matrix(1 0 0 -1 0 2048)">
<path d="M1099.303466796875 -73.3028564453125Q1107.638427734375 -73.3028564453125 1112.8477783203125 -68.093505859375Q1118.05712890625 -62.8841552734375 1118.05712890625 -54.5491943359375V824.7891845703125Q1118.05712890625 833.1241455078125 1112.8477783203125 838.33349609375Q1107.638427734375 843.5428466796875 1099.303466796875 843.5428466796875H219.965087890625Q211.630126953125 843.5428466796875 206.4207763671875 838.33349609375Q201.21142578125 833.1241455078125 201.21142578125 824.7891845703125V-54.5491943359375Q201.21142578125 -62.8841552734375 206.4207763671875 -68.093505859375Q211.630126953125 -73.3028564453125 219.965087890625 -73.3028564453125Z" fill="#61b2e4" />
<path d="M481 213Q530 241 576.0 245.0Q622 249 659.0 239.5Q696 230 717.5 219.5Q739 209 739 209L700 23L524 24L485 213Z" fill="#ffffff" />
<path d="M1073 593Q1073 600 1067.5 605.5Q1062 611 1054 611H908V692H995V751H752V692H839V611H744Q677 611 637.5 588.5Q598 566 579.0 533.0Q560 500 554.5 468.0Q549 436 549 417Q549 399 567 399H659Q676 399 678 415Q679 427 685.0 443.5Q691 460 705.0 472.5Q719 485 745 485H1054Q1062 485 1067.5 490.5Q1073 496 1073 503Z" fill="#ffffff" />
<path d="M1100 -92Q1137 -92 1137 -55V825Q1137 862 1100 862H220Q183 862 183 825V-55Q183 -92 220 -92ZM1100 -55H220V825H1100Z" fill="#000000" />
<path d="M464 410Q461 428 443 425Q434 423 430 418Q426 412 428 403L500 19Q503 4 518 4H710Q725 4 728 19L800 403Q804 421 786 425Q768 428 764 410L695 41H533Z" fill="#000000" />
<path d="M483 236Q475 233 472 227Q470 221 473 212Q480 195 497 202Q610 247 723 202Q740 195 747 212Q754 229 737 236Q610 287 483 236Z" fill="#000000" />
<path d="M1091 593Q1091 629 1054 629H926V674H995Q1013 674 1013 692V751Q1013 770 995 770H752Q733 770 733 751V692Q733 674 752 674H820V629H744Q617 629 563 543Q530 490 531 416Q531 380 567 380H659Q692 380 696 413Q702 467 745 467H1054Q1091 467 1091 503ZM1054 593V503H745Q669 503 659 417H567Q567 479 595 523Q638 593 744 593H839Q857 593 857 611V692Q857 711 839 711H770V733H976V711H908Q889 711 889 692V611Q889 593 908 593Z" fill="#000000" />
</g></svg>