<svg xmlns="http://www.w3.org/2000/svg" viewBox="0 0 2048 2048">
<g transform="matrix(1 0 0 -1 0 2048)">
<path d="M1082 534Q1082 534 1082.0 548.0Q1082 562 1082 573Q1082 635 1059.0 689.0Q1036 743 995.5 783.5Q955 824 901.0 847.5Q847 871 785 871Q725 871 687.5 857.0Q650 843 622.5 816.0Q595 789 566.0 748.5Q537 708 496.0 654.0Q455 600 388 534Q346 491 311.0 446.5Q276 402 255.5 351.0Q235 300 235 239Q235 165 262.5 100.0Q290 35 339.5 -14.5Q389 -64 454.0 -92.0Q519 -120 594 -120Q594 -120 625.0 -115.5Q656 -111 706.5 -95.0Q757 -79 813 -44Q862 -14 910.0 33.0Q958 80 997.0 149.0Q1036 218 1059.0 313.0Q1082 408 1082 534Z" fill="#a57939" />
<path d="M1082 573Q1082 644 1051.5 704.5Q1021 765 970 806Q970 806 973.5 774.0Q977 742 978.5 686.0Q980 630 975.5 558.5Q971 487 955.0 408.0Q939 329 907.0 250.0Q875 171 822.5 100.5Q770 30 692.0 -24.5Q614 -79 505 -109Q549 -120 594 -120Q594 -120 625.0 -115.5Q656 -111 706.5 -95.0Q757 -79 813 -44Q862 -14 910.0 33.0Q958 80 997.0 149.0Q1036 218 1059.0 313.0Q1082 408 1082 534Q1082 534 1082.0 548.0Q1082 562 1082 573Z" fill="#a57939" />
<path d="M761.62939453125 97.75384521484375Q761.64892578125 132.66986083984375 732.1983032226562 150.14434814453125Q701.6565551757812 167.61944580078125 672.1864013671875 150.17791748046875Q641.6251220703125 132.73699951171875 642.6967163085938 97.82037353515625Q641.5860595703125 62.90496826171875 672.1278076171875 45.42987060546875Q701.5784301757812 27.95538330078125 732.1397094726562 45.39630126953125Q761.60986328125 62.83782958984375 761.62939453125 97.75384521484375Z" fill="#a57939" />
<path d="M1101 534V573Q1101 704 1008 796Q916 889 785 889Q691 889 635 850Q599 824 537 739Q452 624 375 547Q216 388 216 239Q216 83 327 -27Q437 -138 594 -138Q594 -138 594 -138H595Q706 -132 823 -60Q1101 110 1101 534ZM1064 534Q1064 131 804 -29Q695 -96 593 -101Q452 -101 353 -1Q253 98 253 239Q253 373 401 521Q480 600 566 717Q625 798 656 820Q702 852 785 852Q901 852 982 771Q1064 689 1064 573Z" fill="#000000" />
<path d="M747.7392578125 748.208740234375Q747.7392578125 752.9853515625 745.95458984375 757.1845703125Q744.169921875 761.3837890625 740.9942626953125 764.5594482421875Q737.818603515625 767.735107421875 733.619384765625 769.519775390625Q729.420166015625 771.304443359375 724.6435546875 771.304443359375Q719.866943359375 771.304443359375 715.667724609375 769.519775390625Q711.468505859375 767.735107421875 708.2928466796875 764.5594482421875Q705.1171875 761.3837890625 703.33251953125 757.1845703125Q701.5478515625 752.9853515625 701.5478515625 748.208740234375Q701.5478515625 743.43212890625 703.33251953125 739.23291015625Q705.1171875 735.03369140625 708.2928466796875 731.8580322265625Q711.468505859375 728.682373046875 715.667724609375 726.897705078125Q719.866943359375 725.113037109375 724.6435546875 725.113037109375Q729.420166015625 725.113037109375 733.619384765625 726.897705078125Q737.818603515625 728.682373046875 740.9942626953125 731.8580322265625Q744.169921875 735.03369140625 745.95458984375 739.23291015625Q747.7392578125 743.43212890625 747.7392578125 748.208740234375Z" fill="#000000" />
<path d="M779 98Q779 130 757 153Q734 176 702 176Q669 176 647 153Q624 130 624 98Q624 66 647 43Q669 20 702 20Q734 20 757 43Q779 66 779 98ZM743 98Q743 81 731 69Q719 57 702 57Q685 57 673 69Q661 81 661 98Q661 115 673 127Q685 139 702 139Q719 139 731 127Q743 115 743 98Z" fill="#000000" />
<path d="M1101 534V573Q1101 704 1008 796Q916 889 785 889Q691 889 635 850Q599 824 537 739Q452 624 375 547Q216 388 216 239Q216 83 327 -27Q437 -138 594 -138Q594 -138 594 -138H595Q706 -132 823 -60Q1101 110 1101 534ZM1064 534Q1064 131 804 -29Q695 -96 593 -101Q452 -101 353 -1Q253 98 253 239Q253 373 401 521Q480 600 566 717Q625 798 656 820Q702 852 785 852Q901 852 982 771Q1064 689 1064 573Z" fill="#000000" />
</g></svg>