<svg xmlns="http://www.w3.org/2000/svg" viewBox="0 0 2048 2048">
<g transform="matrix(1 0 0 -1 0 2048)">
<path d="M661.591796875 33.625Q589.03515625 33.625 525.2353515625 61.146484375Q461.435546875 88.66796875 413.064453125 137.0390625Q364.693359375 185.41015625 337.171875 248.79296875Q309.650390625 312.17578125 309.650390625 385.56640625Q309.650390625 458.123046875 337.171875 521.9228515625Q364.693359375 585.72265625 413.064453125 634.09375Q461.435546875 682.46484375 525.2353515625 709.5693359375Q589.03515625 736.673828125 661.591796875 736.673828125Q734.1484375 736.673828125 797.9482421875 709.5693359375Q861.748046875 682.46484375 910.119140625 634.09375Q958.490234375 585.72265625 986.01171875 521.9228515625Q1013.533203125 458.123046875 1013.533203125 385.56640625Q1013.533203125 312.17578125 986.01171875 248.79296875Q958.490234375 185.41015625 910.119140625 137.0390625Q861.748046875 88.66796875 797.9482421875 61.146484375Q734.1484375 33.625 661.591796875 33.625Z" fill="#ffffff" />
<path d="M678 605Q678 623 660 623Q642 623 642 605V165Q642 147 660 147Q678 147 678 165Z" fill="#000000" />
<path d="M660.0 0.0Q819.0 0.0 932.0 113.0Q1045.0 226.0 1045.0 385.0Q1045.0 544.0 932.0 657.0Q819.0 770.0 660.0 770.0Q501.0 770.0 388.0 657.0Q275.0 544.0 275.0 385.0Q275.0 226.0 388.0 113.0Q501.0 0.0 660.0 0.0ZM660.0 37.0Q516.0 37.0 414.0 139.0Q312.0 241.0 312.0 385.0Q312.0 529.0 414.0 631.0Q516.0 733.0 660.0 733.0Q804.0 733.0 906.0 631.0Q1008.0 529.0 1008.0 385.0Q1008.0 241.0 906.0 139.0Q804.0 37.0 660.0 37.0Z" fill="#000000" />
</g></svg>