<svg xmlns="http://www.w3.org/2000/svg" viewBox="0 0 2048 2048">
<g transform="matrix(1 0 0 -1 0 2048)">
<path d="M868 138Q889 93 871 47L787 -124L769 -201H604L584 -112L576 26Q600 26 628.0 39.0Q656 52 686.5 71.0Q717 90 748.5 107.5Q780 125 810.0 134.5Q840 144 868 138Z" fill="#9b9b9a" />
<path d="M758 98Q769 107 792.5 116.5Q816 126 837.0 132.5Q858 139 864 138Q875 132 876.5 117.5Q878 103 874.5 86.5Q871 70 866.5 58.5Q862 47 862 47Q862 47 855.5 31.5Q849 16 839.0 -7.5Q829 -31 818.5 -55.5Q808 -80 799.0 -99.0Q790 -118 787 -124Q781 -134 777.0 -152.5Q773 -171 771.0 -186.0Q769 -201 769 -201H707Q707 -157 716.5 -112.0Q726 -67 737.5 -26.0Q749 15 755.5 47.0Q762 79 758 98Z" fill="#3f3f3f" />
<path d="M812 248 864 138Q819 131 791.0 118.0Q763 105 744.0 88.0Q725 71 707.0 54.5Q689 38 663.5 24.5Q638 11 598 4Q598 4 583.5 10.5Q569 17 547.0 28.0Q525 39 503 53Q483 66 466.0 85.5Q449 105 442 132Q438 147 437.5 165.0Q437 183 442 204Q447 230 459.5 254.0Q472 278 489 299L552 357Q586 441 617.0 491.5Q648 542 674.5 567.0Q701 592 722.5 599.0Q744 606 759.5 603.0Q775 600 783.5 594.0Q792 588 792 588Q792 588 807.0 576.0Q822 564 837.0 545.5Q852 527 851 508Q851 498 846.0 474.5Q841 451 834.0 421.5Q827 392 819.5 363.0Q812 334 806 313Q797 279 812 248Z" fill="#92d3f5" />
<path d="M773 597 844 518 802 290 864 138Q841 136 816.5 126.0Q792 116 775.0 107.0Q758 98 758 98L721 284Z" fill="#61b2e4" />
<path d="M423 370Q432 370 438 377L469 418Q474 424 473.0 431.5Q472 439 466 444Q460 449 452.5 448.0Q445 447 440 441L424 419L409 440Q405 446 397.5 447.5Q390 449 384 445Q378 440 376.5 432.5Q375 425 379 419L408 378Q413 370 423 370Q423 370 423.0 370.0Q423 370 423 370Z" fill="#ea5a47" />
<path d="M770 823Q754 857 727.0 878.0Q700 899 670.0 904.5Q640 910 613 897Q587 884 573.0 857.0Q559 830 559.5 795.5Q560 761 577 728Q593 694 619.5 673.0Q646 652 676.0 646.5Q706 641 733 654Q760 667 774.0 694.0Q788 721 787.5 755.5Q787 790 770 823Z" fill="#fcea2b" />
<path d="M543 119Q545 119 547 119Q598 126 638.5 147.5Q679 169 700 202Q710 218 715.0 234.5Q720 251 724 266Q725 270 725.5 273.0Q726 276 727 280Q741 331 747.5 377.0Q754 423 756.0 452.5Q758 482 758 484Q759 499 748.5 510.0Q738 521 723 522Q707 522 696.0 512.0Q685 502 685 486Q685 486 683.0 458.5Q681 431 675.0 388.5Q669 346 656 298Q655 295 654.5 291.0Q654 287 653 283Q650 271 647.0 260.5Q644 250 638 242Q629 228 604.0 212.5Q579 197 538 192Q523 190 514.0 178.0Q505 166 506 151Q508 137 518.5 128.0Q529 119 543 119Z" fill="#fcea2b" />
<path d="M769 799 767 684Q772 670 793.5 656.5Q815 643 838.5 633.0Q862 623 874 619Q880 617 881 624Q883 636 882.5 667.5Q882 699 873.5 746.5Q865 794 840 852Q822 894 796.0 913.5Q770 933 741.5 938.0Q713 943 688.0 939.5Q663 936 647.5 930.5Q632 925 632 925Q604 916 586 892Q586 890 589.0 877.0Q592 864 601.5 847.0Q611 830 630.5 815.5Q650 801 683.5 795.0Q717 789 769 799Z" fill="#a57939" />
<path d="M769 -201Q785 -201 787 -185L795 -129L879 41Q900 94 875 146L823 256Q811 281 818 308Q824 327 831.5 356.0Q839 385 846.0 415.5Q853 446 858.0 471.0Q863 496 864 508Q865 530 850.5 550.0Q836 570 819.5 584.5Q803 599 798 602Q793 607 774.5 617.0Q756 627 726 621Q625 601 531 368L493 332Q453 296 434 255Q423 232 418 208Q409 164 419 127Q434 73 488 38Q511 23 534.0 15.0Q557 7 573.0 4.0Q589 1 590 0Q597 -1 603.0 4.0Q609 9 610 16Q611 24 606.5 30.0Q602 36 595 37Q594 37 566.0 43.5Q538 50 508 69Q465 96 454 136Q446 165 454 200Q458 220 468 240Q484 274 517 305L559 343Q562 346 563 350Q601 445 634.0 494.0Q667 543 692.0 562.0Q717 581 732 585Q751 589 762.0 582.5Q773 576 773 575Q774 574 776 573Q792 562 810.0 542.5Q828 523 827 509Q827 497 819.5 463.0Q812 429 802.0 389.0Q792 349 783 318Q772 278 790 240L842 130Q860 93 846 55L761 -116Q760 -118 759 -121L751 -180Q750 -188 754.5 -194.0Q759 -200 767 -201Q768 -201 769 -201Z" fill="#000000" />
<path d="M604 -201Q604 -201 605 -201Q612 -201 617.0 -195.5Q622 -190 622 -182L616 -40Q616 -33 610.5 -27.5Q605 -22 597 -23Q590 -23 585.0 -28.5Q580 -34 580 -42L586 -184Q586 -201 604 -201Z" fill="#000000" />
<path d="M710 646Q728 649 725 667Q721 685 703 682Q668 675 635 698Q600 722 585 765Q562 832 600 880Q615 900 638 908Q656 914 650 931Q644 948 626 943Q593 931 571 903Q521 839 550 753Q569 698 614 668Q660 636 710 646Z" fill="#000000" />
<path d="M604 893Q604 910 586 910Q567 910 567 892Q567 891 567 890Q571 849 600 818Q654 758 772 781Q781 783 785 788Q789 794 787 803Q783 821 765 817Q668 798 627 843Q607 865 604 893Z" fill="#000000" />
<path d="M625 942Q608 935 616 918Q619 909 625 907Q631 905 640 908Q673 923 714 922Q791 921 823 845Q870 733 864 642Q795 669 785 688L787 799Q787 818 769 818Q751 818 751 799L749 685Q749 682 750 679Q763 640 867 602Q878 598 888 604Q897 610 899 621Q899 621 899 621Q912 729 857 859Q815 957 714 959Q666 960 625 942Z" fill="#000000" />
<path d="M567 115Q614 115 643.0 130.5Q672 146 690.0 171.5Q708 197 722 227Q739 269 747.5 314.5Q756 360 758.5 399.0Q761 438 760.5 463.0Q760 488 760 491Q760 498 754.0 503.5Q748 509 741 508Q733 507 728.0 501.5Q723 496 724 489Q724 488 724.0 464.5Q724 441 722.0 404.0Q720 367 712.0 324.0Q704 281 688 241Q675 212 658.0 189.5Q641 167 611.0 157.5Q581 148 529 155Q522 156 515.5 151.5Q509 147 508 139Q507 132 512.0 125.5Q517 119 524 118Q547 115 567 115Z" fill="#000000" />
</g></svg>