<svg xmlns="http://www.w3.org/2000/svg" viewBox="0 0 2048 2048">
<g transform="matrix(1 0 0 -1 0 2048)">
<path d="M1180.2215576171875 377.9227294921875Q1180.2215576171875 403.252685546875 1167.771240234375 424.07476806640625Q1155.3209228515625 444.8968505859375 1134.4988403320312 457.34716796875Q1113.6767578125 469.7974853515625 1088.3468017578125 469.7974853515625Q1063.016845703125 469.7974853515625 1042.1947631835938 457.34716796875Q1021.3726806640625 444.8968505859375 1009.1370239257812 424.07476806640625Q996.9013671875 403.252685546875 996.9013671875 377.9227294921875Q996.9013671875 353.0220947265625 1009.1370239257812 332.20001220703125Q1021.3726806640625 311.3779296875 1042.1947631835938 298.9276123046875Q1063.016845703125 286.477294921875 1088.3468017578125 286.477294921875Q1113.6767578125 286.477294921875 1134.4988403320312 298.9276123046875Q1155.3209228515625 311.3779296875 1167.771240234375 332.20001220703125Q1180.2215576171875 353.0220947265625 1180.2215576171875 377.9227294921875Z" fill="#3f3f3f" />
<path d="M1198 378Q1198 424 1166 456Q1134 488 1088 488Q1043 488 1011 456Q978 424 978 378Q978 333 1011 301Q1043 268 1088 268Q1134 268 1166 301Q1198 333 1198 378ZM1162 378Q1162 348 1140 326Q1119 305 1088 305Q1015 305 1015 378Q1015 452 1088 452Q1119 452 1140 430Q1162 409 1162 378Z" fill="#3f3f3f" />
<path d="M1059 836V-65L757 176H231Q208 176 192.0 192.0Q176 208 176 231V537Q176 560 192.0 576.0Q208 592 231 592H757Z" fill="#d0cfce" />
<path d="M343 586 340 175 214 174 175 219 176 553 204 588Z" fill="#9b9b9a" />
<path d="M326 170V-56Q326 -76 339.5 -91.0Q353 -106 371 -106H463Q482 -106 495.5 -91.0Q509 -76 509 -56V170Z" fill="#9b9b9a" />
<path d="M1047 851 751 610H231Q158 610 158 537V231Q158 158 231 157H751L1047 -79Q1054 -85 1061 -84Q1067 -84 1073 -76Q1077 -71 1077 -65V836Q1077 846 1072 850Q1068 855 1059 855Q1052 855 1047 851ZM1040 798V-27L769 190Q764 194 757 194H231Q194 194 194 231V537Q194 573 231 573H757Q764 573 769 578Z" fill="#000000" />
<path d="M362 581Q362 599 344 599Q325 599 325 581V191Q325 173 344 173Q362 173 362 191Z" fill="#000000" />
<path d="M509 102Q509 120 490 120Q472 120 472 102V-63Q472 -81 454 -81H380Q362 -81 362 -63V102Q362 120 344 120Q325 120 325 102V-63Q325 -118 380 -118H454Q509 -118 509 -63Z" fill="#000000" />
<path d="M1138 476Q1130 481 1123 478Q1117 476 1113 468Q1105 452 1121 444Q1162 423 1162 378Q1162 332 1121 312Q1105 304 1113 288Q1121 271 1138 279Q1199 310 1199 378Q1199 446 1138 476Z" fill="#000000" />
</g></svg>