<svg xmlns="http://www.w3.org/2000/svg" viewBox="0 0 2048 2048">
<g transform="matrix(1 0 0 -1 0 2048)">
<path d="M1064.11962890625 384.78369140625Q1064.11962890625 468.556640625 1032.810546875 541.752197265625Q1001.50146484375 614.94775390625 946.075927734375 670.373291015625Q890.650390625 725.798828125 817.454833984375 757.10791015625Q744.25927734375 788.4169921875 660.486328125 788.4169921875Q576.71337890625 788.4169921875 503.517822265625 757.10791015625Q430.322265625 725.798828125 374.896728515625 670.373291015625Q319.47119140625 614.94775390625 288.162109375 541.752197265625Q256.85302734375 468.556640625 256.85302734375 384.78369140625Q256.85302734375 301.0107421875 288.162109375 227.815185546875Q319.47119140625 154.61962890625 374.896728515625 99.194091796875Q430.322265625 43.7685546875 503.517822265625 12.45947265625Q576.71337890625 -18.849609375 660.486328125 -18.849609375Q744.25927734375 -18.849609375 817.454833984375 12.45947265625Q890.650390625 43.7685546875 946.075927734375 99.194091796875Q1001.50146484375 154.61962890625 1032.810546875 227.815185546875Q1064.11962890625 301.0107421875 1064.11962890625 384.78369140625Z" fill="#3f3f3f" />
<path d="M893.8128662109375 384.8812255859375Q893.8128662109375 433.45068359375 875.66064453125 475.88763427734375Q857.5084228515625 518.3245849609375 825.3740844726562 550.4589233398438Q793.23974609375 582.59326171875 750.8027954101562 600.7454833984375Q708.3658447265625 618.897705078125 659.79638671875 618.897705078125Q611.2269287109375 618.897705078125 568.7899780273438 600.7454833984375Q526.35302734375 582.59326171875 494.21868896484375 550.4589233398438Q462.0843505859375 518.3245849609375 443.93212890625 475.88763427734375Q425.7799072265625 433.45068359375 425.7799072265625 384.8812255859375Q425.7799072265625 336.311767578125 443.93212890625 293.87481689453125Q462.0843505859375 251.4378662109375 494.21868896484375 219.30352783203125Q526.35302734375 187.169189453125 568.7899780273438 169.0169677734375Q611.2269287109375 150.86474609375 659.79638671875 150.86474609375Q708.3658447265625 150.86474609375 750.8027954101562 169.0169677734375Q793.23974609375 187.169189453125 825.3740844726562 219.30352783203125Q857.5084228515625 251.4378662109375 875.66064453125 293.87481689453125Q893.8128662109375 336.311767578125 893.8128662109375 384.8812255859375Z" fill="#9b9b9a" />
<path d="M1082 385Q1082 560 958 683Q835 807 660 807Q485 807 362 683Q238 560 238 385Q238 210 362 87Q485 -37 660 -37Q835 -37 958 87Q1082 210 1082 385ZM1045 385Q1045 226 932 113Q819 0 660 0Q501 0 388 113Q275 226 275 385Q275 544 388 657Q501 770 660 770Q819 770 932 657Q1045 544 1045 385Z" fill="#000000" />
<path d="M912 385Q912 489 838 563Q764 637 660 637Q556 637 482 563Q408 489 408 385Q408 281 482 207Q556 133 660 133Q764 133 838 207Q912 281 912 385ZM876 385Q876 296 812 233Q749 169 660 169Q571 169 508 233Q444 296 444 385Q444 474 508 537Q571 601 660 601Q749 601 812 537Q876 474 876 385Z" fill="#000000" />
</g></svg>