<svg xmlns="http://www.w3.org/2000/svg" viewBox="0 0 2048 2048">
<g transform="matrix(1 0 0 -1 0 2048)">
<path d="M202 730V18H1118V730Z" fill="#b1cc33" />
<path d="M487 723H833L1027 245L1118 18H1026H293H202L293 245Z" fill="#6a462f" />
<path d="M293 38H1027L989 135H331Z" fill="#a57939" />
<path d="M352 186 388 279H932L968 186Z" fill="#a57939" />
<path d="M407 331 443 423H877L913 331Z" fill="#a57939" />
<path d="M465 475 503 571H817L855 475Z" fill="#a57939" />
<path d="M523 622 551 702H761L797 622Z" fill="#a57939" />
<path d="M224 749Q206 749 206 730Q206 712 224 712H1099Q1117 712 1117 730Q1117 749 1099 749Z" fill="#000000" />
<path d="M276 44Q275 41 275 38Q275 19 293 19H1027Q1030 19 1033 21Q1042 24 1044 30Q1047 36 1044 44L1006 141Q1001 153 989 153H331Q319 153 314 141ZM320 56 344 116H976L1000 56Z" fill="#000000" />
<path d="M352 168H968Q987 168 987 186Q987 190 986 193L949 286Q944 298 932 298H388Q376 298 371 286L334 193Q331 184 334 178Q336 172 345 169Q348 168 352 168ZM378 204 401 261H919L942 204Z" fill="#000000" />
<path d="M407 313H913Q931 313 931 331Q931 335 930 338L894 430Q889 441 877 441H443Q431 441 426 430L390 338Q383 321 400 314Q404 313 407 313ZM434 349 456 405H864L886 349Z" fill="#000000" />
<path d="M465 456H855Q874 456 874 475Q874 478 872 481L834 578Q830 589 817 589H503Q490 589 486 578L448 481Q444 473 447 467Q450 461 458 458Q461 456 465 456ZM492 493 515 553H805L828 493Z" fill="#000000" />
<path d="M523 604H797Q816 604 816 622Q816 626 814 630L778 710Q773 721 761 721H551Q538 721 534 709L505 628Q499 611 517 605Q520 604 523 604ZM549 641 564 684H749L769 641Z" fill="#000000" />
<path d="M408 50Q403 32 421 28Q429 25 435 28Q441 32 443 41L621 697Q623 706 620 711Q617 717 608 719Q590 724 585 706Z" fill="#000000" />
<path d="M877 41Q882 23 899 28Q917 32 912 50L735 706Q730 724 712 719Q703 717 700 711Q697 706 699 697Z" fill="#000000" />
</g></svg>