<svg xmlns="http://www.w3.org/2000/svg" viewBox="0 0 2048 2048">
<g transform="matrix(1 0 0 -1 0 2048)">
<path d="M389 382Q418 384 436.5 405.5Q455 427 453 455V584Q454 592 453 601Q450 627 428.5 643.5Q407 660 381 656Q354 653 337.5 631.5Q321 610 325 584V455Q323 427 342.0 405.5Q361 384 389 382Z" fill="#fcea2b" />
<path d="M766 331Q794 333 812.5 354.5Q831 376 830 404V679Q831 688 830 696Q826 723 805.0 739.0Q784 755 757 752Q730 748 714.0 727.0Q698 706 701 679V404Q700 376 718.5 354.5Q737 333 766 331Z" fill="#fcea2b" />
<path d="M646 331Q674 333 692.5 354.5Q711 376 710 404V679Q711 688 710 696Q706 723 685.0 739.0Q664 755 637 752Q610 748 594.0 727.0Q578 706 581 679V404Q580 376 598.5 354.5Q617 333 646 331Z" fill="#fcea2b" />
<path d="M506 309Q534 311 552.5 332.5Q571 354 570 382V657Q571 666 570 674Q566 701 545.0 717.0Q524 733 497 730Q470 726 454.0 705.0Q438 684 441 657V382Q440 354 458.5 332.5Q477 311 506 309Z" fill="#fcea2b" />
<path d="M368 290Q396 292 414.5 313.5Q433 335 432 363V638Q433 647 432 655Q428 682 407.0 698.0Q386 714 359 711Q332 707 316.0 686.0Q300 665 303 638V363Q302 335 320.5 313.5Q339 292 368 290Z" fill="#fcea2b" />
<path d="M847 614Q850 671 844.5 700.5Q839 730 829.5 741.5Q820 753 810.5 754.0Q801 755 794.5 753.5Q788 752 789 757Q787 770 779.0 768.0Q771 766 759.0 757.5Q747 749 731.5 741.5Q716 734 700 737Q669 743 642.0 752.0Q615 761 599.5 762.0Q584 763 586 746Z" fill="#fcea2b" />
<path d="M293 506 684 643Q697 643 730.5 644.0Q764 645 807.0 644.0Q850 643 890.0 635.5Q930 628 956.5 612.0Q983 596 983 568L1000 375Q1000 304 970.0 240.5Q940 177 889.0 129.0Q838 81 775.0 53.0Q712 25 645 25Q598 25 549.5 45.5Q501 66 457.0 102.5Q413 139 377.5 185.5Q342 232 318.5 282.5Q295 333 289 382Z" fill="#fcea2b" />
<path d="M784 404Q784 385 802 385Q820 385 820 404V446Q820 499 731 509L712 511Q655 518 655 562Q655 605 710 605H894Q948 606 953 552L965 347Q966 328 984 330Q1003 331 1002 349L990 554Q990 555 989 555Q986 592 959 617Q931 643 894 642H710Q673 642 647 620Q619 597 619 562Q619 485 708 475L727 473Q784 467 784 446Z" fill="#000000" />
<path d="M684 361Q670 349 682 335Q695 321 708 334Q750 372 806 384Q824 387 820 405Q816 423 798 419Q733 406 684 361Z" fill="#000000" />
<path d="M326 324Q325 333 319 337Q314 341 305 339Q287 337 289 319Q307 188 407 101Q507 15 639 17Q789 17 893 112Q1002 210 1002 360Q1002 378 983 378Q965 378 965 360Q965 226 869 139Q775 54 639 54Q520 52 431 129Q341 206 326 324Z" fill="#000000" />
<path d="M289 321Q289 303 308 303Q326 303 326 321V386Q326 404 308 404Q289 404 289 386Z" fill="#000000" />
<path d="M371 422Q372 422 374 422Q410 425 433 452Q457 479 455 515V641Q456 652 455 662Q450 696 423 717Q395 738 361 733Q327 729 306 701Q286 675 290 641V514Q288 479 311 452Q335 425 371 422ZM372 459Q323 463 326 513Q326 513 326 514V642Q326 644 326 645Q320 691 366 697Q412 703 418 657Q419 651 418 645Q418 644 418 642V514Q418 513 418 513Q421 463 372 459Z" fill="#000000" />
<path d="M533 444Q542 447 545 453Q547 459 544 468Q538 485 521 479Q491 468 472 488Q454 507 456 534Q456 534 456 535V663Q456 664 456 666Q450 712 496 718Q542 724 548 678Q549 672 548 666Q545 647 564 645Q582 643 584 661Q586 672 584 683Q580 717 552 738Q525 759 491 754Q457 750 436 722Q415 695 419 662V535Q417 494 445 463Q480 425 533 444Z" fill="#000000" />
<path d="M549 596Q549 578 567 578Q585 578 585 596V694Q585 695 585 696Q579 742 625 749Q671 755 677 709Q678 703 677 696Q675 678 693 676Q711 673 714 692Q715 703 714 713Q709 748 682 768Q654 789 620 785Q586 780 565 753Q545 726 549 693Z" fill="#000000" />
<path d="M678 692Q680 682 685 678Q690 675 699 676Q717 678 715 696Q709 742 755 749Q801 755 807 709Q808 703 807 696Q804 678 822 676Q832 675 837 679Q842 682 843 692Q845 703 843 713Q839 748 811 768Q784 789 750 785Q716 780 695 753Q674 726 678 692Z" fill="#000000" />
</g></svg>