<svg xmlns="http://www.w3.org/2000/svg" viewBox="0 0 2048 2048">
<g transform="matrix(1 0 0 -1 0 2048)">
<path d="M724 633Q724 633 725.0 598.5Q726 564 727.0 506.0Q728 448 728.5 376.0Q729 304 728.5 227.5Q728 151 725.5 79.5Q723 8 718.5 -49.0Q714 -106 706 -137Q697 -174 678.5 -186.5Q660 -199 641.5 -186.5Q623 -174 614 -137Q610 -122 607.0 -72.5Q604 -23 602.5 47.0Q601 117 599.5 196.5Q598 276 597.5 353.0Q597 430 596.5 493.0Q596 556 596.0 594.5Q596 633 596 633Z" fill="#92d3f5" />
<path d="M413 761H908Q908 761 905.0 759.5Q902 758 896 755Q881 747 853.0 731.5Q825 716 795.5 697.5Q766 679 745.0 661.5Q724 644 724 633H596Q596 643 577.5 659.5Q559 676 531.5 693.5Q504 711 477.0 726.5Q450 742 431.5 751.5Q413 761 413 761Z" fill="#92d3f5" />
<path d="M408 926Q391 926 379.0 914.0Q367 902 367 885V802Q367 785 379.0 773.0Q391 761 408 761H912Q929 761 941.0 773.0Q953 785 953 802V885Q953 902 941.0 914.0Q929 926 912 926Z" fill="#d0cfce" />
<path d="M614 633Q614 651 596 651Q578 651 578 633Q578 -66 596 -142Q614 -211 660 -211Q706 -211 724 -142Q761 9 743 633Q742 642 737 647Q733 651 724 651Q714 651 710 646Q706 641 706 632Q725 13 688 -133Q678 -174 660 -174Q642 -174 632 -133Q614 -62 614 633Z" fill="#000000" />
<path d="M408 944Q348 944 348 885V802Q348 777 366 760Q383 743 408 743H912Q937 743 954 760Q972 777 972 802V885Q972 944 912 944ZM408 908H912Q935 908 935 885V802Q935 779 912 779H408Q385 779 385 802V885Q385 908 408 908Z" fill="#000000" />
<path d="M421 777Q404 785 396 769Q392 761 394 755Q396 749 404 744Q578 658 578 633Q578 614 596 614Q614 614 614 633Q614 680 421 777Z" fill="#000000" />
<path d="M706 633Q706 614 724 614Q743 614 743 633Q743 655 905 739Q912 742 916 744Q924 749 926 755Q928 761 924 769Q916 785 899 777Q895 775 888 771Q706 677 706 633Z" fill="#000000" />
<path d="M367 862V825H953V862Z" fill="#000000" />
</g></svg>