<svg xmlns="http://www.w3.org/2000/svg" viewBox="0 0 2048 2048">
<g transform="matrix(1 0 0 -1 0 2048)">
<path d="M1158 130H992V96L493 99L441 162H158H138Q131 162 125.5 167.5Q120 173 120 180V209Q120 217 125.5 222.5Q131 228 138 228H160L216 345Q221 353 230 354L537 384L618 551Q623 560 634 560H1125Q1139 559 1143 546Q1150 516 1154.0 474.0Q1158 432 1159.5 387.0Q1161 342 1161.0 300.5Q1161 259 1160.5 230.0Q1160 201 1160 191L1191 187Q1194 187 1194 184V147Q1194 139 1188.5 134.0Q1183 129 1176 129H1164Z" fill="#92d3f5" />
<path d="M611 385 666 499Q672 510 684 510H843Q846 510 846.5 491.0Q847 472 846.0 447.5Q845 423 844.0 404.0Q843 385 843 385Z" fill="#3f3f3f" />
<path d="M133 227 197 224 250 293 375 279Q387 278 392 267L417 217L891 214L938 254L1108 272L1142 192L1197 190L1183 111H1075L1025 96L487 97L453 145H194H133Z" fill="#3f3f3f" />
<path d="M300 188Q330 188 352.0 166.5Q374 145 374 115Q374 85 352.0 63.0Q330 41 300 41Q270 41 248.5 63.0Q227 85 227 115Q227 145 248.5 166.5Q270 188 300 188Z" fill="#9b9b9a" />
<path d="M999 188Q1029 188 1050.5 166.5Q1072 145 1072 115Q1072 85 1050.5 63.0Q1029 41 999 41Q969 41 947.5 63.0Q926 85 926 115Q926 145 947.5 166.5Q969 188 999 188Z" fill="#9b9b9a" />
<path d="M1173 247H1188Q1188 247 1195.5 254.5Q1203 262 1210.5 284.5Q1218 307 1218 351Q1219 395 1211.5 418.0Q1204 441 1196.5 449.0Q1189 457 1189 457Q1189 457 1177.0 458.0Q1165 459 1164 459Z" fill="#3f3f3f" />
<path d="M1157 147Q1139 147 1139 129Q1139 110 1157 110H1176Q1212 110 1212 147V184Q1212 203 1193 205L1178 207Q1178 210 1178 213Q1184 461 1160 551Q1154 577 1126 578Q1126 578 1125 578H634Q613 579 602 561Q602 560 601 559L525 401L228 372Q210 370 200 354Q200 353 200 353L148 246H138Q102 246 102 209V180Q102 144 138 144H158Q176 144 176 162Q176 180 158 180H138V209H160Q171 209 176 220L232 336L539 365Q549 366 554 376L633 541Q634 541 634 541L1125 542Q1147 456 1142 214Q1141 196 1141 191Q1141 175 1157 173L1176 171V147ZM1125 542Z" fill="#000000" />
<path d="M434 180Q416 180 416 162Q416 144 434 144H438L461 112Q472 96 491 96H851Q869 96 869 115Q869 133 851 133H491L462 173Q456 180 447 180Z" fill="#000000" />
<path d="M410 115Q410 161 378 193Q345 225 300 225Q254 225 222 193Q190 161 190 115Q190 69 222 37Q254 5 300 5Q345 5 378 37Q410 69 410 115ZM373 115Q373 85 352 63Q330 42 300 42Q269 42 248 63Q227 85 227 115Q227 188 300 188Q373 188 373 115Z" fill="#000000" />
<path d="M1109 115Q1109 161 1077 193Q1044 225 999 225Q953 225 921 193Q889 161 889 115Q889 69 921 37Q953 5 999 5Q1044 5 1077 37Q1109 69 1109 115ZM1072 115Q1072 85 1051 63Q1029 42 999 42Q968 42 947 63Q926 85 926 115Q926 188 999 188Q1072 188 1072 115Z" fill="#000000" />
<path d="M627 394Q608 394 608 376Q608 357 627 357H843Q862 357 862 376V492Q862 510 843 510Q825 510 825 492V394Z" fill="#000000" />
<path d="M859 219Q846 206 859 193Q872 181 885 194L938 248H1091Q1109 248 1109 266Q1109 285 1091 285H930Q923 285 917 279Z" fill="#000000" />
<path d="M264 300Q245 300 245 281Q245 263 264 263H386L415 217Q425 201 441 211Q456 221 446 237L411 291Q406 300 396 300Z" fill="#000000" />
<path d="M1164 477Q1145 477 1145 459Q1145 441 1164 441Q1165 441 1183 439Q1201 423 1200 351Q1199 280 1182 265H1173Q1155 265 1155 247Q1155 228 1173 228H1188Q1192 228 1196 230Q1235 251 1237 351Q1238 450 1198 473Q1195 475 1190 476Q1166 477 1164 477Z" fill="#000000" />
</g></svg>