<svg xmlns="http://www.w3.org/2000/svg" viewBox="0 0 2048 2048">
<g transform="matrix(1 0 0 -1 0 2048)">
<path d="M1172.8749389648438 385.05731201171875Q1172.8749389648438 491.0567626953125 1132.9939575195312 584.4622192382812Q1093.1129760742188 677.86767578125 1022.7965087890625 748.1841430664062Q952.4800415039062 818.5006103515625 859.0745849609375 858.381591796875Q765.6691284179688 898.2625732421875 659.669677734375 898.2625732421875Q553.6702270507812 898.2625732421875 460.2647705078125 858.381591796875Q366.85931396484375 818.5006103515625 296.5428466796875 748.1841430664062Q226.22637939453125 677.86767578125 186.34539794921875 584.4622192382812Q146.46441650390625 491.0567626953125 146.46441650390625 385.05731201171875Q146.46441650390625 279.057861328125 186.34539794921875 185.65240478515625Q226.22637939453125 92.2469482421875 296.5428466796875 21.93048095703125Q366.85931396484375 -48.385986328125 460.2647705078125 -88.2669677734375Q553.6702270507812 -128.14794921875 659.669677734375 -128.14794921875Q765.6691284179688 -128.14794921875 859.0745849609375 -88.2669677734375Q952.4800415039062 -48.385986328125 1022.7965087890625 21.93048095703125Q1093.1129760742188 92.2469482421875 1132.9939575195312 185.65240478515625Q1172.8749389648438 279.057861328125 1172.8749389648438 385.05731201171875Z" fill="#ffffff" />
<path d="M1192 385Q1192 605 1036 761Q880 917 660 917Q440 917 284 761Q128 605 128 385Q128 165 284 9Q440 -147 660 -147Q880 -147 1036 9Q1192 165 1192 385ZM1155 385Q1155 180 1010 35Q865 -110 660 -110Q455 -110 310 35Q165 180 165 385Q165 590 310 735Q455 880 660 880Q865 880 1010 735Q1155 590 1155 385Z" fill="#000000" />
<path d="M807 669Q814 669 819.5 663.5Q825 658 825 651V137Q825 130 819.5 124.5Q814 119 807 119Q799 119 793.5 124.5Q788 130 788 137V376H532V137Q532 130 526.5 124.5Q521 119 513 119Q506 119 500.5 124.5Q495 130 495 137V651Q495 658 500.5 663.5Q506 669 513 669Q521 669 526.5 663.5Q532 658 532 651V413H788V651Q788 658 793.5 663.5Q799 669 807 669Z" fill="#000000" />
<path d="M807 687Q770 687 770 651V431H550V651Q550 687 513 687Q477 687 477 651V137Q477 101 513 101Q550 101 550 137V358H770V137Q770 101 807 101Q843 101 843 137V651Q843 687 807 687ZM788 395Q807 395 807 413V376Q807 395 788 395ZM513 413Q513 395 532 395Q513 395 513 376Z" fill="#000000" />
</g></svg>