<svg xmlns="http://www.w3.org/2000/svg" viewBox="0 0 2048 2048">
<g transform="matrix(1 0 0 -1 0 2048)">
<path d="M1164.2750854492188 384.81976318359375Q1164.2750854492188 488.9205322265625 1125.1084594726562 580.6528930664062Q1085.9418334960938 672.38525390625 1016.8848876953125 741.4421997070312Q947.8279418945312 810.4991455078125 856.0955810546875 849.665771484375Q764.3632202148438 888.8323974609375 660.262451171875 888.8323974609375Q556.1616821289062 888.8323974609375 464.4293212890625 849.665771484375Q372.69696044921875 810.4991455078125 303.6400146484375 741.4421997070312Q234.58306884765625 672.38525390625 195.41644287109375 580.6528930664062Q156.24981689453125 488.9205322265625 156.24981689453125 384.81976318359375Q156.24981689453125 280.718994140625 195.41644287109375 188.98663330078125Q234.58306884765625 97.2542724609375 303.6400146484375 28.19732666015625Q372.69696044921875 -40.859619140625 464.4293212890625 -80.0262451171875Q556.1616821289062 -119.19287109375 660.262451171875 -119.19287109375Q764.3632202148438 -119.19287109375 856.0955810546875 -80.0262451171875Q947.8279418945312 -40.859619140625 1016.8848876953125 28.19732666015625Q1085.9418334960938 97.2542724609375 1125.1084594726562 188.98663330078125Q1164.2750854492188 280.718994140625 1164.2750854492188 384.81976318359375Z" fill="#ffffff" />
<path d="M660 660Q716 660 761.5 632.5Q807 605 834.5 559.5Q862 514 862 458V311Q862 256 834.5 210.0Q807 164 761.5 137.0Q716 110 660 110Q604 110 558.5 137.0Q513 164 485.5 210.0Q458 256 458 311V458Q458 514 485.5 559.5Q513 605 558.5 632.5Q604 660 660 660ZM825 311V458Q825 504 802.5 541.5Q780 579 742.5 601.0Q705 623 660 623Q615 623 577.5 601.0Q540 579 517.5 541.5Q495 504 495 458V311Q495 266 517.5 228.5Q540 191 577.5 168.5Q615 146 660 146Q705 146 742.5 168.5Q780 191 802.5 228.5Q825 266 825 311Z" fill="#000000" />
<path d="M1192 385Q1192 605 1036 761Q880 917 660 917Q440 917 284 761Q128 605 128 385Q128 165 284 9Q440 -147 660 -147Q880 -147 1036 9Q1192 165 1192 385ZM1155 385Q1155 180 1010 35Q865 -110 660 -110Q455 -110 310 35Q165 180 165 385Q165 590 310 735Q455 880 660 880Q865 880 1010 735Q1155 590 1155 385Z" fill="#000000" />
<path d="M660 678Q569 678 504 614Q440 549 440 458V311Q440 220 504 156Q569 91 660 91Q751 91 816 156Q880 220 880 311V458Q880 549 816 614Q751 678 660 678ZM807 311Q807 251 764 208Q721 165 660 165Q599 165 556 208Q513 251 513 311V458Q513 519 556 562Q599 605 660 605Q721 605 764 562Q807 519 807 458Z" fill="#000000" />
</g></svg>