<svg xmlns="http://www.w3.org/2000/svg" viewBox="0 0 2048 2048">
<g transform="matrix(1 0 0 -1 0 2048)">
<path d="M1164.2750854492188 384.81976318359375Q1164.2750854492188 488.9205322265625 1125.1084594726562 580.6528930664062Q1085.9418334960938 672.38525390625 1016.8848876953125 741.4421997070312Q947.8279418945312 810.4991455078125 856.0955810546875 849.665771484375Q764.3632202148438 888.8323974609375 660.262451171875 888.8323974609375Q556.1616821289062 888.8323974609375 464.4293212890625 849.665771484375Q372.69696044921875 810.4991455078125 303.6400146484375 741.4421997070312Q234.58306884765625 672.38525390625 195.41644287109375 580.6528930664062Q156.24981689453125 488.9205322265625 156.24981689453125 384.81976318359375Q156.24981689453125 280.718994140625 195.41644287109375 188.98663330078125Q234.58306884765625 97.2542724609375 303.6400146484375 28.19732666015625Q372.69696044921875 -40.859619140625 464.4293212890625 -80.0262451171875Q556.1616821289062 -119.19287109375 660.262451171875 -119.19287109375Q764.3632202148438 -119.19287109375 856.0955810546875 -80.0262451171875Q947.8279418945312 -40.859619140625 1016.8848876953125 28.19732666015625Q1085.9418334960938 97.2542724609375 1125.1084594726562 188.98663330078125Q1164.2750854492188 280.718994140625 1164.2750854492188 384.81976318359375Z" fill="#ffffff" />
<path d="M1192 385Q1192 605 1036 761Q880 917 660 917Q440 917 284 761Q128 605 128 385Q128 165 284 9Q440 -147 660 -147Q880 -147 1036 9Q1192 165 1192 385ZM1155 385Q1155 180 1010 35Q865 -110 660 -110Q455 -110 310 35Q165 180 165 385Q165 590 310 735Q455 880 660 880Q865 880 1010 735Q1155 590 1155 385Z" fill="#000000" />
<path d="M788 146Q796 146 801.5 141.0Q807 136 807 128Q807 121 801.5 115.5Q796 110 788 110H568Q561 110 555.5 115.5Q550 121 550 128V641Q550 649 555.5 654.5Q561 660 568 660Q576 660 581.5 654.5Q587 649 587 641V146Z" fill="#000000" />
<path d="M788 165H605V641Q605 678 568 678Q532 678 532 641V128Q532 91 568 91H788Q825 91 825 128Q825 165 788 165ZM568 146Q568 128 587 128H568Z" fill="#000000" />
</g></svg>