<svg xmlns="http://www.w3.org/2000/svg" viewBox="0 0 2048 2048">
<g transform="matrix(1 0 0 -1 0 2048)">
<path d="M1164.2750854492188 384.81976318359375Q1164.2750854492188 488.9205322265625 1125.1084594726562 580.6528930664062Q1085.9418334960938 672.38525390625 1016.8848876953125 741.4421997070312Q947.8279418945312 810.4991455078125 856.0955810546875 849.665771484375Q764.3632202148438 888.8323974609375 660.262451171875 888.8323974609375Q556.1616821289062 888.8323974609375 464.4293212890625 849.665771484375Q372.69696044921875 810.4991455078125 303.6400146484375 741.4421997070312Q234.58306884765625 672.38525390625 195.41644287109375 580.6528930664062Q156.24981689453125 488.9205322265625 156.24981689453125 384.81976318359375Q156.24981689453125 280.718994140625 195.41644287109375 188.98663330078125Q234.58306884765625 97.2542724609375 303.6400146484375 28.19732666015625Q372.69696044921875 -40.859619140625 464.4293212890625 -80.0262451171875Q556.1616821289062 -119.19287109375 660.262451171875 -119.19287109375Q764.3632202148438 -119.19287109375 856.0955810546875 -80.0262451171875Q947.8279418945312 -40.859619140625 1016.8848876953125 28.19732666015625Q1085.9418334960938 97.2542724609375 1125.1084594726562 188.98663330078125Q1164.2750854492188 280.718994140625 1164.2750854492188 384.81976318359375Z" fill="#ffffff" />
<path d="M1192 385Q1192 605 1036 761Q880 917 660 917Q440 917 284 761Q128 605 128 385Q128 165 284 9Q440 -147 660 -147Q880 -147 1036 9Q1192 165 1192 385ZM1155 385Q1155 180 1010 35Q865 -110 660 -110Q455 -110 310 35Q165 180 165 385Q165 590 310 735Q455 880 660 880Q865 880 1010 735Q1155 590 1155 385Z" fill="#000000" />
<path d="M958 659Q966 657 969.5 650.5Q973 644 971 636L824 123Q821 110 807 110Q793 110 789 123L660 575L531 123Q527 110 513 110Q499 110 496 123L349 636Q347 644 350.5 650.5Q354 657 362 659Q369 661 375.5 657.5Q382 654 384 646L513 195L642 647Q646 660 660 660Q674 660 678 647L807 195L936 646Q938 654 944.5 657.5Q951 661 958 659Z" fill="#000000" />
<path d="M963 677Q949 681 936 674Q922 666 918 652L807 262L695 652Q688 678 660 678Q632 678 625 652L513 262L402 652Q392 687 357 677Q321 667 331 631L478 118Q486 91 513 91Q541 91 549 118L660 508L771 118Q779 91 807 91Q834 91 842 118L989 631Q993 646 985 659Q978 673 963 677Q963 677 963 677ZM953 641 807 128 678 580Q675 590 665 592Q647 597 642 580L660 641L789 190Q792 180 802 177Q819 172 824 190L953 641ZM531 190 642 579 513 128 367 641 496 190Q498 180 508 177Q526 172 531 190Z" fill="#000000" />
</g></svg>