<svg xmlns="http://www.w3.org/2000/svg" viewBox="0 0 2048 2048">
<g transform="matrix(1 0 0 -1 0 2048)">
<path d="M1173.2750854492188 393.81976318359375Q1173.2750854492188 497.9205322265625 1134.1084594726562 589.6528930664062Q1094.9418334960938 681.38525390625 1025.8848876953125 750.4421997070312Q956.8279418945312 819.4991455078125 865.0955810546875 858.665771484375Q773.3632202148438 897.8323974609375 669.262451171875 897.8323974609375Q565.1616821289062 897.8323974609375 473.4293212890625 858.665771484375Q381.69696044921875 819.4991455078125 312.6400146484375 750.4421997070312Q243.58306884765625 681.38525390625 204.41644287109375 589.6528930664062Q165.24981689453125 497.9205322265625 165.24981689453125 393.81976318359375Q165.24981689453125 289.718994140625 204.41644287109375 197.98663330078125Q243.58306884765625 106.2542724609375 312.6400146484375 37.19732666015625Q381.69696044921875 -31.859619140625 473.4293212890625 -71.0262451171875Q565.1616821289062 -110.19287109375 669.262451171875 -110.19287109375Q773.3632202148438 -110.19287109375 865.0955810546875 -71.0262451171875Q956.8279418945312 -31.859619140625 1025.8848876953125 37.19732666015625Q1094.9418334960938 106.2542724609375 1134.1084594726562 197.98663330078125Q1173.2750854492188 289.718994140625 1173.2750854492188 393.81976318359375Z" fill="#ffffff" />
<path d="M673 623Q627 623 589.5 601.0Q552 579 530.0 541.5Q508 504 508 458V312Q508 266 530.0 228.5Q552 191 589.5 169.0Q627 147 673 147Q735 147 782 188Q788 193 795.5 192.5Q803 192 808 187Q813 181 812.5 173.5Q812 166 806 161Q749 110 673 110Q617 110 571.0 137.5Q525 165 498.0 210.5Q471 256 471 312V458Q471 514 498.0 559.5Q525 605 571.0 632.5Q617 660 673 660Q749 660 806 609Q812 604 812.5 596.5Q813 589 808 583Q803 578 795.5 577.5Q788 577 782 582Q735 623 673 623Z" fill="#000000" />
<path d="M1192 385Q1192 605 1036 761Q880 917 660 917Q440 917 284 761Q128 605 128 385Q128 165 284 9Q440 -147 660 -147Q880 -147 1036 9Q1192 165 1192 385ZM1155 385Q1155 180 1010 35Q865 -110 660 -110Q455 -110 310 35Q165 180 165 385Q165 590 310 735Q455 880 660 880Q865 880 1010 735Q1155 590 1155 385Z" fill="#000000" />
<path d="M673 605Q728 605 770 568Q781 558 796 559Q812 560 822 571Q846 599 819 623Q756 678 673 678Q582 678 517 614Q453 549 453 458V312Q453 221 517 156Q582 92 673 92Q756 92 818 147Q830 157 831 172Q832 187 822 199Q812 210 796 211Q781 212 770 202Q728 165 673 165Q612 165 569 208Q526 251 526 312V458Q526 519 569 562Q612 605 673 605ZM794 596Q762 624 722 635Q762 624 794 596Z" fill="#000000" />
</g></svg>