<svg xmlns="http://www.w3.org/2000/svg" viewBox="0 0 2048 2048">
<g transform="matrix(1 0 0 -1 0 2048)">
<path d="M1098.303466796875 -73.3028564453125Q1106.638427734375 -73.3028564453125 1111.8477783203125 -68.093505859375Q1117.05712890625 -62.8841552734375 1117.05712890625 -54.5491943359375V824.7891845703125Q1117.05712890625 833.1241455078125 1111.8477783203125 838.33349609375Q1106.638427734375 843.5428466796875 1098.303466796875 843.5428466796875H218.965087890625Q210.630126953125 843.5428466796875 205.4207763671875 838.33349609375Q200.21142578125 833.1241455078125 200.21142578125 824.7891845703125V-54.5491943359375Q200.21142578125 -62.8841552734375 205.4207763671875 -68.093505859375Q210.630126953125 -73.3028564453125 218.965087890625 -73.3028564453125Z" fill="#61b2e4" />
<path d="M970 298Q970 296 964.5 290.0Q959 284 960 283L915 320L925 -5Q926 -12 921 -17Q921 -19 919 -19Q917 -19 913.0 -14.5Q909 -10 908 -2L866 328H806L769 -2Q768 -10 764.0 -14.5Q760 -19 758 -19Q756 -19 756 -17Q754 -15 751.5 -11.5Q749 -8 749 -4L763 320L713 281Q713 283 709.5 289.5Q706 296 706 298L718 580Q719 606 740.5 627.5Q762 649 787 649L900 647Q925 647 941.0 625.5Q957 604 958 578Z" fill="#ffffff" />
<path d="M880.73974609375 751.759521484375Q880.73974609375 760.744140625 877.331787109375 768.6444091796875Q873.923828125 776.544677734375 867.93408203125 782.534423828125Q861.9443359375 788.524169921875 854.0440673828125 791.93212890625Q846.143798828125 795.340087890625 837.1591796875 795.340087890625Q828.174560546875 795.340087890625 820.2742919921875 791.93212890625Q812.3740234375 788.524169921875 806.38427734375 782.534423828125Q800.39453125 776.544677734375 796.986572265625 768.6444091796875Q793.57861328125 760.744140625 793.57861328125 751.759521484375Q793.57861328125 742.77490234375 796.986572265625 734.8746337890625Q800.39453125 726.974365234375 806.38427734375 720.984619140625Q812.3740234375 714.994873046875 820.2742919921875 711.5869140625Q828.174560546875 708.178955078125 837.1591796875 708.178955078125Q846.143798828125 708.178955078125 854.0440673828125 711.5869140625Q861.9443359375 714.994873046875 867.93408203125 720.984619140625Q873.923828125 726.974365234375 877.331787109375 734.8746337890625Q880.73974609375 742.77490234375 880.73974609375 751.759521484375Z" fill="#ffffff" />
<path d="M614 298Q614 296 610.5 289.5Q607 283 608 282L577 299L581 -4Q581 -8 574.5 -11.5Q568 -15 566 -17Q565 -18 564 -19Q561 -19 554.0 -15.5Q547 -12 546 -4L516 328H450L413 -2Q412 -10 408.5 -14.5Q405 -19 402 -19Q401 -19 400 -17Q398 -15 393.0 -12.0Q388 -9 388 -5L392 298L356 282Q357 284 353.5 290.0Q350 296 350 298L363 586Q364 611 384.0 630.0Q404 649 429 649L549 646Q573 646 587.0 626.5Q601 607 602 582Z" fill="#ffffff" />
<path d="M526.73974609375 751.759521484375Q526.73974609375 760.744140625 523.331787109375 768.6444091796875Q519.923828125 776.544677734375 513.93408203125 782.534423828125Q507.9443359375 788.524169921875 500.0440673828125 791.93212890625Q492.143798828125 795.340087890625 483.1591796875 795.340087890625Q474.174560546875 795.340087890625 466.2742919921875 791.93212890625Q458.3740234375 788.524169921875 452.38427734375 782.534423828125Q446.39453125 776.544677734375 442.986572265625 768.6444091796875Q439.57861328125 760.744140625 439.57861328125 751.759521484375Q439.57861328125 742.77490234375 442.986572265625 734.8746337890625Q446.39453125 726.974365234375 452.38427734375 720.984619140625Q458.3740234375 714.994873046875 466.2742919921875 711.5869140625Q474.174560546875 708.178955078125 483.1591796875 708.178955078125Q492.143798828125 708.178955078125 500.0440673828125 711.5869140625Q507.9443359375 714.994873046875 513.93408203125 720.984619140625Q519.923828125 726.974365234375 523.331787109375 734.8746337890625Q526.73974609375 742.77490234375 526.73974609375 751.759521484375Z" fill="#ffffff" />
<path d="M1099 -92Q1136 -92 1136 -55V825Q1136 862 1099 862H219Q182 862 182 825V-55Q182 -92 219 -92ZM1099 -55H219V825H1099Z" fill="#000000" />
<path d="M899 751Q899 813 837 813Q812 813 794 795Q776 777 776 751Q776 726 794 708Q812 690 837 690Q863 690 881 708Q899 726 899 751ZM863 751Q863 726 837 726Q812 726 812 751Q812 762 820 769Q827 777 837 777Q863 777 863 751Z" fill="#000000" />
<path d="M930 563Q929 581 910 580Q892 579 893 561L921 3Q921 -2 919 -6Q912 -4 912 5Q912 6 912 6L874 329Q869 375 838 375Q807 375 802 329L765 6Q764 6 764 5Q764 -4 757 -6Q755 -2 755 3L783 561Q784 579 766 580Q747 581 746 563L719 5Q718 -13 727 -27Q739 -43 757 -43Q759 -43 760 -43Q799 -36 801 3L838 324L875 3Q877 -36 916 -43Q917 -43 919 -43Q937 -43 949 -27Q958 -13 958 5Z" fill="#000000" />
<path d="M545 751Q545 813 483 813Q458 813 440 795Q421 777 421 751Q421 726 440 708Q458 690 483 690Q509 690 527 708Q545 726 545 751ZM508 751Q508 741 501 734Q494 726 483 726Q458 726 458 751Q458 762 465 769Q473 777 483 777Q494 777 501 769Q508 762 508 751Z" fill="#000000" />
<path d="M571 546Q581 561 566 571Q551 581 541 566Q506 514 534 445Q537 436 538 433Q544 414 551 355Q559 268 565 4Q565 4 565 3Q565 -2 563 -6Q556 -4 556 5Q556 6 556 6L519 329Q513 375 482 375Q451 375 446 329L409 6Q409 6 409 5Q408 -4 402 -6Q399 -2 399 3Q407 265 415 351Q415 353 416 358Q421 416 426 433Q428 437 431 446Q460 519 424 567Q413 582 399 571Q391 565 390 559Q389 553 395 545Q418 513 397 460Q393 449 392 444Q385 424 379 361Q379 357 379 355Q370 267 363 5Q362 -13 372 -27Q383 -43 402 -43Q403 -43 405 -43Q444 -36 445 3L482 324L519 3Q521 -36 560 -43Q561 -43 563 -43Q582 -43 593 -27Q603 -13 602 5Q596 270 587 358Q581 422 573 445Q571 449 568 458Q547 510 571 546Z" fill="#000000" />
<path d="M688 299Q687 280 705 279Q723 279 724 297L736 576Q739 631 794 631H882Q937 631 940 575L952 297Q952 279 971 279Q989 280 988 299L977 577Q975 615 947 641Q920 668 882 668H794Q756 668 728 641Q701 615 699 577Z" fill="#000000" />
<path d="M332 299Q331 281 349 280Q358 279 363 284Q368 288 368 297L380 576Q383 631 438 632H526Q581 631 584 576L596 297Q596 279 615 280Q633 281 632 299L621 578Q619 615 591 642Q564 668 526 668H438Q400 668 373 642Q345 615 343 577Z" fill="#000000" />
</g></svg>