<svg xmlns="http://www.w3.org/2000/svg" viewBox="0 0 2048 2048">
<g transform="matrix(1 0 0 -1 0 2048)">
<path d="M1050 743Q1084 743 1111.0 710.0Q1138 677 1154.5 624.0Q1171 571 1173.5 508.0Q1176 445 1161.0 383.5Q1146 322 1110 274Q1079 233 1051.5 223.5Q1024 214 995.5 227.0Q967 240 932.0 265.0Q897 290 850.5 317.5Q804 345 740 365Q742 375 742.5 385.0Q743 395 742.5 421.0Q742 447 743 504Q743 542 718 568Q748 601 790.5 632.0Q833 663 880.0 688.0Q927 713 971.5 728.0Q1016 743 1050 743Z" fill="#ea5a47" />
<path d="M743 496Q743 501 743 504Q743 542 718 568Q748 601 790.5 632.0Q833 663 880.0 688.0Q927 713 971.5 728.0Q1016 743 1050 743Q1080 743 1104.5 717.0Q1129 691 1146.0 648.0Q1163 605 1170.0 551.5Q1177 498 1171 443Q1165 498 1148.5 544.5Q1132 591 1106.5 618.5Q1081 646 1050 646Q1009 646 953.5 624.5Q898 603 841.5 569.0Q785 535 743 496Z" fill="#d22f27" />
<path d="M552 523 570 594Q537 627 492.0 659.0Q447 691 398.0 715.5Q349 740 305 752Q297 754 293 755Q287 756 281 758Q261 761 244 761Q227 761 211 752Q206 749 202 745Q178 727 160.0 690.5Q142 654 131.5 607.0Q121 560 121 509Q121 496 122 486Q122 476 124 461Q126 442 130 422Q130 422 130.0 422.0Q130 422 130 422Q137 386 150.5 353.0Q164 320 185 293Q194 280 202 272Q226 246 248.0 240.5Q270 235 293 243Q323 254 358.5 279.5Q394 305 441.5 334.0Q489 363 555 383Q555 385 554 385Q554 385 554.0 385.5Q554 386 554 387Q552 396 552 409V449Q552 472 552 514Z" fill="#ea5a47" />
<path d="M552 523 570 594Q537 627 492.0 659.0Q447 691 398.0 715.5Q349 740 305 752Q297 754 293 755Q287 756 281 758Q261 761 244 761Q227 761 211 752Q206 749 202 745Q178 727 160.0 690.5Q142 654 131.5 607.0Q121 560 121 509Q121 496 122 486Q122 476 124 461Q130 520 149.0 569.0Q168 618 195 643Q198 646 202 649Q222 665 244 665Q265 665 293 658Q334 648 380.5 626.5Q427 605 472.0 575.5Q517 546 552 514Z" fill="#d22f27" />
<path d="M555 370Q561 344 577.0 326.0Q593 308 614 304Q596 255 580.0 198.0Q564 141 550.0 84.0Q536 27 526.0 -22.0Q516 -71 509 -105Q507 -118 496.0 -119.5Q485 -121 480 -109L440 -20Q430 4 408 -1L320 -20Q310 -22 304.5 -12.5Q299 -3 304 7Q362 136 412.5 218.5Q463 301 493 341Q507 349 522.5 356.5Q538 364 555 370Z" fill="#ea5a47" />
<path d="M809 340Q840 300 890.0 218.0Q940 136 998 7Q1002 -3 996.5 -12.5Q991 -22 982 -20L894 -1Q872 4 862 -20L822 -109Q817 -121 806.0 -119.5Q795 -118 793 -105Q786 -71 775.5 -22.0Q765 27 751.5 84.0Q738 141 722.0 198.0Q706 255 688 304Q709 308 725.0 326.0Q741 344 746 370Q763 364 779.0 356.5Q795 349 809 340Z" fill="#ea5a47" />
<path d="M657 629Q688 629 709.5 600.0Q731 571 731 531V409Q731 369 709.5 340.5Q688 312 657 312H626Q596 312 574.0 340.5Q552 369 552 409V531Q552 571 574.0 600.0Q596 629 626 629Z" fill="#ea5a47" />
<path d="M725 594Q703 629 668 629H637Q622 629 609 621Q629 610 641.5 585.5Q654 561 654 531V409Q654 379 641.5 355.0Q629 331 609 320Q622 312 637 312H668Q699 312 720.5 340.5Q742 369 742 409V531Q742 566 725 594Z" fill="#d22f27" />
<path d="M1074 734 1092 766Q1072 777 1050 777Q987 777 892 730L908 697Q995 740 1050 740Q1062 740 1074 734Z" fill="#000000" />
<path d="M745 398 734 363Q812 339 914 270Q986 222 1019 218Q1074 212 1125 279Q1206 387 1189 556Q1173 720 1092 766L1074 734Q1139 697 1153 552Q1168 397 1096 301Q1057 250 1023 254Q999 257 934 301Q828 372 745 398Z" fill="#000000" />
<path d="M908 697 892 730Q776 673 705 596L731 571Q798 643 908 697Z" fill="#000000" />
<path d="M570 523H534V449Q534 442 534 430Q534 415 534 409Q534 402 534 396Q457 368 361 303Q308 268 287 261Q250 248 215 285Q208 292 199 304Q162 353 148 425Q144 445 142 463Q141 477 140 486V487Q140 497 140 509Q140 674 213 731Q216 734 220 736Q232 743 244 743Q259 743 277 740H278Q283 739 289 737Q293 736 300 734Q446 694 557 581L583 607Q466 726 310 769Q302 772 298 772Q291 774 284 776Q263 780 244 780Q222 780 201 767Q196 764 190 760Q103 692 103 509Q103 496 104 485Q104 474 106 460Q108 440 112 418Q128 338 170 282Q180 268 188 260Q239 205 299 226Q325 235 381 273Q481 340 558 365H577L573 387Q572 389 572 391Q570 398 570 410Q570 415 570 430Q570 442 570 449Z" fill="#000000" />
<path d="M549 387Q516 375 484 357Q481 356 478 352Q379 220 287 15Q279 -4 289 -22Q301 -43 324 -38L412 -19Q419 -17 423 -27L463 -117Q474 -142 499 -137Q522 -134 527 -108Q579 157 631 297Q637 314 620 321Q619 321 618 322Q583 329 573 374Q570 392 552 388Q550 388 549 387ZM543 346Q558 307 590 292Q541 153 493 -93L457 -12Q440 25 404 17L316 -2L321 0Q410 199 505 327Q524 338 543 346Z" fill="#000000" />
<path d="M818 356Q785 375 752 387Q744 390 738 388Q732 385 729 376Q729 375 728 374Q719 329 684 322Q666 318 670 300Q670 299 671 297Q723 157 775 -108Q780 -134 803 -137Q828 -142 839 -117L878 -27Q883 -17 890 -19L978 -38Q1000 -43 1013 -22Q1023 -4 1014 15Q923 219 824 351Q822 354 818 356ZM797 326Q893 198 981 0Q981 -1 981 -1L897 17Q861 25 845 -12L809 -93Q761 153 711 292Q744 307 758 346Q777 337 797 326Z" fill="#000000" />
<path d="M657 647H626Q587 647 559 611Q534 578 534 531V409Q534 363 559 329Q587 294 626 294H657Q697 294 724 329Q750 363 750 409V531Q750 578 724 611Q697 647 657 647ZM657 610Q679 610 695 589Q713 565 713 531V409Q713 330 657 330H626Q605 330 588 352Q570 375 570 409V531Q570 565 588 589Q605 610 626 610Z" fill="#000000" />
</g></svg>