<svg xmlns="http://www.w3.org/2000/svg" viewBox="0 0 2048 2048">
<g transform="matrix(1 0 0 -1 0 2048)">
<path d="M513 862Q513 877 524.0 887.5Q535 898 550 898Q560 898 569 893Q568 896 568 898Q568 914 579.0 924.5Q590 935 605 935Q621 935 633 922Q644 935 660 935Q676 935 688 922Q699 935 715 935Q730 935 741.0 924.5Q752 914 752 898Q752 896 751 893Q760 898 770 898Q785 898 796.0 887.5Q807 877 807 862Q807 860 806 856Q815 862 825 862Q840 862 851.0 851.0Q862 840 862 825Q862 815 856 806Q860 807 862 807Q877 807 887.5 796.0Q898 785 898 770Q898 760 893 751Q897 752 898 752Q924 752 933 727Q942 733 953 733Q969 733 979.5 722.5Q990 712 990 697Q990 687 985 678Q988 678 990 678Q1005 678 1016.0 667.5Q1027 657 1027 642Q1027 640 1026 636Q1035 642 1045 642Q1060 642 1071.0 631.0Q1082 620 1082 605Q1082 594 1075 584Q1100 576 1100 550Q1100 548 1099 545Q1108 550 1118 550Q1134 550 1144.5 539.5Q1155 529 1155 513Q1155 497 1142 486Q1155 475 1155 458Q1155 448 1150 439Q1154 440 1155 440Q1170 440 1181.0 429.5Q1192 419 1192 403Q1192 391 1183 380Q1195 377 1203.0 367.5Q1211 358 1211 345Q1211 329 1200 319Q1210 308 1210 293Q1210 279 1200 268Q1225 260 1225 234Q1225 212 1205 201Q1210 193 1210 183Q1210 170 1201 160Q1224 150 1224 126Q1224 114 1216.5 104.0Q1209 94 1198 91Q1211 89 1219.5 79.0Q1228 69 1228 55Q1228 37 1214 26Q1225 15 1225 0Q1225 -24 1203 -34Q1210 -43 1210 -55Q1210 -70 1200.0 -80.5Q1190 -91 1175 -91Q1180 -100 1180 -110Q1180 -125 1169.5 -136.0Q1159 -147 1144 -147Q1128 -147 1118 -136Q1115 -148 1105.0 -156.5Q1095 -165 1082 -165Q1070 -165 1061 -159Q1052 -165 1040 -165Q1019 -165 1009 -147Q1009 -147 1008.5 -147.0Q1008 -147 1008 -147Q997 -147 988 -140H332Q323 -147 312 -147Q312 -147 311.5 -147.0Q311 -147 311 -147Q301 -165 280 -165Q268 -165 259 -159Q250 -165 238 -165Q225 -165 215.0 -156.5Q205 -148 202 -136Q192 -147 176 -147Q161 -147 150.5 -136.0Q140 -125 140 -110Q140 -100 145 -91Q130 -91 120.0 -80.5Q110 -70 110 -55Q110 -43 117 -34Q95 -24 95 0Q95 15 106 26Q92 37 92 55Q92 69 100.5 79.0Q109 89 122 91Q111 94 103.5 104.0Q96 114 96 126Q96 150 119 160Q110 170 110 183Q110 193 115 201Q95 212 95 234Q95 260 120 268Q110 279 110 293Q110 308 120 319Q109 329 109 345Q109 358 117.0 367.5Q125 377 137 380Q128 391 128 403Q128 419 139.0 429.5Q150 440 165 440Q166 440 170 439Q165 448 165 458Q165 475 178 486Q165 497 165 513Q165 529 175.5 539.5Q186 550 202 550Q212 550 221 545Q220 548 220 550Q220 576 245 584Q238 594 238 605Q238 620 249.0 631.0Q260 642 275 642Q285 642 294 636Q293 640 293 642Q293 657 304.0 667.5Q315 678 330 678Q332 678 335 678Q330 687 330 697Q330 712 340.5 722.5Q351 733 367 733Q378 733 387 727Q396 752 422 752Q423 752 427 751Q422 760 422 770Q422 785 432.5 796.0Q443 807 458 807Q460 807 464 806Q458 815 458 825Q458 840 469.0 851.0Q480 862 495 862Q505 862 514 856Q513 860 513 862Q513 877 524.0 887.5Q535 898 550 898Q560 898 569 893Q568 896 568 898Q568 914 579.0 924.5Q590 935 605 935Q621 935 633 922Q644 935 660 935Q676 935 688 922Q699 935 715 935Q730 935 741.0 924.5Q752 914 752 898Q752 896 751 893Q760 898 770 898Q785 898 796.0 887.5Q807 877 807 862Z" fill="#ffffff" />
<path d="M403.1622314453125 238.57781982421875V-164.75439453125H916.4776611328125V238.57781982421875Z" fill="#3f3f3f" />
<path d="M788 862Q788 843 807 843Q825 843 825 862Q825 917 770 917Q769 917 768 917Q760 953 715 953Q700 953 688 946Q675 953 660 953Q645 953 633 946Q620 953 605 953Q560 953 552 917Q551 917 550 917Q505 917 497 880Q496 880 495 880Q440 880 440 825Q440 824 440 823Q403 815 403 770Q403 769 403 768Q388 763 379 750Q373 752 367 752Q312 752 312 697Q312 696 312 695Q283 688 277 660Q276 660 275 660Q220 660 220 605Q220 599 221 593Q209 583 204 568Q203 568 202 568Q147 568 147 513Q147 498 154 486Q147 474 147 458Q147 457 147 456Q110 448 110 403Q110 396 112 390Q91 376 91 345Q91 330 97 318Q92 307 92 293Q92 284 95 275Q77 261 77 234Q77 209 93 195Q92 189 92 183Q92 174 94 166Q78 152 78 126Q78 107 87 94Q73 80 73 55Q73 38 82 25Q77 13 77 0Q77 -26 94 -40Q92 -47 92 -55Q92 -95 122 -106Q121 -108 121 -110Q121 -165 176 -165Q186 -165 194 -162Q207 -183 238 -183Q249 -183 259 -179Q269 -183 280 -183Q306 -183 321 -164Q333 -162 342 -156Q350 -150 351 -144Q353 -138 347 -130Q337 -115 322 -125Q318 -128 312 -128Q312 -128 311 -128Q301 -128 295 -137Q290 -147 280 -147Q274 -147 269 -143Q259 -136 249 -143Q244 -147 238 -147Q223 -147 220 -132Q219 -127 215 -123Q202 -110 189 -123Q184 -128 176 -128Q158 -128 158 -110Q158 -105 161 -101Q163 -97 163 -92Q164 -74 146 -73Q128 -72 128 -55Q128 -49 132 -44Q133 -43 134 -41Q141 -24 124 -17Q113 -12 113 0Q113 8 119 13Q120 14 121 15Q126 22 125 29Q125 35 117 41Q110 46 110 55Q110 70 125 73Q137 75 140 86Q143 95 140 100Q136 106 128 109Q115 113 115 126Q115 138 126 143Q128 144 131 146Q145 158 133 172Q128 177 128 183Q128 188 131 192Q131 193 131 193Q135 201 133 207Q132 213 123 218Q113 223 113 234Q113 247 126 251Q130 252 133 255Q146 267 133 281Q128 286 128 293Q128 301 133 306Q146 319 133 332Q127 337 127 345Q127 359 141 363Q145 364 149 366Q156 372 156 379Q157 385 151 392Q147 397 147 403Q147 422 165 422Q165 422 167 421Q168 421 168 421Q174 420 180 424Q196 433 186 449Q183 453 183 458Q183 466 190 472Q191 473 191 474Q197 481 197 487Q197 494 190 500Q183 505 183 513Q183 532 202 532Q207 532 211 529Q217 525 224 527Q242 530 239 548Q238 550 238 550Q238 563 251 567Q253 568 255 569Q262 574 264 581Q265 587 260 595Q257 599 257 605Q257 623 275 623Q280 623 284 621Q290 617 297 618Q315 621 312 639Q312 641 312 642Q312 660 330 660Q330 660 332 660H333Q339 659 345 662Q353 667 354 673Q356 679 351 687Q348 692 348 697Q348 715 367 715Q372 715 377 712Q379 711 381 710Q398 704 405 721Q409 733 422 733Q422 733 424 733Q431 732 437 735Q452 745 443 761Q440 765 440 770Q440 788 458 788Q459 788 461 788Q468 787 473 790Q489 800 479 816Q477 820 477 825Q477 843 495 843Q500 843 504 841Q510 837 517 838Q535 841 532 859Q532 861 532 862Q532 880 550 880Q555 880 559 877Q565 874 572 875Q581 876 585 882Q588 887 587 896Q587 898 587 898Q587 917 605 917Q613 917 619 910Q620 909 620 909Q627 903 634 903Q640 903 646 910Q652 917 660 917Q668 917 674 910Q675 909 675 909Q682 903 689 903Q695 903 701 910Q707 917 715 917Q733 917 733 898Q733 898 733 896Q732 889 735 884Q740 876 746 874Q753 873 761 877Q765 880 770 880Q788 880 788 862Z" fill="#000000" />
<path d="M495 862Q495 843 513 843Q532 843 532 862Q532 880 550 880Q555 880 559 877Q575 868 585 884Q588 889 587 896Q587 898 587 898Q587 917 605 917Q613 917 619 910Q625 903 631 903Q638 903 645 909Q645 909 646 910Q652 917 660 917Q668 917 674 910Q680 903 686 903Q693 903 700 909Q700 909 701 910Q707 917 715 917Q733 917 733 898Q733 898 733 896Q732 887 735 882Q739 876 748 875Q755 874 761 877Q765 880 770 880Q788 880 788 862Q788 861 788 859Q787 850 790 845Q794 840 803 838Q810 837 816 841Q820 843 825 843Q843 843 843 825Q843 820 841 816Q831 800 847 790Q852 787 859 788Q861 788 862 788Q880 788 880 770Q880 765 877 761Q868 745 883 735Q889 732 896 733Q898 733 898 733Q911 733 915 721Q922 704 939 710Q941 711 943 712Q948 715 953 715Q972 715 972 697Q972 692 969 687Q959 672 975 662Q981 659 987 660H988Q990 660 990 660Q1008 660 1008 642Q1008 641 1008 639Q1005 621 1023 618Q1030 617 1036 621Q1040 623 1045 623Q1063 623 1063 605Q1063 599 1060 595Q1050 580 1065 569Q1067 568 1069 567Q1082 563 1082 550Q1082 550 1081 548Q1080 539 1084 533Q1087 528 1096 527Q1103 525 1109 529Q1113 532 1118 532Q1137 532 1137 513Q1137 505 1130 500Q1116 488 1129 474Q1129 473 1130 472Q1137 466 1137 458Q1137 453 1134 449Q1124 433 1140 424Q1146 420 1152 421Q1152 421 1153 421Q1155 422 1155 422Q1173 422 1173 403Q1173 397 1169 392Q1157 378 1171 366Q1175 364 1179 363Q1193 359 1193 345Q1193 337 1187 332Q1174 319 1187 306Q1192 301 1192 293Q1192 286 1187 281Q1180 274 1181 268Q1181 261 1187 255Q1190 252 1194 251Q1207 247 1207 234Q1207 223 1197 218Q1188 213 1187 207Q1185 201 1189 193Q1189 193 1189 192Q1192 188 1192 183Q1192 177 1187 172Q1175 158 1189 146Q1192 144 1194 143Q1205 138 1205 126Q1205 113 1192 109Q1175 103 1180 86Q1183 75 1195 73Q1210 70 1210 55Q1210 46 1203 41Q1195 35 1195 29Q1194 22 1199 15Q1200 14 1201 13Q1207 8 1207 0Q1207 -12 1196 -17Q1187 -20 1185 -27Q1182 -33 1186 -41Q1187 -43 1188 -44Q1192 -49 1192 -55Q1192 -72 1174 -73Q1156 -74 1157 -92Q1157 -97 1159 -101Q1162 -105 1162 -110Q1162 -128 1144 -128Q1136 -128 1131 -123Q1118 -110 1105 -123Q1101 -127 1100 -132Q1097 -147 1082 -147Q1076 -147 1071 -143Q1061 -136 1051 -143Q1046 -147 1040 -147Q1030 -147 1025 -137Q1019 -128 1009 -128Q1008 -128 1008 -128Q1002 -128 998 -125Q983 -115 973 -130Q967 -138 969 -144Q970 -150 978 -156Q987 -162 999 -164Q1014 -183 1040 -183Q1051 -183 1061 -179Q1071 -183 1082 -183Q1113 -183 1126 -162Q1134 -165 1144 -165Q1199 -165 1199 -110Q1199 -108 1198 -106Q1228 -95 1228 -55Q1228 -47 1226 -40Q1243 -26 1243 0Q1243 13 1238 25Q1247 38 1247 55Q1247 80 1233 94Q1242 107 1242 126Q1242 152 1226 166Q1228 174 1228 183Q1228 189 1227 195Q1243 209 1243 234Q1243 261 1225 275Q1228 284 1228 293Q1228 307 1223 318Q1229 330 1229 345Q1229 376 1208 390Q1210 396 1210 403Q1210 448 1173 456Q1173 457 1173 458Q1173 474 1166 486Q1173 498 1173 513Q1173 568 1118 568Q1117 568 1116 568Q1111 583 1099 593Q1100 599 1100 605Q1100 660 1045 660Q1044 660 1043 660Q1037 688 1008 695Q1008 696 1008 697Q1008 752 953 752Q947 752 941 750Q932 763 917 768Q917 769 917 770Q917 815 880 823Q880 824 880 825Q880 880 825 880Q824 880 823 880Q815 917 770 917Q769 917 768 917Q760 953 715 953Q700 953 688 946Q675 953 660 953Q645 953 633 946Q620 953 605 953Q560 953 552 917Q551 917 550 917Q495 917 495 862Z" fill="#000000" />
<path d="M385 -165Q385 -183 403 -183H917Q935 -183 935 -165V238Q935 257 917 257H403Q385 257 385 238ZM422 220H898V-147H422Z" fill="#000000" />
</g></svg>