<svg xmlns="http://www.w3.org/2000/svg" viewBox="0 0 2048 2048">
<g transform="matrix(1 0 0 -1 0 2048)">
<path d="M629.0 810.0Q458.0 810.0 364.5 704.5Q271.0 599.0 271.0 407.0Q271.0 222.0 362.5 123.0Q454.0 24.0 625.0 24.0H951.0L850.0 -69.0L887.0 -110.0L1067.0 55.0L887.0 220.0L850.0 180.0L952.0 87.0H625.0Q333.0 87.0 333.0 407.0Q333.0 513.0 360.0 579.5Q387.0 646.0 431.0 682.5Q475.0 719.0 527.0 733.0Q579.0 747.0 629.0 747.0H921.0V810.0Z" fill="#3f3f3f" />
<path d="M234 407Q234 545 281.5 643.0Q329 741 417.5 793.5Q506 846 630 846H922Q937 846 947.5 835.5Q958 825 958 810V747Q958 732 947.5 721.0Q937 710 922 710H630Q370 710 370 407Q370 262 432.5 192.5Q495 123 625 123H858L826 153Q814 163 813.5 178.0Q813 193 823 205L861 245Q871 256 886 257Q901 258 912 247L1092 82Q1104 71 1104 55Q1104 39 1092 28L912 -137Q902 -146 888 -146Q871 -146 861 -134L823 -94Q813 -83 814 -68Q814 -52 826 -42L858 -13H625Q439 -13 336.5 97.0Q234 207 234 407ZM271 407Q271 222 362.5 123.0Q454 24 625 24H952L850 -69L888 -110L1067 55L888 220L850 180L952 87H625Q334 87 334 407Q334 513 360.5 579.5Q387 646 431.0 682.5Q475 719 527.0 733.0Q579 747 630 747H922V810H630Q459 810 365.0 704.5Q271 599 271 407Z" fill="#000000" />
</g></svg>