<svg xmlns="http://www.w3.org/2000/svg" viewBox="0 0 2048 2048">
<g transform="matrix(1 0 0 -1 0 2048)">
<path d="M916.2977294921875 750.535400390625Q880.4597778320312 773.4061889648438 840.5991516113281 779.9952697753906Q800.738525390625 786.5843505859375 761.8958740234375 778.0050659179688Q723.05322265625 769.42578125 689.6761779785156 746.6604919433594Q656.2991333007812 723.8952026367188 633.4283447265625 688.0572509765625Q610.5575561523438 652.2192993164062 603.9684753417969 612.3586730957031Q597.37939453125 572.498046875 605.9586791992188 533.6553955078125Q614.5379638671875 494.812744140625 637.3032531738281 461.4356994628906Q660.0685424804688 428.05865478515625 695.906494140625 405.1878662109375Q731.7444458007812 382.31707763671875 771.6050720214844 375.7279968261719Q811.4656982421875 369.138916015625 850.308349609375 377.71820068359375Q889.1510009765625 386.2974853515625 922.5280456542969 409.0627746582031Q955.9050903320312 431.82806396484375 978.77587890625 467.666015625Q1001.6466674804688 503.50396728515625 1008.2357482910156 543.3645935058594Q1014.8248291015625 583.2252197265625 1006.2455444335938 622.06787109375Q997.666259765625 660.9105224609375 974.9009704589844 694.2875671386719Q952.1356811523438 727.6646118164062 916.2977294921875 750.535400390625Z" fill="#ffffff" />
<path d="M980 461Q957 425 914.0 406.0Q871 387 822.5 384.5Q774 382 735 393Q756 397 785.0 409.5Q814 422 844.0 445.0Q874 468 899 504Q929 547 939.0 589.0Q949 631 947.0 666.5Q945 702 939 724Q956 706 980.5 680.0Q1005 654 1011 629Q1016 605 1013.5 573.5Q1011 542 1002.0 512.0Q993 482 980 461Z" fill="#92d3f5" />
<path d="M949 802Q1042 743 1066 635Q1090 528 1030 435Q991 373 928.0 341.5Q865 310 795.0 312.0Q725 314 663 354Q601 393 569.5 456.0Q538 519 540.0 589.0Q542 659 582 721Q641 814 749 838Q856 861 949 802ZM983 465Q1030 538 1011 623Q992 708 919 755Q846 801 761 783Q676 764 629 691Q598 642 596.5 586.5Q595 531 620.0 481.5Q645 432 693 401Q719 384 748.0 376.0Q777 368 806 368Q858 368 905.5 393.0Q953 418 983 465Z" fill="#d0cfce" />
<path d="M576 307 660 258 449 -57Q449 -57 438.5 -58.0Q428 -59 417.0 -59.0Q406 -59 402 -57Q395 -53 389.0 -39.0Q383 -25 380.0 -10.5Q377 4 382 11L450 117Z" fill="#3f3f3f" />
<path d="M960.7493896484375 820.280029296875Q860.8112182617188 884.1455688476562 744.3936767578125 858.4472045898438Q629.2645263671875 832.1656494140625 565.3989868164062 732.2274780273438Q501.533447265625 632.289306640625 526.8792114257812 516.8075561523438Q552.5775756835938 400.3900146484375 652.5157470703125 336.52447509765625Q752.4539184570312 272.658935546875 868.8714599609375 298.3572998046875Q984.3532104492188 323.70306396484375 1048.21875 423.6412353515625Q1112.0842895507812 523.5794067382812 1086.3859252929688 639.9969482421875Q1060.6875610351562 756.4144897460938 960.7493896484375 820.280029296875ZM941.36865234375 789.4672241210938Q1028.6535034179688 733.6577758789062 1050.9344482421875 631.9822998046875Q1072.86279296875 531.2426147460938 1017.0533447265625 443.957763671875Q961.243896484375 356.67291259765625 860.8568115234375 333.80877685546875Q759.1813354492188 311.52783203125 671.896484375 367.3372802734375Q584.6116333007812 423.146728515625 562.6832885742188 523.8864135742188Q540.40234375 625.5618896484375 596.2117919921875 712.8467407226562Q651.08544921875 799.7789916992188 752.7609252929688 822.0599365234375Q854.0838012695312 845.2766723632812 941.36865234375 789.4672241210938Z" fill="#000000" />
<path d="M925.7754516601562 765.8015747070312Q848.2145385742188 815.6571044921875 757.1853637695312 796.3189697265625Q667.444580078125 776.3976440429688 617.941650390625 697.9009399414062Q568.0861206054688 620.3400268554688 588.0074462890625 530.5992431640625Q607.3455810546875 439.570068359375 685.84228515625 390.067138671875Q763.4031982421875 340.21160888671875 854.0797729492188 360.48553466796875Q943.820556640625 380.4068603515625 993.6760864257812 457.9677734375Q1043.1790161132812 536.4644775390625 1023.2576904296875 626.2052612304688Q1003.3363647460938 715.946044921875 925.7754516601562 765.8015747070312ZM906.3947143554688 734.98876953125Q970.94970703125 694.1251220703125 987.8062133789062 618.1906127929688Q1004.3101196289062 543.19189453125 962.5106811523438 478.2843017578125Q921.0638427734375 412.44091796875 846.0651245117188 395.93701171875Q770.130615234375 379.08050537109375 705.2230224609375 420.87994384765625Q640.3154296875 462.67938232421875 623.8115234375 537.6781005859375Q606.9550170898438 613.6126098632812 648.7544555664062 678.5202026367188Q690.5538940429688 743.4277954101562 765.5526123046875 759.9317016601562Q840.5513305664062 776.4356079101562 906.3947143554688 734.98876953125Z" fill="#000000" />
<path d="M584 328Q568 338 559 322L366 21Q331 -34 387 -70Q443 -105 478 -51L670 251Q680 266 665 276ZM580 287 629 255 447 -31Q432 -55 407 -39Q382 -23 397 1Z" fill="#000000" />
</g></svg>