<svg xmlns="http://www.w3.org/2000/svg" viewBox="0 0 2048 2048">
<g transform="matrix(1 0 0 -1 0 2048)">
<path d="M297 783Q101 605 106 371Q110 157 270 0Q381 -107 529 -144Q678 -181 825 -140Q826 -139 827 -139Q1157 -2 1199 296Q1237 562 1045 769Q905 921 712 936Q498 952 298 783Q297 783 297 783ZM321 755Q510 914 710 899Q887 886 1018 744Q1199 550 1163 301Q1123 25 814 -105Q677 -143 538 -108Q399 -73 296 26Q146 173 142 372Q138 589 321 755Z" fill="#000000" />
<path d="M297 783Q101 605 106 371Q110 157 270 0Q381 -107 529 -144Q678 -181 825 -140Q826 -139 827 -139Q1157 -2 1199 296Q1237 562 1045 769Q905 921 712 936Q498 952 298 783Q297 783 297 783ZM321 755Q510 914 710 899Q887 886 1018 744Q1199 550 1163 301Q1123 25 814 -105Q677 -143 538 -108Q399 -73 296 26Q146 173 142 372Q138 589 321 755Z" fill="#d0cfce" />
<path d="M660 843Q755 843 838.0 807.5Q921 772 984.0 709.0Q1047 646 1082.5 563.0Q1118 480 1118 385Q1118 290 1082.5 207.0Q1047 124 984.0 61.0Q921 -2 838.0 -37.5Q755 -73 660 -73Q565 -73 482.0 -37.5Q399 -2 336.0 61.0Q273 124 237.5 207.0Q202 290 202 385Q202 480 237.5 563.0Q273 646 336.0 709.0Q399 772 482.0 807.5Q565 843 660 843ZM660 110Q717 110 767.0 131.5Q817 153 854.5 190.5Q892 228 913.5 278.0Q935 328 935 385Q935 442 913.5 492.0Q892 542 854.5 579.5Q817 617 767.0 638.5Q717 660 660 660Q603 660 553.0 638.5Q503 617 465.5 579.5Q428 542 406.5 492.0Q385 442 385 385Q385 328 406.5 278.5Q428 229 465.5 191.0Q503 153 553.0 131.5Q603 110 660 110Z" fill="#ea5a47" />
<path d="M382 769 521 623Q454 587 419 519L275 662Q320 725 382 769Z" fill="#ffffff" />
<path d="M1046 662 902 518Q865 589 793 626L938 770Q1001 726 1046 662Z" fill="#ffffff" />
<path d="M937.0 0.0 798.0 146.0Q865.0 182.0 900.0 250.0L1044.0 107.0Q999.0 44.0 937.0 0.0Z" fill="#ffffff" />
<path d="M271.1878662109375 103.7269287109375 417.6400146484375 250.1790771484375Q455.27008056640625 177.97003173828125 528.4961547851562 140.3399658203125L381.0269775390625 -6.1121826171875Q316.95416259765625 38.6370849609375 271.1878662109375 103.7269287109375Z" fill="#ffffff" />
<path d="M902 251Q867 183 800 146L842 102Q788 67 726.5 55.0Q665 43 603.0 53.5Q541 64 486 97L530 141Q457 178 419 251L376 207Q342 261 331.5 322.5Q321 384 332.5 445.5Q344 507 378 560L420 519Q455 587 522 623L483 664Q537 698 598.0 709.5Q659 721 720.0 710.0Q781 699 835 666L795 626Q866 589 903 518L943 558Q976 504 987.5 443.5Q999 383 988.0 322.5Q977 262 944 208ZM387 385Q387 328 408.5 278.5Q430 229 467.5 191.0Q505 153 555.0 131.5Q605 110 662 110Q719 110 768.5 131.5Q818 153 856.0 190.5Q894 228 915.0 278.0Q936 328 936 385Q936 442 915.0 492.0Q894 542 856.0 579.5Q818 617 768.5 638.5Q719 660 662 660Q605 660 555.0 638.5Q505 617 467.5 579.5Q430 542 408.5 492.0Q387 442 387 385Z" fill="#d22f27" />
<path d="M523 626Q456 590 421 522L380 563Q420 627 484 667Z" fill="#d0cfce" />
<path d="M904 521Q868 592 796 629L836 669Q903 628 944 561Z" fill="#d0cfce" />
<path d="M946 211Q906 147 843 105L801 149Q869 186 903 254Z" fill="#d0cfce" />
<path d="M421 254Q458 181 531 144L488 101Q419 142 377 210Z" fill="#d0cfce" />
<path d="M266 116Q277 101 292 111Q307 121 297 137Q220 248 220 384Q220 519 295 631Q300 639 299 645Q298 651 290 656Q275 667 265 652Q183 530 183 383Q184 237 266 116Z" fill="#000000" />
<path d="M929 -9Q944 1 933 17Q923 32 908 21Q796 -55 661 -55Q526 -55 414 20Q399 30 389 15Q383 8 385 1Q386 -5 394 -10Q515 -92 661 -92Q808 -91 929 -9Z" fill="#000000" />
<path d="M1053 654Q1048 662 1042 663Q1035 664 1028 659Q1013 649 1023 634Q1100 522 1100 387Q1100 251 1025 139Q1015 124 1030 114Q1045 103 1055 119Q1137 240 1137 387Q1136 533 1053 654Z" fill="#000000" />
<path d="M391 778Q376 768 386 753Q391 745 397 744Q404 743 411 748Q523 825 658 825Q794 825 906 750Q921 740 931 755Q942 770 926 780Q805 862 658 862Q512 861 391 778Z" fill="#000000" />
<path d="M372 784Q306 738 260 673Q251 660 262 649L406 506Q419 493 432 506Q434 508 435 510Q467 573 529 607Q546 616 537 632Q536 634 534 636L396 782Q385 793 372 784ZM380 745 492 627Q445 596 415 549L299 664Q334 710 380 745Z" fill="#000000" />
<path d="M303 711 266 749Q280 769 300 783L336 744Z" fill="#000000" />
<path d="M323 732Q335 718 349 731Q362 744 349 757L313 795Q302 807 289 798Q266 782 251 759Q242 747 253 736L290 698Q297 692 303 692Q310 692 316 698Q329 711 316 724L290 750Q294 754 298 758Z" fill="#000000" />
<path d="M988.0 745.0 1026.0 782.0Q1046.0 768.0 1060.0 748.0L1021.0 712.0Z" fill="#000000" />
<path d="M1009 725Q995 712 1008 699Q1014 692 1021 692Q1027 692 1034 698L1073 735Q1084 746 1075 759Q1059 781 1037 797Q1024 806 1013 795L975 757Q969 751 969 744Q969 738 975 732Q988 719 1001 732L1027 758Q1031 754 1035 750Z" fill="#000000" />
<path d="M1022.8385009765625 58.22265625 1059.8201293945312 20.21832275390625Q1045.8165893554688 0.22625732421875 1025.8159790039062 -13.76507568359375L989.83447265625 25.23876953125Z" fill="#000000" />
<path d="M1003 37Q990 51 977 38Q964 26 976 12L1013 -26Q1024 -38 1037 -29Q1059 -13 1075 10Q1084 22 1073 33L1035 71Q1022 84 1009 71Q996 58 1009 45L1035 19Q1032 15 1028 11Z" fill="#000000" />
<path d="M329.22265625 21.1614990234375 291.21832275390625 -15.82012939453125Q271.22625732421875 -1.81658935546875 257.23492431640625 18.18402099609375L296.23876953125 54.16552734375Z" fill="#000000" />
<path d="M309 40Q322 53 309 66Q303 73 297 73Q290 73 284 67L245 31Q233 20 243 7Q258 -16 281 -32Q294 -41 304 -30L342 8Q355 21 342 34Q329 47 316 34L290 8Q286 12 282 16Z" fill="#000000" />
<path d="M1061 673Q1015 739 949 785Q936 794 925 783L780 639Q774 632 774 626Q774 619 780 613Q782 611 785 609Q851 575 885 509Q894 493 910 501Q913 503 915 505L1059 649Q1070 660 1061 673ZM1022 664 906 548Q874 598 823 630L940 746Q987 711 1022 664Z" fill="#000000" />
<path d="M948 -15Q1013 31 1059 97Q1068 109 1057 120L914 264Q907 270 901 270Q894 270 888 264Q886 262 884 259Q852 196 790 162Q782 158 780 152Q778 146 783 138Q784 135 785 134L924 -12Q935 -24 948 -15ZM939 25 828 142Q875 173 905 221L1020 106Q985 60 939 25Z" fill="#000000" />
<path d="M256 93Q304 26 371 -21Q383 -30 394 -19L541 128Q554 141 541 154Q539 156 537 157Q469 192 435 259Q430 267 424 269Q418 271 410 267Q407 266 405 264L258 117Q247 106 256 93ZM295 102 414 221Q447 169 498 137L379 18Q332 54 295 102Z" fill="#000000" />
<path d="M952.2908325195312 381.57818603515625Q952.3056030273438 502.482177734375 866.3843383789062 588.4244384765625Q780.4630737304688 674.36669921875 659.55908203125 674.3814697265625Q538.6550903320312 674.396240234375 452.71282958984375 588.4749755859375Q366.77056884765625 502.5537109375 366.75579833984375 381.64971923828125Q366.74102783203125 260.7457275390625 452.66229248046875 174.803466796875Q538.5835571289062 88.8612060546875 659.487548828125 88.846435546875Q780.3915405273438 88.8316650390625 866.3338012695312 174.7529296875Q952.2760620117188 260.6741943359375 952.2908325195312 381.57818603515625ZM916.3193969726562 381.58258056640625Q916.3064575195312 275.66668701171875 840.3576049804688 200.7354736328125Q765.4078369140625 124.804931640625 659.491943359375 124.81787109375Q553.5760498046875 124.830810546875 478.64483642578125 200.7796630859375Q402.71429443359375 275.72943115234375 402.72723388671875 381.64532470703125Q402.74017333984375 487.56121826171875 478.68902587890625 562.492431640625Q553.6387939453125 638.4229736328125 659.5546875 638.4100341796875Q765.4705810546875 638.3970947265625 840.4017944335938 562.4482421875Q916.3323364257812 487.49847412109375 916.3193969726562 381.58258056640625Z" fill="#000000" />
</g></svg>