<svg xmlns="http://www.w3.org/2000/svg" viewBox="0 0 2048 2048">
<g transform="matrix(1 0 0 -1 0 2048)">
<path d="M599 640Q632 654 680.5 668.0Q729 682 782.5 697.5Q836 713 885 730Q998 772 1049.0 798.5Q1100 825 1100 825Q1100 825 1094.5 799.5Q1089 774 1079.5 732.0Q1070 690 1057.5 639.5Q1045 589 1031.0 537.5Q1017 486 1003.0 442.0Q989 398 976 370Q958 331 920.5 286.5Q883 242 834.0 200.0Q785 158 732.0 123.5Q679 89 631 70Q604 60 561.5 48.0Q519 36 458 24Q413 16 370.5 2.5Q328 -11 294.0 -24.0Q260 -37 240.0 -46.0Q220 -55 220 -55Q220 -55 224.0 -32.0Q228 -9 234.5 28.5Q241 66 250.0 111.0Q259 156 269.5 202.0Q280 248 290.5 286.5Q301 325 312 348Q339 410 378.0 459.5Q417 509 459.0 546.0Q501 583 538.0 606.5Q575 630 599 640Z" fill="#f4aa41" />
<path d="M1085 816Q1092 821 1096.0 823.0Q1100 825 1100 825Q1100 825 1094.5 799.5Q1089 774 1079.5 732.0Q1070 690 1057.5 639.5Q1045 589 1031.0 537.5Q1017 486 1003.0 442.0Q989 398 976 370Q961 336 930.5 298.5Q900 261 860.0 223.5Q820 186 776 154Q777 173 771 191Q757 227 773.0 261.5Q789 296 825 309Q860 322 876.0 356.5Q892 391 878 427Q865 462 881.0 496.5Q897 531 932 545Q968 558 984.0 592.5Q1000 627 986 663Q973 698 989.0 732.5Q1005 767 1040 780Q1068 791 1085 816Z" fill="#e27022" />
<path d="M592 657Q523 628 447 560Q345 469 295 356Q252 259 202 -52Q199 -70 217 -73Q223 -74 228 -72Q344 -16 462 6Q571 27 638 53Q738 92 846 186Q956 281 993 362Q1045 477 1118 821Q1120 830 1116 836Q1113 841 1104 843Q1097 844 1090 841Q1028 802 878 748Q832 731 731 702Q627 672 592 657ZM606 623Q639 637 741 666Q844 696 891 713Q1008 756 1074 789Q1007 482 960 377Q926 304 822 214Q718 124 624 87Q561 62 455 42Q348 22 244 -24Q290 254 328 341Q375 447 471 533Q543 597 606 623Z" fill="#000000" />
<path d="M917 660Q898 660 898 642Q898 623 917 623Q935 623 935 605Q935 587 953 587Q972 587 972 605Q972 660 917 660Z" fill="#000000" />
<path d="M752 623Q733 623 733 605Q733 586 752 586Q770 586 770 568Q770 550 788 550Q807 550 807 568Q807 623 752 623Z" fill="#000000" />
<path d="M789 458Q770 458 770 440Q770 421 789 421Q807 421 807 403Q807 385 825 385Q844 385 844 403Q844 458 789 458Z" fill="#000000" />
<path d="M587 532Q568 532 568 514Q568 495 587 495Q605 495 605 477Q605 459 623 459Q642 459 642 477Q642 532 587 532Z" fill="#000000" />
<path d="M642 312Q623 312 623 294Q623 275 642 275Q660 275 660 257Q660 239 678 239Q697 239 697 257Q697 312 642 312Z" fill="#000000" />
<path d="M459 385Q440 385 440 367Q440 348 459 348Q477 348 477 330Q477 312 495 312Q514 312 514 330Q514 385 459 385Z" fill="#000000" />
</g></svg>