<svg xmlns="http://www.w3.org/2000/svg" viewBox="0 0 2048 2048">
<g transform="matrix(1 0 0 -1 0 2048)">
<path d="M926.8619384765625 609.1773071289062Q926.8619384765625 617.12646484375 923.8467407226562 624.1162414550781Q920.83154296875 631.1060180664062 915.5321044921875 636.4054565429688Q910.232666015625 641.7048950195312 903.2428894042969 644.7200927734375Q896.2531127929688 647.7352905273438 888.303955078125 647.7352905273438Q880.3547973632812 647.7352905273438 873.3650207519531 644.7200927734375Q866.375244140625 641.7048950195312 861.0758056640625 636.4054565429688Q855.7763671875 631.1060180664062 852.7611694335938 624.1162414550781Q849.7459716796875 617.12646484375 849.7459716796875 609.1773071289062Q849.7459716796875 601.2281494140625 852.7611694335938 594.2383728027344Q855.7763671875 587.2485961914062 861.0758056640625 581.9491577148438Q866.375244140625 576.6497192382812 873.3650207519531 573.634521484375Q880.3547973632812 570.6193237304688 888.303955078125 570.6193237304688Q896.2531127929688 570.6193237304688 903.2428894042969 573.634521484375Q910.232666015625 576.6497192382812 915.5321044921875 581.9491577148438Q920.83154296875 587.2485961914062 923.8467407226562 594.2383728027344Q926.8619384765625 601.2281494140625 926.8619384765625 609.1773071289062Z" fill="#ffffff" />
<path d="M296 163Q339 206 396.0 225.5Q453 245 510 236Q519 179 499.5 122.0Q480 65 437 22Q393 -22 336.5 -41.5Q280 -61 223 -51Q213 5 232.5 62.0Q252 119 296 163Z" fill="#fcea2b" />
<path d="M586 205Q699 210 803 265Q787 192 753 125Q717 56 664 0Q646 -19 626 -37Q600 60 540 142Q552 149 561 158Q581 177 586 205Z" fill="#61b2e4" />
<path d="M274 390Q330 443 399 479Q466 513 539 529Q539 529 539 529Q484 425 478 312Q451 307 432 287Q423 278 416 266Q334 326 237 352Q255 372 274 390Z" fill="#92d3f5" />
<path d="M638 665Q712 738 805.0 779.5Q898 821 996 825Q1046 827 1093 820Q1107 739 1093.0 657.5Q1079 576 1039.5 501.0Q1000 426 939 364Q867 292 775.0 250.5Q683 209 586 204Q596 252 561 287Q527 322 478 312Q483 409 524.5 500.5Q566 592 638 665ZM826 674Q801 649 801.0 613.0Q801 577 826 552Q852 527 887.5 527.0Q923 527 949 552Q949 552 949.0 552.0Q949 552 949 552Q974 577 974.0 613.0Q974 649 949 674Q949 674 949.0 674.0Q949 674 949 674Q923 700 887.5 700.0Q852 700 826 674Z" fill="#ea5a47" />
<path d="M487 91Q468 52 437 22Q393 -22 336.5 -41.5Q280 -61 223 -51Q218 -19 222 14Q273 -3 328.0 5.0Q383 13 431 44Q462 64 487 91Z" fill="#f1b31c" />
<path d="M480 336Q589 299 708.5 314.0Q828 329 932 394Q975 421 1012 455Q980 406 939 364Q867 292 775.0 250.5Q683 209 586 204Q596 252 561 287Q527 321 479 312Q479 324 480 336Z" fill="#d22f27" />
<path d="M441 155Q436 177 455.0 211.5Q474 246 506.5 283.0Q539 320 576.0 352.0Q613 384 646.0 402.5Q679 421 698 417Q698 413 696 410Q661 341 609 283Q555 224 487 181Q464 167 441 155Z" fill="#61b2e4" />
<path d="M886.94384765625 504.06103515625Q932.4833984375 504.06103515625 964.1630859375 536.2357177734375Q995.8427734375 568.410400390625 995.8427734375 612.9599609375Q995.8427734375 658.49951171875 964.1630859375 690.17919921875Q932.4833984375 721.85888671875 886.94384765625 721.85888671875Q842.394287109375 721.85888671875 810.2196044921875 690.17919921875Q778.044921875 658.49951171875 778.044921875 612.9599609375Q778.044921875 568.410400390625 810.2196044921875 536.2357177734375Q842.394287109375 504.06103515625 886.94384765625 504.06103515625ZM886.94384765625 686.21923828125Q916.6435546875 686.21923828125 937.9283447265625 664.9344482421875Q959.213134765625 643.649658203125 959.213134765625 612.9599609375Q959.213134765625 583.26025390625 937.9283447265625 561.9754638671875Q916.6435546875 540.690673828125 886.94384765625 540.690673828125Q857.244140625 540.690673828125 835.9593505859375 561.9754638671875Q814.674560546875 583.26025390625 814.674560546875 612.9599609375Q814.674560546875 643.649658203125 835.9593505859375 664.9344482421875Q857.244140625 686.21923828125 886.94384765625 686.21923828125Z" fill="#000000" />
<path d="M386 202Q394 206 396 212Q399 218 395 226Q388 242 372 235Q322 214 283 176Q184 76 205 -54Q207 -67 220 -69Q350 -90 450 9Q488 48 509 98Q516 114 500 121Q483 128 476 112Q458 68 424 34Q343 -47 239 -35Q227 69 308 150Q342 184 386 202Z" fill="#000000" />
<path d="M261 403Q242 384 224 364Q218 357 219 351Q219 345 226 339Q229 336 233 335Q326 310 406 252Q420 242 431 256Q432 257 432 258Q437 267 445 275Q460 290 482 295Q496 297 496 311Q502 420 555 520Q555 521 555 521Q563 537 547 545Q541 548 535 546Q460 530 391 494Q319 457 261 403ZM286 377Q340 428 407 463Q455 487 506 502Q468 417 461 326Q438 318 419 300Q415 296 412 292Q345 337 270 361Q278 369 286 377Z" fill="#000000" />
<path d="M568 207Q564 186 549 170Q541 163 532 158Q516 149 524 134Q525 133 526 132Q584 52 609 -41Q614 -58 631 -54Q635 -53 638 -50Q658 -32 677 -13Q731 45 769 117Q804 186 820 261Q824 279 807 282Q800 284 795 281Q697 229 591 223Q582 226 574 217Q569 213 568 207ZM600 188Q691 194 776 232Q762 181 737 133Q702 66 651 12Q643 4 635 -4Q611 71 565 138Q570 141 574 145Q592 164 600 188Z" fill="#000000" />
<path d="M601 256Q595 273 578 267Q570 265 567 259Q564 254 566 245Q571 229 568 206Q566 189 584 186Q585 186 587 186Q796 197 951 352Q1155 556 1111 823Q1109 835 1096 837Q830 881 626 677Q471 522 461 313Q460 295 478 294Q480 294 482 295Q503 299 523 291Q531 288 537 290Q543 293 546 301Q552 318 536 324Q517 332 498 332Q514 514 651 652Q837 838 1078 804Q1112 563 926 377Q788 239 605 223Q605 241 601 256Z" fill="#000000" />
<path d="M685 401Q698 403 698 418Q698 436 680 436Q675 436 672 434Q603 399 545 347Q485 293 443 226Q429 203 417 179Q413 171 415 165Q417 159 425 155Q433 151 439 153Q445 155 449 163Q460 185 473 207Q513 270 569 321Q622 368 685 401Z" fill="#000000" />
</g></svg>