<svg xmlns="http://www.w3.org/2000/svg" viewBox="0 0 2048 2048">
<g transform="matrix(1 0 0 -1 0 2048)">
<path d="M650 862Q702 862 745.0 822.0Q788 782 814.0 715.0Q840 648 841 566Q923 565 990.0 539.0Q1057 513 1097.0 470.0Q1137 427 1137 375Q1137 323 1097.0 280.5Q1057 238 990.0 212.0Q923 186 840 184Q836 106 810.0 43.0Q784 -20 742.0 -57.0Q700 -94 650 -94Q600 -94 558.5 -57.0Q517 -20 490.5 43.5Q464 107 460 185Q382 189 318.5 215.5Q255 242 218.0 283.5Q181 325 181 375Q181 425 218.0 467.0Q255 509 318.0 535.0Q381 561 459 565Q461 648 487.0 715.0Q513 782 555.5 822.0Q598 862 650 862Z" fill="#d22f27" />
<path d="M650 880Q562 880 501 785Q447 700 442 583Q330 573 251 520Q163 460 163 375Q163 291 252 230Q331 177 443 168Q452 56 505 -23Q566 -112 650 -112Q735 -112 795 -24Q848 55 858 167Q975 172 1060 226Q1155 287 1155 375Q1155 463 1060 524Q976 578 859 584Q853 701 799 785Q738 880 650 880ZM650 843Q718 843 768 765Q821 684 823 566V548H841Q959 546 1040 493Q1118 443 1118 375Q1118 307 1040 257Q958 205 840 203L823 202L822 185Q816 73 765 -3Q715 -76 650 -76Q585 -76 536 -3Q484 73 478 186L477 202L461 203Q348 209 272 261Q199 310 199 375Q199 440 272 490Q348 541 460 547L477 548L478 565Q480 683 532 765Q582 843 650 843Z" fill="#d22f27" />
<path d="M975.23193359375 711.664794921875Q1009.734619140625 677.162109375 1011.7251586914062 622.0905151367188Q1013.7156982421875 567.0189208984375 986.5116577148438 505.31219482421875Q959.3076171875 443.60546875 905.5630493164062 388.53387451171875Q959.3076171875 333.4622802734375 986.5116577148438 271.75555419921875Q1013.7156982421875 210.048828125 1011.7251586914062 154.97723388671875Q1009.734619140625 99.9056396484375 975.23193359375 65.4029541015625Q940.729248046875 30.9002685546875 885.9894104003906 29.241485595703125Q831.2495727539062 27.58270263671875 769.5428466796875 54.7867431640625Q707.8361206054688 81.99078369140625 651.4375 135.7353515625Q597.0294189453125 86.6353759765625 537.9767456054688 62.08538818359375Q478.924072265625 37.535400390625 426.50653076171875 40.85296630859375Q374.0889892578125 44.1705322265625 340.913330078125 77.34619140625Q307.7376708984375 110.5218505859375 304.7518615722656 162.60763549804688Q301.76605224609375 214.69342041015625 326.3160400390625 274.40960693359375Q350.86602783203125 334.12579345703125 399.96600341796875 388.53387451171875Q350.86602783203125 442.94195556640625 326.3160400390625 502.65814208984375Q301.76605224609375 562.3743286132812 304.7518615722656 614.4601135253906Q307.7376708984375 666.5458984375 340.913330078125 699.7215576171875Q374.0889892578125 732.897216796875 426.50653076171875 736.2147827148438Q478.924072265625 739.5323486328125 537.9767456054688 714.9823608398438Q597.0294189453125 690.432373046875 651.4375 641.3323974609375Q707.8361206054688 695.0769653320312 769.5428466796875 722.281005859375Q831.2495727539062 749.4850463867188 885.9894104003906 747.8262634277344Q940.729248046875 746.16748046875 975.23193359375 711.664794921875Z" fill="#ea5a47" />
<path d="M799.253173828125 389.383056640625Q799.253173828125 419.490234375 787.820068359375 446.16748046875Q776.386962890625 472.8447265625 756.1884765625 493.043212890625Q735.989990234375 513.24169921875 709.5032958984375 524.6748046875Q683.0166015625 536.10791015625 652.5283203125 536.10791015625Q622.0400390625 536.10791015625 595.5533447265625 524.6748046875Q569.066650390625 513.24169921875 548.8681640625 493.043212890625Q528.669677734375 472.8447265625 517.236572265625 446.16748046875Q505.803466796875 419.490234375 505.803466796875 389.383056640625Q505.803466796875 358.894775390625 517.236572265625 332.217529296875Q528.669677734375 305.540283203125 548.8681640625 285.341796875Q569.066650390625 265.143310546875 595.5533447265625 253.9007568359375Q622.0400390625 242.658203125 652.5283203125 242.658203125Q683.0166015625 242.658203125 709.5032958984375 253.9007568359375Q735.989990234375 265.143310546875 756.1884765625 285.341796875Q776.386962890625 305.540283203125 787.820068359375 332.217529296875Q799.253173828125 358.894775390625 799.253173828125 389.383056640625Z" fill="#f4aa41" />
<path d="M818 389Q818 457 769 506Q721 554 653 554Q584 554 536 506Q487 457 487 389Q487 321 536 272Q584 224 653 224Q721 224 769 272Q818 321 818 389ZM781 389Q781 336 743 298Q706 261 653 261Q599 261 562 298Q524 336 524 389Q524 442 562 480Q599 517 653 517Q706 517 743 480Q781 442 781 389Z" fill="#f4aa41" />
<path d="M734.195068359375 388.639404296875Q734.195068359375 405.361328125 727.844970703125 420.17822265625Q721.494873046875 434.9951171875 710.2763671875 446.213623046875Q699.057861328125 457.43212890625 684.3468017578125 463.7822265625Q669.6357421875 470.13232421875 652.7021484375 470.13232421875Q635.7685546875 470.13232421875 621.0574951171875 463.7822265625Q606.346435546875 457.43212890625 595.1279296875 446.213623046875Q583.909423828125 434.9951171875 577.559326171875 420.17822265625Q571.209228515625 405.361328125 571.209228515625 388.639404296875Q571.209228515625 371.705810546875 577.559326171875 356.888916015625Q583.909423828125 342.072021484375 595.1279296875 330.853515625Q606.346435546875 319.635009765625 621.0574951171875 313.3907470703125Q635.7685546875 307.146484375 652.7021484375 307.146484375Q669.6357421875 307.146484375 684.3468017578125 313.3907470703125Q699.057861328125 319.635009765625 710.2763671875 330.853515625Q721.494873046875 342.072021484375 727.844970703125 356.888916015625Q734.195068359375 371.705810546875 734.195068359375 388.639404296875Z" fill="#fcea2b" />
<path d="M752 389Q752 430 723 460Q694 489 653 489Q611 489 582 460Q553 430 553 389Q553 348 582 318Q611 289 653 289Q694 289 723 318Q752 348 752 389ZM716 389Q716 326 653 326Q626 326 608 344Q589 363 589 389Q589 415 608 434Q626 452 653 452Q679 452 697 434Q716 415 716 389Z" fill="#fcea2b" />
<path d="M988 725Q930 783 825 761Q733 741 652 667Q572 734 484 751Q385 770 328 713Q272 657 291 557Q308 469 376 389Q308 309 291 221Q272 121 328 65Q385 8 484 27Q572 44 652 111Q733 37 825 17Q930 -5 988 53Q1047 112 1024 216Q1004 308 931 389Q1004 470 1024 562Q1047 666 988 725ZM962 699Q1007 654 989 570Q969 481 893 402Q880 389 893 376Q969 297 989 208Q1007 124 962 79Q918 35 833 53Q744 72 665 149Q653 161 640 150Q562 79 477 63Q397 48 354 91Q311 134 327 214Q343 299 414 377Q425 389 414 401Q343 480 327 564Q311 645 354 687Q397 730 477 715Q562 699 640 628Q653 617 665 629Q744 706 833 725Q918 743 962 699Z" fill="#000000" />
<path d="M1063 273Q1048 263 1058 248Q1069 233 1084 244Q1151 292 1155 374Q1155 375 1155 375Q1155 455 1075 514Q1068 519 1061 518Q1055 517 1050 510Q1039 495 1053 484Q1118 436 1118 376Q1115 311 1063 273Z" fill="#000000" />
<path d="M536 -3Q531 5 524 6Q518 7 510 2Q495 -8 505 -23Q566 -112 650 -112Q651 -112 651 -112Q733 -108 781 -42Q792 -27 777 -16Q762 -5 752 -20Q714 -72 650 -76Q585 -75 536 -3Z" fill="#000000" />
<path d="M252 474Q259 480 260 486Q261 492 255 500Q244 514 230 503Q166 455 163 376Q163 375 163 375Q165 306 216 260Q229 247 242 261Q248 268 248 274Q247 280 240 287Q201 322 199 375Q202 437 252 474Z" fill="#000000" />
<path d="M757 781Q762 774 769 773Q775 772 783 778Q797 789 786 804Q728 880 650 880Q650 880 649 880Q567 876 519 809Q508 795 523 784Q531 778 537 779Q543 781 549 788Q586 840 651 843Q710 843 757 781Z" fill="#000000" />
<path d="M818 389Q818 457 769 506Q721 554 653 554Q584 554 536 506Q487 457 487 389Q487 321 536 272Q584 224 653 224Q721 224 769 272Q818 321 818 389ZM781 389Q781 336 743 298Q706 261 653 261Q599 261 562 298Q524 336 524 389Q524 442 562 480Q599 517 653 517Q706 517 743 480Q781 442 781 389Z" fill="#000000" />
<path d="M752 389Q752 430 723 460Q694 489 653 489Q611 489 582 460Q553 430 553 389Q553 348 582 318Q611 289 653 289Q694 289 723 318Q752 348 752 389ZM716 389Q716 326 653 326Q626 326 608 344Q589 363 589 389Q589 415 608 434Q626 452 653 452Q679 452 697 434Q716 415 716 389Z" fill="#000000" />
</g></svg>