<svg xmlns="http://www.w3.org/2000/svg" viewBox="0 0 2048 2048">
<g transform="matrix(1 0 0 -1 0 2048)">
<path d="M1172.8749389648438 385.05731201171875Q1172.8749389648438 491.0567626953125 1132.9939575195312 584.4622192382812Q1093.1129760742188 677.86767578125 1022.7965087890625 748.1841430664062Q952.4800415039062 818.5006103515625 859.0745849609375 858.381591796875Q765.6691284179688 898.2625732421875 659.669677734375 898.2625732421875Q553.6702270507812 898.2625732421875 460.2647705078125 858.381591796875Q366.85931396484375 818.5006103515625 296.5428466796875 748.1841430664062Q226.22637939453125 677.86767578125 186.34539794921875 584.4622192382812Q146.46441650390625 491.0567626953125 146.46441650390625 385.05731201171875Q146.46441650390625 279.057861328125 186.34539794921875 185.65240478515625Q226.22637939453125 92.2469482421875 296.5428466796875 21.93048095703125Q366.85931396484375 -48.385986328125 460.2647705078125 -88.2669677734375Q553.6702270507812 -128.14794921875 659.669677734375 -128.14794921875Q765.6691284179688 -128.14794921875 859.0745849609375 -88.2669677734375Q952.4800415039062 -48.385986328125 1022.7965087890625 21.93048095703125Q1093.1129760742188 92.2469482421875 1132.9939575195312 185.65240478515625Q1172.8749389648438 279.057861328125 1172.8749389648438 385.05731201171875Z" fill="#ea5a47" />
<path d="M1192 385Q1192 605 1036 761Q880 917 660 917Q440 917 284 761Q128 605 128 385Q128 165 284 9Q440 -147 660 -147Q880 -147 1036 9Q1192 165 1192 385ZM1155 385Q1155 180 1010 35Q865 -110 660 -110Q455 -110 310 35Q165 180 165 385Q165 590 310 735Q455 880 660 880Q865 880 1010 735Q1155 590 1155 385Z" fill="#000000" />
<path d="M587 202Q587 183 605 183H715Q733 183 733 202V568Q733 587 715 587H605Q587 587 587 568ZM623 550H697V220H623Z" fill="#000000" />
<path d="M513 678Q495 678 495 660Q495 642 513 642H605Q623 642 623 660V788H697V660Q697 642 715 642H807Q825 642 825 660Q825 678 807 678H733V807Q733 825 715 825H605Q587 825 587 807V678Z" fill="#000000" />
<path d="M513 128Q495 128 495 110Q495 92 513 92H587V-37Q587 -55 605 -55H715Q733 -55 733 -37V92H807Q825 92 825 110Q825 128 807 128H715Q697 128 697 110V-18H623V110Q623 128 605 128Z" fill="#000000" />
<path d="M807 403Q788 403 788 385Q788 367 807 367H1082Q1100 367 1100 385Q1100 403 1082 403Z" fill="#000000" />
<path d="M513.0 367.0Q532.0 367.0 532.0 385.0Q532.0 403.0 513.0 403.0H238.0Q220.0 403.0 220.0 385.0Q220.0 367.0 238.0 367.0Z" fill="#000000" />
<path d="M532 779Q532 798 513 798Q495 798 495 779V18Q321 92 271 275H403V204Q397 212 391 221Q386 229 380 230Q373 231 366 226Q350 216 361 201Q382 169 409 143Q414 137 422 137Q440 137 440 156V293Q440 312 422 312H248Q245 312 243 311Q226 307 230 289Q283 56 507 -26Q510 -27 513 -27Q532 -27 532 -9Z" fill="#000000" />
<path d="M520 762Q537 768 531 785Q524 803 507 796Q283 714 230 481Q226 463 243 459Q245 458 248 458H422Q440 458 440 477V614Q440 633 422 633Q414 633 409 627Q382 601 361 569Q350 554 366 544Q381 534 391 549Q397 558 403 566V495H271Q325 690 520 762Z" fill="#000000" />
<path d="M825 779Q825 798 807 798Q788 798 788 779V-9Q788 -27 807 -27Q810 -27 813 -26Q1037 56 1090 289Q1094 307 1077 311Q1075 312 1073 312H898Q880 312 880 293V156Q880 137 898 137Q906 137 911 143Q938 169 959 201Q970 216 954 226Q939 236 929 221Q923 212 917 204V275H1049Q999 92 825 18Z" fill="#000000" />
<path d="M813 796Q796 803 789 785Q783 768 800 762Q995 690 1049 495H917V566Q923 558 929 549Q939 534 954 544Q962 549 963 555Q965 562 959 569Q938 601 911 627Q906 633 898 633Q880 633 880 614V477Q880 458 898 458H1073Q1075 458 1077 459Q1085 461 1089 466Q1092 472 1090 481Q1037 714 813 796Z" fill="#000000" />
</g></svg>