<svg xmlns="http://www.w3.org/2000/svg" viewBox="0 0 2048 2048">
<g transform="matrix(1 0 0 -1 0 2048)">
<path d="M1172.8749389648438 385.05731201171875Q1172.8749389648438 491.0567626953125 1132.9939575195312 584.4622192382812Q1093.1129760742188 677.86767578125 1022.7965087890625 748.1841430664062Q952.4800415039062 818.5006103515625 859.0745849609375 858.381591796875Q765.6691284179688 898.2625732421875 659.669677734375 898.2625732421875Q553.6702270507812 898.2625732421875 460.2647705078125 858.381591796875Q366.85931396484375 818.5006103515625 296.5428466796875 748.1841430664062Q226.22637939453125 677.86767578125 186.34539794921875 584.4622192382812Q146.46441650390625 491.0567626953125 146.46441650390625 385.05731201171875Q146.46441650390625 279.057861328125 186.34539794921875 185.65240478515625Q226.22637939453125 92.2469482421875 296.5428466796875 21.93048095703125Q366.85931396484375 -48.385986328125 460.2647705078125 -88.2669677734375Q553.6702270507812 -128.14794921875 659.669677734375 -128.14794921875Q765.6691284179688 -128.14794921875 859.0745849609375 -88.2669677734375Q952.4800415039062 -48.385986328125 1022.7965087890625 21.93048095703125Q1093.1129760742188 92.2469482421875 1132.9939575195312 185.65240478515625Q1172.8749389648438 279.057861328125 1172.8749389648438 385.05731201171875Z" fill="#ea5a47" />
<path d="M1192 385Q1192 605 1036 761Q880 917 660 917Q440 917 284 761Q128 605 128 385Q128 165 284 9Q440 -147 660 -147Q880 -147 1036 9Q1192 165 1192 385ZM1155 385Q1155 180 1010 35Q865 -110 660 -110Q455 -110 310 35Q165 180 165 385Q165 590 310 735Q455 880 660 880Q865 880 1010 735Q1155 590 1155 385Z" fill="#000000" />
<path d="M715 367H1078Q1096 367 1096 385Q1096 385 1096 386Q1094 444 1077 500Q1073 513 1060 513H715Q697 513 697 495V385Q697 367 715 367ZM733 403V477H1046Q1056 441 1059 403Z" fill="#000000" />
<path d="M605 367Q623 367 623 385V495Q623 513 605 513H260Q247 513 243 500Q226 444 224 386Q224 385 224 385Q224 367 242 367ZM587 403H261Q264 441 274 477H587Z" fill="#000000" />
<path d="M303 623Q284 623 284 605Q284 587 303 587H1018Q1036 587 1036 605Q1036 623 1018 623H770V697H917Q935 697 935 715Q935 733 917 733H770V798Q770 816 752 816Q733 816 733 798V733H587V798Q587 816 568 816Q550 816 550 798V733H403Q385 733 385 715Q385 697 403 697H550V623ZM587 697H733V623H587Z" fill="#000000" />
<path d="M257 293Q238 293 238 275Q238 257 257 257H495V165Q495 147 513 147Q532 147 532 165V257H788V165Q788 147 807 147Q825 147 825 165V257H1063Q1082 257 1082 275Q1082 293 1063 293H825V385Q825 403 807 403Q788 403 788 385V293H532V385Q532 403 513 403Q495 403 495 385V293Z" fill="#000000" />
<path d="M605 183H303Q284 183 284 165Q284 160 287 155Q396 -23 603 -51Q612 -52 617 -48Q622 -45 623 -35Q623 -34 623 -33V165Q623 183 605 183ZM587 147V-12Q429 17 337 147Z" fill="#000000" />
<path d="M715 183Q697 183 697 165V-33Q697 -34 697 -35Q698 -45 703 -48Q708 -52 717 -51Q924 -23 1033 155Q1036 160 1036 165Q1036 183 1018 183ZM733 147H983Q891 17 733 -12Z" fill="#000000" />
</g></svg>