<svg xmlns="http://www.w3.org/2000/svg" viewBox="0 0 2048 2048">
<g transform="matrix(1 0 0 -1 0 2048)">
<path d="M445 598Q412 564 369.0 551.5Q326 539 282.0 548.0Q238 557 203 586Q197 591 196.5 599.5Q196 608 202 613L433 845Q439 851 447.5 850.5Q456 850 461 843Q489 807 496.5 762.5Q504 718 491.0 674.5Q478 631 445 598Z" fill="#d0cfce" />
<path d="M288 -197Q294 -202 301.5 -202.0Q309 -202 314 -197L591 80Q596 86 596.0 93.5Q596 101 591 106L384 314Q378 319 370.5 319.0Q363 319 358 314L81 37Q76 31 76.0 23.5Q76 16 81 11Z" fill="#3f3f3f" />
<path d="M939 454Q945 449 952.5 449.0Q960 449 965 454L1242 731Q1247 737 1247.0 744.5Q1247 752 1242 757L1035 965Q1029 970 1021.5 970.0Q1014 970 1009 965L732 688Q727 682 727.0 674.5Q727 667 732 662Z" fill="#3f3f3f" />
<path d="M952 326Q957 332 957.0 339.5Q957 347 952 352L693 612Q687 617 679.5 617.0Q672 617 667 612L433 378Q428 373 428.0 365.5Q428 358 433 352L693 93Q698 88 705.5 88.0Q713 88 719 93Z" fill="#d0cfce" />
<path d="M667 612Q672 617 672.0 624.5Q672 632 667 638L589 715Q584 721 576.0 721.0Q568 721 563 715L330 482Q324 477 324.0 469.0Q324 461 330 456L407 378Q413 373 420.5 373.0Q428 373 433 378Z" fill="#9b9b9a" />
<path d="M978 223Q983 228 983.0 235.5Q983 243 978 249L939 288Q934 293 926.0 293.0Q918 293 913 288L757 132Q752 127 752.0 119.0Q752 111 757 106L796 67Q802 62 809.5 62.0Q817 62 822 67Z" fill="#9b9b9a" />
<path d="M251.8818359375 845.2548828125Q246.529296875 850.607421875 239.79248046875 853.28369140625Q233.0556640625 855.9599609375 225.9189453125 855.9599609375Q218.7822265625 855.9599609375 212.04541015625 853.28369140625Q205.30859375 850.607421875 199.9560546875 845.2548828125Q194.603515625 839.90234375 191.92724609375 833.16552734375Q189.2509765625 826.4287109375 189.2509765625 819.2919921875Q189.2509765625 812.1552734375 191.92724609375 805.41845703125Q194.603515625 798.681640625 199.9560546875 793.3291015625Q205.30859375 787.9765625 212.04541015625 785.30029296875Q218.7822265625 782.6240234375 225.9189453125 782.6240234375Q233.0556640625 782.6240234375 239.79248046875 785.30029296875Q246.529296875 787.9765625 251.8818359375 793.3291015625Q257.234375 798.681640625 259.91064453125 805.41845703125Q262.5869140625 812.1552734375 262.5869140625 819.2919921875Q262.5869140625 826.4287109375 259.91064453125 833.16552734375Q257.234375 839.90234375 251.8818359375 845.2548828125Z" fill="#3f3f3f" />
<path d="M847.0381469726562 546.1127319335938 821.0227661132812 572.1281127929688 776.4302368164062 527.5355834960938 802.4456176757812 501.52020263671875Z" fill="#000000" />
<path d="M543 242 517 268 473 224 464 215 490 189 499 198Z" fill="#000000" />
<path d="M238.8009033203125 788.7659912109375H201.9986572265625V641.975341796875H238.8009033203125Z" fill="#000000" />
<path d="M421.35699462890625 806.1990966796875V843.0013427734375H256.2071533203125V806.1990966796875Z" fill="#000000" />
<path d="M458 585Q513 639 517 717Q522 794 476 854Q466 868 449 869Q432 870 420 858L189 626Q177 615 178 598Q179 582 191 572Q250 523 326 526Q403 530 458 585ZM432 611Q387 566 325 563Q263 560 215 600Q215 600 215 600L446 832Q446 832 446 832Q447 832 447 832Q485 782 481 719Q477 655 432 611Z" fill="#000000" />
<path d="M275 -210Q286 -220 301 -220Q316 -220 327 -210L604 67Q630 93 604 119L397 326Q371 352 345 326L68 50Q57 39 57 24Q57 9 68 -2ZM301 -184 94 24 371 301 578 93Z" fill="#000000" />
<path d="M926 441Q937 430 952 430Q967 430 978 441L1255 718Q1265 729 1265 744Q1265 759 1255 770L1047 977Q1036 988 1021 988Q1006 988 995 977L719 700Q693 674 719 648ZM952 467 744 674 1021 951 1229 744Z" fill="#000000" />
<path d="M965 313Q991 339 965 365L706 625Q680 651 654 625L420 391Q394 365 420 339L680 80Q706 54 732 80ZM939 339 706 106 446 365 680 599Z" fill="#000000" />
<path d="M680 599Q690 609 690 625Q690 640 680 651L602 728Q591 739 576 739Q561 739 550 728L317 495Q306 484 306 469Q306 454 317 443L394 365Q405 355 420 355Q436 355 446 365ZM654 625 420 391 343 469 576 702Z" fill="#000000" />
<path d="M991 210Q1017 236 991 262L952 301Q941 311 926 311Q911 311 900 301L744 145Q734 134 734 119Q734 104 744 93L783 54Q809 28 835 54ZM965 236 809 80 770 119 926 275Z" fill="#000000" />
<path d="M264.34991455078125 858.7994995117188Q225.466552734375 897.682861328125 186.58319091796875 858.7994995117188Q147.6998291015625 819.9161376953125 186.58319091796875 781.0327758789062Q225.466552734375 742.1494140625 264.34991455078125 781.0327758789062Q303.2332763671875 819.9161376953125 264.34991455078125 858.7994995117188ZM238.1920166015625 832.6416015625Q251.62445068359375 819.2091674804688 238.89898681640625 806.4837036132812Q225.466552734375 793.05126953125 212.03411865234375 806.4837036132812Q199.30865478515625 819.2091674804688 212.7410888671875 832.6416015625Q225.466552734375 845.3670654296875 238.1920166015625 832.6416015625Z" fill="#000000" />
</g></svg>