<svg xmlns="http://www.w3.org/2000/svg" viewBox="0 0 2048 2048">
<g transform="matrix(1 0 0 -1 0 2048)">
<path d="M262 467Q261 472 260.5 478.0Q260 484 261 488L320 489L321 467Z" fill="#d0cfce" />
<path d="M962 -55H895L948 345H1007Z" fill="#9b9b9a" />
<path d="M895 506Q892 483 889.5 445.0Q887 407 874 374Q860 335 834.0 306.0Q808 277 784 258Q768 246 740.0 233.0Q712 220 683.0 212.5Q654 205 636 209Q626 211 625.0 220.5Q624 230 625.0 241.0Q626 252 623 258L619 753Q660 750 706.0 736.0Q752 722 788 694Q834 659 861.5 608.0Q889 557 895 506Z" fill="#d0cfce" />
<path d="M637 279Q699 283 750.0 314.0Q801 345 834.0 395.0Q867 445 873 506Q889 509 891.5 497.0Q894 485 894 478Q894 408 870.5 359.0Q847 310 806 277Q794 267 769.5 254.5Q745 242 716.0 231.0Q687 220 660.5 212.0Q634 204 619 203L614 277Z" fill="#9b9b9a" />
<path d="M967 536Q975 536 988.0 530.5Q1001 525 1006 490Q1009 461 997.5 446.5Q986 432 973.0 427.0Q960 422 960 422H904Q899 427 897.5 444.5Q896 462 896.0 483.0Q896 504 898.0 520.0Q900 536 904 537Z" fill="#3f3f3f" />
<path d="M619 185Q740 185 826 270Q912 356 912 478Q912 599 826 685Q740 771 619 771Q609 771 605 767Q600 762 600 753V203Q600 185 619 185ZM637 222V734Q731 728 800 659Q875 584 875 478Q875 372 800 296Q731 228 637 222Z" fill="#000000" />
<path d="M965 551Q947 551 947 533Q947 524 951 519Q956 514 965 514Q980 514 990 503Q1001 492 1001 477Q1000 440 963 441Q945 441 944 423Q944 404 962 404Q1036 402 1037 476Q1038 506 1017 528Q996 550 965 551Z" fill="#000000" />
<path d="M338 431Q356 431 356 449V505Q356 524 338 524H257Q246 524 237 515Q225 503 225 477Q225 452 237 440Q246 431 257 431ZM319 468H263Q262 471 262 477Q262 484 263 487H319Z" fill="#000000" />
<path d="M442 496Q424 496 424 478Q424 460 442 460H619Q637 460 637 478Q637 496 619 496Z" fill="#000000" />
<path d="M393 551Q380 538 393 525Q406 512 419 525L632 740Q638 746 638 753Q638 759 631 766Q618 779 606 766Z" fill="#000000" />
<path d="M419 430Q406 443 393 430Q387 423 387 417Q387 410 393 404L606 190Q618 177 631 190Q644 203 632 216Z" fill="#000000" />
<path d="M738 -37Q719 -37 719 -55Q719 -73 738 -73H1079Q1097 -73 1097 -55Q1097 -37 1079 -37Z" fill="#000000" />
<path d="M876 -53Q874 -71 892 -73Q910 -76 913 -57L964 326H987L936 -53Q934 -71 952 -73Q970 -76 972 -57L1026 342Q1026 344 1026 345Q1026 363 1007 363H948Q932 363 930 347Z" fill="#000000" />
</g></svg>