<svg xmlns="http://www.w3.org/2000/svg" viewBox="0 0 2048 2048">
<g transform="matrix(1 0 0 -1 0 2048)">
<path d="M1073 563Q1081 514 1070.5 483.5Q1060 453 1039.0 435.5Q1018 418 994.0 411.0Q970 404 951 402Q907 397 849.0 394.0Q791 391 725.0 390.0Q659 389 593.5 389.5Q528 390 469.5 393.0Q411 396 368 402Q349 404 325.0 411.5Q301 419 280.0 436.0Q259 453 248.5 483.5Q238 514 246 563Q252 601 274.5 614.0Q297 627 320 633Q340 638 350.0 655.0Q360 672 356 692Q345 729 354 767Q361 792 381.5 810.0Q402 828 421.5 836.5Q441 845 447 840Q542 771 660 767Q777 771 872 840Q878 845 897.5 836.5Q917 828 937.5 810.0Q958 792 965 767Q973 744 968.5 717.0Q964 690 957.5 671.0Q951 652 951 652Q959 642 976.5 638.0Q994 634 1014.5 628.5Q1035 623 1051.5 608.5Q1068 594 1073 563Z" fill="#ea5a47" />
<path d="M766 389V330Q766 328 773.0 321.0Q780 314 780 312Q781 277 781.5 235.0Q782 193 782.5 151.0Q783 109 783.5 74.5Q784 40 784.5 19.0Q785 -2 785 -2L1030 24Q1030 24 1032.0 54.0Q1034 84 1037.0 130.5Q1040 177 1042.5 229.5Q1045 282 1046 327Q1046 327 1046.0 342.5Q1046 358 1046.0 378.5Q1046 399 1046.0 415.0Q1046 431 1046 431Q976 405 902 397Q900 397 879.0 395.5Q858 394 831.5 392.5Q805 391 785.5 390.0Q766 389 766 389Z" fill="#ea5a47" />
<path d="M828 -75Q828 -94 846 -94Q864 -94 864 -75V35Q864 53 846 53Q828 53 828 35Z" fill="#ea5a47" />
<path d="M877 -69Q877 -88 895 -88Q913 -88 913 -69V41Q913 59 895 59Q877 59 877 41Z" fill="#ea5a47" />
<path d="M926 -63Q926 -82 944 -82Q962 -82 962 -63V47Q962 65 944 65Q926 65 926 47Z" fill="#ea5a47" />
<path d="M1073 563Q1084 517 1068.0 486.0Q1052 455 1018.5 436.0Q985 417 945.0 407.0Q905 397 868.0 393.5Q831 390 807.0 389.5Q783 389 783 389Q814 425 828.0 464.0Q842 503 845.5 537.5Q849 572 847.5 593.5Q846 615 846 615Q888 725 872 840Q878 845 897.5 836.5Q917 828 937.5 810.0Q958 792 965 767Q973 744 968.5 717.0Q964 690 957.5 671.0Q951 652 951 652Q959 642 976.0 638.0Q993 634 1012.5 628.0Q1032 622 1048.5 608.0Q1065 594 1073 563Z" fill="#d22f27" />
<path d="M1046 431V356L1020 26L937 15Z" fill="#d22f27" />
<path d="M1091 566Q1080 632 996 653Q988 654 985 655Q980 656 978 661Q975 665 976 670Q994 719 983 771V772Q971 812 927 841Q882 871 861 855Q771 789 660 785Q548 789 458 855Q437 871 392 841Q348 812 336 772V771V770Q325 718 343 667Q345 663 343 660Q341 657 338 656Q334 655 323 653Q239 632 228 566Q212 470 268 422Q304 391 366 383Q637 350 953 383Q1015 390 1051 422Q1107 470 1091 566ZM1055 560Q1068 484 1027 449Q999 425 949 420Q637 387 370 420Q319 426 292 450Q251 485 264 560Q271 602 332 617Q343 619 348 621Q366 626 375 643Q384 660 378 678V679Q363 720 371 762Q380 789 412 810Q425 819 436 822L435 826H436Q535 753 659 749H660Q784 753 883 826H884L883 822Q894 819 907 810Q939 789 948 762Q956 721 942 682V681H941Q935 661 946 643Q956 625 976 620Q979 619 987 617Q1048 602 1055 560Z" fill="#000000" />
<path d="M1009 42Q1009 24 1028 24Q1046 24 1046 42V360Q1046 379 1028 379Q1009 379 1009 360Z" fill="#000000" />
<path d="M766 16Q766 -2 785 -2Q803 -2 803 16V334Q803 353 785 353Q766 353 766 334Z" fill="#000000" />
<path d="M939 -54Q939 -73 957 -73Q975 -73 975 -54V56Q975 74 957 74Q939 74 939 56Z" fill="#000000" />
<path d="M891 -60Q891 -79 909 -79Q927 -79 927 -60V50Q927 68 909 68Q891 68 891 50Z" fill="#000000" />
<path d="M842 -66Q842 -85 860 -85Q878 -85 878 -66V44Q878 62 860 62Q842 62 842 44Z" fill="#000000" />
<path d="M429 632Q412 640 405 623Q397 606 414 599Q506 557 660 557Q729 558 796 578Q814 583 808 601Q806 610 800 613Q794 616 786 613Q724 594 660 594Q514 594 429 632Z" fill="#000000" />
</g></svg>