<svg xmlns="http://www.w3.org/2000/svg" viewBox="0 0 2048 2048">
<g transform="matrix(1 0 0 -1 0 2048)">
<path d="M730 552 697 587Q697 587 713.0 587.0Q729 587 752.0 588.5Q775 590 797.0 594.0Q819 598 832.0 604.5Q845 611 839 622Q834 634 832.0 655.5Q830 677 832.0 701.0Q834 725 841.0 744.5Q848 764 861.5 771.5Q875 779 897 768Q920 756 922.0 735.5Q924 715 918.0 686.0Q912 657 911 621Q911 599 892.5 585.5Q874 572 847.0 565.0Q820 558 793.0 555.0Q766 552 748.0 552.0Q730 552 730 552Z" fill="#ea5a47" />
<path d="M587 550 605 587Q605 587 590.5 587.0Q576 587 555.0 589.0Q534 591 514.0 594.5Q494 598 482.5 605.0Q471 612 477 623Q482 634 481.5 655.5Q481 677 476.0 701.0Q471 725 462.5 745.0Q454 765 443.5 773.0Q433 781 422 770Q403 752 400.0 732.0Q397 712 400.0 686.0Q403 660 403 623Q403 601 421.5 587.5Q440 574 467.5 566.0Q495 558 522.5 554.5Q550 551 568.5 550.5Q587 550 587 550Z" fill="#ea5a47" />
<path d="M754 -19Q706 -1 700.5 33.5Q695 68 709 116Q714 135 720.0 176.5Q726 218 729.5 271.5Q733 325 733.0 380.0Q733 435 726.5 482.5Q720 530 706 558Q692 587 676.5 595.5Q661 604 646.5 599.5Q632 595 620.5 585.5Q609 576 602.0 567.0Q595 558 595 558Q572 478 568.5 397.5Q565 317 576.5 244.0Q588 171 608.0 110.5Q628 50 651.5 8.0Q675 -34 696 -50Q717 -67 744.0 -65.5Q771 -64 796.0 -50.0Q821 -36 836.5 -14.5Q852 7 850.0 31.0Q848 55 821 76Q793 98 780.0 98.5Q767 99 763.5 87.5Q760 76 761.5 60.5Q763 45 766.0 33.0Q769 21 769 21Z" fill="#d22f27" />
<path d="M568.6430053710938 421.59954833984375V348.00067138671875H733.7928466796875V421.59954833984375Z" fill="#ea5a47" />
<path d="M568.6430053710938 256.59954833984375V183.00067138671875H733.7928466796875V256.59954833984375Z" fill="#ea5a47" />
<path d="M453 817Q458 825 456 831Q455 837 448 842Q432 852 422 837Q337 710 381 614Q395 583 421 560Q429 553 437 547L440 545Q442 544 444 542Q447 541 451 540L577 524Q586 523 592 527Q597 531 598 540Q600 558 582 561L459 576Q459 577 458 577Q451 582 445 587Q425 605 415 629Q379 707 453 817ZM462 574Q464 573 466 571Q466 571 462 574Z" fill="#000000" />
<path d="M431 796Q414 801 408 784Q405 775 408 770Q411 764 419 761Q468 745 466 688Q464 657 452 629Q447 617 456 609L472 593Q476 588 483 588L609 572Q627 569 629 588Q632 606 614 608L493 623L491 626Q501 655 502 687Q505 771 431 796Z" fill="#000000" />
<path d="M879 838Q874 845 867 846Q861 847 853 842Q839 831 849 816Q879 776 892 724Q916 628 842 576L724 568Q715 567 711 563Q707 558 707 549Q709 530 727 532L850 540Q855 540 859 543Q958 610 927 733Q913 791 879 838Z" fill="#000000" />
<path d="M688 608Q670 606 672 588Q673 579 678 575Q683 571 692 572L835 588Q845 589 849 598L865 629Q872 643 859 652Q842 664 837 683Q826 720 887 763Q902 774 891 789Q880 804 865 793Q783 735 802 672Q809 649 825 633L821 623Z" fill="#000000" />
<path d="M744 497Q726 503 720 485Q717 477 720 471Q723 465 732 462L822 430Q832 427 840 434L876 465Q888 475 880 488L862 520Q853 536 837 527Q829 522 827 516Q826 510 830 502L841 483L824 469Z" fill="#000000" />
<path d="M570 462Q578 465 581 471Q584 476 581 485Q575 502 558 497L474 469L463 479L482 498Q495 511 482 524Q469 537 456 524L424 492Q411 479 424 466L456 435Q464 427 475 430Z" fill="#000000" />
<path d="M580 407Q584 415 583 421Q581 427 573 432Q565 437 559 435Q552 433 548 425L487 319L469 310L432 328Q415 337 407 320Q399 304 415 296L461 273Q469 269 477 273L509 289Q514 291 517 296Z" fill="#000000" />
<path d="M754 425Q745 441 729 432Q713 423 722 407L785 296Q788 291 793 289L824 273Q832 269 840 273L888 294Q905 301 897 318Q890 335 873 327L833 310L814 319Z" fill="#000000" />
<path d="M645 642Q640 660 622 655Q613 652 610 647Q607 641 609 632L620 595Q625 578 643 583Q651 585 655 591Q658 597 655 606Z" fill="#000000" />
<path d="M645 606Q640 589 657 583Q666 580 672 583Q677 586 680 595L692 632Q698 649 680 655Q671 658 666 655Q660 652 657 643Z" fill="#000000" />
<path d="M728 414Q745 420 739 438Q734 455 716 449Q629 420 579 450Q563 459 554 443Q544 428 560 418Q625 380 728 414Z" fill="#000000" />
<path d="M573 377Q556 385 549 368Q545 360 547 354Q550 348 558 344Q654 301 736 345Q752 353 743 369Q735 386 719 377Q653 342 573 377Z" fill="#000000" />
<path d="M752 15Q757 -2 775 3Q792 9 787 26Q778 55 779 74Q779 78 780 80Q788 79 809 62Q833 43 831 21Q829 -1 806 -21Q750 -70 708 -36Q647 12 608 178Q562 375 612 550Q625 569 642 578Q654 584 663 581Q677 576 690 550Q719 491 714 326Q709 182 691 121Q655 -1 747 -36Q764 -42 771 -25Q777 -8 760 -2Q700 21 726 111Q746 176 751 325Q756 499 723 567Q703 606 675 616Q650 624 624 610Q599 596 580 568Q579 566 578 563Q523 378 572 170Q615 -8 685 -65Q716 -89 761 -82Q800 -75 831 -48Q864 -19 868 17Q872 59 832 91Q794 120 771 116Q745 110 743 76Q741 50 752 15Z" fill="#000000" />
<path d="M469 179Q451 179 451 161Q451 142 469 142H527Q535 142 541 148L570 180Q573 184 574 189L585 248Q663 228 717 245L727 189Q728 184 732 180L761 148Q766 142 774 142H833Q851 142 851 161Q851 179 833 179H782L762 201L749 275Q748 277 747 280Q738 296 722 287Q671 259 576 289Q575 289 574 289Q556 293 553 275L539 201L519 179Z" fill="#000000" />
<path d="M593 213Q576 220 569 203Q565 195 567 189Q570 183 578 179Q659 143 730 178Q747 187 738 203Q730 219 714 211Q658 183 593 213Z" fill="#000000" />
</g></svg>