<svg xmlns="http://www.w3.org/2000/svg" viewBox="0 0 2048 2048">
<g transform="matrix(1 0 0 -1 0 2048)">
<path d="M346 497Q337 480 354 472Q370 464 378 480Q397 517 431 537Q483 569 549 551Q617 533 653 473Q662 457 678 467Q682 469 684 473Q721 533 789 551Q854 568 907 537Q941 516 959 478Q967 461 983 469Q1000 477 992 493Q969 542 925 568Q860 608 780 586Q711 568 669 514Q627 568 558 587Q478 608 412 568Q369 543 346 497Z" fill="#000000" />
<path d="M1081 356Q1124 379 1148.5 420.0Q1173 461 1173.5 513.0Q1174 565 1145 619Q1123 661 1092.0 678.0Q1061 695 1030.5 697.0Q1000 699 979.0 695.0Q958 691 956 691Z" fill="#6a462f" />
<path d="M1101 394Q1101 487 1067.0 566.0Q1033 645 972.5 703.0Q912 761 832.0 793.0Q752 825 661 825Q570 825 490.0 793.0Q410 761 349.5 703.0Q289 645 255.0 566.0Q221 487 221 394Q221 301 255.0 219.5Q289 138 349.5 76.5Q410 15 490.0 -20.0Q570 -55 661 -55Q752 -55 832.0 -20.0Q912 15 972.5 76.5Q1033 138 1067.0 219.5Q1101 301 1101 394Z" fill="#6a462f" />
<path d="M234 366Q196 384 171.0 424.5Q146 465 143.0 517.5Q140 570 167 623Q185 658 210.0 676.5Q235 695 261.0 701.0Q287 707 310.0 706.0Q333 705 348.0 701.5Q363 698 365 698Z" fill="#6a462f" />
<path d="M750 -37Q787 -19 804.5 -15.5Q822 -12 829.5 -11.5Q837 -11 842 0Q869 54 872.5 106.0Q876 158 867.5 199.5Q859 241 852 261Q856 262 871.0 268.0Q886 274 906.5 286.5Q927 299 946.0 320.0Q965 341 976 373Q988 408 984.0 446.0Q980 484 961.0 516.5Q942 549 909 569Q871 592 824.0 591.0Q777 590 733.5 566.5Q690 543 662 498Q635 543 591.5 567.0Q548 591 500.5 591.5Q453 592 414 569Q382 549 362.0 517.0Q342 485 337.5 447.0Q333 409 347 373Q359 342 379.5 322.5Q400 303 421.5 291.5Q443 280 458.5 275.5Q474 271 476 271Q458 188 460.5 116.5Q463 45 477 0Z" fill="#a57939" />
<path d="M768 146Q713 146 658.0 146.0Q603 146 548 146Q549 144 553.0 127.0Q557 110 567.5 89.0Q578 68 598.0 52.0Q618 36 652 36Q691 36 713.5 52.0Q736 68 747.5 89.5Q759 111 763.0 128.0Q767 145 768 146Z" fill="#ffffff" />
<path d="M337 -18Q340 10 342.0 23.0Q344 36 345.5 43.0Q347 50 348.0 56.5Q349 63 351.0 76.5Q353 90 357 117Q380 122 412.5 132.0Q445 142 474 171Q525 221 554.5 266.0Q584 311 592 347Q594 356 578.5 364.0Q563 372 520 362Q543 398 550.0 417.0Q557 436 552 441Q548 446 529.5 442.5Q511 439 474 422Q473 435 478.0 455.5Q483 476 474 486Q470 492 450.5 485.0Q431 478 405.0 462.5Q379 447 353.0 427.0Q327 407 309 385Q288 441 274.5 457.0Q261 473 254 472Q241 470 233.0 439.0Q225 408 223.5 363.0Q222 318 225 276Q229 235 237.5 202.5Q246 170 254 148Q243 126 240.0 120.5Q237 115 237.5 117.5Q238 120 238.5 122.0Q239 124 236.0 119.0Q233 114 223 92Z" fill="#a57939" />
<path d="M972 -27Q967 7 965.5 21.5Q964 36 963.0 44.5Q962 53 960.0 68.0Q958 83 954 117Q931 122 898.0 132.0Q865 142 837 171Q785 221 756.0 266.0Q727 311 719 347Q716 356 732.0 364.0Q748 372 791 362Q768 398 761.0 417.0Q754 436 758 441Q763 446 781.5 442.5Q800 439 837 422Q838 435 833.0 455.5Q828 476 836 486Q841 492 860.0 485.0Q879 478 905.5 462.5Q932 447 958.0 427.0Q984 407 1001 385Q1023 441 1036.0 457.0Q1049 473 1057 472Q1070 470 1077.5 439.0Q1085 408 1087.0 363.0Q1089 318 1085 276Q1081 235 1073.0 202.5Q1065 170 1057 148Q1067 126 1070.0 120.0Q1073 114 1072.5 115.5Q1072 117 1071.0 118.5Q1070 120 1073.0 114.0Q1076 108 1086 87Z" fill="#a57939" />
<path d="M1067 148Q1068 146 1073.5 134.0Q1079 122 1100 75L978 -45Q966 37 960.0 76.5Q954 116 954 116Z" fill="#6a462f" />
<path d="M1067 148Q1067 148 1067.0 148.0Q1067 148 1067 148Q1067 148 1067 148Z" fill="#6a462f" />
<path d="M252 148 361 114Q361 114 350.0 75.0Q339 36 331 -37Q330 -39 328.0 -40.0Q326 -41 325 -39L215 78Q233 118 241.0 132.0Q249 146 250.5 147.0Q252 148 252 148Z" fill="#6a462f" />
<path d="M958 703Q940 703 940 685Q940 666 958 666Q961 666 967 668Q1085 694 1131 604Q1168 532 1130 460Q1121 444 1137 435Q1153 427 1162 443Q1209 532 1163 621Q1104 736 959 703Z" fill="#000000" />
<path d="M362 666Q380 666 380 685Q380 703 362 703H361Q216 736 157 621Q113 536 154 451Q158 443 164 441Q170 439 178 443Q195 451 187 467Q154 536 189 604Q235 694 353 668Q359 666 362 666Z" fill="#000000" />
<path d="M783 135Q787 140 787 146Q787 165 769 165H548Q542 165 537 161Q530 155 529 149Q528 144 532 138Q532 136 533 132Q562 18 653 18Q756 18 785 135ZM744 128Q720 54 653 54Q595 54 572 128Z" fill="#000000" />
<path d="M643.0865478515625 227.75445556640625Q643.0865478515625 231.54052734375 641.6504516601562 234.86965942382812Q640.21435546875 238.19879150390625 637.6903076171875 240.72283935546875Q635.166259765625 243.24688720703125 631.8371276855469 244.6829833984375Q628.5079956054688 246.11907958984375 624.721923828125 246.11907958984375Q620.9358520507812 246.11907958984375 617.6067199707031 244.6829833984375Q614.277587890625 243.24688720703125 611.7535400390625 240.72283935546875Q609.2294921875 238.19879150390625 607.7933959960938 234.86965942382812Q606.3572998046875 231.54052734375 606.3572998046875 227.75445556640625Q606.3572998046875 223.9683837890625 607.7933959960938 220.63925170898438Q609.2294921875 217.31011962890625 611.7535400390625 214.78607177734375Q614.277587890625 212.26202392578125 617.6067199707031 210.825927734375Q620.9358520507812 209.38983154296875 624.721923828125 209.38983154296875Q628.5079956054688 209.38983154296875 631.8371276855469 210.825927734375Q635.166259765625 212.26202392578125 637.6903076171875 214.78607177734375Q640.21435546875 217.31011962890625 641.6504516601562 220.63925170898438Q643.0865478515625 223.9683837890625 643.0865478515625 227.75445556640625Z" fill="#000000" />
<path d="M709.0865478515625 227.75445556640625Q709.0865478515625 231.54052734375 707.6504516601562 234.86965942382812Q706.21435546875 238.19879150390625 703.6903076171875 240.72283935546875Q701.166259765625 243.24688720703125 697.8371276855469 244.6829833984375Q694.5079956054688 246.11907958984375 690.721923828125 246.11907958984375Q686.9358520507812 246.11907958984375 683.6067199707031 244.6829833984375Q680.277587890625 243.24688720703125 677.7535400390625 240.72283935546875Q675.2294921875 238.19879150390625 673.7933959960938 234.86965942382812Q672.3572998046875 231.54052734375 672.3572998046875 227.75445556640625Q672.3572998046875 223.9683837890625 673.7933959960938 220.63925170898438Q675.2294921875 217.31011962890625 677.7535400390625 214.78607177734375Q680.277587890625 212.26202392578125 683.6067199707031 210.825927734375Q686.9358520507812 209.38983154296875 690.721923828125 209.38983154296875Q694.5079956054688 209.38983154296875 697.8371276855469 210.825927734375Q701.166259765625 212.26202392578125 703.6903076171875 214.78607177734375Q706.21435546875 217.31011962890625 707.6504516601562 220.63925170898438Q709.0865478515625 223.9683837890625 709.0865478515625 227.75445556640625Z" fill="#000000" />
<path d="M906 21Q921 31 911 47Q900 62 885 51Q783 -18 658 -18Q535 -18 433 51Q418 61 407 46Q402 38 404 32Q405 25 412 20Q524 -55 658 -55Q794 -55 906 21Z" fill="#000000" />
<path d="M258 568Q251 551 267 544Q276 540 282 542Q288 544 292 553Q340 659 438 723Q538 788 658 788Q778 788 878 724Q975 661 1024 556Q1032 539 1048 547Q1065 555 1057 571Q1004 686 898 754Q789 825 658 825Q527 825 418 753Q311 684 258 568Z" fill="#000000" />
<path d="M1070 79Q1078 62 1095 70Q1111 78 1103 95L1089 124V125L1088 127L1077 149Q1098 211 1104 275Q1110 344 1102 406Q1092 485 1060 490Q1030 494 996 419Q963 450 915 478Q842 521 823 498Q812 484 816 451Q761 471 745 453Q730 436 756 385Q739 386 727 381Q695 370 701 343Q721 259 824 158Q863 119 938 102L945 43L954 -30Q956 -48 974 -46Q992 -43 990 -25L981 47L973 119Q971 133 958 135Q957 135 956 136Q884 150 850 184Q757 275 738 346Q738 347 739 347Q754 352 787 344Q795 342 801 346Q817 356 807 371Q786 404 778 424Q778 424 778 424Q797 420 829 405Q832 404 836 404Q854 402 855 420Q856 429 853 448Q851 462 850 469Q852 468 855 467Q872 461 897 447Q956 412 988 374Q991 370 995 368Q1012 362 1019 379Q1038 427 1051 446Q1054 450 1056 452Q1061 445 1066 402Q1073 343 1067 278Q1062 215 1040 154Q1038 147 1041 140L1055 111L1056 109V108Z" fill="#000000" />
<path d="M211 100Q203 83 219 75Q228 71 234 74Q240 76 244 84L256 110L257 112L258 115L271 140Q274 147 271 154Q250 215 244 278Q238 343 245 402Q251 445 255 452Q257 450 260 446Q274 427 293 379Q299 362 316 368Q321 370 324 374Q356 412 415 447Q439 461 457 467Q459 468 461 469Q461 462 459 448Q455 429 456 420Q457 411 462 407Q467 403 476 404Q479 404 482 405Q515 420 533 424Q533 424 533 424Q526 404 505 371Q495 356 510 346Q517 342 524 344Q558 352 573 347Q573 347 573 346Q555 275 462 184Q428 150 355 136Q354 135 353 135Q341 133 339 119L321 -25Q319 -43 337 -46Q346 -47 352 -43Q357 -39 358 -30L367 43L374 102Q449 119 487 158Q591 259 610 343Q617 370 585 381Q572 386 555 385Q582 436 566 453Q551 471 496 451Q500 484 489 498Q470 521 396 478Q348 450 316 419Q282 494 251 490Q219 485 209 406Q201 344 208 275Q214 211 234 149L225 130L224 128L223 125Z" fill="#000000" />
</g></svg>