<svg xmlns="http://www.w3.org/2000/svg" viewBox="0 0 2048 2048">
<g transform="matrix(1 0 0 -1 0 2048)">
<path d="M1082.144287109375 366.95050048828125Q1082.144287109375 454.156982421875 1049.5616455078125 530.822021484375Q1016.97900390625 607.487060546875 959.0010681152344 665.4649963378906Q901.0231323242188 723.4429321289062 824.3580932617188 756.0255737304688Q747.6930541992188 788.6082153320312 660.486572265625 788.6082153320312Q573.2800903320312 788.6082153320312 496.61505126953125 756.0255737304688Q419.95001220703125 723.4429321289062 361.9720764160156 665.4649963378906Q303.994140625 607.487060546875 271.4114990234375 530.822021484375Q238.828857421875 454.156982421875 238.828857421875 366.95050048828125Q238.828857421875 279.7440185546875 271.4114990234375 203.0789794921875Q303.994140625 126.4139404296875 361.9720764160156 68.43600463867188Q419.95001220703125 10.45806884765625 496.61505126953125 -22.12457275390625Q573.2800903320312 -54.70721435546875 660.486572265625 -54.70721435546875Q747.6930541992188 -54.70721435546875 824.3580932617188 -22.12457275390625Q901.0231323242188 10.45806884765625 959.0010681152344 68.43600463867188Q1016.97900390625 126.4139404296875 1049.5616455078125 203.0789794921875Q1082.144287109375 279.7440185546875 1082.144287109375 366.95050048828125Z" fill="#3f3f3f" />
<path d="M1026.644287109375 384.82550048828125Q1026.644287109375 460.656982421875 998.3116455078125 527.322021484375Q969.97900390625 593.987060546875 919.5635681152344 644.4024963378906Q869.1481323242188 694.8179321289062 802.4830932617188 723.1505737304688Q735.8180541992188 751.4832153320312 659.986572265625 751.4832153320312Q584.1550903320312 751.4832153320312 517.4900512695312 723.1505737304688Q450.82501220703125 694.8179321289062 400.4095764160156 644.4024963378906Q349.994140625 593.987060546875 321.6614990234375 527.322021484375Q293.328857421875 460.656982421875 293.328857421875 384.82550048828125Q293.328857421875 308.9940185546875 321.6614990234375 242.3289794921875Q349.994140625 175.6639404296875 400.4095764160156 125.24850463867188Q450.82501220703125 74.83306884765625 517.4900512695312 46.50042724609375Q584.1550903320312 18.16778564453125 659.986572265625 18.16778564453125Q735.8180541992188 18.16778564453125 802.4830932617188 46.50042724609375Q869.1481323242188 74.83306884765625 919.5635681152344 125.24850463867188Q969.97900390625 175.6639404296875 998.3116455078125 242.3289794921875Q1026.644287109375 308.9940185546875 1026.644287109375 384.82550048828125Z" fill="#e27022" />
<path d="M904 484Q922 443 913.0 399.5Q904 356 871 326L864 298Q863 291 857 287Q850 283 843 285L810 293Q803 295 799 301Q796 307 798 314L804 342Q789 384 801.5 427.0Q814 470 849 497Q861 514 881 509Q901 504 904 484Z" fill="#f4aa41" />
<path d="M918 488Q913 516 884 523Q856 530 838 508Q756 441 789 341L783 318Q780 305 787 293Q794 282 807 279L840 271Q853 267 864 274Q876 281 879 294L884 318Q960 391 918 488ZM889 482V480L890 478Q927 397 861 336L858 333L850 301Q850 300 849 300Q848 299 847 299L813 308Q812 308 812 309Q811 309 812 311L820 343L818 347Q788 431 858 486L860 487L861 489Q867 497 877 495Q888 492 889 482Z" fill="#f4aa41" />
<path d="M796 214Q789 216 785.0 222.0Q781 228 783 235Q785 242 791.0 246.0Q797 250 804 248L812 281L840 274L832 241Q839 239 842.5 233.0Q846 227 844 220Q843 213 836.5 209.5Q830 206 823 208Q815 210 811 218Q804 212 796 214Z" fill="#ffffff" />
<path d="M792 200Q800 198 807 200Q812 195 820 193Q838 189 851 202Q863 216 858 233Q855 243 849 249L858 285L801 299L792 262Q788 261 783 258Q772 252 769 239Q761 208 792 200Q792 200 792 200Q792 200 792 200ZM823 228 828 227Q830 226 830 225Q830 224 829 223Q828 221 827 222Q826 222 825 223ZM799 229Q798 229 798 230Q797 231 797 232Q798 234 800 234L805 232L802 229Q801 228 799 229Z" fill="#ffffff" />
<path d="M751.5 605.125Q751.5 616.5 747.25 626.5Q743.0 636.5 735.4375 644.0625Q727.875 651.625 717.875 655.875Q707.875 660.125 696.5 660.125Q685.125 660.125 675.125 655.875Q665.125 651.625 657.5625 644.0625Q650.0 636.5 645.75 626.5Q641.5 616.5 641.5 605.125Q641.5 593.75 645.75 583.75Q650.0 573.75 657.5625 566.1875Q665.125 558.625 675.125 554.375Q685.125 550.125 696.5 550.125Q707.875 550.125 717.875 554.375Q727.875 558.625 735.4375 566.1875Q743.0 573.75 747.25 583.75Q751.5 593.75 751.5 605.125Z" fill="#f4aa41" />
<path d="M766 605Q766 634 746 654Q726 675 697 675Q668 675 647 654Q627 634 627 605Q627 535 697 535Q726 535 746 556Q766 576 766 605ZM737 605Q737 588 725 576Q713 565 697 565Q680 565 668 576Q656 588 656 605Q656 645 697 645Q737 645 737 605Z" fill="#f4aa41" />
<path d="M494.644287109375 312.07550048828125Q494.644287109375 319.656982421875 491.8116455078125 326.322021484375Q488.97900390625 332.987060546875 483.9385681152344 338.0274963378906Q478.89813232421875 343.06793212890625 472.23309326171875 345.90057373046875Q465.56805419921875 348.73321533203125 457.986572265625 348.73321533203125Q450.40509033203125 348.73321533203125 443.74005126953125 345.90057373046875Q437.07501220703125 343.06793212890625 432.0345764160156 338.0274963378906Q426.994140625 332.987060546875 424.1614990234375 326.322021484375Q421.328857421875 319.656982421875 421.328857421875 312.07550048828125Q421.328857421875 304.4940185546875 424.1614990234375 297.8289794921875Q426.994140625 291.1639404296875 432.0345764160156 286.1235046386719Q437.07501220703125 281.08306884765625 443.74005126953125 278.25042724609375Q450.40509033203125 275.41778564453125 457.986572265625 275.41778564453125Q465.56805419921875 275.41778564453125 472.23309326171875 278.25042724609375Q478.89813232421875 281.08306884765625 483.9385681152344 286.1235046386719Q488.97900390625 291.1639404296875 491.8116455078125 297.8289794921875Q494.644287109375 304.4940185546875 494.644287109375 312.07550048828125Z" fill="#f4aa41" />
<path d="M510 312Q510 333 495 348Q480 363 458 363Q407 363 407 312Q407 290 422 275Q437 260 458 260Q510 260 510 312ZM480 312Q480 290 458 290Q436 290 436 312Q436 334 458 334Q480 334 480 312Z" fill="#f4aa41" />
<path d="M742.644287109375 394.07550048828125Q742.644287109375 401.656982421875 739.8116455078125 408.322021484375Q736.97900390625 414.987060546875 731.9385681152344 420.0274963378906Q726.8981323242188 425.06793212890625 720.2330932617188 427.90057373046875Q713.5680541992188 430.73321533203125 705.986572265625 430.73321533203125Q698.4050903320312 430.73321533203125 691.7400512695312 427.90057373046875Q685.0750122070312 425.06793212890625 680.0345764160156 420.0274963378906Q674.994140625 414.987060546875 672.1614990234375 408.322021484375Q669.328857421875 401.656982421875 669.328857421875 394.07550048828125Q669.328857421875 386.4940185546875 672.1614990234375 379.8289794921875Q674.994140625 373.1639404296875 680.0345764160156 368.1235046386719Q685.0750122070312 363.08306884765625 691.7400512695312 360.25042724609375Q698.4050903320312 357.41778564453125 705.986572265625 357.41778564453125Q713.5680541992188 357.41778564453125 720.2330932617188 360.25042724609375Q726.8981323242188 363.08306884765625 731.9385681152344 368.1235046386719Q736.97900390625 373.1639404296875 739.8116455078125 379.8289794921875Q742.644287109375 386.4940185546875 742.644287109375 394.07550048828125Z" fill="#f4aa41" />
<path d="M757.3936157226562 394.39495849609375Q757.3936157226562 445.59417724609375 705.3944091796875 445.59417724609375Q654.1951904296875 445.59417724609375 654.1951904296875 393.594970703125Q654.1951904296875 342.395751953125 705.3944091796875 342.395751953125Q757.3936157226562 342.395751953125 757.3936157226562 394.39495849609375ZM727.7940673828125 394.39495849609375Q727.7940673828125 371.99530029296875 705.3944091796875 371.99530029296875Q683.7947387695312 371.99530029296875 683.7947387695312 394.39495849609375Q683.7947387695312 415.99462890625 705.3944091796875 415.99462890625Q727.7940673828125 415.99462890625 727.7940673828125 394.39495849609375Z" fill="#f4aa41" />
<path d="M707 162Q711 167 714 172Q713 145 697.5 123.0Q682 101 657 92Q632 83 606.0 90.0Q580 97 563 117Q546 138 543.0 164.5Q540 191 554 215Q553 187 569.0 164.0Q585 141 611 132Q638 123 664.5 131.5Q691 140 707 162Z" fill="#5c9e31" />
<path d="M696 171Q665 130 616 146Q567 163 568 214Q568 229 554 229Q545 229 541 222Q507 161 552 108Q597 55 662 78Q727 102 728 171Q728 186 714 186Q705 186 701 179Q699 175 696 171Q696 171 696 171ZM672 116Q664 110 652 106Q606 89 574 127Q566 137 561 147Q578 128 607 118Q643 106 672 116Z" fill="#5c9e31" />
<path d="M458.77471923828125 487.525146484375Q454.26409912109375 485.28143310546875 450.4671630859375 482.70654296875Q460.12261962890625 501.64483642578125 478.4706115722656 512.212646484375Q496.818603515625 522.7804565429688 517.6412963867188 520.9241943359375Q538.4639892578125 519.0679321289062 554.7015380859375 505.4615478515625Q570.9390869140625 491.85516357421875 576.4481811523438 471.95147705078125Q581.6260986328125 451.3341064453125 574.990966796875 431.4279479980469Q568.3558349609375 411.52178955078125 550.416015625 399.02984619140625Q560.4026489257812 418.68182373046875 556.6007690429688 440.3953857421875Q552.7988891601562 462.10894775390625 537.2236938476562 477.1427001953125Q520.934814453125 492.50762939453125 499.2071838378906 495.2174987792969Q477.47955322265625 497.9273681640625 458.77471923828125 487.525146484375Z" fill="#5c9e31" />
<path d="M465 475Q499 493 526 467Q554 440 537 406Q531 393 544 386Q552 383 559 388Q605 421 590 476Q575 531 519 536Q462 541 437 490Q431 476 444 470Q452 466 459 471Q462 473 465 475Q465 475 465 475Q465 475 465 475ZM521 506Q551 501 561 471Q555 480 547 488Q534 500 521 506Z" fill="#5c9e31" />
<path d="M1100 385Q1100 567 971 696Q842 825 660 825Q478 825 349 696Q220 567 220 385Q220 203 349 74Q478 -55 660 -55Q842 -55 971 74Q1100 203 1100 385ZM1063 385Q1063 218 945 100Q827 -18 660 -18Q493 -18 375 100Q257 218 257 385Q257 552 375 670Q493 788 660 788Q827 788 945 670Q1063 552 1063 385Z" fill="#000000" />
<path d="M1100 458Q1082 458 1082 440Q1082 422 1100 422Q1137 422 1137 367Q1137 312 1100 312Q1082 312 1082 293Q1082 275 1100 275Q1132 275 1154 304Q1173 330 1173 367Q1173 403 1154 430Q1132 458 1100 458Z" fill="#000000" />
<path d="M220 422Q238 422 238 440Q238 458 220 458Q188 458 166 430Q147 403 147 367Q147 330 166 304Q188 275 220 275Q238 275 238 293Q238 312 220 312Q183 312 183 367Q183 422 220 422Z" fill="#000000" />
<path d="M566 207Q573 220 561 227Q548 235 541 222Q507 161 552 108Q597 55 662 78Q727 102 728 171Q728 186 714 186Q705 186 701 179Q698 175 696 171Q688 160 697 152Q688 119 652 106Q606 89 574 127Q542 164 566 207Z" fill="#000000" />
<path d="M542 411Q536 407 535 402Q534 397 539 391Q547 379 559 388Q605 421 590 476Q575 531 519 536Q462 541 437 490Q431 476 444 470Q452 466 459 471Q462 473 465 475Q476 481 473 491Q488 509 516 507Q552 503 562 468Q572 433 542 411Z" fill="#000000" />
<path d="M847 299Q833 303 829 289Q826 275 840 271Q853 267 864 274Q876 281 879 294L884 318Q960 391 918 488Q912 516 884 523Q877 525 873 522Q868 520 867 513Q863 499 877 495Q887 492 889 482Q889 480 890 478Q927 397 861 336Q858 333 857 329L850 301Q850 300 849 300Q848 299 847 299Z" fill="#000000" />
<path d="M840 274 832 241Q839 239 842 233Q846 227 844 220Q843 213 836 209Z" fill="#000000" />
<path d="M829 222Q816 215 823 202Q830 189 843 196Q855 203 858 217Q862 230 855 241Q852 245 849 249L854 271Q858 285 843 289Q829 292 826 278L817 245Q817 244 817 244Q814 230 828 227Q829 226 830 226Q830 225 830 224Q830 224 830 224Q830 222 829 222Z" fill="#000000" />
<path d="M697 675Q682 675 682 660Q682 645 697 645Q737 645 737 605Q737 588 725 576Q713 565 697 565Q682 565 682 550Q682 535 697 535Q726 535 746 556Q766 576 766 605Q766 634 746 654Q726 675 697 675Z" fill="#000000" />
<path d="M706 343Q721 343 721 357Q721 372 706 372Q684 372 684 394Q684 416 706 416Q721 416 721 431Q721 445 706 445Q655 445 655 394Q655 343 706 343Z" fill="#000000" />
<path d="M458 260Q473 260 473 275Q473 290 458 290Q436 290 436 312Q436 334 458 334Q473 334 473 348Q473 363 458 363Q407 363 407 312Q407 290 422 275Q437 260 458 260Z" fill="#000000" />
</g></svg>