<svg xmlns="http://www.w3.org/2000/svg" viewBox="0 0 2048 2048">
<g transform="matrix(1 0 0 -1 0 2048)">
<path d="M655 333 562 232Q535 201 502.0 190.5Q469 180 436 200Q404 219 395.5 256.0Q387 293 405 326L419 350L427 363L391 384Q358 403 346.5 441.0Q335 479 355 512Q374 544 408.0 549.0Q442 554 479 544L503 537Q525 531 540.5 547.5Q556 564 548 586L533 623Q527 637 521.0 651.5Q515 666 509 681Q496 710 496.0 737.5Q496 765 517 787Q544 816 584.0 814.5Q624 813 651 786L670 767L680 757L710 786Q737 813 777.0 814.5Q817 816 843 788Q865 765 865.0 737.5Q865 710 852 680Q846 666 840.0 652.0Q834 638 828 623L813 585Q805 563 820.5 546.5Q836 530 858 536L885 544Q923 554 957.0 549.0Q991 544 1010 512Q1029 479 1018.0 441.0Q1007 403 974 384L938 363L945 350L959 326Q978 293 969.5 256.0Q961 219 929 200Q896 180 862.5 190.5Q829 201 802 232L709 333Q698 344 682.0 344.0Q666 344 655 333Z" fill="#5c9e31" />
<path d="M669 319Q675 325 683 325Q691 325 696 319L789 218Q862 136 938 183Q977 206 987 251Q998 295 975 334L963 355L983 367Q1023 390 1036 435Q1049 480 1026 520Q986 586 881 561Q881 561 881 561L853 552Q842 549 834 558Q826 566 830 577L845 615Q851 629 863 658Q867 667 869 672Q903 750 857 799Q825 832 777 831Q730 830 697 797L681 781L665 797Q631 830 585 831Q536 832 504 799Q458 750 492 672Q494 667 498 658Q511 629 516 615L531 578Q535 567 527 558Q519 550 508 553L485 561Q484 561 484 561Q379 586 339 520Q316 480 329 435Q342 390 382 367L402 355L390 334Q367 295 377 251Q388 206 427 183Q503 136 576 218ZM642 344 549 243Q496 183 446 214Q384 251 422 315L435 339L443 353Q452 368 436 378L400 399Q373 414 364 445Q355 476 371 501Q396 544 474 525L498 518Q531 508 554 533Q577 559 565 591L550 628Q545 643 532 673Q528 682 526 686Q502 743 531 773Q552 795 584 795Q616 794 639 771L657 753L668 742Q681 729 694 742L723 771Q745 794 777 795Q809 795 830 773Q860 743 836 686Q834 682 830 673Q817 643 811 628L796 590Q784 558 807 533Q830 508 863 517L890 525Q969 544 994 501Q1010 476 1001 445Q992 414 965 399L929 378Q913 368 922 353L929 339L943 315Q981 251 919 214Q869 183 816 243L723 344Q707 361 683 361Q658 361 642 344Z" fill="#000000" />
<path d="M694 225Q707 238 694 250Q681 263 668 250Q515 92 556 -146Q558 -155 563 -159Q569 -162 578 -161Q596 -158 592 -140Q554 79 694 225Z" fill="#000000" />
</g></svg>