<svg xmlns="http://www.w3.org/2000/svg" viewBox="0 0 2048 2048">
<g transform="matrix(1 0 0 -1 0 2048)">
<path d="M665 -17Q625 -17 597.0 18.0Q569 53 569 103Q569 152 597.0 187.0Q625 222 665 222Q705 222 733.0 187.0Q761 152 761 103Q761 53 733.0 18.0Q705 -17 665 -17Z" fill="#000000" />
<path d="M317 565Q427 615 545.0 631.5Q663 648 781.0 632.0Q899 616 1009 567Q975 550 936 548Q927 547 926 542Q922 519 889.5 503.0Q857 487 813 487Q791 487 770 492Q762 494 756 490Q688 450 609 452Q540 452 487.5 475.5Q435 499 423 533Q421 538 411 539Q361 540 317 565Z" fill="#f1b31c" />
<path d="M665 -92Q587 -92 516.0 -64.5Q445 -37 387.5 13.0Q330 63 293 132Q256 201 246.5 276.5Q237 352 254.5 426.5Q272 501 316 565Q360 539 411 538Q421 538 422 533Q435 499 487.5 475.5Q540 452 608 452Q687 450 756 490Q762 494 770 492Q791 487 813 487Q857 487 889.5 503.0Q922 519 926 542Q926 547 936 548Q977 550 1012 569Q1057 505 1075.0 430.5Q1093 356 1084.0 279.5Q1075 203 1039 134Q1002 64 944.5 13.5Q887 -37 815.5 -64.5Q744 -92 665 -92Z" fill="#fcea2b" />
<path d="M665 -17Q625 -17 597.0 18.0Q569 53 569 103Q569 152 597.0 187.0Q625 222 665 222Q705 222 733.0 187.0Q761 152 761 103Q761 53 733.0 18.0Q705 -17 665 -17Z" fill="#000000" />
<path d="M427 763Q430 783 459.5 797.0Q489 811 530 811Q550 811 570 807Q576 806 582 809Q645 844 717 842Q780 842 828.0 821.5Q876 801 888 771Q890 767 898 766Q950 764 986.0 742.5Q1022 721 1022 691Q1022 659 983.0 637.0Q944 615 889 615H892Q869 594 857 565Q842 528 836 489Q824 487 813 488Q791 487 769 492Q762 494 756 490Q687 450 608 452Q551 452 497 471Q496 476 496 480Q490 524 474 565Q461 594 438 615H429Q379 615 343.5 636.0Q308 657 308 686Q308 715 339.5 735.5Q371 756 417 758Q426 759 427 763Z" fill="#ffffff" />
<path d="M885.5 348.125Q885.5 359.5 881.25 369.5Q877.0 379.5 869.4375 387.0625Q861.875 394.625 851.875 398.875Q841.875 403.125 830.5 403.125Q819.125 403.125 809.125 398.875Q799.125 394.625 791.5625 387.0625Q784.0 379.5 779.75 369.5Q775.5 359.5 775.5 348.125Q775.5 336.75 779.75 326.75Q784.0 316.75 791.5625 309.1875Q799.125 301.625 809.125 297.375Q819.125 293.125 830.5 293.125Q841.875 293.125 851.875 297.375Q861.875 301.625 869.4375 309.1875Q877.0 316.75 881.25 326.75Q885.5 336.75 885.5 348.125Z" fill="#000000" />
<path d="M555.5 348.125Q555.5 359.5 551.25 369.5Q547.0 379.5 539.4375 387.0625Q531.875 394.625 521.875 398.875Q511.875 403.125 500.5 403.125Q489.125 403.125 479.125 398.875Q469.125 394.625 461.5625 387.0625Q454.0 379.5 449.75 369.5Q445.5 359.5 445.5 348.125Q445.5 336.75 449.75 326.75Q454.0 316.75 461.5625 309.1875Q469.125 301.625 479.125 297.375Q489.125 293.125 500.5 293.125Q511.875 293.125 521.875 297.375Q531.875 301.625 539.4375 309.1875Q547.0 316.75 551.25 326.75Q555.5 336.75 555.5 348.125Z" fill="#000000" />
<path d="M665 -110Q788 -110 893 -47Q998 17 1055 125Q1112 234 1104 356Q1097 479 1027 580Q1018 593 1004 585Q972 568 935 566Q911 565 907 545Q901 506 813 506Q793 506 773 510Q759 513 746 506Q683 468 609 471Q609 471 608 471Q465 471 440 539Q434 556 412 557Q365 558 325 581Q310 590 300 576Q232 475 226 353Q220 231 277 123Q334 15 439 -47Q542 -110 663 -110Q664 -110 665 -110ZM668 -74Q667 -73 665 -73Q553 -73 458 -16Q362 42 309 140Q257 239 262 351Q268 454 322 541Q362 522 408 520Q445 434 608 434Q692 431 765 474Q765 474 766 474Q789 469 813 469Q924 469 942 530Q975 532 1006 546Q1062 458 1068 354Q1075 242 1022 142Q970 43 874 -15Q779 -73 668 -74Z" fill="#000000" />
<path d="M665 -36Q714 -36 748 6Q780 46 780 103Q780 159 748 199Q714 241 665 241Q617 241 583 199Q551 159 551 103Q551 46 583 6Q617 -36 665 -36ZM665 1Q634 1 612 29Q587 59 587 103Q587 146 612 176Q634 204 665 204Q696 204 719 176Q743 146 743 103Q743 59 719 29Q696 1 665 1Z" fill="#000000" />
<path d="M411 776Q363 772 330 750Q290 724 290 686Q290 646 334 620Q374 596 429 596H431Q447 580 457 558Q472 519 477 477Q478 477 478 476L479 468Q481 458 491 454Q548 434 608 434Q692 431 765 474Q765 474 765 474Q789 469 813 469Q825 469 838 471Q852 472 854 486Q860 523 874 558Q883 580 900 596Q953 598 992 621Q1040 649 1040 691Q1040 731 996 758Q957 782 902 785Q867 860 718 860Q641 862 573 825Q552 830 530 829Q428 829 411 776ZM445 760Q445 760 445 760Q451 793 530 793Q548 793 566 789Q579 786 591 793Q650 826 717 823Q717 823 717 823Q848 823 871 765Q877 749 898 748Q945 746 976 727Q1004 710 1004 691Q1004 670 974 653Q939 633 889 633Q874 633 872 620Q852 599 840 573Q840 572 840 572Q827 540 821 506Q817 506 812 506Q793 506 774 510Q759 513 746 506Q683 468 609 471Q609 471 608 471Q559 470 513 485Q507 530 491 572Q491 572 490 573Q476 604 451 628Q445 633 438 633H429Q384 633 353 651Q327 667 327 686Q327 735 418 740Q441 741 445 760Z" fill="#000000" />
<path d="M439 594 433 631Q365 619 307 582L327 551Q379 584 439 594Z" fill="#000000" />
<path d="M888 631 882 594Q948 585 1004 551L1023 582Q960 620 888 631Z" fill="#000000" />
<path d="M443 632 433 597Q545 565 589 620Q620 602 669 604Q713 606 742 622Q760 601 796 591Q848 577 899 597L886 632Q846 616 806 626Q772 636 763 655Q762 657 760 659Q755 666 748 666Q742 667 735 661Q713 643 667 641Q619 638 597 660Q595 662 592 663Q584 667 578 665Q572 663 568 655Q542 604 443 632Z" fill="#000000" />
</g></svg>