<svg xmlns="http://www.w3.org/2000/svg" viewBox="0 0 2048 2048">
<g transform="matrix(1 0 0 -1 0 2048)">
<path d="M672 263Q707 263 725.5 253.5Q744 244 744 229Q744 222 749.5 203.0Q755 184 762.0 163.0Q769 142 774.5 127.0Q780 112 780 112H1038V697H305V112H563Q563 112 568.5 127.0Q574 142 581.0 163.0Q588 184 593.5 203.0Q599 222 599 229Q599 244 617.5 253.5Q636 263 671 263Z" fill="#d0cfce" />
<path d="M312 715V605H1027V715Z" fill="#3f3f3f" />
<path d="M660 587Q646 582 643.5 573.0Q641 564 641.5 553.5Q642 543 639.5 532.5Q637 522 623 513Z" fill="#d0cfce" />
<path d="M678 587Q697 580 702.5 564.0Q708 548 713.0 529.0Q718 510 733 495Z" fill="#d0cfce" />
<path d="M678.51025390625 577.365478515625Q678.51025390625 579.255859375 677.793212890625 580.9180908203125Q677.076171875 582.580322265625 675.81591796875 583.840576171875Q674.5556640625 585.100830078125 672.8934326171875 585.81787109375Q671.231201171875 586.534912109375 669.3408203125 586.534912109375Q667.450439453125 586.534912109375 665.7882080078125 585.81787109375Q664.1259765625 585.100830078125 662.86572265625 583.840576171875Q661.60546875 582.580322265625 660.888427734375 580.9180908203125Q660.17138671875 579.255859375 660.17138671875 577.365478515625Q660.17138671875 575.47509765625 660.888427734375 573.8128662109375Q661.60546875 572.150634765625 662.86572265625 570.890380859375Q664.1259765625 569.630126953125 665.7882080078125 568.9130859375Q667.450439453125 568.196044921875 669.3408203125 568.196044921875Q671.231201171875 568.196044921875 672.8934326171875 568.9130859375Q674.5556640625 569.630126953125 675.81591796875 570.890380859375Q677.076171875 572.150634765625 677.793212890625 573.8128662109375Q678.51025390625 575.47509765625 678.51025390625 577.365478515625Z" fill="#d0cfce" />
<path d="M626 237Q641 244 671 244H672Q725 244 725 229Q725 206 763 105Q768 93 780 93H1038Q1056 93 1056 112V716Q1056 734 1038 734H305Q286 734 286 716V112Q286 93 305 93H563Q575 93 580 105Q618 206 618 229Q618 233 626 237ZM733 270Q710 281 672 281H671Q633 281 610 270Q581 256 581 229Q581 214 550 130H323V697H1020V130H793Q762 214 762 229Q762 256 733 270Z" fill="#000000" />
<path d="M514 561Q515 580 497 581Q478 582 477 563Q476 531 458 486Q421 393 337 330Q322 319 333 304Q338 297 345 296Q351 295 359 301Q451 370 492 472Q512 523 514 561Z" fill="#000000" />
<path d="M861 563Q860 572 856 577Q851 581 842 581Q823 580 824 561Q826 523 847 472Q887 370 980 301Q994 290 1005 304Q1016 319 1002 330Q918 393 881 486Q862 531 861 563Z" fill="#000000" />
<path d="M312 623Q293 623 293 605Q293 587 312 587H1027Q1045 587 1045 605Q1045 623 1027 623Z" fill="#000000" />
<path d="M615 526Q603 518 611 505Q619 493 631 501Q656 517 656 554Q656 570 665 573Q672 575 674 580Q676 585 674 592Q669 605 655 600Q627 590 627 554Q627 533 615 526Z" fill="#000000" />
<path d="M723 485Q733 474 744 485Q754 495 744 505Q733 517 724 546Q711 591 683 600Q669 605 665 592Q662 585 664 580Q666 575 673 573Q687 568 696 538Q707 501 723 485Z" fill="#000000" />
<path d="M693 578Q693 587 686 594Q679 601 669 601Q645 601 645 578Q645 554 669 554Q693 554 693 578ZM664 578Q664 583 669 583Q675 583 675 578Q675 572 669 572Q664 572 664 578Z" fill="#000000" />
</g></svg>