<svg xmlns="http://www.w3.org/2000/svg" viewBox="0 0 2048 2048">
<g transform="matrix(1 0 0 -1 0 2048)">
<path d="M743 735Q785 565 792.0 386.0Q799 207 762 32Q674 7 585 27Q529 40 478 66Q493 66 493 81V158Q493 178 480.0 196.0Q467 214 455 228L453 230Q405 285 386.0 354.5Q367 424 379 495Q392 572 439 634Q502 718 606 741Q634 747 663 747Q704 747 743 735Z" fill="#ffffff" />
<path d="M861.421875 663.4295654296875Q904.97314453125 619.040771484375 928.0050659179688 564.1829223632812Q951.0369873046875 509.3250732421875 952.7120361328125 450.27960205078125Q954.3870849609375 391.234130859375 935.1240234375 334.70123291015625Q915.8609619140625 278.1683349609375 875.6597900390625 231.2669677734375Q873.147216796875 228.75439453125 868.9595947265625 224.5667724609375Q857.2342529296875 211.1663818359375 844.67138671875 193.99713134765625Q832.1085205078125 176.827880859375 832.1085205078125 158.40234375L832.946044921875 82.1876220703125Q832.946044921875 75.4874267578125 837.5524291992188 71.2998046875Q842.1588134765625 67.1121826171875 848.8590087890625 67.1121826171875Q807.8203125 44.4990234375 762.593994140625 31.9361572265625Q799.445068359375 206.978759765625 792.3261108398438 386.208984375Q785.2071533203125 565.439208984375 743.3309326171875 734.619140625Q811.17041015625 713.6810302734375 861.421875 663.4295654296875Z" fill="#d0cfce" />
<path d="M538.5581665039062 399.32421875Q553.6971435546875 399.32421875 567.0090026855469 393.58184814453125Q580.3208618164062 387.8394775390625 590.4135131835938 377.746826171875Q600.5061645507812 367.6541748046875 606.24853515625 354.4293212890625Q611.9909057617188 341.2044677734375 611.9909057617188 325.8914794921875Q611.9909057617188 310.75250244140625 606.24853515625 297.4406433105469Q600.5061645507812 284.1287841796875 590.4135131835938 274.0361328125Q580.3208618164062 263.9434814453125 567.0090026855469 258.2881164550781Q553.6971435546875 252.63275146484375 538.5581665039062 252.63275146484375Q523.419189453125 252.63275146484375 510.1073303222656 258.2881164550781Q496.79547119140625 263.9434814453125 486.70281982421875 274.0361328125Q476.61016845703125 284.1287841796875 470.8677978515625 297.4406433105469Q465.12542724609375 310.75250244140625 465.12542724609375 325.8914794921875Q465.12542724609375 341.2044677734375 470.8677978515625 354.4293212890625Q476.61016845703125 367.6541748046875 486.70281982421875 377.746826171875Q496.79547119140625 387.8394775390625 510.1073303222656 393.58184814453125Q523.419189453125 399.32421875 538.5581665039062 399.32421875Z" fill="#3f3f3f" />
<path d="M789.5581665039062 399.32421875Q804.6971435546875 399.32421875 818.0090026855469 393.58184814453125Q831.3208618164062 387.8394775390625 841.4135131835938 377.746826171875Q851.5061645507812 367.6541748046875 857.24853515625 354.4293212890625Q862.9909057617188 341.2044677734375 862.9909057617188 325.8914794921875Q862.9909057617188 310.75250244140625 857.24853515625 297.4406433105469Q851.5061645507812 284.1287841796875 841.4135131835938 274.0361328125Q831.3208618164062 263.9434814453125 818.0090026855469 258.2881164550781Q804.6971435546875 252.63275146484375 789.5581665039062 252.63275146484375Q774.419189453125 252.63275146484375 761.1073303222656 258.2881164550781Q747.7954711914062 263.9434814453125 737.7028198242188 274.0361328125Q727.6101684570312 284.1287841796875 721.8677978515625 297.4406433105469Q716.1254272460938 310.75250244140625 716.1254272460938 325.8914794921875Q716.1254272460938 341.2044677734375 721.8677978515625 354.4293212890625Q727.6101684570312 367.6541748046875 737.7028198242188 377.746826171875Q747.7954711914062 387.8394775390625 761.1073303222656 393.58184814453125Q774.419189453125 399.32421875 789.5581665039062 399.32421875Z" fill="#3f3f3f" />
<path d="M912 734Q928 750 938.5 760.0Q949 770 952 774Q952 774 940.5 783.5Q929 793 920.5 808.5Q912 824 924 841Q932 854 948.0 863.0Q964 872 982.0 872.0Q1000 872 1015 858Q1029 845 1033.5 825.0Q1038 805 1032 785Q1064 791 1087.5 775.0Q1111 759 1113 738Q1115 722 1105.0 705.5Q1095 689 1076 684Q1064 680 1050.0 687.0Q1036 694 1026.0 702.0Q1016 710 1016 710Q1009 703 972 666Z" fill="#ffffff" />
<path d="M409 105Q394 90 384.0 80.5Q374 71 370 67Q393 51 398.0 34.5Q403 18 396 3Q390 -11 374.0 -20.0Q358 -29 339.0 -28.5Q320 -28 305 -14Q291 -1 286.5 19.0Q282 39 288 59Q256 53 232.5 68.5Q209 84 207 106Q205 122 215.0 138.5Q225 155 244 160Q262 166 280.0 158.0Q298 150 307 132Q316 140 361 185Z" fill="#ffffff" />
<path d="M412 729Q395 747 383.5 758.5Q372 770 368 774Q368 774 379.5 783.5Q391 793 399.5 808.5Q408 824 396 841Q388 854 372.0 863.0Q356 872 338.0 872.0Q320 872 305 858Q291 845 286.5 825.0Q282 805 288 785Q256 791 232.5 775.5Q209 760 207 738Q205 722 215.0 705.5Q225 689 244 684Q256 680 270.0 687.0Q284 694 294.0 702.0Q304 710 304 710Q311 703 350 664Z" fill="#ffffff" />
<path d="M912 105Q943 74 950 67Q927 51 922.0 34.5Q917 18 924 3Q930 -11 946.0 -20.0Q962 -29 981.0 -28.5Q1000 -28 1015 -14Q1029 -1 1033.5 19.0Q1038 39 1032 59Q1064 53 1087.5 68.5Q1111 84 1113 106Q1115 122 1105.0 138.5Q1095 155 1076 160Q1058 166 1040.0 158.0Q1022 150 1013 132Q1004 141 962 182Z" fill="#ffffff" />
<path d="M830 83Q830 64 848 65Q867 65 866 83L865 159Q865 171 894 202Q898 207 900 210Q987 309 986 441Q986 581 892 681Q797 781 663 781Q631 781 599 774Q502 755 432 679Q363 603 346 501Q317 335 428 209Q428 208 430 206Q460 173 460 159L459 82Q459 64 478 64Q487 64 491 68Q496 73 496 82V159Q496 187 457 231Q456 232 455 233Q356 346 382 495Q397 586 459 654Q521 721 606 739Q634 744 663 744Q781 745 865 656Q949 567 949 440Q950 323 873 234Q871 232 866 227Q829 185 829 159Z" fill="#000000" />
<path d="M557.0 109.0Q557.0 127.0 538.0 127.0Q520.0 127.0 520.0 109.0V36.0Q520.0 17.0 538.0 17.0Q557.0 17.0 557.0 36.0Z" fill="#000000" />
<path d="M645.0 92.0Q645.0 110.0 626.0 110.0Q608.0 110.0 608.0 92.0V19.0Q608.0 0.0 626.0 0.0Q645.0 0.0 645.0 19.0Z" fill="#000000" />
<path d="M808.0 109.0Q808.0 127.0 789.0 127.0Q771.0 127.0 771.0 109.0V36.0Q771.0 17.0 789.0 17.0Q808.0 17.0 808.0 36.0Z" fill="#000000" />
<path d="M729.0 92.0Q729.0 110.0 710.0 110.0Q692.0 110.0 692.0 92.0V19.0Q692.0 0.0 710.0 0.0Q729.0 0.0 729.0 19.0Z" fill="#000000" />
<path d="M601 160Q593 143 610 135Q626 127 634 143L664 203L701 142Q710 126 726 136Q742 145 732 161L679 251Q676 255 671 258Q655 266 647 249Z" fill="#000000" />
<path d="M634 326Q634 366 606 394Q578 421 538 421Q499 421 471 394Q443 366 443 326Q443 287 471 259Q499 231 538 231Q578 231 606 259Q634 287 634 326ZM597 326Q597 268 538 268Q480 268 480 326Q480 385 538 385Q563 385 580 368Q597 351 597 326Z" fill="#000000" />
<path d="M885 326Q885 366 857 394Q829 421 789 421Q750 421 722 394Q694 366 694 326Q694 287 722 259Q750 231 789 231Q829 231 857 259Q885 287 885 326ZM848 326Q848 268 789 268Q765 268 748 285Q731 302 731 326Q731 351 748 368Q765 385 789 385Q814 385 831 368Q848 351 848 326Z" fill="#000000" />
<path d="M959 679Q946 666 959 653Q972 640 985 653L1017 685Q1052 657 1081 666Q1138 683 1132 740Q1128 771 1097 791Q1077 804 1054 805Q1056 844 1028 871Q999 898 959 887Q926 878 908 851Q887 818 915 783Q920 777 925 772L900 747Q887 734 899 721Q912 708 925 721L965 761Q967 762 968 764Q978 779 962 789Q952 796 944 806Q932 821 939 831Q949 847 969 852Q989 857 1003 844Q1024 824 1014 789Q1013 785 1014 781Q1018 763 1036 767Q1059 771 1078 760Q1094 750 1095 736Q1098 709 1071 701Q1057 697 1029 723Q1016 735 1003 723Z" fill="#000000" />
<path d="M374 172Q387 185 374 198Q367 204 361 204Q354 205 348 198L310 161Q284 191 239 178Q182 161 188 104Q192 72 223 53Q243 40 266 39Q264 0 292 -27Q321 -54 362 -44Q400 -35 413 -4Q430 35 397 68L422 92Q435 105 422 118Q415 125 409 125Q402 125 396 119L357 80Q356 79 355 78Q344 63 359 52Q388 31 380 10Q374 -4 353 -9Q332 -14 317 0Q296 19 306 55Q307 59 306 63Q302 81 284 77Q261 72 242 84Q226 94 225 108Q222 135 249 143Q277 151 291 124Q292 121 294 119Q301 113 307 113Q314 113 320 119Z" fill="#000000" />
<path d="M337 651Q344 644 350 644Q357 644 363 651Q376 664 363 677L317 723Q304 735 291 723Q263 697 249 701Q222 709 225 736Q226 750 242 760Q261 771 284 767Q293 765 299 768Q304 772 306 781Q307 785 306 789Q296 824 317 844Q331 857 351 852Q371 847 381 831Q388 821 376 806Q368 796 358 789Q342 779 352 764Q353 762 355 761L400 716Q413 703 426 716Q438 730 425 742L395 772Q400 777 405 783Q433 818 412 851Q394 878 361 887Q321 898 292 871Q264 844 266 805Q243 804 223 791Q192 771 188 740Q182 683 239 666Q268 657 303 685Z" fill="#000000" />
<path d="M975 195Q962 208 949 195Q937 182 950 169L1000 119Q1013 106 1026 119Q1028 121 1029 124Q1043 151 1071 143Q1098 135 1095 108Q1094 94 1078 84Q1059 72 1036 77Q1018 81 1014 63Q1013 59 1014 55Q1024 19 1003 0Q988 -14 967 -9Q946 -4 940 10Q932 31 961 52Q976 63 965 78Q964 79 963 80L925 118Q912 131 899 118Q886 105 899 92L923 68Q890 35 907 -4Q920 -35 958 -44Q999 -54 1028 -27Q1056 0 1054 39Q1077 40 1097 53Q1128 72 1132 104Q1138 161 1081 178Q1036 191 1010 161Z" fill="#000000" />
</g></svg>