<svg xmlns="http://www.w3.org/2000/svg" viewBox="0 0 2048 2048">
<g transform="matrix(1 0 0 -1 0 2048)">
<path d="M1081.144287109375 384.95050048828125Q1081.144287109375 472.156982421875 1048.5616455078125 548.822021484375Q1015.97900390625 625.487060546875 958.0010681152344 683.4649963378906Q900.0231323242188 741.4429321289062 823.3580932617188 774.0255737304688Q746.6930541992188 806.6082153320312 659.486572265625 806.6082153320312Q572.2800903320312 806.6082153320312 495.61505126953125 774.0255737304688Q418.95001220703125 741.4429321289062 360.9720764160156 683.4649963378906Q302.994140625 625.487060546875 270.4114990234375 548.822021484375Q237.828857421875 472.156982421875 237.828857421875 384.95050048828125Q237.828857421875 297.7440185546875 270.4114990234375 221.0789794921875Q302.994140625 144.4139404296875 360.9720764160156 86.43600463867188Q418.95001220703125 28.45806884765625 495.61505126953125 -4.12457275390625Q572.2800903320312 -36.70721435546875 659.486572265625 -36.70721435546875Q746.6930541992188 -36.70721435546875 823.3580932617188 -4.12457275390625Q900.0231323242188 28.45806884765625 958.0010681152344 86.43600463867188Q1015.97900390625 144.4139404296875 1048.5616455078125 221.0789794921875Q1081.144287109375 297.7440185546875 1081.144287109375 384.95050048828125Z" fill="#fcea2b" />
<path d="M817 198Q831 183 851.0 179.5Q871 176 890 184Q909 192 920.0 209.0Q931 226 931 247Q930 276 915.5 302.5Q901 329 886.5 346.0Q872 363 871 364Q867 367 862 367Q857 367 853 364Q852 362 837.5 345.0Q823 328 809.5 301.0Q796 274 796 245Q797 217 817 198Z" fill="#92d3f5" />
<path d="M1100 385Q1100 567 971 696Q842 825 660 825Q478 825 349 696Q220 567 220 385Q220 203 349 74Q478 -55 660 -55Q842 -55 971 74Q1100 203 1100 385ZM1063 385Q1063 218 945 100Q827 -18 660 -18Q493 -18 375 100Q257 218 257 385Q257 552 375 670Q493 788 660 788Q827 788 945 670Q1063 552 1063 385Z" fill="#000000" />
<path d="M817 189Q834 197 826 213Q819 230 802 223Q642 151 489 237Q473 246 464 230Q460 222 461 216Q463 210 471 205Q640 110 817 189Z" fill="#000000" />
<path d="M550 476Q550 499 534.0 515.0Q518 531 495 531Q472 531 456.0 515.0Q440 499 440 476Q440 454 456.0 437.5Q472 421 495 421Q518 421 534.0 437.5Q550 454 550 476Z" fill="#000000" />
<path d="M880 476Q880 499 864.0 515.0Q848 531 825 531Q802 531 786.0 515.0Q770 499 770 476Q770 454 786.0 437.5Q802 421 825 421Q848 421 864.0 437.5Q880 454 880 476Z" fill="#000000" />
<path d="M804 185Q845 145 897 167Q950 190 949 247Q948 314 884 377Q875 386 862 386Q849 386 840 376Q777 312 778 245Q778 209 804 185ZM829 211Q815 225 815 245Q814 295 862 347Q912 296 912 246Q913 214 883 201Q853 188 829 211Z" fill="#000000" />
</g></svg>