<svg xmlns="http://www.w3.org/2000/svg" viewBox="0 0 2048 2048">
<g transform="matrix(1 0 0 -1 0 2048)">
<path d="M1081.7703247070312 384.56427001953125Q1081.7703247070312 472.137939453125 1049.040771484375 548.6543273925781Q1016.3112182617188 625.1707153320312 958.3710632324219 683.1108703613281Q900.430908203125 741.051025390625 823.9145202636719 773.7805786132812Q747.3981323242188 806.5101318359375 659.824462890625 806.5101318359375Q572.2507934570312 806.5101318359375 495.7344055175781 773.7805786132812Q419.218017578125 741.051025390625 361.2778625488281 683.1108703613281Q303.33770751953125 625.1707153320312 270.608154296875 548.6543273925781Q237.87860107421875 472.137939453125 237.87860107421875 384.56427001953125Q237.87860107421875 296.9906005859375 270.608154296875 220.47421264648438Q303.33770751953125 143.95782470703125 361.2778625488281 86.01766967773438Q419.218017578125 28.0775146484375 495.7344055175781 -4.65203857421875Q572.2507934570312 -37.381591796875 659.824462890625 -37.381591796875Q747.3981323242188 -37.381591796875 823.9145202636719 -4.65203857421875Q900.430908203125 28.0775146484375 958.3710632324219 86.01766967773438Q1016.3112182617188 143.95782470703125 1049.040771484375 220.47421264648438Q1081.7703247070312 296.9906005859375 1081.7703247070312 384.56427001953125Z" fill="#fcea2b" />
<path d="M928 282 924 280Q847 261 770.5 255.5Q694 250 626.5 253.0Q559 256 506.5 263.0Q454 270 424.0 276.0Q394 282 394 282H392Q392 240 408 202Q422 198 469.5 190.0Q517 182 587.5 176.5Q658 171 742.0 174.5Q826 178 912 199Q928 239 928 282Z" fill="#ffffff" />
<path d="M912 199Q826 178 742.0 174.5Q658 171 587.5 176.5Q517 182 469.5 190.0Q422 198 408 202Q432 142 495.5 104.5Q559 67 661 67Q762 67 824.5 104.0Q887 141 912 199Z" fill="#ea5a47" />
<path d="M1100 385Q1100 567 971 696Q842 825 660 825Q478 825 349 696Q220 567 220 385Q220 203 349 74Q478 -55 660 -55Q842 -55 971 74Q1100 203 1100 385ZM1063 385Q1063 218 945 100Q827 -18 660 -18Q493 -18 375 100Q257 218 257 385Q257 552 375 670Q493 788 660 788Q827 788 945 670Q1063 552 1063 385Z" fill="#000000" />
<path d="M946 282Q946 285 945 288Q938 305 921 299L919 298Q761 259 564 275Q465 283 399 299Q397 300 394 300H392Q374 300 374 282Q374 237 391 195Q394 186 404 184Q673 122 916 181Q925 184 929 192Q946 235 946 282ZM908 258Q905 236 898 215Q671 162 421 217Q414 238 412 259Q475 246 561 238Q752 223 908 258Z" fill="#000000" />
<path d="M929 192Q931 198 929 204Q925 221 907 217Q672 160 412 220Q406 221 401 219Q384 212 391 195Q450 48 661 48Q868 48 929 192ZM876 173Q816 85 661 85Q502 85 442 176Q668 131 876 173Z" fill="#000000" />
<path d="M564 443Q572 427 589 434Q605 442 598 458Q570 521 502 521Q434 521 406 458Q398 442 415 434Q432 427 439 443Q457 484 502 484Q546 484 564 443Z" fill="#000000" />
<path d="M881 443Q888 427 905 434Q913 438 915 444Q918 450 914 458Q886 521 818 521Q750 521 722 458Q718 450 721 444Q723 438 732 434Q748 427 756 443Q774 484 818 484Q863 484 881 443Z" fill="#000000" />
</g></svg>