<svg xmlns="http://www.w3.org/2000/svg" viewBox="0 0 2048 2048">
<g transform="matrix(1 0 0 -1 0 2048)">
<path d="M1076 150Q1092 189 1100.0 231.5Q1108 274 1108 319L1040 940L834 737Q794 754 750.0 763.5Q706 773 660 773H640Q594 773 550.0 763.5Q506 754 466 737L260 940L193 329Q193 284 203.0 237.5Q213 191 229 152L231 146Q256 84 300.5 33.0Q345 -18 402.5 -54.0Q460 -90 523.5 -109.0Q587 -128 650 -128Q747 -128 831.5 -93.5Q916 -59 979.5 3.5Q1043 66 1076 150Z" fill="#f4aa41" />
<path d="M1040 940 1127 340Q1127 295 1117.0 244.0Q1107 193 1091 153L1089 149Q1056 66 989.5 2.0Q923 -62 835.0 -96.5Q747 -131 650 -128Z" fill="#e27022" />
<path d="M1010 429Q1010 429 1005.5 410.5Q1001 392 990.5 365.0Q980 338 962.0 313.0Q944 288 917.0 273.5Q890 259 853.0 265.0Q816 271 767 307Q786 380 810.5 418.0Q835 456 862.5 468.5Q890 481 916.0 477.0Q942 473 963.5 461.5Q985 450 997.5 439.5Q1010 429 1010 429Z" fill="#ffffff" />
<path d="M310 429Q310 429 314.5 410.5Q319 392 329.5 365.0Q340 338 358.0 313.0Q376 288 403.0 273.5Q430 259 467.0 265.0Q504 271 553 307Q534 380 509.5 418.0Q485 456 457.5 468.5Q430 481 404.0 477.0Q378 473 356.5 461.5Q335 450 322.5 439.5Q310 429 310 429Z" fill="#ffffff" />
<path d="M469 155Q469 155 478.0 142.5Q487 130 500.0 112.5Q513 95 525.0 79.5Q537 64 544 58Q602 4 670.5 2.5Q739 1 794 60Q800 66 810.5 81.5Q821 97 832.0 114.0Q843 131 850.5 143.5Q858 156 858 156Q858 156 842.5 149.5Q827 143 802.5 137.5Q778 132 750.5 135.0Q723 138 698.5 155.5Q674 173 660 213Q646 173 622.5 155.0Q599 137 572.5 134.5Q546 132 522.5 137.5Q499 143 484.0 149.0Q469 155 469 155Z" fill="#ea5a47" />
<path d="M1023 440Q976 487 918 494Q799 508 750 310Q747 299 756 291Q892 189 976 301Q1001 334 1017 382Q1022 397 1026 412Q1027 416 1028 421H1027L1028 424Q1030 434 1023 440ZM914 458Q955 453 990 421Q990 421 990 420Q987 407 982 394Q968 351 947 323Q888 244 788 313Q830 468 914 458ZM992 431Q992 431 992 431Z" fill="#000000" />
<path d="M1128 37Q1144 28 1153 44Q1162 60 1146 69L974 164Q958 173 949 157Q940 141 956 132Z" fill="#000000" />
<path d="M1052 -58Q1068 -67 1077 -51Q1086 -35 1070 -26L898 69Q882 78 873 62Q864 46 880 37Z" fill="#000000" />
<path d="M227 158Q230 150 236 147Q242 145 251 148Q268 155 261 172Q230 247 230 328L293 890L467 720Q476 712 487 716Q565 749 650 749H670Q755 749 833 716Q844 712 853 720L1027 890L1090 328Q1090 247 1059 172Q1052 155 1069 148Q1086 141 1093 158Q1126 240 1126 329Q1126 330 1126 331L1060 932Q1059 938 1054 943Q1042 956 1029 943L836 755Q756 786 670 786H650Q564 786 484 755L291 943Q287 947 281 948Q262 950 260 932L194 331Q194 330 194 329Q194 240 227 158Z" fill="#000000" />
<path d="M297 440Q290 434 292 424L293 421H292Q293 416 294 412Q298 397 303 382Q319 334 344 301Q428 189 564 291Q573 299 570 310Q521 508 402 494Q344 487 297 440ZM330 421Q365 453 406 458Q490 468 532 313Q432 244 373 323Q352 351 338 394Q333 407 330 420Q330 421 330 421ZM328 431Q328 431 328 431Z" fill="#000000" />
<path d="M174.96783447265625 68.6422119140625Q167.1761474609375 64.31378173828125 165.44451904296875 58.25372314453125Q163.46551513671875 51.32794189453125 167.7939453125 43.5362548828125Q176.4508056640625 27.952880859375 192.89990234375 36.36236572265625L364.3170166015625 131.58782958984375Q372.3560791015625 136.781982421875 374.08770751953125 142.842041015625Q375.8193359375 148.902099609375 371.49090576171875 156.69378662109375Q361.96832275390625 172.5245361328125 346.38494873046875 163.86767578125Z" fill="#000000" />
<path d="M250.96783447265625 -26.3577880859375Q243.1761474609375 -30.68621826171875 241.44451904296875 -36.74627685546875Q239.46551513671875 -43.67205810546875 243.7939453125 -51.4637451171875Q252.4508056640625 -67.047119140625 268.89990234375 -58.63763427734375L440.3170166015625 36.58782958984375Q448.3560791015625 41.781982421875 450.08770751953125 47.842041015625Q451.8193359375 53.902099609375 447.49090576171875 61.69378662109375Q437.96832275390625 77.5245361328125 422.38494873046875 68.86767578125Z" fill="#000000" />
<path d="M469.8052978515625 376.80133056640625Q469.8052978515625 384.66552734375 466.82232666015625 391.5805969238281Q463.83935546875 398.49566650390625 458.5965576171875 403.73846435546875Q453.353759765625 408.98126220703125 446.4386901855469 411.9642333984375Q439.52362060546875 414.94720458984375 431.659423828125 414.94720458984375Q423.79522705078125 414.94720458984375 416.8801574707031 411.9642333984375Q409.965087890625 408.98126220703125 404.7222900390625 403.73846435546875Q399.4794921875 398.49566650390625 396.49652099609375 391.5805969238281Q393.5135498046875 384.66552734375 393.5135498046875 376.80133056640625Q393.5135498046875 368.9371337890625 396.49652099609375 362.0220642089844Q399.4794921875 355.10699462890625 404.7222900390625 349.86419677734375Q409.965087890625 344.62139892578125 416.8801574707031 341.638427734375Q423.79522705078125 338.65545654296875 431.659423828125 338.65545654296875Q439.52362060546875 338.65545654296875 446.4386901855469 341.638427734375Q453.353759765625 344.62139892578125 458.5965576171875 349.86419677734375Q463.83935546875 355.10699462890625 466.82232666015625 362.0220642089844Q469.8052978515625 368.9371337890625 469.8052978515625 376.80133056640625Z" fill="#000000" />
<path d="M926.8052978515625 376.80133056640625Q926.8052978515625 384.66552734375 923.8223266601562 391.5805969238281Q920.83935546875 398.49566650390625 915.5965576171875 403.73846435546875Q910.353759765625 408.98126220703125 903.4386901855469 411.9642333984375Q896.5236206054688 414.94720458984375 888.659423828125 414.94720458984375Q880.7952270507812 414.94720458984375 873.8801574707031 411.9642333984375Q866.965087890625 408.98126220703125 861.7222900390625 403.73846435546875Q856.4794921875 398.49566650390625 853.4965209960938 391.5805969238281Q850.5135498046875 384.66552734375 850.5135498046875 376.80133056640625Q850.5135498046875 368.9371337890625 853.4965209960938 362.0220642089844Q856.4794921875 355.10699462890625 861.7222900390625 349.86419677734375Q866.965087890625 344.62139892578125 873.8801574707031 341.638427734375Q880.7952270507812 338.65545654296875 888.659423828125 338.65545654296875Q896.5236206054688 338.65545654296875 903.4386901855469 341.638427734375Q910.353759765625 344.62139892578125 915.5965576171875 349.86419677734375Q920.83935546875 355.10699462890625 923.8223266601562 362.0220642089844Q926.8052978515625 368.9371337890625 926.8052978515625 376.80133056640625Z" fill="#000000" />
<path d="M580 230Q562 230 562 211Q562 193 580 193H733Q751 193 751 211Q751 230 733 230Z" fill="#000000" />
<path d="M474 170Q464 176 455 169Q440 159 451 144Q509 61 527 44Q592 -16 667 -17Q744 -17 804 47Q820 64 870 146Q875 154 871 164Q862 180 846 171Q812 154 772 152Q699 147 674 218Q671 226 662 229Q645 235 639 218Q614 147 544 151Q506 153 474 170ZM514 118Q528 115 542 115Q619 110 656 169Q695 110 774 115Q793 116 811 120Q786 81 777 72Q673 -40 552 71Q542 80 514 118Z" fill="#000000" />
<path d="M429 -28Q421 -23 415 -25Q408 -26 403 -34Q394 -50 409 -59Q520 -128 650 -128H670Q800 -128 911 -59Q926 -50 917 -34Q907 -19 891 -28Q790 -92 670 -92H650Q530 -92 429 -28Z" fill="#000000" />
</g></svg>