<svg xmlns="http://www.w3.org/2000/svg" viewBox="0 0 2048 2048">
<g transform="matrix(1 0 0 -1 0 2048)">
<path d="M568 110 733 128 752 220Q765 330 761.5 389.0Q758 448 733 477Q695 521 649.5 540.5Q604 560 558.0 560.0Q512 560 470.5 546.5Q429 533 397.0 509.5Q365 486 348 458Q328 424 319.5 377.0Q311 330 321.0 282.0Q331 234 363.5 197.0Q396 160 458 147Q508 136 547.5 148.5Q587 161 613.0 188.5Q639 216 648.5 251.0Q658 286 648.0 321.5Q638 357 605 385Q605 385 590.5 392.5Q576 400 553.0 407.0Q530 414 504.5 412.0Q479 410 456.5 392.0Q434 374 422 330Z" fill="#6a462f" />
<path d="M404 335 439 325Q461 401 527 394Q563 390 594 370Q666 310 619 227Q570 141 462 165Q361 187 339 286Q319 374 364 449Q408 522 516 539Q638 558 720 465Q758 420 734 223L718 145L566 128L570 92L749 112L770 217V218Q797 432 747 489Q652 597 511 575Q385 555 333 468Q280 380 303 278Q330 156 454 129Q589 99 651 209Q713 319 617 399L616 400H615Q576 425 531 430Q434 441 404 335Z" fill="#6a462f" />
<path d="M678 165Q733 165 777.0 188.0Q821 211 843 238Q859 258 880.5 291.0Q902 324 927.0 360.5Q952 397 976.5 429.0Q1001 461 1023.5 479.5Q1046 498 1063 495Q1091 489 1109.0 467.5Q1127 446 1128.0 409.5Q1129 373 1106.0 322.5Q1083 272 1029.0 209.0Q975 146 883 72Q861 54 834 50Q778 40 616.5 36.5Q455 33 202 55Z" fill="#a57939" />
<path d="M1024 560Q1019 568 1012 569Q1006 570 998 565Q983 555 993 540L1030 485Q1035 477 1041 476Q1048 475 1055 480Q1070 490 1060 505Z" fill="#000000" />
<path d="M1062 515Q1054 499 1070 491Q1079 487 1085 489Q1091 491 1095 499L1135 578Q1143 595 1127 603Q1118 607 1112 605Q1106 603 1102 595Z" fill="#000000" />
<path d="M404 335Q402 326 405 321Q408 315 417 312Q434 307 439 325Q461 401 527 394Q563 390 594 370Q666 310 619 227Q570 141 462 165Q361 187 339 286Q319 374 364 449Q408 522 516 539Q638 558 720 465Q774 402 734 262Q729 244 747 239Q764 234 769 252Q815 411 747 489Q652 597 511 575Q385 555 333 468Q280 380 303 278Q330 156 454 129Q589 99 651 209Q713 319 617 399Q616 400 615 400Q576 425 531 430Q434 441 404 335Z" fill="#000000" />
<path d="M203 55Q194 56 189 52Q184 47 183 38Q182 20 200 18Q574 -14 837 32Q869 37 894 57Q1106 228 1140 365Q1155 424 1133 465Q1112 504 1067 513Q1013 524 879 322Q842 266 829 250Q762 165 678 165Q660 165 660 147Q660 128 678 128Q780 128 858 227Q872 245 910 302Q1030 483 1060 477Q1088 471 1101 447Q1116 419 1105 374Q1074 249 871 86Q853 72 830 68Q572 23 203 55Z" fill="#000000" />
</g></svg>