<svg xmlns="http://www.w3.org/2000/svg" viewBox="0 0 2048 2048">
<g transform="matrix(1 0 0 -1 0 2048)">
<path d="M857.734619140625 529.9517822265625Q857.734619140625 570.6162109375 842.3101806640625 606.3728637695312Q826.8857421875 642.1295166015625 799.776123046875 669.2391357421875Q772.66650390625 696.3487548828125 736.9098510742188 711.773193359375Q701.1531982421875 727.1976318359375 660.48876953125 727.1976318359375Q619.8243408203125 727.1976318359375 584.0676879882812 711.773193359375Q548.31103515625 696.3487548828125 521.201416015625 669.2391357421875Q494.091796875 642.1295166015625 478.6673583984375 606.3728637695312Q463.242919921875 570.6162109375 463.242919921875 529.9517822265625Q463.242919921875 489.287353515625 478.6673583984375 453.53070068359375Q494.091796875 417.7740478515625 521.201416015625 390.6644287109375Q548.31103515625 363.5548095703125 584.0676879882812 348.13037109375Q619.8243408203125 332.7059326171875 660.48876953125 332.7059326171875Q701.1531982421875 332.7059326171875 736.9098510742188 348.13037109375Q772.66650390625 363.5548095703125 799.776123046875 390.6644287109375Q826.8857421875 417.7740478515625 842.3101806640625 453.53070068359375Q857.734619140625 489.287353515625 857.734619140625 529.9517822265625Z" fill="#ffffff" />
<path d="M914.0133056640625 102.00103759765625Q914.0133056640625 154.42724609375 894.1275024414062 200.52615356445312Q874.24169921875 246.62506103515625 839.2908935546875 281.57586669921875Q804.340087890625 316.52667236328125 758.2411804199219 336.4124755859375Q712.1422729492188 356.29827880859375 659.716064453125 356.29827880859375Q607.2898559570312 356.29827880859375 561.1909484863281 336.4124755859375Q515.092041015625 316.52667236328125 480.1412353515625 281.57586669921875Q445.1904296875 246.62506103515625 425.30462646484375 200.52615356445312Q405.4188232421875 154.42724609375 405.4188232421875 102.00103759765625Q405.4188232421875 49.5748291015625 425.30462646484375 3.475921630859375Q445.1904296875 -42.62298583984375 480.1412353515625 -77.57379150390625Q515.092041015625 -112.52459716796875 561.1909484863281 -132.410400390625Q607.2898559570312 -152.29620361328125 659.716064453125 -152.29620361328125Q712.1422729492188 -152.29620361328125 758.2411804199219 -132.410400390625Q804.340087890625 -112.52459716796875 839.2908935546875 -77.57379150390625Q874.24169921875 -42.62298583984375 894.1275024414062 3.475921630859375Q914.0133056640625 49.5748291015625 914.0133056640625 102.00103759765625Z" fill="#ffffff" />
<path d="M660 727Q714 727 759.0 700.5Q804 674 830.5 629.0Q857 584 857 530Q857 475 830.5 430.5Q804 386 759.0 359.5Q714 333 660 333Q696 333 719.5 361.5Q743 390 755.0 434.5Q767 479 767.0 529.5Q767 580 755.0 625.0Q743 670 719.5 698.5Q696 727 660 727Z" fill="#d0cfce" />
<path d="M660 356Q730 356 788.0 321.5Q846 287 880.0 229.5Q914 172 914 102Q914 32 880.0 -26.0Q846 -84 788.0 -118.0Q730 -152 660 -152Q691 -152 713.5 -124.5Q736 -97 749.5 -51.5Q763 -6 767.5 48.0Q772 102 767.5 156.0Q763 210 749.5 255.5Q736 301 713.5 328.5Q691 356 660 356Z" fill="#d0cfce" />
<path d="M540 903V708H780V903Z" fill="#3f3f3f" />
<path d="M776 326Q760 321 766 306Q771 291 786 296L1180 426Q1188 429 1191 434Q1193 439 1191 447Q1186 462 1170 457Z" fill="#000000" />
<path d="M1048 410Q1042 395 1057 389Q1072 383 1078 399L1128 532Q1134 547 1118 553Q1103 558 1098 543Z" fill="#000000" />
<path d="M692.68212890625 166.420166015625Q692.68212890625 173.068359375 690.160400390625 178.9141845703125Q687.638671875 184.760009765625 683.20654296875 189.192138671875Q678.7744140625 193.624267578125 672.9285888671875 196.14599609375Q667.082763671875 198.667724609375 660.4345703125 198.667724609375Q653.786376953125 198.667724609375 647.9405517578125 196.14599609375Q642.0947265625 193.624267578125 637.66259765625 189.192138671875Q633.23046875 184.760009765625 630.708740234375 178.9141845703125Q628.18701171875 173.068359375 628.18701171875 166.420166015625Q628.18701171875 159.77197265625 630.708740234375 153.9261474609375Q633.23046875 148.080322265625 637.66259765625 143.648193359375Q642.0947265625 139.216064453125 647.9405517578125 136.6943359375Q653.786376953125 134.172607421875 660.4345703125 134.172607421875Q667.082763671875 134.172607421875 672.9285888671875 136.6943359375Q678.7744140625 139.216064453125 683.20654296875 143.648193359375Q687.638671875 148.080322265625 690.160400390625 153.9261474609375Q692.68212890625 159.77197265625 692.68212890625 166.420166015625Z" fill="#000000" />
<path d="M692.68212890625 53.420166015625Q692.68212890625 60.068359375 690.160400390625 65.9141845703125Q687.638671875 71.760009765625 683.20654296875 76.192138671875Q678.7744140625 80.624267578125 672.9285888671875 83.14599609375Q667.082763671875 85.667724609375 660.4345703125 85.667724609375Q653.786376953125 85.667724609375 647.9405517578125 83.14599609375Q642.0947265625 80.624267578125 637.66259765625 76.192138671875Q633.23046875 71.760009765625 630.708740234375 65.9141845703125Q628.18701171875 60.068359375 628.18701171875 53.420166015625Q628.18701171875 46.77197265625 630.708740234375 40.9261474609375Q633.23046875 35.080322265625 637.66259765625 30.648193359375Q642.0947265625 26.216064453125 647.9405517578125 23.6943359375Q653.786376953125 21.172607421875 660.4345703125 21.172607421875Q667.082763671875 21.172607421875 672.9285888671875 23.6943359375Q678.7744140625 26.216064453125 683.20654296875 30.648193359375Q687.638671875 35.080322265625 690.160400390625 40.9261474609375Q692.68212890625 46.77197265625 692.68212890625 53.420166015625Z" fill="#000000" />
<path d="M692.68212890625 -59.579833984375Q692.68212890625 -52.931640625 690.160400390625 -47.0858154296875Q687.638671875 -41.239990234375 683.20654296875 -36.807861328125Q678.7744140625 -32.375732421875 672.9285888671875 -29.85400390625Q667.082763671875 -27.332275390625 660.4345703125 -27.332275390625Q653.786376953125 -27.332275390625 647.9405517578125 -29.85400390625Q642.0947265625 -32.375732421875 637.66259765625 -36.807861328125Q633.23046875 -41.239990234375 630.708740234375 -47.0858154296875Q628.18701171875 -52.931640625 628.18701171875 -59.579833984375Q628.18701171875 -66.22802734375 630.708740234375 -72.0738525390625Q633.23046875 -77.919677734375 637.66259765625 -82.351806640625Q642.0947265625 -86.783935546875 647.9405517578125 -89.3056640625Q653.786376953125 -91.827392578125 660.4345703125 -91.827392578125Q667.082763671875 -91.827392578125 672.9285888671875 -89.3056640625Q678.7744140625 -86.783935546875 683.20654296875 -82.351806640625Q687.638671875 -77.919677734375 690.160400390625 -72.0738525390625Q692.68212890625 -66.22802734375 692.68212890625 -59.579833984375Z" fill="#000000" />
<path d="M621.247802734375 579.7073974609375Q621.247802734375 585.5166015625 619.0443115234375 590.6246948242188Q616.8408203125 595.7327880859375 612.968017578125 599.6055908203125Q609.09521484375 603.4783935546875 603.9871215820312 605.681884765625Q598.8790283203125 607.8853759765625 593.06982421875 607.8853759765625Q587.2606201171875 607.8853759765625 582.1525268554688 605.681884765625Q577.04443359375 603.4783935546875 573.171630859375 599.6055908203125Q569.298828125 595.7327880859375 567.0953369140625 590.6246948242188Q564.891845703125 585.5166015625 564.891845703125 579.7073974609375Q564.891845703125 573.898193359375 567.0953369140625 568.7901000976562Q569.298828125 563.6820068359375 573.171630859375 559.8092041015625Q577.04443359375 555.9364013671875 582.1525268554688 553.73291015625Q587.2606201171875 551.5294189453125 593.06982421875 551.5294189453125Q598.8790283203125 551.5294189453125 603.9871215820312 553.73291015625Q609.09521484375 555.9364013671875 612.968017578125 559.8092041015625Q616.8408203125 563.6820068359375 619.0443115234375 568.7901000976562Q621.247802734375 573.898193359375 621.247802734375 579.7073974609375Z" fill="#000000" />
<path d="M754.247802734375 579.7073974609375Q754.247802734375 585.5166015625 752.0443115234375 590.6246948242188Q749.8408203125 595.7327880859375 745.968017578125 599.6055908203125Q742.09521484375 603.4783935546875 736.9871215820312 605.681884765625Q731.8790283203125 607.8853759765625 726.06982421875 607.8853759765625Q720.2606201171875 607.8853759765625 715.1525268554688 605.681884765625Q710.04443359375 603.4783935546875 706.171630859375 599.6055908203125Q702.298828125 595.7327880859375 700.0953369140625 590.6246948242188Q697.891845703125 585.5166015625 697.891845703125 579.7073974609375Q697.891845703125 573.898193359375 700.0953369140625 568.7901000976562Q702.298828125 563.6820068359375 706.171630859375 559.8092041015625Q710.04443359375 555.9364013671875 715.1525268554688 553.73291015625Q720.2606201171875 551.5294189453125 726.06982421875 551.5294189453125Q731.8790283203125 551.5294189453125 736.9871215820312 553.73291015625Q742.09521484375 555.9364013671875 745.968017578125 559.8092041015625Q749.8408203125 563.6820068359375 752.0443115234375 568.7901000976562Q754.247802734375 573.898193359375 754.247802734375 579.7073974609375Z" fill="#000000" />
<path d="M755 449Q766 458 758 469Q753 475 748 476Q743 477 738 472Q705 448 664 448Q623 448 591 472Q579 481 570 469Q566 464 567 459Q568 454 573 449Q613 419 664 419Q714 419 755 449Z" fill="#000000" />
<path d="M494 727Q478 727 478 711Q478 695 494 695H826Q842 695 842 711Q842 727 826 727Z" fill="#000000" />
<path d="M524 711Q524 695 540 695H780Q796 695 796 711V907Q796 923 780 923H540Q524 923 524 907ZM556 891H764V727H556Z" fill="#000000" />
<path d="M808 664Q802 670 797 670Q791 670 785 665Q773 654 784 642Q829 594 829 527Q829 457 780 408Q730 358 660 358Q590 358 541 408Q491 457 491 527Q491 594 536 642Q547 654 535 665Q523 676 512 664Q459 606 459 527Q459 444 518 385Q577 326 660 326Q743 326 802 385Q861 444 861 527Q861 606 808 664Z" fill="#000000" />
<path d="M534 296Q542 293 547 296Q552 298 554 306Q560 321 544 326L150 457Q134 462 129 447Q124 431 140 426Z" fill="#000000" />
<path d="M242.55712890625 398.357421875Q247.9908447265625 383.1473388671875 263.200927734375 388.5810546875Q270.473876953125 391.58642578125 272.607666015625 396.7255859375Q275.3184814453125 402.5289306640625 272.3131103515625 409.8018798828125L221.7657470703125 543.4588623046875Q216.33203125 558.6689453125 201.7861328125 552.658203125Q193.8489990234375 550.2298583984375 191.7152099609375 545.0906982421875Q189.00439453125 539.287353515625 192.009765625 532.014404296875Z" fill="#000000" />
<path d="M852 273Q841 285 829 275Q817 264 828 252Q885 188 885 102Q885 8 819 -58Q753 -124 660 -124Q567 -124 501 -58Q435 8 435 102Q435 188 492 252Q503 264 491 275Q485 280 479 280Q473 279 468 273Q403 200 403 102Q403 -5 478 -80Q553 -156 660 -156Q767 -156 842 -80Q918 -5 918 102Q918 200 852 273Z" fill="#000000" />
</g></svg>