<svg xmlns="http://www.w3.org/2000/svg" viewBox="0 0 2048 2048">
<g transform="matrix(1 0 0 -1 0 2048)">
<path d="M770 422 708 458 722 499 794 589 895 513 928 458Q932 453 939.5 437.0Q947 421 952 413Q953 409 955.5 387.0Q958 365 961.0 334.0Q964 303 966.5 272.5Q969 242 970.5 222.0Q972 202 972 202Z" fill="#3f3f3f" />
<path d="M407 499Q407 499 396.5 486.0Q386 473 372.0 453.0Q358 433 345.5 410.0Q333 387 330 367L293 147L220 18H1100L979 163L917 330L752 449L563 499Z" fill="#9b9b9a" />
<path d="M532 477Q532 477 525.5 461.0Q519 445 518.0 423.0Q517 401 532 385Q545 370 567.0 355.0Q589 340 605 348Q616 354 623.5 376.0Q631 398 642 422Q651 441 653.0 447.5Q655 454 660 458Q672 467 688.0 464.5Q704 462 717.5 458.0Q731 454 733 458Q736 464 722.5 475.5Q709 487 697 513Q691 525 689.5 532.0Q688 539 686.5 547.0Q685 555 678 568Q670 588 660.0 601.0Q650 614 642 623Q629 638 619.0 647.5Q609 657 605 660Q591 671 583.5 675.5Q576 680 569.0 683.5Q562 687 550 697Q535 709 531.0 713.0Q527 717 525.0 720.5Q523 724 513 733Q504 743 487.5 751.0Q471 759 458 752Q449 746 447.5 741.5Q446 737 440 715Q437 707 434.5 700.0Q432 693 425.0 680.0Q418 667 403 642Q379 596 365.5 571.5Q352 547 348 532Q347 526 342.5 506.5Q338 487 337.5 466.5Q337 446 348 440Q357 435 362.0 441.5Q367 448 376.0 454.5Q385 461 403 458Q418 456 425.0 446.5Q432 437 436.0 426.0Q440 415 444.5 408.0Q449 401 458 403Q466 405 471.0 415.0Q476 425 484.0 437.5Q492 450 508 460Q515 463 523.5 470.0Q532 477 532 477Z" fill="#ffffff" />
<path d="M807 623Q793 610 777.5 589.0Q762 568 770 550Q774 542 781.5 538.0Q789 534 807 513Q815 504 818.0 501.0Q821 498 825 495Q834 491 849.5 487.5Q865 484 879.5 485.0Q894 486 898 495Q904 506 889.0 527.5Q874 549 862 568Q852 584 842.0 599.5Q832 615 823.0 623.0Q814 631 807 623Z" fill="#ffffff" />
<path d="M1087 24Q1099 10 1113 23Q1126 36 1113 49L995 173L934 336Q927 353 910 347Q893 340 899 323L962 156Q963 153 966 150Z" fill="#000000" />
<path d="M373 432Q379 449 362 455Q353 459 347 456Q342 453 338 444L313 373Q312 371 312 370L276 154L205 47Q200 39 201 33Q202 26 210 21Q225 11 235 26L309 136Q311 140 311 144L348 362Z" fill="#000000" />
<path d="M744 473Q729 484 718 469Q713 461 714 455Q715 449 723 443L897 322L880 223Q880 220 880 216L897 134L812 50Q799 37 812 24Q825 11 838 24L930 115Q937 122 935 132L917 220L935 327Q937 338 927 345Z" fill="#000000" />
<path d="M909 498Q901 514 885 506Q868 498 876 481L919 395Q927 379 943 387Q960 395 951 411Z" fill="#000000" />
<path d="M741 525Q730 510 744 499Q758 488 770 502L792 529Q803 544 789 555Q774 567 763 552Z" fill="#000000" />
<path d="M499 425Q498 395 518 373Q573 312 613 332Q629 340 646 384Q654 404 658 414Q664 425 669 439Q671 443 671 444Q679 449 708 442Q740 434 749 449Q749 449 750 450Q757 465 738 486Q721 505 713 521Q709 531 706 542Q703 560 695 576Q683 603 657 634Q656 635 656 635Q633 663 616 675Q600 687 584 697Q571 703 561 711Q545 724 540 731Q534 738 526 746Q485 788 449 768Q431 757 425 730Q423 724 422 720Q415 700 387 650Q385 646 380 637Q337 558 331 537Q301 447 339 424Q358 413 378 432Q389 442 401 440Q411 439 421 416Q437 378 463 386Q477 390 491 413Q495 419 499 425ZM520 490Q507 480 501 477Q499 477 498 476Q477 462 459 431Q457 428 456 426Q455 428 455 430Q437 472 406 476Q377 481 354 460Q348 473 366 526Q366 526 366 527Q371 543 412 619Q417 628 419 633Q449 685 457 709Q458 710 458 711Q459 715 460 722Q463 733 467 736Q479 742 500 720Q507 714 511 709Q519 699 538 682Q539 682 539 682Q551 673 566 665Q580 657 594 646Q594 645 595 645Q607 636 627 612Q628 612 628 611Q628 611 629 610Q652 583 661 561Q662 561 662 561Q668 548 670 535Q674 519 680 506Q686 494 694 482Q665 485 649 473Q641 467 635 452Q630 440 625 430Q625 430 625 429Q620 419 612 397Q600 366 597 365Q582 357 545 397Q524 421 548 468Q552 477 550 483Q548 489 540 493Q529 499 520 490Z" fill="#000000" />
<path d="M794 636Q736 579 753 542Q753 542 754 542Q758 533 769 524Q781 515 793 501Q807 485 815 480Q816 479 818 478Q895 447 915 487Q925 508 888 562Q880 573 877 578Q874 583 869 592Q851 620 842 630Q832 640 822 644Q806 649 794 636ZM815 605Q815 605 815 605Q821 598 838 572Q843 563 846 558Q850 553 858 541Q883 505 882 503Q877 494 834 511Q830 515 821 525Q807 541 792 553Q787 557 787 558Q781 571 815 605Z" fill="#000000" />
</g></svg>