<svg xmlns="http://www.w3.org/2000/svg" viewBox="0 0 2048 2048">
<g transform="matrix(1 0 0 -1 0 2048)">
<path d="M266.0 409.0 368.0 405.0 359.0 145.0 1017.0 803.0 1089.0 731.0 431.0 73.0 690.0 83.0 694.0 -19.0 250.0 -36.0Z" fill="#3f3f3f" />
<path d="M248 409 231 -35Q231 -44 235 -49Q240 -53 249 -54Q249 -54 250 -54L694 -37Q713 -37 712 -18L708 84Q708 93 703 97Q698 102 689 101L476 93L1101 718Q1108 725 1108 731Q1108 738 1101 744L1029 816Q1016 829 1003 816L378 191L386 404Q387 423 368 423L267 427Q257 427 253 423Q248 419 248 409ZM284 390 349 387 340 146Q340 138 345 132Q358 119 371 132L1016 778L1062 731L417 86Q412 81 412 73Q412 63 417 59Q422 55 431 55L672 64L675 -1L269 -16Z" fill="#000000" />
</g></svg>