<svg xmlns="http://www.w3.org/2000/svg" viewBox="0 0 2048 2048">
<g transform="matrix(1 0 0 -1 0 2048)">
<path d="M625 701Q622 630 585 559Q513 419 348 418Q331 418 322 403Q313 388 322 373Q330 358 347 358Q418 353 489 315Q629 239 630 74V72Q630 41 660 41Q690 41 690 71Q691 237 831 313Q902 352 973 358Q990 358 998 373Q1007 388 998 403Q989 418 972 418Q807 419 730 559Q691 630 686 701Q685 730 655 730Q626 730 625 701ZM656 651Q668 596 698 541Q771 407 916 386Q864 373 813 346Q686 276 660 143Q635 278 506 347Q456 374 406 386Q549 408 618 542Q646 596 656 651Z" fill="#000000" />
<path d="M1100 -74Q1108 -74 1113 -69Q1119 -63 1118 -55V825Q1119 833 1113 838Q1108 844 1100 843H220Q212 844 207 838Q201 833 202 825V-55Q201 -63 207 -69Q212 -74 220 -74Z" fill="#5c9e31" />
<path d="M644 699Q644 711 655 711Q667 711 667 699Q667 699 670.5 677.5Q674 656 684.0 622.0Q694 588 714.0 549.5Q734 511 767.5 477.0Q801 443 851.5 421.0Q902 399 972 399Q984 399 984 387Q984 375 972 375Q972 375 950.5 372.0Q929 369 895.0 359.0Q861 349 822.5 329.0Q784 309 750.0 275.5Q716 242 694.0 191.5Q672 141 672 71Q672 59 660 59Q648 59 648 71V73Q648 144 626.0 194.0Q604 244 570.0 277.0Q536 310 497.5 330.0Q459 350 425.0 359.5Q391 369 369.5 372.0Q348 375 348 375Q336 375 336 387Q336 399 348 399Q418 399 467.5 421.0Q517 443 549.5 477.0Q582 511 601.0 549.5Q620 588 629.0 622.0Q638 656 641.0 677.5Q644 699 644 699Z" fill="#ffffff" />
<path d="M625 700Q622 629 585 558Q513 418 348 418Q331 418 322 403Q313 387 322 372Q330 357 347 357Q418 352 489 314Q629 239 630 73V71Q630 41 660 41Q690 41 690 70Q691 236 831 313Q902 352 973 357Q990 357 998 372Q1007 387 998 403Q989 418 972 418Q807 418 730 558Q691 630 686 700Q685 729 655 729Q626 729 625 700ZM656 650Q668 595 698 541Q771 407 916 385Q864 373 813 345Q686 275 660 142Q635 277 506 346Q456 373 406 385Q549 407 618 541Q646 595 656 650Z" fill="#ffffff" />
<path d="M1100 -91Q1115 -91 1126 -80Q1137 -69 1137 -54V826Q1137 841 1126 852Q1115 863 1100 863H220Q205 863 194 852Q183 841 183 826V-54Q183 -69 194 -80Q205 -91 220 -91ZM1100 -54H220V826H1100Z" fill="#000000" />
</g></svg>