<svg xmlns="http://www.w3.org/2000/svg" viewBox="0 0 2048 2048">
<g transform="matrix(1 0 0 -1 0 2048)">
<path d="M1109 587Q1109 510 1066 447H1067L1054 431L684 -28H636L254 446H255Q211 510 211 587Q211 655 244.5 711.0Q278 767 334.0 800.5Q390 834 458 834Q519 834 572.0 806.5Q625 779 660 730Q695 779 748.0 806.5Q801 834 862 834Q930 834 986.0 800.5Q1042 767 1075.5 711.0Q1109 655 1109 587Z" fill="#e67a94" />
<path d="M489 343Q488 348 483.5 374.0Q479 400 472.5 436.5Q466 473 459.0 510.0Q452 547 447 574Q447 578 439.0 568.5Q431 559 423.5 547.5Q416 536 415 533L382 347Q381 339 378.0 331.0Q375 323 365 321Q324 313 297.0 299.5Q270 286 270 286Q270 286 297.0 272.0Q324 258 365 250Q388 246 391 229L442 74L489 229Q492 246 515 250Q535 254 566.0 260.0Q597 266 628.0 272.0Q659 278 680.0 282.0Q701 286 701 286L515 321Q492 325 489 343Z" fill="#fcea2b" />
<path d="M451 56Q450 52 444.5 52.0Q439 52 438 56L387 228Q384 246 364 250Q328 266 304.5 275.0Q281 284 280 284Q281 284 305.0 296.5Q329 309 364 321Q384 325 387 343L392 371Q404 337 423.5 292.0Q443 247 470 201Z" fill="#f1b31c" />
<path d="M951 698Q950 702 946.5 723.0Q943 744 937.5 773.0Q932 802 926.5 831.5Q921 861 917 883Q916 885 913.5 877.5Q911 870 908.0 861.0Q905 852 904 850L864 701Q862 695 860.0 688.5Q858 682 849 680Q833 677 809.5 673.0Q786 669 761.5 664.5Q737 660 720 657Q715 656 715.0 652.5Q715 649 720 648Q737 645 761.5 640.5Q786 636 809.5 631.5Q833 627 849 624Q868 621 871 607L905 422Q906 418 911.0 418.0Q916 418 917 422L951 607Q954 621 973 624Q988 627 1012.0 631.5Q1036 636 1060.5 640.5Q1085 645 1102 648Q1107 649 1107.0 652.5Q1107 656 1102 657L973 680Q954 684 951 698Z" fill="#fcea2b" />
<path d="M918 422Q918 418 914.0 418.0Q910 418 909 422L884 607Q882 621 868 624Q851 628 821.5 635.5Q792 643 773 648Q770 649 770.0 652.5Q770 656 773 656Q792 661 821.5 668.5Q851 676 868 680Q882 684 884 698L887 720Q896 693 909.0 657.0Q922 621 940 585Z" fill="#f1b31c" />
<path d="M549 139Q537 153 523 142Q516 136 515 129Q514 123 520 116L646 -40Q657 -54 672 -42Q673 -41 674 -40L1054 431Q1055 433 1056 434Q1109 501 1109 587Q1109 605 1091 605Q1073 605 1073 587Q1073 512 1026 454Q1026 454 1026 454Q1025 453 1024 452L660 1Z" fill="#000000" />
<path d="M832 795Q850 798 848 816Q845 834 827 832Q719 817 660 731Q590 834 458 834Q356 834 283 762Q211 689 211 587Q211 501 264 434Q265 433 265 432Q266 431 266 431L305 382Q311 375 317 374Q324 374 331 380Q345 391 334 405L296 452Q295 453 294 454Q248 512 248 587Q248 674 309 736Q371 798 458 798Q584 798 644 687Q646 682 651 679Q667 671 676 687Q727 781 832 795Z" fill="#000000" />
<path d="M396 454Q394 445 397 439Q401 434 410 432Q428 429 432 447L441 494L448 448L464 355Q472 309 525 298L586 286L525 273Q472 262 464 216L442 84L420 216Q412 262 359 273L297 286L359 298Q408 308 418 368Q421 386 403 389Q385 392 382 374Q376 339 352 334L202 304Q190 301 187 289Q184 271 202 268L352 237Q380 231 384 210L424 -30Q426 -42 439 -45Q457 -48 460 -30L500 210Q504 231 532 237L682 268Q694 270 696 282Q700 300 682 304L532 334Q504 340 500 361L485 454L469 546L460 601Q458 613 445 616Q427 619 424 601Z" fill="#000000" />
<path d="M878 787Q874 769 892 765Q901 764 906 767Q912 771 914 780L917 798L920 781L932 707Q939 668 984 659L1014 652L983 646Q939 637 932 597L918 514L904 597Q898 637 853 646L822 652L853 659Q895 667 903 717Q906 735 888 738Q870 741 867 723Q863 698 845 695L726 670Q714 668 712 656Q710 647 713 642Q717 636 726 634L845 610Q866 606 868 591L900 400Q902 387 915 385Q924 384 929 387Q935 391 936 400L968 591Q971 606 991 610L1106 634Q1118 637 1120 649Q1122 657 1118 663Q1115 668 1106 670L991 695Q971 699 968 713L956 787L944 860L936 904Q934 917 922 919Q913 921 907 917Q902 914 900 905Z" fill="#000000" />
</g></svg>