<svg xmlns="http://www.w3.org/2000/svg" viewBox="0 0 2048 2048">
<g transform="matrix(1 0 0 -1 0 2048)">
<path d="M619 592 920 836V-65L619 176Z" fill="#d0cfce" />
<path d="M631 190Q616 202 605 187Q593 173 608 161L909 -79Q923 -91 935 -76Q939 -71 939 -65V836Q939 846 934 850Q930 855 920 855Q914 855 909 851L608 606Q600 600 600 594Q599 587 605 580Q616 566 631 578L902 798V-27Z" fill="#d0cfce" />
<path d="M636 591Q636 609 618 609Q599 609 599 591V201Q599 183 618 183Q636 183 636 201Z" fill="#d0cfce" />
<path d="M601 176H382Q361 176 346.0 192.0Q331 208 331 231V537Q331 560 346.0 576.0Q361 592 382 592H601Z" fill="#9b9b9a" />
<path d="M601 574V610H382Q313 609 313 537V231Q313 158 382 158H601V194H382Q349 194 348 231V537Q349 574 382 574Z" fill="#9b9b9a" />
<path d="M902 211Q902 193 921 193Q939 193 939 211V836Q939 846 934 850Q930 855 921 855Q914 855 909 851L613 610H544Q525 610 525 592Q525 573 544 573H619Q626 573 631 578L902 798Z" fill="#000000" />
<path d="M376 572Q394 577 388 595Q383 612 366 607Q313 592 313 537V231Q313 158 386 157H613L909 -79Q916 -85 923 -84Q929 -84 935 -76Q939 -71 939 -65V39Q939 57 921 57Q902 57 902 39V-27L631 190Q626 194 619 194H386Q350 194 350 231V537Q350 564 376 572Z" fill="#000000" />
<path d="M637.8826904296875 580.4518432617188Q638.3268432617188 598.164306640625 619.19677734375 598.6442260742188Q601.4829711914062 599.1410522460938 601.0599365234375 580.0122680664062L601.3549194335938 512.7285766601562Q601.6294555664062 494.31640625 620.0408325195312 494.53619384765625Q638.4522094726562 494.7559814453125 638.1776733398438 513.1681518554688Z" fill="#000000" />
<path d="M638.0 330.0Q638.0 349.0 619.0 349.0Q601.0 349.0 601.0 330.0V183.0Q601.0 164.0 619.0 164.0Q638.0 164.0 638.0 183.0Z" fill="#000000" />
<path d="M226 842Q213 855 200 842Q187 829 200 816L1089 -73Q1102 -86 1115 -73Q1128 -60 1115 -47Z" fill="#000000" />
</g></svg>