<svg xmlns="http://www.w3.org/2000/svg" viewBox="0 0 2048 2048">
<g transform="matrix(1 0 0 -1 0 2048)">
<path d="M221 231Q221 216 232.0 205.0Q243 194 258 194H473V574H258Q243 574 232.0 563.0Q221 552 221 537Z" fill="#9b9b9a" />
<path d="M775 -26V798L510 583Q510 582 510 581V192Q510 189 509 186Z" fill="#d0cfce" />
<path d="M781 851 485 610H258Q185 610 185 537V231Q185 158 258 157H485L781 -79Q788 -85 795 -84Q801 -84 807 -76Q811 -71 811 -65V836Q811 846 806 850Q802 855 792 855Q786 855 781 851ZM774 798V-27L502 190Q497 194 491 194H258Q221 194 221 231V537Q221 573 258 573H491Q498 573 503 578Z" fill="#000000" />
<path d="M509 581Q509 599 491 599Q472 599 472 581V191Q472 173 491 173Q509 173 509 191Z" fill="#000000" />
<path d="M1017 605Q1006 619 991 608Q977 597 988 583Q1053 495 1053 386Q1053 276 988 189Q977 174 991 163Q1006 152 1017 167Q1090 264 1090 386Q1090 507 1017 605Z" fill="#000000" />
</g></svg>