<svg xmlns="http://www.w3.org/2000/svg" viewBox="0 0 2048 2048">
<g transform="matrix(1 0 0 -1 0 2048)">
<path d="M313 115Q393 -2 556 -42Q608 -55 660 -55Q751 -55 830.5 -21.0Q910 13 971.0 74.0Q1032 135 1066.0 214.5Q1100 294 1100 385Q1100 476 1066.0 555.5Q1032 635 971.0 696.0Q910 757 830.5 791.0Q751 825 660 825Q569 825 489.5 791.0Q410 757 349.5 696.0Q289 635 254.5 555.5Q220 476 220 385Q220 309 245.0 240.0Q270 171 313 115Z" fill="#ffffff" />
<path d="M522.27685546875 37.091796875Q522.27685546875 56.2236328125 515.2111206054688 72.74658203125Q508.1453857421875 89.26953125 495.5357666015625 101.879150390625Q482.9261474609375 114.48876953125 466.29449462890625 121.6632080078125Q449.662841796875 128.837646484375 430.531005859375 128.837646484375Q411.6165771484375 128.837646484375 394.98492431640625 121.6632080078125Q378.353271484375 114.48876953125 365.74365234375 101.879150390625Q353.134033203125 89.26953125 346.06829833984375 72.74658203125Q339.0025634765625 56.2236328125 339.0025634765625 37.091796875Q339.0025634765625 18.1773681640625 346.06829833984375 1.54571533203125Q353.134033203125 -15.0859375 365.74365234375 -27.695556640625Q378.353271484375 -40.30517578125 394.98492431640625 -47.37091064453125Q411.6165771484375 -54.4366455078125 430.531005859375 -54.4366455078125Q449.662841796875 -54.4366455078125 466.29449462890625 -47.37091064453125Q482.9261474609375 -40.30517578125 495.5357666015625 -27.695556640625Q508.1453857421875 -15.0859375 515.2111206054688 1.54571533203125Q522.27685546875 18.1773681640625 522.27685546875 37.091796875Z" fill="#ffffff" />
<path d="M243.861572265625 -108.9541015625Q243.861572265625 -99.38818359375 247.39443969726562 -91.126708984375Q250.92730712890625 -82.865234375 257.23211669921875 -76.5604248046875Q263.53692626953125 -70.255615234375 271.8527526855469 -66.66839599609375Q280.1685791015625 -63.0811767578125 289.7344970703125 -63.0811767578125Q299.19171142578125 -63.0811767578125 307.5075378417969 -66.66839599609375Q315.8233642578125 -70.255615234375 322.128173828125 -76.5604248046875Q328.4329833984375 -82.865234375 331.9658508300781 -91.126708984375Q335.49871826171875 -99.38818359375 335.49871826171875 -108.9541015625Q335.49871826171875 -118.41131591796875 331.9658508300781 -126.72714233398438Q328.4329833984375 -135.04296875 322.128173828125 -141.3477783203125Q315.8233642578125 -147.652587890625 307.5075378417969 -151.18545532226562Q299.19171142578125 -154.71832275390625 289.7344970703125 -154.71832275390625Q280.1685791015625 -154.71832275390625 271.8527526855469 -151.18545532226562Q263.53692626953125 -147.652587890625 257.23211669921875 -141.3477783203125Q250.92730712890625 -135.04296875 247.39443969726562 -126.72714233398438Q243.861572265625 -118.41131591796875 243.861572265625 -108.9541015625Z" fill="#ffffff" />
<path d="M582 -11Q564 -7 560 -25Q558 -34 562 -39Q566 -45 575 -47Q617 -55 660 -55Q842 -55 971 74Q1100 203 1100 385Q1100 567 971 696Q842 825 660 825Q478 825 349 696Q220 567 220 385Q220 246 300 132Q311 117 326 128Q341 138 330 153Q257 258 257 385Q257 552 375 670Q493 788 660 788Q827 788 945 670Q1063 552 1063 385Q1063 218 945 100Q827 -18 660 -18Q621 -18 582 -11Z" fill="#000000" />
<path d="M528.322998046875 385.4404296875Q528.322998046875 393.09423828125 525.4963073730469 399.704345703125Q522.6696166992188 406.314453125 517.6250610351562 411.3590087890625Q512.5805053710938 416.403564453125 505.9269104003906 419.27374267578125Q499.2733154296875 422.1439208984375 491.6195068359375 422.1439208984375Q484.05267333984375 422.1439208984375 477.3990783691406 419.27374267578125Q470.7454833984375 416.403564453125 465.700927734375 411.3590087890625Q460.6563720703125 406.314453125 457.8296813964844 399.704345703125Q455.00299072265625 393.09423828125 455.00299072265625 385.4404296875Q455.00299072265625 377.87359619140625 457.8296813964844 371.2200012207031Q460.6563720703125 364.56640625 465.700927734375 359.5218505859375Q470.7454833984375 354.477294921875 477.3990783691406 351.6506042480469Q484.05267333984375 348.82391357421875 491.6195068359375 348.82391357421875Q499.2733154296875 348.82391357421875 505.9269104003906 351.6506042480469Q512.5805053710938 354.477294921875 517.6250610351562 359.5218505859375Q522.6696166992188 364.56640625 525.4963073730469 371.2200012207031Q528.322998046875 377.87359619140625 528.322998046875 385.4404296875Z" fill="#000000" />
<path d="M696.322998046875 385.4404296875Q696.322998046875 393.09423828125 693.4963073730469 399.704345703125Q690.6696166992188 406.314453125 685.6250610351562 411.3590087890625Q680.5805053710938 416.403564453125 673.9269104003906 419.27374267578125Q667.2733154296875 422.1439208984375 659.6195068359375 422.1439208984375Q652.0526733398438 422.1439208984375 645.3990783691406 419.27374267578125Q638.7454833984375 416.403564453125 633.700927734375 411.3590087890625Q628.6563720703125 406.314453125 625.8296813964844 399.704345703125Q623.0029907226562 393.09423828125 623.0029907226562 385.4404296875Q623.0029907226562 377.87359619140625 625.8296813964844 371.2200012207031Q628.6563720703125 364.56640625 633.700927734375 359.5218505859375Q638.7454833984375 354.477294921875 645.3990783691406 351.6506042480469Q652.0526733398438 348.82391357421875 659.6195068359375 348.82391357421875Q667.2733154296875 348.82391357421875 673.9269104003906 351.6506042480469Q680.5805053710938 354.477294921875 685.6250610351562 359.5218505859375Q690.6696166992188 364.56640625 693.4963073730469 371.2200012207031Q696.322998046875 377.87359619140625 696.322998046875 385.4404296875Z" fill="#000000" />
<path d="M865.322998046875 385.4404296875Q865.322998046875 393.09423828125 862.4963073730469 399.704345703125Q859.6696166992188 406.314453125 854.6250610351562 411.3590087890625Q849.5805053710938 416.403564453125 842.9269104003906 419.27374267578125Q836.2733154296875 422.1439208984375 828.6195068359375 422.1439208984375Q821.0526733398438 422.1439208984375 814.3990783691406 419.27374267578125Q807.7454833984375 416.403564453125 802.700927734375 411.3590087890625Q797.6563720703125 406.314453125 794.8296813964844 399.704345703125Q792.0029907226562 393.09423828125 792.0029907226562 385.4404296875Q792.0029907226562 377.87359619140625 794.8296813964844 371.2200012207031Q797.6563720703125 364.56640625 802.700927734375 359.5218505859375Q807.7454833984375 354.477294921875 814.3990783691406 351.6506042480469Q821.0526733398438 348.82391357421875 828.6195068359375 348.82391357421875Q836.2733154296875 348.82391357421875 842.9269104003906 351.6506042480469Q849.5805053710938 354.477294921875 854.6250610351562 359.5218505859375Q859.6696166992188 364.56640625 862.4963073730469 371.2200012207031Q865.322998046875 377.87359619140625 865.322998046875 385.4404296875Z" fill="#000000" />
<path d="M227 -120Q222 -94 237 -72Q252 -50 278 -45Q341 -33 353 -96Q364 -159 301 -171Q238 -183 227 -120ZM263 -113Q268 -140 295 -135Q322 -130 317 -103Q312 -76 285 -81Q258 -86 263 -113Z" fill="#000000" />
<path d="M331 27Q323 72 348 109Q374 147 419 155Q463 163 501 138Q538 112 547 67Q555 23 529 -15Q504 -52 459 -60Q414 -69 377 -43Q339 -17 331 27ZM367 34Q373 4 398 -13Q422 -30 452 -24Q524 -11 511 61Q505 90 480 108Q455 125 425 119Q354 106 367 34Z" fill="#000000" />
</g></svg>