<svg xmlns="http://www.w3.org/2000/svg" viewBox="0 0 2048 2048">
<g transform="matrix(1 0 0 -1 0 2048)">
<path d="M472 363 1032 293Q1034 293 1035 292L1127 232L1162 223Q1168 222 1167 215L1166 188Q1166 184 1163 182L1077 102Q1077 102 1043.5 103.0Q1010 104 953.5 106.0Q897 108 829.0 110.5Q761 113 691.0 116.0Q621 119 562 122Q487 125 444.0 129.0Q401 133 380.5 137.0Q360 141 354.0 143.0Q348 145 348 145Q348 145 325.0 156.0Q302 167 268.5 185.0Q235 203 201.5 224.0Q168 245 146.0 266.0Q124 287 125 304Q126 318 151.5 328.0Q177 338 216.5 344.5Q256 351 300.0 354.5Q344 358 383.0 360.0Q422 362 447.0 362.5Q472 363 472 363Z" fill="#ffffff" />
<path d="M838 317 464 362 559 429Q561 431 563 431Q619 425 669.0 407.0Q719 389 757.0 368.0Q795 347 816.5 332.0Q838 317 838 317Z" fill="#92d3f5" />
<path d="M256 309Q239 311 237 294Q237 286 240 281Q244 276 253 275Q710 231 1029 176Q1045 173 1048 190Q1051 207 1034 209Q715 265 256 309Z" fill="#ea5a47" />
<path d="M1247 183H1228Q1173 183 1136.0 175.0Q1099 167 1070.5 156.0Q1042 145 1015.0 136.5Q988 128 953 128Q908 128 861.0 142.0Q814 156 764.5 169.5Q715 183 660 183Q619 183 583.0 175.0Q547 167 513.0 156.0Q479 145 443.5 136.5Q408 128 367 128Q312 128 259.0 142.0Q206 156 162.5 169.5Q119 183 92 183H73V-220H1247Z" fill="#92d3f5" />
<path d="M1149 192Q1141 181 1151 170Q1157 164 1163 164Q1169 164 1175 170Q1183 177 1183 187L1184 214Q1185 235 1166 240L1134 248L1044 306Q1040 309 1034 310L474 380Q473 380 471 380Q114 378 108 305Q103 236 341 130Q357 122 406 116Q422 114 425 131Q427 148 410 150Q362 156 360 157Q358 160 355 161Q139 258 142 303Q144 324 301 338Q386 345 471 346L1028 276L1117 218Q1120 216 1123 215L1150 208Z" fill="#000000" />
<path d="M849 330Q720 432 565 448Q556 448 549 443L454 376Q447 371 446 365Q445 359 450 352Q455 346 462 345L836 300Q845 299 850 303Q854 306 855 315Q857 324 849 330ZM773 342 510 374 565 413Q676 401 773 342Z" fill="#000000" />
<path d="M92 201Q73 201 73 183Q73 165 92 165Q112 165 179 145Q300 110 367 110Q424 110 519 138Q608 165 660 165Q715 165 815 136Q907 110 953 110Q997 110 1063 133Q1150 165 1228 165Q1247 165 1247 183Q1247 201 1228 201Q1143 201 1051 168Q991 146 953 146Q912 146 825 171Q720 201 660 201Q602 201 508 173Q419 146 367 146Q305 146 190 180Q117 201 92 201Z" fill="#000000" />
</g></svg>