<svg xmlns="http://www.w3.org/2000/svg" viewBox="0 0 2048 2048">
<g transform="matrix(1 0 0 -1 0 2048)">
<path d="M540 150Q537 119 528 96Q523 74 504.5 68.0Q486 62 473 81Q451 116 434.0 151.0Q417 186 409 223Z" fill="#61b2e4" />
<path d="M855 779Q856 780 858 779Q863 778 869 764Q882 744 904.5 739.0Q927 734 950.0 730.5Q973 727 986 711Q995 701 997.5 690.5Q1000 680 1002 671Q1011 679 1025.0 691.5Q1039 704 1054 704Q1072 703 1092.5 700.0Q1113 697 1135.5 703.0Q1158 709 1179 736Q1179 700 1176.0 671.5Q1173 643 1154.5 621.5Q1136 600 1088 587Q1063 580 1048.5 574.0Q1034 568 1028 552Q1024 515 1012.5 467.5Q1001 420 978.5 369.0Q956 318 918.5 269.5Q881 221 825 183Q760 140 691.5 132.0Q623 124 557.5 144.0Q492 164 435.0 203.5Q378 243 336.0 295.0Q294 347 272.5 403.0Q251 459 257 512Q289 541 328.5 547.5Q368 554 413.5 547.0Q459 540 508.0 527.0Q557 514 607.0 504.0Q657 494 706.5 494.0Q756 494 802.5 513.0Q849 532 890 579Q907 602 901.5 615.5Q896 629 881.0 639.5Q866 650 852.5 662.5Q839 675 838 696Q837 706 839.0 725.5Q841 745 845.0 761.0Q849 777 855 779Z" fill="#61b2e4" />
<path d="M1045 567V539Q1040 501 1028.0 453.0Q1016 405 992.5 354.0Q969 303 931.0 255.0Q893 207 836 168Q767 122 694.5 114.0Q622 106 553.0 127.0Q484 148 425 188Q365 230 320.0 286.0Q275 342 253 403L267 427Q263 446 274.0 460.0Q285 474 303.5 480.5Q322 487 341 484Q364 481 391.0 465.5Q418 450 447.0 428.0Q476 406 505.0 383.5Q534 361 560 344Q606 313 662.0 295.5Q718 278 775.0 281.5Q832 285 883.5 313.5Q935 342 973 404Q982 426 988.5 448.0Q995 470 999 490L1026 538Q1026 539 1026.0 540.0Q1026 541 1027 542Q1027 541 1026.5 540.5Q1026 540 1026 539L1041 566Z" fill="#d0cfce" />
<path d="M747.189697265625 281.314208984375Q767.7978515625 281.826416015625 787.0296630859375 262.556884765625Q806.261474609375 243.287353515625 821.5416259765625 213.1724853515625Q836.82177734375 183.0576171875 845.0540771484375 149.541015625Q853.286376953125 116.0244140625 851.46484375 85.848388671875Q853.740478515625 62.615478515625 838.0821533203125 51.3336181640625Q822.423828125 40.0517578125 804.21923828125 54.106689453125Q743.093017578125 102.562744140625 704.2073974609375 161.0086669921875Q665.32177734375 219.45458984375 658.203857421875 296.957763671875Z" fill="#61b2e4" />
<path d="M357 791Q374 790 388 780Q444 743 457 606Q458 596 449 589Q440 583 431 588Q421 592 420 603Q414 667 398.5 703.0Q383 739 368 750Q354 759 337 752Q327 749 316.0 740.0Q305 731 293 715Q287 706 276 708Q266 709 262 719Q257 729 264 737Q293 775 323 787Q340 793 357 791Z" fill="#000000" />
<path d="M577 814Q628 810 660 758Q666 749 661 739Q656 730 645 730Q634 729 629 739Q614 763 594.0 772.0Q574 781 557 775Q540 769 524.5 744.0Q509 719 507 665Q506 654 497 649Q488 644 479 650Q470 656 470 667Q473 726 493.5 762.5Q514 799 545 810Q561 815 577 814Z" fill="#000000" />
<path d="M433 864Q447 864 451 850Q454 842 457.5 829.5Q461 817 462 799Q462 792 457.0 786.0Q452 780 445 780Q437 780 431.5 785.0Q426 790 425 798Q425 811 422.0 820.0Q419 829 416 840Q413 848 418 856Q424 863 433 864Z" fill="#000000" />
<path d="M865 323Q880 322 883 308Q886 294 873 288Q843 273 811.0 267.5Q779 262 747 263Q739 263 734.0 268.5Q729 274 729 282Q729 289 734.5 294.5Q740 300 748 299Q776 298 803.5 303.5Q831 309 857 321Q861 323 865 323Z" fill="#000000" />
<path d="M658 315Q675 315 676 298Q683 225 719.5 170.0Q756 115 816 68Q821 64 823.0 64.5Q825 65 827 66Q830 68 832.0 72.5Q834 77 833 84Q833 85 833 86Q835 113 827.0 145.5Q819 178 805 205Q791 233 775 248Q760 263 747 263Q739 263 734.0 268.0Q729 273 729 281Q729 289 734.0 294.0Q739 299 747 299Q762 299 775.5 292.0Q789 285 800 275Q811 264 820.5 250.5Q830 237 838 221Q854 190 862.5 154.5Q871 119 870 86Q872 53 849 36Q837 28 821.5 28.5Q806 29 793 39Q730 89 688.5 151.0Q647 213 640 295Q639 303 644 309Q650 315 658 315Z" fill="#000000" />
<path d="M344 502Q372 499 400.0 482.0Q428 465 458 443Q487 421 516.0 398.0Q545 375 570 359Q614 330 663 314Q673 311 675 301Q678 290 670 283Q662 276 652 279Q598 296 550 328Q523 346 493.5 369.5Q464 393 436 414Q407 435 381.5 449.5Q356 464 339 466Q315 469 297 457Q281 446 285 430Q286 422 282.0 415.5Q278 409 271 408Q263 406 257.0 410.5Q251 415 249 422Q245 442 253.5 459.5Q262 477 276 487Q305 507 344 502Z" fill="#000000" />
<path d="M863 797Q873 794 877.5 787.5Q882 781 885 774Q892 764 903.5 760.0Q915 756 931 753Q948 750 967.0 745.0Q986 740 1001 723Q1005 718 1007.0 713.0Q1009 708 1012 703Q1012 704 1012.5 704.5Q1013 705 1014 706Q1022 712 1032.0 717.0Q1042 722 1055 722Q1055 722 1055 722Q1071 722 1085.0 719.5Q1099 717 1113 718Q1126 719 1138.5 724.5Q1151 730 1165 747Q1174 757 1186 753Q1198 748 1198 735Q1198 709 1197.0 685.0Q1196 661 1186 638Q1177 615 1154.5 597.5Q1132 580 1094 569Q1094 569 1094 569Q1081 566 1072.0 563.0Q1063 560 1057 557Q1049 553 1046 546Q1041 504 1027.0 449.5Q1013 395 984.0 337.0Q955 279 906 227Q900 222 892.5 221.5Q885 221 880 227Q874 232 874.0 239.5Q874 247 879 252Q925 300 952.0 355.0Q979 410 992.5 462.5Q1006 515 1010 554Q1011 556 1011 558Q1020 579 1041 590Q1050 595 1060.5 598.0Q1071 601 1084 604Q1117 614 1131.5 625.5Q1146 637 1153 652Q1156 661 1158.0 672.5Q1160 684 1160 697Q1136 683 1115 681Q1097 680 1081.0 682.5Q1065 685 1054 686Q1048 686 1037 677Q1031 672 1025.5 667.0Q1020 662 1014 657Q1005 650 995 654Q985 658 984 668Q983 677 980.5 685.0Q978 693 973 699Q967 706 954.5 709.5Q942 713 924 717Q909 720 892.0 726.5Q875 733 861 748Q861 746 860.5 744.5Q860 743 860 741Q858 729 857.0 716.0Q856 703 856 697Q857 686 867 676Q872 670 879.0 665.0Q886 660 893 654Q901 648 908.5 640.0Q916 632 919 620Q926 596 905 568Q905 567 904 567Q866 524 822.0 503.0Q778 482 733 478Q688 473 642.5 480.0Q597 487 553 497Q510 508 468.5 518.0Q427 528 391 531Q356 534 328.0 527.5Q300 521 276 502Q273 448 301.0 387.0Q329 326 380 274Q433 220 503.0 185.0Q573 150 648 149Q655 148 660.5 142.5Q666 137 666 130Q666 122 660.5 117.0Q655 112 647 112Q564 114 487.5 152.5Q411 191 354 249Q296 307 264.0 377.0Q232 447 239 514Q240 521 245 525Q276 554 314.5 562.5Q353 571 394 568Q434 564 476.5 553.5Q519 543 562 533Q605 523 647.0 516.5Q689 510 729 514Q769 518 805.5 535.5Q842 553 876 590Q882 599 883.0 603.5Q884 608 884 610Q882 616 870 625Q864 630 856.0 636.0Q848 642 840 650Q833 658 826.5 669.5Q820 681 820 695Q819 717 824 747Q826 763 830 774Q833 781 836 786Q836 787 837.5 787.5Q839 788 840 789Q844 795 850 797Q857 799 863 797Z" fill="#000000" />
<path d="M408 242H409Q424 242 427 227Q435 193 451.0 159.0Q467 125 489 91Q493 86 495.0 85.5Q497 85 500 86Q502 86 505.5 89.5Q509 93 511 100Q511 101 511 102Q519 123 522 152Q523 162 532 167Q542 172 551 166Q560 159 558 149Q556 116 546 91Q538 59 510 50Q497 46 482.5 52.0Q468 58 459 71Q435 106 417.5 143.0Q400 180 391 219Q389 227 395 234Q400 241 408 242Z" fill="#000000" />
</g></svg>