<svg xmlns="http://www.w3.org/2000/svg" viewBox="0 0 2048 2048">
<g transform="matrix(1 0 0 -1 0 2048)">
<path d="M1082 -55Q1090 -55 1095.0 -50.0Q1100 -45 1100 -37V807Q1100 815 1095.0 820.0Q1090 825 1082 825H238Q230 825 225.0 820.0Q220 815 220 807V-37Q220 -45 225.0 -50.0Q230 -55 238 -55Z" fill="#d0cfce" />
<path d="M1082 -73Q1118 -73 1118 -37V808Q1118 844 1082 844H238Q202 844 202 808V-37Q202 -73 238 -73ZM1082 -36H238V807H1082Z" fill="#000000" />
<path d="M403 458Q403 440 422 440Q440 440 440 458V532H862V458Q862 440 880 440Q898 440 898 458V550Q898 568 880 568H422Q403 568 403 550Z" fill="#000000" />
<path d="M511 651Q501 667 485 657Q470 648 479 632L536 540Q546 525 562 534Q577 544 567 560Z" fill="#000000" />
<path d="M639.0654296875 651.3072509765625Q628.9366455078125 667.306884765625 612.93701171875 657.1781005859375Q597.9351806640625 648.0587158203125 607.0603637695312 632.0532836914062L664.799072265625 540.052490234375Q674.9220581054688 525.0564575195312 690.927490234375 534.181640625Q705.9235229492188 544.3046264648438 695.7947387695312 560.3042602539062Z" fill="#000000" />
<path d="M823 633Q831 649 815 658Q807 662 801 660Q795 658 790 650L742 559Q733 542 749 534Q758 530 764 531Q770 533 774 541Z" fill="#000000" />
<path d="M495 477V367Q495 348 513 348H788Q807 348 807 367V477Q807 495 788 495H513Q495 495 495 477ZM532 458H770V385H532Z" fill="#000000" />
<path d="M589.109130859375 301.94140625Q580.3056640625 285.00830078125 597.604248046875 277.134521484375Q613.607666015625 268.696533203125 622.045654296875 284.699951171875L658.522705078125 358.3759765625Q666.960693359375 374.37939453125 650.027587890625 383.182861328125Q634.024169921875 391.620849609375 625.220703125 374.687744140625Z" fill="#000000" />
<path d="M440 128Q440 110 458 110Q477 110 477 128V275H825V128Q825 110 843 110Q862 110 862 128V293Q862 312 843 312H458Q440 312 440 293Z" fill="#000000" />
<path d="M477 202Q459 202 459 184Q459 165 477 165H825Q844 165 844 184Q844 202 825 202Z" fill="#000000" />
</g></svg>