<svg xmlns="http://www.w3.org/2000/svg" viewBox="0 0 2048 2048">
<g transform="matrix(1 0 0 -1 0 2048)">
<path d="M1082 834 211 -37H1100Z" fill="#000000" />
<path d="M220 825V-55L1100 825Z" fill="#ffffff" />
<path d="M1082 834 211 -37H1100Z" fill="#3f3f3f" />
<path d="M1082 -73Q1097 -73 1108 -63Q1118 -52 1118 -37V807Q1118 822 1108 833Q1097 843 1082 843H238Q223 843 212 833Q202 822 202 807V-37Q202 -52 212 -63Q223 -73 238 -73ZM1082 -37H238V807H1082Z" fill="#000000" />
<path d="M1095 794Q1101 800 1101 807Q1101 813 1095 820Q1082 833 1069 820L262 13Q249 0 262 -13Q269 -19 275 -19Q281 -19 288 -13Z" fill="#000000" />
</g></svg>