<svg xmlns="http://www.w3.org/2000/svg" viewBox="0 0 2048 2048">
<g transform="matrix(1 0 0 -1 0 2048)">
<path d="M1082 -55Q1090 -55 1095.0 -50.0Q1100 -45 1100 -37V807Q1100 815 1095.0 820.0Q1090 825 1082 825H238Q230 825 225.0 820.0Q220 815 220 807V-37Q220 -45 225.0 -50.0Q230 -55 238 -55Z" fill="#d0cfce" />
<path d="M1082 -73Q1097 -73 1108 -63Q1118 -52 1118 -37V807Q1118 843 1082 843H238Q202 843 202 807V-37Q202 -73 238 -73ZM1082 -37H238V807H1082Z" fill="#000000" />
<path d="M901 498Q910 498 910 489V457Q910 448 901 448H800V358Q800 307 781.5 261.0Q763 215 730 181Q680 131 618 127Q609 127 609 137V169Q609 177 617 178Q659 181 694 216Q750 272 750 358V448H582V309Q582 300 573 300H542Q532 300 532 309V448H419Q410 448 410 457V489Q410 498 419 498H532V585Q532 595 542 595H573Q582 595 582 585V498H750V585Q750 595 760 595H791Q800 595 800 585V498Z" fill="#000000" />
</g></svg>