<svg xmlns="http://www.w3.org/2000/svg" viewBox="0 0 2048 2048">
<g transform="matrix(1 0 0 -1 0 2048)">
<path d="M1082 -55Q1090 -55 1095.0 -50.0Q1100 -45 1100 -37V807Q1100 815 1095.0 820.0Q1090 825 1082 825H238Q230 825 225.0 820.0Q220 815 220 807V-37Q220 -45 225.0 -50.0Q230 -55 238 -55Z" fill="#d0cfce" />
<path d="M458 385Q440 385 440 367Q440 348 458 348H862Q880 348 880 367Q880 385 862 385Z" fill="#000000" />
<path d="M394 303Q376 303 376 284Q376 266 394 266H660H926Q944 266 944 284Q944 303 926 303H660Z" fill="#000000" />
<path d="M688 257Q688 275 669 275Q651 275 651 257V137H578Q559 137 559 119Q559 101 578 101H669Q688 101 688 119Z" fill="#000000" />
<path d="M547 229Q557 245 541 254Q533 259 527 257Q521 256 516 248Q465 163 399 146Q390 144 387 138Q383 133 386 124Q390 106 408 111Q488 131 547 229Z" fill="#000000" />
<path d="M804 248Q795 263 779 254Q763 245 773 229Q832 131 912 111Q930 106 934 124Q939 142 921 146Q855 163 804 248Z" fill="#000000" />
<path d="M532 642Q532 660 513 660Q495 660 495 642V458Q495 440 513 440Q532 440 532 458Z" fill="#000000" />
<path d="M385 613Q367 613 367 594Q367 576 385 576H614Q633 576 633 594Q633 613 614 613Z" fill="#000000" />
<path d="M504 596Q504 568 487.5 542.0Q471 516 449.0 495.0Q427 474 410.5 461.5Q394 449 394 449Z" fill="#000000" />
<path d="M384 464Q376 459 375 453Q374 447 379 439Q389 424 404 434Q523 513 523 596Q523 614 504 614Q486 614 486 596Q486 532 384 464Z" fill="#000000" />
<path d="M614 486Q594 493 578.0 510.5Q562 528 551.0 547.5Q540 567 534.5 581.5Q529 596 529 596Z" fill="#000000" />
<path d="M546 602Q541 619 523 613Q506 608 512 590Q545 490 608 468Q626 463 632 480Q634 489 632 495Q629 500 620 503Q574 519 546 602Z" fill="#000000" />
<path d="M816 642Q816 660 797 660Q779 660 779 642V458Q779 440 797 440Q816 440 816 458Z" fill="#000000" />
<path d="M926.0 576.0Q944.0 576.0 944.0 595.0Q944.0 613.0 926.0 613.0H697.0Q678.0 613.0 678.0 595.0Q678.0 576.0 697.0 576.0Z" fill="#000000" />
<path d="M807 596Q807 568 823.5 542.0Q840 516 861.5 495.0Q883 474 900.0 461.5Q917 449 917 449Z" fill="#000000" />
<path d="M906 434Q922 424 932 439Q942 454 927 464Q825 532 825 596Q825 614 807 614Q788 614 788 596Q788 513 906 434Z" fill="#000000" />
<path d="M678 458Q703 467 722.5 489.0Q742 511 755.0 535.5Q768 560 775.0 578.0Q782 596 782 596Z" fill="#000000" />
<path d="M799 590Q802 599 799 605Q796 611 787 613Q770 619 764 601Q731 496 672 476Q655 470 661 452Q667 435 684 441Q760 467 799 590Z" fill="#000000" />
<path d="M1082 -73Q1118 -73 1118 -37V808Q1118 844 1082 844H238Q202 844 202 808V-37Q202 -73 238 -73ZM1082 -36H238V807H1082Z" fill="#000000" />
</g></svg>