<svg xmlns="http://www.w3.org/2000/svg" viewBox="0 0 2048 2048">
<g transform="matrix(1 0 0 -1 0 2048)">
<path d="M1082 -55Q1090 -55 1095.0 -50.0Q1100 -45 1100 -37V807Q1100 815 1095.0 820.0Q1090 825 1082 825H238Q230 825 225.0 820.0Q220 815 220 807V-37Q220 -45 225.0 -50.0Q230 -55 238 -55Z" fill="#d0cfce" />
<path d="M1082 -73Q1097 -73 1108 -63Q1118 -52 1118 -37V807Q1118 843 1082 843H238Q202 843 202 807V-37Q202 -73 238 -73ZM1082 -37H238V807H1082Z" fill="#000000" />
<path d="M897 458Q897 476 879 476Q861 476 861 458V311Q861 293 879 293H942Q960 293 960 311Q960 330 942 330H897Z" fill="#000000" />
<path d="M586 293Q657 293 657 364V405Q657 435 636 455Q615 476 586 476Q515 476 515 405V364Q515 334 536 314Q557 293 586 293ZM586 330Q552 330 552 364V405Q552 440 586 440Q620 440 620 405V364Q620 330 586 330Z" fill="#000000" />
<path d="M753 293Q783 293 803 314Q824 334 824 364V405Q824 476 753 476Q683 476 683 405V364Q683 334 703 314Q724 293 753 293ZM753 330Q719 330 719 364V405Q719 440 753 440Q787 440 787 405V364Q787 349 777 339Q767 330 753 330Z" fill="#000000" />
<path d="M496 311Q509 323 497 337Q491 343 485 344Q478 344 471 338Q462 330 449 330Q435 330 425 339Q415 349 415 364V405Q415 440 449 440Q462 440 471 431Q485 419 497 432Q503 439 503 446Q503 452 496 458Q476 476 449 476Q420 476 399 455Q378 435 378 405V364Q378 293 449 293Q476 293 496 311Z" fill="#000000" />
</g></svg>