<svg xmlns="http://www.w3.org/2000/svg" viewBox="0 0 2048 2048">
<g transform="matrix(1 0 0 -1 0 2048)">
<path d="M1082 -73Q1118 -73 1118 -37V808Q1118 844 1082 844H238Q202 844 202 808V-37Q202 -73 238 -73ZM1082 -36H238V807H1082Z" fill="#000000" />
<path d="M600 251Q614 263 602 277Q596 283 589 284Q583 284 576 278Q553 258 523 258Q490 258 467 281Q444 305 444 338V416Q444 449 467 472Q490 495 523 495Q553 495 576 475Q589 463 602 477Q614 491 600 503Q567 532 523 532Q475 532 441 498Q407 464 407 416V338Q407 289 441 255Q475 221 523 221Q567 221 600 251Z" fill="#000000" />
<path d="M796 512Q796 531 777 531Q759 531 759 512V239Q759 220 777 220H895Q913 220 913 239Q913 257 895 257H796Z" fill="#000000" />
<path d="M1082 -63Q1090 -63 1095.0 -58.0Q1100 -53 1100 -45V799Q1100 807 1095.0 812.0Q1090 817 1082 817H238Q230 817 225.0 812.0Q220 807 220 799V-45Q220 -53 225.0 -58.0Q230 -63 238 -63Z" fill="#d22f27" />
<path d="M1082 -73Q1118 -73 1118 -37V808Q1118 844 1082 844H238Q202 844 202 808V-37Q202 -73 238 -73ZM1082 -36H238V807H1082Z" fill="#ffffff" />
<path d="M600 251Q614 263 602 277Q596 283 589 284Q583 284 576 278Q553 258 523 258Q490 258 467 281Q444 305 444 338V416Q444 449 467 472Q490 495 523 495Q553 495 576 475Q589 463 602 477Q614 491 600 503Q567 532 523 532Q475 532 441 498Q407 464 407 416V338Q407 289 441 255Q475 221 523 221Q567 221 600 251Z" fill="#ffffff" />
<path d="M796 512Q796 531 777 531Q759 531 759 512V239Q759 220 777 220H895Q913 220 913 239Q913 257 895 257H796Z" fill="#ffffff" />
</g></svg>