<svg xmlns="http://www.w3.org/2000/svg" viewBox="0 0 2048 2048">
<g transform="matrix(1 0 0 -1 0 2048)">
<path d="M1082 -37Q1090 -37 1095.0 -32.0Q1100 -27 1100 -19V825Q1100 833 1095.0 838.0Q1090 843 1082 843H238Q230 843 225.0 838.0Q220 833 220 825V-19Q220 -27 225.0 -32.0Q230 -37 238 -37Z" fill="#92d3f5" />
<path d="M1082 -61Q1118 -61 1118 -25V820Q1118 856 1082 856H238Q202 856 202 820V-25Q202 -61 238 -61ZM1082 -24H238V819H1082Z" fill="#000000" />
<path d="M385 260Q385 241 403 241Q422 241 422 260V478L585 249Q590 242 597 241Q603 239 610 245Q618 250 618 260V535Q618 553 600 553Q581 553 581 535V317L418 545Q413 553 403 553Q385 553 385 535Z" fill="#000000" />
<path d="M908 496Q915 490 921 491Q928 491 934 498Q946 512 932 524Q899 553 855 553Q807 553 773 519Q739 485 739 437V358Q739 310 773 276Q807 241 855 241Q903 241 938 276Q972 310 972 358V398Q972 416 953 416H875Q856 416 856 398Q856 379 875 379H935V358Q935 325 912 301Q888 278 855 278Q822 278 799 301Q775 325 775 358V437Q775 470 799 493Q822 516 855 516Q885 516 908 496Z" fill="#000000" />
</g></svg>