<svg xmlns="http://www.w3.org/2000/svg" viewBox="0 0 2048 2048">
<g transform="matrix(1 0 0 -1 0 2048)">
<path d="M238 826Q225 826 215.5 817.0Q206 808 206 795V-41Q206 -54 215.5 -63.0Q225 -72 238 -72H1073Q1086 -72 1095.0 -63.0Q1104 -54 1104 -41V795Q1104 808 1095.0 817.0Q1086 826 1073 826Z" fill="#d0cfce" />
<path d="M421 487Q403 487 403 469Q403 450 421 450H659Q678 450 678 469Q678 487 659 487Z" fill="#000000" />
<path d="M421 597Q403 597 403 579Q403 561 421 561H680Q698 561 698 579Q698 597 680 597Z" fill="#000000" />
<path d="M407 597Q389 597 389 579Q389 561 407 561H666Q684 561 684 579Q684 597 666 597Z" fill="#000000" />
<path d="M429 412Q411 412 411 393Q411 375 429 375H651Q670 375 670 393Q670 412 651 412Z" fill="#000000" />
<path d="M442 134Q424 134 424 115Q424 97 442 97H642Q660 97 660 115Q660 134 642 134Z" fill="#000000" />
<path d="M398 328Q380 328 380 310Q380 291 398 291H682Q700 291 700 310Q700 328 682 328Z" fill="#000000" />
<path d="M559 515Q559 534 540 534Q522 534 522 515V310Q522 291 540 291Q559 291 559 310Z" fill="#000000" />
<path d="M792 575Q792 594 774 594Q756 594 756 575V257Q756 238 774 238Q792 238 792 257Z" fill="#000000" />
<path d="M559 643Q559 661 540 661Q522 661 522 643V584Q522 565 540 565Q559 565 559 584Z" fill="#000000" />
<path d="M698 579Q698 597 680 597Q662 597 662 579V515Q662 497 680 497Q698 497 698 515Z" fill="#000000" />
<path d="M425 579Q425 597 407 597Q389 597 389 579V515Q389 497 407 497Q425 497 425 515Z" fill="#000000" />
<path d="M424 83Q424 65 442 65Q460 65 460 83V213H626V83Q626 65 645 65Q663 65 663 83V231Q663 250 645 250H442Q424 250 424 231Z" fill="#000000" />
<path d="M924 643Q924 661 906 661Q888 661 888 643V112H803Q784 112 784 94Q784 76 803 76H906Q924 76 924 94Z" fill="#000000" />
<path d="M237 845Q188 845 188 795V-40Q188 -90 237 -90H1073Q1122 -90 1122 -40V795Q1122 845 1073 845ZM237 808H1073Q1086 808 1086 795V-40Q1086 -53 1073 -53H237Q224 -53 224 -40V795Q224 808 237 808Z" fill="#000000" />
</g></svg>