<svg xmlns="http://www.w3.org/2000/svg" viewBox="0 0 2048 2048">
<g transform="matrix(1 0 0 -1 0 2048)">
<path d="M1210 422H110L183 147H1137Z" fill="#d0cfce" />
<path d="M1210 422H110Q110 470 137.0 499.5Q164 529 209.5 545.0Q255 561 312.5 567.0Q370 573 432.0 573.0Q494 573 553.0 570.5Q612 568 660 568Q708 568 767.0 570.5Q826 573 888.0 573.0Q950 573 1007.5 567.0Q1065 561 1110.5 545.0Q1156 529 1183.0 499.5Q1210 470 1210 422Z" fill="#d0cfce" />
<path d="M257 477H1063Q1063 525 1041.5 552.0Q1020 579 984.5 591.0Q949 603 905.0 604.0Q861 605 815.5 600.5Q770 596 729.5 591.5Q689 587 660 587Q631 587 590.5 591.5Q550 596 504.5 600.5Q459 605 415.0 604.0Q371 603 335.5 591.0Q300 579 278.5 552.0Q257 525 257 477Z" fill="#d0cfce" />
<path d="M458 429H880Q880 514 867.0 559.5Q854 605 833.0 623.0Q812 641 787.0 640.0Q762 639 737.5 628.5Q713 618 692.5 608.0Q672 598 660 598Q648 598 629.0 608.0Q610 618 587.5 628.5Q565 639 542.0 640.0Q519 641 500.0 623.0Q481 605 469.5 559.5Q458 514 458 429Z" fill="#d0cfce" />
<path d="M752 147H568Q568 219 577.0 262.5Q586 306 600.0 328.5Q614 351 630.0 359.0Q646 367 660 367Q674 367 690.0 359.0Q706 351 720.0 328.5Q734 306 743.0 262.5Q752 219 752 147Z" fill="#92d3f5" />
<path d="M1228 417Q1228 419 1228 422Q1228 552 1038 582Q985 626 859 622Q810 685 694 629Q665 616 660 616Q655 616 627 630Q520 685 476 621Q338 629 282 582Q92 552 92 422Q92 419 92 417L166 142Q169 128 183 128H568Q587 128 587 147Q587 348 660 348Q688 348 704 320Q733 270 733 147Q733 128 752 128H1137Q1151 128 1154 142ZM1192 424 1123 165H770Q766 385 660 385Q554 385 550 165H197L128 424Q130 522 293 546Q298 547 302 551Q348 593 484 584Q496 583 502 594Q527 640 611 597Q646 579 660 579Q674 579 709 596Q804 642 834 594Q839 585 850 585Q975 591 1018 551Q1022 547 1027 546Q1190 522 1192 424Z" fill="#000000" />
<path d="M752 128Q770 128 770 147Q770 165 752 165H568Q550 165 550 147Q550 128 568 128Z" fill="#000000" />
<path d="M1045 477Q1045 458 1063 458Q1082 458 1082 477Q1082 541 1043 578Q1036 584 1030 584Q1023 584 1017 577Q1004 564 1018 551Q1045 525 1045 477Z" fill="#000000" />
<path d="M302 551Q316 564 303 577Q297 584 290 584Q284 584 277 578Q238 541 238 477Q238 458 257 458Q275 458 275 477Q275 525 302 551Z" fill="#000000" />
<path d="M862 430Q862 411 880 411Q898 411 898 430Q898 524 880 579Q880 580 880 580L866 611Q858 628 842 620Q833 616 831 610Q829 604 832 596L846 566Q862 518 862 430Z" fill="#000000" />
<path d="M503 596Q509 613 492 619Q475 626 469 609L457 580Q457 579 456 578Q440 524 440 430Q440 411 458 411Q477 411 477 430Q477 518 491 567Z" fill="#000000" />
<path d="M220 147Q220 128 238 128Q257 128 257 147V257Q275 257 275 275Q275 293 257 293Q220 293 220 257Z" fill="#000000" />
<path d="M330 147Q330 128 348 128Q367 128 367 147V257Q385 257 385 275Q385 293 367 293Q330 293 330 257Z" fill="#000000" />
<path d="M440 147Q440 128 458 128Q477 128 477 147V257Q495 257 495 275Q495 293 477 293Q440 293 440 257Z" fill="#000000" />
<path d="M1027 147Q1027 128 1045 128Q1064 128 1064 147V257Q1082 257 1082 275Q1082 293 1064 293Q1027 293 1027 257Z" fill="#000000" />
<path d="M917 147Q917 128 935 128Q954 128 954 147V257Q972 257 972 275Q972 293 954 293Q917 293 917 257Z" fill="#000000" />
<path d="M807 147Q807 128 825 128Q844 128 844 147V257Q862 257 862 275Q862 293 844 293Q807 293 807 257Z" fill="#000000" />
<path d="M752 128Q770 128 770 147Q770 385 660 385Q550 385 550 147Q550 128 568 128ZM733 165H587Q589 274 616 320Q632 348 660 348Q730 348 733 165Z" fill="#000000" />
</g></svg>