<svg xmlns="http://www.w3.org/2000/svg" viewBox="0 0 2048 2048">
<g transform="matrix(1 0 0 -1 0 2048)">
<path d="M220 824V-53H1100V824Z" fill="#b399c8" />
<path d="M201.3607177734375 -54.7630615234375Q201.3607177734375 -73.0552978515625 219.6529541015625 -73.0552978515625H1099.7127685546875Q1118.0050048828125 -73.0552978515625 1118.0050048828125 -54.7630615234375V825.2967529296875Q1118.0050048828125 843.5889892578125 1099.7127685546875 843.5889892578125H219.6529541015625Q201.3607177734375 843.5889892578125 201.3607177734375 825.2967529296875ZM237.9451904296875 807.0045166015625H1081.4205322265625V-36.4708251953125H237.9451904296875Z" fill="#000000" />
<path d="M681 715Q678 721 672 724Q663 729 654 727Q644 724 639 715L501 477L364 239Q361 233 361 227Q361 217 368 209Q375 202 386 202H660H934Q941 202 947 205Q956 210 958 220Q961 230 956 239ZM660 653 892 251H660H428L544 452Z" fill="#000000" />
<path d="M385 568Q379 568 373 564Q364 559 361 549Q359 539 364 530L501 293L639 55Q642 49 648 46Q657 41 667 43Q676 46 682 55L956 530Q959 536 959 542Q959 553 952 560Q945 567 935 567ZM428 518H892L660 117L544 317Z" fill="#000000" />
</g></svg>