<svg xmlns="http://www.w3.org/2000/svg" viewBox="0 0 2048 2048">
<g transform="matrix(1 0 0 -1 0 2048)">
<path d="M679 843V82L360 -69L418 266L174 503L511 552Z" fill="#000000" />
<path d="M642 834V82L969 -78L911 257L1155 494L819 543Z" fill="#fcea2b" />
<path d="M679 843V82L360 -69L418 266L174 503L511 552Z" fill="#3f3f3f" />
<path d="M643 856 497 560 170 512Q152 510 155 492Q156 485 160 481L397 251L341 -75Q338 -93 356 -96Q362 -97 368 -94L660 59L953 -94Q969 -103 977 -86Q980 -81 979 -75L923 251L1160 481Q1173 494 1160 507Q1156 512 1150 513L823 560L676 856Q668 873 652 865Q646 862 643 856ZM660 807 794 535Q798 527 808 525L1108 482L891 270Q884 264 886 254L937 -44L669 96Q660 101 652 96L384 -45L435 254Q436 263 429 270L212 481L512 525Q522 526 526 535Z" fill="#000000" />
<path d="M678.0 825.0Q678.0 844.0 660.0 844.0Q642.0 844.0 642.0 825.0V147.0Q642.0 129.0 660.0 129.0Q678.0 129.0 678.0 147.0Z" fill="#000000" />
</g></svg>