<svg xmlns="http://www.w3.org/2000/svg" viewBox="0 0 2048 2048">
<g transform="matrix(1 0 0 -1 0 2048)">
<path d="M394 678Q390 623 378 570Q377 565 373.0 549.0Q369 533 363.5 515.0Q358 497 352.0 484.5Q346 472 340 472Q333 473 323 541Q317 582 312.5 617.0Q308 652 304 678Z" fill="#92d3f5" />
<path d="M252.41351318359375 768.618896484375V687.512451171875H430.1619873046875V768.618896484375Z" fill="#61b2e4" />
<path d="M428 497Q412 500 398.0 467.0Q384 434 375 390Q392 326 410.0 256.0Q428 186 462 115Q481 73 506.0 39.5Q531 6 536 -24Q539 -50 530.0 -71.5Q521 -93 508.5 -111.0Q496 -129 488.0 -143.0Q480 -157 486 -166Q493 -177 516.0 -174.0Q539 -171 573.5 -161.5Q608 -152 649 -144Q714 -133 769.0 -134.5Q824 -136 867.0 -143.0Q910 -150 940.5 -155.0Q971 -160 988 -154Q996 -152 999.0 -144.5Q1002 -137 999 -129Q989 -102 974.5 -76.5Q960 -51 948 -36Q936 -22 928.5 -11.5Q921 -1 912.0 6.5Q903 14 885 18Q851 29 819.0 28.5Q787 28 758.5 24.5Q730 21 705.0 21.5Q680 22 660 36Q647 45 643.0 55.0Q639 65 632.5 82.5Q626 100 606 130Q588 157 573.5 171.5Q559 186 547.0 196.0Q535 206 524.5 218.0Q514 230 503 251Q499 258 497.0 264.5Q495 271 492.5 282.5Q490 294 484.5 316.5Q479 339 469 379Q457 431 449.5 456.0Q442 481 437.0 489.0Q432 497 428 497Z" fill="#61b2e4" />
<path d="M857 198Q857 242 831.0 273.0Q805 304 768 304Q731 304 705.0 273.0Q679 242 679 198Q679 154 705.0 122.5Q731 91 768 91Q805 91 831.0 122.5Q857 154 857 198Z" fill="#92d3f5" />
<path d="M296 800Q304 784 324.0 776.5Q344 769 367.5 770.5Q391 772 408 785Q426 797 432.5 815.5Q439 834 439.5 852.5Q440 871 440 885Q440 891 438.5 904.5Q437 918 433.0 930.5Q429 943 420 945Q412 947 404.5 937.0Q397 927 384.0 911.0Q371 895 346 880Q329 869 317.0 864.0Q305 859 298 845Q286 823 296 800Z" fill="#f4aa41" />
<path d="M779 485Q779 504 761 504Q742 504 742 485V373Q742 355 761 355Q779 355 779 373Z" fill="#92d3f5" />
<path d="M971 401Q985 413 973 427Q960 441 947 429L858 349Q845 337 857 324Q869 310 883 322Z" fill="#92d3f5" />
<path d="M591.8851318359375 430.7646484375Q578.4503784179688 444.19940185546875 565.7227172851562 431.47174072265625Q552.2879638671875 418.0369873046875 565.7227172851562 404.60223388671875L644.9170532226562 325.40789794921875Q657.6447143554688 312.68023681640625 671.0794677734375 326.114990234375Q683.80712890625 338.8426513671875 671.0794677734375 351.5703125Z" fill="#92d3f5" />
<path d="M562 275Q544 275 544 257Q544 239 562 239H628Q647 239 647 257Q647 275 628 275Z" fill="#92d3f5" />
<path d="M922.0 271.0Q903.0 271.0 903.0 253.0Q903.0 234.0 922.0 234.0H1034.0Q1052.0 234.0 1052.0 253.0Q1052.0 271.0 1034.0 271.0Z" fill="#92d3f5" />
<path d="M227 688Q227 670 245 670H430Q449 670 449 688V769Q449 787 430 787H245Q227 787 227 769ZM263 751H412V706H263Z" fill="#000000" />
<path d="M282 785Q290 769 306 777Q315 780 317 787Q319 793 315 801Q308 816 312 831Q315 842 341 859Q355 869 363 875Q388 893 413 917Q419 923 422 925Q430 915 418 865Q414 850 406 836Q397 820 413 811Q421 807 428 808Q434 810 438 818Q448 836 453 856Q476 945 433 962Q415 969 388 943Q364 921 342 904Q334 899 320 889Q283 864 277 841Q277 841 276 841Q269 812 282 785Z" fill="#000000" />
<path d="M322 683Q320 701 302 699Q284 697 286 679Q312 443 350 444Q385 444 403 628Q405 646 387 648Q368 650 367 632Q352 480 349 480Q344 480 322 683Z" fill="#000000" />
<path d="M376 400Q371 418 354 413Q345 410 342 404Q339 399 341 390L384 242Q387 231 393 212Q412 145 418 132Q439 81 477 27Q504 -11 502 -34Q492 -85 476 -133Q476 -134 476 -134Q472 -147 468 -160Q465 -169 468 -175Q471 -181 480 -183Q498 -189 503 -171Q507 -158 511 -144Q528 -93 538 -40Q538 -40 538 -39Q543 -2 507 49Q471 99 452 146Q447 157 428 222Q423 241 419 253Z" fill="#000000" />
<path d="M438 519Q431 536 414 528Q397 521 405 504Q437 433 456 358Q466 323 473 287Q480 253 492 231Q514 191 560 150Q604 111 622 71Q633 42 656 21Q657 20 657 20Q703 -14 759 -8Q781 -5 814 7Q837 15 849 17Q897 23 925 -16Q926 -18 927 -19Q944 -35 987 -147Q993 -164 1010 -158Q1019 -155 1021 -149Q1024 -143 1021 -134Q977 -18 954 6Q913 62 845 53Q844 53 844 53Q828 51 801 41Q773 31 755 29Q713 24 680 48Q663 64 656 84Q656 85 655 86Q634 132 584 177Q543 214 525 248Q515 266 509 294Q502 332 492 367Q471 445 438 519Z" fill="#000000" />
<path d="M878 198Q878 251 847 289Q815 328 768 328Q722 328 689 289Q658 251 658 198Q658 145 689 107Q722 68 768 68Q815 68 847 107Q878 145 878 198ZM842 198Q842 158 819 130Q798 104 768 104Q739 104 718 130Q695 158 695 198Q695 238 718 265Q739 291 768 291Q798 291 819 265Q842 238 842 198Z" fill="#000000" />
<path d="M922.0 262.0Q903.0 262.0 903.0 244.0Q903.0 225.0 922.0 225.0H1034.0Q1052.0 225.0 1052.0 244.0Q1052.0 262.0 1034.0 262.0Z" fill="#000000" />
<path d="M869.930419921875 343.83251953125Q855.93017578125 331.829345703125 867.933349609375 317.8291015625Q880.9366455078125 303.8289794921875 893.936767578125 315.83203125L982.9378662109375 395.8526611328125Q995.93798828125 407.855712890625 983.9349365234375 420.8558349609375Q971.9317626953125 434.8560791015625 957.9315185546875 422.8529052734375Z" fill="#000000" />
<path d="M754.0 374.0Q754.0 355.0 772.0 355.0Q791.0 355.0 791.0 374.0V486.0Q791.0 504.0 772.0 504.0Q754.0 504.0 754.0 486.0Z" fill="#000000" />
<path d="M628.0 230.0Q646.0 230.0 646.0 248.0Q646.0 266.0 628.0 266.0H562.0Q543.0 266.0 543.0 248.0Q543.0 230.0 562.0 230.0Z" fill="#000000" />
<path d="M635.1148681640625 318.2353515625Q648.5496215820312 304.80059814453125 661.2772827148438 317.52825927734375Q674.7120361328125 330.9630126953125 661.2772827148438 344.39776611328125L582.0829467773438 423.59210205078125Q569.3552856445312 436.31976318359375 555.9205322265625 422.885009765625Q543.19287109375 410.1573486328125 555.9205322265625 397.4296875Z" fill="#000000" />
</g></svg>