<svg xmlns="http://www.w3.org/2000/svg" viewBox="0 0 2048 2048">
<g transform="matrix(1 0 0 -1 0 2048)">
<path d="M1232 478Q1232 495 1214 496Q1214 496 1213 496H140Q132 496 126.5 490.5Q121 485 121 478V308Q121 303 124 299H1225Q1227 299 1229 298Q1232 302 1232 308Z" fill="#3f3f3f" />
<path d="M498 135Q490 164 465.5 183.0Q441 202 409 202Q378 202 353.5 183.0Q329 164 321 135Z" fill="#ea5a47" />
<path d="M575.8318481445312 578.486083984375V495.223388671875H651.8795166015625V578.486083984375Z" fill="#3f3f3f" />
<path d="M500 463Q501 463 501 464V586Q501 602 489.5 613.5Q478 625 462 625H420Q402 625 389.0 612.0Q376 599 376 581V464Q376 463 377 463Z" fill="#3f3f3f" />
<path d="M175 702V489H232V702Z" fill="#3f3f3f" />
<path d="M139 353 1214 356V478Q1214 479 1214 479V713H834V496H157Q149 496 144.0 490.5Q139 485 139 478Z" fill="#3f3f3f" />
<path d="M984.5712890625 771.5698852539062V712.9636840820312H1068.783203125V771.5698852539062Z" fill="#3f3f3f" />
<path d="M830 110Q830 123 826 135Q817 170 785 189Q763 202 738 202Q724 202 711 197Q663 183 650 135Q647 123 647 110Q647 72 673.5 45.0Q700 18 738 18Q776 18 803.0 45.0Q830 72 830 110Z" fill="#ea5a47" />
<path d="M1247 277Q1247 295 1229 298Q1227 299 1225 299H95Q86 299 79.5 292.5Q73 286 73 277V262Q73 253 79.5 247.0Q86 241 95 241H124V176Q124 159 136.0 147.0Q148 135 166 135H321Q329 164 353.5 183.0Q378 202 409 202Q441 202 465.5 183.0Q490 164 498 135H650Q663 183 711 197Q724 202 738 202Q763 202 785 189Q817 170 826 135H889Q895 157 912 175Q939 202 977 202Q1002 202 1022.5 190.0Q1043 178 1055 158Q1062 147 1066 135H1172Q1180 135 1186.0 140.5Q1192 146 1192 154V241H1225Q1234 241 1240.5 247.0Q1247 253 1247 262Z" fill="#ea5a47" />
<path d="M1069 110Q1069 123 1066 135Q1062 147 1055 158Q1043 178 1022.5 190.0Q1002 202 977 202Q939 202 912 175Q895 157 889 135Q886 123 886 110Q886 72 912.5 45.0Q939 18 977 18Q1015 18 1042.0 45.0Q1069 72 1069 110Z" fill="#ea5a47" />
<path d="M501 110Q501 123 498 135Q490 164 465.5 183.0Q441 202 409 202Q378 202 353.5 183.0Q329 164 321 135Q318 123 318 110Q318 72 344.5 45.0Q371 18 409 18Q447 18 474.0 45.0Q501 72 501 110Z" fill="#ea5a47" />
<path d="M1051 496V672H923Q915 672 909.5 667.0Q904 662 904 654V496Z" fill="#000000" />
<path d="M557 496Q557 477 576 477H652Q670 477 670 496V579Q670 597 652 597H576Q557 597 557 579ZM594 560H634V514H594Z" fill="#000000" />
<path d="M519 586Q519 610 503 626Q486 643 462 643H420Q358 643 358 581V496Q358 478 376 478H501Q519 478 519 496ZM483 586V514H395V581Q395 606 420 606H462Q471 606 477 601Q483 595 483 586Z" fill="#000000" />
<path d="M157 496Q157 478 175 478H232Q251 478 251 496V702Q251 721 232 721H175Q157 721 157 702ZM194 684H214V514H194Z" fill="#000000" />
<path d="M1196 356Q1196 338 1214 338Q1233 338 1233 356V478Q1233 479 1232 481V713Q1232 732 1214 732H834Q816 732 816 713V514H501Q483 514 483 496Q483 478 501 478H834Q853 478 853 496V695H1196V479Q1196 478 1196 477Z" fill="#000000" />
<path d="M120 353Q120 335 139 335Q157 335 157 353V478H175Q194 478 194 496Q194 514 175 514H157Q120 514 120 478Z" fill="#000000" />
<path d="M376 478Q395 478 395 496Q395 514 376 514H232Q214 514 214 496Q214 478 232 478Z" fill="#000000" />
<path d="M966 713Q966 695 985 695H1069Q1087 695 1087 713V772Q1087 790 1069 790H985Q966 790 966 772ZM1003 753H1050V731H1003Z" fill="#000000" />
<path d="M160 228Q160 246 141 246Q123 246 123 228V171Q123 134 160 134H273Q292 134 292 152Q292 171 273 171H160Z" fill="#000000" />
<path d="M1107 171Q1089 171 1089 152Q1089 134 1107 134H1173Q1210 134 1210 171V241Q1210 259 1192 259Q1173 259 1173 241V171Z" fill="#000000" />
<path d="M547 171Q528 171 528 152Q528 134 547 134H605Q623 134 623 152Q623 171 605 171Z" fill="#000000" />
<path d="M1265 277Q1265 317 1225 317H95Q55 317 55 277V262Q55 222 95 222H1225Q1265 222 1265 262ZM1228 277V262Q1228 259 1225 259H95Q92 259 92 262V277Q92 280 95 280H1225Q1228 280 1228 277Z" fill="#000000" />
<path d="M1087 110Q1087 155 1055 187Q1023 220 977 220Q932 220 900 187Q867 155 867 110Q867 64 900 32Q932 0 977 0Q1023 0 1055 32Q1087 64 1087 110ZM1051 110Q1051 36 977 36Q947 36 926 58Q904 79 904 110Q904 140 926 161Q947 183 977 183Q1008 183 1029 161Q1051 140 1051 110Z" fill="#000000" />
<path d="M848 110Q848 155 816 187Q784 220 738 220Q693 220 661 187Q628 155 628 110Q628 64 661 32Q693 0 738 0Q784 0 816 32Q848 64 848 110ZM812 110Q812 36 738 36Q708 36 687 58Q665 79 665 110Q665 140 687 161Q708 183 738 183Q769 183 790 161Q812 140 812 110Z" fill="#000000" />
<path d="M520 110Q520 155 488 187Q455 220 410 220Q364 220 332 187Q300 155 300 110Q300 64 332 32Q364 0 410 0Q455 0 488 32Q520 64 520 110ZM483 110Q483 36 410 36Q337 36 337 110Q337 140 358 161Q380 183 410 183Q440 183 462 161Q483 140 483 110Z" fill="#000000" />
<path d="M1066 655Q1066 673 1048 673Q1030 673 1030 655V514H921Q903 514 903 496Q903 477 921 477H1048Q1066 477 1066 496Z" fill="#000000" />
</g></svg>