<svg xmlns="http://www.w3.org/2000/svg" viewBox="0 0 2048 2048">
<g transform="matrix(1 0 0 -1 0 2048)">
<path d="M561 701 608 404 553 -104 738 -103 683 401 728 701Z" fill="#ffffff" />
<path d="M522.9649658203125 -116.8536376953125Q521.8734130859375 -125.8580322265625 525.829833984375 -130.906005859375Q529.7862548828125 -135.9539794921875 538.7906494140625 -137.0455322265625Q556.7994384765625 -139.2286376953125 558.9825439453125 -121.2198486328125L614.26318359375 401.89697265625Q616.4462890625 419.90576171875 598.4375 422.0888671875Q588.228515625 422.43505859375 583.1805419921875 418.4786376953125Q578.132568359375 414.522216796875 578.0159912109375 405.2882080078125Z" fill="#000000" />
<path d="M733 -121Q735 -139 754 -137Q772 -135 770 -117L715 405Q713 423 695 422Q677 420 678 401Z" fill="#000000" />
<path d="M679 406 715 401 761 712 724 718Z" fill="#000000" />
<path d="M578 401 614 406 568 718 532 712Z" fill="#000000" />
<path d="M642 733Q623 733 623 715Q623 697 642 697H726L770 273Q772 255 790 257Q808 259 807 277L761 717Q759 733 743 733Z" fill="#000000" />
<path d="M642 697Q660 697 660 715Q660 733 642 733H550Q533 733 532 717L495 277Q494 267 498 262Q503 257 512 257Q530 255 532 273L567 697Z" fill="#000000" />
<path d="M715 843Q715 916 642 916Q568 916 568 843Q568 770 642 770Q715 770 715 843ZM678 843Q678 806 642 806Q605 806 605 843Q605 880 642 880Q678 880 678 843Z" fill="#000000" />
<path d="M539.8448486328125 -100.708984375V-137.245849609375H752.0325927734375V-100.708984375Z" fill="#000000" />
</g></svg>