<svg xmlns="http://www.w3.org/2000/svg" viewBox="0 0 2048 2048">
<g transform="matrix(1 0 0 -1 0 2048)">
<path d="M249 702 441 858 1078 77 884 -73Z" fill="#d0cfce" />
<path d="M438 854 1068 81 1024 34 390 817Z" fill="#9b9b9a" />
<path d="M456 872Q445 887 430 875L235 717Q221 706 233 692L866 -91Q877 -106 892 -94L1087 64Q1101 75 1090 89ZM1049 81 883 -54 273 700 439 835Z" fill="#000000" />
<path d="M858.8277587890625 49.3687744140625Q844.8685302734375 38.0111083984375 856.2261962890625 24.0518798828125Q867.5838623046875 10.0926513671875 881.5430908203125 21.4503173828125L910.237060546875 44.796630859375Q924.1962890625 56.154296875 912.838623046875 70.113525390625Q901.48095703125 84.07275390625 887.521728515625 72.715087890625Z" fill="#000000" />
<path d="M812.9708251953125 105.6461181640625Q799.0028076171875 94.2884521484375 810.3604736328125 80.3204345703125Q821.7181396484375 66.3524169921875 835.6861572265625 77.7100830078125L864.398193359375 101.056396484375Q878.3662109375 112.4140625 867.008544921875 126.382080078125Q855.65087890625 140.35009765625 841.682861328125 128.992431640625Z" fill="#000000" />
<path d="M766.9708251953125 162.6461181640625Q753.0028076171875 151.2884521484375 764.3604736328125 137.3204345703125Q775.7181396484375 123.3524169921875 789.6861572265625 134.7100830078125L818.398193359375 158.056396484375Q832.3662109375 169.4140625 821.008544921875 183.382080078125Q809.65087890625 197.35009765625 795.682861328125 185.992431640625Z" fill="#000000" />
<path d="M673.9708251953125 276.6461181640625Q660.0028076171875 265.2884521484375 671.3604736328125 251.3204345703125Q682.7181396484375 237.3524169921875 696.6861572265625 248.7100830078125L725.398193359375 272.056396484375Q739.3662109375 283.4140625 728.008544921875 297.382080078125Q716.65087890625 311.35009765625 702.682861328125 299.992431640625Z" fill="#000000" />
<path d="M627.9708251953125 333.6461181640625Q614.0028076171875 322.2884521484375 625.3604736328125 308.3204345703125Q636.7181396484375 294.3524169921875 650.6861572265625 305.7100830078125L679.398193359375 329.056396484375Q693.3662109375 340.4140625 682.008544921875 354.382080078125Q670.65087890625 368.35009765625 656.682861328125 356.992431640625Z" fill="#000000" />
<path d="M580.9708251953125 390.6461181640625Q567.0028076171875 379.2884521484375 578.3604736328125 365.3204345703125Q589.7181396484375 351.3524169921875 603.6861572265625 362.7100830078125L632.398193359375 386.056396484375Q646.3662109375 397.4140625 635.008544921875 411.382080078125Q623.65087890625 425.35009765625 609.682861328125 413.992431640625Z" fill="#000000" />
<path d="M535 448Q528 442 527 436Q527 429 533 422Q544 408 558 419L587 442Q601 454 589 468Q578 482 564 471Z" fill="#000000" />
<path d="M442.8277587890625 561.3687744140625Q428.8685302734375 550.0111083984375 440.2261962890625 536.0518798828125Q451.5838623046875 522.0926513671875 465.5430908203125 533.4503173828125L494.237060546875 556.796630859375Q508.1962890625 568.154296875 496.838623046875 582.113525390625Q485.48095703125 596.07275390625 471.521728515625 584.715087890625Z" fill="#000000" />
<path d="M396.8277587890625 618.3687744140625Q382.8685302734375 607.0111083984375 394.2261962890625 593.0518798828125Q405.5838623046875 579.0926513671875 419.5430908203125 590.4503173828125L448.237060546875 613.796630859375Q462.1962890625 625.154296875 450.838623046875 639.113525390625Q439.48095703125 653.07275390625 425.521728515625 641.715087890625Z" fill="#000000" />
<path d="M349.9708251953125 674.6461181640625Q336.0028076171875 663.2884521484375 347.3604736328125 649.3204345703125Q358.7181396484375 635.3524169921875 372.6861572265625 646.7100830078125L401.398193359375 670.056396484375Q415.3662109375 681.4140625 404.008544921875 695.382080078125Q392.65087890625 709.35009765625 378.682861328125 697.992431640625Z" fill="#000000" />
<path d="M718 219Q704 207 716 193Q727 179 741 190L790 230Q804 241 793 255Q781 270 767 258Z" fill="#000000" />
<path d="M487 503Q473 491 485 477Q496 463 510 474L559 514Q573 525 562 539Q550 554 536 542Z" fill="#000000" />
</g></svg>