<svg xmlns="http://www.w3.org/2000/svg" viewBox="0 0 2048 2048">
<g transform="matrix(1 0 0 -1 0 2048)">
<path d="M660 862 743 966 794 842 904 919 918 786 1044 828 1020 697 1154 702 1094 583 1223 550 1132 453 1247 385 1132 317 1223 220 1094 187 1154 68 1020 73 1044 -58 918 -16 904 -149 794 -72 743 -196 660 -92 577 -196 526 -72 416 -149 402 -16 276 -58 300 73 166 68 226 187 97 220 188 317 73 385 188 453 97 550 226 583 166 702 300 697 276 828 402 786 416 919 526 842 577 966Z" fill="#fcea2b" />
<path d="M660 891 591 977Q585 984 579 985Q572 986 565 980Q561 977 560 973L517 871L427 934Q419 939 413 938Q406 937 401 929Q398 925 398 921L386 811L282 846Q264 852 258 834Q257 830 258 825L278 716L167 721Q149 721 148 703Q148 698 150 694L200 595L92 568Q75 564 79 546Q80 541 84 538L159 457L64 401Q56 396 55 390Q53 384 58 376Q60 372 64 369L159 313L84 232Q71 219 84 206Q88 203 92 202L200 175L150 76Q142 60 158 51Q162 49 167 49L278 54L258 -55Q256 -64 260 -69Q264 -75 273 -76Q277 -77 282 -76L386 -41L398 -151Q400 -169 418 -167Q423 -167 427 -164L517 -101L560 -203Q567 -220 584 -213Q588 -211 591 -207L660 -121L729 -207Q735 -214 741 -215Q748 -216 755 -210Q759 -207 760 -203L803 -101L893 -164Q908 -174 919 -159Q922 -155 922 -151L934 -41L1038 -76Q1056 -82 1062 -64Q1063 -60 1062 -55L1042 54L1153 49Q1162 49 1167 53Q1172 58 1172 67Q1172 72 1170 76L1120 175L1228 202Q1245 206 1241 224Q1240 229 1236 232L1161 313L1256 369Q1264 374 1265 380Q1267 386 1262 394Q1260 398 1256 401L1161 457L1236 538Q1243 544 1242 551Q1242 557 1236 564Q1232 567 1228 568L1120 595L1170 694Q1178 710 1162 719Q1158 721 1153 721L1042 716L1062 825Q1066 843 1047 846Q1043 847 1038 846L934 811L922 921Q921 930 916 934Q911 938 902 937Q897 937 893 934L803 871L760 973Q757 981 751 984Q745 986 736 983Q732 981 729 977ZM646 850Q647 849 649 847Q663 836 674 850L738 930L777 835Q778 834 779 832Q790 817 805 827L889 886L899 784Q900 782 900 780Q906 763 924 769L1021 801L1002 700Q1002 698 1002 696Q1003 678 1021 679L1123 683L1077 591Q1076 589 1076 588Q1071 570 1089 565L1188 540L1118 465Q1117 464 1116 462Q1107 446 1123 437L1211 385L1123 333Q1121 332 1119 330Q1113 324 1112 318Q1112 311 1118 305L1188 230L1089 205Q1087 204 1085 203Q1069 195 1077 179L1123 87L1021 91Q1019 91 1017 91Q999 88 1002 70L1021 -31L924 1Q922 2 920 2Q901 4 899 -14L889 -116L805 -57Q803 -56 801 -56Q784 -49 777 -65L738 -160L674 -80Q673 -79 671 -77Q657 -66 646 -80L582 -160L543 -65Q542 -64 541 -62Q530 -47 515 -57L431 -116L421 -14Q420 -12 420 -10Q414 7 396 1L299 -31L318 70Q318 72 318 74Q317 92 299 91L197 87L243 179Q244 181 244 182Q249 200 231 205L132 230L202 305Q203 306 204 308Q213 324 197 333L109 385L197 437Q199 438 201 440Q207 446 208 452Q208 459 202 465L132 540L231 565Q233 566 235 567Q251 575 243 591L197 683L299 679Q301 679 303 679Q321 682 318 700L299 801L396 769Q398 768 400 768Q419 766 421 784L431 886L515 827Q517 826 519 826Q536 819 543 835L582 930Z" fill="#000000" />
<path d="M565.1783447265625 425.2843017578125Q565.1783447265625 436.639404296875 560.9061279296875 446.6453857421875Q556.6339111328125 456.6513671875 549.101318359375 464.1839599609375Q541.5687255859375 471.716552734375 531.562744140625 475.98876953125Q521.5567626953125 480.260986328125 510.20166015625 480.260986328125Q498.8465576171875 480.260986328125 488.840576171875 475.98876953125Q478.8345947265625 471.716552734375 471.302001953125 464.1839599609375Q463.7694091796875 456.6513671875 459.4971923828125 446.6453857421875Q455.2249755859375 436.639404296875 455.2249755859375 425.2843017578125Q455.2249755859375 413.92919921875 459.4971923828125 403.9232177734375Q463.7694091796875 393.917236328125 471.302001953125 386.3846435546875Q478.8345947265625 378.85205078125 488.840576171875 374.579833984375Q498.8465576171875 370.3076171875 510.20166015625 370.3076171875Q521.5567626953125 370.3076171875 531.562744140625 374.579833984375Q541.5687255859375 378.85205078125 549.101318359375 386.3846435546875Q556.6339111328125 393.917236328125 560.9061279296875 403.9232177734375Q565.1783447265625 413.92919921875 565.1783447265625 425.2843017578125Z" fill="#000000" />
<path d="M864.1783447265625 425.2843017578125Q864.1783447265625 436.639404296875 859.9061279296875 446.6453857421875Q855.6339111328125 456.6513671875 848.101318359375 464.1839599609375Q840.5687255859375 471.716552734375 830.562744140625 475.98876953125Q820.5567626953125 480.260986328125 809.20166015625 480.260986328125Q797.8465576171875 480.260986328125 787.840576171875 475.98876953125Q777.8345947265625 471.716552734375 770.302001953125 464.1839599609375Q762.7694091796875 456.6513671875 758.4971923828125 446.6453857421875Q754.2249755859375 436.639404296875 754.2249755859375 425.2843017578125Q754.2249755859375 413.92919921875 758.4971923828125 403.9232177734375Q762.7694091796875 393.917236328125 770.302001953125 386.3846435546875Q777.8345947265625 378.85205078125 787.840576171875 374.579833984375Q797.8465576171875 370.3076171875 809.20166015625 370.3076171875Q820.5567626953125 370.3076171875 830.562744140625 374.579833984375Q840.5687255859375 378.85205078125 848.101318359375 386.3846435546875Q855.6339111328125 393.917236328125 859.9061279296875 403.9232177734375Q864.1783447265625 413.92919921875 864.1783447265625 425.2843017578125Z" fill="#000000" />
<path d="M812 180Q826 191 815 206Q805 220 790 209Q732 166 660 166Q587 166 530 209Q523 215 517 214Q510 213 505 206Q494 191 508 180Q575 130 660 130Q744 130 812 180Z" fill="#000000" />
<path d="M574 607Q582 603 588 605Q594 606 599 614Q607 631 591 639Q566 653 529 656Q456 660 395 607Q382 594 394 581Q400 574 406 574Q413 573 420 579Q469 623 527 619Q555 617 574 607Z" fill="#000000" />
<path d="M729 639Q713 631 721 614Q726 606 732 605Q738 603 746 607Q765 617 793 619Q851 623 900 579Q907 573 914 574Q920 574 926 581Q938 594 925 607Q864 660 791 656Q754 653 729 639Z" fill="#000000" />
</g></svg>