<svg xmlns="http://www.w3.org/2000/svg" viewBox="0 0 2048 2048">
<g transform="matrix(1 0 0 -1 0 2048)">
<path d="M73.6622314453125 971.5084228515625V-201.9287109375H1246.9776611328125V971.5084228515625Z" fill="#e27022" />
<path d="M1247 774 1192 715 880 348 807 403 1100 972H1247Z" fill="#f4aa41" />
<path d="M73 723V972H165L519 408L450 347L110 688Z" fill="#f4aa41" />
<path d="M780 972 771 920 703 444 611 451 566 972Z" fill="#f4aa41" />
<path d="M934 145Q937 177 932 209Q923 264 893 310Q890 316 874.0 335.5Q858 355 831.0 378.0Q804 401 766.0 418.5Q728 436 680 439Q629 442 578.5 425.5Q528 409 486.0 375.0Q444 341 417.0 293.0Q390 245 386 185Q382 128 399.5 76.5Q417 25 452.0 -15.0Q487 -55 535.0 -80.0Q583 -105 640 -109Q700 -114 746.5 -94.5Q793 -75 828.0 -42.5Q863 -10 886.0 27.0Q909 64 921.0 96.0Q933 128 934 145Z" fill="#fcea2b" />
<path d="M73 263V-202H1006L291 432Z" fill="#d0cfce" />
<path d="M1006 -202H1247V533L761 39Z" fill="#9b9b9a" />
<path d="M460 379Q453 373 453 366Q452 360 459 353Q471 340 485 352Q594 454 736 410Q816 385 866 318L867 317Q884 295 895 269Q902 252 919 259Q936 266 929 283Q916 314 895 340Q838 416 747 445Q584 496 460 379Z" fill="#000000" />
<path d="M80 281Q73 275 72 269Q72 263 78 256Q89 242 103 253L299 418L992 -197Q998 -203 1005 -203Q1011 -202 1017 -196Q1030 -182 1016 -170L312 456Q300 467 288 457Z" fill="#000000" />
<path d="M775 78Q762 64 775 52Q789 39 801 53L1237 515Q1250 528 1236 541Q1230 547 1223 547Q1217 547 1211 540Z" fill="#000000" />
</g></svg>