<svg xmlns="http://www.w3.org/2000/svg" viewBox="0 0 2048 2048">
<g transform="matrix(1 0 0 -1 0 2048)">
<path d="M431 783 470 798 477 813Q503 868 563 882L600 891Q674 909 744 880L807 854Q820 848 826.5 835.0Q833 822 830 808L827 797L886 781L938 751V18H382V751Z" fill="#61b2e4" />
<path d="M1118 471 1173 641 938 751V526Z" fill="#61b2e4" />
<path d="M804 850 776 818 693 729 752 634Q796 703 813.0 744.0Q830 785 831.0 805.5Q832 826 827.0 832.0Q822 838 822 838Z" fill="#92d3f5" />
<path d="M486 823Q486 823 482.0 813.5Q478 804 480.5 781.0Q483 758 503.5 717.5Q524 677 573 616L632 711L549 800L512 850Z" fill="#92d3f5" />
<path d="M202.0 471.0 147.0 641.0 382.0 751.0V526.0Z" fill="#61b2e4" />
<path d="M890 783Q882 786 876 782Q870 779 868 770Q863 753 881 748L920 737V37H400V738L437 750Q454 755 449 773Q443 790 425 785L376 769Q363 765 363 751V18Q363 0 382 0H938Q957 0 957 18V751Q957 765 943 769Z" fill="#000000" />
<path d="M1113 453Q1130 448 1136 465L1191 636Q1196 651 1181 658L946 768Q942 770 938 770Q920 770 920 751V526Q920 512 933 508ZM1106 493 957 539V722L1151 632Z" fill="#000000" />
<path d="M207 453 387 508Q400 512 400 526V751Q400 770 382 770Q378 770 374 768L139 658Q124 651 129 636L184 465Q190 448 207 453ZM214 493 169 632 363 722V539Z" fill="#000000" />
<path d="M789 805Q802 819 788 831Q782 837 775 837Q769 837 762 830L680 741Q670 731 678 719L737 625Q746 609 762 619Q764 620 766 623Q908 798 851 854Q851 855 850 855Q723 957 581 916Q511 896 465 855Q465 854 465 854Q408 798 549 623Q561 608 575 620Q578 622 579 625L638 719Q646 731 636 741L553 830Q541 844 527 831Q521 825 520 819Q520 812 526 805L600 727L562 666Q498 750 489 801Q486 823 490 828Q529 863 591 881Q714 916 826 828Q830 823 826 801Q818 750 754 666L716 727Z" fill="#000000" />
<path d="M672.9417724609375 647.6729736328125Q672.9578857421875 656.8936767578125 666.0504150390625 661.51611328125Q657.9923706054688 667.2931518554688 649.9141845703125 661.5443115234375Q641.8380126953125 656.9480590820312 641.8218994140625 647.7273559570312Q641.8057861328125 638.5066528320312 649.8658447265625 633.8822021484375Q657.9259033203125 629.2577514648438 666.0020751953125 633.85400390625Q672.9256591796875 638.4522705078125 672.9417724609375 647.6729736328125Z" fill="#000000" />
<path d="M672.9417724609375 587.6729736328125Q672.9578857421875 596.8936767578125 666.0504150390625 601.51611328125Q657.9923706054688 607.2931518554688 649.9141845703125 601.5443115234375Q641.8380126953125 596.9480590820312 641.8218994140625 587.7273559570312Q641.8057861328125 578.5066528320312 649.8658447265625 573.8822021484375Q657.9259033203125 569.2577514648438 666.0020751953125 573.85400390625Q672.9256591796875 578.4522705078125 672.9417724609375 587.6729736328125Z" fill="#000000" />
<path d="M672.9417724609375 527.6729736328125Q672.9578857421875 536.8936767578125 666.0504150390625 541.51611328125Q657.9923706054688 547.2931518554688 649.9141845703125 541.5443115234375Q641.8380126953125 536.9480590820312 641.8218994140625 527.7273559570312Q641.8057861328125 518.5066528320312 649.8658447265625 513.8822021484375Q657.9259033203125 509.25775146484375 666.0020751953125 513.85400390625Q672.9256591796875 518.4522705078125 672.9417724609375 527.6729736328125Z" fill="#000000" />
</g></svg>