<svg xmlns="http://www.w3.org/2000/svg" viewBox="0 0 2048 2048">
<g transform="matrix(1 0 0 -1 0 2048)">
<path d="M632.1729125976562 646.5347290039062Q626.2919311523438 668.474365234375 612.8551635742188 685.5946655273438Q599.4183959960938 702.7149658203125 580.963134765625 713.3677368164062Q562.5078735351562 724.0205078125 540.9622802734375 727.0927734375Q519.4166870117188 730.1650390625 497.47705078125 724.2840576171875Q475.53741455078125 718.403076171875 458.4171142578125 704.96630859375Q441.29681396484375 691.529541015625 430.64404296875 673.0742797851562Q419.99127197265625 654.6190185546875 416.91900634765625 633.0734252929688Q413.84674072265625 611.52783203125 419.72772216796875 589.5881958007812Q425.60870361328125 567.6485595703125 439.04547119140625 550.5282592773438Q452.48223876953125 533.407958984375 470.9375 522.7551879882812Q489.39276123046875 512.1024169921875 510.9383544921875 509.0301513671875Q532.4839477539062 505.9578857421875 554.423583984375 511.8388671875Q576.3632202148438 517.7198486328125 593.4835205078125 531.1566162109375Q610.6038208007812 544.5933837890625 621.256591796875 563.0486450195312Q631.9093627929688 581.50390625 634.9816284179688 603.0494995117188Q638.0538940429688 624.5950927734375 632.1729125976562 646.5347290039062Z" fill="#ea5a47" />
<path d="M361.473388671875 569.9007568359375Q345.41473388671875 585.9594116210938 325.22216796875 594.0682373046875Q305.02960205078125 602.1770629882812 283.72406005859375 602.1770629882812Q262.41851806640625 602.1770629882812 242.2259521484375 594.0682373046875Q222.03338623046875 585.9594116210938 205.9747314453125 569.9007568359375Q189.91607666015625 553.8421020507812 181.8072509765625 533.6495361328125Q173.69842529296875 513.4569702148438 173.69842529296875 492.15142822265625Q173.69842529296875 470.84588623046875 181.8072509765625 450.6533203125Q189.91607666015625 430.46075439453125 205.9747314453125 414.402099609375Q222.03338623046875 398.34344482421875 242.2259521484375 390.234619140625Q262.41851806640625 382.12579345703125 283.72406005859375 382.12579345703125Q305.02960205078125 382.12579345703125 325.22216796875 390.234619140625Q345.41473388671875 398.34344482421875 361.473388671875 414.402099609375Q377.53204345703125 430.46075439453125 385.640869140625 450.6533203125Q393.74969482421875 470.84588623046875 393.74969482421875 492.15142822265625Q393.74969482421875 513.4569702148438 385.640869140625 533.6495361328125Q377.53204345703125 553.8421020507812 361.473388671875 569.9007568359375Z" fill="#ea5a47" />
<path d="M1114 570Q1082 602 1036.0 602.0Q990 602 958 570Q926 538 926.0 492.5Q926 447 958 414Q990 382 1036.0 382.0Q1082 382 1114 414Q1146 447 1146.0 492.5Q1146 538 1114 570Z" fill="#ea5a47" />
<path d="M900 589Q912 633 889.0 672.5Q866 712 822 724Q778 736 738.5 713.0Q699 690 687 646Q676 602 698.5 562.5Q721 523 765 512Q809 500 848.5 522.5Q888 545 900 589Z" fill="#ea5a47" />
<path d="M244 145 187 157V176Q165 182 154.0 201.5Q143 221 149 243Q157 274 188 282Q166 303 161.0 334.5Q156 366 172 394Q187 420 214.0 431.5Q241 443 269 438Q266 464 284 483Q307 506 338 497Q329 527 340.5 556.5Q352 586 380 602Q406 617 435.0 613.5Q464 610 486 592Q496 616 522 623Q552 631 575 608Q582 638 607.0 658.0Q632 678 664 678Q694 678 717.5 660.5Q741 643 750 616Q772 632 797 625Q828 617 836 586Q857 608 888.5 613.0Q920 618 948 602Q974 587 985.5 560.0Q997 533 992 505Q1018 508 1037 490Q1060 467 1051 436Q1081 445 1110.5 433.5Q1140 422 1156 394Q1171 368 1167.5 339.0Q1164 310 1146 288Q1170 278 1177 252Q1183 230 1171.5 210.5Q1160 191 1138 185L1144 167L1053 153Z" fill="#b1cc33" />
<path d="M278 73H1048Q1063 73 1073.5 84.0Q1084 95 1084 110Q1084 197 1051.5 273.5Q1019 350 961.0 408.0Q903 466 826.5 499.0Q750 532 663 532Q575 532 499.0 499.0Q423 466 365.0 408.0Q307 350 274.0 273.5Q241 197 241 110Q241 95 252.0 84.0Q263 73 278 73Z" fill="#fcea2b" />
<path d="M278 55H1048Q1103 55 1103 110Q1103 292 974 421Q845 550 663 550Q480 550 352 421Q223 292 223 110Q223 55 278 55ZM278 92Q259 92 259 110Q259 277 378 395Q496 513 663 513Q830 513 948 395Q1066 277 1066 110Q1066 92 1048 92Z" fill="#000000" />
<path d="M1133 203Q1116 198 1120 180Q1125 162 1143 167Q1172 175 1187 201Q1203 228 1195 257Q1189 279 1172 293Q1206 345 1172 403Q1136 466 1071 459Q1069 483 1050 503Q1034 519 1012 523Q1015 585 957 618Q894 654 842 616Q829 636 802 643Q779 649 759 642Q731 697 664 697Q591 697 565 637Q543 648 517 641Q494 635 481 618Q429 652 371 618Q308 582 315 517Q291 515 271 496Q255 480 251 458Q189 461 156 403Q120 341 158 288Q138 275 131 248Q112 177 183 158Q200 153 205 171Q208 180 204 186Q201 191 192 194Q157 203 166 238Q172 259 193 264Q198 266 202 269Q208 276 208 282Q207 289 201 295Q159 335 188 385Q214 430 265 420Q268 419 271 420Q289 422 287 440Q285 458 297 470Q312 485 333 479Q338 478 343 479Q352 482 355 488Q358 493 356 502Q339 557 389 586Q434 612 474 578Q476 576 478 575Q495 567 502 584Q510 601 526 605Q547 611 562 595Q566 591 571 590Q589 586 593 604Q606 660 664 660Q716 660 733 610Q734 608 736 605Q746 591 761 601Q776 612 792 608Q813 602 818 581Q820 576 823 572Q837 560 849 573Q889 615 939 586Q984 560 974 509Q973 506 974 503Q976 485 994 487Q1012 489 1024 477Q1039 462 1033 441Q1032 436 1033 431Q1038 413 1056 418Q1111 435 1140 385Q1166 340 1132 300Q1130 298 1129 296Q1121 279 1138 271Q1155 264 1159 248Q1163 233 1156 220Q1148 207 1133 203Z" fill="#000000" />
<path d="M277 565Q286 566 290 571Q294 576 293 585Q292 603 273 601Q234 598 206 570Q180 544 175 506Q173 488 191 486Q209 484 212 502Q215 527 232 544Q251 562 277 565Z" fill="#000000" />
<path d="M555 685Q572 677 579 694Q587 711 570 718Q535 734 498 724Q461 714 438 683Q427 668 442 657Q457 647 468 661Q483 682 507 688Q532 695 555 685Z" fill="#000000" />
<path d="M750 718Q741 715 739 708Q737 702 740 694Q748 677 765 685Q788 695 813 688Q837 682 852 661Q858 654 864 653Q870 652 878 657Q893 668 882 683Q859 714 822 724Q785 734 750 718Z" fill="#000000" />
<path d="M1047 601Q1028 603 1027 585Q1025 567 1043 565Q1069 562 1088 544Q1105 527 1108 502Q1109 493 1115 489Q1120 485 1129 486Q1147 488 1145 506Q1140 544 1114 570Q1086 598 1047 601Z" fill="#000000" />
</g></svg>