<svg xmlns="http://www.w3.org/2000/svg" viewBox="0 0 2048 2048">
<g transform="matrix(1 0 0 -1 0 2048)">
<path d="M386 636 398 496 342 498 381 179H940L980 514L935 513L947 628Z" fill="#ffffff" />
<path d="M935 550V513L980 514L988 550Z" fill="#d22f27" />
<path d="M333 552 336 523 385 513V550Z" fill="#d22f27" />
<path d="M382 154 385 124 936 123 941 150Z" fill="#d22f27" />
<path d="M343 498Q341 516 323 514Q304 512 307 494L359 44Q361 27 377 27H943Q959 27 961 44L1013 494Q1016 512 997 514Q979 516 977 498L927 64H393Z" fill="#000000" />
<path d="M1013 494Q1015 512 997 514Q979 516 977 498L927 64H393L330 614Q328 632 310 630Q300 629 296 624Q292 619 293 610L359 44Q361 27 377 27H943Q959 27 961 44Z" fill="#000000" />
<path d="M1027 610Q1028 619 1024 624Q1020 629 1010 630Q992 632 990 614L977 498Q976 489 980 484Q984 479 993 478Q1011 475 1013 494Z" fill="#000000" />
<path d="M291.6494140625 633.5057373046875Q299.5189208984375 650.1873779296875 282.8372802734375 658.056884765625Q266.1556396484375 665.9263916015625 258.2861328125 649.2447509765625L130.025146484375 374.033935546875Q126.39306640625 366.334716796875 128.76556396484375 359.72479248046875Q130.79913330078125 354.05914306640625 139.78155517578125 349.82171630859375Q156.46319580078125 341.95220947265625 163.388427734375 358.294921875Z" fill="#000000" />
<path d="M1062 649Q1058 658 1052 660Q1046 662 1037 658Q1021 651 1028 634L1157 359Q1161 351 1167 348Q1173 346 1181 350Q1198 358 1190 374Z" fill="#000000" />
<path d="M367 660Q348 660 348 642Q348 623 367 623H953Q972 623 972 642Q972 660 953 660Z" fill="#000000" />
<path d="M385 644Q382 662 364 660Q346 657 348 639L385 364Q388 346 406 348Q415 350 419 355Q423 360 422 369Z" fill="#000000" />
<path d="M972 639Q974 657 956 660Q947 661 942 657Q936 653 935 644L898 369Q896 351 914 348Q932 346 935 364Z" fill="#000000" />
<path d="M402.723388671875 384.78387451171875Q384.7662353515625 384.78387451171875 384.7662353515625 365.8291015625Q384.7662353515625 347.8719482421875 402.723388671875 347.8719482421875H916.4974975585938Q934.4546508789062 347.8719482421875 934.4546508789062 365.8291015625Q934.4546508789062 384.78387451171875 916.4974975585938 384.78387451171875Z" fill="#000000" />
<path d="M385 128Q367 128 367 110Q367 92 385 92H935Q953 92 953 110Q953 128 935 128Z" fill="#000000" />
<path d="M367 183Q348 183 348 165Q348 147 367 147H935Q953 147 953 165Q953 183 935 183Z" fill="#000000" />
<path d="M330 586Q312 586 312 568Q312 550 330 550H367Q385 550 385 568Q385 586 367 586Z" fill="#000000" />
<path d="M330 531Q312 531 312 513Q312 495 330 495H367Q385 495 385 513Q385 531 367 531Z" fill="#000000" />
<path d="M953 586Q935 586 935 568Q935 550 953 550H990Q1008 550 1008 568Q1008 586 990 586Z" fill="#000000" />
<path d="M953 531Q935 531 935 513Q935 495 953 495H990Q1008 495 1008 513Q1008 531 990 531Z" fill="#000000" />
<path d="M782 628 1015 835Q1016 835 1016 836Q1041 862 1015 887Q990 911 965 887Q965 886 964 886L756 654Q744 640 758 628Q770 617 782 628Z" fill="#000000" />
<path d="M711 631 919 914Q919 914 919 915Q928 927 925 941Q922 956 910 964Q909 965 908 966Q878 984 859 955Q858 954 858 954L681 651Q676 643 678 637Q679 630 687 626Q702 617 711 631Z" fill="#000000" />
</g></svg>