<svg xmlns="http://www.w3.org/2000/svg" viewBox="0 0 2048 2048">
<g transform="matrix(1 0 0 -1 0 2048)">
<path d="M220 825V-52H1100V825Z" fill="#b399c8" />
<path d="M846 321Q846 398 792 453Q737 507 660 507Q583 507 529 453Q474 398 474 321Q474 244 529 190Q583 135 660 135Q737 135 792 190Q846 244 846 321ZM791 321Q791 267 753 229Q714 190 660 190Q606 190 567 229Q529 267 529 321Q529 376 567 414Q606 452 660 452Q714 452 753 414Q791 376 791 321Z" fill="#000000" />
<path d="M936 577Q946 574 956 579Q966 585 969 596Q972 607 967 617Q961 627 950 630Q864 653 813 580Q812 579 811 577Q786 529 723 514Q690 506 663 508Q660 508 658 508Q631 506 598 514Q534 529 509 578Q508 579 507 581Q456 654 370 630Q359 627 354 617Q348 607 351 596Q354 586 364 580Q374 574 385 577Q433 590 461 550Q498 482 585 461Q625 451 660 453Q695 451 736 460Q822 481 859 550Q888 590 936 577Z" fill="#000000" />
<path d="M201.3607177734375 -54.7630615234375Q201.3607177734375 -73.0552978515625 219.6529541015625 -73.0552978515625H1099.7127685546875Q1118.0050048828125 -73.0552978515625 1118.0050048828125 -54.7630615234375V825.2967529296875Q1118.0050048828125 843.5889892578125 1099.7127685546875 843.5889892578125H219.6529541015625Q201.3607177734375 843.5889892578125 201.3607177734375 825.2967529296875ZM237.9451904296875 807.0045166015625H1081.4205322265625V-36.4708251953125H237.9451904296875Z" fill="#000000" />
</g></svg>