<svg xmlns="http://www.w3.org/2000/svg" viewBox="0 0 2048 2048">
<g transform="matrix(1 0 0 -1 0 2048)">
<path d="M667 493 688 530Q692 538 700.0 539.5Q708 541 715 537L779 493Z" fill="#f1b31c" />
<path d="M1188 225Q1189 225 1199.0 216.0Q1209 207 1218.5 193.0Q1228 179 1231.5 161.0Q1235 143 1223 125Q1217 114 1200.5 100.0Q1184 86 1172 84L876 81L502 72L147 70Q125 90 123.0 112.5Q121 135 126.0 158.0Q131 181 130 203Q130 208 130.5 213.0Q131 218 134 222Q141 236 158.5 255.5Q176 275 207.0 294.0Q238 313 288 323Q314 327 339.0 329.0Q364 331 391 330Q394 330 402 334L590 460Q599 466 611 466L970 468Q977 468 981 466Q1051 445 1089.0 415.0Q1127 385 1142.0 353.0Q1157 321 1159.0 294.5Q1161 268 1159 255Q1156 243 1168 237Z" fill="#fcea2b" />
<path d="M317 182Q347 182 369.0 160.0Q391 138 391 108Q391 78 369.0 56.5Q347 35 317 35Q287 35 265.5 56.5Q244 78 244 108Q244 138 265.5 160.0Q287 182 317 182Z" fill="#9b9b9a" />
<path d="M1047 182Q1077 182 1098.5 160.0Q1120 138 1120 108Q1120 78 1098.5 56.5Q1077 35 1047 35Q1017 35 995.5 56.5Q974 78 974 108Q974 138 995.5 160.0Q1017 182 1047 182Z" fill="#9b9b9a" />
<path d="M1029 312Q1029 310 1029.0 310.0Q1029 310 1029 312Q1029 303 1019 303Q1005 303 965.5 303.0Q926 303 872.0 303.0Q818 303 757.5 302.5Q697 302 639.0 301.5Q581 301 534.5 301.0Q488 301 462 301Q460 301 457 304Q455 307 450.0 310.5Q445 314 447 315L605 420Q605 422 609 422H997Q1010 422 1019.5 412.5Q1029 403 1029 390Z" fill="#3f3f3f" />
<path d="M163 290 106 206 198 208 237 261Z" fill="#d0cfce" />
<path d="M769 478Q784 468 794 483Q799 490 798 497Q797 503 790 508L725 552Q725 553 724 553Q711 561 696 558Q679 554 671 538L651 502Q642 486 658 477Q675 468 683 484L704 521Q704 521 704 522Q705 522 705 522Z" fill="#000000" />
<path d="M873 79Q891 80 891 98Q891 116 872 116L495 109Q476 108 477 90Q477 81 482 76Q486 72 495 72Z" fill="#000000" />
<path d="M145 72Q162 68 166 86Q168 95 165 101Q161 106 152 108Q141 111 135 114L134 112Q128 165 128 202Q128 214 132 219Q133 220 133 221Q197 336 390 329Q396 328 401 332L589 458Q600 464 609 464L968 466Q976 466 979 465Q979 465 980 465Q1043 448 1092 408Q1171 345 1157 254Q1155 242 1166 236L1187 225Q1188 224 1189 224Q1194 221 1196 215Q1196 214 1196 214Q1205 181 1193 146Q1187 129 1204 123Q1221 116 1227 134Q1244 180 1231 223Q1226 248 1203 257L1195 262Q1205 365 1115 436Q1060 481 990 500Q981 503 968 503L609 501Q590 501 570 489Q570 489 569 489L385 366Q175 372 102 240Q92 225 92 202Q92 163 97 107Q97 106 98 105Q102 82 145 72Z" fill="#000000" />
<path d="M456 319Q447 319 443 315Q438 310 438 301Q438 283 457 283L1010 287Q1029 287 1029 305V387Q1029 406 1010 406Q992 406 992 387V323Z" fill="#000000" />
<path d="M427 108Q427 154 395 186Q363 218 317 218Q272 218 239 186Q207 154 207 108Q207 63 239 30Q272 -2 317 -2Q363 -2 395 30Q427 63 427 108ZM391 108Q391 78 369 56Q348 35 317 35Q244 35 244 108Q244 182 317 182Q391 182 391 108Z" fill="#000000" />
<path d="M1157 108Q1157 154 1125 186Q1092 218 1047 218Q1001 218 969 186Q937 154 937 108Q937 62 969 30Q1001 -2 1047 -2Q1092 -2 1125 30Q1157 62 1157 108ZM1120 108Q1120 78 1099 56Q1077 35 1047 35Q1016 35 995 56Q973 78 973 108Q973 181 1047 181Q1077 181 1099 160Q1120 138 1120 108Z" fill="#000000" />
<path d="M240 234Q246 241 245 248Q244 254 237 260Q223 271 211 257L184 224L125 225Q107 226 106 208Q106 198 111 194Q115 189 124 189L192 187Q201 187 207 194Z" fill="#000000" />
<path d="M442 255Q424 255 424 237Q424 218 442 218H919Q937 218 937 237Q937 255 919 255Z" fill="#000000" />
<path d="M442 256Q423 256 423 236Q423 217 442 217H919Q938 217 938 236Q938 256 919 256Z" fill="#f1b31c" />
</g></svg>