<svg xmlns="http://www.w3.org/2000/svg" viewBox="0 0 2048 2048">
<g transform="matrix(1 0 0 -1 0 2048)">
<path d="M220 533 1103 530V162L800 -57H220Z" fill="#ffffff" />
<path d="M352 702Q352 671 365.0 645.5Q378 620 402 623Q427 626 442.5 637.0Q458 648 458 678Q458 678 452.0 695.5Q446 713 439.0 733.0Q432 753 428 763L469 820H889Q889 820 884.5 810.0Q880 800 874.5 787.0Q869 774 865.0 763.5Q861 753 861 752Q861 751 862.0 741.0Q863 731 864.5 719.5Q866 708 866 702Q866 672 874.5 650.0Q883 628 916 623Q919 623 932.0 626.0Q945 629 957.5 638.0Q970 647 970 664Q970 664 968.0 677.0Q966 690 963.0 704.5Q960 719 956 724Q955 727 951.0 738.0Q947 749 942 763L978 827L1100 820L1103 539L220 545V820H375Q375 820 366.5 805.5Q358 791 350.5 775.0Q343 759 344 754Q340 747 346.0 728.5Q352 710 352 702Z" fill="#ea5a47" />
<path d="M1103 162 804 -46 773 -48V61Q774 57 776.5 66.0Q779 75 782.5 85.5Q786 96 791 96Q795 96 795.0 107.0Q795 118 793.0 132.0Q791 146 789.0 157.0Q787 168 787 168Z" fill="#d0cfce" />
<path d="M978 838Q960 838 960 820Q960 802 978 802H1082V545H238V802H375Q393 802 393 820Q393 838 375 838H220Q202 838 202 820V527Q202 508 220 508H1100Q1118 508 1118 527V820Q1118 838 1100 838Z" fill="#000000" />
<path d="M468.49346923828125 838.1925048828125Q450.43963623046875 838.1925048828125 450.43963623046875 820.138671875Q450.43963623046875 802.0848388671875 468.49346923828125 802.0848388671875H888.74658203125Q906.8004150390625 802.0848388671875 906.8004150390625 820.138671875Q906.8004150390625 838.1925048828125 888.74658203125 838.1925048828125Z" fill="#000000" />
<path d="M994 810Q1003 826 988 835Q980 840 974 839Q967 837 963 830L927 772Q922 765 925 757Q944 704 947 699Q953 690 953 678Q953 641 916 642Q880 642 880 679Q880 690 886 699Q893 708 875 761L905 811Q909 819 908 825Q906 831 898 836Q882 845 873 830L839 772Q835 765 837 757Q842 744 846 731Q850 720 852 714Q852 713 852 713Q844 697 843 679Q843 606 916 605Q989 604 990 678Q990 701 977 720Q977 720 962 761Z" fill="#000000" />
<path d="M480 810Q490 826 474 835Q466 840 460 839Q454 837 449 830L413 772Q408 765 411 757Q430 704 433 699Q440 690 440 678Q439 641 403 642Q366 642 366 679Q366 690 373 699Q379 708 361 761L391 811Q400 827 384 836Q377 841 370 839Q364 837 359 830L325 772Q321 765 324 757Q328 744 333 731Q336 720 338 714Q338 713 338 713Q330 697 330 679Q329 606 402 605Q476 604 476 678Q477 701 463 720Q463 720 449 761Z" fill="#000000" />
<path d="M612 350Q608 332 626 329Q644 325 647 343Q661 411 731 411Q766 411 791 386Q829 348 789 303L614 105Q608 98 608 92Q608 86 615 79Q620 75 627 75H715Q733 75 733 93Q733 111 715 111H668L816 279Q842 307 843 345Q843 385 816 412Q781 447 731 447Q631 447 612 350Z" fill="#000000" />
<path d="M416 374Q401 363 412 348Q423 334 438 345L501 392V93Q501 75 520 75Q538 75 538 93V429Q538 435 534 440Q523 455 509 444Z" fill="#000000" />
<path d="M238 530Q238 548 220 548Q202 548 202 530V-57Q202 -75 220 -75H800Q806 -75 811 -71L1111 150Q1118 155 1118 164V530Q1118 548 1100 548Q1082 548 1082 530V174L794 -38H238Z" fill="#000000" />
<path d="M1095 146Q1114 146 1114 164Q1114 183 1095 183H791Q773 183 773 164V64Q773 46 791 46Q809 46 809 64V146Z" fill="#000000" />
</g></svg>