<svg xmlns="http://www.w3.org/2000/svg" viewBox="0 0 2048 2048">
<g transform="matrix(1 0 0 -1 0 2048)">
<path d="M96 756 1228 752 1222 18H83Z" fill="#9b9b9a" />
<path d="M165 678V202H1155V678Z" fill="#3f3f3f" />
<path d="M1155 202 1049 207 886 684 1155 678Z" fill="#ffffff" />
<path d="M628 -73Q628 -73 631.5 -63.5Q635 -54 636.5 -45.0Q638 -36 633 -36H706Q701 -36 702.5 -42.0Q704 -48 707.5 -54.0Q711 -60 711 -60L708 -183L624 -181Z" fill="#9b9b9a" />
<path d="M73 18Q73 0 92 0H1228Q1247 0 1247 18V752Q1247 770 1228 770H92Q73 770 73 752ZM110 733H1210V37H110Z" fill="#000000" />
<path d="M934 -199Q952 -199 952 -181Q952 -162 934 -162H405Q386 -162 386 -181Q386 -199 405 -199Z" fill="#000000" />
<path d="M705.5789794921875 109.6551513671875Q705.5789794921875 117.28076171875 702.72900390625 123.94354248046875Q699.8790283203125 130.6063232421875 694.8338012695312 135.65155029296875Q689.78857421875 140.69677734375 683.1257934570312 143.5467529296875Q676.4630126953125 146.396728515625 668.83740234375 146.396728515625Q661.2117919921875 146.396728515625 654.5490112304688 143.5467529296875Q647.88623046875 140.69677734375 642.8410034179688 135.65155029296875Q637.7957763671875 130.6063232421875 634.94580078125 123.94354248046875Q632.0958251953125 117.28076171875 632.0958251953125 109.6551513671875Q632.0958251953125 102.029541015625 634.94580078125 95.36676025390625Q637.7957763671875 88.7039794921875 642.8410034179688 83.65875244140625Q647.88623046875 78.613525390625 654.5490112304688 75.7635498046875Q661.2117919921875 72.91357421875 668.83740234375 72.91357421875Q676.4630126953125 72.91357421875 683.1257934570312 75.7635498046875Q689.78857421875 78.613525390625 694.8338012695312 83.65875244140625Q699.8790283203125 88.7039794921875 702.72900390625 95.36676025390625Q705.5789794921875 102.029541015625 705.5789794921875 109.6551513671875Z" fill="#000000" />
<path d="M147 202Q147 183 165 183H1155Q1173 183 1173 202V678Q1173 697 1155 697H165Q147 697 147 678ZM183 660H1137V220H183Z" fill="#000000" />
<path d="M724 -54Q724 -36 706 -36Q688 -36 688 -54V-171Q688 -190 706 -190Q724 -190 724 -171Z" fill="#000000" />
<path d="M651 -54Q651 -36 633 -36Q615 -36 615 -54V-171Q615 -190 633 -190Q651 -190 651 -171Z" fill="#000000" />
</g></svg>