<svg xmlns="http://www.w3.org/2000/svg" viewBox="0 0 2048 2048">
<g transform="matrix(1 0 0 -1 0 2048)">
<path d="M660 715 1053 37H267Z" fill="#fcea2b" />
<path d="M660 715V37H267Z" fill="#f1b31c" />
<path d="M659.59033203125 199.39892578125V36.60107421875H388.75390625Q388.75390625 92.84033203125 427.973388671875 132.7998046875Q467.19287109375 172.75927734375 523.43212890625 172.75927734375Q564.87158203125 172.75927734375 601.87109375 186.0791015625Q638.87060546875 199.39892578125 659.59033203125 199.39892578125Z" fill="#8967aa" />
<path d="M644 724 251 46Q246 38 248 32Q249 25 257 21Q262 18 267 18H1053Q1072 18 1072 37Q1072 42 1069 46L676 724Q667 740 651 731Q647 728 644 724ZM660 678 1022 55H298Z" fill="#000000" />
<path d="M644 724 251 46Q246 38 248 32Q249 25 257 21Q262 18 267 18H660Q678 18 678 37V715Q678 733 660 733Q649 733 644 724ZM642 647V55H298Z" fill="#000000" />
<path d="M642 37Q642 18 660 18Q678 18 678 37V715Q678 733 660 733Q642 733 642 715Z" fill="#000000" />
<path d="M660 218Q646 218 609 207Q554 191 524 191Q461 191 415 146Q370 100 370 37Q370 18 389 18H660Q678 18 678 37V199Q678 218 660 218ZM642 178V55H408Q414 92 441 120Q476 154 524 154Q559 154 619 172Q632 176 642 178Z" fill="#000000" />
<path d="M642 37Q642 18 660 18Q678 18 678 37V715Q678 733 660 733Q642 733 642 715Z" fill="#000000" />
</g></svg>