<svg xmlns="http://www.w3.org/2000/svg" viewBox="0 0 2048 2048">
<g transform="matrix(1 0 0 -1 0 2048)">
<path d="M1100.0865478515625 381.75445556640625Q1100.0865478515625 472.54052734375 1065.6504516601562 552.3696594238281Q1031.21435546875 632.1987915039062 970.6903076171875 692.7228393554688Q910.166259765625 753.2468872070312 830.3371276855469 787.6829833984375Q750.5079956054688 822.1190795898438 659.721923828125 822.1190795898438Q568.9358520507812 822.1190795898438 489.1067199707031 787.6829833984375Q409.277587890625 753.2468872070312 348.7535400390625 692.7228393554688Q288.2294921875 632.1987915039062 253.79339599609375 552.3696594238281Q219.3572998046875 472.54052734375 219.3572998046875 381.75445556640625Q219.3572998046875 290.9683837890625 253.79339599609375 211.13925170898438Q288.2294921875 131.31011962890625 348.7535400390625 70.78607177734375Q409.277587890625 10.26202392578125 489.1067199707031 -24.174072265625Q568.9358520507812 -58.61016845703125 659.721923828125 -58.61016845703125Q750.5079956054688 -58.61016845703125 830.3371276855469 -24.174072265625Q910.166259765625 10.26202392578125 970.6903076171875 70.78607177734375Q1031.21435546875 131.31011962890625 1065.6504516601562 211.13925170898438Q1100.0865478515625 290.9683837890625 1100.0865478515625 381.75445556640625Z" fill="#fcea2b" />
<path d="M350 -97Q358 -118 372.5 -134.0Q387 -150 403 -161Q421 -173 443.5 -172.5Q466 -172 482.5 -167.5Q499 -163 499 -163Q499 -163 517.0 -158.0Q535 -153 556.5 -146.5Q578 -140 587 -137Q609 -133 615.0 -124.5Q621 -116 617.0 -107.0Q613 -98 603.5 -92.5Q594 -87 585 -88Q585 -88 595.0 -86.0Q605 -84 617.0 -79.5Q629 -75 635.5 -66.5Q642 -58 636 -46Q635 -33 628.5 -26.5Q622 -20 625 -20Q628 -20 634.5 -14.0Q641 -8 644 2Q646 11 636.5 18.5Q627 26 627 26Q639 25 659.5 29.5Q680 34 703.0 42.5Q726 51 744.0 61.5Q762 72 769.0 83.5Q776 95 765 106Q763 111 748.0 111.0Q733 111 712.0 107.5Q691 104 669.5 99.5Q648 95 634.0 91.5Q620 88 620 88L447 37Q447 37 448.5 56.5Q450 76 452.0 103.0Q454 130 456.0 152.0Q458 174 458 178Q460 186 456.0 190.5Q452 195 438 191Q429 188 420.5 169.0Q412 150 405.0 130.0Q398 110 394 103Q391 97 384.0 78.5Q377 60 368.0 37.5Q359 15 352.5 -4.5Q346 -24 345 -31Q342 -64 350 -97Z" fill="#fcea2b" />
<path d="M525 247Q516 244 513 239Q510 233 512 224Q517 206 535 212Q566 220 658 208Q752 194 778 176Q792 165 803 180Q814 195 799 205Q766 229 663 244Q563 258 525 247Z" fill="#000000" />
<path d="M400 648Q385 637 396 622Q406 607 421 617Q452 639 489 634Q490 634 491 634Q530 634 555 609Q568 596 581 609Q594 622 581 634Q545 671 492 671Q443 677 400 648Z" fill="#000000" />
<path d="M932 541Q941 539 947 542Q952 546 955 555Q959 572 941 577Q862 597 783 583Q774 581 770 576Q767 570 768 561Q772 543 790 547Q861 560 932 541Z" fill="#000000" />
<path d="M765 -8Q748 -13 752 -30Q757 -48 775 -43Q951 4 1042 162Q1132 320 1085 496Q1037 672 880 763Q722 853 545 806Q402 767 311 649Q220 530 220 381Q220 245 297 133Q302 125 308 124Q314 123 322 128Q337 138 327 153Q257 256 257 381Q257 518 340 627Q423 735 555 771Q717 814 861 731Q1006 648 1049 487Q1093 325 1010 180Q927 35 765 -8Z" fill="#000000" />
<path d="M568 482Q568 506 552.5 521.5Q537 537 513 537Q490 537 474.0 521.5Q458 506 458 482Q458 459 474.0 443.0Q490 427 513 427Q537 427 552.5 443.0Q568 459 568 482Z" fill="#000000" />
<path d="M880 427Q880 451 864.5 466.5Q849 482 825 482Q802 482 786.0 466.5Q770 451 770 427Q770 404 786.0 388.0Q802 372 825 372Q849 372 864.5 388.0Q880 404 880 427Z" fill="#000000" />
<path d="M345 14Q311 -41 335 -102Q352 -154 394 -179Q438 -206 489 -190L579 -164L597 -159Q615 -154 625 -137Q635 -121 630 -103Q630 -102 629 -101Q629 -100 628 -98Q638 -92 645 -81Q655 -64 650 -46Q650 -45 650 -45Q648 -41 647 -38Q658 -32 665 -20Q675 -4 671 13Q670 16 669 19L757 45Q774 49 784 66Q794 83 789 100Q785 117 769 127Q751 138 734 133L547 78L479 58L488 174Q489 189 478 200Q469 208 455 208Q427 209 414 180ZM377 -4Q378 -3 378 -2L448 165Q449 168 450 170L440 34Q440 31 441 28Q446 10 464 15L557 43L744 98Q745 98 749 96Q753 93 754 90Q755 88 753 85Q751 81 747 80Q747 80 746 80L629 45Q619 42 616 31Q615 22 618 17Q622 11 631 10Q634 9 635 6Q635 5 635 4Q636 2 634 -1Q631 -5 628 -6Q627 -6 627 -6L605 -14Q594 -17 592 -28Q591 -37 595 -42Q598 -48 607 -49Q612 -50 615 -57Q615 -59 614 -62Q611 -66 608 -67L586 -72Q574 -75 572 -87Q571 -96 575 -101Q578 -106 587 -108Q592 -109 595 -114Q595 -116 593 -119Q591 -123 588 -123Q587 -123 587 -124L569 -129L479 -155Q479 -155 479 -155Q399 -180 369 -90Q369 -89 369 -89Q352 -44 377 -4Z" fill="#000000" />
</g></svg>