<svg xmlns="http://www.w3.org/2000/svg" viewBox="0 0 2048 2048">
<g transform="matrix(1 0 0 -1 0 2048)">
<path d="M174 500V501Q169 456 185.0 416.0Q201 376 232.0 346.5Q263 317 305 305Q299 286 297 266Q293 236 290.5 207.5Q288 179 302 154Q337 94 402.5 66.5Q468 39 543 57Q556 62 569.0 78.0Q582 94 593 104Q625 71 667.5 50.0Q710 29 759 24Q816 17 868.0 33.0Q920 49 961.5 83.0Q1003 117 1029.5 164.0Q1056 211 1062 268Q1064 292 1062 318Q1096 339 1118.5 374.0Q1141 409 1146 453Q1151 503 1131.0 547.0Q1111 591 1072.0 620.0Q1033 649 983 654Q973 655 962 655Q950 713 916.5 760.5Q883 808 832.5 838.5Q782 869 721 876Q649 883 585.5 856.0Q522 829 478.5 775.5Q435 722 422 652Q399 661 376 663Q325 669 281.0 648.5Q237 628 208.0 589.5Q179 551 174 500Z" fill="#ffffff" />
<path d="M394.1005859375 77.707275390625Q378.78759765625 77.707275390625 365.562744140625 72.05191040039062Q352.337890625 66.39654541015625 342.2452392578125 56.30389404296875Q332.152587890625 46.21124267578125 326.41021728515625 32.899383544921875Q320.6678466796875 19.5875244140625 320.6678466796875 4.2745361328125Q320.6678466796875 -10.86444091796875 326.41021728515625 -24.176300048828125Q332.152587890625 -37.4881591796875 342.2452392578125 -47.580810546875Q352.337890625 -57.6734619140625 365.562744140625 -63.328826904296875Q378.78759765625 -68.98419189453125 394.1005859375 -68.98419189453125Q409.23956298828125 -68.98419189453125 422.5514221191406 -63.328826904296875Q435.86328125 -57.6734619140625 445.9559326171875 -47.580810546875Q456.048583984375 -37.4881591796875 461.7039489746094 -24.176300048828125Q467.35931396484375 -10.86444091796875 467.35931396484375 4.2745361328125Q467.35931396484375 19.5875244140625 461.7039489746094 32.899383544921875Q456.048583984375 46.21124267578125 445.9559326171875 56.30389404296875Q435.86328125 66.39654541015625 422.5514221191406 72.05191040039062Q409.23956298828125 77.707275390625 394.1005859375 77.707275390625Z" fill="#ffffff" />
<path d="M227.0078125 -101.486328125Q222.66796875 -101.486328125 218.919921875 -103.089111328125Q215.171875 -104.69189453125 212.3115234375 -107.55224609375Q209.451171875 -110.41259765625 207.82373046875 -114.185302734375Q206.1962890625 -117.9580078125 206.1962890625 -122.2978515625Q206.1962890625 -126.58837890625 207.82373046875 -130.361083984375Q209.451171875 -134.1337890625 212.3115234375 -136.994140625Q215.171875 -139.8544921875 218.919921875 -141.457275390625Q222.66796875 -143.06005859375 227.0078125 -143.06005859375Q231.29833984375 -143.06005859375 235.071044921875 -141.457275390625Q238.84375 -139.8544921875 241.7041015625 -136.994140625Q244.564453125 -134.1337890625 246.167236328125 -130.361083984375Q247.77001953125 -126.58837890625 247.77001953125 -122.2978515625Q247.77001953125 -117.9580078125 246.167236328125 -114.185302734375Q244.564453125 -110.41259765625 241.7041015625 -107.55224609375Q238.84375 -104.69189453125 235.071044921875 -103.089111328125Q231.29833984375 -101.486328125 227.0078125 -101.486328125Z" fill="#ffffff" />
<path d="M394 -106Q348 -106 316.0 -73.5Q284 -41 284 4Q284 50 316.0 82.0Q348 114 394 114Q439 114 471.5 82.0Q504 50 504 4Q504 -41 471.5 -73.5Q439 -106 394 -106ZM394 78Q364 78 342.5 56.5Q321 35 321 4Q321 -26 342.5 -47.5Q364 -69 394 -69Q424 -69 445.5 -47.5Q467 -26 467 4Q467 35 445.5 56.5Q424 78 394 78Z" fill="#000000" />
<path d="M227 -179Q203 -179 186.0 -162.5Q169 -146 169 -122Q169 -98 186.0 -81.0Q203 -64 227 -64Q250 -64 267.0 -81.0Q284 -98 284 -122Q284 -146 267.0 -162.5Q250 -179 227 -179ZM227 -101Q218 -101 212.0 -107.0Q206 -113 206 -122Q206 -130 212.0 -136.5Q218 -143 227 -143Q235 -143 241.0 -136.5Q247 -130 247 -122Q247 -113 241.0 -107.0Q235 -101 227 -101Z" fill="#000000" />
<path d="M305 145Q309 137 316 136Q322 134 330 139Q346 148 336 164Q309 210 315 264Q317 282 323 299Q326 308 323 314Q320 320 311 323Q311 323 310 323Q253 339 220 389Q186 438 192 499Q199 567 253 609Q306 652 374 645Q394 643 415 635Q424 632 430 634Q436 637 439 646Q439 647 440 649Q458 747 538 807Q619 868 719 857Q804 848 866 790Q928 733 944 652Q947 637 962 637Q973 637 981 636Q1049 629 1092 576Q1135 522 1128 454Q1120 376 1053 333Q1043 327 1044 316Q1046 292 1044 270Q1032 164 950 97Q867 30 761 42Q670 51 606 116Q595 128 582 118Q561 101 536 92Q528 89 525 83Q522 77 525 69Q529 60 534 57Q540 55 549 58Q572 66 592 80Q662 15 758 5Q878 -8 973 69Q1067 145 1080 266Q1082 286 1081 308Q1155 360 1164 451Q1173 534 1121 599Q1068 664 985 672Q981 673 977 673Q956 757 891 817Q820 884 723 894Q608 906 516 837Q433 774 408 676Q393 680 378 682Q295 690 230 638Q165 585 156 502Q148 429 189 368Q225 315 283 293Q280 281 278 268Q271 202 305 145Z" fill="#000000" />
</g></svg>