<svg xmlns="http://www.w3.org/2000/svg" viewBox="0 0 2048 2048">
<g transform="matrix(1 0 0 -1 0 2048)">
<path d="M703 748Q767 748 816.0 722.0Q865 696 893.0 649.5Q921 603 921 538V120Q921 56 893.0 9.0Q865 -38 816.0 -64.0Q767 -90 703 -90H618Q553 -90 504.0 -65.5Q455 -41 427.0 5.0Q399 51 399 115V543Q399 607 427.0 653.0Q455 699 504.0 723.5Q553 748 618 748Z" fill="#d0cfce" />
<path d="M639 743Q682 751 701.5 747.5Q721 744 721 744Q759 746 802.0 728.5Q845 711 877.5 677.0Q910 643 918 595Q920 460 923.5 321.0Q927 182 910 38Q907 10 887.0 -15.0Q867 -40 838.0 -57.5Q809 -75 779 -80Q730 -88 623 -86Q651 -64 673.0 -43.0Q695 -22 710.0 6.0Q725 34 730 76Q736 121 746.0 183.5Q756 246 765.5 314.0Q775 382 780.5 446.0Q786 510 783 557Q779 611 758.0 647.0Q737 683 705.5 705.5Q674 728 639 743Z" fill="#9b9b9a" />
<path d="M837.3170166015625 485.8267822265625Q837.3170166015625 519.72509765625 824.64794921875 549.3433227539062Q811.9788818359375 578.9615478515625 789.5512084960938 601.3892211914062Q767.12353515625 623.81689453125 737.5053100585938 636.4859619140625Q707.8870849609375 649.155029296875 673.98876953125 649.155029296875Q640.0904541015625 649.155029296875 610.4722290039062 636.4859619140625Q580.85400390625 623.81689453125 558.4263305664062 601.3892211914062Q535.9986572265625 578.9615478515625 523.32958984375 549.3433227539062Q510.6605224609375 519.72509765625 510.6605224609375 485.8267822265625Q510.6605224609375 451.928466796875 523.32958984375 422.31024169921875Q535.9986572265625 392.6920166015625 558.4263305664062 370.26434326171875Q580.85400390625 347.836669921875 610.4722290039062 335.1676025390625Q640.0904541015625 322.49853515625 673.98876953125 322.49853515625Q707.8870849609375 322.49853515625 737.5053100585938 335.1676025390625Q767.12353515625 347.836669921875 789.5512084960938 370.26434326171875Q811.9788818359375 392.6920166015625 824.64794921875 422.31024169921875Q837.3170166015625 451.928466796875 837.3170166015625 485.8267822265625Z" fill="#f4aa41" />
<path d="M696 659Q713 649 734.5 628.5Q756 608 776.5 583.0Q797 558 810.0 532.5Q823 507 823 486Q823 441 801.0 404.0Q779 367 742.0 344.5Q705 322 660 322Q638 322 613.5 335.5Q589 349 565.0 369.0Q541 389 521.5 411.0Q502 433 491 450Q510 438 522.0 431.0Q534 424 558 424Q603 424 640.0 446.0Q677 468 699.5 505.0Q722 542 722 587Q722 628 696 659Z" fill="#e27022" />
<path d="M736 -118Q825 -117 887 -55Q950 8 951 97V561Q950 650 887 713Q825 776 736 776H584Q495 776 433 713Q370 650 369 561V97Q370 8 433 -55Q495 -117 584 -118ZM736 -81H584Q511 -81 458 -29Q406 23 406 97V561Q406 635 458 687Q511 739 584 739H736Q809 739 862 687Q914 635 914 561V97Q914 23 862 -29Q809 -81 736 -81Z" fill="#000000" />
<path d="M842 486Q842 561 788 614Q735 667 660 667Q585 667 532 614Q478 561 478 486Q478 410 532 357Q585 304 660 304Q735 304 788 357Q842 410 842 486ZM805 486Q805 426 762 383Q720 341 660 341Q600 341 558 383Q515 426 515 486Q515 546 558 588Q600 631 660 631Q720 631 762 588Q805 546 805 486Z" fill="#000000" />
<path d="M642 769Q641 751 659 750Q668 750 673 754Q678 758 678 767Q683 879 590 914Q539 933 415 930Q291 927 277 952Q268 968 252 960Q244 955 242 949Q240 943 244 935Q269 890 416 893Q533 896 577 879Q645 854 642 769Z" fill="#000000" />
</g></svg>