<svg xmlns="http://www.w3.org/2000/svg" viewBox="0 0 2048 2048">
<g transform="matrix(1 0 0 -1 0 2048)">
<path d="M452 843Q429 843 412.5 827.0Q396 811 396 787V283Q396 260 412.5 243.5Q429 227 452 227H868Q891 227 907.5 243.5Q924 260 924 283V787Q924 811 907.5 827.0Q891 843 868 843Z" fill="#d0cfce" />
<path d="M457.9219970703125 714.9977416992188V531.0033569335938H861.658447265625V714.9977416992188Z" fill="#3f3f3f" />
<path d="M457.988037109375 403.0V311.0H549.65966796875V403.0Z" fill="#fcea2b" />
<path d="M769.988037109375 403.0V311.0H861.65966796875V403.0Z" fill="#fcea2b" />
<path d="M471.06494140625 151.682373046875Q484.544921875 165.15771484375 471.069580078125 178.6376953125Q458.303466796875 191.408203125 444.823486328125 177.932861328125L206.440673828125 -60.367919921875Q193.670166015625 -73.134033203125 206.436279296875 -85.904541015625Q213.528564453125 -92.999267578125 219.912841796875 -92.291015625Q226.296875 -93.00146484375 232.68212890625 -86.618408203125Z" fill="#000000" />
<path d="M1087 -86Q1100 -99 1113 -86Q1126 -73 1113 -60L875 178Q862 191 849 178Q836 165 849 152Z" fill="#000000" />
<path d="M238 1Q229 1 225 -3Q220 -8 220 -17Q220 -35 238 -35L1088 -40Q1106 -40 1106 -22Q1106 -4 1088 -4Z" fill="#000000" />
<path d="M312 75Q293 75 293 56Q293 38 312 38L1014 33Q1033 33 1033 51Q1033 70 1015 70Z" fill="#000000" />
<path d="M385 148Q367 148 367 130Q367 111 385 111L941 106Q959 106 959 125Q960 143 941 143Z" fill="#000000" />
<path d="M880 697Q880 715 862 715Q843 715 843 697V554H477Q458 554 458 535Q458 517 477 517H862Q880 517 880 535Z" fill="#000000" />
<path d="M477 330Q458 330 458 312Q458 293 477 293H550Q568 293 568 312V385Q568 403 550 403Q532 403 532 385V330Z" fill="#000000" />
<path d="M789 330Q770 330 770 312Q770 293 789 293H862Q880 293 880 312V385Q880 403 862 403Q844 403 844 385V330Z" fill="#000000" />
<path d="M452 862Q378 862 378 787V283Q378 209 452 209H868Q899 209 921 231Q942 253 942 283V787Q942 818 921 840Q899 862 868 862ZM452 825H868Q906 825 906 787V283Q906 246 868 246H452Q414 246 414 283V787Q414 825 452 825Z" fill="#000000" />
</g></svg>