<svg xmlns="http://www.w3.org/2000/svg" viewBox="0 0 2048 2048">
<g transform="matrix(1 0 0 -1 0 2048)">
<path d="M415 535 1194 534 1192 385 415 399Z" fill="#ffffff" />
<path d="M395 393V173H1225V393Z" fill="#ea5a47" />
<path d="M649 454Q641 454 635.5 448.5Q630 443 630 435V278Q630 270 635.5 264.5Q641 259 649 259H727Q735 259 740.5 264.5Q746 270 746 278V435Q746 443 740.5 448.5Q735 454 727 454Z" fill="#92d3f5" />
<path d="M411 454Q403 454 397.5 448.5Q392 443 392 435V278Q392 270 397.5 264.5Q403 259 411 259H489Q497 259 502.5 264.5Q508 270 508 278V435Q508 443 502.5 448.5Q497 454 489 454Z" fill="#92d3f5" />
<path d="M888 454Q880 454 874.5 448.5Q869 443 869 435V278Q869 270 874.5 264.5Q880 259 888 259H966Q974 259 979.5 264.5Q985 270 985 278V435Q985 443 979.5 448.5Q974 454 966 454Z" fill="#92d3f5" />
<path d="M1126 454Q1118 454 1112.5 448.5Q1107 443 1107 435V278Q1107 270 1112.5 264.5Q1118 259 1126 259H1204Q1212 259 1217.5 264.5Q1223 270 1223 278V435Q1223 443 1217.5 448.5Q1212 454 1204 454Z" fill="#92d3f5" />
<path d="M463 108Q463 76 486.0 53.5Q509 31 541 31Q573 30 596.0 53.0Q619 76 619 108Z" fill="#d0cfce" />
<path d="M994 108Q994 76 1017.0 53.5Q1040 31 1072 31Q1104 30 1127.0 53.0Q1150 76 1150 108Z" fill="#d0cfce" />
<path d="M406.3125 182.0579833984375V107.3192138671875H1212.625V182.0579833984375Z" fill="#3f3f3f" />
<path d="M55 37Q37 37 37 18Q37 0 55 0H1228Q1247 0 1247 18Q1247 37 1228 37Z" fill="#000000" />
<path d="M385 770Q367 770 367 752Q367 733 385 733H1228Q1247 733 1247 752Q1247 770 1228 770Z" fill="#000000" />
<path d="M617 574Q611 568 610 562Q610 555 617 548Q629 535 643 548L746 647Q759 659 747 673Q746 673 745 674L635 766Q621 777 609 763Q603 756 604 750Q605 743 612 738L706 659Z" fill="#000000" />
<path d="M424 107Q443 107 443 126Q443 145 424 145H412V526Q412 542 428 542H1188Q1204 542 1204 526V145H1192Q1173 145 1173 126Q1173 107 1192 107H1207Q1242 107 1242 143V526Q1242 580 1188 580H428Q374 580 374 526V143Q374 107 409 107Z" fill="#000000" />
<path d="M953 107Q972 107 972 126Q972 145 953 145H657Q638 145 638 126Q638 107 657 107Z" fill="#000000" />
<path d="M638 103Q638 122 619 122Q600 122 600 103Q600 44 541 44Q482 44 482 103Q482 122 463 122Q444 122 444 103V102Q444 62 473 34Q501 6 541 6Q581 6 610 35Q638 63 638 103Z" fill="#000000" />
<path d="M1169 108Q1169 127 1150 127Q1131 127 1131 108Q1131 84 1113 67Q1096 49 1072 50Q1013 50 1013 108Q1013 127 994 127Q975 127 975 108Q975 68 1004 40Q1032 12 1072 12Q1112 11 1140 40Q1169 68 1169 108Z" fill="#000000" />
<path d="M649 473Q611 473 611 434V278Q611 262 622 251Q633 240 649 240H727Q743 240 754 251Q765 262 765 278V434Q765 473 727 473ZM649 435H727Q727 435 727 434V278Q727 278 727 278H649Q649 278 649 278V434Q649 435 649 435Z" fill="#000000" />
<path d="M412 473Q373 473 373 434V278Q373 262 385 251Q396 240 412 240H489Q505 240 516 251Q528 262 528 278V434Q528 450 516 462Q505 473 489 473ZM412 435H489Q490 435 490 434V278Q490 278 489 278H412Q411 278 411 278V434Q411 435 412 435Z" fill="#000000" />
<path d="M885 471Q846 471 846 433V277Q846 261 858 249Q869 238 885 238H962Q1001 238 1001 277V433Q1001 449 989 460Q978 471 962 471ZM885 433H962Q963 433 963 433V277Q963 276 962 276H885Q884 276 884 277V433Q884 433 885 433Z" fill="#000000" />
<path d="M1126 471Q1088 471 1088 433V277Q1088 238 1126 238H1204Q1242 238 1242 277V433Q1242 471 1204 471ZM1126 433H1204Q1204 433 1204 433V277Q1204 276 1204 276H1126Q1126 276 1126 276Q1126 276 1126 277V433Q1126 433 1126 433Z" fill="#000000" />
<path d="M374 201Q356 201 356 183Q356 165 374 165H1242Q1260 165 1260 183Q1260 201 1242 201Z" fill="#000000" />
</g></svg>