<svg xmlns="http://www.w3.org/2000/svg" viewBox="0 0 2048 2048">
<g transform="matrix(1 0 0 -1 0 2048)">
<path d="M1228 605 660 779 92 953V605V257L660 431Z" fill="#d22f27" />
<path d="M1234 587Q1243 590 1246 600Q1249 608 1246 614Q1242 620 1234 623L665 797L97 971Q94 972 92 972Q73 972 73 953V257Q73 254 74 251Q77 243 83 239Q88 236 97 239ZM1166 605 655 448 110 281V929L655 762Z" fill="#000000" />
<path d="M110 953Q110 972 92 972Q73 972 73 953V-183Q73 -202 92 -202Q110 -202 110 -183Z" fill="#000000" />
</g></svg>