<svg xmlns="http://www.w3.org/2000/svg" viewBox="0 0 2048 2048">
<g transform="matrix(1 0 0 -1 0 2048)">
<path d="M1186 481Q1186 519 1184.5 534.5Q1183 550 1174.0 553.0Q1165 556 1144 556Q1122 556 1101.5 544.0Q1081 532 1068.0 513.0Q1055 494 1055 472Q1055 439 1083.0 418.0Q1111 397 1144 397Q1165 397 1174.0 400.0Q1183 403 1184.5 420.5Q1186 438 1186 481Z" fill="#fcea2b" />
<path d="M975 422Q985 410 988.5 380.0Q992 350 991.5 314.5Q991 279 988.5 250.5Q986 222 984 214Q978 190 962.0 173.0Q946 156 928.0 145.5Q910 135 897.5 130.0Q885 125 885 125Q885 125 867.0 123.5Q849 122 821.5 119.5Q794 117 766.5 114.5Q739 112 719.0 110.0Q699 108 696 108Q689 108 665.5 109.0Q642 110 610.5 111.5Q579 113 548.0 114.5Q517 116 496.5 117.0Q476 118 476 118Q459 122 431.5 139.0Q404 156 381 191Q367 215 367.5 245.0Q368 275 376.0 303.0Q384 331 391.0 349.5Q398 368 397 368L482 373Q478 372 479.5 364.0Q481 356 479 354Q477 351 466.5 336.5Q456 322 447.0 300.0Q438 278 440 255Q442 221 453.0 210.5Q464 200 466 197Q485 184 495.5 180.5Q506 177 523 172Q535 168 567.5 167.0Q600 166 641.5 167.0Q683 168 724.0 170.0Q765 172 794.5 175.0Q824 178 832 180Q838 182 852.0 185.5Q866 189 880.5 196.0Q895 203 901 214Q903 217 909.5 231.5Q916 246 920.5 273.0Q925 300 919 337Q919 338 916.5 351.0Q914 364 905.5 381.5Q897 399 879.5 412.5Q862 426 831 427Q819 428 795.5 427.5Q772 427 755 427Q700 428 653.0 429.5Q606 431 540 428Q540 428 520.0 426.0Q500 424 472.5 420.5Q445 417 422.5 414.5Q400 412 395 411Q357 404 327.0 388.5Q297 373 283 364Q261 347 248.0 320.0Q235 293 229.0 266.0Q223 239 221.0 219.5Q219 200 219 198L178 197L173 728L220 725Q220 724 220.5 706.0Q221 688 226.0 661.0Q231 634 244.5 604.5Q258 575 284.0 551.0Q310 527 352 515Q353 515 372.0 512.0Q391 509 418.0 505.0Q445 501 472.0 496.5Q499 492 517.5 489.5Q536 487 537 487Q537 487 551.0 487.0Q565 487 584.0 487.5Q603 488 618.0 488.0Q633 488 636 488Q638 488 661.5 489.0Q685 490 719.5 491.0Q754 492 789.0 493.0Q824 494 849.5 494.0Q875 494 878 494Q890 492 906.5 487.5Q923 483 939 465Q940 464 948.5 454.0Q957 444 965.5 434.0Q974 424 975 422Z" fill="#fcea2b" />
<path d="M482 373Q481 373 478 373H482Q482 373 482 373Z" fill="#fcea2b" />
<path d="M1053 491Q1053 486 1056.5 471.5Q1060 457 1064.0 444.5Q1068 432 1068 432Q1068 432 1051.5 431.5Q1035 431 1015.0 430.5Q995 430 982.5 429.5Q970 429 977 429Q979 429 962.5 440.5Q946 452 922.0 467.0Q898 482 874.0 494.5Q850 507 837 509Q837 509 849.0 509.0Q861 509 873.0 509.0Q885 509 885 509H996Q992 509 1000.0 507.5Q1008 506 1020.5 503.5Q1033 501 1043.0 497.5Q1053 494 1053 491Z" fill="#fcea2b" />
<path d="M1061.194091796875 473.0384521484375Q1079.1885986328125 473.0384521484375 1079.1885986328125 491.032958984375Q1079.1885986328125 509.0274658203125 1061.194091796875 509.0274658203125H996.2139282226562Q977.2197265625 509.0274658203125 977.2197265625 491.032958984375Q977.2197265625 473.0384521484375 996.2139282226562 473.0384521484375Z" fill="#000000" />
<path d="M1170 414Q1152 414 1152 395Q1152 377 1170 377H1197Q1215 377 1215 395V557Q1215 576 1197 576H1170Q1152 576 1152 557Q1152 539 1170 539H1178V414Z" fill="#000000" />
<path d="M586 358Q586 367 581 372Q577 376 568 376Q549 376 549 357L551 235Q551 226 555 221Q560 217 569 217Q588 217 587 235Z" fill="#000000" />
<path d="M657 235Q657 217 675 217Q693 217 693 235L692 358Q692 376 673 376Q655 376 655 357Z" fill="#000000" />
<path d="M755 235Q755 217 773 217Q791 217 791 235L790 358Q790 376 771 376Q753 376 753 357Z" fill="#000000" />
<path d="M756 648Q737 648 737 630Q737 611 756 611H781Q799 611 799 630Q799 648 781 648Z" fill="#000000" />
<path d="M658 648Q639 648 639 630Q639 611 658 611H683Q701 611 701 630Q701 648 683 648Z" fill="#000000" />
<path d="M561 648Q542 648 542 630Q542 611 561 611H586Q604 611 604 630Q604 648 586 648Z" fill="#000000" />
<path d="M493 344Q504 358 490 369Q475 381 464 366Q423 312 423 268Q423 188 495 165Q522 157 683 159Q838 162 860 168Q934 189 937 295Q939 389 885 432Q883 433 883 434Q882 434 881 435Q853 452 514 440Q514 440 513 440Q416 434 369 421Q255 390 221 286Q207 247 208 211H188V713H206Q204 674 217 631Q251 521 377 490Q419 480 509 475Q509 475 510 475Q857 477 880 473Q917 466 946 430Q1001 359 965 221Q947 156 857 133Q834 127 671 126Q507 126 483 133Q481 133 475 135Q426 147 398 194Q374 235 383 284Q390 322 405 337Q412 344 412 350Q412 357 406 363Q393 377 380 364Q356 340 347 290Q336 228 367 176Q402 115 467 99Q471 98 474 97Q502 89 671 90Q839 90 867 97Q977 126 1000 212Q1042 368 975 452Q938 499 886 509Q860 514 510 512Q424 517 386 526Q280 552 252 642Q238 688 244 728Q245 730 245 731Q245 750 226 750H170Q152 750 152 731V192Q152 174 170 174H227Q229 174 230 174Q248 176 246 194Q241 232 255 275Q284 359 379 385Q422 397 516 404Q838 415 861 404Q862 403 862 403Q902 372 900 296Q898 217 850 203Q833 198 682 196Q528 193 506 200Q460 215 460 268Q460 300 493 344Z" fill="#000000" />
<path d="M1104 517Q1112 520 1115 526Q1117 532 1114 541Q1107 558 1090 551Q1040 530 1040 476Q1040 423 1090 402Q1106 395 1114 412Q1121 429 1104 436Q1077 447 1077 476Q1077 506 1104 517Z" fill="#000000" />
<path d="M592 564Q592 582 574 582Q555 582 555 564V554Q555 536 574 536Q592 536 592 554Z" fill="#000000" />
<path d="M652.0 554.0Q652.0 536.0 670.0 536.0Q689.0 536.0 689.0 554.0V564.0Q689.0 582.0 670.0 582.0Q652.0 582.0 652.0 564.0Z" fill="#000000" />
<path d="M750.0 554.0Q750.0 536.0 768.0 536.0Q787.0 536.0 787.0 554.0V564.0Q787.0 582.0 768.0 582.0Q750.0 582.0 750.0 564.0Z" fill="#000000" />
<path d="M583 45Q583 64 564 64Q546 64 546 45V35Q546 17 564 17Q583 17 583 35Z" fill="#000000" />
<path d="M652.0 36.0Q652.0 17.0 671.0 17.0Q689.0 17.0 689.0 36.0V46.0Q689.0 64.0 671.0 64.0Q652.0 64.0 652.0 46.0Z" fill="#000000" />
<path d="M759.0 36.0Q759.0 17.0 778.0 17.0Q796.0 17.0 796.0 36.0V46.0Q796.0 64.0 778.0 64.0Q759.0 64.0 759.0 46.0Z" fill="#000000" />
</g></svg>