<svg xmlns="http://www.w3.org/2000/svg" viewBox="0 0 2048 2048">
<g transform="matrix(1 0 0 -1 0 2048)">
<path d="M541 527 568 403Q568 403 551.5 400.0Q535 397 509.0 393.0Q483 389 454.5 385.5Q426 382 402.5 381.5Q379 381 367 385Q347 392 339.5 405.0Q332 418 331.0 429.0Q330 440 330 440L350 515L405 590L477 642L440 678L458 733Q458 733 443.5 737.5Q429 742 408.0 742.5Q387 743 365.5 733.5Q344 724 330 697Q330 697 337.5 714.5Q345 732 359.5 757.5Q374 783 395.5 806.5Q417 830 445.0 843.5Q473 857 507.5 850.0Q542 843 582 807Q582 807 591.5 799.5Q601 792 610.0 775.0Q619 758 619.0 729.5Q619 701 600 660Q582 619 569.0 602.0Q556 585 548.5 578.0Q541 571 539.0 562.0Q537 553 541 527Z" fill="#ea5a47" />
<path d="M559 530Q555 559 565 569Q593 600 617 652Q652 729 627 782Q614 809 593 822Q480 923 383 819Q337 771 313 703Q307 686 324 679Q339 674 346 688Q372 740 435 722L423 684Q419 673 427 665L448 644L394 605Q392 603 390 601L335 526Q333 523 332 520L312 445Q312 443 312 441Q308 386 361 368Q405 352 572 385Q590 389 586 407Q586 407 586 407ZM523 525Q523 524 523 523L546 418Q406 391 373 402Q347 411 348 437L367 507L418 577L487 627Q489 628 490 629Q503 642 490 655L461 683L476 728Q481 744 465 750Q439 761 408 761Q393 761 381 758Q394 777 409 794Q483 873 570 793Q571 792 573 790Q585 784 594 767Q612 729 584 668Q562 620 538 594Q517 571 523 525Z" fill="#ea5a47" />
<path d="M862 165Q862 154 879.0 140.0Q896 126 922.0 114.0Q948 102 976.5 95.0Q1005 88 1028.5 90.5Q1052 93 1063 110Q1074 126 1067.0 142.0Q1060 158 1042.5 172.0Q1025 186 1005.5 197.0Q986 208 972.0 214.0Q958 220 958 220Q958 220 972.0 220.5Q986 221 1005.5 223.5Q1025 226 1043.0 231.5Q1061 237 1069.5 247.0Q1078 257 1068 273Q1052 299 1029.0 306.5Q1006 314 989.0 313.0Q972 312 972 312Q972 312 991.0 315.5Q1010 319 1035.5 327.5Q1061 336 1080.5 350.0Q1100 364 1100 385Q1100 399 1083.0 406.0Q1066 413 1041.0 415.0Q1016 417 992.0 417.0Q968 417 953.0 416.0Q938 415 940.0 416.0Q942 417 972 422Q1059 435 1084.0 451.0Q1109 467 1082 495Q1071 506 1046.0 509.5Q1021 513 992.5 511.5Q964 510 941.0 507.5Q918 505 910.0 503.0Q902 501 919 504Q940 508 966.5 521.5Q993 535 1012.5 553.5Q1032 572 1034.0 591.0Q1036 610 1008 623Q981 637 954.0 629.5Q927 622 905.0 606.0Q883 590 870.0 575.5Q857 561 857 561Q857 561 871.0 576.0Q885 591 904.0 614.5Q923 638 939.0 664.0Q955 690 960.0 712.5Q965 735 950.5 748.0Q936 761 894 759Q851 756 821.5 733.0Q792 710 772.0 676.0Q752 642 740.5 604.5Q729 567 723.5 533.5Q718 500 716.5 479.0Q715 458 715 458Q715 458 691.0 464.5Q667 471 628.0 475.5Q589 480 542.5 476.0Q496 472 450.5 452.5Q405 433 368.0 390.5Q331 348 312 275Q299 227 312.5 189.0Q326 151 355.5 124.5Q385 98 420.5 82.0Q456 66 488 62Q556 52 618.0 62.5Q680 73 725.0 96.0Q770 119 788 147Z" fill="#a57939" />
<path d="M804 136 773 157Q747 118 670 94Q584 67 490 80Q418 90 368 138Q309 194 329 270Q375 440 544 458Q632 467 709 441L733 433V458Q736 527 758 599Q801 734 895 740Q938 743 942 728Q946 712 923 674Q902 637 868 600Q854 587 843 573L870 549Q888 567 903 585Q954 630 1000 607Q1015 599 1015 591Q1015 581 1000 566Q966 534 926 524Q919 523 912 522Q908 522 906 521Q905 521 904 520Q902 520 900 519Q887 513 890 499Q893 486 906 484Q909 484 922 486Q927 487 932 488Q948 490 967 492Q1052 498 1069 482Q1077 474 1078 470Q1077 469 1074 467Q1053 453 969 440Q939 435 935 434Q928 431 924 425Q916 410 931 400Q933 399 937 398Q939 398 943 398Q945 398 954 398Q1009 400 1039 397Q1082 392 1082 385Q1082 349 985 332Q977 332 968 330L974 294Q981 295 988 296Q1030 299 1052 263Q1055 258 1052 256Q1044 249 1021 245Q992 238 958 238H860L951 203Q985 190 1014 170Q1061 139 1048 120Q1031 94 955 120Q880 147 880 165H843Q843 121 943 86Q1045 50 1079 100Q1112 149 1035 201Q1029 204 1024 208Q1026 208 1029 209Q1061 215 1076 228Q1103 251 1084 282Q1072 302 1056 314Q1118 339 1118 385Q1118 415 1076 427Q1087 431 1094 436Q1116 451 1115 472Q1113 489 1095 508Q1074 529 1014 530Q1020 535 1026 540Q1051 565 1052 590Q1053 622 1017 640Q985 655 950 647Q953 651 955 655Q985 706 977 737Q966 782 893 777Q774 769 723 610Q703 546 698 483Q623 503 541 494Q346 474 294 280Q268 182 343 111Q402 55 485 44Q587 30 681 59Q771 87 804 136Z" fill="#a57939" />
<path d="M532 57Q532 76 513 76Q495 76 495 57V-23L453 -38Q435 -43 441 -61Q444 -70 450 -72Q455 -75 464 -72L519 -54Q532 -50 532 -37Z" fill="#000000" />
<path d="M568.0 -55.0Q586.0 -55.0 586.0 -37.0Q586.0 -18.0 568.0 -18.0H513.0Q495.0 -18.0 495.0 -37.0Q495.0 -55.0 513.0 -55.0Z" fill="#000000" />
<path d="M678 57Q678 76 660 76Q642 76 642 57V-23L599 -38Q582 -43 588 -61Q593 -78 611 -72L666 -54Q678 -50 678 -37Z" fill="#000000" />
<path d="M715.0 -55.0Q733.0 -55.0 733.0 -37.0Q733.0 -18.0 715.0 -18.0H660.0Q642.0 -18.0 642.0 -37.0Q642.0 -55.0 660.0 -55.0Z" fill="#000000" />
<path d="M804 136Q814 152 799 162Q783 172 773 157Q747 118 670 94Q584 67 490 80Q418 90 368 138Q309 194 329 270Q375 440 544 458Q632 467 709 441Q727 435 732 453Q733 455 733 458Q736 527 758 599Q801 734 895 740Q938 743 942 728Q946 712 923 674Q902 637 868 600Q854 587 843 573Q833 560 844 548Q857 536 870 549Q888 567 903 585Q954 630 1000 607Q1015 599 1015 591Q1015 581 1000 566Q966 534 926 524Q919 523 912 522Q908 522 906 521Q905 521 904 520Q902 520 900 519Q887 513 890 499Q893 486 906 484Q909 484 922 486Q927 487 932 488Q948 490 967 492Q1052 498 1069 482Q1077 474 1078 470Q1077 469 1074 467Q1053 453 969 440Q939 435 935 434Q928 431 924 425Q916 410 931 400Q933 399 937 398Q939 398 943 398Q945 398 954 398Q1009 400 1039 397Q1082 392 1082 385Q1082 349 985 332Q977 332 968 330Q951 326 954 309Q955 300 960 296Q965 292 974 294Q981 295 988 296Q1030 299 1052 263Q1055 258 1052 256Q1044 249 1021 245Q992 238 958 238Q940 238 940 220Q940 207 951 203Q985 190 1014 170Q1061 139 1048 120Q1031 94 955 120Q880 147 880 165Q880 183 862 183Q843 183 843 165Q843 121 943 86Q1045 50 1079 100Q1112 149 1035 201Q1029 204 1024 208Q1026 208 1029 209Q1061 215 1076 228Q1103 251 1084 282Q1072 302 1056 314Q1118 339 1118 385Q1118 415 1076 427Q1087 431 1094 436Q1116 451 1115 472Q1113 489 1095 508Q1074 529 1014 530Q1020 535 1026 540Q1051 565 1052 590Q1053 622 1017 640Q985 655 950 647Q953 651 955 655Q985 706 977 737Q966 782 893 777Q774 769 723 610Q703 546 698 483Q623 503 541 494Q346 474 294 280Q268 182 343 111Q402 55 485 44Q587 30 681 59Q771 87 804 136Z" fill="#000000" />
<path d="M452 716Q469 710 475 727Q482 744 465 750Q439 761 408 761Q393 761 381 758Q394 777 409 794Q483 873 570 793Q571 792 573 790Q585 784 594 767Q612 729 584 668Q562 620 538 594Q517 571 523 525Q525 506 543 509Q561 511 559 530Q555 558 565 569Q593 600 617 652Q652 729 627 782Q614 809 593 822Q480 923 383 819Q337 771 313 703Q307 688 322 680Q330 676 336 678Q342 680 346 688Q376 747 452 716Z" fill="#000000" />
<path d="M453 691Q440 704 427 691Q414 678 427 665Q432 661 432 653Q434 635 405 616Q334 569 318 500Q310 464 317 438Q321 420 339 425Q348 427 351 432Q355 438 352 447Q348 465 354 491Q367 546 425 585Q473 617 469 657Q467 678 453 691Z" fill="#000000" />
</g></svg>