<svg xmlns="http://www.w3.org/2000/svg" viewBox="0 0 2048 2048">
<g transform="matrix(1 0 0 -1 0 2048)">
<path d="M788.9369506835938 381.930908203125Q788.9415893554688 326.9788818359375 754.2387084960938 283.5927734375L495.412841796875 -37.464599609375L236.53277587890625 283.549072265625Q201.82257080078125 326.9293212890625 201.81793212890625 381.88134765625Q201.81243896484375 446.95611572265625 247.36093139648438 492.5122985839844Q292.909423828125 538.0684814453125 357.98419189453125 538.073974609375Q402.8134765625 538.0777587890625 438.96807861328125 514.943115234375Q475.1226806640625 491.8084716796875 495.3712158203125 455.65753173828125Q515.6136474609375 491.8118896484375 551.7643432617188 514.95263671875Q587.9150390625 538.0933837890625 632.7443237304688 538.09716796875Q697.819091796875 538.1026611328125 743.3752746582031 492.5541687011719Q788.9314575195312 447.00567626953125 788.9369506835938 381.930908203125Z" fill="#ffa7c0" />
<path d="M1118 724Q1118 695 1100 672L963 501L825 672Q807 695 807 724Q807 758 831.0 782.5Q855 807 890 807Q913 807 932.5 795.0Q952 783 963 763Q973 783 992.5 795.0Q1012 807 1035 807Q1070 807 1094.0 782.5Q1118 758 1118 724Z" fill="#ffa7c0" />
<path d="M807 382Q807 454 756 505Q705 556 632 556Q544 556 495 490Q446 556 358 556Q285 556 234 505Q183 454 183 382Q183 322 221 274Q221 274 222 273Q222 273 222 273L481 -48Q492 -62 507 -51Q508 -50 509 -48L768 273Q769 274 770 274Q807 322 807 382ZM770 382Q770 333 739 296Q739 296 739 296Q739 295 738 294L495 -7L252 294Q251 295 251 296Q220 333 220 382Q220 439 260 479Q301 520 358 520Q440 520 479 447Q481 443 486 440Q502 431 511 447Q550 520 632 520Q689 520 730 479Q770 439 770 382Z" fill="#000000" />
<path d="M1137 724Q1137 766 1107 795Q1077 825 1035 825Q990 825 963 795Q935 825 890 825Q848 825 818 795Q788 766 788 724Q788 689 810 662Q810 661 811 660L948 490Q960 476 974 487Q976 488 977 490L1114 660Q1115 661 1115 662Q1137 689 1137 724ZM1100 724Q1100 701 1086 683Q1085 683 1085 682L963 531L840 682Q840 683 839 683Q825 701 825 724Q825 788 890 788Q928 788 946 754Q949 750 954 747Q962 743 968 745Q974 746 979 754Q997 788 1035 788Q1100 788 1100 724Z" fill="#000000" />
</g></svg>