<svg xmlns="http://www.w3.org/2000/svg" viewBox="0 0 2048 2048">
<g transform="matrix(1 0 0 -1 0 2048)">
<path d="M559 44Q553 59 537.0 66.5Q521 74 502.0 78.5Q483 83 466.0 89.0Q449 95 440.5 106.5Q432 118 437 140Q456 196 491.0 233.0Q526 270 567.5 293.0Q609 316 647.0 328.0Q685 340 709.0 344.0Q733 348 733 348Q713 314 707.0 295.0Q701 276 703.5 268.0Q706 260 710.5 258.5Q715 257 715 257Q763 257 795.0 270.5Q827 284 845.5 302.5Q864 321 872.0 334.5Q880 348 880 348Q979 348 1038.0 355.5Q1097 363 1126.0 374.0Q1155 385 1164.5 396.0Q1174 407 1173.5 414.5Q1173 422 1173 422Q1138 516 1088.5 570.0Q1039 624 981.5 647.0Q924 670 866.0 671.5Q808 673 754.5 660.5Q701 648 659.0 630.5Q617 613 592.5 600.0Q568 587 568 587Q507 546 468.0 493.0Q429 440 407.0 384.5Q385 329 375.0 279.0Q365 229 362.5 194.0Q360 159 360 147Q360 134 347.5 119.0Q335 104 318.0 90.0Q301 76 286 66Q246 38 235.0 12.0Q224 -14 231.0 -42.5Q238 -71 248 -104Q260 -72 279.5 -59.5Q299 -47 319.5 -43.0Q340 -39 357 -34Q371 -29 380.0 -12.5Q389 4 396 15Q400 7 406.0 -2.5Q412 -12 423 -18Q441 -29 463.5 -25.5Q486 -22 509.0 -19.0Q532 -16 551 -30Q561 -42 567 -41Q568 -41 569 -40Q575 -37 573.5 -20.0Q572 -3 567.5 15.5Q563 34 559 44Z" fill="#3f3f3f" />
<path d="M971 429Q995 428 1012.5 423.0Q1030 418 1050 414Q1070 410 1094.5 407.5Q1119 405 1137.0 404.0Q1155 403 1155 403L1164 396Q1154 385 1126.5 374.5Q1099 364 1044.0 356.5Q989 349 898 349L843 403Q843 403 842.0 404.0Q841 405 852.0 408.5Q863 412 902 421Q923 426 940.0 427.5Q957 429 971 429Z" fill="#ffffff" />
<path d="M716 746Q722 728 739 734Q748 737 751 743Q754 749 751 757L696 922Q693 931 687 934Q681 937 673 934Q655 928 661 911Z" fill="#000000" />
<path d="M781 732Q782 723 787 719Q792 715 801 716Q819 718 817 736Q813 772 815 803Q816 820 819 828Q819 827 820 827Q827 821 833 821Q840 822 846 829Q858 842 844 855Q830 867 817 867Q801 867 791 853Q781 838 779 805Q776 771 781 732Z" fill="#000000" />
<path d="M687 693Q699 678 713 690Q720 696 721 702Q722 709 716 716Q691 746 665 768Q640 790 623 793Q606 796 595 785Q585 775 584 756Q583 738 602 737Q611 737 616 741Q620 745 621 754Q621 755 621 756Q629 752 641 741Q665 721 687 693Z" fill="#000000" />
<path d="M880.0865478515625 806.7544555664062Q880.0865478515625 810.54052734375 878.6504516601562 813.8696594238281Q877.21435546875 817.1987915039062 874.6903076171875 819.7228393554688Q872.166259765625 822.2468872070312 868.8371276855469 823.6829833984375Q865.5079956054688 825.1190795898438 861.721923828125 825.1190795898438Q857.9358520507812 825.1190795898438 854.6067199707031 823.6829833984375Q851.277587890625 822.2468872070312 848.7535400390625 819.7228393554688Q846.2294921875 817.1987915039062 844.7933959960938 813.8696594238281Q843.3572998046875 810.54052734375 843.3572998046875 806.7544555664062Q843.3572998046875 802.9683837890625 844.7933959960938 799.6392517089844Q846.2294921875 796.3101196289062 848.7535400390625 793.7860717773438Q851.277587890625 791.2620239257812 854.6067199707031 789.825927734375Q857.9358520507812 788.3898315429688 861.721923828125 788.3898315429688Q865.5079956054688 788.3898315429688 868.8371276855469 789.825927734375Q872.166259765625 791.2620239257812 874.6903076171875 793.7860717773438Q877.21435546875 796.3101196289062 878.6504516601562 799.6392517089844Q880.0865478515625 802.9683837890625 880.0865478515625 806.7544555664062Z" fill="#000000" />
<path d="M1154 385Q1172 384 1173 402Q1174 421 1156 422Q1093 425 1053 432Q1045 434 1029 438Q962 454 898 439Q848 427 836 422Q831 420 828 416Q821 409 824 400Q825 392 833 387Q833 387 834 387L885 335Q898 322 911 335Q924 348 911 361L876 396Q888 399 906 403Q962 416 1020 402Q1037 398 1046 396Q1089 388 1154 385Z" fill="#000000" />
<path d="M577 49Q576 50 576 50Q564 81 500 98Q469 106 460 113Q451 119 455 135Q490 242 615 296Q659 316 700 324Q681 286 686 265Q691 238 715 238Q802 238 858 289Q880 309 892 330Q1093 331 1160 369Q1206 396 1190 429Q1082 716 807 687Q672 673 559 602Q558 602 558 602Q423 512 370 336Q341 240 342 148Q340 125 276 81Q217 41 211 -8Q207 -38 227 -99Q230 -106 231 -110Q234 -118 242 -121Q251 -124 257 -122Q262 -119 266 -110Q282 -68 340 -56Q355 -53 362 -51Q362 -51 362 -51Q380 -45 397 -20Q405 -29 414 -34Q436 -47 485 -40Q524 -35 539 -44Q554 -60 568 -60Q575 -59 580 -55Q609 -35 577 49ZM542 37Q556 2 559 -13Q533 3 480 -4Q444 -9 432 -3Q422 4 412 23Q404 39 387 31Q383 29 380 24Q378 21 374 13Q359 -13 351 -16Q345 -18 332 -20Q282 -31 254 -60Q245 -28 247 -13Q251 20 297 51Q377 106 379 147Q379 147 379 148Q378 235 405 325Q455 489 578 571Q685 638 811 651Q1058 677 1156 415Q1157 414 1157 413L1156 415Q1155 408 1141 401Q1081 367 880 367Q868 367 863 355Q855 336 833 316Q790 277 721 275Q721 293 749 339Q759 355 743 364Q738 367 731 367Q670 360 601 330Q460 269 420 146Q420 146 420 145Q409 105 438 83Q453 72 491 62Q536 51 542 38Q542 37 542 37Z" fill="#000000" />
</g></svg>