<svg xmlns="http://www.w3.org/2000/svg" viewBox="0 0 2048 2048">
<g transform="matrix(1 0 0 -1 0 2048)">
<path d="M858 814Q922 814 974.0 782.5Q1026 751 1057.5 699.0Q1089 647 1089 583V187Q1089 123 1057.5 71.0Q1026 19 974.0 -12.5Q922 -44 858 -44H462Q398 -44 346.0 -12.5Q294 19 262.5 71.0Q231 123 231 187V583Q231 647 262.5 699.0Q294 751 346.0 782.5Q398 814 462 814Z" fill="#ffffff" />
<path d="M858 832H462Q359 832 286 759Q213 686 213 583V187Q213 84 286 11Q359 -62 462 -62H858Q961 -62 1034 11Q1107 84 1107 187V583Q1107 686 1034 759Q961 832 858 832ZM858 795Q946 795 1008 733Q1070 671 1070 583V187Q1070 99 1008 37Q946 -25 858 -25H462Q374 -25 312 37Q250 99 250 187V583Q250 671 312 733Q374 795 462 795Z" fill="#000000" />
<path d="M885.6075439453125 384.8448486328125Q885.6075439453125 478.322021484375 819.6236572265625 544.305908203125Q753.6397705078125 610.289794921875 660.16259765625 610.289794921875Q566.6854248046875 610.289794921875 500.7015380859375 544.305908203125Q434.7176513671875 478.322021484375 434.7176513671875 384.8448486328125Q434.7176513671875 291.36767578125 500.7015380859375 225.3837890625Q566.6854248046875 159.39990234375 660.16259765625 159.39990234375Q753.6397705078125 159.39990234375 819.6236572265625 225.3837890625Q885.6075439453125 291.36767578125 885.6075439453125 384.8448486328125ZM848.808837890625 384.8448486328125Q848.808837890625 306.5947265625 793.3992919921875 251.608154296875Q738.4127197265625 196.1986083984375 660.16259765625 196.1986083984375Q581.9124755859375 196.1986083984375 526.9259033203125 251.608154296875Q471.516357421875 306.5947265625 471.516357421875 384.8448486328125Q471.516357421875 463.094970703125 526.9259033203125 518.08154296875Q581.9124755859375 573.4910888671875 660.16259765625 573.4910888671875Q738.4127197265625 573.4910888671875 793.3992919921875 518.08154296875Q848.808837890625 463.094970703125 848.808837890625 384.8448486328125Z" fill="#000000" />
<path d="M955.85302734375 636.511474609375Q955.85302734375 645.666015625 952.380615234375 653.7156982421875Q948.908203125 661.765380859375 942.80517578125 667.868408203125Q936.7021484375 673.971435546875 928.6524658203125 677.44384765625Q920.602783203125 680.916259765625 911.4482421875 680.916259765625Q902.293701171875 680.916259765625 894.2440185546875 677.44384765625Q886.1943359375 673.971435546875 880.09130859375 667.868408203125Q873.98828125 661.765380859375 870.515869140625 653.7156982421875Q867.04345703125 645.666015625 867.04345703125 636.511474609375Q867.04345703125 627.35693359375 870.515869140625 619.3072509765625Q873.98828125 611.257568359375 880.09130859375 605.154541015625Q886.1943359375 599.051513671875 894.2440185546875 595.5791015625Q902.293701171875 592.106689453125 911.4482421875 592.106689453125Q920.602783203125 592.106689453125 928.6524658203125 595.5791015625Q936.7021484375 599.051513671875 942.80517578125 605.154541015625Q948.908203125 611.257568359375 952.380615234375 619.3072509765625Q955.85302734375 627.35693359375 955.85302734375 636.511474609375Z" fill="#000000" />
</g></svg>