<svg xmlns="http://www.w3.org/2000/svg" viewBox="0 0 2048 2048">
<g transform="matrix(1 0 0 -1 0 2048)">
<path d="M855 378Q783 469 693.5 540.5Q604 612 508.5 661.0Q413 710 320.0 735.5Q227 761 147 761Q147 745 164.5 722.0Q182 699 210.5 673.0Q239 647 270.5 622.0Q302 597 330.0 576.5Q358 556 376.0 544.0Q394 532 394 532H266Q266 510 290.0 486.0Q314 462 349.5 439.0Q385 416 420.5 397.5Q456 379 480.0 368.5Q504 358 504 358H385Q416 314 463.0 284.0Q510 254 563.5 234.5Q617 215 669.0 205.0Q721 195 762 193Q757 183 752 174Q750 171 749 170Q734 145 712.0 112.5Q690 80 656.5 50.5Q623 21 574.5 1.5Q526 -18 458 -18Q506 -53 558.0 -63.0Q610 -73 651 -73Q714 -73 779.0 -54.0Q844 -35 903.0 2.0Q962 39 1008.5 93.0Q1055 147 1082.0 215.5Q1109 284 1109 367Q1109 428 1124.5 478.0Q1140 528 1163.5 557.5Q1187 587 1210 587H1082Q1032 587 991.5 557.5Q951 528 917.5 480.0Q884 432 855 378Z" fill="#b1cc33" />
<path d="M880 446 843 385 706 523Q706 523 693.5 543.0Q681 563 661.0 595.5Q641 628 618.5 667.0Q596 706 576.5 744.5Q557 783 544.5 814.0Q532 845 532 862Q559 862 603.5 834.0Q648 806 698.5 753.0Q749 700 797.0 622.5Q845 545 880 446Z" fill="#b1cc33" />
<path d="M897 452Q833 637 712 765Q605 880 532 880Q523 880 518 875Q513 871 513 862Q513 790 690 513Q691 511 693 510L830 372Q843 359 856 372Q858 374 859 376L896 436Q900 444 897 452ZM860 448 840 415 720 534Q574 763 554 840Q606 825 685 740Q798 620 860 448Z" fill="#b1cc33" />
<path d="M1063.0865478515625 531.7544555664062Q1063.0865478515625 535.54052734375 1061.6504516601562 538.8696594238281Q1060.21435546875 542.1987915039062 1057.6903076171875 544.7228393554688Q1055.166259765625 547.2468872070312 1051.8371276855469 548.6829833984375Q1048.5079956054688 550.1190795898438 1044.721923828125 550.1190795898438Q1040.9358520507812 550.1190795898438 1037.6067199707031 548.6829833984375Q1034.277587890625 547.2468872070312 1031.7535400390625 544.7228393554688Q1029.2294921875 542.1987915039062 1027.7933959960938 538.8696594238281Q1026.3572998046875 535.54052734375 1026.3572998046875 531.7544555664062Q1026.3572998046875 527.9683837890625 1027.7933959960938 524.6392517089844Q1029.2294921875 521.3101196289062 1031.7535400390625 518.7860717773438Q1034.277587890625 516.2620239257812 1037.6067199707031 514.825927734375Q1040.9358520507812 513.3898315429688 1044.721923828125 513.3898315429688Q1048.5079956054688 513.3898315429688 1051.8371276855469 514.825927734375Q1055.166259765625 516.2620239257812 1057.6903076171875 518.7860717773438Q1060.21435546875 521.3101196289062 1061.6504516601562 524.6392517089844Q1063.0865478515625 527.9683837890625 1063.0865478515625 531.7544555664062Z" fill="#ffffff" />
<path d="M837 378 853 369Q849 360 839 359Q829 358 823 366ZM128 761H110Q110 768 115.5 773.5Q121 779 128 779ZM376 532 386 547Q397 539 393 526Q389 513 376 513ZM248 532H229Q229 539 234.5 544.5Q240 550 248 550ZM486 358 493 374Q507 369 504 354Q501 339 486 339ZM367 358 352 347Q345 356 350 366Q355 376 367 376ZM744 193 745 211Q755 210 760 201Q765 193 760 184ZM733 174 718 183V184ZM440 -18 429 -33Q418 -25 423 -13Q427 0 440 0ZM1192 568V605Q1199 605 1204.5 599.5Q1210 594 1210 587Q1210 579 1204.5 573.5Q1199 568 1192 568ZM851 389 823 366Q751 456 663.5 526.0Q576 596 482.0 644.5Q388 693 297.0 718.0Q206 743 128 743V779Q211 779 306.0 753.0Q401 727 498.5 677.0Q596 627 687.0 554.5Q778 482 851 389ZM110 761H147Q147 759 148.5 754.5Q150 750 154 742Q163 729 180 711Q197 693 218.5 674.0Q240 655 264 637Q286 618 308.0 602.0Q330 586 348 573Q356 567 363.5 562.0Q371 557 376 554Q381 551 383 549Q385 548 385 547Q386 547 386 547Q386 547 386 547Q386 547 386.0 547.0Q386 547 386 547Q386 547 386.0 547.0Q386 547 386 547Q386 547 384.5 545.0Q383 543 376 532Q368 520 367.0 518.0Q366 516 366 516Q366 516 366.0 516.0Q366 516 366 516Q366 516 366.0 516.0Q366 516 366 516Q366 516 366.0 516.5Q366 517 365 517Q365 517 365 517Q365 517 363 518Q360 521 355 524Q350 527 342.5 532.0Q335 537 327 543Q309 556 286.5 572.5Q264 589 241 608Q217 626 194.5 646.0Q172 666 154 685Q134 706 123 723Q118 731 114.0 741.0Q110 751 110 761ZM376 550V513H248V550ZM229 532H266Q266 524 273 513Q281 501 297 487Q313 473 333.5 459.5Q354 446 376 433Q398 420 419.0 409.5Q440 399 456 391Q465 387 471.5 384.0Q478 381 483 379Q488 377 490 375Q491 375 491.5 375.0Q492 375 492 375Q493 374 493 374Q493 374 493 374Q493 374 493 374Q493 374 493.0 374.0Q493 374 493 374Q493 374 492.0 372.0Q491 370 486 358Q480 345 479.5 343.0Q479 341 479 341Q479 341 479.0 341.0Q479 341 479 341Q479 341 479.0 341.0Q479 341 479 341Q478 341 478 341Q478 341 478 341Q477 342 476 342Q475 342 473.0 343.0Q471 344 468 345Q463 347 456.0 350.5Q449 354 441 358Q424 366 402.0 377.0Q380 388 358 401Q335 414 312.5 429.0Q290 444 273 460Q253 477 242 493Q237 502 233.0 511.5Q229 521 229 532ZM486 376V339H367V376ZM352 347 382 368Q410 328 455.0 299.0Q500 270 551 251Q602 232 653.5 222.5Q705 213 745 211L743 174Q700 176 646.0 186.5Q592 197 538 217Q485 237 435.0 269.0Q385 301 352 347ZM749 165 718 184Q723 193 728 201L760 184Q754 174 749 165ZM747 161 715 180Q716 181 716.5 182.0Q717 183 718 183L749 165Q749 164 747 161ZM440 -37V0Q503 0 548.5 18.0Q594 36 626.0 64.0Q658 92 679.0 123.0Q700 154 715 180L747 161Q732 135 708.5 101.5Q685 68 649.5 36.5Q614 5 563.0 -16.0Q512 -37 440 -37ZM633 -55V-92Q590 -92 535.5 -81.0Q481 -70 429 -33L451 -3Q495 -35 544.0 -45.0Q593 -55 633 -55ZM1073 367H1109Q1109 280 1081.0 208.5Q1053 137 1004.5 81.0Q956 25 894.5 -13.5Q833 -52 765.5 -72.0Q698 -92 633 -92V-55Q709 -55 786.5 -26.0Q864 3 929.0 57.5Q994 112 1033.5 190.0Q1073 268 1073 367ZM1192 605V568Q1188 568 1182.5 565.5Q1177 563 1169 556Q1154 542 1141 515Q1127 487 1118.0 449.0Q1109 411 1109 367H1073Q1073 415 1082.5 457.0Q1092 499 1108 531Q1124 564 1144 583Q1154 592 1166.0 598.5Q1178 605 1192 605ZM1063 568V605H1192V568ZM853 369 821 386Q842 427 867.0 466.0Q892 505 921 536Q950 566 985.5 585.5Q1021 605 1063 605V568Q1031 568 1002.5 553.0Q974 538 948 510Q921 483 898.0 446.5Q875 410 853 369Z" fill="#000000" />
<path d="M630 612Q641 598 655 609Q663 614 664 621Q664 627 659 634Q563 759 552 840Q598 827 669 758Q775 655 837 506Q841 498 847 495Q853 493 861 496Q878 503 871 520Q806 676 695 784Q596 880 532 880Q513 880 513 862Q513 764 630 612Z" fill="#000000" />
</g></svg>