<svg xmlns="http://www.w3.org/2000/svg" viewBox="0 0 2048 2048">
<g transform="matrix(1 0 0 -1 0 2048)">
<path d="M1122 648Q1136 644 1136 631V154Q1136 140 1122 137L695 15Q690 13 685 15L263 138Q236 146 218.0 167.5Q200 189 196 217Q191 244 202.0 270.0Q213 296 236 312Q195 341 194 391Q194 442 235 471Q212 488 201.5 515.0Q191 542 196 570Q202 598 221.5 618.5Q241 639 268 646Q269 647 271 648L685 769Q690 771 695 769Z" fill="#ffffff" />
<path d="M690 509 1117 631 690 752 276 631Z" fill="#b399c8" />
<path d="M277 591Q248 580 249 549Q250 519 279 509L690 389L1120 512Q1126 514 1130 510Q1135 506 1135 501L1134 478L690 351L268 474Q242 483 226.5 505.5Q211 528 213 555Q214 582 232.0 603.0Q250 624 276 630L690 508L1136 631L1135 608Q1135 600 1127 597L700 473Q690 470 680 473L277 592Z" fill="#b399c8" />
<path d="M277 432Q248 421 249 390Q250 360 279 350L690 230L1120 353Q1126 355 1130 351Q1135 347 1135 342L1134 319L690 192L268 315Q242 324 226.5 346.5Q211 369 213 396Q214 423 232.0 444.0Q250 465 276 471L690 349L1136 472L1135 449Q1135 441 1127 438L700 314Q690 311 680 314L277 433Z" fill="#1e50a0" />
<path d="M277 272Q248 261 249 230Q250 200 279 190L690 70L1120 193Q1126 195 1130 191Q1135 187 1135 182L1134 159L690 32L268 155Q242 164 226.5 186.5Q211 209 213 236Q214 263 232.0 284.0Q250 305 276 311L690 189L1136 312L1135 289Q1135 281 1127 278L700 154Q690 151 680 154L277 273Z" fill="#5c9e31" />
<path d="M813 719 400 596 293 627 707 749Z" fill="#8967aa" />
<path d="M685 50 695 15 1122 137 1112 172Z" fill="#000000" />
<path d="M695 734Q704 737 707 742Q710 748 708 757Q705 766 699 769Q694 772 685 769L271 648Q253 643 258 625Q263 607 281 613Z" fill="#000000" />
<path d="M568 714 990 591 992 119 850 81 841 543 971 585 840 543 419 666Z" fill="#a57939" />
<path d="M823 525Q840 529 836 547Q833 556 828 559Q822 563 813 560L690 528L341 630L690 733L1053 630L985 609Q967 603 973 586Q976 577 981 574Q987 571 996 574L1123 613Q1132 616 1135 626Q1137 634 1134 640Q1131 646 1122 648L695 769Q690 771 685 769L271 648Q261 645 258 635Q253 618 271 612L685 491Q690 489 695 491Z" fill="#000000" />
<path d="M996 458Q978 453 983 435Q988 417 1006 422L1122 456Q1140 461 1135 478Q1130 496 1112 491Z" fill="#000000" />
<path d="M280 612Q298 616 294 634Q291 652 273 648Q199 632 195 556Q190 481 262 457Q263 457 263 457L685 334Q690 332 695 334L842 376Q850 378 854 384Q857 389 854 398Q852 407 846 410Q840 413 832 411L690 370L274 492Q229 507 231 554Q234 602 280 612Z" fill="#000000" />
<path d="M1072 283Q1074 284 1076 284L1122 297Q1140 301 1135 319Q1130 337 1113 332L1046 315Q1029 310 1033 292Q1038 275 1056 279Z" fill="#000000" />
<path d="M986.6209716796875 298.139892578125 996.099609375 262.8477783203125 1056.161865234375 278.9771728515625 1046.6832275390625 314.269287109375Z" fill="#000000" />
<path d="M280 453 273 489Q199 473 195 398Q190 322 262 298Q263 298 263 298L685 175Q690 174 695 175L845 218L835 254L690 212L274 333Q229 348 231 396Q234 443 280 453Z" fill="#000000" />
<path d="M280 293Q289 295 293 300Q296 306 294 315Q291 333 273 329Q199 313 195 237Q190 162 262 138Q263 138 263 138L685 15Q690 13 695 15L1122 137Q1140 142 1135 159Q1130 177 1112 172L690 51L274 173Q229 188 231 235Q234 283 280 293Z" fill="#000000" />
<path d="M1004 591Q1004 605 990 605Q983 605 980 601Q976 598 976 591L979 119Q979 105 993 105Q1006 105 1006 119Z" fill="#000000" />
<path d="M854 542Q854 549 850 553Q847 556 840 556Q826 556 826 542V79Q826 66 840 66Q854 66 854 79Z" fill="#000000" />
<path d="M992 575Q1004 571 1008 584Q1010 590 1008 594Q1006 598 1000 600L562 732Q556 734 552 732Q548 729 546 723Q544 717 546 713Q549 709 555 707Z" fill="#000000" />
<path d="M837 530Q850 526 854 539Q858 552 844 556L423 679Q409 683 406 670Q402 657 415 653Z" fill="#000000" />
</g></svg>