<svg xmlns="http://www.w3.org/2000/svg" viewBox="0 0 2048 2048">
<g transform="matrix(1 0 0 -1 0 2048)">
<path d="M1118 631V140H202V631Z" fill="#ffffff" />
<path d="M170 635V135Q170 124 178 115Q186 107 197 107H1123Q1134 107 1143 115Q1151 124 1151 135V635Q1151 647 1143 655Q1134 663 1123 663H197Q186 663 178 655Q170 647 170 635ZM225 608H1096V162H225Z" fill="#000000" />
<path d="M842 216Q843 215 844 214Q848 210 852 210Q853 210 853 210Q854 210 854 210Q858 210 862 214Q863 215 864 216L1024 396Q1033 405 1023 413Q1020 416 1015 416H909L907 547Q907 560 894 560H810Q797 560 797 547V416H691Q679 416 679 404Q679 399 682 396ZM987 391 853 242 719 391H810Q822 392 822 404V535H882L884 404Q884 391 896 391Z" fill="#000000" />
<path d="M525 249Q525 233 537 222Q548 210 564 210Q580 210 591 222Q603 233 603 249V521Q603 537 591 548Q580 559 564 559Q540 559 529 538L448 375L366 538Q359 552 343 557Q328 563 314 555Q292 545 292 521V249Q292 233 304 222Q315 210 331 210Q347 210 359 222Q370 233 370 249V356L413 271Q419 259 430 253Q445 246 460 251Q475 256 482 271L525 356Z" fill="#000000" />
<path d="M853 223 691 404H810V547H894L896 404H1015L853 223Z" fill="#000000" />
</g></svg>