<svg xmlns="http://www.w3.org/2000/svg" viewBox="0 0 2048 2048">
<g transform="matrix(1 0 0 -1 0 2048)">
<path d="M781 373Q843 372 893.5 341.0Q944 310 974.0 258.5Q1004 207 1003 145Q1002 83 971.0 32.5Q940 -18 888.5 -48.0Q837 -78 775 -77Q713 -76 662.5 -45.0Q612 -14 582.0 37.5Q552 89 553 151Q554 213 585.0 264.0Q616 315 667.5 344.5Q719 374 781 373Z" fill="#d0cfce" />
<path d="M779.4595336914062 248.85455322265625Q807.3602905273438 248.404541015625 830.0859069824219 234.45416259765625Q852.8115234375 220.5037841796875 866.3118896484375 197.32815551757812Q879.812255859375 174.15252685546875 879.3622436523438 146.25177001953125Q878.9122314453125 118.35101318359375 864.9618530273438 95.62539672851562Q851.011474609375 72.8997802734375 827.8358459472656 59.3994140625Q804.6602172851562 45.8990478515625 776.7594604492188 46.34906005859375Q748.8587036132812 46.799072265625 726.1330871582031 60.74945068359375Q703.407470703125 74.6998291015625 689.9071044921875 97.87545776367188Q676.40673828125 121.05108642578125 676.8567504882812 148.95184326171875Q677.3067626953125 176.85260009765625 691.2571411132812 199.80322265625Q705.20751953125 222.75384521484375 728.3831481933594 236.02920532226562Q751.5587768554688 249.3045654296875 779.4595336914062 248.85455322265625Z" fill="#9b9b9a" />
<path d="M445 384 503 -43Q504 -56 496 -66Q487 -76 474 -77Q460 -76 449.0 -66.5Q438 -57 435 -43L320 340Q307 372 306 407Q306 425 312.5 456.5Q319 488 327.5 520.0Q336 552 342.5 574.0Q349 596 349 596Q360 640 382.0 655.0Q404 670 428 670Q455 670 470.0 652.5Q485 635 489 606Z" fill="#fcea2b" />
<path d="M705 435V305Q705 287 697.0 275.5Q689 264 675 264Q662 264 653.0 273.5Q644 283 644 304V426Q641 467 663 502L706 582Q719 606 766 601L843 591Q861 588 873.5 574.5Q886 561 888 542L899 471L910 393Q847 431 774 431H739V475Q739 482 734 482Q728 481 725 476Z" fill="#fcea2b" />
<path d="M558.5459594726562 788.9877319335938Q558.4882202148438 806.883056640625 549.7304382324219 821.5714721679688Q540.97265625 836.2598876953125 526.2227783203125 845.1088562011719Q511.472900390625 853.9578247070312 493.57757568359375 853.9000854492188Q475.6822509765625 853.8423461914062 460.99383544921875 845.0845642089844Q446.305419921875 836.3267822265625 437.4564514160156 821.576904296875Q428.60748291015625 806.8270263671875 428.66522216796875 788.9317016601562Q428.72296142578125 771.036376953125 437.4807434082031 756.3479614257812Q446.238525390625 741.6595458984375 460.9884033203125 732.8105773925781Q475.73828125 723.9616088867188 493.63360595703125 724.0193481445312Q511.5289306640625 724.0770874023438 526.3616333007812 732.8330078125Q541.1943359375 741.5889282226562 549.8990173339844 756.3406677246094Q558.6036987304688 771.0924072265625 558.5459594726562 788.9877319335938Z" fill="#fcea2b" />
<path d="M881.5459594726562 721.9877319335938Q881.4882202148438 739.883056640625 872.7304382324219 754.5714721679688Q863.97265625 769.2598876953125 849.2227783203125 778.1088562011719Q834.472900390625 786.9578247070312 816.5775756835938 786.9000854492188Q798.6822509765625 786.8423461914062 783.9938354492188 778.0845642089844Q769.305419921875 769.3267822265625 760.4564514160156 754.576904296875Q751.6074829101562 739.8270263671875 751.6652221679688 721.9317016601562Q751.7229614257812 704.036376953125 760.4807434082031 689.3479614257812Q769.238525390625 674.6595458984375 783.9884033203125 665.8105773925781Q798.73828125 656.9616088867188 816.6336059570312 657.0193481445312Q834.5289306640625 657.0770874023438 849.3616333007812 665.8330078125Q864.1943359375 674.5889282226562 872.8990173339844 689.3406677246094Q881.6036987304688 704.0924072265625 881.5459594726562 721.9877319335938Z" fill="#fcea2b" />
<path d="M281 313 241 175Q241 175 234.5 159.5Q228 144 217.5 120.5Q207 97 196.5 72.5Q186 48 177.5 29.5Q169 11 166 6Q156 -13 155.0 -32.0Q154 -51 166 -59Q182 -67 199.0 -62.0Q216 -57 224 -41Q228 -35 240.0 -13.0Q252 9 266.0 35.0Q280 61 290.0 80.0Q300 99 300 99L323 163Z" fill="#fcea2b" />
<path d="M1036 342Q1082 342 1110.0 322.5Q1138 303 1140 270Q1141 256 1143.0 229.0Q1145 202 1146.5 169.5Q1148 137 1150.0 107.0Q1152 77 1153.0 57.5Q1154 38 1154 38Q1154 14 1144.0 -1.0Q1134 -16 1117 -16Q1084 -16 1078 27L1059 192Z" fill="#fcea2b" />
<path d="M471 604Q473 585 491 588Q510 590 507 608Q497 688 428 688Q354 688 332 601Q287 459 287 407Q287 407 287 406Q288 369 303 334L417 -48Q427 -92 473 -95Q474 -95 475 -95Q496 -93 510 -78Q523 -62 521 -41Q521 -41 521 -40L463 386Q460 405 442 402Q424 400 426 381L485 -45Q485 -50 482 -54Q479 -57 474 -58Q457 -56 453 -39Q453 -38 452 -38L337 345Q337 346 337 347Q325 376 324 407Q324 454 367 590Q367 591 367 591Q382 652 428 652Q465 652 471 604Z" fill="#000000" />
<path d="M645 429Q663 429 663 447Q663 465 645 465H521Q521 465 520 465Q498 463 491 484Q491 485 491 486L439 606Q432 622 415 615Q398 608 405 591L457 472Q472 425 522 429Z" fill="#000000" />
<path d="M340 163Q343 172 340 178Q337 183 328 186Q311 192 305 174L283 106Q219 -15 209 -31Q208 -32 208 -33Q197 -54 175 -43Q165 -35 182 -3Q192 15 258 167Q259 169 259 170L294 303Q298 320 280 325Q263 330 258 312L224 181Q159 31 150 15Q116 -48 156 -74Q156 -75 157 -75Q211 -104 240 -50Q252 -32 316 90Q317 92 318 93Z" fill="#000000" />
<path d="M1077 194Q1075 212 1057 210Q1039 208 1041 190L1059 25Q1059 25 1059 24Q1068 -34 1117 -34Q1143 -34 1159 -11Q1172 8 1172 38Q1172 39 1172 39Q1162 226 1159 271Q1152 360 1036 360Q1017 360 1017 342Q1017 324 1036 324Q1118 324 1122 268Q1126 224 1136 38Q1135 3 1117 3Q1100 3 1096 29Z" fill="#000000" />
<path d="M618 278Q629 293 615 304Q601 316 589 301Q534 233 535 145Q536 57 594 -9Q651 -76 738 -91Q825 -105 900 -61Q976 -16 1006 66Q1036 149 1006 232Q976 314 900 359Q824 403 737 388Q719 385 722 367Q725 349 743 352Q817 364 882 327Q946 289 972 219Q997 149 972 79Q946 8 882 -29Q817 -67 744 -55Q670 -42 622 14Q573 71 572 146Q571 220 618 278Z" fill="#000000" />
<path d="M695 149Q695 167 677 168Q659 168 658 150Q658 100 692 65Q727 29 777 28Q826 28 862 62Q897 97 898 147Q898 196 864 232Q829 267 780 268Q761 268 761 250Q761 231 779 231Q813 231 837 206Q861 181 861 147Q861 113 836 89Q811 65 777 65Q743 66 719 90Q695 115 695 149Z" fill="#000000" />
<path d="M663 392Q663 410 644 410Q626 410 626 392V304Q626 277 639 261Q653 245 675 245Q723 245 723 305V318Q723 336 705 336Q686 336 686 318V305Q686 282 675 282Q663 282 663 304Z" fill="#000000" />
<path d="M745 449Q726 449 726 431Q726 412 745 412H774Q842 413 900 377Q916 368 926 383Q929 389 928 396L917 473L906 545Q901 600 846 609Q846 609 845 609L768 619Q708 626 690 591L646 509Q641 501 643 494Q645 488 653 484Q669 475 678 491L722 574Q723 574 723 574Q729 587 764 582L840 573Q867 568 870 541Q870 540 870 540L881 468L887 426Q834 449 774 449Z" fill="#000000" />
<path d="M577 789Q577 823 553 848Q528 872 494 872Q459 872 435 848Q410 823 410 789Q410 754 435 730Q459 705 494 705Q528 706 553 730Q577 754 577 789ZM540 789Q540 769 527 756Q513 742 494 742Q474 742 461 756Q447 769 447 789Q447 835 494 835Q513 835 527 822Q540 808 540 789Z" fill="#000000" />
<path d="M900 722Q900 757 876 781Q852 806 817 806Q783 806 758 781Q734 757 734 722Q734 688 758 663Q783 639 817 639Q852 639 876 663Q900 688 900 722ZM864 722Q864 676 817 676Q798 676 784 689Q770 703 770 722Q770 769 817 769Q836 769 850 755Q864 742 864 722Z" fill="#000000" />
</g></svg>