<svg xmlns="http://www.w3.org/2000/svg" viewBox="0 0 2048 2048">
<g transform="matrix(1 0 0 -1 0 2048)">
<path d="M807 67 825 -23H487L506 93Q517 91 528 91Q548 90 563 104Q579 117 579 138Q579 159 568.0 170.5Q557 182 536 191Q533 192 529 194Q553 219 586 219H685Q760 219 777 168L778 165Q758 156 747.0 145.0Q736 134 736 113Q736 92 751 78Q767 64 787 66Q797 66 807 68Z" fill="#92d3f5" />
<path d="M778 165Q778 165 773.0 178.0Q768 191 749.5 204.5Q731 218 691 219Q687 219 671.5 219.0Q656 219 637.5 219.0Q619 219 606.0 219.0Q593 219 593 219Q565 219 548.0 209.5Q531 200 529 194Q562 181 570.5 168.0Q579 155 579 138Q579 117 563 104Q548 90 528 91Q492 91 455.0 112.0Q418 133 387.0 170.5Q356 208 337.0 258.5Q318 309 318 369Q318 429 333.5 470.5Q349 512 373.0 536.5Q397 561 422.0 572.0Q447 583 466 583H595Q620 583 642.5 570.0Q665 557 677 534L732 545H849Q867 545 892.5 534.5Q918 524 942.0 500.5Q966 477 981.5 438.5Q997 400 997 343Q997 284 978.0 233.0Q959 182 927.5 144.5Q896 107 859.5 86.5Q823 66 787 66Q767 64 751 78Q736 92 736 113Q736 134 746.5 145.0Q757 156 778 165Z" fill="#fcea2b" />
<path d="M605.6190185546875 711.2868041992188Q605.6190185546875 724.68408203125 600.5372924804688 736.4644470214844Q595.45556640625 748.2448120117188 586.5240478515625 757.1763305664062Q577.592529296875 766.1078491210938 565.8121643066406 771.1895751953125Q554.0317993164062 776.2713012695312 540.634521484375 776.2713012695312Q527.2372436523438 776.2713012695312 515.4568786621094 771.1895751953125Q503.676513671875 766.1078491210938 494.7449951171875 757.1763305664062Q485.8134765625 748.2448120117188 480.73175048828125 736.4644470214844Q475.6500244140625 724.68408203125 475.6500244140625 711.2868041992188Q475.6500244140625 697.8895263671875 480.73175048828125 686.1091613769531Q485.8134765625 674.3287963867188 494.7449951171875 665.3972778320312Q503.676513671875 656.4657592773438 515.4568786621094 651.384033203125Q527.2372436523438 646.3023071289062 540.634521484375 646.3023071289062Q554.0317993164062 646.3023071289062 565.8121643066406 651.384033203125Q577.592529296875 656.4657592773438 586.5240478515625 665.3972778320312Q595.45556640625 674.3287963867188 600.5372924804688 686.1091613769531Q605.6190185546875 697.8895263671875 605.6190185546875 711.2868041992188Z" fill="#fcea2b" />
<path d="M848.6190185546875 677.2868041992188Q848.6190185546875 690.68408203125 843.5372924804688 702.4644470214844Q838.45556640625 714.2448120117188 829.5240478515625 723.1763305664062Q820.592529296875 732.1078491210938 808.8121643066406 737.1895751953125Q797.0317993164062 742.2713012695312 783.634521484375 742.2713012695312Q770.2372436523438 742.2713012695312 758.4568786621094 737.1895751953125Q746.676513671875 732.1078491210938 737.7449951171875 723.1763305664062Q728.8134765625 714.2448120117188 723.7317504882812 702.4644470214844Q718.6500244140625 690.68408203125 718.6500244140625 677.2868041992188Q718.6500244140625 663.8895263671875 723.7317504882812 652.1091613769531Q728.8134765625 640.3287963867188 737.7449951171875 631.3972778320312Q746.676513671875 622.4657592773438 758.4568786621094 617.384033203125Q770.2372436523438 612.3023071289062 783.634521484375 612.3023071289062Q797.0317993164062 612.3023071289062 808.8121643066406 617.384033203125Q820.592529296875 622.4657592773438 829.5240478515625 631.3972778320312Q838.45556640625 640.3287963867188 843.5372924804688 652.1091613769531Q848.6190185546875 663.8895263671875 848.6190185546875 677.2868041992188Z" fill="#fcea2b" />
<path d="M825 71Q821 89 803 85Q786 80 790 63L807 -15Q811 -33 829 -29Q847 -25 843 -7Z" fill="#000000" />
<path d="M522 82Q526 100 508 103Q499 105 493 101Q488 97 486 88L469 -8Q465 -26 483 -29Q492 -31 498 -27Q503 -23 505 -14Z" fill="#000000" />
<path d="M825 71Q821 89 803 85Q786 80 790 63L807 -15Q811 -33 829 -29Q847 -25 843 -7Z" fill="#000000" />
<path d="M522 82Q526 100 508 103Q499 105 493 101Q488 97 486 88L469 -8Q465 -26 483 -29Q492 -31 498 -27Q503 -23 505 -14Z" fill="#000000" />
<path d="M796 168Q796 186 777 186Q759 186 759 168Q759 149 777 149Q796 149 796 168Z" fill="#000000" />
<path d="M586 237Q568 237 568 219Q568 200 586 200H685Q747 200 760 162Q766 144 783 150Q801 156 795 174Q773 237 685 237Z" fill="#000000" />
<path d="M457 387Q457 405 439 405Q421 405 421 387V356Q415 231 528 175Q528 174 528 174Q561 160 561 138Q560 126 551 117Q542 109 529 109Q528 109 528 109Q461 109 401 182Q336 261 336 369Q336 469 387 524Q424 565 466 565H595Q668 564 671 491V465Q671 447 689 447Q707 447 707 465V492Q707 492 707 492Q706 538 673 569Q640 601 595 601H466Q408 601 360 549Q299 484 299 369Q299 248 373 159Q443 73 527 73Q555 71 576 90Q597 109 597 138Q597 138 597 138Q597 184 543 208Q453 253 457 355Q457 355 457 356Z" fill="#000000" />
<path d="M894 343Q894 361 876 361Q857 361 857 343V330Q857 330 857 329Q862 228 771 182Q717 158 717 113Q718 84 739 64Q760 45 788 47Q872 48 942 133Q1015 223 1015 343Q1015 451 955 514Q906 564 849 564H738Q720 564 720 545Q720 527 738 527H849Q891 527 929 488Q979 436 979 343Q979 236 913 156Q854 84 787 84Q786 84 786 84Q773 83 764 92Q754 100 754 113Q754 135 786 149Q787 149 787 149Q900 205 894 331Z" fill="#000000" />
<path d="M624 711Q624 746 600 770Q576 795 541 795Q507 795 482 770Q458 746 458 711Q458 677 482 653Q507 628 541 628Q576 628 600 653Q624 677 624 711ZM588 711Q588 665 541 665Q522 665 508 678Q494 692 494 711Q494 731 508 744Q522 758 541 758Q588 758 588 711Z" fill="#000000" />
<path d="M730 336Q730 371 705 395Q681 420 646 420Q612 420 587 395Q563 371 563 336Q563 302 587 278Q612 253 646 253Q681 253 705 278Q730 302 730 336ZM693 336Q693 317 679 303Q666 290 646 290Q600 290 600 336Q600 356 613 369Q627 383 646 383Q666 383 679 369Q693 356 693 336Z" fill="#000000" />
<path d="M867.34912109375 678.1815795898438Q867.34912109375 712.0549926757812 842.4421997070312 736.9619140625Q818.5315551757812 760.87255859375 783.661865234375 760.87255859375Q748.7921752929688 760.87255859375 724.8815307617188 736.9619140625Q699.974609375 712.0549926757812 699.974609375 678.1815795898438Q699.974609375 643.3118896484375 724.8815307617188 618.4049682617188Q748.7921752929688 594.4943237304688 783.661865234375 594.4943237304688Q818.5315551757812 594.4943237304688 842.4421997070312 618.4049682617188Q867.34912109375 643.3118896484375 867.34912109375 678.1815795898438ZM830.4868774414062 678.1815795898438Q830.4868774414062 631.3565673828125 783.661865234375 631.3565673828125Q764.7326049804688 631.3565673828125 750.7847290039062 644.3081665039062Q736.8368530273438 658.2560424804688 736.8368530273438 678.1815795898438Q736.8368530273438 724.0103149414062 783.661865234375 724.0103149414062Q830.4868774414062 724.0103149414062 830.4868774414062 678.1815795898438Z" fill="#000000" />
</g></svg>