<svg xmlns="http://www.w3.org/2000/svg" viewBox="0 0 2048 2048">
<g transform="matrix(1 0 0 -1 0 2048)">
<path d="M500 221 409 312 327 188 191 112Q176 105 169.5 90.5Q163 76 167 61Q174 47 188.5 41.5Q203 36 217 41L342 94Q375 109 403 132Z" fill="#fcea2b" />
<path d="M702 624 625 444Q622 405 641 370L725 237Q742 205 744 169L747 -75Q747 -76 747.0 -76.0Q747 -76 747 -76Q748 -90 739.0 -100.5Q730 -111 716 -112Q700 -112 691.0 -101.0Q682 -90 679 -75L656 114Q650 150 624 177L464 329Q438 354 436 389Q437 426 454 459L548 628Q566 664 586.0 680.0Q606 696 624.5 697.5Q643 699 658 694Q679 685 691.0 666.0Q703 647 702 624Z" fill="#fcea2b" />
<path d="M961 370 964 489Q979 479 997 477Q1016 477 1027.5 491.0Q1039 505 1039 541Q1039 609 1018.5 653.5Q998 698 959 698Q934 699 913.0 686.0Q892 673 883 650Q876 637 858.0 603.5Q840 570 821 536L775 430Q766 379 776.5 349.5Q787 320 807 301L944 171Q969 144 975 108L999 -75Q1002 -90 1011.0 -101.0Q1020 -112 1036 -112Q1036 -112 1036.5 -112.0Q1037 -112 1037 -112Q1051 -111 1059.5 -100.0Q1068 -89 1067 -75L1063 163Q1062 199 1045 231Z" fill="#fcea2b" />
<path d="M806.5459594726562 776.9877319335938Q806.4882202148438 794.883056640625 797.7304382324219 809.5714721679688Q788.97265625 824.2598876953125 774.2227783203125 833.1088562011719Q759.472900390625 841.9578247070312 741.5775756835938 841.9000854492188Q723.6822509765625 841.8423461914062 708.9938354492188 833.0845642089844Q694.305419921875 824.3267822265625 685.4564514160156 809.576904296875Q676.6074829101562 794.8270263671875 676.6652221679688 776.9317016601562Q676.7229614257812 759.036376953125 685.4807434082031 744.3479614257812Q694.238525390625 729.6595458984375 708.9884033203125 720.8105773925781Q723.73828125 711.9616088867188 741.6336059570312 712.0193481445312Q759.5289306640625 712.0770874023438 774.3616333007812 720.8330078125Q789.1943359375 729.5889282226562 797.8990173339844 744.3406677246094Q806.6036987304688 759.0924072265625 806.5459594726562 776.9877319335938Z" fill="#fcea2b" />
<path d="M1132.5459594726562 776.9877319335938Q1132.4882202148438 794.883056640625 1123.7304382324219 809.5714721679688Q1114.97265625 824.2598876953125 1100.2227783203125 833.1088562011719Q1085.472900390625 841.9578247070312 1067.5775756835938 841.9000854492188Q1049.6822509765625 841.8423461914062 1034.9938354492188 833.0845642089844Q1020.305419921875 824.3267822265625 1011.4564514160156 809.576904296875Q1002.6074829101562 794.8270263671875 1002.6652221679688 776.9317016601562Q1002.7229614257812 759.036376953125 1011.4807434082031 744.3479614257812Q1020.238525390625 729.6595458984375 1034.9884033203125 720.8105773925781Q1049.73828125 711.9616088867188 1067.6336059570312 712.0193481445312Q1085.5289306640625 712.0770874023438 1100.3616333007812 720.8330078125Q1115.1943359375 729.5889282226562 1123.8990173339844 744.3406677246094Q1132.6036987304688 759.0924072265625 1132.5459594726562 776.9877319335938Z" fill="#fcea2b" />
<path d="M614 29 598 121 500 63Q486 56 480.0 41.5Q474 27 479 12Q486 -3 502.0 -8.5Q518 -14 533 -7Z" fill="#f1b31c" />
<path d="M725 243Q751 181 744 114L834 205L746 296Z" fill="#f1b31c" />
<path d="M662 469 663 435 684 379 715 318 742 345 737 379V443H692Z" fill="#ffffff" />
<path d="M498 166 524 123 587 154 534 199Z" fill="#ffffff" />
<path d="M549 241Q562 254 550 267Q543 274 537 274Q531 275 524 268L391 146Q365 124 335 110L210 59Q193 53 184 68Q180 87 198 96Q199 96 200 96L336 172Q340 175 343 178L420 294Q425 302 424 308Q422 315 415 320Q399 330 389 315L315 202L182 129Q135 106 150 56Q150 54 151 52Q175 7 223 24Q223 24 224 25L349 77Q350 77 350 77Q385 93 415 118Q415 118 415 119Z" fill="#000000" />
<path d="M684 625Q683 606 701 606Q719 605 720 623Q723 686 665 710Q665 711 664 711Q584 741 532 636L438 468Q419 431 418 390Q418 389 418 388Q420 346 451 316L611 164Q632 142 637 112L661 -78Q661 -78 661 -79Q671 -130 716 -130Q717 -130 717 -130Q739 -129 753 -113Q767 -96 766 -75Q766 -75 766 -74L762 170Q762 170 762 170Q760 210 742 245Q741 246 741 247L657 380Q641 409 644 443Q645 461 627 463Q618 464 613 459Q608 455 607 446Q603 401 626 361Q626 361 626 361L709 228Q723 200 725 169L729 -76Q729 -76 729 -77Q729 -77 729 -77Q729 -84 725 -89Q721 -93 715 -94Q701 -93 698 -72L674 117Q674 117 674 117Q667 159 638 189Q637 190 637 190L477 342Q456 362 454 390Q456 422 470 450L564 619Q564 619 564 619Q602 695 651 677Q685 662 684 625Z" fill="#000000" />
<path d="M826 457Q844 454 847 472Q851 490 833 493L741 511Q740 511 740 511Q710 516 693 541L646 630Q637 646 621 638Q605 629 613 613L661 523Q662 522 662 521Q688 482 734 475Z" fill="#000000" />
<path d="M967 617Q972 634 955 640Q946 642 940 639Q935 636 932 628L894 508Q873 436 952 407Q953 407 953 407L996 392L1035 379Q1051 374 1074 333Q1083 317 1099 326Q1115 335 1106 351Q1076 404 1047 414L1007 427L965 441Q918 459 929 497Z" fill="#000000" />
<path d="M805 545Q800 537 802 531Q804 524 812 520Q828 511 837 527L847 545L899 641Q900 642 901 643Q916 682 958 680Q958 680 959 680Q1021 680 1021 541Q1021 496 999 496Q986 497 975 504Q967 509 961 508Q955 507 949 499Q939 484 954 474Q973 461 997 459Q997 459 998 459Q1058 459 1058 541Q1058 616 1035 662Q1009 716 959 717Q892 720 867 657L815 563Z" fill="#000000" />
<path d="M977 380Q968 396 952 386Q936 377 946 361L1029 222Q1043 194 1045 163L1049 -76Q1049 -76 1049 -77Q1049 -83 1045 -88Q1042 -93 1035 -94Q1021 -93 1017 -72L994 111Q994 111 994 111Q987 153 958 183Q957 184 957 184L819 314Q780 353 793 427Q796 445 778 448Q760 451 757 433Q740 340 794 288L931 158Q952 135 957 105L981 -78Q981 -78 981 -79Q991 -130 1036 -130Q1037 -130 1037 -130Q1038 -130 1039 -130Q1060 -128 1074 -112Q1087 -95 1085 -74L1082 163Q1082 164 1082 164Q1080 204 1061 239Q1061 240 1061 240Z" fill="#000000" />
<path d="M883 228Q896 241 883 254Q869 267 857 254L731 127Q719 114 732 101Q745 88 758 101Z" fill="#000000" />
<path d="M763 289Q766 297 764 303Q761 309 753 313Q744 316 738 313Q732 311 729 302L708 250Q705 241 707 235Q710 229 719 226Q727 223 733 225Q739 228 742 236Z" fill="#000000" />
<path d="M621 12Q638 19 631 36Q623 53 606 45L526 10Q525 10 525 10Q506 1 496 19Q491 38 508 47Q509 48 509 48L607 106Q623 115 614 131Q605 146 589 137L490 79Q446 55 461 7Q462 5 462 4Q488 -48 541 -24Z" fill="#000000" />
<path d="M658 777Q658 758 676 758Q695 758 695 777Q695 823 741 823Q788 823 788 777Q788 730 741 730Q723 730 723 712Q723 693 741 693Q776 693 800 718Q824 742 824 777Q824 811 800 836Q776 860 741 860Q707 860 682 836Q658 811 658 777Z" fill="#000000" />
<path d="M984 777Q984 758 1002 758Q1021 758 1021 777Q1021 796 1034 810Q1048 823 1067 823Q1114 823 1114 777Q1114 730 1067 730Q1049 730 1049 712Q1049 693 1067 693Q1102 693 1126 718Q1150 742 1150 777Q1150 811 1126 836Q1102 860 1067 860Q1033 860 1008 836Q984 811 984 777Z" fill="#000000" />
</g></svg>