<svg xmlns="http://www.w3.org/2000/svg" viewBox="0 0 2048 2048">
<g transform="matrix(1 0 0 -1 0 2048)">
<path d="M723.5811767578125 656.2058715820312Q723.5811767578125 669.35888671875 718.5921020507812 680.9244689941406Q713.60302734375 692.4900512695312 704.8343505859375 701.2587280273438Q696.065673828125 710.0274047851562 684.5000915527344 715.0164794921875Q672.9345092773438 720.0055541992188 659.781494140625 720.0055541992188Q646.6284790039062 720.0055541992188 635.0628967285156 715.0164794921875Q623.497314453125 710.0274047851562 614.7286376953125 701.2587280273438Q605.9599609375 692.4900512695312 600.9708862304688 680.9244689941406Q595.9818115234375 669.35888671875 595.9818115234375 656.2058715820312Q595.9818115234375 643.0528564453125 600.9708862304688 631.4872741699219Q605.9599609375 619.9216918945312 614.7286376953125 611.1530151367188Q623.497314453125 602.3843383789062 635.0628967285156 597.395263671875Q646.6284790039062 592.4061889648438 659.781494140625 592.4061889648438Q672.9345092773438 592.4061889648438 684.5000915527344 597.395263671875Q696.065673828125 602.3843383789062 704.8343505859375 611.1530151367188Q713.60302734375 619.9216918945312 718.5921020507812 631.4872741699219Q723.5811767578125 643.0528564453125 723.5811767578125 656.2058715820312Z" fill="#ffffff" />
<path d="M849 653Q849 651 846.0 626.0Q843 601 829.5 554.5Q816 508 785.0 441.0Q754 374 697 286Q696 285 685.5 272.5Q675 260 659 260Q640 260 625 283Q569 370 537.5 438.0Q506 506 492.0 553.0Q478 600 475.0 625.5Q472 651 472 653Q472 708 497.5 753.5Q523 799 565.5 826.0Q608 853 660 853Q712 853 755.0 826.0Q798 799 823.5 753.5Q849 708 849 653ZM660 572Q695 572 719.5 596.5Q744 621 744 656Q744 691 719.5 715.5Q695 740 660 740Q626 740 601.0 715.5Q576 691 576 656Q576 621 601.0 596.5Q626 572 660 572Z" fill="#d22f27" />
<path d="M849 653Q849 651 846.0 626.0Q843 601 829.5 554.5Q816 508 785.0 441.0Q754 374 697 286Q696 285 685.5 272.5Q675 260 659 260Q646 260 635 271Q638 275 639.5 277.5Q641 280 642 281Q699 368 730.0 435.5Q761 503 774.5 549.5Q788 596 790.5 620.5Q793 645 793 647Q793 701 769.0 745.0Q745 789 704.5 816.5Q664 844 615 847Q638 853 660 853Q712 853 755.0 826.0Q798 799 823.5 753.5Q849 708 849 653Z" fill="#ea5a47" />
<path d="M208 -67H620V-25Q620 19 595.5 47.0Q571 75 526 75Q500 53 470.5 41.5Q441 30 414 30Q388 30 358.0 41.5Q328 53 302 75Q258 75 233.0 47.0Q208 19 208 -25Z" fill="#92d3f5" />
<path d="M699 -67H1111V-25Q1111 19 1086.5 47.0Q1062 75 1017 75Q991 53 961.5 41.5Q932 30 905 30Q879 30 849.0 41.5Q819 53 793 75Q749 75 724.0 47.0Q699 19 699 -25Z" fill="#92d3f5" />
<path d="M506.234619140625 212.7017822265625Q506.234619140625 231.6162109375 499.0601806640625 248.24786376953125Q491.8857421875 264.8795166015625 479.276123046875 277.4891357421875Q466.66650390625 290.0987548828125 450.03485107421875 297.273193359375Q433.4031982421875 304.4476318359375 414.48876953125 304.4476318359375Q395.5743408203125 304.4476318359375 378.94268798828125 297.273193359375Q362.31103515625 290.0987548828125 349.701416015625 277.4891357421875Q337.091796875 264.8795166015625 329.9173583984375 248.24786376953125Q322.742919921875 231.6162109375 322.742919921875 212.7017822265625Q322.742919921875 193.787353515625 329.9173583984375 177.15570068359375Q337.091796875 160.5240478515625 349.701416015625 147.9144287109375Q362.31103515625 135.3048095703125 378.94268798828125 128.13037109375Q395.5743408203125 120.9559326171875 414.48876953125 120.9559326171875Q433.4031982421875 120.9559326171875 450.03485107421875 128.13037109375Q466.66650390625 135.3048095703125 479.276123046875 147.9144287109375Q491.8857421875 160.5240478515625 499.0601806640625 177.15570068359375Q506.234619140625 193.787353515625 506.234619140625 212.7017822265625Z" fill="#fcea2b" />
<path d="M997.234619140625 212.7017822265625Q997.234619140625 231.6162109375 990.0601806640625 248.24786376953125Q982.8857421875 264.8795166015625 970.276123046875 277.4891357421875Q957.66650390625 290.0987548828125 941.0348510742188 297.273193359375Q924.4031982421875 304.4476318359375 905.48876953125 304.4476318359375Q886.5743408203125 304.4476318359375 869.9426879882812 297.273193359375Q853.31103515625 290.0987548828125 840.701416015625 277.4891357421875Q828.091796875 264.8795166015625 820.9173583984375 248.24786376953125Q813.742919921875 231.6162109375 813.742919921875 212.7017822265625Q813.742919921875 193.787353515625 820.9173583984375 177.15570068359375Q828.091796875 160.5240478515625 840.701416015625 147.9144287109375Q853.31103515625 135.3048095703125 869.9426879882812 128.13037109375Q886.5743408203125 120.9559326171875 905.48876953125 120.9559326171875Q924.4031982421875 120.9559326171875 941.0348510742188 128.13037109375Q957.66650390625 135.3048095703125 970.276123046875 147.9144287109375Q982.8857421875 160.5240478515625 990.0601806640625 177.15570068359375Q997.234619140625 193.787353515625 997.234619140625 212.7017822265625Z" fill="#fcea2b" />
<path d="M190 -61Q190 -79 208 -79Q226 -79 226 -61V-25Q226 53 296 56Q351 12 414 12Q477 12 533 56Q602 53 602 -25V-61Q602 -79 620 -79Q639 -79 639 -61V-25Q639 93 526 93Q519 93 514 89Q467 49 414 49Q361 49 314 89Q309 93 302 93Q250 93 219 59Q190 27 190 -25Z" fill="#000000" />
<path d="M681 -61Q681 -79 699 -79Q718 -79 718 -61V-25Q718 53 787 56Q842 12 906 12Q969 12 1024 56Q1093 53 1093 -25V-61Q1093 -79 1112 -79Q1130 -79 1130 -61V-25Q1130 27 1100 59Q1069 93 1018 93Q1011 93 1006 89Q958 49 906 49Q853 49 805 89Q800 93 794 93Q742 93 711 59Q681 27 681 -25Z" fill="#000000" />
<path d="M659 242Q692 242 713 277Q869 517 867 653Q867 743 807 807Q746 871 660 871Q575 871 514 807Q454 743 454 653Q454 513 610 273Q630 242 659 242ZM659 278Q650 278 641 293Q548 437 510 558Q491 620 490 653Q490 728 541 782Q590 835 660 835Q730 835 780 782Q830 728 830 653Q831 621 812 560Q775 440 682 296H681Q671 278 659 278Z" fill="#000000" />
<path d="M660 554Q703 554 733 584Q763 614 763 656Q763 698 733 728Q703 758 660 758Q618 758 588 728Q558 698 558 656Q558 614 588 584Q618 554 660 554ZM660 591Q595 591 595 656Q595 689 611 705Q628 722 660 722Q687 722 707 702Q726 683 726 656Q726 591 660 591Z" fill="#000000" />
<path d="M524 213Q524 259 492 291Q459 323 414 323Q368 323 336 291Q304 259 304 213Q304 167 336 135Q368 103 414 103Q459 103 492 135Q524 167 524 213ZM487 213Q487 183 466 161Q444 140 414 140Q383 140 362 161Q341 183 341 213Q341 286 414 286Q487 286 487 213Z" fill="#000000" />
<path d="M1016 213Q1016 259 984 291Q951 323 906 323Q860 323 828 291Q796 259 796 213Q796 167 828 135Q860 103 906 103Q951 103 984 135Q1016 167 1016 213ZM979 213Q979 183 958 161Q936 140 906 140Q875 140 854 161Q832 183 832 213Q832 286 906 286Q936 286 958 265Q979 243 979 213Z" fill="#000000" />
</g></svg>