<svg xmlns="http://www.w3.org/2000/svg" viewBox="0 0 2048 2048">
<g transform="matrix(1 0 0 -1 0 2048)">
<path d="M286 607V49H1038V607Z" fill="#ffffff" />
<path d="M1176 698V619H1118V49H1039V619H283V49H205V619H140V698Z" fill="#a57939" />
<path d="M1074 235Q1098 235 1112.5 225.0Q1127 215 1127 196Q1127 173 1113.5 164.0Q1100 155 1077 154L852 145Q819 145 803.5 162.5Q788 180 771 219L729 300Q710 296 680.5 286.0Q651 276 618.0 267.5Q585 259 556 259L596 240Q633 222 645.5 199.5Q658 177 658 145Q658 104 626.5 77.5Q595 51 551 49H344V90Q344 138 403 138H461L551 151V168L436 203Q406 215 388.5 242.0Q371 269 373 302Q373 323 385.5 345.5Q398 368 425.0 386.0Q452 404 496 409L666 427L692 428Q740 432 767.0 415.5Q794 399 811 359L869 235Z" fill="#fcea2b" />
<path d="M965.5459594726562 439.98773193359375Q965.4882202148438 457.883056640625 956.7304382324219 472.57147216796875Q947.97265625 487.2598876953125 933.2227783203125 496.1088562011719Q918.472900390625 504.95782470703125 900.5775756835938 504.90008544921875Q882.6822509765625 504.84234619140625 867.9938354492188 496.0845642089844Q853.305419921875 487.3267822265625 844.4564514160156 472.576904296875Q835.6074829101562 457.8270263671875 835.6652221679688 439.93170166015625Q835.7229614257812 422.036376953125 844.4807434082031 407.34796142578125Q853.238525390625 392.6595458984375 867.9884033203125 383.8105773925781Q882.73828125 374.96160888671875 900.6336059570312 375.01934814453125Q918.5289306640625 375.07708740234375 933.3616333007812 383.8330078125Q948.1943359375 392.58892822265625 956.8990173339844 407.3406677246094Q965.6036987304688 422.0924072265625 965.5459594726562 439.98773193359375Z" fill="#fcea2b" />
<path d="M373 302 393 322Q398 295 419.0 267.5Q440 240 474.0 218.0Q508 196 551 185V168L436 203Q406 215 388.5 242.0Q371 269 373 302Z" fill="#f1b31c" />
<path d="M556 259V267Q556 274 574.5 284.5Q593 295 619.0 307.0Q645 319 669.0 332.5Q693 346 704 361L732 301Q714 297 683.0 287.0Q652 277 618.5 268.0Q585 259 556 259Z" fill="#f1b31c" />
<path d="M569 168Q569 187 551 187Q532 187 532 168V167L460 157H403Q326 157 326 90V49Q326 30 344 30H551Q551 30 552 30Q603 33 638 63Q676 96 676 145Q676 163 658 163Q639 163 639 145Q639 72 550 67H363V90Q363 120 403 120H461Q462 120 463 120L553 132Q569 135 569 151Z" fill="#000000" />
<path d="M724 362Q717 379 700 371Q683 363 691 347L754 212Q791 127 852 127Q852 127 853 127L1078 135Q1145 138 1145 196Q1145 253 1074 253H881L828 367Q790 454 691 446L665 445Q664 445 664 445L494 427Q427 419 388 380Q355 346 355 302Q349 217 429 186Q446 180 453 197Q456 205 454 211Q451 217 442 221Q387 242 392 300Q392 301 392 302Q392 378 498 390L667 408L693 410Q693 410 694 410Q767 416 794 352Q794 352 794 352L852 227Q857 216 869 216H1074Q1093 216 1102 210Q1109 205 1109 196Q1109 173 1077 172L852 163Q815 164 788 227Q788 227 787 227Z" fill="#000000" />
<path d="M223 619Q223 638 205 638Q186 638 186 619V49Q186 30 205 30H283Q301 30 301 49V601H1021V299Q1021 281 1039 281Q1058 281 1058 299V619Q1058 638 1039 638H283Q265 638 265 619V67H223Z" fill="#000000" />
<path d="M1158 619Q1158 601 1176 601Q1195 601 1195 619V698Q1195 716 1176 716H140Q122 716 122 698V619Q122 601 140 601Q159 601 159 619V679H1158Z" fill="#000000" />
<path d="M1099 297Q1099 278 1118 278Q1136 278 1136 297V619Q1136 638 1118 638Q1099 638 1099 619Z" fill="#000000" />
<path d="M1058 152Q1058 170 1039 170Q1021 170 1021 152V49Q1021 30 1039 30H1118Q1136 30 1136 49V106Q1136 125 1118 125Q1099 125 1099 106V67H1058Z" fill="#000000" />
<path d="M514 277Q496 277 496 259Q496 240 514 240Q581 240 703 274Q728 282 737 283Q754 288 750 305Q746 323 728 319Q719 317 693 310Q576 277 514 277Z" fill="#000000" />
<path d="M818 440Q818 421 836 421Q854 421 854 440Q854 486 901 486Q920 486 934 473Q948 459 948 440Q948 393 901 393Q883 393 883 375Q883 356 901 356Q935 356 960 381Q984 405 984 440Q984 474 960 499Q935 523 901 523Q866 523 842 499Q818 474 818 440Z" fill="#000000" />
</g></svg>