<svg xmlns="http://www.w3.org/2000/svg" viewBox="0 0 2048 2048">
<g transform="matrix(1 0 0 -1 0 2048)">
<path d="M495 839Q495 839 511.0 847.5Q527 856 550.5 866.5Q574 877 597 883Q620 888 645.5 883.5Q671 879 692.5 871.5Q714 864 726 859Q730 858 747.0 851.0Q764 844 786.0 835.5Q808 827 829.5 819.5Q851 812 864 810Q890 807 910.5 810.5Q931 814 931 814L933 591Q933 591 918.5 590.5Q904 590 875 590Q861 590 832.5 601.5Q804 613 768.5 631.0Q733 649 699.5 668.0Q666 687 642 701Q618 715 593.5 709.5Q569 704 548.0 690.5Q527 677 514.0 664.5Q501 652 501 652Z" fill="#ffffff" />
<path d="M374 272H937L659 420Z" fill="#ffffff" />
<path d="M343 190V-33H970V190Z" fill="#3f3f3f" />
<path d="M501 683 499 635V557Q554 597 621 598Q649 598 677.0 587.0Q705 576 737.0 562.0Q769 548 807.0 537.0Q845 526 893 526Q924 526 936.5 535.0Q949 544 949 554V583Q949 609 931 609Q919 609 911.0 605.5Q903 602 891 602Q850 602 815.5 619.5Q781 637 750.0 659.5Q719 682 689.0 699.5Q659 717 628 717Q560 718 501 683Z" fill="#d0cfce" />
<path d="M189 -98V-162H1124V-98Z" fill="#d0cfce" />
<path d="M233 -34V-98H1081V-34Z" fill="#d0cfce" />
<path d="M846 291H467L657 384Z" fill="#9b9b9a" />
<path d="M216 254V190H1097V254Z" fill="#d0cfce" />
<path d="M319 190V-33H418V190Z" fill="#ffffff" />
<path d="M607 190V-33H707V190Z" fill="#ffffff" />
<path d="M895 190V-33H995V190Z" fill="#ffffff" />
<path d="M491 871Q475 861 485 845Q490 838 497 836Q503 835 511 840Q564 875 628 876Q663 876 734 845Q829 804 891 804Q901 804 916 809Q925 811 931 811Q931 811 931 803V554Q931 544 893 544Q825 544 727 586Q657 616 621 616Q565 615 518 590V635Q518 653 499 653Q481 653 481 635V557Q481 551 484 546Q495 531 510 542Q560 578 621 579Q649 579 713 552Q817 508 893 508Q927 508 946 519Q968 532 968 554V803Q968 848 931 848Q920 848 905 844Q896 841 891 841Q837 841 749 879Q671 913 628 913Q628 913 627 913Q553 911 491 871Z" fill="#000000" />
<path d="M458 892Q458 910 439 910Q421 910 421 892V329Q421 311 439 311Q458 311 458 329Z" fill="#000000" />
<path d="M1161 -181Q1179 -181 1179 -162Q1179 -144 1161 -144H152Q134 -144 134 -162Q134 -181 152 -181Z" fill="#000000" />
<path d="M207 -80Q189 -80 189 -98Q189 -116 207 -116H1106Q1124 -116 1124 -98Q1124 -80 1106 -80Z" fill="#000000" />
<path d="M198 190Q198 171 216 171H1097Q1116 171 1116 190V254Q1116 272 1097 272H216Q198 272 198 254ZM234 236H1079V208H234Z" fill="#000000" />
<path d="M1081 -116Q1099 -116 1099 -98Q1099 -80 1081 -80H233Q214 -80 214 -98Q214 -116 233 -116Z" fill="#000000" />
<path d="M251 -15Q233 -15 233 -33Q233 -52 251 -52H1062Q1081 -52 1081 -33Q1081 -15 1062 -15Z" fill="#000000" />
<path d="M300 -33Q300 -52 319 -52H418Q437 -52 437 -33V190Q437 208 418 208H319Q300 208 300 190ZM337 171H400V-15H337Z" fill="#000000" />
<path d="M588 -33Q588 -52 607 -52H706Q725 -52 725 -33V190Q725 208 706 208H607Q588 208 588 190ZM625 171H688V-15H625Z" fill="#000000" />
<path d="M876 -33Q876 -52 895 -52H994Q1013 -52 1013 -33V190Q1013 208 994 208H895Q876 208 876 190ZM913 171H976V-15H913Z" fill="#000000" />
<path d="M1020 270 665 456Q657 460 648 456L294 270Q277 262 286 245Q291 236 302 236H1011Q1030 236 1030 254Q1030 265 1020 270ZM937 272H377L657 419Z" fill="#000000" />
</g></svg>