<svg xmlns="http://www.w3.org/2000/svg" viewBox="0 0 2048 2048">
<g transform="matrix(1 0 0 -1 0 2048)">
<path d="M515.2520751953125 773.168701171875Q515.1797485351562 796.1926879882812 503.9136657714844 815.0916442871094Q492.6475830078125 833.9906005859375 473.6714782714844 845.3772277832031Q454.69537353515625 856.7638549804688 431.67138671875 856.6915283203125Q408.64739990234375 856.6192016601562 389.7484436035156 845.3531188964844Q370.8494873046875 834.0870361328125 359.4628601074219 815.1109313964844Q348.07623291015625 796.1348266601562 348.1485595703125 773.11083984375Q348.22088623046875 750.0868530273438 359.4869689941406 731.1878967285156Q370.7530517578125 712.2889404296875 389.7291564941406 700.9023132324219Q408.70526123046875 689.5156860351562 431.729248046875 689.5880126953125Q454.75323486328125 689.6603393554688 473.83782958984375 700.9240112304688Q492.92242431640625 712.1876831054688 504.1234130859375 731.1661987304688Q515.3244018554688 750.1447143554688 515.2520751953125 773.168701171875Z" fill="#9b9b9a" />
<path d="M693.8055419921875 781.4493408203125Q693.7091064453125 811.36572265625 679.0684204101562 835.9210205078125Q664.427734375 860.476318359375 639.769775390625 875.2695922851562Q615.11181640625 890.0628662109375 585.1954345703125 889.9664306640625Q555.279052734375 889.8699951171875 530.7237548828125 875.2293090820312Q506.16845703125 860.588623046875 491.37518310546875 835.9306640625Q476.5819091796875 811.272705078125 476.6783447265625 781.3563232421875Q476.7747802734375 751.43994140625 491.41546630859375 726.8846435546875Q506.05615234375 702.329345703125 530.714111328125 687.5360717773438Q555.3720703125 672.7427978515625 585.2884521484375 672.8392333984375Q615.204833984375 672.9356689453125 640.0013427734375 687.5732421875Q664.7978515625 702.2108154296875 679.3499145507812 726.8718872070312Q693.9019775390625 751.532958984375 693.8055419921875 781.4493408203125Z" fill="#3f3f3f" />
<path d="M737.1755981445312 390.40753173828125Q737.114501953125 409.21502685546875 727.9099731445312 424.6519470214844Q718.7054443359375 440.0888671875 703.2035217285156 449.3885498046875Q687.7015991210938 458.688232421875 668.8941040039062 458.62713623046875Q650.0866088867188 458.5660400390625 634.6496887207031 449.36151123046875Q619.2127685546875 440.156982421875 609.9130859375 424.6550598144531Q600.6134033203125 409.15313720703125 600.6744995117188 390.34564208984375Q600.735595703125 371.53814697265625 609.9401245117188 356.1012268066406Q619.1446533203125 340.664306640625 634.6465759277344 331.3646240234375Q650.1484985351562 322.06494140625 668.9559936523438 322.12603759765625Q687.7634887695312 322.1871337890625 703.35205078125 331.38970947265625Q718.9406127929688 340.59228515625 728.0886535644531 356.0961608886719Q737.2366943359375 371.60003662109375 737.1755981445312 390.40753173828125Z" fill="#9b9b9a" />
<path d="M1028.0005493164062 641.1627807617188Q1027.9172973632812 666.7415771484375 1015.3987121582031 687.7362060546875Q1002.880126953125 708.7308349609375 981.7969360351562 721.3785705566406Q960.7137451171875 734.0263061523438 935.1349487304688 733.9430541992188Q909.55615234375 733.8598022460938 888.5615234375 721.3412170410156Q867.56689453125 708.8226318359375 854.9191589355469 687.7394409179688Q842.2714233398438 666.65625 842.3546752929688 641.0774536132812Q842.4379272460938 615.4986572265625 854.9565124511719 594.5040283203125Q867.47509765625 573.5093994140625 888.5582885742188 560.8616638183594Q909.6414794921875 548.2139282226562 935.2202758789062 548.2971801757812Q960.799072265625 548.3804321289062 981.9999389648438 560.8963623046875Q1003.2008056640625 573.4122924804688 1015.6423034667969 594.4981384277344Q1028.0838012695312 615.583984375 1028.0005493164062 641.1627807617188Z" fill="#9b9b9a" />
<path d="M816.00732421875 843.6773681640625Q815.9334106445312 865.8610229492188 805.0750427246094 884.0681457519531Q794.2166748046875 902.2752685546875 775.9310607910156 913.2428283691406Q757.6454467773438 924.2103881835938 735.4617919921875 924.136474609375Q713.2781372070312 924.0625610351562 695.0710144042969 913.2041931152344Q676.8638916015625 902.3458251953125 665.8963317871094 884.0602111816406Q654.9287719726562 865.7745971679688 655.002685546875 843.5909423828125Q655.0765991210938 821.4072875976562 665.9349670410156 803.2001647949219Q676.7933349609375 784.9930419921875 695.0789489746094 774.0254821777344Q713.3645629882812 763.0579223632812 735.5482177734375 763.1318359375Q757.7318725585938 763.2057495117188 776.1178588867188 774.0618286132812Q794.5038452148438 784.9179077148438 805.2925415039062 803.205810546875Q816.0812377929688 821.4937133789062 816.00732421875 843.6773681640625Z" fill="#9b9b9a" />
<path d="M887 642Q887 681 867.5 713.5Q848 746 815.5 765.5Q783 785 744 785Q704 785 671.5 765.5Q639 746 619.5 713.5Q600 681 600 642Q600 602 619.5 569.5Q639 537 671.5 517.5Q704 498 744 498Q783 498 815.5 517.5Q848 537 867.5 569.5Q887 602 887 642Z" fill="#3f3f3f" />
<path d="M146 -134H1152L1031 139L878 246L784 364L687 337L572 364L393 231Z" fill="#9b9b9a" />
<path d="M146 -134H501L466 105L496 220L465 285L393 231Z" fill="#d0cfce" />
<path d="M1152 -134 1031 139 878 246 814 135 871 89 800 -134Z" fill="#3f3f3f" />
<path d="M760.4820556640625 520.3582763671875Q761.451904296875 548.586669921875 747.334716796875 572.9196166992188Q733.217529296875 597.2525634765625 708.881103515625 610.876953125Q685.5179443359375 625.474853515625 657.2896728515625 625.4713134765625Q629.0614013671875 625.4677734375 604.728515625 610.8638916015625Q581.368896484375 597.2335205078125 567.2578125 572.8970336914062Q553.146728515625 548.560546875 554.1236572265625 520.3323974609375Q553.15380859375 492.10400390625 567.27099609375 467.77105712890625Q581.38818359375 443.4381103515625 604.751220703125 429.8135986328125Q629.0877685546875 415.2158203125 657.3160400390625 415.2193603515625Q685.5443115234375 415.222900390625 708.90380859375 429.82666015625Q733.23681640625 443.4571533203125 747.347900390625 467.79364013671875Q761.458984375 492.130126953125 760.4820556640625 520.3582763671875Z" fill="#9b9b9a" />
<path d="M139 -111Q129 -126 144 -137Q159 -147 169 -132L407 218L576 344L683 319Q687 318 692 319L778 343L864 235Q866 233 868 231L1017 127L1131 -132Q1139 -148 1155 -141Q1164 -137 1166 -131Q1168 -125 1165 -117L1048 147Q1046 152 1042 155L891 260L799 375Q791 385 780 381L687 356L576 382Q568 384 561 379L383 246Q380 244 378 241Z" fill="#000000" />
<path d="M482 292Q478 301 472 303Q466 305 457 301Q441 293 449 277L476 218L448 109Q447 106 448 102L465 -32Q466 -41 471 -45Q476 -49 485 -48Q503 -45 501 -27L485 103L513 215Q515 222 512 228Z" fill="#000000" />
<path d="M894 237Q904 253 888 262Q872 271 863 255L798 144Q790 130 803 121L850 83L823 0Q818 -18 835 -23Q852 -29 858 -12L889 83Q893 95 883 103L838 139Z" fill="#000000" />
<path d="M613 594Q621 598 623 605Q625 611 620 619Q615 627 609 628Q603 630 595 625Q537 591 535 524Q533 457 589 420Q604 409 614 425Q625 440 609 450Q571 476 572 523Q573 570 613 594Z" fill="#000000" />
<path d="M797 844Q797 835 802 830Q807 826 816 826Q834 826 834 844Q834 932 747 942Q673 950 647 892Q610 914 563 906Q514 898 486 861Q443 889 392 867Q330 841 330 773Q330 764 335 760Q340 755 349 755Q367 755 367 773Q367 816 407 833Q446 850 477 820Q479 819 481 818Q489 813 495 815Q501 817 506 825Q527 863 570 870Q612 877 645 848Q648 845 653 844Q662 842 667 846Q673 849 675 858Q687 912 742 906Q797 899 797 844Z" fill="#000000" />
<path d="M1010 641Q1010 623 1028 623Q1037 623 1042 627Q1046 632 1046 641Q1046 708 987 739Q928 771 873 733Q858 723 868 708Q878 693 893 703Q931 728 970 707Q1010 686 1010 641Z" fill="#000000" />
<path d="M698 446Q682 437 691 421Q699 405 715 414Q758 437 773 482Q841 494 880 555Q885 562 883 569Q882 575 874 580Q859 590 849 574Q816 523 756 517Q743 516 740 503Q732 465 698 446Z" fill="#000000" />
<path d="M585 670Q583 661 587 656Q590 651 599 649Q617 646 621 664Q637 752 725 765Q813 779 855 700Q859 692 865 690Q871 688 879 692Q896 700 887 717Q833 819 719 801Q605 784 585 670Z" fill="#000000" />
</g></svg>