<svg xmlns="http://www.w3.org/2000/svg" viewBox="0 0 2048 2048">
<g transform="matrix(1 0 0 -1 0 2048)">
<path d="M458 224Q475 230 510.5 232.5Q546 235 589.5 235.5Q633 236 673.0 235.0Q713 234 739.0 233.0Q765 232 765 232Q765 232 771.5 227.5Q778 223 784.5 209.0Q791 195 790.0 167.0Q789 139 773 91Q758 44 732.0 17.0Q706 -10 679.0 -22.0Q652 -34 633.0 -37.0Q614 -40 614 -40L460 -41Z" fill="#ffffff" />
<path d="M984 729H1045V597H984V516Q984 516 984 515Q983 504 972 504H334Q333 504 332 504Q321 505 322 516V816Q322 816 322 817Q322 828 334 828H972Q973 828 973 828Q985 827 984 816Z" fill="#ffffff" />
<path d="M794 78V241L862 220V92Z" fill="#9b9b9a" />
<path d="M457 29Q457 29 457 30Q456 41 445 41H306Q295 41 287.0 48.5Q279 56 279 67Q279 79 287.0 87.0Q295 95 306 95H445Q446 95 447 95Q458 95 457 107Z" fill="#fcea2b" />
<path d="M457 223Q457 224 457 225Q456 236 445 235H306Q295 235 287.0 243.0Q279 251 279 262Q279 273 287.0 281.0Q295 289 306 289H445Q446 289 447 289Q458 290 457 301Z" fill="#fcea2b" />
<path d="M458 224V364H581Q668 364 714.5 326.5Q761 289 788 222Q623 233 458 224Z" fill="#9b9b9a" />
<path d="M1037 209V114Q1037 114 1037 115Q1036 126 1025 125H868V197H1025Q1026 197 1027 197Q1038 198 1037 209Z" fill="#d0cfce" />
<path d="M399 570V761H489V570Z" fill="#b1cc33" />
<path d="M445 88Q464 88 464 107Q464 125 445 125H306Q249 124 249 68Q249 11 306 10H445Q464 10 464 29Q464 47 445 47H306Q286 47 286 68Q286 88 306 88Z" fill="#000000" />
<path d="M445 282Q464 282 464 301Q464 319 445 319H306Q249 318 249 262Q249 205 306 204H445Q464 204 464 223Q464 241 445 241H306Q286 241 286 262Q286 282 306 282Z" fill="#000000" />
<path d="M446 -72H582Q678 -72 746 -3Q814 65 814 161Q814 258 746 325Q678 393 582 394H446Q428 394 428 375V-54Q428 -72 446 -72ZM465 -35V357H582Q663 357 720 300Q777 242 777 161Q778 80 720 22Q663 -35 582 -35Z" fill="#000000" />
<path d="M779 101Q761 96 766 78Q771 60 788 65L861 85Q875 89 875 103V220Q875 234 861 237L788 256Q770 261 766 243Q761 225 779 221L838 206V117Z" fill="#000000" />
<path d="M1025 95Q1044 95 1044 114Q1044 132 1025 132H875V191H1025Q1044 191 1044 209Q1044 227 1025 227H857Q838 227 838 209V114Q838 95 857 95Z" fill="#000000" />
<path d="M1002 748V815Q1003 827 995 836Q987 845 974 846Q973 846 972 846H334Q322 846 313 839Q304 830 303 818Q303 817 303 815V517Q303 505 311 496Q319 487 331 486Q333 486 334 486H972Q983 486 992 493Q1001 502 1002 514Q1002 515 1002 517V578H1045Q1063 578 1063 597V729Q1063 748 1045 748ZM966 809V729Q966 720 970 716Q975 711 984 711H1027V615H984Q966 615 966 597V523H340V809Z" fill="#000000" />
<path d="M375 564Q375 545 393 545H495Q514 545 514 564V767Q514 785 495 785H393Q375 785 375 767ZM411 749H477V582H411Z" fill="#000000" />
</g></svg>