<svg xmlns="http://www.w3.org/2000/svg" viewBox="0 0 2048 2048">
<g transform="matrix(1 0 0 -1 0 2048)">
<path d="M240 421 1071 422 1131 308 177 305Z" fill="#ffffff" />
<path d="M516 863Q571 887 603.5 893.5Q636 900 651.0 898.5Q666 897 669 897Q672 897 685.0 893.0Q698 889 715.0 882.5Q732 876 746.0 870.0Q760 864 765 861Q770 857 787.5 851.5Q805 846 827.5 840.5Q850 835 870.0 831.0Q890 827 900 826Q921 825 932.5 829.0Q944 833 944 833L946 619Q946 619 944.0 619.5Q942 620 937 619Q934 618 921.0 617.5Q908 617 890.5 617.0Q873 617 858.5 617.0Q844 617 840 617Q836 617 818.0 628.5Q800 640 774.5 657.0Q749 674 722.0 691.0Q695 708 672.5 720.5Q650 733 639 735Q625 737 604.0 732.5Q583 728 561.5 720.5Q540 713 526.0 707.0Q512 701 512 701Z" fill="#ffffff" />
<path d="M239 297V-81H1075V297Z" fill="#92d3f5" />
<path d="M336 201V-81H561V201Z" fill="#a57939" />
<path d="M659 222V-8H777V222Z" fill="#ffffff" />
<path d="M862 222V-8H980V222Z" fill="#ffffff" />
<path d="M512 701 510 653V575Q565 615 632 616Q660 616 688.0 605.0Q716 594 748.0 580.0Q780 566 818.0 555.0Q856 544 904 544Q935 544 947.5 553.0Q960 562 960 572V601Q960 627 942 627Q930 627 922.0 623.5Q914 620 902 620Q861 620 826.5 637.5Q792 655 761.0 677.5Q730 700 700.0 717.5Q670 735 639 735Q571 736 512 701Z" fill="#d0cfce" />
<path d="M162 -81V-144H1153V-81Z" fill="#d0cfce" />
<path d="M221 -81Q221 -100 239 -100Q258 -100 258 -81V213Q258 231 239 231Q221 231 221 213Z" fill="#000000" />
<path d="M162 -126Q144 -126 144 -144Q144 -162 162 -162H1153Q1171 -162 1171 -144Q1171 -126 1153 -126Z" fill="#000000" />
<path d="M1152.0 -99.0Q1170.0 -99.0 1170.0 -81.0Q1170.0 -63.0 1152.0 -63.0H161.0Q143.0 -63.0 143.0 -81.0Q143.0 -99.0 161.0 -99.0Z" fill="#000000" />
<path d="M367 416Q385 416 385 434Q385 453 367 453H228Q217 453 212 442L145 305Q137 289 154 281Q158 279 162 279H1153Q1171 279 1171 297Q1171 302 1169 305L1103 442Q1098 453 1086 453H529Q510 453 510 434Q510 416 529 416H1075L1123 316H191L240 416Z" fill="#000000" />
<path d="M1057 -81Q1057 -100 1075 -100Q1094 -100 1094 -81V213Q1094 231 1075 231Q1057 231 1057 213Z" fill="#000000" />
<path d="M466.7794189453125 35.2205810546875Q466.8095703125 16.1904296875 485.8397216796875 16.1602783203125Q503.8682861328125 16.1317138671875 503.838134765625 35.161865234375L503.7572021484375 86.2427978515625Q503.7286376953125 104.2713623046875 485.7000732421875 104.2999267578125Q466.669921875 104.330078125 466.698486328125 86.301513671875Z" fill="#000000" />
<path d="M394.7794189453125 35.2205810546875Q394.8095703125 16.1904296875 413.8397216796875 16.1602783203125Q431.8682861328125 16.1317138671875 431.838134765625 35.161865234375L431.7572021484375 86.2427978515625Q431.7286376953125 104.2713623046875 413.7000732421875 104.2999267578125Q394.669921875 104.330078125 394.698486328125 86.301513671875Z" fill="#000000" />
<path d="M318 -81Q318 -100 337 -100H562Q580 -100 580 -81V201Q580 220 562 220H337Q318 220 318 201ZM355 183H543V-63H355Z" fill="#000000" />
<path d="M502 889Q486 879 496 864Q501 856 508 855Q514 853 522 858Q575 893 639 895Q674 895 746 864Q840 823 902 823Q912 823 927 827Q936 830 942 830Q942 830 942 822V572Q942 563 904 563Q836 563 738 604Q668 634 632 634Q576 633 529 608V653Q529 672 510 672Q492 672 492 653V575Q492 569 495 565Q506 550 521 560Q571 596 632 598Q660 598 724 570Q828 526 904 526Q938 526 957 538Q979 551 979 572V822Q979 840 971 851Q961 866 942 866Q931 866 916 862Q907 859 902 859Q848 859 760 897Q682 931 639 931Q639 931 638 931Q564 930 502 889Z" fill="#000000" />
<path d="M469 910Q469 929 451 929Q432 929 432 910V297Q432 279 451 279Q469 279 469 297Z" fill="#000000" />
<path d="M640 -8Q640 -26 659 -26H777Q796 -26 796 -8V222Q796 241 777 241H659Q640 241 640 222ZM677 204H759V10H677Z" fill="#000000" />
<path d="M843 -8Q843 -26 862 -26H980Q999 -26 999 -8V222Q999 241 980 241H862Q843 241 843 222ZM880 204H962V10H880Z" fill="#000000" />
</g></svg>