<svg xmlns="http://www.w3.org/2000/svg" viewBox="0 0 2048 2048">
<g transform="matrix(1 0 0 -1 0 2048)">
<path d="M1026.5218505859375 310.118408203125Q1026.5218505859375 334.0601806640625 1014.5509643554688 354.01165771484375Q1002.580078125 373.963134765625 982.6286010742188 385.93402099609375Q962.6771240234375 397.9049072265625 938.7353515625 397.9049072265625Q914.1796875 397.9049072265625 894.2282104492188 385.93402099609375Q874.2767333984375 373.963134765625 862.3058471679688 354.01165771484375Q850.3349609375 334.0601806640625 850.3349609375 310.118408203125Q850.3349609375 285.562744140625 862.3058471679688 265.61126708984375Q874.2767333984375 245.6597900390625 894.2282104492188 233.68890380859375Q914.1796875 221.718017578125 938.7353515625 221.718017578125Q962.6771240234375 221.718017578125 982.6286010742188 233.68890380859375Q1002.580078125 245.6597900390625 1014.5509643554688 265.61126708984375Q1026.5218505859375 285.562744140625 1026.5218505859375 310.118408203125Z" fill="#6a462f" />
<path d="M1157.5218505859375 167.118408203125Q1157.5218505859375 191.0601806640625 1145.5509643554688 211.01165771484375Q1133.580078125 230.963134765625 1113.6286010742188 242.93402099609375Q1093.6771240234375 254.9049072265625 1069.7353515625 254.9049072265625Q1045.1796875 254.9049072265625 1025.2282104492188 242.93402099609375Q1005.2767333984375 230.963134765625 993.3058471679688 211.01165771484375Q981.3349609375 191.0601806640625 981.3349609375 167.118408203125Q981.3349609375 142.562744140625 993.3058471679688 122.61126708984375Q1005.2767333984375 102.6597900390625 1025.2282104492188 90.68890380859375Q1045.1796875 78.718017578125 1069.7353515625 78.718017578125Q1093.6771240234375 78.718017578125 1113.6286010742188 90.68890380859375Q1133.580078125 102.6597900390625 1145.5509643554688 122.61126708984375Q1157.5218505859375 142.562744140625 1157.5218505859375 167.118408203125Z" fill="#3f3f3f" />
<path d="M953.4227294921875 483.480712890625Q953.4227294921875 496.2061767578125 947.0599975585938 506.81072998046875Q940.697265625 517.415283203125 930.0927124023438 523.7780151367188Q919.4881591796875 530.1407470703125 906.7626953125 530.1407470703125Q893.7109375 530.1407470703125 883.1063842773438 523.7780151367188Q872.5018310546875 517.415283203125 866.1390991210938 506.81072998046875Q859.7763671875 496.2061767578125 859.7763671875 483.480712890625Q859.7763671875 470.428955078125 866.1390991210938 459.82440185546875Q872.5018310546875 449.2198486328125 883.1063842773438 442.85711669921875Q893.7109375 436.494384765625 906.7626953125 436.494384765625Q919.4881591796875 436.494384765625 930.0927124023438 442.85711669921875Q940.697265625 449.2198486328125 947.0599975585938 459.82440185546875Q953.4227294921875 470.428955078125 953.4227294921875 483.480712890625Z" fill="#a57939" />
<path d="M514.0361938476562 620.9754638671875Q514.0361938476562 627.3524780273438 510.8476867675781 632.6666564941406Q507.6591796875 637.9808349609375 502.3450012207031 641.1693420410156Q497.03082275390625 644.3578491210938 490.65380859375 644.3578491210938Q484.11328125 644.3578491210938 478.7991027832031 641.1693420410156Q473.48492431640625 637.9808349609375 470.2964172363281 632.6666564941406Q467.10791015625 627.3524780273438 467.10791015625 620.9754638671875Q467.10791015625 614.4349365234375 470.2964172363281 609.1207580566406Q473.48492431640625 603.8065795898438 478.7991027832031 600.6180725097656Q484.11328125 597.4295654296875 490.65380859375 597.4295654296875Q497.03082275390625 597.4295654296875 502.3450012207031 600.6180725097656Q507.6591796875 603.8065795898438 510.8476867675781 609.1207580566406Q514.0361938476562 614.4349365234375 514.0361938476562 620.9754638671875Z" fill="#3f3f3f" />
<path d="M528.0361938476562 492.9754638671875Q528.0361938476562 499.35247802734375 524.8476867675781 504.6666564941406Q521.6591796875 509.9808349609375 516.3450012207031 513.1693420410156Q511.03082275390625 516.3578491210938 504.65380859375 516.3578491210938Q498.11328125 516.3578491210938 492.7991027832031 513.1693420410156Q487.48492431640625 509.9808349609375 484.2964172363281 504.6666564941406Q481.10791015625 499.35247802734375 481.10791015625 492.9754638671875Q481.10791015625 486.4349365234375 484.2964172363281 481.1207580566406Q487.48492431640625 475.80657958984375 492.7991027832031 472.6180725097656Q498.11328125 469.4295654296875 504.65380859375 469.4295654296875Q511.03082275390625 469.4295654296875 516.3450012207031 472.6180725097656Q521.6591796875 475.80657958984375 524.8476867675781 481.1207580566406Q528.0361938476562 486.4349365234375 528.0361938476562 492.9754638671875Z" fill="#3f3f3f" />
<path d="M588.0361938476562 416.9754638671875Q588.0361938476562 423.35247802734375 584.8476867675781 428.6666564941406Q581.6591796875 433.9808349609375 576.3450012207031 437.1693420410156Q571.0308227539062 440.35784912109375 564.65380859375 440.35784912109375Q558.11328125 440.35784912109375 552.7991027832031 437.1693420410156Q547.4849243164062 433.9808349609375 544.2964172363281 428.6666564941406Q541.10791015625 423.35247802734375 541.10791015625 416.9754638671875Q541.10791015625 410.4349365234375 544.2964172363281 405.1207580566406Q547.4849243164062 399.80657958984375 552.7991027832031 396.6180725097656Q558.11328125 393.4295654296875 564.65380859375 393.4295654296875Q571.0308227539062 393.4295654296875 576.3450012207031 396.6180725097656Q581.6591796875 399.80657958984375 584.8476867675781 405.1207580566406Q588.0361938476562 410.4349365234375 588.0361938476562 416.9754638671875Z" fill="#3f3f3f" />
<path d="M728.4227294921875 413.480712890625Q728.4227294921875 426.2061767578125 722.0599975585938 436.81072998046875Q715.697265625 447.415283203125 705.0927124023438 453.77801513671875Q694.4881591796875 460.1407470703125 681.7626953125 460.1407470703125Q668.7109375 460.1407470703125 658.1063842773438 453.77801513671875Q647.5018310546875 447.415283203125 641.1390991210938 436.81072998046875Q634.7763671875 426.2061767578125 634.7763671875 413.480712890625Q634.7763671875 400.428955078125 641.1390991210938 389.82440185546875Q647.5018310546875 379.2198486328125 658.1063842773438 372.85711669921875Q668.7109375 366.494384765625 681.7626953125 366.494384765625Q694.4881591796875 366.494384765625 705.0927124023438 372.85711669921875Q715.697265625 379.2198486328125 722.0599975585938 389.82440185546875Q728.4227294921875 400.428955078125 728.4227294921875 413.480712890625Z" fill="#6a462f" />
<path d="M683.4227294921875 635.480712890625Q683.4227294921875 648.2061767578125 677.0599975585938 658.8107299804688Q670.697265625 669.415283203125 660.0927124023438 675.7780151367188Q649.4881591796875 682.1407470703125 636.7626953125 682.1407470703125Q623.7109375 682.1407470703125 613.1063842773438 675.7780151367188Q602.5018310546875 669.415283203125 596.1390991210938 658.8107299804688Q589.7763671875 648.2061767578125 589.7763671875 635.480712890625Q589.7763671875 622.428955078125 596.1390991210938 611.8244018554688Q602.5018310546875 601.2198486328125 613.1063842773438 594.8571166992188Q623.7109375 588.494384765625 636.7626953125 588.494384765625Q649.4881591796875 588.494384765625 660.0927124023438 594.8571166992188Q670.697265625 601.2198486328125 677.0599975585938 611.8244018554688Q683.4227294921875 622.428955078125 683.4227294921875 635.480712890625Z" fill="#a57939" />
<path d="M753.4227294921875 264.480712890625Q753.4227294921875 277.2061767578125 747.0599975585938 287.81072998046875Q740.697265625 298.415283203125 730.0927124023438 304.77801513671875Q719.4881591796875 311.1407470703125 706.7626953125 311.1407470703125Q693.7109375 311.1407470703125 683.1063842773438 304.77801513671875Q672.5018310546875 298.415283203125 666.1390991210938 287.81072998046875Q659.7763671875 277.2061767578125 659.7763671875 264.480712890625Q659.7763671875 251.428955078125 666.1390991210938 240.82440185546875Q672.5018310546875 230.2198486328125 683.1063842773438 223.85711669921875Q693.7109375 217.494384765625 706.7626953125 217.494384765625Q719.4881591796875 217.494384765625 730.0927124023438 223.85711669921875Q740.697265625 230.2198486328125 747.0599975585938 240.82440185546875Q753.4227294921875 251.428955078125 753.4227294921875 264.480712890625Z" fill="#3f3f3f" />
<path d="M648.4227294921875 316.480712890625Q648.4227294921875 329.2061767578125 642.0599975585938 339.81072998046875Q635.697265625 350.415283203125 625.0927124023438 356.77801513671875Q614.4881591796875 363.1407470703125 601.7626953125 363.1407470703125Q588.7109375 363.1407470703125 578.1063842773438 356.77801513671875Q567.5018310546875 350.415283203125 561.1390991210938 339.81072998046875Q554.7763671875 329.2061767578125 554.7763671875 316.480712890625Q554.7763671875 303.428955078125 561.1390991210938 292.82440185546875Q567.5018310546875 282.2198486328125 578.1063842773438 275.85711669921875Q588.7109375 269.494384765625 601.7626953125 269.494384765625Q614.4881591796875 269.494384765625 625.0927124023438 275.85711669921875Q635.697265625 282.2198486328125 642.0599975585938 292.82440185546875Q648.4227294921875 303.428955078125 648.4227294921875 316.480712890625Z" fill="#3f3f3f" />
<path d="M847.4227294921875 364.480712890625Q847.4227294921875 377.2061767578125 841.0599975585938 387.81072998046875Q834.697265625 398.415283203125 824.0927124023438 404.77801513671875Q813.4881591796875 411.1407470703125 800.7626953125 411.1407470703125Q787.7109375 411.1407470703125 777.1063842773438 404.77801513671875Q766.5018310546875 398.415283203125 760.1390991210938 387.81072998046875Q753.7763671875 377.2061767578125 753.7763671875 364.480712890625Q753.7763671875 351.428955078125 760.1390991210938 340.82440185546875Q766.5018310546875 330.2198486328125 777.1063842773438 323.85711669921875Q787.7109375 317.494384765625 800.7626953125 317.494384765625Q813.4881591796875 317.494384765625 824.0927124023438 323.85711669921875Q834.697265625 330.2198486328125 841.0599975585938 340.82440185546875Q847.4227294921875 351.428955078125 847.4227294921875 364.480712890625Z" fill="#3f3f3f" />
<path d="M510 -40H165L239 580L262 692L323 748L350 712L403 494L383 416Z" fill="#a57939" />
<path d="M510 -40H1144L1126 20L955 171L767 186L585 346L483 698L380 799L323 748L350 712L403 494L383 416Z" fill="#3f3f3f" />
<path d="M859.4227294921875 180.480712890625Q859.4227294921875 193.2061767578125 853.0599975585938 203.81072998046875Q846.697265625 214.415283203125 836.0927124023438 220.77801513671875Q825.4881591796875 227.1407470703125 812.7626953125 227.1407470703125Q799.7109375 227.1407470703125 789.1063842773438 220.77801513671875Q778.5018310546875 214.415283203125 772.1390991210938 203.81072998046875Q765.7763671875 193.2061767578125 765.7763671875 180.480712890625Q765.7763671875 167.428955078125 772.1390991210938 156.82440185546875Q778.5018310546875 146.2198486328125 789.1063842773438 139.85711669921875Q799.7109375 133.494384765625 812.7626953125 133.494384765625Q825.4881591796875 133.494384765625 836.0927124023438 139.85711669921875Q846.697265625 146.2198486328125 853.0599975585938 156.82440185546875Q859.4227294921875 167.428955078125 859.4227294921875 180.480712890625Z" fill="#3f3f3f" />
<path d="M908 193Q889 194 888 175Q887 157 906 156L947 153L1114 6Q1127 -6 1140 8Q1152 21 1138 34L967 185Q962 189 956 190Z" fill="#000000" />
<path d="M148 -27Q146 -45 164 -47Q173 -48 179 -44Q184 -40 185 -31L257 577L279 683L379 774L467 689L500 574Q505 556 522 561Q540 566 535 584L499 708L380 824L245 702L221 583Z" fill="#000000" />
<path d="M401 421Q398 430 393 433Q387 436 378 434Q361 429 366 411L492 -37Q494 -46 500 -49Q505 -53 514 -50Q532 -45 527 -27Z" fill="#000000" />
<path d="M385 490Q389 472 407 476Q425 481 420 498L367 720L338 759Q327 774 312 763Q298 752 309 737L333 704Z" fill="#000000" />
<path d="M617 413Q617 395 635 395Q654 395 654 413Q654 425 662 433Q670 442 682 442Q696 442 703 434Q711 427 711 413Q711 385 682 385Q664 385 664 366Q664 348 682 348Q747 348 747 413Q747 440 728 459Q709 478 682 478Q655 478 636 459Q617 440 617 413Z" fill="#000000" />
<path d="M702 636Q702 701 637 701Q610 701 591 682Q572 663 572 636Q572 571 637 571Q702 571 702 636ZM665 636Q665 624 657 616Q649 607 637 607Q625 607 617 616Q609 624 609 636Q609 664 637 664Q665 664 665 636Z" fill="#000000" />
<path d="M907 549Q888 548 888 530Q888 512 907 512Q918 512 927 504Q935 495 935 483Q935 472 927 463Q918 455 907 455Q895 455 886 463Q878 472 878 483Q878 493 874 497Q869 502 860 502Q841 502 841 483Q841 456 861 437Q880 418 907 418Q934 418 953 437Q972 456 972 483Q972 510 953 529Q934 549 907 549Z" fill="#000000" />
<path d="M1081 273Q1063 275 1061 257Q1059 238 1077 236Q1123 231 1136 187Q1149 143 1114 114Q1100 102 1112 88Q1118 81 1124 80Q1131 80 1138 86Q1192 131 1171 198Q1151 265 1081 273Z" fill="#000000" />
<path d="M885 402Q869 393 878 377Q888 361 903 370Q960 403 996 349Q1033 295 981 255Q966 244 977 229Q988 215 1003 226Q1036 251 1043 293Q1050 334 1027 369Q1003 404 962 414Q921 423 885 402Z" fill="#000000" />
<path d="M878 180Q878 207 859 226Q840 245 813 245Q786 245 767 226Q748 207 748 180Q748 153 767 134Q786 115 813 115Q840 115 859 134Q878 153 878 180ZM841 180Q841 151 813 151Q784 151 784 180Q784 208 813 208Q825 208 833 200Q841 192 841 180Z" fill="#000000" />
<path d="M667 316Q667 381 602 381Q537 381 537 316Q537 289 556 270Q575 251 602 251Q667 251 667 316ZM630 316Q630 288 602 288Q573 288 573 316Q573 328 582 337Q590 345 602 345Q630 345 630 316Z" fill="#000000" />
<path d="M856.0361938476562 551.9754638671875Q856.0361938476562 558.3524780273438 852.8476867675781 563.6666564941406Q849.6591796875 568.9808349609375 844.3450012207031 572.1693420410156Q839.0308227539062 575.3578491210938 832.65380859375 575.3578491210938Q826.11328125 575.3578491210938 820.7991027832031 572.1693420410156Q815.4849243164062 568.9808349609375 812.2964172363281 563.6666564941406Q809.10791015625 558.3524780273438 809.10791015625 551.9754638671875Q809.10791015625 545.4349365234375 812.2964172363281 540.1207580566406Q815.4849243164062 534.8065795898438 820.7991027832031 531.6180725097656Q826.11328125 528.4295654296875 832.65380859375 528.4295654296875Q839.0308227539062 528.4295654296875 844.3450012207031 531.6180725097656Q849.6591796875 534.8065795898438 852.8476867675781 540.1207580566406Q856.0361938476562 545.4349365234375 856.0361938476562 551.9754638671875Z" fill="#000000" />
<path d="M796.0361938476562 475.9754638671875Q796.0361938476562 482.35247802734375 792.8476867675781 487.6666564941406Q789.6591796875 492.9808349609375 784.3450012207031 496.1693420410156Q779.0308227539062 499.35784912109375 772.65380859375 499.35784912109375Q766.11328125 499.35784912109375 760.7991027832031 496.1693420410156Q755.4849243164062 492.9808349609375 752.2964172363281 487.6666564941406Q749.10791015625 482.35247802734375 749.10791015625 475.9754638671875Q749.10791015625 469.4349365234375 752.2964172363281 464.1207580566406Q755.4849243164062 458.80657958984375 760.7991027832031 455.6180725097656Q766.11328125 452.4295654296875 772.65380859375 452.4295654296875Q779.0308227539062 452.4295654296875 784.3450012207031 455.6180725097656Q789.6591796875 458.80657958984375 792.8476867675781 464.1207580566406Q796.0361938476562 469.4349365234375 796.0361938476562 475.9754638671875Z" fill="#000000" />
<path d="M722.0361938476562 542.9754638671875Q722.0361938476562 549.3524780273438 718.8476867675781 554.6666564941406Q715.6591796875 559.9808349609375 710.3450012207031 563.1693420410156Q705.0308227539062 566.3578491210938 698.65380859375 566.3578491210938Q692.11328125 566.3578491210938 686.7991027832031 563.1693420410156Q681.4849243164062 559.9808349609375 678.2964172363281 554.6666564941406Q675.10791015625 549.3524780273438 675.10791015625 542.9754638671875Q675.10791015625 536.4349365234375 678.2964172363281 531.1207580566406Q681.4849243164062 525.8065795898438 686.7991027832031 522.6180725097656Q692.11328125 519.4295654296875 698.65380859375 519.4295654296875Q705.0308227539062 519.4295654296875 710.3450012207031 522.6180725097656Q715.6591796875 525.8065795898438 718.8476867675781 531.1207580566406Q722.0361938476562 536.4349365234375 722.0361938476562 542.9754638671875Z" fill="#000000" />
<path d="M571.0361938476562 682.9754638671875Q571.0361938476562 689.3524780273438 567.8476867675781 694.6666564941406Q564.6591796875 699.9808349609375 559.3450012207031 703.1693420410156Q554.0308227539062 706.3578491210938 547.65380859375 706.3578491210938Q541.11328125 706.3578491210938 535.7991027832031 703.1693420410156Q530.4849243164062 699.9808349609375 527.2964172363281 694.6666564941406Q524.10791015625 689.3524780273438 524.10791015625 682.9754638671875Q524.10791015625 676.4349365234375 527.2964172363281 671.1207580566406Q530.4849243164062 665.8065795898438 535.7991027832031 662.6180725097656Q541.11328125 659.4295654296875 547.65380859375 659.4295654296875Q554.0308227539062 659.4295654296875 559.3450012207031 662.6180725097656Q564.6591796875 665.8065795898438 567.8476867675781 671.1207580566406Q571.0361938476562 676.4349365234375 571.0361938476562 682.9754638671875Z" fill="#000000" />
<path d="M630.0361938476562 486.9754638671875Q630.0361938476562 493.35247802734375 626.8476867675781 498.6666564941406Q623.6591796875 503.9808349609375 618.3450012207031 507.1693420410156Q613.0308227539062 510.35784912109375 606.65380859375 510.35784912109375Q600.11328125 510.35784912109375 594.7991027832031 507.1693420410156Q589.4849243164062 503.9808349609375 586.2964172363281 498.6666564941406Q583.10791015625 493.35247802734375 583.10791015625 486.9754638671875Q583.10791015625 480.4349365234375 586.2964172363281 475.1207580566406Q589.4849243164062 469.80657958984375 594.7991027832031 466.6180725097656Q600.11328125 463.4295654296875 606.65380859375 463.4295654296875Q613.0308227539062 463.4295654296875 618.3450012207031 466.6180725097656Q623.6591796875 469.80657958984375 626.8476867675781 475.1207580566406Q630.0361938476562 480.4349365234375 630.0361938476562 486.9754638671875Z" fill="#000000" />
</g></svg>