<svg xmlns="http://www.w3.org/2000/svg" viewBox="0 0 2048 2048">
<g transform="matrix(1 0 0 -1 0 2048)">
<path d="M827 827Q825 827 827.0 821.0Q829 815 829 813L704 420L1055 -44L1179 50Q1189 60 1197.0 77.5Q1205 95 1196 105L1100 190Q1094 198 1101 205L1179 283Q1188 292 1190.5 306.5Q1193 321 1186 330L1098 421Q1088 433 1098 446L1195 537Q1202 547 1199.5 560.5Q1197 574 1191 583L1106 684Q1101 690 1100.0 705.0Q1099 720 1110 723L1193 812Q1197 817 1194.5 827.5Q1192 838 1185.5 846.5Q1179 855 1173 855L996 865Q987 866 979 864Q972 863 964.5 862.0Q957 861 951 860Q947 859 942 858Z" fill="#ffffff" />
<path d="M143 -115H1149L1028 158L875 265L781 383L684 356L569 383L390 250Z" fill="#9b9b9a" />
<path d="M509.35198974609375 703.7091064453125Q509.35198974609375 728.9624633789062 496.7253112792969 750.0069274902344Q484.0986328125 771.0513916015625 463.0541687011719 783.6780700683594Q442.00970458984375 796.3047485351562 416.75634765625 796.3047485351562Q390.85546875 796.3047485351562 369.8110046386719 783.6780700683594Q348.76654052734375 771.0513916015625 336.1398620605469 750.0069274902344Q323.51318359375 728.9624633789062 323.51318359375 703.7091064453125Q323.51318359375 677.8082275390625 336.1398620605469 656.7637634277344Q348.76654052734375 635.7192993164062 369.8110046386719 623.0926208496094Q390.85546875 610.4659423828125 416.75634765625 610.4659423828125Q442.00970458984375 610.4659423828125 463.0541687011719 623.0926208496094Q484.0986328125 635.7192993164062 496.7253112792969 656.7637634277344Q509.35198974609375 677.8082275390625 509.35198974609375 703.7091064453125Z" fill="#3f3f3f" />
<path d="M836.292236328125 806.46630859375Q836.292236328125 830.793701171875 824.1285400390625 851.0665283203125Q811.96484375 871.33935546875 791.6920166015625 883.5030517578125Q771.419189453125 895.666748046875 747.091796875 895.666748046875Q722.140625 895.666748046875 701.8677978515625 883.5030517578125Q681.594970703125 871.33935546875 669.4312744140625 851.0665283203125Q657.267578125 830.793701171875 657.267578125 806.46630859375Q657.267578125 781.51513671875 669.4312744140625 761.2423095703125Q681.594970703125 740.969482421875 701.8677978515625 728.8057861328125Q722.140625 716.64208984375 747.091796875 716.64208984375Q771.419189453125 716.64208984375 791.6920166015625 728.8057861328125Q811.96484375 740.969482421875 824.1285400390625 761.2423095703125Q836.292236328125 781.51513671875 836.292236328125 806.46630859375Z" fill="#9b9b9a" />
<path d="M1062.292236328125 569.46630859375Q1062.292236328125 593.793701171875 1050.1285400390625 614.0665283203125Q1037.96484375 634.33935546875 1017.6920166015625 646.5030517578125Q997.419189453125 658.666748046875 973.091796875 658.666748046875Q948.140625 658.666748046875 927.8677978515625 646.5030517578125Q907.594970703125 634.33935546875 895.4312744140625 614.0665283203125Q883.267578125 593.793701171875 883.267578125 569.46630859375Q883.267578125 544.51513671875 895.4312744140625 524.2423095703125Q907.594970703125 503.969482421875 927.8677978515625 491.8057861328125Q948.140625 479.64208984375 973.091796875 479.64208984375Q997.419189453125 479.64208984375 1017.6920166015625 491.8057861328125Q1037.96484375 503.969482421875 1050.1285400390625 524.2423095703125Q1062.292236328125 544.51513671875 1062.292236328125 569.46630859375Z" fill="#9b9b9a" />
<path d="M708.4031372070312 757.2376708984375Q708.4031372070312 790.0558471679688 691.9940490722656 817.4043273925781Q675.5849609375 844.7528076171875 648.2364807128906 861.1618957519531Q620.8880004882812 877.5709838867188 588.06982421875 877.5709838867188Q554.41015625 877.5709838867188 527.0616760253906 861.1618957519531Q499.71319580078125 844.7528076171875 483.3041076660156 817.4043273925781Q466.89501953125 790.0558471679688 466.89501953125 757.2376708984375Q466.89501953125 723.5780029296875 483.3041076660156 696.2295227050781Q499.71319580078125 668.8810424804688 527.0616760253906 652.4719543457031Q554.41015625 636.0628662109375 588.06982421875 636.0628662109375Q620.8880004882812 636.0628662109375 648.2364807128906 652.4719543457031Q675.5849609375 668.8810424804688 691.9940490722656 696.2295227050781Q708.4031372070312 723.5780029296875 708.4031372070312 757.2376708984375Z" fill="#9b9b9a" />
<path d="M949 648Q949 687 929.5 719.5Q910 752 877.5 771.5Q845 791 806 791Q766 791 733.5 771.5Q701 752 681.5 719.5Q662 687 662 648Q662 608 681.5 575.5Q701 543 733.5 523.5Q766 504 806 504Q845 504 877.5 523.5Q910 543 929.5 575.5Q949 608 949 648Z" fill="#9b9b9a" />
<path d="M767.4820556640625 563.3582763671875Q768.451904296875 591.586669921875 754.334716796875 615.9196166992188Q740.217529296875 640.2525634765625 715.881103515625 653.876953125Q692.5179443359375 668.474853515625 664.2896728515625 668.4713134765625Q636.0614013671875 668.4677734375 611.728515625 653.8638916015625Q588.368896484375 640.2335205078125 574.2578125 615.8970336914062Q560.146728515625 591.560546875 561.1236572265625 563.3323974609375Q560.15380859375 535.10400390625 574.27099609375 510.77105712890625Q588.38818359375 486.4381103515625 611.751220703125 472.8135986328125Q636.0877685546875 458.2158203125 664.3160400390625 458.2193603515625Q692.5443115234375 458.222900390625 715.90380859375 472.82666015625Q740.23681640625 486.4571533203125 754.347900390625 510.79364013671875Q768.458984375 535.130126953125 767.4820556640625 563.3582763671875Z" fill="#3f3f3f" />
<path d="M1149 -115 1028 158 875 265 811 154 868 108 797 -115Z" fill="#d0cfce" />
<path d="M136 -93Q131 -100 132 -106Q133 -113 141 -118Q156 -128 166 -113L404 237L573 363L684 337L775 362L863 251L1014 146L1128 -113Q1136 -130 1152 -122Q1169 -115 1162 -98L1043 170L888 279L788 403L684 374L565 402L377 263Z" fill="#000000" />
<path d="M479 311Q475 319 469 322Q463 324 454 320Q438 312 446 295L473 237L445 128Q444 124 445 121L462 -13Q463 -22 468 -26Q473 -30 482 -29Q500 -27 498 -9L482 122L510 234Q512 240 509 246Z" fill="#000000" />
<path d="M891 256Q901 272 885 281Q869 290 860 274L795 163Q788 149 800 139L847 101L822 23Q816 5 834 0Q851 -6 857 12L886 102Q890 114 880 122L835 158Z" fill="#000000" />
<path d="M604 624Q611 630 611 637Q611 643 604 650Q591 662 578 649Q543 614 543 563Q543 513 578 477Q614 442 665 442Q715 442 751 477Q758 484 763 492Q784 486 806 486Q824 486 824 505Q824 514 820 518Q815 523 806 523Q783 523 762 531Q747 537 739 523Q733 512 725 503Q700 478 665 478Q629 478 604 503Q579 528 579 563Q579 599 604 624Z" fill="#000000" />
<path d="M747 877Q765 878 765 896Q765 905 761 910Q756 914 747 914Q692 914 663 874Q626 898 580 896Q522 893 484 850Q467 831 458 807Q429 819 396 813Q351 805 325 767Q305 739 305 704Q305 685 323 686Q342 686 342 704Q342 727 355 746Q373 772 403 777Q433 783 459 765Q462 763 466 762Q475 760 480 764Q485 768 487 777Q492 804 511 825Q539 857 582 859Q624 862 655 833Q657 832 659 831Q676 822 684 839Q704 877 747 877Z" fill="#000000" />
<path d="M806 810Q787 810 787 791Q787 773 806 773Q858 773 894 736Q931 700 931 648Q931 630 949 630Q967 630 967 648Q967 715 920 762Q873 810 806 810Z" fill="#000000" />
<path d="M944 673Q926 668 931 651Q934 642 939 639Q945 635 954 638Q982 646 1008 631Q1034 617 1041 588Q1044 579 1044 569Q1044 551 1062 551Q1081 551 1081 569Q1081 584 1077 598Q1065 641 1026 663Q987 685 944 673Z" fill="#000000" />
<path d="M1200.828369140625 829.47216796875Q1200.828369140625 836.851318359375 1197.1387939453125 843.0006103515625Q1193.44921875 849.14990234375 1187.2999267578125 852.8394775390625Q1181.150634765625 856.529052734375 1173.771484375 856.529052734375Q1166.203125 856.529052734375 1160.0538330078125 852.8394775390625Q1153.904541015625 849.14990234375 1150.2149658203125 843.0006103515625Q1146.525390625 836.851318359375 1146.525390625 829.47216796875Q1146.525390625 821.90380859375 1150.2149658203125 815.7545166015625Q1153.904541015625 809.605224609375 1160.0538330078125 805.9156494140625Q1166.203125 802.22607421875 1173.771484375 802.22607421875Q1181.150634765625 802.22607421875 1187.2999267578125 805.9156494140625Q1193.44921875 809.605224609375 1197.1387939453125 815.7545166015625Q1200.828369140625 821.90380859375 1200.828369140625 829.47216796875Z" fill="#000000" />
<path d="M1102.828369140625 704.47216796875Q1102.828369140625 711.851318359375 1099.1387939453125 718.0006103515625Q1095.44921875 724.14990234375 1089.2999267578125 727.8394775390625Q1083.150634765625 731.529052734375 1075.771484375 731.529052734375Q1068.203125 731.529052734375 1062.0538330078125 727.8394775390625Q1055.904541015625 724.14990234375 1052.2149658203125 718.0006103515625Q1048.525390625 711.851318359375 1048.525390625 704.47216796875Q1048.525390625 696.90380859375 1052.2149658203125 690.7545166015625Q1055.904541015625 684.605224609375 1062.0538330078125 680.9156494140625Q1068.203125 677.22607421875 1075.771484375 677.22607421875Q1083.150634765625 677.22607421875 1089.2999267578125 680.9156494140625Q1095.44921875 684.605224609375 1099.1387939453125 690.7545166015625Q1102.828369140625 696.90380859375 1102.828369140625 704.47216796875Z" fill="#000000" />
<path d="M878.828369140625 704.47216796875Q878.828369140625 711.851318359375 875.1387939453125 718.0006103515625Q871.44921875 724.14990234375 865.2999267578125 727.8394775390625Q859.150634765625 731.529052734375 851.771484375 731.529052734375Q844.203125 731.529052734375 838.0538330078125 727.8394775390625Q831.904541015625 724.14990234375 828.2149658203125 718.0006103515625Q824.525390625 711.851318359375 824.525390625 704.47216796875Q824.525390625 696.90380859375 828.2149658203125 690.7545166015625Q831.904541015625 684.605224609375 838.0538330078125 680.9156494140625Q844.203125 677.22607421875 851.771484375 677.22607421875Q859.150634765625 677.22607421875 865.2999267578125 680.9156494140625Q871.44921875 684.605224609375 875.1387939453125 690.7545166015625Q878.828369140625 696.90380859375 878.828369140625 704.47216796875Z" fill="#000000" />
<path d="M1206.828369140625 560.47216796875Q1206.828369140625 567.851318359375 1203.1387939453125 574.0006103515625Q1199.44921875 580.14990234375 1193.2999267578125 583.8394775390625Q1187.150634765625 587.529052734375 1179.771484375 587.529052734375Q1172.203125 587.529052734375 1166.0538330078125 583.8394775390625Q1159.904541015625 580.14990234375 1156.2149658203125 574.0006103515625Q1152.525390625 567.851318359375 1152.525390625 560.47216796875Q1152.525390625 552.90380859375 1156.2149658203125 546.7545166015625Q1159.904541015625 540.605224609375 1166.0538330078125 536.9156494140625Q1172.203125 533.22607421875 1179.771484375 533.22607421875Q1187.150634765625 533.22607421875 1193.2999267578125 536.9156494140625Q1199.44921875 540.605224609375 1203.1387939453125 546.7545166015625Q1206.828369140625 552.90380859375 1206.828369140625 560.47216796875Z" fill="#000000" />
<path d="M1102.828369140625 440.47216796875Q1102.828369140625 447.851318359375 1099.1387939453125 454.0006103515625Q1095.44921875 460.14990234375 1089.2999267578125 463.8394775390625Q1083.150634765625 467.529052734375 1075.771484375 467.529052734375Q1068.203125 467.529052734375 1062.0538330078125 463.8394775390625Q1055.904541015625 460.14990234375 1052.2149658203125 454.0006103515625Q1048.525390625 447.851318359375 1048.525390625 440.47216796875Q1048.525390625 432.90380859375 1052.2149658203125 426.7545166015625Q1055.904541015625 420.605224609375 1062.0538330078125 416.9156494140625Q1068.203125 413.22607421875 1075.771484375 413.22607421875Q1083.150634765625 413.22607421875 1089.2999267578125 416.9156494140625Q1095.44921875 420.605224609375 1099.1387939453125 426.7545166015625Q1102.828369140625 432.90380859375 1102.828369140625 440.47216796875Z" fill="#000000" />
<path d="M1200.828369140625 309.47216796875Q1200.828369140625 316.851318359375 1197.1387939453125 323.0006103515625Q1193.44921875 329.14990234375 1187.2999267578125 332.8394775390625Q1181.150634765625 336.529052734375 1173.771484375 336.529052734375Q1166.203125 336.529052734375 1160.0538330078125 332.8394775390625Q1153.904541015625 329.14990234375 1150.2149658203125 323.0006103515625Q1146.525390625 316.851318359375 1146.525390625 309.47216796875Q1146.525390625 301.90380859375 1150.2149658203125 295.7545166015625Q1153.904541015625 289.605224609375 1160.0538330078125 285.9156494140625Q1166.203125 282.22607421875 1173.771484375 282.22607421875Q1181.150634765625 282.22607421875 1187.2999267578125 285.9156494140625Q1193.44921875 289.605224609375 1197.1387939453125 295.7545166015625Q1200.828369140625 301.90380859375 1200.828369140625 309.47216796875Z" fill="#000000" />
<path d="M1102.828369140625 201.47216796875Q1102.828369140625 208.851318359375 1099.1387939453125 215.0006103515625Q1095.44921875 221.14990234375 1089.2999267578125 224.8394775390625Q1083.150634765625 228.529052734375 1075.771484375 228.529052734375Q1068.203125 228.529052734375 1062.0538330078125 224.8394775390625Q1055.904541015625 221.14990234375 1052.2149658203125 215.0006103515625Q1048.525390625 208.851318359375 1048.525390625 201.47216796875Q1048.525390625 193.90380859375 1052.2149658203125 187.7545166015625Q1055.904541015625 181.605224609375 1062.0538330078125 177.9156494140625Q1068.203125 174.22607421875 1075.771484375 174.22607421875Q1083.150634765625 174.22607421875 1089.2999267578125 177.9156494140625Q1095.44921875 181.605224609375 1099.1387939453125 187.7545166015625Q1102.828369140625 193.90380859375 1102.828369140625 201.47216796875Z" fill="#000000" />
<path d="M1200.828369140625 82.47216796875Q1200.828369140625 89.851318359375 1197.1387939453125 96.0006103515625Q1193.44921875 102.14990234375 1187.2999267578125 105.8394775390625Q1181.150634765625 109.529052734375 1173.771484375 109.529052734375Q1166.203125 109.529052734375 1160.0538330078125 105.8394775390625Q1153.904541015625 102.14990234375 1150.2149658203125 96.0006103515625Q1146.525390625 89.851318359375 1146.525390625 82.47216796875Q1146.525390625 74.90380859375 1150.2149658203125 68.7545166015625Q1153.904541015625 62.605224609375 1160.0538330078125 58.9156494140625Q1166.203125 55.22607421875 1173.771484375 55.22607421875Q1181.150634765625 55.22607421875 1187.2999267578125 58.9156494140625Q1193.44921875 62.605224609375 1197.1387939453125 68.7545166015625Q1200.828369140625 74.90380859375 1200.828369140625 82.47216796875Z" fill="#000000" />
<path d="M1078.8825073242188 -61.4886474609375Q1078.8825073242188 -54.10711669921875 1075.1917419433594 -47.955841064453125Q1071.5009765625 -41.8045654296875 1065.3497009277344 -38.113800048828125Q1059.1984252929688 -34.42303466796875 1051.81689453125 -34.42303466796875Q1044.24609375 -34.42303466796875 1038.0948181152344 -38.113800048828125Q1031.9435424804688 -41.8045654296875 1028.2527770996094 -47.955841064453125Q1024.56201171875 -54.10711669921875 1024.56201171875 -61.4886474609375Q1024.56201171875 -69.0594482421875 1028.2527770996094 -75.21072387695312Q1031.9435424804688 -81.36199951171875 1038.0948181152344 -85.05276489257812Q1044.24609375 -88.7435302734375 1051.81689453125 -88.7435302734375Q1059.1984252929688 -88.7435302734375 1065.3497009277344 -85.05276489257812Q1071.5009765625 -81.36199951171875 1075.1917419433594 -75.21072387695312Q1078.8825073242188 -69.0594482421875 1078.8825073242188 -61.4886474609375Z" fill="#000000" />
<path d="M996.8825073242188 829.5113525390625Q996.8825073242188 836.8928833007812 993.1917419433594 843.0441589355469Q989.5009765625 849.1954345703125 983.3497009277344 852.8861999511719Q977.1984252929688 856.5769653320312 969.81689453125 856.5769653320312Q962.24609375 856.5769653320312 956.0948181152344 852.8861999511719Q949.9435424804688 849.1954345703125 946.2527770996094 843.0441589355469Q942.56201171875 836.8928833007812 942.56201171875 829.5113525390625Q942.56201171875 821.9405517578125 946.2527770996094 815.7892761230469Q949.9435424804688 809.6380004882812 956.0948181152344 805.9472351074219Q962.24609375 802.2564697265625 969.81689453125 802.2564697265625Q977.1984252929688 802.2564697265625 983.3497009277344 805.9472351074219Q989.5009765625 809.6380004882812 993.1917419433594 815.7892761230469Q996.8825073242188 821.9405517578125 996.8825073242188 829.5113525390625Z" fill="#000000" />
<path d="M787.8825073242188 829.5113525390625Q787.8825073242188 836.8928833007812 784.1917419433594 843.0441589355469Q780.5009765625 849.1954345703125 774.3497009277344 852.8861999511719Q768.1984252929688 856.5769653320312 760.81689453125 856.5769653320312Q753.24609375 856.5769653320312 747.0948181152344 852.8861999511719Q740.9435424804688 849.1954345703125 737.2527770996094 843.0441589355469Q733.56201171875 836.8928833007812 733.56201171875 829.5113525390625Q733.56201171875 821.9405517578125 737.2527770996094 815.7892761230469Q740.9435424804688 809.6380004882812 747.0948181152344 805.9472351074219Q753.24609375 802.2564697265625 760.81689453125 802.2564697265625Q768.1984252929688 802.2564697265625 774.3497009277344 805.9472351074219Q780.5009765625 809.6380004882812 784.1917419433594 815.7892761230469Q787.8825073242188 821.9405517578125 787.8825073242188 829.5113525390625Z" fill="#000000" />
<path d="M996.8825073242188 560.5113525390625Q996.8825073242188 567.8928833007812 993.1917419433594 574.0441589355469Q989.5009765625 580.1954345703125 983.3497009277344 583.8861999511719Q977.1984252929688 587.5769653320312 969.81689453125 587.5769653320312Q962.24609375 587.5769653320312 956.0948181152344 583.8861999511719Q949.9435424804688 580.1954345703125 946.2527770996094 574.0441589355469Q942.56201171875 567.8928833007812 942.56201171875 560.5113525390625Q942.56201171875 552.9405517578125 946.2527770996094 546.7892761230469Q949.9435424804688 540.6380004882812 956.0948181152344 536.9472351074219Q962.24609375 533.2564697265625 969.81689453125 533.2564697265625Q977.1984252929688 533.2564697265625 983.3497009277344 536.9472351074219Q989.5009765625 540.6380004882812 993.1917419433594 546.7892761230469Q996.8825073242188 552.9405517578125 996.8825073242188 560.5113525390625Z" fill="#000000" />
<path d="M896.828369140625 440.47216796875Q896.828369140625 447.851318359375 893.1387939453125 454.0006103515625Q889.44921875 460.14990234375 883.2999267578125 463.8394775390625Q877.150634765625 467.529052734375 869.771484375 467.529052734375Q862.203125 467.529052734375 856.0538330078125 463.8394775390625Q849.904541015625 460.14990234375 846.2149658203125 454.0006103515625Q842.525390625 447.851318359375 842.525390625 440.47216796875Q842.525390625 432.90380859375 846.2149658203125 426.7545166015625Q849.904541015625 420.605224609375 856.0538330078125 416.9156494140625Q862.203125 413.22607421875 869.771484375 413.22607421875Q877.150634765625 413.22607421875 883.2999267578125 416.9156494140625Q889.44921875 420.605224609375 893.1387939453125 426.7545166015625Q896.828369140625 432.90380859375 896.828369140625 440.47216796875Z" fill="#000000" />
<path d="M996.8825073242188 309.5113525390625Q996.8825073242188 316.89288330078125 993.1917419433594 323.0441589355469Q989.5009765625 329.1954345703125 983.3497009277344 332.8861999511719Q977.1984252929688 336.57696533203125 969.81689453125 336.57696533203125Q962.24609375 336.57696533203125 956.0948181152344 332.8861999511719Q949.9435424804688 329.1954345703125 946.2527770996094 323.0441589355469Q942.56201171875 316.89288330078125 942.56201171875 309.5113525390625Q942.56201171875 301.9405517578125 946.2527770996094 295.7892761230469Q949.9435424804688 289.63800048828125 956.0948181152344 285.9472351074219Q962.24609375 282.2564697265625 969.81689453125 282.2564697265625Q977.1984252929688 282.2564697265625 983.3497009277344 285.9472351074219Q989.5009765625 289.63800048828125 993.1917419433594 295.7892761230469Q996.8825073242188 301.9405517578125 996.8825073242188 309.5113525390625Z" fill="#000000" />
<path d="M984.8825073242188 82.5113525390625Q984.8825073242188 89.89288330078125 981.1917419433594 96.04415893554688Q977.5009765625 102.1954345703125 971.3497009277344 105.88619995117188Q965.1984252929688 109.57696533203125 957.81689453125 109.57696533203125Q950.24609375 109.57696533203125 944.0948181152344 105.88619995117188Q937.9435424804688 102.1954345703125 934.2527770996094 96.04415893554688Q930.56201171875 89.89288330078125 930.56201171875 82.5113525390625Q930.56201171875 74.9405517578125 934.2527770996094 68.78927612304688Q937.9435424804688 62.63800048828125 944.0948181152344 58.947235107421875Q950.24609375 55.2564697265625 957.81689453125 55.2564697265625Q965.1984252929688 55.2564697265625 971.3497009277344 58.947235107421875Q977.5009765625 62.63800048828125 981.1917419433594 68.78927612304688Q984.8825073242188 74.9405517578125 984.8825073242188 82.5113525390625Z" fill="#000000" />
<path d="M908.828369140625 -61.52783203125Q908.828369140625 -54.148681640625 905.1387939453125 -47.9993896484375Q901.44921875 -41.85009765625 895.2999267578125 -38.1605224609375Q889.150634765625 -34.470947265625 881.771484375 -34.470947265625Q874.203125 -34.470947265625 868.0538330078125 -38.1605224609375Q861.904541015625 -41.85009765625 858.2149658203125 -47.9993896484375Q854.525390625 -54.148681640625 854.525390625 -61.52783203125Q854.525390625 -69.09619140625 858.2149658203125 -75.2454833984375Q861.904541015625 -81.394775390625 868.0538330078125 -85.0843505859375Q874.203125 -88.77392578125 881.771484375 -88.77392578125Q889.150634765625 -88.77392578125 895.2999267578125 -85.0843505859375Q901.44921875 -81.394775390625 905.1387939453125 -75.2454833984375Q908.828369140625 -69.09619140625 908.828369140625 -61.52783203125Z" fill="#000000" />
<path d="M787.8825073242188 309.5113525390625Q787.8825073242188 316.89288330078125 784.1917419433594 323.0441589355469Q780.5009765625 329.1954345703125 774.3497009277344 332.8861999511719Q768.1984252929688 336.57696533203125 760.81689453125 336.57696533203125Q753.24609375 336.57696533203125 747.0948181152344 332.8861999511719Q740.9435424804688 329.1954345703125 737.2527770996094 323.0441589355469Q733.56201171875 316.89288330078125 733.56201171875 309.5113525390625Q733.56201171875 301.9405517578125 737.2527770996094 295.7892761230469Q740.9435424804688 289.63800048828125 747.0948181152344 285.9472351074219Q753.24609375 282.2564697265625 760.81689453125 282.2564697265625Q768.1984252929688 282.2564697265625 774.3497009277344 285.9472351074219Q780.5009765625 289.63800048828125 784.1917419433594 295.7892761230469Q787.8825073242188 301.9405517578125 787.8825073242188 309.5113525390625Z" fill="#000000" />
</g></svg>