<svg xmlns="http://www.w3.org/2000/svg" viewBox="0 0 2048 2048">
<g transform="matrix(1 0 0 -1 0 2048)">
<path d="M461 356H483L454 488L465 540L466 582L478 590L539 616L575 644L620 668L683 710L723 704Q723 704 730.5 695.0Q738 686 748.0 675.0Q758 664 765.0 656.0Q772 648 770 649Q769 651 776.5 644.5Q784 638 792.5 630.5Q801 623 801 623L844 565L841 521L843 439Q843 439 858.0 456.0Q873 473 887.5 511.0Q902 549 902 613Q902 668 872.5 718.5Q843 769 785.5 801.5Q728 834 645 834Q562 834 505.0 801.5Q448 769 418.0 718.5Q388 668 388 613Q388 549 395.0 490.0Q402 431 418.0 393.5Q434 356 461 356Z" fill="#f1b31c" />
<path d="M444 517Q444 559 444.5 578.0Q445 597 446.0 601.5Q447 606 447 606Q510 615 556.0 633.0Q602 651 640.5 674.5Q679 698 721 724Q721 724 729.0 708.5Q737 693 751.5 669.0Q766 645 786.0 620.5Q806 596 830 577Q849 540 847 498Q847 271 657 271Q593 271 545.0 301.0Q497 331 470.5 386.5Q444 442 444 517Z" fill="#fcea2b" />
<path d="M865 193Q895 179 925.0 153.5Q955 128 975.0 91.5Q995 55 995 6V-73H298V6Q298 24 301 43L305 102L298 101L309 145L312 196L320 195L330 235L484 326L607 128Q637 112 668.0 101.5Q699 91 731.5 93.5Q764 96 797.5 119.0Q831 142 865 193Z" fill="#92d3f5" />
<path d="M484 326 919 449 945 494 984 538 1030 549H1074L1191 474L1176 421L1135 396L1071 430L995 365L588 140Z" fill="#fcea2b" />
<path d="M371 540Q371 522 390 522Q408 522 408 540V577Q408 673 470 741Q537 815 646 815Q743 817 813 750Q883 683 885 586Q885 581 885 577V547V546Q885 537 889 533Q894 528 903 528Q921 528 921 546V547V577Q921 581 921 586Q919 698 839 776Q758 854 646 852Q520 852 442 766Q371 687 371 577Z" fill="#000000" />
<path d="M829 502Q830 484 848 485Q857 486 862 491Q866 495 866 505Q863 546 846 584Q845 587 843 590Q788 644 716 735Q704 749 690 738Q679 730 657 713Q549 628 460 613Q454 612 450 609Q428 587 425 503Q425 484 443 484Q461 483 462 502Q464 563 473 578Q568 597 680 684Q690 692 698 698Q764 617 814 566Q827 536 829 502Z" fill="#000000" />
<path d="M870 201Q853 207 847 189Q842 171 860 166Q976 130 976 27V-73Q976 -91 995 -91Q1013 -91 1013 -73V27Q1013 87 970 137Q930 183 870 201Z" fill="#000000" />
<path d="M1003 350Q1018 360 1008 376Q999 391 983 382L719 216Q617 153 504 114L418 85Q410 82 407 76Q404 70 407 61Q413 44 430 50L515 79Q633 120 738 185Z" fill="#000000" />
<path d="M1086 444Q1071 454 1061 438Q1052 422 1067 413L1100 393Q1143 367 1181 399Q1232 443 1189 495Q1145 545 1083 565Q1028 584 978 557Q969 552 961 545L952 537Q941 527 934 514L924 492Q915 474 898 464Q766 438 642 389L394 297Q299 262 287 161Q275 52 278 -56Q278 -65 283 -70Q288 -74 297 -74Q315 -74 315 -55Q312 51 323 156Q333 235 407 263L655 355Q778 403 908 429H910L913 431Q942 446 957 476L967 497Q971 504 977 510L986 518Q990 522 995 525Q1031 544 1071 530Q1124 513 1161 471Q1180 447 1157 427Q1139 412 1120 424Z" fill="#000000" />
<path d="M543 520Q527 529 517 514Q508 498 524 488Q582 453 620 491Q627 498 627 504Q627 511 620 517Q607 530 594 517Q577 500 543 520Z" fill="#000000" />
<path d="M695 524Q680 534 670 518Q661 502 676 493Q735 458 773 495Q786 508 773 521Q766 528 760 528Q754 528 747 521Q729 504 695 524Z" fill="#000000" />
<path d="M487 338Q496 340 499 346Q503 352 500 360Q496 378 478 374Q467 371 453 378Q423 394 418 459Q416 477 398 475Q389 474 385 470Q381 465 381 455Q388 371 436 345Q462 332 487 338Z" fill="#000000" />
<path d="M551 266Q552 284 533 284Q524 284 519 279Q515 275 515 266Q515 207 563 186Q580 178 587 195Q594 212 578 219Q551 231 551 266Z" fill="#000000" />
<path d="M666 127Q648 129 645 111Q643 93 661 90Q765 76 868 161Q882 173 871 187Q859 201 845 190Q754 114 666 127Z" fill="#000000" />
</g></svg>