<svg xmlns="http://www.w3.org/2000/svg" viewBox="0 0 2048 2048">
<g transform="matrix(1 0 0 -1 0 2048)">
<path d="M196 567 102 166Q100 161 101 156Q101 145 110.0 137.0Q119 129 130 130H1066Q1082 131 1094.5 140.5Q1107 150 1112 166L1211 568Q1213 572 1212 578Q1212 589 1203.5 596.5Q1195 604 1183 603H241Q225 603 212.5 593.0Q200 583 196 567Z" fill="#fcea2b" />
<path d="M1104 153Q1098 129 1073 130H183Q450 165 711 235Q945 302 1168 400Z" fill="#f1b31c" />
<path d="M347 368 162 147Q170 145 177.5 145.0Q185 145 192 145L303 146L502 367L350 590H236Q229 584 219.5 582.5Q210 581 217 571Z" fill="#000000" />
<path d="M655 367 457 130H612L810 366L658 603H504Z" fill="#000000" />
<path d="M948 365 749 130H904L1102 365L951 603H797Z" fill="#000000" />
<path d="M179 572Q178 572 178 572L84 171Q82 163 82 155Q85 109 131 112H1066Q1066 112 1067 112Q1116 114 1129 161Q1129 161 1129 161L1229 563Q1231 571 1231 579Q1228 624 1183 621H241Q241 621 241 621Q192 620 179 572ZM214 563Q220 584 242 585H1183Q1184 585 1184 585Q1193 585 1194 576Q1194 575 1194 573Q1193 573 1193 572L1094 171Q1088 150 1066 148H130Q130 148 129 148Q120 148 119 157Q119 159 119 161Q120 161 120 162Z" fill="#000000" />
<path d="M287 613Q277 629 262 619Q246 609 256 593L401 369L211 142Q205 135 205 128Q206 122 213 116Q227 104 239 118L437 356Q446 366 439 377Z" fill="#000000" />
<path d="M595 613Q585 628 570 619Q554 609 564 593L709 367L519 142Q507 128 521 116Q535 104 547 118L745 354Q754 364 747 376Z" fill="#000000" />
<path d="M887 613Q883 621 876 622Q870 624 862 619Q847 609 856 593L1001 366L811 142Q799 128 813 116Q827 104 839 118L1038 353Q1046 363 1039 374Z" fill="#000000" />
</g></svg>