<svg xmlns="http://www.w3.org/2000/svg" viewBox="0 0 2048 2048">
<g transform="matrix(1 0 0 -1 0 2048)">
<path d="M825 257Q843 257 843 275Q843 293 825 293H477Q458 293 458 275Q458 257 477 257Z" fill="#000000" />
<path d="M825 587Q843 587 843 605Q843 623 825 623H468Q449 623 449 605Q449 587 468 587Z" fill="#000000" />
<path d="M834 715Q853 715 853 733Q853 752 834 752H461Q443 752 443 733Q443 715 461 715Z" fill="#000000" />
<path d="M404 806 406 752 431 -20Q432 -34 442.5 -44.5Q453 -55 468 -55H831Q846 -55 856.5 -44.5Q867 -34 868 -20L896 752L898 806Q898 814 892.5 819.5Q887 825 879 825H422Q415 825 409.5 819.5Q404 814 404 806Z" fill="#ffffff" />
<path d="M441 733 467 -1Q468 -18 485 -18H799Q814 -18 824.5 -8.0Q835 2 835 17L861 733Q861 740 855.5 746.0Q850 752 843 752H459Q451 752 445.5 746.0Q440 740 441 733Z" fill="#a57939" />
<path d="M845 293 861 733Q861 740 855.5 746.0Q850 752 843 752H459Q451 752 445.5 746.0Q440 740 441 733L456 293Z" fill="#6a462f" />
<path d="M857 623 861 733Q861 740 855.5 746.0Q850 752 843 752H459Q451 752 445.5 746.0Q440 740 441 733L445 623Z" fill="#ffffff" />
<path d="M896 752V733H877V752ZM896 752V770H915L914 751ZM406 752V770H424V752ZM406 752V733H388L387 751ZM422 843V807L386 805Q385 821 396.0 832.0Q407 843 422 843ZM879 843V807H422V843ZM916 805 879 807V843Q895 843 906.0 832.0Q917 821 916 805ZM914 751 877 752 879 807 916 805ZM877 752 914 751 886 -20 850 -19ZM850 -19 886 -20Q885 -43 869.0 -58.0Q853 -73 831 -73V-37Q849 -37 850 -19ZM831 -37V-73H468V-37ZM468 -37V-73Q446 -73 430.0 -57.5Q414 -42 413 -20L450 -19Q450 -37 468 -37ZM450 -19 413 -20 387 751 424 752ZM386 805 422 807 424 752 387 751Z" fill="#000000" />
<path d="M623 18Q605 18 605 0Q605 -18 623 -18H798Q834 -18 835 17L862 769Q862 779 858 783Q853 788 844 788Q826 789 825 771L798 18Z" fill="#000000" />
</g></svg>