<svg xmlns="http://www.w3.org/2000/svg" viewBox="0 0 2048 2048">
<g transform="matrix(1 0 0 -1 0 2048)">
<path d="M770.755615234375 331.70361328125Q770.755615234375 342.377197265625 765.4188232421875 351.2718505859375Q760.08203125 360.16650390625 751.1873779296875 365.5032958984375Q742.292724609375 370.840087890625 731.619140625 370.840087890625Q720.671875 370.840087890625 711.7772216796875 365.5032958984375Q702.882568359375 360.16650390625 697.5457763671875 351.2718505859375Q692.208984375 342.377197265625 692.208984375 331.70361328125Q692.208984375 320.75634765625 697.5457763671875 311.8616943359375Q702.882568359375 302.967041015625 711.7772216796875 297.6302490234375Q720.671875 292.29345703125 731.619140625 292.29345703125Q742.292724609375 292.29345703125 751.1873779296875 297.6302490234375Q760.08203125 302.967041015625 765.4188232421875 311.8616943359375Q770.755615234375 320.75634765625 770.755615234375 331.70361328125Z" fill="#fcea2b" />
<path d="M883.755615234375 331.70361328125Q883.755615234375 342.377197265625 878.4188232421875 351.2718505859375Q873.08203125 360.16650390625 864.1873779296875 365.5032958984375Q855.292724609375 370.840087890625 844.619140625 370.840087890625Q833.671875 370.840087890625 824.7772216796875 365.5032958984375Q815.882568359375 360.16650390625 810.5457763671875 351.2718505859375Q805.208984375 342.377197265625 805.208984375 331.70361328125Q805.208984375 320.75634765625 810.5457763671875 311.8616943359375Q815.882568359375 302.967041015625 824.7772216796875 297.6302490234375Q833.671875 292.29345703125 844.619140625 292.29345703125Q855.292724609375 292.29345703125 864.1873779296875 297.6302490234375Q873.08203125 302.967041015625 878.4188232421875 311.8616943359375Q883.755615234375 320.75634765625 883.755615234375 331.70361328125Z" fill="#fcea2b" />
<path d="M993.755615234375 321.70361328125Q993.755615234375 332.377197265625 988.4188232421875 341.2718505859375Q983.08203125 350.16650390625 974.1873779296875 355.5032958984375Q965.292724609375 360.840087890625 954.619140625 360.840087890625Q943.671875 360.840087890625 934.7772216796875 355.5032958984375Q925.882568359375 350.16650390625 920.5457763671875 341.2718505859375Q915.208984375 332.377197265625 915.208984375 321.70361328125Q915.208984375 310.75634765625 920.5457763671875 301.8616943359375Q925.882568359375 292.967041015625 934.7772216796875 287.6302490234375Q943.671875 282.29345703125 954.619140625 282.29345703125Q965.292724609375 282.29345703125 974.1873779296875 287.6302490234375Q983.08203125 292.967041015625 988.4188232421875 301.8616943359375Q993.755615234375 310.75634765625 993.755615234375 321.70361328125Z" fill="#fcea2b" />
<path d="M678.6238403320312 825.3275146484375Q678.6238403320312 845.2726440429688 668.6512756347656 861.8935852050781Q658.6787109375 878.5145263671875 642.0577697753906 888.4870910644531Q625.4368286132812 898.4596557617188 605.49169921875 898.4596557617188Q585.03515625 898.4596557617188 568.4142150878906 888.4870910644531Q551.7932739257812 878.5145263671875 541.8207092285156 861.8935852050781Q531.84814453125 845.2726440429688 531.84814453125 825.3275146484375Q531.84814453125 804.8709716796875 541.8207092285156 788.2500305175781Q551.7932739257812 771.6290893554688 568.4142150878906 761.6565246582031Q585.03515625 751.6839599609375 605.49169921875 751.6839599609375Q625.4368286132812 751.6839599609375 642.0577697753906 761.6565246582031Q658.6787109375 771.6290893554688 668.6512756347656 788.2500305175781Q678.6238403320312 804.8709716796875 678.6238403320312 825.3275146484375Z" fill="#92d3f5" />
<path d="M678.2584838867188 697.2750244140625Q678.2584838867188 712.2356567382812 670.7781677246094 724.7028503417969Q663.2978515625 737.1700439453125 650.8306579589844 744.6503601074219Q638.3634643554688 752.1306762695312 623.40283203125 752.1306762695312Q608.05859375 752.1306762695312 595.5914001464844 744.6503601074219Q583.1242065429688 737.1700439453125 575.6438903808594 724.7028503417969Q568.16357421875 712.2356567382812 568.16357421875 697.2750244140625Q568.16357421875 681.9307861328125 575.6438903808594 669.4635925292969Q583.1242065429688 656.9963989257812 595.5914001464844 649.5160827636719Q608.05859375 642.0357666015625 623.40283203125 642.0357666015625Q638.3634643554688 642.0357666015625 650.8306579589844 649.5160827636719Q663.2978515625 656.9963989257812 670.7781677246094 669.4635925292969Q678.2584838867188 681.9307861328125 678.2584838867188 697.2750244140625Z" fill="#fcea2b" />
<path d="M619 696Q601 696 588.0 679.0Q575 662 575 638V332Q575 309 588.0 292.0Q601 275 619 275Q637 275 650.0 292.0Q663 309 663 332V638Q663 662 650.0 679.0Q637 696 619 696Z" fill="#fcea2b" />
<path d="M528 6Q523 12 521 20Q521 20 519.5 27.5Q518 35 516.0 42.5Q514 50 514 50Q511 68 522.5 82.5Q534 97 552 97L946 105Q965 105 977.0 91.0Q989 77 986 59L981 30Q979 20 974 12L908 -77Q902 -86 891 -90L795 -128Q787 -132 778 -131L675 -121Q665 -120 657 -115L584 -66Q578 -63 574 -57Z" fill="#fcea2b" />
<path d="M529 144Q544 142 556.0 151.5Q568 161 569 176L577 258Q578 263 576 268L566 314Q564 323 558 330L528 363Q519 372 507 374L441 383Q423 386 411 374L405 368Q396 360 395.0 347.5Q394 335 400 324L423 289L505 160Q513 147 529 144Z" fill="#fcea2b" />
<path d="M574 305Q574 319 584.5 329.0Q595 339 610 339H957Q971 339 981.5 329.0Q992 319 992 305V70Q992 56 981.5 46.5Q971 37 957 37H539Q524 37 513.5 46.5Q503 56 503 70V236Q503 250 513.5 260.0Q524 270 539 270Q554 270 564.0 280.0Q574 290 574 303Z" fill="#fcea2b" />
<path d="M1008 744Q959 777 911.5 795.5Q864 814 826.5 821.5Q789 829 766.5 830.5Q744 832 744 832Z" fill="#000000" />
<path d="M744 851Q725 851 725 832Q725 814 744 814Q870 814 998 729Q1013 719 1023 734Q1028 742 1027 748Q1026 754 1018 760Q881 851 744 851Z" fill="#000000" />
<path d="M215 744Q265 777 312.0 795.5Q359 814 397.0 821.5Q435 829 457.0 830.5Q479 832 479 832Z" fill="#000000" />
<path d="M479 814Q498 814 498 832Q498 851 479 851Q342 851 205 760Q197 754 196 748Q195 742 200 734Q210 719 225 729Q353 814 479 814Z" fill="#000000" />
<path d="M1019 865Q1018 874 1013 878Q1007 881 998 880Q980 876 983 858L1007 726Q1009 717 1014 713Q1020 709 1029 711Q1047 714 1043 732Z" fill="#000000" />
<path d="M889.0 723.0Q880.0 722.0 876.0 717.0Q873.0 711.0 874.0 702.0Q878.0 684.0 896.0 687.0L1028.0 711.0Q1037.0 713.0 1041.0 718.0Q1045.0 724.0 1043.0 733.0Q1040.0 751.0 1022.0 747.0Z" fill="#000000" />
<path d="M244 858Q248 876 230 880Q212 883 208 865L184 732Q181 714 199 711Q208 709 213 713Q219 717 220 726Z" fill="#000000" />
<path d="M332 687Q350 684 353 702Q356 720 338 723L206 747Q188 750 184 732Q183 723 186 718Q190 713 199 711Z" fill="#000000" />
<path d="M1027 118Q1027 137 1009 137Q990 137 990 118Q990 19 920 -52Q849 -123 750 -123Q650 -123 579 -52Q509 19 509 118Q509 127 504 132Q500 137 490 137Q472 137 472 118Q472 3 553 -78Q635 -159 750 -159Q865 -159 946 -78Q1027 3 1027 118Z" fill="#000000" />
<path d="M990 132Q990 114 1009 114Q1027 114 1027 132V321Q1027 339 1009 339Q990 339 990 321Z" fill="#000000" />
<path d="M880 326Q880 308 898 307Q916 307 917 325Q918 340 929 350Q940 361 955 360Q970 359 981 348Q991 337 990 322Q990 303 1008 303Q1026 302 1027 320Q1028 351 1008 373Q987 395 957 397Q926 398 904 377Q882 357 880 326Z" fill="#000000" />
<path d="M770.2808227539062 330.2445068359375Q769.4829711914062 311.23175048828125 787.4950561523438 310.47589111328125Q806.5078125 309.67803955078125 807.3056640625 328.6907958984375Q808.8173828125 364.7149658203125 844.841552734375 363.2032470703125Q881.8663940429688 361.6495361328125 880.3546752929688 325.6253662109375Q879.5568237304688 306.61260986328125 897.5689086914062 305.85675048828125Q916.5816650390625 305.05889892578125 917.3795166015625 324.0716552734375Q920.4449462890625 397.12066650390625 846.395263671875 400.22808837890625Q773.3462524414062 403.29351806640625 770.2808227539062 330.2445068359375Z" fill="#000000" />
<path d="M770 333Q769 315 787 313Q805 312 807 330Q808 345 820 355Q831 365 846 364Q862 362 871 351Q881 339 880 324Q879 306 897 304Q915 303 917 321Q919 351 899 375Q880 398 849 400Q819 403 796 383Q773 363 770 333Z" fill="#000000" />
<path d="M659.4493408203125 338.04400634765625Q658.2282104492188 319.05328369140625 676.2194213867188 317.89642333984375Q695.2101440429688 316.67529296875 696.4312744140625 335.666015625Q698.7449951171875 371.6484375 734.7274169921875 369.334716796875Q771.7093505859375 366.95672607421875 769.3956298828125 330.97430419921875Q768.1744995117188 311.98358154296875 786.1657104492188 310.82672119140625Q805.1564331054688 309.6055908203125 806.3775634765625 328.5963134765625Q811.0692749023438 401.5606689453125 737.1054077148438 406.316650390625Q664.1410522460938 411.00836181640625 659.4493408203125 338.04400634765625Z" fill="#000000" />
<path d="M397 289Q410 276 423 289Q430 295 430 302Q430 308 424 315Q413 326 413 341Q414 356 425 367Q451 392 477 366Q483 359 490 359Q496 359 503 365Q516 378 503 391Q452 444 399 393Q377 372 377 341Q376 311 397 289Z" fill="#000000" />
<path d="M549 689Q549 671 567 671Q586 671 586 689Q586 726 622 726Q659 726 659 689Q659 671 678 671Q696 671 696 689Q696 763 622 763Q592 763 571 741Q549 720 549 689Z" fill="#000000" />
<path d="M659 337Q659 319 678 319Q696 319 696 337V689Q696 708 678 708Q659 708 659 689Z" fill="#000000" />
<path d="M586 689Q586 708 567 708Q549 708 549 689V252Q549 233 567 233Q586 233 586 252Z" fill="#000000" />
<path d="M507 331Q519 318 533 330Q540 336 540 342Q541 349 534 356L504 391Q491 404 478 392Q471 386 470 380Q470 373 476 366Z" fill="#000000" />
<path d="M452 278Q446 284 439 285Q433 285 426 279Q413 267 425 253Q473 200 472 116Q472 97 490 97Q508 97 509 115Q510 214 452 278Z" fill="#000000" />
<path d="M425 313Q420 320 413 321Q407 322 399 316Q385 305 396 291L425 253Q430 246 437 245Q443 244 450 250Q465 261 454 276Z" fill="#000000" />
<path d="M636 805Q631 798 632 791Q634 785 641 780Q657 770 667 785Q678 803 678 825Q678 898 605 898Q532 898 532 825Q532 795 553 773Q566 760 579 773Q586 780 586 786Q586 793 579 799Q568 810 568 825Q568 862 605 862Q642 862 642 825Q642 814 636 805Z" fill="#000000" />
</g></svg>