<svg xmlns="http://www.w3.org/2000/svg" viewBox="0 0 2048 2048">
<g transform="matrix(1 0 0 -1 0 2048)">
<path d="M678.6238403320312 825.3275146484375Q678.6238403320312 845.2726440429688 668.6512756347656 861.8935852050781Q658.6787109375 878.5145263671875 642.0577697753906 888.4870910644531Q625.4368286132812 898.4596557617188 605.49169921875 898.4596557617188Q585.03515625 898.4596557617188 568.4142150878906 888.4870910644531Q551.7932739257812 878.5145263671875 541.8207092285156 861.8935852050781Q531.84814453125 845.2726440429688 531.84814453125 825.3275146484375Q531.84814453125 804.8709716796875 541.8207092285156 788.2500305175781Q551.7932739257812 771.6290893554688 568.4142150878906 761.6565246582031Q585.03515625 751.6839599609375 605.49169921875 751.6839599609375Q625.4368286132812 751.6839599609375 642.0577697753906 761.6565246582031Q658.6787109375 771.6290893554688 668.6512756347656 788.2500305175781Q678.6238403320312 804.8709716796875 678.6238403320312 825.3275146484375Z" fill="#92d3f5" />
<path d="M733 370Q714 370 701.5 357.0Q689 344 689 326V315H776V326Q776 344 763.5 357.0Q751 370 733 370Z" fill="#fcea2b" />
<path d="M840 366Q822 366 809.0 353.5Q796 341 796 323V311H883V323Q883 341 870.5 353.5Q858 366 840 366Z" fill="#fcea2b" />
<path d="M991 300V327Q991 345 981.0 352.5Q971 360 958 361H955Q916 361 916 325V299Z" fill="#fcea2b" />
<path d="M534 1Q532 5 531 8L514 49Q513 52 512 56L505 88Q505 90 504 92L496 167Q496 170 495 173L482 217Q481 223 477 228L415 319Q410 326 409 335Q405 362 430 374L443 380Q454 385 466 383L508 374Q519 372 528 363L563 325Q564 323 565 322L583 299L584 648L585 677Q583 682 583.5 686.0Q584 690 585 695Q585 709 599.5 719.0Q614 729 626 728Q645 727 654.5 715.0Q664 703 663 685Q663 680 663.5 678.0Q664 676 662 671L664 669V357Q664 342 675.0 331.0Q686 320 701 320L959 316Q974 315 985.0 304.0Q996 293 996 278L994 114Q994 113 992.5 99.5Q991 86 991 86L985 58Q985 53 982.5 44.5Q980 36 978 32L961 -3Q960 -4 955.5 -11.0Q951 -18 946.0 -25.0Q941 -32 940 -33L904 -70Q902 -72 893.5 -77.5Q885 -83 876.5 -88.5Q868 -94 866 -95L808 -120Q805 -122 794.0 -123.0Q783 -124 772.0 -125.0Q761 -126 758 -125L672 -115Q663 -114 656 -109L572 -50Q567 -46 563 -41Z" fill="#fcea2b" />
<path d="M1008 744Q959 777 911.5 795.5Q864 814 826.5 821.5Q789 829 766.5 830.5Q744 832 744 832Z" fill="#000000" />
<path d="M744 851Q725 851 725 832Q725 814 744 814Q870 814 998 729Q1013 719 1023 734Q1028 742 1027 748Q1026 754 1018 760Q881 851 744 851Z" fill="#000000" />
<path d="M1019 865Q1018 874 1013 878Q1007 881 998 880Q980 876 983 858L1007 726Q1009 717 1014 713Q1020 709 1029 711Q1047 714 1043 732Z" fill="#000000" />
<path d="M889.0 723.0Q880.0 722.0 876.0 717.0Q873.0 711.0 874.0 702.0Q878.0 684.0 896.0 687.0L1028.0 711.0Q1037.0 713.0 1041.0 718.0Q1045.0 724.0 1043.0 733.0Q1040.0 751.0 1022.0 747.0Z" fill="#000000" />
<path d="M1027 118Q1027 137 1009 137Q990 137 990 118Q990 19 920 -52Q849 -123 750 -123Q650 -123 579 -52Q509 19 509 118Q509 127 504 132Q500 137 490 137Q472 137 472 118Q472 3 553 -78Q635 -159 750 -159Q865 -159 946 -78Q1027 3 1027 118Z" fill="#000000" />
<path d="M990 132Q990 114 1009 114Q1027 114 1027 132V321Q1027 339 1009 339Q990 339 990 321Z" fill="#000000" />
<path d="M880 326Q880 308 898 307Q916 307 917 325Q918 340 929 350Q940 361 955 360Q970 359 981 348Q991 337 990 322Q990 303 1008 303Q1026 302 1027 320Q1028 351 1008 373Q987 395 957 397Q926 398 904 377Q882 357 880 326Z" fill="#000000" />
<path d="M770.2808227539062 330.2445068359375Q769.4829711914062 311.23175048828125 787.4950561523438 310.47589111328125Q806.5078125 309.67803955078125 807.3056640625 328.6907958984375Q808.8173828125 364.7149658203125 844.841552734375 363.2032470703125Q881.8663940429688 361.6495361328125 880.3546752929688 325.6253662109375Q879.5568237304688 306.61260986328125 897.5689086914062 305.85675048828125Q916.5816650390625 305.05889892578125 917.3795166015625 324.0716552734375Q920.4449462890625 397.12066650390625 846.395263671875 400.22808837890625Q773.3462524414062 403.29351806640625 770.2808227539062 330.2445068359375Z" fill="#000000" />
<path d="M770 333Q769 315 787 313Q805 312 807 330Q808 345 820 355Q831 365 846 364Q862 362 871 351Q881 339 880 324Q879 306 897 304Q915 303 917 321Q919 351 899 375Q880 398 849 400Q819 403 796 383Q773 363 770 333Z" fill="#000000" />
<path d="M659.4493408203125 338.04400634765625Q658.2282104492188 319.05328369140625 676.2194213867188 317.89642333984375Q695.2101440429688 316.67529296875 696.4312744140625 335.666015625Q698.7449951171875 371.6484375 734.7274169921875 369.334716796875Q771.7093505859375 366.95672607421875 769.3956298828125 330.97430419921875Q768.1744995117188 311.98358154296875 786.1657104492188 310.82672119140625Q805.1564331054688 309.6055908203125 806.3775634765625 328.5963134765625Q811.0692749023438 401.5606689453125 737.1054077148438 406.316650390625Q664.1410522460938 411.00836181640625 659.4493408203125 338.04400634765625Z" fill="#000000" />
<path d="M397 289Q410 276 423 289Q430 295 430 302Q430 308 424 315Q413 326 413 341Q414 356 425 367Q451 392 477 366Q483 359 490 359Q496 359 503 365Q516 378 503 391Q452 444 399 393Q377 372 377 341Q376 311 397 289Z" fill="#000000" />
<path d="M549 689Q549 671 567 671Q586 671 586 689Q586 726 622 726Q659 726 659 689Q659 671 678 671Q696 671 696 689Q696 763 622 763Q592 763 571 741Q549 720 549 689Z" fill="#000000" />
<path d="M659 337Q659 319 678 319Q696 319 696 337V689Q696 708 678 708Q659 708 659 689Z" fill="#000000" />
<path d="M586 689Q586 708 567 708Q549 708 549 689V252Q549 233 567 233Q586 233 586 252Z" fill="#000000" />
<path d="M507 331Q519 318 533 330Q540 336 540 342Q541 349 534 356L504 391Q491 404 478 392Q471 386 470 380Q470 373 476 366Z" fill="#000000" />
<path d="M452 278Q446 284 439 285Q433 285 426 279Q413 267 425 253Q473 200 472 116Q472 97 490 97Q508 97 509 115Q510 214 452 278Z" fill="#000000" />
<path d="M425 313Q420 320 413 321Q407 322 399 316Q385 305 396 291L425 253Q430 246 437 245Q443 244 450 250Q465 261 454 276Z" fill="#000000" />
<path d="M636 805Q631 798 632 791Q634 785 641 780Q657 770 667 785Q678 803 678 825Q678 898 605 898Q532 898 532 825Q532 795 553 773Q566 760 579 773Q586 780 586 786Q586 793 579 799Q568 810 568 825Q568 862 605 862Q642 862 642 825Q642 814 636 805Z" fill="#000000" />
</g></svg>