<svg xmlns="http://www.w3.org/2000/svg" viewBox="0 0 2048 2048">
<g transform="matrix(1 0 0 -1 0 2048)">
<path d="M658 673V363H966V673Z" fill="#ffffff" />
<path d="M749 655V456H948V655Z" fill="#9b9b9a" />
<path d="M642 349 917 348H922H1006V-16H277V713H642Z" fill="#9b9b9a" />
<path d="M660 367V713Q660 731 642 731H277Q259 731 259 713V-16Q259 -34 277 -34H1006Q1024 -34 1024 -16V348Q1024 366 1006 366L922 367H917ZM623 349Q623 330 642 330H917H922H988V3H296V695H623Z" fill="#000000" />
<path d="M731 456Q731 438 749 438H948Q966 438 966 456V655Q966 673 948 673H749Q731 673 731 655ZM767 637H930V474H767Z" fill="#000000" />
<path d="M835 568Q823 556 835 543Q848 530 861 543L1081 763V660Q1081 642 1100 642Q1118 642 1118 660V807Q1118 814 1113 820Q1100 833 1087 820Z" fill="#000000" />
<path d="M954.0 825.0Q935.0 825.0 935.0 807.0Q935.0 789.0 954.0 789.0H1100.0Q1119.0 789.0 1119.0 807.0Q1119.0 825.0 1100.0 825.0Z" fill="#000000" />
</g></svg>