<svg xmlns="http://www.w3.org/2000/svg" viewBox="0 0 2048 2048">
<g transform="matrix(1 0 0 -1 0 2048)">
<path d="M333.62384033203125 647.3275146484375Q333.62384033203125 667.2726440429688 323.6512756347656 683.8935852050781Q313.6787109375 700.5145263671875 297.0577697753906 710.4870910644531Q280.43682861328125 720.4596557617188 260.49169921875 720.4596557617188Q240.03515625 720.4596557617188 223.41421508789062 710.4870910644531Q206.79327392578125 700.5145263671875 196.82070922851562 683.8935852050781Q186.84814453125 667.2726440429688 186.84814453125 647.3275146484375Q186.84814453125 626.8709716796875 196.82070922851562 610.2500305175781Q206.79327392578125 593.6290893554688 223.41421508789062 583.6565246582031Q240.03515625 573.6839599609375 260.49169921875 573.6839599609375Q280.43682861328125 573.6839599609375 297.0577697753906 583.6565246582031Q313.6787109375 593.6290893554688 323.6512756347656 610.2500305175781Q333.62384033203125 626.8709716796875 333.62384033203125 647.3275146484375Z" fill="#92d3f5" />
<path d="M705 140 650 161Q621 172 589 174L536 177Q519 178 506 189L504 191Q493 202 493 217Q493 232 503 241L507 245Q516 253 527 260L576 292L642 297L401 500L360 538Q355 540 350.0 545.5Q345 551 341 554Q335 560 333.0 571.0Q331 582 345 600Q348 603 361.5 609.0Q375 615 387 612Q402 607 407 599L409 597L691 392L898 616L1075 467Q1086 458 1093 446L1122 400Q1127 391 1130 384Q1140 354 1139 322L1137 279Q1136 253 1126 228L1108 188Q1095 159 1071 138L1055 123Q1018 91 973 75Q924 58 873 62L866 63Q829 67 795 80L781 85Z" fill="#fcea2b" />
<path d="M749 448Q751 449 749 451L745 455Q734 466 718.5 466.0Q703 466 692 455Q681 444 681.0 428.5Q681 413 692 402L696 398Q698 397 700 398Z" fill="#fcea2b" />
<path d="M826 530Q828 531 826 533L822 537Q811 548 795.5 548.0Q780 548 769 537Q758 526 758.0 510.5Q758 495 769 484L773 480Q775 479 777 480Z" fill="#fcea2b" />
<path d="M899 611Q901 612 899 614L895 618Q884 629 868.5 629.0Q853 629 842 618Q831 607 831.0 591.5Q831 576 842 565L846 561Q848 560 850 561Z" fill="#fcea2b" />
<path d="M1072 517Q1058 528 1047 514Q1041 507 1041 501Q1042 494 1049 489Q1125 424 1134 325Q1143 226 1079 149Q1014 73 915 64Q816 55 739 120Q725 131 713 117Q708 110 708 104Q709 97 716 92Q804 18 918 28Q1033 38 1107 126Q1181 214 1171 328Q1161 443 1072 517Z" fill="#000000" />
<path d="M1038.283203125 497.183837890625Q1052.071044921875 485.613037109375 1064.28466796875 500.1668701171875Q1075.85546875 513.9547119140625 1062.067626953125 525.5255126953125L917.2952880859375 647.0189208984375Q903.5074462890625 658.5897216796875 891.9366455078125 644.8018798828125Q879.7230224609375 630.248046875 893.5108642578125 618.67724609375Z" fill="#000000" />
<path d="M819 538Q825 532 832 532Q838 532 845 539Q857 553 843 565Q816 590 841 617Q851 628 867 629Q882 630 893 619Q900 613 906 613Q913 614 919 621Q931 634 918 646Q891 671 865 670Q839 669 814 642Q793 619 795 589Q796 559 819 538Z" fill="#000000" />
<path d="M745 456Q759 444 771 457Q777 464 777 470Q777 477 770 483Q743 508 767 535Q778 546 793 547Q808 548 819 537Q826 531 833 531Q839 532 845 539Q858 552 844 564Q822 585 791 584Q761 582 740 560Q691 505 745 456Z" fill="#000000" />
<path d="M743 458Q756 445 769 458Q775 465 775 471Q775 477 769 484Q758 495 758 510Q758 525 768 536Q779 547 794 547Q810 547 820 536Q833 523 846 536Q853 543 853 550Q853 556 846 562Q824 584 794 584Q764 583 742 562Q721 540 721 510Q721 479 743 458Z" fill="#000000" />
<path d="M667.5820922851562 376.3558349609375Q681.3496704101562 363.21563720703125 693.7982788085938 376.25860595703125Q706.9384765625 390.02618408203125 693.1708984375 403.1663818359375Q667.0849609375 428.0635986328125 691.982177734375 454.1495361328125Q717.5709838867188 480.9600830078125 743.6569213867188 456.0628662109375Q757.4244995117188 442.92266845703125 769.8731079101562 455.96563720703125Q783.0133056640625 469.73321533203125 769.2457275390625 482.8734130859375Q716.3492431640625 533.3594360351562 665.171630859375 479.73834228515625Q614.6856079101562 426.84185791015625 667.5820922851562 376.3558349609375Z" fill="#000000" />
<path d="M537 144Q555 145 554 164Q553 173 548 177Q543 181 534 181Q498 178 495 215Q493 251 529 254Q547 255 546 274Q546 283 541 287Q536 291 527 291Q496 289 476 266Q456 243 458 212Q464 139 537 144Z" fill="#000000" />
<path d="M327.92919921875 517.9655151367188Q342.50970458984375 505.73101806640625 354.10028076171875 519.5441284179688Q366.33477783203125 534.1246337890625 351.7542724609375 546.359130859375Q324.1280517578125 569.540283203125 347.3092041015625 597.16650390625Q371.13427734375 625.5601196289062 398.760498046875 602.3789672851562Q413.34100341796875 590.1444702148438 424.93157958984375 603.9575805664062Q437.16607666015625 618.5380859375 422.5855712890625 630.7725830078125Q366.56573486328125 677.77880859375 318.91558837890625 620.9915771484375Q271.90936279296875 564.9717407226562 327.92919921875 517.9655151367188Z" fill="#000000" />
<path d="M668.4808349609375 375.4193115234375Q682.2686767578125 363.8485107421875 694.4822998046875 378.40234375Q706.0531005859375 392.190185546875 692.2652587890625 403.760986328125L422.6363525390625 630.034423828125Q408.08251953125 642.248046875 396.51171875 628.460205078125Q384.298095703125 613.9063720703125 398.8519287109375 601.6927490234375Z" fill="#000000" />
<path d="M351.9259033203125 545.775390625Q337.3720703125 557.989013671875 325.158447265625 543.4351806640625Q313.587646484375 529.6473388671875 328.1414794921875 517.4337158203125L662.879638671875 236.5203857421875Q677.4334716796875 224.3067626953125 689.0042724609375 238.0946044921875Q701.2178955078125 252.6484375 686.6640625 264.862060546875Z" fill="#000000" />
<path d="M575 255Q593 255 593 274Q592 292 574 292L527 290Q518 290 514 285Q509 281 510 272Q510 253 528 254Z" fill="#000000" />
<path d="M581 178Q562 177 563 159Q564 141 582 142Q654 145 718 89Q732 77 744 91Q756 105 742 117Q667 182 581 178Z" fill="#000000" />
<path d="M535.5631103515625 180.378662109375Q517.87353515625 181.176513671875 517.03369140625 162.555908203125Q516.23583984375 144.8663330078125 533.9254150390625 144.0684814453125L581.407958984375 141.9268798828125Q600.028564453125 141.0870361328125 600.826416015625 158.776611328125Q601.666259765625 177.397216796875 583.045654296875 178.237060546875Z" fill="#000000" />
<path d="M296 658Q301 640 319 646Q336 651 331 669Q324 689 308 703Q285 723 254 720Q224 717 205 694Q185 671 188 641Q190 610 214 591Q237 571 267 574Q285 575 284 594Q283 603 278 607Q273 611 264 610Q249 609 237 619Q226 629 224 644Q223 659 233 671Q242 682 258 683Q273 685 284 675Q293 668 296 658Z" fill="#000000" />
<path d="M266 511Q266 529 248 529Q230 529 230 511V161Q230 143 248 143Q266 143 266 161Z" fill="#000000" />
<path d="M356.1944580078125 218.8089599609375Q369.1563720703125 231.7740478515625 356.1912841796875 244.7359619140625Q350.2073974609375 250.7183837890625 343.22705078125 250.717529296875Q337.243896484375 250.716796875 330.2642822265625 244.7327880859375L234.5455322265625 148.9906005859375Q221.5836181640625 136.0255126953125 234.5487060546875 123.0635986328125Q241.52978515625 117.081298828125 247.512939453125 117.08203125Q254.4932861328125 117.0828857421875 260.4757080078125 123.0667724609375Z" fill="#000000" />
<path d="M164.88421630859375 244.82745361328125Q158.9298095703125 251.6514892578125 152.54058837890625 252.0863037109375Q145.90008544921875 251.12921142578125 139.0760498046875 245.1748046875Q126.568603515625 231.622802734375 139.29901123046875 218.5450439453125L234.29852294921875 123.7821044921875Q241.07452392578125 117.52838134765625 247.4637451171875 117.09356689453125Q254.674560546875 117.22906494140625 260.92828369140625 124.00506591796875Q274.00604248046875 136.7354736328125 260.45404052734375 149.242919921875Z" fill="#000000" />
</g></svg>