<svg xmlns="http://www.w3.org/2000/svg" viewBox="0 0 2048 2048">
<g transform="matrix(1 0 0 -1 0 2048)">
<path d="M684 737Q738 737 782.5 710.5Q827 684 853.5 639.5Q880 595 880 542V231Q880 177 853.5 132.5Q827 88 782.5 61.5Q738 35 684 35H638Q585 35 540.5 61.5Q496 88 469.5 132.5Q443 177 443 231V542Q443 595 469.5 639.5Q496 684 540.5 710.5Q585 737 638 737Z" fill="#d0cfce" />
<path d="M661 640Q677 640 688.0 628.5Q699 617 699 602V495Q699 479 688.0 468.0Q677 457 661 457Q645 457 634.0 468.0Q623 479 623 495V602Q623 617 634.0 628.5Q645 640 661 640Z" fill="#3f3f3f" />
<path d="M644 712Q622 716 621.5 718.0Q621 720 634.0 720.5Q647 721 664.5 721.0Q682 721 695.5 720.0Q709 719 709 719Q762 719 793.0 700.0Q824 681 840.0 656.0Q856 631 861.0 611.5Q866 592 866 592L860 119Q860 126 848.0 117.0Q836 108 817.0 93.0Q798 78 777 66Q759 55 731.5 49.0Q704 43 678.0 42.0Q652 41 638.0 43.5Q624 46 632 53Q665 79 688.0 107.0Q711 135 717 185Q721 221 729.0 270.5Q737 320 745.0 374.5Q753 429 757.0 479.5Q761 530 759 567Q755 611 738.5 638.5Q722 666 697.0 683.0Q672 700 644 712Z" fill="#9b9b9a" />
<path d="M712 27Q788 27 842 81Q896 136 896 211V561Q896 637 842 691Q788 745 712 745H610Q534 745 480 691Q426 637 426 561V211Q426 136 480 81Q534 27 610 27ZM712 64H610Q550 64 506 107Q463 151 463 211V561Q463 622 506 665Q550 709 610 709H712Q773 709 816 665Q859 622 859 561V211Q859 151 816 107Q773 64 712 64Z" fill="#000000" />
<path d="M663 437Q686 437 702 453Q718 470 718 493V604Q718 659 663 659H660Q637 659 620 643Q604 626 604 604V493Q604 437 660 437ZM663 474H660Q641 474 641 493V604Q641 622 660 622H663Q682 622 682 604V493Q682 474 663 474Z" fill="#000000" />
<path d="M263.14385986328125 405.77923583984375Q269.1136474609375 398.9368896484375 275.51971435546875 398.5006103515625Q282.17779541015625 399.45989990234375 289.0201416015625 405.4296875Q301.561279296875 419.016845703125 288.79791259765625 432.1297607421875L193.55230712890625 527.1475830078125Q186.75872802734375 533.4181518554688 180.3526611328125 533.8544311523438Q173.122802734375 533.7189331054688 166.85223388671875 526.9253540039062Q153.73931884765625 514.1619873046875 167.32647705078125 501.620849609375Z" fill="#000000" />
<path d="M289.0084228515625 597.8096923828125Q302.0052490234375 610.8096923828125 289.0052490234375 623.8065185546875Q283.0052490234375 629.8050537109375 276.006103515625 629.80419921875Q270.0068359375 629.803466796875 263.0084228515625 623.8033447265625L167.0318603515625 527.8033447265625Q154.0350341796875 514.8033447265625 167.0350341796875 501.8065185546875Q174.034912109375 495.80810546875 180.0341796875 495.808837890625Q187.0333251953125 495.8096923828125 193.0318603515625 501.8096923828125Z" fill="#000000" />
<path d="M1060.1411743164062 622.987548828125Q1047.1435546875 635.9899291992188 1034.1411743164062 622.9923095703125Q1021.1387939453125 609.9946899414062 1034.1364135742188 596.9923095703125L1130.1188354492188 500.9747314453125Q1143.116455078125 487.97235107421875 1156.1188354492188 500.969970703125Q1169.1212158203125 513.9675903320312 1156.1235961914062 526.969970703125Z" fill="#000000" />
<path d="M1035 431Q1022 418 1035 405Q1048 392 1061 405L1156 501Q1163 507 1163 514Q1163 520 1156 527Q1143 540 1130 527Z" fill="#000000" />
</g></svg>