<svg xmlns="http://www.w3.org/2000/svg" viewBox="0 0 2048 2048">
<g transform="matrix(1 0 0 -1 0 2048)">
<path d="M684 737Q738 737 782.5 710.5Q827 684 853.5 639.5Q880 595 880 542V231Q880 177 853.5 132.5Q827 88 782.5 61.5Q738 35 684 35H638Q585 35 540.5 61.5Q496 88 469.5 132.5Q443 177 443 231V542Q443 595 469.5 639.5Q496 684 540.5 710.5Q585 737 638 737Z" fill="#d0cfce" />
<path d="M661 640Q677 640 688.0 628.5Q699 617 699 602V495Q699 479 688.0 468.0Q677 457 661 457Q645 457 634.0 468.0Q623 479 623 495V602Q623 617 634.0 628.5Q645 640 661 640Z" fill="#3f3f3f" />
<path d="M632 714Q618 718 622.0 719.5Q626 721 639.5 721.0Q653 721 669.0 721.0Q685 721 697.0 720.0Q709 719 709 719Q755 719 784.5 704.0Q814 689 830.5 667.5Q847 646 856 628Q866 602 866 572L861 197Q861 158 841.5 125.0Q822 92 789 73Q786 71 783.0 69.5Q780 68 777 66Q759 55 731.5 49.0Q704 43 678.0 42.0Q652 41 638.0 43.5Q624 46 632 53Q665 79 688.0 107.0Q711 135 717 185Q721 221 729.0 270.5Q737 320 745.0 374.5Q753 429 757.0 479.5Q761 530 759 567Q754 626 725.5 656.5Q697 687 660 705Q647 711 632 714Z" fill="#9b9b9a" />
<path d="M712 27Q788 27 842 81Q896 136 896 211V561Q896 637 842 691Q788 745 712 745H610Q534 745 480 691Q426 637 426 561V211Q426 136 480 81Q534 27 610 27ZM712 64H610Q550 64 506 107Q463 151 463 211V561Q463 622 506 665Q550 709 610 709H712Q773 709 816 665Q859 622 859 561V211Q859 151 816 107Q773 64 712 64Z" fill="#000000" />
<path d="M663 437Q686 437 702 453Q718 470 718 493V604Q718 659 663 659H660Q637 659 620 643Q604 626 604 604V493Q604 437 660 437ZM663 474H660Q641 474 641 493V604Q641 622 660 622H663Q682 622 682 604V493Q682 474 663 474Z" fill="#000000" />
<path d="M771 -68Q784 -55 771 -42Q758 -29 745 -42L649 -138Q636 -151 649 -164Q662 -177 675 -164Z" fill="#000000" />
<path d="M579 -42Q566 -29 553 -42Q546 -49 546 -55Q546 -62 553 -68L648 -164Q655 -170 661 -170Q668 -170 674 -164Q687 -151 674 -138Z" fill="#000000" />
<path d="M553 840Q540 827 553 814Q566 801 579 814L674 910Q681 916 681 923Q681 929 674 936Q661 949 648 936Z" fill="#000000" />
<path d="M745 814Q758 801 771 814Q777 820 777 827Q777 833 771 840L675 936Q662 949 649 936Q643 929 643 923Q643 916 649 910Z" fill="#000000" />
</g></svg>