<svg xmlns="http://www.w3.org/2000/svg" viewBox="0 0 2048 2048">
<g transform="matrix(1 0 0 -1 0 2048)">
<path d="M660 753H367V18H953V458L660 753Z" fill="#d0cfce" />
<path d="M667 771Q661 774 655 772H367Q348 772 348 753V18Q348 0 367 0H953Q972 0 972 18V458Q972 465 966 471L677 762Q674 769 667 771ZM652 735 935 450V37H385V735Z" fill="#000000" />
<path d="M678 753Q678 772 660 772Q651 772 646 767Q642 762 642 753L641 458Q641 449 646 444Q650 439 659 439H853Q872 439 872 458Q872 476 853 476H678Z" fill="#000000" />
<path d="M1104 489Q1091 502 1078 489Q1071 482 1071 476Q1071 469 1078 463L1173 367Q1186 354 1199 367Q1212 380 1199 393Z" fill="#000000" />
<path d="M1077.0 296.0Q1064.0 283.0 1077.0 270.0Q1090.0 257.0 1103.0 270.0L1199.0 366.0Q1212.0 379.0 1199.0 392.0Q1186.0 405.0 1173.0 392.0Z" fill="#000000" />
<path d="M220.3304443359375 270.9376220703125Q226.300048828125 264.096923828125 232.7052001953125 263.661376953125Q239.3621826171875 264.6212158203125 246.202880859375 270.5908203125Q258.74072265625 284.17724609375 245.9779052734375 297.286865234375L150.7366943359375 392.280517578125Q143.9434814453125 398.5494384765625 137.538330078125 398.9849853515625Q130.3095703125 398.8487548828125 124.0406494140625 392.0555419921875Q110.9310302734375 379.292724609375 124.5174560546875 366.7548828125Z" fill="#000000" />
<path d="M245.86505126953125 463.26788330078125Q258.6273193359375 476.3809814453125 245.51422119140625 489.14324951171875Q232.401123046875 501.905517578125 219.63885498046875 488.79241943359375L124.40130615234375 393.77313232421875Q111.6390380859375 380.6600341796875 124.180419921875 367.073974609375Q131.0228271484375 361.104736328125 136.85693359375 360.717529296875Q143.26275634765625 361.15411376953125 150.0557861328125 367.4248046875Z" fill="#000000" />
</g></svg>