<svg xmlns="http://www.w3.org/2000/svg" viewBox="0 0 2048 2048">
<g transform="matrix(1 0 0 -1 0 2048)">
<path d="M293 230 847 -64 877 -27 868 -25Q895 -4 926.5 25.5Q958 55 984.0 88.5Q1010 122 1019 155Q1031 197 1046.0 247.0Q1061 297 1066 350Q1071 424 1061.0 494.0Q1051 564 1034 605Q998 691 943.5 736.0Q889 781 822 808Q794 816 754.5 826.5Q715 837 666.5 841.5Q618 846 562.5 838.0Q507 830 447 801Q413 785 384.0 757.5Q355 730 331.0 697.5Q307 665 291.0 634.5Q275 604 269 583Q257 548 257.0 497.0Q257 446 266.0 391.0Q275 336 291 287Z" fill="#3f3f3f" />
<path d="M275 229Q275 219 285 214L838 -80Q852 -87 861 -75L891 -39Q894 -36 895 -32Q895 -29 895 -26Q1015 73 1037 150Q1040 161 1047 185Q1079 290 1084 348Q1096 503 1050 612Q988 761 829 825Q829 825 828 825Q825 826 819 828Q600 894 439 817Q375 787 316 708Q269 644 251 589Q212 468 273 284ZM850 -31 842 -40 311 241 309 288Q309 290 308 293Q251 467 286 578Q302 627 346 686Q399 758 455 784Q603 855 808 793Q814 791 816 790Q961 732 1017 598Q1059 497 1047 351Q1043 297 1012 195Q1005 172 1002 160Q981 89 856 -11Q845 -20 850 -31Z" fill="#3f3f3f" />
<path d="M293 230 847 -64 877 -27 868 -25 299 278 291 287Z" fill="#3f3f3f" />
<path d="M275 229Q275 219 285 214L838 -80Q852 -87 861 -75L891 -39Q894 -36 895 -32Q899 -14 881 -9L874 -8L311 293L304 299Q299 306 290 305Q281 305 277 300Q272 295 273 286ZM311 251 847 -35 842 -40 311 241Z" fill="#3f3f3f" />
<path d="M877 -27Q882 -27 887 -24Q924 -1 958.0 45.5Q992 92 1017.5 154.0Q1043 216 1056 286Q1078 397 1062 499Q1044 616 979 703Q960 730 923.5 755.5Q887 781 841 800Q738 844 631 844Q515 844 428 791Q326 730 276 606Q254 551 252.0 497.0Q250 443 258.5 398.0Q267 353 277.5 323.0Q288 293 291 287Q294 281 299 278L868 -25Q872 -27 877 -27Z" fill="#d22f27" />
<path d="M1055 537Q1059 518 1062 499Q1078 397 1057 286Q1046 230 1027 178Q1022 179 987.0 190.5Q952 202 899.0 220.0Q846 238 788 259Q706 289 655.0 310.0Q604 331 576.0 346.0Q548 361 536.0 371.0Q524 381 520 389Q510 410 504.5 437.5Q499 465 496.5 492.0Q494 519 493.5 537.0Q493 555 493 557Q493 597 511.0 620.5Q529 644 554 649Q557 650 572.5 648.5Q588 647 603.5 644.5Q619 642 622 641Q718 600 899 564Q955 553 997.5 546.0Q1040 539 1055 537Z" fill="#3f3f3f" />
<path d="M1040 545Q1037 563 1019 560Q1001 557 1004 539L1011 497L1017 420V377L1011 322L999 257L985 192Q981 174 999 170Q1017 166 1021 184L1035 249Q1035 250 1035 250L1047 316Q1048 317 1048 318L1053 374Q1053 374 1053 375L1054 420Q1054 421 1054 422L1047 501Q1047 502 1047 502Z" fill="#9b9b9a" />
<path d="M637.8055419921875 577.840087890625Q637.8055419921875 597.5733642578125 627.9389038085938 614.0177612304688Q618.072265625 630.462158203125 601.6278686523438 640.3287963867188Q585.1834716796875 650.1954345703125 565.4501953125 650.1954345703125Q545.2109375 650.1954345703125 528.7665405273438 640.3287963867188Q512.3221435546875 630.462158203125 502.45550537109375 614.0177612304688Q492.5888671875 597.5733642578125 492.5888671875 577.840087890625Q492.5888671875 557.600830078125 502.45550537109375 541.1564331054688Q512.3221435546875 524.7120361328125 528.7665405273438 514.8453979492188Q545.2109375 504.978759765625 565.4501953125 504.978759765625Q585.1834716796875 504.978759765625 601.6278686523438 514.8453979492188Q618.072265625 524.7120361328125 627.9389038085938 541.1564331054688Q637.8055419921875 557.600830078125 637.8055419921875 577.840087890625Z" fill="#000000" />
<path d="M656 577Q656 615 630 641Q603 668 565 668Q528 668 501 641Q475 615 475 577Q475 539 501 513Q528 486 565 486Q603 486 630 513Q656 539 656 577ZM620 577Q620 523 565 523Q543 523 527 539Q511 555 511 577Q511 631 565 631Q588 631 604 615Q620 600 620 577Z" fill="#000000" />
<path d="M877 -46Q878 -46 879 -46Q888 -45 897 -40Q957 -2 1006 87Q1054 175 1074 282Q1096 396 1080 502Q1061 623 994 714Q973 743 934 771Q896 797 848 817Q742 862 631 862Q510 862 418 807Q389 790 364 767Q297 707 259 613Q219 516 240 395Q251 330 274 279Q279 268 291 262L859 -41Q868 -46 877 -46ZM877 -9Q877 -9 877 -9L308 294Q308 294 308 294Q287 341 276 401Q257 512 293 599Q328 686 389 740Q411 760 437 776Q520 825 631 825Q734 825 834 784Q878 765 913 740Q947 717 965 692Q1026 609 1044 497Q1059 397 1038 289Q1019 188 974 105Q929 24 877 -9Q877 -9 877 -9Q877 -9 877 -9Z" fill="#000000" />
<path d="M302 246Q294 250 288 248Q281 247 277 238Q269 222 285 214L839 -80Q855 -88 863 -72Q872 -56 856 -47Z" fill="#000000" />
<path d="M1059 555H1057Q982 566 903 582Q723 618 629 658Q621 661 590 665Q563 669 551 666V667Q517 660 496 631Q475 602 475 557Q475 525 478 490Q485 419 504 381Q515 357 567 330Q633 296 782 242Q903 198 1021 161L1038 155L1044 172Q1064 225 1075 282Q1097 396 1080 502Q1077 522 1073 541L1070 551ZM1040 521Q1042 509 1044 497Q1059 397 1039 289Q1030 244 1016 201Q906 236 795 276Q553 364 537 397Q521 429 515 494Q511 527 511 557Q511 590 526 610Q538 627 558 631H560Q562 631 565 631Q573 630 585 629Q612 625 615 624Q712 582 895 546Q970 531 1040 521Z" fill="#000000" />
</g></svg>