<svg xmlns="http://www.w3.org/2000/svg" viewBox="0 0 2048 2048">
<g transform="matrix(1 0 0 -1 0 2048)">
<path d="M378 -56Q441 -96 511 -120Q535 -106 560.0 -78.5Q585 -51 603 -30Q646 21 658.5 77.0Q671 133 647 197Q640 221 617 232Q600 241 579.5 252.0Q559 263 542 273Q499 227 440.0 196.5Q381 166 314.5 156.5Q248 147 183 165Q211 113 246 66Q342 76 429 119Q355 63 264 43Q311 -4 364 -44Q377 -36 396.0 -20.5Q415 -5 434.0 10.5Q453 26 467 34Q449 16 422.5 -10.5Q396 -37 378 -56Z" fill="#f1b31c" />
<path d="M665 323Q672 337 679.5 349.0Q687 361 694 374Q810 574 926 775Q937 795 948.5 814.5Q960 834 971 854Q976 863 973.0 874.0Q970 885 961 891Q951 896 940.5 893.5Q930 891 924 881Q922 879 921.0 876.5Q920 874 918 872Q786 643 654 415Q645 399 636.0 383.0Q627 367 618 351Z" fill="#a57939" />
<path d="M642.1076049804688 230.135986328125Q649.0557861328125 243.03594970703125 656.0038452148438 254.94354248046875Q662.951904296875 266.85113525390625 669.9000854492188 279.7510986328125Q672.8779296875 285.7049560546875 670.89404296875 292.65179443359375Q668.91015625 299.5986328125 662.9564208984375 303.56884765625Q632.1951293945312 321.435302734375 601.4337158203125 338.30938720703125Q595.47998046875 342.27960205078125 588.5332641601562 341.2880859375Q580.5940551757812 339.3043212890625 577.6162109375 333.3504638671875Q569.67578125 321.4429931640625 562.7276611328125 309.0392150878906Q555.779541015625 296.63543701171875 548.8314819335938 284.72784423828125Z" fill="#92d3f5" />
<path d="M183 707V554H517V707Z" fill="#d0cfce" />
<path d="M360 -62Q362 -67 369 -72Q433 -113 505 -137Q513 -140 521 -136Q553 -116 613 -46Q615 -43 617 -42Q713 71 664 203Q655 234 626 248Q591 266 551 289Q539 296 529 285Q464 218 373 189Q278 158 188 183Q181 185 175 181Q167 177 165 171Q163 164 167 156Q196 104 231 55Q236 47 246 47Q243 39 251 30Q299 -18 353 -58Q357 -61 360 -62ZM407 -52Q419 -41 436 -23Q468 9 480 21Q486 28 486 35Q486 41 479 47Q469 57 457 50Q442 41 401 8Q378 -11 365 -21Q331 5 300 34Q376 56 440 104Q447 109 448 116Q449 122 444 130Q435 142 421 135Q342 96 254 85Q236 111 219 139Q300 127 384 154Q477 184 545 250Q579 231 609 215Q624 208 629 192Q630 191 630 191Q672 79 589 -18Q588 -19 585 -23Q536 -80 509 -100Q456 -81 407 -52Z" fill="#000000" />
<path d="M656 308 671 298 710 365 941 766Q946 773 954 787Q976 825 987 845Q1009 884 970 907Q931 929 908 891Q906 888 903 883Q903 882 902 881L638 424L593 344ZM658 348 643 357 670 406 934 863Q935 863 935 865Q938 869 939 871L940 872Q944 879 952 875Q959 871 955 863Q944 844 922 806Q914 791 910 784L678 383Z" fill="#000000" />
<path d="M633 215 649 206 658 222Q661 226 666 236Q680 259 686 271Q693 284 689 298Q685 312 672 319Q642 338 611 355Q598 362 584 359Q570 356 562 343Q555 331 542 308Q536 299 533 294L524 278ZM635 256 574 291Q586 313 593 323Q623 306 653 288Q648 277 635 256Z" fill="#000000" />
<path d="M629.5166015625 -117.267578125Q629.5166015625 -110.2978515625 626.03173828125 -104.48974609375Q622.546875 -98.681640625 616.73876953125 -95.19677734375Q610.9306640625 -91.7119140625 603.9609375 -91.7119140625Q596.8125 -91.7119140625 591.00439453125 -95.19677734375Q585.1962890625 -98.681640625 581.71142578125 -104.48974609375Q578.2265625 -110.2978515625 578.2265625 -117.267578125Q578.2265625 -124.416015625 581.71142578125 -130.22412109375Q585.1962890625 -136.0322265625 591.00439453125 -139.51708984375Q596.8125 -143.001953125 603.9609375 -143.001953125Q610.9306640625 -143.001953125 616.73876953125 -139.51708984375Q622.546875 -136.0322265625 626.03173828125 -130.22412109375Q629.5166015625 -124.416015625 629.5166015625 -117.267578125Z" fill="#000000" />
<path d="M684.396484375 -43.44921875Q684.396484375 -37.583984375 681.4638671875 -32.6962890625Q678.53125 -27.80859375 673.6435546875 -24.8759765625Q668.755859375 -21.943359375 662.890625 -21.943359375Q656.875 -21.943359375 651.9873046875 -24.8759765625Q647.099609375 -27.80859375 644.1669921875 -32.6962890625Q641.234375 -37.583984375 641.234375 -43.44921875Q641.234375 -49.46484375 644.1669921875 -54.3525390625Q647.099609375 -59.240234375 651.9873046875 -62.1728515625Q656.875 -65.10546875 662.890625 -65.10546875Q668.755859375 -65.10546875 673.6435546875 -62.1728515625Q678.53125 -59.240234375 681.4638671875 -54.3525390625Q684.396484375 -49.46484375 684.396484375 -43.44921875Z" fill="#000000" />
<path d="M679.894287109375 -98.35498046875Q679.894287109375 -93.698974609375 677.5662841796875 -89.8189697265625Q675.23828125 -85.93896484375 671.3582763671875 -83.6109619140625Q667.478271484375 -81.282958984375 662.822265625 -81.282958984375Q658.046875 -81.282958984375 654.1668701171875 -83.6109619140625Q650.286865234375 -85.93896484375 647.9588623046875 -89.8189697265625Q645.630859375 -93.698974609375 645.630859375 -98.35498046875Q645.630859375 -103.13037109375 647.9588623046875 -107.0103759765625Q650.286865234375 -110.890380859375 654.1668701171875 -113.2183837890625Q658.046875 -115.54638671875 662.822265625 -115.54638671875Q667.478271484375 -115.54638671875 671.3582763671875 -113.2183837890625Q675.23828125 -110.890380859375 677.5662841796875 -107.0103759765625Q679.894287109375 -103.13037109375 679.894287109375 -98.35498046875Z" fill="#000000" />
<path d="M165 554Q165 535 183 535H517Q536 535 536 554V707Q536 725 517 725H183Q165 725 165 707ZM202 688H499V572H202Z" fill="#000000" />
<path d="M203 719Q196 713 197 706Q197 700 203 693Q217 681 229 694L350 820L470 694Q483 681 496 693Q509 706 497 719L363 859Q363 860 363 860Q356 866 350 866Q343 866 337 859Z" fill="#000000" />
<path d="M369.83331298828125 789.0101318359375Q369.83331298828125 794.2350463867188 367.2208557128906 798.5891418457031Q364.6083984375 802.9432373046875 360.2543029785156 805.5556945800781Q355.90020751953125 808.1681518554688 350.67529296875 808.1681518554688Q345.31640625 808.1681518554688 340.9623107910156 805.5556945800781Q336.60821533203125 802.9432373046875 333.9957580566406 798.5891418457031Q331.38330078125 794.2350463867188 331.38330078125 789.0101318359375Q331.38330078125 783.6512451171875 333.9957580566406 779.2971496582031Q336.60821533203125 774.9430541992188 340.9623107910156 772.3305969238281Q345.31640625 769.7181396484375 350.67529296875 769.7181396484375Q355.90020751953125 769.7181396484375 360.2543029785156 772.3305969238281Q364.6083984375 774.9430541992188 367.2208557128906 779.2971496582031Q369.83331298828125 783.6512451171875 369.83331298828125 789.0101318359375Z" fill="#000000" />
</g></svg>