<svg xmlns="http://www.w3.org/2000/svg" viewBox="0 0 2048 2048">
<g transform="matrix(1 0 0 -1 0 2048)">
<path d="M834 585Q834 633 810.5 672.5Q787 712 747.5 735.5Q708 759 660 759Q612 759 572.5 735.5Q533 712 509.5 672.5Q486 633 486 585H555Q555 629 585.5 659.5Q616 690 660 690Q704 690 734.5 659.5Q765 629 765 585Z" fill="#9b9b9a" />
<path d="M199 585V18H1118V585Z" fill="#d0cfce" />
<path d="M594 251V162H714V251V250H803V371H714Z" fill="#ea5a47" />
<path d="M714 372V460H594V372L593 371H505V250H593Z" fill="#ea5a47" />
<path d="M834 567Q853 567 853 585Q853 665 796 721Q740 777 660 777Q580 777 524 721Q468 665 468 585Q468 567 486 567H555Q573 567 573 585Q573 621 598 646Q624 672 660 672Q696 672 722 646Q747 621 747 585Q747 567 765 567ZM815 603H783Q777 643 748 672Q711 709 660 709Q609 709 572 672Q543 643 537 603H505Q511 656 550 695Q595 741 660 741Q725 741 770 695Q809 656 815 603Z" fill="#000000" />
<path d="M536 585Q536 567 555 567Q573 567 573 585Q573 621 598 646Q624 672 660 672Q696 672 722 646Q747 621 747 585Q747 567 765 567Q784 567 784 585Q784 636 748 672Q711 709 660 709Q609 709 572 672Q536 636 536 585Z" fill="#000000" />
<path d="M180 18Q180 0 199 0H1118Q1137 0 1137 18V585Q1137 603 1118 603H199Q180 603 180 585ZM217 567H1100V37H217Z" fill="#000000" />
<path d="M714 389Q695 389 695 371Q695 353 714 353H785V269H721Q711 274 701 264V263Q695 258 695 250Q695 247 696 244V180H612V251Q612 269 594 269Q575 269 575 251V162Q575 143 594 143H714Q733 143 733 162V232H803Q821 232 821 250V371Q821 389 803 389Z" fill="#000000" />
<path d="M593 232Q611 232 611 250Q611 269 593 269H523V353H593Q600 353 606 358L607 359Q612 364 612 372V441H696V372Q696 353 714 353Q733 353 733 372V460Q733 478 714 478H594Q575 478 575 460V389H505Q487 389 487 371V250Q487 232 505 232Z" fill="#000000" />
</g></svg>