<svg xmlns="http://www.w3.org/2000/svg" viewBox="0 0 2048 2048">
<g transform="matrix(1 0 0 -1 0 2048)">
<path d="M298 396V290H1008V396Z" fill="#ffffff" />
<path d="M279 18Q288 18 294.0 26.0Q300 34 300 45V770Q300 781 294.0 788.5Q288 796 279 796H249Q241 796 234.5 788.5Q228 781 228 770V45Q228 34 234.5 26.0Q241 18 249 18Z" fill="#ffffff" />
<path d="M1077 18Q1086 18 1092.0 26.0Q1098 34 1098 45V770Q1098 781 1092.0 788.5Q1086 796 1077 796H1047Q1039 796 1032.5 788.5Q1026 781 1026 770V45Q1026 34 1032.5 26.0Q1039 18 1047 18Z" fill="#ffffff" />
<path d="M140 538V407H1180V538Z" fill="#ffffff" />
<path d="M139.3731689453125 537.427734375V407.288818359375H348.7894287109375V537.427734375Z" fill="#ea5a47" />
<path d="M347.3731689453125 537.427734375V407.288818359375H556.7894287109375V537.427734375Z" fill="#ffffff" />
<path d="M554.3731689453125 537.427734375V407.288818359375H763.7894287109375V537.427734375Z" fill="#ea5a47" />
<path d="M762.3731689453125 537.427734375V407.288818359375H971.7894287109375V537.427734375Z" fill="#ffffff" />
<path d="M970.3731689453125 537.427734375V407.288818359375H1179.7894287109375V537.427734375Z" fill="#ea5a47" />
<path d="M140 281V150H1180V281Z" fill="#ffffff" />
<path d="M139.3731689453125 281.427734375V151.288818359375H348.7894287109375V281.427734375Z" fill="#ea5a47" />
<path d="M347.3731689453125 281.427734375V151.288818359375H556.7894287109375V281.427734375Z" fill="#ffffff" />
<path d="M554.3731689453125 281.427734375V151.288818359375H763.7894287109375V281.427734375Z" fill="#ea5a47" />
<path d="M762.3731689453125 281.427734375V151.288818359375H971.7894287109375V281.427734375Z" fill="#ffffff" />
<path d="M970.3731689453125 281.427734375V151.288818359375H1179.7894287109375V281.427734375Z" fill="#ea5a47" />
<path d="M203 291Q203 273 221 273Q239 273 239 291V400Q239 418 221 418Q203 418 203 400Z" fill="#000000" />
<path d="M311 151Q311 169 293 169Q274 169 274 151V39Q274 38 274 37Q273 36 272 36H242Q239 36 239 39V143Q239 161 221 161Q203 161 203 143V39Q203 0 242 0H272Q311 0 311 39Z" fill="#000000" />
<path d="M311.0 400.0Q311.0 418.0 293.0 418.0Q275.0 418.0 275.0 400.0V291.0Q275.0 273.0 293.0 273.0Q311.0 273.0 311.0 291.0Z" fill="#000000" />
<path d="M203 539Q203 521 221 521Q239 521 239 539V773Q239 776 242 776H272Q275 776 275 773V541Q275 523 293 523Q311 523 311 541V773Q311 813 272 813H242Q203 813 203 773Z" fill="#000000" />
<path d="M1008 281Q1008 263 1027 263Q1045 263 1045 281V400Q1045 418 1027 418Q1008 418 1008 400Z" fill="#000000" />
<path d="M1117 143Q1117 161 1098 161Q1080 161 1080 143V39Q1080 36 1077 36H1047Q1045 36 1045 39V143Q1045 161 1027 161Q1008 161 1008 143V39Q1008 23 1020 11Q1031 0 1047 0H1077Q1117 0 1117 39Z" fill="#000000" />
<path d="M1117 400Q1117 418 1098 418Q1080 418 1080 400V297Q1080 279 1098 279Q1117 279 1117 297Z" fill="#000000" />
<path d="M1008 543Q1008 525 1027 525Q1045 525 1045 543V774Q1045 776 1048 776H1078Q1080 776 1080 774V545Q1080 526 1098 526Q1117 526 1117 545V774Q1117 813 1078 813H1048Q1008 813 1008 774Z" fill="#000000" />
<path d="M121 407Q121 389 140 389H1180Q1199 389 1199 407V538Q1199 556 1180 556H140Q121 556 121 538ZM158 519H1162V425H158Z" fill="#000000" />
<path d="M121 407Q121 389 140 389H348Q366 389 366 407V538Q366 556 348 556H140Q121 556 121 538ZM158 519H329V425H158Z" fill="#000000" />
<path d="M329 407Q329 389 348 389H556Q574 389 574 407V538Q574 556 556 556H348Q329 556 329 538ZM366 519H537V425H366Z" fill="#000000" />
<path d="M536 407Q536 389 555 389H763Q781 389 781 407V538Q781 556 763 556H555Q536 556 536 538ZM573 519H744V425H573Z" fill="#000000" />
<path d="M744 407Q744 389 763 389H971Q989 389 989 407V538Q989 556 971 556H763Q744 556 744 538ZM781 519H952V425H781Z" fill="#000000" />
<path d="M953 407Q953 389 972 389H1180Q1198 389 1198 407V538Q1198 556 1180 556H972Q953 556 953 538ZM990 519H1161V425H990Z" fill="#000000" />
<path d="M121 150Q121 132 140 132H1180Q1199 132 1199 150V281Q1199 299 1180 299H140Q121 299 121 281ZM158 262H1162V168H158Z" fill="#000000" />
<path d="M121 150Q121 132 140 132H348Q366 132 366 150V281Q366 299 348 299H140Q121 299 121 281ZM158 262H329V168H158Z" fill="#000000" />
<path d="M329 150Q329 132 348 132H556Q574 132 574 150V281Q574 299 556 299H348Q329 299 329 281ZM366 262H537V168H366Z" fill="#000000" />
<path d="M536 150Q536 132 555 132H763Q781 132 781 150V281Q781 299 763 299H555Q536 299 536 281ZM573 262H744V168H573Z" fill="#000000" />
<path d="M744 150Q744 132 763 132H971Q989 132 989 150V281Q989 299 971 299H763Q744 299 744 281ZM781 262H952V168H781Z" fill="#000000" />
<path d="M1179 299H971Q953 299 953 281V151Q953 132 971 132H1179Q1198 132 1198 151V281Q1198 299 1179 299ZM1098 263H1161V169H990V263Z" fill="#000000" />
</g></svg>