<svg xmlns="http://www.w3.org/2000/svg" viewBox="0 0 2048 2048">
<g transform="matrix(1 0 0 -1 0 2048)">
<path d="M238 825Q231 825 225.5 819.5Q220 814 220 807V-37Q220 -44 225.5 -49.5Q231 -55 238 -55H1082Q1089 -55 1094.5 -49.5Q1100 -44 1100 -37V807Q1100 814 1094.5 819.5Q1089 825 1082 825Z" fill="#9b9b9a" />
<path d="M440 568 477 422H825L862 568Z" fill="#d0cfce" />
<path d="M714.6238403320312 697.3275146484375Q714.6238403320312 717.2726440429688 704.6512756347656 733.8935852050781Q694.6787109375 750.5145263671875 678.0577697753906 760.4870910644531Q661.4368286132812 770.4596557617188 641.49169921875 770.4596557617188Q621.03515625 770.4596557617188 604.4142150878906 760.4870910644531Q587.7932739257812 750.5145263671875 577.8207092285156 733.8935852050781Q567.84814453125 717.2726440429688 567.84814453125 697.3275146484375Q567.84814453125 676.8709716796875 577.8207092285156 660.2500305175781Q587.7932739257812 643.6290893554688 604.4142150878906 633.6565246582031Q621.03515625 623.6839599609375 641.49169921875 623.6839599609375Q661.4368286132812 623.6839599609375 678.0577697753906 633.6565246582031Q694.6787109375 643.6290893554688 704.6512756347656 660.2500305175781Q714.6238403320312 676.8709716796875 714.6238403320312 697.3275146484375Z" fill="#ffffff" />
<path d="M624.0 696.0Q624.0 678.0 642.0 678.0Q660.0 678.0 660.0 696.0V715.0Q660.0 733.0 642.0 733.0Q624.0 733.0 624.0 715.0Z" fill="#d22f27" />
<path d="M333 763 326 753Q321 744 311 744H298Q288 743 283.0 734.5Q278 726 283 717L289 705Q293 697 289 688L283 677Q278 668 283.0 659.0Q288 650 298 650L311 649Q321 649 326 641L333 630Q338 621 348.5 621.0Q359 621 364 630L371 641Q376 649 386 649L398 650Q409 650 414.0 659.0Q419 668 414 677L408 688Q403 697 408 705L414 717Q419 726 414.0 734.5Q409 743 398 744H386Q376 744 371 753L364 763Q359 772 348.5 772.0Q338 772 333 763Z" fill="#a57939" />
<path d="M715 532Q715 547 737.5 560.0Q760 573 791.5 583.5Q823 594 853.0 599.5Q883 605 898 605Q929 605 950.5 583.5Q972 562 972 532Q972 501 950.5 479.5Q929 458 898 458Q883 458 853.0 464.0Q823 470 791.5 480.0Q760 490 737.5 503.0Q715 516 715 532Z" fill="#a57939" />
<path d="M1026.5758056640625 706.248779296875Q1026.5758056640625 718.7171630859375 1020.3416137695312 729.1074829101562Q1014.107421875 739.497802734375 1003.7171020507812 745.7319946289062Q993.3267822265625 751.9661865234375 980.8583984375 751.9661865234375Q968.0703125 751.9661865234375 957.6799926757812 745.7319946289062Q947.2896728515625 739.497802734375 941.0554809570312 729.1074829101562Q934.8212890625 718.7171630859375 934.8212890625 706.248779296875Q934.8212890625 693.460693359375 941.0554809570312 683.0703735351562Q947.2896728515625 672.6800537109375 957.6799926757812 666.4458618164062Q968.0703125 660.211669921875 980.8583984375 660.211669921875Q993.3267822265625 660.211669921875 1003.7171020507812 666.4458618164062Q1014.107421875 672.6800537109375 1020.3416137695312 683.0703735351562Q1026.5758056640625 693.460693359375 1026.5758056640625 706.248779296875Z" fill="#d22f27" />
<path d="M458 92 495 37H788L825 92Z" fill="#ffffff" />
<path d="M642 73Q672 73 697.0 98.0Q722 123 737.0 164.5Q752 206 752 257H532Q532 206 546.5 164.5Q561 123 586.0 98.0Q611 73 642 73Z" fill="#ffffff" />
<path d="M752 257V275Q759 275 764.5 269.5Q770 264 770 257ZM532 257H513Q513 264 518.5 269.5Q524 275 532 275ZM733 257H770Q770 217 761.0 181.0Q752 145 735 118Q719 91 695.0 73.0Q671 55 642 55V92Q677 92 704 136Q717 159 725.0 190.0Q733 221 733 257ZM532 238V275H752V238ZM642 92V55Q612 55 588.0 73.0Q564 91 548 118Q532 145 522.5 181.0Q513 217 513 257H550Q550 221 558.0 190.0Q566 159 580 136Q606 92 642 92Z" fill="#ffffff" />
<path d="M1046 706Q1046 770 981 770Q917 770 917 705Q917 641 981 641Q1046 641 1046 706ZM1009 706Q1009 678 981 678Q954 678 954 706Q954 733 981 733Q1009 733 1009 706Z" fill="#d0cfce" />
<path d="M238 843Q202 843 202 807V-37Q202 -73 238 -73H1082Q1118 -73 1118 -37V807Q1118 843 1082 843ZM238 807H1082V-37H238Z" fill="#000000" />
<path d="M219.3929443359375 586.291015625V549.754150390625H440.8135986328125V586.291015625Z" fill="#000000" />
<path d="M1027.0 587.0Q1009.0 587.0 1009.0 568.0Q1009.0 550.0 1027.0 550.0H1100.0Q1119.0 550.0 1119.0 568.0Q1119.0 587.0 1100.0 587.0Z" fill="#000000" />
<path d="M220 55V18H1100V55Z" fill="#000000" />
<path d="M743 550Q761 550 761 568Q761 587 743 587H440Q422 587 422 568Q422 566 422 564L459 417Q462 403 477 403H807Q825 403 825 422Q825 440 807 440H491L463 550Z" fill="#000000" />
<path d="M733 697Q733 735 706 762Q680 789 642 789Q604 789 577 762Q550 735 550 697Q550 659 577 632Q604 605 642 605Q680 605 706 632Q733 659 733 697ZM697 697Q697 642 642 642Q587 642 587 697Q587 752 642 752Q697 752 697 697Z" fill="#000000" />
<path d="M537 139Q541 131 547 128Q553 126 561 130Q578 137 570 154Q553 192 551 238H733Q730 192 713 154Q705 137 722 130Q739 122 746 139Q770 192 770 257Q770 275 752 275H532Q513 275 513 257Q513 192 537 139Z" fill="#000000" />
<path d="M317 773 310 762H298Q277 761 267 744Q257 726 267 708L273 697L267 685Q257 667 267 650Q277 632 298 631H310L317 620Q328 603 348 603Q369 603 379 620L386 631H399Q419 632 429 650Q440 667 430 685L424 697L430 708Q440 726 429 744Q419 761 399 762H386L379 773Q369 790 348 790Q328 790 317 773ZM348 754 355 743Q365 726 385 726L398 725L392 714Q383 697 392 679L398 668H385Q365 667 355 650L348 640L342 650Q331 667 312 668H299L305 679Q314 697 305 714L299 725L312 726Q331 726 342 743Z" fill="#000000" />
<path d="M697 532Q697 491 786 462Q855 440 898 440Q936 440 963 467Q990 494 990 532Q990 570 963 596Q936 623 898 623Q855 623 786 601Q697 572 697 532ZM733 532Q733 545 797 566Q860 587 898 587Q953 587 953 532Q953 477 898 477Q860 477 797 497Q733 518 733 532Z" fill="#000000" />
<path d="M981.5 641.75Q1000.25 641.75 1000.25 659.25Q1000.25 678.0 981.5 678.0Q954.0 678.0 954.0 705.5Q954.0 733.0 981.5 733.0Q1000.25 733.0 1000.25 751.75Q1000.25 769.25 981.5 769.25Q917.75 769.25 917.75 705.5Q917.75 641.75 981.5 641.75Z" fill="#000000" />
<path d="M458 110Q453 110 448 107Q441 102 439 95Q438 89 443 81L480 26Q485 18 495 18H788Q798 18 804 26L840 81Q843 86 843 92Q843 110 825 110ZM493 73H791L779 55H505Z" fill="#000000" />
</g></svg>