<svg xmlns="http://www.w3.org/2000/svg" viewBox="0 0 2048 2048">
<g transform="matrix(1 0 0 -1 0 2048)">
<path d="M770 660V614H908V541Q908 527 897.5 498.0Q887 469 872.0 434.0Q857 399 842.0 367.0Q827 335 817.0 314.0Q807 293 807 293L862 183Q862 183 868.5 204.0Q875 225 885.5 259.5Q896 294 907.5 334.5Q919 375 929.5 415.5Q940 456 946.5 489.0Q953 522 953 541V660Z" fill="#3f3f3f" />
<path d="M330 541Q330 522 336.5 489.0Q343 456 353.5 415.5Q364 375 376.0 334.5Q388 294 398.0 259.5Q408 225 415.0 204.0Q422 183 422 183L477 477Q477 477 466.0 487.5Q455 498 440.0 514.5Q425 531 414.0 550.0Q403 569 403 587Q403 621 403.0 640.5Q403 660 403 660H330Q330 660 330.0 628.0Q330 596 330 541Z" fill="#d0cfce" />
<path d="M497 733H495L403 119L458 -55H825L880 119L788 733H786Q778 772 737.0 798.5Q696 825 642 825Q587 825 546.5 798.5Q506 772 497 733Z" fill="#d0cfce" />
<path d="M599 -55 562 119 623 733H574L513 119L550 -55Z" fill="#d0cfce" />
<path d="M876 147H407L403 119L458 -55H642H825L880 119Z" fill="#3f3f3f" />
<path d="M687.7848510742188 37.1441650390625Q687.7848510742188 47.11553955078125 682.7991638183594 55.425018310546875Q677.8134765625 63.7344970703125 669.5039978027344 68.72018432617188Q661.1945190429688 73.70587158203125 651.22314453125 73.70587158203125Q640.99609375 73.70587158203125 632.6866149902344 68.72018432617188Q624.3771362304688 63.7344970703125 619.3914489746094 55.425018310546875Q614.40576171875 47.11553955078125 614.40576171875 37.1441650390625Q614.40576171875 26.9171142578125 619.3914489746094 18.607635498046875Q624.3771362304688 10.29815673828125 632.6866149902344 5.312469482421875Q640.99609375 0.3267822265625 651.22314453125 0.3267822265625Q661.1945190429688 0.3267822265625 669.5039978027344 5.312469482421875Q677.8134765625 10.29815673828125 682.7991638183594 18.607635498046875Q687.7848510742188 26.9171142578125 687.7848510742188 37.1441650390625Z" fill="#d22f27" />
<path d="M706 37Q706 92 651 92Q596 92 596 37Q596 -18 651 -18Q706 -18 706 37ZM669 37Q669 18 651 18Q632 18 632 37Q632 55 651 55Q669 55 669 37Z" fill="#9b9b9a" />
<path d="M605.0584716796875 898.5263671875V825.4647216796875H678.8492431640625V898.5263671875Z" fill="#3f3f3f" />
<path d="M807 678Q788 678 788 660Q788 642 807 642H935V541Q935 479 853 216Q847 199 865 193Q882 188 888 205Q972 473 972 541V660Q972 678 953 678ZM807 633Q788 633 788 614Q788 596 807 596H889V541Q889 512 827 378Q819 361 836 353Q852 345 860 362Q926 504 926 541V614Q926 633 908 633Z" fill="#000000" />
<path d="M395 207Q400 189 418 195Q427 198 430 203Q433 209 430 218Q348 479 348 541V642H385V587Q385 544 444 482Q457 469 470 482Q484 495 471 508Q422 558 422 587V660Q422 678 403 678H330Q312 678 312 660V541Q312 473 395 207Z" fill="#000000" />
<path d="M788 733 770 731Q770 732 770 733ZM495 733H513Q513 732 513 731ZM403 119 386 114Q385 118 385 122ZM458 -55V-73Q445 -73 441 -61ZM825 -55 842 -61Q838 -73 825 -73ZM880 119 898 122Q899 118 897 114ZM642 807V843Q708 843 755 814Q777 800 792.0 779.5Q807 759 807 733H770Q770 761 736 783Q718 793 694.0 800.0Q670 807 642 807ZM513 733H477Q477 759 491.5 779.5Q506 800 528 814Q576 843 642 843V807Q613 807 589.0 800.0Q565 793 548 783Q513 761 513 733ZM477 736 513 731 421 116 385 122ZM386 114 421 125 476 -49 441 -61ZM458 -73V-37H642V-73ZM642 -73V-37H825V-73ZM842 -61 808 -49 863 125 897 114ZM898 122 862 116 770 731 806 736Z" fill="#000000" />
<path d="M651.0 -18.0Q670.0 -18.0 670.0 0.0Q670.0 19.0 651.0 19.0Q633.0 19.0 633.0 37.0Q633.0 55.0 651.0 55.0Q670.0 55.0 670.0 74.0Q670.0 92.0 651.0 92.0Q596.0 92.0 596.0 37.0Q596.0 -18.0 651.0 -18.0Z" fill="#000000" />
<path d="M422 147Q403 147 403 128Q403 110 422 110H816Q834 110 834 128Q834 147 816 147Z" fill="#000000" />
<path d="M495 752Q477 752 477 733Q477 715 495 715H733Q752 715 752 733Q752 752 733 752Z" fill="#000000" />
<path d="M587 825Q587 807 605 807H678Q697 807 697 825V898Q697 917 678 917H605Q587 917 587 898ZM623 880H660V843H623Z" fill="#000000" />
</g></svg>