<svg xmlns="http://www.w3.org/2000/svg" viewBox="0 0 2048 2048">
<g transform="matrix(1 0 0 -1 0 2048)">
<path d="M598 238Q542 238 496.0 273.0Q450 308 423.0 366.0Q396 424 396 495Q396 566 423.0 624.0Q450 682 496.0 717.0Q542 752 598 752Q653 752 699.0 717.0Q745 682 772.0 624.0Q799 566 799 495Q799 424 772.0 366.0Q745 308 699.0 273.0Q653 238 598 238Z" fill="#fcea2b" />
<path d="M605 660Q682 660 728.5 639.5Q775 619 788 605Q786 622 776.0 645.5Q766 669 746.0 691.0Q726 713 693.5 728.0Q661 743 614 743Q567 743 532.0 726.0Q497 709 472.5 684.0Q448 659 433.0 632.5Q418 606 413 587Q423 599 449.0 616.5Q475 634 514.5 647.0Q554 660 605 660Z" fill="#6a462f" />
<path d="M678 779Q678 798 656.5 811.5Q635 825 605 825Q575 825 553.5 811.5Q532 798 532 779Q532 760 553.5 746.5Q575 733 605 733Q635 733 656.5 746.5Q678 760 678 779Z" fill="#6a462f" />
<path d="M952.9677124023438 -38.846923828125V34.00604248046875Q952.9677124023438 79.91339111328125 926.5210876464844 117.33786010742188Q900.074462890625 154.7623291015625 857.6600646972656 177.21701049804688Q815.2456665039062 199.67169189453125 769.3383178710938 199.67169189453125Q604.670654296875 61.94964599609375 440.00299072265625 199.67169189453125Q394.09564208984375 199.67169189453125 351.6812438964844 177.21701049804688Q309.266845703125 154.7623291015625 282.8202209472656 117.33786010742188Q256.37359619140625 79.91339111328125 256.37359619140625 34.00604248046875V-38.846923828125Z" fill="#3f3f3f" />
<path d="M423 199Q394 196 367 185V-38H843V185Q820 194 796 198L779 191L770 53H440L431 191Z" fill="#6a462f" />
<path d="M751 -1 788 -56H1081L1118 -1Z" fill="#ffffff" />
<path d="M935 -20Q965 -20 990.0 5.0Q1015 30 1030.0 71.5Q1045 113 1045 164H825Q825 113 839.5 71.5Q854 30 879.0 5.0Q904 -20 935 -20Z" fill="#ffffff" />
<path d="M1045 163V182Q1053 182 1058.0 176.5Q1063 171 1063 163ZM825 163H807Q807 171 812.0 176.5Q817 182 825 182ZM1027 163H1063Q1063 123 1054.0 87.0Q1045 51 1029 24Q1012 -3 988.5 -20.5Q965 -38 935 -38V-2Q970 -2 997 43Q1011 65 1019.0 96.0Q1027 127 1027 163ZM825 145V182H1045V145ZM935 -2V-38Q905 -38 881.5 -20.5Q858 -3 842 24Q825 51 816.0 87.0Q807 123 807 163H843Q843 127 851.0 96.0Q859 65 873 43Q900 -2 935 -2Z" fill="#ffffff" />
<path d="M604 765Q509 765 448 691Q384 616 384 490Q384 382 436 304Q497 213 604 213Q711 213 773 304Q826 382 826 490Q826 615 761 692Q698 765 604 765ZM604 728Q682 728 733 668Q789 602 789 490Q789 394 743 325Q691 249 604 249Q517 249 467 325Q421 393 421 490Q421 603 476 668Q526 728 604 728Z" fill="#000000" />
<path d="M715 515Q715 530 704.0 541.0Q693 552 678 552Q663 552 652.5 541.0Q642 530 642 515Q642 500 652.5 489.5Q663 479 678 479Q693 479 704.0 489.5Q715 500 715 515Z" fill="#000000" />
<path d="M568 515Q568 530 557.5 541.0Q547 552 532 552Q517 552 506.0 541.0Q495 530 495 515Q495 500 506.0 489.5Q517 479 532 479Q547 479 557.5 489.5Q568 500 568 515Z" fill="#000000" />
<path d="M559 381Q550 385 544 383Q538 381 534 373Q525 357 541 349Q605 315 669 349Q685 357 676 373Q668 390 651 381Q605 357 559 381Z" fill="#000000" />
<path d="M551 727 567 760Q550 768 550 779Q550 807 605 807Q660 807 660 779Q660 768 643 760L659 727Q697 746 697 779Q697 843 605 843Q513 843 513 779Q513 746 551 727Z" fill="#000000" />
<path d="M385 504Q385 486 403 486Q422 486 422 504Q422 591 486 631Q545 667 595 635Q605 629 615 635Q665 667 724 631Q788 591 788 504Q788 486 807 486Q825 486 825 504Q825 612 743 662Q670 706 605 672Q540 706 467 662Q385 612 385 504Z" fill="#000000" />
<path d="M238 -18Q238 -37 257 -37Q275 -37 275 -18V37Q275 96 326 140Q374 181 434 183Q605 45 776 183Q785 183 795 181Q813 179 816 197Q818 215 800 218Q785 220 770 220Q763 220 758 216Q605 88 452 216Q447 220 440 220Q363 220 302 167Q238 112 238 37Z" fill="#000000" />
<path d="M449 192 413 189 422 52Q423 35 440 35H770Q787 35 788 52L797 189L761 192L753 72H457Z" fill="#000000" />
<path d="M385 182Q385 200 367 200Q348 200 348 182V-20Q348 -38 367 -38Q385 -38 385 -20Z" fill="#000000" />
<path d="M830 46Q838 29 855 36Q871 44 864 61Q847 99 844 145H1026Q1023 99 1006 61Q999 44 1015 36Q1032 29 1040 46Q1063 98 1063 163Q1063 182 1045 182H825Q807 182 807 163Q807 98 830 46Z" fill="#000000" />
<path d="M752 17Q746 17 741 13Q726 3 736 -12L773 -67Q779 -75 788 -75H1082Q1091 -75 1097 -67L1134 -12Q1137 -7 1137 -2Q1137 17 1118 17ZM786 -20H1084L1072 -38H798Z" fill="#000000" />
</g></svg>