<svg xmlns="http://www.w3.org/2000/svg" viewBox="0 0 2048 2048">
<g transform="matrix(1 0 0 -1 0 2048)">
<path d="M396 361Q396 361 390.0 347.0Q384 333 386 320Q387 314 401.5 295.5Q416 277 436.0 255.5Q456 234 474.0 217.5Q492 201 501 199Q509 197 513.5 207.0Q518 217 520.0 231.5Q522 246 522.5 257.5Q523 269 523 269Q523 269 527.0 294.5Q531 320 536.5 359.0Q542 398 547.5 439.5Q553 481 557.0 515.0Q561 549 560.5 563.5Q560 578 554 562Q546 543 528.0 517.0Q510 491 487.5 464.0Q465 437 444.0 413.5Q423 390 409.5 375.5Q396 361 396 361Z" fill="#ffffff" />
<path d="M344 336Q353 345 355.5 338.5Q358 332 361 327Q365 322 368.0 318.0Q371 314 381 304Q382 303 392.0 302.0Q402 301 419 294Q426 290 435.5 280.0Q445 270 445 270L497 163L444 126L368 236V291Q363 305 356.5 316.5Q350 328 350 328Z" fill="#a57939" />
<path d="M608 583Q610 588 611.5 606.5Q613 625 613.0 641.5Q613 658 611 658Q602 657 587.0 639.5Q572 622 554.0 595.0Q536 568 518.5 539.0Q501 510 486.5 486.0Q472 462 463 451Q459 445 447.5 431.0Q436 417 421.5 401.0Q407 385 391.5 373.0Q376 361 364 361Q331 360 324.0 367.5Q317 375 317 375L438 516L531 673Q566 732 633 747L733 768Q762 775 790 764L815 755Q833 748 842 731L872 668Q880 652 884 635L977 240Q977 240 969.0 237.5Q961 235 948.5 236.5Q936 238 925 249Q919 254 910.5 278.0Q902 302 892.5 336.0Q883 370 873.5 407.0Q864 444 856.0 476.0Q848 508 843.5 528.5Q839 549 839 549L848 314L825 73L746 -183H686L729 77L735 312H695L579 -183H519Z" fill="#fcea2b" />
<path d="M732.2584838867188 897.2750244140625Q732.2584838867188 912.2356567382812 724.7781677246094 924.7028503417969Q717.2978515625 937.1700439453125 704.8306579589844 944.6503601074219Q692.3634643554688 952.1306762695312 677.40283203125 952.1306762695312Q662.05859375 952.1306762695312 649.5914001464844 944.6503601074219Q637.1242065429688 937.1700439453125 629.6438903808594 924.7028503417969Q622.16357421875 912.2356567382812 622.16357421875 897.2750244140625Q622.16357421875 881.9307861328125 629.6438903808594 869.4635925292969Q637.1242065429688 856.9963989257812 649.5914001464844 849.5160827636719Q662.05859375 842.0357666015625 677.40283203125 842.0357666015625Q692.3634643554688 842.0357666015625 704.8306579589844 849.5160827636719Q717.2978515625 856.9963989257812 724.7781677246094 869.4635925292969Q732.2584838867188 881.9307861328125 732.2584838867188 897.2750244140625Z" fill="#fcea2b" />
<path d="M751 897Q751 970 678 970Q604 970 604 897Q604 866 626 845Q647 823 678 823Q751 823 751 897ZM714 897Q714 860 678 860Q641 860 641 897Q641 912 652 923Q663 933 678 933Q714 933 714 897Z" fill="#000000" />
<path d="M825 662Q823 680 804 678Q795 677 791 672Q787 667 788 658L826 348Q830 314 827 279L811 112Q807 77 797 44L739 -143Q733 -165 716 -165Q713 -165 712 -163Q709 -158 710 -150L741 34Q748 72 749 110L753 267Q753 287 745 302Q734 323 715 323Q680 323 669 273L570 -143Q565 -165 549 -165Q546 -165 544 -162Q540 -157 541 -149L632 640Q634 658 616 660Q607 661 602 657Q597 653 596 644L505 -145Q502 -167 514 -183Q527 -202 549 -202Q594 -202 606 -152L704 264Q709 286 715 286L713 285Q716 278 716 268L712 110Q711 75 705 40L674 -144Q670 -166 681 -183Q694 -202 716 -202Q760 -202 774 -154L832 33Q843 70 847 108L863 276Q867 314 862 353Z" fill="#000000" />
<path d="M320 400Q312 395 311 389Q310 382 315 375Q325 360 340 370L368 388Q399 409 447 491L538 645Q580 717 646 734Q717 752 788 752Q846 752 856 677L867 601Q880 510 906 420L954 252Q959 234 977 239Q994 244 989 262L941 430Q916 517 904 607L893 682Q887 725 857 756Q826 788 788 788Q713 788 637 769Q556 749 506 664L416 510Q371 435 347 419Z" fill="#000000" />
<path d="M364 340Q359 347 353 349Q346 350 339 346Q323 336 333 320Q342 305 348 290V238Q348 233 352 228L427 118Q432 110 439 109Q445 108 453 113Q453 113 453 113L505 150Q520 160 510 175L449 267Q439 282 424 272Q416 267 415 260Q414 254 419 246L470 170L447 154L385 244V293Q385 297 384 300Q376 320 364 340Z" fill="#000000" />
</g></svg>