<svg xmlns="http://www.w3.org/2000/svg" viewBox="0 0 2048 2048">
<g transform="matrix(1 0 0 -1 0 2048)">
<path d="M245 896V-120H1067V896Z" fill="#d0cfce" />
<path d="M1068 573V193L365 896H744Z" fill="#ffffff" />
<path d="M328 806V46H991V806Z" fill="#3f3f3f" />
<path d="M991 270 455 806H835L991 650Z" fill="#9b9b9a" />
<path d="M229 -102Q229 -138 265 -138H1054Q1091 -138 1091 -102V877Q1091 914 1054 914H265Q229 914 229 877ZM265 -102V877H1054V-102Z" fill="#000000" />
<path d="M696.7848510742188 -37.8558349609375Q696.7848510742188 -27.88446044921875 691.7991638183594 -19.574981689453125Q686.8134765625 -11.2655029296875 678.5039978027344 -6.279815673828125Q670.1945190429688 -1.29412841796875 660.22314453125 -1.29412841796875Q649.99609375 -1.29412841796875 641.6866149902344 -6.279815673828125Q633.3771362304688 -11.2655029296875 628.3914489746094 -19.574981689453125Q623.40576171875 -27.88446044921875 623.40576171875 -37.8558349609375Q623.40576171875 -48.0828857421875 628.3914489746094 -56.392364501953125Q633.3771362304688 -64.70184326171875 641.6866149902344 -69.68753051757812Q649.99609375 -74.6732177734375 660.22314453125 -74.6732177734375Q670.1945190429688 -74.6732177734375 678.5039978027344 -69.68753051757812Q686.8134765625 -64.70184326171875 691.7991638183594 -56.392364501953125Q696.7848510742188 -48.0828857421875 696.7848510742188 -37.8558349609375Z" fill="#000000" />
<path d="M309 46Q309 28 328 28H991Q1009 28 1009 46V806Q1009 824 991 824H328Q309 824 309 806ZM346 788H972V65H346Z" fill="#000000" />
</g></svg>