<svg xmlns="http://www.w3.org/2000/svg" viewBox="0 0 2048 2048">
<g transform="matrix(1 0 0 -1 0 2048)">
<path d="M532 972V642H788V972Z" fill="#9b9b9a" />
<path d="M532 128V-202H788V128Z" fill="#9b9b9a" />
<path d="M934.2924194335938 386.3751220703125Q934.2924194335938 461.17828369140625 896.8908386230469 523.5142517089844Q859.4892578125 585.8502197265625 797.1532897949219 623.2518005371094Q734.8173217773438 660.6533813476562 660.01416015625 660.6533813476562Q583.29296875 660.6533813476562 520.9570007324219 623.2518005371094Q458.62103271484375 585.8502197265625 421.2194519042969 523.5142517089844Q383.81787109375 461.17828369140625 383.81787109375 386.3751220703125Q383.81787109375 309.6539306640625 421.2194519042969 247.31796264648438Q458.62103271484375 184.98199462890625 520.9570007324219 147.58041381835938Q583.29296875 110.1788330078125 660.01416015625 110.1788330078125Q734.8173217773438 110.1788330078125 797.1532897949219 147.58041381835938Q859.4892578125 184.98199462890625 896.8908386230469 247.31796264648438Q934.2924194335938 309.6539306640625 934.2924194335938 386.3751220703125Z" fill="#3f3f3f" />
<path d="M513.1783447265625 531.8544921875V422.2479248046875H623.8846435546875V531.8544921875Z" fill="#92d3f5" />
<path d="M696.1783447265625 531.8544921875V422.2479248046875H806.8846435546875V531.8544921875Z" fill="#ea5a47" />
<path d="M696.1783447265625 348.8544921875V239.2479248046875H806.8846435546875V348.8544921875Z" fill="#92d3f5" />
<path d="M513.1783447265625 348.8544921875V239.2479248046875H623.8846435546875V348.8544921875Z" fill="#b399c8" />
<path d="M953 385Q953 506 867 592Q781 678 660 678Q539 678 453 592Q367 506 367 385Q367 264 453 178Q539 92 660 92Q781 92 867 178Q953 264 953 385ZM917 385Q917 279 841 204Q766 128 660 128Q554 128 479 204Q403 279 403 385Q403 491 479 566Q554 642 660 642Q766 642 841 566Q917 491 917 385Z" fill="#000000" />
<path d="M513 642Q513 623 532 623Q550 623 550 642V953Q550 972 532 972Q513 972 513 953Z" fill="#000000" />
<path d="M770 642Q770 623 789 623Q807 623 807 642V953Q807 972 789 972Q770 972 770 953Z" fill="#000000" />
<path d="M513 -183Q513 -202 532 -202Q550 -202 550 -183V128Q550 147 532 147Q513 147 513 128Z" fill="#000000" />
<path d="M770 -183Q770 -202 789 -202Q807 -202 807 -183V128Q807 147 789 147Q770 147 770 128Z" fill="#000000" />
<path d="M605 403Q642 403 642 440V513Q642 550 605 550H532Q495 550 495 513V440Q495 403 532 403ZM605 440H532V513H605Z" fill="#000000" />
<path d="M788 403Q825 403 825 440V513Q825 550 788 550H715Q678 550 678 513V440Q678 403 715 403ZM788 440H715V513H788Z" fill="#000000" />
<path d="M788 220Q825 220 825 257V330Q825 367 788 367H715Q678 367 678 330V257Q678 220 715 220ZM788 257H715V330H788Z" fill="#000000" />
<path d="M605 220Q642 220 642 257V330Q642 367 605 367H532Q495 367 495 330V257Q495 220 532 220ZM605 257H532V330H605Z" fill="#000000" />
<path d="M696.7848510742188 -164.8558349609375Q696.7848510742188 -154.88446044921875 691.7991638183594 -146.57498168945312Q686.8134765625 -138.2655029296875 678.5039978027344 -133.27981567382812Q670.1945190429688 -128.29412841796875 660.22314453125 -128.29412841796875Q649.99609375 -128.29412841796875 641.6866149902344 -133.27981567382812Q633.3771362304688 -138.2655029296875 628.3914489746094 -146.57498168945312Q623.40576171875 -154.88446044921875 623.40576171875 -164.8558349609375Q623.40576171875 -175.0828857421875 628.3914489746094 -183.39236450195312Q633.3771362304688 -191.70184326171875 641.6866149902344 -196.68753051757812Q649.99609375 -201.6732177734375 660.22314453125 -201.6732177734375Q670.1945190429688 -201.6732177734375 678.5039978027344 -196.68753051757812Q686.8134765625 -191.70184326171875 691.7991638183594 -183.39236450195312Q696.7848510742188 -175.0828857421875 696.7848510742188 -164.8558349609375Z" fill="#000000" />
</g></svg>