<svg xmlns="http://www.w3.org/2000/svg" viewBox="0 0 2048 2048">
<g transform="matrix(1 0 0 -1 0 2048)">
<path d="M187.226318359375 113.0087890625V35.7174072265625H383.276611328125V113.0087890625Z" fill="#9b9b9a" />
<path d="M934.226318359375 732.0830078125V654.7755126953125H1130.276611328125V732.0830078125Z" fill="#d0cfce" />
<path d="M385 87Q367 87 367 68Q367 50 385 50H1037Q1072 50 1107 74Q1173 122 1173 237Q1173 351 1110 399Q1077 424 1043 424H322Q301 424 279 439Q233 472 233 558Q233 642 277 666Q299 678 319 674Q321 674 322 674H931Q950 674 950 692Q950 711 931 711H324Q291 715 260 698Q197 664 197 558Q197 453 258 409Q290 387 322 387H1043Q1065 387 1088 370Q1137 333 1137 237Q1137 141 1085 104Q1061 87 1037 87Z" fill="#000000" />
<path d="M170 35Q170 17 188 17H383Q401 17 401 35V113Q401 131 383 131H188Q170 131 170 113ZM206 94H364V53H206Z" fill="#000000" />
<path d="M917 654Q917 636 935 636H1130Q1148 636 1148 654V732Q1148 750 1130 750H935Q917 750 917 732ZM953 713H1111V673H953Z" fill="#000000" />
</g></svg>