<svg xmlns="http://www.w3.org/2000/svg" viewBox="0 0 2048 2048">
<g transform="matrix(1 0 0 -1 0 2048)">
<path d="M304 732 243 559H203V261H243L353 0H924L1044 275H1102V533H1052L995 732Z" fill="#9b9b9a" />
<path d="M573.930908203125 508.5382080078125Q573.930908203125 537.2939453125 559.5530395507812 563.074951171875Q545.1751708984375 588.85595703125 520.3857421875 602.738037109375Q494.604736328125 617.6116943359375 465.35321044921875 617.6116943359375Q436.1016845703125 617.6116943359375 411.312255859375 602.738037109375Q386.5228271484375 588.85595703125 372.14495849609375 563.074951171875Q357.76708984375 537.2939453125 357.76708984375 508.5382080078125Q357.76708984375 479.782470703125 372.14495849609375 454.49725341796875Q386.5228271484375 429.2120361328125 411.312255859375 414.33837890625Q436.1016845703125 399.4647216796875 465.35321044921875 399.4647216796875Q494.604736328125 399.4647216796875 520.3857421875 414.33837890625Q545.1751708984375 429.2120361328125 559.5530395507812 454.49725341796875Q573.930908203125 479.782470703125 573.930908203125 508.5382080078125Z" fill="#d0cfce" />
<path d="M576.6045532226562 199.9324951171875Q576.6045532226562 220.09661865234375 566.5224914550781 236.90005493164062Q556.4404296875 253.7034912109375 539.6369934082031 263.7855529785156Q522.8335571289062 273.86761474609375 502.66943359375 273.86761474609375Q481.98828125 273.86761474609375 465.1848449707031 263.7855529785156Q448.38140869140625 253.7034912109375 438.2993469238281 236.90005493164062Q428.21728515625 220.09661865234375 428.21728515625 199.9324951171875Q428.21728515625 179.2513427734375 438.2993469238281 162.44790649414062Q448.38140869140625 145.64447021484375 465.1848449707031 135.56240844726562Q481.98828125 125.4803466796875 502.66943359375 125.4803466796875Q522.8335571289062 125.4803466796875 539.6369934082031 135.56240844726562Q556.4404296875 145.64447021484375 566.5224914550781 162.44790649414062Q576.6045532226562 179.2513427734375 576.6045532226562 199.9324951171875Z" fill="#d0cfce" />
<path d="M956.3024291992188 385.3902587890625Q956.3024291992188 424.53546142578125 936.7298278808594 457.1564636230469Q917.1572265625 489.7774658203125 884.5362243652344 509.3500671386719Q851.9152221679688 528.9226684570312 812.77001953125 528.9226684570312Q772.62109375 528.9226684570312 740.0000915527344 509.3500671386719Q707.3790893554688 489.7774658203125 687.8064880371094 457.1564636230469Q668.23388671875 424.53546142578125 668.23388671875 385.3902587890625Q668.23388671875 345.2413330078125 687.8064880371094 312.6203308105469Q707.3790893554688 279.99932861328125 740.0000915527344 260.4267272949219Q772.62109375 240.8541259765625 812.77001953125 240.8541259765625Q851.9152221679688 240.8541259765625 884.5362243652344 260.4267272949219Q917.1572265625 279.99932861328125 936.7298278808594 312.6203308105469Q956.3024291992188 345.2413330078125 956.3024291992188 385.3902587890625Z" fill="#d0cfce" />
<path d="M477 753Q477 775 462.5 790.5Q448 806 429 806Q409 806 394.5 790.5Q380 775 380 753Z" fill="#ffffff" />
<path d="M621 753Q621 775 606.5 790.5Q592 806 573 806Q553 806 538.5 790.5Q524 775 524 753Z" fill="#ffffff" />
<path d="M766 753Q766 775 751.5 790.5Q737 806 718 806Q698 806 683.5 790.5Q669 775 669 753Z" fill="#ffffff" />
<path d="M910 753Q910 775 895.5 790.5Q881 806 862 806Q842 806 827.5 790.5Q813 775 813 753Z" fill="#ffffff" />
<path d="M304 750Q291 750 286 738L230 577H203Q184 577 184 559V261Q184 243 203 243H231L336 -7Q340 -18 353 -18H924Q936 -18 941 -7L1056 257H1102Q1121 257 1121 275V533Q1121 552 1102 552H1066L1012 737Q1008 750 995 750ZM317 714H981L1034 528Q1038 515 1052 515H1084V293H1044Q1032 293 1027 282L912 19H365L260 268Q255 279 243 279H221V540H243Q256 540 260 553Z" fill="#000000" />
<path d="M592 508Q592 561 555 598Q518 634 465 634Q413 634 376 598Q339 561 339 508Q339 456 376 419Q413 382 465 382Q518 382 555 419Q592 456 592 508ZM555 508Q555 471 529 445Q503 419 465 419Q428 419 402 445Q376 471 376 508Q376 545 402 572Q428 598 465 598Q503 598 529 572Q555 545 555 508Z" fill="#000000" />
<path d="M595 200Q595 238 568 265Q541 292 503 292Q464 292 437 265Q410 238 410 200Q410 161 437 134Q464 107 503 107Q541 107 568 134Q595 161 595 200ZM558 200Q558 144 503 144Q479 144 463 160Q447 177 447 200Q447 255 503 255Q558 255 558 200Z" fill="#000000" />
<path d="M975 385Q975 452 927 499Q880 547 813 547Q745 547 698 499Q650 452 650 385Q650 317 698 270Q745 222 813 222Q880 222 927 270Q975 317 975 385ZM938 385Q938 333 901 296Q865 259 813 259Q761 259 724 296Q687 333 687 385Q687 437 724 473Q761 510 813 510Q865 510 901 473Q938 437 938 385Z" fill="#000000" />
<path d="M470 634Q452 638 448 621Q443 603 461 598L808 511Q826 506 830 524Q833 533 829 538Q826 544 817 546Z" fill="#000000" />
<path d="M376 511Q373 529 355 526Q337 524 339 506Q381 228 412 162Q448 85 507 108Q587 116 893 244Q901 247 904 253Q906 259 903 268Q896 285 879 278Q572 150 501 144Q498 144 495 142Q467 131 445 178Q417 239 376 511Z" fill="#000000" />
<path d="M362 753Q362 734 380 734Q399 734 399 753Q399 768 408 778Q417 787 429 787Q458 787 458 753Q458 734 477 734Q495 734 495 753Q495 782 476 802Q457 824 429 824Q362 824 362 753Z" fill="#000000" />
<path d="M506 753Q506 734 525 734Q543 734 543 753Q543 787 573 787Q603 787 603 753Q603 734 621 734Q639 734 639 753Q639 782 621 802Q601 824 573 824Q506 824 506 753Z" fill="#000000" />
<path d="M651 753Q651 734 669 734Q688 734 688 753Q688 768 697 778Q706 787 718 787Q747 787 747 753Q747 734 766 734Q784 734 784 753Q784 782 765 802Q746 824 718 824Q651 824 651 753Z" fill="#000000" />
<path d="M795 753Q795 734 814 734Q832 734 832 753Q832 768 841 778Q850 787 862 787Q891 787 891 753Q891 734 910 734Q928 734 928 753Q928 782 909 802Q890 824 862 824Q834 824 814 802Q795 782 795 753Z" fill="#000000" />
</g></svg>