<svg xmlns="http://www.w3.org/2000/svg" viewBox="0 0 2048 2048">
<g transform="matrix(1 0 0 -1 0 2048)">
<path d="M660 808Q748 808 824.0 775.0Q900 742 958.0 684.5Q1016 627 1049.0 550.5Q1082 474 1082 386Q1082 299 1049.0 222.5Q1016 146 958.0 88.5Q900 31 824.0 -2.0Q748 -35 660 -35Q573 -35 496.5 -2.0Q420 31 362.0 88.5Q304 146 271.5 222.5Q239 299 239 386Q239 474 271.5 550.5Q304 627 362.0 684.5Q420 742 496.5 775.0Q573 808 660 808ZM660 112Q717 112 767.0 133.5Q817 155 854.5 192.5Q892 230 913.5 280.0Q935 330 935 386Q935 443 913.5 493.0Q892 543 854.5 580.5Q817 618 767.0 639.5Q717 661 660 661Q604 661 554.0 639.5Q504 618 466.5 580.5Q429 543 407.5 493.0Q386 443 386 386Q386 330 407.5 280.0Q429 230 466.5 192.5Q504 155 554.0 133.5Q604 112 660 112Z" fill="#9b9b9a" />
<path d="M578 905V699H743V905Z" fill="#9b9b9a" />
<path d="M578 72V-133H743V72Z" fill="#9b9b9a" />
<path d="M346 469H141V304H346Z" fill="#9b9b9a" />
<path d="M1179 469H974V304H1179Z" fill="#9b9b9a" />
<path d="M1061 465Q1065 447 1083 451Q1101 454 1097 472Q1072 602 974 699Q876 796 746 823Q728 826 725 808Q723 799 726 794Q730 789 739 787Q858 762 948 673Q1038 584 1061 465Z" fill="#000000" />
<path d="M739 -15Q721 -19 725 -37Q728 -55 746 -51Q877 -26 974 72Q1072 170 1097 301Q1099 310 1096 315Q1092 321 1083 322Q1065 326 1061 308Q1038 188 948 98Q859 8 739 -15Z" fill="#000000" />
<path d="M259 308Q257 317 251 321Q246 324 237 322Q219 319 223 301Q248 170 346 72Q444 -25 575 -51Q593 -55 596 -37Q598 -28 594 -22Q591 -17 582 -15Q462 9 372 98Q282 188 259 308Z" fill="#000000" />
<path d="M582 787Q591 789 594 794Q598 799 596 808Q593 826 575 823Q444 797 347 700Q249 602 223 472Q221 463 224 458Q228 453 237 451Q255 447 259 465Q282 584 372 674Q462 763 582 787Z" fill="#000000" />
<path d="M954 386Q954 508 868 594Q782 680 660 680Q539 680 453 594Q367 508 367 386Q367 265 453 179Q539 93 660 93Q782 93 868 179Q954 265 954 386ZM917 386Q917 280 842 205Q767 130 660 130Q554 130 479 205Q404 280 404 386Q404 493 479 568Q554 643 660 643Q767 643 842 568Q917 493 917 386Z" fill="#000000" />
<path d="M560 805Q560 786 578 786Q597 786 597 805V886Q597 905 578 905Q560 905 560 886Z" fill="#000000" />
<path d="M724 805Q724 786 742 786Q761 786 761 805V886Q761 905 742 905Q724 905 724 886Z" fill="#000000" />
<path d="M560 -115Q560 -134 578 -134Q597 -134 597 -115V-34Q597 -15 578 -15Q560 -15 560 -34Z" fill="#000000" />
<path d="M724 -115Q724 -134 742 -134Q761 -134 761 -115V-34Q761 -15 742 -15Q724 -15 724 -34Z" fill="#000000" />
<path d="M1079.1473999023438 486.8974609375Q1060.1439208984375 486.8974609375 1060.1439208984375 468.8941650390625Q1060.1439208984375 449.89068603515625 1079.1473999023438 449.89068603515625H1160.1622314453125Q1179.1657104492188 449.89068603515625 1179.1657104492188 468.8941650390625Q1179.1657104492188 486.8974609375 1160.1622314453125 486.8974609375Z" fill="#000000" />
<path d="M1079.1473999023438 322.8974609375Q1060.1439208984375 322.8974609375 1060.1439208984375 304.8941650390625Q1060.1439208984375 285.89068603515625 1079.1473999023438 285.89068603515625H1160.1622314453125Q1179.1657104492188 285.89068603515625 1179.1657104492188 304.8941650390625Q1179.1657104492188 322.8974609375 1160.1622314453125 322.8974609375Z" fill="#000000" />
<path d="M159.0 487.0Q140.0 487.0 140.0 469.0Q140.0 450.0 159.0 450.0H240.0Q259.0 450.0 259.0 469.0Q259.0 487.0 240.0 487.0Z" fill="#000000" />
<path d="M159.0 323.0Q140.0 323.0 140.0 305.0Q140.0 286.0 159.0 286.0H240.0Q259.0 286.0 259.0 305.0Q259.0 323.0 240.0 323.0Z" fill="#000000" />
</g></svg>