<svg xmlns="http://www.w3.org/2000/svg" viewBox="0 0 2048 2048">
<g transform="matrix(1 0 0 -1 0 2048)">
<path d="M366.0584716796875 678.5263671875V605.4647216796875H439.8492431640625V678.5263671875Z" fill="#000000" />
<path d="M366.0584716796875 165.5263671875V92.4647216796875H439.8492431640625V165.5263671875Z" fill="#000000" />
<path d="M880.0584716796875 678.5263671875V605.4647216796875H953.8492431640625V678.5263671875Z" fill="#000000" />
<path d="M220 825V-55H1100V825Z" fill="#ffffff" />
<path d="M202 -55Q202 -73 220 -73H1100Q1118 -73 1118 -55V825Q1118 843 1100 843H220Q202 843 202 825ZM238 807H1082V-37H238Z" fill="#000000" />
<path d="M366.0584716796875 678.5263671875V605.4647216796875H439.8492431640625V678.5263671875Z" fill="#3f3f3f" />
<path d="M349 605Q349 587 367 587H440Q459 587 459 605V678Q459 697 440 697H367Q349 697 349 678ZM385 660H422V623H385Z" fill="#000000" />
<path d="M366.0584716796875 165.5263671875V92.4647216796875H439.8492431640625V165.5263671875Z" fill="#3f3f3f" />
<path d="M349 92Q349 74 367 74H440Q459 74 459 92V165Q459 184 440 184H367Q349 184 349 165ZM385 147H422V110H385Z" fill="#000000" />
<path d="M880.0584716796875 678.5263671875V605.4647216796875H953.8492431640625V678.5263671875Z" fill="#3f3f3f" />
<path d="M862 605Q862 587 880 587H953Q972 587 972 605V678Q972 697 953 697H880Q862 697 862 678ZM898 660H935V623H898Z" fill="#000000" />
<path d="M348.4736328125 312.130859375Q348.4736328125 317.1201171875 345.97900390625 321.27783203125Q343.484375 325.435546875 339.32666015625 327.93017578125Q335.1689453125 330.4248046875 330.1796875 330.4248046875Q325.0625 330.4248046875 320.90478515625 327.93017578125Q316.7470703125 325.435546875 314.25244140625 321.27783203125Q311.7578125 317.1201171875 311.7578125 312.130859375Q311.7578125 307.013671875 314.25244140625 302.85595703125Q316.7470703125 298.6982421875 320.90478515625 296.20361328125Q325.0625 293.708984375 330.1796875 293.708984375Q335.1689453125 293.708984375 339.32666015625 296.20361328125Q343.484375 298.6982421875 345.97900390625 302.85595703125Q348.4736328125 307.013671875 348.4736328125 312.130859375Z" fill="#000000" />
<path d="M311.4736328125 348.130859375Q311.4736328125 353.1201171875 308.97900390625 357.27783203125Q306.484375 361.435546875 302.32666015625 363.93017578125Q298.1689453125 366.4248046875 293.1796875 366.4248046875Q288.0625 366.4248046875 283.90478515625 363.93017578125Q279.7470703125 361.435546875 277.25244140625 357.27783203125Q274.7578125 353.1201171875 274.7578125 348.130859375Q274.7578125 343.013671875 277.25244140625 338.85595703125Q279.7470703125 334.6982421875 283.90478515625 332.20361328125Q288.0625 329.708984375 293.1796875 329.708984375Q298.1689453125 329.708984375 302.32666015625 332.20361328125Q306.484375 334.6982421875 308.97900390625 338.85595703125Q311.4736328125 343.013671875 311.4736328125 348.130859375Z" fill="#000000" />
<path d="M385.4736328125 348.130859375Q385.4736328125 353.1201171875 382.97900390625 357.27783203125Q380.484375 361.435546875 376.32666015625 363.93017578125Q372.1689453125 366.4248046875 367.1796875 366.4248046875Q362.0625 366.4248046875 357.90478515625 363.93017578125Q353.7470703125 361.435546875 351.25244140625 357.27783203125Q348.7578125 353.1201171875 348.7578125 348.130859375Q348.7578125 343.013671875 351.25244140625 338.85595703125Q353.7470703125 334.6982421875 357.90478515625 332.20361328125Q362.0625 329.708984375 367.1796875 329.708984375Q372.1689453125 329.708984375 376.32666015625 332.20361328125Q380.484375 334.6982421875 382.97900390625 338.85595703125Q385.4736328125 343.013671875 385.4736328125 348.130859375Z" fill="#000000" />
<path d="M641.4736328125 202.130859375Q641.4736328125 207.1201171875 638.97900390625 211.27783203125Q636.484375 215.435546875 632.32666015625 217.93017578125Q628.1689453125 220.4248046875 623.1796875 220.4248046875Q618.0625 220.4248046875 613.90478515625 217.93017578125Q609.7470703125 215.435546875 607.25244140625 211.27783203125Q604.7578125 207.1201171875 604.7578125 202.130859375Q604.7578125 197.013671875 607.25244140625 192.85595703125Q609.7470703125 188.6982421875 613.90478515625 186.20361328125Q618.0625 183.708984375 623.1796875 183.708984375Q628.1689453125 183.708984375 632.32666015625 186.20361328125Q636.484375 188.6982421875 638.97900390625 192.85595703125Q641.4736328125 197.013671875 641.4736328125 202.130859375Z" fill="#000000" />
<path d="M751.4736328125 348.130859375Q751.4736328125 353.1201171875 748.97900390625 357.27783203125Q746.484375 361.435546875 742.32666015625 363.93017578125Q738.1689453125 366.4248046875 733.1796875 366.4248046875Q728.0625 366.4248046875 723.90478515625 363.93017578125Q719.7470703125 361.435546875 717.25244140625 357.27783203125Q714.7578125 353.1201171875 714.7578125 348.130859375Q714.7578125 343.013671875 717.25244140625 338.85595703125Q719.7470703125 334.6982421875 723.90478515625 332.20361328125Q728.0625 329.708984375 733.1796875 329.708984375Q738.1689453125 329.708984375 742.32666015625 332.20361328125Q746.484375 334.6982421875 748.97900390625 338.85595703125Q751.4736328125 343.013671875 751.4736328125 348.130859375Z" fill="#000000" />
<path d="M751.4736328125 532.130859375Q751.4736328125 537.1201171875 748.97900390625 541.27783203125Q746.484375 545.435546875 742.32666015625 547.93017578125Q738.1689453125 550.4248046875 733.1796875 550.4248046875Q728.0625 550.4248046875 723.90478515625 547.93017578125Q719.7470703125 545.435546875 717.25244140625 541.27783203125Q714.7578125 537.1201171875 714.7578125 532.130859375Q714.7578125 527.013671875 717.25244140625 522.85595703125Q719.7470703125 518.6982421875 723.90478515625 516.20361328125Q728.0625 513.708984375 733.1796875 513.708984375Q738.1689453125 513.708984375 742.32666015625 516.20361328125Q746.484375 518.6982421875 748.97900390625 522.85595703125Q751.4736328125 527.013671875 751.4736328125 532.130859375Z" fill="#000000" />
<path d="M605.4736328125 752.130859375Q605.4736328125 757.1201171875 602.97900390625 761.27783203125Q600.484375 765.435546875 596.32666015625 767.93017578125Q592.1689453125 770.4248046875 587.1796875 770.4248046875Q582.0625 770.4248046875 577.90478515625 767.93017578125Q573.7470703125 765.435546875 571.25244140625 761.27783203125Q568.7578125 757.1201171875 568.7578125 752.130859375Q568.7578125 747.013671875 571.25244140625 742.85595703125Q573.7470703125 738.6982421875 577.90478515625 736.20361328125Q582.0625 733.708984375 587.1796875 733.708984375Q592.1689453125 733.708984375 596.32666015625 736.20361328125Q600.484375 738.6982421875 602.97900390625 742.85595703125Q605.4736328125 747.013671875 605.4736328125 752.130859375Z" fill="#000000" />
<path d="M861.4736328125 458.130859375Q861.4736328125 463.1201171875 858.97900390625 467.27783203125Q856.484375 471.435546875 852.32666015625 473.93017578125Q848.1689453125 476.4248046875 843.1796875 476.4248046875Q838.0625 476.4248046875 833.90478515625 473.93017578125Q829.7470703125 471.435546875 827.25244140625 467.27783203125Q824.7578125 463.1201171875 824.7578125 458.130859375Q824.7578125 453.013671875 827.25244140625 448.85595703125Q829.7470703125 444.6982421875 833.90478515625 442.20361328125Q838.0625 439.708984375 843.1796875 439.708984375Q848.1689453125 439.708984375 852.32666015625 442.20361328125Q856.484375 444.6982421875 858.97900390625 448.85595703125Q861.4736328125 453.013671875 861.4736328125 458.130859375Z" fill="#000000" />
<path d="M971.4736328125 458.130859375Q971.4736328125 463.1201171875 968.97900390625 467.27783203125Q966.484375 471.435546875 962.32666015625 473.93017578125Q958.1689453125 476.4248046875 953.1796875 476.4248046875Q948.0625 476.4248046875 943.90478515625 473.93017578125Q939.7470703125 471.435546875 937.25244140625 467.27783203125Q934.7578125 463.1201171875 934.7578125 458.130859375Q934.7578125 453.013671875 937.25244140625 448.85595703125Q939.7470703125 444.6982421875 943.90478515625 442.20361328125Q948.0625 439.708984375 953.1796875 439.708984375Q958.1689453125 439.708984375 962.32666015625 442.20361328125Q966.484375 444.6982421875 968.97900390625 448.85595703125Q971.4736328125 453.013671875 971.4736328125 458.130859375Z" fill="#000000" />
<path d="M971.4736328125 238.130859375Q971.4736328125 243.1201171875 968.97900390625 247.27783203125Q966.484375 251.435546875 962.32666015625 253.93017578125Q958.1689453125 256.4248046875 953.1796875 256.4248046875Q948.0625 256.4248046875 943.90478515625 253.93017578125Q939.7470703125 251.435546875 937.25244140625 247.27783203125Q934.7578125 243.1201171875 934.7578125 238.130859375Q934.7578125 233.013671875 937.25244140625 228.85595703125Q939.7470703125 224.6982421875 943.90478515625 222.20361328125Q948.0625 219.708984375 953.1796875 219.708984375Q958.1689453125 219.708984375 962.32666015625 222.20361328125Q966.484375 224.6982421875 968.97900390625 228.85595703125Q971.4736328125 233.013671875 971.4736328125 238.130859375Z" fill="#000000" />
<path d="M1008.4736328125 165.130859375Q1008.4736328125 170.1201171875 1005.97900390625 174.27783203125Q1003.484375 178.435546875 999.32666015625 180.93017578125Q995.1689453125 183.4248046875 990.1796875 183.4248046875Q985.0625 183.4248046875 980.90478515625 180.93017578125Q976.7470703125 178.435546875 974.25244140625 174.27783203125Q971.7578125 170.1201171875 971.7578125 165.130859375Q971.7578125 160.013671875 974.25244140625 155.85595703125Q976.7470703125 151.6982421875 980.90478515625 149.20361328125Q985.0625 146.708984375 990.1796875 146.708984375Q995.1689453125 146.708984375 999.32666015625 149.20361328125Q1003.484375 151.6982421875 1005.97900390625 155.85595703125Q1008.4736328125 160.013671875 1008.4736328125 165.130859375Z" fill="#000000" />
<path d="M1045.4736328125 18.130859375Q1045.4736328125 23.1201171875 1042.97900390625 27.27783203125Q1040.484375 31.435546875 1036.32666015625 33.93017578125Q1032.1689453125 36.4248046875 1027.1796875 36.4248046875Q1022.0625 36.4248046875 1017.90478515625 33.93017578125Q1013.7470703125 31.435546875 1011.25244140625 27.27783203125Q1008.7578125 23.1201171875 1008.7578125 18.130859375Q1008.7578125 13.013671875 1011.25244140625 8.85595703125Q1013.7470703125 4.6982421875 1017.90478515625 2.20361328125Q1022.0625 -0.291015625 1027.1796875 -0.291015625Q1032.1689453125 -0.291015625 1036.32666015625 2.20361328125Q1040.484375 4.6982421875 1042.97900390625 8.85595703125Q1045.4736328125 13.013671875 1045.4736328125 18.130859375Z" fill="#000000" />
<path d="M605.4736328125 18.130859375Q605.4736328125 23.1201171875 602.97900390625 27.27783203125Q600.484375 31.435546875 596.32666015625 33.93017578125Q592.1689453125 36.4248046875 587.1796875 36.4248046875Q582.0625 36.4248046875 577.90478515625 33.93017578125Q573.7470703125 31.435546875 571.25244140625 27.27783203125Q568.7578125 23.1201171875 568.7578125 18.130859375Q568.7578125 13.013671875 571.25244140625 8.85595703125Q573.7470703125 4.6982421875 577.90478515625 2.20361328125Q582.0625 -0.291015625 587.1796875 -0.291015625Q592.1689453125 -0.291015625 596.32666015625 2.20361328125Q600.484375 4.6982421875 602.97900390625 8.85595703125Q605.4736328125 13.013671875 605.4736328125 18.130859375Z" fill="#000000" />
<path d="M825.4736328125 18.130859375Q825.4736328125 23.1201171875 822.97900390625 27.27783203125Q820.484375 31.435546875 816.32666015625 33.93017578125Q812.1689453125 36.4248046875 807.1796875 36.4248046875Q802.0625 36.4248046875 797.90478515625 33.93017578125Q793.7470703125 31.435546875 791.25244140625 27.27783203125Q788.7578125 23.1201171875 788.7578125 18.130859375Q788.7578125 13.013671875 791.25244140625 8.85595703125Q793.7470703125 4.6982421875 797.90478515625 2.20361328125Q802.0625 -0.291015625 807.1796875 -0.291015625Q812.1689453125 -0.291015625 816.32666015625 2.20361328125Q820.484375 4.6982421875 822.97900390625 8.85595703125Q825.4736328125 13.013671875 825.4736328125 18.130859375Z" fill="#000000" />
<path d="M861.4736328125 55.130859375Q861.4736328125 60.1201171875 858.97900390625 64.27783203125Q856.484375 68.435546875 852.32666015625 70.93017578125Q848.1689453125 73.4248046875 843.1796875 73.4248046875Q838.0625 73.4248046875 833.90478515625 70.93017578125Q829.7470703125 68.435546875 827.25244140625 64.27783203125Q824.7578125 60.1201171875 824.7578125 55.130859375Q824.7578125 50.013671875 827.25244140625 45.85595703125Q829.7470703125 41.6982421875 833.90478515625 39.20361328125Q838.0625 36.708984375 843.1796875 36.708984375Q848.1689453125 36.708984375 852.32666015625 39.20361328125Q856.484375 41.6982421875 858.97900390625 45.85595703125Q861.4736328125 50.013671875 861.4736328125 55.130859375Z" fill="#000000" />
<path d="M825.4736328125 92.130859375Q825.4736328125 97.1201171875 822.97900390625 101.27783203125Q820.484375 105.435546875 816.32666015625 107.93017578125Q812.1689453125 110.4248046875 807.1796875 110.4248046875Q802.0625 110.4248046875 797.90478515625 107.93017578125Q793.7470703125 105.435546875 791.25244140625 101.27783203125Q788.7578125 97.1201171875 788.7578125 92.130859375Q788.7578125 87.013671875 791.25244140625 82.85595703125Q793.7470703125 78.6982421875 797.90478515625 76.20361328125Q802.0625 73.708984375 807.1796875 73.708984375Q812.1689453125 73.708984375 816.32666015625 76.20361328125Q820.484375 78.6982421875 822.97900390625 82.85595703125Q825.4736328125 87.013671875 825.4736328125 92.130859375Z" fill="#000000" />
<path d="M311.4736328125 458.130859375Q311.4736328125 463.1201171875 308.97900390625 467.27783203125Q306.484375 471.435546875 302.32666015625 473.93017578125Q298.1689453125 476.4248046875 293.1796875 476.4248046875Q288.0625 476.4248046875 283.90478515625 473.93017578125Q279.7470703125 471.435546875 277.25244140625 467.27783203125Q274.7578125 463.1201171875 274.7578125 458.130859375Q274.7578125 453.013671875 277.25244140625 448.85595703125Q279.7470703125 444.6982421875 283.90478515625 442.20361328125Q288.0625 439.708984375 293.1796875 439.708984375Q298.1689453125 439.708984375 302.32666015625 442.20361328125Q306.484375 444.6982421875 308.97900390625 448.85595703125Q311.4736328125 453.013671875 311.4736328125 458.130859375Z" fill="#000000" />
<path d="M751.4736328125 55.130859375Q751.4736328125 60.1201171875 748.97900390625 64.27783203125Q746.484375 68.435546875 742.32666015625 70.93017578125Q738.1689453125 73.4248046875 733.1796875 73.4248046875Q728.0625 73.4248046875 723.90478515625 70.93017578125Q719.7470703125 68.435546875 717.25244140625 64.27783203125Q714.7578125 60.1201171875 714.7578125 55.130859375Q714.7578125 50.013671875 717.25244140625 45.85595703125Q719.7470703125 41.6982421875 723.90478515625 39.20361328125Q728.0625 36.708984375 733.1796875 36.708984375Q738.1689453125 36.708984375 742.32666015625 39.20361328125Q746.484375 41.6982421875 748.97900390625 45.85595703125Q751.4736328125 50.013671875 751.4736328125 55.130859375Z" fill="#000000" />
<path d="M202 -55Q202 -73 220 -73H1100Q1118 -73 1118 -55V825Q1118 843 1100 843H220Q202 843 202 825ZM238 807H1082V-37H238Z" fill="#000000" />
<path d="M275 532Q275 513 293 513H513Q532 513 532 532V752Q532 770 513 770H293Q275 770 275 752ZM312 733H495V550H312Z" fill="#000000" />
<path d="M349 605Q349 587 367 587H440Q459 587 459 605V678Q459 697 440 697H367Q349 697 349 678ZM385 660H422V623H385Z" fill="#000000" />
<path d="M275 19Q275 0 293 0H513Q532 0 532 19V239Q532 257 513 257H293Q275 257 275 239ZM312 220H495V37H312Z" fill="#000000" />
<path d="M349 92Q349 74 367 74H440Q459 74 459 92V165Q459 184 440 184H367Q349 184 349 165ZM385 147H422V110H385Z" fill="#000000" />
<path d="M788 532Q788 513 806 513H1026Q1045 513 1045 532V752Q1045 770 1026 770H806Q788 770 788 752ZM825 733H1008V550H825Z" fill="#000000" />
<path d="M862 605Q862 587 880 587H953Q972 587 972 605V678Q972 697 953 697H880Q862 697 862 678ZM898 660H935V623H898Z" fill="#000000" />
<path d="M312 385Q312 367 330 367Q348 367 348 385V403H477Q495 403 495 422Q495 440 477 440H330Q312 440 312 422Z" fill="#000000" />
<path d="M349.0 421.0Q349.0 403.0 367.0 403.0Q385.0 403.0 385.0 421.0V458.0Q385.0 476.0 367.0 476.0Q349.0 476.0 349.0 458.0Z" fill="#000000" />
<path d="M458 422Q458 440 440 440Q422 440 422 422V312Q422 293 440 293Q458 293 458 312Z" fill="#000000" />
<path d="M440 366Q422 366 422 348Q422 330 440 330H477Q495 330 495 348Q495 366 477 366Z" fill="#000000" />
<path d="M679.0 458.0Q679.0 440.0 697.0 440.0Q715.0 440.0 715.0 458.0V495.0Q715.0 513.0 697.0 513.0Q679.0 513.0 679.0 495.0Z" fill="#000000" />
<path d="M1027.0 404.0Q1045.0 404.0 1045.0 422.0Q1045.0 440.0 1027.0 440.0H990.0Q972.0 440.0 972.0 422.0Q972.0 404.0 990.0 404.0Z" fill="#000000" />
<path d="M770 293Q752 293 752 275Q752 257 770 257H807Q825 257 825 275V312Q825 330 807 330Q788 330 788 312V293Z" fill="#000000" />
<path d="M513 476Q495 476 495 458Q495 440 513 440H550Q568 440 568 458Q568 476 550 476Z" fill="#000000" />
<path d="M623.0 476.0Q605.0 476.0 605.0 458.0Q605.0 440.0 623.0 440.0H733.0Q752.0 440.0 752.0 458.0Q752.0 476.0 733.0 476.0Z" fill="#000000" />
<path d="M715 752Q715 770 697 770Q678 770 678 752V697H660Q642 697 642 678V532Q642 513 660 513Q678 513 678 532V660H697Q715 660 715 678Z" fill="#000000" />
<path d="M660.0 550.0Q679.0 550.0 679.0 569.0Q679.0 587.0 660.0 587.0H587.0Q569.0 587.0 569.0 569.0V532.0Q569.0 514.0 587.0 514.0Q605.0 514.0 605.0 532.0V550.0Z" fill="#000000" />
<path d="M660.0 660.0Q678.0 660.0 678.0 679.0Q678.0 697.0 660.0 697.0H587.0Q568.0 697.0 568.0 679.0Q568.0 660.0 587.0 660.0Z" fill="#000000" />
<path d="M660 624Q679 624 679 642Q679 660 660 660H642V715Q642 734 624 734Q605 734 605 715V642Q605 624 624 624Z" fill="#000000" />
<path d="M513 403Q495 403 495 385Q495 367 513 367H660Q678 367 678 385Q678 403 660 403Z" fill="#000000" />
<path d="M568 385Q568 403 550 403Q532 403 532 385V330H513Q495 330 495 312Q495 293 513 293H550Q568 293 568 312Z" fill="#000000" />
<path d="M641.0 385.0Q641.0 403.0 623.0 403.0Q605.0 403.0 605.0 385.0V348.0Q605.0 330.0 623.0 330.0Q641.0 330.0 641.0 348.0Z" fill="#000000" />
<path d="M568 238Q568 220 587 220Q605 220 605 238V257H678V165Q678 147 697 147H770Q788 147 788 165V183H898V18Q898 0 917 0Q935 0 935 18V202Q935 220 917 220H770Q752 220 752 202V183H715V275Q715 293 697 293H587Q568 293 568 275Z" fill="#000000" />
<path d="M678 312Q678 330 660 330Q642 330 642 312V238Q642 220 660 220H752V165Q752 147 770 147H807Q825 147 825 165Q825 183 807 183H788V293H843Q862 293 862 312Q862 330 843 330H770Q752 330 752 312V257H678Z" fill="#000000" />
<path d="M898 422Q898 440 880 440Q862 440 862 422V348Q862 330 880 330H898V293H880Q862 293 862 275V202Q862 183 880 183Q898 183 898 202V257H917Q935 257 935 275V348Q935 367 917 367H898Z" fill="#000000" />
<path d="M899.0 349.0Q899.0 330.0 917.0 330.0Q935.0 330.0 935.0 349.0V367.0H954.0Q972.0 367.0 972.0 385.0Q972.0 404.0 954.0 404.0H917.0Q899.0 404.0 899.0 385.0Z" fill="#000000" />
<path d="M953.0 110.0Q972.0 110.0 972.0 129.0Q972.0 147.0 953.0 147.0H880.0Q862.0 147.0 862.0 129.0V92.0Q862.0 74.0 880.0 74.0Q898.0 74.0 898.0 92.0V110.0Z" fill="#000000" />
<path d="M587 110Q568 110 568 92Q568 73 587 73H605V55Q605 37 623 37H660Q678 37 678 55V128Q678 147 660 147Q642 147 642 128V92Q642 110 623 110Z" fill="#000000" />
<path d="M1045 458Q1045 477 1027 477Q1008 477 1008 458V367H990Q972 367 972 348Q972 330 990 330H1027Q1045 330 1045 348Z" fill="#000000" />
<path d="M789.0 385.0Q789.0 367.0 807.0 367.0Q825.0 367.0 825.0 385.0V422.0Q825.0 440.0 807.0 440.0Q789.0 440.0 789.0 422.0Z" fill="#000000" />
<path d="M1045.0 275.0Q1045.0 293.0 1027.0 293.0Q1009.0 293.0 1009.0 275.0V238.0Q1009.0 220.0 1027.0 220.0Q1045.0 220.0 1045.0 238.0Z" fill="#000000" />
<path d="M990 110Q972 110 972 92Q972 74 990 74H1027Q1045 74 1045 92Q1045 110 1027 110Z" fill="#000000" />
<path d="M751.0 642.0Q751.0 660.0 733.0 660.0Q715.0 660.0 715.0 642.0V605.0Q715.0 587.0 733.0 587.0Q751.0 587.0 751.0 605.0Z" fill="#000000" />
</g></svg>