<svg xmlns="http://www.w3.org/2000/svg" viewBox="0 0 2048 2048">
<g transform="matrix(1 0 0 -1 0 2048)">
<path d="M147 18V752H1155V605L1228 532V185L1155 110V18Z" fill="#5c9e31" />
<path d="M1030 752H1155V605L1228 532V185L1155 110V18Z" fill="#5c9e31" />
<path d="M574 18 1030 752H147V18Z" fill="#b1cc33" />
<path d="M110 642V477H147V642Z" fill="#b1cc33" />
<path d="M532 202V128H1045V202Z" fill="#b1cc33" />
<path d="M440 642V568H1045V642Z" fill="#b1cc33" />
<path d="M128 642Q128 623 147 623Q165 623 165 642V733H1137V605Q1137 597 1142 592L1210 524V193L1142 123Q1137 117 1137 110V37H165V477Q165 495 147 495Q128 495 128 477V18Q128 0 147 0H1155Q1173 0 1173 18V103L1241 172Q1247 178 1247 185V532Q1247 539 1241 545L1173 613V752Q1173 770 1155 770H147Q128 770 128 752Z" fill="#000000" />
<path d="M513 128Q513 110 532 110H1045Q1063 110 1063 128V202Q1063 220 1045 220H532Q513 220 513 202ZM550 183H1027V147H550Z" fill="#000000" />
<path d="M422 568Q422 550 440 550H1045Q1063 550 1063 568V642Q1063 660 1045 660H440Q422 660 422 642ZM458 623H1027V587H458Z" fill="#000000" />
<path d="M312 495Q312 477 330 477Q348 477 348 495V642Q348 660 330 660H92Q73 660 73 642V477Q73 458 92 458H204Q222 458 222 477Q222 495 204 495H110V623H312Z" fill="#000000" />
<path d="M257 147Q238 147 238 128Q238 110 257 110H330Q348 110 348 128V202Q348 220 330 220H257Q238 220 238 202Q238 183 257 183H312V147Z" fill="#000000" />
</g></svg>