<svg xmlns="http://www.w3.org/2000/svg" viewBox="0 0 2048 2048">
<g transform="matrix(1 0 0 -1 0 2048)">
<path d="M73 605V165H1247V605Z" fill="#ffffff" />
<path d="M1082 605 587 165H1247V605Z" fill="#d0cfce" />
<path d="M55 165Q55 147 73 147H1247Q1265 147 1265 165V605Q1265 623 1247 623H73Q55 623 55 605ZM92 587H1228V183H92Z" fill="#000000" />
<path d="M752 238Q770 238 770 257V513Q770 532 752 532H165Q147 532 147 513V257Q147 238 165 238Z" fill="#000000" />
<path d="M1155 238Q1173 238 1173 257V513Q1173 532 1155 532H1008Q990 532 990 513V257Q990 238 1008 238Z" fill="#000000" />
<path d="M904 306Q904 298 909.5 293.0Q915 288 922 288H935Q953 288 953 270V257Q953 238 935 238H906H856H825Q807 238 807 257V270Q807 288 825 288H836Q854 288 854 306V319Q854 337 873 337H886Q904 337 904 319Z" fill="#000000" />
<path d="M935 422Q953 422 953 440V513Q953 532 935 532H825Q807 532 807 513V440Q807 422 825 422Z" fill="#000000" />
<path d="M752 238Q770 238 770 257V513Q770 532 752 532H165Q147 532 147 513V257Q147 238 165 238Z" fill="#3f3f3f" />
<path d="M1155 238Q1173 238 1173 257V513Q1173 532 1155 532H1008Q990 532 990 513V257Q990 238 1008 238Z" fill="#3f3f3f" />
<path d="M904 306Q904 298 909.5 293.0Q915 288 922 288H935Q953 288 953 270V257Q953 238 935 238H906H856H825Q807 238 807 257V270Q807 288 825 288H836Q854 288 854 306V319Q854 337 873 337H886Q904 337 904 319Z" fill="#3f3f3f" />
<path d="M935 422Q953 422 953 440V513Q953 532 935 532H825Q807 532 807 513V440Q807 422 825 422Z" fill="#3f3f3f" />
</g></svg>