<svg xmlns="http://www.w3.org/2000/svg" viewBox="0 0 2048 2048">
<g transform="matrix(1 0 0 -1 0 2048)">
<path d="M92 733V37H1228V733Z" fill="#ffffff" />
<path d="M73 37Q73 18 92 18H1228Q1247 18 1247 37V733Q1247 752 1228 752H92Q73 752 73 733ZM110 715H1210V55H110Z" fill="#000000" />
<path d="M183 660Q183 678 165 678Q147 678 147 660V92Q147 73 165 73Q183 73 183 92Z" fill="#000000" />
<path d="M238 660Q238 678 220 678Q202 678 202 660V92Q202 73 220 73Q238 73 238 92Z" fill="#000000" />
<path d="M238 660Q238 678 220 678Q202 678 202 660V92Q202 73 220 73Q238 73 238 92Z" fill="#000000" />
<path d="M385 660Q385 678 367 678Q348 678 348 660V128Q348 110 367 110Q385 110 385 128Z" fill="#000000" />
<path d="M532 660Q532 678 514 678Q495 678 495 660V128Q495 110 514 110Q532 110 532 128Z" fill="#000000" />
<path d="M275 128H312V660H275Z" fill="#000000" />
<path d="M257 128Q257 110 275 110H312Q330 110 330 128V660Q330 678 312 678H275Q257 678 257 660Z" fill="#000000" />
<path d="M422 128H458V660H422Z" fill="#000000" />
<path d="M404 128Q404 110 422 110H459Q477 110 477 128V660Q477 678 459 678H422Q404 678 404 660Z" fill="#000000" />
<path d="M568.5 128.029541015625H586.5V659.350830078125H568.5Z" fill="#000000" />
<path d="M550 128Q550 110 568 110H587Q605 110 605 128V660Q605 678 587 678H568Q550 678 550 660Z" fill="#000000" />
<path d="M862 660Q862 678 844 678Q825 678 825 660V128Q825 110 844 110Q862 110 862 128Z" fill="#000000" />
<path d="M917 660Q917 678 899 678Q880 678 880 660V128Q880 110 899 110Q917 110 917 128Z" fill="#000000" />
<path d="M1063 660Q1063 678 1045 678Q1026 678 1026 660V128Q1026 110 1045 110Q1063 110 1063 128Z" fill="#000000" />
<path d="M752 128H788V660H752Z" fill="#000000" />
<path d="M734 128Q734 110 752 110H789Q807 110 807 128V660Q807 678 789 678H752Q734 678 734 660Z" fill="#000000" />
<path d="M953 128H990V660H953Z" fill="#000000" />
<path d="M935 128Q935 110 953 110H990Q1008 110 1008 128V660Q1008 678 990 678H953Q935 678 935 660Z" fill="#000000" />
<path d="M1118 660Q1118 678 1100 678Q1082 678 1082 660V92Q1082 73 1100 73Q1118 73 1118 92Z" fill="#000000" />
<path d="M1173 660Q1173 678 1155 678Q1137 678 1137 660V92Q1137 73 1155 73Q1173 73 1173 92Z" fill="#000000" />
<path d="M660 660Q660 678 642 678Q624 678 624 660V92Q624 73 642 73Q660 73 660 92Z" fill="#000000" />
<path d="M715 660Q715 678 697 678Q679 678 679 660V92Q679 73 697 73Q715 73 715 92Z" fill="#000000" />
</g></svg>