<svg xmlns="http://www.w3.org/2000/svg" viewBox="0 0 2048 2048">
<g transform="matrix(1 0 0 -1 0 2048)">
<path d="M385 495V275H495V495Z" fill="#ffffff" />
<path d="M1026.2924194335938 386.3751220703125Q1026.2924194335938 461.17828369140625 988.8908386230469 523.5142517089844Q951.4892578125 585.8502197265625 889.1532897949219 623.2518005371094Q826.8173217773438 660.6533813476562 752.01416015625 660.6533813476562Q675.29296875 660.6533813476562 612.9570007324219 623.2518005371094Q550.6210327148438 585.8502197265625 513.2194519042969 523.5142517089844Q475.81787109375 461.17828369140625 475.81787109375 386.3751220703125Q475.81787109375 309.6539306640625 513.2194519042969 247.31796264648438Q550.6210327148438 184.98199462890625 612.9570007324219 147.58041381835938Q675.29296875 110.1788330078125 752.01416015625 110.1788330078125Q826.8173217773438 110.1788330078125 889.1532897949219 147.58041381835938Q951.4892578125 184.98199462890625 988.8908386230469 247.31796264648438Q1026.2924194335938 309.6539306640625 1026.2924194335938 386.3751220703125Z" fill="#ffffff" />
<path d="M944 581Q950 576 955.0 570.5Q960 565 964 559Q993 523 1010.0 478.5Q1027 434 1027 385Q1027 328 1005.5 278.0Q984 228 946.0 190.5Q908 153 858.5 131.5Q809 110 752 110Q695 110 644.5 132.0Q594 154 557 191Z" fill="#d0cfce" />
<path d="M384.760986328125 440.6837158203125Q402.6851806640625 440.6837158203125 402.6851806640625 458.60791015625Q402.6851806640625 476.5321044921875 384.760986328125 476.5321044921875H293.1484375Q275.2242431640625 476.5321044921875 275.2242431640625 458.60791015625Q275.2242431640625 440.6837158203125 293.1484375 440.6837158203125Z" fill="#000000" />
<path d="M384.760986328125 366.6837158203125Q402.6851806640625 366.6837158203125 402.6851806640625 384.60791015625Q402.6851806640625 402.5321044921875 384.760986328125 402.5321044921875H293.1484375Q275.2242431640625 402.5321044921875 275.2242431640625 384.60791015625Q275.2242431640625 366.6837158203125 293.1484375 366.6837158203125Z" fill="#000000" />
<path d="M384.760986328125 293.6837158203125Q402.6851806640625 293.6837158203125 402.6851806640625 311.60791015625Q402.6851806640625 329.5321044921875 384.760986328125 329.5321044921875H293.1484375Q275.2242431640625 329.5321044921875 275.2242431640625 311.60791015625Q275.2242431640625 293.6837158203125 293.1484375 293.6837158203125Z" fill="#000000" />
<path d="M513 286Q513 304 495 304Q481 304 478 293H403V477H478Q481 466 495 466Q513 466 513 484V495Q513 513 495 513H385Q367 513 367 495V275Q367 257 385 257H495Q513 257 513 275Z" fill="#000000" />
<path d="M1045 385Q1045 506 959 592Q873 678 752 678Q631 678 545 592Q459 506 459 385Q459 264 545 178Q631 92 752 92Q873 92 959 178Q1045 264 1045 385ZM1009 385Q1009 279 933 204Q858 128 752 128Q646 128 571 204Q495 279 495 385Q495 491 571 566Q646 642 752 642Q858 642 933 566Q1009 491 1009 385Z" fill="#000000" />
<path d="M824.6238403320312 385.3275146484375Q824.6238403320312 405.27264404296875 814.6512756347656 421.8935852050781Q804.6787109375 438.5145263671875 788.0577697753906 448.4870910644531Q771.4368286132812 458.45965576171875 751.49169921875 458.45965576171875Q731.03515625 458.45965576171875 714.4142150878906 448.4870910644531Q697.7932739257812 438.5145263671875 687.8207092285156 421.8935852050781Q677.84814453125 405.27264404296875 677.84814453125 385.3275146484375Q677.84814453125 364.8709716796875 687.8207092285156 348.2500305175781Q697.7932739257812 331.62908935546875 714.4142150878906 321.6565246582031Q731.03515625 311.6839599609375 751.49169921875 311.6839599609375Q771.4368286132812 311.6839599609375 788.0577697753906 321.6565246582031Q804.6787109375 331.62908935546875 814.6512756347656 348.2500305175781Q824.6238403320312 364.8709716796875 824.6238403320312 385.3275146484375Z" fill="#000000" />
<path d="M367 477H293Q284 477 279.0 471.0Q274 465 274 458Q274 451 279.0 445.5Q284 440 293 440H367Z" fill="#e27022" />
<path d="M367 404H293Q284 404 279.0 398.0Q274 392 274 385Q274 378 279.0 372.5Q284 367 293 367H367Z" fill="#e27022" />
<path d="M367 330H293Q284 330 279.0 324.0Q274 318 274 311Q274 304 279.0 298.5Q284 293 293 293H367Z" fill="#e27022" />
</g></svg>