<svg xmlns="http://www.w3.org/2000/svg" viewBox="0 0 2048 2048">
<g transform="matrix(1 0 0 -1 0 2048)">
<path d="M953 348H1027V92V36Q1027 29 1021.5 23.5Q1016 18 1009 18H311Q304 18 298.5 23.5Q293 29 293 36V92V238H367V92H953Z" fill="#9b9b9a" />
<path d="M935 367V110H385V257H275V36Q275 21 286 11Q296 0 311 0H1009Q1024 0 1034 11Q1045 21 1045 36V367ZM972 330H1008V37H312V220H348V73H972Z" fill="#9b9b9a" />
<path d="M315 752H1005Q1014 752 1020.5 745.5Q1027 739 1027 730V678V422H953V678H367V532H293V678V730Q293 739 299.5 745.5Q306 752 315 752Z" fill="#ea5a47" />
<path d="M315 770Q298 770 287 758Q275 747 275 730V513H385V660H935V403H1045V730Q1045 770 1005 770ZM315 733H1005Q1008 733 1008 730V440H972V697H348V550H312V730Q312 733 315 733Z" fill="#ea5a47" />
<path d="M476.30181884765625 385.6942138671875Q476.30181884765625 425.58685302734375 456.3554992675781 458.8307189941406Q436.4091796875 492.0745849609375 403.1653137207031 512.0209045410156Q369.92144775390625 531.9672241210938 330.02880859375 531.9672241210938Q289.11328125 531.9672241210938 255.86941528320312 512.0209045410156Q222.62554931640625 492.0745849609375 202.67922973632812 458.8307189941406Q182.73291015625 425.58685302734375 182.73291015625 385.6942138671875Q182.73291015625 344.7786865234375 202.67922973632812 311.5348205566406Q222.62554931640625 278.29095458984375 255.86941528320312 258.3446350097656Q289.11328125 238.3983154296875 330.02880859375 238.3983154296875Q369.92144775390625 238.3983154296875 403.1653137207031 258.3446350097656Q436.4091796875 278.29095458984375 456.3554992675781 311.5348205566406Q476.30181884765625 344.7786865234375 476.30181884765625 385.6942138671875Z" fill="#ffffff" />
<path d="M275 527Q275 509 293 509Q312 509 312 527V733H1008V486Q1008 468 1027 468Q1045 468 1045 486V752Q1045 770 1027 770H293Q275 770 275 752Z" fill="#000000" />
<path d="M1045 348Q1045 367 1027 367Q1008 367 1008 348V37H312V243Q312 261 293 261Q275 261 275 243V18Q275 0 293 0H1027Q1045 0 1045 18Z" fill="#000000" />
<path d="M348 527Q348 509 367 509Q385 509 385 527V660H935V422Q935 403 953 403Q972 403 972 422V678Q972 697 953 697H367Q348 697 348 678Z" fill="#000000" />
<path d="M972 284Q972 303 953 303Q935 303 935 284V110H385V243Q385 261 367 261Q348 261 348 243V92Q348 73 367 73H953Q972 73 972 92Z" fill="#000000" />
<path d="M495.0 385.0Q495.0 454.0 447.0 502.0Q399.0 550.0 330.0 550.0Q262.0 550.0 214.0 502.0Q165.0 454.0 165.0 385.0Q165.0 317.0 214.0 269.0Q262.0 220.0 330.0 220.0Q399.0 220.0 447.0 269.0Q495.0 317.0 495.0 385.0ZM459.0 385.0Q459.0 332.0 421.0 295.0Q383.0 257.0 330.0 257.0Q277.0 257.0 240.0 295.0Q202.0 332.0 202.0 385.0Q202.0 439.0 240.0 476.0Q277.0 514.0 330.0 514.0Q383.0 514.0 421.0 476.0Q459.0 439.0 459.0 385.0Z" fill="#000000" />
<path d="M447 476Q460 489 447 502Q434 515 421 502L213 294Q200 281 213 268Q220 262 226 262Q233 262 239 268Z" fill="#000000" />
<path d="M239.69024658203125 501.2991943359375Q232.74688720703125 508.20660400390625 226.44915771484375 508.46160888671875Q219.7938232421875 507.78448486328125 214.1417236328125 501.3870849609375Q200.61907958984375 488.3665771484375 213.9329833984375 475.83709716796875L420.94573974609375 268.035888671875Q434.2596435546875 255.50640869140625 446.4942626953125 267.947998046875Q460.01690673828125 280.968505859375 447.06060791015625 294.43011474609375Z" fill="#000000" />
<path d="M898 440Q880 440 880 422Q880 403 898 403H1082Q1100 403 1100 422Q1100 440 1082 440Z" fill="#000000" />
<path d="M807 367Q788 367 788 348Q788 330 807 330H1173Q1192 330 1192 348Q1192 367 1173 367Z" fill="#000000" />
</g></svg>