<svg xmlns="http://www.w3.org/2000/svg" viewBox="0 0 2048 2048">
<g transform="matrix(1 0 0 -1 0 2048)">
<path d="M898 280V-73H422V280L660 495Z" fill="#ffffff" />
<path d="M422 165H128V383L275 515L402 419L569 264Z" fill="#ffffff" />
<path d="M862 189 1042 342 1210 195V-37H898Z" fill="#ffffff" />
<path d="M557 403V580L660 678L763 580V403Z" fill="#ffffff" />
<path d="M587 -73 898 275V-73Z" fill="#d0cfce" />
<path d="M281 165 422 306V165Z" fill="#d0cfce" />
<path d="M1027 -37 1210 183V-37Z" fill="#d0cfce" />
<path d="M660 664Q668 664 673.5 670.0Q679 676 679 684V856Q679 864 673.5 870.0Q668 876 660 876Q652 876 646.5 870.0Q641 864 641 856V684Q641 676 646.5 670.0Q652 664 660 664Z" fill="#000000" />
<path d="M730 767Q738 767 743.5 772.5Q749 778 749 786Q749 794 743.5 800.0Q738 806 730 806H590Q582 806 576.5 800.0Q571 794 571 786Q571 778 576.5 772.5Q582 767 590 767Z" fill="#000000" />
<path d="M911 294 672 509Q660 520 648 509L409 294Q403 288 403 280V-73Q403 -92 422 -92H898Q917 -92 917 -73V280Q917 288 911 294ZM880 272V-55H440V272L660 470Z" fill="#000000" />
<path d="M409 369Q416 363 423 363Q429 364 435 370Q448 384 434 396L287 528Q275 539 263 528L116 396Q110 391 110 383V165Q110 147 128 147H422Q440 147 440 165Q440 183 422 183H147V374L275 490Z" fill="#000000" />
<path d="M898 -18Q880 -18 880 -37Q880 -55 898 -55H1210Q1228 -55 1228 -37V195Q1228 203 1222 208L1066 349Q1054 360 1042 349L957 273Q943 261 955 247Q968 233 981 246L1054 310L1192 186V-18Z" fill="#000000" />
<path d="M744 403Q744 385 763 385Q781 385 781 403V580Q781 588 775 593L673 692Q660 704 647 692L545 593Q539 588 539 580V403Q539 385 557 385Q576 385 576 403V572L660 653L744 572Z" fill="#000000" />
</g></svg>