<svg xmlns="http://www.w3.org/2000/svg" viewBox="0 0 2048 2048">
<g transform="matrix(1 0 0 -1 0 2048)">
<path d="M855 166Q900 206 926.5 263.0Q953 320 953 385Q953 446 930.5 499.0Q908 552 867.5 592.5Q827 633 774.0 655.5Q721 678 660 678Q595 678 538.0 651.5Q481 625 441 580Q450 534 494.0 467.0Q538 400 607 332Q675 263 742.0 219.0Q809 175 855 166ZM374 450Q367 418 367 385Q367 324 389.5 271.0Q412 218 452.5 177.5Q493 137 546.0 114.5Q599 92 660 92Q693 92 725 99Q680 132 632.0 173.0Q584 214 537 262Q489 309 448.0 357.0Q407 405 374 450Z" fill="#000000" />
<path d="M1027 385Q1027 486 977.5 569.5Q928 653 844.5 702.5Q761 752 660 752Q559 752 475.5 702.5Q392 653 342.5 569.5Q293 486 293 385Q293 284 342.5 200.5Q392 117 475.5 67.5Q559 18 660 18Q761 18 844.5 67.5Q928 117 977.5 200.5Q1027 284 1027 385Z" fill="#d22f27" />
<path d="M1045 385Q1045 544 932 657Q819 770 660 770Q501 770 388 657Q275 544 275 385Q275 226 388 113Q501 0 660 0Q819 0 932 113Q1045 226 1045 385ZM1008 385Q1008 241 906 139Q804 37 660 37Q516 37 414 139Q312 241 312 385Q312 529 414 631Q516 733 660 733Q804 733 906 631Q1008 529 1008 385Z" fill="#d22f27" />
<path d="M1079 -34Q1105 -9 1098.5 42.5Q1092 94 1059 162Q1036 209 1029.5 261.5Q1023 314 1026 366Q1027 375 1027 385Q1027 461 998.5 527.5Q970 594 919.5 644.5Q869 695 802.5 723.5Q736 752 660 752Q650 752 641 751Q589 748 536.5 754.5Q484 761 437 784Q369 817 317.5 823.5Q266 830 241 804Q213 777 222.0 721.0Q231 665 270.5 589.0Q310 513 376.0 427.0Q442 341 529 254Q616 167 702.0 101.0Q788 35 864.0 -4.5Q940 -44 996.0 -53.0Q1052 -62 1079 -34Z" fill="#d22f27" />
<path d="M658.6248779296875 110.70758056640625Q583.8217163085938 110.70758056640625 521.4857482910156 148.10916137695312Q459.1497802734375 185.5107421875 421.7481994628906 247.84671020507812Q384.34661865234375 310.18267822265625 384.34661865234375 384.98583984375Q384.34661865234375 461.70703125 421.7481994628906 524.0429992675781Q459.1497802734375 586.3789672851562 521.4857482910156 623.7805480957031Q583.8217163085938 661.18212890625 658.6248779296875 661.18212890625Q735.3460693359375 661.18212890625 797.6820373535156 623.7805480957031Q860.0180053710938 586.3789672851562 897.4195861816406 524.0429992675781Q934.8211669921875 461.70703125 934.8211669921875 384.98583984375Q934.8211669921875 310.18267822265625 897.4195861816406 247.84671020507812Q860.0180053710938 185.5107421875 797.6820373535156 148.10916137695312Q735.3460693359375 110.70758056640625 658.6248779296875 110.70758056640625Z" fill="#000000" />
<path d="M334 788Q322 799 309 798Q281 795 266 779Q240 754 248.5 701.0Q257 648 294.0 576.5Q331 505 393.0 424.0Q455 343 537 262Q618 180 699.0 118.0Q780 56 851.5 19.0Q923 -18 976.0 -26.5Q1029 -35 1054 -9Q1070 6 1073 34Q1074 47 1063 59L941 181Q934 187 924.0 184.0Q914 181 908 174Q888 154 840.5 169.0Q793 184 731.5 226.0Q670 268 607 332Q543 395 501.0 456.5Q459 518 444.0 565.5Q429 613 449 633Q456 639 459.0 649.0Q462 659 456 666Z" fill="#d22f27" />
<path d="M270 775Q266 772 263.0 761.0Q260 750 263 727Q267 704 277.5 674.0Q288 644 307 608Q345 537 409.0 452.5Q473 368 558 283Q643 198 727.5 134.0Q812 70 883 32Q919 13 949.0 2.5Q979 -8 1002 -12Q1025 -15 1036.0 -12.0Q1047 -9 1050 -5Q1053 -2 1056.5 7.5Q1060 17 1057 38Q1055 58 1046.5 85.0Q1038 112 1022 144Q996 198 989.0 255.5Q982 313 985 368Q985 376 985 385Q985 452 960.0 511.0Q935 570 890.0 615.0Q845 660 786.0 685.0Q727 710 660 710Q651 710 643 710Q588 707 530.5 714.0Q473 721 419 747Q387 763 360.0 771.5Q333 780 313 782Q292 785 282.5 781.5Q273 778 270 775Z" fill="#e27022" />
<path d="M266 779Q253 765 259 726Q266 677 303 606Q385 450 555 280Q725 110 881 28Q952 -9 1001 -16Q1040 -22 1054 -9Q1066 4 1062 38Q1057 82 1026 146Q983 235 990 368Q990 376 990 385Q990 522 893 618Q797 715 660 715Q651 715 643 715Q510 708 421 751Q357 782 313 787Q279 791 266 779ZM273 772Q282 781 312 778Q355 773 417 743Q508 698 643 705Q651 706 660 706Q793 706 887 612Q981 518 981 385Q981 376 980 368Q973 233 1018 142Q1048 80 1053 37Q1056 7 1047 -2Q1037 -12 1002 -7Q955 0 885 36Q730 118 561 286Q393 455 311 610Q275 680 268 727Q263 762 273 772Z" fill="#d22f27" />
<path d="M607 332Q663 275 719.0 235.0Q775 195 820 177Q836 170 852.5 174.5Q869 179 881 192Q915 230 934.0 279.5Q953 329 953 385Q953 446 930.5 499.0Q908 552 867.5 592.5Q827 633 774.0 655.5Q721 678 660 678Q604 678 554.5 659.0Q505 640 467 606Q454 594 449.5 577.5Q445 561 452 545Q470 500 510.0 444.0Q550 388 607 332Z" fill="#000000" />
<path d="M516 241 542 267Q628 181 713.5 115.5Q799 50 872 12Q946 -27 998 -34Q1024 -38 1040.5 -34.5Q1057 -31 1067 -22L1092 -47Q1074 -66 1048.0 -70.5Q1022 -75 993 -71Q963 -66 928.0 -53.0Q893 -40 855 -21Q779 19 691.5 86.0Q604 153 516 241ZM228 817 253 792Q244 782 240.5 765.5Q237 749 241 723Q248 671 287 597Q325 524 390.5 438.5Q456 353 542 267L516 241Q428 329 361.0 416.5Q294 504 254 580Q235 618 222.0 653.0Q209 688 204 718Q200 747 204.5 773.0Q209 799 228 817ZM445 800 429 767Q363 800 315 805Q292 808 277.0 804.0Q262 800 253 792L228 817Q245 834 268.5 839.5Q292 845 320 842Q347 839 378.5 828.0Q410 817 445 800ZM660 770V733Q651 733 642 733L640 769Q650 770 660 770ZM1045 385H1008Q1008 457 981.0 520.0Q954 583 906.0 631.0Q858 679 795.0 706.0Q732 733 660 733V770Q740 770 809.5 740.0Q879 710 932.0 657.0Q985 604 1015.0 534.5Q1045 465 1045 385ZM1044 365 1008 367Q1008 376 1008 385H1045Q1045 375 1044 365ZM1092 -47 1067 -22Q1075 -13 1079.0 2.0Q1083 17 1080 40Q1075 88 1042 154L1075 170Q1092 135 1103.0 103.5Q1114 72 1117 45Q1120 17 1114.5 -6.5Q1109 -30 1092 -47ZM1008 367 1044 365Q1042 314 1048.0 264.0Q1054 214 1075 170L1042 154Q1018 204 1011.5 259.0Q1005 314 1008 367ZM429 767 445 800Q489 779 539.0 773.0Q589 767 640 769L642 733Q589 730 534.0 736.5Q479 743 429 767Z" fill="#000000" />
<path d="M316 437Q318 455 300 458Q282 461 279 443Q275 414 275 385Q275 226 388 113Q501 0 660 0Q694 0 727 6Q745 9 742 27Q739 45 721 42Q691 37 660 37Q516 37 414 139Q312 241 312 385Q312 411 316 437Z" fill="#000000" />
<path d="M660 73Q678 73 678 92Q678 110 660 110Q546 110 466 191Q385 271 385 385Q385 403 367 403Q358 403 353 399Q348 394 348 385Q348 256 440 165Q531 73 660 73Z" fill="#e27022" />
</g></svg>