<svg xmlns="http://www.w3.org/2000/svg" viewBox="0 0 2048 2048">
<g transform="matrix(1 0 0 -1 0 2048)">
<path d="M221 821V-57H1107V821Z" fill="#61b2e4" />
<path d="M1085 -72Q1100 -72 1111 -61Q1122 -50 1122 -35L1119 808Q1119 823 1108 834Q1097 845 1082 845L239 842Q202 842 202 805L205 -38Q205 -53 216 -64Q226 -75 242 -75ZM1085 -35 242 -38 239 805 1082 808Z" fill="#000000" />
<path d="M341 565Q325 557 333 541Q342 524 358 533L669 699Q685 707 677 724Q673 732 666 734Q660 735 652 731Z" fill="#000000" />
<path d="M964 535Q972 530 979 532Q985 534 989 542Q998 559 981 567L669 731Q661 735 655 734Q649 732 644 724Q636 707 652 699Z" fill="#000000" />
<path d="M532 73Q532 55 550 55Q568 55 568 73V257H704Q753 257 788 292Q823 327 823 376Q823 425 788 460Q753 495 704 495H550Q532 495 532 477ZM568 294V458H704Q738 458 762 434Q786 410 786 376Q786 342 762 318Q738 294 704 294Z" fill="#000000" />
</g></svg>