<svg xmlns="http://www.w3.org/2000/svg" viewBox="0 0 2048 2048">
<g transform="matrix(1 0 0 -1 0 2048)">
<path d="M509 -83Q517 -83 522.0 -88.5Q527 -94 527 -101Q527 -109 522.0 -114.0Q517 -119 509 -119H313Q305 -119 300 -114Q294 -109 294 -101V-72H323V-83Z" fill="#9b9b9a" />
<path d="M812.0 -83.0Q804.0 -83.0 799.0 -88.5Q794.0 -94.0 794.0 -101.0Q794.0 -109.0 799.0 -114.0Q804.0 -119.0 812.0 -119.0H1008.0Q1016.0 -119.0 1021.0 -114.0Q1027.0 -109.0 1027.0 -101.0V-72.0H998.0V-83.0Z" fill="#9b9b9a" />
<path d="M509 -90Q501 -90 496.0 -95.0Q491 -100 491 -108V-147Q491 -154 496.0 -159.5Q501 -165 509 -165H812Q820 -165 825.0 -159.5Q830 -154 830 -147V-108Q830 -100 825.0 -95.0Q820 -90 812 -90Z" fill="#61b2e4" />
<path d="M701.4619140625 689.966796875Q701.4619140625 701.5068359375 695.69189453125 711.12353515625Q689.921875 720.740234375 680.30517578125 726.51025390625Q670.6884765625 732.2802734375 659.1484375 732.2802734375Q647.3125 732.2802734375 637.69580078125 726.51025390625Q628.0791015625 720.740234375 622.30908203125 711.12353515625Q616.5390625 701.5068359375 616.5390625 689.966796875Q616.5390625 678.130859375 622.30908203125 668.51416015625Q628.0791015625 658.8974609375 637.69580078125 653.12744140625Q647.3125 647.357421875 659.1484375 647.357421875Q670.6884765625 647.357421875 680.30517578125 653.12744140625Q689.921875 658.8974609375 695.69189453125 668.51416015625Q701.4619140625 678.130859375 701.4619140625 689.966796875Z" fill="#f4aa41" />
<path d="M765 332 884 -72H837L674 281H645L485 -72H438L561 332L570 507L574 530Q551 543 531 562Q502 587 477.5 621.5Q453 656 453 686Q453 710 452.5 721.5Q452 733 452.0 741.0Q452 749 452 761Q452 771 460.0 780.0Q468 789 486 789L512 672L573 595L592 584L721 581L770 562L883 444L801 332Q785 340 781 357Q776 374 785 389Q791 396 798.0 407.5Q805 419 811 429Q817 438 810 446L748 515L744 507Z" fill="#f4aa41" />
<path d="M442 907Q442 888 460 888Q478 888 478 907Q478 924 486 924Q504 924 504 942Q504 952 500 956Q495 961 486 961Q465 961 452 941Q442 926 442 907Z" fill="#9b9b9a" />
<path d="M511 905Q513 886 531 888Q540 890 544 895Q548 900 547 909Q545 925 561 930Q561 930 562 931Q570 934 589 930Q625 924 647 937Q663 947 653 963Q644 978 628 969Q618 963 595 967Q566 972 549 965Q505 950 511 905Z" fill="#9b9b9a" />
<path d="M583 864H420Q420 840 443.5 823.0Q467 806 501 806Q535 806 559.0 823.0Q583 840 583 864Z" fill="#f4aa41" />
<path d="M616 707Q629 694 642 707Q649 713 649 720Q649 726 642 733L608 767Q595 780 582 767Q569 754 582 741Z" fill="#000000" />
<path d="M720 690Q720 715 702 733Q684 751 659 751Q598 751 598 690Q598 665 616 647Q634 629 659 629Q684 629 702 647Q720 665 720 690ZM683 690Q683 666 659 666Q635 666 635 690Q635 700 642 707Q649 714 659 714Q669 714 676 707Q683 700 683 690Z" fill="#000000" />
<path d="M641 732Q641 714 659 714Q677 714 677 732V782Q677 800 659 800Q641 800 641 782Z" fill="#000000" />
<path d="M678 730Q665 717 678 704Q691 691 704 704L739 739Q746 746 746 752Q746 759 739 765Q726 778 713 765Z" fill="#000000" />
<path d="M700.687255859375 708.2738647460938Q682.6949462890625 708.2738647460938 682.6949462890625 690.2815551757812Q682.6949462890625 672.2892456054688 700.687255859375 672.2892456054688H750.6658935546875Q768.658203125 672.2892456054688 768.658203125 690.2815551757812Q768.658203125 708.2738647460938 750.6658935546875 708.2738647460938Z" fill="#000000" />
<path d="M617 672Q635 672 635 690Q635 708 617 708H568Q550 708 550 690Q550 672 568 672Z" fill="#000000" />
<path d="M521 800Q520 818 502 817Q493 817 488 812Q484 808 484 799L488 691Q488 669 500 651Q554 561 605 567Q660 573 714 567Q715 567 717 567Q737 567 752 555Q801 512 842 462Q842 462 843 462Q860 443 845 422L797 355Q787 340 802 329Q816 319 827 334L875 400Q906 445 870 486Q827 538 777 583Q776 583 776 583Q750 604 717 604Q659 609 601 603Q573 600 531 670Q525 680 524 692Z" fill="#000000" />
<path d="M601 864Q601 882 583 882H420Q401 882 401 864Q401 830 433 808Q462 788 501 788Q541 788 570 808Q601 830 601 864ZM557 845Q554 842 549 838Q529 824 501 824Q473 824 454 838Q449 842 445 845Z" fill="#000000" />
<path d="M313 -54Q294 -54 294 -72Q294 -91 313 -91H491V-147Q491 -165 509 -165Q527 -165 527 -147V-72Q527 -54 509 -54Z" fill="#000000" />
<path d="M794 -147Q794 -165 812 -165Q830 -165 830 -147V-91H1009Q1027 -91 1027 -72Q1027 -54 1009 -54H812Q794 -54 794 -72Z" fill="#000000" />
<path d="M748 510Q747 519 742 523Q736 527 727 525Q709 523 712 505L740 329Q740 327 741 326L859 -42Q859 -43 860 -44Q862 -51 855 -53Q848 -57 844 -50L711 259Q702 299 660 299Q617 299 608 259L475 -50Q471 -57 464 -54Q457 -50 460 -44Q460 -43 460 -43Q460 -42 460 -42L579 326Q579 327 579 329L607 505Q610 523 592 525Q574 528 571 510L543 336L426 -30Q426 -30 425 -30Q410 -70 450 -87Q489 -104 508 -66Q508 -66 508 -65L643 246Q644 248 644 250Q646 263 660 263Q673 263 675 250Q675 248 676 246L811 -65Q811 -66 811 -66Q830 -104 869 -87Q909 -70 894 -30Q894 -30 894 -30L776 336Z" fill="#000000" />
</g></svg>