<svg xmlns="http://www.w3.org/2000/svg" viewBox="0 0 2048 2048">
<g transform="matrix(1 0 0 -1 0 2048)">
<path d="M321 150Q329 150 334.0 155.5Q339 161 339 169V457Q339 465 334.0 470.5Q329 476 321 476Q313 476 308.0 470.5Q303 465 303 457V169Q303 161 308.0 155.5Q313 150 321 150Z" fill="#9b9b9a" />
<path d="M468 150Q476 150 481.0 155.5Q486 161 486 169V457Q486 465 481.0 470.5Q476 476 468 476Q460 476 455.0 470.5Q450 465 450 457V169Q450 161 455.0 155.5Q460 150 468 150Z" fill="#9b9b9a" />
<path d="M614 150Q622 150 627.0 155.5Q632 161 632 169V457Q632 465 627.0 470.5Q622 476 614 476Q606 476 601.0 470.5Q596 465 596 457V169Q596 161 601.0 155.5Q606 150 614 150Z" fill="#9b9b9a" />
<path d="M761 150Q769 150 774.0 155.5Q779 161 779 169V457Q779 465 774.0 470.5Q769 476 761 476Q753 476 748.0 470.5Q743 465 743 457V169Q743 161 748.0 155.5Q753 150 761 150Z" fill="#9b9b9a" />
<path d="M908 150Q916 150 921.0 155.5Q926 161 926 169V457Q926 465 921.0 470.5Q916 476 908 476Q900 476 895.0 470.5Q890 465 890 457V169Q890 161 895.0 155.5Q900 150 908 150Z" fill="#9b9b9a" />
<path d="M1054 150Q1062 150 1067.0 155.5Q1072 161 1072 169V457Q1072 465 1067.0 470.5Q1062 476 1054 476Q1046 476 1041.0 470.5Q1036 465 1036 457V169Q1036 161 1041.0 155.5Q1046 150 1054 150Z" fill="#9b9b9a" />
<path d="M237 530V457H1083V530Z" fill="#d0cfce" />
<path d="M237 187Q230 187 224.5 181.5Q219 176 219 169V103Q219 95 224.5 90.0Q230 85 237 85H1083Q1090 85 1095.5 90.0Q1101 95 1101 103V169Q1101 176 1095.5 181.5Q1090 187 1083 187Z" fill="#d0cfce" />
<path d="M168 121Q160 121 155.0 116.0Q150 111 150 103V37Q150 30 155.0 24.5Q160 19 168 19H1152Q1160 19 1165.0 24.5Q1170 30 1170 37V103Q1170 111 1165.0 116.0Q1160 121 1152 121Z" fill="#d0cfce" />
<path d="M1082.43408203125 530.8676147460938 659.9365234375 665.738525390625 237.43896484375 530.8676147460938Z" fill="#d0cfce" />
<path d="M1083 150Q1101 150 1101 169Q1101 187 1083 187H237Q219 187 219 169Q219 150 237 150Z" fill="#000000" />
<path d="M1152 85Q1170 85 1170 103Q1170 121 1152 121H168Q150 121 150 103Q150 85 168 85Z" fill="#000000" />
<path d="M1215 18Q1234 18 1234 37Q1234 55 1215 55H105Q86 55 86 37Q86 18 105 18Z" fill="#000000" />
<path d="M312 457Q312 476 293 476Q275 476 275 457V169Q275 150 293 150Q312 150 312 169Z" fill="#000000" />
<path d="M459 457Q459 476 440 476Q422 476 422 457V169Q422 150 440 150Q459 150 459 169Z" fill="#000000" />
<path d="M605 457Q605 476 586 476Q568 476 568 457V169Q568 150 586 150Q605 150 605 169Z" fill="#000000" />
<path d="M752 457Q752 476 733 476Q715 476 715 457V169Q715 150 733 150Q752 150 752 169Z" fill="#000000" />
<path d="M899 457Q899 476 880 476Q862 476 862 457V169Q862 150 880 150Q899 150 899 169Z" fill="#000000" />
<path d="M1045 457Q1045 476 1026 476Q1008 476 1008 457V169Q1008 150 1026 150Q1045 150 1045 169Z" fill="#000000" />
<path d="M1083 512Q1096 512 1100 525Q1106 542 1088 548L666 683Q660 685 654 683L232 548Q219 544 219 530Q219 512 237 512ZM965 549H355L660 646Z" fill="#000000" />
<path d="M1101 584Q1101 602 1083 602Q1064 602 1064 584V476H256V584Q256 602 237 602Q219 602 219 584V457Q219 439 237 439H1083Q1101 439 1101 457Z" fill="#000000" />
<path d="M642 665Q642 647 660 647Q678 647 678 665V708Q678 726 660 726Q642 726 642 708Z" fill="#000000" />
</g></svg>