<svg xmlns="http://www.w3.org/2000/svg" viewBox="0 0 2048 2048">
<g transform="matrix(1 0 0 -1 0 2048)">
<path d="M404 751Q404 700 390.0 654.5Q376 609 358.0 574.0Q340 539 326.0 519.0Q312 499 312 499Q312 499 298.0 519.0Q284 539 266.0 574.0Q248 609 234.0 654.5Q220 700 220 751Z" fill="#61b2e4" />
<path d="M403.0433349609375 751.419189453125Q403.0433349609375 776.3511962890625 390.57733154296875 797.1278686523438Q378.111328125 817.904541015625 357.33465576171875 830.3705444335938Q336.5579833984375 842.8365478515625 311.6259765625 842.8365478515625Q286.0546875 842.8365478515625 265.27801513671875 830.3705444335938Q244.5013427734375 817.904541015625 232.03533935546875 797.1278686523438Q219.5693359375 776.3511962890625 219.5693359375 751.419189453125Q219.5693359375 725.847900390625 232.03533935546875 705.0712280273438Q244.5013427734375 684.2945556640625 265.27801513671875 671.8285522460938Q286.0546875 659.362548828125 311.6259765625 659.362548828125Q336.5579833984375 659.362548828125 357.33465576171875 671.8285522460938Q378.111328125 684.2945556640625 390.57733154296875 705.0712280273438Q403.0433349609375 725.847900390625 403.0433349609375 751.419189453125Z" fill="#92d3f5" />
<path d="M1101 238Q1101 187 1087.0 141.5Q1073 96 1055.0 61.0Q1037 26 1023.0 6.0Q1009 -14 1009 -14Q1009 -14 995.0 6.0Q981 26 963.0 61.0Q945 96 931.0 141.5Q917 187 917 238Z" fill="#d22f27" />
<path d="M1100.0433349609375 238.419189453125Q1100.0433349609375 263.3511962890625 1087.5773315429688 284.12786865234375Q1075.111328125 304.904541015625 1054.3346557617188 317.37054443359375Q1033.5579833984375 329.8365478515625 1008.6259765625 329.8365478515625Q983.0546875 329.8365478515625 962.2780151367188 317.37054443359375Q941.5013427734375 304.904541015625 929.0353393554688 284.12786865234375Q916.5693359375 263.3511962890625 916.5693359375 238.419189453125Q916.5693359375 212.847900390625 929.0353393554688 192.07122802734375Q941.5013427734375 171.2945556640625 962.2780151367188 158.82855224609375Q983.0546875 146.362548828125 1008.6259765625 146.362548828125Q1033.5579833984375 146.362548828125 1054.3346557617188 158.82855224609375Q1075.111328125 171.2945556640625 1087.5773315429688 192.07122802734375Q1100.0433349609375 212.847900390625 1100.0433349609375 238.419189453125Z" fill="#ea5a47" />
<path d="M239 751Q239 770 220 770Q202 770 202 751Q202 607 298 488Q309 473 323 485Q325 486 326 488Q422 607 422 751Q422 770 404 770Q385 770 385 751Q385 631 312 530Q239 631 239 751Z" fill="#000000" />
<path d="M422 751Q422 797 390 829Q357 861 312 861Q266 861 234 829Q202 797 202 751Q202 705 234 673Q266 641 312 641Q357 641 390 673Q422 705 422 751ZM385 751Q385 721 364 699Q342 678 312 678Q282 678 260 699Q239 721 239 751Q239 781 260 803Q282 824 312 824Q385 824 385 751Z" fill="#000000" />
<path d="M935 238Q935 256 917 256Q899 256 899 238Q899 94 994 -26Q1006 -40 1020 -28Q1022 -27 1023 -26Q1119 94 1119 238Q1119 256 1100 256Q1082 256 1082 238Q1082 118 1009 16Q935 118 935 238Z" fill="#000000" />
<path d="M1119 238Q1119 284 1087 316Q1054 348 1009 348Q963 348 931 316Q899 284 899 238Q899 192 931 160Q963 128 1009 128Q1054 128 1087 160Q1119 192 1119 238ZM1082 238Q1082 208 1061 186Q1039 165 1009 165Q978 165 957 186Q935 208 935 238Q935 311 1009 311Q1039 311 1061 290Q1082 268 1082 238Z" fill="#000000" />
<path d="M312 458Q293 458 293 440Q293 422 312 422Q381 422 453 391Q594 331 605 182Q625 -92 1008 -92Q1027 -92 1027 -73Q1027 -55 1008 -55Q659 -55 642 185Q629 356 468 425Q389 458 312 458Z" fill="#000000" />
<path d="M598 660Q584 672 572 658Q560 645 574 633L795 440Q809 428 821 442Q833 455 819 467Z" fill="#000000" />
<path d="M816.6824951171875 583.9239501953125Q815.4971923828125 602.2042236328125 797.2169189453125 601.0189208984375Q787.7642822265625 601.0577392578125 783.9625244140625 596.0318603515625Q779.216796875 591.324951171875 780.1219482421875 581.5533447265625L789.0440673828125 452.3284912109375Q790.2293701171875 434.0482177734375 808.5096435546875 435.2335205078125Q826.7899169921875 436.4188232421875 825.6046142578125 454.6990966796875Z" fill="#000000" />
<path d="M677 463Q658 462 660 444Q661 425 679 426L808 435Q827 437 825 455Q824 473 806 472Z" fill="#000000" />
</g></svg>