<svg xmlns="http://www.w3.org/2000/svg" viewBox="0 0 2048 2048">
<g transform="matrix(1 0 0 -1 0 2048)">
<path d="M937 202Q987 202 1028.5 226.5Q1070 251 1095.0 292.5Q1120 334 1120 385Q1120 436 1095.0 477.5Q1070 519 1028.5 543.5Q987 568 937 568H386Q336 568 294.0 543.5Q252 519 227.5 477.5Q203 436 203 385Q203 334 227.5 292.5Q252 251 294.0 226.5Q336 202 386 202Z" fill="#d0cfce" />
<path d="M566.1949462890625 385.916748046875Q566.1949462890625 435.7855224609375 541.2605590820312 477.34283447265625Q516.326171875 518.900146484375 474.76885986328125 543.8345336914062Q433.2115478515625 568.7689208984375 383.3427734375 568.7689208984375Q332.1953125 568.7689208984375 290.63800048828125 543.8345336914062Q249.0806884765625 518.900146484375 224.14630126953125 477.34283447265625Q199.2119140625 435.7855224609375 199.2119140625 385.916748046875Q199.2119140625 334.769287109375 224.14630126953125 293.21197509765625Q249.0806884765625 251.6546630859375 290.63800048828125 226.72027587890625Q332.1953125 201.785888671875 383.3427734375 201.785888671875Q433.2115478515625 201.785888671875 474.76885986328125 226.72027587890625Q516.326171875 251.6546630859375 541.2605590820312 293.21197509765625Q566.1949462890625 334.769287109375 566.1949462890625 385.916748046875Z" fill="#ea5a47" />
<path d="M257.426025390625 251.4010009765625Q294.44903564453125 217.78741455078125 342.4609375 207.96746826171875Q390.47283935546875 198.14752197265625 436.30670166015625 212.49713134765625Q482.14056396484375 226.84674072265625 516.7145385742188 264.92755126953125Q550.328125 301.9505615234375 560.19677734375 348.953369140625Q570.0654296875 395.9561767578125 555.6671142578125 442.79913330078125Q541.268798828125 489.64208984375 504.24578857421875 523.2556762695312Z" fill="#ea5a47" />
<path d="M937 184Q1020 184 1079 243Q1138 302 1138 385Q1138 468 1079 527Q1020 586 937 586H386Q303 586 244 527Q185 468 185 385Q185 302 244 243Q303 184 386 184ZM937 220H386Q318 220 270 269Q221 317 221 385Q221 453 270 501Q318 550 386 550H937Q1005 550 1053 501Q1101 453 1101 385Q1101 317 1053 269Q1005 220 937 220Z" fill="#000000" />
<path d="M586 385Q586 469 527 528Q468 587 384 587Q300 587 241 528Q182 469 182 385Q182 301 241 242Q300 183 384 183Q468 183 527 242Q586 301 586 385ZM549 385Q549 317 501 268Q452 220 384 220Q316 220 267 268Q219 317 219 385Q219 453 267 502Q316 550 384 550Q452 550 501 502Q549 453 549 385Z" fill="#000000" />
<path d="M517 537Q503 549 491 536Q479 522 492 510Q543 464 546 396Q549 327 503 277Q458 226 389 223Q321 220 270 266Q264 272 257 271Q251 271 244 264Q232 251 246 238Q308 182 391 186Q474 190 531 252Q587 314 583 397Q579 481 517 537Z" fill="#000000" />
</g></svg>