<svg xmlns="http://www.w3.org/2000/svg" viewBox="0 0 2048 2048">
<g transform="matrix(1 0 0 -1 0 2048)">
<path d="M440.25848388671875 733.2750244140625Q440.25848388671875 748.2356567382812 432.7781677246094 760.7028503417969Q425.2978515625 773.1700439453125 412.8306579589844 780.6503601074219Q400.36346435546875 788.1306762695312 385.40283203125 788.1306762695312Q370.05859375 788.1306762695312 357.5914001464844 780.6503601074219Q345.12420654296875 773.1700439453125 337.6438903808594 760.7028503417969Q330.16357421875 748.2356567382812 330.16357421875 733.2750244140625Q330.16357421875 717.9307861328125 337.6438903808594 705.4635925292969Q345.12420654296875 692.9963989257812 357.5914001464844 685.5160827636719Q370.05859375 678.0357666015625 385.40283203125 678.0357666015625Q400.36346435546875 678.0357666015625 412.8306579589844 685.5160827636719Q425.2978515625 692.9963989257812 432.7781677246094 705.4635925292969Q440.25848388671875 717.9307861328125 440.25848388671875 733.2750244140625Z" fill="#fcea2b" />
<path d="M1081.2584838867188 562.2750244140625Q1081.2584838867188 577.2356567382812 1073.7781677246094 589.7028503417969Q1066.2978515625 602.1700439453125 1053.8306579589844 609.6503601074219Q1041.3634643554688 617.1306762695312 1026.40283203125 617.1306762695312Q1011.05859375 617.1306762695312 998.5914001464844 609.6503601074219Q986.1242065429688 602.1700439453125 978.6438903808594 589.7028503417969Q971.16357421875 577.2356567382812 971.16357421875 562.2750244140625Q971.16357421875 546.9307861328125 978.6438903808594 534.4635925292969Q986.1242065429688 521.9963989257812 998.5914001464844 514.5160827636719Q1011.05859375 507.0357666015625 1026.40283203125 507.0357666015625Q1041.3634643554688 507.0357666015625 1053.8306579589844 514.5160827636719Q1066.2978515625 521.9963989257812 1073.7781677246094 534.4635925292969Q1081.2584838867188 546.9307861328125 1081.2584838867188 562.2750244140625Z" fill="#fcea2b" />
<path d="M605.2584838867188 183.2750244140625Q605.2584838867188 198.23565673828125 597.7781677246094 210.70285034179688Q590.2978515625 223.1700439453125 577.8306579589844 230.65036010742188Q565.3634643554688 238.13067626953125 550.40283203125 238.13067626953125Q535.05859375 238.13067626953125 522.5914001464844 230.65036010742188Q510.12420654296875 223.1700439453125 502.6438903808594 210.70285034179688Q495.16357421875 198.23565673828125 495.16357421875 183.2750244140625Q495.16357421875 167.9307861328125 502.6438903808594 155.46359252929688Q510.12420654296875 142.99639892578125 522.5914001464844 135.51608276367188Q535.05859375 128.0357666015625 550.40283203125 128.0357666015625Q565.3634643554688 128.0357666015625 577.8306579589844 135.51608276367188Q590.2978515625 142.99639892578125 597.7781677246094 155.46359252929688Q605.2584838867188 167.9307861328125 605.2584838867188 183.2750244140625Z" fill="#fcea2b" />
<path d="M314 575Q283 548 278 508L274 477H495L487 524Q483 550 463 568Q428 601 379 599H374Q339 598 314 575Z" fill="#fcea2b" />
<path d="M949 398Q926 377 922 346L916 306H1138L1130 350Q1125 379 1104 398Q1071 430 1024 429L1012 428Q982 427 960 407Z" fill="#fcea2b" />
<path d="M489 34Q449 -2 442 -55L439 -73H661L651 -16Q648 0 637 11Q594 51 535 49H527Q505 48 489 34Z" fill="#fcea2b" />
<path d="M458 733Q458 806 385 806Q311 806 311 733Q311 660 385 660Q458 660 458 733ZM421 733Q421 696 385 696Q348 696 348 733Q348 770 385 770Q421 770 421 733Z" fill="#000000" />
<path d="M257 499Q253 481 271 477Q280 475 285 479Q291 482 293 491Q309 561 338 576Q385 599 432 576Q461 561 477 491Q481 473 499 477Q517 481 513 499Q493 587 448 609Q385 640 322 609Q277 587 257 499Z" fill="#000000" />
<path d="M1100 562Q1100 635 1027 635Q953 635 953 562Q953 489 1027 489Q1100 489 1100 562ZM1063 562Q1063 525 1027 525Q990 525 990 562Q990 599 1027 599Q1063 599 1063 562Z" fill="#000000" />
<path d="M899 328Q895 310 912 306Q930 302 934 320Q951 391 980 405Q1027 428 1073 405Q1102 391 1119 320Q1123 302 1141 306Q1159 310 1154 328Q1134 416 1090 438Q1027 469 963 438Q919 416 899 328Z" fill="#000000" />
<path d="M623 183Q623 214 602 235Q580 257 550 257Q519 257 498 235Q477 214 477 183Q477 110 550 110Q623 110 623 183ZM587 183Q587 147 550 147Q513 147 513 183Q513 220 550 220Q565 220 576 209Q587 198 587 183Z" fill="#000000" />
<path d="M422 -51Q420 -60 423 -65Q427 -71 436 -73Q454 -77 458 -59Q474 11 503 26Q550 49 597 26Q626 11 642 -59Q646 -77 664 -73Q682 -69 678 -51Q657 36 613 59Q550 90 487 59Q442 36 422 -51Z" fill="#000000" />
<path d="M949 664Q955 657 962 656Q968 656 975 662Q989 674 977 688Q845 843 642 843Q564 843 491 817Q474 811 480 793Q483 785 489 782Q495 779 503 782Q570 807 642 807Q829 807 949 664Z" fill="#000000" />
<path d="M719 7Q701 4 705 -14Q708 -32 726 -29Q844 -6 934 74Q1023 153 1060 266Q1066 284 1048 289Q1031 295 1025 278Q991 174 909 102Q827 28 719 7Z" fill="#000000" />
<path d="M240 439Q241 457 223 458Q214 459 209 455Q204 451 203 442Q202 423 202 403Q202 168 397 37Q412 27 423 42Q428 50 426 56Q425 63 418 68Q238 188 238 403Q238 421 240 439Z" fill="#000000" />
</g></svg>