<svg xmlns="http://www.w3.org/2000/svg" viewBox="0 0 2048 2048">
<g transform="matrix(1 0 0 -1 0 2048)">
<path d="M294 38H752Q774 38 790.5 54.0Q807 70 807 93V202Q807 225 790.5 241.0Q774 257 752 257H325Q320 257 316 261L247 321Q244 323 241.5 322.0Q239 321 239 318V255V93Q239 70 255.0 54.0Q271 38 294 38Z" fill="#9b9b9a" />
<path d="M1075 450 1007 509Q1003 512 998 512H571Q548 512 531.5 528.5Q515 545 515 568V678Q515 701 531.5 717.0Q548 733 571 733H1027Q1050 733 1066.5 717.0Q1083 701 1083 678V512V453Q1083 450 1080.0 449.0Q1077 448 1075 450Z" fill="#d0cfce" />
<path d="M293.25848388671875 676.2750244140625Q293.25848388671875 691.2356567382812 285.7781677246094 703.7028503417969Q278.2978515625 716.1700439453125 265.8306579589844 723.6503601074219Q253.36346435546875 731.1306762695312 238.40283203125 731.1306762695312Q223.05859375 731.1306762695312 210.59140014648438 723.6503601074219Q198.12420654296875 716.1700439453125 190.64389038085938 703.7028503417969Q183.16357421875 691.2356567382812 183.16357421875 676.2750244140625Q183.16357421875 660.9307861328125 190.64389038085938 648.4635925292969Q198.12420654296875 635.9963989257812 210.59140014648438 628.5160827636719Q223.05859375 621.0357666015625 238.40283203125 621.0357666015625Q253.36346435546875 621.0357666015625 265.8306579589844 628.5160827636719Q278.2978515625 635.9963989257812 285.7781677246094 648.4635925292969Q293.25848388671875 660.9307861328125 293.25848388671875 676.2750244140625Z" fill="#fcea2b" />
<path d="M1138.2584838867188 274.2750244140625Q1138.2584838867188 289.23565673828125 1130.7781677246094 301.7028503417969Q1123.2978515625 314.1700439453125 1110.8306579589844 321.6503601074219Q1098.3634643554688 329.13067626953125 1083.40283203125 329.13067626953125Q1068.05859375 329.13067626953125 1055.5914001464844 321.6503601074219Q1043.1242065429688 314.1700439453125 1035.6438903808594 301.7028503417969Q1028.16357421875 289.23565673828125 1028.16357421875 274.2750244140625Q1028.16357421875 258.9307861328125 1035.6438903808594 246.46359252929688Q1043.1242065429688 233.99639892578125 1055.5914001464844 226.51608276367188Q1068.05859375 219.0357666015625 1083.40283203125 219.0357666015625Q1098.3634643554688 219.0357666015625 1110.8306579589844 226.51608276367188Q1123.2978515625 233.99639892578125 1130.7781677246094 246.46359252929688Q1138.2584838867188 258.9307861328125 1138.2584838867188 274.2750244140625Z" fill="#fcea2b" />
<path d="M157 509Q137 491 133 464L127 420L349 419L342 458Q336 492 311 516Q282 544 241 543Q193 541 157 509Z" fill="#fcea2b" />
<path d="M1014 117Q982 89 977 47L973 18H1194L1190 46Q1182 91 1149 122Q1127 142 1098 141L1072 140Q1039 139 1014 117Z" fill="#fcea2b" />
<path d="M312 676Q312 749 239 749Q165 749 165 676Q165 603 239 603Q312 603 312 676ZM275 676Q275 639 239 639Q202 639 202 676Q202 713 239 713Q275 713 275 676Z" fill="#000000" />
<path d="M111 442Q107 424 125 420Q133 418 139 421Q144 425 147 434Q163 504 192 519Q239 542 285 519Q314 504 331 434Q335 416 353 420Q362 422 365 427Q369 433 367 442Q346 529 302 552Q239 583 175 552Q131 529 111 442Z" fill="#000000" />
<path d="M1156 274Q1156 347 1083 347Q1009 347 1009 274Q1009 201 1083 201Q1156 201 1156 274ZM1119 274Q1119 237 1083 237Q1046 237 1046 274Q1046 311 1083 311Q1119 311 1119 274Z" fill="#000000" />
<path d="M955 40Q951 22 969 18Q987 14 991 32Q1007 103 1036 117Q1083 140 1130 117Q1159 103 1175 32Q1177 23 1183 20Q1188 16 1197 18Q1215 22 1211 40Q1191 128 1146 150Q1083 181 1020 150Q976 128 955 40Z" fill="#000000" />
<path d="M294 19H313H752Q825 19 825 93V202Q825 233 803 254Q782 276 752 276H326L258 335Q247 345 234 339Q221 332 221 318V255V93Q221 19 294 19ZM294 56Q279 56 268 67Q257 78 257 93V255V287L304 247Q313 239 325 239H752Q788 239 788 202V93Q788 56 752 56Z" fill="#000000" />
<path d="M1063 436Q1075 426 1088 432Q1101 439 1101 453V494V678Q1101 752 1027 752H571Q540 752 518 730Q497 709 497 678V568Q497 537 518 516Q540 494 571 494H997ZM1064 531V484L1019 523Q1010 531 998 531H571Q555 531 544 542Q533 553 533 568V678Q533 715 571 715H1027Q1043 715 1054 704Q1064 693 1064 678Z" fill="#000000" />
</g></svg>