<svg xmlns="http://www.w3.org/2000/svg" viewBox="0 0 2048 2048">
<g transform="matrix(1 0 0 -1 0 2048)">
<path d="M620 568Q620 638 585.5 695.5Q551 753 494.0 787.0Q437 821 367 821Q297 821 239.5 787.0Q182 753 148.0 695.5Q114 638 114 568Q114 498 148.0 440.5Q182 383 239.5 349.0Q297 315 367 315Q437 315 494.0 349.0Q551 383 585.5 440.5Q620 498 620 568Z" fill="#fcea2b" />
<path d="M638 568Q638 680 559 760Q479 840 367 840Q254 840 175 760Q95 680 95 568Q95 455 175 376Q254 296 367 296Q479 296 559 376Q638 455 638 568ZM601 568Q601 471 533 402Q464 333 367 333Q269 333 201 402Q132 471 132 568Q132 665 201 734Q269 803 367 803Q464 803 533 734Q601 665 601 568Z" fill="#fcea2b" />
<path d="M337 313 218 360Q207 333 187.5 303.0Q168 273 143.0 246.0Q118 219 92 202Q174 202 234.0 228.0Q294 254 337 313Z" fill="#fcea2b" />
<path d="M1206 288Q1206 358 1172.0 415.5Q1138 473 1080.5 507.0Q1023 541 953 541Q883 541 826.0 507.0Q769 473 734.5 415.5Q700 358 700 288Q700 218 734.5 160.5Q769 103 826.0 69.0Q883 35 953 35Q1023 35 1080.5 69.0Q1138 103 1172.0 160.5Q1206 218 1206 288Z" fill="#fcea2b" />
<path d="M1225 288Q1225 401 1145 480Q1066 560 953 560Q841 560 761 480Q682 401 682 288Q682 176 761 96Q841 17 953 17Q1066 17 1145 96Q1225 176 1225 288ZM1188 288Q1188 191 1119 122Q1051 54 953 54Q856 54 787 122Q719 191 719 288Q719 385 787 454Q856 523 953 523Q1051 523 1119 454Q1188 385 1188 288Z" fill="#fcea2b" />
<path d="M983.0 33.0 1102.0 80.0Q1113.0 53.0 1132.5 23.0Q1152.0 -7.0 1177.0 -34.0Q1202.0 -61.0 1228.0 -78.0Q1146.0 -78.0 1086.0 -52.0Q1026.0 -26.0 983.0 33.0Z" fill="#fcea2b" />
<path d="M274.8935546875 568.765625Q274.8935546875 578.9169921875 269.962890625 587.255615234375Q265.0322265625 595.59423828125 256.693603515625 600.52490234375Q248.35498046875 605.45556640625 238.20361328125 605.45556640625Q228.05224609375 605.45556640625 219.7861328125 600.52490234375Q211.52001953125 595.59423828125 206.516845703125 587.255615234375Q201.513671875 578.9169921875 201.513671875 568.765625Q201.513671875 558.6142578125 206.516845703125 550.275634765625Q211.52001953125 541.93701171875 219.7861328125 537.00634765625Q228.05224609375 532.07568359375 238.20361328125 532.07568359375Q248.35498046875 532.07568359375 256.693603515625 537.00634765625Q265.0322265625 541.93701171875 269.962890625 550.275634765625Q274.8935546875 558.6142578125 274.8935546875 568.765625Z" fill="#000000" />
<path d="M403.8935546875 568.765625Q403.8935546875 578.9169921875 398.962890625 587.255615234375Q394.0322265625 595.59423828125 385.693603515625 600.52490234375Q377.35498046875 605.45556640625 367.20361328125 605.45556640625Q357.05224609375 605.45556640625 348.7861328125 600.52490234375Q340.52001953125 595.59423828125 335.516845703125 587.255615234375Q330.513671875 578.9169921875 330.513671875 568.765625Q330.513671875 558.6142578125 335.516845703125 550.275634765625Q340.52001953125 541.93701171875 348.7861328125 537.00634765625Q357.05224609375 532.07568359375 367.20361328125 532.07568359375Q377.35498046875 532.07568359375 385.693603515625 537.00634765625Q394.0322265625 541.93701171875 398.962890625 550.275634765625Q403.8935546875 558.6142578125 403.8935546875 568.765625Z" fill="#000000" />
<path d="M531.8935546875 568.765625Q531.8935546875 578.9169921875 526.962890625 587.255615234375Q522.0322265625 595.59423828125 513.693603515625 600.52490234375Q505.35498046875 605.45556640625 495.20361328125 605.45556640625Q485.05224609375 605.45556640625 476.7861328125 600.52490234375Q468.52001953125 595.59423828125 463.516845703125 587.255615234375Q458.513671875 578.9169921875 458.513671875 568.765625Q458.513671875 558.6142578125 463.516845703125 550.275634765625Q468.52001953125 541.93701171875 476.7861328125 537.00634765625Q485.05224609375 532.07568359375 495.20361328125 532.07568359375Q505.35498046875 532.07568359375 513.693603515625 537.00634765625Q522.0322265625 541.93701171875 526.962890625 550.275634765625Q531.8935546875 558.6142578125 531.8935546875 568.765625Z" fill="#000000" />
<path d="M235 353Q238 362 235 368Q233 374 224 377Q207 383 200 366Q165 273 81 217Q74 212 73 205Q71 199 76 191Q82 183 92 183Q265 183 352 303Q358 310 357 316Q356 323 348 328Q333 339 322 324Q262 240 149 224Q206 277 235 353Z" fill="#000000" />
<path d="M405 333Q396 332 393 326Q389 321 390 312Q393 294 411 297Q510 313 575 389Q642 467 642 568Q642 682 561 763Q481 843 367 843Q253 843 172 763Q92 682 92 568Q92 471 153 395Q164 381 179 393Q186 399 186 405Q187 411 181 419Q128 484 128 568Q128 667 198 737Q268 807 367 807Q465 807 535 737Q605 667 605 568Q605 480 548 413Q491 347 405 333Z" fill="#000000" />
<path d="M1118.8935546875 287.765625Q1118.8935546875 297.9169921875 1113.962890625 306.255615234375Q1109.0322265625 314.59423828125 1100.693603515625 319.52490234375Q1092.35498046875 324.45556640625 1082.20361328125 324.45556640625Q1072.05224609375 324.45556640625 1063.7861328125 319.52490234375Q1055.52001953125 314.59423828125 1050.516845703125 306.255615234375Q1045.513671875 297.9169921875 1045.513671875 287.765625Q1045.513671875 277.6142578125 1050.516845703125 269.275634765625Q1055.52001953125 260.93701171875 1063.7861328125 256.00634765625Q1072.05224609375 251.07568359375 1082.20361328125 251.07568359375Q1092.35498046875 251.07568359375 1100.693603515625 256.00634765625Q1109.0322265625 260.93701171875 1113.962890625 269.275634765625Q1118.8935546875 277.6142578125 1118.8935546875 287.765625Z" fill="#000000" />
<path d="M989.8935546875 287.765625Q989.8935546875 297.9169921875 984.962890625 306.255615234375Q980.0322265625 314.59423828125 971.693603515625 319.52490234375Q963.35498046875 324.45556640625 953.20361328125 324.45556640625Q943.05224609375 324.45556640625 934.7861328125 319.52490234375Q926.52001953125 314.59423828125 921.516845703125 306.255615234375Q916.513671875 297.9169921875 916.513671875 287.765625Q916.513671875 277.6142578125 921.516845703125 269.275634765625Q926.52001953125 260.93701171875 934.7861328125 256.00634765625Q943.05224609375 251.07568359375 953.20361328125 251.07568359375Q963.35498046875 251.07568359375 971.693603515625 256.00634765625Q980.0322265625 260.93701171875 984.962890625 269.275634765625Q989.8935546875 277.6142578125 989.8935546875 287.765625Z" fill="#000000" />
<path d="M861.8935546875 287.765625Q861.8935546875 297.9169921875 856.962890625 306.255615234375Q852.0322265625 314.59423828125 843.693603515625 319.52490234375Q835.35498046875 324.45556640625 825.20361328125 324.45556640625Q815.05224609375 324.45556640625 806.7861328125 319.52490234375Q798.52001953125 314.59423828125 793.516845703125 306.255615234375Q788.513671875 297.9169921875 788.513671875 287.765625Q788.513671875 277.6142578125 793.516845703125 269.275634765625Q798.52001953125 260.93701171875 806.7861328125 256.00634765625Q815.05224609375 251.07568359375 825.20361328125 251.07568359375Q835.35498046875 251.07568359375 843.693603515625 256.00634765625Q852.0322265625 260.93701171875 856.962890625 269.275634765625Q861.8935546875 277.6142578125 861.8935546875 287.765625Z" fill="#000000" />
<path d="M1120 86Q1113 103 1096 97Q1079 90 1085 73Q1114 -3 1171 -56Q1058 -40 998 44Q987 59 972 48Q964 43 963 36Q962 30 968 22Q1055 -97 1228 -97Q1238 -97 1244 -89Q1249 -81 1247 -75Q1246 -68 1239 -63Q1155 -8 1120 86Z" fill="#000000" />
<path d="M909 17Q927 14 930 32Q933 50 915 53Q829 67 772 133Q715 200 715 288Q715 387 785 457Q855 527 953 527Q1052 527 1122 457Q1192 387 1192 288Q1192 204 1139 138Q1133 131 1134 125Q1134 118 1141 113Q1156 101 1167 115Q1228 191 1228 288Q1228 402 1148 483Q1067 563 953 563Q839 563 759 483Q678 402 678 288Q678 186 745 109Q810 33 909 17Z" fill="#000000" />
</g></svg>