<svg xmlns="http://www.w3.org/2000/svg" viewBox="0 0 2048 2048">
<g transform="matrix(1 0 0 -1 0 2048)">
<path d="M983.96337890625 708.82275390625Q894.29296875 798.4931640625 777.0809326171875 828.5968017578125Q659.868896484375 858.700439453125 542.6568603515625 828.5968017578125Q425.44482421875 798.4931640625 335.7744140625 708.82275390625Q246.10400390625 619.15234375 216.640869140625 502.580810546875Q187.177734375 386.00927734375 216.640869140625 268.15673828125Q246.10400390625 150.30419921875 335.7744140625 60.6337890625Q425.44482421875 -29.03662109375 543.29736328125 -58.499755859375Q661.14990234375 -87.962890625 777.721435546875 -58.499755859375Q894.29296875 -29.03662109375 983.96337890625 60.6337890625Q1073.6337890625 150.30419921875 1103.7374267578125 267.5162353515625Q1133.841064453125 384.728271484375 1103.7374267578125 501.9403076171875Q1073.6337890625 619.15234375 983.96337890625 708.82275390625Z" fill="#fcea2b" />
<path d="M686 -15Q787 86 852.5 205.5Q918 325 948.5 455.5Q979 586 975 718Q977 715 979.5 713.0Q982 711 984 709Q1051 642 1084.5 558.0Q1118 474 1118.0 384.5Q1118 295 1084.0 211.0Q1050 127 983 60Q908 -15 813.0 -48.0Q718 -81 621 -74Q638 -60 654.0 -45.5Q670 -31 686 -15Z" fill="#f1b31c" />
<path d="M1136.5133666992188 384.83380126953125Q1136.5133666992188 582.7492065429688 997.57275390625 722.6893920898438Q857.632568359375 861.6300048828125 660.7167358398438 861.6300048828125Q462.80133056640625 861.6300048828125 322.86114501953125 722.6893920898438Q183.9205322265625 582.7492065429688 183.9205322265625 384.83380126953125Q183.9205322265625 187.91796875 322.86114501953125 47.977783203125Q462.80133056640625 -91.96240234375 660.7167358398438 -91.96240234375Q857.632568359375 -91.96240234375 997.57275390625 47.977783203125Q1136.5133666992188 187.91796875 1136.5133666992188 384.83380126953125ZM1100.5287475585938 384.83380126953125Q1100.5287475585938 202.91156005859375 971.5838623046875 73.9666748046875Q842.6389770507812 -54.97821044921875 660.7167358398438 -54.97821044921875Q477.794921875 -54.97821044921875 348.85003662109375 73.9666748046875Q219.9051513671875 202.91156005859375 219.9051513671875 384.83380126953125Q219.9051513671875 567.755615234375 348.85003662109375 696.7005004882812Q477.794921875 825.6453857421875 660.7167358398438 825.6453857421875Q842.6389770507812 825.6453857421875 971.5838623046875 696.7005004882812Q1100.5287475585938 567.755615234375 1100.5287475585938 384.83380126953125Z" fill="#000000" />
</g></svg>