<svg xmlns="http://www.w3.org/2000/svg" viewBox="0 0 2048 2048">
<g transform="matrix(1 0 0 -1 0 2048)">
<path d="M437 876V0H1026V876Z" fill="#9b9b9a" />
<path d="M366 805V-71H955V805Z" fill="#ffffff" />
<path d="M954 19Q936 19 936 1Q936 -18 954 -18H1026Q1044 -18 1044 1V876Q1044 894 1026 894H437Q418 894 418 876V805Q418 787 437 787Q455 787 455 805V858H1007V19Z" fill="#000000" />
<path d="M347 -71Q347 -89 365 -89H955Q973 -89 973 -71V805Q973 823 955 823H365Q347 823 347 805ZM384 787H936V-52H384Z" fill="#000000" />
<path d="M571 385Q553 385 553 366Q553 348 571 348H749Q767 348 767 366Q767 385 749 385Z" fill="#000000" />
<path d="M641.0 277.0Q641.0 259.0 660.0 259.0Q678.0 259.0 678.0 277.0V455.0Q678.0 473.0 660.0 473.0Q641.0 473.0 641.0 455.0Z" fill="#000000" />
</g></svg>