<svg xmlns="http://www.w3.org/2000/svg" viewBox="0 0 2048 2048">
<g transform="matrix(1 0 0 -1 0 2048)">
<path d="M1070 485 1140 555Q1049 646 926.5 698.5Q804 751 665 751Q526 751 403.5 698.0Q281 645 190 554L260 485Q338 563 442.5 608.0Q547 653 665 653Q784 653 888.0 608.0Q992 563 1070 485Z" fill="#9b9b9a" />
<path d="M402 343 332 413Q397 478 484.0 516.0Q571 554 670 554Q767 554 853.0 517.5Q939 481 1003 417L934 348Q883 398 815.0 427.0Q747 456 670 456Q591 456 522.0 425.5Q453 395 402 343Z" fill="#9b9b9a" />
<path d="M795 209 865 279Q827 316 777.0 337.0Q727 358 670 358Q611 358 560.0 335.5Q509 313 471 274L541 204Q565 230 598.5 244.5Q632 259 670 259Q706 259 738.5 245.5Q771 232 795 209Z" fill="#9b9b9a" />
<path d="M714.633056640625 80.79296875Q714.633056640625 94.353759765625 708.04638671875 105.49298095703125Q701.459716796875 116.6322021484375 690.3204956054688 123.2188720703125Q679.1812744140625 129.8055419921875 665.6204833984375 129.8055419921875Q652.0596923828125 129.8055419921875 641.017333984375 123.2188720703125Q629.9749755859375 116.6322021484375 623.2914428710938 105.49298095703125Q616.60791015625 94.353759765625 616.60791015625 80.79296875Q616.60791015625 67.232177734375 623.2914428710938 56.09295654296875Q629.9749755859375 44.9537353515625 641.017333984375 38.3670654296875Q652.0596923828125 31.7803955078125 665.6204833984375 31.7803955078125Q679.1812744140625 31.7803955078125 690.3204956054688 38.3670654296875Q701.459716796875 44.9537353515625 708.04638671875 56.09295654296875Q714.633056640625 67.232177734375 714.633056640625 80.79296875Z" fill="#9b9b9a" />
<path d="M1057 472Q1070 459 1083 472L1153 542Q1165 555 1153 568Q951 770 665 770Q379 770 177 567Q177 567 177 567Q164 554 177 541L247 472Q260 459 273 472Q435 635 665 635Q895 635 1057 472ZM1070 511Q901 671 665 671Q429 671 260 511L216 554Q404 733 665 733Q926 733 1113 555Z" fill="#000000" />
<path d="M415 330Q520 437 670 437Q816 437 921 335Q934 322 947 335L1016 405Q1029 418 1016 430Q1016 431 1016 431Q872 572 670 572Q464 572 319 425Q307 412 319 400L389 330Q402 317 415 330Q415 330 415 330ZM402 369 358 412Q489 536 670 536Q848 536 977 417L933 374Q822 474 670 474Q514 474 402 369Z" fill="#000000" />
<path d="M782 196Q795 183 808 196L878 266Q878 266 878 266Q884 273 884 279Q884 286 878 292Q791 377 670 377Q545 377 458 287Q445 274 458 261L528 191Q528 191 528 191Q541 178 554 191Q602 241 670 241Q735 241 782 196ZM794 234Q741 278 670 278Q595 278 541 230L497 274Q570 340 670 340Q767 340 838 279Z" fill="#000000" />
<path d="M733 81Q733 108 713 128Q693 148 665 148Q598 148 598 81Q598 13 665 13Q693 13 713 33Q733 53 733 81ZM696 81Q696 50 665 50Q653 50 644 59Q635 68 635 81Q635 93 644 102Q653 111 665 111Q678 111 687 102Q696 93 696 81Z" fill="#000000" />
</g></svg>