<svg xmlns="http://www.w3.org/2000/svg" viewBox="0 0 2048 2048">
<g transform="matrix(1 0 0 -1 0 2048)">
<path d="M1077.929443359375 385.20703125Q1077.929443359375 500.708740234375 1021.82861328125 595.5851440429688Q965.727783203125 690.4615478515625 870.8513793945312 746.5623779296875Q775.9749755859375 802.6632080078125 660.4732666015625 802.6632080078125Q544.9715576171875 802.6632080078125 450.920166015625 746.5623779296875Q356.8687744140625 690.4615478515625 299.94293212890625 595.5851440429688Q243.01708984375 500.708740234375 243.01708984375 385.20703125Q243.01708984375 269.705322265625 299.94293212890625 174.82891845703125Q356.8687744140625 79.9525146484375 450.920166015625 23.8516845703125Q544.9715576171875 -32.2491455078125 660.4732666015625 -32.2491455078125Q775.9749755859375 -32.2491455078125 870.8513793945312 23.8516845703125Q965.727783203125 79.9525146484375 1021.82861328125 174.82891845703125Q1077.929443359375 269.705322265625 1077.929443359375 385.20703125Z" fill="#b1cc33" />
<path d="M680 636Q680 654 661 654Q643 654 643 636V136Q643 118 661 118Q680 118 680 136Z" fill="#000000" />
<path d="M911.0 367.0Q929.0 367.0 929.0 386.0Q929.0 404.0 911.0 404.0H411.0Q393.0 404.0 393.0 386.0Q393.0 367.0 411.0 367.0Z" fill="#000000" />
<path d="M1101 386Q1101 568 972 697Q843 826 661 826Q479 826 350 697Q221 568 221 386Q221 204 350 75Q479 -54 661 -54Q843 -54 972 75Q1101 204 1101 386ZM1064 386Q1064 219 946 101Q828 -17 661 -17Q494 -17 376 101Q258 219 258 386Q258 553 376 671Q494 789 661 789Q828 789 946 671Q1064 553 1064 386Z" fill="#000000" />
</g></svg>