<svg xmlns="http://www.w3.org/2000/svg" viewBox="0 0 2048 2048">
<g transform="matrix(1 0 0 -1 0 2048)">
<path d="M235 603V-37H874V603Z" fill="#d0cfce" />
<path d="M456 824V186H1096V824Z" fill="#ffffff" />
<path d="M876 92Q876 110 858 110Q840 110 840 92V-37H235V568H365Q383 568 383 587Q383 605 365 605H235Q198 605 198 568V-37Q198 -73 235 -73H840Q876 -73 876 -37Z" fill="#000000" />
<path d="M1078 165Q1115 165 1115 202V807Q1115 843 1078 843H473Q436 843 436 807V202Q436 165 473 165ZM1078 202H473V807H1078Z" fill="#000000" />
</g></svg>