<svg xmlns="http://www.w3.org/2000/svg" viewBox="0 0 2048 2048">
<g transform="matrix(1 0 0 -1 0 2048)">
<path d="M949 733V43Q949 -13 909.5 -36.5Q870 -60 814 -60H504Q448 -60 408.5 -36.5Q369 -13 369 43V733Z" fill="#ffffff" />
<path d="M752.0 751.8929443359375V825.2999267578125H568.0V751.8929443359375Z" fill="#ffffff" />
<path d="M935 367 605 -55H886L935 -11V192Z" fill="#9b9b9a" />
<path d="M312 752V678H1008V752Z" fill="#ffffff" />
<path d="M550 752Q550 733 568 733Q587 733 587 752V807H733V752Q733 733 752 733Q770 733 770 752V825Q770 843 752 843H568Q550 843 550 825Z" fill="#000000" />
<path d="M953 587Q953 605 935 605Q917 605 917 587V18Q917 -37 862 -37H458Q403 -37 403 18V587Q403 605 385 605Q367 605 367 587V18Q367 -20 394 -46Q420 -73 458 -73H862Q900 -73 926 -46Q953 -20 953 18Z" fill="#000000" />
<path d="M293 678Q293 660 312 660H1008Q1027 660 1027 678V752Q1027 770 1008 770H312Q293 770 293 752ZM330 733H990V697H330Z" fill="#000000" />
<path d="M770 527Q770 545 752 545Q733 545 733 527V37Q733 18 752 18Q770 18 770 37Z" fill="#000000" />
<path d="M587 527Q587 545 569 545Q550 545 550 527V37Q550 18 569 18Q587 18 587 37Z" fill="#000000" />
</g></svg>