<svg xmlns="http://www.w3.org/2000/svg" viewBox="0 0 2048 2048">
<g transform="matrix(1 0 0 -1 0 2048)">
<path d="M73 972V-202H1247V972Z" fill="#92d3f5" />
<path d="M1126 389Q1159 363 1167.5 322.0Q1176 281 1155 245L1058 74Q1035 35 993 22L783 -40Q766 -45 749 -45L437 -37Q402 -36 373 -15L271 62Q252 76 240 97L161 242Q146 269 147.0 299.5Q148 330 165 355L175 371Z" fill="#61b2e4" />
<path d="M361 571 553 521 888 626 1126 480 1006 268 763 184H402L252 296L175 450Z" fill="#ffffff" />
<path d="M1126 480V352L1006 140L763 56H402L252 168L175 321V450Z" fill="#ffffff" />
<path d="M616 184 597 136 624 111 603 56Z" fill="#ffffff" />
<path d="M579 184Q567 220 559 257L591 296L571 356L630 424L553 521Z" fill="#ffffff" />
<path d="M351 587 165 465Q151 456 159 441L235 288Q237 284 241 282L391 169Q396 166 402 166H763Q766 166 769 167L1012 251Q1018 253 1022 259L1142 471Q1151 487 1136 496L897 642Q890 646 882 644L553 540L366 589Q358 591 351 587ZM364 552 548 503Q554 502 559 503L885 606L1101 474L993 283L760 202H408L266 308L199 443Z" fill="#000000" />
<path d="M193 450Q193 468 175 468Q157 468 157 450V321Q157 317 159 313L235 160Q237 156 241 153L391 41Q396 37 402 37H763Q766 37 769 38L1012 122Q1018 125 1022 131L1142 343Q1144 347 1144 352V480Q1144 499 1126 499Q1108 499 1108 480V357L993 155L760 74H408L266 180L193 326Z" fill="#000000" />
</g></svg>