<svg xmlns="http://www.w3.org/2000/svg" viewBox="0 0 2048 2048">
<g transform="matrix(1 0 0 -1 0 2048)">
<path d="M73 972V-202H1247V972Z" fill="#92d3f5" />
<path d="M1132 389Q1165 363 1173.5 322.0Q1182 281 1161 245L1064 74Q1041 35 999 22L789 -40Q772 -45 755 -45L443 -37Q408 -36 379 -15L277 62Q258 76 246 97L167 242Q152 269 153.0 299.5Q154 330 171 355L181 371Z" fill="#61b2e4" />
<path d="M367 571 559 521 894 626 1132 480 1012 268 769 184H408L258 296L181 450Z" fill="#ffffff" />
<path d="M1132 480V352L1012 140L769 56H408L258 168L181 321V450Z" fill="#ffffff" />
<path d="M622 184 603 136 630 111 609 56Z" fill="#ffffff" />
<path d="M585 184Q573 220 565 257L597 296L577 356L636 424L559 521Z" fill="#ffffff" />
<path d="M357 587 171 465Q158 456 165 441L241 288Q243 284 247 282L397 169Q402 166 408 166H769Q772 166 775 167L1018 251Q1024 253 1028 259L1148 471Q1157 487 1142 496L903 642Q896 646 888 644L559 540L372 589Q364 591 357 587ZM371 552 555 503Q560 502 565 503L891 606L1107 474L999 283L766 202H414L272 308L205 443Z" fill="#000000" />
<path d="M200 450Q200 468 181 468Q163 468 163 450V321Q163 317 165 313L241 160Q243 156 247 153L397 41Q402 37 408 37H769Q772 37 775 38L1018 122Q1024 125 1028 131L1148 343Q1150 347 1150 352V480Q1150 499 1132 499Q1114 499 1114 480V357L999 155L766 74H414L272 180L200 326Z" fill="#000000" />
<path d="M592 62Q589 53 592 48Q595 42 603 38Q620 32 627 49L647 104Q652 116 643 124L624 141L639 177Q646 194 629 201Q612 208 605 191L586 143Q581 131 590 122L609 106Z" fill="#000000" />
<path d="M574 532Q562 547 548 535Q533 524 545 510L612 424L564 368Q557 360 560 350L577 300L551 269Q545 262 547 254Q555 215 568 178Q571 169 577 166Q583 164 592 167Q609 173 603 190Q592 221 585 253L612 285Q618 292 615 302L598 352L650 412Q660 423 650 435Z" fill="#000000" />
</g></svg>