<svg xmlns="http://www.w3.org/2000/svg" viewBox="0 0 2048 2048">
<g transform="matrix(1 0 0 -1 0 2048)">
<path d="M1228 0 654 6 647 108 582 161V244L561 293L524 328L506 426L457 385V687L688 751L974 707L1082 714L1148 698L1228 684V0Z" fill="#ffffff" />
<path d="M73 0V-202H1247V0Z" fill="#92d3f5" />
<path d="M712 631Q710 640 705 643Q699 646 690 644Q672 640 677 622L703 517L677 426Q675 419 678 413L704 362L722 251Q725 233 743 235Q761 238 759 256L740 371Q740 374 738 377L714 423L740 512Q741 517 740 522Z" fill="#000000" />
<path d="M1226 396Q1244 393 1246 411Q1249 429 1231 432L1046 458Q1041 459 1037 457L941 427Q928 423 928 409V320Q928 317 929 314L956 231L951 160L929 63Q927 57 930 51L953 -1Q960 -18 977 -11Q994 -3 986 13L966 60L987 153Q988 155 988 156L993 232Q993 235 992 238L965 323V396L1045 421Z" fill="#000000" />
<path d="M92 18Q73 18 73 0Q73 -18 92 -18H1228Q1247 -18 1247 0Q1247 18 1228 18Z" fill="#000000" />
<path d="M1123 329Q1118 347 1101 342Q1083 338 1087 320L1107 237L1090 149Q1087 131 1105 128Q1123 124 1126 142L1143 234Q1144 238 1143 242Z" fill="#000000" />
<path d="M636 5Q637 -14 656 -12Q674 -11 672 7L665 109Q664 117 658 122L600 170V244Q600 248 598 251L578 300Q576 304 574 307L541 337L524 430Q522 439 517 442Q512 446 503 444Q498 443 494 440L475 424V673L689 732L971 689Q973 689 975 689L1081 695L1144 680Q1145 680 1145 680L1225 666Q1234 665 1240 668Q1245 672 1246 681Q1250 699 1231 702L1152 716L1087 732Q1084 732 1081 732L975 726L691 769Q687 770 683 768L452 705Q439 701 439 687V385Q439 378 443 373Q449 366 455 366Q462 365 469 371L494 392L506 324Q507 318 512 314L546 283L563 241V161Q563 152 570 147L629 98Z" fill="#000000" />
</g></svg>