<svg xmlns="http://www.w3.org/2000/svg" viewBox="0 0 2048 2048">
<g transform="matrix(1 0 0 -1 0 2048)">
<path d="M293 385 568 18H935L642 385Z" fill="#92d3f5" />
<path d="M1027.1615600585938 605.07275390625Q1027.1615600585938 635.2598876953125 1015.7536315917969 661.9368896484375Q1004.345703125 688.6138916015625 984.1624450683594 708.7971496582031Q963.9791870117188 728.9804077148438 937.4776916503906 740.3883361816406Q910.9761962890625 751.7962646484375 880.4380493164062 751.7962646484375Q850.2509155273438 751.7962646484375 823.5739135742188 740.3883361816406Q796.8969116210938 728.9804077148438 776.7136535644531 708.7971496582031Q756.5303955078125 688.6138916015625 745.1224670410156 661.9368896484375Q733.7145385742188 635.2598876953125 733.7145385742188 605.07275390625Q733.7145385742188 574.5346069335938 745.1224670410156 548.0331115722656Q756.5303955078125 521.5316162109375 776.7136535644531 501.3483581542969Q796.8969116210938 481.16510009765625 823.5739135742188 469.7571716308594Q850.2509155273438 458.3492431640625 880.4380493164062 458.3492431640625Q910.9761962890625 458.3492431640625 937.4776916503906 469.7571716308594Q963.9791870117188 481.16510009765625 984.1624450683594 501.3483581542969Q1004.345703125 521.5316162109375 1015.7536315917969 548.0331115722656Q1027.1615600585938 574.5346069335938 1027.1615600585938 605.07275390625Z" fill="#fcea2b" />
<path d="M293 403Q287 403 282 400Q275 394 274 387Q273 381 279 374L562 7Q567 0 576 0H953Q960 0 965 4Q979 16 967 30L666 397Q660 403 652 403ZM331 367H643L915 37H585Z" fill="#000000" />
<path d="M330 257Q330 275 312 275Q293 275 293 257V18Q293 0 312 0H495Q513 0 513 18Q513 37 495 37H330Z" fill="#000000" />
<path d="M440.0 220.0Q422.0 220.0 422.0 202.0Q422.0 184.0 440.0 184.0H788.0Q807.0 184.0 807.0 202.0Q807.0 220.0 788.0 220.0Z" fill="#000000" />
<path d="M491 396Q480 411 465 399Q451 388 462 374L756 7Q767 -7 781 4Q796 15 784 30Z" fill="#000000" />
<path d="M1045.0 605.0Q1045.0 674.0 997.0 722.0Q949.0 770.0 880.0 770.0Q812.0 770.0 764.0 722.0Q715.0 674.0 715.0 605.0Q715.0 537.0 764.0 489.0Q812.0 440.0 880.0 440.0Q949.0 440.0 997.0 489.0Q1045.0 537.0 1045.0 605.0ZM1009.0 605.0Q1009.0 552.0 971.0 515.0Q933.0 477.0 880.0 477.0Q827.0 477.0 790.0 515.0Q752.0 552.0 752.0 605.0Q752.0 659.0 790.0 696.0Q827.0 734.0 880.0 734.0Q933.0 734.0 971.0 696.0Q1009.0 659.0 1009.0 605.0Z" fill="#000000" />
</g></svg>