<svg xmlns="http://www.w3.org/2000/svg" viewBox="0 0 2048 2048">
<g transform="matrix(1 0 0 -1 0 2048)">
<path d="M944 156 825 202 677 155Q652 144 652.0 134.5Q652 125 667.5 117.0Q683 109 707.5 101.0Q732 93 756.5 84.0Q781 75 798 64Q814 53 803.5 47.5Q793 42 767.5 38.5Q742 35 710.5 30.0Q679 25 652.0 16.0Q625 7 614 -9Q605 -23 620.5 -32.5Q636 -42 668.0 -48.0Q700 -54 740.5 -58.0Q781 -62 824.0 -64.0Q867 -66 904.0 -67.0Q941 -68 965 -70Q1000 -72 1018.0 -65.5Q1036 -59 1049.5 -48.5Q1063 -38 1084.0 -27.0Q1105 -16 1146 -9Q1201 0 1215.5 13.5Q1230 27 1211.0 41.0Q1192 55 1146 64Q1111 71 1076.0 78.5Q1041 86 1011.0 96.0Q981 106 962.5 120.5Q944 135 944 156Z" fill="#3f3f3f" />
<path d="M923 673Q976 673 1020.0 637.5Q1064 602 1090.0 542.0Q1116 482 1116 409Q1116 336 1090.0 276.0Q1064 216 1020.0 180.5Q976 145 923 145Q868 146 826 181Q783 146 729 145Q683 145 645 171Q608 145 562.0 145.0Q516 145 479 171Q441 145 395 145Q342 145 298.0 180.5Q254 216 228.0 276.0Q202 336 202 409Q202 482 228.0 542.0Q254 602 298.0 637.5Q342 673 395 673Q441 672 479 647Q516 673 562.0 673.0Q608 673 645 647Q683 672 729 673Q783 672 826 637Q868 672 923 673Z" fill="#d0cfce" />
<path d="M1063 409Q1063 466 1044.0 513.5Q1025 561 993.5 589.0Q962 617 924 617Q886 617 854.0 589.0Q822 561 803.5 513.5Q785 466 785 409Q785 351 803.5 304.0Q822 257 854.0 229.0Q886 201 924 201Q962 201 993.5 229.0Q1025 257 1044.0 304.0Q1063 351 1063 409Z" fill="#9b9b9a" />
<path d="M979 326Q980 366 959 387Q938 408 917 387Q896 366 896 326Q896 285 917 264Q938 244 959 264Q980 285 979 326Z" fill="#3f3f3f" />
<path d="M586 333Q591 316 608 321Q626 325 621 343Q609 389 609 437Q607 533 659 613Q671 631 687 646Q701 659 688 672Q676 686 662 673Q643 655 628 634Q628 633 628 633Q570 543 572 437Q572 384 586 333Z" fill="#000000" />
<path d="M419 333Q422 325 427 321Q433 318 442 321Q459 325 455 343Q442 389 442 437Q440 533 492 613Q504 631 521 646Q534 659 521 672Q509 686 496 673Q476 655 462 634Q461 633 461 633Q404 543 406 437Q405 384 419 333Z" fill="#000000" />
<path d="M923 691Q869 690 826 660Q783 690 729 691Q729 691 728 691Q683 691 645 669Q562 720 478 669Q440 691 395 691Q306 691 244 606Q183 524 183 409Q183 294 244 211Q306 127 395 127Q440 127 478 149Q562 98 645 149Q683 127 728 127Q729 127 729 127Q783 127 826 158Q869 127 923 127Q1012 127 1075 211Q1135 294 1135 409Q1135 524 1075 606Q1012 691 923 691ZM837 623Q875 654 923 654Q994 654 1045 585Q1098 512 1098 409Q1098 306 1045 233Q994 163 923 163Q875 164 837 195Q826 205 814 195Q777 164 728 163Q689 164 655 186Q645 193 635 186Q562 136 489 186Q479 193 468 186Q435 164 395 163Q324 163 273 233Q220 306 220 409Q220 512 273 585Q324 654 395 654Q435 654 468 632Q479 625 489 632Q562 682 635 632Q645 625 655 632Q689 654 728 654Q777 654 814 623Q826 613 837 623Z" fill="#000000" />
<path d="M1081 409Q1081 501 1037 566Q991 636 924 636Q857 636 810 566Q767 501 767 409Q767 317 810 251Q857 182 924 182Q991 182 1037 251Q1081 317 1081 409ZM1044 409Q1044 328 1007 272Q972 219 924 219Q876 219 841 272Q803 328 803 409Q803 490 841 546Q876 599 924 599Q972 599 1007 546Q1044 490 1044 409Z" fill="#000000" />
<path d="M998 326Q998 359 983 384Q965 413 938 413Q878 413 878 326Q878 292 893 267Q910 238 938 238Q965 238 983 267Q998 292 998 326ZM961 326Q961 274 938 274Q914 274 914 326Q914 377 938 377Q945 377 952 365Q961 349 961 326Z" fill="#000000" />
<path d="M685 138Q702 146 694 162Q687 179 670 172Q644 160 637 146Q627 126 647 109Q661 98 715 79Q751 67 771 58Q759 56 742 53Q622 36 599 1Q587 -17 597 -34Q604 -46 623 -54Q648 -65 701 -72Q764 -80 907 -85Q949 -87 964 -88Q1020 -91 1063 -61Q1101 -35 1149 -27Q1246 -11 1240 31Q1234 65 1149 82Q1144 83 1133 85Q963 119 963 156V257Q963 275 944 275Q926 275 926 257V156Q926 109 997 82Q1034 68 1126 49Q1137 47 1142 46Q1194 36 1202 27Q1200 26 1197 24Q1180 15 1143 9Q1087 0 1042 -31Q1009 -54 966 -51Q951 -50 908 -49Q767 -44 706 -36Q658 -29 637 -20Q633 -19 631 -17Q649 3 747 17Q792 23 805 28Q825 36 825 52Q826 67 808 79Q787 93 727 114Q689 127 676 134Q679 136 685 138Z" fill="#000000" />
</g></svg>