<svg xmlns="http://www.w3.org/2000/svg" viewBox="0 0 2048 2048">
<g transform="matrix(1 0 0 -1 0 2048)">
<path d="M379 823V-59H922V823Z" fill="#fcea2b" />
<path d="M741 823V-59H925V823Z" fill="#f1b31c" />
<path d="M352 -41Q333 -41 333 -59Q333 -77 352 -77H945Q963 -77 963 -59Q963 -41 945 -41Z" fill="#000000" />
<path d="M944.0 813.0Q963.0 813.0 963.0 831.0Q963.0 849.0 944.0 849.0H351.0Q333.0 849.0 333.0 831.0Q333.0 813.0 351.0 813.0Z" fill="#000000" />
<path d="M683 876Q665 876 665 858Q665 839 683 839H782Q801 839 801 858Q801 876 782 876Z" fill="#000000" />
<path d="M364 844Q358 851 351 850Q345 850 338 844Q326 830 339 818Q373 785 373 687Q373 574 340 549Q326 538 337 523Q348 509 363 520Q410 556 410 687Q410 801 364 844Z" fill="#000000" />
<path d="M364 548Q351 560 338 547Q326 534 339 521Q373 488 373 390Q373 277 340 252Q326 241 337 227Q343 219 349 218Q355 218 363 223Q410 259 410 390Q410 504 364 548Z" fill="#000000" />
<path d="M364 251Q351 264 338 250Q326 237 339 224Q373 192 373 93Q373 -19 340 -44Q333 -50 332 -56Q331 -63 337 -70Q348 -85 363 -73Q410 -37 410 93Q410 207 364 251Z" fill="#000000" />
<path d="M957 818Q964 824 964 830Q964 837 958 844Q945 857 932 844Q887 801 887 687Q887 556 934 520Q948 509 959 523Q965 530 964 537Q963 543 956 549Q923 574 923 687Q923 785 957 818Z" fill="#000000" />
<path d="M957 521Q971 534 958 547Q952 554 945 554Q939 554 932 548Q887 504 887 390Q887 259 934 223Q948 212 959 227Q971 241 956 252Q923 277 923 390Q923 488 957 521Z" fill="#000000" />
<path d="M957 224Q971 237 958 250Q945 264 932 251Q887 207 887 93Q887 -37 934 -73Q948 -85 959 -70Q971 -56 956 -44Q923 -19 923 93Q923 192 957 224Z" fill="#000000" />
<path d="M673 394Q673 407 662 414Q647 423 635 410Q622 398 631 383Q640 368 657 373Q673 377 673 394Z" fill="#000000" />
<path d="M692 394Q692 418 671 430Q644 446 622 423Q600 401 615 374Q631 347 661 355Q692 363 692 394ZM655 394Q655 391 652 390Q649 389 647 392Q645 395 648 397Q650 400 653 398Q655 397 655 394Z" fill="#000000" />
<path d="M560 394H470Q470 443 494.0 485.0Q518 527 560 551L605 473Q560 447 560 394Z" fill="#000000" />
<path d="M579 394Q579 436 615 457Q623 461 624 468Q626 474 621 482L576 560Q567 576 551 567Q451 509 451 394Q451 376 470 376H560Q579 376 579 394ZM543 413H489Q495 484 554 525L581 478Q549 453 543 413Z" fill="#000000" />
<path d="M696.712890625 316.078125 741.712890625 238.119140625Q699.2685546875 213.619140625 650.8876953125 213.408203125Q602.5068359375 213.197265625 560.7177734375 237.578125L605.7822265625 315.5576171875Q650.8037109375 289.578125 696.712890625 316.078125Z" fill="#000000" />
<path d="M687 332Q651 311 615 332Q599 341 590 325L544 247Q535 231 551 222Q651 164 750 222Q758 226 760 233Q762 239 757 247L712 325Q703 341 687 332ZM689 292 716 245Q651 215 586 245L613 292Q651 277 689 292Z" fill="#000000" />
<path d="M695.923828125 473.0750732421875 740.9512939453125 550.9901123046875Q783.3717041015625 526.4751586914062 807.7247314453125 484.68499755859375Q832.0777587890625 442.89483642578125 831.84228515625 394.52716064453125L741.8021850585938 394.59344482421875Q741.80712890625 446.55889892578125 695.923828125 473.0750732421875Z" fill="#000000" />
<path d="M687 457Q723 436 723 394Q723 376 741 376H832Q850 376 850 394Q850 509 750 567Q735 576 725 560L680 482Q675 474 677 468Q679 461 687 457ZM720 478 748 525Q806 484 813 413H758Q753 453 720 478Z" fill="#000000" />
</g></svg>