<svg xmlns="http://www.w3.org/2000/svg" viewBox="0 0 2048 2048">
<g transform="matrix(1 0 0 -1 0 2048)">
<path d="M568 660H752V892Q718 913 685.0 916.5Q652 920 625.5 914.0Q599 908 583.0 901.0Q567 894 567 894Z" fill="#ffffff" />
<path d="M715 495H605L513 587V642H807V587Z" fill="#9b9b9a" />
<path d="M605 678V495H715V678Z" fill="#d0cfce" />
<path d="M715 495H605L477 348V0Q477 -51 501.5 -92.5Q526 -134 567.5 -158.5Q609 -183 660 -183Q711 -183 752.5 -158.5Q794 -134 818.5 -92.5Q843 -51 843 0V348Z" fill="#9b9b9a" />
<path d="M660 -183Q690 -183 715.0 -158.5Q740 -134 755.0 -92.5Q770 -51 770 0V348L715 495H605L477 348V0Q477 -51 501.5 -92.5Q526 -134 567.5 -158.5Q609 -183 660 -183Z" fill="#d0cfce" />
<path d="M862.0 0.0Q862.0 18.0 843.0 18.0Q825.0 18.0 825.0 0.0Q825.0 -68.0 777.0 -117.0Q728.0 -165.0 660.0 -165.0Q592.0 -165.0 543.0 -117.0Q495.0 -68.0 495.0 0.0Q495.0 18.0 477.0 18.0Q458.0 18.0 458.0 0.0Q458.0 -84.0 517.0 -143.0Q576.0 -202.0 660.0 -202.0Q744.0 -202.0 803.0 -143.0Q862.0 -84.0 862.0 0.0Z" fill="#000000" />
<path d="M825 0Q825 -18 843 -18Q862 -18 862 0V348Q862 367 843 367H477Q458 367 458 348V0Q458 -18 477 -18Q495 -18 495 0V330H825Z" fill="#000000" />
<path d="M587 495Q587 477 605 477H715Q734 477 734 495V678Q734 697 715 697H605Q587 697 587 678ZM624 660H697V513H624Z" fill="#000000" />
<path d="M463 360Q457 354 457 347Q458 341 465 335Q478 322 490 336L619 483Q630 496 618 508L532 594V623H604Q623 623 623 642Q623 660 604 660H513Q495 660 495 642V587Q495 579 500 574L580 494Z" fill="#000000" />
<path d="M830 336Q842 322 855 335Q869 347 857 360L740 494L820 574Q825 579 825 587V642Q825 660 807 660H720Q702 660 702 642Q702 623 720 623H788V594L702 508Q690 496 701 483Z" fill="#000000" />
<path d="M642 770Q642 752 660 752Q678 752 678 770V953Q678 972 660 972Q642 972 642 953Z" fill="#000000" />
<path d="M568 917Q568 935 550 935Q531 935 531 917V715Q531 697 550 697Q568 697 568 715Z" fill="#000000" />
<path d="M788 917Q788 935 770 935Q751 935 751 917V715Q751 697 770 697Q788 697 788 715Z" fill="#000000" />
<path d="M678 94Q678 102 671 106Q668 108 665 108Q651 108 651 94Q651 80 665 80Q678 80 678 94Z" fill="#000000" />
<path d="M688 94Q688 107 676 114Q671 117 665 117Q655 117 648 110Q641 104 641 94Q641 84 648 78Q655 71 665 71Q688 71 688 94ZM669 94Q669 89 665 89Q660 89 660 94Q660 99 665 99Q666 99 667 98Q669 97 669 94Z" fill="#000000" />
<path d="M609 94H553Q553 124 568.0 150.0Q583 176 609 191L637 142Q609 126 609 94Z" fill="#000000" />
<path d="M618 94Q618 121 641 134Q649 139 645 147L617 195Q612 203 604 198Q544 164 544 94Q544 85 553 85H609Q618 85 618 94ZM600 103H563Q566 151 606 178L624 145Q603 129 600 103Z" fill="#000000" />
<path d="M691.99609375 45.54815673828125 720.0029296875 -2.96307373046875Q694.0147705078125 -17.96673583984375 663.9898681640625 -17.975830078125Q633.9649658203125 -17.98492431640625 607.9677124023438 -2.96368408203125L636.41162109375 45.79791259765625Q664.275390625 29.54425048828125 691.99609375 45.54815673828125Z" fill="#000000" />
<path d="M688 54Q665 40 641 54Q633 58 629 50L601 2Q596 -6 604 -11Q665 -45 725 -11Q729 -8 730 -5Q730 -2 728 2L700 50Q696 58 688 54ZM689 34 708 1Q665 -20 621 1L640 34Q665 23 689 34Z" fill="#000000" />
<path d="M691.9066162109375 141.58905029296875 719.9066162109375 190.08660888671875Q745.887451171875 175.08660888671875 760.9041748046875 149.09619140625Q775.9208984375 123.10577392578125 775.9113159179688 93.08905029296875L719.4759521484375 93.34027099609375Q719.6195068359375 125.58905029296875 691.9066162109375 141.58905029296875Z" fill="#000000" />
<path d="M688 134Q711 121 711 94Q711 85 720 85H776Q785 85 785 94Q785 164 725 198Q717 203 712 195L684 147Q680 139 688 134ZM705 145 723 178Q763 151 766 103H729Q726 129 705 145Z" fill="#000000" />
</g></svg>