<svg xmlns="http://www.w3.org/2000/svg" viewBox="0 0 2048 2048">
<g transform="matrix(1 0 0 -1 0 2048)">
<path d="M858.8399658203125 527.1986694335938Q858.8399658203125 600.014404296875 831.1494750976562 659.4976806640625Q803.458984375 718.98095703125 756.2825927734375 754.3632507324219Q709.106201171875 789.7455444335938 652.6996459960938 789.7455444335938Q595.2675170898438 789.7455444335938 548.0911254882812 754.3632507324219Q500.91473388671875 718.98095703125 473.2242431640625 659.4976806640625Q445.53375244140625 600.014404296875 445.53375244140625 527.1986694335938Q445.53375244140625 454.3829345703125 473.2242431640625 394.3868713378906Q500.91473388671875 334.39080810546875 548.0911254882812 299.0085144042969Q595.2675170898438 263.626220703125 652.6996459960938 263.626220703125Q709.106201171875 263.626220703125 756.2825927734375 299.0085144042969Q803.458984375 334.39080810546875 831.1494750976562 394.3868713378906Q858.8399658203125 454.3829345703125 858.8399658203125 527.1986694335938Z" fill="#f4aa41" />
<path d="M289 -36Q297 -36 302.5 -30.5Q308 -25 308 -17V39Q308 70 325.0 100.0Q342 130 369.5 154.0Q397 178 428.5 192.5Q460 207 490 208Q666 66 841 208Q880 206 917.5 181.5Q955 157 979.5 119.0Q1004 81 1004 39V-17Q1004 -25 1009.5 -30.5Q1015 -36 1023 -36Z" fill="#f4aa41" />
<path d="M805 690 860 594 842 427H470L453 599L508 690Z" fill="#d0cfce" />
<path d="M746.2633056640625 300.6109619140625Q747.134033203125 326.273193359375 734.2909545898438 348.3883056640625Q721.4478759765625 370.50341796875 699.31884765625 382.879638671875Q678.07421875 396.1412353515625 652.4124755859375 396.1270751953125Q626.750732421875 396.1129150390625 604.6358642578125 382.827392578125Q583.4053955078125 370.42724609375 570.5867309570312 348.2979736328125Q557.76806640625 326.168701171875 558.6671142578125 300.5074462890625Q557.79638671875 274.84521484375 570.6394653320312 252.7301025390625Q583.4825439453125 230.614990234375 604.7266845703125 218.23828125Q626.856201171875 204.9771728515625 652.5179443359375 204.9913330078125Q678.1796875 205.0054931640625 699.40966796875 218.29052734375Q721.5250244140625 230.691162109375 734.3436889648438 252.8204345703125Q747.162353515625 274.94970703125 746.2633056640625 300.6109619140625Z" fill="#3f3f3f" />
<path d="M681.0714111328125 300.8232421875Q681.0714111328125 306.628662109375 678.8775024414062 311.759033203125Q676.68359375 316.889404296875 672.8020629882812 320.77093505859375Q668.9205322265625 324.6524658203125 663.8239135742188 326.84637451171875Q658.727294921875 329.040283203125 652.8543701171875 329.040283203125Q647.0489501953125 329.040283203125 641.9185791015625 326.84637451171875Q636.7882080078125 324.6524658203125 632.9066772460938 320.77093505859375Q629.025146484375 316.889404296875 626.8312377929688 311.759033203125Q624.6373291015625 306.628662109375 624.6373291015625 300.8232421875Q624.6373291015625 294.9503173828125 626.8312377929688 289.85369873046875Q629.025146484375 284.757080078125 632.9066772460938 280.87554931640625Q636.7882080078125 276.9940185546875 641.9185791015625 274.80010986328125Q647.0489501953125 272.606201171875 652.8543701171875 272.606201171875Q658.727294921875 272.606201171875 663.8239135742188 274.80010986328125Q668.9205322265625 276.9940185546875 672.8020629882812 280.87554931640625Q676.68359375 284.757080078125 678.8775024414062 289.85369873046875Q681.0714111328125 294.9503173828125 681.0714111328125 300.8232421875Z" fill="#d0cfce" />
<path d="M621 426 700 698 793 696 715 425Z" fill="#ffffff" />
<path d="M853.6632690429688 382.06158447265625Q839.8648681640625 391.28009033203125 820.9892883300781 385.775634765625Q802.1137084960938 380.27117919921875 788.2882080078125 361.87481689453125Q772.6226196289062 344.4007568359375 770.76220703125 324.6119079589844Q768.9017944335938 304.82305908203125 779.9378051757812 294.686767578125Q790.9738159179688 284.55047607421875 811.2305908203125 290.5138244628906Q831.4873657226562 296.4771728515625 845.3128662109375 314.87353515625Q860.9784545898438 332.34759521484375 862.8388671875 352.1364440917969Q864.6992797851562 371.92529296875 853.6632690429688 382.06158447265625Z" fill="#d22f27" />
<path d="M515.88671875 362.7728271484375Q505.93328857421875 374.63970947265625 493.6831359863281 381.2109680175781Q481.4329833984375 387.7822265625 469.9855651855469 388.1109924316406Q458.53814697265625 388.43975830078125 450.62689208984375 381.80413818359375Q442.71563720703125 375.16851806640625 440.94293212890625 363.75128173828125Q439.17022705078125 352.33404541015625 443.61322021484375 339.2144775390625Q448.05621337890625 326.09490966796875 458.0096435546875 314.22802734375Q468.1376953125 302.1529541015625 480.1964416503906 295.5984802246094Q492.25518798828125 289.04400634765625 503.80670166015625 288.80255126953125Q515.3582153320312 288.56109619140625 523.2694702148438 295.19671630859375Q531.1807250976562 301.83233642578125 532.8493347167969 313.1622619628906Q534.5179443359375 324.4921875 530.266357421875 337.594970703125Q526.0147705078125 350.69775390625 515.88671875 362.7728271484375Z" fill="#d22f27" />
<path d="M281 -16Q281 -35 299 -35Q317 -35 317 -16V40Q317 101 370 146Q419 189 480 191Q656 49 832 191Q893 189 943 146Q995 101 995 40V-16Q995 -35 1013 -35Q1032 -35 1032 -16V40Q1032 117 967 174Q904 228 825 228Q819 228 814 223Q656 92 499 223Q494 228 487 228Q408 228 346 174Q281 117 281 40Z" fill="#000000" />
<path d="M508 727Q489 727 489 709Q489 690 508 690H805Q823 690 823 709Q823 727 805 727Z" fill="#000000" />
<path d="M470 446Q452 446 452 427Q452 409 470 409H842Q861 409 861 427Q861 446 842 446Z" fill="#000000" />
<path d="M505 209Q505 228 487 228Q469 228 469 209V-17Q469 -36 487 -36Q505 -36 505 -17Z" fill="#000000" />
<path d="M765 301Q765 348 732 381Q699 413 653 413Q606 413 573 381Q540 348 540 301Q540 255 573 222Q606 189 653 189Q699 189 732 222Q765 255 765 301ZM728 301Q728 270 706 248Q684 225 653 225Q621 225 599 248Q577 270 577 301Q577 332 599 355Q621 377 653 377Q684 377 706 355Q728 332 728 301Z" fill="#000000" />
<path d="M865 396Q845 413 817 404Q792 397 774 375Q726 318 768 281Q788 265 817 273Q841 281 860 303Q908 360 865 396ZM841 368Q856 356 832 326Q807 297 792 310Q777 322 802 351Q826 381 841 368Z" fill="#000000" />
<path d="M530 375Q482 432 439 396Q419 380 422 350Q425 325 444 303Q463 281 487 273Q516 265 535 281Q578 318 530 375ZM502 351Q526 322 511 310Q507 306 497 309Q483 313 472 326Q460 340 459 354Q458 364 462 368Q477 381 502 351Z" fill="#000000" />
<path d="M461 383Q468 367 485 375Q493 378 496 384Q498 391 494 399Q466 460 466 526Q466 636 519 703Q525 712 533 719Q585 767 655 767H656Q726 767 778 719Q786 712 792 703Q845 636 845 527Q845 460 817 399Q809 382 826 375Q843 367 850 384Q882 452 881 527Q881 649 821 726Q813 736 804 745Q803 746 803 746Q741 803 656 803H655Q570 803 508 746Q508 746 507 745Q498 736 490 726Q430 649 430 527Q429 452 461 383Z" fill="#000000" />
<path d="M901.6759643554688 100.07470703125Q901.6759643554688 107.9849853515625 898.6866149902344 114.9754638671875Q895.697265625 121.9659423828125 890.4084167480469 127.25479125976562Q885.1195678710938 132.54364013671875 878.1750793457031 135.53298950195312Q871.2305908203125 138.5223388671875 863.2283325195312 138.5223388671875Q855.3180541992188 138.5223388671875 848.3275756835938 135.53298950195312Q841.3370971679688 132.54364013671875 836.0482482910156 127.25479125976562Q830.7593994140625 121.9659423828125 827.7700500488281 114.9754638671875Q824.7807006835938 107.9849853515625 824.7807006835938 100.07470703125Q824.7807006835938 92.07244873046875 827.7700500488281 85.12796020507812Q830.7593994140625 78.1834716796875 836.0482482910156 72.89462280273438Q841.3370971679688 67.60577392578125 848.3275756835938 64.61642456054688Q855.3180541992188 61.6270751953125 863.2283325195312 61.6270751953125Q871.2305908203125 61.6270751953125 878.1750793457031 64.61642456054688Q885.1195678710938 67.60577392578125 890.4084167480469 72.89462280273438Q895.697265625 78.1834716796875 898.6866149902344 85.12796020507812Q901.6759643554688 92.07244873046875 901.6759643554688 100.07470703125Z" fill="#000000" />
</g></svg>