<svg xmlns="http://www.w3.org/2000/svg" viewBox="0 0 2048 2048">
<g transform="matrix(1 0 0 -1 0 2048)">
<path d="M403 825Q358 825 325.5 793.0Q293 761 293 715V37Q293 -9 325.5 -41.0Q358 -73 403 -73H843Q889 -73 921.0 -41.0Q953 -9 953 37V715Q953 761 921.0 793.0Q889 825 843 825Z" fill="#f4aa41" />
<path d="M806.3175048828125 568.2294921875Q806.3175048828125 605.948974609375 792.0630493164062 639.282470703125Q777.80859375 672.615966796875 752.5891723632812 697.8353881835938Q727.3697509765625 723.0548095703125 694.2555541992188 737.3092651367188Q661.141357421875 751.563720703125 622.9832763671875 751.563720703125Q585.2637939453125 751.563720703125 551.9302978515625 737.3092651367188Q518.5968017578125 723.0548095703125 493.37738037109375 697.8353881835938Q468.157958984375 672.615966796875 453.90350341796875 639.282470703125Q439.6490478515625 605.948974609375 439.6490478515625 568.2294921875Q439.6490478515625 530.0714111328125 453.90350341796875 496.95721435546875Q468.157958984375 463.843017578125 493.37738037109375 438.62359619140625Q518.5968017578125 413.4041748046875 551.9302978515625 399.14971923828125Q585.2637939453125 384.895263671875 622.9832763671875 384.895263671875Q661.141357421875 384.895263671875 694.2555541992188 399.14971923828125Q727.3697509765625 413.4041748046875 752.5891723632812 438.62359619140625Q777.80859375 463.843017578125 792.0630493164062 496.95721435546875Q806.3175048828125 530.0714111328125 806.3175048828125 568.2294921875Z" fill="#ffffff" />
<path d="M776 468Q777 490 756.5 509.0Q736 528 700 540Q665 551 623.5 551.0Q582 551 546 540Q511 528 490.5 509.0Q470 490 470 468Q470 445 490.5 426.0Q511 407 546 395Q582 384 623.5 384.0Q665 384 700 395Q736 407 756.5 426.0Q777 445 776 468Z" fill="#d0cfce" />
<path d="M953 37Q953 -9 921.0 -41.0Q889 -73 843 -73V825Q889 825 921.0 793.0Q953 761 953 715Z" fill="#e27022" />
<path d="M587 477V18H660V477Z" fill="#f1b31c" />
<path d="M453.19146728515625 217.30352783203125Q453.1859130859375 223.93603515625 447.57080078125 227.502685546875Q439.9140625 232.0880126953125 433.79730224609375 225.45037841796875Q427.169921875 219.322509765625 431.76806640625 211.6734619140625Q436.3662109375 204.0244140625 445.037353515625 206.5826416015625Q453.19873046875 208.6302490234375 453.19146728515625 217.30352783203125Z" fill="#000000" />
<path d="M463 218Q463 230 453 235Q439 243 428 232Q416 221 424 207Q432 193 448 198Q463 202 463 218ZM445 218Q445 216 443 215Q441 215 440 216Q439 218 441 219Q442 221 443 220Q445 219 445 218Z" fill="#000000" />
<path d="M396.5029296875 216.8717041015625H350.6185302734375Q350.6185302734375 241.85321044921875 362.8543701171875 263.26593017578125Q375.0902099609375 284.67864990234375 396.5029296875 296.91448974609375L419.44512939453125 257.14801025390625Q396.5029296875 243.89251708984375 396.5029296875 216.8717041015625Z" fill="#000000" />
<path d="M405 218Q405 239 424 250Q428 252 429 255Q429 258 427 262L404 302Q400 310 392 305Q341 276 341 218Q341 208 350 208H396Q401 208 403 211Q405 213 405 218ZM388 227H360Q363 263 393 285L407 260Q390 247 388 227Z" fill="#000000" />
<path d="M465.337646484375 177.8560791015625 488.2716064453125 138.1185302734375Q466.63671875 125.63226318359375 441.976806640625 125.52642822265625Q417.31689453125 125.42059326171875 396.0177001953125 137.84906005859375L418.98992919921875 177.59393310546875Q441.9366455078125 164.35052490234375 465.337646484375 177.8560791015625Z" fill="#000000" />
<path d="M461 186Q442 175 424 186Q416 190 411 182L388 142Q384 134 392 130Q442 100 493 130Q497 132 498 135Q499 138 496 142L473 182Q469 190 461 186ZM462 166 476 141Q442 126 409 141L423 166Q442 158 462 166Z" fill="#000000" />
<path d="M465.04296875 257.29248046875 488.00439453125 297.01904296875Q509.63330078125 284.517822265625 522.04931640625 263.208740234375Q534.46533203125 241.899658203125 534.34375 217.237548828125L488.433349609375 217.274169921875Q488.4375 243.770751953125 465.04296875 257.29248046875Z" fill="#000000" />
<path d="M461 250Q479 239 479 218Q479 213 482 211Q484 208 488 208H535Q544 208 544 218Q544 276 493 305Q485 310 480 302L457 262Q453 254 461 250ZM478 260 492 285Q522 263 525 227H497Q494 247 478 260Z" fill="#000000" />
<path d="M403 843Q350 843 313 806Q275 768 275 715V37Q275 -16 313 -54Q350 -92 403 -92H843Q897 -92 934 -54Q972 -16 972 37V715Q972 768 934 806Q896 843 843 843ZM403 807H843Q881 807 908 780Q935 753 935 715V37Q935 -1 908 -28Q881 -55 843 -55H403Q365 -55 339 -28Q312 -1 312 37V715Q312 753 339 780Q365 807 403 807Z" fill="#000000" />
<path d="M761 457Q771 442 786 452Q802 462 792 478Q732 568 623 568Q515 568 455 478Q445 462 460 452Q468 447 474 448Q481 450 486 457Q534 532 623 532Q712 532 761 457Z" fill="#000000" />
<path d="M549 630Q542 647 525 640Q508 634 515 617L548 534Q554 517 571 524Q588 531 582 548Z" fill="#000000" />
<path d="M656 407Q638 403 642 385Q646 367 664 371Q740 386 786 449Q832 511 824 589Q816 666 759 718Q701 770 623 770Q546 770 488 718Q430 666 423 589Q415 511 461 449Q507 386 583 371Q601 367 605 385Q608 403 590 407Q528 419 490 471Q453 522 459 585Q466 648 513 691Q560 733 623 733Q687 733 734 691Q781 648 787 585Q794 522 756 471Q719 419 656 407Z" fill="#000000" />
<path d="M596 102Q612 111 603 127Q593 143 578 134Q517 99 535 31Q553 -37 623 -37Q694 -37 712 31Q730 99 669 134Q653 143 644 127Q635 111 651 102Q687 81 676 40Q666 0 623 0Q581 0 570 40Q559 81 596 102Z" fill="#000000" />
<path d="M605 495Q568 495 568 458V37Q568 0 605 0H642Q678 0 678 37V458Q678 495 642 495ZM605 458H642V37H605Z" fill="#000000" />
</g></svg>