<svg xmlns="http://www.w3.org/2000/svg" viewBox="0 0 2048 2048">
<g transform="matrix(1 0 0 -1 0 2048)">
<path d="M810 697 851 679Q872 665 876.0 652.0Q880 639 874.5 627.5Q869 616 862.5 609.5Q856 603 856 603L749 547Q749 547 747.0 564.0Q745 581 743.0 605.5Q741 630 742.0 652.5Q743 675 749 687Q757 702 771.5 703.5Q786 705 798.0 701.0Q810 697 810 697Z" fill="#ffffff" />
<path d="M627 168Q601 186 568 175Q537 166 518 137Q499 108 502 76Q505 41 531 24Q557 6 590 17Q621 26 640 55Q659 84 657 116Q653 150 627 168ZM607 137Q637 117 610 75Q597 57 579 52Q563 47 551 54Q521 75 549 116Q561 134 579 140Q595 145 607 137Z" fill="#000000" />
<path d="M561 148Q575 160 594 162L588 207L544 202Q537 191 546.0 189.5Q555 188 555 188Z" fill="#000000" />
<path d="M556 207Q548 191 564 183Q580 174 589 191L715 437Q723 453 707 462Q690 470 682 454Z" fill="#000000" />
<path d="M472 250Q444 265 412 251Q383 238 367 207Q351 176 357 145Q364 111 392 96Q420 82 452 96Q481 109 497 140Q513 171 507 202Q500 236 472 250ZM455 218Q488 201 465 157Q442 112 409 129Q397 135 393 152Q389 171 399 190Q422 235 455 218Z" fill="#000000" />
<path d="M480 195Q485 212 479 229L521 245L536 207Q530 195 524.0 202.0Q518 209 518 209Z" fill="#000000" />
<path d="M505 237Q494 222 509 211Q517 206 523 207Q529 208 535 216L699 450Q704 457 703 464Q702 470 694 475Q679 486 669 471Z" fill="#000000" />
<path d="M872 707Q857 717 847 702Q842 694 843 688Q844 682 852 676Q867 666 874 651Q885 624 843 598L736 541Q720 533 728 516Q732 508 739 506Q745 504 753 509L861 566Q862 566 862 566Q931 610 907 665Q897 690 872 707Z" fill="#000000" />
<path d="M805 696Q813 693 820 695Q826 697 829 706Q837 722 820 730Q793 742 766 737Q707 728 706 647Q706 646 706 645L715 524Q716 515 721 510Q726 506 735 507Q753 508 752 526L743 647Q743 697 772 701Q788 704 805 696Z" fill="#000000" />
<path d="M678 490Q671 479 674.5 466.5Q678 454 689 447Q701 440 713.5 443.5Q726 447 733 459L753 494Q760 505 756.5 518.0Q753 531 741 537Q730 544 717.5 540.5Q705 537 698 526Z" fill="#000000" />
<path d="M726.9156494140625 492.620361328125Q726.9126586914062 499.4229736328125 721.0801391601562 503.3076171875Q715.248046875 506.220458984375 709.4185180664062 503.302490234375Q703.5894165039062 499.4127197265625 704.564208984375 492.61053466796875Q703.594970703125 486.779296875 709.427490234375 482.8946533203125Q715.2595825195312 479.9818115234375 721.089111328125 482.8997802734375Q726.918212890625 486.78955078125 726.9156494140625 492.620361328125Z" fill="#ffffff" />
</g></svg>