<svg xmlns="http://www.w3.org/2000/svg" viewBox="0 0 2048 2048">
<g transform="matrix(1 0 0 -1 0 2048)">
<path d="M231 721Q196 721 171.0 696.0Q146 671 146 636V134Q146 99 171.0 74.0Q196 49 231 49H1089Q1124 49 1149.0 74.0Q1174 99 1174 134V636Q1174 671 1149.0 696.0Q1124 721 1089 721Z" fill="#92d3f5" />
<path d="M462.61865234375 514.66015625Q462.61865234375 531.5830078125 456.223388671875 546.5380859375Q449.828125 561.4931640625 438.513427734375 572.807861328125Q427.19873046875 584.12255859375 412.342041015625 590.517822265625Q397.4853515625 596.9130859375 380.36572265625 596.9130859375Q363.44287109375 596.9130859375 348.48779296875 590.517822265625Q333.53271484375 584.12255859375 322.218017578125 572.807861328125Q310.9033203125 561.4931640625 304.508056640625 546.5380859375Q298.11279296875 531.5830078125 298.11279296875 514.66015625Q298.11279296875 497.54052734375 304.508056640625 482.683837890625Q310.9033203125 467.8271484375 322.218017578125 456.512451171875Q333.53271484375 445.19775390625 348.48779296875 438.802490234375Q363.44287109375 432.4072265625 380.36572265625 432.4072265625Q397.4853515625 432.4072265625 412.342041015625 438.802490234375Q427.19873046875 445.19775390625 438.513427734375 456.512451171875Q449.828125 467.8271484375 456.223388671875 482.683837890625Q462.61865234375 497.54052734375 462.61865234375 514.66015625Z" fill="#9b9b9a" />
<path d="M745.61865234375 514.66015625Q745.61865234375 531.5830078125 739.223388671875 546.5380859375Q732.828125 561.4931640625 721.513427734375 572.807861328125Q710.19873046875 584.12255859375 695.342041015625 590.517822265625Q680.4853515625 596.9130859375 663.36572265625 596.9130859375Q646.44287109375 596.9130859375 631.48779296875 590.517822265625Q616.53271484375 584.12255859375 605.218017578125 572.807861328125Q593.9033203125 561.4931640625 587.508056640625 546.5380859375Q581.11279296875 531.5830078125 581.11279296875 514.66015625Q581.11279296875 497.54052734375 587.508056640625 482.683837890625Q593.9033203125 467.8271484375 605.218017578125 456.512451171875Q616.53271484375 445.19775390625 631.48779296875 438.802490234375Q646.44287109375 432.4072265625 663.36572265625 432.4072265625Q680.4853515625 432.4072265625 695.342041015625 438.802490234375Q710.19873046875 445.19775390625 721.513427734375 456.512451171875Q732.828125 467.8271484375 739.223388671875 482.683837890625Q745.61865234375 497.54052734375 745.61865234375 514.66015625Z" fill="#d0cfce" />
<path d="M1028.61865234375 514.66015625Q1028.61865234375 531.5830078125 1022.223388671875 546.5380859375Q1015.828125 561.4931640625 1004.513427734375 572.807861328125Q993.19873046875 584.12255859375 978.342041015625 590.517822265625Q963.4853515625 596.9130859375 946.36572265625 596.9130859375Q929.44287109375 596.9130859375 914.48779296875 590.517822265625Q899.53271484375 584.12255859375 888.218017578125 572.807861328125Q876.9033203125 561.4931640625 870.508056640625 546.5380859375Q864.11279296875 531.5830078125 864.11279296875 514.66015625Q864.11279296875 497.54052734375 870.508056640625 482.683837890625Q876.9033203125 467.8271484375 888.218017578125 456.512451171875Q899.53271484375 445.19775390625 914.48779296875 438.802490234375Q929.44287109375 432.4072265625 946.36572265625 432.4072265625Q963.4853515625 432.4072265625 978.342041015625 438.802490234375Q993.19873046875 445.19775390625 1004.513427734375 456.512451171875Q1015.828125 467.8271484375 1022.223388671875 482.683837890625Q1028.61865234375 497.54052734375 1028.61865234375 514.66015625Z" fill="#d0cfce" />
<path d="M462.61865234375 248.66015625Q462.61865234375 265.5830078125 456.223388671875 280.5380859375Q449.828125 295.4931640625 438.513427734375 306.807861328125Q427.19873046875 318.12255859375 412.342041015625 324.517822265625Q397.4853515625 330.9130859375 380.36572265625 330.9130859375Q363.44287109375 330.9130859375 348.48779296875 324.517822265625Q333.53271484375 318.12255859375 322.218017578125 306.807861328125Q310.9033203125 295.4931640625 304.508056640625 280.5380859375Q298.11279296875 265.5830078125 298.11279296875 248.66015625Q298.11279296875 231.54052734375 304.508056640625 216.683837890625Q310.9033203125 201.8271484375 322.218017578125 190.512451171875Q333.53271484375 179.19775390625 348.48779296875 172.802490234375Q363.44287109375 166.4072265625 380.36572265625 166.4072265625Q397.4853515625 166.4072265625 412.342041015625 172.802490234375Q427.19873046875 179.19775390625 438.513427734375 190.512451171875Q449.828125 201.8271484375 456.223388671875 216.683837890625Q462.61865234375 231.54052734375 462.61865234375 248.66015625Z" fill="#d0cfce" />
<path d="M745.61865234375 248.66015625Q745.61865234375 265.5830078125 739.223388671875 280.5380859375Q732.828125 295.4931640625 721.513427734375 306.807861328125Q710.19873046875 318.12255859375 695.342041015625 324.517822265625Q680.4853515625 330.9130859375 663.36572265625 330.9130859375Q646.44287109375 330.9130859375 631.48779296875 324.517822265625Q616.53271484375 318.12255859375 605.218017578125 306.807861328125Q593.9033203125 295.4931640625 587.508056640625 280.5380859375Q581.11279296875 265.5830078125 581.11279296875 248.66015625Q581.11279296875 231.54052734375 587.508056640625 216.683837890625Q593.9033203125 201.8271484375 605.218017578125 190.512451171875Q616.53271484375 179.19775390625 631.48779296875 172.802490234375Q646.44287109375 166.4072265625 663.36572265625 166.4072265625Q680.4853515625 166.4072265625 695.342041015625 172.802490234375Q710.19873046875 179.19775390625 721.513427734375 190.512451171875Q732.828125 201.8271484375 739.223388671875 216.683837890625Q745.61865234375 231.54052734375 745.61865234375 248.66015625Z" fill="#d0cfce" />
<path d="M1028.61865234375 248.66015625Q1028.61865234375 265.5830078125 1022.223388671875 280.5380859375Q1015.828125 295.4931640625 1004.513427734375 306.807861328125Q993.19873046875 318.12255859375 978.342041015625 324.517822265625Q963.4853515625 330.9130859375 946.36572265625 330.9130859375Q929.44287109375 330.9130859375 914.48779296875 324.517822265625Q899.53271484375 318.12255859375 888.218017578125 306.807861328125Q876.9033203125 295.4931640625 870.508056640625 280.5380859375Q864.11279296875 265.5830078125 864.11279296875 248.66015625Q864.11279296875 231.54052734375 870.508056640625 216.683837890625Q876.9033203125 201.8271484375 888.218017578125 190.512451171875Q899.53271484375 179.19775390625 914.48779296875 172.802490234375Q929.44287109375 166.4072265625 946.36572265625 166.4072265625Q963.4853515625 166.4072265625 978.342041015625 172.802490234375Q993.19873046875 179.19775390625 1004.513427734375 190.512451171875Q1015.828125 201.8271484375 1022.223388671875 216.683837890625Q1028.61865234375 231.54052734375 1028.61865234375 248.66015625Z" fill="#d0cfce" />
<path d="M325.8187255859375 574.431640625V447.982666015625H391.7784423828125V574.431640625Z" fill="#d0cfce" />
<path d="M659.529052734375 576.1904296875V445.6688232421875H728.091064453125V576.1904296875Z" fill="#9b9b9a" />
<path d="M935.6497802734375 575.23828125V445.57470703125H1003.3497314453125V575.23828125Z" fill="#9b9b9a" />
<path d="M936 319V185H1002V319Z" fill="#9b9b9a" />
<path d="M659.67724609375 318.80859375V187.50146484375H729.38330078125V318.80859375Z" fill="#9b9b9a" />
<path d="M391 325V188H459V325Z" fill="#9b9b9a" />
<path d="M251 726Q208 726 178 696Q148 665 148 623V147Q148 105 178 74Q208 44 251 44H1069Q1112 44 1142 74Q1172 105 1172 147V623Q1172 665 1142 696Q1112 726 1069 726ZM251 689H1069Q1097 689 1116 670Q1136 650 1136 623V147Q1136 120 1116 100Q1097 81 1069 81H251Q184 81 184 147V623Q184 689 251 689Z" fill="#000000" />
<path d="M489 510Q489 550 460 578Q432 607 391 607Q351 607 322 578Q294 550 294 510Q294 469 322 441Q351 412 391 412Q432 412 460 441Q489 469 489 510ZM452 510Q452 485 434 467Q416 449 391 449Q366 449 348 467Q331 485 331 510Q331 535 348 553Q366 570 391 570Q452 570 452 510Z" fill="#000000" />
<path d="M761 510Q761 550 732 578Q704 607 663 607Q623 607 594 578Q566 550 566 510Q566 469 594 441Q623 412 663 412Q704 412 732 441Q761 469 761 510ZM724 510Q724 485 706 467Q688 449 663 449Q603 449 603 510Q603 535 620 553Q638 570 663 570Q688 570 706 553Q724 535 724 510Z" fill="#000000" />
<path d="M1033 510Q1033 550 1004 578Q976 607 936 607Q895 607 867 578Q838 550 838 510Q838 469 867 441Q895 412 936 412Q976 412 1004 441Q1033 469 1033 510ZM996 510Q996 485 978 467Q961 449 936 449Q910 449 893 467Q875 485 875 510Q875 570 936 570Q996 570 996 510Z" fill="#000000" />
<path d="M489 254Q489 294 460 323Q432 351 391 351Q351 351 322 323Q294 294 294 254Q294 213 322 185Q351 156 391 156Q432 156 460 185Q489 213 489 254ZM452 254Q452 193 391 193Q331 193 331 254Q331 279 348 297Q366 314 391 314Q416 314 434 297Q452 279 452 254Z" fill="#000000" />
<path d="M761 254Q761 294 732 323Q704 351 663 351Q623 351 594 323Q566 294 566 254Q566 213 594 185Q623 156 663 156Q704 156 732 185Q761 213 761 254ZM724 254Q724 193 663 193Q603 193 603 254Q603 279 620 297Q638 314 663 314Q688 314 706 297Q724 279 724 254Z" fill="#000000" />
<path d="M1033 254Q1033 294 1004 323Q976 351 936 351Q895 351 867 323Q838 294 838 254Q838 213 867 185Q895 156 936 156Q976 156 1004 185Q1033 213 1033 254ZM996 254Q996 193 936 193Q910 193 893 211Q875 229 875 254Q875 314 936 314Q996 314 996 254Z" fill="#000000" />
</g></svg>