<svg xmlns="http://www.w3.org/2000/svg" viewBox="0 0 2048 2048">
<g transform="matrix(1 0 0 -1 0 2048)">
<path d="M309 540Q277 540 253.5 517.0Q230 494 230 461V309Q230 276 253.5 253.0Q277 230 309 230H1011Q1043 230 1066.5 253.0Q1090 276 1090 309V461Q1090 494 1066.5 517.0Q1043 540 1011 540Z" fill="#f4aa41" />
<path d="M304 559Q266 559 239 532Q212 505 212 467V303Q212 265 239 238Q266 211 304 211H1016Q1054 211 1081 238Q1108 265 1108 303V467Q1108 505 1081 532Q1054 559 1016 559ZM304 522H1016Q1039 522 1055 506Q1072 490 1072 467V303Q1072 280 1055 264Q1039 248 1016 248H304Q248 248 248 303V467Q248 490 265 506Q281 522 304 522Z" fill="#000000" />
<path d="M541 460Q541 478 523 478Q505 478 505 460V310Q505 292 523 292Q541 292 541 310Z" fill="#000000" />
<path d="M802 460Q802 478 784 478Q766 478 766 460V310Q766 292 784 292Q802 292 802 310Z" fill="#000000" />
<path d="M641.2713623046875 421.5283203125Q641.2713623046875 426.388916015625 639.4345092773438 430.684326171875Q637.59765625 434.979736328125 634.3478393554688 438.22955322265625Q631.0980224609375 441.4793701171875 626.8308715820312 443.31622314453125Q622.563720703125 445.153076171875 617.6466064453125 445.153076171875Q612.7860107421875 445.153076171875 608.4906005859375 443.31622314453125Q604.1951904296875 441.4793701171875 600.9453735351562 438.22955322265625Q597.695556640625 434.979736328125 595.8587036132812 430.684326171875Q594.0218505859375 426.388916015625 594.0218505859375 421.5283203125Q594.0218505859375 416.6112060546875 595.8587036132812 412.34405517578125Q597.695556640625 408.076904296875 600.9453735351562 404.82708740234375Q604.1951904296875 401.5772705078125 608.4906005859375 399.74041748046875Q612.7860107421875 397.903564453125 617.6466064453125 397.903564453125Q622.563720703125 397.903564453125 626.8308715820312 399.74041748046875Q631.0980224609375 401.5772705078125 634.3478393554688 404.82708740234375Q637.59765625 408.076904296875 639.4345092773438 412.34405517578125Q641.2713623046875 416.6112060546875 641.2713623046875 421.5283203125Z" fill="#000000" />
<path d="M721.2713623046875 421.5283203125Q721.2713623046875 426.388916015625 719.4345092773438 430.684326171875Q717.59765625 434.979736328125 714.3478393554688 438.22955322265625Q711.0980224609375 441.4793701171875 706.8308715820312 443.31622314453125Q702.563720703125 445.153076171875 697.6466064453125 445.153076171875Q692.7860107421875 445.153076171875 688.4906005859375 443.31622314453125Q684.1951904296875 441.4793701171875 680.9453735351562 438.22955322265625Q677.695556640625 434.979736328125 675.8587036132812 430.684326171875Q674.0218505859375 426.388916015625 674.0218505859375 421.5283203125Q674.0218505859375 416.6112060546875 675.8587036132812 412.34405517578125Q677.695556640625 408.076904296875 680.9453735351562 404.82708740234375Q684.1951904296875 401.5772705078125 688.4906005859375 399.74041748046875Q692.7860107421875 397.903564453125 697.6466064453125 397.903564453125Q702.563720703125 397.903564453125 706.8308715820312 399.74041748046875Q711.0980224609375 401.5772705078125 714.3478393554688 404.82708740234375Q717.59765625 408.076904296875 719.4345092773438 412.34405517578125Q721.2713623046875 416.6112060546875 721.2713623046875 421.5283203125Z" fill="#000000" />
<path d="M641.2713623046875 348.5283203125Q641.2713623046875 353.388916015625 639.4345092773438 357.684326171875Q637.59765625 361.979736328125 634.3478393554688 365.22955322265625Q631.0980224609375 368.4793701171875 626.8308715820312 370.31622314453125Q622.563720703125 372.153076171875 617.6466064453125 372.153076171875Q612.7860107421875 372.153076171875 608.4906005859375 370.31622314453125Q604.1951904296875 368.4793701171875 600.9453735351562 365.22955322265625Q597.695556640625 361.979736328125 595.8587036132812 357.684326171875Q594.0218505859375 353.388916015625 594.0218505859375 348.5283203125Q594.0218505859375 343.6112060546875 595.8587036132812 339.34405517578125Q597.695556640625 335.076904296875 600.9453735351562 331.82708740234375Q604.1951904296875 328.5772705078125 608.4906005859375 326.74041748046875Q612.7860107421875 324.903564453125 617.6466064453125 324.903564453125Q622.563720703125 324.903564453125 626.8308715820312 326.74041748046875Q631.0980224609375 328.5772705078125 634.3478393554688 331.82708740234375Q637.59765625 335.076904296875 639.4345092773438 339.34405517578125Q641.2713623046875 343.6112060546875 641.2713623046875 348.5283203125Z" fill="#000000" />
<path d="M721.2713623046875 348.5283203125Q721.2713623046875 353.388916015625 719.4345092773438 357.684326171875Q717.59765625 361.979736328125 714.3478393554688 365.22955322265625Q711.0980224609375 368.4793701171875 706.8308715820312 370.31622314453125Q702.563720703125 372.153076171875 697.6466064453125 372.153076171875Q692.7860107421875 372.153076171875 688.4906005859375 370.31622314453125Q684.1951904296875 368.4793701171875 680.9453735351562 365.22955322265625Q677.695556640625 361.979736328125 675.8587036132812 357.684326171875Q674.0218505859375 353.388916015625 674.0218505859375 348.5283203125Q674.0218505859375 343.6112060546875 675.8587036132812 339.34405517578125Q677.695556640625 335.076904296875 680.9453735351562 331.82708740234375Q684.1951904296875 328.5772705078125 688.4906005859375 326.74041748046875Q692.7860107421875 324.903564453125 697.6466064453125 324.903564453125Q702.563720703125 324.903564453125 706.8308715820312 326.74041748046875Q711.0980224609375 328.5772705078125 714.3478393554688 331.82708740234375Q717.59765625 335.076904296875 719.4345092773438 339.34405517578125Q721.2713623046875 343.6112060546875 721.2713623046875 348.5283203125Z" fill="#000000" />
</g></svg>