<svg xmlns="http://www.w3.org/2000/svg" viewBox="0 0 2048 2048">
<g transform="matrix(1 0 0 -1 0 2048)">
<path d="M988 677 1037 595Q1060 558 1060 514V38Q1060 -1 1032.0 -28.5Q1004 -56 965 -56H355Q316 -56 288.5 -28.5Q261 -1 261 38V514Q261 558 283 595L332 677Z" fill="#92d3f5" />
<path d="M333 826V681H986V826Z" fill="#d0cfce" />
<path d="M716 129H621V263H486V358H621V493H716V358H851V263H716Z" fill="#d22f27" />
<path d="M607 493V372H486Q472 372 472 358V263Q472 249 486 249H607V129Q607 114 621 114H716Q730 114 730 129V249H851Q865 249 865 263V358Q865 372 851 372H730V493Q730 507 716 507H621Q607 507 607 493ZM635 479H702V358Q702 344 716 344H836V278H716Q702 278 702 263V143H635V263Q635 278 621 278H501V344H621Q635 344 635 358Z" fill="#000000" />
<path d="M988 694H332Q323 694 318 686L269 604Q244 562 244 514V38Q244 -8 276 -40Q308 -73 354 -73H966Q1012 -73 1044 -40Q1076 -8 1076 38V514Q1076 562 1051 604L1002 686Q997 694 988 694ZM979 661 1024 587Q1044 553 1044 514V38Q1044 5 1021 -18Q998 -40 966 -40H354Q322 -40 299 -18Q276 5 276 38V514Q276 553 296 587L341 661Z" fill="#000000" />
<path d="M316 681Q316 665 333 665H987Q1003 665 1003 681V827Q1003 843 987 843H333Q316 843 316 827ZM349 810H971V697H349Z" fill="#000000" />
<path d="M457 827Q457 843 441 843Q425 843 425 827V681Q425 665 441 665Q457 665 457 681Z" fill="#000000" />
<path d="M566 827Q566 843 550 843Q534 843 534 827V681Q534 665 550 665Q566 665 566 681Z" fill="#000000" />
<path d="M676 827Q676 843 660 843Q644 843 644 827V681Q644 665 660 665Q676 665 676 681Z" fill="#000000" />
<path d="M785 827Q785 843 769 843Q753 843 753 827V681Q753 665 769 665Q785 665 785 681Z" fill="#000000" />
<path d="M895 827Q895 843 879 843Q863 843 863 827V681Q863 665 879 665Q895 665 895 681Z" fill="#000000" />
</g></svg>