<svg xmlns="http://www.w3.org/2000/svg" viewBox="0 0 2048 2048">
<g transform="matrix(1 0 0 -1 0 2048)">
<path d="M865 -38Q895 -30 914.5 -5.5Q934 19 934 51V617Q934 660 903.5 690.0Q873 720 831 720H489Q447 720 416.5 690.0Q386 660 386 617V51Q386 19 405.5 -5.5Q425 -30 455 -38L495 -48Q660 -89 825 -48Z" fill="#92d3f5" />
<path d="M845 55Q861 54 873 66Q885 77 885 93V618Q885 637 871.5 650.0Q858 663 839 664H485Q466 663 452.5 650.0Q439 637 440 618V93Q439 77 451 66Q463 54 479 55L647 65Q662 65 677 65Z" fill="#61b2e4" />
<path d="M663 848Q726 847 782 818L756 671Q743 645 717.5 629.0Q692 613 663 613Q633 613 608.0 629.0Q583 645 570 671L543 818Q599 847 663 848Z" fill="#92d3f5" />
<path d="M685.6713256835938 8.05712890625Q685.6713256835938 12.2091064453125 684.1022644042969 15.8782958984375Q682.533203125 19.5474853515625 679.7571716308594 22.323516845703125Q676.9811401367188 25.09954833984375 673.3360900878906 26.668609619140625Q669.6910400390625 28.2376708984375 665.4907836914062 28.2376708984375Q661.3388061523438 28.2376708984375 657.6696166992188 26.668609619140625Q654.0004272460938 25.09954833984375 651.2243957519531 22.323516845703125Q648.4483642578125 19.5474853515625 646.8793029785156 15.8782958984375Q645.3102416992188 12.2091064453125 645.3102416992188 8.05712890625Q645.3102416992188 3.85687255859375 646.8793029785156 0.211822509765625Q648.4483642578125 -3.4332275390625 651.2243957519531 -6.209259033203125Q654.0004272460938 -8.98529052734375 657.6696166992188 -10.554351806640625Q661.3388061523438 -12.1234130859375 665.4907836914062 -12.1234130859375Q669.6910400390625 -12.1234130859375 673.3360900878906 -10.554351806640625Q676.9811401367188 -8.98529052734375 679.7571716308594 -6.209259033203125Q682.533203125 -3.4332275390625 684.1022644042969 0.211822509765625Q685.6713256835938 3.85687255859375 685.6713256835938 8.05712890625Z" fill="#ffffff" />
<path d="M746 664V627H829Q839 627 846 620Q853 613 853 602V109Q853 101 848 96Q843 91 835 92L677 100Q662 101 647 100L489 92Q482 91 476 96Q471 101 471 109V602Q471 627 496 627H579V664H495Q434 663 435 602V109Q434 86 451 70Q468 54 491 55L649 64Q662 65 675 64L834 55Q857 54 873 70Q890 86 890 109V602Q890 627 872 646Q854 664 829 664Z" fill="#000000" />
<path d="M695 8Q695 20 686 29Q678 37 666 37Q653 37 645 29Q636 20 636 8Q636 -4 645 -13Q653 -21 666 -21Q678 -21 686 -13Q695 -4 695 8ZM677 8Q677 3 673 0Q670 -3 666 -3Q655 -3 655 8Q655 19 666 19Q677 19 677 8Z" fill="#000000" />
<path d="M663 867Q595 866 535 834Q523 828 525 815L552 668Q552 666 553 663Q587 595 663 595Q739 595 772 663Q773 666 774 668L800 815Q803 828 791 834Q731 866 663 867Q663 867 663 867ZM663 830Q715 829 762 808L738 677Q715 632 663 632Q611 632 587 677L564 808Q611 829 663 830Z" fill="#000000" />
<path d="M764 739Q746 739 746 720Q746 702 764 702H831Q866 702 891 677Q916 652 916 617V51Q916 -6 860 -20L820 -30Q660 -70 500 -30L460 -20Q404 -6 404 51V617Q404 652 429 677Q454 702 489 702H561Q579 702 579 720Q579 739 561 739H489Q439 739 403 703Q368 667 368 617V51Q368 -35 451 -56L491 -66Q660 -108 829 -66L869 -56Q952 -35 952 51V617Q952 667 917 703Q881 739 831 739Z" fill="#000000" />
</g></svg>