<svg xmlns="http://www.w3.org/2000/svg" viewBox="0 0 2048 2048">
<g transform="matrix(1 0 0 -1 0 2048)">
<path d="M962 502Q964 529 952.0 552.5Q940 576 917 590Q901 600 894 616Q885 648 858.0 666.5Q831 685 798 682Q782 682 771 695Q752 721 726.5 726.5Q701 732 675 713Q669 706 659 706Q650 707 643 713Q621 732 592 726Q564 721 550 695Q540 675 519 681Q489 685 463.0 668.0Q437 651 428 622Q422 605 407 594Q335 548 366 471Q371 463 369.0 454.0Q367 445 359 439Q325 411 326 367Q327 323 362 297Q369 290 371.5 284.5Q374 279 369 268Q349 229 359.5 195.0Q370 161 407 138Q421 129 427 113Q436 82 463.0 64.5Q490 47 522 51Q538 50 548 38Q567 11 592.5 6.0Q618 1 645 21Q651 27 659.5 27.0Q668 27 674 21Q730 -19 771 38Q781 50 797 51Q829 47 856.5 65.0Q884 83 893 114Q900 130 914 139Q948 161 959.0 194.0Q970 227 953 263Q946 271 948 282Q950 293 959 298Q984 321 991.5 351.0Q999 381 982 407Q966 432 955.5 454.5Q945 477 962 502Z" fill="#ffa7c0" />
<path d="M977 492 980 496V501Q985 570 926 606Q916 612 911 623Q887 708 798 700Q790 701 785 706Q733 777 665 728L663 727L662 726Q661 725 659 725Q657 725 656 726L655 727V728Q625 751 589 744Q552 737 534 704H533V703Q530 697 524 699H523H522Q436 710 410 628Q406 616 396 609Q312 555 349 464V463L350 462Q353 457 348 454L347 453Q307 420 308 367Q309 315 350 283Q354 279 352 276Q304 181 397 123Q406 117 410 107Q435 22 522 32Q529 32 533 27Q586 -45 656 6L657 7L658 8Q659 9 661 8L662 7L663 6Q734 -44 786 27Q790 32 796 32Q884 23 910 108Q915 118 924 124Q1012 180 969 271L968 272L967 274Q966 276 966 279Q967 281 969 283L970 284L971 285Q1043 348 998 417Q997 419 994 422Q963 470 977 492ZM944 508Q921 467 964 402Q966 399 967 397Q995 355 948 313Q933 303 930 285Q927 268 937 253Q964 193 904 155Q885 142 876 121V120V119Q858 62 799 69H797H796Q772 68 757 49H756Q726 7 685 35Q659 59 633 35Q593 7 562 49V50Q546 68 522 69H521H519Q461 61 445 118V119H444Q436 141 417 154Q352 194 385 260Q400 288 374 311H373Q345 333 345 368Q344 402 370 425Q401 447 382 479Q358 541 417 579Q437 593 445 616V617Q462 669 516 663Q551 655 566 687Q576 704 596 708Q615 712 631 700Q642 688 659 688Q675 688 687 699Q725 726 756 684L757 683Q773 664 798 663H799H800Q860 669 876 612V610L877 609Q887 587 908 575Q945 551 944 508Z" fill="#000000" />
<path d="M678 707H642V27H678Z" fill="#000000" />
<path d="M549 507Q536 494 549 481Q562 468 575 481Q590 496 607 500Q617 503 624 499Q635 491 642 464Q645 456 650 452Q656 449 665 451Q674 454 677 459Q680 465 678 474Q667 514 644 529Q623 543 597 536Q571 528 549 507Z" fill="#000000" />
<path d="M745 481Q758 468 771 481Q784 494 771 507Q749 528 723 536Q697 543 676 529Q653 514 642 474Q640 465 643 459Q646 454 655 451Q664 449 670 452Q675 456 678 464Q685 491 696 499Q703 503 713 500Q730 496 745 481Z" fill="#000000" />
<path d="M793 557Q784 541 800 532Q808 528 814 530Q821 532 825 540Q840 566 839 593Q839 621 819 637Q798 655 757 653Q748 653 743 648Q739 644 739 634Q740 616 758 617Q785 618 796 609Q802 604 802 593Q803 576 793 557Z" fill="#000000" />
<path d="M771 246Q784 259 771 271Q758 284 745 271Q730 257 713 252Q703 249 696 254Q685 261 678 288Q673 306 655 301Q638 296 642 279Q653 238 676 223Q697 209 723 217Q749 224 771 246Z" fill="#000000" />
<path d="M762.8739624023438 388.15081787109375Q749.7565307617188 375.27301025390625 762.6435546875 363.1553955078125Q775.5213623046875 350.0379638671875 788.6387939453125 362.915771484375Q803.7650756835938 376.77496337890625 820.8080444335938 381.61737060546875Q830.8338623046875 384.524658203125 837.7864990234375 379.4610595703125Q848.719970703125 372.3609619140625 855.4698486328125 345.3013916015625Q860.3030395507812 327.25860595703125 878.3458251953125 332.091796875Q895.3887939453125 336.9342041015625 891.5462036132812 353.96795654296875Q880.9260864257812 395.06182861328125 858.0685424804688 410.27105712890625Q837.201416015625 424.4620361328125 811.1324462890625 416.703125Q785.0726928710938 409.94403076171875 762.8739624023438 388.15081787109375Z" fill="#000000" />
<path d="M575 271Q562 284 549 271Q536 259 549 246Q571 224 597 217Q623 209 644 223Q667 238 678 279Q682 296 665 301Q647 306 642 288Q635 261 624 254Q617 249 607 252Q590 257 575 271Z" fill="#000000" />
<path d="M904 578Q910 571 916 571Q923 571 930 577Q943 590 930 603Q901 634 818 627Q800 626 802 608Q802 598 807 594Q812 590 821 591Q887 596 904 578Z" fill="#000000" />
<path d="M824.5870971679688 198.24517822265625Q817.3174438476562 215.12994384765625 801.3616943359375 207.490478515625Q784.4769287109375 200.2208251953125 791.74658203125 183.3360595703125Q799.2056274414062 164.22344970703125 797.5639038085938 146.58111572265625Q796.65283203125 136.1815185546875 789.4190673828125 131.5274658203125Q778.8480224609375 123.89697265625 751.1759033203125 127.3787841796875Q732.6045532226562 129.39031982421875 730.593017578125 110.8189697265625Q728.9512939453125 93.1766357421875 746.2238159179688 90.60589599609375Q788.3814086914062 85.66278076171875 810.8223266601562 101.48297119140625Q831.5946044921875 115.81494140625 833.777587890625 142.9278564453125Q836.8895874023438 169.67095947265625 824.5870971679688 198.24517822265625Z" fill="#000000" />
<path d="M928 127Q942 138 931 152Q919 167 905 155Q882 137 817 148Q798 151 795 133Q792 115 810 112Q892 98 928 127Z" fill="#000000" />
<path d="M499 540Q508 524 524 532Q540 541 531 557Q521 576 521 593Q522 604 528 609Q538 618 566 617Q575 616 580 621Q585 625 585 634Q585 653 567 653Q526 655 504 637Q485 621 485 593Q484 566 499 540Z" fill="#000000" />
<path d="M522 363Q529 356 535 356Q542 356 548 363Q561 376 548 389Q527 410 501 417Q474 424 453 410Q430 395 420 355Q416 337 433 332Q442 330 448 333Q453 337 456 346Q463 372 474 380Q481 385 491 382Q508 377 522 363Z" fill="#000000" />
<path d="M394 607Q380 595 392 581Q405 567 418 580Q436 596 502 591Q521 589 522 608Q524 626 505 627Q423 634 394 607Z" fill="#000000" />
<path d="M528 184Q535 200 519 208Q510 211 504 209Q498 207 495 198Q482 170 485 144Q488 116 509 102Q531 86 573 91Q591 93 589 112Q588 121 582 125Q577 129 568 128Q541 124 530 132Q523 137 522 148Q520 165 528 184Z" fill="#000000" />
<path d="M414 155Q407 161 401 160Q394 159 389 152Q377 138 391 127Q427 98 509 112Q527 115 524 133Q521 151 503 148Q438 137 414 155Z" fill="#000000" />
</g></svg>