<svg xmlns="http://www.w3.org/2000/svg" viewBox="0 0 2048 2048">
<g transform="matrix(1 0 0 -1 0 2048)">
<path d="M443 94Q431 48 441.5 5.5Q452 -37 480.0 -67.5Q508 -98 550.0 -109.0Q592 -120 644.0 -104.5Q696 -89 754.0 -39.5Q812 10 871.5 101.0Q931 192 988 332Q1033 445 1034.0 531.0Q1035 617 1005.0 676.5Q975 736 924.5 769.0Q874 802 815.0 809.5Q756 817 699.5 798.5Q643 780 599.0 736.5Q555 693 537 624Z" fill="#d0cfce" />
<path d="M915 333Q952 431 950.5 504.5Q949 578 921.0 626.5Q893 675 850.5 695.5Q808 716 762.0 707.5Q716 699 677.5 659.5Q639 620 621 547Q628 573 656.0 594.5Q684 616 723.5 626.0Q763 636 803.0 628.5Q843 621 874.5 589.5Q906 558 918.5 495.5Q931 433 915 333Z" fill="#9b9b9a" />
<path d="M693 364Q657 375 635.0 364.5Q613 354 607.0 333.5Q601 313 612 293Q624 270 620.5 255.0Q617 240 602.5 227.5Q588 215 568.0 199.5Q548 184 527 161Q514 146 517.0 128.5Q520 111 533.0 98.0Q546 85 564.0 82.0Q582 79 599 93Q616 111 625.5 122.0Q635 133 643.5 140.0Q652 147 666 153Q687 164 707.0 165.5Q727 167 746 175Q787 193 797.5 225.0Q808 257 796.5 297.5Q785 338 759.5 384.5Q734 431 703 479Z" fill="#9b9b9a" />
<path d="M538 631Q534 614 551 609Q569 604 574 622Q602 729 696 771Q784 811 875 774Q970 734 1002 631Q1041 508 971 334Q797 -92 601 -103Q534 -107 496 -51Q458 5 477 78Q482 96 464 101Q455 103 450 100Q444 97 442 88Q418 -2 466 -72Q515 -144 603 -140Q822 -128 1005 320Q1080 506 1037 642Q1000 762 888 808Q784 851 681 805Q571 755 538 631Z" fill="#000000" />
<path d="M736 483Q726 498 711 489Q703 484 702 477Q700 471 705 463Q775 352 787 291Q801 220 739 192Q729 188 708 185Q675 179 658 170Q633 158 604 126Q594 115 587 107Q566 91 546 111Q526 132 540 149Q557 167 589 193Q658 247 628 302Q614 327 625 345Q635 362 671 352Q689 347 694 364Q699 382 681 387Q618 405 593 364Q572 328 596 284Q611 257 567 222Q532 194 513 173Q513 173 513 173Q476 130 520 86Q563 41 611 79Q612 80 613 81Q620 89 631 102Q655 128 674 137Q674 137 674 137Q687 144 714 148Q740 153 753 158Q753 158 754 159Q842 198 823 298Q810 366 736 483Z" fill="#000000" />
<path d="M603 552Q599 534 617 530Q626 528 631 531Q637 534 639 543Q663 639 730 678Q788 712 846 685Q907 657 923 578Q943 483 884 351Q876 335 893 327Q910 320 917 336Q981 478 959 586Q940 682 862 718Q787 753 711 710Q631 663 603 552Z" fill="#000000" />
<path d="M451 542Q464 530 477 543Q490 556 477 569L436 608L462 620Q478 627 470 644Q469 647 466 649L392 721Q379 734 366 721Q353 708 367 695L422 641L397 630Q394 628 392 626Q379 613 392 600Z" fill="#000000" />
<path d="M212 291Q194 287 198 269Q200 260 206 257Q211 253 220 255L275 268L271 241Q270 232 274 227Q278 221 287 220Q290 220 294 221L394 244Q412 249 408 266Q406 275 401 279Q395 282 386 280L311 262L315 290Q315 293 314 296Q312 305 307 309Q301 312 292 310Z" fill="#000000" />
<path d="M392 431Q410 426 415 444Q420 462 402 467L323 489Q305 494 300 476Q299 473 299 470L302 442L227 463Q210 468 205 450Q202 441 206 435Q209 430 218 427L317 399Q321 399 324 399Q342 400 341 419L338 446Z" fill="#000000" />
<path d="M451 542Q464 530 477 543Q490 556 477 569L436 608L462 620Q478 627 470 644Q469 647 466 649L392 721Q379 734 366 721Q353 708 367 695L422 641L397 630Q394 628 392 626Q379 613 392 600Z" fill="#d22f27" />
<path d="M212 291Q194 287 198 269Q200 260 206 257Q211 253 220 255L275 268L271 241Q270 232 274 227Q278 221 287 220Q290 220 294 221L394 244Q412 249 408 266Q406 275 401 279Q395 282 386 280L311 262L315 290Q315 293 314 296Q312 305 307 309Q301 312 292 310Z" fill="#d22f27" />
<path d="M392 431Q410 426 415 444Q420 462 402 467L323 489Q305 494 300 476Q299 473 299 470L302 442L227 463Q210 468 205 450Q202 441 206 435Q209 430 218 427L317 399Q321 399 324 399Q342 400 341 419L338 446Z" fill="#d22f27" />
</g></svg>