<svg xmlns="http://www.w3.org/2000/svg" viewBox="0 0 2048 2048">
<g transform="matrix(1 0 0 -1 0 2048)">
<path d="M1080 884 1016 897Q888 921 759 909Q739 909 728 892Q714 862 701.5 823.5Q689 785 660 726Q646 700 635.0 682.5Q624 665 624 639Q624 601 642 568Q658 533 676.0 478.5Q694 424 708.0 361.0Q722 298 729.0 235.0Q736 172 730 119Q730 112 727 107Q701 62 624 25Q599 13 564.0 0.5Q529 -12 500 -26Q484 -33 482 -50Q480 -63 488.0 -73.5Q496 -84 509 -86Q576 -94 642 -80Q695 -67 736.5 -67.5Q778 -68 809.0 -73.5Q840 -79 859.5 -82.5Q879 -86 888 -80Q907 -46 905.0 -17.0Q903 12 894.5 36.0Q886 60 888 77Q902 253 888 428Q886 454 879.5 492.0Q873 530 867.5 567.5Q862 605 861 630Q861 643 878.5 661.5Q896 680 923.0 703.5Q950 727 980.5 754.5Q1011 782 1038.0 814.5Q1065 847 1080 884Z" fill="#d0cfce" />
<path d="M1097 877Q1098 879 1098 880Q1102 898 1084 902L1019 915Q889 940 758 928Q728 927 713 901Q712 900 712 900Q704 883 690 846Q667 781 643 734Q639 726 630 710Q606 669 606 639Q606 597 626 560Q663 478 690 357Q722 214 712 121Q712 118 711 116Q688 76 617 41Q600 34 558 17Q512 0 492 -9Q468 -21 464 -47Q461 -68 473 -84Q486 -101 507 -104Q577 -112 646 -98Q646 -98 646 -98Q732 -77 837 -97Q884 -105 898 -95Q901 -93 903 -90Q934 -36 912 44Q905 68 906 76Q920 253 906 429Q904 453 893 521Q880 604 880 630Q879 641 944 698Q1066 804 1097 877ZM1053 871Q1018 811 920 725Q842 657 843 630Q843 601 857 515Q868 449 869 427Q884 253 869 79Q868 65 877 34Q893 -27 875 -66Q868 -65 844 -60Q732 -39 638 -63Q575 -75 511 -67Q506 -67 503 -62Q499 -58 500 -52Q501 -45 508 -42Q526 -34 571 -17Q615 0 632 8Q714 48 743 98Q748 107 749 117Q759 216 726 365Q698 490 659 576Q658 577 658 577Q642 606 643 638Q643 659 662 692Q671 708 676 718Q700 767 725 834Q738 868 745 883Q749 891 759 891Q760 891 760 891Q887 903 1012 879Z" fill="#d0cfce" />
<path d="M862 541Q882 541 895.5 527.0Q909 513 909 494V-39Q909 -71 886.5 -93.5Q864 -116 832 -116H636Q571 -116 517.5 -109.0Q464 -102 432.0 -79.0Q400 -56 400 -8Q400 33 418.5 55.0Q437 77 469.5 86.5Q502 96 545.0 98.0Q588 100 636 100V494Q636 513 650.0 527.0Q664 541 683 541Z" fill="#ffffff" />
<path d="M481 90Q542 106 605 100Q601 70 610.5 39.5Q620 9 637.0 -18.5Q654 -46 671.5 -68.0Q689 -90 701.0 -102.5Q713 -115 713 -115H594Q543 -80 513.0 -26.0Q483 28 481 90Z" fill="#ffffff" />
<path d="M636 114V244L721 218L909 162V18Z" fill="#ffffff" />
<path d="M909 319V460L636 244L773 203Z" fill="#ffffff" />
<path d="M773 541H683Q658 541 644 519L773 352L861 422Z" fill="#ffffff" />
<path d="M659 -52 713 -116H814Q853 -116 872.5 -104.5Q892 -93 899.5 -77.5Q907 -62 908.0 -50.5Q909 -39 909 -39V18Z" fill="#ffffff" />
<path d="M1012 879Q1021 878 1027 881Q1032 885 1034 894Q1037 912 1019 915Q889 940 758 927Q728 927 713 901Q712 900 712 900Q704 883 690 846Q667 781 643 734Q639 726 630 710Q606 669 606 639Q606 597 626 560Q633 544 639 529Q641 514 657 514Q675 514 675 533Q675 536 674 539Q667 557 659 576Q658 577 658 577Q642 606 643 639Q643 659 662 692Q671 708 676 718Q700 767 725 834Q737 868 744 883Q749 891 759 891Q760 891 760 891Q887 903 1012 879Z" fill="#000000" />
<path d="M659 476Q659 458 677 458Q695 458 695 476V477Q695 495 677 495Q659 495 659 477Z" fill="#000000" />
<path d="M678 -92Q694 -91 695 -74Q696 -56 678 -55Q674 -55 670 -56Q653 -61 658 -78Q662 -95 678 -92Z" fill="#000000" />
<path d="M854 536Q856 527 861 524Q866 520 875 522Q893 525 890 543Q882 586 880 630Q880 642 944 698Q1066 804 1097 877Q1104 894 1088 901Q1079 904 1073 902Q1067 900 1063 891Q1035 826 920 725Q842 657 843 629Q843 629 843 629Q846 582 854 536Z" fill="#000000" />
<path d="M918 -80Q930 -67 917 -54Q904 -42 891 -55Q889 -57 887 -59Q878 -71 890 -82Q903 -95 915 -82Q916 -82 916 -82Q917 -81 918 -80Z" fill="#000000" />
<path d="M744 680Q750 687 749 693Q748 700 741 705Q727 717 715 703Q667 644 696 594Q705 579 720 570Q736 561 745 577Q750 584 749 591Q747 597 739 602Q732 606 728 613Q712 640 744 680Z" fill="#000000" />
<path d="M862 559H683Q656 559 637 540Q618 521 618 494V118Q506 117 464 104Q382 78 382 -8Q382 -87 463 -115Q517 -134 636 -134H832Q872 -134 899 -106Q927 -79 927 -39V494Q927 559 862 559ZM862 522Q890 522 890 494V-39Q890 -97 832 -97H636Q523 -97 475 -81Q418 -61 418 -8Q418 51 475 69Q515 82 636 82H655V494Q655 506 663 514Q671 522 683 522Z" fill="#000000" />
<path d="M462 89Q468 -52 584 -130Q589 -133 594 -133H713Q731 -133 731 -115Q731 -107 725 -102Q611 8 623 97Q624 107 620 112Q617 117 607 118Q607 118 607 118Q540 124 476 107Q462 104 462 89ZM500 75Q542 85 585 83Q584 -2 669 -97H600Q510 -33 500 75Z" fill="#000000" />
<path d="M631 82 903 0Q912 -3 918 0Q924 4 926 12Q927 15 927 18V162Q927 176 914 180L727 236L642 262Q624 267 619 249Q618 247 618 244V100Q618 86 631 82ZM655 114V219L716 201L890 148V42Z" fill="#000000" />
<path d="M921 306Q927 311 927 319V460Q927 467 923 472Q912 486 897 475L625 258Q621 255 619 249Q614 232 631 226L767 186Q777 183 785 189ZM890 328 768 224 675 251 890 422Z" fill="#000000" />
<path d="M787 552Q782 559 773 559H683Q648 559 628 529Q621 518 629 508L758 341Q758 341 758 341Q764 334 770 333Q777 332 784 338L873 408Q887 419 876 433ZM763 522 836 426 776 378 668 518Q674 522 683 522Z" fill="#000000" />
<path d="M654 -34Q650 -35 647 -38Q633 -50 645 -64L699 -127Q704 -134 713 -134H814Q889 -134 916 -87Q929 -63 927 -39V18Q927 20 926 23Q924 31 918 35Q913 38 904 35ZM691 -62 890 -7V-39Q890 -40 891 -41Q892 -54 884 -68Q867 -97 814 -97H721Z" fill="#000000" />
<path d="M459 144Q468 129 484 138Q492 143 493 149Q495 155 490 163L461 211L489 216Q507 220 503 238Q503 241 501 244L448 333Q438 348 423 339Q407 329 416 314L456 248L429 243Q426 242 423 240Q407 231 416 215Z" fill="#000000" />
<path d="M175 -78Q157 -82 161 -100Q163 -109 169 -113Q174 -116 183 -114L238 -101L234 -129Q232 -147 250 -149Q253 -150 257 -149L357 -125Q375 -121 371 -103Q369 -94 363 -91Q358 -87 349 -89L274 -107L277 -80Q278 -76 277 -73Q275 -64 270 -61Q264 -57 255 -59Z" fill="#000000" />
<path d="M348 62Q366 57 371 74Q376 92 358 97L279 119Q270 122 264 119Q259 115 256 107Q255 103 256 100L258 72L184 93Q175 96 169 92Q164 89 161 80Q156 63 174 58L274 30Q277 29 280 29Q289 30 294 35Q298 40 297 49L295 77Z" fill="#000000" />
<path d="M459 144Q468 129 484 138Q492 143 493 149Q495 155 490 163L461 211L489 216Q507 220 503 238Q503 241 501 244L448 333Q438 348 423 339Q407 329 416 314L456 248L429 243Q426 242 423 240Q407 231 416 215Z" fill="#d22f27" />
<path d="M175 -78Q157 -82 161 -100Q163 -109 169 -113Q174 -116 183 -114L238 -101L234 -129Q232 -147 250 -149Q253 -150 257 -149L357 -125Q375 -121 371 -103Q369 -94 363 -91Q358 -87 349 -89L274 -107L277 -80Q278 -76 277 -73Q275 -64 270 -61Q264 -57 255 -59Z" fill="#d22f27" />
<path d="M348 62Q366 57 371 74Q376 92 358 97L279 119Q270 122 264 119Q259 115 256 107Q255 103 256 100L258 72L184 93Q175 96 169 92Q164 89 161 80Q156 63 174 58L274 30Q277 29 280 29Q289 30 294 35Q298 40 297 49L295 77Z" fill="#d22f27" />
</g></svg>