<svg xmlns="http://www.w3.org/2000/svg" viewBox="0 0 2048 2048">
<g transform="matrix(1 0 0 -1 0 2048)">
<path d="M484 510Q544 476 594.5 469.5Q645 463 691.0 472.0Q737 481 782 495Q831 509 859.5 523.0Q888 537 888 537L887 263Q836 213 780.5 192.5Q725 172 672.5 171.5Q620 171 578.0 180.0Q536 189 510.5 198.5Q485 208 485 208Z" fill="#ffffff" />
<path d="M806 566Q806 585 784.5 601.5Q763 618 725 628Q688 638 644.5 638.0Q601 638 563 628Q525 618 503.5 601.5Q482 585 483 566Q482 546 503.5 529.5Q525 513 563 503Q601 493 644.5 493.0Q688 493 725 503Q763 513 784.5 529.5Q806 546 806 566Z" fill="#ffffff" />
<path d="M682.71826171875 571.390869140625Q682.71826171875 576.437255859375 679.4833984375 580.8043212890625Q676.24853515625 585.17138671875 670.5875244140625 588.5032958984375Q664.926513671875 591.835205078125 657.4539794921875 593.7437744140625Q649.9814453125 595.65234375 641.376708984375 595.65234375Q632.836669921875 595.65234375 625.3641357421875 593.7437744140625Q617.8916015625 591.835205078125 612.1982421875 588.5032958984375Q606.5048828125 585.17138671875 603.3023681640625 580.8043212890625Q600.099853515625 576.437255859375 600.099853515625 571.390869140625Q600.099853515625 566.4091796875 603.3023681640625 562.009765625Q606.5048828125 557.6103515625 612.1982421875 554.2784423828125Q617.8916015625 550.946533203125 625.3641357421875 549.0703125Q632.836669921875 547.194091796875 641.376708984375 547.194091796875Q649.9814453125 547.194091796875 657.4539794921875 549.0703125Q664.926513671875 550.946533203125 670.5875244140625 554.2784423828125Q676.24853515625 557.6103515625 679.4833984375 562.009765625Q682.71826171875 566.4091796875 682.71826171875 571.390869140625Z" fill="#ffffff" />
<path d="M839 566Q839 613 777 644Q722 671 645 671Q568 671 512 644Q451 613 451 566Q451 519 512 489Q568 462 645 462Q722 462 777 489Q839 519 839 566ZM802 566Q802 542 761 522Q713 499 645 499Q576 499 529 522Q487 542 487 566Q487 591 529 611Q576 634 645 634Q713 634 761 611Q802 591 802 566Z" fill="#000000" />
<path d="M487 218H451Q451 180 515 159Q569 141 645 141Q770 141 846 190L827 221Q759 178 645 178Q575 178 526 194Q487 207 487 218Z" fill="#000000" />
<path d="M487 566H451V218H487Z" fill="#000000" />
<path d="M801.708984375 532.41552734375H838.245849609375V566.28564453125H801.708984375Z" fill="#000000" />
<path d="M767 525Q759 522 756 517Q753 511 756 502Q761 485 779 490Q847 513 885 533V265Q832 216 763 191Q746 185 752 168Q759 151 776 157Q855 186 916 244Q922 249 922 257V567Q922 573 918 578Q906 592 892 581Q862 556 767 525Z" fill="#000000" />
<path d="M701 567Q701 610 641 610Q581 610 581 567Q581 523 641 523Q663 523 680 533Q701 546 701 567ZM664 567Q664 560 641 560Q629 560 621 564Q618 566 618 567Q618 573 641 573Q664 573 664 567Z" fill="#000000" />
<path d="M629 -37Q647 -38 648 -20Q649 -2 631 -1Q466 9 357 133Q248 256 258 420Q266 542 341 639Q415 736 532 774Q540 777 543 783Q546 788 544 797Q538 815 520 809Q393 767 312 662Q230 556 222 423Q211 243 330 108Q449 -26 629 -37Z" fill="#000000" />
<path d="M533 724Q531 723 528 722Q519 720 517 729L494 841Q494 843 494 846Q497 855 506 852L614 816Q617 815 618 813Q625 806 618 800Z" fill="#000000" />
<path d="M691 829Q682 830 677 826Q673 821 672 812Q671 794 689 793Q854 783 963 659Q1072 536 1062 372Q1054 250 979 153Q905 56 788 18Q780 15 777 9Q774 4 776 -5Q782 -22 800 -17Q927 25 1008 130Q1090 236 1098 370Q1109 549 990 684Q871 818 691 829Z" fill="#000000" />
<path d="M787 68Q789 70 792 70Q801 72 803 63L826 -49Q826 -51 826 -53Q823 -62 814 -59L706 -24Q703 -23 702 -21Q695 -14 702 -8Z" fill="#000000" />
</g></svg>