<svg xmlns="http://www.w3.org/2000/svg" viewBox="0 0 2048 2048">
<g transform="matrix(1 0 0 -1 0 2048)">
<path d="M294 -79V-46Q295 -42 295 -37Q294 -17 304.0 0.5Q314 18 333 27Q336 29 339.5 31.0Q343 33 346 35Q412 70 484 93Q501 99 517.5 105.0Q534 111 551 117Q573 123 573 147Q573 161 573.0 175.5Q573 190 572 204Q571 217 564 227Q537 261 531 304Q528 324 520 341Q506 369 500 400Q499 414 500 428Q501 436 502.0 444.5Q503 453 503 462Q503 477 500 491Q495 526 506.5 559.0Q518 592 544 616Q581 652 633 659Q647 661 662 662Q663 662 664 662Q665 662 666 662Q680 661 694 659Q746 652 783 616Q809 592 820.5 559.0Q832 526 827 491Q824 477 824 462Q824 453 825.5 444.5Q827 436 827 428Q829 414 827 400Q822 369 807 341Q799 324 797 304Q790 261 763 227Q756 217 755 204Q754 190 754.0 175.5Q754 161 755 147Q754 123 776 117Q793 111 810.0 105.0Q827 99 843 93Q915 70 981 35Q985 33 988.0 31.0Q991 29 995 27Q1013 18 1023.0 0.5Q1033 -17 1032 -37Q1032 -42 1034 -46V-79Z" fill="#d0cfce" />
<path d="M568 634Q561 630 561 621V566Q561 559 566 555Q572 551 578 553Q664 576 749 552Q755 550 761 554Q766 558 766 565V622Q766 630 760 634Q720 658 681.0 658.5Q642 659 611.5 649.5Q581 640 568 634Z" fill="#d22f27" />
<path d="M1015 -79Q1015 -97 1034 -97Q1052 -97 1052 -79V-46Q1052 -43 1051 -40Q1050 -39 1050 -37Q1054 19 1003 43Q1001 44 998 46Q993 50 990 51Q990 51 990 51Q922 87 849 110Q842 113 827 118Q797 129 782 134Q782 134 781 134Q773 137 773 146Q773 146 773 147Q773 150 773 156Q772 188 773 203Q774 210 778 216Q808 254 815 301Q815 302 815 302Q817 318 824 333Q839 363 845 396Q845 397 845 397Q847 413 845 429Q845 434 844 444Q842 456 842 462Q843 475 845 488Q845 488 845 489Q858 572 796 629Q754 670 697 677Q684 679 670 680Q668 681 666 681Q665 681 664 681Q662 681 661 681Q659 681 657 680Q644 679 630 677Q573 670 531 629Q469 572 482 488Q484 475 485 462Q485 456 483 444Q482 435 482 429Q480 413 482 397Q482 397 482 396Q488 363 504 333Q510 318 512 302Q512 302 512 301Q520 254 549 215Q553 210 554 203Q555 189 554 159Q554 151 554 147Q554 146 554 146Q555 137 546 134Q545 134 545 134Q530 129 500 118Q485 113 478 110Q405 87 338 51Q337 51 337 51Q334 50 330 46Q326 44 324 43Q274 19 277 -37Q277 -39 276 -40Q275 -43 275 -46V-79Q275 -97 294 -97Q312 -97 312 -79V-49Q313 -44 314 -38Q314 -37 314 -36Q311 -4 340 10Q341 11 341 11Q344 12 349 15Q353 18 355 19Q420 53 489 76Q490 76 490 76Q497 78 512 84Q542 94 557 99Q592 110 591 147Q591 151 591 159Q592 190 591 205Q589 223 578 238Q555 268 549 306Q546 329 537 349Q537 350 536 350Q523 375 518 402Q517 414 518 425Q518 426 519 426Q519 431 520 440Q521 454 522 462Q522 462 522 463Q521 479 518 494Q508 558 556 602Q556 602 557 603Q590 635 635 641Q636 641 636 641Q649 643 663 644Q664 644 665 644Q678 643 691 641Q691 641 692 641Q738 635 771 603Q771 602 771 602Q819 558 809 494Q806 479 806 462Q806 454 807 440Q809 431 809 426Q809 426 809 425Q810 414 809 402Q804 375 791 350Q791 350 790 349Q781 329 778 306Q773 268 749 238Q738 223 737 205Q736 189 736 156Q736 150 736 147Q735 110 770 99Q785 94 815 84Q830 78 837 76Q837 76 838 76Q907 53 973 19Q974 18 978 15Q983 12 986 11Q986 11 987 10Q1016 -4 1014 -36Q1014 -36 1014 -37Q1014 -43 1015 -49Z" fill="#000000" />
<path d="M560 650Q542 641 542 621V566Q542 550 555 540Q568 531 583 535Q663 557 744 534Q759 530 772 540Q785 549 785 565V622Q785 640 769 650Q675 707 560 650ZM579 619Q673 664 748 620V571Q664 594 579 572Z" fill="#000000" />
<path d="M779 742Q775 734 777 728Q779 722 787 718Q804 710 812 726L837 776L856 756Q868 743 882 755Q884 758 886 761L931 854Q935 862 933 868Q931 874 923 878Q906 886 898 870L864 801L845 821Q843 823 840 825Q823 833 815 816Z" fill="#000000" />
<path d="M466 892Q461 900 455 902Q449 903 441 898Q425 889 435 873L464 825L437 820Q419 817 422 799Q423 795 424 793L478 704Q488 688 503 698Q519 707 509 723L469 789L497 794Q500 795 503 796Q518 806 509 822Z" fill="#000000" />
<path d="M655 764Q656 755 660 751Q665 746 674 747Q693 747 692 766L688 848Q688 857 683 862Q678 866 669 866Q666 865 663 864L637 853L634 930Q634 940 629 944Q624 948 615 948Q597 947 597 929L602 825Q602 822 603 819Q610 802 627 809L653 820Z" fill="#000000" />
<path d="M779 742Q775 734 777 728Q779 722 787 718Q804 710 812 726L837 776L856 756Q868 743 882 755Q884 758 886 761L931 854Q935 862 933 868Q931 874 923 878Q906 886 898 870L864 801L845 821Q843 823 840 825Q823 833 815 816Z" fill="#d22f27" />
<path d="M466 892Q461 900 455 902Q449 903 441 898Q425 889 435 873L464 825L437 820Q419 817 422 799Q423 795 424 793L478 704Q488 688 503 698Q519 707 509 723L469 789L497 794Q500 795 503 796Q518 806 509 822Z" fill="#d22f27" />
<path d="M655 764Q656 755 660 751Q665 746 674 747Q693 747 692 766L688 848Q688 857 683 862Q678 866 669 866Q666 865 663 864L637 853L634 930Q634 940 629 944Q624 948 615 948Q597 947 597 929L602 825Q602 822 603 819Q610 802 627 809L653 820Z" fill="#d22f27" />
</g></svg>