<svg xmlns="http://www.w3.org/2000/svg" viewBox="0 0 2048 2048">
<g transform="matrix(1 0 0 -1 0 2048)">
<path d="M699 312Q719 296 720 271Q719 251 705.5 239.0Q692 227 683 221Q654 202 619 204Q575 165 540 119L536 113L446 -34L442 -36Q436 -53 442 -71Q450 -98 442 -126Q441 -129 435.5 -141.0Q430 -153 419.0 -165.5Q408 -178 391 -180Q361 -184 340 -162Q332 -152 325.5 -135.5Q319 -119 310.0 -106.0Q301 -93 285 -95Q265 -102 246 -91Q226 -75 225 -50Q226 -30 239.5 -18.0Q253 -6 262 0Q291 18 325 17Q440 108 501 241Q511 266 504 292Q495 319 504 347Q505 349 510.0 361.5Q515 374 526.0 386.5Q537 399 555 401Q585 405 605 382Q613 373 619.5 356.0Q626 339 635.5 326.0Q645 313 661 315Q681 322 699 312Z" fill="#ffffff" />
<path d="M591 452Q581 457 570 453Q559 449 555 439Q550 428 554 418Q558 407 568 402L596 389L639 334L667 319L705 311Q716 309 725 315Q735 321 737 332Q739 344 733 353Q727 363 716 365L686 371L676 377L631 434Z" fill="#ffa7c0" />
<path d="M330 -137Q330 -137 336.5 -139.5Q343 -142 354.0 -134.5Q365 -127 378 -99Q401 -53 433.5 -2.0Q466 49 502.5 98.5Q539 148 574.5 190.5Q610 233 637 262Q653 278 656.5 290.5Q660 303 658.5 310.0Q657 317 657 317Q658 319 670.5 321.5Q683 324 699 310Q719 294 720 268Q719 249 705.5 237.0Q692 225 683 219Q654 200 619 202Q508 99 440 -37Q438 -43 441.5 -57.5Q445 -72 448.5 -86.5Q452 -101 449 -106Q442 -120 436.5 -140.0Q431 -160 420 -167Q387 -186 365.0 -180.5Q343 -175 334.0 -160.0Q325 -145 330 -137Z" fill="#d0cfce" />
<path d="M1028 864Q1048 848 1049 823Q1048 803 1034.5 791.0Q1021 779 1012 773Q983 754 948 756Q904 717 869 671L865 665L775 518L771 516Q765 499 771 481Q779 454 771 426Q770 423 764.5 411.0Q759 399 748.0 386.5Q737 374 720 372Q690 368 669 390Q661 400 654.5 416.5Q648 433 639.0 446.0Q630 459 614 457Q594 450 575 461Q555 477 554 502Q555 522 568.5 534.0Q582 546 591 552Q620 570 654 569Q769 660 830 793Q840 818 833 844Q824 871 833 899Q834 901 839.0 913.5Q844 926 855.0 938.5Q866 951 884 953Q914 957 934 934Q942 925 948.5 908.0Q955 891 964.5 878.0Q974 865 990 867Q1010 874 1028 864Z" fill="#ffffff" />
<path d="M659 415Q659 415 665.5 412.5Q672 410 683.0 417.0Q694 424 707 452Q730 498 762.5 549.0Q795 600 831.5 649.5Q868 699 903.0 741.5Q938 784 966 813Q982 829 985.5 841.5Q989 854 987.5 861.5Q986 869 986 869Q987 871 999.5 873.5Q1012 876 1028 861Q1048 845 1049 820Q1048 800 1034.5 788.0Q1021 776 1012 770Q983 752 948 753Q837 650 769 515Q767 509 770.5 494.5Q774 480 777.5 465.5Q781 451 778 446Q771 431 765.5 411.0Q760 391 749 385Q716 365 694.0 371.0Q672 377 663.0 392.0Q654 407 659 415Z" fill="#d0cfce" />
<path d="M934 873Q931 878 926 879Q920 881 912 876Q896 867 905 851Q917 829 973 842Q1012 851 1016 848Q1016 847 1016 847Q1029 837 1030 820Q1029 804 1002 786Q978 770 949 772Q942 772 936 767Q845 690 759 533Q758 533 758 532Q744 504 753 473Q760 451 753 429Q741 391 717 387Q697 385 683 400Q679 404 671 421Q646 477 611 473Q593 470 595 452Q597 443 602 439Q607 435 616 436Q624 437 638 406Q648 384 656 375Q682 346 722 351Q722 351 722 351Q769 358 788 418Q798 451 788 483Q783 500 791 515Q872 662 955 735Q991 735 1022 755Q1066 784 1067 819Q1067 820 1067 821Q1066 854 1040 875Q1022 891 965 878Q945 873 938 873Q936 873 934 873Z" fill="#000000" />
<path d="M669 446Q677 435 691 443Q699 448 701 454Q703 460 698 468Q686 490 630 477Q591 468 587 471Q587 472 587 472Q574 483 573 499Q574 515 601 534Q625 549 654 548Q660 548 666 552Q784 645 846 782Q846 783 846 783Q859 814 850 846Q843 868 850 890Q862 928 886 932Q906 934 920 919Q924 915 932 898Q957 842 992 846Q1010 849 1008 867Q1007 876 1001 880Q996 884 987 883Q979 882 965 913Q955 936 947 944Q921 973 881 969Q881 969 881 969Q834 962 815 901Q805 868 815 836Q821 816 813 797Q756 671 648 585Q612 584 581 564Q537 535 536 500Q536 499 536 499Q537 465 563 444Q581 428 638 441Q658 446 665 446Q667 446 669 446Z" fill="#000000" />
<path d="M606 321Q602 326 597 327Q591 329 583 324Q567 315 576 299Q588 278 645 291Q683 300 687 296Q687 296 688 295Q701 285 701 268Q700 252 673 234Q649 219 620 220Q613 220 607 216Q516 139 430 -19Q429 -19 429 -19Q415 -48 424 -79Q431 -101 424 -123Q412 -161 388 -165Q368 -167 354 -152Q351 -148 343 -130Q317 -75 282 -79Q264 -81 266 -99Q268 -109 273 -113Q278 -117 287 -115Q295 -114 309 -146Q319 -168 327 -176Q353 -206 393 -201Q393 -201 393 -201Q440 -194 459 -134Q469 -101 459 -68Q454 -52 462 -36Q543 110 626 183Q662 183 693 203Q737 232 738 268Q738 268 738 269Q737 302 711 324Q693 340 636 326Q616 322 609 321Q607 321 606 321Z" fill="#000000" />
<path d="M340 -105Q348 -117 362 -109Q378 -100 369 -84Q357 -62 301 -75Q262 -84 258 -80Q258 -80 258 -80Q245 -69 244 -52Q245 -36 272 -18Q296 -3 325 -4Q332 -4 337 0Q455 93 517 231Q517 231 517 231Q531 262 521 294Q514 317 521 339Q533 377 557 381Q577 383 591 368Q595 364 603 346Q628 290 663 295Q681 297 679 315Q676 333 658 331Q650 330 636 361Q626 384 618 392Q592 422 552 417Q552 417 552 417Q505 410 486 349Q476 317 486 284Q492 264 484 246Q427 120 319 33Q283 33 252 13Q208 -16 207 -52Q207 -52 207 -53Q208 -87 234 -108Q253 -124 309 -111Q329 -106 337 -105Q338 -105 340 -105Z" fill="#000000" />
<path d="M498.970703125 544.1085815429688Q510.8880615234375 531.034423828125 524.9584350585938 542.8656616210938Q539.02880859375 554.6968994140625 527.1975708007812 568.7672729492188L489.71142578125 611.150634765625L516.646484375 620.8660888671875Q533.1887817382812 626.461669921875 526.68310546875 644.0863037109375Q525.9452514648438 647.1610717773438 523.1288452148438 649.411865234375L455.60955810546875 727.5123291015625Q443.7783203125 741.5827026367188 429.70794677734375 729.75146484375Q415.6375732421875 717.9202270507812 428.46502685546875 703.7637329101562L478.60638427734375 645.2314453125L452.753662109375 636.4260864257812Q449.5927734375 634.6920166015625 447.4281005859375 632.871826171875Q433.35772705078125 621.0405883789062 445.18896484375 606.97021484375Z" fill="#000000" />
<path d="M450.17938232421875 383.65875244140625Q459.18304443359375 384.64080810546875 463.19183349609375 388.63348388671875Q468.20281982421875 393.62432861328125 467.22076416015625 402.62799072265625Q467.259033203125 421.6314697265625 448.2535400390625 420.6695556640625L366.23046875 416.833984375Q357.22882080078125 416.85211181640625 352.21783447265625 411.86126708984375Q348.20703125 406.868408203125 348.18890380859375 397.86676025390625Q349.18304443359375 394.86419677734375 350.17718505859375 391.86163330078125L361.1268310546875 365.834716796875L284.106689453125 362.9892578125Q274.1048583984375 363.0093994140625 270.09405517578125 358.01654052734375Q266.083251953125 353.023681640625 266.06512451171875 344.02203369140625Q267.029052734375 326.0167236328125 285.0323486328125 325.98046875L389.06146240234375 330.77191162109375Q392.06201171875 330.765869140625 395.0645751953125 331.760009765625Q412.081787109375 338.72705078125 405.11474609375 355.7442626953125L394.16510009765625 381.77117919921875Z" fill="#000000" />
<path d="M461 469Q477 460 486 475Q496 491 480 501L409 543Q394 552 384 537Q382 534 382 531L377 503L311 543Q295 553 285 537Q281 529 282 523Q284 516 292 512L381 458Q383 457 387 456Q405 453 408 471L413 498Z" fill="#000000" />
<path d="M498.970703125 544.1085815429688Q510.8880615234375 531.034423828125 524.9584350585938 542.8656616210938Q539.02880859375 554.6968994140625 527.1975708007812 568.7672729492188L489.71142578125 611.150634765625L516.646484375 620.8660888671875Q533.1887817382812 626.461669921875 526.68310546875 644.0863037109375Q525.9452514648438 647.1610717773438 523.1288452148438 649.411865234375L455.60955810546875 727.5123291015625Q443.7783203125 741.5827026367188 429.70794677734375 729.75146484375Q415.6375732421875 717.9202270507812 428.46502685546875 703.7637329101562L478.60638427734375 645.2314453125L452.753662109375 636.4260864257812Q449.5927734375 634.6920166015625 447.4281005859375 632.871826171875Q433.35772705078125 621.0405883789062 445.18896484375 606.97021484375Z" fill="#d22f27" />
<path d="M450.17938232421875 383.65875244140625Q459.18304443359375 384.64080810546875 463.19183349609375 388.63348388671875Q468.20281982421875 393.62432861328125 467.22076416015625 402.62799072265625Q467.259033203125 421.6314697265625 448.2535400390625 420.6695556640625L366.23046875 416.833984375Q357.22882080078125 416.85211181640625 352.21783447265625 411.86126708984375Q348.20703125 406.868408203125 348.18890380859375 397.86676025390625Q349.18304443359375 394.86419677734375 350.17718505859375 391.86163330078125L361.1268310546875 365.834716796875L284.106689453125 362.9892578125Q274.1048583984375 363.0093994140625 270.09405517578125 358.01654052734375Q266.083251953125 353.023681640625 266.06512451171875 344.02203369140625Q267.029052734375 326.0167236328125 285.0323486328125 325.98046875L389.06146240234375 330.77191162109375Q392.06201171875 330.765869140625 395.0645751953125 331.760009765625Q412.081787109375 338.72705078125 405.11474609375 355.7442626953125L394.16510009765625 381.77117919921875Z" fill="#d22f27" />
<path d="M461 469Q477 460 486 475Q496 491 480 501L409 543Q394 552 384 537Q382 534 382 531L377 503L311 543Q295 553 285 537Q281 529 282 523Q284 516 292 512L381 458Q383 457 387 456Q405 453 408 471L413 498Z" fill="#d22f27" />
</g></svg>