<svg xmlns="http://www.w3.org/2000/svg" viewBox="0 0 2048 2048">
<g transform="matrix(1 0 0 -1 0 2048)">
<path d="M311 -105Q311 -105 309.5 -86.5Q308 -68 309.5 -39.0Q311 -10 320.0 23.0Q329 56 349.0 85.5Q369 115 404.0 133.5Q439 152 494 152Q538 123 577.5 104.5Q617 86 659 86H657Q699 86 738.5 104.5Q778 123 822 152Q877 152 912.5 133.5Q948 115 967.5 85.5Q987 56 996.0 23.0Q1005 -10 1006.5 -39.0Q1008 -68 1006.5 -86.5Q1005 -105 1005 -105Z" fill="#b1cc33" />
<path d="M816 151V-106H895V151Z" fill="#61b2e4" />
<path d="M404 141V-106H483V141Z" fill="#61b2e4" />
<path d="M999 179Q985 179 974.0 189.0Q963 199 962 213Q962 228 972.0 239.0Q982 250 997 250Q986 266 993.0 280.0Q1000 294 1015.5 299.0Q1031 304 1045 294Q1045 309 1055.0 319.5Q1065 330 1080 330Q1094 331 1105.0 321.0Q1116 311 1116 296Q1125 303 1137.0 302.0Q1149 301 1157 293Q1165 285 1166.0 273.5Q1167 262 1159 253Q1174 252 1184.0 241.0Q1194 230 1193 216Q1193 201 1182.0 191.0Q1171 181 1157 182Q1164 172 1163.5 160.5Q1163 149 1154 141Q1146 133 1134.5 132.0Q1123 131 1114 138Q1114 124 1104.0 113.0Q1094 102 1079 102Q1065 101 1054.0 111.0Q1043 121 1043 136Q1033 129 1021.5 129.5Q1010 130 1002 138Q994 147 993.0 158.5Q992 170 999 179L997 232Z" fill="#ffa7c0" />
<path d="M984 171Q977 151 995 132Q1015 113 1036 121Q1043 92 1080 93Q1115 94 1122 123Q1142 116 1161 134Q1180 153 1172 174Q1181 177 1189 184Q1202 197 1203 216Q1204 234 1191 248Q1183 256 1174 259Q1183 280 1163 300Q1144 319 1123 310Q1119 320 1111 327Q1098 340 1079 340Q1043 339 1037 308Q1017 315 997 298Q975 280 983 257Q953 250 954 213Q955 177 984 171ZM1007 232H988L990 189Q973 193 972 214Q971 240 997 241H1006V253L1004 255Q993 272 1008 284Q1024 298 1039 286L1045 282L1054 290V294Q1054 305 1061 313Q1069 321 1080 321Q1091 322 1099 314Q1107 307 1107 296V287H1119L1122 289Q1137 300 1150 287Q1164 273 1152 258L1141 244H1159Q1170 243 1178 235Q1185 227 1185 216Q1184 205 1176 198Q1168 190 1157 191H1138L1150 176Q1161 161 1148 147Q1134 134 1119 146L1117 147H1104L1105 138Q1105 112 1079 111Q1053 110 1052 136V140L1043 148L1037 143Q1022 132 1008 145Q995 158 1007 174L1009 176Z" fill="#ffa7c0" />
<path d="M918.0939331054688 161.52239990234375Q906.6148071289062 176.14837646484375 891.2337951660156 184.32601928710938Q875.852783203125 192.503662109375 861.4233703613281 196.35586547851562Q846.9939575195312 200.20806884765625 837.1079711914062 201.265869140625Q827.2219848632812 202.32366943359375 827.2219848632812 202.32366943359375Q827.2219848632812 202.32366943359375 826.5504760742188 192.9267578125Q825.8789672851562 183.52984619140625 826.9954528808594 168.35269165039062Q828.1119384765625 153.175537109375 832.7423095703125 136.41424560546875Q837.3726806640625 119.6529541015625 849.2380981445312 105.51605224609375Q861.103515625 91.379150390625 876.2913818359375 82.95697021484375Q891.479248046875 74.5347900390625 906.3463439941406 70.73397827148438Q921.2134399414062 66.93316650390625 930.6617431640625 65.823974609375Q940.1100463867188 64.71478271484375 940.1100463867188 64.71478271484375Q940.1100463867188 64.71478271484375 940.9747009277344 74.35623168945312Q941.83935546875 83.9976806640625 940.9674072265625 98.981689453125Q940.095458984375 113.9656982421875 935.0274047851562 130.67559814453125Q929.9593505859375 147.385498046875 918.0939331054688 161.52239990234375Z" fill="#5c9e31" />
<path d="M1112.4892578125 223.1171875Q1112.4892578125 230.255859375 1109.79150390625 236.564453125Q1107.09375 242.873046875 1102.32080078125 247.64599609375Q1097.5478515625 252.4189453125 1091.28076171875 255.11669921875Q1085.013671875 257.814453125 1077.7919921875 257.814453125Q1070.6533203125 257.814453125 1064.3447265625 255.11669921875Q1058.0361328125 252.4189453125 1053.26318359375 247.64599609375Q1048.490234375 242.873046875 1045.79248046875 236.564453125Q1043.0947265625 230.255859375 1043.0947265625 223.1171875Q1043.0947265625 215.8955078125 1045.79248046875 209.62841796875Q1048.490234375 203.361328125 1053.26318359375 198.58837890625Q1058.0361328125 193.8154296875 1064.3447265625 191.11767578125Q1070.6533203125 188.419921875 1077.7919921875 188.419921875Q1085.013671875 188.419921875 1091.28076171875 191.11767578125Q1097.5478515625 193.8154296875 1102.32080078125 198.58837890625Q1107.09375 203.361328125 1109.79150390625 209.62841796875Q1112.4892578125 215.8955078125 1112.4892578125 223.1171875Z" fill="#d22f27" />
<path d="M763 650 860 433Q857 366 828.5 311.0Q800 256 754.0 224.0Q708 192 653 192Q600 192 555.5 222.0Q511 252 482.0 303.5Q453 355 447 420Q447 421 447.0 423.0Q447 425 446 427Q445 440 445 452Q445 465 447 481Q447 483 447.5 485.5Q448 488 448 490Q449 501 451 509Q451 510 451.0 511.0Q451 512 452 513Q492 530 528.5 557.0Q565 584 593.5 610.5Q622 637 638.0 655.0Q654 673 654 673Q664 673 666.0 660.0Q668 647 666.5 629.5Q665 612 662.5 599.0Q660 586 660 586Q693 584 721.5 601.5Q750 619 763 650Z" fill="#fcea2b" />
<path d="M444 418 456 513Q496 530 532.5 557.0Q569 584 597.5 610.5Q626 637 642.5 655.0Q659 673 659 673Q668 673 670.0 660.0Q672 647 670.5 629.5Q669 612 666.5 599.0Q664 586 664 586Q697 584 726.0 601.5Q755 619 768 650L871 418Q871 418 878.5 432.0Q886 446 892.5 470.5Q899 495 898.0 527.5Q897 560 880.5 597.0Q864 634 824 673Q776 721 728.0 735.0Q680 749 637.5 742.0Q595 735 562.0 718.5Q529 702 510.0 687.5Q491 673 491 673Q451 634 434.5 597.0Q418 560 417.0 527.5Q416 495 422.5 470.5Q429 446 436.5 432.0Q444 418 444 418Z" fill="#a57939" />
<path d="M766.8203125 476.3887939453125Q766.8203125 491.98846435546875 756.4205322265625 502.38824462890625Q746.020751953125 512.7880249023438 730.4210815429688 512.7880249023438Q714.8214111328125 512.7880249023438 704.421630859375 502.38824462890625Q694.0218505859375 491.98846435546875 694.0218505859375 476.3887939453125Q694.0218505859375 460.78912353515625 704.421630859375 450.38934326171875Q714.8214111328125 439.98956298828125 730.4210815429688 439.98956298828125Q746.020751953125 439.98956298828125 756.4205322265625 450.38934326171875Q766.8203125 460.78912353515625 766.8203125 476.3887939453125Z" fill="#000000" />
<path d="M620.8203125 476.3887939453125Q620.8203125 491.98846435546875 610.4205322265625 502.38824462890625Q600.020751953125 512.7880249023438 584.4210815429688 512.7880249023438Q568.8214111328125 512.7880249023438 558.421630859375 502.38824462890625Q548.0218505859375 491.98846435546875 548.0218505859375 476.3887939453125Q548.0218505859375 460.78912353515625 558.421630859375 450.38934326171875Q568.8214111328125 439.98956298828125 584.4210815429688 439.98956298828125Q600.020751953125 439.98956298828125 610.4205322265625 450.38934326171875Q620.8203125 460.78912353515625 620.8203125 476.3887939453125Z" fill="#000000" />
<path d="M658 293Q691 293 721 309Q731 313 731 324Q732 334 723 340Q714 346 705 341Q658 316 611 341Q604 345 597.0 342.5Q590 340 587 333Q583 326 585.5 319.0Q588 312 595 309Q625 293 658 293Z" fill="#000000" />
<path d="M293 -96Q296 -114 314 -111Q332 -108 330 -90Q321 -35 338 21Q370 125 489 127Q589 62 657 61H660Q729 62 828 127Q830 127 832 127Q850 126 851 144Q852 163 834 164Q830 164 823 164Q817 164 812 161Q719 99 660 98H658Q598 99 505 161Q500 164 495 164Q344 164 303 32Q284 -32 293 -96Z" fill="#000000" />
<path d="M955 116Q940 127 929 112Q919 97 933 87Q990 45 995 -25Q997 -61 989 -87Q983 -104 1000 -110Q1017 -116 1023 -99Q1035 -65 1032 -23Q1026 64 955 116Z" fill="#000000" />
<path d="M423 117Q423 135 404 135Q386 135 386 117V-93Q386 -111 404 -111Q423 -111 423 -93Z" fill="#000000" />
<path d="M927 70Q927 89 908 89Q890 89 890 70V-93Q890 -111 908 -111Q927 -111 927 -93Z" fill="#000000" />
<path d="M517 140Q517 159 499 159Q480 159 480 140V-93Q480 -111 499 -111H818Q837 -111 837 -93V141Q837 159 818 159Q800 159 800 141V-74L517 -75Z" fill="#000000" />
<path d="M448 522 455 505Q565 552 661 667L647 679Q554 567 448 522Z" fill="#000000" />
<path d="M474 510 438 517Q431 484 431 452Q431 337 496 256Q563 173 658 173Q748 173 813 249Q877 323 883 431L846 433Q841 338 785 273Q731 210 658 210Q580 210 525 279Q468 350 468 452Q468 481 474 510Z" fill="#000000" />
<path d="M932 183Q896 227 828 230Q812 231 809 215Q799 147 835 103Q871 59 939 56Q955 55 958 71Q968 138 932 183ZM904 159Q925 133 923 94Q885 100 863 126Q842 152 844 192Q882 186 904 159Z" fill="#000000" />
<path d="M1005 76Q1017 89 1004 102Q991 114 978 101Q920 41 944 -99Q948 -117 966 -114Q984 -110 981 -92Q959 29 1005 76Z" fill="#000000" />
<path d="M1023 311Q1024 292 1042 293Q1060 294 1060 312Q1059 332 1080 333Q1100 334 1101 313Q1102 295 1120 296Q1138 296 1138 315Q1135 372 1078 370Q1021 368 1023 311Z" fill="#000000" />
<path d="M1164 207Q1146 208 1145 190Q1145 171 1163 171Q1220 169 1222 226Q1223 250 1207 267Q1191 284 1167 285Q1149 286 1148 267Q1148 258 1152 253Q1157 249 1166 248Q1174 248 1180 242Q1186 236 1186 227Q1185 206 1164 207Z" fill="#000000" />
<path d="M1152 278Q1141 263 1155 252Q1170 241 1181 256Q1209 292 1177 324Q1144 356 1108 329Q1094 317 1105 303Q1116 288 1130 299Q1141 308 1151 298Q1160 289 1152 278Z" fill="#000000" />
<path d="M1128 156Q1113 167 1102 153Q1091 138 1105 127Q1142 99 1174 132Q1206 164 1178 200Q1173 207 1166 208Q1160 209 1153 203Q1138 192 1149 178Q1157 167 1148 157Q1138 148 1128 156Z" fill="#000000" />
<path d="M1134.7557373046875 142.13037109375Q1133.759033203125 161.134033203125 1115.7555541992188 160.13714599609375Q1097.7520751953125 159.1402587890625 1097.748779296875 141.136962890625Q1098.7453002929688 121.13311767578125 1077.7412719726562 120.13677978515625Q1057.7374267578125 119.1402587890625 1056.7410888671875 140.144287109375Q1055.7442016601562 158.14776611328125 1037.74072265625 157.15087890625Q1019.7374267578125 157.1541748046875 1019.7339477539062 138.15069580078125Q1022.7240600585938 81.13970947265625 1079.73486328125 83.129638671875Q1136.7456665039062 85.11956787109375 1134.7557373046875 142.13037109375Z" fill="#000000" />
<path d="M1006 175Q1017 190 1003 201Q988 212 977 197Q949 161 981 129Q1014 97 1050 124Q1064 136 1053 150Q1042 165 1028 154Q1017 145 1007 155Q998 164 1006 175Z" fill="#000000" />
<path d="M1030 297Q1045 286 1056 300Q1067 315 1052 326Q1018 352 983 323Q947 293 973 254Q984 239 999 249Q1014 259 1004 274Q996 286 1007 295Q1019 305 1030 297Z" fill="#000000" />
<path d="M992 168Q1010 169 1010 187Q1009 205 991 205Q979 204 972 214Q966 224 972 235Q977 245 989 246Q1008 246 1007 265Q1006 283 988 282Q955 281 939 252Q924 223 941 195Q959 167 992 168Z" fill="#000000" />
<path d="M1126 223Q1126 272 1078 272Q1058 272 1043 258Q1029 244 1029 223Q1029 175 1078 175Q1098 175 1112 189Q1126 203 1126 223ZM1098 223Q1098 203 1078 203Q1069 203 1063 209Q1057 215 1057 223Q1057 244 1078 244Q1086 244 1092 238Q1098 232 1098 223Z" fill="#000000" />
<path d="M429 408Q433 401 441 400Q460 398 462 416L473 501Q568 544 653 638Q653 635 652 631Q651 610 646 590Q646 589 646 587Q645 578 649 573Q653 568 663 568Q730 563 766 610L855 411Q857 406 861 403Q876 393 886 408Q910 443 916 496Q926 599 837 686Q729 794 592 750Q524 729 478 687Q478 686 478 686Q389 599 399 496Q405 443 429 408ZM436 501Q428 586 503 660Q543 697 603 716Q719 752 812 660Q888 586 879 499Q877 479 872 462L784 657Q777 674 760 667Q753 664 751 657Q731 610 686 605Q688 616 689 628Q691 650 688 663Q682 691 659 691Q650 691 645 685Q552 574 448 530Q439 526 437 515Z" fill="#000000" />
<path d="M1126 223Q1126 272 1078 272Q1058 272 1043 258Q1029 244 1029 223Q1029 175 1078 175Q1098 175 1112 189Q1126 203 1126 223ZM1098 223Q1098 203 1078 203Q1069 203 1063 209Q1057 215 1057 223Q1057 244 1078 244Q1086 244 1092 238Q1098 232 1098 223Z" fill="#000000" />
</g></svg>