<svg xmlns="http://www.w3.org/2000/svg" viewBox="0 0 2048 2048">
<g transform="matrix(1 0 0 -1 0 2048)">
<path d="M624 406Q612 406 612 394V260Q612 246 622.0 236.0Q632 226 646 226H1003Q1017 226 1026.5 236.0Q1036 246 1036 260V373Q1036 387 1026.5 396.5Q1017 406 1003 406Z" fill="#b1cc33" />
<path d="M658 132H715V226H943V132H1003H1037L1003 84V36H658Z" fill="#5c9e31" />
<path d="M682.521484375 86.765625Q682.521484375 115.48828125 671.6669921875 140.87109375Q660.8125 166.25390625 641.6083984375 185.4580078125Q622.404296875 204.662109375 597.1884765625 215.5166015625Q571.97265625 226.37109375 542.916015625 226.37109375Q514.193359375 226.37109375 488.810546875 215.5166015625Q463.427734375 204.662109375 444.2236328125 185.4580078125Q425.01953125 166.25390625 414.1650390625 140.87109375Q403.310546875 115.48828125 403.310546875 86.765625Q403.310546875 57.708984375 414.1650390625 32.4931640625Q425.01953125 7.27734375 444.2236328125 -11.9267578125Q463.427734375 -31.130859375 488.810546875 -41.9853515625Q514.193359375 -52.83984375 542.916015625 -52.83984375Q571.97265625 -52.83984375 597.1884765625 -41.9853515625Q622.404296875 -31.130859375 641.6083984375 -11.9267578125Q660.8125 7.27734375 671.6669921875 32.4931640625Q682.521484375 57.708984375 682.521484375 86.765625Z" fill="#d0cfce" />
<path d="M1175.8098754882812 39.39794921875Q1175.8098754882812 58.4886474609375 1168.5953674316406 75.3594970703125Q1161.380859375 92.2303466796875 1148.6167297363281 104.99447631835938Q1135.8526000976562 117.75860595703125 1119.0927429199219 124.97311401367188Q1102.3328857421875 132.1876220703125 1083.0202026367188 132.1876220703125Q1063.9295043945312 132.1876220703125 1047.0586547851562 124.97311401367188Q1030.1878051757812 117.75860595703125 1017.4236755371094 104.99447631835938Q1004.6595458984375 92.2303466796875 997.4450378417969 75.3594970703125Q990.2305297851562 58.4886474609375 990.2305297851562 39.39794921875Q990.2305297851562 20.08526611328125 997.4450378417969 3.325408935546875Q1004.6595458984375 -13.4344482421875 1017.4236755371094 -26.198577880859375Q1030.1878051757812 -38.96270751953125 1047.0586547851562 -46.177215576171875Q1063.9295043945312 -53.3917236328125 1083.0202026367188 -53.3917236328125Q1102.3328857421875 -53.3917236328125 1119.0927429199219 -46.177215576171875Q1135.8526000976562 -38.96270751953125 1148.6167297363281 -26.198577880859375Q1161.380859375 -13.4344482421875 1168.5953674316406 3.325408935546875Q1175.8098754882812 20.08526611328125 1175.8098754882812 39.39794921875Z" fill="#d0cfce" />
<path d="M151 917Q133 922 128 904Q123 886 141 881Q227 857 326 786Q526 644 591 411Q596 393 613 398Q631 403 626 421Q558 666 348 816Q243 891 151 917Z" fill="#000000" />
<path d="M608 432Q606 432 605 432Q594 431 586 423Q578 414 578 402V264Q578 243 593 227Q608 212 630 212H994Q1016 212 1031 227Q1046 243 1046 264V380Q1046 401 1031 417Q1016 432 994 432ZM614 396H994Q1010 396 1010 380V264Q1010 248 994 248H630Q614 248 614 264Z" fill="#000000" />
<path d="M978 18Q996 18 996 36Q996 54 978 54H658Q640 54 640 36Q640 18 658 18Z" fill="#000000" />
<path d="M660 152Q641 152 641 134Q641 115 660 115H700Q718 115 718 134V211H915V134Q915 115 933 115H994H1021Q1026 113 1032 113Q1051 113 1051 131V134Q1051 143 1046 148Q1041 152 1032 152H994H952V230Q952 248 933 248H700Q682 248 682 230V152Z" fill="#000000" />
<path d="M686 87Q686 154 639 201Q592 248 525 248Q459 248 412 201Q365 154 365 87Q365 21 412 -26Q459 -73 525 -73Q592 -73 639 -26Q686 21 686 87ZM649 87Q649 36 613 0Q577 -37 525 -37Q474 -37 438 0Q401 36 401 87Q401 139 438 175Q474 212 525 212Q577 212 613 175Q649 139 649 87Z" fill="#000000" />
<path d="M1193 43Q1193 92 1158 126Q1124 160 1076 160Q1027 160 993 126Q959 92 959 43Q959 -5 993 -39Q1027 -73 1076 -73Q1124 -73 1158 -39Q1193 -5 1193 43ZM1156 43Q1156 10 1132 -13Q1109 -37 1076 -37Q1043 -37 1019 -13Q996 10 996 43Q996 77 1019 100Q1043 124 1076 124Q1109 124 1132 100Q1156 77 1156 43Z" fill="#000000" />
<path d="M858 482Q849 482 842.5 475.5Q836 469 836 460V436Q836 427 842.5 420.5Q849 414 858 414H937Q946 414 952.5 420.5Q959 427 959 436V460Q959 469 952.5 475.5Q946 482 937 482Z" fill="#000000" />
</g></svg>