<svg xmlns="http://www.w3.org/2000/svg" viewBox="0 0 2048 2048">
<g transform="matrix(1 0 0 -1 0 2048)">
<path d="M1180 47Q1180 47 1164.5 54.5Q1149 62 1127.0 64.0Q1105 66 1085 51Q1079 45 1071 49Q1058 55 1027.5 63.5Q997 72 957.0 71.5Q917 71 874 48Q869 45 862 47Q811 67 759.0 71.0Q707 75 661.5 70.0Q616 65 583.5 57.5Q551 50 540 47Q534 45 529 48Q486 71 446.0 71.5Q406 72 375.5 63.5Q345 55 332 49Q324 45 318 50Q298 66 275.0 63.0Q252 60 235.5 52.5Q219 45 219 45Q219 142 256.0 227.5Q293 313 359.5 377.5Q426 442 513.0 478.5Q600 515 700 515Q790 515 870.5 485.0Q951 455 1015.0 401.0Q1079 347 1120.5 274.5Q1162 202 1175 117Z" fill="#b399c8" />
<path d="M700 515Q743 495 772.5 452.5Q802 410 820.5 357.0Q839 304 849.0 249.5Q859 195 863.0 149.0Q867 103 868.0 74.5Q869 46 869 46Q905 67 941.0 70.5Q977 74 1006.5 68.5Q1036 63 1053.5 56.0Q1071 49 1071 49Q1060 165 1029.0 244.5Q998 324 956.0 375.5Q914 427 869.5 455.5Q825 484 786.5 496.5Q748 509 724.0 512.0Q700 515 700 515Z" fill="#8967aa" />
<path d="M815 491Q809 493 806.5 487.0Q804 481 810 478Q876 446 919.0 402.5Q962 359 987.5 310.5Q1013 262 1026.5 216.0Q1040 170 1047.5 133.0Q1055 96 1061.0 75.0Q1067 54 1079 56Q1098 61 1120.0 57.5Q1142 54 1160.5 48.5Q1179 43 1190 40Q1199 37 1199 47Q1199 132 1173.5 198.0Q1148 264 1106.0 313.5Q1064 363 1013.0 398.0Q962 433 910.5 456.0Q859 479 815 491Z" fill="#8967aa" />
<path d="M1175.025634765625 577.5185546875Q1175.025634765625 577.5185546875 1171.572265625 599.0755615234375Q1168.118896484375 620.632568359375 1151.8792724609375 661.908203125Q1135.6396484375 703.183837890625 1097.227783203125 763.158203125Q1089.9365234375 774.192138671875 1083.4417724609375 772.9488525390625Q1076.947021484375 771.70556640625 1072.354736328125 766.47607421875Q1067.762451171875 761.24658203125 1067.762451171875 761.24658203125Q1029.683837890625 702.063232421875 1013.8433837890625 661.172119140625Q998.0029296875 620.281005859375 995.2911376953125 598.7349853515625Q992.579345703125 577.18896484375 992.579345703125 577.18896484375Q991.96044921875 536.052490234375 1018.8623046875 507.7974853515625Q1045.76416015625 479.54248046875 1083.626708984375 478.711181640625Q1121.383056640625 479.516845703125 1148.277587890625 508.38525390625Q1175.172119140625 537.253662109375 1175.025634765625 577.5185546875Z" fill="#92d3f5" />
<path d="M1077.2884521484375 762.6658935546875Q1114.248779296875 670.761474609375 1112.603271484375 606.6083984375Q1110.957763671875 542.455322265625 1097.3594970703125 511.0203857421875Q1083.76123046875 479.58544921875 1083.76123046875 479.58544921875Q1120.5252685546875 477.9361572265625 1145.1535034179688 503.39849853515625Q1169.78173828125 528.86083984375 1169.22314453125 580.513916015625Q1169.22314453125 580.513916015625 1158.7404174804688 617.0005493164062Q1148.2576904296875 653.4871826171875 1127.0205078125 697.5089111328125Q1105.7833251953125 741.5306396484375 1077.2884521484375 762.6658935546875Z" fill="#61b2e4" />
<path d="M608.025634765625 802.5185546875Q608.025634765625 802.5185546875 604.572265625 824.0755615234375Q601.118896484375 845.632568359375 584.8792724609375 886.908203125Q568.6396484375 928.183837890625 530.227783203125 988.158203125Q522.9365234375 999.192138671875 516.4417724609375 997.9488525390625Q509.947021484375 996.70556640625 505.354736328125 991.47607421875Q500.762451171875 986.24658203125 500.762451171875 986.24658203125Q462.683837890625 927.063232421875 446.8433837890625 886.172119140625Q431.0029296875 845.281005859375 428.2911376953125 823.7349853515625Q425.579345703125 802.18896484375 425.579345703125 802.18896484375Q424.96044921875 761.052490234375 451.8623046875 732.7974853515625Q478.76416015625 704.54248046875 516.626708984375 703.711181640625Q554.383056640625 704.516845703125 581.277587890625 733.38525390625Q608.172119140625 762.253662109375 608.025634765625 802.5185546875Z" fill="#92d3f5" />
<path d="M511.2884521484375 987.6658935546875Q548.248779296875 895.761474609375 546.603271484375 831.6083984375Q544.957763671875 767.455322265625 531.3594970703125 736.0203857421875Q517.76123046875 704.58544921875 517.76123046875 704.58544921875Q554.5252685546875 702.9361572265625 579.1535034179688 728.3984985351562Q603.78173828125 753.86083984375 603.22314453125 805.513916015625Q603.22314453125 805.513916015625 592.7404174804688 842.0005493164062Q582.2576904296875 878.4871826171875 561.0205078125 922.5089111328125Q539.7833251953125 966.5306396484375 511.2884521484375 987.6658935546875Z" fill="#61b2e4" />
<path d="M304.025634765625 582.5185546875Q304.025634765625 582.5185546875 300.572265625 604.0755615234375Q297.118896484375 625.632568359375 280.8792724609375 666.908203125Q264.6396484375 708.183837890625 226.227783203125 768.158203125Q218.9365234375 779.192138671875 212.4417724609375 777.9488525390625Q205.947021484375 776.70556640625 201.354736328125 771.47607421875Q196.762451171875 766.24658203125 196.762451171875 766.24658203125Q158.683837890625 707.063232421875 142.8433837890625 666.172119140625Q127.0029296875 625.281005859375 124.2911376953125 603.7349853515625Q121.579345703125 582.18896484375 121.579345703125 582.18896484375Q120.96044921875 541.052490234375 147.8623046875 512.7974853515625Q174.76416015625 484.54248046875 212.626708984375 483.711181640625Q250.383056640625 484.516845703125 277.277587890625 513.38525390625Q304.172119140625 542.253662109375 304.025634765625 582.5185546875Z" fill="#92d3f5" />
<path d="M207.2884521484375 767.6658935546875Q244.248779296875 675.761474609375 242.603271484375 611.6083984375Q240.957763671875 547.455322265625 227.3594970703125 516.0203857421875Q213.76123046875 484.58544921875 213.76123046875 484.58544921875Q250.5252685546875 482.9361572265625 275.15350341796875 508.39849853515625Q299.78173828125 533.86083984375 299.22314453125 585.513916015625Q299.22314453125 585.513916015625 288.74041748046875 622.0005493164062Q278.2576904296875 658.4871826171875 257.0205078125 702.5089111328125Q235.7833251953125 746.5306396484375 207.2884521484375 767.6658935546875Z" fill="#61b2e4" />
<path d="M1162 495Q1193 529 1193 576Q1193 576 1193 577Q1193 577 1193 577Q1193 650 1113 772Q1094 802 1068 786Q1059 780 1053 771Q972 648 973 577Q973 529 1005 495Q1038 461 1083 461Q1129 461 1162 495ZM1157 577Q1157 543 1135 520Q1114 497 1083 497Q1053 497 1032 520Q1010 543 1010 577Q1009 637 1083 750Q1156 638 1157 577Z" fill="#000000" />
<path d="M595 721Q626 754 627 802Q627 802 627 802Q627 803 627 803Q626 875 546 998Q527 1027 501 1012Q492 1006 486 996Q405 873 407 802Q407 755 438 721Q471 686 517 686Q562 686 595 721ZM590 802Q590 769 568 746Q547 723 517 723Q486 723 465 746Q443 769 443 802Q442 862 516 976Q589 863 590 802Z" fill="#000000" />
<path d="M323 582Q323 583 323 583Q322 655 242 778Q224 807 197 792Q188 786 182 776Q102 653 103 582Q103 535 135 501Q167 466 213 466Q259 466 291 501Q323 534 323 582Q323 582 323 582ZM286 582Q286 549 264 526Q243 503 213 503Q183 503 162 526Q140 549 140 582Q139 642 213 756Q286 644 286 582Z" fill="#000000" />
<path d="M681 -228Q681 -246 700 -246Q718 -246 718 -228V71Q718 89 700 89Q681 89 681 71Z" fill="#000000" />
<path d="M306 51Q305 42 309 36Q312 31 321 30Q339 26 343 44Q395 345 555 451Q593 477 628 488Q618 476 609 461Q528 336 516 47Q515 28 534 28Q543 27 548 32Q552 36 553 45Q564 325 639 441Q674 494 701 497Q716 498 718 513Q719 523 715 528Q710 533 701 533Q623 540 534 482Q362 367 306 51Z" fill="#000000" />
<path d="M1060 45Q1064 26 1082 30Q1100 33 1097 51Q1041 367 867 482Q777 540 698 533Q689 533 685 528Q681 523 681 514Q683 498 698 497Q727 494 762 441Q839 325 850 46Q851 27 869 28Q888 29 887 47Q875 336 792 461Q783 476 773 488Q808 476 847 451Q1008 345 1060 45Z" fill="#000000" />
<path d="M1155 127Q1158 109 1176 112Q1194 115 1191 133Q1160 306 1022 419Q882 533 700 533Q493 533 347 390Q200 247 200 45Q200 26 219 26Q224 26 228 29Q277 59 306 36Q322 24 340 32Q435 77 520 31Q532 25 545 29Q718 82 856 30Q870 25 883 32Q968 77 1063 32Q1081 24 1097 36Q1126 59 1171 31Q1186 22 1196 37Q1201 45 1199 51Q1198 58 1190 63Q1125 103 1076 67Q967 117 867 65Q719 120 536 65Q437 117 327 67Q288 95 238 75Q248 243 372 364Q508 497 700 497Q869 497 998 391Q1126 286 1155 127Z" fill="#000000" />
<path d="M682.0 515.0Q682.0 497.0 700.0 497.0Q718.0 497.0 718.0 515.0V551.0Q718.0 570.0 700.0 570.0Q682.0 570.0 682.0 551.0Z" fill="#000000" />
</g></svg>