<svg xmlns="http://www.w3.org/2000/svg" viewBox="0 0 2048 2048">
<g transform="matrix(1 0 0 -1 0 2048)">
<path d="M435 818 478 815 555 776 659 794 778 766 872 690 921 608 1013 553 1065 455 1068 360 1086 333 1147 238 1181 146 1190 36Q1146 -29 1092.5 -67.0Q1039 -105 980.5 -122.0Q922 -139 865.0 -141.5Q808 -144 757.0 -137.0Q706 -130 666.5 -119.5Q627 -109 604.5 -100.5Q582 -92 582 -92L619 -40L652 73L643 183Q643 183 629.5 196.5Q616 210 600.0 227.5Q584 245 576 259Q565 280 550.5 297.0Q536 314 536 314L411 281L347 219L274 216L234 241L215 326L368 589L466 687Z" fill="#ffffff" />
<path d="M929 620 889 416V121L987 40Q979 81 987.5 126.0Q996 171 1018 219Q1018 219 1009.5 205.0Q1001 191 990.0 172.5Q979 154 970.0 140.0Q961 126 960.5 125.0Q960 124 973.0 145.0Q986 166 1018 219Q1051 272 1061.0 320.5Q1071 369 1067.5 410.0Q1064 451 1053.5 481.5Q1043 512 1033.5 528.5Q1024 545 1024 545Z" fill="#ea5a47" />
<path d="M475 692 388 605 292 712 198 825 475 692Z" fill="#ea5a47" />
<path d="M545 795 590 721 696 682 761 630 803 551 808 462 782 358 776 248 805 160Q820 114 843.0 87.0Q866 60 891.0 47.5Q916 35 937.5 31.5Q959 28 973.0 29.0Q987 30 987 30Q939 91 923.5 156.5Q908 222 916.0 287.0Q924 352 948 412L936 576Q929 619 907.0 653.5Q885 688 857.5 714.0Q830 740 803.5 757.5Q777 775 760.0 784.0Q743 793 743 793L545 795Z" fill="#92d3f5" />
<path d="M1072 371 1047 267Q1047 264 1045 260L977 135Q973 128 974 120L979 14Q979 11 979 9Q989 -32 1021.0 -63.0Q1053 -94 1093.0 -113.5Q1133 -133 1167 -140Q1184 -143 1195.5 -130.0Q1207 -117 1200 -101Q1187 -68 1189.5 -29.0Q1192 10 1197 34Q1205 65 1200 94Q1190 154 1169.0 204.5Q1148 255 1125.5 292.5Q1103 330 1087.5 350.5Q1072 371 1072 371Z" fill="#61b2e4" />
<path d="M1086 363Q1075 378 1061 367Q1046 356 1057 341Q1061 335 1072 322Q1172 201 1164 56Q1164 46 1168 42Q1172 37 1182 36Q1200 35 1201 54Q1209 214 1101 346Q1090 358 1086 363Z" fill="#000000" />
<path d="M607 291Q593 303 582 288Q570 274 584 263Q619 235 637 181Q673 73 581 -57Q570 -72 585 -82Q600 -93 611 -78Q713 67 672 193Q650 257 607 291Z" fill="#000000" />
<path d="M447 678Q463 670 471 686Q479 702 463 711L196 846Q180 854 172 838Q166 827 174 817L375 593Q387 579 400 591Q414 604 402 617L266 769Z" fill="#000000" />
<path d="M664 480Q662 499 644 497Q626 496 627 478Q635 353 437 311Q426 308 422 307Q408 304 397 294L356 253Q352 248 345 248H281Q257 248 250 271L240 300Q235 314 243 327L403 594L488 679Q496 687 492 697L461 801Q482 800 504 793Q566 775 572 719Q573 704 588 702Q660 692 719 645Q835 553 767 372Q766 371 766 370Q758 340 760 298Q763 214 813 149Q824 134 838 146Q853 157 842 171Q774 260 801 360Q878 566 742 674Q681 722 606 736Q593 806 514 829Q474 840 434 837Q432 836 431 836Q413 830 418 813L454 697L375 618Q374 616 372 615L211 346Q195 319 205 288L215 259Q231 211 281 211H345Q367 211 382 227L423 268Q426 271 430 272Q434 273 444 275Q674 324 664 480Z" fill="#000000" />
<path d="M564 806Q546 803 549 785Q550 776 556 772Q561 768 570 770Q667 787 759 753Q939 685 914 424Q913 406 931 404Q949 402 951 420Q978 709 772 787Q670 825 564 806Z" fill="#000000" />
<path d="M923 637Q914 641 908 638Q902 636 899 628Q891 611 908 604Q971 575 1014 514Q1100 392 1000 223Q974 190 962 141Q938 39 1013 -48Q1025 -62 1039 -50Q1053 -39 1041 -25Q978 49 998 132Q1008 174 1029 201Q1030 202 1031 204Q1144 393 1044 535Q995 605 923 637Z" fill="#000000" />
<path d="M484.1070556640625 514.4854125976562Q484.1070556640625 522.05224609375 481.23687744140625 528.7058410644531Q478.36669921875 535.3594360351562 473.3221435546875 540.4039916992188Q468.277587890625 545.4485473632812 461.6239929199219 548.3187255859375Q454.97039794921875 551.1889038085938 447.403564453125 551.1889038085938Q439.83673095703125 551.1889038085938 433.1831359863281 548.3187255859375Q426.529541015625 545.4485473632812 421.4849853515625 540.4039916992188Q416.4404296875 535.3594360351562 413.57025146484375 528.7058410644531Q410.7000732421875 522.05224609375 410.7000732421875 514.4854125976562Q410.7000732421875 506.9185791015625 413.57025146484375 500.2649841308594Q416.4404296875 493.61138916015625 421.4849853515625 488.56683349609375Q426.529541015625 483.52227783203125 433.1831359863281 480.652099609375Q439.83673095703125 477.78192138671875 447.403564453125 477.78192138671875Q454.97039794921875 477.78192138671875 461.6239929199219 480.652099609375Q468.277587890625 483.52227783203125 473.3221435546875 488.56683349609375Q478.36669921875 493.61138916015625 481.23687744140625 500.2649841308594Q484.1070556640625 506.9185791015625 484.1070556640625 514.4854125976562Z" fill="#000000" />
</g></svg>