<svg xmlns="http://www.w3.org/2000/svg" viewBox="0 0 2048 2048">
<g transform="matrix(1 0 0 -1 0 2048)">
<path d="M679.0 788.0 1137.0 18.0 1118.0 0.0H642.0V788.0Z" fill="#000000" />
<path d="M642.0 788.0 183.0 18.0 202.0 0.0H660.0V788.0Z" fill="#ffffff" />
<path d="M679.0 788.0 1137.0 18.0 1118.0 0.0H642.0V788.0Z" fill="#3f3f3f" />
<path d="M599 775 192 69Q171 34 192 -2Q212 -37 253 -37H1067Q1108 -37 1128 -2Q1149 34 1128 69L721 775Q701 810 660 810Q619 810 599 775ZM631 756Q641 773 660 773Q679 773 689 756L1097 50Q1106 34 1097 17Q1087 0 1067 0H253Q233 0 223 17Q214 34 223 50Z" fill="#000000" />
<path d="M678 779Q678 798 660 798Q642 798 642 779V37Q642 18 660 18Q678 18 678 37Z" fill="#000000" />
</g></svg>