<svg xmlns="http://www.w3.org/2000/svg" viewBox="0 0 2048 2048">
<g transform="matrix(1 0 0 -1 0 2048)">
<path d="M862.0 755.0Q862.0 790.0 844.5 819.0Q827.0 848.0 798.0 865.5Q769.0 883.0 734.0 883.0H587.0Q552.0 883.0 522.5 865.5Q493.0 848.0 476.0 819.0Q459.0 790.0 459.0 755.0V95.0Q459.0 59.0 476.0 30.0Q493.0 1.0 522.5 -16.5Q552.0 -34.0 587.0 -34.0H734.0Q769.0 -34.0 798.0 -16.5Q827.0 1.0 844.5 30.0Q862.0 59.0 862.0 95.0Z" fill="#d0cfce" />
<path d="M752.234619140625 159.7017822265625Q752.234619140625 178.6162109375 745.0601806640625 195.24786376953125Q737.8857421875 211.8795166015625 725.276123046875 224.4891357421875Q712.66650390625 237.0987548828125 696.0348510742188 244.273193359375Q679.4031982421875 251.4476318359375 660.48876953125 251.4476318359375Q641.5743408203125 251.4476318359375 624.9426879882812 244.273193359375Q608.31103515625 237.0987548828125 595.701416015625 224.4891357421875Q583.091796875 211.8795166015625 575.9173583984375 195.24786376953125Q568.742919921875 178.6162109375 568.742919921875 159.7017822265625Q568.742919921875 140.787353515625 575.9173583984375 124.15570068359375Q583.091796875 107.5240478515625 595.701416015625 94.9144287109375Q608.31103515625 82.3048095703125 624.9426879882812 75.13037109375Q641.5743408203125 67.9559326171875 660.48876953125 67.9559326171875Q679.4031982421875 67.9559326171875 696.0348510742188 75.13037109375Q712.66650390625 82.3048095703125 725.276123046875 94.9144287109375Q737.8857421875 107.5240478515625 745.0601806640625 124.15570068359375Q752.234619140625 140.787353515625 752.234619140625 159.7017822265625Z" fill="#b1cc33" />
<path d="M752.234619140625 416.7017822265625Q752.234619140625 435.6162109375 745.0601806640625 452.24786376953125Q737.8857421875 468.8795166015625 725.276123046875 481.4891357421875Q712.66650390625 494.0987548828125 696.0348510742188 501.273193359375Q679.4031982421875 508.4476318359375 660.48876953125 508.4476318359375Q641.5743408203125 508.4476318359375 624.9426879882812 501.273193359375Q608.31103515625 494.0987548828125 595.701416015625 481.4891357421875Q583.091796875 468.8795166015625 575.9173583984375 452.24786376953125Q568.742919921875 435.6162109375 568.742919921875 416.7017822265625Q568.742919921875 397.787353515625 575.9173583984375 381.15570068359375Q583.091796875 364.5240478515625 595.701416015625 351.9144287109375Q608.31103515625 339.3048095703125 624.9426879882812 332.13037109375Q641.5743408203125 324.9559326171875 660.48876953125 324.9559326171875Q679.4031982421875 324.9559326171875 696.0348510742188 332.13037109375Q712.66650390625 339.3048095703125 725.276123046875 351.9144287109375Q737.8857421875 364.5240478515625 745.0601806640625 381.15570068359375Q752.234619140625 397.787353515625 752.234619140625 416.7017822265625Z" fill="#f4aa41" />
<path d="M752.234619140625 691.7017822265625Q752.234619140625 710.6162109375 745.0601806640625 727.2478637695312Q737.8857421875 743.8795166015625 725.276123046875 756.4891357421875Q712.66650390625 769.0987548828125 696.0348510742188 776.273193359375Q679.4031982421875 783.4476318359375 660.48876953125 783.4476318359375Q641.5743408203125 783.4476318359375 624.9426879882812 776.273193359375Q608.31103515625 769.0987548828125 595.701416015625 756.4891357421875Q583.091796875 743.8795166015625 575.9173583984375 727.2478637695312Q568.742919921875 710.6162109375 568.742919921875 691.7017822265625Q568.742919921875 672.787353515625 575.9173583984375 656.1557006835938Q583.091796875 639.5240478515625 595.701416015625 626.9144287109375Q608.31103515625 614.3048095703125 624.9426879882812 607.13037109375Q641.5743408203125 599.9559326171875 660.48876953125 599.9559326171875Q679.4031982421875 599.9559326171875 696.0348510742188 607.13037109375Q712.66650390625 614.3048095703125 725.276123046875 626.9144287109375Q737.8857421875 639.5240478515625 745.0601806640625 656.1557006835938Q752.234619140625 672.787353515625 752.234619140625 691.7017822265625Z" fill="#ea5a47" />
<path d="M880.0 751.0Q880.0 812.0 837.0 855.0Q794.0 898.0 734.0 898.0H587.0Q526.0 898.0 483.0 855.0Q440.0 812.0 440.0 751.0V91.0Q440.0 31.0 483.0 -12.0Q526.0 -55.0 587.0 -55.0H734.0Q794.0 -55.0 837.0 -12.0Q880.0 31.0 880.0 91.0ZM844.0 751.0V91.0Q844.0 46.0 811.0 14.0Q779.0 -19.0 734.0 -19.0H587.0Q542.0 -19.0 509.0 14.0Q477.0 46.0 477.0 91.0V751.0Q477.0 797.0 509.0 829.0Q542.0 861.0 587.0 861.0H734.0Q779.0 861.0 811.0 829.0Q844.0 797.0 844.0 751.0Z" fill="#000000" />
<path d="M770 156Q770 202 738 234Q705 266 660 266Q614 266 582 234Q550 202 550 156Q550 110 582 78Q614 46 660 46Q705 46 738 78Q770 110 770 156ZM733 156Q733 126 712 104Q690 83 660 83Q629 83 608 104Q587 126 587 156Q587 229 660 229Q733 229 733 156Z" fill="#000000" />
<path d="M770 413Q770 459 738 491Q705 523 660 523Q614 523 582 491Q550 459 550 413Q550 367 582 335Q614 303 660 303Q705 303 738 335Q770 367 770 413ZM733 413Q733 383 712 361Q690 340 660 340Q629 340 608 361Q586 383 586 413Q586 486 660 486Q690 486 712 465Q733 443 733 413Z" fill="#000000" />
<path d="M770 688Q770 733 738 765Q705 798 660 798Q614 798 582 765Q550 733 550 688Q550 642 582 610Q614 578 660 578Q705 578 738 610Q770 642 770 688ZM733 688Q733 614 660 614Q587 614 587 688Q587 718 608 739Q630 761 660 761Q690 761 712 739Q733 718 733 688Z" fill="#000000" />
</g></svg>