<svg xmlns="http://www.w3.org/2000/svg" viewBox="0 0 2048 2048">
<g transform="matrix(1 0 0 -1 0 2048)">
<path d="M97 732H1225V93Q1225 83 1215.5 70.5Q1206 58 1193.5 48.0Q1181 38 1170 38H152Q142 38 129.0 48.0Q116 58 106.5 70.5Q97 83 97 93Z" fill="#d0cfce" />
<path d="M901.8306274414062 259.67041015625V398.3203125Q916.1647338867188 398.3203125 928.7396545410156 392.9124450683594Q941.3145751953125 387.50457763671875 950.8272094726562 377.991943359375Q960.33984375 368.47930908203125 965.7477111816406 355.9043884277344Q971.1555786132812 343.3294677734375 971.1555786132812 328.995361328125Q971.1555786132812 314.6612548828125 965.7477111816406 302.0863342285156Q960.33984375 289.51141357421875 950.8272094726562 279.998779296875Q941.3145751953125 270.48614501953125 928.7396545410156 265.0782775878906Q916.1647338867188 259.67041015625 901.8306274414062 259.67041015625Z" fill="#ffffff" />
<path d="M502 461V212H818V461Z" fill="#fcea2b" />
<path d="M953 329Q953 313 943.5 300.0Q934 287 920 281V377Q934 371 943.5 358.0Q953 345 953 329Z" fill="#ffffff" />
<path d="M364.9259033203125 328.64892578125Q364.9210205078125 344.65185546875 374.4187927246094 357.6571350097656Q383.91656494140625 370.66241455078125 397.91729736328125 376.66778564453125L397.94659423828125 280.65020751953125Q383.94219970703125 286.64703369140625 374.4364929199219 299.6465148925781Q364.9307861328125 312.64599609375 364.9259033203125 328.64892578125Z" fill="#ffffff" />
<path d="M247 324Q247 324 254.0 341.5Q261 359 271.5 383.5Q282 408 293.5 428.0Q305 448 314 452Q328 459 352.0 467.5Q376 476 396.0 482.5Q416 489 416 489V398Q383 392 365.0 377.0Q347 362 347 329Q347 296 365.0 281.0Q383 266 416 260V169Q378 174 339.0 196.5Q300 219 273.5 252.5Q247 286 247 324Z" fill="#d0cfce" />
<path d="M992 461Q997 457 1011.5 449.5Q1026 442 1040.5 418.5Q1055 395 1059 343Q1062 304 1048.0 275.0Q1034 246 1009.5 225.0Q985 204 956.5 189.0Q928 174 902 165L908 260Q929 274 947.0 290.5Q965 307 965 333Q965 352 953.5 366.0Q942 380 931.0 388.0Q920 396 920 396L916 488Q916 488 929.0 485.5Q942 483 960.0 477.0Q978 471 992 461Z" fill="#d0cfce" />
<path d="M416 446Q416 446 405.0 445.0Q394 444 379.0 441.0Q364 438 352 432Q336 423 321.5 408.5Q307 394 298 379Q288 364 281.5 346.5Q275 329 275 329Q266 354 274.5 380.5Q283 407 303.0 430.0Q323 453 349.0 469.0Q375 485 401 489Z" fill="#9b9b9a" />
<path d="M953 180V267Q946 262 931.5 262.0Q917 262 908 260L902 165Q910 166 927.5 171.5Q945 177 953 180Z" fill="#9b9b9a" />
<path d="M1035 377Q1035 377 1023.5 391.5Q1012 406 995 419Q979 431 964.0 437.5Q949 444 949 444L948 385Q941 389 925.0 397.0Q909 405 902 406V489Q922 486 948.0 473.5Q974 461 997.5 444.0Q1021 427 1032.5 409.0Q1044 391 1035 377Z" fill="#9b9b9a" />
<path d="M242 617Q242 617 242.0 599.5Q242 582 242.0 561.0Q242 540 242 530Q242 519 234.0 515.5Q226 512 217.5 512.5Q209 513 209 513Q220 517 220 530V640H1100V617Z" fill="#9b9b9a" />
<path d="M1170 20Q1201 20 1222 42Q1244 63 1244 93V732Q1244 751 1225 751H97Q78 751 78 732V93Q78 63 100 42Q121 20 152 20ZM1170 57H152Q115 57 115 93V714H1207V93Q1207 57 1170 57Z" fill="#000000" />
<path d="M416 507Q342 507 290 455Q238 403 238 329Q238 255 290 203Q342 151 416 151Q434 151 434 169V489Q434 507 416 507ZM398 469V189Q351 194 316 229Q275 270 275 329Q275 388 316 429Q351 464 398 469Z" fill="#000000" />
<path d="M902 151Q975 151 1028 203Q1080 255 1080 329Q1080 403 1028 455Q975 507 902 507Q883 507 883 489V169Q883 151 902 151ZM920 189V469Q967 464 1002 429Q1043 388 1043 329Q1043 270 1002 229Q967 194 920 189Z" fill="#000000" />
<path d="M416 417Q380 417 354 391Q328 365 328 329Q328 293 354 267Q380 241 416 241Q434 241 434 260V398Q434 417 416 417ZM398 378V280Q365 288 365 329Q365 370 398 378Z" fill="#000000" />
<path d="M478 212Q478 193 496 193H818Q837 193 837 212V461Q837 479 818 479H496Q478 479 478 461ZM515 442H800V230H515Z" fill="#000000" />
<path d="M183 530Q183 511 202 511Q220 511 220 530V640H1100V530Q1100 511 1118 511Q1136 511 1136 530V659Q1136 677 1118 677H202Q183 677 183 659Z" fill="#000000" />
<path d="M902 241Q938 241 964 267Q989 293 989 329Q989 365 964 391Q938 417 902 417Q883 417 883 398V260Q883 241 902 241ZM920 281V378Q953 370 953 329Q953 308 938 293Q930 285 920 281Z" fill="#000000" />
<path d="M308 590Q289 590 289 572Q289 553 308 553H1029Q1047 553 1047 572Q1047 590 1029 590Z" fill="#000000" />
</g></svg>