<svg xmlns="http://www.w3.org/2000/svg" viewBox="0 0 2048 2048">
<g transform="matrix(1 0 0 -1 0 2048)">
<path d="M685 529V878Q673 894 663.0 896.5Q653 899 645.5 894.5Q638 890 634.0 884.0Q630 878 630 878V529Z" fill="#9b9b9a" />
<path d="M612 529H648V873Q651 876 655 878Q659 881 667 872V529H703V884L700 888Q671 929 637 910Q622 902 614 887L612 883Z" fill="#9b9b9a" />
<path d="M659 57H851Q870 57 880 39Q912 -19 947.5 -50.0Q983 -81 1011.5 -93.5Q1040 -106 1051 -109Q1057 -110 1060 -110Q1117 -111 1151.0 -93.5Q1185 -76 1202.0 -46.0Q1219 -16 1222.5 20.5Q1226 57 1222.0 94.0Q1218 131 1210.5 162.0Q1203 193 1196.5 212.0Q1190 231 1190 231Q1176 272 1153.5 315.5Q1131 359 1107.0 397.5Q1083 436 1062.0 464.0Q1041 492 1029 504Q1019 513 1005 513H765H555H315Q301 513 291 504Q279 492 258.0 464.0Q237 436 213.0 397.5Q189 359 166.5 315.5Q144 272 130 231Q130 231 123.5 212.0Q117 193 109.5 162.0Q102 131 98.0 94.0Q94 57 97.5 20.5Q101 -16 118.0 -46.0Q135 -76 169.0 -93.5Q203 -111 260 -110Q263 -110 269 -109Q280 -106 308.5 -93.5Q337 -81 372.5 -50.0Q408 -19 440 39Q450 57 469 57H661Z" fill="#9b9b9a" />
<path d="M659 39H851Q859 39 864 31Q939 -106 1048 -127Q1055 -128 1060 -128Q1160 -131 1207 -71Q1243 -24 1243 58Q1242 147 1208 237Q1181 314 1123 407Q1073 486 1042 517Q1026 532 1005 532H315Q294 532 278 517Q247 486 197 407Q139 314 112 237Q78 147 77 58Q77 -24 113 -71Q160 -131 260 -128Q265 -128 272 -127Q381 -106 456 31Q461 39 469 39ZM659 76H469Q439 76 424 48Q357 -73 265 -91Q261 -91 259 -91Q178 -94 142 -49Q114 -12 114 57Q114 140 147 224V225Q172 298 229 388Q276 463 304 490Q308 495 315 495H1005Q1012 495 1016 490Q1044 463 1091 388Q1148 298 1173 225V224Q1206 140 1206 57Q1206 -12 1178 -49Q1142 -94 1061 -91Q1059 -91 1055 -91Q963 -73 896 48Q881 76 851 76Z" fill="#000000" />
<path d="M440 341H361H269V327H363H440Z" fill="#000000" />
<path d="M250 327Q250 308 269 308H440Q459 308 459 327V341Q459 360 440 360H269Q250 360 250 341Z" fill="#000000" />
<path d="M347.0 420.0V341.0V249.0H361.0V343.0V420.0Z" fill="#000000" />
<path d="M329 248Q329 230 347 230H362Q380 230 380 248V420Q380 438 362 438H347Q329 438 329 420Z" fill="#000000" />
<path d="M628.0628051757812 201.67144775390625Q628.0628051757812 216.72021484375 622.3480834960938 230.0545654296875Q616.6333618164062 243.388916015625 606.537353515625 253.48492431640625Q596.4413452148438 263.5809326171875 583.2022399902344 269.295654296875Q569.963134765625 275.0103759765625 554.723876953125 275.0103759765625Q539.484619140625 275.0103759765625 526.2455139160156 269.295654296875Q513.0064086914062 263.5809326171875 502.910400390625 253.48492431640625Q492.81439208984375 243.388916015625 487.09967041015625 230.0545654296875Q481.38494873046875 216.72021484375 481.38494873046875 201.67144775390625Q481.38494873046875 186.43218994140625 487.09967041015625 173.09783935546875Q492.81439208984375 159.76348876953125 502.910400390625 149.66748046875Q513.0064086914062 139.57147216796875 526.2455139160156 133.95199584960938Q539.484619140625 128.33251953125 554.723876953125 128.33251953125Q569.963134765625 128.33251953125 583.2022399902344 133.95199584960938Q596.4413452148438 139.57147216796875 606.537353515625 149.66748046875Q616.6333618164062 159.76348876953125 622.3480834960938 173.09783935546875Q628.0628051757812 186.43218994140625 628.0628051757812 201.67144775390625Z" fill="#000000" />
<path d="M839.0628051757812 201.67144775390625Q839.0628051757812 216.72021484375 833.3480834960938 230.0545654296875Q827.6333618164062 243.388916015625 817.537353515625 253.48492431640625Q807.4413452148438 263.5809326171875 794.2022399902344 269.295654296875Q780.963134765625 275.0103759765625 765.723876953125 275.0103759765625Q750.484619140625 275.0103759765625 737.2455139160156 269.295654296875Q724.0064086914062 263.5809326171875 713.910400390625 253.48492431640625Q703.8143920898438 243.388916015625 698.0996704101562 230.0545654296875Q692.3849487304688 216.72021484375 692.3849487304688 201.67144775390625Q692.3849487304688 186.43218994140625 698.0996704101562 173.09783935546875Q703.8143920898438 159.76348876953125 713.910400390625 149.66748046875Q724.0064086914062 139.57147216796875 737.2455139160156 133.95199584960938Q750.484619140625 128.33251953125 765.723876953125 128.33251953125Q780.963134765625 128.33251953125 794.2022399902344 133.95199584960938Q807.4413452148438 139.57147216796875 817.537353515625 149.66748046875Q827.6333618164062 159.76348876953125 833.3480834960938 173.09783935546875Q839.0628051757812 186.43218994140625 839.0628051757812 201.67144775390625Z" fill="#000000" />
<path d="M927.49951171875 334.32568359375Q927.49951171875 341.84765625 924.64306640625 348.5126953125Q921.78662109375 355.177734375 916.740234375 360.22412109375Q911.69384765625 365.2705078125 905.076416015625 368.126953125Q898.458984375 370.9833984375 890.841796875 370.9833984375Q883.224609375 370.9833984375 876.607177734375 368.126953125Q869.98974609375 365.2705078125 864.943359375 360.22412109375Q859.89697265625 355.177734375 857.04052734375 348.5126953125Q854.18408203125 341.84765625 854.18408203125 334.32568359375Q854.18408203125 326.70849609375 857.04052734375 320.04345703125Q859.89697265625 313.37841796875 864.943359375 308.33203125Q869.98974609375 303.28564453125 876.607177734375 300.476806640625Q883.224609375 297.66796875 890.841796875 297.66796875Q898.458984375 297.66796875 905.076416015625 300.476806640625Q911.69384765625 303.28564453125 916.740234375 308.33203125Q921.78662109375 313.37841796875 924.64306640625 320.04345703125Q927.49951171875 326.70849609375 927.49951171875 334.32568359375Z" fill="#000000" />
<path d="M1083.49951171875 334.32568359375Q1083.49951171875 341.84765625 1080.64306640625 348.5126953125Q1077.78662109375 355.177734375 1072.740234375 360.22412109375Q1067.69384765625 365.2705078125 1061.076416015625 368.126953125Q1054.458984375 370.9833984375 1046.841796875 370.9833984375Q1039.224609375 370.9833984375 1032.607177734375 368.126953125Q1025.98974609375 365.2705078125 1020.943359375 360.22412109375Q1015.89697265625 355.177734375 1013.04052734375 348.5126953125Q1010.18408203125 341.84765625 1010.18408203125 334.32568359375Q1010.18408203125 326.70849609375 1013.04052734375 320.04345703125Q1015.89697265625 313.37841796875 1020.943359375 308.33203125Q1025.98974609375 303.28564453125 1032.607177734375 300.476806640625Q1039.224609375 297.66796875 1046.841796875 297.66796875Q1054.458984375 297.66796875 1061.076416015625 300.476806640625Q1067.69384765625 303.28564453125 1072.740234375 308.33203125Q1077.78662109375 313.37841796875 1080.64306640625 320.04345703125Q1083.49951171875 326.70849609375 1083.49951171875 334.32568359375Z" fill="#000000" />
<path d="M1005.49951171875 265.32568359375Q1005.49951171875 272.84765625 1002.64306640625 279.5126953125Q999.78662109375 286.177734375 994.740234375 291.22412109375Q989.69384765625 296.2705078125 983.076416015625 299.126953125Q976.458984375 301.9833984375 968.841796875 301.9833984375Q961.224609375 301.9833984375 954.607177734375 299.126953125Q947.98974609375 296.2705078125 942.943359375 291.22412109375Q937.89697265625 286.177734375 935.04052734375 279.5126953125Q932.18408203125 272.84765625 932.18408203125 265.32568359375Q932.18408203125 257.70849609375 935.04052734375 251.04345703125Q937.89697265625 244.37841796875 942.943359375 239.33203125Q947.98974609375 234.28564453125 954.607177734375 231.476806640625Q961.224609375 228.66796875 968.841796875 228.66796875Q976.458984375 228.66796875 983.076416015625 231.476806640625Q989.69384765625 234.28564453125 994.740234375 239.33203125Q999.78662109375 244.37841796875 1002.64306640625 251.04345703125Q1005.49951171875 257.70849609375 1005.49951171875 265.32568359375Z" fill="#000000" />
<path d="M1005.49951171875 402.32568359375Q1005.49951171875 409.84765625 1002.64306640625 416.5126953125Q999.78662109375 423.177734375 994.740234375 428.22412109375Q989.69384765625 433.2705078125 983.076416015625 436.126953125Q976.458984375 438.9833984375 968.841796875 438.9833984375Q961.224609375 438.9833984375 954.607177734375 436.126953125Q947.98974609375 433.2705078125 942.943359375 428.22412109375Q937.89697265625 423.177734375 935.04052734375 416.5126953125Q932.18408203125 409.84765625 932.18408203125 402.32568359375Q932.18408203125 394.70849609375 935.04052734375 388.04345703125Q937.89697265625 381.37841796875 942.943359375 376.33203125Q947.98974609375 371.28564453125 954.607177734375 368.476806640625Q961.224609375 365.66796875 968.841796875 365.66796875Q976.458984375 365.66796875 983.076416015625 368.476806640625Q989.69384765625 371.28564453125 994.740234375 376.33203125Q999.78662109375 381.37841796875 1002.64306640625 388.04345703125Q1005.49951171875 394.70849609375 1005.49951171875 402.32568359375Z" fill="#000000" />
<path d="M612 585Q612 567 630 567Q648 567 648 585V910Q652 915 656 916Q660 916 667 909V585Q667 567 685 567Q703 567 703 585V916Q703 922 700 927Q678 956 651 952Q628 948 614 925Q612 921 612 916Z" fill="#000000" />
</g></svg>