<svg xmlns="http://www.w3.org/2000/svg" viewBox="0 0 2048 2048">
<g transform="matrix(1 0 0 -1 0 2048)">
<path d="M528 878 495 935Q481 949 467.5 951.0Q454 953 440 953Q418 953 402.5 937.0Q387 921 378 902Q369 884 372.5 861.0Q376 838 403 829Q423 822 444.0 817.0Q465 812 480 799Q501 783 505.0 756.5Q509 730 508 710L581 717Q572 737 587.0 750.0Q602 763 626.5 773.5Q651 784 673.0 794.5Q695 805 700 820L642 851Q651 852 666.5 858.0Q682 864 693 893Q704 922 679.0 942.5Q654 963 612 959Q585 957 564.5 939.5Q544 922 534.0 903.5Q524 885 528 878Z" fill="#d0cfce" />
<path d="M524 919 509 943Q508 945 507 947Q484 970 440 970Q393 970 363 909Q363 909 363 909Q351 883 357 857Q364 825 398 813Q406 810 424 805Q459 796 470 786Q495 766 491 711Q491 709 491 708Q492 700 497 696Q501 692 509 693L583 700Q585 701 588 702Q603 709 596 724Q592 733 603 742Q614 750 649 766Q707 791 716 814Q721 827 708 834L681 848Q699 862 708 887Q724 927 689 955Q659 980 611 975Q567 972 534 933Q528 925 524 919ZM542 886Q541 889 559 911Q584 940 613 942Q614 942 614 942Q648 946 668 930Q684 916 678 899Q667 871 641 867Q640 867 639 867Q631 866 628 861Q624 856 625 848Q627 840 634 836L674 815Q661 807 636 796Q596 779 582 767Q562 751 561 731L525 728Q524 786 491 812Q474 826 432 837Q416 842 409 844Q392 850 389 865Q385 879 393 895Q414 937 440 937Q468 937 482 925L514 870Q518 863 524 861Q529 860 536 864Q550 872 542 886Z" fill="#d0cfce" />
<path d="M1155 0H165L312 202L348 422L444 640L587 605L660 642L733 422L660 642L733 422H825L972 312L1034 145Z" fill="#9b9b9a" />
<path d="M618 636Q608 639 600.5 637.5Q593 636 574 634Q564 633 554.5 638.5Q545 644 528.5 650.0Q512 656 479 658Q458 659 451.0 651.5Q444 644 441.5 635.5Q439 627 435 625Q401 608 398 587Q395 565 399.0 554.5Q403 544 409.0 532.5Q415 521 418 493Q421 466 422.0 435.0Q423 404 420 383Q417 365 412.0 357.5Q407 350 401.0 345.5Q395 341 389.5 333.5Q384 326 381 310Q375 277 375.5 270.0Q376 263 380.0 267.0Q384 271 387 271Q388 271 389.5 258.5Q391 246 395.0 230.5Q399 215 405.0 205.0Q411 195 420 200Q435 209 439.5 225.0Q444 241 444.0 259.5Q444 278 444.5 294.5Q445 311 453 321Q461 332 470.5 327.5Q480 323 489.0 313.0Q498 303 504.0 296.0Q510 289 512 293Q516 305 511.5 325.5Q507 346 498.5 369.5Q490 393 482.0 415.5Q474 438 471 453Q468 478 470.0 507.0Q472 536 481.0 558.5Q490 581 508 589Q522 594 538.0 590.0Q554 586 565 578Q569 575 578.0 566.5Q587 558 589 545Q591 529 581.5 519.0Q572 509 561 484Q558 476 552.5 455.0Q547 434 554 409Q556 402 561.5 390.5Q567 379 578 376Q591 372 607.0 386.5Q623 401 627 420Q630 433 626.5 441.5Q623 450 619.5 457.5Q616 465 620 475Q627 491 635.5 496.0Q644 501 651 519Q651 522 651.0 529.0Q651 536 645 556Q639 577 638.0 593.5Q637 610 634.0 621.0Q631 632 618 636Z" fill="#ea5a47" />
<path d="M1142 6Q1154 -8 1168 5Q1181 18 1168 31L1050 155L989 318Q982 335 965 329Q948 322 954 305L1017 138Q1018 135 1021 132Z" fill="#000000" />
<path d="M457 635Q464 652 447 659Q430 666 423 649L331 429Q331 427 330 425L294 209L151 30Q145 23 146 16Q146 10 154 4Q168 -7 179 7L326 190Q329 194 330 199L366 417Z" fill="#000000" />
<path d="M716 416Q722 398 739 404Q757 410 751 427L677 647Q672 665 654 659Q653 659 652 658L622 643Q606 635 614 619Q618 611 625 609Q631 607 639 611L649 616Z" fill="#000000" />
<path d="M733 440Q715 440 715 422Q715 403 733 403H819L952 304L935 205Q935 201 935 198L952 116L867 31Q854 18 867 5Q880 -8 893 5L985 97Q992 104 990 114L972 202L990 309Q992 320 983 326L836 436Q831 440 825 440Z" fill="#000000" />
<path d="M622 652Q611 655 592 653Q581 651 572 651Q569 650 558 656Q523 672 479 675Q439 676 425 640Q425 639 424 639Q385 618 381 589Q378 561 390 535Q399 514 402 492Q408 423 404 386Q401 367 389 357Q370 340 365 313Q358 276 360 265Q361 258 366 254Q370 250 374 249Q379 226 383 213Q388 198 396 191Q410 176 428 185Q428 185 428 186Q460 204 461 272Q461 304 466 311Q466 311 466 311Q466 311 467 310Q473 307 486 292Q493 284 496 281Q502 276 509 275Q523 274 527 288Q536 314 505 401Q490 442 487 455Q473 556 514 573Q533 581 555 564Q555 564 556 564Q571 553 572 543Q572 542 572 542Q573 536 564 523Q552 505 546 491Q546 490 545 489Q545 488 544 486Q528 440 538 404Q538 404 538 403Q539 402 540 399Q552 365 573 360Q595 353 618 374Q638 392 643 416Q647 434 638 456Q634 465 635 469Q638 476 646 484Q660 497 666 513Q667 516 667 519V520Q668 535 661 560Q657 574 654 599Q649 644 622 652ZM613 620Q619 619 621 595Q624 568 630 551Q635 532 634 523Q631 515 623 508Q610 495 604 481Q604 481 604 480Q598 464 607 443Q613 431 611 423Q608 409 596 398Q587 390 582 392Q582 392 581 392Q577 393 571 411Q570 413 569 414Q563 439 575 475Q576 477 576 478Q582 490 592 504Q608 528 605 547Q602 572 574 591Q538 618 502 604Q437 577 455 451Q455 450 455 450Q458 434 474 390Q486 355 492 333Q488 336 485 338Q458 355 440 331Q428 316 428 272Q427 232 416 219Q415 221 414 224Q410 237 405 265Q402 282 394 286Q395 294 398 307Q398 307 398 307Q400 323 411 332Q431 350 436 381Q442 422 434 495Q432 523 420 549Q412 566 414 585Q416 597 442 610Q450 614 456 628Q461 642 478 642Q515 640 544 626Q563 617 575 618Q585 619 597 620Q608 622 613 620ZM496 299Q496 299 496 299Q496 298 496 298Q496 299 496 299Z" fill="#000000" />
<path d="M426 742Q430 724 448 728Q466 733 461 751Q453 783 408 795Q369 806 321 795Q303 791 307 773Q309 764 314 761Q319 757 328 759Q368 768 399 760Q423 753 426 742Z" fill="#000000" />
<path d="M631 713Q616 703 627 688Q637 673 652 684Q683 705 722 695Q763 684 790 646Q800 631 815 641Q823 646 824 653Q825 659 820 667Q786 716 731 730Q675 745 631 713Z" fill="#000000" />
<path d="M405 668Q417 654 431 667Q444 679 431 693Q392 735 325 728Q238 719 220 606Q217 588 235 585Q245 584 250 587Q255 591 256 600Q270 686 329 691Q378 696 405 668Z" fill="#000000" />
<path d="M482 922Q495 909 508 922Q514 929 514 935Q514 941 508 948Q484 972 440 972Q393 972 362 913Q361 912 361 912Q349 885 355 859Q363 825 397 813Q406 810 424 805Q458 796 469 787Q490 770 490 711Q490 693 508 693Q526 693 526 711Q526 788 492 815Q475 829 434 840Q417 845 410 848Q410 848 409 848Q394 853 390 867Q387 881 394 896Q415 935 440 935Q469 935 482 922Z" fill="#000000" />
<path d="M637 871Q619 868 622 850Q623 841 628 837Q633 833 642 834Q643 834 644 835Q690 841 708 888Q724 929 689 958Q657 984 609 979Q565 975 531 934Q496 892 511 870Q516 862 522 861Q529 860 536 865Q544 870 545 876Q546 883 541 890L545 889Q550 900 559 911Q583 940 612 942Q646 946 665 930Q680 918 674 901Q664 874 639 871Q638 871 637 871Z" fill="#000000" />
<path d="M563 709Q570 693 587 700Q595 704 598 710Q600 716 596 724Q593 732 602 740Q613 749 648 764Q707 790 716 813Q722 830 705 837Q696 840 691 837Q685 835 681 826Q678 817 633 798Q594 780 579 769Q548 743 563 709Z" fill="#000000" />
</g></svg>