<svg xmlns="http://www.w3.org/2000/svg" viewBox="0 0 2048 2048">
<g transform="matrix(1 0 0 -1 0 2048)">
<path d="M660 898Q691 898 722 894Q688 898 653 898Q657 898 660 898ZM798 879Q881 856 950.0 808.5Q1019 761 1069.0 695.0Q1119 629 1146.0 550.0Q1173 471 1173 385Q1173 282 1135.5 191.5Q1098 101 1031.0 31.0Q964 -39 875.5 -80.5Q787 -122 684 -127Q602 -103 533.5 -55.5Q465 -8 415.5 57.5Q366 123 339.0 202.0Q312 281 312 367Q312 469 349.0 559.5Q386 650 452.5 720.0Q519 790 607.5 832.0Q696 874 798 879ZM148 403Q147 382 148 360Q147 373 146 385Q147 394 148 403Z" fill="#000000" />
<path d="M1172.8749389648438 385.05731201171875Q1172.8749389648438 491.0567626953125 1132.9939575195312 584.4622192382812Q1093.1129760742188 677.86767578125 1022.7965087890625 748.1841430664062Q952.4800415039062 818.5006103515625 859.0745849609375 858.381591796875Q765.6691284179688 898.2625732421875 659.669677734375 898.2625732421875Q553.6702270507812 898.2625732421875 460.2647705078125 858.381591796875Q366.85931396484375 818.5006103515625 296.5428466796875 748.1841430664062Q226.22637939453125 677.86767578125 186.34539794921875 584.4622192382812Q146.46441650390625 491.0567626953125 146.46441650390625 385.05731201171875Q146.46441650390625 279.057861328125 186.34539794921875 185.65240478515625Q226.22637939453125 92.2469482421875 296.5428466796875 21.93048095703125Q366.85931396484375 -48.385986328125 460.2647705078125 -88.2669677734375Q553.6702270507812 -128.14794921875 659.669677734375 -128.14794921875Q765.6691284179688 -128.14794921875 859.0745849609375 -88.2669677734375Q952.4800415039062 -48.385986328125 1022.7965087890625 21.93048095703125Q1093.1129760742188 92.2469482421875 1132.9939575195312 185.65240478515625Q1172.8749389648438 279.057861328125 1172.8749389648438 385.05731201171875Z" fill="#3f3f3f" />
<path d="M1192 385Q1192 605 1036 761Q880 917 660 917Q440 917 284 761Q128 605 128 385Q128 165 284 9Q440 -147 660 -147Q880 -147 1036 9Q1192 165 1192 385ZM1155 385Q1155 180 1010 35Q865 -110 660 -110Q455 -110 310 35Q165 180 165 385Q165 590 310 735Q455 880 660 880Q865 880 1010 735Q1155 590 1155 385Z" fill="#3f3f3f" />
<path d="M312.0 367.0Q312.0 280.0 339.0 201.0Q366.0 122.0 416.0 56.5Q466.0 -9.0 535.0 -56.5Q604.0 -104.0 687.0 -128.0Q673.0 -128.0 660.0 -128.0Q560.0 -128.0 469.5 -91.5Q379.0 -55.0 307.5 12.0Q236.0 79.0 194.0 170.0Q152.0 261.0 147.0 358.5Q142.0 456.0 173.0 549.0Q204.0 642.0 269.0 718.0Q334.0 794.0 421.0 839.5Q508.0 885.0 605.0 895.5Q702.0 906.0 798.0 879.0Q696.0 874.0 607.5 832.0Q519.0 790.0 452.5 720.0Q386.0 650.0 349.0 559.5Q312.0 469.0 312.0 367.0Z" fill="#fcea2b" />
<path d="M1192 385Q1192 605 1036 761Q880 917 660 917Q440 917 284 761Q128 605 128 385Q128 165 284 9Q440 -147 660 -147Q880 -147 1036 9Q1192 165 1192 385ZM1155 385Q1155 180 1010 35Q865 -110 660 -110Q455 -110 310 35Q165 180 165 385Q165 590 310 735Q455 880 660 880Q865 880 1010 735Q1155 590 1155 385Z" fill="#000000" />
<path d="M431 68Q330 200 330 367Q330 564 466 707Q602 851 799 861Q818 862 817 880Q816 893 803 897Q654 939 505 893Q356 848 255 730Q154 611 133 457Q112 303 177 162Q243 21 374 -63Q504 -147 660 -147Q674 -147 688 -146Q706 -145 705 -127Q704 -114 692 -110Q531 -65 431 68ZM293 367Q293 188 401 45Q474 -50 574 -103Q478 -86 393 -32Q271 46 211 177Q150 309 170 452Q189 596 283 706Q377 816 516 858Q599 884 682 880Q544 843 439 733Q293 579 293 367Z" fill="#000000" />
</g></svg>