<svg xmlns="http://www.w3.org/2000/svg" viewBox="0 0 2048 2048">
<g transform="matrix(1 0 0 -1 0 2048)">
<path d="M596 807 212 37Q202 20 202 1Q202 -30 223.5 -51.5Q245 -73 276 -73H1044Q1075 -73 1096.5 -51.5Q1118 -30 1118 1Q1118 20 1108 38L724 807Q714 823 697.5 833.5Q681 844 660 844Q639 844 622.5 833.5Q606 823 596 807Z" fill="#fcea2b" />
<path d="M690 178V607Q690 619 681.0 628.0Q672 637 660 637Q648 637 639.0 628.0Q630 619 630 607V178Q630 166 639.0 157.5Q648 149 660 149Q672 149 681.0 157.5Q690 166 690 178Z" fill="#ffffff" />
<path d="M689.8800048828125 44.99981689453125Q689.8800048828125 51.10107421875 687.5657348632812 56.465972900390625Q685.25146484375 61.83087158203125 681.1839599609375 65.89837646484375Q677.116455078125 69.96588134765625 671.7515563964844 72.2801513671875Q666.3866577148438 74.59442138671875 660.285400390625 74.59442138671875Q654.1841430664062 74.59442138671875 648.8192443847656 72.2801513671875Q643.454345703125 69.96588134765625 639.3868408203125 65.89837646484375Q635.3193359375 61.83087158203125 633.0050659179688 56.465972900390625Q630.6907958984375 51.10107421875 630.6907958984375 44.99981689453125Q630.6907958984375 38.8985595703125 633.0050659179688 33.533660888671875Q635.3193359375 28.16876220703125 639.3868408203125 24.10125732421875Q643.454345703125 20.03375244140625 648.8192443847656 17.719482421875Q654.1841430664062 15.40521240234375 660.285400390625 15.40521240234375Q666.3866577148438 15.40521240234375 671.7515563964844 17.719482421875Q677.116455078125 20.03375244140625 681.1839599609375 24.10125732421875Q685.25146484375 28.16876220703125 687.5657348632812 33.533660888671875Q689.8800048828125 38.8985595703125 689.8800048828125 44.99981689453125Z" fill="#ffffff" />
<path d="M580 815Q579 814 579 813L196 46Q183 25 183 1Q183 -38 210 -65Q237 -92 276 -92L1044 -91Q1083 -91 1110 -64Q1137 -37 1137 1Q1137 25 1124 46L740 815Q740 815 740 816Q713 862 660 862Q609 862 582 818Q581 817 580 815ZM612 798Q629 825 660 825Q691 825 708 798L1092 30Q1092 29 1092 29Q1100 15 1100 1Q1100 -55 1044 -55H276Q220 -55 220 1Q220 15 228 28Q228 29 228 29Z" fill="#000000" />
<path d="M708 178V607Q708 655 660 655Q640 655 626 641Q612 627 612 607V178Q612 130 660 130Q680 130 694 145Q708 159 708 178ZM671 178Q671 167 660 167Q649 167 649 178V607Q649 618 660 618Q671 618 671 607Z" fill="#000000" />
<path d="M708 45Q708 93 660 93Q640 93 626 79Q612 65 612 45Q612 25 626 11Q640 -3 660 -3Q708 -3 708 45ZM671 45Q671 34 660 34Q649 34 649 45Q649 57 660 57Q671 57 671 45Z" fill="#000000" />
</g></svg>