<svg xmlns="http://www.w3.org/2000/svg" viewBox="0 0 2048 2048">
<g transform="matrix(1 0 0 -1 0 2048)">
<path d="M930 266Q944 278 932 292Q920 306 906 294Q886 276 858 276Q829 276 808 297Q787 318 787 347V420Q787 449 808 470Q829 491 858 491Q886 491 906 473Q920 461 932 475Q944 489 930 501Q900 528 858 528Q813 528 782 496Q750 465 750 420V347Q750 302 782 271Q813 239 858 239Q900 239 930 266Z" fill="#000000" />
<path d="M708 505Q711 514 707 519Q704 525 695 527Q678 532 673 515L618 324L564 515Q559 532 541 527Q531 525 528 515L474 324L419 515Q414 532 397 527Q379 522 384 505L456 252Q459 242 469 240Q478 237 483 240Q489 243 492 252L546 443L601 252Q603 242 613 240Q631 235 636 252Z" fill="#000000" />
<path d="M1099.303466796875 -73.3028564453125Q1107.638427734375 -73.3028564453125 1112.8477783203125 -68.093505859375Q1118.05712890625 -62.8841552734375 1118.05712890625 -54.5491943359375V824.7891845703125Q1118.05712890625 833.1241455078125 1112.8477783203125 838.33349609375Q1107.638427734375 843.5428466796875 1099.303466796875 843.5428466796875H219.965087890625Q211.630126953125 843.5428466796875 206.4207763671875 838.33349609375Q201.21142578125 833.1241455078125 201.21142578125 824.7891845703125V-54.5491943359375Q201.21142578125 -62.8841552734375 206.4207763671875 -68.093505859375Q211.630126953125 -73.3028564453125 219.965087890625 -73.3028564453125Z" fill="#61b2e4" />
<path d="M930 266Q944 278 932 292Q920 306 906 294Q886 276 858 276Q829 276 808 297Q787 318 787 347V420Q787 449 808 470Q829 491 858 491Q886 491 906 473Q920 461 932 475Q944 489 930 501Q900 528 858 528Q813 528 782 496Q750 465 750 420V347Q750 302 782 271Q813 239 858 239Q900 239 930 266Z" fill="#ffffff" />
<path d="M708 505Q711 514 707 519Q704 525 695 527Q678 532 673 515L618 324L564 515Q559 532 541 527Q531 525 528 515L474 324L419 515Q414 532 397 527Q379 522 384 505L456 252Q459 242 469 240Q478 237 483 240Q489 243 492 252L546 443L601 252Q603 242 613 240Q631 235 636 252Z" fill="#ffffff" />
<path d="M1100 -92Q1137 -92 1137 -55V825Q1137 862 1100 862H220Q183 862 183 825V-55Q183 -92 220 -92ZM1100 -55H220V825H1100Z" fill="#000000" />
</g></svg>