<svg xmlns="http://www.w3.org/2000/svg" viewBox="0 0 2048 2048">
<g transform="matrix(1 0 0 -1 0 2048)">
<path d="M408 377 409 724Q436 741 478.0 757.0Q520 773 572.0 775.0Q624 777 680 752Q706 740 729.0 725.5Q752 711 781.0 698.5Q810 686 853.0 679.0Q896 672 963 676Q974 677 982.0 669.5Q990 662 990 650Q990 628 990.0 592.5Q990 557 990.0 516.5Q990 476 990.0 438.0Q990 400 990 373Q990 365 984.5 358.5Q979 352 972 348Q944 335 870.0 342.0Q796 349 680 403Q648 418 606.0 425.5Q564 433 513.5 423.5Q463 414 408 377Z" fill="#000000" />
<path d="M408 377Q463 414 513.5 423.5Q564 433 606.0 425.5Q648 418 680 403Q796 349 870.0 342.0Q944 335 972 348Q979 352 984.5 358.5Q990 365 990 373Q990 400 990.0 438.0Q990 476 990.0 516.5Q990 557 990.0 592.5Q990 628 990 650Q990 662 982.0 669.5Q974 677 963 676Q896 672 853.0 679.0Q810 686 781.0 698.5Q752 711 729.0 725.5Q706 740 680 752Q624 777 572.0 775.0Q520 773 478.0 757.0Q436 741 409 724Z" fill="#3f3f3f" />
<path d="M414 740Q398 730 408 715Q417 699 433 709Q562 789 680 735Q694 728 721 712Q825 649 964 658Q967 658 969 656Q972 654 972 650V373Q972 369 964 365Q890 327 695 420Q553 488 412 392Q405 387 403 381Q402 374 407 367Q412 359 419 358Q425 357 433 362Q556 446 680 387Q891 286 981 332Q1008 346 1008 373V650Q1008 669 995 682Q981 696 962 695Q834 687 740 744Q711 761 695 768Q559 831 414 740Z" fill="#000000" />
<path d="M373 809Q373 827 354 827Q336 827 336 809V-52Q336 -70 354 -70Q373 -70 373 -52Z" fill="#000000" />
</g></svg>