<svg xmlns="http://www.w3.org/2000/svg" viewBox="0 0 2048 2048">
<g transform="matrix(1 0 0 -1 0 2048)">
<path d="M638 853 176 517Q154 501 163 476L339 -68Q347 -93 374 -93H946Q973 -93 981 -68L1157 476Q1166 501 1144 517L682 853Q660 869 638 853Z" fill="#ffffff" />
<path d="M628 868 165 532Q133 509 145 471L322 -73Q334 -111 374 -111H946Q986 -111 998 -73L1175 471Q1187 509 1155 532L693 868Q660 892 628 868ZM649 838Q660 846 671 838L1134 502Q1144 495 1140 482L964 -62Q959 -74 946 -74H374Q361 -74 357 -62L180 482Q176 495 187 502Z" fill="#000000" />
</g></svg>