<svg xmlns="http://www.w3.org/2000/svg" viewBox="0 0 2048 2048">
<g transform="matrix(1 0 0 -1 0 2048)">
<path d="M1082 385Q1082 472 1049.0 548.5Q1016 625 958.0 683.0Q900 741 823.5 774.0Q747 807 660 807Q573 807 496.5 774.0Q420 741 362.0 683.0Q304 625 271.0 548.5Q238 472 238 385Q238 298 271.0 221.5Q304 145 362.0 87.0Q420 29 496.5 -4.0Q573 -37 660 -37Q747 -37 823.5 -4.0Q900 29 958.0 87.0Q1016 145 1049.0 221.5Q1082 298 1082 385Z" fill="#fcea2b" />
<path d="M701 110H615L558 134L533 189H716L784 190L778 161L757 134Z" fill="#ea5a47" />
<path d="M361 499Q356 482 374 477Q391 472 396 490Q406 526 437 546Q438 546 439 547Q468 570 505 568Q524 567 525 585Q526 604 508 605Q457 608 417 576Q374 548 361 499Z" fill="#000000" />
<path d="M922 462Q935 449 948 462Q961 475 948 488Q868 567 770 513Q762 508 760 502Q759 496 763 488Q772 472 788 480Q862 522 922 462Z" fill="#000000" />
<path d="M803 206Q803 224 784 224Q766 224 766 206Q766 172 741 152Q712 128 657 128Q548 128 548 206Q548 215 543 220Q539 224 530 224Q511 224 511 206Q511 91 657 91Q725 91 764 123Q803 155 803 206Z" fill="#000000" />
<path d="M537 223Q519 229 513 212Q510 203 513 198Q516 192 524 189Q660 140 789 188Q806 194 800 211Q794 228 776 222Q660 179 537 223Z" fill="#000000" />
<path d="M852 372Q867 362 877 378Q887 393 872 403Q843 421 810 423Q809 423 809 423Q774 422 743 407Q726 399 734 382Q743 366 759 374Q783 386 809 386Q832 385 852 372Z" fill="#000000" />
<path d="M570.0615234375 397.19287109375Q570.0615234375 408.53515625 565.75927734375 418.508544921875Q561.45703125 428.48193359375 553.8955078125 436.04345703125Q546.333984375 443.60498046875 536.360595703125 447.9072265625Q526.38720703125 452.20947265625 515.044921875 452.20947265625Q503.70263671875 452.20947265625 493.729248046875 447.9072265625Q483.755859375 443.60498046875 476.1943359375 436.04345703125Q468.6328125 428.48193359375 464.33056640625 418.508544921875Q460.0283203125 408.53515625 460.0283203125 397.19287109375Q460.0283203125 385.8505859375 464.33056640625 375.877197265625Q468.6328125 365.90380859375 476.1943359375 358.34228515625Q483.755859375 350.78076171875 493.729248046875 346.478515625Q503.70263671875 342.17626953125 515.044921875 342.17626953125Q526.38720703125 342.17626953125 536.360595703125 346.478515625Q546.333984375 350.78076171875 553.8955078125 358.34228515625Q561.45703125 365.90380859375 565.75927734375 375.877197265625Q570.0615234375 385.8505859375 570.0615234375 397.19287109375Z" fill="#000000" />
<path d="M1100 385Q1100 567 971 696Q842 825 660 825Q478 825 349 696Q220 567 220 385Q220 203 349 74Q478 -55 660 -55Q842 -55 971 74Q1100 203 1100 385ZM1063 385Q1063 218 945 100Q827 -18 660 -18Q493 -18 375 100Q257 218 257 385Q257 552 375 670Q493 788 660 788Q827 788 945 670Q1063 552 1063 385Z" fill="#000000" />
</g></svg>