<svg xmlns="http://www.w3.org/2000/svg" viewBox="0 0 2048 2048">
<g transform="matrix(1 0 0 -1 0 2048)">
<path d="M976 931Q1000 946 1019.0 940.5Q1038 935 1051.0 921.5Q1064 908 1070.0 895.5Q1076 883 1076 883Q1076 883 1079.5 864.0Q1083 845 1087.5 817.5Q1092 790 1096.0 765.0Q1100 740 1102 728Q1103 716 1098.0 692.0Q1093 668 1084.5 638.0Q1076 608 1067.5 578.0Q1059 548 1054 524Q1050 505 1053.5 473.5Q1057 442 1064.5 406.5Q1072 371 1080.5 340.0Q1089 309 1095.5 289.0Q1102 269 1102 269L989 122L904 57Q884 42 863 29L838 14Q813 -35 786.0 -59.5Q759 -84 734.5 -92.0Q710 -100 690.5 -98.0Q671 -96 659.5 -91.0Q648 -86 648 -86Q606 -97 573.0 -89.5Q540 -82 516.0 -65.5Q492 -49 476.5 -30.0Q461 -11 453.5 3.0Q446 17 446 17L440 21Q396 51 356 87L263 172L196 279Q196 279 202.5 297.0Q209 315 218.5 344.5Q228 374 236.5 408.5Q245 443 250.5 475.5Q256 508 254.5 532.0Q253 556 240 564Q222 577 214.5 605.5Q207 634 206.0 665.0Q205 696 206.5 718.0Q208 740 208 740L236 868L263 906L312 894L444 823Q444 823 470.0 837.0Q496 851 540.5 864.5Q585 878 641 878Q683 878 722.5 869.5Q762 861 793.0 849.5Q824 838 842.5 829.5Q861 821 861 821Z" fill="#9b9b9a" />
<path d="M200 252 188 270Q180 281 184 294L217 399Q217 400 217 402L239 524Q240 532 238 539L208 616Q206 619 206 623L193 743Q192 747 193 752L219 867Q220 872 223 876L253 922Q262 936 279 935L304 933Q314 933 321 926L422 833Q434 822 450 827L583 872Q588 874 594 873L754 862Q758 862 761 860L844 832Q854 828 864 832L878 838Q885 840 889 846L956 924Q966 935 980 934L1002 932Q1032 930 1049 906Q1051 903 1053 900L1075 844Q1076 841 1077 838L1100 708Q1101 703 1099 697L1063 549L1051 500Q1050 494 1051 487L1099 281Q1102 269 1095 258Q1084 243 1066.0 246.5Q1048 250 1043 267Q1031 316 1006.5 341.5Q982 367 955.0 376.5Q928 386 905.5 386.5Q883 387 875 386Q871 385 866 386L808 395Q807 396 805 396L751 398Q738 399 729 389L693 351Q687 345 686 337Q676 280 682.5 236.0Q689 192 698 166Q701 156 694.0 148.0Q687 140 677 142Q657 146 637 146Q615 146 601.5 164.0Q588 182 593 204Q602 244 600.0 283.0Q598 322 595 337Q594 344 590 349L562 389Q553 402 537 401L414 394Q376 396 344.0 372.5Q312 349 288.0 315.5Q264 282 249 255Q241 240 225.0 239.5Q209 239 200 252Z" fill="#3f3f3f" />
<path d="M536 72 535 56 583 29 597 1Q597 1 608.0 -3.5Q619 -8 632.0 -13.0Q645 -18 652 -20Q658 -22 666.5 -17.5Q675 -13 681.5 -7.5Q688 -2 688 -2L706 28L747 56L746 70Q699 89 661.5 92.0Q624 95 597.0 90.0Q570 85 555.5 79.0Q541 73 541 73Z" fill="#3f3f3f" />
<path d="M1013 885Q1013 838 992.5 800.5Q972 763 946.5 736.0Q921 709 901.5 695.0Q882 681 882 681Q906 682 931.5 664.5Q957 647 978.5 623.5Q1000 600 1013.5 582.0Q1027 564 1027 564Q1052 614 1058.0 660.5Q1064 707 1058.0 748.0Q1052 789 1041.5 819.5Q1031 850 1022.0 867.5Q1013 885 1013 885Z" fill="#9b9b9a" />
<path d="M270.0 885.0Q270.0 838.0 290.5 800.5Q311.0 763.0 336.5 736.0Q362.0 709.0 381.5 695.0Q401.0 681.0 401.0 681.0Q377.0 682.0 351.5 664.5Q326.0 647.0 304.5 623.5Q283.0 600.0 269.5 582.0Q256.0 564.0 256.0 564.0Q231.0 614.0 225.0 660.5Q219.0 707.0 225.0 748.0Q231.0 789.0 241.5 819.5Q252.0 850.0 261.0 867.5Q270.0 885.0 270.0 885.0Z" fill="#9b9b9a" />
<path d="M535 -93 747 -97Q751 -136 725 -157Q714 -166 700.5 -169.5Q687 -173 673 -172L600 -168Q578 -167 563 -157Q537 -140 535 -93Z" fill="#9b9b9a" />
<path d="M517.49951171875 306.32568359375Q517.49951171875 313.84765625 514.64306640625 320.5126953125Q511.78662109375 327.177734375 506.740234375 332.22412109375Q501.69384765625 337.2705078125 495.076416015625 340.126953125Q488.458984375 342.9833984375 480.841796875 342.9833984375Q473.224609375 342.9833984375 466.607177734375 340.126953125Q459.98974609375 337.2705078125 454.943359375 332.22412109375Q449.89697265625 327.177734375 447.04052734375 320.5126953125Q444.18408203125 313.84765625 444.18408203125 306.32568359375Q444.18408203125 298.70849609375 447.04052734375 292.04345703125Q449.89697265625 285.37841796875 454.943359375 280.33203125Q459.98974609375 275.28564453125 466.607177734375 272.476806640625Q473.224609375 269.66796875 480.841796875 269.66796875Q488.458984375 269.66796875 495.076416015625 272.476806640625Q501.69384765625 275.28564453125 506.740234375 280.33203125Q511.78662109375 285.37841796875 514.64306640625 292.04345703125Q517.49951171875 298.70849609375 517.49951171875 306.32568359375Z" fill="#000000" />
<path d="M848.49951171875 302.32568359375Q848.49951171875 309.84765625 845.64306640625 316.5126953125Q842.78662109375 323.177734375 837.740234375 328.22412109375Q832.69384765625 333.2705078125 826.076416015625 336.126953125Q819.458984375 338.9833984375 811.841796875 338.9833984375Q804.224609375 338.9833984375 797.607177734375 336.126953125Q790.98974609375 333.2705078125 785.943359375 328.22412109375Q780.89697265625 323.177734375 778.04052734375 316.5126953125Q775.18408203125 309.84765625 775.18408203125 302.32568359375Q775.18408203125 294.70849609375 778.04052734375 288.04345703125Q780.89697265625 281.37841796875 785.943359375 276.33203125Q790.98974609375 271.28564453125 797.607177734375 268.476806640625Q804.224609375 265.66796875 811.841796875 265.66796875Q819.458984375 265.66796875 826.076416015625 268.476806640625Q832.69384765625 271.28564453125 837.740234375 276.33203125Q842.78662109375 281.37841796875 845.64306640625 288.04345703125Q848.49951171875 294.70849609375 848.49951171875 302.32568359375Z" fill="#000000" />
<path d="M547 71Q531 81 522 65Q517 57 519 51Q520 44 528 40L565 18Q576 -33 623 -39V-74Q575 -93 536 -62Q498 -32 475 18Q471 26 465 28Q459 30 451 26Q434 19 442 2Q469 -55 513 -90Q575 -140 649 -102Q659 -97 659 -86V-21Q659 -20 659 -19Q658 -10 654 -6Q649 -2 639 -2Q605 -5 599 33Q598 41 590 46Z" fill="#000000" />
<path d="M394 50Q402 47 408 50Q414 53 416 62Q421 80 404 85Q313 110 270 178Q270 178 270 179L202 272Q250 400 247 529Q246 533 244 537Q193 632 199 747Q204 825 213 837Q215 839 216 842Q216 842 216 843Q238 914 270 930Q288 938 306 929Q309 928 311 924Q371 829 495 761Q503 757 509 759Q516 760 520 768Q529 784 513 793Q397 857 342 944Q335 956 322 962Q288 979 254 963Q208 941 182 856Q167 832 163 749Q156 626 210 523Q213 399 164 276Q160 266 166 258L240 158Q290 79 394 50Z" fill="#000000" />
<path d="M305 877Q304 895 285 894Q267 893 268 875Q270 838 289 794Q317 727 373 690Q278 654 260 574Q258 565 261 559Q265 554 274 552Q291 548 296 565Q313 640 425 668Q434 670 437 679Q444 696 427 703Q355 733 322 808Q306 846 305 877Z" fill="#000000" />
<path d="M1024 875Q1024 884 1020 889Q1016 894 1007 894Q988 895 987 877Q986 846 970 808Q937 733 865 703Q848 696 855 679Q858 670 867 668Q979 640 996 565Q999 556 1004 553Q1010 550 1018 552Q1036 556 1032 574Q1014 654 919 690Q975 727 1003 794Q1022 838 1024 875Z" fill="#000000" />
<path d="M552 312Q542 296 558 287Q566 282 572 283Q578 285 583 293Q597 316 601 343Q610 404 550 424Q491 443 421 403Q406 394 415 378Q424 362 440 371Q495 403 539 389Q569 379 565 348Q562 329 552 312Z" fill="#000000" />
<path d="M656 -69Q640 -61 631 -78Q623 -94 639 -102Q714 -140 775 -90Q820 -55 847 2Q854 19 838 26Q829 30 823 28Q817 26 813 18Q790 -32 753 -62Q709 -96 656 -69Z" fill="#000000" />
<path d="M754 39Q771 47 762 64Q754 80 738 72L687 46Q677 41 676 31Q676 21 671 12Q662 -4 642 -2Q624 -1 623 -19Q621 -37 639 -39Q683 -42 703 -6Q709 6 712 18Z" fill="#000000" />
<path d="M776 787Q760 778 769 762Q777 746 794 755Q921 825 979 922Q992 930 1008 927Q1047 921 1073 837Q1073 836 1073 836Q1086 798 1089 740Q1096 625 1044 531Q1042 527 1042 522Q1041 389 1088 271L1008 156Q965 101 885 79Q867 74 872 56Q877 38 895 43Q987 69 1037 134Q1037 135 1038 135L1124 259Q1129 267 1126 276Q1078 389 1079 517Q1133 619 1126 743Q1123 805 1108 848Q1075 953 1013 963Q980 969 955 949Q952 947 950 944Q897 853 776 787Z" fill="#000000" />
<path d="M706 286Q715 271 731 280Q747 290 737 306Q726 323 724 342Q719 373 750 383Q793 397 849 365Q865 356 874 371Q883 387 867 396Q797 437 739 417Q678 398 687 337Q691 310 706 286Z" fill="#000000" />
<path d="M442 850Q427 840 438 825Q448 810 463 820Q496 843 560 855Q689 880 837 818Q845 815 851 817Q857 820 861 828Q868 845 851 852Q693 918 553 891Q482 878 442 850Z" fill="#000000" />
<path d="M584 -147Q576 -142 569 -144Q563 -146 559 -154Q550 -170 566 -179Q646 -222 726 -179Q742 -170 733 -154Q724 -138 708 -147Q646 -181 584 -147Z" fill="#000000" />
</g></svg>