<svg xmlns="http://www.w3.org/2000/svg" viewBox="0 0 2048 2048">
<g transform="matrix(1 0 0 -1 0 2048)">
<path d="M1118.62890625 368.26776123046875Q1118.62890625 462.8345947265625 1082.7587280273438 545.9881896972656Q1046.8885498046875 629.1417846679688 983.843994140625 692.1863403320312Q920.7994384765625 755.2308959960938 838.1893310546875 791.10107421875Q755.5792236328125 826.9712524414062 659.9254150390625 826.9712524414062Q565.3585815429688 826.9712524414062 482.2049865722656 791.10107421875Q399.0513916015625 755.2308959960938 336.0068359375 692.1863403320312Q272.9622802734375 629.1417846679688 237.63558959960938 545.9881896972656Q202.30889892578125 462.8345947265625 202.30889892578125 368.26776123046875Q202.30889892578125 273.700927734375 237.63558959960938 190.54733276367188Q272.9622802734375 107.39373779296875 336.0068359375 44.34918212890625Q399.0513916015625 -18.69537353515625 482.2049865722656 -54.5655517578125Q565.3585815429688 -90.43572998046875 659.9254150390625 -90.43572998046875Q755.5792236328125 -90.43572998046875 838.1893310546875 -54.5655517578125Q920.7994384765625 -18.69537353515625 983.843994140625 44.34918212890625Q1046.8885498046875 107.39373779296875 1082.7587280273438 190.54733276367188Q1118.62890625 273.700927734375 1118.62890625 368.26776123046875Z" fill="#ffffff" />
<path d="M200 369Q200 462 234.5 544.5Q269 627 330.0 690.0Q391 753 472.0 789.5Q553 826 646 829Q649 829 652.5 829.0Q656 829 660 829Q665 829 674 829Q734 825 783.0 793.5Q832 762 861.0 711.0Q890 660 890 599Q890 535 859.0 483.0Q828 431 776.0 400.0Q724 369 660 369Q596 369 544.0 338.0Q492 307 461.0 254.5Q430 202 430 139Q430 77 458.5 26.5Q487 -24 536.0 -56.0Q585 -88 646 -91Q553 -88 472.0 -51.5Q391 -15 330.0 48.0Q269 111 234.5 193.0Q200 275 200 369Z" fill="#3f3f3f" />
<path d="M757.6142578125 147.8553466796875Q758.450439453125 191.19091796875 721.1671142578125 212.8321533203125Q683.8837890625 234.473388671875 646.6309814453125 212.7796630859375Q610.244873046875 191.0865478515625 610.275390625 147.7515869140625Q610.305908203125 104.4166259765625 646.7225341796875 82.7747802734375Q684.005859375 61.133544921875 721.2586669921875 82.8272705078125Q758.511474609375 104.52099609375 757.6142578125 147.8553466796875Z" fill="#3f3f3f" />
<path d="M757.6142578125 607.8553466796875Q758.450439453125 651.19091796875 721.1671142578125 672.8321533203125Q683.8837890625 694.473388671875 646.6309814453125 672.7796630859375Q610.244873046875 651.0865478515625 610.275390625 607.7515869140625Q610.305908203125 564.4166259765625 646.7225341796875 542.7747802734375Q684.005859375 521.133544921875 721.2586669921875 542.8272705078125Q758.511474609375 564.52099609375 757.6142578125 607.8553466796875Z" fill="#ffffff" />
<path d="M411 139Q411 40 479 -32Q547 -104 645 -110H646Q655 -110 660 -110Q665 -110 675 -110Q868 -104 1003 35Q1139 174 1139 369Q1139 563 1003 703Q868 842 675 847Q665 847 661 843Q656 839 656 829Q655 812 673 811Q756 805 814 744Q872 683 872 599Q872 511 810 449Q748 387 660 387Q557 387 484 314Q411 242 411 139ZM448 139Q448 226 510 288Q572 350 660 350Q763 350 836 423Q909 496 909 599Q909 698 841 770Q837 773 834 777Q913 743 977 677Q1102 548 1102 369Q1102 189 977 61Q852 -68 673 -73Q664 -73 660 -73Q656 -73 647 -73Q647 -73 647 -73Q563 -68 506 -7Q448 54 448 139Z" fill="#000000" />
<path d="M181 369Q181 174 317 35Q452 -104 645 -110Q654 -110 659 -105Q664 -101 664 -92Q665 -74 647 -73Q563 -68 506 -7Q448 54 448 139Q448 226 510 288Q572 350 660 350Q763 350 836 423Q909 496 909 599Q909 698 841 770Q773 841 675 847Q665 848 660 848Q650 848 645 847Q451 841 317 702Q181 563 181 369ZM218 369Q218 548 343 677Q468 805 646 810Q647 811 648 811Q651 811 660 811Q664 811 673 811Q756 805 814 744Q872 683 872 599Q872 511 810 449Q748 387 660 387Q557 387 484 314Q411 242 411 139Q411 40 479 -32Q483 -36 486 -39Q407 -5 343 61Q218 189 218 369Z" fill="#000000" />
<path d="M777 148Q777 186 750 213Q723 240 685 240Q647 240 620 213Q593 186 593 148Q593 110 620 83Q647 56 685 56Q723 56 750 83Q777 110 777 148ZM740 148Q740 125 724 109Q708 92 685 92Q662 92 645 109Q629 125 629 148Q629 171 645 187Q662 203 685 203Q708 203 724 187Q740 171 740 148Z" fill="#000000" />
<path d="M777 608Q777 646 750 673Q723 700 685 700Q647 700 620 673Q593 646 593 608Q593 570 620 543Q647 516 685 516Q723 516 750 543Q777 570 777 608ZM740 608Q740 585 724 569Q708 553 685 553Q629 553 629 608Q629 631 645 647Q662 664 685 664Q708 664 724 647Q740 631 740 608Z" fill="#000000" />
</g></svg>