<svg xmlns="http://www.w3.org/2000/svg" viewBox="0 0 2048 2048">
<g transform="matrix(1 0 0 -1 0 2048)">
<path d="M1082 392Q1082 479 1049.0 555.5Q1016 632 958.0 690.0Q900 748 823.5 781.0Q747 814 660 814Q573 814 496.5 781.0Q420 748 362.0 690.0Q304 632 271.0 555.5Q238 479 238 392Q238 305 271.0 228.5Q304 152 362.0 94.0Q420 36 496.5 3.0Q573 -30 660 -30Q747 -30 823.5 3.0Q900 36 958.0 94.0Q1016 152 1049.0 228.5Q1082 305 1082 392Z" fill="#fcea2b" />
<path d="M1069 51Q1082 64 1082.0 82.5Q1082 101 1069 114L980 203Q967 216 948.5 216.0Q930 216 917 203L882 167Q869 154 869.0 136.0Q869 118 882 105L971 16Q984 3 1002.0 3.0Q1020 3 1033 16Z" fill="#9b9b9a" />
<path d="M923 169Q933 178 923 188L894 218Q884 227 874 218L865 208Q856 199 865 189L895 160Q904 150 914 160Z" fill="#d0cfce" />
<path d="M875 189Q893 189 893 207Q893 226 875 226L441 227Q432 227 427 223Q422 218 422 209Q422 191 441 191Z" fill="#000000" />
<path d="M469 204Q469 222 450 222Q432 222 432 204V144Q432 125 450 125Q469 125 469 144Z" fill="#000000" />
<path d="M504 274Q504 292 485 292Q467 292 467 274V214Q467 195 485 195Q504 195 504 214Z" fill="#000000" />
<path d="M540 204Q540 222 521 222Q503 222 503 204V144Q503 125 521 125Q540 125 540 144Z" fill="#000000" />
<path d="M575 274Q575 292 556 292Q538 292 538 274V214Q538 195 556 195Q575 195 575 214Z" fill="#000000" />
<path d="M610 204Q610 222 591 222Q573 222 573 204V144Q573 125 591 125Q610 125 610 144Z" fill="#000000" />
<path d="M645 274Q645 292 626 292Q608 292 608 274V214Q608 195 626 195Q645 195 645 214Z" fill="#000000" />
<path d="M681 204Q681 222 662 222Q644 222 644 204V144Q644 125 662 125Q681 125 681 144Z" fill="#000000" />
<path d="M716 274Q716 292 697 292Q679 292 679 274V214Q679 195 697 195Q716 195 716 214Z" fill="#000000" />
<path d="M751 204Q751 222 732 222Q714 222 714 204V144Q714 125 732 125Q751 125 751 144Z" fill="#000000" />
<path d="M786 274Q786 292 767 292Q749 292 749 274V214Q749 195 767 195Q786 195 786 214Z" fill="#000000" />
<path d="M822 204Q822 222 803 222Q785 222 785 204V144Q785 125 803 125Q822 125 822 144Z" fill="#000000" />
<path d="M857 274Q857 292 838 292Q820 292 820 274V214Q820 195 838 195Q857 195 857 214Z" fill="#000000" />
<path d="M927 231Q910 225 916 208Q922 191 940 197Q955 202 967 191L1056 102Q1074 83 1056 65L1020 30Q1013 22 1002 22Q991 22 984 30L895 119Q884 130 888 144Q893 162 876 167Q858 172 853 155Q842 119 869 93L958 4Q976 -15 1002 -15Q1028 -15 1046 4L1082 39Q1126 83 1082 128L993 217Q965 245 927 231Z" fill="#000000" />
<path d="M1037 241Q1030 223 1047 217Q1064 210 1071 227Q1100 303 1100 385Q1100 567 971 696Q842 825 660 825Q478 825 349 696Q220 567 220 385Q220 203 349 74Q478 -55 660 -55Q775 -55 874 1Q890 10 882 26Q873 42 857 33Q765 -18 660 -18Q493 -18 375 100Q257 218 257 385Q257 552 375 670Q493 788 660 788Q827 788 945 670Q1063 552 1063 385Q1063 310 1037 241Z" fill="#000000" />
<path d="M550.10888671875 477.170654296875Q550.10888671875 500.26025390625 533.9461669921875 516.4229736328125Q517.783447265625 532.585693359375 494.69384765625 532.585693359375Q471.604248046875 532.585693359375 455.4415283203125 516.4229736328125Q439.27880859375 500.26025390625 439.27880859375 477.170654296875Q439.27880859375 454.0810546875 455.4415283203125 437.9183349609375Q471.604248046875 421.755615234375 494.69384765625 421.755615234375Q517.783447265625 421.755615234375 533.9461669921875 437.9183349609375Q550.10888671875 454.0810546875 550.10888671875 477.170654296875Z" fill="#000000" />
<path d="M880.10888671875 477.170654296875Q880.10888671875 500.26025390625 863.9461669921875 516.4229736328125Q847.783447265625 532.585693359375 824.69384765625 532.585693359375Q801.604248046875 532.585693359375 785.4415283203125 516.4229736328125Q769.27880859375 500.26025390625 769.27880859375 477.170654296875Q769.27880859375 454.0810546875 785.4415283203125 437.9183349609375Q801.604248046875 421.755615234375 824.69384765625 421.755615234375Q847.783447265625 421.755615234375 863.9461669921875 437.9183349609375Q880.10888671875 454.0810546875 880.10888671875 477.170654296875Z" fill="#000000" />
</g></svg>