<svg xmlns="http://www.w3.org/2000/svg" viewBox="0 0 2048 2048">
<g transform="matrix(1 0 0 -1 0 2048)">
<path d="M860.46923828125 531.403564453125Q860.46923828125 569.232421875 846.120361328125 602.4957275390625Q831.771484375 635.759033203125 806.55224609375 660.978271484375Q781.3330078125 686.197509765625 748.0697021484375 700.54638671875Q714.806396484375 714.895263671875 676.9775390625 714.895263671875Q639.148681640625 714.895263671875 605.8853759765625 700.54638671875Q572.6220703125 686.197509765625 547.40283203125 660.978271484375Q522.18359375 635.759033203125 507.834716796875 602.4957275390625Q493.48583984375 569.232421875 493.48583984375 531.403564453125Q493.48583984375 493.57470703125 507.834716796875 460.3114013671875Q522.18359375 427.048095703125 547.40283203125 401.828857421875Q572.6220703125 376.609619140625 605.8853759765625 362.2607421875Q639.148681640625 347.911865234375 676.9775390625 347.911865234375Q714.806396484375 347.911865234375 748.0697021484375 362.2607421875Q781.3330078125 376.609619140625 806.55224609375 401.828857421875Q831.771484375 427.048095703125 846.120361328125 460.3114013671875Q860.46923828125 493.57470703125 860.46923828125 531.403564453125Z" fill="#e67a94" />
<path d="M645 731Q651 652 713 602Q776 553 854 565Q868 519 868 472Q868 400 840.0 341.0Q812 282 765.0 247.0Q718 212 660 212Q603 212 555.5 247.0Q508 282 480.0 341.0Q452 400 452 472Q452 540 478.0 597.0Q504 654 547.5 690.0Q591 726 645 731Z" fill="#b1cc33" />
<path d="M313 -72Q313 -72 311.5 -55.0Q310 -38 311.5 -12.0Q313 14 322.0 43.5Q331 73 351.0 99.5Q371 126 406.0 142.5Q441 159 496 159Q540 130 579.5 112.0Q619 94 661 94H659Q701 94 740.5 112.0Q780 130 824 159Q879 159 914.0 142.5Q949 126 969.0 99.5Q989 73 998.0 43.5Q1007 14 1008.5 -12.0Q1010 -38 1008.5 -55.0Q1007 -72 1007 -72Z" fill="#b1cc33" />
<path d="M1010 -72 439 -73 411 16 372 -72H315Q315 -72 313.0 -49.5Q311 -27 315.0 6.0Q319 39 335.0 73.5Q351 108 385.5 132.5Q420 157 480 160L490 144Q527 79 571.5 47.5Q616 16 662 16L698 -68L735 37Q798 78 833 144L850 160Z" fill="#d0cfce" />
<path d="M587 343Q587 343 601.5 332.5Q616 322 638.0 310.0Q660 298 682.0 293.0Q704 288 718.5 298.5Q733 309 733 343Q733 360 718.5 365.0Q704 370 682.0 367.5Q660 365 638.0 359.0Q616 353 601.5 348.0Q587 343 587 343Z" fill="#fcea2b" />
<path d="M821 159Q830 159 838 159Q898 155 932.5 131.0Q967 107 983.0 73.0Q999 39 1003.0 6.0Q1007 -27 1005.5 -49.5Q1004 -72 1004 -72H910Q905 -43 897.0 -14.0Q889 15 863.5 39.0Q838 63 779 78Z" fill="#9b9b9a" />
<path d="M550 496Q550 497 550 497Q551 497 551 497H622Q623 497 623 497Q623 497 623 496V456Q623 439 611 428Q598 417 581 420Q567 422 558.5 433.5Q550 445 550 459Z" fill="#5c9e31" />
<path d="M697 497H770V456Q770 441 759.5 430.0Q749 419 733 419Q718 419 707.5 430.0Q697 441 697 456Z" fill="#5c9e31" />
<path d="M769.6845703125 496.67486572265625Q769.6845703125 512.0086669921875 759.017578125 522.6756591796875Q748.3505859375 533.3426513671875 733.0167846679688 533.3426513671875Q717.6829833984375 533.3426513671875 707.0159912109375 522.6756591796875Q696.3489990234375 512.0086669921875 696.3489990234375 496.67486572265625Q696.3489990234375 482.00775146484375 707.0159912109375 471.0074157714844Q717.6829833984375 460.007080078125 733.0167846679688 460.007080078125Q748.3505859375 460.007080078125 759.017578125 471.0074157714844Q769.6845703125 482.00775146484375 769.6845703125 496.67486572265625Z" fill="#ffffff" />
<path d="M623.6845703125 496.67486572265625Q623.6845703125 512.0086669921875 613.017578125 522.6756591796875Q602.3505859375 533.3426513671875 587.0167846679688 533.3426513671875Q571.6829833984375 533.3426513671875 561.0159912109375 522.6756591796875Q550.3489990234375 512.0086669921875 550.3489990234375 496.67486572265625Q550.3489990234375 482.00775146484375 561.0159912109375 471.0074157714844Q571.6829833984375 460.007080078125 587.0167846679688 460.007080078125Q602.3505859375 460.007080078125 613.017578125 471.0074157714844Q623.6845703125 482.00775146484375 623.6845703125 496.67486572265625Z" fill="#ffffff" />
<path d="M643 749Q554 741 493 660Q434 580 434 472Q434 358 499 276Q565 193 660 193Q755 193 821 276Q886 358 886 472Q886 522 871 570Q867 585 851 583Q781 572 725 617Q669 661 663 732Q662 750 643 749Q643 749 643 749ZM629 710Q641 636 702 588Q764 539 840 545Q850 509 850 472Q850 370 793 299Q737 230 660 230Q583 230 527 299Q470 370 470 472Q470 568 523 638Q567 697 629 710Z" fill="#000000" />
<path d="M814 584Q811 566 829 564Q848 561 850 579Q855 613 832 630Q832 633 833 635Q838 668 812 687Q795 700 777 699Q769 718 747 726Q723 735 704 725Q676 750 640 725Q625 714 635 699Q646 684 661 695Q676 705 686 690Q687 689 688 688Q701 675 714 688Q723 696 734 692Q744 688 745 676Q745 672 747 669Q750 661 757 659Q763 656 771 660Q781 665 789 658Q798 652 796 641Q796 636 793 633Q791 631 790 628Q784 610 802 604Q816 600 814 584Z" fill="#000000" />
<path d="M663 732Q662 741 657 745Q653 750 643 749Q625 747 627 729Q627 719 629 710Q642 640 695 594Q749 548 819 545Q823 545 827 545Q842 545 857 547Q875 550 872 568Q869 586 851 583Q839 581 827 581Q824 581 821 581Q763 584 719 622Q676 660 665 716Q664 724 663 732Z" fill="#000000" />
<path d="M580 360Q575 358 572 354Q567 347 568 341Q568 334 576 329Q614 298 653 283Q692 268 717 278Q752 291 752 343Q752 378 714 385Q692 389 657 382Q618 375 580 360ZM627 337Q645 343 664 346Q692 352 707 349Q715 347 715 343Q715 316 704 312Q692 307 667 317Q647 325 627 337Z" fill="#000000" />
<path d="M723 293Q741 293 741 311Q741 330 723 330H644Q626 330 626 311Q626 293 644 293Z" fill="#000000" />
<path d="M664 311Q664 298 677 298Q691 298 691 311V365Q691 379 677 379Q664 379 664 365Z" fill="#000000" />
<path d="M505 157Q500 165 494 167Q488 169 480 164Q464 155 473 139Q547 9 648 2L680 -62Q688 -78 705 -70Q711 -67 714 -60L748 29Q812 72 848 139Q856 156 840 164Q824 173 815 157Q782 95 723 57Q718 54 716 48L695 -8L676 28Q671 39 660 39Q572 38 505 157Z" fill="#000000" />
<path d="M816.5492553710938 -9.3131103515625Q821.724853515625 8.919189453125 803.4925537109375 14.09478759765625Q786.2198486328125 18.99798583984375 781.0442504882812 0.76568603515625L767.15185546875 -48.17364501953125Q762.2486572265625 -65.44635009765625 779.5213623046875 -70.34954833984375Q797.753662109375 -75.525146484375 802.6568603515625 -58.25244140625Z" fill="#000000" />
<path d="M355 -43Q346 -59 362 -68Q377 -78 387 -62L406 -28L420 -60Q424 -68 430 -71Q436 -73 444 -69Q461 -62 454 -45L426 20Q423 26 418 29Q402 38 393 22Z" fill="#000000" />
<path d="M1008 -72Q1016 -72 1021.5 -66.5Q1027 -61 1027 -54V1Q1027 50 999.0 92.0Q971 134 925.0 159.5Q879 185 825 185Q818 185 813 180Q660 53 507 180Q502 185 495 185Q441 185 395.0 159.5Q349 134 321.0 92.0Q293 50 293 1V-54Q293 -61 298.5 -66.5Q304 -72 312 -72Q319 -72 324.5 -66.5Q330 -61 330 -54V1Q330 42 354.0 74.5Q378 107 414.5 126.5Q451 146 489 148Q660 9 831 148Q869 146 905.5 126.5Q942 107 966.0 74.5Q990 42 990 1V-54Q990 -61 995.5 -66.5Q1001 -72 1008 -72Z" fill="#000000" />
<path d="M784 496H770H784Q784 547 733 547Q683 547 683 496Q683 446 733 446Q784 446 784 496ZM756 496Q756 487 750 480Q743 473 733 473Q710 473 710 496Q710 506 717 512Q724 519 733 519Q756 519 756 496Z" fill="#000000" />
<path d="M637 496H623H637Q637 547 587 547Q566 547 551 532Q536 517 536 496Q536 446 587 446Q637 446 637 496ZM610 496Q610 487 603 480Q596 473 587 473Q564 473 564 496Q564 519 587 519Q610 519 610 496Z" fill="#000000" />
</g></svg>