<svg xmlns="http://www.w3.org/2000/svg" viewBox="0 0 2048 2048">
  <g transform="matrix(1 0 0 -1 0 2048)">
    <path d="M0 1363Q0 1478 43.0 1579.0Q86 1680 160.5 1756.0Q235 1832 335.5 1876.0Q436 1920 552 1920Q567 1920 592.5 1918.5Q618 1917 646.5 1912.5Q675 1908 704.5 1900.5Q734 1893 758.0 1881.5Q782 1870 797.0 1854.5Q812 1839 812 1818Q812 1802 805 1789L627 1454Q620 1441 620 1424Q620 1411 625.0 1398.5Q630 1386 640 1377L1002 1039Q1013 1030 1013 1015Q1013 1003 1004.0 981.0Q995 959 981.0 932.0Q967 905 951.0 875.5Q935 846 921.0 819.5Q907 793 898.0 772.0Q889 751 889 740Q889 733 894.0 728.5Q899 724 906 724Q913 724 918 730L1121 979Q1128 987 1131.5 998.0Q1135 1009 1135 1020Q1135 1045 1118 1064L827 1367Q809 1385 809 1412Q809 1427 813.0 1435.0Q817 1443 825 1454Q842 1476 860.5 1495.5Q879 1515 897 1535Q931 1573 964.5 1611.0Q998 1649 1033 1687Q1081 1739 1131.0 1782.0Q1181 1825 1236.0 1855.0Q1291 1885 1353.5 1901.5Q1416 1918 1490 1918Q1567 1918 1638.5 1897.5Q1710 1877 1772.0 1840.5Q1834 1804 1885.0 1752.0Q1936 1700 1972.0 1637.5Q2008 1575 2028.0 1503.5Q2048 1432 2048 1355Q2048 1245 2006.5 1141.5Q1965 1038 1887 960L1088 153Q1063 128 1027 128Q992 128 967 153L163 965Q85 1044 42.5 1147.5Q0 1251 0 1363Z" fill="black" />
  </g>
</svg>