<svg xmlns="http://www.w3.org/2000/svg" viewBox="0 0 2048 2048">
  <g transform="matrix(1 0 0 -1 0 2048)">
    <path d="M1792 1088Q1792 1062 1773.0 1043.0Q1754 1024 1728 1024H1024V320Q1024 294 1005.0 275.0Q986 256 960 256Q934 256 915.0 275.0Q896 294 896 320V1024H192Q166 1024 147.0 1043.0Q128 1062 128 1088Q128 1114 147.0 1133.0Q166 1152 192 1152H896V1856Q896 1882 915.0 1901.0Q934 1920 960 1920Q986 1920 1005.0 1901.0Q1024 1882 1024 1856V1152H1728Q1754 1152 1773.0 1133.0Q1792 1114 1792 1088Z" fill="black" />
  </g>
</svg>