<svg xmlns="http://www.w3.org/2000/svg" viewBox="0 0 2048 2048">
  <g transform="matrix(1 0 0 -1 0 2048)">
    <path d="M449 122Q409 122 374.0 137.0Q339 152 312.5 178.0Q286 204 271.0 239.0Q256 274 256 314V1734Q256 1774 271.0 1809.0Q286 1844 312.0 1870.0Q338 1896 373.0 1911.0Q408 1926 448 1926Q472 1926 496.0 1920.0Q520 1914 541 1902L1815 1192Q1861 1166 1887.0 1121.0Q1913 1076 1913 1024Q1913 971 1887.5 926.5Q1862 882 1815 856L542 146Q521 134 497.0 128.0Q473 122 449 122ZM1785 1024Q1785 1041 1776.0 1056.5Q1767 1072 1752 1080L479 1790Q465 1798 448 1798Q422 1798 403.0 1779.0Q384 1760 384 1734V314Q384 288 403.0 269.0Q422 250 448 250Q465 250 479 258L1752 968Q1767 976 1776.0 991.5Q1785 1007 1785 1024Z" fill="black" />
  </g>
</svg>