<svg xmlns="http://www.w3.org/2000/svg" viewBox="0 0 2048 2048">
  <g transform="matrix(1 0 0 -1 0 2048)">
    <path d="M256 1517Q256 1603 273.0 1680.0Q290 1757 328.0 1820.5Q366 1884 426.5 1932.5Q487 1981 573 2009Q612 2022 653.0 2035.0Q694 2048 736 2048Q773 2048 808.0 2037.0Q843 2026 873.0 2006.5Q903 1987 927.0 1959.0Q951 1931 966 1897Q972 1885 977 1873L1028 1757Q1039 1733 1049 1709Q1077 1647 1077 1578Q1077 1527 1064.0 1486.0Q1051 1445 1028.5 1409.5Q1006 1374 975.5 1342.5Q945 1311 910 1279Q894 1264 876.5 1249.5Q859 1235 845 1219Q839 1212 837.5 1203.5Q836 1195 836 1187Q836 1166 849.5 1126.0Q863 1086 885.0 1038.0Q907 990 935.0 939.5Q963 889 992.5 848.0Q1022 807 1050.5 781.0Q1079 755 1101 755Q1102 755 1103 755L1106 756Q1107 756 1108 756L1366 836Q1393 845 1421 845Q1467 845 1507.5 824.0Q1548 803 1574 765L1744 524Q1792 456 1792 374Q1792 329 1780.5 295.0Q1769 261 1748.5 232.0Q1728 203 1701.5 177.0Q1675 151 1645 123Q1582 64 1505.5 32.0Q1429 0 1342 0Q1257 0 1178 32Q1067 77 971.0 151.5Q875 226 792.0 317.5Q709 409 639.0 511.5Q569 614 512 715Q461 805 414.5 902.0Q368 999 333.0 1101.0Q298 1203 277.0 1307.5Q256 1412 256 1517ZM1664 374Q1664 417 1640 450L1469 691Q1451 717 1421 717Q1413 717 1404 714L1146 634Q1124 627 1098 627Q1063 627 1030.5 643.0Q998 659 971 681Q945 701 916.0 737.5Q887 774 857.5 819.5Q828 865 801.0 916.0Q774 967 753.0 1017.0Q732 1067 719.5 1111.5Q707 1156 707 1189Q707 1233 725.0 1265.5Q743 1298 770.0 1326.0Q797 1354 828.0 1379.0Q859 1404 886.0 1432.5Q913 1461 931.0 1496.0Q949 1531 949 1577Q949 1618 932 1657L849 1845Q835 1878 803.5 1899.0Q772 1920 736 1920Q704 1920 672.0 1908.5Q640 1897 611 1887Q546 1865 502.5 1829.0Q459 1793 433.0 1745.0Q407 1697 395.5 1640.0Q384 1583 384 1519Q384 1423 404.0 1326.0Q424 1229 457.0 1134.5Q490 1040 533.5 950.0Q577 860 624 778Q675 687 738.5 593.0Q802 499 877.0 414.0Q952 329 1039.5 260.0Q1127 191 1226 151Q1283 128 1342 128Q1388 128 1426.5 140.0Q1465 152 1499.0 173.0Q1533 194 1564.0 221.5Q1595 249 1625 281Q1644 301 1654.0 323.5Q1664 346 1664 374Z" fill="black" />
  </g>
</svg>