<svg xmlns="http://www.w3.org/2000/svg" viewBox="0 0 2048 2048">
  <g transform="matrix(1 0 0 -1 0 2048)">
    <path d="M320 0Q281 0 246.0 15.0Q211 30 184.5 56.5Q158 83 143.0 118.0Q128 153 128 192V1728Q128 1767 143.0 1802.0Q158 1837 184.5 1863.5Q211 1890 246.0 1905.0Q281 1920 320 1920H523Q533 1949 551.0 1972.5Q569 1996 593.0 2013.0Q617 2030 645.0 2039.0Q673 2048 704 2048H1088Q1119 2048 1147.0 2039.0Q1175 2030 1199.0 2013.0Q1223 1996 1241.0 1972.5Q1259 1949 1269 1920H1472Q1511 1920 1546.0 1905.0Q1581 1890 1607.5 1863.5Q1634 1837 1649.0 1802.0Q1664 1767 1664 1728V1600Q1664 1574 1645.0 1555.0Q1626 1536 1600 1536Q1579 1536 1566.0 1544.0Q1553 1552 1546.5 1565.5Q1540 1579 1537.5 1596.5Q1535 1614 1535 1632Q1535 1649 1536.0 1665.5Q1537 1682 1537 1696Q1537 1714 1535.0 1731.0Q1533 1748 1526.5 1761.5Q1520 1775 1507.0 1783.5Q1494 1792 1472 1792H1269Q1259 1763 1241.0 1739.5Q1223 1716 1199.0 1699.0Q1175 1682 1147.0 1673.0Q1119 1664 1088 1664H704Q673 1664 645.0 1673.0Q617 1682 593.0 1699.0Q569 1716 551.0 1739.5Q533 1763 523 1792H320Q294 1792 275.0 1773.0Q256 1754 256 1728V192Q256 166 275.0 147.0Q294 128 320 128H704Q730 128 749.0 109.0Q768 90 768 64Q768 38 749.0 19.0Q730 0 704 0ZM1088 1792Q1114 1792 1133.0 1811.0Q1152 1830 1152 1856Q1152 1882 1133.0 1901.0Q1114 1920 1088 1920H704Q678 1920 659.0 1901.0Q640 1882 640 1856Q640 1830 659.0 1811.0Q678 1792 704 1792ZM1088 0Q1049 0 1014.0 15.0Q979 30 952.5 56.5Q926 83 911.0 118.0Q896 153 896 192V1216Q896 1255 911.0 1290.0Q926 1325 952.5 1351.5Q979 1378 1014.0 1393.0Q1049 1408 1088 1408H1728Q1767 1408 1802.0 1393.0Q1837 1378 1863.5 1351.5Q1890 1325 1905.0 1290.0Q1920 1255 1920 1216V192Q1920 153 1905.0 118.0Q1890 83 1863.5 56.5Q1837 30 1802.0 15.0Q1767 0 1728 0ZM1728 128Q1754 128 1773.0 147.0Q1792 166 1792 192V1216Q1792 1242 1773.0 1261.0Q1754 1280 1728 1280H1088Q1062 1280 1043.0 1261.0Q1024 1242 1024 1216V192Q1024 166 1043.0 147.0Q1062 128 1088 128Z" fill="black" />
  </g>
</svg>