<svg xmlns="http://www.w3.org/2000/svg" viewBox="0 0 2048 2048">
  <g transform="matrix(1 0 0 -1 0 2048)">
    <path d="M0 1728Q0 1768 15.0 1803.0Q30 1838 56.0 1864.0Q82 1890 117.0 1905.0Q152 1920 192 1920H1856Q1896 1920 1931.0 1905.0Q1966 1890 1992.0 1864.0Q2018 1838 2033.0 1803.0Q2048 1768 2048 1728Q2048 1646 1988 1589L1340 971Q1326 957 1315.0 941.0Q1304 925 1296 908Q1280 873 1280 832V64Q1280 38 1261.0 19.0Q1242 0 1216 0Q1197 0 1181 11L797 267Q768 286 768 320V832Q768 872 753 908Q745 926 733.5 941.5Q722 957 708 971L60 1589Q0 1646 0 1728ZM1920 1729Q1920 1755 1901.0 1773.5Q1882 1792 1856 1792H192Q166 1792 147.0 1773.5Q128 1755 128 1729Q128 1700 148 1682L797 1064Q844 1019 870.0 958.0Q896 897 896 832V354L1152 184V832Q1152 897 1178.0 958.0Q1204 1019 1251 1064L1900 1682Q1920 1700 1920 1729Z" fill="black" />
  </g>
</svg>