<svg xmlns="http://www.w3.org/2000/svg" viewBox="0 0 2048 2048">
  <g transform="matrix(1 0 0 -1 0 2048)">
    <path d="M384 808Q384 919 404.5 1044.5Q425 1170 467.0 1293.5Q509 1417 573.0 1531.0Q637 1645 723.0 1731.5Q809 1818 918.0 1870.0Q1027 1922 1160 1922Q1254 1922 1333.5 1897.0Q1413 1872 1476.0 1824.0Q1539 1776 1583.5 1705.5Q1628 1635 1651 1544Q1655 1528 1658.5 1512.0Q1662 1496 1663 1480L1664 1478V1473Q1664 1447 1645.0 1427.5Q1626 1408 1600 1408Q1571 1408 1557.5 1425.0Q1544 1442 1536 1466Q1532 1477 1531.0 1489.0Q1530 1501 1527 1512Q1490 1649 1401.0 1721.0Q1312 1793 1168 1793Q1053 1793 960.0 1746.0Q867 1699 794.0 1621.0Q721 1543 668.0 1441.5Q615 1340 580.0 1230.5Q545 1121 528.5 1011.5Q512 902 512 808Q512 699 534.0 598.5Q556 498 607.0 421.5Q658 345 742.0 299.5Q826 254 951 254Q1032 254 1103.5 278.0Q1175 302 1234.5 345.5Q1294 389 1338.5 450.5Q1383 512 1409 588Q1410 590 1410 591V593Q1410 595 1411 596Q1422 616 1434.0 628.0Q1446 640 1472 640Q1498 640 1517.0 621.0Q1536 602 1536 576Q1536 568 1534.0 561.0Q1532 554 1530 547Q1498 452 1441.0 374.0Q1384 296 1308.5 241.0Q1233 186 1142.0 156.0Q1051 126 950 126Q798 126 690.5 181.0Q583 236 515.0 330.0Q447 424 415.5 547.5Q384 671 384 808Z" fill="black" />
  </g>
</svg>