<svg xmlns="http://www.w3.org/2000/svg" viewBox="0 0 2048 2048">
  <g transform="matrix(1 0 0 -1 0 2048)">
    <path d="M910 2030Q910 2036 918.0 2039.5Q926 2043 936.5 2045.0Q947 2047 957.0 2047.5Q967 2048 972 2048Q984 2048 1012.5 2042.0Q1041 2036 1071.5 2028.0Q1102 2020 1129.0 2010.5Q1156 2001 1165 1995Q1178 1986 1178 1972Q1178 1963 1177 1954L1175 1943Q1174 1934 1174 1925V1391H1247Q1261 1391 1276.0 1397.0Q1291 1403 1308.0 1410.5Q1325 1418 1344.5 1424.0Q1364 1430 1387 1430Q1399 1430 1414.0 1429.0Q1429 1428 1443.0 1423.5Q1457 1419 1466.5 1409.5Q1476 1400 1476 1384Q1476 1364 1459.5 1355.0Q1443 1346 1426 1346H1173V1280H1079V1923Q1079 1936 1055.0 1951.0Q1031 1966 1001.0 1980.0Q971 1994 944.0 2007.0Q917 2020 910 2030ZM132 943Q136 952 158.0 973.5Q180 995 206.5 1018.5Q233 1042 258.5 1063.5Q284 1085 295 1095Q330 1126 360.5 1160.5Q391 1195 421 1230Q465 1282 510.0 1342.0Q555 1402 595.0 1466.0Q635 1530 666.5 1597.0Q698 1664 715 1731Q664 1729 615.0 1725.5Q566 1722 515 1719Q492 1717 468.0 1716.5Q444 1716 421 1711Q413 1709 403.0 1705.5Q393 1702 383.0 1697.5Q373 1693 363.5 1690.0Q354 1687 348 1687Q338 1687 311.5 1696.0Q285 1705 257.5 1717.5Q230 1730 209.0 1744.0Q188 1758 188 1769Q188 1774 193.5 1775.5Q199 1777 202 1777Q211 1777 220.5 1775.0Q230 1773 239 1771Q281 1763 323.5 1761.0Q366 1759 409 1759Q478 1759 547.0 1760.5Q616 1762 685 1771Q705 1774 725.0 1780.5Q745 1787 765 1787Q771 1787 786.0 1786.0Q801 1785 816.0 1782.0Q831 1779 843.0 1774.0Q855 1769 855 1761Q855 1751 842.5 1737.0Q830 1723 824 1714Q815 1700 809.5 1684.0Q804 1668 797 1653Q780 1617 761.5 1582.0Q743 1547 723 1512Q652 1384 553.5 1276.5Q455 1169 341 1078Q330 1070 300.5 1047.0Q271 1024 237.5 1000.0Q204 976 175.5 957.5Q147 939 138 939Q134 939 132 943ZM1536 64V1216Q1536 1242 1555.0 1261.0Q1574 1280 1600 1280Q1626 1280 1645.0 1261.0Q1664 1242 1664 1216V768H1698Q1715 768 1732.0 766.0Q1749 764 1762.5 757.5Q1776 751 1784.0 738.0Q1792 725 1792 704Q1792 682 1783.5 669.0Q1775 656 1761.5 649.5Q1748 643 1730.5 641.5Q1713 640 1696 640H1664V64Q1664 38 1645.0 19.0Q1626 0 1600 0Q1574 0 1555.0 19.0Q1536 38 1536 64ZM768 448Q768 474 787.0 493.0Q806 512 832 512Q901 512 961.5 530.0Q1022 548 1076 592Q1124 631 1159.5 680.5Q1195 730 1219.5 786.5Q1244 843 1258.0 903.5Q1272 964 1277 1024H832Q806 1024 787.0 1043.0Q768 1062 768 1088Q768 1114 787.0 1133.0Q806 1152 832 1152H1408V1088Q1408 1008 1394.0 926.5Q1380 845 1350.5 769.0Q1321 693 1276.5 624.5Q1232 556 1171 501Q1100 437 1013.0 410.5Q926 384 832 384Q806 384 787.0 403.0Q768 422 768 448Z" fill="black" />
  </g>
</svg>