<svg xmlns="http://www.w3.org/2000/svg" viewBox="0 0 2048 2048">
  <g transform="matrix(1 0 0 -1 0 2048)">
    <path d="M1856 1920Q1882 1920 1901.0 1901.0Q1920 1882 1920 1856V1088Q1920 1062 1901.0 1043.0Q1882 1024 1856 1024Q1830 1024 1811.0 1043.0Q1792 1062 1792 1088V1702L346 256H960Q986 256 1005.0 237.0Q1024 218 1024 192Q1024 166 1005.0 147.0Q986 128 960 128H191Q165 128 146.5 147.0Q128 166 128 192V960Q128 986 147.0 1005.0Q166 1024 192 1024Q218 1024 237.0 1005.0Q256 986 256 960V346L1702 1792H1088Q1062 1792 1043.0 1811.0Q1024 1830 1024 1856Q1024 1882 1043.0 1901.0Q1062 1920 1088 1920Z" fill="black" />
  </g>
</svg>