<svg xmlns="http://www.w3.org/2000/svg" viewBox="0 0 2048 2048">
  <g transform="matrix(1 0 0 -1 0 2048)">
    <path d="M576 1664Q550 1664 531.0 1683.0Q512 1702 512 1728Q512 1754 531.0 1773.0Q550 1792 576 1792H1600Q1626 1792 1645.0 1773.0Q1664 1754 1664 1728Q1664 1702 1645.0 1683.0Q1626 1664 1600 1664ZM0 1088Q0 1114 19 1133L200 1314Q219 1333 245 1333Q271 1333 290.0 1314.0Q309 1295 309 1269Q309 1243 290 1224L155 1088L290 952Q309 933 309 907Q309 881 290.0 862.0Q271 843 245 843Q219 843 200 862L19 1043Q0 1062 0 1088ZM576 1024Q550 1024 531.0 1043.0Q512 1062 512 1088Q512 1114 531.0 1133.0Q550 1152 576 1152H1984Q2010 1152 2029.0 1133.0Q2048 1114 2048 1088Q2048 1062 2029.0 1043.0Q2010 1024 1984 1024ZM576 384Q550 384 531.0 403.0Q512 422 512 448Q512 474 531.0 493.0Q550 512 576 512H1344Q1370 512 1389.0 493.0Q1408 474 1408 448Q1408 422 1389.0 403.0Q1370 384 1344 384Z" fill="black" />
  </g>
</svg>