<svg xmlns="http://www.w3.org/2000/svg" viewBox="0 0 2048 2048">
  <g transform="matrix(1 0 0 -1 0 2048)">
    <path d="M448 1664Q422 1664 403.0 1683.0Q384 1702 384 1728Q384 1754 403.0 1773.0Q422 1792 448 1792H1472Q1498 1792 1517.0 1773.0Q1536 1754 1536 1728Q1536 1702 1517.0 1683.0Q1498 1664 1472 1664ZM1739 1088Q1739 1114 1758 1133L1939 1314Q1958 1333 1985 1333Q2012 1333 2030.0 1314.5Q2048 1296 2048 1269Q2048 1257 2043.5 1245.0Q2039 1233 2030 1224L1894 1088L2030 952Q2048 934 2048 907Q2048 881 2029.5 862.0Q2011 843 1985 843Q1958 843 1939 862L1758 1043Q1739 1062 1739 1088ZM64 1024Q38 1024 19.0 1043.0Q0 1062 0 1088Q0 1114 19.0 1133.0Q38 1152 64 1152H1472Q1498 1152 1517.0 1133.0Q1536 1114 1536 1088Q1536 1062 1517.0 1043.0Q1498 1024 1472 1024ZM704 384Q678 384 659.0 403.0Q640 422 640 448Q640 474 659.0 493.0Q678 512 704 512H1472Q1498 512 1517.0 493.0Q1536 474 1536 448Q1536 422 1517.0 403.0Q1498 384 1472 384Z" fill="black" />
  </g>
</svg>