<svg xmlns="http://www.w3.org/2000/svg" viewBox="0 0 2048 2048">
  <g transform="matrix(1 0 0 -1 0 2048)">
    <path d="M504 128Q429 128 360.5 158.5Q292 189 240.5 240.5Q189 292 158.5 360.5Q128 429 128 504V1544Q128 1619 158.5 1687.5Q189 1756 240.5 1807.5Q292 1859 360.5 1889.5Q429 1920 504 1920H1544Q1619 1920 1687.5 1889.5Q1756 1859 1807.5 1807.5Q1859 1756 1889.5 1687.5Q1920 1619 1920 1544V1160Q1890 1183 1858.0 1202.5Q1826 1222 1792 1239V1408H256V507Q256 455 277.0 409.5Q298 364 333.0 330.0Q368 296 414.5 276.0Q461 256 512 256H809Q826 222 845.5 190.0Q865 158 888 128ZM1792 1536V1541Q1792 1591 1771.5 1636.5Q1751 1682 1716.5 1716.5Q1682 1751 1636.5 1771.5Q1591 1792 1541 1792H507Q457 1792 411.5 1771.5Q366 1751 331.5 1716.5Q297 1682 276.5 1636.5Q256 1591 256 1541V1536ZM896 576Q896 695 941.5 800.0Q987 905 1065.0 983.0Q1143 1061 1248.0 1106.5Q1353 1152 1472 1152Q1551 1152 1624.5 1131.5Q1698 1111 1762.0 1073.5Q1826 1036 1879.0 983.0Q1932 930 1969.5 866.0Q2007 802 2027.5 728.5Q2048 655 2048 576Q2048 457 2002.5 352.0Q1957 247 1879.0 169.0Q1801 91 1696.0 45.5Q1591 0 1472 0Q1352 0 1247.0 45.0Q1142 90 1064.0 168.0Q986 246 941.0 351.0Q896 456 896 576ZM1824 576V583Q1824 653 1796.0 715.5Q1768 778 1721.0 825.0Q1674 872 1611.5 900.0Q1549 928 1479 928Q1424 928 1375.5 914.5Q1327 901 1280 872Q1280 888 1277.5 904.0Q1275 920 1268.0 932.5Q1261 945 1248.5 952.5Q1236 960 1216 960Q1190 960 1171.0 941.0Q1152 922 1152 896V704Q1152 678 1171.0 659.0Q1190 640 1216 640H1408Q1434 640 1453.0 659.0Q1472 678 1472 704Q1472 726 1463.0 739.0Q1454 752 1440.0 758.5Q1426 765 1409.0 766.5Q1392 768 1375 768H1356Q1409 800 1472 800Q1518 800 1559.0 782.5Q1600 765 1630.5 734.5Q1661 704 1678.5 663.0Q1696 622 1696 576Q1696 530 1678.5 489.0Q1661 448 1630.5 417.5Q1600 387 1559.0 369.5Q1518 352 1472 352Q1432 352 1403.5 363.0Q1375 374 1353.5 387.5Q1332 401 1315.5 412.0Q1299 423 1283 423Q1256 423 1237.5 404.5Q1219 386 1219 359Q1219 343 1224.5 332.0Q1230 321 1241 310Q1288 266 1348.5 245.5Q1409 225 1472 224H1479Q1551 224 1614.0 252.5Q1677 281 1723.5 329.0Q1770 377 1797.0 441.0Q1824 505 1824 576Z" fill="black" />
  </g>
</svg>