<svg xmlns="http://www.w3.org/2000/svg" viewBox="0 0 2048 2048">
  <g transform="matrix(1 0 0 -1 0 2048)">
    <path d="M251 512Q201 512 155.5 532.5Q110 553 75.5 587.5Q41 622 20.5 667.5Q0 713 0 763V1669Q0 1719 20.5 1764.5Q41 1810 75.5 1844.5Q110 1879 155.5 1899.5Q201 1920 251 1920H1797Q1847 1920 1892.5 1899.5Q1938 1879 1972.5 1844.5Q2007 1810 2027.5 1764.5Q2048 1719 2048 1669V1280H1920V1664Q1920 1690 1910.0 1713.5Q1900 1737 1882.5 1754.5Q1865 1772 1841.5 1782.0Q1818 1792 1792 1792H256Q229 1792 206.0 1782.0Q183 1772 165.5 1754.5Q148 1737 138.0 1714.0Q128 1691 128 1664V768Q128 741 138.0 717.5Q148 694 165.0 677.0Q182 660 205.5 650.0Q229 640 256 640H768V512ZM320 1504Q320 1544 348.0 1572.0Q376 1600 416 1600Q456 1600 484.0 1572.0Q512 1544 512 1504Q512 1464 484.0 1436.0Q456 1408 416 1408Q376 1408 348.0 1436.0Q320 1464 320 1504ZM704 1504Q704 1544 732.0 1572.0Q760 1600 800 1600Q840 1600 868.0 1572.0Q896 1544 896 1504Q896 1464 868.0 1436.0Q840 1408 800 1408Q760 1408 732.0 1436.0Q704 1464 704 1504ZM1088 1504Q1088 1544 1116.0 1572.0Q1144 1600 1184 1600Q1224 1600 1252.0 1572.0Q1280 1544 1280 1504Q1280 1464 1252.0 1436.0Q1224 1408 1184 1408Q1144 1408 1116.0 1436.0Q1088 1464 1088 1504ZM1472 1504Q1472 1544 1500.0 1572.0Q1528 1600 1568 1600Q1608 1600 1636.0 1572.0Q1664 1544 1664 1504Q1664 1464 1636.0 1436.0Q1608 1408 1568 1408Q1528 1408 1500.0 1436.0Q1472 1464 1472 1504ZM576 1120Q576 1160 604.0 1188.0Q632 1216 672 1216Q712 1216 740.0 1188.0Q768 1160 768 1120Q768 1080 740.0 1052.0Q712 1024 672 1024Q632 1024 604.0 1052.0Q576 1080 576 1120ZM1024 640Q997 640 973.5 650.0Q950 660 933.0 677.0Q916 694 906.0 717.5Q896 741 896 768V1024Q896 1051 906.0 1074.0Q916 1097 933.5 1114.5Q951 1132 974.0 1142.0Q997 1152 1024 1152H1664Q1690 1152 1713.5 1142.0Q1737 1132 1754.5 1114.5Q1772 1097 1782.0 1073.5Q1792 1050 1792 1024V768Q1792 741 1782.0 718.0Q1772 695 1754.5 677.5Q1737 660 1714.0 650.0Q1691 640 1664 640ZM448 768Q422 768 403.0 787.0Q384 806 384 832Q384 858 403.0 877.0Q422 896 448 896H768V768ZM1024 0Q997 0 973.5 10.0Q950 20 933.0 37.0Q916 54 906.0 77.5Q896 101 896 128V384Q896 411 906.0 434.0Q916 457 933.5 474.5Q951 492 974.0 502.0Q997 512 1024 512H1280Q1306 512 1329.5 502.0Q1353 492 1370.5 474.5Q1388 457 1398.0 433.5Q1408 410 1408 384V128Q1408 101 1398.0 78.0Q1388 55 1370.5 37.5Q1353 20 1330.0 10.0Q1307 0 1280 0ZM1664 0Q1637 0 1613.5 10.0Q1590 20 1573.0 37.0Q1556 54 1546.0 77.5Q1536 101 1536 128V384Q1536 411 1546.0 434.0Q1556 457 1573.5 474.5Q1591 492 1614.0 502.0Q1637 512 1664 512H1920Q1946 512 1969.5 502.0Q1993 492 2010.5 474.5Q2028 457 2038.0 433.5Q2048 410 2048 384V128Q2048 101 2038.0 78.0Q2028 55 2010.5 37.5Q1993 20 1970.0 10.0Q1947 0 1920 0Z" fill="black" />
  </g>
</svg>