<svg xmlns="http://www.w3.org/2000/svg" viewBox="0 0 2048 2048">
  <g transform="matrix(1 0 0 -1 0 2048)">
    <path d="M2048 960Q2048 907 2010 869Q1973 832 1920 832H1792V697Q1792 634 1766.5 577.0Q1741 520 1698.5 477.5Q1656 435 1599.0 409.5Q1542 384 1479 384H1287Q1296 416 1301.0 448.0Q1306 480 1309 512H1472Q1511 512 1546.0 527.0Q1581 542 1607.5 568.5Q1634 595 1649.0 630.0Q1664 665 1664 704V1344Q1664 1383 1649.0 1418.0Q1634 1453 1607.5 1479.5Q1581 1506 1546.0 1521.0Q1511 1536 1472 1536H320Q281 1536 246.0 1521.0Q211 1506 184.5 1479.5Q158 1453 143.0 1418.0Q128 1383 128 1344V1160Q92 1133 60.0 1101.0Q28 1069 0 1034V1351Q0 1414 25.5 1471.0Q51 1528 93.5 1570.5Q136 1613 193.0 1638.5Q250 1664 313 1664H1479Q1543 1664 1599.5 1638.5Q1656 1613 1698.5 1570.5Q1741 1528 1766.0 1471.0Q1791 1414 1792 1351V1216H1920Q1946 1216 1969.0 1206.0Q1992 1196 2010 1178Q2028 1160 2038.0 1137.0Q2048 1114 2048 1088ZM640 1309Q608 1312 576 1312Q492 1312 411.5 1294.0Q331 1276 256 1239V1312Q256 1352 284.0 1380.0Q312 1408 352 1408H544Q565 1408 582.5 1400.0Q600 1392 613.0 1378.5Q626 1365 633.0 1347.0Q640 1329 640 1309ZM1152 576Q1152 457 1106.5 352.0Q1061 247 983.0 169.0Q905 91 800.0 45.5Q695 0 576 0Q456 0 351.0 45.0Q246 90 168.0 168.0Q90 246 45.0 351.0Q0 456 0 576Q0 695 45.5 800.0Q91 905 169.0 983.0Q247 1061 352.0 1106.5Q457 1152 576 1152Q655 1152 728.5 1131.5Q802 1111 866.0 1073.5Q930 1036 983.0 983.0Q1036 930 1073.5 866.0Q1111 802 1131.5 728.5Q1152 655 1152 576ZM673 576 881 783Q901 803 901 832Q901 861 881.0 881.0Q861 901 832 901Q803 901 783 881L576 673L369 881Q349 901 320 901Q291 901 271.0 881.0Q251 861 251 832Q251 819 256.5 805.5Q262 792 271 783L479 576L271 369Q251 349 251 320Q251 291 271.0 271.0Q291 251 320 251Q349 251 369 271L576 479L783 271Q792 262 805.5 256.5Q819 251 832 251Q861 251 881.0 271.0Q901 291 901 320Q901 349 881 369Z" fill="black" />
  </g>
</svg>