<svg xmlns="http://www.w3.org/2000/svg" viewBox="0 0 2048 2048">
  <g transform="matrix(1 0 0 -1 0 2048)">
    <path d="M2048 960Q2048 907 2010 869Q1973 832 1920 832H1792V697Q1792 634 1766.5 577.0Q1741 520 1698.5 477.5Q1656 435 1599.0 409.5Q1542 384 1479 384H1182L1118 512H1472Q1511 512 1546.0 527.0Q1581 542 1607.5 568.5Q1634 595 1649.0 630.0Q1664 665 1664 704V1344Q1664 1383 1649.0 1418.0Q1634 1453 1607.5 1479.5Q1581 1506 1546.0 1521.0Q1511 1536 1472 1536H320Q281 1536 246.0 1521.0Q211 1506 184.5 1479.5Q158 1453 143.0 1418.0Q128 1383 128 1344V701L47 538Q0 614 0 704V1351Q0 1414 25.5 1471.0Q51 1528 93.5 1570.5Q136 1613 193.0 1638.5Q250 1664 313 1664H1479Q1543 1664 1599.5 1638.5Q1656 1613 1698.5 1570.5Q1741 1528 1766.0 1471.0Q1791 1414 1792 1351V1216H1920Q1946 1216 1969.0 1206.0Q1992 1196 2010 1178Q2028 1160 2038.0 1137.0Q2048 1114 2048 1088ZM384 1194Q362 1169 347 1138L256 957V1344Q256 1370 275.0 1389.0Q294 1408 320 1408Q346 1408 365.0 1389.0Q384 1370 384 1344ZM1151 128Q1151 102 1140.5 79.0Q1130 56 1112.5 38.5Q1095 21 1072.0 10.5Q1049 0 1023 0H128Q102 0 79.0 10.5Q56 21 38.5 38.5Q21 56 10.5 79.0Q0 102 0 128Q0 159 13 185L461 1081Q478 1115 508.0 1133.5Q538 1152 576 1152Q614 1152 643.5 1133.5Q673 1115 690 1081L1138 185Q1151 159 1151 128ZM639 833Q639 859 620.0 878.0Q601 897 575 897Q549 897 530.0 878.0Q511 859 511 833V448Q511 422 530.0 403.0Q549 384 575 384Q601 384 620.0 403.0Q639 422 639 448ZM639 192Q639 219 620.5 237.5Q602 256 575 256Q549 256 530.0 237.0Q511 218 511 192Q511 166 530.0 147.0Q549 128 575 128Q601 128 620.0 147.0Q639 166 639 192Z" fill="black" />
  </g>
</svg>