<svg xmlns="http://www.w3.org/2000/svg" viewBox="0 0 2048 2048">
  <g transform="matrix(1 0 0 -1 0 2048)">
    <path d="M277 1041Q269 1041 262.5 1047.5Q256 1054 256 1062V1280H94Q78 1280 78 1296Q78 1299 96.0 1328.0Q114 1357 142.0 1399.0Q170 1441 202.5 1490.5Q235 1540 265.0 1584.0Q295 1628 317.0 1660.5Q339 1693 345 1702Q351 1711 363 1711Q371 1711 377.5 1704.5Q384 1698 384 1690V1472H546Q562 1472 562 1456Q562 1453 544.0 1424.0Q526 1395 498.0 1353.0Q470 1311 437.5 1261.5Q405 1212 375.0 1168.0Q345 1124 323.0 1091.5Q301 1059 295 1050Q289 1041 277 1041ZM1728 953V1280Q1728 1306 1718.0 1329.5Q1708 1353 1690.5 1370.5Q1673 1388 1649.5 1398.0Q1626 1408 1600 1408H620Q626 1418 630.5 1431.5Q635 1445 635 1458Q635 1464 633 1472H1600Q1639 1472 1674.0 1457.0Q1709 1442 1735.5 1415.5Q1762 1389 1777.0 1354.0Q1792 1319 1792 1280V1120H1826Q1843 1120 1859.5 1118.0Q1876 1116 1889.5 1109.5Q1903 1103 1911.5 1090.5Q1920 1078 1920 1056V992Q1920 983 1917 974Q1910 975 1904.0 975.0Q1898 975 1891 975Q1818 975 1760 935Q1752 941 1744.0 945.0Q1736 949 1728 953ZM384 768V1054L512 1246V768Q512 742 493.0 723.0Q474 704 448 704Q422 704 403.0 723.0Q384 742 384 768ZM448 576Q409 576 374.0 591.0Q339 606 312.5 632.5Q286 659 271.0 694.0Q256 729 256 768V971Q266 968 278 968Q300 968 320 979V768Q320 741 330.0 717.5Q340 694 357.0 677.0Q374 660 397.5 650.0Q421 640 448 640H1415Q1423 622 1434.0 606.0Q1445 590 1459 576ZM1472 741Q1472 773 1484.0 801.5Q1496 830 1517.0 851.0Q1538 872 1566.5 884.0Q1595 896 1627 896Q1650 896 1668.0 891.0Q1686 886 1701.0 877.0Q1716 868 1730.5 855.5Q1745 843 1760 828Q1789 859 1818.0 877.0Q1847 895 1891 895Q1923 895 1951.5 882.5Q1980 870 2001.5 849.0Q2023 828 2035.5 799.5Q2048 771 2048 739Q2048 708 2036.5 679.5Q2025 651 2003 629L1778 404Q1771 397 1761 397Q1751 397 1744 404L1518 630Q1472 676 1472 741Z" fill="black" />
  </g>
</svg>