<svg xmlns="http://www.w3.org/2000/svg" viewBox="0 0 2048 2048">
  <g transform="matrix(1 0 0 -1 0 2048)">
    <path d="M504 128Q429 128 360.5 158.5Q292 189 240.5 240.5Q189 292 158.5 360.5Q128 429 128 504V1664Q128 1715 148.0 1761.5Q168 1808 202.0 1843.0Q236 1878 281.5 1899.0Q327 1920 379 1920H1285Q1337 1920 1382.5 1899.0Q1428 1878 1462.0 1843.0Q1496 1808 1516.0 1761.5Q1536 1715 1536 1664V768H1920V504Q1920 429 1889.5 360.5Q1859 292 1807.5 240.5Q1756 189 1687.5 158.5Q1619 128 1544 128ZM1408 256V1664Q1408 1690 1398.0 1713.5Q1388 1737 1370.5 1754.5Q1353 1772 1329.5 1782.0Q1306 1792 1280 1792H384Q357 1792 334.0 1782.0Q311 1772 293.5 1754.5Q276 1737 266.0 1714.0Q256 1691 256 1664V507Q256 457 276.5 411.5Q297 366 331.5 331.5Q366 297 411.5 276.5Q457 256 507 256ZM576 1408Q550 1408 531.0 1427.0Q512 1446 512 1472Q512 1498 531.0 1517.0Q550 1536 576 1536H1088Q1114 1536 1133.0 1517.0Q1152 1498 1152 1472Q1152 1446 1133.0 1427.0Q1114 1408 1088 1408ZM576 1024Q550 1024 531.0 1043.0Q512 1062 512 1088Q512 1114 531.0 1133.0Q550 1152 576 1152H1088Q1114 1152 1133.0 1133.0Q1152 1114 1152 1088Q1152 1062 1133.0 1043.0Q1114 1024 1088 1024ZM576 640Q550 640 531.0 659.0Q512 678 512 704Q512 730 531.0 749.0Q550 768 576 768H832Q858 768 877.0 749.0Q896 730 896 704Q896 678 877.0 659.0Q858 640 832 640ZM1536 256H1541Q1591 256 1636.5 276.5Q1682 297 1716.5 331.5Q1751 366 1771.5 411.5Q1792 457 1792 507V640H1536Z" fill="black" />
  </g>
</svg>