<svg xmlns="http://www.w3.org/2000/svg" viewBox="0 0 2048 2048">
  <g transform="matrix(1 0 0 -1 0 2048)">
    <path d="M2017 512Q2017 485 2007.5 462.0Q1998 439 1980.5 421.5Q1963 404 1940.0 394.0Q1917 384 1890 384H159Q132 384 109.0 394.0Q86 404 68.5 421.5Q51 439 41.0 462.0Q31 485 31 512Q31 537 40 560L228 1031Q250 1086 299.0 1119.0Q348 1152 407 1152H512V1413Q512 1463 540.0 1501.0Q568 1539 613.0 1566.5Q658 1594 714.5 1612.0Q771 1630 828.0 1640.5Q885 1651 936.5 1655.5Q988 1660 1024 1660Q1061 1660 1113.5 1655.5Q1166 1651 1223.0 1640.5Q1280 1630 1336.0 1611.5Q1392 1593 1436.5 1565.0Q1481 1537 1508.5 1498.5Q1536 1460 1536 1408V1152H1641Q1700 1152 1749.0 1119.0Q1798 1086 1820 1031L2008 560Q2017 537 2017 512ZM640 1408Q640 1392 654.5 1378.0Q669 1364 691.5 1352.0Q714 1340 741.5 1329.5Q769 1319 795.0 1311.0Q821 1303 843.0 1298.0Q865 1293 876 1291Q910 1286 944.0 1283.0Q978 1280 1013 1280H1035Q1070 1280 1104.0 1283.0Q1138 1286 1172 1291Q1183 1293 1205.0 1298.0Q1227 1303 1253.0 1311.0Q1279 1319 1306.5 1329.5Q1334 1340 1356.5 1352.0Q1379 1364 1393.5 1378.0Q1408 1392 1408 1408Q1408 1423 1393.5 1437.5Q1379 1452 1356.5 1464.0Q1334 1476 1306.5 1486.5Q1279 1497 1253.0 1505.0Q1227 1513 1205.0 1518.0Q1183 1523 1172 1525Q1138 1530 1104.0 1533.0Q1070 1536 1035 1536H1013Q978 1536 944.0 1533.0Q910 1530 876 1525Q865 1523 843.0 1518.0Q821 1513 795.0 1505.0Q769 1497 741.5 1486.5Q714 1476 691.5 1464.0Q669 1452 654.5 1437.5Q640 1423 640 1408ZM640 1024Q640 1001 669.0 981.5Q698 962 736.0 947.0Q774 932 810.5 922.5Q847 913 863 910Q900 902 937.5 899.0Q975 896 1013 896H1035Q1073 896 1110.5 899.0Q1148 902 1185 910Q1201 913 1237.5 922.5Q1274 932 1312.0 947.0Q1350 962 1379.0 981.5Q1408 1001 1408 1024V1233Q1367 1211 1319.0 1195.5Q1271 1180 1221.0 1170.5Q1171 1161 1120.5 1156.5Q1070 1152 1024 1152Q977 1152 927.0 1156.5Q877 1161 827.0 1170.5Q777 1180 729.0 1195.5Q681 1211 640 1233ZM159 512H1890L1701 984Q1693 1002 1676.5 1013.0Q1660 1024 1641 1024H1536V1019Q1536 969 1508.5 931.5Q1481 894 1437.0 866.0Q1393 838 1337.5 819.0Q1282 800 1226.0 789.0Q1170 778 1119.0 773.0Q1068 768 1032 768H1024Q987 768 935.0 772.5Q883 777 826.5 788.0Q770 799 714.5 817.0Q659 835 614.5 863.0Q570 891 542.0 929.5Q514 968 512 1019V1024H407Q388 1024 371.5 1013.0Q355 1002 347 984Z" fill="black" />
  </g>
</svg>