<svg xmlns="http://www.w3.org/2000/svg" viewBox="0 0 2048 2048">
  <g transform="matrix(1 0 0 -1 0 2048)">
    <path d="M1536 320V1728Q1536 1754 1555.0 1773.0Q1574 1792 1600 1792Q1626 1792 1645.0 1773.0Q1664 1754 1664 1728V320Q1664 294 1645.0 275.0Q1626 256 1600 256Q1574 256 1555.0 275.0Q1536 294 1536 320ZM384 320Q384 346 403 365L1062 1024L403 1683Q384 1702 384 1728Q384 1754 403.0 1773.0Q422 1792 448 1792Q474 1792 493 1773L1197 1069Q1216 1050 1216 1024Q1216 998 1197 979L493 275Q474 256 448 256Q422 256 403.0 275.0Q384 294 384 320Z" fill="black" />
  </g>
</svg>