<svg xmlns="http://www.w3.org/2000/svg" viewBox="0 0 2048 2048">
  <g transform="matrix(1 0 0 -1 0 2048)">
    <path d="M1517 128H1344Q1318 128 1299.0 147.0Q1280 166 1280 192Q1280 213 1287.5 226.0Q1295 239 1308.5 245.5Q1322 252 1340.0 254.5Q1358 257 1380 257Q1400 257 1422.5 256.0Q1445 255 1469 255Q1513 255 1556.5 263.5Q1600 272 1635 301Q1661 323 1678.5 352.5Q1696 382 1701 416L1781 896H1513Q1467 800 1405.5 711.5Q1344 623 1270.5 543.5Q1197 464 1113.0 395.0Q1029 326 939 270Q926 262 903.0 248.5Q880 235 851.5 219.0Q823 203 791.5 187.0Q760 171 731.0 158.0Q702 145 678.0 136.5Q654 128 640 128Q613 128 594.5 146.5Q576 165 576 192Q576 215 588.0 230.0Q600 245 620 253Q653 266 683.0 279.0Q713 292 742.0 306.0Q771 320 800.0 335.5Q829 351 860 370Q938 417 1011.0 475.0Q1084 533 1149.0 599.5Q1214 666 1270.0 741.0Q1326 816 1369 896H1057Q1009 829 947.5 768.0Q886 707 816.5 654.0Q747 601 672.0 556.5Q597 512 522 478Q504 470 467.0 454.0Q430 438 389.0 422.5Q348 407 311.0 395.5Q274 384 256 384Q229 384 210.5 403.0Q192 422 192 449Q192 472 206.0 487.5Q220 503 241 510Q293 526 342.5 543.0Q392 560 442 581Q567 635 684.5 714.5Q802 794 893 896H516Q505 889 484.5 876.5Q464 864 439.0 850.0Q414 836 386.5 821.5Q359 807 334.0 795.0Q309 783 288.0 775.5Q267 768 256 768Q229 768 210.5 787.5Q192 807 192 833Q192 854 203.0 868.5Q214 883 232 891Q290 916 341.5 943.0Q393 970 441.0 1001.0Q489 1032 534.0 1069.0Q579 1106 623 1152H448Q422 1152 403.0 1171.0Q384 1190 384 1216V1856Q384 1882 403.0 1901.0Q422 1920 448 1920H1600Q1626 1920 1645.0 1901.0Q1664 1882 1664 1856V1216Q1664 1190 1645.0 1171.0Q1626 1152 1600 1152H796Q767 1120 737.5 1086.5Q708 1053 676 1024H1856Q1882 1024 1901.0 1006.0Q1920 988 1920 962Q1920 954 1919 950L1827 395Q1818 339 1789.5 290.5Q1761 242 1719.5 206.0Q1678 170 1626.0 149.0Q1574 128 1517 128ZM1536 1792H512V1600H1536ZM1536 1472H512V1280H1536Z" fill="black" />
  </g>
</svg>