<svg xmlns="http://www.w3.org/2000/svg" viewBox="0 0 2048 2048">
  <g transform="matrix(1 0 0 -1 0 2048)">
    <path d="M2048 1024Q2048 883 2011.5 752.0Q1975 621 1908.0 507.5Q1841 394 1747.5 300.5Q1654 207 1540.5 140.0Q1427 73 1296.0 36.5Q1165 0 1024 0Q883 0 752.0 36.5Q621 73 507.5 140.0Q394 207 300.5 300.5Q207 394 140.0 507.5Q73 621 36.5 752.0Q0 883 0 1024Q0 1165 36.5 1296.0Q73 1427 140.0 1540.5Q207 1654 300.5 1747.5Q394 1841 507.5 1908.0Q621 1975 752.0 2011.5Q883 2048 1024 2048Q1165 2048 1296.0 2011.5Q1427 1975 1540.5 1908.0Q1654 1841 1747.5 1747.5Q1841 1654 1908.0 1540.5Q1975 1427 2011.5 1296.0Q2048 1165 2048 1024ZM1920 1024Q1920 1134 1893.5 1239.5Q1867 1345 1817.0 1440.0Q1767 1535 1695.0 1617.0Q1623 1699 1533 1761V971Q1533 879 1496.0 796.5Q1459 714 1396.5 651.5Q1334 589 1251.0 552.0Q1168 515 1077 515Q1018 515 961.0 528.5Q904 542 852.5 568.5Q801 595 757.5 633.5Q714 672 682 723Q675 734 672.0 744.0Q669 754 669 767Q669 801 692.0 824.0Q715 847 748 847Q772 847 786.5 837.5Q801 828 815 811Q824 800 826.0 797.0Q828 794 828 793Q828 792 830.5 789.5Q833 787 842 777Q887 726 944.5 701.5Q1002 677 1069 675H1076Q1135 675 1189.0 699.0Q1243 723 1284.0 764.0Q1325 805 1349.0 859.0Q1373 913 1373 972V1849Q1290 1884 1202.5 1902.0Q1115 1920 1024 1920Q900 1920 785.5 1888.0Q671 1856 571.5 1797.5Q472 1739 390.5 1657.5Q309 1576 250.5 1476.5Q192 1377 160.0 1262.5Q128 1148 128 1024Q128 900 160.0 785.5Q192 671 250.5 571.5Q309 472 390.5 390.5Q472 309 571.5 250.5Q671 192 785.5 160.0Q900 128 1024 128Q1148 128 1262.5 160.0Q1377 192 1476.5 250.5Q1576 309 1657.5 390.5Q1739 472 1797.5 571.5Q1856 671 1888.0 785.5Q1920 900 1920 1024Z" fill="black" />
  </g>
</svg>