<svg xmlns="http://www.w3.org/2000/svg" viewBox="0 0 2048 2048">
  <g transform="matrix(1 0 0 -1 0 2048)">
    <path d="M1792 1088Q1843 1088 1889.5 1068.0Q1936 1048 1971.0 1014.0Q2006 980 2027.0 934.0Q2048 888 2048 837V507Q2048 457 2027.5 411.5Q2007 366 1972.5 331.5Q1938 297 1892.5 276.5Q1847 256 1797 256H251Q201 256 155.5 276.5Q110 297 75.5 331.5Q41 366 20.5 411.5Q0 457 0 507V1541Q0 1591 20.5 1636.5Q41 1682 75.5 1716.5Q110 1751 155.5 1771.5Q201 1792 251 1792H1285Q1337 1792 1382.0 1772.0Q1427 1752 1460.5 1717.5Q1494 1683 1514.0 1637.5Q1534 1592 1536 1541Q1537 1530 1537.0 1519.0Q1537 1508 1537 1497Q1537 1474 1536.5 1452.0Q1536 1430 1536 1408Q1587 1408 1633.5 1388.0Q1680 1368 1715.0 1334.0Q1750 1300 1770.5 1254.5Q1791 1209 1792 1157ZM128 512Q128 485 138.0 461.5Q148 438 165.0 421.0Q182 404 205.5 394.0Q229 384 256 384H674Q640 444 640 512V1157Q640 1209 661.0 1254.5Q682 1300 717.0 1334.0Q752 1368 798.5 1388.0Q845 1408 896 1408H1408V1536Q1408 1562 1398.0 1585.5Q1388 1609 1370.5 1626.5Q1353 1644 1329.5 1654.0Q1306 1664 1280 1664H256Q229 1664 206.0 1654.0Q183 1644 165.5 1626.5Q148 1609 138.0 1586.0Q128 1563 128 1536ZM1250 384Q1216 444 1216 512V837Q1216 889 1237.0 934.5Q1258 980 1293.0 1014.0Q1328 1048 1374.5 1068.0Q1421 1088 1472 1088H1664V1152Q1664 1178 1654.0 1201.5Q1644 1225 1626.5 1242.5Q1609 1260 1585.5 1270.0Q1562 1280 1536 1280H896Q869 1280 846.0 1270.0Q823 1260 805.5 1242.5Q788 1225 778.0 1202.0Q768 1179 768 1152V512Q768 485 778.0 461.5Q788 438 805.0 421.0Q822 404 845.5 394.0Q869 384 896 384ZM1920 832Q1920 858 1910.0 881.5Q1900 905 1882.5 922.5Q1865 940 1841.5 950.0Q1818 960 1792 960H1472Q1445 960 1422.0 950.0Q1399 940 1381.5 922.5Q1364 905 1354.0 882.0Q1344 859 1344 832V512Q1344 485 1354.0 461.5Q1364 438 1381.0 421.0Q1398 404 1421.5 394.0Q1445 384 1472 384H1792Q1819 384 1842.0 394.0Q1865 404 1882.5 421.5Q1900 439 1910.0 462.0Q1920 485 1920 512Z" fill="black" />
  </g>
</svg>