<svg xmlns="http://www.w3.org/2000/svg" viewBox="0 0 2048 2048">
  <g transform="matrix(1 0 0 -1 0 2048)">
    <path d="M811 1707Q811 1750 828.0 1789.0Q845 1828 874.0 1857.0Q903 1886 941.5 1903.0Q980 1920 1024 1920Q1067 1920 1106.0 1903.0Q1145 1886 1174.0 1857.0Q1203 1828 1220.0 1789.0Q1237 1750 1237 1707Q1237 1663 1220.0 1624.0Q1203 1585 1174.0 1556.0Q1145 1527 1106.5 1510.0Q1068 1493 1024 1493Q980 1493 941.5 1510.0Q903 1527 874.0 1556.0Q845 1585 828.0 1624.0Q811 1663 811 1707ZM853 341V1024Q853 1059 866.5 1090.0Q880 1121 903.5 1144.5Q927 1168 958.0 1181.5Q989 1195 1024 1195Q1059 1195 1090.0 1181.5Q1121 1168 1144.5 1144.5Q1168 1121 1181.5 1090.0Q1195 1059 1195 1024V341Q1195 306 1181.5 275.0Q1168 244 1144.5 221.0Q1121 198 1090.0 184.5Q1059 171 1024 171Q989 171 958.0 184.5Q927 198 903.5 221.0Q880 244 866.5 275.0Q853 306 853 341Z" fill="black" />
  </g>
</svg>