<svg xmlns="http://www.w3.org/2000/svg" viewBox="0 0 2048 2048">
  <g transform="matrix(1 0 0 -1 0 2048)">
    <path d="M1792 192V1856Q1792 1882 1811.0 1901.0Q1830 1920 1856 1920Q1882 1920 1901.0 1901.0Q1920 1882 1920 1856V192Q1920 166 1901.0 147.0Q1882 128 1856 128Q1830 128 1811.0 147.0Q1792 166 1792 192ZM128 306V1742Q128 1776 141.0 1805.0Q154 1834 176.0 1855.5Q198 1877 227.5 1889.5Q257 1902 290 1902Q335 1902 376 1875L1465 1158Q1499 1135 1518.0 1100.0Q1537 1065 1537 1024Q1537 983 1518.0 948.0Q1499 913 1465 890L376 173Q356 160 333.5 153.0Q311 146 287 146Q254 146 225.5 159.0Q197 172 175.0 193.5Q153 215 140.5 244.0Q128 273 128 306Z" fill="black" />
  </g>
</svg>