<svg xmlns="http://www.w3.org/2000/svg" viewBox="0 0 2048 2048">
  <g transform="matrix(1 0 0 -1 0 2048)">
    <path d="M1024 903 487 366Q462 341 427 341Q391 341 366.0 366.0Q341 391 341 427Q341 462 366 487L903 1024L366 1561Q341 1586 341 1622Q341 1640 348.0 1655.5Q355 1671 366.5 1682.5Q378 1694 393.5 1700.5Q409 1707 427 1707Q462 1707 487 1682L1024 1145L1561 1682Q1586 1707 1621 1707Q1657 1707 1682.0 1682.0Q1707 1657 1707 1621Q1707 1586 1682 1561L1145 1024L1682 487Q1707 462 1707 426Q1707 408 1700.0 392.5Q1693 377 1681.5 365.5Q1670 354 1654.5 347.5Q1639 341 1621 341Q1586 341 1561 366Z" fill="black" />
  </g>
</svg>