<svg xmlns="http://www.w3.org/2000/svg" viewBox="0 0 2048 2048">
  <g transform="matrix(1 0 0 -1 0 2048)">
    <path d="M427 939Q409 939 393.5 945.5Q378 952 366.5 963.5Q355 975 348.0 990.5Q341 1006 341 1024Q341 1042 348.0 1057.5Q355 1073 366.5 1084.5Q378 1096 393.5 1102.5Q409 1109 427 1109H1621Q1639 1109 1654.5 1102.5Q1670 1096 1681.5 1084.5Q1693 1073 1700.0 1057.5Q1707 1042 1707 1024Q1707 1006 1700.0 990.5Q1693 975 1681.5 963.5Q1670 952 1654.5 945.5Q1639 939 1621 939Z" fill="black" />
  </g>
</svg>