<svg xmlns="http://www.w3.org/2000/svg" viewBox="0 0 2048 2048">
  <g transform="matrix(1 0 0 -1 0 2048)">
    <path d="M1878 939Q1878 904 1852 878L1003 29Q989 15 974.0 7.5Q959 0 939 0Q903 0 878 25L25 878Q0 903 0 939Q0 974 25.0 999.0Q50 1024 85 1024Q121 1024 146 999L853 292V1963Q853 1981 860.0 1996.5Q867 2012 878.5 2023.5Q890 2035 905.5 2041.5Q921 2048 939 2048Q974 2048 999.0 2023.0Q1024 1998 1024 1963V291L1732 999Q1757 1024 1792 1024Q1810 1024 1825.5 1017.5Q1841 1011 1852.5 999.5Q1864 988 1871.0 972.5Q1878 957 1878 939Z" fill="black" />
  </g>
</svg>