<svg xmlns="http://www.w3.org/2000/svg" viewBox="0 0 2048 2048">
  <g transform="matrix(1 0 0 -1 0 2048)">
    <path d="M1109 171Q1074 171 1049.0 196.0Q1024 221 1024 256Q1024 291 1049 316L1757 1024H85Q50 1024 25.0 1049.0Q0 1074 0 1109Q0 1127 6.5 1142.5Q13 1158 24.5 1169.5Q36 1181 51.5 1188.0Q67 1195 85 1195H1756L1049 1902Q1024 1927 1024 1963Q1024 1998 1049.0 2023.0Q1074 2048 1109 2048Q1145 2048 1170 2023L2020 1173Q2034 1159 2041.0 1144.0Q2048 1129 2048 1109Q2048 1089 2040.5 1074.0Q2033 1059 2019 1045L1170 196Q1145 171 1109 171Z" fill="black" />
  </g>
</svg>