<svg xmlns="http://www.w3.org/2000/svg" viewBox="0 0 2048 2048">
  <g transform="matrix(1 0 0 -1 0 2048)">
    <path d="M2048 1109Q2048 1074 2023.0 1049.0Q1998 1024 1963 1024H291L999 316Q1024 291 1024 256Q1024 221 999.0 196.0Q974 171 939 171Q903 171 878 196L29 1045Q15 1059 7.5 1074.0Q0 1089 0 1109Q0 1129 7.0 1144.0Q14 1159 28 1173L878 2023Q903 2048 939 2048Q975 2048 999.5 2023.5Q1024 1999 1024 1963Q1024 1927 999 1902L292 1195H1963Q1981 1195 1996.5 1188.0Q2012 1181 2023.5 1169.5Q2035 1158 2041.5 1142.5Q2048 1127 2048 1109Z" fill="black" />
  </g>
</svg>