<svg xmlns="http://www.w3.org/2000/svg" viewBox="0 0 2048 2048">
  <g transform="matrix(1 0 0 -1 0 2048)">
    <path d="M1878 1110Q1878 1084 1867.5 1060.5Q1857 1037 1839.5 1019.5Q1822 1002 1798.5 991.5Q1775 981 1749 981Q1724 981 1700.0 991.5Q1676 1002 1659 1019L1067 1611V128Q1067 102 1057.0 78.5Q1047 55 1029.5 37.5Q1012 20 988.5 10.0Q965 0 939 0Q912 0 888.5 10.0Q865 20 848.0 37.0Q831 54 821.0 77.5Q811 101 811 128V1611L219 1019Q201 1001 177.5 991.5Q154 982 129 982Q102 982 78.5 992.0Q55 1002 37.5 1019.0Q20 1036 10.0 1059.5Q0 1083 0 1110Q0 1135 10.5 1159.0Q21 1183 38 1200L848 2011Q886 2049 939 2049Q964 2049 988.0 2038.5Q1012 2028 1029 2011L1840 1200Q1857 1183 1867.5 1159.0Q1878 1135 1878 1110Z" fill="black" />
  </g>
</svg>