<svg xmlns="http://www.w3.org/2000/svg" viewBox="0 0 2048 2048">
  <g transform="matrix(1 0 0 -1 0 2048)">
    <path d="M1741 1389Q1741 1461 1711.5 1525.0Q1682 1589 1632.5 1637.0Q1583 1685 1518.0 1713.0Q1453 1741 1382 1741H413Q421 1805 452.5 1861.0Q484 1917 531.0 1958.5Q578 2000 637.5 2024.0Q697 2048 762 2048H1382Q1472 2048 1556.0 2025.0Q1640 2002 1714.5 1959.0Q1789 1916 1851.0 1854.5Q1913 1793 1958 1716Q2048 1561 2048 1382V762Q2048 697 2024.0 637.5Q2000 578 1958.5 531.0Q1917 484 1861.0 452.5Q1805 421 1741 413ZM351 0Q281 0 217.5 28.5Q154 57 105.5 105.5Q57 154 28.5 217.5Q0 281 0 351V1287Q0 1357 28.5 1420.5Q57 1484 105.5 1532.5Q154 1581 217.5 1609.5Q281 1638 351 1638H1287Q1357 1638 1421.0 1609.5Q1485 1581 1533.0 1533.0Q1581 1485 1609.5 1421.0Q1638 1357 1638 1287V351Q1638 281 1609.5 217.5Q1581 154 1532.5 105.5Q1484 57 1420.5 28.5Q1357 0 1287 0ZM1280 307Q1301 307 1316.0 322.0Q1331 337 1331 358V1280Q1331 1301 1316.0 1316.0Q1301 1331 1280 1331H358Q337 1331 322.0 1316.0Q307 1301 307 1280V358Q307 337 322.0 322.0Q337 307 358 307Z" fill="black" />
  </g>
</svg>