<svg xmlns="http://www.w3.org/2000/svg" viewBox="0 0 2048 2048">
  <g transform="matrix(1 0 0 -1 0 2048)">
    <path d="M1664 1344V704Q1664 607 1639.0 517.0Q1614 427 1568.0 349.0Q1522 271 1457.5 206.5Q1393 142 1315.0 96.0Q1237 50 1147.0 25.0Q1057 0 960 0Q863 0 773.0 25.0Q683 50 605.0 96.0Q527 142 462.5 206.5Q398 271 352.0 349.0Q306 427 281.0 517.0Q256 607 256 704V1344Q256 1441 281.0 1531.0Q306 1621 352.0 1699.0Q398 1777 462.5 1841.5Q527 1906 605.0 1952.0Q683 1998 773.0 2023.0Q863 2048 960 2048Q1057 2048 1147.0 2023.0Q1237 1998 1315.0 1952.0Q1393 1906 1457.5 1841.5Q1522 1777 1568.0 1699.0Q1614 1621 1639.0 1531.0Q1664 1441 1664 1344ZM896 1916Q798 1907 709.5 1863.0Q621 1819 553.0 1751.0Q485 1683 441.0 1594.5Q397 1506 388 1408H646Q656 1455 678.5 1496.0Q701 1537 734.0 1570.0Q767 1603 808.0 1625.5Q849 1648 896 1658ZM1532 1408Q1523 1506 1479.0 1594.5Q1435 1683 1367.0 1751.0Q1299 1819 1210.5 1863.0Q1122 1907 1024 1916V1658Q1071 1648 1112.0 1625.5Q1153 1603 1186.0 1570.0Q1219 1537 1241.5 1496.0Q1264 1455 1274 1408ZM768 1344Q768 1305 783.0 1270.0Q798 1235 824.5 1208.5Q851 1182 886.0 1167.0Q921 1152 960 1152Q999 1152 1034.0 1167.0Q1069 1182 1095.5 1208.5Q1122 1235 1137.0 1270.0Q1152 1305 1152 1344Q1152 1383 1137.0 1418.0Q1122 1453 1095.5 1479.5Q1069 1506 1034.0 1521.0Q999 1536 960 1536Q921 1536 886.0 1521.0Q851 1506 824.5 1479.5Q798 1453 783.0 1418.0Q768 1383 768 1344ZM1536 704V1280H1274Q1262 1225 1233.0 1178.0Q1204 1131 1162.0 1097.0Q1120 1063 1068.0 1043.5Q1016 1024 960 1024Q904 1024 852.0 1043.5Q800 1063 758.0 1097.0Q716 1131 687.0 1178.0Q658 1225 646 1280H384V704Q384 584 429.0 479.0Q474 374 552.0 296.0Q630 218 735.0 173.0Q840 128 960 128Q1079 128 1184.0 173.5Q1289 219 1367.0 297.0Q1445 375 1490.5 480.0Q1536 585 1536 704Z" fill="black" />
  </g>
</svg>