<svg xmlns="http://www.w3.org/2000/svg" viewBox="0 0 2048 2048">
  <g transform="matrix(1 0 0 -1 0 2048)">
    <path d="M987 1792 0 805V987L805 1792ZM539 1792 0 1253V1435L357 1792ZM1240 1598Q1182 1636 1115 1653L1253 1792H1435ZM1406 1316Q1403 1353 1392.5 1388.0Q1382 1423 1365 1456L1701 1792H1856Q1862 1792 1868.5 1791.5Q1875 1791 1881 1790ZM1633 1094Q1609 1124 1578.0 1138.0Q1547 1152 1509 1152L2033 1675Q2048 1639 2048 1600V1509ZM768 1285Q768 1337 789.0 1382.5Q810 1428 845.0 1462.0Q880 1496 926.5 1516.0Q973 1536 1024 1536Q1075 1536 1121.5 1516.0Q1168 1496 1203.0 1462.0Q1238 1428 1259.0 1382.5Q1280 1337 1280 1285V891Q1280 839 1259.0 793.5Q1238 748 1203.0 714.0Q1168 680 1121.5 660.0Q1075 640 1024 640Q973 640 926.5 660.0Q880 680 845.0 714.0Q810 748 789.0 793.5Q768 839 768 891ZM1152 896V1280Q1152 1306 1142.0 1329.5Q1132 1353 1114.5 1370.5Q1097 1388 1073.5 1398.0Q1050 1408 1024 1408Q997 1408 974.0 1398.0Q951 1388 933.5 1370.5Q916 1353 906.0 1330.0Q896 1307 896 1280V896Q896 869 906.0 845.5Q916 822 933.0 805.0Q950 788 973.5 778.0Q997 768 1024 768Q1051 768 1074.0 778.0Q1097 788 1114.5 805.5Q1132 823 1142.0 846.0Q1152 869 1152 896ZM1597 610Q1626 668 1642.5 730.0Q1659 792 1663 857L2048 1243V1061ZM960 388Q867 398 785.5 443.0Q704 488 643.5 556.0Q583 624 547.5 710.0Q512 796 512 889Q512 898 511.5 908.0Q511 918 511 929Q511 946 513.0 963.0Q515 980 521.5 993.5Q528 1007 541.0 1015.5Q554 1024 576 1024Q597 1024 610.0 1016.0Q623 1008 630.0 994.5Q637 981 639.0 964.5Q641 948 641 931Q641 919 640.5 908.0Q640 897 640 888Q640 810 671.0 741.5Q702 673 755.0 622.0Q808 571 877.5 541.5Q947 512 1024 512Q1101 512 1170.5 541.5Q1240 571 1293.0 622.0Q1346 673 1377.0 741.5Q1408 810 1408 888V960Q1408 986 1427.0 1005.0Q1446 1024 1472 1024Q1494 1024 1506.5 1015.5Q1519 1007 1525.5 993.5Q1532 980 1534.0 963.5Q1536 947 1536 930V896Q1536 801 1501.5 714.0Q1467 627 1407.0 558.0Q1347 489 1265.0 444.0Q1183 399 1088 388V350Q1088 333 1086.0 316.5Q1084 300 1077.5 286.5Q1071 273 1058.5 264.5Q1046 256 1024 256Q1002 256 989.0 264.5Q976 273 969.5 286.5Q963 300 961.0 316.5Q959 333 959 350Q959 360 959.5 370.0Q960 380 960 388ZM15 373Q0 409 0 448V539L384 923Q384 881 387.0 840.0Q390 799 399 757ZM1691 256H1509L2048 795V613ZM192 256Q186 256 179.5 256.5Q173 257 167 258L476 566Q510 509 553 463L347 256Z" fill="black" />
  </g>
</svg>