<svg xmlns="http://www.w3.org/2000/svg" viewBox="0 0 2048 2048">
  <g transform="matrix(1 0 0 -1 0 2048)">
    <path d="M1024 128Q1089 128 1152 137V8Q1120 4 1088.0 2.0Q1056 0 1024 0Q901 0 782.5 28.5Q664 57 555 114L79 2Q71 0 64 0Q37 0 18.5 18.5Q0 37 0 64Q0 72 8.0 106.5Q16 141 27.5 190.0Q39 239 53.5 295.5Q68 352 81.0 403.0Q94 454 104.0 493.0Q114 532 118 546Q59 657 29.5 778.0Q0 899 0 1024Q0 1166 36.5 1297.0Q73 1428 139.5 1541.5Q206 1655 299.5 1748.5Q393 1842 506.5 1908.5Q620 1975 751.0 2011.5Q882 2048 1024 2048Q1165 2048 1296.0 2011.5Q1427 1975 1541.0 1908.5Q1655 1842 1748.5 1748.5Q1842 1655 1908.5 1541.0Q1975 1427 2011.5 1296.0Q2048 1165 2048 1024Q2048 944 2036 865Q2021 920 1991.0 968.5Q1961 1017 1919 1055Q1915 1175 1881.0 1286.0Q1847 1397 1787.5 1493.5Q1728 1590 1646.5 1668.5Q1565 1747 1466.5 1803.0Q1368 1859 1256.0 1889.5Q1144 1920 1024 1920Q900 1920 785.5 1888.0Q671 1856 571.5 1797.5Q472 1739 390.5 1657.5Q309 1576 250.5 1476.5Q192 1377 160.0 1262.5Q128 1148 128 1024Q128 903 158.0 798.0Q188 693 242 586Q246 578 248.5 570.0Q251 562 251 553Q251 547 244.5 518.0Q238 489 228.0 448.0Q218 407 206.0 360.0Q194 313 183.0 270.0Q172 227 163.5 194.5Q155 162 152 150L549 244Q554 245 563 245Q580 245 594 238Q648 211 699.0 190.5Q750 170 802.0 156.0Q854 142 909.0 135.0Q964 128 1024 128ZM2048 576V64Q2048 38 2029.0 19.0Q2010 0 1984 0H1344Q1318 0 1299.0 19.0Q1280 38 1280 64V576Q1280 598 1288.5 610.5Q1297 623 1310.5 629.5Q1324 636 1340.5 638.0Q1357 640 1374 640H1408V768Q1408 820 1428.5 867.0Q1449 914 1483.5 949.0Q1518 984 1564.5 1004.5Q1611 1025 1664 1025Q1703 1025 1739.5 1013.5Q1776 1002 1806.5 981.0Q1837 960 1861.5 931.0Q1886 902 1901 866Q1914 835 1918.0 802.0Q1922 769 1922 736Q1922 711 1921.0 687.0Q1920 663 1920 640H1954Q1971 640 1987.5 638.0Q2004 636 2017.5 629.5Q2031 623 2039.5 610.5Q2048 598 2048 576ZM1536 640H1792V768Q1792 795 1782.0 818.5Q1772 842 1755.0 859.0Q1738 876 1714.5 886.0Q1691 896 1664 896Q1637 896 1614.0 886.0Q1591 876 1573.5 858.5Q1556 841 1546.0 818.0Q1536 795 1536 768ZM1792 320Q1792 346 1782.0 369.5Q1772 393 1754.5 410.5Q1737 428 1713.5 438.0Q1690 448 1664 448Q1637 448 1614.0 438.0Q1591 428 1573.5 410.5Q1556 393 1546.0 370.0Q1536 347 1536 320Q1536 293 1546.0 269.5Q1556 246 1573.0 229.0Q1590 212 1613.5 202.0Q1637 192 1664 192Q1691 192 1714.0 202.0Q1737 212 1754.5 229.5Q1772 247 1782.0 270.0Q1792 293 1792 320Z" fill="black" />
  </g>
</svg>