<svg xmlns="http://www.w3.org/2000/svg" viewBox="0 0 2048 2048">
  <g transform="matrix(1 0 0 -1 0 2048)">
    <path d="M632 0Q557 0 488.5 30.5Q420 61 368.5 112.5Q317 164 286.5 232.5Q256 301 256 376V1672Q256 1747 286.5 1815.5Q317 1884 368.5 1935.5Q420 1987 488.5 2017.5Q557 2048 632 2048H1416Q1491 2048 1559.5 2017.5Q1628 1987 1679.5 1935.5Q1731 1884 1761.5 1815.5Q1792 1747 1792 1672V376Q1792 301 1761.5 232.5Q1731 164 1679.5 112.5Q1628 61 1559.5 30.5Q1491 0 1416 0ZM1413 128Q1463 128 1508.5 148.5Q1554 169 1588.5 203.5Q1623 238 1643.5 283.5Q1664 329 1664 379V1669Q1664 1719 1643.5 1764.5Q1623 1810 1588.5 1844.5Q1554 1879 1508.5 1899.5Q1463 1920 1413 1920H635Q585 1920 539.5 1899.5Q494 1879 459.5 1844.5Q425 1810 404.5 1764.5Q384 1719 384 1669V379Q384 329 404.5 283.5Q425 238 459.5 203.5Q494 169 539.5 148.5Q585 128 635 128ZM640 1152Q613 1152 589.5 1162.0Q566 1172 549.0 1189.0Q532 1206 522.0 1229.5Q512 1253 512 1280V1408Q512 1435 522.0 1458.0Q532 1481 549.5 1498.5Q567 1516 590.0 1526.0Q613 1536 640 1536H768Q794 1536 817.5 1526.0Q841 1516 858.5 1498.5Q876 1481 886.0 1457.5Q896 1434 896 1408V1280Q896 1253 886.0 1230.0Q876 1207 858.5 1189.5Q841 1172 818.0 1162.0Q795 1152 768 1152ZM640 1408V1280H768V1408ZM1088 1280Q1062 1280 1043.0 1299.0Q1024 1318 1024 1344Q1024 1370 1043.0 1389.0Q1062 1408 1088 1408H1472Q1498 1408 1517.0 1389.0Q1536 1370 1536 1344Q1536 1318 1517.0 1299.0Q1498 1280 1472 1280ZM640 512Q613 512 589.5 522.0Q566 532 549.0 549.0Q532 566 522.0 589.5Q512 613 512 640V768Q512 795 522.0 818.0Q532 841 549.5 858.5Q567 876 590.0 886.0Q613 896 640 896H768Q794 896 817.5 886.0Q841 876 858.5 858.5Q876 841 886.0 817.5Q896 794 896 768V640Q896 613 886.0 590.0Q876 567 858.5 549.5Q841 532 818.0 522.0Q795 512 768 512ZM640 768V640H768V768ZM1088 640Q1062 640 1043.0 659.0Q1024 678 1024 704Q1024 730 1043.0 749.0Q1062 768 1088 768H1472Q1498 768 1517.0 749.0Q1536 730 1536 704Q1536 678 1517.0 659.0Q1498 640 1472 640Z" fill="black" />
  </g>
</svg>