<svg xmlns="http://www.w3.org/2000/svg" viewBox="0 0 2048 2048">
  <g transform="matrix(1 0 0 -1 0 2048)">
    <path d="M2041 1719Q2041 1647 2014.0 1579.5Q1987 1512 1936 1461L658 183Q646 171 630.5 163.0Q615 155 598 150L103 26Q93 24 88 24Q62 24 43.0 42.5Q24 61 24 87Q24 93 26 103L150 598Q155 615 163.0 630.5Q171 646 183 658L1475 1950Q1522 1997 1584.5 2022.5Q1647 2048 1713 2048Q1782 2048 1842.0 2022.5Q1902 1997 1946.5 1952.5Q1991 1908 2016.0 1848.0Q2041 1788 2041 1719ZM1913 1715Q1913 1758 1898.5 1795.5Q1884 1833 1857.5 1861.0Q1831 1889 1794.0 1904.5Q1757 1920 1713 1920Q1675 1920 1646.0 1909.5Q1617 1899 1592.5 1881.0Q1568 1863 1546.0 1840.0Q1524 1817 1499 1792L1792 1499Q1817 1523 1839.0 1546.0Q1861 1569 1877.5 1594.0Q1894 1619 1903.5 1648.0Q1913 1677 1913 1715ZM176 176 567 274 1702 1409 1409 1702 274 567Z" fill="black" />
  </g>
</svg>