<svg xmlns="http://www.w3.org/2000/svg" viewBox="0 0 2048 2048">
  <g transform="matrix(1 0 0 -1 0 2048)">
    <path d="M163 487Q163 516 176.5 531.0Q190 546 213 559Q241 574 273.0 583.5Q305 593 334 605Q422 640 506.0 684.0Q590 728 665 785Q759 856 830.0 944.5Q901 1033 948.5 1133.5Q996 1234 1020.0 1345.0Q1044 1456 1044 1573Q1044 1670 1028.5 1762.5Q1013 1855 994 1949Q993 1954 992.5 1958.0Q992 1962 992 1967Q992 1999 1014.0 2021.0Q1036 2043 1068 2043Q1125 2043 1185.5 2032.5Q1246 2022 1305.5 2003.5Q1365 1985 1422.0 1960.5Q1479 1936 1528 1908Q1646 1840 1741.0 1744.5Q1836 1649 1902.0 1534.0Q1968 1419 2003.5 1288.5Q2039 1158 2039 1022Q2039 881 2002.5 750.5Q1966 620 1899.0 506.5Q1832 393 1739.0 300.0Q1646 207 1532.0 140.5Q1418 74 1287.5 37.5Q1157 1 1016 1Q896 1 774.0 31.5Q652 62 541.0 119.0Q430 176 335.5 258.0Q241 340 176 443Q163 463 163 487ZM1016 130Q1139 130 1253.5 162.0Q1368 194 1467.5 251.5Q1567 309 1648.5 390.5Q1730 472 1788.5 571.0Q1847 670 1879.0 784.5Q1911 899 1911 1022Q1911 1134 1884.5 1239.0Q1858 1344 1808.5 1438.0Q1759 1532 1689.5 1612.0Q1620 1692 1533.5 1753.5Q1447 1815 1346.0 1855.0Q1245 1895 1134 1909Q1151 1826 1161.5 1742.5Q1172 1659 1172 1574Q1172 1428 1138.5 1291.0Q1105 1154 1037 1025Q979 915 902.0 829.5Q825 744 733.5 676.5Q642 609 537.5 557.0Q433 505 321 462Q384 383 462.5 321.0Q541 259 630.5 216.5Q720 174 817.5 152.0Q915 130 1016 130Z" fill="black" />
  </g>
</svg>