<svg xmlns="http://www.w3.org/2000/svg" viewBox="0 0 2048 2048">
  <g transform="matrix(1 0 0 -1 0 2048)">
    <path d="M256 1608Q256 1698 292.5 1778.0Q329 1858 390.5 1918.0Q452 1978 533.0 2013.0Q614 2048 704 2048Q796 2048 877.5 2012.5Q959 1977 1020.0 1916.0Q1081 1855 1116.5 1773.5Q1152 1692 1152 1600Q1152 1508 1116.5 1426.5Q1081 1345 1020.0 1284.0Q959 1223 877.5 1187.5Q796 1152 704 1152Q609 1152 527.0 1188.0Q445 1224 385.0 1286.0Q325 1348 290.5 1431.0Q256 1514 256 1608ZM1024 1607Q1024 1672 998.0 1729.0Q972 1786 928.0 1828.5Q884 1871 826.0 1895.5Q768 1920 704 1920Q637 1920 579.0 1895.0Q521 1870 477.5 1826.5Q434 1783 409.0 1725.0Q384 1667 384 1600Q384 1533 409.0 1475.0Q434 1417 477.5 1373.5Q521 1330 579.0 1305.0Q637 1280 704 1280Q773 1280 831.5 1305.5Q890 1331 933.0 1375.5Q976 1420 1000.0 1479.5Q1024 1539 1024 1607ZM1280 1479Q1280 1544 1306.0 1601.0Q1332 1658 1376.0 1700.5Q1420 1743 1478.0 1767.5Q1536 1792 1600 1792Q1667 1792 1725.0 1767.0Q1783 1742 1826.5 1698.5Q1870 1655 1895.0 1597.0Q1920 1539 1920 1472Q1920 1405 1895.0 1347.0Q1870 1289 1826.5 1245.5Q1783 1202 1725.0 1177.0Q1667 1152 1600 1152Q1531 1152 1472.5 1177.5Q1414 1203 1371.0 1247.5Q1328 1292 1304.0 1351.5Q1280 1411 1280 1479ZM1792 1472Q1792 1511 1777.0 1546.0Q1762 1581 1735.5 1607.5Q1709 1634 1674.0 1649.0Q1639 1664 1600 1664Q1561 1664 1526.0 1649.0Q1491 1634 1464.5 1607.5Q1438 1581 1423.0 1546.0Q1408 1511 1408 1472Q1408 1433 1423.0 1398.0Q1438 1363 1464.5 1336.5Q1491 1310 1526.0 1295.0Q1561 1280 1600 1280Q1639 1280 1674.0 1295.0Q1709 1310 1735.5 1336.5Q1762 1363 1777.0 1398.0Q1792 1433 1792 1472ZM0 772Q0 815 14.5 860.0Q29 905 56.0 941.5Q83 978 121.5 1001.0Q160 1024 208 1024H1200Q1248 1024 1286.5 1001.0Q1325 978 1352.0 941.5Q1379 905 1393.5 860.0Q1408 815 1408 772Q1408 685 1390.0 604.5Q1372 524 1334.5 453.0Q1297 382 1240.5 322.5Q1184 263 1107 219Q1062 193 1012.5 175.5Q963 158 912.0 147.5Q861 137 808.5 132.5Q756 128 704 128Q599 128 496.0 147.0Q393 166 301 219Q223 264 166.5 323.0Q110 382 73.0 452.5Q36 523 18.0 603.5Q0 684 0 772ZM1397 256Q1446 315 1481 387Q1574 394 1654.5 421.5Q1735 449 1794.0 499.5Q1853 550 1886.5 624.5Q1920 699 1920 800Q1920 815 1915.5 831.5Q1911 848 1902.5 862.5Q1894 877 1881.0 886.5Q1868 896 1851 896H1550Q1539 930 1524.0 962.5Q1509 995 1489 1024H1851Q1895 1024 1931.5 1004.5Q1968 985 1994.0 953.5Q2020 922 2034.0 881.5Q2048 841 2048 800Q2048 646 1979.0 527.0Q1910 408 1774 334Q1688 287 1591.0 271.5Q1494 256 1397 256ZM1280 768Q1280 785 1275.0 807.5Q1270 830 1259.5 849.5Q1249 869 1233.0 882.5Q1217 896 1196 896H212Q191 896 175.0 882.5Q159 869 148.5 849.5Q138 830 133.0 807.5Q128 785 128 768Q128 635 171.5 538.5Q215 442 292.0 379.0Q369 316 474.5 286.0Q580 256 704 256Q828 256 933.5 286.0Q1039 316 1116.0 379.0Q1193 442 1236.5 538.5Q1280 635 1280 768Z" fill="black" />
  </g>
</svg>