<svg xmlns="http://www.w3.org/2000/svg" viewBox="0 0 2048 2048">
  <g transform="matrix(1 0 0 -1 0 2048)">
    <path d="M1735 1792Q1798 1792 1855.0 1766.5Q1912 1741 1954.5 1698.5Q1997 1656 2022.5 1599.0Q2048 1542 2048 1479V441Q2048 378 2022.5 321.0Q1997 264 1954.5 221.5Q1912 179 1855.0 153.5Q1798 128 1735 128H313Q250 128 193.0 153.5Q136 179 93.5 221.5Q51 264 25.5 321.0Q0 378 0 441V1479Q0 1542 25.5 1599.0Q51 1656 93.5 1698.5Q136 1741 193.0 1766.5Q250 1792 313 1792ZM320 1664Q281 1664 246.0 1649.0Q211 1634 184.5 1607.5Q158 1581 143.0 1546.0Q128 1511 128 1472V1444L1024 907L1920 1444V1472Q1920 1511 1905.0 1546.0Q1890 1581 1863.5 1607.5Q1837 1634 1802.0 1649.0Q1767 1664 1728 1664ZM1728 256Q1767 256 1802.0 271.0Q1837 286 1863.5 312.5Q1890 339 1905.0 374.0Q1920 409 1920 448V1295L1057 777Q1042 768 1024 768Q1006 768 991 777L128 1295V448Q128 409 143.0 374.0Q158 339 184.5 312.5Q211 286 246.0 271.0Q281 256 320 256Z" fill="black" />
  </g>
</svg>