<svg xmlns="http://www.w3.org/2000/svg" viewBox="0 0 2048 2048">
  <g transform="matrix(1 0 0 -1 0 2048)">
    <path d="M64 128Q36 128 18.0 146.5Q0 165 0 193Q0 200 2 210L191 868Q196 885 210.0 898.0Q224 911 242 914L1120 1053Q1134 1055 1142.0 1064.5Q1150 1074 1150 1088Q1150 1102 1142.0 1111.5Q1134 1121 1120 1123L242 1262Q224 1265 210.0 1278.0Q196 1291 191 1308L2 1966Q0 1976 0 1983Q0 2011 18.0 2029.5Q36 2048 64 2048Q79 2048 91 2042L2011 1146Q2028 1138 2038.0 1122.5Q2048 1107 2048 1088Q2048 1069 2038.0 1053.5Q2028 1038 2011 1030L91 134Q79 128 64 128Z" fill="black" />
  </g>
</svg>