<svg xmlns="http://www.w3.org/2000/svg" viewBox="0 0 2048 2048">
  <g transform="matrix(1 0 0 -1 0 2048)">
    <path d="M1920 1088Q1920 1062 1901.0 1043.0Q1882 1024 1856 1024Q1830 1024 1811 1043L1024 1829V64Q1024 38 1005.0 19.0Q986 0 960 0Q934 0 915.0 19.0Q896 38 896 64V1829L109 1043Q90 1024 64 1024Q38 1024 19.0 1043.0Q0 1062 0 1088Q0 1114 19 1133L912 2026Q923 2037 933.5 2042.5Q944 2048 960 2048Q976 2048 986.5 2042.5Q997 2037 1008 2026L1901 1133Q1920 1114 1920 1088Z" fill="black" />
  </g>
</svg>