<svg xmlns="http://www.w3.org/2000/svg" viewBox="0 0 2048 2048">
  <g transform="matrix(1 0 0 -1 0 2048)">
    <path d="M1984 1728Q1984 1706 1975.5 1693.0Q1967 1680 1953.0 1673.5Q1939 1667 1922.0 1665.0Q1905 1663 1887 1663Q1877 1663 1867.0 1663.5Q1857 1664 1849 1664L1683 227Q1677 179 1655.0 137.5Q1633 96 1599.0 65.5Q1565 35 1521.0 17.5Q1477 0 1429 0H619Q571 0 527.0 17.5Q483 35 449.0 65.5Q415 96 393.0 137.5Q371 179 365 227L199 1664Q194 1664 189 1664L169 1663Q164 1663 159 1663Q142 1663 125.0 1665.0Q108 1667 94.5 1674.0Q81 1681 72.5 1694.0Q64 1707 64 1728Q64 1754 83.0 1773.0Q102 1792 128 1792H710Q720 1847 749.5 1894.0Q779 1941 821.5 1975.5Q864 2010 916.0 2029.0Q968 2048 1024 2048Q1080 2048 1132.0 2029.0Q1184 2010 1226.5 1975.5Q1269 1941 1298.5 1894.0Q1328 1847 1338 1792H1920Q1946 1792 1965.0 1773.0Q1984 1754 1984 1728ZM843 1792H1205Q1195 1821 1177.0 1844.5Q1159 1868 1135.0 1885.0Q1111 1902 1083.0 1911.0Q1055 1920 1024 1920Q993 1920 965.0 1911.0Q937 1902 913.0 1885.0Q889 1868 871.0 1844.5Q853 1821 843 1792ZM1720 1664H328L492 241Q498 191 533.5 159.5Q569 128 619 128H1429Q1453 128 1475.0 136.5Q1497 145 1514.0 160.0Q1531 175 1542.0 196.0Q1553 217 1556 241ZM768 576V1216Q768 1242 787.0 1261.0Q806 1280 832 1280Q858 1280 877.0 1261.0Q896 1242 896 1216V576Q896 550 877.0 531.0Q858 512 832 512Q806 512 787.0 531.0Q768 550 768 576ZM1152 576V1216Q1152 1242 1171.0 1261.0Q1190 1280 1216 1280Q1242 1280 1261.0 1261.0Q1280 1242 1280 1216V576Q1280 550 1261.0 531.0Q1242 512 1216 512Q1190 512 1171.0 531.0Q1152 550 1152 576Z" fill="black" />
  </g>
</svg>