<svg xmlns="http://www.w3.org/2000/svg" viewBox="0 0 2048 2048">
  <g transform="matrix(1 0 0 -1 0 2048)">
    <path d="M1544 1920Q1619 1920 1687.5 1889.5Q1756 1859 1807.5 1807.5Q1859 1756 1889.5 1687.5Q1920 1619 1920 1544V504Q1920 429 1889.5 360.5Q1859 292 1807.5 240.5Q1756 189 1687.5 158.5Q1619 128 1544 128H504Q429 128 360.5 158.5Q292 189 240.5 240.5Q189 292 158.5 360.5Q128 429 128 504V1544Q128 1619 158.5 1687.5Q189 1756 240.5 1807.5Q292 1859 360.5 1889.5Q429 1920 504 1920ZM507 1792Q457 1792 411.5 1771.5Q366 1751 331.5 1716.5Q297 1682 276.5 1637.0Q256 1592 256 1542V1537H1792V1542Q1792 1592 1771.5 1637.0Q1751 1682 1716.5 1716.5Q1682 1751 1636.5 1771.5Q1591 1792 1541 1792ZM1541 256Q1591 256 1636.5 276.5Q1682 297 1716.5 331.5Q1751 366 1771.5 411.5Q1792 457 1792 507V1407H256V507Q256 457 276.5 411.5Q297 366 331.5 331.5Q366 297 411.5 276.5Q457 256 507 256ZM1664 576Q1664 550 1645.0 531.0Q1626 512 1600 512Q1583 512 1567.0 521.5Q1551 531 1543 547L1287 1059Q1280 1073 1280 1088Q1280 1114 1299.0 1133.0Q1318 1152 1344 1152Q1361 1152 1377.0 1142.5Q1393 1133 1401 1117L1657 605Q1664 591 1664 576ZM504 852Q504 815 507.5 776.0Q511 737 525.5 704.5Q540 672 567.5 651.5Q595 631 643 631Q671 631 688.5 638.5Q706 646 718.0 657.0Q730 668 738.5 681.5Q747 695 755.5 706.0Q764 717 775.0 724.5Q786 732 804 732Q829 732 846.0 714.5Q863 697 863 672Q863 660 858 647Q829 580 771.0 546.0Q713 512 641 512Q561 512 500.5 553.0Q440 594 411 668Q391 718 387.5 766.0Q384 814 384 866Q384 897 391.5 930.5Q399 964 410 993Q437 1067 492.0 1109.5Q547 1152 627 1152Q715 1152 774.5 1113.0Q834 1074 860 988Q863 979 863 968Q863 944 846.0 926.0Q829 908 804 908Q778 908 765.0 922.0Q752 936 743.0 955.0Q734 974 723.5 993.5Q713 1013 693 1023Q680 1029 665.0 1030.5Q650 1032 635 1032H624Q590 1032 567.0 1014.5Q544 997 530.0 970.0Q516 943 510.0 911.5Q504 880 504 852ZM1152 960Q1152 934 1133.0 915.0Q1114 896 1088 896Q1062 896 1043.0 915.0Q1024 934 1024 960Q1024 986 1043.0 1005.0Q1062 1024 1088 1024Q1114 1024 1133.0 1005.0Q1152 986 1152 960ZM1152 704Q1152 678 1133.0 659.0Q1114 640 1088 640Q1062 640 1043.0 659.0Q1024 678 1024 704Q1024 730 1043.0 749.0Q1062 768 1088 768Q1114 768 1133.0 749.0Q1152 730 1152 704Z" fill="black" />
  </g>
</svg>