<svg xmlns="http://www.w3.org/2000/svg" viewBox="0 0 2048 2048">
  <g transform="matrix(1 0 0 -1 0 2048)">
    <path d="M2048 1024Q2048 882 2011.5 751.5Q1975 621 1908.5 507.0Q1842 393 1748.5 299.5Q1655 206 1541.0 139.5Q1427 73 1296.0 36.5Q1165 0 1024 0Q882 0 751.5 36.5Q621 73 507.0 139.5Q393 206 299.5 299.5Q206 393 139.5 507.0Q73 621 36.5 752.0Q0 883 0 1024Q0 1165 36.5 1296.0Q73 1427 139.5 1541.0Q206 1655 299.5 1748.5Q393 1842 507.0 1908.5Q621 1975 752.0 2011.5Q883 2048 1024 2048Q1165 2048 1296.0 2011.5Q1427 1975 1541.0 1908.5Q1655 1842 1748.5 1748.5Q1842 1655 1908.5 1541.0Q1975 1427 2011.5 1296.0Q2048 1165 2048 1024ZM679 1408H1369Q1361 1447 1346.0 1500.0Q1331 1553 1309.0 1610.0Q1287 1667 1258.5 1722.5Q1230 1778 1194.5 1822.0Q1159 1866 1116.5 1893.0Q1074 1920 1024 1920Q974 1920 931.5 1893.0Q889 1866 853.5 1822.0Q818 1778 789.5 1722.5Q761 1667 739.0 1610.0Q717 1553 702.0 1500.0Q687 1447 679 1408ZM214 1408H548Q571 1532 614.5 1650.0Q658 1768 731 1871Q647 1845 570.0 1799.0Q493 1753 426.5 1692.0Q360 1631 305.5 1559.0Q251 1487 214 1408ZM1317 1871Q1390 1768 1433.5 1650.0Q1477 1532 1500 1408H1834Q1796 1487 1742.0 1559.0Q1688 1631 1621.5 1692.0Q1555 1753 1478.0 1799.0Q1401 1845 1317 1871ZM528 768Q519 832 515.5 895.5Q512 959 512 1024Q512 1089 515.5 1152.5Q519 1216 528 1280H165Q147 1217 137.5 1153.5Q128 1090 128 1024Q128 958 137.5 894.5Q147 831 165 768ZM1392 768Q1401 832 1404.5 895.5Q1408 959 1408 1024Q1408 1089 1404.5 1152.5Q1401 1216 1392 1280H656Q647 1216 643.5 1152.5Q640 1089 640 1024Q640 959 643.5 895.5Q647 832 656 768ZM1883 1280H1520Q1529 1216 1532.5 1152.5Q1536 1089 1536 1024Q1536 959 1532.5 895.5Q1529 832 1520 768H1883Q1901 831 1910.5 894.5Q1920 958 1920 1024Q1920 1090 1910.5 1153.5Q1901 1217 1883 1280ZM731 177Q658 280 614.5 398.0Q571 516 548 640H214Q251 562 305.0 489.5Q359 417 426.0 356.5Q493 296 570.0 249.5Q647 203 731 177ZM1369 640H679Q687 601 702.0 548.0Q717 495 739.0 438.0Q761 381 789.5 325.5Q818 270 853.5 226.0Q889 182 931.5 155.0Q974 128 1024 128Q1074 128 1116.5 155.0Q1159 182 1194.5 226.0Q1230 270 1258.5 325.5Q1287 381 1309.0 438.0Q1331 495 1346.0 548.0Q1361 601 1369 640ZM1834 640H1500Q1477 516 1433.5 398.0Q1390 280 1317 177Q1401 203 1478.0 249.0Q1555 295 1621.5 356.0Q1688 417 1742.0 489.0Q1796 561 1834 640Z" fill="black" />
  </g>
</svg>