<svg xmlns="http://www.w3.org/2000/svg" viewBox="0 0 2048 2048">
  <g transform="matrix(1 0 0 -1 0 2048)">
    <path d="M2049 64Q2049 38 2030.0 19.0Q2011 0 1985 0Q1958 0 1939 19L1296 662L1149 174Q1143 154 1126.5 141.0Q1110 128 1088 128Q1062 128 1043 147L640 550L90 0H0V91L550 640L147 1043Q128 1062 128 1089Q128 1109 139.0 1124.0Q150 1139 168 1147L627 1331L19 1939Q0 1958 0 1984Q0 2011 19.5 2029.5Q39 2048 65 2048Q91 2048 110 2029L2030 109Q2049 90 2049 64ZM925 1395 829 1491 1017 1906Q1040 1958 1087.5 1988.5Q1135 2019 1192 2019Q1230 2019 1265.5 2004.5Q1301 1990 1328 1963L1958 1332Q1985 1305 1999.5 1269.0Q2014 1233 2014 1195Q2014 1138 1981.5 1089.5Q1949 1041 1896 1019L1476 844L1378 942L1847 1138Q1865 1146 1875.5 1161.5Q1886 1177 1886 1197Q1886 1224 1868 1242L1237 1872Q1229 1880 1216.0 1885.5Q1203 1891 1192 1891Q1173 1891 1157.5 1880.5Q1142 1870 1134 1853ZM306 1065 1057 313 1193 765 725 1233Z" fill="black" />
  </g>
</svg>