<svg xmlns="http://www.w3.org/2000/svg" viewBox="0 0 2048 2048">
  <g transform="matrix(1 0 0 -1 0 2048)">
    <path d="M1544 1920Q1619 1920 1687.5 1889.5Q1756 1859 1807.5 1807.5Q1859 1756 1889.5 1687.5Q1920 1619 1920 1544V504Q1920 429 1889.5 360.5Q1859 292 1807.5 240.5Q1756 189 1687.5 158.5Q1619 128 1544 128H504Q429 128 360.5 158.5Q292 189 240.5 240.5Q189 292 158.5 360.5Q128 429 128 504V1544Q128 1619 158.5 1687.5Q189 1756 240.5 1807.5Q292 1859 360.5 1889.5Q429 1920 504 1920ZM507 1792Q456 1792 410.0 1771.0Q364 1750 330.0 1715.0Q296 1680 276.0 1633.5Q256 1587 256 1536H1792V1541Q1792 1591 1771.5 1636.5Q1751 1682 1716.5 1716.5Q1682 1751 1636.5 1771.5Q1591 1792 1541 1792ZM1541 256Q1591 256 1636.5 276.5Q1682 297 1716.5 331.5Q1751 366 1771.5 411.5Q1792 457 1792 507V1408H256V507Q256 457 276.5 411.5Q297 366 331.5 331.5Q366 297 411.5 276.5Q457 256 507 256ZM512 1024Q512 1051 522.0 1074.0Q532 1097 549.5 1114.5Q567 1132 590.5 1142.0Q614 1152 641 1152Q668 1152 691.0 1142.0Q714 1132 731.0 1115.0Q748 1098 758.0 1075.0Q768 1052 768 1025Q768 998 758.0 974.5Q748 951 730.5 933.5Q713 916 690.0 906.0Q667 896 640 896Q613 896 589.5 906.0Q566 916 549.0 933.0Q532 950 522.0 973.5Q512 997 512 1024ZM896 1024Q896 1051 906.0 1074.0Q916 1097 933.5 1114.5Q951 1132 974.5 1142.0Q998 1152 1025 1152Q1052 1152 1075.0 1142.0Q1098 1132 1115.0 1115.0Q1132 1098 1142.0 1075.0Q1152 1052 1152 1025Q1152 998 1142.0 974.5Q1132 951 1114.5 933.5Q1097 916 1074.0 906.0Q1051 896 1024 896Q997 896 973.5 906.0Q950 916 933.0 933.0Q916 950 906.0 973.5Q896 997 896 1024ZM1536 1025Q1536 998 1526.0 974.5Q1516 951 1498.5 933.5Q1481 916 1458.0 906.0Q1435 896 1408 896Q1381 896 1357.5 906.0Q1334 916 1317.0 933.0Q1300 950 1290.0 973.5Q1280 997 1280 1024Q1280 1051 1290.0 1074.0Q1300 1097 1317.5 1114.5Q1335 1132 1358.5 1142.0Q1382 1152 1409 1152Q1436 1152 1459.0 1142.0Q1482 1132 1499.0 1115.0Q1516 1098 1526.0 1075.0Q1536 1052 1536 1025ZM768 640Q768 613 758.0 590.0Q748 567 730.5 549.5Q713 532 689.5 522.0Q666 512 639 512Q612 512 589.0 522.0Q566 532 549.0 549.0Q532 566 522.0 589.0Q512 612 512 639Q512 666 522.0 689.5Q532 713 549.5 730.5Q567 748 590.0 758.0Q613 768 640 768Q667 768 690.5 758.0Q714 748 731.0 731.0Q748 714 758.0 690.5Q768 667 768 640ZM1152 640Q1152 613 1142.0 590.0Q1132 567 1114.5 549.5Q1097 532 1073.5 522.0Q1050 512 1023 512Q996 512 973.0 522.0Q950 532 933.0 549.0Q916 566 906.0 589.0Q896 612 896 639Q896 666 906.0 689.5Q916 713 933.5 730.5Q951 748 974.0 758.0Q997 768 1024 768Q1051 768 1074.5 758.0Q1098 748 1115.0 731.0Q1132 714 1142.0 690.5Q1152 667 1152 640Z" fill="black" />
  </g>
</svg>