<svg xmlns="http://www.w3.org/2000/svg" viewBox="0 0 2048 2048">
  <g transform="matrix(1 0 0 -1 0 2048)">
    <path d="M960 1216V1984Q960 2010 979.0 2029.0Q998 2048 1024 2048Q1050 2048 1069.0 2029.0Q1088 2010 1088 1984V1216Q1088 1190 1069.0 1171.0Q1050 1152 1024 1152Q998 1152 979.0 1171.0Q960 1190 960 1216ZM64 960Q64 1085 97.0 1206.5Q130 1328 191.5 1436.5Q253 1545 340.5 1635.5Q428 1726 537 1788Q552 1797 570 1797Q596 1797 615.0 1778.0Q634 1759 634 1733Q634 1713 625.5 1701.0Q617 1689 602 1678Q567 1654 533.5 1631.5Q500 1609 468 1580Q404 1522 353.0 1451.0Q302 1380 266.0 1301.0Q230 1222 211.0 1137.0Q192 1052 192 965Q192 849 221.5 742.5Q251 636 304.5 543.0Q358 450 434.0 373.5Q510 297 602.5 242.5Q695 188 801.5 158.0Q908 128 1024 128Q1140 128 1246.5 158.0Q1353 188 1445.5 242.5Q1538 297 1614.0 373.5Q1690 450 1743.5 543.0Q1797 636 1826.5 743.0Q1856 850 1856 965Q1856 1052 1837.0 1137.0Q1818 1222 1782.0 1301.0Q1746 1380 1695.0 1451.0Q1644 1522 1580 1580Q1548 1609 1514.5 1631.5Q1481 1654 1446 1678Q1431 1689 1422.5 1701.0Q1414 1713 1414 1733Q1414 1759 1433.0 1778.0Q1452 1797 1478 1797Q1496 1797 1511 1788Q1620 1726 1707.5 1635.5Q1795 1545 1856.5 1436.5Q1918 1328 1951.0 1206.5Q1984 1085 1984 960Q1984 828 1949.5 705.5Q1915 583 1852.5 476.0Q1790 369 1702.5 281.5Q1615 194 1508.0 131.5Q1401 69 1278.5 34.5Q1156 0 1024 0Q891 0 768.5 34.5Q646 69 539.5 131.5Q433 194 345.5 281.5Q258 369 195.5 475.5Q133 582 98.5 705.0Q64 828 64 960Z" fill="black" />
  </g>
</svg>