<svg xmlns="http://www.w3.org/2000/svg" viewBox="0 0 2048 2048">
  <g transform="matrix(1 0 0 -1 0 2048)">
    <path d="M384 256Q384 229 394.0 205.5Q404 182 421.0 165.0Q438 148 461.5 138.0Q485 128 512 128H1728Q1754 128 1773.0 109.0Q1792 90 1792 64Q1792 38 1773.0 19.0Q1754 0 1728 0H507Q457 0 411.5 20.5Q366 41 331.5 75.5Q297 110 276.5 155.5Q256 201 256 251V1797Q256 1847 276.5 1892.5Q297 1938 331.5 1972.5Q366 2007 411.5 2027.5Q457 2048 507 2048H1541Q1591 2048 1636.5 2027.5Q1682 2007 1716.5 1972.5Q1751 1938 1771.5 1892.5Q1792 1847 1792 1797V384Q1792 357 1782.0 334.0Q1772 311 1754.5 293.5Q1737 276 1714.0 266.0Q1691 256 1664 256ZM384 384H1664V1792Q1664 1818 1654.0 1841.5Q1644 1865 1626.5 1882.5Q1609 1900 1585.5 1910.0Q1562 1920 1536 1920H512Q485 1920 462.0 1910.0Q439 1900 421.5 1882.5Q404 1865 394.0 1842.0Q384 1819 384 1792ZM1408 1792Q1434 1792 1457.5 1782.0Q1481 1772 1498.5 1754.5Q1516 1737 1526.0 1713.5Q1536 1690 1536 1664V1536Q1536 1509 1526.0 1486.0Q1516 1463 1498.5 1445.5Q1481 1428 1458.0 1418.0Q1435 1408 1408 1408H640Q613 1408 589.5 1418.0Q566 1428 549.0 1445.0Q532 1462 522.0 1485.5Q512 1509 512 1536V1664Q512 1691 522.0 1714.0Q532 1737 549.5 1754.5Q567 1772 590.0 1782.0Q613 1792 640 1792ZM640 1536H1408V1664H640Z" fill="black" />
  </g>
</svg>