<svg xmlns="http://www.w3.org/2000/svg" viewBox="0 0 2048 2048">
  <g transform="matrix(1 0 0 -1 0 2048)">
    <path d="M1081 512Q1018 512 961.0 537.5Q904 563 861.5 605.5Q819 648 793.5 705.0Q768 762 768 825V1607Q768 1670 793.5 1727.0Q819 1784 861.5 1826.5Q904 1869 961.0 1894.5Q1018 1920 1081 1920H1607Q1670 1920 1727.0 1894.5Q1784 1869 1826.5 1826.5Q1869 1784 1894.5 1727.0Q1920 1670 1920 1607V825Q1920 762 1894.5 705.0Q1869 648 1826.5 605.5Q1784 563 1727.0 537.5Q1670 512 1607 512ZM1600 640Q1639 640 1674.0 655.0Q1709 670 1735.5 696.5Q1762 723 1777.0 758.0Q1792 793 1792 832V1600Q1792 1639 1777.0 1674.0Q1762 1709 1735.5 1735.5Q1709 1762 1674.0 1777.0Q1639 1792 1600 1792H1088Q1049 1792 1014.0 1777.0Q979 1762 952.5 1735.5Q926 1709 911.0 1674.0Q896 1639 896 1600V832Q896 793 911.0 758.0Q926 723 952.5 696.5Q979 670 1014.0 655.0Q1049 640 1088 640ZM441 128Q378 128 321.0 153.5Q264 179 221.5 221.5Q179 264 153.5 321.0Q128 378 128 441V1223Q128 1286 153.5 1343.0Q179 1400 221.5 1442.5Q264 1485 321.0 1510.5Q378 1536 441 1536H640V1408H448Q409 1408 374.0 1393.0Q339 1378 312.5 1351.5Q286 1325 271.0 1290.0Q256 1255 256 1216V448Q256 409 271.0 374.0Q286 339 312.5 312.5Q339 286 374.0 271.0Q409 256 448 256H960Q991 256 1019.0 265.0Q1047 274 1071.0 291.0Q1095 308 1113.0 331.5Q1131 355 1141 384H1274Q1263 329 1233.5 282.0Q1204 235 1162.0 201.0Q1120 167 1068.0 147.5Q1016 128 960 128Z" fill="black" />
  </g>
</svg>