<svg xmlns="http://www.w3.org/2000/svg" viewBox="0 0 2048 2048">
  <g transform="matrix(1 0 0 -1 0 2048)">
    <path d="M782 826Q782 832 788.0 859.5Q794 887 803.5 925.5Q813 964 824.5 1008.5Q836 1053 846.5 1093.5Q857 1134 865.0 1165.0Q873 1196 876 1207Q882 1233 901 1252L1623 1974Q1697 2048 1801 2048Q1852 2048 1897.0 2029.5Q1942 2011 1975.5 1978.0Q2009 1945 2028.5 1900.5Q2048 1856 2048 1805Q2048 1750 2028.0 1698.5Q2008 1647 1969 1608L1257 896Q1238 877 1212 871Q1200 868 1169.0 860.0Q1138 852 1097.5 841.5Q1057 831 1013.0 819.5Q969 808 930.5 798.5Q892 789 864.0 783.0Q836 777 829 777Q808 777 795.0 791.5Q782 806 782 826ZM441 128Q378 128 321.0 153.5Q264 179 221.5 221.5Q179 264 153.5 321.0Q128 378 128 441V1607Q128 1670 153.5 1727.0Q179 1784 221.5 1826.5Q264 1869 321.0 1894.5Q378 1920 441 1920H1216Q1242 1920 1261.0 1901.0Q1280 1882 1280 1856Q1280 1830 1261.0 1811.0Q1242 1792 1216 1792H448Q409 1792 374.0 1777.0Q339 1762 312.5 1735.5Q286 1709 271.0 1674.0Q256 1639 256 1600V448Q256 409 271.0 374.0Q286 339 312.5 312.5Q339 286 374.0 271.0Q409 256 448 256H1600Q1639 256 1674.0 271.0Q1709 286 1735.5 312.5Q1762 339 1777.0 374.0Q1792 409 1792 448V1216Q1792 1242 1811.0 1261.0Q1830 1280 1856 1280Q1882 1280 1901.0 1261.0Q1920 1242 1920 1216V441Q1920 378 1894.5 321.0Q1869 264 1826.5 221.5Q1784 179 1727.0 153.5Q1670 128 1607 128ZM939 934 1173 993 1878 1698Q1899 1719 1909.5 1746.5Q1920 1774 1920 1803Q1920 1828 1910.5 1849.5Q1901 1871 1885.0 1886.5Q1869 1902 1847.5 1911.0Q1826 1920 1801 1920Q1750 1920 1714 1884L998 1168Z" fill="black" />
  </g>
</svg>