<svg xmlns="http://www.w3.org/2000/svg" viewBox="0 0 2048 2048">
  <g transform="matrix(1 0 0 -1 0 2048)">
    <path d="M0 1088Q0 1221 34.0 1343.5Q68 1466 130.5 1573.0Q193 1680 280.5 1767.5Q368 1855 475.0 1917.5Q582 1980 704.5 2014.0Q827 2048 960 2048Q1093 2048 1215.5 2014.0Q1338 1980 1445.0 1917.5Q1552 1855 1639.5 1767.5Q1727 1680 1789.5 1573.0Q1852 1466 1886.0 1343.5Q1920 1221 1920 1088Q1920 955 1885.5 832.5Q1851 710 1788.5 603.5Q1726 497 1638.5 409.5Q1551 322 1444.5 259.5Q1338 197 1215.0 162.5Q1092 128 960 128Q827 128 704.0 162.0Q581 196 474.5 258.5Q368 321 280.5 408.5Q193 496 130.5 602.5Q68 709 34.0 832.0Q0 955 0 1088ZM1792 1088Q1792 1203 1762.5 1309.5Q1733 1416 1678.5 1508.5Q1624 1601 1548.5 1676.5Q1473 1752 1380.5 1806.5Q1288 1861 1181.5 1890.5Q1075 1920 960 1920Q845 1920 738.5 1890.5Q632 1861 539.5 1806.5Q447 1752 371.5 1676.5Q296 1601 241.5 1508.5Q187 1416 157.5 1309.5Q128 1203 128 1088Q128 973 157.5 866.5Q187 760 241.0 667.5Q295 575 371.0 499.0Q447 423 539.5 369.0Q632 315 738.5 285.5Q845 256 960 256Q1075 256 1181.5 285.5Q1288 315 1380.5 369.0Q1473 423 1549.0 499.0Q1625 575 1679.0 667.5Q1733 760 1762.5 866.5Q1792 973 1792 1088ZM864 1472Q864 1512 892.0 1540.0Q920 1568 960 1568Q1000 1568 1028.0 1540.0Q1056 1512 1056 1472Q1056 1432 1028.0 1404.0Q1000 1376 960 1376Q920 1376 892.0 1404.0Q864 1432 864 1472ZM896 704V1216Q896 1242 915.0 1261.0Q934 1280 960 1280Q986 1280 1005.0 1261.0Q1024 1242 1024 1216V704Q1024 678 1005.0 659.0Q986 640 960 640Q934 640 915.0 659.0Q896 678 896 704Z" fill="black" />
  </g>
</svg>