<svg xmlns="http://www.w3.org/2000/svg" viewBox="0 0 2048 2048">
  <g transform="matrix(1 0 0 -1 0 2048)">
    <path d="M384 320V768Q384 807 369.0 842.0Q354 877 327.5 903.5Q301 930 266.0 945.0Q231 960 192 960Q166 960 147.0 979.0Q128 998 128 1024Q128 1050 147.0 1069.0Q166 1088 192 1088Q231 1088 266.0 1103.0Q301 1118 327.5 1144.5Q354 1171 369.0 1206.0Q384 1241 384 1280V1735Q384 1798 409.5 1855.0Q435 1912 477.5 1954.5Q520 1997 577.0 2022.5Q634 2048 697 2048Q726 2048 747.0 2031.5Q768 2015 768 1984Q768 1958 749.0 1939.0Q730 1920 704 1920Q665 1920 630.0 1905.0Q595 1890 568.5 1863.5Q542 1837 527.0 1802.0Q512 1767 512 1728V1280Q512 1204 478.5 1136.5Q445 1069 384 1024Q445 979 478.5 911.5Q512 844 512 768V320Q512 281 527.0 246.0Q542 211 568.5 184.5Q595 158 630.0 143.0Q665 128 704 128Q730 128 749.0 109.0Q768 90 768 64Q768 33 747.0 16.5Q726 0 697 0Q632 0 575.0 26.0Q518 52 475.5 96.0Q433 140 408.5 198.0Q384 256 384 320ZM1280 64Q1280 90 1299.0 109.0Q1318 128 1344 128Q1383 128 1418.0 143.0Q1453 158 1479.5 184.5Q1506 211 1521.0 246.0Q1536 281 1536 320V768Q1536 844 1569.5 911.5Q1603 979 1664 1024Q1603 1069 1569.5 1136.5Q1536 1204 1536 1280V1728Q1536 1767 1521.0 1802.0Q1506 1837 1479.5 1863.5Q1453 1890 1418.0 1905.0Q1383 1920 1344 1920Q1318 1920 1299.0 1939.0Q1280 1958 1280 1984Q1280 2015 1301.0 2031.5Q1322 2048 1351 2048Q1416 2048 1473.0 2022.0Q1530 1996 1572.5 1952.0Q1615 1908 1639.5 1850.0Q1664 1792 1664 1728V1280Q1664 1241 1679.0 1206.0Q1694 1171 1720.5 1144.5Q1747 1118 1782.0 1103.0Q1817 1088 1856 1088Q1882 1088 1901.0 1069.0Q1920 1050 1920 1024Q1920 998 1901.0 979.0Q1882 960 1856 960Q1817 960 1782.0 945.0Q1747 930 1720.5 903.5Q1694 877 1679.0 842.0Q1664 807 1664 768V313Q1664 250 1638.5 193.0Q1613 136 1570.5 93.5Q1528 51 1471.0 25.5Q1414 0 1351 0Q1322 0 1301.0 16.5Q1280 33 1280 64Z" fill="black" />
  </g>
</svg>