<svg xmlns="http://www.w3.org/2000/svg" viewBox="0 0 2048 2048">
  <g transform="matrix(1 0 0 -1 0 2048)">
    <path d="M2048 1216V704Q2048 665 2033.0 630.0Q2018 595 1991.5 568.5Q1965 542 1930.0 527.0Q1895 512 1856 512H1792V448Q1792 422 1773.0 403.0Q1754 384 1728 384H1600Q1578 384 1565.0 392.5Q1552 401 1545.5 414.5Q1539 428 1537.0 444.5Q1535 461 1535 478Q1535 487 1535.5 495.5Q1536 504 1536 512H512V448Q512 422 493.0 403.0Q474 384 448 384H320Q298 384 285.0 392.5Q272 401 265.5 414.5Q259 428 257.0 444.5Q255 461 255 478Q255 487 255.5 495.5Q256 504 256 512H192Q153 512 118.0 527.0Q83 542 56.5 568.5Q30 595 15.0 630.0Q0 665 0 704V1216Q0 1255 15.0 1290.0Q30 1325 56.5 1351.5Q83 1378 118.0 1393.0Q153 1408 192 1408H902Q912 1490 952.0 1560.5Q992 1631 1052.0 1682.5Q1112 1734 1187.5 1763.0Q1263 1792 1345 1792Q1427 1792 1502.5 1763.0Q1578 1734 1638.0 1682.5Q1698 1631 1737.5 1560.5Q1777 1490 1788 1408H1856Q1895 1408 1930.0 1393.0Q1965 1378 1991.5 1351.5Q2018 1325 2033.0 1290.0Q2048 1255 2048 1216ZM1025 1344V1337Q1025 1274 1050.5 1217.0Q1076 1160 1118.5 1117.5Q1161 1075 1218.0 1049.5Q1275 1024 1338 1024Q1406 1024 1465.5 1048.5Q1525 1073 1569.0 1115.5Q1613 1158 1638.5 1216.5Q1664 1275 1664 1344Q1664 1410 1639.0 1468.5Q1614 1527 1571.0 1570.5Q1528 1614 1470.0 1639.0Q1412 1664 1345 1664Q1278 1664 1220.0 1639.0Q1162 1614 1118.5 1570.5Q1075 1527 1050.0 1469.0Q1025 1411 1025 1344ZM1920 1216Q1920 1238 1911.5 1250.5Q1903 1263 1889.5 1269.5Q1876 1276 1859.5 1278.0Q1843 1280 1826 1280H1788Q1777 1198 1737.5 1127.5Q1698 1057 1638.0 1005.5Q1578 954 1502.5 925.0Q1427 896 1345 896Q1263 896 1187.5 925.0Q1112 954 1052.0 1005.5Q992 1057 952.0 1127.5Q912 1198 902 1280H192Q166 1280 147.0 1261.0Q128 1242 128 1216V704Q128 678 147.0 659.0Q166 640 192 640H1856Q1882 640 1901.0 659.0Q1920 678 1920 704ZM576 1152Q602 1152 621.0 1133.0Q640 1114 640 1088Q640 1062 621.0 1043.0Q602 1024 576 1024H320Q294 1024 275.0 1043.0Q256 1062 256 1088Q256 1114 275.0 1133.0Q294 1152 320 1152Z" fill="black" />
  </g>
</svg>