<svg xmlns="http://www.w3.org/2000/svg" viewBox="0 0 2048 2048">
  <g transform="matrix(1 0 0 -1 0 2048)">
    <path d="M341 1280Q341 1298 348.0 1313.5Q355 1329 366.5 1340.5Q378 1352 393.5 1359.0Q409 1366 427 1366Q446 1366 460.0 1359.5Q474 1353 487 1340L1024 803L1561 1340Q1587 1366 1621 1366Q1639 1366 1654.5 1359.0Q1670 1352 1681.5 1340.5Q1693 1329 1700.0 1313.5Q1707 1298 1707 1280Q1707 1245 1682 1220L1084 622Q1059 597 1024 597Q989 597 964 622L366 1220Q341 1245 341 1280Z" fill="black" />
  </g>
</svg>