<svg xmlns="http://www.w3.org/2000/svg" viewBox="0 0 2048 2048">
  <g transform="matrix(1 0 0 -1 0 2048)">
    <path d="M320 1536Q294 1536 275.0 1517.0Q256 1498 256 1472Q256 1446 275.0 1427.0Q294 1408 320 1408H448Q474 1408 493.0 1427.0Q512 1446 512 1472Q512 1498 493.0 1517.0Q474 1536 448 1536ZM320 1152Q294 1152 275.0 1133.0Q256 1114 256 1088Q256 1062 275.0 1043.0Q294 1024 320 1024H448Q474 1024 493.0 1043.0Q512 1062 512 1088Q512 1114 493.0 1133.0Q474 1152 448 1152ZM320 768Q294 768 275.0 749.0Q256 730 256 704Q256 678 275.0 659.0Q294 640 320 640H448Q474 640 493.0 659.0Q512 678 512 704Q512 730 493.0 749.0Q474 768 448 768ZM0 512Q0 459 20.0 412.5Q40 366 75.0 331.0Q110 296 156.5 276.0Q203 256 256 256H1792Q1845 256 1891.5 276.0Q1938 296 1973.0 331.0Q2008 366 2028.0 412.5Q2048 459 2048 512V1664Q2048 1717 2028.0 1763.5Q2008 1810 1973.0 1845.0Q1938 1880 1891.5 1900.0Q1845 1920 1792 1920H256Q203 1920 156.5 1900.0Q110 1880 75.0 1845.0Q40 1810 20.0 1763.5Q0 1717 0 1664ZM256 384Q229 384 206.0 394.0Q183 404 165.5 421.5Q148 439 138.0 462.0Q128 485 128 512V1664Q128 1691 138.0 1714.0Q148 1737 165.5 1754.5Q183 1772 206.0 1782.0Q229 1792 256 1792H640V384ZM768 384V1792H1792Q1819 1792 1842.0 1782.0Q1865 1772 1882.5 1754.5Q1900 1737 1910.0 1714.0Q1920 1691 1920 1664V512Q1920 485 1910.0 462.0Q1900 439 1882.5 421.5Q1865 404 1842.0 394.0Q1819 384 1792 384Z" fill="black" />
  </g>
</svg>