<svg xmlns="http://www.w3.org/2000/svg" viewBox="0 0 2048 2048">
  <g transform="matrix(1 0 0 -1 0 2048)">
    <path d="M635 1024Q585 1024 539.5 1044.5Q494 1065 459.5 1099.5Q425 1134 404.5 1179.5Q384 1225 384 1275V1669Q384 1721 405.0 1766.5Q426 1812 461.0 1846.0Q496 1880 542.5 1900.0Q589 1920 640 1920H960Q960 1928 959.5 1936.5Q959 1945 959 1954Q959 1971 961.0 1987.5Q963 2004 969.5 2017.5Q976 2031 989.0 2039.5Q1002 2048 1024 2048Q1046 2048 1058.5 2039.5Q1071 2031 1077.5 2017.5Q1084 2004 1086.0 1987.5Q1088 1971 1088 1954V1920H1413Q1463 1920 1508.5 1899.5Q1554 1879 1588.5 1844.5Q1623 1810 1643.5 1764.5Q1664 1719 1664 1669V1275Q1664 1225 1643.5 1179.5Q1623 1134 1588.5 1099.5Q1554 1065 1508.5 1044.5Q1463 1024 1413 1024ZM512 1280Q512 1253 522.0 1229.5Q532 1206 549.0 1189.0Q566 1172 589.5 1162.0Q613 1152 640 1152H1408Q1435 1152 1458.0 1162.0Q1481 1172 1498.5 1189.5Q1516 1207 1526.0 1230.0Q1536 1253 1536 1280V1664Q1536 1690 1526.0 1713.5Q1516 1737 1498.5 1754.5Q1481 1772 1457.5 1782.0Q1434 1792 1408 1792H640Q613 1792 590.0 1782.0Q567 1772 549.5 1754.5Q532 1737 522.0 1714.0Q512 1691 512 1664ZM640 1472Q640 1499 650.0 1522.0Q660 1545 677.5 1562.5Q695 1580 718.0 1590.0Q741 1600 768 1600Q794 1600 817.5 1590.0Q841 1580 858.5 1562.5Q876 1545 886.0 1521.5Q896 1498 896 1472Q896 1445 886.0 1422.0Q876 1399 858.5 1381.5Q841 1364 818.0 1354.0Q795 1344 768 1344Q741 1344 717.5 1354.0Q694 1364 677.0 1381.0Q660 1398 650.0 1421.5Q640 1445 640 1472ZM1152 1472Q1152 1499 1162.0 1522.0Q1172 1545 1189.5 1562.5Q1207 1580 1230.0 1590.0Q1253 1600 1280 1600Q1306 1600 1329.5 1590.0Q1353 1580 1370.5 1562.5Q1388 1545 1398.0 1521.5Q1408 1498 1408 1472Q1408 1445 1398.0 1422.0Q1388 1399 1370.5 1381.5Q1353 1364 1330.0 1354.0Q1307 1344 1280 1344Q1253 1344 1229.5 1354.0Q1206 1364 1189.0 1381.0Q1172 1398 1162.0 1421.5Q1152 1445 1152 1472ZM1669 896Q1719 896 1764.5 875.5Q1810 855 1844.5 820.5Q1879 786 1899.5 740.5Q1920 695 1920 645Q1920 523 1882.0 428.0Q1844 333 1778.0 261.5Q1712 190 1624.0 140.0Q1536 90 1436.5 59.0Q1337 28 1231.0 14.0Q1125 0 1024 0Q922 0 816.0 14.0Q710 28 610.5 59.5Q511 91 423.0 140.5Q335 190 269.5 262.0Q204 334 166.0 429.5Q128 525 128 647Q128 698 149.0 743.5Q170 789 205.5 823.0Q241 857 287.5 876.5Q334 896 385 896ZM1792 640Q1792 666 1782.0 689.5Q1772 713 1754.5 730.5Q1737 748 1713.5 758.0Q1690 768 1664 768H385Q358 768 334.5 758.0Q311 748 293.5 731.0Q276 714 266.0 690.5Q256 667 256 640Q256 540 290.5 463.0Q325 386 383.5 329.0Q442 272 519.0 233.5Q596 195 681.5 171.5Q767 148 855.0 138.0Q943 128 1024 128Q1105 128 1193.0 138.0Q1281 148 1366.5 171.5Q1452 195 1529.0 233.5Q1606 272 1664.5 329.0Q1723 386 1757.5 463.0Q1792 540 1792 640Z" fill="black" />
  </g>
</svg>