<svg xmlns="http://www.w3.org/2000/svg" viewBox="0 0 2048 2048">
  <g transform="matrix(1 0 0 -1 0 2048)">
    <path d="M1392 2012 1437 1875Q1459 1811 1505 1764Q1552 1718 1616 1696L1753 1651H1756Q1773 1644 1782 1631Q1792 1618 1792 1600Q1792 1582 1782 1568Q1773 1554 1756 1549L1619 1504Q1555 1483 1508 1436Q1462 1390 1440 1325L1395 1188Q1388 1171 1375 1162Q1362 1152 1344 1152Q1326 1152 1313 1162Q1312 1163 1311.5 1163.0Q1311 1163 1310 1164Q1298 1173 1293 1188L1248 1325Q1245 1335 1240 1347Q1219 1397 1180 1436Q1176 1440 1172.5 1443.5Q1169 1447 1165 1450Q1144 1468 1120.0 1482.0Q1096 1496 1069 1505L932 1549Q915 1556 906 1569Q896 1582 896 1600Q896 1618 906 1632Q915 1646 932 1651L1069 1696Q1131 1717 1178 1765Q1225 1812 1246 1875L1290 2012Q1297 2029 1310 2038Q1323 2048 1341 2048Q1359 2048 1373 2038Q1387 2029 1392 2012ZM2022 996Q2033 993 2041 982Q2048 974 2048 960Q2048 947 2041 937Q2033 927 2022 923L1924 891Q1880 878 1845 843Q1812 810 1796 764L1764 666Q1761 655 1750 647Q1742 640 1728 640Q1714 640 1706 647Q1695 655 1692 666L1660 764Q1645 809 1611 843Q1577 877 1532 892L1434 924Q1423 927 1415 938Q1408 946 1408 960Q1408 973 1415 983Q1423 993 1434 997L1532 1029Q1576 1044 1610 1078Q1642 1110 1658 1156L1690 1254Q1693 1265 1704 1273Q1712 1280 1726 1280Q1740 1280 1748 1273Q1759 1265 1763 1254L1794 1156Q1810 1110 1843 1077Q1860 1060 1879.5 1048.0Q1899 1036 1922 1029L2020 997ZM1029 1817 951 1792H480Q434 1792 393.0 1774.5Q352 1757 321.5 1726.5Q291 1696 273.5 1655.5Q256 1615 256 1568V480Q256 434 273.5 393.0Q291 352 321.5 321.5Q352 291 393.0 273.5Q434 256 480 256H1568Q1615 256 1655.5 273.5Q1696 291 1726.5 321.5Q1757 352 1774.5 393.0Q1792 434 1792 480V522Q1808 528 1824 539Q1866 569 1885 622L1917 720Q1918 722 1918.5 723.5Q1919 725 1920 727V480Q1920 407 1892.5 343.0Q1865 279 1817.0 231.0Q1769 183 1705.0 155.5Q1641 128 1568 128H480Q407 128 343.0 155.5Q279 183 231.0 231.0Q183 279 155.5 343.0Q128 407 128 480V1568Q128 1641 155.5 1705.0Q183 1769 231.0 1817.0Q279 1865 343.0 1892.5Q407 1920 480 1920H1126L1124 1915Q1111 1878 1087 1854Q1074 1842 1059.5 1832.0Q1045 1822 1029 1817ZM960 896Q934 896 915.0 915.0Q896 934 896 960Q896 986 915.0 1005.0Q934 1024 960 1024H1293Q1280 992 1280 959Q1280 942 1283.5 926.5Q1287 911 1293 896ZM1028 1383Q1042 1378 1056.5 1369.5Q1071 1361 1088 1345Q1099 1334 1108.0 1321.0Q1117 1308 1125 1285L1127 1280H960Q934 1280 915.0 1299.0Q896 1318 896 1344Q896 1369 912.5 1387.0Q929 1405 952 1408ZM608 1280Q568 1280 540.0 1308.0Q512 1336 512 1376Q512 1416 540.0 1444.0Q568 1472 608 1472Q648 1472 676.0 1444.0Q704 1416 704 1376Q704 1336 676.0 1308.0Q648 1280 608 1280ZM704 992Q704 952 676.0 924.0Q648 896 608 896Q568 896 540.0 924.0Q512 952 512 992Q512 1032 540.0 1060.0Q568 1088 608 1088Q648 1088 676.0 1060.0Q704 1032 704 992ZM608 512Q568 512 540.0 540.0Q512 568 512 608Q512 648 540.0 676.0Q568 704 608 704Q648 704 676.0 676.0Q704 648 704 608Q704 568 676.0 540.0Q648 512 608 512ZM896 576Q896 602 915.0 621.0Q934 640 960 640H1472Q1498 640 1517.0 621.0Q1536 602 1536 576Q1536 550 1517.0 531.0Q1498 512 1472 512H960Q934 512 915.0 531.0Q896 550 896 576Z" fill="black" />
  </g>
</svg>