<svg xmlns="http://www.w3.org/2000/svg" viewBox="0 0 2048 2048">
  <g transform="matrix(1 0 0 -1 0 2048)">
    <path d="M251 256Q201 256 155.5 276.5Q110 297 75.5 331.5Q41 366 20.5 411.5Q0 457 0 507V1541Q0 1591 20.5 1636.5Q41 1682 75.5 1716.5Q110 1751 155.5 1771.5Q201 1792 251 1792H1797Q1847 1792 1892.5 1771.5Q1938 1751 1972.5 1716.5Q2007 1682 2027.5 1636.5Q2048 1591 2048 1541V507Q2048 457 2027.5 411.5Q2007 366 1972.5 331.5Q1938 297 1892.5 276.5Q1847 256 1797 256ZM1792 384Q1819 384 1842.0 394.0Q1865 404 1882.5 421.5Q1900 439 1910.0 462.0Q1920 485 1920 512V1536Q1920 1562 1910.0 1585.5Q1900 1609 1882.5 1626.5Q1865 1644 1841.5 1654.0Q1818 1664 1792 1664H256Q229 1664 206.0 1654.0Q183 1644 165.5 1626.5Q148 1609 138.0 1586.0Q128 1563 128 1536V512Q128 485 138.0 461.5Q148 438 165.0 421.0Q182 404 205.5 394.0Q229 384 256 384ZM256 1216V1344Q256 1383 271.0 1418.0Q286 1453 312.5 1479.5Q339 1506 374.0 1521.0Q409 1536 448 1536H576Q602 1536 621.0 1517.0Q640 1498 640 1472Q640 1446 621.0 1427.0Q602 1408 576 1408H448Q427 1408 414.0 1400.5Q401 1393 394.0 1379.5Q387 1366 385.0 1348.5Q383 1331 383 1312Q383 1300 384 1288V1272Q385 1260 385 1248Q385 1228 382.5 1211.0Q380 1194 373.5 1180.5Q367 1167 354.0 1159.5Q341 1152 320 1152Q294 1152 275.0 1171.0Q256 1190 256 1216ZM1408 1472Q1408 1498 1427.0 1517.0Q1446 1536 1472 1536H1600Q1639 1536 1674.0 1521.0Q1709 1506 1735.5 1479.5Q1762 1453 1777.0 1418.0Q1792 1383 1792 1344V1216Q1792 1190 1773.0 1171.0Q1754 1152 1728 1152Q1702 1152 1683.0 1171.0Q1664 1190 1664 1216V1344Q1664 1365 1656.5 1378.0Q1649 1391 1635.5 1397.5Q1622 1404 1604.5 1406.5Q1587 1409 1568 1409Q1556 1409 1544 1408H1528Q1516 1407 1504 1407Q1484 1407 1467.0 1409.0Q1450 1411 1436.5 1418.0Q1423 1425 1415.5 1438.0Q1408 1451 1408 1472ZM448 512Q409 512 374.0 527.0Q339 542 312.5 568.5Q286 595 271.0 630.0Q256 665 256 704V832Q256 858 275.0 877.0Q294 896 320 896Q346 896 365.0 877.0Q384 858 384 832V704Q384 683 391.5 670.0Q399 657 412.5 650.0Q426 643 443.0 641.0Q460 639 480 639Q492 639 504 640H520Q532 641 544 641Q563 641 580.5 638.5Q598 636 611.5 629.5Q625 623 632.5 610.0Q640 597 640 576Q640 550 621.0 531.0Q602 512 576 512ZM1472 512Q1446 512 1427.0 531.0Q1408 550 1408 576Q1408 602 1427.0 621.0Q1446 640 1472 640H1600Q1621 640 1634.0 647.5Q1647 655 1653.5 668.5Q1660 682 1662.5 699.0Q1665 716 1665 736Q1665 748 1664 760V776Q1663 788 1663 800Q1663 819 1665.0 836.5Q1667 854 1674.0 867.5Q1681 881 1694.0 888.5Q1707 896 1728 896Q1754 896 1773.0 877.0Q1792 858 1792 832V704Q1792 665 1777.0 630.0Q1762 595 1735.5 568.5Q1709 542 1674.0 527.0Q1639 512 1600 512Z" fill="black" />
  </g>
</svg>