<svg xmlns="http://www.w3.org/2000/svg" viewBox="0 0 2048 2048">
  <g transform="matrix(1 0 0 -1 0 2048)">
    <path d="M763 512Q713 512 667.5 532.5Q622 553 587.5 587.5Q553 622 532.5 667.5Q512 713 512 763V1669Q512 1719 532.5 1764.5Q553 1810 587.5 1844.5Q622 1879 667.5 1899.5Q713 1920 763 1920H1520Q1571 1920 1618.0 1900.5Q1665 1881 1701 1845L1845 1701Q1881 1665 1900.5 1618.0Q1920 1571 1920 1520V763Q1920 713 1899.5 667.5Q1879 622 1844.5 587.5Q1810 553 1764.5 532.5Q1719 512 1669 512ZM960 1152H1472Q1511 1152 1546.0 1137.0Q1581 1122 1607.5 1095.5Q1634 1069 1649.0 1034.0Q1664 999 1664 960V640Q1691 640 1714.0 650.0Q1737 660 1754.5 677.5Q1772 695 1782.0 718.0Q1792 741 1792 768V1520Q1792 1546 1782.5 1569.5Q1773 1593 1755 1611L1611 1755Q1579 1786 1536 1791V1568Q1536 1535 1523.0 1506.0Q1510 1477 1488.5 1455.5Q1467 1434 1438.0 1421.0Q1409 1408 1376 1408H1056Q1023 1408 994.0 1421.0Q965 1434 943.5 1455.5Q922 1477 909.0 1506.0Q896 1535 896 1568V1792H768Q741 1792 718.0 1782.0Q695 1772 677.5 1754.5Q660 1737 650.0 1714.0Q640 1691 640 1664V768Q640 741 650.0 717.5Q660 694 677.0 677.0Q694 660 717.5 650.0Q741 640 768 640V960Q768 999 783.0 1034.0Q798 1069 824.5 1095.5Q851 1122 886.0 1137.0Q921 1152 960 1152ZM1376 1536Q1390 1536 1399.0 1545.0Q1408 1554 1408 1568V1792H1024V1568Q1024 1555 1033.5 1545.5Q1043 1536 1056 1536ZM379 128Q329 128 283.5 148.5Q238 169 203.5 203.5Q169 238 148.5 283.5Q128 329 128 379V1285Q128 1335 148.5 1380.5Q169 1426 203.5 1460.5Q238 1495 283.5 1515.5Q329 1536 379 1536H384V1408Q357 1408 334.0 1398.0Q311 1388 293.5 1370.5Q276 1353 266.0 1330.0Q256 1307 256 1280V384Q256 357 266.0 333.5Q276 310 293.0 293.0Q310 276 333.5 266.0Q357 256 384 256H1280Q1307 256 1330.0 266.0Q1353 276 1370.5 293.5Q1388 311 1398.0 334.0Q1408 357 1408 384H1536V379Q1536 329 1515.5 283.5Q1495 238 1460.5 203.5Q1426 169 1380.5 148.5Q1335 128 1285 128ZM896 640H1536V960Q1536 986 1517.0 1005.0Q1498 1024 1472 1024H960Q934 1024 915.0 1005.0Q896 986 896 960Z" fill="black" />
  </g>
</svg>