<svg xmlns="http://www.w3.org/2000/svg" viewBox="0 0 2048 2048">
  <g transform="matrix(1 0 0 -1 0 2048)">
    <path d="M1024 1664Q914 1664 807.5 1642.5Q701 1621 602.0 1579.5Q503 1538 413.5 1477.0Q324 1416 247 1338Q209 1299 180.0 1260.5Q151 1222 119 1180Q108 1166 96.0 1159.0Q84 1152 66 1152Q40 1152 21.0 1170.5Q2 1189 2 1216Q2 1235 13 1252Q95 1378 207.0 1478.5Q319 1579 451.0 1648.5Q583 1718 728.5 1755.0Q874 1792 1024 1792Q1174 1792 1319.5 1755.0Q1465 1718 1597.0 1648.5Q1729 1579 1841.0 1478.5Q1953 1378 2035 1252Q2046 1235 2046 1216Q2046 1189 2027.0 1170.5Q2008 1152 1982 1152Q1964 1152 1952.0 1159.0Q1940 1166 1929 1180Q1896 1223 1867.5 1260.5Q1839 1298 1801 1338Q1724 1416 1634.0 1477.0Q1544 1538 1445.0 1579.5Q1346 1621 1240.0 1642.5Q1134 1664 1024 1664ZM1024 352Q991 352 962.0 364.5Q933 377 911.0 399.0Q889 421 876.5 450.0Q864 479 864 512Q864 545 876.5 574.0Q889 603 911.0 625.0Q933 647 962.0 659.5Q991 672 1024 672Q1057 672 1086.0 659.5Q1115 647 1137.0 625.0Q1159 603 1171.5 574.0Q1184 545 1184 512Q1184 479 1171.5 450.0Q1159 421 1137.0 399.0Q1115 377 1086.0 364.5Q1057 352 1024 352Z" fill="black" />
  </g>
</svg>