<svg xmlns="http://www.w3.org/2000/svg" viewBox="0 0 2048 2048">
  <g transform="matrix(1 0 0 -1 0 2048)">
    <path d="M1920 1920Q1947 1920 1970.0 1910.0Q1993 1900 2010.5 1882.5Q2028 1865 2038.0 1842.0Q2048 1819 2048 1792V512Q2048 459 2028.0 412.5Q2008 366 1973.0 331.0Q1938 296 1891.5 276.0Q1845 256 1792 256H256Q203 256 156.5 276.0Q110 296 75.0 331.0Q40 366 20.0 412.5Q0 459 0 512V1792Q0 1819 10.0 1842.0Q20 1865 37.5 1882.5Q55 1900 78.0 1910.0Q101 1920 128 1920ZM512 384V640Q512 667 522.0 690.0Q532 713 549.5 730.5Q567 748 590.0 758.0Q613 768 640 768H1408Q1435 768 1458.0 758.0Q1481 748 1498.5 730.5Q1516 713 1526.0 690.0Q1536 667 1536 640V384H1792Q1819 384 1842.0 394.0Q1865 404 1882.5 421.5Q1900 439 1910.0 462.0Q1920 485 1920 512V1792H128V512Q128 485 138.0 462.0Q148 439 165.5 421.5Q183 404 206.0 394.0Q229 384 256 384ZM1472 1664Q1498 1664 1517.0 1645.0Q1536 1626 1536 1600Q1536 1574 1517.0 1555.0Q1498 1536 1472 1536H576Q550 1536 531.0 1555.0Q512 1574 512 1600Q512 1626 531.0 1645.0Q550 1664 576 1664ZM352 1408Q392 1408 420.0 1380.0Q448 1352 448 1312Q448 1272 420.0 1244.0Q392 1216 352 1216Q312 1216 284.0 1244.0Q256 1272 256 1312Q256 1352 284.0 1380.0Q312 1408 352 1408ZM800 1408Q840 1408 868.0 1380.0Q896 1352 896 1312Q896 1272 868.0 1244.0Q840 1216 800 1216Q760 1216 732.0 1244.0Q704 1272 704 1312Q704 1352 732.0 1380.0Q760 1408 800 1408ZM1248 1408Q1288 1408 1316.0 1380.0Q1344 1352 1344 1312Q1344 1272 1316.0 1244.0Q1288 1216 1248 1216Q1208 1216 1180.0 1244.0Q1152 1272 1152 1312Q1152 1352 1180.0 1380.0Q1208 1408 1248 1408ZM1696 1408Q1736 1408 1764.0 1380.0Q1792 1352 1792 1312Q1792 1272 1764.0 1244.0Q1736 1216 1696 1216Q1656 1216 1628.0 1244.0Q1600 1272 1600 1312Q1600 1352 1628.0 1380.0Q1656 1408 1696 1408ZM608 1088Q648 1088 676.0 1060.0Q704 1032 704 992Q704 952 676.0 924.0Q648 896 608 896Q568 896 540.0 924.0Q512 952 512 992Q512 1032 540.0 1060.0Q568 1088 608 1088ZM1056 1088Q1096 1088 1124.0 1060.0Q1152 1032 1152 992Q1152 952 1124.0 924.0Q1096 896 1056 896Q1016 896 988.0 924.0Q960 952 960 992Q960 1032 988.0 1060.0Q1016 1088 1056 1088ZM1504 1088Q1544 1088 1572.0 1060.0Q1600 1032 1600 992Q1600 952 1572.0 924.0Q1544 896 1504 896Q1464 896 1436.0 924.0Q1408 952 1408 992Q1408 1032 1436.0 1060.0Q1464 1088 1504 1088ZM1408 384V640H640V384Z" fill="black" />
  </g>
</svg>