<svg xmlns="http://www.w3.org/2000/svg" viewBox="0 0 2048 2048">
  <g transform="matrix(1 0 0 -1 0 2048)">
    <path d="M384 1888Q384 1921 396.5 1950.0Q409 1979 431.0 2001.0Q453 2023 482.0 2035.5Q511 2048 544 2048H1504Q1537 2048 1566.0 2035.5Q1595 2023 1617.0 2001.0Q1639 1979 1651.5 1950.0Q1664 1921 1664 1888V1792H1888Q1921 1792 1950.0 1779.5Q1979 1767 2001.0 1745.0Q2023 1723 2035.5 1694.0Q2048 1665 2048 1632V1056Q2048 1023 2035.5 994.0Q2023 965 2001.0 943.0Q1979 921 1950.0 908.5Q1921 896 1888 896H1661Q1655 868 1640.5 844.5Q1626 821 1605.0 804.0Q1584 787 1558.0 777.5Q1532 768 1504 768H544Q516 768 490.0 777.5Q464 787 443.0 804.0Q422 821 407.5 844.5Q393 868 387 896H160Q146 896 137.0 887.0Q128 878 128 864V288Q128 274 137.0 265.0Q146 256 160 256H384V352Q384 385 396.5 414.0Q409 443 431.0 465.0Q453 487 482.0 499.5Q511 512 544 512H1504Q1537 512 1566.0 499.5Q1595 487 1617.0 465.0Q1639 443 1651.5 414.0Q1664 385 1664 352V160Q1664 127 1651.5 98.0Q1639 69 1617.0 47.0Q1595 25 1566.0 12.5Q1537 0 1504 0H544Q516 0 490.0 9.5Q464 19 443.0 36.0Q422 53 407.5 76.5Q393 100 387 128H160Q127 128 98.0 140.5Q69 153 47.0 175.0Q25 197 12.5 226.0Q0 255 0 288V864Q0 897 12.5 926.0Q25 955 47.0 977.0Q69 999 98.0 1011.5Q127 1024 160 1024H384V1120Q384 1153 396.5 1182.0Q409 1211 431.0 1233.0Q453 1255 482.0 1267.5Q511 1280 544 1280H1504Q1537 1280 1566.0 1267.5Q1595 1255 1617.0 1233.0Q1639 1211 1651.5 1182.0Q1664 1153 1664 1120V1024H1888Q1902 1024 1911.0 1033.0Q1920 1042 1920 1056V1632Q1920 1646 1911.0 1655.0Q1902 1664 1888 1664H1661Q1655 1636 1640.5 1612.5Q1626 1589 1605.0 1572.0Q1584 1555 1558.0 1545.5Q1532 1536 1504 1536H544Q511 1536 482.0 1548.5Q453 1561 431.0 1583.0Q409 1605 396.5 1634.0Q384 1663 384 1696ZM544 1920Q530 1920 521.0 1911.0Q512 1902 512 1888V1696Q512 1682 521.0 1673.0Q530 1664 544 1664H1504Q1518 1664 1527.0 1673.0Q1536 1682 1536 1696V1888Q1536 1902 1527.0 1911.0Q1518 1920 1504 1920ZM544 1152Q530 1152 521.0 1143.0Q512 1134 512 1120V928Q512 914 521.0 905.0Q530 896 544 896H1504Q1518 896 1527.0 905.0Q1536 914 1536 928V1120Q1536 1134 1527.0 1143.0Q1518 1152 1504 1152ZM512 352V160Q512 146 521.0 137.0Q530 128 544 128H1504Q1518 128 1527.0 137.0Q1536 146 1536 160V352Q1536 366 1527.0 375.0Q1518 384 1504 384H544Q530 384 521.0 375.0Q512 366 512 352Z" fill="black" />
  </g>
</svg>