<svg xmlns="http://www.w3.org/2000/svg" viewBox="0 0 2048 2048">
  <g transform="matrix(1 0 0 -1 0 2048)">
    <path d="M1152 1024Q1125 1024 1101.5 1034.0Q1078 1044 1061.0 1061.0Q1044 1078 1034.0 1101.5Q1024 1125 1024 1152V1928Q1024 1987 1060.5 2017.5Q1097 2048 1152 2048Q1273 2048 1386.0 2017.0Q1499 1986 1599.0 1928.5Q1699 1871 1782.5 1788.0Q1866 1705 1927 1601Q1992 1490 2020.0 1376.5Q2048 1263 2048 1135Q2048 1111 2038.0 1090.5Q2028 1070 2011.5 1055.0Q1995 1040 1973.0 1032.0Q1951 1024 1928 1024ZM1920 1152Q1920 1311 1859.5 1450.5Q1799 1590 1694.5 1694.5Q1590 1799 1450.5 1859.5Q1311 1920 1152 1920V1152ZM0 896Q0 1005 25.5 1109.5Q51 1214 99.5 1308.0Q148 1402 218.0 1483.0Q288 1564 377 1627Q468 1691 563.5 1728.5Q659 1766 768 1783Q772 1784 776.0 1784.0Q780 1784 784 1784Q809 1784 829.5 1774.0Q850 1764 865.0 1747.5Q880 1731 888.0 1709.5Q896 1688 896 1664V896H1664Q1688 896 1709.5 888.0Q1731 880 1747.5 865.0Q1764 850 1774.0 829.5Q1784 809 1784 784Q1784 780 1784.0 776.0Q1784 772 1783 768Q1766 659 1728.5 563.5Q1691 468 1627 377Q1564 288 1483.0 218.0Q1402 148 1308.0 99.5Q1214 51 1109.5 25.5Q1005 0 896 0Q772 0 657.5 32.0Q543 64 443.5 122.5Q344 181 262.5 262.5Q181 344 122.5 443.5Q64 543 32.0 657.5Q0 772 0 896ZM1653 768H896Q869 768 845.5 778.0Q822 788 805.0 805.0Q788 822 778.0 845.5Q768 869 768 896V1653Q676 1637 592.5 1601.0Q509 1565 438.0 1512.0Q367 1459 309.5 1391.5Q252 1324 212.0 1245.0Q172 1166 150.0 1077.5Q128 989 128 896Q128 790 155.5 691.5Q183 593 233.0 508.0Q283 423 353.0 353.0Q423 283 508.0 233.0Q593 183 691.5 155.5Q790 128 896 128Q989 128 1077.5 150.0Q1166 172 1245.0 212.0Q1324 252 1391.5 309.5Q1459 367 1512.0 438.0Q1565 509 1601.0 592.5Q1637 676 1653 768Z" fill="black" />
  </g>
</svg>