<svg xmlns="http://www.w3.org/2000/svg" viewBox="0 0 2048 2048">
  <g transform="matrix(1 0 0 -1 0 2048)">
    <path d="M779 1664Q768 1633 768 1601Q768 1566 780 1536H384Q331 1536 284.5 1516.0Q238 1496 203.0 1461.0Q168 1426 148.0 1379.5Q128 1333 128 1280V384Q128 331 148.0 284.5Q168 238 203.0 203.0Q238 168 284.5 148.0Q331 128 384 128H1280Q1333 128 1379.5 148.0Q1426 168 1461.0 203.0Q1496 238 1516.0 284.5Q1536 331 1536 384V729Q1537 727 1537.0 726.0Q1537 725 1538 724L1571 621Q1591 573 1633 541Q1641 536 1648.5 532.0Q1656 528 1664 525V384Q1664 305 1634.0 235.0Q1604 165 1551.5 112.5Q1499 60 1429.5 30.0Q1360 0 1280 0H384Q305 0 235.0 30.0Q165 60 112.5 112.5Q60 165 30.0 235.0Q0 305 0 384V1280Q0 1360 30.0 1429.5Q60 1499 112.5 1551.5Q165 1604 235.0 1634.0Q305 1664 384 1664ZM1169 1152H448Q422 1152 403 1171Q384 1190 384 1216Q384 1242 403 1261Q422 1280 448 1280H1127ZM403 787Q384 806 384 832Q384 858 403 877Q422 896 448 896H1216Q1242 896 1261 877Q1280 858 1280 832Q1280 806 1261 787Q1242 768 1216 768H448Q422 768 403 787ZM403 403Q384 422 384 448Q384 474 403 493Q422 512 448 512H832Q858 512 877 493Q896 474 896 448Q896 422 877 403Q858 384 832 384H448Q422 384 403 403ZM1437 1875Q1459 1811 1505 1764Q1552 1718 1616 1696L1753 1651H1756Q1773 1644 1782 1631Q1792 1618 1792 1600Q1792 1582 1782 1568Q1773 1554 1756 1549L1619 1504Q1555 1483 1508 1436Q1462 1390 1440 1325L1395 1188Q1388 1171 1375 1162Q1362 1152 1344 1152Q1326 1152 1313 1162Q1312 1163 1311.5 1163.0Q1311 1163 1310 1164Q1298 1173 1293 1188L1248 1325Q1245 1335 1240 1347Q1219 1397 1180 1436Q1176 1440 1172.5 1443.5Q1169 1447 1165 1450Q1144 1468 1120.0 1482.0Q1096 1496 1069 1505L932 1549Q915 1556 906 1569Q896 1582 896 1600Q896 1618 906 1632Q915 1646 932 1651L1069 1696Q1131 1717 1178 1765Q1225 1812 1246 1875L1290 2012Q1297 2029 1310 2038Q1323 2048 1341 2048Q1359 2048 1373 2038Q1387 2029 1392 2012ZM1922 1029Q1899 1036 1879.5 1048.0Q1860 1060 1843 1077Q1810 1110 1794 1156L1763 1254Q1759 1265 1748 1273Q1740 1280 1726 1280Q1712 1280 1704 1273Q1693 1265 1690 1254L1658 1156Q1642 1110 1610 1078Q1576 1044 1532 1029L1434 997Q1423 993 1415 983Q1408 973 1408 960Q1408 946 1415 938Q1423 927 1434 924L1532 892Q1577 877 1611 843Q1645 809 1660 764L1692 666Q1695 655 1706 647Q1714 640 1728 640Q1742 640 1750 647Q1761 655 1765 666L1796 764Q1812 810 1845 843Q1880 878 1924 891L2022 923Q2033 927 2041 937Q2048 947 2048 960Q2048 974 2041 982Q2033 993 2022 996L2020 997Z" fill="black" />
  </g>
</svg>