<svg xmlns="http://www.w3.org/2000/svg" viewBox="0 0 2048 2048">
  <g transform="matrix(1 0 0 -1 0 2048)">
    <path d="M1074 1536Q1100 1536 1118.5 1517.5Q1137 1499 1137 1473V1118Q1137 1092 1118.5 1073.5Q1100 1055 1074 1055H993V1260Q993 1283 984.0 1303.5Q975 1324 960.0 1339.0Q945 1354 924.5 1363.0Q904 1372 881 1372Q858 1372 837.5 1363.0Q817 1354 801.5 1339.0Q786 1324 777.0 1303.5Q768 1283 768 1260V1055H718Q692 1055 673.5 1073.5Q655 1092 655 1118V1473Q655 1499 673.5 1517.5Q692 1536 718 1536Z" fill="black" />
  </g>
</svg>