<svg xmlns="http://www.w3.org/2000/svg" viewBox="0 0 2048 2048">
  <g transform="matrix(1 0 0 -1 0 2048)">
    <path d="M412 640Q328 640 253.0 675.0Q178 710 121.5 768.5Q65 827 32.5 903.5Q0 980 0 1063Q0 1148 29.0 1226.0Q58 1304 110.5 1364.5Q163 1425 236.0 1462.5Q309 1500 397 1504L429 1505Q440 1628 488.0 1728.0Q536 1828 614.0 1899.5Q692 1971 796.5 2009.5Q901 2048 1024 2048Q1147 2048 1251.5 2009.0Q1356 1970 1434.0 1899.0Q1512 1828 1560.0 1728.0Q1608 1628 1619 1505H1635Q1719 1505 1794.5 1470.0Q1870 1435 1926.0 1376.5Q1982 1318 2015.0 1241.0Q2048 1164 2048 1081V1047Q2048 1041 2047 1036Q1983 1114 1904 1172Q1888 1219 1860.0 1257.0Q1832 1295 1795.0 1321.5Q1758 1348 1713.0 1362.5Q1668 1377 1619 1377Q1567 1377 1533.0 1409.5Q1499 1442 1491 1492Q1486 1528 1479.5 1562.0Q1473 1596 1460 1631Q1434 1703 1390.5 1757.0Q1347 1811 1290.5 1847.5Q1234 1884 1166.5 1902.0Q1099 1920 1024 1920Q949 1920 881.5 1902.0Q814 1884 757.5 1848.0Q701 1812 657.5 1758.0Q614 1704 588 1632Q575 1597 568.5 1563.0Q562 1529 557 1492Q549 1433 510.5 1405.0Q472 1377 415 1377Q354 1377 301.5 1351.5Q249 1326 210.5 1283.5Q172 1241 150.0 1186.0Q128 1131 128 1072Q128 1011 150.0 956.0Q172 901 211.0 859.0Q250 817 303.5 792.5Q357 768 420 768H761Q752 736 747.0 704.0Q742 672 739 640ZM896 576Q896 695 941.5 800.0Q987 905 1065.0 983.0Q1143 1061 1248.0 1106.5Q1353 1152 1472 1152Q1551 1152 1624.5 1131.5Q1698 1111 1762.0 1073.5Q1826 1036 1879.0 983.0Q1932 930 1969.5 866.0Q2007 802 2027.5 728.5Q2048 655 2048 576Q2048 457 2002.5 352.0Q1957 247 1879.0 169.0Q1801 91 1696.0 45.5Q1591 0 1472 0Q1352 0 1247.0 45.0Q1142 90 1064.0 168.0Q986 246 941.0 351.0Q896 456 896 576ZM1472 248Q1502 248 1523 269L1779 525Q1800 546 1800 576Q1800 606 1779.0 627.0Q1758 648 1728 648Q1698 648 1677 627L1536 486V832Q1536 858 1517.0 877.0Q1498 896 1472 896Q1446 896 1427.0 877.0Q1408 858 1408 832V486L1267 627Q1246 648 1216 648Q1186 648 1165.0 627.0Q1144 606 1144 576Q1144 546 1165 525L1421 269Q1442 248 1472 248Z" fill="black" />
  </g>
</svg>