<svg xmlns="http://www.w3.org/2000/svg" viewBox="0 0 2048 2048">
  <g transform="matrix(1 0 0 -1 0 2048)">
    <path d="M0 1024V1646Q0 1677 12.0 1704.5Q24 1732 44.0 1752.0Q64 1772 91.5 1784.0Q119 1796 150 1796H1386Q1414 1796 1439.5 1786.0Q1465 1776 1485.0 1758.0Q1505 1740 1518.0 1716.0Q1531 1692 1535 1664H1672Q1750 1664 1818.5 1633.0Q1887 1602 1938.0 1549.0Q1989 1496 2018.5 1426.5Q2048 1357 2048 1280Q2048 1203 2018.5 1133.5Q1989 1064 1938.0 1011.0Q1887 958 1818.5 927.0Q1750 896 1672 896H1525Q1509 804 1473.0 720.5Q1437 637 1384.0 566.0Q1331 495 1263.5 437.5Q1196 380 1117.0 340.0Q1038 300 950.0 278.0Q862 256 768 256Q662 256 563.5 283.5Q465 311 380.0 361.0Q295 411 225.0 481.0Q155 551 105.0 636.0Q55 721 27.5 819.5Q0 918 0 1024ZM1408 1024V1646Q1408 1655 1401.5 1661.5Q1395 1668 1386 1668H150Q141 1668 134.5 1661.5Q128 1655 128 1646V1024Q128 891 178.0 774.5Q228 658 315.0 571.0Q402 484 518.5 434.0Q635 384 768 384Q901 384 1017.5 434.0Q1134 484 1221.0 571.0Q1308 658 1358.0 774.5Q1408 891 1408 1024ZM1669 1024Q1721 1024 1766.5 1045.0Q1812 1066 1846.0 1101.0Q1880 1136 1900.0 1182.5Q1920 1229 1920 1280Q1920 1331 1900.0 1377.5Q1880 1424 1846.0 1459.0Q1812 1494 1766.5 1515.0Q1721 1536 1669 1536H1536V1024Z" fill="black" />
  </g>
</svg>