<svg xmlns="http://www.w3.org/2000/svg" viewBox="0 0 2048 2048">
  <g transform="matrix(1 0 0 -1 0 2048)">
    <path d="M1216 607Q1216 561 1198.0 520.5Q1180 480 1149.5 449.5Q1119 419 1078.5 401.5Q1038 384 992 384Q945 384 904.5 401.5Q864 419 833.5 449.0Q803 479 785.5 519.5Q768 560 768 607Q768 627 771 647L948 1751Q952 1774 969.5 1788.5Q987 1803 1010 1803Q1036 1803 1053.5 1787.0Q1071 1771 1074 1745L1210 656Q1212 643 1214.0 631.5Q1216 620 1216 607ZM2048 1087Q2048 1060 2028.5 1042.0Q2009 1024 1983 1024Q1963 1024 1948.0 1035.0Q1933 1046 1925 1064Q1912 1094 1897.5 1122.5Q1883 1151 1866 1179L1634 1034Q1617 1024 1600 1024Q1574 1024 1555.0 1043.0Q1536 1062 1536 1088Q1536 1123 1566 1142L1793 1284Q1689 1415 1550.0 1508.0Q1411 1601 1247 1639L1227 1774Q1325 1756 1418.0 1719.5Q1511 1683 1595.0 1631.0Q1679 1579 1753.5 1512.5Q1828 1446 1889 1367Q1898 1355 1913.5 1333.5Q1929 1312 1947.0 1285.5Q1965 1259 1983.0 1230.5Q2001 1202 2015.5 1174.5Q2030 1147 2039.0 1124.0Q2048 1101 2048 1087ZM512 1088Q512 1062 493.0 1043.0Q474 1024 448 1024Q431 1024 414 1034L182 1179Q165 1150 151.0 1122.0Q137 1094 123 1064Q115 1046 100.5 1035.0Q86 1024 65 1024Q39 1024 19.5 1042.0Q0 1060 0 1087Q0 1101 9.0 1123.5Q18 1146 32.0 1172.5Q46 1199 63.0 1227.5Q80 1256 97.0 1281.5Q114 1307 129.0 1328.0Q144 1349 153 1361Q212 1437 283.5 1503.0Q355 1569 436.0 1621.0Q517 1673 606.0 1710.5Q695 1748 790 1768L768 1630Q613 1588 483.5 1498.5Q354 1409 255 1284L482 1142Q512 1123 512 1088ZM1088 607Q1088 615 1086.5 621.0Q1085 627 1084 634L1003 1286Q1001 1277 996.0 1244.0Q991 1211 983.0 1163.0Q975 1115 966.0 1057.0Q957 999 947.0 939.5Q937 880 928.0 823.5Q919 767 912.0 723.0Q905 679 901.0 651.0Q897 623 897 621L896 620L895 610Q895 569 922.5 540.5Q950 512 991 512Q1010 512 1028.0 519.5Q1046 527 1059.0 539.5Q1072 552 1080.0 569.5Q1088 587 1088 607Z" fill="black" />
  </g>
</svg>