<svg xmlns="http://www.w3.org/2000/svg" viewBox="0 0 2048 2048">
  <g transform="matrix(1 0 0 -1 0 2048)">
    <path d="M320 1152Q281 1152 246.0 1167.0Q211 1182 184.5 1208.5Q158 1235 143.0 1270.0Q128 1305 128 1344V1728Q128 1767 143.0 1802.0Q158 1837 184.5 1863.5Q211 1890 246.0 1905.0Q281 1920 320 1920H960Q999 1920 1034.0 1905.0Q1069 1890 1095.5 1863.5Q1122 1837 1137.0 1802.0Q1152 1767 1152 1728V1344Q1152 1305 1137.0 1270.0Q1122 1235 1095.5 1208.5Q1069 1182 1034.0 1167.0Q999 1152 960 1152ZM1600 1152Q1561 1152 1526.0 1167.0Q1491 1182 1464.5 1208.5Q1438 1235 1423.0 1270.0Q1408 1305 1408 1344V1728Q1408 1767 1423.0 1802.0Q1438 1837 1464.5 1863.5Q1491 1890 1526.0 1905.0Q1561 1920 1600 1920H1728Q1767 1920 1802.0 1905.0Q1837 1890 1863.5 1863.5Q1890 1837 1905.0 1802.0Q1920 1767 1920 1728V1344Q1920 1305 1905.0 1270.0Q1890 1235 1863.5 1208.5Q1837 1182 1802.0 1167.0Q1767 1152 1728 1152ZM960 1280Q986 1280 1005.0 1299.0Q1024 1318 1024 1344V1728Q1024 1754 1005.0 1773.0Q986 1792 960 1792H320Q294 1792 275.0 1773.0Q256 1754 256 1728V1344Q256 1318 275.0 1299.0Q294 1280 320 1280ZM1728 1280Q1754 1280 1773.0 1299.0Q1792 1318 1792 1344V1728Q1792 1754 1773.0 1773.0Q1754 1792 1728 1792H1600Q1574 1792 1555.0 1773.0Q1536 1754 1536 1728V1344Q1536 1318 1555.0 1299.0Q1574 1280 1600 1280ZM320 128Q281 128 246.0 143.0Q211 158 184.5 184.5Q158 211 143.0 246.0Q128 281 128 320V704Q128 743 143.0 778.0Q158 813 184.5 839.5Q211 866 246.0 881.0Q281 896 320 896H448Q487 896 522.0 881.0Q557 866 583.5 839.5Q610 813 625.0 778.0Q640 743 640 704V320Q640 281 625.0 246.0Q610 211 583.5 184.5Q557 158 522.0 143.0Q487 128 448 128ZM1088 128Q1049 128 1014.0 143.0Q979 158 952.5 184.5Q926 211 911.0 246.0Q896 281 896 320V704Q896 743 911.0 778.0Q926 813 952.5 839.5Q979 866 1014.0 881.0Q1049 896 1088 896H1728Q1767 896 1802.0 881.0Q1837 866 1863.5 839.5Q1890 813 1905.0 778.0Q1920 743 1920 704V320Q1920 281 1905.0 246.0Q1890 211 1863.5 184.5Q1837 158 1802.0 143.0Q1767 128 1728 128ZM448 256Q474 256 493.0 275.0Q512 294 512 320V704Q512 730 493.0 749.0Q474 768 448 768H320Q294 768 275.0 749.0Q256 730 256 704V320Q256 294 275.0 275.0Q294 256 320 256ZM1728 256Q1754 256 1773.0 275.0Q1792 294 1792 320V704Q1792 730 1773.0 749.0Q1754 768 1728 768H1088Q1062 768 1043.0 749.0Q1024 730 1024 704V320Q1024 294 1043.0 275.0Q1062 256 1088 256Z" fill="black" />
  </g>
</svg>