<svg xmlns="http://www.w3.org/2000/svg" viewBox="0 0 2048 2048">
  <g transform="matrix(1 0 0 -1 0 2048)">
    <path d="M704 0Q665 0 630.0 15.0Q595 30 568.5 56.5Q542 83 527.0 118.0Q512 153 512 192V1856Q512 1895 527.0 1930.0Q542 1965 568.5 1991.5Q595 2018 630.0 2033.0Q665 2048 704 2048H1344Q1383 2048 1418.0 2033.0Q1453 2018 1479.5 1991.5Q1506 1965 1521.0 1930.0Q1536 1895 1536 1856V192Q1536 153 1521.0 118.0Q1506 83 1479.5 56.5Q1453 30 1418.0 15.0Q1383 0 1344 0ZM1344 128Q1370 128 1389.0 147.0Q1408 166 1408 192V1856Q1408 1882 1389.0 1901.0Q1370 1920 1344 1920H704Q678 1920 659.0 1901.0Q640 1882 640 1856V1728H832Q858 1728 877.0 1709.0Q896 1690 896 1664Q896 1638 877.0 1619.0Q858 1600 832 1600H640V1408H960Q986 1408 1005.0 1389.0Q1024 1370 1024 1344Q1024 1318 1005.0 1299.0Q986 1280 960 1280H640V1088H832Q858 1088 877.0 1069.0Q896 1050 896 1024Q896 998 877.0 979.0Q858 960 832 960H640V768H960Q986 768 1005.0 749.0Q1024 730 1024 704Q1024 678 1005.0 659.0Q986 640 960 640H640V448H832Q858 448 877.0 429.0Q896 410 896 384Q896 358 877.0 339.0Q858 320 832 320H640V192Q640 166 659.0 147.0Q678 128 704 128Z" fill="black" />
  </g>
</svg>