<svg xmlns="http://www.w3.org/2000/svg" viewBox="0 0 2048 2048">
  <g transform="matrix(1 0 0 -1 0 2048)">
    <path d="M1152 1291Q1123 1301 1099.5 1319.0Q1076 1337 1059.0 1361.0Q1042 1385 1033.0 1413.0Q1024 1441 1024 1472V1856Q1024 1895 1039.0 1930.0Q1054 1965 1080.5 1991.5Q1107 2018 1142.0 2033.0Q1177 2048 1216 2048H1856Q1895 2048 1930.0 2033.0Q1965 2018 1991.5 1991.5Q2018 1965 2033.0 1930.0Q2048 1895 2048 1856V1472Q2048 1433 2033.0 1398.0Q2018 1363 1991.5 1336.5Q1965 1310 1930.0 1295.0Q1895 1280 1856 1280H1498L1316 1097Q1288 1069 1248 1069Q1230 1069 1211 1077Q1183 1088 1167.5 1112.0Q1152 1136 1152 1165ZM1280 1243 1445 1408H1856Q1882 1408 1901.0 1427.0Q1920 1446 1920 1472V1856Q1920 1882 1901.0 1901.0Q1882 1920 1856 1920H1216Q1190 1920 1171.0 1901.0Q1152 1882 1152 1856V1472Q1152 1450 1160.5 1437.0Q1169 1424 1182.5 1417.5Q1196 1411 1212.5 1409.0Q1229 1407 1246 1407Q1255 1407 1263.5 1407.5Q1272 1408 1280 1408ZM256 1280V1288Q256 1366 287.0 1434.5Q318 1503 371.0 1554.0Q424 1605 493.5 1634.5Q563 1664 640 1664Q720 1664 790.0 1634.0Q860 1604 912.0 1552.0Q964 1500 994.0 1430.0Q1024 1360 1024 1280Q1024 1200 994.0 1130.0Q964 1060 912.0 1008.0Q860 956 790.0 926.0Q720 896 640 896Q560 896 490.0 926.0Q420 956 368.0 1008.0Q316 1060 286.0 1130.0Q256 1200 256 1280ZM896 1280V1285Q896 1337 875.0 1382.5Q854 1428 819.0 1462.0Q784 1496 737.5 1516.0Q691 1536 640 1536Q587 1536 540.5 1515.5Q494 1495 459.5 1460.5Q425 1426 404.5 1379.0Q384 1332 384 1280Q384 1227 404.5 1180.5Q425 1134 459.5 1099.5Q494 1065 540.5 1044.5Q587 1024 640 1024Q692 1024 739.0 1044.5Q786 1065 820.5 1099.5Q855 1134 875.5 1180.5Q896 1227 896 1280ZM0 544Q0 585 14.0 625.5Q28 666 54.0 697.5Q80 729 116.5 748.5Q153 768 197 768H1083Q1127 768 1163.5 748.5Q1200 729 1226.0 697.5Q1252 666 1266.0 625.5Q1280 585 1280 544Q1280 389 1211.0 270.5Q1142 152 1006 78Q922 32 828.0 16.0Q734 0 640 0Q556 0 471.5 14.0Q387 28 310.5 60.5Q234 93 170.5 146.5Q107 200 65 279Q33 341 16.5 408.0Q0 475 0 544ZM1152 544Q1152 558 1147.5 575.0Q1143 592 1134.5 606.5Q1126 621 1113.0 630.5Q1100 640 1083 640H197Q180 640 167.0 630.5Q154 621 145.5 606.5Q137 592 132.5 575.0Q128 558 128 544Q128 430 170.0 350.5Q212 271 282.5 221.5Q353 172 445.5 150.0Q538 128 640 128Q742 128 834.5 150.0Q927 172 997.5 221.5Q1068 271 1110.0 350.5Q1152 430 1152 544Z" fill="black" />
  </g>
</svg>