<svg xmlns="http://www.w3.org/2000/svg" viewBox="0 0 2048 2048">
  <g transform="matrix(1 0 0 -1 0 2048)">
    <path d="M0 1472Q0 1591 45.5 1696.0Q91 1801 169.0 1879.0Q247 1957 352.0 2002.5Q457 2048 576 2048Q655 2048 728.5 2027.5Q802 2007 866.0 1969.5Q930 1932 983.0 1879.0Q1036 1826 1073.5 1762.0Q1111 1698 1131.5 1624.5Q1152 1551 1152 1472Q1152 1353 1106.5 1248.0Q1061 1143 983.0 1065.0Q905 987 800.0 941.5Q695 896 576 896Q456 896 351.0 941.0Q246 986 168.0 1064.0Q90 1142 45.0 1247.0Q0 1352 0 1472ZM640 1562 781 1421Q802 1400 832 1400Q862 1400 883.0 1421.0Q904 1442 904 1472Q904 1502 883 1523L627 1779Q606 1800 576 1800Q546 1800 525 1779L269 1523Q248 1502 248 1472Q248 1442 269.0 1421.0Q290 1400 320 1400Q350 1400 371 1421L512 1562V1216Q512 1190 531.0 1171.0Q550 1152 576 1152Q602 1152 621.0 1171.0Q640 1190 640 1216ZM632 0Q557 0 488.5 30.5Q420 61 368.5 112.5Q317 164 286.5 232.5Q256 301 256 376V809Q317 779 384 761V384Q384 315 419 254L994 828Q1026 860 1066.5 877.0Q1107 894 1152 894Q1197 894 1237.5 877.0Q1278 860 1310 828L1885 254Q1920 315 1920 384V1413Q1920 1465 1899.0 1510.5Q1878 1556 1843.0 1590.0Q1808 1624 1761.5 1644.0Q1715 1664 1664 1664H1287Q1269 1731 1239 1792H1672Q1747 1792 1815.5 1761.5Q1884 1731 1935.5 1679.5Q1987 1628 2017.5 1559.5Q2048 1491 2048 1416V376Q2048 301 2017.5 232.5Q1987 164 1935.5 112.5Q1884 61 1815.5 30.5Q1747 0 1672 0ZM1280 1216Q1280 1255 1295.0 1290.0Q1310 1325 1336.5 1351.5Q1363 1378 1398.0 1393.0Q1433 1408 1472 1408Q1511 1408 1546.0 1393.0Q1581 1378 1607.5 1351.5Q1634 1325 1649.0 1290.0Q1664 1255 1664 1216Q1664 1177 1649.0 1142.0Q1634 1107 1607.5 1080.5Q1581 1054 1546.0 1039.0Q1511 1024 1472 1024Q1433 1024 1398.0 1039.0Q1363 1054 1336.5 1080.5Q1310 1107 1295.0 1142.0Q1280 1177 1280 1216ZM1536 1216Q1536 1242 1517.0 1261.0Q1498 1280 1472 1280Q1446 1280 1427.0 1261.0Q1408 1242 1408 1216Q1408 1190 1427.0 1171.0Q1446 1152 1472 1152Q1498 1152 1517.0 1171.0Q1536 1190 1536 1216ZM1664 128Q1733 128 1794 163L1220 738Q1192 766 1152 766Q1112 766 1084 738L510 163Q571 128 640 128Z" fill="black" />
  </g>
</svg>