<svg xmlns="http://www.w3.org/2000/svg" viewBox="0 0 2048 2048">
  <g transform="matrix(1 0 0 -1 0 2048)">
    <path d="M1152 704Q1152 678 1171.0 659.0Q1190 640 1216 640H1728Q1754 640 1773.0 659.0Q1792 678 1792 704Q1792 730 1773.0 749.0Q1754 768 1728 768H1216Q1190 768 1171.0 749.0Q1152 730 1152 704ZM1152 1024Q1152 998 1171.0 979.0Q1190 960 1216 960H1728Q1754 960 1773.0 979.0Q1792 998 1792 1024Q1792 1050 1773.0 1069.0Q1754 1088 1728 1088H1216Q1190 1088 1171.0 1069.0Q1152 1050 1152 1024ZM1152 1344Q1152 1318 1171.0 1299.0Q1190 1280 1216 1280H1728Q1754 1280 1773.0 1299.0Q1792 1318 1792 1344Q1792 1370 1773.0 1389.0Q1754 1408 1728 1408H1216Q1190 1408 1171.0 1389.0Q1152 1370 1152 1344ZM896 640Q923 640 946.0 650.0Q969 660 986.5 677.5Q1004 695 1014.0 718.0Q1024 741 1024 768V1280Q1024 1307 1014.0 1330.0Q1004 1353 986.5 1370.5Q969 1388 946.0 1398.0Q923 1408 896 1408H384Q357 1408 334.0 1398.0Q311 1388 293.5 1370.5Q276 1353 266.0 1330.0Q256 1307 256 1280V768Q256 741 266.0 718.0Q276 695 293.5 677.5Q311 660 334.0 650.0Q357 640 384 640ZM384 1280H896V768H384ZM0 512Q0 459 20.0 412.5Q40 366 75.0 331.0Q110 296 156.5 276.0Q203 256 256 256H1792Q1845 256 1891.5 276.0Q1938 296 1973.0 331.0Q2008 366 2028.0 412.5Q2048 459 2048 512V1536Q2048 1589 2028.0 1635.5Q2008 1682 1973.0 1717.0Q1938 1752 1891.5 1772.0Q1845 1792 1792 1792H256Q203 1792 156.5 1772.0Q110 1752 75.0 1717.0Q40 1682 20.0 1635.5Q0 1589 0 1536ZM256 384Q229 384 206.0 394.0Q183 404 165.5 421.5Q148 439 138.0 462.0Q128 485 128 512V1536Q128 1563 138.0 1586.0Q148 1609 165.5 1626.5Q183 1644 206.0 1654.0Q229 1664 256 1664H1792Q1819 1664 1842.0 1654.0Q1865 1644 1882.5 1626.5Q1900 1609 1910.0 1586.0Q1920 1563 1920 1536V512Q1920 485 1910.0 462.0Q1900 439 1882.5 421.5Q1865 404 1842.0 394.0Q1819 384 1792 384Z" fill="black" />
  </g>
</svg>