<svg xmlns="http://www.w3.org/2000/svg" viewBox="0 0 2048 2048">
  <g transform="matrix(1 0 0 -1 0 2048)">
    <path d="M447 1792H650Q660 1764 677.5 1740.5Q695 1717 718.5 1700.0Q742 1683 771.0 1673.5Q800 1664 831 1664H1215Q1247 1664 1275.5 1673.5Q1304 1683 1327.5 1700.0Q1351 1717 1368.5 1740.5Q1386 1764 1396 1792H1599Q1625 1792 1644.0 1773.0Q1663 1754 1663 1728V1600Q1663 1574 1682.0 1555.0Q1701 1536 1727 1536Q1753 1536 1772.0 1555.0Q1791 1574 1791 1600V1728Q1791 1768 1776.0 1803.0Q1761 1838 1735.0 1864.0Q1709 1890 1674.0 1905.0Q1639 1920 1599 1920H1396Q1386 1948 1368.5 1971.5Q1351 1995 1327.5 2012.0Q1304 2029 1275.5 2038.5Q1247 2048 1215 2048H831Q800 2048 771.0 2038.5Q742 2029 718.5 2012.0Q695 1995 677.5 1971.5Q660 1948 650 1920H447Q407 1920 372.0 1905.0Q337 1890 311.0 1864.0Q285 1838 270.0 1803.0Q255 1768 255 1728V192Q255 152 270.0 117.0Q285 82 311.0 56.0Q337 30 372.0 15.0Q407 0 447 0H703Q729 0 748.0 19.0Q767 38 767 64Q767 90 748.0 109.0Q729 128 703 128H447Q421 128 402.0 147.0Q383 166 383 192V1728Q383 1754 402.0 1773.0Q421 1792 447 1792ZM831 1792Q805 1792 786.0 1811.0Q767 1830 767 1856Q767 1882 786.0 1901.0Q805 1920 831 1920H1215Q1241 1920 1260.0 1901.0Q1279 1882 1279 1856Q1279 1830 1260.0 1811.0Q1241 1792 1215 1792ZM1087 1408Q1047 1408 1012.0 1393.0Q977 1378 951.0 1352.0Q925 1326 910.0 1291.0Q895 1256 895 1216V192Q895 152 910.0 117.0Q925 82 951.0 56.0Q977 30 1012.0 15.0Q1047 0 1087 0H1632L1613 59Q1612 62 1611 64Q1607 70 1605 72Q1603 74 1598.5 77.0Q1594 80 1589 82L1516 106Q1504 111 1493.0 116.0Q1482 121 1473 128H1087Q1061 128 1042.0 147.0Q1023 166 1023 192V1216Q1023 1242 1042.0 1261.0Q1061 1280 1087 1280H1855Q1881 1280 1900.0 1261.0Q1919 1242 1919 1216V572Q1931 556 1939 534L1966 452Q1967 450 1969 448Q1971 444 1974 440Q1980 435 1987 433L2047 413V1216Q2047 1256 2032.0 1291.0Q2017 1326 1991.0 1352.0Q1965 1378 1930.0 1393.0Q1895 1408 1855 1408ZM1764 741 1664 772Q1634 781 1608 801L1585 820Q1553 852 1536 900L1504 997Q1501 1008 1490 1016Q1480 1023 1470 1024H1467Q1456 1024 1445 1016Q1435 1008 1431 997L1399 900Q1384 854 1352 822Q1350 820 1347.5 817.5Q1345 815 1342 813Q1312 787 1274 773L1198 749L1177 741Q1171 739 1166.5 735.5Q1162 732 1157 727Q1150 719 1150 705Q1150 692 1157 684Q1166 673 1177 669L1275 637L1285 634Q1293 630 1298 628L1310 622Q1333 609 1353 589Q1382 560 1398 520Q1399 518 1400 516Q1402 512 1402 509L1434 412Q1436 406 1439.5 401.5Q1443 397 1448 393Q1458 385 1470 385Q1481 385 1491 393Q1494 395 1497.0 397.5Q1500 400 1502 404L1506 412L1538 509Q1553 555 1586 589Q1603 606 1623.0 617.5Q1643 629 1666 637L1764 669Q1775 673 1783 684Q1791 694 1791 705Q1791 717 1783 727Q1779 732 1774.5 735.5Q1770 739 1764 741ZM1792 1Q1797 1 1801.5 2.5Q1806 4 1810 6Q1818 12 1822 22L1847 100Q1859 137 1887 163Q1916 190 1954 204L2028 228Q2031 230 2034 232Q2040 236 2043 239Q2046 243 2047.0 247.5Q2048 252 2048 257Q2048 267 2043 275Q2041 279 2037.0 282.0Q2033 285 2028 287L1950 312Q1915 324 1887 352Q1860 379 1849 415L1823 493Q1821 496 1819 499Q1815 506 1811 508Q1805 513 1794 513H1791H1788Q1777 513 1771 508Q1767 506 1763 499Q1761 496 1759 493L1733 415Q1722 379 1695 352Q1667 324 1632 312L1554 287Q1549 285 1545.0 282.0Q1541 279 1539 275Q1534 267 1534 257Q1534 252 1535.0 247.5Q1536 243 1539 239Q1542 236 1548 232Q1551 230 1554 228L1628 204Q1666 190 1695 163Q1723 137 1735 100L1760 22Q1764 12 1772 6Q1776 4 1780.5 2.5Q1785 1 1790 1H1791Z" fill="black" />
  </g>
</svg>