<svg xmlns="http://www.w3.org/2000/svg" viewBox="0 0 2048 2048">
  <g transform="matrix(1 0 0 -1 0 2048)">
    <path d="M303 1920Q283 1920 269.5 1906.5Q256 1893 256 1873V896Q256 790 283.5 692.0Q311 594 361.0 508.5Q411 423 481.0 353.0Q551 283 636.5 233.0Q722 183 820.0 155.5Q918 128 1024 128Q1130 128 1228.0 155.5Q1326 183 1411.5 233.0Q1497 283 1567.0 353.0Q1637 423 1687.0 508.5Q1737 594 1764.5 692.0Q1792 790 1792 896Q1792 1023 1752.5 1139.5Q1713 1256 1641.5 1353.0Q1570 1450 1470.0 1522.0Q1370 1594 1249 1631L317 1918Q309 1920 303 1920ZM128 1873Q128 1909 141.5 1941.0Q155 1973 179.0 1997.0Q203 2021 235.0 2034.5Q267 2048 303 2048Q328 2048 355 2040L1287 1754Q1428 1711 1544.5 1626.5Q1661 1542 1744.5 1429.0Q1828 1316 1874.0 1180.0Q1920 1044 1920 896Q1920 772 1888.0 657.5Q1856 543 1797.5 443.5Q1739 344 1657.5 262.5Q1576 181 1476.5 122.5Q1377 64 1262.5 32.0Q1148 0 1024 0Q900 0 785.5 32.0Q671 64 571.5 122.5Q472 181 390.5 262.5Q309 344 250.5 443.5Q192 543 160.0 657.5Q128 772 128 896Z" fill="black" />
  </g>
</svg>