<svg xmlns="http://www.w3.org/2000/svg" viewBox="0 0 2048 2048">
  <g transform="matrix(1 0 0 -1 0 2048)">
    <path d="M1390 2013 1435 1876H1436V1871Q1446 1840 1463.5 1812.0Q1481 1784 1504 1761Q1551 1715 1614 1693L1754 1649Q1769 1645 1779 1629Q1789 1616 1789 1599Q1789 1581 1779 1568Q1771 1556 1754 1549L1617 1504Q1553 1484 1507 1436Q1460 1389 1439 1326L1394 1189Q1389 1174 1375 1164Q1361 1153 1344 1153Q1327 1153 1313 1164Q1312 1166 1312 1166Q1311 1166 1311 1166Q1305 1171 1301.0 1177.0Q1297 1183 1294 1190L1249 1327Q1247 1333 1245.5 1338.5Q1244 1344 1242 1349Q1221 1399 1181 1439L1174 1446Q1171 1448 1166 1453Q1145 1471 1121.0 1485.0Q1097 1499 1070 1508L933 1553Q925 1555 919.0 1560.0Q913 1565 908 1572Q897 1586 897 1603Q897 1619 908 1633Q918 1647 933 1652L1070 1697Q1101 1708 1128.5 1725.5Q1156 1743 1179 1766Q1201 1789 1217.5 1817.5Q1234 1846 1245 1876L1290 2013Q1294 2029 1309 2039Q1324 2049 1340 2049Q1356 2049 1371 2039Q1384 2031 1390 2013ZM237 19Q218 0 192.0 0.0Q166 0 147 19L19 147Q0 166 0.0 192.0Q0 218 19 237Q38 256 64.0 256.0Q90 256 109 237L192 155L531 493Q550 512 576.0 512.0Q602 512 621 493Q640 474 640.0 448.0Q640 422 621 403ZM1919 1029 2020 998Q2031 995 2039 984Q2047 974 2047 963Q2047 951 2039 941Q2031 930 2020 927L1921 895Q1875 878 1842 846Q1810 814 1793 767L1761 669Q1758 658 1747 650Q1739 643 1725 643Q1712 643 1704 650Q1693 658 1690 669L1658 767Q1650 789 1638.0 809.0Q1626 829 1609 846Q1592 863 1572.0 875.5Q1552 888 1530 895L1431 927Q1420 930 1412 941Q1404 951 1404 963Q1404 974 1412 984Q1420 995 1431 998L1530 1030Q1552 1038 1571.5 1050.0Q1591 1062 1608 1079Q1624 1096 1636.0 1115.5Q1648 1135 1655 1157L1687 1254Q1691 1264 1701 1274Q1711 1281 1723 1281Q1735 1281 1745 1274Q1755 1264 1759 1254L1791 1157Q1799 1135 1811.0 1115.0Q1823 1095 1839 1078Q1873 1044 1919 1029ZM952 1792 886 1770Q831 1750 801 1705Q788 1686 780 1664H64Q38 1664 19.0 1683.0Q0 1702 0 1728Q0 1754 19.0 1773.0Q38 1792 64 1792ZM64 1152Q38 1152 19.0 1171.0Q0 1190 0 1216Q0 1242 19.0 1261.0Q38 1280 64 1280H1129L1172 1152ZM1519 754Q1530 743 1537 724L1564 640H64Q38 640 19.0 659.0Q0 678 0 704Q0 730 19.0 749.0Q38 768 64 768H1499Q1503 766 1509.0 762.5Q1515 759 1519 754ZM896 192Q896 218 915.0 237.0Q934 256 960 256H1984Q2010 256 2029.0 237.0Q2048 218 2048 192Q2048 166 2029.0 147.0Q2010 128 1984 128H960Q934 128 915.0 147.0Q896 166 896 192Z" fill="black" />
  </g>
</svg>