<svg xmlns="http://www.w3.org/2000/svg" viewBox="0 0 2048 2048">
  <g transform="matrix(1 0 0 -1 0 2048)">
    <path d="M302 533Q302 582 332.0 615.5Q362 649 407 660Q501 684 581.5 721.0Q662 758 739 819Q814 878 873.0 951.5Q932 1025 972.5 1109.0Q1013 1193 1034.5 1284.5Q1056 1376 1056 1472Q1056 1542 1044.0 1607.5Q1032 1673 1012 1740Q1009 1751 1006.5 1762.5Q1004 1774 1004 1785Q1004 1811 1013.5 1834.0Q1023 1857 1039.5 1874.5Q1056 1892 1079.0 1902.5Q1102 1913 1128 1913Q1133 1913 1136.5 1913.0Q1140 1913 1145 1912Q1256 1896 1351.0 1859.0Q1446 1822 1538 1757Q1628 1693 1699.0 1612.0Q1770 1531 1819.0 1437.5Q1868 1344 1894.0 1239.5Q1920 1135 1920 1024Q1920 900 1888.0 785.5Q1856 671 1797.5 571.5Q1739 472 1657.5 390.5Q1576 309 1476.5 250.5Q1377 192 1262.5 160.0Q1148 128 1024 128Q927 128 828.5 150.0Q730 172 639.5 214.0Q549 256 469.5 317.0Q390 378 330 457Q316 475 309.0 492.5Q302 510 302 533Z" fill="black" />
  </g>
</svg>