<svg xmlns="http://www.w3.org/2000/svg" viewBox="0 0 2048 2048">
  <g transform="matrix(1 0 0 -1 0 2048)">
    <path d="M760 1939Q813 1992 881.0 2020.0Q949 2048 1024 2048Q1099 2048 1167.0 2020.0Q1235 1992 1288 1939L1939 1288Q1992 1235 2020.0 1167.0Q2048 1099 2048 1024Q2048 949 2020.0 881.0Q1992 813 1939 760L1288 109Q1235 56 1167.0 28.0Q1099 0 1024 0Q949 0 881.0 28.0Q813 56 760 109L109 760Q56 813 28.0 881.0Q0 949 0 1024Q0 1099 28.0 1167.0Q56 1235 109 1288ZM1024 1920Q975 1920 930.5 1901.5Q886 1883 851 1848L200 1197Q165 1162 146.5 1117.5Q128 1073 128 1024Q128 975 146.5 930.5Q165 886 200 851L851 200Q886 165 930.5 146.5Q975 128 1024 128Q1073 128 1117.5 146.5Q1162 165 1197 200L1848 851Q1883 886 1901.5 930.5Q1920 975 1920 1024Q1920 1073 1901.5 1117.5Q1883 1162 1848 1197L1197 1848Q1162 1883 1117.5 1901.5Q1073 1920 1024 1920ZM1026 1412Q1042 1366 1075 1333Q1092 1316 1111.5 1304.0Q1131 1292 1154 1285L1252 1253L1254 1252Q1265 1249 1273 1238Q1280 1230 1280 1216Q1280 1203 1273 1193Q1265 1183 1254 1179L1156 1147Q1112 1134 1077 1099Q1044 1066 1028 1020L996 922Q993 911 982 903Q974 896 960 896Q946 896 938 903Q936 905 936 905Q927 911 924 922L892 1020L886 1035Q871 1071 843 1099Q840 1101 837.5 1104.0Q835 1107 832 1109Q817 1122 800.0 1132.0Q783 1142 764 1148L666 1180Q655 1183 647 1194Q640 1202 640 1216Q640 1229 647 1239Q655 1249 666 1253L764 1285Q808 1300 842 1334Q874 1366 890 1412L922 1510Q925 1521 936 1529Q944 1536 958 1536Q972 1536 980 1529Q991 1521 995 1510ZM1333 745 1391 726H1393Q1400 723 1404 717Q1408 712 1408 704Q1408 695 1404 690Q1399 685 1393 682L1334 663Q1308 654 1286 634Q1266 612 1257 586L1238 527Q1235 520 1229 516Q1224 512 1216 512Q1208 512 1203 516Q1197 520 1194 527V528L1175 586Q1166 612 1146 634Q1124 654 1098 663L1040 682Q1033 685 1028 691Q1024 696 1024 704Q1024 713 1028 718Q1033 723 1040 726L1098 745Q1126 754 1145 775Q1165 795 1174 822L1193 881Q1197 889 1201 892Q1206 896 1215 896Q1223 896 1228 892Q1234 888 1237 881L1256 822Q1265 796 1285 774Q1305 755 1333 745Z" fill="black" />
  </g>
</svg>