<svg xmlns="http://www.w3.org/2000/svg" viewBox="0 0 2048 2048">
  <g transform="matrix(1 0 0 -1 0 2048)">
    <path d="M1797 1792Q1847 1792 1892.5 1771.5Q1938 1751 1972.5 1716.5Q2007 1682 2027.5 1636.5Q2048 1591 2048 1541V379Q2048 329 2027.5 283.5Q2007 238 1972.5 203.5Q1938 169 1892.5 148.5Q1847 128 1797 128H1472Q1446 128 1427.0 147.0Q1408 166 1408 192Q1408 218 1427.0 237.0Q1446 256 1472 256H1792Q1819 256 1842.0 266.0Q1865 276 1882.5 293.5Q1900 311 1910.0 334.0Q1920 357 1920 384V1536Q1920 1562 1910.0 1585.5Q1900 1609 1882.5 1626.5Q1865 1644 1841.5 1654.0Q1818 1664 1792 1664H384Q329 1664 293 1626Q269 1601 261.5 1568.0Q254 1535 254 1500Q254 1495 254 1491Q254 1462 255.5 1434.0Q257 1406 257 1380Q257 1337 245.0 1308.5Q233 1280 192 1280Q166 1280 147.0 1299.0Q128 1318 128 1344V1541Q128 1591 148.5 1636.5Q169 1682 203.5 1716.5Q238 1751 283.5 1771.5Q329 1792 379 1792ZM1216 985Q1242 985 1261.0 966.5Q1280 948 1280 922Q1280 887 1251 868L484 369Q498 340 504.5 311.5Q511 283 511 251Q511 199 490.5 153.5Q470 108 434.5 74.5Q399 41 353.0 21.5Q307 2 256 2Q203 2 157.0 22.0Q111 42 76.5 76.5Q42 111 22.0 157.0Q2 203 2 256Q2 307 21.5 353.0Q41 399 74.5 434.5Q108 470 153.5 490.5Q199 511 251 511Q333 511 400 466L578 582L408 692Q372 666 334.0 654.0Q296 642 251 642Q199 642 153.5 662.5Q108 683 74.5 718.0Q41 753 21.5 799.0Q2 845 2 896Q2 948 22.0 994.5Q42 1041 76.5 1076.0Q111 1111 157.0 1131.0Q203 1151 256 1151Q307 1151 353.0 1131.5Q399 1112 434.5 1078.0Q470 1044 490.5 998.5Q511 953 511 901Q511 872 506.0 845.5Q501 819 489 793L695 658L1181 975Q1189 980 1198.0 982.5Q1207 985 1216 985ZM256 767Q282 767 305.5 777.5Q329 788 347.0 805.5Q365 823 375.5 846.5Q386 870 386 896Q386 923 375.5 946.5Q365 970 347.5 987.5Q330 1005 306.5 1015.5Q283 1026 256 1026Q230 1026 206.5 1015.5Q183 1005 165.5 987.0Q148 969 137.5 945.5Q127 922 127 896Q127 870 137.5 846.5Q148 823 165.5 805.5Q183 788 206.5 777.5Q230 767 256 767ZM1280 243Q1280 216 1261.5 197.5Q1243 179 1216 179Q1197 179 1181 190L811 430L929 507L1251 297Q1280 278 1280 243ZM386 256Q386 283 375.5 306.5Q365 330 347.5 347.5Q330 365 306.5 375.5Q283 386 256 386Q230 386 206.5 375.5Q183 365 165.5 347.0Q148 329 137.5 305.5Q127 282 127 256Q127 230 137.5 206.5Q148 183 165.5 165.5Q183 148 206.5 137.5Q230 127 256 127Q282 127 305.5 137.5Q329 148 347.0 165.5Q365 183 375.5 206.5Q386 230 386 256Z" fill="black" />
  </g>
</svg>