<svg xmlns="http://www.w3.org/2000/svg" viewBox="0 0 2048 2048">
  <g transform="matrix(1 0 0 -1 0 2048)">
    <path d="M2048 1600Q2048 1574 2029.0 1555.0Q2010 1536 1984 1536H1658Q1647 1481 1617.5 1434.0Q1588 1387 1546.0 1353.0Q1504 1319 1452.0 1299.5Q1400 1280 1344 1280Q1288 1280 1236.0 1299.5Q1184 1319 1142.0 1353.0Q1100 1387 1070.5 1434.0Q1041 1481 1030 1536H64Q38 1536 19.0 1555.0Q0 1574 0 1600Q0 1626 19.0 1645.0Q38 1664 64 1664H1030Q1041 1719 1070.5 1766.0Q1100 1813 1142.0 1847.0Q1184 1881 1236.0 1900.5Q1288 1920 1344 1920Q1400 1920 1452.0 1900.5Q1504 1881 1546.0 1847.0Q1588 1813 1617.5 1766.0Q1647 1719 1658 1664H1984Q2010 1664 2029.0 1645.0Q2048 1626 2048 1600ZM1536 1600Q1536 1639 1521.0 1674.0Q1506 1709 1479.5 1735.5Q1453 1762 1418.0 1777.0Q1383 1792 1344 1792Q1305 1792 1270.0 1777.0Q1235 1762 1208.5 1735.5Q1182 1709 1167.0 1674.0Q1152 1639 1152 1600Q1152 1561 1167.0 1526.0Q1182 1491 1208.5 1464.5Q1235 1438 1270.0 1423.0Q1305 1408 1344 1408Q1383 1408 1418.0 1423.0Q1453 1438 1479.5 1464.5Q1506 1491 1521.0 1526.0Q1536 1561 1536 1600ZM1984 448Q1984 369 1972.0 291.0Q1960 213 1932 138Q1926 121 1916.5 97.5Q1907 74 1893.5 52.0Q1880 30 1863.0 15.0Q1846 0 1824 0Q1797 0 1778.5 18.5Q1760 37 1760 64Q1760 71 1761.5 79.0Q1763 87 1766 93Q1779 116 1791.0 136.0Q1803 156 1812 182Q1835 246 1845.5 313.0Q1856 380 1856 448Q1856 516 1845.5 583.0Q1835 650 1812 714Q1798 754 1773 794Q1767 804 1763.5 811.5Q1760 819 1760 832Q1760 859 1778.5 877.5Q1797 896 1824 896Q1846 896 1863.0 881.0Q1880 866 1893.5 844.0Q1907 822 1916.5 798.5Q1926 775 1932 758Q1960 683 1972.0 605.0Q1984 527 1984 448ZM1408 832V64Q1408 38 1388.5 19.0Q1369 0 1343 0Q1317 0 1298 19L1061 256H960Q934 256 915.0 275.0Q896 294 896 320V576Q896 602 915.0 621.0Q934 640 960 640H1061L1298 877Q1317 896 1343 896Q1369 896 1388.5 877.0Q1408 858 1408 832ZM1728 448Q1728 416 1722.5 378.5Q1717 341 1707.5 302.5Q1698 264 1685.0 227.5Q1672 191 1657 163Q1649 147 1633.5 137.5Q1618 128 1600 128Q1574 128 1555.0 147.0Q1536 166 1536 192Q1536 201 1540.5 214.5Q1545 228 1550.5 242.5Q1556 257 1562.0 270.5Q1568 284 1571 292Q1585 328 1592.5 369.0Q1600 410 1600 448Q1600 488 1591.5 527.0Q1583 566 1571 604Q1568 613 1562.0 627.0Q1556 641 1550.5 655.0Q1545 669 1540.5 682.5Q1536 696 1536 704Q1536 730 1555.0 749.0Q1574 768 1600 768Q1618 768 1633.5 758.5Q1649 749 1657 733Q1672 705 1685.0 668.5Q1698 632 1707.5 593.5Q1717 555 1722.5 517.0Q1728 479 1728 448ZM704 512Q730 512 749.0 493.0Q768 474 768 448Q768 422 749.0 403.0Q730 384 704 384H64Q38 384 19.0 403.0Q0 422 0 448Q0 474 19.0 493.0Q38 512 64 512Z" fill="black" />
  </g>
</svg>