<svg xmlns="http://www.w3.org/2000/svg" viewBox="0 0 2048 2048">
  <g transform="matrix(1 0 0 -1 0 2048)">
    <path d="M256 2048Q203 2048 156.5 2028.0Q110 2008 75.0 1973.0Q40 1938 20.0 1891.5Q0 1845 0 1792V384Q0 331 20.0 284.5Q40 238 75.0 203.0Q110 168 156.5 148.0Q203 128 256 128H806Q792 159 783.5 191.5Q775 224 771 256H256Q229 256 206.0 266.0Q183 276 165.5 293.5Q148 311 138.0 334.0Q128 357 128 384V1792Q128 1819 138.0 1842.0Q148 1865 165.5 1882.5Q183 1900 206.0 1910.0Q229 1920 256 1920H1024Q1051 1920 1074.0 1910.0Q1097 1900 1114.5 1882.5Q1132 1865 1142.0 1842.0Q1152 1819 1152 1792V1192Q1212 1216 1280 1216V1792Q1280 1845 1260.0 1891.5Q1240 1938 1205.0 1973.0Q1170 2008 1123.5 2028.0Q1077 2048 1024 2048ZM640 1312Q680 1312 708.0 1340.0Q736 1368 736 1408Q736 1448 708.0 1476.0Q680 1504 640 1504Q600 1504 572.0 1476.0Q544 1448 544 1408Q544 1368 572.0 1340.0Q600 1312 640 1312ZM256 1408Q256 1329 286.0 1259.0Q316 1189 368.5 1136.5Q421 1084 491.0 1054.0Q561 1024 640 1024Q720 1024 789.5 1054.0Q859 1084 911.5 1136.5Q964 1189 994.0 1259.0Q1024 1329 1024 1408Q1024 1488 994.0 1557.5Q964 1627 911.5 1679.5Q859 1732 789.5 1762.0Q720 1792 640 1792Q561 1792 491.0 1762.0Q421 1732 368.5 1679.5Q316 1627 286.0 1557.5Q256 1488 256 1408ZM640 1664Q693 1664 739.5 1644.0Q786 1624 821.0 1589.0Q856 1554 876.0 1507.5Q896 1461 896 1408Q896 1355 876.0 1308.5Q856 1262 821.0 1227.0Q786 1192 739.5 1172.0Q693 1152 640 1152Q587 1152 540.5 1172.0Q494 1192 459.0 1227.0Q424 1262 404.0 1308.5Q384 1355 384 1408Q384 1461 404.0 1507.5Q424 1554 459.0 1589.0Q494 1624 540.5 1644.0Q587 1664 640 1664ZM640 896Q587 896 540.5 876.0Q494 856 459.0 821.0Q424 786 404.0 739.5Q384 693 384 640Q384 587 404.0 540.5Q424 494 459.0 459.0Q494 424 540.5 404.0Q587 384 640 384Q693 384 739.5 404.0Q786 424 821.0 459.0Q856 494 876.0 540.5Q896 587 896 640Q896 693 876.0 739.5Q856 786 821.0 821.0Q786 856 739.5 876.0Q693 896 640 896ZM512 640Q512 667 522.0 690.0Q532 713 549.5 730.5Q567 748 590.0 758.0Q613 768 640 768Q667 768 690.0 758.0Q713 748 730.5 730.5Q748 713 758.0 690.0Q768 667 768 640Q768 613 758.0 590.0Q748 567 730.5 549.5Q713 532 690.0 522.0Q667 512 640 512Q613 512 590.0 522.0Q567 532 549.5 549.5Q532 567 522.0 590.0Q512 613 512 640ZM1280 640Q1327 640 1367.5 657.5Q1408 675 1438.5 705.5Q1469 736 1486.5 777.0Q1504 818 1504 864Q1504 911 1486.5 951.5Q1469 992 1438.5 1022.5Q1408 1053 1367.5 1070.5Q1327 1088 1280 1088Q1234 1088 1193.0 1070.5Q1152 1053 1121.5 1022.5Q1091 992 1073.5 951.5Q1056 911 1056 864Q1056 818 1073.5 777.0Q1091 736 1121.5 705.5Q1152 675 1193.0 657.5Q1234 640 1280 640ZM1792 640Q1825 640 1854.0 652.5Q1883 665 1905.0 687.0Q1927 709 1939.5 738.0Q1952 767 1952 800Q1952 833 1939.5 862.0Q1927 891 1905.0 913.0Q1883 935 1854.0 947.5Q1825 960 1792 960Q1759 960 1730.0 947.5Q1701 935 1679.0 913.0Q1657 891 1644.5 862.0Q1632 833 1632 800Q1632 767 1644.5 738.0Q1657 709 1679.0 687.0Q1701 665 1730.0 652.5Q1759 640 1792 640ZM1280 0Q1386 0 1459.0 26.5Q1532 53 1577.5 96.5Q1623 140 1643.5 195.0Q1664 250 1664 307Q1664 349 1648.0 386.5Q1632 424 1604.0 452.0Q1576 480 1538.5 496.0Q1501 512 1459 512H1101Q1059 512 1021.5 496.0Q984 480 956.0 452.0Q928 424 912.0 386.5Q896 349 896 307Q896 250 916.5 195.0Q937 140 982.5 96.5Q1028 53 1101.0 26.5Q1174 0 1280 0ZM1760 128Q1839 128 1894.0 148.0Q1949 168 1983.0 200.5Q2017 233 2032.5 274.5Q2048 316 2048 358Q2048 390 2036.0 418.0Q2024 446 2003.0 467.0Q1982 488 1954.0 500.0Q1926 512 1894 512H1722Q1755 470 1773.5 417.5Q1792 365 1792 307Q1792 262 1783.0 217.0Q1774 172 1754 128Z" fill="black" />
  </g>
</svg>