<svg xmlns="http://www.w3.org/2000/svg" viewBox="0 0 2048 2048">
  <g transform="matrix(1 0 0 -1 0 2048)">
    <path d="M64 1536Q38 1536 19.0 1555.0Q0 1574 0 1600Q0 1626 19.0 1645.0Q38 1664 64 1664H1984Q2010 1664 2029.0 1645.0Q2048 1626 2048 1600Q2048 1574 2029.0 1555.0Q2010 1536 1984 1536ZM1024 896Q1024 920 1040.0 938.5Q1056 957 1080 960L1181 972Q1235 979 1283.0 1003.0Q1331 1027 1368.0 1064.0Q1405 1101 1429.0 1149.0Q1453 1197 1460 1251L1472 1352Q1475 1376 1493.5 1392.0Q1512 1408 1536 1408Q1560 1408 1578.5 1392.0Q1597 1376 1600 1352L1612 1251Q1619 1197 1643.0 1149.0Q1667 1101 1704.0 1064.0Q1741 1027 1788.5 1002.5Q1836 978 1890 972L1992 960Q2016 957 2032.0 938.5Q2048 920 2048 896Q2048 872 2032.0 853.5Q2016 835 1992 832L1890 820Q1836 814 1788.5 789.5Q1741 765 1704.0 728.0Q1667 691 1642.5 643.5Q1618 596 1612 542L1600 440Q1597 416 1578.5 400.0Q1560 384 1536 384Q1512 384 1493.5 400.0Q1475 416 1472 440L1460 542Q1454 596 1429.5 643.5Q1405 691 1368.0 728.0Q1331 765 1283.0 789.0Q1235 813 1181 820L1080 832Q1056 835 1040.0 853.5Q1024 872 1024 896ZM64 1152Q38 1152 19.0 1171.0Q0 1190 0 1216Q0 1242 19.0 1261.0Q38 1280 64 1280H1216Q1242 1280 1261.0 1261.0Q1280 1242 1280 1216Q1280 1190 1261.0 1171.0Q1242 1152 1216 1152ZM1716 896Q1659 927 1613.0 973.0Q1567 1019 1536 1076Q1505 1019 1459.0 973.0Q1413 927 1356 896Q1413 865 1459.0 819.0Q1505 773 1536 716Q1567 773 1613.0 819.0Q1659 865 1716 896ZM64 768Q38 768 19.0 787.0Q0 806 0 832Q0 858 19.0 877.0Q38 896 64 896H897Q897 822 945 768ZM704 0Q678 0 659.0 19.5Q640 39 640 65Q640 91 659 110L1171 621Q1190 640 1216 640Q1242 640 1261.0 621.0Q1280 602 1280 576Q1280 550 1261 531L749 19Q730 0 704 0ZM64 384Q38 384 19.0 403.0Q0 422 0 448Q0 474 19.0 493.0Q38 512 64 512H880L752 384Z" fill="black" />
  </g>
</svg>