<svg xmlns="http://www.w3.org/2000/svg" viewBox="0 0 2048 2048">
  <g transform="matrix(1 0 0 -1 0 2048)">
    <path d="M1024 1741Q1024 1762 1032.0 1780.5Q1040 1799 1054.0 1813.0Q1068 1827 1086.5 1835.0Q1105 1843 1126 1843H1178Q1207 1843 1233.5 1832.5Q1260 1822 1280 1804Q1300 1822 1326.5 1832.5Q1353 1843 1383 1843H1484Q1514 1843 1540.5 1832.5Q1567 1822 1587 1804Q1607 1822 1633.5 1832.5Q1660 1843 1690 1843H1741Q1762 1843 1780.5 1835.0Q1799 1827 1813.0 1813.0Q1827 1799 1835.0 1780.5Q1843 1762 1843 1741V1485Q1843 1439 1828.0 1398.0Q1813 1357 1786.5 1324.0Q1760 1291 1723.5 1268.0Q1687 1245 1644 1235Q1655 1080 1684.5 954.0Q1714 828 1748.5 733.0Q1783 638 1816.0 575.0Q1849 512 1867 482Q1894 441 1894 393V358Q1894 327 1882.0 299.0Q1870 271 1849.5 250.0Q1829 229 1801.0 217.0Q1773 205 1741 205H1180Q1197 228 1208.5 253.0Q1220 278 1225 307H1741Q1762 307 1777.0 322.0Q1792 337 1792 358V393Q1792 410 1781 427Q1759 462 1721.5 534.0Q1684 606 1646.0 713.5Q1608 821 1577.0 962.5Q1546 1104 1538 1278Q1538 1299 1552 1315Q1568 1331 1589 1331Q1621 1331 1648.5 1343.5Q1676 1356 1696.5 1377.0Q1717 1398 1729.0 1426.0Q1741 1454 1741 1485V1741H1690Q1668 1741 1653.0 1726.0Q1638 1711 1638 1690V1587Q1638 1566 1623.5 1551.0Q1609 1536 1587 1536Q1566 1536 1551.0 1551.0Q1536 1566 1536 1587L1535 1690Q1535 1711 1520.0 1726.0Q1505 1741 1484 1741H1383Q1362 1741 1347.0 1726.0Q1332 1711 1332 1690L1331 1587Q1331 1566 1316.0 1551.0Q1301 1536 1280 1536Q1259 1536 1244.0 1551.0Q1229 1566 1229 1587V1690Q1229 1711 1214.0 1726.0Q1199 1741 1178 1741H1126V1485Q1126 1454 1138.0 1426.0Q1150 1398 1170.5 1377.0Q1191 1356 1219.0 1343.5Q1247 1331 1278 1331Q1299 1331 1315 1315Q1329 1299 1329 1278Q1323 1150 1304.0 1039.0Q1285 928 1259.5 835.5Q1234 743 1205.0 669.0Q1176 595 1149 541Q1140 552 1129 561Q1117 570 1102.5 584.0Q1088 598 1072 618Q1095 667 1118.5 730.5Q1142 794 1163.0 871.5Q1184 949 1200.5 1040.0Q1217 1131 1224 1235Q1164 1249 1117.5 1287.0Q1071 1325 1047 1380Q1045 1383 1044.0 1386.5Q1043 1390 1041 1393Q1024 1438 1024 1485ZM461 1229Q461 1271 477.0 1308.5Q493 1346 521.0 1374.0Q549 1402 586.0 1418.0Q623 1434 666 1434Q708 1434 745.5 1418.0Q783 1402 810.5 1374.0Q838 1346 854.0 1308.5Q870 1271 870 1229Q870 1194 859.5 1163.0Q849 1132 829 1106Q811 1080 825 1052Q831 1039 843.5 1031.5Q856 1024 870 1024H922Q943 1024 958.0 1009.0Q973 994 973 973Q973 952 958.0 937.0Q943 922 922 922H808Q786 922 770 904Q755 888 757 864Q769 769 797.0 694.0Q825 619 860.5 562.0Q896 505 932.5 466.0Q969 427 997 403Q1011 392 1017.5 379.0Q1024 366 1024 353Q1024 334 1010.5 320.5Q997 307 978 307H353Q334 307 320.5 320.5Q307 334 307 353Q307 366 313.5 379.0Q320 392 334 403Q362 427 398.5 466.0Q435 505 470.5 562.0Q506 619 534.0 694.0Q562 769 574 864Q577 886 561 904Q546 922 523 922H410Q388 922 373.0 937.0Q358 952 358 973Q358 994 373.0 1009.0Q388 1024 410 1024H461Q475 1024 487.5 1031.5Q500 1039 507 1052Q520 1080 502 1106Q482 1132 471.5 1163.0Q461 1194 461 1229ZM666 1536Q602 1536 546.0 1512.0Q490 1488 448.0 1446.0Q406 1404 382.0 1348.0Q358 1292 358 1229Q358 1175 377 1123Q351 1117 329.0 1103.5Q307 1090 290.5 1070.0Q274 1050 265.0 1025.0Q256 1000 256 973Q256 941 268.0 913.0Q280 885 301.0 864.0Q322 843 350.0 831.0Q378 819 410 819H463Q449 750 424.5 695.5Q400 641 372.5 599.5Q345 558 317.0 529.0Q289 500 268 482Q242 459 223.5 426.5Q205 394 205 353Q205 322 216.5 295.0Q228 268 248.0 248.0Q268 228 295.0 216.5Q322 205 353 205H978Q1009 205 1036.0 216.5Q1063 228 1083.0 248.0Q1103 268 1114.5 295.0Q1126 322 1126 353Q1126 394 1107.5 426.5Q1089 459 1063 482Q1042 500 1014.5 529.0Q987 558 959.0 599.5Q931 641 906.5 695.5Q882 750 868 819H922Q954 819 981.5 831.0Q1009 843 1030.0 864.0Q1051 885 1063.0 913.0Q1075 941 1075 973Q1075 1000 1066.0 1025.0Q1057 1050 1040.5 1070.0Q1024 1090 1002.0 1103.5Q980 1117 954 1123Q973 1175 973 1229Q973 1292 949.0 1348.0Q925 1404 883.0 1446.0Q841 1488 785.0 1512.0Q729 1536 666 1536Z" fill="black" />
  </g>
</svg>