<svg xmlns="http://www.w3.org/2000/svg" viewBox="0 0 2048 2048">
  <g transform="matrix(1 0 0 -1 0 2048)">
    <path d="M128 1153Q128 1277 160.0 1391.5Q192 1506 250.0 1605.5Q308 1705 390.0 1786.0Q472 1867 571.5 1924.5Q671 1982 785.5 2013.5Q900 2045 1024 2045Q1148 2045 1263.0 2013.5Q1378 1982 1477.5 1924.5Q1577 1867 1658.5 1786.0Q1740 1705 1798.0 1605.5Q1856 1506 1888.0 1392.0Q1920 1278 1920 1153Q1920 1062 1902.5 974.5Q1885 887 1850.5 805.5Q1816 724 1766.0 650.0Q1716 576 1651 512L1203 73Q1167 38 1124.5 19.0Q1082 0 1031 0Q1009 0 983.5 5.0Q958 10 933.0 19.5Q908 29 885.5 42.0Q863 55 847 71L397 512Q332 576 282.0 650.0Q232 724 197.5 805.5Q163 887 145.5 974.5Q128 1062 128 1153ZM1029 127Q1054 127 1075.5 137.5Q1097 148 1114 165L1562 603Q1673 712 1732.5 855.0Q1792 998 1792 1153Q1792 1259 1764.5 1357.0Q1737 1455 1687.0 1540.5Q1637 1626 1567.0 1695.5Q1497 1765 1411.5 1815.0Q1326 1865 1228.0 1892.5Q1130 1920 1024 1920Q918 1920 820.0 1892.5Q722 1865 636.5 1815.0Q551 1765 481.0 1695.0Q411 1625 361.0 1539.5Q311 1454 283.5 1356.0Q256 1258 256 1152Q256 1075 271.5 999.5Q287 924 316.5 854.0Q346 784 389.0 720.5Q432 657 487 603L934 165Q951 148 978.0 137.5Q1005 127 1029 127ZM640 1216Q640 1242 659.0 1261.0Q678 1280 704 1280Q730 1280 749 1261L960 1051L1363 1453Q1382 1472 1408 1472Q1434 1472 1453.0 1453.0Q1472 1434 1472 1408Q1472 1382 1453 1363L1005 915Q986 896 960 896Q934 896 915 915L659 1171Q640 1190 640 1216Z" fill="black" />
  </g>
</svg>