<svg xmlns="http://www.w3.org/2000/svg" viewBox="0 0 2048 2048">
  <g transform="matrix(1 0 0 -1 0 2048)">
    <path d="M1024 2047Q1043 2047 1059 2037Q1131 1992 1197.0 1954.5Q1263 1917 1330.0 1885.5Q1397 1854 1468.5 1827.5Q1540 1801 1622 1778Q1660 1767 1697.5 1758.5Q1735 1750 1773 1743Q1795 1738 1819.0 1735.5Q1843 1733 1865 1727Q1889 1720 1904.5 1706.0Q1920 1692 1920 1664V1088Q1920 876 1853.0 707.0Q1786 538 1668.5 405.5Q1551 273 1391.5 174.0Q1232 75 1047 4Q1038 0 1024 0Q1010 0 1001 4Q816 75 656.5 174.0Q497 273 379.5 405.5Q262 538 195.0 707.0Q128 876 128 1088V1664Q128 1692 143.5 1706.0Q159 1720 183 1727Q205 1733 229.0 1735.5Q253 1738 275 1743Q313 1750 350.5 1758.5Q388 1767 426 1778Q508 1801 579.5 1827.5Q651 1854 718.0 1885.5Q785 1917 851.0 1954.5Q917 1992 989 2037Q1005 2047 1024 2047ZM256 1088Q256 901 315.0 752.5Q374 604 477.5 488.0Q581 372 721.0 284.5Q861 197 1024 133Q1187 197 1327.0 284.5Q1467 372 1570.5 488.0Q1674 604 1733.0 752.5Q1792 901 1792 1088V1609Q1587 1644 1393.0 1719.0Q1199 1794 1024 1908Q849 1794 655.0 1719.0Q461 1644 256 1609ZM1536 1344Q1536 1318 1517 1299L1005 787Q986 768 960 768Q934 768 915 787L659 1043Q640 1062 640 1088Q640 1114 659.0 1133.0Q678 1152 704 1152Q730 1152 749 1133L960 922L1427 1389Q1446 1408 1472 1408Q1498 1408 1517.0 1389.0Q1536 1370 1536 1344Z" fill="black" />
  </g>
</svg>