<svg xmlns="http://www.w3.org/2000/svg" viewBox="0 0 2048 2048">
  <g transform="matrix(1 0 0 -1 0 2048)">
    <path d="M192 128Q153 128 118.0 143.0Q83 158 56.5 184.5Q30 211 15.0 246.0Q0 281 0 320V1728Q0 1767 15.0 1802.0Q30 1837 56.5 1863.5Q83 1890 118.0 1905.0Q153 1920 192 1920H704Q780 1920 847.5 1886.5Q915 1853 960 1792Q1005 1853 1072.5 1886.5Q1140 1920 1216 1920H1728Q1767 1920 1802.0 1905.0Q1837 1890 1863.5 1863.5Q1890 1837 1905.0 1802.0Q1920 1767 1920 1728V948L1792 1009V1728Q1792 1754 1773.0 1773.0Q1754 1792 1728 1792H1216Q1177 1792 1142.0 1777.0Q1107 1762 1080.5 1735.5Q1054 1709 1039.0 1674.0Q1024 1639 1024 1600V1009L896 948V1600Q896 1639 881.0 1674.0Q866 1709 839.5 1735.5Q813 1762 778.0 1777.0Q743 1792 704 1792H192Q166 1792 147.0 1773.0Q128 1754 128 1728V320Q128 294 147.0 275.0Q166 256 192 256H704Q735 256 768 267Q801 256 832 256Q863 256 896 267V246Q896 233 896.5 220.5Q897 208 900 195Q858 162 808.0 145.0Q758 128 704 128ZM768 448V704Q768 723 777.5 738.5Q787 754 804 762L1297 998Q1351 1024 1408 1024Q1465 1024 1519 998L2012 762Q2029 754 2038.5 738.5Q2048 723 2048 704Q2048 685 2038.5 669.5Q2029 654 2012 646L1519 409Q1466 384 1408 384Q1350 384 1297 409L896 602V448Q896 422 877.0 403.0Q858 384 832 384Q806 384 787.0 403.0Q768 422 768 448ZM1024 256V398L1241 294Q1279 275 1322.0 265.5Q1365 256 1408 256Q1451 256 1494.0 265.5Q1537 275 1575 294L1792 398V256Q1792 201 1771.0 165.5Q1750 130 1716.0 105.5Q1682 81 1639.5 64.5Q1597 48 1555 30Q1485 1 1408 1Q1331 1 1261 30Q1219 48 1176.5 64.5Q1134 81 1100.0 105.5Q1066 130 1045.0 165.5Q1024 201 1024 256Z" fill="black" />
  </g>
</svg>